<?xml version="1.0" encoding="UTF-8" standalone="no"?>
<!DOCTYPE svg PUBLIC "-//W3C//DTD SVG 1.1//EN"
 "http://www.w3.org/Graphics/SVG/1.1/DTD/svg11.dtd">
<!-- Generated by graphviz version 2.43.0 (0)
 -->
<!-- Title: Illumination&#45;Engine/src/GraphicsModule/CommandBuffer/DependencyStructs/IEImageMemoryBarrier.hpp Pages: 1 -->
<svg width="3415pt" height="719pt"
 viewBox="0.00 0.00 3414.50 719.00" xmlns="http://www.w3.org/2000/svg" xmlns:xlink="http://www.w3.org/1999/xlink">
<g id="graph0" class="graph" transform="scale(1 1) rotate(0) translate(4 715)">
<title>Illumination&#45;Engine/src/GraphicsModule/CommandBuffer/DependencyStructs/IEImageMemoryBarrier.hpp</title>
<polygon fill="white" stroke="transparent" points="-4,4 -4,-715 3410.5,-715 3410.5,4 -4,4"/>
<!-- Node1 -->
<g id="node1" class="node">
<title>Node1</title>
<g id="a_node1"><a xlink:title=" ">
<polygon fill="#bfbfbf" stroke="black" points="1115.5,-630.5 1115.5,-710.5 1387.5,-710.5 1387.5,-630.5 1115.5,-630.5"/>
<text text-anchor="start" x="1123.5" y="-693.7" font-family="Source Sans Pro" font-size="16.00">Illumination&#45;Engine</text>
<text text-anchor="start" x="1123.5" y="-675.7" font-family="Source Sans Pro" font-size="16.00">/src/GraphicsModule</text>
<text text-anchor="start" x="1123.5" y="-657.7" font-family="Source Sans Pro" font-size="16.00">/CommandBuffer/DependencyStructs</text>
<text text-anchor="middle" x="1251.5" y="-639.7" font-family="Source Sans Pro" font-size="16.00">/IEImageMemoryBarrier.hpp</text>
</a>
</g>
</g>
<!-- Node2 -->
<g id="node2" class="node">
<title>Node2</title>
<g id="a_node2"><a xlink:href="_i_e_dependency_info_8hpp.html" target="_top" xlink:title=" ">
<polygon fill="white" stroke="black" points="970.5,-513.5 970.5,-593.5 1242.5,-593.5 1242.5,-513.5 970.5,-513.5"/>
<text text-anchor="start" x="978.5" y="-576.7" font-family="Source Sans Pro" font-size="16.00">Illumination&#45;Engine</text>
<text text-anchor="start" x="978.5" y="-558.7" font-family="Source Sans Pro" font-size="16.00">/src/GraphicsModule</text>
<text text-anchor="start" x="978.5" y="-540.7" font-family="Source Sans Pro" font-size="16.00">/CommandBuffer/DependencyStructs</text>
<text text-anchor="middle" x="1106.5" y="-522.7" font-family="Source Sans Pro" font-size="16.00">/IEDependencyInfo.hpp</text>
</a>
</g>
</g>
<!-- Node1&#45;&gt;Node2 -->
<g id="edge1" class="edge">
<title>Node1&#45;&gt;Node2</title>
<path fill="none" stroke="midnightblue" d="M1193.83,-623.76C1181.23,-613.77 1168.01,-603.28 1155.77,-593.58"/>
<polygon fill="midnightblue" stroke="midnightblue" points="1191.99,-626.77 1202,-630.25 1196.34,-621.29 1191.99,-626.77"/>
</g>
<!-- Node27 -->
<g id="node27" class="node">
<title>Node27</title>
<g id="a_node27"><a xlink:href="_i_e_image_memory_barrier_8cpp.html" target="_top" xlink:title=" ">
<polygon fill="white" stroke="black" points="1260.5,-513.5 1260.5,-593.5 1532.5,-593.5 1532.5,-513.5 1260.5,-513.5"/>
<text text-anchor="start" x="1268.5" y="-576.7" font-family="Source Sans Pro" font-size="16.00">Illumination&#45;Engine</text>
<text text-anchor="start" x="1268.5" y="-558.7" font-family="Source Sans Pro" font-size="16.00">/src/GraphicsModule</text>
<text text-anchor="start" x="1268.5" y="-540.7" font-family="Source Sans Pro" font-size="16.00">/CommandBuffer/DependencyStructs</text>
<text text-anchor="middle" x="1396.5" y="-522.7" font-family="Source Sans Pro" font-size="16.00">/IEImageMemoryBarrier.cpp</text>
</a>
</g>
</g>
<!-- Node1&#45;&gt;Node27 -->
<g id="edge31" class="edge">
<title>Node1&#45;&gt;Node27</title>
<path fill="none" stroke="midnightblue" d="M1309.17,-623.76C1321.77,-613.77 1334.99,-603.28 1347.23,-593.58"/>
<polygon fill="midnightblue" stroke="midnightblue" points="1306.66,-621.29 1301,-630.25 1311.01,-626.77 1306.66,-621.29"/>
</g>
<!-- Node3 -->
<g id="node3" class="node">
<title>Node3</title>
<g id="a_node3"><a xlink:href="_i_e_dependency_info_8cpp.html" target="_top" xlink:title=" ">
<polygon fill="white" stroke="black" points="819.5,-396.5 819.5,-476.5 1091.5,-476.5 1091.5,-396.5 819.5,-396.5"/>
<text text-anchor="start" x="827.5" y="-459.7" font-family="Source Sans Pro" font-size="16.00">Illumination&#45;Engine</text>
<text text-anchor="start" x="827.5" y="-441.7" font-family="Source Sans Pro" font-size="16.00">/src/GraphicsModule</text>
<text text-anchor="start" x="827.5" y="-423.7" font-family="Source Sans Pro" font-size="16.00">/CommandBuffer/DependencyStructs</text>
<text text-anchor="middle" x="955.5" y="-405.7" font-family="Source Sans Pro" font-size="16.00">/IEDependencyInfo.cpp</text>
</a>
</g>
</g>
<!-- Node2&#45;&gt;Node3 -->
<g id="edge2" class="edge">
<title>Node2&#45;&gt;Node3</title>
<path fill="none" stroke="midnightblue" d="M1046.82,-507.05C1033.59,-496.97 1019.68,-486.38 1006.81,-476.58"/>
<polygon fill="midnightblue" stroke="midnightblue" points="1044.88,-509.97 1054.96,-513.25 1049.12,-504.4 1044.88,-509.97"/>
</g>
<!-- Node4 -->
<g id="node4" class="node">
<title>Node4</title>
<g id="a_node4"><a xlink:href="_i_e_command_buffer_8hpp.html" target="_top" xlink:title=" ">
<polygon fill="white" stroke="black" points="1110,-405.5 1110,-467.5 1405,-467.5 1405,-405.5 1110,-405.5"/>
<text text-anchor="start" x="1118" y="-450.7" font-family="Source Sans Pro" font-size="16.00">Illumination&#45;Engine</text>
<text text-anchor="start" x="1118" y="-432.7" font-family="Source Sans Pro" font-size="16.00">/src/GraphicsModule</text>
<text text-anchor="middle" x="1257.5" y="-414.7" font-family="Source Sans Pro" font-size="16.00">/CommandBuffer/IECommandBuffer.hpp</text>
</a>
</g>
</g>
<!-- Node2&#45;&gt;Node4 -->
<g id="edge3" class="edge">
<title>Node2&#45;&gt;Node4</title>
<path fill="none" stroke="midnightblue" d="M1166.46,-506.84C1183.83,-493.61 1202.34,-479.51 1218.11,-467.5"/>
<polygon fill="midnightblue" stroke="midnightblue" points="1163.88,-504.4 1158.04,-513.25 1168.12,-509.97 1163.88,-504.4"/>
</g>
<!-- Node5 -->
<g id="node5" class="node">
<title>Node5</title>
<g id="a_node5"><a xlink:href="_i_e_command_buffer_8cpp.html" target="_top" xlink:title=" ">
<polygon fill="white" stroke="black" points="0,-81.5 0,-143.5 293,-143.5 293,-81.5 0,-81.5"/>
<text text-anchor="start" x="8" y="-126.7" font-family="Source Sans Pro" font-size="16.00">Illumination&#45;Engine</text>
<text text-anchor="start" x="8" y="-108.7" font-family="Source Sans Pro" font-size="16.00">/src/GraphicsModule</text>
<text text-anchor="middle" x="146.5" y="-90.7" font-family="Source Sans Pro" font-size="16.00">/CommandBuffer/IECommandBuffer.cpp</text>
</a>
</g>
</g>
<!-- Node4&#45;&gt;Node5 -->
<g id="edge4" class="edge">
<title>Node4&#45;&gt;Node5</title>
<path fill="none" stroke="midnightblue" d="M1144.18,-402.66C927.8,-339.94 458.78,-204.01 250.16,-143.54"/>
<polygon fill="midnightblue" stroke="midnightblue" points="1143.4,-406.07 1153.98,-405.5 1145.35,-399.35 1143.4,-406.07"/>
</g>
<!-- Node6 -->
<g id="node6" class="node">
<title>Node6</title>
<g id="a_node6"><a xlink:href="_i_e_command_pool_8hpp.html" target="_top" xlink:title=" ">
<polygon fill="white" stroke="black" points="1115,-297.5 1115,-359.5 1400,-359.5 1400,-297.5 1115,-297.5"/>
<text text-anchor="start" x="1123" y="-342.7" font-family="Source Sans Pro" font-size="16.00">Illumination&#45;Engine</text>
<text text-anchor="start" x="1123" y="-324.7" font-family="Source Sans Pro" font-size="16.00">/src/GraphicsModule</text>
<text text-anchor="middle" x="1257.5" y="-306.7" font-family="Source Sans Pro" font-size="16.00">/CommandBuffer/IECommandPool.hpp</text>
</a>
</g>
</g>
<!-- Node4&#45;&gt;Node6 -->
<g id="edge5" class="edge">
<title>Node4&#45;&gt;Node6</title>
<path fill="none" stroke="midnightblue" d="M1257.5,-395.31C1257.5,-383.48 1257.5,-370.75 1257.5,-359.67"/>
<polygon fill="midnightblue" stroke="midnightblue" points="1254,-395.41 1257.5,-405.41 1261,-395.41 1254,-395.41"/>
</g>
<!-- Node24 -->
<g id="node24" class="node">
<title>Node24</title>
<g id="a_node24"><a xlink:href="_i_e_render_pass_8hpp.html" target="_top" xlink:title=" ">
<polygon fill="white" stroke="black" points="2246.5,-297.5 2246.5,-359.5 2474.5,-359.5 2474.5,-297.5 2246.5,-297.5"/>
<text text-anchor="start" x="2254.5" y="-342.7" font-family="Source Sans Pro" font-size="16.00">Illumination&#45;Engine</text>
<text text-anchor="start" x="2254.5" y="-324.7" font-family="Source Sans Pro" font-size="16.00">/src/GraphicsModule</text>
<text text-anchor="middle" x="2360.5" y="-306.7" font-family="Source Sans Pro" font-size="16.00">/RenderPass/IERenderPass.hpp</text>
</a>
</g>
</g>
<!-- Node4&#45;&gt;Node24 -->
<g id="edge25" class="edge">
<title>Node4&#45;&gt;Node24</title>
<path fill="none" stroke="midnightblue" d="M1415.36,-420.33C1640.47,-398.7 2048.34,-359.5 2246.42,-340.46"/>
<polygon fill="midnightblue" stroke="midnightblue" points="1414.73,-416.87 1405.11,-421.31 1415.4,-423.84 1414.73,-416.87"/>
</g>
<!-- Node7 -->
<g id="node7" class="node">
<title>Node7</title>
<g id="a_node7"><a xlink:href="_i_e_command_pool_8cpp.html" target="_top" xlink:title=" ">
<polygon fill="white" stroke="black" points="311.5,-81.5 311.5,-143.5 595.5,-143.5 595.5,-81.5 311.5,-81.5"/>
<text text-anchor="start" x="319.5" y="-126.7" font-family="Source Sans Pro" font-size="16.00">Illumination&#45;Engine</text>
<text text-anchor="start" x="319.5" y="-108.7" font-family="Source Sans Pro" font-size="16.00">/src/GraphicsModule</text>
<text text-anchor="middle" x="453.5" y="-90.7" font-family="Source Sans Pro" font-size="16.00">/CommandBuffer/IECommandPool.cpp</text>
</a>
</g>
</g>
<!-- Node6&#45;&gt;Node7 -->
<g id="edge6" class="edge">
<title>Node6&#45;&gt;Node7</title>
<path fill="none" stroke="midnightblue" d="M1134.4,-294.73C979.59,-253.53 715.97,-183.36 566.22,-143.5"/>
<polygon fill="midnightblue" stroke="midnightblue" points="1133.87,-298.22 1144.44,-297.41 1135.67,-291.45 1133.87,-298.22"/>
</g>
<!-- Node8 -->
<g id="node8" class="node">
<title>Node8</title>
<g id="a_node8"><a xlink:href="_i_e_render_engine_8hpp.html" target="_top" xlink:title=" ">
<polygon fill="white" stroke="black" points="1590,-189.5 1590,-251.5 1751,-251.5 1751,-189.5 1590,-189.5"/>
<text text-anchor="start" x="1598" y="-234.7" font-family="Source Sans Pro" font-size="16.00">Illumination&#45;Engine</text>
<text text-anchor="start" x="1598" y="-216.7" font-family="Source Sans Pro" font-size="16.00">/src/GraphicsModule</text>
<text text-anchor="middle" x="1670.5" y="-198.7" font-family="Source Sans Pro" font-size="16.00">/IERenderEngine.hpp</text>
</a>
</g>
</g>
<!-- Node6&#45;&gt;Node8 -->
<g id="edge7" class="edge">
<title>Node6&#45;&gt;Node8</title>
<path fill="none" stroke="midnightblue" d="M1384.25,-294.97C1451.22,-277.78 1531.41,-257.2 1589.85,-242.2"/>
<polygon fill="midnightblue" stroke="midnightblue" points="1383.28,-291.6 1374.47,-297.48 1385.02,-298.38 1383.28,-291.6"/>
</g>
<!-- Node8&#45;&gt;Node5 -->
<g id="edge9" class="edge">
<title>Node8&#45;&gt;Node5</title>
<path fill="none" stroke="midnightblue" d="M1579.77,-218.81C1359.84,-216.2 781.13,-203.71 302.5,-144 299.49,-143.62 296.45,-143.22 293.38,-142.8"/>
<polygon fill="midnightblue" stroke="midnightblue" points="1579.93,-222.31 1589.97,-218.93 1580.01,-215.31 1579.93,-222.31"/>
</g>
<!-- Node8&#45;&gt;Node7 -->
<g id="edge10" class="edge">
<title>Node8&#45;&gt;Node7</title>
<path fill="none" stroke="midnightblue" d="M1579.71,-217.01C1395.22,-211.07 963.56,-192.77 604.5,-144 601.58,-143.6 598.64,-143.19 595.68,-142.75"/>
<polygon fill="midnightblue" stroke="midnightblue" points="1579.8,-220.51 1589.9,-217.33 1580.02,-213.51 1579.8,-220.51"/>
</g>
<!-- Node9 -->
<g id="node9" class="node">
<title>Node9</title>
<g id="a_node9"><a xlink:href="_i_e_buffer_8cpp.html" target="_top" xlink:title=" ">
<polygon fill="white" stroke="black" points="614,-81.5 614,-143.5 771,-143.5 771,-81.5 614,-81.5"/>
<text text-anchor="start" x="622" y="-126.7" font-family="Source Sans Pro" font-size="16.00">Illumination&#45;Engine</text>
<text text-anchor="start" x="622" y="-108.7" font-family="Source Sans Pro" font-size="16.00">/src/GraphicsModule</text>
<text text-anchor="middle" x="692.5" y="-90.7" font-family="Source Sans Pro" font-size="16.00">/Buffer/IEBuffer.cpp</text>
</a>
</g>
</g>
<!-- Node8&#45;&gt;Node9 -->
<g id="edge8" class="edge">
<title>Node8&#45;&gt;Node9</title>
<path fill="none" stroke="midnightblue" d="M1579.51,-219.33C1417.04,-217.35 1067.11,-205.56 779.5,-144 776.84,-143.43 774.15,-142.8 771.44,-142.13"/>
<polygon fill="midnightblue" stroke="midnightblue" points="1579.9,-222.83 1589.94,-219.44 1579.98,-215.83 1579.9,-222.83"/>
</g>
<!-- Node10 -->
<g id="node10" class="node">
<title>Node10</title>
<g id="a_node10"><a xlink:href="_i_e_a_p_i_8cpp.html" target="_top" xlink:title=" ">
<polygon fill="white" stroke="black" points="789,-81.5 789,-143.5 946,-143.5 946,-81.5 789,-81.5"/>
<text text-anchor="start" x="797" y="-126.7" font-family="Source Sans Pro" font-size="16.00">Illumination&#45;Engine</text>
<text text-anchor="start" x="797" y="-108.7" font-family="Source Sans Pro" font-size="16.00">/src/GraphicsModule</text>
<text text-anchor="middle" x="867.5" y="-90.7" font-family="Source Sans Pro" font-size="16.00">/IEAPI.cpp</text>
</a>
</g>
</g>
<!-- Node8&#45;&gt;Node10 -->
<g id="edge11" class="edge">
<title>Node8&#45;&gt;Node10</title>
<path fill="none" stroke="midnightblue" d="M1579.75,-216.67C1442.75,-210.88 1175.64,-193.71 954.5,-144 951.85,-143.4 949.16,-142.75 946.46,-142.05"/>
<polygon fill="midnightblue" stroke="midnightblue" points="1579.65,-220.16 1589.78,-217.08 1579.94,-213.17 1579.65,-220.16"/>
</g>
<!-- Node11 -->
<g id="node11" class="node">
<title>Node11</title>
<g id="a_node11"><a xlink:href="_i_e_camera_8cpp.html" target="_top" xlink:title=" ">
<polygon fill="white" stroke="black" points="964,-81.5 964,-143.5 1121,-143.5 1121,-81.5 964,-81.5"/>
<text text-anchor="start" x="972" y="-126.7" font-family="Source Sans Pro" font-size="16.00">Illumination&#45;Engine</text>
<text text-anchor="start" x="972" y="-108.7" font-family="Source Sans Pro" font-size="16.00">/src/GraphicsModule</text>
<text text-anchor="middle" x="1042.5" y="-90.7" font-family="Source Sans Pro" font-size="16.00">/IECamera.cpp</text>
</a>
</g>
</g>
<!-- Node8&#45;&gt;Node11 -->
<g id="edge12" class="edge">
<title>Node8&#45;&gt;Node11</title>
<path fill="none" stroke="midnightblue" d="M1579.58,-212.36C1471.24,-202.59 1285.3,-181.78 1129.5,-144 1126.7,-143.32 1123.86,-142.59 1121.01,-141.81"/>
<polygon fill="midnightblue" stroke="midnightblue" points="1579.55,-215.87 1589.82,-213.27 1580.17,-208.9 1579.55,-215.87"/>
</g>
<!-- Node12 -->
<g id="node12" class="node">
<title>Node12</title>
<g id="a_node12"><a xlink:href="_i_e_render_engine_8cpp.html" target="_top" xlink:title=" ">
<polygon fill="white" stroke="black" points="1139,-81.5 1139,-143.5 1298,-143.5 1298,-81.5 1139,-81.5"/>
<text text-anchor="start" x="1147" y="-126.7" font-family="Source Sans Pro" font-size="16.00">Illumination&#45;Engine</text>
<text text-anchor="start" x="1147" y="-108.7" font-family="Source Sans Pro" font-size="16.00">/src/GraphicsModule</text>
<text text-anchor="middle" x="1218.5" y="-90.7" font-family="Source Sans Pro" font-size="16.00">/IERenderEngine.cpp</text>
</a>
</g>
</g>
<!-- Node8&#45;&gt;Node12 -->
<g id="edge13" class="edge">
<title>Node8&#45;&gt;Node12</title>
<path fill="none" stroke="midnightblue" d="M1579.67,-204.03C1505.56,-190.6 1398.46,-169.36 1306.5,-144 1303.85,-143.27 1301.16,-142.5 1298.46,-141.7"/>
<polygon fill="midnightblue" stroke="midnightblue" points="1579.44,-207.54 1589.9,-205.87 1580.68,-200.65 1579.44,-207.54"/>
</g>
<!-- Node14 -->
<g id="node14" class="node">
<title>Node14</title>
<g id="a_node14"><a xlink:href="_i_e_image_8cpp.html" target="_top" xlink:title=" ">
<polygon fill="white" stroke="black" points="1316,-81.5 1316,-143.5 1473,-143.5 1473,-81.5 1316,-81.5"/>
<text text-anchor="start" x="1324" y="-126.7" font-family="Source Sans Pro" font-size="16.00">Illumination&#45;Engine</text>
<text text-anchor="start" x="1324" y="-108.7" font-family="Source Sans Pro" font-size="16.00">/src/GraphicsModule</text>
<text text-anchor="middle" x="1394.5" y="-90.7" font-family="Source Sans Pro" font-size="16.00">/Image/IEImage.cpp</text>
</a>
</g>
</g>
<!-- Node8&#45;&gt;Node14 -->
<g id="edge15" class="edge">
<title>Node8&#45;&gt;Node14</title>
<path fill="none" stroke="midnightblue" d="M1582.38,-185.66C1547.26,-172.17 1507.16,-156.77 1473.05,-143.67"/>
<polygon fill="midnightblue" stroke="midnightblue" points="1581.56,-189.09 1592.15,-189.41 1584.07,-182.56 1581.56,-189.09"/>
</g>
<!-- Node15 -->
<g id="node15" class="node">
<title>Node15</title>
<g id="a_node15"><a xlink:href="_i_e_texture_8cpp.html" target="_top" xlink:title=" ">
<polygon fill="white" stroke="black" points="1491,-81.5 1491,-143.5 1652,-143.5 1652,-81.5 1491,-81.5"/>
<text text-anchor="start" x="1499" y="-126.7" font-family="Source Sans Pro" font-size="16.00">Illumination&#45;Engine</text>
<text text-anchor="start" x="1499" y="-108.7" font-family="Source Sans Pro" font-size="16.00">/src/GraphicsModule</text>
<text text-anchor="middle" x="1571.5" y="-90.7" font-family="Source Sans Pro" font-size="16.00">/Image/IETexture.cpp</text>
</a>
</g>
</g>
<!-- Node8&#45;&gt;Node15 -->
<g id="edge16" class="edge">
<title>Node8&#45;&gt;Node15</title>
<path fill="none" stroke="midnightblue" d="M1635.3,-181.81C1623.61,-169.29 1610.76,-155.54 1599.67,-143.67"/>
<polygon fill="midnightblue" stroke="midnightblue" points="1633.01,-184.49 1642.4,-189.41 1638.13,-179.71 1633.01,-184.49"/>
</g>
<!-- Node16 -->
<g id="node16" class="node">
<title>Node16</title>
<g id="a_node16"><a xlink:href="_i_e_framebuffer_8cpp.html" target="_top" xlink:title=" ">
<polygon fill="white" stroke="black" points="3176.5,-81.5 3176.5,-143.5 3406.5,-143.5 3406.5,-81.5 3176.5,-81.5"/>
<text text-anchor="start" x="3184.5" y="-126.7" font-family="Source Sans Pro" font-size="16.00">Illumination&#45;Engine</text>
<text text-anchor="start" x="3184.5" y="-108.7" font-family="Source Sans Pro" font-size="16.00">/src/GraphicsModule</text>
<text text-anchor="middle" x="3291.5" y="-90.7" font-family="Source Sans Pro" font-size="16.00">/RenderPass/IEFramebuffer.cpp</text>
</a>
</g>
</g>
<!-- Node8&#45;&gt;Node16 -->
<g id="edge17" class="edge">
<title>Node8&#45;&gt;Node16</title>
<path fill="none" stroke="midnightblue" d="M1761.17,-213.17C1883.06,-204.81 2106.54,-189.96 2297.5,-180 2683.97,-159.83 2784.36,-198.49 3167.5,-144 3170.46,-143.58 3173.46,-143.12 3176.47,-142.62"/>
<polygon fill="midnightblue" stroke="midnightblue" points="1760.87,-209.68 1751.13,-213.86 1761.35,-216.67 1760.87,-209.68"/>
</g>
<!-- Node17 -->
<g id="node17" class="node">
<title>Node17</title>
<g id="a_node17"><a xlink:href="_i_e_render_pass_8cpp.html" target="_top" xlink:title=" ">
<polygon fill="white" stroke="black" points="2931,-81.5 2931,-143.5 3158,-143.5 3158,-81.5 2931,-81.5"/>
<text text-anchor="start" x="2939" y="-126.7" font-family="Source Sans Pro" font-size="16.00">Illumination&#45;Engine</text>
<text text-anchor="start" x="2939" y="-108.7" font-family="Source Sans Pro" font-size="16.00">/src/GraphicsModule</text>
<text text-anchor="middle" x="3044.5" y="-90.7" font-family="Source Sans Pro" font-size="16.00">/RenderPass/IERenderPass.cpp</text>
</a>
</g>
</g>
<!-- Node8&#45;&gt;Node17 -->
<g id="edge18" class="edge">
<title>Node8&#45;&gt;Node17</title>
<path fill="none" stroke="midnightblue" d="M1761.48,-213.12C1878.02,-205.02 2086.25,-190.81 2264.5,-180 2556.4,-162.3 2632.3,-187.38 2921.5,-144 2924.55,-143.54 2927.63,-143.04 2930.73,-142.51"/>
<polygon fill="midnightblue" stroke="midnightblue" points="1760.92,-209.65 1751.19,-213.84 1761.4,-216.63 1760.92,-209.65"/>
</g>
<!-- Node18 -->
<g id="node18" class="node">
<title>Node18</title>
<g id="a_node18"><a xlink:href="_i_e_material_8cpp.html" target="_top" xlink:title=" ">
<polygon fill="white" stroke="black" points="1670,-81.5 1670,-143.5 1871,-143.5 1871,-81.5 1670,-81.5"/>
<text text-anchor="start" x="1678" y="-126.7" font-family="Source Sans Pro" font-size="16.00">Illumination&#45;Engine</text>
<text text-anchor="start" x="1678" y="-108.7" font-family="Source Sans Pro" font-size="16.00">/src/GraphicsModule</text>
<text text-anchor="middle" x="1770.5" y="-90.7" font-family="Source Sans Pro" font-size="16.00">/Renderable/IEMaterial.cpp</text>
</a>
</g>
</g>
<!-- Node8&#45;&gt;Node18 -->
<g id="edge19" class="edge">
<title>Node8&#45;&gt;Node18</title>
<path fill="none" stroke="midnightblue" d="M1706.06,-181.81C1717.86,-169.29 1730.84,-155.54 1742.04,-143.67"/>
<polygon fill="midnightblue" stroke="midnightblue" points="1703.2,-179.73 1698.89,-189.41 1708.3,-184.54 1703.2,-179.73"/>
</g>
<!-- Node19 -->
<g id="node19" class="node">
<title>Node19</title>
<g id="a_node19"><a xlink:href="_i_e_mesh_8cpp.html" target="_top" xlink:title=" ">
<polygon fill="white" stroke="black" points="1889,-81.5 1889,-143.5 2072,-143.5 2072,-81.5 1889,-81.5"/>
<text text-anchor="start" x="1897" y="-126.7" font-family="Source Sans Pro" font-size="16.00">Illumination&#45;Engine</text>
<text text-anchor="start" x="1897" y="-108.7" font-family="Source Sans Pro" font-size="16.00">/src/GraphicsModule</text>
<text text-anchor="middle" x="1980.5" y="-90.7" font-family="Source Sans Pro" font-size="16.00">/Renderable/IEMesh.cpp</text>
</a>
</g>
</g>
<!-- Node8&#45;&gt;Node19 -->
<g id="edge20" class="edge">
<title>Node8&#45;&gt;Node19</title>
<path fill="none" stroke="midnightblue" d="M1760.7,-188.66C1802.26,-174.45 1851.38,-157.65 1892.64,-143.54"/>
<polygon fill="midnightblue" stroke="midnightblue" points="1759.47,-185.38 1751.14,-191.93 1761.73,-192 1759.47,-185.38"/>
</g>
<!-- Node20 -->
<g id="node20" class="node">
<title>Node20</title>
<g id="a_node20"><a xlink:href="_i_e_renderable_8cpp.html" target="_top" xlink:title=" ">
<polygon fill="white" stroke="black" points="2090,-81.5 2090,-143.5 2315,-143.5 2315,-81.5 2090,-81.5"/>
<text text-anchor="start" x="2098" y="-126.7" font-family="Source Sans Pro" font-size="16.00">Illumination&#45;Engine</text>
<text text-anchor="start" x="2098" y="-108.7" font-family="Source Sans Pro" font-size="16.00">/src/GraphicsModule</text>
<text text-anchor="middle" x="2202.5" y="-90.7" font-family="Source Sans Pro" font-size="16.00">/Renderable/IERenderable.cpp</text>
</a>
</g>
</g>
<!-- Node8&#45;&gt;Node20 -->
<g id="edge21" class="edge">
<title>Node8&#45;&gt;Node20</title>
<path fill="none" stroke="midnightblue" d="M1761.26,-204.47C1844.56,-190.28 1971.24,-167.69 2080.5,-144 2083.59,-143.33 2086.73,-142.64 2089.89,-141.93"/>
<polygon fill="midnightblue" stroke="midnightblue" points="1760.59,-201.04 1751.32,-206.16 1761.76,-207.94 1760.59,-201.04"/>
</g>
<!-- Node21 -->
<g id="node21" class="node">
<title>Node21</title>
<g id="a_node21"><a xlink:href="_i_e_descriptor_set_8cpp.html" target="_top" xlink:title=" ">
<polygon fill="white" stroke="black" points="2333,-81.5 2333,-143.5 2540,-143.5 2540,-81.5 2333,-81.5"/>
<text text-anchor="start" x="2341" y="-126.7" font-family="Source Sans Pro" font-size="16.00">Illumination&#45;Engine</text>
<text text-anchor="start" x="2341" y="-108.7" font-family="Source Sans Pro" font-size="16.00">/src/GraphicsModule</text>
<text text-anchor="middle" x="2436.5" y="-90.7" font-family="Source Sans Pro" font-size="16.00">/Shader/IEDescriptorSet.cpp</text>
</a>
</g>
</g>
<!-- Node8&#45;&gt;Node21 -->
<g id="edge22" class="edge">
<title>Node8&#45;&gt;Node21</title>
<path fill="none" stroke="midnightblue" d="M1761.31,-213.28C1888.03,-203.64 2124.75,-182.09 2323.5,-144 2326.59,-143.41 2329.73,-142.77 2332.88,-142.11"/>
<polygon fill="midnightblue" stroke="midnightblue" points="1760.96,-209.8 1751.25,-214.04 1761.49,-216.78 1760.96,-209.8"/>
</g>
<!-- Node22 -->
<g id="node22" class="node">
<title>Node22</title>
<g id="a_node22"><a xlink:href="_i_e_pipeline_8cpp.html" target="_top" xlink:title=" ">
<polygon fill="white" stroke="black" points="2558.5,-81.5 2558.5,-143.5 2730.5,-143.5 2730.5,-81.5 2558.5,-81.5"/>
<text text-anchor="start" x="2566.5" y="-126.7" font-family="Source Sans Pro" font-size="16.00">Illumination&#45;Engine</text>
<text text-anchor="start" x="2566.5" y="-108.7" font-family="Source Sans Pro" font-size="16.00">/src/GraphicsModule</text>
<text text-anchor="middle" x="2644.5" y="-90.7" font-family="Source Sans Pro" font-size="16.00">/Shader/IEPipeline.cpp</text>
</a>
</g>
</g>
<!-- Node8&#45;&gt;Node22 -->
<g id="edge23" class="edge">
<title>Node8&#45;&gt;Node22</title>
<path fill="none" stroke="midnightblue" d="M1761.21,-214.31C1954.29,-202.82 2400.5,-173.92 2549.5,-144 2552.39,-143.42 2555.31,-142.78 2558.25,-142.1"/>
<polygon fill="midnightblue" stroke="midnightblue" points="1760.86,-210.82 1751.09,-214.9 1761.28,-217.81 1760.86,-210.82"/>
</g>
<!-- Node23 -->
<g id="node23" class="node">
<title>Node23</title>
<g id="a_node23"><a xlink:href="_i_e_shader_8cpp.html" target="_top" xlink:title=" ">
<polygon fill="white" stroke="black" points="2748.5,-81.5 2748.5,-143.5 2912.5,-143.5 2912.5,-81.5 2748.5,-81.5"/>
<text text-anchor="start" x="2756.5" y="-126.7" font-family="Source Sans Pro" font-size="16.00">Illumination&#45;Engine</text>
<text text-anchor="start" x="2756.5" y="-108.7" font-family="Source Sans Pro" font-size="16.00">/src/GraphicsModule</text>
<text text-anchor="middle" x="2830.5" y="-90.7" font-family="Source Sans Pro" font-size="16.00">/Shader/IEShader.cpp</text>
</a>
</g>
</g>
<!-- Node8&#45;&gt;Node23 -->
<g id="edge24" class="edge">
<title>Node8&#45;&gt;Node23</title>
<path fill="none" stroke="midnightblue" d="M1761.68,-213.37C2015.91,-196.23 2715.63,-148.76 2739.5,-144 2742.44,-143.41 2745.42,-142.76 2748.41,-142.05"/>
<polygon fill="midnightblue" stroke="midnightblue" points="1761.11,-209.9 1751.37,-214.06 1761.59,-216.88 1761.11,-209.9"/>
</g>
<!-- Node13 -->
<g id="node13" class="node">
<title>Node13</title>
<g id="a_node13"><a xlink:href="main_8cpp.html" target="_top" xlink:title=" ">
<polygon fill="white" stroke="black" points="1143.5,-0.5 1143.5,-44.5 1293.5,-44.5 1293.5,-0.5 1143.5,-0.5"/>
<text text-anchor="start" x="1151.5" y="-27.7" font-family="Source Sans Pro" font-size="16.00">Illumination&#45;Engine</text>
<text text-anchor="middle" x="1218.5" y="-9.7" font-family="Source Sans Pro" font-size="16.00">/src/main.cpp</text>
</a>
</g>
</g>
<!-- Node12&#45;&gt;Node13 -->
<g id="edge14" class="edge">
<title>Node12&#45;&gt;Node13</title>
<path fill="none" stroke="midnightblue" d="M1218.5,-71.09C1218.5,-61.97 1218.5,-52.64 1218.5,-44.68"/>
<polygon fill="midnightblue" stroke="midnightblue" points="1215,-71.22 1218.5,-81.22 1222,-71.22 1215,-71.22"/>
</g>
<!-- Node24&#45;&gt;Node8 -->
<g id="edge28" class="edge">
<title>Node24&#45;&gt;Node8</title>
<path fill="none" stroke="midnightblue" d="M2236.19,-308.4C2095.52,-286.79 1870.47,-252.22 1751.04,-233.87"/>
<polygon fill="midnightblue" stroke="midnightblue" points="2235.76,-311.88 2246.17,-309.94 2236.82,-304.96 2235.76,-311.88"/>
</g>
<!-- Node24&#45;&gt;Node16 -->
<g id="edge29" class="edge">
<title>Node24&#45;&gt;Node16</title>
<path fill="none" stroke="midnightblue" d="M2484.88,-318.6C2589.17,-309.41 2741.47,-291.94 2871.5,-261 2997.25,-231.08 3137.95,-177.3 3220.4,-143.6"/>
<polygon fill="midnightblue" stroke="midnightblue" points="2484.29,-315.14 2474.63,-319.49 2484.89,-322.12 2484.29,-315.14"/>
</g>
<!-- Node24&#45;&gt;Node17 -->
<g id="edge30" class="edge">
<title>Node24&#45;&gt;Node17</title>
<path fill="none" stroke="midnightblue" d="M2315.72,-289.74C2308.28,-281.12 2301.65,-271.41 2297.5,-261 2284.17,-227.56 2272.79,-206.18 2297.5,-180 2345.17,-129.5 2852.83,-154.4 2921.5,-144 2924.55,-143.54 2927.63,-143.04 2930.73,-142.5"/>
<polygon fill="midnightblue" stroke="midnightblue" points="2313.37,-292.35 2322.73,-297.33 2318.52,-287.61 2313.37,-292.35"/>
</g>
<!-- Node25 -->
<g id="node25" class="node">
<title>Node25</title>
<g id="a_node25"><a xlink:href="_i_e_render_pass_begin_info_8cpp.html" target="_top" xlink:title=" ">
<polygon fill="white" stroke="black" points="2306.5,-180.5 2306.5,-260.5 2578.5,-260.5 2578.5,-180.5 2306.5,-180.5"/>
<text text-anchor="start" x="2314.5" y="-243.7" font-family="Source Sans Pro" font-size="16.00">Illumination&#45;Engine</text>
<text text-anchor="start" x="2314.5" y="-225.7" font-family="Source Sans Pro" font-size="16.00">/src/GraphicsModule</text>
<text text-anchor="start" x="2314.5" y="-207.7" font-family="Source Sans Pro" font-size="16.00">/CommandBuffer/DependencyStructs</text>
<text text-anchor="middle" x="2442.5" y="-189.7" font-family="Source Sans Pro" font-size="16.00">/IERenderPassBeginInfo.cpp</text>
</a>
</g>
</g>
<!-- Node24&#45;&gt;Node25 -->
<g id="edge26" class="edge">
<title>Node24&#45;&gt;Node25</title>
<path fill="none" stroke="midnightblue" d="M2389.95,-289.43C2397.15,-280.13 2404.87,-270.15 2412.11,-260.79"/>
<polygon fill="midnightblue" stroke="midnightblue" points="2387.13,-287.36 2383.78,-297.41 2392.67,-291.64 2387.13,-287.36"/>
</g>
<!-- Node26 -->
<g id="node26" class="node">
<title>Node26</title>
<g id="a_node26"><a xlink:href="_i_e_dependency_8cpp.html" target="_top" xlink:title=" ">
<polygon fill="white" stroke="black" points="2596.5,-189.5 2596.5,-251.5 2862.5,-251.5 2862.5,-189.5 2596.5,-189.5"/>
<text text-anchor="start" x="2604.5" y="-234.7" font-family="Source Sans Pro" font-size="16.00">Illumination&#45;Engine</text>
<text text-anchor="start" x="2604.5" y="-216.7" font-family="Source Sans Pro" font-size="16.00">/src/GraphicsModule</text>
<text text-anchor="middle" x="2729.5" y="-198.7" font-family="Source Sans Pro" font-size="16.00">/CommandBuffer/IEDependency.cpp</text>
</a>
</g>
</g>
<!-- Node24&#45;&gt;Node26 -->
<g id="edge27" class="edge">
<title>Node24&#45;&gt;Node26</title>
<path fill="none" stroke="midnightblue" d="M2475.03,-294.6C2522.87,-280.86 2578.07,-265 2624.8,-251.58"/>
<polygon fill="midnightblue" stroke="midnightblue" points="2473.9,-291.28 2465.25,-297.41 2475.83,-298.01 2473.9,-291.28"/>
</g>
</g>
</svg>
