<?xml version="1.0" encoding="UTF-8" standalone="no"?>
<!DOCTYPE svg PUBLIC "-//W3C//DTD SVG 1.1//EN"
 "http://www.w3.org/Graphics/SVG/1.1/DTD/svg11.dtd">
<!-- Generated by graphviz version 2.43.0 (0)
 -->
<!-- Title: Illumination&#45;Engine/src/GraphicsModule/CommandBuffer/DependencyStructs/IEBufferMemoryBarrier.cpp Pages: 1 -->
<svg width="1006pt" height="422pt"
 viewBox="0.00 0.00 1006.00 422.00" xmlns="http://www.w3.org/2000/svg" xmlns:xlink="http://www.w3.org/1999/xlink">
<g id="graph0" class="graph" transform="scale(1 1) rotate(0) translate(4 418)">
<title>Illumination&#45;Engine/src/GraphicsModule/CommandBuffer/DependencyStructs/IEBufferMemoryBarrier.cpp</title>
<polygon fill="white" stroke="transparent" points="-4,4 -4,-418 1002,-418 1002,4 -4,4"/>
<!-- Node1 -->
<g id="node1" class="node">
<title>Node1</title>
<g id="a_node1"><a xlink:title=" ">
<polygon fill="#bfbfbf" stroke="black" points="0,-333.5 0,-413.5 272,-413.5 272,-333.5 0,-333.5"/>
<text text-anchor="start" x="8" y="-396.7" font-family="Source Sans Pro" font-size="16.00">Illumination&#45;Engine</text>
<text text-anchor="start" x="8" y="-378.7" font-family="Source Sans Pro" font-size="16.00">/src/GraphicsModule</text>
<text text-anchor="start" x="8" y="-360.7" font-family="Source Sans Pro" font-size="16.00">/CommandBuffer/DependencyStructs</text>
<text text-anchor="middle" x="136" y="-342.7" font-family="Source Sans Pro" font-size="16.00">/IEBufferMemoryBarrier.cpp</text>
</a>
</g>
</g>
<!-- Node2 -->
<g id="node2" class="node">
<title>Node2</title>
<g id="a_node2"><a xlink:title=" ">
<polygon fill="white" stroke="#bfbfbf" points="73.5,-63.5 73.5,-89.5 198.5,-89.5 198.5,-63.5 73.5,-63.5"/>
<text text-anchor="middle" x="136" y="-72.7" font-family="Source Sans Pro" font-size="16.00">vulkan/vulkan.h</text>
</a>
</g>
</g>
<!-- Node1&#45;&gt;Node2 -->
<g id="edge1" class="edge">
<title>Node1&#45;&gt;Node2</title>
<path fill="none" stroke="midnightblue" d="M106.56,-333.26C99.78,-322.1 93.53,-309.56 90,-297 69.87,-225.27 105.53,-138.14 124.83,-98.71"/>
<polygon fill="midnightblue" stroke="midnightblue" points="128.07,-100.04 129.45,-89.53 121.82,-96.89 128.07,-100.04"/>
</g>
<!-- Node3 -->
<g id="node3" class="node">
<title>Node3</title>
<g id="a_node3"><a xlink:href="_i_e_buffer_memory_barrier_8hpp.html" target="_top" xlink:title=" ">
<polygon fill="white" stroke="black" points="99.5,-270.5 99.5,-296.5 302.5,-296.5 302.5,-270.5 99.5,-270.5"/>
<text text-anchor="middle" x="201" y="-279.7" font-family="Source Sans Pro" font-size="16.00">IEBufferMemoryBarrier.hpp</text>
</a>
</g>
</g>
<!-- Node1&#45;&gt;Node3 -->
<g id="edge2" class="edge">
<title>Node1&#45;&gt;Node3</title>
<path fill="none" stroke="midnightblue" d="M164.89,-333.39C172.14,-323.58 179.63,-313.44 185.89,-304.95"/>
<polygon fill="midnightblue" stroke="midnightblue" points="188.79,-306.92 191.92,-296.79 183.16,-302.76 188.79,-306.92"/>
</g>
<!-- Node3&#45;&gt;Node2 -->
<g id="edge3" class="edge">
<title>Node3&#45;&gt;Node2</title>
<path fill="none" stroke="midnightblue" d="M194.85,-270.36C190.1,-260.68 183.59,-246.69 179,-234 162.1,-187.27 148.08,-130.66 140.99,-99.95"/>
<polygon fill="midnightblue" stroke="midnightblue" points="144.33,-98.86 138.7,-89.88 137.5,-100.41 144.33,-98.86"/>
</g>
<!-- Node4 -->
<g id="node4" class="node">
<title>Node4</title>
<g id="a_node4"><a xlink:title=" ">
<polygon fill="white" stroke="#bfbfbf" points="244,-63.5 244,-89.5 318,-89.5 318,-63.5 244,-63.5"/>
<text text-anchor="middle" x="281" y="-72.7" font-family="Source Sans Pro" font-size="16.00">memory</text>
</a>
</g>
</g>
<!-- Node3&#45;&gt;Node4 -->
<g id="edge4" class="edge">
<title>Node3&#45;&gt;Node4</title>
<path fill="none" stroke="midnightblue" d="M198.5,-270.12C193.57,-242.27 185.21,-173.43 212,-126 219.42,-112.87 232.04,-102.45 244.47,-94.69"/>
<polygon fill="midnightblue" stroke="midnightblue" points="246.51,-97.55 253.41,-89.51 243.01,-91.5 246.51,-97.55"/>
</g>
<!-- Node5 -->
<g id="node5" class="node">
<title>Node5</title>
<g id="a_node5"><a xlink:href="_i_e_buffer_8hpp.html" target="_top" xlink:title=" ">
<polygon fill="white" stroke="black" points="491.5,-207.5 491.5,-233.5 638.5,-233.5 638.5,-207.5 491.5,-207.5"/>
<text text-anchor="middle" x="565" y="-216.7" font-family="Source Sans Pro" font-size="16.00">Buffer/IEBuffer.hpp</text>
</a>
</g>
</g>
<!-- Node3&#45;&gt;Node5 -->
<g id="edge5" class="edge">
<title>Node3&#45;&gt;Node5</title>
<path fill="none" stroke="midnightblue" d="M272.91,-270.45C333.49,-260.3 420.12,-245.78 483.3,-235.19"/>
<polygon fill="midnightblue" stroke="midnightblue" points="483.95,-238.63 493.23,-233.53 482.79,-231.73 483.95,-238.63"/>
</g>
<!-- Node5&#45;&gt;Node2 -->
<g id="edge19" class="edge">
<title>Node5&#45;&gt;Node2</title>
<path fill="none" stroke="midnightblue" d="M491.29,-215.71C402.2,-210.05 258.43,-197.12 212,-171 182.14,-154.2 159.38,-120.63 146.86,-98.62"/>
<polygon fill="midnightblue" stroke="midnightblue" points="149.85,-96.8 141.98,-89.71 143.71,-100.16 149.85,-96.8"/>
</g>
<!-- Node6 -->
<g id="node6" class="node">
<title>Node6</title>
<g id="a_node6"><a xlink:href="_i_e_dependency_8hpp.html" target="_top" xlink:title=" ">
<polygon fill="white" stroke="black" points="221.5,-126.5 221.5,-170.5 466.5,-170.5 466.5,-126.5 221.5,-126.5"/>
<text text-anchor="start" x="229.5" y="-153.7" font-family="Source Sans Pro" font-size="16.00">GraphicsModule/CommandBuffer</text>
<text text-anchor="middle" x="344" y="-135.7" font-family="Source Sans Pro" font-size="16.00">/IEDependency.hpp</text>
</a>
</g>
</g>
<!-- Node5&#45;&gt;Node6 -->
<g id="edge6" class="edge">
<title>Node5&#45;&gt;Node6</title>
<path fill="none" stroke="midnightblue" d="M527.01,-207.47C497.67,-198.17 456.11,-185.01 420.02,-173.58"/>
<polygon fill="midnightblue" stroke="midnightblue" points="421.07,-170.24 410.48,-170.56 418.96,-176.91 421.07,-170.24"/>
</g>
<!-- Node7 -->
<g id="node7" class="node">
<title>Node7</title>
<g id="a_node7"><a xlink:title=" ">
<polygon fill="white" stroke="#bfbfbf" points="363.5,-0.5 363.5,-26.5 422.5,-26.5 422.5,-0.5 363.5,-0.5"/>
<text text-anchor="middle" x="393" y="-9.7" font-family="Source Sans Pro" font-size="16.00">vector</text>
</a>
</g>
</g>
<!-- Node5&#45;&gt;Node7 -->
<g id="edge20" class="edge">
<title>Node5&#45;&gt;Node7</title>
<path fill="none" stroke="midnightblue" d="M551.39,-207.17C541.08,-197.61 526.72,-183.88 515,-171 473,-124.86 429.36,-65.67 407.43,-34.99"/>
<polygon fill="midnightblue" stroke="midnightblue" points="410.24,-32.9 401.59,-26.78 404.53,-36.96 410.24,-32.9"/>
</g>
<!-- Node9 -->
<g id="node9" class="node">
<title>Node9</title>
<g id="a_node9"><a xlink:href="_i_e_a_p_i_8hpp.html" target="_top" xlink:title=" ">
<polygon fill="white" stroke="black" points="523.5,-135.5 523.5,-161.5 606.5,-161.5 606.5,-135.5 523.5,-135.5"/>
<text text-anchor="middle" x="565" y="-144.7" font-family="Source Sans Pro" font-size="16.00">IEAPI.hpp</text>
</a>
</g>
</g>
<!-- Node5&#45;&gt;Node9 -->
<g id="edge11" class="edge">
<title>Node5&#45;&gt;Node9</title>
<path fill="none" stroke="midnightblue" d="M565,-207.31C565,-197.47 565,-183.38 565,-171.57"/>
<polygon fill="midnightblue" stroke="midnightblue" points="568.5,-171.55 565,-161.55 561.5,-171.55 568.5,-171.55"/>
</g>
<!-- Node11 -->
<g id="node11" class="node">
<title>Node11</title>
<g id="a_node11"><a xlink:title=" ">
<polygon fill="white" stroke="#bfbfbf" points="581.5,-0.5 581.5,-26.5 644.5,-26.5 644.5,-0.5 581.5,-0.5"/>
<text text-anchor="middle" x="613" y="-9.7" font-family="Source Sans Pro" font-size="16.00">cstdint</text>
</a>
</g>
</g>
<!-- Node5&#45;&gt;Node11 -->
<g id="edge21" class="edge">
<title>Node5&#45;&gt;Node11</title>
<path fill="none" stroke="midnightblue" d="M584.05,-207.4C595.67,-198.82 609.5,-186.16 616,-171 635.17,-126.32 626.08,-67.66 618.87,-36.37"/>
<polygon fill="midnightblue" stroke="midnightblue" points="622.23,-35.39 616.44,-26.52 615.43,-37.07 622.23,-35.39"/>
</g>
<!-- Node12 -->
<g id="node12" class="node">
<title>Node12</title>
<g id="a_node12"><a xlink:title=" ">
<polygon fill="white" stroke="#bfbfbf" points="663.5,-135.5 663.5,-161.5 792.5,-161.5 792.5,-135.5 663.5,-135.5"/>
<text text-anchor="middle" x="728" y="-144.7" font-family="Source Sans Pro" font-size="16.00">vk_mem_alloc.h</text>
</a>
</g>
</g>
<!-- Node5&#45;&gt;Node12 -->
<g id="edge17" class="edge">
<title>Node5&#45;&gt;Node12</title>
<path fill="none" stroke="midnightblue" d="M593.02,-207.47C619.96,-195.9 660.86,-178.33 690.58,-165.57"/>
<polygon fill="midnightblue" stroke="midnightblue" points="691.99,-168.77 699.8,-161.61 689.23,-162.34 691.99,-168.77"/>
</g>
<!-- Node13 -->
<g id="node13" class="node">
<title>Node13</title>
<g id="a_node13"><a xlink:title=" ">
<polygon fill="white" stroke="#bfbfbf" points="810.5,-135.5 810.5,-161.5 893.5,-161.5 893.5,-135.5 810.5,-135.5"/>
<text text-anchor="middle" x="852" y="-144.7" font-family="Source Sans Pro" font-size="16.00">GL/glew.h</text>
</a>
</g>
</g>
<!-- Node5&#45;&gt;Node13 -->
<g id="edge18" class="edge">
<title>Node5&#45;&gt;Node13</title>
<path fill="none" stroke="midnightblue" d="M638.59,-208.43C685.88,-200.34 748.3,-187.84 802,-171 807,-169.43 812.18,-167.53 817.23,-165.52"/>
<polygon fill="midnightblue" stroke="midnightblue" points="818.81,-168.66 826.69,-161.57 816.11,-162.2 818.81,-168.66"/>
</g>
<!-- Node14 -->
<g id="node14" class="node">
<title>Node14</title>
<g id="a_node14"><a xlink:title=" ">
<polygon fill="white" stroke="#bfbfbf" points="912,-135.5 912,-161.5 998,-161.5 998,-135.5 912,-135.5"/>
<text text-anchor="middle" x="955" y="-144.7" font-family="Source Sans Pro" font-size="16.00">functional</text>
</a>
</g>
</g>
<!-- Node5&#45;&gt;Node14 -->
<g id="edge22" class="edge">
<title>Node5&#45;&gt;Node14</title>
<path fill="none" stroke="midnightblue" d="M638.6,-214.26C707.8,-208.09 813.8,-195.43 903,-171 908.67,-169.45 914.56,-167.43 920.23,-165.26"/>
<polygon fill="midnightblue" stroke="midnightblue" points="921.56,-168.5 929.52,-161.52 918.94,-162.01 921.56,-168.5"/>
</g>
<!-- Node6&#45;&gt;Node2 -->
<g id="edge8" class="edge">
<title>Node6&#45;&gt;Node2</title>
<path fill="none" stroke="midnightblue" d="M281.59,-126.5C249.34,-115.64 210.7,-102.64 181.33,-92.76"/>
<polygon fill="midnightblue" stroke="midnightblue" points="182.34,-89.4 171.75,-89.53 180.11,-96.04 182.34,-89.4"/>
</g>
<!-- Node6&#45;&gt;Node4 -->
<g id="edge10" class="edge">
<title>Node6&#45;&gt;Node4</title>
<path fill="none" stroke="midnightblue" d="M325.1,-126.5C316.69,-117.15 306.84,-106.22 298.59,-97.05"/>
<polygon fill="midnightblue" stroke="midnightblue" points="301.12,-94.62 291.83,-89.53 295.92,-99.31 301.12,-94.62"/>
</g>
<!-- Node6&#45;&gt;Node7 -->
<g id="edge7" class="edge">
<title>Node6&#45;&gt;Node7</title>
<path fill="none" stroke="midnightblue" d="M351.76,-126.43C360.83,-101.81 375.76,-61.3 384.95,-36.36"/>
<polygon fill="midnightblue" stroke="midnightblue" points="388.33,-37.31 388.5,-26.71 381.76,-34.89 388.33,-37.31"/>
</g>
<!-- Node8 -->
<g id="node8" class="node">
<title>Node8</title>
<g id="a_node8"><a xlink:title=" ">
<polygon fill="white" stroke="#bfbfbf" points="486.5,-0.5 486.5,-26.5 541.5,-26.5 541.5,-0.5 486.5,-0.5"/>
<text text-anchor="middle" x="514" y="-9.7" font-family="Source Sans Pro" font-size="16.00">string</text>
</a>
</g>
</g>
<!-- Node6&#45;&gt;Node8 -->
<g id="edge9" class="edge">
<title>Node6&#45;&gt;Node8</title>
<path fill="none" stroke="midnightblue" d="M370,-126.49C391.37,-109.28 422.5,-84.38 450,-63 463.02,-52.88 477.67,-41.76 489.67,-32.72"/>
<polygon fill="midnightblue" stroke="midnightblue" points="491.98,-35.36 497.87,-26.55 487.78,-29.76 491.98,-35.36"/>
</g>
<!-- Node9&#45;&gt;Node8 -->
<g id="edge16" class="edge">
<title>Node9&#45;&gt;Node8</title>
<path fill="none" stroke="midnightblue" d="M571.16,-135.34C578.88,-118.27 589.76,-86.66 578,-63 571.62,-50.17 560.05,-39.82 548.48,-32.03"/>
<polygon fill="midnightblue" stroke="midnightblue" points="550.06,-28.89 539.72,-26.57 546.35,-34.83 550.06,-28.89"/>
</g>
<!-- Node10 -->
<g id="node10" class="node">
<title>Node10</title>
<g id="a_node10"><a xlink:href="_i_e_version_8hpp.html" target="_top" xlink:title=" ">
<polygon fill="white" stroke="black" points="459,-63.5 459,-89.5 569,-89.5 569,-63.5 459,-63.5"/>
<text text-anchor="middle" x="514" y="-72.7" font-family="Source Sans Pro" font-size="16.00">IEVersion.hpp</text>
</a>
</g>
</g>
<!-- Node9&#45;&gt;Node10 -->
<g id="edge12" class="edge">
<title>Node9&#45;&gt;Node10</title>
<path fill="none" stroke="midnightblue" d="M556.12,-135.31C548.58,-124.97 537.63,-109.93 528.77,-97.78"/>
<polygon fill="midnightblue" stroke="midnightblue" points="531.5,-95.57 522.78,-89.55 525.84,-99.7 531.5,-95.57"/>
</g>
<!-- Node10&#45;&gt;Node7 -->
<g id="edge15" class="edge">
<title>Node10&#45;&gt;Node7</title>
<path fill="none" stroke="midnightblue" d="M490.09,-63.45C471.78,-54.22 446.3,-41.37 426.04,-31.16"/>
<polygon fill="midnightblue" stroke="midnightblue" points="427.36,-27.9 416.86,-26.53 424.21,-34.15 427.36,-27.9"/>
</g>
<!-- Node10&#45;&gt;Node8 -->
<g id="edge14" class="edge">
<title>Node10&#45;&gt;Node8</title>
<path fill="none" stroke="midnightblue" d="M514,-63.45C514,-55.85 514,-45.79 514,-36.78"/>
<polygon fill="midnightblue" stroke="midnightblue" points="517.5,-36.53 514,-26.53 510.5,-36.53 517.5,-36.53"/>
</g>
<!-- Node10&#45;&gt;Node11 -->
<g id="edge13" class="edge">
<title>Node10&#45;&gt;Node11</title>
<path fill="none" stroke="midnightblue" d="M533.56,-63.45C548.2,-54.43 568.45,-41.95 584.83,-31.85"/>
<polygon fill="midnightblue" stroke="midnightblue" points="586.8,-34.75 593.48,-26.53 583.13,-28.79 586.8,-34.75"/>
</g>
</g>
</svg>
