<?xml version="1.0" encoding="UTF-8" standalone="no"?>
<!DOCTYPE svg PUBLIC "-//W3C//DTD SVG 1.1//EN"
 "http://www.w3.org/Graphics/SVG/1.1/DTD/svg11.dtd">
<!-- Generated by graphviz version 2.43.0 (0)
 -->
<!-- Title: Illumination&#45;Engine/src/GraphicsModule/Shader/IEPipeline.hpp Pages: 1 -->
<svg width="1168pt" height="377pt"
 viewBox="0.00 0.00 1167.58 377.00" xmlns="http://www.w3.org/2000/svg" xmlns:xlink="http://www.w3.org/1999/xlink">
<g id="graph0" class="graph" transform="scale(1 1) rotate(0) translate(4 373)">
<title>Illumination&#45;Engine/src/GraphicsModule/Shader/IEPipeline.hpp</title>
<polygon fill="white" stroke="transparent" points="-4,4 -4,-373 1163.58,-373 1163.58,4 -4,4"/>
<!-- Node1 -->
<g id="node1" class="node">
<title>Node1</title>
<g id="a_node1"><a xlink:title=" ">
<polygon fill="#bfbfbf" stroke="black" points="221.58,-306.5 221.58,-368.5 394.58,-368.5 394.58,-306.5 221.58,-306.5"/>
<text text-anchor="start" x="229.58" y="-351.7" font-family="Source Sans Pro" font-size="16.00">Illumination&#45;Engine</text>
<text text-anchor="start" x="229.58" y="-333.7" font-family="Source Sans Pro" font-size="16.00">/src/GraphicsModule</text>
<text text-anchor="middle" x="308.08" y="-315.7" font-family="Source Sans Pro" font-size="16.00">/Shader/IEPipeline.hpp</text>
</a>
</g>
</g>
<!-- Node2 -->
<g id="node2" class="node">
<title>Node2</title>
<g id="a_node2"><a xlink:href="_i_e_shader_8hpp.html" target="_top" xlink:title=" ">
<polygon fill="white" stroke="black" points="336.08,-225.5 336.08,-269.5 516.08,-269.5 516.08,-225.5 336.08,-225.5"/>
<text text-anchor="start" x="344.08" y="-252.7" font-family="Source Sans Pro" font-size="16.00">GraphicsModule/Shader</text>
<text text-anchor="middle" x="426.08" y="-234.7" font-family="Source Sans Pro" font-size="16.00">/IEShader.hpp</text>
</a>
</g>
</g>
<!-- Node1&#45;&gt;Node2 -->
<g id="edge1" class="edge">
<title>Node1&#45;&gt;Node2</title>
<path fill="none" stroke="midnightblue" d="M348.36,-306.46C361.72,-296.5 376.51,-285.46 389.58,-275.72"/>
<polygon fill="midnightblue" stroke="midnightblue" points="391.95,-278.31 397.88,-269.53 387.77,-272.7 391.95,-278.31"/>
</g>
<!-- Node7 -->
<g id="node7" class="node">
<title>Node7</title>
<g id="a_node7"><a xlink:title=" ">
<polygon fill="white" stroke="#bfbfbf" points="178.58,-9.5 178.58,-35.5 237.58,-35.5 237.58,-9.5 178.58,-9.5"/>
<text text-anchor="middle" x="208.08" y="-18.7" font-family="Source Sans Pro" font-size="16.00">vector</text>
</a>
</g>
</g>
<!-- Node1&#45;&gt;Node7 -->
<g id="edge31" class="edge">
<title>Node1&#45;&gt;Node7</title>
<path fill="none" stroke="midnightblue" d="M221.31,-327.84C147.35,-318.45 49.29,-300.56 25.08,-270 -29.02,-201.71 13.39,-140.45 77.08,-81 102.79,-57 140.14,-41.96 168.39,-33.31"/>
<polygon fill="midnightblue" stroke="midnightblue" points="169.72,-36.56 178.34,-30.4 167.76,-29.84 169.72,-36.56"/>
</g>
<!-- Node8 -->
<g id="node8" class="node">
<title>Node8</title>
<g id="a_node8"><a xlink:title=" ">
<polygon fill="white" stroke="#bfbfbf" points="194.58,-153.5 194.58,-179.5 319.58,-179.5 319.58,-153.5 194.58,-153.5"/>
<text text-anchor="middle" x="257.08" y="-162.7" font-family="Source Sans Pro" font-size="16.00">vulkan/vulkan.h</text>
</a>
</g>
</g>
<!-- Node1&#45;&gt;Node8 -->
<g id="edge29" class="edge">
<title>Node1&#45;&gt;Node8</title>
<path fill="none" stroke="midnightblue" d="M305.25,-306.02C302.5,-283.23 297.35,-251.55 288.08,-225 283.67,-212.38 276.75,-199.18 270.56,-188.62"/>
<polygon fill="midnightblue" stroke="midnightblue" points="273.36,-186.49 265.18,-179.76 267.37,-190.12 273.36,-186.49"/>
</g>
<!-- Node9 -->
<g id="node9" class="node">
<title>Node9</title>
<g id="a_node9"><a xlink:title=" ">
<polygon fill="white" stroke="#bfbfbf" points="813.08,-153.5 813.08,-179.5 899.08,-179.5 899.08,-153.5 813.08,-153.5"/>
<text text-anchor="middle" x="856.08" y="-162.7" font-family="Source Sans Pro" font-size="16.00">functional</text>
</a>
</g>
</g>
<!-- Node1&#45;&gt;Node9 -->
<g id="edge30" class="edge">
<title>Node1&#45;&gt;Node9</title>
<path fill="none" stroke="midnightblue" d="M394.97,-313.58C494.68,-286.61 662.66,-239.11 804.08,-189 808.96,-187.27 814.05,-185.33 819.05,-183.35"/>
<polygon fill="midnightblue" stroke="midnightblue" points="820.53,-186.53 828.49,-179.53 817.9,-180.04 820.53,-186.53"/>
</g>
<!-- Node19 -->
<g id="node19" class="node">
<title>Node19</title>
<g id="a_node19"><a xlink:href="_i_e_dependency_8hpp.html" target="_top" xlink:title=" ">
<polygon fill="white" stroke="black" points="34.58,-225.5 34.58,-269.5 279.58,-269.5 279.58,-225.5 34.58,-225.5"/>
<text text-anchor="start" x="42.58" y="-252.7" font-family="Source Sans Pro" font-size="16.00">GraphicsModule/CommandBuffer</text>
<text text-anchor="middle" x="157.08" y="-234.7" font-family="Source Sans Pro" font-size="16.00">/IEDependency.hpp</text>
</a>
</g>
</g>
<!-- Node1&#45;&gt;Node19 -->
<g id="edge24" class="edge">
<title>Node1&#45;&gt;Node19</title>
<path fill="none" stroke="midnightblue" d="M256.53,-306.46C238.78,-296.12 219.06,-284.62 201.89,-274.61"/>
<polygon fill="midnightblue" stroke="midnightblue" points="203.57,-271.54 193.17,-269.53 200.04,-277.59 203.57,-271.54"/>
</g>
<!-- Node3 -->
<g id="node3" class="node">
<title>Node3</title>
<g id="a_node3"><a xlink:href="_i_e_a_p_i_8hpp.html" target="_top" xlink:title=" ">
<polygon fill="white" stroke="black" points="376.58,-153.5 376.58,-179.5 459.58,-179.5 459.58,-153.5 376.58,-153.5"/>
<text text-anchor="middle" x="418.08" y="-162.7" font-family="Source Sans Pro" font-size="16.00">IEAPI.hpp</text>
</a>
</g>
</g>
<!-- Node2&#45;&gt;Node3 -->
<g id="edge2" class="edge">
<title>Node2&#45;&gt;Node3</title>
<path fill="none" stroke="midnightblue" d="M423.93,-225.33C422.82,-214.36 421.47,-200.97 420.34,-189.83"/>
<polygon fill="midnightblue" stroke="midnightblue" points="423.8,-189.22 419.31,-179.63 416.83,-189.93 423.8,-189.22"/>
</g>
<!-- Node6 -->
<g id="node6" class="node">
<title>Node6</title>
<g id="a_node6"><a xlink:title=" ">
<polygon fill="white" stroke="#bfbfbf" points="441.58,-9.5 441.58,-35.5 496.58,-35.5 496.58,-9.5 441.58,-9.5"/>
<text text-anchor="middle" x="469.08" y="-18.7" font-family="Source Sans Pro" font-size="16.00">string</text>
</a>
</g>
</g>
<!-- Node2&#45;&gt;Node6 -->
<g id="edge9" class="edge">
<title>Node2&#45;&gt;Node6</title>
<path fill="none" stroke="midnightblue" d="M446.95,-225.5C455.58,-215.36 464.59,-202.48 469.08,-189 485.38,-139.98 478.78,-78.18 473.41,-45.73"/>
<polygon fill="midnightblue" stroke="midnightblue" points="476.8,-44.78 471.6,-35.55 469.9,-46 476.8,-44.78"/>
</g>
<!-- Node2&#45;&gt;Node7 -->
<g id="edge10" class="edge">
<title>Node2&#45;&gt;Node7</title>
<path fill="none" stroke="midnightblue" d="M403.51,-225.36C392.33,-214.68 378.76,-201.38 367.08,-189 348.92,-169.75 349.75,-159.19 328.08,-144 291.44,-118.33 264.63,-140.68 234.08,-108 218.22,-91.04 212.02,-64.61 209.61,-45.83"/>
<polygon fill="midnightblue" stroke="midnightblue" points="213.08,-45.37 208.58,-35.78 206.12,-46.09 213.08,-45.37"/>
</g>
<!-- Node2&#45;&gt;Node8 -->
<g id="edge8" class="edge">
<title>Node2&#45;&gt;Node8</title>
<path fill="none" stroke="midnightblue" d="M380.79,-225.33C353.05,-212.36 318.06,-196.01 292.37,-184"/>
<polygon fill="midnightblue" stroke="midnightblue" points="293.56,-180.69 283.02,-179.63 290.6,-187.03 293.56,-180.69"/>
</g>
<!-- Node2&#45;&gt;Node9 -->
<g id="edge11" class="edge">
<title>Node2&#45;&gt;Node9</title>
<path fill="none" stroke="midnightblue" d="M516.34,-238.94C593.73,-231.01 707.68,-215.84 804.08,-189 809.55,-187.48 815.21,-185.54 820.71,-183.45"/>
<polygon fill="midnightblue" stroke="midnightblue" points="822.35,-186.56 830.32,-179.59 819.74,-180.07 822.35,-186.56"/>
</g>
<!-- Node10 -->
<g id="node10" class="node">
<title>Node10</title>
<g id="a_node10"><a xlink:href="_i_e_file_8hpp.html" target="_top" xlink:title=" ">
<polygon fill="white" stroke="black" points="617.58,-144.5 617.58,-188.5 794.58,-188.5 794.58,-144.5 617.58,-144.5"/>
<text text-anchor="start" x="625.58" y="-171.7" font-family="Source Sans Pro" font-size="16.00">Core/FileSystemModule</text>
<text text-anchor="middle" x="706.08" y="-153.7" font-family="Source Sans Pro" font-size="16.00">/IEFile.hpp</text>
</a>
</g>
</g>
<!-- Node2&#45;&gt;Node10 -->
<g id="edge12" class="edge">
<title>Node2&#45;&gt;Node10</title>
<path fill="none" stroke="midnightblue" d="M500.74,-225.43C538.08,-214.9 583.41,-202.11 621.97,-191.23"/>
<polygon fill="midnightblue" stroke="midnightblue" points="622.95,-194.59 631.62,-188.51 621.04,-187.86 622.95,-194.59"/>
</g>
<!-- Node18 -->
<g id="node18" class="node">
<title>Node18</title>
<g id="a_node18"><a xlink:title=" ">
<polygon fill="white" stroke="#bfbfbf" points="516.58,-153.5 516.58,-179.5 599.58,-179.5 599.58,-153.5 516.58,-153.5"/>
<text text-anchor="middle" x="558.08" y="-162.7" font-family="Source Sans Pro" font-size="16.00">GL/glew.h</text>
</a>
</g>
</g>
<!-- Node2&#45;&gt;Node18 -->
<g id="edge23" class="edge">
<title>Node2&#45;&gt;Node18</title>
<path fill="none" stroke="midnightblue" d="M461.45,-225.33C482.64,-212.65 509.25,-196.72 529.17,-184.8"/>
<polygon fill="midnightblue" stroke="midnightblue" points="531.03,-187.77 537.81,-179.63 527.44,-181.76 531.03,-187.77"/>
</g>
<!-- Node4 -->
<g id="node4" class="node">
<title>Node4</title>
<g id="a_node4"><a xlink:href="_i_e_version_8hpp.html" target="_top" xlink:title=" ">
<polygon fill="white" stroke="black" points="274.08,-81.5 274.08,-107.5 384.08,-107.5 384.08,-81.5 274.08,-81.5"/>
<text text-anchor="middle" x="329.08" y="-90.7" font-family="Source Sans Pro" font-size="16.00">IEVersion.hpp</text>
</a>
</g>
</g>
<!-- Node3&#45;&gt;Node4 -->
<g id="edge3" class="edge">
<title>Node3&#45;&gt;Node4</title>
<path fill="none" stroke="midnightblue" d="M402.58,-153.31C388.79,-142.47 368.44,-126.46 352.64,-114.03"/>
<polygon fill="midnightblue" stroke="midnightblue" points="354.43,-110.98 344.4,-107.55 350.1,-116.49 354.43,-110.98"/>
</g>
<!-- Node3&#45;&gt;Node6 -->
<g id="edge7" class="edge">
<title>Node3&#45;&gt;Node6</title>
<path fill="none" stroke="midnightblue" d="M422.43,-153.39C431.05,-129.39 450.4,-75.5 461.28,-45.22"/>
<polygon fill="midnightblue" stroke="midnightblue" points="464.65,-46.17 464.74,-35.58 458.07,-43.8 464.65,-46.17"/>
</g>
<!-- Node5 -->
<g id="node5" class="node">
<title>Node5</title>
<g id="a_node5"><a xlink:title=" ">
<polygon fill="white" stroke="#bfbfbf" points="297.58,-9.5 297.58,-35.5 360.58,-35.5 360.58,-9.5 297.58,-9.5"/>
<text text-anchor="middle" x="329.08" y="-18.7" font-family="Source Sans Pro" font-size="16.00">cstdint</text>
</a>
</g>
</g>
<!-- Node4&#45;&gt;Node5 -->
<g id="edge4" class="edge">
<title>Node4&#45;&gt;Node5</title>
<path fill="none" stroke="midnightblue" d="M329.08,-81.31C329.08,-71.47 329.08,-57.38 329.08,-45.57"/>
<polygon fill="midnightblue" stroke="midnightblue" points="332.58,-45.55 329.08,-35.55 325.58,-45.55 332.58,-45.55"/>
</g>
<!-- Node4&#45;&gt;Node6 -->
<g id="edge5" class="edge">
<title>Node4&#45;&gt;Node6</title>
<path fill="none" stroke="midnightblue" d="M353.14,-81.47C375.88,-70.1 410.2,-52.94 435.6,-40.24"/>
<polygon fill="midnightblue" stroke="midnightblue" points="437.48,-43.21 444.86,-35.61 434.35,-36.95 437.48,-43.21"/>
</g>
<!-- Node4&#45;&gt;Node7 -->
<g id="edge6" class="edge">
<title>Node4&#45;&gt;Node7</title>
<path fill="none" stroke="midnightblue" d="M308.28,-81.47C288.88,-70.25 259.75,-53.39 237.89,-40.74"/>
<polygon fill="midnightblue" stroke="midnightblue" points="239.42,-37.59 229.01,-35.61 235.92,-43.65 239.42,-37.59"/>
</g>
<!-- Node10&#45;&gt;Node6 -->
<g id="edge18" class="edge">
<title>Node10&#45;&gt;Node6</title>
<path fill="none" stroke="midnightblue" d="M622.51,-144.37C596.41,-135.54 568.37,-123.62 545.08,-108 519.33,-90.74 496.56,-62.83 482.81,-43.85"/>
<polygon fill="midnightblue" stroke="midnightblue" points="485.6,-41.74 476.98,-35.59 479.88,-45.78 485.6,-41.74"/>
</g>
<!-- Node10&#45;&gt;Node7 -->
<g id="edge17" class="edge">
<title>Node10&#45;&gt;Node7</title>
<path fill="none" stroke="midnightblue" d="M617.35,-145.41C614.56,-144.91 611.8,-144.44 609.08,-144 533.21,-131.66 330.97,-147.57 265.08,-108 241.07,-93.58 224.96,-64.7 216.16,-44.74"/>
<polygon fill="midnightblue" stroke="midnightblue" points="219.39,-43.4 212.32,-35.5 212.93,-46.08 219.39,-43.4"/>
</g>
<!-- Node11 -->
<g id="node11" class="node">
<title>Node11</title>
<g id="a_node11"><a xlink:href="_i_e_logger_8hpp.html" target="_top" xlink:title=" ">
<polygon fill="white" stroke="black" points="908.58,-81.5 908.58,-107.5 1131.58,-107.5 1131.58,-81.5 908.58,-81.5"/>
<text text-anchor="middle" x="1020.08" y="-90.7" font-family="Source Sans Pro" font-size="16.00">Core/LogModule/IELogger.hpp</text>
</a>
</g>
</g>
<!-- Node10&#45;&gt;Node11 -->
<g id="edge13" class="edge">
<title>Node10&#45;&gt;Node11</title>
<path fill="none" stroke="midnightblue" d="M794.8,-145.72C846.16,-134.27 909.63,-120.12 956.1,-109.76"/>
<polygon fill="midnightblue" stroke="midnightblue" points="957.04,-113.14 966.04,-107.55 955.52,-106.31 957.04,-113.14"/>
</g>
<!-- Node14 -->
<g id="node14" class="node">
<title>Node14</title>
<g id="a_node14"><a xlink:title=" ">
<polygon fill="white" stroke="#bfbfbf" points="648.58,-81.5 648.58,-107.5 733.58,-107.5 733.58,-81.5 648.58,-81.5"/>
<text text-anchor="middle" x="691.08" y="-90.7" font-family="Source Sans Pro" font-size="16.00">filesystem</text>
</a>
</g>
</g>
<!-- Node10&#45;&gt;Node14 -->
<g id="edge19" class="edge">
<title>Node10&#45;&gt;Node14</title>
<path fill="none" stroke="midnightblue" d="M701.58,-144.5C699.76,-136 697.65,-126.19 695.81,-117.59"/>
<polygon fill="midnightblue" stroke="midnightblue" points="699.17,-116.58 693.66,-107.53 692.33,-118.04 699.17,-116.58"/>
</g>
<!-- Node15 -->
<g id="node15" class="node">
<title>Node15</title>
<g id="a_node15"><a xlink:title=" ">
<polygon fill="white" stroke="#bfbfbf" points="752.08,-81.5 752.08,-107.5 820.08,-107.5 820.08,-81.5 752.08,-81.5"/>
<text text-anchor="middle" x="786.08" y="-90.7" font-family="Source Sans Pro" font-size="16.00">fstream</text>
</a>
</g>
</g>
<!-- Node10&#45;&gt;Node15 -->
<g id="edge20" class="edge">
<title>Node10&#45;&gt;Node15</title>
<path fill="none" stroke="midnightblue" d="M730.08,-144.5C741.08,-134.87 754.02,-123.55 764.68,-114.22"/>
<polygon fill="midnightblue" stroke="midnightblue" points="767.11,-116.75 772.33,-107.53 762.5,-111.48 767.11,-116.75"/>
</g>
<!-- Node16 -->
<g id="node16" class="node">
<title>Node16</title>
<g id="a_node16"><a xlink:title=" ">
<polygon fill="white" stroke="#bfbfbf" points="838.08,-81.5 838.08,-107.5 890.08,-107.5 890.08,-81.5 838.08,-81.5"/>
<text text-anchor="middle" x="864.08" y="-90.7" font-family="Source Sans Pro" font-size="16.00">regex</text>
</a>
</g>
</g>
<!-- Node10&#45;&gt;Node16 -->
<g id="edge21" class="edge">
<title>Node10&#45;&gt;Node16</title>
<path fill="none" stroke="midnightblue" d="M753.48,-144.5C777.55,-133.83 806.31,-121.09 828.47,-111.28"/>
<polygon fill="midnightblue" stroke="midnightblue" points="830.11,-114.38 837.83,-107.13 827.27,-107.98 830.11,-114.38"/>
</g>
<!-- Node17 -->
<g id="node17" class="node">
<title>Node17</title>
<g id="a_node17"><a xlink:title=" ">
<polygon fill="white" stroke="#bfbfbf" points="554.08,-81.5 554.08,-107.5 630.08,-107.5 630.08,-81.5 554.08,-81.5"/>
<text text-anchor="middle" x="592.08" y="-90.7" font-family="Source Sans Pro" font-size="16.00">iostream</text>
</a>
</g>
</g>
<!-- Node10&#45;&gt;Node17 -->
<g id="edge22" class="edge">
<title>Node10&#45;&gt;Node17</title>
<path fill="none" stroke="midnightblue" d="M671.87,-144.5C655.43,-134.4 635.95,-122.44 620.35,-112.86"/>
<polygon fill="midnightblue" stroke="midnightblue" points="622.02,-109.78 611.67,-107.53 618.36,-115.75 622.02,-109.78"/>
</g>
<!-- Node11&#45;&gt;Node6 -->
<g id="edge16" class="edge">
<title>Node11&#45;&gt;Node6</title>
<path fill="none" stroke="midnightblue" d="M925.36,-81.47C802.04,-65.8 592.2,-39.14 506.86,-28.3"/>
<polygon fill="midnightblue" stroke="midnightblue" points="507.2,-24.82 496.84,-27.03 506.32,-31.76 507.2,-24.82"/>
</g>
<!-- Node12 -->
<g id="node12" class="node">
<title>Node12</title>
<g id="a_node12"><a xlink:title=" ">
<polygon fill="white" stroke="#bfbfbf" points="1032.58,-9.5 1032.58,-35.5 1159.58,-35.5 1159.58,-9.5 1032.58,-9.5"/>
<text text-anchor="middle" x="1096.08" y="-18.7" font-family="Source Sans Pro" font-size="16.00">spdlog/spdlog.h</text>
</a>
</g>
</g>
<!-- Node11&#45;&gt;Node12 -->
<g id="edge14" class="edge">
<title>Node11&#45;&gt;Node12</title>
<path fill="none" stroke="midnightblue" d="M1033.32,-81.31C1044.98,-70.57 1062.15,-54.75 1075.58,-42.38"/>
<polygon fill="midnightblue" stroke="midnightblue" points="1078.01,-44.9 1082.99,-35.55 1073.26,-39.75 1078.01,-44.9"/>
</g>
<!-- Node13 -->
<g id="node13" class="node">
<title>Node13</title>
<g id="a_node13"><a xlink:title=" ">
<polygon fill="white" stroke="#bfbfbf" points="871.58,-0.5 871.58,-44.5 1014.58,-44.5 1014.58,-0.5 871.58,-0.5"/>
<text text-anchor="start" x="879.58" y="-27.7" font-family="Source Sans Pro" font-size="16.00">spdlog/sinks/basic</text>
<text text-anchor="middle" x="943.08" y="-9.7" font-family="Source Sans Pro" font-size="16.00">_file_sink.h</text>
</a>
</g>
</g>
<!-- Node11&#45;&gt;Node13 -->
<g id="edge15" class="edge">
<title>Node11&#45;&gt;Node13</title>
<path fill="none" stroke="midnightblue" d="M1006.67,-81.31C997.63,-73.1 985.34,-61.92 973.97,-51.58"/>
<polygon fill="midnightblue" stroke="midnightblue" points="976.05,-48.74 966.29,-44.6 971.34,-53.92 976.05,-48.74"/>
</g>
<!-- Node19&#45;&gt;Node6 -->
<g id="edge27" class="edge">
<title>Node19&#45;&gt;Node6</title>
<path fill="none" stroke="midnightblue" d="M156.61,-225.46C157.31,-202.03 162.28,-164.72 185.08,-144 254.5,-80.89 310.96,-153.38 393.08,-108 420.51,-92.84 443.16,-63.96 456.4,-44.22"/>
<polygon fill="midnightblue" stroke="midnightblue" points="459.47,-45.92 461.96,-35.63 453.59,-42.12 459.47,-45.92"/>
</g>
<!-- Node19&#45;&gt;Node7 -->
<g id="edge25" class="edge">
<title>Node19&#45;&gt;Node7</title>
<path fill="none" stroke="midnightblue" d="M95.94,-225.39C79.82,-216.72 64.36,-204.88 55.08,-189 44.99,-171.73 46.35,-161.99 55.08,-144 79.1,-94.51 134.39,-59.25 171.5,-40.13"/>
<polygon fill="midnightblue" stroke="midnightblue" points="173.14,-43.22 180.52,-35.61 170.01,-36.96 173.14,-43.22"/>
</g>
<!-- Node19&#45;&gt;Node8 -->
<g id="edge26" class="edge">
<title>Node19&#45;&gt;Node8</title>
<path fill="none" stroke="midnightblue" d="M183.88,-225.33C199.35,-213.1 218.64,-197.87 233.53,-186.1"/>
<polygon fill="midnightblue" stroke="midnightblue" points="236.05,-188.57 241.73,-179.63 231.71,-183.08 236.05,-188.57"/>
</g>
<!-- Node20 -->
<g id="node20" class="node">
<title>Node20</title>
<g id="a_node20"><a xlink:title=" ">
<polygon fill="white" stroke="#bfbfbf" points="64.08,-153.5 64.08,-179.5 138.08,-179.5 138.08,-153.5 64.08,-153.5"/>
<text text-anchor="middle" x="101.08" y="-162.7" font-family="Source Sans Pro" font-size="16.00">memory</text>
</a>
</g>
</g>
<!-- Node19&#45;&gt;Node20 -->
<g id="edge28" class="edge">
<title>Node19&#45;&gt;Node20</title>
<path fill="none" stroke="midnightblue" d="M142.07,-225.33C133.89,-213.79 123.81,-199.57 115.69,-188.11"/>
<polygon fill="midnightblue" stroke="midnightblue" points="118.31,-185.76 109.67,-179.63 112.6,-189.81 118.31,-185.76"/>
</g>
</g>
</svg>
