<?xml version="1.0" encoding="UTF-8" standalone="no"?>
<!DOCTYPE svg PUBLIC "-//W3C//DTD SVG 1.1//EN"
 "http://www.w3.org/Graphics/SVG/1.1/DTD/svg11.dtd">
<!-- Generated by graphviz version 2.43.0 (0)
 -->
<!-- Title: Illumination&#45;Engine/src/GraphicsModule/Renderable/IEMesh.hpp Pages: 1 -->
<svg width="2251pt" height="503pt"
 viewBox="0.00 0.00 2251.00 503.00" xmlns="http://www.w3.org/2000/svg" xmlns:xlink="http://www.w3.org/1999/xlink">
<g id="graph0" class="graph" transform="scale(1 1) rotate(0) translate(4 499)">
<title>Illumination&#45;Engine/src/GraphicsModule/Renderable/IEMesh.hpp</title>
<polygon fill="white" stroke="transparent" points="-4,4 -4,-499 2247,-499 2247,4 -4,4"/>
<!-- Node1 -->
<g id="node1" class="node">
<title>Node1</title>
<g id="a_node1"><a xlink:title=" ">
<polygon fill="#bfbfbf" stroke="black" points="1036.5,-432.5 1036.5,-494.5 1221.5,-494.5 1221.5,-432.5 1036.5,-432.5"/>
<text text-anchor="start" x="1044.5" y="-477.7" font-family="Source Sans Pro" font-size="16.00">Illumination&#45;Engine</text>
<text text-anchor="start" x="1044.5" y="-459.7" font-family="Source Sans Pro" font-size="16.00">/src/GraphicsModule</text>
<text text-anchor="middle" x="1129" y="-441.7" font-family="Source Sans Pro" font-size="16.00">/Renderable/IEMesh.hpp</text>
</a>
</g>
</g>
<!-- Node2 -->
<g id="node2" class="node">
<title>Node2</title>
<g id="a_node2"><a xlink:href="_i_e_buffer_8hpp.html" target="_top" xlink:title=" ">
<polygon fill="white" stroke="black" points="1055.5,-216.5 1055.5,-242.5 1202.5,-242.5 1202.5,-216.5 1055.5,-216.5"/>
<text text-anchor="middle" x="1129" y="-225.7" font-family="Source Sans Pro" font-size="16.00">Buffer/IEBuffer.hpp</text>
</a>
</g>
</g>
<!-- Node1&#45;&gt;Node2 -->
<g id="edge1" class="edge">
<title>Node1&#45;&gt;Node2</title>
<path fill="none" stroke="midnightblue" d="M1129,-432.17C1129,-384.92 1129,-294.81 1129,-252.93"/>
<polygon fill="midnightblue" stroke="midnightblue" points="1132.5,-252.7 1129,-242.7 1125.5,-252.7 1132.5,-252.7"/>
</g>
<!-- Node6 -->
<g id="node6" class="node">
<title>Node6</title>
<g id="a_node6"><a xlink:title=" ">
<polygon fill="white" stroke="#bfbfbf" points="490.5,-0.5 490.5,-26.5 549.5,-26.5 549.5,-0.5 490.5,-0.5"/>
<text text-anchor="middle" x="520" y="-9.7" font-family="Source Sans Pro" font-size="16.00">vector</text>
</a>
</g>
</g>
<!-- Node1&#45;&gt;Node6 -->
<g id="edge78" class="edge">
<title>Node1&#45;&gt;Node6</title>
<path fill="none" stroke="midnightblue" d="M1036.13,-459.8C766.06,-450.71 0,-415.75 0,-311.5 0,-311.5 0,-311.5 0,-147.5 0,-94.55 36.31,-86.01 84,-63 153.52,-29.46 386.27,-18.63 480.19,-15.57"/>
<polygon fill="midnightblue" stroke="midnightblue" points="480.53,-19.06 490.42,-15.25 480.31,-12.06 480.53,-19.06"/>
</g>
<!-- Node10 -->
<g id="node10" class="node">
<title>Node10</title>
<g id="a_node10"><a xlink:title=" ">
<polygon fill="white" stroke="#bfbfbf" points="1816.5,-0.5 1816.5,-26.5 1879.5,-26.5 1879.5,-0.5 1816.5,-0.5"/>
<text text-anchor="middle" x="1848" y="-9.7" font-family="Source Sans Pro" font-size="16.00">cstdint</text>
</a>
</g>
</g>
<!-- Node1&#45;&gt;Node10 -->
<g id="edge77" class="edge">
<title>Node1&#45;&gt;Node10</title>
<path fill="none" stroke="midnightblue" d="M1221.59,-459.64C1488.91,-450.15 2243,-414.27 2243,-311.5 2243,-311.5 2243,-311.5 2243,-147.5 2243,-73.6 1991.5,-32.95 1889.87,-19.54"/>
<polygon fill="midnightblue" stroke="midnightblue" points="1890.02,-16.04 1879.66,-18.22 1889.12,-22.98 1890.02,-16.04"/>
</g>
<!-- Node14 -->
<g id="node14" class="node">
<title>Node14</title>
<g id="a_node14"><a xlink:href="_i_e_descriptor_set_8hpp.html" target="_top" xlink:title=" ">
<polygon fill="white" stroke="black" points="272,-207.5 272,-251.5 452,-251.5 452,-207.5 272,-207.5"/>
<text text-anchor="start" x="280" y="-234.7" font-family="Source Sans Pro" font-size="16.00">GraphicsModule/Shader</text>
<text text-anchor="middle" x="362" y="-216.7" font-family="Source Sans Pro" font-size="16.00">/IEDescriptorSet.hpp</text>
</a>
</g>
</g>
<!-- Node1&#45;&gt;Node14 -->
<g id="edge19" class="edge">
<title>Node1&#45;&gt;Node14</title>
<path fill="none" stroke="midnightblue" d="M1036.48,-434.52C884.39,-388.51 584.16,-297.7 441.23,-254.47"/>
<polygon fill="midnightblue" stroke="midnightblue" points="442.22,-251.11 431.64,-251.56 440.19,-257.81 442.22,-251.11"/>
</g>
<!-- Node17 -->
<g id="node17" class="node">
<title>Node17</title>
<g id="a_node17"><a xlink:href="_i_e_pipeline_8hpp.html" target="_top" xlink:title=" ">
<polygon fill="white" stroke="black" points="768,-288.5 768,-332.5 948,-332.5 948,-288.5 768,-288.5"/>
<text text-anchor="start" x="776" y="-315.7" font-family="Source Sans Pro" font-size="16.00">GraphicsModule/Shader</text>
<text text-anchor="middle" x="858" y="-297.7" font-family="Source Sans Pro" font-size="16.00">/IEPipeline.hpp</text>
</a>
</g>
</g>
<!-- Node1&#45;&gt;Node17 -->
<g id="edge27" class="edge">
<title>Node1&#45;&gt;Node17</title>
<path fill="none" stroke="midnightblue" d="M1075.14,-432.49C1025.4,-404.77 952.26,-364.02 904.88,-337.62"/>
<polygon fill="midnightblue" stroke="midnightblue" points="906.49,-334.51 896.05,-332.7 903.08,-340.63 906.49,-334.51"/>
</g>
<!-- Node24 -->
<g id="node24" class="node">
<title>Node24</title>
<g id="a_node24"><a xlink:href="_i_e_material_8hpp.html" target="_top" xlink:title=" ">
<polygon fill="white" stroke="black" points="1846,-369.5 1846,-395.5 1960,-395.5 1960,-369.5 1846,-369.5"/>
<text text-anchor="middle" x="1903" y="-378.7" font-family="Source Sans Pro" font-size="16.00">IEMaterial.hpp</text>
</a>
</g>
</g>
<!-- Node1&#45;&gt;Node24 -->
<g id="edge46" class="edge">
<title>Node1&#45;&gt;Node24</title>
<path fill="none" stroke="midnightblue" d="M1221.59,-453.05C1379.55,-436.93 1697.41,-404.48 1835.92,-390.35"/>
<polygon fill="midnightblue" stroke="midnightblue" points="1836.39,-393.82 1845.98,-389.32 1835.68,-386.85 1836.39,-393.82"/>
</g>
<!-- Node33 -->
<g id="node33" class="node">
<title>Node33</title>
<g id="a_node33"><a xlink:href="_i_e_vertex_8hpp.html" target="_top" xlink:title=" ">
<polygon fill="white" stroke="black" points="1199.5,-369.5 1199.5,-395.5 1300.5,-395.5 1300.5,-369.5 1199.5,-369.5"/>
<text text-anchor="middle" x="1250" y="-378.7" font-family="Source Sans Pro" font-size="16.00">IEVertex.hpp</text>
</a>
</g>
</g>
<!-- Node1&#45;&gt;Node33 -->
<g id="edge72" class="edge">
<title>Node1&#45;&gt;Node33</title>
<path fill="none" stroke="midnightblue" d="M1175.09,-432.41C1191.2,-421.89 1208.75,-410.43 1222.81,-401.25"/>
<polygon fill="midnightblue" stroke="midnightblue" points="1225.04,-403.97 1231.5,-395.58 1221.22,-398.11 1225.04,-403.97"/>
</g>
<!-- Node3 -->
<g id="node3" class="node">
<title>Node3</title>
<g id="a_node3"><a xlink:href="_i_e_dependency_8hpp.html" target="_top" xlink:title=" ">
<polygon fill="white" stroke="black" points="766.5,-126.5 766.5,-170.5 1011.5,-170.5 1011.5,-126.5 766.5,-126.5"/>
<text text-anchor="start" x="774.5" y="-153.7" font-family="Source Sans Pro" font-size="16.00">GraphicsModule/CommandBuffer</text>
<text text-anchor="middle" x="889" y="-135.7" font-family="Source Sans Pro" font-size="16.00">/IEDependency.hpp</text>
</a>
</g>
</g>
<!-- Node2&#45;&gt;Node3 -->
<g id="edge2" class="edge">
<title>Node2&#45;&gt;Node3</title>
<path fill="none" stroke="midnightblue" d="M1092.29,-216.42C1057.98,-205.12 1005.76,-187.93 962.84,-173.8"/>
<polygon fill="midnightblue" stroke="midnightblue" points="963.86,-170.46 953.27,-170.66 961.67,-177.11 963.86,-170.46"/>
</g>
<!-- Node2&#45;&gt;Node6 -->
<g id="edge18" class="edge">
<title>Node2&#45;&gt;Node6</title>
<path fill="none" stroke="midnightblue" d="M1131.01,-216.19C1135.3,-185.1 1141.63,-103.09 1097,-63 1057.17,-27.22 684.04,-17.4 559.93,-15.12"/>
<polygon fill="midnightblue" stroke="midnightblue" points="559.78,-11.61 549.72,-14.94 559.66,-18.61 559.78,-11.61"/>
</g>
<!-- Node7 -->
<g id="node7" class="node">
<title>Node7</title>
<g id="a_node7"><a xlink:title=" ">
<polygon fill="white" stroke="#bfbfbf" points="962.5,-63.5 962.5,-89.5 1087.5,-89.5 1087.5,-63.5 962.5,-63.5"/>
<text text-anchor="middle" x="1025" y="-72.7" font-family="Source Sans Pro" font-size="16.00">vulkan/vulkan.h</text>
</a>
</g>
</g>
<!-- Node2&#45;&gt;Node7 -->
<g id="edge15" class="edge">
<title>Node2&#45;&gt;Node7</title>
<path fill="none" stroke="midnightblue" d="M1120.67,-216.4C1102.94,-190.67 1061.33,-130.25 1039.29,-98.25"/>
<polygon fill="midnightblue" stroke="midnightblue" points="1041.93,-95.91 1033.37,-89.66 1036.16,-99.88 1041.93,-95.91"/>
</g>
<!-- Node8 -->
<g id="node8" class="node">
<title>Node8</title>
<g id="a_node8"><a xlink:href="_i_e_a_p_i_8hpp.html" target="_top" xlink:title=" ">
<polygon fill="white" stroke="black" points="1144.5,-135.5 1144.5,-161.5 1227.5,-161.5 1227.5,-135.5 1144.5,-135.5"/>
<text text-anchor="middle" x="1186" y="-144.7" font-family="Source Sans Pro" font-size="16.00">IEAPI.hpp</text>
</a>
</g>
</g>
<!-- Node2&#45;&gt;Node8 -->
<g id="edge7" class="edge">
<title>Node2&#45;&gt;Node8</title>
<path fill="none" stroke="midnightblue" d="M1137.91,-216.16C1146.77,-203.87 1160.55,-184.78 1171.09,-170.17"/>
<polygon fill="midnightblue" stroke="midnightblue" points="1174.14,-171.91 1177.16,-161.76 1168.47,-167.82 1174.14,-171.91"/>
</g>
<!-- Node2&#45;&gt;Node10 -->
<g id="edge16" class="edge">
<title>Node2&#45;&gt;Node10</title>
<path fill="none" stroke="midnightblue" d="M1158.79,-216.36C1181.57,-206.23 1213.04,-190.35 1237,-171 1257.36,-154.55 1251.73,-137.99 1275,-126 1362.22,-81.08 1621.25,-118.9 1715,-90 1755.86,-77.41 1797.93,-50.79 1823.53,-32.77"/>
<polygon fill="midnightblue" stroke="midnightblue" points="1825.78,-35.46 1831.87,-26.79 1821.7,-29.77 1825.78,-35.46"/>
</g>
<!-- Node11 -->
<g id="node11" class="node">
<title>Node11</title>
<g id="a_node11"><a xlink:title=" ">
<polygon fill="white" stroke="#bfbfbf" points="1440.5,-135.5 1440.5,-161.5 1625.5,-161.5 1625.5,-135.5 1440.5,-135.5"/>
<text text-anchor="middle" x="1533" y="-144.7" font-family="Source Sans Pro" font-size="16.00">include/vk_mem_alloc.h</text>
</a>
</g>
</g>
<!-- Node2&#45;&gt;Node11 -->
<g id="edge13" class="edge">
<title>Node2&#45;&gt;Node11</title>
<path fill="none" stroke="midnightblue" d="M1194.17,-216.47C1255.38,-205.09 1349.5,-187.35 1431,-171 1442.64,-168.66 1455.02,-166.11 1466.99,-163.61"/>
<polygon fill="midnightblue" stroke="midnightblue" points="1467.86,-167.01 1476.92,-161.53 1466.42,-160.15 1467.86,-167.01"/>
</g>
<!-- Node12 -->
<g id="node12" class="node">
<title>Node12</title>
<g id="a_node12"><a xlink:title=" ">
<polygon fill="white" stroke="#bfbfbf" points="1284,-135.5 1284,-161.5 1422,-161.5 1422,-135.5 1284,-135.5"/>
<text text-anchor="middle" x="1353" y="-144.7" font-family="Source Sans Pro" font-size="16.00">include/GL/glew.h</text>
</a>
</g>
</g>
<!-- Node2&#45;&gt;Node12 -->
<g id="edge14" class="edge">
<title>Node2&#45;&gt;Node12</title>
<path fill="none" stroke="midnightblue" d="M1163.51,-216.33C1202.67,-202.52 1266.64,-179.96 1309.27,-164.92"/>
<polygon fill="midnightblue" stroke="midnightblue" points="1310.55,-168.18 1318.82,-161.55 1308.22,-161.58 1310.55,-168.18"/>
</g>
<!-- Node13 -->
<g id="node13" class="node">
<title>Node13</title>
<g id="a_node13"><a xlink:title=" ">
<polygon fill="white" stroke="#bfbfbf" points="662,-135.5 662,-161.5 748,-161.5 748,-135.5 662,-135.5"/>
<text text-anchor="middle" x="705" y="-144.7" font-family="Source Sans Pro" font-size="16.00">functional</text>
</a>
</g>
</g>
<!-- Node2&#45;&gt;Node13 -->
<g id="edge17" class="edge">
<title>Node2&#45;&gt;Node13</title>
<path fill="none" stroke="midnightblue" d="M1055.43,-222.17C979.81,-214.48 859.15,-198.95 758,-171 752.3,-169.42 746.38,-167.42 740.65,-165.27"/>
<polygon fill="midnightblue" stroke="midnightblue" points="741.86,-161.98 731.27,-161.56 739.29,-168.49 741.86,-161.98"/>
</g>
<!-- Node4 -->
<g id="node4" class="node">
<title>Node4</title>
<g id="a_node4"><a xlink:title=" ">
<polygon fill="white" stroke="#bfbfbf" points="738,-63.5 738,-89.5 812,-89.5 812,-63.5 738,-63.5"/>
<text text-anchor="middle" x="775" y="-72.7" font-family="Source Sans Pro" font-size="16.00">memory</text>
</a>
</g>
</g>
<!-- Node3&#45;&gt;Node4 -->
<g id="edge3" class="edge">
<title>Node3&#45;&gt;Node4</title>
<path fill="none" stroke="midnightblue" d="M854.8,-126.5C838.35,-116.4 818.87,-104.44 803.27,-94.86"/>
<polygon fill="midnightblue" stroke="midnightblue" points="804.95,-91.78 794.59,-89.53 801.28,-97.75 804.95,-91.78"/>
</g>
<!-- Node5 -->
<g id="node5" class="node">
<title>Node5</title>
<g id="a_node5"><a xlink:title=" ">
<polygon fill="white" stroke="#bfbfbf" points="1623.5,-0.5 1623.5,-26.5 1678.5,-26.5 1678.5,-0.5 1623.5,-0.5"/>
<text text-anchor="middle" x="1651" y="-9.7" font-family="Source Sans Pro" font-size="16.00">string</text>
</a>
</g>
</g>
<!-- Node3&#45;&gt;Node5 -->
<g id="edge4" class="edge">
<title>Node3&#45;&gt;Node5</title>
<path fill="none" stroke="midnightblue" d="M898.75,-126.29C909.27,-106.14 928.07,-76.91 954,-63 1012.22,-31.78 1476.09,-18.57 1613.06,-15.33"/>
<polygon fill="midnightblue" stroke="midnightblue" points="1613.53,-18.82 1623.45,-15.09 1613.37,-11.82 1613.53,-18.82"/>
</g>
<!-- Node3&#45;&gt;Node6 -->
<g id="edge5" class="edge">
<title>Node3&#45;&gt;Node6</title>
<path fill="none" stroke="midnightblue" d="M830.48,-126.49C800.18,-115.61 762.6,-102.11 729,-90 669.86,-68.69 601.34,-43.92 559.33,-28.73"/>
<polygon fill="midnightblue" stroke="midnightblue" points="560.35,-25.38 549.76,-25.27 557.97,-31.96 560.35,-25.38"/>
</g>
<!-- Node3&#45;&gt;Node7 -->
<g id="edge6" class="edge">
<title>Node3&#45;&gt;Node7</title>
<path fill="none" stroke="midnightblue" d="M929.8,-126.5C949.88,-116.16 973.75,-103.88 992.57,-94.19"/>
<polygon fill="midnightblue" stroke="midnightblue" points="994.34,-97.22 1001.63,-89.53 991.13,-91 994.34,-97.22"/>
</g>
<!-- Node8&#45;&gt;Node5 -->
<g id="edge12" class="edge">
<title>Node8&#45;&gt;Node5</title>
<path fill="none" stroke="midnightblue" d="M1215.74,-135.45C1224.16,-132.2 1233.39,-128.82 1242,-126 1377,-81.81 1540.92,-40.87 1613.42,-23.4"/>
<polygon fill="midnightblue" stroke="midnightblue" points="1614.53,-26.74 1623.44,-21 1612.9,-19.93 1614.53,-26.74"/>
</g>
<!-- Node9 -->
<g id="node9" class="node">
<title>Node9</title>
<g id="a_node9"><a xlink:href="_i_e_version_8hpp.html" target="_top" xlink:title=" ">
<polygon fill="white" stroke="black" points="1596,-63.5 1596,-89.5 1706,-89.5 1706,-63.5 1596,-63.5"/>
<text text-anchor="middle" x="1651" y="-72.7" font-family="Source Sans Pro" font-size="16.00">IEVersion.hpp</text>
</a>
</g>
</g>
<!-- Node8&#45;&gt;Node9 -->
<g id="edge8" class="edge">
<title>Node8&#45;&gt;Node9</title>
<path fill="none" stroke="midnightblue" d="M1213.17,-135.43C1222.19,-131.87 1232.38,-128.31 1242,-126 1389.74,-90.47 1431.58,-111.56 1582,-90 1583.25,-89.82 1584.52,-89.63 1585.8,-89.44"/>
<polygon fill="midnightblue" stroke="midnightblue" points="1586.36,-92.9 1595.7,-87.89 1585.27,-85.98 1586.36,-92.9"/>
</g>
<!-- Node9&#45;&gt;Node5 -->
<g id="edge10" class="edge">
<title>Node9&#45;&gt;Node5</title>
<path fill="none" stroke="midnightblue" d="M1651,-63.45C1651,-55.85 1651,-45.79 1651,-36.78"/>
<polygon fill="midnightblue" stroke="midnightblue" points="1654.5,-36.53 1651,-26.53 1647.5,-36.53 1654.5,-36.53"/>
</g>
<!-- Node9&#45;&gt;Node6 -->
<g id="edge11" class="edge">
<title>Node9&#45;&gt;Node6</title>
<path fill="none" stroke="midnightblue" d="M1595.81,-68.32C1579.18,-66.35 1560.87,-64.38 1544,-63 1161.51,-31.64 696.85,-18.7 559.82,-15.4"/>
<polygon fill="midnightblue" stroke="midnightblue" points="559.87,-11.9 549.79,-15.16 559.7,-18.9 559.87,-11.9"/>
</g>
<!-- Node9&#45;&gt;Node10 -->
<g id="edge9" class="edge">
<title>Node9&#45;&gt;Node10</title>
<path fill="none" stroke="midnightblue" d="M1689.92,-63.45C1723.6,-53.02 1772.16,-37.98 1806.56,-27.33"/>
<polygon fill="midnightblue" stroke="midnightblue" points="1807.79,-30.62 1816.3,-24.31 1805.72,-23.93 1807.79,-30.62"/>
</g>
<!-- Node14&#45;&gt;Node3 -->
<g id="edge20" class="edge">
<title>Node14&#45;&gt;Node3</title>
<path fill="none" stroke="midnightblue" d="M452.27,-215.8C530.03,-204.76 645.55,-188.12 756.38,-171.08"/>
<polygon fill="midnightblue" stroke="midnightblue" points="757.05,-174.52 766.4,-169.54 755.99,-167.6 757.05,-174.52"/>
</g>
<!-- Node14&#45;&gt;Node6 -->
<g id="edge26" class="edge">
<title>Node14&#45;&gt;Node6</title>
<path fill="none" stroke="midnightblue" d="M271.66,-227C181.32,-221.37 60.4,-200.26 95,-126 113.39,-86.54 130.22,-80.68 170,-63 224.92,-38.59 400.83,-23.13 480.33,-17.22"/>
<polygon fill="midnightblue" stroke="midnightblue" points="480.72,-20.71 490.43,-16.49 480.21,-13.72 480.72,-20.71"/>
</g>
<!-- Node14&#45;&gt;Node7 -->
<g id="edge21" class="edge">
<title>Node14&#45;&gt;Node7</title>
<path fill="none" stroke="midnightblue" d="M414.17,-207.4C481.09,-180.62 593.7,-136.62 637,-126 652.09,-122.3 844.07,-99.08 952.19,-86.16"/>
<polygon fill="midnightblue" stroke="midnightblue" points="952.87,-89.6 962.38,-84.94 952.04,-82.65 952.87,-89.6"/>
</g>
<!-- Node14&#45;&gt;Node10 -->
<g id="edge22" class="edge">
<title>Node14&#45;&gt;Node10</title>
<path fill="none" stroke="midnightblue" d="M340.55,-207.34C329.94,-196.65 317.06,-183.35 306,-171 288.73,-151.71 288.95,-142.5 269,-126 243.25,-104.71 220.06,-118.73 203,-90 196.87,-79.68 194.62,-71.59 203,-63 231.82,-33.47 1646.79,-29.11 1688,-27 1728.3,-24.94 1774.21,-21.21 1806.48,-18.36"/>
<polygon fill="midnightblue" stroke="midnightblue" points="1806.81,-21.84 1816.46,-17.47 1806.19,-14.87 1806.81,-21.84"/>
</g>
<!-- Node14&#45;&gt;Node13 -->
<g id="edge23" class="edge">
<title>Node14&#45;&gt;Node13</title>
<path fill="none" stroke="midnightblue" d="M452.12,-207.74C515.7,-193.1 598.72,-173.98 651.96,-161.72"/>
<polygon fill="midnightblue" stroke="midnightblue" points="652.91,-165.09 661.87,-159.43 651.34,-158.27 652.91,-165.09"/>
</g>
<!-- Node15 -->
<g id="node15" class="node">
<title>Node15</title>
<g id="a_node15"><a xlink:title=" ">
<polygon fill="white" stroke="#bfbfbf" points="104.5,-135.5 104.5,-161.5 177.5,-161.5 177.5,-135.5 104.5,-135.5"/>
<text text-anchor="middle" x="141" y="-144.7" font-family="Source Sans Pro" font-size="16.00">optional</text>
</a>
</g>
</g>
<!-- Node14&#45;&gt;Node15 -->
<g id="edge24" class="edge">
<title>Node14&#45;&gt;Node15</title>
<path fill="none" stroke="midnightblue" d="M291.49,-207.45C259.3,-197.3 220.89,-184.43 187,-171 183.04,-169.43 178.93,-167.68 174.87,-165.89"/>
<polygon fill="midnightblue" stroke="midnightblue" points="176.14,-162.62 165.59,-161.66 173.24,-168.99 176.14,-162.62"/>
</g>
<!-- Node16 -->
<g id="node16" class="node">
<title>Node16</title>
<g id="a_node16"><a xlink:title=" ">
<polygon fill="white" stroke="#bfbfbf" points="196,-135.5 196,-161.5 260,-161.5 260,-135.5 196,-135.5"/>
<text text-anchor="middle" x="228" y="-144.7" font-family="Source Sans Pro" font-size="16.00">variant</text>
</a>
</g>
</g>
<!-- Node14&#45;&gt;Node16 -->
<g id="edge25" class="edge">
<title>Node14&#45;&gt;Node16</title>
<path fill="none" stroke="midnightblue" d="M326.09,-207.33C304.58,-194.65 277.57,-178.72 257.34,-166.8"/>
<polygon fill="midnightblue" stroke="midnightblue" points="258.96,-163.69 248.57,-161.63 255.41,-169.72 258.96,-163.69"/>
</g>
<!-- Node17&#45;&gt;Node3 -->
<g id="edge28" class="edge">
<title>Node17&#45;&gt;Node3</title>
<path fill="none" stroke="midnightblue" d="M862.12,-288.25C867.46,-260.68 876.82,-212.36 882.97,-180.65"/>
<polygon fill="midnightblue" stroke="midnightblue" points="886.45,-181.06 884.92,-170.58 879.58,-179.73 886.45,-181.06"/>
</g>
<!-- Node17&#45;&gt;Node6 -->
<g id="edge45" class="edge">
<title>Node17&#45;&gt;Node6</title>
<path fill="none" stroke="midnightblue" d="M767.84,-308.86C579.98,-305.25 158,-284.43 85,-171 57.91,-128.9 75.97,-91.69 117,-63 175.05,-22.4 390.46,-15.66 480.28,-14.63"/>
<polygon fill="midnightblue" stroke="midnightblue" points="480.37,-18.13 490.34,-14.54 480.31,-11.13 480.37,-18.13"/>
</g>
<!-- Node17&#45;&gt;Node7 -->
<g id="edge43" class="edge">
<title>Node17&#45;&gt;Node7</title>
<path fill="none" stroke="midnightblue" d="M898.2,-288.41C937.4,-265.39 994.83,-224.55 1021,-171 1031.96,-148.58 1031.21,-119.42 1028.85,-99.66"/>
<polygon fill="midnightblue" stroke="midnightblue" points="1032.32,-99.17 1027.45,-89.76 1025.39,-100.15 1032.32,-99.17"/>
</g>
<!-- Node17&#45;&gt;Node13 -->
<g id="edge44" class="edge">
<title>Node17&#45;&gt;Node13</title>
<path fill="none" stroke="midnightblue" d="M837.68,-288.25C807.84,-257.04 752.56,-199.23 723.68,-169.03"/>
<polygon fill="midnightblue" stroke="midnightblue" points="726.04,-166.44 716.6,-161.63 720.98,-171.28 726.04,-166.44"/>
</g>
<!-- Node18 -->
<g id="node18" class="node">
<title>Node18</title>
<g id="a_node18"><a xlink:href="_i_e_shader_8hpp.html" target="_top" xlink:title=" ">
<polygon fill="white" stroke="black" points="569,-207.5 569,-251.5 749,-251.5 749,-207.5 569,-207.5"/>
<text text-anchor="start" x="577" y="-234.7" font-family="Source Sans Pro" font-size="16.00">GraphicsModule/Shader</text>
<text text-anchor="middle" x="659" y="-216.7" font-family="Source Sans Pro" font-size="16.00">/IEShader.hpp</text>
</a>
</g>
</g>
<!-- Node17&#45;&gt;Node18 -->
<g id="edge29" class="edge">
<title>Node17&#45;&gt;Node18</title>
<path fill="none" stroke="midnightblue" d="M804.93,-288.43C779.18,-278.21 748.09,-265.87 721.23,-255.2"/>
<polygon fill="midnightblue" stroke="midnightblue" points="722.5,-251.94 711.92,-251.51 719.92,-258.45 722.5,-251.94"/>
</g>
<!-- Node18&#45;&gt;Node5 -->
<g id="edge40" class="edge">
<title>Node18&#45;&gt;Node5</title>
<path fill="none" stroke="midnightblue" d="M646.51,-207.34C635.56,-185.78 623.33,-151.92 637,-126 660.11,-82.16 682.06,-78.89 729,-63 813.68,-34.33 1451.02,-18.79 1613.43,-15.28"/>
<polygon fill="midnightblue" stroke="midnightblue" points="1613.51,-18.78 1623.43,-15.06 1613.36,-11.78 1613.51,-18.78"/>
</g>
<!-- Node18&#45;&gt;Node6 -->
<g id="edge41" class="edge">
<title>Node18&#45;&gt;Node6</title>
<path fill="none" stroke="midnightblue" d="M590.67,-207.37C572.97,-198.77 555.63,-186.97 544,-171 514.9,-131.05 514.84,-70.02 517.38,-37.23"/>
<polygon fill="midnightblue" stroke="midnightblue" points="520.9,-37.17 518.34,-26.88 513.93,-36.52 520.9,-37.17"/>
</g>
<!-- Node18&#45;&gt;Node7 -->
<g id="edge31" class="edge">
<title>Node18&#45;&gt;Node7</title>
<path fill="none" stroke="midnightblue" d="M649.91,-207.23C641.7,-184.29 633.59,-148.1 653,-126 657.9,-120.41 845.09,-98.12 952.02,-85.8"/>
<polygon fill="midnightblue" stroke="midnightblue" points="952.57,-89.25 962.11,-84.63 951.77,-82.3 952.57,-89.25"/>
</g>
<!-- Node18&#45;&gt;Node8 -->
<g id="edge30" class="edge">
<title>Node18&#45;&gt;Node8</title>
<path fill="none" stroke="midnightblue" d="M749.29,-214.96C860.32,-198.32 1044.99,-170.64 1134.38,-157.24"/>
<polygon fill="midnightblue" stroke="midnightblue" points="1134.91,-160.7 1144.28,-155.75 1133.87,-153.78 1134.91,-160.7"/>
</g>
<!-- Node18&#45;&gt;Node12 -->
<g id="edge42" class="edge">
<title>Node18&#45;&gt;Node12</title>
<path fill="none" stroke="midnightblue" d="M749.39,-221.88C863.39,-212.98 1065.28,-195.41 1237,-171 1252.14,-168.85 1268.31,-166.12 1283.63,-163.34"/>
<polygon fill="midnightblue" stroke="midnightblue" points="1284.35,-166.77 1293.55,-161.51 1283.08,-159.88 1284.35,-166.77"/>
</g>
<!-- Node18&#45;&gt;Node13 -->
<g id="edge39" class="edge">
<title>Node18&#45;&gt;Node13</title>
<path fill="none" stroke="midnightblue" d="M671.33,-207.33C677.98,-195.9 686.16,-181.85 692.8,-170.46"/>
<polygon fill="midnightblue" stroke="midnightblue" points="695.93,-172.03 697.94,-161.63 689.88,-168.51 695.93,-172.03"/>
</g>
<!-- Node19 -->
<g id="node19" class="node">
<title>Node19</title>
<g id="a_node19"><a xlink:href="_i_e_file_8hpp.html" target="_top" xlink:title=" ">
<polygon fill="white" stroke="black" points="315.5,-126.5 315.5,-170.5 492.5,-170.5 492.5,-126.5 315.5,-126.5"/>
<text text-anchor="start" x="323.5" y="-153.7" font-family="Source Sans Pro" font-size="16.00">Core/FileSystemModule</text>
<text text-anchor="middle" x="404" y="-135.7" font-family="Source Sans Pro" font-size="16.00">/IEFile.hpp</text>
</a>
</g>
</g>
<!-- Node18&#45;&gt;Node19 -->
<g id="edge32" class="edge">
<title>Node18&#45;&gt;Node19</title>
<path fill="none" stroke="midnightblue" d="M591,-207.43C557.28,-196.99 516.41,-184.33 481.49,-173.51"/>
<polygon fill="midnightblue" stroke="midnightblue" points="482.4,-170.12 471.81,-170.51 480.33,-176.81 482.4,-170.12"/>
</g>
<!-- Node19&#45;&gt;Node5 -->
<g id="edge37" class="edge">
<title>Node19&#45;&gt;Node5</title>
<path fill="none" stroke="midnightblue" d="M445.76,-126.43C488.37,-106.08 556.99,-76.43 620,-63 815.09,-21.43 1450.62,-15.48 1612.97,-14.64"/>
<polygon fill="midnightblue" stroke="midnightblue" points="1613.41,-18.14 1623.4,-14.59 1613.38,-11.14 1613.41,-18.14"/>
</g>
<!-- Node19&#45;&gt;Node6 -->
<g id="edge38" class="edge">
<title>Node19&#45;&gt;Node6</title>
<path fill="none" stroke="midnightblue" d="M427.22,-126.43C438.43,-115.87 451.84,-102.66 463,-90 478.61,-72.29 494.67,-50.65 505.75,-35.09"/>
<polygon fill="midnightblue" stroke="midnightblue" points="508.75,-36.9 511.65,-26.71 503.03,-32.87 508.75,-36.9"/>
</g>
<!-- Node20 -->
<g id="node20" class="node">
<title>Node20</title>
<g id="a_node20"><a xlink:title=" ">
<polygon fill="white" stroke="#bfbfbf" points="212.5,-63.5 212.5,-89.5 297.5,-89.5 297.5,-63.5 212.5,-63.5"/>
<text text-anchor="middle" x="255" y="-72.7" font-family="Source Sans Pro" font-size="16.00">filesystem</text>
</a>
</g>
</g>
<!-- Node19&#45;&gt;Node20 -->
<g id="edge33" class="edge">
<title>Node19&#45;&gt;Node20</title>
<path fill="none" stroke="midnightblue" d="M359.3,-126.5C336.99,-116.02 310.43,-103.54 289.69,-93.8"/>
<polygon fill="midnightblue" stroke="midnightblue" points="291.15,-90.62 280.61,-89.53 288.17,-96.95 291.15,-90.62"/>
</g>
<!-- Node21 -->
<g id="node21" class="node">
<title>Node21</title>
<g id="a_node21"><a xlink:title=" ">
<polygon fill="white" stroke="#bfbfbf" points="316,-63.5 316,-89.5 384,-89.5 384,-63.5 316,-63.5"/>
<text text-anchor="middle" x="350" y="-72.7" font-family="Source Sans Pro" font-size="16.00">fstream</text>
</a>
</g>
</g>
<!-- Node19&#45;&gt;Node21 -->
<g id="edge34" class="edge">
<title>Node19&#45;&gt;Node21</title>
<path fill="none" stroke="midnightblue" d="M387.8,-126.5C380.74,-117.34 372.49,-106.66 365.51,-97.61"/>
<polygon fill="midnightblue" stroke="midnightblue" points="368.16,-95.31 359.28,-89.53 362.62,-99.59 368.16,-95.31"/>
</g>
<!-- Node22 -->
<g id="node22" class="node">
<title>Node22</title>
<g id="a_node22"><a xlink:title=" ">
<polygon fill="white" stroke="#bfbfbf" points="830,-63.5 830,-89.5 906,-89.5 906,-63.5 830,-63.5"/>
<text text-anchor="middle" x="868" y="-72.7" font-family="Source Sans Pro" font-size="16.00">iostream</text>
</a>
</g>
</g>
<!-- Node19&#45;&gt;Node22 -->
<g id="edge35" class="edge">
<title>Node19&#45;&gt;Node22</title>
<path fill="none" stroke="midnightblue" d="M492.94,-136.54C591.56,-124.17 745.5,-104.15 819.91,-90.01"/>
<polygon fill="midnightblue" stroke="midnightblue" points="820.73,-93.42 829.87,-88.06 819.39,-86.55 820.73,-93.42"/>
</g>
<!-- Node23 -->
<g id="node23" class="node">
<title>Node23</title>
<g id="a_node23"><a xlink:title=" ">
<polygon fill="white" stroke="#bfbfbf" points="402,-63.5 402,-89.5 454,-89.5 454,-63.5 402,-63.5"/>
<text text-anchor="middle" x="428" y="-72.7" font-family="Source Sans Pro" font-size="16.00">regex</text>
</a>
</g>
</g>
<!-- Node19&#45;&gt;Node23 -->
<g id="edge36" class="edge">
<title>Node19&#45;&gt;Node23</title>
<path fill="none" stroke="midnightblue" d="M411.2,-126.5C414.18,-117.81 417.63,-107.75 420.62,-99.02"/>
<polygon fill="midnightblue" stroke="midnightblue" points="423.94,-100.13 423.88,-89.53 417.32,-97.86 423.94,-100.13"/>
</g>
<!-- Node24&#45;&gt;Node5 -->
<g id="edge69" class="edge">
<title>Node24&#45;&gt;Node5</title>
<path fill="none" stroke="midnightblue" d="M1960.19,-375C2020.72,-367.22 2111.39,-352.73 2140,-333 2184.41,-302.37 2205,-284.44 2205,-230.5 2205,-230.5 2205,-230.5 2205,-147.5 2205,-94.34 1814.3,-36.67 1689.11,-19.55"/>
<polygon fill="midnightblue" stroke="midnightblue" points="1689.23,-16.04 1678.85,-18.16 1688.29,-22.98 1689.23,-16.04"/>
</g>
<!-- Node24&#45;&gt;Node22 -->
<g id="edge68" class="edge">
<title>Node24&#45;&gt;Node22</title>
<path fill="none" stroke="midnightblue" d="M1960.24,-375.33C2014.77,-368.23 2091.5,-354.7 2112,-333 2150.69,-292.04 2150.62,-257.68 2126,-207 2100.55,-154.62 2077.71,-145.97 2023,-126 1911.36,-85.24 1072.37,-100.56 954,-90 941.79,-88.91 928.67,-87.25 916.44,-85.5"/>
<polygon fill="midnightblue" stroke="midnightblue" points="916.83,-82.02 906.42,-84.01 915.8,-88.94 916.83,-82.02"/>
</g>
<!-- Node25 -->
<g id="node25" class="node">
<title>Node25</title>
<g id="a_node25"><a xlink:title=" ">
<polygon fill="white" stroke="#bfbfbf" points="1963,-216.5 1963,-242.5 2101,-242.5 2101,-216.5 1963,-216.5"/>
<text text-anchor="middle" x="2032" y="-225.7" font-family="Source Sans Pro" font-size="16.00">assimp/material.h</text>
</a>
</g>
</g>
<!-- Node24&#45;&gt;Node25 -->
<g id="edge47" class="edge">
<title>Node24&#45;&gt;Node25</title>
<path fill="none" stroke="midnightblue" d="M1960.16,-372.6C2003.68,-364.52 2058.36,-351.1 2072,-333 2091.06,-307.7 2068.65,-272.17 2050.49,-250.28"/>
<polygon fill="midnightblue" stroke="midnightblue" points="2053.03,-247.87 2043.84,-242.61 2047.74,-252.45 2053.03,-247.87"/>
</g>
<!-- Node26 -->
<g id="node26" class="node">
<title>Node26</title>
<g id="a_node26"><a xlink:title=" ">
<polygon fill="white" stroke="#bfbfbf" points="1616,-297.5 1616,-323.5 1738,-323.5 1738,-297.5 1616,-297.5"/>
<text text-anchor="middle" x="1677" y="-306.7" font-family="Source Sans Pro" font-size="16.00">assimp/scene.h</text>
</a>
</g>
</g>
<!-- Node24&#45;&gt;Node26 -->
<g id="edge48" class="edge">
<title>Node24&#45;&gt;Node26</title>
<path fill="none" stroke="midnightblue" d="M1864.15,-369.47C1825.83,-357.6 1767.13,-339.42 1725.71,-326.59"/>
<polygon fill="midnightblue" stroke="midnightblue" points="1726.69,-323.23 1716.1,-323.61 1724.62,-329.91 1726.69,-323.23"/>
</g>
<!-- Node27 -->
<g id="node27" class="node">
<title>Node27</title>
<g id="a_node27"><a xlink:title=" ">
<polygon fill="white" stroke="#bfbfbf" points="1756.5,-297.5 1756.5,-323.5 1887.5,-323.5 1887.5,-297.5 1756.5,-297.5"/>
<text text-anchor="middle" x="1822" y="-306.7" font-family="Source Sans Pro" font-size="16.00">assimp/texture.h</text>
</a>
</g>
</g>
<!-- Node24&#45;&gt;Node27 -->
<g id="edge49" class="edge">
<title>Node24&#45;&gt;Node27</title>
<path fill="none" stroke="midnightblue" d="M1888.89,-369.31C1876.46,-358.57 1858.16,-342.75 1843.84,-330.38"/>
<polygon fill="midnightblue" stroke="midnightblue" points="1845.8,-327.44 1835.95,-323.55 1841.23,-332.74 1845.8,-327.44"/>
</g>
<!-- Node28 -->
<g id="node28" class="node">
<title>Node28</title>
<g id="a_node28"><a xlink:href="_i_e_texture_8hpp.html" target="_top" xlink:title=" ">
<polygon fill="white" stroke="black" points="1905.5,-297.5 1905.5,-323.5 2062.5,-323.5 2062.5,-297.5 1905.5,-297.5"/>
<text text-anchor="middle" x="1984" y="-306.7" font-family="Source Sans Pro" font-size="16.00">Image/IETexture.hpp</text>
</a>
</g>
</g>
<!-- Node24&#45;&gt;Node28 -->
<g id="edge50" class="edge">
<title>Node24&#45;&gt;Node28</title>
<path fill="none" stroke="midnightblue" d="M1917.11,-369.31C1929.54,-358.57 1947.84,-342.75 1962.16,-330.38"/>
<polygon fill="midnightblue" stroke="midnightblue" points="1964.77,-332.74 1970.05,-323.55 1960.2,-327.44 1964.77,-332.74"/>
</g>
<!-- Node30 -->
<g id="node30" class="node">
<title>Node30</title>
<g id="a_node30"><a xlink:title=" ">
<polygon fill="white" stroke="#bfbfbf" points="1914,-135.5 1914,-161.5 2014,-161.5 2014,-135.5 1914,-135.5"/>
<text text-anchor="middle" x="1964" y="-144.7" font-family="Source Sans Pro" font-size="16.00">stb_image.h</text>
</a>
</g>
</g>
<!-- Node24&#45;&gt;Node30 -->
<g id="edge67" class="edge">
<title>Node24&#45;&gt;Node30</title>
<path fill="none" stroke="midnightblue" d="M1960.02,-381.23C2001.19,-377.94 2055.28,-366.77 2089,-333 2115.28,-306.68 2105.3,-288.89 2110,-252 2112.53,-232.16 2121.26,-223.53 2110,-207 2106.88,-202.42 2048.67,-180.4 2006.71,-164.99"/>
<polygon fill="midnightblue" stroke="midnightblue" points="2007.83,-161.67 1997.23,-161.52 2005.42,-168.24 2007.83,-161.67"/>
</g>
<!-- Node31 -->
<g id="node31" class="node">
<title>Node31</title>
<g id="a_node31"><a xlink:title=" ">
<polygon fill="white" stroke="#bfbfbf" points="1470,-297.5 1470,-323.5 1598,-323.5 1598,-297.5 1470,-297.5"/>
<text text-anchor="middle" x="1534" y="-306.7" font-family="Source Sans Pro" font-size="16.00">unordered_map</text>
</a>
</g>
</g>
<!-- Node24&#45;&gt;Node31 -->
<g id="edge70" class="edge">
<title>Node24&#45;&gt;Node31</title>
<path fill="none" stroke="midnightblue" d="M1845.85,-374.28C1785.93,-366.21 1689.24,-351.77 1607,-333 1598.67,-331.1 1589.89,-328.78 1581.41,-326.39"/>
<polygon fill="midnightblue" stroke="midnightblue" points="1582.23,-322.98 1571.65,-323.56 1580.28,-329.71 1582.23,-322.98"/>
</g>
<!-- Node32 -->
<g id="node32" class="node">
<title>Node32</title>
<g id="a_node32"><a xlink:title=" ">
<polygon fill="white" stroke="#bfbfbf" points="1348,-297.5 1348,-323.5 1452,-323.5 1452,-297.5 1348,-297.5"/>
<text text-anchor="middle" x="1400" y="-306.7" font-family="Source Sans Pro" font-size="16.00">glm/glm.hpp</text>
</a>
</g>
</g>
<!-- Node24&#45;&gt;Node32 -->
<g id="edge71" class="edge">
<title>Node24&#45;&gt;Node32</title>
<path fill="none" stroke="midnightblue" d="M1845.79,-379.41C1760.87,-375.37 1596.86,-363.96 1461,-333 1453.85,-331.37 1446.38,-329.17 1439.21,-326.8"/>
<polygon fill="midnightblue" stroke="midnightblue" points="1440.29,-323.47 1429.69,-323.5 1437.99,-330.09 1440.29,-323.47"/>
</g>
<!-- Node28&#45;&gt;Node5 -->
<g id="edge66" class="edge">
<title>Node28&#45;&gt;Node5</title>
<path fill="none" stroke="midnightblue" d="M1967.13,-297.45C1951.91,-286.3 1929.18,-268.93 1911,-252 1827.88,-174.6 1828.16,-133.36 1739,-63 1723.32,-50.62 1704.05,-39.61 1687.55,-31.23"/>
<polygon fill="midnightblue" stroke="midnightblue" points="1688.72,-27.9 1678.21,-26.6 1685.62,-34.17 1688.72,-27.9"/>
</g>
<!-- Node28&#45;&gt;Node7 -->
<g id="edge64" class="edge">
<title>Node28&#45;&gt;Node7</title>
<path fill="none" stroke="midnightblue" d="M1944.96,-297.44C1914.01,-287.19 1870.11,-271.12 1834,-252 1747.38,-206.12 1745.32,-158.93 1653,-126 1552.64,-90.21 1241.17,-80.8 1098.15,-78.35"/>
<polygon fill="midnightblue" stroke="midnightblue" points="1097.79,-74.85 1087.74,-78.18 1097.68,-81.85 1097.79,-74.85"/>
</g>
<!-- Node28&#45;&gt;Node10 -->
<g id="edge65" class="edge">
<title>Node28&#45;&gt;Node10</title>
<path fill="none" stroke="midnightblue" d="M1974.49,-297.32C1960.06,-277.24 1936.12,-236.49 1954,-207 1971.93,-177.42 2005.07,-200.58 2023,-171 2033.37,-153.9 2032.62,-143.53 2023,-126 1994.71,-74.43 1931.31,-43.28 1889.11,-27.49"/>
<polygon fill="midnightblue" stroke="midnightblue" points="1890.25,-24.18 1879.65,-24.07 1887.87,-30.76 1890.25,-24.18"/>
</g>
<!-- Node28&#45;&gt;Node25 -->
<g id="edge62" class="edge">
<title>Node28&#45;&gt;Node25</title>
<path fill="none" stroke="midnightblue" d="M1991.5,-297.16C1998.9,-284.98 2010.35,-266.14 2019.19,-251.59"/>
<polygon fill="midnightblue" stroke="midnightblue" points="2022.35,-253.12 2024.55,-242.76 2016.37,-249.49 2022.35,-253.12"/>
</g>
<!-- Node29 -->
<g id="node29" class="node">
<title>Node29</title>
<g id="a_node29"><a xlink:href="_i_e_image_8hpp.html" target="_top" xlink:title=" ">
<polygon fill="white" stroke="black" points="1523,-216.5 1523,-242.5 1625,-242.5 1625,-216.5 1523,-216.5"/>
<text text-anchor="middle" x="1574" y="-225.7" font-family="Source Sans Pro" font-size="16.00">IEImage.hpp</text>
</a>
</g>
</g>
<!-- Node28&#45;&gt;Node29 -->
<g id="edge51" class="edge">
<title>Node28&#45;&gt;Node29</title>
<path fill="none" stroke="midnightblue" d="M1938.1,-297.43C1924.88,-294.15 1910.41,-290.75 1897,-288 1799.94,-268.1 1774.41,-270.13 1677,-252 1663.42,-249.47 1648.87,-246.56 1635.11,-243.71"/>
<polygon fill="midnightblue" stroke="midnightblue" points="1635.76,-240.27 1625.26,-241.66 1634.33,-247.13 1635.76,-240.27"/>
</g>
<!-- Node28&#45;&gt;Node30 -->
<g id="edge63" class="edge">
<title>Node28&#45;&gt;Node30</title>
<path fill="none" stroke="midnightblue" d="M1963.32,-297.32C1948.47,-287.26 1929.61,-271.51 1921,-252 1912.93,-233.7 1914.69,-225.98 1921,-207 1925.66,-193 1935.2,-179.65 1944.11,-169.35"/>
<polygon fill="midnightblue" stroke="midnightblue" points="1946.86,-171.53 1951.02,-161.79 1941.69,-166.81 1946.86,-171.53"/>
</g>
<!-- Node29&#45;&gt;Node3 -->
<g id="edge52" class="edge">
<title>Node29&#45;&gt;Node3</title>
<path fill="none" stroke="midnightblue" d="M1522.79,-222.59C1417.74,-210.48 1174.9,-182.47 1022.16,-164.86"/>
<polygon fill="midnightblue" stroke="midnightblue" points="1022.11,-161.33 1011.78,-163.66 1021.31,-168.28 1022.11,-161.33"/>
</g>
<!-- Node29&#45;&gt;Node5 -->
<g id="edge60" class="edge">
<title>Node29&#45;&gt;Node5</title>
<path fill="none" stroke="midnightblue" d="M1625.4,-226.25C1664.69,-221.5 1716.48,-208.04 1743,-171 1771.87,-130.68 1745.8,-101.86 1715,-63 1705.52,-51.04 1692.45,-40.45 1680.59,-32.23"/>
<polygon fill="midnightblue" stroke="midnightblue" points="1682.51,-29.3 1672.24,-26.69 1678.63,-35.13 1682.51,-29.3"/>
</g>
<!-- Node29&#45;&gt;Node6 -->
<g id="edge61" class="edge">
<title>Node29&#45;&gt;Node6</title>
<path fill="none" stroke="midnightblue" d="M1602.11,-216.41C1620.25,-206.94 1642.38,-191.86 1653,-171 1662.07,-153.18 1666.29,-140.95 1653,-126 1578.78,-42.49 751.87,-19.52 559.72,-15.29"/>
<polygon fill="midnightblue" stroke="midnightblue" points="559.58,-11.79 549.51,-15.07 559.43,-18.78 559.58,-11.79"/>
</g>
<!-- Node29&#45;&gt;Node7 -->
<g id="edge57" class="edge">
<title>Node29&#45;&gt;Node7</title>
<path fill="none" stroke="midnightblue" d="M1593.74,-216.37C1608.18,-206.25 1626.64,-190.38 1635,-171 1642.93,-152.64 1648.57,-140.69 1635,-126 1599.22,-87.26 1251.96,-79.44 1097.94,-77.88"/>
<polygon fill="midnightblue" stroke="midnightblue" points="1097.67,-74.38 1087.63,-77.78 1097.6,-81.38 1097.67,-74.38"/>
</g>
<!-- Node29&#45;&gt;Node8 -->
<g id="edge53" class="edge">
<title>Node29&#45;&gt;Node8</title>
<path fill="none" stroke="midnightblue" d="M1522.8,-219.41C1463.13,-208.64 1361.66,-189.79 1275,-171 1262.86,-168.37 1249.85,-165.34 1237.61,-162.4"/>
<polygon fill="midnightblue" stroke="midnightblue" points="1238.11,-158.92 1227.56,-159.97 1236.46,-165.72 1238.11,-158.92"/>
</g>
<!-- Node29&#45;&gt;Node10 -->
<g id="edge58" class="edge">
<title>Node29&#45;&gt;Node10</title>
<path fill="none" stroke="midnightblue" d="M1625.14,-221.82C1665.5,-214.57 1721.69,-199.9 1763,-171 1799.93,-145.17 1803.32,-130.04 1824,-90 1832.82,-72.92 1839.16,-51.99 1843.1,-36.5"/>
<polygon fill="midnightblue" stroke="midnightblue" points="1846.51,-37.3 1845.45,-26.76 1839.7,-35.66 1846.51,-37.3"/>
</g>
<!-- Node29&#45;&gt;Node11 -->
<g id="edge55" class="edge">
<title>Node29&#45;&gt;Node11</title>
<path fill="none" stroke="midnightblue" d="M1567.59,-216.16C1561.34,-204.1 1551.68,-185.49 1544.16,-171"/>
<polygon fill="midnightblue" stroke="midnightblue" points="1547.07,-169.02 1539.36,-161.76 1540.86,-172.25 1547.07,-169.02"/>
</g>
<!-- Node29&#45;&gt;Node12 -->
<g id="edge54" class="edge">
<title>Node29&#45;&gt;Node12</title>
<path fill="none" stroke="midnightblue" d="M1539.95,-216.33C1501.31,-202.52 1438.21,-179.96 1396.15,-164.92"/>
<polygon fill="midnightblue" stroke="midnightblue" points="1397.32,-161.63 1386.72,-161.55 1394.96,-168.22 1397.32,-161.63"/>
</g>
<!-- Node29&#45;&gt;Node13 -->
<g id="edge59" class="edge">
<title>Node29&#45;&gt;Node13</title>
<path fill="none" stroke="midnightblue" d="M1522.9,-225.34C1349.95,-214.6 795.33,-179.66 758,-171 751.99,-169.61 745.77,-167.62 739.81,-165.42"/>
<polygon fill="midnightblue" stroke="midnightblue" points="740.67,-161.99 730.08,-161.56 738.09,-168.5 740.67,-161.99"/>
</g>
<!-- Node29&#45;&gt;Node30 -->
<g id="edge56" class="edge">
<title>Node29&#45;&gt;Node30</title>
<path fill="none" stroke="midnightblue" d="M1625.04,-221.91C1689.64,-213.02 1804.07,-195.43 1900,-171 1907.11,-169.19 1914.56,-166.98 1921.77,-164.68"/>
<polygon fill="midnightblue" stroke="midnightblue" points="1922.99,-167.96 1931.39,-161.5 1920.8,-161.31 1922.99,-167.96"/>
</g>
<!-- Node33&#45;&gt;Node5 -->
<g id="edge76" class="edge">
<title>Node33&#45;&gt;Node5</title>
<path fill="none" stroke="midnightblue" d="M1248.53,-369.29C1246.85,-349.04 1246.85,-308.69 1270,-288 1330.61,-233.84 1567.05,-298.09 1634,-252 1709.28,-200.18 1755.67,-144.84 1715,-63 1708.62,-50.17 1697.05,-39.82 1685.48,-32.03"/>
<polygon fill="midnightblue" stroke="midnightblue" points="1687.06,-28.89 1676.72,-26.57 1683.35,-34.83 1687.06,-28.89"/>
</g>
<!-- Node33&#45;&gt;Node12 -->
<g id="edge74" class="edge">
<title>Node33&#45;&gt;Node12</title>
<path fill="none" stroke="midnightblue" d="M1244.47,-369.31C1237.02,-351.09 1225.79,-315.9 1236,-288 1254.6,-237.15 1301.03,-192.1 1329.49,-168.02"/>
<polygon fill="midnightblue" stroke="midnightblue" points="1331.88,-170.59 1337.35,-161.51 1327.42,-165.19 1331.88,-170.59"/>
</g>
<!-- Node33&#45;&gt;Node32 -->
<g id="edge73" class="edge">
<title>Node33&#45;&gt;Node32</title>
<path fill="none" stroke="midnightblue" d="M1275.79,-369.47C1300.36,-358 1337.56,-340.64 1364.85,-327.9"/>
<polygon fill="midnightblue" stroke="midnightblue" points="1366.47,-331.01 1374.05,-323.61 1363.51,-324.67 1366.47,-331.01"/>
</g>
<!-- Node34 -->
<g id="node34" class="node">
<title>Node34</title>
<g id="a_node34"><a xlink:title=" ">
<polygon fill="white" stroke="#bfbfbf" points="1278.5,-297.5 1278.5,-323.5 1329.5,-323.5 1329.5,-297.5 1278.5,-297.5"/>
<text text-anchor="middle" x="1304" y="-306.7" font-family="Source Sans Pro" font-size="16.00">array</text>
</a>
</g>
</g>
<!-- Node33&#45;&gt;Node34 -->
<g id="edge75" class="edge">
<title>Node33&#45;&gt;Node34</title>
<path fill="none" stroke="midnightblue" d="M1259.41,-369.31C1267.38,-358.97 1278.98,-343.93 1288.36,-331.78"/>
<polygon fill="midnightblue" stroke="midnightblue" points="1291.36,-333.61 1294.7,-323.55 1285.82,-329.33 1291.36,-333.61"/>
</g>
</g>
</svg>
