<?xml version="1.0" encoding="UTF-8" standalone="no"?>
<!DOCTYPE svg PUBLIC "-//W3C//DTD SVG 1.1//EN"
 "http://www.w3.org/Graphics/SVG/1.1/DTD/svg11.dtd">
<!-- Generated by graphviz version 2.43.0 (0)
 -->
<!-- Title: Illumination&#45;Engine/src/GraphicsModule/IEVersion.cpp Pages: 1 -->
<svg width="315pt" height="197pt"
 viewBox="0.00 0.00 315.00 197.00" xmlns="http://www.w3.org/2000/svg" xmlns:xlink="http://www.w3.org/1999/xlink">
<g id="graph0" class="graph" transform="scale(1 1) rotate(0) translate(4 193)">
<title>Illumination&#45;Engine/src/GraphicsModule/IEVersion.cpp</title>
<polygon fill="white" stroke="transparent" points="-4,4 -4,-193 311,-193 311,4 -4,4"/>
<!-- Node1 -->
<g id="node1" class="node">
<title>Node1</title>
<g id="a_node1"><a xlink:title=" ">
<polygon fill="#bfbfbf" stroke="black" points="98,-126.5 98,-188.5 255,-188.5 255,-126.5 98,-126.5"/>
<text text-anchor="start" x="106" y="-171.7" font-family="Source Sans Pro" font-size="16.00">Illumination&#45;Engine</text>
<text text-anchor="start" x="106" y="-153.7" font-family="Source Sans Pro" font-size="16.00">/src/GraphicsModule</text>
<text text-anchor="middle" x="176.5" y="-135.7" font-family="Source Sans Pro" font-size="16.00">/IEVersion.cpp</text>
</a>
</g>
</g>
<!-- Node2 -->
<g id="node2" class="node">
<title>Node2</title>
<g id="a_node2"><a xlink:href="_i_e_version_8hpp.html" target="_top" xlink:title=" ">
<polygon fill="white" stroke="black" points="53.5,-63.5 53.5,-89.5 163.5,-89.5 163.5,-63.5 53.5,-63.5"/>
<text text-anchor="middle" x="108.5" y="-72.7" font-family="Source Sans Pro" font-size="16.00">IEVersion.hpp</text>
</a>
</g>
</g>
<!-- Node1&#45;&gt;Node2 -->
<g id="edge1" class="edge">
<title>Node1&#45;&gt;Node2</title>
<path fill="none" stroke="midnightblue" d="M150.4,-126.18C142.12,-116.55 133.16,-106.15 125.67,-97.45"/>
<polygon fill="midnightblue" stroke="midnightblue" points="128.18,-95 119,-89.7 122.87,-99.57 128.18,-95"/>
</g>
<!-- Node6 -->
<g id="node6" class="node">
<title>Node6</title>
<g id="a_node6"><a xlink:title=" ">
<polygon fill="white" stroke="#bfbfbf" points="182,-63.5 182,-89.5 307,-89.5 307,-63.5 182,-63.5"/>
<text text-anchor="middle" x="244.5" y="-72.7" font-family="Source Sans Pro" font-size="16.00">vulkan/vulkan.h</text>
</a>
</g>
</g>
<!-- Node1&#45;&gt;Node6 -->
<g id="edge5" class="edge">
<title>Node1&#45;&gt;Node6</title>
<path fill="none" stroke="midnightblue" d="M202.6,-126.18C210.88,-116.55 219.84,-106.15 227.33,-97.45"/>
<polygon fill="midnightblue" stroke="midnightblue" points="230.13,-99.57 234,-89.7 224.82,-95 230.13,-99.57"/>
</g>
<!-- Node3 -->
<g id="node3" class="node">
<title>Node3</title>
<g id="a_node3"><a xlink:title=" ">
<polygon fill="white" stroke="#bfbfbf" points="0,-0.5 0,-26.5 63,-26.5 63,-0.5 0,-0.5"/>
<text text-anchor="middle" x="31.5" y="-9.7" font-family="Source Sans Pro" font-size="16.00">cstdint</text>
</a>
</g>
</g>
<!-- Node2&#45;&gt;Node3 -->
<g id="edge2" class="edge">
<title>Node2&#45;&gt;Node3</title>
<path fill="none" stroke="midnightblue" d="M93.29,-63.45C82.32,-54.76 67.31,-42.87 54.83,-32.99"/>
<polygon fill="midnightblue" stroke="midnightblue" points="56.69,-29.99 46.68,-26.53 52.35,-35.48 56.69,-29.99"/>
</g>
<!-- Node4 -->
<g id="node4" class="node">
<title>Node4</title>
<g id="a_node4"><a xlink:title=" ">
<polygon fill="white" stroke="#bfbfbf" points="81,-0.5 81,-26.5 136,-26.5 136,-0.5 81,-0.5"/>
<text text-anchor="middle" x="108.5" y="-9.7" font-family="Source Sans Pro" font-size="16.00">string</text>
</a>
</g>
</g>
<!-- Node2&#45;&gt;Node4 -->
<g id="edge3" class="edge">
<title>Node2&#45;&gt;Node4</title>
<path fill="none" stroke="midnightblue" d="M108.5,-63.45C108.5,-55.85 108.5,-45.79 108.5,-36.78"/>
<polygon fill="midnightblue" stroke="midnightblue" points="112,-36.53 108.5,-26.53 105,-36.53 112,-36.53"/>
</g>
<!-- Node5 -->
<g id="node5" class="node">
<title>Node5</title>
<g id="a_node5"><a xlink:title=" ">
<polygon fill="white" stroke="#bfbfbf" points="154,-0.5 154,-26.5 213,-26.5 213,-0.5 154,-0.5"/>
<text text-anchor="middle" x="183.5" y="-9.7" font-family="Source Sans Pro" font-size="16.00">vector</text>
</a>
</g>
</g>
<!-- Node2&#45;&gt;Node5 -->
<g id="edge4" class="edge">
<title>Node2&#45;&gt;Node5</title>
<path fill="none" stroke="midnightblue" d="M123.32,-63.45C134,-54.76 148.62,-42.87 160.77,-32.99"/>
<polygon fill="midnightblue" stroke="midnightblue" points="163.16,-35.55 168.71,-26.53 158.75,-30.12 163.16,-35.55"/>
</g>
</g>
</svg>
