<?xml version="1.0" encoding="UTF-8" standalone="no"?>
<!DOCTYPE svg PUBLIC "-//W3C//DTD SVG 1.1//EN"
 "http://www.w3.org/Graphics/SVG/1.1/DTD/svg11.dtd">
<!-- Generated by graphviz version 2.43.0 (0)
 -->
<!-- Title: Illumination&#45;Engine/src/Core/LogModule/IELogger.cpp Pages: 1 -->
<svg width="661pt" height="215pt"
 viewBox="0.00 0.00 661.00 215.00" xmlns="http://www.w3.org/2000/svg" xmlns:xlink="http://www.w3.org/1999/xlink">
<g id="graph0" class="graph" transform="scale(1 1) rotate(0) translate(4 211)">
<title>Illumination&#45;Engine/src/Core/LogModule/IELogger.cpp</title>
<polygon fill="white" stroke="transparent" points="-4,4 -4,-211 657,-211 657,4 -4,4"/>
<!-- Node1 -->
<g id="node1" class="node">
<title>Node1</title>
<g id="a_node1"><a xlink:title=" ">
<polygon fill="#bfbfbf" stroke="black" points="306.5,-144.5 306.5,-206.5 465.5,-206.5 465.5,-144.5 306.5,-144.5"/>
<text text-anchor="start" x="314.5" y="-189.7" font-family="Source Sans Pro" font-size="16.00">Illumination&#45;Engine</text>
<text text-anchor="start" x="314.5" y="-171.7" font-family="Source Sans Pro" font-size="16.00">/src/Core/LogModule</text>
<text text-anchor="middle" x="386" y="-153.7" font-family="Source Sans Pro" font-size="16.00">/IELogger.cpp</text>
</a>
</g>
</g>
<!-- Node2 -->
<g id="node2" class="node">
<title>Node2</title>
<g id="a_node2"><a xlink:href="_i_e_logger_8hpp.html" target="_top" xlink:title=" ">
<polygon fill="white" stroke="black" points="171.5,-72.5 171.5,-98.5 276.5,-98.5 276.5,-72.5 171.5,-72.5"/>
<text text-anchor="middle" x="224" y="-81.7" font-family="Source Sans Pro" font-size="16.00">IELogger.hpp</text>
</a>
</g>
</g>
<!-- Node1&#45;&gt;Node2 -->
<g id="edge1" class="edge">
<title>Node1&#45;&gt;Node2</title>
<path fill="none" stroke="midnightblue" d="M330.7,-144.46C305.47,-130.76 276.53,-115.03 255.16,-103.43"/>
<polygon fill="midnightblue" stroke="midnightblue" points="256.66,-100.26 246.2,-98.56 253.32,-106.41 256.66,-100.26"/>
</g>
<!-- Node6 -->
<g id="node6" class="node">
<title>Node6</title>
<g id="a_node6"><a xlink:title=" ">
<polygon fill="white" stroke="#bfbfbf" points="295,-72.5 295,-98.5 477,-98.5 477,-72.5 295,-72.5"/>
<text text-anchor="middle" x="386" y="-81.7" font-family="Source Sans Pro" font-size="16.00">include/spdlog/spdlog.h</text>
</a>
</g>
</g>
<!-- Node1&#45;&gt;Node6 -->
<g id="edge5" class="edge">
<title>Node1&#45;&gt;Node6</title>
<path fill="none" stroke="midnightblue" d="M386,-144.22C386,-132.7 386,-119.8 386,-109.12"/>
<polygon fill="midnightblue" stroke="midnightblue" points="389.5,-108.94 386,-98.94 382.5,-108.94 389.5,-108.94"/>
</g>
<!-- Node7 -->
<g id="node7" class="node">
<title>Node7</title>
<g id="a_node7"><a xlink:title=" ">
<polygon fill="white" stroke="#bfbfbf" points="495,-63.5 495,-107.5 653,-107.5 653,-63.5 495,-63.5"/>
<text text-anchor="start" x="503" y="-90.7" font-family="Source Sans Pro" font-size="16.00">include/spdlog/sinks</text>
<text text-anchor="middle" x="574" y="-72.7" font-family="Source Sans Pro" font-size="16.00">/basic_file_sink.h</text>
</a>
</g>
</g>
<!-- Node1&#45;&gt;Node7 -->
<g id="edge6" class="edge">
<title>Node1&#45;&gt;Node7</title>
<path fill="none" stroke="midnightblue" d="M450.17,-144.46C472.88,-133.83 498.18,-121.99 519.97,-111.79"/>
<polygon fill="midnightblue" stroke="midnightblue" points="521.5,-114.94 529.07,-107.53 518.53,-108.6 521.5,-114.94"/>
</g>
<!-- Node3 -->
<g id="node3" class="node">
<title>Node3</title>
<g id="a_node3"><a xlink:title=" ">
<polygon fill="white" stroke="#bfbfbf" points="0,-0.5 0,-26.5 178,-26.5 178,-0.5 0,-0.5"/>
<text text-anchor="middle" x="89" y="-9.7" font-family="Source Sans Pro" font-size="16.00">include/spdlog/logger.h</text>
</a>
</g>
</g>
<!-- Node2&#45;&gt;Node3 -->
<g id="edge2" class="edge">
<title>Node2&#45;&gt;Node3</title>
<path fill="none" stroke="midnightblue" d="M200.79,-72.47C178.87,-61.1 145.78,-43.94 121.28,-31.24"/>
<polygon fill="midnightblue" stroke="midnightblue" points="122.84,-28.11 112.36,-26.61 119.62,-34.32 122.84,-28.11"/>
</g>
<!-- Node4 -->
<g id="node4" class="node">
<title>Node4</title>
<g id="a_node4"><a xlink:title=" ">
<polygon fill="white" stroke="#bfbfbf" points="196.5,-0.5 196.5,-26.5 251.5,-26.5 251.5,-0.5 196.5,-0.5"/>
<text text-anchor="middle" x="224" y="-9.7" font-family="Source Sans Pro" font-size="16.00">string</text>
</a>
</g>
</g>
<!-- Node2&#45;&gt;Node4 -->
<g id="edge3" class="edge">
<title>Node2&#45;&gt;Node4</title>
<path fill="none" stroke="midnightblue" d="M224,-72.31C224,-62.47 224,-48.38 224,-36.57"/>
<polygon fill="midnightblue" stroke="midnightblue" points="227.5,-36.55 224,-26.55 220.5,-36.55 227.5,-36.55"/>
</g>
<!-- Node5 -->
<g id="node5" class="node">
<title>Node5</title>
<g id="a_node5"><a xlink:title=" ">
<polygon fill="white" stroke="#bfbfbf" points="270,-0.5 270,-26.5 344,-26.5 344,-0.5 270,-0.5"/>
<text text-anchor="middle" x="307" y="-9.7" font-family="Source Sans Pro" font-size="16.00">memory</text>
</a>
</g>
</g>
<!-- Node2&#45;&gt;Node5 -->
<g id="edge4" class="edge">
<title>Node2&#45;&gt;Node5</title>
<path fill="none" stroke="midnightblue" d="M238.46,-72.31C251.31,-61.47 270.3,-45.46 285.03,-33.03"/>
<polygon fill="midnightblue" stroke="midnightblue" points="287.32,-35.68 292.71,-26.55 282.81,-30.32 287.32,-35.68"/>
</g>
</g>
</svg>
