<?xml version="1.0" encoding="UTF-8" standalone="no"?>
<!DOCTYPE svg PUBLIC "-//W3C//DTD SVG 1.1//EN"
 "http://www.w3.org/Graphics/SVG/1.1/DTD/svg11.dtd">
<!-- Generated by graphviz version 2.43.0 (0)
 -->
<!-- Title: Illumination&#45;Engine/src/GraphicsModule/RenderPass/IERenderPass.hpp Pages: 1 -->
<svg width="2490pt" height="602pt"
 viewBox="0.00 0.00 2489.85 602.00" xmlns="http://www.w3.org/2000/svg" xmlns:xlink="http://www.w3.org/1999/xlink">
<g id="graph0" class="graph" transform="scale(1 1) rotate(0) translate(4 598)">
<title>Illumination&#45;Engine/src/GraphicsModule/RenderPass/IERenderPass.hpp</title>
<polygon fill="white" stroke="transparent" points="-4,4 -4,-598 2485.85,-598 2485.85,4 -4,4"/>
<!-- Node1 -->
<g id="node1" class="node">
<title>Node1</title>
<g id="a_node1"><a xlink:title=" ">
<polygon fill="#bfbfbf" stroke="black" points="1169,-531.5 1169,-593.5 1397,-593.5 1397,-531.5 1169,-531.5"/>
<text text-anchor="start" x="1177" y="-576.7" font-family="Source Sans Pro" font-size="16.00">Illumination&#45;Engine</text>
<text text-anchor="start" x="1177" y="-558.7" font-family="Source Sans Pro" font-size="16.00">/src/GraphicsModule</text>
<text text-anchor="middle" x="1283" y="-540.7" font-family="Source Sans Pro" font-size="16.00">/RenderPass/IERenderPass.hpp</text>
</a>
</g>
</g>
<!-- Node2 -->
<g id="node2" class="node">
<title>Node2</title>
<g id="a_node2"><a xlink:href="_i_e_command_buffer_8hpp.html" target="_top" xlink:title=" ">
<polygon fill="white" stroke="black" points="1399,-468.5 1399,-494.5 1689,-494.5 1689,-468.5 1399,-468.5"/>
<text text-anchor="middle" x="1544" y="-477.7" font-family="Source Sans Pro" font-size="16.00">CommandBuffer/IECommandBuffer.hpp</text>
</a>
</g>
</g>
<!-- Node1&#45;&gt;Node2 -->
<g id="edge1" class="edge">
<title>Node1&#45;&gt;Node2</title>
<path fill="none" stroke="midnightblue" d="M1382.42,-531.41C1420.63,-519.84 1462.63,-507.13 1494.22,-497.57"/>
<polygon fill="midnightblue" stroke="midnightblue" points="1495.54,-500.82 1504.1,-494.58 1493.51,-494.12 1495.54,-500.82"/>
</g>
<!-- Node7 -->
<g id="node7" class="node">
<title>Node7</title>
<g id="a_node7"><a xlink:title=" ">
<polygon fill="white" stroke="#bfbfbf" points="817.5,-0.5 817.5,-26.5 876.5,-26.5 876.5,-0.5 817.5,-0.5"/>
<text text-anchor="middle" x="847" y="-9.7" font-family="Source Sans Pro" font-size="16.00">vector</text>
</a>
</g>
</g>
<!-- Node1&#45;&gt;Node7 -->
<g id="edge86" class="edge">
<title>Node1&#45;&gt;Node7</title>
<path fill="none" stroke="midnightblue" d="M1168.99,-556.24C904.59,-542.53 272,-500.34 272,-410.5 272,-410.5 272,-410.5 272,-327.5 272,-194.49 296.58,-129.11 412,-63 445.91,-43.58 706.23,-24.05 807.17,-17.13"/>
<polygon fill="midnightblue" stroke="midnightblue" points="807.54,-20.61 817.28,-16.44 807.06,-13.63 807.54,-20.61"/>
</g>
<!-- Node8 -->
<g id="node8" class="node">
<title>Node8</title>
<g id="a_node8"><a xlink:title=" ">
<polygon fill="white" stroke="#bfbfbf" points="1783.5,-72.5 1783.5,-98.5 1908.5,-98.5 1908.5,-72.5 1783.5,-72.5"/>
<text text-anchor="middle" x="1846" y="-81.7" font-family="Source Sans Pro" font-size="16.00">vulkan/vulkan.h</text>
</a>
</g>
</g>
<!-- Node1&#45;&gt;Node8 -->
<g id="edge83" class="edge">
<title>Node1&#45;&gt;Node8</title>
<path fill="none" stroke="midnightblue" d="M1397.47,-555.33C1650.96,-540.49 2241.97,-499.01 2301,-432 2437.99,-276.48 2048.24,-144.66 1900.34,-101.46"/>
<polygon fill="midnightblue" stroke="midnightblue" points="1901.12,-98.04 1890.54,-98.63 1899.17,-104.77 1901.12,-98.04"/>
</g>
<!-- Node11 -->
<g id="node11" class="node">
<title>Node11</title>
<g id="a_node11"><a xlink:title=" ">
<polygon fill="white" stroke="#bfbfbf" points="1354.5,-0.5 1354.5,-26.5 1417.5,-26.5 1417.5,-0.5 1354.5,-0.5"/>
<text text-anchor="middle" x="1386" y="-9.7" font-family="Source Sans Pro" font-size="16.00">cstdint</text>
</a>
</g>
</g>
<!-- Node1&#45;&gt;Node11 -->
<g id="edge84" class="edge">
<title>Node1&#45;&gt;Node11</title>
<path fill="none" stroke="midnightblue" d="M1397.14,-558.94C1696.08,-550.73 2479,-518.87 2479,-410.5 2479,-410.5 2479,-410.5 2479,-165.5 2479,-122.4 2513.11,-120.77 2339,-63 2251.79,-34.06 1600,-18.86 1427.68,-15.31"/>
<polygon fill="midnightblue" stroke="midnightblue" points="1427.57,-11.81 1417.5,-15.11 1427.43,-18.81 1427.57,-11.81"/>
</g>
<!-- Node14 -->
<g id="node14" class="node">
<title>Node14</title>
<g id="a_node14"><a xlink:title=" ">
<polygon fill="white" stroke="#bfbfbf" points="418,-153.5 418,-179.5 504,-179.5 504,-153.5 418,-153.5"/>
<text text-anchor="middle" x="461" y="-162.7" font-family="Source Sans Pro" font-size="16.00">functional</text>
</a>
</g>
</g>
<!-- Node1&#45;&gt;Node14 -->
<g id="edge85" class="edge">
<title>Node1&#45;&gt;Node14</title>
<path fill="none" stroke="midnightblue" d="M1168.65,-550.92C953.07,-529.42 508,-476.98 508,-410.5 508,-410.5 508,-410.5 508,-327.5 508,-281.17 503.5,-269.01 489,-225 484.9,-212.57 478.64,-199.39 473.08,-188.79"/>
<polygon fill="midnightblue" stroke="midnightblue" points="476.09,-187 468.25,-179.88 469.93,-190.34 476.09,-187"/>
</g>
<!-- Node22 -->
<g id="node22" class="node">
<title>Node22</title>
<g id="a_node22"><a xlink:href="_i_e_framebuffer_8hpp.html" target="_top" xlink:title=" ">
<polygon fill="white" stroke="black" points="767.5,-306.5 767.5,-350.5 978.5,-350.5 978.5,-306.5 767.5,-306.5"/>
<text text-anchor="start" x="775.5" y="-333.7" font-family="Source Sans Pro" font-size="16.00">GraphicsModule/RenderPass</text>
<text text-anchor="middle" x="873" y="-315.7" font-family="Source Sans Pro" font-size="16.00">/IEFramebuffer.hpp</text>
</a>
</g>
</g>
<!-- Node1&#45;&gt;Node22 -->
<g id="edge82" class="edge">
<title>Node1&#45;&gt;Node22</title>
<path fill="none" stroke="midnightblue" d="M1229.82,-531.41C1148.83,-485.58 995.9,-399.05 919.25,-355.67"/>
<polygon fill="midnightblue" stroke="midnightblue" points="920.72,-352.48 910.29,-350.6 917.27,-358.57 920.72,-352.48"/>
</g>
<!-- Node3 -->
<g id="node3" class="node">
<title>Node3</title>
<g id="a_node3"><a xlink:href="_i_e_buffer_8hpp.html" target="_top" xlink:title=" ">
<polygon fill="white" stroke="black" points="1414.5,-234.5 1414.5,-260.5 1561.5,-260.5 1561.5,-234.5 1414.5,-234.5"/>
<text text-anchor="middle" x="1488" y="-243.7" font-family="Source Sans Pro" font-size="16.00">Buffer/IEBuffer.hpp</text>
</a>
</g>
</g>
<!-- Node2&#45;&gt;Node3 -->
<g id="edge2" class="edge">
<title>Node2&#45;&gt;Node3</title>
<path fill="none" stroke="midnightblue" d="M1451.43,-468.46C1407.17,-460.66 1360.83,-448.78 1347,-432 1311.36,-388.77 1311.52,-352.35 1343,-306 1357.37,-284.84 1380.88,-271.47 1404.83,-263.01"/>
<polygon fill="midnightblue" stroke="midnightblue" points="1405.94,-266.33 1414.36,-259.9 1403.77,-259.68 1405.94,-266.33"/>
</g>
<!-- Node2&#45;&gt;Node7 -->
<g id="edge80" class="edge">
<title>Node2&#45;&gt;Node7</title>
<path fill="none" stroke="midnightblue" d="M1689.01,-480.77C1849.35,-479.1 2096.21,-470.1 2181,-432 2240.78,-405.14 2287,-395.03 2287,-329.5 2287,-329.5 2287,-329.5 2287,-165.5 2287,-108.79 2261.19,-89.4 2211,-63 2180.92,-47.18 1108.63,-20.75 886.88,-15.44"/>
<polygon fill="midnightblue" stroke="midnightblue" points="886.76,-11.94 876.68,-15.2 886.59,-18.94 886.76,-11.94"/>
</g>
<!-- Node2&#45;&gt;Node8 -->
<g id="edge81" class="edge">
<title>Node2&#45;&gt;Node8</title>
<path fill="none" stroke="midnightblue" d="M1561.7,-468.35C1574.01,-459.31 1590.25,-446.13 1602,-432 1643.1,-382.58 1627.38,-351.28 1673,-306 1696.44,-282.73 1710.9,-288.88 1738,-270 1783.25,-238.47 1805.67,-237.46 1832,-189 1845.58,-164 1847.71,-130.7 1847.37,-108.94"/>
<polygon fill="midnightblue" stroke="midnightblue" points="1850.86,-108.59 1847.01,-98.72 1843.86,-108.83 1850.86,-108.59"/>
</g>
<!-- Node15 -->
<g id="node15" class="node">
<title>Node15</title>
<g id="a_node15"><a xlink:href="_i_e_copy_buffer_to_image_info_8hpp.html" target="_top" xlink:title=" ">
<polygon fill="white" stroke="black" points="1351.5,-306.5 1351.5,-350.5 1624.5,-350.5 1624.5,-306.5 1351.5,-306.5"/>
<text text-anchor="start" x="1359.5" y="-333.7" font-family="Source Sans Pro" font-size="16.00">CommandBuffer/Dependency</text>
<text text-anchor="middle" x="1488" y="-315.7" font-family="Source Sans Pro" font-size="16.00">Structs/IECopyBufferToImageInfo.hpp</text>
</a>
</g>
</g>
<!-- Node2&#45;&gt;Node15 -->
<g id="edge20" class="edge">
<title>Node2&#45;&gt;Node15</title>
<path fill="none" stroke="midnightblue" d="M1558.77,-468.19C1568.26,-459.27 1579.77,-446.29 1585,-432 1591.87,-413.22 1594.9,-404.38 1585,-387 1577.68,-374.15 1566.23,-363.87 1553.72,-355.77"/>
<polygon fill="midnightblue" stroke="midnightblue" points="1555.31,-352.65 1544.94,-350.51 1551.72,-358.65 1555.31,-352.65"/>
</g>
<!-- Node16 -->
<g id="node16" class="node">
<title>Node16</title>
<g id="a_node16"><a xlink:href="_i_e_image_8hpp.html" target="_top" xlink:title=" ">
<polygon fill="white" stroke="black" points="962.5,-234.5 962.5,-260.5 1111.5,-260.5 1111.5,-234.5 962.5,-234.5"/>
<text text-anchor="middle" x="1037" y="-243.7" font-family="Source Sans Pro" font-size="16.00">Image/IEImage.hpp</text>
</a>
</g>
</g>
<!-- Node2&#45;&gt;Node16 -->
<g id="edge76" class="edge">
<title>Node2&#45;&gt;Node16</title>
<path fill="none" stroke="midnightblue" d="M1451.24,-468.49C1409.44,-461.09 1360.13,-449.56 1318,-432 1212.91,-388.19 1104.53,-304.35 1059.11,-267.11"/>
<polygon fill="midnightblue" stroke="midnightblue" points="1061.07,-264.19 1051.13,-260.52 1056.61,-269.59 1061.07,-264.19"/>
</g>
<!-- Node18 -->
<g id="node18" class="node">
<title>Node18</title>
<g id="a_node18"><a xlink:href="_i_e_dependency_info_8hpp.html" target="_top" xlink:title=" ">
<polygon fill="white" stroke="black" points="1948,-387.5 1948,-431.5 2172,-431.5 2172,-387.5 1948,-387.5"/>
<text text-anchor="start" x="1956" y="-414.7" font-family="Source Sans Pro" font-size="16.00">CommandBuffer/Dependency</text>
<text text-anchor="middle" x="2060" y="-396.7" font-family="Source Sans Pro" font-size="16.00">Structs/IEDependencyInfo.hpp</text>
</a>
</g>
</g>
<!-- Node2&#45;&gt;Node18 -->
<g id="edge35" class="edge">
<title>Node2&#45;&gt;Node18</title>
<path fill="none" stroke="midnightblue" d="M1654.89,-468.5C1731.62,-459.81 1836.34,-447.2 1937.84,-432.14"/>
<polygon fill="midnightblue" stroke="midnightblue" points="1938.59,-435.56 1947.97,-430.63 1937.56,-428.64 1938.59,-435.56"/>
</g>
<!-- Node21 -->
<g id="node21" class="node">
<title>Node21</title>
<g id="a_node21"><a xlink:href="_i_e_render_pass_begin_info_8hpp.html" target="_top" xlink:title=" ">
<polygon fill="white" stroke="black" points="1674,-387.5 1674,-431.5 1930,-431.5 1930,-387.5 1674,-387.5"/>
<text text-anchor="start" x="1682" y="-414.7" font-family="Source Sans Pro" font-size="16.00">CommandBuffer/Dependency</text>
<text text-anchor="middle" x="1802" y="-396.7" font-family="Source Sans Pro" font-size="16.00">Structs/IERenderPassBeginInfo.hpp</text>
</a>
</g>
</g>
<!-- Node2&#45;&gt;Node21 -->
<g id="edge47" class="edge">
<title>Node2&#45;&gt;Node21</title>
<path fill="none" stroke="midnightblue" d="M1588.35,-468.47C1622.97,-459.07 1672.15,-445.73 1714.6,-434.21"/>
<polygon fill="midnightblue" stroke="midnightblue" points="1715.65,-437.55 1724.39,-431.56 1713.82,-430.8 1715.65,-437.55"/>
</g>
<!-- Node23 -->
<g id="node23" class="node">
<title>Node23</title>
<g id="a_node23"><a xlink:href="_i_e_pipeline_8hpp.html" target="_top" xlink:title=" ">
<polygon fill="white" stroke="black" points="558,-306.5 558,-350.5 738,-350.5 738,-306.5 558,-306.5"/>
<text text-anchor="start" x="566" y="-333.7" font-family="Source Sans Pro" font-size="16.00">GraphicsModule/Shader</text>
<text text-anchor="middle" x="648" y="-315.7" font-family="Source Sans Pro" font-size="16.00">/IEPipeline.hpp</text>
</a>
</g>
</g>
<!-- Node2&#45;&gt;Node23 -->
<g id="edge54" class="edge">
<title>Node2&#45;&gt;Node23</title>
<path fill="none" stroke="midnightblue" d="M1424.64,-468.47C1345.63,-459.88 1239.85,-447.18 1147,-432 1007.84,-409.25 848.46,-375.07 748.03,-352.54"/>
<polygon fill="midnightblue" stroke="midnightblue" points="748.72,-349.1 738.19,-350.32 747.18,-355.93 748.72,-349.1"/>
</g>
<!-- Node30 -->
<g id="node30" class="node">
<title>Node30</title>
<g id="a_node30"><a xlink:href="_i_e_dependent_8hpp.html" target="_top" xlink:title=" ">
<polygon fill="white" stroke="black" points="2315,-153.5 2315,-179.5 2451,-179.5 2451,-153.5 2315,-153.5"/>
<text text-anchor="middle" x="2383" y="-162.7" font-family="Source Sans Pro" font-size="16.00">IEDependent.hpp</text>
</a>
</g>
</g>
<!-- Node2&#45;&gt;Node30 -->
<g id="edge73" class="edge">
<title>Node2&#45;&gt;Node30</title>
<path fill="none" stroke="midnightblue" d="M1689.22,-479.94C1895.64,-477.84 2254.22,-468.84 2301,-432 2377.36,-371.87 2384.25,-241.76 2383.78,-189.69"/>
<polygon fill="midnightblue" stroke="midnightblue" points="2387.27,-189.48 2383.58,-179.55 2380.27,-189.62 2387.27,-189.48"/>
</g>
<!-- Node31 -->
<g id="node31" class="node">
<title>Node31</title>
<g id="a_node31"><a xlink:title=" ">
<polygon fill="white" stroke="#bfbfbf" points="1355.5,-396.5 1355.5,-422.5 1414.5,-422.5 1414.5,-396.5 1355.5,-396.5"/>
<text text-anchor="middle" x="1385" y="-405.7" font-family="Source Sans Pro" font-size="16.00">mutex</text>
</a>
</g>
</g>
<!-- Node2&#45;&gt;Node31 -->
<g id="edge77" class="edge">
<title>Node2&#45;&gt;Node31</title>
<path fill="none" stroke="midnightblue" d="M1511.2,-468.46C1486.82,-459.22 1452.92,-445.75 1424,-432 1421,-430.57 1417.9,-429.02 1414.83,-427.42"/>
<polygon fill="midnightblue" stroke="midnightblue" points="1416.28,-424.22 1405.81,-422.57 1412.96,-430.39 1416.28,-424.22"/>
</g>
<!-- Node32 -->
<g id="node32" class="node">
<title>Node32</title>
<g id="a_node32"><a xlink:title=" ">
<polygon fill="white" stroke="#bfbfbf" points="1432.5,-396.5 1432.5,-422.5 1493.5,-422.5 1493.5,-396.5 1432.5,-396.5"/>
<text text-anchor="middle" x="1463" y="-405.7" font-family="Source Sans Pro" font-size="16.00">thread</text>
</a>
</g>
</g>
<!-- Node2&#45;&gt;Node32 -->
<g id="edge78" class="edge">
<title>Node2&#45;&gt;Node32</title>
<path fill="none" stroke="midnightblue" d="M1529.89,-468.31C1517.46,-457.57 1499.16,-441.75 1484.84,-429.38"/>
<polygon fill="midnightblue" stroke="midnightblue" points="1486.8,-426.44 1476.95,-422.55 1482.23,-431.74 1486.8,-426.44"/>
</g>
<!-- Node33 -->
<g id="node33" class="node">
<title>Node33</title>
<g id="a_node33"><a xlink:title=" ">
<polygon fill="white" stroke="#bfbfbf" points="1512,-396.5 1512,-422.5 1576,-422.5 1576,-396.5 1512,-396.5"/>
<text text-anchor="middle" x="1544" y="-405.7" font-family="Source Sans Pro" font-size="16.00">variant</text>
</a>
</g>
</g>
<!-- Node2&#45;&gt;Node33 -->
<g id="edge79" class="edge">
<title>Node2&#45;&gt;Node33</title>
<path fill="none" stroke="midnightblue" d="M1544,-468.31C1544,-458.47 1544,-444.38 1544,-432.57"/>
<polygon fill="midnightblue" stroke="midnightblue" points="1547.5,-432.55 1544,-422.55 1540.5,-432.55 1547.5,-432.55"/>
</g>
<!-- Node4 -->
<g id="node4" class="node">
<title>Node4</title>
<g id="a_node4"><a xlink:href="_i_e_dependency_8hpp.html" target="_top" xlink:title=" ">
<polygon fill="white" stroke="black" points="1443.5,-144.5 1443.5,-188.5 1688.5,-188.5 1688.5,-144.5 1443.5,-144.5"/>
<text text-anchor="start" x="1451.5" y="-171.7" font-family="Source Sans Pro" font-size="16.00">GraphicsModule/CommandBuffer</text>
<text text-anchor="middle" x="1566" y="-153.7" font-family="Source Sans Pro" font-size="16.00">/IEDependency.hpp</text>
</a>
</g>
</g>
<!-- Node3&#45;&gt;Node4 -->
<g id="edge3" class="edge">
<title>Node3&#45;&gt;Node4</title>
<path fill="none" stroke="midnightblue" d="M1500.19,-234.16C1510.22,-224 1524.83,-209.2 1537.74,-196.12"/>
<polygon fill="midnightblue" stroke="midnightblue" points="1540.56,-198.25 1545.1,-188.67 1535.58,-193.33 1540.56,-198.25"/>
</g>
<!-- Node3&#45;&gt;Node7 -->
<g id="edge19" class="edge">
<title>Node3&#45;&gt;Node7</title>
<path fill="none" stroke="midnightblue" d="M1561.73,-236.78C1638.54,-223.67 1742.03,-195.76 1698,-144 1591.61,-18.95 1040.93,-13.16 887.01,-14.03"/>
<polygon fill="midnightblue" stroke="midnightblue" points="886.6,-10.53 876.62,-14.1 886.65,-17.53 886.6,-10.53"/>
</g>
<!-- Node3&#45;&gt;Node8 -->
<g id="edge16" class="edge">
<title>Node3&#45;&gt;Node8</title>
<path fill="none" stroke="midnightblue" d="M1561.68,-245.53C1621.68,-241.6 1706.41,-228.61 1769,-189 1800.43,-169.11 1823.64,-131.51 1835.97,-107.79"/>
<polygon fill="midnightblue" stroke="midnightblue" points="1839.24,-109.08 1840.58,-98.57 1832.97,-105.95 1839.24,-109.08"/>
</g>
<!-- Node9 -->
<g id="node9" class="node">
<title>Node9</title>
<g id="a_node9"><a xlink:href="_i_e_a_p_i_8hpp.html" target="_top" xlink:title=" ">
<polygon fill="white" stroke="black" points="674.5,-153.5 674.5,-179.5 757.5,-179.5 757.5,-153.5 674.5,-153.5"/>
<text text-anchor="middle" x="716" y="-162.7" font-family="Source Sans Pro" font-size="16.00">IEAPI.hpp</text>
</a>
</g>
</g>
<!-- Node3&#45;&gt;Node9 -->
<g id="edge8" class="edge">
<title>Node3&#45;&gt;Node9</title>
<path fill="none" stroke="midnightblue" d="M1414.1,-240.34C1299.72,-230.62 1072.97,-210.59 881,-189 843.05,-184.73 800.3,-179.14 767.82,-174.73"/>
<polygon fill="midnightblue" stroke="midnightblue" points="768.04,-171.22 757.66,-173.34 767.09,-178.16 768.04,-171.22"/>
</g>
<!-- Node3&#45;&gt;Node11 -->
<g id="edge17" class="edge">
<title>Node3&#45;&gt;Node11</title>
<path fill="none" stroke="midnightblue" d="M1561.59,-239.06C1625.2,-230.92 1710.12,-215.39 1731,-189 1765.74,-145.08 1767.74,-105.26 1731,-63 1692.14,-18.29 1510.78,-13.61 1427.72,-13.87"/>
<polygon fill="midnightblue" stroke="midnightblue" points="1427.61,-10.37 1417.63,-13.93 1427.65,-17.37 1427.61,-10.37"/>
</g>
<!-- Node12 -->
<g id="node12" class="node">
<title>Node12</title>
<g id="a_node12"><a xlink:title=" ">
<polygon fill="white" stroke="#bfbfbf" points="1240.5,-153.5 1240.5,-179.5 1425.5,-179.5 1425.5,-153.5 1240.5,-153.5"/>
<text text-anchor="middle" x="1333" y="-162.7" font-family="Source Sans Pro" font-size="16.00">include/vk_mem_alloc.h</text>
</a>
</g>
</g>
<!-- Node3&#45;&gt;Node12 -->
<g id="edge14" class="edge">
<title>Node3&#45;&gt;Node12</title>
<path fill="none" stroke="midnightblue" d="M1464.12,-234.33C1437.76,-220.89 1395.17,-199.19 1365.72,-184.17"/>
<polygon fill="midnightblue" stroke="midnightblue" points="1367.15,-180.98 1356.65,-179.55 1363.97,-187.21 1367.15,-180.98"/>
</g>
<!-- Node13 -->
<g id="node13" class="node">
<title>Node13</title>
<g id="a_node13"><a xlink:title=" ">
<polygon fill="white" stroke="#bfbfbf" points="1084,-153.5 1084,-179.5 1222,-179.5 1222,-153.5 1084,-153.5"/>
<text text-anchor="middle" x="1153" y="-162.7" font-family="Source Sans Pro" font-size="16.00">include/GL/glew.h</text>
</a>
</g>
</g>
<!-- Node3&#45;&gt;Node13 -->
<g id="edge15" class="edge">
<title>Node3&#45;&gt;Node13</title>
<path fill="none" stroke="midnightblue" d="M1431.14,-234.49C1379.15,-223.33 1300.19,-205.93 1232,-189 1223.48,-186.88 1214.47,-184.54 1205.71,-182.2"/>
<polygon fill="midnightblue" stroke="midnightblue" points="1206.53,-178.79 1195.96,-179.57 1204.7,-185.55 1206.53,-178.79"/>
</g>
<!-- Node3&#45;&gt;Node14 -->
<g id="edge18" class="edge">
<title>Node3&#45;&gt;Node14</title>
<path fill="none" stroke="midnightblue" d="M1414.44,-242.23C1270.44,-233.69 941.27,-213.2 665,-189 613.82,-184.52 555.53,-178.26 514.41,-173.65"/>
<polygon fill="midnightblue" stroke="midnightblue" points="514.66,-170.16 504.33,-172.51 513.88,-177.11 514.66,-170.16"/>
</g>
<!-- Node5 -->
<g id="node5" class="node">
<title>Node5</title>
<g id="a_node5"><a xlink:title=" ">
<polygon fill="white" stroke="#bfbfbf" points="2098,-72.5 2098,-98.5 2172,-98.5 2172,-72.5 2098,-72.5"/>
<text text-anchor="middle" x="2135" y="-81.7" font-family="Source Sans Pro" font-size="16.00">memory</text>
</a>
</g>
</g>
<!-- Node4&#45;&gt;Node5 -->
<g id="edge4" class="edge">
<title>Node4&#45;&gt;Node5</title>
<path fill="none" stroke="midnightblue" d="M1688.76,-148.46C1813.71,-131.11 2000.98,-105.11 2087.75,-93.06"/>
<polygon fill="midnightblue" stroke="midnightblue" points="2088.4,-96.5 2097.82,-91.66 2087.44,-89.57 2088.4,-96.5"/>
</g>
<!-- Node6 -->
<g id="node6" class="node">
<title>Node6</title>
<g id="a_node6"><a xlink:title=" ">
<polygon fill="white" stroke="#bfbfbf" points="580.5,-0.5 580.5,-26.5 635.5,-26.5 635.5,-0.5 580.5,-0.5"/>
<text text-anchor="middle" x="608" y="-9.7" font-family="Source Sans Pro" font-size="16.00">string</text>
</a>
</g>
</g>
<!-- Node4&#45;&gt;Node6 -->
<g id="edge5" class="edge">
<title>Node4&#45;&gt;Node6</title>
<path fill="none" stroke="midnightblue" d="M1443.33,-144.94C1440.53,-144.61 1437.75,-144.3 1435,-144 1281.46,-127.47 886.98,-158.38 741,-108 728.95,-103.84 667.65,-58.97 632.63,-32.94"/>
<polygon fill="midnightblue" stroke="midnightblue" points="634.45,-29.93 624.34,-26.76 630.27,-35.54 634.45,-29.93"/>
</g>
<!-- Node4&#45;&gt;Node7 -->
<g id="edge6" class="edge">
<title>Node4&#45;&gt;Node7</title>
<path fill="none" stroke="midnightblue" d="M1465.65,-144.42C1304.78,-110.64 996.17,-45.83 886.7,-22.84"/>
<polygon fill="midnightblue" stroke="midnightblue" points="887.25,-19.38 876.74,-20.75 885.81,-26.23 887.25,-19.38"/>
</g>
<!-- Node4&#45;&gt;Node8 -->
<g id="edge7" class="edge">
<title>Node4&#45;&gt;Node8</title>
<path fill="none" stroke="midnightblue" d="M1640.67,-144.43C1688.91,-130.82 1750.5,-113.44 1793.59,-101.29"/>
<polygon fill="midnightblue" stroke="midnightblue" points="1794.63,-104.63 1803.31,-98.55 1792.73,-97.89 1794.63,-104.63"/>
</g>
<!-- Node9&#45;&gt;Node6 -->
<g id="edge13" class="edge">
<title>Node9&#45;&gt;Node6</title>
<path fill="none" stroke="midnightblue" d="M707.34,-153.4C688.86,-127.55 645.36,-66.73 622.55,-34.84"/>
<polygon fill="midnightblue" stroke="midnightblue" points="625.36,-32.76 616.7,-26.66 619.67,-36.83 625.36,-32.76"/>
</g>
<!-- Node10 -->
<g id="node10" class="node">
<title>Node10</title>
<g id="a_node10"><a xlink:href="_i_e_version_8hpp.html" target="_top" xlink:title=" ">
<polygon fill="white" stroke="black" points="750,-72.5 750,-98.5 860,-98.5 860,-72.5 750,-72.5"/>
<text text-anchor="middle" x="805" y="-81.7" font-family="Source Sans Pro" font-size="16.00">IEVersion.hpp</text>
</a>
</g>
</g>
<!-- Node9&#45;&gt;Node10 -->
<g id="edge9" class="edge">
<title>Node9&#45;&gt;Node10</title>
<path fill="none" stroke="midnightblue" d="M729.91,-153.16C744.28,-140.4 766.89,-120.33 783.55,-105.54"/>
<polygon fill="midnightblue" stroke="midnightblue" points="786.04,-108.01 791.19,-98.76 781.39,-102.78 786.04,-108.01"/>
</g>
<!-- Node10&#45;&gt;Node6 -->
<g id="edge11" class="edge">
<title>Node10&#45;&gt;Node6</title>
<path fill="none" stroke="midnightblue" d="M771.13,-72.47C736.14,-60.03 681.66,-40.67 645.42,-27.79"/>
<polygon fill="midnightblue" stroke="midnightblue" points="646.3,-24.4 635.71,-24.34 643.96,-30.99 646.3,-24.4"/>
</g>
<!-- Node10&#45;&gt;Node7 -->
<g id="edge12" class="edge">
<title>Node10&#45;&gt;Node7</title>
<path fill="none" stroke="midnightblue" d="M812.32,-72.31C818.46,-62.07 827.37,-47.22 834.62,-35.13"/>
<polygon fill="midnightblue" stroke="midnightblue" points="837.62,-36.93 839.77,-26.55 831.62,-33.33 837.62,-36.93"/>
</g>
<!-- Node10&#45;&gt;Node11 -->
<g id="edge10" class="edge">
<title>Node10&#45;&gt;Node11</title>
<path fill="none" stroke="midnightblue" d="M860.18,-77.85C975.89,-63.91 1241.65,-31.89 1344.39,-19.51"/>
<polygon fill="midnightblue" stroke="midnightblue" points="1344.88,-22.98 1354.39,-18.31 1344.04,-16.03 1344.88,-22.98"/>
</g>
<!-- Node15&#45;&gt;Node3 -->
<g id="edge21" class="edge">
<title>Node15&#45;&gt;Node3</title>
<path fill="none" stroke="midnightblue" d="M1488,-306.33C1488,-295.36 1488,-281.97 1488,-270.83"/>
<polygon fill="midnightblue" stroke="midnightblue" points="1491.5,-270.63 1488,-260.63 1484.5,-270.63 1491.5,-270.63"/>
</g>
<!-- Node15&#45;&gt;Node5 -->
<g id="edge33" class="edge">
<title>Node15&#45;&gt;Node5</title>
<path fill="none" stroke="midnightblue" d="M1602.02,-306.48C1645.17,-297.17 1694.39,-284.92 1738,-270 1879.75,-221.52 2038.81,-138.78 2104.31,-103.37"/>
<polygon fill="midnightblue" stroke="midnightblue" points="2106.16,-106.35 2113.28,-98.5 2102.82,-100.2 2106.16,-106.35"/>
</g>
<!-- Node15&#45;&gt;Node8 -->
<g id="edge34" class="edge">
<title>Node15&#45;&gt;Node8</title>
<path fill="none" stroke="midnightblue" d="M1583.83,-306.42C1653.32,-286.66 1745.23,-250.67 1805,-189 1826.66,-166.65 1837.34,-131.4 1842.25,-108.61"/>
<polygon fill="midnightblue" stroke="midnightblue" points="1845.74,-109.03 1844.23,-98.54 1838.87,-107.68 1845.74,-109.03"/>
</g>
<!-- Node15&#45;&gt;Node16 -->
<g id="edge22" class="edge">
<title>Node15&#45;&gt;Node16</title>
<path fill="none" stroke="midnightblue" d="M1368.03,-306.49C1288.07,-292.48 1185.24,-274.47 1115.57,-262.26"/>
<polygon fill="midnightblue" stroke="midnightblue" points="1115.99,-258.78 1105.54,-260.51 1114.78,-265.68 1115.99,-258.78"/>
</g>
<!-- Node16&#45;&gt;Node4 -->
<g id="edge23" class="edge">
<title>Node16&#45;&gt;Node4</title>
<path fill="none" stroke="midnightblue" d="M1111.52,-236.17C1189.34,-225.28 1315.24,-207.39 1433.35,-189.24"/>
<polygon fill="midnightblue" stroke="midnightblue" points="1433.94,-192.69 1443.29,-187.71 1432.87,-185.78 1433.94,-192.69"/>
</g>
<!-- Node16&#45;&gt;Node6 -->
<g id="edge31" class="edge">
<title>Node16&#45;&gt;Node6</title>
<path fill="none" stroke="midnightblue" d="M962.34,-244.01C866.86,-239.34 708.64,-226.07 665,-189 619.44,-150.29 610.04,-74.61 608.27,-36.93"/>
<polygon fill="midnightblue" stroke="midnightblue" points="611.76,-36.42 607.94,-26.54 604.76,-36.64 611.76,-36.42"/>
</g>
<!-- Node16&#45;&gt;Node7 -->
<g id="edge32" class="edge">
<title>Node16&#45;&gt;Node7</title>
<path fill="none" stroke="midnightblue" d="M962.37,-236.49C932.48,-228.56 900.55,-214.38 881,-189 846.67,-144.43 883.48,-117.36 869,-63 866.54,-53.75 862.47,-44.06 858.5,-35.78"/>
<polygon fill="midnightblue" stroke="midnightblue" points="861.61,-34.19 853.98,-26.84 855.36,-37.34 861.61,-34.19"/>
</g>
<!-- Node16&#45;&gt;Node8 -->
<g id="edge28" class="edge">
<title>Node16&#45;&gt;Node8</title>
<path fill="none" stroke="midnightblue" d="M1037.5,-234.25C1039.14,-212.13 1046.04,-165.8 1075,-144 1129.97,-102.63 1591.39,-90.65 1772.99,-87.51"/>
<polygon fill="midnightblue" stroke="midnightblue" points="1773.31,-91.01 1783.25,-87.34 1773.19,-84.01 1773.31,-91.01"/>
</g>
<!-- Node16&#45;&gt;Node9 -->
<g id="edge24" class="edge">
<title>Node16&#45;&gt;Node9</title>
<path fill="none" stroke="midnightblue" d="M987.9,-234.42C928.34,-219.76 828.39,-195.16 767.69,-180.22"/>
<polygon fill="midnightblue" stroke="midnightblue" points="768.48,-176.81 757.93,-177.82 766.81,-183.61 768.48,-176.81"/>
</g>
<!-- Node16&#45;&gt;Node11 -->
<g id="edge29" class="edge">
<title>Node16&#45;&gt;Node11</title>
<path fill="none" stroke="midnightblue" d="M1033.84,-234.36C1029.22,-213.62 1023.14,-171 1043,-144 1114.71,-46.5 1269.13,-22.39 1343.82,-16.44"/>
<polygon fill="midnightblue" stroke="midnightblue" points="1344.52,-19.9 1354.25,-15.69 1344.02,-12.92 1344.52,-19.9"/>
</g>
<!-- Node16&#45;&gt;Node12 -->
<g id="edge26" class="edge">
<title>Node16&#45;&gt;Node12</title>
<path fill="none" stroke="midnightblue" d="M1082.28,-234.42C1134.83,-220.39 1221.49,-197.26 1277.91,-182.2"/>
<polygon fill="midnightblue" stroke="midnightblue" points="1278.97,-185.54 1287.73,-179.58 1277.16,-178.78 1278.97,-185.54"/>
</g>
<!-- Node16&#45;&gt;Node13 -->
<g id="edge25" class="edge">
<title>Node16&#45;&gt;Node13</title>
<path fill="none" stroke="midnightblue" d="M1054.87,-234.33C1074.09,-221.24 1104.83,-200.31 1126.78,-185.36"/>
<polygon fill="midnightblue" stroke="midnightblue" points="1129,-188.08 1135.3,-179.55 1125.06,-182.29 1129,-188.08"/>
</g>
<!-- Node16&#45;&gt;Node14 -->
<g id="edge30" class="edge">
<title>Node16&#45;&gt;Node14</title>
<path fill="none" stroke="midnightblue" d="M962.44,-237.54C874.32,-226.79 723.31,-207.84 594,-189 567.67,-185.16 538.48,-180.49 514.17,-176.48"/>
<polygon fill="midnightblue" stroke="midnightblue" points="514.51,-172.99 504.07,-174.81 513.37,-179.9 514.51,-172.99"/>
</g>
<!-- Node17 -->
<g id="node17" class="node">
<title>Node17</title>
<g id="a_node17"><a xlink:title=" ">
<polygon fill="white" stroke="#bfbfbf" points="890,-153.5 890,-179.5 990,-179.5 990,-153.5 890,-153.5"/>
<text text-anchor="middle" x="940" y="-162.7" font-family="Source Sans Pro" font-size="16.00">stb_image.h</text>
</a>
</g>
</g>
<!-- Node16&#45;&gt;Node17 -->
<g id="edge27" class="edge">
<title>Node16&#45;&gt;Node17</title>
<path fill="none" stroke="midnightblue" d="M1021.84,-234.16C1006.04,-221.29 981.08,-200.96 962.88,-186.14"/>
<polygon fill="midnightblue" stroke="midnightblue" points="965.01,-183.36 955.05,-179.76 960.59,-188.79 965.01,-183.36"/>
</g>
<!-- Node18&#45;&gt;Node5 -->
<g id="edge44" class="edge">
<title>Node18&#45;&gt;Node5</title>
<path fill="none" stroke="midnightblue" d="M2172.32,-390.21C2192.99,-381.65 2212.09,-369.18 2225,-351 2279.18,-274.75 2238.8,-221.88 2187,-144 2177.88,-130.29 2165.61,-116.56 2155.27,-105.95"/>
<polygon fill="midnightblue" stroke="midnightblue" points="2157.7,-103.43 2148.16,-98.82 2152.75,-108.38 2157.7,-103.43"/>
</g>
<!-- Node18&#45;&gt;Node7 -->
<g id="edge45" class="edge">
<title>Node18&#45;&gt;Node7</title>
<path fill="none" stroke="midnightblue" d="M2112.71,-387.36C2128.47,-378.46 2144.15,-366.5 2154,-351 2222.97,-242.5 2270.24,-155.54 2181,-63 2169.47,-51.04 1107.71,-21.58 886.93,-15.58"/>
<polygon fill="midnightblue" stroke="midnightblue" points="886.86,-12.07 876.77,-15.3 886.67,-19.07 886.86,-12.07"/>
</g>
<!-- Node18&#45;&gt;Node8 -->
<g id="edge46" class="edge">
<title>Node18&#45;&gt;Node8</title>
<path fill="none" stroke="midnightblue" d="M1981.7,-387.44C1963.2,-378.95 1945.3,-367.19 1933,-351 1876.7,-276.86 1942.18,-227.49 1901,-144 1893.67,-129.15 1881.14,-115.59 1869.89,-105.38"/>
<polygon fill="midnightblue" stroke="midnightblue" points="1871.87,-102.46 1862.02,-98.56 1867.29,-107.76 1871.87,-102.46"/>
</g>
<!-- Node19 -->
<g id="node19" class="node">
<title>Node19</title>
<g id="a_node19"><a xlink:href="_i_e_buffer_memory_barrier_8hpp.html" target="_top" xlink:title=" ">
<polygon fill="white" stroke="black" points="1941.5,-315.5 1941.5,-341.5 2144.5,-341.5 2144.5,-315.5 1941.5,-315.5"/>
<text text-anchor="middle" x="2043" y="-324.7" font-family="Source Sans Pro" font-size="16.00">IEBufferMemoryBarrier.hpp</text>
</a>
</g>
</g>
<!-- Node18&#45;&gt;Node19 -->
<g id="edge36" class="edge">
<title>Node18&#45;&gt;Node19</title>
<path fill="none" stroke="midnightblue" d="M2055.44,-387.33C2053.06,-376.25 2050.14,-362.69 2047.73,-351.49"/>
<polygon fill="midnightblue" stroke="midnightblue" points="2051.14,-350.67 2045.61,-341.63 2044.29,-352.14 2051.14,-350.67"/>
</g>
<!-- Node20 -->
<g id="node20" class="node">
<title>Node20</title>
<g id="a_node20"><a xlink:href="_i_e_image_memory_barrier_8hpp.html" target="_top" xlink:title=" ">
<polygon fill="white" stroke="black" points="1681.5,-315.5 1681.5,-341.5 1884.5,-341.5 1884.5,-315.5 1681.5,-315.5"/>
<text text-anchor="middle" x="1783" y="-324.7" font-family="Source Sans Pro" font-size="16.00">IEImageMemoryBarrier.hpp</text>
</a>
</g>
</g>
<!-- Node18&#45;&gt;Node20 -->
<g id="edge40" class="edge">
<title>Node18&#45;&gt;Node20</title>
<path fill="none" stroke="midnightblue" d="M1986.13,-387.43C1938.51,-373.85 1877.73,-356.52 1835.12,-344.36"/>
<polygon fill="midnightblue" stroke="midnightblue" points="1835.81,-340.92 1825.24,-341.55 1833.89,-347.65 1835.81,-340.92"/>
</g>
<!-- Node19&#45;&gt;Node3 -->
<g id="edge37" class="edge">
<title>Node19&#45;&gt;Node3</title>
<path fill="none" stroke="midnightblue" d="M1959.86,-315.46C1938.41,-312.37 1915.35,-309.05 1894,-306 1782.54,-290.07 1653.85,-271.87 1571.75,-260.3"/>
<polygon fill="midnightblue" stroke="midnightblue" points="1572.11,-256.81 1561.72,-258.88 1571.14,-263.74 1572.11,-256.81"/>
</g>
<!-- Node19&#45;&gt;Node5 -->
<g id="edge38" class="edge">
<title>Node19&#45;&gt;Node5</title>
<path fill="none" stroke="midnightblue" d="M2050.17,-315.31C2063.79,-291.68 2093.6,-237.68 2111,-189 2120.64,-162.03 2127.47,-129.68 2131.32,-108.63"/>
<polygon fill="midnightblue" stroke="midnightblue" points="2134.77,-109.2 2133.06,-98.75 2127.88,-107.99 2134.77,-109.2"/>
</g>
<!-- Node19&#45;&gt;Node8 -->
<g id="edge39" class="edge">
<title>Node19&#45;&gt;Node8</title>
<path fill="none" stroke="midnightblue" d="M2040.36,-315.19C2032.91,-283.16 2008.97,-196.08 1959,-144 1941.08,-125.32 1915.78,-111.67 1893.66,-102.37"/>
<polygon fill="midnightblue" stroke="midnightblue" points="1894.67,-99 1884.08,-98.52 1892.06,-105.5 1894.67,-99"/>
</g>
<!-- Node20&#45;&gt;Node5 -->
<g id="edge42" class="edge">
<title>Node20&#45;&gt;Node5</title>
<path fill="none" stroke="midnightblue" d="M1832.64,-315.46C1865.52,-306.13 1908.73,-291.19 1943,-270 2018.15,-223.52 2088.38,-143.8 2118.94,-106.65"/>
<polygon fill="midnightblue" stroke="midnightblue" points="2121.92,-108.54 2125.51,-98.58 2116.49,-104.13 2121.92,-108.54"/>
</g>
<!-- Node20&#45;&gt;Node8 -->
<g id="edge43" class="edge">
<title>Node20&#45;&gt;Node8</title>
<path fill="none" stroke="midnightblue" d="M1811.13,-315.3C1829.88,-305.7 1853.48,-290.51 1867,-270 1898.07,-222.87 1898.92,-198.16 1883,-144 1879.02,-130.48 1870.78,-117.13 1863.07,-106.7"/>
<polygon fill="midnightblue" stroke="midnightblue" points="1865.74,-104.43 1856.84,-98.69 1860.22,-108.73 1865.74,-104.43"/>
</g>
<!-- Node20&#45;&gt;Node16 -->
<g id="edge41" class="edge">
<title>Node20&#45;&gt;Node16</title>
<path fill="none" stroke="midnightblue" d="M1704.6,-315.48C1681.86,-312.18 1656.96,-308.76 1634,-306 1451.86,-284.1 1237.66,-265.11 1121.8,-255.4"/>
<polygon fill="midnightblue" stroke="midnightblue" points="1121.84,-251.89 1111.58,-254.54 1121.25,-258.86 1121.84,-251.89"/>
</g>
<!-- Node21&#45;&gt;Node5 -->
<g id="edge53" class="edge">
<title>Node21&#45;&gt;Node5</title>
<path fill="none" stroke="midnightblue" d="M1930.1,-388.06C2030.35,-371.98 2153.05,-352.12 2154,-351 2214.11,-280.27 2167.76,-156.9 2145.35,-107.67"/>
<polygon fill="midnightblue" stroke="midnightblue" points="2148.51,-106.16 2141.1,-98.59 2142.17,-109.13 2148.51,-106.16"/>
</g>
<!-- Node21&#45;&gt;Node22 -->
<g id="edge48" class="edge">
<title>Node21&#45;&gt;Node22</title>
<path fill="none" stroke="midnightblue" d="M1673.81,-395.41C1644.63,-392.54 1613.75,-389.59 1585,-387 1375.03,-368.12 1129.96,-348.96 988.99,-338.22"/>
<polygon fill="midnightblue" stroke="midnightblue" points="988.84,-334.7 978.6,-337.43 988.31,-341.67 988.84,-334.7"/>
</g>
<!-- Node22&#45;&gt;Node6 -->
<g id="edge51" class="edge">
<title>Node22&#45;&gt;Node6</title>
<path fill="none" stroke="midnightblue" d="M767.06,-307.59C739.31,-299.06 710.58,-287 687,-270 621.86,-223.04 617.62,-187.6 607,-108 603.77,-83.79 604.68,-55.74 605.98,-36.72"/>
<polygon fill="midnightblue" stroke="midnightblue" points="609.48,-36.91 606.77,-26.67 602.5,-36.37 609.48,-36.91"/>
</g>
<!-- Node22&#45;&gt;Node7 -->
<g id="edge52" class="edge">
<title>Node22&#45;&gt;Node7</title>
<path fill="none" stroke="midnightblue" d="M813.81,-306.49C764.07,-285.31 696.23,-247.32 665,-189 625.98,-116.14 743.52,-55.83 807.9,-29.2"/>
<polygon fill="midnightblue" stroke="midnightblue" points="809.42,-32.36 817.37,-25.36 806.79,-25.87 809.42,-32.36"/>
</g>
<!-- Node22&#45;&gt;Node8 -->
<g id="edge50" class="edge">
<title>Node22&#45;&gt;Node8</title>
<path fill="none" stroke="midnightblue" d="M866.02,-306.41C854.85,-268.19 838.28,-187.41 881,-144 912.2,-112.3 1553.57,-93.67 1773.07,-88.2"/>
<polygon fill="midnightblue" stroke="midnightblue" points="1773.29,-91.7 1783.2,-87.95 1773.12,-84.7 1773.29,-91.7"/>
</g>
<!-- Node22&#45;&gt;Node16 -->
<g id="edge49" class="edge">
<title>Node22&#45;&gt;Node16</title>
<path fill="none" stroke="midnightblue" d="M916.95,-306.33C943.87,-293.36 977.83,-277.01 1002.75,-265"/>
<polygon fill="midnightblue" stroke="midnightblue" points="1004.33,-268.12 1011.82,-260.63 1001.3,-261.81 1004.33,-268.12"/>
</g>
<!-- Node23&#45;&gt;Node4 -->
<g id="edge55" class="edge">
<title>Node23&#45;&gt;Node4</title>
<path fill="none" stroke="midnightblue" d="M738.23,-309.16C744.91,-308.02 751.55,-306.95 758,-306 917.96,-282.47 960.45,-296.16 1120,-270 1245.63,-249.4 1388.74,-214.43 1478.21,-191.15"/>
<polygon fill="midnightblue" stroke="midnightblue" points="1479.25,-194.49 1488.04,-188.58 1477.48,-187.72 1479.25,-194.49"/>
</g>
<!-- Node23&#45;&gt;Node7 -->
<g id="edge72" class="edge">
<title>Node23&#45;&gt;Node7</title>
<path fill="none" stroke="midnightblue" d="M642.61,-306.34C631.22,-256.16 610.89,-129.19 677,-63 711.5,-28.46 768.75,-18.12 807.16,-15.24"/>
<polygon fill="midnightblue" stroke="midnightblue" points="807.7,-18.71 817.46,-14.61 807.27,-11.73 807.7,-18.71"/>
</g>
<!-- Node23&#45;&gt;Node8 -->
<g id="edge70" class="edge">
<title>Node23&#45;&gt;Node8</title>
<path fill="none" stroke="midnightblue" d="M663.53,-306.37C694.5,-266.16 768.38,-179.47 854,-144 938.14,-109.14 1558.44,-92.67 1773.12,-87.97"/>
<polygon fill="midnightblue" stroke="midnightblue" points="1773.42,-91.46 1783.34,-87.74 1773.27,-84.46 1773.42,-91.46"/>
</g>
<!-- Node23&#45;&gt;Node14 -->
<g id="edge71" class="edge">
<title>Node23&#45;&gt;Node14</title>
<path fill="none" stroke="midnightblue" d="M617.73,-306.47C603.01,-295.92 585.25,-282.71 570,-270 567.7,-268.08 512.17,-215.76 481.28,-186.63"/>
<polygon fill="midnightblue" stroke="midnightblue" points="483.68,-184.08 474.01,-179.77 478.88,-189.18 483.68,-184.08"/>
</g>
<!-- Node24 -->
<g id="node24" class="node">
<title>Node24</title>
<g id="a_node24"><a xlink:href="_i_e_shader_8hpp.html" target="_top" xlink:title=" ">
<polygon fill="white" stroke="black" points="300,-225.5 300,-269.5 480,-269.5 480,-225.5 300,-225.5"/>
<text text-anchor="start" x="308" y="-252.7" font-family="Source Sans Pro" font-size="16.00">GraphicsModule/Shader</text>
<text text-anchor="middle" x="390" y="-234.7" font-family="Source Sans Pro" font-size="16.00">/IEShader.hpp</text>
</a>
</g>
</g>
<!-- Node23&#45;&gt;Node24 -->
<g id="edge56" class="edge">
<title>Node23&#45;&gt;Node24</title>
<path fill="none" stroke="midnightblue" d="M579.2,-306.43C545.09,-295.99 503.74,-283.33 468.4,-272.51"/>
<polygon fill="midnightblue" stroke="midnightblue" points="469.2,-269.09 458.61,-269.51 467.15,-275.78 469.2,-269.09"/>
</g>
<!-- Node24&#45;&gt;Node6 -->
<g id="edge67" class="edge">
<title>Node24&#45;&gt;Node6</title>
<path fill="none" stroke="midnightblue" d="M364.02,-225.47C353.86,-215.6 343.37,-202.94 338,-189 317.87,-136.74 302.07,-105.96 338,-63 367.15,-28.15 502.82,-18.31 570.04,-15.55"/>
<polygon fill="midnightblue" stroke="midnightblue" points="570.36,-19.04 580.22,-15.17 570.09,-12.05 570.36,-19.04"/>
</g>
<!-- Node24&#45;&gt;Node7 -->
<g id="edge68" class="edge">
<title>Node24&#45;&gt;Node7</title>
<path fill="none" stroke="midnightblue" d="M382.04,-225.46C375.12,-203.38 368.43,-168.53 384,-144 429.27,-72.65 475.34,-88.18 556,-63 643.45,-35.7 750.76,-22.87 807.48,-17.62"/>
<polygon fill="midnightblue" stroke="midnightblue" points="807.82,-21.1 817.47,-16.73 807.2,-14.13 807.82,-21.1"/>
</g>
<!-- Node24&#45;&gt;Node8 -->
<g id="edge58" class="edge">
<title>Node24&#45;&gt;Node8</title>
<path fill="none" stroke="midnightblue" d="M387.01,-225.12C385.03,-201.38 386.15,-163.79 409,-144 435.03,-121.46 1483.71,-95.06 1772.85,-88.2"/>
<polygon fill="midnightblue" stroke="midnightblue" points="1773.3,-91.69 1783.22,-87.95 1773.14,-84.69 1773.3,-91.69"/>
</g>
<!-- Node24&#45;&gt;Node9 -->
<g id="edge57" class="edge">
<title>Node24&#45;&gt;Node9</title>
<path fill="none" stroke="midnightblue" d="M476.93,-225.43C536.75,-210.94 614.19,-192.17 664.47,-179.99"/>
<polygon fill="midnightblue" stroke="midnightblue" points="665.57,-183.32 674.46,-177.57 663.92,-176.52 665.57,-183.32"/>
</g>
<!-- Node24&#45;&gt;Node13 -->
<g id="edge69" class="edge">
<title>Node24&#45;&gt;Node13</title>
<path fill="none" stroke="midnightblue" d="M480.16,-239.25C599.15,-229.4 815.07,-210.51 999,-189 1023.28,-186.16 1049.66,-182.64 1073.6,-179.27"/>
<polygon fill="midnightblue" stroke="midnightblue" points="1074.3,-182.71 1083.71,-177.84 1073.31,-175.78 1074.3,-182.71"/>
</g>
<!-- Node24&#45;&gt;Node14 -->
<g id="edge66" class="edge">
<title>Node24&#45;&gt;Node14</title>
<path fill="none" stroke="midnightblue" d="M409.03,-225.33C419.71,-213.45 432.94,-198.72 443.38,-187.1"/>
<polygon fill="midnightblue" stroke="midnightblue" points="446.02,-189.4 450.1,-179.63 440.81,-184.73 446.02,-189.4"/>
</g>
<!-- Node25 -->
<g id="node25" class="node">
<title>Node25</title>
<g id="a_node25"><a xlink:href="_i_e_file_8hpp.html" target="_top" xlink:title=" ">
<polygon fill="white" stroke="black" points="71.5,-63.5 71.5,-107.5 248.5,-107.5 248.5,-63.5 71.5,-63.5"/>
<text text-anchor="start" x="79.5" y="-90.7" font-family="Source Sans Pro" font-size="16.00">Core/FileSystemModule</text>
<text text-anchor="middle" x="160" y="-72.7" font-family="Source Sans Pro" font-size="16.00">/IEFile.hpp</text>
</a>
</g>
</g>
<!-- Node24&#45;&gt;Node25 -->
<g id="edge59" class="edge">
<title>Node24&#45;&gt;Node25</title>
<path fill="none" stroke="midnightblue" d="M331.22,-225.4C308.59,-215.95 283.14,-203.62 262,-189 231.84,-168.14 202.89,-137.72 183.59,-115.43"/>
<polygon fill="midnightblue" stroke="midnightblue" points="186.08,-112.96 176.93,-107.63 180.76,-117.51 186.08,-112.96"/>
</g>
<!-- Node25&#45;&gt;Node6 -->
<g id="edge64" class="edge">
<title>Node25&#45;&gt;Node6</title>
<path fill="none" stroke="midnightblue" d="M248.66,-65.43C253.17,-64.58 257.63,-63.77 262,-63 373.49,-43.46 506.29,-26.64 570.09,-18.95"/>
<polygon fill="midnightblue" stroke="midnightblue" points="570.58,-22.42 580.09,-17.75 569.75,-15.47 570.58,-22.42"/>
</g>
<!-- Node25&#45;&gt;Node7 -->
<g id="edge65" class="edge">
<title>Node25&#45;&gt;Node7</title>
<path fill="none" stroke="midnightblue" d="M248.76,-69.99C265.74,-67.47 283.4,-65.01 300,-63 489.37,-40.09 716.86,-23.36 807.21,-17.15"/>
<polygon fill="midnightblue" stroke="midnightblue" points="807.55,-20.64 817.28,-16.46 807.07,-13.65 807.55,-20.64"/>
</g>
<!-- Node26 -->
<g id="node26" class="node">
<title>Node26</title>
<g id="a_node26"><a xlink:title=" ">
<polygon fill="white" stroke="#bfbfbf" points="70.5,-0.5 70.5,-26.5 155.5,-26.5 155.5,-0.5 70.5,-0.5"/>
<text text-anchor="middle" x="113" y="-9.7" font-family="Source Sans Pro" font-size="16.00">filesystem</text>
</a>
</g>
</g>
<!-- Node25&#45;&gt;Node26 -->
<g id="edge60" class="edge">
<title>Node25&#45;&gt;Node26</title>
<path fill="none" stroke="midnightblue" d="M145.9,-63.5C139.81,-54.44 132.72,-43.88 126.69,-34.89"/>
<polygon fill="midnightblue" stroke="midnightblue" points="129.56,-32.88 121.08,-26.53 123.75,-36.78 129.56,-32.88"/>
</g>
<!-- Node27 -->
<g id="node27" class="node">
<title>Node27</title>
<g id="a_node27"><a xlink:title=" ">
<polygon fill="white" stroke="#bfbfbf" points="174,-0.5 174,-26.5 242,-26.5 242,-0.5 174,-0.5"/>
<text text-anchor="middle" x="208" y="-9.7" font-family="Source Sans Pro" font-size="16.00">fstream</text>
</a>
</g>
</g>
<!-- Node25&#45;&gt;Node27 -->
<g id="edge61" class="edge">
<title>Node25&#45;&gt;Node27</title>
<path fill="none" stroke="midnightblue" d="M174.4,-63.5C180.61,-54.44 187.86,-43.88 194.02,-34.89"/>
<polygon fill="midnightblue" stroke="midnightblue" points="196.98,-36.76 199.75,-26.53 191.21,-32.8 196.98,-36.76"/>
</g>
<!-- Node28 -->
<g id="node28" class="node">
<title>Node28</title>
<g id="a_node28"><a xlink:title=" ">
<polygon fill="white" stroke="#bfbfbf" points="260,-0.5 260,-26.5 336,-26.5 336,-0.5 260,-0.5"/>
<text text-anchor="middle" x="298" y="-9.7" font-family="Source Sans Pro" font-size="16.00">iostream</text>
</a>
</g>
</g>
<!-- Node25&#45;&gt;Node28 -->
<g id="edge62" class="edge">
<title>Node25&#45;&gt;Node28</title>
<path fill="none" stroke="midnightblue" d="M201.4,-63.5C221.87,-53.12 246.22,-40.77 265.35,-31.06"/>
<polygon fill="midnightblue" stroke="midnightblue" points="266.95,-34.18 274.28,-26.53 263.78,-27.93 266.95,-34.18"/>
</g>
<!-- Node29 -->
<g id="node29" class="node">
<title>Node29</title>
<g id="a_node29"><a xlink:title=" ">
<polygon fill="white" stroke="#bfbfbf" points="0,-0.5 0,-26.5 52,-26.5 52,-0.5 0,-0.5"/>
<text text-anchor="middle" x="26" y="-9.7" font-family="Source Sans Pro" font-size="16.00">regex</text>
</a>
</g>
</g>
<!-- Node25&#45;&gt;Node29 -->
<g id="edge63" class="edge">
<title>Node25&#45;&gt;Node29</title>
<path fill="none" stroke="midnightblue" d="M119.8,-63.5C100.01,-53.16 76.49,-40.88 57.96,-31.19"/>
<polygon fill="midnightblue" stroke="midnightblue" points="59.51,-28.06 49.03,-26.53 56.27,-34.26 59.51,-28.06"/>
</g>
<!-- Node30&#45;&gt;Node5 -->
<g id="edge74" class="edge">
<title>Node30&#45;&gt;Node5</title>
<path fill="none" stroke="midnightblue" d="M2345.06,-153.42C2301.23,-139.45 2229.09,-116.47 2181.81,-101.41"/>
<polygon fill="midnightblue" stroke="midnightblue" points="2182.71,-98.03 2172.12,-98.32 2180.59,-104.69 2182.71,-98.03"/>
</g>
<!-- Node30&#45;&gt;Node7 -->
<g id="edge75" class="edge">
<title>Node30&#45;&gt;Node7</title>
<path fill="none" stroke="midnightblue" d="M2377.52,-153.16C2366.68,-130.46 2340.11,-82.61 2301,-63 2284.73,-54.84 1118.18,-22.03 886.68,-15.6"/>
<polygon fill="midnightblue" stroke="midnightblue" points="886.77,-12.1 876.67,-15.32 886.57,-19.1 886.77,-12.1"/>
</g>
</g>
</svg>
