<?xml version="1.0" encoding="UTF-8" standalone="no"?>
<!DOCTYPE svg PUBLIC "-//W3C//DTD SVG 1.1//EN"
 "http://www.w3.org/Graphics/SVG/1.1/DTD/svg11.dtd">
<!-- Generated by graphviz version 2.43.0 (0)
 -->
<!-- Title: Illumination&#45;Engine/src/GraphicsModule/CommandBuffer/DependencyStructs/IEImageMemoryBarrier.hpp Pages: 1 -->
<svg width="3583pt" height="638pt"
 viewBox="0.00 0.00 3582.50 638.00" xmlns="http://www.w3.org/2000/svg" xmlns:xlink="http://www.w3.org/1999/xlink">
<g id="graph0" class="graph" transform="scale(1 1) rotate(0) translate(4 634)">
<title>Illumination&#45;Engine/src/GraphicsModule/CommandBuffer/DependencyStructs/IEImageMemoryBarrier.hpp</title>
<polygon fill="white" stroke="transparent" points="-4,4 -4,-634 3578.5,-634 3578.5,4 -4,4"/>
<!-- Node1 -->
<g id="node1" class="node">
<title>Node1</title>
<g id="a_node1"><a xlink:title=" ">
<polygon fill="#bfbfbf" stroke="black" points="1241.5,-549.5 1241.5,-629.5 1513.5,-629.5 1513.5,-549.5 1241.5,-549.5"/>
<text text-anchor="start" x="1249.5" y="-612.7" font-family="Source Sans Pro" font-size="16.00">Illumination&#45;Engine</text>
<text text-anchor="start" x="1249.5" y="-594.7" font-family="Source Sans Pro" font-size="16.00">/src/GraphicsModule</text>
<text text-anchor="start" x="1249.5" y="-576.7" font-family="Source Sans Pro" font-size="16.00">/CommandBuffer/DependencyStructs</text>
<text text-anchor="middle" x="1377.5" y="-558.7" font-family="Source Sans Pro" font-size="16.00">/IEImageMemoryBarrier.hpp</text>
</a>
</g>
</g>
<!-- Node2 -->
<g id="node2" class="node">
<title>Node2</title>
<g id="a_node2"><a xlink:href="_i_e_dependency_info_8hpp.html" target="_top" xlink:title=" ">
<polygon fill="white" stroke="black" points="1096.5,-432.5 1096.5,-512.5 1368.5,-512.5 1368.5,-432.5 1096.5,-432.5"/>
<text text-anchor="start" x="1104.5" y="-495.7" font-family="Source Sans Pro" font-size="16.00">Illumination&#45;Engine</text>
<text text-anchor="start" x="1104.5" y="-477.7" font-family="Source Sans Pro" font-size="16.00">/src/GraphicsModule</text>
<text text-anchor="start" x="1104.5" y="-459.7" font-family="Source Sans Pro" font-size="16.00">/CommandBuffer/DependencyStructs</text>
<text text-anchor="middle" x="1232.5" y="-441.7" font-family="Source Sans Pro" font-size="16.00">/IEDependencyInfo.hpp</text>
</a>
</g>
</g>
<!-- Node1&#45;&gt;Node2 -->
<g id="edge1" class="edge">
<title>Node1&#45;&gt;Node2</title>
<path fill="none" stroke="midnightblue" d="M1319.83,-542.76C1307.23,-532.77 1294.01,-522.28 1281.77,-512.58"/>
<polygon fill="midnightblue" stroke="midnightblue" points="1317.99,-545.77 1328,-549.25 1322.34,-540.29 1317.99,-545.77"/>
</g>
<!-- Node27 -->
<g id="node27" class="node">
<title>Node27</title>
<g id="a_node27"><a xlink:href="_i_e_image_memory_barrier_8cpp.html" target="_top" xlink:title=" ">
<polygon fill="white" stroke="black" points="1386.5,-432.5 1386.5,-512.5 1658.5,-512.5 1658.5,-432.5 1386.5,-432.5"/>
<text text-anchor="start" x="1394.5" y="-495.7" font-family="Source Sans Pro" font-size="16.00">Illumination&#45;Engine</text>
<text text-anchor="start" x="1394.5" y="-477.7" font-family="Source Sans Pro" font-size="16.00">/src/GraphicsModule</text>
<text text-anchor="start" x="1394.5" y="-459.7" font-family="Source Sans Pro" font-size="16.00">/CommandBuffer/DependencyStructs</text>
<text text-anchor="middle" x="1522.5" y="-441.7" font-family="Source Sans Pro" font-size="16.00">/IEImageMemoryBarrier.cpp</text>
</a>
</g>
</g>
<!-- Node1&#45;&gt;Node27 -->
<g id="edge31" class="edge">
<title>Node1&#45;&gt;Node27</title>
<path fill="none" stroke="midnightblue" d="M1435.17,-542.76C1447.77,-532.77 1460.99,-522.28 1473.23,-512.58"/>
<polygon fill="midnightblue" stroke="midnightblue" points="1432.66,-540.29 1427,-549.25 1437.01,-545.77 1432.66,-540.29"/>
</g>
<!-- Node3 -->
<g id="node3" class="node">
<title>Node3</title>
<g id="a_node3"><a xlink:href="_i_e_dependency_info_8cpp.html" target="_top" xlink:title=" ">
<polygon fill="white" stroke="black" points="945.5,-315.5 945.5,-395.5 1217.5,-395.5 1217.5,-315.5 945.5,-315.5"/>
<text text-anchor="start" x="953.5" y="-378.7" font-family="Source Sans Pro" font-size="16.00">Illumination&#45;Engine</text>
<text text-anchor="start" x="953.5" y="-360.7" font-family="Source Sans Pro" font-size="16.00">/src/GraphicsModule</text>
<text text-anchor="start" x="953.5" y="-342.7" font-family="Source Sans Pro" font-size="16.00">/CommandBuffer/DependencyStructs</text>
<text text-anchor="middle" x="1081.5" y="-324.7" font-family="Source Sans Pro" font-size="16.00">/IEDependencyInfo.cpp</text>
</a>
</g>
</g>
<!-- Node2&#45;&gt;Node3 -->
<g id="edge2" class="edge">
<title>Node2&#45;&gt;Node3</title>
<path fill="none" stroke="midnightblue" d="M1172.82,-426.05C1159.59,-415.97 1145.68,-405.38 1132.81,-395.58"/>
<polygon fill="midnightblue" stroke="midnightblue" points="1170.88,-428.97 1180.96,-432.25 1175.12,-423.4 1170.88,-428.97"/>
</g>
<!-- Node4 -->
<g id="node4" class="node">
<title>Node4</title>
<g id="a_node4"><a xlink:href="_i_e_command_buffer_8hpp.html" target="_top" xlink:title=" ">
<polygon fill="white" stroke="black" points="1236,-324.5 1236,-386.5 1531,-386.5 1531,-324.5 1236,-324.5"/>
<text text-anchor="start" x="1244" y="-369.7" font-family="Source Sans Pro" font-size="16.00">Illumination&#45;Engine</text>
<text text-anchor="start" x="1244" y="-351.7" font-family="Source Sans Pro" font-size="16.00">/src/GraphicsModule</text>
<text text-anchor="middle" x="1383.5" y="-333.7" font-family="Source Sans Pro" font-size="16.00">/CommandBuffer/IECommandBuffer.hpp</text>
</a>
</g>
</g>
<!-- Node2&#45;&gt;Node4 -->
<g id="edge3" class="edge">
<title>Node2&#45;&gt;Node4</title>
<path fill="none" stroke="midnightblue" d="M1292.46,-425.84C1309.83,-412.61 1328.34,-398.51 1344.11,-386.5"/>
<polygon fill="midnightblue" stroke="midnightblue" points="1289.88,-423.4 1284.04,-432.25 1294.12,-428.97 1289.88,-423.4"/>
</g>
<!-- Node5 -->
<g id="node5" class="node">
<title>Node5</title>
<g id="a_node5"><a xlink:href="_i_e_command_buffer_8cpp.html" target="_top" xlink:title=" ">
<polygon fill="white" stroke="black" points="0,-0.5 0,-62.5 293,-62.5 293,-0.5 0,-0.5"/>
<text text-anchor="start" x="8" y="-45.7" font-family="Source Sans Pro" font-size="16.00">Illumination&#45;Engine</text>
<text text-anchor="start" x="8" y="-27.7" font-family="Source Sans Pro" font-size="16.00">/src/GraphicsModule</text>
<text text-anchor="middle" x="146.5" y="-9.7" font-family="Source Sans Pro" font-size="16.00">/CommandBuffer/IECommandBuffer.cpp</text>
</a>
</g>
</g>
<!-- Node4&#45;&gt;Node5 -->
<g id="edge4" class="edge">
<title>Node4&#45;&gt;Node5</title>
<path fill="none" stroke="midnightblue" d="M1258.4,-321.94C1017.96,-259.35 494.54,-123.1 261.92,-62.54"/>
<polygon fill="midnightblue" stroke="midnightblue" points="1257.68,-325.36 1268.24,-324.5 1259.44,-318.59 1257.68,-325.36"/>
</g>
<!-- Node6 -->
<g id="node6" class="node">
<title>Node6</title>
<g id="a_node6"><a xlink:href="_i_e_command_pool_8hpp.html" target="_top" xlink:title=" ">
<polygon fill="white" stroke="black" points="1241,-216.5 1241,-278.5 1526,-278.5 1526,-216.5 1241,-216.5"/>
<text text-anchor="start" x="1249" y="-261.7" font-family="Source Sans Pro" font-size="16.00">Illumination&#45;Engine</text>
<text text-anchor="start" x="1249" y="-243.7" font-family="Source Sans Pro" font-size="16.00">/src/GraphicsModule</text>
<text text-anchor="middle" x="1383.5" y="-225.7" font-family="Source Sans Pro" font-size="16.00">/CommandBuffer/IECommandPool.hpp</text>
</a>
</g>
</g>
<!-- Node4&#45;&gt;Node6 -->
<g id="edge5" class="edge">
<title>Node4&#45;&gt;Node6</title>
<path fill="none" stroke="midnightblue" d="M1383.5,-314.31C1383.5,-302.48 1383.5,-289.75 1383.5,-278.67"/>
<polygon fill="midnightblue" stroke="midnightblue" points="1380,-314.41 1383.5,-324.41 1387,-314.41 1380,-314.41"/>
</g>
<!-- Node24 -->
<g id="node24" class="node">
<title>Node24</title>
<g id="a_node24"><a xlink:href="_i_e_render_pass_8hpp.html" target="_top" xlink:title=" ">
<polygon fill="white" stroke="black" points="2315.5,-216.5 2315.5,-278.5 2543.5,-278.5 2543.5,-216.5 2315.5,-216.5"/>
<text text-anchor="start" x="2323.5" y="-261.7" font-family="Source Sans Pro" font-size="16.00">Illumination&#45;Engine</text>
<text text-anchor="start" x="2323.5" y="-243.7" font-family="Source Sans Pro" font-size="16.00">/src/GraphicsModule</text>
<text text-anchor="middle" x="2429.5" y="-225.7" font-family="Source Sans Pro" font-size="16.00">/RenderPass/IERenderPass.hpp</text>
</a>
</g>
</g>
<!-- Node4&#45;&gt;Node24 -->
<g id="edge25" class="edge">
<title>Node4&#45;&gt;Node24</title>
<path fill="none" stroke="midnightblue" d="M1541.15,-338.52C1753.82,-316.97 2127.52,-279.1 2315.18,-260.09"/>
<polygon fill="midnightblue" stroke="midnightblue" points="1540.74,-335.05 1531.15,-339.54 1541.45,-342.01 1540.74,-335.05"/>
</g>
<!-- Node7 -->
<g id="node7" class="node">
<title>Node7</title>
<g id="a_node7"><a xlink:href="_i_e_command_pool_8cpp.html" target="_top" xlink:title=" ">
<polygon fill="white" stroke="black" points="311.5,-0.5 311.5,-62.5 595.5,-62.5 595.5,-0.5 311.5,-0.5"/>
<text text-anchor="start" x="319.5" y="-45.7" font-family="Source Sans Pro" font-size="16.00">Illumination&#45;Engine</text>
<text text-anchor="start" x="319.5" y="-27.7" font-family="Source Sans Pro" font-size="16.00">/src/GraphicsModule</text>
<text text-anchor="middle" x="453.5" y="-9.7" font-family="Source Sans Pro" font-size="16.00">/CommandBuffer/IECommandPool.cpp</text>
</a>
</g>
</g>
<!-- Node6&#45;&gt;Node7 -->
<g id="edge6" class="edge">
<title>Node6&#45;&gt;Node7</title>
<path fill="none" stroke="midnightblue" d="M1242.71,-214.1C1063.86,-172.95 757.62,-102.48 583.88,-62.5"/>
<polygon fill="midnightblue" stroke="midnightblue" points="1242.19,-217.57 1252.72,-216.41 1243.76,-210.75 1242.19,-217.57"/>
</g>
<!-- Node8 -->
<g id="node8" class="node">
<title>Node8</title>
<g id="a_node8"><a xlink:href="_i_e_render_engine_8hpp.html" target="_top" xlink:title=" ">
<polygon fill="white" stroke="black" points="1659,-108.5 1659,-170.5 1820,-170.5 1820,-108.5 1659,-108.5"/>
<text text-anchor="start" x="1667" y="-153.7" font-family="Source Sans Pro" font-size="16.00">Illumination&#45;Engine</text>
<text text-anchor="start" x="1667" y="-135.7" font-family="Source Sans Pro" font-size="16.00">/src/GraphicsModule</text>
<text text-anchor="middle" x="1739.5" y="-117.7" font-family="Source Sans Pro" font-size="16.00">/IERenderEngine.hpp</text>
</a>
</g>
</g>
<!-- Node6&#45;&gt;Node8 -->
<g id="edge7" class="edge">
<title>Node6&#45;&gt;Node8</title>
<path fill="none" stroke="midnightblue" d="M1494.39,-213.48C1547.6,-197.64 1610.2,-179 1658.81,-164.53"/>
<polygon fill="midnightblue" stroke="midnightblue" points="1493.15,-210.2 1484.56,-216.41 1495.15,-216.91 1493.15,-210.2"/>
</g>
<!-- Node8&#45;&gt;Node5 -->
<g id="edge9" class="edge">
<title>Node8&#45;&gt;Node5</title>
<path fill="none" stroke="midnightblue" d="M1648.7,-138.15C1421.17,-136.31 808.58,-125.45 302.5,-63 299.49,-62.63 296.45,-62.23 293.38,-61.81"/>
<polygon fill="midnightblue" stroke="midnightblue" points="1648.89,-141.65 1658.92,-138.23 1648.95,-134.65 1648.89,-141.65"/>
</g>
<!-- Node8&#45;&gt;Node7 -->
<g id="edge10" class="edge">
<title>Node8&#45;&gt;Node7</title>
<path fill="none" stroke="midnightblue" d="M1648.89,-136.56C1455.99,-131.52 990.79,-114.63 604.5,-63 601.58,-62.61 598.64,-62.2 595.68,-61.77"/>
<polygon fill="midnightblue" stroke="midnightblue" points="1648.89,-140.06 1658.98,-136.82 1649.07,-133.06 1648.89,-140.06"/>
</g>
<!-- Node9 -->
<g id="node9" class="node">
<title>Node9</title>
<g id="a_node9"><a xlink:href="_i_e_buffer_8cpp.html" target="_top" xlink:title=" ">
<polygon fill="white" stroke="black" points="782,-0.5 782,-62.5 939,-62.5 939,-0.5 782,-0.5"/>
<text text-anchor="start" x="790" y="-45.7" font-family="Source Sans Pro" font-size="16.00">Illumination&#45;Engine</text>
<text text-anchor="start" x="790" y="-27.7" font-family="Source Sans Pro" font-size="16.00">/src/GraphicsModule</text>
<text text-anchor="middle" x="860.5" y="-9.7" font-family="Source Sans Pro" font-size="16.00">/Buffer/IEBuffer.cpp</text>
</a>
</g>
</g>
<!-- Node8&#45;&gt;Node9 -->
<g id="edge8" class="edge">
<title>Node8&#45;&gt;Node9</title>
<path fill="none" stroke="midnightblue" d="M1648.56,-136.96C1500.14,-132.85 1197.33,-117.85 947.5,-63 944.84,-62.42 942.15,-61.78 939.45,-61.09"/>
<polygon fill="midnightblue" stroke="midnightblue" points="1648.89,-140.47 1658.98,-137.23 1649.07,-133.47 1648.89,-140.47"/>
</g>
<!-- Node10 -->
<g id="node10" class="node">
<title>Node10</title>
<g id="a_node10"><a xlink:href="_i_e_a_p_i_8cpp.html" target="_top" xlink:title=" ">
<polygon fill="white" stroke="black" points="957,-0.5 957,-62.5 1114,-62.5 1114,-0.5 957,-0.5"/>
<text text-anchor="start" x="965" y="-45.7" font-family="Source Sans Pro" font-size="16.00">Illumination&#45;Engine</text>
<text text-anchor="start" x="965" y="-27.7" font-family="Source Sans Pro" font-size="16.00">/src/GraphicsModule</text>
<text text-anchor="middle" x="1035.5" y="-9.7" font-family="Source Sans Pro" font-size="16.00">/IEAPI.cpp</text>
</a>
</g>
</g>
<!-- Node8&#45;&gt;Node10 -->
<g id="edge11" class="edge">
<title>Node8&#45;&gt;Node10</title>
<path fill="none" stroke="midnightblue" d="M1648.68,-133.52C1527.4,-125.48 1306.49,-105.98 1122.5,-63 1119.85,-62.38 1117.17,-61.71 1114.47,-61"/>
<polygon fill="midnightblue" stroke="midnightblue" points="1648.46,-137.01 1658.66,-134.17 1648.91,-130.03 1648.46,-137.01"/>
</g>
<!-- Node11 -->
<g id="node11" class="node">
<title>Node11</title>
<g id="a_node11"><a xlink:href="_i_e_camera_8cpp.html" target="_top" xlink:title=" ">
<polygon fill="white" stroke="black" points="1132,-0.5 1132,-62.5 1289,-62.5 1289,-0.5 1132,-0.5"/>
<text text-anchor="start" x="1140" y="-45.7" font-family="Source Sans Pro" font-size="16.00">Illumination&#45;Engine</text>
<text text-anchor="start" x="1140" y="-27.7" font-family="Source Sans Pro" font-size="16.00">/src/GraphicsModule</text>
<text text-anchor="middle" x="1210.5" y="-9.7" font-family="Source Sans Pro" font-size="16.00">/IECamera.cpp</text>
</a>
</g>
</g>
<!-- Node8&#45;&gt;Node11 -->
<g id="edge12" class="edge">
<title>Node8&#45;&gt;Node11</title>
<path fill="none" stroke="midnightblue" d="M1648.62,-127.52C1558.6,-115.59 1417.24,-93.98 1297.5,-63 1294.71,-62.28 1291.88,-61.51 1289.04,-60.7"/>
<polygon fill="midnightblue" stroke="midnightblue" points="1648.42,-131.03 1658.79,-128.86 1649.34,-124.09 1648.42,-131.03"/>
</g>
<!-- Node12 -->
<g id="node12" class="node">
<title>Node12</title>
<g id="a_node12"><a xlink:href="_i_e_render_engine_8cpp.html" target="_top" xlink:title=" ">
<polygon fill="white" stroke="black" points="1307,-0.5 1307,-62.5 1466,-62.5 1466,-0.5 1307,-0.5"/>
<text text-anchor="start" x="1315" y="-45.7" font-family="Source Sans Pro" font-size="16.00">Illumination&#45;Engine</text>
<text text-anchor="start" x="1315" y="-27.7" font-family="Source Sans Pro" font-size="16.00">/src/GraphicsModule</text>
<text text-anchor="middle" x="1386.5" y="-9.7" font-family="Source Sans Pro" font-size="16.00">/IERenderEngine.cpp</text>
</a>
</g>
</g>
<!-- Node8&#45;&gt;Node12 -->
<g id="edge13" class="edge">
<title>Node8&#45;&gt;Node12</title>
<path fill="none" stroke="midnightblue" d="M1649.09,-114.09C1597.69,-99.88 1532.25,-81.22 1474.5,-63 1471.72,-62.12 1468.9,-61.22 1466.06,-60.3"/>
<polygon fill="midnightblue" stroke="midnightblue" points="1648.27,-117.5 1658.84,-116.79 1650.13,-110.75 1648.27,-117.5"/>
</g>
<!-- Node13 -->
<g id="node13" class="node">
<title>Node13</title>
<g id="a_node13"><a xlink:href="_i_e_image_8cpp.html" target="_top" xlink:title=" ">
<polygon fill="white" stroke="black" points="1484,-0.5 1484,-62.5 1641,-62.5 1641,-0.5 1484,-0.5"/>
<text text-anchor="start" x="1492" y="-45.7" font-family="Source Sans Pro" font-size="16.00">Illumination&#45;Engine</text>
<text text-anchor="start" x="1492" y="-27.7" font-family="Source Sans Pro" font-size="16.00">/src/GraphicsModule</text>
<text text-anchor="middle" x="1562.5" y="-9.7" font-family="Source Sans Pro" font-size="16.00">/Image/IEImage.cpp</text>
</a>
</g>
</g>
<!-- Node8&#45;&gt;Node13 -->
<g id="edge14" class="edge">
<title>Node8&#45;&gt;Node13</title>
<path fill="none" stroke="midnightblue" d="M1680.67,-103.27C1658.71,-90.12 1634,-75.32 1612.87,-62.67"/>
<polygon fill="midnightblue" stroke="midnightblue" points="1678.87,-106.27 1689.25,-108.41 1682.47,-100.27 1678.87,-106.27"/>
</g>
<!-- Node14 -->
<g id="node14" class="node">
<title>Node14</title>
<g id="a_node14"><a xlink:href="_i_e_texture_8cpp.html" target="_top" xlink:title=" ">
<polygon fill="white" stroke="black" points="1659,-0.5 1659,-62.5 1820,-62.5 1820,-0.5 1659,-0.5"/>
<text text-anchor="start" x="1667" y="-45.7" font-family="Source Sans Pro" font-size="16.00">Illumination&#45;Engine</text>
<text text-anchor="start" x="1667" y="-27.7" font-family="Source Sans Pro" font-size="16.00">/src/GraphicsModule</text>
<text text-anchor="middle" x="1739.5" y="-9.7" font-family="Source Sans Pro" font-size="16.00">/Image/IETexture.cpp</text>
</a>
</g>
</g>
<!-- Node8&#45;&gt;Node14 -->
<g id="edge15" class="edge">
<title>Node8&#45;&gt;Node14</title>
<path fill="none" stroke="midnightblue" d="M1739.5,-98.31C1739.5,-86.48 1739.5,-73.75 1739.5,-62.67"/>
<polygon fill="midnightblue" stroke="midnightblue" points="1736,-98.41 1739.5,-108.41 1743,-98.41 1736,-98.41"/>
</g>
<!-- Node15 -->
<g id="node15" class="node">
<title>Node15</title>
<g id="a_node15"><a xlink:href="_i_e_framebuffer_8cpp.html" target="_top" xlink:title=" ">
<polygon fill="white" stroke="black" points="3344.5,-0.5 3344.5,-62.5 3574.5,-62.5 3574.5,-0.5 3344.5,-0.5"/>
<text text-anchor="start" x="3352.5" y="-45.7" font-family="Source Sans Pro" font-size="16.00">Illumination&#45;Engine</text>
<text text-anchor="start" x="3352.5" y="-27.7" font-family="Source Sans Pro" font-size="16.00">/src/GraphicsModule</text>
<text text-anchor="middle" x="3459.5" y="-9.7" font-family="Source Sans Pro" font-size="16.00">/RenderPass/IEFramebuffer.cpp</text>
</a>
</g>
</g>
<!-- Node8&#45;&gt;Node15 -->
<g id="edge16" class="edge">
<title>Node8&#45;&gt;Node15</title>
<path fill="none" stroke="midnightblue" d="M1830.16,-132.05C1952.05,-123.55 2175.52,-108.56 2366.5,-99 2796.92,-77.45 2908.7,-122.78 3335.5,-63 3338.46,-62.58 3341.46,-62.13 3344.48,-61.64"/>
<polygon fill="midnightblue" stroke="midnightblue" points="1829.86,-128.56 1820.13,-132.75 1830.35,-135.55 1829.86,-128.56"/>
</g>
<!-- Node16 -->
<g id="node16" class="node">
<title>Node16</title>
<g id="a_node16"><a xlink:href="_i_e_render_pass_8cpp.html" target="_top" xlink:title=" ">
<polygon fill="white" stroke="black" points="3099,-0.5 3099,-62.5 3326,-62.5 3326,-0.5 3099,-0.5"/>
<text text-anchor="start" x="3107" y="-45.7" font-family="Source Sans Pro" font-size="16.00">Illumination&#45;Engine</text>
<text text-anchor="start" x="3107" y="-27.7" font-family="Source Sans Pro" font-size="16.00">/src/GraphicsModule</text>
<text text-anchor="middle" x="3212.5" y="-9.7" font-family="Source Sans Pro" font-size="16.00">/RenderPass/IERenderPass.cpp</text>
</a>
</g>
</g>
<!-- Node8&#45;&gt;Node16 -->
<g id="edge17" class="edge">
<title>Node8&#45;&gt;Node16</title>
<path fill="none" stroke="midnightblue" d="M1830.47,-131.92C1947,-123.61 2155.21,-109.17 2333.5,-99 2669.33,-79.84 2756.67,-111.71 3089.5,-63 3092.55,-62.55 3095.63,-62.07 3098.73,-61.54"/>
<polygon fill="midnightblue" stroke="midnightblue" points="1829.9,-128.45 1820.18,-132.65 1830.4,-135.43 1829.9,-128.45"/>
</g>
<!-- Node17 -->
<g id="node17" class="node">
<title>Node17</title>
<g id="a_node17"><a xlink:href="_i_e_material_8cpp.html" target="_top" xlink:title=" ">
<polygon fill="white" stroke="black" points="1838,-0.5 1838,-62.5 2039,-62.5 2039,-0.5 1838,-0.5"/>
<text text-anchor="start" x="1846" y="-45.7" font-family="Source Sans Pro" font-size="16.00">Illumination&#45;Engine</text>
<text text-anchor="start" x="1846" y="-27.7" font-family="Source Sans Pro" font-size="16.00">/src/GraphicsModule</text>
<text text-anchor="middle" x="1938.5" y="-9.7" font-family="Source Sans Pro" font-size="16.00">/Renderable/IEMaterial.cpp</text>
</a>
</g>
</g>
<!-- Node8&#45;&gt;Node17 -->
<g id="edge18" class="edge">
<title>Node8&#45;&gt;Node17</title>
<path fill="none" stroke="midnightblue" d="M1804.99,-103.62C1829.84,-90.38 1857.9,-75.43 1881.87,-62.67"/>
<polygon fill="midnightblue" stroke="midnightblue" points="1803.17,-100.62 1795.99,-108.41 1806.46,-106.8 1803.17,-100.62"/>
</g>
<!-- Node18 -->
<g id="node18" class="node">
<title>Node18</title>
<g id="a_node18"><a xlink:href="_i_e_mesh_8cpp.html" target="_top" xlink:title=" ">
<polygon fill="white" stroke="black" points="2057,-0.5 2057,-62.5 2240,-62.5 2240,-0.5 2057,-0.5"/>
<text text-anchor="start" x="2065" y="-45.7" font-family="Source Sans Pro" font-size="16.00">Illumination&#45;Engine</text>
<text text-anchor="start" x="2065" y="-27.7" font-family="Source Sans Pro" font-size="16.00">/src/GraphicsModule</text>
<text text-anchor="middle" x="2148.5" y="-9.7" font-family="Source Sans Pro" font-size="16.00">/Renderable/IEMesh.cpp</text>
</a>
</g>
</g>
<!-- Node8&#45;&gt;Node18 -->
<g id="edge19" class="edge">
<title>Node8&#45;&gt;Node18</title>
<path fill="none" stroke="midnightblue" d="M1830.28,-117.58C1891.8,-103.08 1974.81,-82.87 2047.5,-63 2050.59,-62.15 2053.73,-61.28 2056.9,-60.39"/>
<polygon fill="midnightblue" stroke="midnightblue" points="1829.15,-114.25 1820.21,-119.95 1830.75,-121.06 1829.15,-114.25"/>
</g>
<!-- Node19 -->
<g id="node19" class="node">
<title>Node19</title>
<g id="a_node19"><a xlink:href="_i_e_renderable_8cpp.html" target="_top" xlink:title=" ">
<polygon fill="white" stroke="black" points="2258,-0.5 2258,-62.5 2483,-62.5 2483,-0.5 2258,-0.5"/>
<text text-anchor="start" x="2266" y="-45.7" font-family="Source Sans Pro" font-size="16.00">Illumination&#45;Engine</text>
<text text-anchor="start" x="2266" y="-27.7" font-family="Source Sans Pro" font-size="16.00">/src/GraphicsModule</text>
<text text-anchor="middle" x="2370.5" y="-9.7" font-family="Source Sans Pro" font-size="16.00">/Renderable/IERenderable.cpp</text>
</a>
</g>
</g>
<!-- Node8&#45;&gt;Node19 -->
<g id="edge20" class="edge">
<title>Node8&#45;&gt;Node19</title>
<path fill="none" stroke="midnightblue" d="M1830.11,-127.78C1932.26,-115.06 2103.07,-91.89 2248.5,-63 2251.61,-62.38 2254.75,-61.74 2257.92,-61.07"/>
<polygon fill="midnightblue" stroke="midnightblue" points="1829.64,-124.31 1820.14,-129.01 1830.5,-131.25 1829.64,-124.31"/>
</g>
<!-- Node20 -->
<g id="node20" class="node">
<title>Node20</title>
<g id="a_node20"><a xlink:href="_i_e_descriptor_set_8cpp.html" target="_top" xlink:title=" ">
<polygon fill="white" stroke="black" points="2501,-0.5 2501,-62.5 2708,-62.5 2708,-0.5 2501,-0.5"/>
<text text-anchor="start" x="2509" y="-45.7" font-family="Source Sans Pro" font-size="16.00">Illumination&#45;Engine</text>
<text text-anchor="start" x="2509" y="-27.7" font-family="Source Sans Pro" font-size="16.00">/src/GraphicsModule</text>
<text text-anchor="middle" x="2604.5" y="-9.7" font-family="Source Sans Pro" font-size="16.00">/Shader/IEDescriptorSet.cpp</text>
</a>
</g>
</g>
<!-- Node8&#45;&gt;Node20 -->
<g id="edge21" class="edge">
<title>Node8&#45;&gt;Node20</title>
<path fill="none" stroke="midnightblue" d="M1830.64,-134.17C1972.78,-126.33 2255.44,-106.41 2491.5,-63 2494.6,-62.43 2497.73,-61.82 2500.89,-61.17"/>
<polygon fill="midnightblue" stroke="midnightblue" points="1830.03,-130.69 1820.24,-134.73 1830.41,-137.68 1830.03,-130.69"/>
</g>
<!-- Node21 -->
<g id="node21" class="node">
<title>Node21</title>
<g id="a_node21"><a xlink:href="_i_e_pipeline_8cpp.html" target="_top" xlink:title=" ">
<polygon fill="white" stroke="black" points="2726.5,-0.5 2726.5,-62.5 2898.5,-62.5 2898.5,-0.5 2726.5,-0.5"/>
<text text-anchor="start" x="2734.5" y="-45.7" font-family="Source Sans Pro" font-size="16.00">Illumination&#45;Engine</text>
<text text-anchor="start" x="2734.5" y="-27.7" font-family="Source Sans Pro" font-size="16.00">/src/GraphicsModule</text>
<text text-anchor="middle" x="2812.5" y="-9.7" font-family="Source Sans Pro" font-size="16.00">/Shader/IEPipeline.cpp</text>
</a>
</g>
</g>
<!-- Node8&#45;&gt;Node21 -->
<g id="edge22" class="edge">
<title>Node8&#45;&gt;Node21</title>
<path fill="none" stroke="midnightblue" d="M1830.37,-132.7C2056.38,-118.1 2631.87,-79.81 2717.5,-63 2720.39,-62.43 2723.31,-61.81 2726.26,-61.13"/>
<polygon fill="midnightblue" stroke="midnightblue" points="1829.95,-129.22 1820.2,-133.36 1830.4,-136.21 1829.95,-129.22"/>
</g>
<!-- Node22 -->
<g id="node22" class="node">
<title>Node22</title>
<g id="a_node22"><a xlink:href="_i_e_shader_8cpp.html" target="_top" xlink:title=" ">
<polygon fill="white" stroke="black" points="2916.5,-0.5 2916.5,-62.5 3080.5,-62.5 3080.5,-0.5 2916.5,-0.5"/>
<text text-anchor="start" x="2924.5" y="-45.7" font-family="Source Sans Pro" font-size="16.00">Illumination&#45;Engine</text>
<text text-anchor="start" x="2924.5" y="-27.7" font-family="Source Sans Pro" font-size="16.00">/src/GraphicsModule</text>
<text text-anchor="middle" x="2998.5" y="-9.7" font-family="Source Sans Pro" font-size="16.00">/Shader/IEShader.cpp</text>
</a>
</g>
</g>
<!-- Node8&#45;&gt;Node22 -->
<g id="edge23" class="edge">
<title>Node8&#45;&gt;Node22</title>
<path fill="none" stroke="midnightblue" d="M1830.5,-132.34C1947.05,-124.48 2155.29,-110.51 2333.5,-99 2588.58,-82.52 2656.63,-112.03 2907.5,-63 2910.44,-62.42 2913.42,-61.78 2916.42,-61.08"/>
<polygon fill="midnightblue" stroke="midnightblue" points="1829.94,-128.87 1820.2,-133.04 1830.41,-135.86 1829.94,-128.87"/>
</g>
<!-- Node23 -->
<g id="node23" class="node">
<title>Node23</title>
<g id="a_node23"><a xlink:href="main_8cpp.html" target="_top" xlink:title=" ">
<polygon fill="white" stroke="black" points="613.5,-9.5 613.5,-53.5 763.5,-53.5 763.5,-9.5 613.5,-9.5"/>
<text text-anchor="start" x="621.5" y="-36.7" font-family="Source Sans Pro" font-size="16.00">Illumination&#45;Engine</text>
<text text-anchor="middle" x="688.5" y="-18.7" font-family="Source Sans Pro" font-size="16.00">/src/main.cpp</text>
</a>
</g>
</g>
<!-- Node8&#45;&gt;Node23 -->
<g id="edge24" class="edge">
<title>Node8&#45;&gt;Node23</title>
<path fill="none" stroke="midnightblue" d="M1648.39,-134.53C1440.84,-124.98 938.09,-98.83 772.5,-63 761.73,-60.67 750.48,-57.29 739.83,-53.61"/>
<polygon fill="midnightblue" stroke="midnightblue" points="1648.49,-138.04 1658.64,-135 1648.81,-131.05 1648.49,-138.04"/>
</g>
<!-- Node24&#45;&gt;Node8 -->
<g id="edge28" class="edge">
<title>Node24&#45;&gt;Node8</title>
<path fill="none" stroke="midnightblue" d="M2305.19,-227.4C2164.52,-205.79 1939.47,-171.22 1820.04,-152.87"/>
<polygon fill="midnightblue" stroke="midnightblue" points="2304.76,-230.88 2315.17,-228.94 2305.82,-223.96 2304.76,-230.88"/>
</g>
<!-- Node24&#45;&gt;Node15 -->
<g id="edge29" class="edge">
<title>Node24&#45;&gt;Node15</title>
<path fill="none" stroke="midnightblue" d="M2553.93,-235.49C2657.93,-225.05 2809.8,-206.92 2940.5,-180 3093.03,-148.58 3266.33,-95.76 3369.1,-62.59"/>
<polygon fill="midnightblue" stroke="midnightblue" points="2553.31,-232.03 2543.7,-236.51 2554,-239 2553.31,-232.03"/>
</g>
<!-- Node24&#45;&gt;Node16 -->
<g id="edge30" class="edge">
<title>Node24&#45;&gt;Node16</title>
<path fill="none" stroke="midnightblue" d="M2384.72,-208.74C2377.28,-200.12 2370.65,-190.41 2366.5,-180 2353.17,-146.56 2341.69,-125.08 2366.5,-99 2421.94,-40.73 3009.93,-74.73 3089.5,-63 3092.55,-62.55 3095.63,-62.06 3098.73,-61.53"/>
<polygon fill="midnightblue" stroke="midnightblue" points="2382.37,-211.35 2391.73,-216.33 2387.52,-206.61 2382.37,-211.35"/>
</g>
<!-- Node25 -->
<g id="node25" class="node">
<title>Node25</title>
<g id="a_node25"><a xlink:href="_i_e_render_pass_begin_info_8cpp.html" target="_top" xlink:title=" ">
<polygon fill="white" stroke="black" points="2375.5,-99.5 2375.5,-179.5 2647.5,-179.5 2647.5,-99.5 2375.5,-99.5"/>
<text text-anchor="start" x="2383.5" y="-162.7" font-family="Source Sans Pro" font-size="16.00">Illumination&#45;Engine</text>
<text text-anchor="start" x="2383.5" y="-144.7" font-family="Source Sans Pro" font-size="16.00">/src/GraphicsModule</text>
<text text-anchor="start" x="2383.5" y="-126.7" font-family="Source Sans Pro" font-size="16.00">/CommandBuffer/DependencyStructs</text>
<text text-anchor="middle" x="2511.5" y="-108.7" font-family="Source Sans Pro" font-size="16.00">/IERenderPassBeginInfo.cpp</text>
</a>
</g>
</g>
<!-- Node24&#45;&gt;Node25 -->
<g id="edge26" class="edge">
<title>Node24&#45;&gt;Node25</title>
<path fill="none" stroke="midnightblue" d="M2458.95,-208.43C2466.15,-199.13 2473.87,-189.15 2481.11,-179.79"/>
<polygon fill="midnightblue" stroke="midnightblue" points="2456.13,-206.36 2452.78,-216.41 2461.67,-210.64 2456.13,-206.36"/>
</g>
<!-- Node26 -->
<g id="node26" class="node">
<title>Node26</title>
<g id="a_node26"><a xlink:href="_i_e_dependency_8cpp.html" target="_top" xlink:title=" ">
<polygon fill="white" stroke="black" points="2665.5,-108.5 2665.5,-170.5 2931.5,-170.5 2931.5,-108.5 2665.5,-108.5"/>
<text text-anchor="start" x="2673.5" y="-153.7" font-family="Source Sans Pro" font-size="16.00">Illumination&#45;Engine</text>
<text text-anchor="start" x="2673.5" y="-135.7" font-family="Source Sans Pro" font-size="16.00">/src/GraphicsModule</text>
<text text-anchor="middle" x="2798.5" y="-117.7" font-family="Source Sans Pro" font-size="16.00">/CommandBuffer/IEDependency.cpp</text>
</a>
</g>
</g>
<!-- Node24&#45;&gt;Node26 -->
<g id="edge27" class="edge">
<title>Node24&#45;&gt;Node26</title>
<path fill="none" stroke="midnightblue" d="M2544.03,-213.6C2591.87,-199.86 2647.07,-184 2693.8,-170.58"/>
<polygon fill="midnightblue" stroke="midnightblue" points="2542.9,-210.28 2534.25,-216.41 2544.83,-217.01 2542.9,-210.28"/>
</g>
</g>
</svg>
