<?xml version="1.0" encoding="UTF-8" standalone="no"?>
<!DOCTYPE svg PUBLIC "-//W3C//DTD SVG 1.1//EN"
 "http://www.w3.org/Graphics/SVG/1.1/DTD/svg11.dtd">
<!-- Generated by graphviz version 2.43.0 (0)
 -->
<!-- Title: Illumination&#45;Engine/src/GraphicsModule/Image/IETextureNEW.cpp Pages: 1 -->
<svg width="427pt" height="260pt"
 viewBox="0.00 0.00 426.50 260.00" xmlns="http://www.w3.org/2000/svg" xmlns:xlink="http://www.w3.org/1999/xlink">
<g id="graph0" class="graph" transform="scale(1 1) rotate(0) translate(4 256)">
<title>Illumination&#45;Engine/src/GraphicsModule/Image/IETextureNEW.cpp</title>
<polygon fill="white" stroke="transparent" points="-4,4 -4,-256 422.5,-256 422.5,4 -4,4"/>
<!-- Node1 -->
<g id="node1" class="node">
<title>Node1</title>
<g id="a_node1"><a xlink:title=" ">
<polygon fill="#bfbfbf" stroke="black" points="95,-189.5 95,-251.5 286,-251.5 286,-189.5 95,-189.5"/>
<text text-anchor="start" x="103" y="-234.7" font-family="Source Sans Pro" font-size="16.00">Illumination&#45;Engine</text>
<text text-anchor="start" x="103" y="-216.7" font-family="Source Sans Pro" font-size="16.00">/src/GraphicsModule</text>
<text text-anchor="middle" x="190.5" y="-198.7" font-family="Source Sans Pro" font-size="16.00">/Image/IETextureNEW.cpp</text>
</a>
</g>
</g>
<!-- Node2 -->
<g id="node2" class="node">
<title>Node2</title>
<g id="a_node2"><a xlink:href="_i_e_texture_n_e_w_8hpp.html" target="_top" xlink:title=" ">
<polygon fill="white" stroke="black" points="120.5,-126.5 120.5,-152.5 260.5,-152.5 260.5,-126.5 120.5,-126.5"/>
<text text-anchor="middle" x="190.5" y="-135.7" font-family="Source Sans Pro" font-size="16.00">IETextureNEW.hpp</text>
</a>
</g>
</g>
<!-- Node1&#45;&gt;Node2 -->
<g id="edge1" class="edge">
<title>Node1&#45;&gt;Node2</title>
<path fill="none" stroke="midnightblue" d="M190.5,-189.18C190.5,-180.45 190.5,-171.08 190.5,-162.91"/>
<polygon fill="midnightblue" stroke="midnightblue" points="194,-162.7 190.5,-152.7 187,-162.7 194,-162.7"/>
</g>
<!-- Node3 -->
<g id="node3" class="node">
<title>Node3</title>
<g id="a_node3"><a xlink:href="_i_e_image_n_e_w_8hpp.html" target="_top" xlink:title=" ">
<polygon fill="white" stroke="black" points="124,-63.5 124,-89.5 257,-89.5 257,-63.5 124,-63.5"/>
<text text-anchor="middle" x="190.5" y="-72.7" font-family="Source Sans Pro" font-size="16.00">IEImageNEW.hpp</text>
</a>
</g>
</g>
<!-- Node2&#45;&gt;Node3 -->
<g id="edge2" class="edge">
<title>Node2&#45;&gt;Node3</title>
<path fill="none" stroke="midnightblue" d="M190.5,-126.45C190.5,-118.85 190.5,-108.79 190.5,-99.78"/>
<polygon fill="midnightblue" stroke="midnightblue" points="194,-99.53 190.5,-89.53 187,-99.53 194,-99.53"/>
</g>
<!-- Node4 -->
<g id="node4" class="node">
<title>Node4</title>
<g id="a_node4"><a xlink:title=" ">
<polygon fill="white" stroke="#bfbfbf" points="0,-0.5 0,-26.5 63,-26.5 63,-0.5 0,-0.5"/>
<text text-anchor="middle" x="31.5" y="-9.7" font-family="Source Sans Pro" font-size="16.00">cstdint</text>
</a>
</g>
</g>
<!-- Node3&#45;&gt;Node4 -->
<g id="edge3" class="edge">
<title>Node3&#45;&gt;Node4</title>
<path fill="none" stroke="midnightblue" d="M159.09,-63.45C134.26,-53.92 99.41,-40.55 72.41,-30.19"/>
<polygon fill="midnightblue" stroke="midnightblue" points="73.44,-26.84 62.85,-26.53 70.93,-33.38 73.44,-26.84"/>
</g>
<!-- Node5 -->
<g id="node5" class="node">
<title>Node5</title>
<g id="a_node5"><a xlink:title=" ">
<polygon fill="white" stroke="#bfbfbf" points="81,-0.5 81,-26.5 140,-26.5 140,-0.5 81,-0.5"/>
<text text-anchor="middle" x="110.5" y="-9.7" font-family="Source Sans Pro" font-size="16.00">mutex</text>
</a>
</g>
</g>
<!-- Node3&#45;&gt;Node5 -->
<g id="edge4" class="edge">
<title>Node3&#45;&gt;Node5</title>
<path fill="none" stroke="midnightblue" d="M174.69,-63.45C163.19,-54.68 147.41,-42.64 134.37,-32.7"/>
<polygon fill="midnightblue" stroke="midnightblue" points="136.35,-29.81 126.27,-26.53 132.1,-35.37 136.35,-29.81"/>
</g>
<!-- Node6 -->
<g id="node6" class="node">
<title>Node6</title>
<g id="a_node6"><a xlink:title=" ">
<polygon fill="white" stroke="#bfbfbf" points="158,-0.5 158,-26.5 223,-26.5 223,-0.5 158,-0.5"/>
<text text-anchor="middle" x="190.5" y="-9.7" font-family="Source Sans Pro" font-size="16.00">cassert</text>
</a>
</g>
</g>
<!-- Node3&#45;&gt;Node6 -->
<g id="edge5" class="edge">
<title>Node3&#45;&gt;Node6</title>
<path fill="none" stroke="midnightblue" d="M190.5,-63.45C190.5,-55.85 190.5,-45.79 190.5,-36.78"/>
<polygon fill="midnightblue" stroke="midnightblue" points="194,-36.53 190.5,-26.53 187,-36.53 194,-36.53"/>
</g>
<!-- Node7 -->
<g id="node7" class="node">
<title>Node7</title>
<g id="a_node7"><a xlink:title=" ">
<polygon fill="white" stroke="#bfbfbf" points="241,-0.5 241,-26.5 300,-26.5 300,-0.5 241,-0.5"/>
<text text-anchor="middle" x="270.5" y="-9.7" font-family="Source Sans Pro" font-size="16.00">vector</text>
</a>
</g>
</g>
<!-- Node3&#45;&gt;Node7 -->
<g id="edge6" class="edge">
<title>Node3&#45;&gt;Node7</title>
<path fill="none" stroke="midnightblue" d="M206.31,-63.45C217.81,-54.68 233.59,-42.64 246.63,-32.7"/>
<polygon fill="midnightblue" stroke="midnightblue" points="248.9,-35.37 254.73,-26.53 244.65,-29.81 248.9,-35.37"/>
</g>
<!-- Node8 -->
<g id="node8" class="node">
<title>Node8</title>
<g id="a_node8"><a xlink:title=" ">
<polygon fill="white" stroke="#bfbfbf" points="318.5,-0.5 318.5,-26.5 418.5,-26.5 418.5,-0.5 318.5,-0.5"/>
<text text-anchor="middle" x="368.5" y="-9.7" font-family="Source Sans Pro" font-size="16.00">stb_image.h</text>
</a>
</g>
</g>
<!-- Node3&#45;&gt;Node8 -->
<g id="edge7" class="edge">
<title>Node3&#45;&gt;Node8</title>
<path fill="none" stroke="midnightblue" d="M225.67,-63.45C253.83,-53.8 293.5,-40.2 323.89,-29.79"/>
<polygon fill="midnightblue" stroke="midnightblue" points="325.08,-33.08 333.41,-26.53 322.81,-26.46 325.08,-33.08"/>
</g>
</g>
</svg>
