<?xml version="1.0" encoding="UTF-8" standalone="no"?>
<!DOCTYPE svg PUBLIC "-//W3C//DTD SVG 1.1//EN"
 "http://www.w3.org/Graphics/SVG/1.1/DTD/svg11.dtd">
<!-- Generated by graphviz version 2.43.0 (0)
 -->
<!-- Title: Illumination&#45;Engine/src/GraphicsModule/Image/IEImage.hpp Pages: 1 -->
<svg width="1120pt" height="278pt"
 viewBox="0.00 0.00 1119.50 278.00" xmlns="http://www.w3.org/2000/svg" xmlns:xlink="http://www.w3.org/1999/xlink">
<g id="graph0" class="graph" transform="scale(1 1) rotate(0) translate(4 274)">
<title>Illumination&#45;Engine/src/GraphicsModule/Image/IEImage.hpp</title>
<polygon fill="white" stroke="transparent" points="-4,4 -4,-274 1115.5,-274 1115.5,4 -4,4"/>
<!-- Node1 -->
<g id="node1" class="node">
<title>Node1</title>
<g id="a_node1"><a xlink:title=" ">
<polygon fill="#bfbfbf" stroke="black" points="406,-207.5 406,-269.5 563,-269.5 563,-207.5 406,-207.5"/>
<text text-anchor="start" x="414" y="-252.7" font-family="Source Sans Pro" font-size="16.00">Illumination&#45;Engine</text>
<text text-anchor="start" x="414" y="-234.7" font-family="Source Sans Pro" font-size="16.00">/src/GraphicsModule</text>
<text text-anchor="middle" x="484.5" y="-216.7" font-family="Source Sans Pro" font-size="16.00">/Image/IEImage.hpp</text>
</a>
</g>
</g>
<!-- Node2 -->
<g id="node2" class="node">
<title>Node2</title>
<g id="a_node2"><a xlink:href="_i_e_dependency_8hpp.html" target="_top" xlink:title=" ">
<polygon fill="white" stroke="black" points="30,-126.5 30,-170.5 275,-170.5 275,-126.5 30,-126.5"/>
<text text-anchor="start" x="38" y="-153.7" font-family="Source Sans Pro" font-size="16.00">GraphicsModule/CommandBuffer</text>
<text text-anchor="middle" x="152.5" y="-135.7" font-family="Source Sans Pro" font-size="16.00">/IEDependency.hpp</text>
</a>
</g>
</g>
<!-- Node1&#45;&gt;Node2 -->
<g id="edge1" class="edge">
<title>Node1&#45;&gt;Node2</title>
<path fill="none" stroke="midnightblue" d="M405.82,-216.65C356.46,-203.56 292.7,-186.66 241.5,-173.09"/>
<polygon fill="midnightblue" stroke="midnightblue" points="242.33,-169.69 231.77,-170.51 240.53,-176.46 242.33,-169.69"/>
</g>
<!-- Node3 -->
<g id="node3" class="node">
<title>Node3</title>
<g id="a_node3"><a xlink:title=" ">
<polygon fill="white" stroke="#bfbfbf" points="0,-0.5 0,-26.5 59,-26.5 59,-0.5 0,-0.5"/>
<text text-anchor="middle" x="29.5" y="-9.7" font-family="Source Sans Pro" font-size="16.00">vector</text>
</a>
</g>
</g>
<!-- Node1&#45;&gt;Node3 -->
<g id="edge18" class="edge">
<title>Node1&#45;&gt;Node3</title>
<path fill="none" stroke="midnightblue" d="M405.7,-238.09C286.6,-237.12 69.41,-227.42 20.5,-171 -12.13,-133.36 6.51,-69.52 19.78,-36.21"/>
<polygon fill="midnightblue" stroke="midnightblue" points="23.04,-37.48 23.66,-26.91 16.58,-34.79 23.04,-37.48"/>
</g>
<!-- Node4 -->
<g id="node4" class="node">
<title>Node4</title>
<g id="a_node4"><a xlink:title=" ">
<polygon fill="white" stroke="#bfbfbf" points="188,-63.5 188,-89.5 313,-89.5 313,-63.5 188,-63.5"/>
<text text-anchor="middle" x="250.5" y="-72.7" font-family="Source Sans Pro" font-size="16.00">vulkan/vulkan.h</text>
</a>
</g>
</g>
<!-- Node1&#45;&gt;Node4 -->
<g id="edge14" class="edge">
<title>Node1&#45;&gt;Node4</title>
<path fill="none" stroke="midnightblue" d="M405.87,-212.77C379.49,-202.31 350.86,-188.44 327.5,-171 313.09,-160.24 283.58,-122.14 265.56,-98.02"/>
<polygon fill="midnightblue" stroke="midnightblue" points="268.27,-95.79 259.5,-89.85 262.65,-99.96 268.27,-95.79"/>
</g>
<!-- Node5 -->
<g id="node5" class="node">
<title>Node5</title>
<g id="a_node5"><a xlink:title=" ">
<polygon fill="white" stroke="#bfbfbf" points="317,-0.5 317,-26.5 372,-26.5 372,-0.5 317,-0.5"/>
<text text-anchor="middle" x="344.5" y="-9.7" font-family="Source Sans Pro" font-size="16.00">string</text>
</a>
</g>
</g>
<!-- Node1&#45;&gt;Node5 -->
<g id="edge17" class="edge">
<title>Node1&#45;&gt;Node5</title>
<path fill="none" stroke="midnightblue" d="M437.21,-207.27C423.52,-196.95 409.36,-184.55 398.5,-171 366.18,-130.67 352.62,-69.79 347.41,-37.12"/>
<polygon fill="midnightblue" stroke="midnightblue" points="350.82,-36.21 345.9,-26.82 343.89,-37.23 350.82,-36.21"/>
</g>
<!-- Node7 -->
<g id="node7" class="node">
<title>Node7</title>
<g id="a_node7"><a xlink:href="_i_e_a_p_i_8hpp.html" target="_top" xlink:title=" ">
<polygon fill="white" stroke="black" points="408,-135.5 408,-161.5 491,-161.5 491,-135.5 408,-135.5"/>
<text text-anchor="middle" x="449.5" y="-144.7" font-family="Source Sans Pro" font-size="16.00">IEAPI.hpp</text>
</a>
</g>
</g>
<!-- Node1&#45;&gt;Node7 -->
<g id="edge6" class="edge">
<title>Node1&#45;&gt;Node7</title>
<path fill="none" stroke="midnightblue" d="M472.45,-207.22C467.78,-195.46 462.53,-182.25 458.23,-171.44"/>
<polygon fill="midnightblue" stroke="midnightblue" points="461.4,-169.94 454.45,-161.94 454.89,-172.52 461.4,-169.94"/>
</g>
<!-- Node9 -->
<g id="node9" class="node">
<title>Node9</title>
<g id="a_node9"><a xlink:title=" ">
<polygon fill="white" stroke="#bfbfbf" points="453,-0.5 453,-26.5 516,-26.5 516,-0.5 453,-0.5"/>
<text text-anchor="middle" x="484.5" y="-9.7" font-family="Source Sans Pro" font-size="16.00">cstdint</text>
</a>
</g>
</g>
<!-- Node1&#45;&gt;Node9 -->
<g id="edge16" class="edge">
<title>Node1&#45;&gt;Node9</title>
<path fill="none" stroke="midnightblue" d="M493.58,-207.32C502.8,-172.35 514.43,-113.1 504.5,-63 502.69,-53.85 499.13,-44.27 495.51,-36.05"/>
<polygon fill="midnightblue" stroke="midnightblue" points="498.59,-34.4 491.17,-26.84 492.26,-37.38 498.59,-34.4"/>
</g>
<!-- Node10 -->
<g id="node10" class="node">
<title>Node10</title>
<g id="a_node10"><a xlink:title=" ">
<polygon fill="white" stroke="#bfbfbf" points="547.5,-135.5 547.5,-161.5 685.5,-161.5 685.5,-135.5 547.5,-135.5"/>
<text text-anchor="middle" x="616.5" y="-144.7" font-family="Source Sans Pro" font-size="16.00">include/GL/glew.h</text>
</a>
</g>
</g>
<!-- Node1&#45;&gt;Node10 -->
<g id="edge12" class="edge">
<title>Node1&#45;&gt;Node10</title>
<path fill="none" stroke="midnightblue" d="M529.56,-207.46C549.66,-194.06 572.64,-178.74 589.93,-167.21"/>
<polygon fill="midnightblue" stroke="midnightblue" points="592.03,-170.02 598.41,-161.56 588.15,-164.2 592.03,-170.02"/>
</g>
<!-- Node11 -->
<g id="node11" class="node">
<title>Node11</title>
<g id="a_node11"><a xlink:title=" ">
<polygon fill="white" stroke="#bfbfbf" points="704,-135.5 704,-161.5 889,-161.5 889,-135.5 704,-135.5"/>
<text text-anchor="middle" x="796.5" y="-144.7" font-family="Source Sans Pro" font-size="16.00">include/vk_mem_alloc.h</text>
</a>
</g>
</g>
<!-- Node1&#45;&gt;Node11 -->
<g id="edge13" class="edge">
<title>Node1&#45;&gt;Node11</title>
<path fill="none" stroke="midnightblue" d="M563.23,-215.29C619.81,-199.34 694.53,-178.26 743.98,-164.31"/>
<polygon fill="midnightblue" stroke="midnightblue" points="745.15,-167.62 753.82,-161.54 743.25,-160.88 745.15,-167.62"/>
</g>
<!-- Node12 -->
<g id="node12" class="node">
<title>Node12</title>
<g id="a_node12"><a xlink:title=" ">
<polygon fill="white" stroke="#bfbfbf" points="907.5,-135.5 907.5,-161.5 1007.5,-161.5 1007.5,-135.5 907.5,-135.5"/>
<text text-anchor="middle" x="957.5" y="-144.7" font-family="Source Sans Pro" font-size="16.00">stb_image.h</text>
</a>
</g>
</g>
<!-- Node1&#45;&gt;Node12 -->
<g id="edge15" class="edge">
<title>Node1&#45;&gt;Node12</title>
<path fill="none" stroke="midnightblue" d="M563.25,-229.37C647.22,-219.65 783.66,-200.86 898.5,-171 904.87,-169.34 911.52,-167.27 917.96,-165.08"/>
<polygon fill="midnightblue" stroke="midnightblue" points="919.59,-168.21 927.83,-161.56 917.24,-161.62 919.59,-168.21"/>
</g>
<!-- Node13 -->
<g id="node13" class="node">
<title>Node13</title>
<g id="a_node13"><a xlink:title=" ">
<polygon fill="white" stroke="#bfbfbf" points="1025.5,-135.5 1025.5,-161.5 1111.5,-161.5 1111.5,-135.5 1025.5,-135.5"/>
<text text-anchor="middle" x="1068.5" y="-144.7" font-family="Source Sans Pro" font-size="16.00">functional</text>
</a>
</g>
</g>
<!-- Node1&#45;&gt;Node13 -->
<g id="edge19" class="edge">
<title>Node1&#45;&gt;Node13</title>
<path fill="none" stroke="midnightblue" d="M563.28,-234.23C668.23,-228.4 859.01,-212.59 1016.5,-171 1022.25,-169.48 1028.2,-167.47 1033.94,-165.29"/>
<polygon fill="midnightblue" stroke="midnightblue" points="1035.35,-168.49 1043.32,-161.5 1032.73,-162 1035.35,-168.49"/>
</g>
<!-- Node2&#45;&gt;Node3 -->
<g id="edge2" class="edge">
<title>Node2&#45;&gt;Node3</title>
<path fill="none" stroke="midnightblue" d="M95.3,-126.45C78.05,-117.58 60.52,-105.61 48.5,-90 36.78,-74.77 32.21,-53.17 30.47,-36.97"/>
<polygon fill="midnightblue" stroke="midnightblue" points="33.95,-36.46 29.67,-26.76 26.97,-37.01 33.95,-36.46"/>
</g>
<!-- Node2&#45;&gt;Node4 -->
<g id="edge3" class="edge">
<title>Node2&#45;&gt;Node4</title>
<path fill="none" stroke="midnightblue" d="M181.9,-126.5C195.78,-116.59 212.16,-104.88 225.44,-95.4"/>
<polygon fill="midnightblue" stroke="midnightblue" points="227.55,-98.19 233.66,-89.53 223.48,-92.5 227.55,-98.19"/>
</g>
<!-- Node2&#45;&gt;Node5 -->
<g id="edge4" class="edge">
<title>Node2&#45;&gt;Node5</title>
<path fill="none" stroke="midnightblue" d="M153.54,-126.22C155.6,-107.16 161.56,-79.7 178.5,-63 212.8,-29.19 269.3,-18.71 306.7,-15.59"/>
<polygon fill="midnightblue" stroke="midnightblue" points="306.98,-19.08 316.71,-14.9 306.49,-12.1 306.98,-19.08"/>
</g>
<!-- Node6 -->
<g id="node6" class="node">
<title>Node6</title>
<g id="a_node6"><a xlink:title=" ">
<polygon fill="white" stroke="#bfbfbf" points="57.5,-63.5 57.5,-89.5 131.5,-89.5 131.5,-63.5 57.5,-63.5"/>
<text text-anchor="middle" x="94.5" y="-72.7" font-family="Source Sans Pro" font-size="16.00">memory</text>
</a>
</g>
</g>
<!-- Node2&#45;&gt;Node6 -->
<g id="edge5" class="edge">
<title>Node2&#45;&gt;Node6</title>
<path fill="none" stroke="midnightblue" d="M135.1,-126.5C127.43,-117.25 118.48,-106.44 110.93,-97.33"/>
<polygon fill="midnightblue" stroke="midnightblue" points="113.54,-95 104.47,-89.53 108.15,-99.46 113.54,-95"/>
</g>
<!-- Node7&#45;&gt;Node5 -->
<g id="edge11" class="edge">
<title>Node7&#45;&gt;Node5</title>
<path fill="none" stroke="midnightblue" d="M462.83,-135.25C479.87,-118.09 505.28,-86.36 488.5,-63 464.51,-29.6 416.35,-18.9 382.34,-15.63"/>
<polygon fill="midnightblue" stroke="midnightblue" points="382.53,-12.13 372.29,-14.84 381.98,-19.11 382.53,-12.13"/>
</g>
<!-- Node8 -->
<g id="node8" class="node">
<title>Node8</title>
<g id="a_node8"><a xlink:href="_i_e_version_8hpp.html" target="_top" xlink:title=" ">
<polygon fill="white" stroke="black" points="369.5,-63.5 369.5,-89.5 479.5,-89.5 479.5,-63.5 369.5,-63.5"/>
<text text-anchor="middle" x="424.5" y="-72.7" font-family="Source Sans Pro" font-size="16.00">IEVersion.hpp</text>
</a>
</g>
</g>
<!-- Node7&#45;&gt;Node8 -->
<g id="edge7" class="edge">
<title>Node7&#45;&gt;Node8</title>
<path fill="none" stroke="midnightblue" d="M445.15,-135.31C441.6,-125.37 436.5,-111.09 432.25,-99.21"/>
<polygon fill="midnightblue" stroke="midnightblue" points="435.46,-97.79 428.8,-89.55 428.87,-100.15 435.46,-97.79"/>
</g>
<!-- Node8&#45;&gt;Node3 -->
<g id="edge10" class="edge">
<title>Node8&#45;&gt;Node3</title>
<path fill="none" stroke="midnightblue" d="M369.16,-66.95C288.58,-54.51 140.83,-31.69 69.77,-20.72"/>
<polygon fill="midnightblue" stroke="midnightblue" points="69.87,-17.19 59.45,-19.13 68.8,-24.11 69.87,-17.19"/>
</g>
<!-- Node8&#45;&gt;Node5 -->
<g id="edge9" class="edge">
<title>Node8&#45;&gt;Node5</title>
<path fill="none" stroke="midnightblue" d="M408.69,-63.45C397.19,-54.68 381.41,-42.64 368.37,-32.7"/>
<polygon fill="midnightblue" stroke="midnightblue" points="370.35,-29.81 360.27,-26.53 366.1,-35.37 370.35,-29.81"/>
</g>
<!-- Node8&#45;&gt;Node9 -->
<g id="edge8" class="edge">
<title>Node8&#45;&gt;Node9</title>
<path fill="none" stroke="midnightblue" d="M436.35,-63.45C444.65,-55.01 455.92,-43.55 465.47,-33.85"/>
<polygon fill="midnightblue" stroke="midnightblue" points="468.15,-36.11 472.67,-26.53 463.16,-31.2 468.15,-36.11"/>
</g>
</g>
</svg>
