<?xml version="1.0" encoding="UTF-8" standalone="no"?>
<!DOCTYPE svg PUBLIC "-//W3C//DTD SVG 1.1//EN"
 "http://www.w3.org/Graphics/SVG/1.1/DTD/svg11.dtd">
<!-- Generated by graphviz version 2.43.0 (0)
 -->
<!-- Title: Illumination&#45;Engine/src/Core/FileSystemModule/IEFileSystem.cpp Pages: 1 -->
<svg width="794pt" height="323pt"
 viewBox="0.00 0.00 794.00 323.00" xmlns="http://www.w3.org/2000/svg" xmlns:xlink="http://www.w3.org/1999/xlink">
<g id="graph0" class="graph" transform="scale(1 1) rotate(0) translate(4 319)">
<title>Illumination&#45;Engine/src/Core/FileSystemModule/IEFileSystem.cpp</title>
<polygon fill="white" stroke="transparent" points="-4,4 -4,-319 790,-319 790,4 -4,4"/>
<!-- Node1 -->
<g id="node1" class="node">
<title>Node1</title>
<g id="a_node1"><a xlink:title=" ">
<polygon fill="#bfbfbf" stroke="black" points="399.5,-252.5 399.5,-314.5 606.5,-314.5 606.5,-252.5 399.5,-252.5"/>
<text text-anchor="start" x="407.5" y="-297.7" font-family="Source Sans Pro" font-size="16.00">Illumination&#45;Engine</text>
<text text-anchor="start" x="407.5" y="-279.7" font-family="Source Sans Pro" font-size="16.00">/src/Core/FileSystemModule</text>
<text text-anchor="middle" x="503" y="-261.7" font-family="Source Sans Pro" font-size="16.00">/IEFileSystem.cpp</text>
</a>
</g>
</g>
<!-- Node2 -->
<g id="node2" class="node">
<title>Node2</title>
<g id="a_node2"><a xlink:href="_i_e_file_system_8hpp.html" target="_top" xlink:title=" ">
<polygon fill="white" stroke="black" points="436.5,-189.5 436.5,-215.5 569.5,-215.5 569.5,-189.5 436.5,-189.5"/>
<text text-anchor="middle" x="503" y="-198.7" font-family="Source Sans Pro" font-size="16.00">IEFileSystem.hpp</text>
</a>
</g>
</g>
<!-- Node1&#45;&gt;Node2 -->
<g id="edge1" class="edge">
<title>Node1&#45;&gt;Node2</title>
<path fill="none" stroke="midnightblue" d="M503,-252.18C503,-243.45 503,-234.08 503,-225.91"/>
<polygon fill="midnightblue" stroke="midnightblue" points="506.5,-225.7 503,-215.7 499.5,-225.7 506.5,-225.7"/>
</g>
<!-- Node3 -->
<g id="node3" class="node">
<title>Node3</title>
<g id="a_node3"><a xlink:href="_i_e_directory_8hpp.html" target="_top" xlink:title=" ">
<polygon fill="white" stroke="black" points="398,-126.5 398,-152.5 520,-152.5 520,-126.5 398,-126.5"/>
<text text-anchor="middle" x="459" y="-135.7" font-family="Source Sans Pro" font-size="16.00">IEDirectory.hpp</text>
</a>
</g>
</g>
<!-- Node2&#45;&gt;Node3 -->
<g id="edge2" class="edge">
<title>Node2&#45;&gt;Node3</title>
<path fill="none" stroke="midnightblue" d="M494.31,-189.45C488.4,-181.26 480.45,-170.23 473.58,-160.72"/>
<polygon fill="midnightblue" stroke="midnightblue" points="476.36,-158.59 467.67,-152.53 470.69,-162.68 476.36,-158.59"/>
</g>
<!-- Node4 -->
<g id="node4" class="node">
<title>Node4</title>
<g id="a_node4"><a xlink:href="_i_e_file_8hpp.html" target="_top" xlink:title=" ">
<polygon fill="white" stroke="black" points="258,-63.5 258,-89.5 342,-89.5 342,-63.5 258,-63.5"/>
<text text-anchor="middle" x="300" y="-72.7" font-family="Source Sans Pro" font-size="16.00">IEFile.hpp</text>
</a>
</g>
</g>
<!-- Node2&#45;&gt;Node4 -->
<g id="edge11" class="edge">
<title>Node2&#45;&gt;Node4</title>
<path fill="none" stroke="midnightblue" d="M438.95,-189.46C411.58,-182.11 380.4,-170.63 356,-153 336.32,-138.78 320.6,-115.58 310.88,-98.65"/>
<polygon fill="midnightblue" stroke="midnightblue" points="313.75,-96.6 305.87,-89.52 307.61,-99.97 313.75,-96.6"/>
</g>
<!-- Node9 -->
<g id="node9" class="node">
<title>Node9</title>
<g id="a_node9"><a xlink:title=" ">
<polygon fill="white" stroke="#bfbfbf" points="354.5,-0.5 354.5,-26.5 409.5,-26.5 409.5,-0.5 354.5,-0.5"/>
<text text-anchor="middle" x="382" y="-9.7" font-family="Source Sans Pro" font-size="16.00">string</text>
</a>
</g>
</g>
<!-- Node2&#45;&gt;Node9 -->
<g id="edge12" class="edge">
<title>Node2&#45;&gt;Node9</title>
<path fill="none" stroke="midnightblue" d="M442.51,-189.49C422.21,-182.34 401.56,-170.99 389,-153 364.8,-118.34 370.5,-66.08 376.47,-36.66"/>
<polygon fill="midnightblue" stroke="midnightblue" points="379.96,-37.11 378.71,-26.59 373.13,-35.59 379.96,-37.11"/>
</g>
<!-- Node10 -->
<g id="node10" class="node">
<title>Node10</title>
<g id="a_node10"><a xlink:title=" ">
<polygon fill="white" stroke="#bfbfbf" points="429.5,-0.5 429.5,-26.5 488.5,-26.5 488.5,-0.5 429.5,-0.5"/>
<text text-anchor="middle" x="459" y="-9.7" font-family="Source Sans Pro" font-size="16.00">vector</text>
</a>
</g>
</g>
<!-- Node2&#45;&gt;Node10 -->
<g id="edge15" class="edge">
<title>Node2&#45;&gt;Node10</title>
<path fill="none" stroke="midnightblue" d="M511.65,-189.44C517.84,-180.02 525.65,-166.34 529,-153 531.92,-141.36 532.32,-137.53 529,-126 518.83,-90.67 493.81,-55.72 476.61,-34.62"/>
<polygon fill="midnightblue" stroke="midnightblue" points="479.11,-32.15 470.01,-26.72 473.74,-36.64 479.11,-32.15"/>
</g>
<!-- Node11 -->
<g id="node11" class="node">
<title>Node11</title>
<g id="a_node11"><a xlink:title=" ">
<polygon fill="white" stroke="#bfbfbf" points="576,-126.5 576,-152.5 704,-152.5 704,-126.5 576,-126.5"/>
<text text-anchor="middle" x="640" y="-135.7" font-family="Source Sans Pro" font-size="16.00">unordered_map</text>
</a>
</g>
</g>
<!-- Node2&#45;&gt;Node11 -->
<g id="edge13" class="edge">
<title>Node2&#45;&gt;Node11</title>
<path fill="none" stroke="midnightblue" d="M530.07,-189.45C551.18,-180.05 580.69,-166.91 603.83,-156.61"/>
<polygon fill="midnightblue" stroke="midnightblue" points="605.28,-159.79 612.99,-152.53 602.43,-153.4 605.28,-159.79"/>
</g>
<!-- Node12 -->
<g id="node12" class="node">
<title>Node12</title>
<g id="a_node12"><a xlink:title=" ">
<polygon fill="white" stroke="#bfbfbf" points="722,-126.5 722,-152.5 786,-152.5 786,-126.5 722,-126.5"/>
<text text-anchor="middle" x="754" y="-135.7" font-family="Source Sans Pro" font-size="16.00">variant</text>
</a>
</g>
</g>
<!-- Node2&#45;&gt;Node12 -->
<g id="edge14" class="edge">
<title>Node2&#45;&gt;Node12</title>
<path fill="none" stroke="midnightblue" d="M559.86,-189.48C599.94,-180.75 655.06,-168.24 711.94,-153.18"/>
<polygon fill="midnightblue" stroke="midnightblue" points="713.07,-156.5 721.83,-150.54 711.27,-149.74 713.07,-156.5"/>
</g>
<!-- Node3&#45;&gt;Node4 -->
<g id="edge3" class="edge">
<title>Node3&#45;&gt;Node4</title>
<path fill="none" stroke="midnightblue" d="M427.59,-126.45C402.76,-116.92 367.91,-103.55 340.91,-93.19"/>
<polygon fill="midnightblue" stroke="midnightblue" points="341.94,-89.84 331.35,-89.53 339.43,-96.38 341.94,-89.84"/>
</g>
<!-- Node3&#45;&gt;Node10 -->
<g id="edge10" class="edge">
<title>Node3&#45;&gt;Node10</title>
<path fill="none" stroke="midnightblue" d="M459,-126.16C459,-105.36 459,-63.05 459,-36.9"/>
<polygon fill="midnightblue" stroke="midnightblue" points="462.5,-36.79 459,-26.79 455.5,-36.79 462.5,-36.79"/>
</g>
<!-- Node5 -->
<g id="node5" class="node">
<title>Node5</title>
<g id="a_node5"><a xlink:title=" ">
<polygon fill="white" stroke="#bfbfbf" points="164.5,-0.5 164.5,-26.5 249.5,-26.5 249.5,-0.5 164.5,-0.5"/>
<text text-anchor="middle" x="207" y="-9.7" font-family="Source Sans Pro" font-size="16.00">filesystem</text>
</a>
</g>
</g>
<!-- Node4&#45;&gt;Node5 -->
<g id="edge4" class="edge">
<title>Node4&#45;&gt;Node5</title>
<path fill="none" stroke="midnightblue" d="M281.63,-63.45C268,-54.51 249.2,-42.18 233.89,-32.14"/>
<polygon fill="midnightblue" stroke="midnightblue" points="235.62,-29.08 225.34,-26.53 231.78,-34.94 235.62,-29.08"/>
</g>
<!-- Node6 -->
<g id="node6" class="node">
<title>Node6</title>
<g id="a_node6"><a xlink:title=" ">
<polygon fill="white" stroke="#bfbfbf" points="268,-0.5 268,-26.5 336,-26.5 336,-0.5 268,-0.5"/>
<text text-anchor="middle" x="302" y="-9.7" font-family="Source Sans Pro" font-size="16.00">fstream</text>
</a>
</g>
</g>
<!-- Node4&#45;&gt;Node6 -->
<g id="edge5" class="edge">
<title>Node4&#45;&gt;Node6</title>
<path fill="none" stroke="midnightblue" d="M300.4,-63.45C300.64,-55.85 300.97,-45.79 301.27,-36.78"/>
<polygon fill="midnightblue" stroke="midnightblue" points="304.78,-36.64 301.61,-26.53 297.78,-36.41 304.78,-36.64"/>
</g>
<!-- Node7 -->
<g id="node7" class="node">
<title>Node7</title>
<g id="a_node7"><a xlink:title=" ">
<polygon fill="white" stroke="#bfbfbf" points="0,-0.5 0,-26.5 76,-26.5 76,-0.5 0,-0.5"/>
<text text-anchor="middle" x="38" y="-9.7" font-family="Source Sans Pro" font-size="16.00">iostream</text>
</a>
</g>
</g>
<!-- Node4&#45;&gt;Node7 -->
<g id="edge6" class="edge">
<title>Node4&#45;&gt;Node7</title>
<path fill="none" stroke="midnightblue" d="M257.87,-66.49C216.56,-57.55 151.56,-43.19 86.25,-27.25"/>
<polygon fill="midnightblue" stroke="midnightblue" points="86.73,-23.77 76.19,-24.79 85.07,-30.57 86.73,-23.77"/>
</g>
<!-- Node8 -->
<g id="node8" class="node">
<title>Node8</title>
<g id="a_node8"><a xlink:title=" ">
<polygon fill="white" stroke="#bfbfbf" points="94,-0.5 94,-26.5 146,-26.5 146,-0.5 94,-0.5"/>
<text text-anchor="middle" x="120" y="-9.7" font-family="Source Sans Pro" font-size="16.00">regex</text>
</a>
</g>
</g>
<!-- Node4&#45;&gt;Node8 -->
<g id="edge7" class="edge">
<title>Node4&#45;&gt;Node8</title>
<path fill="none" stroke="midnightblue" d="M263.28,-63.45C235.99,-54.44 197.62,-41.66 155.88,-27.27"/>
<polygon fill="midnightblue" stroke="midnightblue" points="156.95,-23.94 146.35,-23.98 154.66,-30.55 156.95,-23.94"/>
</g>
<!-- Node4&#45;&gt;Node9 -->
<g id="edge8" class="edge">
<title>Node4&#45;&gt;Node9</title>
<path fill="none" stroke="midnightblue" d="M316.2,-63.45C327.99,-54.68 344.17,-42.64 357.53,-32.7"/>
<polygon fill="midnightblue" stroke="midnightblue" points="359.9,-35.3 365.83,-26.53 355.72,-29.69 359.9,-35.3"/>
</g>
<!-- Node4&#45;&gt;Node10 -->
<g id="edge9" class="edge">
<title>Node4&#45;&gt;Node10</title>
<path fill="none" stroke="midnightblue" d="M331.41,-63.45C356.72,-53.74 392.45,-40.03 419.66,-29.59"/>
<polygon fill="midnightblue" stroke="midnightblue" points="421.18,-32.76 429.27,-25.91 418.68,-26.22 421.18,-32.76"/>
</g>
</g>
</svg>
