<?xml version="1.0" encoding="UTF-8" standalone="no"?>
<!DOCTYPE svg PUBLIC "-//W3C//DTD SVG 1.1//EN"
 "http://www.w3.org/Graphics/SVG/1.1/DTD/svg11.dtd">
<!-- Generated by graphviz version 2.43.0 (0)
 -->
<!-- Title: Illumination&#45;Engine/src/GraphicsModule/IEVersion.hpp Pages: 1 -->
<svg width="221pt" height="134pt"
 viewBox="0.00 0.00 221.00 134.00" xmlns="http://www.w3.org/2000/svg" xmlns:xlink="http://www.w3.org/1999/xlink">
<g id="graph0" class="graph" transform="scale(1 1) rotate(0) translate(4 130)">
<title>Illumination&#45;Engine/src/GraphicsModule/IEVersion.hpp</title>
<polygon fill="white" stroke="transparent" points="-4,4 -4,-130 217,-130 217,4 -4,4"/>
<!-- Node1 -->
<g id="node1" class="node">
<title>Node1</title>
<g id="a_node1"><a xlink:title=" ">
<polygon fill="#bfbfbf" stroke="black" points="30,-63.5 30,-125.5 187,-125.5 187,-63.5 30,-63.5"/>
<text text-anchor="start" x="38" y="-108.7" font-family="Source Sans Pro" font-size="16.00">Illumination&#45;Engine</text>
<text text-anchor="start" x="38" y="-90.7" font-family="Source Sans Pro" font-size="16.00">/src/GraphicsModule</text>
<text text-anchor="middle" x="108.5" y="-72.7" font-family="Source Sans Pro" font-size="16.00">/IEVersion.hpp</text>
</a>
</g>
</g>
<!-- Node2 -->
<g id="node2" class="node">
<title>Node2</title>
<g id="a_node2"><a xlink:title=" ">
<polygon fill="white" stroke="#bfbfbf" points="0,-0.5 0,-26.5 63,-26.5 63,-0.5 0,-0.5"/>
<text text-anchor="middle" x="31.5" y="-9.7" font-family="Source Sans Pro" font-size="16.00">cstdint</text>
</a>
</g>
</g>
<!-- Node1&#45;&gt;Node2 -->
<g id="edge1" class="edge">
<title>Node1&#45;&gt;Node2</title>
<path fill="none" stroke="midnightblue" d="M78.95,-63.18C69.37,-53.36 59.01,-42.73 50.42,-33.91"/>
<polygon fill="midnightblue" stroke="midnightblue" points="52.88,-31.42 43.39,-26.7 47.87,-36.31 52.88,-31.42"/>
</g>
<!-- Node3 -->
<g id="node3" class="node">
<title>Node3</title>
<g id="a_node3"><a xlink:title=" ">
<polygon fill="white" stroke="#bfbfbf" points="81,-0.5 81,-26.5 136,-26.5 136,-0.5 81,-0.5"/>
<text text-anchor="middle" x="108.5" y="-9.7" font-family="Source Sans Pro" font-size="16.00">string</text>
</a>
</g>
</g>
<!-- Node1&#45;&gt;Node3 -->
<g id="edge2" class="edge">
<title>Node1&#45;&gt;Node3</title>
<path fill="none" stroke="midnightblue" d="M108.5,-63.18C108.5,-54.45 108.5,-45.08 108.5,-36.91"/>
<polygon fill="midnightblue" stroke="midnightblue" points="112,-36.7 108.5,-26.7 105,-36.7 112,-36.7"/>
</g>
<!-- Node4 -->
<g id="node4" class="node">
<title>Node4</title>
<g id="a_node4"><a xlink:title=" ">
<polygon fill="white" stroke="#bfbfbf" points="154,-0.5 154,-26.5 213,-26.5 213,-0.5 154,-0.5"/>
<text text-anchor="middle" x="183.5" y="-9.7" font-family="Source Sans Pro" font-size="16.00">vector</text>
</a>
</g>
</g>
<!-- Node1&#45;&gt;Node4 -->
<g id="edge3" class="edge">
<title>Node1&#45;&gt;Node4</title>
<path fill="none" stroke="midnightblue" d="M137.28,-63.18C146.52,-53.45 156.5,-42.94 164.82,-34.18"/>
<polygon fill="midnightblue" stroke="midnightblue" points="167.57,-36.37 171.91,-26.7 162.49,-31.55 167.57,-36.37"/>
</g>
</g>
</svg>
