<?xml version="1.0" encoding="UTF-8" standalone="no"?>
<!DOCTYPE svg PUBLIC "-//W3C//DTD SVG 1.1//EN"
 "http://www.w3.org/Graphics/SVG/1.1/DTD/svg11.dtd">
<!-- Generated by graphviz version 2.43.0 (0)
 -->
<!-- Title: Illumination&#45;Engine/src/GraphicsModule/Renderable/IEVertex.cpp Pages: 1 -->
<svg width="537pt" height="197pt"
 viewBox="0.00 0.00 536.50 197.00" xmlns="http://www.w3.org/2000/svg" xmlns:xlink="http://www.w3.org/1999/xlink">
<g id="graph0" class="graph" transform="scale(1 1) rotate(0) translate(4 193)">
<title>Illumination&#45;Engine/src/GraphicsModule/Renderable/IEVertex.cpp</title>
<polygon fill="white" stroke="transparent" points="-4,4 -4,-193 532.5,-193 532.5,4 -4,4"/>
<!-- Node1 -->
<g id="node1" class="node">
<title>Node1</title>
<g id="a_node1"><a xlink:title=" ">
<polygon fill="#bfbfbf" stroke="black" points="281,-126.5 281,-188.5 469,-188.5 469,-126.5 281,-126.5"/>
<text text-anchor="start" x="289" y="-171.7" font-family="Source Sans Pro" font-size="16.00">Illumination&#45;Engine</text>
<text text-anchor="start" x="289" y="-153.7" font-family="Source Sans Pro" font-size="16.00">/src/GraphicsModule</text>
<text text-anchor="middle" x="375" y="-135.7" font-family="Source Sans Pro" font-size="16.00">/Renderable/IEVertex.cpp</text>
</a>
</g>
</g>
<!-- Node2 -->
<g id="node2" class="node">
<title>Node2</title>
<g id="a_node2"><a xlink:href="_i_e_vertex_8hpp.html" target="_top" xlink:title=" ">
<polygon fill="white" stroke="black" points="245.5,-63.5 245.5,-89.5 346.5,-89.5 346.5,-63.5 245.5,-63.5"/>
<text text-anchor="middle" x="296" y="-72.7" font-family="Source Sans Pro" font-size="16.00">IEVertex.hpp</text>
</a>
</g>
</g>
<!-- Node1&#45;&gt;Node2 -->
<g id="edge1" class="edge">
<title>Node1&#45;&gt;Node2</title>
<path fill="none" stroke="midnightblue" d="M344.68,-126.18C334.86,-116.36 324.23,-105.73 315.41,-96.91"/>
<polygon fill="midnightblue" stroke="midnightblue" points="317.75,-94.3 308.2,-89.7 312.8,-99.25 317.75,-94.3"/>
</g>
<!-- Node6 -->
<g id="node6" class="node">
<title>Node6</title>
<g id="a_node6"><a xlink:title=" ">
<polygon fill="white" stroke="#bfbfbf" points="347.5,-0.5 347.5,-26.5 402.5,-26.5 402.5,-0.5 347.5,-0.5"/>
<text text-anchor="middle" x="375" y="-9.7" font-family="Source Sans Pro" font-size="16.00">string</text>
</a>
</g>
</g>
<!-- Node1&#45;&gt;Node6 -->
<g id="edge7" class="edge">
<title>Node1&#45;&gt;Node6</title>
<path fill="none" stroke="midnightblue" d="M375,-126.39C375,-99.68 375,-61.26 375,-37.11"/>
<polygon fill="midnightblue" stroke="midnightblue" points="378.5,-36.81 375,-26.81 371.5,-36.81 378.5,-36.81"/>
</g>
<!-- Node7 -->
<g id="node7" class="node">
<title>Node7</title>
<g id="a_node7"><a xlink:title=" ">
<polygon fill="white" stroke="#bfbfbf" points="403.5,-63.5 403.5,-89.5 528.5,-89.5 528.5,-63.5 403.5,-63.5"/>
<text text-anchor="middle" x="466" y="-72.7" font-family="Source Sans Pro" font-size="16.00">vulkan/vulkan.h</text>
</a>
</g>
</g>
<!-- Node1&#45;&gt;Node7 -->
<g id="edge6" class="edge">
<title>Node1&#45;&gt;Node7</title>
<path fill="none" stroke="midnightblue" d="M409.66,-126.41C421.24,-116.36 433.8,-105.45 444.12,-96.49"/>
<polygon fill="midnightblue" stroke="midnightblue" points="446.6,-98.98 451.86,-89.78 442.01,-93.69 446.6,-98.98"/>
</g>
<!-- Node3 -->
<g id="node3" class="node">
<title>Node3</title>
<g id="a_node3"><a xlink:title=" ">
<polygon fill="white" stroke="#bfbfbf" points="0,-0.5 0,-26.5 104,-26.5 104,-0.5 0,-0.5"/>
<text text-anchor="middle" x="52" y="-9.7" font-family="Source Sans Pro" font-size="16.00">glm/glm.hpp</text>
</a>
</g>
</g>
<!-- Node2&#45;&gt;Node3 -->
<g id="edge2" class="edge">
<title>Node2&#45;&gt;Node3</title>
<path fill="none" stroke="midnightblue" d="M247.79,-63.45C208.19,-53.55 151.97,-39.49 109.93,-28.98"/>
<polygon fill="midnightblue" stroke="midnightblue" points="110.66,-25.56 100.11,-26.53 108.96,-32.35 110.66,-25.56"/>
</g>
<!-- Node4 -->
<g id="node4" class="node">
<title>Node4</title>
<g id="a_node4"><a xlink:title=" ">
<polygon fill="white" stroke="#bfbfbf" points="122,-0.5 122,-26.5 260,-26.5 260,-0.5 122,-0.5"/>
<text text-anchor="middle" x="191" y="-9.7" font-family="Source Sans Pro" font-size="16.00">include/GL/glew.h</text>
</a>
</g>
</g>
<!-- Node2&#45;&gt;Node4 -->
<g id="edge3" class="edge">
<title>Node2&#45;&gt;Node4</title>
<path fill="none" stroke="midnightblue" d="M275.26,-63.45C259.58,-54.34 237.85,-41.72 220.39,-31.57"/>
<polygon fill="midnightblue" stroke="midnightblue" points="222.11,-28.52 211.7,-26.53 218.59,-34.58 222.11,-28.52"/>
</g>
<!-- Node5 -->
<g id="node5" class="node">
<title>Node5</title>
<g id="a_node5"><a xlink:title=" ">
<polygon fill="white" stroke="#bfbfbf" points="278.5,-0.5 278.5,-26.5 329.5,-26.5 329.5,-0.5 278.5,-0.5"/>
<text text-anchor="middle" x="304" y="-9.7" font-family="Source Sans Pro" font-size="16.00">array</text>
</a>
</g>
</g>
<!-- Node2&#45;&gt;Node5 -->
<g id="edge4" class="edge">
<title>Node2&#45;&gt;Node5</title>
<path fill="none" stroke="midnightblue" d="M297.58,-63.45C298.59,-55.76 299.93,-45.57 301.12,-36.48"/>
<polygon fill="midnightblue" stroke="midnightblue" points="304.59,-36.9 302.42,-26.53 297.65,-35.99 304.59,-36.9"/>
</g>
<!-- Node2&#45;&gt;Node6 -->
<g id="edge5" class="edge">
<title>Node2&#45;&gt;Node6</title>
<path fill="none" stroke="midnightblue" d="M311.61,-63.45C322.97,-54.68 338.55,-42.64 351.43,-32.7"/>
<polygon fill="midnightblue" stroke="midnightblue" points="353.65,-35.41 359.42,-26.53 349.37,-29.87 353.65,-35.41"/>
</g>
</g>
</svg>
