<?xml version="1.0" encoding="UTF-8" standalone="no"?>
<!DOCTYPE svg PUBLIC "-//W3C//DTD SVG 1.1//EN"
 "http://www.w3.org/Graphics/SVG/1.1/DTD/svg11.dtd">
<!-- Generated by graphviz version 2.43.0 (0)
 -->
<!-- Title: Illumination&#45;Engine/src/Core/FileSystemModule/IEFile.hpp Pages: 1 -->
<svg width="215pt" height="134pt"
 viewBox="0.00 0.00 215.00 134.00" xmlns="http://www.w3.org/2000/svg" xmlns:xlink="http://www.w3.org/1999/xlink">
<g id="graph0" class="graph" transform="scale(1 1) rotate(0) translate(4 130)">
<title>Illumination&#45;Engine/src/Core/FileSystemModule/IEFile.hpp</title>
<polygon fill="white" stroke="transparent" points="-4,4 -4,-130 211,-130 211,4 -4,4"/>
<!-- Node1 -->
<g id="node1" class="node">
<title>Node1</title>
<g id="a_node1"><a xlink:title=" ">
<polygon fill="#bfbfbf" stroke="black" points="0,-63.5 0,-125.5 207,-125.5 207,-63.5 0,-63.5"/>
<text text-anchor="start" x="8" y="-108.7" font-family="Source Sans Pro" font-size="16.00">Illumination&#45;Engine</text>
<text text-anchor="start" x="8" y="-90.7" font-family="Source Sans Pro" font-size="16.00">/src/Core/FileSystemModule</text>
<text text-anchor="middle" x="103.5" y="-72.7" font-family="Source Sans Pro" font-size="16.00">/IEFile.hpp</text>
</a>
</g>
</g>
<!-- Node2 -->
<g id="node2" class="node">
<title>Node2</title>
<g id="a_node2"><a xlink:title=" ">
<polygon fill="white" stroke="#bfbfbf" points="37,-0.5 37,-26.5 96,-26.5 96,-0.5 37,-0.5"/>
<text text-anchor="middle" x="66.5" y="-9.7" font-family="Source Sans Pro" font-size="16.00">vector</text>
</a>
</g>
</g>
<!-- Node1&#45;&gt;Node2 -->
<g id="edge1" class="edge">
<title>Node1&#45;&gt;Node2</title>
<path fill="none" stroke="midnightblue" d="M89.3,-63.18C85.02,-54.05 80.42,-44.22 76.48,-35.81"/>
<polygon fill="midnightblue" stroke="midnightblue" points="79.63,-34.27 72.22,-26.7 73.29,-37.24 79.63,-34.27"/>
</g>
<!-- Node3 -->
<g id="node3" class="node">
<title>Node3</title>
<g id="a_node3"><a xlink:title=" ">
<polygon fill="white" stroke="#bfbfbf" points="114,-0.5 114,-26.5 169,-26.5 169,-0.5 114,-0.5"/>
<text text-anchor="middle" x="141.5" y="-9.7" font-family="Source Sans Pro" font-size="16.00">string</text>
</a>
</g>
</g>
<!-- Node1&#45;&gt;Node3 -->
<g id="edge2" class="edge">
<title>Node1&#45;&gt;Node3</title>
<path fill="none" stroke="midnightblue" d="M118.08,-63.18C122.48,-54.05 127.2,-44.22 131.25,-35.81"/>
<polygon fill="midnightblue" stroke="midnightblue" points="134.45,-37.23 135.63,-26.7 128.14,-34.2 134.45,-37.23"/>
</g>
</g>
</svg>
