<?xml version="1.0" encoding="UTF-8" standalone="no"?>
<!DOCTYPE svg PUBLIC "-//W3C//DTD SVG 1.1//EN"
 "http://www.w3.org/Graphics/SVG/1.1/DTD/svg11.dtd">
<!-- Generated by graphviz version 2.43.0 (0)
 -->
<!-- Title: Illumination&#45;Engine/src/GraphicsModule/Image/IEImageNEW.hpp Pages: 1 -->
<svg width="457pt" height="152pt"
 viewBox="0.00 0.00 456.50 152.00" xmlns="http://www.w3.org/2000/svg" xmlns:xlink="http://www.w3.org/1999/xlink">
<g id="graph0" class="graph" transform="scale(1 1) rotate(0) translate(4 148)">
<title>Illumination&#45;Engine/src/GraphicsModule/Image/IEImageNEW.hpp</title>
<polygon fill="white" stroke="transparent" points="-4,4 -4,-148 452.5,-148 452.5,4 -4,4"/>
<!-- Node1 -->
<g id="node1" class="node">
<title>Node1</title>
<g id="a_node1"><a xlink:title=" ">
<polygon fill="#bfbfbf" stroke="black" points="170.5,-81.5 170.5,-143.5 355.5,-143.5 355.5,-81.5 170.5,-81.5"/>
<text text-anchor="start" x="178.5" y="-126.7" font-family="Source Sans Pro" font-size="16.00">Illumination&#45;Engine</text>
<text text-anchor="start" x="178.5" y="-108.7" font-family="Source Sans Pro" font-size="16.00">/src/GraphicsModule</text>
<text text-anchor="middle" x="263" y="-90.7" font-family="Source Sans Pro" font-size="16.00">/Image/IEImageNEW.hpp</text>
</a>
</g>
</g>
<!-- Node2 -->
<g id="node2" class="node">
<title>Node2</title>
<g id="a_node2"><a xlink:title=" ">
<polygon fill="white" stroke="#bfbfbf" points="0,-0.5 0,-44.5 130,-44.5 130,-0.5 0,-0.5"/>
<text text-anchor="start" x="8" y="-27.7" font-family="Source Sans Pro" font-size="16.00">../contrib/stb/stb</text>
<text text-anchor="middle" x="65" y="-9.7" font-family="Source Sans Pro" font-size="16.00">_image.h</text>
</a>
</g>
</g>
<!-- Node1&#45;&gt;Node2 -->
<g id="edge1" class="edge">
<title>Node1&#45;&gt;Node2</title>
<path fill="none" stroke="midnightblue" d="M195.41,-81.46C171.39,-70.78 144.61,-58.88 121.6,-48.66"/>
<polygon fill="midnightblue" stroke="midnightblue" points="122.88,-45.39 112.32,-44.53 120.04,-51.79 122.88,-45.39"/>
</g>
<!-- Node3 -->
<g id="node3" class="node">
<title>Node3</title>
<g id="a_node3"><a xlink:title=" ">
<polygon fill="white" stroke="#bfbfbf" points="148.5,-9.5 148.5,-35.5 213.5,-35.5 213.5,-9.5 148.5,-9.5"/>
<text text-anchor="middle" x="181" y="-18.7" font-family="Source Sans Pro" font-size="16.00">cassert</text>
</a>
</g>
</g>
<!-- Node1&#45;&gt;Node3 -->
<g id="edge2" class="edge">
<title>Node1&#45;&gt;Node3</title>
<path fill="none" stroke="midnightblue" d="M234.78,-81.22C223.15,-68.73 209.99,-54.61 199.6,-43.47"/>
<polygon fill="midnightblue" stroke="midnightblue" points="201.97,-40.87 192.59,-35.94 196.85,-45.64 201.97,-40.87"/>
</g>
<!-- Node4 -->
<g id="node4" class="node">
<title>Node4</title>
<g id="a_node4"><a xlink:title=" ">
<polygon fill="white" stroke="#bfbfbf" points="231.5,-9.5 231.5,-35.5 294.5,-35.5 294.5,-9.5 231.5,-9.5"/>
<text text-anchor="middle" x="263" y="-18.7" font-family="Source Sans Pro" font-size="16.00">cstdint</text>
</a>
</g>
</g>
<!-- Node1&#45;&gt;Node4 -->
<g id="edge3" class="edge">
<title>Node1&#45;&gt;Node4</title>
<path fill="none" stroke="midnightblue" d="M263,-81.22C263,-69.7 263,-56.8 263,-46.12"/>
<polygon fill="midnightblue" stroke="midnightblue" points="266.5,-45.94 263,-35.94 259.5,-45.94 266.5,-45.94"/>
</g>
<!-- Node5 -->
<g id="node5" class="node">
<title>Node5</title>
<g id="a_node5"><a xlink:title=" ">
<polygon fill="white" stroke="#bfbfbf" points="312.5,-9.5 312.5,-35.5 371.5,-35.5 371.5,-9.5 312.5,-9.5"/>
<text text-anchor="middle" x="342" y="-18.7" font-family="Source Sans Pro" font-size="16.00">mutex</text>
</a>
</g>
</g>
<!-- Node1&#45;&gt;Node5 -->
<g id="edge4" class="edge">
<title>Node1&#45;&gt;Node5</title>
<path fill="none" stroke="midnightblue" d="M290.19,-81.22C301.39,-68.73 314.07,-54.61 324.08,-43.47"/>
<polygon fill="midnightblue" stroke="midnightblue" points="326.76,-45.72 330.83,-35.94 321.55,-41.04 326.76,-45.72"/>
</g>
<!-- Node6 -->
<g id="node6" class="node">
<title>Node6</title>
<g id="a_node6"><a xlink:title=" ">
<polygon fill="white" stroke="#bfbfbf" points="389.5,-9.5 389.5,-35.5 448.5,-35.5 448.5,-9.5 389.5,-9.5"/>
<text text-anchor="middle" x="419" y="-18.7" font-family="Source Sans Pro" font-size="16.00">vector</text>
</a>
</g>
</g>
<!-- Node1&#45;&gt;Node6 -->
<g id="edge5" class="edge">
<title>Node1&#45;&gt;Node6</title>
<path fill="none" stroke="midnightblue" d="M316.47,-81.39C336.69,-70 359.91,-56.91 381,-45 383.54,-43.57 386.17,-42.08 388.81,-40.59"/>
<polygon fill="midnightblue" stroke="midnightblue" points="390.72,-43.53 397.7,-35.56 387.27,-37.44 390.72,-43.53"/>
</g>
</g>
</svg>
