<?xml version="1.0" encoding="UTF-8" standalone="no"?>
<!DOCTYPE svg PUBLIC "-//W3C//DTD SVG 1.1//EN"
 "http://www.w3.org/Graphics/SVG/1.1/DTD/svg11.dtd">
<!-- Generated by graphviz version 2.43.0 (0)
 -->
<!-- Title: Illumination&#45;Engine/src/GraphicsModule/CommandBuffer/IECommandBuffer.hpp Pages: 1 -->
<svg width="2265pt" height="539pt"
 viewBox="0.00 0.00 2265.10 539.00" xmlns="http://www.w3.org/2000/svg" xmlns:xlink="http://www.w3.org/1999/xlink">
<g id="graph0" class="graph" transform="scale(1 1) rotate(0) translate(4 535)">
<title>Illumination&#45;Engine/src/GraphicsModule/CommandBuffer/IECommandBuffer.hpp</title>
<polygon fill="white" stroke="transparent" points="-4,4 -4,-535 2261.1,-535 2261.1,4 -4,4"/>
<!-- Node1 -->
<g id="node1" class="node">
<title>Node1</title>
<g id="a_node1"><a xlink:title=" ">
<polygon fill="#bfbfbf" stroke="black" points="1325.1,-468.5 1325.1,-530.5 1620.1,-530.5 1620.1,-468.5 1325.1,-468.5"/>
<text text-anchor="start" x="1333.1" y="-513.7" font-family="Source Sans Pro" font-size="16.00">Illumination&#45;Engine</text>
<text text-anchor="start" x="1333.1" y="-495.7" font-family="Source Sans Pro" font-size="16.00">/src/GraphicsModule</text>
<text text-anchor="middle" x="1472.6" y="-477.7" font-family="Source Sans Pro" font-size="16.00">/CommandBuffer/IECommandBuffer.hpp</text>
</a>
</g>
</g>
<!-- Node2 -->
<g id="node2" class="node">
<title>Node2</title>
<g id="a_node2"><a xlink:title=" ">
<polygon fill="white" stroke="#bfbfbf" points="727.1,-81.5 727.1,-107.5 852.1,-107.5 852.1,-81.5 727.1,-81.5"/>
<text text-anchor="middle" x="789.6" y="-90.7" font-family="Source Sans Pro" font-size="16.00">vulkan/vulkan.h</text>
</a>
</g>
</g>
<!-- Node1&#45;&gt;Node2 -->
<g id="edge1" class="edge">
<title>Node1&#45;&gt;Node2</title>
<path fill="none" stroke="midnightblue" d="M1433.55,-468.49C1397.06,-439.78 1341.73,-394.53 1297.6,-351 1278.76,-332.41 1280.77,-320.45 1258.6,-306 1213.02,-276.29 1190.13,-294.58 1141.6,-270 1087.75,-242.73 1080.51,-225.7 1032.6,-189 1006.98,-169.37 1004.5,-158.38 975.6,-144 954.56,-133.53 900.37,-119.9 855.87,-109.76"/>
<polygon fill="midnightblue" stroke="midnightblue" points="856.49,-106.31 845.96,-107.52 854.94,-113.14 856.49,-106.31"/>
</g>
<!-- Node3 -->
<g id="node3" class="node">
<title>Node3</title>
<g id="a_node3"><a xlink:title=" ">
<polygon fill="white" stroke="#bfbfbf" points="1599.1,-9.5 1599.1,-35.5 1658.1,-35.5 1658.1,-9.5 1599.1,-9.5"/>
<text text-anchor="middle" x="1628.6" y="-18.7" font-family="Source Sans Pro" font-size="16.00">vector</text>
</a>
</g>
</g>
<!-- Node1&#45;&gt;Node3 -->
<g id="edge2" class="edge">
<title>Node1&#45;&gt;Node3</title>
<path fill="none" stroke="midnightblue" d="M1620.33,-477.54C1767.15,-452.45 1970.6,-404.2 1970.6,-329.5 1970.6,-329.5 1970.6,-329.5 1970.6,-165.5 1970.6,-120.2 1951.29,-106.14 1913.6,-81 1873.86,-54.49 1737.08,-35.75 1668.48,-27.78"/>
<polygon fill="midnightblue" stroke="midnightblue" points="1668.81,-24.29 1658.48,-26.64 1668.02,-31.25 1668.81,-24.29"/>
</g>
<!-- Node4 -->
<g id="node4" class="node">
<title>Node4</title>
<g id="a_node4"><a xlink:title=" ">
<polygon fill="white" stroke="#bfbfbf" points="2036.6,-396.5 2036.6,-422.5 2100.6,-422.5 2100.6,-396.5 2036.6,-396.5"/>
<text text-anchor="middle" x="2068.6" y="-405.7" font-family="Source Sans Pro" font-size="16.00">variant</text>
</a>
</g>
</g>
<!-- Node1&#45;&gt;Node4 -->
<g id="edge3" class="edge">
<title>Node1&#45;&gt;Node4</title>
<path fill="none" stroke="midnightblue" d="M1620.14,-493.32C1732.34,-486.36 1889.56,-470.08 2022.6,-432 2027.33,-430.65 2032.18,-428.86 2036.88,-426.9"/>
<polygon fill="midnightblue" stroke="midnightblue" points="2038.54,-429.99 2046.22,-422.69 2035.66,-423.61 2038.54,-429.99"/>
</g>
<!-- Node5 -->
<g id="node5" class="node">
<title>Node5</title>
<g id="a_node5"><a xlink:title=" ">
<polygon fill="white" stroke="#bfbfbf" points="2119.1,-396.5 2119.1,-422.5 2180.1,-422.5 2180.1,-396.5 2119.1,-396.5"/>
<text text-anchor="middle" x="2149.6" y="-405.7" font-family="Source Sans Pro" font-size="16.00">thread</text>
</a>
</g>
</g>
<!-- Node1&#45;&gt;Node5 -->
<g id="edge4" class="edge">
<title>Node1&#45;&gt;Node5</title>
<path fill="none" stroke="midnightblue" d="M1620.37,-489.71C1779.38,-479.08 2021.33,-459.17 2109.6,-432 2113.67,-430.75 2117.8,-429.07 2121.79,-427.19"/>
<polygon fill="midnightblue" stroke="midnightblue" points="2123.44,-430.28 2130.73,-422.59 2120.24,-424.05 2123.44,-430.28"/>
</g>
<!-- Node6 -->
<g id="node6" class="node">
<title>Node6</title>
<g id="a_node6"><a xlink:title=" ">
<polygon fill="white" stroke="#bfbfbf" points="2198.1,-396.5 2198.1,-422.5 2257.1,-422.5 2257.1,-396.5 2198.1,-396.5"/>
<text text-anchor="middle" x="2227.6" y="-405.7" font-family="Source Sans Pro" font-size="16.00">mutex</text>
</a>
</g>
</g>
<!-- Node1&#45;&gt;Node6 -->
<g id="edge5" class="edge">
<title>Node1&#45;&gt;Node6</title>
<path fill="none" stroke="midnightblue" d="M1620.39,-492.1C1798.61,-483.12 2087.01,-464.15 2189.6,-432 2193.4,-430.81 2197.23,-429.2 2200.94,-427.4"/>
<polygon fill="midnightblue" stroke="midnightblue" points="2202.62,-430.47 2209.76,-422.65 2199.3,-424.31 2202.62,-430.47"/>
</g>
<!-- Node7 -->
<g id="node7" class="node">
<title>Node7</title>
<g id="a_node7"><a xlink:href="_i_e_buffer_8hpp.html" target="_top" xlink:title=" ">
<polygon fill="white" stroke="black" points="327.1,-234.5 327.1,-260.5 474.1,-260.5 474.1,-234.5 327.1,-234.5"/>
<text text-anchor="middle" x="400.6" y="-243.7" font-family="Source Sans Pro" font-size="16.00">Buffer/IEBuffer.hpp</text>
</a>
</g>
</g>
<!-- Node1&#45;&gt;Node7 -->
<g id="edge6" class="edge">
<title>Node1&#45;&gt;Node7</title>
<path fill="none" stroke="midnightblue" d="M1324.69,-493.06C1089.25,-483.57 649.04,-462.07 583.6,-432 504.33,-395.58 440.16,-309.06 413.69,-269.23"/>
<polygon fill="midnightblue" stroke="midnightblue" points="416.59,-267.28 408.2,-260.81 410.73,-271.1 416.59,-267.28"/>
</g>
<!-- Node17 -->
<g id="node17" class="node">
<title>Node17</title>
<g id="a_node17"><a xlink:href="_i_e_image_8hpp.html" target="_top" xlink:title=" ">
<polygon fill="white" stroke="black" points="492.1,-234.5 492.1,-260.5 641.1,-260.5 641.1,-234.5 492.1,-234.5"/>
<text text-anchor="middle" x="566.6" y="-243.7" font-family="Source Sans Pro" font-size="16.00">Image/IEImage.hpp</text>
</a>
</g>
</g>
<!-- Node1&#45;&gt;Node17 -->
<g id="edge24" class="edge">
<title>Node1&#45;&gt;Node17</title>
<path fill="none" stroke="midnightblue" d="M1325.04,-498.07C1087.35,-493.82 636.57,-469.85 540.6,-351 521.54,-327.4 537.92,-291.56 551.92,-269.12"/>
<polygon fill="midnightblue" stroke="midnightblue" points="554.91,-270.95 557.48,-260.67 549.06,-267.1 554.91,-270.95"/>
</g>
<!-- Node19 -->
<g id="node19" class="node">
<title>Node19</title>
<g id="a_node19"><a xlink:href="_i_e_dependent_8hpp.html" target="_top" xlink:title=" ">
<polygon fill="white" stroke="black" points="1998.6,-153.5 1998.6,-179.5 2134.6,-179.5 2134.6,-153.5 1998.6,-153.5"/>
<text text-anchor="middle" x="2066.6" y="-162.7" font-family="Source Sans Pro" font-size="16.00">IEDependent.hpp</text>
</a>
</g>
</g>
<!-- Node1&#45;&gt;Node19 -->
<g id="edge35" class="edge">
<title>Node1&#45;&gt;Node19</title>
<path fill="none" stroke="midnightblue" d="M1620.19,-496.64C1751.54,-491.96 1930.94,-477.17 1984.6,-432 2058.79,-369.56 2066.97,-241.32 2067.11,-189.72"/>
<polygon fill="midnightblue" stroke="midnightblue" points="2070.61,-189.63 2067.03,-179.66 2063.61,-189.69 2070.61,-189.63"/>
</g>
<!-- Node20 -->
<g id="node20" class="node">
<title>Node20</title>
<g id="a_node20"><a xlink:href="_i_e_pipeline_8hpp.html" target="_top" xlink:title=" ">
<polygon fill="white" stroke="black" points="1069.6,-306.5 1069.6,-350.5 1249.6,-350.5 1249.6,-306.5 1069.6,-306.5"/>
<text text-anchor="start" x="1077.6" y="-333.7" font-family="Source Sans Pro" font-size="16.00">GraphicsModule/Shader</text>
<text text-anchor="middle" x="1159.6" y="-315.7" font-family="Source Sans Pro" font-size="16.00">/IEPipeline.hpp</text>
</a>
</g>
</g>
<!-- Node1&#45;&gt;Node20 -->
<g id="edge38" class="edge">
<title>Node1&#45;&gt;Node20</title>
<path fill="none" stroke="midnightblue" d="M1343.23,-468.46C1315.79,-459.09 1287.82,-447.12 1263.6,-432 1240.13,-417.35 1240.23,-406.49 1220.6,-387 1210.72,-377.19 1199.72,-366.69 1189.8,-357.38"/>
<polygon fill="midnightblue" stroke="midnightblue" points="1192.16,-354.79 1182.46,-350.52 1187.38,-359.91 1192.16,-354.79"/>
</g>
<!-- Node30 -->
<g id="node30" class="node">
<title>Node30</title>
<g id="a_node30"><a xlink:href="_i_e_dependency_info_8hpp.html" target="_top" xlink:title=" ">
<polygon fill="white" stroke="black" points="1490.6,-387.5 1490.6,-431.5 1714.6,-431.5 1714.6,-387.5 1490.6,-387.5"/>
<text text-anchor="start" x="1498.6" y="-414.7" font-family="Source Sans Pro" font-size="16.00">CommandBuffer/Dependency</text>
<text text-anchor="middle" x="1602.6" y="-396.7" font-family="Source Sans Pro" font-size="16.00">Structs/IEDependencyInfo.hpp</text>
</a>
</g>
</g>
<!-- Node1&#45;&gt;Node30 -->
<g id="edge61" class="edge">
<title>Node1&#45;&gt;Node30</title>
<path fill="none" stroke="midnightblue" d="M1516.97,-468.46C1531.98,-458.31 1548.61,-447.04 1563.2,-437.17"/>
<polygon fill="midnightblue" stroke="midnightblue" points="1565.21,-440.04 1571.53,-431.53 1561.29,-434.24 1565.21,-440.04"/>
</g>
<!-- Node33 -->
<g id="node33" class="node">
<title>Node33</title>
<g id="a_node33"><a xlink:href="_i_e_copy_buffer_to_image_info_8hpp.html" target="_top" xlink:title=" ">
<polygon fill="white" stroke="black" points="778.1,-306.5 778.1,-350.5 1051.1,-350.5 1051.1,-306.5 778.1,-306.5"/>
<text text-anchor="start" x="786.1" y="-333.7" font-family="Source Sans Pro" font-size="16.00">CommandBuffer/Dependency</text>
<text text-anchor="middle" x="914.6" y="-315.7" font-family="Source Sans Pro" font-size="16.00">Structs/IECopyBufferToImageInfo.hpp</text>
</a>
</g>
</g>
<!-- Node1&#45;&gt;Node33 -->
<g id="edge73" class="edge">
<title>Node1&#45;&gt;Node33</title>
<path fill="none" stroke="midnightblue" d="M1324.88,-497.25C1189.65,-493.07 1002.36,-478.68 946.6,-432 925.9,-414.67 918.38,-384.15 915.75,-360.9"/>
<polygon fill="midnightblue" stroke="midnightblue" points="919.22,-360.46 914.86,-350.81 912.25,-361.08 919.22,-360.46"/>
</g>
<!-- Node34 -->
<g id="node34" class="node">
<title>Node34</title>
<g id="a_node34"><a xlink:href="_i_e_render_pass_begin_info_8hpp.html" target="_top" xlink:title=" ">
<polygon fill="white" stroke="black" points="955.6,-387.5 955.6,-431.5 1211.6,-431.5 1211.6,-387.5 955.6,-387.5"/>
<text text-anchor="start" x="963.6" y="-414.7" font-family="Source Sans Pro" font-size="16.00">CommandBuffer/Dependency</text>
<text text-anchor="middle" x="1083.6" y="-396.7" font-family="Source Sans Pro" font-size="16.00">Structs/IERenderPassBeginInfo.hpp</text>
</a>
</g>
</g>
<!-- Node1&#45;&gt;Node34 -->
<g id="edge78" class="edge">
<title>Node1&#45;&gt;Node34</title>
<path fill="none" stroke="midnightblue" d="M1339.81,-468.46C1289.68,-457.12 1233.44,-444.4 1186.45,-433.77"/>
<polygon fill="midnightblue" stroke="midnightblue" points="1187.09,-430.32 1176.56,-431.53 1185.55,-437.15 1187.09,-430.32"/>
</g>
<!-- Node7&#45;&gt;Node2 -->
<g id="edge20" class="edge">
<title>Node7&#45;&gt;Node2</title>
<path fill="none" stroke="midnightblue" d="M326.91,-245.37C211.87,-241.21 9.98,-222.85 83.6,-144 104.98,-121.09 540.86,-103.89 716.85,-97.85"/>
<polygon fill="midnightblue" stroke="midnightblue" points="717.17,-101.34 727.05,-97.5 716.93,-94.35 717.17,-101.34"/>
</g>
<!-- Node7&#45;&gt;Node3 -->
<g id="edge21" class="edge">
<title>Node7&#45;&gt;Node3</title>
<path fill="none" stroke="midnightblue" d="M327.05,-246.92C206.85,-245.2 -11.11,-230.51 64.6,-144 104.32,-98.61 274.02,-117.38 333.6,-108 400.08,-97.53 415.68,-88.15 482.6,-81 957.5,-30.29 1085.24,-121.96 1556.6,-45 1567.33,-43.25 1578.71,-40.36 1589.17,-37.25"/>
<polygon fill="midnightblue" stroke="midnightblue" points="1590.36,-40.55 1598.87,-34.25 1588.29,-33.87 1590.36,-40.55"/>
</g>
<!-- Node8 -->
<g id="node8" class="node">
<title>Node8</title>
<g id="a_node8"><a xlink:href="_i_e_dependency_8hpp.html" target="_top" xlink:title=" ">
<polygon fill="white" stroke="black" points="1161.1,-144.5 1161.1,-188.5 1406.1,-188.5 1406.1,-144.5 1161.1,-144.5"/>
<text text-anchor="start" x="1169.1" y="-171.7" font-family="Source Sans Pro" font-size="16.00">GraphicsModule/CommandBuffer</text>
<text text-anchor="middle" x="1283.6" y="-153.7" font-family="Source Sans Pro" font-size="16.00">/IEDependency.hpp</text>
</a>
</g>
</g>
<!-- Node7&#45;&gt;Node8 -->
<g id="edge7" class="edge">
<title>Node7&#45;&gt;Node8</title>
<path fill="none" stroke="midnightblue" d="M441.23,-234.4C454.62,-230.84 469.64,-227.29 483.6,-225 608.13,-204.57 957.37,-184.24 1150.68,-174.12"/>
<polygon fill="midnightblue" stroke="midnightblue" points="1151.1,-177.6 1160.91,-173.58 1150.74,-170.61 1151.1,-177.6"/>
</g>
<!-- Node11 -->
<g id="node11" class="node">
<title>Node11</title>
<g id="a_node11"><a xlink:href="_i_e_a_p_i_8hpp.html" target="_top" xlink:title=" ">
<polygon fill="white" stroke="black" points="279.1,-153.5 279.1,-179.5 362.1,-179.5 362.1,-153.5 279.1,-153.5"/>
<text text-anchor="middle" x="320.6" y="-162.7" font-family="Source Sans Pro" font-size="16.00">IEAPI.hpp</text>
</a>
</g>
</g>
<!-- Node7&#45;&gt;Node11 -->
<g id="edge12" class="edge">
<title>Node7&#45;&gt;Node11</title>
<path fill="none" stroke="midnightblue" d="M388.1,-234.16C375.3,-221.52 355.22,-201.69 340.29,-186.94"/>
<polygon fill="midnightblue" stroke="midnightblue" points="342.59,-184.29 333.01,-179.76 337.67,-189.27 342.59,-184.29"/>
</g>
<!-- Node13 -->
<g id="node13" class="node">
<title>Node13</title>
<g id="a_node13"><a xlink:title=" ">
<polygon fill="white" stroke="#bfbfbf" points="117.1,-9.5 117.1,-35.5 180.1,-35.5 180.1,-9.5 117.1,-9.5"/>
<text text-anchor="middle" x="148.6" y="-18.7" font-family="Source Sans Pro" font-size="16.00">cstdint</text>
</a>
</g>
</g>
<!-- Node7&#45;&gt;Node13 -->
<g id="edge22" class="edge">
<title>Node7&#45;&gt;Node13</title>
<path fill="none" stroke="midnightblue" d="M326.79,-246.54C225.76,-244.84 52.35,-235.08 12.6,-189 -33.45,-135.63 63.24,-70.57 116.55,-40.38"/>
<polygon fill="midnightblue" stroke="midnightblue" points="118.29,-43.42 125.33,-35.5 114.88,-37.3 118.29,-43.42"/>
</g>
<!-- Node14 -->
<g id="node14" class="node">
<title>Node14</title>
<g id="a_node14"><a xlink:title=" ">
<polygon fill="white" stroke="#bfbfbf" points="93.1,-153.5 93.1,-179.5 222.1,-179.5 222.1,-153.5 93.1,-153.5"/>
<text text-anchor="middle" x="157.6" y="-162.7" font-family="Source Sans Pro" font-size="16.00">vk_mem_alloc.h</text>
</a>
</g>
</g>
<!-- Node7&#45;&gt;Node14 -->
<g id="edge18" class="edge">
<title>Node7&#45;&gt;Node14</title>
<path fill="none" stroke="midnightblue" d="M363.43,-234.42C320.82,-220.56 250.91,-197.83 204.57,-182.77"/>
<polygon fill="midnightblue" stroke="midnightblue" points="205.36,-179.35 194.77,-179.58 203.19,-186 205.36,-179.35"/>
</g>
<!-- Node15 -->
<g id="node15" class="node">
<title>Node15</title>
<g id="a_node15"><a xlink:title=" ">
<polygon fill="white" stroke="#bfbfbf" points="575.1,-153.5 575.1,-179.5 658.1,-179.5 658.1,-153.5 575.1,-153.5"/>
<text text-anchor="middle" x="616.6" y="-162.7" font-family="Source Sans Pro" font-size="16.00">GL/glew.h</text>
</a>
</g>
</g>
<!-- Node7&#45;&gt;Node15 -->
<g id="edge19" class="edge">
<title>Node7&#45;&gt;Node15</title>
<path fill="none" stroke="midnightblue" d="M437.21,-234.48C470.81,-223.28 521.85,-205.82 565.6,-189 570.12,-187.26 574.85,-185.37 579.52,-183.46"/>
<polygon fill="midnightblue" stroke="midnightblue" points="581.05,-186.61 588.94,-179.54 578.36,-180.15 581.05,-186.61"/>
</g>
<!-- Node16 -->
<g id="node16" class="node">
<title>Node16</title>
<g id="a_node16"><a xlink:title=" ">
<polygon fill="white" stroke="#bfbfbf" points="714.6,-153.5 714.6,-179.5 800.6,-179.5 800.6,-153.5 714.6,-153.5"/>
<text text-anchor="middle" x="757.6" y="-162.7" font-family="Source Sans Pro" font-size="16.00">functional</text>
</a>
</g>
</g>
<!-- Node7&#45;&gt;Node16 -->
<g id="edge23" class="edge">
<title>Node7&#45;&gt;Node16</title>
<path fill="none" stroke="midnightblue" d="M445.28,-234.4C457.65,-231.19 471.11,-227.84 483.6,-225 564.86,-206.54 586.17,-206.68 667.6,-189 679.49,-186.42 692.23,-183.48 704.28,-180.62"/>
<polygon fill="midnightblue" stroke="midnightblue" points="705.28,-183.98 714.19,-178.25 703.65,-177.17 705.28,-183.98"/>
</g>
<!-- Node8&#45;&gt;Node2 -->
<g id="edge9" class="edge">
<title>Node8&#45;&gt;Node2</title>
<path fill="none" stroke="midnightblue" d="M1160.76,-146.05C1155.98,-145.35 1151.25,-144.66 1146.6,-144 1022.39,-126.27 990.76,-126.06 866.6,-108 865.13,-107.79 863.65,-107.57 862.16,-107.35"/>
<polygon fill="midnightblue" stroke="midnightblue" points="862.6,-103.87 852.19,-105.84 861.55,-110.8 862.6,-103.87"/>
</g>
<!-- Node8&#45;&gt;Node3 -->
<g id="edge8" class="edge">
<title>Node8&#45;&gt;Node3</title>
<path fill="none" stroke="midnightblue" d="M1161.05,-146.3C1077.86,-132.66 981.83,-115.51 975.6,-108 967.93,-98.77 967.38,-89.74 975.6,-81 1019.9,-33.87 1492.92,-56.33 1556.6,-45 1567.3,-43.1 1578.67,-40.15 1589.14,-37.05"/>
<polygon fill="midnightblue" stroke="midnightblue" points="1590.32,-40.35 1598.84,-34.05 1588.25,-33.66 1590.32,-40.35"/>
</g>
<!-- Node9 -->
<g id="node9" class="node">
<title>Node9</title>
<g id="a_node9"><a xlink:title=" ">
<polygon fill="white" stroke="#bfbfbf" points="449.1,-9.5 449.1,-35.5 504.1,-35.5 504.1,-9.5 449.1,-9.5"/>
<text text-anchor="middle" x="476.6" y="-18.7" font-family="Source Sans Pro" font-size="16.00">string</text>
</a>
</g>
</g>
<!-- Node8&#45;&gt;Node9 -->
<g id="edge10" class="edge">
<title>Node8&#45;&gt;Node9</title>
<path fill="none" stroke="midnightblue" d="M1160.85,-145.52C1101.64,-135.32 1029.71,-122.1 965.6,-108 918.96,-97.74 908.39,-90.54 861.6,-81 735.31,-55.25 583.52,-35.96 514.31,-27.79"/>
<polygon fill="midnightblue" stroke="midnightblue" points="514.66,-24.31 504.32,-26.62 513.84,-31.26 514.66,-24.31"/>
</g>
<!-- Node10 -->
<g id="node10" class="node">
<title>Node10</title>
<g id="a_node10"><a xlink:title=" ">
<polygon fill="white" stroke="#bfbfbf" points="1781.6,-81.5 1781.6,-107.5 1855.6,-107.5 1855.6,-81.5 1781.6,-81.5"/>
<text text-anchor="middle" x="1818.6" y="-90.7" font-family="Source Sans Pro" font-size="16.00">memory</text>
</a>
</g>
</g>
<!-- Node8&#45;&gt;Node10 -->
<g id="edge11" class="edge">
<title>Node8&#45;&gt;Node10</title>
<path fill="none" stroke="midnightblue" d="M1406.18,-145.36C1409.35,-144.89 1412.49,-144.44 1415.6,-144 1544.05,-125.82 1696.16,-108.71 1771.47,-100.53"/>
<polygon fill="midnightblue" stroke="midnightblue" points="1772.02,-103.99 1781.58,-99.43 1771.26,-97.03 1772.02,-103.99"/>
</g>
<!-- Node11&#45;&gt;Node9 -->
<g id="edge17" class="edge">
<title>Node11&#45;&gt;Node9</title>
<path fill="none" stroke="midnightblue" d="M326.37,-153.31C335.2,-135.65 353.5,-102.68 376.6,-81 395,-63.73 419.53,-49.52 439.68,-39.56"/>
<polygon fill="midnightblue" stroke="midnightblue" points="441.38,-42.62 448.88,-35.14 438.35,-36.31 441.38,-42.62"/>
</g>
<!-- Node12 -->
<g id="node12" class="node">
<title>Node12</title>
<g id="a_node12"><a xlink:href="_i_e_version_8hpp.html" target="_top" xlink:title=" ">
<polygon fill="white" stroke="black" points="214.6,-81.5 214.6,-107.5 324.6,-107.5 324.6,-81.5 214.6,-81.5"/>
<text text-anchor="middle" x="269.6" y="-90.7" font-family="Source Sans Pro" font-size="16.00">IEVersion.hpp</text>
</a>
</g>
</g>
<!-- Node11&#45;&gt;Node12 -->
<g id="edge13" class="edge">
<title>Node11&#45;&gt;Node12</title>
<path fill="none" stroke="midnightblue" d="M311.71,-153.31C304.18,-142.97 293.22,-127.93 284.37,-115.78"/>
<polygon fill="midnightblue" stroke="midnightblue" points="287.1,-113.57 278.38,-107.55 281.44,-117.7 287.1,-113.57"/>
</g>
<!-- Node12&#45;&gt;Node3 -->
<g id="edge16" class="edge">
<title>Node12&#45;&gt;Node3</title>
<path fill="none" stroke="midnightblue" d="M324.63,-88.05C351.7,-85.54 384.83,-82.75 414.6,-81 668.06,-66.09 1305.97,-85.66 1556.6,-45 1567.33,-43.26 1578.71,-40.37 1589.17,-37.27"/>
<polygon fill="midnightblue" stroke="midnightblue" points="1590.36,-40.57 1598.88,-34.26 1588.29,-33.88 1590.36,-40.57"/>
</g>
<!-- Node12&#45;&gt;Node9 -->
<g id="edge15" class="edge">
<title>Node12&#45;&gt;Node9</title>
<path fill="none" stroke="midnightblue" d="M305.18,-81.47C342.64,-68.8 401.35,-48.95 439.4,-36.08"/>
<polygon fill="midnightblue" stroke="midnightblue" points="440.73,-39.33 449.08,-32.81 438.48,-32.69 440.73,-39.33"/>
</g>
<!-- Node12&#45;&gt;Node13 -->
<g id="edge14" class="edge">
<title>Node12&#45;&gt;Node13</title>
<path fill="none" stroke="midnightblue" d="M248.8,-81.47C229.41,-70.25 200.27,-53.39 178.41,-40.74"/>
<polygon fill="midnightblue" stroke="midnightblue" points="179.94,-37.59 169.53,-35.61 176.44,-43.65 179.94,-37.59"/>
</g>
<!-- Node17&#45;&gt;Node2 -->
<g id="edge29" class="edge">
<title>Node17&#45;&gt;Node2</title>
<path fill="none" stroke="midnightblue" d="M593.53,-234.42C614.87,-224.11 644.79,-207.96 667.6,-189 687.73,-172.27 685.52,-160.8 705.6,-144 720.39,-131.63 738.76,-120.62 754.54,-112.23"/>
<polygon fill="midnightblue" stroke="midnightblue" points="756.22,-115.3 763.49,-107.6 753,-109.09 756.22,-115.3"/>
</g>
<!-- Node17&#45;&gt;Node3 -->
<g id="edge33" class="edge">
<title>Node17&#45;&gt;Node3</title>
<path fill="none" stroke="midnightblue" d="M512.99,-234.49C488.62,-226.06 462.05,-212.03 447.6,-189 436.97,-172.06 435.16,-159.66 447.6,-144 524.5,-47.17 596.08,-97.73 718.6,-81 1087.96,-30.58 1188.97,-106.8 1556.6,-45 1567.32,-43.2 1578.7,-40.29 1589.16,-37.19"/>
<polygon fill="midnightblue" stroke="midnightblue" points="1590.35,-40.48 1598.86,-34.18 1588.28,-33.8 1590.35,-40.48"/>
</g>
<!-- Node17&#45;&gt;Node8 -->
<g id="edge25" class="edge">
<title>Node17&#45;&gt;Node8</title>
<path fill="none" stroke="midnightblue" d="M628.63,-234.5C647.51,-231.11 668.36,-227.63 687.6,-225 846.25,-203.29 1029.77,-186.88 1150.79,-177.26"/>
<polygon fill="midnightblue" stroke="midnightblue" points="1151.15,-180.75 1160.85,-176.47 1150.6,-173.77 1151.15,-180.75"/>
</g>
<!-- Node17&#45;&gt;Node9 -->
<g id="edge32" class="edge">
<title>Node17&#45;&gt;Node9</title>
<path fill="none" stroke="midnightblue" d="M517.76,-234.48C478.09,-223.6 426.79,-206.64 414.6,-189 382.12,-141.99 429.7,-75.8 458.05,-43.21"/>
<polygon fill="midnightblue" stroke="midnightblue" points="460.73,-45.47 464.78,-35.68 455.51,-40.8 460.73,-45.47"/>
</g>
<!-- Node17&#45;&gt;Node11 -->
<g id="edge26" class="edge">
<title>Node17&#45;&gt;Node11</title>
<path fill="none" stroke="midnightblue" d="M523.68,-234.48C484.98,-223.41 426.64,-206.15 376.6,-189 371.3,-187.18 365.76,-185.18 360.31,-183.16"/>
<polygon fill="midnightblue" stroke="midnightblue" points="361.27,-179.77 350.68,-179.51 358.79,-186.32 361.27,-179.77"/>
</g>
<!-- Node17&#45;&gt;Node13 -->
<g id="edge31" class="edge">
<title>Node17&#45;&gt;Node13</title>
<path fill="none" stroke="midnightblue" d="M522.83,-234.4C510.22,-231.13 496.41,-227.73 483.6,-225 389.27,-204.89 352.6,-238.12 269.6,-189 259.73,-183.16 212.37,-117.26 205.6,-108 190.09,-86.78 173.4,-61.75 162.11,-44.46"/>
<polygon fill="midnightblue" stroke="midnightblue" points="164.82,-42.21 156.44,-35.73 158.95,-46.02 164.82,-42.21"/>
</g>
<!-- Node17&#45;&gt;Node14 -->
<g id="edge28" class="edge">
<title>Node17&#45;&gt;Node14</title>
<path fill="none" stroke="midnightblue" d="M523.73,-234.45C510.89,-231.09 496.73,-227.65 483.6,-225 374.85,-203.06 345.21,-211.61 236.6,-189 227.3,-187.07 217.48,-184.68 208.04,-182.2"/>
<polygon fill="midnightblue" stroke="midnightblue" points="208.94,-178.82 198.37,-179.61 207.12,-185.58 208.94,-178.82"/>
</g>
<!-- Node17&#45;&gt;Node15 -->
<g id="edge27" class="edge">
<title>Node17&#45;&gt;Node15</title>
<path fill="none" stroke="midnightblue" d="M574.41,-234.16C582.12,-221.98 594.04,-203.14 603.25,-188.59"/>
<polygon fill="midnightblue" stroke="midnightblue" points="606.45,-190.08 608.84,-179.76 600.54,-186.34 606.45,-190.08"/>
</g>
<!-- Node17&#45;&gt;Node16 -->
<g id="edge34" class="edge">
<title>Node17&#45;&gt;Node16</title>
<path fill="none" stroke="midnightblue" d="M596.02,-234.33C629.07,-220.66 682.81,-198.43 719.15,-183.4"/>
<polygon fill="midnightblue" stroke="midnightblue" points="720.55,-186.61 728.45,-179.55 717.87,-180.14 720.55,-186.61"/>
</g>
<!-- Node18 -->
<g id="node18" class="node">
<title>Node18</title>
<g id="a_node18"><a xlink:title=" ">
<polygon fill="white" stroke="#bfbfbf" points="456.6,-153.5 456.6,-179.5 556.6,-179.5 556.6,-153.5 456.6,-153.5"/>
<text text-anchor="middle" x="506.6" y="-162.7" font-family="Source Sans Pro" font-size="16.00">stb_image.h</text>
</a>
</g>
</g>
<!-- Node17&#45;&gt;Node18 -->
<g id="edge30" class="edge">
<title>Node17&#45;&gt;Node18</title>
<path fill="none" stroke="midnightblue" d="M557.22,-234.16C547.8,-221.75 533.12,-202.42 521.98,-187.76"/>
<polygon fill="midnightblue" stroke="midnightblue" points="524.74,-185.6 515.91,-179.76 519.17,-189.84 524.74,-185.6"/>
</g>
<!-- Node19&#45;&gt;Node3 -->
<g id="edge36" class="edge">
<title>Node19&#45;&gt;Node3</title>
<path fill="none" stroke="midnightblue" d="M2058.7,-153.33C2045.72,-134.43 2017.96,-98.38 1984.6,-81 1930.07,-52.59 1749.62,-33.92 1668.6,-26.78"/>
<polygon fill="midnightblue" stroke="midnightblue" points="1668.57,-23.26 1658.31,-25.88 1667.97,-30.23 1668.57,-23.26"/>
</g>
<!-- Node19&#45;&gt;Node10 -->
<g id="edge37" class="edge">
<title>Node19&#45;&gt;Node10</title>
<path fill="none" stroke="midnightblue" d="M2023.97,-153.47C1979.84,-141.01 1911.1,-121.61 1865.47,-108.73"/>
<polygon fill="midnightblue" stroke="midnightblue" points="1866.4,-105.35 1855.82,-106.01 1864.49,-112.09 1866.4,-105.35"/>
</g>
<!-- Node20&#45;&gt;Node2 -->
<g id="edge58" class="edge">
<title>Node20&#45;&gt;Node2</title>
<path fill="none" stroke="midnightblue" d="M1104.59,-306.42C1083.97,-297.04 1061.08,-284.75 1042.6,-270 986.28,-225.06 1000.04,-184.71 940.6,-144 917.33,-128.07 888.51,-117.12 862.31,-109.72"/>
<polygon fill="midnightblue" stroke="midnightblue" points="862.98,-106.27 852.41,-107.05 861.16,-113.03 862.98,-106.27"/>
</g>
<!-- Node20&#45;&gt;Node3 -->
<g id="edge60" class="edge">
<title>Node20&#45;&gt;Node3</title>
<path fill="none" stroke="midnightblue" d="M1249.78,-309.72C1391.77,-280.83 1654.11,-223.45 1680.6,-189 1709.86,-150.95 1697.85,-125.79 1680.6,-81 1674.84,-66.04 1663.18,-52.56 1652.36,-42.41"/>
<polygon fill="midnightblue" stroke="midnightblue" points="1654.54,-39.66 1644.73,-35.64 1649.89,-44.9 1654.54,-39.66"/>
</g>
<!-- Node20&#45;&gt;Node8 -->
<g id="edge57" class="edge">
<title>Node20&#45;&gt;Node8</title>
<path fill="none" stroke="midnightblue" d="M1176.06,-306.25C1197.9,-278.08 1236.52,-228.25 1261.04,-196.6"/>
<polygon fill="midnightblue" stroke="midnightblue" points="1263.9,-198.63 1267.26,-188.58 1258.37,-194.34 1263.9,-198.63"/>
</g>
<!-- Node20&#45;&gt;Node16 -->
<g id="edge59" class="edge">
<title>Node20&#45;&gt;Node16</title>
<path fill="none" stroke="midnightblue" d="M1069.57,-307.48C1066.55,-306.96 1063.55,-306.46 1060.6,-306 1019.46,-299.57 715.59,-300.82 687.6,-270 674.15,-255.19 679.05,-243.08 687.6,-225 695.5,-208.28 710.91,-194.79 725.27,-185.09"/>
<polygon fill="midnightblue" stroke="midnightblue" points="727.43,-187.86 734,-179.54 723.68,-181.95 727.43,-187.86"/>
</g>
<!-- Node21 -->
<g id="node21" class="node">
<title>Node21</title>
<g id="a_node21"><a xlink:href="_i_e_shader_8hpp.html" target="_top" xlink:title=" ">
<polygon fill="white" stroke="black" points="696.6,-225.5 696.6,-269.5 876.6,-269.5 876.6,-225.5 696.6,-225.5"/>
<text text-anchor="start" x="704.6" y="-252.7" font-family="Source Sans Pro" font-size="16.00">GraphicsModule/Shader</text>
<text text-anchor="middle" x="786.6" y="-234.7" font-family="Source Sans Pro" font-size="16.00">/IEShader.hpp</text>
</a>
</g>
</g>
<!-- Node20&#45;&gt;Node21 -->
<g id="edge39" class="edge">
<title>Node20&#45;&gt;Node21</title>
<path fill="none" stroke="midnightblue" d="M1069.5,-307.9C1066.49,-307.26 1063.52,-306.62 1060.6,-306 1002.99,-293.7 938.52,-280.16 886.6,-269.31"/>
<polygon fill="midnightblue" stroke="midnightblue" points="887.22,-265.87 876.72,-267.25 885.79,-272.72 887.22,-265.87"/>
</g>
<!-- Node21&#45;&gt;Node2 -->
<g id="edge41" class="edge">
<title>Node21&#45;&gt;Node2</title>
<path fill="none" stroke="midnightblue" d="M815.13,-225.31C825.88,-215.58 836.88,-203.07 842.6,-189 850.13,-170.47 850.66,-162.3 842.6,-144 837.34,-132.05 827.51,-121.76 817.74,-113.78"/>
<polygon fill="midnightblue" stroke="midnightblue" points="819.73,-110.89 809.65,-107.62 815.49,-116.46 819.73,-110.89"/>
</g>
<!-- Node21&#45;&gt;Node3 -->
<g id="edge43" class="edge">
<title>Node21&#45;&gt;Node3</title>
<path fill="none" stroke="midnightblue" d="M876.67,-234.61C905.37,-231.13 937.28,-227.57 966.6,-225 1037.99,-218.75 1558.61,-238.33 1610.6,-189 1649.55,-152.04 1641.45,-81.56 1634.07,-45.68"/>
<polygon fill="midnightblue" stroke="midnightblue" points="1637.44,-44.73 1631.86,-35.73 1630.61,-46.25 1637.44,-44.73"/>
</g>
<!-- Node21&#45;&gt;Node9 -->
<g id="edge42" class="edge">
<title>Node21&#45;&gt;Node9</title>
<path fill="none" stroke="midnightblue" d="M800.26,-225.38C812.68,-203.24 826.67,-168.34 809.6,-144 805.13,-137.64 599.89,-66.12 513.89,-36.37"/>
<polygon fill="midnightblue" stroke="midnightblue" points="514.85,-33 504.26,-33.04 512.57,-39.61 514.85,-33"/>
</g>
<!-- Node21&#45;&gt;Node11 -->
<g id="edge40" class="edge">
<title>Node21&#45;&gt;Node11</title>
<path fill="none" stroke="midnightblue" d="M696.47,-231.22C600.13,-214.89 450.69,-189.55 372.42,-176.29"/>
<polygon fill="midnightblue" stroke="midnightblue" points="372.77,-172.79 362.32,-174.57 371.6,-179.7 372.77,-172.79"/>
</g>
<!-- Node21&#45;&gt;Node15 -->
<g id="edge56" class="edge">
<title>Node21&#45;&gt;Node15</title>
<path fill="none" stroke="midnightblue" d="M741.04,-225.33C713.13,-212.36 677.94,-196.01 652.1,-184"/>
<polygon fill="midnightblue" stroke="midnightblue" points="653.24,-180.67 642.7,-179.63 650.29,-187.02 653.24,-180.67"/>
</g>
<!-- Node21&#45;&gt;Node16 -->
<g id="edge44" class="edge">
<title>Node21&#45;&gt;Node16</title>
<path fill="none" stroke="midnightblue" d="M778.83,-225.33C774.72,-214.13 769.68,-200.41 765.54,-189.14"/>
<polygon fill="midnightblue" stroke="midnightblue" points="768.78,-187.81 762.05,-179.63 762.21,-190.22 768.78,-187.81"/>
</g>
<!-- Node22 -->
<g id="node22" class="node">
<title>Node22</title>
<g id="a_node22"><a xlink:href="_i_e_file_8hpp.html" target="_top" xlink:title=" ">
<polygon fill="white" stroke="black" points="1424.1,-144.5 1424.1,-188.5 1601.1,-188.5 1601.1,-144.5 1424.1,-144.5"/>
<text text-anchor="start" x="1432.1" y="-171.7" font-family="Source Sans Pro" font-size="16.00">Core/FileSystemModule</text>
<text text-anchor="middle" x="1512.6" y="-153.7" font-family="Source Sans Pro" font-size="16.00">/IEFile.hpp</text>
</a>
</g>
</g>
<!-- Node21&#45;&gt;Node22 -->
<g id="edge45" class="edge">
<title>Node21&#45;&gt;Node22</title>
<path fill="none" stroke="midnightblue" d="M876.71,-235.04C905.41,-231.58 937.32,-227.92 966.6,-225 1162.5,-205.45 1215.86,-218.29 1413.74,-189.19"/>
<polygon fill="midnightblue" stroke="midnightblue" points="1414.51,-192.61 1423.88,-187.68 1413.48,-185.69 1414.51,-192.61"/>
</g>
<!-- Node22&#45;&gt;Node3 -->
<g id="edge50" class="edge">
<title>Node22&#45;&gt;Node3</title>
<path fill="none" stroke="midnightblue" d="M1536.4,-144.41C1547.63,-133.96 1560.87,-120.84 1571.6,-108 1588.64,-87.6 1605.3,-62.05 1616.17,-44.42"/>
<polygon fill="midnightblue" stroke="midnightblue" points="1619.37,-45.88 1621.57,-35.52 1613.39,-42.25 1619.37,-45.88"/>
</g>
<!-- Node22&#45;&gt;Node9 -->
<g id="edge51" class="edge">
<title>Node22&#45;&gt;Node9</title>
<path fill="none" stroke="midnightblue" d="M1423.88,-145.33C1421.09,-144.86 1418.33,-144.41 1415.6,-144 1221.59,-114.7 1163.22,-165.42 975.6,-108 952.19,-100.84 950.84,-88.69 927.6,-81 780.52,-32.33 593.87,-24.49 514.78,-23.48"/>
<polygon fill="midnightblue" stroke="midnightblue" points="514.38,-19.98 504.35,-23.38 514.31,-26.98 514.38,-19.98"/>
</g>
<!-- Node23 -->
<g id="node23" class="node">
<title>Node23</title>
<g id="a_node23"><a xlink:href="_i_e_logger_8hpp.html" target="_top" xlink:title=" ">
<polygon fill="white" stroke="black" points="1339.1,-81.5 1339.1,-107.5 1562.1,-107.5 1562.1,-81.5 1339.1,-81.5"/>
<text text-anchor="middle" x="1450.6" y="-90.7" font-family="Source Sans Pro" font-size="16.00">Core/LogModule/IELogger.hpp</text>
</a>
</g>
</g>
<!-- Node22&#45;&gt;Node23 -->
<g id="edge46" class="edge">
<title>Node22&#45;&gt;Node23</title>
<path fill="none" stroke="midnightblue" d="M1494,-144.5C1485.72,-135.15 1476.03,-124.22 1467.91,-115.05"/>
<polygon fill="midnightblue" stroke="midnightblue" points="1470.5,-112.7 1461.25,-107.53 1465.26,-117.34 1470.5,-112.7"/>
</g>
<!-- Node26 -->
<g id="node26" class="node">
<title>Node26</title>
<g id="a_node26"><a xlink:title=" ">
<polygon fill="white" stroke="#bfbfbf" points="1149.1,-81.5 1149.1,-107.5 1234.1,-107.5 1234.1,-81.5 1149.1,-81.5"/>
<text text-anchor="middle" x="1191.6" y="-90.7" font-family="Source Sans Pro" font-size="16.00">filesystem</text>
</a>
</g>
</g>
<!-- Node22&#45;&gt;Node26 -->
<g id="edge52" class="edge">
<title>Node22&#45;&gt;Node26</title>
<path fill="none" stroke="midnightblue" d="M1424.06,-145.83C1421.21,-145.21 1418.38,-144.6 1415.6,-144 1342.38,-128.22 1321.49,-125.35 1244.36,-108.13"/>
<polygon fill="midnightblue" stroke="midnightblue" points="1244.67,-104.61 1234.14,-105.84 1243.13,-111.44 1244.67,-104.61"/>
</g>
<!-- Node27 -->
<g id="node27" class="node">
<title>Node27</title>
<g id="a_node27"><a xlink:title=" ">
<polygon fill="white" stroke="#bfbfbf" points="1252.6,-81.5 1252.6,-107.5 1320.6,-107.5 1320.6,-81.5 1252.6,-81.5"/>
<text text-anchor="middle" x="1286.6" y="-90.7" font-family="Source Sans Pro" font-size="16.00">fstream</text>
</a>
</g>
</g>
<!-- Node22&#45;&gt;Node27 -->
<g id="edge53" class="edge">
<title>Node22&#45;&gt;Node27</title>
<path fill="none" stroke="midnightblue" d="M1444.79,-144.5C1407.67,-133 1362.77,-119.09 1330.3,-109.04"/>
<polygon fill="midnightblue" stroke="midnightblue" points="1331.23,-105.66 1320.64,-106.05 1329.16,-112.35 1331.23,-105.66"/>
</g>
<!-- Node28 -->
<g id="node28" class="node">
<title>Node28</title>
<g id="a_node28"><a xlink:title=" ">
<polygon fill="white" stroke="#bfbfbf" points="984.6,-81.5 984.6,-107.5 1036.6,-107.5 1036.6,-81.5 984.6,-81.5"/>
<text text-anchor="middle" x="1010.6" y="-90.7" font-family="Source Sans Pro" font-size="16.00">regex</text>
</a>
</g>
</g>
<!-- Node22&#45;&gt;Node28 -->
<g id="edge54" class="edge">
<title>Node22&#45;&gt;Node28</title>
<path fill="none" stroke="midnightblue" d="M1423.87,-145.38C1421.09,-144.9 1418.32,-144.43 1415.6,-144 1255.61,-118.58 1208.66,-143.06 1046.59,-107.81"/>
<polygon fill="midnightblue" stroke="midnightblue" points="1047.29,-104.38 1036.77,-105.63 1045.77,-111.21 1047.29,-104.38"/>
</g>
<!-- Node29 -->
<g id="node29" class="node">
<title>Node29</title>
<g id="a_node29"><a xlink:title=" ">
<polygon fill="white" stroke="#bfbfbf" points="1054.6,-81.5 1054.6,-107.5 1130.6,-107.5 1130.6,-81.5 1054.6,-81.5"/>
<text text-anchor="middle" x="1092.6" y="-90.7" font-family="Source Sans Pro" font-size="16.00">iostream</text>
</a>
</g>
</g>
<!-- Node22&#45;&gt;Node29 -->
<g id="edge55" class="edge">
<title>Node22&#45;&gt;Node29</title>
<path fill="none" stroke="midnightblue" d="M1423.85,-145.5C1421.07,-144.98 1418.32,-144.48 1415.6,-144 1294.2,-122.64 1261.59,-131.58 1140.6,-108 1140.5,-107.98 1140.4,-107.96 1140.3,-107.94"/>
<polygon fill="midnightblue" stroke="midnightblue" points="1141.26,-104.57 1130.75,-105.89 1139.8,-111.41 1141.26,-104.57"/>
</g>
<!-- Node23&#45;&gt;Node9 -->
<g id="edge49" class="edge">
<title>Node23&#45;&gt;Node9</title>
<path fill="none" stroke="midnightblue" d="M1338.86,-81.81C1335.74,-81.53 1332.65,-81.26 1329.6,-81 1014.85,-54.14 633.89,-32.2 514.34,-25.56"/>
<polygon fill="midnightblue" stroke="midnightblue" points="514.42,-22.06 504.24,-25 514.03,-29.05 514.42,-22.06"/>
</g>
<!-- Node24 -->
<g id="node24" class="node">
<title>Node24</title>
<g id="a_node24"><a xlink:title=" ">
<polygon fill="white" stroke="#bfbfbf" points="1420.1,-9.5 1420.1,-35.5 1547.1,-35.5 1547.1,-9.5 1420.1,-9.5"/>
<text text-anchor="middle" x="1483.6" y="-18.7" font-family="Source Sans Pro" font-size="16.00">spdlog/spdlog.h</text>
</a>
</g>
</g>
<!-- Node23&#45;&gt;Node24 -->
<g id="edge47" class="edge">
<title>Node23&#45;&gt;Node24</title>
<path fill="none" stroke="midnightblue" d="M1456.35,-81.31C1461.08,-71.27 1467.9,-56.8 1473.53,-44.85"/>
<polygon fill="midnightblue" stroke="midnightblue" points="1476.82,-46.09 1477.92,-35.55 1470.49,-43.11 1476.82,-46.09"/>
</g>
<!-- Node25 -->
<g id="node25" class="node">
<title>Node25</title>
<g id="a_node25"><a xlink:title=" ">
<polygon fill="white" stroke="#bfbfbf" points="1259.1,-0.5 1259.1,-44.5 1402.1,-44.5 1402.1,-0.5 1259.1,-0.5"/>
<text text-anchor="start" x="1267.1" y="-27.7" font-family="Source Sans Pro" font-size="16.00">spdlog/sinks/basic</text>
<text text-anchor="middle" x="1330.6" y="-9.7" font-family="Source Sans Pro" font-size="16.00">_file_sink.h</text>
</a>
</g>
</g>
<!-- Node23&#45;&gt;Node25 -->
<g id="edge48" class="edge">
<title>Node23&#45;&gt;Node25</title>
<path fill="none" stroke="midnightblue" d="M1429.97,-81.47C1415.04,-72.76 1394.3,-60.66 1375.62,-49.76"/>
<polygon fill="midnightblue" stroke="midnightblue" points="1377.34,-46.71 1366.94,-44.7 1373.81,-52.76 1377.34,-46.71"/>
</g>
<!-- Node30&#45;&gt;Node2 -->
<g id="edge64" class="edge">
<title>Node30&#45;&gt;Node2</title>
<path fill="none" stroke="midnightblue" d="M1585.54,-387.03C1562.25,-357.81 1522.9,-308.83 1518.6,-306 1439.4,-253.99 1188.17,-240.43 1108.6,-189 1086.61,-174.79 1093.33,-156.97 1070.6,-144 990.06,-98.05 954.6,-122.84 862.24,-108.7"/>
<polygon fill="midnightblue" stroke="midnightblue" points="862.65,-105.22 852.21,-107.04 861.51,-112.12 862.65,-105.22"/>
</g>
<!-- Node30&#45;&gt;Node3 -->
<g id="edge62" class="edge">
<title>Node30&#45;&gt;Node3</title>
<path fill="none" stroke="midnightblue" d="M1714.78,-398.29C1786.25,-389.63 1870.36,-374.75 1897.6,-351 1933.88,-319.36 1932.6,-296.64 1932.6,-248.5 1932.6,-248.5 1932.6,-248.5 1932.6,-165.5 1932.6,-50.14 1750.69,-28.29 1668.3,-24.3"/>
<polygon fill="midnightblue" stroke="midnightblue" points="1668.44,-20.8 1658.3,-23.88 1668.15,-27.8 1668.44,-20.8"/>
</g>
<!-- Node30&#45;&gt;Node10 -->
<g id="edge63" class="edge">
<title>Node30&#45;&gt;Node10</title>
<path fill="none" stroke="midnightblue" d="M1714.61,-398.53C1778.88,-390.23 1850.67,-375.66 1870.6,-351 1928.43,-279.45 1907.28,-228.37 1870.6,-144 1865.41,-132.06 1855.67,-121.73 1846.01,-113.7"/>
<polygon fill="midnightblue" stroke="midnightblue" points="1848.07,-110.87 1838.01,-107.52 1843.78,-116.41 1848.07,-110.87"/>
</g>
<!-- Node31 -->
<g id="node31" class="node">
<title>Node31</title>
<g id="a_node31"><a xlink:href="_i_e_buffer_memory_barrier_8hpp.html" target="_top" xlink:title=" ">
<polygon fill="white" stroke="black" points="1306.1,-315.5 1306.1,-341.5 1509.1,-341.5 1509.1,-315.5 1306.1,-315.5"/>
<text text-anchor="middle" x="1407.6" y="-324.7" font-family="Source Sans Pro" font-size="16.00">IEBufferMemoryBarrier.hpp</text>
</a>
</g>
</g>
<!-- Node30&#45;&gt;Node31 -->
<g id="edge65" class="edge">
<title>Node30&#45;&gt;Node31</title>
<path fill="none" stroke="midnightblue" d="M1550.6,-387.43C1518.06,-374.25 1476.81,-357.54 1446.98,-345.45"/>
<polygon fill="midnightblue" stroke="midnightblue" points="1447.91,-342.06 1437.33,-341.55 1445.29,-348.54 1447.91,-342.06"/>
</g>
<!-- Node32 -->
<g id="node32" class="node">
<title>Node32</title>
<g id="a_node32"><a xlink:href="_i_e_image_memory_barrier_8hpp.html" target="_top" xlink:title=" ">
<polygon fill="white" stroke="black" points="1566.1,-315.5 1566.1,-341.5 1769.1,-341.5 1769.1,-315.5 1566.1,-315.5"/>
<text text-anchor="middle" x="1667.6" y="-324.7" font-family="Source Sans Pro" font-size="16.00">IEImageMemoryBarrier.hpp</text>
</a>
</g>
</g>
<!-- Node30&#45;&gt;Node32 -->
<g id="edge69" class="edge">
<title>Node30&#45;&gt;Node32</title>
<path fill="none" stroke="midnightblue" d="M1620.02,-387.33C1629.7,-375.56 1641.68,-361 1651.19,-349.44"/>
<polygon fill="midnightblue" stroke="midnightblue" points="1653.97,-351.57 1657.62,-341.63 1648.56,-347.13 1653.97,-351.57"/>
</g>
<!-- Node31&#45;&gt;Node2 -->
<g id="edge66" class="edge">
<title>Node31&#45;&gt;Node2</title>
<path fill="none" stroke="midnightblue" d="M1367.11,-315.48C1303.01,-295.35 1175.68,-250.87 1080.6,-189 1056.09,-173.05 1058.6,-157.38 1032.6,-144 1024.91,-140.04 930.96,-121.91 862.18,-108.98"/>
<polygon fill="midnightblue" stroke="midnightblue" points="862.7,-105.52 852.23,-107.11 861.41,-112.4 862.7,-105.52"/>
</g>
<!-- Node31&#45;&gt;Node7 -->
<g id="edge68" class="edge">
<title>Node31&#45;&gt;Node7</title>
<path fill="none" stroke="midnightblue" d="M1334.26,-315.48C1310.21,-311.92 1283.32,-308.35 1258.6,-306 915.33,-273.34 824.55,-321.51 483.6,-270 472.67,-268.35 461.09,-265.85 450.17,-263.12"/>
<polygon fill="midnightblue" stroke="midnightblue" points="450.92,-259.7 440.36,-260.58 449.16,-266.48 450.92,-259.7"/>
</g>
<!-- Node31&#45;&gt;Node10 -->
<g id="edge67" class="edge">
<title>Node31&#45;&gt;Node10</title>
<path fill="none" stroke="midnightblue" d="M1467.22,-315.44C1541.54,-297.99 1669.4,-259.74 1756.6,-189 1780.78,-169.39 1798.93,-137.81 1809.16,-116.86"/>
<polygon fill="midnightblue" stroke="midnightblue" points="1812.46,-118.07 1813.54,-107.53 1806.12,-115.1 1812.46,-118.07"/>
</g>
<!-- Node32&#45;&gt;Node2 -->
<g id="edge71" class="edge">
<title>Node32&#45;&gt;Node2</title>
<path fill="none" stroke="midnightblue" d="M1658.36,-315.31C1640.54,-292.87 1598.99,-245.42 1551.6,-225 1388.08,-154.54 1313.44,-265.37 1152.6,-189 1127.33,-177 1133.54,-156.66 1108.6,-144 1011.04,-94.5 971.17,-124.32 862.25,-108.65"/>
<polygon fill="midnightblue" stroke="midnightblue" points="862.62,-105.16 852.2,-107.1 861.55,-112.08 862.62,-105.16"/>
</g>
<!-- Node32&#45;&gt;Node10 -->
<g id="edge70" class="edge">
<title>Node32&#45;&gt;Node10</title>
<path fill="none" stroke="midnightblue" d="M1723.31,-315.45C1748.96,-307.01 1777.44,-292.98 1794.6,-270 1828.43,-224.67 1825.9,-153.74 1821.89,-117.87"/>
<polygon fill="midnightblue" stroke="midnightblue" points="1825.31,-117.02 1820.58,-107.54 1818.37,-117.9 1825.31,-117.02"/>
</g>
<!-- Node32&#45;&gt;Node17 -->
<g id="edge72" class="edge">
<title>Node32&#45;&gt;Node17</title>
<path fill="none" stroke="midnightblue" d="M1594.64,-315.49C1570.49,-311.91 1543.45,-308.33 1518.6,-306 1150.53,-271.56 1055.06,-310.43 687.6,-270 670.49,-268.12 652.15,-265.29 635.05,-262.29"/>
<polygon fill="midnightblue" stroke="midnightblue" points="635.61,-258.84 625.15,-260.52 634.37,-265.73 635.61,-258.84"/>
</g>
<!-- Node33&#45;&gt;Node2 -->
<g id="edge75" class="edge">
<title>Node33&#45;&gt;Node2</title>
<path fill="none" stroke="midnightblue" d="M922.42,-306.26C934.46,-269.53 952.79,-193.38 918.6,-144 909.9,-131.44 877.79,-119.35 847.79,-110.37"/>
<polygon fill="midnightblue" stroke="midnightblue" points="848.73,-107 838.15,-107.58 846.78,-113.73 848.73,-107"/>
</g>
<!-- Node33&#45;&gt;Node7 -->
<g id="edge76" class="edge">
<title>Node33&#45;&gt;Node7</title>
<path fill="none" stroke="midnightblue" d="M778,-307.16C775.17,-306.77 772.37,-306.38 769.6,-306 642.67,-288.6 609.42,-294.11 483.6,-270 473.62,-268.09 463.06,-265.67 452.95,-263.15"/>
<polygon fill="midnightblue" stroke="midnightblue" points="453.57,-259.69 443.01,-260.6 451.83,-266.47 453.57,-259.69"/>
</g>
<!-- Node33&#45;&gt;Node10 -->
<g id="edge74" class="edge">
<title>Node33&#45;&gt;Node10</title>
<path fill="none" stroke="midnightblue" d="M1047.8,-306.5C1251.49,-273.92 1622.96,-212.5 1680.6,-189 1704.34,-179.32 1761.31,-138.26 1794.15,-113.88"/>
<polygon fill="midnightblue" stroke="midnightblue" points="1796.41,-116.57 1802.34,-107.78 1792.23,-110.95 1796.41,-116.57"/>
</g>
<!-- Node33&#45;&gt;Node17 -->
<g id="edge77" class="edge">
<title>Node33&#45;&gt;Node17</title>
<path fill="none" stroke="midnightblue" d="M816.95,-306.44C768.13,-295.77 708.18,-282.47 654.6,-270 644.95,-267.75 634.72,-265.31 624.78,-262.91"/>
<polygon fill="midnightblue" stroke="midnightblue" points="625.51,-259.48 614.97,-260.52 623.86,-266.28 625.51,-259.48"/>
</g>
<!-- Node34&#45;&gt;Node10 -->
<g id="edge79" class="edge">
<title>Node34&#45;&gt;Node10</title>
<path fill="none" stroke="midnightblue" d="M1211.74,-401.15C1406.13,-389.55 1755.56,-366.67 1778.6,-351 1841.83,-307.99 1828.25,-265.02 1836.6,-189 1838.78,-169.12 1840.13,-163.69 1836.6,-144 1834.95,-134.82 1831.68,-125.12 1828.37,-116.82"/>
<polygon fill="midnightblue" stroke="midnightblue" points="1831.56,-115.36 1824.43,-107.52 1825.11,-118.09 1831.56,-115.36"/>
</g>
<!-- Node35 -->
<g id="node35" class="node">
<title>Node35</title>
<g id="a_node35"><a xlink:href="_i_e_framebuffer_8hpp.html" target="_top" xlink:title=" ">
<polygon fill="white" stroke="black" points="549.1,-306.5 549.1,-350.5 760.1,-350.5 760.1,-306.5 549.1,-306.5"/>
<text text-anchor="start" x="557.1" y="-333.7" font-family="Source Sans Pro" font-size="16.00">GraphicsModule/RenderPass</text>
<text text-anchor="middle" x="654.6" y="-315.7" font-family="Source Sans Pro" font-size="16.00">/IEFramebuffer.hpp</text>
</a>
</g>
</g>
<!-- Node34&#45;&gt;Node35 -->
<g id="edge80" class="edge">
<title>Node34&#45;&gt;Node35</title>
<path fill="none" stroke="midnightblue" d="M968.01,-387.44C911.35,-377.09 841.83,-364.35 770.29,-351.13"/>
<polygon fill="midnightblue" stroke="midnightblue" points="770.66,-347.63 760.19,-349.26 769.38,-354.52 770.66,-347.63"/>
</g>
<!-- Node35&#45;&gt;Node2 -->
<g id="edge82" class="edge">
<title>Node35&#45;&gt;Node2</title>
<path fill="none" stroke="midnightblue" d="M760.4,-307.32C817.2,-295.41 877.28,-280.64 885.6,-270 908.85,-240.25 860.4,-146.42 858.6,-144 849.15,-131.31 835.38,-120.69 822.63,-112.65"/>
<polygon fill="midnightblue" stroke="midnightblue" points="824.4,-109.64 814.02,-107.51 820.81,-115.65 824.4,-109.64"/>
</g>
<!-- Node35&#45;&gt;Node3 -->
<g id="edge84" class="edge">
<title>Node35&#45;&gt;Node3</title>
<path fill="none" stroke="midnightblue" d="M760.15,-307.55C763.34,-307.02 766.49,-306.5 769.6,-306 793.59,-302.14 1618.9,-205.65 1636.6,-189 1671.94,-155.75 1662.13,-128.58 1652.6,-81 1650.12,-68.62 1644.91,-55.58 1639.98,-45.05"/>
<polygon fill="midnightblue" stroke="midnightblue" points="1643,-43.25 1635.43,-35.83 1636.72,-46.35 1643,-43.25"/>
</g>
<!-- Node35&#45;&gt;Node9 -->
<g id="edge83" class="edge">
<title>Node35&#45;&gt;Node9</title>
<path fill="none" stroke="midnightblue" d="M549.07,-319.57C391.01,-305.18 104.94,-268.59 45.6,-189 -57.4,-50.86 316.55,-28.02 439.02,-24.25"/>
<polygon fill="midnightblue" stroke="midnightblue" points="439.17,-27.74 449.07,-23.96 438.98,-20.75 439.17,-27.74"/>
</g>
<!-- Node35&#45;&gt;Node17 -->
<g id="edge81" class="edge">
<title>Node35&#45;&gt;Node17</title>
<path fill="none" stroke="midnightblue" d="M631.02,-306.33C617.52,-294.22 600.74,-279.15 587.69,-267.43"/>
<polygon fill="midnightblue" stroke="midnightblue" points="589.89,-264.7 580.11,-260.63 585.21,-269.91 589.89,-264.7"/>
</g>
</g>
</svg>
