<?xml version="1.0" encoding="UTF-8" standalone="no"?>
<!DOCTYPE svg PUBLIC "-//W3C//DTD SVG 1.1//EN"
 "http://www.w3.org/Graphics/SVG/1.1/DTD/svg11.dtd">
<!-- Generated by graphviz version 2.43.0 (0)
 -->
<!-- Title: Illumination&#45;Engine/src/InputModule/IEKeyboard.cpp Pages: 1 -->
<svg width="880pt" height="242pt"
 viewBox="0.00 0.00 879.50 242.00" xmlns="http://www.w3.org/2000/svg" xmlns:xlink="http://www.w3.org/1999/xlink">
<g id="graph0" class="graph" transform="scale(1 1) rotate(0) translate(4 238)">
<title>Illumination&#45;Engine/src/InputModule/IEKeyboard.cpp</title>
<polygon fill="white" stroke="transparent" points="-4,4 -4,-238 875.5,-238 875.5,4 -4,4"/>
<!-- Node1 -->
<g id="node1" class="node">
<title>Node1</title>
<g id="a_node1"><a xlink:title=" ">
<polygon fill="#bfbfbf" stroke="black" points="382,-189.5 382,-233.5 628,-233.5 628,-189.5 382,-189.5"/>
<text text-anchor="start" x="390" y="-216.7" font-family="Source Sans Pro" font-size="16.00">Illumination&#45;Engine</text>
<text text-anchor="middle" x="505" y="-198.7" font-family="Source Sans Pro" font-size="16.00">/src/InputModule/IEKeyboard.cpp</text>
</a>
</g>
</g>
<!-- Node2 -->
<g id="node2" class="node">
<title>Node2</title>
<g id="a_node2"><a xlink:href="_i_e_keyboard_8hpp.html" target="_top" xlink:title=" ">
<polygon fill="white" stroke="black" points="442.5,-126.5 442.5,-152.5 567.5,-152.5 567.5,-126.5 442.5,-126.5"/>
<text text-anchor="middle" x="505" y="-135.7" font-family="Source Sans Pro" font-size="16.00">IEKeyboard.hpp</text>
</a>
</g>
</g>
<!-- Node1&#45;&gt;Node2 -->
<g id="edge1" class="edge">
<title>Node1&#45;&gt;Node2</title>
<path fill="none" stroke="midnightblue" d="M505,-189.5C505,-181 505,-171.19 505,-162.59"/>
<polygon fill="midnightblue" stroke="midnightblue" points="508.5,-162.53 505,-152.53 501.5,-162.53 508.5,-162.53"/>
</g>
<!-- Node3 -->
<g id="node3" class="node">
<title>Node3</title>
<g id="a_node3"><a xlink:href="_i_e_window_user_8hpp.html" target="_top" xlink:title=" ">
<polygon fill="white" stroke="black" points="0,-63.5 0,-89.5 194,-89.5 194,-63.5 0,-63.5"/>
<text text-anchor="middle" x="97" y="-72.7" font-family="Source Sans Pro" font-size="16.00">../Core/IEWindowUser.hpp</text>
</a>
</g>
</g>
<!-- Node2&#45;&gt;Node3 -->
<g id="edge2" class="edge">
<title>Node2&#45;&gt;Node3</title>
<path fill="none" stroke="midnightblue" d="M442.14,-129.1C374.12,-118.93 265.01,-102.62 187.7,-91.06"/>
<polygon fill="midnightblue" stroke="midnightblue" points="187.9,-87.55 177.49,-89.53 186.86,-94.47 187.9,-87.55"/>
</g>
<!-- Node5 -->
<g id="node5" class="node">
<title>Node5</title>
<g id="a_node5"><a xlink:title=" ">
<polygon fill="white" stroke="#bfbfbf" points="212,-63.5 212,-89.5 350,-89.5 350,-63.5 212,-63.5"/>
<text text-anchor="middle" x="281" y="-72.7" font-family="Source Sans Pro" font-size="16.00">include/GL/glew.h</text>
</a>
</g>
</g>
<!-- Node2&#45;&gt;Node5 -->
<g id="edge4" class="edge">
<title>Node2&#45;&gt;Node5</title>
<path fill="none" stroke="midnightblue" d="M460.74,-126.45C424.7,-116.63 373.65,-102.73 335.16,-92.25"/>
<polygon fill="midnightblue" stroke="midnightblue" points="335.73,-88.78 325.16,-89.53 333.89,-95.53 335.73,-88.78"/>
</g>
<!-- Node6 -->
<g id="node6" class="node">
<title>Node6</title>
<g id="a_node6"><a xlink:title=" ">
<polygon fill="white" stroke="#bfbfbf" points="368.5,-63.5 368.5,-89.5 409.5,-89.5 409.5,-63.5 368.5,-63.5"/>
<text text-anchor="middle" x="389" y="-72.7" font-family="Source Sans Pro" font-size="16.00">any</text>
</a>
</g>
</g>
<!-- Node2&#45;&gt;Node6 -->
<g id="edge5" class="edge">
<title>Node2&#45;&gt;Node6</title>
<path fill="none" stroke="midnightblue" d="M482.08,-126.45C463.84,-116.86 438.19,-103.37 418.43,-92.98"/>
<polygon fill="midnightblue" stroke="midnightblue" points="420.02,-89.86 409.54,-88.3 416.76,-96.05 420.02,-89.86"/>
</g>
<!-- Node7 -->
<g id="node7" class="node">
<title>Node7</title>
<g id="a_node7"><a xlink:title=" ">
<polygon fill="white" stroke="#bfbfbf" points="427.5,-63.5 427.5,-89.5 490.5,-89.5 490.5,-63.5 427.5,-63.5"/>
<text text-anchor="middle" x="459" y="-72.7" font-family="Source Sans Pro" font-size="16.00">cstdint</text>
</a>
</g>
</g>
<!-- Node2&#45;&gt;Node7 -->
<g id="edge6" class="edge">
<title>Node2&#45;&gt;Node7</title>
<path fill="none" stroke="midnightblue" d="M495.91,-126.45C489.74,-118.26 481.42,-107.23 474.24,-97.72"/>
<polygon fill="midnightblue" stroke="midnightblue" points="476.88,-95.4 468.07,-89.53 471.3,-99.62 476.88,-95.4"/>
</g>
<!-- Node8 -->
<g id="node8" class="node">
<title>Node8</title>
<g id="a_node8"><a xlink:title=" ">
<polygon fill="white" stroke="#bfbfbf" points="509,-63.5 509,-89.5 595,-89.5 595,-63.5 509,-63.5"/>
<text text-anchor="middle" x="552" y="-72.7" font-family="Source Sans Pro" font-size="16.00">functional</text>
</a>
</g>
</g>
<!-- Node2&#45;&gt;Node8 -->
<g id="edge7" class="edge">
<title>Node2&#45;&gt;Node8</title>
<path fill="none" stroke="midnightblue" d="M514.29,-126.45C520.59,-118.26 529.09,-107.23 536.42,-97.72"/>
<polygon fill="midnightblue" stroke="midnightblue" points="539.4,-99.58 542.73,-89.53 533.86,-95.31 539.4,-99.58"/>
</g>
<!-- Node9 -->
<g id="node9" class="node">
<title>Node9</title>
<g id="a_node9"><a xlink:title=" ">
<polygon fill="white" stroke="#bfbfbf" points="613,-63.5 613,-89.5 721,-89.5 721,-63.5 613,-63.5"/>
<text text-anchor="middle" x="667" y="-72.7" font-family="Source Sans Pro" font-size="16.00">GLFW/glfw3.h</text>
</a>
</g>
</g>
<!-- Node2&#45;&gt;Node9 -->
<g id="edge8" class="edge">
<title>Node2&#45;&gt;Node9</title>
<path fill="none" stroke="midnightblue" d="M537.01,-126.45C562.41,-116.88 598.12,-103.44 625.68,-93.06"/>
<polygon fill="midnightblue" stroke="midnightblue" points="626.94,-96.33 635.06,-89.53 624.47,-89.78 626.94,-96.33"/>
</g>
<!-- Node10 -->
<g id="node10" class="node">
<title>Node10</title>
<g id="a_node10"><a xlink:title=" ">
<polygon fill="white" stroke="#bfbfbf" points="739.5,-63.5 739.5,-89.5 794.5,-89.5 794.5,-63.5 739.5,-63.5"/>
<text text-anchor="middle" x="767" y="-72.7" font-family="Source Sans Pro" font-size="16.00">string</text>
</a>
</g>
</g>
<!-- Node2&#45;&gt;Node10 -->
<g id="edge9" class="edge">
<title>Node2&#45;&gt;Node10</title>
<path fill="none" stroke="midnightblue" d="M567.54,-127C610.64,-118.62 669.36,-106.31 729.55,-89.92"/>
<polygon fill="midnightblue" stroke="midnightblue" points="730.51,-93.29 739.22,-87.26 728.65,-86.54 730.51,-93.29"/>
</g>
<!-- Node11 -->
<g id="node11" class="node">
<title>Node11</title>
<g id="a_node11"><a xlink:title=" ">
<polygon fill="white" stroke="#bfbfbf" points="812.5,-63.5 812.5,-89.5 871.5,-89.5 871.5,-63.5 812.5,-63.5"/>
<text text-anchor="middle" x="842" y="-72.7" font-family="Source Sans Pro" font-size="16.00">vector</text>
</a>
</g>
</g>
<!-- Node2&#45;&gt;Node11 -->
<g id="edge10" class="edge">
<title>Node2&#45;&gt;Node11</title>
<path fill="none" stroke="midnightblue" d="M567.7,-131.24C626.34,-123.8 716.42,-110.68 802.34,-90.18"/>
<polygon fill="midnightblue" stroke="midnightblue" points="803.36,-93.53 812.26,-87.77 801.71,-86.73 803.36,-93.53"/>
</g>
<!-- Node4 -->
<g id="node4" class="node">
<title>Node4</title>
<g id="a_node4"><a xlink:title=" ">
<polygon fill="white" stroke="#bfbfbf" points="60,-0.5 60,-26.5 134,-26.5 134,-0.5 60,-0.5"/>
<text text-anchor="middle" x="97" y="-9.7" font-family="Source Sans Pro" font-size="16.00">memory</text>
</a>
</g>
</g>
<!-- Node3&#45;&gt;Node4 -->
<g id="edge3" class="edge">
<title>Node3&#45;&gt;Node4</title>
<path fill="none" stroke="midnightblue" d="M97,-63.45C97,-55.85 97,-45.79 97,-36.78"/>
<polygon fill="midnightblue" stroke="midnightblue" points="100.5,-36.53 97,-26.53 93.5,-36.53 100.5,-36.53"/>
</g>
</g>
</svg>
