<?xml version="1.0" encoding="UTF-8" standalone="no"?>
<!DOCTYPE svg PUBLIC "-//W3C//DTD SVG 1.1//EN"
 "http://www.w3.org/Graphics/SVG/1.1/DTD/svg11.dtd">
<!-- Generated by graphviz version 2.43.0 (0)
 -->
<!-- Title: Illumination&#45;Engine/src/Core/LogModule/IELogger.cpp Pages: 1 -->
<svg width="737pt" height="215pt"
 viewBox="0.00 0.00 737.00 215.00" xmlns="http://www.w3.org/2000/svg" xmlns:xlink="http://www.w3.org/1999/xlink">
<g id="graph0" class="graph" transform="scale(1 1) rotate(0) translate(4 211)">
<title>Illumination&#45;Engine/src/Core/LogModule/IELogger.cpp</title>
<polygon fill="white" stroke="transparent" points="-4,4 -4,-211 733,-211 733,4 -4,4"/>
<!-- Node1 -->
<g id="node1" class="node">
<title>Node1</title>
<g id="a_node1"><a xlink:title=" ">
<polygon fill="#bfbfbf" stroke="black" points="332.5,-144.5 332.5,-206.5 491.5,-206.5 491.5,-144.5 332.5,-144.5"/>
<text text-anchor="start" x="340.5" y="-189.7" font-family="Source Sans Pro" font-size="16.00">Illumination&#45;Engine</text>
<text text-anchor="start" x="340.5" y="-171.7" font-family="Source Sans Pro" font-size="16.00">/src/Core/LogModule</text>
<text text-anchor="middle" x="412" y="-153.7" font-family="Source Sans Pro" font-size="16.00">/IELogger.cpp</text>
</a>
</g>
</g>
<!-- Node2 -->
<g id="node2" class="node">
<title>Node2</title>
<g id="a_node2"><a xlink:href="_i_e_logger_8hpp.html" target="_top" xlink:title=" ">
<polygon fill="white" stroke="black" points="153.5,-72.5 153.5,-98.5 258.5,-98.5 258.5,-72.5 153.5,-72.5"/>
<text text-anchor="middle" x="206" y="-81.7" font-family="Source Sans Pro" font-size="16.00">IELogger.hpp</text>
</a>
</g>
</g>
<!-- Node1&#45;&gt;Node2 -->
<g id="edge1" class="edge">
<title>Node1&#45;&gt;Node2</title>
<path fill="none" stroke="midnightblue" d="M341.68,-144.46C308.74,-130.39 270.81,-114.19 243.45,-102.5"/>
<polygon fill="midnightblue" stroke="midnightblue" points="244.81,-99.27 234.24,-98.56 242.06,-105.71 244.81,-99.27"/>
</g>
<!-- Node7 -->
<g id="node7" class="node">
<title>Node7</title>
<g id="a_node7"><a xlink:title=" ">
<polygon fill="white" stroke="#bfbfbf" points="277,-72.5 277,-98.5 397,-98.5 397,-72.5 277,-72.5"/>
<text text-anchor="middle" x="337" y="-81.7" font-family="Source Sans Pro" font-size="16.00">spdlog/async.h</text>
</a>
</g>
</g>
<!-- Node1&#45;&gt;Node7 -->
<g id="edge6" class="edge">
<title>Node1&#45;&gt;Node7</title>
<path fill="none" stroke="midnightblue" d="M386.19,-144.22C375.65,-131.85 363.75,-117.89 354.29,-106.79"/>
<polygon fill="midnightblue" stroke="midnightblue" points="356.75,-104.28 347.6,-98.94 351.42,-108.82 356.75,-104.28"/>
</g>
<!-- Node8 -->
<g id="node8" class="node">
<title>Node8</title>
<g id="a_node8"><a xlink:title=" ">
<polygon fill="white" stroke="#bfbfbf" points="415.5,-63.5 415.5,-107.5 558.5,-107.5 558.5,-63.5 415.5,-63.5"/>
<text text-anchor="start" x="423.5" y="-90.7" font-family="Source Sans Pro" font-size="16.00">spdlog/sinks/basic</text>
<text text-anchor="middle" x="487" y="-72.7" font-family="Source Sans Pro" font-size="16.00">_file_sink.h</text>
</a>
</g>
</g>
<!-- Node1&#45;&gt;Node8 -->
<g id="edge7" class="edge">
<title>Node1&#45;&gt;Node8</title>
<path fill="none" stroke="midnightblue" d="M437.81,-144.22C445.74,-134.91 454.45,-124.69 462.3,-115.48"/>
<polygon fill="midnightblue" stroke="midnightblue" points="465.12,-117.57 468.94,-107.68 459.79,-113.03 465.12,-117.57"/>
</g>
<!-- Node9 -->
<g id="node9" class="node">
<title>Node9</title>
<g id="a_node9"><a xlink:title=" ">
<polygon fill="white" stroke="#bfbfbf" points="577,-63.5 577,-107.5 729,-107.5 729,-63.5 577,-63.5"/>
<text text-anchor="start" x="585" y="-90.7" font-family="Source Sans Pro" font-size="16.00">spdlog/sinks/stdout</text>
<text text-anchor="middle" x="653" y="-72.7" font-family="Source Sans Pro" font-size="16.00">_color_sinks.h</text>
</a>
</g>
</g>
<!-- Node1&#45;&gt;Node9 -->
<g id="edge8" class="edge">
<title>Node1&#45;&gt;Node9</title>
<path fill="none" stroke="midnightblue" d="M491.58,-145.44C522.01,-134.33 556.38,-121.78 585.57,-111.12"/>
<polygon fill="midnightblue" stroke="midnightblue" points="587.06,-114.3 595.25,-107.59 584.66,-107.73 587.06,-114.3"/>
</g>
<!-- Node3 -->
<g id="node3" class="node">
<title>Node3</title>
<g id="a_node3"><a xlink:title=" ">
<polygon fill="white" stroke="#bfbfbf" points="0,-0.5 0,-26.5 74,-26.5 74,-0.5 0,-0.5"/>
<text text-anchor="middle" x="37" y="-9.7" font-family="Source Sans Pro" font-size="16.00">memory</text>
</a>
</g>
</g>
<!-- Node2&#45;&gt;Node3 -->
<g id="edge2" class="edge">
<title>Node2&#45;&gt;Node3</title>
<path fill="none" stroke="midnightblue" d="M176.95,-72.47C149.02,-60.9 106.61,-43.33 75.8,-30.57"/>
<polygon fill="midnightblue" stroke="midnightblue" points="76.82,-27.2 66.24,-26.61 74.14,-33.67 76.82,-27.2"/>
</g>
<!-- Node4 -->
<g id="node4" class="node">
<title>Node4</title>
<g id="a_node4"><a xlink:title=" ">
<polygon fill="white" stroke="#bfbfbf" points="92,-0.5 92,-26.5 214,-26.5 214,-0.5 92,-0.5"/>
<text text-anchor="middle" x="153" y="-9.7" font-family="Source Sans Pro" font-size="16.00">spdlog/logger.h</text>
</a>
</g>
</g>
<!-- Node2&#45;&gt;Node4 -->
<g id="edge3" class="edge">
<title>Node2&#45;&gt;Node4</title>
<path fill="none" stroke="midnightblue" d="M196.77,-72.31C188.94,-61.97 177.55,-46.93 168.35,-34.78"/>
<polygon fill="midnightblue" stroke="midnightblue" points="170.95,-32.41 162.13,-26.55 165.37,-36.64 170.95,-32.41"/>
</g>
<!-- Node5 -->
<g id="node5" class="node">
<title>Node5</title>
<g id="a_node5"><a xlink:title=" ">
<polygon fill="white" stroke="#bfbfbf" points="232.5,-0.5 232.5,-26.5 287.5,-26.5 287.5,-0.5 232.5,-0.5"/>
<text text-anchor="middle" x="260" y="-9.7" font-family="Source Sans Pro" font-size="16.00">string</text>
</a>
</g>
</g>
<!-- Node2&#45;&gt;Node5 -->
<g id="edge4" class="edge">
<title>Node2&#45;&gt;Node5</title>
<path fill="none" stroke="midnightblue" d="M215.41,-72.31C223.38,-61.97 234.98,-46.93 244.36,-34.78"/>
<polygon fill="midnightblue" stroke="midnightblue" points="247.36,-36.61 250.7,-26.55 241.82,-32.33 247.36,-36.61"/>
</g>
<!-- Node6 -->
<g id="node6" class="node">
<title>Node6</title>
<g id="a_node6"><a xlink:title=" ">
<polygon fill="white" stroke="#bfbfbf" points="305.5,-0.5 305.5,-26.5 430.5,-26.5 430.5,-0.5 305.5,-0.5"/>
<text text-anchor="middle" x="368" y="-9.7" font-family="Source Sans Pro" font-size="16.00">vulkan/vulkan.h</text>
</a>
</g>
</g>
<!-- Node2&#45;&gt;Node6 -->
<g id="edge5" class="edge">
<title>Node2&#45;&gt;Node6</title>
<path fill="none" stroke="midnightblue" d="M233.85,-72.47C260.51,-60.95 300.92,-43.49 330.42,-30.74"/>
<polygon fill="midnightblue" stroke="midnightblue" points="332.18,-33.79 339.97,-26.61 329.4,-27.36 332.18,-33.79"/>
</g>
</g>
</svg>
