<?xml version="1.0" encoding="UTF-8" standalone="no"?>
<!DOCTYPE svg PUBLIC "-//W3C//DTD SVG 1.1//EN"
 "http://www.w3.org/Graphics/SVG/1.1/DTD/svg11.dtd">
<!-- Generated by graphviz version 2.43.0 (0)
 -->
<!-- Title: Illumination&#45;Engine/src/GraphicsModule/CommandBuffer/DependencyStructs/IEImageMemoryBarrier.hpp Pages: 1 -->
<svg width="1143pt" height="359pt"
 viewBox="0.00 0.00 1143.00 359.00" xmlns="http://www.w3.org/2000/svg" xmlns:xlink="http://www.w3.org/1999/xlink">
<g id="graph0" class="graph" transform="scale(1 1) rotate(0) translate(4 355)">
<title>Illumination&#45;Engine/src/GraphicsModule/CommandBuffer/DependencyStructs/IEImageMemoryBarrier.hpp</title>
<polygon fill="white" stroke="transparent" points="-4,4 -4,-355 1139,-355 1139,4 -4,4"/>
<!-- Node1 -->
<g id="node1" class="node">
<title>Node1</title>
<g id="a_node1"><a xlink:title=" ">
<polygon fill="#bfbfbf" stroke="black" points="0,-270.5 0,-350.5 272,-350.5 272,-270.5 0,-270.5"/>
<text text-anchor="start" x="8" y="-333.7" font-family="Source Sans Pro" font-size="16.00">Illumination&#45;Engine</text>
<text text-anchor="start" x="8" y="-315.7" font-family="Source Sans Pro" font-size="16.00">/src/GraphicsModule</text>
<text text-anchor="start" x="8" y="-297.7" font-family="Source Sans Pro" font-size="16.00">/CommandBuffer/DependencyStructs</text>
<text text-anchor="middle" x="136" y="-279.7" font-family="Source Sans Pro" font-size="16.00">/IEImageMemoryBarrier.hpp</text>
</a>
</g>
</g>
<!-- Node2 -->
<g id="node2" class="node">
<title>Node2</title>
<g id="a_node2"><a xlink:title=" ">
<polygon fill="white" stroke="#bfbfbf" points="61,-63.5 61,-89.5 135,-89.5 135,-63.5 61,-63.5"/>
<text text-anchor="middle" x="98" y="-72.7" font-family="Source Sans Pro" font-size="16.00">memory</text>
</a>
</g>
</g>
<!-- Node1&#45;&gt;Node2 -->
<g id="edge1" class="edge">
<title>Node1&#45;&gt;Node2</title>
<path fill="none" stroke="midnightblue" d="M128.5,-270.36C126.33,-258.67 124,-245.83 122,-234 113.91,-186.21 105.58,-130 101.17,-99.65"/>
<polygon fill="midnightblue" stroke="midnightblue" points="104.63,-99.09 99.74,-89.7 97.7,-100.09 104.63,-99.09"/>
</g>
<!-- Node3 -->
<g id="node3" class="node">
<title>Node3</title>
<g id="a_node3"><a xlink:title=" ">
<polygon fill="white" stroke="#bfbfbf" points="153.5,-63.5 153.5,-89.5 278.5,-89.5 278.5,-63.5 153.5,-63.5"/>
<text text-anchor="middle" x="216" y="-72.7" font-family="Source Sans Pro" font-size="16.00">vulkan/vulkan.h</text>
</a>
</g>
</g>
<!-- Node1&#45;&gt;Node3 -->
<g id="edge2" class="edge">
<title>Node1&#45;&gt;Node3</title>
<path fill="none" stroke="midnightblue" d="M141.12,-270.46C147.14,-232.29 159.19,-173.2 181,-126 185.59,-116.07 192.33,-106.09 198.68,-97.79"/>
<polygon fill="midnightblue" stroke="midnightblue" points="201.54,-99.82 205.04,-89.82 196.06,-95.46 201.54,-99.82"/>
</g>
<!-- Node4 -->
<g id="node4" class="node">
<title>Node4</title>
<g id="a_node4"><a xlink:href="_i_e_image_8hpp.html" target="_top" xlink:title=" ">
<polygon fill="white" stroke="black" points="541.5,-207.5 541.5,-233.5 690.5,-233.5 690.5,-207.5 541.5,-207.5"/>
<text text-anchor="middle" x="616" y="-216.7" font-family="Source Sans Pro" font-size="16.00">Image/IEImage.hpp</text>
</a>
</g>
</g>
<!-- Node1&#45;&gt;Node4 -->
<g id="edge3" class="edge">
<title>Node1&#45;&gt;Node4</title>
<path fill="none" stroke="midnightblue" d="M272.26,-284.52C359.22,-268.58 468.68,-248.51 540.41,-235.36"/>
<polygon fill="midnightblue" stroke="midnightblue" points="541.07,-238.8 550.28,-233.55 539.81,-231.91 541.07,-238.8"/>
</g>
<!-- Node4&#45;&gt;Node3 -->
<g id="edge17" class="edge">
<title>Node4&#45;&gt;Node3</title>
<path fill="none" stroke="midnightblue" d="M541.22,-216.24C425.96,-210.44 215.72,-196.48 193,-171 175.07,-150.9 188.83,-119.05 201.48,-98.21"/>
<polygon fill="midnightblue" stroke="midnightblue" points="204.46,-100.06 206.92,-89.76 198.57,-96.28 204.46,-100.06"/>
</g>
<!-- Node5 -->
<g id="node5" class="node">
<title>Node5</title>
<g id="a_node5"><a xlink:href="_i_e_dependency_8hpp.html" target="_top" xlink:title=" ">
<polygon fill="white" stroke="black" points="202.5,-126.5 202.5,-170.5 447.5,-170.5 447.5,-126.5 202.5,-126.5"/>
<text text-anchor="start" x="210.5" y="-153.7" font-family="Source Sans Pro" font-size="16.00">GraphicsModule/CommandBuffer</text>
<text text-anchor="middle" x="325" y="-135.7" font-family="Source Sans Pro" font-size="16.00">/IEDependency.hpp</text>
</a>
</g>
</g>
<!-- Node4&#45;&gt;Node5 -->
<g id="edge4" class="edge">
<title>Node4&#45;&gt;Node5</title>
<path fill="none" stroke="midnightblue" d="M565.98,-207.47C526.6,-197.99 470.52,-184.51 422.37,-172.92"/>
<polygon fill="midnightblue" stroke="midnightblue" points="423.08,-169.49 412.54,-170.56 421.44,-176.3 423.08,-169.49"/>
</g>
<!-- Node6 -->
<g id="node6" class="node">
<title>Node6</title>
<g id="a_node6"><a xlink:title=" ">
<polygon fill="white" stroke="#bfbfbf" points="344.5,-0.5 344.5,-26.5 403.5,-26.5 403.5,-0.5 344.5,-0.5"/>
<text text-anchor="middle" x="374" y="-9.7" font-family="Source Sans Pro" font-size="16.00">vector</text>
</a>
</g>
</g>
<!-- Node4&#45;&gt;Node6 -->
<g id="edge21" class="edge">
<title>Node4&#45;&gt;Node6</title>
<path fill="none" stroke="midnightblue" d="M571.31,-207.47C547.45,-199.62 518.45,-187.69 496,-171 482.51,-160.97 418.64,-75.22 389.08,-35.07"/>
<polygon fill="midnightblue" stroke="midnightblue" points="391.74,-32.78 383,-26.8 386.1,-36.93 391.74,-32.78"/>
</g>
<!-- Node7 -->
<g id="node7" class="node">
<title>Node7</title>
<g id="a_node7"><a xlink:title=" ">
<polygon fill="white" stroke="#bfbfbf" points="487.5,-0.5 487.5,-26.5 542.5,-26.5 542.5,-0.5 487.5,-0.5"/>
<text text-anchor="middle" x="515" y="-9.7" font-family="Source Sans Pro" font-size="16.00">string</text>
</a>
</g>
</g>
<!-- Node4&#45;&gt;Node7 -->
<g id="edge20" class="edge">
<title>Node4&#45;&gt;Node7</title>
<path fill="none" stroke="midnightblue" d="M615.54,-207.32C613.94,-179.3 606.69,-109.14 574,-63 565.71,-51.3 553.9,-40.84 543.03,-32.65"/>
<polygon fill="midnightblue" stroke="midnightblue" points="544.75,-29.58 534.59,-26.59 540.67,-35.26 544.75,-29.58"/>
</g>
<!-- Node8 -->
<g id="node8" class="node">
<title>Node8</title>
<g id="a_node8"><a xlink:href="_i_e_a_p_i_8hpp.html" target="_top" xlink:title=" ">
<polygon fill="white" stroke="black" points="504.5,-135.5 504.5,-161.5 587.5,-161.5 587.5,-135.5 504.5,-135.5"/>
<text text-anchor="middle" x="546" y="-144.7" font-family="Source Sans Pro" font-size="16.00">IEAPI.hpp</text>
</a>
</g>
</g>
<!-- Node4&#45;&gt;Node8 -->
<g id="edge9" class="edge">
<title>Node4&#45;&gt;Node8</title>
<path fill="none" stroke="midnightblue" d="M603.81,-207.31C593.17,-196.67 577.55,-181.05 565.23,-168.73"/>
<polygon fill="midnightblue" stroke="midnightblue" points="567.6,-166.15 558.05,-161.55 562.65,-171.1 567.6,-166.15"/>
</g>
<!-- Node10 -->
<g id="node10" class="node">
<title>Node10</title>
<g id="a_node10"><a xlink:title=" ">
<polygon fill="white" stroke="#bfbfbf" points="601.5,-0.5 601.5,-26.5 664.5,-26.5 664.5,-0.5 601.5,-0.5"/>
<text text-anchor="middle" x="633" y="-9.7" font-family="Source Sans Pro" font-size="16.00">cstdint</text>
</a>
</g>
</g>
<!-- Node4&#45;&gt;Node10 -->
<g id="edge19" class="edge">
<title>Node4&#45;&gt;Node10</title>
<path fill="none" stroke="midnightblue" d="M620.47,-207.34C623.8,-197.65 628.09,-183.65 630,-171 637.17,-123.62 635.88,-67.25 634.39,-36.76"/>
<polygon fill="midnightblue" stroke="midnightblue" points="637.88,-36.56 633.85,-26.77 630.9,-36.94 637.88,-36.56"/>
</g>
<!-- Node11 -->
<g id="node11" class="node">
<title>Node11</title>
<g id="a_node11"><a xlink:title=" ">
<polygon fill="white" stroke="#bfbfbf" points="682.5,-135.5 682.5,-161.5 765.5,-161.5 765.5,-135.5 682.5,-135.5"/>
<text text-anchor="middle" x="724" y="-144.7" font-family="Source Sans Pro" font-size="16.00">GL/glew.h</text>
</a>
</g>
</g>
<!-- Node4&#45;&gt;Node11 -->
<g id="edge15" class="edge">
<title>Node4&#45;&gt;Node11</title>
<path fill="none" stroke="midnightblue" d="M634.81,-207.31C652,-196.17 677.62,-179.56 696.99,-167"/>
<polygon fill="midnightblue" stroke="midnightblue" points="698.92,-169.93 705.4,-161.55 695.11,-164.06 698.92,-169.93"/>
</g>
<!-- Node12 -->
<g id="node12" class="node">
<title>Node12</title>
<g id="a_node12"><a xlink:title=" ">
<polygon fill="white" stroke="#bfbfbf" points="783.5,-135.5 783.5,-161.5 912.5,-161.5 912.5,-135.5 783.5,-135.5"/>
<text text-anchor="middle" x="848" y="-144.7" font-family="Source Sans Pro" font-size="16.00">vk_mem_alloc.h</text>
</a>
</g>
</g>
<!-- Node4&#45;&gt;Node12 -->
<g id="edge16" class="edge">
<title>Node4&#45;&gt;Node12</title>
<path fill="none" stroke="midnightblue" d="M655.88,-207.47C695.31,-195.57 755.73,-177.34 798.27,-164.51"/>
<polygon fill="midnightblue" stroke="midnightblue" points="799.3,-167.85 807.86,-161.61 797.28,-161.15 799.3,-167.85"/>
</g>
<!-- Node13 -->
<g id="node13" class="node">
<title>Node13</title>
<g id="a_node13"><a xlink:title=" ">
<polygon fill="white" stroke="#bfbfbf" points="931,-135.5 931,-161.5 1031,-161.5 1031,-135.5 931,-135.5"/>
<text text-anchor="middle" x="981" y="-144.7" font-family="Source Sans Pro" font-size="16.00">stb_image.h</text>
</a>
</g>
</g>
<!-- Node4&#45;&gt;Node13 -->
<g id="edge18" class="edge">
<title>Node4&#45;&gt;Node13</title>
<path fill="none" stroke="midnightblue" d="M690.71,-211.73C753.18,-204.26 844.28,-191.12 922,-171 928.37,-169.35 935.02,-167.28 941.46,-165.09"/>
<polygon fill="midnightblue" stroke="midnightblue" points="943.09,-168.22 951.34,-161.57 940.74,-161.63 943.09,-168.22"/>
</g>
<!-- Node14 -->
<g id="node14" class="node">
<title>Node14</title>
<g id="a_node14"><a xlink:title=" ">
<polygon fill="white" stroke="#bfbfbf" points="1049,-135.5 1049,-161.5 1135,-161.5 1135,-135.5 1049,-135.5"/>
<text text-anchor="middle" x="1092" y="-144.7" font-family="Source Sans Pro" font-size="16.00">functional</text>
</a>
</g>
</g>
<!-- Node4&#45;&gt;Node14 -->
<g id="edge22" class="edge">
<title>Node4&#45;&gt;Node14</title>
<path fill="none" stroke="midnightblue" d="M690.67,-217.22C776.27,-213.17 920.21,-201.97 1040,-171 1045.76,-169.51 1051.71,-167.52 1057.45,-165.34"/>
<polygon fill="midnightblue" stroke="midnightblue" points="1058.86,-168.54 1066.83,-161.56 1056.25,-162.05 1058.86,-168.54"/>
</g>
<!-- Node5&#45;&gt;Node2 -->
<g id="edge8" class="edge">
<title>Node5&#45;&gt;Node2</title>
<path fill="none" stroke="midnightblue" d="M256.89,-126.5C220.68,-115.33 177.08,-101.89 144.72,-91.91"/>
<polygon fill="midnightblue" stroke="midnightblue" points="145.65,-88.53 135.06,-88.93 143.58,-95.22 145.65,-88.53"/>
</g>
<!-- Node5&#45;&gt;Node3 -->
<g id="edge6" class="edge">
<title>Node5&#45;&gt;Node3</title>
<path fill="none" stroke="midnightblue" d="M292.3,-126.5C276.72,-116.49 258.29,-104.66 243.45,-95.13"/>
<polygon fill="midnightblue" stroke="midnightblue" points="245.04,-91.99 234.73,-89.53 241.26,-97.88 245.04,-91.99"/>
</g>
<!-- Node5&#45;&gt;Node6 -->
<g id="edge5" class="edge">
<title>Node5&#45;&gt;Node6</title>
<path fill="none" stroke="midnightblue" d="M332.76,-126.43C341.83,-101.81 356.76,-61.3 365.95,-36.36"/>
<polygon fill="midnightblue" stroke="midnightblue" points="369.33,-37.31 369.5,-26.71 362.76,-34.89 369.33,-37.31"/>
</g>
<!-- Node5&#45;&gt;Node7 -->
<g id="edge7" class="edge">
<title>Node5&#45;&gt;Node7</title>
<path fill="none" stroke="midnightblue" d="M349.47,-126.26C370.45,-108.48 401.83,-82.88 431,-63 447.63,-51.66 467.05,-40.34 483.02,-31.49"/>
<polygon fill="midnightblue" stroke="midnightblue" points="484.89,-34.45 491.98,-26.58 481.53,-28.31 484.89,-34.45"/>
</g>
<!-- Node8&#45;&gt;Node7 -->
<g id="edge14" class="edge">
<title>Node8&#45;&gt;Node7</title>
<path fill="none" stroke="midnightblue" d="M551.65,-135.33C558.62,-118.52 568.46,-87.51 559,-63 554.67,-51.79 546.42,-41.58 538.23,-33.44"/>
<polygon fill="midnightblue" stroke="midnightblue" points="540.54,-30.81 530.83,-26.58 535.78,-35.95 540.54,-30.81"/>
</g>
<!-- Node9 -->
<g id="node9" class="node">
<title>Node9</title>
<g id="a_node9"><a xlink:href="_i_e_version_8hpp.html" target="_top" xlink:title=" ">
<polygon fill="white" stroke="black" points="440,-63.5 440,-89.5 550,-89.5 550,-63.5 440,-63.5"/>
<text text-anchor="middle" x="495" y="-72.7" font-family="Source Sans Pro" font-size="16.00">IEVersion.hpp</text>
</a>
</g>
</g>
<!-- Node8&#45;&gt;Node9 -->
<g id="edge10" class="edge">
<title>Node8&#45;&gt;Node9</title>
<path fill="none" stroke="midnightblue" d="M537.12,-135.31C529.58,-124.97 518.63,-109.93 509.77,-97.78"/>
<polygon fill="midnightblue" stroke="midnightblue" points="512.5,-95.57 503.78,-89.55 506.84,-99.7 512.5,-95.57"/>
</g>
<!-- Node9&#45;&gt;Node6 -->
<g id="edge13" class="edge">
<title>Node9&#45;&gt;Node6</title>
<path fill="none" stroke="midnightblue" d="M471.09,-63.45C452.78,-54.22 427.3,-41.37 407.04,-31.16"/>
<polygon fill="midnightblue" stroke="midnightblue" points="408.36,-27.9 397.86,-26.53 405.21,-34.15 408.36,-27.9"/>
</g>
<!-- Node9&#45;&gt;Node7 -->
<g id="edge12" class="edge">
<title>Node9&#45;&gt;Node7</title>
<path fill="none" stroke="midnightblue" d="M498.95,-63.45C501.5,-55.68 504.89,-45.35 507.89,-36.18"/>
<polygon fill="midnightblue" stroke="midnightblue" points="511.27,-37.12 511.06,-26.53 504.62,-34.94 511.27,-37.12"/>
</g>
<!-- Node9&#45;&gt;Node10 -->
<g id="edge11" class="edge">
<title>Node9&#45;&gt;Node10</title>
<path fill="none" stroke="midnightblue" d="M522.26,-63.45C543.53,-54.05 573.26,-40.91 596.57,-30.61"/>
<polygon fill="midnightblue" stroke="midnightblue" points="598.06,-33.77 605.79,-26.53 595.23,-27.37 598.06,-33.77"/>
</g>
</g>
</svg>
