<?xml version="1.0" encoding="UTF-8" standalone="no"?>
<!DOCTYPE svg PUBLIC "-//W3C//DTD SVG 1.1//EN"
 "http://www.w3.org/Graphics/SVG/1.1/DTD/svg11.dtd">
<!-- Generated by graphviz version 2.43.0 (0)
 -->
<!-- Title: Illumination&#45;Engine/src/GraphicsModule/CommandBuffer/IEDependency.hpp Pages: 1 -->
<svg width="376pt" height="134pt"
 viewBox="0.00 0.00 375.50 134.00" xmlns="http://www.w3.org/2000/svg" xmlns:xlink="http://www.w3.org/1999/xlink">
<g id="graph0" class="graph" transform="scale(1 1) rotate(0) translate(4 130)">
<title>Illumination&#45;Engine/src/GraphicsModule/CommandBuffer/IEDependency.hpp</title>
<polygon fill="white" stroke="transparent" points="-4,4 -4,-130 371.5,-130 371.5,4 -4,4"/>
<!-- Node1 -->
<g id="node1" class="node">
<title>Node1</title>
<g id="a_node1"><a xlink:title=" ">
<polygon fill="#bfbfbf" stroke="black" points="59.5,-63.5 59.5,-125.5 327.5,-125.5 327.5,-63.5 59.5,-63.5"/>
<text text-anchor="start" x="67.5" y="-108.7" font-family="Source Sans Pro" font-size="16.00">Illumination&#45;Engine</text>
<text text-anchor="start" x="67.5" y="-90.7" font-family="Source Sans Pro" font-size="16.00">/src/GraphicsModule</text>
<text text-anchor="middle" x="193.5" y="-72.7" font-family="Source Sans Pro" font-size="16.00">/CommandBuffer/IEDependency.hpp</text>
</a>
</g>
</g>
<!-- Node2 -->
<g id="node2" class="node">
<title>Node2</title>
<g id="a_node2"><a xlink:title=" ">
<polygon fill="white" stroke="#bfbfbf" points="0,-0.5 0,-26.5 59,-26.5 59,-0.5 0,-0.5"/>
<text text-anchor="middle" x="29.5" y="-9.7" font-family="Source Sans Pro" font-size="16.00">vector</text>
</a>
</g>
</g>
<!-- Node1&#45;&gt;Node2 -->
<g id="edge1" class="edge">
<title>Node1&#45;&gt;Node2</title>
<path fill="none" stroke="midnightblue" d="M131.03,-63.41C108.16,-52.39 83.14,-40.34 63.66,-30.95"/>
<polygon fill="midnightblue" stroke="midnightblue" points="65.1,-27.76 54.57,-26.58 62.06,-34.07 65.1,-27.76"/>
</g>
<!-- Node3 -->
<g id="node3" class="node">
<title>Node3</title>
<g id="a_node3"><a xlink:title=" ">
<polygon fill="white" stroke="#bfbfbf" points="77,-0.5 77,-26.5 202,-26.5 202,-0.5 77,-0.5"/>
<text text-anchor="middle" x="139.5" y="-9.7" font-family="Source Sans Pro" font-size="16.00">vulkan/vulkan.h</text>
</a>
</g>
</g>
<!-- Node1&#45;&gt;Node3 -->
<g id="edge2" class="edge">
<title>Node1&#45;&gt;Node3</title>
<path fill="none" stroke="midnightblue" d="M172.78,-63.18C166.33,-53.75 159.38,-43.58 153.51,-34.99"/>
<polygon fill="midnightblue" stroke="midnightblue" points="156.37,-32.98 147.84,-26.7 150.59,-36.93 156.37,-32.98"/>
</g>
<!-- Node4 -->
<g id="node4" class="node">
<title>Node4</title>
<g id="a_node4"><a xlink:title=" ">
<polygon fill="white" stroke="#bfbfbf" points="220,-0.5 220,-26.5 275,-26.5 275,-0.5 220,-0.5"/>
<text text-anchor="middle" x="247.5" y="-9.7" font-family="Source Sans Pro" font-size="16.00">string</text>
</a>
</g>
</g>
<!-- Node1&#45;&gt;Node4 -->
<g id="edge3" class="edge">
<title>Node1&#45;&gt;Node4</title>
<path fill="none" stroke="midnightblue" d="M214.22,-63.18C220.67,-53.75 227.62,-43.58 233.49,-34.99"/>
<polygon fill="midnightblue" stroke="midnightblue" points="236.41,-36.93 239.16,-26.7 230.63,-32.98 236.41,-36.93"/>
</g>
<!-- Node5 -->
<g id="node5" class="node">
<title>Node5</title>
<g id="a_node5"><a xlink:title=" ">
<polygon fill="white" stroke="#bfbfbf" points="293.5,-0.5 293.5,-26.5 367.5,-26.5 367.5,-0.5 293.5,-0.5"/>
<text text-anchor="middle" x="330.5" y="-9.7" font-family="Source Sans Pro" font-size="16.00">memory</text>
</a>
</g>
</g>
<!-- Node1&#45;&gt;Node5 -->
<g id="edge4" class="edge">
<title>Node1&#45;&gt;Node5</title>
<path fill="none" stroke="midnightblue" d="M245.68,-63.41C264.27,-52.69 284.55,-40.99 300.63,-31.73"/>
<polygon fill="midnightblue" stroke="midnightblue" points="302.64,-34.6 309.56,-26.58 299.15,-28.54 302.64,-34.6"/>
</g>
</g>
</svg>
