<?xml version="1.0" encoding="UTF-8" standalone="no"?>
<!DOCTYPE svg PUBLIC "-//W3C//DTD SVG 1.1//EN"
 "http://www.w3.org/Graphics/SVG/1.1/DTD/svg11.dtd">
<!-- Generated by graphviz version 2.43.0 (0)
 -->
<!-- Title: Illumination&#45;Engine/src/GraphicsModule/IECamera.hpp Pages: 1 -->
<svg width="3583pt" height="269pt"
 viewBox="0.00 0.00 3582.50 269.00" xmlns="http://www.w3.org/2000/svg" xmlns:xlink="http://www.w3.org/1999/xlink">
<g id="graph0" class="graph" transform="scale(1 1) rotate(0) translate(4 265)">
<title>Illumination&#45;Engine/src/GraphicsModule/IECamera.hpp</title>
<polygon fill="white" stroke="transparent" points="-4,4 -4,-265 3578.5,-265 3578.5,4 -4,4"/>
<!-- Node1 -->
<g id="node1" class="node">
<title>Node1</title>
<g id="a_node1"><a xlink:title=" ">
<polygon fill="#bfbfbf" stroke="black" points="853,-198.5 853,-260.5 1010,-260.5 1010,-198.5 853,-198.5"/>
<text text-anchor="start" x="861" y="-243.7" font-family="Source Sans Pro" font-size="16.00">Illumination&#45;Engine</text>
<text text-anchor="start" x="861" y="-225.7" font-family="Source Sans Pro" font-size="16.00">/src/GraphicsModule</text>
<text text-anchor="middle" x="931.5" y="-207.7" font-family="Source Sans Pro" font-size="16.00">/IECamera.hpp</text>
</a>
</g>
</g>
<!-- Node2 -->
<g id="node2" class="node">
<title>Node2</title>
<g id="a_node2"><a xlink:href="_i_e_camera_8cpp.html" target="_top" xlink:title=" ">
<polygon fill="white" stroke="black" points="0,-0.5 0,-62.5 157,-62.5 157,-0.5 0,-0.5"/>
<text text-anchor="start" x="8" y="-45.7" font-family="Source Sans Pro" font-size="16.00">Illumination&#45;Engine</text>
<text text-anchor="start" x="8" y="-27.7" font-family="Source Sans Pro" font-size="16.00">/src/GraphicsModule</text>
<text text-anchor="middle" x="78.5" y="-9.7" font-family="Source Sans Pro" font-size="16.00">/IECamera.cpp</text>
</a>
</g>
</g>
<!-- Node1&#45;&gt;Node2 -->
<g id="edge1" class="edge">
<title>Node1&#45;&gt;Node2</title>
<path fill="none" stroke="midnightblue" d="M842.89,-213.06C699.31,-187.23 407.5,-131.28 165.5,-63 162.73,-62.22 159.91,-61.39 157.08,-60.54"/>
<polygon fill="midnightblue" stroke="midnightblue" points="842.51,-216.55 852.97,-214.87 843.74,-209.66 842.51,-216.55"/>
</g>
<!-- Node3 -->
<g id="node3" class="node">
<title>Node3</title>
<g id="a_node3"><a xlink:href="_i_e_render_engine_8hpp.html" target="_top" xlink:title=" ">
<polygon fill="white" stroke="black" points="1598,-99.5 1598,-161.5 1759,-161.5 1759,-99.5 1598,-99.5"/>
<text text-anchor="start" x="1606" y="-144.7" font-family="Source Sans Pro" font-size="16.00">Illumination&#45;Engine</text>
<text text-anchor="start" x="1606" y="-126.7" font-family="Source Sans Pro" font-size="16.00">/src/GraphicsModule</text>
<text text-anchor="middle" x="1678.5" y="-108.7" font-family="Source Sans Pro" font-size="16.00">/IERenderEngine.hpp</text>
</a>
</g>
</g>
<!-- Node1&#45;&gt;Node3 -->
<g id="edge2" class="edge">
<title>Node1&#45;&gt;Node3</title>
<path fill="none" stroke="midnightblue" d="M1020.33,-216.97C1166.86,-197.94 1457,-160.26 1597.92,-141.96"/>
<polygon fill="midnightblue" stroke="midnightblue" points="1019.5,-213.54 1010.03,-218.3 1020.4,-220.49 1019.5,-213.54"/>
</g>
<!-- Node3&#45;&gt;Node2 -->
<g id="edge7" class="edge">
<title>Node3&#45;&gt;Node2</title>
<path fill="none" stroke="midnightblue" d="M1587.75,-125.87C1266.5,-112.97 200.57,-69.76 165.5,-63 162.83,-62.48 160.13,-61.9 157.41,-61.27"/>
<polygon fill="midnightblue" stroke="midnightblue" points="1587.82,-129.37 1597.95,-126.28 1588.1,-122.38 1587.82,-129.37"/>
</g>
<!-- Node4 -->
<g id="node4" class="node">
<title>Node4</title>
<g id="a_node4"><a xlink:href="_i_e_buffer_8cpp.html" target="_top" xlink:title=" ">
<polygon fill="white" stroke="black" points="175,-0.5 175,-62.5 332,-62.5 332,-0.5 175,-0.5"/>
<text text-anchor="start" x="183" y="-45.7" font-family="Source Sans Pro" font-size="16.00">Illumination&#45;Engine</text>
<text text-anchor="start" x="183" y="-27.7" font-family="Source Sans Pro" font-size="16.00">/src/GraphicsModule</text>
<text text-anchor="middle" x="253.5" y="-9.7" font-family="Source Sans Pro" font-size="16.00">/Buffer/IEBuffer.cpp</text>
</a>
</g>
</g>
<!-- Node3&#45;&gt;Node4 -->
<g id="edge3" class="edge">
<title>Node3&#45;&gt;Node4</title>
<path fill="none" stroke="midnightblue" d="M1587.56,-125.7C1296.24,-113.42 401.58,-74.96 340.5,-63 337.83,-62.48 335.13,-61.89 332.42,-61.25"/>
<polygon fill="midnightblue" stroke="midnightblue" points="1587.53,-129.2 1597.66,-126.12 1587.82,-122.21 1587.53,-129.2"/>
</g>
<!-- Node5 -->
<g id="node5" class="node">
<title>Node5</title>
<g id="a_node5"><a xlink:href="_i_e_command_buffer_8cpp.html" target="_top" xlink:title=" ">
<polygon fill="white" stroke="black" points="350,-0.5 350,-62.5 643,-62.5 643,-0.5 350,-0.5"/>
<text text-anchor="start" x="358" y="-45.7" font-family="Source Sans Pro" font-size="16.00">Illumination&#45;Engine</text>
<text text-anchor="start" x="358" y="-27.7" font-family="Source Sans Pro" font-size="16.00">/src/GraphicsModule</text>
<text text-anchor="middle" x="496.5" y="-9.7" font-family="Source Sans Pro" font-size="16.00">/CommandBuffer/IECommandBuffer.cpp</text>
</a>
</g>
</g>
<!-- Node3&#45;&gt;Node5 -->
<g id="edge4" class="edge">
<title>Node3&#45;&gt;Node5</title>
<path fill="none" stroke="midnightblue" d="M1587.5,-127.52C1407.99,-122.75 995.89,-107.51 652.5,-63 649.49,-62.61 646.45,-62.2 643.39,-61.76"/>
<polygon fill="midnightblue" stroke="midnightblue" points="1587.6,-131.02 1597.68,-127.79 1587.78,-124.03 1587.6,-131.02"/>
</g>
<!-- Node6 -->
<g id="node6" class="node">
<title>Node6</title>
<g id="a_node6"><a xlink:href="_i_e_command_pool_8cpp.html" target="_top" xlink:title=" ">
<polygon fill="white" stroke="black" points="661.5,-0.5 661.5,-62.5 945.5,-62.5 945.5,-0.5 661.5,-0.5"/>
<text text-anchor="start" x="669.5" y="-45.7" font-family="Source Sans Pro" font-size="16.00">Illumination&#45;Engine</text>
<text text-anchor="start" x="669.5" y="-27.7" font-family="Source Sans Pro" font-size="16.00">/src/GraphicsModule</text>
<text text-anchor="middle" x="803.5" y="-9.7" font-family="Source Sans Pro" font-size="16.00">/CommandBuffer/IECommandPool.cpp</text>
</a>
</g>
</g>
<!-- Node3&#45;&gt;Node6 -->
<g id="edge5" class="edge">
<title>Node3&#45;&gt;Node6</title>
<path fill="none" stroke="midnightblue" d="M1587.74,-124.31C1450.24,-115.74 1181.13,-96.2 954.5,-63 951.59,-62.57 948.65,-62.13 945.69,-61.66"/>
<polygon fill="midnightblue" stroke="midnightblue" points="1587.62,-127.81 1597.81,-124.94 1588.05,-120.82 1587.62,-127.81"/>
</g>
<!-- Node7 -->
<g id="node7" class="node">
<title>Node7</title>
<g id="a_node7"><a xlink:href="_i_e_a_p_i_8cpp.html" target="_top" xlink:title=" ">
<polygon fill="white" stroke="black" points="964,-0.5 964,-62.5 1121,-62.5 1121,-0.5 964,-0.5"/>
<text text-anchor="start" x="972" y="-45.7" font-family="Source Sans Pro" font-size="16.00">Illumination&#45;Engine</text>
<text text-anchor="start" x="972" y="-27.7" font-family="Source Sans Pro" font-size="16.00">/src/GraphicsModule</text>
<text text-anchor="middle" x="1042.5" y="-9.7" font-family="Source Sans Pro" font-size="16.00">/IEAPI.cpp</text>
</a>
</g>
</g>
<!-- Node3&#45;&gt;Node7 -->
<g id="edge6" class="edge">
<title>Node3&#45;&gt;Node7</title>
<path fill="none" stroke="midnightblue" d="M1587.5,-124.53C1477.73,-117.14 1288.18,-99.96 1129.5,-63 1126.85,-62.38 1124.17,-61.71 1121.47,-61"/>
<polygon fill="midnightblue" stroke="midnightblue" points="1587.33,-128.02 1597.54,-125.19 1587.79,-121.04 1587.33,-128.02"/>
</g>
<!-- Node8 -->
<g id="node8" class="node">
<title>Node8</title>
<g id="a_node8"><a xlink:href="_i_e_render_engine_8cpp.html" target="_top" xlink:title=" ">
<polygon fill="white" stroke="black" points="1139,-0.5 1139,-62.5 1298,-62.5 1298,-0.5 1139,-0.5"/>
<text text-anchor="start" x="1147" y="-45.7" font-family="Source Sans Pro" font-size="16.00">Illumination&#45;Engine</text>
<text text-anchor="start" x="1147" y="-27.7" font-family="Source Sans Pro" font-size="16.00">/src/GraphicsModule</text>
<text text-anchor="middle" x="1218.5" y="-9.7" font-family="Source Sans Pro" font-size="16.00">/IERenderEngine.cpp</text>
</a>
</g>
</g>
<!-- Node3&#45;&gt;Node8 -->
<g id="edge8" class="edge">
<title>Node3&#45;&gt;Node8</title>
<path fill="none" stroke="midnightblue" d="M1587.89,-117.36C1512.03,-106.23 1401.28,-87.73 1306.5,-63 1303.84,-62.31 1301.15,-61.57 1298.43,-60.8"/>
<polygon fill="midnightblue" stroke="midnightblue" points="1587.49,-120.84 1597.89,-118.82 1588.5,-113.91 1587.49,-120.84"/>
</g>
<!-- Node9 -->
<g id="node9" class="node">
<title>Node9</title>
<g id="a_node9"><a xlink:href="_i_e_image_8cpp.html" target="_top" xlink:title=" ">
<polygon fill="white" stroke="black" points="1316,-0.5 1316,-62.5 1473,-62.5 1473,-0.5 1316,-0.5"/>
<text text-anchor="start" x="1324" y="-45.7" font-family="Source Sans Pro" font-size="16.00">Illumination&#45;Engine</text>
<text text-anchor="start" x="1324" y="-27.7" font-family="Source Sans Pro" font-size="16.00">/src/GraphicsModule</text>
<text text-anchor="middle" x="1394.5" y="-9.7" font-family="Source Sans Pro" font-size="16.00">/Image/IEImage.cpp</text>
</a>
</g>
</g>
<!-- Node3&#45;&gt;Node9 -->
<g id="edge9" class="edge">
<title>Node3&#45;&gt;Node9</title>
<path fill="none" stroke="midnightblue" d="M1588.14,-99.24C1554.62,-87.95 1516.29,-74.97 1481.5,-63 1478.78,-62.06 1476,-61.11 1473.21,-60.14"/>
<polygon fill="midnightblue" stroke="midnightblue" points="1587.32,-102.66 1597.92,-102.53 1589.55,-96.03 1587.32,-102.66"/>
</g>
<!-- Node10 -->
<g id="node10" class="node">
<title>Node10</title>
<g id="a_node10"><a xlink:href="_i_e_texture_8cpp.html" target="_top" xlink:title=" ">
<polygon fill="white" stroke="black" points="1491,-0.5 1491,-62.5 1652,-62.5 1652,-0.5 1491,-0.5"/>
<text text-anchor="start" x="1499" y="-45.7" font-family="Source Sans Pro" font-size="16.00">Illumination&#45;Engine</text>
<text text-anchor="start" x="1499" y="-27.7" font-family="Source Sans Pro" font-size="16.00">/src/GraphicsModule</text>
<text text-anchor="middle" x="1571.5" y="-9.7" font-family="Source Sans Pro" font-size="16.00">/Image/IETexture.cpp</text>
</a>
</g>
</g>
<!-- Node3&#45;&gt;Node10 -->
<g id="edge10" class="edge">
<title>Node3&#45;&gt;Node10</title>
<path fill="none" stroke="midnightblue" d="M1637.81,-92.62C1626.89,-82.72 1615.21,-72.13 1604.75,-62.64"/>
<polygon fill="midnightblue" stroke="midnightblue" points="1635.47,-95.22 1645.23,-99.34 1640.17,-90.03 1635.47,-95.22"/>
</g>
<!-- Node11 -->
<g id="node11" class="node">
<title>Node11</title>
<g id="a_node11"><a xlink:href="_i_e_framebuffer_8cpp.html" target="_top" xlink:title=" ">
<polygon fill="white" stroke="black" points="1670.5,-0.5 1670.5,-62.5 1900.5,-62.5 1900.5,-0.5 1670.5,-0.5"/>
<text text-anchor="start" x="1678.5" y="-45.7" font-family="Source Sans Pro" font-size="16.00">Illumination&#45;Engine</text>
<text text-anchor="start" x="1678.5" y="-27.7" font-family="Source Sans Pro" font-size="16.00">/src/GraphicsModule</text>
<text text-anchor="middle" x="1785.5" y="-9.7" font-family="Source Sans Pro" font-size="16.00">/RenderPass/IEFramebuffer.cpp</text>
</a>
</g>
</g>
<!-- Node3&#45;&gt;Node11 -->
<g id="edge11" class="edge">
<title>Node3&#45;&gt;Node11</title>
<path fill="none" stroke="midnightblue" d="M1719.19,-92.62C1730.11,-82.72 1741.79,-72.13 1752.25,-62.64"/>
<polygon fill="midnightblue" stroke="midnightblue" points="1716.83,-90.03 1711.77,-99.34 1721.53,-95.22 1716.83,-90.03"/>
</g>
<!-- Node12 -->
<g id="node12" class="node">
<title>Node12</title>
<g id="a_node12"><a xlink:href="_i_e_render_pass_8cpp.html" target="_top" xlink:title=" ">
<polygon fill="white" stroke="black" points="1919,-0.5 1919,-62.5 2146,-62.5 2146,-0.5 1919,-0.5"/>
<text text-anchor="start" x="1927" y="-45.7" font-family="Source Sans Pro" font-size="16.00">Illumination&#45;Engine</text>
<text text-anchor="start" x="1927" y="-27.7" font-family="Source Sans Pro" font-size="16.00">/src/GraphicsModule</text>
<text text-anchor="middle" x="2032.5" y="-9.7" font-family="Source Sans Pro" font-size="16.00">/RenderPass/IERenderPass.cpp</text>
</a>
</g>
</g>
<!-- Node3&#45;&gt;Node12 -->
<g id="edge12" class="edge">
<title>Node3&#45;&gt;Node12</title>
<path fill="none" stroke="midnightblue" d="M1769.1,-104.67C1815.97,-91.83 1873.54,-76.06 1922.89,-62.53"/>
<polygon fill="midnightblue" stroke="midnightblue" points="1767.99,-101.35 1759.27,-107.37 1769.84,-108.1 1767.99,-101.35"/>
</g>
<!-- Node13 -->
<g id="node13" class="node">
<title>Node13</title>
<g id="a_node13"><a xlink:href="_i_e_material_8cpp.html" target="_top" xlink:title=" ">
<polygon fill="white" stroke="black" points="2164,-0.5 2164,-62.5 2365,-62.5 2365,-0.5 2164,-0.5"/>
<text text-anchor="start" x="2172" y="-45.7" font-family="Source Sans Pro" font-size="16.00">Illumination&#45;Engine</text>
<text text-anchor="start" x="2172" y="-27.7" font-family="Source Sans Pro" font-size="16.00">/src/GraphicsModule</text>
<text text-anchor="middle" x="2264.5" y="-9.7" font-family="Source Sans Pro" font-size="16.00">/Renderable/IEMaterial.cpp</text>
</a>
</g>
</g>
<!-- Node3&#45;&gt;Node13 -->
<g id="edge13" class="edge">
<title>Node3&#45;&gt;Node13</title>
<path fill="none" stroke="midnightblue" d="M1769.25,-120.52C1865.68,-110.12 2022.3,-90.79 2155.5,-63 2158.29,-62.42 2161.11,-61.8 2163.96,-61.16"/>
<polygon fill="midnightblue" stroke="midnightblue" points="1768.82,-117.05 1759.25,-121.59 1769.56,-124.01 1768.82,-117.05"/>
</g>
<!-- Node14 -->
<g id="node14" class="node">
<title>Node14</title>
<g id="a_node14"><a xlink:href="_i_e_mesh_8cpp.html" target="_top" xlink:title=" ">
<polygon fill="white" stroke="black" points="2383,-0.5 2383,-62.5 2566,-62.5 2566,-0.5 2383,-0.5"/>
<text text-anchor="start" x="2391" y="-45.7" font-family="Source Sans Pro" font-size="16.00">Illumination&#45;Engine</text>
<text text-anchor="start" x="2391" y="-27.7" font-family="Source Sans Pro" font-size="16.00">/src/GraphicsModule</text>
<text text-anchor="middle" x="2474.5" y="-9.7" font-family="Source Sans Pro" font-size="16.00">/Renderable/IEMesh.cpp</text>
</a>
</g>
</g>
<!-- Node3&#45;&gt;Node14 -->
<g id="edge14" class="edge">
<title>Node3&#45;&gt;Node14</title>
<path fill="none" stroke="midnightblue" d="M1769.3,-126.63C1902.99,-121.11 2160.11,-105.49 2374.5,-63 2377.26,-62.45 2380.05,-61.86 2382.86,-61.23"/>
<polygon fill="midnightblue" stroke="midnightblue" points="1768.96,-123.14 1759.11,-127.04 1769.24,-130.14 1768.96,-123.14"/>
</g>
<!-- Node15 -->
<g id="node15" class="node">
<title>Node15</title>
<g id="a_node15"><a xlink:href="_i_e_renderable_8cpp.html" target="_top" xlink:title=" ">
<polygon fill="white" stroke="black" points="2584,-0.5 2584,-62.5 2809,-62.5 2809,-0.5 2584,-0.5"/>
<text text-anchor="start" x="2592" y="-45.7" font-family="Source Sans Pro" font-size="16.00">Illumination&#45;Engine</text>
<text text-anchor="start" x="2592" y="-27.7" font-family="Source Sans Pro" font-size="16.00">/src/GraphicsModule</text>
<text text-anchor="middle" x="2696.5" y="-9.7" font-family="Source Sans Pro" font-size="16.00">/Renderable/IERenderable.cpp</text>
</a>
</g>
</g>
<!-- Node3&#45;&gt;Node15 -->
<g id="edge15" class="edge">
<title>Node3&#45;&gt;Node15</title>
<path fill="none" stroke="midnightblue" d="M1769.59,-127.94C1932.36,-124 2283.44,-110.27 2575.5,-63 2578.28,-62.55 2581.09,-62.07 2583.92,-61.56"/>
<polygon fill="midnightblue" stroke="midnightblue" points="1769.06,-124.45 1759.15,-128.18 1769.23,-131.45 1769.06,-124.45"/>
</g>
<!-- Node16 -->
<g id="node16" class="node">
<title>Node16</title>
<g id="a_node16"><a xlink:href="_i_e_descriptor_set_8cpp.html" target="_top" xlink:title=" ">
<polygon fill="white" stroke="black" points="2827,-0.5 2827,-62.5 3034,-62.5 3034,-0.5 2827,-0.5"/>
<text text-anchor="start" x="2835" y="-45.7" font-family="Source Sans Pro" font-size="16.00">Illumination&#45;Engine</text>
<text text-anchor="start" x="2835" y="-27.7" font-family="Source Sans Pro" font-size="16.00">/src/GraphicsModule</text>
<text text-anchor="middle" x="2930.5" y="-9.7" font-family="Source Sans Pro" font-size="16.00">/Shader/IEDescriptorSet.cpp</text>
</a>
</g>
</g>
<!-- Node3&#45;&gt;Node16 -->
<g id="edge16" class="edge">
<title>Node3&#45;&gt;Node16</title>
<path fill="none" stroke="midnightblue" d="M1769.54,-126.63C2002.71,-118.89 2617.16,-95.92 2818.5,-63 2821.28,-62.54 2824.1,-62.05 2826.93,-61.52"/>
<polygon fill="midnightblue" stroke="midnightblue" points="1769.27,-123.14 1759.4,-126.97 1769.51,-130.13 1769.27,-123.14"/>
</g>
<!-- Node17 -->
<g id="node17" class="node">
<title>Node17</title>
<g id="a_node17"><a xlink:href="_i_e_pipeline_8cpp.html" target="_top" xlink:title=" ">
<polygon fill="white" stroke="black" points="3052.5,-0.5 3052.5,-62.5 3224.5,-62.5 3224.5,-0.5 3052.5,-0.5"/>
<text text-anchor="start" x="3060.5" y="-45.7" font-family="Source Sans Pro" font-size="16.00">Illumination&#45;Engine</text>
<text text-anchor="start" x="3060.5" y="-27.7" font-family="Source Sans Pro" font-size="16.00">/src/GraphicsModule</text>
<text text-anchor="middle" x="3138.5" y="-9.7" font-family="Source Sans Pro" font-size="16.00">/Shader/IEPipeline.cpp</text>
</a>
</g>
</g>
<!-- Node3&#45;&gt;Node17 -->
<g id="edge17" class="edge">
<title>Node3&#45;&gt;Node17</title>
<path fill="none" stroke="midnightblue" d="M1769.48,-128.17C2033.7,-123.82 2797.87,-107.61 3043.5,-63 3046.4,-62.47 3049.33,-61.88 3052.28,-61.24"/>
<polygon fill="midnightblue" stroke="midnightblue" points="1769.1,-124.68 1759.16,-128.34 1769.21,-131.67 1769.1,-124.68"/>
</g>
<!-- Node18 -->
<g id="node18" class="node">
<title>Node18</title>
<g id="a_node18"><a xlink:href="_i_e_shader_8cpp.html" target="_top" xlink:title=" ">
<polygon fill="white" stroke="black" points="3242.5,-0.5 3242.5,-62.5 3406.5,-62.5 3406.5,-0.5 3242.5,-0.5"/>
<text text-anchor="start" x="3250.5" y="-45.7" font-family="Source Sans Pro" font-size="16.00">Illumination&#45;Engine</text>
<text text-anchor="start" x="3250.5" y="-27.7" font-family="Source Sans Pro" font-size="16.00">/src/GraphicsModule</text>
<text text-anchor="middle" x="3324.5" y="-9.7" font-family="Source Sans Pro" font-size="16.00">/Shader/IEShader.cpp</text>
</a>
</g>
</g>
<!-- Node3&#45;&gt;Node18 -->
<g id="edge18" class="edge">
<title>Node3&#45;&gt;Node18</title>
<path fill="none" stroke="midnightblue" d="M1769.44,-128.95C2057.89,-126.69 2949.89,-115.51 3233.5,-63 3236.45,-62.45 3239.43,-61.83 3242.43,-61.15"/>
<polygon fill="midnightblue" stroke="midnightblue" points="1769,-125.45 1759.03,-129.03 1769.06,-132.45 1769,-125.45"/>
</g>
<!-- Node19 -->
<g id="node19" class="node">
<title>Node19</title>
<g id="a_node19"><a xlink:href="main_8cpp.html" target="_top" xlink:title=" ">
<polygon fill="white" stroke="black" points="3424.5,-9.5 3424.5,-53.5 3574.5,-53.5 3574.5,-9.5 3424.5,-9.5"/>
<text text-anchor="start" x="3432.5" y="-36.7" font-family="Source Sans Pro" font-size="16.00">Illumination&#45;Engine</text>
<text text-anchor="middle" x="3499.5" y="-18.7" font-family="Source Sans Pro" font-size="16.00">/src/main.cpp</text>
</a>
</g>
</g>
<!-- Node3&#45;&gt;Node19 -->
<g id="edge19" class="edge">
<title>Node3&#45;&gt;Node19</title>
<path fill="none" stroke="midnightblue" d="M1769.38,-129.72C2079.68,-129.9 3095.76,-125.58 3415.5,-63 3426.61,-60.82 3438.22,-57.41 3449.14,-53.64"/>
<polygon fill="midnightblue" stroke="midnightblue" points="1769.08,-126.22 1759.08,-129.71 1769.08,-133.22 1769.08,-126.22"/>
</g>
</g>
</svg>
