<?xml version="1.0" encoding="UTF-8" standalone="no"?>
<!DOCTYPE svg PUBLIC "-//W3C//DTD SVG 1.1//EN"
 "http://www.w3.org/Graphics/SVG/1.1/DTD/svg11.dtd">
<!-- Generated by graphviz version 2.43.0 (0)
 -->
<!-- Title: Illumination&#45;Engine/src/GraphicsModule/IESettings.hpp Pages: 1 -->
<svg width="889pt" height="215pt"
 viewBox="0.00 0.00 889.00 215.00" xmlns="http://www.w3.org/2000/svg" xmlns:xlink="http://www.w3.org/1999/xlink">
<g id="graph0" class="graph" transform="scale(1 1) rotate(0) translate(4 211)">
<title>Illumination&#45;Engine/src/GraphicsModule/IESettings.hpp</title>
<polygon fill="white" stroke="transparent" points="-4,4 -4,-211 885,-211 885,4 -4,4"/>
<!-- Node1 -->
<g id="node1" class="node">
<title>Node1</title>
<g id="a_node1"><a xlink:title=" ">
<polygon fill="#bfbfbf" stroke="black" points="443,-144.5 443,-206.5 600,-206.5 600,-144.5 443,-144.5"/>
<text text-anchor="start" x="451" y="-189.7" font-family="Source Sans Pro" font-size="16.00">Illumination&#45;Engine</text>
<text text-anchor="start" x="451" y="-171.7" font-family="Source Sans Pro" font-size="16.00">/src/GraphicsModule</text>
<text text-anchor="middle" x="521.5" y="-153.7" font-family="Source Sans Pro" font-size="16.00">/IESettings.hpp</text>
</a>
</g>
</g>
<!-- Node2 -->
<g id="node2" class="node">
<title>Node2</title>
<g id="a_node2"><a xlink:href="_i_e_version_8hpp.html" target="_top" xlink:title=" ">
<polygon fill="white" stroke="black" points="51.5,-81.5 51.5,-107.5 161.5,-107.5 161.5,-81.5 51.5,-81.5"/>
<text text-anchor="middle" x="106.5" y="-90.7" font-family="Source Sans Pro" font-size="16.00">IEVersion.hpp</text>
</a>
</g>
</g>
<!-- Node1&#45;&gt;Node2 -->
<g id="edge1" class="edge">
<title>Node1&#45;&gt;Node2</title>
<path fill="none" stroke="midnightblue" d="M442.95,-159.55C364.4,-144.59 245.01,-121.87 171.58,-107.89"/>
<polygon fill="midnightblue" stroke="midnightblue" points="172.01,-104.41 161.53,-105.98 170.7,-111.28 172.01,-104.41"/>
</g>
<!-- Node4 -->
<g id="node4" class="node">
<title>Node4</title>
<g id="a_node4"><a xlink:title=" ">
<polygon fill="white" stroke="#bfbfbf" points="162,-9.5 162,-35.5 217,-35.5 217,-9.5 162,-9.5"/>
<text text-anchor="middle" x="189.5" y="-18.7" font-family="Source Sans Pro" font-size="16.00">string</text>
</a>
</g>
</g>
<!-- Node1&#45;&gt;Node4 -->
<g id="edge12" class="edge">
<title>Node1&#45;&gt;Node4</title>
<path fill="none" stroke="midnightblue" d="M442.9,-167.29C361.61,-158.22 242.07,-139.85 209.5,-108 193.1,-91.96 189.13,-65.14 188.61,-46.02"/>
<polygon fill="midnightblue" stroke="midnightblue" points="192.11,-45.8 188.63,-35.79 185.11,-45.78 192.11,-45.8"/>
</g>
<!-- Node6 -->
<g id="node6" class="node">
<title>Node6</title>
<g id="a_node6"><a xlink:href="_i_e_logger_8hpp.html" target="_top" xlink:title=" ">
<polygon fill="white" stroke="black" points="218,-81.5 218,-107.5 441,-107.5 441,-81.5 218,-81.5"/>
<text text-anchor="middle" x="329.5" y="-90.7" font-family="Source Sans Pro" font-size="16.00">Core/LogModule/IELogger.hpp</text>
</a>
</g>
</g>
<!-- Node1&#45;&gt;Node6 -->
<g id="edge5" class="edge">
<title>Node1&#45;&gt;Node6</title>
<path fill="none" stroke="midnightblue" d="M448.37,-144.41C421.1,-133.19 391.23,-120.9 368.25,-111.44"/>
<polygon fill="midnightblue" stroke="midnightblue" points="369.43,-108.15 358.85,-107.58 366.77,-114.62 369.43,-108.15"/>
</g>
<!-- Node9 -->
<g id="node9" class="node">
<title>Node9</title>
<g id="a_node9"><a xlink:title=" ">
<polygon fill="white" stroke="#bfbfbf" points="459,-81.5 459,-107.5 584,-107.5 584,-81.5 459,-81.5"/>
<text text-anchor="middle" x="521.5" y="-90.7" font-family="Source Sans Pro" font-size="16.00">vulkan/vulkan.h</text>
</a>
</g>
</g>
<!-- Node1&#45;&gt;Node9 -->
<g id="edge9" class="edge">
<title>Node1&#45;&gt;Node9</title>
<path fill="none" stroke="midnightblue" d="M521.5,-144.18C521.5,-135.45 521.5,-126.08 521.5,-117.91"/>
<polygon fill="midnightblue" stroke="midnightblue" points="525,-117.7 521.5,-107.7 518,-117.7 525,-117.7"/>
</g>
<!-- Node10 -->
<g id="node10" class="node">
<title>Node10</title>
<g id="a_node10"><a xlink:title=" ">
<polygon fill="white" stroke="#bfbfbf" points="602,-81.5 602,-107.5 685,-107.5 685,-81.5 602,-81.5"/>
<text text-anchor="middle" x="643.5" y="-90.7" font-family="Source Sans Pro" font-size="16.00">GL/glew.h</text>
</a>
</g>
</g>
<!-- Node1&#45;&gt;Node10 -->
<g id="edge10" class="edge">
<title>Node1&#45;&gt;Node10</title>
<path fill="none" stroke="midnightblue" d="M567.97,-144.41C584.21,-133.89 601.91,-122.43 616.09,-113.25"/>
<polygon fill="midnightblue" stroke="midnightblue" points="618.36,-115.95 624.85,-107.58 614.55,-110.07 618.36,-115.95"/>
</g>
<!-- Node11 -->
<g id="node11" class="node">
<title>Node11</title>
<g id="a_node11"><a xlink:title=" ">
<polygon fill="white" stroke="#bfbfbf" points="703.5,-81.5 703.5,-107.5 811.5,-107.5 811.5,-81.5 703.5,-81.5"/>
<text text-anchor="middle" x="757.5" y="-90.7" font-family="Source Sans Pro" font-size="16.00">GLFW/glfw3.h</text>
</a>
</g>
</g>
<!-- Node1&#45;&gt;Node11 -->
<g id="edge11" class="edge">
<title>Node1&#45;&gt;Node11</title>
<path fill="none" stroke="midnightblue" d="M600.08,-148.19C637.11,-135.8 679.98,-121.45 711.63,-110.86"/>
<polygon fill="midnightblue" stroke="midnightblue" points="713.11,-114.05 721.48,-107.56 710.89,-107.41 713.11,-114.05"/>
</g>
<!-- Node12 -->
<g id="node12" class="node">
<title>Node12</title>
<g id="a_node12"><a xlink:title=" ">
<polygon fill="white" stroke="#bfbfbf" points="830,-81.5 830,-107.5 881,-107.5 881,-81.5 830,-81.5"/>
<text text-anchor="middle" x="855.5" y="-90.7" font-family="Source Sans Pro" font-size="16.00">array</text>
</a>
</g>
</g>
<!-- Node1&#45;&gt;Node12 -->
<g id="edge13" class="edge">
<title>Node1&#45;&gt;Node12</title>
<path fill="none" stroke="midnightblue" d="M600.24,-159.77C658.55,-148.22 740.01,-130.74 819.89,-107.95"/>
<polygon fill="midnightblue" stroke="midnightblue" points="820.98,-111.28 829.62,-105.15 819.05,-104.55 820.98,-111.28"/>
</g>
<!-- Node3 -->
<g id="node3" class="node">
<title>Node3</title>
<g id="a_node3"><a xlink:title=" ">
<polygon fill="white" stroke="#bfbfbf" points="0,-9.5 0,-35.5 63,-35.5 63,-9.5 0,-9.5"/>
<text text-anchor="middle" x="31.5" y="-18.7" font-family="Source Sans Pro" font-size="16.00">cstdint</text>
</a>
</g>
</g>
<!-- Node2&#45;&gt;Node3 -->
<g id="edge2" class="edge">
<title>Node2&#45;&gt;Node3</title>
<path fill="none" stroke="midnightblue" d="M93.44,-81.31C81.93,-70.57 64.98,-54.75 51.73,-42.38"/>
<polygon fill="midnightblue" stroke="midnightblue" points="54.11,-39.82 44.41,-35.55 49.34,-44.94 54.11,-39.82"/>
</g>
<!-- Node2&#45;&gt;Node4 -->
<g id="edge3" class="edge">
<title>Node2&#45;&gt;Node4</title>
<path fill="none" stroke="midnightblue" d="M120.96,-81.31C133.81,-70.47 152.8,-54.46 167.53,-42.03"/>
<polygon fill="midnightblue" stroke="midnightblue" points="169.82,-44.68 175.21,-35.55 165.31,-39.32 169.82,-44.68"/>
</g>
<!-- Node5 -->
<g id="node5" class="node">
<title>Node5</title>
<g id="a_node5"><a xlink:title=" ">
<polygon fill="white" stroke="#bfbfbf" points="81,-9.5 81,-35.5 140,-35.5 140,-9.5 81,-9.5"/>
<text text-anchor="middle" x="110.5" y="-18.7" font-family="Source Sans Pro" font-size="16.00">vector</text>
</a>
</g>
</g>
<!-- Node2&#45;&gt;Node5 -->
<g id="edge4" class="edge">
<title>Node2&#45;&gt;Node5</title>
<path fill="none" stroke="midnightblue" d="M107.2,-81.31C107.76,-71.47 108.56,-57.38 109.24,-45.57"/>
<polygon fill="midnightblue" stroke="midnightblue" points="112.73,-45.74 109.81,-35.55 105.75,-45.34 112.73,-45.74"/>
</g>
<!-- Node6&#45;&gt;Node4 -->
<g id="edge8" class="edge">
<title>Node6&#45;&gt;Node4</title>
<path fill="none" stroke="midnightblue" d="M305.43,-81.47C282.7,-70.1 248.38,-52.94 222.98,-40.24"/>
<polygon fill="midnightblue" stroke="midnightblue" points="224.23,-36.95 213.72,-35.61 221.1,-43.21 224.23,-36.95"/>
</g>
<!-- Node7 -->
<g id="node7" class="node">
<title>Node7</title>
<g id="a_node7"><a xlink:title=" ">
<polygon fill="white" stroke="#bfbfbf" points="251,-9.5 251,-35.5 378,-35.5 378,-9.5 251,-9.5"/>
<text text-anchor="middle" x="314.5" y="-18.7" font-family="Source Sans Pro" font-size="16.00">spdlog/spdlog.h</text>
</a>
</g>
</g>
<!-- Node6&#45;&gt;Node7 -->
<g id="edge6" class="edge">
<title>Node6&#45;&gt;Node7</title>
<path fill="none" stroke="midnightblue" d="M326.89,-81.31C324.78,-71.47 321.76,-57.38 319.23,-45.57"/>
<polygon fill="midnightblue" stroke="midnightblue" points="322.6,-44.6 317.08,-35.55 315.76,-46.06 322.6,-44.6"/>
</g>
<!-- Node8 -->
<g id="node8" class="node">
<title>Node8</title>
<g id="a_node8"><a xlink:title=" ">
<polygon fill="white" stroke="#bfbfbf" points="396,-0.5 396,-44.5 539,-44.5 539,-0.5 396,-0.5"/>
<text text-anchor="start" x="404" y="-27.7" font-family="Source Sans Pro" font-size="16.00">spdlog/sinks/basic</text>
<text text-anchor="middle" x="467.5" y="-9.7" font-family="Source Sans Pro" font-size="16.00">_file_sink.h</text>
</a>
</g>
</g>
<!-- Node6&#45;&gt;Node8 -->
<g id="edge7" class="edge">
<title>Node6&#45;&gt;Node8</title>
<path fill="none" stroke="midnightblue" d="M353.22,-81.47C370.69,-72.61 395.08,-60.23 416.85,-49.19"/>
<polygon fill="midnightblue" stroke="midnightblue" points="418.65,-52.2 425.99,-44.56 415.48,-45.96 418.65,-52.2"/>
</g>
</g>
</svg>
