<?xml version="1.0" encoding="UTF-8" standalone="no"?>
<!DOCTYPE svg PUBLIC "-//W3C//DTD SVG 1.1//EN"
 "http://www.w3.org/Graphics/SVG/1.1/DTD/svg11.dtd">
<!-- Generated by graphviz version 2.43.0 (0)
 -->
<!-- Title: Illumination&#45;Engine/src/Core/AssetModule/IEAsset.hpp Pages: 1 -->
<svg width="348pt" height="197pt"
 viewBox="0.00 0.00 348.00 197.00" xmlns="http://www.w3.org/2000/svg" xmlns:xlink="http://www.w3.org/1999/xlink">
<g id="graph0" class="graph" transform="scale(1 1) rotate(0) translate(4 193)">
<title>Illumination&#45;Engine/src/Core/AssetModule/IEAsset.hpp</title>
<polygon fill="white" stroke="transparent" points="-4,4 -4,-193 344,-193 344,4 -4,4"/>
<!-- Node1 -->
<g id="node1" class="node">
<title>Node1</title>
<g id="a_node1"><a xlink:title=" ">
<polygon fill="#bfbfbf" stroke="black" points="93,-126.5 93,-188.5 263,-188.5 263,-126.5 93,-126.5"/>
<text text-anchor="start" x="101" y="-171.7" font-family="Source Sans Pro" font-size="16.00">Illumination&#45;Engine</text>
<text text-anchor="start" x="101" y="-153.7" font-family="Source Sans Pro" font-size="16.00">/src/Core/AssetModule</text>
<text text-anchor="middle" x="178" y="-135.7" font-family="Source Sans Pro" font-size="16.00">/IEAsset.hpp</text>
</a>
</g>
</g>
<!-- Node2 -->
<g id="node2" class="node">
<title>Node2</title>
<g id="a_node2"><a xlink:title=" ">
<polygon fill="white" stroke="#bfbfbf" points="0,-63.5 0,-89.5 104,-89.5 104,-63.5 0,-63.5"/>
<text text-anchor="middle" x="52" y="-72.7" font-family="Source Sans Pro" font-size="16.00">glm/glm.hpp</text>
</a>
</g>
</g>
<!-- Node1&#45;&gt;Node2 -->
<g id="edge1" class="edge">
<title>Node1&#45;&gt;Node2</title>
<path fill="none" stroke="midnightblue" d="M130.01,-126.41C113.07,-115.79 94.61,-104.21 79.89,-94.99"/>
<polygon fill="midnightblue" stroke="midnightblue" points="81.59,-91.92 71.26,-89.58 77.88,-97.85 81.59,-91.92"/>
</g>
<!-- Node3 -->
<g id="node3" class="node">
<title>Node3</title>
<g id="a_node3"><a xlink:title=" ">
<polygon fill="white" stroke="#bfbfbf" points="122.5,-63.5 122.5,-89.5 177.5,-89.5 177.5,-63.5 122.5,-63.5"/>
<text text-anchor="middle" x="150" y="-72.7" font-family="Source Sans Pro" font-size="16.00">string</text>
</a>
</g>
</g>
<!-- Node1&#45;&gt;Node3 -->
<g id="edge2" class="edge">
<title>Node1&#45;&gt;Node3</title>
<path fill="none" stroke="midnightblue" d="M167.25,-126.18C164.09,-117.25 160.69,-107.65 157.75,-99.36"/>
<polygon fill="midnightblue" stroke="midnightblue" points="160.96,-97.96 154.33,-89.7 154.37,-100.3 160.96,-97.96"/>
</g>
<!-- Node4 -->
<g id="node4" class="node">
<title>Node4</title>
<g id="a_node4"><a xlink:title=" ">
<polygon fill="white" stroke="#bfbfbf" points="216.5,-0.5 216.5,-26.5 275.5,-26.5 275.5,-0.5 216.5,-0.5"/>
<text text-anchor="middle" x="246" y="-9.7" font-family="Source Sans Pro" font-size="16.00">vector</text>
</a>
</g>
</g>
<!-- Node1&#45;&gt;Node4 -->
<g id="edge3" class="edge">
<title>Node1&#45;&gt;Node4</title>
<path fill="none" stroke="midnightblue" d="M192.42,-126.39C205.38,-99.32 224.11,-60.22 235.64,-36.13"/>
<polygon fill="midnightblue" stroke="midnightblue" points="238.94,-37.34 240.11,-26.81 232.63,-34.31 238.94,-37.34"/>
</g>
<!-- Node5 -->
<g id="node5" class="node">
<title>Node5</title>
<g id="a_node5"><a xlink:href="_i_e_aspect_8hpp.html" target="_top" xlink:title=" ">
<polygon fill="white" stroke="black" points="234,-63.5 234,-89.5 340,-89.5 340,-63.5 234,-63.5"/>
<text text-anchor="middle" x="287" y="-72.7" font-family="Source Sans Pro" font-size="16.00">IEAspect.hpp</text>
</a>
</g>
</g>
<!-- Node1&#45;&gt;Node5 -->
<g id="edge4" class="edge">
<title>Node1&#45;&gt;Node5</title>
<path fill="none" stroke="midnightblue" d="M219.52,-126.41C233.89,-115.99 249.54,-104.65 262.15,-95.51"/>
<polygon fill="midnightblue" stroke="midnightblue" points="264.29,-98.28 270.34,-89.58 260.19,-92.61 264.29,-98.28"/>
</g>
<!-- Node5&#45;&gt;Node4 -->
<g id="edge5" class="edge">
<title>Node5&#45;&gt;Node4</title>
<path fill="none" stroke="midnightblue" d="M278.9,-63.45C273.45,-55.34 266.13,-44.46 259.78,-35.01"/>
<polygon fill="midnightblue" stroke="midnightblue" points="262.57,-32.87 254.08,-26.53 256.76,-36.78 262.57,-32.87"/>
</g>
</g>
</svg>
