<?xml version="1.0" encoding="UTF-8" standalone="no"?>
<!DOCTYPE svg PUBLIC "-//W3C//DTD SVG 1.1//EN"
 "http://www.w3.org/Graphics/SVG/1.1/DTD/svg11.dtd">
<!-- Generated by graphviz version 2.43.0 (0)
 -->
<!-- Title: Illumination&#45;Engine/src/GraphicsModule/CommandBuffer/DependencyStructs/IERenderPassBeginInfo.cpp Pages: 1 -->
<svg width="2404pt" height="701pt"
 viewBox="0.00 0.00 2404.00 701.00" xmlns="http://www.w3.org/2000/svg" xmlns:xlink="http://www.w3.org/1999/xlink">
<g id="graph0" class="graph" transform="scale(1 1) rotate(0) translate(4 697)">
<title>Illumination&#45;Engine/src/GraphicsModule/CommandBuffer/DependencyStructs/IERenderPassBeginInfo.cpp</title>
<polygon fill="white" stroke="transparent" points="-4,4 -4,-697 2400,-697 2400,4 -4,4"/>
<!-- Node1 -->
<g id="node1" class="node">
<title>Node1</title>
<g id="a_node1"><a xlink:title=" ">
<polygon fill="#bfbfbf" stroke="black" points="200,-612.5 200,-692.5 472,-692.5 472,-612.5 200,-612.5"/>
<text text-anchor="start" x="208" y="-675.7" font-family="Source Sans Pro" font-size="16.00">Illumination&#45;Engine</text>
<text text-anchor="start" x="208" y="-657.7" font-family="Source Sans Pro" font-size="16.00">/src/GraphicsModule</text>
<text text-anchor="start" x="208" y="-639.7" font-family="Source Sans Pro" font-size="16.00">/CommandBuffer/DependencyStructs</text>
<text text-anchor="middle" x="336" y="-621.7" font-family="Source Sans Pro" font-size="16.00">/IERenderPassBeginInfo.cpp</text>
</a>
</g>
</g>
<!-- Node2 -->
<g id="node2" class="node">
<title>Node2</title>
<g id="a_node2"><a xlink:href="_i_e_render_pass_begin_info_8hpp.html" target="_top" xlink:title=" ">
<polygon fill="white" stroke="black" points="83.5,-396.5 83.5,-422.5 286.5,-422.5 286.5,-396.5 83.5,-396.5"/>
<text text-anchor="middle" x="185" y="-405.7" font-family="Source Sans Pro" font-size="16.00">IERenderPassBeginInfo.hpp</text>
</a>
</g>
</g>
<!-- Node1&#45;&gt;Node2 -->
<g id="edge1" class="edge">
<title>Node1&#45;&gt;Node2</title>
<path fill="none" stroke="midnightblue" d="M311.4,-612.24C279.06,-560.63 223.4,-471.79 198.15,-431.48"/>
<polygon fill="midnightblue" stroke="midnightblue" points="200.96,-429.38 192.69,-422.77 195.03,-433.1 200.96,-429.38"/>
</g>
<!-- Node17 -->
<g id="node17" class="node">
<title>Node17</title>
<g id="a_node17"><a xlink:href="_i_e_render_pass_8hpp.html" target="_top" xlink:title=" ">
<polygon fill="white" stroke="black" points="598.5,-531.5 598.5,-575.5 809.5,-575.5 809.5,-531.5 598.5,-531.5"/>
<text text-anchor="start" x="606.5" y="-558.7" font-family="Source Sans Pro" font-size="16.00">GraphicsModule/RenderPass</text>
<text text-anchor="middle" x="704" y="-540.7" font-family="Source Sans Pro" font-size="16.00">/IERenderPass.hpp</text>
</a>
</g>
</g>
<!-- Node1&#45;&gt;Node17 -->
<g id="edge27" class="edge">
<title>Node1&#45;&gt;Node17</title>
<path fill="none" stroke="midnightblue" d="M472.25,-615.59C519.71,-603.08 571.73,-589.36 614.44,-578.11"/>
<polygon fill="midnightblue" stroke="midnightblue" points="615.46,-581.46 624.24,-575.52 613.68,-574.69 615.46,-581.46"/>
</g>
<!-- Node3 -->
<g id="node3" class="node">
<title>Node3</title>
<g id="a_node3"><a xlink:href="_i_e_framebuffer_8hpp.html" target="_top" xlink:title=" ">
<polygon fill="white" stroke="black" points="170.5,-306.5 170.5,-350.5 381.5,-350.5 381.5,-306.5 170.5,-306.5"/>
<text text-anchor="start" x="178.5" y="-333.7" font-family="Source Sans Pro" font-size="16.00">GraphicsModule/RenderPass</text>
<text text-anchor="middle" x="276" y="-315.7" font-family="Source Sans Pro" font-size="16.00">/IEFramebuffer.hpp</text>
</a>
</g>
</g>
<!-- Node2&#45;&gt;Node3 -->
<g id="edge2" class="edge">
<title>Node2&#45;&gt;Node3</title>
<path fill="none" stroke="midnightblue" d="M199.22,-396.16C211.14,-385.81 228.61,-370.64 243.87,-357.39"/>
<polygon fill="midnightblue" stroke="midnightblue" points="246.36,-359.87 251.61,-350.67 241.77,-354.58 246.36,-359.87"/>
</g>
<!-- Node6 -->
<g id="node6" class="node">
<title>Node6</title>
<g id="a_node6"><a xlink:title=" ">
<polygon fill="white" stroke="#bfbfbf" points="1299,-72.5 1299,-98.5 1373,-98.5 1373,-72.5 1299,-72.5"/>
<text text-anchor="middle" x="1336" y="-81.7" font-family="Source Sans Pro" font-size="16.00">memory</text>
</a>
</g>
</g>
<!-- Node2&#45;&gt;Node6 -->
<g id="edge26" class="edge">
<title>Node2&#45;&gt;Node6</title>
<path fill="none" stroke="midnightblue" d="M177.77,-396.28C167.23,-376.83 150.03,-337.79 161,-306 190.86,-219.52 206.87,-186.28 288,-144 377.45,-97.39 1096.2,-88.39 1288.71,-86.81"/>
<polygon fill="midnightblue" stroke="midnightblue" points="1288.82,-90.31 1298.8,-86.73 1288.77,-83.31 1288.82,-90.31"/>
</g>
<!-- Node4 -->
<g id="node4" class="node">
<title>Node4</title>
<g id="a_node4"><a xlink:href="_i_e_image_8hpp.html" target="_top" xlink:title=" ">
<polygon fill="white" stroke="black" points="544,-225.5 544,-269.5 718,-269.5 718,-225.5 544,-225.5"/>
<text text-anchor="start" x="552" y="-252.7" font-family="Source Sans Pro" font-size="16.00">GraphicsModule/Image</text>
<text text-anchor="middle" x="631" y="-234.7" font-family="Source Sans Pro" font-size="16.00">/IEImage.hpp</text>
</a>
</g>
</g>
<!-- Node3&#45;&gt;Node4 -->
<g id="edge3" class="edge">
<title>Node3&#45;&gt;Node4</title>
<path fill="none" stroke="midnightblue" d="M370.67,-306.43C421.12,-295.21 483.08,-281.42 533.89,-270.11"/>
<polygon fill="midnightblue" stroke="midnightblue" points="534.9,-273.47 543.9,-267.88 533.38,-266.64 534.9,-273.47"/>
</g>
<!-- Node7 -->
<g id="node7" class="node">
<title>Node7</title>
<g id="a_node7"><a xlink:title=" ">
<polygon fill="white" stroke="#bfbfbf" points="442.5,-0.5 442.5,-26.5 497.5,-26.5 497.5,-0.5 442.5,-0.5"/>
<text text-anchor="middle" x="470" y="-9.7" font-family="Source Sans Pro" font-size="16.00">string</text>
</a>
</g>
</g>
<!-- Node3&#45;&gt;Node7 -->
<g id="edge24" class="edge">
<title>Node3&#45;&gt;Node7</title>
<path fill="none" stroke="midnightblue" d="M170.43,-308.27C145.21,-299.78 119.87,-287.57 100,-270 56.18,-231.26 29.57,-192.68 62,-144 104.15,-80.72 339.57,-35.87 432.38,-20.41"/>
<polygon fill="midnightblue" stroke="midnightblue" points="433.15,-23.83 442.45,-18.75 432.02,-16.92 433.15,-23.83"/>
</g>
<!-- Node8 -->
<g id="node8" class="node">
<title>Node8</title>
<g id="a_node8"><a xlink:title=" ">
<polygon fill="white" stroke="#bfbfbf" points="1375.5,-0.5 1375.5,-26.5 1434.5,-26.5 1434.5,-0.5 1375.5,-0.5"/>
<text text-anchor="middle" x="1405" y="-9.7" font-family="Source Sans Pro" font-size="16.00">vector</text>
</a>
</g>
</g>
<!-- Node3&#45;&gt;Node8 -->
<g id="edge25" class="edge">
<title>Node3&#45;&gt;Node8</title>
<path fill="none" stroke="midnightblue" d="M239.72,-306.34C184.1,-271.34 89.09,-199.72 138,-144 178.65,-97.68 354.47,-127.31 413,-108 452.11,-95.1 454.42,-74.39 494,-63 661.04,-14.94 1211.29,-13.64 1364.87,-14.25"/>
<polygon fill="midnightblue" stroke="midnightblue" points="1365.22,-17.75 1375.24,-14.29 1365.25,-10.75 1365.22,-17.75"/>
</g>
<!-- Node9 -->
<g id="node9" class="node">
<title>Node9</title>
<g id="a_node9"><a xlink:title=" ">
<polygon fill="white" stroke="#bfbfbf" points="1482.5,-72.5 1482.5,-98.5 1607.5,-98.5 1607.5,-72.5 1482.5,-72.5"/>
<text text-anchor="middle" x="1545" y="-81.7" font-family="Source Sans Pro" font-size="16.00">vulkan/vulkan.h</text>
</a>
</g>
</g>
<!-- Node3&#45;&gt;Node9 -->
<g id="edge23" class="edge">
<title>Node3&#45;&gt;Node9</title>
<path fill="none" stroke="midnightblue" d="M274.12,-306.24C271.96,-267 273.79,-183.56 323,-144 368.88,-107.12 1323.33,-112.85 1382,-108 1411.64,-105.55 1444.16,-101.53 1472.3,-97.63"/>
<polygon fill="midnightblue" stroke="midnightblue" points="1473.04,-101.06 1482.46,-96.2 1472.07,-94.12 1473.04,-101.06"/>
</g>
<!-- Node5 -->
<g id="node5" class="node">
<title>Node5</title>
<g id="a_node5"><a xlink:href="_i_e_dependency_8hpp.html" target="_top" xlink:title=" ">
<polygon fill="white" stroke="black" points="868.5,-144.5 868.5,-188.5 1113.5,-188.5 1113.5,-144.5 868.5,-144.5"/>
<text text-anchor="start" x="876.5" y="-171.7" font-family="Source Sans Pro" font-size="16.00">GraphicsModule/CommandBuffer</text>
<text text-anchor="middle" x="991" y="-153.7" font-family="Source Sans Pro" font-size="16.00">/IEDependency.hpp</text>
</a>
</g>
</g>
<!-- Node4&#45;&gt;Node5 -->
<g id="edge4" class="edge">
<title>Node4&#45;&gt;Node5</title>
<path fill="none" stroke="midnightblue" d="M718.15,-227.38C768.49,-216.33 832.18,-202.35 885.37,-190.68"/>
<polygon fill="midnightblue" stroke="midnightblue" points="886.15,-194.09 895.17,-188.53 884.65,-187.25 886.15,-194.09"/>
</g>
<!-- Node4&#45;&gt;Node7 -->
<g id="edge21" class="edge">
<title>Node4&#45;&gt;Node7</title>
<path fill="none" stroke="midnightblue" d="M543.91,-245.92C443.91,-243.18 288.88,-231.9 252,-189 224.04,-156.48 282.21,-65.45 285,-63 326.21,-26.84 391.23,-17.15 432.2,-14.83"/>
<polygon fill="midnightblue" stroke="midnightblue" points="432.48,-18.32 442.31,-14.37 432.17,-11.32 432.48,-18.32"/>
</g>
<!-- Node4&#45;&gt;Node8 -->
<g id="edge22" class="edge">
<title>Node4&#45;&gt;Node8</title>
<path fill="none" stroke="midnightblue" d="M543.82,-244.79C431.26,-239.59 257.2,-219.53 323,-144 333.79,-131.61 892.68,-64.92 909,-63 1078.34,-43.03 1280.89,-25.06 1365.17,-17.85"/>
<polygon fill="midnightblue" stroke="midnightblue" points="1365.66,-21.32 1375.33,-16.99 1365.06,-14.35 1365.66,-21.32"/>
</g>
<!-- Node4&#45;&gt;Node9 -->
<g id="edge18" class="edge">
<title>Node4&#45;&gt;Node9</title>
<path fill="none" stroke="midnightblue" d="M543.78,-233.18C518.37,-224.79 493.35,-211.16 478,-189 466.61,-172.56 464.14,-158.42 478,-144 512.83,-107.76 1331.92,-112.29 1382,-108 1411.63,-105.46 1444.15,-101.43 1472.29,-97.54"/>
<polygon fill="midnightblue" stroke="midnightblue" points="1473.03,-100.97 1482.45,-96.11 1472.06,-94.03 1473.03,-100.97"/>
</g>
<!-- Node10 -->
<g id="node10" class="node">
<title>Node10</title>
<g id="a_node10"><a xlink:href="_i_e_a_p_i_8hpp.html" target="_top" xlink:title=" ">
<polygon fill="white" stroke="black" points="728.5,-153.5 728.5,-179.5 811.5,-179.5 811.5,-153.5 728.5,-153.5"/>
<text text-anchor="middle" x="770" y="-162.7" font-family="Source Sans Pro" font-size="16.00">IEAPI.hpp</text>
</a>
</g>
</g>
<!-- Node4&#45;&gt;Node10 -->
<g id="edge9" class="edge">
<title>Node4&#45;&gt;Node10</title>
<path fill="none" stroke="midnightblue" d="M668.25,-225.33C690.67,-212.59 718.83,-196.58 739.85,-184.64"/>
<polygon fill="midnightblue" stroke="midnightblue" points="741.7,-187.61 748.66,-179.63 738.24,-181.53 741.7,-187.61"/>
</g>
<!-- Node12 -->
<g id="node12" class="node">
<title>Node12</title>
<g id="a_node12"><a xlink:title=" ">
<polygon fill="white" stroke="#bfbfbf" points="177.5,-0.5 177.5,-26.5 240.5,-26.5 240.5,-0.5 177.5,-0.5"/>
<text text-anchor="middle" x="209" y="-9.7" font-family="Source Sans Pro" font-size="16.00">cstdint</text>
</a>
</g>
</g>
<!-- Node4&#45;&gt;Node12 -->
<g id="edge19" class="edge">
<title>Node4&#45;&gt;Node12</title>
<path fill="none" stroke="midnightblue" d="M543.6,-245.1C442.03,-241.58 282.97,-229.53 241,-189 199.64,-149.06 201.58,-74.57 205.67,-37.17"/>
<polygon fill="midnightblue" stroke="midnightblue" points="209.2,-37.18 206.96,-26.83 202.25,-36.31 209.2,-37.18"/>
</g>
<!-- Node13 -->
<g id="node13" class="node">
<title>Node13</title>
<g id="a_node13"><a xlink:title=" ">
<polygon fill="white" stroke="#bfbfbf" points="1132,-153.5 1132,-179.5 1270,-179.5 1270,-153.5 1132,-153.5"/>
<text text-anchor="middle" x="1201" y="-162.7" font-family="Source Sans Pro" font-size="16.00">include/GL/glew.h</text>
</a>
</g>
</g>
<!-- Node4&#45;&gt;Node13 -->
<g id="edge15" class="edge">
<title>Node4&#45;&gt;Node13</title>
<path fill="none" stroke="midnightblue" d="M718.07,-237.02C848.47,-222.71 1083.4,-196.47 1122,-189 1131.53,-187.16 1141.59,-184.77 1151.23,-182.25"/>
<polygon fill="midnightblue" stroke="midnightblue" points="1152.33,-185.58 1161.08,-179.61 1150.52,-178.82 1152.33,-185.58"/>
</g>
<!-- Node14 -->
<g id="node14" class="node">
<title>Node14</title>
<g id="a_node14"><a xlink:title=" ">
<polygon fill="white" stroke="#bfbfbf" points="487.5,-153.5 487.5,-179.5 672.5,-179.5 672.5,-153.5 487.5,-153.5"/>
<text text-anchor="middle" x="580" y="-162.7" font-family="Source Sans Pro" font-size="16.00">include/vk_mem_alloc.h</text>
</a>
</g>
</g>
<!-- Node4&#45;&gt;Node14 -->
<g id="edge16" class="edge">
<title>Node4&#45;&gt;Node14</title>
<path fill="none" stroke="midnightblue" d="M617.33,-225.33C609.88,-213.79 600.7,-199.57 593.31,-188.11"/>
<polygon fill="midnightblue" stroke="midnightblue" points="596.19,-186.13 587.83,-179.63 590.31,-189.93 596.19,-186.13"/>
</g>
<!-- Node15 -->
<g id="node15" class="node">
<title>Node15</title>
<g id="a_node15"><a xlink:title=" ">
<polygon fill="white" stroke="#bfbfbf" points="332,-153.5 332,-179.5 432,-179.5 432,-153.5 332,-153.5"/>
<text text-anchor="middle" x="382" y="-162.7" font-family="Source Sans Pro" font-size="16.00">stb_image.h</text>
</a>
</g>
</g>
<!-- Node4&#45;&gt;Node15 -->
<g id="edge17" class="edge">
<title>Node4&#45;&gt;Node15</title>
<path fill="none" stroke="midnightblue" d="M561.92,-225.44C527.09,-214.72 484.24,-201.37 446,-189 439.93,-187.04 433.54,-184.93 427.25,-182.84"/>
<polygon fill="midnightblue" stroke="midnightblue" points="428.09,-179.43 417.5,-179.58 425.87,-186.07 428.09,-179.43"/>
</g>
<!-- Node16 -->
<g id="node16" class="node">
<title>Node16</title>
<g id="a_node16"><a xlink:title=" ">
<polygon fill="white" stroke="#bfbfbf" points="1706,-153.5 1706,-179.5 1792,-179.5 1792,-153.5 1706,-153.5"/>
<text text-anchor="middle" x="1749" y="-162.7" font-family="Source Sans Pro" font-size="16.00">functional</text>
</a>
</g>
</g>
<!-- Node4&#45;&gt;Node16 -->
<g id="edge20" class="edge">
<title>Node4&#45;&gt;Node16</title>
<path fill="none" stroke="midnightblue" d="M718.13,-236.76C755.6,-232.78 799.92,-228.33 840,-225 1164.77,-198.03 1555.76,-177.22 1695.86,-170.13"/>
<polygon fill="midnightblue" stroke="midnightblue" points="1696.09,-173.62 1705.9,-169.62 1695.74,-166.63 1696.09,-173.62"/>
</g>
<!-- Node5&#45;&gt;Node6 -->
<g id="edge5" class="edge">
<title>Node5&#45;&gt;Node6</title>
<path fill="none" stroke="midnightblue" d="M1083,-144.43C1149.38,-129.23 1236.27,-109.34 1289.02,-97.26"/>
<polygon fill="midnightblue" stroke="midnightblue" points="1289.81,-100.67 1298.78,-95.02 1288.25,-93.84 1289.81,-100.67"/>
</g>
<!-- Node5&#45;&gt;Node7 -->
<g id="edge6" class="edge">
<title>Node5&#45;&gt;Node7</title>
<path fill="none" stroke="midnightblue" d="M918.28,-144.42C805.75,-111.81 593.43,-50.27 507.51,-25.37"/>
<polygon fill="midnightblue" stroke="midnightblue" points="508.25,-21.94 497.67,-22.52 506.3,-28.67 508.25,-21.94"/>
</g>
<!-- Node5&#45;&gt;Node8 -->
<g id="edge7" class="edge">
<title>Node5&#45;&gt;Node8</title>
<path fill="none" stroke="midnightblue" d="M1049,-144.35C1134.55,-113.14 1292.32,-55.6 1365.64,-28.86"/>
<polygon fill="midnightblue" stroke="midnightblue" points="1367.21,-32.01 1375.41,-25.29 1364.81,-25.43 1367.21,-32.01"/>
</g>
<!-- Node5&#45;&gt;Node9 -->
<g id="edge8" class="edge">
<title>Node5&#45;&gt;Node9</title>
<path fill="none" stroke="midnightblue" d="M1113.59,-145.42C1116.76,-144.94 1119.9,-144.46 1123,-144 1188.73,-134.17 1370.23,-109.79 1472.5,-96.15"/>
<polygon fill="midnightblue" stroke="midnightblue" points="1473,-99.61 1482.45,-94.82 1472.08,-92.67 1473,-99.61"/>
</g>
<!-- Node10&#45;&gt;Node7 -->
<g id="edge14" class="edge">
<title>Node10&#45;&gt;Node7</title>
<path fill="none" stroke="midnightblue" d="M745.96,-153.4C692.64,-126.56 564.38,-62 503.35,-31.29"/>
<polygon fill="midnightblue" stroke="midnightblue" points="504.66,-28.03 494.16,-26.66 501.52,-34.28 504.66,-28.03"/>
</g>
<!-- Node11 -->
<g id="node11" class="node">
<title>Node11</title>
<g id="a_node11"><a xlink:href="_i_e_version_8hpp.html" target="_top" xlink:title=" ">
<polygon fill="white" stroke="black" points="294,-72.5 294,-98.5 404,-98.5 404,-72.5 294,-72.5"/>
<text text-anchor="middle" x="349" y="-81.7" font-family="Source Sans Pro" font-size="16.00">IEVersion.hpp</text>
</a>
</g>
</g>
<!-- Node10&#45;&gt;Node11 -->
<g id="edge10" class="edge">
<title>Node10&#45;&gt;Node11</title>
<path fill="none" stroke="midnightblue" d="M742.21,-153.39C733.33,-149.92 723.38,-146.42 714,-144 601.9,-115.06 570.14,-127.41 456,-108 442.4,-105.69 427.87,-102.95 414.06,-100.22"/>
<polygon fill="midnightblue" stroke="midnightblue" points="414.63,-96.76 404.14,-98.23 413.26,-103.63 414.63,-96.76"/>
</g>
<!-- Node11&#45;&gt;Node7 -->
<g id="edge12" class="edge">
<title>Node11&#45;&gt;Node7</title>
<path fill="none" stroke="midnightblue" d="M369.8,-72.47C389.19,-61.25 418.33,-44.39 440.19,-31.74"/>
<polygon fill="midnightblue" stroke="midnightblue" points="442.16,-34.65 449.07,-26.61 438.66,-28.59 442.16,-34.65"/>
</g>
<!-- Node11&#45;&gt;Node8 -->
<g id="edge13" class="edge">
<title>Node11&#45;&gt;Node8</title>
<path fill="none" stroke="midnightblue" d="M381.57,-72.49C392.94,-68.8 405.89,-65.15 418,-63 604.6,-29.9 1204.19,-17.81 1365,-15.12"/>
<polygon fill="midnightblue" stroke="midnightblue" points="1365.44,-18.61 1375.38,-14.95 1365.32,-11.61 1365.44,-18.61"/>
</g>
<!-- Node11&#45;&gt;Node12 -->
<g id="edge11" class="edge">
<title>Node11&#45;&gt;Node12</title>
<path fill="none" stroke="midnightblue" d="M324.93,-72.47C302.2,-61.1 267.88,-43.94 242.48,-31.24"/>
<polygon fill="midnightblue" stroke="midnightblue" points="243.73,-27.95 233.22,-26.61 240.6,-34.21 243.73,-27.95"/>
</g>
<!-- Node17&#45;&gt;Node3 -->
<g id="edge84" class="edge">
<title>Node17&#45;&gt;Node3</title>
<path fill="none" stroke="midnightblue" d="M617.95,-531.49C549.62,-512.32 453.52,-479.66 379,-432 347.77,-412.03 318.45,-381.21 299.14,-358.58"/>
<polygon fill="midnightblue" stroke="midnightblue" points="301.6,-356.06 292.5,-350.65 296.24,-360.56 301.6,-356.06"/>
</g>
<!-- Node17&#45;&gt;Node8 -->
<g id="edge88" class="edge">
<title>Node17&#45;&gt;Node8</title>
<path fill="none" stroke="midnightblue" d="M809.55,-553.04C1083.86,-553.65 1814.16,-549.89 2049,-495 2139.39,-473.87 2240,-503.33 2240,-410.5 2240,-410.5 2240,-410.5 2240,-246.5 2240,-191.58 2211.52,-181.07 2171,-144 2143.48,-118.82 2059.73,-73.7 2024,-63 1914.86,-30.32 1563.96,-18.54 1444.93,-15.43"/>
<polygon fill="midnightblue" stroke="midnightblue" points="1444.88,-11.93 1434.8,-15.17 1444.7,-18.92 1444.88,-11.93"/>
</g>
<!-- Node17&#45;&gt;Node9 -->
<g id="edge85" class="edge">
<title>Node17&#45;&gt;Node9</title>
<path fill="none" stroke="midnightblue" d="M809.59,-553.29C1144.96,-554.43 2164,-546.67 2164,-410.5 2164,-410.5 2164,-410.5 2164,-246.5 2164,-200.17 2179.17,-175.29 2145,-144 2106.81,-109.02 1768.93,-93.76 1617.67,-88.63"/>
<polygon fill="midnightblue" stroke="midnightblue" points="1617.65,-85.13 1607.54,-88.3 1617.42,-92.13 1617.65,-85.13"/>
</g>
<!-- Node17&#45;&gt;Node12 -->
<g id="edge86" class="edge">
<title>Node17&#45;&gt;Node12</title>
<path fill="none" stroke="midnightblue" d="M598.22,-552.81C401.69,-550.5 0,-531.05 0,-410.5 0,-410.5 0,-410.5 0,-165.5 0,-83.66 106.59,-41.7 167.53,-24.4"/>
<polygon fill="midnightblue" stroke="midnightblue" points="168.54,-27.75 177.26,-21.74 166.69,-21 168.54,-27.75"/>
</g>
<!-- Node17&#45;&gt;Node16 -->
<g id="edge87" class="edge">
<title>Node17&#45;&gt;Node16</title>
<path fill="none" stroke="midnightblue" d="M809.75,-552.38C999.46,-549.49 1408.38,-531.09 1736,-432 1811.91,-409.04 1853.56,-418.62 1895,-351 1905.45,-333.95 1906.97,-322.02 1895,-306 1861.15,-260.72 1811.82,-311.1 1773,-270 1752.62,-248.42 1748.44,-212.96 1748.1,-189.92"/>
<polygon fill="midnightblue" stroke="midnightblue" points="1751.61,-189.76 1748.2,-179.73 1744.61,-189.7 1751.61,-189.76"/>
</g>
<!-- Node18 -->
<g id="node18" class="node">
<title>Node18</title>
<g id="a_node18"><a xlink:href="_i_e_command_buffer_8hpp.html" target="_top" xlink:title=" ">
<polygon fill="white" stroke="black" points="559,-468.5 559,-494.5 849,-494.5 849,-468.5 559,-468.5"/>
<text text-anchor="middle" x="704" y="-477.7" font-family="Source Sans Pro" font-size="16.00">CommandBuffer/IECommandBuffer.hpp</text>
</a>
</g>
</g>
<!-- Node17&#45;&gt;Node18 -->
<g id="edge28" class="edge">
<title>Node17&#45;&gt;Node18</title>
<path fill="none" stroke="midnightblue" d="M704,-531.5C704,-523 704,-513.19 704,-504.59"/>
<polygon fill="midnightblue" stroke="midnightblue" points="707.5,-504.53 704,-494.53 700.5,-504.53 707.5,-504.53"/>
</g>
<!-- Node18&#45;&gt;Node2 -->
<g id="edge55" class="edge">
<title>Node18&#45;&gt;Node2</title>
<path fill="none" stroke="midnightblue" d="M614.78,-468.47C522.83,-456.06 379.8,-436.77 284.31,-423.89"/>
<polygon fill="midnightblue" stroke="midnightblue" points="284.73,-420.42 274.36,-422.55 283.8,-427.36 284.73,-420.42"/>
</g>
<!-- Node18&#45;&gt;Node4 -->
<g id="edge78" class="edge">
<title>Node18&#45;&gt;Node4</title>
<path fill="none" stroke="midnightblue" d="M700.18,-468.35C689.15,-433.3 657.02,-331.2 640.72,-279.4"/>
<polygon fill="midnightblue" stroke="midnightblue" points="644.03,-278.24 637.69,-269.75 637.35,-280.34 644.03,-278.24"/>
</g>
<!-- Node18&#45;&gt;Node8 -->
<g id="edge82" class="edge">
<title>Node18&#45;&gt;Node8</title>
<path fill="none" stroke="midnightblue" d="M694.57,-468.34C679.62,-449.53 648.98,-412.86 618,-387 482.8,-274.14 194.71,-281.3 305,-144 351.46,-86.16 398.56,-134.11 468,-108 506.91,-93.37 510.04,-74.46 550,-63 705.98,-18.27 1217.6,-14.56 1364.96,-14.44"/>
<polygon fill="midnightblue" stroke="midnightblue" points="1365.33,-17.94 1375.32,-14.43 1365.32,-10.94 1365.33,-17.94"/>
</g>
<!-- Node18&#45;&gt;Node9 -->
<g id="edge83" class="edge">
<title>Node18&#45;&gt;Node9</title>
<path fill="none" stroke="midnightblue" d="M849.42,-477.81C1098.15,-472.49 1581.15,-458.77 1607,-432 1696.01,-339.81 1648.88,-259.32 1593,-144 1586.22,-130.01 1575.31,-116.55 1565.6,-106.17"/>
<polygon fill="midnightblue" stroke="midnightblue" points="1567.98,-103.6 1558.5,-98.88 1562.97,-108.49 1567.98,-103.6"/>
</g>
<!-- Node19 -->
<g id="node19" class="node">
<title>Node19</title>
<g id="a_node19"><a xlink:href="_i_e_buffer_8hpp.html" target="_top" xlink:title=" ">
<polygon fill="white" stroke="black" points="849.5,-234.5 849.5,-260.5 996.5,-260.5 996.5,-234.5 849.5,-234.5"/>
<text text-anchor="middle" x="923" y="-243.7" font-family="Source Sans Pro" font-size="16.00">Buffer/IEBuffer.hpp</text>
</a>
</g>
</g>
<!-- Node18&#45;&gt;Node19 -->
<g id="edge29" class="edge">
<title>Node18&#45;&gt;Node19</title>
<path fill="none" stroke="midnightblue" d="M705.81,-468.09C711.02,-436.66 728.9,-353.1 777,-306 797.8,-285.63 826.68,-272.25 853.27,-263.57"/>
<polygon fill="midnightblue" stroke="midnightblue" points="854.42,-266.87 862.94,-260.58 852.35,-260.19 854.42,-266.87"/>
</g>
<!-- Node20 -->
<g id="node20" class="node">
<title>Node20</title>
<g id="a_node20"><a xlink:href="_i_e_copy_buffer_to_image_info_8hpp.html" target="_top" xlink:title=" ">
<polygon fill="white" stroke="black" points="786.5,-306.5 786.5,-350.5 1059.5,-350.5 1059.5,-306.5 786.5,-306.5"/>
<text text-anchor="start" x="794.5" y="-333.7" font-family="Source Sans Pro" font-size="16.00">CommandBuffer/Dependency</text>
<text text-anchor="middle" x="923" y="-315.7" font-family="Source Sans Pro" font-size="16.00">Structs/IECopyBufferToImageInfo.hpp</text>
</a>
</g>
</g>
<!-- Node18&#45;&gt;Node20 -->
<g id="edge38" class="edge">
<title>Node18&#45;&gt;Node20</title>
<path fill="none" stroke="midnightblue" d="M721.55,-468.4C756.6,-444.23 835.99,-389.5 883.97,-356.41"/>
<polygon fill="midnightblue" stroke="midnightblue" points="886.02,-359.25 892.26,-350.69 882.04,-353.49 886.02,-359.25"/>
</g>
<!-- Node21 -->
<g id="node21" class="node">
<title>Node21</title>
<g id="a_node21"><a xlink:href="_i_e_dependency_info_8hpp.html" target="_top" xlink:title=" ">
<polygon fill="white" stroke="black" points="1374,-387.5 1374,-431.5 1598,-431.5 1598,-387.5 1374,-387.5"/>
<text text-anchor="start" x="1382" y="-414.7" font-family="Source Sans Pro" font-size="16.00">CommandBuffer/Dependency</text>
<text text-anchor="middle" x="1486" y="-396.7" font-family="Source Sans Pro" font-size="16.00">Structs/IEDependencyInfo.hpp</text>
</a>
</g>
</g>
<!-- Node18&#45;&gt;Node21 -->
<g id="edge43" class="edge">
<title>Node18&#45;&gt;Node21</title>
<path fill="none" stroke="midnightblue" d="M838.43,-468.47C986.09,-455.25 1221.16,-434.21 1363.77,-421.44"/>
<polygon fill="midnightblue" stroke="midnightblue" points="1364.23,-424.91 1373.88,-420.54 1363.61,-417.94 1364.23,-424.91"/>
</g>
<!-- Node24 -->
<g id="node24" class="node">
<title>Node24</title>
<g id="a_node24"><a xlink:href="_i_e_pipeline_8hpp.html" target="_top" xlink:title=" ">
<polygon fill="white" stroke="black" points="1706,-306.5 1706,-350.5 1886,-350.5 1886,-306.5 1706,-306.5"/>
<text text-anchor="start" x="1714" y="-333.7" font-family="Source Sans Pro" font-size="16.00">GraphicsModule/Shader</text>
<text text-anchor="middle" x="1796" y="-315.7" font-family="Source Sans Pro" font-size="16.00">/IEPipeline.hpp</text>
</a>
</g>
</g>
<!-- Node18&#45;&gt;Node24 -->
<g id="edge56" class="edge">
<title>Node18&#45;&gt;Node24</title>
<path fill="none" stroke="midnightblue" d="M849.22,-479.07C1105.24,-475.71 1617.01,-464.91 1692,-432 1727.3,-416.51 1757.36,-383.25 1775.95,-358.8"/>
<polygon fill="midnightblue" stroke="midnightblue" points="1778.91,-360.69 1782.04,-350.57 1773.28,-356.53 1778.91,-360.69"/>
</g>
<!-- Node31 -->
<g id="node31" class="node">
<title>Node31</title>
<g id="a_node31"><a xlink:href="_i_e_dependent_8hpp.html" target="_top" xlink:title=" ">
<polygon fill="white" stroke="black" points="2000,-153.5 2000,-179.5 2136,-179.5 2136,-153.5 2000,-153.5"/>
<text text-anchor="middle" x="2068" y="-162.7" font-family="Source Sans Pro" font-size="16.00">IEDependent.hpp</text>
</a>
</g>
</g>
<!-- Node18&#45;&gt;Node31 -->
<g id="edge75" class="edge">
<title>Node18&#45;&gt;Node31</title>
<path fill="none" stroke="midnightblue" d="M849.26,-481.19C1092.85,-481.1 1573.02,-475.19 1736,-432 1872.01,-395.95 1913.2,-373.98 2008,-270 2030.53,-245.29 2048.59,-210.76 2058.81,-188.76"/>
<polygon fill="midnightblue" stroke="midnightblue" points="2062.01,-190.17 2062.93,-179.61 2055.63,-187.29 2062.01,-190.17"/>
</g>
<!-- Node32 -->
<g id="node32" class="node">
<title>Node32</title>
<g id="a_node32"><a xlink:title=" ">
<polygon fill="white" stroke="#bfbfbf" points="388.5,-396.5 388.5,-422.5 447.5,-422.5 447.5,-396.5 388.5,-396.5"/>
<text text-anchor="middle" x="418" y="-405.7" font-family="Source Sans Pro" font-size="16.00">mutex</text>
</a>
</g>
</g>
<!-- Node18&#45;&gt;Node32 -->
<g id="edge79" class="edge">
<title>Node18&#45;&gt;Node32</title>
<path fill="none" stroke="midnightblue" d="M604.24,-468.49C558.18,-461.05 503.32,-449.49 456,-432 452.63,-430.75 449.2,-429.23 445.85,-427.58"/>
<polygon fill="midnightblue" stroke="midnightblue" points="447.22,-424.34 436.75,-422.69 443.91,-430.5 447.22,-424.34"/>
</g>
<!-- Node33 -->
<g id="node33" class="node">
<title>Node33</title>
<g id="a_node33"><a xlink:title=" ">
<polygon fill="white" stroke="#bfbfbf" points="465.5,-396.5 465.5,-422.5 526.5,-422.5 526.5,-396.5 465.5,-396.5"/>
<text text-anchor="middle" x="496" y="-405.7" font-family="Source Sans Pro" font-size="16.00">thread</text>
</a>
</g>
</g>
<!-- Node18&#45;&gt;Node33 -->
<g id="edge80" class="edge">
<title>Node18&#45;&gt;Node33</title>
<path fill="none" stroke="midnightblue" d="M651.57,-468.42C617.93,-459.93 573.67,-447.36 536,-432 532.51,-430.58 528.93,-428.94 525.41,-427.21"/>
<polygon fill="midnightblue" stroke="midnightblue" points="526.85,-424.01 516.36,-422.52 523.63,-430.22 526.85,-424.01"/>
</g>
<!-- Node34 -->
<g id="node34" class="node">
<title>Node34</title>
<g id="a_node34"><a xlink:title=" ">
<polygon fill="white" stroke="#bfbfbf" points="545,-396.5 545,-422.5 609,-422.5 609,-396.5 545,-396.5"/>
<text text-anchor="middle" x="577" y="-405.7" font-family="Source Sans Pro" font-size="16.00">variant</text>
</a>
</g>
</g>
<!-- Node18&#45;&gt;Node34 -->
<g id="edge81" class="edge">
<title>Node18&#45;&gt;Node34</title>
<path fill="none" stroke="midnightblue" d="M682.17,-468.47C661.72,-457.2 630.96,-440.24 607.98,-427.58"/>
<polygon fill="midnightblue" stroke="midnightblue" points="609.42,-424.37 598.97,-422.61 606.04,-430.5 609.42,-424.37"/>
</g>
<!-- Node19&#45;&gt;Node5 -->
<g id="edge30" class="edge">
<title>Node19&#45;&gt;Node5</title>
<path fill="none" stroke="midnightblue" d="M933.62,-234.16C942.29,-224.09 954.87,-209.47 966.05,-196.49"/>
<polygon fill="midnightblue" stroke="midnightblue" points="968.91,-198.53 972.78,-188.67 963.6,-193.97 968.91,-198.53"/>
</g>
<!-- Node19&#45;&gt;Node8 -->
<g id="edge37" class="edge">
<title>Node19&#45;&gt;Node8</title>
<path fill="none" stroke="midnightblue" d="M902,-234.39C886.91,-224.38 867.76,-208.64 859,-189 850.86,-170.73 846.94,-159.95 859,-144 920.82,-62.24 1249.93,-27.39 1365.13,-17.58"/>
<polygon fill="midnightblue" stroke="midnightblue" points="1365.61,-21.05 1375.28,-16.73 1365.03,-14.07 1365.61,-21.05"/>
</g>
<!-- Node19&#45;&gt;Node9 -->
<g id="edge34" class="edge">
<title>Node19&#45;&gt;Node9</title>
<path fill="none" stroke="midnightblue" d="M996.55,-239.14C1069.21,-230.81 1183.05,-214.93 1279,-189 1290.42,-185.91 1433.24,-130.23 1504.75,-102.26"/>
<polygon fill="midnightblue" stroke="midnightblue" points="1506.31,-105.41 1514.35,-98.51 1503.76,-98.89 1506.31,-105.41"/>
</g>
<!-- Node19&#45;&gt;Node10 -->
<g id="edge31" class="edge">
<title>Node19&#45;&gt;Node10</title>
<path fill="none" stroke="midnightblue" d="M899.43,-234.33C873.41,-220.89 831.37,-199.19 802.29,-184.17"/>
<polygon fill="midnightblue" stroke="midnightblue" points="803.84,-181.03 793.35,-179.55 800.63,-187.25 803.84,-181.03"/>
</g>
<!-- Node19&#45;&gt;Node12 -->
<g id="edge35" class="edge">
<title>Node19&#45;&gt;Node12</title>
<path fill="none" stroke="midnightblue" d="M849.25,-236.59C808.41,-228.54 758.13,-214.2 719,-189 696.99,-174.83 704.22,-156.09 681,-144 524.25,-62.38 440.98,-191.09 285,-108 254.6,-91.81 231.87,-57.77 219.52,-35.54"/>
<polygon fill="midnightblue" stroke="midnightblue" points="222.51,-33.72 214.72,-26.54 216.34,-37.01 222.51,-33.72"/>
</g>
<!-- Node19&#45;&gt;Node13 -->
<g id="edge33" class="edge">
<title>Node19&#45;&gt;Node13</title>
<path fill="none" stroke="midnightblue" d="M965.52,-234.42C1014.68,-220.45 1095.6,-197.45 1148.6,-182.39"/>
<polygon fill="midnightblue" stroke="midnightblue" points="1149.82,-185.68 1158.48,-179.58 1147.9,-178.95 1149.82,-185.68"/>
</g>
<!-- Node19&#45;&gt;Node14 -->
<g id="edge32" class="edge">
<title>Node19&#45;&gt;Node14</title>
<path fill="none" stroke="midnightblue" d="M870.53,-234.42C809.04,-220.25 707.26,-196.81 641.94,-181.77"/>
<polygon fill="midnightblue" stroke="midnightblue" points="642.71,-178.35 632.18,-179.52 641.14,-185.17 642.71,-178.35"/>
</g>
<!-- Node19&#45;&gt;Node16 -->
<g id="edge36" class="edge">
<title>Node19&#45;&gt;Node16</title>
<path fill="none" stroke="midnightblue" d="M996.67,-239.45C1160.61,-223.77 1552.4,-186.3 1695.5,-172.62"/>
<polygon fill="midnightblue" stroke="midnightblue" points="1696.15,-176.07 1705.77,-171.63 1695.48,-169.1 1696.15,-176.07"/>
</g>
<!-- Node20&#45;&gt;Node4 -->
<g id="edge40" class="edge">
<title>Node20&#45;&gt;Node4</title>
<path fill="none" stroke="midnightblue" d="M845.13,-306.43C806.11,-295.88 758.72,-283.06 718.46,-272.16"/>
<polygon fill="midnightblue" stroke="midnightblue" points="719.22,-268.74 708.65,-269.51 717.39,-275.5 719.22,-268.74"/>
</g>
<!-- Node20&#45;&gt;Node6 -->
<g id="edge41" class="edge">
<title>Node20&#45;&gt;Node6</title>
<path fill="none" stroke="midnightblue" d="M1029.29,-306.49C1105.9,-286.86 1207.9,-251 1279,-189 1304.15,-167.07 1320.46,-131.2 1328.94,-108.24"/>
<polygon fill="midnightblue" stroke="midnightblue" points="1332.28,-109.29 1332.29,-98.69 1325.68,-106.97 1332.28,-109.29"/>
</g>
<!-- Node20&#45;&gt;Node9 -->
<g id="edge42" class="edge">
<title>Node20&#45;&gt;Node9</title>
<path fill="none" stroke="midnightblue" d="M1059.68,-307.11C1105.09,-298.24 1155.42,-286.11 1200,-270 1325.41,-224.68 1461.62,-140.78 1518.12,-104.26"/>
<polygon fill="midnightblue" stroke="midnightblue" points="1520.32,-107 1526.8,-98.61 1516.51,-101.13 1520.32,-107"/>
</g>
<!-- Node20&#45;&gt;Node19 -->
<g id="edge39" class="edge">
<title>Node20&#45;&gt;Node19</title>
<path fill="none" stroke="midnightblue" d="M923,-306.33C923,-295.36 923,-281.97 923,-270.83"/>
<polygon fill="midnightblue" stroke="midnightblue" points="926.5,-270.63 923,-260.63 919.5,-270.63 926.5,-270.63"/>
</g>
<!-- Node21&#45;&gt;Node6 -->
<g id="edge52" class="edge">
<title>Node21&#45;&gt;Node6</title>
<path fill="none" stroke="midnightblue" d="M1515.83,-387.24C1526.87,-377.58 1538.11,-365.14 1544,-351 1551.69,-332.54 1551.4,-324.58 1544,-306 1507.12,-213.45 1410.62,-137.5 1363.16,-104.39"/>
<polygon fill="midnightblue" stroke="midnightblue" points="1364.84,-101.3 1354.62,-98.53 1360.88,-107.07 1364.84,-101.3"/>
</g>
<!-- Node21&#45;&gt;Node8 -->
<g id="edge53" class="edge">
<title>Node21&#45;&gt;Node8</title>
<path fill="none" stroke="midnightblue" d="M1554.05,-387.47C1571.6,-378.87 1588.71,-367.04 1600,-351 1673.78,-246.16 1695.85,-163.29 1616,-63 1594.99,-36.62 1499.77,-23.39 1444.69,-17.84"/>
<polygon fill="midnightblue" stroke="midnightblue" points="1444.87,-14.34 1434.58,-16.86 1444.19,-21.31 1444.87,-14.34"/>
</g>
<!-- Node21&#45;&gt;Node9 -->
<g id="edge54" class="edge">
<title>Node21&#45;&gt;Node9</title>
<path fill="none" stroke="midnightblue" d="M1539.1,-387.45C1554.42,-378.6 1569.33,-366.65 1578,-351 1622.73,-270.3 1577.77,-154.87 1555.7,-107.76"/>
<polygon fill="midnightblue" stroke="midnightblue" points="1558.74,-106.02 1551.25,-98.53 1552.44,-109.06 1558.74,-106.02"/>
</g>
<!-- Node22 -->
<g id="node22" class="node">
<title>Node22</title>
<g id="a_node22"><a xlink:href="_i_e_buffer_memory_barrier_8hpp.html" target="_top" xlink:title=" ">
<polygon fill="white" stroke="black" points="1332.5,-315.5 1332.5,-341.5 1535.5,-341.5 1535.5,-315.5 1332.5,-315.5"/>
<text text-anchor="middle" x="1434" y="-324.7" font-family="Source Sans Pro" font-size="16.00">IEBufferMemoryBarrier.hpp</text>
</a>
</g>
</g>
<!-- Node21&#45;&gt;Node22 -->
<g id="edge44" class="edge">
<title>Node21&#45;&gt;Node22</title>
<path fill="none" stroke="midnightblue" d="M1472.06,-387.33C1464.47,-375.79 1455.11,-361.57 1447.57,-350.11"/>
<polygon fill="midnightblue" stroke="midnightblue" points="1450.4,-348.06 1441.98,-341.63 1444.56,-351.9 1450.4,-348.06"/>
</g>
<!-- Node23 -->
<g id="node23" class="node">
<title>Node23</title>
<g id="a_node23"><a xlink:href="_i_e_image_memory_barrier_8hpp.html" target="_top" xlink:title=" ">
<polygon fill="white" stroke="black" points="1111.5,-315.5 1111.5,-341.5 1314.5,-341.5 1314.5,-315.5 1111.5,-315.5"/>
<text text-anchor="middle" x="1213" y="-324.7" font-family="Source Sans Pro" font-size="16.00">IEImageMemoryBarrier.hpp</text>
</a>
</g>
</g>
<!-- Node21&#45;&gt;Node23 -->
<g id="edge48" class="edge">
<title>Node21&#45;&gt;Node23</title>
<path fill="none" stroke="midnightblue" d="M1413.2,-387.43C1366.26,-373.85 1306.36,-356.52 1264.37,-344.36"/>
<polygon fill="midnightblue" stroke="midnightblue" points="1265.21,-340.96 1254.63,-341.55 1263.26,-347.69 1265.21,-340.96"/>
</g>
<!-- Node22&#45;&gt;Node6 -->
<g id="edge46" class="edge">
<title>Node22&#45;&gt;Node6</title>
<path fill="none" stroke="midnightblue" d="M1429.01,-315.22C1413.31,-276.62 1364.84,-157.43 1344.81,-108.16"/>
<polygon fill="midnightblue" stroke="midnightblue" points="1347.99,-106.7 1340.98,-98.76 1341.51,-109.34 1347.99,-106.7"/>
</g>
<!-- Node22&#45;&gt;Node9 -->
<g id="edge47" class="edge">
<title>Node22&#45;&gt;Node9</title>
<path fill="none" stroke="midnightblue" d="M1447.56,-315.4C1471.41,-293.15 1520.22,-243.02 1540,-189 1549.65,-162.64 1549.32,-129.91 1547.63,-108.63"/>
<polygon fill="midnightblue" stroke="midnightblue" points="1551.11,-108.26 1546.67,-98.64 1544.15,-108.93 1551.11,-108.26"/>
</g>
<!-- Node22&#45;&gt;Node19 -->
<g id="edge45" class="edge">
<title>Node22&#45;&gt;Node19</title>
<path fill="none" stroke="midnightblue" d="M1374.76,-315.47C1358.05,-312.23 1339.84,-308.84 1323,-306 1214.03,-287.63 1087.72,-270.09 1006.67,-259.32"/>
<polygon fill="midnightblue" stroke="midnightblue" points="1006.9,-255.82 996.52,-257.98 1005.98,-262.76 1006.9,-255.82"/>
</g>
<!-- Node23&#45;&gt;Node4 -->
<g id="edge49" class="edge">
<title>Node23&#45;&gt;Node4</title>
<path fill="none" stroke="midnightblue" d="M1133.64,-315.49C1112.33,-312.33 1089.3,-308.98 1068,-306 951.25,-289.66 816.75,-272.17 728.15,-260.82"/>
<polygon fill="midnightblue" stroke="midnightblue" points="728.48,-257.33 718.12,-259.54 727.59,-264.28 728.48,-257.33"/>
</g>
<!-- Node23&#45;&gt;Node6 -->
<g id="edge50" class="edge">
<title>Node23&#45;&gt;Node6</title>
<path fill="none" stroke="midnightblue" d="M1249.95,-315.47C1271.59,-306.44 1297.46,-291.84 1312,-270 1345.08,-220.31 1342.78,-146.1 1339.04,-109.13"/>
<polygon fill="midnightblue" stroke="midnightblue" points="1342.48,-108.45 1337.87,-98.92 1335.53,-109.25 1342.48,-108.45"/>
</g>
<!-- Node23&#45;&gt;Node9 -->
<g id="edge51" class="edge">
<title>Node23&#45;&gt;Node9</title>
<path fill="none" stroke="midnightblue" d="M1276.65,-315.43C1311.61,-306.71 1354.52,-292.43 1388,-270 1454.47,-225.47 1509.08,-145.36 1532.58,-107.46"/>
<polygon fill="midnightblue" stroke="midnightblue" points="1535.65,-109.15 1537.87,-98.79 1529.68,-105.5 1535.65,-109.15"/>
</g>
<!-- Node24&#45;&gt;Node5 -->
<g id="edge57" class="edge">
<title>Node24&#45;&gt;Node5</title>
<path fill="none" stroke="midnightblue" d="M1706,-309.61C1559.32,-280.46 1268.86,-222.73 1106.94,-190.54"/>
<polygon fill="midnightblue" stroke="midnightblue" points="1107.43,-187.07 1096.94,-188.56 1106.07,-193.94 1107.43,-187.07"/>
</g>
<!-- Node24&#45;&gt;Node8 -->
<g id="edge74" class="edge">
<title>Node24&#45;&gt;Node8</title>
<path fill="none" stroke="midnightblue" d="M1886.09,-311.56C1930.3,-301.71 1976.86,-287.59 1990,-270 2011.33,-241.43 1976.23,-95.49 1935,-63 1896.73,-32.85 1561.76,-19.46 1444.96,-15.68"/>
<polygon fill="midnightblue" stroke="midnightblue" points="1444.78,-12.17 1434.68,-15.35 1444.56,-19.17 1444.78,-12.17"/>
</g>
<!-- Node24&#45;&gt;Node9 -->
<g id="edge72" class="edge">
<title>Node24&#45;&gt;Node9</title>
<path fill="none" stroke="midnightblue" d="M1886.28,-319.47C1918.33,-311.76 1951.31,-297.2 1971,-270 1982.73,-253.8 1980.85,-242.4 1971,-225 1936.53,-164.11 1901.29,-169.16 1836,-144 1764.57,-116.48 1677.97,-101.53 1617.91,-93.83"/>
<polygon fill="midnightblue" stroke="midnightblue" points="1618.12,-90.33 1607.76,-92.57 1617.25,-97.28 1618.12,-90.33"/>
</g>
<!-- Node24&#45;&gt;Node16 -->
<g id="edge73" class="edge">
<title>Node24&#45;&gt;Node16</title>
<path fill="none" stroke="midnightblue" d="M1767.47,-306.31C1756.72,-296.58 1745.72,-284.07 1740,-270 1729.35,-243.81 1735.31,-210.83 1741.41,-189.46"/>
<polygon fill="midnightblue" stroke="midnightblue" points="1744.81,-190.3 1744.44,-179.71 1738.13,-188.23 1744.81,-190.3"/>
</g>
<!-- Node25 -->
<g id="node25" class="node">
<title>Node25</title>
<g id="a_node25"><a xlink:href="_i_e_shader_8hpp.html" target="_top" xlink:title=" ">
<polygon fill="white" stroke="black" points="1782,-225.5 1782,-269.5 1962,-269.5 1962,-225.5 1782,-225.5"/>
<text text-anchor="start" x="1790" y="-252.7" font-family="Source Sans Pro" font-size="16.00">GraphicsModule/Shader</text>
<text text-anchor="middle" x="1872" y="-234.7" font-family="Source Sans Pro" font-size="16.00">/IEShader.hpp</text>
</a>
</g>
</g>
<!-- Node24&#45;&gt;Node25 -->
<g id="edge58" class="edge">
<title>Node24&#45;&gt;Node25</title>
<path fill="none" stroke="midnightblue" d="M1816.37,-306.33C1824.97,-297.39 1835.12,-286.83 1844.39,-277.2"/>
<polygon fill="midnightblue" stroke="midnightblue" points="1847.17,-279.36 1851.58,-269.73 1842.12,-274.51 1847.17,-279.36"/>
</g>
<!-- Node25&#45;&gt;Node7 -->
<g id="edge69" class="edge">
<title>Node25&#45;&gt;Node7</title>
<path fill="none" stroke="midnightblue" d="M1869.87,-225.26C1866.48,-202.34 1857.84,-166.17 1836,-144 1762.88,-69.77 1718.17,-83.45 1616,-63 1396.77,-19.12 680.42,-14.9 507.72,-14.53"/>
<polygon fill="midnightblue" stroke="midnightblue" points="507.6,-11.03 497.59,-14.51 507.59,-18.03 507.6,-11.03"/>
</g>
<!-- Node25&#45;&gt;Node8 -->
<g id="edge70" class="edge">
<title>Node25&#45;&gt;Node8</title>
<path fill="none" stroke="midnightblue" d="M1890.28,-225.38C1897.97,-215.12 1906.04,-202.18 1910,-189 1926.12,-135.37 1947.66,-104.45 1910,-63 1878.88,-28.75 1558.43,-18.05 1444.74,-15.31"/>
<polygon fill="midnightblue" stroke="midnightblue" points="1444.79,-11.81 1434.71,-15.08 1444.63,-18.81 1444.79,-11.81"/>
</g>
<!-- Node25&#45;&gt;Node9 -->
<g id="edge60" class="edge">
<title>Node25&#45;&gt;Node9</title>
<path fill="none" stroke="midnightblue" d="M1863.09,-225.27C1852.06,-201.67 1830.98,-164.2 1801,-144 1746.61,-107.35 1672.43,-93.74 1617.92,-88.84"/>
<polygon fill="midnightblue" stroke="midnightblue" points="1617.89,-85.33 1607.64,-88 1617.32,-92.3 1617.89,-85.33"/>
</g>
<!-- Node25&#45;&gt;Node10 -->
<g id="edge59" class="edge">
<title>Node25&#45;&gt;Node10</title>
<path fill="none" stroke="midnightblue" d="M1781.67,-246.81C1603.97,-246.23 1196.84,-238.98 859,-189 846.84,-187.2 833.9,-184.53 821.77,-181.67"/>
<polygon fill="midnightblue" stroke="midnightblue" points="822.34,-178.21 811.8,-179.24 820.69,-185.01 822.34,-178.21"/>
</g>
<!-- Node25&#45;&gt;Node13 -->
<g id="edge71" class="edge">
<title>Node25&#45;&gt;Node13</title>
<path fill="none" stroke="midnightblue" d="M1781.85,-235.89C1649.79,-220.34 1405.83,-191.62 1280.25,-176.83"/>
<polygon fill="midnightblue" stroke="midnightblue" points="1280.66,-173.35 1270.32,-175.66 1279.84,-180.31 1280.66,-173.35"/>
</g>
<!-- Node25&#45;&gt;Node16 -->
<g id="edge68" class="edge">
<title>Node25&#45;&gt;Node16</title>
<path fill="none" stroke="midnightblue" d="M1839.04,-225.33C1819.47,-212.76 1794.95,-197.01 1776.44,-185.12"/>
<polygon fill="midnightblue" stroke="midnightblue" points="1778.19,-182.09 1767.88,-179.63 1774.4,-187.98 1778.19,-182.09"/>
</g>
<!-- Node26 -->
<g id="node26" class="node">
<title>Node26</title>
<g id="a_node26"><a xlink:href="_i_e_file_8hpp.html" target="_top" xlink:title=" ">
<polygon fill="white" stroke="black" points="2132.5,-63.5 2132.5,-107.5 2309.5,-107.5 2309.5,-63.5 2132.5,-63.5"/>
<text text-anchor="start" x="2140.5" y="-90.7" font-family="Source Sans Pro" font-size="16.00">Core/FileSystemModule</text>
<text text-anchor="middle" x="2221" y="-72.7" font-family="Source Sans Pro" font-size="16.00">/IEFile.hpp</text>
</a>
</g>
</g>
<!-- Node25&#45;&gt;Node26 -->
<g id="edge61" class="edge">
<title>Node25&#45;&gt;Node26</title>
<path fill="none" stroke="midnightblue" d="M1962.32,-243.58C2018.67,-238.04 2090.57,-223.9 2145,-189 2172.49,-171.37 2193.53,-140.05 2206.42,-116.66"/>
<polygon fill="midnightblue" stroke="midnightblue" points="2209.52,-118.28 2211.12,-107.81 2203.34,-115 2209.52,-118.28"/>
</g>
<!-- Node26&#45;&gt;Node7 -->
<g id="edge66" class="edge">
<title>Node26&#45;&gt;Node7</title>
<path fill="none" stroke="midnightblue" d="M2132.24,-77.53C2070.05,-72.85 1985,-66.85 1910,-63 1353.28,-34.39 674.57,-18.84 508.16,-15.29"/>
<polygon fill="midnightblue" stroke="midnightblue" points="508.02,-11.79 497.95,-15.07 507.88,-18.78 508.02,-11.79"/>
</g>
<!-- Node26&#45;&gt;Node8 -->
<g id="edge67" class="edge">
<title>Node26&#45;&gt;Node8</title>
<path fill="none" stroke="midnightblue" d="M2132.4,-65.05C2127.88,-64.3 2123.39,-63.61 2119,-63 1863.83,-27.62 1553.62,-17.73 1444.92,-15.26"/>
<polygon fill="midnightblue" stroke="midnightblue" points="1444.81,-11.75 1434.74,-15.03 1444.66,-18.75 1444.81,-11.75"/>
</g>
<!-- Node27 -->
<g id="node27" class="node">
<title>Node27</title>
<g id="a_node27"><a xlink:title=" ">
<polygon fill="white" stroke="#bfbfbf" points="2130.5,-0.5 2130.5,-26.5 2215.5,-26.5 2215.5,-0.5 2130.5,-0.5"/>
<text text-anchor="middle" x="2173" y="-9.7" font-family="Source Sans Pro" font-size="16.00">filesystem</text>
</a>
</g>
</g>
<!-- Node26&#45;&gt;Node27 -->
<g id="edge62" class="edge">
<title>Node26&#45;&gt;Node27</title>
<path fill="none" stroke="midnightblue" d="M2206.6,-63.5C2200.39,-54.44 2193.14,-43.88 2186.98,-34.89"/>
<polygon fill="midnightblue" stroke="midnightblue" points="2189.79,-32.8 2181.25,-26.53 2184.02,-36.76 2189.79,-32.8"/>
</g>
<!-- Node28 -->
<g id="node28" class="node">
<title>Node28</title>
<g id="a_node28"><a xlink:title=" ">
<polygon fill="white" stroke="#bfbfbf" points="2234,-0.5 2234,-26.5 2302,-26.5 2302,-0.5 2234,-0.5"/>
<text text-anchor="middle" x="2268" y="-9.7" font-family="Source Sans Pro" font-size="16.00">fstream</text>
</a>
</g>
</g>
<!-- Node26&#45;&gt;Node28 -->
<g id="edge63" class="edge">
<title>Node26&#45;&gt;Node28</title>
<path fill="none" stroke="midnightblue" d="M2235.1,-63.5C2241.19,-54.44 2248.28,-43.88 2254.31,-34.89"/>
<polygon fill="midnightblue" stroke="midnightblue" points="2257.25,-36.78 2259.92,-26.53 2251.44,-32.88 2257.25,-36.78"/>
</g>
<!-- Node29 -->
<g id="node29" class="node">
<title>Node29</title>
<g id="a_node29"><a xlink:title=" ">
<polygon fill="white" stroke="#bfbfbf" points="2320,-0.5 2320,-26.5 2396,-26.5 2396,-0.5 2320,-0.5"/>
<text text-anchor="middle" x="2358" y="-9.7" font-family="Source Sans Pro" font-size="16.00">iostream</text>
</a>
</g>
</g>
<!-- Node26&#45;&gt;Node29 -->
<g id="edge64" class="edge">
<title>Node26&#45;&gt;Node29</title>
<path fill="none" stroke="midnightblue" d="M2262.1,-63.5C2282.33,-53.16 2306.38,-40.88 2325.33,-31.19"/>
<polygon fill="midnightblue" stroke="midnightblue" points="2327.14,-34.2 2334.45,-26.53 2323.96,-27.96 2327.14,-34.2"/>
</g>
<!-- Node30 -->
<g id="node30" class="node">
<title>Node30</title>
<g id="a_node30"><a xlink:title=" ">
<polygon fill="white" stroke="#bfbfbf" points="2060,-0.5 2060,-26.5 2112,-26.5 2112,-0.5 2060,-0.5"/>
<text text-anchor="middle" x="2086" y="-9.7" font-family="Source Sans Pro" font-size="16.00">regex</text>
</a>
</g>
</g>
<!-- Node26&#45;&gt;Node30 -->
<g id="edge65" class="edge">
<title>Node26&#45;&gt;Node30</title>
<path fill="none" stroke="midnightblue" d="M2180.5,-63.5C2160.56,-53.16 2136.87,-40.88 2118.2,-31.19"/>
<polygon fill="midnightblue" stroke="midnightblue" points="2119.69,-28.03 2109.2,-26.53 2116.47,-34.24 2119.69,-28.03"/>
</g>
<!-- Node31&#45;&gt;Node6 -->
<g id="edge76" class="edge">
<title>Node31&#45;&gt;Node6</title>
<path fill="none" stroke="midnightblue" d="M1999.59,-160.22C1888.77,-151.36 1663.21,-132.09 1473,-108 1443.06,-104.21 1409.59,-98.97 1383.23,-94.62"/>
<polygon fill="midnightblue" stroke="midnightblue" points="1383.57,-91.13 1373.13,-92.94 1382.42,-98.03 1383.57,-91.13"/>
</g>
<!-- Node31&#45;&gt;Node8 -->
<g id="edge77" class="edge">
<title>Node31&#45;&gt;Node8</title>
<path fill="none" stroke="midnightblue" d="M2062.43,-153.34C2051.43,-130.95 2024.61,-83.58 1986,-63 1938.48,-37.67 1568.51,-20.94 1444.99,-16.01"/>
<polygon fill="midnightblue" stroke="midnightblue" points="1444.97,-12.51 1434.84,-15.61 1444.69,-19.5 1444.97,-12.51"/>
</g>
</g>
</svg>
