<?xml version="1.0" encoding="UTF-8" standalone="no"?>
<!DOCTYPE svg PUBLIC "-//W3C//DTD SVG 1.1//EN"
 "http://www.w3.org/Graphics/SVG/1.1/DTD/svg11.dtd">
<!-- Generated by graphviz version 2.43.0 (0)
 -->
<!-- Title: Illumination&#45;Engine/src/GraphicsModule/OpenGL/IEWindowUserPointer.hpp Pages: 1 -->
<svg width="341pt" height="251pt"
 viewBox="0.00 0.00 341.00 251.00" xmlns="http://www.w3.org/2000/svg" xmlns:xlink="http://www.w3.org/1999/xlink">
<g id="graph0" class="graph" transform="scale(1 1) rotate(0) translate(4 247)">
<title>Illumination&#45;Engine/src/GraphicsModule/OpenGL/IEWindowUserPointer.hpp</title>
<polygon fill="white" stroke="transparent" points="-4,4 -4,-247 337,-247 337,4 -4,4"/>
<!-- Node1 -->
<g id="node1" class="node">
<title>Node1</title>
<g id="a_node1"><a xlink:title=" ">
<polygon fill="#bfbfbf" stroke="black" points="75,-180.5 75,-242.5 333,-242.5 333,-180.5 75,-180.5"/>
<text text-anchor="start" x="83" y="-225.7" font-family="Source Sans Pro" font-size="16.00">Illumination&#45;Engine</text>
<text text-anchor="start" x="83" y="-207.7" font-family="Source Sans Pro" font-size="16.00">/src/GraphicsModule</text>
<text text-anchor="middle" x="204" y="-189.7" font-family="Source Sans Pro" font-size="16.00">/OpenGL/IEWindowUserPointer.hpp</text>
</a>
</g>
</g>
<!-- Node2 -->
<g id="node2" class="node">
<title>Node2</title>
<g id="a_node2"><a xlink:href="opengl_render_engine_8hpp.html" target="_top" xlink:title=" ">
<polygon fill="white" stroke="black" points="0,-81.5 0,-143.5 254,-143.5 254,-81.5 0,-81.5"/>
<text text-anchor="start" x="8" y="-126.7" font-family="Source Sans Pro" font-size="16.00">Illumination&#45;Engine</text>
<text text-anchor="start" x="8" y="-108.7" font-family="Source Sans Pro" font-size="16.00">/src/GraphicsModule</text>
<text text-anchor="middle" x="127" y="-90.7" font-family="Source Sans Pro" font-size="16.00">/OpenGL/openglRenderEngine.hpp</text>
</a>
</g>
</g>
<!-- Node1&#45;&gt;Node2 -->
<g id="edge1" class="edge">
<title>Node1&#45;&gt;Node2</title>
<path fill="none" stroke="midnightblue" d="M173.81,-172.47C166.22,-162.9 158.17,-152.76 150.93,-143.64"/>
<polygon fill="midnightblue" stroke="midnightblue" points="171.1,-174.68 180.06,-180.34 176.58,-170.33 171.1,-174.68"/>
</g>
<!-- Node3 -->
<g id="node3" class="node">
<title>Node3</title>
<g id="a_node3"><a xlink:href="main_8cpp.html" target="_top" xlink:title=" ">
<polygon fill="white" stroke="black" points="129,-0.5 129,-44.5 279,-44.5 279,-0.5 129,-0.5"/>
<text text-anchor="start" x="137" y="-27.7" font-family="Source Sans Pro" font-size="16.00">Illumination&#45;Engine</text>
<text text-anchor="middle" x="204" y="-9.7" font-family="Source Sans Pro" font-size="16.00">/src/main.cpp</text>
</a>
</g>
</g>
<!-- Node1&#45;&gt;Node3 -->
<g id="edge3" class="edge">
<title>Node1&#45;&gt;Node3</title>
<path fill="none" stroke="midnightblue" d="M245.75,-172.63C252.8,-163.98 259.1,-154.27 263,-144 272.94,-117.82 273.88,-106.8 263,-81 257,-66.77 245.56,-54.31 234.34,-44.66"/>
<polygon fill="midnightblue" stroke="midnightblue" points="243.02,-170.43 239.1,-180.27 248.31,-175.03 243.02,-170.43"/>
</g>
<!-- Node2&#45;&gt;Node3 -->
<g id="edge2" class="edge">
<title>Node2&#45;&gt;Node3</title>
<path fill="none" stroke="midnightblue" d="M160.3,-73.44C168.93,-63.58 177.91,-53.32 185.46,-44.68"/>
<polygon fill="midnightblue" stroke="midnightblue" points="157.45,-71.38 153.5,-81.22 162.72,-75.99 157.45,-71.38"/>
</g>
</g>
</svg>
