<?xml version="1.0" encoding="UTF-8" standalone="no"?>
<!DOCTYPE svg PUBLIC "-//W3C//DTD SVG 1.1//EN"
 "http://www.w3.org/Graphics/SVG/1.1/DTD/svg11.dtd">
<!-- Generated by graphviz version 2.43.0 (0)
 -->
<!-- Title: Illumination&#45;Engine/src/Core/FileSystemModule/IEFile.hpp Pages: 1 -->
<svg width="3582pt" height="683pt"
 viewBox="0.00 0.00 3581.50 683.00" xmlns="http://www.w3.org/2000/svg" xmlns:xlink="http://www.w3.org/1999/xlink">
<g id="graph0" class="graph" transform="scale(1 1) rotate(0) translate(4 679)">
<title>Illumination&#45;Engine/src/Core/FileSystemModule/IEFile.hpp</title>
<polygon fill="white" stroke="transparent" points="-4,4 -4,-679 3577.5,-679 3577.5,4 -4,4"/>
<!-- Node1 -->
<g id="node1" class="node">
<title>Node1</title>
<g id="a_node1"><a xlink:title=" ">
<polygon fill="#bfbfbf" stroke="black" points="346.5,-612.5 346.5,-674.5 553.5,-674.5 553.5,-612.5 346.5,-612.5"/>
<text text-anchor="start" x="354.5" y="-657.7" font-family="Source Sans Pro" font-size="16.00">Illumination&#45;Engine</text>
<text text-anchor="start" x="354.5" y="-639.7" font-family="Source Sans Pro" font-size="16.00">/src/Core/FileSystemModule</text>
<text text-anchor="middle" x="450" y="-621.7" font-family="Source Sans Pro" font-size="16.00">/IEFile.hpp</text>
</a>
</g>
</g>
<!-- Node2 -->
<g id="node2" class="node">
<title>Node2</title>
<g id="a_node2"><a xlink:href="_i_e_directory_8hpp.html" target="_top" xlink:title=" ">
<polygon fill="white" stroke="black" points="214.5,-513.5 214.5,-575.5 421.5,-575.5 421.5,-513.5 214.5,-513.5"/>
<text text-anchor="start" x="222.5" y="-558.7" font-family="Source Sans Pro" font-size="16.00">Illumination&#45;Engine</text>
<text text-anchor="start" x="222.5" y="-540.7" font-family="Source Sans Pro" font-size="16.00">/src/Core/FileSystemModule</text>
<text text-anchor="middle" x="318" y="-522.7" font-family="Source Sans Pro" font-size="16.00">/IEDirectory.hpp</text>
</a>
</g>
</g>
<!-- Node1&#45;&gt;Node2 -->
<g id="edge1" class="edge">
<title>Node1&#45;&gt;Node2</title>
<path fill="none" stroke="midnightblue" d="M400.59,-606.19C386.89,-596.12 372.18,-585.31 359.02,-575.64"/>
<polygon fill="midnightblue" stroke="midnightblue" points="398.83,-609.24 408.96,-612.34 402.97,-603.6 398.83,-609.24"/>
</g>
<!-- Node4 -->
<g id="node4" class="node">
<title>Node4</title>
<g id="a_node4"><a xlink:href="_i_e_file_system_8hpp.html" target="_top" xlink:title=" ">
<polygon fill="white" stroke="black" points="335.5,-414.5 335.5,-476.5 542.5,-476.5 542.5,-414.5 335.5,-414.5"/>
<text text-anchor="start" x="343.5" y="-459.7" font-family="Source Sans Pro" font-size="16.00">Illumination&#45;Engine</text>
<text text-anchor="start" x="343.5" y="-441.7" font-family="Source Sans Pro" font-size="16.00">/src/Core/FileSystemModule</text>
<text text-anchor="middle" x="439" y="-423.7" font-family="Source Sans Pro" font-size="16.00">/IEFileSystem.hpp</text>
</a>
</g>
</g>
<!-- Node1&#45;&gt;Node4 -->
<g id="edge7" class="edge">
<title>Node1&#45;&gt;Node4</title>
<path fill="none" stroke="midnightblue" d="M447.74,-602.29C445.65,-565.02 442.59,-510.41 440.7,-476.73"/>
<polygon fill="midnightblue" stroke="midnightblue" points="444.25,-602.52 448.31,-612.3 451.24,-602.12 444.25,-602.52"/>
</g>
<!-- Node7 -->
<g id="node7" class="node">
<title>Node7</title>
<g id="a_node7"><a xlink:href="_i_e_file_8cpp.html" target="_top" xlink:title=" ">
<polygon fill="white" stroke="black" points="672.5,-513.5 672.5,-575.5 879.5,-575.5 879.5,-513.5 672.5,-513.5"/>
<text text-anchor="start" x="680.5" y="-558.7" font-family="Source Sans Pro" font-size="16.00">Illumination&#45;Engine</text>
<text text-anchor="start" x="680.5" y="-540.7" font-family="Source Sans Pro" font-size="16.00">/src/Core/FileSystemModule</text>
<text text-anchor="middle" x="776" y="-522.7" font-family="Source Sans Pro" font-size="16.00">/IEFile.cpp</text>
</a>
</g>
</g>
<!-- Node1&#45;&gt;Node7 -->
<g id="edge6" class="edge">
<title>Node1&#45;&gt;Node7</title>
<path fill="none" stroke="midnightblue" d="M560.73,-609.55C597.74,-598.54 638.77,-586.33 675,-575.55"/>
<polygon fill="midnightblue" stroke="midnightblue" points="559.5,-606.27 550.92,-612.47 561.5,-612.98 559.5,-606.27"/>
</g>
<!-- Node8 -->
<g id="node8" class="node">
<title>Node8</title>
<g id="a_node8"><a xlink:href="_i_e_shader_8cpp.html" target="_top" xlink:title=" ">
<polygon fill="white" stroke="black" points="0,-0.5 0,-62.5 164,-62.5 164,-0.5 0,-0.5"/>
<text text-anchor="start" x="8" y="-45.7" font-family="Source Sans Pro" font-size="16.00">Illumination&#45;Engine</text>
<text text-anchor="start" x="8" y="-27.7" font-family="Source Sans Pro" font-size="16.00">/src/GraphicsModule</text>
<text text-anchor="middle" x="82" y="-9.7" font-family="Source Sans Pro" font-size="16.00">/Shader/IEShader.cpp</text>
</a>
</g>
</g>
<!-- Node1&#45;&gt;Node8 -->
<g id="edge8" class="edge">
<title>Node1&#45;&gt;Node8</title>
<path fill="none" stroke="midnightblue" d="M336.02,-629.78C227.95,-610.65 82,-563.2 82,-446.5 82,-446.5 82,-446.5 82,-246.5 82,-180.93 82,-104.05 82,-62.62"/>
<polygon fill="midnightblue" stroke="midnightblue" points="335.57,-633.26 346.02,-631.49 336.75,-626.36 335.57,-633.26"/>
</g>
<!-- Node9 -->
<g id="node9" class="node">
<title>Node9</title>
<g id="a_node9"><a xlink:href="_i_e_shader_8hpp.html" target="_top" xlink:title=" ">
<polygon fill="white" stroke="black" points="488,-513.5 488,-575.5 654,-575.5 654,-513.5 488,-513.5"/>
<text text-anchor="start" x="496" y="-558.7" font-family="Source Sans Pro" font-size="16.00">Illumination&#45;Engine</text>
<text text-anchor="start" x="496" y="-540.7" font-family="Source Sans Pro" font-size="16.00">/src/GraphicsModule</text>
<text text-anchor="middle" x="571" y="-522.7" font-family="Source Sans Pro" font-size="16.00">/Shader/IEShader.hpp</text>
</a>
</g>
</g>
<!-- Node1&#45;&gt;Node9 -->
<g id="edge9" class="edge">
<title>Node1&#45;&gt;Node9</title>
<path fill="none" stroke="midnightblue" d="M495.65,-605.9C508.11,-595.92 521.45,-585.22 533.4,-575.64"/>
<polygon fill="midnightblue" stroke="midnightblue" points="493.24,-603.35 487.62,-612.34 497.61,-608.82 493.24,-603.35"/>
</g>
<!-- Node3 -->
<g id="node3" class="node">
<title>Node3</title>
<g id="a_node3"><a xlink:href="_i_e_directory_8cpp.html" target="_top" xlink:title=" ">
<polygon fill="white" stroke="black" points="110.5,-414.5 110.5,-476.5 317.5,-476.5 317.5,-414.5 110.5,-414.5"/>
<text text-anchor="start" x="118.5" y="-459.7" font-family="Source Sans Pro" font-size="16.00">Illumination&#45;Engine</text>
<text text-anchor="start" x="118.5" y="-441.7" font-family="Source Sans Pro" font-size="16.00">/src/Core/FileSystemModule</text>
<text text-anchor="middle" x="214" y="-423.7" font-family="Source Sans Pro" font-size="16.00">/IEDirectory.cpp</text>
</a>
</g>
</g>
<!-- Node2&#45;&gt;Node3 -->
<g id="edge2" class="edge">
<title>Node2&#45;&gt;Node3</title>
<path fill="none" stroke="midnightblue" d="M278.15,-506.33C267.62,-496.51 256.39,-486.04 246.32,-476.64"/>
<polygon fill="midnightblue" stroke="midnightblue" points="275.96,-509.08 285.66,-513.34 280.74,-503.96 275.96,-509.08"/>
</g>
<!-- Node2&#45;&gt;Node4 -->
<g id="edge3" class="edge">
<title>Node2&#45;&gt;Node4</title>
<path fill="none" stroke="midnightblue" d="M363.65,-506.9C376.11,-496.92 389.45,-486.22 401.4,-476.64"/>
<polygon fill="midnightblue" stroke="midnightblue" points="361.24,-504.35 355.62,-513.34 365.61,-509.82 361.24,-504.35"/>
</g>
<!-- Node5 -->
<g id="node5" class="node">
<title>Node5</title>
<g id="a_node5"><a xlink:href="_i_e_file_system_8cpp.html" target="_top" xlink:title=" ">
<polygon fill="white" stroke="black" points="297.5,-315.5 297.5,-377.5 504.5,-377.5 504.5,-315.5 297.5,-315.5"/>
<text text-anchor="start" x="305.5" y="-360.7" font-family="Source Sans Pro" font-size="16.00">Illumination&#45;Engine</text>
<text text-anchor="start" x="305.5" y="-342.7" font-family="Source Sans Pro" font-size="16.00">/src/Core/FileSystemModule</text>
<text text-anchor="middle" x="401" y="-324.7" font-family="Source Sans Pro" font-size="16.00">/IEFileSystem.cpp</text>
</a>
</g>
</g>
<!-- Node4&#45;&gt;Node5 -->
<g id="edge4" class="edge">
<title>Node4&#45;&gt;Node5</title>
<path fill="none" stroke="midnightblue" d="M423.43,-404.74C419.88,-395.69 416.17,-386.22 412.81,-377.64"/>
<polygon fill="midnightblue" stroke="midnightblue" points="420.28,-406.31 427.18,-414.34 426.8,-403.75 420.28,-406.31"/>
</g>
<!-- Node6 -->
<g id="node6" class="node">
<title>Node6</title>
<g id="a_node6"><a xlink:href="main_8cpp.html" target="_top" xlink:title=" ">
<polygon fill="white" stroke="black" points="182,-9.5 182,-53.5 332,-53.5 332,-9.5 182,-9.5"/>
<text text-anchor="start" x="190" y="-36.7" font-family="Source Sans Pro" font-size="16.00">Illumination&#45;Engine</text>
<text text-anchor="middle" x="257" y="-18.7" font-family="Source Sans Pro" font-size="16.00">/src/main.cpp</text>
</a>
</g>
</g>
<!-- Node4&#45;&gt;Node6 -->
<g id="edge5" class="edge">
<title>Node4&#45;&gt;Node6</title>
<path fill="none" stroke="midnightblue" d="M492.8,-407.32C501.41,-398.76 509.09,-388.91 514,-378 525.49,-352.46 524.1,-341.11 514,-315 467.83,-195.65 345.21,-95.69 287.65,-53.72"/>
<polygon fill="midnightblue" stroke="midnightblue" points="490.33,-404.84 485.39,-414.22 495.1,-409.97 490.33,-404.84"/>
</g>
<!-- Node9&#45;&gt;Node8 -->
<g id="edge52" class="edge">
<title>Node9&#45;&gt;Node8</title>
<path fill="none" stroke="midnightblue" d="M570.87,-503.33C568.69,-453.85 558.11,-369.65 514,-315 415.36,-192.79 249.32,-105.52 154.39,-62.61"/>
<polygon fill="midnightblue" stroke="midnightblue" points="567.38,-503.46 571.22,-513.33 574.37,-503.22 567.38,-503.46"/>
</g>
<!-- Node10 -->
<g id="node10" class="node">
<title>Node10</title>
<g id="a_node10"><a xlink:href="_i_e_renderable_8hpp.html" target="_top" xlink:title=" ">
<polygon fill="white" stroke="black" points="683.5,-216.5 683.5,-278.5 910.5,-278.5 910.5,-216.5 683.5,-216.5"/>
<text text-anchor="start" x="691.5" y="-261.7" font-family="Source Sans Pro" font-size="16.00">Illumination&#45;Engine</text>
<text text-anchor="start" x="691.5" y="-243.7" font-family="Source Sans Pro" font-size="16.00">/src/GraphicsModule</text>
<text text-anchor="middle" x="797" y="-225.7" font-family="Source Sans Pro" font-size="16.00">/Renderable/IERenderable.hpp</text>
</a>
</g>
</g>
<!-- Node9&#45;&gt;Node10 -->
<g id="edge10" class="edge">
<title>Node9&#45;&gt;Node10</title>
<path fill="none" stroke="midnightblue" d="M600.25,-505.32C645.68,-446.02 732.27,-332.99 773.74,-278.86"/>
<polygon fill="midnightblue" stroke="midnightblue" points="597.43,-503.25 594.12,-513.32 602.98,-507.51 597.43,-503.25"/>
</g>
<!-- Node27 -->
<g id="node27" class="node">
<title>Node27</title>
<g id="a_node27"><a xlink:href="_i_e_pipeline_8hpp.html" target="_top" xlink:title=" ">
<polygon fill="white" stroke="black" points="887.5,-414.5 887.5,-476.5 1060.5,-476.5 1060.5,-414.5 887.5,-414.5"/>
<text text-anchor="start" x="895.5" y="-459.7" font-family="Source Sans Pro" font-size="16.00">Illumination&#45;Engine</text>
<text text-anchor="start" x="895.5" y="-441.7" font-family="Source Sans Pro" font-size="16.00">/src/GraphicsModule</text>
<text text-anchor="middle" x="974" y="-423.7" font-family="Source Sans Pro" font-size="16.00">/Shader/IEPipeline.hpp</text>
</a>
</g>
</g>
<!-- Node9&#45;&gt;Node27 -->
<g id="edge31" class="edge">
<title>Node9&#45;&gt;Node27</title>
<path fill="none" stroke="midnightblue" d="M663.69,-513.08C663.79,-513.06 663.9,-513.03 664,-513 738.65,-492.81 824.74,-474.75 887.22,-462.57"/>
<polygon fill="midnightblue" stroke="midnightblue" points="662.71,-509.72 654.02,-515.79 664.6,-516.47 662.71,-509.72"/>
</g>
<!-- Node11 -->
<g id="node11" class="node">
<title>Node11</title>
<g id="a_node11"><a xlink:href="_i_e_render_engine_8cpp.html" target="_top" xlink:title=" ">
<polygon fill="white" stroke="black" points="783.5,-0.5 783.5,-62.5 942.5,-62.5 942.5,-0.5 783.5,-0.5"/>
<text text-anchor="start" x="791.5" y="-45.7" font-family="Source Sans Pro" font-size="16.00">Illumination&#45;Engine</text>
<text text-anchor="start" x="791.5" y="-27.7" font-family="Source Sans Pro" font-size="16.00">/src/GraphicsModule</text>
<text text-anchor="middle" x="863" y="-9.7" font-family="Source Sans Pro" font-size="16.00">/IERenderEngine.cpp</text>
</a>
</g>
</g>
<!-- Node10&#45;&gt;Node11 -->
<g id="edge11" class="edge">
<title>Node10&#45;&gt;Node11</title>
<path fill="none" stroke="midnightblue" d="M809.27,-206.72C822.15,-164.96 842.11,-100.24 853.73,-62.55"/>
<polygon fill="midnightblue" stroke="midnightblue" points="805.92,-205.71 806.32,-216.29 812.61,-207.77 805.92,-205.71"/>
</g>
<!-- Node12 -->
<g id="node12" class="node">
<title>Node12</title>
<g id="a_node12"><a xlink:href="_i_e_render_engine_8hpp.html" target="_top" xlink:title=" ">
<polygon fill="white" stroke="black" points="1621.5,-108.5 1621.5,-170.5 1782.5,-170.5 1782.5,-108.5 1621.5,-108.5"/>
<text text-anchor="start" x="1629.5" y="-153.7" font-family="Source Sans Pro" font-size="16.00">Illumination&#45;Engine</text>
<text text-anchor="start" x="1629.5" y="-135.7" font-family="Source Sans Pro" font-size="16.00">/src/GraphicsModule</text>
<text text-anchor="middle" x="1702" y="-117.7" font-family="Source Sans Pro" font-size="16.00">/IERenderEngine.hpp</text>
</a>
</g>
</g>
<!-- Node10&#45;&gt;Node12 -->
<g id="edge12" class="edge">
<title>Node10&#45;&gt;Node12</title>
<path fill="none" stroke="midnightblue" d="M920.82,-244.36C1075.66,-239.76 1348.22,-225.32 1577,-180 1591.51,-177.13 1606.71,-173.16 1621.32,-168.85"/>
<polygon fill="midnightblue" stroke="midnightblue" points="920.69,-240.86 910.8,-244.65 920.89,-247.86 920.69,-240.86"/>
</g>
<!-- Node24 -->
<g id="node24" class="node">
<title>Node24</title>
<g id="a_node24"><a xlink:href="_i_e_renderable_8cpp.html" target="_top" xlink:title=" ">
<polygon fill="white" stroke="black" points="540.5,-0.5 540.5,-62.5 765.5,-62.5 765.5,-0.5 540.5,-0.5"/>
<text text-anchor="start" x="548.5" y="-45.7" font-family="Source Sans Pro" font-size="16.00">Illumination&#45;Engine</text>
<text text-anchor="start" x="548.5" y="-27.7" font-family="Source Sans Pro" font-size="16.00">/src/GraphicsModule</text>
<text text-anchor="middle" x="653" y="-9.7" font-family="Source Sans Pro" font-size="16.00">/Renderable/IERenderable.cpp</text>
</a>
</g>
</g>
<!-- Node10&#45;&gt;Node24 -->
<g id="edge30" class="edge">
<title>Node10&#45;&gt;Node24</title>
<path fill="none" stroke="midnightblue" d="M770.94,-207.77C742.87,-166.05 698.8,-100.56 673.22,-62.55"/>
<polygon fill="midnightblue" stroke="midnightblue" points="768.19,-209.95 776.67,-216.29 773.99,-206.04 768.19,-209.95"/>
</g>
<!-- Node12&#45;&gt;Node6 -->
<g id="edge29" class="edge">
<title>Node12&#45;&gt;Node6</title>
<path fill="none" stroke="midnightblue" d="M1611.77,-106.76C1600.19,-103.65 1588.4,-100.93 1577,-99 1306.07,-53.16 610.91,-114.55 341,-63 329.72,-60.85 317.95,-57.39 306.9,-53.56"/>
<polygon fill="midnightblue" stroke="midnightblue" points="1610.87,-110.14 1621.44,-109.47 1612.75,-103.4 1610.87,-110.14"/>
</g>
<!-- Node12&#45;&gt;Node8 -->
<g id="edge28" class="edge">
<title>Node12&#45;&gt;Node8</title>
<path fill="none" stroke="midnightblue" d="M1611.78,-106.72C1600.19,-103.61 1588.4,-100.91 1577,-99 1269.18,-47.47 480.36,-117.19 173,-63 170.05,-62.48 167.06,-61.88 164.05,-61.22"/>
<polygon fill="midnightblue" stroke="midnightblue" points="1610.88,-110.11 1621.45,-109.42 1612.76,-103.36 1610.88,-110.11"/>
</g>
<!-- Node12&#45;&gt;Node11 -->
<g id="edge18" class="edge">
<title>Node12&#45;&gt;Node11</title>
<path fill="none" stroke="midnightblue" d="M1611.72,-107.07C1600.14,-103.9 1588.37,-101.09 1577,-99 1303.35,-48.69 1225.03,-116.6 952,-63 948.95,-62.4 945.87,-61.73 942.77,-60.98"/>
<polygon fill="midnightblue" stroke="midnightblue" points="1610.81,-110.45 1621.38,-109.81 1612.71,-103.72 1610.81,-110.45"/>
</g>
<!-- Node13 -->
<g id="node13" class="node">
<title>Node13</title>
<g id="a_node13"><a xlink:href="_i_e_buffer_8cpp.html" target="_top" xlink:title=" ">
<polygon fill="white" stroke="black" points="1380.5,-0.5 1380.5,-62.5 1537.5,-62.5 1537.5,-0.5 1380.5,-0.5"/>
<text text-anchor="start" x="1388.5" y="-45.7" font-family="Source Sans Pro" font-size="16.00">Illumination&#45;Engine</text>
<text text-anchor="start" x="1388.5" y="-27.7" font-family="Source Sans Pro" font-size="16.00">/src/GraphicsModule</text>
<text text-anchor="middle" x="1459" y="-9.7" font-family="Source Sans Pro" font-size="16.00">/Buffer/IEBuffer.cpp</text>
</a>
</g>
</g>
<!-- Node12&#45;&gt;Node13 -->
<g id="edge13" class="edge">
<title>Node12&#45;&gt;Node13</title>
<path fill="none" stroke="midnightblue" d="M1623.62,-104.31C1592.89,-90.91 1557.93,-75.66 1528.16,-62.67"/>
<polygon fill="midnightblue" stroke="midnightblue" points="1622.45,-107.62 1633.02,-108.41 1625.25,-101.2 1622.45,-107.62"/>
</g>
<!-- Node14 -->
<g id="node14" class="node">
<title>Node14</title>
<g id="a_node14"><a xlink:href="_i_e_command_buffer_8cpp.html" target="_top" xlink:title=" ">
<polygon fill="white" stroke="black" points="3280.5,-0.5 3280.5,-62.5 3573.5,-62.5 3573.5,-0.5 3280.5,-0.5"/>
<text text-anchor="start" x="3288.5" y="-45.7" font-family="Source Sans Pro" font-size="16.00">Illumination&#45;Engine</text>
<text text-anchor="start" x="3288.5" y="-27.7" font-family="Source Sans Pro" font-size="16.00">/src/GraphicsModule</text>
<text text-anchor="middle" x="3427" y="-9.7" font-family="Source Sans Pro" font-size="16.00">/CommandBuffer/IECommandBuffer.cpp</text>
</a>
</g>
</g>
<!-- Node12&#45;&gt;Node14 -->
<g id="edge14" class="edge">
<title>Node12&#45;&gt;Node14</title>
<path fill="none" stroke="midnightblue" d="M1792.78,-124.59C1854.68,-115.7 1938.6,-104.78 2013,-99 2570.66,-55.71 2715.09,-124.87 3271,-63 3274.02,-62.66 3277.06,-62.3 3280.13,-61.91"/>
<polygon fill="midnightblue" stroke="midnightblue" points="1792.05,-121.16 1782.65,-126.06 1793.05,-128.09 1792.05,-121.16"/>
</g>
<!-- Node15 -->
<g id="node15" class="node">
<title>Node15</title>
<g id="a_node15"><a xlink:href="_i_e_command_pool_8cpp.html" target="_top" xlink:title=" ">
<polygon fill="white" stroke="black" points="2978,-0.5 2978,-62.5 3262,-62.5 3262,-0.5 2978,-0.5"/>
<text text-anchor="start" x="2986" y="-45.7" font-family="Source Sans Pro" font-size="16.00">Illumination&#45;Engine</text>
<text text-anchor="start" x="2986" y="-27.7" font-family="Source Sans Pro" font-size="16.00">/src/GraphicsModule</text>
<text text-anchor="middle" x="3120" y="-9.7" font-family="Source Sans Pro" font-size="16.00">/CommandBuffer/IECommandPool.cpp</text>
</a>
</g>
</g>
<!-- Node12&#45;&gt;Node15 -->
<g id="edge15" class="edge">
<title>Node12&#45;&gt;Node15</title>
<path fill="none" stroke="midnightblue" d="M1792.8,-124.81C1854.7,-116.01 1938.62,-105.11 2013,-99 2436.76,-64.18 2546.79,-113.26 2969,-63 2971.92,-62.65 2974.87,-62.28 2977.84,-61.88"/>
<polygon fill="midnightblue" stroke="midnightblue" points="1792.07,-121.38 1782.67,-126.26 1793.06,-128.31 1792.07,-121.38"/>
</g>
<!-- Node16 -->
<g id="node16" class="node">
<title>Node16</title>
<g id="a_node16"><a xlink:href="_i_e_a_p_i_8cpp.html" target="_top" xlink:title=" ">
<polygon fill="white" stroke="black" points="1555.5,-0.5 1555.5,-62.5 1712.5,-62.5 1712.5,-0.5 1555.5,-0.5"/>
<text text-anchor="start" x="1563.5" y="-45.7" font-family="Source Sans Pro" font-size="16.00">Illumination&#45;Engine</text>
<text text-anchor="start" x="1563.5" y="-27.7" font-family="Source Sans Pro" font-size="16.00">/src/GraphicsModule</text>
<text text-anchor="middle" x="1634" y="-9.7" font-family="Source Sans Pro" font-size="16.00">/IEAPI.cpp</text>
</a>
</g>
</g>
<!-- Node12&#45;&gt;Node16 -->
<g id="edge16" class="edge">
<title>Node12&#45;&gt;Node16</title>
<path fill="none" stroke="midnightblue" d="M1677.14,-99.74C1669.29,-87.52 1660.75,-74.2 1653.35,-62.67"/>
<polygon fill="midnightblue" stroke="midnightblue" points="1674.35,-101.88 1682.7,-108.41 1680.24,-98.1 1674.35,-101.88"/>
</g>
<!-- Node17 -->
<g id="node17" class="node">
<title>Node17</title>
<g id="a_node17"><a xlink:href="_i_e_camera_8cpp.html" target="_top" xlink:title=" ">
<polygon fill="white" stroke="black" points="1730.5,-0.5 1730.5,-62.5 1887.5,-62.5 1887.5,-0.5 1730.5,-0.5"/>
<text text-anchor="start" x="1738.5" y="-45.7" font-family="Source Sans Pro" font-size="16.00">Illumination&#45;Engine</text>
<text text-anchor="start" x="1738.5" y="-27.7" font-family="Source Sans Pro" font-size="16.00">/src/GraphicsModule</text>
<text text-anchor="middle" x="1809" y="-9.7" font-family="Source Sans Pro" font-size="16.00">/IECamera.cpp</text>
</a>
</g>
</g>
<!-- Node12&#45;&gt;Node17 -->
<g id="edge17" class="edge">
<title>Node12&#45;&gt;Node17</title>
<path fill="none" stroke="midnightblue" d="M1739.69,-101.16C1752.42,-88.55 1766.45,-74.65 1778.55,-62.67"/>
<polygon fill="midnightblue" stroke="midnightblue" points="1737.02,-98.88 1732.38,-108.41 1741.94,-103.86 1737.02,-98.88"/>
</g>
<!-- Node18 -->
<g id="node18" class="node">
<title>Node18</title>
<g id="a_node18"><a xlink:href="_i_e_image_8cpp.html" target="_top" xlink:title=" ">
<polygon fill="white" stroke="black" points="1905.5,-0.5 1905.5,-62.5 2062.5,-62.5 2062.5,-0.5 1905.5,-0.5"/>
<text text-anchor="start" x="1913.5" y="-45.7" font-family="Source Sans Pro" font-size="16.00">Illumination&#45;Engine</text>
<text text-anchor="start" x="1913.5" y="-27.7" font-family="Source Sans Pro" font-size="16.00">/src/GraphicsModule</text>
<text text-anchor="middle" x="1984" y="-9.7" font-family="Source Sans Pro" font-size="16.00">/Image/IEImage.cpp</text>
</a>
</g>
</g>
<!-- Node12&#45;&gt;Node18 -->
<g id="edge19" class="edge">
<title>Node12&#45;&gt;Node18</title>
<path fill="none" stroke="midnightblue" d="M1791.7,-104.78C1828.16,-91.08 1869.93,-75.38 1905.21,-62.12"/>
<polygon fill="midnightblue" stroke="midnightblue" points="1790.18,-101.61 1782.06,-108.41 1792.65,-108.17 1790.18,-101.61"/>
</g>
<!-- Node19 -->
<g id="node19" class="node">
<title>Node19</title>
<g id="a_node19"><a xlink:href="_i_e_texture_8cpp.html" target="_top" xlink:title=" ">
<polygon fill="white" stroke="black" points="2080.5,-0.5 2080.5,-62.5 2241.5,-62.5 2241.5,-0.5 2080.5,-0.5"/>
<text text-anchor="start" x="2088.5" y="-45.7" font-family="Source Sans Pro" font-size="16.00">Illumination&#45;Engine</text>
<text text-anchor="start" x="2088.5" y="-27.7" font-family="Source Sans Pro" font-size="16.00">/src/GraphicsModule</text>
<text text-anchor="middle" x="2161" y="-9.7" font-family="Source Sans Pro" font-size="16.00">/Image/IETexture.cpp</text>
</a>
</g>
</g>
<!-- Node12&#45;&gt;Node19 -->
<g id="edge20" class="edge">
<title>Node12&#45;&gt;Node19</title>
<path fill="none" stroke="midnightblue" d="M1792.76,-123.35C1868.13,-109.97 1977.86,-88.62 2072,-63 2074.68,-62.27 2077.4,-61.5 2080.13,-60.71"/>
<polygon fill="midnightblue" stroke="midnightblue" points="1792.06,-119.92 1782.82,-125.11 1793.27,-126.82 1792.06,-119.92"/>
</g>
<!-- Node20 -->
<g id="node20" class="node">
<title>Node20</title>
<g id="a_node20"><a xlink:href="_i_e_framebuffer_8cpp.html" target="_top" xlink:title=" ">
<polygon fill="white" stroke="black" points="2730,-0.5 2730,-62.5 2960,-62.5 2960,-0.5 2730,-0.5"/>
<text text-anchor="start" x="2738" y="-45.7" font-family="Source Sans Pro" font-size="16.00">Illumination&#45;Engine</text>
<text text-anchor="start" x="2738" y="-27.7" font-family="Source Sans Pro" font-size="16.00">/src/GraphicsModule</text>
<text text-anchor="middle" x="2845" y="-9.7" font-family="Source Sans Pro" font-size="16.00">/RenderPass/IEFramebuffer.cpp</text>
</a>
</g>
</g>
<!-- Node12&#45;&gt;Node20 -->
<g id="edge21" class="edge">
<title>Node12&#45;&gt;Node20</title>
<path fill="none" stroke="midnightblue" d="M1792.82,-125.13C1854.74,-116.46 1938.66,-105.6 2013,-99 2326.84,-71.13 2409.28,-108.83 2721,-63 2723.96,-62.56 2726.95,-62.09 2729.97,-61.58"/>
<polygon fill="midnightblue" stroke="midnightblue" points="1792.11,-121.69 1782.69,-126.55 1793.08,-128.63 1792.11,-121.69"/>
</g>
<!-- Node21 -->
<g id="node21" class="node">
<title>Node21</title>
<g id="a_node21"><a xlink:href="_i_e_render_pass_8cpp.html" target="_top" xlink:title=" ">
<polygon fill="white" stroke="black" points="2484.5,-0.5 2484.5,-62.5 2711.5,-62.5 2711.5,-0.5 2484.5,-0.5"/>
<text text-anchor="start" x="2492.5" y="-45.7" font-family="Source Sans Pro" font-size="16.00">Illumination&#45;Engine</text>
<text text-anchor="start" x="2492.5" y="-27.7" font-family="Source Sans Pro" font-size="16.00">/src/GraphicsModule</text>
<text text-anchor="middle" x="2598" y="-9.7" font-family="Source Sans Pro" font-size="16.00">/RenderPass/IERenderPass.cpp</text>
</a>
</g>
</g>
<!-- Node12&#45;&gt;Node21 -->
<g id="edge22" class="edge">
<title>Node12&#45;&gt;Node21</title>
<path fill="none" stroke="midnightblue" d="M1792.65,-124.02C1846.89,-115.75 1917.26,-105.73 1980,-99 2199.77,-75.44 2257.75,-97.93 2476,-63 2478.8,-62.55 2481.64,-62.07 2484.49,-61.56"/>
<polygon fill="midnightblue" stroke="midnightblue" points="1792.07,-120.56 1782.71,-125.54 1793.13,-127.48 1792.07,-120.56"/>
</g>
<!-- Node22 -->
<g id="node22" class="node">
<title>Node22</title>
<g id="a_node22"><a xlink:href="_i_e_material_8cpp.html" target="_top" xlink:title=" ">
<polygon fill="white" stroke="black" points="960.5,-0.5 960.5,-62.5 1161.5,-62.5 1161.5,-0.5 960.5,-0.5"/>
<text text-anchor="start" x="968.5" y="-45.7" font-family="Source Sans Pro" font-size="16.00">Illumination&#45;Engine</text>
<text text-anchor="start" x="968.5" y="-27.7" font-family="Source Sans Pro" font-size="16.00">/src/GraphicsModule</text>
<text text-anchor="middle" x="1061" y="-9.7" font-family="Source Sans Pro" font-size="16.00">/Renderable/IEMaterial.cpp</text>
</a>
</g>
</g>
<!-- Node12&#45;&gt;Node22 -->
<g id="edge23" class="edge">
<title>Node12&#45;&gt;Node22</title>
<path fill="none" stroke="midnightblue" d="M1611.65,-107.41C1600.09,-104.19 1588.33,-101.26 1577,-99 1399.36,-63.5 1349.24,-95.34 1171,-63 1167.88,-62.43 1164.72,-61.82 1161.54,-61.17"/>
<polygon fill="midnightblue" stroke="midnightblue" points="1610.73,-110.79 1621.31,-110.19 1612.66,-104.06 1610.73,-110.79"/>
</g>
<!-- Node23 -->
<g id="node23" class="node">
<title>Node23</title>
<g id="a_node23"><a xlink:href="_i_e_mesh_8cpp.html" target="_top" xlink:title=" ">
<polygon fill="white" stroke="black" points="1179.5,-0.5 1179.5,-62.5 1362.5,-62.5 1362.5,-0.5 1179.5,-0.5"/>
<text text-anchor="start" x="1187.5" y="-45.7" font-family="Source Sans Pro" font-size="16.00">Illumination&#45;Engine</text>
<text text-anchor="start" x="1187.5" y="-27.7" font-family="Source Sans Pro" font-size="16.00">/src/GraphicsModule</text>
<text text-anchor="middle" x="1271" y="-9.7" font-family="Source Sans Pro" font-size="16.00">/Renderable/IEMesh.cpp</text>
</a>
</g>
</g>
<!-- Node12&#45;&gt;Node23 -->
<g id="edge24" class="edge">
<title>Node12&#45;&gt;Node23</title>
<path fill="none" stroke="midnightblue" d="M1611.71,-108.42C1600.1,-105.01 1588.31,-101.77 1577,-99 1487.15,-77.02 1461.99,-84.41 1372,-63 1368.88,-62.26 1365.72,-61.48 1362.53,-60.66"/>
<polygon fill="midnightblue" stroke="midnightblue" points="1610.83,-111.81 1621.42,-111.32 1612.84,-105.1 1610.83,-111.81"/>
</g>
<!-- Node12&#45;&gt;Node24 -->
<g id="edge25" class="edge">
<title>Node12&#45;&gt;Node24</title>
<path fill="none" stroke="midnightblue" d="M1611.74,-106.94C1600.16,-103.79 1588.38,-101.02 1577,-99 1225.68,-36.71 1128.06,-114.53 775,-63 771.87,-62.54 768.7,-62.04 765.51,-61.5"/>
<polygon fill="midnightblue" stroke="midnightblue" points="1610.83,-110.32 1621.41,-109.66 1612.73,-103.58 1610.83,-110.32"/>
</g>
<!-- Node25 -->
<g id="node25" class="node">
<title>Node25</title>
<g id="a_node25"><a xlink:href="_i_e_descriptor_set_8cpp.html" target="_top" xlink:title=" ">
<polygon fill="white" stroke="black" points="2259.5,-0.5 2259.5,-62.5 2466.5,-62.5 2466.5,-0.5 2259.5,-0.5"/>
<text text-anchor="start" x="2267.5" y="-45.7" font-family="Source Sans Pro" font-size="16.00">Illumination&#45;Engine</text>
<text text-anchor="start" x="2267.5" y="-27.7" font-family="Source Sans Pro" font-size="16.00">/src/GraphicsModule</text>
<text text-anchor="middle" x="2363" y="-9.7" font-family="Source Sans Pro" font-size="16.00">/Shader/IEDescriptorSet.cpp</text>
</a>
</g>
</g>
<!-- Node12&#45;&gt;Node25 -->
<g id="edge26" class="edge">
<title>Node12&#45;&gt;Node25</title>
<path fill="none" stroke="midnightblue" d="M1792.52,-125.43C1846.86,-117.63 1917.37,-107.61 1980,-99 2100.37,-82.45 2131.89,-87.02 2251,-63 2253.77,-62.44 2256.56,-61.85 2259.38,-61.24"/>
<polygon fill="midnightblue" stroke="midnightblue" points="1791.97,-121.97 1782.57,-126.86 1792.96,-128.9 1791.97,-121.97"/>
</g>
<!-- Node26 -->
<g id="node26" class="node">
<title>Node26</title>
<g id="a_node26"><a xlink:href="_i_e_pipeline_8cpp.html" target="_top" xlink:title=" ">
<polygon fill="white" stroke="black" points="350,-0.5 350,-62.5 522,-62.5 522,-0.5 350,-0.5"/>
<text text-anchor="start" x="358" y="-45.7" font-family="Source Sans Pro" font-size="16.00">Illumination&#45;Engine</text>
<text text-anchor="start" x="358" y="-27.7" font-family="Source Sans Pro" font-size="16.00">/src/GraphicsModule</text>
<text text-anchor="middle" x="436" y="-9.7" font-family="Source Sans Pro" font-size="16.00">/Shader/IEPipeline.cpp</text>
</a>
</g>
</g>
<!-- Node12&#45;&gt;Node26 -->
<g id="edge27" class="edge">
<title>Node12&#45;&gt;Node26</title>
<path fill="none" stroke="midnightblue" d="M1611.76,-106.82C1600.18,-103.69 1588.39,-100.96 1577,-99 1119,-20.26 989.94,-142.09 532,-63 528.73,-62.43 525.41,-61.78 522.07,-61.07"/>
<polygon fill="midnightblue" stroke="midnightblue" points="1610.86,-110.2 1621.43,-109.53 1612.75,-103.46 1610.86,-110.2"/>
</g>
<!-- Node27&#45;&gt;Node10 -->
<g id="edge50" class="edge">
<title>Node27&#45;&gt;Node10</title>
<path fill="none" stroke="midnightblue" d="M910,-408.77C896.88,-399.75 883.79,-389.36 873,-378 844.91,-348.42 822.76,-306.61 809.79,-278.58"/>
<polygon fill="midnightblue" stroke="midnightblue" points="908.35,-411.87 918.61,-414.5 912.22,-406.05 908.35,-411.87"/>
</g>
<!-- Node27&#45;&gt;Node14 -->
<g id="edge32" class="edge">
<title>Node27&#45;&gt;Node14</title>
<path fill="none" stroke="midnightblue" d="M1071.17,-442.33C1333.93,-436.01 2054.45,-415.68 2289,-378 2617.1,-325.3 2692.93,-279.47 3010,-180 3128.51,-142.82 3263.74,-93.74 3347.24,-62.64"/>
<polygon fill="midnightblue" stroke="midnightblue" points="1070.8,-438.83 1060.89,-442.57 1070.97,-445.83 1070.8,-438.83"/>
</g>
<!-- Node27&#45;&gt;Node26 -->
<g id="edge51" class="edge">
<title>Node27&#45;&gt;Node26</title>
<path fill="none" stroke="midnightblue" d="M891.79,-410.33C870.06,-400.56 846.86,-389.43 826,-378 755.63,-339.43 736.86,-330.12 675,-279 589.99,-208.76 503.03,-111.31 461.34,-62.66"/>
<polygon fill="midnightblue" stroke="midnightblue" points="890.44,-413.56 901,-414.44 893.29,-407.17 890.44,-413.56"/>
</g>
<!-- Node28 -->
<g id="node28" class="node">
<title>Node28</title>
<g id="a_node28"><a xlink:href="_i_e_command_buffer_8hpp.html" target="_top" xlink:title=" ">
<polygon fill="white" stroke="black" points="1984.5,-315.5 1984.5,-377.5 2279.5,-377.5 2279.5,-315.5 1984.5,-315.5"/>
<text text-anchor="start" x="1992.5" y="-360.7" font-family="Source Sans Pro" font-size="16.00">Illumination&#45;Engine</text>
<text text-anchor="start" x="1992.5" y="-342.7" font-family="Source Sans Pro" font-size="16.00">/src/GraphicsModule</text>
<text text-anchor="middle" x="2132" y="-324.7" font-family="Source Sans Pro" font-size="16.00">/CommandBuffer/IECommandBuffer.hpp</text>
</a>
</g>
</g>
<!-- Node27&#45;&gt;Node28 -->
<g id="edge33" class="edge">
<title>Node27&#45;&gt;Node28</title>
<path fill="none" stroke="midnightblue" d="M1070.59,-436.41C1273.15,-419.44 1743.48,-380.04 1984.23,-359.88"/>
<polygon fill="midnightblue" stroke="midnightblue" points="1070.24,-432.93 1060.56,-437.25 1070.82,-439.9 1070.24,-432.93"/>
</g>
<!-- Node32 -->
<g id="node32" class="node">
<title>Node32</title>
<g id="a_node32"><a xlink:href="_i_e_dependency_8cpp.html" target="_top" xlink:title=" ">
<polygon fill="white" stroke="black" points="1302,-108.5 1302,-170.5 1568,-170.5 1568,-108.5 1302,-108.5"/>
<text text-anchor="start" x="1310" y="-153.7" font-family="Source Sans Pro" font-size="16.00">Illumination&#45;Engine</text>
<text text-anchor="start" x="1310" y="-135.7" font-family="Source Sans Pro" font-size="16.00">/src/GraphicsModule</text>
<text text-anchor="middle" x="1435" y="-117.7" font-family="Source Sans Pro" font-size="16.00">/CommandBuffer/IEDependency.cpp</text>
</a>
</g>
</g>
<!-- Node27&#45;&gt;Node32 -->
<g id="edge44" class="edge">
<title>Node27&#45;&gt;Node32</title>
<path fill="none" stroke="midnightblue" d="M1029.04,-408.71C1044.27,-398.78 1060.79,-387.99 1076,-378 1189.06,-303.75 1321.71,-215.77 1389.73,-170.59"/>
<polygon fill="midnightblue" stroke="midnightblue" points="1026.72,-406.05 1020.25,-414.44 1030.54,-411.91 1026.72,-406.05"/>
</g>
<!-- Node33 -->
<g id="node33" class="node">
<title>Node33</title>
<g id="a_node33"><a xlink:href="_i_e_mesh_8hpp.html" target="_top" xlink:title=" ">
<polygon fill="white" stroke="black" points="881.5,-315.5 881.5,-377.5 1066.5,-377.5 1066.5,-315.5 881.5,-315.5"/>
<text text-anchor="start" x="889.5" y="-360.7" font-family="Source Sans Pro" font-size="16.00">Illumination&#45;Engine</text>
<text text-anchor="start" x="889.5" y="-342.7" font-family="Source Sans Pro" font-size="16.00">/src/GraphicsModule</text>
<text text-anchor="middle" x="974" y="-324.7" font-family="Source Sans Pro" font-size="16.00">/Renderable/IEMesh.hpp</text>
</a>
</g>
</g>
<!-- Node27&#45;&gt;Node33 -->
<g id="edge45" class="edge">
<title>Node27&#45;&gt;Node33</title>
<path fill="none" stroke="midnightblue" d="M974,-404.17C974,-395.29 974,-386.03 974,-377.64"/>
<polygon fill="midnightblue" stroke="midnightblue" points="970.5,-404.34 974,-414.34 977.5,-404.34 970.5,-404.34"/>
</g>
<!-- Node28&#45;&gt;Node14 -->
<g id="edge34" class="edge">
<title>Node28&#45;&gt;Node14</title>
<path fill="none" stroke="midnightblue" d="M2274.34,-313.17C2321.1,-302.43 2373.3,-290.33 2421,-279 2741.38,-202.89 3118.17,-109.54 3306.73,-62.55"/>
<polygon fill="midnightblue" stroke="midnightblue" points="2273.42,-309.79 2264.45,-315.44 2274.98,-316.61 2273.42,-309.79"/>
</g>
<!-- Node29 -->
<g id="node29" class="node">
<title>Node29</title>
<g id="a_node29"><a xlink:href="_i_e_command_pool_8hpp.html" target="_top" xlink:title=" ">
<polygon fill="white" stroke="black" points="2126.5,-216.5 2126.5,-278.5 2411.5,-278.5 2411.5,-216.5 2126.5,-216.5"/>
<text text-anchor="start" x="2134.5" y="-261.7" font-family="Source Sans Pro" font-size="16.00">Illumination&#45;Engine</text>
<text text-anchor="start" x="2134.5" y="-243.7" font-family="Source Sans Pro" font-size="16.00">/src/GraphicsModule</text>
<text text-anchor="middle" x="2269" y="-225.7" font-family="Source Sans Pro" font-size="16.00">/CommandBuffer/IECommandPool.hpp</text>
</a>
</g>
</g>
<!-- Node28&#45;&gt;Node29 -->
<g id="edge35" class="edge">
<title>Node28&#45;&gt;Node29</title>
<path fill="none" stroke="midnightblue" d="M2182.88,-309.47C2197.21,-299.33 2212.64,-288.4 2226.43,-278.64"/>
<polygon fill="midnightblue" stroke="midnightblue" points="2180.74,-306.71 2174.6,-315.34 2184.78,-312.42 2180.74,-306.71"/>
</g>
<!-- Node30 -->
<g id="node30" class="node">
<title>Node30</title>
<g id="a_node30"><a xlink:href="_i_e_render_pass_8hpp.html" target="_top" xlink:title=" ">
<polygon fill="white" stroke="black" points="1880,-216.5 1880,-278.5 2108,-278.5 2108,-216.5 1880,-216.5"/>
<text text-anchor="start" x="1888" y="-261.7" font-family="Source Sans Pro" font-size="16.00">Illumination&#45;Engine</text>
<text text-anchor="start" x="1888" y="-243.7" font-family="Source Sans Pro" font-size="16.00">/src/GraphicsModule</text>
<text text-anchor="middle" x="1994" y="-225.7" font-family="Source Sans Pro" font-size="16.00">/RenderPass/IERenderPass.hpp</text>
</a>
</g>
</g>
<!-- Node28&#45;&gt;Node30 -->
<g id="edge38" class="edge">
<title>Node28&#45;&gt;Node30</title>
<path fill="none" stroke="midnightblue" d="M2080.74,-309.47C2066.31,-299.33 2050.77,-288.4 2036.88,-278.64"/>
<polygon fill="midnightblue" stroke="midnightblue" points="2078.9,-312.45 2089.09,-315.34 2082.92,-306.73 2078.9,-312.45"/>
</g>
<!-- Node29&#45;&gt;Node12 -->
<g id="edge37" class="edge">
<title>Node29&#45;&gt;Node12</title>
<path fill="none" stroke="midnightblue" d="M2116.29,-215.88C1993.96,-192.55 1864.29,-169.23 1782.8,-154.75"/>
<polygon fill="midnightblue" stroke="midnightblue" points="2115.73,-219.33 2126.21,-217.77 2117.05,-212.46 2115.73,-219.33"/>
</g>
<!-- Node29&#45;&gt;Node15 -->
<g id="edge36" class="edge">
<title>Node29&#45;&gt;Node15</title>
<path fill="none" stroke="midnightblue" d="M2376.91,-213.51C2482.23,-181.92 2647.29,-134.02 2792,-99 2794.44,-98.41 2890.25,-78.99 2977.68,-61.29"/>
<polygon fill="midnightblue" stroke="midnightblue" points="2375.8,-210.19 2367.23,-216.42 2377.81,-216.9 2375.8,-210.19"/>
</g>
<!-- Node30&#45;&gt;Node12 -->
<g id="edge41" class="edge">
<title>Node30&#45;&gt;Node12</title>
<path fill="none" stroke="midnightblue" d="M1901.52,-212.93C1863.32,-199.06 1819.44,-183.13 1782.58,-169.75"/>
<polygon fill="midnightblue" stroke="midnightblue" points="1900.51,-216.29 1911.11,-216.41 1902.9,-209.71 1900.51,-216.29"/>
</g>
<!-- Node30&#45;&gt;Node20 -->
<g id="edge42" class="edge">
<title>Node30&#45;&gt;Node20</title>
<path fill="none" stroke="midnightblue" d="M2117.7,-216.07C2117.8,-216.04 2117.9,-216.02 2118,-216 2199.81,-197.99 2223.01,-204.87 2303,-180 2389.1,-153.23 2402.4,-124.12 2489,-99 2589.21,-69.93 2618.68,-83.48 2721,-63 2723.93,-62.41 2726.9,-61.8 2729.9,-61.17"/>
<polygon fill="midnightblue" stroke="midnightblue" points="2117.13,-212.61 2108.14,-218.2 2118.66,-219.44 2117.13,-212.61"/>
</g>
<!-- Node30&#45;&gt;Node21 -->
<g id="edge43" class="edge">
<title>Node30&#45;&gt;Node21</title>
<path fill="none" stroke="midnightblue" d="M1986.76,-206.5C1983.2,-172.84 1984.6,-126 2013,-99 2050.4,-63.45 2425.07,-71.29 2476,-63 2478.8,-62.54 2481.63,-62.06 2484.48,-61.54"/>
<polygon fill="midnightblue" stroke="midnightblue" points="1983.3,-207 1988,-216.49 1990.24,-206.13 1983.3,-207"/>
</g>
<!-- Node31 -->
<g id="node31" class="node">
<title>Node31</title>
<g id="a_node31"><a xlink:href="_i_e_render_pass_begin_info_8cpp.html" target="_top" xlink:title=" ">
<polygon fill="white" stroke="black" points="2022,-99.5 2022,-179.5 2294,-179.5 2294,-99.5 2022,-99.5"/>
<text text-anchor="start" x="2030" y="-162.7" font-family="Source Sans Pro" font-size="16.00">Illumination&#45;Engine</text>
<text text-anchor="start" x="2030" y="-144.7" font-family="Source Sans Pro" font-size="16.00">/src/GraphicsModule</text>
<text text-anchor="start" x="2030" y="-126.7" font-family="Source Sans Pro" font-size="16.00">/CommandBuffer/DependencyStructs</text>
<text text-anchor="middle" x="2158" y="-108.7" font-family="Source Sans Pro" font-size="16.00">/IERenderPassBeginInfo.cpp</text>
</a>
</g>
</g>
<!-- Node30&#45;&gt;Node31 -->
<g id="edge39" class="edge">
<title>Node30&#45;&gt;Node31</title>
<path fill="none" stroke="midnightblue" d="M2049.04,-210.92C2064.61,-200.86 2081.64,-189.85 2097.52,-179.59"/>
<polygon fill="midnightblue" stroke="midnightblue" points="2047.06,-208.04 2040.56,-216.41 2050.86,-213.92 2047.06,-208.04"/>
</g>
<!-- Node30&#45;&gt;Node32 -->
<g id="edge40" class="edge">
<title>Node30&#45;&gt;Node32</title>
<path fill="none" stroke="midnightblue" d="M1870.05,-226.33C1795.41,-213.83 1698.57,-196.95 1613,-180 1598.1,-177.05 1582.52,-173.81 1567.06,-170.51"/>
<polygon fill="midnightblue" stroke="midnightblue" points="1869.52,-229.79 1879.96,-227.99 1870.68,-222.89 1869.52,-229.79"/>
</g>
<!-- Node33&#45;&gt;Node10 -->
<g id="edge49" class="edge">
<title>Node33&#45;&gt;Node10</title>
<path fill="none" stroke="midnightblue" d="M910.07,-310.47C891.05,-300.04 870.39,-288.72 852,-278.64"/>
<polygon fill="midnightblue" stroke="midnightblue" points="908.51,-313.6 918.97,-315.34 911.88,-307.47 908.51,-313.6"/>
</g>
<!-- Node33&#45;&gt;Node22 -->
<g id="edge46" class="edge">
<title>Node33&#45;&gt;Node22</title>
<path fill="none" stroke="midnightblue" d="M985.02,-305.85C1002.63,-242.5 1036.73,-119.81 1052.56,-62.88"/>
<polygon fill="midnightblue" stroke="midnightblue" points="981.65,-304.92 982.34,-315.49 988.39,-306.79 981.65,-304.92"/>
</g>
<!-- Node33&#45;&gt;Node23 -->
<g id="edge47" class="edge">
<title>Node33&#45;&gt;Node23</title>
<path fill="none" stroke="midnightblue" d="M1009.42,-308.17C1068.85,-245.54 1187.49,-120.51 1242.17,-62.88"/>
<polygon fill="midnightblue" stroke="midnightblue" points="1006.82,-305.83 1002.48,-315.49 1011.9,-310.64 1006.82,-305.83"/>
</g>
<!-- Node33&#45;&gt;Node24 -->
<g id="edge48" class="edge">
<title>Node33&#45;&gt;Node24</title>
<path fill="none" stroke="midnightblue" d="M963.91,-305.77C955.5,-278.41 941.4,-242.36 920,-216 864.17,-147.22 775.97,-93.62 716.37,-62.55"/>
<polygon fill="midnightblue" stroke="midnightblue" points="960.57,-306.83 966.76,-315.43 967.29,-304.85 960.57,-306.83"/>
</g>
</g>
</svg>
