<?xml version="1.0" encoding="UTF-8" standalone="no"?>
<!DOCTYPE svg PUBLIC "-//W3C//DTD SVG 1.1//EN"
 "http://www.w3.org/Graphics/SVG/1.1/DTD/svg11.dtd">
<!-- Generated by graphviz version 2.43.0 (0)
 -->
<!-- Title: Illumination&#45;Engine/src/GraphicsModule/Renderable/IEVertex.cpp Pages: 1 -->
<svg width="482pt" height="197pt"
 viewBox="0.00 0.00 481.50 197.00" xmlns="http://www.w3.org/2000/svg" xmlns:xlink="http://www.w3.org/1999/xlink">
<g id="graph0" class="graph" transform="scale(1 1) rotate(0) translate(4 193)">
<title>Illumination&#45;Engine/src/GraphicsModule/Renderable/IEVertex.cpp</title>
<polygon fill="white" stroke="transparent" points="-4,4 -4,-193 477.5,-193 477.5,4 -4,4"/>
<!-- Node1 -->
<g id="node1" class="node">
<title>Node1</title>
<g id="a_node1"><a xlink:title=" ">
<polygon fill="#bfbfbf" stroke="black" points="226,-126.5 226,-188.5 414,-188.5 414,-126.5 226,-126.5"/>
<text text-anchor="start" x="234" y="-171.7" font-family="Source Sans Pro" font-size="16.00">Illumination&#45;Engine</text>
<text text-anchor="start" x="234" y="-153.7" font-family="Source Sans Pro" font-size="16.00">/src/GraphicsModule</text>
<text text-anchor="middle" x="320" y="-135.7" font-family="Source Sans Pro" font-size="16.00">/Renderable/IEVertex.cpp</text>
</a>
</g>
</g>
<!-- Node2 -->
<g id="node2" class="node">
<title>Node2</title>
<g id="a_node2"><a xlink:href="_i_e_vertex_8hpp.html" target="_top" xlink:title=" ">
<polygon fill="white" stroke="black" points="190.5,-63.5 190.5,-89.5 291.5,-89.5 291.5,-63.5 190.5,-63.5"/>
<text text-anchor="middle" x="241" y="-72.7" font-family="Source Sans Pro" font-size="16.00">IEVertex.hpp</text>
</a>
</g>
</g>
<!-- Node1&#45;&gt;Node2 -->
<g id="edge1" class="edge">
<title>Node1&#45;&gt;Node2</title>
<path fill="none" stroke="midnightblue" d="M289.68,-126.18C279.86,-116.36 269.23,-105.73 260.41,-96.91"/>
<polygon fill="midnightblue" stroke="midnightblue" points="262.75,-94.3 253.2,-89.7 257.8,-99.25 262.75,-94.3"/>
</g>
<!-- Node6 -->
<g id="node6" class="node">
<title>Node6</title>
<g id="a_node6"><a xlink:title=" ">
<polygon fill="white" stroke="#bfbfbf" points="292.5,-0.5 292.5,-26.5 347.5,-26.5 347.5,-0.5 292.5,-0.5"/>
<text text-anchor="middle" x="320" y="-9.7" font-family="Source Sans Pro" font-size="16.00">string</text>
</a>
</g>
</g>
<!-- Node1&#45;&gt;Node6 -->
<g id="edge6" class="edge">
<title>Node1&#45;&gt;Node6</title>
<path fill="none" stroke="midnightblue" d="M320,-126.39C320,-99.68 320,-61.26 320,-37.11"/>
<polygon fill="midnightblue" stroke="midnightblue" points="323.5,-36.81 320,-26.81 316.5,-36.81 323.5,-36.81"/>
</g>
<!-- Node7 -->
<g id="node7" class="node">
<title>Node7</title>
<g id="a_node7"><a xlink:title=" ">
<polygon fill="white" stroke="#bfbfbf" points="348.5,-63.5 348.5,-89.5 473.5,-89.5 473.5,-63.5 348.5,-63.5"/>
<text text-anchor="middle" x="411" y="-72.7" font-family="Source Sans Pro" font-size="16.00">vulkan/vulkan.h</text>
</a>
</g>
</g>
<!-- Node1&#45;&gt;Node7 -->
<g id="edge7" class="edge">
<title>Node1&#45;&gt;Node7</title>
<path fill="none" stroke="midnightblue" d="M354.66,-126.41C366.24,-116.36 378.8,-105.45 389.12,-96.49"/>
<polygon fill="midnightblue" stroke="midnightblue" points="391.6,-98.98 396.86,-89.78 387.01,-93.69 391.6,-98.98"/>
</g>
<!-- Node3 -->
<g id="node3" class="node">
<title>Node3</title>
<g id="a_node3"><a xlink:title=" ">
<polygon fill="white" stroke="#bfbfbf" points="0,-0.5 0,-26.5 104,-26.5 104,-0.5 0,-0.5"/>
<text text-anchor="middle" x="52" y="-9.7" font-family="Source Sans Pro" font-size="16.00">glm/glm.hpp</text>
</a>
</g>
</g>
<!-- Node2&#45;&gt;Node3 -->
<g id="edge2" class="edge">
<title>Node2&#45;&gt;Node3</title>
<path fill="none" stroke="midnightblue" d="M203.66,-63.45C173.63,-53.76 131.27,-40.08 98.95,-29.65"/>
<polygon fill="midnightblue" stroke="midnightblue" points="99.85,-26.27 89.26,-26.53 97.7,-32.93 99.85,-26.27"/>
</g>
<!-- Node4 -->
<g id="node4" class="node">
<title>Node4</title>
<g id="a_node4"><a xlink:title=" ">
<polygon fill="white" stroke="#bfbfbf" points="122.5,-0.5 122.5,-26.5 205.5,-26.5 205.5,-0.5 122.5,-0.5"/>
<text text-anchor="middle" x="164" y="-9.7" font-family="Source Sans Pro" font-size="16.00">GL/glew.h</text>
</a>
</g>
</g>
<!-- Node2&#45;&gt;Node4 -->
<g id="edge3" class="edge">
<title>Node2&#45;&gt;Node4</title>
<path fill="none" stroke="midnightblue" d="M225.79,-63.45C214.82,-54.76 199.81,-42.87 187.33,-32.99"/>
<polygon fill="midnightblue" stroke="midnightblue" points="189.19,-29.99 179.18,-26.53 184.85,-35.48 189.19,-29.99"/>
</g>
<!-- Node5 -->
<g id="node5" class="node">
<title>Node5</title>
<g id="a_node5"><a xlink:title=" ">
<polygon fill="white" stroke="#bfbfbf" points="223.5,-0.5 223.5,-26.5 274.5,-26.5 274.5,-0.5 223.5,-0.5"/>
<text text-anchor="middle" x="249" y="-9.7" font-family="Source Sans Pro" font-size="16.00">array</text>
</a>
</g>
</g>
<!-- Node2&#45;&gt;Node5 -->
<g id="edge4" class="edge">
<title>Node2&#45;&gt;Node5</title>
<path fill="none" stroke="midnightblue" d="M242.58,-63.45C243.59,-55.76 244.93,-45.57 246.12,-36.48"/>
<polygon fill="midnightblue" stroke="midnightblue" points="249.59,-36.9 247.42,-26.53 242.65,-35.99 249.59,-36.9"/>
</g>
<!-- Node2&#45;&gt;Node6 -->
<g id="edge5" class="edge">
<title>Node2&#45;&gt;Node6</title>
<path fill="none" stroke="midnightblue" d="M256.61,-63.45C267.97,-54.68 283.55,-42.64 296.43,-32.7"/>
<polygon fill="midnightblue" stroke="midnightblue" points="298.65,-35.41 304.42,-26.53 294.37,-29.87 298.65,-35.41"/>
</g>
</g>
</svg>
