<?xml version="1.0" encoding="UTF-8" standalone="no"?>
<!DOCTYPE svg PUBLIC "-//W3C//DTD SVG 1.1//EN"
 "http://www.w3.org/Graphics/SVG/1.1/DTD/svg11.dtd">
<!-- Generated by graphviz version 2.43.0 (0)
 -->
<!-- Title: Illumination&#45;Engine/src/GraphicsModule/Shader/IEUniformBufferObject.cpp Pages: 1 -->
<svg width="342pt" height="197pt"
 viewBox="0.00 0.00 342.00 197.00" xmlns="http://www.w3.org/2000/svg" xmlns:xlink="http://www.w3.org/1999/xlink">
<g id="graph0" class="graph" transform="scale(1 1) rotate(0) translate(4 193)">
<title>Illumination&#45;Engine/src/GraphicsModule/Shader/IEUniformBufferObject.cpp</title>
<polygon fill="white" stroke="transparent" points="-4,4 -4,-193 338,-193 338,4 -4,4"/>
<!-- Node1 -->
<g id="node1" class="node">
<title>Node1</title>
<g id="a_node1"><a xlink:title=" ">
<polygon fill="#bfbfbf" stroke="black" points="21,-126.5 21,-188.5 279,-188.5 279,-126.5 21,-126.5"/>
<text text-anchor="start" x="29" y="-171.7" font-family="Source Sans Pro" font-size="16.00">Illumination&#45;Engine</text>
<text text-anchor="start" x="29" y="-153.7" font-family="Source Sans Pro" font-size="16.00">/src/GraphicsModule</text>
<text text-anchor="middle" x="150" y="-135.7" font-family="Source Sans Pro" font-size="16.00">/Shader/IEUniformBufferObject.cpp</text>
</a>
</g>
</g>
<!-- Node2 -->
<g id="node2" class="node">
<title>Node2</title>
<g id="a_node2"><a xlink:href="_i_e_uniform_buffer_object_8hpp.html" target="_top" xlink:title=" ">
<polygon fill="white" stroke="black" points="49.5,-63.5 49.5,-89.5 250.5,-89.5 250.5,-63.5 49.5,-63.5"/>
<text text-anchor="middle" x="150" y="-72.7" font-family="Source Sans Pro" font-size="16.00">IEUniformBufferObject.hpp</text>
</a>
</g>
</g>
<!-- Node1&#45;&gt;Node2 -->
<g id="edge1" class="edge">
<title>Node1&#45;&gt;Node2</title>
<path fill="none" stroke="midnightblue" d="M150,-126.18C150,-117.45 150,-108.08 150,-99.91"/>
<polygon fill="midnightblue" stroke="midnightblue" points="153.5,-99.7 150,-89.7 146.5,-99.7 153.5,-99.7"/>
</g>
<!-- Node3 -->
<g id="node3" class="node">
<title>Node3</title>
<g id="a_node3"><a xlink:title=" ">
<polygon fill="white" stroke="#bfbfbf" points="0,-0.5 0,-26.5 104,-26.5 104,-0.5 0,-0.5"/>
<text text-anchor="middle" x="52" y="-9.7" font-family="Source Sans Pro" font-size="16.00">glm/glm.hpp</text>
</a>
</g>
</g>
<!-- Node2&#45;&gt;Node3 -->
<g id="edge2" class="edge">
<title>Node2&#45;&gt;Node3</title>
<path fill="none" stroke="midnightblue" d="M130.64,-63.45C116.14,-54.43 96.1,-41.95 79.88,-31.85"/>
<polygon fill="midnightblue" stroke="midnightblue" points="81.66,-28.84 71.32,-26.53 77.96,-34.78 81.66,-28.84"/>
</g>
<!-- Node4 -->
<g id="node4" class="node">
<title>Node4</title>
<g id="a_node4"><a xlink:title=" ">
<polygon fill="white" stroke="#bfbfbf" points="122.5,-0.5 122.5,-26.5 177.5,-26.5 177.5,-0.5 122.5,-0.5"/>
<text text-anchor="middle" x="150" y="-9.7" font-family="Source Sans Pro" font-size="16.00">string</text>
</a>
</g>
</g>
<!-- Node2&#45;&gt;Node4 -->
<g id="edge3" class="edge">
<title>Node2&#45;&gt;Node4</title>
<path fill="none" stroke="midnightblue" d="M150,-63.45C150,-55.85 150,-45.79 150,-36.78"/>
<polygon fill="midnightblue" stroke="midnightblue" points="153.5,-36.53 150,-26.53 146.5,-36.53 153.5,-36.53"/>
</g>
<!-- Node5 -->
<g id="node5" class="node">
<title>Node5</title>
<g id="a_node5"><a xlink:title=" ">
<polygon fill="white" stroke="#bfbfbf" points="196,-0.5 196,-26.5 334,-26.5 334,-0.5 196,-0.5"/>
<text text-anchor="middle" x="265" y="-9.7" font-family="Source Sans Pro" font-size="16.00">include/GL/glew.h</text>
</a>
</g>
</g>
<!-- Node2&#45;&gt;Node5 -->
<g id="edge4" class="edge">
<title>Node2&#45;&gt;Node5</title>
<path fill="none" stroke="midnightblue" d="M172.72,-63.45C190.05,-54.26 214.12,-41.49 233.34,-31.3"/>
<polygon fill="midnightblue" stroke="midnightblue" points="235.13,-34.3 242.33,-26.53 231.85,-28.12 235.13,-34.3"/>
</g>
</g>
</svg>
