<?xml version="1.0" encoding="UTF-8" standalone="no"?>
<!DOCTYPE svg PUBLIC "-//W3C//DTD SVG 1.1//EN"
 "http://www.w3.org/Graphics/SVG/1.1/DTD/svg11.dtd">
<!-- Generated by graphviz version 2.43.0 (0)
 -->
<!-- Title: Illumination&#45;Engine/src/GraphicsModule/Renderable/IEMaterial.hpp Pages: 1 -->
<svg width="728pt" height="449pt"
 viewBox="0.00 0.00 728.00 449.00" xmlns="http://www.w3.org/2000/svg" xmlns:xlink="http://www.w3.org/1999/xlink">
<g id="graph0" class="graph" transform="scale(1 1) rotate(0) translate(4 445)">
<title>Illumination&#45;Engine/src/GraphicsModule/Renderable/IEMaterial.hpp</title>
<polygon fill="white" stroke="transparent" points="-4,4 -4,-445 724,-445 724,4 -4,4"/>
<!-- Node1 -->
<g id="node1" class="node">
<title>Node1</title>
<g id="a_node1"><a xlink:title=" ">
<polygon fill="#bfbfbf" stroke="black" points="244,-378.5 244,-440.5 447,-440.5 447,-378.5 244,-378.5"/>
<text text-anchor="start" x="252" y="-423.7" font-family="Source Sans Pro" font-size="16.00">Illumination&#45;Engine</text>
<text text-anchor="start" x="252" y="-405.7" font-family="Source Sans Pro" font-size="16.00">/src/GraphicsModule</text>
<text text-anchor="middle" x="345.5" y="-387.7" font-family="Source Sans Pro" font-size="16.00">/Renderable/IEMaterial.hpp</text>
</a>
</g>
</g>
<!-- Node2 -->
<g id="node2" class="node">
<title>Node2</title>
<g id="a_node2"><a xlink:href="_i_e_material_8cpp.html" target="_top" xlink:title=" ">
<polygon fill="white" stroke="black" points="0,-180.5 0,-242.5 201,-242.5 201,-180.5 0,-180.5"/>
<text text-anchor="start" x="8" y="-225.7" font-family="Source Sans Pro" font-size="16.00">Illumination&#45;Engine</text>
<text text-anchor="start" x="8" y="-207.7" font-family="Source Sans Pro" font-size="16.00">/src/GraphicsModule</text>
<text text-anchor="middle" x="100.5" y="-189.7" font-family="Source Sans Pro" font-size="16.00">/Renderable/IEMaterial.cpp</text>
</a>
</g>
</g>
<!-- Node1&#45;&gt;Node2 -->
<g id="edge1" class="edge">
<title>Node1&#45;&gt;Node2</title>
<path fill="none" stroke="midnightblue" d="M287.4,-372.89C272.75,-363.3 257.28,-352.63 243.5,-342 202.52,-310.4 158.92,-269.78 130.79,-242.53"/>
<polygon fill="midnightblue" stroke="midnightblue" points="285.61,-375.9 295.91,-378.4 289.42,-370.02 285.61,-375.9"/>
</g>
<!-- Node3 -->
<g id="node3" class="node">
<title>Node3</title>
<g id="a_node3"><a xlink:href="_i_e_mesh_8hpp.html" target="_top" xlink:title=" ">
<polygon fill="white" stroke="black" points="253,-279.5 253,-341.5 438,-341.5 438,-279.5 253,-279.5"/>
<text text-anchor="start" x="261" y="-324.7" font-family="Source Sans Pro" font-size="16.00">Illumination&#45;Engine</text>
<text text-anchor="start" x="261" y="-306.7" font-family="Source Sans Pro" font-size="16.00">/src/GraphicsModule</text>
<text text-anchor="middle" x="345.5" y="-288.7" font-family="Source Sans Pro" font-size="16.00">/Renderable/IEMesh.hpp</text>
</a>
</g>
</g>
<!-- Node1&#45;&gt;Node3 -->
<g id="edge2" class="edge">
<title>Node1&#45;&gt;Node3</title>
<path fill="none" stroke="midnightblue" d="M345.5,-368.17C345.5,-359.29 345.5,-350.03 345.5,-341.64"/>
<polygon fill="midnightblue" stroke="midnightblue" points="342,-368.34 345.5,-378.34 349,-368.34 342,-368.34"/>
</g>
<!-- Node6 -->
<g id="node6" class="node">
<title>Node6</title>
<g id="a_node6"><a xlink:href="_i_e_renderable_8hpp.html" target="_top" xlink:title=" ">
<polygon fill="white" stroke="black" points="459,-180.5 459,-242.5 686,-242.5 686,-180.5 459,-180.5"/>
<text text-anchor="start" x="467" y="-225.7" font-family="Source Sans Pro" font-size="16.00">Illumination&#45;Engine</text>
<text text-anchor="start" x="467" y="-207.7" font-family="Source Sans Pro" font-size="16.00">/src/GraphicsModule</text>
<text text-anchor="middle" x="572.5" y="-189.7" font-family="Source Sans Pro" font-size="16.00">/Renderable/IERenderable.hpp</text>
</a>
</g>
</g>
<!-- Node1&#45;&gt;Node6 -->
<g id="edge10" class="edge">
<title>Node1&#45;&gt;Node6</title>
<path fill="none" stroke="midnightblue" d="M404.54,-372.71C418.72,-363.29 433.5,-352.74 446.5,-342 483.98,-311.03 522.26,-270.09 546.64,-242.6"/>
<polygon fill="midnightblue" stroke="midnightblue" points="402.27,-370.02 395.82,-378.42 406.1,-375.87 402.27,-370.02"/>
</g>
<!-- Node3&#45;&gt;Node2 -->
<g id="edge3" class="edge">
<title>Node3&#45;&gt;Node2</title>
<path fill="none" stroke="midnightblue" d="M260.14,-275.71C232.89,-264.92 202.94,-253.06 176.41,-242.55"/>
<polygon fill="midnightblue" stroke="midnightblue" points="259.07,-279.05 269.66,-279.47 261.65,-272.54 259.07,-279.05"/>
</g>
<!-- Node4 -->
<g id="node4" class="node">
<title>Node4</title>
<g id="a_node4"><a xlink:href="_i_e_mesh_8cpp.html" target="_top" xlink:title=" ">
<polygon fill="white" stroke="black" points="219,-180.5 219,-242.5 402,-242.5 402,-180.5 219,-180.5"/>
<text text-anchor="start" x="227" y="-225.7" font-family="Source Sans Pro" font-size="16.00">Illumination&#45;Engine</text>
<text text-anchor="start" x="227" y="-207.7" font-family="Source Sans Pro" font-size="16.00">/src/GraphicsModule</text>
<text text-anchor="middle" x="310.5" y="-189.7" font-family="Source Sans Pro" font-size="16.00">/Renderable/IEMesh.cpp</text>
</a>
</g>
</g>
<!-- Node3&#45;&gt;Node4 -->
<g id="edge4" class="edge">
<title>Node3&#45;&gt;Node4</title>
<path fill="none" stroke="midnightblue" d="M331.15,-269.74C327.89,-260.69 324.47,-251.22 321.38,-242.64"/>
<polygon fill="midnightblue" stroke="midnightblue" points="327.93,-271.12 334.62,-279.34 334.52,-268.75 327.93,-271.12"/>
</g>
<!-- Node5 -->
<g id="node5" class="node">
<title>Node5</title>
<g id="a_node5"><a xlink:href="_i_e_renderable_8cpp.html" target="_top" xlink:title=" ">
<polygon fill="white" stroke="black" points="318,-81.5 318,-143.5 543,-143.5 543,-81.5 318,-81.5"/>
<text text-anchor="start" x="326" y="-126.7" font-family="Source Sans Pro" font-size="16.00">Illumination&#45;Engine</text>
<text text-anchor="start" x="326" y="-108.7" font-family="Source Sans Pro" font-size="16.00">/src/GraphicsModule</text>
<text text-anchor="middle" x="430.5" y="-90.7" font-family="Source Sans Pro" font-size="16.00">/Renderable/IERenderable.cpp</text>
</a>
</g>
</g>
<!-- Node3&#45;&gt;Node5 -->
<g id="edge5" class="edge">
<title>Node3&#45;&gt;Node5</title>
<path fill="none" stroke="midnightblue" d="M389.93,-271.91C397.9,-263.19 405.31,-253.39 410.5,-243 426.22,-211.56 430.25,-170.9 430.97,-143.6"/>
<polygon fill="midnightblue" stroke="midnightblue" points="387.25,-269.65 382.83,-279.29 392.29,-274.51 387.25,-269.65"/>
</g>
<!-- Node3&#45;&gt;Node6 -->
<g id="edge6" class="edge">
<title>Node3&#45;&gt;Node6</title>
<path fill="none" stroke="midnightblue" d="M425.25,-275.42C450.32,-264.71 477.8,-252.96 502.17,-242.55"/>
<polygon fill="midnightblue" stroke="midnightblue" points="423.59,-272.32 415.77,-279.47 426.34,-278.76 423.59,-272.32"/>
</g>
<!-- Node6&#45;&gt;Node5 -->
<g id="edge9" class="edge">
<title>Node6&#45;&gt;Node5</title>
<path fill="none" stroke="midnightblue" d="M519.76,-174.47C504.91,-164.33 488.91,-153.4 474.62,-143.64"/>
<polygon fill="midnightblue" stroke="midnightblue" points="518.12,-177.59 528.35,-180.34 522.07,-171.81 518.12,-177.59"/>
</g>
<!-- Node7 -->
<g id="node7" class="node">
<title>Node7</title>
<g id="a_node7"><a xlink:href="_i_e_render_engine_8cpp.html" target="_top" xlink:title=" ">
<polygon fill="white" stroke="black" points="561,-81.5 561,-143.5 720,-143.5 720,-81.5 561,-81.5"/>
<text text-anchor="start" x="569" y="-126.7" font-family="Source Sans Pro" font-size="16.00">Illumination&#45;Engine</text>
<text text-anchor="start" x="569" y="-108.7" font-family="Source Sans Pro" font-size="16.00">/src/GraphicsModule</text>
<text text-anchor="middle" x="640.5" y="-90.7" font-family="Source Sans Pro" font-size="16.00">/IERenderEngine.cpp</text>
</a>
</g>
</g>
<!-- Node6&#45;&gt;Node7 -->
<g id="edge7" class="edge">
<title>Node6&#45;&gt;Node7</title>
<path fill="none" stroke="midnightblue" d="M599.56,-171.9C606.15,-162.5 613.1,-152.58 619.37,-143.64"/>
<polygon fill="midnightblue" stroke="midnightblue" points="596.52,-170.14 593.64,-180.34 602.25,-174.16 596.52,-170.14"/>
</g>
<!-- Node8 -->
<g id="node8" class="node">
<title>Node8</title>
<g id="a_node8"><a xlink:href="main_8cpp.html" target="_top" xlink:title=" ">
<polygon fill="white" stroke="black" points="565.5,-0.5 565.5,-44.5 715.5,-44.5 715.5,-0.5 565.5,-0.5"/>
<text text-anchor="start" x="573.5" y="-27.7" font-family="Source Sans Pro" font-size="16.00">Illumination&#45;Engine</text>
<text text-anchor="middle" x="640.5" y="-9.7" font-family="Source Sans Pro" font-size="16.00">/src/main.cpp</text>
</a>
</g>
</g>
<!-- Node7&#45;&gt;Node8 -->
<g id="edge8" class="edge">
<title>Node7&#45;&gt;Node8</title>
<path fill="none" stroke="midnightblue" d="M640.5,-71.09C640.5,-61.97 640.5,-52.64 640.5,-44.68"/>
<polygon fill="midnightblue" stroke="midnightblue" points="637,-71.22 640.5,-81.22 644,-71.22 637,-71.22"/>
</g>
</g>
</svg>
