<?xml version="1.0" encoding="UTF-8" standalone="no"?>
<!DOCTYPE svg PUBLIC "-//W3C//DTD SVG 1.1//EN"
 "http://www.w3.org/Graphics/SVG/1.1/DTD/svg11.dtd">
<!-- Generated by graphviz version 2.43.0 (0)
 -->
<!-- Title: Illumination&#45;Engine/src/GraphicsModule/CommandBuffer/IECommandBuffer.hpp Pages: 1 -->
<svg width="2601pt" height="539pt"
 viewBox="0.00 0.00 2600.50 539.00" xmlns="http://www.w3.org/2000/svg" xmlns:xlink="http://www.w3.org/1999/xlink">
<g id="graph0" class="graph" transform="scale(1 1) rotate(0) translate(4 535)">
<title>Illumination&#45;Engine/src/GraphicsModule/CommandBuffer/IECommandBuffer.hpp</title>
<polygon fill="white" stroke="transparent" points="-4,4 -4,-535 2596.5,-535 2596.5,4 -4,4"/>
<!-- Node1 -->
<g id="node1" class="node">
<title>Node1</title>
<g id="a_node1"><a xlink:title=" ">
<polygon fill="#bfbfbf" stroke="black" points="1649.5,-468.5 1649.5,-530.5 1944.5,-530.5 1944.5,-468.5 1649.5,-468.5"/>
<text text-anchor="start" x="1657.5" y="-513.7" font-family="Source Sans Pro" font-size="16.00">Illumination&#45;Engine</text>
<text text-anchor="start" x="1657.5" y="-495.7" font-family="Source Sans Pro" font-size="16.00">/src/GraphicsModule</text>
<text text-anchor="middle" x="1797" y="-477.7" font-family="Source Sans Pro" font-size="16.00">/CommandBuffer/IECommandBuffer.hpp</text>
</a>
</g>
</g>
<!-- Node2 -->
<g id="node2" class="node">
<title>Node2</title>
<g id="a_node2"><a xlink:title=" ">
<polygon fill="white" stroke="#bfbfbf" points="1686.5,-72.5 1686.5,-98.5 1811.5,-98.5 1811.5,-72.5 1686.5,-72.5"/>
<text text-anchor="middle" x="1749" y="-81.7" font-family="Source Sans Pro" font-size="16.00">vulkan/vulkan.h</text>
</a>
</g>
</g>
<!-- Node1&#45;&gt;Node2 -->
<g id="edge1" class="edge">
<title>Node1&#45;&gt;Node2</title>
<path fill="none" stroke="midnightblue" d="M1748.33,-468.35C1711.43,-442.37 1663.52,-401.19 1642,-351 1634.12,-332.62 1629.89,-321.92 1642,-306 1678.3,-258.28 1732.84,-315.4 1772,-270 1808.69,-227.46 1796.47,-198.28 1782,-144 1778.51,-130.93 1771.27,-117.73 1764.46,-107.29"/>
<polygon fill="midnightblue" stroke="midnightblue" points="1767.23,-105.15 1758.68,-98.89 1761.46,-109.11 1767.23,-105.15"/>
</g>
<!-- Node3 -->
<g id="node3" class="node">
<title>Node3</title>
<g id="a_node3"><a xlink:title=" ">
<polygon fill="white" stroke="#bfbfbf" points="1283.5,-0.5 1283.5,-26.5 1342.5,-26.5 1342.5,-0.5 1283.5,-0.5"/>
<text text-anchor="middle" x="1313" y="-9.7" font-family="Source Sans Pro" font-size="16.00">vector</text>
</a>
</g>
</g>
<!-- Node1&#45;&gt;Node3 -->
<g id="edge2" class="edge">
<title>Node1&#45;&gt;Node3</title>
<path fill="none" stroke="midnightblue" d="M1944.6,-486.93C2046.39,-476.74 2171.13,-459.22 2216,-432 2343.86,-354.43 2460.44,-275.92 2390,-144 2359.52,-86.91 2330.42,-83.38 2269,-63 2181.17,-33.87 1522.55,-18.72 1352.81,-15.27"/>
<polygon fill="midnightblue" stroke="midnightblue" points="1352.64,-11.76 1342.57,-15.06 1352.5,-18.76 1352.64,-11.76"/>
</g>
<!-- Node4 -->
<g id="node4" class="node">
<title>Node4</title>
<g id="a_node4"><a xlink:title=" ">
<polygon fill="white" stroke="#bfbfbf" points="2372,-396.5 2372,-422.5 2436,-422.5 2436,-396.5 2372,-396.5"/>
<text text-anchor="middle" x="2404" y="-405.7" font-family="Source Sans Pro" font-size="16.00">variant</text>
</a>
</g>
</g>
<!-- Node1&#45;&gt;Node4 -->
<g id="edge3" class="edge">
<title>Node1&#45;&gt;Node4</title>
<path fill="none" stroke="midnightblue" d="M1944.51,-493.83C2059.14,-487.16 2221.11,-471.01 2358,-432 2362.73,-430.65 2367.59,-428.87 2372.29,-426.91"/>
<polygon fill="midnightblue" stroke="midnightblue" points="2373.94,-430 2381.63,-422.7 2371.07,-423.62 2373.94,-430"/>
</g>
<!-- Node5 -->
<g id="node5" class="node">
<title>Node5</title>
<g id="a_node5"><a xlink:title=" ">
<polygon fill="white" stroke="#bfbfbf" points="2454.5,-396.5 2454.5,-422.5 2515.5,-422.5 2515.5,-396.5 2454.5,-396.5"/>
<text text-anchor="middle" x="2485" y="-405.7" font-family="Source Sans Pro" font-size="16.00">thread</text>
</a>
</g>
</g>
<!-- Node1&#45;&gt;Node5 -->
<g id="edge4" class="edge">
<title>Node1&#45;&gt;Node5</title>
<path fill="none" stroke="midnightblue" d="M1944.77,-490.02C2106.47,-479.56 2354.72,-459.7 2445,-432 2449.07,-430.75 2453.2,-429.07 2457.19,-427.2"/>
<polygon fill="midnightblue" stroke="midnightblue" points="2458.85,-430.28 2466.14,-422.6 2455.64,-424.06 2458.85,-430.28"/>
</g>
<!-- Node6 -->
<g id="node6" class="node">
<title>Node6</title>
<g id="a_node6"><a xlink:title=" ">
<polygon fill="white" stroke="#bfbfbf" points="2533.5,-396.5 2533.5,-422.5 2592.5,-422.5 2592.5,-396.5 2533.5,-396.5"/>
<text text-anchor="middle" x="2563" y="-405.7" font-family="Source Sans Pro" font-size="16.00">mutex</text>
</a>
</g>
</g>
<!-- Node1&#45;&gt;Node6 -->
<g id="edge5" class="edge">
<title>Node1&#45;&gt;Node6</title>
<path fill="none" stroke="midnightblue" d="M1944.7,-492.35C2125.45,-483.55 2420.37,-464.71 2525,-432 2528.8,-430.81 2532.64,-429.21 2536.34,-427.41"/>
<polygon fill="midnightblue" stroke="midnightblue" points="2538.02,-430.48 2545.16,-422.65 2534.7,-424.32 2538.02,-430.48"/>
</g>
<!-- Node7 -->
<g id="node7" class="node">
<title>Node7</title>
<g id="a_node7"><a xlink:href="_i_e_buffer_8hpp.html" target="_top" xlink:title=" ">
<polygon fill="white" stroke="black" points="848.5,-234.5 848.5,-260.5 995.5,-260.5 995.5,-234.5 848.5,-234.5"/>
<text text-anchor="middle" x="922" y="-243.7" font-family="Source Sans Pro" font-size="16.00">Buffer/IEBuffer.hpp</text>
</a>
</g>
</g>
<!-- Node1&#45;&gt;Node7 -->
<g id="edge6" class="edge">
<title>Node1&#45;&gt;Node7</title>
<path fill="none" stroke="midnightblue" d="M1649.23,-494.87C1479.37,-488.81 1212.26,-472.92 1121,-432 1037.68,-394.64 966.2,-308.28 936.58,-268.83"/>
<polygon fill="midnightblue" stroke="midnightblue" points="939.35,-266.69 930.6,-260.72 933.72,-270.84 939.35,-266.69"/>
</g>
<!-- Node17 -->
<g id="node17" class="node">
<title>Node17</title>
<g id="a_node17"><a xlink:href="_i_e_image_8hpp.html" target="_top" xlink:title=" ">
<polygon fill="white" stroke="black" points="1180.5,-234.5 1180.5,-260.5 1329.5,-260.5 1329.5,-234.5 1180.5,-234.5"/>
<text text-anchor="middle" x="1255" y="-243.7" font-family="Source Sans Pro" font-size="16.00">Image/IEImage.hpp</text>
</a>
</g>
</g>
<!-- Node1&#45;&gt;Node17 -->
<g id="edge24" class="edge">
<title>Node1&#45;&gt;Node17</title>
<path fill="none" stroke="midnightblue" d="M1649.41,-491.2C1459.32,-478.13 1145.82,-442.88 1083,-351 1071.71,-334.49 1071.31,-322.23 1083,-306 1103.09,-278.1 1137.34,-263.54 1170.01,-256.01"/>
<polygon fill="midnightblue" stroke="midnightblue" points="1171.02,-259.38 1180.08,-253.9 1169.58,-252.53 1171.02,-259.38"/>
</g>
<!-- Node19 -->
<g id="node19" class="node">
<title>Node19</title>
<g id="a_node19"><a xlink:href="_i_e_dependent_8hpp.html" target="_top" xlink:title=" ">
<polygon fill="white" stroke="black" points="2245,-153.5 2245,-179.5 2381,-179.5 2381,-153.5 2245,-153.5"/>
<text text-anchor="middle" x="2313" y="-162.7" font-family="Source Sans Pro" font-size="16.00">IEDependent.hpp</text>
</a>
</g>
</g>
<!-- Node1&#45;&gt;Node19 -->
<g id="edge35" class="edge">
<title>Node1&#45;&gt;Node19</title>
<path fill="none" stroke="midnightblue" d="M1944.52,-484.91C2034.72,-474.3 2139.86,-457.1 2178,-432 2265.25,-374.58 2298.95,-242.39 2309.22,-189.74"/>
<polygon fill="midnightblue" stroke="midnightblue" points="2312.68,-190.23 2311.06,-179.76 2305.8,-188.96 2312.68,-190.23"/>
</g>
<!-- Node20 -->
<g id="node20" class="node">
<title>Node20</title>
<g id="a_node20"><a xlink:href="_i_e_pipeline_8hpp.html" target="_top" xlink:title=" ">
<polygon fill="white" stroke="black" points="639,-306.5 639,-350.5 819,-350.5 819,-306.5 639,-306.5"/>
<text text-anchor="start" x="647" y="-333.7" font-family="Source Sans Pro" font-size="16.00">GraphicsModule/Shader</text>
<text text-anchor="middle" x="729" y="-315.7" font-family="Source Sans Pro" font-size="16.00">/IEPipeline.hpp</text>
</a>
</g>
</g>
<!-- Node1&#45;&gt;Node20 -->
<g id="edge38" class="edge">
<title>Node1&#45;&gt;Node20</title>
<path fill="none" stroke="midnightblue" d="M1649.28,-492.76C1444.79,-483.78 1086.37,-464.06 960,-432 892.76,-414.94 820.46,-379.86 775,-355.52"/>
<polygon fill="midnightblue" stroke="midnightblue" points="776.46,-352.33 766,-350.65 773.13,-358.49 776.46,-352.33"/>
</g>
<!-- Node27 -->
<g id="node27" class="node">
<title>Node27</title>
<g id="a_node27"><a xlink:href="_i_e_dependency_info_8hpp.html" target="_top" xlink:title=" ">
<polygon fill="white" stroke="black" points="1945,-387.5 1945,-431.5 2169,-431.5 2169,-387.5 1945,-387.5"/>
<text text-anchor="start" x="1953" y="-414.7" font-family="Source Sans Pro" font-size="16.00">CommandBuffer/Dependency</text>
<text text-anchor="middle" x="2057" y="-396.7" font-family="Source Sans Pro" font-size="16.00">Structs/IEDependencyInfo.hpp</text>
</a>
</g>
</g>
<!-- Node1&#45;&gt;Node27 -->
<g id="edge57" class="edge">
<title>Node1&#45;&gt;Node27</title>
<path fill="none" stroke="midnightblue" d="M1885.75,-468.46C1918.14,-457.5 1954.34,-445.25 1985.08,-434.84"/>
<polygon fill="midnightblue" stroke="midnightblue" points="1986.51,-438.05 1994.86,-431.53 1984.27,-431.42 1986.51,-438.05"/>
</g>
<!-- Node30 -->
<g id="node30" class="node">
<title>Node30</title>
<g id="a_node30"><a xlink:href="_i_e_copy_buffer_to_image_info_8hpp.html" target="_top" xlink:title=" ">
<polygon fill="white" stroke="black" points="1320.5,-306.5 1320.5,-350.5 1593.5,-350.5 1593.5,-306.5 1320.5,-306.5"/>
<text text-anchor="start" x="1328.5" y="-333.7" font-family="Source Sans Pro" font-size="16.00">CommandBuffer/Dependency</text>
<text text-anchor="middle" x="1457" y="-315.7" font-family="Source Sans Pro" font-size="16.00">Structs/IECopyBufferToImageInfo.hpp</text>
</a>
</g>
</g>
<!-- Node1&#45;&gt;Node30 -->
<g id="edge69" class="edge">
<title>Node1&#45;&gt;Node30</title>
<path fill="none" stroke="midnightblue" d="M1684,-468.46C1657.92,-458.94 1631.09,-446.9 1608,-432 1584.76,-417 1587.04,-403.71 1565,-387 1549.14,-374.98 1530.43,-364.06 1513.08,-355.04"/>
<polygon fill="midnightblue" stroke="midnightblue" points="1514.65,-351.91 1504.15,-350.5 1511.48,-358.15 1514.65,-351.91"/>
</g>
<!-- Node31 -->
<g id="node31" class="node">
<title>Node31</title>
<g id="a_node31"><a xlink:href="_i_e_render_pass_begin_info_8hpp.html" target="_top" xlink:title=" ">
<polygon fill="white" stroke="black" points="1300,-387.5 1300,-431.5 1556,-431.5 1556,-387.5 1300,-387.5"/>
<text text-anchor="start" x="1308" y="-414.7" font-family="Source Sans Pro" font-size="16.00">CommandBuffer/Dependency</text>
<text text-anchor="middle" x="1428" y="-396.7" font-family="Source Sans Pro" font-size="16.00">Structs/IERenderPassBeginInfo.hpp</text>
</a>
</g>
</g>
<!-- Node1&#45;&gt;Node31 -->
<g id="edge74" class="edge">
<title>Node1&#45;&gt;Node31</title>
<path fill="none" stroke="midnightblue" d="M1671.04,-468.46C1623.68,-457.17 1570.58,-444.5 1526.12,-433.9"/>
<polygon fill="midnightblue" stroke="midnightblue" points="1526.73,-430.45 1516.19,-431.53 1525.1,-437.26 1526.73,-430.45"/>
</g>
<!-- Node7&#45;&gt;Node2 -->
<g id="edge20" class="edge">
<title>Node7&#45;&gt;Node2</title>
<path fill="none" stroke="midnightblue" d="M920.07,-234.49C917.33,-212.75 915.22,-167.03 941,-144 995.16,-95.61 1488.03,-87.87 1676.33,-86.69"/>
<polygon fill="midnightblue" stroke="midnightblue" points="1676.43,-90.19 1686.41,-86.63 1676.39,-83.19 1676.43,-90.19"/>
</g>
<!-- Node7&#45;&gt;Node3 -->
<g id="edge21" class="edge">
<title>Node7&#45;&gt;Node3</title>
<path fill="none" stroke="midnightblue" d="M916.97,-234.39C909.25,-213.68 897.34,-171.12 917,-144 1000.78,-28.46 1190.66,-14.09 1273.31,-13.58"/>
<polygon fill="midnightblue" stroke="midnightblue" points="1273.31,-17.08 1283.31,-13.58 1273.32,-10.08 1273.31,-17.08"/>
</g>
<!-- Node8 -->
<g id="node8" class="node">
<title>Node8</title>
<g id="a_node8"><a xlink:href="_i_e_dependency_8hpp.html" target="_top" xlink:title=" ">
<polygon fill="white" stroke="black" points="1190.5,-144.5 1190.5,-188.5 1435.5,-188.5 1435.5,-144.5 1190.5,-144.5"/>
<text text-anchor="start" x="1198.5" y="-171.7" font-family="Source Sans Pro" font-size="16.00">GraphicsModule/CommandBuffer</text>
<text text-anchor="middle" x="1313" y="-153.7" font-family="Source Sans Pro" font-size="16.00">/IEDependency.hpp</text>
</a>
</g>
</g>
<!-- Node7&#45;&gt;Node8 -->
<g id="edge7" class="edge">
<title>Node7&#45;&gt;Node8</title>
<path fill="none" stroke="midnightblue" d="M981.81,-234.42C1039.33,-222.79 1127.76,-204.93 1198.78,-190.58"/>
<polygon fill="midnightblue" stroke="midnightblue" points="1199.57,-193.99 1208.68,-188.58 1198.19,-187.13 1199.57,-193.99"/>
</g>
<!-- Node11 -->
<g id="node11" class="node">
<title>Node11</title>
<g id="a_node11"><a xlink:href="_i_e_a_p_i_8hpp.html" target="_top" xlink:title=" ">
<polygon fill="white" stroke="black" points="502.5,-153.5 502.5,-179.5 585.5,-179.5 585.5,-153.5 502.5,-153.5"/>
<text text-anchor="middle" x="544" y="-162.7" font-family="Source Sans Pro" font-size="16.00">IEAPI.hpp</text>
</a>
</g>
</g>
<!-- Node7&#45;&gt;Node11 -->
<g id="edge12" class="edge">
<title>Node7&#45;&gt;Node11</title>
<path fill="none" stroke="midnightblue" d="M864.18,-234.42C790.95,-219.11 665.87,-192.97 595.69,-178.3"/>
<polygon fill="midnightblue" stroke="midnightblue" points="596.25,-174.84 585.74,-176.22 594.81,-181.7 596.25,-174.84"/>
</g>
<!-- Node13 -->
<g id="node13" class="node">
<title>Node13</title>
<g id="a_node13"><a xlink:title=" ">
<polygon fill="white" stroke="#bfbfbf" points="658.5,-0.5 658.5,-26.5 721.5,-26.5 721.5,-0.5 658.5,-0.5"/>
<text text-anchor="middle" x="690" y="-9.7" font-family="Source Sans Pro" font-size="16.00">cstdint</text>
</a>
</g>
</g>
<!-- Node7&#45;&gt;Node13 -->
<g id="edge22" class="edge">
<title>Node7&#45;&gt;Node13</title>
<path fill="none" stroke="midnightblue" d="M848.44,-235.64C794.36,-226.07 727.24,-210.32 709,-189 672.19,-145.98 678.8,-73.5 685.2,-36.97"/>
<polygon fill="midnightblue" stroke="midnightblue" points="688.69,-37.34 687.13,-26.87 681.81,-36.03 688.69,-37.34"/>
</g>
<!-- Node14 -->
<g id="node14" class="node">
<title>Node14</title>
<g id="a_node14"><a xlink:title=" ">
<polygon fill="white" stroke="#bfbfbf" points="949.5,-153.5 949.5,-179.5 1134.5,-179.5 1134.5,-153.5 949.5,-153.5"/>
<text text-anchor="middle" x="1042" y="-162.7" font-family="Source Sans Pro" font-size="16.00">include/vk_mem_alloc.h</text>
</a>
</g>
</g>
<!-- Node7&#45;&gt;Node14 -->
<g id="edge18" class="edge">
<title>Node7&#45;&gt;Node14</title>
<path fill="none" stroke="midnightblue" d="M940.49,-234.33C960.45,-221.19 992.45,-200.12 1015.18,-185.16"/>
<polygon fill="midnightblue" stroke="midnightblue" points="1017.26,-187.98 1023.69,-179.55 1013.41,-182.13 1017.26,-187.98"/>
</g>
<!-- Node15 -->
<g id="node15" class="node">
<title>Node15</title>
<g id="a_node15"><a xlink:title=" ">
<polygon fill="white" stroke="#bfbfbf" points="718,-153.5 718,-179.5 856,-179.5 856,-153.5 718,-153.5"/>
<text text-anchor="middle" x="787" y="-162.7" font-family="Source Sans Pro" font-size="16.00">include/GL/glew.h</text>
</a>
</g>
</g>
<!-- Node7&#45;&gt;Node15 -->
<g id="edge19" class="edge">
<title>Node7&#45;&gt;Node15</title>
<path fill="none" stroke="midnightblue" d="M901.2,-234.33C878.54,-221.07 842.11,-199.75 816.5,-184.76"/>
<polygon fill="midnightblue" stroke="midnightblue" points="818,-181.58 807.6,-179.55 814.46,-187.63 818,-181.58"/>
</g>
<!-- Node16 -->
<g id="node16" class="node">
<title>Node16</title>
<g id="a_node16"><a xlink:title=" ">
<polygon fill="white" stroke="#bfbfbf" points="398,-153.5 398,-179.5 484,-179.5 484,-153.5 398,-153.5"/>
<text text-anchor="middle" x="441" y="-162.7" font-family="Source Sans Pro" font-size="16.00">functional</text>
</a>
</g>
</g>
<!-- Node7&#45;&gt;Node16 -->
<g id="edge23" class="edge">
<title>Node7&#45;&gt;Node16</title>
<path fill="none" stroke="midnightblue" d="M848.38,-242.43C762.01,-236.34 615.1,-221.83 493,-189 487.32,-187.47 481.43,-185.47 475.75,-183.31"/>
<polygon fill="midnightblue" stroke="midnightblue" points="477.05,-180.06 466.46,-179.57 474.43,-186.55 477.05,-180.06"/>
</g>
<!-- Node8&#45;&gt;Node2 -->
<g id="edge9" class="edge">
<title>Node8&#45;&gt;Node2</title>
<path fill="none" stroke="midnightblue" d="M1428.98,-144.49C1507.57,-130.25 1608.99,-111.87 1676.37,-99.66"/>
<polygon fill="midnightblue" stroke="midnightblue" points="1677.25,-103.06 1686.47,-97.83 1676,-96.17 1677.25,-103.06"/>
</g>
<!-- Node8&#45;&gt;Node3 -->
<g id="edge8" class="edge">
<title>Node8&#45;&gt;Node3</title>
<path fill="none" stroke="midnightblue" d="M1313,-144.19C1313,-115.91 1313,-66.2 1313,-37.23"/>
<polygon fill="midnightblue" stroke="midnightblue" points="1316.5,-36.89 1313,-26.89 1309.5,-36.89 1316.5,-36.89"/>
</g>
<!-- Node9 -->
<g id="node9" class="node">
<title>Node9</title>
<g id="a_node9"><a xlink:title=" ">
<polygon fill="white" stroke="#bfbfbf" points="382.5,-0.5 382.5,-26.5 437.5,-26.5 437.5,-0.5 382.5,-0.5"/>
<text text-anchor="middle" x="410" y="-9.7" font-family="Source Sans Pro" font-size="16.00">string</text>
</a>
</g>
</g>
<!-- Node8&#45;&gt;Node9 -->
<g id="edge10" class="edge">
<title>Node8&#45;&gt;Node9</title>
<path fill="none" stroke="midnightblue" d="M1190.22,-145.61C1185.42,-145.03 1180.67,-144.49 1176,-144 1027.49,-128.4 640.68,-170.37 505,-108 479.87,-96.45 481.68,-82.44 462,-63 451.98,-53.1 440.57,-42.4 430.99,-33.57"/>
<polygon fill="midnightblue" stroke="midnightblue" points="433.19,-30.83 423.45,-26.65 428.45,-35.99 433.19,-30.83"/>
</g>
<!-- Node10 -->
<g id="node10" class="node">
<title>Node10</title>
<g id="a_node10"><a xlink:title=" ">
<polygon fill="white" stroke="#bfbfbf" points="2001,-72.5 2001,-98.5 2075,-98.5 2075,-72.5 2001,-72.5"/>
<text text-anchor="middle" x="2038" y="-81.7" font-family="Source Sans Pro" font-size="16.00">memory</text>
</a>
</g>
</g>
<!-- Node8&#45;&gt;Node10 -->
<g id="edge11" class="edge">
<title>Node8&#45;&gt;Node10</title>
<path fill="none" stroke="midnightblue" d="M1435.58,-152.14C1598.69,-134.37 1879.43,-103.78 1990.64,-91.66"/>
<polygon fill="midnightblue" stroke="midnightblue" points="1991.3,-95.11 2000.87,-90.55 1990.55,-88.15 1991.3,-95.11"/>
</g>
<!-- Node11&#45;&gt;Node9 -->
<g id="edge17" class="edge">
<title>Node11&#45;&gt;Node9</title>
<path fill="none" stroke="midnightblue" d="M514.78,-153.47C486.01,-141.07 444.84,-121.68 434,-108 417.76,-87.52 412.4,-57.29 410.69,-36.79"/>
<polygon fill="midnightblue" stroke="midnightblue" points="414.19,-36.56 410.08,-26.79 407.2,-36.99 414.19,-36.56"/>
</g>
<!-- Node12 -->
<g id="node12" class="node">
<title>Node12</title>
<g id="a_node12"><a xlink:href="_i_e_version_8hpp.html" target="_top" xlink:title=" ">
<polygon fill="white" stroke="black" points="514,-72.5 514,-98.5 624,-98.5 624,-72.5 514,-72.5"/>
<text text-anchor="middle" x="569" y="-81.7" font-family="Source Sans Pro" font-size="16.00">IEVersion.hpp</text>
</a>
</g>
</g>
<!-- Node11&#45;&gt;Node12 -->
<g id="edge13" class="edge">
<title>Node11&#45;&gt;Node12</title>
<path fill="none" stroke="midnightblue" d="M547.91,-153.16C551.69,-141.21 557.5,-122.85 562.06,-108.42"/>
<polygon fill="midnightblue" stroke="midnightblue" points="565.44,-109.35 565.12,-98.76 558.77,-107.24 565.44,-109.35"/>
</g>
<!-- Node12&#45;&gt;Node3 -->
<g id="edge16" class="edge">
<title>Node12&#45;&gt;Node3</title>
<path fill="none" stroke="midnightblue" d="M602.3,-72.43C613.5,-68.82 626.16,-65.24 638,-63 876.01,-17.99 1168.45,-14.02 1273.29,-14.18"/>
<polygon fill="midnightblue" stroke="midnightblue" points="1273.4,-17.68 1283.41,-14.21 1273.42,-10.68 1273.4,-17.68"/>
</g>
<!-- Node12&#45;&gt;Node9 -->
<g id="edge15" class="edge">
<title>Node12&#45;&gt;Node9</title>
<path fill="none" stroke="midnightblue" d="M541.67,-72.47C515.5,-60.95 475.84,-43.49 446.88,-30.74"/>
<polygon fill="midnightblue" stroke="midnightblue" points="448.07,-27.44 437.51,-26.61 445.25,-33.84 448.07,-27.44"/>
</g>
<!-- Node12&#45;&gt;Node13 -->
<g id="edge14" class="edge">
<title>Node12&#45;&gt;Node13</title>
<path fill="none" stroke="midnightblue" d="M589.8,-72.47C609.19,-61.25 638.33,-44.39 660.19,-31.74"/>
<polygon fill="midnightblue" stroke="midnightblue" points="662.16,-34.65 669.07,-26.61 658.66,-28.59 662.16,-34.65"/>
</g>
<!-- Node17&#45;&gt;Node2 -->
<g id="edge29" class="edge">
<title>Node17&#45;&gt;Node2</title>
<path fill="none" stroke="midnightblue" d="M1329.75,-237.8C1375.04,-230.03 1432.64,-215.59 1478,-189 1501.86,-175.01 1497.1,-157.93 1521,-144 1568.65,-116.24 1629.5,-101.76 1676.35,-94.28"/>
<polygon fill="midnightblue" stroke="midnightblue" points="1677.06,-97.72 1686.42,-92.75 1676.01,-90.8 1677.06,-97.72"/>
</g>
<!-- Node17&#45;&gt;Node3 -->
<g id="edge33" class="edge">
<title>Node17&#45;&gt;Node3</title>
<path fill="none" stroke="midnightblue" d="M1329.74,-246.39C1429.97,-244.47 1599.9,-234.39 1639,-189 1725.99,-88.02 1457.45,-36.06 1352.85,-20.02"/>
<polygon fill="midnightblue" stroke="midnightblue" points="1353.08,-16.52 1342.67,-18.5 1352.04,-23.44 1353.08,-16.52"/>
</g>
<!-- Node17&#45;&gt;Node8 -->
<g id="edge25" class="edge">
<title>Node17&#45;&gt;Node8</title>
<path fill="none" stroke="midnightblue" d="M1264.06,-234.16C1271.38,-224.19 1281.98,-209.75 1291.45,-196.86"/>
<polygon fill="midnightblue" stroke="midnightblue" points="1294.36,-198.8 1297.46,-188.67 1288.72,-194.66 1294.36,-198.8"/>
</g>
<!-- Node17&#45;&gt;Node9 -->
<g id="edge32" class="edge">
<title>Node17&#45;&gt;Node9</title>
<path fill="none" stroke="midnightblue" d="M1237.73,-234.34C1222.45,-223.25 1199.86,-206.04 1182,-189 1162.85,-170.73 1166.78,-155.63 1143,-144 1006.86,-77.43 590.56,-188.25 462,-108 455.15,-103.73 433.64,-62.16 420.52,-35.91"/>
<polygon fill="midnightblue" stroke="midnightblue" points="423.54,-34.11 415.96,-26.71 417.27,-37.22 423.54,-34.11"/>
</g>
<!-- Node17&#45;&gt;Node11 -->
<g id="edge26" class="edge">
<title>Node17&#45;&gt;Node11</title>
<path fill="none" stroke="midnightblue" d="M1180.31,-239.22C1075.09,-228.84 877.26,-208.82 709,-189 671.07,-184.53 628.32,-178.95 595.84,-174.59"/>
<polygon fill="midnightblue" stroke="midnightblue" points="596.05,-171.08 585.67,-173.22 595.11,-178.02 596.05,-171.08"/>
</g>
<!-- Node17&#45;&gt;Node13 -->
<g id="edge31" class="edge">
<title>Node17&#45;&gt;Node13</title>
<path fill="none" stroke="midnightblue" d="M1329.8,-244.38C1370.84,-238.91 1418.61,-224.56 1445,-189 1456.92,-172.94 1457.89,-159.29 1445,-144 1352.28,-34.02 877.1,-17.44 732.08,-14.94"/>
<polygon fill="midnightblue" stroke="midnightblue" points="731.88,-11.44 721.82,-14.78 731.77,-18.44 731.88,-11.44"/>
</g>
<!-- Node17&#45;&gt;Node14 -->
<g id="edge28" class="edge">
<title>Node17&#45;&gt;Node14</title>
<path fill="none" stroke="midnightblue" d="M1222.19,-234.33C1185.1,-220.57 1124.63,-198.15 1084.1,-183.11"/>
<polygon fill="midnightblue" stroke="midnightblue" points="1085.1,-179.75 1074.5,-179.55 1082.66,-186.31 1085.1,-179.75"/>
</g>
<!-- Node17&#45;&gt;Node15 -->
<g id="edge27" class="edge">
<title>Node17&#45;&gt;Node15</title>
<path fill="none" stroke="midnightblue" d="M1183.67,-234.46C1098.17,-220.03 955.33,-195.92 866.41,-180.9"/>
<polygon fill="midnightblue" stroke="midnightblue" points="866.81,-177.42 856.37,-179.21 865.65,-184.33 866.81,-177.42"/>
</g>
<!-- Node17&#45;&gt;Node16 -->
<g id="edge34" class="edge">
<title>Node17&#45;&gt;Node16</title>
<path fill="none" stroke="midnightblue" d="M1180.34,-239.81C1130.43,-235.41 1063.3,-229.63 1004,-225 777.02,-207.28 714.62,-241.17 493,-189 487.09,-187.61 480.99,-185.63 475.13,-183.42"/>
<polygon fill="midnightblue" stroke="midnightblue" points="476.17,-180.07 465.59,-179.57 473.55,-186.56 476.17,-180.07"/>
</g>
<!-- Node18 -->
<g id="node18" class="node">
<title>Node18</title>
<g id="a_node18"><a xlink:title=" ">
<polygon fill="white" stroke="#bfbfbf" points="1530,-153.5 1530,-179.5 1630,-179.5 1630,-153.5 1530,-153.5"/>
<text text-anchor="middle" x="1580" y="-162.7" font-family="Source Sans Pro" font-size="16.00">stb_image.h</text>
</a>
</g>
</g>
<!-- Node17&#45;&gt;Node18 -->
<g id="edge30" class="edge">
<title>Node17&#45;&gt;Node18</title>
<path fill="none" stroke="midnightblue" d="M1318.49,-234.5C1371.63,-223.97 1449.27,-207.5 1516,-189 1522.68,-187.15 1529.69,-185.01 1536.51,-182.8"/>
<polygon fill="midnightblue" stroke="midnightblue" points="1537.93,-186.02 1546.33,-179.56 1535.74,-179.37 1537.93,-186.02"/>
</g>
<!-- Node19&#45;&gt;Node3 -->
<g id="edge36" class="edge">
<title>Node19&#45;&gt;Node3</title>
<path fill="none" stroke="midnightblue" d="M2307.49,-153.23C2296.59,-130.65 2269.92,-82.99 2231,-63 2152.16,-22.51 1519.02,-15.77 1352.83,-14.7"/>
<polygon fill="midnightblue" stroke="midnightblue" points="1352.59,-11.19 1342.57,-14.63 1352.55,-18.19 1352.59,-11.19"/>
</g>
<!-- Node19&#45;&gt;Node10 -->
<g id="edge37" class="edge">
<title>Node19&#45;&gt;Node10</title>
<path fill="none" stroke="midnightblue" d="M2270.93,-153.42C2220.75,-139 2137.11,-114.97 2084.9,-99.97"/>
<polygon fill="midnightblue" stroke="midnightblue" points="2085.79,-96.59 2075.21,-97.19 2083.85,-103.31 2085.79,-96.59"/>
</g>
<!-- Node20&#45;&gt;Node2 -->
<g id="edge54" class="edge">
<title>Node20&#45;&gt;Node2</title>
<path fill="none" stroke="midnightblue" d="M819.06,-323.11C1024.52,-311.67 1520.92,-275.64 1661,-189 1694.46,-168.31 1721.85,-130.73 1736.76,-107.27"/>
<polygon fill="midnightblue" stroke="midnightblue" points="1739.75,-109.1 1742.03,-98.75 1733.79,-105.42 1739.75,-109.1"/>
</g>
<!-- Node20&#45;&gt;Node3 -->
<g id="edge56" class="edge">
<title>Node20&#45;&gt;Node3</title>
<path fill="none" stroke="midnightblue" d="M718.34,-306.47C701.38,-269.75 673.62,-193.16 709,-144 775.74,-51.28 1149.69,-23.2 1273.32,-16.38"/>
<polygon fill="midnightblue" stroke="midnightblue" points="1273.68,-19.87 1283.48,-15.84 1273.31,-12.88 1273.68,-19.87"/>
</g>
<!-- Node20&#45;&gt;Node8 -->
<g id="edge53" class="edge">
<title>Node20&#45;&gt;Node8</title>
<path fill="none" stroke="midnightblue" d="M819.09,-311.35C873.09,-301.01 942.89,-286.47 1004,-270 1088.7,-247.18 1184.27,-214.36 1246.4,-192.05"/>
<polygon fill="midnightblue" stroke="midnightblue" points="1247.85,-195.24 1256.07,-188.56 1245.48,-188.66 1247.85,-195.24"/>
</g>
<!-- Node20&#45;&gt;Node16 -->
<g id="edge55" class="edge">
<title>Node20&#45;&gt;Node16</title>
<path fill="none" stroke="midnightblue" d="M694.48,-306.47C659.43,-285.31 603.43,-252.02 554,-225 527.8,-210.68 497.65,-195.39 475.08,-184.19"/>
<polygon fill="midnightblue" stroke="midnightblue" points="476.42,-180.94 465.91,-179.65 473.32,-187.22 476.42,-180.94"/>
</g>
<!-- Node21 -->
<g id="node21" class="node">
<title>Node21</title>
<g id="a_node21"><a xlink:href="_i_e_shader_8hpp.html" target="_top" xlink:title=" ">
<polygon fill="white" stroke="black" points="365,-225.5 365,-269.5 545,-269.5 545,-225.5 365,-225.5"/>
<text text-anchor="start" x="373" y="-252.7" font-family="Source Sans Pro" font-size="16.00">GraphicsModule/Shader</text>
<text text-anchor="middle" x="455" y="-234.7" font-family="Source Sans Pro" font-size="16.00">/IEShader.hpp</text>
</a>
</g>
</g>
<!-- Node20&#45;&gt;Node21 -->
<g id="edge39" class="edge">
<title>Node20&#45;&gt;Node21</title>
<path fill="none" stroke="midnightblue" d="M655.93,-306.43C619.55,-295.94 575.41,-283.22 537.79,-272.37"/>
<polygon fill="midnightblue" stroke="midnightblue" points="538.44,-268.92 527.86,-269.51 536.5,-275.64 538.44,-268.92"/>
</g>
<!-- Node21&#45;&gt;Node2 -->
<g id="edge41" class="edge">
<title>Node21&#45;&gt;Node2</title>
<path fill="none" stroke="midnightblue" d="M506.11,-225.38C577.23,-196.06 698.56,-146.33 709,-144 893.74,-102.81 1471.79,-90.53 1676.36,-87.43"/>
<polygon fill="midnightblue" stroke="midnightblue" points="1676.45,-90.93 1686.4,-87.28 1676.35,-83.93 1676.45,-90.93"/>
</g>
<!-- Node21&#45;&gt;Node3 -->
<g id="edge43" class="edge">
<title>Node21&#45;&gt;Node3</title>
<path fill="none" stroke="midnightblue" d="M420.1,-225.24C407.9,-215.81 395.61,-203.52 389,-189 380.72,-170.8 375.93,-159.14 389,-144 424.82,-102.51 579.41,-119.49 633,-108 704.81,-92.61 719.8,-76.46 792,-63 969.64,-29.88 1185.77,-18.95 1273.33,-15.72"/>
<polygon fill="midnightblue" stroke="midnightblue" points="1273.49,-19.22 1283.36,-15.36 1273.24,-12.22 1273.49,-19.22"/>
</g>
<!-- Node21&#45;&gt;Node9 -->
<g id="edge42" class="edge">
<title>Node21&#45;&gt;Node9</title>
<path fill="none" stroke="midnightblue" d="M396.4,-225.45C380.47,-216.73 365.12,-204.85 356,-189 326.52,-137.78 368.57,-68.67 393.64,-34.85"/>
<polygon fill="midnightblue" stroke="midnightblue" points="396.6,-36.74 399.89,-26.67 391.03,-32.49 396.6,-36.74"/>
</g>
<!-- Node21&#45;&gt;Node11 -->
<g id="edge40" class="edge">
<title>Node21&#45;&gt;Node11</title>
<path fill="none" stroke="midnightblue" d="M478.85,-225.33C492.5,-213.22 509.47,-198.15 522.67,-186.43"/>
<polygon fill="midnightblue" stroke="midnightblue" points="525.18,-188.88 530.34,-179.63 520.54,-183.65 525.18,-188.88"/>
</g>
<!-- Node21&#45;&gt;Node15 -->
<g id="edge52" class="edge">
<title>Node21&#45;&gt;Node15</title>
<path fill="none" stroke="midnightblue" d="M543.53,-225.43C601.34,-211.68 675.3,-194.08 726.46,-181.91"/>
<polygon fill="midnightblue" stroke="midnightblue" points="727.46,-185.27 736.38,-179.55 725.84,-178.46 727.46,-185.27"/>
</g>
<!-- Node21&#45;&gt;Node16 -->
<g id="edge44" class="edge">
<title>Node21&#45;&gt;Node16</title>
<path fill="none" stroke="midnightblue" d="M451.25,-225.33C449.28,-214.25 446.88,-200.69 444.9,-189.49"/>
<polygon fill="midnightblue" stroke="midnightblue" points="448.34,-188.86 443.15,-179.63 441.45,-190.08 448.34,-188.86"/>
</g>
<!-- Node22 -->
<g id="node22" class="node">
<title>Node22</title>
<g id="a_node22"><a xlink:href="_i_e_file_8hpp.html" target="_top" xlink:title=" ">
<polygon fill="white" stroke="black" points="89.5,-63.5 89.5,-107.5 266.5,-107.5 266.5,-63.5 89.5,-63.5"/>
<text text-anchor="start" x="97.5" y="-90.7" font-family="Source Sans Pro" font-size="16.00">Core/FileSystemModule</text>
<text text-anchor="middle" x="178" y="-72.7" font-family="Source Sans Pro" font-size="16.00">/IEFile.hpp</text>
</a>
</g>
</g>
<!-- Node21&#45;&gt;Node22 -->
<g id="edge45" class="edge">
<title>Node21&#45;&gt;Node22</title>
<path fill="none" stroke="midnightblue" d="M396.58,-225.49C371.73,-215.66 342.81,-203.03 318,-189 279.27,-167.1 238.62,-136.34 211.16,-114.24"/>
<polygon fill="midnightblue" stroke="midnightblue" points="213.05,-111.27 203.08,-107.68 208.64,-116.7 213.05,-111.27"/>
</g>
<!-- Node22&#45;&gt;Node3 -->
<g id="edge46" class="edge">
<title>Node22&#45;&gt;Node3</title>
<path fill="none" stroke="midnightblue" d="M266.82,-78.52C332.58,-74.13 424.37,-68.07 505,-63 799.8,-44.46 1155.2,-23.67 1272.96,-16.82"/>
<polygon fill="midnightblue" stroke="midnightblue" points="1273.5,-20.3 1283.28,-16.22 1273.1,-13.31 1273.5,-20.3"/>
</g>
<!-- Node22&#45;&gt;Node9 -->
<g id="edge47" class="edge">
<title>Node22&#45;&gt;Node9</title>
<path fill="none" stroke="midnightblue" d="M247.61,-63.5C288.61,-51.13 338.88,-35.96 372.53,-25.81"/>
<polygon fill="midnightblue" stroke="midnightblue" points="373.84,-29.07 382.41,-22.83 371.82,-22.36 373.84,-29.07"/>
</g>
<!-- Node23 -->
<g id="node23" class="node">
<title>Node23</title>
<g id="a_node23"><a xlink:title=" ">
<polygon fill="white" stroke="#bfbfbf" points="164.5,-0.5 164.5,-26.5 249.5,-26.5 249.5,-0.5 164.5,-0.5"/>
<text text-anchor="middle" x="207" y="-9.7" font-family="Source Sans Pro" font-size="16.00">filesystem</text>
</a>
</g>
</g>
<!-- Node22&#45;&gt;Node23 -->
<g id="edge48" class="edge">
<title>Node22&#45;&gt;Node23</title>
<path fill="none" stroke="midnightblue" d="M186.7,-63.5C190.3,-54.81 194.47,-44.75 198.09,-36.02"/>
<polygon fill="midnightblue" stroke="midnightblue" points="201.42,-37.11 202.02,-26.53 194.95,-34.43 201.42,-37.11"/>
</g>
<!-- Node24 -->
<g id="node24" class="node">
<title>Node24</title>
<g id="a_node24"><a xlink:title=" ">
<polygon fill="white" stroke="#bfbfbf" points="268,-0.5 268,-26.5 336,-26.5 336,-0.5 268,-0.5"/>
<text text-anchor="middle" x="302" y="-9.7" font-family="Source Sans Pro" font-size="16.00">fstream</text>
</a>
</g>
</g>
<!-- Node22&#45;&gt;Node24 -->
<g id="edge49" class="edge">
<title>Node22&#45;&gt;Node24</title>
<path fill="none" stroke="midnightblue" d="M215.2,-63.5C233.26,-53.3 254.68,-41.21 271.72,-31.59"/>
<polygon fill="midnightblue" stroke="midnightblue" points="273.7,-34.49 280.69,-26.53 270.26,-28.4 273.7,-34.49"/>
</g>
<!-- Node25 -->
<g id="node25" class="node">
<title>Node25</title>
<g id="a_node25"><a xlink:title=" ">
<polygon fill="white" stroke="#bfbfbf" points="0,-0.5 0,-26.5 52,-26.5 52,-0.5 0,-0.5"/>
<text text-anchor="middle" x="26" y="-9.7" font-family="Source Sans Pro" font-size="16.00">regex</text>
</a>
</g>
</g>
<!-- Node22&#45;&gt;Node25 -->
<g id="edge50" class="edge">
<title>Node22&#45;&gt;Node25</title>
<path fill="none" stroke="midnightblue" d="M132.39,-63.5C109.65,-53.02 82.55,-40.54 61.39,-30.8"/>
<polygon fill="midnightblue" stroke="midnightblue" points="62.67,-27.53 52.12,-26.53 59.74,-33.89 62.67,-27.53"/>
</g>
<!-- Node26 -->
<g id="node26" class="node">
<title>Node26</title>
<g id="a_node26"><a xlink:title=" ">
<polygon fill="white" stroke="#bfbfbf" points="70,-0.5 70,-26.5 146,-26.5 146,-0.5 70,-0.5"/>
<text text-anchor="middle" x="108" y="-9.7" font-family="Source Sans Pro" font-size="16.00">iostream</text>
</a>
</g>
</g>
<!-- Node22&#45;&gt;Node26 -->
<g id="edge51" class="edge">
<title>Node22&#45;&gt;Node26</title>
<path fill="none" stroke="midnightblue" d="M157,-63.5C147.56,-54.06 136.49,-42.99 127.27,-33.77"/>
<polygon fill="midnightblue" stroke="midnightblue" points="129.58,-31.13 120.03,-26.53 124.63,-36.08 129.58,-31.13"/>
</g>
<!-- Node27&#45;&gt;Node2 -->
<g id="edge60" class="edge">
<title>Node27&#45;&gt;Node2</title>
<path fill="none" stroke="midnightblue" d="M2087.84,-387.44C2099.25,-377.8 2110.88,-365.33 2117,-351 2124.85,-332.6 2126.35,-323.68 2117,-306 2054.03,-186.96 1896.11,-126.52 1809,-101.32"/>
<polygon fill="midnightblue" stroke="midnightblue" points="1809.83,-97.92 1799.26,-98.57 1807.93,-104.66 1809.83,-97.92"/>
</g>
<!-- Node27&#45;&gt;Node3 -->
<g id="edge58" class="edge">
<title>Node27&#45;&gt;Node3</title>
<path fill="none" stroke="midnightblue" d="M2126.4,-387.37C2145.81,-378.69 2165.54,-366.84 2180,-351 2212.66,-315.23 2217,-296.93 2217,-248.5 2217,-248.5 2217,-248.5 2217,-165.5 2217,-90.87 2153.85,-89.27 2084,-63 1948.19,-11.93 1491.21,-12.54 1352.96,-13.95"/>
<polygon fill="midnightblue" stroke="midnightblue" points="1352.77,-10.46 1342.81,-14.07 1352.85,-17.46 1352.77,-10.46"/>
</g>
<!-- Node27&#45;&gt;Node10 -->
<g id="edge59" class="edge">
<title>Node27&#45;&gt;Node10</title>
<path fill="none" stroke="midnightblue" d="M2114.77,-387.47C2130.62,-378.73 2145.93,-366.83 2155,-351 2200.72,-271.16 2203.64,-222.09 2155,-144 2139.68,-119.41 2110.43,-105.03 2085.01,-96.81"/>
<polygon fill="midnightblue" stroke="midnightblue" points="2085.71,-93.36 2075.13,-93.84 2083.7,-100.07 2085.71,-93.36"/>
</g>
<!-- Node28 -->
<g id="node28" class="node">
<title>Node28</title>
<g id="a_node28"><a xlink:href="_i_e_buffer_memory_barrier_8hpp.html" target="_top" xlink:title=" ">
<polygon fill="white" stroke="black" points="1871.5,-315.5 1871.5,-341.5 2074.5,-341.5 2074.5,-315.5 1871.5,-315.5"/>
<text text-anchor="middle" x="1973" y="-324.7" font-family="Source Sans Pro" font-size="16.00">IEBufferMemoryBarrier.hpp</text>
</a>
</g>
</g>
<!-- Node27&#45;&gt;Node28 -->
<g id="edge61" class="edge">
<title>Node27&#45;&gt;Node28</title>
<path fill="none" stroke="midnightblue" d="M2034.49,-387.33C2021.73,-375.33 2005.89,-360.44 1993.49,-348.77"/>
<polygon fill="midnightblue" stroke="midnightblue" points="1995.58,-345.93 1985.9,-341.63 1990.78,-351.03 1995.58,-345.93"/>
</g>
<!-- Node29 -->
<g id="node29" class="node">
<title>Node29</title>
<g id="a_node29"><a xlink:href="_i_e_image_memory_barrier_8hpp.html" target="_top" xlink:title=" ">
<polygon fill="white" stroke="black" points="1650.5,-315.5 1650.5,-341.5 1853.5,-341.5 1853.5,-315.5 1650.5,-315.5"/>
<text text-anchor="middle" x="1752" y="-324.7" font-family="Source Sans Pro" font-size="16.00">IEImageMemoryBarrier.hpp</text>
</a>
</g>
</g>
<!-- Node27&#45;&gt;Node29 -->
<g id="edge65" class="edge">
<title>Node27&#45;&gt;Node29</title>
<path fill="none" stroke="midnightblue" d="M1975.67,-387.43C1922.78,-373.74 1855.18,-356.22 1808.2,-344.06"/>
<polygon fill="midnightblue" stroke="midnightblue" points="1809.06,-340.67 1798.51,-341.55 1807.31,-347.44 1809.06,-340.67"/>
</g>
<!-- Node28&#45;&gt;Node2 -->
<g id="edge62" class="edge">
<title>Node28&#45;&gt;Node2</title>
<path fill="none" stroke="midnightblue" d="M1967.04,-315.46C1951.04,-284.08 1904.38,-198.42 1846,-144 1828.15,-127.37 1804.7,-113.3 1785.32,-103.25"/>
<polygon fill="midnightblue" stroke="midnightblue" points="1786.69,-100.02 1776.18,-98.64 1783.54,-106.27 1786.69,-100.02"/>
</g>
<!-- Node28&#45;&gt;Node7 -->
<g id="edge64" class="edge">
<title>Node28&#45;&gt;Node7</title>
<path fill="none" stroke="midnightblue" d="M1919.53,-315.48C1901.64,-311.88 1881.54,-308.28 1863,-306 1557.78,-268.41 1478.8,-291.18 1172,-270 1116.52,-266.17 1054.2,-260.81 1005.66,-256.4"/>
<polygon fill="midnightblue" stroke="midnightblue" points="1005.79,-252.9 995.52,-255.48 1005.16,-259.87 1005.79,-252.9"/>
</g>
<!-- Node28&#45;&gt;Node10 -->
<g id="edge63" class="edge">
<title>Node28&#45;&gt;Node10</title>
<path fill="none" stroke="midnightblue" d="M1984.42,-315.33C1994,-304.36 2007.18,-287.34 2014,-270 2035.65,-214.96 2038.57,-144.2 2038.51,-108.78"/>
<polygon fill="midnightblue" stroke="midnightblue" points="2042.01,-108.55 2038.4,-98.59 2035.01,-108.62 2042.01,-108.55"/>
</g>
<!-- Node29&#45;&gt;Node2 -->
<g id="edge67" class="edge">
<title>Node29&#45;&gt;Node2</title>
<path fill="none" stroke="midnightblue" d="M1776.61,-315.42C1793.37,-305.7 1814.22,-290.33 1824,-270 1848.28,-219.54 1848.78,-194.22 1824,-144 1815.5,-126.78 1799.1,-113.29 1783.8,-103.71"/>
<polygon fill="midnightblue" stroke="midnightblue" points="1785.38,-100.58 1774.98,-98.53 1781.83,-106.62 1785.38,-100.58"/>
</g>
<!-- Node29&#45;&gt;Node10 -->
<g id="edge66" class="edge">
<title>Node29&#45;&gt;Node10</title>
<path fill="none" stroke="midnightblue" d="M1806.54,-315.46C1853.82,-304.17 1917.73,-286.59 1938,-270 1991.13,-226.52 2020.35,-147.07 2031.98,-108.58"/>
<polygon fill="midnightblue" stroke="midnightblue" points="2035.37,-109.45 2034.8,-98.87 2028.65,-107.49 2035.37,-109.45"/>
</g>
<!-- Node29&#45;&gt;Node17 -->
<g id="edge68" class="edge">
<title>Node29&#45;&gt;Node17</title>
<path fill="none" stroke="midnightblue" d="M1676.25,-315.46C1585.66,-301.06 1434.46,-277.03 1339.98,-262.01"/>
<polygon fill="midnightblue" stroke="midnightblue" points="1340.31,-258.52 1329.88,-260.4 1339.21,-265.43 1340.31,-258.52"/>
</g>
<!-- Node30&#45;&gt;Node2 -->
<g id="edge71" class="edge">
<title>Node30&#45;&gt;Node2</title>
<path fill="none" stroke="midnightblue" d="M1581.88,-306.48C1658.22,-293.02 1742.34,-276.85 1748,-270 1786.23,-223.73 1768.73,-146.18 1756.82,-108.45"/>
<polygon fill="midnightblue" stroke="midnightblue" points="1760,-106.89 1753.52,-98.51 1753.35,-109.1 1760,-106.89"/>
</g>
<!-- Node30&#45;&gt;Node7 -->
<g id="edge72" class="edge">
<title>Node30&#45;&gt;Node7</title>
<path fill="none" stroke="midnightblue" d="M1320.39,-307.24C1317.57,-306.82 1314.77,-306.41 1312,-306 1206.33,-290.38 1084.55,-272.43 1005.57,-260.8"/>
<polygon fill="midnightblue" stroke="midnightblue" points="1006.08,-257.34 995.68,-259.34 1005.06,-264.26 1006.08,-257.34"/>
</g>
<!-- Node30&#45;&gt;Node10 -->
<g id="edge70" class="edge">
<title>Node30&#45;&gt;Node10</title>
<path fill="none" stroke="midnightblue" d="M1593.68,-310.25C1706.45,-295.68 1849.86,-276.22 1862,-270 1901.13,-249.94 1985.94,-149.98 2021.64,-106.62"/>
<polygon fill="midnightblue" stroke="midnightblue" points="2024.46,-108.69 2028.1,-98.74 2019.05,-104.26 2024.46,-108.69"/>
</g>
<!-- Node30&#45;&gt;Node17 -->
<g id="edge73" class="edge">
<title>Node30&#45;&gt;Node17</title>
<path fill="none" stroke="midnightblue" d="M1403.13,-306.43C1369.28,-293.19 1326.32,-276.39 1295.39,-264.3"/>
<polygon fill="midnightblue" stroke="midnightblue" points="1296.39,-260.93 1285.8,-260.55 1293.84,-267.45 1296.39,-260.93"/>
</g>
<!-- Node31&#45;&gt;Node10 -->
<g id="edge75" class="edge">
<title>Node31&#45;&gt;Node10</title>
<path fill="none" stroke="midnightblue" d="M1556.05,-406.38C1736.89,-402.04 2049.13,-389.06 2084,-351 2147.74,-281.42 2081.9,-156.47 2051.56,-107.24"/>
<polygon fill="midnightblue" stroke="midnightblue" points="2054.48,-105.3 2046.18,-98.7 2048.55,-109.03 2054.48,-105.3"/>
</g>
<!-- Node32 -->
<g id="node32" class="node">
<title>Node32</title>
<g id="a_node32"><a xlink:href="_i_e_framebuffer_8hpp.html" target="_top" xlink:title=" ">
<polygon fill="white" stroke="black" points="1091.5,-306.5 1091.5,-350.5 1302.5,-350.5 1302.5,-306.5 1091.5,-306.5"/>
<text text-anchor="start" x="1099.5" y="-333.7" font-family="Source Sans Pro" font-size="16.00">GraphicsModule/RenderPass</text>
<text text-anchor="middle" x="1197" y="-315.7" font-family="Source Sans Pro" font-size="16.00">/IEFramebuffer.hpp</text>
</a>
</g>
</g>
<!-- Node31&#45;&gt;Node32 -->
<g id="edge76" class="edge">
<title>Node31&#45;&gt;Node32</title>
<path fill="none" stroke="midnightblue" d="M1366.4,-387.43C1336.12,-377.08 1299.47,-364.54 1268.01,-353.79"/>
<polygon fill="midnightblue" stroke="midnightblue" points="1269.02,-350.43 1258.43,-350.51 1266.76,-357.06 1269.02,-350.43"/>
</g>
<!-- Node32&#45;&gt;Node2 -->
<g id="edge78" class="edge">
<title>Node32&#45;&gt;Node2</title>
<path fill="none" stroke="midnightblue" d="M1302.53,-307.37C1305.72,-306.89 1308.88,-306.43 1312,-306 1399.97,-293.83 1643.58,-328.94 1710,-270 1756.22,-228.99 1755.35,-147.98 1751.81,-108.79"/>
<polygon fill="midnightblue" stroke="midnightblue" points="1755.27,-108.27 1750.75,-98.69 1748.31,-109 1755.27,-108.27"/>
</g>
<!-- Node32&#45;&gt;Node3 -->
<g id="edge80" class="edge">
<title>Node32&#45;&gt;Node3</title>
<path fill="none" stroke="midnightblue" d="M1302.53,-307.35C1305.72,-306.87 1308.88,-306.42 1312,-306 1406.15,-293.25 1659.1,-322.92 1738,-270 1805.19,-224.94 1802.03,-186.64 1821,-108 1825.69,-88.56 1834.45,-77.8 1821,-63 1789.65,-28.51 1466.6,-17.95 1352.58,-15.28"/>
<polygon fill="midnightblue" stroke="midnightblue" points="1352.6,-11.78 1342.53,-15.06 1352.44,-18.78 1352.6,-11.78"/>
</g>
<!-- Node32&#45;&gt;Node9 -->
<g id="edge79" class="edge">
<title>Node32&#45;&gt;Node9</title>
<path fill="none" stroke="midnightblue" d="M1091.49,-321.12C867.19,-307.46 362.76,-276.1 356,-270 287.66,-208.35 306.3,-144 350,-63 356.62,-50.72 367.79,-40.41 378.71,-32.49"/>
<polygon fill="midnightblue" stroke="midnightblue" points="380.99,-35.17 387.31,-26.66 377.07,-29.37 380.99,-35.17"/>
</g>
<!-- Node32&#45;&gt;Node17 -->
<g id="edge77" class="edge">
<title>Node32&#45;&gt;Node17</title>
<path fill="none" stroke="midnightblue" d="M1212.54,-306.33C1221.1,-294.67 1231.66,-280.28 1240.11,-268.77"/>
<polygon fill="midnightblue" stroke="midnightblue" points="1243,-270.76 1246.1,-260.63 1237.36,-266.62 1243,-270.76"/>
</g>
</g>
</svg>
