<?xml version="1.0" encoding="UTF-8" standalone="no"?>
<!DOCTYPE svg PUBLIC "-//W3C//DTD SVG 1.1//EN"
 "http://www.w3.org/Graphics/SVG/1.1/DTD/svg11.dtd">
<!-- Generated by graphviz version 2.43.0 (0)
 -->
<!-- Title: Illumination&#45;Engine/src/Core/LogModule/IELogger.hpp Pages: 1 -->
<svg width="296pt" height="152pt"
 viewBox="0.00 0.00 296.00 152.00" xmlns="http://www.w3.org/2000/svg" xmlns:xlink="http://www.w3.org/1999/xlink">
<g id="graph0" class="graph" transform="scale(1 1) rotate(0) translate(4 148)">
<title>Illumination&#45;Engine/src/Core/LogModule/IELogger.hpp</title>
<polygon fill="white" stroke="transparent" points="-4,4 -4,-148 292,-148 292,4 -4,4"/>
<!-- Node1 -->
<g id="node1" class="node">
<title>Node1</title>
<g id="a_node1"><a xlink:title=" ">
<polygon fill="#bfbfbf" stroke="black" points="60,-81.5 60,-143.5 219,-143.5 219,-81.5 60,-81.5"/>
<text text-anchor="start" x="68" y="-126.7" font-family="Source Sans Pro" font-size="16.00">Illumination&#45;Engine</text>
<text text-anchor="start" x="68" y="-108.7" font-family="Source Sans Pro" font-size="16.00">/src/Core/LogModule</text>
<text text-anchor="middle" x="139.5" y="-90.7" font-family="Source Sans Pro" font-size="16.00">/IELogger.hpp</text>
</a>
</g>
</g>
<!-- Node2 -->
<g id="node2" class="node">
<title>Node2</title>
<g id="a_node2"><a xlink:title=" ">
<polygon fill="white" stroke="#bfbfbf" points="0,-9.5 0,-35.5 127,-35.5 127,-9.5 0,-9.5"/>
<text text-anchor="middle" x="63.5" y="-18.7" font-family="Source Sans Pro" font-size="16.00">spdlog/spdlog.h</text>
</a>
</g>
</g>
<!-- Node1&#45;&gt;Node2 -->
<g id="edge1" class="edge">
<title>Node1&#45;&gt;Node2</title>
<path fill="none" stroke="midnightblue" d="M113.35,-81.22C102.67,-68.85 90.61,-54.89 81.02,-43.79"/>
<polygon fill="midnightblue" stroke="midnightblue" points="83.43,-41.22 74.24,-35.94 78.13,-45.79 83.43,-41.22"/>
</g>
<!-- Node3 -->
<g id="node3" class="node">
<title>Node3</title>
<g id="a_node3"><a xlink:title=" ">
<polygon fill="white" stroke="#bfbfbf" points="145,-0.5 145,-44.5 288,-44.5 288,-0.5 145,-0.5"/>
<text text-anchor="start" x="153" y="-27.7" font-family="Source Sans Pro" font-size="16.00">spdlog/sinks/basic</text>
<text text-anchor="middle" x="216.5" y="-9.7" font-family="Source Sans Pro" font-size="16.00">_file_sink.h</text>
</a>
</g>
</g>
<!-- Node1&#45;&gt;Node3 -->
<g id="edge2" class="edge">
<title>Node1&#45;&gt;Node3</title>
<path fill="none" stroke="midnightblue" d="M166,-81.22C174.14,-71.91 183.08,-61.69 191.14,-52.48"/>
<polygon fill="midnightblue" stroke="midnightblue" points="194.01,-54.52 197.96,-44.68 188.74,-49.91 194.01,-54.52"/>
</g>
</g>
</svg>
