<?xml version="1.0" encoding="UTF-8" standalone="no"?>
<!DOCTYPE svg PUBLIC "-//W3C//DTD SVG 1.1//EN"
 "http://www.w3.org/Graphics/SVG/1.1/DTD/svg11.dtd">
<!-- Generated by graphviz version 2.43.0 (0)
 -->
<!-- Title: Illumination&#45;Engine/src/GraphicsModule/IERenderEngine.cpp Pages: 1 -->
<svg width="3770pt" height="710pt"
 viewBox="0.00 0.00 3769.99 710.00" xmlns="http://www.w3.org/2000/svg" xmlns:xlink="http://www.w3.org/1999/xlink">
<g id="graph0" class="graph" transform="scale(1 1) rotate(0) translate(4 706)">
<title>Illumination&#45;Engine/src/GraphicsModule/IERenderEngine.cpp</title>
<polygon fill="white" stroke="transparent" points="-4,4 -4,-706 3765.99,-706 3765.99,4 -4,4"/>
<!-- Node1 -->
<g id="node1" class="node">
<title>Node1</title>
<g id="a_node1"><a xlink:title=" ">
<polygon fill="#bfbfbf" stroke="black" points="2667.59,-639.5 2667.59,-701.5 2826.59,-701.5 2826.59,-639.5 2667.59,-639.5"/>
<text text-anchor="start" x="2675.59" y="-684.7" font-family="Source Sans Pro" font-size="16.00">Illumination&#45;Engine</text>
<text text-anchor="start" x="2675.59" y="-666.7" font-family="Source Sans Pro" font-size="16.00">/src/GraphicsModule</text>
<text text-anchor="middle" x="2747.09" y="-648.7" font-family="Source Sans Pro" font-size="16.00">/IERenderEngine.cpp</text>
</a>
</g>
</g>
<!-- Node2 -->
<g id="node2" class="node">
<title>Node2</title>
<g id="a_node2"><a xlink:href="_i_e_render_engine_8hpp.html" target="_top" xlink:title=" ">
<polygon fill="white" stroke="black" points="1421.59,-576.5 1421.59,-602.5 1576.59,-602.5 1576.59,-576.5 1421.59,-576.5"/>
<text text-anchor="middle" x="1499.09" y="-585.7" font-family="Source Sans Pro" font-size="16.00">IERenderEngine.hpp</text>
</a>
</g>
</g>
<!-- Node1&#45;&gt;Node2 -->
<g id="edge1" class="edge">
<title>Node1&#45;&gt;Node2</title>
<path fill="none" stroke="midnightblue" d="M2667.13,-664.44C2444.48,-650.34 1818.64,-610.73 1586.86,-596.06"/>
<polygon fill="midnightblue" stroke="midnightblue" points="1586.99,-592.56 1576.79,-595.42 1586.55,-599.54 1586.99,-592.56"/>
</g>
<!-- Node14 -->
<g id="node14" class="node">
<title>Node14</title>
<g id="a_node14"><a xlink:title=" ">
<polygon fill="white" stroke="#bfbfbf" points="1601.59,-135.5 1601.59,-161.5 1730.59,-161.5 1730.59,-135.5 1601.59,-135.5"/>
<text text-anchor="middle" x="1666.09" y="-144.7" font-family="Source Sans Pro" font-size="16.00">vk_mem_alloc.h</text>
</a>
</g>
</g>
<!-- Node1&#45;&gt;Node14 -->
<g id="edge156" class="edge">
<title>Node1&#45;&gt;Node14</title>
<path fill="none" stroke="midnightblue" d="M2667.27,-666.49C2430.92,-656.53 1751.09,-619.85 1751.09,-527.5 1751.09,-527.5 1751.09,-527.5 1751.09,-381.5 1751.09,-316.9 1705.86,-313.17 1685.09,-252 1676.02,-225.27 1670.95,-193.06 1668.37,-171.98"/>
<polygon fill="midnightblue" stroke="midnightblue" points="1671.82,-171.32 1667.21,-161.78 1664.86,-172.11 1671.82,-171.32"/>
</g>
<!-- Node15 -->
<g id="node15" class="node">
<title>Node15</title>
<g id="a_node15"><a xlink:title=" ">
<polygon fill="white" stroke="#bfbfbf" points="2381.59,-135.5 2381.59,-161.5 2464.59,-161.5 2464.59,-135.5 2381.59,-135.5"/>
<text text-anchor="middle" x="2423.09" y="-144.7" font-family="Source Sans Pro" font-size="16.00">GL/glew.h</text>
</a>
</g>
</g>
<!-- Node1&#45;&gt;Node15 -->
<g id="edge154" class="edge">
<title>Node1&#45;&gt;Node15</title>
<path fill="none" stroke="midnightblue" d="M2728.27,-639.29C2668.96,-544.11 2486.88,-251.88 2436.27,-170.65"/>
<polygon fill="midnightblue" stroke="midnightblue" points="2439.02,-168.45 2430.76,-161.81 2433.08,-172.15 2439.02,-168.45"/>
</g>
<!-- Node28 -->
<g id="node20" class="node">
<title>Node28</title>
<g id="a_node20"><a xlink:title=" ">
<polygon fill="white" stroke="#bfbfbf" points="3493.59,-63.5 3493.59,-89.5 3578.59,-89.5 3578.59,-63.5 3493.59,-63.5"/>
<text text-anchor="middle" x="3536.09" y="-72.7" font-family="Source Sans Pro" font-size="16.00">filesystem</text>
</a>
</g>
</g>
<!-- Node1&#45;&gt;Node28 -->
<g id="edge158" class="edge">
<title>Node1&#45;&gt;Node28</title>
<path fill="none" stroke="midnightblue" d="M2826.69,-667.53C2994.19,-662.56 3377.72,-646.66 3500.09,-603 3556.29,-582.95 3611.09,-587.16 3611.09,-527.5 3611.09,-527.5 3611.09,-527.5 3611.09,-228.5 3611.09,-182.25 3616.07,-166.14 3593.09,-126 3586.22,-113.99 3575.19,-103.57 3564.67,-95.51"/>
<polygon fill="midnightblue" stroke="midnightblue" points="3566.57,-92.57 3556.42,-89.56 3562.48,-98.25 3566.57,-92.57"/>
</g>
<!-- Node19 -->
<g id="node22" class="node">
<title>Node19</title>
<g id="a_node22"><a xlink:title=" ">
<polygon fill="white" stroke="#bfbfbf" points="1197.09,-126.5 1197.09,-170.5 1327.09,-170.5 1327.09,-126.5 1197.09,-126.5"/>
<text text-anchor="start" x="1205.09" y="-153.7" font-family="Source Sans Pro" font-size="16.00">../contrib/stb/stb</text>
<text text-anchor="middle" x="1262.09" y="-135.7" font-family="Source Sans Pro" font-size="16.00">_image.h</text>
</a>
</g>
</g>
<!-- Node1&#45;&gt;Node19 -->
<g id="edge157" class="edge">
<title>Node1&#45;&gt;Node19</title>
<path fill="none" stroke="midnightblue" d="M2667.46,-667.28C2324.78,-657.23 993.09,-612.68 993.09,-527.5 993.09,-527.5 993.09,-527.5 993.09,-381.5 993.09,-276.16 1112.84,-208.11 1192.55,-174.48"/>
<polygon fill="midnightblue" stroke="midnightblue" points="1194.15,-177.61 1202.06,-170.55 1191.48,-171.14 1194.15,-177.61"/>
</g>
<!-- Node37 -->
<g id="node25" class="node">
<title>Node37</title>
<g id="a_node25"><a xlink:href="_i_e_asset_8hpp.html" target="_top" xlink:title=" ">
<polygon fill="white" stroke="black" points="2993.09,-216.5 2993.09,-242.5 3217.09,-242.5 3217.09,-216.5 2993.09,-216.5"/>
<text text-anchor="middle" x="3105.09" y="-225.7" font-family="Source Sans Pro" font-size="16.00">Core/AssetModule/IEAsset.hpp</text>
</a>
</g>
</g>
<!-- Node1&#45;&gt;Node37 -->
<g id="edge150" class="edge">
<title>Node1&#45;&gt;Node37</title>
<path fill="none" stroke="midnightblue" d="M2826.99,-657.89C2944.23,-638.57 3149.09,-595.13 3149.09,-527.5 3149.09,-527.5 3149.09,-527.5 3149.09,-381.5 3149.09,-333.63 3128.45,-280.5 3115.45,-251.77"/>
<polygon fill="midnightblue" stroke="midnightblue" points="3118.6,-250.26 3111.21,-242.68 3112.26,-253.22 3118.6,-250.26"/>
</g>
<!-- Node46 -->
<g id="node35" class="node">
<title>Node46</title>
<g id="a_node35"><a xlink:href="_i_e_logger_8hpp.html" target="_top" xlink:title=" ">
<polygon fill="white" stroke="black" points="2965.59,-135.5 2965.59,-161.5 3188.59,-161.5 3188.59,-135.5 2965.59,-135.5"/>
<text text-anchor="middle" x="3077.09" y="-144.7" font-family="Source Sans Pro" font-size="16.00">Core/LogModule/IELogger.hpp</text>
</a>
</g>
</g>
<!-- Node1&#45;&gt;Node46 -->
<g id="edge153" class="edge">
<title>Node1&#45;&gt;Node46</title>
<path fill="none" stroke="midnightblue" d="M2826.83,-663.32C2967.51,-650.19 3245.09,-613.41 3245.09,-527.5 3245.09,-527.5 3245.09,-527.5 3245.09,-309.5 3245.09,-263.17 3255.69,-242.65 3226.09,-207 3208.97,-186.38 3183.54,-173.13 3158.52,-164.63"/>
<polygon fill="midnightblue" stroke="midnightblue" points="3159.55,-161.29 3148.96,-161.6 3157.43,-167.96 3159.55,-161.29"/>
</g>
<!-- Node48 -->
<g id="node37" class="node">
<title>Node48</title>
<g id="a_node37"><a xlink:title=" ">
<polygon fill="white" stroke="#bfbfbf" points="1033.09,-135.5 1033.09,-161.5 1141.09,-161.5 1141.09,-135.5 1033.09,-135.5"/>
<text text-anchor="middle" x="1087.09" y="-144.7" font-family="Source Sans Pro" font-size="16.00">GLFW/glfw3.h</text>
</a>
</g>
</g>
<!-- Node1&#45;&gt;Node48 -->
<g id="edge155" class="edge">
<title>Node1&#45;&gt;Node48</title>
<path fill="none" stroke="midnightblue" d="M2667.34,-669.6C2219.05,-669.66 33.09,-663 33.09,-527.5 33.09,-527.5 33.09,-527.5 33.09,-453.5 33.09,-292.37 82.45,-346.85 712.09,-207 820.02,-183.03 947.63,-165.77 1022.72,-156.73"/>
<polygon fill="midnightblue" stroke="midnightblue" points="1023.44,-160.17 1032.96,-155.51 1022.61,-153.22 1023.44,-160.17"/>
</g>
<!-- Node52 -->
<g id="node41" class="node">
<title>Node52</title>
<g id="a_node41"><a xlink:href="_i_e_renderable_8hpp.html" target="_top" xlink:title=" ">
<polygon fill="white" stroke="black" points="1792.59,-513.5 1792.59,-539.5 2013.59,-539.5 2013.59,-513.5 1792.59,-513.5"/>
<text text-anchor="middle" x="1903.09" y="-522.7" font-family="Source Sans Pro" font-size="16.00">Renderable/IERenderable.hpp</text>
</a>
</g>
</g>
<!-- Node1&#45;&gt;Node52 -->
<g id="edge149" class="edge">
<title>Node1&#45;&gt;Node52</title>
<path fill="none" stroke="midnightblue" d="M2667.31,-656.08C2506.82,-629.07 2146.47,-568.45 1984.58,-541.21"/>
<polygon fill="midnightblue" stroke="midnightblue" points="1985.11,-537.75 1974.67,-539.54 1983.95,-544.65 1985.11,-537.75"/>
</g>
<!-- Node64 -->
<g id="node50" class="node">
<title>Node64</title>
<g id="a_node50"><a xlink:href="_i_e_window_user_8hpp.html" target="_top" xlink:title=" ">
<polygon fill="white" stroke="black" points="3309.59,-576.5 3309.59,-602.5 3490.59,-602.5 3490.59,-576.5 3309.59,-576.5"/>
<text text-anchor="middle" x="3400.09" y="-585.7" font-family="Source Sans Pro" font-size="16.00">Core/IEWindowUser.hpp</text>
</a>
</g>
</g>
<!-- Node1&#45;&gt;Node64 -->
<g id="edge151" class="edge">
<title>Node1&#45;&gt;Node64</title>
<path fill="none" stroke="midnightblue" d="M2826.84,-659.85C2945.79,-645.46 3169.62,-618.38 3299.6,-602.66"/>
<polygon fill="midnightblue" stroke="midnightblue" points="3300.06,-606.13 3309.57,-601.45 3299.22,-599.18 3300.06,-606.13"/>
</g>
<!-- Node3 -->
<g id="node3" class="node">
<title>Node3</title>
<g id="a_node3"><a xlink:href="_i_e_command_pool_8hpp.html" target="_top" xlink:title=" ">
<polygon fill="white" stroke="black" points="61.09,-441.5 61.09,-467.5 341.09,-467.5 341.09,-441.5 61.09,-441.5"/>
<text text-anchor="middle" x="201.09" y="-450.7" font-family="Source Sans Pro" font-size="16.00">CommandBuffer/IECommandPool.hpp</text>
</a>
</g>
</g>
<!-- Node2&#45;&gt;Node3 -->
<g id="edge2" class="edge">
<title>Node2&#45;&gt;Node3</title>
<path fill="none" stroke="midnightblue" d="M1421.31,-586.89C1219.81,-582.36 684.33,-567.98 509.09,-540 413.08,-524.67 304.09,-490.69 244.95,-470.81"/>
<polygon fill="midnightblue" stroke="midnightblue" points="245.79,-467.4 235.19,-467.51 243.54,-474.03 245.79,-467.4"/>
</g>
<!-- Node8 -->
<g id="node8" class="node">
<title>Node8</title>
<g id="a_node8"><a xlink:title=" ">
<polygon fill="white" stroke="#bfbfbf" points="3075.59,-0.5 3075.59,-26.5 3130.59,-26.5 3130.59,-0.5 3075.59,-0.5"/>
<text text-anchor="middle" x="3103.09" y="-9.7" font-family="Source Sans Pro" font-size="16.00">string</text>
</a>
</g>
</g>
<!-- Node2&#45;&gt;Node8 -->
<g id="edge147" class="edge">
<title>Node2&#45;&gt;Node8</title>
<path fill="none" stroke="midnightblue" d="M1576.81,-585.53C1879.01,-573.49 2959.09,-525.55 2959.09,-455.5 2959.09,-455.5 2959.09,-455.5 2959.09,-381.5 2959.09,-300.7 2962.41,-266.81 2908.09,-207 2879.13,-175.11 2842.24,-206.67 2818.09,-171 2806.88,-154.44 2807.58,-143.01 2818.09,-126 2870.75,-40.8 3000.39,-20.62 3065.09,-15.9"/>
<polygon fill="midnightblue" stroke="midnightblue" points="3065.51,-19.38 3075.26,-15.25 3065.06,-12.39 3065.51,-19.38"/>
</g>
<!-- Node9 -->
<g id="node9" class="node">
<title>Node9</title>
<g id="a_node9"><a xlink:title=" ">
<polygon fill="white" stroke="#bfbfbf" points="1202.59,-0.5 1202.59,-26.5 1261.59,-26.5 1261.59,-0.5 1202.59,-0.5"/>
<text text-anchor="middle" x="1232.09" y="-9.7" font-family="Source Sans Pro" font-size="16.00">vector</text>
</a>
</g>
</g>
<!-- Node2&#45;&gt;Node9 -->
<g id="edge148" class="edge">
<title>Node2&#45;&gt;Node9</title>
<path fill="none" stroke="midnightblue" d="M1421.19,-588.84C1133.09,-589.28 139.98,-583.02 52.09,-477 -49.16,-354.86 12.16,-244.99 117.09,-126 165.73,-70.84 198.33,-79.08 270.09,-63 449.94,-22.69 1033.34,-15.84 1191.96,-14.71"/>
<polygon fill="midnightblue" stroke="midnightblue" points="1192.24,-18.21 1202.22,-14.65 1192.19,-11.21 1192.24,-18.21"/>
</g>
<!-- Node10 -->
<g id="node10" class="node">
<title>Node10</title>
<g id="a_node10"><a xlink:title=" ">
<polygon fill="white" stroke="#bfbfbf" points="957.59,-63.5 957.59,-89.5 1082.59,-89.5 1082.59,-63.5 957.59,-63.5"/>
<text text-anchor="middle" x="1020.09" y="-72.7" font-family="Source Sans Pro" font-size="16.00">vulkan/vulkan.h</text>
</a>
</g>
</g>
<!-- Node2&#45;&gt;Node10 -->
<g id="edge145" class="edge">
<title>Node2&#45;&gt;Node10</title>
<path fill="none" stroke="midnightblue" d="M1421.55,-582.51C1288.55,-570.09 1031.09,-535.69 1031.09,-455.5 1031.09,-455.5 1031.09,-455.5 1031.09,-381.5 1031.09,-330.63 1008.49,-314.53 965.09,-288 868.19,-228.76 814.99,-300.08 712.09,-252 663.34,-229.22 643.99,-220.16 622.09,-171 613.96,-152.73 608.83,-140.97 622.09,-126 643.24,-102.11 838.23,-87.57 947.21,-81.23"/>
<polygon fill="midnightblue" stroke="midnightblue" points="947.7,-84.71 957.48,-80.64 947.3,-77.72 947.7,-84.71"/>
</g>
<!-- Node11 -->
<g id="node11" class="node">
<title>Node11</title>
<g id="a_node11"><a xlink:href="_i_e_a_p_i_8hpp.html" target="_top" xlink:title=" ">
<polygon fill="white" stroke="black" points="2165.59,-135.5 2165.59,-161.5 2248.59,-161.5 2248.59,-135.5 2165.59,-135.5"/>
<text text-anchor="middle" x="2207.09" y="-144.7" font-family="Source Sans Pro" font-size="16.00">IEAPI.hpp</text>
</a>
</g>
</g>
<!-- Node2&#45;&gt;Node11 -->
<g id="edge78" class="edge">
<title>Node2&#45;&gt;Node11</title>
<path fill="none" stroke="midnightblue" d="M1514.36,-576.26C1567.4,-533.52 1747.83,-386.29 1885.09,-252 1904.43,-233.08 1902.46,-220.18 1926.09,-207 2001.92,-164.72 2033.2,-189.2 2118.09,-171 2130.23,-168.4 2143.25,-165.38 2155.49,-162.44"/>
<polygon fill="midnightblue" stroke="midnightblue" points="2156.64,-165.77 2165.54,-160.01 2155,-158.96 2156.64,-165.77"/>
</g>
<!-- Node36 -->
<g id="node24" class="node">
<title>Node36</title>
<g id="a_node24"><a xlink:title=" ">
<polygon fill="white" stroke="#bfbfbf" points="175.59,-369.5 175.59,-395.5 288.59,-395.5 288.59,-369.5 175.59,-369.5"/>
<text text-anchor="middle" x="232.09" y="-378.7" font-family="Source Sans Pro" font-size="16.00">VkBootstrap.h</text>
</a>
</g>
</g>
<!-- Node2&#45;&gt;Node36 -->
<g id="edge144" class="edge">
<title>Node2&#45;&gt;Node36</title>
<path fill="none" stroke="midnightblue" d="M1421.38,-588.67C1304.28,-587.5 1076.15,-579.71 887.09,-540 803.73,-522.49 776.59,-524.8 706.09,-477 684.19,-462.15 690.6,-444.17 667.09,-432 594.91,-394.63 383.62,-407.05 303.09,-396 301.62,-395.8 300.13,-395.59 298.63,-395.37"/>
<polygon fill="midnightblue" stroke="midnightblue" points="299.03,-391.89 288.61,-393.85 297.97,-398.81 299.03,-391.89"/>
</g>
<!-- Node2&#45;&gt;Node37 -->
<g id="edge56" class="edge">
<title>Node2&#45;&gt;Node37</title>
<path fill="none" stroke="midnightblue" d="M1576.65,-588.24C1872.32,-586.98 2915.11,-579.69 2973.09,-540 3072.94,-471.65 3097.63,-311.26 3103.41,-252.54"/>
<polygon fill="midnightblue" stroke="midnightblue" points="3106.91,-252.78 3104.31,-242.51 3099.94,-252.16 3106.91,-252.78"/>
</g>
<!-- Node39 -->
<g id="node27" class="node">
<title>Node39</title>
<g id="a_node27"><a xlink:title=" ">
<polygon fill="white" stroke="#bfbfbf" points="2827.09,-135.5 2827.09,-161.5 2909.09,-161.5 2909.09,-135.5 2827.09,-135.5"/>
<text text-anchor="middle" x="2868.09" y="-144.7" font-family="Source Sans Pro" font-size="16.00">algorithm</text>
</a>
</g>
</g>
<!-- Node2&#45;&gt;Node39 -->
<g id="edge146" class="edge">
<title>Node2&#45;&gt;Node39</title>
<path fill="none" stroke="midnightblue" d="M1576.94,-582.79C1679.41,-574.94 1865.1,-559.52 2023.09,-540 2433.61,-489.28 2686.48,-601.26 2908.09,-252 2924.9,-225.52 2903.69,-190.84 2886.32,-169.37"/>
<polygon fill="midnightblue" stroke="midnightblue" points="2888.84,-166.93 2879.7,-161.57 2883.5,-171.46 2888.84,-166.93"/>
</g>
<!-- Node24 -->
<g id="node29" class="node">
<title>Node24</title>
<g id="a_node29"><a xlink:href="_i_e_framebuffer_8hpp.html" target="_top" xlink:title=" ">
<polygon fill="white" stroke="black" points="744.59,-288.5 744.59,-332.5 955.59,-332.5 955.59,-288.5 744.59,-288.5"/>
<text text-anchor="start" x="752.59" y="-315.7" font-family="Source Sans Pro" font-size="16.00">GraphicsModule/RenderPass</text>
<text text-anchor="middle" x="850.09" y="-297.7" font-family="Source Sans Pro" font-size="16.00">/IEFramebuffer.hpp</text>
</a>
</g>
</g>
<!-- Node2&#45;&gt;Node24 -->
<g id="edge66" class="edge">
<title>Node2&#45;&gt;Node24</title>
<path fill="none" stroke="midnightblue" d="M1421.13,-588.26C1302.67,-586.64 1084.06,-578.34 1017.09,-540 1011.82,-536.98 915.02,-402.25 871.26,-341.12"/>
<polygon fill="midnightblue" stroke="midnightblue" points="873.87,-338.75 865.21,-332.66 868.18,-342.83 873.87,-338.75"/>
</g>
<!-- Node41 -->
<g id="node30" class="node">
<title>Node41</title>
<g id="a_node30"><a xlink:href="_i_e_render_pass_8hpp.html" target="_top" xlink:title=" ">
<polygon fill="white" stroke="black" points="715.59,-432.5 715.59,-476.5 926.59,-476.5 926.59,-432.5 715.59,-432.5"/>
<text text-anchor="start" x="723.59" y="-459.7" font-family="Source Sans Pro" font-size="16.00">GraphicsModule/RenderPass</text>
<text text-anchor="middle" x="821.09" y="-441.7" font-family="Source Sans Pro" font-size="16.00">/IERenderPass.hpp</text>
</a>
</g>
</g>
<!-- Node2&#45;&gt;Node41 -->
<g id="edge71" class="edge">
<title>Node2&#45;&gt;Node41</title>
<path fill="none" stroke="midnightblue" d="M1421.39,-586.73C1289.37,-582.89 1027.24,-571.46 941.09,-540 907.05,-527.57 873.79,-502.87 850.96,-483.37"/>
<polygon fill="midnightblue" stroke="midnightblue" points="853.17,-480.65 843.33,-476.72 848.57,-485.93 853.17,-480.65"/>
</g>
<!-- Node42 -->
<g id="node31" class="node">
<title>Node42</title>
<g id="a_node31"><a xlink:href="_i_e_camera_8hpp.html" target="_top" xlink:title=" ">
<polygon fill="white" stroke="black" points="518.59,-513.5 518.59,-539.5 631.59,-539.5 631.59,-513.5 518.59,-513.5"/>
<text text-anchor="middle" x="575.09" y="-522.7" font-family="Source Sans Pro" font-size="16.00">IECamera.hpp</text>
</a>
</g>
</g>
<!-- Node2&#45;&gt;Node42 -->
<g id="edge79" class="edge">
<title>Node2&#45;&gt;Node42</title>
<path fill="none" stroke="midnightblue" d="M1421.52,-585.71C1275.03,-580.05 947.71,-565.55 673.09,-540 662.93,-539.05 652.2,-537.87 641.72,-536.62"/>
<polygon fill="midnightblue" stroke="midnightblue" points="642.12,-533.14 631.76,-535.4 641.26,-540.09 642.12,-533.14"/>
</g>
<!-- Node45 -->
<g id="node34" class="node">
<title>Node45</title>
<g id="a_node34"><a xlink:href="_i_e_settings_8hpp.html" target="_top" xlink:title=" ">
<polygon fill="white" stroke="black" points="1935.09,-216.5 1935.09,-242.5 2049.09,-242.5 2049.09,-216.5 1935.09,-216.5"/>
<text text-anchor="middle" x="1992.09" y="-225.7" font-family="Source Sans Pro" font-size="16.00">IESettings.hpp</text>
</a>
</g>
</g>
<!-- Node2&#45;&gt;Node45 -->
<g id="edge83" class="edge">
<title>Node2&#45;&gt;Node45</title>
<path fill="none" stroke="midnightblue" d="M1499.09,-576.4C1499.09,-553.03 1499.09,-500.06 1499.09,-455.5 1499.09,-455.5 1499.09,-455.5 1499.09,-381.5 1499.09,-339 1487.4,-316.31 1519.09,-288 1580.04,-233.56 1804.26,-264.07 1885.09,-252 1898.89,-249.94 1913.6,-247.29 1927.56,-244.55"/>
<polygon fill="midnightblue" stroke="midnightblue" points="1928.45,-247.94 1937.57,-242.55 1927.08,-241.08 1928.45,-247.94"/>
</g>
<!-- Node50 -->
<g id="node39" class="node">
<title>Node50</title>
<g id="a_node39"><a xlink:href="_i_e_texture_8hpp.html" target="_top" xlink:title=" ">
<polygon fill="white" stroke="black" points="1527.59,-297.5 1527.59,-323.5 1684.59,-323.5 1684.59,-297.5 1527.59,-297.5"/>
<text text-anchor="middle" x="1606.09" y="-306.7" font-family="Source Sans Pro" font-size="16.00">Image/IETexture.hpp</text>
</a>
</g>
</g>
<!-- Node2&#45;&gt;Node50 -->
<g id="edge95" class="edge">
<title>Node2&#45;&gt;Node50</title>
<path fill="none" stroke="midnightblue" d="M1503.83,-576.24C1520.47,-533.16 1576.41,-388.33 1597.74,-333.12"/>
<polygon fill="midnightblue" stroke="midnightblue" points="1601.07,-334.21 1601.41,-323.62 1594.54,-331.69 1601.07,-334.21"/>
</g>
<!-- Node2&#45;&gt;Node52 -->
<g id="edge102" class="edge">
<title>Node2&#45;&gt;Node52</title>
<path fill="none" stroke="midnightblue" d="M1576.99,-576.74C1644.52,-566.54 1742.26,-551.78 1813.11,-541.09"/>
<polygon fill="midnightblue" stroke="midnightblue" points="1814,-544.49 1823.37,-539.54 1812.95,-537.57 1814,-544.49"/>
</g>
<!-- Node4 -->
<g id="node4" class="node">
<title>Node4</title>
<g id="a_node4"><a xlink:href="_i_e_command_buffer_8hpp.html" target="_top" xlink:title=" ">
<polygon fill="white" stroke="red" points="584.09,-369.5 584.09,-395.5 756.09,-395.5 756.09,-369.5 584.09,-369.5"/>
<text text-anchor="middle" x="670.09" y="-378.7" font-family="Source Sans Pro" font-size="16.00">IECommandBuffer.hpp</text>
</a>
</g>
</g>
<!-- Node3&#45;&gt;Node4 -->
<g id="edge3" class="edge">
<title>Node3&#45;&gt;Node4</title>
<path fill="none" stroke="midnightblue" d="M281.72,-441.47C364.47,-429.11 493.01,-409.93 579.3,-397.05"/>
<polygon fill="midnightblue" stroke="midnightblue" points="579.97,-400.49 589.34,-395.55 578.94,-393.57 579.97,-400.49"/>
</g>
<!-- Node3&#45;&gt;Node9 -->
<g id="edge55" class="edge">
<title>Node3&#45;&gt;Node9</title>
<path fill="none" stroke="midnightblue" d="M185.9,-441.18C159.77,-418.5 109.09,-367.31 109.09,-311.5 109.09,-311.5 109.09,-311.5 109.09,-228.5 109.09,-72.32 268.78,-105.41 419.09,-63 566.96,-21.28 1049.62,-15.44 1192.13,-14.63"/>
<polygon fill="midnightblue" stroke="midnightblue" points="1192.2,-18.13 1202.18,-14.58 1192.16,-11.13 1192.2,-18.13"/>
</g>
<!-- Node3&#45;&gt;Node10 -->
<g id="edge53" class="edge">
<title>Node3&#45;&gt;Node10</title>
<path fill="none" stroke="midnightblue" d="M189.33,-441.24C174.87,-424.59 153.67,-394.03 166.09,-369 245.48,-209.03 319.6,-190.58 486.09,-126 568.29,-94.12 821.22,-82.86 947.21,-79.17"/>
<polygon fill="midnightblue" stroke="midnightblue" points="947.63,-82.65 957.53,-78.87 947.43,-75.66 947.63,-82.65"/>
</g>
<!-- Node13 -->
<g id="node13" class="node">
<title>Node13</title>
<g id="a_node13"><a xlink:title=" ">
<polygon fill="white" stroke="#bfbfbf" points="276.59,-0.5 276.59,-26.5 339.59,-26.5 339.59,-0.5 276.59,-0.5"/>
<text text-anchor="middle" x="308.09" y="-9.7" font-family="Source Sans Pro" font-size="16.00">cstdint</text>
</a>
</g>
</g>
<!-- Node3&#45;&gt;Node13 -->
<g id="edge54" class="edge">
<title>Node3&#45;&gt;Node13</title>
<path fill="none" stroke="midnightblue" d="M165.12,-441.5C142.32,-432.26 113.71,-417.4 95.09,-396 43.53,-336.75 33.09,-309.05 33.09,-230.5 33.09,-230.5 33.09,-230.5 33.09,-147.5 33.09,-108.46 28.33,-89.4 57.09,-63 87.06,-35.5 202.79,-22.52 266.11,-17.36"/>
<polygon fill="midnightblue" stroke="midnightblue" points="266.48,-20.84 276.17,-16.57 265.93,-13.86 266.48,-20.84"/>
</g>
<!-- Node3&#45;&gt;Node36 -->
<g id="edge52" class="edge">
<title>Node3&#45;&gt;Node36</title>
<path fill="none" stroke="midnightblue" d="M206.49,-441.31C210.94,-431.27 217.35,-416.8 222.64,-404.85"/>
<polygon fill="midnightblue" stroke="midnightblue" points="225.91,-406.11 226.75,-395.55 219.5,-403.28 225.91,-406.11"/>
</g>
<!-- Node5 -->
<g id="node5" class="node">
<title>Node5</title>
<g id="a_node5"><a xlink:href="_i_e_buffer_8hpp.html" target="_top" xlink:title=" ">
<polygon fill="white" stroke="black" points="1693.59,-216.5 1693.59,-242.5 1840.59,-242.5 1840.59,-216.5 1693.59,-216.5"/>
<text text-anchor="middle" x="1767.09" y="-225.7" font-family="Source Sans Pro" font-size="16.00">Buffer/IEBuffer.hpp</text>
</a>
</g>
</g>
<!-- Node4&#45;&gt;Node5 -->
<g id="edge4" class="edge">
<title>Node4&#45;&gt;Node5</title>
<path fill="none" stroke="midnightblue" d="M743.51,-369.47C895.53,-344.57 1231.7,-289.56 1244.09,-288 1422.51,-265.53 1468.86,-275.88 1647.09,-252 1662.99,-249.87 1679.99,-247.12 1696.04,-244.3"/>
<polygon fill="midnightblue" stroke="midnightblue" points="1696.67,-247.74 1705.9,-242.54 1695.44,-240.85 1696.67,-247.74"/>
</g>
<!-- Node4&#45;&gt;Node9 -->
<g id="edge50" class="edge">
<title>Node4&#45;&gt;Node9</title>
<path fill="none" stroke="midnightblue" d="M616.24,-369.45C551.39,-351.38 451.09,-310.51 451.09,-230.5 451.09,-230.5 451.09,-230.5 451.09,-147.5 451.09,-63.13 539.78,-85.53 621.09,-63 729.35,-33.01 1074.62,-19.5 1192.33,-15.68"/>
<polygon fill="midnightblue" stroke="midnightblue" points="1192.47,-19.18 1202.36,-15.36 1192.25,-12.18 1192.47,-19.18"/>
</g>
<!-- Node4&#45;&gt;Node10 -->
<g id="edge51" class="edge">
<title>Node4&#45;&gt;Node10</title>
<path fill="none" stroke="midnightblue" d="M657.48,-369.24C617.96,-329.4 503.08,-201.75 571.09,-126 595.71,-98.58 826.37,-85.27 947.13,-80.14"/>
<polygon fill="midnightblue" stroke="midnightblue" points="947.56,-83.63 957.4,-79.71 947.27,-76.63 947.56,-83.63"/>
</g>
<!-- Node25 -->
<g id="node17" class="node">
<title>Node25</title>
<g id="a_node17"><a xlink:href="_i_e_pipeline_8hpp.html" target="_top" xlink:title=" ">
<polygon fill="white" stroke="black" points="1253.09,-288.5 1253.09,-332.5 1433.09,-332.5 1433.09,-288.5 1253.09,-288.5"/>
<text text-anchor="start" x="1261.09" y="-315.7" font-family="Source Sans Pro" font-size="16.00">GraphicsModule/Shader</text>
<text text-anchor="middle" x="1343.09" y="-297.7" font-family="Source Sans Pro" font-size="16.00">/IEPipeline.hpp</text>
</a>
</g>
</g>
<!-- Node4&#45;&gt;Node25 -->
<g id="edge22" class="edge">
<title>Node4&#45;&gt;Node25</title>
<path fill="none" stroke="midnightblue" d="M756.53,-373.55C855.01,-364.36 1020.74,-348.5 1163.09,-333 1188.92,-330.19 1216.8,-326.95 1242.73,-323.86"/>
<polygon fill="midnightblue" stroke="midnightblue" points="1243.43,-327.3 1252.95,-322.64 1242.6,-320.35 1243.43,-327.3"/>
</g>
<!-- Node18 -->
<g id="node21" class="node">
<title>Node18</title>
<g id="a_node21"><a xlink:href="_i_e_image_8hpp.html" target="_top" xlink:title=" ">
<polygon fill="white" stroke="black" points="1488.59,-216.5 1488.59,-242.5 1637.59,-242.5 1637.59,-216.5 1488.59,-216.5"/>
<text text-anchor="middle" x="1563.09" y="-225.7" font-family="Source Sans Pro" font-size="16.00">Image/IEImage.hpp</text>
</a>
</g>
</g>
<!-- Node4&#45;&gt;Node18 -->
<g id="edge38" class="edge">
<title>Node4&#45;&gt;Node18</title>
<path fill="none" stroke="midnightblue" d="M674.56,-369.42C682.99,-348.61 703.37,-306.42 736.09,-288 799.61,-252.24 1280.57,-237.07 1478.45,-232.29"/>
<polygon fill="midnightblue" stroke="midnightblue" points="1478.6,-235.79 1488.51,-232.05 1478.43,-228.79 1478.6,-235.79"/>
</g>
<!-- Node35 -->
<g id="node23" class="node">
<title>Node35</title>
<g id="a_node23"><a xlink:title=" ">
<polygon fill="white" stroke="#bfbfbf" points="631.09,-135.5 631.09,-161.5 695.09,-161.5 695.09,-135.5 631.09,-135.5"/>
<text text-anchor="middle" x="663.09" y="-144.7" font-family="Source Sans Pro" font-size="16.00">variant</text>
</a>
</g>
</g>
<!-- Node4&#45;&gt;Node35 -->
<g id="edge49" class="edge">
<title>Node4&#45;&gt;Node35</title>
<path fill="none" stroke="midnightblue" d="M669.73,-369.35C668.61,-332.24 665.22,-219.93 663.76,-171.79"/>
<polygon fill="midnightblue" stroke="midnightblue" points="667.26,-171.42 663.45,-161.53 660.26,-171.63 667.26,-171.42"/>
</g>
<!-- Node6 -->
<g id="node6" class="node">
<title>Node6</title>
<g id="a_node6"><a xlink:href="_i_e_dependency_8hpp.html" target="_top" xlink:title=" ">
<polygon fill="white" stroke="black" points="1863.59,-126.5 1863.59,-170.5 2108.59,-170.5 2108.59,-126.5 1863.59,-126.5"/>
<text text-anchor="start" x="1871.59" y="-153.7" font-family="Source Sans Pro" font-size="16.00">GraphicsModule/CommandBuffer</text>
<text text-anchor="middle" x="1986.09" y="-135.7" font-family="Source Sans Pro" font-size="16.00">/IEDependency.hpp</text>
</a>
</g>
</g>
<!-- Node5&#45;&gt;Node6 -->
<g id="edge5" class="edge">
<title>Node5&#45;&gt;Node6</title>
<path fill="none" stroke="midnightblue" d="M1800.83,-216.33C1831.91,-205.12 1878.97,-188.14 1917.87,-174.11"/>
<polygon fill="midnightblue" stroke="midnightblue" points="1919.36,-177.29 1927.58,-170.61 1916.98,-170.71 1919.36,-177.29"/>
</g>
<!-- Node5&#45;&gt;Node9 -->
<g id="edge21" class="edge">
<title>Node5&#45;&gt;Node9</title>
<path fill="none" stroke="midnightblue" d="M1780.36,-216.27C1790.98,-205.53 1805.04,-188.86 1811.09,-171 1826.49,-125.54 1843.59,-98.33 1811.09,-63 1774.68,-23.41 1397.04,-16.12 1272.03,-14.79"/>
<polygon fill="midnightblue" stroke="midnightblue" points="1271.8,-11.29 1261.76,-14.69 1271.73,-18.29 1271.8,-11.29"/>
</g>
<!-- Node5&#45;&gt;Node10 -->
<g id="edge18" class="edge">
<title>Node5&#45;&gt;Node10</title>
<path fill="none" stroke="midnightblue" d="M1768,-216.36C1768.88,-194.42 1767.19,-148.38 1740.09,-126 1690.99,-85.45 1265.7,-78.72 1092.76,-77.66"/>
<polygon fill="midnightblue" stroke="midnightblue" points="1092.75,-74.16 1082.73,-77.61 1092.71,-81.16 1092.75,-74.16"/>
</g>
<!-- Node5&#45;&gt;Node11 -->
<g id="edge10" class="edge">
<title>Node5&#45;&gt;Node11</title>
<path fill="none" stroke="midnightblue" d="M1836.72,-216.49C1855.05,-213.36 1874.81,-210.02 1893.09,-207 1993.01,-190.48 2018.8,-190.91 2118.09,-171 2130.27,-168.56 2143.3,-165.61 2155.53,-162.68"/>
<polygon fill="midnightblue" stroke="midnightblue" points="2156.69,-166 2165.59,-160.24 2155.04,-159.2 2156.69,-166"/>
</g>
<!-- Node5&#45;&gt;Node13 -->
<g id="edge19" class="edge">
<title>Node5&#45;&gt;Node13</title>
<path fill="none" stroke="midnightblue" d="M1771.47,-216.32C1778.22,-195.13 1788.22,-151.33 1766.09,-126 1638.15,20.46 1526.67,-81.62 1333.09,-63 952.43,-26.39 489.47,-17.08 349.87,-15.02"/>
<polygon fill="midnightblue" stroke="midnightblue" points="349.68,-11.52 339.63,-14.88 349.58,-18.52 349.68,-11.52"/>
</g>
<!-- Node5&#45;&gt;Node14 -->
<g id="edge16" class="edge">
<title>Node5&#45;&gt;Node14</title>
<path fill="none" stroke="midnightblue" d="M1751.31,-216.16C1734.78,-203.23 1708.64,-182.78 1689.66,-167.94"/>
<polygon fill="midnightblue" stroke="midnightblue" points="1691.8,-165.16 1681.76,-161.76 1687.48,-170.67 1691.8,-165.16"/>
</g>
<!-- Node5&#45;&gt;Node15 -->
<g id="edge17" class="edge">
<title>Node5&#45;&gt;Node15</title>
<path fill="none" stroke="midnightblue" d="M1840.66,-218.14C1867.52,-214.47 1898.16,-210.4 1926.09,-207 2073.42,-189.05 2110.72,-188.59 2258.09,-171 2296.01,-166.47 2338.77,-160.89 2371.25,-156.55"/>
<polygon fill="midnightblue" stroke="midnightblue" points="2371.97,-159.98 2381.42,-155.18 2371.04,-153.04 2371.97,-159.98"/>
</g>
<!-- Node16 -->
<g id="node16" class="node">
<title>Node16</title>
<g id="a_node16"><a xlink:title=" ">
<polygon fill="white" stroke="#bfbfbf" points="1345.09,-135.5 1345.09,-161.5 1431.09,-161.5 1431.09,-135.5 1345.09,-135.5"/>
<text text-anchor="middle" x="1388.09" y="-144.7" font-family="Source Sans Pro" font-size="16.00">functional</text>
</a>
</g>
</g>
<!-- Node5&#45;&gt;Node16 -->
<g id="edge20" class="edge">
<title>Node5&#45;&gt;Node16</title>
<path fill="none" stroke="midnightblue" d="M1709.12,-216.42C1636.19,-201.21 1511.97,-175.32 1441.34,-160.6"/>
<polygon fill="midnightblue" stroke="midnightblue" points="1441.83,-157.13 1431.32,-158.51 1440.4,-163.98 1441.83,-157.13"/>
</g>
<!-- Node7 -->
<g id="node7" class="node">
<title>Node7</title>
<g id="a_node7"><a xlink:title=" ">
<polygon fill="white" stroke="#bfbfbf" points="3158.09,-63.5 3158.09,-89.5 3232.09,-89.5 3232.09,-63.5 3158.09,-63.5"/>
<text text-anchor="middle" x="3195.09" y="-72.7" font-family="Source Sans Pro" font-size="16.00">memory</text>
</a>
</g>
</g>
<!-- Node6&#45;&gt;Node7 -->
<g id="edge6" class="edge">
<title>Node6&#45;&gt;Node7</title>
<path fill="none" stroke="midnightblue" d="M2108.79,-130.78C2125.01,-128.95 2141.44,-127.29 2157.09,-126 2568.02,-92.25 2672.96,-121.09 3084.09,-90 3105.09,-88.41 3128.24,-85.92 3147.94,-83.58"/>
<polygon fill="midnightblue" stroke="midnightblue" points="3148.4,-87.05 3157.9,-82.38 3147.56,-80.1 3148.4,-87.05"/>
</g>
<!-- Node6&#45;&gt;Node8 -->
<g id="edge7" class="edge">
<title>Node6&#45;&gt;Node8</title>
<path fill="none" stroke="midnightblue" d="M2015.64,-126.38C2045.99,-105.99 2095.39,-76.31 2143.09,-63 2321.06,-13.34 2909.42,-13.3 3065.05,-14.2"/>
<polygon fill="midnightblue" stroke="midnightblue" points="3065.47,-17.7 3075.5,-14.26 3065.52,-10.7 3065.47,-17.7"/>
</g>
<!-- Node6&#45;&gt;Node9 -->
<g id="edge8" class="edge">
<title>Node6&#45;&gt;Node9</title>
<path fill="none" stroke="midnightblue" d="M1960.18,-126.24C1933.95,-106.05 1891.33,-76.79 1849.09,-63 1741.14,-27.76 1390.83,-17.65 1271.97,-15.19"/>
<polygon fill="midnightblue" stroke="midnightblue" points="1271.92,-11.69 1261.85,-14.99 1271.78,-18.69 1271.92,-11.69"/>
</g>
<!-- Node6&#45;&gt;Node10 -->
<g id="edge9" class="edge">
<title>Node6&#45;&gt;Node10</title>
<path fill="none" stroke="midnightblue" d="M1863.39,-134.35C1833.84,-131.39 1802.35,-128.42 1773.09,-126 1523.7,-105.39 1227.23,-88.53 1092.8,-81.3"/>
<polygon fill="midnightblue" stroke="midnightblue" points="1092.8,-77.8 1082.62,-80.76 1092.42,-84.79 1092.8,-77.8"/>
</g>
<!-- Node11&#45;&gt;Node8 -->
<g id="edge15" class="edge">
<title>Node11&#45;&gt;Node8</title>
<path fill="none" stroke="midnightblue" d="M2220.88,-135.22C2243.62,-115.82 2291.25,-78.66 2339.09,-63 2476.21,-18.11 2930.3,-14.48 3065.07,-14.41"/>
<polygon fill="midnightblue" stroke="midnightblue" points="3065.3,-17.91 3075.3,-14.41 3065.3,-10.91 3065.3,-17.91"/>
</g>
<!-- Node12 -->
<g id="node12" class="node">
<title>Node12</title>
<g id="a_node12"><a xlink:href="_i_e_version_8hpp.html" target="_top" xlink:title=" ">
<polygon fill="white" stroke="black" points="2152.09,-63.5 2152.09,-89.5 2262.09,-89.5 2262.09,-63.5 2152.09,-63.5"/>
<text text-anchor="middle" x="2207.09" y="-72.7" font-family="Source Sans Pro" font-size="16.00">IEVersion.hpp</text>
</a>
</g>
</g>
<!-- Node11&#45;&gt;Node12 -->
<g id="edge11" class="edge">
<title>Node11&#45;&gt;Node12</title>
<path fill="none" stroke="midnightblue" d="M2207.09,-135.31C2207.09,-125.47 2207.09,-111.38 2207.09,-99.57"/>
<polygon fill="midnightblue" stroke="midnightblue" points="2210.59,-99.55 2207.09,-89.55 2203.59,-99.55 2210.59,-99.55"/>
</g>
<!-- Node12&#45;&gt;Node8 -->
<g id="edge13" class="edge">
<title>Node12&#45;&gt;Node8</title>
<path fill="none" stroke="midnightblue" d="M2262.14,-66.4C2271.13,-65.12 2280.36,-63.92 2289.09,-63 2587.05,-31.48 2948.7,-18.93 3065.08,-15.52"/>
<polygon fill="midnightblue" stroke="midnightblue" points="3065.36,-19.02 3075.26,-15.23 3065.16,-12.02 3065.36,-19.02"/>
</g>
<!-- Node12&#45;&gt;Node9 -->
<g id="edge14" class="edge">
<title>Node12&#45;&gt;Node9</title>
<path fill="none" stroke="midnightblue" d="M2151.88,-72.05C1975.04,-60.98 1425.34,-26.59 1272.11,-17"/>
<polygon fill="midnightblue" stroke="midnightblue" points="1271.97,-13.49 1261.77,-16.36 1271.53,-20.47 1271.97,-13.49"/>
</g>
<!-- Node12&#45;&gt;Node13 -->
<g id="edge12" class="edge">
<title>Node12&#45;&gt;Node13</title>
<path fill="none" stroke="midnightblue" d="M2152.05,-73.73C1870.81,-64.7 597.78,-23.81 349.97,-15.85"/>
<polygon fill="midnightblue" stroke="midnightblue" points="350.04,-12.35 339.93,-15.52 349.82,-19.34 350.04,-12.35"/>
</g>
<!-- Node25&#45;&gt;Node6 -->
<g id="edge23" class="edge">
<title>Node25&#45;&gt;Node6</title>
<path fill="none" stroke="midnightblue" d="M1433.14,-295.15C1450.36,-292.6 1468.27,-290.1 1485.09,-288 1565.97,-277.9 1776.82,-287.69 1850.09,-252 1874.96,-239.89 1871.6,-224.41 1893.09,-207 1907.02,-195.71 1923.34,-184.93 1938.38,-175.81"/>
<polygon fill="midnightblue" stroke="midnightblue" points="1940.25,-178.76 1947.06,-170.64 1936.67,-172.75 1940.25,-178.76"/>
</g>
<!-- Node25&#45;&gt;Node9 -->
<g id="edge37" class="edge">
<title>Node25&#45;&gt;Node9</title>
<path fill="none" stroke="midnightblue" d="M1253.01,-299.77C1179.42,-290.39 1082.48,-274.32 1050.09,-252 980.24,-203.84 972.44,-171.57 949.09,-90 945.79,-78.46 941.36,-72.17 949.09,-63 979.73,-26.66 1121.78,-17.55 1192.24,-15.26"/>
<polygon fill="midnightblue" stroke="midnightblue" points="1192.6,-18.75 1202.5,-14.96 1192.4,-11.76 1192.6,-18.75"/>
</g>
<!-- Node25&#45;&gt;Node10 -->
<g id="edge35" class="edge">
<title>Node25&#45;&gt;Node10</title>
<path fill="none" stroke="midnightblue" d="M1257.63,-288.38C1224.87,-279 1187.58,-266.72 1155.09,-252 1092.74,-223.76 1058.69,-230.07 1024.09,-171 1011.41,-149.35 1012.57,-119.8 1015.49,-99.76"/>
<polygon fill="midnightblue" stroke="midnightblue" points="1018.97,-100.16 1017.22,-89.71 1012.07,-98.98 1018.97,-100.16"/>
</g>
<!-- Node25&#45;&gt;Node16 -->
<g id="edge36" class="edge">
<title>Node25&#45;&gt;Node16</title>
<path fill="none" stroke="midnightblue" d="M1349.07,-288.25C1357.62,-257.84 1373.28,-202.17 1381.93,-171.4"/>
<polygon fill="midnightblue" stroke="midnightblue" points="1385.34,-172.21 1384.68,-161.63 1378.6,-170.31 1385.34,-172.21"/>
</g>
<!-- Node26 -->
<g id="node18" class="node">
<title>Node26</title>
<g id="a_node18"><a xlink:href="_i_e_shader_8hpp.html" target="_top" xlink:title=" ">
<polygon fill="white" stroke="black" points="2067.09,-207.5 2067.09,-251.5 2247.09,-251.5 2247.09,-207.5 2067.09,-207.5"/>
<text text-anchor="start" x="2075.09" y="-234.7" font-family="Source Sans Pro" font-size="16.00">GraphicsModule/Shader</text>
<text text-anchor="middle" x="2157.09" y="-216.7" font-family="Source Sans Pro" font-size="16.00">/IEShader.hpp</text>
</a>
</g>
</g>
<!-- Node25&#45;&gt;Node26 -->
<g id="edge24" class="edge">
<title>Node25&#45;&gt;Node26</title>
<path fill="none" stroke="midnightblue" d="M1433.43,-297.5C1460.9,-294.11 1491.2,-290.63 1519.09,-288 1754.85,-265.74 1818.63,-285.02 2057.07,-252.04"/>
<polygon fill="midnightblue" stroke="midnightblue" points="2057.67,-255.49 2067.09,-250.64 2056.7,-248.56 2057.67,-255.49"/>
</g>
<!-- Node26&#45;&gt;Node8 -->
<g id="edge32" class="edge">
<title>Node26&#45;&gt;Node8</title>
<path fill="none" stroke="midnightblue" d="M2247.16,-212.69C2262.77,-210.43 2278.87,-208.4 2294.09,-207 2365.98,-200.39 3542.76,-222.75 3593.09,-171 3602.89,-160.93 3593.6,-68.63 3588.09,-63 3556.96,-31.23 3249.83,-18.93 3141.04,-15.55"/>
<polygon fill="midnightblue" stroke="midnightblue" points="3140.96,-12.05 3130.85,-15.24 3140.74,-19.04 3140.96,-12.05"/>
</g>
<!-- Node26&#45;&gt;Node9 -->
<g id="edge33" class="edge">
<title>Node26&#45;&gt;Node9</title>
<path fill="none" stroke="midnightblue" d="M2247.24,-209.65C2251.92,-208.74 2256.56,-207.85 2261.09,-207 2360.63,-188.31 2534.16,-207.54 2474.09,-126 2418.06,-49.94 2364.14,-79.33 2271.09,-63 2073.78,-28.36 1438.01,-17.33 1272.03,-15.01"/>
<polygon fill="midnightblue" stroke="midnightblue" points="1271.83,-11.51 1261.79,-14.87 1271.74,-18.51 1271.83,-11.51"/>
</g>
<!-- Node26&#45;&gt;Node10 -->
<g id="edge26" class="edge">
<title>Node26&#45;&gt;Node10</title>
<path fill="none" stroke="midnightblue" d="M2217.38,-207.41C2233.43,-198.73 2248.86,-186.87 2258.09,-171 2268.14,-153.71 2271.95,-140.42 2258.09,-126 2217.56,-83.85 1352.51,-78.31 1093.03,-77.6"/>
<polygon fill="midnightblue" stroke="midnightblue" points="1092.97,-74.1 1082.96,-77.57 1092.95,-81.1 1092.97,-74.1"/>
</g>
<!-- Node26&#45;&gt;Node11 -->
<g id="edge25" class="edge">
<title>Node26&#45;&gt;Node11</title>
<path fill="none" stroke="midnightblue" d="M2170.49,-207.33C2177.8,-195.79 2186.8,-181.57 2194.05,-170.11"/>
<polygon fill="midnightblue" stroke="midnightblue" points="2197.03,-171.95 2199.42,-161.63 2191.11,-168.21 2197.03,-171.95"/>
</g>
<!-- Node26&#45;&gt;Node15 -->
<g id="edge34" class="edge">
<title>Node26&#45;&gt;Node15</title>
<path fill="none" stroke="midnightblue" d="M2241.46,-207.45C2280.02,-197.3 2326.15,-184.43 2367.09,-171 2372.47,-169.24 2378.09,-167.25 2383.61,-165.22"/>
<polygon fill="midnightblue" stroke="midnightblue" points="2385.23,-168.35 2393.35,-161.55 2382.76,-161.8 2385.23,-168.35"/>
</g>
<!-- Node26&#45;&gt;Node16 -->
<g id="edge31" class="edge">
<title>Node26&#45;&gt;Node16</title>
<path fill="none" stroke="midnightblue" d="M2067.08,-208.41C2064.05,-207.9 2061.05,-207.43 2058.09,-207 1853,-176.93 1799.52,-189.81 1593.09,-171 1541.51,-166.3 1482.73,-160.04 1441.37,-155.49"/>
<polygon fill="midnightblue" stroke="midnightblue" points="1441.58,-151.99 1431.25,-154.37 1440.81,-158.95 1441.58,-151.99"/>
</g>
<!-- Node27 -->
<g id="node19" class="node">
<title>Node27</title>
<g id="a_node19"><a xlink:href="_i_e_file_8hpp.html" target="_top" xlink:title=" ">
<polygon fill="white" stroke="red" points="3406.59,-126.5 3406.59,-170.5 3583.59,-170.5 3583.59,-126.5 3406.59,-126.5"/>
<text text-anchor="start" x="3414.59" y="-153.7" font-family="Source Sans Pro" font-size="16.00">Core/FileSystemModule</text>
<text text-anchor="middle" x="3495.09" y="-135.7" font-family="Source Sans Pro" font-size="16.00">/IEFile.hpp</text>
</a>
</g>
</g>
<!-- Node26&#45;&gt;Node27 -->
<g id="edge27" class="edge">
<title>Node26&#45;&gt;Node27</title>
<path fill="none" stroke="midnightblue" d="M2247.17,-212.76C2262.77,-210.5 2278.87,-208.45 2294.09,-207 2766.02,-162.17 2888.22,-216.37 3360.09,-171 3371.81,-169.87 3384.06,-168.38 3396.19,-166.69"/>
<polygon fill="midnightblue" stroke="midnightblue" points="3396.93,-170.12 3406.34,-165.24 3395.94,-163.19 3396.93,-170.12"/>
</g>
<!-- Node27&#45;&gt;Node8 -->
<g id="edge29" class="edge">
<title>Node27&#45;&gt;Node8</title>
<path fill="none" stroke="midnightblue" d="M3471.7,-126.27C3448.78,-106.69 3412.02,-78.39 3375.09,-63 3296.02,-30.04 3194.9,-19.46 3140.97,-16.08"/>
<polygon fill="midnightblue" stroke="midnightblue" points="3141.02,-12.58 3130.83,-15.49 3140.62,-19.57 3141.02,-12.58"/>
</g>
<!-- Node27&#45;&gt;Node9 -->
<g id="edge30" class="edge">
<title>Node27&#45;&gt;Node9</title>
<path fill="none" stroke="midnightblue" d="M3451.76,-126.32C3407.18,-105.73 3335.1,-75.75 3269.09,-63 3066.34,-23.84 1538.71,-15.77 1271.81,-14.65"/>
<polygon fill="midnightblue" stroke="midnightblue" points="1271.81,-11.15 1261.8,-14.61 1271.78,-18.15 1271.81,-11.15"/>
</g>
<!-- Node27&#45;&gt;Node28 -->
<g id="edge28" class="edge">
<title>Node27&#45;&gt;Node28</title>
<path fill="none" stroke="midnightblue" d="M3507.39,-126.5C3512.65,-117.53 3518.76,-107.1 3523.99,-98.17"/>
<polygon fill="midnightblue" stroke="midnightblue" points="3527.01,-99.93 3529.05,-89.53 3520.97,-96.39 3527.01,-99.93"/>
</g>
<!-- Node18&#45;&gt;Node6 -->
<g id="edge39" class="edge">
<title>Node18&#45;&gt;Node6</title>
<path fill="none" stroke="midnightblue" d="M1627.8,-216.42C1690.15,-204.77 1786.08,-186.85 1863,-172.49"/>
<polygon fill="midnightblue" stroke="midnightblue" points="1864.05,-175.85 1873.24,-170.58 1862.76,-168.97 1864.05,-175.85"/>
</g>
<!-- Node18&#45;&gt;Node8 -->
<g id="edge47" class="edge">
<title>Node18&#45;&gt;Node8</title>
<path fill="none" stroke="midnightblue" d="M1562.71,-216.49C1562.73,-194.75 1566.19,-149.03 1593.09,-126 1757.21,14.5 1859.89,-82.11 2075.09,-63 2460.64,-28.77 2929.81,-17.74 3064.99,-15.16"/>
<polygon fill="midnightblue" stroke="midnightblue" points="3065.3,-18.65 3075.23,-14.97 3065.17,-11.66 3065.3,-18.65"/>
</g>
<!-- Node18&#45;&gt;Node9 -->
<g id="edge48" class="edge">
<title>Node18&#45;&gt;Node9</title>
<path fill="none" stroke="midnightblue" d="M1560.96,-216.41C1554.63,-181.85 1534.88,-83.83 1511.09,-63 1476.16,-32.41 1340.88,-20.56 1272.35,-16.44"/>
<polygon fill="midnightblue" stroke="midnightblue" points="1272.14,-12.93 1261.95,-15.85 1271.74,-19.92 1272.14,-12.93"/>
</g>
<!-- Node18&#45;&gt;Node10 -->
<g id="edge44" class="edge">
<title>Node18&#45;&gt;Node10</title>
<path fill="none" stroke="midnightblue" d="M1544.25,-216.4C1527.56,-205.36 1502.84,-188.17 1483.09,-171 1462.22,-152.85 1464.86,-138.32 1440.09,-126 1380.78,-96.5 1196.33,-84.49 1092.68,-79.97"/>
<polygon fill="midnightblue" stroke="midnightblue" points="1092.74,-76.47 1082.6,-79.54 1092.44,-83.46 1092.74,-76.47"/>
</g>
<!-- Node18&#45;&gt;Node11 -->
<g id="edge40" class="edge">
<title>Node18&#45;&gt;Node11</title>
<path fill="none" stroke="midnightblue" d="M1624.99,-216.46C1644.19,-213.03 1665.47,-209.54 1685.09,-207 1876.6,-182.22 1927.45,-201.76 2118.09,-171 2130.23,-169.04 2143.16,-166.3 2155.29,-163.44"/>
<polygon fill="midnightblue" stroke="midnightblue" points="2156.37,-166.78 2165.26,-161.01 2154.71,-159.97 2156.37,-166.78"/>
</g>
<!-- Node18&#45;&gt;Node13 -->
<g id="edge45" class="edge">
<title>Node18&#45;&gt;Node13</title>
<path fill="none" stroke="midnightblue" d="M1556.51,-216.28C1543.91,-194.21 1514.14,-147.95 1475.09,-126 1276.7,-14.45 534.2,-12.71 349.76,-14.05"/>
<polygon fill="midnightblue" stroke="midnightblue" points="349.63,-10.55 339.66,-14.13 349.69,-17.55 349.63,-10.55"/>
</g>
<!-- Node18&#45;&gt;Node14 -->
<g id="edge43" class="edge">
<title>Node18&#45;&gt;Node14</title>
<path fill="none" stroke="midnightblue" d="M1579.19,-216.16C1596.04,-203.23 1622.71,-182.78 1642.06,-167.94"/>
<polygon fill="midnightblue" stroke="midnightblue" points="1644.31,-170.62 1650.11,-161.76 1640.05,-165.07 1644.31,-170.62"/>
</g>
<!-- Node18&#45;&gt;Node15 -->
<g id="edge41" class="edge">
<title>Node18&#45;&gt;Node15</title>
<path fill="none" stroke="midnightblue" d="M1623.4,-216.5C1643,-212.96 1664.91,-209.4 1685.09,-207 1938.47,-176.81 2004.1,-195.5 2258.09,-171 2296.1,-167.33 2338.86,-161.72 2371.32,-157.15"/>
<polygon fill="midnightblue" stroke="midnightblue" points="2372.07,-160.58 2381.47,-155.71 2371.08,-153.65 2372.07,-160.58"/>
</g>
<!-- Node18&#45;&gt;Node16 -->
<g id="edge46" class="edge">
<title>Node18&#45;&gt;Node16</title>
<path fill="none" stroke="midnightblue" d="M1536.13,-216.33C1506.11,-202.78 1457.45,-180.81 1424.17,-165.79"/>
<polygon fill="midnightblue" stroke="midnightblue" points="1425.35,-162.48 1414.8,-161.55 1422.47,-168.86 1425.35,-162.48"/>
</g>
<!-- Node18&#45;&gt;Node19 -->
<g id="edge42" class="edge">
<title>Node18&#45;&gt;Node19</title>
<path fill="none" stroke="midnightblue" d="M1513.37,-216.43C1469.45,-205.65 1403.45,-189.17 1337.2,-171.27"/>
<polygon fill="midnightblue" stroke="midnightblue" points="1337.99,-167.86 1327.43,-168.62 1336.16,-174.61 1337.99,-167.86"/>
</g>
<!-- Node37&#45;&gt;Node7 -->
<g id="edge65" class="edge">
<title>Node37&#45;&gt;Node7</title>
<path fill="none" stroke="midnightblue" d="M3141.3,-216.3C3161.92,-207.27 3185.98,-192.72 3198.09,-171 3210.36,-148.99 3206.66,-119.33 3201.84,-99.36"/>
<polygon fill="midnightblue" stroke="midnightblue" points="3205.2,-98.38 3199.21,-89.64 3198.44,-100.21 3205.2,-98.38"/>
</g>
<!-- Node37&#45;&gt;Node8 -->
<g id="edge57" class="edge">
<title>Node37&#45;&gt;Node8</title>
<path fill="none" stroke="midnightblue" d="M3215.14,-216.49C3244.97,-213.31 3277.26,-209.95 3307.09,-207 3350.84,-202.67 3671.46,-203.47 3701.09,-171 3733.45,-135.55 3733.63,-98.29 3701.09,-63 3663.1,-21.8 3266.31,-15.59 3140.88,-14.66"/>
<polygon fill="midnightblue" stroke="midnightblue" points="3140.64,-11.16 3130.62,-14.59 3140.59,-18.16 3140.64,-11.16"/>
</g>
<!-- Node37&#45;&gt;Node9 -->
<g id="edge58" class="edge">
<title>Node37&#45;&gt;Node9</title>
<path fill="none" stroke="midnightblue" d="M3057.55,-216.47C3027.01,-207.25 2987.52,-192.43 2957.09,-171 2935.45,-155.76 2941.5,-138.35 2918.09,-126 2768.04,-46.87 1512.67,-19.71 1271.92,-15.2"/>
<polygon fill="midnightblue" stroke="midnightblue" points="1271.93,-11.7 1261.87,-15.02 1271.8,-18.7 1271.93,-11.7"/>
</g>
<!-- Node38 -->
<g id="node26" class="node">
<title>Node38</title>
<g id="a_node26"><a xlink:href="_i_e_aspect_8hpp.html" target="_top" xlink:title=" ">
<polygon fill="white" stroke="black" points="3245.09,-135.5 3245.09,-161.5 3351.09,-161.5 3351.09,-135.5 3245.09,-135.5"/>
<text text-anchor="middle" x="3298.09" y="-144.7" font-family="Source Sans Pro" font-size="16.00">IEAspect.hpp</text>
</a>
</g>
</g>
<!-- Node37&#45;&gt;Node38 -->
<g id="edge59" class="edge">
<title>Node37&#45;&gt;Node38</title>
<path fill="none" stroke="midnightblue" d="M3134.83,-216.33C3168.22,-202.66 3222.52,-180.43 3259.25,-165.4"/>
<polygon fill="midnightblue" stroke="midnightblue" points="3260.71,-168.58 3268.64,-161.55 3258.06,-162.1 3260.71,-168.58"/>
</g>
<!-- Node37&#45;&gt;Node39 -->
<g id="edge63" class="edge">
<title>Node37&#45;&gt;Node39</title>
<path fill="none" stroke="midnightblue" d="M3064.36,-216.48C3027.3,-205.34 2971.21,-187.99 2923.09,-171 2917.96,-169.19 2912.58,-167.2 2907.29,-165.19"/>
<polygon fill="midnightblue" stroke="midnightblue" points="2908.52,-161.91 2897.93,-161.58 2906,-168.44 2908.52,-161.91"/>
</g>
<!-- Node40 -->
<g id="node28" class="node">
<title>Node40</title>
<g id="a_node28"><a xlink:title=" ">
<polygon fill="white" stroke="#bfbfbf" points="2667.09,-135.5 2667.09,-161.5 2771.09,-161.5 2771.09,-135.5 2667.09,-135.5"/>
<text text-anchor="middle" x="2719.09" y="-144.7" font-family="Source Sans Pro" font-size="16.00">glm/glm.hpp</text>
</a>
</g>
</g>
<!-- Node37&#45;&gt;Node40 -->
<g id="edge64" class="edge">
<title>Node37&#45;&gt;Node40</title>
<path fill="none" stroke="midnightblue" d="M3043.45,-216.45C2985.29,-205.01 2895.69,-187.2 2818.09,-171 2806.19,-168.52 2793.49,-165.8 2781.3,-163.17"/>
<polygon fill="midnightblue" stroke="midnightblue" points="2781.72,-159.68 2771.21,-160.98 2780.24,-166.52 2781.72,-159.68"/>
</g>
<!-- Node38&#45;&gt;Node7 -->
<g id="edge60" class="edge">
<title>Node38&#45;&gt;Node7</title>
<path fill="none" stroke="midnightblue" d="M3280.15,-135.31C3263.83,-124.22 3239.55,-107.71 3221.1,-95.17"/>
<polygon fill="midnightblue" stroke="midnightblue" points="3223.07,-92.28 3212.83,-89.55 3219.13,-98.07 3223.07,-92.28"/>
</g>
<!-- Node38&#45;&gt;Node8 -->
<g id="edge61" class="edge">
<title>Node38&#45;&gt;Node8</title>
<path fill="none" stroke="midnightblue" d="M3298.16,-135.32C3297.57,-117.05 3293.72,-82.62 3274.09,-63 3238.78,-27.7 3179.8,-17.65 3141.18,-15.03"/>
<polygon fill="midnightblue" stroke="midnightblue" points="3141.03,-11.52 3130.86,-14.47 3140.66,-18.51 3141.03,-11.52"/>
</g>
<!-- Node38&#45;&gt;Node9 -->
<g id="edge62" class="edge">
<title>Node38&#45;&gt;Node9</title>
<path fill="none" stroke="midnightblue" d="M3294,-135.23C3286.79,-115.85 3269.81,-78.72 3241.09,-63 3151.57,-14.01 1547.18,-14.06 1272.07,-14.43"/>
<polygon fill="midnightblue" stroke="midnightblue" points="1271.76,-10.93 1261.77,-14.44 1271.77,-17.93 1271.76,-10.93"/>
</g>
<!-- Node24&#45;&gt;Node8 -->
<g id="edge69" class="edge">
<title>Node24&#45;&gt;Node8</title>
<path fill="none" stroke="midnightblue" d="M955.84,-303.18C1035.15,-298.58 1146.4,-292.4 1244.09,-288 1356.49,-282.93 2154.9,-301.2 2256.09,-252 2279.63,-240.55 2271.08,-219.48 2294.09,-207 2407.49,-145.5 2470.87,-236.35 2582.09,-171 2603.48,-158.44 2596.99,-142.95 2615.09,-126 2653.17,-90.36 2665.02,-80.66 2714.09,-63 2836.83,-18.84 2993.83,-13.62 3064.99,-13.78"/>
<polygon fill="midnightblue" stroke="midnightblue" points="3065.23,-17.28 3075.25,-13.85 3065.27,-10.28 3065.23,-17.28"/>
</g>
<!-- Node24&#45;&gt;Node9 -->
<g id="edge70" class="edge">
<title>Node24&#45;&gt;Node9</title>
<path fill="none" stroke="midnightblue" d="M744.49,-296.8C684.08,-287.47 616.06,-272.78 594.09,-252 552.73,-212.88 535.96,-170.79 571.09,-126 648.21,-27.7 1060.95,-15.86 1192.08,-14.59"/>
<polygon fill="midnightblue" stroke="midnightblue" points="1192.48,-18.09 1202.46,-14.51 1192.43,-11.09 1192.48,-18.09"/>
</g>
<!-- Node24&#45;&gt;Node10 -->
<g id="edge68" class="edge">
<title>Node24&#45;&gt;Node10</title>
<path fill="none" stroke="midnightblue" d="M744.34,-291.43C713.18,-282.83 680.2,-270.27 653.09,-252 601.01,-216.9 547.24,-172.83 589.09,-126 612.47,-99.84 830.25,-86.06 946.98,-80.51"/>
<polygon fill="midnightblue" stroke="midnightblue" points="947.44,-83.99 957.26,-80.03 947.11,-77 947.44,-83.99"/>
</g>
<!-- Node24&#45;&gt;Node18 -->
<g id="edge67" class="edge">
<title>Node24&#45;&gt;Node18</title>
<path fill="none" stroke="midnightblue" d="M955.68,-297.8C1097.83,-282.05 1347.94,-254.34 1478.44,-239.88"/>
<polygon fill="midnightblue" stroke="midnightblue" points="1478.84,-243.36 1488.4,-238.78 1478.07,-236.4 1478.84,-243.36"/>
</g>
<!-- Node41&#45;&gt;Node4 -->
<g id="edge72" class="edge">
<title>Node41&#45;&gt;Node4</title>
<path fill="none" stroke="midnightblue" d="M775.79,-432.5C753.19,-422.02 726.27,-409.54 705.25,-399.8"/>
<polygon fill="midnightblue" stroke="midnightblue" points="706.59,-396.56 696.04,-395.53 703.65,-402.91 706.59,-396.56"/>
</g>
<!-- Node41&#45;&gt;Node9 -->
<g id="edge77" class="edge">
<title>Node41&#45;&gt;Node9</title>
<path fill="none" stroke="midnightblue" d="M715.2,-434.49C623.49,-418 505.29,-396.66 504.09,-396 372.86,-323.78 332.7,-153.47 452.09,-63 511.36,-18.09 1041.18,-14.53 1192.12,-14.43"/>
<polygon fill="midnightblue" stroke="midnightblue" points="1192.33,-17.93 1202.33,-14.43 1192.33,-10.93 1192.33,-17.93"/>
</g>
<!-- Node41&#45;&gt;Node10 -->
<g id="edge74" class="edge">
<title>Node41&#45;&gt;Node10</title>
<path fill="none" stroke="midnightblue" d="M715.36,-433.61C671.41,-424.1 620.23,-411.41 575.09,-396 511.28,-374.22 473.55,-389.72 437.09,-333 426.28,-316.18 431.22,-307.12 437.09,-288 462.67,-204.81 472.37,-170.61 547.09,-126 612.8,-86.77 831.43,-78.93 947.01,-77.58"/>
<polygon fill="midnightblue" stroke="midnightblue" points="947.22,-81.08 957.19,-77.48 947.15,-74.08 947.22,-81.08"/>
</g>
<!-- Node41&#45;&gt;Node13 -->
<g id="edge75" class="edge">
<title>Node41&#45;&gt;Node13</title>
<path fill="none" stroke="midnightblue" d="M715.48,-434.11C710.62,-433.37 705.81,-432.66 701.09,-432 541.83,-409.8 493.47,-447.35 341.09,-396 319.35,-388.67 318.08,-378.26 297.09,-369 244.2,-345.67 207.14,-378.98 172.09,-333 145.72,-298.41 115.09,-142.23 171.09,-63 192.51,-32.7 234.54,-21.2 266.43,-16.91"/>
<polygon fill="midnightblue" stroke="midnightblue" points="266.86,-20.38 276.39,-15.75 266.05,-13.43 266.86,-20.38"/>
</g>
<!-- Node41&#45;&gt;Node16 -->
<g id="edge76" class="edge">
<title>Node41&#45;&gt;Node16</title>
<path fill="none" stroke="midnightblue" d="M860.51,-432.36C967.21,-375.16 1260.1,-218.12 1356.71,-166.32"/>
<polygon fill="midnightblue" stroke="midnightblue" points="1358.54,-169.32 1365.7,-161.51 1355.23,-163.15 1358.54,-169.32"/>
</g>
<!-- Node41&#45;&gt;Node24 -->
<g id="edge73" class="edge">
<title>Node41&#45;&gt;Node24</title>
<path fill="none" stroke="midnightblue" d="M825.43,-432.24C830.26,-408.61 838.1,-370.2 843.65,-343.06"/>
<polygon fill="midnightblue" stroke="midnightblue" points="847.15,-343.4 845.72,-332.9 840.29,-342 847.15,-343.4"/>
</g>
<!-- Node42&#45;&gt;Node40 -->
<g id="edge81" class="edge">
<title>Node42&#45;&gt;Node40</title>
<path fill="none" stroke="midnightblue" d="M631.82,-522.88C768,-516.45 1124.17,-498.81 1421.09,-477 1644.5,-460.59 1699.88,-450.82 1923.09,-432 2125.67,-414.92 2182.22,-446.72 2379.09,-396 2508.52,-362.65 2545.65,-343.48 2643.09,-252 2669.52,-227.19 2693.21,-192.22 2706.87,-170.22"/>
<polygon fill="midnightblue" stroke="midnightblue" points="2709.88,-172.01 2712.09,-161.65 2703.9,-168.37 2709.88,-172.01"/>
</g>
<!-- Node43 -->
<g id="node32" class="node">
<title>Node43</title>
<g id="a_node32"><a xlink:title=" ">
<polygon fill="white" stroke="#bfbfbf" points="437.59,-441.5 437.59,-467.5 658.59,-467.5 658.59,-441.5 437.59,-441.5"/>
<text text-anchor="middle" x="548.09" y="-450.7" font-family="Source Sans Pro" font-size="16.00">glm/ext/matrix_transform.hpp</text>
</a>
</g>
</g>
<!-- Node42&#45;&gt;Node43 -->
<g id="edge80" class="edge">
<title>Node42&#45;&gt;Node43</title>
<path fill="none" stroke="midnightblue" d="M570.39,-513.31C566.56,-503.37 561.05,-489.09 556.46,-477.21"/>
<polygon fill="midnightblue" stroke="midnightblue" points="559.61,-475.62 552.74,-467.55 553.07,-478.14 559.61,-475.62"/>
</g>
<!-- Node44 -->
<g id="node33" class="node">
<title>Node44</title>
<g id="a_node33"><a xlink:title=" ">
<polygon fill="white" stroke="#bfbfbf" points="360.59,-441.5 360.59,-467.5 419.59,-467.5 419.59,-441.5 360.59,-441.5"/>
<text text-anchor="middle" x="390.09" y="-450.7" font-family="Source Sans Pro" font-size="16.00">cmath</text>
</a>
</g>
</g>
<!-- Node42&#45;&gt;Node44 -->
<g id="edge82" class="edge">
<title>Node42&#45;&gt;Node44</title>
<path fill="none" stroke="midnightblue" d="M531.15,-513.47C501.49,-504.75 461.76,-491.9 428.09,-477 425.04,-475.65 421.92,-474.13 418.84,-472.54"/>
<polygon fill="midnightblue" stroke="midnightblue" points="420.29,-469.34 409.83,-467.64 416.94,-475.49 420.29,-469.34"/>
</g>
<!-- Node45&#45;&gt;Node8 -->
<g id="edge94" class="edge">
<title>Node45&#45;&gt;Node8</title>
<path fill="none" stroke="midnightblue" d="M2025.73,-216.46C2036.02,-213.07 2047.44,-209.6 2058.09,-207 2153.06,-183.79 2181.62,-199.65 2275.09,-171 2320.92,-156.95 2328.21,-142.81 2373.09,-126 2465.94,-91.22 2489.73,-81.73 2587.09,-63 2763.94,-28.99 2979.67,-18.51 3065.38,-15.56"/>
<polygon fill="midnightblue" stroke="midnightblue" points="3065.54,-19.06 3075.42,-15.23 3065.31,-12.06 3065.54,-19.06"/>
</g>
<!-- Node45&#45;&gt;Node10 -->
<g id="edge92" class="edge">
<title>Node45&#45;&gt;Node10</title>
<path fill="none" stroke="midnightblue" d="M2029.47,-216.48C2062.81,-204.91 2107.89,-186.88 2118.09,-171 2128.91,-154.18 2131.92,-140.45 2118.09,-126 2082.65,-88.96 1332.77,-79.93 1093.07,-77.98"/>
<polygon fill="midnightblue" stroke="midnightblue" points="1092.75,-74.48 1082.72,-77.9 1092.69,-81.48 1092.75,-74.48"/>
</g>
<!-- Node45&#45;&gt;Node12 -->
<g id="edge89" class="edge">
<title>Node45&#45;&gt;Node12</title>
<path fill="none" stroke="midnightblue" d="M2026.09,-216.44C2036.29,-213.09 2047.57,-209.65 2058.09,-207 2101.89,-195.98 2229.13,-205.65 2258.09,-171 2270.92,-155.66 2265.98,-144.38 2258.09,-126 2253.06,-114.28 2243.65,-104.05 2234.27,-96.04"/>
<polygon fill="midnightblue" stroke="midnightblue" points="2236.15,-93.07 2226.14,-89.6 2231.81,-98.56 2236.15,-93.07"/>
</g>
<!-- Node45&#45;&gt;Node15 -->
<g id="edge90" class="edge">
<title>Node45&#45;&gt;Node15</title>
<path fill="none" stroke="midnightblue" d="M2024.64,-216.48C2035.19,-212.96 2047.03,-209.42 2058.09,-207 2193.16,-177.44 2232.83,-204.04 2367.09,-171 2373.4,-169.45 2379.95,-167.38 2386.26,-165.13"/>
<polygon fill="midnightblue" stroke="midnightblue" points="2387.77,-168.3 2395.9,-161.51 2385.31,-161.75 2387.77,-168.3"/>
</g>
<!-- Node45&#45;&gt;Node46 -->
<g id="edge84" class="edge">
<title>Node45&#45;&gt;Node46</title>
<path fill="none" stroke="midnightblue" d="M2023.2,-216.43C2034.07,-212.74 2046.47,-209.1 2058.09,-207 2434.58,-139.12 2537.02,-204.67 2918.09,-171 2941.05,-168.97 2965.79,-166.01 2988.74,-162.93"/>
<polygon fill="midnightblue" stroke="midnightblue" points="2989.37,-166.37 2998.81,-161.55 2988.43,-159.44 2989.37,-166.37"/>
</g>
<!-- Node45&#45;&gt;Node48 -->
<g id="edge91" class="edge">
<title>Node45&#45;&gt;Node48</title>
<path fill="none" stroke="midnightblue" d="M1934.91,-218.56C1909.07,-214.4 1878.12,-209.88 1850.09,-207 1556.98,-176.91 1480.18,-209.79 1188.09,-171 1174.36,-169.18 1159.72,-166.5 1145.97,-163.64"/>
<polygon fill="midnightblue" stroke="midnightblue" points="1146.65,-160.21 1136.14,-161.54 1145.19,-167.05 1146.65,-160.21"/>
</g>
<!-- Node49 -->
<g id="node38" class="node">
<title>Node49</title>
<g id="a_node38"><a xlink:title=" ">
<polygon fill="white" stroke="#bfbfbf" points="2521.59,-135.5 2521.59,-161.5 2572.59,-161.5 2572.59,-135.5 2521.59,-135.5"/>
<text text-anchor="middle" x="2547.09" y="-144.7" font-family="Source Sans Pro" font-size="16.00">array</text>
</a>
</g>
</g>
<!-- Node45&#45;&gt;Node49 -->
<g id="edge93" class="edge">
<title>Node45&#45;&gt;Node49</title>
<path fill="none" stroke="midnightblue" d="M2024.26,-216.39C2034.89,-212.83 2046.87,-209.28 2058.09,-207 2239.95,-170.02 2291.73,-205.39 2474.09,-171 2486.57,-168.65 2499.96,-165.03 2511.83,-161.43"/>
<polygon fill="midnightblue" stroke="midnightblue" points="2512.89,-164.77 2521.39,-158.44 2510.8,-158.09 2512.89,-164.77"/>
</g>
<!-- Node46&#45;&gt;Node7 -->
<g id="edge85" class="edge">
<title>Node46&#45;&gt;Node7</title>
<path fill="none" stroke="midnightblue" d="M3097.38,-135.47C3116.29,-124.25 3144.7,-107.39 3166.02,-94.74"/>
<polygon fill="midnightblue" stroke="midnightblue" points="3167.86,-97.72 3174.68,-89.61 3164.29,-91.7 3167.86,-97.72"/>
</g>
<!-- Node46&#45;&gt;Node8 -->
<g id="edge87" class="edge">
<title>Node46&#45;&gt;Node8</title>
<path fill="none" stroke="midnightblue" d="M3079.49,-135.23C3083.86,-112.86 3093.19,-65.16 3098.72,-36.88"/>
<polygon fill="midnightblue" stroke="midnightblue" points="3102.21,-37.23 3100.7,-26.74 3095.34,-35.89 3102.21,-37.23"/>
</g>
<!-- Node46&#45;&gt;Node10 -->
<g id="edge88" class="edge">
<title>Node46&#45;&gt;Node10</title>
<path fill="none" stroke="midnightblue" d="M3000.85,-135.48C2974.68,-131.81 2945.16,-128.17 2918.09,-126 2553.8,-96.8 1396.55,-81.8 1093.38,-78.3"/>
<polygon fill="midnightblue" stroke="midnightblue" points="1092.99,-74.8 1082.96,-78.19 1092.91,-81.8 1092.99,-74.8"/>
</g>
<!-- Node47 -->
<g id="node36" class="node">
<title>Node47</title>
<g id="a_node36"><a xlink:title=" ">
<polygon fill="white" stroke="#bfbfbf" points="2953.09,-63.5 2953.09,-89.5 3075.09,-89.5 3075.09,-63.5 2953.09,-63.5"/>
<text text-anchor="middle" x="3014.09" y="-72.7" font-family="Source Sans Pro" font-size="16.00">spdlog/logger.h</text>
</a>
</g>
</g>
<!-- Node46&#45;&gt;Node47 -->
<g id="edge86" class="edge">
<title>Node46&#45;&gt;Node47</title>
<path fill="none" stroke="midnightblue" d="M3066.12,-135.31C3056.63,-124.77 3042.75,-109.34 3031.71,-97.07"/>
<polygon fill="midnightblue" stroke="midnightblue" points="3034.23,-94.64 3024.94,-89.55 3029.03,-99.33 3034.23,-94.64"/>
</g>
<!-- Node50&#45;&gt;Node8 -->
<g id="edge101" class="edge">
<title>Node50&#45;&gt;Node8</title>
<path fill="none" stroke="midnightblue" d="M1684.7,-308.21C1988.24,-303.03 3074.43,-282.51 3226.09,-252 3281.53,-240.85 3290.01,-219.77 3345.09,-207 3427.94,-187.79 3668.86,-233.9 3726.09,-171 3734.3,-161.98 3729.65,-69.76 3723.09,-63 3682.51,-21.16 3269.29,-15.4 3140.92,-14.62"/>
<polygon fill="midnightblue" stroke="midnightblue" points="3140.81,-11.12 3130.79,-14.56 3140.77,-18.12 3140.81,-11.12"/>
</g>
<!-- Node50&#45;&gt;Node10 -->
<g id="edge99" class="edge">
<title>Node50&#45;&gt;Node10</title>
<path fill="none" stroke="midnightblue" d="M1527.55,-299.39C1472.01,-290.71 1396.48,-275.75 1333.09,-252 1263.97,-226.1 1245.05,-217.96 1188.09,-171 1167.89,-154.35 1171.5,-141.07 1150.09,-126 1129.06,-111.2 1102.97,-100.31 1079.69,-92.64"/>
<polygon fill="midnightblue" stroke="midnightblue" points="1080.5,-89.23 1069.91,-89.55 1078.39,-95.9 1080.5,-89.23"/>
</g>
<!-- Node50&#45;&gt;Node13 -->
<g id="edge100" class="edge">
<title>Node50&#45;&gt;Node13</title>
<path fill="none" stroke="midnightblue" d="M1527.41,-297.87C1500.41,-294.23 1469.98,-290.51 1442.09,-288 1280.33,-273.43 867.71,-298.5 712.09,-252 551.97,-204.16 388.72,-80.2 330.44,-33.06"/>
<polygon fill="midnightblue" stroke="midnightblue" points="332.58,-30.29 322.61,-26.68 328.15,-35.71 332.58,-30.29"/>
</g>
<!-- Node50&#45;&gt;Node18 -->
<g id="edge96" class="edge">
<title>Node50&#45;&gt;Node18</title>
<path fill="none" stroke="midnightblue" d="M1599.37,-297.16C1592.75,-284.98 1582.49,-266.14 1574.57,-251.59"/>
<polygon fill="midnightblue" stroke="midnightblue" points="1577.62,-249.87 1569.76,-242.76 1571.47,-253.21 1577.62,-249.87"/>
</g>
<!-- Node50&#45;&gt;Node19 -->
<g id="edge97" class="edge">
<title>Node50&#45;&gt;Node19</title>
<path fill="none" stroke="midnightblue" d="M1546.5,-297.44C1506.44,-288.06 1453.12,-273.07 1409.09,-252 1366.82,-231.77 1323.4,-199.86 1294.82,-177.02"/>
<polygon fill="midnightblue" stroke="midnightblue" points="1296.78,-174.1 1286.8,-170.54 1292.38,-179.55 1296.78,-174.1"/>
</g>
<!-- Node51 -->
<g id="node40" class="node">
<title>Node51</title>
<g id="a_node40"><a xlink:title=" ">
<polygon fill="white" stroke="#bfbfbf" points="2303.09,-216.5 2303.09,-242.5 2441.09,-242.5 2441.09,-216.5 2303.09,-216.5"/>
<text text-anchor="middle" x="2372.09" y="-225.7" font-family="Source Sans Pro" font-size="16.00">assimp/material.h</text>
</a>
</g>
</g>
<!-- Node50&#45;&gt;Node51 -->
<g id="edge98" class="edge">
<title>Node50&#45;&gt;Node51</title>
<path fill="none" stroke="midnightblue" d="M1684.7,-302.49C1732.75,-298.23 1795.46,-292.73 1851.09,-288 2045.71,-271.46 2096.51,-284.61 2289.09,-252 2299.66,-250.21 2310.85,-247.73 2321.47,-245.08"/>
<polygon fill="midnightblue" stroke="midnightblue" points="2322.63,-248.4 2331.44,-242.51 2320.89,-241.62 2322.63,-248.4"/>
</g>
<!-- Node52&#45;&gt;Node5 -->
<g id="edge103" class="edge">
<title>Node52&#45;&gt;Node5</title>
<path fill="none" stroke="midnightblue" d="M1898.73,-513.13C1889.21,-486.41 1865.42,-421.5 1841.09,-369 1821.39,-326.48 1794.78,-278.62 1779.43,-251.76"/>
<polygon fill="midnightblue" stroke="midnightblue" points="1782.33,-249.79 1774.31,-242.86 1776.26,-253.28 1782.33,-249.79"/>
</g>
<!-- Node52&#45;&gt;Node8 -->
<g id="edge143" class="edge">
<title>Node52&#45;&gt;Node8</title>
<path fill="none" stroke="midnightblue" d="M2013.72,-522.88C2380.76,-511.55 3547.01,-453.53 3758.09,-171 3765.48,-161.11 3760.49,-68.55 3755.09,-63 3712.11,-18.86 3273.04,-14.7 3140.67,-14.46"/>
<polygon fill="midnightblue" stroke="midnightblue" points="3140.6,-10.96 3130.6,-14.45 3140.6,-17.96 3140.6,-10.96"/>
</g>
<!-- Node52&#45;&gt;Node10 -->
<g id="edge141" class="edge">
<title>Node52&#45;&gt;Node10</title>
<path fill="none" stroke="midnightblue" d="M1792.34,-524.72C1644.59,-522.29 1391.77,-512.82 1307.09,-477 1167.27,-417.86 1143.19,-371.92 1050.09,-252 1013.98,-205.48 1002.54,-184.52 1009.09,-126 1010.07,-117.29 1012,-107.86 1013.98,-99.65"/>
<polygon fill="midnightblue" stroke="midnightblue" points="1017.43,-100.29 1016.52,-89.73 1010.65,-98.55 1017.43,-100.29"/>
</g>
<!-- Node52&#45;&gt;Node16 -->
<g id="edge142" class="edge">
<title>Node52&#45;&gt;Node16</title>
<path fill="none" stroke="midnightblue" d="M1893.16,-513.29C1855.25,-466.78 1720.43,-302.66 1694.09,-288 1609.82,-241.09 1564.59,-298.49 1480.09,-252 1444.77,-232.56 1416.06,-194.26 1400.58,-170.38"/>
<polygon fill="midnightblue" stroke="midnightblue" points="1403.42,-168.31 1395.13,-161.71 1397.49,-172.04 1403.42,-168.31"/>
</g>
<!-- Node52&#45;&gt;Node25 -->
<g id="edge112" class="edge">
<title>Node52&#45;&gt;Node25</title>
<path fill="none" stroke="midnightblue" d="M1861.61,-513.44C1830.43,-504.14 1786.8,-490.6 1749.09,-477 1623,-431.53 1478.28,-370.31 1400.21,-336.52"/>
<polygon fill="midnightblue" stroke="midnightblue" points="1401.6,-333.3 1391.03,-332.54 1398.81,-339.73 1401.6,-333.3"/>
</g>
<!-- Node52&#45;&gt;Node26 -->
<g id="edge113" class="edge">
<title>Node52&#45;&gt;Node26</title>
<path fill="none" stroke="midnightblue" d="M1903.26,-513.4C1904.03,-494.68 1907.6,-458.13 1923.09,-432 1969.59,-353.59 2057.55,-290.45 2111.38,-256.88"/>
<polygon fill="midnightblue" stroke="midnightblue" points="2113.36,-259.77 2120.04,-251.55 2109.69,-253.81 2113.36,-259.77"/>
</g>
<!-- Node52&#45;&gt;Node38 -->
<g id="edge130" class="edge">
<title>Node52&#45;&gt;Node38</title>
<path fill="none" stroke="midnightblue" d="M2013.67,-521.23C2120.86,-515.71 2287.7,-503.44 2430.09,-477 2791.55,-409.87 2926.23,-464.7 3226.09,-252 3255.58,-231.08 3277.13,-194.11 3288.62,-170.75"/>
<polygon fill="midnightblue" stroke="midnightblue" points="3291.81,-172.2 3292.92,-161.66 3285.48,-169.2 3291.81,-172.2"/>
</g>
<!-- Node52&#45;&gt;Node50 -->
<g id="edge129" class="edge">
<title>Node52&#45;&gt;Node50</title>
<path fill="none" stroke="midnightblue" d="M1877.95,-513.48C1859.51,-504.31 1834.11,-490.9 1813.09,-477 1741.02,-429.33 1663.3,-362.54 1626.99,-330.33"/>
<polygon fill="midnightblue" stroke="midnightblue" points="1629.28,-327.68 1619.49,-323.64 1624.63,-332.91 1629.28,-327.68"/>
</g>
<!-- Node53 -->
<g id="node42" class="node">
<title>Node53</title>
<g id="a_node42"><a xlink:href="_i_e_descriptor_set_8hpp.html" target="_top" xlink:title=" ">
<polygon fill="white" stroke="black" points="721.09,-207.5 721.09,-251.5 901.09,-251.5 901.09,-207.5 721.09,-207.5"/>
<text text-anchor="start" x="729.09" y="-234.7" font-family="Source Sans Pro" font-size="16.00">GraphicsModule/Shader</text>
<text text-anchor="middle" x="811.09" y="-216.7" font-family="Source Sans Pro" font-size="16.00">/IEDescriptorSet.hpp</text>
</a>
</g>
</g>
<!-- Node52&#45;&gt;Node53 -->
<g id="edge104" class="edge">
<title>Node52&#45;&gt;Node53</title>
<path fill="none" stroke="midnightblue" d="M1792.42,-524.78C1591.88,-522.57 1184.17,-513.57 1131.09,-477 1055.09,-424.64 1116.13,-346.91 1045.09,-288 1007.82,-257.09 956.42,-242.38 911.28,-235.53"/>
<polygon fill="midnightblue" stroke="midnightblue" points="911.54,-232.04 901.16,-234.11 910.57,-238.97 911.54,-232.04"/>
</g>
<!-- Node55 -->
<g id="node44" class="node">
<title>Node55</title>
<g id="a_node44"><a xlink:href="_i_e_uniform_buffer_object_8hpp.html" target="_top" xlink:title=" ">
<polygon fill="white" stroke="black" points="2693.09,-207.5 2693.09,-251.5 2899.09,-251.5 2899.09,-207.5 2693.09,-207.5"/>
<text text-anchor="start" x="2701.09" y="-234.7" font-family="Source Sans Pro" font-size="16.00">GraphicsModule/Shader</text>
<text text-anchor="middle" x="2796.09" y="-216.7" font-family="Source Sans Pro" font-size="16.00">/IEUniformBufferObject.hpp</text>
</a>
</g>
</g>
<!-- Node52&#45;&gt;Node55 -->
<g id="edge114" class="edge">
<title>Node52&#45;&gt;Node55</title>
<path fill="none" stroke="midnightblue" d="M2013.79,-519.1C2128.97,-511.51 2301.14,-497.28 2364.09,-477 2523.63,-425.6 2689.6,-310.43 2760.53,-257.74"/>
<polygon fill="midnightblue" stroke="midnightblue" points="2762.78,-260.43 2768.7,-251.64 2758.59,-254.82 2762.78,-260.43"/>
</g>
<!-- Node56 -->
<g id="node45" class="node">
<title>Node56</title>
<g id="a_node45"><a xlink:href="_i_e_material_8hpp.html" target="_top" xlink:title=" ">
<polygon fill="white" stroke="red" points="2256.09,-369.5 2256.09,-395.5 2370.09,-395.5 2370.09,-369.5 2256.09,-369.5"/>
<text text-anchor="middle" x="2313.09" y="-378.7" font-family="Source Sans Pro" font-size="16.00">IEMaterial.hpp</text>
</a>
</g>
</g>
<!-- Node52&#45;&gt;Node56 -->
<g id="edge118" class="edge">
<title>Node52&#45;&gt;Node56</title>
<path fill="none" stroke="midnightblue" d="M2013.69,-525.76C2114.79,-523.58 2254.44,-513.71 2294.09,-477 2313.45,-459.08 2316.08,-427.28 2315.3,-405.79"/>
<polygon fill="midnightblue" stroke="midnightblue" points="2318.78,-405.39 2314.65,-395.63 2311.79,-405.83 2318.78,-405.39"/>
</g>
<!-- Node60 -->
<g id="node46" class="node">
<title>Node60</title>
<g id="a_node46"><a xlink:href="_i_e_vertex_8hpp.html" target="_top" xlink:title=" ">
<polygon fill="white" stroke="black" points="2497.59,-216.5 2497.59,-242.5 2598.59,-242.5 2598.59,-216.5 2497.59,-216.5"/>
<text text-anchor="middle" x="2548.09" y="-225.7" font-family="Source Sans Pro" font-size="16.00">IEVertex.hpp</text>
</a>
</g>
</g>
<!-- Node52&#45;&gt;Node60 -->
<g id="edge124" class="edge">
<title>Node52&#45;&gt;Node60</title>
<path fill="none" stroke="midnightblue" d="M2013.75,-521.08C2118,-515.39 2265.65,-502.95 2317.09,-477 2422.88,-423.63 2505.57,-300.97 2535.73,-251.63"/>
<polygon fill="midnightblue" stroke="midnightblue" points="2538.89,-253.16 2541.05,-242.78 2532.9,-249.55 2538.89,-253.16"/>
</g>
<!-- Node61 -->
<g id="node47" class="node">
<title>Node61</title>
<g id="a_node47"><a xlink:href="_i_e_mesh_8hpp.html" target="_top" xlink:title=" ">
<polygon fill="white" stroke="black" points="1316.09,-441.5 1316.09,-467.5 1412.09,-467.5 1412.09,-441.5 1316.09,-441.5"/>
<text text-anchor="middle" x="1364.09" y="-450.7" font-family="Source Sans Pro" font-size="16.00">IEMesh.hpp</text>
</a>
</g>
</g>
<!-- Node52&#45;&gt;Node61 -->
<g id="edge131" class="edge">
<title>Node52&#45;&gt;Node61</title>
<path fill="none" stroke="midnightblue" d="M1810.43,-513.47C1699.03,-499 1515.44,-475.16 1422.25,-463.05"/>
<polygon fill="midnightblue" stroke="midnightblue" points="1422.53,-459.56 1412.16,-461.74 1421.63,-466.5 1422.53,-459.56"/>
</g>
<!-- Node62 -->
<g id="node48" class="node">
<title>Node62</title>
<g id="a_node48"><a xlink:title=" ">
<polygon fill="white" stroke="#bfbfbf" points="1931.59,-441.5 1931.59,-467.5 2106.59,-467.5 2106.59,-441.5 1931.59,-441.5"/>
<text text-anchor="middle" x="2019.09" y="-450.7" font-family="Source Sans Pro" font-size="16.00">assimp/BaseImporter.h</text>
</a>
</g>
</g>
<!-- Node52&#45;&gt;Node62 -->
<g id="edge139" class="edge">
<title>Node52&#45;&gt;Node62</title>
<path fill="none" stroke="midnightblue" d="M1923.03,-513.47C1941.54,-502.3 1969.31,-485.54 1990.23,-472.91"/>
<polygon fill="midnightblue" stroke="midnightblue" points="1992.27,-475.77 1999.02,-467.61 1988.65,-469.78 1992.27,-475.77"/>
</g>
<!-- Node63 -->
<g id="node49" class="node">
<title>Node63</title>
<g id="a_node49"><a xlink:title=" ">
<polygon fill="white" stroke="#bfbfbf" points="2125.09,-441.5 2125.09,-467.5 2285.09,-467.5 2285.09,-441.5 2125.09,-441.5"/>
<text text-anchor="middle" x="2205.09" y="-450.7" font-family="Source Sans Pro" font-size="16.00">assimp/Importer.hpp</text>
</a>
</g>
</g>
<!-- Node52&#45;&gt;Node63 -->
<g id="edge140" class="edge">
<title>Node52&#45;&gt;Node63</title>
<path fill="none" stroke="midnightblue" d="M1956.97,-513.44C2000.06,-503.74 2062,-489.69 2116.09,-477 2125.73,-474.74 2135.94,-472.31 2145.87,-469.92"/>
<polygon fill="midnightblue" stroke="midnightblue" points="2146.79,-473.3 2155.69,-467.56 2145.15,-466.5 2146.79,-473.3"/>
</g>
<!-- Node53&#45;&gt;Node6 -->
<g id="edge105" class="edge">
<title>Node53&#45;&gt;Node6</title>
<path fill="none" stroke="midnightblue" d="M901.15,-223.69C1067.14,-214.65 1432.51,-193.96 1740.09,-171 1776.83,-168.26 1816.61,-164.94 1853.27,-161.73"/>
<polygon fill="midnightblue" stroke="midnightblue" points="1853.86,-165.19 1863.52,-160.83 1853.25,-158.22 1853.86,-165.19"/>
</g>
<!-- Node53&#45;&gt;Node9 -->
<g id="edge111" class="edge">
<title>Node53&#45;&gt;Node9</title>
<path fill="none" stroke="midnightblue" d="M801.42,-207.28C793,-185.37 784.25,-150.95 799.09,-126 829.09,-75.58 859.49,-81.72 915.09,-63 1011.36,-30.6 1131.42,-19.75 1192.46,-16.19"/>
<polygon fill="midnightblue" stroke="midnightblue" points="1192.66,-19.68 1202.45,-15.64 1192.27,-12.69 1192.66,-19.68"/>
</g>
<!-- Node53&#45;&gt;Node10 -->
<g id="edge106" class="edge">
<title>Node53&#45;&gt;Node10</title>
<path fill="none" stroke="midnightblue" d="M806.16,-207.35C802.18,-184.51 799.99,-148.41 819.09,-126 835.82,-106.38 897.08,-93.5 947.62,-85.98"/>
<polygon fill="midnightblue" stroke="midnightblue" points="948.17,-89.44 957.57,-84.55 947.17,-82.51 948.17,-89.44"/>
</g>
<!-- Node53&#45;&gt;Node13 -->
<g id="edge107" class="edge">
<title>Node53&#45;&gt;Node13</title>
<path fill="none" stroke="midnightblue" d="M794.46,-207.26C775.15,-184 741.17,-147.19 704.09,-126 586.09,-58.56 424.7,-29.77 349.63,-19.44"/>
<polygon fill="midnightblue" stroke="midnightblue" points="350,-15.96 339.63,-18.1 349.08,-22.89 350,-15.96"/>
</g>
<!-- Node53&#45;&gt;Node16 -->
<g id="edge108" class="edge">
<title>Node53&#45;&gt;Node16</title>
<path fill="none" stroke="midnightblue" d="M901.18,-226.35C1006.86,-222.06 1186.64,-209.25 1336.09,-171 1341.85,-169.53 1347.81,-167.54 1353.55,-165.36"/>
<polygon fill="midnightblue" stroke="midnightblue" points="1354.96,-168.57 1362.93,-161.58 1352.34,-162.08 1354.96,-168.57"/>
</g>
<!-- Node53&#45;&gt;Node35 -->
<g id="edge110" class="edge">
<title>Node53&#45;&gt;Node35</title>
<path fill="none" stroke="midnightblue" d="M771.43,-207.33C747.46,-194.53 717.3,-178.44 694.9,-166.48"/>
<polygon fill="midnightblue" stroke="midnightblue" points="696.28,-163.25 685.81,-161.63 692.99,-169.42 696.28,-163.25"/>
</g>
<!-- Node54 -->
<g id="node43" class="node">
<title>Node54</title>
<g id="a_node43"><a xlink:title=" ">
<polygon fill="white" stroke="#bfbfbf" points="827.59,-135.5 827.59,-161.5 900.59,-161.5 900.59,-135.5 827.59,-135.5"/>
<text text-anchor="middle" x="864.09" y="-144.7" font-family="Source Sans Pro" font-size="16.00">optional</text>
</a>
</g>
</g>
<!-- Node53&#45;&gt;Node54 -->
<g id="edge109" class="edge">
<title>Node53&#45;&gt;Node54</title>
<path fill="none" stroke="midnightblue" d="M825.3,-207.33C833.04,-195.79 842.58,-181.57 850.26,-170.11"/>
<polygon fill="midnightblue" stroke="midnightblue" points="853.29,-171.88 855.96,-161.63 847.48,-167.98 853.29,-171.88"/>
</g>
<!-- Node55&#45;&gt;Node8 -->
<g id="edge116" class="edge">
<title>Node55&#45;&gt;Node8</title>
<path fill="none" stroke="midnightblue" d="M2899.41,-215.54C2926.9,-212.4 2956.59,-209.3 2984.09,-207 3021.74,-203.85 3637.1,-198.41 3663.09,-171 3696.12,-136.17 3695.54,-98.38 3663.09,-63 3627.84,-24.56 3260.89,-16.5 3140.86,-14.89"/>
<polygon fill="midnightblue" stroke="midnightblue" points="3140.72,-11.38 3130.68,-14.76 3140.63,-18.38 3140.72,-11.38"/>
</g>
<!-- Node55&#45;&gt;Node15 -->
<g id="edge117" class="edge">
<title>Node55&#45;&gt;Node15</title>
<path fill="none" stroke="midnightblue" d="M2693.08,-208.45C2639.34,-197.76 2572.57,-184.14 2513.09,-171 2500.59,-168.24 2487.15,-165.11 2474.57,-162.12"/>
<polygon fill="midnightblue" stroke="midnightblue" points="2475.24,-158.68 2464.7,-159.75 2473.6,-165.48 2475.24,-158.68"/>
</g>
<!-- Node55&#45;&gt;Node40 -->
<g id="edge115" class="edge">
<title>Node55&#45;&gt;Node40</title>
<path fill="none" stroke="midnightblue" d="M2775.46,-207.33C2763.88,-195.45 2749.52,-180.72 2738.2,-169.1"/>
<polygon fill="midnightblue" stroke="midnightblue" points="2740.4,-166.35 2730.91,-161.63 2735.39,-171.23 2740.4,-166.35"/>
</g>
<!-- Node56&#45;&gt;Node8 -->
<g id="edge122" class="edge">
<title>Node56&#45;&gt;Node8</title>
<path fill="none" stroke="midnightblue" d="M2370.24,-381.11C2524.18,-378.56 2958.87,-361.43 3299.09,-252 3339.41,-239.03 3342.58,-219.35 3383.09,-207 3459.79,-183.62 3688.3,-230.46 3742.09,-171 3750.28,-161.95 3745.62,-69.72 3739.09,-63 3697.34,-20.03 3271.66,-15.05 3141.01,-14.54"/>
<polygon fill="midnightblue" stroke="midnightblue" points="3140.72,-11.04 3130.71,-14.5 3140.7,-18.04 3140.72,-11.04"/>
</g>
<!-- Node56&#45;&gt;Node19 -->
<g id="edge121" class="edge">
<title>Node56&#45;&gt;Node19</title>
<path fill="none" stroke="midnightblue" d="M2255.99,-372.85C2070.98,-344.81 1498.82,-257.84 1480.09,-252 1436.26,-238.32 1428.62,-226.6 1387.09,-207 1364.51,-196.34 1339.53,-184.8 1317.87,-174.88"/>
<polygon fill="midnightblue" stroke="midnightblue" points="1319.04,-171.56 1308.49,-170.58 1316.13,-177.93 1319.04,-171.56"/>
</g>
<!-- Node56&#45;&gt;Node40 -->
<g id="edge123" class="edge">
<title>Node56&#45;&gt;Node40</title>
<path fill="none" stroke="midnightblue" d="M2353.35,-369.46C2412.66,-350.54 2525.39,-309.91 2608.09,-252 2630.75,-236.13 2630.95,-225.96 2651.09,-207 2665.54,-193.4 2682.6,-178.98 2696.01,-167.99"/>
<polygon fill="midnightblue" stroke="midnightblue" points="2698.29,-170.65 2703.84,-161.62 2693.87,-165.22 2698.29,-170.65"/>
</g>
<!-- Node56&#45;&gt;Node50 -->
<g id="edge120" class="edge">
<title>Node56&#45;&gt;Node50</title>
<path fill="none" stroke="midnightblue" d="M2255.83,-375.83C2132.8,-363.65 1842.45,-334.9 1695.14,-320.32"/>
<polygon fill="midnightblue" stroke="midnightblue" points="1695.08,-316.79 1684.79,-319.29 1694.39,-323.76 1695.08,-316.79"/>
</g>
<!-- Node56&#45;&gt;Node51 -->
<g id="edge119" class="edge">
<title>Node56&#45;&gt;Node51</title>
<path fill="none" stroke="midnightblue" d="M2317.82,-369.4C2327.79,-343.89 2351.08,-284.29 2363.66,-252.08"/>
<polygon fill="midnightblue" stroke="midnightblue" points="2366.96,-253.25 2367.34,-242.66 2360.44,-250.7 2366.96,-253.25"/>
</g>
<!-- Node60&#45;&gt;Node8 -->
<g id="edge128" class="edge">
<title>Node60&#45;&gt;Node8</title>
<path fill="none" stroke="midnightblue" d="M2563.1,-216.34C2576.92,-204.98 2597.85,-187.35 2615.09,-171 2635.17,-151.97 2635.81,-142.39 2658.09,-126 2785.62,-32.17 2983.41,-16.83 3065.46,-14.66"/>
<polygon fill="midnightblue" stroke="midnightblue" points="3065.64,-18.16 3075.56,-14.44 3065.49,-11.16 3065.64,-18.16"/>
</g>
<!-- Node60&#45;&gt;Node15 -->
<g id="edge126" class="edge">
<title>Node60&#45;&gt;Node15</title>
<path fill="none" stroke="midnightblue" d="M2528.83,-216.33C2507.95,-203.13 2474.41,-181.94 2450.72,-166.96"/>
<polygon fill="midnightblue" stroke="midnightblue" points="2452.49,-163.94 2442.17,-161.55 2448.75,-169.86 2452.49,-163.94"/>
</g>
<!-- Node60&#45;&gt;Node40 -->
<g id="edge125" class="edge">
<title>Node60&#45;&gt;Node40</title>
<path fill="none" stroke="midnightblue" d="M2574.44,-216.33C2603.77,-202.78 2651.32,-180.81 2683.84,-165.79"/>
<polygon fill="midnightblue" stroke="midnightblue" points="2685.39,-168.93 2693,-161.55 2682.45,-162.57 2685.39,-168.93"/>
</g>
<!-- Node60&#45;&gt;Node49 -->
<g id="edge127" class="edge">
<title>Node60&#45;&gt;Node49</title>
<path fill="none" stroke="midnightblue" d="M2547.94,-216.16C2547.79,-204.33 2547.56,-186.21 2547.37,-171.84"/>
<polygon fill="midnightblue" stroke="midnightblue" points="2550.87,-171.71 2547.25,-161.76 2543.87,-171.8 2550.87,-171.71"/>
</g>
<!-- Node61&#45;&gt;Node5 -->
<g id="edge132" class="edge">
<title>Node61&#45;&gt;Node5</title>
<path fill="none" stroke="midnightblue" d="M1371.36,-441.34C1392.36,-406.62 1453.63,-308.18 1485.09,-288 1493.88,-282.37 1611.35,-259.59 1691.87,-244.45"/>
<polygon fill="midnightblue" stroke="midnightblue" points="1692.81,-247.83 1701.99,-242.55 1691.52,-240.95 1692.81,-247.83"/>
</g>
<!-- Node61&#45;&gt;Node9 -->
<g id="edge138" class="edge">
<title>Node61&#45;&gt;Node9</title>
<path fill="none" stroke="midnightblue" d="M1315.84,-451.29C1155.33,-443.75 645.55,-418.31 575.09,-396 523.21,-379.58 503.67,-375.83 470.09,-333 446.85,-303.35 450.71,-289.25 445.09,-252 432.34,-167.45 415.42,-117.77 481.09,-63 535.91,-17.28 1044.39,-14.28 1192.06,-14.37"/>
<polygon fill="midnightblue" stroke="midnightblue" points="1192.45,-17.87 1202.46,-14.39 1192.46,-10.87 1192.45,-17.87"/>
</g>
<!-- Node61&#45;&gt;Node13 -->
<g id="edge137" class="edge">
<title>Node61&#45;&gt;Node13</title>
<path fill="none" stroke="midnightblue" d="M1315.91,-451.27C1140.02,-442.99 540.91,-413.64 504.09,-396 360.67,-327.3 320.13,-107.7 310.64,-36.8"/>
<polygon fill="midnightblue" stroke="midnightblue" points="314.1,-36.23 309.37,-26.74 307.15,-37.1 314.1,-36.23"/>
</g>
<!-- Node61&#45;&gt;Node25 -->
<g id="edge134" class="edge">
<title>Node61&#45;&gt;Node25</title>
<path fill="none" stroke="midnightblue" d="M1362.3,-441.39C1359.11,-419.79 1352.33,-373.98 1347.74,-342.96"/>
<polygon fill="midnightblue" stroke="midnightblue" points="1351.15,-342.04 1346.22,-332.66 1344.22,-343.07 1351.15,-342.04"/>
</g>
<!-- Node61&#45;&gt;Node53 -->
<g id="edge133" class="edge">
<title>Node61&#45;&gt;Node53</title>
<path fill="none" stroke="midnightblue" d="M1348.23,-441.38C1307.35,-410.76 1194.08,-329.74 1087.09,-288 1086.01,-287.58 989.83,-267.58 911.32,-251.28"/>
<polygon fill="midnightblue" stroke="midnightblue" points="911.85,-247.82 901.35,-249.21 910.43,-254.67 911.85,-247.82"/>
</g>
<!-- Node61&#45;&gt;Node56 -->
<g id="edge135" class="edge">
<title>Node61&#45;&gt;Node56</title>
<path fill="none" stroke="midnightblue" d="M1403.86,-441.5C1417.45,-437.85 1432.83,-434.22 1447.09,-432 1742.05,-386 2099.5,-382.16 2245.78,-382.77"/>
<polygon fill="midnightblue" stroke="midnightblue" points="2245.93,-386.27 2255.94,-382.82 2245.96,-379.27 2245.93,-386.27"/>
</g>
<!-- Node61&#45;&gt;Node60 -->
<g id="edge136" class="edge">
<title>Node61&#45;&gt;Node60</title>
<path fill="none" stroke="midnightblue" d="M1407.88,-441.49C1420.49,-438.22 1434.3,-434.8 1447.09,-432 1889.51,-335.15 2005.93,-340.54 2450.09,-252 2462.29,-249.57 2475.31,-246.82 2487.74,-244.12"/>
<polygon fill="midnightblue" stroke="midnightblue" points="2488.54,-247.53 2497.56,-241.97 2487.04,-240.69 2488.54,-247.53"/>
</g>
<!-- Node64&#45;&gt;Node7 -->
<g id="edge152" class="edge">
<title>Node64&#45;&gt;Node7</title>
<path fill="none" stroke="midnightblue" d="M3405.56,-576.31C3415.4,-553.23 3435.09,-501.34 3435.09,-455.5 3435.09,-455.5 3435.09,-455.5 3435.09,-309.5 3435.09,-265.45 3392.79,-155.52 3360.09,-126 3342.7,-110.3 3284.64,-95.63 3242.29,-86.62"/>
<polygon fill="midnightblue" stroke="midnightblue" points="3242.95,-83.18 3232.44,-84.56 3241.52,-90.03 3242.95,-83.18"/>
</g>
</g>
</svg>
