<?xml version="1.0" encoding="UTF-8" standalone="no"?>
<!DOCTYPE svg PUBLIC "-//W3C//DTD SVG 1.1//EN"
 "http://www.w3.org/Graphics/SVG/1.1/DTD/svg11.dtd">
<!-- Generated by graphviz version 2.43.0 (0)
 -->
<!-- Title: Illumination&#45;Engine/src/GraphicsModule/CommandBuffer/IECommandPool.hpp Pages: 1 -->
<svg width="3582pt" height="269pt"
 viewBox="0.00 0.00 3582.00 269.00" xmlns="http://www.w3.org/2000/svg" xmlns:xlink="http://www.w3.org/1999/xlink">
<g id="graph0" class="graph" transform="scale(1 1) rotate(0) translate(4 265)">
<title>Illumination&#45;Engine/src/GraphicsModule/CommandBuffer/IECommandPool.hpp</title>
<polygon fill="white" stroke="transparent" points="-4,4 -4,-265 3578,-265 3578,4 -4,4"/>
<!-- Node1 -->
<g id="node1" class="node">
<title>Node1</title>
<g id="a_node1"><a xlink:title=" ">
<polygon fill="#bfbfbf" stroke="black" points="820.5,-198.5 820.5,-260.5 1105.5,-260.5 1105.5,-198.5 820.5,-198.5"/>
<text text-anchor="start" x="828.5" y="-243.7" font-family="Source Sans Pro" font-size="16.00">Illumination&#45;Engine</text>
<text text-anchor="start" x="828.5" y="-225.7" font-family="Source Sans Pro" font-size="16.00">/src/GraphicsModule</text>
<text text-anchor="middle" x="963" y="-207.7" font-family="Source Sans Pro" font-size="16.00">/CommandBuffer/IECommandPool.hpp</text>
</a>
</g>
</g>
<!-- Node2 -->
<g id="node2" class="node">
<title>Node2</title>
<g id="a_node2"><a xlink:href="_i_e_command_pool_8cpp.html" target="_top" xlink:title=" ">
<polygon fill="white" stroke="black" points="0,-0.5 0,-62.5 284,-62.5 284,-0.5 0,-0.5"/>
<text text-anchor="start" x="8" y="-45.7" font-family="Source Sans Pro" font-size="16.00">Illumination&#45;Engine</text>
<text text-anchor="start" x="8" y="-27.7" font-family="Source Sans Pro" font-size="16.00">/src/GraphicsModule</text>
<text text-anchor="middle" x="142" y="-9.7" font-family="Source Sans Pro" font-size="16.00">/CommandBuffer/IECommandPool.cpp</text>
</a>
</g>
</g>
<!-- Node1&#45;&gt;Node2 -->
<g id="edge1" class="edge">
<title>Node1&#45;&gt;Node2</title>
<path fill="none" stroke="midnightblue" d="M826.86,-196C671.32,-158.87 418.84,-98.59 267.76,-62.52"/>
<polygon fill="midnightblue" stroke="midnightblue" points="826.43,-199.49 836.97,-198.41 828.05,-192.69 826.43,-199.49"/>
</g>
<!-- Node3 -->
<g id="node3" class="node">
<title>Node3</title>
<g id="a_node3"><a xlink:href="_i_e_render_engine_8hpp.html" target="_top" xlink:title=" ">
<polygon fill="white" stroke="black" points="1597.5,-99.5 1597.5,-161.5 1758.5,-161.5 1758.5,-99.5 1597.5,-99.5"/>
<text text-anchor="start" x="1605.5" y="-144.7" font-family="Source Sans Pro" font-size="16.00">Illumination&#45;Engine</text>
<text text-anchor="start" x="1605.5" y="-126.7" font-family="Source Sans Pro" font-size="16.00">/src/GraphicsModule</text>
<text text-anchor="middle" x="1678" y="-108.7" font-family="Source Sans Pro" font-size="16.00">/IERenderEngine.hpp</text>
</a>
</g>
</g>
<!-- Node1&#45;&gt;Node3 -->
<g id="edge2" class="edge">
<title>Node1&#45;&gt;Node3</title>
<path fill="none" stroke="midnightblue" d="M1115.6,-207.8C1263.08,-187.79 1480.8,-158.25 1597.36,-142.44"/>
<polygon fill="midnightblue" stroke="midnightblue" points="1114.98,-204.35 1105.54,-209.16 1115.92,-211.29 1114.98,-204.35"/>
</g>
<!-- Node3&#45;&gt;Node2 -->
<g id="edge5" class="edge">
<title>Node3&#45;&gt;Node2</title>
<path fill="none" stroke="midnightblue" d="M1586.65,-125.92C1298.54,-114.51 420.5,-78.85 293,-63 290.08,-62.64 287.13,-62.25 284.17,-61.84"/>
<polygon fill="midnightblue" stroke="midnightblue" points="1586.92,-129.43 1597.06,-126.33 1587.2,-122.44 1586.92,-129.43"/>
</g>
<!-- Node4 -->
<g id="node4" class="node">
<title>Node4</title>
<g id="a_node4"><a xlink:href="_i_e_buffer_8cpp.html" target="_top" xlink:title=" ">
<polygon fill="white" stroke="black" points="302.5,-0.5 302.5,-62.5 459.5,-62.5 459.5,-0.5 302.5,-0.5"/>
<text text-anchor="start" x="310.5" y="-45.7" font-family="Source Sans Pro" font-size="16.00">Illumination&#45;Engine</text>
<text text-anchor="start" x="310.5" y="-27.7" font-family="Source Sans Pro" font-size="16.00">/src/GraphicsModule</text>
<text text-anchor="middle" x="381" y="-9.7" font-family="Source Sans Pro" font-size="16.00">/Buffer/IEBuffer.cpp</text>
</a>
</g>
</g>
<!-- Node3&#45;&gt;Node4 -->
<g id="edge3" class="edge">
<title>Node3&#45;&gt;Node4</title>
<path fill="none" stroke="midnightblue" d="M1586.98,-125.98C1324.27,-115.61 576.56,-84.56 468,-63 465.33,-62.47 462.63,-61.88 459.92,-61.23"/>
<polygon fill="midnightblue" stroke="midnightblue" points="1587.12,-129.49 1597.25,-126.38 1587.39,-122.49 1587.12,-129.49"/>
</g>
<!-- Node5 -->
<g id="node5" class="node">
<title>Node5</title>
<g id="a_node5"><a xlink:href="_i_e_command_buffer_8cpp.html" target="_top" xlink:title=" ">
<polygon fill="white" stroke="black" points="477.5,-0.5 477.5,-62.5 770.5,-62.5 770.5,-0.5 477.5,-0.5"/>
<text text-anchor="start" x="485.5" y="-45.7" font-family="Source Sans Pro" font-size="16.00">Illumination&#45;Engine</text>
<text text-anchor="start" x="485.5" y="-27.7" font-family="Source Sans Pro" font-size="16.00">/src/GraphicsModule</text>
<text text-anchor="middle" x="624" y="-9.7" font-family="Source Sans Pro" font-size="16.00">/CommandBuffer/IECommandBuffer.cpp</text>
</a>
</g>
</g>
<!-- Node3&#45;&gt;Node5 -->
<g id="edge4" class="edge">
<title>Node3&#45;&gt;Node5</title>
<path fill="none" stroke="midnightblue" d="M1586.94,-126.39C1424.17,-120.03 1072.86,-102.63 779,-63 776.28,-62.63 773.54,-62.25 770.78,-61.85"/>
<polygon fill="midnightblue" stroke="midnightblue" points="1587.25,-129.91 1597.38,-126.79 1587.52,-122.91 1587.25,-129.91"/>
</g>
<!-- Node6 -->
<g id="node6" class="node">
<title>Node6</title>
<g id="a_node6"><a xlink:href="_i_e_a_p_i_8cpp.html" target="_top" xlink:title=" ">
<polygon fill="white" stroke="black" points="788.5,-0.5 788.5,-62.5 945.5,-62.5 945.5,-0.5 788.5,-0.5"/>
<text text-anchor="start" x="796.5" y="-45.7" font-family="Source Sans Pro" font-size="16.00">Illumination&#45;Engine</text>
<text text-anchor="start" x="796.5" y="-27.7" font-family="Source Sans Pro" font-size="16.00">/src/GraphicsModule</text>
<text text-anchor="middle" x="867" y="-9.7" font-family="Source Sans Pro" font-size="16.00">/IEAPI.cpp</text>
</a>
</g>
</g>
<!-- Node3&#45;&gt;Node6 -->
<g id="edge6" class="edge">
<title>Node3&#45;&gt;Node6</title>
<path fill="none" stroke="midnightblue" d="M1587.36,-128.28C1449.18,-124.84 1178.25,-111.83 954,-63 951.34,-62.42 948.65,-61.78 945.95,-61.1"/>
<polygon fill="midnightblue" stroke="midnightblue" points="1587.4,-131.79 1597.48,-128.53 1587.56,-124.79 1587.4,-131.79"/>
</g>
<!-- Node7 -->
<g id="node7" class="node">
<title>Node7</title>
<g id="a_node7"><a xlink:href="_i_e_camera_8cpp.html" target="_top" xlink:title=" ">
<polygon fill="white" stroke="black" points="963.5,-0.5 963.5,-62.5 1120.5,-62.5 1120.5,-0.5 963.5,-0.5"/>
<text text-anchor="start" x="971.5" y="-45.7" font-family="Source Sans Pro" font-size="16.00">Illumination&#45;Engine</text>
<text text-anchor="start" x="971.5" y="-27.7" font-family="Source Sans Pro" font-size="16.00">/src/GraphicsModule</text>
<text text-anchor="middle" x="1042" y="-9.7" font-family="Source Sans Pro" font-size="16.00">/IECamera.cpp</text>
</a>
</g>
</g>
<!-- Node3&#45;&gt;Node7 -->
<g id="edge7" class="edge">
<title>Node3&#45;&gt;Node7</title>
<path fill="none" stroke="midnightblue" d="M1587,-124.53C1477.23,-117.14 1287.68,-99.96 1129,-63 1126.35,-62.38 1123.67,-61.71 1120.97,-61"/>
<polygon fill="midnightblue" stroke="midnightblue" points="1586.83,-128.02 1597.04,-125.19 1587.29,-121.04 1586.83,-128.02"/>
</g>
<!-- Node8 -->
<g id="node8" class="node">
<title>Node8</title>
<g id="a_node8"><a xlink:href="_i_e_render_engine_8cpp.html" target="_top" xlink:title=" ">
<polygon fill="white" stroke="black" points="1138.5,-0.5 1138.5,-62.5 1297.5,-62.5 1297.5,-0.5 1138.5,-0.5"/>
<text text-anchor="start" x="1146.5" y="-45.7" font-family="Source Sans Pro" font-size="16.00">Illumination&#45;Engine</text>
<text text-anchor="start" x="1146.5" y="-27.7" font-family="Source Sans Pro" font-size="16.00">/src/GraphicsModule</text>
<text text-anchor="middle" x="1218" y="-9.7" font-family="Source Sans Pro" font-size="16.00">/IERenderEngine.cpp</text>
</a>
</g>
</g>
<!-- Node3&#45;&gt;Node8 -->
<g id="edge8" class="edge">
<title>Node3&#45;&gt;Node8</title>
<path fill="none" stroke="midnightblue" d="M1587.39,-117.36C1511.53,-106.23 1400.78,-87.73 1306,-63 1303.34,-62.31 1300.65,-61.57 1297.93,-60.8"/>
<polygon fill="midnightblue" stroke="midnightblue" points="1586.99,-120.84 1597.39,-118.82 1588,-113.91 1586.99,-120.84"/>
</g>
<!-- Node9 -->
<g id="node9" class="node">
<title>Node9</title>
<g id="a_node9"><a xlink:href="_i_e_image_8cpp.html" target="_top" xlink:title=" ">
<polygon fill="white" stroke="black" points="1315.5,-0.5 1315.5,-62.5 1472.5,-62.5 1472.5,-0.5 1315.5,-0.5"/>
<text text-anchor="start" x="1323.5" y="-45.7" font-family="Source Sans Pro" font-size="16.00">Illumination&#45;Engine</text>
<text text-anchor="start" x="1323.5" y="-27.7" font-family="Source Sans Pro" font-size="16.00">/src/GraphicsModule</text>
<text text-anchor="middle" x="1394" y="-9.7" font-family="Source Sans Pro" font-size="16.00">/Image/IEImage.cpp</text>
</a>
</g>
</g>
<!-- Node3&#45;&gt;Node9 -->
<g id="edge9" class="edge">
<title>Node3&#45;&gt;Node9</title>
<path fill="none" stroke="midnightblue" d="M1587.64,-99.24C1554.12,-87.95 1515.79,-74.97 1481,-63 1478.28,-62.06 1475.5,-61.11 1472.71,-60.14"/>
<polygon fill="midnightblue" stroke="midnightblue" points="1586.82,-102.66 1597.42,-102.53 1589.05,-96.03 1586.82,-102.66"/>
</g>
<!-- Node10 -->
<g id="node10" class="node">
<title>Node10</title>
<g id="a_node10"><a xlink:href="_i_e_texture_8cpp.html" target="_top" xlink:title=" ">
<polygon fill="white" stroke="black" points="1490.5,-0.5 1490.5,-62.5 1651.5,-62.5 1651.5,-0.5 1490.5,-0.5"/>
<text text-anchor="start" x="1498.5" y="-45.7" font-family="Source Sans Pro" font-size="16.00">Illumination&#45;Engine</text>
<text text-anchor="start" x="1498.5" y="-27.7" font-family="Source Sans Pro" font-size="16.00">/src/GraphicsModule</text>
<text text-anchor="middle" x="1571" y="-9.7" font-family="Source Sans Pro" font-size="16.00">/Image/IETexture.cpp</text>
</a>
</g>
</g>
<!-- Node3&#45;&gt;Node10 -->
<g id="edge10" class="edge">
<title>Node3&#45;&gt;Node10</title>
<path fill="none" stroke="midnightblue" d="M1637.31,-92.62C1626.39,-82.72 1614.71,-72.13 1604.25,-62.64"/>
<polygon fill="midnightblue" stroke="midnightblue" points="1634.97,-95.22 1644.73,-99.34 1639.67,-90.03 1634.97,-95.22"/>
</g>
<!-- Node11 -->
<g id="node11" class="node">
<title>Node11</title>
<g id="a_node11"><a xlink:href="_i_e_framebuffer_8cpp.html" target="_top" xlink:title=" ">
<polygon fill="white" stroke="black" points="1670,-0.5 1670,-62.5 1900,-62.5 1900,-0.5 1670,-0.5"/>
<text text-anchor="start" x="1678" y="-45.7" font-family="Source Sans Pro" font-size="16.00">Illumination&#45;Engine</text>
<text text-anchor="start" x="1678" y="-27.7" font-family="Source Sans Pro" font-size="16.00">/src/GraphicsModule</text>
<text text-anchor="middle" x="1785" y="-9.7" font-family="Source Sans Pro" font-size="16.00">/RenderPass/IEFramebuffer.cpp</text>
</a>
</g>
</g>
<!-- Node3&#45;&gt;Node11 -->
<g id="edge11" class="edge">
<title>Node3&#45;&gt;Node11</title>
<path fill="none" stroke="midnightblue" d="M1718.69,-92.62C1729.61,-82.72 1741.29,-72.13 1751.75,-62.64"/>
<polygon fill="midnightblue" stroke="midnightblue" points="1716.33,-90.03 1711.27,-99.34 1721.03,-95.22 1716.33,-90.03"/>
</g>
<!-- Node12 -->
<g id="node12" class="node">
<title>Node12</title>
<g id="a_node12"><a xlink:href="_i_e_render_pass_8cpp.html" target="_top" xlink:title=" ">
<polygon fill="white" stroke="black" points="1918.5,-0.5 1918.5,-62.5 2145.5,-62.5 2145.5,-0.5 1918.5,-0.5"/>
<text text-anchor="start" x="1926.5" y="-45.7" font-family="Source Sans Pro" font-size="16.00">Illumination&#45;Engine</text>
<text text-anchor="start" x="1926.5" y="-27.7" font-family="Source Sans Pro" font-size="16.00">/src/GraphicsModule</text>
<text text-anchor="middle" x="2032" y="-9.7" font-family="Source Sans Pro" font-size="16.00">/RenderPass/IERenderPass.cpp</text>
</a>
</g>
</g>
<!-- Node3&#45;&gt;Node12 -->
<g id="edge12" class="edge">
<title>Node3&#45;&gt;Node12</title>
<path fill="none" stroke="midnightblue" d="M1768.6,-104.67C1815.47,-91.83 1873.04,-76.06 1922.39,-62.53"/>
<polygon fill="midnightblue" stroke="midnightblue" points="1767.49,-101.35 1758.77,-107.37 1769.34,-108.1 1767.49,-101.35"/>
</g>
<!-- Node13 -->
<g id="node13" class="node">
<title>Node13</title>
<g id="a_node13"><a xlink:href="_i_e_material_8cpp.html" target="_top" xlink:title=" ">
<polygon fill="white" stroke="black" points="2163.5,-0.5 2163.5,-62.5 2364.5,-62.5 2364.5,-0.5 2163.5,-0.5"/>
<text text-anchor="start" x="2171.5" y="-45.7" font-family="Source Sans Pro" font-size="16.00">Illumination&#45;Engine</text>
<text text-anchor="start" x="2171.5" y="-27.7" font-family="Source Sans Pro" font-size="16.00">/src/GraphicsModule</text>
<text text-anchor="middle" x="2264" y="-9.7" font-family="Source Sans Pro" font-size="16.00">/Renderable/IEMaterial.cpp</text>
</a>
</g>
</g>
<!-- Node3&#45;&gt;Node13 -->
<g id="edge13" class="edge">
<title>Node3&#45;&gt;Node13</title>
<path fill="none" stroke="midnightblue" d="M1768.75,-120.52C1865.18,-110.12 2021.8,-90.79 2155,-63 2157.79,-62.42 2160.61,-61.8 2163.46,-61.16"/>
<polygon fill="midnightblue" stroke="midnightblue" points="1768.32,-117.05 1758.75,-121.59 1769.06,-124.01 1768.32,-117.05"/>
</g>
<!-- Node14 -->
<g id="node14" class="node">
<title>Node14</title>
<g id="a_node14"><a xlink:href="_i_e_mesh_8cpp.html" target="_top" xlink:title=" ">
<polygon fill="white" stroke="black" points="2382.5,-0.5 2382.5,-62.5 2565.5,-62.5 2565.5,-0.5 2382.5,-0.5"/>
<text text-anchor="start" x="2390.5" y="-45.7" font-family="Source Sans Pro" font-size="16.00">Illumination&#45;Engine</text>
<text text-anchor="start" x="2390.5" y="-27.7" font-family="Source Sans Pro" font-size="16.00">/src/GraphicsModule</text>
<text text-anchor="middle" x="2474" y="-9.7" font-family="Source Sans Pro" font-size="16.00">/Renderable/IEMesh.cpp</text>
</a>
</g>
</g>
<!-- Node3&#45;&gt;Node14 -->
<g id="edge14" class="edge">
<title>Node3&#45;&gt;Node14</title>
<path fill="none" stroke="midnightblue" d="M1768.8,-126.63C1902.49,-121.11 2159.61,-105.49 2374,-63 2376.76,-62.45 2379.55,-61.86 2382.36,-61.23"/>
<polygon fill="midnightblue" stroke="midnightblue" points="1768.46,-123.14 1758.61,-127.04 1768.74,-130.14 1768.46,-123.14"/>
</g>
<!-- Node15 -->
<g id="node15" class="node">
<title>Node15</title>
<g id="a_node15"><a xlink:href="_i_e_renderable_8cpp.html" target="_top" xlink:title=" ">
<polygon fill="white" stroke="black" points="2583.5,-0.5 2583.5,-62.5 2808.5,-62.5 2808.5,-0.5 2583.5,-0.5"/>
<text text-anchor="start" x="2591.5" y="-45.7" font-family="Source Sans Pro" font-size="16.00">Illumination&#45;Engine</text>
<text text-anchor="start" x="2591.5" y="-27.7" font-family="Source Sans Pro" font-size="16.00">/src/GraphicsModule</text>
<text text-anchor="middle" x="2696" y="-9.7" font-family="Source Sans Pro" font-size="16.00">/Renderable/IERenderable.cpp</text>
</a>
</g>
</g>
<!-- Node3&#45;&gt;Node15 -->
<g id="edge15" class="edge">
<title>Node3&#45;&gt;Node15</title>
<path fill="none" stroke="midnightblue" d="M1769.09,-127.94C1931.86,-124 2282.94,-110.27 2575,-63 2577.78,-62.55 2580.59,-62.07 2583.42,-61.56"/>
<polygon fill="midnightblue" stroke="midnightblue" points="1768.56,-124.45 1758.65,-128.18 1768.73,-131.45 1768.56,-124.45"/>
</g>
<!-- Node16 -->
<g id="node16" class="node">
<title>Node16</title>
<g id="a_node16"><a xlink:href="_i_e_descriptor_set_8cpp.html" target="_top" xlink:title=" ">
<polygon fill="white" stroke="black" points="2826.5,-0.5 2826.5,-62.5 3033.5,-62.5 3033.5,-0.5 2826.5,-0.5"/>
<text text-anchor="start" x="2834.5" y="-45.7" font-family="Source Sans Pro" font-size="16.00">Illumination&#45;Engine</text>
<text text-anchor="start" x="2834.5" y="-27.7" font-family="Source Sans Pro" font-size="16.00">/src/GraphicsModule</text>
<text text-anchor="middle" x="2930" y="-9.7" font-family="Source Sans Pro" font-size="16.00">/Shader/IEDescriptorSet.cpp</text>
</a>
</g>
</g>
<!-- Node3&#45;&gt;Node16 -->
<g id="edge16" class="edge">
<title>Node3&#45;&gt;Node16</title>
<path fill="none" stroke="midnightblue" d="M1769.04,-126.63C2002.21,-118.89 2616.66,-95.92 2818,-63 2820.78,-62.54 2823.6,-62.05 2826.43,-61.52"/>
<polygon fill="midnightblue" stroke="midnightblue" points="1768.77,-123.14 1758.9,-126.97 1769.01,-130.13 1768.77,-123.14"/>
</g>
<!-- Node17 -->
<g id="node17" class="node">
<title>Node17</title>
<g id="a_node17"><a xlink:href="_i_e_pipeline_8cpp.html" target="_top" xlink:title=" ">
<polygon fill="white" stroke="black" points="3052,-0.5 3052,-62.5 3224,-62.5 3224,-0.5 3052,-0.5"/>
<text text-anchor="start" x="3060" y="-45.7" font-family="Source Sans Pro" font-size="16.00">Illumination&#45;Engine</text>
<text text-anchor="start" x="3060" y="-27.7" font-family="Source Sans Pro" font-size="16.00">/src/GraphicsModule</text>
<text text-anchor="middle" x="3138" y="-9.7" font-family="Source Sans Pro" font-size="16.00">/Shader/IEPipeline.cpp</text>
</a>
</g>
</g>
<!-- Node3&#45;&gt;Node17 -->
<g id="edge17" class="edge">
<title>Node3&#45;&gt;Node17</title>
<path fill="none" stroke="midnightblue" d="M1768.98,-128.17C2033.2,-123.82 2797.37,-107.61 3043,-63 3045.9,-62.47 3048.83,-61.88 3051.78,-61.24"/>
<polygon fill="midnightblue" stroke="midnightblue" points="1768.6,-124.68 1758.66,-128.34 1768.71,-131.67 1768.6,-124.68"/>
</g>
<!-- Node18 -->
<g id="node18" class="node">
<title>Node18</title>
<g id="a_node18"><a xlink:href="_i_e_shader_8cpp.html" target="_top" xlink:title=" ">
<polygon fill="white" stroke="black" points="3242,-0.5 3242,-62.5 3406,-62.5 3406,-0.5 3242,-0.5"/>
<text text-anchor="start" x="3250" y="-45.7" font-family="Source Sans Pro" font-size="16.00">Illumination&#45;Engine</text>
<text text-anchor="start" x="3250" y="-27.7" font-family="Source Sans Pro" font-size="16.00">/src/GraphicsModule</text>
<text text-anchor="middle" x="3324" y="-9.7" font-family="Source Sans Pro" font-size="16.00">/Shader/IEShader.cpp</text>
</a>
</g>
</g>
<!-- Node3&#45;&gt;Node18 -->
<g id="edge18" class="edge">
<title>Node3&#45;&gt;Node18</title>
<path fill="none" stroke="midnightblue" d="M1768.94,-128.95C2057.39,-126.69 2949.39,-115.51 3233,-63 3235.95,-62.45 3238.93,-61.83 3241.93,-61.15"/>
<polygon fill="midnightblue" stroke="midnightblue" points="1768.5,-125.45 1758.53,-129.03 1768.56,-132.45 1768.5,-125.45"/>
</g>
<!-- Node19 -->
<g id="node19" class="node">
<title>Node19</title>
<g id="a_node19"><a xlink:href="main_8cpp.html" target="_top" xlink:title=" ">
<polygon fill="white" stroke="black" points="3424,-9.5 3424,-53.5 3574,-53.5 3574,-9.5 3424,-9.5"/>
<text text-anchor="start" x="3432" y="-36.7" font-family="Source Sans Pro" font-size="16.00">Illumination&#45;Engine</text>
<text text-anchor="middle" x="3499" y="-18.7" font-family="Source Sans Pro" font-size="16.00">/src/main.cpp</text>
</a>
</g>
</g>
<!-- Node3&#45;&gt;Node19 -->
<g id="edge19" class="edge">
<title>Node3&#45;&gt;Node19</title>
<path fill="none" stroke="midnightblue" d="M1768.88,-129.72C2079.18,-129.9 3095.26,-125.58 3415,-63 3426.11,-60.82 3437.72,-57.41 3448.64,-53.64"/>
<polygon fill="midnightblue" stroke="midnightblue" points="1768.58,-126.22 1758.58,-129.71 1768.58,-133.22 1768.58,-126.22"/>
</g>
</g>
</svg>
