<?xml version="1.0" encoding="UTF-8" standalone="no"?>
<!DOCTYPE svg PUBLIC "-//W3C//DTD SVG 1.1//EN"
 "http://www.w3.org/Graphics/SVG/1.1/DTD/svg11.dtd">
<!-- Generated by graphviz version 2.43.0 (0)
 -->
<!-- Title: Illumination&#45;Engine/src/Core/AssetModule/IEAspect.hpp Pages: 1 -->
<svg width="233pt" height="134pt"
 viewBox="0.00 0.00 232.50 134.00" xmlns="http://www.w3.org/2000/svg" xmlns:xlink="http://www.w3.org/1999/xlink">
<g id="graph0" class="graph" transform="scale(1 1) rotate(0) translate(4 130)">
<title>Illumination&#45;Engine/src/Core/AssetModule/IEAspect.hpp</title>
<polygon fill="white" stroke="transparent" points="-4,4 -4,-130 228.5,-130 228.5,4 -4,4"/>
<!-- Node1 -->
<g id="node1" class="node">
<title>Node1</title>
<g id="a_node1"><a xlink:title=" ">
<polygon fill="#bfbfbf" stroke="black" points="35,-63.5 35,-125.5 205,-125.5 205,-63.5 35,-63.5"/>
<text text-anchor="start" x="43" y="-108.7" font-family="Source Sans Pro" font-size="16.00">Illumination&#45;Engine</text>
<text text-anchor="start" x="43" y="-90.7" font-family="Source Sans Pro" font-size="16.00">/src/Core/AssetModule</text>
<text text-anchor="middle" x="120" y="-72.7" font-family="Source Sans Pro" font-size="16.00">/IEAspect.hpp</text>
</a>
</g>
</g>
<!-- Node2 -->
<g id="node2" class="node">
<title>Node2</title>
<g id="a_node2"><a xlink:title=" ">
<polygon fill="white" stroke="#bfbfbf" points="0,-0.5 0,-26.5 74,-26.5 74,-0.5 0,-0.5"/>
<text text-anchor="middle" x="37" y="-9.7" font-family="Source Sans Pro" font-size="16.00">memory</text>
</a>
</g>
</g>
<!-- Node1&#45;&gt;Node2 -->
<g id="edge1" class="edge">
<title>Node1&#45;&gt;Node2</title>
<path fill="none" stroke="midnightblue" d="M88.15,-63.18C77.72,-53.26 66.43,-42.51 57.12,-33.65"/>
<polygon fill="midnightblue" stroke="midnightblue" points="59.48,-31.06 49.82,-26.7 54.65,-36.13 59.48,-31.06"/>
</g>
<!-- Node3 -->
<g id="node3" class="node">
<title>Node3</title>
<g id="a_node3"><a xlink:title=" ">
<polygon fill="white" stroke="#bfbfbf" points="92.5,-0.5 92.5,-26.5 147.5,-26.5 147.5,-0.5 92.5,-0.5"/>
<text text-anchor="middle" x="120" y="-9.7" font-family="Source Sans Pro" font-size="16.00">string</text>
</a>
</g>
</g>
<!-- Node1&#45;&gt;Node3 -->
<g id="edge2" class="edge">
<title>Node1&#45;&gt;Node3</title>
<path fill="none" stroke="midnightblue" d="M120,-63.18C120,-54.45 120,-45.08 120,-36.91"/>
<polygon fill="midnightblue" stroke="midnightblue" points="123.5,-36.7 120,-26.7 116.5,-36.7 123.5,-36.7"/>
</g>
<!-- Node4 -->
<g id="node4" class="node">
<title>Node4</title>
<g id="a_node4"><a xlink:title=" ">
<polygon fill="white" stroke="#bfbfbf" points="165.5,-0.5 165.5,-26.5 224.5,-26.5 224.5,-0.5 165.5,-0.5"/>
<text text-anchor="middle" x="195" y="-9.7" font-family="Source Sans Pro" font-size="16.00">vector</text>
</a>
</g>
</g>
<!-- Node1&#45;&gt;Node4 -->
<g id="edge3" class="edge">
<title>Node1&#45;&gt;Node4</title>
<path fill="none" stroke="midnightblue" d="M148.78,-63.18C158.02,-53.45 168,-42.94 176.32,-34.18"/>
<polygon fill="midnightblue" stroke="midnightblue" points="179.07,-36.37 183.41,-26.7 173.99,-31.55 179.07,-36.37"/>
</g>
</g>
</svg>
