<?xml version="1.0" encoding="UTF-8" standalone="no"?>
<!DOCTYPE svg PUBLIC "-//W3C//DTD SVG 1.1//EN"
 "http://www.w3.org/Graphics/SVG/1.1/DTD/svg11.dtd">
<!-- Generated by graphviz version 2.43.0 (0)
 -->
<!-- Title: Illumination&#45;Engine/src/GraphicsModule/Image/IEImageNEW.hpp Pages: 1 -->
<svg width="427pt" height="134pt"
 viewBox="0.00 0.00 426.50 134.00" xmlns="http://www.w3.org/2000/svg" xmlns:xlink="http://www.w3.org/1999/xlink">
<g id="graph0" class="graph" transform="scale(1 1) rotate(0) translate(4 130)">
<title>Illumination&#45;Engine/src/GraphicsModule/Image/IEImageNEW.hpp</title>
<polygon fill="white" stroke="transparent" points="-4,4 -4,-130 422.5,-130 422.5,4 -4,4"/>
<!-- Node1 -->
<g id="node1" class="node">
<title>Node1</title>
<g id="a_node1"><a xlink:title=" ">
<polygon fill="#bfbfbf" stroke="black" points="140.5,-63.5 140.5,-125.5 325.5,-125.5 325.5,-63.5 140.5,-63.5"/>
<text text-anchor="start" x="148.5" y="-108.7" font-family="Source Sans Pro" font-size="16.00">Illumination&#45;Engine</text>
<text text-anchor="start" x="148.5" y="-90.7" font-family="Source Sans Pro" font-size="16.00">/src/GraphicsModule</text>
<text text-anchor="middle" x="233" y="-72.7" font-family="Source Sans Pro" font-size="16.00">/Image/IEImageNEW.hpp</text>
</a>
</g>
</g>
<!-- Node2 -->
<g id="node2" class="node">
<title>Node2</title>
<g id="a_node2"><a xlink:title=" ">
<polygon fill="white" stroke="#bfbfbf" points="0,-0.5 0,-26.5 100,-26.5 100,-0.5 0,-0.5"/>
<text text-anchor="middle" x="50" y="-9.7" font-family="Source Sans Pro" font-size="16.00">stb_image.h</text>
</a>
</g>
</g>
<!-- Node1&#45;&gt;Node2 -->
<g id="edge1" class="edge">
<title>Node1&#45;&gt;Node2</title>
<path fill="none" stroke="midnightblue" d="M163.29,-63.41C137.43,-52.24 109.09,-40.01 87.23,-30.57"/>
<polygon fill="midnightblue" stroke="midnightblue" points="88.54,-27.33 77.98,-26.58 85.77,-33.75 88.54,-27.33"/>
</g>
<!-- Node3 -->
<g id="node3" class="node">
<title>Node3</title>
<g id="a_node3"><a xlink:title=" ">
<polygon fill="white" stroke="#bfbfbf" points="118.5,-0.5 118.5,-26.5 183.5,-26.5 183.5,-0.5 118.5,-0.5"/>
<text text-anchor="middle" x="151" y="-9.7" font-family="Source Sans Pro" font-size="16.00">cassert</text>
</a>
</g>
</g>
<!-- Node1&#45;&gt;Node3 -->
<g id="edge2" class="edge">
<title>Node1&#45;&gt;Node3</title>
<path fill="none" stroke="midnightblue" d="M201.53,-63.18C191.23,-53.26 180.07,-42.51 170.87,-33.65"/>
<polygon fill="midnightblue" stroke="midnightblue" points="173.3,-31.12 163.67,-26.7 168.44,-36.16 173.3,-31.12"/>
</g>
<!-- Node4 -->
<g id="node4" class="node">
<title>Node4</title>
<g id="a_node4"><a xlink:title=" ">
<polygon fill="white" stroke="#bfbfbf" points="201.5,-0.5 201.5,-26.5 264.5,-26.5 264.5,-0.5 201.5,-0.5"/>
<text text-anchor="middle" x="233" y="-9.7" font-family="Source Sans Pro" font-size="16.00">cstdint</text>
</a>
</g>
</g>
<!-- Node1&#45;&gt;Node4 -->
<g id="edge3" class="edge">
<title>Node1&#45;&gt;Node4</title>
<path fill="none" stroke="midnightblue" d="M233,-63.18C233,-54.45 233,-45.08 233,-36.91"/>
<polygon fill="midnightblue" stroke="midnightblue" points="236.5,-36.7 233,-26.7 229.5,-36.7 236.5,-36.7"/>
</g>
<!-- Node5 -->
<g id="node5" class="node">
<title>Node5</title>
<g id="a_node5"><a xlink:title=" ">
<polygon fill="white" stroke="#bfbfbf" points="282.5,-0.5 282.5,-26.5 341.5,-26.5 341.5,-0.5 282.5,-0.5"/>
<text text-anchor="middle" x="312" y="-9.7" font-family="Source Sans Pro" font-size="16.00">mutex</text>
</a>
</g>
</g>
<!-- Node1&#45;&gt;Node5 -->
<g id="edge4" class="edge">
<title>Node1&#45;&gt;Node5</title>
<path fill="none" stroke="midnightblue" d="M263.32,-63.18C273.14,-53.36 283.77,-42.73 292.59,-33.91"/>
<polygon fill="midnightblue" stroke="midnightblue" points="295.2,-36.25 299.8,-26.7 290.25,-31.3 295.2,-36.25"/>
</g>
<!-- Node6 -->
<g id="node6" class="node">
<title>Node6</title>
<g id="a_node6"><a xlink:title=" ">
<polygon fill="white" stroke="#bfbfbf" points="359.5,-0.5 359.5,-26.5 418.5,-26.5 418.5,-0.5 359.5,-0.5"/>
<text text-anchor="middle" x="389" y="-9.7" font-family="Source Sans Pro" font-size="16.00">vector</text>
</a>
</g>
</g>
<!-- Node1&#45;&gt;Node6 -->
<g id="edge5" class="edge">
<title>Node1&#45;&gt;Node6</title>
<path fill="none" stroke="midnightblue" d="M292.42,-63.41C313.98,-52.49 337.55,-40.56 356,-31.21"/>
<polygon fill="midnightblue" stroke="midnightblue" points="357.81,-34.22 365.15,-26.58 354.65,-27.97 357.81,-34.22"/>
</g>
</g>
</svg>
