<?xml version="1.0" encoding="UTF-8" standalone="no"?>
<!DOCTYPE svg PUBLIC "-//W3C//DTD SVG 1.1//EN"
 "http://www.w3.org/Graphics/SVG/1.1/DTD/svg11.dtd">
<!-- Generated by graphviz version 2.43.0 (0)
 -->
<!-- Title: Illumination&#45;Engine/src/GraphicsModule/Image/IEImageNEW.hpp Pages: 1 -->
<svg width="427pt" height="134pt"
 viewBox="0.00 0.00 426.50 134.00" xmlns="http://www.w3.org/2000/svg" xmlns:xlink="http://www.w3.org/1999/xlink">
<g id="graph0" class="graph" transform="scale(1 1) rotate(0) translate(4 130)">
<title>Illumination&#45;Engine/src/GraphicsModule/Image/IEImageNEW.hpp</title>
<polygon fill="white" stroke="transparent" points="-4,4 -4,-130 422.5,-130 422.5,4 -4,4"/>
<!-- Node1 -->
<g id="node1" class="node">
<title>Node1</title>
<g id="a_node1"><a xlink:title=" ">
<polygon fill="#bfbfbf" stroke="black" points="98,-63.5 98,-125.5 283,-125.5 283,-63.5 98,-63.5"/>
<text text-anchor="start" x="106" y="-108.7" font-family="Source Sans Pro" font-size="16.00">Illumination&#45;Engine</text>
<text text-anchor="start" x="106" y="-90.7" font-family="Source Sans Pro" font-size="16.00">/src/GraphicsModule</text>
<text text-anchor="middle" x="190.5" y="-72.7" font-family="Source Sans Pro" font-size="16.00">/Image/IEImageNEW.hpp</text>
</a>
</g>
</g>
<!-- Node2 -->
<g id="node2" class="node">
<title>Node2</title>
<g id="a_node2"><a xlink:title=" ">
<polygon fill="white" stroke="#bfbfbf" points="0,-0.5 0,-26.5 63,-26.5 63,-0.5 0,-0.5"/>
<text text-anchor="middle" x="31.5" y="-9.7" font-family="Source Sans Pro" font-size="16.00">cstdint</text>
</a>
</g>
</g>
<!-- Node1&#45;&gt;Node2 -->
<g id="edge1" class="edge">
<title>Node1&#45;&gt;Node2</title>
<path fill="none" stroke="midnightblue" d="M129.94,-63.41C107.86,-52.44 83.72,-40.45 64.87,-31.08"/>
<polygon fill="midnightblue" stroke="midnightblue" points="66.32,-27.89 55.81,-26.58 63.21,-34.16 66.32,-27.89"/>
</g>
<!-- Node3 -->
<g id="node3" class="node">
<title>Node3</title>
<g id="a_node3"><a xlink:title=" ">
<polygon fill="white" stroke="#bfbfbf" points="81,-0.5 81,-26.5 140,-26.5 140,-0.5 81,-0.5"/>
<text text-anchor="middle" x="110.5" y="-9.7" font-family="Source Sans Pro" font-size="16.00">mutex</text>
</a>
</g>
</g>
<!-- Node1&#45;&gt;Node3 -->
<g id="edge2" class="edge">
<title>Node1&#45;&gt;Node3</title>
<path fill="none" stroke="midnightblue" d="M159.8,-63.18C149.85,-53.36 139.08,-42.73 130.16,-33.91"/>
<polygon fill="midnightblue" stroke="midnightblue" points="132.43,-31.24 122.86,-26.7 127.51,-36.22 132.43,-31.24"/>
</g>
<!-- Node4 -->
<g id="node4" class="node">
<title>Node4</title>
<g id="a_node4"><a xlink:title=" ">
<polygon fill="white" stroke="#bfbfbf" points="158,-0.5 158,-26.5 223,-26.5 223,-0.5 158,-0.5"/>
<text text-anchor="middle" x="190.5" y="-9.7" font-family="Source Sans Pro" font-size="16.00">cassert</text>
</a>
</g>
</g>
<!-- Node1&#45;&gt;Node4 -->
<g id="edge3" class="edge">
<title>Node1&#45;&gt;Node4</title>
<path fill="none" stroke="midnightblue" d="M190.5,-63.18C190.5,-54.45 190.5,-45.08 190.5,-36.91"/>
<polygon fill="midnightblue" stroke="midnightblue" points="194,-36.7 190.5,-26.7 187,-36.7 194,-36.7"/>
</g>
<!-- Node5 -->
<g id="node5" class="node">
<title>Node5</title>
<g id="a_node5"><a xlink:title=" ">
<polygon fill="white" stroke="#bfbfbf" points="241,-0.5 241,-26.5 300,-26.5 300,-0.5 241,-0.5"/>
<text text-anchor="middle" x="270.5" y="-9.7" font-family="Source Sans Pro" font-size="16.00">vector</text>
</a>
</g>
</g>
<!-- Node1&#45;&gt;Node5 -->
<g id="edge4" class="edge">
<title>Node1&#45;&gt;Node5</title>
<path fill="none" stroke="midnightblue" d="M221.2,-63.18C231.15,-53.36 241.92,-42.73 250.84,-33.91"/>
<polygon fill="midnightblue" stroke="midnightblue" points="253.49,-36.22 258.14,-26.7 248.57,-31.24 253.49,-36.22"/>
</g>
<!-- Node6 -->
<g id="node6" class="node">
<title>Node6</title>
<g id="a_node6"><a xlink:title=" ">
<polygon fill="white" stroke="#bfbfbf" points="318.5,-0.5 318.5,-26.5 418.5,-26.5 418.5,-0.5 318.5,-0.5"/>
<text text-anchor="middle" x="368.5" y="-9.7" font-family="Source Sans Pro" font-size="16.00">stb_image.h</text>
</a>
</g>
</g>
<!-- Node1&#45;&gt;Node6 -->
<g id="edge5" class="edge">
<title>Node1&#45;&gt;Node6</title>
<path fill="none" stroke="midnightblue" d="M258.3,-63.41C283.35,-52.29 310.78,-40.12 332,-30.7"/>
<polygon fill="midnightblue" stroke="midnightblue" points="333.57,-33.83 341.29,-26.58 330.73,-27.43 333.57,-33.83"/>
</g>
</g>
</svg>
