<?xml version="1.0" encoding="UTF-8" standalone="no"?>
<!DOCTYPE svg PUBLIC "-//W3C//DTD SVG 1.1//EN"
 "http://www.w3.org/Graphics/SVG/1.1/DTD/svg11.dtd">
<!-- Generated by graphviz version 2.43.0 (0)
 -->
<!-- Title: Illumination&#45;Engine/src/GraphicsModule/RenderPass/IERenderPass.hpp Pages: 1 -->
<svg width="2409pt" height="602pt"
 viewBox="0.00 0.00 2408.85 602.00" xmlns="http://www.w3.org/2000/svg" xmlns:xlink="http://www.w3.org/1999/xlink">
<g id="graph0" class="graph" transform="scale(1 1) rotate(0) translate(4 598)">
<title>Illumination&#45;Engine/src/GraphicsModule/RenderPass/IERenderPass.hpp</title>
<polygon fill="white" stroke="transparent" points="-4,4 -4,-598 2404.85,-598 2404.85,4 -4,4"/>
<!-- Node1 -->
<g id="node1" class="node">
<title>Node1</title>
<g id="a_node1"><a xlink:title=" ">
<polygon fill="#bfbfbf" stroke="black" points="1165,-531.5 1165,-593.5 1393,-593.5 1393,-531.5 1165,-531.5"/>
<text text-anchor="start" x="1173" y="-576.7" font-family="Source Sans Pro" font-size="16.00">Illumination&#45;Engine</text>
<text text-anchor="start" x="1173" y="-558.7" font-family="Source Sans Pro" font-size="16.00">/src/GraphicsModule</text>
<text text-anchor="middle" x="1279" y="-540.7" font-family="Source Sans Pro" font-size="16.00">/RenderPass/IERenderPass.hpp</text>
</a>
</g>
</g>
<!-- Node2 -->
<g id="node2" class="node">
<title>Node2</title>
<g id="a_node2"><a xlink:href="_i_e_command_buffer_8hpp.html" target="_top" xlink:title=" ">
<polygon fill="white" stroke="black" points="1318,-468.5 1318,-494.5 1608,-494.5 1608,-468.5 1318,-468.5"/>
<text text-anchor="middle" x="1463" y="-477.7" font-family="Source Sans Pro" font-size="16.00">CommandBuffer/IECommandBuffer.hpp</text>
</a>
</g>
</g>
<!-- Node1&#45;&gt;Node2 -->
<g id="edge1" class="edge">
<title>Node1&#45;&gt;Node2</title>
<path fill="none" stroke="midnightblue" d="M1349.09,-531.41C1375.1,-520.24 1403.59,-508.01 1425.57,-498.57"/>
<polygon fill="midnightblue" stroke="midnightblue" points="1427.06,-501.74 1434.87,-494.58 1424.3,-495.31 1427.06,-501.74"/>
</g>
<!-- Node7 -->
<g id="node7" class="node">
<title>Node7</title>
<g id="a_node7"><a xlink:title=" ">
<polygon fill="white" stroke="#bfbfbf" points="816.5,-0.5 816.5,-26.5 875.5,-26.5 875.5,-0.5 816.5,-0.5"/>
<text text-anchor="middle" x="846" y="-9.7" font-family="Source Sans Pro" font-size="16.00">vector</text>
</a>
</g>
</g>
<!-- Node1&#45;&gt;Node7 -->
<g id="edge86" class="edge">
<title>Node1&#45;&gt;Node7</title>
<path fill="none" stroke="midnightblue" d="M1164.95,-556.17C901.31,-542.34 272,-499.94 272,-410.5 272,-410.5 272,-410.5 272,-327.5 272,-194.49 296.59,-129.12 412,-63 445.83,-43.62 705.55,-24.07 806.27,-17.13"/>
<polygon fill="midnightblue" stroke="midnightblue" points="806.61,-20.62 816.34,-16.45 806.13,-13.64 806.61,-20.62"/>
</g>
<!-- Node8 -->
<g id="node8" class="node">
<title>Node8</title>
<g id="a_node8"><a xlink:title=" ">
<polygon fill="white" stroke="#bfbfbf" points="1702.5,-72.5 1702.5,-98.5 1827.5,-98.5 1827.5,-72.5 1702.5,-72.5"/>
<text text-anchor="middle" x="1765" y="-81.7" font-family="Source Sans Pro" font-size="16.00">vulkan/vulkan.h</text>
</a>
</g>
</g>
<!-- Node1&#45;&gt;Node8 -->
<g id="edge83" class="edge">
<title>Node1&#45;&gt;Node8</title>
<path fill="none" stroke="midnightblue" d="M1393.31,-554.08C1632.11,-537.4 2166.32,-493.57 2220,-432 2356.19,-275.78 1966.94,-144.41 1819.26,-101.39"/>
<polygon fill="midnightblue" stroke="midnightblue" points="1820.05,-97.98 1809.47,-98.57 1818.11,-104.7 1820.05,-97.98"/>
</g>
<!-- Node11 -->
<g id="node11" class="node">
<title>Node11</title>
<g id="a_node11"><a xlink:title=" ">
<polygon fill="white" stroke="#bfbfbf" points="1329.5,-0.5 1329.5,-26.5 1392.5,-26.5 1392.5,-0.5 1329.5,-0.5"/>
<text text-anchor="middle" x="1361" y="-9.7" font-family="Source Sans Pro" font-size="16.00">cstdint</text>
</a>
</g>
</g>
<!-- Node1&#45;&gt;Node11 -->
<g id="edge84" class="edge">
<title>Node1&#45;&gt;Node11</title>
<path fill="none" stroke="midnightblue" d="M1393.23,-557.92C1678.25,-547.47 2398,-511.12 2398,-410.5 2398,-410.5 2398,-410.5 2398,-165.5 2398,-122.46 2432.11,-121.08 2258,-63 2176.39,-35.78 1569.06,-19.45 1402.91,-15.46"/>
<polygon fill="midnightblue" stroke="midnightblue" points="1402.69,-11.96 1392.61,-15.22 1402.53,-18.95 1402.69,-11.96"/>
</g>
<!-- Node14 -->
<g id="node14" class="node">
<title>Node14</title>
<g id="a_node14"><a xlink:title=" ">
<polygon fill="white" stroke="#bfbfbf" points="418,-153.5 418,-179.5 504,-179.5 504,-153.5 418,-153.5"/>
<text text-anchor="middle" x="461" y="-162.7" font-family="Source Sans Pro" font-size="16.00">functional</text>
</a>
</g>
</g>
<!-- Node1&#45;&gt;Node14 -->
<g id="edge85" class="edge">
<title>Node1&#45;&gt;Node14</title>
<path fill="none" stroke="midnightblue" d="M1164.82,-550.82C950.2,-529.19 508,-476.61 508,-410.5 508,-410.5 508,-410.5 508,-327.5 508,-281.17 503.5,-269.01 489,-225 484.9,-212.57 478.64,-199.39 473.08,-188.79"/>
<polygon fill="midnightblue" stroke="midnightblue" points="476.09,-187 468.25,-179.88 469.93,-190.34 476.09,-187"/>
</g>
<!-- Node22 -->
<g id="node22" class="node">
<title>Node22</title>
<g id="a_node22"><a xlink:href="_i_e_framebuffer_8hpp.html" target="_top" xlink:title=" ">
<polygon fill="white" stroke="black" points="789.5,-306.5 789.5,-350.5 1000.5,-350.5 1000.5,-306.5 789.5,-306.5"/>
<text text-anchor="start" x="797.5" y="-333.7" font-family="Source Sans Pro" font-size="16.00">GraphicsModule/RenderPass</text>
<text text-anchor="middle" x="895" y="-315.7" font-family="Source Sans Pro" font-size="16.00">/IEFramebuffer.hpp</text>
</a>
</g>
</g>
<!-- Node1&#45;&gt;Node22 -->
<g id="edge82" class="edge">
<title>Node1&#45;&gt;Node22</title>
<path fill="none" stroke="midnightblue" d="M1229.19,-531.41C1153.49,-485.67 1010.69,-399.4 938.76,-355.94"/>
<polygon fill="midnightblue" stroke="midnightblue" points="940.3,-352.78 929.93,-350.6 936.68,-358.77 940.3,-352.78"/>
</g>
<!-- Node3 -->
<g id="node3" class="node">
<title>Node3</title>
<g id="a_node3"><a xlink:href="_i_e_buffer_8hpp.html" target="_top" xlink:title=" ">
<polygon fill="white" stroke="black" points="1333.5,-234.5 1333.5,-260.5 1480.5,-260.5 1480.5,-234.5 1333.5,-234.5"/>
<text text-anchor="middle" x="1407" y="-243.7" font-family="Source Sans Pro" font-size="16.00">Buffer/IEBuffer.hpp</text>
</a>
</g>
</g>
<!-- Node2&#45;&gt;Node3 -->
<g id="edge2" class="edge">
<title>Node2&#45;&gt;Node3</title>
<path fill="none" stroke="midnightblue" d="M1370.43,-468.46C1326.17,-460.66 1279.83,-448.78 1266,-432 1230.36,-388.77 1230.52,-352.35 1262,-306 1276.37,-284.84 1299.88,-271.47 1323.83,-263.01"/>
<polygon fill="midnightblue" stroke="midnightblue" points="1324.94,-266.33 1333.36,-259.9 1322.77,-259.68 1324.94,-266.33"/>
</g>
<!-- Node2&#45;&gt;Node7 -->
<g id="edge80" class="edge">
<title>Node2&#45;&gt;Node7</title>
<path fill="none" stroke="midnightblue" d="M1608.01,-480.77C1768.35,-479.1 2015.21,-470.1 2100,-432 2159.78,-405.14 2206,-395.03 2206,-329.5 2206,-329.5 2206,-329.5 2206,-165.5 2206,-108.52 2179.48,-89.42 2129,-63 2100.78,-48.23 1099.55,-21.16 885.86,-15.54"/>
<polygon fill="midnightblue" stroke="midnightblue" points="885.81,-12.03 875.72,-15.27 885.63,-19.03 885.81,-12.03"/>
</g>
<!-- Node2&#45;&gt;Node8 -->
<g id="edge81" class="edge">
<title>Node2&#45;&gt;Node8</title>
<path fill="none" stroke="midnightblue" d="M1480.7,-468.35C1493.01,-459.31 1509.25,-446.13 1521,-432 1562.1,-382.58 1546.38,-351.28 1592,-306 1615.44,-282.73 1629.9,-288.88 1657,-270 1702.25,-238.47 1724.67,-237.46 1751,-189 1764.58,-164 1766.71,-130.7 1766.37,-108.94"/>
<polygon fill="midnightblue" stroke="midnightblue" points="1769.86,-108.59 1766.01,-98.72 1762.86,-108.83 1769.86,-108.59"/>
</g>
<!-- Node15 -->
<g id="node15" class="node">
<title>Node15</title>
<g id="a_node15"><a xlink:href="_i_e_copy_buffer_to_image_info_8hpp.html" target="_top" xlink:title=" ">
<polygon fill="white" stroke="black" points="1270.5,-306.5 1270.5,-350.5 1543.5,-350.5 1543.5,-306.5 1270.5,-306.5"/>
<text text-anchor="start" x="1278.5" y="-333.7" font-family="Source Sans Pro" font-size="16.00">CommandBuffer/Dependency</text>
<text text-anchor="middle" x="1407" y="-315.7" font-family="Source Sans Pro" font-size="16.00">Structs/IECopyBufferToImageInfo.hpp</text>
</a>
</g>
</g>
<!-- Node2&#45;&gt;Node15 -->
<g id="edge20" class="edge">
<title>Node2&#45;&gt;Node15</title>
<path fill="none" stroke="midnightblue" d="M1477.77,-468.19C1487.26,-459.27 1498.77,-446.29 1504,-432 1510.87,-413.22 1513.9,-404.38 1504,-387 1496.68,-374.15 1485.23,-363.87 1472.72,-355.77"/>
<polygon fill="midnightblue" stroke="midnightblue" points="1474.31,-352.65 1463.94,-350.51 1470.72,-358.65 1474.31,-352.65"/>
</g>
<!-- Node16 -->
<g id="node16" class="node">
<title>Node16</title>
<g id="a_node16"><a xlink:href="_i_e_image_8hpp.html" target="_top" xlink:title=" ">
<polygon fill="white" stroke="black" points="992.5,-234.5 992.5,-260.5 1141.5,-260.5 1141.5,-234.5 992.5,-234.5"/>
<text text-anchor="middle" x="1067" y="-243.7" font-family="Source Sans Pro" font-size="16.00">Image/IEImage.hpp</text>
</a>
</g>
</g>
<!-- Node2&#45;&gt;Node16 -->
<g id="edge76" class="edge">
<title>Node2&#45;&gt;Node16</title>
<path fill="none" stroke="midnightblue" d="M1341.63,-468.48C1306.26,-461.35 1268.65,-450.02 1237,-432 1164.63,-390.81 1105.3,-308.37 1080.07,-269.59"/>
<polygon fill="midnightblue" stroke="midnightblue" points="1082.74,-267.26 1074.41,-260.72 1076.84,-271.03 1082.74,-267.26"/>
</g>
<!-- Node18 -->
<g id="node18" class="node">
<title>Node18</title>
<g id="a_node18"><a xlink:href="_i_e_dependency_info_8hpp.html" target="_top" xlink:title=" ">
<polygon fill="white" stroke="black" points="1867,-387.5 1867,-431.5 2091,-431.5 2091,-387.5 1867,-387.5"/>
<text text-anchor="start" x="1875" y="-414.7" font-family="Source Sans Pro" font-size="16.00">CommandBuffer/Dependency</text>
<text text-anchor="middle" x="1979" y="-396.7" font-family="Source Sans Pro" font-size="16.00">Structs/IEDependencyInfo.hpp</text>
</a>
</g>
</g>
<!-- Node2&#45;&gt;Node18 -->
<g id="edge35" class="edge">
<title>Node2&#45;&gt;Node18</title>
<path fill="none" stroke="midnightblue" d="M1573.89,-468.5C1650.62,-459.81 1755.34,-447.2 1856.84,-432.14"/>
<polygon fill="midnightblue" stroke="midnightblue" points="1857.59,-435.56 1866.97,-430.63 1856.56,-428.64 1857.59,-435.56"/>
</g>
<!-- Node21 -->
<g id="node21" class="node">
<title>Node21</title>
<g id="a_node21"><a xlink:href="_i_e_render_pass_begin_info_8hpp.html" target="_top" xlink:title=" ">
<polygon fill="white" stroke="black" points="1593,-387.5 1593,-431.5 1849,-431.5 1849,-387.5 1593,-387.5"/>
<text text-anchor="start" x="1601" y="-414.7" font-family="Source Sans Pro" font-size="16.00">CommandBuffer/Dependency</text>
<text text-anchor="middle" x="1721" y="-396.7" font-family="Source Sans Pro" font-size="16.00">Structs/IERenderPassBeginInfo.hpp</text>
</a>
</g>
</g>
<!-- Node2&#45;&gt;Node21 -->
<g id="edge47" class="edge">
<title>Node2&#45;&gt;Node21</title>
<path fill="none" stroke="midnightblue" d="M1507.35,-468.47C1541.97,-459.07 1591.15,-445.73 1633.6,-434.21"/>
<polygon fill="midnightblue" stroke="midnightblue" points="1634.65,-437.55 1643.39,-431.56 1632.82,-430.8 1634.65,-437.55"/>
</g>
<!-- Node23 -->
<g id="node23" class="node">
<title>Node23</title>
<g id="a_node23"><a xlink:href="_i_e_pipeline_8hpp.html" target="_top" xlink:title=" ">
<polygon fill="white" stroke="black" points="573,-306.5 573,-350.5 753,-350.5 753,-306.5 573,-306.5"/>
<text text-anchor="start" x="581" y="-333.7" font-family="Source Sans Pro" font-size="16.00">GraphicsModule/Shader</text>
<text text-anchor="middle" x="663" y="-315.7" font-family="Source Sans Pro" font-size="16.00">/IEPipeline.hpp</text>
</a>
</g>
</g>
<!-- Node2&#45;&gt;Node23 -->
<g id="edge54" class="edge">
<title>Node2&#45;&gt;Node23</title>
<path fill="none" stroke="midnightblue" d="M1363.14,-468.46C1294.76,-459.7 1202.12,-446.8 1121,-432 994.36,-408.89 849.59,-375.26 757.3,-352.9"/>
<polygon fill="midnightblue" stroke="midnightblue" points="757.97,-349.46 747.42,-350.51 756.32,-356.27 757.97,-349.46"/>
</g>
<!-- Node30 -->
<g id="node30" class="node">
<title>Node30</title>
<g id="a_node30"><a xlink:href="_i_e_dependent_8hpp.html" target="_top" xlink:title=" ">
<polygon fill="white" stroke="black" points="2234,-153.5 2234,-179.5 2370,-179.5 2370,-153.5 2234,-153.5"/>
<text text-anchor="middle" x="2302" y="-162.7" font-family="Source Sans Pro" font-size="16.00">IEDependent.hpp</text>
</a>
</g>
</g>
<!-- Node2&#45;&gt;Node30 -->
<g id="edge73" class="edge">
<title>Node2&#45;&gt;Node30</title>
<path fill="none" stroke="midnightblue" d="M1608.22,-479.94C1814.64,-477.84 2173.22,-468.84 2220,-432 2296.36,-371.87 2303.25,-241.76 2302.78,-189.69"/>
<polygon fill="midnightblue" stroke="midnightblue" points="2306.27,-189.48 2302.58,-179.55 2299.27,-189.62 2306.27,-189.48"/>
</g>
<!-- Node31 -->
<g id="node31" class="node">
<title>Node31</title>
<g id="a_node31"><a xlink:title=" ">
<polygon fill="white" stroke="#bfbfbf" points="1274.5,-396.5 1274.5,-422.5 1333.5,-422.5 1333.5,-396.5 1274.5,-396.5"/>
<text text-anchor="middle" x="1304" y="-405.7" font-family="Source Sans Pro" font-size="16.00">mutex</text>
</a>
</g>
</g>
<!-- Node2&#45;&gt;Node31 -->
<g id="edge77" class="edge">
<title>Node2&#45;&gt;Node31</title>
<path fill="none" stroke="midnightblue" d="M1430.2,-468.46C1405.82,-459.22 1371.92,-445.75 1343,-432 1340,-430.57 1336.9,-429.02 1333.83,-427.42"/>
<polygon fill="midnightblue" stroke="midnightblue" points="1335.28,-424.22 1324.81,-422.57 1331.96,-430.39 1335.28,-424.22"/>
</g>
<!-- Node32 -->
<g id="node32" class="node">
<title>Node32</title>
<g id="a_node32"><a xlink:title=" ">
<polygon fill="white" stroke="#bfbfbf" points="1351.5,-396.5 1351.5,-422.5 1412.5,-422.5 1412.5,-396.5 1351.5,-396.5"/>
<text text-anchor="middle" x="1382" y="-405.7" font-family="Source Sans Pro" font-size="16.00">thread</text>
</a>
</g>
</g>
<!-- Node2&#45;&gt;Node32 -->
<g id="edge78" class="edge">
<title>Node2&#45;&gt;Node32</title>
<path fill="none" stroke="midnightblue" d="M1448.89,-468.31C1436.46,-457.57 1418.16,-441.75 1403.84,-429.38"/>
<polygon fill="midnightblue" stroke="midnightblue" points="1405.8,-426.44 1395.95,-422.55 1401.23,-431.74 1405.8,-426.44"/>
</g>
<!-- Node33 -->
<g id="node33" class="node">
<title>Node33</title>
<g id="a_node33"><a xlink:title=" ">
<polygon fill="white" stroke="#bfbfbf" points="1431,-396.5 1431,-422.5 1495,-422.5 1495,-396.5 1431,-396.5"/>
<text text-anchor="middle" x="1463" y="-405.7" font-family="Source Sans Pro" font-size="16.00">variant</text>
</a>
</g>
</g>
<!-- Node2&#45;&gt;Node33 -->
<g id="edge79" class="edge">
<title>Node2&#45;&gt;Node33</title>
<path fill="none" stroke="midnightblue" d="M1463,-468.31C1463,-458.47 1463,-444.38 1463,-432.57"/>
<polygon fill="midnightblue" stroke="midnightblue" points="1466.5,-432.55 1463,-422.55 1459.5,-432.55 1466.5,-432.55"/>
</g>
<!-- Node4 -->
<g id="node4" class="node">
<title>Node4</title>
<g id="a_node4"><a xlink:href="_i_e_dependency_8hpp.html" target="_top" xlink:title=" ">
<polygon fill="white" stroke="black" points="1362.5,-144.5 1362.5,-188.5 1607.5,-188.5 1607.5,-144.5 1362.5,-144.5"/>
<text text-anchor="start" x="1370.5" y="-171.7" font-family="Source Sans Pro" font-size="16.00">GraphicsModule/CommandBuffer</text>
<text text-anchor="middle" x="1485" y="-153.7" font-family="Source Sans Pro" font-size="16.00">/IEDependency.hpp</text>
</a>
</g>
</g>
<!-- Node3&#45;&gt;Node4 -->
<g id="edge3" class="edge">
<title>Node3&#45;&gt;Node4</title>
<path fill="none" stroke="midnightblue" d="M1419.19,-234.16C1429.22,-224 1443.83,-209.2 1456.74,-196.12"/>
<polygon fill="midnightblue" stroke="midnightblue" points="1459.56,-198.25 1464.1,-188.67 1454.58,-193.33 1459.56,-198.25"/>
</g>
<!-- Node3&#45;&gt;Node7 -->
<g id="edge19" class="edge">
<title>Node3&#45;&gt;Node7</title>
<path fill="none" stroke="midnightblue" d="M1480.59,-236.89C1557.28,-223.89 1660.65,-196.08 1617,-144 1522.06,-30.71 1030.6,-16.45 886.04,-14.72"/>
<polygon fill="midnightblue" stroke="midnightblue" points="885.88,-11.22 875.85,-14.61 885.81,-18.22 885.88,-11.22"/>
</g>
<!-- Node3&#45;&gt;Node8 -->
<g id="edge16" class="edge">
<title>Node3&#45;&gt;Node8</title>
<path fill="none" stroke="midnightblue" d="M1480.68,-245.53C1540.68,-241.6 1625.41,-228.61 1688,-189 1719.43,-169.11 1742.64,-131.51 1754.97,-107.79"/>
<polygon fill="midnightblue" stroke="midnightblue" points="1758.24,-109.08 1759.58,-98.57 1751.97,-105.95 1758.24,-109.08"/>
</g>
<!-- Node9 -->
<g id="node9" class="node">
<title>Node9</title>
<g id="a_node9"><a xlink:href="_i_e_a_p_i_8hpp.html" target="_top" xlink:title=" ">
<polygon fill="white" stroke="black" points="674.5,-153.5 674.5,-179.5 757.5,-179.5 757.5,-153.5 674.5,-153.5"/>
<text text-anchor="middle" x="716" y="-162.7" font-family="Source Sans Pro" font-size="16.00">IEAPI.hpp</text>
</a>
</g>
</g>
<!-- Node3&#45;&gt;Node9 -->
<g id="edge8" class="edge">
<title>Node3&#45;&gt;Node9</title>
<path fill="none" stroke="midnightblue" d="M1333.33,-238.93C1231.56,-228.37 1042.22,-208.31 881,-189 843.08,-184.46 800.33,-178.87 767.84,-174.53"/>
<polygon fill="midnightblue" stroke="midnightblue" points="768.05,-171.03 757.68,-173.17 767.12,-177.97 768.05,-171.03"/>
</g>
<!-- Node3&#45;&gt;Node11 -->
<g id="edge17" class="edge">
<title>Node3&#45;&gt;Node11</title>
<path fill="none" stroke="midnightblue" d="M1480.59,-239.06C1544.2,-230.92 1629.12,-215.39 1650,-189 1684.74,-145.08 1686.17,-105.75 1650,-63 1618.83,-26.17 1475.21,-17.29 1402.87,-15.16"/>
<polygon fill="midnightblue" stroke="midnightblue" points="1402.83,-11.66 1392.74,-14.9 1402.64,-18.66 1402.83,-11.66"/>
</g>
<!-- Node12 -->
<g id="node12" class="node">
<title>Node12</title>
<g id="a_node12"><a xlink:title=" ">
<polygon fill="white" stroke="#bfbfbf" points="1215.5,-153.5 1215.5,-179.5 1344.5,-179.5 1344.5,-153.5 1215.5,-153.5"/>
<text text-anchor="middle" x="1280" y="-162.7" font-family="Source Sans Pro" font-size="16.00">vk_mem_alloc.h</text>
</a>
</g>
</g>
<!-- Node3&#45;&gt;Node12 -->
<g id="edge14" class="edge">
<title>Node3&#45;&gt;Node12</title>
<path fill="none" stroke="midnightblue" d="M1387.43,-234.33C1366.21,-221.13 1332.14,-199.94 1308.07,-184.96"/>
<polygon fill="midnightblue" stroke="midnightblue" points="1309.72,-181.86 1299.38,-179.55 1306.02,-187.81 1309.72,-181.86"/>
</g>
<!-- Node13 -->
<g id="node13" class="node">
<title>Node13</title>
<g id="a_node13"><a xlink:title=" ">
<polygon fill="white" stroke="#bfbfbf" points="1114.5,-153.5 1114.5,-179.5 1197.5,-179.5 1197.5,-153.5 1114.5,-153.5"/>
<text text-anchor="middle" x="1156" y="-162.7" font-family="Source Sans Pro" font-size="16.00">GL/glew.h</text>
</a>
</g>
</g>
<!-- Node3&#45;&gt;Node13 -->
<g id="edge15" class="edge">
<title>Node3&#45;&gt;Node13</title>
<path fill="none" stroke="midnightblue" d="M1359.22,-234.48C1318.38,-223.8 1258.27,-207.11 1207,-189 1202.2,-187.3 1197.2,-185.39 1192.28,-183.42"/>
<polygon fill="midnightblue" stroke="midnightblue" points="1193.61,-180.18 1183.03,-179.6 1190.94,-186.65 1193.61,-180.18"/>
</g>
<!-- Node3&#45;&gt;Node14 -->
<g id="edge18" class="edge">
<title>Node3&#45;&gt;Node14</title>
<path fill="none" stroke="midnightblue" d="M1333.35,-240.15C1281.97,-235.77 1211.82,-229.88 1150,-225 934.52,-207.99 880.28,-208.33 665,-189 613.83,-184.41 555.54,-178.16 514.41,-173.59"/>
<polygon fill="midnightblue" stroke="midnightblue" points="514.67,-170.09 504.34,-172.46 513.89,-177.05 514.67,-170.09"/>
</g>
<!-- Node5 -->
<g id="node5" class="node">
<title>Node5</title>
<g id="a_node5"><a xlink:title=" ">
<polygon fill="white" stroke="#bfbfbf" points="2017,-72.5 2017,-98.5 2091,-98.5 2091,-72.5 2017,-72.5"/>
<text text-anchor="middle" x="2054" y="-81.7" font-family="Source Sans Pro" font-size="16.00">memory</text>
</a>
</g>
</g>
<!-- Node4&#45;&gt;Node5 -->
<g id="edge4" class="edge">
<title>Node4&#45;&gt;Node5</title>
<path fill="none" stroke="midnightblue" d="M1607.76,-148.46C1732.71,-131.11 1919.98,-105.11 2006.75,-93.06"/>
<polygon fill="midnightblue" stroke="midnightblue" points="2007.4,-96.5 2016.82,-91.66 2006.44,-89.57 2007.4,-96.5"/>
</g>
<!-- Node6 -->
<g id="node6" class="node">
<title>Node6</title>
<g id="a_node6"><a xlink:title=" ">
<polygon fill="white" stroke="#bfbfbf" points="580.5,-0.5 580.5,-26.5 635.5,-26.5 635.5,-0.5 580.5,-0.5"/>
<text text-anchor="middle" x="608" y="-9.7" font-family="Source Sans Pro" font-size="16.00">string</text>
</a>
</g>
</g>
<!-- Node4&#45;&gt;Node6 -->
<g id="edge5" class="edge">
<title>Node4&#45;&gt;Node6</title>
<path fill="none" stroke="midnightblue" d="M1362.33,-144.97C1359.53,-144.63 1356.75,-144.31 1354,-144 1218.38,-128.93 869.84,-152.95 741,-108 728.96,-103.8 667.66,-58.95 632.63,-32.92"/>
<polygon fill="midnightblue" stroke="midnightblue" points="634.45,-29.91 624.34,-26.75 630.27,-35.53 634.45,-29.91"/>
</g>
<!-- Node4&#45;&gt;Node7 -->
<g id="edge6" class="edge">
<title>Node4&#45;&gt;Node7</title>
<path fill="none" stroke="midnightblue" d="M1395.81,-144.42C1254.79,-111.1 986.02,-47.59 885.36,-23.8"/>
<polygon fill="midnightblue" stroke="midnightblue" points="886.13,-20.39 875.6,-21.49 884.52,-27.2 886.13,-20.39"/>
</g>
<!-- Node4&#45;&gt;Node8 -->
<g id="edge7" class="edge">
<title>Node4&#45;&gt;Node8</title>
<path fill="none" stroke="midnightblue" d="M1559.67,-144.43C1607.91,-130.82 1669.5,-113.44 1712.59,-101.29"/>
<polygon fill="midnightblue" stroke="midnightblue" points="1713.63,-104.63 1722.31,-98.55 1711.73,-97.89 1713.63,-104.63"/>
</g>
<!-- Node9&#45;&gt;Node6 -->
<g id="edge13" class="edge">
<title>Node9&#45;&gt;Node6</title>
<path fill="none" stroke="midnightblue" d="M707.34,-153.4C688.86,-127.55 645.36,-66.73 622.55,-34.84"/>
<polygon fill="midnightblue" stroke="midnightblue" points="625.36,-32.76 616.7,-26.66 619.67,-36.83 625.36,-32.76"/>
</g>
<!-- Node10 -->
<g id="node10" class="node">
<title>Node10</title>
<g id="a_node10"><a xlink:href="_i_e_version_8hpp.html" target="_top" xlink:title=" ">
<polygon fill="white" stroke="black" points="750,-72.5 750,-98.5 860,-98.5 860,-72.5 750,-72.5"/>
<text text-anchor="middle" x="805" y="-81.7" font-family="Source Sans Pro" font-size="16.00">IEVersion.hpp</text>
</a>
</g>
</g>
<!-- Node9&#45;&gt;Node10 -->
<g id="edge9" class="edge">
<title>Node9&#45;&gt;Node10</title>
<path fill="none" stroke="midnightblue" d="M729.91,-153.16C744.28,-140.4 766.89,-120.33 783.55,-105.54"/>
<polygon fill="midnightblue" stroke="midnightblue" points="786.04,-108.01 791.19,-98.76 781.39,-102.78 786.04,-108.01"/>
</g>
<!-- Node10&#45;&gt;Node6 -->
<g id="edge11" class="edge">
<title>Node10&#45;&gt;Node6</title>
<path fill="none" stroke="midnightblue" d="M771.13,-72.47C736.14,-60.03 681.66,-40.67 645.42,-27.79"/>
<polygon fill="midnightblue" stroke="midnightblue" points="646.3,-24.4 635.71,-24.34 643.96,-30.99 646.3,-24.4"/>
</g>
<!-- Node10&#45;&gt;Node7 -->
<g id="edge12" class="edge">
<title>Node10&#45;&gt;Node7</title>
<path fill="none" stroke="midnightblue" d="M812.14,-72.31C818.08,-62.17 826.67,-47.51 833.71,-35.49"/>
<polygon fill="midnightblue" stroke="midnightblue" points="836.91,-36.95 838.94,-26.55 830.87,-33.41 836.91,-36.95"/>
</g>
<!-- Node10&#45;&gt;Node11 -->
<g id="edge10" class="edge">
<title>Node10&#45;&gt;Node11</title>
<path fill="none" stroke="midnightblue" d="M860.09,-77.56C971.25,-63.57 1220.24,-32.22 1319.24,-19.76"/>
<polygon fill="midnightblue" stroke="midnightblue" points="1319.97,-23.19 1329.45,-18.47 1319.09,-16.25 1319.97,-23.19"/>
</g>
<!-- Node15&#45;&gt;Node3 -->
<g id="edge21" class="edge">
<title>Node15&#45;&gt;Node3</title>
<path fill="none" stroke="midnightblue" d="M1407,-306.33C1407,-295.36 1407,-281.97 1407,-270.83"/>
<polygon fill="midnightblue" stroke="midnightblue" points="1410.5,-270.63 1407,-260.63 1403.5,-270.63 1410.5,-270.63"/>
</g>
<!-- Node15&#45;&gt;Node5 -->
<g id="edge33" class="edge">
<title>Node15&#45;&gt;Node5</title>
<path fill="none" stroke="midnightblue" d="M1521.02,-306.48C1564.17,-297.17 1613.39,-284.92 1657,-270 1798.75,-221.52 1957.81,-138.78 2023.31,-103.37"/>
<polygon fill="midnightblue" stroke="midnightblue" points="2025.16,-106.35 2032.28,-98.5 2021.82,-100.2 2025.16,-106.35"/>
</g>
<!-- Node15&#45;&gt;Node8 -->
<g id="edge34" class="edge">
<title>Node15&#45;&gt;Node8</title>
<path fill="none" stroke="midnightblue" d="M1502.83,-306.42C1572.32,-286.66 1664.23,-250.67 1724,-189 1745.66,-166.65 1756.34,-131.4 1761.25,-108.61"/>
<polygon fill="midnightblue" stroke="midnightblue" points="1764.74,-109.03 1763.23,-98.54 1757.87,-107.68 1764.74,-109.03"/>
</g>
<!-- Node15&#45;&gt;Node16 -->
<g id="edge22" class="edge">
<title>Node15&#45;&gt;Node16</title>
<path fill="none" stroke="midnightblue" d="M1316.33,-306.43C1257.01,-292.65 1181.07,-275 1128.67,-262.83"/>
<polygon fill="midnightblue" stroke="midnightblue" points="1129.38,-259.4 1118.84,-260.55 1127.79,-266.22 1129.38,-259.4"/>
</g>
<!-- Node16&#45;&gt;Node4 -->
<g id="edge23" class="edge">
<title>Node16&#45;&gt;Node4</title>
<path fill="none" stroke="midnightblue" d="M1130.94,-234.42C1192.55,-222.77 1287.35,-204.85 1363.36,-190.49"/>
<polygon fill="midnightblue" stroke="midnightblue" points="1364.3,-193.87 1373.48,-188.58 1363,-187 1364.3,-193.87"/>
</g>
<!-- Node16&#45;&gt;Node6 -->
<g id="edge31" class="edge">
<title>Node16&#45;&gt;Node6</title>
<path fill="none" stroke="midnightblue" d="M992.46,-245.02C890.11,-241.49 713.25,-229.52 665,-189 619.22,-150.55 609.92,-74.75 608.23,-36.98"/>
<polygon fill="midnightblue" stroke="midnightblue" points="611.71,-36.46 607.91,-26.57 604.72,-36.67 611.71,-36.46"/>
</g>
<!-- Node16&#45;&gt;Node7 -->
<g id="edge32" class="edge">
<title>Node16&#45;&gt;Node7</title>
<path fill="none" stroke="midnightblue" d="M992.15,-242.56C952.99,-236.37 907.77,-221.9 881,-189 845.5,-145.36 883.94,-117.23 869,-63 866.44,-53.7 862.19,-43.99 858.03,-35.73"/>
<polygon fill="midnightblue" stroke="midnightblue" points="861.08,-34 853.31,-26.8 854.89,-37.27 861.08,-34"/>
</g>
<!-- Node16&#45;&gt;Node8 -->
<g id="edge28" class="edge">
<title>Node16&#45;&gt;Node8</title>
<path fill="none" stroke="midnightblue" d="M1067.65,-234.27C1069.56,-212.19 1076.99,-165.92 1106,-144 1151.92,-109.3 1530.05,-93.68 1691.92,-88.54"/>
<polygon fill="midnightblue" stroke="midnightblue" points="1692.38,-92.03 1702.26,-88.22 1692.16,-85.04 1692.38,-92.03"/>
</g>
<!-- Node16&#45;&gt;Node9 -->
<g id="edge24" class="edge">
<title>Node16&#45;&gt;Node9</title>
<path fill="none" stroke="midnightblue" d="M1013.31,-234.42C946.59,-219.4 833.53,-193.95 767.73,-179.14"/>
<polygon fill="midnightblue" stroke="midnightblue" points="768.12,-175.64 757.59,-176.86 766.58,-182.47 768.12,-175.64"/>
</g>
<!-- Node16&#45;&gt;Node11 -->
<g id="edge29" class="edge">
<title>Node16&#45;&gt;Node11</title>
<path fill="none" stroke="midnightblue" d="M1064.17,-234.47C1060.06,-213.91 1054.86,-171.53 1074,-144 1131.35,-61.52 1254.25,-30.72 1319.05,-19.91"/>
<polygon fill="midnightblue" stroke="midnightblue" points="1319.98,-23.31 1329.3,-18.29 1318.88,-16.4 1319.98,-23.31"/>
</g>
<!-- Node16&#45;&gt;Node12 -->
<g id="edge27" class="edge">
<title>Node16&#45;&gt;Node12</title>
<path fill="none" stroke="midnightblue" d="M1099.81,-234.33C1136.9,-220.57 1197.37,-198.15 1237.9,-183.11"/>
<polygon fill="midnightblue" stroke="midnightblue" points="1239.34,-186.31 1247.5,-179.55 1236.9,-179.75 1239.34,-186.31"/>
</g>
<!-- Node16&#45;&gt;Node13 -->
<g id="edge25" class="edge">
<title>Node16&#45;&gt;Node13</title>
<path fill="none" stroke="midnightblue" d="M1080.91,-234.16C1095.28,-221.4 1117.89,-201.33 1134.55,-186.54"/>
<polygon fill="midnightblue" stroke="midnightblue" points="1137.04,-189.01 1142.19,-179.76 1132.39,-183.78 1137.04,-189.01"/>
</g>
<!-- Node16&#45;&gt;Node14 -->
<g id="edge30" class="edge">
<title>Node16&#45;&gt;Node14</title>
<path fill="none" stroke="midnightblue" d="M992.33,-238.34C899.01,-227.93 734.47,-208.88 594,-189 567.66,-185.27 538.46,-180.61 514.16,-176.58"/>
<polygon fill="midnightblue" stroke="midnightblue" points="514.5,-173.09 504.06,-174.9 513.35,-180 514.5,-173.09"/>
</g>
<!-- Node17 -->
<g id="node17" class="node">
<title>Node17</title>
<g id="a_node17"><a xlink:title=" ">
<polygon fill="white" stroke="#bfbfbf" points="890,-144.5 890,-188.5 1020,-188.5 1020,-144.5 890,-144.5"/>
<text text-anchor="start" x="898" y="-171.7" font-family="Source Sans Pro" font-size="16.00">../contrib/stb/stb</text>
<text text-anchor="middle" x="955" y="-153.7" font-family="Source Sans Pro" font-size="16.00">_image.h</text>
</a>
</g>
</g>
<!-- Node16&#45;&gt;Node17 -->
<g id="edge26" class="edge">
<title>Node16&#45;&gt;Node17</title>
<path fill="none" stroke="midnightblue" d="M1049.5,-234.16C1034.49,-223.57 1012.34,-207.94 993.25,-194.48"/>
<polygon fill="midnightblue" stroke="midnightblue" points="995.2,-191.57 985.01,-188.67 991.17,-197.29 995.2,-191.57"/>
</g>
<!-- Node18&#45;&gt;Node5 -->
<g id="edge44" class="edge">
<title>Node18&#45;&gt;Node5</title>
<path fill="none" stroke="midnightblue" d="M2091.32,-390.21C2111.99,-381.65 2131.09,-369.18 2144,-351 2198.18,-274.75 2157.8,-221.88 2106,-144 2096.88,-130.29 2084.61,-116.56 2074.27,-105.95"/>
<polygon fill="midnightblue" stroke="midnightblue" points="2076.7,-103.43 2067.16,-98.82 2071.75,-108.38 2076.7,-103.43"/>
</g>
<!-- Node18&#45;&gt;Node7 -->
<g id="edge45" class="edge">
<title>Node18&#45;&gt;Node7</title>
<path fill="none" stroke="midnightblue" d="M2031.71,-387.36C2047.47,-378.46 2063.15,-366.5 2073,-351 2141.97,-242.5 2189.13,-155.65 2100,-63 2089.21,-51.79 1098.48,-21.95 885.88,-15.67"/>
<polygon fill="midnightblue" stroke="midnightblue" points="885.89,-12.17 875.79,-15.37 885.68,-19.16 885.89,-12.17"/>
</g>
<!-- Node18&#45;&gt;Node8 -->
<g id="edge46" class="edge">
<title>Node18&#45;&gt;Node8</title>
<path fill="none" stroke="midnightblue" d="M1900.7,-387.44C1882.2,-378.95 1864.3,-367.19 1852,-351 1795.7,-276.86 1861.18,-227.49 1820,-144 1812.67,-129.15 1800.14,-115.59 1788.89,-105.38"/>
<polygon fill="midnightblue" stroke="midnightblue" points="1790.87,-102.46 1781.02,-98.56 1786.29,-107.76 1790.87,-102.46"/>
</g>
<!-- Node19 -->
<g id="node19" class="node">
<title>Node19</title>
<g id="a_node19"><a xlink:href="_i_e_buffer_memory_barrier_8hpp.html" target="_top" xlink:title=" ">
<polygon fill="white" stroke="black" points="1860.5,-315.5 1860.5,-341.5 2063.5,-341.5 2063.5,-315.5 1860.5,-315.5"/>
<text text-anchor="middle" x="1962" y="-324.7" font-family="Source Sans Pro" font-size="16.00">IEBufferMemoryBarrier.hpp</text>
</a>
</g>
</g>
<!-- Node18&#45;&gt;Node19 -->
<g id="edge36" class="edge">
<title>Node18&#45;&gt;Node19</title>
<path fill="none" stroke="midnightblue" d="M1974.44,-387.33C1972.06,-376.25 1969.14,-362.69 1966.73,-351.49"/>
<polygon fill="midnightblue" stroke="midnightblue" points="1970.14,-350.67 1964.61,-341.63 1963.29,-352.14 1970.14,-350.67"/>
</g>
<!-- Node20 -->
<g id="node20" class="node">
<title>Node20</title>
<g id="a_node20"><a xlink:href="_i_e_image_memory_barrier_8hpp.html" target="_top" xlink:title=" ">
<polygon fill="white" stroke="black" points="1600.5,-315.5 1600.5,-341.5 1803.5,-341.5 1803.5,-315.5 1600.5,-315.5"/>
<text text-anchor="middle" x="1702" y="-324.7" font-family="Source Sans Pro" font-size="16.00">IEImageMemoryBarrier.hpp</text>
</a>
</g>
</g>
<!-- Node18&#45;&gt;Node20 -->
<g id="edge40" class="edge">
<title>Node18&#45;&gt;Node20</title>
<path fill="none" stroke="midnightblue" d="M1905.13,-387.43C1857.51,-373.85 1796.73,-356.52 1754.12,-344.36"/>
<polygon fill="midnightblue" stroke="midnightblue" points="1754.81,-340.92 1744.24,-341.55 1752.89,-347.65 1754.81,-340.92"/>
</g>
<!-- Node19&#45;&gt;Node3 -->
<g id="edge37" class="edge">
<title>Node19&#45;&gt;Node3</title>
<path fill="none" stroke="midnightblue" d="M1878.86,-315.46C1857.41,-312.37 1834.35,-309.05 1813,-306 1701.54,-290.07 1572.85,-271.87 1490.75,-260.3"/>
<polygon fill="midnightblue" stroke="midnightblue" points="1491.11,-256.81 1480.72,-258.88 1490.14,-263.74 1491.11,-256.81"/>
</g>
<!-- Node19&#45;&gt;Node5 -->
<g id="edge38" class="edge">
<title>Node19&#45;&gt;Node5</title>
<path fill="none" stroke="midnightblue" d="M1969.17,-315.31C1982.79,-291.68 2012.6,-237.68 2030,-189 2039.64,-162.03 2046.47,-129.68 2050.32,-108.63"/>
<polygon fill="midnightblue" stroke="midnightblue" points="2053.77,-109.2 2052.06,-98.75 2046.88,-107.99 2053.77,-109.2"/>
</g>
<!-- Node19&#45;&gt;Node8 -->
<g id="edge39" class="edge">
<title>Node19&#45;&gt;Node8</title>
<path fill="none" stroke="midnightblue" d="M1959.36,-315.19C1951.91,-283.16 1927.97,-196.08 1878,-144 1860.08,-125.32 1834.78,-111.67 1812.66,-102.37"/>
<polygon fill="midnightblue" stroke="midnightblue" points="1813.67,-99 1803.08,-98.52 1811.06,-105.5 1813.67,-99"/>
</g>
<!-- Node20&#45;&gt;Node5 -->
<g id="edge42" class="edge">
<title>Node20&#45;&gt;Node5</title>
<path fill="none" stroke="midnightblue" d="M1751.64,-315.46C1784.52,-306.13 1827.73,-291.19 1862,-270 1937.15,-223.52 2007.38,-143.8 2037.94,-106.65"/>
<polygon fill="midnightblue" stroke="midnightblue" points="2040.92,-108.54 2044.51,-98.58 2035.49,-104.13 2040.92,-108.54"/>
</g>
<!-- Node20&#45;&gt;Node8 -->
<g id="edge43" class="edge">
<title>Node20&#45;&gt;Node8</title>
<path fill="none" stroke="midnightblue" d="M1730.13,-315.3C1748.88,-305.7 1772.48,-290.51 1786,-270 1817.07,-222.87 1817.92,-198.16 1802,-144 1798.02,-130.48 1789.78,-117.13 1782.07,-106.7"/>
<polygon fill="midnightblue" stroke="midnightblue" points="1784.74,-104.43 1775.84,-98.69 1779.22,-108.73 1784.74,-104.43"/>
</g>
<!-- Node20&#45;&gt;Node16 -->
<g id="edge41" class="edge">
<title>Node20&#45;&gt;Node16</title>
<path fill="none" stroke="midnightblue" d="M1621.24,-315.46C1599.13,-312.27 1575.16,-308.91 1553,-306 1412.45,-287.55 1248.67,-268.72 1151.64,-257.85"/>
<polygon fill="midnightblue" stroke="midnightblue" points="1151.92,-254.36 1141.59,-256.73 1151.14,-261.32 1151.92,-254.36"/>
</g>
<!-- Node21&#45;&gt;Node5 -->
<g id="edge53" class="edge">
<title>Node21&#45;&gt;Node5</title>
<path fill="none" stroke="midnightblue" d="M1849.1,-388.06C1949.35,-371.98 2072.05,-352.12 2073,-351 2133.11,-280.27 2086.76,-156.9 2064.35,-107.67"/>
<polygon fill="midnightblue" stroke="midnightblue" points="2067.51,-106.16 2060.1,-98.59 2061.17,-109.13 2067.51,-106.16"/>
</g>
<!-- Node21&#45;&gt;Node22 -->
<g id="edge48" class="edge">
<title>Node21&#45;&gt;Node22</title>
<path fill="none" stroke="midnightblue" d="M1592.78,-395.7C1563.6,-392.81 1532.73,-389.78 1504,-387 1332.3,-370.39 1133.31,-351.71 1010.78,-340.27"/>
<polygon fill="midnightblue" stroke="midnightblue" points="1010.91,-336.77 1000.63,-339.32 1010.26,-343.74 1010.91,-336.77"/>
</g>
<!-- Node22&#45;&gt;Node6 -->
<g id="edge51" class="edge">
<title>Node22&#45;&gt;Node6</title>
<path fill="none" stroke="midnightblue" d="M789.29,-311.52C755.55,-302.97 719.38,-289.9 690,-270 623.02,-224.62 617.23,-188.25 607,-108 603.91,-83.77 604.8,-55.72 606.06,-36.71"/>
<polygon fill="midnightblue" stroke="midnightblue" points="609.55,-36.9 606.81,-26.67 602.57,-36.37 609.55,-36.9"/>
</g>
<!-- Node22&#45;&gt;Node7 -->
<g id="edge52" class="edge">
<title>Node22&#45;&gt;Node7</title>
<path fill="none" stroke="midnightblue" d="M824.86,-306.42C770.51,-285.96 698.94,-249.06 665,-189 624.45,-117.25 742.17,-56.42 806.76,-29.43"/>
<polygon fill="midnightblue" stroke="midnightblue" points="808.33,-32.57 816.26,-25.54 805.68,-26.09 808.33,-32.57"/>
</g>
<!-- Node22&#45;&gt;Node8 -->
<g id="edge50" class="edge">
<title>Node22&#45;&gt;Node8</title>
<path fill="none" stroke="midnightblue" d="M884.55,-306.33C867.46,-268.34 839.38,-188.41 881,-144 908.6,-114.55 1485.53,-94.73 1692.17,-88.55"/>
<polygon fill="midnightblue" stroke="midnightblue" points="1692.43,-92.05 1702.32,-88.25 1692.22,-85.05 1692.43,-92.05"/>
</g>
<!-- Node22&#45;&gt;Node16 -->
<g id="edge49" class="edge">
<title>Node22&#45;&gt;Node16</title>
<path fill="none" stroke="midnightblue" d="M941.09,-306.33C969.45,-293.3 1005.25,-276.86 1031.42,-264.84"/>
<polygon fill="midnightblue" stroke="midnightblue" points="1032.97,-267.98 1040.6,-260.63 1030.05,-261.62 1032.97,-267.98"/>
</g>
<!-- Node23&#45;&gt;Node4 -->
<g id="edge55" class="edge">
<title>Node23&#45;&gt;Node4</title>
<path fill="none" stroke="midnightblue" d="M753.26,-310.13C762.28,-308.63 771.31,-307.22 780,-306 943.62,-283.05 987.97,-302.33 1150,-270 1245.36,-250.97 1352.28,-215.73 1419.12,-191.95"/>
<polygon fill="midnightblue" stroke="midnightblue" points="1420.45,-195.19 1428.69,-188.53 1418.09,-188.6 1420.45,-195.19"/>
</g>
<!-- Node23&#45;&gt;Node7 -->
<g id="edge72" class="edge">
<title>Node23&#45;&gt;Node7</title>
<path fill="none" stroke="midnightblue" d="M656.05,-306.18C641.07,-255.64 612.21,-127.95 679,-63 713.13,-29.81 768.57,-19.11 806.12,-15.78"/>
<polygon fill="midnightblue" stroke="midnightblue" points="806.5,-19.26 816.21,-15.03 805.97,-12.28 806.5,-19.26"/>
</g>
<!-- Node23&#45;&gt;Node8 -->
<g id="edge70" class="edge">
<title>Node23&#45;&gt;Node8</title>
<path fill="none" stroke="midnightblue" d="M677.33,-306.43C706,-266.31 774.74,-179.79 857,-144 932.67,-111.07 1489.94,-93.59 1692.05,-88.27"/>
<polygon fill="midnightblue" stroke="midnightblue" points="1692.36,-91.77 1702.26,-88.01 1692.18,-84.77 1692.36,-91.77"/>
</g>
<!-- Node23&#45;&gt;Node14 -->
<g id="edge71" class="edge">
<title>Node23&#45;&gt;Node14</title>
<path fill="none" stroke="midnightblue" d="M625.21,-306.48C607.85,-296.24 587.32,-283.28 570,-270 568.81,-269.08 512.23,-215.79 481.08,-186.43"/>
<polygon fill="midnightblue" stroke="midnightblue" points="483.43,-183.84 473.75,-179.52 478.63,-188.93 483.43,-183.84"/>
</g>
<!-- Node24 -->
<g id="node24" class="node">
<title>Node24</title>
<g id="a_node24"><a xlink:href="_i_e_shader_8hpp.html" target="_top" xlink:title=" ">
<polygon fill="white" stroke="black" points="300,-225.5 300,-269.5 480,-269.5 480,-225.5 300,-225.5"/>
<text text-anchor="start" x="308" y="-252.7" font-family="Source Sans Pro" font-size="16.00">GraphicsModule/Shader</text>
<text text-anchor="middle" x="390" y="-234.7" font-family="Source Sans Pro" font-size="16.00">/IEShader.hpp</text>
</a>
</g>
</g>
<!-- Node23&#45;&gt;Node24 -->
<g id="edge56" class="edge">
<title>Node23&#45;&gt;Node24</title>
<path fill="none" stroke="midnightblue" d="M590.2,-306.43C553.95,-295.94 509.98,-283.22 472.48,-272.37"/>
<polygon fill="midnightblue" stroke="midnightblue" points="473.18,-268.93 462.6,-269.51 471.23,-275.65 473.18,-268.93"/>
</g>
<!-- Node24&#45;&gt;Node6 -->
<g id="edge67" class="edge">
<title>Node24&#45;&gt;Node6</title>
<path fill="none" stroke="midnightblue" d="M364.02,-225.47C353.86,-215.6 343.37,-202.94 338,-189 317.87,-136.74 302.07,-105.96 338,-63 367.15,-28.15 502.82,-18.31 570.04,-15.55"/>
<polygon fill="midnightblue" stroke="midnightblue" points="570.36,-19.04 580.22,-15.17 570.09,-12.05 570.36,-19.04"/>
</g>
<!-- Node24&#45;&gt;Node7 -->
<g id="edge68" class="edge">
<title>Node24&#45;&gt;Node7</title>
<path fill="none" stroke="midnightblue" d="M382.04,-225.46C375.12,-203.38 368.43,-168.53 384,-144 429.27,-72.65 475.35,-88.21 556,-63 642.92,-35.83 749.53,-22.98 806.17,-17.68"/>
<polygon fill="midnightblue" stroke="midnightblue" points="806.51,-21.16 816.15,-16.78 805.88,-14.19 806.51,-21.16"/>
</g>
<!-- Node24&#45;&gt;Node8 -->
<g id="edge58" class="edge">
<title>Node24&#45;&gt;Node8</title>
<path fill="none" stroke="midnightblue" d="M387.02,-225.13C385.05,-201.4 386.18,-163.81 409,-144 433.42,-122.8 1413.32,-95.67 1691.85,-88.38"/>
<polygon fill="midnightblue" stroke="midnightblue" points="1692.34,-91.86 1702.24,-88.1 1692.16,-84.87 1692.34,-91.86"/>
</g>
<!-- Node24&#45;&gt;Node9 -->
<g id="edge57" class="edge">
<title>Node24&#45;&gt;Node9</title>
<path fill="none" stroke="midnightblue" d="M476.93,-225.43C536.75,-210.94 614.19,-192.17 664.47,-179.99"/>
<polygon fill="midnightblue" stroke="midnightblue" points="665.57,-183.32 674.46,-177.57 663.92,-176.52 665.57,-183.32"/>
</g>
<!-- Node24&#45;&gt;Node13 -->
<g id="edge69" class="edge">
<title>Node24&#45;&gt;Node13</title>
<path fill="none" stroke="midnightblue" d="M480.19,-240.61C604.16,-232.01 834.03,-214.24 1029,-189 1053.92,-185.77 1081.43,-181.24 1104.46,-177.16"/>
<polygon fill="midnightblue" stroke="midnightblue" points="1105.14,-180.6 1114.37,-175.39 1103.91,-173.71 1105.14,-180.6"/>
</g>
<!-- Node24&#45;&gt;Node14 -->
<g id="edge66" class="edge">
<title>Node24&#45;&gt;Node14</title>
<path fill="none" stroke="midnightblue" d="M409.03,-225.33C419.71,-213.45 432.94,-198.72 443.38,-187.1"/>
<polygon fill="midnightblue" stroke="midnightblue" points="446.02,-189.4 450.1,-179.63 440.81,-184.73 446.02,-189.4"/>
</g>
<!-- Node25 -->
<g id="node25" class="node">
<title>Node25</title>
<g id="a_node25"><a xlink:href="_i_e_file_8hpp.html" target="_top" xlink:title=" ">
<polygon fill="white" stroke="black" points="71.5,-63.5 71.5,-107.5 248.5,-107.5 248.5,-63.5 71.5,-63.5"/>
<text text-anchor="start" x="79.5" y="-90.7" font-family="Source Sans Pro" font-size="16.00">Core/FileSystemModule</text>
<text text-anchor="middle" x="160" y="-72.7" font-family="Source Sans Pro" font-size="16.00">/IEFile.hpp</text>
</a>
</g>
</g>
<!-- Node24&#45;&gt;Node25 -->
<g id="edge59" class="edge">
<title>Node24&#45;&gt;Node25</title>
<path fill="none" stroke="midnightblue" d="M331.22,-225.4C308.59,-215.95 283.14,-203.62 262,-189 231.84,-168.14 202.89,-137.72 183.59,-115.43"/>
<polygon fill="midnightblue" stroke="midnightblue" points="186.08,-112.96 176.93,-107.63 180.76,-117.51 186.08,-112.96"/>
</g>
<!-- Node25&#45;&gt;Node6 -->
<g id="edge64" class="edge">
<title>Node25&#45;&gt;Node6</title>
<path fill="none" stroke="midnightblue" d="M248.66,-65.43C253.17,-64.58 257.63,-63.77 262,-63 373.49,-43.46 506.29,-26.64 570.09,-18.95"/>
<polygon fill="midnightblue" stroke="midnightblue" points="570.58,-22.42 580.09,-17.75 569.75,-15.47 570.58,-22.42"/>
</g>
<!-- Node25&#45;&gt;Node7 -->
<g id="edge65" class="edge">
<title>Node25&#45;&gt;Node7</title>
<path fill="none" stroke="midnightblue" d="M248.76,-70C265.74,-67.47 283.4,-65.01 300,-63 489.02,-40.11 716.09,-23.38 806.28,-17.16"/>
<polygon fill="midnightblue" stroke="midnightblue" points="806.6,-20.64 816.34,-16.47 806.12,-13.66 806.6,-20.64"/>
</g>
<!-- Node26 -->
<g id="node26" class="node">
<title>Node26</title>
<g id="a_node26"><a xlink:title=" ">
<polygon fill="white" stroke="#bfbfbf" points="70.5,-0.5 70.5,-26.5 155.5,-26.5 155.5,-0.5 70.5,-0.5"/>
<text text-anchor="middle" x="113" y="-9.7" font-family="Source Sans Pro" font-size="16.00">filesystem</text>
</a>
</g>
</g>
<!-- Node25&#45;&gt;Node26 -->
<g id="edge60" class="edge">
<title>Node25&#45;&gt;Node26</title>
<path fill="none" stroke="midnightblue" d="M145.9,-63.5C139.81,-54.44 132.72,-43.88 126.69,-34.89"/>
<polygon fill="midnightblue" stroke="midnightblue" points="129.56,-32.88 121.08,-26.53 123.75,-36.78 129.56,-32.88"/>
</g>
<!-- Node27 -->
<g id="node27" class="node">
<title>Node27</title>
<g id="a_node27"><a xlink:title=" ">
<polygon fill="white" stroke="#bfbfbf" points="174,-0.5 174,-26.5 242,-26.5 242,-0.5 174,-0.5"/>
<text text-anchor="middle" x="208" y="-9.7" font-family="Source Sans Pro" font-size="16.00">fstream</text>
</a>
</g>
</g>
<!-- Node25&#45;&gt;Node27 -->
<g id="edge61" class="edge">
<title>Node25&#45;&gt;Node27</title>
<path fill="none" stroke="midnightblue" d="M174.4,-63.5C180.61,-54.44 187.86,-43.88 194.02,-34.89"/>
<polygon fill="midnightblue" stroke="midnightblue" points="196.98,-36.76 199.75,-26.53 191.21,-32.8 196.98,-36.76"/>
</g>
<!-- Node28 -->
<g id="node28" class="node">
<title>Node28</title>
<g id="a_node28"><a xlink:title=" ">
<polygon fill="white" stroke="#bfbfbf" points="260,-0.5 260,-26.5 336,-26.5 336,-0.5 260,-0.5"/>
<text text-anchor="middle" x="298" y="-9.7" font-family="Source Sans Pro" font-size="16.00">iostream</text>
</a>
</g>
</g>
<!-- Node25&#45;&gt;Node28 -->
<g id="edge62" class="edge">
<title>Node25&#45;&gt;Node28</title>
<path fill="none" stroke="midnightblue" d="M201.4,-63.5C221.87,-53.12 246.22,-40.77 265.35,-31.06"/>
<polygon fill="midnightblue" stroke="midnightblue" points="266.95,-34.18 274.28,-26.53 263.78,-27.93 266.95,-34.18"/>
</g>
<!-- Node29 -->
<g id="node29" class="node">
<title>Node29</title>
<g id="a_node29"><a xlink:title=" ">
<polygon fill="white" stroke="#bfbfbf" points="0,-0.5 0,-26.5 52,-26.5 52,-0.5 0,-0.5"/>
<text text-anchor="middle" x="26" y="-9.7" font-family="Source Sans Pro" font-size="16.00">regex</text>
</a>
</g>
</g>
<!-- Node25&#45;&gt;Node29 -->
<g id="edge63" class="edge">
<title>Node25&#45;&gt;Node29</title>
<path fill="none" stroke="midnightblue" d="M119.8,-63.5C100.01,-53.16 76.49,-40.88 57.96,-31.19"/>
<polygon fill="midnightblue" stroke="midnightblue" points="59.51,-28.06 49.03,-26.53 56.27,-34.26 59.51,-28.06"/>
</g>
<!-- Node30&#45;&gt;Node5 -->
<g id="edge74" class="edge">
<title>Node30&#45;&gt;Node5</title>
<path fill="none" stroke="midnightblue" d="M2264.06,-153.42C2220.23,-139.45 2148.09,-116.47 2100.81,-101.41"/>
<polygon fill="midnightblue" stroke="midnightblue" points="2101.71,-98.03 2091.12,-98.32 2099.59,-104.69 2101.71,-98.03"/>
</g>
<!-- Node30&#45;&gt;Node7 -->
<g id="edge75" class="edge">
<title>Node30&#45;&gt;Node7</title>
<path fill="none" stroke="midnightblue" d="M2296.52,-153.17C2285.67,-130.48 2259.1,-82.65 2220,-63 2204.69,-55.31 1110.31,-22.36 885.93,-15.68"/>
<polygon fill="midnightblue" stroke="midnightblue" points="885.71,-12.18 875.62,-15.38 885.51,-19.17 885.71,-12.18"/>
</g>
</g>
</svg>
