<?xml version="1.0" encoding="UTF-8" standalone="no"?>
<!DOCTYPE svg PUBLIC "-//W3C//DTD SVG 1.1//EN"
 "http://www.w3.org/Graphics/SVG/1.1/DTD/svg11.dtd">
<!-- Generated by graphviz version 2.43.0 (0)
 -->
<!-- Title: Illumination&#45;Engine/src/GraphicsModule/RenderPass/IEFramebuffer.hpp Pages: 1 -->
<svg width="1119pt" height="359pt"
 viewBox="0.00 0.00 1119.16 359.00" xmlns="http://www.w3.org/2000/svg" xmlns:xlink="http://www.w3.org/1999/xlink">
<g id="graph0" class="graph" transform="scale(1 1) rotate(0) translate(4 355)">
<title>Illumination&#45;Engine/src/GraphicsModule/RenderPass/IEFramebuffer.hpp</title>
<polygon fill="white" stroke="transparent" points="-4,4 -4,-355 1115.16,-355 1115.16,4 -4,4"/>
<!-- Node1 -->
<g id="node1" class="node">
<title>Node1</title>
<g id="a_node1"><a xlink:title=" ">
<polygon fill="#bfbfbf" stroke="black" points="775.18,-288.5 775.18,-350.5 1007.18,-350.5 1007.18,-288.5 775.18,-288.5"/>
<text text-anchor="start" x="783.18" y="-333.7" font-family="Source Sans Pro" font-size="16.00">Illumination&#45;Engine</text>
<text text-anchor="start" x="783.18" y="-315.7" font-family="Source Sans Pro" font-size="16.00">/src/GraphicsModule</text>
<text text-anchor="middle" x="891.18" y="-297.7" font-family="Source Sans Pro" font-size="16.00">/RenderPass/IEFramebuffer.hpp</text>
</a>
</g>
</g>
<!-- Node2 -->
<g id="node2" class="node">
<title>Node2</title>
<g id="a_node2"><a xlink:href="_i_e_image_8hpp.html" target="_top" xlink:title=" ">
<polygon fill="white" stroke="black" points="557.18,-207.5 557.18,-251.5 731.18,-251.5 731.18,-207.5 557.18,-207.5"/>
<text text-anchor="start" x="565.18" y="-234.7" font-family="Source Sans Pro" font-size="16.00">GraphicsModule/Image</text>
<text text-anchor="middle" x="644.18" y="-216.7" font-family="Source Sans Pro" font-size="16.00">/IEImage.hpp</text>
</a>
</g>
</g>
<!-- Node1&#45;&gt;Node2 -->
<g id="edge1" class="edge">
<title>Node1&#45;&gt;Node2</title>
<path fill="none" stroke="midnightblue" d="M806.86,-288.46C776.23,-277.55 742,-265.35 712.88,-254.98"/>
<polygon fill="midnightblue" stroke="midnightblue" points="713.8,-251.59 703.21,-251.53 711.45,-258.18 713.8,-251.59"/>
</g>
<!-- Node4 -->
<g id="node4" class="node">
<title>Node4</title>
<g id="a_node4"><a xlink:title=" ">
<polygon fill="white" stroke="#bfbfbf" points="809.68,-0.5 809.68,-26.5 868.68,-26.5 868.68,-0.5 809.68,-0.5"/>
<text text-anchor="middle" x="839.18" y="-9.7" font-family="Source Sans Pro" font-size="16.00">vector</text>
</a>
</g>
</g>
<!-- Node1&#45;&gt;Node4 -->
<g id="edge23" class="edge">
<title>Node1&#45;&gt;Node4</title>
<path fill="none" stroke="midnightblue" d="M1005.1,-288.47C1026.1,-279.23 1046.59,-267.31 1063.18,-252 1106.25,-212.23 1122.76,-180.89 1102.18,-126 1069.59,-39.13 944.17,-19.68 879.01,-15.5"/>
<polygon fill="midnightblue" stroke="midnightblue" points="878.89,-11.99 868.71,-14.94 878.5,-18.98 878.89,-11.99"/>
</g>
<!-- Node5 -->
<g id="node5" class="node">
<title>Node5</title>
<g id="a_node5"><a xlink:title=" ">
<polygon fill="white" stroke="#bfbfbf" points="678.68,-63.5 678.68,-89.5 803.68,-89.5 803.68,-63.5 678.68,-63.5"/>
<text text-anchor="middle" x="741.18" y="-72.7" font-family="Source Sans Pro" font-size="16.00">vulkan/vulkan.h</text>
</a>
</g>
</g>
<!-- Node1&#45;&gt;Node5 -->
<g id="edge21" class="edge">
<title>Node1&#45;&gt;Node5</title>
<path fill="none" stroke="midnightblue" d="M958.81,-288.34C1032.53,-251.4 1133.48,-186.3 1081.18,-126 1047.32,-86.97 903.46,-78.56 814.07,-77.2"/>
<polygon fill="midnightblue" stroke="midnightblue" points="814.03,-73.69 803.98,-77.07 813.94,-80.69 814.03,-73.69"/>
</g>
<!-- Node6 -->
<g id="node6" class="node">
<title>Node6</title>
<g id="a_node6"><a xlink:title=" ">
<polygon fill="white" stroke="#bfbfbf" points="141.68,-0.5 141.68,-26.5 196.68,-26.5 196.68,-0.5 141.68,-0.5"/>
<text text-anchor="middle" x="169.18" y="-9.7" font-family="Source Sans Pro" font-size="16.00">string</text>
</a>
</g>
</g>
<!-- Node1&#45;&gt;Node6 -->
<g id="edge22" class="edge">
<title>Node1&#45;&gt;Node6</title>
<path fill="none" stroke="midnightblue" d="M774.78,-316.8C558.67,-310.91 108.57,-284.92 12.18,-171 -34.67,-115.64 72.49,-56.99 132.34,-29.89"/>
<polygon fill="midnightblue" stroke="midnightblue" points="133.79,-33.07 141.5,-25.81 130.94,-26.68 133.79,-33.07"/>
</g>
<!-- Node3 -->
<g id="node3" class="node">
<title>Node3</title>
<g id="a_node3"><a xlink:href="_i_e_dependency_8hpp.html" target="_top" xlink:title=" ">
<polygon fill="white" stroke="black" points="311.68,-126.5 311.68,-170.5 556.68,-170.5 556.68,-126.5 311.68,-126.5"/>
<text text-anchor="start" x="319.68" y="-153.7" font-family="Source Sans Pro" font-size="16.00">GraphicsModule/CommandBuffer</text>
<text text-anchor="middle" x="434.18" y="-135.7" font-family="Source Sans Pro" font-size="16.00">/IEDependency.hpp</text>
</a>
</g>
</g>
<!-- Node2&#45;&gt;Node3 -->
<g id="edge2" class="edge">
<title>Node2&#45;&gt;Node3</title>
<path fill="none" stroke="midnightblue" d="M588.18,-207.43C560.88,-197.17 527.9,-184.76 499.47,-174.06"/>
<polygon fill="midnightblue" stroke="midnightblue" points="500.61,-170.75 490.02,-170.51 498.15,-177.3 500.61,-170.75"/>
</g>
<!-- Node2&#45;&gt;Node4 -->
<g id="edge19" class="edge">
<title>Node2&#45;&gt;Node4</title>
<path fill="none" stroke="midnightblue" d="M731.35,-223.12C852.22,-214.75 1058.5,-196.85 1081.18,-171 1147.05,-95.89 962.94,-42.74 878.74,-22.99"/>
<polygon fill="midnightblue" stroke="midnightblue" points="879.28,-19.52 868.75,-20.69 877.71,-26.34 879.28,-19.52"/>
</g>
<!-- Node2&#45;&gt;Node5 -->
<g id="edge15" class="edge">
<title>Node2&#45;&gt;Node5</title>
<path fill="none" stroke="midnightblue" d="M684.06,-207.36C698.13,-198 712.76,-185.75 722.18,-171 735.93,-149.44 740.01,-119.87 741.07,-99.8"/>
<polygon fill="midnightblue" stroke="midnightblue" points="744.57,-99.85 741.4,-89.74 737.58,-99.62 744.57,-99.85"/>
</g>
<!-- Node2&#45;&gt;Node6 -->
<g id="edge18" class="edge">
<title>Node2&#45;&gt;Node6</title>
<path fill="none" stroke="midnightblue" d="M557.08,-224.28C425.33,-216.99 187.9,-199.97 162.18,-171 128.96,-133.58 147.1,-69.12 159.94,-35.81"/>
<polygon fill="midnightblue" stroke="midnightblue" points="163.18,-37.12 163.69,-26.54 156.69,-34.5 163.18,-37.12"/>
</g>
<!-- Node8 -->
<g id="node8" class="node">
<title>Node8</title>
<g id="a_node8"><a xlink:href="_i_e_a_p_i_8hpp.html" target="_top" xlink:title=" ">
<polygon fill="white" stroke="black" points="171.68,-135.5 171.68,-161.5 254.68,-161.5 254.68,-135.5 171.68,-135.5"/>
<text text-anchor="middle" x="213.18" y="-144.7" font-family="Source Sans Pro" font-size="16.00">IEAPI.hpp</text>
</a>
</g>
</g>
<!-- Node2&#45;&gt;Node8 -->
<g id="edge7" class="edge">
<title>Node2&#45;&gt;Node8</title>
<path fill="none" stroke="midnightblue" d="M557.08,-220.49C480.38,-212.18 366.1,-196.72 269.18,-171 263.03,-169.37 256.64,-167.3 250.45,-165.08"/>
<polygon fill="midnightblue" stroke="midnightblue" points="251.58,-161.76 240.99,-161.53 249.12,-168.32 251.58,-161.76"/>
</g>
<!-- Node10 -->
<g id="node10" class="node">
<title>Node10</title>
<g id="a_node10"><a xlink:title=" ">
<polygon fill="white" stroke="#bfbfbf" points="299.68,-0.5 299.68,-26.5 362.68,-26.5 362.68,-0.5 299.68,-0.5"/>
<text text-anchor="middle" x="331.18" y="-9.7" font-family="Source Sans Pro" font-size="16.00">cstdint</text>
</a>
</g>
</g>
<!-- Node2&#45;&gt;Node10 -->
<g id="edge17" class="edge">
<title>Node2&#45;&gt;Node10</title>
<path fill="none" stroke="midnightblue" d="M557,-226.22C466.65,-221.81 334.21,-208.87 302.18,-171 289.26,-155.73 292.89,-143.72 302.18,-126 315.22,-101.1 341.13,-114.9 354.18,-90 363.29,-72.61 355,-51.04 345.93,-35.41"/>
<polygon fill="midnightblue" stroke="midnightblue" points="348.63,-33.13 340.33,-26.54 342.71,-36.87 348.63,-33.13"/>
</g>
<!-- Node11 -->
<g id="node11" class="node">
<title>Node11</title>
<g id="a_node11"><a xlink:title=" ">
<polygon fill="white" stroke="#bfbfbf" points="575.18,-135.5 575.18,-161.5 713.18,-161.5 713.18,-135.5 575.18,-135.5"/>
<text text-anchor="middle" x="644.18" y="-144.7" font-family="Source Sans Pro" font-size="16.00">include/GL/glew.h</text>
</a>
</g>
</g>
<!-- Node2&#45;&gt;Node11 -->
<g id="edge13" class="edge">
<title>Node2&#45;&gt;Node11</title>
<path fill="none" stroke="midnightblue" d="M644.18,-207.33C644.18,-196.36 644.18,-182.97 644.18,-171.83"/>
<polygon fill="midnightblue" stroke="midnightblue" points="647.68,-171.63 644.18,-161.63 640.68,-171.63 647.68,-171.63"/>
</g>
<!-- Node12 -->
<g id="node12" class="node">
<title>Node12</title>
<g id="a_node12"><a xlink:title=" ">
<polygon fill="white" stroke="#bfbfbf" points="768.68,-135.5 768.68,-161.5 953.68,-161.5 953.68,-135.5 768.68,-135.5"/>
<text text-anchor="middle" x="861.18" y="-144.7" font-family="Source Sans Pro" font-size="16.00">include/vk_mem_alloc.h</text>
</a>
</g>
</g>
<!-- Node2&#45;&gt;Node12 -->
<g id="edge14" class="edge">
<title>Node2&#45;&gt;Node12</title>
<path fill="none" stroke="midnightblue" d="M702.04,-207.43C738.72,-194.08 785.36,-177.1 818.64,-164.98"/>
<polygon fill="midnightblue" stroke="midnightblue" points="819.89,-168.26 828.09,-161.55 817.49,-161.68 819.89,-168.26"/>
</g>
<!-- Node13 -->
<g id="node13" class="node">
<title>Node13</title>
<g id="a_node13"><a xlink:title=" ">
<polygon fill="white" stroke="#bfbfbf" points="972.18,-135.5 972.18,-161.5 1072.18,-161.5 1072.18,-135.5 972.18,-135.5"/>
<text text-anchor="middle" x="1022.18" y="-144.7" font-family="Source Sans Pro" font-size="16.00">stb_image.h</text>
</a>
</g>
</g>
<!-- Node2&#45;&gt;Node13 -->
<g id="edge16" class="edge">
<title>Node2&#45;&gt;Node13</title>
<path fill="none" stroke="midnightblue" d="M731.38,-216.9C796,-207.31 885.9,-191.88 963.18,-171 969.46,-169.3 976.02,-167.23 982.39,-165.04"/>
<polygon fill="midnightblue" stroke="midnightblue" points="983.93,-168.21 992.18,-161.56 981.58,-161.61 983.93,-168.21"/>
</g>
<!-- Node14 -->
<g id="node14" class="node">
<title>Node14</title>
<g id="a_node14"><a xlink:title=" ">
<polygon fill="white" stroke="#bfbfbf" points="21.18,-135.5 21.18,-161.5 107.18,-161.5 107.18,-135.5 21.18,-135.5"/>
<text text-anchor="middle" x="64.18" y="-144.7" font-family="Source Sans Pro" font-size="16.00">functional</text>
</a>
</g>
</g>
<!-- Node2&#45;&gt;Node14 -->
<g id="edge20" class="edge">
<title>Node2&#45;&gt;Node14</title>
<path fill="none" stroke="midnightblue" d="M556.97,-225.59C452.21,-220.58 271.75,-207.07 121.18,-171 114.76,-169.46 108.09,-167.4 101.67,-165.16"/>
<polygon fill="midnightblue" stroke="midnightblue" points="102.45,-161.72 91.86,-161.54 100.03,-168.28 102.45,-161.72"/>
</g>
<!-- Node3&#45;&gt;Node4 -->
<g id="edge3" class="edge">
<title>Node3&#45;&gt;Node4</title>
<path fill="none" stroke="midnightblue" d="M490.09,-126.33C537.7,-108.59 608.04,-83.02 670.18,-63 714.2,-48.82 765.33,-34.43 799.72,-25.05"/>
<polygon fill="midnightblue" stroke="midnightblue" points="800.65,-28.42 809.39,-22.42 798.82,-21.67 800.65,-28.42"/>
</g>
<!-- Node3&#45;&gt;Node5 -->
<g id="edge4" class="edge">
<title>Node3&#45;&gt;Node5</title>
<path fill="none" stroke="midnightblue" d="M526.29,-126.5C575.44,-115.29 634.66,-101.79 678.47,-91.8"/>
<polygon fill="midnightblue" stroke="midnightblue" points="679.44,-95.17 688.41,-89.53 677.88,-88.34 679.44,-95.17"/>
</g>
<!-- Node3&#45;&gt;Node6 -->
<g id="edge5" class="edge">
<title>Node3&#45;&gt;Node6</title>
<path fill="none" stroke="midnightblue" d="M311.47,-127.77C281.87,-119.3 251.51,-107.22 226.18,-90 205.96,-76.26 189.99,-52.99 180.16,-35.9"/>
<polygon fill="midnightblue" stroke="midnightblue" points="182.97,-33.76 175.09,-26.68 176.84,-37.13 182.97,-33.76"/>
</g>
<!-- Node7 -->
<g id="node7" class="node">
<title>Node7</title>
<g id="a_node7"><a xlink:title=" ">
<polygon fill="white" stroke="#bfbfbf" points="401.18,-63.5 401.18,-89.5 475.18,-89.5 475.18,-63.5 401.18,-63.5"/>
<text text-anchor="middle" x="438.18" y="-72.7" font-family="Source Sans Pro" font-size="16.00">memory</text>
</a>
</g>
</g>
<!-- Node3&#45;&gt;Node7 -->
<g id="edge6" class="edge">
<title>Node3&#45;&gt;Node7</title>
<path fill="none" stroke="midnightblue" d="M435.38,-126.5C435.86,-118 436.42,-108.19 436.91,-99.59"/>
<polygon fill="midnightblue" stroke="midnightblue" points="440.41,-99.71 437.49,-89.53 433.42,-99.31 440.41,-99.71"/>
</g>
<!-- Node8&#45;&gt;Node6 -->
<g id="edge12" class="edge">
<title>Node8&#45;&gt;Node6</title>
<path fill="none" stroke="midnightblue" d="M208.79,-135.19C204.67,-123.57 198.38,-105.64 193.18,-90 187.2,-72.04 180.71,-51.58 175.99,-36.49"/>
<polygon fill="midnightblue" stroke="midnightblue" points="179.22,-35.07 172.9,-26.56 172.53,-37.15 179.22,-35.07"/>
</g>
<!-- Node9 -->
<g id="node9" class="node">
<title>Node9</title>
<g id="a_node9"><a xlink:href="_i_e_version_8hpp.html" target="_top" xlink:title=" ">
<polygon fill="white" stroke="black" points="235.18,-63.5 235.18,-89.5 345.18,-89.5 345.18,-63.5 235.18,-63.5"/>
<text text-anchor="middle" x="290.18" y="-72.7" font-family="Source Sans Pro" font-size="16.00">IEVersion.hpp</text>
</a>
</g>
</g>
<!-- Node8&#45;&gt;Node9 -->
<g id="edge8" class="edge">
<title>Node8&#45;&gt;Node9</title>
<path fill="none" stroke="midnightblue" d="M226.59,-135.31C238.4,-124.57 255.8,-108.75 269.41,-96.38"/>
<polygon fill="midnightblue" stroke="midnightblue" points="271.87,-98.87 276.92,-89.55 267.16,-93.69 271.87,-98.87"/>
</g>
<!-- Node9&#45;&gt;Node4 -->
<g id="edge11" class="edge">
<title>Node9&#45;&gt;Node4</title>
<path fill="none" stroke="midnightblue" d="M345.21,-68.61C360.42,-66.75 376.93,-64.76 392.18,-63 542.33,-45.65 721.08,-26.8 799.26,-18.64"/>
<polygon fill="midnightblue" stroke="midnightblue" points="800.02,-22.08 809.61,-17.56 799.3,-15.12 800.02,-22.08"/>
</g>
<!-- Node9&#45;&gt;Node6 -->
<g id="edge10" class="edge">
<title>Node9&#45;&gt;Node6</title>
<path fill="none" stroke="midnightblue" d="M266.27,-63.45C247.96,-54.22 222.48,-41.37 202.22,-31.16"/>
<polygon fill="midnightblue" stroke="midnightblue" points="203.54,-27.9 193.03,-26.53 200.39,-34.15 203.54,-27.9"/>
</g>
<!-- Node9&#45;&gt;Node10 -->
<g id="edge9" class="edge">
<title>Node9&#45;&gt;Node10</title>
<path fill="none" stroke="midnightblue" d="M298.28,-63.45C303.72,-55.34 311.04,-44.46 317.39,-35.01"/>
<polygon fill="midnightblue" stroke="midnightblue" points="320.42,-36.78 323.09,-26.53 314.61,-32.87 320.42,-36.78"/>
</g>
</g>
</svg>
