<?xml version="1.0" encoding="UTF-8" standalone="no"?>
<!DOCTYPE svg PUBLIC "-//W3C//DTD SVG 1.1//EN"
 "http://www.w3.org/Graphics/SVG/1.1/DTD/svg11.dtd">
<!-- Generated by graphviz version 2.43.0 (0)
 -->
<!-- Title: Illumination&#45;Engine/src/Core/IEWindowUser.hpp Pages: 1 -->
<svg width="660pt" height="233pt"
 viewBox="0.00 0.00 659.50 233.00" xmlns="http://www.w3.org/2000/svg" xmlns:xlink="http://www.w3.org/1999/xlink">
<g id="graph0" class="graph" transform="scale(1 1) rotate(0) translate(4 229)">
<title>Illumination&#45;Engine/src/Core/IEWindowUser.hpp</title>
<polygon fill="white" stroke="transparent" points="-4,4 -4,-229 655.5,-229 655.5,4 -4,4"/>
<!-- Node1 -->
<g id="node1" class="node">
<title>Node1</title>
<g id="a_node1"><a xlink:title=" ">
<polygon fill="#bfbfbf" stroke="black" points="201,-180.5 201,-224.5 412,-224.5 412,-180.5 201,-180.5"/>
<text text-anchor="start" x="209" y="-207.7" font-family="Source Sans Pro" font-size="16.00">Illumination&#45;Engine</text>
<text text-anchor="middle" x="306.5" y="-189.7" font-family="Source Sans Pro" font-size="16.00">/src/Core/IEWindowUser.hpp</text>
</a>
</g>
</g>
<!-- Node2 -->
<g id="node2" class="node">
<title>Node2</title>
<g id="a_node2"><a xlink:href="_i_e_window_user_8cpp.html" target="_top" xlink:title=" ">
<polygon fill="white" stroke="black" points="0,-90.5 0,-134.5 209,-134.5 209,-90.5 0,-90.5"/>
<text text-anchor="start" x="8" y="-117.7" font-family="Source Sans Pro" font-size="16.00">Illumination&#45;Engine</text>
<text text-anchor="middle" x="104.5" y="-99.7" font-family="Source Sans Pro" font-size="16.00">/src/Core/IEWindowUser.cpp</text>
</a>
</g>
</g>
<!-- Node1&#45;&gt;Node2 -->
<g id="edge1" class="edge">
<title>Node1&#45;&gt;Node2</title>
<path fill="none" stroke="midnightblue" d="M248.91,-176.41C218.54,-163.18 181.71,-147.13 152.84,-134.56"/>
<polygon fill="midnightblue" stroke="midnightblue" points="247.55,-179.64 258.12,-180.42 250.35,-173.22 247.55,-179.64"/>
</g>
<!-- Node3 -->
<g id="node3" class="node">
<title>Node3</title>
<g id="a_node3"><a xlink:href="_i_e_render_engine_8cpp.html" target="_top" xlink:title=" ">
<polygon fill="white" stroke="black" points="227,-81.5 227,-143.5 386,-143.5 386,-81.5 227,-81.5"/>
<text text-anchor="start" x="235" y="-126.7" font-family="Source Sans Pro" font-size="16.00">Illumination&#45;Engine</text>
<text text-anchor="start" x="235" y="-108.7" font-family="Source Sans Pro" font-size="16.00">/src/GraphicsModule</text>
<text text-anchor="middle" x="306.5" y="-90.7" font-family="Source Sans Pro" font-size="16.00">/IERenderEngine.cpp</text>
</a>
</g>
</g>
<!-- Node1&#45;&gt;Node3 -->
<g id="edge2" class="edge">
<title>Node1&#45;&gt;Node3</title>
<path fill="none" stroke="midnightblue" d="M306.5,-170.12C306.5,-161.48 306.5,-152.14 306.5,-143.58"/>
<polygon fill="midnightblue" stroke="midnightblue" points="303,-170.2 306.5,-180.2 310,-170.2 303,-170.2"/>
</g>
<!-- Node5 -->
<g id="node5" class="node">
<title>Node5</title>
<g id="a_node5"><a xlink:href="_i_e_keyboard_8hpp.html" target="_top" xlink:title=" ">
<polygon fill="white" stroke="black" points="403.5,-90.5 403.5,-134.5 651.5,-134.5 651.5,-90.5 403.5,-90.5"/>
<text text-anchor="start" x="411.5" y="-117.7" font-family="Source Sans Pro" font-size="16.00">Illumination&#45;Engine</text>
<text text-anchor="middle" x="527.5" y="-99.7" font-family="Source Sans Pro" font-size="16.00">/src/InputModule/IEKeyboard.hpp</text>
</a>
</g>
</g>
<!-- Node1&#45;&gt;Node5 -->
<g id="edge4" class="edge">
<title>Node1&#45;&gt;Node5</title>
<path fill="none" stroke="midnightblue" d="M369.07,-176.58C402.38,-163.32 442.89,-147.19 474.61,-134.56"/>
<polygon fill="midnightblue" stroke="midnightblue" points="367.43,-173.47 359.44,-180.42 370.02,-179.97 367.43,-173.47"/>
</g>
<!-- Node4 -->
<g id="node4" class="node">
<title>Node4</title>
<g id="a_node4"><a xlink:href="main_8cpp.html" target="_top" xlink:title=" ">
<polygon fill="white" stroke="black" points="341.5,-0.5 341.5,-44.5 491.5,-44.5 491.5,-0.5 341.5,-0.5"/>
<text text-anchor="start" x="349.5" y="-27.7" font-family="Source Sans Pro" font-size="16.00">Illumination&#45;Engine</text>
<text text-anchor="middle" x="416.5" y="-9.7" font-family="Source Sans Pro" font-size="16.00">/src/main.cpp</text>
</a>
</g>
</g>
<!-- Node3&#45;&gt;Node4 -->
<g id="edge3" class="edge">
<title>Node3&#45;&gt;Node4</title>
<path fill="none" stroke="midnightblue" d="M352.03,-75.08C365.04,-64.67 378.77,-53.68 390.21,-44.53"/>
<polygon fill="midnightblue" stroke="midnightblue" points="349.67,-72.48 344.05,-81.46 354.04,-77.95 349.67,-72.48"/>
</g>
<!-- Node5&#45;&gt;Node4 -->
<g id="edge5" class="edge">
<title>Node5&#45;&gt;Node4</title>
<path fill="none" stroke="midnightblue" d="M492.83,-84.01C476.83,-71.33 458.14,-56.51 443.26,-44.71"/>
<polygon fill="midnightblue" stroke="midnightblue" points="490.9,-86.95 500.91,-90.42 495.25,-81.47 490.9,-86.95"/>
</g>
</g>
</svg>
