<?xml version="1.0" encoding="UTF-8" standalone="no"?>
<!DOCTYPE svg PUBLIC "-//W3C//DTD SVG 1.1//EN"
 "http://www.w3.org/Graphics/SVG/1.1/DTD/svg11.dtd">
<!-- Generated by graphviz version 2.43.0 (0)
 -->
<!-- Title: Illumination&#45;Engine/src/Core/FileSystemModule/IEFile.cpp Pages: 1 -->
<svg width="494pt" height="197pt"
 viewBox="0.00 0.00 494.00 197.00" xmlns="http://www.w3.org/2000/svg" xmlns:xlink="http://www.w3.org/1999/xlink">
<g id="graph0" class="graph" transform="scale(1 1) rotate(0) translate(4 193)">
<title>Illumination&#45;Engine/src/Core/FileSystemModule/IEFile.cpp</title>
<polygon fill="white" stroke="transparent" points="-4,4 -4,-193 490,-193 490,4 -4,4"/>
<!-- Node1 -->
<g id="node1" class="node">
<title>Node1</title>
<g id="a_node1"><a xlink:title=" ">
<polygon fill="#bfbfbf" stroke="black" points="165,-126.5 165,-188.5 372,-188.5 372,-126.5 165,-126.5"/>
<text text-anchor="start" x="173" y="-171.7" font-family="Source Sans Pro" font-size="16.00">Illumination&#45;Engine</text>
<text text-anchor="start" x="173" y="-153.7" font-family="Source Sans Pro" font-size="16.00">/src/Core/FileSystemModule</text>
<text text-anchor="middle" x="268.5" y="-135.7" font-family="Source Sans Pro" font-size="16.00">/IEFile.cpp</text>
</a>
</g>
</g>
<!-- Node2 -->
<g id="node2" class="node">
<title>Node2</title>
<g id="a_node2"><a xlink:href="_i_e_file_8hpp.html" target="_top" xlink:title=" ">
<polygon fill="white" stroke="black" points="226.5,-63.5 226.5,-89.5 310.5,-89.5 310.5,-63.5 226.5,-63.5"/>
<text text-anchor="middle" x="268.5" y="-72.7" font-family="Source Sans Pro" font-size="16.00">IEFile.hpp</text>
</a>
</g>
</g>
<!-- Node1&#45;&gt;Node2 -->
<g id="edge1" class="edge">
<title>Node1&#45;&gt;Node2</title>
<path fill="none" stroke="midnightblue" d="M268.5,-126.18C268.5,-117.45 268.5,-108.08 268.5,-99.91"/>
<polygon fill="midnightblue" stroke="midnightblue" points="272,-99.7 268.5,-89.7 265,-99.7 272,-99.7"/>
</g>
<!-- Node3 -->
<g id="node3" class="node">
<title>Node3</title>
<g id="a_node3"><a xlink:title=" ">
<polygon fill="white" stroke="#bfbfbf" points="0,-0.5 0,-26.5 85,-26.5 85,-0.5 0,-0.5"/>
<text text-anchor="middle" x="42.5" y="-9.7" font-family="Source Sans Pro" font-size="16.00">filesystem</text>
</a>
</g>
</g>
<!-- Node2&#45;&gt;Node3 -->
<g id="edge2" class="edge">
<title>Node2&#45;&gt;Node3</title>
<path fill="none" stroke="midnightblue" d="M226.26,-64.1C189.16,-54.08 135.03,-39.47 95.12,-28.7"/>
<polygon fill="midnightblue" stroke="midnightblue" points="95.87,-25.28 85.3,-26.05 94.05,-32.04 95.87,-25.28"/>
</g>
<!-- Node4 -->
<g id="node4" class="node">
<title>Node4</title>
<g id="a_node4"><a xlink:title=" ">
<polygon fill="white" stroke="#bfbfbf" points="103.5,-0.5 103.5,-26.5 171.5,-26.5 171.5,-0.5 103.5,-0.5"/>
<text text-anchor="middle" x="137.5" y="-9.7" font-family="Source Sans Pro" font-size="16.00">fstream</text>
</a>
</g>
</g>
<!-- Node2&#45;&gt;Node4 -->
<g id="edge3" class="edge">
<title>Node2&#45;&gt;Node4</title>
<path fill="none" stroke="midnightblue" d="M242.62,-63.45C222.61,-54.13 194.71,-41.14 172.68,-30.88"/>
<polygon fill="midnightblue" stroke="midnightblue" points="173.87,-27.58 163.33,-26.53 170.92,-33.92 173.87,-27.58"/>
</g>
<!-- Node5 -->
<g id="node5" class="node">
<title>Node5</title>
<g id="a_node5"><a xlink:title=" ">
<polygon fill="white" stroke="#bfbfbf" points="189.5,-0.5 189.5,-26.5 265.5,-26.5 265.5,-0.5 189.5,-0.5"/>
<text text-anchor="middle" x="227.5" y="-9.7" font-family="Source Sans Pro" font-size="16.00">iostream</text>
</a>
</g>
</g>
<!-- Node2&#45;&gt;Node5 -->
<g id="edge4" class="edge">
<title>Node2&#45;&gt;Node5</title>
<path fill="none" stroke="midnightblue" d="M260.4,-63.45C254.95,-55.34 247.63,-44.46 241.28,-35.01"/>
<polygon fill="midnightblue" stroke="midnightblue" points="244.07,-32.87 235.58,-26.53 238.26,-36.78 244.07,-32.87"/>
</g>
<!-- Node6 -->
<g id="node6" class="node">
<title>Node6</title>
<g id="a_node6"><a xlink:title=" ">
<polygon fill="white" stroke="#bfbfbf" points="283.5,-0.5 283.5,-26.5 335.5,-26.5 335.5,-0.5 283.5,-0.5"/>
<text text-anchor="middle" x="309.5" y="-9.7" font-family="Source Sans Pro" font-size="16.00">regex</text>
</a>
</g>
</g>
<!-- Node2&#45;&gt;Node6 -->
<g id="edge5" class="edge">
<title>Node2&#45;&gt;Node6</title>
<path fill="none" stroke="midnightblue" d="M276.6,-63.45C282.05,-55.34 289.37,-44.46 295.72,-35.01"/>
<polygon fill="midnightblue" stroke="midnightblue" points="298.74,-36.78 301.42,-26.53 292.93,-32.87 298.74,-36.78"/>
</g>
<!-- Node7 -->
<g id="node7" class="node">
<title>Node7</title>
<g id="a_node7"><a xlink:title=" ">
<polygon fill="white" stroke="#bfbfbf" points="354,-0.5 354,-26.5 409,-26.5 409,-0.5 354,-0.5"/>
<text text-anchor="middle" x="381.5" y="-9.7" font-family="Source Sans Pro" font-size="16.00">string</text>
</a>
</g>
</g>
<!-- Node2&#45;&gt;Node7 -->
<g id="edge6" class="edge">
<title>Node2&#45;&gt;Node7</title>
<path fill="none" stroke="midnightblue" d="M290.83,-63.45C307.85,-54.26 331.51,-41.49 350.39,-31.3"/>
<polygon fill="midnightblue" stroke="midnightblue" points="352.08,-34.36 359.22,-26.53 348.76,-28.2 352.08,-34.36"/>
</g>
<!-- Node8 -->
<g id="node8" class="node">
<title>Node8</title>
<g id="a_node8"><a xlink:title=" ">
<polygon fill="white" stroke="#bfbfbf" points="427,-0.5 427,-26.5 486,-26.5 486,-0.5 427,-0.5"/>
<text text-anchor="middle" x="456.5" y="-9.7" font-family="Source Sans Pro" font-size="16.00">vector</text>
</a>
</g>
</g>
<!-- Node2&#45;&gt;Node8 -->
<g id="edge7" class="edge">
<title>Node2&#45;&gt;Node8</title>
<path fill="none" stroke="midnightblue" d="M305.81,-63.49C334.04,-54.4 374.01,-41.49 416.86,-27.53"/>
<polygon fill="midnightblue" stroke="midnightblue" points="418.21,-30.77 426.63,-24.34 416.04,-24.11 418.21,-30.77"/>
</g>
</g>
</svg>
