<?xml version="1.0" encoding="UTF-8" standalone="no"?>
<!DOCTYPE svg PUBLIC "-//W3C//DTD SVG 1.1//EN"
 "http://www.w3.org/Graphics/SVG/1.1/DTD/svg11.dtd">
<!-- Generated by graphviz version 2.43.0 (0)
 -->
<!-- Title: Illumination&#45;Engine/src/GraphicsModule/CommandBuffer/DependencyStructs/IECopyBufferToImageInfo.cpp Pages: 1 -->
<svg width="1164pt" height="422pt"
 viewBox="0.00 0.00 1163.54 422.00" xmlns="http://www.w3.org/2000/svg" xmlns:xlink="http://www.w3.org/1999/xlink">
<g id="graph0" class="graph" transform="scale(1 1) rotate(0) translate(4 418)">
<title>Illumination&#45;Engine/src/GraphicsModule/CommandBuffer/DependencyStructs/IECopyBufferToImageInfo.cpp</title>
<polygon fill="white" stroke="transparent" points="-4,4 -4,-418 1159.54,-418 1159.54,4 -4,4"/>
<!-- Node1 -->
<g id="node1" class="node">
<title>Node1</title>
<g id="a_node1"><a xlink:title=" ">
<polygon fill="#bfbfbf" stroke="black" points="0,-333.5 0,-413.5 272,-413.5 272,-333.5 0,-333.5"/>
<text text-anchor="start" x="8" y="-396.7" font-family="Source Sans Pro" font-size="16.00">Illumination&#45;Engine</text>
<text text-anchor="start" x="8" y="-378.7" font-family="Source Sans Pro" font-size="16.00">/src/GraphicsModule</text>
<text text-anchor="start" x="8" y="-360.7" font-family="Source Sans Pro" font-size="16.00">/CommandBuffer/DependencyStructs</text>
<text text-anchor="middle" x="136" y="-342.7" font-family="Source Sans Pro" font-size="16.00">/IECopyBufferToImageInfo.cpp</text>
</a>
</g>
</g>
<!-- Node2 -->
<g id="node2" class="node">
<title>Node2</title>
<g id="a_node2"><a xlink:href="_i_e_copy_buffer_to_image_info_8hpp.html" target="_top" xlink:title=" ">
<polygon fill="white" stroke="black" points="200.5,-270.5 200.5,-296.5 421.5,-296.5 421.5,-270.5 200.5,-270.5"/>
<text text-anchor="middle" x="311" y="-279.7" font-family="Source Sans Pro" font-size="16.00">IECopyBufferToImageInfo.hpp</text>
</a>
</g>
</g>
<!-- Node1&#45;&gt;Node2 -->
<g id="edge1" class="edge">
<title>Node1&#45;&gt;Node2</title>
<path fill="none" stroke="midnightblue" d="M213.78,-333.39C236.32,-322.05 259.73,-310.28 277.94,-301.13"/>
<polygon fill="midnightblue" stroke="midnightblue" points="279.59,-304.21 286.95,-296.6 276.44,-297.96 279.59,-304.21"/>
</g>
<!-- Node7 -->
<g id="node7" class="node">
<title>Node7</title>
<g id="a_node7"><a xlink:title=" ">
<polygon fill="white" stroke="#bfbfbf" points="689.5,-0.5 689.5,-26.5 748.5,-26.5 748.5,-0.5 689.5,-0.5"/>
<text text-anchor="middle" x="719" y="-9.7" font-family="Source Sans Pro" font-size="16.00">vector</text>
</a>
</g>
</g>
<!-- Node1&#45;&gt;Node7 -->
<g id="edge33" class="edge">
<title>Node1&#45;&gt;Node7</title>
<path fill="none" stroke="midnightblue" d="M85.7,-333.24C56.33,-305.6 25,-265.75 25,-221.5 25,-221.5 25,-221.5 25,-147.5 25,-105.76 31.47,-86.45 66,-63 116.7,-28.57 545.4,-17.73 679.24,-15.17"/>
<polygon fill="midnightblue" stroke="midnightblue" points="679.52,-18.66 689.46,-14.98 679.39,-11.66 679.52,-18.66"/>
</g>
<!-- Node3 -->
<g id="node3" class="node">
<title>Node3</title>
<g id="a_node3"><a xlink:title=" ">
<polygon fill="white" stroke="#bfbfbf" points="1038,-63.5 1038,-89.5 1112,-89.5 1112,-63.5 1038,-63.5"/>
<text text-anchor="middle" x="1075" y="-72.7" font-family="Source Sans Pro" font-size="16.00">memory</text>
</a>
</g>
</g>
<!-- Node2&#45;&gt;Node3 -->
<g id="edge2" class="edge">
<title>Node2&#45;&gt;Node3</title>
<path fill="none" stroke="midnightblue" d="M421.74,-275.95C638.38,-261.96 1101.21,-225.94 1147,-171 1159.81,-155.64 1156.39,-143.66 1147,-126 1139.81,-112.49 1126.99,-102.06 1114.14,-94.4"/>
<polygon fill="midnightblue" stroke="midnightblue" points="1115.76,-91.3 1105.31,-89.54 1112.38,-97.43 1115.76,-91.3"/>
</g>
<!-- Node4 -->
<g id="node4" class="node">
<title>Node4</title>
<g id="a_node4"><a xlink:title=" ">
<polygon fill="white" stroke="#bfbfbf" points="317.5,-63.5 317.5,-89.5 442.5,-89.5 442.5,-63.5 317.5,-63.5"/>
<text text-anchor="middle" x="380" y="-72.7" font-family="Source Sans Pro" font-size="16.00">vulkan/vulkan.h</text>
</a>
</g>
</g>
<!-- Node2&#45;&gt;Node4 -->
<g id="edge3" class="edge">
<title>Node2&#45;&gt;Node4</title>
<path fill="none" stroke="midnightblue" d="M284.82,-270.49C267.76,-261.86 245.65,-249.12 229,-234 190.37,-198.93 150.82,-167.07 183,-126 198.47,-106.26 257.71,-93.47 307.23,-86.01"/>
<polygon fill="midnightblue" stroke="midnightblue" points="307.91,-89.45 317.31,-84.54 306.91,-82.52 307.91,-89.45"/>
</g>
<!-- Node5 -->
<g id="node5" class="node">
<title>Node5</title>
<g id="a_node5"><a xlink:href="_i_e_buffer_8hpp.html" target="_top" xlink:title=" ">
<polygon fill="white" stroke="black" points="237.5,-207.5 237.5,-233.5 384.5,-233.5 384.5,-207.5 237.5,-207.5"/>
<text text-anchor="middle" x="311" y="-216.7" font-family="Source Sans Pro" font-size="16.00">Buffer/IEBuffer.hpp</text>
</a>
</g>
</g>
<!-- Node2&#45;&gt;Node5 -->
<g id="edge4" class="edge">
<title>Node2&#45;&gt;Node5</title>
<path fill="none" stroke="midnightblue" d="M311,-270.45C311,-262.85 311,-252.79 311,-243.78"/>
<polygon fill="midnightblue" stroke="midnightblue" points="314.5,-243.53 311,-233.53 307.5,-243.53 314.5,-243.53"/>
</g>
<!-- Node15 -->
<g id="node15" class="node">
<title>Node15</title>
<g id="a_node15"><a xlink:href="_i_e_image_8hpp.html" target="_top" xlink:title=" ">
<polygon fill="white" stroke="black" points="644.5,-207.5 644.5,-233.5 793.5,-233.5 793.5,-207.5 644.5,-207.5"/>
<text text-anchor="middle" x="719" y="-216.7" font-family="Source Sans Pro" font-size="16.00">Image/IEImage.hpp</text>
</a>
</g>
</g>
<!-- Node2&#45;&gt;Node15 -->
<g id="edge22" class="edge">
<title>Node2&#45;&gt;Node15</title>
<path fill="none" stroke="midnightblue" d="M391.61,-270.45C461.66,-259.97 562.82,-244.85 634.11,-234.19"/>
<polygon fill="midnightblue" stroke="midnightblue" points="635.03,-237.59 644.4,-232.65 633.99,-230.67 635.03,-237.59"/>
</g>
<!-- Node5&#45;&gt;Node4 -->
<g id="edge18" class="edge">
<title>Node5&#45;&gt;Node4</title>
<path fill="none" stroke="midnightblue" d="M247.98,-207.43C227.95,-200.29 207.92,-188.96 196,-171 184.94,-154.34 183.79,-141.84 196,-126 209.87,-108 261.99,-95.34 307.23,-87.47"/>
<polygon fill="midnightblue" stroke="midnightblue" points="308.07,-90.88 317.35,-85.77 306.91,-83.98 308.07,-90.88"/>
</g>
<!-- Node6 -->
<g id="node6" class="node">
<title>Node6</title>
<g id="a_node6"><a xlink:href="_i_e_dependency_8hpp.html" target="_top" xlink:title=" ">
<polygon fill="white" stroke="black" points="596.5,-126.5 596.5,-170.5 841.5,-170.5 841.5,-126.5 596.5,-126.5"/>
<text text-anchor="start" x="604.5" y="-153.7" font-family="Source Sans Pro" font-size="16.00">GraphicsModule/CommandBuffer</text>
<text text-anchor="middle" x="719" y="-135.7" font-family="Source Sans Pro" font-size="16.00">/IEDependency.hpp</text>
</a>
</g>
</g>
<!-- Node5&#45;&gt;Node6 -->
<g id="edge5" class="edge">
<title>Node5&#45;&gt;Node6</title>
<path fill="none" stroke="midnightblue" d="M381.14,-207.47C437.38,-197.82 517.93,-184 586.27,-172.27"/>
<polygon fill="midnightblue" stroke="midnightblue" points="587,-175.7 596.26,-170.56 585.82,-168.8 587,-175.7"/>
</g>
<!-- Node5&#45;&gt;Node7 -->
<g id="edge19" class="edge">
<title>Node5&#45;&gt;Node7</title>
<path fill="none" stroke="midnightblue" d="M237.23,-213.39C179.42,-206.89 105.74,-194.23 87,-171 56.86,-133.64 54.38,-98.22 87,-63 127.23,-19.57 546.32,-14.88 678.97,-14.49"/>
<polygon fill="midnightblue" stroke="midnightblue" points="679.11,-17.99 689.11,-14.47 679.1,-10.99 679.11,-17.99"/>
</g>
<!-- Node9 -->
<g id="node9" class="node">
<title>Node9</title>
<g id="a_node9"><a xlink:href="_i_e_a_p_i_8hpp.html" target="_top" xlink:title=" ">
<polygon fill="white" stroke="black" points="898.5,-135.5 898.5,-161.5 981.5,-161.5 981.5,-135.5 898.5,-135.5"/>
<text text-anchor="middle" x="940" y="-144.7" font-family="Source Sans Pro" font-size="16.00">IEAPI.hpp</text>
</a>
</g>
</g>
<!-- Node5&#45;&gt;Node9 -->
<g id="edge10" class="edge">
<title>Node5&#45;&gt;Node9</title>
<path fill="none" stroke="midnightblue" d="M384.8,-216.32C489.19,-211.05 685.68,-198.24 851,-171 863.13,-169 876.06,-166.25 888.19,-163.38"/>
<polygon fill="midnightblue" stroke="midnightblue" points="889.27,-166.72 898.16,-160.95 887.61,-159.92 889.27,-166.72"/>
</g>
<!-- Node11 -->
<g id="node11" class="node">
<title>Node11</title>
<g id="a_node11"><a xlink:title=" ">
<polygon fill="white" stroke="#bfbfbf" points="857.5,-0.5 857.5,-26.5 920.5,-26.5 920.5,-0.5 857.5,-0.5"/>
<text text-anchor="middle" x="889" y="-9.7" font-family="Source Sans Pro" font-size="16.00">cstdint</text>
</a>
</g>
</g>
<!-- Node5&#45;&gt;Node11 -->
<g id="edge20" class="edge">
<title>Node5&#45;&gt;Node11</title>
<path fill="none" stroke="midnightblue" d="M237.35,-207.9C216.32,-200.8 195.69,-189.38 183,-171 171.64,-154.54 172.49,-143.01 183,-126 215.92,-72.74 248.69,-79.81 309,-63 501.85,-9.25 558.57,-44.51 758,-27 787.8,-24.38 821.4,-21.17 847.1,-18.66"/>
<polygon fill="midnightblue" stroke="midnightblue" points="847.64,-22.13 857.25,-17.67 846.95,-15.16 847.64,-22.13"/>
</g>
<!-- Node12 -->
<g id="node12" class="node">
<title>Node12</title>
<g id="a_node12"><a xlink:title=" ">
<polygon fill="white" stroke="#bfbfbf" points="309.5,-135.5 309.5,-161.5 438.5,-161.5 438.5,-135.5 309.5,-135.5"/>
<text text-anchor="middle" x="374" y="-144.7" font-family="Source Sans Pro" font-size="16.00">vk_mem_alloc.h</text>
</a>
</g>
</g>
<!-- Node5&#45;&gt;Node12 -->
<g id="edge16" class="edge">
<title>Node5&#45;&gt;Node12</title>
<path fill="none" stroke="midnightblue" d="M321.97,-207.31C331.46,-196.77 345.34,-181.34 356.38,-169.07"/>
<polygon fill="midnightblue" stroke="midnightblue" points="359.06,-171.33 363.15,-161.55 353.86,-166.64 359.06,-171.33"/>
</g>
<!-- Node13 -->
<g id="node13" class="node">
<title>Node13</title>
<g id="a_node13"><a xlink:title=" ">
<polygon fill="white" stroke="#bfbfbf" points="456.5,-135.5 456.5,-161.5 539.5,-161.5 539.5,-135.5 456.5,-135.5"/>
<text text-anchor="middle" x="498" y="-144.7" font-family="Source Sans Pro" font-size="16.00">GL/glew.h</text>
</a>
</g>
</g>
<!-- Node5&#45;&gt;Node13 -->
<g id="edge17" class="edge">
<title>Node5&#45;&gt;Node13</title>
<path fill="none" stroke="midnightblue" d="M347.01,-207.48C374.78,-198.03 414.05,-184.29 448,-171 452.44,-169.26 457.07,-167.37 461.65,-165.46"/>
<polygon fill="midnightblue" stroke="midnightblue" points="463.05,-168.67 470.89,-161.54 460.31,-162.23 463.05,-168.67"/>
</g>
<!-- Node14 -->
<g id="node14" class="node">
<title>Node14</title>
<g id="a_node14"><a xlink:title=" ">
<polygon fill="white" stroke="#bfbfbf" points="205,-135.5 205,-161.5 291,-161.5 291,-135.5 205,-135.5"/>
<text text-anchor="middle" x="248" y="-144.7" font-family="Source Sans Pro" font-size="16.00">functional</text>
</a>
</g>
</g>
<!-- Node5&#45;&gt;Node14 -->
<g id="edge21" class="edge">
<title>Node5&#45;&gt;Node14</title>
<path fill="none" stroke="midnightblue" d="M300.03,-207.31C290.54,-196.77 276.66,-181.34 265.62,-169.07"/>
<polygon fill="midnightblue" stroke="midnightblue" points="268.14,-166.64 258.85,-161.55 262.94,-171.33 268.14,-166.64"/>
</g>
<!-- Node6&#45;&gt;Node3 -->
<g id="edge9" class="edge">
<title>Node6&#45;&gt;Node3</title>
<path fill="none" stroke="midnightblue" d="M825.81,-126.5C893.07,-113.27 976.55,-96.86 1027.79,-86.78"/>
<polygon fill="midnightblue" stroke="midnightblue" points="1028.76,-90.16 1037.9,-84.79 1027.41,-83.29 1028.76,-90.16"/>
</g>
<!-- Node6&#45;&gt;Node4 -->
<g id="edge7" class="edge">
<title>Node6&#45;&gt;Node4</title>
<path fill="none" stroke="midnightblue" d="M617.29,-126.5C562.67,-115.22 496.8,-101.62 448.33,-91.61"/>
<polygon fill="midnightblue" stroke="midnightblue" points="448.77,-88.13 438.26,-89.53 447.35,-94.98 448.77,-88.13"/>
</g>
<!-- Node6&#45;&gt;Node7 -->
<g id="edge6" class="edge">
<title>Node6&#45;&gt;Node7</title>
<path fill="none" stroke="midnightblue" d="M719,-126.43C719,-102.03 719,-62.03 719,-37.03"/>
<polygon fill="midnightblue" stroke="midnightblue" points="722.5,-36.71 719,-26.71 715.5,-36.71 722.5,-36.71"/>
</g>
<!-- Node8 -->
<g id="node8" class="node">
<title>Node8</title>
<g id="a_node8"><a xlink:title=" ">
<polygon fill="white" stroke="#bfbfbf" points="1028.5,-0.5 1028.5,-26.5 1083.5,-26.5 1083.5,-0.5 1028.5,-0.5"/>
<text text-anchor="middle" x="1056" y="-9.7" font-family="Source Sans Pro" font-size="16.00">string</text>
</a>
</g>
</g>
<!-- Node6&#45;&gt;Node8 -->
<g id="edge8" class="edge">
<title>Node6&#45;&gt;Node8</title>
<path fill="none" stroke="midnightblue" d="M841.72,-126.84C878.53,-118.15 918.32,-106.19 953,-90 984.29,-75.39 1015.63,-50.61 1035.38,-33.45"/>
<polygon fill="midnightblue" stroke="midnightblue" points="1037.94,-35.86 1043.1,-26.61 1033.29,-30.62 1037.94,-35.86"/>
</g>
<!-- Node9&#45;&gt;Node8 -->
<g id="edge15" class="edge">
<title>Node9&#45;&gt;Node8</title>
<path fill="none" stroke="midnightblue" d="M981.65,-137.03C1032.42,-123.85 1112.56,-101.54 1121,-90 1136.3,-69.08 1111.42,-46.78 1088.15,-31.89"/>
<polygon fill="midnightblue" stroke="midnightblue" points="1089.76,-28.77 1079.4,-26.56 1086.12,-34.75 1089.76,-28.77"/>
</g>
<!-- Node10 -->
<g id="node10" class="node">
<title>Node10</title>
<g id="a_node10"><a xlink:href="_i_e_version_8hpp.html" target="_top" xlink:title=" ">
<polygon fill="white" stroke="black" points="834,-63.5 834,-89.5 944,-89.5 944,-63.5 834,-63.5"/>
<text text-anchor="middle" x="889" y="-72.7" font-family="Source Sans Pro" font-size="16.00">IEVersion.hpp</text>
</a>
</g>
</g>
<!-- Node9&#45;&gt;Node10 -->
<g id="edge11" class="edge">
<title>Node9&#45;&gt;Node10</title>
<path fill="none" stroke="midnightblue" d="M931.12,-135.31C923.58,-124.97 912.63,-109.93 903.77,-97.78"/>
<polygon fill="midnightblue" stroke="midnightblue" points="906.5,-95.57 897.78,-89.55 900.84,-99.7 906.5,-95.57"/>
</g>
<!-- Node10&#45;&gt;Node7 -->
<g id="edge14" class="edge">
<title>Node10&#45;&gt;Node7</title>
<path fill="none" stroke="midnightblue" d="M855.41,-63.45C827.42,-53.4 787.51,-39.08 758.09,-28.52"/>
<polygon fill="midnightblue" stroke="midnightblue" points="759.14,-25.18 748.54,-25.1 756.77,-31.77 759.14,-25.18"/>
</g>
<!-- Node10&#45;&gt;Node8 -->
<g id="edge13" class="edge">
<title>Node10&#45;&gt;Node8</title>
<path fill="none" stroke="midnightblue" d="M921.99,-63.45C949.8,-53.29 989.57,-38.76 1018.56,-28.17"/>
<polygon fill="midnightblue" stroke="midnightblue" points="1020.14,-31.33 1028.33,-24.61 1017.74,-24.75 1020.14,-31.33"/>
</g>
<!-- Node10&#45;&gt;Node11 -->
<g id="edge12" class="edge">
<title>Node10&#45;&gt;Node11</title>
<path fill="none" stroke="midnightblue" d="M889,-63.45C889,-55.85 889,-45.79 889,-36.78"/>
<polygon fill="midnightblue" stroke="midnightblue" points="892.5,-36.53 889,-26.53 885.5,-36.53 892.5,-36.53"/>
</g>
<!-- Node15&#45;&gt;Node4 -->
<g id="edge27" class="edge">
<title>Node15&#45;&gt;Node4</title>
<path fill="none" stroke="midnightblue" d="M669.21,-207.49C643.47,-199.74 612.42,-187.91 588,-171 566.24,-155.93 571.31,-140.24 549,-126 520.09,-107.55 484.01,-95.95 452.62,-88.75"/>
<polygon fill="midnightblue" stroke="midnightblue" points="453.12,-85.28 442.61,-86.56 451.63,-92.11 453.12,-85.28"/>
</g>
<!-- Node15&#45;&gt;Node6 -->
<g id="edge23" class="edge">
<title>Node15&#45;&gt;Node6</title>
<path fill="none" stroke="midnightblue" d="M719,-207.31C719,-199.96 719,-190.25 719,-180.88"/>
<polygon fill="midnightblue" stroke="midnightblue" points="722.5,-180.6 719,-170.6 715.5,-180.6 722.5,-180.6"/>
</g>
<!-- Node15&#45;&gt;Node7 -->
<g id="edge31" class="edge">
<title>Node15&#45;&gt;Node7</title>
<path fill="none" stroke="midnightblue" d="M793.51,-208.87C815.67,-201.84 837.59,-190.22 851,-171 862.45,-154.6 859.42,-144.14 851,-126 839.76,-101.8 780.38,-57.38 745.21,-32.53"/>
<polygon fill="midnightblue" stroke="midnightblue" points="747.03,-29.54 736.83,-26.66 743.01,-35.27 747.03,-29.54"/>
</g>
<!-- Node15&#45;&gt;Node8 -->
<g id="edge30" class="edge">
<title>Node15&#45;&gt;Node8</title>
<path fill="none" stroke="midnightblue" d="M793.72,-216.35C910.13,-210.67 1123.93,-196.83 1147,-171 1159.44,-157.07 1138.17,-64.73 1137,-63 1126.41,-47.33 1108.92,-35.94 1092.89,-28.15"/>
<polygon fill="midnightblue" stroke="midnightblue" points="1094.24,-24.92 1083.69,-23.97 1091.35,-31.29 1094.24,-24.92"/>
</g>
<!-- Node15&#45;&gt;Node9 -->
<g id="edge24" class="edge">
<title>Node15&#45;&gt;Node9</title>
<path fill="none" stroke="midnightblue" d="M763.42,-207.49C796.81,-198.21 843.56,-184.68 884,-171 889.3,-169.21 894.85,-167.22 900.3,-165.2"/>
<polygon fill="midnightblue" stroke="midnightblue" points="901.82,-168.36 909.94,-161.55 899.35,-161.81 901.82,-168.36"/>
</g>
<!-- Node15&#45;&gt;Node11 -->
<g id="edge29" class="edge">
<title>Node15&#45;&gt;Node11</title>
<path fill="none" stroke="midnightblue" d="M793.66,-216.63C865.33,-212.12 966.25,-200.56 991,-171 1029.88,-124.57 957.78,-62.62 915.91,-32.48"/>
<polygon fill="midnightblue" stroke="midnightblue" points="917.68,-29.45 907.49,-26.55 913.65,-35.17 917.68,-29.45"/>
</g>
<!-- Node15&#45;&gt;Node12 -->
<g id="edge26" class="edge">
<title>Node15&#45;&gt;Node12</title>
<path fill="none" stroke="midnightblue" d="M644.38,-208.32C589.7,-199.61 513.85,-186.41 448,-171 439.67,-169.05 430.88,-166.73 422.38,-164.35"/>
<polygon fill="midnightblue" stroke="midnightblue" points="423.16,-160.93 412.59,-161.55 421.24,-167.66 423.16,-160.93"/>
</g>
<!-- Node15&#45;&gt;Node13 -->
<g id="edge25" class="edge">
<title>Node15&#45;&gt;Node13</title>
<path fill="none" stroke="midnightblue" d="M674.58,-207.49C641.19,-198.21 594.44,-184.68 554,-171 548.7,-169.21 543.15,-167.22 537.7,-165.2"/>
<polygon fill="midnightblue" stroke="midnightblue" points="538.65,-161.81 528.06,-161.55 536.18,-168.36 538.65,-161.81"/>
</g>
<!-- Node15&#45;&gt;Node14 -->
<g id="edge32" class="edge">
<title>Node15&#45;&gt;Node14</title>
<path fill="none" stroke="midnightblue" d="M644.28,-216.9C559.79,-212.56 418.67,-201.1 301,-171 295.15,-169.5 289.08,-167.5 283.23,-165.32"/>
<polygon fill="midnightblue" stroke="midnightblue" points="284.26,-161.97 273.68,-161.54 281.69,-168.47 284.26,-161.97"/>
</g>
<!-- Node16 -->
<g id="node16" class="node">
<title>Node16</title>
<g id="a_node16"><a xlink:title=" ">
<polygon fill="white" stroke="#bfbfbf" points="1038,-135.5 1038,-161.5 1138,-161.5 1138,-135.5 1038,-135.5"/>
<text text-anchor="middle" x="1088" y="-144.7" font-family="Source Sans Pro" font-size="16.00">stb_image.h</text>
</a>
</g>
</g>
<!-- Node15&#45;&gt;Node16 -->
<g id="edge28" class="edge">
<title>Node15&#45;&gt;Node16</title>
<path fill="none" stroke="midnightblue" d="M793.65,-211.15C855.82,-203.36 946.42,-190.06 1024,-171 1031.12,-169.25 1038.58,-167.07 1045.8,-164.78"/>
<polygon fill="midnightblue" stroke="midnightblue" points="1047.02,-168.06 1055.42,-161.61 1044.83,-161.41 1047.02,-168.06"/>
</g>
</g>
</svg>
