<?xml version="1.0" encoding="UTF-8" standalone="no"?>
<!DOCTYPE svg PUBLIC "-//W3C//DTD SVG 1.1//EN"
 "http://www.w3.org/Graphics/SVG/1.1/DTD/svg11.dtd">
<!-- Generated by graphviz version 2.43.0 (0)
 -->
<!-- Title: Illumination&#45;Engine/src/GraphicsModule/CommandBuffer/IEDependent.cpp Pages: 1 -->
<svg width="1437pt" height="440pt"
 viewBox="0.00 0.00 1437.46 440.00" xmlns="http://www.w3.org/2000/svg" xmlns:xlink="http://www.w3.org/1999/xlink">
<g id="graph0" class="graph" transform="scale(1 1) rotate(0) translate(4 436)">
<title>Illumination&#45;Engine/src/GraphicsModule/CommandBuffer/IEDependent.cpp</title>
<polygon fill="white" stroke="transparent" points="-4,4 -4,-436 1433.46,-436 1433.46,4 -4,4"/>
<!-- Node1 -->
<g id="node1" class="node">
<title>Node1</title>
<g id="a_node1"><a xlink:title=" ">
<polygon fill="#bfbfbf" stroke="black" points="418.5,-369.5 418.5,-431.5 675.5,-431.5 675.5,-369.5 418.5,-369.5"/>
<text text-anchor="start" x="426.5" y="-414.7" font-family="Source Sans Pro" font-size="16.00">Illumination&#45;Engine</text>
<text text-anchor="start" x="426.5" y="-396.7" font-family="Source Sans Pro" font-size="16.00">/src/GraphicsModule</text>
<text text-anchor="middle" x="547" y="-378.7" font-family="Source Sans Pro" font-size="16.00">/CommandBuffer/IEDependent.cpp</text>
</a>
</g>
</g>
<!-- Node2 -->
<g id="node2" class="node">
<title>Node2</title>
<g id="a_node2"><a xlink:href="_i_e_dependent_8hpp.html" target="_top" xlink:title=" ">
<polygon fill="white" stroke="black" points="0,-135.5 0,-161.5 136,-161.5 136,-135.5 0,-135.5"/>
<text text-anchor="middle" x="68" y="-144.7" font-family="Source Sans Pro" font-size="16.00">IEDependent.hpp</text>
</a>
</g>
</g>
<!-- Node1&#45;&gt;Node2 -->
<g id="edge1" class="edge">
<title>Node1&#45;&gt;Node2</title>
<path fill="none" stroke="midnightblue" d="M418.5,-391.05C318.92,-382.15 191.19,-364.85 150,-333 97.52,-292.42 77.76,-210.9 71.07,-171.64"/>
<polygon fill="midnightblue" stroke="midnightblue" points="74.53,-171.08 69.51,-161.75 67.61,-172.17 74.53,-171.08"/>
</g>
<!-- Node3 -->
<g id="node3" class="node">
<title>Node3</title>
<g id="a_node3"><a xlink:title=" ">
<polygon fill="white" stroke="#bfbfbf" points="100,-63.5 100,-89.5 174,-89.5 174,-63.5 100,-63.5"/>
<text text-anchor="middle" x="137" y="-72.7" font-family="Source Sans Pro" font-size="16.00">memory</text>
</a>
</g>
</g>
<!-- Node1&#45;&gt;Node3 -->
<g id="edge40" class="edge">
<title>Node1&#45;&gt;Node3</title>
<path fill="none" stroke="midnightblue" d="M418.22,-375.86C341.43,-355.41 247.6,-318.25 188,-252 167.6,-229.33 148.94,-141.46 141.02,-99.74"/>
<polygon fill="midnightblue" stroke="midnightblue" points="144.43,-98.93 139.15,-89.74 137.54,-100.21 144.43,-98.93"/>
</g>
<!-- Node5 -->
<g id="node5" class="node">
<title>Node5</title>
<g id="a_node5"><a xlink:href="_i_e_buffer_8hpp.html" target="_top" xlink:title=" ">
<polygon fill="white" stroke="black" points="506.5,-216.5 506.5,-242.5 653.5,-242.5 653.5,-216.5 506.5,-216.5"/>
<text text-anchor="middle" x="580" y="-225.7" font-family="Source Sans Pro" font-size="16.00">Buffer/IEBuffer.hpp</text>
</a>
</g>
</g>
<!-- Node1&#45;&gt;Node5 -->
<g id="edge4" class="edge">
<title>Node1&#45;&gt;Node5</title>
<path fill="none" stroke="midnightblue" d="M552.07,-369.14C555.91,-346.68 561.45,-315.37 567,-288 569.38,-276.26 572.3,-263.25 574.77,-252.57"/>
<polygon fill="midnightblue" stroke="midnightblue" points="578.18,-253.34 577.05,-242.8 571.37,-251.74 578.18,-253.34"/>
</g>
<!-- Node6 -->
<g id="node6" class="node">
<title>Node6</title>
<g id="a_node6"><a xlink:href="_i_e_dependency_8hpp.html" target="_top" xlink:title=" ">
<polygon fill="white" stroke="black" points="306.5,-126.5 306.5,-170.5 551.5,-170.5 551.5,-126.5 306.5,-126.5"/>
<text text-anchor="start" x="314.5" y="-153.7" font-family="Source Sans Pro" font-size="16.00">GraphicsModule/CommandBuffer</text>
<text text-anchor="middle" x="429" y="-135.7" font-family="Source Sans Pro" font-size="16.00">/IEDependency.hpp</text>
</a>
</g>
</g>
<!-- Node1&#45;&gt;Node6 -->
<g id="edge37" class="edge">
<title>Node1&#45;&gt;Node6</title>
<path fill="none" stroke="midnightblue" d="M532.77,-369.34C510.11,-321.35 466.11,-228.11 443.37,-179.94"/>
<polygon fill="midnightblue" stroke="midnightblue" points="446.42,-178.21 438.99,-170.66 440.09,-181.19 446.42,-178.21"/>
</g>
<!-- Node15 -->
<g id="node15" class="node">
<title>Node15</title>
<g id="a_node15"><a xlink:href="_i_e_framebuffer_8hpp.html" target="_top" xlink:title=" ">
<polygon fill="white" stroke="black" points="575.5,-288.5 575.5,-332.5 786.5,-332.5 786.5,-288.5 575.5,-288.5"/>
<text text-anchor="start" x="583.5" y="-315.7" font-family="Source Sans Pro" font-size="16.00">GraphicsModule/RenderPass</text>
<text text-anchor="middle" x="681" y="-297.7" font-family="Source Sans Pro" font-size="16.00">/IEFramebuffer.hpp</text>
</a>
</g>
</g>
<!-- Node1&#45;&gt;Node15 -->
<g id="edge22" class="edge">
<title>Node1&#45;&gt;Node15</title>
<path fill="none" stroke="midnightblue" d="M592.74,-369.46C608.2,-359.31 625.36,-348.04 640.39,-338.17"/>
<polygon fill="midnightblue" stroke="midnightblue" points="642.54,-340.95 648.98,-332.53 638.7,-335.09 642.54,-340.95"/>
</g>
<!-- Node18 -->
<g id="node18" class="node">
<title>Node18</title>
<g id="a_node18"><a xlink:title=" ">
<polygon fill="white" stroke="#bfbfbf" points="805,-297.5 805,-323.5 887,-323.5 887,-297.5 805,-297.5"/>
<text text-anchor="middle" x="846" y="-306.7" font-family="Source Sans Pro" font-size="16.00">algorithm</text>
</a>
</g>
</g>
<!-- Node1&#45;&gt;Node18 -->
<g id="edge38" class="edge">
<title>Node1&#45;&gt;Node18</title>
<path fill="none" stroke="midnightblue" d="M673.79,-369.44C713.3,-359.06 756.79,-346.59 796,-333 800.67,-331.38 805.51,-329.53 810.26,-327.61"/>
<polygon fill="midnightblue" stroke="midnightblue" points="811.94,-330.7 819.81,-323.61 809.24,-324.24 811.94,-330.7"/>
</g>
<!-- Node19 -->
<g id="node19" class="node">
<title>Node19</title>
<g id="a_node19"><a xlink:title=" ">
<polygon fill="white" stroke="#bfbfbf" points="905,-297.5 905,-323.5 981,-323.5 981,-297.5 905,-297.5"/>
<text text-anchor="middle" x="943" y="-306.7" font-family="Source Sans Pro" font-size="16.00">iostream</text>
</a>
</g>
</g>
<!-- Node1&#45;&gt;Node19 -->
<g id="edge39" class="edge">
<title>Node1&#45;&gt;Node19</title>
<path fill="none" stroke="midnightblue" d="M675.65,-382.57C742.36,-371.9 824.6,-355.77 896,-333 900.67,-331.51 905.49,-329.68 910.18,-327.72"/>
<polygon fill="midnightblue" stroke="midnightblue" points="911.8,-330.82 919.53,-323.58 908.97,-324.42 911.8,-330.82"/>
</g>
<!-- Node2&#45;&gt;Node3 -->
<g id="edge2" class="edge">
<title>Node2&#45;&gt;Node3</title>
<path fill="none" stroke="midnightblue" d="M80.02,-135.31C90.51,-124.67 105.9,-109.05 118.05,-96.73"/>
<polygon fill="midnightblue" stroke="midnightblue" points="120.59,-99.13 125.12,-89.55 115.61,-94.22 120.59,-99.13"/>
</g>
<!-- Node4 -->
<g id="node4" class="node">
<title>Node4</title>
<g id="a_node4"><a xlink:title=" ">
<polygon fill="white" stroke="#bfbfbf" points="229.5,-0.5 229.5,-26.5 288.5,-26.5 288.5,-0.5 229.5,-0.5"/>
<text text-anchor="middle" x="259" y="-9.7" font-family="Source Sans Pro" font-size="16.00">vector</text>
</a>
</g>
</g>
<!-- Node2&#45;&gt;Node4 -->
<g id="edge3" class="edge">
<title>Node2&#45;&gt;Node4</title>
<path fill="none" stroke="midnightblue" d="M67.79,-135.34C68.15,-117.11 71.58,-82.72 91,-63 124.78,-28.7 181.18,-18.28 219.21,-15.32"/>
<polygon fill="midnightblue" stroke="midnightblue" points="219.66,-18.8 229.42,-14.67 219.21,-11.82 219.66,-18.8"/>
</g>
<!-- Node5&#45;&gt;Node4 -->
<g id="edge21" class="edge">
<title>Node5&#45;&gt;Node4</title>
<path fill="none" stroke="midnightblue" d="M506.35,-225.48C423,-220.36 294.81,-206.74 264,-171 231.65,-133.47 242.83,-70.04 251.96,-36.63"/>
<polygon fill="midnightblue" stroke="midnightblue" points="255.35,-37.48 254.79,-26.9 248.63,-35.52 255.35,-37.48"/>
</g>
<!-- Node5&#45;&gt;Node6 -->
<g id="edge5" class="edge">
<title>Node5&#45;&gt;Node6</title>
<path fill="none" stroke="midnightblue" d="M556.74,-216.33C535.94,-205.45 504.78,-189.15 478.44,-175.36"/>
<polygon fill="midnightblue" stroke="midnightblue" points="479.83,-172.14 469.35,-170.61 476.58,-178.35 479.83,-172.14"/>
</g>
<!-- Node8 -->
<g id="node8" class="node">
<title>Node8</title>
<g id="a_node8"><a xlink:title=" ">
<polygon fill="white" stroke="#bfbfbf" points="728.5,-63.5 728.5,-89.5 853.5,-89.5 853.5,-63.5 728.5,-63.5"/>
<text text-anchor="middle" x="791" y="-72.7" font-family="Source Sans Pro" font-size="16.00">vulkan/vulkan.h</text>
</a>
</g>
</g>
<!-- Node5&#45;&gt;Node8 -->
<g id="edge18" class="edge">
<title>Node5&#45;&gt;Node8</title>
<path fill="none" stroke="midnightblue" d="M578.41,-216.24C576.4,-194.93 575.6,-150.95 599,-126 615.41,-108.5 671,-95.66 718.17,-87.61"/>
<polygon fill="midnightblue" stroke="midnightblue" points="718.8,-91.05 728.09,-85.96 717.65,-84.15 718.8,-91.05"/>
</g>
<!-- Node9 -->
<g id="node9" class="node">
<title>Node9</title>
<g id="a_node9"><a xlink:href="_i_e_a_p_i_8hpp.html" target="_top" xlink:title=" ">
<polygon fill="white" stroke="black" points="1148.5,-135.5 1148.5,-161.5 1231.5,-161.5 1231.5,-135.5 1148.5,-135.5"/>
<text text-anchor="middle" x="1190" y="-144.7" font-family="Source Sans Pro" font-size="16.00">IEAPI.hpp</text>
</a>
</g>
</g>
<!-- Node5&#45;&gt;Node9 -->
<g id="edge10" class="edge">
<title>Node5&#45;&gt;Node9</title>
<path fill="none" stroke="midnightblue" d="M653.79,-220.86C748.66,-210.77 918.4,-191.83 1063,-171 1087.87,-167.42 1115.38,-162.84 1138.42,-158.83"/>
<polygon fill="midnightblue" stroke="midnightblue" points="1139.08,-162.26 1148.33,-157.09 1137.87,-155.37 1139.08,-162.26"/>
</g>
<!-- Node11 -->
<g id="node11" class="node">
<title>Node11</title>
<g id="a_node11"><a xlink:title=" ">
<polygon fill="white" stroke="#bfbfbf" points="1145.5,-0.5 1145.5,-26.5 1208.5,-26.5 1208.5,-0.5 1145.5,-0.5"/>
<text text-anchor="middle" x="1177" y="-9.7" font-family="Source Sans Pro" font-size="16.00">cstdint</text>
</a>
</g>
</g>
<!-- Node5&#45;&gt;Node11 -->
<g id="edge19" class="edge">
<title>Node5&#45;&gt;Node11</title>
<path fill="none" stroke="midnightblue" d="M506.31,-225.76C403.21,-219.33 235.07,-197.83 297,-126 352.56,-61.55 968.07,-25.28 1135.29,-16.57"/>
<polygon fill="midnightblue" stroke="midnightblue" points="1135.61,-20.06 1145.42,-16.05 1135.25,-13.07 1135.61,-20.06"/>
</g>
<!-- Node12 -->
<g id="node12" class="node">
<title>Node12</title>
<g id="a_node12"><a xlink:title=" ">
<polygon fill="white" stroke="#bfbfbf" points="764.5,-135.5 764.5,-161.5 949.5,-161.5 949.5,-135.5 764.5,-135.5"/>
<text text-anchor="middle" x="857" y="-144.7" font-family="Source Sans Pro" font-size="16.00">include/vk_mem_alloc.h</text>
</a>
</g>
</g>
<!-- Node5&#45;&gt;Node12 -->
<g id="edge16" class="edge">
<title>Node5&#45;&gt;Node12</title>
<path fill="none" stroke="midnightblue" d="M622.37,-216.42C671.35,-202.45 751.98,-179.45 804.78,-164.39"/>
<polygon fill="midnightblue" stroke="midnightblue" points="805.98,-167.69 814.63,-161.58 804.06,-160.96 805.98,-167.69"/>
</g>
<!-- Node13 -->
<g id="node13" class="node">
<title>Node13</title>
<g id="a_node13"><a xlink:title=" ">
<polygon fill="white" stroke="#bfbfbf" points="608,-135.5 608,-161.5 746,-161.5 746,-135.5 608,-135.5"/>
<text text-anchor="middle" x="677" y="-144.7" font-family="Source Sans Pro" font-size="16.00">include/GL/glew.h</text>
</a>
</g>
</g>
<!-- Node5&#45;&gt;Node13 -->
<g id="edge17" class="edge">
<title>Node5&#45;&gt;Node13</title>
<path fill="none" stroke="midnightblue" d="M595.16,-216.16C610.96,-203.29 635.92,-182.96 654.12,-168.14"/>
<polygon fill="midnightblue" stroke="midnightblue" points="656.41,-170.79 661.95,-161.76 651.99,-165.36 656.41,-170.79"/>
</g>
<!-- Node14 -->
<g id="node14" class="node">
<title>Node14</title>
<g id="a_node14"><a xlink:title=" ">
<polygon fill="white" stroke="#bfbfbf" points="968,-135.5 968,-161.5 1054,-161.5 1054,-135.5 968,-135.5"/>
<text text-anchor="middle" x="1011" y="-144.7" font-family="Source Sans Pro" font-size="16.00">functional</text>
</a>
</g>
</g>
<!-- Node5&#45;&gt;Node14 -->
<g id="edge20" class="edge">
<title>Node5&#45;&gt;Node14</title>
<path fill="none" stroke="midnightblue" d="M653.76,-222.62C730.95,-215.24 855.13,-199.89 959,-171 964.47,-169.48 970.14,-167.54 975.63,-165.45"/>
<polygon fill="midnightblue" stroke="midnightblue" points="977.27,-168.56 985.25,-161.59 974.66,-162.07 977.27,-168.56"/>
</g>
<!-- Node6&#45;&gt;Node3 -->
<g id="edge6" class="edge">
<title>Node6&#45;&gt;Node3</title>
<path fill="none" stroke="midnightblue" d="M341.39,-126.5C289.76,-114.12 226.46,-98.95 184.11,-88.79"/>
<polygon fill="midnightblue" stroke="midnightblue" points="184.88,-85.38 174.34,-86.45 183.25,-92.19 184.88,-85.38"/>
</g>
<!-- Node6&#45;&gt;Node4 -->
<g id="edge8" class="edge">
<title>Node6&#45;&gt;Node4</title>
<path fill="none" stroke="midnightblue" d="M402.06,-126.43C369.2,-100.72 314.16,-57.65 282.79,-33.12"/>
<polygon fill="midnightblue" stroke="midnightblue" points="284.65,-30.12 274.61,-26.71 280.33,-35.63 284.65,-30.12"/>
</g>
<!-- Node7 -->
<g id="node7" class="node">
<title>Node7</title>
<g id="a_node7"><a xlink:title=" ">
<polygon fill="white" stroke="#bfbfbf" points="1308.5,-0.5 1308.5,-26.5 1363.5,-26.5 1363.5,-0.5 1308.5,-0.5"/>
<text text-anchor="middle" x="1336" y="-9.7" font-family="Source Sans Pro" font-size="16.00">string</text>
</a>
</g>
</g>
<!-- Node6&#45;&gt;Node7 -->
<g id="edge7" class="edge">
<title>Node6&#45;&gt;Node7</title>
<path fill="none" stroke="midnightblue" d="M551.92,-130.92C567.74,-129.09 583.74,-127.39 599,-126 741.3,-113.03 1107.46,-140.84 1241,-90 1271.9,-78.23 1300.62,-52.51 1318.22,-34.37"/>
<polygon fill="midnightblue" stroke="midnightblue" points="1321.19,-36.33 1325.49,-26.65 1316.09,-31.53 1321.19,-36.33"/>
</g>
<!-- Node6&#45;&gt;Node8 -->
<g id="edge9" class="edge">
<title>Node6&#45;&gt;Node8</title>
<path fill="none" stroke="midnightblue" d="M537.61,-126.5C596.19,-115.17 666.87,-101.5 718.68,-91.48"/>
<polygon fill="midnightblue" stroke="midnightblue" points="719.63,-94.87 728.78,-89.53 718.3,-87.99 719.63,-94.87"/>
</g>
<!-- Node9&#45;&gt;Node7 -->
<g id="edge15" class="edge">
<title>Node9&#45;&gt;Node7</title>
<path fill="none" stroke="midnightblue" d="M1231.75,-137.14C1258.15,-128.58 1291.1,-113.87 1312,-90 1324.96,-75.2 1330.93,-53.38 1333.67,-36.99"/>
<polygon fill="midnightblue" stroke="midnightblue" points="1337.2,-37.06 1335.1,-26.67 1330.26,-36.1 1337.2,-37.06"/>
</g>
<!-- Node10 -->
<g id="node10" class="node">
<title>Node10</title>
<g id="a_node10"><a xlink:href="_i_e_version_8hpp.html" target="_top" xlink:title=" ">
<polygon fill="white" stroke="black" points="1122,-63.5 1122,-89.5 1232,-89.5 1232,-63.5 1122,-63.5"/>
<text text-anchor="middle" x="1177" y="-72.7" font-family="Source Sans Pro" font-size="16.00">IEVersion.hpp</text>
</a>
</g>
</g>
<!-- Node9&#45;&gt;Node10 -->
<g id="edge11" class="edge">
<title>Node9&#45;&gt;Node10</title>
<path fill="none" stroke="midnightblue" d="M1187.74,-135.31C1185.91,-125.47 1183.29,-111.38 1181.1,-99.57"/>
<polygon fill="midnightblue" stroke="midnightblue" points="1184.51,-98.75 1179.24,-89.55 1177.62,-100.02 1184.51,-98.75"/>
</g>
<!-- Node10&#45;&gt;Node4 -->
<g id="edge14" class="edge">
<title>Node10&#45;&gt;Node4</title>
<path fill="none" stroke="midnightblue" d="M1121.73,-64.87C1117.09,-64.17 1112.47,-63.53 1108,-63 798.12,-26.22 421.17,-17.11 299.16,-15.05"/>
<polygon fill="midnightblue" stroke="midnightblue" points="298.87,-11.55 288.82,-14.89 298.76,-18.55 298.87,-11.55"/>
</g>
<!-- Node10&#45;&gt;Node7 -->
<g id="edge13" class="edge">
<title>Node10&#45;&gt;Node7</title>
<path fill="none" stroke="midnightblue" d="M1208.41,-63.45C1234.37,-53.49 1271.28,-39.33 1298.72,-28.8"/>
<polygon fill="midnightblue" stroke="midnightblue" points="1300.29,-31.95 1308.37,-25.1 1297.78,-25.41 1300.29,-31.95"/>
</g>
<!-- Node10&#45;&gt;Node11 -->
<g id="edge12" class="edge">
<title>Node10&#45;&gt;Node11</title>
<path fill="none" stroke="midnightblue" d="M1177,-63.45C1177,-55.85 1177,-45.79 1177,-36.78"/>
<polygon fill="midnightblue" stroke="midnightblue" points="1180.5,-36.53 1177,-26.53 1173.5,-36.53 1180.5,-36.53"/>
</g>
<!-- Node15&#45;&gt;Node4 -->
<g id="edge36" class="edge">
<title>Node15&#45;&gt;Node4</title>
<path fill="none" stroke="midnightblue" d="M575.37,-290.76C458.56,-267.67 281.48,-224.79 241,-171 210.9,-130.99 233.05,-68.18 248.12,-35.63"/>
<polygon fill="midnightblue" stroke="midnightblue" points="251.3,-37.09 252.5,-26.56 245,-34.04 251.3,-37.09"/>
</g>
<!-- Node15&#45;&gt;Node7 -->
<g id="edge35" class="edge">
<title>Node15&#45;&gt;Node7</title>
<path fill="none" stroke="midnightblue" d="M786.52,-289.29C789.71,-288.84 792.88,-288.4 796,-288 1016.52,-259.52 1084.58,-323.86 1295,-252 1356.59,-230.97 1386.23,-228.35 1417,-171 1439.97,-128.18 1427.15,-103.3 1400,-63 1391.74,-50.75 1379.35,-40.33 1367.67,-32.32"/>
<polygon fill="midnightblue" stroke="midnightblue" points="1369.25,-29.17 1358.95,-26.68 1365.44,-35.05 1369.25,-29.17"/>
</g>
<!-- Node15&#45;&gt;Node8 -->
<g id="edge34" class="edge">
<title>Node15&#45;&gt;Node8</title>
<path fill="none" stroke="midnightblue" d="M786.53,-289.39C789.72,-288.9 792.88,-288.44 796,-288 930.74,-269.1 1319.25,-282.66 1397,-171 1408.43,-154.59 1410.57,-140.7 1397,-126 1379.14,-106.65 1020.67,-87.99 863.64,-80.71"/>
<polygon fill="midnightblue" stroke="midnightblue" points="863.74,-77.21 853.59,-80.24 863.42,-84.2 863.74,-77.21"/>
</g>
<!-- Node16 -->
<g id="node16" class="node">
<title>Node16</title>
<g id="a_node16"><a xlink:href="_i_e_image_8hpp.html" target="_top" xlink:title=" ">
<polygon fill="white" stroke="black" points="995,-207.5 995,-251.5 1169,-251.5 1169,-207.5 995,-207.5"/>
<text text-anchor="start" x="1003" y="-234.7" font-family="Source Sans Pro" font-size="16.00">GraphicsModule/Image</text>
<text text-anchor="middle" x="1082" y="-216.7" font-family="Source Sans Pro" font-size="16.00">/IEImage.hpp</text>
</a>
</g>
</g>
<!-- Node15&#45;&gt;Node16 -->
<g id="edge23" class="edge">
<title>Node15&#45;&gt;Node16</title>
<path fill="none" stroke="midnightblue" d="M786.62,-288.69C848.06,-276.59 924.94,-261.44 984.87,-249.64"/>
<polygon fill="midnightblue" stroke="midnightblue" points="985.58,-253.06 994.71,-247.7 984.22,-246.2 985.58,-253.06"/>
</g>
<!-- Node16&#45;&gt;Node4 -->
<g id="edge33" class="edge">
<title>Node16&#45;&gt;Node4</title>
<path fill="none" stroke="midnightblue" d="M1090.31,-207.32C1097.63,-184.81 1104.64,-149.29 1087,-126 1024.55,-43.57 964.8,-81.22 863,-63 652.9,-25.39 396.43,-16.93 299.07,-15.04"/>
<polygon fill="midnightblue" stroke="midnightblue" points="298.86,-11.54 288.8,-14.85 298.74,-18.53 298.86,-11.54"/>
</g>
<!-- Node16&#45;&gt;Node6 -->
<g id="edge24" class="edge">
<title>Node16&#45;&gt;Node6</title>
<path fill="none" stroke="midnightblue" d="M994.72,-218.3C897.97,-206.96 737.3,-187.98 599,-171 586.88,-169.51 574.29,-167.95 561.67,-166.37"/>
<polygon fill="midnightblue" stroke="midnightblue" points="561.91,-162.88 551.56,-165.11 561.04,-169.82 561.91,-162.88"/>
</g>
<!-- Node16&#45;&gt;Node7 -->
<g id="edge32" class="edge">
<title>Node16&#45;&gt;Node7</title>
<path fill="none" stroke="midnightblue" d="M1169.26,-224.74C1252.23,-219.12 1368.47,-205.21 1397,-171 1431.61,-129.5 1384.16,-66.09 1355.31,-34.22"/>
<polygon fill="midnightblue" stroke="midnightblue" points="1357.81,-31.77 1348.44,-26.83 1352.68,-36.54 1357.81,-31.77"/>
</g>
<!-- Node16&#45;&gt;Node8 -->
<g id="edge29" class="edge">
<title>Node16&#45;&gt;Node8</title>
<path fill="none" stroke="midnightblue" d="M1084.51,-207.25C1085.98,-183.98 1084.32,-147.17 1063,-126 1035.55,-98.74 934.69,-86.57 863.84,-81.31"/>
<polygon fill="midnightblue" stroke="midnightblue" points="863.84,-77.8 853.61,-80.58 863.34,-84.78 863.84,-77.8"/>
</g>
<!-- Node16&#45;&gt;Node9 -->
<g id="edge25" class="edge">
<title>Node16&#45;&gt;Node9</title>
<path fill="none" stroke="midnightblue" d="M1110.94,-207.33C1127.81,-194.99 1148.87,-179.58 1165.02,-167.77"/>
<polygon fill="midnightblue" stroke="midnightblue" points="1167.42,-170.36 1173.42,-161.63 1163.28,-164.71 1167.42,-170.36"/>
</g>
<!-- Node16&#45;&gt;Node11 -->
<g id="edge30" class="edge">
<title>Node16&#45;&gt;Node11</title>
<path fill="none" stroke="midnightblue" d="M1169.22,-216.99C1196.75,-208.78 1224.31,-194.79 1241,-171 1268.57,-131.71 1262.36,-105.99 1241,-63 1234.62,-50.17 1223.05,-39.82 1211.48,-32.03"/>
<polygon fill="midnightblue" stroke="midnightblue" points="1213.06,-28.89 1202.72,-26.57 1209.35,-34.83 1213.06,-28.89"/>
</g>
<!-- Node16&#45;&gt;Node12 -->
<g id="edge27" class="edge">
<title>Node16&#45;&gt;Node12</title>
<path fill="none" stroke="midnightblue" d="M1022,-207.43C983.97,-194.08 935.61,-177.1 901.1,-164.98"/>
<polygon fill="midnightblue" stroke="midnightblue" points="901.9,-161.56 891.31,-161.55 899.58,-168.16 901.9,-161.56"/>
</g>
<!-- Node16&#45;&gt;Node13 -->
<g id="edge26" class="edge">
<title>Node16&#45;&gt;Node13</title>
<path fill="none" stroke="midnightblue" d="M994.74,-215.33C928.85,-204.84 836.34,-188.98 756,-171 747.04,-168.99 737.56,-166.63 728.41,-164.22"/>
<polygon fill="midnightblue" stroke="midnightblue" points="729.21,-160.81 718.64,-161.6 727.39,-167.57 729.21,-160.81"/>
</g>
<!-- Node16&#45;&gt;Node14 -->
<g id="edge31" class="edge">
<title>Node16&#45;&gt;Node14</title>
<path fill="none" stroke="midnightblue" d="M1062.97,-207.33C1052.29,-195.45 1039.06,-180.72 1028.62,-169.1"/>
<polygon fill="midnightblue" stroke="midnightblue" points="1031.19,-166.73 1021.9,-161.63 1025.98,-171.4 1031.19,-166.73"/>
</g>
<!-- Node17 -->
<g id="node17" class="node">
<title>Node17</title>
<g id="a_node17"><a xlink:title=" ">
<polygon fill="white" stroke="#bfbfbf" points="1288,-135.5 1288,-161.5 1388,-161.5 1388,-135.5 1288,-135.5"/>
<text text-anchor="middle" x="1338" y="-144.7" font-family="Source Sans Pro" font-size="16.00">stb_image.h</text>
</a>
</g>
</g>
<!-- Node16&#45;&gt;Node17 -->
<g id="edge28" class="edge">
<title>Node16&#45;&gt;Node17</title>
<path fill="none" stroke="midnightblue" d="M1154.2,-207.49C1190.27,-196.84 1234.54,-183.53 1274,-171 1280.16,-169.04 1286.63,-166.93 1293,-164.83"/>
<polygon fill="midnightblue" stroke="midnightblue" points="1294.48,-168.02 1302.86,-161.54 1292.26,-161.38 1294.48,-168.02"/>
</g>
</g>
</svg>
