<?xml version="1.0" encoding="UTF-8" standalone="no"?>
<!DOCTYPE svg PUBLIC "-//W3C//DTD SVG 1.1//EN"
 "http://www.w3.org/Graphics/SVG/1.1/DTD/svg11.dtd">
<!-- Generated by graphviz version 2.43.0 (0)
 -->
<!-- Title: Illumination&#45;Engine/src/GraphicsModule/Renderable/IEMesh.hpp Pages: 1 -->
<svg width="728pt" height="350pt"
 viewBox="0.00 0.00 728.00 350.00" xmlns="http://www.w3.org/2000/svg" xmlns:xlink="http://www.w3.org/1999/xlink">
<g id="graph0" class="graph" transform="scale(1 1) rotate(0) translate(4 346)">
<title>Illumination&#45;Engine/src/GraphicsModule/Renderable/IEMesh.hpp</title>
<polygon fill="white" stroke="transparent" points="-4,4 -4,-346 724,-346 724,4 -4,4"/>
<!-- Node1 -->
<g id="node1" class="node">
<title>Node1</title>
<g id="a_node1"><a xlink:title=" ">
<polygon fill="#bfbfbf" stroke="black" points="278,-279.5 278,-341.5 463,-341.5 463,-279.5 278,-279.5"/>
<text text-anchor="start" x="286" y="-324.7" font-family="Source Sans Pro" font-size="16.00">Illumination&#45;Engine</text>
<text text-anchor="start" x="286" y="-306.7" font-family="Source Sans Pro" font-size="16.00">/src/GraphicsModule</text>
<text text-anchor="middle" x="370.5" y="-288.7" font-family="Source Sans Pro" font-size="16.00">/Renderable/IEMesh.hpp</text>
</a>
</g>
</g>
<!-- Node2 -->
<g id="node2" class="node">
<title>Node2</title>
<g id="a_node2"><a xlink:href="_i_e_material_8cpp.html" target="_top" xlink:title=" ">
<polygon fill="white" stroke="black" points="0,-180.5 0,-242.5 201,-242.5 201,-180.5 0,-180.5"/>
<text text-anchor="start" x="8" y="-225.7" font-family="Source Sans Pro" font-size="16.00">Illumination&#45;Engine</text>
<text text-anchor="start" x="8" y="-207.7" font-family="Source Sans Pro" font-size="16.00">/src/GraphicsModule</text>
<text text-anchor="middle" x="100.5" y="-189.7" font-family="Source Sans Pro" font-size="16.00">/Renderable/IEMaterial.cpp</text>
</a>
</g>
</g>
<!-- Node1&#45;&gt;Node2 -->
<g id="edge1" class="edge">
<title>Node1&#45;&gt;Node2</title>
<path fill="none" stroke="midnightblue" d="M277.22,-275.99C246.98,-265.12 213.64,-253.15 184.15,-242.55"/>
<polygon fill="midnightblue" stroke="midnightblue" points="276.32,-279.39 286.92,-279.47 278.69,-272.8 276.32,-279.39"/>
</g>
<!-- Node3 -->
<g id="node3" class="node">
<title>Node3</title>
<g id="a_node3"><a xlink:href="_i_e_mesh_8cpp.html" target="_top" xlink:title=" ">
<polygon fill="white" stroke="black" points="219,-180.5 219,-242.5 402,-242.5 402,-180.5 219,-180.5"/>
<text text-anchor="start" x="227" y="-225.7" font-family="Source Sans Pro" font-size="16.00">Illumination&#45;Engine</text>
<text text-anchor="start" x="227" y="-207.7" font-family="Source Sans Pro" font-size="16.00">/src/GraphicsModule</text>
<text text-anchor="middle" x="310.5" y="-189.7" font-family="Source Sans Pro" font-size="16.00">/Renderable/IEMesh.cpp</text>
</a>
</g>
</g>
<!-- Node1&#45;&gt;Node3 -->
<g id="edge2" class="edge">
<title>Node1&#45;&gt;Node3</title>
<path fill="none" stroke="midnightblue" d="M346.44,-270.61C340.68,-261.3 334.62,-251.49 329.14,-242.64"/>
<polygon fill="midnightblue" stroke="midnightblue" points="343.61,-272.68 351.84,-279.34 349.56,-268.99 343.61,-272.68"/>
</g>
<!-- Node4 -->
<g id="node4" class="node">
<title>Node4</title>
<g id="a_node4"><a xlink:href="_i_e_renderable_8cpp.html" target="_top" xlink:title=" ">
<polygon fill="white" stroke="black" points="318,-81.5 318,-143.5 543,-143.5 543,-81.5 318,-81.5"/>
<text text-anchor="start" x="326" y="-126.7" font-family="Source Sans Pro" font-size="16.00">Illumination&#45;Engine</text>
<text text-anchor="start" x="326" y="-108.7" font-family="Source Sans Pro" font-size="16.00">/src/GraphicsModule</text>
<text text-anchor="middle" x="430.5" y="-90.7" font-family="Source Sans Pro" font-size="16.00">/Renderable/IERenderable.cpp</text>
</a>
</g>
</g>
<!-- Node1&#45;&gt;Node4 -->
<g id="edge3" class="edge">
<title>Node1&#45;&gt;Node4</title>
<path fill="none" stroke="midnightblue" d="M397.37,-270.48C402.4,-261.75 407.13,-252.31 410.5,-243 422.35,-210.27 427.18,-170.41 429.15,-143.63"/>
<polygon fill="midnightblue" stroke="midnightblue" points="394.22,-268.92 392.06,-279.29 400.22,-272.54 394.22,-268.92"/>
</g>
<!-- Node5 -->
<g id="node5" class="node">
<title>Node5</title>
<g id="a_node5"><a xlink:href="_i_e_renderable_8hpp.html" target="_top" xlink:title=" ">
<polygon fill="white" stroke="black" points="459,-180.5 459,-242.5 686,-242.5 686,-180.5 459,-180.5"/>
<text text-anchor="start" x="467" y="-225.7" font-family="Source Sans Pro" font-size="16.00">Illumination&#45;Engine</text>
<text text-anchor="start" x="467" y="-207.7" font-family="Source Sans Pro" font-size="16.00">/src/GraphicsModule</text>
<text text-anchor="middle" x="572.5" y="-189.7" font-family="Source Sans Pro" font-size="16.00">/Renderable/IERenderable.hpp</text>
</a>
</g>
</g>
<!-- Node1&#45;&gt;Node5 -->
<g id="edge4" class="edge">
<title>Node1&#45;&gt;Node5</title>
<path fill="none" stroke="midnightblue" d="M442.06,-275.14C464.2,-264.5 488.42,-252.87 509.92,-242.55"/>
<polygon fill="midnightblue" stroke="midnightblue" points="440.53,-271.99 433.03,-279.47 443.56,-278.3 440.53,-271.99"/>
</g>
<!-- Node5&#45;&gt;Node4 -->
<g id="edge7" class="edge">
<title>Node5&#45;&gt;Node4</title>
<path fill="none" stroke="midnightblue" d="M519.76,-174.47C504.91,-164.33 488.91,-153.4 474.62,-143.64"/>
<polygon fill="midnightblue" stroke="midnightblue" points="518.12,-177.59 528.35,-180.34 522.07,-171.81 518.12,-177.59"/>
</g>
<!-- Node6 -->
<g id="node6" class="node">
<title>Node6</title>
<g id="a_node6"><a xlink:href="_i_e_render_engine_8cpp.html" target="_top" xlink:title=" ">
<polygon fill="white" stroke="black" points="561,-81.5 561,-143.5 720,-143.5 720,-81.5 561,-81.5"/>
<text text-anchor="start" x="569" y="-126.7" font-family="Source Sans Pro" font-size="16.00">Illumination&#45;Engine</text>
<text text-anchor="start" x="569" y="-108.7" font-family="Source Sans Pro" font-size="16.00">/src/GraphicsModule</text>
<text text-anchor="middle" x="640.5" y="-90.7" font-family="Source Sans Pro" font-size="16.00">/IERenderEngine.cpp</text>
</a>
</g>
</g>
<!-- Node5&#45;&gt;Node6 -->
<g id="edge5" class="edge">
<title>Node5&#45;&gt;Node6</title>
<path fill="none" stroke="midnightblue" d="M599.56,-171.9C606.15,-162.5 613.1,-152.58 619.37,-143.64"/>
<polygon fill="midnightblue" stroke="midnightblue" points="596.52,-170.14 593.64,-180.34 602.25,-174.16 596.52,-170.14"/>
</g>
<!-- Node7 -->
<g id="node7" class="node">
<title>Node7</title>
<g id="a_node7"><a xlink:href="main_8cpp.html" target="_top" xlink:title=" ">
<polygon fill="white" stroke="black" points="565.5,-0.5 565.5,-44.5 715.5,-44.5 715.5,-0.5 565.5,-0.5"/>
<text text-anchor="start" x="573.5" y="-27.7" font-family="Source Sans Pro" font-size="16.00">Illumination&#45;Engine</text>
<text text-anchor="middle" x="640.5" y="-9.7" font-family="Source Sans Pro" font-size="16.00">/src/main.cpp</text>
</a>
</g>
</g>
<!-- Node6&#45;&gt;Node7 -->
<g id="edge6" class="edge">
<title>Node6&#45;&gt;Node7</title>
<path fill="none" stroke="midnightblue" d="M640.5,-71.09C640.5,-61.97 640.5,-52.64 640.5,-44.68"/>
<polygon fill="midnightblue" stroke="midnightblue" points="637,-71.22 640.5,-81.22 644,-71.22 637,-71.22"/>
</g>
</g>
</svg>
