<?xml version="1.0" encoding="UTF-8" standalone="no"?>
<!DOCTYPE svg PUBLIC "-//W3C//DTD SVG 1.1//EN"
 "http://www.w3.org/Graphics/SVG/1.1/DTD/svg11.dtd">
<!-- Generated by graphviz version 2.43.0 (0)
 -->
<!-- Title: Illumination&#45;Engine/src/GraphicsModule/CommandBuffer/DependencyStructs/IERenderPassBeginInfo.hpp Pages: 1 -->
<svg width="3415pt" height="584pt"
 viewBox="0.00 0.00 3414.50 584.00" xmlns="http://www.w3.org/2000/svg" xmlns:xlink="http://www.w3.org/1999/xlink">
<g id="graph0" class="graph" transform="scale(1 1) rotate(0) translate(4 580)">
<title>Illumination&#45;Engine/src/GraphicsModule/CommandBuffer/DependencyStructs/IERenderPassBeginInfo.hpp</title>
<polygon fill="white" stroke="transparent" points="-4,4 -4,-580 3410.5,-580 3410.5,4 -4,4"/>
<!-- Node1 -->
<g id="node1" class="node">
<title>Node1</title>
<g id="a_node1"><a xlink:title=" ">
<polygon fill="#bfbfbf" stroke="black" points="1265,-495.5 1265,-575.5 1537,-575.5 1537,-495.5 1265,-495.5"/>
<text text-anchor="start" x="1273" y="-558.7" font-family="Source Sans Pro" font-size="16.00">Illumination&#45;Engine</text>
<text text-anchor="start" x="1273" y="-540.7" font-family="Source Sans Pro" font-size="16.00">/src/GraphicsModule</text>
<text text-anchor="start" x="1273" y="-522.7" font-family="Source Sans Pro" font-size="16.00">/CommandBuffer/DependencyStructs</text>
<text text-anchor="middle" x="1401" y="-504.7" font-family="Source Sans Pro" font-size="16.00">/IERenderPassBeginInfo.hpp</text>
</a>
</g>
</g>
<!-- Node2 -->
<g id="node2" class="node">
<title>Node2</title>
<g id="a_node2"><a xlink:href="_i_e_render_pass_begin_info_8cpp.html" target="_top" xlink:title=" ">
<polygon fill="white" stroke="black" points="948,-180.5 948,-260.5 1220,-260.5 1220,-180.5 948,-180.5"/>
<text text-anchor="start" x="956" y="-243.7" font-family="Source Sans Pro" font-size="16.00">Illumination&#45;Engine</text>
<text text-anchor="start" x="956" y="-225.7" font-family="Source Sans Pro" font-size="16.00">/src/GraphicsModule</text>
<text text-anchor="start" x="956" y="-207.7" font-family="Source Sans Pro" font-size="16.00">/CommandBuffer/DependencyStructs</text>
<text text-anchor="middle" x="1084" y="-189.7" font-family="Source Sans Pro" font-size="16.00">/IERenderPassBeginInfo.cpp</text>
</a>
</g>
</g>
<!-- Node1&#45;&gt;Node2 -->
<g id="edge1" class="edge">
<title>Node1&#45;&gt;Node2</title>
<path fill="none" stroke="midnightblue" d="M1354.11,-488.2C1291.59,-426.47 1182.04,-318.3 1123.51,-260.51"/>
<polygon fill="midnightblue" stroke="midnightblue" points="1351.92,-490.96 1361.49,-495.49 1356.84,-485.97 1351.92,-490.96"/>
</g>
<!-- Node3 -->
<g id="node3" class="node">
<title>Node3</title>
<g id="a_node3"><a xlink:href="_i_e_command_buffer_8hpp.html" target="_top" xlink:title=" ">
<polygon fill="white" stroke="black" points="1461.5,-396.5 1461.5,-458.5 1756.5,-458.5 1756.5,-396.5 1461.5,-396.5"/>
<text text-anchor="start" x="1469.5" y="-441.7" font-family="Source Sans Pro" font-size="16.00">Illumination&#45;Engine</text>
<text text-anchor="start" x="1469.5" y="-423.7" font-family="Source Sans Pro" font-size="16.00">/src/GraphicsModule</text>
<text text-anchor="middle" x="1609" y="-405.7" font-family="Source Sans Pro" font-size="16.00">/CommandBuffer/IECommandBuffer.hpp</text>
</a>
</g>
</g>
<!-- Node1&#45;&gt;Node3 -->
<g id="edge2" class="edge">
<title>Node1&#45;&gt;Node3</title>
<path fill="none" stroke="midnightblue" d="M1486.6,-490.88C1507.86,-480.04 1530.17,-468.67 1549.84,-458.65"/>
<polygon fill="midnightblue" stroke="midnightblue" points="1484.89,-487.82 1477.57,-495.48 1488.06,-494.06 1484.89,-487.82"/>
</g>
<!-- Node4 -->
<g id="node4" class="node">
<title>Node4</title>
<g id="a_node4"><a xlink:href="_i_e_command_buffer_8cpp.html" target="_top" xlink:title=" ">
<polygon fill="white" stroke="black" points="3113.5,-81.5 3113.5,-143.5 3406.5,-143.5 3406.5,-81.5 3113.5,-81.5"/>
<text text-anchor="start" x="3121.5" y="-126.7" font-family="Source Sans Pro" font-size="16.00">Illumination&#45;Engine</text>
<text text-anchor="start" x="3121.5" y="-108.7" font-family="Source Sans Pro" font-size="16.00">/src/GraphicsModule</text>
<text text-anchor="middle" x="3260" y="-90.7" font-family="Source Sans Pro" font-size="16.00">/CommandBuffer/IECommandBuffer.cpp</text>
</a>
</g>
</g>
<!-- Node3&#45;&gt;Node4 -->
<g id="edge3" class="edge">
<title>Node3&#45;&gt;Node4</title>
<path fill="none" stroke="midnightblue" d="M1766.5,-397.08C2039.11,-346.07 2616.53,-237.71 3104,-144 3107.12,-143.4 3110.27,-142.79 3113.44,-142.18"/>
<polygon fill="midnightblue" stroke="midnightblue" points="1765.72,-393.66 1756.54,-398.94 1767.01,-400.54 1765.72,-393.66"/>
</g>
<!-- Node5 -->
<g id="node5" class="node">
<title>Node5</title>
<g id="a_node5"><a xlink:href="_i_e_command_pool_8hpp.html" target="_top" xlink:title=" ">
<polygon fill="white" stroke="black" points="1664.5,-297.5 1664.5,-359.5 1949.5,-359.5 1949.5,-297.5 1664.5,-297.5"/>
<text text-anchor="start" x="1672.5" y="-342.7" font-family="Source Sans Pro" font-size="16.00">Illumination&#45;Engine</text>
<text text-anchor="start" x="1672.5" y="-324.7" font-family="Source Sans Pro" font-size="16.00">/src/GraphicsModule</text>
<text text-anchor="middle" x="1807" y="-306.7" font-family="Source Sans Pro" font-size="16.00">/CommandBuffer/IECommandPool.hpp</text>
</a>
</g>
</g>
<!-- Node3&#45;&gt;Node5 -->
<g id="edge4" class="edge">
<title>Node3&#45;&gt;Node5</title>
<path fill="none" stroke="midnightblue" d="M1679.43,-392C1701.06,-381.4 1724.68,-369.83 1745.66,-359.55"/>
<polygon fill="midnightblue" stroke="midnightblue" points="1677.73,-388.93 1670.29,-396.47 1680.81,-395.22 1677.73,-388.93"/>
</g>
<!-- Node23 -->
<g id="node23" class="node">
<title>Node23</title>
<g id="a_node23"><a xlink:href="_i_e_render_pass_8hpp.html" target="_top" xlink:title=" ">
<polygon fill="white" stroke="black" points="1418,-297.5 1418,-359.5 1646,-359.5 1646,-297.5 1418,-297.5"/>
<text text-anchor="start" x="1426" y="-342.7" font-family="Source Sans Pro" font-size="16.00">Illumination&#45;Engine</text>
<text text-anchor="start" x="1426" y="-324.7" font-family="Source Sans Pro" font-size="16.00">/src/GraphicsModule</text>
<text text-anchor="middle" x="1532" y="-306.7" font-family="Source Sans Pro" font-size="16.00">/RenderPass/IERenderPass.hpp</text>
</a>
</g>
</g>
<!-- Node3&#45;&gt;Node23 -->
<g id="edge24" class="edge">
<title>Node3&#45;&gt;Node23</title>
<path fill="none" stroke="midnightblue" d="M1578.81,-388.47C1571.22,-378.9 1563.17,-368.76 1555.93,-359.64"/>
<polygon fill="midnightblue" stroke="midnightblue" points="1576.1,-390.68 1585.06,-396.34 1581.58,-386.33 1576.1,-390.68"/>
</g>
<!-- Node6 -->
<g id="node6" class="node">
<title>Node6</title>
<g id="a_node6"><a xlink:href="_i_e_command_pool_8cpp.html" target="_top" xlink:title=" ">
<polygon fill="white" stroke="black" points="2811,-81.5 2811,-143.5 3095,-143.5 3095,-81.5 2811,-81.5"/>
<text text-anchor="start" x="2819" y="-126.7" font-family="Source Sans Pro" font-size="16.00">Illumination&#45;Engine</text>
<text text-anchor="start" x="2819" y="-108.7" font-family="Source Sans Pro" font-size="16.00">/src/GraphicsModule</text>
<text text-anchor="middle" x="2953" y="-90.7" font-family="Source Sans Pro" font-size="16.00">/CommandBuffer/IECommandPool.cpp</text>
</a>
</g>
</g>
<!-- Node5&#45;&gt;Node6 -->
<g id="edge5" class="edge">
<title>Node5&#45;&gt;Node6</title>
<path fill="none" stroke="midnightblue" d="M1955.48,-295.34C2104.56,-263.65 2341.07,-215.03 2547,-180 2659.84,-160.81 2689.19,-163.34 2802,-144 2804.9,-143.5 2807.83,-142.99 2810.78,-142.47"/>
<polygon fill="midnightblue" stroke="midnightblue" points="1954.39,-291.99 1945.34,-297.5 1955.85,-298.84 1954.39,-291.99"/>
</g>
<!-- Node7 -->
<g id="node7" class="node">
<title>Node7</title>
<g id="a_node7"><a xlink:href="_i_e_render_engine_8hpp.html" target="_top" xlink:title=" ">
<polygon fill="white" stroke="black" points="1662.5,-189.5 1662.5,-251.5 1823.5,-251.5 1823.5,-189.5 1662.5,-189.5"/>
<text text-anchor="start" x="1670.5" y="-234.7" font-family="Source Sans Pro" font-size="16.00">Illumination&#45;Engine</text>
<text text-anchor="start" x="1670.5" y="-216.7" font-family="Source Sans Pro" font-size="16.00">/src/GraphicsModule</text>
<text text-anchor="middle" x="1743" y="-198.7" font-family="Source Sans Pro" font-size="16.00">/IERenderEngine.hpp</text>
</a>
</g>
</g>
<!-- Node5&#45;&gt;Node7 -->
<g id="edge6" class="edge">
<title>Node5&#45;&gt;Node7</title>
<path fill="none" stroke="midnightblue" d="M1783.6,-288.74C1776.22,-276.52 1768.18,-263.2 1761.21,-251.67"/>
<polygon fill="midnightblue" stroke="midnightblue" points="1780.67,-290.66 1788.83,-297.41 1786.66,-287.04 1780.67,-290.66"/>
</g>
<!-- Node7&#45;&gt;Node4 -->
<g id="edge8" class="edge">
<title>Node7&#45;&gt;Node4</title>
<path fill="none" stroke="midnightblue" d="M1834.25,-215.17C2118.87,-201.56 2978.89,-159.63 3104,-144 3107.01,-143.62 3110.05,-143.22 3113.12,-142.8"/>
<polygon fill="midnightblue" stroke="midnightblue" points="1833.78,-211.69 1823.96,-215.66 1834.12,-218.68 1833.78,-211.69"/>
</g>
<!-- Node7&#45;&gt;Node6 -->
<g id="edge9" class="edge">
<title>Node7&#45;&gt;Node6</title>
<path fill="none" stroke="midnightblue" d="M1833.64,-211.1C1926.94,-202.61 2076.55,-189.43 2206,-180 2470.67,-160.72 2538.86,-178.35 2802,-144 2804.92,-143.62 2807.86,-143.21 2810.83,-142.79"/>
<polygon fill="midnightblue" stroke="midnightblue" points="1833.31,-207.61 1823.66,-212.01 1833.94,-214.59 1833.31,-207.61"/>
</g>
<!-- Node8 -->
<g id="node8" class="node">
<title>Node8</title>
<g id="a_node8"><a xlink:href="_i_e_buffer_8cpp.html" target="_top" xlink:title=" ">
<polygon fill="white" stroke="black" points="1754.5,-81.5 1754.5,-143.5 1911.5,-143.5 1911.5,-81.5 1754.5,-81.5"/>
<text text-anchor="start" x="1762.5" y="-126.7" font-family="Source Sans Pro" font-size="16.00">Illumination&#45;Engine</text>
<text text-anchor="start" x="1762.5" y="-108.7" font-family="Source Sans Pro" font-size="16.00">/src/GraphicsModule</text>
<text text-anchor="middle" x="1833" y="-90.7" font-family="Source Sans Pro" font-size="16.00">/Buffer/IEBuffer.cpp</text>
</a>
</g>
</g>
<!-- Node7&#45;&gt;Node8 -->
<g id="edge7" class="edge">
<title>Node7&#45;&gt;Node8</title>
<path fill="none" stroke="midnightblue" d="M1775.31,-181.45C1785.85,-169.03 1797.4,-155.42 1807.39,-143.67"/>
<polygon fill="midnightblue" stroke="midnightblue" points="1772.35,-179.52 1768.55,-189.41 1777.69,-184.05 1772.35,-179.52"/>
</g>
<!-- Node9 -->
<g id="node9" class="node">
<title>Node9</title>
<g id="a_node9"><a xlink:href="_i_e_a_p_i_8cpp.html" target="_top" xlink:title=" ">
<polygon fill="white" stroke="black" points="1929.5,-81.5 1929.5,-143.5 2086.5,-143.5 2086.5,-81.5 1929.5,-81.5"/>
<text text-anchor="start" x="1937.5" y="-126.7" font-family="Source Sans Pro" font-size="16.00">Illumination&#45;Engine</text>
<text text-anchor="start" x="1937.5" y="-108.7" font-family="Source Sans Pro" font-size="16.00">/src/GraphicsModule</text>
<text text-anchor="middle" x="2008" y="-90.7" font-family="Source Sans Pro" font-size="16.00">/IEAPI.cpp</text>
</a>
</g>
</g>
<!-- Node7&#45;&gt;Node9 -->
<g id="edge10" class="edge">
<title>Node7&#45;&gt;Node9</title>
<path fill="none" stroke="midnightblue" d="M1827.61,-185.66C1861.33,-172.17 1899.83,-156.77 1932.58,-143.67"/>
<polygon fill="midnightblue" stroke="midnightblue" points="1826.21,-182.44 1818.23,-189.41 1828.81,-188.94 1826.21,-182.44"/>
</g>
<!-- Node10 -->
<g id="node10" class="node">
<title>Node10</title>
<g id="a_node10"><a xlink:href="_i_e_camera_8cpp.html" target="_top" xlink:title=" ">
<polygon fill="white" stroke="black" points="2104.5,-81.5 2104.5,-143.5 2261.5,-143.5 2261.5,-81.5 2104.5,-81.5"/>
<text text-anchor="start" x="2112.5" y="-126.7" font-family="Source Sans Pro" font-size="16.00">Illumination&#45;Engine</text>
<text text-anchor="start" x="2112.5" y="-108.7" font-family="Source Sans Pro" font-size="16.00">/src/GraphicsModule</text>
<text text-anchor="middle" x="2183" y="-90.7" font-family="Source Sans Pro" font-size="16.00">/IECamera.cpp</text>
</a>
</g>
</g>
<!-- Node7&#45;&gt;Node10 -->
<g id="edge11" class="edge">
<title>Node7&#45;&gt;Node10</title>
<path fill="none" stroke="midnightblue" d="M1833.54,-203.41C1905.31,-189.87 2007.84,-168.78 2096,-144 2098.77,-143.22 2101.59,-142.4 2104.42,-141.55"/>
<polygon fill="midnightblue" stroke="midnightblue" points="1832.8,-199.98 1823.62,-205.27 1834.09,-206.86 1832.8,-199.98"/>
</g>
<!-- Node11 -->
<g id="node11" class="node">
<title>Node11</title>
<g id="a_node11"><a xlink:href="_i_e_render_engine_8cpp.html" target="_top" xlink:title=" ">
<polygon fill="white" stroke="black" points="2279.5,-81.5 2279.5,-143.5 2438.5,-143.5 2438.5,-81.5 2279.5,-81.5"/>
<text text-anchor="start" x="2287.5" y="-126.7" font-family="Source Sans Pro" font-size="16.00">Illumination&#45;Engine</text>
<text text-anchor="start" x="2287.5" y="-108.7" font-family="Source Sans Pro" font-size="16.00">/src/GraphicsModule</text>
<text text-anchor="middle" x="2359" y="-90.7" font-family="Source Sans Pro" font-size="16.00">/IERenderEngine.cpp</text>
</a>
</g>
</g>
<!-- Node7&#45;&gt;Node11 -->
<g id="edge12" class="edge">
<title>Node7&#45;&gt;Node11</title>
<path fill="none" stroke="midnightblue" d="M1833.54,-211.88C1939.5,-201.73 2119.74,-180.67 2271,-144 2273.67,-143.35 2276.38,-142.66 2279.1,-141.92"/>
<polygon fill="midnightblue" stroke="midnightblue" points="1833.14,-208.4 1823.52,-212.82 1833.8,-215.37 1833.14,-208.4"/>
</g>
<!-- Node13 -->
<g id="node13" class="node">
<title>Node13</title>
<g id="a_node13"><a xlink:href="_i_e_image_8cpp.html" target="_top" xlink:title=" ">
<polygon fill="white" stroke="black" points="2456.5,-81.5 2456.5,-143.5 2613.5,-143.5 2613.5,-81.5 2456.5,-81.5"/>
<text text-anchor="start" x="2464.5" y="-126.7" font-family="Source Sans Pro" font-size="16.00">Illumination&#45;Engine</text>
<text text-anchor="start" x="2464.5" y="-108.7" font-family="Source Sans Pro" font-size="16.00">/src/GraphicsModule</text>
<text text-anchor="middle" x="2535" y="-90.7" font-family="Source Sans Pro" font-size="16.00">/Image/IEImage.cpp</text>
</a>
</g>
</g>
<!-- Node7&#45;&gt;Node13 -->
<g id="edge14" class="edge">
<title>Node7&#45;&gt;Node13</title>
<path fill="none" stroke="midnightblue" d="M1833.78,-212.4C1996.89,-199.21 2333.25,-169.89 2448,-144 2450.65,-143.4 2453.34,-142.75 2456.04,-142.05"/>
<polygon fill="midnightblue" stroke="midnightblue" points="1833.45,-208.91 1823.76,-213.21 1834.01,-215.89 1833.45,-208.91"/>
</g>
<!-- Node14 -->
<g id="node14" class="node">
<title>Node14</title>
<g id="a_node14"><a xlink:href="_i_e_texture_8cpp.html" target="_top" xlink:title=" ">
<polygon fill="white" stroke="black" points="2631.5,-81.5 2631.5,-143.5 2792.5,-143.5 2792.5,-81.5 2631.5,-81.5"/>
<text text-anchor="start" x="2639.5" y="-126.7" font-family="Source Sans Pro" font-size="16.00">Illumination&#45;Engine</text>
<text text-anchor="start" x="2639.5" y="-108.7" font-family="Source Sans Pro" font-size="16.00">/src/GraphicsModule</text>
<text text-anchor="middle" x="2712" y="-90.7" font-family="Source Sans Pro" font-size="16.00">/Image/IETexture.cpp</text>
</a>
</g>
</g>
<!-- Node7&#45;&gt;Node14 -->
<g id="edge15" class="edge">
<title>Node7&#45;&gt;Node14</title>
<path fill="none" stroke="midnightblue" d="M1833.66,-211.76C2057.88,-192.6 2620.6,-144.51 2623,-144 2625.72,-143.43 2628.47,-142.8 2631.23,-142.12"/>
<polygon fill="midnightblue" stroke="midnightblue" points="1833.23,-208.28 1823.56,-212.62 1833.82,-215.26 1833.23,-208.28"/>
</g>
<!-- Node15 -->
<g id="node15" class="node">
<title>Node15</title>
<g id="a_node15"><a xlink:href="_i_e_framebuffer_8cpp.html" target="_top" xlink:title=" ">
<polygon fill="white" stroke="black" points="0,-81.5 0,-143.5 230,-143.5 230,-81.5 0,-81.5"/>
<text text-anchor="start" x="8" y="-126.7" font-family="Source Sans Pro" font-size="16.00">Illumination&#45;Engine</text>
<text text-anchor="start" x="8" y="-108.7" font-family="Source Sans Pro" font-size="16.00">/src/GraphicsModule</text>
<text text-anchor="middle" x="115" y="-90.7" font-family="Source Sans Pro" font-size="16.00">/RenderPass/IEFramebuffer.cpp</text>
</a>
</g>
</g>
<!-- Node7&#45;&gt;Node15 -->
<g id="edge16" class="edge">
<title>Node7&#45;&gt;Node15</title>
<path fill="none" stroke="midnightblue" d="M1652.34,-197.96C1619.09,-190.95 1581.02,-183.96 1546,-180 969.02,-114.69 815.5,-221.25 240,-144 236.79,-143.57 233.54,-143.09 230.27,-142.57"/>
<polygon fill="midnightblue" stroke="midnightblue" points="1651.99,-201.46 1662.5,-200.13 1653.45,-194.62 1651.99,-201.46"/>
</g>
<!-- Node16 -->
<g id="node16" class="node">
<title>Node16</title>
<g id="a_node16"><a xlink:href="_i_e_render_pass_8cpp.html" target="_top" xlink:title=" ">
<polygon fill="white" stroke="black" points="248.5,-81.5 248.5,-143.5 475.5,-143.5 475.5,-81.5 248.5,-81.5"/>
<text text-anchor="start" x="256.5" y="-126.7" font-family="Source Sans Pro" font-size="16.00">Illumination&#45;Engine</text>
<text text-anchor="start" x="256.5" y="-108.7" font-family="Source Sans Pro" font-size="16.00">/src/GraphicsModule</text>
<text text-anchor="middle" x="362" y="-90.7" font-family="Source Sans Pro" font-size="16.00">/RenderPass/IERenderPass.cpp</text>
</a>
</g>
</g>
<!-- Node7&#45;&gt;Node16 -->
<g id="edge17" class="edge">
<title>Node7&#45;&gt;Node16</title>
<path fill="none" stroke="midnightblue" d="M1652.59,-193.54C1630.34,-188.13 1606.45,-183.12 1584,-180 1099.95,-112.71 969.07,-211.18 485,-144 481.95,-143.58 478.86,-143.11 475.76,-142.6"/>
<polygon fill="midnightblue" stroke="midnightblue" points="1651.8,-196.95 1662.35,-195.97 1653.49,-190.16 1651.8,-196.95"/>
</g>
<!-- Node17 -->
<g id="node17" class="node">
<title>Node17</title>
<g id="a_node17"><a xlink:href="_i_e_material_8cpp.html" target="_top" xlink:title=" ">
<polygon fill="white" stroke="black" points="493.5,-81.5 493.5,-143.5 694.5,-143.5 694.5,-81.5 493.5,-81.5"/>
<text text-anchor="start" x="501.5" y="-126.7" font-family="Source Sans Pro" font-size="16.00">Illumination&#45;Engine</text>
<text text-anchor="start" x="501.5" y="-108.7" font-family="Source Sans Pro" font-size="16.00">/src/GraphicsModule</text>
<text text-anchor="middle" x="594" y="-90.7" font-family="Source Sans Pro" font-size="16.00">/Renderable/IEMaterial.cpp</text>
</a>
</g>
</g>
<!-- Node7&#45;&gt;Node17 -->
<g id="edge18" class="edge">
<title>Node7&#45;&gt;Node17</title>
<path fill="none" stroke="midnightblue" d="M1652.57,-193.67C1630.32,-188.25 1606.44,-183.21 1584,-180 1196.51,-124.53 1090.7,-204.69 704,-144 700.87,-143.51 697.7,-142.96 694.51,-142.36"/>
<polygon fill="midnightblue" stroke="midnightblue" points="1651.78,-197.08 1662.33,-196.1 1653.47,-190.29 1651.78,-197.08"/>
</g>
<!-- Node18 -->
<g id="node18" class="node">
<title>Node18</title>
<g id="a_node18"><a xlink:href="_i_e_mesh_8cpp.html" target="_top" xlink:title=" ">
<polygon fill="white" stroke="black" points="712.5,-81.5 712.5,-143.5 895.5,-143.5 895.5,-81.5 712.5,-81.5"/>
<text text-anchor="start" x="720.5" y="-126.7" font-family="Source Sans Pro" font-size="16.00">Illumination&#45;Engine</text>
<text text-anchor="start" x="720.5" y="-108.7" font-family="Source Sans Pro" font-size="16.00">/src/GraphicsModule</text>
<text text-anchor="middle" x="804" y="-90.7" font-family="Source Sans Pro" font-size="16.00">/Renderable/IEMesh.cpp</text>
</a>
</g>
</g>
<!-- Node7&#45;&gt;Node18 -->
<g id="edge19" class="edge">
<title>Node7&#45;&gt;Node18</title>
<path fill="none" stroke="midnightblue" d="M1652.54,-193.87C1630.3,-188.44 1606.42,-183.35 1584,-180 1285.11,-135.37 1202.68,-196.06 905,-144 901.93,-143.46 898.83,-142.86 895.7,-142.21"/>
<polygon fill="midnightblue" stroke="midnightblue" points="1651.75,-197.28 1662.3,-196.29 1653.44,-190.48 1651.75,-197.28"/>
</g>
<!-- Node19 -->
<g id="node19" class="node">
<title>Node19</title>
<g id="a_node19"><a xlink:href="_i_e_renderable_8cpp.html" target="_top" xlink:title=" ">
<polygon fill="white" stroke="black" points="913.5,-81.5 913.5,-143.5 1138.5,-143.5 1138.5,-81.5 913.5,-81.5"/>
<text text-anchor="start" x="921.5" y="-126.7" font-family="Source Sans Pro" font-size="16.00">Illumination&#45;Engine</text>
<text text-anchor="start" x="921.5" y="-108.7" font-family="Source Sans Pro" font-size="16.00">/src/GraphicsModule</text>
<text text-anchor="middle" x="1026" y="-90.7" font-family="Source Sans Pro" font-size="16.00">/Renderable/IERenderable.cpp</text>
</a>
</g>
</g>
<!-- Node7&#45;&gt;Node19 -->
<g id="edge20" class="edge">
<title>Node7&#45;&gt;Node19</title>
<path fill="none" stroke="midnightblue" d="M1652.47,-194.34C1630.22,-188.89 1606.37,-183.68 1584,-180 1392.14,-148.46 1339.84,-175.68 1148,-144 1144.88,-143.48 1141.72,-142.93 1138.53,-142.34"/>
<polygon fill="midnightblue" stroke="midnightblue" points="1651.68,-197.75 1662.23,-196.76 1653.37,-190.95 1651.68,-197.75"/>
</g>
<!-- Node20 -->
<g id="node20" class="node">
<title>Node20</title>
<g id="a_node20"><a xlink:href="_i_e_descriptor_set_8cpp.html" target="_top" xlink:title=" ">
<polygon fill="white" stroke="black" points="1156.5,-81.5 1156.5,-143.5 1363.5,-143.5 1363.5,-81.5 1156.5,-81.5"/>
<text text-anchor="start" x="1164.5" y="-126.7" font-family="Source Sans Pro" font-size="16.00">Illumination&#45;Engine</text>
<text text-anchor="start" x="1164.5" y="-108.7" font-family="Source Sans Pro" font-size="16.00">/src/GraphicsModule</text>
<text text-anchor="middle" x="1260" y="-90.7" font-family="Source Sans Pro" font-size="16.00">/Shader/IEDescriptorSet.cpp</text>
</a>
</g>
</g>
<!-- Node7&#45;&gt;Node20 -->
<g id="edge21" class="edge">
<title>Node7&#45;&gt;Node20</title>
<path fill="none" stroke="midnightblue" d="M1652.58,-195.8C1630.24,-190.28 1606.31,-184.67 1584,-180 1490.88,-160.52 1465.92,-164.42 1373,-144 1369.92,-143.32 1366.81,-142.62 1363.66,-141.89"/>
<polygon fill="midnightblue" stroke="midnightblue" points="1651.83,-199.22 1662.38,-198.24 1653.52,-192.43 1651.83,-199.22"/>
</g>
<!-- Node21 -->
<g id="node21" class="node">
<title>Node21</title>
<g id="a_node21"><a xlink:href="_i_e_pipeline_8cpp.html" target="_top" xlink:title=" ">
<polygon fill="white" stroke="black" points="1382,-81.5 1382,-143.5 1554,-143.5 1554,-81.5 1382,-81.5"/>
<text text-anchor="start" x="1390" y="-126.7" font-family="Source Sans Pro" font-size="16.00">Illumination&#45;Engine</text>
<text text-anchor="start" x="1390" y="-108.7" font-family="Source Sans Pro" font-size="16.00">/src/GraphicsModule</text>
<text text-anchor="middle" x="1468" y="-90.7" font-family="Source Sans Pro" font-size="16.00">/Shader/IEPipeline.cpp</text>
</a>
</g>
</g>
<!-- Node7&#45;&gt;Node21 -->
<g id="edge22" class="edge">
<title>Node7&#45;&gt;Node21</title>
<path fill="none" stroke="midnightblue" d="M1655.2,-185.66C1620.21,-172.17 1580.25,-156.77 1546.26,-143.67"/>
<polygon fill="midnightblue" stroke="midnightblue" points="1654.34,-189.08 1664.93,-189.41 1656.86,-182.55 1654.34,-189.08"/>
</g>
<!-- Node22 -->
<g id="node22" class="node">
<title>Node22</title>
<g id="a_node22"><a xlink:href="_i_e_shader_8cpp.html" target="_top" xlink:title=" ">
<polygon fill="white" stroke="black" points="1572,-81.5 1572,-143.5 1736,-143.5 1736,-81.5 1572,-81.5"/>
<text text-anchor="start" x="1580" y="-126.7" font-family="Source Sans Pro" font-size="16.00">Illumination&#45;Engine</text>
<text text-anchor="start" x="1580" y="-108.7" font-family="Source Sans Pro" font-size="16.00">/src/GraphicsModule</text>
<text text-anchor="middle" x="1654" y="-90.7" font-family="Source Sans Pro" font-size="16.00">/Shader/IEShader.cpp</text>
</a>
</g>
</g>
<!-- Node7&#45;&gt;Node22 -->
<g id="edge23" class="edge">
<title>Node7&#45;&gt;Node22</title>
<path fill="none" stroke="midnightblue" d="M1711.05,-181.45C1700.63,-169.03 1689.2,-155.42 1679.33,-143.67"/>
<polygon fill="midnightblue" stroke="midnightblue" points="1708.62,-184 1717.73,-189.41 1713.98,-179.5 1708.62,-184"/>
</g>
<!-- Node12 -->
<g id="node12" class="node">
<title>Node12</title>
<g id="a_node12"><a xlink:href="main_8cpp.html" target="_top" xlink:title=" ">
<polygon fill="white" stroke="black" points="2284,-0.5 2284,-44.5 2434,-44.5 2434,-0.5 2284,-0.5"/>
<text text-anchor="start" x="2292" y="-27.7" font-family="Source Sans Pro" font-size="16.00">Illumination&#45;Engine</text>
<text text-anchor="middle" x="2359" y="-9.7" font-family="Source Sans Pro" font-size="16.00">/src/main.cpp</text>
</a>
</g>
</g>
<!-- Node11&#45;&gt;Node12 -->
<g id="edge13" class="edge">
<title>Node11&#45;&gt;Node12</title>
<path fill="none" stroke="midnightblue" d="M2359,-71.09C2359,-61.97 2359,-52.64 2359,-44.68"/>
<polygon fill="midnightblue" stroke="midnightblue" points="2355.5,-71.22 2359,-81.22 2362.5,-71.22 2355.5,-71.22"/>
</g>
<!-- Node23&#45;&gt;Node2 -->
<g id="edge25" class="edge">
<title>Node23&#45;&gt;Node2</title>
<path fill="none" stroke="midnightblue" d="M1407.88,-301.72C1352.92,-289.93 1287.59,-275.4 1229,-261 1226.09,-260.28 1223.14,-259.55 1220.17,-258.81"/>
<polygon fill="midnightblue" stroke="midnightblue" points="1407.15,-305.14 1417.66,-303.81 1408.61,-298.3 1407.15,-305.14"/>
</g>
<!-- Node23&#45;&gt;Node7 -->
<g id="edge27" class="edge">
<title>Node23&#45;&gt;Node7</title>
<path fill="none" stroke="midnightblue" d="M1601.09,-292.79C1627.52,-279.51 1657.43,-264.49 1682.95,-251.67"/>
<polygon fill="midnightblue" stroke="midnightblue" points="1599.26,-289.79 1591.9,-297.41 1602.41,-296.05 1599.26,-289.79"/>
</g>
<!-- Node23&#45;&gt;Node15 -->
<g id="edge28" class="edge">
<title>Node23&#45;&gt;Node15</title>
<path fill="none" stroke="midnightblue" d="M1539.56,-287.15C1543.34,-253.27 1542.06,-206.3 1513,-180 1460.54,-132.53 310.12,-153.44 240,-144 236.79,-143.57 233.54,-143.09 230.27,-142.56"/>
<polygon fill="midnightblue" stroke="midnightblue" points="1536.07,-286.84 1538.26,-297.21 1543.02,-287.74 1536.07,-286.84"/>
</g>
<!-- Node23&#45;&gt;Node16 -->
<g id="edge29" class="edge">
<title>Node23&#45;&gt;Node16</title>
<path fill="none" stroke="midnightblue" d="M1550.62,-287.87C1563.2,-254.56 1573.09,-208.03 1546,-180 1505.01,-137.59 543.41,-152.14 485,-144 481.95,-143.57 478.86,-143.1 475.76,-142.6"/>
<polygon fill="midnightblue" stroke="midnightblue" points="1547.31,-286.73 1546.85,-297.31 1553.81,-289.32 1547.31,-286.73"/>
</g>
<!-- Node24 -->
<g id="node24" class="node">
<title>Node24</title>
<g id="a_node24"><a xlink:href="_i_e_dependency_8cpp.html" target="_top" xlink:title=" ">
<polygon fill="white" stroke="black" points="1238,-189.5 1238,-251.5 1504,-251.5 1504,-189.5 1238,-189.5"/>
<text text-anchor="start" x="1246" y="-234.7" font-family="Source Sans Pro" font-size="16.00">Illumination&#45;Engine</text>
<text text-anchor="start" x="1246" y="-216.7" font-family="Source Sans Pro" font-size="16.00">/src/GraphicsModule</text>
<text text-anchor="middle" x="1371" y="-198.7" font-family="Source Sans Pro" font-size="16.00">/CommandBuffer/IEDependency.cpp</text>
</a>
</g>
</g>
<!-- Node23&#45;&gt;Node24 -->
<g id="edge26" class="edge">
<title>Node23&#45;&gt;Node24</title>
<path fill="none" stroke="midnightblue" d="M1477.69,-291.74C1457.92,-278.73 1435.78,-264.15 1416.82,-251.67"/>
<polygon fill="midnightblue" stroke="midnightblue" points="1476.02,-294.83 1486.29,-297.41 1479.87,-288.99 1476.02,-294.83"/>
</g>
</g>
</svg>
