<?xml version="1.0" encoding="UTF-8" standalone="no"?>
<!DOCTYPE svg PUBLIC "-//W3C//DTD SVG 1.1//EN"
 "http://www.w3.org/Graphics/SVG/1.1/DTD/svg11.dtd">
<!-- Generated by graphviz version 2.43.0 (0)
 -->
<!-- Title: Illumination&#45;Engine/src/GraphicsModule/Image/IEImage.hpp Pages: 1 -->
<svg width="3355pt" height="917pt"
 viewBox="0.00 0.00 3355.00 917.00" xmlns="http://www.w3.org/2000/svg" xmlns:xlink="http://www.w3.org/1999/xlink">
<g id="graph0" class="graph" transform="scale(1 1) rotate(0) translate(4 913)">
<title>Illumination&#45;Engine/src/GraphicsModule/Image/IEImage.hpp</title>
<polygon fill="white" stroke="transparent" points="-4,4 -4,-913 3351,-913 3351,4 -4,4"/>
<!-- Node1 -->
<g id="node1" class="node">
<title>Node1</title>
<g id="a_node1"><a xlink:title=" ">
<polygon fill="#bfbfbf" stroke="black" points="852,-846.5 852,-908.5 1009,-908.5 1009,-846.5 852,-846.5"/>
<text text-anchor="start" x="860" y="-891.7" font-family="Source Sans Pro" font-size="16.00">Illumination&#45;Engine</text>
<text text-anchor="start" x="860" y="-873.7" font-family="Source Sans Pro" font-size="16.00">/src/GraphicsModule</text>
<text text-anchor="middle" x="930.5" y="-855.7" font-family="Source Sans Pro" font-size="16.00">/Image/IEImage.hpp</text>
</a>
</g>
</g>
<!-- Node2 -->
<g id="node2" class="node">
<title>Node2</title>
<g id="a_node2"><a xlink:href="_i_e_copy_buffer_to_image_info_8hpp.html" target="_top" xlink:title=" ">
<polygon fill="white" stroke="black" points="1040.5,-729.5 1040.5,-809.5 1312.5,-809.5 1312.5,-729.5 1040.5,-729.5"/>
<text text-anchor="start" x="1048.5" y="-792.7" font-family="Source Sans Pro" font-size="16.00">Illumination&#45;Engine</text>
<text text-anchor="start" x="1048.5" y="-774.7" font-family="Source Sans Pro" font-size="16.00">/src/GraphicsModule</text>
<text text-anchor="start" x="1048.5" y="-756.7" font-family="Source Sans Pro" font-size="16.00">/CommandBuffer/DependencyStructs</text>
<text text-anchor="middle" x="1176.5" y="-738.7" font-family="Source Sans Pro" font-size="16.00">/IECopyBufferToImageInfo.hpp</text>
</a>
</g>
</g>
<!-- Node1&#45;&gt;Node2 -->
<g id="edge1" class="edge">
<title>Node1&#45;&gt;Node2</title>
<path fill="none" stroke="midnightblue" d="M1009.83,-842.32C1034.05,-831.88 1060.86,-820.33 1085.78,-809.59"/>
<polygon fill="midnightblue" stroke="midnightblue" points="1008.13,-839.24 1000.34,-846.41 1010.9,-845.67 1008.13,-839.24"/>
</g>
<!-- Node4 -->
<g id="node4" class="node">
<title>Node4</title>
<g id="a_node4"><a xlink:href="_i_e_command_buffer_8hpp.html" target="_top" xlink:title=" ">
<polygon fill="white" stroke="black" points="990,-504.5 990,-566.5 1285,-566.5 1285,-504.5 990,-504.5"/>
<text text-anchor="start" x="998" y="-549.7" font-family="Source Sans Pro" font-size="16.00">Illumination&#45;Engine</text>
<text text-anchor="start" x="998" y="-531.7" font-family="Source Sans Pro" font-size="16.00">/src/GraphicsModule</text>
<text text-anchor="middle" x="1137.5" y="-513.7" font-family="Source Sans Pro" font-size="16.00">/CommandBuffer/IECommandBuffer.hpp</text>
</a>
</g>
</g>
<!-- Node1&#45;&gt;Node4 -->
<g id="edge36" class="edge">
<title>Node1&#45;&gt;Node4</title>
<path fill="none" stroke="midnightblue" d="M973.03,-838.87C980.86,-830.1 988.22,-820.29 993.5,-810 1034.4,-730.27 983.09,-687.4 1031.5,-612 1043.28,-593.65 1061.24,-578.41 1079.05,-566.54"/>
<polygon fill="midnightblue" stroke="midnightblue" points="970.35,-836.61 966.06,-846.29 975.45,-841.39 970.35,-836.61"/>
</g>
<!-- Node14 -->
<g id="node14" class="node">
<title>Node14</title>
<g id="a_node14"><a xlink:href="_i_e_image_8cpp.html" target="_top" xlink:title=" ">
<polygon fill="white" stroke="black" points="0,-180.5 0,-242.5 157,-242.5 157,-180.5 0,-180.5"/>
<text text-anchor="start" x="8" y="-225.7" font-family="Source Sans Pro" font-size="16.00">Illumination&#45;Engine</text>
<text text-anchor="start" x="8" y="-207.7" font-family="Source Sans Pro" font-size="16.00">/src/GraphicsModule</text>
<text text-anchor="middle" x="78.5" y="-189.7" font-family="Source Sans Pro" font-size="16.00">/Image/IEImage.cpp</text>
</a>
</g>
</g>
<!-- Node1&#45;&gt;Node14 -->
<g id="edge38" class="edge">
<title>Node1&#45;&gt;Node14</title>
<path fill="none" stroke="midnightblue" d="M841.46,-874.68C694.02,-870.38 406.6,-856.17 317.5,-810 235.16,-767.33 179.5,-746.23 179.5,-653.5 179.5,-653.5 179.5,-653.5 179.5,-426.5 179.5,-355.22 133.11,-282.26 103.21,-242.64"/>
<polygon fill="midnightblue" stroke="midnightblue" points="841.73,-878.19 851.83,-874.97 841.93,-871.19 841.73,-878.19"/>
</g>
<!-- Node21 -->
<g id="node21" class="node">
<title>Node21</title>
<g id="a_node21"><a xlink:href="_i_e_descriptor_set_8cpp.html" target="_top" xlink:title=" ">
<polygon fill="white" stroke="black" points="175,-180.5 175,-242.5 382,-242.5 382,-180.5 175,-180.5"/>
<text text-anchor="start" x="183" y="-225.7" font-family="Source Sans Pro" font-size="16.00">Illumination&#45;Engine</text>
<text text-anchor="start" x="183" y="-207.7" font-family="Source Sans Pro" font-size="16.00">/src/GraphicsModule</text>
<text text-anchor="middle" x="278.5" y="-189.7" font-family="Source Sans Pro" font-size="16.00">/Shader/IEDescriptorSet.cpp</text>
</a>
</g>
</g>
<!-- Node1&#45;&gt;Node21 -->
<g id="edge62" class="edge">
<title>Node1&#45;&gt;Node21</title>
<path fill="none" stroke="midnightblue" d="M841.66,-870.67C723.88,-861.81 523.25,-842.46 457.5,-810 368.59,-766.11 298.5,-752.66 298.5,-653.5 298.5,-653.5 298.5,-653.5 298.5,-426.5 298.5,-360.64 288.99,-283.87 283.09,-242.54"/>
<polygon fill="midnightblue" stroke="midnightblue" points="841.51,-874.17 851.74,-871.42 842.03,-867.19 841.51,-874.17"/>
</g>
<!-- Node26 -->
<g id="node26" class="node">
<title>Node26</title>
<g id="a_node26"><a xlink:href="_i_e_dependency_8cpp.html" target="_top" xlink:title=" ">
<polygon fill="white" stroke="black" points="450.5,-288.5 450.5,-350.5 716.5,-350.5 716.5,-288.5 450.5,-288.5"/>
<text text-anchor="start" x="458.5" y="-333.7" font-family="Source Sans Pro" font-size="16.00">Illumination&#45;Engine</text>
<text text-anchor="start" x="458.5" y="-315.7" font-family="Source Sans Pro" font-size="16.00">/src/GraphicsModule</text>
<text text-anchor="middle" x="583.5" y="-297.7" font-family="Source Sans Pro" font-size="16.00">/CommandBuffer/IEDependency.cpp</text>
</a>
</g>
</g>
<!-- Node1&#45;&gt;Node26 -->
<g id="edge37" class="edge">
<title>Node1&#45;&gt;Node26</title>
<path fill="none" stroke="midnightblue" d="M842.17,-858.81C689.99,-825.77 394.5,-749.29 394.5,-653.5 394.5,-653.5 394.5,-653.5 394.5,-534.5 394.5,-452.09 474.21,-386.47 530.1,-350.58"/>
<polygon fill="midnightblue" stroke="midnightblue" points="841.47,-862.24 851.99,-860.92 842.95,-855.39 841.47,-862.24"/>
</g>
<!-- Node27 -->
<g id="node27" class="node">
<title>Node27</title>
<g id="a_node27"><a xlink:href="_i_e_image_memory_barrier_8hpp.html" target="_top" xlink:title=" ">
<polygon fill="white" stroke="black" points="712.5,-729.5 712.5,-809.5 984.5,-809.5 984.5,-729.5 712.5,-729.5"/>
<text text-anchor="start" x="720.5" y="-792.7" font-family="Source Sans Pro" font-size="16.00">Illumination&#45;Engine</text>
<text text-anchor="start" x="720.5" y="-774.7" font-family="Source Sans Pro" font-size="16.00">/src/GraphicsModule</text>
<text text-anchor="start" x="720.5" y="-756.7" font-family="Source Sans Pro" font-size="16.00">/CommandBuffer/DependencyStructs</text>
<text text-anchor="middle" x="848.5" y="-738.7" font-family="Source Sans Pro" font-size="16.00">/IEImageMemoryBarrier.hpp</text>
</a>
</g>
</g>
<!-- Node1&#45;&gt;Node27 -->
<g id="edge31" class="edge">
<title>Node1&#45;&gt;Node27</title>
<path fill="none" stroke="midnightblue" d="M901.05,-838.43C893.85,-829.13 886.13,-819.15 878.89,-809.79"/>
<polygon fill="midnightblue" stroke="midnightblue" points="898.33,-840.64 907.22,-846.41 903.87,-836.36 898.33,-840.64"/>
</g>
<!-- Node31 -->
<g id="node31" class="node">
<title>Node31</title>
<g id="a_node31"><a xlink:href="_i_e_texture_8hpp.html" target="_top" xlink:title=" ">
<polygon fill="white" stroke="black" points="2481.5,-504.5 2481.5,-566.5 2643.5,-566.5 2643.5,-504.5 2481.5,-504.5"/>
<text text-anchor="start" x="2489.5" y="-549.7" font-family="Source Sans Pro" font-size="16.00">Illumination&#45;Engine</text>
<text text-anchor="start" x="2489.5" y="-531.7" font-family="Source Sans Pro" font-size="16.00">/src/GraphicsModule</text>
<text text-anchor="middle" x="2562.5" y="-513.7" font-family="Source Sans Pro" font-size="16.00">/Image/IETexture.hpp</text>
</a>
</g>
</g>
<!-- Node1&#45;&gt;Node31 -->
<g id="edge39" class="edge">
<title>Node1&#45;&gt;Node31</title>
<path fill="none" stroke="midnightblue" d="M1019.54,-876.09C1180.27,-873.97 1528.99,-863.02 1817.5,-810 1997.16,-776.98 2040.16,-756.33 2211.5,-693 2315.54,-654.54 2432.48,-600.03 2501.69,-566.54"/>
<polygon fill="midnightblue" stroke="midnightblue" points="1019.19,-872.6 1009.23,-876.22 1019.27,-879.6 1019.19,-872.6"/>
</g>
<!-- Node35 -->
<g id="node35" class="node">
<title>Node35</title>
<g id="a_node35"><a xlink:href="_i_e_framebuffer_8hpp.html" target="_top" xlink:title=" ">
<polygon fill="white" stroke="black" points="1576.5,-738.5 1576.5,-800.5 1808.5,-800.5 1808.5,-738.5 1576.5,-738.5"/>
<text text-anchor="start" x="1584.5" y="-783.7" font-family="Source Sans Pro" font-size="16.00">Illumination&#45;Engine</text>
<text text-anchor="start" x="1584.5" y="-765.7" font-family="Source Sans Pro" font-size="16.00">/src/GraphicsModule</text>
<text text-anchor="middle" x="1692.5" y="-747.7" font-family="Source Sans Pro" font-size="16.00">/RenderPass/IEFramebuffer.hpp</text>
</a>
</g>
</g>
<!-- Node1&#45;&gt;Node35 -->
<g id="edge53" class="edge">
<title>Node1&#45;&gt;Node35</title>
<path fill="none" stroke="midnightblue" d="M1019.29,-864.15C1157.26,-844.96 1423.13,-807.97 1576.23,-786.67"/>
<polygon fill="midnightblue" stroke="midnightblue" points="1018.6,-860.71 1009.18,-865.56 1019.56,-867.64 1018.6,-860.71"/>
</g>
<!-- Node3 -->
<g id="node3" class="node">
<title>Node3</title>
<g id="a_node3"><a xlink:href="_i_e_copy_buffer_to_image_info_8cpp.html" target="_top" xlink:title=" ">
<polygon fill="white" stroke="black" points="1040.5,-612.5 1040.5,-692.5 1312.5,-692.5 1312.5,-612.5 1040.5,-612.5"/>
<text text-anchor="start" x="1048.5" y="-675.7" font-family="Source Sans Pro" font-size="16.00">Illumination&#45;Engine</text>
<text text-anchor="start" x="1048.5" y="-657.7" font-family="Source Sans Pro" font-size="16.00">/src/GraphicsModule</text>
<text text-anchor="start" x="1048.5" y="-639.7" font-family="Source Sans Pro" font-size="16.00">/CommandBuffer/DependencyStructs</text>
<text text-anchor="middle" x="1176.5" y="-621.7" font-family="Source Sans Pro" font-size="16.00">/IECopyBufferToImageInfo.cpp</text>
</a>
</g>
</g>
<!-- Node2&#45;&gt;Node3 -->
<g id="edge2" class="edge">
<title>Node2&#45;&gt;Node3</title>
<path fill="none" stroke="midnightblue" d="M1176.5,-719.03C1176.5,-710.19 1176.5,-701.08 1176.5,-692.58"/>
<polygon fill="midnightblue" stroke="midnightblue" points="1173,-719.25 1176.5,-729.25 1180,-719.25 1173,-719.25"/>
</g>
<!-- Node2&#45;&gt;Node4 -->
<g id="edge3" class="edge">
<title>Node2&#45;&gt;Node4</title>
<path fill="none" stroke="midnightblue" d="M1293.66,-723.39C1304.65,-714.86 1314.33,-704.81 1321.5,-693 1340.17,-662.22 1341.55,-641.9 1321.5,-612 1308.13,-592.07 1288.46,-577.39 1266.9,-566.59"/>
<polygon fill="midnightblue" stroke="midnightblue" points="1291.5,-720.64 1285.45,-729.34 1295.6,-726.31 1291.5,-720.64"/>
</g>
<!-- Node5 -->
<g id="node5" class="node">
<title>Node5</title>
<g id="a_node5"><a xlink:href="_i_e_command_buffer_8cpp.html" target="_top" xlink:title=" ">
<polygon fill="white" stroke="black" points="400,-180.5 400,-242.5 693,-242.5 693,-180.5 400,-180.5"/>
<text text-anchor="start" x="408" y="-225.7" font-family="Source Sans Pro" font-size="16.00">Illumination&#45;Engine</text>
<text text-anchor="start" x="408" y="-207.7" font-family="Source Sans Pro" font-size="16.00">/src/GraphicsModule</text>
<text text-anchor="middle" x="546.5" y="-189.7" font-family="Source Sans Pro" font-size="16.00">/CommandBuffer/IECommandBuffer.cpp</text>
</a>
</g>
</g>
<!-- Node4&#45;&gt;Node5 -->
<g id="edge4" class="edge">
<title>Node4&#45;&gt;Node5</title>
<path fill="none" stroke="midnightblue" d="M979.86,-517.33C795.48,-493.61 507.01,-443.96 441.5,-360 419.35,-331.62 424.14,-310.54 441.5,-279 449.67,-264.16 462.7,-252.17 476.84,-242.67"/>
<polygon fill="midnightblue" stroke="midnightblue" points="979.57,-520.82 989.93,-518.61 980.46,-513.87 979.57,-520.82"/>
</g>
<!-- Node6 -->
<g id="node6" class="node">
<title>Node6</title>
<g id="a_node6"><a xlink:href="_i_e_command_pool_8hpp.html" target="_top" xlink:title=" ">
<polygon fill="white" stroke="black" points="995,-396.5 995,-458.5 1280,-458.5 1280,-396.5 995,-396.5"/>
<text text-anchor="start" x="1003" y="-441.7" font-family="Source Sans Pro" font-size="16.00">Illumination&#45;Engine</text>
<text text-anchor="start" x="1003" y="-423.7" font-family="Source Sans Pro" font-size="16.00">/src/GraphicsModule</text>
<text text-anchor="middle" x="1137.5" y="-405.7" font-family="Source Sans Pro" font-size="16.00">/CommandBuffer/IECommandPool.hpp</text>
</a>
</g>
</g>
<!-- Node4&#45;&gt;Node6 -->
<g id="edge5" class="edge">
<title>Node4&#45;&gt;Node6</title>
<path fill="none" stroke="midnightblue" d="M1137.5,-494.31C1137.5,-482.48 1137.5,-469.75 1137.5,-458.67"/>
<polygon fill="midnightblue" stroke="midnightblue" points="1134,-494.41 1137.5,-504.41 1141,-494.41 1134,-494.41"/>
</g>
<!-- Node24 -->
<g id="node24" class="node">
<title>Node24</title>
<g id="a_node24"><a xlink:href="_i_e_render_pass_8hpp.html" target="_top" xlink:title=" ">
<polygon fill="white" stroke="black" points="1578.5,-396.5 1578.5,-458.5 1806.5,-458.5 1806.5,-396.5 1578.5,-396.5"/>
<text text-anchor="start" x="1586.5" y="-441.7" font-family="Source Sans Pro" font-size="16.00">Illumination&#45;Engine</text>
<text text-anchor="start" x="1586.5" y="-423.7" font-family="Source Sans Pro" font-size="16.00">/src/GraphicsModule</text>
<text text-anchor="middle" x="1692.5" y="-405.7" font-family="Source Sans Pro" font-size="16.00">/RenderPass/IERenderPass.hpp</text>
</a>
</g>
</g>
<!-- Node4&#45;&gt;Node24 -->
<g id="edge25" class="edge">
<title>Node4&#45;&gt;Node24</title>
<path fill="none" stroke="midnightblue" d="M1295.19,-504.38C1385.35,-487.16 1496.39,-465.96 1578.14,-450.34"/>
<polygon fill="midnightblue" stroke="midnightblue" points="1294.3,-500.99 1285.14,-506.3 1295.62,-507.86 1294.3,-500.99"/>
</g>
<!-- Node7 -->
<g id="node7" class="node">
<title>Node7</title>
<g id="a_node7"><a xlink:href="_i_e_command_pool_8cpp.html" target="_top" xlink:title=" ">
<polygon fill="white" stroke="black" points="711.5,-180.5 711.5,-242.5 995.5,-242.5 995.5,-180.5 711.5,-180.5"/>
<text text-anchor="start" x="719.5" y="-225.7" font-family="Source Sans Pro" font-size="16.00">Illumination&#45;Engine</text>
<text text-anchor="start" x="719.5" y="-207.7" font-family="Source Sans Pro" font-size="16.00">/src/GraphicsModule</text>
<text text-anchor="middle" x="853.5" y="-189.7" font-family="Source Sans Pro" font-size="16.00">/CommandBuffer/IECommandPool.cpp</text>
</a>
</g>
</g>
<!-- Node6&#45;&gt;Node7 -->
<g id="edge6" class="edge">
<title>Node6&#45;&gt;Node7</title>
<path fill="none" stroke="midnightblue" d="M1089.19,-390.1C1034.02,-348.53 944.77,-281.27 893.38,-242.55"/>
<polygon fill="midnightblue" stroke="midnightblue" points="1087.32,-393.07 1097.41,-396.29 1091.53,-387.48 1087.32,-393.07"/>
</g>
<!-- Node8 -->
<g id="node8" class="node">
<title>Node8</title>
<g id="a_node8"><a xlink:href="_i_e_render_engine_8hpp.html" target="_top" xlink:title=" ">
<polygon fill="white" stroke="black" points="1613,-288.5 1613,-350.5 1774,-350.5 1774,-288.5 1613,-288.5"/>
<text text-anchor="start" x="1621" y="-333.7" font-family="Source Sans Pro" font-size="16.00">Illumination&#45;Engine</text>
<text text-anchor="start" x="1621" y="-315.7" font-family="Source Sans Pro" font-size="16.00">/src/GraphicsModule</text>
<text text-anchor="middle" x="1693.5" y="-297.7" font-family="Source Sans Pro" font-size="16.00">/IERenderEngine.hpp</text>
</a>
</g>
</g>
<!-- Node6&#45;&gt;Node8 -->
<g id="edge7" class="edge">
<title>Node6&#45;&gt;Node8</title>
<path fill="none" stroke="midnightblue" d="M1290.31,-397.37C1394.55,-377.49 1528.46,-351.96 1612.66,-335.91"/>
<polygon fill="midnightblue" stroke="midnightblue" points="1289.49,-393.96 1280.32,-399.27 1290.8,-400.84 1289.49,-393.96"/>
</g>
<!-- Node8&#45;&gt;Node5 -->
<g id="edge9" class="edge">
<title>Node8&#45;&gt;Node5</title>
<path fill="none" stroke="midnightblue" d="M1602.69,-315.14C1427.8,-307.88 1032.35,-287.65 702.5,-243 699.49,-242.59 696.45,-242.16 693.4,-241.72"/>
<polygon fill="midnightblue" stroke="midnightblue" points="1602.75,-318.64 1612.88,-315.56 1603.03,-311.65 1602.75,-318.64"/>
</g>
<!-- Node8&#45;&gt;Node7 -->
<g id="edge10" class="edge">
<title>Node8&#45;&gt;Node7</title>
<path fill="none" stroke="midnightblue" d="M1602.9,-311.14C1471,-299.84 1218.59,-276 1005.5,-243 1002.31,-242.51 999.08,-241.99 995.83,-241.46"/>
<polygon fill="midnightblue" stroke="midnightblue" points="1602.7,-314.63 1612.96,-312 1603.29,-307.66 1602.7,-314.63"/>
</g>
<!-- Node9 -->
<g id="node9" class="node">
<title>Node9</title>
<g id="a_node9"><a xlink:href="_i_e_buffer_8cpp.html" target="_top" xlink:title=" ">
<polygon fill="white" stroke="black" points="2020,-180.5 2020,-242.5 2177,-242.5 2177,-180.5 2020,-180.5"/>
<text text-anchor="start" x="2028" y="-225.7" font-family="Source Sans Pro" font-size="16.00">Illumination&#45;Engine</text>
<text text-anchor="start" x="2028" y="-207.7" font-family="Source Sans Pro" font-size="16.00">/src/GraphicsModule</text>
<text text-anchor="middle" x="2098.5" y="-189.7" font-family="Source Sans Pro" font-size="16.00">/Buffer/IEBuffer.cpp</text>
</a>
</g>
</g>
<!-- Node8&#45;&gt;Node9 -->
<g id="edge8" class="edge">
<title>Node8&#45;&gt;Node9</title>
<path fill="none" stroke="midnightblue" d="M1784.12,-295.66C1806.45,-290.13 1830.33,-284.28 1852.5,-279 1922.56,-262.32 1941.26,-262.82 2010.5,-243 2013.61,-242.11 2016.77,-241.17 2019.95,-240.2"/>
<polygon fill="midnightblue" stroke="midnightblue" points="1783.17,-292.29 1774.31,-298.1 1784.86,-299.09 1783.17,-292.29"/>
</g>
<!-- Node10 -->
<g id="node10" class="node">
<title>Node10</title>
<g id="a_node10"><a xlink:href="_i_e_a_p_i_8cpp.html" target="_top" xlink:title=" ">
<polygon fill="white" stroke="black" points="1259,-180.5 1259,-242.5 1416,-242.5 1416,-180.5 1259,-180.5"/>
<text text-anchor="start" x="1267" y="-225.7" font-family="Source Sans Pro" font-size="16.00">Illumination&#45;Engine</text>
<text text-anchor="start" x="1267" y="-207.7" font-family="Source Sans Pro" font-size="16.00">/src/GraphicsModule</text>
<text text-anchor="middle" x="1337.5" y="-189.7" font-family="Source Sans Pro" font-size="16.00">/IEAPI.cpp</text>
</a>
</g>
</g>
<!-- Node8&#45;&gt;Node10 -->
<g id="edge11" class="edge">
<title>Node8&#45;&gt;Node10</title>
<path fill="none" stroke="midnightblue" d="M1602.91,-294.41C1550.8,-280.2 1484.21,-261.43 1425.5,-243 1422.41,-242.03 1419.27,-241.03 1416.11,-240"/>
<polygon fill="midnightblue" stroke="midnightblue" points="1602.23,-297.85 1612.8,-297.1 1604.07,-291.1 1602.23,-297.85"/>
</g>
<!-- Node11 -->
<g id="node11" class="node">
<title>Node11</title>
<g id="a_node11"><a xlink:href="_i_e_camera_8cpp.html" target="_top" xlink:title=" ">
<polygon fill="white" stroke="black" points="1434,-180.5 1434,-242.5 1591,-242.5 1591,-180.5 1434,-180.5"/>
<text text-anchor="start" x="1442" y="-225.7" font-family="Source Sans Pro" font-size="16.00">Illumination&#45;Engine</text>
<text text-anchor="start" x="1442" y="-207.7" font-family="Source Sans Pro" font-size="16.00">/src/GraphicsModule</text>
<text text-anchor="middle" x="1512.5" y="-189.7" font-family="Source Sans Pro" font-size="16.00">/IECamera.cpp</text>
</a>
</g>
</g>
<!-- Node8&#45;&gt;Node11 -->
<g id="edge12" class="edge">
<title>Node8&#45;&gt;Node11</title>
<path fill="none" stroke="midnightblue" d="M1633.34,-283.27C1610.89,-270.12 1585.62,-255.32 1564.01,-242.67"/>
<polygon fill="midnightblue" stroke="midnightblue" points="1631.72,-286.37 1642.12,-288.41 1635.26,-280.33 1631.72,-286.37"/>
</g>
<!-- Node12 -->
<g id="node12" class="node">
<title>Node12</title>
<g id="a_node12"><a xlink:href="_i_e_render_engine_8cpp.html" target="_top" xlink:title=" ">
<polygon fill="white" stroke="black" points="3154,-81.5 3154,-143.5 3313,-143.5 3313,-81.5 3154,-81.5"/>
<text text-anchor="start" x="3162" y="-126.7" font-family="Source Sans Pro" font-size="16.00">Illumination&#45;Engine</text>
<text text-anchor="start" x="3162" y="-108.7" font-family="Source Sans Pro" font-size="16.00">/src/GraphicsModule</text>
<text text-anchor="middle" x="3233.5" y="-90.7" font-family="Source Sans Pro" font-size="16.00">/IERenderEngine.cpp</text>
</a>
</g>
</g>
<!-- Node8&#45;&gt;Node12 -->
<g id="edge13" class="edge">
<title>Node8&#45;&gt;Node12</title>
<path fill="none" stroke="midnightblue" d="M1761.53,-284.73C1767.52,-282.54 1773.56,-280.58 1779.5,-279 1867.26,-255.71 2109.48,-291.09 2186.5,-243 2214.24,-225.68 2196.35,-196.63 2224.5,-180 2312.68,-127.91 3044.86,-162.97 3145.5,-144 3148.2,-143.49 3150.93,-142.91 3153.68,-142.28"/>
<polygon fill="midnightblue" stroke="midnightblue" points="1760.25,-281.47 1752.2,-288.36 1762.79,-288 1760.25,-281.47"/>
</g>
<!-- Node8&#45;&gt;Node14 -->
<g id="edge15" class="edge">
<title>Node8&#45;&gt;Node14</title>
<path fill="none" stroke="midnightblue" d="M1602.65,-314.73C1284.52,-301.45 236.19,-256.84 165.5,-243 162.83,-242.48 160.13,-241.89 157.42,-241.25"/>
<polygon fill="midnightblue" stroke="midnightblue" points="1602.61,-318.23 1612.75,-315.15 1602.91,-311.24 1602.61,-318.23"/>
</g>
<!-- Node15 -->
<g id="node15" class="node">
<title>Node15</title>
<g id="a_node15"><a xlink:href="_i_e_texture_8cpp.html" target="_top" xlink:title=" ">
<polygon fill="white" stroke="black" points="2482,-180.5 2482,-242.5 2643,-242.5 2643,-180.5 2482,-180.5"/>
<text text-anchor="start" x="2490" y="-225.7" font-family="Source Sans Pro" font-size="16.00">Illumination&#45;Engine</text>
<text text-anchor="start" x="2490" y="-207.7" font-family="Source Sans Pro" font-size="16.00">/src/GraphicsModule</text>
<text text-anchor="middle" x="2562.5" y="-189.7" font-family="Source Sans Pro" font-size="16.00">/Image/IETexture.cpp</text>
</a>
</g>
</g>
<!-- Node8&#45;&gt;Node15 -->
<g id="edge16" class="edge">
<title>Node8&#45;&gt;Node15</title>
<path fill="none" stroke="midnightblue" d="M1784.16,-297.32C1816.6,-290.46 1853.53,-283.48 1887.5,-279 2145.75,-244.93 2216.9,-293.24 2472.5,-243 2475.58,-242.4 2478.69,-241.71 2481.82,-240.97"/>
<polygon fill="midnightblue" stroke="midnightblue" points="1783.3,-293.92 1774.25,-299.44 1784.76,-300.77 1783.3,-293.92"/>
</g>
<!-- Node16 -->
<g id="node16" class="node">
<title>Node16</title>
<g id="a_node16"><a xlink:href="_i_e_framebuffer_8cpp.html" target="_top" xlink:title=" ">
<polygon fill="white" stroke="black" points="2233.5,-180.5 2233.5,-242.5 2463.5,-242.5 2463.5,-180.5 2233.5,-180.5"/>
<text text-anchor="start" x="2241.5" y="-225.7" font-family="Source Sans Pro" font-size="16.00">Illumination&#45;Engine</text>
<text text-anchor="start" x="2241.5" y="-207.7" font-family="Source Sans Pro" font-size="16.00">/src/GraphicsModule</text>
<text text-anchor="middle" x="2348.5" y="-189.7" font-family="Source Sans Pro" font-size="16.00">/RenderPass/IEFramebuffer.cpp</text>
</a>
</g>
</g>
<!-- Node8&#45;&gt;Node16 -->
<g id="edge17" class="edge">
<title>Node8&#45;&gt;Node16</title>
<path fill="none" stroke="midnightblue" d="M1784.07,-293.58C1806.32,-288.13 1830.16,-282.85 1852.5,-279 2014.01,-251.17 2057.83,-269.92 2219.5,-243 2224.04,-242.24 2228.66,-241.42 2233.31,-240.54"/>
<polygon fill="midnightblue" stroke="midnightblue" points="1783.17,-290.2 1774.31,-296.01 1784.86,-296.99 1783.17,-290.2"/>
</g>
<!-- Node17 -->
<g id="node17" class="node">
<title>Node17</title>
<g id="a_node17"><a xlink:href="_i_e_render_pass_8cpp.html" target="_top" xlink:title=" ">
<polygon fill="white" stroke="black" points="1014,-180.5 1014,-242.5 1241,-242.5 1241,-180.5 1014,-180.5"/>
<text text-anchor="start" x="1022" y="-225.7" font-family="Source Sans Pro" font-size="16.00">Illumination&#45;Engine</text>
<text text-anchor="start" x="1022" y="-207.7" font-family="Source Sans Pro" font-size="16.00">/src/GraphicsModule</text>
<text text-anchor="middle" x="1127.5" y="-189.7" font-family="Source Sans Pro" font-size="16.00">/RenderPass/IERenderPass.cpp</text>
</a>
</g>
</g>
<!-- Node8&#45;&gt;Node17 -->
<g id="edge18" class="edge">
<title>Node8&#45;&gt;Node17</title>
<path fill="none" stroke="midnightblue" d="M1602.75,-297.1C1574.28,-290.79 1542.66,-284.19 1513.5,-279 1397.34,-258.34 1366.37,-265.23 1250.5,-243 1247.48,-242.42 1244.41,-241.81 1241.33,-241.18"/>
<polygon fill="midnightblue" stroke="midnightblue" points="1602.16,-300.56 1612.68,-299.32 1603.69,-293.73 1602.16,-300.56"/>
</g>
<!-- Node18 -->
<g id="node18" class="node">
<title>Node18</title>
<g id="a_node18"><a xlink:href="_i_e_material_8cpp.html" target="_top" xlink:title=" ">
<polygon fill="white" stroke="black" points="2862,-180.5 2862,-242.5 3063,-242.5 3063,-180.5 2862,-180.5"/>
<text text-anchor="start" x="2870" y="-225.7" font-family="Source Sans Pro" font-size="16.00">Illumination&#45;Engine</text>
<text text-anchor="start" x="2870" y="-207.7" font-family="Source Sans Pro" font-size="16.00">/src/GraphicsModule</text>
<text text-anchor="middle" x="2962.5" y="-189.7" font-family="Source Sans Pro" font-size="16.00">/Renderable/IEMaterial.cpp</text>
</a>
</g>
</g>
<!-- Node8&#45;&gt;Node18 -->
<g id="edge19" class="edge">
<title>Node8&#45;&gt;Node18</title>
<path fill="none" stroke="midnightblue" d="M1784.11,-296.86C1816.54,-289.96 1853.48,-283.07 1887.5,-279 2314.09,-227.97 2429.02,-309.35 2853.5,-243 2856.22,-242.58 2858.96,-242.11 2861.73,-241.6"/>
<polygon fill="midnightblue" stroke="midnightblue" points="1783.23,-293.46 1774.19,-298.99 1784.71,-300.31 1783.23,-293.46"/>
</g>
<!-- Node19 -->
<g id="node19" class="node">
<title>Node19</title>
<g id="a_node19"><a xlink:href="_i_e_mesh_8cpp.html" target="_top" xlink:title=" ">
<polygon fill="white" stroke="black" points="2661,-180.5 2661,-242.5 2844,-242.5 2844,-180.5 2661,-180.5"/>
<text text-anchor="start" x="2669" y="-225.7" font-family="Source Sans Pro" font-size="16.00">Illumination&#45;Engine</text>
<text text-anchor="start" x="2669" y="-207.7" font-family="Source Sans Pro" font-size="16.00">/src/GraphicsModule</text>
<text text-anchor="middle" x="2752.5" y="-189.7" font-family="Source Sans Pro" font-size="16.00">/Renderable/IEMesh.cpp</text>
</a>
</g>
</g>
<!-- Node8&#45;&gt;Node19 -->
<g id="edge20" class="edge">
<title>Node8&#45;&gt;Node19</title>
<path fill="none" stroke="midnightblue" d="M1784.13,-297.04C1816.56,-290.16 1853.5,-283.24 1887.5,-279 2225.27,-236.92 2317.12,-301.1 2652.5,-243 2655.27,-242.52 2658.08,-241.99 2660.9,-241.41"/>
<polygon fill="midnightblue" stroke="midnightblue" points="1783.26,-293.65 1774.22,-299.17 1784.73,-300.49 1783.26,-293.65"/>
</g>
<!-- Node20 -->
<g id="node20" class="node">
<title>Node20</title>
<g id="a_node20"><a xlink:href="_i_e_renderable_8cpp.html" target="_top" xlink:title=" ">
<polygon fill="white" stroke="black" points="2911,-81.5 2911,-143.5 3136,-143.5 3136,-81.5 2911,-81.5"/>
<text text-anchor="start" x="2919" y="-126.7" font-family="Source Sans Pro" font-size="16.00">Illumination&#45;Engine</text>
<text text-anchor="start" x="2919" y="-108.7" font-family="Source Sans Pro" font-size="16.00">/src/GraphicsModule</text>
<text text-anchor="middle" x="3023.5" y="-90.7" font-family="Source Sans Pro" font-size="16.00">/Renderable/IERenderable.cpp</text>
</a>
</g>
</g>
<!-- Node8&#45;&gt;Node20 -->
<g id="edge21" class="edge">
<title>Node8&#45;&gt;Node20</title>
<path fill="none" stroke="midnightblue" d="M1658.63,-280.59C1634.81,-250.08 1611.96,-207.85 1638.5,-180 1682.15,-134.2 2588.31,-118.78 2910.79,-114.72"/>
<polygon fill="midnightblue" stroke="midnightblue" points="1655.99,-282.89 1665,-288.46 1661.43,-278.49 1655.99,-282.89"/>
</g>
<!-- Node8&#45;&gt;Node21 -->
<g id="edge22" class="edge">
<title>Node8&#45;&gt;Node21</title>
<path fill="none" stroke="midnightblue" d="M1602.33,-315.69C1346.34,-307.39 624.45,-281.2 390.5,-243 387.72,-242.55 384.9,-242.05 382.07,-241.52"/>
<polygon fill="midnightblue" stroke="midnightblue" points="1602.59,-319.2 1612.7,-316.02 1602.82,-312.2 1602.59,-319.2"/>
</g>
<!-- Node22 -->
<g id="node22" class="node">
<title>Node22</title>
<g id="a_node22"><a xlink:href="_i_e_pipeline_8cpp.html" target="_top" xlink:title=" ">
<polygon fill="white" stroke="black" points="1647.5,-180.5 1647.5,-242.5 1819.5,-242.5 1819.5,-180.5 1647.5,-180.5"/>
<text text-anchor="start" x="1655.5" y="-225.7" font-family="Source Sans Pro" font-size="16.00">Illumination&#45;Engine</text>
<text text-anchor="start" x="1655.5" y="-207.7" font-family="Source Sans Pro" font-size="16.00">/src/GraphicsModule</text>
<text text-anchor="middle" x="1733.5" y="-189.7" font-family="Source Sans Pro" font-size="16.00">/Shader/IEPipeline.cpp</text>
</a>
</g>
</g>
<!-- Node8&#45;&gt;Node22 -->
<g id="edge23" class="edge">
<title>Node8&#45;&gt;Node22</title>
<path fill="none" stroke="midnightblue" d="M1708.4,-279.03C1712.93,-267 1717.85,-253.98 1722.12,-242.67"/>
<polygon fill="midnightblue" stroke="midnightblue" points="1705.11,-277.82 1704.86,-288.41 1711.66,-280.29 1705.11,-277.82"/>
</g>
<!-- Node23 -->
<g id="node23" class="node">
<title>Node23</title>
<g id="a_node23"><a xlink:href="_i_e_shader_8cpp.html" target="_top" xlink:title=" ">
<polygon fill="white" stroke="black" points="1837.5,-180.5 1837.5,-242.5 2001.5,-242.5 2001.5,-180.5 1837.5,-180.5"/>
<text text-anchor="start" x="1845.5" y="-225.7" font-family="Source Sans Pro" font-size="16.00">Illumination&#45;Engine</text>
<text text-anchor="start" x="1845.5" y="-207.7" font-family="Source Sans Pro" font-size="16.00">/src/GraphicsModule</text>
<text text-anchor="middle" x="1919.5" y="-189.7" font-family="Source Sans Pro" font-size="16.00">/Shader/IEShader.cpp</text>
</a>
</g>
</g>
<!-- Node8&#45;&gt;Node23 -->
<g id="edge24" class="edge">
<title>Node8&#45;&gt;Node23</title>
<path fill="none" stroke="midnightblue" d="M1766.76,-284.14C1795.25,-270.77 1827.61,-255.6 1855.18,-242.67"/>
<polygon fill="midnightblue" stroke="midnightblue" points="1765.23,-280.99 1757.66,-288.41 1768.2,-287.33 1765.23,-280.99"/>
</g>
<!-- Node13 -->
<g id="node13" class="node">
<title>Node13</title>
<g id="a_node13"><a xlink:href="main_8cpp.html" target="_top" xlink:title=" ">
<polygon fill="white" stroke="black" points="3158.5,-0.5 3158.5,-44.5 3308.5,-44.5 3308.5,-0.5 3158.5,-0.5"/>
<text text-anchor="start" x="3166.5" y="-27.7" font-family="Source Sans Pro" font-size="16.00">Illumination&#45;Engine</text>
<text text-anchor="middle" x="3233.5" y="-9.7" font-family="Source Sans Pro" font-size="16.00">/src/main.cpp</text>
</a>
</g>
</g>
<!-- Node12&#45;&gt;Node13 -->
<g id="edge14" class="edge">
<title>Node12&#45;&gt;Node13</title>
<path fill="none" stroke="midnightblue" d="M3233.5,-71.09C3233.5,-61.97 3233.5,-52.64 3233.5,-44.68"/>
<polygon fill="midnightblue" stroke="midnightblue" points="3230,-71.22 3233.5,-81.22 3237,-71.22 3230,-71.22"/>
</g>
<!-- Node24&#45;&gt;Node8 -->
<g id="edge28" class="edge">
<title>Node24&#45;&gt;Node8</title>
<path fill="none" stroke="midnightblue" d="M1692.88,-386.31C1692.99,-374.48 1693.11,-361.75 1693.22,-350.67"/>
<polygon fill="midnightblue" stroke="midnightblue" points="1689.38,-386.38 1692.78,-396.41 1696.38,-386.44 1689.38,-386.38"/>
</g>
<!-- Node24&#45;&gt;Node16 -->
<g id="edge29" class="edge">
<title>Node24&#45;&gt;Node16</title>
<path fill="none" stroke="midnightblue" d="M1742.55,-390.35C1755.91,-380.58 1770.31,-369.96 1783.5,-360 1830.27,-324.71 1833.2,-301 1887.5,-279 2025.06,-223.28 2073.22,-268.12 2219.5,-243 2224.04,-242.22 2228.65,-241.38 2233.3,-240.48"/>
<polygon fill="midnightblue" stroke="midnightblue" points="1740.39,-387.59 1734.38,-396.31 1744.52,-393.24 1740.39,-387.59"/>
</g>
<!-- Node24&#45;&gt;Node17 -->
<g id="edge30" class="edge">
<title>Node24&#45;&gt;Node17</title>
<path fill="none" stroke="midnightblue" d="M1631.19,-391.57C1571.72,-358.85 1478.15,-310.4 1392.5,-279 1388.64,-277.59 1311.4,-258.24 1241.3,-240.77"/>
<polygon fill="midnightblue" stroke="midnightblue" points="1629.63,-394.71 1640.08,-396.48 1633.02,-388.58 1629.63,-394.71"/>
</g>
<!-- Node25 -->
<g id="node25" class="node">
<title>Node25</title>
<g id="a_node25"><a xlink:href="_i_e_render_pass_begin_info_8cpp.html" target="_top" xlink:title=" ">
<polygon fill="white" stroke="black" points="1896.5,-279.5 1896.5,-359.5 2168.5,-359.5 2168.5,-279.5 1896.5,-279.5"/>
<text text-anchor="start" x="1904.5" y="-342.7" font-family="Source Sans Pro" font-size="16.00">Illumination&#45;Engine</text>
<text text-anchor="start" x="1904.5" y="-324.7" font-family="Source Sans Pro" font-size="16.00">/src/GraphicsModule</text>
<text text-anchor="start" x="1904.5" y="-306.7" font-family="Source Sans Pro" font-size="16.00">/CommandBuffer/DependencyStructs</text>
<text text-anchor="middle" x="2032.5" y="-288.7" font-family="Source Sans Pro" font-size="16.00">/IERenderPassBeginInfo.cpp</text>
</a>
</g>
</g>
<!-- Node24&#45;&gt;Node25 -->
<g id="edge26" class="edge">
<title>Node24&#45;&gt;Node25</title>
<path fill="none" stroke="midnightblue" d="M1798.61,-393.42C1832.99,-382.7 1871.46,-370.71 1907.11,-359.59"/>
<polygon fill="midnightblue" stroke="midnightblue" points="1797.53,-390.09 1789.02,-396.41 1799.61,-396.77 1797.53,-390.09"/>
</g>
<!-- Node24&#45;&gt;Node26 -->
<g id="edge27" class="edge">
<title>Node24&#45;&gt;Node26</title>
<path fill="none" stroke="midnightblue" d="M1568.09,-414.61C1357.58,-394.49 933,-353.91 716.7,-333.23"/>
<polygon fill="midnightblue" stroke="midnightblue" points="1567.97,-418.11 1578.25,-415.58 1568.63,-411.14 1567.97,-418.11"/>
</g>
<!-- Node28 -->
<g id="node28" class="node">
<title>Node28</title>
<g id="a_node28"><a xlink:href="_i_e_dependency_info_8hpp.html" target="_top" xlink:title=" ">
<polygon fill="white" stroke="black" points="422.5,-612.5 422.5,-692.5 694.5,-692.5 694.5,-612.5 422.5,-612.5"/>
<text text-anchor="start" x="430.5" y="-675.7" font-family="Source Sans Pro" font-size="16.00">Illumination&#45;Engine</text>
<text text-anchor="start" x="430.5" y="-657.7" font-family="Source Sans Pro" font-size="16.00">/src/GraphicsModule</text>
<text text-anchor="start" x="430.5" y="-639.7" font-family="Source Sans Pro" font-size="16.00">/CommandBuffer/DependencyStructs</text>
<text text-anchor="middle" x="558.5" y="-621.7" font-family="Source Sans Pro" font-size="16.00">/IEDependencyInfo.hpp</text>
</a>
</g>
</g>
<!-- Node27&#45;&gt;Node28 -->
<g id="edge32" class="edge">
<title>Node27&#45;&gt;Node28</title>
<path fill="none" stroke="midnightblue" d="M740.37,-725.62C713.14,-714.82 684.05,-703.29 657.31,-692.68"/>
<polygon fill="midnightblue" stroke="midnightblue" points="739.33,-728.97 749.91,-729.41 741.91,-722.47 739.33,-728.97"/>
</g>
<!-- Node30 -->
<g id="node30" class="node">
<title>Node30</title>
<g id="a_node30"><a xlink:href="_i_e_image_memory_barrier_8cpp.html" target="_top" xlink:title=" ">
<polygon fill="white" stroke="black" points="712.5,-612.5 712.5,-692.5 984.5,-692.5 984.5,-612.5 712.5,-612.5"/>
<text text-anchor="start" x="720.5" y="-675.7" font-family="Source Sans Pro" font-size="16.00">Illumination&#45;Engine</text>
<text text-anchor="start" x="720.5" y="-657.7" font-family="Source Sans Pro" font-size="16.00">/src/GraphicsModule</text>
<text text-anchor="start" x="720.5" y="-639.7" font-family="Source Sans Pro" font-size="16.00">/CommandBuffer/DependencyStructs</text>
<text text-anchor="middle" x="848.5" y="-621.7" font-family="Source Sans Pro" font-size="16.00">/IEImageMemoryBarrier.cpp</text>
</a>
</g>
</g>
<!-- Node27&#45;&gt;Node30 -->
<g id="edge35" class="edge">
<title>Node27&#45;&gt;Node30</title>
<path fill="none" stroke="midnightblue" d="M848.5,-719.03C848.5,-710.19 848.5,-701.08 848.5,-692.58"/>
<polygon fill="midnightblue" stroke="midnightblue" points="845,-719.25 848.5,-729.25 852,-719.25 845,-719.25"/>
</g>
<!-- Node28&#45;&gt;Node4 -->
<g id="edge34" class="edge">
<title>Node28&#45;&gt;Node4</title>
<path fill="none" stroke="midnightblue" d="M704.65,-611.8C805.01,-589.73 908.15,-571.78 989.68,-558.69"/>
<polygon fill="midnightblue" stroke="midnightblue" points="703.64,-608.44 694.63,-614.02 705.15,-615.27 703.64,-608.44"/>
</g>
<!-- Node29 -->
<g id="node29" class="node">
<title>Node29</title>
<g id="a_node29"><a xlink:href="_i_e_dependency_info_8cpp.html" target="_top" xlink:title=" ">
<polygon fill="white" stroke="black" points="422.5,-495.5 422.5,-575.5 694.5,-575.5 694.5,-495.5 422.5,-495.5"/>
<text text-anchor="start" x="430.5" y="-558.7" font-family="Source Sans Pro" font-size="16.00">Illumination&#45;Engine</text>
<text text-anchor="start" x="430.5" y="-540.7" font-family="Source Sans Pro" font-size="16.00">/src/GraphicsModule</text>
<text text-anchor="start" x="430.5" y="-522.7" font-family="Source Sans Pro" font-size="16.00">/CommandBuffer/DependencyStructs</text>
<text text-anchor="middle" x="558.5" y="-504.7" font-family="Source Sans Pro" font-size="16.00">/IEDependencyInfo.cpp</text>
</a>
</g>
</g>
<!-- Node28&#45;&gt;Node29 -->
<g id="edge33" class="edge">
<title>Node28&#45;&gt;Node29</title>
<path fill="none" stroke="midnightblue" d="M558.5,-602.03C558.5,-593.19 558.5,-584.08 558.5,-575.58"/>
<polygon fill="midnightblue" stroke="midnightblue" points="555,-602.25 558.5,-612.25 562,-602.25 555,-602.25"/>
</g>
<!-- Node31&#45;&gt;Node8 -->
<g id="edge40" class="edge">
<title>Node31&#45;&gt;Node8</title>
<path fill="none" stroke="midnightblue" d="M2471.41,-509.46C2366.38,-480.86 2188.43,-433.21 2034.5,-396 1945.8,-374.56 1843.54,-352.23 1774.31,-337.47"/>
<polygon fill="midnightblue" stroke="midnightblue" points="2470.77,-512.92 2481.34,-512.17 2472.61,-506.16 2470.77,-512.92"/>
</g>
<!-- Node31&#45;&gt;Node15 -->
<g id="edge41" class="edge">
<title>Node31&#45;&gt;Node15</title>
<path fill="none" stroke="midnightblue" d="M2562.5,-494.16C2562.5,-428.67 2562.5,-300.7 2562.5,-242.54"/>
<polygon fill="midnightblue" stroke="midnightblue" points="2559,-494.5 2562.5,-504.5 2566,-494.5 2559,-494.5"/>
</g>
<!-- Node32 -->
<g id="node32" class="node">
<title>Node32</title>
<g id="a_node32"><a xlink:href="_i_e_material_8hpp.html" target="_top" xlink:title=" ">
<polygon fill="white" stroke="black" points="2914,-396.5 2914,-458.5 3117,-458.5 3117,-396.5 2914,-396.5"/>
<text text-anchor="start" x="2922" y="-441.7" font-family="Source Sans Pro" font-size="16.00">Illumination&#45;Engine</text>
<text text-anchor="start" x="2922" y="-423.7" font-family="Source Sans Pro" font-size="16.00">/src/GraphicsModule</text>
<text text-anchor="middle" x="3015.5" y="-405.7" font-family="Source Sans Pro" font-size="16.00">/Renderable/IEMaterial.hpp</text>
</a>
</g>
</g>
<!-- Node31&#45;&gt;Node32 -->
<g id="edge42" class="edge">
<title>Node31&#45;&gt;Node32</title>
<path fill="none" stroke="midnightblue" d="M2653.7,-513.16C2729.02,-495.54 2835.85,-470.54 2913.9,-452.27"/>
<polygon fill="midnightblue" stroke="midnightblue" points="2652.69,-509.8 2643.75,-515.49 2654.28,-516.62 2652.69,-509.8"/>
</g>
<!-- Node34 -->
<g id="node34" class="node">
<title>Node34</title>
<g id="a_node34"><a xlink:href="_i_e_renderable_8hpp.html" target="_top" xlink:title=" ">
<polygon fill="white" stroke="black" points="3120,-180.5 3120,-242.5 3347,-242.5 3347,-180.5 3120,-180.5"/>
<text text-anchor="start" x="3128" y="-225.7" font-family="Source Sans Pro" font-size="16.00">Illumination&#45;Engine</text>
<text text-anchor="start" x="3128" y="-207.7" font-family="Source Sans Pro" font-size="16.00">/src/GraphicsModule</text>
<text text-anchor="middle" x="3233.5" y="-189.7" font-family="Source Sans Pro" font-size="16.00">/Renderable/IERenderable.hpp</text>
</a>
</g>
</g>
<!-- Node31&#45;&gt;Node34 -->
<g id="edge52" class="edge">
<title>Node31&#45;&gt;Node34</title>
<path fill="none" stroke="midnightblue" d="M2653.71,-530.32C2792.06,-522.66 3047.26,-502.91 3126.5,-459 3176.47,-431.31 3184.69,-411.94 3208.5,-360 3225.93,-321.99 3231.32,-273.45 3232.93,-242.66"/>
<polygon fill="midnightblue" stroke="midnightblue" points="2653.34,-526.84 2643.55,-530.88 2653.72,-533.83 2653.34,-526.84"/>
</g>
<!-- Node32&#45;&gt;Node18 -->
<g id="edge43" class="edge">
<title>Node32&#45;&gt;Node18</title>
<path fill="none" stroke="midnightblue" d="M2987.27,-387.47C2982.21,-378.79 2977.57,-369.37 2974.5,-360 2961.69,-320.94 2960.21,-273.09 2960.89,-242.69"/>
<polygon fill="midnightblue" stroke="midnightblue" points="2984.43,-389.53 2992.66,-396.21 2990.39,-385.86 2984.43,-389.53"/>
</g>
<!-- Node33 -->
<g id="node33" class="node">
<title>Node33</title>
<g id="a_node33"><a xlink:href="_i_e_mesh_8hpp.html" target="_top" xlink:title=" ">
<polygon fill="white" stroke="black" points="2983,-288.5 2983,-350.5 3168,-350.5 3168,-288.5 2983,-288.5"/>
<text text-anchor="start" x="2991" y="-333.7" font-family="Source Sans Pro" font-size="16.00">Illumination&#45;Engine</text>
<text text-anchor="start" x="2991" y="-315.7" font-family="Source Sans Pro" font-size="16.00">/src/GraphicsModule</text>
<text text-anchor="middle" x="3075.5" y="-297.7" font-family="Source Sans Pro" font-size="16.00">/Renderable/IEMesh.hpp</text>
</a>
</g>
</g>
<!-- Node32&#45;&gt;Node33 -->
<g id="edge44" class="edge">
<title>Node32&#45;&gt;Node33</title>
<path fill="none" stroke="midnightblue" d="M3037.64,-387.38C3044.5,-375.26 3051.96,-362.09 3058.42,-350.67"/>
<polygon fill="midnightblue" stroke="midnightblue" points="3034.41,-385.98 3032.53,-396.41 3040.51,-389.43 3034.41,-385.98"/>
</g>
<!-- Node32&#45;&gt;Node34 -->
<g id="edge51" class="edge">
<title>Node32&#45;&gt;Node34</title>
<path fill="none" stroke="midnightblue" d="M3126.4,-395.33C3145.18,-386.26 3163.19,-374.69 3177.5,-360 3194.17,-342.88 3214.13,-280.56 3225.16,-242.62"/>
<polygon fill="midnightblue" stroke="midnightblue" points="3124.76,-392.23 3117.13,-399.59 3127.68,-398.59 3124.76,-392.23"/>
</g>
<!-- Node33&#45;&gt;Node18 -->
<g id="edge45" class="edge">
<title>Node33&#45;&gt;Node18</title>
<path fill="none" stroke="midnightblue" d="M3036.07,-281.51C3022.53,-268.81 3007.55,-254.76 2994.66,-242.67"/>
<polygon fill="midnightblue" stroke="midnightblue" points="3033.73,-284.12 3043.42,-288.41 3038.52,-279.01 3033.73,-284.12"/>
</g>
<!-- Node33&#45;&gt;Node19 -->
<g id="edge46" class="edge">
<title>Node33&#45;&gt;Node19</title>
<path fill="none" stroke="midnightblue" d="M2974.2,-285.26C2932.57,-271.59 2884.71,-255.89 2844.14,-242.58"/>
<polygon fill="midnightblue" stroke="midnightblue" points="2973.21,-288.62 2983.81,-288.41 2975.4,-281.96 2973.21,-288.62"/>
</g>
<!-- Node33&#45;&gt;Node20 -->
<g id="edge47" class="edge">
<title>Node33&#45;&gt;Node20</title>
<path fill="none" stroke="midnightblue" d="M3080.94,-278.12C3083.24,-249.87 3083.3,-211.69 3072.5,-180 3068.06,-166.97 3060.06,-154.36 3051.79,-143.69"/>
<polygon fill="midnightblue" stroke="midnightblue" points="3077.42,-278.13 3079.96,-288.42 3084.39,-278.79 3077.42,-278.13"/>
</g>
<!-- Node33&#45;&gt;Node34 -->
<g id="edge48" class="edge">
<title>Node33&#45;&gt;Node34</title>
<path fill="none" stroke="midnightblue" d="M3128.8,-282.74C3148.2,-269.73 3169.92,-255.15 3188.53,-242.67"/>
<polygon fill="midnightblue" stroke="midnightblue" points="3126.71,-279.93 3120.35,-288.41 3130.61,-285.74 3126.71,-279.93"/>
</g>
<!-- Node34&#45;&gt;Node12 -->
<g id="edge49" class="edge">
<title>Node34&#45;&gt;Node12</title>
<path fill="none" stroke="midnightblue" d="M3233.5,-170.17C3233.5,-161.29 3233.5,-152.03 3233.5,-143.64"/>
<polygon fill="midnightblue" stroke="midnightblue" points="3230,-170.34 3233.5,-180.34 3237,-170.34 3230,-170.34"/>
</g>
<!-- Node34&#45;&gt;Node20 -->
<g id="edge50" class="edge">
<title>Node34&#45;&gt;Node20</title>
<path fill="none" stroke="midnightblue" d="M3159.11,-176.14C3136.08,-165.5 3110.91,-153.87 3088.56,-143.55"/>
<polygon fill="midnightblue" stroke="midnightblue" points="3157.95,-179.46 3168.49,-180.47 3160.88,-173.1 3157.95,-179.46"/>
</g>
<!-- Node35&#45;&gt;Node8 -->
<g id="edge58" class="edge">
<title>Node35&#45;&gt;Node8</title>
<path fill="none" stroke="midnightblue" d="M1789.76,-735.57C1797.75,-733.23 1805.74,-731 1813.5,-729 1895.88,-707.76 1947.3,-758.57 2001.5,-693 2106.69,-565.75 1868.27,-414.07 1752.26,-350.68"/>
<polygon fill="midnightblue" stroke="midnightblue" points="1788.59,-732.27 1780.01,-738.49 1790.6,-738.98 1788.59,-732.27"/>
</g>
<!-- Node35&#45;&gt;Node16 -->
<g id="edge59" class="edge">
<title>Node35&#45;&gt;Node16</title>
<path fill="none" stroke="midnightblue" d="M1788.97,-735.59C1797.22,-733.2 1805.48,-730.97 1813.5,-729 1998.91,-683.49 2197.5,-727.41 2197.5,-536.5 2197.5,-536.5 2197.5,-536.5 2197.5,-426.5 2197.5,-349.2 2264.09,-280.19 2308.83,-242.56"/>
<polygon fill="midnightblue" stroke="midnightblue" points="1787.89,-732.26 1779.29,-738.45 1789.87,-738.97 1787.89,-732.26"/>
</g>
<!-- Node35&#45;&gt;Node17 -->
<g id="edge60" class="edge">
<title>Node35&#45;&gt;Node17</title>
<path fill="none" stroke="midnightblue" d="M1566.34,-750.46C1497.3,-737.92 1421.27,-718.79 1398.5,-693 1352.09,-640.43 1378.5,-606.62 1378.5,-536.5 1378.5,-536.5 1378.5,-536.5 1378.5,-426.5 1378.5,-335.88 1282.59,-275.52 1209.34,-242.64"/>
<polygon fill="midnightblue" stroke="midnightblue" points="1566.01,-753.96 1576.47,-752.27 1567.23,-747.07 1566.01,-753.96"/>
</g>
<!-- Node35&#45;&gt;Node24 -->
<g id="edge61" class="edge">
<title>Node35&#45;&gt;Node24</title>
<path fill="none" stroke="midnightblue" d="M1692.5,-728.28C1692.5,-659.29 1692.5,-519.92 1692.5,-458.61"/>
<polygon fill="midnightblue" stroke="midnightblue" points="1689,-728.33 1692.5,-738.33 1696,-728.33 1689,-728.33"/>
</g>
<!-- Node36 -->
<g id="node36" class="node">
<title>Node36</title>
<g id="a_node36"><a xlink:href="_i_e_render_pass_begin_info_8hpp.html" target="_top" xlink:title=" ">
<polygon fill="white" stroke="black" points="1720.5,-612.5 1720.5,-692.5 1992.5,-692.5 1992.5,-612.5 1720.5,-612.5"/>
<text text-anchor="start" x="1728.5" y="-675.7" font-family="Source Sans Pro" font-size="16.00">Illumination&#45;Engine</text>
<text text-anchor="start" x="1728.5" y="-657.7" font-family="Source Sans Pro" font-size="16.00">/src/GraphicsModule</text>
<text text-anchor="start" x="1728.5" y="-639.7" font-family="Source Sans Pro" font-size="16.00">/CommandBuffer/DependencyStructs</text>
<text text-anchor="middle" x="1856.5" y="-621.7" font-family="Source Sans Pro" font-size="16.00">/IERenderPassBeginInfo.hpp</text>
</a>
</g>
</g>
<!-- Node35&#45;&gt;Node36 -->
<g id="edge54" class="edge">
<title>Node35&#45;&gt;Node36</title>
<path fill="none" stroke="midnightblue" d="M1744.22,-732.24C1762.19,-719.63 1782.43,-705.44 1800.73,-692.61"/>
<polygon fill="midnightblue" stroke="midnightblue" points="1741.77,-729.68 1735.59,-738.29 1745.79,-735.41 1741.77,-729.68"/>
</g>
<!-- Node37 -->
<g id="node37" class="node">
<title>Node37</title>
<g id="a_node37"><a xlink:href="_i_e_dependent_8cpp.html" target="_top" xlink:title=" ">
<polygon fill="white" stroke="black" points="1407,-621.5 1407,-683.5 1664,-683.5 1664,-621.5 1407,-621.5"/>
<text text-anchor="start" x="1415" y="-666.7" font-family="Source Sans Pro" font-size="16.00">Illumination&#45;Engine</text>
<text text-anchor="start" x="1415" y="-648.7" font-family="Source Sans Pro" font-size="16.00">/src/GraphicsModule</text>
<text text-anchor="middle" x="1535.5" y="-630.7" font-family="Source Sans Pro" font-size="16.00">/CommandBuffer/IEDependent.cpp</text>
</a>
</g>
</g>
<!-- Node35&#45;&gt;Node37 -->
<g id="edge57" class="edge">
<title>Node35&#45;&gt;Node37</title>
<path fill="none" stroke="midnightblue" d="M1642.92,-732.19C1621.53,-716.52 1596.81,-698.41 1576.47,-683.51"/>
<polygon fill="midnightblue" stroke="midnightblue" points="1641.11,-735.2 1651.25,-738.29 1645.25,-729.55 1641.11,-735.2"/>
</g>
<!-- Node36&#45;&gt;Node4 -->
<g id="edge56" class="edge">
<title>Node36&#45;&gt;Node4</title>
<path fill="none" stroke="midnightblue" d="M1710.34,-618.96C1697.9,-616.49 1685.49,-614.14 1673.5,-612 1542.82,-588.72 1393.17,-568.15 1285.27,-554.38"/>
<polygon fill="midnightblue" stroke="midnightblue" points="1709.82,-622.43 1720.31,-620.96 1711.19,-615.56 1709.82,-622.43"/>
</g>
<!-- Node36&#45;&gt;Node25 -->
<g id="edge55" class="edge">
<title>Node36&#45;&gt;Node25</title>
<path fill="none" stroke="midnightblue" d="M1882.14,-603.28C1917.17,-537.41 1979.31,-420.53 2011.65,-359.72"/>
<polygon fill="midnightblue" stroke="midnightblue" points="1878.99,-601.76 1877.38,-612.23 1885.17,-605.04 1878.99,-601.76"/>
</g>
</g>
</svg>
