<?xml version="1.0" encoding="UTF-8" standalone="no"?>
<!DOCTYPE svg PUBLIC "-//W3C//DTD SVG 1.1//EN"
 "http://www.w3.org/Graphics/SVG/1.1/DTD/svg11.dtd">
<!-- Generated by graphviz version 2.43.0 (0)
 -->
<!-- Title: Illumination&#45;Engine/src/GraphicsModule/RenderPass/IEFramebuffer.hpp Pages: 1 -->
<svg width="974pt" height="359pt"
 viewBox="0.00 0.00 973.68 359.00" xmlns="http://www.w3.org/2000/svg" xmlns:xlink="http://www.w3.org/1999/xlink">
<g id="graph0" class="graph" transform="scale(1 1) rotate(0) translate(4 355)">
<title>Illumination&#45;Engine/src/GraphicsModule/RenderPass/IEFramebuffer.hpp</title>
<polygon fill="white" stroke="transparent" points="-4,4 -4,-355 969.68,-355 969.68,4 -4,4"/>
<!-- Node1 -->
<g id="node1" class="node">
<title>Node1</title>
<g id="a_node1"><a xlink:title=" ">
<polygon fill="#bfbfbf" stroke="black" points="626.86,-288.5 626.86,-350.5 858.86,-350.5 858.86,-288.5 626.86,-288.5"/>
<text text-anchor="start" x="634.86" y="-333.7" font-family="Source Sans Pro" font-size="16.00">Illumination&#45;Engine</text>
<text text-anchor="start" x="634.86" y="-315.7" font-family="Source Sans Pro" font-size="16.00">/src/GraphicsModule</text>
<text text-anchor="middle" x="742.86" y="-297.7" font-family="Source Sans Pro" font-size="16.00">/RenderPass/IEFramebuffer.hpp</text>
</a>
</g>
</g>
<!-- Node2 -->
<g id="node2" class="node">
<title>Node2</title>
<g id="a_node2"><a xlink:href="_i_e_image_8hpp.html" target="_top" xlink:title=" ">
<polygon fill="white" stroke="black" points="399.86,-207.5 399.86,-251.5 573.86,-251.5 573.86,-207.5 399.86,-207.5"/>
<text text-anchor="start" x="407.86" y="-234.7" font-family="Source Sans Pro" font-size="16.00">GraphicsModule/Image</text>
<text text-anchor="middle" x="486.86" y="-216.7" font-family="Source Sans Pro" font-size="16.00">/IEImage.hpp</text>
</a>
</g>
</g>
<!-- Node1&#45;&gt;Node2 -->
<g id="edge1" class="edge">
<title>Node1&#45;&gt;Node2</title>
<path fill="none" stroke="midnightblue" d="M655.47,-288.46C623.58,-277.5 587.94,-265.25 557.67,-254.84"/>
<polygon fill="midnightblue" stroke="midnightblue" points="558.63,-251.47 548.04,-251.53 556.36,-258.09 558.63,-251.47"/>
</g>
<!-- Node5 -->
<g id="node5" class="node">
<title>Node5</title>
<g id="a_node5"><a xlink:title=" ">
<polygon fill="white" stroke="#bfbfbf" points="747.36,-0.5 747.36,-26.5 802.36,-26.5 802.36,-0.5 747.36,-0.5"/>
<text text-anchor="middle" x="774.86" y="-9.7" font-family="Source Sans Pro" font-size="16.00">string</text>
</a>
</g>
</g>
<!-- Node1&#45;&gt;Node5 -->
<g id="edge22" class="edge">
<title>Node1&#45;&gt;Node5</title>
<path fill="none" stroke="midnightblue" d="M832.48,-288.44C852.81,-278.9 873.27,-266.86 889.86,-252 948.55,-199.44 950.55,-167.98 961.86,-90 963.58,-78.12 969.2,-72.49 961.86,-63 943.75,-39.6 861.76,-25.41 812.56,-18.86"/>
<polygon fill="midnightblue" stroke="midnightblue" points="812.96,-15.38 802.59,-17.58 812.06,-22.32 812.96,-15.38"/>
</g>
<!-- Node6 -->
<g id="node6" class="node">
<title>Node6</title>
<g id="a_node6"><a xlink:title=" ">
<polygon fill="white" stroke="#bfbfbf" points="315.36,-0.5 315.36,-26.5 374.36,-26.5 374.36,-0.5 315.36,-0.5"/>
<text text-anchor="middle" x="344.86" y="-9.7" font-family="Source Sans Pro" font-size="16.00">vector</text>
</a>
</g>
</g>
<!-- Node1&#45;&gt;Node6 -->
<g id="edge23" class="edge">
<title>Node1&#45;&gt;Node6</title>
<path fill="none" stroke="midnightblue" d="M626.54,-312.33C441.18,-299.78 91.95,-264.1 16.86,-171 -14.65,-131.93 9.17,-92.39 49.86,-63 89.97,-34.02 234.04,-21.3 304.91,-16.7"/>
<polygon fill="midnightblue" stroke="midnightblue" points="305.46,-20.17 315.22,-16.05 305.02,-13.19 305.46,-20.17"/>
</g>
<!-- Node7 -->
<g id="node7" class="node">
<title>Node7</title>
<g id="a_node7"><a xlink:title=" ">
<polygon fill="white" stroke="#bfbfbf" points="807.36,-63.5 807.36,-89.5 932.36,-89.5 932.36,-63.5 807.36,-63.5"/>
<text text-anchor="middle" x="869.86" y="-72.7" font-family="Source Sans Pro" font-size="16.00">vulkan/vulkan.h</text>
</a>
</g>
</g>
<!-- Node1&#45;&gt;Node7 -->
<g id="edge21" class="edge">
<title>Node1&#45;&gt;Node7</title>
<path fill="none" stroke="midnightblue" d="M801.58,-288.28C843.39,-263.16 896.36,-223.12 920.86,-171 929.36,-152.9 928.74,-144.38 920.86,-126 915.83,-114.28 906.42,-104.05 897.03,-96.04"/>
<polygon fill="midnightblue" stroke="midnightblue" points="898.92,-93.07 888.91,-89.6 894.57,-98.56 898.92,-93.07"/>
</g>
<!-- Node3 -->
<g id="node3" class="node">
<title>Node3</title>
<g id="a_node3"><a xlink:href="_i_e_dependency_8hpp.html" target="_top" xlink:title=" ">
<polygon fill="white" stroke="black" points="649.36,-126.5 649.36,-170.5 894.36,-170.5 894.36,-126.5 649.36,-126.5"/>
<text text-anchor="start" x="657.36" y="-153.7" font-family="Source Sans Pro" font-size="16.00">GraphicsModule/CommandBuffer</text>
<text text-anchor="middle" x="771.86" y="-135.7" font-family="Source Sans Pro" font-size="16.00">/IEDependency.hpp</text>
</a>
</g>
</g>
<!-- Node2&#45;&gt;Node3 -->
<g id="edge2" class="edge">
<title>Node2&#45;&gt;Node3</title>
<path fill="none" stroke="midnightblue" d="M562.86,-207.43C600.86,-196.9 647,-184.11 686.25,-173.23"/>
<polygon fill="midnightblue" stroke="midnightblue" points="687.37,-176.55 696.07,-170.51 685.5,-169.81 687.37,-176.55"/>
</g>
<!-- Node2&#45;&gt;Node5 -->
<g id="edge19" class="edge">
<title>Node2&#45;&gt;Node5</title>
<path fill="none" stroke="midnightblue" d="M574.27,-228.12C686,-225.79 870.98,-215.14 920.86,-171 957.48,-138.59 971.22,-102.1 941.86,-63 926.33,-42.33 856.83,-27.61 812.53,-20.13"/>
<polygon fill="midnightblue" stroke="midnightblue" points="812.83,-16.63 802.4,-18.47 811.7,-23.54 812.83,-16.63"/>
</g>
<!-- Node2&#45;&gt;Node6 -->
<g id="edge20" class="edge">
<title>Node2&#45;&gt;Node6</title>
<path fill="none" stroke="midnightblue" d="M399.68,-223.47C275.61,-215.42 60.41,-197.75 36.86,-171 -44.87,-78.17 204.89,-33.35 305.15,-19.42"/>
<polygon fill="midnightblue" stroke="midnightblue" points="305.77,-22.87 315.21,-18.06 304.83,-15.93 305.77,-22.87"/>
</g>
<!-- Node2&#45;&gt;Node7 -->
<g id="edge16" class="edge">
<title>Node2&#45;&gt;Node7</title>
<path fill="none" stroke="midnightblue" d="M574,-229.34C683.43,-228.32 861.96,-219.07 903.86,-171 922.31,-149.83 903.61,-117.83 887.5,-97.3"/>
<polygon fill="midnightblue" stroke="midnightblue" points="890.16,-95.02 881.1,-89.53 884.75,-99.47 890.16,-95.02"/>
</g>
<!-- Node8 -->
<g id="node8" class="node">
<title>Node8</title>
<g id="a_node8"><a xlink:href="_i_e_a_p_i_8hpp.html" target="_top" xlink:title=" ">
<polygon fill="white" stroke="black" points="548.36,-135.5 548.36,-161.5 631.36,-161.5 631.36,-135.5 548.36,-135.5"/>
<text text-anchor="middle" x="589.86" y="-144.7" font-family="Source Sans Pro" font-size="16.00">IEAPI.hpp</text>
</a>
</g>
</g>
<!-- Node2&#45;&gt;Node8 -->
<g id="edge7" class="edge">
<title>Node2&#45;&gt;Node8</title>
<path fill="none" stroke="midnightblue" d="M514.46,-207.33C530.55,-194.99 550.64,-179.58 566.03,-167.77"/>
<polygon fill="midnightblue" stroke="midnightblue" points="568.24,-170.49 574.04,-161.63 563.98,-164.94 568.24,-170.49"/>
</g>
<!-- Node10 -->
<g id="node10" class="node">
<title>Node10</title>
<g id="a_node10"><a xlink:title=" ">
<polygon fill="white" stroke="#bfbfbf" points="3.36,-0.5 3.36,-26.5 66.36,-26.5 66.36,-0.5 3.36,-0.5"/>
<text text-anchor="middle" x="34.86" y="-9.7" font-family="Source Sans Pro" font-size="16.00">cstdint</text>
</a>
</g>
</g>
<!-- Node2&#45;&gt;Node10 -->
<g id="edge17" class="edge">
<title>Node2&#45;&gt;Node10</title>
<path fill="none" stroke="midnightblue" d="M399.82,-223.99C270.93,-216.42 41.77,-199.14 16.86,-171 -16.49,-133.32 7.39,-68.98 23.46,-35.75"/>
<polygon fill="midnightblue" stroke="midnightblue" points="26.75,-37.01 28.13,-26.5 20.5,-33.85 26.75,-37.01"/>
</g>
<!-- Node11 -->
<g id="node11" class="node">
<title>Node11</title>
<g id="a_node11"><a xlink:title=" ">
<polygon fill="white" stroke="#bfbfbf" points="46.36,-135.5 46.36,-161.5 129.36,-161.5 129.36,-135.5 46.36,-135.5"/>
<text text-anchor="middle" x="87.86" y="-144.7" font-family="Source Sans Pro" font-size="16.00">GL/glew.h</text>
</a>
</g>
</g>
<!-- Node2&#45;&gt;Node11 -->
<g id="edge13" class="edge">
<title>Node2&#45;&gt;Node11</title>
<path fill="none" stroke="midnightblue" d="M399.79,-219.87C328.63,-211.45 225.92,-196.16 138.86,-171 133.49,-169.45 127.93,-167.49 122.55,-165.4"/>
<polygon fill="midnightblue" stroke="midnightblue" points="123.69,-162.09 113.11,-161.53 121.04,-168.56 123.69,-162.09"/>
</g>
<!-- Node12 -->
<g id="node12" class="node">
<title>Node12</title>
<g id="a_node12"><a xlink:title=" ">
<polygon fill="white" stroke="#bfbfbf" points="147.86,-126.5 147.86,-170.5 277.86,-170.5 277.86,-126.5 147.86,-126.5"/>
<text text-anchor="start" x="155.86" y="-153.7" font-family="Source Sans Pro" font-size="16.00">../contrib/stb/stb</text>
<text text-anchor="middle" x="212.86" y="-135.7" font-family="Source Sans Pro" font-size="16.00">_image.h</text>
</a>
</g>
</g>
<!-- Node2&#45;&gt;Node12 -->
<g id="edge14" class="edge">
<title>Node2&#45;&gt;Node12</title>
<path fill="none" stroke="midnightblue" d="M413.23,-207.39C377.88,-197.24 334.67,-184.81 287.93,-171.31"/>
<polygon fill="midnightblue" stroke="midnightblue" points="288.8,-167.92 278.22,-168.5 286.86,-174.64 288.8,-167.92"/>
</g>
<!-- Node13 -->
<g id="node13" class="node">
<title>Node13</title>
<g id="a_node13"><a xlink:title=" ">
<polygon fill="white" stroke="#bfbfbf" points="296.36,-135.5 296.36,-161.5 425.36,-161.5 425.36,-135.5 296.36,-135.5"/>
<text text-anchor="middle" x="360.86" y="-144.7" font-family="Source Sans Pro" font-size="16.00">vk_mem_alloc.h</text>
</a>
</g>
</g>
<!-- Node2&#45;&gt;Node13 -->
<g id="edge15" class="edge">
<title>Node2&#45;&gt;Node13</title>
<path fill="none" stroke="midnightblue" d="M453.09,-207.33C432.95,-194.7 407.7,-178.87 388.71,-166.96"/>
<polygon fill="midnightblue" stroke="midnightblue" points="390.53,-163.97 380.2,-161.63 386.81,-169.9 390.53,-163.97"/>
</g>
<!-- Node14 -->
<g id="node14" class="node">
<title>Node14</title>
<g id="a_node14"><a xlink:title=" ">
<polygon fill="white" stroke="#bfbfbf" points="443.86,-135.5 443.86,-161.5 529.86,-161.5 529.86,-135.5 443.86,-135.5"/>
<text text-anchor="middle" x="486.86" y="-144.7" font-family="Source Sans Pro" font-size="16.00">functional</text>
</a>
</g>
</g>
<!-- Node2&#45;&gt;Node14 -->
<g id="edge18" class="edge">
<title>Node2&#45;&gt;Node14</title>
<path fill="none" stroke="midnightblue" d="M486.86,-207.33C486.86,-196.36 486.86,-182.97 486.86,-171.83"/>
<polygon fill="midnightblue" stroke="midnightblue" points="490.36,-171.63 486.86,-161.63 483.36,-171.63 490.36,-171.63"/>
</g>
<!-- Node4 -->
<g id="node4" class="node">
<title>Node4</title>
<g id="a_node4"><a xlink:title=" ">
<polygon fill="white" stroke="#bfbfbf" points="672.86,-63.5 672.86,-89.5 746.86,-89.5 746.86,-63.5 672.86,-63.5"/>
<text text-anchor="middle" x="709.86" y="-72.7" font-family="Source Sans Pro" font-size="16.00">memory</text>
</a>
</g>
</g>
<!-- Node3&#45;&gt;Node4 -->
<g id="edge3" class="edge">
<title>Node3&#45;&gt;Node4</title>
<path fill="none" stroke="midnightblue" d="M753.25,-126.5C744.98,-117.15 735.29,-106.22 727.17,-97.05"/>
<polygon fill="midnightblue" stroke="midnightblue" points="729.76,-94.7 720.51,-89.53 724.52,-99.34 729.76,-94.7"/>
</g>
<!-- Node3&#45;&gt;Node5 -->
<g id="edge4" class="edge">
<title>Node3&#45;&gt;Node5</title>
<path fill="none" stroke="midnightblue" d="M772.33,-126.43C772.88,-102.03 773.78,-62.03 774.35,-37.03"/>
<polygon fill="midnightblue" stroke="midnightblue" points="777.85,-36.79 774.58,-26.71 770.86,-36.63 777.85,-36.79"/>
</g>
<!-- Node3&#45;&gt;Node6 -->
<g id="edge5" class="edge">
<title>Node3&#45;&gt;Node6</title>
<path fill="none" stroke="midnightblue" d="M704.2,-126.43C613.91,-98.3 456.97,-49.42 384.11,-26.73"/>
<polygon fill="midnightblue" stroke="midnightblue" points="384.99,-23.33 374.4,-23.7 382.9,-30.02 384.99,-23.33"/>
</g>
<!-- Node3&#45;&gt;Node7 -->
<g id="edge6" class="edge">
<title>Node3&#45;&gt;Node7</title>
<path fill="none" stroke="midnightblue" d="M801.26,-126.5C815.13,-116.59 831.52,-104.88 844.8,-95.4"/>
<polygon fill="midnightblue" stroke="midnightblue" points="846.91,-98.19 853.01,-89.53 842.84,-92.5 846.91,-98.19"/>
</g>
<!-- Node8&#45;&gt;Node5 -->
<g id="edge12" class="edge">
<title>Node8&#45;&gt;Node5</title>
<path fill="none" stroke="midnightblue" d="M597.86,-135.36C610.17,-117.45 635.37,-83.84 663.86,-63 686.18,-46.66 714.87,-34.31 737.49,-26.16"/>
<polygon fill="midnightblue" stroke="midnightblue" points="738.79,-29.41 747.09,-22.82 736.49,-22.8 738.79,-29.41"/>
</g>
<!-- Node9 -->
<g id="node9" class="node">
<title>Node9</title>
<g id="a_node9"><a xlink:href="_i_e_version_8hpp.html" target="_top" xlink:title=" ">
<polygon fill="white" stroke="black" points="343.86,-63.5 343.86,-89.5 453.86,-89.5 453.86,-63.5 343.86,-63.5"/>
<text text-anchor="middle" x="398.86" y="-72.7" font-family="Source Sans Pro" font-size="16.00">IEVersion.hpp</text>
</a>
</g>
</g>
<!-- Node8&#45;&gt;Node9 -->
<g id="edge8" class="edge">
<title>Node8&#45;&gt;Node9</title>
<path fill="none" stroke="midnightblue" d="M562.2,-135.45C554.67,-132.28 546.48,-128.92 538.86,-126 507.95,-114.15 472.73,-101.95 445.36,-92.76"/>
<polygon fill="midnightblue" stroke="midnightblue" points="446.24,-89.36 435.65,-89.51 444.02,-96 446.24,-89.36"/>
</g>
<!-- Node9&#45;&gt;Node5 -->
<g id="edge10" class="edge">
<title>Node9&#45;&gt;Node5</title>
<path fill="none" stroke="midnightblue" d="M453.93,-66.56C531.38,-54 670.45,-31.44 737.15,-20.62"/>
<polygon fill="midnightblue" stroke="midnightblue" points="737.91,-24.04 747.22,-18.98 736.79,-17.13 737.91,-24.04"/>
</g>
<!-- Node9&#45;&gt;Node6 -->
<g id="edge11" class="edge">
<title>Node9&#45;&gt;Node6</title>
<path fill="none" stroke="midnightblue" d="M388.19,-63.45C380.79,-55.09 370.78,-43.78 362.24,-34.13"/>
<polygon fill="midnightblue" stroke="midnightblue" points="364.75,-31.69 355.5,-26.53 359.51,-36.33 364.75,-31.69"/>
</g>
<!-- Node9&#45;&gt;Node10 -->
<g id="edge9" class="edge">
<title>Node9&#45;&gt;Node10</title>
<path fill="none" stroke="midnightblue" d="M343.57,-66.24C270.33,-53.96 142.72,-32.58 76.85,-21.54"/>
<polygon fill="midnightblue" stroke="midnightblue" points="77.27,-18.06 66.83,-19.86 76.11,-24.96 77.27,-18.06"/>
</g>
</g>
</svg>
