<?xml version="1.0" encoding="UTF-8" standalone="no"?>
<!DOCTYPE svg PUBLIC "-//W3C//DTD SVG 1.1//EN"
 "http://www.w3.org/Graphics/SVG/1.1/DTD/svg11.dtd">
<!-- Generated by graphviz version 2.43.0 (0)
 -->
<!-- Title: Illumination&#45;Engine/src/GraphicsModule/Shader/IEDescriptorSet.hpp Pages: 1 -->
<svg width="730pt" height="215pt"
 viewBox="0.00 0.00 729.50 215.00" xmlns="http://www.w3.org/2000/svg" xmlns:xlink="http://www.w3.org/1999/xlink">
<g id="graph0" class="graph" transform="scale(1 1) rotate(0) translate(4 211)">
<title>Illumination&#45;Engine/src/GraphicsModule/Shader/IEDescriptorSet.hpp</title>
<polygon fill="white" stroke="transparent" points="-4,4 -4,-211 725.5,-211 725.5,4 -4,4"/>
<!-- Node1 -->
<g id="node1" class="node">
<title>Node1</title>
<g id="a_node1"><a xlink:title=" ">
<polygon fill="#bfbfbf" stroke="black" points="307,-144.5 307,-206.5 516,-206.5 516,-144.5 307,-144.5"/>
<text text-anchor="start" x="315" y="-189.7" font-family="Source Sans Pro" font-size="16.00">Illumination&#45;Engine</text>
<text text-anchor="start" x="315" y="-171.7" font-family="Source Sans Pro" font-size="16.00">/src/GraphicsModule</text>
<text text-anchor="middle" x="411.5" y="-153.7" font-family="Source Sans Pro" font-size="16.00">/Shader/IEDescriptorSet.hpp</text>
</a>
</g>
</g>
<!-- Node2 -->
<g id="node2" class="node">
<title>Node2</title>
<g id="a_node2"><a xlink:href="_i_e_dependency_8hpp.html" target="_top" xlink:title=" ">
<polygon fill="white" stroke="black" points="117,-63.5 117,-107.5 362,-107.5 362,-63.5 117,-63.5"/>
<text text-anchor="start" x="125" y="-90.7" font-family="Source Sans Pro" font-size="16.00">GraphicsModule/CommandBuffer</text>
<text text-anchor="middle" x="239.5" y="-72.7" font-family="Source Sans Pro" font-size="16.00">/IEDependency.hpp</text>
</a>
</g>
</g>
<!-- Node1&#45;&gt;Node2 -->
<g id="edge1" class="edge">
<title>Node1&#45;&gt;Node2</title>
<path fill="none" stroke="midnightblue" d="M352.79,-144.46C332.29,-133.97 309.48,-122.3 289.74,-112.2"/>
<polygon fill="midnightblue" stroke="midnightblue" points="291.1,-108.97 280.61,-107.53 287.91,-115.2 291.1,-108.97"/>
</g>
<!-- Node3 -->
<g id="node3" class="node">
<title>Node3</title>
<g id="a_node3"><a xlink:title=" ">
<polygon fill="white" stroke="#bfbfbf" points="0,-0.5 0,-26.5 59,-26.5 59,-0.5 0,-0.5"/>
<text text-anchor="middle" x="29.5" y="-9.7" font-family="Source Sans Pro" font-size="16.00">vector</text>
</a>
</g>
</g>
<!-- Node1&#45;&gt;Node3 -->
<g id="edge11" class="edge">
<title>Node1&#45;&gt;Node3</title>
<path fill="none" stroke="midnightblue" d="M306.69,-171.38C241.64,-165.07 158.86,-148.72 96.5,-108 69.39,-90.29 49.74,-57.5 38.98,-35.84"/>
<polygon fill="midnightblue" stroke="midnightblue" points="42.12,-34.29 34.66,-26.77 35.8,-37.3 42.12,-34.29"/>
</g>
<!-- Node4 -->
<g id="node4" class="node">
<title>Node4</title>
<g id="a_node4"><a xlink:title=" ">
<polygon fill="white" stroke="#bfbfbf" points="77,-0.5 77,-26.5 202,-26.5 202,-0.5 77,-0.5"/>
<text text-anchor="middle" x="139.5" y="-9.7" font-family="Source Sans Pro" font-size="16.00">vulkan/vulkan.h</text>
</a>
</g>
</g>
<!-- Node1&#45;&gt;Node4 -->
<g id="edge6" class="edge">
<title>Node1&#45;&gt;Node4</title>
<path fill="none" stroke="midnightblue" d="M306.98,-165.37C229.53,-156.19 133.31,-138.84 108.5,-108 91.24,-86.55 107.95,-55.1 122.73,-34.71"/>
<polygon fill="midnightblue" stroke="midnightblue" points="125.55,-36.78 128.84,-26.71 119.99,-32.53 125.55,-36.78"/>
</g>
<!-- Node7 -->
<g id="node7" class="node">
<title>Node7</title>
<g id="a_node7"><a xlink:title=" ">
<polygon fill="white" stroke="#bfbfbf" points="380,-72.5 380,-98.5 443,-98.5 443,-72.5 380,-72.5"/>
<text text-anchor="middle" x="411.5" y="-81.7" font-family="Source Sans Pro" font-size="16.00">cstdint</text>
</a>
</g>
</g>
<!-- Node1&#45;&gt;Node7 -->
<g id="edge7" class="edge">
<title>Node1&#45;&gt;Node7</title>
<path fill="none" stroke="midnightblue" d="M411.5,-144.22C411.5,-132.7 411.5,-119.8 411.5,-109.12"/>
<polygon fill="midnightblue" stroke="midnightblue" points="415,-108.94 411.5,-98.94 408,-108.94 415,-108.94"/>
</g>
<!-- Node8 -->
<g id="node8" class="node">
<title>Node8</title>
<g id="a_node8"><a xlink:title=" ">
<polygon fill="white" stroke="#bfbfbf" points="461.5,-72.5 461.5,-98.5 547.5,-98.5 547.5,-72.5 461.5,-72.5"/>
<text text-anchor="middle" x="504.5" y="-81.7" font-family="Source Sans Pro" font-size="16.00">functional</text>
</a>
</g>
</g>
<!-- Node1&#45;&gt;Node8 -->
<g id="edge8" class="edge">
<title>Node1&#45;&gt;Node8</title>
<path fill="none" stroke="midnightblue" d="M443.25,-144.46C456.89,-131.55 472.41,-116.86 484.42,-105.5"/>
<polygon fill="midnightblue" stroke="midnightblue" points="486.9,-107.98 491.75,-98.56 482.08,-102.89 486.9,-107.98"/>
</g>
<!-- Node9 -->
<g id="node9" class="node">
<title>Node9</title>
<g id="a_node9"><a xlink:title=" ">
<polygon fill="white" stroke="#bfbfbf" points="566,-72.5 566,-98.5 639,-98.5 639,-72.5 566,-72.5"/>
<text text-anchor="middle" x="602.5" y="-81.7" font-family="Source Sans Pro" font-size="16.00">optional</text>
</a>
</g>
</g>
<!-- Node1&#45;&gt;Node9 -->
<g id="edge9" class="edge">
<title>Node1&#45;&gt;Node9</title>
<path fill="none" stroke="midnightblue" d="M477.23,-144.48C502.09,-133.09 530.61,-119.99 556.5,-108 560.09,-106.34 563.83,-104.6 567.56,-102.86"/>
<polygon fill="midnightblue" stroke="midnightblue" points="569.14,-105.99 576.73,-98.59 566.18,-99.64 569.14,-105.99"/>
</g>
<!-- Node10 -->
<g id="node10" class="node">
<title>Node10</title>
<g id="a_node10"><a xlink:title=" ">
<polygon fill="white" stroke="#bfbfbf" points="657.5,-72.5 657.5,-98.5 721.5,-98.5 721.5,-72.5 657.5,-72.5"/>
<text text-anchor="middle" x="689.5" y="-81.7" font-family="Source Sans Pro" font-size="16.00">variant</text>
</a>
</g>
</g>
<!-- Node1&#45;&gt;Node10 -->
<g id="edge10" class="edge">
<title>Node1&#45;&gt;Node10</title>
<path fill="none" stroke="midnightblue" d="M516.01,-150.23C557.86,-139.21 606.11,-124.85 648.5,-108 652.18,-106.54 655.95,-104.85 659.66,-103.06"/>
<polygon fill="midnightblue" stroke="midnightblue" points="661.28,-106.17 668.62,-98.53 658.12,-99.92 661.28,-106.17"/>
</g>
<!-- Node2&#45;&gt;Node3 -->
<g id="edge2" class="edge">
<title>Node2&#45;&gt;Node3</title>
<path fill="none" stroke="midnightblue" d="M176.49,-63.5C141.54,-51.85 99.16,-37.72 68.9,-27.63"/>
<polygon fill="midnightblue" stroke="midnightblue" points="69.73,-24.22 59.13,-24.38 67.51,-30.86 69.73,-24.22"/>
</g>
<!-- Node2&#45;&gt;Node4 -->
<g id="edge3" class="edge">
<title>Node2&#45;&gt;Node4</title>
<path fill="none" stroke="midnightblue" d="M209.5,-63.5C195.34,-53.59 178.62,-41.88 165.07,-32.4"/>
<polygon fill="midnightblue" stroke="midnightblue" points="166.89,-29.4 156.69,-26.53 162.87,-35.13 166.89,-29.4"/>
</g>
<!-- Node5 -->
<g id="node5" class="node">
<title>Node5</title>
<g id="a_node5"><a xlink:title=" ">
<polygon fill="white" stroke="#bfbfbf" points="220,-0.5 220,-26.5 275,-26.5 275,-0.5 220,-0.5"/>
<text text-anchor="middle" x="247.5" y="-9.7" font-family="Source Sans Pro" font-size="16.00">string</text>
</a>
</g>
</g>
<!-- Node2&#45;&gt;Node5 -->
<g id="edge4" class="edge">
<title>Node2&#45;&gt;Node5</title>
<path fill="none" stroke="midnightblue" d="M241.9,-63.5C242.87,-55 243.99,-45.19 244.98,-36.59"/>
<polygon fill="midnightblue" stroke="midnightblue" points="248.47,-36.86 246.13,-26.53 241.51,-36.07 248.47,-36.86"/>
</g>
<!-- Node6 -->
<g id="node6" class="node">
<title>Node6</title>
<g id="a_node6"><a xlink:title=" ">
<polygon fill="white" stroke="#bfbfbf" points="293.5,-0.5 293.5,-26.5 367.5,-26.5 367.5,-0.5 293.5,-0.5"/>
<text text-anchor="middle" x="330.5" y="-9.7" font-family="Source Sans Pro" font-size="16.00">memory</text>
</a>
</g>
</g>
<!-- Node2&#45;&gt;Node6 -->
<g id="edge5" class="edge">
<title>Node2&#45;&gt;Node6</title>
<path fill="none" stroke="midnightblue" d="M266.8,-63.5C279.56,-53.68 294.61,-42.11 306.88,-32.67"/>
<polygon fill="midnightblue" stroke="midnightblue" points="309.07,-35.4 314.86,-26.53 304.8,-29.85 309.07,-35.4"/>
</g>
</g>
</svg>
