<?xml version="1.0" encoding="UTF-8" standalone="no"?>
<!DOCTYPE svg PUBLIC "-//W3C//DTD SVG 1.1//EN"
 "http://www.w3.org/Graphics/SVG/1.1/DTD/svg11.dtd">
<!-- Generated by graphviz version 2.43.0 (0)
 -->
<!-- Title: Illumination&#45;Engine/src/GraphicsModule/Renderable/IEMaterial.hpp Pages: 1 -->
<svg width="1845pt" height="404pt"
 viewBox="0.00 0.00 1845.00 404.00" xmlns="http://www.w3.org/2000/svg" xmlns:xlink="http://www.w3.org/1999/xlink">
<g id="graph0" class="graph" transform="scale(1 1) rotate(0) translate(4 400)">
<title>Illumination&#45;Engine/src/GraphicsModule/Renderable/IEMaterial.hpp</title>
<polygon fill="white" stroke="transparent" points="-4,4 -4,-400 1841,-400 1841,4 -4,4"/>
<!-- Node1 -->
<g id="node1" class="node">
<title>Node1</title>
<g id="a_node1"><a xlink:title=" ">
<polygon fill="#bfbfbf" stroke="black" points="1167.5,-333.5 1167.5,-395.5 1370.5,-395.5 1370.5,-333.5 1167.5,-333.5"/>
<text text-anchor="start" x="1175.5" y="-378.7" font-family="Source Sans Pro" font-size="16.00">Illumination&#45;Engine</text>
<text text-anchor="start" x="1175.5" y="-360.7" font-family="Source Sans Pro" font-size="16.00">/src/GraphicsModule</text>
<text text-anchor="middle" x="1269" y="-342.7" font-family="Source Sans Pro" font-size="16.00">/Renderable/IEMaterial.hpp</text>
</a>
</g>
</g>
<!-- Node2 -->
<g id="node2" class="node">
<title>Node2</title>
<g id="a_node2"><a xlink:title=" ">
<polygon fill="white" stroke="#bfbfbf" points="0,-270.5 0,-296.5 76,-296.5 76,-270.5 0,-270.5"/>
<text text-anchor="middle" x="38" y="-279.7" font-family="Source Sans Pro" font-size="16.00">iostream</text>
</a>
</g>
</g>
<!-- Node1&#45;&gt;Node2 -->
<g id="edge1" class="edge">
<title>Node1&#45;&gt;Node2</title>
<path fill="none" stroke="midnightblue" d="M1167.45,-363.89C962.56,-363.33 485.51,-355.21 90,-297 88.73,-296.81 87.45,-296.61 86.16,-296.39"/>
<polygon fill="midnightblue" stroke="midnightblue" points="86.66,-292.93 76.19,-294.5 85.36,-299.8 86.66,-292.93"/>
</g>
<!-- Node3 -->
<g id="node3" class="node">
<title>Node3</title>
<g id="a_node3"><a xlink:title=" ">
<polygon fill="white" stroke="#bfbfbf" points="132,-207.5 132,-233.5 270,-233.5 270,-207.5 132,-207.5"/>
<text text-anchor="middle" x="201" y="-216.7" font-family="Source Sans Pro" font-size="16.00">assimp/material.h</text>
</a>
</g>
</g>
<!-- Node1&#45;&gt;Node3 -->
<g id="edge2" class="edge">
<title>Node1&#45;&gt;Node3</title>
<path fill="none" stroke="midnightblue" d="M1167.17,-350.75C988.32,-328.22 606.15,-279.43 284,-234 282.74,-233.82 281.47,-233.64 280.2,-233.46"/>
<polygon fill="midnightblue" stroke="midnightblue" points="280.67,-229.99 270.28,-232.03 279.68,-236.92 280.67,-229.99"/>
</g>
<!-- Node4 -->
<g id="node4" class="node">
<title>Node4</title>
<g id="a_node4"><a xlink:title=" ">
<polygon fill="white" stroke="#bfbfbf" points="1225,-135.5 1225,-161.5 1325,-161.5 1325,-135.5 1225,-135.5"/>
<text text-anchor="middle" x="1275" y="-144.7" font-family="Source Sans Pro" font-size="16.00">stb_image.h</text>
</a>
</g>
</g>
<!-- Node1&#45;&gt;Node4 -->
<g id="edge3" class="edge">
<title>Node1&#45;&gt;Node4</title>
<path fill="none" stroke="midnightblue" d="M1269.85,-333.29C1271.06,-289.88 1273.28,-210.82 1274.37,-172.1"/>
<polygon fill="midnightblue" stroke="midnightblue" points="1277.87,-171.97 1274.65,-161.88 1270.87,-171.78 1277.87,-171.97"/>
</g>
<!-- Node5 -->
<g id="node5" class="node">
<title>Node5</title>
<g id="a_node5"><a xlink:title=" ">
<polygon fill="white" stroke="#bfbfbf" points="1297.5,-270.5 1297.5,-296.5 1428.5,-296.5 1428.5,-270.5 1297.5,-270.5"/>
<text text-anchor="middle" x="1363" y="-279.7" font-family="Source Sans Pro" font-size="16.00">assimp/texture.h</text>
</a>
</g>
</g>
<!-- Node1&#45;&gt;Node5 -->
<g id="edge4" class="edge">
<title>Node1&#45;&gt;Node5</title>
<path fill="none" stroke="midnightblue" d="M1304.81,-333.41C1316.88,-323.26 1330,-312.24 1340.72,-303.23"/>
<polygon fill="midnightblue" stroke="midnightblue" points="1342.99,-305.89 1348.39,-296.78 1338.48,-300.53 1342.99,-305.89"/>
</g>
<!-- Node6 -->
<g id="node6" class="node">
<title>Node6</title>
<g id="a_node6"><a xlink:title=" ">
<polygon fill="white" stroke="#bfbfbf" points="1447,-270.5 1447,-296.5 1569,-296.5 1569,-270.5 1447,-270.5"/>
<text text-anchor="middle" x="1508" y="-279.7" font-family="Source Sans Pro" font-size="16.00">assimp/scene.h</text>
</a>
</g>
</g>
<!-- Node1&#45;&gt;Node6 -->
<g id="edge5" class="edge">
<title>Node1&#45;&gt;Node6</title>
<path fill="none" stroke="midnightblue" d="M1360.04,-333.41C1394.73,-321.94 1432.82,-309.35 1461.67,-299.82"/>
<polygon fill="midnightblue" stroke="midnightblue" points="1463.07,-303.04 1471.46,-296.58 1460.87,-296.39 1463.07,-303.04"/>
</g>
<!-- Node7 -->
<g id="node7" class="node">
<title>Node7</title>
<g id="a_node7"><a xlink:title=" ">
<polygon fill="white" stroke="#bfbfbf" points="1587,-270.5 1587,-296.5 1715,-296.5 1715,-270.5 1587,-270.5"/>
<text text-anchor="middle" x="1651" y="-279.7" font-family="Source Sans Pro" font-size="16.00">unordered_map</text>
</a>
</g>
</g>
<!-- Node1&#45;&gt;Node7 -->
<g id="edge6" class="edge">
<title>Node1&#45;&gt;Node7</title>
<path fill="none" stroke="midnightblue" d="M1370.62,-342.49C1437.79,-328.59 1524.01,-310.76 1583,-298.56"/>
<polygon fill="midnightblue" stroke="midnightblue" points="1583.87,-301.96 1592.95,-296.51 1582.45,-295.1 1583.87,-301.96"/>
</g>
<!-- Node8 -->
<g id="node8" class="node">
<title>Node8</title>
<g id="a_node8"><a xlink:title=" ">
<polygon fill="white" stroke="#bfbfbf" points="171.5,-0.5 171.5,-26.5 226.5,-26.5 226.5,-0.5 171.5,-0.5"/>
<text text-anchor="middle" x="199" y="-9.7" font-family="Source Sans Pro" font-size="16.00">string</text>
</a>
</g>
</g>
<!-- Node1&#45;&gt;Node8 -->
<g id="edge7" class="edge">
<title>Node1&#45;&gt;Node8</title>
<path fill="none" stroke="midnightblue" d="M1167.4,-361.7C883.75,-355.35 104,-328.18 104,-221.5 104,-221.5 104,-221.5 104,-147.5 104,-99.2 145.99,-56.34 174.14,-33.03"/>
<polygon fill="midnightblue" stroke="midnightblue" points="176.4,-35.7 182.02,-26.71 172.02,-30.24 176.4,-35.7"/>
</g>
<!-- Node9 -->
<g id="node9" class="node">
<title>Node9</title>
<g id="a_node9"><a xlink:href="_i_e_texture_8hpp.html" target="_top" xlink:title=" ">
<polygon fill="white" stroke="black" points="1080.5,-270.5 1080.5,-296.5 1237.5,-296.5 1237.5,-270.5 1080.5,-270.5"/>
<text text-anchor="middle" x="1159" y="-279.7" font-family="Source Sans Pro" font-size="16.00">Image/IETexture.hpp</text>
</a>
</g>
</g>
<!-- Node1&#45;&gt;Node9 -->
<g id="edge8" class="edge">
<title>Node1&#45;&gt;Node9</title>
<path fill="none" stroke="midnightblue" d="M1227.1,-333.41C1212.6,-322.99 1196.8,-311.65 1184.08,-302.51"/>
<polygon fill="midnightblue" stroke="midnightblue" points="1185.98,-299.57 1175.82,-296.58 1181.9,-305.25 1185.98,-299.57"/>
</g>
<!-- Node21 -->
<g id="node21" class="node">
<title>Node21</title>
<g id="a_node21"><a xlink:title=" ">
<polygon fill="white" stroke="#bfbfbf" points="1733,-270.5 1733,-296.5 1837,-296.5 1837,-270.5 1733,-270.5"/>
<text text-anchor="middle" x="1785" y="-279.7" font-family="Source Sans Pro" font-size="16.00">glm/glm.hpp</text>
</a>
</g>
</g>
<!-- Node1&#45;&gt;Node21 -->
<g id="edge34" class="edge">
<title>Node1&#45;&gt;Node21</title>
<path fill="none" stroke="midnightblue" d="M1370.92,-350.3C1460.96,-338.24 1596.03,-319.2 1722.9,-297.13"/>
<polygon fill="midnightblue" stroke="midnightblue" points="1723.55,-300.57 1732.79,-295.4 1722.34,-293.68 1723.55,-300.57"/>
</g>
<!-- Node9&#45;&gt;Node3 -->
<g id="edge29" class="edge">
<title>Node9&#45;&gt;Node3</title>
<path fill="none" stroke="midnightblue" d="M1080.37,-280.62C926.9,-276.41 576.85,-264.1 284,-234 282.74,-233.87 281.46,-233.73 280.18,-233.59"/>
<polygon fill="midnightblue" stroke="midnightblue" points="280.57,-230.12 270.23,-232.42 279.75,-237.07 280.57,-230.12"/>
</g>
<!-- Node9&#45;&gt;Node4 -->
<g id="edge31" class="edge">
<title>Node9&#45;&gt;Node4</title>
<path fill="none" stroke="midnightblue" d="M1173.31,-270.35C1184.13,-260.89 1199.09,-247.2 1211,-234 1229.58,-213.41 1248.47,-187.77 1260.86,-170.17"/>
<polygon fill="midnightblue" stroke="midnightblue" points="1263.87,-171.97 1266.71,-161.77 1258.13,-167.97 1263.87,-171.97"/>
</g>
<!-- Node9&#45;&gt;Node8 -->
<g id="edge33" class="edge">
<title>Node9&#45;&gt;Node8</title>
<path fill="none" stroke="midnightblue" d="M1080.14,-276.41C852.09,-258.43 206.12,-204.73 176,-171 142.37,-133.34 168.91,-69.06 186.54,-35.81"/>
<polygon fill="midnightblue" stroke="midnightblue" points="189.67,-37.38 191.43,-26.93 183.54,-34 189.67,-37.38"/>
</g>
<!-- Node10 -->
<g id="node10" class="node">
<title>Node10</title>
<g id="a_node10"><a xlink:href="_i_e_image_8hpp.html" target="_top" xlink:title=" ">
<polygon fill="white" stroke="black" points="772,-207.5 772,-233.5 874,-233.5 874,-207.5 772,-207.5"/>
<text text-anchor="middle" x="823" y="-216.7" font-family="Source Sans Pro" font-size="16.00">IEImage.hpp</text>
</a>
</g>
</g>
<!-- Node9&#45;&gt;Node10 -->
<g id="edge9" class="edge">
<title>Node9&#45;&gt;Node10</title>
<path fill="none" stroke="midnightblue" d="M1092.62,-270.45C1031.96,-259.44 943,-243.29 884.07,-232.59"/>
<polygon fill="midnightblue" stroke="midnightblue" points="884.62,-229.13 874.16,-230.79 883.37,-236.02 884.62,-229.13"/>
</g>
<!-- Node13 -->
<g id="node13" class="node">
<title>Node13</title>
<g id="a_node13"><a xlink:title=" ">
<polygon fill="white" stroke="#bfbfbf" points="813.5,-63.5 813.5,-89.5 938.5,-89.5 938.5,-63.5 813.5,-63.5"/>
<text text-anchor="middle" x="876" y="-72.7" font-family="Source Sans Pro" font-size="16.00">vulkan/vulkan.h</text>
</a>
</g>
</g>
<!-- Node9&#45;&gt;Node13 -->
<g id="edge30" class="edge">
<title>Node9&#45;&gt;Node13</title>
<path fill="none" stroke="midnightblue" d="M1158.37,-270.11C1156.17,-240.37 1146.27,-164.55 1102,-126 1079.34,-106.27 1005.85,-93.02 948.76,-85.43"/>
<polygon fill="midnightblue" stroke="midnightblue" points="949.03,-81.94 938.66,-84.12 948.13,-88.88 949.03,-81.94"/>
</g>
<!-- Node17 -->
<g id="node17" class="node">
<title>Node17</title>
<g id="a_node17"><a xlink:title=" ">
<polygon fill="white" stroke="#bfbfbf" points="1089.5,-0.5 1089.5,-26.5 1152.5,-26.5 1152.5,-0.5 1089.5,-0.5"/>
<text text-anchor="middle" x="1121" y="-9.7" font-family="Source Sans Pro" font-size="16.00">cstdint</text>
</a>
</g>
</g>
<!-- Node9&#45;&gt;Node17 -->
<g id="edge32" class="edge">
<title>Node9&#45;&gt;Node17</title>
<path fill="none" stroke="midnightblue" d="M1160.62,-270.17C1161.83,-260.38 1163.37,-246.34 1164,-234 1167.93,-157.53 1164.55,-136.48 1143,-63 1140.31,-53.82 1136.19,-44.13 1132.25,-35.85"/>
<polygon fill="midnightblue" stroke="midnightblue" points="1135.38,-34.29 1127.8,-26.89 1129.11,-37.4 1135.38,-34.29"/>
</g>
<!-- Node10&#45;&gt;Node4 -->
<g id="edge24" class="edge">
<title>Node10&#45;&gt;Node4</title>
<path fill="none" stroke="midnightblue" d="M874.41,-211.54C958.52,-198.51 1125.11,-172.71 1214.67,-158.84"/>
<polygon fill="midnightblue" stroke="midnightblue" points="1215.33,-162.28 1224.67,-157.29 1214.26,-155.37 1215.33,-162.28"/>
</g>
<!-- Node10&#45;&gt;Node8 -->
<g id="edge26" class="edge">
<title>Node10&#45;&gt;Node8</title>
<path fill="none" stroke="midnightblue" d="M771.78,-219.41C629.53,-218.63 237.58,-212.7 199,-171 165.2,-134.47 179.77,-70.09 190.79,-36.42"/>
<polygon fill="midnightblue" stroke="midnightblue" points="194.22,-37.24 194.18,-26.64 187.6,-34.94 194.22,-37.24"/>
</g>
<!-- Node11 -->
<g id="node11" class="node">
<title>Node11</title>
<g id="a_node11"><a xlink:href="_i_e_dependency_8hpp.html" target="_top" xlink:title=" ">
<polygon fill="white" stroke="black" points="309.5,-126.5 309.5,-170.5 554.5,-170.5 554.5,-126.5 309.5,-126.5"/>
<text text-anchor="start" x="317.5" y="-153.7" font-family="Source Sans Pro" font-size="16.00">GraphicsModule/CommandBuffer</text>
<text text-anchor="middle" x="432" y="-135.7" font-family="Source Sans Pro" font-size="16.00">/IEDependency.hpp</text>
</a>
</g>
</g>
<!-- Node10&#45;&gt;Node11 -->
<g id="edge10" class="edge">
<title>Node10&#45;&gt;Node11</title>
<path fill="none" stroke="midnightblue" d="M771.88,-210.35C718.21,-200.74 631.72,-185.26 559.43,-172.31"/>
<polygon fill="midnightblue" stroke="midnightblue" points="559.79,-168.82 549.33,-170.5 558.55,-175.71 559.79,-168.82"/>
</g>
<!-- Node12 -->
<g id="node12" class="node">
<title>Node12</title>
<g id="a_node12"><a xlink:title=" ">
<polygon fill="white" stroke="#bfbfbf" points="484.5,-0.5 484.5,-26.5 543.5,-26.5 543.5,-0.5 484.5,-0.5"/>
<text text-anchor="middle" x="514" y="-9.7" font-family="Source Sans Pro" font-size="16.00">vector</text>
</a>
</g>
</g>
<!-- Node10&#45;&gt;Node12 -->
<g id="edge27" class="edge">
<title>Node10&#45;&gt;Node12</title>
<path fill="none" stroke="midnightblue" d="M818.52,-207.26C810.8,-187.68 793.24,-149.16 767,-126 703.44,-69.9 607.16,-38.14 553.56,-23.83"/>
<polygon fill="midnightblue" stroke="midnightblue" points="554.31,-20.41 543.75,-21.28 552.55,-27.18 554.31,-20.41"/>
</g>
<!-- Node10&#45;&gt;Node13 -->
<g id="edge23" class="edge">
<title>Node10&#45;&gt;Node13</title>
<path fill="none" stroke="midnightblue" d="M823.89,-207.22C825.56,-188.88 830.16,-153.54 842,-126 846.28,-116.04 852.8,-106.06 858.99,-97.77"/>
<polygon fill="midnightblue" stroke="midnightblue" points="861.81,-99.84 865.21,-89.81 856.29,-95.53 861.81,-99.84"/>
</g>
<!-- Node15 -->
<g id="node15" class="node">
<title>Node15</title>
<g id="a_node15"><a xlink:href="_i_e_a_p_i_8hpp.html" target="_top" xlink:title=" ">
<polygon fill="white" stroke="black" points="208.5,-135.5 208.5,-161.5 291.5,-161.5 291.5,-135.5 208.5,-135.5"/>
<text text-anchor="middle" x="250" y="-144.7" font-family="Source Sans Pro" font-size="16.00">IEAPI.hpp</text>
</a>
</g>
</g>
<!-- Node10&#45;&gt;Node15 -->
<g id="edge15" class="edge">
<title>Node10&#45;&gt;Node15</title>
<path fill="none" stroke="midnightblue" d="M771.99,-220.02C677.39,-219.83 469.01,-214.03 300,-171 294.51,-169.6 288.84,-167.68 283.39,-165.55"/>
<polygon fill="midnightblue" stroke="midnightblue" points="284.45,-162.2 273.88,-161.57 281.75,-168.66 284.45,-162.2"/>
</g>
<!-- Node10&#45;&gt;Node17 -->
<g id="edge25" class="edge">
<title>Node10&#45;&gt;Node17</title>
<path fill="none" stroke="midnightblue" d="M874.11,-217.7C945.97,-214.03 1071.53,-203.08 1102,-171 1136.38,-134.81 1131.42,-70.75 1125.72,-36.9"/>
<polygon fill="midnightblue" stroke="midnightblue" points="1129.08,-35.86 1123.81,-26.67 1122.2,-37.14 1129.08,-35.86"/>
</g>
<!-- Node18 -->
<g id="node18" class="node">
<title>Node18</title>
<g id="a_node18"><a xlink:title=" ">
<polygon fill="white" stroke="#bfbfbf" points="955,-135.5 955,-161.5 1093,-161.5 1093,-135.5 955,-135.5"/>
<text text-anchor="middle" x="1024" y="-144.7" font-family="Source Sans Pro" font-size="16.00">include/GL/glew.h</text>
</a>
</g>
</g>
<!-- Node10&#45;&gt;Node18 -->
<g id="edge21" class="edge">
<title>Node10&#45;&gt;Node18</title>
<path fill="none" stroke="midnightblue" d="M857.55,-207.47C891.35,-195.7 942.96,-177.72 979.74,-164.91"/>
<polygon fill="midnightblue" stroke="midnightblue" points="980.93,-168.2 989.23,-161.61 978.63,-161.59 980.93,-168.2"/>
</g>
<!-- Node19 -->
<g id="node19" class="node">
<title>Node19</title>
<g id="a_node19"><a xlink:title=" ">
<polygon fill="white" stroke="#bfbfbf" points="572.5,-135.5 572.5,-161.5 757.5,-161.5 757.5,-135.5 572.5,-135.5"/>
<text text-anchor="middle" x="665" y="-144.7" font-family="Source Sans Pro" font-size="16.00">include/vk_mem_alloc.h</text>
</a>
</g>
</g>
<!-- Node10&#45;&gt;Node19 -->
<g id="edge22" class="edge">
<title>Node10&#45;&gt;Node19</title>
<path fill="none" stroke="midnightblue" d="M795.84,-207.47C769.84,-195.95 730.42,-178.49 701.65,-165.74"/>
<polygon fill="midnightblue" stroke="midnightblue" points="702.9,-162.46 692.34,-161.61 700.06,-168.86 702.9,-162.46"/>
</g>
<!-- Node20 -->
<g id="node20" class="node">
<title>Node20</title>
<g id="a_node20"><a xlink:title=" ">
<polygon fill="white" stroke="#bfbfbf" points="851,-135.5 851,-161.5 937,-161.5 937,-135.5 851,-135.5"/>
<text text-anchor="middle" x="894" y="-144.7" font-family="Source Sans Pro" font-size="16.00">functional</text>
</a>
</g>
</g>
<!-- Node10&#45;&gt;Node20 -->
<g id="edge28" class="edge">
<title>Node10&#45;&gt;Node20</title>
<path fill="none" stroke="midnightblue" d="M835.37,-207.31C846.16,-196.67 862,-181.05 874.5,-168.73"/>
<polygon fill="midnightblue" stroke="midnightblue" points="877.11,-171.07 881.77,-161.55 872.2,-166.08 877.11,-171.07"/>
</g>
<!-- Node11&#45;&gt;Node8 -->
<g id="edge13" class="edge">
<title>Node11&#45;&gt;Node8</title>
<path fill="none" stroke="midnightblue" d="M354.24,-126.41C327.93,-117.4 299.12,-105.35 275,-90 251.35,-74.95 229.2,-51.45 214.99,-34.67"/>
<polygon fill="midnightblue" stroke="midnightblue" points="217.38,-32.07 208.31,-26.58 211.98,-36.52 217.38,-32.07"/>
</g>
<!-- Node11&#45;&gt;Node12 -->
<g id="edge11" class="edge">
<title>Node11&#45;&gt;Node12</title>
<path fill="none" stroke="midnightblue" d="M461.95,-126.37C473.84,-116.56 486.64,-103.98 495,-90 504.8,-73.6 509.57,-52.29 511.88,-36.49"/>
<polygon fill="midnightblue" stroke="midnightblue" points="515.35,-36.92 513.11,-26.56 508.41,-36.05 515.35,-36.92"/>
</g>
<!-- Node11&#45;&gt;Node13 -->
<g id="edge12" class="edge">
<title>Node11&#45;&gt;Node13</title>
<path fill="none" stroke="midnightblue" d="M554.6,-127.5C557.77,-126.99 560.9,-126.49 564,-126 645.79,-112.98 739.72,-98.44 802.96,-88.7"/>
<polygon fill="midnightblue" stroke="midnightblue" points="803.88,-92.1 813.23,-87.12 802.82,-85.18 803.88,-92.1"/>
</g>
<!-- Node14 -->
<g id="node14" class="node">
<title>Node14</title>
<g id="a_node14"><a xlink:title=" ">
<polygon fill="white" stroke="#bfbfbf" points="412,-63.5 412,-89.5 486,-89.5 486,-63.5 412,-63.5"/>
<text text-anchor="middle" x="449" y="-72.7" font-family="Source Sans Pro" font-size="16.00">memory</text>
</a>
</g>
</g>
<!-- Node11&#45;&gt;Node14 -->
<g id="edge14" class="edge">
<title>Node11&#45;&gt;Node14</title>
<path fill="none" stroke="midnightblue" d="M437.1,-126.5C439.19,-117.91 441.6,-107.97 443.7,-99.3"/>
<polygon fill="midnightblue" stroke="midnightblue" points="447.12,-100.07 446.08,-89.53 440.32,-98.42 447.12,-100.07"/>
</g>
<!-- Node15&#45;&gt;Node8 -->
<g id="edge20" class="edge">
<title>Node15&#45;&gt;Node8</title>
<path fill="none" stroke="midnightblue" d="M245.29,-135.23C236.64,-112.66 218.1,-64.32 207.29,-36.13"/>
<polygon fill="midnightblue" stroke="midnightblue" points="210.54,-34.83 203.7,-26.74 204.01,-37.33 210.54,-34.83"/>
</g>
<!-- Node16 -->
<g id="node16" class="node">
<title>Node16</title>
<g id="a_node16"><a xlink:href="_i_e_version_8hpp.html" target="_top" xlink:title=" ">
<polygon fill="white" stroke="black" points="284,-63.5 284,-89.5 394,-89.5 394,-63.5 284,-63.5"/>
<text text-anchor="middle" x="339" y="-72.7" font-family="Source Sans Pro" font-size="16.00">IEVersion.hpp</text>
</a>
</g>
</g>
<!-- Node15&#45;&gt;Node16 -->
<g id="edge16" class="edge">
<title>Node15&#45;&gt;Node16</title>
<path fill="none" stroke="midnightblue" d="M265.5,-135.31C279.29,-124.47 299.64,-108.46 315.44,-96.03"/>
<polygon fill="midnightblue" stroke="midnightblue" points="317.98,-98.49 323.68,-89.55 313.65,-92.98 317.98,-98.49"/>
</g>
<!-- Node16&#45;&gt;Node8 -->
<g id="edge18" class="edge">
<title>Node16&#45;&gt;Node8</title>
<path fill="none" stroke="midnightblue" d="M311.34,-63.45C289.77,-54.05 259.6,-40.91 235.96,-30.61"/>
<polygon fill="midnightblue" stroke="midnightblue" points="237.17,-27.31 226.6,-26.53 234.37,-33.73 237.17,-27.31"/>
</g>
<!-- Node16&#45;&gt;Node12 -->
<g id="edge19" class="edge">
<title>Node16&#45;&gt;Node12</title>
<path fill="none" stroke="midnightblue" d="M373.57,-63.45C402.66,-53.31 444.24,-38.82 474.61,-28.23"/>
<polygon fill="midnightblue" stroke="midnightblue" points="476.15,-31.4 484.44,-24.8 473.85,-24.79 476.15,-31.4"/>
</g>
<!-- Node16&#45;&gt;Node17 -->
<g id="edge17" class="edge">
<title>Node16&#45;&gt;Node17</title>
<path fill="none" stroke="midnightblue" d="M394.09,-64.29C397.1,-63.82 400.08,-63.38 403,-63 658.62,-29.54 968.64,-18.51 1079.29,-15.49"/>
<polygon fill="midnightblue" stroke="midnightblue" points="1079.46,-18.99 1089.37,-15.22 1079.28,-11.99 1079.46,-18.99"/>
</g>
</g>
</svg>
