<?xml version="1.0" encoding="UTF-8" standalone="no"?>
<!DOCTYPE svg PUBLIC "-//W3C//DTD SVG 1.1//EN"
 "http://www.w3.org/Graphics/SVG/1.1/DTD/svg11.dtd">
<!-- Generated by graphviz version 2.43.0 (0)
 -->
<!-- Title: Illumination&#45;Engine/src/GraphicsModule/IESettings.hpp Pages: 1 -->
<svg width="841pt" height="197pt"
 viewBox="0.00 0.00 840.50 197.00" xmlns="http://www.w3.org/2000/svg" xmlns:xlink="http://www.w3.org/1999/xlink">
<g id="graph0" class="graph" transform="scale(1 1) rotate(0) translate(4 193)">
<title>Illumination&#45;Engine/src/GraphicsModule/IESettings.hpp</title>
<polygon fill="white" stroke="transparent" points="-4,4 -4,-193 836.5,-193 836.5,4 -4,4"/>
<!-- Node1 -->
<g id="node1" class="node">
<title>Node1</title>
<g id="a_node1"><a xlink:title=" ">
<polygon fill="#bfbfbf" stroke="black" points="401.5,-126.5 401.5,-188.5 558.5,-188.5 558.5,-126.5 401.5,-126.5"/>
<text text-anchor="start" x="409.5" y="-171.7" font-family="Source Sans Pro" font-size="16.00">Illumination&#45;Engine</text>
<text text-anchor="start" x="409.5" y="-153.7" font-family="Source Sans Pro" font-size="16.00">/src/GraphicsModule</text>
<text text-anchor="middle" x="480" y="-135.7" font-family="Source Sans Pro" font-size="16.00">/IESettings.hpp</text>
</a>
</g>
</g>
<!-- Node2 -->
<g id="node2" class="node">
<title>Node2</title>
<g id="a_node2"><a xlink:href="_i_e_logger_8hpp.html" target="_top" xlink:title=" ">
<polygon fill="white" stroke="black" points="107.5,-63.5 107.5,-89.5 330.5,-89.5 330.5,-63.5 107.5,-63.5"/>
<text text-anchor="middle" x="219" y="-72.7" font-family="Source Sans Pro" font-size="16.00">Core/LogModule/IELogger.hpp</text>
</a>
</g>
</g>
<!-- Node1&#45;&gt;Node2 -->
<g id="edge1" class="edge">
<title>Node1&#45;&gt;Node2</title>
<path fill="none" stroke="midnightblue" d="M401.34,-132.69C358.21,-119.64 306.07,-103.85 268.61,-92.51"/>
<polygon fill="midnightblue" stroke="midnightblue" points="269.52,-89.13 258.93,-89.59 267.49,-95.83 269.52,-89.13"/>
</g>
<!-- Node5 -->
<g id="node5" class="node">
<title>Node5</title>
<g id="a_node5"><a xlink:title=" ">
<polygon fill="white" stroke="#bfbfbf" points="375.5,-0.5 375.5,-26.5 430.5,-26.5 430.5,-0.5 375.5,-0.5"/>
<text text-anchor="middle" x="403" y="-9.7" font-family="Source Sans Pro" font-size="16.00">string</text>
</a>
</g>
</g>
<!-- Node1&#45;&gt;Node5 -->
<g id="edge14" class="edge">
<title>Node1&#45;&gt;Node5</title>
<path fill="none" stroke="midnightblue" d="M443.72,-126.46C433.23,-115.98 422.8,-103.44 416,-90 407.64,-73.48 404.53,-52.6 403.43,-36.99"/>
<polygon fill="midnightblue" stroke="midnightblue" points="406.91,-36.51 402.94,-26.69 399.92,-36.84 406.91,-36.51"/>
</g>
<!-- Node6 -->
<g id="node6" class="node">
<title>Node6</title>
<g id="a_node6"><a xlink:title=" ">
<polygon fill="white" stroke="#bfbfbf" points="232.5,-0.5 232.5,-26.5 357.5,-26.5 357.5,-0.5 232.5,-0.5"/>
<text text-anchor="middle" x="295" y="-9.7" font-family="Source Sans Pro" font-size="16.00">vulkan/vulkan.h</text>
</a>
</g>
</g>
<!-- Node1&#45;&gt;Node6 -->
<g id="edge12" class="edge">
<title>Node1&#45;&gt;Node6</title>
<path fill="none" stroke="midnightblue" d="M440.77,-126.39C403.93,-98.11 349.98,-56.7 319.1,-33"/>
<polygon fill="midnightblue" stroke="midnightblue" points="321.1,-30.12 311.03,-26.81 316.84,-35.67 321.1,-30.12"/>
</g>
<!-- Node7 -->
<g id="node7" class="node">
<title>Node7</title>
<g id="a_node7"><a xlink:href="_i_e_version_8hpp.html" target="_top" xlink:title=" ">
<polygon fill="white" stroke="black" points="425,-63.5 425,-89.5 535,-89.5 535,-63.5 425,-63.5"/>
<text text-anchor="middle" x="480" y="-72.7" font-family="Source Sans Pro" font-size="16.00">IEVersion.hpp</text>
</a>
</g>
</g>
<!-- Node1&#45;&gt;Node7 -->
<g id="edge6" class="edge">
<title>Node1&#45;&gt;Node7</title>
<path fill="none" stroke="midnightblue" d="M480,-126.18C480,-117.45 480,-108.08 480,-99.91"/>
<polygon fill="midnightblue" stroke="midnightblue" points="483.5,-99.7 480,-89.7 476.5,-99.7 483.5,-99.7"/>
</g>
<!-- Node10 -->
<g id="node10" class="node">
<title>Node10</title>
<g id="a_node10"><a xlink:title=" ">
<polygon fill="white" stroke="#bfbfbf" points="553.5,-63.5 553.5,-89.5 636.5,-89.5 636.5,-63.5 553.5,-63.5"/>
<text text-anchor="middle" x="595" y="-72.7" font-family="Source Sans Pro" font-size="16.00">GL/glew.h</text>
</a>
</g>
</g>
<!-- Node1&#45;&gt;Node10 -->
<g id="edge10" class="edge">
<title>Node1&#45;&gt;Node10</title>
<path fill="none" stroke="midnightblue" d="M523.8,-126.41C539.11,-115.89 555.8,-104.43 569.16,-95.25"/>
<polygon fill="midnightblue" stroke="midnightblue" points="571.16,-98.12 577.42,-89.58 567.2,-92.35 571.16,-98.12"/>
</g>
<!-- Node11 -->
<g id="node11" class="node">
<title>Node11</title>
<g id="a_node11"><a xlink:title=" ">
<polygon fill="white" stroke="#bfbfbf" points="655,-63.5 655,-89.5 763,-89.5 763,-63.5 655,-63.5"/>
<text text-anchor="middle" x="709" y="-72.7" font-family="Source Sans Pro" font-size="16.00">GLFW/glfw3.h</text>
</a>
</g>
</g>
<!-- Node1&#45;&gt;Node11 -->
<g id="edge11" class="edge">
<title>Node1&#45;&gt;Node11</title>
<path fill="none" stroke="midnightblue" d="M558.81,-129.31C594.03,-117.16 634.26,-103.29 664.21,-92.95"/>
<polygon fill="midnightblue" stroke="midnightblue" points="665.64,-96.16 673.95,-89.59 663.35,-89.54 665.64,-96.16"/>
</g>
<!-- Node12 -->
<g id="node12" class="node">
<title>Node12</title>
<g id="a_node12"><a xlink:title=" ">
<polygon fill="white" stroke="#bfbfbf" points="781.5,-63.5 781.5,-89.5 832.5,-89.5 832.5,-63.5 781.5,-63.5"/>
<text text-anchor="middle" x="807" y="-72.7" font-family="Source Sans Pro" font-size="16.00">array</text>
</a>
</g>
</g>
<!-- Node1&#45;&gt;Node12 -->
<g id="edge13" class="edge">
<title>Node1&#45;&gt;Node12</title>
<path fill="none" stroke="midnightblue" d="M558.73,-141.22C615.45,-129.6 693.87,-112.29 771.2,-90.02"/>
<polygon fill="midnightblue" stroke="midnightblue" points="772.49,-93.29 781.12,-87.13 770.54,-86.56 772.49,-93.29"/>
</g>
<!-- Node3 -->
<g id="node3" class="node">
<title>Node3</title>
<g id="a_node3"><a xlink:title=" ">
<polygon fill="white" stroke="#bfbfbf" points="0,-0.5 0,-26.5 74,-26.5 74,-0.5 0,-0.5"/>
<text text-anchor="middle" x="37" y="-9.7" font-family="Source Sans Pro" font-size="16.00">memory</text>
</a>
</g>
</g>
<!-- Node2&#45;&gt;Node3 -->
<g id="edge2" class="edge">
<title>Node2&#45;&gt;Node3</title>
<path fill="none" stroke="midnightblue" d="M183.04,-63.45C154.25,-53.8 113.69,-40.2 82.61,-29.79"/>
<polygon fill="midnightblue" stroke="midnightblue" points="83.48,-26.39 72.88,-26.53 81.25,-33.02 83.48,-26.39"/>
</g>
<!-- Node4 -->
<g id="node4" class="node">
<title>Node4</title>
<g id="a_node4"><a xlink:title=" ">
<polygon fill="white" stroke="#bfbfbf" points="92,-0.5 92,-26.5 214,-26.5 214,-0.5 92,-0.5"/>
<text text-anchor="middle" x="153" y="-9.7" font-family="Source Sans Pro" font-size="16.00">spdlog/logger.h</text>
</a>
</g>
</g>
<!-- Node2&#45;&gt;Node4 -->
<g id="edge3" class="edge">
<title>Node2&#45;&gt;Node4</title>
<path fill="none" stroke="midnightblue" d="M205.96,-63.45C196.74,-54.93 184.19,-43.33 173.62,-33.56"/>
<polygon fill="midnightblue" stroke="midnightblue" points="175.73,-30.74 166.01,-26.53 170.98,-35.88 175.73,-30.74"/>
</g>
<!-- Node2&#45;&gt;Node5 -->
<g id="edge4" class="edge">
<title>Node2&#45;&gt;Node5</title>
<path fill="none" stroke="midnightblue" d="M255.88,-63.41C283.59,-54.31 322.72,-41.42 365.63,-27.11"/>
<polygon fill="midnightblue" stroke="midnightblue" points="366.75,-30.43 375.13,-23.94 364.53,-23.79 366.75,-30.43"/>
</g>
<!-- Node2&#45;&gt;Node6 -->
<g id="edge5" class="edge">
<title>Node2&#45;&gt;Node6</title>
<path fill="none" stroke="midnightblue" d="M234.02,-63.45C244.84,-54.76 259.65,-42.87 271.97,-32.99"/>
<polygon fill="midnightblue" stroke="midnightblue" points="274.41,-35.52 280.02,-26.53 270.03,-30.06 274.41,-35.52"/>
</g>
<!-- Node7&#45;&gt;Node5 -->
<g id="edge8" class="edge">
<title>Node7&#45;&gt;Node5</title>
<path fill="none" stroke="midnightblue" d="M464.79,-63.45C453.82,-54.76 438.81,-42.87 426.33,-32.99"/>
<polygon fill="midnightblue" stroke="midnightblue" points="428.19,-29.99 418.18,-26.53 423.85,-35.48 428.19,-29.99"/>
</g>
<!-- Node8 -->
<g id="node8" class="node">
<title>Node8</title>
<g id="a_node8"><a xlink:title=" ">
<polygon fill="white" stroke="#bfbfbf" points="448.5,-0.5 448.5,-26.5 511.5,-26.5 511.5,-0.5 448.5,-0.5"/>
<text text-anchor="middle" x="480" y="-9.7" font-family="Source Sans Pro" font-size="16.00">cstdint</text>
</a>
</g>
</g>
<!-- Node7&#45;&gt;Node8 -->
<g id="edge7" class="edge">
<title>Node7&#45;&gt;Node8</title>
<path fill="none" stroke="midnightblue" d="M480,-63.45C480,-55.85 480,-45.79 480,-36.78"/>
<polygon fill="midnightblue" stroke="midnightblue" points="483.5,-36.53 480,-26.53 476.5,-36.53 483.5,-36.53"/>
</g>
<!-- Node9 -->
<g id="node9" class="node">
<title>Node9</title>
<g id="a_node9"><a xlink:title=" ">
<polygon fill="white" stroke="#bfbfbf" points="529.5,-0.5 529.5,-26.5 588.5,-26.5 588.5,-0.5 529.5,-0.5"/>
<text text-anchor="middle" x="559" y="-9.7" font-family="Source Sans Pro" font-size="16.00">vector</text>
</a>
</g>
</g>
<!-- Node7&#45;&gt;Node9 -->
<g id="edge9" class="edge">
<title>Node7&#45;&gt;Node9</title>
<path fill="none" stroke="midnightblue" d="M495.61,-63.45C506.97,-54.68 522.55,-42.64 535.43,-32.7"/>
<polygon fill="midnightblue" stroke="midnightblue" points="537.65,-35.41 543.42,-26.53 533.37,-29.87 537.65,-35.41"/>
</g>
</g>
</svg>
