<?xml version="1.0" encoding="UTF-8" standalone="no"?>
<!DOCTYPE svg PUBLIC "-//W3C//DTD SVG 1.1//EN"
 "http://www.w3.org/Graphics/SVG/1.1/DTD/svg11.dtd">
<!-- Generated by graphviz version 2.43.0 (0)
 -->
<!-- Title: Illumination&#45;Engine/src/GraphicsModule/IESettings.hpp Pages: 1 -->
<svg width="3415pt" height="350pt"
 viewBox="0.00 0.00 3414.50 350.00" xmlns="http://www.w3.org/2000/svg" xmlns:xlink="http://www.w3.org/1999/xlink">
<g id="graph0" class="graph" transform="scale(1 1) rotate(0) translate(4 346)">
<title>Illumination&#45;Engine/src/GraphicsModule/IESettings.hpp</title>
<polygon fill="white" stroke="transparent" points="-4,4 -4,-346 3410.5,-346 3410.5,4 -4,4"/>
<!-- Node1 -->
<g id="node1" class="node">
<title>Node1</title>
<g id="a_node1"><a xlink:title=" ">
<polygon fill="#bfbfbf" stroke="black" points="1688,-279.5 1688,-341.5 1845,-341.5 1845,-279.5 1688,-279.5"/>
<text text-anchor="start" x="1696" y="-324.7" font-family="Source Sans Pro" font-size="16.00">Illumination&#45;Engine</text>
<text text-anchor="start" x="1696" y="-306.7" font-family="Source Sans Pro" font-size="16.00">/src/GraphicsModule</text>
<text text-anchor="middle" x="1766.5" y="-288.7" font-family="Source Sans Pro" font-size="16.00">/IESettings.hpp</text>
</a>
</g>
</g>
<!-- Node2 -->
<g id="node2" class="node">
<title>Node2</title>
<g id="a_node2"><a xlink:href="_i_e_render_engine_8hpp.html" target="_top" xlink:title=" ">
<polygon fill="white" stroke="black" points="1598,-180.5 1598,-242.5 1759,-242.5 1759,-180.5 1598,-180.5"/>
<text text-anchor="start" x="1606" y="-225.7" font-family="Source Sans Pro" font-size="16.00">Illumination&#45;Engine</text>
<text text-anchor="start" x="1606" y="-207.7" font-family="Source Sans Pro" font-size="16.00">/src/GraphicsModule</text>
<text text-anchor="middle" x="1678.5" y="-189.7" font-family="Source Sans Pro" font-size="16.00">/IERenderEngine.hpp</text>
</a>
</g>
</g>
<!-- Node1&#45;&gt;Node2 -->
<g id="edge1" class="edge">
<title>Node1&#45;&gt;Node2</title>
<path fill="none" stroke="midnightblue" d="M1732.26,-271.76C1723.5,-262.11 1714.2,-251.86 1705.84,-242.64"/>
<polygon fill="midnightblue" stroke="midnightblue" points="1729.83,-274.29 1739.14,-279.34 1735.01,-269.58 1729.83,-274.29"/>
</g>
<!-- Node20 -->
<g id="node20" class="node">
<title>Node20</title>
<g id="a_node20"><a xlink:href="_i_e_settings_8cpp.html" target="_top" xlink:title=" ">
<polygon fill="white" stroke="black" points="1777,-180.5 1777,-242.5 1934,-242.5 1934,-180.5 1777,-180.5"/>
<text text-anchor="start" x="1785" y="-225.7" font-family="Source Sans Pro" font-size="16.00">Illumination&#45;Engine</text>
<text text-anchor="start" x="1785" y="-207.7" font-family="Source Sans Pro" font-size="16.00">/src/GraphicsModule</text>
<text text-anchor="middle" x="1855.5" y="-189.7" font-family="Source Sans Pro" font-size="16.00">/IESettings.cpp</text>
</a>
</g>
</g>
<!-- Node1&#45;&gt;Node20 -->
<g id="edge19" class="edge">
<title>Node1&#45;&gt;Node20</title>
<path fill="none" stroke="midnightblue" d="M1801.13,-271.76C1809.98,-262.11 1819.39,-251.86 1827.84,-242.64"/>
<polygon fill="midnightblue" stroke="midnightblue" points="1798.35,-269.61 1794.17,-279.34 1803.51,-274.34 1798.35,-269.61"/>
</g>
<!-- Node3 -->
<g id="node3" class="node">
<title>Node3</title>
<g id="a_node3"><a xlink:href="_i_e_buffer_8cpp.html" target="_top" xlink:title=" ">
<polygon fill="white" stroke="black" points="0,-81.5 0,-143.5 157,-143.5 157,-81.5 0,-81.5"/>
<text text-anchor="start" x="8" y="-126.7" font-family="Source Sans Pro" font-size="16.00">Illumination&#45;Engine</text>
<text text-anchor="start" x="8" y="-108.7" font-family="Source Sans Pro" font-size="16.00">/src/GraphicsModule</text>
<text text-anchor="middle" x="78.5" y="-90.7" font-family="Source Sans Pro" font-size="16.00">/Buffer/IEBuffer.cpp</text>
</a>
</g>
</g>
<!-- Node2&#45;&gt;Node3 -->
<g id="edge2" class="edge">
<title>Node2&#45;&gt;Node3</title>
<path fill="none" stroke="midnightblue" d="M1587.6,-209.94C1304.5,-207.67 441.19,-196.49 166.5,-144 163.48,-143.42 160.43,-142.76 157.36,-142.04"/>
<polygon fill="midnightblue" stroke="midnightblue" points="1587.8,-213.44 1597.83,-210.02 1587.85,-206.44 1587.8,-213.44"/>
</g>
<!-- Node4 -->
<g id="node4" class="node">
<title>Node4</title>
<g id="a_node4"><a xlink:href="_i_e_command_buffer_8cpp.html" target="_top" xlink:title=" ">
<polygon fill="white" stroke="black" points="175,-81.5 175,-143.5 468,-143.5 468,-81.5 175,-81.5"/>
<text text-anchor="start" x="183" y="-126.7" font-family="Source Sans Pro" font-size="16.00">Illumination&#45;Engine</text>
<text text-anchor="start" x="183" y="-108.7" font-family="Source Sans Pro" font-size="16.00">/src/GraphicsModule</text>
<text text-anchor="middle" x="321.5" y="-90.7" font-family="Source Sans Pro" font-size="16.00">/CommandBuffer/IECommandBuffer.cpp</text>
</a>
</g>
</g>
<!-- Node2&#45;&gt;Node4 -->
<g id="edge3" class="edge">
<title>Node2&#45;&gt;Node4</title>
<path fill="none" stroke="midnightblue" d="M1587.47,-209.73C1386.43,-207.1 889.69,-195.46 477.5,-144 474.49,-143.62 471.45,-143.22 468.38,-142.8"/>
<polygon fill="midnightblue" stroke="midnightblue" points="1587.64,-213.23 1597.69,-209.86 1587.73,-206.23 1587.64,-213.23"/>
</g>
<!-- Node5 -->
<g id="node5" class="node">
<title>Node5</title>
<g id="a_node5"><a xlink:href="_i_e_command_pool_8cpp.html" target="_top" xlink:title=" ">
<polygon fill="white" stroke="black" points="486.5,-81.5 486.5,-143.5 770.5,-143.5 770.5,-81.5 486.5,-81.5"/>
<text text-anchor="start" x="494.5" y="-126.7" font-family="Source Sans Pro" font-size="16.00">Illumination&#45;Engine</text>
<text text-anchor="start" x="494.5" y="-108.7" font-family="Source Sans Pro" font-size="16.00">/src/GraphicsModule</text>
<text text-anchor="middle" x="628.5" y="-90.7" font-family="Source Sans Pro" font-size="16.00">/CommandBuffer/IECommandPool.cpp</text>
</a>
</g>
</g>
<!-- Node2&#45;&gt;Node5 -->
<g id="edge4" class="edge">
<title>Node2&#45;&gt;Node5</title>
<path fill="none" stroke="midnightblue" d="M1587.52,-207.5C1424.91,-201.3 1073.96,-184.15 780.5,-144 777.3,-143.56 774.07,-143.1 770.81,-142.61"/>
<polygon fill="midnightblue" stroke="midnightblue" points="1587.83,-211.01 1597.96,-207.89 1588.1,-204.01 1587.83,-211.01"/>
</g>
<!-- Node6 -->
<g id="node6" class="node">
<title>Node6</title>
<g id="a_node6"><a xlink:href="_i_e_a_p_i_8cpp.html" target="_top" xlink:title=" ">
<polygon fill="white" stroke="black" points="789,-81.5 789,-143.5 946,-143.5 946,-81.5 789,-81.5"/>
<text text-anchor="start" x="797" y="-126.7" font-family="Source Sans Pro" font-size="16.00">Illumination&#45;Engine</text>
<text text-anchor="start" x="797" y="-108.7" font-family="Source Sans Pro" font-size="16.00">/src/GraphicsModule</text>
<text text-anchor="middle" x="867.5" y="-90.7" font-family="Source Sans Pro" font-size="16.00">/IEAPI.cpp</text>
</a>
</g>
</g>
<!-- Node2&#45;&gt;Node6 -->
<g id="edge5" class="edge">
<title>Node2&#45;&gt;Node6</title>
<path fill="none" stroke="midnightblue" d="M1587.73,-209.16C1449.68,-205.56 1179.38,-192.34 955.5,-144 952.5,-143.35 949.46,-142.63 946.4,-141.85"/>
<polygon fill="midnightblue" stroke="midnightblue" points="1587.75,-212.67 1597.84,-209.42 1587.93,-205.67 1587.75,-212.67"/>
</g>
<!-- Node7 -->
<g id="node7" class="node">
<title>Node7</title>
<g id="a_node7"><a xlink:href="_i_e_camera_8cpp.html" target="_top" xlink:title=" ">
<polygon fill="white" stroke="black" points="964,-81.5 964,-143.5 1121,-143.5 1121,-81.5 964,-81.5"/>
<text text-anchor="start" x="972" y="-126.7" font-family="Source Sans Pro" font-size="16.00">Illumination&#45;Engine</text>
<text text-anchor="start" x="972" y="-108.7" font-family="Source Sans Pro" font-size="16.00">/src/GraphicsModule</text>
<text text-anchor="middle" x="1042.5" y="-90.7" font-family="Source Sans Pro" font-size="16.00">/IECamera.cpp</text>
</a>
</g>
</g>
<!-- Node2&#45;&gt;Node7 -->
<g id="edge6" class="edge">
<title>Node2&#45;&gt;Node7</title>
<path fill="none" stroke="midnightblue" d="M1587.69,-205.41C1478.14,-197.92 1288.96,-180.63 1130.5,-144 1127.51,-143.31 1124.47,-142.55 1121.42,-141.74"/>
<polygon fill="midnightblue" stroke="midnightblue" points="1587.5,-208.91 1597.71,-206.09 1587.97,-201.92 1587.5,-208.91"/>
</g>
<!-- Node8 -->
<g id="node8" class="node">
<title>Node8</title>
<g id="a_node8"><a xlink:href="_i_e_render_engine_8cpp.html" target="_top" xlink:title=" ">
<polygon fill="white" stroke="black" points="1139,-81.5 1139,-143.5 1298,-143.5 1298,-81.5 1139,-81.5"/>
<text text-anchor="start" x="1147" y="-126.7" font-family="Source Sans Pro" font-size="16.00">Illumination&#45;Engine</text>
<text text-anchor="start" x="1147" y="-108.7" font-family="Source Sans Pro" font-size="16.00">/src/GraphicsModule</text>
<text text-anchor="middle" x="1218.5" y="-90.7" font-family="Source Sans Pro" font-size="16.00">/IERenderEngine.cpp</text>
</a>
</g>
</g>
<!-- Node2&#45;&gt;Node8 -->
<g id="edge7" class="edge">
<title>Node2&#45;&gt;Node8</title>
<path fill="none" stroke="midnightblue" d="M1587.79,-198.2C1512.16,-187 1401.91,-168.49 1307.5,-144 1304.5,-143.22 1301.45,-142.39 1298.38,-141.52"/>
<polygon fill="midnightblue" stroke="midnightblue" points="1587.36,-201.67 1597.76,-199.66 1588.38,-194.75 1587.36,-201.67"/>
</g>
<!-- Node10 -->
<g id="node10" class="node">
<title>Node10</title>
<g id="a_node10"><a xlink:href="_i_e_image_8cpp.html" target="_top" xlink:title=" ">
<polygon fill="white" stroke="black" points="1316,-81.5 1316,-143.5 1473,-143.5 1473,-81.5 1316,-81.5"/>
<text text-anchor="start" x="1324" y="-126.7" font-family="Source Sans Pro" font-size="16.00">Illumination&#45;Engine</text>
<text text-anchor="start" x="1324" y="-108.7" font-family="Source Sans Pro" font-size="16.00">/src/GraphicsModule</text>
<text text-anchor="middle" x="1394.5" y="-90.7" font-family="Source Sans Pro" font-size="16.00">/Image/IEImage.cpp</text>
</a>
</g>
</g>
<!-- Node2&#45;&gt;Node10 -->
<g id="edge9" class="edge">
<title>Node2&#45;&gt;Node10</title>
<path fill="none" stroke="midnightblue" d="M1588.18,-179.99C1554.94,-168.73 1516.99,-155.83 1482.5,-144 1479.44,-142.95 1476.32,-141.88 1473.17,-140.8"/>
<polygon fill="midnightblue" stroke="midnightblue" points="1587.29,-183.39 1597.88,-183.28 1589.53,-176.76 1587.29,-183.39"/>
</g>
<!-- Node11 -->
<g id="node11" class="node">
<title>Node11</title>
<g id="a_node11"><a xlink:href="_i_e_texture_8cpp.html" target="_top" xlink:title=" ">
<polygon fill="white" stroke="black" points="1491,-81.5 1491,-143.5 1652,-143.5 1652,-81.5 1491,-81.5"/>
<text text-anchor="start" x="1499" y="-126.7" font-family="Source Sans Pro" font-size="16.00">Illumination&#45;Engine</text>
<text text-anchor="start" x="1499" y="-108.7" font-family="Source Sans Pro" font-size="16.00">/src/GraphicsModule</text>
<text text-anchor="middle" x="1571.5" y="-90.7" font-family="Source Sans Pro" font-size="16.00">/Image/IETexture.cpp</text>
</a>
</g>
</g>
<!-- Node2&#45;&gt;Node11 -->
<g id="edge10" class="edge">
<title>Node2&#45;&gt;Node11</title>
<path fill="none" stroke="midnightblue" d="M1637.81,-173.62C1626.89,-163.72 1615.21,-153.13 1604.75,-143.64"/>
<polygon fill="midnightblue" stroke="midnightblue" points="1635.47,-176.22 1645.23,-180.34 1640.17,-171.03 1635.47,-176.22"/>
</g>
<!-- Node12 -->
<g id="node12" class="node">
<title>Node12</title>
<g id="a_node12"><a xlink:href="_i_e_framebuffer_8cpp.html" target="_top" xlink:title=" ">
<polygon fill="white" stroke="black" points="1670.5,-81.5 1670.5,-143.5 1900.5,-143.5 1900.5,-81.5 1670.5,-81.5"/>
<text text-anchor="start" x="1678.5" y="-126.7" font-family="Source Sans Pro" font-size="16.00">Illumination&#45;Engine</text>
<text text-anchor="start" x="1678.5" y="-108.7" font-family="Source Sans Pro" font-size="16.00">/src/GraphicsModule</text>
<text text-anchor="middle" x="1785.5" y="-90.7" font-family="Source Sans Pro" font-size="16.00">/RenderPass/IEFramebuffer.cpp</text>
</a>
</g>
</g>
<!-- Node2&#45;&gt;Node12 -->
<g id="edge11" class="edge">
<title>Node2&#45;&gt;Node12</title>
<path fill="none" stroke="midnightblue" d="M1719.19,-173.62C1730.11,-163.72 1741.79,-153.13 1752.25,-143.64"/>
<polygon fill="midnightblue" stroke="midnightblue" points="1716.83,-171.03 1711.77,-180.34 1721.53,-176.22 1716.83,-171.03"/>
</g>
<!-- Node13 -->
<g id="node13" class="node">
<title>Node13</title>
<g id="a_node13"><a xlink:href="_i_e_render_pass_8cpp.html" target="_top" xlink:title=" ">
<polygon fill="white" stroke="black" points="1919,-81.5 1919,-143.5 2146,-143.5 2146,-81.5 1919,-81.5"/>
<text text-anchor="start" x="1927" y="-126.7" font-family="Source Sans Pro" font-size="16.00">Illumination&#45;Engine</text>
<text text-anchor="start" x="1927" y="-108.7" font-family="Source Sans Pro" font-size="16.00">/src/GraphicsModule</text>
<text text-anchor="middle" x="2032.5" y="-90.7" font-family="Source Sans Pro" font-size="16.00">/RenderPass/IERenderPass.cpp</text>
</a>
</g>
</g>
<!-- Node2&#45;&gt;Node13 -->
<g id="edge12" class="edge">
<title>Node2&#45;&gt;Node13</title>
<path fill="none" stroke="midnightblue" d="M1769.3,-179.92C1799.5,-171.55 1861.54,-155.96 1918.67,-141.72"/>
<polygon fill="midnightblue" stroke="midnightblue" points="1768.01,-176.65 1759.36,-182.76 1769.93,-183.38 1768.01,-176.65"/>
</g>
<!-- Node14 -->
<g id="node14" class="node">
<title>Node14</title>
<g id="a_node14"><a xlink:href="_i_e_material_8cpp.html" target="_top" xlink:title=" ">
<polygon fill="white" stroke="black" points="2164,-81.5 2164,-143.5 2365,-143.5 2365,-81.5 2164,-81.5"/>
<text text-anchor="start" x="2172" y="-126.7" font-family="Source Sans Pro" font-size="16.00">Illumination&#45;Engine</text>
<text text-anchor="start" x="2172" y="-108.7" font-family="Source Sans Pro" font-size="16.00">/src/GraphicsModule</text>
<text text-anchor="middle" x="2264.5" y="-90.7" font-family="Source Sans Pro" font-size="16.00">/Renderable/IEMaterial.cpp</text>
</a>
</g>
</g>
<!-- Node2&#45;&gt;Node14 -->
<g id="edge13" class="edge">
<title>Node2&#45;&gt;Node14</title>
<path fill="none" stroke="midnightblue" d="M1768.99,-180.11C1939.29,-145.17 1988.79,-174.82 2155.5,-144 2158.3,-143.48 2161.14,-142.92 2163.99,-142.33"/>
<polygon fill="midnightblue" stroke="midnightblue" points="1768.27,-176.68 1759.2,-182.16 1769.71,-183.53 1768.27,-176.68"/>
</g>
<!-- Node15 -->
<g id="node15" class="node">
<title>Node15</title>
<g id="a_node15"><a xlink:href="_i_e_mesh_8cpp.html" target="_top" xlink:title=" ">
<polygon fill="white" stroke="black" points="2383,-81.5 2383,-143.5 2566,-143.5 2566,-81.5 2383,-81.5"/>
<text text-anchor="start" x="2391" y="-126.7" font-family="Source Sans Pro" font-size="16.00">Illumination&#45;Engine</text>
<text text-anchor="start" x="2391" y="-108.7" font-family="Source Sans Pro" font-size="16.00">/src/GraphicsModule</text>
<text text-anchor="middle" x="2474.5" y="-90.7" font-family="Source Sans Pro" font-size="16.00">/Renderable/IEMesh.cpp</text>
</a>
</g>
</g>
<!-- Node2&#45;&gt;Node15 -->
<g id="edge14" class="edge">
<title>Node2&#45;&gt;Node15</title>
<path fill="none" stroke="midnightblue" d="M1769.13,-180.11C2035.17,-129.77 2112.18,-191.11 2374.5,-144 2377.27,-143.5 2380.07,-142.95 2382.89,-142.36"/>
<polygon fill="midnightblue" stroke="midnightblue" points="1768.33,-176.7 1759.18,-182.03 1769.66,-183.57 1768.33,-176.7"/>
</g>
<!-- Node16 -->
<g id="node16" class="node">
<title>Node16</title>
<g id="a_node16"><a xlink:href="_i_e_renderable_8cpp.html" target="_top" xlink:title=" ">
<polygon fill="white" stroke="black" points="2584,-81.5 2584,-143.5 2809,-143.5 2809,-81.5 2584,-81.5"/>
<text text-anchor="start" x="2592" y="-126.7" font-family="Source Sans Pro" font-size="16.00">Illumination&#45;Engine</text>
<text text-anchor="start" x="2592" y="-108.7" font-family="Source Sans Pro" font-size="16.00">/src/GraphicsModule</text>
<text text-anchor="middle" x="2696.5" y="-90.7" font-family="Source Sans Pro" font-size="16.00">/Renderable/IERenderable.cpp</text>
</a>
</g>
</g>
<!-- Node2&#45;&gt;Node16 -->
<g id="edge15" class="edge">
<title>Node2&#45;&gt;Node16</title>
<path fill="none" stroke="midnightblue" d="M1769.18,-180.11C2123.21,-115.24 2223.58,-195.66 2575.5,-144 2578.29,-143.59 2581.1,-143.14 2583.94,-142.67"/>
<polygon fill="midnightblue" stroke="midnightblue" points="1768.36,-176.7 1759.17,-181.97 1769.64,-183.58 1768.36,-176.7"/>
</g>
<!-- Node17 -->
<g id="node17" class="node">
<title>Node17</title>
<g id="a_node17"><a xlink:href="_i_e_descriptor_set_8cpp.html" target="_top" xlink:title=" ">
<polygon fill="white" stroke="black" points="2827,-81.5 2827,-143.5 3034,-143.5 3034,-81.5 2827,-81.5"/>
<text text-anchor="start" x="2835" y="-126.7" font-family="Source Sans Pro" font-size="16.00">Illumination&#45;Engine</text>
<text text-anchor="start" x="2835" y="-108.7" font-family="Source Sans Pro" font-size="16.00">/src/GraphicsModule</text>
<text text-anchor="middle" x="2930.5" y="-90.7" font-family="Source Sans Pro" font-size="16.00">/Shader/IEDescriptorSet.cpp</text>
</a>
</g>
</g>
<!-- Node2&#45;&gt;Node17 -->
<g id="edge16" class="edge">
<title>Node2&#45;&gt;Node17</title>
<path fill="none" stroke="midnightblue" d="M1769.06,-180.14C2229.7,-97.83 2360.08,-213.32 2818.5,-144 2821.29,-143.58 2824.11,-143.11 2826.95,-142.61"/>
<polygon fill="midnightblue" stroke="midnightblue" points="1768.38,-176.7 1759.16,-181.93 1769.62,-183.59 1768.38,-176.7"/>
</g>
<!-- Node18 -->
<g id="node18" class="node">
<title>Node18</title>
<g id="a_node18"><a xlink:href="_i_e_pipeline_8cpp.html" target="_top" xlink:title=" ">
<polygon fill="white" stroke="black" points="3052.5,-81.5 3052.5,-143.5 3224.5,-143.5 3224.5,-81.5 3052.5,-81.5"/>
<text text-anchor="start" x="3060.5" y="-126.7" font-family="Source Sans Pro" font-size="16.00">Illumination&#45;Engine</text>
<text text-anchor="start" x="3060.5" y="-108.7" font-family="Source Sans Pro" font-size="16.00">/src/GraphicsModule</text>
<text text-anchor="middle" x="3138.5" y="-90.7" font-family="Source Sans Pro" font-size="16.00">/Shader/IEPipeline.cpp</text>
</a>
</g>
</g>
<!-- Node2&#45;&gt;Node18 -->
<g id="edge17" class="edge">
<title>Node2&#45;&gt;Node18</title>
<path fill="none" stroke="midnightblue" d="M1769.08,-180.14C2328.36,-81.78 2488,-239.04 3043.5,-144 3046.4,-143.5 3049.34,-142.94 3052.29,-142.32"/>
<polygon fill="midnightblue" stroke="midnightblue" points="1768.39,-176.71 1759.15,-181.9 1769.61,-183.6 1768.39,-176.71"/>
</g>
<!-- Node19 -->
<g id="node19" class="node">
<title>Node19</title>
<g id="a_node19"><a xlink:href="_i_e_shader_8cpp.html" target="_top" xlink:title=" ">
<polygon fill="white" stroke="black" points="3242.5,-81.5 3242.5,-143.5 3406.5,-143.5 3406.5,-81.5 3242.5,-81.5"/>
<text text-anchor="start" x="3250.5" y="-126.7" font-family="Source Sans Pro" font-size="16.00">Illumination&#45;Engine</text>
<text text-anchor="start" x="3250.5" y="-108.7" font-family="Source Sans Pro" font-size="16.00">/src/GraphicsModule</text>
<text text-anchor="middle" x="3324.5" y="-90.7" font-family="Source Sans Pro" font-size="16.00">/Shader/IEShader.cpp</text>
</a>
</g>
</g>
<!-- Node2&#45;&gt;Node19 -->
<g id="edge18" class="edge">
<title>Node2&#45;&gt;Node19</title>
<path fill="none" stroke="midnightblue" d="M1769.46,-180.12C2105.98,-124.66 2916.05,-199.79 3233.5,-144 3236.45,-143.48 3239.44,-142.88 3242.45,-142.22"/>
<polygon fill="midnightblue" stroke="midnightblue" points="1768.42,-176.75 1759.15,-181.89 1769.6,-183.65 1768.42,-176.75"/>
</g>
<!-- Node9 -->
<g id="node9" class="node">
<title>Node9</title>
<g id="a_node9"><a xlink:href="main_8cpp.html" target="_top" xlink:title=" ">
<polygon fill="white" stroke="black" points="1143.5,-0.5 1143.5,-44.5 1293.5,-44.5 1293.5,-0.5 1143.5,-0.5"/>
<text text-anchor="start" x="1151.5" y="-27.7" font-family="Source Sans Pro" font-size="16.00">Illumination&#45;Engine</text>
<text text-anchor="middle" x="1218.5" y="-9.7" font-family="Source Sans Pro" font-size="16.00">/src/main.cpp</text>
</a>
</g>
</g>
<!-- Node8&#45;&gt;Node9 -->
<g id="edge8" class="edge">
<title>Node8&#45;&gt;Node9</title>
<path fill="none" stroke="midnightblue" d="M1218.5,-71.09C1218.5,-61.97 1218.5,-52.64 1218.5,-44.68"/>
<polygon fill="midnightblue" stroke="midnightblue" points="1215,-71.22 1218.5,-81.22 1222,-71.22 1215,-71.22"/>
</g>
</g>
</svg>
