<?xml version="1.0" encoding="UTF-8" standalone="no"?>
<!DOCTYPE svg PUBLIC "-//W3C//DTD SVG 1.1//EN"
 "http://www.w3.org/Graphics/SVG/1.1/DTD/svg11.dtd">
<!-- Generated by graphviz version 2.43.0 (0)
 -->
<!-- Title: Illumination&#45;Engine/src/GraphicsModule/CommandBuffer/DependencyStructs/IEDependencyInfo.hpp Pages: 1 -->
<svg width="1333pt" height="422pt"
 viewBox="0.00 0.00 1333.12 422.00" xmlns="http://www.w3.org/2000/svg" xmlns:xlink="http://www.w3.org/1999/xlink">
<g id="graph0" class="graph" transform="scale(1 1) rotate(0) translate(4 418)">
<title>Illumination&#45;Engine/src/GraphicsModule/CommandBuffer/DependencyStructs/IEDependencyInfo.hpp</title>
<polygon fill="white" stroke="transparent" points="-4,4 -4,-418 1329.12,-418 1329.12,4 -4,4"/>
<!-- Node1 -->
<g id="node1" class="node">
<title>Node1</title>
<g id="a_node1"><a xlink:title=" ">
<polygon fill="#bfbfbf" stroke="black" points="305.12,-333.5 305.12,-413.5 577.12,-413.5 577.12,-333.5 305.12,-333.5"/>
<text text-anchor="start" x="313.12" y="-396.7" font-family="Source Sans Pro" font-size="16.00">Illumination&#45;Engine</text>
<text text-anchor="start" x="313.12" y="-378.7" font-family="Source Sans Pro" font-size="16.00">/src/GraphicsModule</text>
<text text-anchor="start" x="313.12" y="-360.7" font-family="Source Sans Pro" font-size="16.00">/CommandBuffer/DependencyStructs</text>
<text text-anchor="middle" x="441.12" y="-342.7" font-family="Source Sans Pro" font-size="16.00">/IEDependencyInfo.hpp</text>
</a>
</g>
</g>
<!-- Node2 -->
<g id="node2" class="node">
<title>Node2</title>
<g id="a_node2"><a xlink:title=" ">
<polygon fill="white" stroke="#bfbfbf" points="278.62,-0.5 278.62,-26.5 337.62,-26.5 337.62,-0.5 278.62,-0.5"/>
<text text-anchor="middle" x="308.12" y="-9.7" font-family="Source Sans Pro" font-size="16.00">vector</text>
</a>
</g>
</g>
<!-- Node1&#45;&gt;Node2 -->
<g id="edge1" class="edge">
<title>Node1&#45;&gt;Node2</title>
<path fill="none" stroke="midnightblue" d="M304.91,-352.62C175.36,-329.77 0.12,-286.8 0.12,-221.5 0.12,-221.5 0.12,-221.5 0.12,-147.5 0.12,-107.94 -1.85,-88.82 28.12,-63 63.5,-32.52 199.64,-20.6 268.19,-16.46"/>
<polygon fill="midnightblue" stroke="midnightblue" points="268.41,-19.95 278.19,-15.88 268.01,-12.96 268.41,-19.95"/>
</g>
<!-- Node3 -->
<g id="node3" class="node">
<title>Node3</title>
<g id="a_node3"><a xlink:title=" ">
<polygon fill="white" stroke="#bfbfbf" points="1251.12,-63.5 1251.12,-89.5 1325.12,-89.5 1325.12,-63.5 1251.12,-63.5"/>
<text text-anchor="middle" x="1288.12" y="-72.7" font-family="Source Sans Pro" font-size="16.00">memory</text>
</a>
</g>
</g>
<!-- Node1&#45;&gt;Node3 -->
<g id="edge2" class="edge">
<title>Node1&#45;&gt;Node3</title>
<path fill="none" stroke="midnightblue" d="M577.47,-367.7C790.72,-357.42 1189.53,-326.11 1293.12,-234 1329.49,-201.66 1321.81,-173.47 1311.12,-126 1309.01,-116.59 1304.84,-106.86 1300.63,-98.61"/>
<polygon fill="midnightblue" stroke="midnightblue" points="1303.64,-96.82 1295.79,-89.71 1297.49,-100.17 1303.64,-96.82"/>
</g>
<!-- Node4 -->
<g id="node4" class="node">
<title>Node4</title>
<g id="a_node4"><a xlink:title=" ">
<polygon fill="white" stroke="#bfbfbf" points="36.62,-63.5 36.62,-89.5 161.62,-89.5 161.62,-63.5 36.62,-63.5"/>
<text text-anchor="middle" x="99.12" y="-72.7" font-family="Source Sans Pro" font-size="16.00">vulkan/vulkan.h</text>
</a>
</g>
</g>
<!-- Node1&#45;&gt;Node4 -->
<g id="edge3" class="edge">
<title>Node1&#45;&gt;Node4</title>
<path fill="none" stroke="midnightblue" d="M304.94,-355.57C226.83,-338.37 134.06,-303.74 81.12,-234 52.06,-195.71 64.17,-172.81 75.12,-126 77.34,-116.53 81.68,-106.79 86.08,-98.55"/>
<polygon fill="midnightblue" stroke="midnightblue" points="89.23,-100.09 91.13,-89.66 83.14,-96.62 89.23,-100.09"/>
</g>
<!-- Node5 -->
<g id="node5" class="node">
<title>Node5</title>
<g id="a_node5"><a xlink:href="_i_e_buffer_memory_barrier_8hpp.html" target="_top" xlink:title=" ">
<polygon fill="white" stroke="black" points="586.62,-270.5 586.62,-296.5 789.62,-296.5 789.62,-270.5 586.62,-270.5"/>
<text text-anchor="middle" x="688.12" y="-279.7" font-family="Source Sans Pro" font-size="16.00">IEBufferMemoryBarrier.hpp</text>
</a>
</g>
</g>
<!-- Node1&#45;&gt;Node5 -->
<g id="edge4" class="edge">
<title>Node1&#45;&gt;Node5</title>
<path fill="none" stroke="midnightblue" d="M550.9,-333.39C584.03,-321.59 618.5,-309.31 644.6,-300.01"/>
<polygon fill="midnightblue" stroke="midnightblue" points="645.93,-303.25 654.17,-296.6 643.58,-296.65 645.93,-303.25"/>
</g>
<!-- Node15 -->
<g id="node15" class="node">
<title>Node15</title>
<g id="a_node15"><a xlink:href="_i_e_image_memory_barrier_8hpp.html" target="_top" xlink:title=" ">
<polygon fill="white" stroke="black" points="339.62,-270.5 339.62,-296.5 542.62,-296.5 542.62,-270.5 339.62,-270.5"/>
<text text-anchor="middle" x="441.12" y="-279.7" font-family="Source Sans Pro" font-size="16.00">IEImageMemoryBarrier.hpp</text>
</a>
</g>
</g>
<!-- Node1&#45;&gt;Node15 -->
<g id="edge25" class="edge">
<title>Node1&#45;&gt;Node15</title>
<path fill="none" stroke="midnightblue" d="M441.12,-333.39C441.12,-324.3 441.12,-314.93 441.12,-306.85"/>
<polygon fill="midnightblue" stroke="midnightblue" points="444.62,-306.79 441.12,-296.79 437.62,-306.79 444.62,-306.79"/>
</g>
<!-- Node5&#45;&gt;Node3 -->
<g id="edge6" class="edge">
<title>Node5&#45;&gt;Node3</title>
<path fill="none" stroke="midnightblue" d="M789.82,-280.91C947.51,-277.43 1236.45,-266.63 1270.12,-234 1306.1,-199.14 1299.81,-134.04 1293.32,-99.82"/>
<polygon fill="midnightblue" stroke="midnightblue" points="1296.71,-98.96 1291.25,-89.88 1289.86,-100.38 1296.71,-98.96"/>
</g>
<!-- Node5&#45;&gt;Node4 -->
<g id="edge5" class="edge">
<title>Node5&#45;&gt;Node4</title>
<path fill="none" stroke="midnightblue" d="M586.46,-270.8C520.92,-262.46 434.07,-249.92 358.12,-234 254.39,-212.25 204.31,-244.68 128.12,-171 108.77,-152.29 102.27,-120.94 100.12,-99.75"/>
<polygon fill="midnightblue" stroke="midnightblue" points="103.6,-99.42 99.35,-89.72 96.62,-99.96 103.6,-99.42"/>
</g>
<!-- Node6 -->
<g id="node6" class="node">
<title>Node6</title>
<g id="a_node6"><a xlink:href="_i_e_buffer_8hpp.html" target="_top" xlink:title=" ">
<polygon fill="white" stroke="black" points="664.62,-207.5 664.62,-233.5 811.62,-233.5 811.62,-207.5 664.62,-207.5"/>
<text text-anchor="middle" x="738.12" y="-216.7" font-family="Source Sans Pro" font-size="16.00">Buffer/IEBuffer.hpp</text>
</a>
</g>
</g>
<!-- Node5&#45;&gt;Node6 -->
<g id="edge7" class="edge">
<title>Node5&#45;&gt;Node6</title>
<path fill="none" stroke="midnightblue" d="M698,-270.45C704.78,-262.18 713.94,-251.01 721.79,-241.42"/>
<polygon fill="midnightblue" stroke="midnightblue" points="724.63,-243.48 728.27,-233.53 719.22,-239.04 724.63,-243.48"/>
</g>
<!-- Node6&#45;&gt;Node2 -->
<g id="edge22" class="edge">
<title>Node6&#45;&gt;Node2</title>
<path fill="none" stroke="midnightblue" d="M812.02,-218.47C914.87,-214.48 1082.1,-197.26 1021.12,-126 933,-23.02 484.53,-14.47 347.77,-14.29"/>
<polygon fill="midnightblue" stroke="midnightblue" points="347.73,-10.78 337.73,-14.29 347.73,-17.78 347.73,-10.78"/>
</g>
<!-- Node6&#45;&gt;Node4 -->
<g id="edge21" class="edge">
<title>Node6&#45;&gt;Node4</title>
<path fill="none" stroke="midnightblue" d="M739.78,-207.26C741.77,-186.95 742.33,-146.52 719.12,-126 678.93,-90.45 327.25,-80.86 172.11,-78.36"/>
<polygon fill="midnightblue" stroke="midnightblue" points="171.79,-74.85 161.74,-78.2 171.68,-81.85 171.79,-74.85"/>
</g>
<!-- Node7 -->
<g id="node7" class="node">
<title>Node7</title>
<g id="a_node7"><a xlink:href="_i_e_dependency_8hpp.html" target="_top" xlink:title=" ">
<polygon fill="white" stroke="black" points="766.62,-126.5 766.62,-170.5 1011.62,-170.5 1011.62,-126.5 766.62,-126.5"/>
<text text-anchor="start" x="774.62" y="-153.7" font-family="Source Sans Pro" font-size="16.00">GraphicsModule/CommandBuffer</text>
<text text-anchor="middle" x="889.12" y="-135.7" font-family="Source Sans Pro" font-size="16.00">/IEDependency.hpp</text>
</a>
</g>
</g>
<!-- Node6&#45;&gt;Node7 -->
<g id="edge8" class="edge">
<title>Node6&#45;&gt;Node7</title>
<path fill="none" stroke="midnightblue" d="M764.08,-207.47C783.36,-198.53 810.36,-186.01 834.34,-174.9"/>
<polygon fill="midnightblue" stroke="midnightblue" points="836.1,-177.94 843.7,-170.56 833.15,-171.59 836.1,-177.94"/>
</g>
<!-- Node9 -->
<g id="node9" class="node">
<title>Node9</title>
<g id="a_node9"><a xlink:href="_i_e_a_p_i_8hpp.html" target="_top" xlink:title=" ">
<polygon fill="white" stroke="black" points="1068.62,-135.5 1068.62,-161.5 1151.62,-161.5 1151.62,-135.5 1068.62,-135.5"/>
<text text-anchor="middle" x="1110.12" y="-144.7" font-family="Source Sans Pro" font-size="16.00">IEAPI.hpp</text>
</a>
</g>
</g>
<!-- Node6&#45;&gt;Node9 -->
<g id="edge13" class="edge">
<title>Node6&#45;&gt;Node9</title>
<path fill="none" stroke="midnightblue" d="M811.83,-212.71C876.47,-205.68 972.58,-192.64 1054.12,-171 1060.27,-169.37 1066.66,-167.29 1072.84,-165.08"/>
<polygon fill="midnightblue" stroke="midnightblue" points="1074.18,-168.32 1082.31,-161.53 1071.72,-161.76 1074.18,-168.32"/>
</g>
<!-- Node11 -->
<g id="node11" class="node">
<title>Node11</title>
<g id="a_node11"><a xlink:title=" ">
<polygon fill="white" stroke="#bfbfbf" points="1148.62,-0.5 1148.62,-26.5 1211.62,-26.5 1211.62,-0.5 1148.62,-0.5"/>
<text text-anchor="middle" x="1180.12" y="-9.7" font-family="Source Sans Pro" font-size="16.00">cstdint</text>
</a>
</g>
</g>
<!-- Node6&#45;&gt;Node11 -->
<g id="edge23" class="edge">
<title>Node6&#45;&gt;Node11</title>
<path fill="none" stroke="midnightblue" d="M811.77,-216.96C934.28,-211.97 1169.07,-198.86 1194.12,-171 1227.68,-133.69 1205.78,-69.18 1190.79,-35.84"/>
<polygon fill="midnightblue" stroke="midnightblue" points="1193.85,-34.12 1186.44,-26.55 1187.52,-37.09 1193.85,-34.12"/>
</g>
<!-- Node12 -->
<g id="node12" class="node">
<title>Node12</title>
<g id="a_node12"><a xlink:title=" ">
<polygon fill="white" stroke="#bfbfbf" points="580.62,-135.5 580.62,-161.5 709.62,-161.5 709.62,-135.5 580.62,-135.5"/>
<text text-anchor="middle" x="645.12" y="-144.7" font-family="Source Sans Pro" font-size="16.00">vk_mem_alloc.h</text>
</a>
</g>
</g>
<!-- Node6&#45;&gt;Node12 -->
<g id="edge19" class="edge">
<title>Node6&#45;&gt;Node12</title>
<path fill="none" stroke="midnightblue" d="M721.92,-207.31C707.39,-196.37 685.86,-180.16 669.29,-167.69"/>
<polygon fill="midnightblue" stroke="midnightblue" points="671.23,-164.77 661.14,-161.55 667.02,-170.36 671.23,-164.77"/>
</g>
<!-- Node13 -->
<g id="node13" class="node">
<title>Node13</title>
<g id="a_node13"><a xlink:title=" ">
<polygon fill="white" stroke="#bfbfbf" points="374.62,-135.5 374.62,-161.5 457.62,-161.5 457.62,-135.5 374.62,-135.5"/>
<text text-anchor="middle" x="416.12" y="-144.7" font-family="Source Sans Pro" font-size="16.00">GL/glew.h</text>
</a>
</g>
</g>
<!-- Node6&#45;&gt;Node13 -->
<g id="edge20" class="edge">
<title>Node6&#45;&gt;Node13</title>
<path fill="none" stroke="midnightblue" d="M664.35,-210.8C609.27,-203.23 532.54,-190.38 467.12,-171 461.83,-169.43 456.34,-167.48 451.01,-165.4"/>
<polygon fill="midnightblue" stroke="midnightblue" points="452.24,-162.13 441.66,-161.57 449.59,-168.6 452.24,-162.13"/>
</g>
<!-- Node14 -->
<g id="node14" class="node">
<title>Node14</title>
<g id="a_node14"><a xlink:title=" ">
<polygon fill="white" stroke="#bfbfbf" points="476.12,-135.5 476.12,-161.5 562.12,-161.5 562.12,-135.5 476.12,-135.5"/>
<text text-anchor="middle" x="519.12" y="-144.7" font-family="Source Sans Pro" font-size="16.00">functional</text>
</a>
</g>
</g>
<!-- Node6&#45;&gt;Node14 -->
<g id="edge24" class="edge">
<title>Node6&#45;&gt;Node14</title>
<path fill="none" stroke="midnightblue" d="M692.29,-207.45C658.73,-198.31 612.25,-184.96 572.12,-171 567.15,-169.27 561.97,-167.33 556.87,-165.35"/>
<polygon fill="midnightblue" stroke="midnightblue" points="557.84,-161.97 547.25,-161.53 555.25,-168.48 557.84,-161.97"/>
</g>
<!-- Node7&#45;&gt;Node2 -->
<g id="edge9" class="edge">
<title>Node7&#45;&gt;Node2</title>
<path fill="none" stroke="midnightblue" d="M797.38,-126.5C668.53,-97 439.43,-44.56 347.7,-23.56"/>
<polygon fill="midnightblue" stroke="midnightblue" points="348.25,-20.1 337.72,-21.28 346.69,-26.92 348.25,-20.1"/>
</g>
<!-- Node7&#45;&gt;Node3 -->
<g id="edge12" class="edge">
<title>Node7&#45;&gt;Node3</title>
<path fill="none" stroke="midnightblue" d="M1008.84,-126.5C1086.63,-112.85 1183.81,-95.8 1240.62,-85.83"/>
<polygon fill="midnightblue" stroke="midnightblue" points="1241.5,-89.23 1250.74,-84.06 1240.29,-82.34 1241.5,-89.23"/>
</g>
<!-- Node7&#45;&gt;Node4 -->
<g id="edge10" class="edge">
<title>Node7&#45;&gt;Node4</title>
<path fill="none" stroke="midnightblue" d="M766.33,-127.73C761.54,-127.12 756.79,-126.54 752.12,-126 641.49,-113.23 317.72,-91.6 171.85,-82.15"/>
<polygon fill="midnightblue" stroke="midnightblue" points="171.87,-78.64 161.66,-81.49 171.42,-85.63 171.87,-78.64"/>
</g>
<!-- Node8 -->
<g id="node8" class="node">
<title>Node8</title>
<g id="a_node8"><a xlink:title=" ">
<polygon fill="white" stroke="#bfbfbf" points="935.62,-0.5 935.62,-26.5 990.62,-26.5 990.62,-0.5 935.62,-0.5"/>
<text text-anchor="middle" x="963.12" y="-9.7" font-family="Source Sans Pro" font-size="16.00">string</text>
</a>
</g>
</g>
<!-- Node7&#45;&gt;Node8 -->
<g id="edge11" class="edge">
<title>Node7&#45;&gt;Node8</title>
<path fill="none" stroke="midnightblue" d="M900.85,-126.43C914.66,-101.6 937.49,-60.58 951.33,-35.7"/>
<polygon fill="midnightblue" stroke="midnightblue" points="954.52,-37.15 956.33,-26.71 948.41,-33.75 954.52,-37.15"/>
</g>
<!-- Node9&#45;&gt;Node8 -->
<g id="edge18" class="edge">
<title>Node9&#45;&gt;Node8</title>
<path fill="none" stroke="midnightblue" d="M1091.98,-135.35C1075.9,-124.27 1052.11,-107.07 1033.12,-90 1013.54,-72.39 993.32,-50.05 979.67,-34.25"/>
<polygon fill="midnightblue" stroke="midnightblue" points="982.33,-31.97 973.17,-26.64 977.01,-36.52 982.33,-31.97"/>
</g>
<!-- Node10 -->
<g id="node10" class="node">
<title>Node10</title>
<g id="a_node10"><a xlink:href="_i_e_version_8hpp.html" target="_top" xlink:title=" ">
<polygon fill="white" stroke="black" points="1042.12,-63.5 1042.12,-89.5 1152.12,-89.5 1152.12,-63.5 1042.12,-63.5"/>
<text text-anchor="middle" x="1097.12" y="-72.7" font-family="Source Sans Pro" font-size="16.00">IEVersion.hpp</text>
</a>
</g>
</g>
<!-- Node9&#45;&gt;Node10 -->
<g id="edge14" class="edge">
<title>Node9&#45;&gt;Node10</title>
<path fill="none" stroke="midnightblue" d="M1107.86,-135.31C1106.03,-125.47 1103.41,-111.38 1101.22,-99.57"/>
<polygon fill="midnightblue" stroke="midnightblue" points="1104.63,-98.75 1099.36,-89.55 1097.75,-100.02 1104.63,-98.75"/>
</g>
<!-- Node10&#45;&gt;Node2 -->
<g id="edge17" class="edge">
<title>Node10&#45;&gt;Node2</title>
<path fill="none" stroke="midnightblue" d="M1041.91,-68.57C1025.28,-66.61 1006.98,-64.58 990.12,-63 746.47,-40.12 452.93,-22.63 347.89,-16.7"/>
<polygon fill="midnightblue" stroke="midnightblue" points="347.92,-13.19 337.74,-16.13 347.53,-20.18 347.92,-13.19"/>
</g>
<!-- Node10&#45;&gt;Node8 -->
<g id="edge16" class="edge">
<title>Node10&#45;&gt;Node8</title>
<path fill="none" stroke="midnightblue" d="M1070.65,-63.45C1050.09,-54.09 1021.39,-41.02 998.8,-30.74"/>
<polygon fill="midnightblue" stroke="midnightblue" points="1000.09,-27.48 989.54,-26.53 997.19,-33.86 1000.09,-27.48"/>
</g>
<!-- Node10&#45;&gt;Node11 -->
<g id="edge15" class="edge">
<title>Node10&#45;&gt;Node11</title>
<path fill="none" stroke="midnightblue" d="M1113.52,-63.45C1125.46,-54.68 1141.83,-42.64 1155.36,-32.7"/>
<polygon fill="midnightblue" stroke="midnightblue" points="1157.77,-35.27 1163.76,-26.53 1153.63,-29.63 1157.77,-35.27"/>
</g>
<!-- Node15&#45;&gt;Node3 -->
<g id="edge26" class="edge">
<title>Node15&#45;&gt;Node3</title>
<path fill="none" stroke="midnightblue" d="M542.84,-272.25C739.85,-251.77 1159.2,-204.84 1216.12,-171 1244.83,-153.93 1266.18,-120.68 1277.89,-98.78"/>
<polygon fill="midnightblue" stroke="midnightblue" points="1281.14,-100.12 1282.59,-89.62 1274.91,-96.92 1281.14,-100.12"/>
</g>
<!-- Node15&#45;&gt;Node4 -->
<g id="edge27" class="edge">
<title>Node15&#45;&gt;Node4</title>
<path fill="none" stroke="midnightblue" d="M339.29,-282.15C250.34,-279.42 130.76,-269.07 100.12,-234 67.38,-196.52 80.98,-132.55 91.37,-99.19"/>
<polygon fill="midnightblue" stroke="midnightblue" points="94.76,-100.1 94.57,-89.5 88.11,-97.9 94.76,-100.1"/>
</g>
<!-- Node16 -->
<g id="node16" class="node">
<title>Node16</title>
<g id="a_node16"><a xlink:href="_i_e_image_8hpp.html" target="_top" xlink:title=" ">
<polygon fill="white" stroke="black" points="366.62,-207.5 366.62,-233.5 515.62,-233.5 515.62,-207.5 366.62,-207.5"/>
<text text-anchor="middle" x="441.12" y="-216.7" font-family="Source Sans Pro" font-size="16.00">Image/IEImage.hpp</text>
</a>
</g>
</g>
<!-- Node15&#45;&gt;Node16 -->
<g id="edge28" class="edge">
<title>Node15&#45;&gt;Node16</title>
<path fill="none" stroke="midnightblue" d="M441.12,-270.45C441.12,-262.85 441.12,-252.79 441.12,-243.78"/>
<polygon fill="midnightblue" stroke="midnightblue" points="444.62,-243.53 441.12,-233.53 437.62,-243.53 444.62,-243.53"/>
</g>
<!-- Node16&#45;&gt;Node2 -->
<g id="edge37" class="edge">
<title>Node16&#45;&gt;Node2</title>
<path fill="none" stroke="midnightblue" d="M366.54,-213.95C306.42,-207.74 228.78,-195.19 209.12,-171 171.27,-124.41 241.3,-62.53 281.98,-32.45"/>
<polygon fill="midnightblue" stroke="midnightblue" points="284.11,-35.22 290.16,-26.53 280.01,-29.55 284.11,-35.22"/>
</g>
<!-- Node16&#45;&gt;Node4 -->
<g id="edge33" class="edge">
<title>Node16&#45;&gt;Node4</title>
<path fill="none" stroke="midnightblue" d="M366.39,-219.36C310.51,-216.17 234.08,-205.07 176.12,-171 146.44,-153.55 123.22,-120.16 110.35,-98.37"/>
<polygon fill="midnightblue" stroke="midnightblue" points="113.31,-96.5 105.32,-89.55 107.23,-99.97 113.31,-96.5"/>
</g>
<!-- Node16&#45;&gt;Node7 -->
<g id="edge29" class="edge">
<title>Node16&#45;&gt;Node7</title>
<path fill="none" stroke="midnightblue" d="M515.86,-207.82C581.27,-197.6 677.85,-182.51 756.39,-170.24"/>
<polygon fill="midnightblue" stroke="midnightblue" points="757.02,-173.68 766.36,-168.68 755.94,-166.77 757.02,-173.68"/>
</g>
<!-- Node16&#45;&gt;Node8 -->
<g id="edge36" class="edge">
<title>Node16&#45;&gt;Node8</title>
<path fill="none" stroke="midnightblue" d="M408.81,-207.39C392.91,-199.6 375.24,-187.75 366.12,-171 356.56,-153.43 353.35,-141.39 366.12,-126 438.05,-39.39 805.42,-19.69 925.26,-15.54"/>
<polygon fill="midnightblue" stroke="midnightblue" points="925.54,-19.03 935.42,-15.2 925.31,-12.03 925.54,-19.03"/>
</g>
<!-- Node16&#45;&gt;Node9 -->
<g id="edge30" class="edge">
<title>Node16&#45;&gt;Node9</title>
<path fill="none" stroke="midnightblue" d="M515.89,-214.69C649.89,-205.82 925.86,-186.4 1021.12,-171 1033.26,-169.04 1046.19,-166.3 1058.32,-163.43"/>
<polygon fill="midnightblue" stroke="midnightblue" points="1059.4,-166.77 1068.29,-161.01 1057.74,-159.97 1059.4,-166.77"/>
</g>
<!-- Node16&#45;&gt;Node11 -->
<g id="edge35" class="edge">
<title>Node16&#45;&gt;Node11</title>
<path fill="none" stroke="midnightblue" d="M515.77,-215.09C698.78,-204.2 1155.31,-176.51 1161.12,-171 1197.51,-136.51 1191.55,-71.25 1185.22,-36.92"/>
<polygon fill="midnightblue" stroke="midnightblue" points="1188.61,-36.04 1183.2,-26.93 1181.75,-37.43 1188.61,-36.04"/>
</g>
<!-- Node16&#45;&gt;Node12 -->
<g id="edge32" class="edge">
<title>Node16&#45;&gt;Node12</title>
<path fill="none" stroke="midnightblue" d="M476.19,-207.47C510.49,-195.7 562.87,-177.72 600.21,-164.91"/>
<polygon fill="midnightblue" stroke="midnightblue" points="601.51,-168.17 609.83,-161.61 599.23,-161.55 601.51,-168.17"/>
</g>
<!-- Node16&#45;&gt;Node13 -->
<g id="edge31" class="edge">
<title>Node16&#45;&gt;Node13</title>
<path fill="none" stroke="midnightblue" d="M436.77,-207.31C433.22,-197.37 428.12,-183.09 423.88,-171.21"/>
<polygon fill="midnightblue" stroke="midnightblue" points="427.09,-169.79 420.43,-161.55 420.5,-172.15 427.09,-169.79"/>
</g>
<!-- Node16&#45;&gt;Node14 -->
<g id="edge38" class="edge">
<title>Node16&#45;&gt;Node14</title>
<path fill="none" stroke="midnightblue" d="M454.71,-207.31C466.68,-196.57 484.3,-180.75 498.09,-168.38"/>
<polygon fill="midnightblue" stroke="midnightblue" points="500.59,-170.84 505.69,-161.55 495.91,-165.63 500.59,-170.84"/>
</g>
<!-- Node17 -->
<g id="node17" class="node">
<title>Node17</title>
<g id="a_node17"><a xlink:title=" ">
<polygon fill="white" stroke="#bfbfbf" points="218.12,-135.5 218.12,-161.5 318.12,-161.5 318.12,-135.5 218.12,-135.5"/>
<text text-anchor="middle" x="268.12" y="-144.7" font-family="Source Sans Pro" font-size="16.00">stb_image.h</text>
</a>
</g>
</g>
<!-- Node16&#45;&gt;Node17 -->
<g id="edge34" class="edge">
<title>Node16&#45;&gt;Node17</title>
<path fill="none" stroke="midnightblue" d="M411.38,-207.47C382.67,-195.85 339.01,-178.18 307.43,-165.41"/>
<polygon fill="midnightblue" stroke="midnightblue" points="308.64,-162.12 298.05,-161.61 306.01,-168.61 308.64,-162.12"/>
</g>
</g>
</svg>
