<?xml version="1.0" encoding="UTF-8" standalone="no"?>
<!DOCTYPE svg PUBLIC "-//W3C//DTD SVG 1.1//EN"
 "http://www.w3.org/Graphics/SVG/1.1/DTD/svg11.dtd">
<!-- Generated by graphviz version 2.43.0 (0)
 -->
<!-- Title: Illumination&#45;Engine/src/GraphicsModule/CommandBuffer/IEDependency.hpp Pages: 1 -->
<svg width="376pt" height="134pt"
 viewBox="0.00 0.00 375.50 134.00" xmlns="http://www.w3.org/2000/svg" xmlns:xlink="http://www.w3.org/1999/xlink">
<g id="graph0" class="graph" transform="scale(1 1) rotate(0) translate(4 130)">
<title>Illumination&#45;Engine/src/GraphicsModule/CommandBuffer/IEDependency.hpp</title>
<polygon fill="white" stroke="transparent" points="-4,4 -4,-130 371.5,-130 371.5,4 -4,4"/>
<!-- Node1 -->
<g id="node1" class="node">
<title>Node1</title>
<g id="a_node1"><a xlink:title=" ">
<polygon fill="#bfbfbf" stroke="black" points="23,-63.5 23,-125.5 291,-125.5 291,-63.5 23,-63.5"/>
<text text-anchor="start" x="31" y="-108.7" font-family="Source Sans Pro" font-size="16.00">Illumination&#45;Engine</text>
<text text-anchor="start" x="31" y="-90.7" font-family="Source Sans Pro" font-size="16.00">/src/GraphicsModule</text>
<text text-anchor="middle" x="157" y="-72.7" font-family="Source Sans Pro" font-size="16.00">/CommandBuffer/IEDependency.hpp</text>
</a>
</g>
</g>
<!-- Node2 -->
<g id="node2" class="node">
<title>Node2</title>
<g id="a_node2"><a xlink:title=" ">
<polygon fill="white" stroke="#bfbfbf" points="0,-0.5 0,-26.5 74,-26.5 74,-0.5 0,-0.5"/>
<text text-anchor="middle" x="37" y="-9.7" font-family="Source Sans Pro" font-size="16.00">memory</text>
</a>
</g>
</g>
<!-- Node1&#45;&gt;Node2 -->
<g id="edge1" class="edge">
<title>Node1&#45;&gt;Node2</title>
<path fill="none" stroke="midnightblue" d="M111.29,-63.41C95.32,-52.89 77.91,-41.43 63.96,-32.25"/>
<polygon fill="midnightblue" stroke="midnightblue" points="65.62,-29.15 55.34,-26.58 61.77,-35 65.62,-29.15"/>
</g>
<!-- Node3 -->
<g id="node3" class="node">
<title>Node3</title>
<g id="a_node3"><a xlink:title=" ">
<polygon fill="white" stroke="#bfbfbf" points="92.5,-0.5 92.5,-26.5 147.5,-26.5 147.5,-0.5 92.5,-0.5"/>
<text text-anchor="middle" x="120" y="-9.7" font-family="Source Sans Pro" font-size="16.00">string</text>
</a>
</g>
</g>
<!-- Node1&#45;&gt;Node3 -->
<g id="edge2" class="edge">
<title>Node1&#45;&gt;Node3</title>
<path fill="none" stroke="midnightblue" d="M142.8,-63.18C138.52,-54.05 133.92,-44.22 129.98,-35.81"/>
<polygon fill="midnightblue" stroke="midnightblue" points="133.13,-34.27 125.72,-26.7 126.79,-37.24 133.13,-34.27"/>
</g>
<!-- Node4 -->
<g id="node4" class="node">
<title>Node4</title>
<g id="a_node4"><a xlink:title=" ">
<polygon fill="white" stroke="#bfbfbf" points="165.5,-0.5 165.5,-26.5 224.5,-26.5 224.5,-0.5 165.5,-0.5"/>
<text text-anchor="middle" x="195" y="-9.7" font-family="Source Sans Pro" font-size="16.00">vector</text>
</a>
</g>
</g>
<!-- Node1&#45;&gt;Node4 -->
<g id="edge3" class="edge">
<title>Node1&#45;&gt;Node4</title>
<path fill="none" stroke="midnightblue" d="M171.58,-63.18C175.98,-54.05 180.7,-44.22 184.75,-35.81"/>
<polygon fill="midnightblue" stroke="midnightblue" points="187.95,-37.23 189.13,-26.7 181.64,-34.2 187.95,-37.23"/>
</g>
<!-- Node5 -->
<g id="node5" class="node">
<title>Node5</title>
<g id="a_node5"><a xlink:title=" ">
<polygon fill="white" stroke="#bfbfbf" points="242.5,-0.5 242.5,-26.5 367.5,-26.5 367.5,-0.5 242.5,-0.5"/>
<text text-anchor="middle" x="305" y="-9.7" font-family="Source Sans Pro" font-size="16.00">vulkan/vulkan.h</text>
</a>
</g>
</g>
<!-- Node1&#45;&gt;Node5 -->
<g id="edge4" class="edge">
<title>Node1&#45;&gt;Node5</title>
<path fill="none" stroke="midnightblue" d="M213.37,-63.41C233.64,-52.59 255.77,-40.78 273.21,-31.47"/>
<polygon fill="midnightblue" stroke="midnightblue" points="275.2,-34.37 282.37,-26.58 271.9,-28.2 275.2,-34.37"/>
</g>
</g>
</svg>
