<?xml version="1.0" encoding="UTF-8" standalone="no"?>
<!DOCTYPE svg PUBLIC "-//W3C//DTD SVG 1.1//EN"
 "http://www.w3.org/Graphics/SVG/1.1/DTD/svg11.dtd">
<!-- Generated by graphviz version 2.43.0 (0)
 -->
<!-- Title: Illumination&#45;Engine/src/GraphicsModule/CommandBuffer/DependencyStructs/IEImageMemoryBarrier.hpp Pages: 1 -->
<svg width="1125pt" height="359pt"
 viewBox="0.00 0.00 1124.82 359.00" xmlns="http://www.w3.org/2000/svg" xmlns:xlink="http://www.w3.org/1999/xlink">
<g id="graph0" class="graph" transform="scale(1 1) rotate(0) translate(4 355)">
<title>Illumination&#45;Engine/src/GraphicsModule/CommandBuffer/DependencyStructs/IEImageMemoryBarrier.hpp</title>
<polygon fill="white" stroke="transparent" points="-4,4 -4,-355 1120.82,-355 1120.82,4 -4,4"/>
<!-- Node1 -->
<g id="node1" class="node">
<title>Node1</title>
<g id="a_node1"><a xlink:title=" ">
<polygon fill="#bfbfbf" stroke="black" points="455.95,-270.5 455.95,-350.5 727.95,-350.5 727.95,-270.5 455.95,-270.5"/>
<text text-anchor="start" x="463.95" y="-333.7" font-family="Source Sans Pro" font-size="16.00">Illumination&#45;Engine</text>
<text text-anchor="start" x="463.95" y="-315.7" font-family="Source Sans Pro" font-size="16.00">/src/GraphicsModule</text>
<text text-anchor="start" x="463.95" y="-297.7" font-family="Source Sans Pro" font-size="16.00">/CommandBuffer/DependencyStructs</text>
<text text-anchor="middle" x="591.95" y="-279.7" font-family="Source Sans Pro" font-size="16.00">/IEImageMemoryBarrier.hpp</text>
</a>
</g>
</g>
<!-- Node2 -->
<g id="node2" class="node">
<title>Node2</title>
<g id="a_node2"><a xlink:href="_i_e_image_8hpp.html" target="_top" xlink:title=" ">
<polygon fill="white" stroke="black" points="517.45,-207.5 517.45,-233.5 666.45,-233.5 666.45,-207.5 517.45,-207.5"/>
<text text-anchor="middle" x="591.95" y="-216.7" font-family="Source Sans Pro" font-size="16.00">Image/IEImage.hpp</text>
</a>
</g>
</g>
<!-- Node1&#45;&gt;Node2 -->
<g id="edge1" class="edge">
<title>Node1&#45;&gt;Node2</title>
<path fill="none" stroke="midnightblue" d="M591.95,-270.39C591.95,-261.3 591.95,-251.93 591.95,-243.85"/>
<polygon fill="midnightblue" stroke="midnightblue" points="595.45,-243.79 591.95,-233.79 588.45,-243.79 595.45,-243.79"/>
</g>
<!-- Node4 -->
<g id="node4" class="node">
<title>Node4</title>
<g id="a_node4"><a xlink:title=" ">
<polygon fill="white" stroke="#bfbfbf" points="56.95,-63.5 56.95,-89.5 130.95,-89.5 130.95,-63.5 56.95,-63.5"/>
<text text-anchor="middle" x="93.95" y="-72.7" font-family="Source Sans Pro" font-size="16.00">memory</text>
</a>
</g>
</g>
<!-- Node1&#45;&gt;Node4 -->
<g id="edge21" class="edge">
<title>Node1&#45;&gt;Node4</title>
<path fill="none" stroke="midnightblue" d="M455.89,-295.99C303.19,-277.7 69.7,-239.21 15.95,-171 3.57,-155.29 6.23,-143.48 15.95,-126 23.57,-112.3 36.84,-101.97 50.29,-94.44"/>
<polygon fill="midnightblue" stroke="midnightblue" points="52.28,-97.35 59.57,-89.67 49.08,-91.13 52.28,-97.35"/>
</g>
<!-- Node7 -->
<g id="node7" class="node">
<title>Node7</title>
<g id="a_node7"><a xlink:title=" ">
<polygon fill="white" stroke="#bfbfbf" points="977.45,-63.5 977.45,-89.5 1102.45,-89.5 1102.45,-63.5 977.45,-63.5"/>
<text text-anchor="middle" x="1039.95" y="-72.7" font-family="Source Sans Pro" font-size="16.00">vulkan/vulkan.h</text>
</a>
</g>
</g>
<!-- Node1&#45;&gt;Node7 -->
<g id="edge22" class="edge">
<title>Node1&#45;&gt;Node7</title>
<path fill="none" stroke="midnightblue" d="M728.13,-302.71C825.81,-290.24 952.64,-257.12 1025.95,-171 1042.64,-151.4 1044.13,-120.73 1042.79,-99.9"/>
<polygon fill="midnightblue" stroke="midnightblue" points="1046.26,-99.39 1041.86,-89.75 1039.28,-100.03 1046.26,-99.39"/>
</g>
<!-- Node3 -->
<g id="node3" class="node">
<title>Node3</title>
<g id="a_node3"><a xlink:href="_i_e_dependency_8hpp.html" target="_top" xlink:title=" ">
<polygon fill="white" stroke="black" points="709.45,-126.5 709.45,-170.5 954.45,-170.5 954.45,-126.5 709.45,-126.5"/>
<text text-anchor="start" x="717.45" y="-153.7" font-family="Source Sans Pro" font-size="16.00">GraphicsModule/CommandBuffer</text>
<text text-anchor="middle" x="831.95" y="-135.7" font-family="Source Sans Pro" font-size="16.00">/IEDependency.hpp</text>
</a>
</g>
</g>
<!-- Node2&#45;&gt;Node3 -->
<g id="edge2" class="edge">
<title>Node2&#45;&gt;Node3</title>
<path fill="none" stroke="midnightblue" d="M633.21,-207.47C665.21,-198.13 710.58,-184.9 749.9,-173.43"/>
<polygon fill="midnightblue" stroke="midnightblue" points="751.13,-176.72 759.75,-170.56 749.17,-170 751.13,-176.72"/>
</g>
<!-- Node5 -->
<g id="node5" class="node">
<title>Node5</title>
<g id="a_node5"><a xlink:title=" ">
<polygon fill="white" stroke="#bfbfbf" points="307.45,-0.5 307.45,-26.5 362.45,-26.5 362.45,-0.5 307.45,-0.5"/>
<text text-anchor="middle" x="334.95" y="-9.7" font-family="Source Sans Pro" font-size="16.00">string</text>
</a>
</g>
</g>
<!-- Node2&#45;&gt;Node5 -->
<g id="edge19" class="edge">
<title>Node2&#45;&gt;Node5</title>
<path fill="none" stroke="midnightblue" d="M517.34,-218.72C369.19,-216.4 49.23,-207.2 15.95,-171 -17.93,-134.15 7.62,-92.66 47.95,-63 86.88,-34.37 227.85,-21.45 296.65,-16.74"/>
<polygon fill="midnightblue" stroke="midnightblue" points="297.29,-20.21 307.04,-16.06 296.83,-13.22 297.29,-20.21"/>
</g>
<!-- Node6 -->
<g id="node6" class="node">
<title>Node6</title>
<g id="a_node6"><a xlink:title=" ">
<polygon fill="white" stroke="#bfbfbf" points="802.45,-0.5 802.45,-26.5 861.45,-26.5 861.45,-0.5 802.45,-0.5"/>
<text text-anchor="middle" x="831.95" y="-9.7" font-family="Source Sans Pro" font-size="16.00">vector</text>
</a>
</g>
</g>
<!-- Node2&#45;&gt;Node6 -->
<g id="edge20" class="edge">
<title>Node2&#45;&gt;Node6</title>
<path fill="none" stroke="midnightblue" d="M666.73,-216.83C773.57,-212.06 963.85,-199.73 1025.95,-171 1073.6,-148.95 1091.13,-138.2 1111.95,-90 1116.71,-78.98 1119.68,-72.18 1111.95,-63 1081.73,-27.1 941.81,-17.77 871.91,-15.35"/>
<polygon fill="midnightblue" stroke="midnightblue" points="871.83,-11.85 861.72,-15.03 871.61,-18.84 871.83,-11.85"/>
</g>
<!-- Node2&#45;&gt;Node7 -->
<g id="edge16" class="edge">
<title>Node2&#45;&gt;Node7</title>
<path fill="none" stroke="midnightblue" d="M666.78,-219.09C769.11,-217.11 945.86,-208.21 996.95,-171 1020.18,-154.08 1031.19,-121.52 1036.17,-99.65"/>
<polygon fill="midnightblue" stroke="midnightblue" points="1039.65,-100.1 1038.21,-89.6 1032.79,-98.71 1039.65,-100.1"/>
</g>
<!-- Node8 -->
<g id="node8" class="node">
<title>Node8</title>
<g id="a_node8"><a xlink:href="_i_e_a_p_i_8hpp.html" target="_top" xlink:title=" ">
<polygon fill="white" stroke="black" points="25.45,-135.5 25.45,-161.5 108.45,-161.5 108.45,-135.5 25.45,-135.5"/>
<text text-anchor="middle" x="66.95" y="-144.7" font-family="Source Sans Pro" font-size="16.00">IEAPI.hpp</text>
</a>
</g>
</g>
<!-- Node2&#45;&gt;Node8 -->
<g id="edge7" class="edge">
<title>Node2&#45;&gt;Node8</title>
<path fill="none" stroke="midnightblue" d="M517.27,-218.66C422.86,-216.06 255.99,-206.32 117.95,-171 112.23,-169.54 106.31,-167.53 100.62,-165.34"/>
<polygon fill="midnightblue" stroke="midnightblue" points="101.92,-162.09 91.34,-161.52 99.26,-168.56 101.92,-162.09"/>
</g>
<!-- Node10 -->
<g id="node10" class="node">
<title>Node10</title>
<g id="a_node10"><a xlink:title=" ">
<polygon fill="white" stroke="#bfbfbf" points="594.45,-0.5 594.45,-26.5 657.45,-26.5 657.45,-0.5 594.45,-0.5"/>
<text text-anchor="middle" x="625.95" y="-9.7" font-family="Source Sans Pro" font-size="16.00">cstdint</text>
</a>
</g>
</g>
<!-- Node2&#45;&gt;Node10 -->
<g id="edge17" class="edge">
<title>Node2&#45;&gt;Node10</title>
<path fill="none" stroke="midnightblue" d="M666.59,-214.98C769.53,-207.97 944.67,-192.96 963.95,-171 1052.32,-70.37 776.49,-30.13 667.9,-18.43"/>
<polygon fill="midnightblue" stroke="midnightblue" points="667.94,-14.92 657.63,-17.36 667.21,-21.88 667.94,-14.92"/>
</g>
<!-- Node11 -->
<g id="node11" class="node">
<title>Node11</title>
<g id="a_node11"><a xlink:title=" ">
<polygon fill="white" stroke="#bfbfbf" points="126.95,-135.5 126.95,-161.5 264.95,-161.5 264.95,-135.5 126.95,-135.5"/>
<text text-anchor="middle" x="195.95" y="-144.7" font-family="Source Sans Pro" font-size="16.00">include/GL/glew.h</text>
</a>
</g>
</g>
<!-- Node2&#45;&gt;Node11 -->
<g id="edge13" class="edge">
<title>Node2&#45;&gt;Node11</title>
<path fill="none" stroke="midnightblue" d="M517.29,-210.64C452.56,-202.35 356.56,-188.62 273.95,-171 264.87,-169.06 255.28,-166.69 246.05,-164.24"/>
<polygon fill="midnightblue" stroke="midnightblue" points="246.78,-160.82 236.21,-161.57 244.94,-167.57 246.78,-160.82"/>
</g>
<!-- Node12 -->
<g id="node12" class="node">
<title>Node12</title>
<g id="a_node12"><a xlink:title=" ">
<polygon fill="white" stroke="#bfbfbf" points="283.45,-135.5 283.45,-161.5 468.45,-161.5 468.45,-135.5 283.45,-135.5"/>
<text text-anchor="middle" x="375.95" y="-144.7" font-family="Source Sans Pro" font-size="16.00">include/vk_mem_alloc.h</text>
</a>
</g>
</g>
<!-- Node2&#45;&gt;Node12 -->
<g id="edge14" class="edge">
<title>Node2&#45;&gt;Node12</title>
<path fill="none" stroke="midnightblue" d="M554.82,-207.47C518.35,-195.65 462.57,-177.57 423.01,-164.75"/>
<polygon fill="midnightblue" stroke="midnightblue" points="423.91,-161.36 413.32,-161.61 421.75,-168.02 423.91,-161.36"/>
</g>
<!-- Node13 -->
<g id="node13" class="node">
<title>Node13</title>
<g id="a_node13"><a xlink:title=" ">
<polygon fill="white" stroke="#bfbfbf" points="486.95,-135.5 486.95,-161.5 586.95,-161.5 586.95,-135.5 486.95,-135.5"/>
<text text-anchor="middle" x="536.95" y="-144.7" font-family="Source Sans Pro" font-size="16.00">stb_image.h</text>
</a>
</g>
</g>
<!-- Node2&#45;&gt;Node13 -->
<g id="edge15" class="edge">
<title>Node2&#45;&gt;Node13</title>
<path fill="none" stroke="midnightblue" d="M582.37,-207.31C574.17,-196.87 562.2,-181.63 552.61,-169.43"/>
<polygon fill="midnightblue" stroke="midnightblue" points="555.35,-167.25 546.42,-161.55 549.85,-171.58 555.35,-167.25"/>
</g>
<!-- Node14 -->
<g id="node14" class="node">
<title>Node14</title>
<g id="a_node14"><a xlink:title=" ">
<polygon fill="white" stroke="#bfbfbf" points="604.95,-135.5 604.95,-161.5 690.95,-161.5 690.95,-135.5 604.95,-135.5"/>
<text text-anchor="middle" x="647.95" y="-144.7" font-family="Source Sans Pro" font-size="16.00">functional</text>
</a>
</g>
</g>
<!-- Node2&#45;&gt;Node14 -->
<g id="edge18" class="edge">
<title>Node2&#45;&gt;Node14</title>
<path fill="none" stroke="midnightblue" d="M601.7,-207.31C610.06,-196.87 622.24,-181.63 632.01,-169.43"/>
<polygon fill="midnightblue" stroke="midnightblue" points="634.79,-171.55 638.31,-161.55 629.33,-167.18 634.79,-171.55"/>
</g>
<!-- Node3&#45;&gt;Node4 -->
<g id="edge3" class="edge">
<title>Node3&#45;&gt;Node4</title>
<path fill="none" stroke="midnightblue" d="M709.39,-127.19C706.21,-126.77 703.06,-126.38 699.95,-126 492.54,-100.85 243.55,-85.6 141.3,-79.97"/>
<polygon fill="midnightblue" stroke="midnightblue" points="141.47,-76.48 131.29,-79.43 141.09,-83.46 141.47,-76.48"/>
</g>
<!-- Node3&#45;&gt;Node5 -->
<g id="edge4" class="edge">
<title>Node3&#45;&gt;Node5</title>
<path fill="none" stroke="midnightblue" d="M709.36,-127.42C706.19,-126.94 703.05,-126.46 699.95,-126 582.39,-108.44 544.85,-135.28 434.95,-90 403.27,-76.95 372.72,-51.38 353.9,-33.63"/>
<polygon fill="midnightblue" stroke="midnightblue" points="356.21,-31 346.59,-26.57 351.35,-36.03 356.21,-31"/>
</g>
<!-- Node3&#45;&gt;Node6 -->
<g id="edge5" class="edge">
<title>Node3&#45;&gt;Node6</title>
<path fill="none" stroke="midnightblue" d="M831.95,-126.43C831.95,-102.03 831.95,-62.03 831.95,-37.03"/>
<polygon fill="midnightblue" stroke="midnightblue" points="835.45,-36.71 831.95,-26.71 828.45,-36.71 835.45,-36.71"/>
</g>
<!-- Node3&#45;&gt;Node7 -->
<g id="edge6" class="edge">
<title>Node3&#45;&gt;Node7</title>
<path fill="none" stroke="midnightblue" d="M894.36,-126.5C926.61,-115.64 965.25,-102.64 994.62,-92.76"/>
<polygon fill="midnightblue" stroke="midnightblue" points="995.84,-96.04 1004.2,-89.53 993.61,-89.4 995.84,-96.04"/>
</g>
<!-- Node8&#45;&gt;Node5 -->
<g id="edge12" class="edge">
<title>Node8&#45;&gt;Node5</title>
<path fill="none" stroke="midnightblue" d="M91.21,-135.46C139.22,-111.64 246.45,-58.42 301.27,-31.21"/>
<polygon fill="midnightblue" stroke="midnightblue" points="303.15,-34.19 310.56,-26.61 300.04,-27.92 303.15,-34.19"/>
</g>
<!-- Node9 -->
<g id="node9" class="node">
<title>Node9</title>
<g id="a_node9"><a xlink:href="_i_e_version_8hpp.html" target="_top" xlink:title=" ">
<polygon fill="white" stroke="black" points="443.95,-63.5 443.95,-89.5 553.95,-89.5 553.95,-63.5 443.95,-63.5"/>
<text text-anchor="middle" x="498.95" y="-72.7" font-family="Source Sans Pro" font-size="16.00">IEVersion.hpp</text>
</a>
</g>
</g>
<!-- Node8&#45;&gt;Node9 -->
<g id="edge8" class="edge">
<title>Node8&#45;&gt;Node9</title>
<path fill="none" stroke="midnightblue" d="M91.63,-135.5C99.84,-131.94 109.14,-128.37 117.95,-126 226.41,-96.82 357.08,-85.05 433.79,-80.4"/>
<polygon fill="midnightblue" stroke="midnightblue" points="434.01,-83.89 443.78,-79.82 433.6,-76.91 434.01,-83.89"/>
</g>
<!-- Node9&#45;&gt;Node5 -->
<g id="edge10" class="edge">
<title>Node9&#45;&gt;Node5</title>
<path fill="none" stroke="midnightblue" d="M466.55,-63.45C439.41,-53.35 400.66,-38.94 372.24,-28.37"/>
<polygon fill="midnightblue" stroke="midnightblue" points="373.24,-25.01 362.65,-24.8 370.8,-31.57 373.24,-25.01"/>
</g>
<!-- Node9&#45;&gt;Node6 -->
<g id="edge11" class="edge">
<title>Node9&#45;&gt;Node6</title>
<path fill="none" stroke="midnightblue" d="M554.31,-65.36C621.48,-53.05 733.06,-32.61 792.25,-21.77"/>
<polygon fill="midnightblue" stroke="midnightblue" points="793.11,-25.17 802.32,-19.93 791.85,-18.29 793.11,-25.17"/>
</g>
<!-- Node9&#45;&gt;Node10 -->
<g id="edge9" class="edge">
<title>Node9&#45;&gt;Node10</title>
<path fill="none" stroke="midnightblue" d="M524.04,-63.45C543.44,-54.13 570.49,-41.14 591.85,-30.88"/>
<polygon fill="midnightblue" stroke="midnightblue" points="593.41,-34.01 600.91,-26.53 590.38,-27.7 593.41,-34.01"/>
</g>
</g>
</svg>
