<?xml version="1.0" encoding="UTF-8" standalone="no"?>
<!DOCTYPE svg PUBLIC "-//W3C//DTD SVG 1.1//EN"
 "http://www.w3.org/Graphics/SVG/1.1/DTD/svg11.dtd">
<!-- Generated by graphviz version 2.43.0 (0)
 -->
<!-- Title: Illumination&#45;Engine/src/GraphicsModule/CommandBuffer/DependencyStructs/IERenderPassBeginInfo.cpp Pages: 1 -->
<svg width="2249pt" height="701pt"
 viewBox="0.00 0.00 2249.00 701.00" xmlns="http://www.w3.org/2000/svg" xmlns:xlink="http://www.w3.org/1999/xlink">
<g id="graph0" class="graph" transform="scale(1 1) rotate(0) translate(4 697)">
<title>Illumination&#45;Engine/src/GraphicsModule/CommandBuffer/DependencyStructs/IERenderPassBeginInfo.cpp</title>
<polygon fill="white" stroke="transparent" points="-4,4 -4,-697 2245,-697 2245,4 -4,4"/>
<!-- Node1 -->
<g id="node1" class="node">
<title>Node1</title>
<g id="a_node1"><a xlink:title=" ">
<polygon fill="#bfbfbf" stroke="black" points="1680,-612.5 1680,-692.5 1952,-692.5 1952,-612.5 1680,-612.5"/>
<text text-anchor="start" x="1688" y="-675.7" font-family="Source Sans Pro" font-size="16.00">Illumination&#45;Engine</text>
<text text-anchor="start" x="1688" y="-657.7" font-family="Source Sans Pro" font-size="16.00">/src/GraphicsModule</text>
<text text-anchor="start" x="1688" y="-639.7" font-family="Source Sans Pro" font-size="16.00">/CommandBuffer/DependencyStructs</text>
<text text-anchor="middle" x="1816" y="-621.7" font-family="Source Sans Pro" font-size="16.00">/IERenderPassBeginInfo.cpp</text>
</a>
</g>
</g>
<!-- Node2 -->
<g id="node2" class="node">
<title>Node2</title>
<g id="a_node2"><a xlink:href="_i_e_render_pass_begin_info_8hpp.html" target="_top" xlink:title=" ">
<polygon fill="white" stroke="black" points="1457.5,-396.5 1457.5,-422.5 1660.5,-422.5 1660.5,-396.5 1457.5,-396.5"/>
<text text-anchor="middle" x="1559" y="-405.7" font-family="Source Sans Pro" font-size="16.00">IERenderPassBeginInfo.hpp</text>
</a>
</g>
</g>
<!-- Node1&#45;&gt;Node2 -->
<g id="edge1" class="edge">
<title>Node1&#45;&gt;Node2</title>
<path fill="none" stroke="midnightblue" d="M1774.14,-612.24C1718.15,-559.74 1621.09,-468.72 1579.2,-429.44"/>
<polygon fill="midnightblue" stroke="midnightblue" points="1581.51,-426.81 1571.82,-422.52 1576.72,-431.91 1581.51,-426.81"/>
</g>
<!-- Node17 -->
<g id="node17" class="node">
<title>Node17</title>
<g id="a_node17"><a xlink:href="_i_e_render_pass_8hpp.html" target="_top" xlink:title=" ">
<polygon fill="white" stroke="black" points="1247.5,-531.5 1247.5,-575.5 1458.5,-575.5 1458.5,-531.5 1247.5,-531.5"/>
<text text-anchor="start" x="1255.5" y="-558.7" font-family="Source Sans Pro" font-size="16.00">GraphicsModule/RenderPass</text>
<text text-anchor="middle" x="1353" y="-540.7" font-family="Source Sans Pro" font-size="16.00">/IERenderPass.hpp</text>
</a>
</g>
</g>
<!-- Node1&#45;&gt;Node17 -->
<g id="edge27" class="edge">
<title>Node1&#45;&gt;Node17</title>
<path fill="none" stroke="midnightblue" d="M1679.9,-622.99C1610.88,-608.53 1528.14,-591.19 1463.17,-577.58"/>
<polygon fill="midnightblue" stroke="midnightblue" points="1463.82,-574.14 1453.31,-575.52 1462.38,-580.99 1463.82,-574.14"/>
</g>
<!-- Node3 -->
<g id="node3" class="node">
<title>Node3</title>
<g id="a_node3"><a xlink:title=" ">
<polygon fill="white" stroke="#bfbfbf" points="345,-72.5 345,-98.5 419,-98.5 419,-72.5 345,-72.5"/>
<text text-anchor="middle" x="382" y="-81.7" font-family="Source Sans Pro" font-size="16.00">memory</text>
</a>
</g>
</g>
<!-- Node2&#45;&gt;Node3 -->
<g id="edge2" class="edge">
<title>Node2&#45;&gt;Node3</title>
<path fill="none" stroke="midnightblue" d="M1457.09,-407.05C1181.33,-402.66 438.61,-387.48 401,-351 334.36,-286.36 360.92,-159.43 375.2,-108.46"/>
<polygon fill="midnightblue" stroke="midnightblue" points="378.58,-109.36 378.02,-98.78 371.86,-107.4 378.58,-109.36"/>
</g>
<!-- Node4 -->
<g id="node4" class="node">
<title>Node4</title>
<g id="a_node4"><a xlink:href="_i_e_framebuffer_8hpp.html" target="_top" xlink:title=" ">
<polygon fill="white" stroke="black" points="1562.5,-306.5 1562.5,-350.5 1773.5,-350.5 1773.5,-306.5 1562.5,-306.5"/>
<text text-anchor="start" x="1570.5" y="-333.7" font-family="Source Sans Pro" font-size="16.00">GraphicsModule/RenderPass</text>
<text text-anchor="middle" x="1668" y="-315.7" font-family="Source Sans Pro" font-size="16.00">/IEFramebuffer.hpp</text>
</a>
</g>
</g>
<!-- Node2&#45;&gt;Node4 -->
<g id="edge3" class="edge">
<title>Node2&#45;&gt;Node4</title>
<path fill="none" stroke="midnightblue" d="M1576.03,-396.16C1590.57,-385.62 1612,-370.08 1630.52,-356.66"/>
<polygon fill="midnightblue" stroke="midnightblue" points="1632.75,-359.37 1638.79,-350.67 1628.64,-353.71 1632.75,-359.37"/>
</g>
<!-- Node5 -->
<g id="node5" class="node">
<title>Node5</title>
<g id="a_node5"><a xlink:href="_i_e_image_8hpp.html" target="_top" xlink:title=" ">
<polygon fill="white" stroke="black" points="1561,-225.5 1561,-269.5 1735,-269.5 1735,-225.5 1561,-225.5"/>
<text text-anchor="start" x="1569" y="-252.7" font-family="Source Sans Pro" font-size="16.00">GraphicsModule/Image</text>
<text text-anchor="middle" x="1648" y="-234.7" font-family="Source Sans Pro" font-size="16.00">/IEImage.hpp</text>
</a>
</g>
</g>
<!-- Node4&#45;&gt;Node5 -->
<g id="edge4" class="edge">
<title>Node4&#45;&gt;Node5</title>
<path fill="none" stroke="midnightblue" d="M1662.64,-306.33C1660.56,-298.09 1658.12,-288.49 1655.85,-279.51"/>
<polygon fill="midnightblue" stroke="midnightblue" points="1659.22,-278.56 1653.37,-269.73 1652.44,-280.28 1659.22,-278.56"/>
</g>
<!-- Node7 -->
<g id="node7" class="node">
<title>Node7</title>
<g id="a_node7"><a xlink:title=" ">
<polygon fill="white" stroke="#bfbfbf" points="1139.5,-0.5 1139.5,-26.5 1198.5,-26.5 1198.5,-0.5 1139.5,-0.5"/>
<text text-anchor="middle" x="1169" y="-9.7" font-family="Source Sans Pro" font-size="16.00">vector</text>
</a>
</g>
</g>
<!-- Node4&#45;&gt;Node7 -->
<g id="edge26" class="edge">
<title>Node4&#45;&gt;Node7</title>
<path fill="none" stroke="midnightblue" d="M1773.72,-315.74C1922.64,-295.3 2165.92,-245.33 2070,-144 2019.82,-90.99 1483.59,-130.04 1414,-108 1378.03,-96.61 1376.52,-78.25 1342,-63 1298.11,-43.61 1244.51,-30.01 1208.71,-22.25"/>
<polygon fill="midnightblue" stroke="midnightblue" points="1209.16,-18.76 1198.65,-20.12 1207.71,-25.61 1209.16,-18.76"/>
</g>
<!-- Node8 -->
<g id="node8" class="node">
<title>Node8</title>
<g id="a_node8"><a xlink:title=" ">
<polygon fill="white" stroke="#bfbfbf" points="642.5,-72.5 642.5,-98.5 767.5,-98.5 767.5,-72.5 642.5,-72.5"/>
<text text-anchor="middle" x="705" y="-81.7" font-family="Source Sans Pro" font-size="16.00">vulkan/vulkan.h</text>
</a>
</g>
</g>
<!-- Node4&#45;&gt;Node8 -->
<g id="edge24" class="edge">
<title>Node4&#45;&gt;Node8</title>
<path fill="none" stroke="midnightblue" d="M1562.08,-319.14C1456.3,-310.02 1289.28,-293.51 1146,-270 979.88,-242.75 913.51,-286.11 776,-189 756.76,-175.41 761.29,-163.45 748,-144 739.34,-131.33 729.07,-117.55 720.74,-106.66"/>
<polygon fill="midnightblue" stroke="midnightblue" points="723.41,-104.4 714.54,-98.62 717.87,-108.67 723.41,-104.4"/>
</g>
<!-- Node9 -->
<g id="node9" class="node">
<title>Node9</title>
<g id="a_node9"><a xlink:title=" ">
<polygon fill="white" stroke="#bfbfbf" points="1721.5,-0.5 1721.5,-26.5 1776.5,-26.5 1776.5,-0.5 1721.5,-0.5"/>
<text text-anchor="middle" x="1749" y="-9.7" font-family="Source Sans Pro" font-size="16.00">string</text>
</a>
</g>
</g>
<!-- Node4&#45;&gt;Node9 -->
<g id="edge25" class="edge">
<title>Node4&#45;&gt;Node9</title>
<path fill="none" stroke="midnightblue" d="M1773.73,-320.73C1895.47,-311.84 2081.58,-294.44 2103,-270 2167.4,-196.53 2112.77,-113.29 2029,-63 1988.75,-38.84 1853.59,-23.8 1786.89,-17.67"/>
<polygon fill="midnightblue" stroke="midnightblue" points="1787.07,-14.17 1776.8,-16.76 1786.44,-21.14 1787.07,-14.17"/>
</g>
<!-- Node6 -->
<g id="node6" class="node">
<title>Node6</title>
<g id="a_node6"><a xlink:href="_i_e_dependency_8hpp.html" target="_top" xlink:title=" ">
<polygon fill="white" stroke="black" points="970.5,-144.5 970.5,-188.5 1215.5,-188.5 1215.5,-144.5 970.5,-144.5"/>
<text text-anchor="start" x="978.5" y="-171.7" font-family="Source Sans Pro" font-size="16.00">GraphicsModule/CommandBuffer</text>
<text text-anchor="middle" x="1093" y="-153.7" font-family="Source Sans Pro" font-size="16.00">/IEDependency.hpp</text>
</a>
</g>
</g>
<!-- Node5&#45;&gt;Node6 -->
<g id="edge5" class="edge">
<title>Node5&#45;&gt;Node6</title>
<path fill="none" stroke="midnightblue" d="M1560.91,-232.81C1543.71,-230.17 1525.79,-227.46 1509,-225 1414.57,-211.17 1307.94,-196.45 1226.28,-185.37"/>
<polygon fill="midnightblue" stroke="midnightblue" points="1226.32,-181.84 1215.94,-183.96 1225.38,-188.78 1226.32,-181.84"/>
</g>
<!-- Node5&#45;&gt;Node7 -->
<g id="edge22" class="edge">
<title>Node5&#45;&gt;Node7</title>
<path fill="none" stroke="midnightblue" d="M1735.03,-238.85C1826.59,-227.63 1950.56,-201.44 1897,-144 1857.88,-102.05 1437.69,-121.73 1382,-108 1346.27,-99.19 1253.46,-55.53 1202.95,-31.11"/>
<polygon fill="midnightblue" stroke="midnightblue" points="1204.26,-27.86 1193.74,-26.65 1201.21,-34.16 1204.26,-27.86"/>
</g>
<!-- Node5&#45;&gt;Node8 -->
<g id="edge18" class="edge">
<title>Node5&#45;&gt;Node8</title>
<path fill="none" stroke="midnightblue" d="M1735.32,-236.23C1819.08,-223.08 1926.11,-195.58 1877,-144 1857.97,-124.01 1031.03,-96.65 777.88,-88.73"/>
<polygon fill="midnightblue" stroke="midnightblue" points="777.79,-85.23 767.68,-88.41 777.57,-92.22 777.79,-85.23"/>
</g>
<!-- Node5&#45;&gt;Node9 -->
<g id="edge21" class="edge">
<title>Node5&#45;&gt;Node9</title>
<path fill="none" stroke="midnightblue" d="M1735.14,-240.68C1852.24,-231.95 2048.33,-213.82 2070,-189 2157.11,-89.21 1888.5,-36.11 1786.55,-19.93"/>
<polygon fill="midnightblue" stroke="midnightblue" points="1787.08,-16.47 1776.66,-18.39 1786.01,-23.38 1787.08,-16.47"/>
</g>
<!-- Node10 -->
<g id="node10" class="node">
<title>Node10</title>
<g id="a_node10"><a xlink:href="_i_e_a_p_i_8hpp.html" target="_top" xlink:title=" ">
<polygon fill="white" stroke="black" points="1386.5,-153.5 1386.5,-179.5 1469.5,-179.5 1469.5,-153.5 1386.5,-153.5"/>
<text text-anchor="middle" x="1428" y="-162.7" font-family="Source Sans Pro" font-size="16.00">IEAPI.hpp</text>
</a>
</g>
</g>
<!-- Node5&#45;&gt;Node10 -->
<g id="edge10" class="edge">
<title>Node5&#45;&gt;Node10</title>
<path fill="none" stroke="midnightblue" d="M1589.33,-225.43C1552.14,-212.08 1504.87,-195.1 1471.12,-182.98"/>
<polygon fill="midnightblue" stroke="midnightblue" points="1472.14,-179.63 1461.55,-179.55 1469.77,-186.22 1472.14,-179.63"/>
</g>
<!-- Node12 -->
<g id="node12" class="node">
<title>Node12</title>
<g id="a_node12"><a xlink:title=" ">
<polygon fill="white" stroke="#bfbfbf" points="2114.5,-0.5 2114.5,-26.5 2177.5,-26.5 2177.5,-0.5 2114.5,-0.5"/>
<text text-anchor="middle" x="2146" y="-9.7" font-family="Source Sans Pro" font-size="16.00">cstdint</text>
</a>
</g>
</g>
<!-- Node5&#45;&gt;Node12 -->
<g id="edge20" class="edge">
<title>Node5&#45;&gt;Node12</title>
<path fill="none" stroke="midnightblue" d="M1735.15,-244.07C1847.4,-239.45 2034.87,-226.25 2092,-189 2127.25,-166.02 2128.62,-148.21 2141,-108 2148.24,-84.49 2148.67,-56.11 2147.81,-36.83"/>
<polygon fill="midnightblue" stroke="midnightblue" points="2151.29,-36.4 2147.19,-26.63 2144.3,-36.82 2151.29,-36.4"/>
</g>
<!-- Node13 -->
<g id="node13" class="node">
<title>Node13</title>
<g id="a_node13"><a xlink:title=" ">
<polygon fill="white" stroke="#bfbfbf" points="1526,-153.5 1526,-179.5 1664,-179.5 1664,-153.5 1526,-153.5"/>
<text text-anchor="middle" x="1595" y="-162.7" font-family="Source Sans Pro" font-size="16.00">include/GL/glew.h</text>
</a>
</g>
</g>
<!-- Node5&#45;&gt;Node13 -->
<g id="edge16" class="edge">
<title>Node5&#45;&gt;Node13</title>
<path fill="none" stroke="midnightblue" d="M1633.8,-225.33C1626.05,-213.79 1616.51,-199.57 1608.83,-188.11"/>
<polygon fill="midnightblue" stroke="midnightblue" points="1611.61,-185.98 1603.14,-179.63 1605.8,-189.88 1611.61,-185.98"/>
</g>
<!-- Node14 -->
<g id="node14" class="node">
<title>Node14</title>
<g id="a_node14"><a xlink:title=" ">
<polygon fill="white" stroke="#bfbfbf" points="1682.5,-153.5 1682.5,-179.5 1867.5,-179.5 1867.5,-153.5 1682.5,-153.5"/>
<text text-anchor="middle" x="1775" y="-162.7" font-family="Source Sans Pro" font-size="16.00">include/vk_mem_alloc.h</text>
</a>
</g>
</g>
<!-- Node5&#45;&gt;Node14 -->
<g id="edge17" class="edge">
<title>Node5&#45;&gt;Node14</title>
<path fill="none" stroke="midnightblue" d="M1682.03,-225.33C1702.33,-212.7 1727.79,-196.87 1746.93,-184.96"/>
<polygon fill="midnightblue" stroke="midnightblue" points="1748.86,-187.88 1755.5,-179.63 1745.16,-181.94 1748.86,-187.88"/>
</g>
<!-- Node15 -->
<g id="node15" class="node">
<title>Node15</title>
<g id="a_node15"><a xlink:title=" ">
<polygon fill="white" stroke="#bfbfbf" points="1961,-153.5 1961,-179.5 2061,-179.5 2061,-153.5 1961,-153.5"/>
<text text-anchor="middle" x="2011" y="-162.7" font-family="Source Sans Pro" font-size="16.00">stb_image.h</text>
</a>
</g>
</g>
<!-- Node5&#45;&gt;Node15 -->
<g id="edge19" class="edge">
<title>Node5&#45;&gt;Node15</title>
<path fill="none" stroke="midnightblue" d="M1735.05,-232.93C1795.07,-222.8 1876.45,-207.54 1947,-189 1954.01,-187.16 1961.38,-184.95 1968.51,-182.66"/>
<polygon fill="midnightblue" stroke="midnightblue" points="1969.64,-185.97 1978.04,-179.51 1967.45,-179.32 1969.64,-185.97"/>
</g>
<!-- Node16 -->
<g id="node16" class="node">
<title>Node16</title>
<g id="a_node16"><a xlink:title=" ">
<polygon fill="white" stroke="#bfbfbf" points="828,-153.5 828,-179.5 914,-179.5 914,-153.5 828,-153.5"/>
<text text-anchor="middle" x="871" y="-162.7" font-family="Source Sans Pro" font-size="16.00">functional</text>
</a>
</g>
</g>
<!-- Node5&#45;&gt;Node16 -->
<g id="edge23" class="edge">
<title>Node5&#45;&gt;Node16</title>
<path fill="none" stroke="midnightblue" d="M1560.66,-231.79C1543.57,-229.25 1525.75,-226.84 1509,-225 1266.38,-198.32 1202.34,-225.49 961,-189 948.96,-187.18 936.17,-184.55 924.11,-181.76"/>
<polygon fill="midnightblue" stroke="midnightblue" points="924.74,-178.31 914.2,-179.38 923.11,-185.12 924.74,-178.31"/>
</g>
<!-- Node6&#45;&gt;Node3 -->
<g id="edge9" class="edge">
<title>Node6&#45;&gt;Node3</title>
<path fill="none" stroke="midnightblue" d="M970.47,-149.71C954.5,-147.74 938.37,-145.79 923,-144 740.56,-122.77 523.12,-100.62 429.13,-91.19"/>
<polygon fill="midnightblue" stroke="midnightblue" points="429.39,-87.7 419.09,-90.18 428.69,-94.66 429.39,-87.7"/>
</g>
<!-- Node6&#45;&gt;Node7 -->
<g id="edge6" class="edge">
<title>Node6&#45;&gt;Node7</title>
<path fill="none" stroke="midnightblue" d="M1103.73,-144.19C1118.15,-115.53 1143.65,-64.88 1158.14,-36.09"/>
<polygon fill="midnightblue" stroke="midnightblue" points="1161.4,-37.39 1162.77,-26.89 1155.14,-34.24 1161.4,-37.39"/>
</g>
<!-- Node6&#45;&gt;Node8 -->
<g id="edge7" class="edge">
<title>Node6&#45;&gt;Node8</title>
<path fill="none" stroke="midnightblue" d="M989.79,-144.49C921.56,-130.59 833.98,-112.76 774.07,-100.56"/>
<polygon fill="midnightblue" stroke="midnightblue" points="774.46,-97.07 763.96,-98.51 773.06,-103.93 774.46,-97.07"/>
</g>
<!-- Node6&#45;&gt;Node9 -->
<g id="edge8" class="edge">
<title>Node6&#45;&gt;Node9</title>
<path fill="none" stroke="midnightblue" d="M1215.68,-153.95C1362.69,-139.8 1591.56,-116.63 1609,-108 1633.79,-95.73 1629.74,-79.43 1652,-63 1670.4,-49.42 1693.18,-37.8 1712.04,-29.35"/>
<polygon fill="midnightblue" stroke="midnightblue" points="1713.46,-32.55 1721.22,-25.34 1710.66,-26.13 1713.46,-32.55"/>
</g>
<!-- Node10&#45;&gt;Node9 -->
<g id="edge15" class="edge">
<title>Node10&#45;&gt;Node9</title>
<path fill="none" stroke="midnightblue" d="M1455.18,-153.45C1464.19,-149.89 1474.38,-146.33 1484,-144 1555.48,-126.68 1763.9,-162.76 1813,-108 1826.35,-93.11 1821.9,-80.91 1813,-63 1806.62,-50.17 1795.05,-39.82 1783.48,-32.03"/>
<polygon fill="midnightblue" stroke="midnightblue" points="1785.06,-28.89 1774.72,-26.57 1781.35,-34.83 1785.06,-28.89"/>
</g>
<!-- Node11 -->
<g id="node11" class="node">
<title>Node11</title>
<g id="a_node11"><a xlink:href="_i_e_version_8hpp.html" target="_top" xlink:title=" ">
<polygon fill="white" stroke="black" points="1694,-72.5 1694,-98.5 1804,-98.5 1804,-72.5 1694,-72.5"/>
<text text-anchor="middle" x="1749" y="-81.7" font-family="Source Sans Pro" font-size="16.00">IEVersion.hpp</text>
</a>
</g>
</g>
<!-- Node10&#45;&gt;Node11 -->
<g id="edge11" class="edge">
<title>Node10&#45;&gt;Node11</title>
<path fill="none" stroke="midnightblue" d="M1456.43,-153.42C1465.16,-150.02 1474.88,-146.57 1484,-144 1569.26,-120.03 1594.01,-129.21 1680,-108 1687.62,-106.12 1695.64,-103.87 1703.41,-101.55"/>
<polygon fill="midnightblue" stroke="midnightblue" points="1704.53,-104.87 1713.06,-98.6 1702.48,-98.18 1704.53,-104.87"/>
</g>
<!-- Node11&#45;&gt;Node7 -->
<g id="edge14" class="edge">
<title>Node11&#45;&gt;Node7</title>
<path fill="none" stroke="midnightblue" d="M1693.89,-75.48C1668.14,-71.41 1637.04,-66.7 1609,-63 1461.82,-43.6 1286.24,-25.86 1208.91,-18.32"/>
<polygon fill="midnightblue" stroke="midnightblue" points="1208.96,-14.81 1198.67,-17.33 1208.28,-21.78 1208.96,-14.81"/>
</g>
<!-- Node11&#45;&gt;Node9 -->
<g id="edge13" class="edge">
<title>Node11&#45;&gt;Node9</title>
<path fill="none" stroke="midnightblue" d="M1749,-72.31C1749,-62.47 1749,-48.38 1749,-36.57"/>
<polygon fill="midnightblue" stroke="midnightblue" points="1752.5,-36.55 1749,-26.55 1745.5,-36.55 1752.5,-36.55"/>
</g>
<!-- Node11&#45;&gt;Node12 -->
<g id="edge12" class="edge">
<title>Node11&#45;&gt;Node12</title>
<path fill="none" stroke="midnightblue" d="M1804.2,-74.77C1884.62,-60.59 2032.22,-34.56 2104.25,-21.86"/>
<polygon fill="midnightblue" stroke="midnightblue" points="2105.07,-25.27 2114.31,-20.09 2103.85,-18.38 2105.07,-25.27"/>
</g>
<!-- Node17&#45;&gt;Node4 -->
<g id="edge28" class="edge">
<title>Node17&#45;&gt;Node4</title>
<path fill="none" stroke="midnightblue" d="M1458.58,-542.67C1530.94,-529.81 1622.03,-500.18 1669,-432 1683.21,-411.38 1681.49,-382.46 1677.07,-360.59"/>
<polygon fill="midnightblue" stroke="midnightblue" points="1680.47,-359.76 1674.82,-350.8 1673.65,-361.33 1680.47,-359.76"/>
</g>
<!-- Node17&#45;&gt;Node7 -->
<g id="edge87" class="edge">
<title>Node17&#45;&gt;Node7</title>
<path fill="none" stroke="midnightblue" d="M1247.4,-552.45C928.97,-550.93 0,-535.75 0,-410.5 0,-410.5 0,-410.5 0,-165.5 0,-112.71 14.79,-90.25 60,-63 106.65,-34.88 935.97,-18.6 1129.06,-15.18"/>
<polygon fill="midnightblue" stroke="midnightblue" points="1129.38,-18.67 1139.32,-15 1129.26,-11.68 1129.38,-18.67"/>
</g>
<!-- Node17&#45;&gt;Node8 -->
<g id="edge85" class="edge">
<title>Node17&#45;&gt;Node8</title>
<path fill="none" stroke="midnightblue" d="M1247.39,-550.99C954.59,-545.41 154,-520.12 154,-410.5 154,-410.5 154,-410.5 154,-327.5 154,-170.82 309.9,-203.1 455,-144 512.52,-120.57 581.56,-105.61 632.5,-96.84"/>
<polygon fill="midnightblue" stroke="midnightblue" points="633.15,-100.27 642.43,-95.16 631.99,-93.37 633.15,-100.27"/>
</g>
<!-- Node17&#45;&gt;Node12 -->
<g id="edge86" class="edge">
<title>Node17&#45;&gt;Node12</title>
<path fill="none" stroke="midnightblue" d="M1458.79,-546.49C1694.26,-531.7 2241,-488.9 2241,-410.5 2241,-410.5 2241,-410.5 2241,-165.5 2241,-110.86 2195.89,-59.82 2167.84,-33.37"/>
<polygon fill="midnightblue" stroke="midnightblue" points="2170.16,-30.75 2160.43,-26.57 2165.43,-35.91 2170.16,-30.75"/>
</g>
<!-- Node17&#45;&gt;Node16 -->
<g id="edge88" class="edge">
<title>Node17&#45;&gt;Node16</title>
<path fill="none" stroke="midnightblue" d="M1358.78,-531.45C1370.28,-484.43 1390.32,-369.94 1333,-306 1276.51,-242.97 1227.65,-292.29 1146,-270 1042.66,-241.79 1018.4,-228.92 919,-189 914.84,-187.33 910.5,-185.51 906.22,-183.65"/>
<polygon fill="midnightblue" stroke="midnightblue" points="907.56,-180.42 897,-179.59 904.74,-186.83 907.56,-180.42"/>
</g>
<!-- Node18 -->
<g id="node18" class="node">
<title>Node18</title>
<g id="a_node18"><a xlink:href="_i_e_command_buffer_8hpp.html" target="_top" xlink:title=" ">
<polygon fill="white" stroke="black" points="464,-468.5 464,-494.5 754,-494.5 754,-468.5 464,-468.5"/>
<text text-anchor="middle" x="609" y="-477.7" font-family="Source Sans Pro" font-size="16.00">CommandBuffer/IECommandBuffer.hpp</text>
</a>
</g>
</g>
<!-- Node17&#45;&gt;Node18 -->
<g id="edge29" class="edge">
<title>Node17&#45;&gt;Node18</title>
<path fill="none" stroke="midnightblue" d="M1247.19,-542.55C1115.85,-530.19 891.53,-509.08 746.85,-495.47"/>
<polygon fill="midnightblue" stroke="midnightblue" points="746.85,-491.95 736.57,-494.5 746.2,-498.92 746.85,-491.95"/>
</g>
<!-- Node18&#45;&gt;Node2 -->
<g id="edge84" class="edge">
<title>Node18&#45;&gt;Node2</title>
<path fill="none" stroke="midnightblue" d="M754.13,-477.56C920.9,-472.91 1202.55,-461.16 1443,-432 1458.85,-430.08 1475.79,-427.33 1491.7,-424.45"/>
<polygon fill="midnightblue" stroke="midnightblue" points="1492.8,-427.8 1501.99,-422.54 1491.52,-420.92 1492.8,-427.8"/>
</g>
<!-- Node18&#45;&gt;Node5 -->
<g id="edge44" class="edge">
<title>Node18&#45;&gt;Node5</title>
<path fill="none" stroke="midnightblue" d="M754.1,-476.41C860.74,-471.17 1008.64,-459.22 1136,-432 1244.86,-408.74 1268.17,-388.44 1373,-351 1445.35,-325.16 1527.87,-294.2 1583.48,-273.12"/>
<polygon fill="midnightblue" stroke="midnightblue" points="1584.75,-276.38 1592.86,-269.56 1582.27,-269.84 1584.75,-276.38"/>
</g>
<!-- Node18&#45;&gt;Node7 -->
<g id="edge31" class="edge">
<title>Node18&#45;&gt;Node7</title>
<path fill="none" stroke="midnightblue" d="M463.76,-472.85C357.28,-465.66 222.66,-452.84 171,-432 101.79,-404.08 38,-404.13 38,-329.5 38,-329.5 38,-329.5 38,-165.5 38,-129 14.13,-117.4 163,-63 254.84,-29.44 954.21,-17.5 1129.34,-15.02"/>
<polygon fill="midnightblue" stroke="midnightblue" points="1129.45,-18.52 1139.4,-14.88 1129.36,-11.52 1129.45,-18.52"/>
</g>
<!-- Node18&#45;&gt;Node8 -->
<g id="edge30" class="edge">
<title>Node18&#45;&gt;Node8</title>
<path fill="none" stroke="midnightblue" d="M565.05,-468.48C540.9,-460.55 511.23,-448.54 488,-432 466.44,-416.64 469.2,-404.1 449,-387 425.55,-367.16 405.04,-377.79 390,-351 380.21,-333.56 385.75,-325.54 390,-306 410.54,-211.58 449.51,-189.03 535,-144 570.25,-125.43 612.7,-111.07 646.37,-101.34"/>
<polygon fill="midnightblue" stroke="midnightblue" points="647.39,-104.68 656.06,-98.59 645.49,-97.95 647.39,-104.68"/>
</g>
<!-- Node19 -->
<g id="node19" class="node">
<title>Node19</title>
<g id="a_node19"><a xlink:title=" ">
<polygon fill="white" stroke="#bfbfbf" points="220,-396.5 220,-422.5 284,-422.5 284,-396.5 220,-396.5"/>
<text text-anchor="middle" x="252" y="-405.7" font-family="Source Sans Pro" font-size="16.00">variant</text>
</a>
</g>
</g>
<!-- Node18&#45;&gt;Node19 -->
<g id="edge32" class="edge">
<title>Node18&#45;&gt;Node19</title>
<path fill="none" stroke="midnightblue" d="M464.29,-468.47C409.67,-461.3 347.57,-449.94 293,-432 288.96,-430.67 284.84,-428.98 280.85,-427.12"/>
<polygon fill="midnightblue" stroke="midnightblue" points="282.36,-423.96 271.85,-422.6 279.22,-430.22 282.36,-423.96"/>
</g>
<!-- Node20 -->
<g id="node20" class="node">
<title>Node20</title>
<g id="a_node20"><a xlink:title=" ">
<polygon fill="white" stroke="#bfbfbf" points="302.5,-396.5 302.5,-422.5 363.5,-422.5 363.5,-396.5 302.5,-396.5"/>
<text text-anchor="middle" x="333" y="-405.7" font-family="Source Sans Pro" font-size="16.00">thread</text>
</a>
</g>
</g>
<!-- Node18&#45;&gt;Node20 -->
<g id="edge33" class="edge">
<title>Node18&#45;&gt;Node20</title>
<path fill="none" stroke="midnightblue" d="M518.03,-468.49C473.18,-460.92 418.8,-449.23 372,-432 368.45,-430.69 364.84,-429.1 361.31,-427.38"/>
<polygon fill="midnightblue" stroke="midnightblue" points="362.77,-424.2 352.29,-422.64 359.51,-430.39 362.77,-424.2"/>
</g>
<!-- Node21 -->
<g id="node21" class="node">
<title>Node21</title>
<g id="a_node21"><a xlink:title=" ">
<polygon fill="white" stroke="#bfbfbf" points="381.5,-396.5 381.5,-422.5 440.5,-422.5 440.5,-396.5 381.5,-396.5"/>
<text text-anchor="middle" x="411" y="-405.7" font-family="Source Sans Pro" font-size="16.00">mutex</text>
</a>
</g>
</g>
<!-- Node18&#45;&gt;Node21 -->
<g id="edge34" class="edge">
<title>Node18&#45;&gt;Node21</title>
<path fill="none" stroke="midnightblue" d="M564.58,-468.42C533.48,-459.5 491.19,-446.45 455,-432 451.09,-430.44 447.05,-428.68 443.07,-426.85"/>
<polygon fill="midnightblue" stroke="midnightblue" points="444.53,-423.67 434,-422.54 441.53,-430 444.53,-423.67"/>
</g>
<!-- Node22 -->
<g id="node22" class="node">
<title>Node22</title>
<g id="a_node22"><a xlink:href="_i_e_buffer_8hpp.html" target="_top" xlink:title=" ">
<polygon fill="white" stroke="black" points="1353.5,-234.5 1353.5,-260.5 1500.5,-260.5 1500.5,-234.5 1353.5,-234.5"/>
<text text-anchor="middle" x="1427" y="-243.7" font-family="Source Sans Pro" font-size="16.00">Buffer/IEBuffer.hpp</text>
</a>
</g>
</g>
<!-- Node18&#45;&gt;Node22 -->
<g id="edge35" class="edge">
<title>Node18&#45;&gt;Node22</title>
<path fill="none" stroke="midnightblue" d="M729.3,-468.49C907.42,-449.12 1231.22,-407.39 1333,-351 1368.61,-331.27 1398.09,-293.06 1414.07,-269.28"/>
<polygon fill="midnightblue" stroke="midnightblue" points="1417.17,-270.93 1419.7,-260.65 1411.3,-267.11 1417.17,-270.93"/>
</g>
<!-- Node23 -->
<g id="node23" class="node">
<title>Node23</title>
<g id="a_node23"><a xlink:href="_i_e_dependent_8hpp.html" target="_top" xlink:title=" ">
<polygon fill="white" stroke="black" points="66,-153.5 66,-179.5 202,-179.5 202,-153.5 66,-153.5"/>
<text text-anchor="middle" x="134" y="-162.7" font-family="Source Sans Pro" font-size="16.00">IEDependent.hpp</text>
</a>
</g>
</g>
<!-- Node18&#45;&gt;Node23 -->
<g id="edge45" class="edge">
<title>Node18&#45;&gt;Node23</title>
<path fill="none" stroke="midnightblue" d="M463.89,-479.21C366.16,-475.35 248.53,-463.89 211,-432 137.49,-369.53 132.02,-241.31 133,-189.72"/>
<polygon fill="midnightblue" stroke="midnightblue" points="136.5,-189.76 133.3,-179.66 129.51,-189.55 136.5,-189.76"/>
</g>
<!-- Node24 -->
<g id="node24" class="node">
<title>Node24</title>
<g id="a_node24"><a xlink:href="_i_e_pipeline_8hpp.html" target="_top" xlink:title=" ">
<polygon fill="white" stroke="black" points="853,-306.5 853,-350.5 1033,-350.5 1033,-306.5 853,-306.5"/>
<text text-anchor="start" x="861" y="-333.7" font-family="Source Sans Pro" font-size="16.00">GraphicsModule/Shader</text>
<text text-anchor="middle" x="943" y="-315.7" font-family="Source Sans Pro" font-size="16.00">/IEPipeline.hpp</text>
</a>
</g>
</g>
<!-- Node18&#45;&gt;Node24 -->
<g id="edge48" class="edge">
<title>Node18&#45;&gt;Node24</title>
<path fill="none" stroke="midnightblue" d="M640.83,-468.41C665.38,-458.93 700.07,-445.18 730,-432 786.16,-407.27 849.38,-376.46 892.26,-355.11"/>
<polygon fill="midnightblue" stroke="midnightblue" points="893.97,-358.16 901.36,-350.57 890.85,-351.9 893.97,-358.16"/>
</g>
<!-- Node31 -->
<g id="node31" class="node">
<title>Node31</title>
<g id="a_node31"><a xlink:href="_i_e_dependency_info_8hpp.html" target="_top" xlink:title=" ">
<polygon fill="white" stroke="black" points="497,-387.5 497,-431.5 721,-431.5 721,-387.5 497,-387.5"/>
<text text-anchor="start" x="505" y="-414.7" font-family="Source Sans Pro" font-size="16.00">CommandBuffer/Dependency</text>
<text text-anchor="middle" x="609" y="-396.7" font-family="Source Sans Pro" font-size="16.00">Structs/IEDependencyInfo.hpp</text>
</a>
</g>
</g>
<!-- Node18&#45;&gt;Node31 -->
<g id="edge67" class="edge">
<title>Node18&#45;&gt;Node31</title>
<path fill="none" stroke="midnightblue" d="M609,-468.31C609,-460.96 609,-451.25 609,-441.88"/>
<polygon fill="midnightblue" stroke="midnightblue" points="612.5,-441.6 609,-431.6 605.5,-441.6 612.5,-441.6"/>
</g>
<!-- Node34 -->
<g id="node34" class="node">
<title>Node34</title>
<g id="a_node34"><a xlink:href="_i_e_copy_buffer_to_image_info_8hpp.html" target="_top" xlink:title=" ">
<polygon fill="white" stroke="black" points="1051.5,-306.5 1051.5,-350.5 1324.5,-350.5 1324.5,-306.5 1051.5,-306.5"/>
<text text-anchor="start" x="1059.5" y="-333.7" font-family="Source Sans Pro" font-size="16.00">CommandBuffer/Dependency</text>
<text text-anchor="middle" x="1188" y="-315.7" font-family="Source Sans Pro" font-size="16.00">Structs/IECopyBufferToImageInfo.hpp</text>
</a>
</g>
</g>
<!-- Node18&#45;&gt;Node34 -->
<g id="edge79" class="edge">
<title>Node18&#45;&gt;Node34</title>
<path fill="none" stroke="midnightblue" d="M655.4,-468.4C751.16,-443.43 972.14,-385.79 1097.29,-353.16"/>
<polygon fill="midnightblue" stroke="midnightblue" points="1098.45,-356.47 1107.24,-350.56 1096.68,-349.7 1098.45,-356.47"/>
</g>
<!-- Node22&#45;&gt;Node6 -->
<g id="edge36" class="edge">
<title>Node22&#45;&gt;Node6</title>
<path fill="none" stroke="midnightblue" d="M1381.39,-234.44C1369.26,-231.3 1356.15,-227.96 1344,-225 1295.95,-213.28 1242.56,-200.95 1197.41,-190.72"/>
<polygon fill="midnightblue" stroke="midnightblue" points="1198.13,-187.3 1187.61,-188.51 1196.59,-194.13 1198.13,-187.3"/>
</g>
<!-- Node22&#45;&gt;Node7 -->
<g id="edge41" class="edge">
<title>Node22&#45;&gt;Node7</title>
<path fill="none" stroke="midnightblue" d="M1413.49,-234.35C1371.17,-196.3 1240.95,-79.2 1189.87,-33.26"/>
<polygon fill="midnightblue" stroke="midnightblue" points="1192.15,-30.61 1182.37,-26.53 1187.47,-35.82 1192.15,-30.61"/>
</g>
<!-- Node22&#45;&gt;Node8 -->
<g id="edge40" class="edge">
<title>Node22&#45;&gt;Node8</title>
<path fill="none" stroke="midnightblue" d="M1385.91,-234.47C1372.63,-230.96 1357.78,-227.42 1344,-225 1259.8,-210.23 1036.76,-228.6 961,-189 937.8,-176.87 945.13,-157.99 923,-144 879.17,-116.29 822.32,-101.86 777.67,-94.39"/>
<polygon fill="midnightblue" stroke="midnightblue" points="778.18,-90.93 767.76,-92.81 777.08,-97.84 778.18,-90.93"/>
</g>
<!-- Node22&#45;&gt;Node10 -->
<g id="edge37" class="edge">
<title>Node22&#45;&gt;Node10</title>
<path fill="none" stroke="midnightblue" d="M1427.16,-234.16C1427.31,-222.33 1427.54,-204.21 1427.72,-189.84"/>
<polygon fill="midnightblue" stroke="midnightblue" points="1431.22,-189.8 1427.84,-179.76 1424.22,-189.71 1431.22,-189.8"/>
</g>
<!-- Node22&#45;&gt;Node12 -->
<g id="edge42" class="edge">
<title>Node22&#45;&gt;Node12</title>
<path fill="none" stroke="midnightblue" d="M1437.98,-234.2C1448.34,-222.58 1464.28,-204.65 1478,-189 1495.45,-169.1 1493.59,-156.35 1517,-144 1641.24,-78.46 1693.37,-136.09 1831,-108 1930.86,-87.62 2044.76,-50.14 2104.47,-29.36"/>
<polygon fill="midnightblue" stroke="midnightblue" points="2105.99,-32.54 2114.27,-25.93 2103.68,-25.93 2105.99,-32.54"/>
</g>
<!-- Node22&#45;&gt;Node13 -->
<g id="edge39" class="edge">
<title>Node22&#45;&gt;Node13</title>
<path fill="none" stroke="midnightblue" d="M1452.88,-234.33C1481.58,-220.84 1528.02,-199 1559.95,-183.98"/>
<polygon fill="midnightblue" stroke="midnightblue" points="1561.8,-186.98 1569.36,-179.55 1558.83,-180.64 1561.8,-186.98"/>
</g>
<!-- Node22&#45;&gt;Node14 -->
<g id="edge38" class="edge">
<title>Node22&#45;&gt;Node14</title>
<path fill="none" stroke="midnightblue" d="M1480.23,-234.42C1542.62,-220.25 1645.89,-196.81 1712.16,-181.77"/>
<polygon fill="midnightblue" stroke="midnightblue" points="1713.08,-185.15 1722.06,-179.52 1711.53,-178.32 1713.08,-185.15"/>
</g>
<!-- Node22&#45;&gt;Node16 -->
<g id="edge43" class="edge">
<title>Node22&#45;&gt;Node16</title>
<path fill="none" stroke="midnightblue" d="M1385.92,-234.41C1372.64,-230.89 1357.79,-227.37 1344,-225 1161.09,-193.62 1108.96,-230.13 928,-189 921.35,-187.49 914.43,-185.37 907.8,-183.05"/>
<polygon fill="midnightblue" stroke="midnightblue" points="908.96,-179.75 898.36,-179.56 906.52,-186.31 908.96,-179.75"/>
</g>
<!-- Node23&#45;&gt;Node3 -->
<g id="edge47" class="edge">
<title>Node23&#45;&gt;Node3</title>
<path fill="none" stroke="midnightblue" d="M171.94,-153.42C215.77,-139.45 287.91,-116.47 335.19,-101.41"/>
<polygon fill="midnightblue" stroke="midnightblue" points="336.41,-104.69 344.88,-98.32 334.29,-98.03 336.41,-104.69"/>
</g>
<!-- Node23&#45;&gt;Node7 -->
<g id="edge46" class="edge">
<title>Node23&#45;&gt;Node7</title>
<path fill="none" stroke="midnightblue" d="M139.51,-153.23C150.4,-130.63 177.06,-82.95 216,-63 298.14,-20.92 959.35,-15.35 1129.29,-14.61"/>
<polygon fill="midnightblue" stroke="midnightblue" points="1129.33,-18.11 1139.31,-14.57 1129.3,-11.11 1129.33,-18.11"/>
</g>
<!-- Node24&#45;&gt;Node6 -->
<g id="edge63" class="edge">
<title>Node24&#45;&gt;Node6</title>
<path fill="none" stroke="midnightblue" d="M962.92,-306.25C989.44,-277.96 1036.44,-227.83 1066.1,-196.2"/>
<polygon fill="midnightblue" stroke="midnightblue" points="1068.95,-198.27 1073.24,-188.58 1063.84,-193.48 1068.95,-198.27"/>
</g>
<!-- Node24&#45;&gt;Node7 -->
<g id="edge66" class="edge">
<title>Node24&#45;&gt;Node7</title>
<path fill="none" stroke="midnightblue" d="M855.48,-306.45C803.29,-293.35 745.22,-277.6 735,-270 652.69,-208.81 563.82,-138.72 633,-63 666.34,-26.51 1010.81,-17.21 1129.25,-15.08"/>
<polygon fill="midnightblue" stroke="midnightblue" points="1129.41,-18.58 1139.35,-14.9 1129.29,-11.58 1129.41,-18.58"/>
</g>
<!-- Node24&#45;&gt;Node8 -->
<g id="edge64" class="edge">
<title>Node24&#45;&gt;Node8</title>
<path fill="none" stroke="midnightblue" d="M873.31,-306.42C818.66,-285.89 746.03,-248.88 710,-189 695.31,-164.58 697.02,-130.65 700.38,-108.64"/>
<polygon fill="midnightblue" stroke="midnightblue" points="703.86,-109.06 702.15,-98.6 696.97,-107.84 703.86,-109.06"/>
</g>
<!-- Node24&#45;&gt;Node16 -->
<g id="edge65" class="edge">
<title>Node24&#45;&gt;Node16</title>
<path fill="none" stroke="midnightblue" d="M933.44,-306.25C919.69,-275.7 894.48,-219.68 880.67,-188.99"/>
<polygon fill="midnightblue" stroke="midnightblue" points="883.76,-187.32 876.46,-179.63 877.37,-190.19 883.76,-187.32"/>
</g>
<!-- Node25 -->
<g id="node25" class="node">
<title>Node25</title>
<g id="a_node25"><a xlink:href="_i_e_shader_8hpp.html" target="_top" xlink:title=" ">
<polygon fill="white" stroke="black" points="1155,-225.5 1155,-269.5 1335,-269.5 1335,-225.5 1155,-225.5"/>
<text text-anchor="start" x="1163" y="-252.7" font-family="Source Sans Pro" font-size="16.00">GraphicsModule/Shader</text>
<text text-anchor="middle" x="1245" y="-234.7" font-family="Source Sans Pro" font-size="16.00">/IEShader.hpp</text>
</a>
</g>
</g>
<!-- Node24&#45;&gt;Node25 -->
<g id="edge49" class="edge">
<title>Node24&#45;&gt;Node25</title>
<path fill="none" stroke="midnightblue" d="M1023.53,-306.43C1063.97,-295.85 1113.11,-283 1154.81,-272.09"/>
<polygon fill="midnightblue" stroke="midnightblue" points="1155.9,-275.42 1164.69,-269.51 1154.13,-268.65 1155.9,-275.42"/>
</g>
<!-- Node25&#45;&gt;Node7 -->
<g id="edge53" class="edge">
<title>Node25&#45;&gt;Node7</title>
<path fill="none" stroke="midnightblue" d="M1241.94,-225.38C1238.61,-204.44 1232.59,-171.58 1224,-144 1211.76,-104.68 1191.78,-60.97 1179.57,-35.72"/>
<polygon fill="midnightblue" stroke="midnightblue" points="1182.69,-34.14 1175.15,-26.69 1176.4,-37.21 1182.69,-34.14"/>
</g>
<!-- Node25&#45;&gt;Node8 -->
<g id="edge51" class="edge">
<title>Node25&#45;&gt;Node8</title>
<path fill="none" stroke="midnightblue" d="M1154.57,-241.3C1047.33,-233.94 875.94,-218.01 819,-189 794.35,-176.44 796.35,-162.74 776,-144 761.03,-130.21 743.22,-115.79 729.18,-104.84"/>
<polygon fill="midnightblue" stroke="midnightblue" points="731.04,-101.86 720.99,-98.51 726.76,-107.39 731.04,-101.86"/>
</g>
<!-- Node25&#45;&gt;Node9 -->
<g id="edge52" class="edge">
<title>Node25&#45;&gt;Node9</title>
<path fill="none" stroke="midnightblue" d="M1281.35,-225.24C1297.71,-215.05 1316.92,-202.21 1333,-189 1354.61,-171.24 1352,-156.55 1377,-144 1484.42,-90.1 1538.89,-164.44 1645,-108 1668.63,-95.43 1665.35,-81.17 1685,-63 1696.78,-52.11 1710.9,-41.21 1722.88,-32.51"/>
<polygon fill="midnightblue" stroke="midnightblue" points="1725.05,-35.26 1731.15,-26.6 1720.98,-29.56 1725.05,-35.26"/>
</g>
<!-- Node25&#45;&gt;Node10 -->
<g id="edge50" class="edge">
<title>Node25&#45;&gt;Node10</title>
<path fill="none" stroke="midnightblue" d="M1294.04,-225.33C1324.44,-212.21 1362.88,-195.61 1390.77,-183.57"/>
<polygon fill="midnightblue" stroke="midnightblue" points="1392.38,-186.69 1400.17,-179.51 1389.6,-180.26 1392.38,-186.69"/>
</g>
<!-- Node25&#45;&gt;Node13 -->
<g id="edge62" class="edge">
<title>Node25&#45;&gt;Node13</title>
<path fill="none" stroke="midnightblue" d="M1335.13,-226.16C1396.72,-212.25 1476.81,-194.18 1531.71,-181.79"/>
<polygon fill="midnightblue" stroke="midnightblue" points="1532.67,-185.16 1541.66,-179.54 1531.13,-178.33 1532.67,-185.16"/>
</g>
<!-- Node25&#45;&gt;Node16 -->
<g id="edge54" class="edge">
<title>Node25&#45;&gt;Node16</title>
<path fill="none" stroke="midnightblue" d="M1154.85,-227.65C1150.17,-226.74 1145.53,-225.85 1141,-225 1046.64,-207.28 1020.68,-214.06 928,-189 921.84,-187.33 915.41,-185.26 909.19,-183.06"/>
<polygon fill="midnightblue" stroke="midnightblue" points="910.24,-179.71 899.64,-179.54 907.81,-186.28 910.24,-179.71"/>
</g>
<!-- Node26 -->
<g id="node26" class="node">
<title>Node26</title>
<g id="a_node26"><a xlink:href="_i_e_file_8hpp.html" target="_top" xlink:title=" ">
<polygon fill="white" stroke="black" points="1423.5,-63.5 1423.5,-107.5 1600.5,-107.5 1600.5,-63.5 1423.5,-63.5"/>
<text text-anchor="start" x="1431.5" y="-90.7" font-family="Source Sans Pro" font-size="16.00">Core/FileSystemModule</text>
<text text-anchor="middle" x="1512" y="-72.7" font-family="Source Sans Pro" font-size="16.00">/IEFile.hpp</text>
</a>
</g>
</g>
<!-- Node25&#45;&gt;Node26 -->
<g id="edge55" class="edge">
<title>Node25&#45;&gt;Node26</title>
<path fill="none" stroke="midnightblue" d="M1260.58,-225.15C1278.38,-202.15 1309.55,-165.9 1344,-144 1365.7,-130.2 1391.1,-119.29 1415.48,-110.85"/>
<polygon fill="midnightblue" stroke="midnightblue" points="1416.76,-114.11 1425.13,-107.62 1414.54,-107.48 1416.76,-114.11"/>
</g>
<!-- Node26&#45;&gt;Node7 -->
<g id="edge56" class="edge">
<title>Node26&#45;&gt;Node7</title>
<path fill="none" stroke="midnightblue" d="M1423.28,-65.75C1418.79,-64.81 1414.34,-63.89 1410,-63 1339.12,-48.4 1256.41,-31.86 1208.63,-22.36"/>
<polygon fill="midnightblue" stroke="midnightblue" points="1209.19,-18.9 1198.7,-20.39 1207.83,-25.77 1209.19,-18.9"/>
</g>
<!-- Node26&#45;&gt;Node9 -->
<g id="edge57" class="edge">
<title>Node26&#45;&gt;Node9</title>
<path fill="none" stroke="midnightblue" d="M1583.11,-63.5C1625.43,-51 1677.4,-35.65 1711.77,-25.5"/>
<polygon fill="midnightblue" stroke="midnightblue" points="1712.81,-28.84 1721.41,-22.65 1710.82,-22.13 1712.81,-28.84"/>
</g>
<!-- Node27 -->
<g id="node27" class="node">
<title>Node27</title>
<g id="a_node27"><a xlink:title=" ">
<polygon fill="white" stroke="#bfbfbf" points="1418.5,-0.5 1418.5,-26.5 1503.5,-26.5 1503.5,-0.5 1418.5,-0.5"/>
<text text-anchor="middle" x="1461" y="-9.7" font-family="Source Sans Pro" font-size="16.00">filesystem</text>
</a>
</g>
</g>
<!-- Node26&#45;&gt;Node27 -->
<g id="edge58" class="edge">
<title>Node26&#45;&gt;Node27</title>
<path fill="none" stroke="midnightblue" d="M1496.7,-63.5C1490.1,-54.44 1482.4,-43.88 1475.85,-34.89"/>
<polygon fill="midnightblue" stroke="midnightblue" points="1478.48,-32.55 1469.77,-26.53 1472.83,-36.67 1478.48,-32.55"/>
</g>
<!-- Node28 -->
<g id="node28" class="node">
<title>Node28</title>
<g id="a_node28"><a xlink:title=" ">
<polygon fill="white" stroke="#bfbfbf" points="1522,-0.5 1522,-26.5 1590,-26.5 1590,-0.5 1522,-0.5"/>
<text text-anchor="middle" x="1556" y="-9.7" font-family="Source Sans Pro" font-size="16.00">fstream</text>
</a>
</g>
</g>
<!-- Node26&#45;&gt;Node28 -->
<g id="edge59" class="edge">
<title>Node26&#45;&gt;Node28</title>
<path fill="none" stroke="midnightblue" d="M1525.2,-63.5C1530.84,-54.53 1537.4,-44.1 1543.01,-35.17"/>
<polygon fill="midnightblue" stroke="midnightblue" points="1546.08,-36.86 1548.44,-26.53 1540.15,-33.13 1546.08,-36.86"/>
</g>
<!-- Node29 -->
<g id="node29" class="node">
<title>Node29</title>
<g id="a_node29"><a xlink:title=" ">
<polygon fill="white" stroke="#bfbfbf" points="1608,-0.5 1608,-26.5 1660,-26.5 1660,-0.5 1608,-0.5"/>
<text text-anchor="middle" x="1634" y="-9.7" font-family="Source Sans Pro" font-size="16.00">regex</text>
</a>
</g>
</g>
<!-- Node26&#45;&gt;Node29 -->
<g id="edge60" class="edge">
<title>Node26&#45;&gt;Node29</title>
<path fill="none" stroke="midnightblue" d="M1548.6,-63.5C1566.37,-53.3 1587.44,-41.21 1604.21,-31.59"/>
<polygon fill="midnightblue" stroke="midnightblue" points="1606.1,-34.54 1613.03,-26.53 1602.62,-28.47 1606.1,-34.54"/>
</g>
<!-- Node30 -->
<g id="node30" class="node">
<title>Node30</title>
<g id="a_node30"><a xlink:title=" ">
<polygon fill="white" stroke="#bfbfbf" points="1324,-0.5 1324,-26.5 1400,-26.5 1400,-0.5 1324,-0.5"/>
<text text-anchor="middle" x="1362" y="-9.7" font-family="Source Sans Pro" font-size="16.00">iostream</text>
</a>
</g>
</g>
<!-- Node26&#45;&gt;Node30 -->
<g id="edge61" class="edge">
<title>Node26&#45;&gt;Node30</title>
<path fill="none" stroke="midnightblue" d="M1467,-63.5C1444.54,-53.02 1417.8,-40.54 1396.92,-30.8"/>
<polygon fill="midnightblue" stroke="midnightblue" points="1398.32,-27.59 1387.78,-26.53 1395.36,-33.93 1398.32,-27.59"/>
</g>
<!-- Node31&#45;&gt;Node3 -->
<g id="edge69" class="edge">
<title>Node31&#45;&gt;Node3</title>
<path fill="none" stroke="midnightblue" d="M496.78,-388.71C421.68,-374.93 335.57,-357.84 330,-351 271.88,-279.68 296.94,-229.85 330,-144 335.76,-129.04 347.42,-115.56 358.23,-105.41"/>
<polygon fill="midnightblue" stroke="midnightblue" points="360.71,-107.9 365.87,-98.64 356.06,-102.66 360.71,-107.9"/>
</g>
<!-- Node31&#45;&gt;Node7 -->
<g id="edge68" class="edge">
<title>Node31&#45;&gt;Node7</title>
<path fill="none" stroke="midnightblue" d="M496.65,-389.27C409.35,-374.08 302.47,-354.82 299,-351 212.29,-255.42 233.98,-142.04 336,-63 399.11,-14.11 971.16,-13.45 1128.89,-14.22"/>
<polygon fill="midnightblue" stroke="midnightblue" points="1129.08,-17.72 1139.09,-14.27 1129.11,-10.72 1129.08,-17.72"/>
</g>
<!-- Node31&#45;&gt;Node8 -->
<g id="edge70" class="edge">
<title>Node31&#45;&gt;Node8</title>
<path fill="none" stroke="midnightblue" d="M496.81,-390.04C454.55,-380.61 413.62,-367.58 401,-351 388.89,-335.08 392.02,-323.87 401,-306 430.59,-247.14 603.44,-144.13 674.5,-103.59"/>
<polygon fill="midnightblue" stroke="midnightblue" points="676.47,-106.5 683.44,-98.52 673.02,-100.41 676.47,-106.5"/>
</g>
<!-- Node32 -->
<g id="node32" class="node">
<title>Node32</title>
<g id="a_node32"><a xlink:href="_i_e_buffer_memory_barrier_8hpp.html" target="_top" xlink:title=" ">
<polygon fill="white" stroke="black" points="410.5,-315.5 410.5,-341.5 613.5,-341.5 613.5,-315.5 410.5,-315.5"/>
<text text-anchor="middle" x="512" y="-324.7" font-family="Source Sans Pro" font-size="16.00">IEBufferMemoryBarrier.hpp</text>
</a>
</g>
</g>
<!-- Node31&#45;&gt;Node32 -->
<g id="edge71" class="edge">
<title>Node31&#45;&gt;Node32</title>
<path fill="none" stroke="midnightblue" d="M583.01,-387.33C567.99,-375.1 549.29,-359.87 534.84,-348.1"/>
<polygon fill="midnightblue" stroke="midnightblue" points="536.85,-345.23 526.89,-341.63 532.43,-350.66 536.85,-345.23"/>
</g>
<!-- Node33 -->
<g id="node33" class="node">
<title>Node33</title>
<g id="a_node33"><a xlink:href="_i_e_image_memory_barrier_8hpp.html" target="_top" xlink:title=" ">
<polygon fill="white" stroke="black" points="631.5,-315.5 631.5,-341.5 834.5,-341.5 834.5,-315.5 631.5,-315.5"/>
<text text-anchor="middle" x="733" y="-324.7" font-family="Source Sans Pro" font-size="16.00">IEImageMemoryBarrier.hpp</text>
</a>
</g>
</g>
<!-- Node31&#45;&gt;Node33 -->
<g id="edge75" class="edge">
<title>Node31&#45;&gt;Node33</title>
<path fill="none" stroke="midnightblue" d="M642.23,-387.33C661.96,-374.76 686.68,-359.01 705.34,-347.12"/>
<polygon fill="midnightblue" stroke="midnightblue" points="707.41,-349.95 713.96,-341.63 703.65,-344.05 707.41,-349.95"/>
</g>
<!-- Node32&#45;&gt;Node3 -->
<g id="edge73" class="edge">
<title>Node32&#45;&gt;Node3</title>
<path fill="none" stroke="midnightblue" d="M493.63,-315.35C478.75,-304.76 458.01,-288.29 444,-270 406.01,-220.41 390.5,-146.15 384.86,-109.15"/>
<polygon fill="midnightblue" stroke="midnightblue" points="388.28,-108.34 383.41,-98.93 381.35,-109.32 388.28,-108.34"/>
</g>
<!-- Node32&#45;&gt;Node8 -->
<g id="edge72" class="edge">
<title>Node32&#45;&gt;Node8</title>
<path fill="none" stroke="midnightblue" d="M521.39,-315.39C544.31,-285.88 605.03,-207.98 657,-144 667.19,-131.45 678.8,-117.53 688.05,-106.53"/>
<polygon fill="midnightblue" stroke="midnightblue" points="690.84,-108.66 694.6,-98.76 685.48,-104.15 690.84,-108.66"/>
</g>
<!-- Node32&#45;&gt;Node22 -->
<g id="edge74" class="edge">
<title>Node32&#45;&gt;Node22</title>
<path fill="none" stroke="midnightblue" d="M565.47,-315.45C583.35,-311.85 603.46,-308.26 622,-306 940.92,-267.08 1026.4,-318.53 1344,-270 1354.93,-268.33 1366.5,-265.82 1377.42,-263.1"/>
<polygon fill="midnightblue" stroke="midnightblue" points="1378.43,-266.45 1387.24,-260.55 1376.68,-259.67 1378.43,-266.45"/>
</g>
<!-- Node33&#45;&gt;Node3 -->
<g id="edge76" class="edge">
<title>Node33&#45;&gt;Node3</title>
<path fill="none" stroke="midnightblue" d="M685.43,-315.46C622.87,-297.47 512.84,-258.05 444,-189 420.19,-165.12 401.67,-130.36 391.29,-108.09"/>
<polygon fill="midnightblue" stroke="midnightblue" points="394.41,-106.5 387.1,-98.82 388.03,-109.38 394.41,-106.5"/>
</g>
<!-- Node33&#45;&gt;Node5 -->
<g id="edge78" class="edge">
<title>Node33&#45;&gt;Node5</title>
<path fill="none" stroke="midnightblue" d="M787.24,-315.45C805.22,-311.87 825.4,-308.29 844,-306 1137.76,-269.77 1214.6,-300.66 1509,-270 1522.49,-268.6 1536.66,-266.79 1550.59,-264.82"/>
<polygon fill="midnightblue" stroke="midnightblue" points="1551.28,-268.26 1560.68,-263.36 1550.28,-261.33 1551.28,-268.26"/>
</g>
<!-- Node33&#45;&gt;Node8 -->
<g id="edge77" class="edge">
<title>Node33&#45;&gt;Node8</title>
<path fill="none" stroke="midnightblue" d="M713.26,-315.37C698.82,-305.25 680.36,-289.38 672,-270 649.81,-218.58 657.58,-198.11 672,-144 675.49,-130.93 682.73,-117.73 689.54,-107.29"/>
<polygon fill="midnightblue" stroke="midnightblue" points="692.54,-109.11 695.32,-98.89 686.77,-105.15 692.54,-109.11"/>
</g>
<!-- Node34&#45;&gt;Node3 -->
<g id="edge80" class="edge">
<title>Node34&#45;&gt;Node3</title>
<path fill="none" stroke="midnightblue" d="M1051.23,-307.31C1048.12,-306.87 1045.04,-306.43 1042,-306 924.31,-289.34 891.07,-303.41 777,-270 632.79,-227.76 474.45,-140.52 410.81,-103.6"/>
<polygon fill="midnightblue" stroke="midnightblue" points="412.52,-100.55 402.12,-98.53 409,-106.59 412.52,-100.55"/>
</g>
<!-- Node34&#45;&gt;Node5 -->
<g id="edge83" class="edge">
<title>Node34&#45;&gt;Node5</title>
<path fill="none" stroke="midnightblue" d="M1310.37,-306.49C1385.58,-293.57 1480.63,-277.24 1550.7,-265.21"/>
<polygon fill="midnightblue" stroke="midnightblue" points="1551.59,-268.61 1560.85,-263.47 1550.4,-261.71 1551.59,-268.61"/>
</g>
<!-- Node34&#45;&gt;Node8 -->
<g id="edge81" class="edge">
<title>Node34&#45;&gt;Node8</title>
<path fill="none" stroke="midnightblue" d="M1051.36,-306.95C950.28,-291.59 829.23,-272.77 824,-270 813.09,-264.23 754.72,-199.35 748,-189 731.29,-163.24 718.74,-129.9 711.64,-108.36"/>
<polygon fill="midnightblue" stroke="midnightblue" points="714.88,-107.01 708.51,-98.55 708.21,-109.14 714.88,-107.01"/>
</g>
<!-- Node34&#45;&gt;Node22 -->
<g id="edge82" class="edge">
<title>Node34&#45;&gt;Node22</title>
<path fill="none" stroke="midnightblue" d="M1251.73,-306.43C1292.31,-293.02 1343.94,-275.96 1380.63,-263.83"/>
<polygon fill="midnightblue" stroke="midnightblue" points="1382.16,-267.01 1390.56,-260.55 1379.96,-260.36 1382.16,-267.01"/>
</g>
</g>
</svg>
