<?xml version="1.0" encoding="UTF-8" standalone="no"?>
<!DOCTYPE svg PUBLIC "-//W3C//DTD SVG 1.1//EN"
 "http://www.w3.org/Graphics/SVG/1.1/DTD/svg11.dtd">
<!-- Generated by graphviz version 2.43.0 (0)
 -->
<!-- Title: Illumination&#45;Engine/src/GraphicsModule/IECamera.hpp Pages: 1 -->
<svg width="3415pt" height="350pt"
 viewBox="0.00 0.00 3414.50 350.00" xmlns="http://www.w3.org/2000/svg" xmlns:xlink="http://www.w3.org/1999/xlink">
<g id="graph0" class="graph" transform="scale(1 1) rotate(0) translate(4 346)">
<title>Illumination&#45;Engine/src/GraphicsModule/IECamera.hpp</title>
<polygon fill="white" stroke="transparent" points="-4,4 -4,-346 3410.5,-346 3410.5,4 -4,4"/>
<!-- Node1 -->
<g id="node1" class="node">
<title>Node1</title>
<g id="a_node1"><a xlink:title=" ">
<polygon fill="#bfbfbf" stroke="black" points="746,-279.5 746,-341.5 903,-341.5 903,-279.5 746,-279.5"/>
<text text-anchor="start" x="754" y="-324.7" font-family="Source Sans Pro" font-size="16.00">Illumination&#45;Engine</text>
<text text-anchor="start" x="754" y="-306.7" font-family="Source Sans Pro" font-size="16.00">/src/GraphicsModule</text>
<text text-anchor="middle" x="824.5" y="-288.7" font-family="Source Sans Pro" font-size="16.00">/IECamera.hpp</text>
</a>
</g>
</g>
<!-- Node2 -->
<g id="node2" class="node">
<title>Node2</title>
<g id="a_node2"><a xlink:href="_i_e_camera_8cpp.html" target="_top" xlink:title=" ">
<polygon fill="white" stroke="black" points="0,-81.5 0,-143.5 157,-143.5 157,-81.5 0,-81.5"/>
<text text-anchor="start" x="8" y="-126.7" font-family="Source Sans Pro" font-size="16.00">Illumination&#45;Engine</text>
<text text-anchor="start" x="8" y="-108.7" font-family="Source Sans Pro" font-size="16.00">/src/GraphicsModule</text>
<text text-anchor="middle" x="78.5" y="-90.7" font-family="Source Sans Pro" font-size="16.00">/IECamera.cpp</text>
</a>
</g>
</g>
<!-- Node1&#45;&gt;Node2 -->
<g id="edge1" class="edge">
<title>Node1&#45;&gt;Node2</title>
<path fill="none" stroke="midnightblue" d="M735.67,-289.9C608.44,-261.22 367.36,-204.59 165.5,-144 162.74,-143.17 159.94,-142.31 157.12,-141.42"/>
<polygon fill="midnightblue" stroke="midnightblue" points="735.23,-293.39 745.76,-292.17 736.77,-286.56 735.23,-293.39"/>
</g>
<!-- Node3 -->
<g id="node3" class="node">
<title>Node3</title>
<g id="a_node3"><a xlink:href="_i_e_render_engine_8hpp.html" target="_top" xlink:title=" ">
<polygon fill="white" stroke="black" points="1491,-180.5 1491,-242.5 1652,-242.5 1652,-180.5 1491,-180.5"/>
<text text-anchor="start" x="1499" y="-225.7" font-family="Source Sans Pro" font-size="16.00">Illumination&#45;Engine</text>
<text text-anchor="start" x="1499" y="-207.7" font-family="Source Sans Pro" font-size="16.00">/src/GraphicsModule</text>
<text text-anchor="middle" x="1571.5" y="-189.7" font-family="Source Sans Pro" font-size="16.00">/IERenderEngine.hpp</text>
</a>
</g>
</g>
<!-- Node1&#45;&gt;Node3 -->
<g id="edge2" class="edge">
<title>Node1&#45;&gt;Node3</title>
<path fill="none" stroke="midnightblue" d="M913.33,-297.97C1059.86,-278.94 1350,-241.26 1490.92,-222.96"/>
<polygon fill="midnightblue" stroke="midnightblue" points="912.5,-294.54 903.03,-299.3 913.4,-301.49 912.5,-294.54"/>
</g>
<!-- Node3&#45;&gt;Node2 -->
<g id="edge7" class="edge">
<title>Node3&#45;&gt;Node2</title>
<path fill="none" stroke="midnightblue" d="M1480.58,-206.92C1179.45,-194.99 230.02,-156.56 165.5,-144 162.83,-143.48 160.13,-142.89 157.42,-142.26"/>
<polygon fill="midnightblue" stroke="midnightblue" points="1480.46,-210.42 1490.59,-207.32 1480.74,-203.43 1480.46,-210.42"/>
</g>
<!-- Node4 -->
<g id="node4" class="node">
<title>Node4</title>
<g id="a_node4"><a xlink:href="_i_e_buffer_8cpp.html" target="_top" xlink:title=" ">
<polygon fill="white" stroke="black" points="175,-81.5 175,-143.5 332,-143.5 332,-81.5 175,-81.5"/>
<text text-anchor="start" x="183" y="-126.7" font-family="Source Sans Pro" font-size="16.00">Illumination&#45;Engine</text>
<text text-anchor="start" x="183" y="-108.7" font-family="Source Sans Pro" font-size="16.00">/src/GraphicsModule</text>
<text text-anchor="middle" x="253.5" y="-90.7" font-family="Source Sans Pro" font-size="16.00">/Buffer/IEBuffer.cpp</text>
</a>
</g>
</g>
<!-- Node3&#45;&gt;Node4 -->
<g id="edge3" class="edge">
<title>Node3&#45;&gt;Node4</title>
<path fill="none" stroke="midnightblue" d="M1480.38,-207.04C1214.62,-196.76 452.1,-165.71 341.5,-144 338.49,-143.41 335.43,-142.74 332.37,-142"/>
<polygon fill="midnightblue" stroke="midnightblue" points="1480.64,-210.56 1490.77,-207.45 1480.91,-203.56 1480.64,-210.56"/>
</g>
<!-- Node5 -->
<g id="node5" class="node">
<title>Node5</title>
<g id="a_node5"><a xlink:href="_i_e_command_buffer_8cpp.html" target="_top" xlink:title=" ">
<polygon fill="white" stroke="black" points="350,-81.5 350,-143.5 643,-143.5 643,-81.5 350,-81.5"/>
<text text-anchor="start" x="358" y="-126.7" font-family="Source Sans Pro" font-size="16.00">Illumination&#45;Engine</text>
<text text-anchor="start" x="358" y="-108.7" font-family="Source Sans Pro" font-size="16.00">/src/GraphicsModule</text>
<text text-anchor="middle" x="496.5" y="-90.7" font-family="Source Sans Pro" font-size="16.00">/CommandBuffer/IECommandBuffer.cpp</text>
</a>
</g>
</g>
<!-- Node3&#45;&gt;Node5 -->
<g id="edge4" class="edge">
<title>Node3&#45;&gt;Node5</title>
<path fill="none" stroke="midnightblue" d="M1480.83,-207.57C1315.54,-201.43 954.38,-184.28 652.5,-144 649.49,-143.6 646.45,-143.18 643.39,-142.73"/>
<polygon fill="midnightblue" stroke="midnightblue" points="1480.83,-211.08 1490.96,-207.94 1481.09,-204.08 1480.83,-211.08"/>
</g>
<!-- Node6 -->
<g id="node6" class="node">
<title>Node6</title>
<g id="a_node6"><a xlink:href="_i_e_command_pool_8cpp.html" target="_top" xlink:title=" ">
<polygon fill="white" stroke="black" points="661.5,-81.5 661.5,-143.5 945.5,-143.5 945.5,-81.5 661.5,-81.5"/>
<text text-anchor="start" x="669.5" y="-126.7" font-family="Source Sans Pro" font-size="16.00">Illumination&#45;Engine</text>
<text text-anchor="start" x="669.5" y="-108.7" font-family="Source Sans Pro" font-size="16.00">/src/GraphicsModule</text>
<text text-anchor="middle" x="803.5" y="-90.7" font-family="Source Sans Pro" font-size="16.00">/CommandBuffer/IECommandPool.cpp</text>
</a>
</g>
</g>
<!-- Node3&#45;&gt;Node6 -->
<g id="edge5" class="edge">
<title>Node3&#45;&gt;Node6</title>
<path fill="none" stroke="midnightblue" d="M1480.69,-203.29C1360.24,-193.12 1141.19,-172.59 955.5,-144 952.31,-143.51 949.08,-143 945.83,-142.47"/>
<polygon fill="midnightblue" stroke="midnightblue" points="1480.71,-206.8 1490.97,-204.15 1481.3,-199.82 1480.71,-206.8"/>
</g>
<!-- Node7 -->
<g id="node7" class="node">
<title>Node7</title>
<g id="a_node7"><a xlink:href="_i_e_a_p_i_8cpp.html" target="_top" xlink:title=" ">
<polygon fill="white" stroke="black" points="964,-81.5 964,-143.5 1121,-143.5 1121,-81.5 964,-81.5"/>
<text text-anchor="start" x="972" y="-126.7" font-family="Source Sans Pro" font-size="16.00">Illumination&#45;Engine</text>
<text text-anchor="start" x="972" y="-108.7" font-family="Source Sans Pro" font-size="16.00">/src/GraphicsModule</text>
<text text-anchor="middle" x="1042.5" y="-90.7" font-family="Source Sans Pro" font-size="16.00">/IEAPI.cpp</text>
</a>
</g>
</g>
<!-- Node3&#45;&gt;Node7 -->
<g id="edge6" class="edge">
<title>Node3&#45;&gt;Node7</title>
<path fill="none" stroke="midnightblue" d="M1480.81,-201.76C1390.98,-191.95 1249.94,-173.44 1130.5,-144 1127.52,-143.26 1124.49,-142.47 1121.45,-141.63"/>
<polygon fill="midnightblue" stroke="midnightblue" points="1480.65,-205.26 1490.97,-202.85 1481.4,-198.3 1480.65,-205.26"/>
</g>
<!-- Node8 -->
<g id="node8" class="node">
<title>Node8</title>
<g id="a_node8"><a xlink:href="_i_e_render_engine_8cpp.html" target="_top" xlink:title=" ">
<polygon fill="white" stroke="black" points="1139,-81.5 1139,-143.5 1298,-143.5 1298,-81.5 1139,-81.5"/>
<text text-anchor="start" x="1147" y="-126.7" font-family="Source Sans Pro" font-size="16.00">Illumination&#45;Engine</text>
<text text-anchor="start" x="1147" y="-108.7" font-family="Source Sans Pro" font-size="16.00">/src/GraphicsModule</text>
<text text-anchor="middle" x="1218.5" y="-90.7" font-family="Source Sans Pro" font-size="16.00">/IERenderEngine.cpp</text>
</a>
</g>
</g>
<!-- Node3&#45;&gt;Node8 -->
<g id="edge8" class="edge">
<title>Node3&#45;&gt;Node8</title>
<path fill="none" stroke="midnightblue" d="M1480.69,-189.6C1429.54,-177.34 1364.64,-160.95 1307.5,-144 1304.52,-143.12 1301.5,-142.2 1298.45,-141.25"/>
<polygon fill="midnightblue" stroke="midnightblue" points="1480.19,-193.08 1490.73,-192 1481.82,-186.28 1480.19,-193.08"/>
</g>
<!-- Node10 -->
<g id="node10" class="node">
<title>Node10</title>
<g id="a_node10"><a xlink:href="_i_e_image_8cpp.html" target="_top" xlink:title=" ">
<polygon fill="white" stroke="black" points="1316,-81.5 1316,-143.5 1473,-143.5 1473,-81.5 1316,-81.5"/>
<text text-anchor="start" x="1324" y="-126.7" font-family="Source Sans Pro" font-size="16.00">Illumination&#45;Engine</text>
<text text-anchor="start" x="1324" y="-108.7" font-family="Source Sans Pro" font-size="16.00">/src/GraphicsModule</text>
<text text-anchor="middle" x="1394.5" y="-90.7" font-family="Source Sans Pro" font-size="16.00">/Image/IEImage.cpp</text>
</a>
</g>
</g>
<!-- Node3&#45;&gt;Node10 -->
<g id="edge10" class="edge">
<title>Node3&#45;&gt;Node10</title>
<path fill="none" stroke="midnightblue" d="M1507.57,-175.47C1488.55,-165.04 1467.89,-153.72 1449.5,-143.64"/>
<polygon fill="midnightblue" stroke="midnightblue" points="1506.01,-178.6 1516.47,-180.34 1509.38,-172.47 1506.01,-178.6"/>
</g>
<!-- Node11 -->
<g id="node11" class="node">
<title>Node11</title>
<g id="a_node11"><a xlink:href="_i_e_texture_8cpp.html" target="_top" xlink:title=" ">
<polygon fill="white" stroke="black" points="1491,-81.5 1491,-143.5 1652,-143.5 1652,-81.5 1491,-81.5"/>
<text text-anchor="start" x="1499" y="-126.7" font-family="Source Sans Pro" font-size="16.00">Illumination&#45;Engine</text>
<text text-anchor="start" x="1499" y="-108.7" font-family="Source Sans Pro" font-size="16.00">/src/GraphicsModule</text>
<text text-anchor="middle" x="1571.5" y="-90.7" font-family="Source Sans Pro" font-size="16.00">/Image/IETexture.cpp</text>
</a>
</g>
</g>
<!-- Node3&#45;&gt;Node11 -->
<g id="edge11" class="edge">
<title>Node3&#45;&gt;Node11</title>
<path fill="none" stroke="midnightblue" d="M1571.5,-170.17C1571.5,-161.29 1571.5,-152.03 1571.5,-143.64"/>
<polygon fill="midnightblue" stroke="midnightblue" points="1568,-170.34 1571.5,-180.34 1575,-170.34 1568,-170.34"/>
</g>
<!-- Node12 -->
<g id="node12" class="node">
<title>Node12</title>
<g id="a_node12"><a xlink:href="_i_e_framebuffer_8cpp.html" target="_top" xlink:title=" ">
<polygon fill="white" stroke="black" points="1670.5,-81.5 1670.5,-143.5 1900.5,-143.5 1900.5,-81.5 1670.5,-81.5"/>
<text text-anchor="start" x="1678.5" y="-126.7" font-family="Source Sans Pro" font-size="16.00">Illumination&#45;Engine</text>
<text text-anchor="start" x="1678.5" y="-108.7" font-family="Source Sans Pro" font-size="16.00">/src/GraphicsModule</text>
<text text-anchor="middle" x="1785.5" y="-90.7" font-family="Source Sans Pro" font-size="16.00">/RenderPass/IEFramebuffer.cpp</text>
</a>
</g>
</g>
<!-- Node3&#45;&gt;Node12 -->
<g id="edge12" class="edge">
<title>Node3&#45;&gt;Node12</title>
<path fill="none" stroke="midnightblue" d="M1646.99,-176.28C1670.54,-165.61 1696.33,-153.92 1719.2,-143.55"/>
<polygon fill="midnightblue" stroke="midnightblue" points="1645.41,-173.16 1637.75,-180.47 1648.3,-179.53 1645.41,-173.16"/>
</g>
<!-- Node13 -->
<g id="node13" class="node">
<title>Node13</title>
<g id="a_node13"><a xlink:href="_i_e_render_pass_8cpp.html" target="_top" xlink:title=" ">
<polygon fill="white" stroke="black" points="1919,-81.5 1919,-143.5 2146,-143.5 2146,-81.5 1919,-81.5"/>
<text text-anchor="start" x="1927" y="-126.7" font-family="Source Sans Pro" font-size="16.00">Illumination&#45;Engine</text>
<text text-anchor="start" x="1927" y="-108.7" font-family="Source Sans Pro" font-size="16.00">/src/GraphicsModule</text>
<text text-anchor="middle" x="2032.5" y="-90.7" font-family="Source Sans Pro" font-size="16.00">/RenderPass/IERenderPass.cpp</text>
</a>
</g>
</g>
<!-- Node3&#45;&gt;Node13 -->
<g id="edge13" class="edge">
<title>Node3&#45;&gt;Node13</title>
<path fill="none" stroke="midnightblue" d="M1662.17,-193.9C1730.37,-181.12 1826.03,-162.55 1909.5,-144 1912.61,-143.31 1915.77,-142.6 1918.95,-141.87"/>
<polygon fill="midnightblue" stroke="midnightblue" points="1661.5,-190.47 1652.32,-195.75 1662.79,-197.35 1661.5,-190.47"/>
</g>
<!-- Node14 -->
<g id="node14" class="node">
<title>Node14</title>
<g id="a_node14"><a xlink:href="_i_e_material_8cpp.html" target="_top" xlink:title=" ">
<polygon fill="white" stroke="black" points="2164,-81.5 2164,-143.5 2365,-143.5 2365,-81.5 2164,-81.5"/>
<text text-anchor="start" x="2172" y="-126.7" font-family="Source Sans Pro" font-size="16.00">Illumination&#45;Engine</text>
<text text-anchor="start" x="2172" y="-108.7" font-family="Source Sans Pro" font-size="16.00">/src/GraphicsModule</text>
<text text-anchor="middle" x="2264.5" y="-90.7" font-family="Source Sans Pro" font-size="16.00">/Renderable/IEMaterial.cpp</text>
</a>
</g>
</g>
<!-- Node3&#45;&gt;Node14 -->
<g id="edge14" class="edge">
<title>Node3&#45;&gt;Node14</title>
<path fill="none" stroke="midnightblue" d="M1662.63,-204.64C1778.12,-196.19 1982.95,-177.74 2155.5,-144 2158.3,-143.45 2161.13,-142.87 2163.98,-142.26"/>
<polygon fill="midnightblue" stroke="midnightblue" points="1662.14,-201.17 1652.42,-205.38 1662.64,-208.15 1662.14,-201.17"/>
</g>
<!-- Node15 -->
<g id="node15" class="node">
<title>Node15</title>
<g id="a_node15"><a xlink:href="_i_e_mesh_8cpp.html" target="_top" xlink:title=" ">
<polygon fill="white" stroke="black" points="2383,-81.5 2383,-143.5 2566,-143.5 2566,-81.5 2383,-81.5"/>
<text text-anchor="start" x="2391" y="-126.7" font-family="Source Sans Pro" font-size="16.00">Illumination&#45;Engine</text>
<text text-anchor="start" x="2391" y="-108.7" font-family="Source Sans Pro" font-size="16.00">/src/GraphicsModule</text>
<text text-anchor="middle" x="2474.5" y="-90.7" font-family="Source Sans Pro" font-size="16.00">/Renderable/IEMesh.cpp</text>
</a>
</g>
</g>
<!-- Node3&#45;&gt;Node15 -->
<g id="edge15" class="edge">
<title>Node3&#45;&gt;Node15</title>
<path fill="none" stroke="midnightblue" d="M1662.11,-209.27C1811.74,-205.85 2119.33,-192.9 2374.5,-144 2377.26,-143.47 2380.06,-142.89 2382.87,-142.28"/>
<polygon fill="midnightblue" stroke="midnightblue" points="1661.97,-205.77 1652.05,-209.49 1662.12,-212.77 1661.97,-205.77"/>
</g>
<!-- Node16 -->
<g id="node16" class="node">
<title>Node16</title>
<g id="a_node16"><a xlink:href="_i_e_renderable_8cpp.html" target="_top" xlink:title=" ">
<polygon fill="white" stroke="black" points="2584,-81.5 2584,-143.5 2809,-143.5 2809,-81.5 2584,-81.5"/>
<text text-anchor="start" x="2592" y="-126.7" font-family="Source Sans Pro" font-size="16.00">Illumination&#45;Engine</text>
<text text-anchor="start" x="2592" y="-108.7" font-family="Source Sans Pro" font-size="16.00">/src/GraphicsModule</text>
<text text-anchor="middle" x="2696.5" y="-90.7" font-family="Source Sans Pro" font-size="16.00">/Renderable/IERenderable.cpp</text>
</a>
</g>
</g>
<!-- Node3&#45;&gt;Node16 -->
<g id="edge16" class="edge">
<title>Node3&#45;&gt;Node16</title>
<path fill="none" stroke="midnightblue" d="M1662.12,-209.97C1838.89,-207.72 2241.62,-196.69 2575.5,-144 2578.28,-143.56 2581.09,-143.09 2583.92,-142.59"/>
<polygon fill="midnightblue" stroke="midnightblue" points="1662.04,-206.47 1652.09,-210.09 1662.13,-213.47 1662.04,-206.47"/>
</g>
<!-- Node17 -->
<g id="node17" class="node">
<title>Node17</title>
<g id="a_node17"><a xlink:href="_i_e_descriptor_set_8cpp.html" target="_top" xlink:title=" ">
<polygon fill="white" stroke="black" points="2827,-81.5 2827,-143.5 3034,-143.5 3034,-81.5 2827,-81.5"/>
<text text-anchor="start" x="2835" y="-126.7" font-family="Source Sans Pro" font-size="16.00">Illumination&#45;Engine</text>
<text text-anchor="start" x="2835" y="-108.7" font-family="Source Sans Pro" font-size="16.00">/src/GraphicsModule</text>
<text text-anchor="middle" x="2930.5" y="-90.7" font-family="Source Sans Pro" font-size="16.00">/Shader/IEDescriptorSet.cpp</text>
</a>
</g>
</g>
<!-- Node3&#45;&gt;Node17 -->
<g id="edge17" class="edge">
<title>Node3&#45;&gt;Node17</title>
<path fill="none" stroke="midnightblue" d="M1662.25,-208.17C1910.24,-201.39 2595.64,-179.87 2818.5,-144 2821.29,-143.55 2824.1,-143.06 2826.94,-142.53"/>
<polygon fill="midnightblue" stroke="midnightblue" points="1662.09,-204.67 1652.19,-208.44 1662.28,-211.67 1662.09,-204.67"/>
</g>
<!-- Node18 -->
<g id="node18" class="node">
<title>Node18</title>
<g id="a_node18"><a xlink:href="_i_e_pipeline_8cpp.html" target="_top" xlink:title=" ">
<polygon fill="white" stroke="black" points="3052.5,-81.5 3052.5,-143.5 3224.5,-143.5 3224.5,-81.5 3052.5,-81.5"/>
<text text-anchor="start" x="3060.5" y="-126.7" font-family="Source Sans Pro" font-size="16.00">Illumination&#45;Engine</text>
<text text-anchor="start" x="3060.5" y="-108.7" font-family="Source Sans Pro" font-size="16.00">/src/GraphicsModule</text>
<text text-anchor="middle" x="3138.5" y="-90.7" font-family="Source Sans Pro" font-size="16.00">/Shader/IEPipeline.cpp</text>
</a>
</g>
</g>
<!-- Node3&#45;&gt;Node18 -->
<g id="edge18" class="edge">
<title>Node3&#45;&gt;Node18</title>
<path fill="none" stroke="midnightblue" d="M1662.36,-209.55C1940.29,-206.13 2776.3,-192.04 3043.5,-144 3046.4,-143.48 3049.33,-142.89 3052.28,-142.25"/>
<polygon fill="midnightblue" stroke="midnightblue" points="1662.27,-206.05 1652.31,-209.67 1662.36,-213.05 1662.27,-206.05"/>
</g>
<!-- Node19 -->
<g id="node19" class="node">
<title>Node19</title>
<g id="a_node19"><a xlink:href="_i_e_shader_8cpp.html" target="_top" xlink:title=" ">
<polygon fill="white" stroke="black" points="3242.5,-81.5 3242.5,-143.5 3406.5,-143.5 3406.5,-81.5 3242.5,-81.5"/>
<text text-anchor="start" x="3250.5" y="-126.7" font-family="Source Sans Pro" font-size="16.00">Illumination&#45;Engine</text>
<text text-anchor="start" x="3250.5" y="-108.7" font-family="Source Sans Pro" font-size="16.00">/src/GraphicsModule</text>
<text text-anchor="middle" x="3324.5" y="-90.7" font-family="Source Sans Pro" font-size="16.00">/Shader/IEShader.cpp</text>
</a>
</g>
</g>
<!-- Node3&#45;&gt;Node19 -->
<g id="edge19" class="edge">
<title>Node3&#45;&gt;Node19</title>
<path fill="none" stroke="midnightblue" d="M1662.45,-210.24C1963.87,-208.87 2928.25,-200.08 3233.5,-144 3236.45,-143.46 3239.43,-142.84 3242.44,-142.16"/>
<polygon fill="midnightblue" stroke="midnightblue" points="1661.99,-206.75 1652.01,-210.29 1662.02,-213.75 1661.99,-206.75"/>
</g>
<!-- Node9 -->
<g id="node9" class="node">
<title>Node9</title>
<g id="a_node9"><a xlink:href="main_8cpp.html" target="_top" xlink:title=" ">
<polygon fill="white" stroke="black" points="1143.5,-0.5 1143.5,-44.5 1293.5,-44.5 1293.5,-0.5 1143.5,-0.5"/>
<text text-anchor="start" x="1151.5" y="-27.7" font-family="Source Sans Pro" font-size="16.00">Illumination&#45;Engine</text>
<text text-anchor="middle" x="1218.5" y="-9.7" font-family="Source Sans Pro" font-size="16.00">/src/main.cpp</text>
</a>
</g>
</g>
<!-- Node8&#45;&gt;Node9 -->
<g id="edge9" class="edge">
<title>Node8&#45;&gt;Node9</title>
<path fill="none" stroke="midnightblue" d="M1218.5,-71.09C1218.5,-61.97 1218.5,-52.64 1218.5,-44.68"/>
<polygon fill="midnightblue" stroke="midnightblue" points="1215,-71.22 1218.5,-81.22 1222,-71.22 1215,-71.22"/>
</g>
</g>
</svg>
