<?xml version="1.0" encoding="UTF-8" standalone="no"?>
<!DOCTYPE svg PUBLIC "-//W3C//DTD SVG 1.1//EN"
 "http://www.w3.org/Graphics/SVG/1.1/DTD/svg11.dtd">
<!-- Generated by graphviz version 2.43.0 (0)
 -->
<!-- Title: Illumination&#45;Engine/src/GraphicsModule/CommandBuffer/IECommandBuffer.hpp Pages: 1 -->
<svg width="2199pt" height="539pt"
 viewBox="0.00 0.00 2198.75 539.00" xmlns="http://www.w3.org/2000/svg" xmlns:xlink="http://www.w3.org/1999/xlink">
<g id="graph0" class="graph" transform="scale(1 1) rotate(0) translate(4 535)">
<title>Illumination&#45;Engine/src/GraphicsModule/CommandBuffer/IECommandBuffer.hpp</title>
<polygon fill="white" stroke="transparent" points="-4,4 -4,-535 2194.75,-535 2194.75,4 -4,4"/>
<!-- Node1 -->
<g id="node1" class="node">
<title>Node1</title>
<g id="a_node1"><a xlink:title=" ">
<polygon fill="#bfbfbf" stroke="black" points="1619.25,-468.5 1619.25,-530.5 1914.25,-530.5 1914.25,-468.5 1619.25,-468.5"/>
<text text-anchor="start" x="1627.25" y="-513.7" font-family="Source Sans Pro" font-size="16.00">Illumination&#45;Engine</text>
<text text-anchor="start" x="1627.25" y="-495.7" font-family="Source Sans Pro" font-size="16.00">/src/GraphicsModule</text>
<text text-anchor="middle" x="1766.75" y="-477.7" font-family="Source Sans Pro" font-size="16.00">/CommandBuffer/IECommandBuffer.hpp</text>
</a>
</g>
</g>
<!-- Node2 -->
<g id="node2" class="node">
<title>Node2</title>
<g id="a_node2"><a xlink:href="_i_e_buffer_8hpp.html" target="_top" xlink:title=" ">
<polygon fill="white" stroke="black" points="671.25,-234.5 671.25,-260.5 818.25,-260.5 818.25,-234.5 671.25,-234.5"/>
<text text-anchor="middle" x="744.75" y="-243.7" font-family="Source Sans Pro" font-size="16.00">Buffer/IEBuffer.hpp</text>
</a>
</g>
</g>
<!-- Node1&#45;&gt;Node2 -->
<g id="edge1" class="edge">
<title>Node1&#45;&gt;Node2</title>
<path fill="none" stroke="midnightblue" d="M1619.24,-492.29C1301.56,-477.37 575.51,-434.42 503.75,-351 454,-293.17 572.99,-267.11 660.9,-256.02"/>
<polygon fill="midnightblue" stroke="midnightblue" points="661.41,-259.49 670.91,-254.81 660.56,-252.54 661.41,-259.49"/>
</g>
<!-- Node6 -->
<g id="node6" class="node">
<title>Node6</title>
<g id="a_node6"><a xlink:title=" ">
<polygon fill="white" stroke="#bfbfbf" points="1147.25,-0.5 1147.25,-26.5 1206.25,-26.5 1206.25,-0.5 1147.25,-0.5"/>
<text text-anchor="middle" x="1176.75" y="-9.7" font-family="Source Sans Pro" font-size="16.00">vector</text>
</a>
</g>
</g>
<!-- Node1&#45;&gt;Node6 -->
<g id="edge79" class="edge">
<title>Node1&#45;&gt;Node6</title>
<path fill="none" stroke="midnightblue" d="M1830.53,-468.47C1846.56,-458.61 1862.63,-446.41 1874.75,-432 1961.69,-328.64 2035.6,-263.02 1971.75,-144 1940.99,-86.65 1911.34,-84.03 1849.75,-63 1731.53,-22.63 1343.15,-15.86 1216.84,-14.73"/>
<polygon fill="midnightblue" stroke="midnightblue" points="1216.5,-11.23 1206.47,-14.64 1216.44,-18.23 1216.5,-11.23"/>
</g>
<!-- Node7 -->
<g id="node7" class="node">
<title>Node7</title>
<g id="a_node7"><a xlink:title=" ">
<polygon fill="white" stroke="#bfbfbf" points="1213.25,-72.5 1213.25,-98.5 1338.25,-98.5 1338.25,-72.5 1213.25,-72.5"/>
<text text-anchor="middle" x="1275.75" y="-81.7" font-family="Source Sans Pro" font-size="16.00">vulkan/vulkan.h</text>
</a>
</g>
</g>
<!-- Node1&#45;&gt;Node7 -->
<g id="edge80" class="edge">
<title>Node1&#45;&gt;Node7</title>
<path fill="none" stroke="midnightblue" d="M1796.62,-468.21C1805.14,-457.62 1813.31,-445.09 1817.75,-432 1824.18,-413.06 1826.18,-405.14 1817.75,-387 1798.63,-345.84 1610.1,-189.67 1515.75,-144 1462.71,-118.33 1397.4,-103.65 1348.3,-95.55"/>
<polygon fill="midnightblue" stroke="midnightblue" points="1348.82,-92.09 1338.4,-93.97 1347.72,-99 1348.82,-92.09"/>
</g>
<!-- Node14 -->
<g id="node14" class="node">
<title>Node14</title>
<g id="a_node14"><a xlink:href="_i_e_copy_buffer_to_image_info_8hpp.html" target="_top" xlink:title=" ">
<polygon fill="white" stroke="black" points="742.25,-306.5 742.25,-350.5 1015.25,-350.5 1015.25,-306.5 742.25,-306.5"/>
<text text-anchor="start" x="750.25" y="-333.7" font-family="Source Sans Pro" font-size="16.00">CommandBuffer/Dependency</text>
<text text-anchor="middle" x="878.75" y="-315.7" font-family="Source Sans Pro" font-size="16.00">Structs/IECopyBufferToImageInfo.hpp</text>
</a>
</g>
</g>
<!-- Node1&#45;&gt;Node14 -->
<g id="edge19" class="edge">
<title>Node1&#45;&gt;Node14</title>
<path fill="none" stroke="midnightblue" d="M1619.03,-488.45C1505.41,-478.91 1344.98,-461.54 1206.75,-432 1114.08,-412.19 1010.13,-377.5 944.57,-354.03"/>
<polygon fill="midnightblue" stroke="midnightblue" points="945.38,-350.6 934.79,-350.5 943.01,-357.18 945.38,-350.6"/>
</g>
<!-- Node15 -->
<g id="node15" class="node">
<title>Node15</title>
<g id="a_node15"><a xlink:href="_i_e_image_8hpp.html" target="_top" xlink:title=" ">
<polygon fill="white" stroke="black" points="385.25,-234.5 385.25,-260.5 534.25,-260.5 534.25,-234.5 385.25,-234.5"/>
<text text-anchor="middle" x="459.75" y="-243.7" font-family="Source Sans Pro" font-size="16.00">Image/IEImage.hpp</text>
</a>
</g>
</g>
<!-- Node1&#45;&gt;Node15 -->
<g id="edge75" class="edge">
<title>Node1&#45;&gt;Node15</title>
<path fill="none" stroke="midnightblue" d="M1619.24,-495.42C1323.54,-488.49 678.48,-469.28 584.75,-432 532.88,-411.37 519.01,-397.91 488.75,-351 472.8,-326.27 465.48,-292.68 462.21,-270.8"/>
<polygon fill="midnightblue" stroke="midnightblue" points="465.67,-270.27 460.89,-260.82 458.73,-271.19 465.67,-270.27"/>
</g>
<!-- Node17 -->
<g id="node17" class="node">
<title>Node17</title>
<g id="a_node17"><a xlink:href="_i_e_dependency_info_8hpp.html" target="_top" xlink:title=" ">
<polygon fill="white" stroke="black" points="1584.75,-387.5 1584.75,-431.5 1808.75,-431.5 1808.75,-387.5 1584.75,-387.5"/>
<text text-anchor="start" x="1592.75" y="-414.7" font-family="Source Sans Pro" font-size="16.00">CommandBuffer/Dependency</text>
<text text-anchor="middle" x="1696.75" y="-396.7" font-family="Source Sans Pro" font-size="16.00">Structs/IEDependencyInfo.hpp</text>
</a>
</g>
</g>
<!-- Node1&#45;&gt;Node17 -->
<g id="edge34" class="edge">
<title>Node1&#45;&gt;Node17</title>
<path fill="none" stroke="midnightblue" d="M1742.66,-468.22C1735.33,-459 1727.3,-448.9 1720.02,-439.76"/>
<polygon fill="midnightblue" stroke="midnightblue" points="1722.57,-437.33 1713.6,-431.68 1717.09,-441.69 1722.57,-437.33"/>
</g>
<!-- Node20 -->
<g id="node20" class="node">
<title>Node20</title>
<g id="a_node20"><a xlink:href="_i_e_render_pass_begin_info_8hpp.html" target="_top" xlink:title=" ">
<polygon fill="white" stroke="black" points="1310.75,-387.5 1310.75,-431.5 1566.75,-431.5 1566.75,-387.5 1310.75,-387.5"/>
<text text-anchor="start" x="1318.75" y="-414.7" font-family="Source Sans Pro" font-size="16.00">CommandBuffer/Dependency</text>
<text text-anchor="middle" x="1438.75" y="-396.7" font-family="Source Sans Pro" font-size="16.00">Structs/IERenderPassBeginInfo.hpp</text>
</a>
</g>
</g>
<!-- Node1&#45;&gt;Node20 -->
<g id="edge46" class="edge">
<title>Node1&#45;&gt;Node20</title>
<path fill="none" stroke="midnightblue" d="M1654.79,-468.46C1613.04,-457.26 1566.28,-444.72 1526.97,-434.17"/>
<polygon fill="midnightblue" stroke="midnightblue" points="1527.7,-430.74 1517.14,-431.53 1525.89,-437.5 1527.7,-430.74"/>
</g>
<!-- Node22 -->
<g id="node22" class="node">
<title>Node22</title>
<g id="a_node22"><a xlink:href="_i_e_pipeline_8hpp.html" target="_top" xlink:title=" ">
<polygon fill="white" stroke="black" points="1033.75,-306.5 1033.75,-350.5 1213.75,-350.5 1213.75,-306.5 1033.75,-306.5"/>
<text text-anchor="start" x="1041.75" y="-333.7" font-family="Source Sans Pro" font-size="16.00">GraphicsModule/Shader</text>
<text text-anchor="middle" x="1123.75" y="-315.7" font-family="Source Sans Pro" font-size="16.00">/IEPipeline.hpp</text>
</a>
</g>
</g>
<!-- Node1&#45;&gt;Node22 -->
<g id="edge53" class="edge">
<title>Node1&#45;&gt;Node22</title>
<path fill="none" stroke="midnightblue" d="M1619.14,-491.72C1526.01,-483.98 1404.38,-467.41 1301.75,-432 1249.54,-413.99 1195.36,-380.25 1160.69,-356.41"/>
<polygon fill="midnightblue" stroke="midnightblue" points="1162.52,-353.42 1152.31,-350.58 1158.52,-359.17 1162.52,-353.42"/>
</g>
<!-- Node29 -->
<g id="node29" class="node">
<title>Node29</title>
<g id="a_node29"><a xlink:href="_i_e_dependent_8hpp.html" target="_top" xlink:title=" ">
<polygon fill="white" stroke="black" points="1826.75,-153.5 1826.75,-179.5 1962.75,-179.5 1962.75,-153.5 1826.75,-153.5"/>
<text text-anchor="middle" x="1894.75" y="-162.7" font-family="Source Sans Pro" font-size="16.00">IEDependent.hpp</text>
</a>
</g>
</g>
<!-- Node1&#45;&gt;Node29 -->
<g id="edge72" class="edge">
<title>Node1&#45;&gt;Node29</title>
<path fill="none" stroke="midnightblue" d="M1817.05,-468.39C1829.91,-458.36 1842.43,-446.1 1850.75,-432 1897.61,-352.57 1898.29,-237.67 1896.21,-189.77"/>
<polygon fill="midnightblue" stroke="midnightblue" points="1899.69,-189.4 1895.67,-179.59 1892.7,-189.76 1899.69,-189.4"/>
</g>
<!-- Node30 -->
<g id="node30" class="node">
<title>Node30</title>
<g id="a_node30"><a xlink:title=" ">
<polygon fill="white" stroke="#bfbfbf" points="1970.25,-396.5 1970.25,-422.5 2029.25,-422.5 2029.25,-396.5 1970.25,-396.5"/>
<text text-anchor="middle" x="1999.75" y="-405.7" font-family="Source Sans Pro" font-size="16.00">mutex</text>
</a>
</g>
</g>
<!-- Node1&#45;&gt;Node30 -->
<g id="edge76" class="edge">
<title>Node1&#45;&gt;Node30</title>
<path fill="none" stroke="midnightblue" d="M1858.89,-468.48C1889.95,-457.73 1924.63,-445.03 1955.75,-432 1959.44,-430.46 1963.26,-428.75 1967.03,-427"/>
<polygon fill="midnightblue" stroke="midnightblue" points="1968.71,-430.08 1976.23,-422.62 1965.7,-423.76 1968.71,-430.08"/>
</g>
<!-- Node31 -->
<g id="node31" class="node">
<title>Node31</title>
<g id="a_node31"><a xlink:title=" ">
<polygon fill="white" stroke="#bfbfbf" points="2047.25,-396.5 2047.25,-422.5 2108.25,-422.5 2108.25,-396.5 2047.25,-396.5"/>
<text text-anchor="middle" x="2077.75" y="-405.7" font-family="Source Sans Pro" font-size="16.00">thread</text>
</a>
</g>
</g>
<!-- Node1&#45;&gt;Node31 -->
<g id="edge77" class="edge">
<title>Node1&#45;&gt;Node31</title>
<path fill="none" stroke="midnightblue" d="M1914.34,-469.91C1955.31,-459.97 1999.35,-447.37 2038.75,-432 2042.09,-430.7 2045.51,-429.16 2048.85,-427.52"/>
<polygon fill="midnightblue" stroke="midnightblue" points="2050.78,-430.46 2058,-422.71 2047.52,-424.26 2050.78,-430.46"/>
</g>
<!-- Node32 -->
<g id="node32" class="node">
<title>Node32</title>
<g id="a_node32"><a xlink:title=" ">
<polygon fill="white" stroke="#bfbfbf" points="2126.75,-396.5 2126.75,-422.5 2190.75,-422.5 2190.75,-396.5 2126.75,-396.5"/>
<text text-anchor="middle" x="2158.75" y="-405.7" font-family="Source Sans Pro" font-size="16.00">variant</text>
</a>
</g>
</g>
<!-- Node1&#45;&gt;Node32 -->
<g id="edge78" class="edge">
<title>Node1&#45;&gt;Node32</title>
<path fill="none" stroke="midnightblue" d="M1914.43,-480.46C1978.11,-470.15 2052.74,-454.64 2117.75,-432 2121.57,-430.67 2125.47,-429.03 2129.28,-427.26"/>
<polygon fill="midnightblue" stroke="midnightblue" points="2131.06,-430.28 2138.43,-422.67 2127.92,-424.02 2131.06,-430.28"/>
</g>
<!-- Node3 -->
<g id="node3" class="node">
<title>Node3</title>
<g id="a_node3"><a xlink:href="_i_e_dependency_8hpp.html" target="_top" xlink:title=" ">
<polygon fill="white" stroke="black" points="622.25,-144.5 622.25,-188.5 867.25,-188.5 867.25,-144.5 622.25,-144.5"/>
<text text-anchor="start" x="630.25" y="-171.7" font-family="Source Sans Pro" font-size="16.00">GraphicsModule/CommandBuffer</text>
<text text-anchor="middle" x="744.75" y="-153.7" font-family="Source Sans Pro" font-size="16.00">/IEDependency.hpp</text>
</a>
</g>
</g>
<!-- Node2&#45;&gt;Node3 -->
<g id="edge2" class="edge">
<title>Node2&#45;&gt;Node3</title>
<path fill="none" stroke="midnightblue" d="M744.75,-234.16C744.75,-224.66 744.75,-211.11 744.75,-198.71"/>
<polygon fill="midnightblue" stroke="midnightblue" points="748.25,-198.67 744.75,-188.67 741.25,-198.67 748.25,-198.67"/>
</g>
<!-- Node2&#45;&gt;Node6 -->
<g id="edge18" class="edge">
<title>Node2&#45;&gt;Node6</title>
<path fill="none" stroke="midnightblue" d="M680.31,-234.39C654.79,-226.1 627.96,-212.21 612.75,-189 601.79,-172.27 599.76,-159.21 612.75,-144 679.08,-66.32 744.94,-146.02 839.75,-108 872.36,-94.92 872.27,-76.39 904.75,-63 982.91,-30.78 1082.38,-19.94 1136.76,-16.31"/>
<polygon fill="midnightblue" stroke="midnightblue" points="1137.25,-19.78 1147.02,-15.67 1136.82,-12.8 1137.25,-19.78"/>
</g>
<!-- Node2&#45;&gt;Node7 -->
<g id="edge15" class="edge">
<title>Node2&#45;&gt;Node7</title>
<path fill="none" stroke="midnightblue" d="M818.35,-240.19C866.63,-233.31 929.53,-218.95 977.75,-189 999.99,-175.19 993.35,-157.54 1015.75,-144 1072.83,-109.5 1148.15,-95.63 1203.02,-90.09"/>
<polygon fill="midnightblue" stroke="midnightblue" points="1203.39,-93.57 1213.02,-89.14 1202.74,-86.6 1203.39,-93.57"/>
</g>
<!-- Node8 -->
<g id="node8" class="node">
<title>Node8</title>
<g id="a_node8"><a xlink:href="_i_e_a_p_i_8hpp.html" target="_top" xlink:title=" ">
<polygon fill="white" stroke="black" points="444.25,-153.5 444.25,-179.5 527.25,-179.5 527.25,-153.5 444.25,-153.5"/>
<text text-anchor="middle" x="485.75" y="-162.7" font-family="Source Sans Pro" font-size="16.00">IEAPI.hpp</text>
</a>
</g>
</g>
<!-- Node2&#45;&gt;Node8 -->
<g id="edge7" class="edge">
<title>Node2&#45;&gt;Node8</title>
<path fill="none" stroke="midnightblue" d="M697.62,-234.45C656.24,-223.56 594.58,-206.58 541.75,-189 536.44,-187.23 530.89,-185.26 525.44,-183.24"/>
<polygon fill="midnightblue" stroke="midnightblue" points="526.39,-179.86 515.8,-179.61 523.92,-186.41 526.39,-179.86"/>
</g>
<!-- Node10 -->
<g id="node10" class="node">
<title>Node10</title>
<g id="a_node10"><a xlink:title=" ">
<polygon fill="white" stroke="#bfbfbf" points="282.25,-0.5 282.25,-26.5 345.25,-26.5 345.25,-0.5 282.25,-0.5"/>
<text text-anchor="middle" x="313.75" y="-9.7" font-family="Source Sans Pro" font-size="16.00">cstdint</text>
</a>
</g>
</g>
<!-- Node2&#45;&gt;Node10 -->
<g id="edge16" class="edge">
<title>Node2&#45;&gt;Node10</title>
<path fill="none" stroke="midnightblue" d="M671.25,-239.36C592.28,-230.57 472.96,-213.7 434.75,-189 376.17,-151.13 338.09,-73.91 322.2,-36.2"/>
<polygon fill="midnightblue" stroke="midnightblue" points="325.33,-34.61 318.31,-26.68 318.85,-37.26 325.33,-34.61"/>
</g>
<!-- Node11 -->
<g id="node11" class="node">
<title>Node11</title>
<g id="a_node11"><a xlink:title=" ">
<polygon fill="white" stroke="#bfbfbf" points="220.25,-153.5 220.25,-179.5 349.25,-179.5 349.25,-153.5 220.25,-153.5"/>
<text text-anchor="middle" x="284.75" y="-162.7" font-family="Source Sans Pro" font-size="16.00">vk_mem_alloc.h</text>
</a>
</g>
</g>
<!-- Node2&#45;&gt;Node11 -->
<g id="edge13" class="edge">
<title>Node2&#45;&gt;Node11</title>
<path fill="none" stroke="midnightblue" d="M670.9,-237.93C593.81,-228.39 469.63,-211.32 363.75,-189 354.46,-187.04 344.64,-184.64 335.2,-182.16"/>
<polygon fill="midnightblue" stroke="midnightblue" points="336.1,-178.78 325.53,-179.57 334.28,-185.54 336.1,-178.78"/>
</g>
<!-- Node12 -->
<g id="node12" class="node">
<title>Node12</title>
<g id="a_node12"><a xlink:title=" ">
<polygon fill="white" stroke="#bfbfbf" points="885.25,-153.5 885.25,-179.5 968.25,-179.5 968.25,-153.5 885.25,-153.5"/>
<text text-anchor="middle" x="926.75" y="-162.7" font-family="Source Sans Pro" font-size="16.00">GL/glew.h</text>
</a>
</g>
</g>
<!-- Node2&#45;&gt;Node12 -->
<g id="edge14" class="edge">
<title>Node2&#45;&gt;Node12</title>
<path fill="none" stroke="midnightblue" d="M772.79,-234.33C804.14,-220.72 855.05,-198.62 889.68,-183.59"/>
<polygon fill="midnightblue" stroke="midnightblue" points="891.2,-186.75 898.98,-179.55 888.41,-180.33 891.2,-186.75"/>
</g>
<!-- Node13 -->
<g id="node13" class="node">
<title>Node13</title>
<g id="a_node13"><a xlink:title=" ">
<polygon fill="white" stroke="#bfbfbf" points="1024.75,-153.5 1024.75,-179.5 1110.75,-179.5 1110.75,-153.5 1024.75,-153.5"/>
<text text-anchor="middle" x="1067.75" y="-162.7" font-family="Source Sans Pro" font-size="16.00">functional</text>
</a>
</g>
</g>
<!-- Node2&#45;&gt;Node13 -->
<g id="edge17" class="edge">
<title>Node2&#45;&gt;Node13</title>
<path fill="none" stroke="midnightblue" d="M813.79,-234.48C867.9,-224.36 944.81,-208.45 1010.75,-189 1016.53,-187.29 1022.57,-185.28 1028.46,-183.18"/>
<polygon fill="midnightblue" stroke="midnightblue" points="1029.98,-186.35 1038.15,-179.61 1027.56,-179.78 1029.98,-186.35"/>
</g>
<!-- Node4 -->
<g id="node4" class="node">
<title>Node4</title>
<g id="a_node4"><a xlink:title=" ">
<polygon fill="white" stroke="#bfbfbf" points="1595.75,-72.5 1595.75,-98.5 1669.75,-98.5 1669.75,-72.5 1595.75,-72.5"/>
<text text-anchor="middle" x="1632.75" y="-81.7" font-family="Source Sans Pro" font-size="16.00">memory</text>
</a>
</g>
</g>
<!-- Node3&#45;&gt;Node4 -->
<g id="edge3" class="edge">
<title>Node3&#45;&gt;Node4</title>
<path fill="none" stroke="midnightblue" d="M867.31,-145.17C870.49,-144.76 873.64,-144.37 876.75,-144 885.6,-142.94 1420.77,-102.51 1585.21,-90.09"/>
<polygon fill="midnightblue" stroke="midnightblue" points="1585.79,-93.55 1595.5,-89.31 1585.26,-86.57 1585.79,-93.55"/>
</g>
<!-- Node5 -->
<g id="node5" class="node">
<title>Node5</title>
<g id="a_node5"><a xlink:title=" ">
<polygon fill="white" stroke="#bfbfbf" points="445.25,-0.5 445.25,-26.5 500.25,-26.5 500.25,-0.5 445.25,-0.5"/>
<text text-anchor="middle" x="472.75" y="-9.7" font-family="Source Sans Pro" font-size="16.00">string</text>
</a>
</g>
</g>
<!-- Node3&#45;&gt;Node5 -->
<g id="edge4" class="edge">
<title>Node3&#45;&gt;Node5</title>
<path fill="none" stroke="midnightblue" d="M681.71,-144.43C658.6,-135.15 632.93,-122.93 611.75,-108 589.39,-92.24 591.67,-79.38 569.75,-63 551.43,-49.31 528.65,-37.69 509.78,-29.26"/>
<polygon fill="midnightblue" stroke="midnightblue" points="511.15,-26.04 500.58,-25.27 508.36,-32.46 511.15,-26.04"/>
</g>
<!-- Node3&#45;&gt;Node6 -->
<g id="edge5" class="edge">
<title>Node3&#45;&gt;Node6</title>
<path fill="none" stroke="midnightblue" d="M805.27,-144.35C895.28,-112.89 1061.9,-54.64 1137.56,-28.2"/>
<polygon fill="midnightblue" stroke="midnightblue" points="1138.9,-31.44 1147.18,-24.84 1136.59,-24.83 1138.9,-31.44"/>
</g>
<!-- Node3&#45;&gt;Node7 -->
<g id="edge6" class="edge">
<title>Node3&#45;&gt;Node7</title>
<path fill="none" stroke="midnightblue" d="M867.35,-145.45C870.51,-144.96 873.65,-144.48 876.75,-144 990.69,-126.51 1123.18,-107.73 1203.18,-96.55"/>
<polygon fill="midnightblue" stroke="midnightblue" points="1203.73,-100.01 1213.15,-95.16 1202.77,-93.07 1203.73,-100.01"/>
</g>
<!-- Node8&#45;&gt;Node5 -->
<g id="edge12" class="edge">
<title>Node8&#45;&gt;Node5</title>
<path fill="none" stroke="midnightblue" d="M458.71,-153.44C440.95,-143.9 419.14,-128.73 408.75,-108 399.79,-90.12 399.85,-80.91 408.75,-63 415.13,-50.17 426.7,-39.82 438.27,-32.03"/>
<polygon fill="midnightblue" stroke="midnightblue" points="440.4,-34.83 447.03,-26.57 436.7,-28.89 440.4,-34.83"/>
</g>
<!-- Node9 -->
<g id="node9" class="node">
<title>Node9</title>
<g id="a_node9"><a xlink:href="_i_e_version_8hpp.html" target="_top" xlink:title=" ">
<polygon fill="white" stroke="black" points="417.75,-72.5 417.75,-98.5 527.75,-98.5 527.75,-72.5 417.75,-72.5"/>
<text text-anchor="middle" x="472.75" y="-81.7" font-family="Source Sans Pro" font-size="16.00">IEVersion.hpp</text>
</a>
</g>
</g>
<!-- Node8&#45;&gt;Node9 -->
<g id="edge8" class="edge">
<title>Node8&#45;&gt;Node9</title>
<path fill="none" stroke="midnightblue" d="M483.72,-153.16C481.77,-141.33 478.79,-123.21 476.43,-108.84"/>
<polygon fill="midnightblue" stroke="midnightblue" points="479.85,-108.06 474.77,-98.76 472.94,-109.19 479.85,-108.06"/>
</g>
<!-- Node9&#45;&gt;Node5 -->
<g id="edge10" class="edge">
<title>Node9&#45;&gt;Node5</title>
<path fill="none" stroke="midnightblue" d="M472.75,-72.31C472.75,-62.47 472.75,-48.38 472.75,-36.57"/>
<polygon fill="midnightblue" stroke="midnightblue" points="476.25,-36.55 472.75,-26.55 469.25,-36.55 476.25,-36.55"/>
</g>
<!-- Node9&#45;&gt;Node6 -->
<g id="edge11" class="edge">
<title>Node9&#45;&gt;Node6</title>
<path fill="none" stroke="midnightblue" d="M527.76,-75.11C553.26,-70.99 583.99,-66.33 611.75,-63 808.23,-39.4 1044.49,-22.96 1136.93,-16.99"/>
<polygon fill="midnightblue" stroke="midnightblue" points="1137.21,-20.47 1146.97,-16.34 1136.76,-13.49 1137.21,-20.47"/>
</g>
<!-- Node9&#45;&gt;Node10 -->
<g id="edge9" class="edge">
<title>Node9&#45;&gt;Node10</title>
<path fill="none" stroke="midnightblue" d="M445.42,-72.47C419.25,-60.95 379.59,-43.49 350.63,-30.74"/>
<polygon fill="midnightblue" stroke="midnightblue" points="351.82,-27.44 341.26,-26.61 349,-33.84 351.82,-27.44"/>
</g>
<!-- Node14&#45;&gt;Node2 -->
<g id="edge20" class="edge">
<title>Node14&#45;&gt;Node2</title>
<path fill="none" stroke="midnightblue" d="M842.84,-306.33C821.33,-293.65 794.32,-277.72 774.09,-265.8"/>
<polygon fill="midnightblue" stroke="midnightblue" points="775.71,-262.69 765.32,-260.63 772.16,-268.72 775.71,-262.69"/>
</g>
<!-- Node14&#45;&gt;Node4 -->
<g id="edge32" class="edge">
<title>Node14&#45;&gt;Node4</title>
<path fill="none" stroke="midnightblue" d="M1015.51,-307.22C1018.62,-306.8 1021.7,-306.4 1024.75,-306 1165.8,-287.64 1208.58,-317.23 1342.75,-270 1453.33,-231.08 1565.23,-143.59 1611.11,-105.18"/>
<polygon fill="midnightblue" stroke="midnightblue" points="1613.51,-107.73 1618.89,-98.6 1609,-102.39 1613.51,-107.73"/>
</g>
<!-- Node14&#45;&gt;Node7 -->
<g id="edge33" class="edge">
<title>Node14&#45;&gt;Node7</title>
<path fill="none" stroke="midnightblue" d="M1014.91,-306.44C1091.41,-293.9 1174.71,-278.76 1190.75,-270 1234.08,-246.34 1246.6,-234.06 1266.75,-189 1278.24,-163.31 1279,-130.42 1277.88,-108.92"/>
<polygon fill="midnightblue" stroke="midnightblue" points="1281.36,-108.55 1277.17,-98.82 1274.38,-109.04 1281.36,-108.55"/>
</g>
<!-- Node14&#45;&gt;Node15 -->
<g id="edge21" class="edge">
<title>Node14&#45;&gt;Node15</title>
<path fill="none" stroke="midnightblue" d="M767.29,-306.49C693.31,-292.54 598.26,-274.61 533.54,-262.41"/>
<polygon fill="midnightblue" stroke="midnightblue" points="533.9,-258.92 523.42,-260.51 532.6,-265.8 533.9,-258.92"/>
</g>
<!-- Node15&#45;&gt;Node3 -->
<g id="edge22" class="edge">
<title>Node15&#45;&gt;Node3</title>
<path fill="none" stroke="midnightblue" d="M503.35,-234.42C544.58,-222.98 607.63,-205.51 658.95,-191.28"/>
<polygon fill="midnightblue" stroke="midnightblue" points="660.01,-194.62 668.71,-188.58 658.14,-187.88 660.01,-194.62"/>
</g>
<!-- Node15&#45;&gt;Node5 -->
<g id="edge30" class="edge">
<title>Node15&#45;&gt;Node5</title>
<path fill="none" stroke="midnightblue" d="M385.11,-241.8C268.2,-233.67 52.75,-215.28 29.75,-189 16.58,-173.95 17.76,-160 29.75,-144 79.36,-77.81 337.13,-34.15 435,-19.73"/>
<polygon fill="midnightblue" stroke="midnightblue" points="435.65,-23.17 445.04,-18.27 434.64,-16.25 435.65,-23.17"/>
</g>
<!-- Node15&#45;&gt;Node6 -->
<g id="edge31" class="edge">
<title>Node15&#45;&gt;Node6</title>
<path fill="none" stroke="midnightblue" d="M385.11,-246.82C281.88,-245.49 103.6,-236.19 62.75,-189 49.66,-173.88 48.95,-158.48 62.75,-144 119.84,-84.08 733.85,-147.18 806.75,-108 828.6,-96.26 818.48,-75.76 839.75,-63 889.13,-33.37 1058.55,-20.75 1136.69,-16.41"/>
<polygon fill="midnightblue" stroke="midnightblue" points="1137.29,-19.88 1147.08,-15.85 1136.91,-12.89 1137.29,-19.88"/>
</g>
<!-- Node15&#45;&gt;Node7 -->
<g id="edge27" class="edge">
<title>Node15&#45;&gt;Node7</title>
<path fill="none" stroke="midnightblue" d="M450.65,-234.31C436.01,-213.11 411.12,-169.3 434.75,-144 447.81,-130.02 1000.69,-100.51 1202.77,-90.17"/>
<polygon fill="midnightblue" stroke="midnightblue" points="1203.18,-93.66 1212.99,-89.65 1202.82,-86.67 1203.18,-93.66"/>
</g>
<!-- Node15&#45;&gt;Node8 -->
<g id="edge23" class="edge">
<title>Node15&#45;&gt;Node8</title>
<path fill="none" stroke="midnightblue" d="M463.81,-234.16C467.74,-222.21 473.79,-203.85 478.54,-189.42"/>
<polygon fill="midnightblue" stroke="midnightblue" points="481.92,-190.35 481.72,-179.76 475.27,-188.16 481.92,-190.35"/>
</g>
<!-- Node15&#45;&gt;Node10 -->
<g id="edge28" class="edge">
<title>Node15&#45;&gt;Node10</title>
<path fill="none" stroke="midnightblue" d="M384.8,-242.09C264.83,-234.27 40.62,-216.16 16.75,-189 -63.78,-97.34 172.7,-40.94 272.04,-21.82"/>
<polygon fill="midnightblue" stroke="midnightblue" points="272.88,-25.23 282.05,-19.93 271.58,-18.35 272.88,-25.23"/>
</g>
<!-- Node15&#45;&gt;Node11 -->
<g id="edge26" class="edge">
<title>Node15&#45;&gt;Node11</title>
<path fill="none" stroke="midnightblue" d="M432.79,-234.33C402.77,-220.78 354.11,-198.81 320.83,-183.79"/>
<polygon fill="midnightblue" stroke="midnightblue" points="322.01,-180.48 311.45,-179.55 319.13,-186.86 322.01,-180.48"/>
</g>
<!-- Node15&#45;&gt;Node12 -->
<g id="edge24" class="edge">
<title>Node15&#45;&gt;Node12</title>
<path fill="none" stroke="midnightblue" d="M534.42,-238.64C636.47,-227.49 814,-206.47 876.75,-189 882.1,-187.51 887.63,-185.57 892.97,-183.47"/>
<polygon fill="midnightblue" stroke="midnightblue" points="894.43,-186.65 902.3,-179.57 891.73,-180.2 894.43,-186.65"/>
</g>
<!-- Node15&#45;&gt;Node13 -->
<g id="edge29" class="edge">
<title>Node15&#45;&gt;Node13</title>
<path fill="none" stroke="midnightblue" d="M534.52,-238.45C672.75,-223.53 956.25,-192.75 977.75,-189 989.74,-186.91 1002.52,-184.17 1014.57,-181.36"/>
<polygon fill="midnightblue" stroke="midnightblue" points="1015.58,-184.71 1024.49,-178.98 1013.95,-177.91 1015.58,-184.71"/>
</g>
<!-- Node16 -->
<g id="node16" class="node">
<title>Node16</title>
<g id="a_node16"><a xlink:title=" ">
<polygon fill="white" stroke="#bfbfbf" points="71.75,-144.5 71.75,-188.5 201.75,-188.5 201.75,-144.5 71.75,-144.5"/>
<text text-anchor="start" x="79.75" y="-171.7" font-family="Source Sans Pro" font-size="16.00">../contrib/stb/stb</text>
<text text-anchor="middle" x="136.75" y="-153.7" font-family="Source Sans Pro" font-size="16.00">_image.h</text>
</a>
</g>
</g>
<!-- Node15&#45;&gt;Node16 -->
<g id="edge25" class="edge">
<title>Node15&#45;&gt;Node16</title>
<path fill="none" stroke="midnightblue" d="M403.66,-234.48C355.32,-223.92 283.47,-207.71 212.13,-189.3"/>
<polygon fill="midnightblue" stroke="midnightblue" points="212.62,-185.82 202.07,-186.69 210.87,-192.59 212.62,-185.82"/>
</g>
<!-- Node17&#45;&gt;Node4 -->
<g id="edge43" class="edge">
<title>Node17&#45;&gt;Node4</title>
<path fill="none" stroke="midnightblue" d="M1716.19,-387.26C1724.22,-377.08 1732.6,-364.23 1736.75,-351 1742.74,-331.92 1739.05,-325.87 1736.75,-306 1728.25,-232.54 1736.92,-207.35 1698.75,-144 1689.36,-128.41 1674.31,-114.82 1660.95,-104.78"/>
<polygon fill="midnightblue" stroke="midnightblue" points="1662.66,-101.69 1652.49,-98.7 1658.57,-107.38 1662.66,-101.69"/>
</g>
<!-- Node17&#45;&gt;Node6 -->
<g id="edge44" class="edge">
<title>Node17&#45;&gt;Node6</title>
<path fill="none" stroke="midnightblue" d="M1721.44,-387.41C1751.63,-359.14 1798.75,-305.82 1798.75,-248.5 1798.75,-248.5 1798.75,-248.5 1798.75,-165.5 1798.75,-95.36 1743.31,-90.42 1678.75,-63 1595.58,-27.68 1320.17,-17.78 1216.6,-15.28"/>
<polygon fill="midnightblue" stroke="midnightblue" points="1216.63,-11.78 1206.55,-15.05 1216.47,-18.78 1216.63,-11.78"/>
</g>
<!-- Node17&#45;&gt;Node7 -->
<g id="edge45" class="edge">
<title>Node17&#45;&gt;Node7</title>
<path fill="none" stroke="midnightblue" d="M1584.72,-388.34C1581.7,-387.88 1578.71,-387.43 1575.75,-387 1506.25,-376.85 1308.5,-403.42 1261.75,-351 1248.44,-336.07 1254.1,-324.48 1261.75,-306 1270.41,-285.09 1286.29,-289.51 1297.75,-270 1316.7,-237.73 1315.59,-226.07 1320.75,-189 1323.51,-169.19 1327.27,-162.91 1320.75,-144 1315.81,-129.68 1305.67,-116.19 1296.27,-105.89"/>
<polygon fill="midnightblue" stroke="midnightblue" points="1298.78,-103.44 1289.32,-98.67 1293.73,-108.3 1298.78,-103.44"/>
</g>
<!-- Node18 -->
<g id="node18" class="node">
<title>Node18</title>
<g id="a_node18"><a xlink:href="_i_e_buffer_memory_barrier_8hpp.html" target="_top" xlink:title=" ">
<polygon fill="white" stroke="black" points="1491.25,-315.5 1491.25,-341.5 1694.25,-341.5 1694.25,-315.5 1491.25,-315.5"/>
<text text-anchor="middle" x="1592.75" y="-324.7" font-family="Source Sans Pro" font-size="16.00">IEBufferMemoryBarrier.hpp</text>
</a>
</g>
</g>
<!-- Node17&#45;&gt;Node18 -->
<g id="edge35" class="edge">
<title>Node17&#45;&gt;Node18</title>
<path fill="none" stroke="midnightblue" d="M1668.88,-387.33C1652.64,-374.99 1632.35,-359.58 1616.81,-347.77"/>
<polygon fill="midnightblue" stroke="midnightblue" points="1618.8,-344.89 1608.72,-341.63 1614.56,-350.46 1618.8,-344.89"/>
</g>
<!-- Node19 -->
<g id="node19" class="node">
<title>Node19</title>
<g id="a_node19"><a xlink:href="_i_e_image_memory_barrier_8hpp.html" target="_top" xlink:title=" ">
<polygon fill="white" stroke="black" points="1270.25,-315.5 1270.25,-341.5 1473.25,-341.5 1473.25,-315.5 1270.25,-315.5"/>
<text text-anchor="middle" x="1371.75" y="-324.7" font-family="Source Sans Pro" font-size="16.00">IEImageMemoryBarrier.hpp</text>
</a>
</g>
</g>
<!-- Node17&#45;&gt;Node19 -->
<g id="edge39" class="edge">
<title>Node17&#45;&gt;Node19</title>
<path fill="none" stroke="midnightblue" d="M1610.08,-387.43C1553.61,-373.71 1481.39,-356.15 1431.33,-343.98"/>
<polygon fill="midnightblue" stroke="midnightblue" points="1431.85,-340.51 1421.31,-341.55 1430.2,-347.31 1431.85,-340.51"/>
</g>
<!-- Node18&#45;&gt;Node2 -->
<g id="edge36" class="edge">
<title>Node18&#45;&gt;Node2</title>
<path fill="none" stroke="midnightblue" d="M1538.42,-315.49C1520.74,-311.96 1500.98,-308.4 1482.75,-306 1251.75,-275.59 1191.92,-289.59 959.75,-270 916.42,-266.34 868.26,-261.59 828.51,-257.48"/>
<polygon fill="midnightblue" stroke="midnightblue" points="828.64,-253.98 818.33,-256.43 827.92,-260.94 828.64,-253.98"/>
</g>
<!-- Node18&#45;&gt;Node4 -->
<g id="edge37" class="edge">
<title>Node18&#45;&gt;Node4</title>
<path fill="none" stroke="midnightblue" d="M1596.69,-315.28C1600.29,-303.73 1605.53,-285.84 1608.75,-270 1620.48,-212.33 1627.71,-143.24 1630.88,-108.6"/>
<polygon fill="midnightblue" stroke="midnightblue" points="1634.37,-108.89 1631.76,-98.62 1627.39,-108.27 1634.37,-108.89"/>
</g>
<!-- Node18&#45;&gt;Node7 -->
<g id="edge38" class="edge">
<title>Node18&#45;&gt;Node7</title>
<path fill="none" stroke="midnightblue" d="M1588.78,-315.03C1577.56,-281.83 1542.34,-190.64 1480.75,-144 1442.56,-115.08 1390.49,-100.7 1348.39,-93.56"/>
<polygon fill="midnightblue" stroke="midnightblue" points="1348.89,-90.09 1338.47,-91.98 1347.79,-97.01 1348.89,-90.09"/>
</g>
<!-- Node19&#45;&gt;Node4 -->
<g id="edge41" class="edge">
<title>Node19&#45;&gt;Node4</title>
<path fill="none" stroke="midnightblue" d="M1398.52,-315.45C1421.02,-304.82 1453.6,-288.21 1479.75,-270 1524.18,-239.06 1536.13,-230.63 1570.75,-189 1592.2,-163.21 1611.23,-129.23 1622.38,-107.61"/>
<polygon fill="midnightblue" stroke="midnightblue" points="1625.53,-109.13 1626.93,-98.63 1619.29,-105.97 1625.53,-109.13"/>
</g>
<!-- Node19&#45;&gt;Node7 -->
<g id="edge42" class="edge">
<title>Node19&#45;&gt;Node7</title>
<path fill="none" stroke="midnightblue" d="M1403.21,-315.34C1422.45,-306.07 1445.47,-291.24 1456.75,-270 1483.01,-220.54 1489.82,-189.2 1456.75,-144 1432.09,-110.29 1387.51,-95.86 1348.77,-89.89"/>
<polygon fill="midnightblue" stroke="midnightblue" points="1348.93,-86.38 1338.54,-88.48 1347.97,-93.31 1348.93,-86.38"/>
</g>
<!-- Node19&#45;&gt;Node15 -->
<g id="edge40" class="edge">
<title>Node19&#45;&gt;Node15</title>
<path fill="none" stroke="midnightblue" d="M1296.48,-315.45C1272.92,-312 1246.8,-308.5 1222.75,-306 974.25,-280.14 910.69,-291.23 661.75,-270 623.21,-266.71 580.61,-262.3 544.51,-258.32"/>
<polygon fill="midnightblue" stroke="midnightblue" points="544.83,-254.84 534.5,-257.21 544.06,-261.79 544.83,-254.84"/>
</g>
<!-- Node20&#45;&gt;Node4 -->
<g id="edge52" class="edge">
<title>Node20&#45;&gt;Node4</title>
<path fill="none" stroke="midnightblue" d="M1566.78,-388.07C1629.85,-376.71 1694.42,-362.57 1703.75,-351 1734.58,-312.76 1669.38,-163.92 1643.09,-107.94"/>
<polygon fill="midnightblue" stroke="midnightblue" points="1646.12,-106.15 1638.67,-98.62 1639.79,-109.16 1646.12,-106.15"/>
</g>
<!-- Node21 -->
<g id="node21" class="node">
<title>Node21</title>
<g id="a_node21"><a xlink:href="_i_e_framebuffer_8hpp.html" target="_top" xlink:title=" ">
<polygon fill="white" stroke="black" points="513.25,-306.5 513.25,-350.5 724.25,-350.5 724.25,-306.5 513.25,-306.5"/>
<text text-anchor="start" x="521.25" y="-333.7" font-family="Source Sans Pro" font-size="16.00">GraphicsModule/RenderPass</text>
<text text-anchor="middle" x="618.75" y="-315.7" font-family="Source Sans Pro" font-size="16.00">/IEFramebuffer.hpp</text>
</a>
</g>
</g>
<!-- Node20&#45;&gt;Node21 -->
<g id="edge47" class="edge">
<title>Node20&#45;&gt;Node21</title>
<path fill="none" stroke="midnightblue" d="M1310.45,-402.11C1170.93,-394.24 941.24,-378.57 734.42,-351.16"/>
<polygon fill="midnightblue" stroke="midnightblue" points="734.65,-347.66 724.27,-349.81 733.72,-354.6 734.65,-347.66"/>
</g>
<!-- Node21&#45;&gt;Node5 -->
<g id="edge50" class="edge">
<title>Node21&#45;&gt;Node5</title>
<path fill="none" stroke="midnightblue" d="M513.13,-318.71C357.31,-303.3 77.66,-265.51 16.75,-189 -21.76,-140.62 22.44,-94.34 75.75,-63 83.48,-58.45 337.59,-29.63 435.14,-18.69"/>
<polygon fill="midnightblue" stroke="midnightblue" points="435.61,-22.16 445.16,-17.57 434.83,-15.21 435.61,-22.16"/>
</g>
<!-- Node21&#45;&gt;Node6 -->
<g id="edge51" class="edge">
<title>Node21&#45;&gt;Node6</title>
<path fill="none" stroke="midnightblue" d="M724.27,-307.19C727.13,-306.77 729.96,-306.37 732.75,-306 833.29,-292.58 1095.78,-312.77 1187.75,-270 1293.19,-220.97 1417.86,-155.76 1347.75,-63 1331.96,-42.1 1261.9,-27.59 1216.5,-20.19"/>
<polygon fill="midnightblue" stroke="midnightblue" points="1216.81,-16.69 1206.38,-18.59 1215.71,-23.61 1216.81,-16.69"/>
</g>
<!-- Node21&#45;&gt;Node7 -->
<g id="edge49" class="edge">
<title>Node21&#45;&gt;Node7</title>
<path fill="none" stroke="midnightblue" d="M724.28,-307.21C727.13,-306.78 729.96,-306.38 732.75,-306 826.67,-293.2 1075.09,-316.38 1157.75,-270 1179.38,-257.86 1174.73,-243.94 1190.75,-225 1205.16,-207.96 1212.92,-207.26 1225.75,-189 1243.95,-163.11 1258.91,-129.59 1267.59,-108.06"/>
<polygon fill="midnightblue" stroke="midnightblue" points="1270.93,-109.13 1271.33,-98.54 1264.41,-106.57 1270.93,-109.13"/>
</g>
<!-- Node21&#45;&gt;Node15 -->
<g id="edge48" class="edge">
<title>Node21&#45;&gt;Node15</title>
<path fill="none" stroke="midnightblue" d="M576.14,-306.33C550.16,-293.42 517.41,-277.15 493.28,-265.16"/>
<polygon fill="midnightblue" stroke="midnightblue" points="494.67,-261.94 484.16,-260.63 491.56,-268.21 494.67,-261.94"/>
</g>
<!-- Node22&#45;&gt;Node3 -->
<g id="edge54" class="edge">
<title>Node22&#45;&gt;Node3</title>
<path fill="none" stroke="midnightblue" d="M1058.5,-306.42C1028.18,-296.17 991.83,-283.22 959.75,-270 902.23,-246.29 838.06,-215.04 794.92,-193.31"/>
<polygon fill="midnightblue" stroke="midnightblue" points="796.28,-190.07 785.77,-188.68 793.12,-196.32 796.28,-190.07"/>
</g>
<!-- Node22&#45;&gt;Node6 -->
<g id="edge71" class="edge">
<title>Node22&#45;&gt;Node6</title>
<path fill="none" stroke="midnightblue" d="M1211.83,-306.41C1248.21,-296.11 1284.89,-283.12 1297.75,-270 1350.5,-216.19 1336.51,-182.51 1347.75,-108 1350.73,-88.22 1359.81,-78.96 1347.75,-63 1331.96,-42.1 1261.9,-27.59 1216.5,-20.19"/>
<polygon fill="midnightblue" stroke="midnightblue" points="1216.81,-16.69 1206.38,-18.59 1215.71,-23.61 1216.81,-16.69"/>
</g>
<!-- Node22&#45;&gt;Node7 -->
<g id="edge69" class="edge">
<title>Node22&#45;&gt;Node7</title>
<path fill="none" stroke="midnightblue" d="M1205.94,-306.46C1227.65,-297.89 1249.74,-286.08 1266.75,-270 1309.26,-229.82 1318.29,-200.9 1304.75,-144 1301.7,-131.18 1295.31,-117.97 1289.3,-107.45"/>
<polygon fill="midnightblue" stroke="midnightblue" points="1292.15,-105.4 1284,-98.63 1286.15,-109.01 1292.15,-105.4"/>
</g>
<!-- Node22&#45;&gt;Node13 -->
<g id="edge70" class="edge">
<title>Node22&#45;&gt;Node13</title>
<path fill="none" stroke="midnightblue" d="M1140.59,-306.17C1155.28,-284.77 1172.16,-251.31 1157.75,-225 1147.66,-206.58 1128.88,-193.21 1111.08,-184.02"/>
<polygon fill="midnightblue" stroke="midnightblue" points="1112.44,-180.79 1101.91,-179.59 1109.39,-187.09 1112.44,-180.79"/>
</g>
<!-- Node23 -->
<g id="node23" class="node">
<title>Node23</title>
<g id="a_node23"><a xlink:href="_i_e_shader_8hpp.html" target="_top" xlink:title=" ">
<polygon fill="white" stroke="black" points="968.75,-225.5 968.75,-269.5 1148.75,-269.5 1148.75,-225.5 968.75,-225.5"/>
<text text-anchor="start" x="976.75" y="-252.7" font-family="Source Sans Pro" font-size="16.00">GraphicsModule/Shader</text>
<text text-anchor="middle" x="1058.75" y="-234.7" font-family="Source Sans Pro" font-size="16.00">/IEShader.hpp</text>
</a>
</g>
</g>
<!-- Node22&#45;&gt;Node23 -->
<g id="edge55" class="edge">
<title>Node22&#45;&gt;Node23</title>
<path fill="none" stroke="midnightblue" d="M1106.33,-306.33C1099.05,-297.47 1090.46,-287.04 1082.6,-277.49"/>
<polygon fill="midnightblue" stroke="midnightblue" points="1085.27,-275.23 1076.22,-269.73 1079.87,-279.67 1085.27,-275.23"/>
</g>
<!-- Node23&#45;&gt;Node5 -->
<g id="edge66" class="edge">
<title>Node23&#45;&gt;Node5</title>
<path fill="none" stroke="midnightblue" d="M968.58,-236.9C842.58,-223.19 627.48,-198.61 612.75,-189 557.98,-153.26 580.49,-111.62 536.75,-63 526.32,-51.41 512.79,-40.69 500.86,-32.29"/>
<polygon fill="midnightblue" stroke="midnightblue" points="502.75,-29.34 492.52,-26.6 498.81,-35.13 502.75,-29.34"/>
</g>
<!-- Node23&#45;&gt;Node6 -->
<g id="edge67" class="edge">
<title>Node23&#45;&gt;Node6</title>
<path fill="none" stroke="midnightblue" d="M1098.99,-225.36C1113.22,-216 1128.07,-203.75 1137.75,-189 1169.1,-141.23 1175.53,-71.93 1176.67,-36.77"/>
<polygon fill="midnightblue" stroke="midnightblue" points="1180.17,-36.69 1176.88,-26.62 1173.17,-36.55 1180.17,-36.69"/>
</g>
<!-- Node23&#45;&gt;Node7 -->
<g id="edge57" class="edge">
<title>Node23&#45;&gt;Node7</title>
<path fill="none" stroke="midnightblue" d="M1123.13,-225.47C1145.77,-216.32 1170.57,-204.17 1190.75,-189 1221.28,-166.05 1247.81,-130.02 1262.79,-107.36"/>
<polygon fill="midnightblue" stroke="midnightblue" points="1265.81,-109.13 1268.3,-98.83 1259.93,-105.33 1265.81,-109.13"/>
</g>
<!-- Node23&#45;&gt;Node8 -->
<g id="edge56" class="edge">
<title>Node23&#45;&gt;Node8</title>
<path fill="none" stroke="midnightblue" d="M968.65,-237.74C831.54,-224.23 582.12,-198.82 541.75,-189 535.44,-187.47 528.89,-185.4 522.57,-183.16"/>
<polygon fill="midnightblue" stroke="midnightblue" points="523.52,-179.78 512.93,-179.54 521.06,-186.33 523.52,-179.78"/>
</g>
<!-- Node23&#45;&gt;Node12 -->
<g id="edge68" class="edge">
<title>Node23&#45;&gt;Node12</title>
<path fill="none" stroke="midnightblue" d="M1023.38,-225.33C1002.19,-212.65 975.58,-196.72 955.66,-184.8"/>
<polygon fill="midnightblue" stroke="midnightblue" points="957.39,-181.76 947.01,-179.63 953.8,-187.77 957.39,-181.76"/>
</g>
<!-- Node23&#45;&gt;Node13 -->
<g id="edge65" class="edge">
<title>Node23&#45;&gt;Node13</title>
<path fill="none" stroke="midnightblue" d="M1061.16,-225.33C1062.41,-214.36 1063.94,-200.97 1065.21,-189.83"/>
<polygon fill="midnightblue" stroke="midnightblue" points="1068.71,-189.96 1066.37,-179.63 1061.76,-189.17 1068.71,-189.96"/>
</g>
<!-- Node24 -->
<g id="node24" class="node">
<title>Node24</title>
<g id="a_node24"><a xlink:href="_i_e_file_8hpp.html" target="_top" xlink:title=" ">
<polygon fill="white" stroke="black" points="621.25,-63.5 621.25,-107.5 798.25,-107.5 798.25,-63.5 621.25,-63.5"/>
<text text-anchor="start" x="629.25" y="-90.7" font-family="Source Sans Pro" font-size="16.00">Core/FileSystemModule</text>
<text text-anchor="middle" x="709.75" y="-72.7" font-family="Source Sans Pro" font-size="16.00">/IEFile.hpp</text>
</a>
</g>
</g>
<!-- Node23&#45;&gt;Node24 -->
<g id="edge58" class="edge">
<title>Node23&#45;&gt;Node24</title>
<path fill="none" stroke="midnightblue" d="M1090.42,-225.27C1101.91,-215.69 1113.58,-203.3 1119.75,-189 1127.68,-170.64 1132.87,-159.09 1119.75,-144 1080.29,-98.61 917.21,-88 809,-86.08"/>
<polygon fill="midnightblue" stroke="midnightblue" points="808.75,-82.58 798.7,-85.92 808.65,-89.58 808.75,-82.58"/>
</g>
<!-- Node24&#45;&gt;Node5 -->
<g id="edge63" class="edge">
<title>Node24&#45;&gt;Node5</title>
<path fill="none" stroke="midnightblue" d="M638.64,-63.5C596.33,-51 544.35,-35.65 509.98,-25.5"/>
<polygon fill="midnightblue" stroke="midnightblue" points="510.93,-22.13 500.35,-22.65 508.94,-28.84 510.93,-22.13"/>
</g>
<!-- Node24&#45;&gt;Node6 -->
<g id="edge64" class="edge">
<title>Node24&#45;&gt;Node6</title>
<path fill="none" stroke="midnightblue" d="M798.41,-65.39C802.91,-64.55 807.38,-63.75 811.75,-63 929.27,-42.84 1069.3,-26.31 1136.66,-18.82"/>
<polygon fill="midnightblue" stroke="midnightblue" points="1137.27,-22.28 1146.83,-17.7 1136.5,-15.32 1137.27,-22.28"/>
</g>
<!-- Node25 -->
<g id="node25" class="node">
<title>Node25</title>
<g id="a_node25"><a xlink:title=" ">
<polygon fill="white" stroke="#bfbfbf" points="719.25,-0.5 719.25,-26.5 804.25,-26.5 804.25,-0.5 719.25,-0.5"/>
<text text-anchor="middle" x="761.75" y="-9.7" font-family="Source Sans Pro" font-size="16.00">filesystem</text>
</a>
</g>
</g>
<!-- Node24&#45;&gt;Node25 -->
<g id="edge59" class="edge">
<title>Node24&#45;&gt;Node25</title>
<path fill="none" stroke="midnightblue" d="M725.35,-63.5C732.15,-54.34 740.09,-43.66 746.82,-34.61"/>
<polygon fill="midnightblue" stroke="midnightblue" points="749.66,-36.65 752.81,-26.53 744.04,-32.47 749.66,-36.65"/>
</g>
<!-- Node26 -->
<g id="node26" class="node">
<title>Node26</title>
<g id="a_node26"><a xlink:title=" ">
<polygon fill="white" stroke="#bfbfbf" points="822.75,-0.5 822.75,-26.5 890.75,-26.5 890.75,-0.5 822.75,-0.5"/>
<text text-anchor="middle" x="856.75" y="-9.7" font-family="Source Sans Pro" font-size="16.00">fstream</text>
</a>
</g>
</g>
<!-- Node24&#45;&gt;Node26 -->
<g id="edge60" class="edge">
<title>Node24&#45;&gt;Node26</title>
<path fill="none" stroke="midnightblue" d="M753.86,-63.5C775.76,-53.07 801.83,-40.65 822.25,-30.93"/>
<polygon fill="midnightblue" stroke="midnightblue" points="823.96,-33.99 831.49,-26.53 820.95,-27.67 823.96,-33.99"/>
</g>
<!-- Node27 -->
<g id="node27" class="node">
<title>Node27</title>
<g id="a_node27"><a xlink:title=" ">
<polygon fill="white" stroke="#bfbfbf" points="554.75,-0.5 554.75,-26.5 630.75,-26.5 630.75,-0.5 554.75,-0.5"/>
<text text-anchor="middle" x="592.75" y="-9.7" font-family="Source Sans Pro" font-size="16.00">iostream</text>
</a>
</g>
</g>
<!-- Node24&#45;&gt;Node27 -->
<g id="edge61" class="edge">
<title>Node24&#45;&gt;Node27</title>
<path fill="none" stroke="midnightblue" d="M674.65,-63.5C657.77,-53.4 637.77,-41.44 621.77,-31.86"/>
<polygon fill="midnightblue" stroke="midnightblue" points="623.24,-28.66 612.86,-26.53 619.64,-34.67 623.24,-28.66"/>
</g>
<!-- Node28 -->
<g id="node28" class="node">
<title>Node28</title>
<g id="a_node28"><a xlink:title=" ">
<polygon fill="white" stroke="#bfbfbf" points="648.75,-0.5 648.75,-26.5 700.75,-26.5 700.75,-0.5 648.75,-0.5"/>
<text text-anchor="middle" x="674.75" y="-9.7" font-family="Source Sans Pro" font-size="16.00">regex</text>
</a>
</g>
</g>
<!-- Node24&#45;&gt;Node28 -->
<g id="edge62" class="edge">
<title>Node24&#45;&gt;Node28</title>
<path fill="none" stroke="midnightblue" d="M699.25,-63.5C694.86,-54.72 689.77,-44.54 685.37,-35.73"/>
<polygon fill="midnightblue" stroke="midnightblue" points="688.37,-33.91 680.77,-26.53 682.11,-37.04 688.37,-33.91"/>
</g>
<!-- Node29&#45;&gt;Node4 -->
<g id="edge73" class="edge">
<title>Node29&#45;&gt;Node4</title>
<path fill="none" stroke="midnightblue" d="M1854.67,-153.42C1807.5,-139.19 1729.3,-115.61 1679.43,-100.58"/>
<polygon fill="midnightblue" stroke="midnightblue" points="1680.44,-97.22 1669.86,-97.69 1678.42,-103.93 1680.44,-97.22"/>
</g>
<!-- Node29&#45;&gt;Node6 -->
<g id="edge74" class="edge">
<title>Node29&#45;&gt;Node6</title>
<path fill="none" stroke="midnightblue" d="M1889.19,-153.32C1878.22,-130.88 1851.44,-83.44 1812.75,-63 1760.14,-35.2 1347.57,-19.89 1216.54,-15.7"/>
<polygon fill="midnightblue" stroke="midnightblue" points="1216.64,-12.2 1206.53,-15.38 1216.42,-19.2 1216.64,-12.2"/>
</g>
</g>
</svg>
