<?xml version="1.0" encoding="UTF-8" standalone="no"?>
<!DOCTYPE svg PUBLIC "-//W3C//DTD SVG 1.1//EN"
 "http://www.w3.org/Graphics/SVG/1.1/DTD/svg11.dtd">
<!-- Generated by graphviz version 2.43.0 (0)
 -->
<!-- Title: Illumination&#45;Engine/src/GraphicsModule/IESettings.cpp Pages: 1 -->
<svg width="944pt" height="260pt"
 viewBox="0.00 0.00 944.00 260.00" xmlns="http://www.w3.org/2000/svg" xmlns:xlink="http://www.w3.org/1999/xlink">
<g id="graph0" class="graph" transform="scale(1 1) rotate(0) translate(4 256)">
<title>Illumination&#45;Engine/src/GraphicsModule/IESettings.cpp</title>
<polygon fill="white" stroke="transparent" points="-4,4 -4,-256 940,-256 940,4 -4,4"/>
<!-- Node1 -->
<g id="node1" class="node">
<title>Node1</title>
<g id="a_node1"><a xlink:title=" ">
<polygon fill="#bfbfbf" stroke="black" points="443,-189.5 443,-251.5 600,-251.5 600,-189.5 443,-189.5"/>
<text text-anchor="start" x="451" y="-234.7" font-family="Source Sans Pro" font-size="16.00">Illumination&#45;Engine</text>
<text text-anchor="start" x="451" y="-216.7" font-family="Source Sans Pro" font-size="16.00">/src/GraphicsModule</text>
<text text-anchor="middle" x="521.5" y="-198.7" font-family="Source Sans Pro" font-size="16.00">/IESettings.cpp</text>
</a>
</g>
</g>
<!-- Node2 -->
<g id="node2" class="node">
<title>Node2</title>
<g id="a_node2"><a xlink:href="_i_e_settings_8hpp.html" target="_top" xlink:title=" ">
<polygon fill="white" stroke="black" points="464.5,-126.5 464.5,-152.5 578.5,-152.5 578.5,-126.5 464.5,-126.5"/>
<text text-anchor="middle" x="521.5" y="-135.7" font-family="Source Sans Pro" font-size="16.00">IESettings.hpp</text>
</a>
</g>
</g>
<!-- Node1&#45;&gt;Node2 -->
<g id="edge1" class="edge">
<title>Node1&#45;&gt;Node2</title>
<path fill="none" stroke="midnightblue" d="M521.5,-189.18C521.5,-180.45 521.5,-171.08 521.5,-162.91"/>
<polygon fill="midnightblue" stroke="midnightblue" points="525,-162.7 521.5,-152.7 518,-162.7 525,-162.7"/>
</g>
<!-- Node3 -->
<g id="node3" class="node">
<title>Node3</title>
<g id="a_node3"><a xlink:href="_i_e_version_8hpp.html" target="_top" xlink:title=" ">
<polygon fill="white" stroke="black" points="51.5,-63.5 51.5,-89.5 161.5,-89.5 161.5,-63.5 51.5,-63.5"/>
<text text-anchor="middle" x="106.5" y="-72.7" font-family="Source Sans Pro" font-size="16.00">IEVersion.hpp</text>
</a>
</g>
</g>
<!-- Node2&#45;&gt;Node3 -->
<g id="edge2" class="edge">
<title>Node2&#45;&gt;Node3</title>
<path fill="none" stroke="midnightblue" d="M464.46,-131.21C395.78,-122.28 277.01,-106.3 175.5,-90 174.25,-89.8 172.99,-89.59 171.71,-89.39"/>
<polygon fill="midnightblue" stroke="midnightblue" points="172.27,-85.93 161.83,-87.72 171.11,-92.83 172.27,-85.93"/>
</g>
<!-- Node5 -->
<g id="node5" class="node">
<title>Node5</title>
<g id="a_node5"><a xlink:title=" ">
<polygon fill="white" stroke="#bfbfbf" points="162,-0.5 162,-26.5 217,-26.5 217,-0.5 162,-0.5"/>
<text text-anchor="middle" x="189.5" y="-9.7" font-family="Source Sans Pro" font-size="16.00">string</text>
</a>
</g>
</g>
<!-- Node2&#45;&gt;Node5 -->
<g id="edge13" class="edge">
<title>Node2&#45;&gt;Node5</title>
<path fill="none" stroke="midnightblue" d="M464.36,-136.91C384.74,-133.52 246.06,-122.92 209.5,-90 194.79,-76.75 190.35,-54.05 189.26,-37"/>
<polygon fill="midnightblue" stroke="midnightblue" points="192.75,-36.65 188.94,-26.76 185.75,-36.86 192.75,-36.65"/>
</g>
<!-- Node7 -->
<g id="node7" class="node">
<title>Node7</title>
<g id="a_node7"><a xlink:href="_i_e_logger_8hpp.html" target="_top" xlink:title=" ">
<polygon fill="white" stroke="black" points="218,-63.5 218,-89.5 441,-89.5 441,-63.5 218,-63.5"/>
<text text-anchor="middle" x="329.5" y="-72.7" font-family="Source Sans Pro" font-size="16.00">Core/LogModule/IELogger.hpp</text>
</a>
</g>
</g>
<!-- Node2&#45;&gt;Node7 -->
<g id="edge6" class="edge">
<title>Node2&#45;&gt;Node7</title>
<path fill="none" stroke="midnightblue" d="M483.57,-126.45C453.06,-116.76 410.03,-103.08 377.19,-92.65"/>
<polygon fill="midnightblue" stroke="midnightblue" points="377.94,-89.22 367.35,-89.53 375.82,-95.89 377.94,-89.22"/>
</g>
<!-- Node10 -->
<g id="node10" class="node">
<title>Node10</title>
<g id="a_node10"><a xlink:title=" ">
<polygon fill="white" stroke="#bfbfbf" points="459,-63.5 459,-89.5 584,-89.5 584,-63.5 459,-63.5"/>
<text text-anchor="middle" x="521.5" y="-72.7" font-family="Source Sans Pro" font-size="16.00">vulkan/vulkan.h</text>
</a>
</g>
</g>
<!-- Node2&#45;&gt;Node10 -->
<g id="edge10" class="edge">
<title>Node2&#45;&gt;Node10</title>
<path fill="none" stroke="midnightblue" d="M521.5,-126.45C521.5,-118.85 521.5,-108.79 521.5,-99.78"/>
<polygon fill="midnightblue" stroke="midnightblue" points="525,-99.53 521.5,-89.53 518,-99.53 525,-99.53"/>
</g>
<!-- Node11 -->
<g id="node11" class="node">
<title>Node11</title>
<g id="a_node11"><a xlink:title=" ">
<polygon fill="white" stroke="#bfbfbf" points="602.5,-63.5 602.5,-89.5 740.5,-89.5 740.5,-63.5 602.5,-63.5"/>
<text text-anchor="middle" x="671.5" y="-72.7" font-family="Source Sans Pro" font-size="16.00">include/GL/glew.h</text>
</a>
</g>
</g>
<!-- Node2&#45;&gt;Node11 -->
<g id="edge11" class="edge">
<title>Node2&#45;&gt;Node11</title>
<path fill="none" stroke="midnightblue" d="M551.14,-126.45C574.45,-116.97 607.14,-103.67 632.57,-93.33"/>
<polygon fill="midnightblue" stroke="midnightblue" points="633.98,-96.54 641.93,-89.53 631.34,-90.05 633.98,-96.54"/>
</g>
<!-- Node12 -->
<g id="node12" class="node">
<title>Node12</title>
<g id="a_node12"><a xlink:title=" ">
<polygon fill="white" stroke="#bfbfbf" points="758.5,-63.5 758.5,-89.5 866.5,-89.5 866.5,-63.5 758.5,-63.5"/>
<text text-anchor="middle" x="812.5" y="-72.7" font-family="Source Sans Pro" font-size="16.00">GLFW/glfw3.h</text>
</a>
</g>
</g>
<!-- Node2&#45;&gt;Node12 -->
<g id="edge12" class="edge">
<title>Node2&#45;&gt;Node12</title>
<path fill="none" stroke="midnightblue" d="M578.65,-126.52C627.53,-116.27 697.82,-101.54 748.56,-90.9"/>
<polygon fill="midnightblue" stroke="midnightblue" points="749.37,-94.31 758.44,-88.83 747.93,-87.46 749.37,-94.31"/>
</g>
<!-- Node13 -->
<g id="node13" class="node">
<title>Node13</title>
<g id="a_node13"><a xlink:title=" ">
<polygon fill="white" stroke="#bfbfbf" points="885,-63.5 885,-89.5 936,-89.5 936,-63.5 885,-63.5"/>
<text text-anchor="middle" x="910.5" y="-72.7" font-family="Source Sans Pro" font-size="16.00">array</text>
</a>
</g>
</g>
<!-- Node2&#45;&gt;Node13 -->
<g id="edge14" class="edge">
<title>Node2&#45;&gt;Node13</title>
<path fill="none" stroke="midnightblue" d="M578.58,-134.34C647.06,-128.53 765.27,-115.94 874.8,-89.8"/>
<polygon fill="midnightblue" stroke="midnightblue" points="875.8,-93.15 884.69,-87.39 874.14,-86.35 875.8,-93.15"/>
</g>
<!-- Node4 -->
<g id="node4" class="node">
<title>Node4</title>
<g id="a_node4"><a xlink:title=" ">
<polygon fill="white" stroke="#bfbfbf" points="0,-0.5 0,-26.5 63,-26.5 63,-0.5 0,-0.5"/>
<text text-anchor="middle" x="31.5" y="-9.7" font-family="Source Sans Pro" font-size="16.00">cstdint</text>
</a>
</g>
</g>
<!-- Node3&#45;&gt;Node4 -->
<g id="edge3" class="edge">
<title>Node3&#45;&gt;Node4</title>
<path fill="none" stroke="midnightblue" d="M91.68,-63.45C81,-54.76 66.38,-42.87 54.23,-32.99"/>
<polygon fill="midnightblue" stroke="midnightblue" points="56.25,-30.12 46.29,-26.53 51.84,-35.55 56.25,-30.12"/>
</g>
<!-- Node3&#45;&gt;Node5 -->
<g id="edge4" class="edge">
<title>Node3&#45;&gt;Node5</title>
<path fill="none" stroke="midnightblue" d="M122.9,-63.45C134.83,-54.68 151.21,-42.64 164.73,-32.7"/>
<polygon fill="midnightblue" stroke="midnightblue" points="167.15,-35.27 173.14,-26.53 163.01,-29.63 167.15,-35.27"/>
</g>
<!-- Node6 -->
<g id="node6" class="node">
<title>Node6</title>
<g id="a_node6"><a xlink:title=" ">
<polygon fill="white" stroke="#bfbfbf" points="81,-0.5 81,-26.5 140,-26.5 140,-0.5 81,-0.5"/>
<text text-anchor="middle" x="110.5" y="-9.7" font-family="Source Sans Pro" font-size="16.00">vector</text>
</a>
</g>
</g>
<!-- Node3&#45;&gt;Node6 -->
<g id="edge5" class="edge">
<title>Node3&#45;&gt;Node6</title>
<path fill="none" stroke="midnightblue" d="M107.29,-63.45C107.79,-55.85 108.45,-45.79 109.04,-36.78"/>
<polygon fill="midnightblue" stroke="midnightblue" points="112.55,-36.73 109.71,-26.53 105.56,-36.28 112.55,-36.73"/>
</g>
<!-- Node7&#45;&gt;Node5 -->
<g id="edge8" class="edge">
<title>Node7&#45;&gt;Node5</title>
<path fill="none" stroke="midnightblue" d="M301.84,-63.45C280.27,-54.05 250.1,-40.91 226.46,-30.61"/>
<polygon fill="midnightblue" stroke="midnightblue" points="227.67,-27.31 217.1,-26.53 224.87,-33.73 227.67,-27.31"/>
</g>
<!-- Node8 -->
<g id="node8" class="node">
<title>Node8</title>
<g id="a_node8"><a xlink:title=" ">
<polygon fill="white" stroke="#bfbfbf" points="238.5,-0.5 238.5,-26.5 416.5,-26.5 416.5,-0.5 238.5,-0.5"/>
<text text-anchor="middle" x="327.5" y="-9.7" font-family="Source Sans Pro" font-size="16.00">include/spdlog/logger.h</text>
</a>
</g>
</g>
<!-- Node7&#45;&gt;Node8 -->
<g id="edge7" class="edge">
<title>Node7&#45;&gt;Node8</title>
<path fill="none" stroke="midnightblue" d="M329.1,-63.45C328.86,-55.85 328.53,-45.79 328.23,-36.78"/>
<polygon fill="midnightblue" stroke="midnightblue" points="331.72,-36.41 327.89,-26.53 324.72,-36.64 331.72,-36.41"/>
</g>
<!-- Node9 -->
<g id="node9" class="node">
<title>Node9</title>
<g id="a_node9"><a xlink:title=" ">
<polygon fill="white" stroke="#bfbfbf" points="434.5,-0.5 434.5,-26.5 508.5,-26.5 508.5,-0.5 434.5,-0.5"/>
<text text-anchor="middle" x="471.5" y="-9.7" font-family="Source Sans Pro" font-size="16.00">memory</text>
</a>
</g>
</g>
<!-- Node7&#45;&gt;Node9 -->
<g id="edge9" class="edge">
<title>Node7&#45;&gt;Node9</title>
<path fill="none" stroke="midnightblue" d="M357.55,-63.45C379.43,-54.05 410.03,-40.91 434.01,-30.61"/>
<polygon fill="midnightblue" stroke="midnightblue" points="435.7,-33.69 443.5,-26.53 432.93,-27.26 435.7,-33.69"/>
</g>
</g>
</svg>
