<?xml version="1.0" encoding="UTF-8" standalone="no"?>
<!DOCTYPE svg PUBLIC "-//W3C//DTD SVG 1.1//EN"
 "http://www.w3.org/Graphics/SVG/1.1/DTD/svg11.dtd">
<!-- Generated by graphviz version 2.43.0 (0)
 -->
<!-- Title: Illumination&#45;Engine/src/GraphicsModule/CommandBuffer/IEDependent.hpp Pages: 1 -->
<svg width="267pt" height="134pt"
 viewBox="0.00 0.00 267.00 134.00" xmlns="http://www.w3.org/2000/svg" xmlns:xlink="http://www.w3.org/1999/xlink">
<g id="graph0" class="graph" transform="scale(1 1) rotate(0) translate(4 130)">
<title>Illumination&#45;Engine/src/GraphicsModule/CommandBuffer/IEDependent.hpp</title>
<polygon fill="white" stroke="transparent" points="-4,4 -4,-130 263,-130 263,4 -4,4"/>
<!-- Node1 -->
<g id="node1" class="node">
<title>Node1</title>
<g id="a_node1"><a xlink:title=" ">
<polygon fill="#bfbfbf" stroke="black" points="0,-63.5 0,-125.5 259,-125.5 259,-63.5 0,-63.5"/>
<text text-anchor="start" x="8" y="-108.7" font-family="Source Sans Pro" font-size="16.00">Illumination&#45;Engine</text>
<text text-anchor="start" x="8" y="-90.7" font-family="Source Sans Pro" font-size="16.00">/src/GraphicsModule</text>
<text text-anchor="middle" x="129.5" y="-72.7" font-family="Source Sans Pro" font-size="16.00">/CommandBuffer/IEDependent.hpp</text>
</a>
</g>
</g>
<!-- Node2 -->
<g id="node2" class="node">
<title>Node2</title>
<g id="a_node2"><a xlink:title=" ">
<polygon fill="white" stroke="#bfbfbf" points="58,-0.5 58,-26.5 117,-26.5 117,-0.5 58,-0.5"/>
<text text-anchor="middle" x="87.5" y="-9.7" font-family="Source Sans Pro" font-size="16.00">vector</text>
</a>
</g>
</g>
<!-- Node1&#45;&gt;Node2 -->
<g id="edge1" class="edge">
<title>Node1&#45;&gt;Node2</title>
<path fill="none" stroke="midnightblue" d="M113.38,-63.18C108.47,-53.95 103.19,-44.01 98.68,-35.54"/>
<polygon fill="midnightblue" stroke="midnightblue" points="101.77,-33.89 93.99,-26.7 95.59,-37.18 101.77,-33.89"/>
</g>
<!-- Node3 -->
<g id="node3" class="node">
<title>Node3</title>
<g id="a_node3"><a xlink:title=" ">
<polygon fill="white" stroke="#bfbfbf" points="135.5,-0.5 135.5,-26.5 209.5,-26.5 209.5,-0.5 135.5,-0.5"/>
<text text-anchor="middle" x="172.5" y="-9.7" font-family="Source Sans Pro" font-size="16.00">memory</text>
</a>
</g>
</g>
<!-- Node1&#45;&gt;Node3 -->
<g id="edge2" class="edge">
<title>Node1&#45;&gt;Node3</title>
<path fill="none" stroke="midnightblue" d="M146,-63.18C151.03,-53.95 156.44,-44.01 161.05,-35.54"/>
<polygon fill="midnightblue" stroke="midnightblue" points="164.15,-37.16 165.86,-26.7 158,-33.81 164.15,-37.16"/>
</g>
</g>
</svg>
