<?xml version="1.0" encoding="UTF-8" standalone="no"?>
<!DOCTYPE svg PUBLIC "-//W3C//DTD SVG 1.1//EN"
 "http://www.w3.org/Graphics/SVG/1.1/DTD/svg11.dtd">
<!-- Generated by graphviz version 2.43.0 (0)
 -->
<!-- Title: Illumination&#45;Engine/src/GraphicsModule/CommandBuffer/DependencyStructs/IEBufferMemoryBarrier.hpp Pages: 1 -->
<svg width="945pt" height="359pt"
 viewBox="0.00 0.00 945.47 359.00" xmlns="http://www.w3.org/2000/svg" xmlns:xlink="http://www.w3.org/1999/xlink">
<g id="graph0" class="graph" transform="scale(1 1) rotate(0) translate(4 355)">
<title>Illumination&#45;Engine/src/GraphicsModule/CommandBuffer/DependencyStructs/IEBufferMemoryBarrier.hpp</title>
<polygon fill="white" stroke="transparent" points="-4,4 -4,-355 941.47,-355 941.47,4 -4,4"/>
<!-- Node1 -->
<g id="node1" class="node">
<title>Node1</title>
<g id="a_node1"><a xlink:title=" ">
<polygon fill="#bfbfbf" stroke="black" points="464.46,-270.5 464.46,-350.5 736.46,-350.5 736.46,-270.5 464.46,-270.5"/>
<text text-anchor="start" x="472.46" y="-333.7" font-family="Source Sans Pro" font-size="16.00">Illumination&#45;Engine</text>
<text text-anchor="start" x="472.46" y="-315.7" font-family="Source Sans Pro" font-size="16.00">/src/GraphicsModule</text>
<text text-anchor="start" x="472.46" y="-297.7" font-family="Source Sans Pro" font-size="16.00">/CommandBuffer/DependencyStructs</text>
<text text-anchor="middle" x="600.46" y="-279.7" font-family="Source Sans Pro" font-size="16.00">/IEBufferMemoryBarrier.hpp</text>
</a>
</g>
</g>
<!-- Node2 -->
<g id="node2" class="node">
<title>Node2</title>
<g id="a_node2"><a xlink:href="_i_e_buffer_8hpp.html" target="_top" xlink:title=" ">
<polygon fill="white" stroke="black" points="424.96,-207.5 424.96,-233.5 571.96,-233.5 571.96,-207.5 424.96,-207.5"/>
<text text-anchor="middle" x="498.46" y="-216.7" font-family="Source Sans Pro" font-size="16.00">Buffer/IEBuffer.hpp</text>
</a>
</g>
</g>
<!-- Node1&#45;&gt;Node2 -->
<g id="edge1" class="edge">
<title>Node1&#45;&gt;Node2</title>
<path fill="none" stroke="midnightblue" d="M555.13,-270.39C543.04,-259.96 530.52,-249.16 520.33,-240.37"/>
<polygon fill="midnightblue" stroke="midnightblue" points="522.57,-237.68 512.71,-233.79 518,-242.98 522.57,-237.68"/>
</g>
<!-- Node4 -->
<g id="node4" class="node">
<title>Node4</title>
<g id="a_node4"><a xlink:title=" ">
<polygon fill="white" stroke="#bfbfbf" points="575.46,-63.5 575.46,-89.5 649.46,-89.5 649.46,-63.5 575.46,-63.5"/>
<text text-anchor="middle" x="612.46" y="-72.7" font-family="Source Sans Pro" font-size="16.00">memory</text>
</a>
</g>
</g>
<!-- Node1&#45;&gt;Node4 -->
<g id="edge19" class="edge">
<title>Node1&#45;&gt;Node4</title>
<path fill="none" stroke="midnightblue" d="M602.48,-270.41C605.02,-221.41 609.28,-139.09 611.31,-99.74"/>
<polygon fill="midnightblue" stroke="midnightblue" points="614.81,-99.8 611.83,-89.64 607.82,-99.44 614.81,-99.8"/>
</g>
<!-- Node7 -->
<g id="node7" class="node">
<title>Node7</title>
<g id="a_node7"><a xlink:title=" ">
<polygon fill="white" stroke="#bfbfbf" points="786.96,-63.5 786.96,-89.5 911.96,-89.5 911.96,-63.5 786.96,-63.5"/>
<text text-anchor="middle" x="849.46" y="-72.7" font-family="Source Sans Pro" font-size="16.00">vulkan/vulkan.h</text>
</a>
</g>
</g>
<!-- Node1&#45;&gt;Node7 -->
<g id="edge20" class="edge">
<title>Node1&#45;&gt;Node7</title>
<path fill="none" stroke="midnightblue" d="M736.59,-281.73C797.67,-261.76 864.06,-227.9 900.46,-171 911.24,-154.15 908.35,-144.38 900.46,-126 895.43,-114.28 886.02,-104.05 876.64,-96.04"/>
<polygon fill="midnightblue" stroke="midnightblue" points="878.52,-93.07 868.51,-89.6 874.18,-98.56 878.52,-93.07"/>
</g>
<!-- Node3 -->
<g id="node3" class="node">
<title>Node3</title>
<g id="a_node3"><a xlink:href="_i_e_dependency_8hpp.html" target="_top" xlink:title=" ">
<polygon fill="white" stroke="black" points="628.96,-126.5 628.96,-170.5 873.96,-170.5 873.96,-126.5 628.96,-126.5"/>
<text text-anchor="start" x="636.96" y="-153.7" font-family="Source Sans Pro" font-size="16.00">GraphicsModule/CommandBuffer</text>
<text text-anchor="middle" x="751.46" y="-135.7" font-family="Source Sans Pro" font-size="16.00">/IEDependency.hpp</text>
</a>
</g>
</g>
<!-- Node2&#45;&gt;Node3 -->
<g id="edge2" class="edge">
<title>Node2&#45;&gt;Node3</title>
<path fill="none" stroke="midnightblue" d="M541.95,-207.47C575.83,-198.09 623.93,-184.79 665.49,-173.29"/>
<polygon fill="midnightblue" stroke="midnightblue" points="666.65,-176.6 675.35,-170.56 664.78,-169.85 666.65,-176.6"/>
</g>
<!-- Node6 -->
<g id="node6" class="node">
<title>Node6</title>
<g id="a_node6"><a xlink:title=" ">
<polygon fill="white" stroke="#bfbfbf" points="721.96,-0.5 721.96,-26.5 780.96,-26.5 780.96,-0.5 721.96,-0.5"/>
<text text-anchor="middle" x="751.46" y="-9.7" font-family="Source Sans Pro" font-size="16.00">vector</text>
</a>
</g>
</g>
<!-- Node2&#45;&gt;Node6 -->
<g id="edge18" class="edge">
<title>Node2&#45;&gt;Node6</title>
<path fill="none" stroke="midnightblue" d="M571.98,-220.22C674.44,-219.67 852.97,-212.54 900.46,-171 937.27,-138.81 950.92,-102.03 921.46,-63 905.81,-42.26 836.5,-27.74 791.36,-20.28"/>
<polygon fill="midnightblue" stroke="midnightblue" points="791.71,-16.8 781.28,-18.67 790.6,-23.71 791.71,-16.8"/>
</g>
<!-- Node2&#45;&gt;Node7 -->
<g id="edge15" class="edge">
<title>Node2&#45;&gt;Node7</title>
<path fill="none" stroke="midnightblue" d="M572.16,-215.39C678.17,-208.72 863.24,-193.93 883.46,-171 902.04,-149.94 883.3,-117.91 867.16,-97.35"/>
<polygon fill="midnightblue" stroke="midnightblue" points="869.8,-95.05 860.73,-89.56 864.39,-99.5 869.8,-95.05"/>
</g>
<!-- Node8 -->
<g id="node8" class="node">
<title>Node8</title>
<g id="a_node8"><a xlink:href="_i_e_a_p_i_8hpp.html" target="_top" xlink:title=" ">
<polygon fill="white" stroke="black" points="25.96,-135.5 25.96,-161.5 108.96,-161.5 108.96,-135.5 25.96,-135.5"/>
<text text-anchor="middle" x="67.46" y="-144.7" font-family="Source Sans Pro" font-size="16.00">IEAPI.hpp</text>
</a>
</g>
</g>
<!-- Node2&#45;&gt;Node8 -->
<g id="edge7" class="edge">
<title>Node2&#45;&gt;Node8</title>
<path fill="none" stroke="midnightblue" d="M424.95,-216.23C347.34,-211.38 221.99,-199.52 117.46,-171 112.05,-169.52 106.46,-167.57 101.06,-165.45"/>
<polygon fill="midnightblue" stroke="midnightblue" points="102.22,-162.14 91.64,-161.51 99.51,-168.6 102.22,-162.14"/>
</g>
<!-- Node10 -->
<g id="node10" class="node">
<title>Node10</title>
<g id="a_node10"><a xlink:title=" ">
<polygon fill="white" stroke="#bfbfbf" points="7.96,-0.5 7.96,-26.5 70.96,-26.5 70.96,-0.5 7.96,-0.5"/>
<text text-anchor="middle" x="39.46" y="-9.7" font-family="Source Sans Pro" font-size="16.00">cstdint</text>
</a>
</g>
</g>
<!-- Node2&#45;&gt;Node10 -->
<g id="edge16" class="edge">
<title>Node2&#45;&gt;Node10</title>
<path fill="none" stroke="midnightblue" d="M424.72,-217.42C296.45,-213.03 43.29,-200.67 16.46,-171 -17.57,-133.37 9.5,-68.54 27.2,-35.37"/>
<polygon fill="midnightblue" stroke="midnightblue" points="30.32,-36.97 32.1,-26.53 24.19,-33.58 30.32,-36.97"/>
</g>
<!-- Node11 -->
<g id="node11" class="node">
<title>Node11</title>
<g id="a_node11"><a xlink:title=" ">
<polygon fill="white" stroke="#bfbfbf" points="126.96,-135.5 126.96,-161.5 311.96,-161.5 311.96,-135.5 126.96,-135.5"/>
<text text-anchor="middle" x="219.46" y="-144.7" font-family="Source Sans Pro" font-size="16.00">include/vk_mem_alloc.h</text>
</a>
</g>
</g>
<!-- Node2&#45;&gt;Node11 -->
<g id="edge13" class="edge">
<title>Node2&#45;&gt;Node11</title>
<path fill="none" stroke="midnightblue" d="M450.5,-207.47C402.59,-195.45 328.89,-176.96 277.66,-164.1"/>
<polygon fill="midnightblue" stroke="midnightblue" points="278.28,-160.65 267.73,-161.61 276.58,-167.44 278.28,-160.65"/>
</g>
<!-- Node12 -->
<g id="node12" class="node">
<title>Node12</title>
<g id="a_node12"><a xlink:title=" ">
<polygon fill="white" stroke="#bfbfbf" points="330.46,-135.5 330.46,-161.5 468.46,-161.5 468.46,-135.5 330.46,-135.5"/>
<text text-anchor="middle" x="399.46" y="-144.7" font-family="Source Sans Pro" font-size="16.00">include/GL/glew.h</text>
</a>
</g>
</g>
<!-- Node2&#45;&gt;Node12 -->
<g id="edge14" class="edge">
<title>Node2&#45;&gt;Node12</title>
<path fill="none" stroke="midnightblue" d="M481.22,-207.31C465.6,-196.27 442.4,-179.86 424.7,-167.34"/>
<polygon fill="midnightblue" stroke="midnightblue" points="426.69,-164.47 416.51,-161.55 422.65,-170.18 426.69,-164.47"/>
</g>
<!-- Node13 -->
<g id="node13" class="node">
<title>Node13</title>
<g id="a_node13"><a xlink:title=" ">
<polygon fill="white" stroke="#bfbfbf" points="486.46,-135.5 486.46,-161.5 572.46,-161.5 572.46,-135.5 486.46,-135.5"/>
<text text-anchor="middle" x="529.46" y="-144.7" font-family="Source Sans Pro" font-size="16.00">functional</text>
</a>
</g>
</g>
<!-- Node2&#45;&gt;Node13 -->
<g id="edge17" class="edge">
<title>Node2&#45;&gt;Node13</title>
<path fill="none" stroke="midnightblue" d="M503.86,-207.31C508.31,-197.27 514.71,-182.8 520.01,-170.85"/>
<polygon fill="midnightblue" stroke="midnightblue" points="523.27,-172.11 524.12,-161.55 516.87,-169.28 523.27,-172.11"/>
</g>
<!-- Node3&#45;&gt;Node4 -->
<g id="edge3" class="edge">
<title>Node3&#45;&gt;Node4</title>
<path fill="none" stroke="midnightblue" d="M709.76,-126.5C689.14,-116.12 664.62,-103.77 645.35,-94.06"/>
<polygon fill="midnightblue" stroke="midnightblue" points="646.86,-90.9 636.35,-89.53 643.71,-97.15 646.86,-90.9"/>
</g>
<!-- Node5 -->
<g id="node5" class="node">
<title>Node5</title>
<g id="a_node5"><a xlink:title=" ">
<polygon fill="white" stroke="#bfbfbf" points="135.96,-0.5 135.96,-26.5 190.96,-26.5 190.96,-0.5 135.96,-0.5"/>
<text text-anchor="middle" x="163.46" y="-9.7" font-family="Source Sans Pro" font-size="16.00">string</text>
</a>
</g>
</g>
<!-- Node3&#45;&gt;Node5 -->
<g id="edge4" class="edge">
<title>Node3&#45;&gt;Node5</title>
<path fill="none" stroke="midnightblue" d="M735.18,-126.36C718.36,-106.26 690.17,-77.07 658.46,-63 576.61,-26.68 302.46,-17.38 201.34,-15.15"/>
<polygon fill="midnightblue" stroke="midnightblue" points="201.35,-11.65 191.27,-14.94 201.2,-18.65 201.35,-11.65"/>
</g>
<!-- Node3&#45;&gt;Node6 -->
<g id="edge5" class="edge">
<title>Node3&#45;&gt;Node6</title>
<path fill="none" stroke="midnightblue" d="M751.46,-126.43C751.46,-102.03 751.46,-62.03 751.46,-37.03"/>
<polygon fill="midnightblue" stroke="midnightblue" points="754.96,-36.71 751.46,-26.71 747.96,-36.71 754.96,-36.71"/>
</g>
<!-- Node3&#45;&gt;Node7 -->
<g id="edge6" class="edge">
<title>Node3&#45;&gt;Node7</title>
<path fill="none" stroke="midnightblue" d="M780.86,-126.5C794.74,-116.59 811.12,-104.88 824.4,-95.4"/>
<polygon fill="midnightblue" stroke="midnightblue" points="826.52,-98.19 832.62,-89.53 822.45,-92.5 826.52,-98.19"/>
</g>
<!-- Node8&#45;&gt;Node5 -->
<g id="edge12" class="edge">
<title>Node8&#45;&gt;Node5</title>
<path fill="none" stroke="midnightblue" d="M91.49,-135.38C108.75,-125.47 131.23,-109.85 144.46,-90 155.06,-74.1 159.75,-52.74 161.82,-36.79"/>
<polygon fill="midnightblue" stroke="midnightblue" points="165.31,-37.06 162.88,-26.75 158.35,-36.33 165.31,-37.06"/>
</g>
<!-- Node9 -->
<g id="node9" class="node">
<title>Node9</title>
<g id="a_node9"><a xlink:href="_i_e_version_8hpp.html" target="_top" xlink:title=" ">
<polygon fill="white" stroke="black" points="25.46,-63.5 25.46,-89.5 135.46,-89.5 135.46,-63.5 25.46,-63.5"/>
<text text-anchor="middle" x="80.46" y="-72.7" font-family="Source Sans Pro" font-size="16.00">IEVersion.hpp</text>
</a>
</g>
</g>
<!-- Node8&#45;&gt;Node9 -->
<g id="edge8" class="edge">
<title>Node8&#45;&gt;Node9</title>
<path fill="none" stroke="midnightblue" d="M69.73,-135.31C71.55,-125.47 74.17,-111.38 76.36,-99.57"/>
<polygon fill="midnightblue" stroke="midnightblue" points="79.84,-100.02 78.22,-89.55 72.96,-98.75 79.84,-100.02"/>
</g>
<!-- Node9&#45;&gt;Node5 -->
<g id="edge10" class="edge">
<title>Node9&#45;&gt;Node5</title>
<path fill="none" stroke="midnightblue" d="M96.86,-63.45C108.8,-54.68 125.17,-42.64 138.7,-32.7"/>
<polygon fill="midnightblue" stroke="midnightblue" points="141.11,-35.27 147.1,-26.53 136.97,-29.63 141.11,-35.27"/>
</g>
<!-- Node9&#45;&gt;Node6 -->
<g id="edge11" class="edge">
<title>Node9&#45;&gt;Node6</title>
<path fill="none" stroke="midnightblue" d="M135.66,-70.48C267.29,-58.52 597.19,-28.52 711.62,-18.12"/>
<polygon fill="midnightblue" stroke="midnightblue" points="712.06,-21.6 721.7,-17.21 711.42,-14.63 712.06,-21.6"/>
</g>
<!-- Node9&#45;&gt;Node10 -->
<g id="edge9" class="edge">
<title>Node9&#45;&gt;Node10</title>
<path fill="none" stroke="midnightblue" d="M72.36,-63.45C66.91,-55.34 59.6,-44.46 53.25,-35.01"/>
<polygon fill="midnightblue" stroke="midnightblue" points="56.03,-32.87 47.54,-26.53 50.22,-36.78 56.03,-32.87"/>
</g>
</g>
</svg>
