<?xml version="1.0" encoding="UTF-8" standalone="no"?>
<!DOCTYPE svg PUBLIC "-//W3C//DTD SVG 1.1//EN"
 "http://www.w3.org/Graphics/SVG/1.1/DTD/svg11.dtd">
<!-- Generated by graphviz version 2.43.0 (0)
 -->
<!-- Title: Illumination&#45;Engine/src/GraphicsModule/Image/IETexture.hpp Pages: 1 -->
<svg width="3583pt" height="566pt"
 viewBox="0.00 0.00 3583.00 566.00" xmlns="http://www.w3.org/2000/svg" xmlns:xlink="http://www.w3.org/1999/xlink">
<g id="graph0" class="graph" transform="scale(1 1) rotate(0) translate(4 562)">
<title>Illumination&#45;Engine/src/GraphicsModule/Image/IETexture.hpp</title>
<polygon fill="white" stroke="transparent" points="-4,4 -4,-562 3579,-562 3579,4 -4,4"/>
<!-- Node1 -->
<g id="node1" class="node">
<title>Node1</title>
<g id="a_node1"><a xlink:title=" ">
<polygon fill="#bfbfbf" stroke="black" points="1805.5,-495.5 1805.5,-557.5 1967.5,-557.5 1967.5,-495.5 1805.5,-495.5"/>
<text text-anchor="start" x="1813.5" y="-540.7" font-family="Source Sans Pro" font-size="16.00">Illumination&#45;Engine</text>
<text text-anchor="start" x="1813.5" y="-522.7" font-family="Source Sans Pro" font-size="16.00">/src/GraphicsModule</text>
<text text-anchor="middle" x="1886.5" y="-504.7" font-family="Source Sans Pro" font-size="16.00">/Image/IETexture.hpp</text>
</a>
</g>
</g>
<!-- Node2 -->
<g id="node2" class="node">
<title>Node2</title>
<g id="a_node2"><a xlink:href="_i_e_render_engine_8hpp.html" target="_top" xlink:title=" ">
<polygon fill="white" stroke="black" points="1741,-99.5 1741,-161.5 1902,-161.5 1902,-99.5 1741,-99.5"/>
<text text-anchor="start" x="1749" y="-144.7" font-family="Source Sans Pro" font-size="16.00">Illumination&#45;Engine</text>
<text text-anchor="start" x="1749" y="-126.7" font-family="Source Sans Pro" font-size="16.00">/src/GraphicsModule</text>
<text text-anchor="middle" x="1821.5" y="-108.7" font-family="Source Sans Pro" font-size="16.00">/IERenderEngine.hpp</text>
</a>
</g>
</g>
<!-- Node1&#45;&gt;Node2 -->
<g id="edge1" class="edge">
<title>Node1&#45;&gt;Node2</title>
<path fill="none" stroke="midnightblue" d="M1855.36,-486.82C1849.81,-478.12 1844.77,-468.6 1841.5,-459 1806,-354.65 1812.74,-220.94 1818.15,-161.87"/>
<polygon fill="midnightblue" stroke="midnightblue" points="1852.53,-488.89 1861.03,-495.22 1858.34,-484.97 1852.53,-488.89"/>
</g>
<!-- Node10 -->
<g id="node10" class="node">
<title>Node10</title>
<g id="a_node10"><a xlink:href="_i_e_texture_8cpp.html" target="_top" xlink:title=" ">
<polygon fill="white" stroke="black" points="0,-0.5 0,-62.5 161,-62.5 161,-0.5 0,-0.5"/>
<text text-anchor="start" x="8" y="-45.7" font-family="Source Sans Pro" font-size="16.00">Illumination&#45;Engine</text>
<text text-anchor="start" x="8" y="-27.7" font-family="Source Sans Pro" font-size="16.00">/src/GraphicsModule</text>
<text text-anchor="middle" x="80.5" y="-9.7" font-family="Source Sans Pro" font-size="16.00">/Image/IETexture.cpp</text>
</a>
</g>
</g>
<!-- Node1&#45;&gt;Node10 -->
<g id="edge19" class="edge">
<title>Node1&#45;&gt;Node10</title>
<path fill="none" stroke="midnightblue" d="M1794.85,-523.46C1464.81,-514.92 356.5,-475.37 356.5,-329.5 356.5,-329.5 356.5,-329.5 356.5,-228.5 356.5,-176.71 225.68,-103.33 144.17,-62.63"/>
<polygon fill="midnightblue" stroke="midnightblue" points="1795.23,-526.97 1805.32,-523.73 1795.41,-519.97 1795.23,-526.97"/>
</g>
<!-- Node20 -->
<g id="node20" class="node">
<title>Node20</title>
<g id="a_node20"><a xlink:href="_i_e_material_8hpp.html" target="_top" xlink:title=" ">
<polygon fill="white" stroke="black" points="1850,-396.5 1850,-458.5 2053,-458.5 2053,-396.5 1850,-396.5"/>
<text text-anchor="start" x="1858" y="-441.7" font-family="Source Sans Pro" font-size="16.00">Illumination&#45;Engine</text>
<text text-anchor="start" x="1858" y="-423.7" font-family="Source Sans Pro" font-size="16.00">/src/GraphicsModule</text>
<text text-anchor="middle" x="1951.5" y="-405.7" font-family="Source Sans Pro" font-size="16.00">/Renderable/IEMaterial.hpp</text>
</a>
</g>
</g>
<!-- Node1&#45;&gt;Node20 -->
<g id="edge20" class="edge">
<title>Node1&#45;&gt;Node20</title>
<path fill="none" stroke="midnightblue" d="M1912.37,-486.9C1918.67,-477.5 1925.31,-467.58 1931.3,-458.64"/>
<polygon fill="midnightblue" stroke="midnightblue" points="1909.37,-485.08 1906.71,-495.34 1915.18,-488.98 1909.37,-485.08"/>
</g>
<!-- Node22 -->
<g id="node22" class="node">
<title>Node22</title>
<g id="a_node22"><a xlink:href="_i_e_renderable_8hpp.html" target="_top" xlink:title=" ">
<polygon fill="white" stroke="black" points="2015,-198.5 2015,-260.5 2242,-260.5 2242,-198.5 2015,-198.5"/>
<text text-anchor="start" x="2023" y="-243.7" font-family="Source Sans Pro" font-size="16.00">Illumination&#45;Engine</text>
<text text-anchor="start" x="2023" y="-225.7" font-family="Source Sans Pro" font-size="16.00">/src/GraphicsModule</text>
<text text-anchor="middle" x="2128.5" y="-207.7" font-family="Source Sans Pro" font-size="16.00">/Renderable/IERenderable.hpp</text>
</a>
</g>
</g>
<!-- Node1&#45;&gt;Node22 -->
<g id="edge31" class="edge">
<title>Node1&#45;&gt;Node22</title>
<path fill="none" stroke="midnightblue" d="M1977.68,-508.43C2008.26,-498.59 2040.21,-483.15 2062.5,-459 2114.31,-402.87 2125.71,-308.53 2128.04,-260.53"/>
<polygon fill="midnightblue" stroke="midnightblue" points="1976.36,-505.18 1967.81,-511.44 1978.4,-511.87 1976.36,-505.18"/>
</g>
<!-- Node3 -->
<g id="node3" class="node">
<title>Node3</title>
<g id="a_node3"><a xlink:href="_i_e_buffer_8cpp.html" target="_top" xlink:title=" ">
<polygon fill="white" stroke="black" points="2183,-0.5 2183,-62.5 2340,-62.5 2340,-0.5 2183,-0.5"/>
<text text-anchor="start" x="2191" y="-45.7" font-family="Source Sans Pro" font-size="16.00">Illumination&#45;Engine</text>
<text text-anchor="start" x="2191" y="-27.7" font-family="Source Sans Pro" font-size="16.00">/src/GraphicsModule</text>
<text text-anchor="middle" x="2261.5" y="-9.7" font-family="Source Sans Pro" font-size="16.00">/Buffer/IEBuffer.cpp</text>
</a>
</g>
</g>
<!-- Node2&#45;&gt;Node3 -->
<g id="edge2" class="edge">
<title>Node2&#45;&gt;Node3</title>
<path fill="none" stroke="midnightblue" d="M1912.04,-104.09C1919.61,-102.26 1927.17,-100.54 1934.5,-99 2039.64,-76.97 2069.2,-88.7 2173.5,-63 2176.48,-62.27 2179.51,-61.47 2182.55,-60.63"/>
<polygon fill="midnightblue" stroke="midnightblue" points="1910.96,-100.75 1902.09,-106.55 1912.64,-107.55 1910.96,-100.75"/>
</g>
<!-- Node4 -->
<g id="node4" class="node">
<title>Node4</title>
<g id="a_node4"><a xlink:href="_i_e_command_buffer_8cpp.html" target="_top" xlink:title=" ">
<polygon fill="white" stroke="black" points="2358,-0.5 2358,-62.5 2651,-62.5 2651,-0.5 2358,-0.5"/>
<text text-anchor="start" x="2366" y="-45.7" font-family="Source Sans Pro" font-size="16.00">Illumination&#45;Engine</text>
<text text-anchor="start" x="2366" y="-27.7" font-family="Source Sans Pro" font-size="16.00">/src/GraphicsModule</text>
<text text-anchor="middle" x="2504.5" y="-9.7" font-family="Source Sans Pro" font-size="16.00">/CommandBuffer/IECommandBuffer.cpp</text>
</a>
</g>
</g>
<!-- Node2&#45;&gt;Node4 -->
<g id="edge3" class="edge">
<title>Node2&#45;&gt;Node4</title>
<path fill="none" stroke="midnightblue" d="M1912.15,-103.53C1919.68,-101.84 1927.2,-100.29 1934.5,-99 2116.81,-66.75 2166.18,-88.91 2349.5,-63 2352.22,-62.62 2354.96,-62.22 2357.71,-61.8"/>
<polygon fill="midnightblue" stroke="midnightblue" points="1911.22,-100.16 1902.28,-105.84 1912.81,-106.97 1911.22,-100.16"/>
</g>
<!-- Node5 -->
<g id="node5" class="node">
<title>Node5</title>
<g id="a_node5"><a xlink:href="_i_e_command_pool_8cpp.html" target="_top" xlink:title=" ">
<polygon fill="white" stroke="black" points="2669.5,-0.5 2669.5,-62.5 2953.5,-62.5 2953.5,-0.5 2669.5,-0.5"/>
<text text-anchor="start" x="2677.5" y="-45.7" font-family="Source Sans Pro" font-size="16.00">Illumination&#45;Engine</text>
<text text-anchor="start" x="2677.5" y="-27.7" font-family="Source Sans Pro" font-size="16.00">/src/GraphicsModule</text>
<text text-anchor="middle" x="2811.5" y="-9.7" font-family="Source Sans Pro" font-size="16.00">/CommandBuffer/IECommandPool.cpp</text>
</a>
</g>
</g>
<!-- Node2&#45;&gt;Node5 -->
<g id="edge4" class="edge">
<title>Node2&#45;&gt;Node5</title>
<path fill="none" stroke="midnightblue" d="M1912.1,-103.23C1919.64,-101.6 1927.17,-100.16 1934.5,-99 2253.61,-48.62 2339.93,-103.09 2660.5,-63 2663.42,-62.63 2666.37,-62.24 2669.33,-61.83"/>
<polygon fill="midnightblue" stroke="midnightblue" points="1911.19,-99.85 1902.22,-105.48 1912.74,-106.68 1911.19,-99.85"/>
</g>
<!-- Node6 -->
<g id="node6" class="node">
<title>Node6</title>
<g id="a_node6"><a xlink:href="_i_e_a_p_i_8cpp.html" target="_top" xlink:title=" ">
<polygon fill="white" stroke="black" points="398,-0.5 398,-62.5 555,-62.5 555,-0.5 398,-0.5"/>
<text text-anchor="start" x="406" y="-45.7" font-family="Source Sans Pro" font-size="16.00">Illumination&#45;Engine</text>
<text text-anchor="start" x="406" y="-27.7" font-family="Source Sans Pro" font-size="16.00">/src/GraphicsModule</text>
<text text-anchor="middle" x="476.5" y="-9.7" font-family="Source Sans Pro" font-size="16.00">/IEAPI.cpp</text>
</a>
</g>
</g>
<!-- Node2&#45;&gt;Node6 -->
<g id="edge5" class="edge">
<title>Node2&#45;&gt;Node6</title>
<path fill="none" stroke="midnightblue" d="M1730.81,-117.87C1676.55,-111.33 1606.18,-103.58 1543.5,-99 1326.16,-83.11 777.63,-103.5 563.5,-63 560.83,-62.49 558.12,-61.92 555.41,-61.29"/>
<polygon fill="midnightblue" stroke="midnightblue" points="1730.4,-121.34 1740.75,-119.07 1731.24,-114.4 1730.4,-121.34"/>
</g>
<!-- Node7 -->
<g id="node7" class="node">
<title>Node7</title>
<g id="a_node7"><a xlink:href="_i_e_camera_8cpp.html" target="_top" xlink:title=" ">
<polygon fill="white" stroke="black" points="573,-0.5 573,-62.5 730,-62.5 730,-0.5 573,-0.5"/>
<text text-anchor="start" x="581" y="-45.7" font-family="Source Sans Pro" font-size="16.00">Illumination&#45;Engine</text>
<text text-anchor="start" x="581" y="-27.7" font-family="Source Sans Pro" font-size="16.00">/src/GraphicsModule</text>
<text text-anchor="middle" x="651.5" y="-9.7" font-family="Source Sans Pro" font-size="16.00">/IECamera.cpp</text>
</a>
</g>
</g>
<!-- Node2&#45;&gt;Node7 -->
<g id="edge6" class="edge">
<title>Node2&#45;&gt;Node7</title>
<path fill="none" stroke="midnightblue" d="M1730.79,-118.05C1676.53,-111.58 1606.16,-103.84 1543.5,-99 1186.87,-71.48 1090.81,-130.27 739.5,-63 736.48,-62.42 733.43,-61.76 730.36,-61.04"/>
<polygon fill="midnightblue" stroke="midnightblue" points="1730.39,-121.53 1740.73,-119.25 1731.22,-114.58 1730.39,-121.53"/>
</g>
<!-- Node8 -->
<g id="node8" class="node">
<title>Node8</title>
<g id="a_node8"><a xlink:href="_i_e_render_engine_8cpp.html" target="_top" xlink:title=" ">
<polygon fill="white" stroke="black" points="3416,-0.5 3416,-62.5 3575,-62.5 3575,-0.5 3416,-0.5"/>
<text text-anchor="start" x="3424" y="-45.7" font-family="Source Sans Pro" font-size="16.00">Illumination&#45;Engine</text>
<text text-anchor="start" x="3424" y="-27.7" font-family="Source Sans Pro" font-size="16.00">/src/GraphicsModule</text>
<text text-anchor="middle" x="3495.5" y="-9.7" font-family="Source Sans Pro" font-size="16.00">/IERenderEngine.cpp</text>
</a>
</g>
</g>
<!-- Node2&#45;&gt;Node8 -->
<g id="edge7" class="edge">
<title>Node2&#45;&gt;Node8</title>
<path fill="none" stroke="midnightblue" d="M1912.32,-129.16C2204.48,-127.53 3117.85,-118.04 3407.5,-63 3410.2,-62.49 3412.93,-61.91 3415.67,-61.27"/>
<polygon fill="midnightblue" stroke="midnightblue" points="1912.17,-125.66 1902.19,-129.22 1912.21,-132.66 1912.17,-125.66"/>
</g>
<!-- Node9 -->
<g id="node9" class="node">
<title>Node9</title>
<g id="a_node9"><a xlink:href="_i_e_image_8cpp.html" target="_top" xlink:title=" ">
<polygon fill="white" stroke="black" points="748,-0.5 748,-62.5 905,-62.5 905,-0.5 748,-0.5"/>
<text text-anchor="start" x="756" y="-45.7" font-family="Source Sans Pro" font-size="16.00">Illumination&#45;Engine</text>
<text text-anchor="start" x="756" y="-27.7" font-family="Source Sans Pro" font-size="16.00">/src/GraphicsModule</text>
<text text-anchor="middle" x="826.5" y="-9.7" font-family="Source Sans Pro" font-size="16.00">/Image/IEImage.cpp</text>
</a>
</g>
</g>
<!-- Node2&#45;&gt;Node9 -->
<g id="edge8" class="edge">
<title>Node2&#45;&gt;Node9</title>
<path fill="none" stroke="midnightblue" d="M1730.77,-118.34C1676.5,-111.96 1606.13,-104.22 1543.5,-99 1264.46,-75.72 1189.18,-117.37 914.5,-63 911.49,-62.4 908.44,-61.73 905.37,-60.99"/>
<polygon fill="midnightblue" stroke="midnightblue" points="1730.37,-121.82 1740.71,-119.51 1731.19,-114.86 1730.37,-121.82"/>
</g>
<!-- Node2&#45;&gt;Node10 -->
<g id="edge9" class="edge">
<title>Node2&#45;&gt;Node10</title>
<path fill="none" stroke="midnightblue" d="M1730.57,-129.3C1430.33,-128.09 472.55,-119.77 169.5,-63 166.77,-62.49 164.01,-61.91 161.24,-61.28"/>
<polygon fill="midnightblue" stroke="midnightblue" points="1730.96,-132.8 1740.97,-129.34 1730.98,-125.8 1730.96,-132.8"/>
</g>
<!-- Node11 -->
<g id="node11" class="node">
<title>Node11</title>
<g id="a_node11"><a xlink:href="_i_e_framebuffer_8cpp.html" target="_top" xlink:title=" ">
<polygon fill="white" stroke="black" points="923.5,-0.5 923.5,-62.5 1153.5,-62.5 1153.5,-0.5 923.5,-0.5"/>
<text text-anchor="start" x="931.5" y="-45.7" font-family="Source Sans Pro" font-size="16.00">Illumination&#45;Engine</text>
<text text-anchor="start" x="931.5" y="-27.7" font-family="Source Sans Pro" font-size="16.00">/src/GraphicsModule</text>
<text text-anchor="middle" x="1038.5" y="-9.7" font-family="Source Sans Pro" font-size="16.00">/RenderPass/IEFramebuffer.cpp</text>
</a>
</g>
</g>
<!-- Node2&#45;&gt;Node11 -->
<g id="edge10" class="edge">
<title>Node2&#45;&gt;Node11</title>
<path fill="none" stroke="midnightblue" d="M1730.99,-119.23C1676.65,-113.15 1606.14,-105.4 1543.5,-99 1374.73,-81.75 1330.79,-91.18 1163.5,-63 1160.31,-62.46 1157.07,-61.89 1153.82,-61.28"/>
<polygon fill="midnightblue" stroke="midnightblue" points="1730.61,-122.71 1740.94,-120.34 1731.39,-115.75 1730.61,-122.71"/>
</g>
<!-- Node12 -->
<g id="node12" class="node">
<title>Node12</title>
<g id="a_node12"><a xlink:href="_i_e_render_pass_8cpp.html" target="_top" xlink:title=" ">
<polygon fill="white" stroke="black" points="1172,-0.5 1172,-62.5 1399,-62.5 1399,-0.5 1172,-0.5"/>
<text text-anchor="start" x="1180" y="-45.7" font-family="Source Sans Pro" font-size="16.00">Illumination&#45;Engine</text>
<text text-anchor="start" x="1180" y="-27.7" font-family="Source Sans Pro" font-size="16.00">/src/GraphicsModule</text>
<text text-anchor="middle" x="1285.5" y="-9.7" font-family="Source Sans Pro" font-size="16.00">/RenderPass/IERenderPass.cpp</text>
</a>
</g>
</g>
<!-- Node2&#45;&gt;Node12 -->
<g id="edge11" class="edge">
<title>Node2&#45;&gt;Node12</title>
<path fill="none" stroke="midnightblue" d="M1730.79,-117.12C1646.85,-105.13 1518.76,-85.51 1408.5,-63 1405.37,-62.36 1402.21,-61.7 1399.02,-61.01"/>
<polygon fill="midnightblue" stroke="midnightblue" points="1730.41,-120.6 1740.81,-118.54 1731.4,-113.67 1730.41,-120.6"/>
</g>
<!-- Node13 -->
<g id="node13" class="node">
<title>Node13</title>
<g id="a_node13"><a xlink:href="_i_e_material_8cpp.html" target="_top" xlink:title=" ">
<polygon fill="white" stroke="black" points="179,-0.5 179,-62.5 380,-62.5 380,-0.5 179,-0.5"/>
<text text-anchor="start" x="187" y="-45.7" font-family="Source Sans Pro" font-size="16.00">Illumination&#45;Engine</text>
<text text-anchor="start" x="187" y="-27.7" font-family="Source Sans Pro" font-size="16.00">/src/GraphicsModule</text>
<text text-anchor="middle" x="279.5" y="-9.7" font-family="Source Sans Pro" font-size="16.00">/Renderable/IEMaterial.cpp</text>
</a>
</g>
</g>
<!-- Node2&#45;&gt;Node13 -->
<g id="edge12" class="edge">
<title>Node2&#45;&gt;Node13</title>
<path fill="none" stroke="midnightblue" d="M1730.82,-117.74C1676.56,-111.16 1606.19,-103.41 1543.5,-99 1287.34,-80.98 642.33,-101.88 388.5,-63 385.78,-62.58 383.03,-62.12 380.27,-61.62"/>
<polygon fill="midnightblue" stroke="midnightblue" points="1730.4,-121.22 1740.75,-118.96 1731.25,-114.27 1730.4,-121.22"/>
</g>
<!-- Node14 -->
<g id="node14" class="node">
<title>Node14</title>
<g id="a_node14"><a xlink:href="_i_e_mesh_8cpp.html" target="_top" xlink:title=" ">
<polygon fill="white" stroke="black" points="2972,-0.5 2972,-62.5 3155,-62.5 3155,-0.5 2972,-0.5"/>
<text text-anchor="start" x="2980" y="-45.7" font-family="Source Sans Pro" font-size="16.00">Illumination&#45;Engine</text>
<text text-anchor="start" x="2980" y="-27.7" font-family="Source Sans Pro" font-size="16.00">/src/GraphicsModule</text>
<text text-anchor="middle" x="3063.5" y="-9.7" font-family="Source Sans Pro" font-size="16.00">/Renderable/IEMesh.cpp</text>
</a>
</g>
</g>
<!-- Node2&#45;&gt;Node14 -->
<g id="edge13" class="edge">
<title>Node2&#45;&gt;Node14</title>
<path fill="none" stroke="midnightblue" d="M1912.09,-103.12C1919.62,-101.51 1927.16,-100.1 1934.5,-99 2386.58,-30.99 2511.48,-137.7 2962.5,-63 2965.57,-62.49 2968.68,-61.92 2971.81,-61.28"/>
<polygon fill="midnightblue" stroke="midnightblue" points="1911.19,-99.73 1902.19,-105.33 1912.72,-106.56 1911.19,-99.73"/>
</g>
<!-- Node15 -->
<g id="node15" class="node">
<title>Node15</title>
<g id="a_node15"><a xlink:href="_i_e_renderable_8cpp.html" target="_top" xlink:title=" ">
<polygon fill="white" stroke="black" points="3173,-0.5 3173,-62.5 3398,-62.5 3398,-0.5 3173,-0.5"/>
<text text-anchor="start" x="3181" y="-45.7" font-family="Source Sans Pro" font-size="16.00">Illumination&#45;Engine</text>
<text text-anchor="start" x="3181" y="-27.7" font-family="Source Sans Pro" font-size="16.00">/src/GraphicsModule</text>
<text text-anchor="middle" x="3285.5" y="-9.7" font-family="Source Sans Pro" font-size="16.00">/Renderable/IERenderable.cpp</text>
</a>
</g>
</g>
<!-- Node2&#45;&gt;Node15 -->
<g id="edge14" class="edge">
<title>Node2&#45;&gt;Node15</title>
<path fill="none" stroke="midnightblue" d="M1912.13,-108.61C1931.93,-104.77 1952.84,-101.27 1972.5,-99 2499.03,-38.31 2639.56,-136.2 3164.5,-63 3167.29,-62.61 3170.11,-62.18 3172.94,-61.72"/>
<polygon fill="midnightblue" stroke="midnightblue" points="1911.33,-105.2 1902.21,-110.58 1912.7,-112.06 1911.33,-105.2"/>
</g>
<!-- Node16 -->
<g id="node16" class="node">
<title>Node16</title>
<g id="a_node16"><a xlink:href="_i_e_descriptor_set_8cpp.html" target="_top" xlink:title=" ">
<polygon fill="white" stroke="black" points="1417,-0.5 1417,-62.5 1624,-62.5 1624,-0.5 1417,-0.5"/>
<text text-anchor="start" x="1425" y="-45.7" font-family="Source Sans Pro" font-size="16.00">Illumination&#45;Engine</text>
<text text-anchor="start" x="1425" y="-27.7" font-family="Source Sans Pro" font-size="16.00">/src/GraphicsModule</text>
<text text-anchor="middle" x="1520.5" y="-9.7" font-family="Source Sans Pro" font-size="16.00">/Shader/IEDescriptorSet.cpp</text>
</a>
</g>
</g>
<!-- Node2&#45;&gt;Node16 -->
<g id="edge15" class="edge">
<title>Node2&#45;&gt;Node16</title>
<path fill="none" stroke="midnightblue" d="M1731.04,-100.35C1693.94,-88.39 1651.02,-74.56 1613.65,-62.52"/>
<polygon fill="midnightblue" stroke="midnightblue" points="1730.25,-103.77 1740.84,-103.51 1732.39,-97.11 1730.25,-103.77"/>
</g>
<!-- Node17 -->
<g id="node17" class="node">
<title>Node17</title>
<g id="a_node17"><a xlink:href="_i_e_pipeline_8cpp.html" target="_top" xlink:title=" ">
<polygon fill="white" stroke="black" points="1642.5,-0.5 1642.5,-62.5 1814.5,-62.5 1814.5,-0.5 1642.5,-0.5"/>
<text text-anchor="start" x="1650.5" y="-45.7" font-family="Source Sans Pro" font-size="16.00">Illumination&#45;Engine</text>
<text text-anchor="start" x="1650.5" y="-27.7" font-family="Source Sans Pro" font-size="16.00">/src/GraphicsModule</text>
<text text-anchor="middle" x="1728.5" y="-9.7" font-family="Source Sans Pro" font-size="16.00">/Shader/IEPipeline.cpp</text>
</a>
</g>
</g>
<!-- Node2&#45;&gt;Node17 -->
<g id="edge16" class="edge">
<title>Node2&#45;&gt;Node17</title>
<path fill="none" stroke="midnightblue" d="M1785.59,-92.05C1776.26,-82.31 1766.32,-71.95 1757.4,-62.64"/>
<polygon fill="midnightblue" stroke="midnightblue" points="1783.14,-94.54 1792.58,-99.34 1788.19,-89.7 1783.14,-94.54"/>
</g>
<!-- Node18 -->
<g id="node18" class="node">
<title>Node18</title>
<g id="a_node18"><a xlink:href="_i_e_shader_8cpp.html" target="_top" xlink:title=" ">
<polygon fill="white" stroke="black" points="1832.5,-0.5 1832.5,-62.5 1996.5,-62.5 1996.5,-0.5 1832.5,-0.5"/>
<text text-anchor="start" x="1840.5" y="-45.7" font-family="Source Sans Pro" font-size="16.00">Illumination&#45;Engine</text>
<text text-anchor="start" x="1840.5" y="-27.7" font-family="Source Sans Pro" font-size="16.00">/src/GraphicsModule</text>
<text text-anchor="middle" x="1914.5" y="-9.7" font-family="Source Sans Pro" font-size="16.00">/Shader/IEShader.cpp</text>
</a>
</g>
</g>
<!-- Node2&#45;&gt;Node18 -->
<g id="edge17" class="edge">
<title>Node2&#45;&gt;Node18</title>
<path fill="none" stroke="midnightblue" d="M1857.41,-92.05C1866.74,-82.31 1876.68,-71.95 1885.6,-62.64"/>
<polygon fill="midnightblue" stroke="midnightblue" points="1854.81,-89.7 1850.42,-99.34 1859.86,-94.54 1854.81,-89.7"/>
</g>
<!-- Node19 -->
<g id="node19" class="node">
<title>Node19</title>
<g id="a_node19"><a xlink:href="main_8cpp.html" target="_top" xlink:title=" ">
<polygon fill="white" stroke="black" points="2014.5,-9.5 2014.5,-53.5 2164.5,-53.5 2164.5,-9.5 2014.5,-9.5"/>
<text text-anchor="start" x="2022.5" y="-36.7" font-family="Source Sans Pro" font-size="16.00">Illumination&#45;Engine</text>
<text text-anchor="middle" x="2089.5" y="-18.7" font-family="Source Sans Pro" font-size="16.00">/src/main.cpp</text>
</a>
</g>
</g>
<!-- Node2&#45;&gt;Node19 -->
<g id="edge18" class="edge">
<title>Node2&#45;&gt;Node19</title>
<path fill="none" stroke="midnightblue" d="M1911.68,-96.94C1941.55,-86.15 1974.95,-74.07 2005.5,-63 2013.96,-59.94 2022.9,-56.69 2031.67,-53.51"/>
<polygon fill="midnightblue" stroke="midnightblue" points="1910.33,-93.7 1902.12,-100.39 1912.71,-100.29 1910.33,-93.7"/>
</g>
<!-- Node20&#45;&gt;Node13 -->
<g id="edge21" class="edge">
<title>Node20&#45;&gt;Node13</title>
<path fill="none" stroke="midnightblue" d="M1839.54,-402.25C1582.34,-346.15 929.82,-201.61 388.5,-63 385.74,-62.29 382.94,-61.57 380.12,-60.83"/>
<polygon fill="midnightblue" stroke="midnightblue" points="1839.12,-405.74 1849.63,-404.45 1840.61,-398.9 1839.12,-405.74"/>
</g>
<!-- Node21 -->
<g id="node21" class="node">
<title>Node21</title>
<g id="a_node21"><a xlink:href="_i_e_mesh_8hpp.html" target="_top" xlink:title=" ">
<polygon fill="white" stroke="black" points="1859,-297.5 1859,-359.5 2044,-359.5 2044,-297.5 1859,-297.5"/>
<text text-anchor="start" x="1867" y="-342.7" font-family="Source Sans Pro" font-size="16.00">Illumination&#45;Engine</text>
<text text-anchor="start" x="1867" y="-324.7" font-family="Source Sans Pro" font-size="16.00">/src/GraphicsModule</text>
<text text-anchor="middle" x="1951.5" y="-306.7" font-family="Source Sans Pro" font-size="16.00">/Renderable/IEMesh.hpp</text>
</a>
</g>
</g>
<!-- Node20&#45;&gt;Node21 -->
<g id="edge22" class="edge">
<title>Node20&#45;&gt;Node21</title>
<path fill="none" stroke="midnightblue" d="M1951.5,-386.17C1951.5,-377.29 1951.5,-368.03 1951.5,-359.64"/>
<polygon fill="midnightblue" stroke="midnightblue" points="1948,-386.34 1951.5,-396.34 1955,-386.34 1948,-386.34"/>
</g>
<!-- Node20&#45;&gt;Node22 -->
<g id="edge30" class="edge">
<title>Node20&#45;&gt;Node22</title>
<path fill="none" stroke="midnightblue" d="M2016.41,-390.75C2029.59,-381.76 2042.7,-371.39 2053.5,-360 2081.48,-330.5 2103.28,-288.67 2116,-260.61"/>
<polygon fill="midnightblue" stroke="midnightblue" points="2014.18,-388.03 2007.76,-396.46 2018.04,-393.87 2014.18,-388.03"/>
</g>
<!-- Node21&#45;&gt;Node13 -->
<g id="edge23" class="edge">
<title>Node21&#45;&gt;Node13</title>
<path fill="none" stroke="midnightblue" d="M1859.15,-294.08C1710.07,-241.84 1406.12,-142.33 1139.5,-99 809.67,-45.4 718.37,-116.36 388.5,-63 385.78,-62.56 383.04,-62.08 380.28,-61.56"/>
<polygon fill="midnightblue" stroke="midnightblue" points="1858.15,-297.44 1868.74,-297.46 1860.47,-290.84 1858.15,-297.44"/>
</g>
<!-- Node21&#45;&gt;Node14 -->
<g id="edge24" class="edge">
<title>Node21&#45;&gt;Node14</title>
<path fill="none" stroke="midnightblue" d="M1941.24,-287.6C1930.63,-235.94 1921.91,-146.87 1972.5,-99 2012.48,-61.17 2908.21,-72.03 2962.5,-63 2965.57,-62.49 2968.68,-61.91 2971.81,-61.28"/>
<polygon fill="midnightblue" stroke="midnightblue" points="1937.83,-288.38 1943.37,-297.41 1944.67,-286.9 1937.83,-288.38"/>
</g>
<!-- Node21&#45;&gt;Node15 -->
<g id="edge25" class="edge">
<title>Node21&#45;&gt;Node15</title>
<path fill="none" stroke="midnightblue" d="M1958,-287.34C1964.92,-258.04 1978.87,-219.77 2006.5,-198 2209.98,-37.64 2908.54,-103.05 3164.5,-63 3167.28,-62.56 3170.09,-62.09 3172.93,-61.6"/>
<polygon fill="midnightblue" stroke="midnightblue" points="1954.55,-286.78 1955.84,-297.29 1961.39,-288.26 1954.55,-286.78"/>
</g>
<!-- Node21&#45;&gt;Node22 -->
<g id="edge26" class="edge">
<title>Node21&#45;&gt;Node22</title>
<path fill="none" stroke="midnightblue" d="M2015.43,-292.47C2034.45,-282.04 2055.11,-270.72 2073.5,-260.64"/>
<polygon fill="midnightblue" stroke="midnightblue" points="2013.62,-289.47 2006.53,-297.34 2016.99,-295.6 2013.62,-289.47"/>
</g>
<!-- Node22&#45;&gt;Node2 -->
<g id="edge28" class="edge">
<title>Node22&#45;&gt;Node2</title>
<path fill="none" stroke="midnightblue" d="M2023.73,-195.4C1983.97,-182.83 1939.33,-168.73 1902.13,-156.97"/>
<polygon fill="midnightblue" stroke="midnightblue" points="2022.88,-198.8 2033.47,-198.47 2024.98,-192.12 2022.88,-198.8"/>
</g>
<!-- Node22&#45;&gt;Node8 -->
<g id="edge27" class="edge">
<title>Node22&#45;&gt;Node8</title>
<path fill="none" stroke="midnightblue" d="M2252.34,-222.25C2482.83,-208.48 2991.99,-167.94 3407.5,-63 3410.17,-62.33 3412.86,-61.61 3415.58,-60.85"/>
<polygon fill="midnightblue" stroke="midnightblue" points="2252.02,-218.76 2242.24,-222.85 2252.43,-225.75 2252.02,-218.76"/>
</g>
<!-- Node22&#45;&gt;Node15 -->
<g id="edge29" class="edge">
<title>Node22&#45;&gt;Node15</title>
<path fill="none" stroke="midnightblue" d="M2252.14,-212.36C2447.04,-186.1 2837.23,-130.25 3164.5,-63 3167.26,-62.43 3170.05,-61.85 3172.86,-61.24"/>
<polygon fill="midnightblue" stroke="midnightblue" points="2251.6,-208.9 2242.15,-213.7 2252.53,-215.84 2251.6,-208.9"/>
</g>
</g>
</svg>
