<?xml version="1.0" encoding="UTF-8" standalone="no"?>
<!DOCTYPE svg PUBLIC "-//W3C//DTD SVG 1.1//EN"
 "http://www.w3.org/Graphics/SVG/1.1/DTD/svg11.dtd">
<!-- Generated by graphviz version 2.43.0 (0)
 -->
<!-- Title: Illumination&#45;Engine/src/Core/LogModule/IELogger.hpp Pages: 1 -->
<svg width="439pt" height="134pt"
 viewBox="0.00 0.00 438.50 134.00" xmlns="http://www.w3.org/2000/svg" xmlns:xlink="http://www.w3.org/1999/xlink">
<g id="graph0" class="graph" transform="scale(1 1) rotate(0) translate(4 130)">
<title>Illumination&#45;Engine/src/Core/LogModule/IELogger.hpp</title>
<polygon fill="white" stroke="transparent" points="-4,4 -4,-130 434.5,-130 434.5,4 -4,4"/>
<!-- Node1 -->
<g id="node1" class="node">
<title>Node1</title>
<g id="a_node1"><a xlink:title=" ">
<polygon fill="#bfbfbf" stroke="black" points="126.5,-63.5 126.5,-125.5 285.5,-125.5 285.5,-63.5 126.5,-63.5"/>
<text text-anchor="start" x="134.5" y="-108.7" font-family="Source Sans Pro" font-size="16.00">Illumination&#45;Engine</text>
<text text-anchor="start" x="134.5" y="-90.7" font-family="Source Sans Pro" font-size="16.00">/src/Core/LogModule</text>
<text text-anchor="middle" x="206" y="-72.7" font-family="Source Sans Pro" font-size="16.00">/IELogger.hpp</text>
</a>
</g>
</g>
<!-- Node2 -->
<g id="node2" class="node">
<title>Node2</title>
<g id="a_node2"><a xlink:title=" ">
<polygon fill="white" stroke="#bfbfbf" points="0,-0.5 0,-26.5 74,-26.5 74,-0.5 0,-0.5"/>
<text text-anchor="middle" x="37" y="-9.7" font-family="Source Sans Pro" font-size="16.00">memory</text>
</a>
</g>
</g>
<!-- Node1&#45;&gt;Node2 -->
<g id="edge1" class="edge">
<title>Node1&#45;&gt;Node2</title>
<path fill="none" stroke="midnightblue" d="M141.63,-63.41C117.95,-52.34 92.04,-40.23 71.92,-30.83"/>
<polygon fill="midnightblue" stroke="midnightblue" points="73.38,-27.64 62.84,-26.58 70.41,-33.98 73.38,-27.64"/>
</g>
<!-- Node3 -->
<g id="node3" class="node">
<title>Node3</title>
<g id="a_node3"><a xlink:title=" ">
<polygon fill="white" stroke="#bfbfbf" points="92,-0.5 92,-26.5 214,-26.5 214,-0.5 92,-0.5"/>
<text text-anchor="middle" x="153" y="-9.7" font-family="Source Sans Pro" font-size="16.00">spdlog/logger.h</text>
</a>
</g>
</g>
<!-- Node1&#45;&gt;Node3 -->
<g id="edge2" class="edge">
<title>Node1&#45;&gt;Node3</title>
<path fill="none" stroke="midnightblue" d="M185.66,-63.18C179.4,-53.85 172.66,-43.8 166.93,-35.26"/>
<polygon fill="midnightblue" stroke="midnightblue" points="169.66,-33.06 161.19,-26.7 163.85,-36.96 169.66,-33.06"/>
</g>
<!-- Node4 -->
<g id="node4" class="node">
<title>Node4</title>
<g id="a_node4"><a xlink:title=" ">
<polygon fill="white" stroke="#bfbfbf" points="232.5,-0.5 232.5,-26.5 287.5,-26.5 287.5,-0.5 232.5,-0.5"/>
<text text-anchor="middle" x="260" y="-9.7" font-family="Source Sans Pro" font-size="16.00">string</text>
</a>
</g>
</g>
<!-- Node1&#45;&gt;Node4 -->
<g id="edge3" class="edge">
<title>Node1&#45;&gt;Node4</title>
<path fill="none" stroke="midnightblue" d="M226.72,-63.18C233.17,-53.75 240.12,-43.58 245.99,-34.99"/>
<polygon fill="midnightblue" stroke="midnightblue" points="248.91,-36.93 251.66,-26.7 243.13,-32.98 248.91,-36.93"/>
</g>
<!-- Node5 -->
<g id="node5" class="node">
<title>Node5</title>
<g id="a_node5"><a xlink:title=" ">
<polygon fill="white" stroke="#bfbfbf" points="305.5,-0.5 305.5,-26.5 430.5,-26.5 430.5,-0.5 305.5,-0.5"/>
<text text-anchor="middle" x="368" y="-9.7" font-family="Source Sans Pro" font-size="16.00">vulkan/vulkan.h</text>
</a>
</g>
</g>
<!-- Node1&#45;&gt;Node5 -->
<g id="edge4" class="edge">
<title>Node1&#45;&gt;Node5</title>
<path fill="none" stroke="midnightblue" d="M267.71,-63.41C290.2,-52.44 314.79,-40.45 334,-31.08"/>
<polygon fill="midnightblue" stroke="midnightblue" points="335.78,-34.11 343.23,-26.58 332.71,-27.81 335.78,-34.11"/>
</g>
</g>
</svg>
