<?xml version="1.0" encoding="UTF-8" standalone="no"?>
<!DOCTYPE svg PUBLIC "-//W3C//DTD SVG 1.1//EN"
 "http://www.w3.org/Graphics/SVG/1.1/DTD/svg11.dtd">
<!-- Generated by graphviz version 2.43.0 (0)
 -->
<!-- Title: Illumination&#45;Engine/src/GraphicsModule/CommandBuffer/DependencyStructs/IERenderPassBeginInfo.hpp Pages: 1 -->
<svg width="1147pt" height="458pt"
 viewBox="0.00 0.00 1146.89 458.00" xmlns="http://www.w3.org/2000/svg" xmlns:xlink="http://www.w3.org/1999/xlink">
<g id="graph0" class="graph" transform="scale(1 1) rotate(0) translate(4 454)">
<title>Illumination&#45;Engine/src/GraphicsModule/CommandBuffer/DependencyStructs/IERenderPassBeginInfo.hpp</title>
<polygon fill="white" stroke="transparent" points="-4,4 -4,-454 1142.89,-454 1142.89,4 -4,4"/>
<!-- Node1 -->
<g id="node1" class="node">
<title>Node1</title>
<g id="a_node1"><a xlink:title=" ">
<polygon fill="#bfbfbf" stroke="black" points="181.06,-369.5 181.06,-449.5 453.06,-449.5 453.06,-369.5 181.06,-369.5"/>
<text text-anchor="start" x="189.06" y="-432.7" font-family="Source Sans Pro" font-size="16.00">Illumination&#45;Engine</text>
<text text-anchor="start" x="189.06" y="-414.7" font-family="Source Sans Pro" font-size="16.00">/src/GraphicsModule</text>
<text text-anchor="start" x="189.06" y="-396.7" font-family="Source Sans Pro" font-size="16.00">/CommandBuffer/DependencyStructs</text>
<text text-anchor="middle" x="317.06" y="-378.7" font-family="Source Sans Pro" font-size="16.00">/IERenderPassBeginInfo.hpp</text>
</a>
</g>
</g>
<!-- Node2 -->
<g id="node2" class="node">
<title>Node2</title>
<g id="a_node2"><a xlink:href="_i_e_framebuffer_8hpp.html" target="_top" xlink:title=" ">
<polygon fill="white" stroke="black" points="579.56,-288.5 579.56,-332.5 790.56,-332.5 790.56,-288.5 579.56,-288.5"/>
<text text-anchor="start" x="587.56" y="-315.7" font-family="Source Sans Pro" font-size="16.00">GraphicsModule/RenderPass</text>
<text text-anchor="middle" x="685.06" y="-297.7" font-family="Source Sans Pro" font-size="16.00">/IEFramebuffer.hpp</text>
</a>
</g>
</g>
<!-- Node1&#45;&gt;Node2 -->
<g id="edge1" class="edge">
<title>Node1&#45;&gt;Node2</title>
<path fill="none" stroke="midnightblue" d="M453.31,-372.59C500.77,-360.08 552.79,-346.36 595.5,-335.11"/>
<polygon fill="midnightblue" stroke="midnightblue" points="596.53,-338.46 605.3,-332.52 594.74,-331.69 596.53,-338.46"/>
</g>
<!-- Node5 -->
<g id="node5" class="node">
<title>Node5</title>
<g id="a_node5"><a xlink:title=" ">
<polygon fill="white" stroke="#bfbfbf" points="13.06,-63.5 13.06,-89.5 87.06,-89.5 87.06,-63.5 13.06,-63.5"/>
<text text-anchor="middle" x="50.06" y="-72.7" font-family="Source Sans Pro" font-size="16.00">memory</text>
</a>
</g>
</g>
<!-- Node1&#45;&gt;Node5 -->
<g id="edge25" class="edge">
<title>Node1&#45;&gt;Node5</title>
<path fill="none" stroke="midnightblue" d="M283.97,-369.4C244.6,-322.65 177.15,-241.83 121.06,-171 101.4,-146.17 79.45,-117.03 65.23,-97.97"/>
<polygon fill="midnightblue" stroke="midnightblue" points="67.88,-95.66 59.1,-89.72 62.26,-99.84 67.88,-95.66"/>
</g>
<!-- Node3 -->
<g id="node3" class="node">
<title>Node3</title>
<g id="a_node3"><a xlink:href="_i_e_image_8hpp.html" target="_top" xlink:title=" ">
<polygon fill="white" stroke="black" points="598.06,-207.5 598.06,-251.5 772.06,-251.5 772.06,-207.5 598.06,-207.5"/>
<text text-anchor="start" x="606.06" y="-234.7" font-family="Source Sans Pro" font-size="16.00">GraphicsModule/Image</text>
<text text-anchor="middle" x="685.06" y="-216.7" font-family="Source Sans Pro" font-size="16.00">/IEImage.hpp</text>
</a>
</g>
</g>
<!-- Node2&#45;&gt;Node3 -->
<g id="edge2" class="edge">
<title>Node2&#45;&gt;Node3</title>
<path fill="none" stroke="midnightblue" d="M685.06,-288.33C685.06,-280.18 685.06,-270.7 685.06,-261.8"/>
<polygon fill="midnightblue" stroke="midnightblue" points="688.56,-261.73 685.06,-251.73 681.56,-261.73 688.56,-261.73"/>
</g>
<!-- Node6 -->
<g id="node6" class="node">
<title>Node6</title>
<g id="a_node6"><a xlink:title=" ">
<polygon fill="white" stroke="#bfbfbf" points="1052.56,-0.5 1052.56,-26.5 1107.56,-26.5 1107.56,-0.5 1052.56,-0.5"/>
<text text-anchor="middle" x="1080.06" y="-9.7" font-family="Source Sans Pro" font-size="16.00">string</text>
</a>
</g>
</g>
<!-- Node2&#45;&gt;Node6 -->
<g id="edge23" class="edge">
<title>Node2&#45;&gt;Node6</title>
<path fill="none" stroke="midnightblue" d="M790.75,-292.21C911,-270.08 1095.96,-227.72 1136.06,-171 1144.33,-159.31 1131.79,-66.59 1130.06,-63 1124.56,-51.53 1115.13,-41.3 1105.94,-33.23"/>
<polygon fill="midnightblue" stroke="midnightblue" points="1107.97,-30.36 1098.03,-26.71 1103.52,-35.77 1107.97,-30.36"/>
</g>
<!-- Node7 -->
<g id="node7" class="node">
<title>Node7</title>
<g id="a_node7"><a xlink:title=" ">
<polygon fill="white" stroke="#bfbfbf" points="104.56,-0.5 104.56,-26.5 163.56,-26.5 163.56,-0.5 104.56,-0.5"/>
<text text-anchor="middle" x="134.06" y="-9.7" font-family="Source Sans Pro" font-size="16.00">vector</text>
</a>
</g>
</g>
<!-- Node2&#45;&gt;Node7 -->
<g id="edge24" class="edge">
<title>Node2&#45;&gt;Node7</title>
<path fill="none" stroke="midnightblue" d="M579.33,-293.4C401.94,-263.7 58.4,-193.7 4.06,-90 -16.77,-50.24 49.07,-29.82 94.52,-20.71"/>
<polygon fill="midnightblue" stroke="midnightblue" points="95.27,-24.13 104.44,-18.83 93.96,-17.25 95.27,-24.13"/>
</g>
<!-- Node8 -->
<g id="node8" class="node">
<title>Node8</title>
<g id="a_node8"><a xlink:title=" ">
<polygon fill="white" stroke="#bfbfbf" points="798.56,-63.5 798.56,-89.5 923.56,-89.5 923.56,-63.5 798.56,-63.5"/>
<text text-anchor="middle" x="861.06" y="-72.7" font-family="Source Sans Pro" font-size="16.00">vulkan/vulkan.h</text>
</a>
</g>
</g>
<!-- Node2&#45;&gt;Node8 -->
<g id="edge22" class="edge">
<title>Node2&#45;&gt;Node8</title>
<path fill="none" stroke="midnightblue" d="M778.45,-288.42C840.29,-269.08 916.82,-233.6 955.06,-171 965.49,-153.93 965.47,-143.08 955.06,-126 946.2,-111.45 931.42,-101.08 916.18,-93.77"/>
<polygon fill="midnightblue" stroke="midnightblue" points="917.24,-90.41 906.67,-89.6 914.42,-96.82 917.24,-90.41"/>
</g>
<!-- Node4 -->
<g id="node4" class="node">
<title>Node4</title>
<g id="a_node4"><a xlink:href="_i_e_dependency_8hpp.html" target="_top" xlink:title=" ">
<polygon fill="white" stroke="black" points="181.56,-126.5 181.56,-170.5 426.56,-170.5 426.56,-126.5 181.56,-126.5"/>
<text text-anchor="start" x="189.56" y="-153.7" font-family="Source Sans Pro" font-size="16.00">GraphicsModule/CommandBuffer</text>
<text text-anchor="middle" x="304.06" y="-135.7" font-family="Source Sans Pro" font-size="16.00">/IEDependency.hpp</text>
</a>
</g>
</g>
<!-- Node3&#45;&gt;Node4 -->
<g id="edge3" class="edge">
<title>Node3&#45;&gt;Node4</title>
<path fill="none" stroke="midnightblue" d="M597.65,-210.38C543.55,-199.16 473.58,-184.65 415.51,-172.61"/>
<polygon fill="midnightblue" stroke="midnightblue" points="416.06,-169.15 405.56,-170.55 414.64,-176 416.06,-169.15"/>
</g>
<!-- Node3&#45;&gt;Node6 -->
<g id="edge20" class="edge">
<title>Node3&#45;&gt;Node6</title>
<path fill="none" stroke="midnightblue" d="M772.34,-222.91C891.48,-214.37 1092.87,-196.36 1115.06,-171 1148.92,-132.32 1115.73,-68.02 1094.6,-35.18"/>
<polygon fill="midnightblue" stroke="midnightblue" points="1097.48,-33.19 1089.02,-26.8 1091.65,-37.07 1097.48,-33.19"/>
</g>
<!-- Node3&#45;&gt;Node7 -->
<g id="edge21" class="edge">
<title>Node3&#45;&gt;Node7</title>
<path fill="none" stroke="midnightblue" d="M597.88,-225.17C453.6,-218.79 177.91,-202.58 147.06,-171 112.17,-135.27 120.56,-70.55 128.15,-36.61"/>
<polygon fill="midnightblue" stroke="midnightblue" points="131.59,-37.3 130.53,-26.75 124.78,-35.65 131.59,-37.3"/>
</g>
<!-- Node3&#45;&gt;Node8 -->
<g id="edge17" class="edge">
<title>Node3&#45;&gt;Node8</title>
<path fill="none" stroke="midnightblue" d="M772.36,-220.09C836.73,-211.87 916.53,-196.74 937.06,-171 949.53,-155.36 946.68,-143.54 937.06,-126 929.61,-112.39 916.53,-102.05 903.3,-94.49"/>
<polygon fill="midnightblue" stroke="midnightblue" points="904.67,-91.25 894.19,-89.69 901.41,-97.45 904.67,-91.25"/>
</g>
<!-- Node9 -->
<g id="node9" class="node">
<title>Node9</title>
<g id="a_node9"><a xlink:href="_i_e_a_p_i_8hpp.html" target="_top" xlink:title=" ">
<polygon fill="white" stroke="black" points="1022.56,-135.5 1022.56,-161.5 1105.56,-161.5 1105.56,-135.5 1022.56,-135.5"/>
<text text-anchor="middle" x="1064.06" y="-144.7" font-family="Source Sans Pro" font-size="16.00">IEAPI.hpp</text>
</a>
</g>
</g>
<!-- Node3&#45;&gt;Node9 -->
<g id="edge8" class="edge">
<title>Node3&#45;&gt;Node9</title>
<path fill="none" stroke="midnightblue" d="M772.18,-211.53C828.67,-200.37 903.82,-185.26 970.06,-171 983.89,-168.02 998.83,-164.67 1012.64,-161.51"/>
<polygon fill="midnightblue" stroke="midnightblue" points="1013.51,-164.91 1022.47,-159.26 1011.94,-158.08 1013.51,-164.91"/>
</g>
<!-- Node11 -->
<g id="node11" class="node">
<title>Node11</title>
<g id="a_node11"><a xlink:title=" ">
<polygon fill="white" stroke="#bfbfbf" points="573.56,-0.5 573.56,-26.5 636.56,-26.5 636.56,-0.5 573.56,-0.5"/>
<text text-anchor="middle" x="605.06" y="-9.7" font-family="Source Sans Pro" font-size="16.00">cstdint</text>
</a>
</g>
</g>
<!-- Node3&#45;&gt;Node11 -->
<g id="edge18" class="edge">
<title>Node3&#45;&gt;Node11</title>
<path fill="none" stroke="midnightblue" d="M598.04,-224.96C459.11,-218.41 199.9,-202.13 172.06,-171 58.57,-44.07 433.74,-20.02 562.93,-15.52"/>
<polygon fill="midnightblue" stroke="midnightblue" points="563.35,-19.01 573.23,-15.18 563.12,-12.01 563.35,-19.01"/>
</g>
<!-- Node12 -->
<g id="node12" class="node">
<title>Node12</title>
<g id="a_node12"><a xlink:title=" ">
<polygon fill="white" stroke="#bfbfbf" points="444.56,-135.5 444.56,-161.5 527.56,-161.5 527.56,-135.5 444.56,-135.5"/>
<text text-anchor="middle" x="486.06" y="-144.7" font-family="Source Sans Pro" font-size="16.00">GL/glew.h</text>
</a>
</g>
</g>
<!-- Node3&#45;&gt;Node12 -->
<g id="edge14" class="edge">
<title>Node3&#45;&gt;Node12</title>
<path fill="none" stroke="midnightblue" d="M629.74,-207.44C601.87,-196.71 567.6,-183.36 537.06,-171 532.79,-169.27 528.33,-167.43 523.89,-165.59"/>
<polygon fill="midnightblue" stroke="midnightblue" points="524.91,-162.22 514.33,-161.58 522.2,-168.67 524.91,-162.22"/>
</g>
<!-- Node13 -->
<g id="node13" class="node">
<title>Node13</title>
<g id="a_node13"><a xlink:title=" ">
<polygon fill="white" stroke="#bfbfbf" points="546.06,-126.5 546.06,-170.5 676.06,-170.5 676.06,-126.5 546.06,-126.5"/>
<text text-anchor="start" x="554.06" y="-153.7" font-family="Source Sans Pro" font-size="16.00">../contrib/stb/stb</text>
<text text-anchor="middle" x="611.06" y="-135.7" font-family="Source Sans Pro" font-size="16.00">_image.h</text>
</a>
</g>
</g>
<!-- Node3&#45;&gt;Node13 -->
<g id="edge15" class="edge">
<title>Node3&#45;&gt;Node13</title>
<path fill="none" stroke="midnightblue" d="M665.23,-207.33C656.86,-198.39 646.97,-187.83 637.95,-178.2"/>
<polygon fill="midnightblue" stroke="midnightblue" points="640.34,-175.63 630.95,-170.73 635.23,-180.42 640.34,-175.63"/>
</g>
<!-- Node14 -->
<g id="node14" class="node">
<title>Node14</title>
<g id="a_node14"><a xlink:title=" ">
<polygon fill="white" stroke="#bfbfbf" points="694.56,-135.5 694.56,-161.5 823.56,-161.5 823.56,-135.5 694.56,-135.5"/>
<text text-anchor="middle" x="759.06" y="-144.7" font-family="Source Sans Pro" font-size="16.00">vk_mem_alloc.h</text>
</a>
</g>
</g>
<!-- Node3&#45;&gt;Node14 -->
<g id="edge16" class="edge">
<title>Node3&#45;&gt;Node14</title>
<path fill="none" stroke="midnightblue" d="M704.89,-207.33C716.03,-195.45 729.82,-180.72 740.7,-169.1"/>
<polygon fill="midnightblue" stroke="midnightblue" points="743.42,-171.32 747.7,-161.63 738.31,-166.53 743.42,-171.32"/>
</g>
<!-- Node15 -->
<g id="node15" class="node">
<title>Node15</title>
<g id="a_node15"><a xlink:title=" ">
<polygon fill="white" stroke="#bfbfbf" points="842.06,-135.5 842.06,-161.5 928.06,-161.5 928.06,-135.5 842.06,-135.5"/>
<text text-anchor="middle" x="885.06" y="-144.7" font-family="Source Sans Pro" font-size="16.00">functional</text>
</a>
</g>
</g>
<!-- Node3&#45;&gt;Node15 -->
<g id="edge19" class="edge">
<title>Node3&#45;&gt;Node15</title>
<path fill="none" stroke="midnightblue" d="M740,-207.48C767.92,-196.71 802.36,-183.31 833.06,-171 837.53,-169.21 842.21,-167.31 846.84,-165.41"/>
<polygon fill="midnightblue" stroke="midnightblue" points="848.31,-168.59 856.23,-161.55 845.65,-162.12 848.31,-168.59"/>
</g>
<!-- Node4&#45;&gt;Node5 -->
<g id="edge4" class="edge">
<title>Node4&#45;&gt;Node5</title>
<path fill="none" stroke="midnightblue" d="M227.86,-126.5C185.38,-114.79 133.83,-100.59 97.2,-90.49"/>
<polygon fill="midnightblue" stroke="midnightblue" points="97.85,-87.04 87.28,-87.76 95.99,-93.79 97.85,-87.04"/>
</g>
<!-- Node4&#45;&gt;Node6 -->
<g id="edge5" class="edge">
<title>Node4&#45;&gt;Node6</title>
<path fill="none" stroke="midnightblue" d="M423.86,-126.45C522.21,-109.22 665.12,-84.31 790.06,-63 880.59,-47.56 987.1,-29.87 1042.42,-20.72"/>
<polygon fill="midnightblue" stroke="midnightblue" points="1043.17,-24.14 1052.46,-19.06 1042.03,-17.23 1043.17,-24.14"/>
</g>
<!-- Node4&#45;&gt;Node7 -->
<g id="edge6" class="edge">
<title>Node4&#45;&gt;Node7</title>
<path fill="none" stroke="midnightblue" d="M277.13,-126.43C244.26,-100.72 189.22,-57.65 157.86,-33.12"/>
<polygon fill="midnightblue" stroke="midnightblue" points="159.71,-30.12 149.68,-26.71 155.4,-35.63 159.71,-30.12"/>
</g>
<!-- Node4&#45;&gt;Node8 -->
<g id="edge7" class="edge">
<title>Node4&#45;&gt;Node8</title>
<path fill="none" stroke="midnightblue" d="M426.76,-127.17C429.55,-126.77 432.32,-126.38 435.06,-126 558.87,-108.8 703.55,-93.3 788.45,-84.67"/>
<polygon fill="midnightblue" stroke="midnightblue" points="788.91,-88.14 798.5,-83.65 788.2,-81.17 788.91,-88.14"/>
</g>
<!-- Node9&#45;&gt;Node6 -->
<g id="edge13" class="edge">
<title>Node9&#45;&gt;Node6</title>
<path fill="none" stroke="midnightblue" d="M1065.54,-135.23C1068.23,-112.86 1073.97,-65.16 1077.37,-36.88"/>
<polygon fill="midnightblue" stroke="midnightblue" points="1080.87,-37.09 1078.59,-26.74 1073.92,-36.25 1080.87,-37.09"/>
</g>
<!-- Node10 -->
<g id="node10" class="node">
<title>Node10</title>
<g id="a_node10"><a xlink:href="_i_e_version_8hpp.html" target="_top" xlink:title=" ">
<polygon fill="white" stroke="black" points="942.06,-63.5 942.06,-89.5 1052.06,-89.5 1052.06,-63.5 942.06,-63.5"/>
<text text-anchor="middle" x="997.06" y="-72.7" font-family="Source Sans Pro" font-size="16.00">IEVersion.hpp</text>
</a>
</g>
</g>
<!-- Node9&#45;&gt;Node10 -->
<g id="edge9" class="edge">
<title>Node9&#45;&gt;Node10</title>
<path fill="none" stroke="midnightblue" d="M1052.39,-135.31C1042.31,-124.77 1027.54,-109.34 1015.8,-97.07"/>
<polygon fill="midnightblue" stroke="midnightblue" points="1018.04,-94.36 1008.6,-89.55 1012.99,-99.2 1018.04,-94.36"/>
</g>
<!-- Node10&#45;&gt;Node6 -->
<g id="edge11" class="edge">
<title>Node10&#45;&gt;Node6</title>
<path fill="none" stroke="midnightblue" d="M1013.46,-63.45C1025.4,-54.68 1041.77,-42.64 1055.3,-32.7"/>
<polygon fill="midnightblue" stroke="midnightblue" points="1057.71,-35.27 1063.7,-26.53 1053.57,-29.63 1057.71,-35.27"/>
</g>
<!-- Node10&#45;&gt;Node7 -->
<g id="edge12" class="edge">
<title>Node10&#45;&gt;Node7</title>
<path fill="none" stroke="midnightblue" d="M941.98,-64.26C938.97,-63.8 935.98,-63.37 933.06,-63 643.31,-26.07 290.74,-17.09 173.83,-15.06"/>
<polygon fill="midnightblue" stroke="midnightblue" points="173.64,-11.55 163.58,-14.89 173.52,-18.55 173.64,-11.55"/>
</g>
<!-- Node10&#45;&gt;Node11 -->
<g id="edge10" class="edge">
<title>Node10&#45;&gt;Node11</title>
<path fill="none" stroke="midnightblue" d="M941.94,-64.57C938.94,-64.02 935.96,-63.5 933.06,-63 830.63,-45.43 709.53,-28.52 647.04,-20.08"/>
<polygon fill="midnightblue" stroke="midnightblue" points="647.18,-16.56 636.8,-18.7 646.25,-23.5 647.18,-16.56"/>
</g>
</g>
</svg>
