<?xml version="1.0" encoding="UTF-8" standalone="no"?>
<!DOCTYPE svg PUBLIC "-//W3C//DTD SVG 1.1//EN"
 "http://www.w3.org/Graphics/SVG/1.1/DTD/svg11.dtd">
<!-- Generated by graphviz version 2.43.0 (0)
 -->
<!-- Title: Illumination&#45;Engine/src/GraphicsModule/CommandBuffer/IECommandPool.hpp Pages: 1 -->
<svg width="3414pt" height="350pt"
 viewBox="0.00 0.00 3414.00 350.00" xmlns="http://www.w3.org/2000/svg" xmlns:xlink="http://www.w3.org/1999/xlink">
<g id="graph0" class="graph" transform="scale(1 1) rotate(0) translate(4 346)">
<title>Illumination&#45;Engine/src/GraphicsModule/CommandBuffer/IECommandPool.hpp</title>
<polygon fill="white" stroke="transparent" points="-4,4 -4,-346 3410,-346 3410,4 -4,4"/>
<!-- Node1 -->
<g id="node1" class="node">
<title>Node1</title>
<g id="a_node1"><a xlink:title=" ">
<polygon fill="#bfbfbf" stroke="black" points="713.5,-279.5 713.5,-341.5 998.5,-341.5 998.5,-279.5 713.5,-279.5"/>
<text text-anchor="start" x="721.5" y="-324.7" font-family="Source Sans Pro" font-size="16.00">Illumination&#45;Engine</text>
<text text-anchor="start" x="721.5" y="-306.7" font-family="Source Sans Pro" font-size="16.00">/src/GraphicsModule</text>
<text text-anchor="middle" x="856" y="-288.7" font-family="Source Sans Pro" font-size="16.00">/CommandBuffer/IECommandPool.hpp</text>
</a>
</g>
</g>
<!-- Node2 -->
<g id="node2" class="node">
<title>Node2</title>
<g id="a_node2"><a xlink:href="_i_e_command_pool_8cpp.html" target="_top" xlink:title=" ">
<polygon fill="white" stroke="black" points="0,-81.5 0,-143.5 284,-143.5 284,-81.5 0,-81.5"/>
<text text-anchor="start" x="8" y="-126.7" font-family="Source Sans Pro" font-size="16.00">Illumination&#45;Engine</text>
<text text-anchor="start" x="8" y="-108.7" font-family="Source Sans Pro" font-size="16.00">/src/GraphicsModule</text>
<text text-anchor="middle" x="142" y="-90.7" font-family="Source Sans Pro" font-size="16.00">/CommandBuffer/IECommandPool.cpp</text>
</a>
</g>
</g>
<!-- Node1&#45;&gt;Node2 -->
<g id="edge1" class="edge">
<title>Node1&#45;&gt;Node2</title>
<path fill="none" stroke="midnightblue" d="M736.39,-276.67C601.02,-239.5 382.36,-179.48 251.37,-143.52"/>
<polygon fill="midnightblue" stroke="midnightblue" points="735.82,-280.14 746.39,-279.41 737.68,-273.39 735.82,-280.14"/>
</g>
<!-- Node3 -->
<g id="node3" class="node">
<title>Node3</title>
<g id="a_node3"><a xlink:href="_i_e_render_engine_8hpp.html" target="_top" xlink:title=" ">
<polygon fill="white" stroke="black" points="1490.5,-180.5 1490.5,-242.5 1651.5,-242.5 1651.5,-180.5 1490.5,-180.5"/>
<text text-anchor="start" x="1498.5" y="-225.7" font-family="Source Sans Pro" font-size="16.00">Illumination&#45;Engine</text>
<text text-anchor="start" x="1498.5" y="-207.7" font-family="Source Sans Pro" font-size="16.00">/src/GraphicsModule</text>
<text text-anchor="middle" x="1571" y="-189.7" font-family="Source Sans Pro" font-size="16.00">/IERenderEngine.hpp</text>
</a>
</g>
</g>
<!-- Node1&#45;&gt;Node3 -->
<g id="edge2" class="edge">
<title>Node1&#45;&gt;Node3</title>
<path fill="none" stroke="midnightblue" d="M1008.6,-288.8C1156.08,-268.79 1373.8,-239.25 1490.36,-223.44"/>
<polygon fill="midnightblue" stroke="midnightblue" points="1007.98,-285.35 998.54,-290.16 1008.92,-292.29 1007.98,-285.35"/>
</g>
<!-- Node3&#45;&gt;Node2 -->
<g id="edge5" class="edge">
<title>Node3&#45;&gt;Node2</title>
<path fill="none" stroke="midnightblue" d="M1479.81,-206.52C1207.27,-194.53 410.55,-158.65 294,-144 290.8,-143.6 287.56,-143.17 284.3,-142.71"/>
<polygon fill="midnightblue" stroke="midnightblue" points="1479.91,-210.03 1490.06,-206.97 1480.22,-203.04 1479.91,-210.03"/>
</g>
<!-- Node4 -->
<g id="node4" class="node">
<title>Node4</title>
<g id="a_node4"><a xlink:href="_i_e_buffer_8cpp.html" target="_top" xlink:title=" ">
<polygon fill="white" stroke="black" points="302.5,-81.5 302.5,-143.5 459.5,-143.5 459.5,-81.5 302.5,-81.5"/>
<text text-anchor="start" x="310.5" y="-126.7" font-family="Source Sans Pro" font-size="16.00">Illumination&#45;Engine</text>
<text text-anchor="start" x="310.5" y="-108.7" font-family="Source Sans Pro" font-size="16.00">/src/GraphicsModule</text>
<text text-anchor="middle" x="381" y="-90.7" font-family="Source Sans Pro" font-size="16.00">/Buffer/IEBuffer.cpp</text>
</a>
</g>
</g>
<!-- Node3&#45;&gt;Node4 -->
<g id="edge3" class="edge">
<title>Node3&#45;&gt;Node4</title>
<path fill="none" stroke="midnightblue" d="M1480.07,-208.21C1252.28,-201.96 661.64,-182.44 469,-144 465.99,-143.4 462.94,-142.72 459.87,-141.98"/>
<polygon fill="midnightblue" stroke="midnightblue" points="1480.22,-211.71 1490.32,-208.49 1480.41,-204.72 1480.22,-211.71"/>
</g>
<!-- Node5 -->
<g id="node5" class="node">
<title>Node5</title>
<g id="a_node5"><a xlink:href="_i_e_command_buffer_8cpp.html" target="_top" xlink:title=" ">
<polygon fill="white" stroke="black" points="477.5,-81.5 477.5,-143.5 770.5,-143.5 770.5,-81.5 477.5,-81.5"/>
<text text-anchor="start" x="485.5" y="-126.7" font-family="Source Sans Pro" font-size="16.00">Illumination&#45;Engine</text>
<text text-anchor="start" x="485.5" y="-108.7" font-family="Source Sans Pro" font-size="16.00">/src/GraphicsModule</text>
<text text-anchor="middle" x="624" y="-90.7" font-family="Source Sans Pro" font-size="16.00">/CommandBuffer/IECommandBuffer.cpp</text>
</a>
</g>
</g>
<!-- Node3&#45;&gt;Node5 -->
<g id="edge4" class="edge">
<title>Node3&#45;&gt;Node5</title>
<path fill="none" stroke="midnightblue" d="M1480.04,-206.09C1332.55,-198.21 1032.26,-179.16 780,-144 776.99,-143.58 773.96,-143.14 770.9,-142.68"/>
<polygon fill="midnightblue" stroke="midnightblue" points="1480.23,-209.6 1490.4,-206.64 1480.6,-202.61 1480.23,-209.6"/>
</g>
<!-- Node6 -->
<g id="node6" class="node">
<title>Node6</title>
<g id="a_node6"><a xlink:href="_i_e_a_p_i_8cpp.html" target="_top" xlink:title=" ">
<polygon fill="white" stroke="black" points="788.5,-81.5 788.5,-143.5 945.5,-143.5 945.5,-81.5 788.5,-81.5"/>
<text text-anchor="start" x="796.5" y="-126.7" font-family="Source Sans Pro" font-size="16.00">Illumination&#45;Engine</text>
<text text-anchor="start" x="796.5" y="-108.7" font-family="Source Sans Pro" font-size="16.00">/src/GraphicsModule</text>
<text text-anchor="middle" x="867" y="-90.7" font-family="Source Sans Pro" font-size="16.00">/IEAPI.cpp</text>
</a>
</g>
</g>
<!-- Node3&#45;&gt;Node6 -->
<g id="edge6" class="edge">
<title>Node3&#45;&gt;Node6</title>
<path fill="none" stroke="midnightblue" d="M1479.98,-207.1C1358.85,-201.12 1138.58,-185.16 955,-144 952,-143.33 948.96,-142.59 945.91,-141.79"/>
<polygon fill="midnightblue" stroke="midnightblue" points="1480.16,-210.61 1490.32,-207.6 1480.5,-203.62 1480.16,-210.61"/>
</g>
<!-- Node7 -->
<g id="node7" class="node">
<title>Node7</title>
<g id="a_node7"><a xlink:href="_i_e_camera_8cpp.html" target="_top" xlink:title=" ">
<polygon fill="white" stroke="black" points="963.5,-81.5 963.5,-143.5 1120.5,-143.5 1120.5,-81.5 963.5,-81.5"/>
<text text-anchor="start" x="971.5" y="-126.7" font-family="Source Sans Pro" font-size="16.00">Illumination&#45;Engine</text>
<text text-anchor="start" x="971.5" y="-108.7" font-family="Source Sans Pro" font-size="16.00">/src/GraphicsModule</text>
<text text-anchor="middle" x="1042" y="-90.7" font-family="Source Sans Pro" font-size="16.00">/IECamera.cpp</text>
</a>
</g>
</g>
<!-- Node3&#45;&gt;Node7 -->
<g id="edge7" class="edge">
<title>Node3&#45;&gt;Node7</title>
<path fill="none" stroke="midnightblue" d="M1480.31,-201.76C1390.48,-191.95 1249.44,-173.44 1130,-144 1127.02,-143.26 1123.99,-142.47 1120.95,-141.63"/>
<polygon fill="midnightblue" stroke="midnightblue" points="1480.15,-205.26 1490.47,-202.85 1480.9,-198.3 1480.15,-205.26"/>
</g>
<!-- Node8 -->
<g id="node8" class="node">
<title>Node8</title>
<g id="a_node8"><a xlink:href="_i_e_render_engine_8cpp.html" target="_top" xlink:title=" ">
<polygon fill="white" stroke="black" points="1138.5,-81.5 1138.5,-143.5 1297.5,-143.5 1297.5,-81.5 1138.5,-81.5"/>
<text text-anchor="start" x="1146.5" y="-126.7" font-family="Source Sans Pro" font-size="16.00">Illumination&#45;Engine</text>
<text text-anchor="start" x="1146.5" y="-108.7" font-family="Source Sans Pro" font-size="16.00">/src/GraphicsModule</text>
<text text-anchor="middle" x="1218" y="-90.7" font-family="Source Sans Pro" font-size="16.00">/IERenderEngine.cpp</text>
</a>
</g>
</g>
<!-- Node3&#45;&gt;Node8 -->
<g id="edge8" class="edge">
<title>Node3&#45;&gt;Node8</title>
<path fill="none" stroke="midnightblue" d="M1480.19,-189.6C1429.04,-177.34 1364.14,-160.95 1307,-144 1304.02,-143.12 1301,-142.2 1297.95,-141.25"/>
<polygon fill="midnightblue" stroke="midnightblue" points="1479.69,-193.08 1490.23,-192 1481.32,-186.28 1479.69,-193.08"/>
</g>
<!-- Node10 -->
<g id="node10" class="node">
<title>Node10</title>
<g id="a_node10"><a xlink:href="_i_e_image_8cpp.html" target="_top" xlink:title=" ">
<polygon fill="white" stroke="black" points="1315.5,-81.5 1315.5,-143.5 1472.5,-143.5 1472.5,-81.5 1315.5,-81.5"/>
<text text-anchor="start" x="1323.5" y="-126.7" font-family="Source Sans Pro" font-size="16.00">Illumination&#45;Engine</text>
<text text-anchor="start" x="1323.5" y="-108.7" font-family="Source Sans Pro" font-size="16.00">/src/GraphicsModule</text>
<text text-anchor="middle" x="1394" y="-90.7" font-family="Source Sans Pro" font-size="16.00">/Image/IEImage.cpp</text>
</a>
</g>
</g>
<!-- Node3&#45;&gt;Node10 -->
<g id="edge10" class="edge">
<title>Node3&#45;&gt;Node10</title>
<path fill="none" stroke="midnightblue" d="M1507.07,-175.47C1488.05,-165.04 1467.39,-153.72 1449,-143.64"/>
<polygon fill="midnightblue" stroke="midnightblue" points="1505.51,-178.6 1515.97,-180.34 1508.88,-172.47 1505.51,-178.6"/>
</g>
<!-- Node11 -->
<g id="node11" class="node">
<title>Node11</title>
<g id="a_node11"><a xlink:href="_i_e_texture_8cpp.html" target="_top" xlink:title=" ">
<polygon fill="white" stroke="black" points="1490.5,-81.5 1490.5,-143.5 1651.5,-143.5 1651.5,-81.5 1490.5,-81.5"/>
<text text-anchor="start" x="1498.5" y="-126.7" font-family="Source Sans Pro" font-size="16.00">Illumination&#45;Engine</text>
<text text-anchor="start" x="1498.5" y="-108.7" font-family="Source Sans Pro" font-size="16.00">/src/GraphicsModule</text>
<text text-anchor="middle" x="1571" y="-90.7" font-family="Source Sans Pro" font-size="16.00">/Image/IETexture.cpp</text>
</a>
</g>
</g>
<!-- Node3&#45;&gt;Node11 -->
<g id="edge11" class="edge">
<title>Node3&#45;&gt;Node11</title>
<path fill="none" stroke="midnightblue" d="M1571,-170.17C1571,-161.29 1571,-152.03 1571,-143.64"/>
<polygon fill="midnightblue" stroke="midnightblue" points="1567.5,-170.34 1571,-180.34 1574.5,-170.34 1567.5,-170.34"/>
</g>
<!-- Node12 -->
<g id="node12" class="node">
<title>Node12</title>
<g id="a_node12"><a xlink:href="_i_e_framebuffer_8cpp.html" target="_top" xlink:title=" ">
<polygon fill="white" stroke="black" points="1670,-81.5 1670,-143.5 1900,-143.5 1900,-81.5 1670,-81.5"/>
<text text-anchor="start" x="1678" y="-126.7" font-family="Source Sans Pro" font-size="16.00">Illumination&#45;Engine</text>
<text text-anchor="start" x="1678" y="-108.7" font-family="Source Sans Pro" font-size="16.00">/src/GraphicsModule</text>
<text text-anchor="middle" x="1785" y="-90.7" font-family="Source Sans Pro" font-size="16.00">/RenderPass/IEFramebuffer.cpp</text>
</a>
</g>
</g>
<!-- Node3&#45;&gt;Node12 -->
<g id="edge12" class="edge">
<title>Node3&#45;&gt;Node12</title>
<path fill="none" stroke="midnightblue" d="M1646.49,-176.28C1670.04,-165.61 1695.83,-153.92 1718.7,-143.55"/>
<polygon fill="midnightblue" stroke="midnightblue" points="1644.91,-173.16 1637.25,-180.47 1647.8,-179.53 1644.91,-173.16"/>
</g>
<!-- Node13 -->
<g id="node13" class="node">
<title>Node13</title>
<g id="a_node13"><a xlink:href="_i_e_render_pass_8cpp.html" target="_top" xlink:title=" ">
<polygon fill="white" stroke="black" points="1918.5,-81.5 1918.5,-143.5 2145.5,-143.5 2145.5,-81.5 1918.5,-81.5"/>
<text text-anchor="start" x="1926.5" y="-126.7" font-family="Source Sans Pro" font-size="16.00">Illumination&#45;Engine</text>
<text text-anchor="start" x="1926.5" y="-108.7" font-family="Source Sans Pro" font-size="16.00">/src/GraphicsModule</text>
<text text-anchor="middle" x="2032" y="-90.7" font-family="Source Sans Pro" font-size="16.00">/RenderPass/IERenderPass.cpp</text>
</a>
</g>
</g>
<!-- Node3&#45;&gt;Node13 -->
<g id="edge13" class="edge">
<title>Node3&#45;&gt;Node13</title>
<path fill="none" stroke="midnightblue" d="M1661.67,-193.9C1729.87,-181.12 1825.53,-162.55 1909,-144 1912.11,-143.31 1915.27,-142.6 1918.45,-141.87"/>
<polygon fill="midnightblue" stroke="midnightblue" points="1661,-190.47 1651.82,-195.75 1662.29,-197.35 1661,-190.47"/>
</g>
<!-- Node14 -->
<g id="node14" class="node">
<title>Node14</title>
<g id="a_node14"><a xlink:href="_i_e_material_8cpp.html" target="_top" xlink:title=" ">
<polygon fill="white" stroke="black" points="2163.5,-81.5 2163.5,-143.5 2364.5,-143.5 2364.5,-81.5 2163.5,-81.5"/>
<text text-anchor="start" x="2171.5" y="-126.7" font-family="Source Sans Pro" font-size="16.00">Illumination&#45;Engine</text>
<text text-anchor="start" x="2171.5" y="-108.7" font-family="Source Sans Pro" font-size="16.00">/src/GraphicsModule</text>
<text text-anchor="middle" x="2264" y="-90.7" font-family="Source Sans Pro" font-size="16.00">/Renderable/IEMaterial.cpp</text>
</a>
</g>
</g>
<!-- Node3&#45;&gt;Node14 -->
<g id="edge14" class="edge">
<title>Node3&#45;&gt;Node14</title>
<path fill="none" stroke="midnightblue" d="M1662.13,-204.64C1777.62,-196.19 1982.45,-177.74 2155,-144 2157.8,-143.45 2160.63,-142.87 2163.48,-142.26"/>
<polygon fill="midnightblue" stroke="midnightblue" points="1661.64,-201.17 1651.92,-205.38 1662.14,-208.15 1661.64,-201.17"/>
</g>
<!-- Node15 -->
<g id="node15" class="node">
<title>Node15</title>
<g id="a_node15"><a xlink:href="_i_e_mesh_8cpp.html" target="_top" xlink:title=" ">
<polygon fill="white" stroke="black" points="2382.5,-81.5 2382.5,-143.5 2565.5,-143.5 2565.5,-81.5 2382.5,-81.5"/>
<text text-anchor="start" x="2390.5" y="-126.7" font-family="Source Sans Pro" font-size="16.00">Illumination&#45;Engine</text>
<text text-anchor="start" x="2390.5" y="-108.7" font-family="Source Sans Pro" font-size="16.00">/src/GraphicsModule</text>
<text text-anchor="middle" x="2474" y="-90.7" font-family="Source Sans Pro" font-size="16.00">/Renderable/IEMesh.cpp</text>
</a>
</g>
</g>
<!-- Node3&#45;&gt;Node15 -->
<g id="edge15" class="edge">
<title>Node3&#45;&gt;Node15</title>
<path fill="none" stroke="midnightblue" d="M1661.61,-209.27C1811.24,-205.85 2118.83,-192.9 2374,-144 2376.76,-143.47 2379.56,-142.89 2382.37,-142.28"/>
<polygon fill="midnightblue" stroke="midnightblue" points="1661.47,-205.77 1651.55,-209.49 1661.62,-212.77 1661.47,-205.77"/>
</g>
<!-- Node16 -->
<g id="node16" class="node">
<title>Node16</title>
<g id="a_node16"><a xlink:href="_i_e_renderable_8cpp.html" target="_top" xlink:title=" ">
<polygon fill="white" stroke="black" points="2583.5,-81.5 2583.5,-143.5 2808.5,-143.5 2808.5,-81.5 2583.5,-81.5"/>
<text text-anchor="start" x="2591.5" y="-126.7" font-family="Source Sans Pro" font-size="16.00">Illumination&#45;Engine</text>
<text text-anchor="start" x="2591.5" y="-108.7" font-family="Source Sans Pro" font-size="16.00">/src/GraphicsModule</text>
<text text-anchor="middle" x="2696" y="-90.7" font-family="Source Sans Pro" font-size="16.00">/Renderable/IERenderable.cpp</text>
</a>
</g>
</g>
<!-- Node3&#45;&gt;Node16 -->
<g id="edge16" class="edge">
<title>Node3&#45;&gt;Node16</title>
<path fill="none" stroke="midnightblue" d="M1661.62,-209.97C1838.39,-207.72 2241.12,-196.69 2575,-144 2577.78,-143.56 2580.59,-143.09 2583.42,-142.59"/>
<polygon fill="midnightblue" stroke="midnightblue" points="1661.54,-206.47 1651.59,-210.09 1661.63,-213.47 1661.54,-206.47"/>
</g>
<!-- Node17 -->
<g id="node17" class="node">
<title>Node17</title>
<g id="a_node17"><a xlink:href="_i_e_descriptor_set_8cpp.html" target="_top" xlink:title=" ">
<polygon fill="white" stroke="black" points="2826.5,-81.5 2826.5,-143.5 3033.5,-143.5 3033.5,-81.5 2826.5,-81.5"/>
<text text-anchor="start" x="2834.5" y="-126.7" font-family="Source Sans Pro" font-size="16.00">Illumination&#45;Engine</text>
<text text-anchor="start" x="2834.5" y="-108.7" font-family="Source Sans Pro" font-size="16.00">/src/GraphicsModule</text>
<text text-anchor="middle" x="2930" y="-90.7" font-family="Source Sans Pro" font-size="16.00">/Shader/IEDescriptorSet.cpp</text>
</a>
</g>
</g>
<!-- Node3&#45;&gt;Node17 -->
<g id="edge17" class="edge">
<title>Node3&#45;&gt;Node17</title>
<path fill="none" stroke="midnightblue" d="M1661.75,-208.17C1909.74,-201.39 2595.14,-179.87 2818,-144 2820.79,-143.55 2823.6,-143.06 2826.44,-142.53"/>
<polygon fill="midnightblue" stroke="midnightblue" points="1661.59,-204.67 1651.69,-208.44 1661.78,-211.67 1661.59,-204.67"/>
</g>
<!-- Node18 -->
<g id="node18" class="node">
<title>Node18</title>
<g id="a_node18"><a xlink:href="_i_e_pipeline_8cpp.html" target="_top" xlink:title=" ">
<polygon fill="white" stroke="black" points="3052,-81.5 3052,-143.5 3224,-143.5 3224,-81.5 3052,-81.5"/>
<text text-anchor="start" x="3060" y="-126.7" font-family="Source Sans Pro" font-size="16.00">Illumination&#45;Engine</text>
<text text-anchor="start" x="3060" y="-108.7" font-family="Source Sans Pro" font-size="16.00">/src/GraphicsModule</text>
<text text-anchor="middle" x="3138" y="-90.7" font-family="Source Sans Pro" font-size="16.00">/Shader/IEPipeline.cpp</text>
</a>
</g>
</g>
<!-- Node3&#45;&gt;Node18 -->
<g id="edge18" class="edge">
<title>Node3&#45;&gt;Node18</title>
<path fill="none" stroke="midnightblue" d="M1661.86,-209.55C1939.79,-206.13 2775.8,-192.04 3043,-144 3045.9,-143.48 3048.83,-142.89 3051.78,-142.25"/>
<polygon fill="midnightblue" stroke="midnightblue" points="1661.77,-206.05 1651.81,-209.67 1661.86,-213.05 1661.77,-206.05"/>
</g>
<!-- Node19 -->
<g id="node19" class="node">
<title>Node19</title>
<g id="a_node19"><a xlink:href="_i_e_shader_8cpp.html" target="_top" xlink:title=" ">
<polygon fill="white" stroke="black" points="3242,-81.5 3242,-143.5 3406,-143.5 3406,-81.5 3242,-81.5"/>
<text text-anchor="start" x="3250" y="-126.7" font-family="Source Sans Pro" font-size="16.00">Illumination&#45;Engine</text>
<text text-anchor="start" x="3250" y="-108.7" font-family="Source Sans Pro" font-size="16.00">/src/GraphicsModule</text>
<text text-anchor="middle" x="3324" y="-90.7" font-family="Source Sans Pro" font-size="16.00">/Shader/IEShader.cpp</text>
</a>
</g>
</g>
<!-- Node3&#45;&gt;Node19 -->
<g id="edge19" class="edge">
<title>Node3&#45;&gt;Node19</title>
<path fill="none" stroke="midnightblue" d="M1661.95,-210.24C1963.37,-208.87 2927.75,-200.08 3233,-144 3235.95,-143.46 3238.93,-142.84 3241.94,-142.16"/>
<polygon fill="midnightblue" stroke="midnightblue" points="1661.49,-206.75 1651.51,-210.29 1661.52,-213.75 1661.49,-206.75"/>
</g>
<!-- Node9 -->
<g id="node9" class="node">
<title>Node9</title>
<g id="a_node9"><a xlink:href="main_8cpp.html" target="_top" xlink:title=" ">
<polygon fill="white" stroke="black" points="1143,-0.5 1143,-44.5 1293,-44.5 1293,-0.5 1143,-0.5"/>
<text text-anchor="start" x="1151" y="-27.7" font-family="Source Sans Pro" font-size="16.00">Illumination&#45;Engine</text>
<text text-anchor="middle" x="1218" y="-9.7" font-family="Source Sans Pro" font-size="16.00">/src/main.cpp</text>
</a>
</g>
</g>
<!-- Node8&#45;&gt;Node9 -->
<g id="edge9" class="edge">
<title>Node8&#45;&gt;Node9</title>
<path fill="none" stroke="midnightblue" d="M1218,-71.09C1218,-61.97 1218,-52.64 1218,-44.68"/>
<polygon fill="midnightblue" stroke="midnightblue" points="1214.5,-71.22 1218,-81.22 1221.5,-71.22 1214.5,-71.22"/>
</g>
</g>
</svg>
