<?xml version="1.0" encoding="UTF-8" standalone="no"?>
<!DOCTYPE svg PUBLIC "-//W3C//DTD SVG 1.1//EN"
 "http://www.w3.org/Graphics/SVG/1.1/DTD/svg11.dtd">
<!-- Generated by graphviz version 2.43.0 (0)
 -->
<!-- Title: Illumination&#45;Engine/src/GraphicsModule/CommandBuffer/DependencyStructs/IERenderPassBeginInfo.hpp Pages: 1 -->
<svg width="3583pt" height="503pt"
 viewBox="0.00 0.00 3582.50 503.00" xmlns="http://www.w3.org/2000/svg" xmlns:xlink="http://www.w3.org/1999/xlink">
<g id="graph0" class="graph" transform="scale(1 1) rotate(0) translate(4 499)">
<title>Illumination&#45;Engine/src/GraphicsModule/CommandBuffer/DependencyStructs/IERenderPassBeginInfo.hpp</title>
<polygon fill="white" stroke="transparent" points="-4,4 -4,-499 3578.5,-499 3578.5,4 -4,4"/>
<!-- Node1 -->
<g id="node1" class="node">
<title>Node1</title>
<g id="a_node1"><a xlink:title=" ">
<polygon fill="#bfbfbf" stroke="black" points="1351,-414.5 1351,-494.5 1623,-494.5 1623,-414.5 1351,-414.5"/>
<text text-anchor="start" x="1359" y="-477.7" font-family="Source Sans Pro" font-size="16.00">Illumination&#45;Engine</text>
<text text-anchor="start" x="1359" y="-459.7" font-family="Source Sans Pro" font-size="16.00">/src/GraphicsModule</text>
<text text-anchor="start" x="1359" y="-441.7" font-family="Source Sans Pro" font-size="16.00">/CommandBuffer/DependencyStructs</text>
<text text-anchor="middle" x="1487" y="-423.7" font-family="Source Sans Pro" font-size="16.00">/IERenderPassBeginInfo.hpp</text>
</a>
</g>
</g>
<!-- Node2 -->
<g id="node2" class="node">
<title>Node2</title>
<g id="a_node2"><a xlink:href="_i_e_render_pass_begin_info_8cpp.html" target="_top" xlink:title=" ">
<polygon fill="white" stroke="black" points="1034,-99.5 1034,-179.5 1306,-179.5 1306,-99.5 1034,-99.5"/>
<text text-anchor="start" x="1042" y="-162.7" font-family="Source Sans Pro" font-size="16.00">Illumination&#45;Engine</text>
<text text-anchor="start" x="1042" y="-144.7" font-family="Source Sans Pro" font-size="16.00">/src/GraphicsModule</text>
<text text-anchor="start" x="1042" y="-126.7" font-family="Source Sans Pro" font-size="16.00">/CommandBuffer/DependencyStructs</text>
<text text-anchor="middle" x="1170" y="-108.7" font-family="Source Sans Pro" font-size="16.00">/IERenderPassBeginInfo.cpp</text>
</a>
</g>
</g>
<!-- Node1&#45;&gt;Node2 -->
<g id="edge1" class="edge">
<title>Node1&#45;&gt;Node2</title>
<path fill="none" stroke="midnightblue" d="M1440.11,-407.2C1377.59,-345.47 1268.04,-237.3 1209.51,-179.51"/>
<polygon fill="midnightblue" stroke="midnightblue" points="1437.92,-409.96 1447.49,-414.49 1442.84,-404.97 1437.92,-409.96"/>
</g>
<!-- Node3 -->
<g id="node3" class="node">
<title>Node3</title>
<g id="a_node3"><a xlink:href="_i_e_command_buffer_8hpp.html" target="_top" xlink:title=" ">
<polygon fill="white" stroke="black" points="1547.5,-315.5 1547.5,-377.5 1842.5,-377.5 1842.5,-315.5 1547.5,-315.5"/>
<text text-anchor="start" x="1555.5" y="-360.7" font-family="Source Sans Pro" font-size="16.00">Illumination&#45;Engine</text>
<text text-anchor="start" x="1555.5" y="-342.7" font-family="Source Sans Pro" font-size="16.00">/src/GraphicsModule</text>
<text text-anchor="middle" x="1695" y="-324.7" font-family="Source Sans Pro" font-size="16.00">/CommandBuffer/IECommandBuffer.hpp</text>
</a>
</g>
</g>
<!-- Node1&#45;&gt;Node3 -->
<g id="edge2" class="edge">
<title>Node1&#45;&gt;Node3</title>
<path fill="none" stroke="midnightblue" d="M1572.6,-409.88C1593.86,-399.04 1616.17,-387.67 1635.84,-377.65"/>
<polygon fill="midnightblue" stroke="midnightblue" points="1570.89,-406.82 1563.57,-414.48 1574.06,-413.06 1570.89,-406.82"/>
</g>
<!-- Node4 -->
<g id="node4" class="node">
<title>Node4</title>
<g id="a_node4"><a xlink:href="_i_e_command_buffer_8cpp.html" target="_top" xlink:title=" ">
<polygon fill="white" stroke="black" points="3281.5,-0.5 3281.5,-62.5 3574.5,-62.5 3574.5,-0.5 3281.5,-0.5"/>
<text text-anchor="start" x="3289.5" y="-45.7" font-family="Source Sans Pro" font-size="16.00">Illumination&#45;Engine</text>
<text text-anchor="start" x="3289.5" y="-27.7" font-family="Source Sans Pro" font-size="16.00">/src/GraphicsModule</text>
<text text-anchor="middle" x="3428" y="-9.7" font-family="Source Sans Pro" font-size="16.00">/CommandBuffer/IECommandBuffer.cpp</text>
</a>
</g>
</g>
<!-- Node3&#45;&gt;Node4 -->
<g id="edge3" class="edge">
<title>Node3&#45;&gt;Node4</title>
<path fill="none" stroke="midnightblue" d="M1852.68,-318.1C2136.71,-268.57 2753.08,-160.2 3272,-63 3275.12,-62.42 3278.27,-61.82 3281.45,-61.22"/>
<polygon fill="midnightblue" stroke="midnightblue" points="1851.96,-314.68 1842.71,-319.84 1853.17,-321.57 1851.96,-314.68"/>
</g>
<!-- Node5 -->
<g id="node5" class="node">
<title>Node5</title>
<g id="a_node5"><a xlink:href="_i_e_command_pool_8hpp.html" target="_top" xlink:title=" ">
<polygon fill="white" stroke="black" points="1750.5,-216.5 1750.5,-278.5 2035.5,-278.5 2035.5,-216.5 1750.5,-216.5"/>
<text text-anchor="start" x="1758.5" y="-261.7" font-family="Source Sans Pro" font-size="16.00">Illumination&#45;Engine</text>
<text text-anchor="start" x="1758.5" y="-243.7" font-family="Source Sans Pro" font-size="16.00">/src/GraphicsModule</text>
<text text-anchor="middle" x="1893" y="-225.7" font-family="Source Sans Pro" font-size="16.00">/CommandBuffer/IECommandPool.hpp</text>
</a>
</g>
</g>
<!-- Node3&#45;&gt;Node5 -->
<g id="edge4" class="edge">
<title>Node3&#45;&gt;Node5</title>
<path fill="none" stroke="midnightblue" d="M1765.43,-311C1787.06,-300.4 1810.68,-288.83 1831.66,-278.55"/>
<polygon fill="midnightblue" stroke="midnightblue" points="1763.73,-307.93 1756.29,-315.47 1766.81,-314.22 1763.73,-307.93"/>
</g>
<!-- Node23 -->
<g id="node23" class="node">
<title>Node23</title>
<g id="a_node23"><a xlink:href="_i_e_render_pass_8hpp.html" target="_top" xlink:title=" ">
<polygon fill="white" stroke="black" points="1504,-216.5 1504,-278.5 1732,-278.5 1732,-216.5 1504,-216.5"/>
<text text-anchor="start" x="1512" y="-261.7" font-family="Source Sans Pro" font-size="16.00">Illumination&#45;Engine</text>
<text text-anchor="start" x="1512" y="-243.7" font-family="Source Sans Pro" font-size="16.00">/src/GraphicsModule</text>
<text text-anchor="middle" x="1618" y="-225.7" font-family="Source Sans Pro" font-size="16.00">/RenderPass/IERenderPass.hpp</text>
</a>
</g>
</g>
<!-- Node3&#45;&gt;Node23 -->
<g id="edge24" class="edge">
<title>Node3&#45;&gt;Node23</title>
<path fill="none" stroke="midnightblue" d="M1664.81,-307.47C1657.22,-297.9 1649.17,-287.76 1641.93,-278.64"/>
<polygon fill="midnightblue" stroke="midnightblue" points="1662.1,-309.68 1671.06,-315.34 1667.58,-305.33 1662.1,-309.68"/>
</g>
<!-- Node6 -->
<g id="node6" class="node">
<title>Node6</title>
<g id="a_node6"><a xlink:href="_i_e_command_pool_8cpp.html" target="_top" xlink:title=" ">
<polygon fill="white" stroke="black" points="2979,-0.5 2979,-62.5 3263,-62.5 3263,-0.5 2979,-0.5"/>
<text text-anchor="start" x="2987" y="-45.7" font-family="Source Sans Pro" font-size="16.00">Illumination&#45;Engine</text>
<text text-anchor="start" x="2987" y="-27.7" font-family="Source Sans Pro" font-size="16.00">/src/GraphicsModule</text>
<text text-anchor="middle" x="3121" y="-9.7" font-family="Source Sans Pro" font-size="16.00">/CommandBuffer/IECommandPool.cpp</text>
</a>
</g>
</g>
<!-- Node5&#45;&gt;Node6 -->
<g id="edge5" class="edge">
<title>Node5&#45;&gt;Node6</title>
<path fill="none" stroke="midnightblue" d="M2034,-214.2C2181.65,-181.33 2420.58,-130.82 2629,-99 2779.65,-76 2819.36,-86.11 2970,-63 2972.91,-62.55 2975.84,-62.09 2978.8,-61.61"/>
<polygon fill="midnightblue" stroke="midnightblue" points="2032.97,-210.84 2023.97,-216.43 2034.49,-217.67 2032.97,-210.84"/>
</g>
<!-- Node7 -->
<g id="node7" class="node">
<title>Node7</title>
<g id="a_node7"><a xlink:href="_i_e_render_engine_8hpp.html" target="_top" xlink:title=" ">
<polygon fill="white" stroke="black" points="1748.5,-108.5 1748.5,-170.5 1909.5,-170.5 1909.5,-108.5 1748.5,-108.5"/>
<text text-anchor="start" x="1756.5" y="-153.7" font-family="Source Sans Pro" font-size="16.00">Illumination&#45;Engine</text>
<text text-anchor="start" x="1756.5" y="-135.7" font-family="Source Sans Pro" font-size="16.00">/src/GraphicsModule</text>
<text text-anchor="middle" x="1829" y="-117.7" font-family="Source Sans Pro" font-size="16.00">/IERenderEngine.hpp</text>
</a>
</g>
</g>
<!-- Node5&#45;&gt;Node7 -->
<g id="edge6" class="edge">
<title>Node5&#45;&gt;Node7</title>
<path fill="none" stroke="midnightblue" d="M1869.6,-207.74C1862.22,-195.52 1854.18,-182.2 1847.21,-170.67"/>
<polygon fill="midnightblue" stroke="midnightblue" points="1866.67,-209.66 1874.83,-216.41 1872.66,-206.04 1866.67,-209.66"/>
</g>
<!-- Node7&#45;&gt;Node4 -->
<g id="edge8" class="edge">
<title>Node7&#45;&gt;Node4</title>
<path fill="none" stroke="midnightblue" d="M1919.87,-134.1C2226.09,-119.22 3204.86,-71.28 3272,-63 3275.01,-62.63 3278.05,-62.23 3281.12,-61.82"/>
<polygon fill="midnightblue" stroke="midnightblue" points="1919.52,-130.61 1909.7,-134.59 1919.86,-137.6 1919.52,-130.61"/>
</g>
<!-- Node7&#45;&gt;Node6 -->
<g id="edge9" class="edge">
<title>Node7&#45;&gt;Node6</title>
<path fill="none" stroke="midnightblue" d="M1919.93,-129.83C2012.86,-121.17 2161.39,-107.91 2290,-99 2591.92,-78.08 2669.76,-101.06 2970,-63 2972.92,-62.63 2975.87,-62.24 2978.83,-61.82"/>
<polygon fill="midnightblue" stroke="midnightblue" points="1919.35,-126.37 1909.72,-130.78 1920,-133.34 1919.35,-126.37"/>
</g>
<!-- Node8 -->
<g id="node8" class="node">
<title>Node8</title>
<g id="a_node8"><a xlink:href="_i_e_buffer_8cpp.html" target="_top" xlink:title=" ">
<polygon fill="white" stroke="black" points="1922.5,-0.5 1922.5,-62.5 2079.5,-62.5 2079.5,-0.5 1922.5,-0.5"/>
<text text-anchor="start" x="1930.5" y="-45.7" font-family="Source Sans Pro" font-size="16.00">Illumination&#45;Engine</text>
<text text-anchor="start" x="1930.5" y="-27.7" font-family="Source Sans Pro" font-size="16.00">/src/GraphicsModule</text>
<text text-anchor="middle" x="2001" y="-9.7" font-family="Source Sans Pro" font-size="16.00">/Buffer/IEBuffer.cpp</text>
</a>
</g>
</g>
<!-- Node7&#45;&gt;Node8 -->
<g id="edge7" class="edge">
<title>Node7&#45;&gt;Node8</title>
<path fill="none" stroke="midnightblue" d="M1886.45,-103.09C1907.72,-89.99 1931.61,-75.26 1952.05,-62.67"/>
<polygon fill="midnightblue" stroke="midnightblue" points="1884.51,-100.18 1877.83,-108.41 1888.18,-106.14 1884.51,-100.18"/>
</g>
<!-- Node9 -->
<g id="node9" class="node">
<title>Node9</title>
<g id="a_node9"><a xlink:href="_i_e_a_p_i_8cpp.html" target="_top" xlink:title=" ">
<polygon fill="white" stroke="black" points="2097.5,-0.5 2097.5,-62.5 2254.5,-62.5 2254.5,-0.5 2097.5,-0.5"/>
<text text-anchor="start" x="2105.5" y="-45.7" font-family="Source Sans Pro" font-size="16.00">Illumination&#45;Engine</text>
<text text-anchor="start" x="2105.5" y="-27.7" font-family="Source Sans Pro" font-size="16.00">/src/GraphicsModule</text>
<text text-anchor="middle" x="2176" y="-9.7" font-family="Source Sans Pro" font-size="16.00">/IEAPI.cpp</text>
</a>
</g>
</g>
<!-- Node7&#45;&gt;Node9 -->
<g id="edge10" class="edge">
<title>Node7&#45;&gt;Node9</title>
<path fill="none" stroke="midnightblue" d="M1919.42,-113.55C1969.59,-99.38 2032.97,-80.94 2089,-63 2091.74,-62.12 2094.53,-61.22 2097.34,-60.29"/>
<polygon fill="midnightblue" stroke="midnightblue" points="1918.25,-110.25 1909.57,-116.33 1920.15,-116.98 1918.25,-110.25"/>
</g>
<!-- Node10 -->
<g id="node10" class="node">
<title>Node10</title>
<g id="a_node10"><a xlink:href="_i_e_camera_8cpp.html" target="_top" xlink:title=" ">
<polygon fill="white" stroke="black" points="2272.5,-0.5 2272.5,-62.5 2429.5,-62.5 2429.5,-0.5 2272.5,-0.5"/>
<text text-anchor="start" x="2280.5" y="-45.7" font-family="Source Sans Pro" font-size="16.00">Illumination&#45;Engine</text>
<text text-anchor="start" x="2280.5" y="-27.7" font-family="Source Sans Pro" font-size="16.00">/src/GraphicsModule</text>
<text text-anchor="middle" x="2351" y="-9.7" font-family="Source Sans Pro" font-size="16.00">/IECamera.cpp</text>
</a>
</g>
</g>
<!-- Node7&#45;&gt;Node10 -->
<g id="edge11" class="edge">
<title>Node7&#45;&gt;Node10</title>
<path fill="none" stroke="midnightblue" d="M1919.65,-127.22C2008.29,-115.15 2146.68,-93.52 2264,-63 2266.79,-62.27 2269.61,-61.5 2272.46,-60.69"/>
<polygon fill="midnightblue" stroke="midnightblue" points="1919.07,-123.77 1909.62,-128.57 1920,-130.7 1919.07,-123.77"/>
</g>
<!-- Node11 -->
<g id="node11" class="node">
<title>Node11</title>
<g id="a_node11"><a xlink:href="_i_e_render_engine_8cpp.html" target="_top" xlink:title=" ">
<polygon fill="white" stroke="black" points="2447.5,-0.5 2447.5,-62.5 2606.5,-62.5 2606.5,-0.5 2447.5,-0.5"/>
<text text-anchor="start" x="2455.5" y="-45.7" font-family="Source Sans Pro" font-size="16.00">Illumination&#45;Engine</text>
<text text-anchor="start" x="2455.5" y="-27.7" font-family="Source Sans Pro" font-size="16.00">/src/GraphicsModule</text>
<text text-anchor="middle" x="2527" y="-9.7" font-family="Source Sans Pro" font-size="16.00">/IERenderEngine.cpp</text>
</a>
</g>
</g>
<!-- Node7&#45;&gt;Node11 -->
<g id="edge12" class="edge">
<title>Node7&#45;&gt;Node11</title>
<path fill="none" stroke="midnightblue" d="M1920.13,-133.22C2040.3,-124.9 2257.71,-105.14 2439,-63 2441.68,-62.38 2444.39,-61.7 2447.11,-60.99"/>
<polygon fill="midnightblue" stroke="midnightblue" points="1919.62,-129.75 1909.88,-133.92 1920.09,-136.73 1919.62,-129.75"/>
</g>
<!-- Node12 -->
<g id="node12" class="node">
<title>Node12</title>
<g id="a_node12"><a xlink:href="_i_e_image_8cpp.html" target="_top" xlink:title=" ">
<polygon fill="white" stroke="black" points="2624.5,-0.5 2624.5,-62.5 2781.5,-62.5 2781.5,-0.5 2624.5,-0.5"/>
<text text-anchor="start" x="2632.5" y="-45.7" font-family="Source Sans Pro" font-size="16.00">Illumination&#45;Engine</text>
<text text-anchor="start" x="2632.5" y="-27.7" font-family="Source Sans Pro" font-size="16.00">/src/GraphicsModule</text>
<text text-anchor="middle" x="2703" y="-9.7" font-family="Source Sans Pro" font-size="16.00">/Image/IEImage.cpp</text>
</a>
</g>
</g>
<!-- Node7&#45;&gt;Node12 -->
<g id="edge13" class="edge">
<title>Node7&#45;&gt;Node12</title>
<path fill="none" stroke="midnightblue" d="M1919.64,-131.05C2112.09,-115.04 2549.41,-77.64 2616,-63 2618.66,-62.42 2621.35,-61.77 2624.05,-61.09"/>
<polygon fill="midnightblue" stroke="midnightblue" points="1919.22,-127.57 1909.55,-131.88 1919.8,-134.54 1919.22,-127.57"/>
</g>
<!-- Node13 -->
<g id="node13" class="node">
<title>Node13</title>
<g id="a_node13"><a xlink:href="_i_e_texture_8cpp.html" target="_top" xlink:title=" ">
<polygon fill="white" stroke="black" points="2799.5,-0.5 2799.5,-62.5 2960.5,-62.5 2960.5,-0.5 2799.5,-0.5"/>
<text text-anchor="start" x="2807.5" y="-45.7" font-family="Source Sans Pro" font-size="16.00">Illumination&#45;Engine</text>
<text text-anchor="start" x="2807.5" y="-27.7" font-family="Source Sans Pro" font-size="16.00">/src/GraphicsModule</text>
<text text-anchor="middle" x="2880" y="-9.7" font-family="Source Sans Pro" font-size="16.00">/Image/IETexture.cpp</text>
</a>
</g>
</g>
<!-- Node7&#45;&gt;Node13 -->
<g id="edge14" class="edge">
<title>Node7&#45;&gt;Node13</title>
<path fill="none" stroke="midnightblue" d="M1919.97,-130.33C2012.93,-122.08 2161.48,-109.12 2290,-99 2512.55,-81.47 2572.25,-107.56 2791,-63 2793.72,-62.45 2796.47,-61.83 2799.24,-61.17"/>
<polygon fill="midnightblue" stroke="midnightblue" points="1919.4,-126.87 1909.75,-131.24 1920.02,-133.84 1919.4,-126.87"/>
</g>
<!-- Node14 -->
<g id="node14" class="node">
<title>Node14</title>
<g id="a_node14"><a xlink:href="_i_e_framebuffer_8cpp.html" target="_top" xlink:title=" ">
<polygon fill="white" stroke="black" points="0,-0.5 0,-62.5 230,-62.5 230,-0.5 0,-0.5"/>
<text text-anchor="start" x="8" y="-45.7" font-family="Source Sans Pro" font-size="16.00">Illumination&#45;Engine</text>
<text text-anchor="start" x="8" y="-27.7" font-family="Source Sans Pro" font-size="16.00">/src/GraphicsModule</text>
<text text-anchor="middle" x="115" y="-9.7" font-family="Source Sans Pro" font-size="16.00">/RenderPass/IEFramebuffer.cpp</text>
</a>
</g>
</g>
<!-- Node7&#45;&gt;Node14 -->
<g id="edge15" class="edge">
<title>Node7&#45;&gt;Node14</title>
<path fill="none" stroke="midnightblue" d="M1737.9,-116.83C1704.75,-109.85 1666.87,-102.92 1632,-99 1017,-29.91 853.44,-144.82 240,-63 236.79,-62.57 233.54,-62.09 230.27,-61.57"/>
<polygon fill="midnightblue" stroke="midnightblue" points="1737.51,-120.33 1748.02,-119 1738.98,-113.49 1737.51,-120.33"/>
</g>
<!-- Node15 -->
<g id="node15" class="node">
<title>Node15</title>
<g id="a_node15"><a xlink:href="_i_e_render_pass_8cpp.html" target="_top" xlink:title=" ">
<polygon fill="white" stroke="black" points="248.5,-0.5 248.5,-62.5 475.5,-62.5 475.5,-0.5 248.5,-0.5"/>
<text text-anchor="start" x="256.5" y="-45.7" font-family="Source Sans Pro" font-size="16.00">Illumination&#45;Engine</text>
<text text-anchor="start" x="256.5" y="-27.7" font-family="Source Sans Pro" font-size="16.00">/src/GraphicsModule</text>
<text text-anchor="middle" x="362" y="-9.7" font-family="Source Sans Pro" font-size="16.00">/RenderPass/IERenderPass.cpp</text>
</a>
</g>
</g>
<!-- Node7&#45;&gt;Node15 -->
<g id="edge16" class="edge">
<title>Node7&#45;&gt;Node15</title>
<path fill="none" stroke="midnightblue" d="M1738.59,-112.51C1716.35,-107.09 1692.46,-102.09 1670,-99 1148.02,-27.07 1006.99,-134.81 485,-63 481.95,-62.58 478.86,-62.12 475.76,-61.61"/>
<polygon fill="midnightblue" stroke="midnightblue" points="1737.8,-115.92 1748.35,-114.93 1739.49,-109.12 1737.8,-115.92"/>
</g>
<!-- Node16 -->
<g id="node16" class="node">
<title>Node16</title>
<g id="a_node16"><a xlink:href="_i_e_material_8cpp.html" target="_top" xlink:title=" ">
<polygon fill="white" stroke="black" points="493.5,-0.5 493.5,-62.5 694.5,-62.5 694.5,-0.5 493.5,-0.5"/>
<text text-anchor="start" x="501.5" y="-45.7" font-family="Source Sans Pro" font-size="16.00">Illumination&#45;Engine</text>
<text text-anchor="start" x="501.5" y="-27.7" font-family="Source Sans Pro" font-size="16.00">/src/GraphicsModule</text>
<text text-anchor="middle" x="594" y="-9.7" font-family="Source Sans Pro" font-size="16.00">/Renderable/IEMaterial.cpp</text>
</a>
</g>
</g>
<!-- Node7&#45;&gt;Node16 -->
<g id="edge17" class="edge">
<title>Node7&#45;&gt;Node16</title>
<path fill="none" stroke="midnightblue" d="M1738.58,-112.62C1716.33,-107.2 1692.45,-102.17 1670,-99 1244.59,-38.89 1128.56,-128.84 704,-63 700.87,-62.51 697.7,-61.97 694.5,-61.38"/>
<polygon fill="midnightblue" stroke="midnightblue" points="1737.79,-116.03 1748.34,-115.04 1739.48,-109.23 1737.79,-116.03"/>
</g>
<!-- Node17 -->
<g id="node17" class="node">
<title>Node17</title>
<g id="a_node17"><a xlink:href="_i_e_mesh_8cpp.html" target="_top" xlink:title=" ">
<polygon fill="white" stroke="black" points="712.5,-0.5 712.5,-62.5 895.5,-62.5 895.5,-0.5 712.5,-0.5"/>
<text text-anchor="start" x="720.5" y="-45.7" font-family="Source Sans Pro" font-size="16.00">Illumination&#45;Engine</text>
<text text-anchor="start" x="720.5" y="-27.7" font-family="Source Sans Pro" font-size="16.00">/src/GraphicsModule</text>
<text text-anchor="middle" x="804" y="-9.7" font-family="Source Sans Pro" font-size="16.00">/Renderable/IEMesh.cpp</text>
</a>
</g>
</g>
<!-- Node7&#45;&gt;Node17 -->
<g id="edge18" class="edge">
<title>Node7&#45;&gt;Node17</title>
<path fill="none" stroke="midnightblue" d="M1738.56,-112.77C1716.31,-107.35 1692.43,-102.28 1670,-99 1333.21,-49.73 1240.46,-120.64 905,-63 901.93,-62.47 898.82,-61.88 895.7,-61.24"/>
<polygon fill="midnightblue" stroke="midnightblue" points="1737.77,-116.18 1748.32,-115.2 1739.46,-109.39 1737.77,-116.18"/>
</g>
<!-- Node18 -->
<g id="node18" class="node">
<title>Node18</title>
<g id="a_node18"><a xlink:href="_i_e_renderable_8cpp.html" target="_top" xlink:title=" ">
<polygon fill="white" stroke="black" points="913.5,-0.5 913.5,-62.5 1138.5,-62.5 1138.5,-0.5 913.5,-0.5"/>
<text text-anchor="start" x="921.5" y="-45.7" font-family="Source Sans Pro" font-size="16.00">Illumination&#45;Engine</text>
<text text-anchor="start" x="921.5" y="-27.7" font-family="Source Sans Pro" font-size="16.00">/src/GraphicsModule</text>
<text text-anchor="middle" x="1026" y="-9.7" font-family="Source Sans Pro" font-size="16.00">/Renderable/IERenderable.cpp</text>
</a>
</g>
</g>
<!-- Node7&#45;&gt;Node18 -->
<g id="edge19" class="edge">
<title>Node7&#45;&gt;Node18</title>
<path fill="none" stroke="midnightblue" d="M1738.5,-113.12C1716.26,-107.69 1692.39,-102.53 1670,-99 1440.28,-62.83 1377.69,-99.34 1148,-63 1144.87,-62.51 1141.71,-61.97 1138.52,-61.4"/>
<polygon fill="midnightblue" stroke="midnightblue" points="1737.71,-116.53 1748.26,-115.55 1739.4,-109.74 1737.71,-116.53"/>
</g>
<!-- Node19 -->
<g id="node19" class="node">
<title>Node19</title>
<g id="a_node19"><a xlink:href="_i_e_descriptor_set_8cpp.html" target="_top" xlink:title=" ">
<polygon fill="white" stroke="black" points="1156.5,-0.5 1156.5,-62.5 1363.5,-62.5 1363.5,-0.5 1156.5,-0.5"/>
<text text-anchor="start" x="1164.5" y="-45.7" font-family="Source Sans Pro" font-size="16.00">Illumination&#45;Engine</text>
<text text-anchor="start" x="1164.5" y="-27.7" font-family="Source Sans Pro" font-size="16.00">/src/GraphicsModule</text>
<text text-anchor="middle" x="1260" y="-9.7" font-family="Source Sans Pro" font-size="16.00">/Shader/IEDescriptorSet.cpp</text>
</a>
</g>
</g>
<!-- Node7&#45;&gt;Node19 -->
<g id="edge20" class="edge">
<title>Node7&#45;&gt;Node19</title>
<path fill="none" stroke="midnightblue" d="M1738.36,-113.94C1716.12,-108.48 1692.3,-103.1 1670,-99 1539.23,-74.93 1503.52,-88.39 1373,-63 1369.91,-62.4 1366.78,-61.76 1363.62,-61.09"/>
<polygon fill="midnightblue" stroke="midnightblue" points="1737.57,-117.35 1748.12,-116.37 1739.26,-110.56 1737.57,-117.35"/>
</g>
<!-- Node20 -->
<g id="node20" class="node">
<title>Node20</title>
<g id="a_node20"><a xlink:href="_i_e_pipeline_8cpp.html" target="_top" xlink:title=" ">
<polygon fill="white" stroke="black" points="1382,-0.5 1382,-62.5 1554,-62.5 1554,-0.5 1382,-0.5"/>
<text text-anchor="start" x="1390" y="-45.7" font-family="Source Sans Pro" font-size="16.00">Illumination&#45;Engine</text>
<text text-anchor="start" x="1390" y="-27.7" font-family="Source Sans Pro" font-size="16.00">/src/GraphicsModule</text>
<text text-anchor="middle" x="1468" y="-9.7" font-family="Source Sans Pro" font-size="16.00">/Shader/IEPipeline.cpp</text>
</a>
</g>
</g>
<!-- Node7&#45;&gt;Node20 -->
<g id="edge21" class="edge">
<title>Node7&#45;&gt;Node20</title>
<path fill="none" stroke="midnightblue" d="M1738.68,-113.69C1687.1,-99.31 1621.28,-80.62 1563,-63 1560.1,-62.12 1557.15,-61.22 1554.17,-60.31"/>
<polygon fill="midnightblue" stroke="midnightblue" points="1737.9,-117.1 1748.47,-116.41 1739.78,-110.36 1737.9,-117.1"/>
</g>
<!-- Node21 -->
<g id="node21" class="node">
<title>Node21</title>
<g id="a_node21"><a xlink:href="_i_e_shader_8cpp.html" target="_top" xlink:title=" ">
<polygon fill="white" stroke="black" points="1572,-0.5 1572,-62.5 1736,-62.5 1736,-0.5 1572,-0.5"/>
<text text-anchor="start" x="1580" y="-45.7" font-family="Source Sans Pro" font-size="16.00">Illumination&#45;Engine</text>
<text text-anchor="start" x="1580" y="-27.7" font-family="Source Sans Pro" font-size="16.00">/src/GraphicsModule</text>
<text text-anchor="middle" x="1654" y="-9.7" font-family="Source Sans Pro" font-size="16.00">/Shader/IEShader.cpp</text>
</a>
</g>
</g>
<!-- Node7&#45;&gt;Node21 -->
<g id="edge22" class="edge">
<title>Node7&#45;&gt;Node21</title>
<path fill="none" stroke="midnightblue" d="M1770.55,-103.09C1748.91,-89.99 1724.6,-75.26 1703.8,-62.67"/>
<polygon fill="midnightblue" stroke="midnightblue" points="1768.95,-106.22 1779.32,-108.41 1772.58,-100.23 1768.95,-106.22"/>
</g>
<!-- Node22 -->
<g id="node22" class="node">
<title>Node22</title>
<g id="a_node22"><a xlink:href="main_8cpp.html" target="_top" xlink:title=" ">
<polygon fill="white" stroke="black" points="1754,-9.5 1754,-53.5 1904,-53.5 1904,-9.5 1754,-9.5"/>
<text text-anchor="start" x="1762" y="-36.7" font-family="Source Sans Pro" font-size="16.00">Illumination&#45;Engine</text>
<text text-anchor="middle" x="1829" y="-18.7" font-family="Source Sans Pro" font-size="16.00">/src/main.cpp</text>
</a>
</g>
</g>
<!-- Node7&#45;&gt;Node22 -->
<g id="edge23" class="edge">
<title>Node7&#45;&gt;Node22</title>
<path fill="none" stroke="midnightblue" d="M1829,-98.19C1829,-83 1829,-66.33 1829,-53.58"/>
<polygon fill="midnightblue" stroke="midnightblue" points="1825.5,-98.41 1829,-108.41 1832.5,-98.41 1825.5,-98.41"/>
</g>
<!-- Node23&#45;&gt;Node2 -->
<g id="edge25" class="edge">
<title>Node23&#45;&gt;Node2</title>
<path fill="none" stroke="midnightblue" d="M1493.88,-220.72C1438.92,-208.93 1373.59,-194.4 1315,-180 1312.09,-179.28 1309.14,-178.55 1306.17,-177.81"/>
<polygon fill="midnightblue" stroke="midnightblue" points="1493.15,-224.14 1503.66,-222.81 1494.61,-217.3 1493.15,-224.14"/>
</g>
<!-- Node23&#45;&gt;Node7 -->
<g id="edge27" class="edge">
<title>Node23&#45;&gt;Node7</title>
<path fill="none" stroke="midnightblue" d="M1687.09,-211.79C1713.52,-198.51 1743.43,-183.49 1768.95,-170.67"/>
<polygon fill="midnightblue" stroke="midnightblue" points="1685.26,-208.79 1677.9,-216.41 1688.41,-215.05 1685.26,-208.79"/>
</g>
<!-- Node23&#45;&gt;Node14 -->
<g id="edge28" class="edge">
<title>Node23&#45;&gt;Node14</title>
<path fill="none" stroke="midnightblue" d="M1625.58,-206.14C1629.36,-172.25 1628.09,-125.27 1599,-99 1542.95,-48.38 314.86,-73.01 240,-63 236.79,-62.57 233.54,-62.09 230.27,-61.57"/>
<polygon fill="midnightblue" stroke="midnightblue" points="1622.09,-205.83 1624.26,-216.2 1629.03,-206.73 1622.09,-205.83"/>
</g>
<!-- Node23&#45;&gt;Node15 -->
<g id="edge29" class="edge">
<title>Node23&#45;&gt;Node15</title>
<path fill="none" stroke="midnightblue" d="M1636.64,-206.85C1649.23,-173.53 1659.13,-126.99 1632,-99 1587.63,-53.22 548.15,-71.72 485,-63 481.95,-62.58 478.86,-62.11 475.76,-61.61"/>
<polygon fill="midnightblue" stroke="midnightblue" points="1633.33,-205.71 1632.87,-216.3 1639.83,-208.31 1633.33,-205.71"/>
</g>
<!-- Node24 -->
<g id="node24" class="node">
<title>Node24</title>
<g id="a_node24"><a xlink:href="_i_e_dependency_8cpp.html" target="_top" xlink:title=" ">
<polygon fill="white" stroke="black" points="1324,-108.5 1324,-170.5 1590,-170.5 1590,-108.5 1324,-108.5"/>
<text text-anchor="start" x="1332" y="-153.7" font-family="Source Sans Pro" font-size="16.00">Illumination&#45;Engine</text>
<text text-anchor="start" x="1332" y="-135.7" font-family="Source Sans Pro" font-size="16.00">/src/GraphicsModule</text>
<text text-anchor="middle" x="1457" y="-117.7" font-family="Source Sans Pro" font-size="16.00">/CommandBuffer/IEDependency.cpp</text>
</a>
</g>
</g>
<!-- Node23&#45;&gt;Node24 -->
<g id="edge26" class="edge">
<title>Node23&#45;&gt;Node24</title>
<path fill="none" stroke="midnightblue" d="M1563.69,-210.74C1543.92,-197.73 1521.78,-183.15 1502.82,-170.67"/>
<polygon fill="midnightblue" stroke="midnightblue" points="1562.02,-213.83 1572.29,-216.41 1565.87,-207.99 1562.02,-213.83"/>
</g>
</g>
</svg>
