<?xml version="1.0" encoding="UTF-8" standalone="no"?>
<!DOCTYPE svg PUBLIC "-//W3C//DTD SVG 1.1//EN"
 "http://www.w3.org/Graphics/SVG/1.1/DTD/svg11.dtd">
<!-- Generated by graphviz version 2.43.0 (0)
 -->
<!-- Title: Illumination&#45;Engine/src/GraphicsModule/CommandBuffer/IECommandPool.hpp Pages: 1 -->
<svg width="2867pt" height="602pt"
 viewBox="0.00 0.00 2867.00 602.00" xmlns="http://www.w3.org/2000/svg" xmlns:xlink="http://www.w3.org/1999/xlink">
<g id="graph0" class="graph" transform="scale(1 1) rotate(0) translate(4 598)">
<title>Illumination&#45;Engine/src/GraphicsModule/CommandBuffer/IECommandPool.hpp</title>
<polygon fill="white" stroke="transparent" points="-4,4 -4,-598 2863,-598 2863,4 -4,4"/>
<!-- Node1 -->
<g id="node1" class="node">
<title>Node1</title>
<g id="a_node1"><a xlink:title=" ">
<polygon fill="#bfbfbf" stroke="black" points="2537,-531.5 2537,-593.5 2822,-593.5 2822,-531.5 2537,-531.5"/>
<text text-anchor="start" x="2545" y="-576.7" font-family="Source Sans Pro" font-size="16.00">Illumination&#45;Engine</text>
<text text-anchor="start" x="2545" y="-558.7" font-family="Source Sans Pro" font-size="16.00">/src/GraphicsModule</text>
<text text-anchor="middle" x="2679.5" y="-540.7" font-family="Source Sans Pro" font-size="16.00">/CommandBuffer/IECommandPool.hpp</text>
</a>
</g>
</g>
<!-- Node2 -->
<g id="node2" class="node">
<title>Node2</title>
<g id="a_node2"><a xlink:href="_i_e_command_buffer_8hpp.html" target="_top" xlink:title=" ">
<polygon fill="white" stroke="black" points="2022.5,-468.5 2022.5,-494.5 2194.5,-494.5 2194.5,-468.5 2022.5,-468.5"/>
<text text-anchor="middle" x="2108.5" y="-477.7" font-family="Source Sans Pro" font-size="16.00">IECommandBuffer.hpp</text>
</a>
</g>
</g>
<!-- Node1&#45;&gt;Node2 -->
<g id="edge1" class="edge">
<title>Node1&#45;&gt;Node2</title>
<path fill="none" stroke="midnightblue" d="M2536.89,-541.77C2433.25,-527.43 2295.77,-508.41 2204.84,-495.83"/>
<polygon fill="midnightblue" stroke="midnightblue" points="2205.2,-492.35 2194.81,-494.44 2204.24,-499.28 2205.2,-492.35"/>
</g>
<!-- Node3 -->
<g id="node3" class="node">
<title>Node3</title>
<g id="a_node3"><a xlink:title=" ">
<polygon fill="white" stroke="#bfbfbf" points="1519,-81.5 1519,-107.5 1644,-107.5 1644,-81.5 1519,-81.5"/>
<text text-anchor="middle" x="1581.5" y="-90.7" font-family="Source Sans Pro" font-size="16.00">vulkan/vulkan.h</text>
</a>
</g>
</g>
<!-- Node1&#45;&gt;Node3 -->
<g id="edge87" class="edge">
<title>Node1&#45;&gt;Node3</title>
<path fill="none" stroke="midnightblue" d="M2536.78,-559.35C2044.21,-550.98 445.5,-515.73 445.5,-410.5 445.5,-410.5 445.5,-410.5 445.5,-327.5 445.5,-213.57 516.29,-179.66 624.5,-144 707.53,-116.63 1299.42,-101.51 1508.54,-96.97"/>
<polygon fill="midnightblue" stroke="midnightblue" points="1508.88,-100.47 1518.8,-96.75 1508.73,-93.47 1508.88,-100.47"/>
</g>
<!-- Node4 -->
<g id="node4" class="node">
<title>Node4</title>
<g id="a_node4"><a xlink:title=" ">
<polygon fill="white" stroke="#bfbfbf" points="1293,-9.5 1293,-35.5 1352,-35.5 1352,-9.5 1293,-9.5"/>
<text text-anchor="middle" x="1322.5" y="-18.7" font-family="Source Sans Pro" font-size="16.00">vector</text>
</a>
</g>
</g>
<!-- Node1&#45;&gt;Node4 -->
<g id="edge88" class="edge">
<title>Node1&#45;&gt;Node4</title>
<path fill="none" stroke="midnightblue" d="M2679.5,-531.42C2679.5,-500.94 2679.5,-452.44 2679.5,-410.5 2679.5,-410.5 2679.5,-410.5 2679.5,-165.5 2679.5,-34.47 2317.09,-71.19 1767.5,-45 1618.08,-37.88 1440.44,-29.25 1362.51,-25.45"/>
<polygon fill="midnightblue" stroke="midnightblue" points="1362.34,-21.94 1352.18,-24.95 1362,-28.93 1362.34,-21.94"/>
</g>
<!-- Node14 -->
<g id="node14" class="node">
<title>Node14</title>
<g id="a_node14"><a xlink:title=" ">
<polygon fill="white" stroke="#bfbfbf" points="1776,-9.5 1776,-35.5 1839,-35.5 1839,-9.5 1776,-9.5"/>
<text text-anchor="middle" x="1807.5" y="-18.7" font-family="Source Sans Pro" font-size="16.00">cstdint</text>
</a>
</g>
</g>
<!-- Node1&#45;&gt;Node14 -->
<g id="edge89" class="edge">
<title>Node1&#45;&gt;Node14</title>
<path fill="none" stroke="midnightblue" d="M2691.73,-531.4C2702.84,-501.32 2717.5,-453.48 2717.5,-410.5 2717.5,-410.5 2717.5,-410.5 2717.5,-165.5 2717.5,-126.46 2723.87,-105.53 2693.5,-81 2627.35,-27.57 2017,-23.53 1849.72,-23.43"/>
<polygon fill="midnightblue" stroke="midnightblue" points="1849.35,-19.93 1839.35,-23.43 1849.35,-26.93 1849.35,-19.93"/>
</g>
<!-- Node37 -->
<g id="node37" class="node">
<title>Node37</title>
<g id="a_node37"><a xlink:title=" ">
<polygon fill="white" stroke="#bfbfbf" points="2746,-468.5 2746,-494.5 2859,-494.5 2859,-468.5 2746,-468.5"/>
<text text-anchor="middle" x="2802.5" y="-477.7" font-family="Source Sans Pro" font-size="16.00">VkBootstrap.h</text>
</a>
</g>
</g>
<!-- Node1&#45;&gt;Node37 -->
<g id="edge86" class="edge">
<title>Node1&#45;&gt;Node37</title>
<path fill="none" stroke="midnightblue" d="M2726.35,-531.41C2742.88,-520.79 2760.91,-509.21 2775.27,-499.99"/>
<polygon fill="midnightblue" stroke="midnightblue" points="2777.17,-502.93 2783.7,-494.58 2773.39,-497.04 2777.17,-502.93"/>
</g>
<!-- Node2&#45;&gt;Node3 -->
<g id="edge2" class="edge">
<title>Node2&#45;&gt;Node3</title>
<path fill="none" stroke="midnightblue" d="M2022.23,-477.18C1922.43,-472.09 1765.21,-459.83 1713.5,-432 1657.28,-401.74 1610.64,-360.13 1644.5,-306 1663.9,-274.99 1688.11,-290.35 1718.5,-270 1763.49,-239.87 1787.34,-238.4 1809.5,-189 1817.69,-170.75 1822.09,-159.54 1809.5,-144 1806.95,-140.85 1718.49,-122.69 1652.52,-109.51"/>
<polygon fill="midnightblue" stroke="midnightblue" points="1653.05,-106.05 1642.56,-107.52 1651.68,-112.91 1653.05,-106.05"/>
</g>
<!-- Node2&#45;&gt;Node4 -->
<g id="edge3" class="edge">
<title>Node2&#45;&gt;Node4</title>
<path fill="none" stroke="midnightblue" d="M2194.53,-480.16C2288.36,-477.91 2430.3,-468.36 2468.5,-432 2502.06,-400.06 2487.5,-375.83 2487.5,-329.5 2487.5,-329.5 2487.5,-329.5 2487.5,-165.5 2487.5,-129.77 2490.36,-121.58 2347.5,-81 2323.36,-74.14 1548.14,-34.84 1362.26,-25.49"/>
<polygon fill="midnightblue" stroke="midnightblue" points="1362.28,-21.99 1352.11,-24.98 1361.93,-28.98 1362.28,-21.99"/>
</g>
<!-- Node5 -->
<g id="node5" class="node">
<title>Node5</title>
<g id="a_node5"><a xlink:title=" ">
<polygon fill="white" stroke="#bfbfbf" points="2238.5,-396.5 2238.5,-422.5 2302.5,-422.5 2302.5,-396.5 2238.5,-396.5"/>
<text text-anchor="middle" x="2270.5" y="-405.7" font-family="Source Sans Pro" font-size="16.00">variant</text>
</a>
</g>
</g>
<!-- Node2&#45;&gt;Node5 -->
<g id="edge4" class="edge">
<title>Node2&#45;&gt;Node5</title>
<path fill="none" stroke="midnightblue" d="M2141.24,-468.42C2165.8,-459.1 2200.11,-445.55 2229.5,-432 2232.74,-430.51 2236.08,-428.89 2239.4,-427.23"/>
<polygon fill="midnightblue" stroke="midnightblue" points="2241.28,-430.2 2248.58,-422.52 2238.08,-423.97 2241.28,-430.2"/>
</g>
<!-- Node6 -->
<g id="node6" class="node">
<title>Node6</title>
<g id="a_node6"><a xlink:title=" ">
<polygon fill="white" stroke="#bfbfbf" points="2321,-396.5 2321,-422.5 2382,-422.5 2382,-396.5 2321,-396.5"/>
<text text-anchor="middle" x="2351.5" y="-405.7" font-family="Source Sans Pro" font-size="16.00">thread</text>
</a>
</g>
</g>
<!-- Node2&#45;&gt;Node6 -->
<g id="edge5" class="edge">
<title>Node2&#45;&gt;Node6</title>
<path fill="none" stroke="midnightblue" d="M2178.43,-468.44C2218.2,-460.44 2268.49,-448.38 2311.5,-432 2315.02,-430.66 2318.62,-429.07 2322.15,-427.37"/>
<polygon fill="midnightblue" stroke="midnightblue" points="2323.92,-430.39 2331.22,-422.71 2320.73,-424.17 2323.92,-430.39"/>
</g>
<!-- Node7 -->
<g id="node7" class="node">
<title>Node7</title>
<g id="a_node7"><a xlink:title=" ">
<polygon fill="white" stroke="#bfbfbf" points="2400,-396.5 2400,-422.5 2459,-422.5 2459,-396.5 2400,-396.5"/>
<text text-anchor="middle" x="2429.5" y="-405.7" font-family="Source Sans Pro" font-size="16.00">mutex</text>
</a>
</g>
</g>
<!-- Node2&#45;&gt;Node7 -->
<g id="edge6" class="edge">
<title>Node2&#45;&gt;Node7</title>
<path fill="none" stroke="midnightblue" d="M2194.66,-473.52C2251.76,-467.02 2327.64,-454.76 2391.5,-432 2395.07,-430.73 2398.69,-429.14 2402.2,-427.4"/>
<polygon fill="midnightblue" stroke="midnightblue" points="2404.03,-430.39 2411.17,-422.56 2400.71,-424.23 2404.03,-430.39"/>
</g>
<!-- Node8 -->
<g id="node8" class="node">
<title>Node8</title>
<g id="a_node8"><a xlink:href="_i_e_buffer_8hpp.html" target="_top" xlink:title=" ">
<polygon fill="white" stroke="black" points="1035,-234.5 1035,-260.5 1182,-260.5 1182,-234.5 1035,-234.5"/>
<text text-anchor="middle" x="1108.5" y="-243.7" font-family="Source Sans Pro" font-size="16.00">Buffer/IEBuffer.hpp</text>
</a>
</g>
</g>
<!-- Node2&#45;&gt;Node8 -->
<g id="edge7" class="edge">
<title>Node2&#45;&gt;Node8</title>
<path fill="none" stroke="midnightblue" d="M2022.26,-481.39C1901.6,-480.93 1676.22,-473.76 1489.5,-432 1390.26,-409.81 1366.8,-395.8 1275.5,-351 1223.3,-325.39 1166.35,-288.28 1134.27,-266.45"/>
<polygon fill="midnightblue" stroke="midnightblue" points="1136.14,-263.48 1125.91,-260.72 1132.18,-269.26 1136.14,-263.48"/>
</g>
<!-- Node18 -->
<g id="node18" class="node">
<title>Node18</title>
<g id="a_node18"><a xlink:href="_i_e_image_8hpp.html" target="_top" xlink:title=" ">
<polygon fill="white" stroke="black" points="1560,-234.5 1560,-260.5 1709,-260.5 1709,-234.5 1560,-234.5"/>
<text text-anchor="middle" x="1634.5" y="-243.7" font-family="Source Sans Pro" font-size="16.00">Image/IEImage.hpp</text>
</a>
</g>
</g>
<!-- Node2&#45;&gt;Node18 -->
<g id="edge25" class="edge">
<title>Node2&#45;&gt;Node18</title>
<path fill="none" stroke="midnightblue" d="M2022.43,-478.29C1887.22,-473.91 1637.59,-461.85 1610.5,-432 1569.48,-386.79 1602.58,-307.59 1622.36,-269.77"/>
<polygon fill="midnightblue" stroke="midnightblue" points="1625.6,-271.14 1627.29,-260.68 1619.45,-267.81 1625.6,-271.14"/>
</g>
<!-- Node20 -->
<g id="node20" class="node">
<title>Node20</title>
<g id="a_node20"><a xlink:href="_i_e_dependent_8hpp.html" target="_top" xlink:title=" ">
<polygon fill="white" stroke="black" points="2515.5,-153.5 2515.5,-179.5 2651.5,-179.5 2651.5,-153.5 2515.5,-153.5"/>
<text text-anchor="middle" x="2583.5" y="-162.7" font-family="Source Sans Pro" font-size="16.00">IEDependent.hpp</text>
</a>
</g>
</g>
<!-- Node2&#45;&gt;Node20 -->
<g id="edge36" class="edge">
<title>Node2&#45;&gt;Node20</title>
<path fill="none" stroke="midnightblue" d="M2194.79,-480.48C2296.21,-478.68 2456.41,-469.71 2501.5,-432 2575.89,-369.79 2583.96,-241.42 2584.04,-189.76"/>
<polygon fill="midnightblue" stroke="midnightblue" points="2587.54,-189.65 2583.95,-179.68 2580.54,-189.71 2587.54,-189.65"/>
</g>
<!-- Node21 -->
<g id="node21" class="node">
<title>Node21</title>
<g id="a_node21"><a xlink:href="_i_e_pipeline_8hpp.html" target="_top" xlink:title=" ">
<polygon fill="white" stroke="black" points="648.5,-306.5 648.5,-350.5 828.5,-350.5 828.5,-306.5 648.5,-306.5"/>
<text text-anchor="start" x="656.5" y="-333.7" font-family="Source Sans Pro" font-size="16.00">GraphicsModule/Shader</text>
<text text-anchor="middle" x="738.5" y="-315.7" font-family="Source Sans Pro" font-size="16.00">/IEPipeline.hpp</text>
</a>
</g>
</g>
<!-- Node2&#45;&gt;Node21 -->
<g id="edge39" class="edge">
<title>Node2&#45;&gt;Node21</title>
<path fill="none" stroke="midnightblue" d="M2022.45,-481.29C1856.42,-481.65 1480.68,-476.88 1168.5,-432 1044.89,-414.23 904.68,-377.63 818.92,-353.33"/>
<polygon fill="midnightblue" stroke="midnightblue" points="819.83,-349.95 809.25,-350.57 817.91,-356.68 819.83,-349.95"/>
</g>
<!-- Node31 -->
<g id="node31" class="node">
<title>Node31</title>
<g id="a_node31"><a xlink:href="_i_e_dependency_info_8hpp.html" target="_top" xlink:title=" ">
<polygon fill="white" stroke="black" points="1996.5,-387.5 1996.5,-431.5 2220.5,-431.5 2220.5,-387.5 1996.5,-387.5"/>
<text text-anchor="start" x="2004.5" y="-414.7" font-family="Source Sans Pro" font-size="16.00">CommandBuffer/Dependency</text>
<text text-anchor="middle" x="2108.5" y="-396.7" font-family="Source Sans Pro" font-size="16.00">Structs/IEDependencyInfo.hpp</text>
</a>
</g>
</g>
<!-- Node2&#45;&gt;Node31 -->
<g id="edge62" class="edge">
<title>Node2&#45;&gt;Node31</title>
<path fill="none" stroke="midnightblue" d="M2108.5,-468.31C2108.5,-460.96 2108.5,-451.25 2108.5,-441.88"/>
<polygon fill="midnightblue" stroke="midnightblue" points="2112,-441.6 2108.5,-431.6 2105,-441.6 2112,-441.6"/>
</g>
<!-- Node34 -->
<g id="node34" class="node">
<title>Node34</title>
<g id="a_node34"><a xlink:href="_i_e_copy_buffer_to_image_info_8hpp.html" target="_top" xlink:title=" ">
<polygon fill="white" stroke="black" points="1285,-306.5 1285,-350.5 1558,-350.5 1558,-306.5 1285,-306.5"/>
<text text-anchor="start" x="1293" y="-333.7" font-family="Source Sans Pro" font-size="16.00">CommandBuffer/Dependency</text>
<text text-anchor="middle" x="1421.5" y="-315.7" font-family="Source Sans Pro" font-size="16.00">Structs/IECopyBufferToImageInfo.hpp</text>
</a>
</g>
</g>
<!-- Node2&#45;&gt;Node34 -->
<g id="edge74" class="edge">
<title>Node2&#45;&gt;Node34</title>
<path fill="none" stroke="midnightblue" d="M2022.24,-477.94C1892.31,-473.2 1653.01,-460.78 1572.5,-432 1526.41,-415.53 1480.96,-381.61 1452.16,-357.3"/>
<polygon fill="midnightblue" stroke="midnightblue" points="1454.36,-354.58 1444.49,-350.72 1449.81,-359.89 1454.36,-354.58"/>
</g>
<!-- Node35 -->
<g id="node35" class="node">
<title>Node35</title>
<g id="a_node35"><a xlink:href="_i_e_render_pass_begin_info_8hpp.html" target="_top" xlink:title=" ">
<polygon fill="white" stroke="black" points="1722.5,-387.5 1722.5,-431.5 1978.5,-431.5 1978.5,-387.5 1722.5,-387.5"/>
<text text-anchor="start" x="1730.5" y="-414.7" font-family="Source Sans Pro" font-size="16.00">CommandBuffer/Dependency</text>
<text text-anchor="middle" x="1850.5" y="-396.7" font-family="Source Sans Pro" font-size="16.00">Structs/IERenderPassBeginInfo.hpp</text>
</a>
</g>
</g>
<!-- Node2&#45;&gt;Node35 -->
<g id="edge79" class="edge">
<title>Node2&#45;&gt;Node35</title>
<path fill="none" stroke="midnightblue" d="M2064.15,-468.47C2029.53,-459.07 1980.35,-445.73 1937.9,-434.21"/>
<polygon fill="midnightblue" stroke="midnightblue" points="1938.68,-430.8 1928.11,-431.56 1936.85,-437.55 1938.68,-430.8"/>
</g>
<!-- Node8&#45;&gt;Node3 -->
<g id="edge21" class="edge">
<title>Node8&#45;&gt;Node3</title>
<path fill="none" stroke="midnightblue" d="M1106.61,-234.23C1104.02,-212.51 1102.27,-167.36 1127.5,-144 1154.84,-118.68 1386.92,-104.39 1508.24,-98.59"/>
<polygon fill="midnightblue" stroke="midnightblue" points="1508.74,-102.07 1518.56,-98.1 1508.41,-95.08 1508.74,-102.07"/>
</g>
<!-- Node8&#45;&gt;Node4 -->
<g id="edge22" class="edge">
<title>Node8&#45;&gt;Node4</title>
<path fill="none" stroke="midnightblue" d="M1034.99,-238.63C1003.24,-231.17 968.97,-216.75 949.5,-189 938.01,-172.63 937.73,-160.17 949.5,-144 952.06,-140.49 1188.02,-65.86 1283.28,-35.84"/>
<polygon fill="midnightblue" stroke="midnightblue" points="1284.36,-39.17 1292.85,-32.83 1282.26,-32.49 1284.36,-39.17"/>
</g>
<!-- Node9 -->
<g id="node9" class="node">
<title>Node9</title>
<g id="a_node9"><a xlink:href="_i_e_dependency_8hpp.html" target="_top" xlink:title=" ">
<polygon fill="white" stroke="black" points="1323,-144.5 1323,-188.5 1568,-188.5 1568,-144.5 1323,-144.5"/>
<text text-anchor="start" x="1331" y="-171.7" font-family="Source Sans Pro" font-size="16.00">GraphicsModule/CommandBuffer</text>
<text text-anchor="middle" x="1445.5" y="-153.7" font-family="Source Sans Pro" font-size="16.00">/IEDependency.hpp</text>
</a>
</g>
</g>
<!-- Node8&#45;&gt;Node9 -->
<g id="edge8" class="edge">
<title>Node8&#45;&gt;Node9</title>
<path fill="none" stroke="midnightblue" d="M1160.05,-234.42C1209.22,-222.89 1284.6,-205.22 1345.55,-190.93"/>
<polygon fill="midnightblue" stroke="midnightblue" points="1346.65,-194.27 1355.59,-188.58 1345.05,-187.45 1346.65,-194.27"/>
</g>
<!-- Node12 -->
<g id="node12" class="node">
<title>Node12</title>
<g id="a_node12"><a xlink:href="_i_e_a_p_i_8hpp.html" target="_top" xlink:title=" ">
<polygon fill="white" stroke="black" points="819,-153.5 819,-179.5 902,-179.5 902,-153.5 819,-153.5"/>
<text text-anchor="middle" x="860.5" y="-162.7" font-family="Source Sans Pro" font-size="16.00">IEAPI.hpp</text>
</a>
</g>
</g>
<!-- Node8&#45;&gt;Node12 -->
<g id="edge13" class="edge">
<title>Node8&#45;&gt;Node12</title>
<path fill="none" stroke="midnightblue" d="M1064.74,-234.41C1025.63,-223.37 966.89,-206.19 916.5,-189 911.2,-187.19 905.66,-185.2 900.21,-183.17"/>
<polygon fill="midnightblue" stroke="midnightblue" points="901.16,-179.79 890.57,-179.53 898.69,-186.34 901.16,-179.79"/>
</g>
<!-- Node8&#45;&gt;Node14 -->
<g id="edge23" class="edge">
<title>Node8&#45;&gt;Node14</title>
<path fill="none" stroke="midnightblue" d="M1103.19,-234.4C1094.86,-213.34 1081.79,-169.74 1103.5,-144 1189.4,-42.15 1627.18,-26.38 1765.53,-23.94"/>
<polygon fill="midnightblue" stroke="midnightblue" points="1765.78,-27.44 1775.73,-23.78 1765.67,-20.44 1765.78,-27.44"/>
</g>
<!-- Node15 -->
<g id="node15" class="node">
<title>Node15</title>
<g id="a_node15"><a xlink:title=" ">
<polygon fill="white" stroke="#bfbfbf" points="1137,-153.5 1137,-179.5 1266,-179.5 1266,-153.5 1137,-153.5"/>
<text text-anchor="middle" x="1201.5" y="-162.7" font-family="Source Sans Pro" font-size="16.00">vk_mem_alloc.h</text>
</a>
</g>
</g>
<!-- Node8&#45;&gt;Node15 -->
<g id="edge19" class="edge">
<title>Node8&#45;&gt;Node15</title>
<path fill="none" stroke="midnightblue" d="M1123.03,-234.16C1138.05,-221.4 1161.68,-201.33 1179.09,-186.54"/>
<polygon fill="midnightblue" stroke="midnightblue" points="1181.72,-188.9 1187.07,-179.76 1177.18,-183.56 1181.72,-188.9"/>
</g>
<!-- Node16 -->
<g id="node16" class="node">
<title>Node16</title>
<g id="a_node16"><a xlink:title=" ">
<polygon fill="white" stroke="#bfbfbf" points="959,-153.5 959,-179.5 1042,-179.5 1042,-153.5 959,-153.5"/>
<text text-anchor="middle" x="1000.5" y="-162.7" font-family="Source Sans Pro" font-size="16.00">GL/glew.h</text>
</a>
</g>
</g>
<!-- Node8&#45;&gt;Node16 -->
<g id="edge20" class="edge">
<title>Node8&#45;&gt;Node16</title>
<path fill="none" stroke="midnightblue" d="M1091.62,-234.16C1073.87,-221.17 1045.74,-200.59 1025.43,-185.74"/>
<polygon fill="midnightblue" stroke="midnightblue" points="1027.39,-182.84 1017.26,-179.76 1023.26,-188.49 1027.39,-182.84"/>
</g>
<!-- Node17 -->
<g id="node17" class="node">
<title>Node17</title>
<g id="a_node17"><a xlink:title=" ">
<polygon fill="white" stroke="#bfbfbf" points="714.5,-153.5 714.5,-179.5 800.5,-179.5 800.5,-153.5 714.5,-153.5"/>
<text text-anchor="middle" x="757.5" y="-162.7" font-family="Source Sans Pro" font-size="16.00">functional</text>
</a>
</g>
</g>
<!-- Node8&#45;&gt;Node17 -->
<g id="edge24" class="edge">
<title>Node8&#45;&gt;Node17</title>
<path fill="none" stroke="midnightblue" d="M1034.7,-236.56C973.56,-227.32 884.82,-211.56 809.5,-189 804.18,-187.41 798.65,-185.46 793.28,-183.39"/>
<polygon fill="midnightblue" stroke="midnightblue" points="794.43,-180.08 783.85,-179.6 791.82,-186.58 794.43,-180.08"/>
</g>
<!-- Node9&#45;&gt;Node3 -->
<g id="edge10" class="edge">
<title>Node9&#45;&gt;Node3</title>
<path fill="none" stroke="midnightblue" d="M1486.3,-144.5C1506.38,-134.16 1530.25,-121.88 1549.07,-112.19"/>
<polygon fill="midnightblue" stroke="midnightblue" points="1550.84,-115.22 1558.13,-107.53 1547.63,-109 1550.84,-115.22"/>
</g>
<!-- Node9&#45;&gt;Node4 -->
<g id="edge9" class="edge">
<title>Node9&#45;&gt;Node4</title>
<path fill="none" stroke="midnightblue" d="M1427.09,-144.24C1403.5,-117.01 1362.93,-70.17 1339.86,-43.54"/>
<polygon fill="midnightblue" stroke="midnightblue" points="1342.23,-40.93 1333.03,-35.66 1336.93,-45.51 1342.23,-40.93"/>
</g>
<!-- Node10 -->
<g id="node10" class="node">
<title>Node10</title>
<g id="a_node10"><a xlink:title=" ">
<polygon fill="white" stroke="#bfbfbf" points="785,-9.5 785,-35.5 840,-35.5 840,-9.5 785,-9.5"/>
<text text-anchor="middle" x="812.5" y="-18.7" font-family="Source Sans Pro" font-size="16.00">string</text>
</a>
</g>
</g>
<!-- Node9&#45;&gt;Node10 -->
<g id="edge11" class="edge">
<title>Node9&#45;&gt;Node10</title>
<path fill="none" stroke="midnightblue" d="M1322.69,-145.85C1317.9,-145.2 1313.16,-144.58 1308.5,-144 1139.3,-122.77 1085.74,-169.02 926.5,-108 906.69,-100.41 861.96,-64.8 834.79,-42.3"/>
<polygon fill="midnightblue" stroke="midnightblue" points="836.89,-39.5 826.97,-35.78 832.41,-44.87 836.89,-39.5"/>
</g>
<!-- Node11 -->
<g id="node11" class="node">
<title>Node11</title>
<g id="a_node11"><a xlink:title=" ">
<polygon fill="white" stroke="#bfbfbf" points="2206.5,-81.5 2206.5,-107.5 2280.5,-107.5 2280.5,-81.5 2206.5,-81.5"/>
<text text-anchor="middle" x="2243.5" y="-90.7" font-family="Source Sans Pro" font-size="16.00">memory</text>
</a>
</g>
</g>
<!-- Node9&#45;&gt;Node11 -->
<g id="edge12" class="edge">
<title>Node9&#45;&gt;Node11</title>
<path fill="none" stroke="midnightblue" d="M1568,-154.75C1747.58,-139 2074.16,-110.35 2195.99,-99.67"/>
<polygon fill="midnightblue" stroke="midnightblue" points="2196.46,-103.14 2206.12,-98.78 2195.85,-96.17 2196.46,-103.14"/>
</g>
<!-- Node12&#45;&gt;Node10 -->
<g id="edge18" class="edge">
<title>Node12&#45;&gt;Node10</title>
<path fill="none" stroke="midnightblue" d="M856.41,-153.39C848.3,-129.39 830.08,-75.5 819.84,-45.22"/>
<polygon fill="midnightblue" stroke="midnightblue" points="823.1,-43.93 816.58,-35.58 816.47,-46.17 823.1,-43.93"/>
</g>
<!-- Node13 -->
<g id="node13" class="node">
<title>Node13</title>
<g id="a_node13"><a xlink:href="_i_e_version_8hpp.html" target="_top" xlink:title=" ">
<polygon fill="white" stroke="black" points="935.5,-81.5 935.5,-107.5 1045.5,-107.5 1045.5,-81.5 935.5,-81.5"/>
<text text-anchor="middle" x="990.5" y="-90.7" font-family="Source Sans Pro" font-size="16.00">IEVersion.hpp</text>
</a>
</g>
</g>
<!-- Node12&#45;&gt;Node13 -->
<g id="edge14" class="edge">
<title>Node12&#45;&gt;Node13</title>
<path fill="none" stroke="midnightblue" d="M882.85,-153.47C903.87,-142.15 935.55,-125.09 959.1,-112.41"/>
<polygon fill="midnightblue" stroke="midnightblue" points="960.86,-115.43 968.01,-107.61 957.54,-109.27 960.86,-115.43"/>
</g>
<!-- Node13&#45;&gt;Node4 -->
<g id="edge17" class="edge">
<title>Node13&#45;&gt;Node4</title>
<path fill="none" stroke="midnightblue" d="M1045.7,-81.86C1112.66,-67.74 1223.91,-44.29 1282.92,-31.85"/>
<polygon fill="midnightblue" stroke="midnightblue" points="1283.9,-35.22 1292.96,-29.73 1282.45,-28.37 1283.9,-35.22"/>
</g>
<!-- Node13&#45;&gt;Node10 -->
<g id="edge16" class="edge">
<title>Node13&#45;&gt;Node10</title>
<path fill="none" stroke="midnightblue" d="M959.9,-81.47C929.36,-69.46 882.4,-50.99 849.72,-38.14"/>
<polygon fill="midnightblue" stroke="midnightblue" points="850.66,-34.75 840.07,-34.34 848.1,-41.26 850.66,-34.75"/>
</g>
<!-- Node13&#45;&gt;Node14 -->
<g id="edge15" class="edge">
<title>Node13&#45;&gt;Node14</title>
<path fill="none" stroke="midnightblue" d="M1045.58,-88.74C1072.67,-86.41 1105.79,-83.55 1135.5,-81 1373.77,-60.54 1659.57,-36.13 1765.41,-27.09"/>
<polygon fill="midnightblue" stroke="midnightblue" points="1766,-30.55 1775.67,-26.22 1765.41,-23.58 1766,-30.55"/>
</g>
<!-- Node18&#45;&gt;Node3 -->
<g id="edge30" class="edge">
<title>Node18&#45;&gt;Node3</title>
<path fill="none" stroke="midnightblue" d="M1632.91,-234.45C1630.07,-214.91 1623.18,-175.34 1610.5,-144 1606.65,-134.48 1601.1,-124.65 1595.89,-116.34"/>
<polygon fill="midnightblue" stroke="midnightblue" points="1598.65,-114.17 1590.25,-107.71 1592.79,-117.99 1598.65,-114.17"/>
</g>
<!-- Node18&#45;&gt;Node4 -->
<g id="edge34" class="edge">
<title>Node18&#45;&gt;Node4</title>
<path fill="none" stroke="midnightblue" d="M1641.23,-234.38C1656.86,-204.44 1691.48,-126.15 1653.5,-81 1616.67,-37.22 1441.88,-26.77 1362.23,-24.28"/>
<polygon fill="midnightblue" stroke="midnightblue" points="1362.19,-20.78 1352.09,-23.99 1361.99,-27.77 1362.19,-20.78"/>
</g>
<!-- Node18&#45;&gt;Node9 -->
<g id="edge26" class="edge">
<title>Node18&#45;&gt;Node9</title>
<path fill="none" stroke="midnightblue" d="M1605.38,-234.33C1578.79,-223.21 1538.64,-206.43 1505.23,-192.47"/>
<polygon fill="midnightblue" stroke="midnightblue" points="1506.58,-189.24 1496,-188.61 1503.88,-195.69 1506.58,-189.24"/>
</g>
<!-- Node18&#45;&gt;Node10 -->
<g id="edge33" class="edge">
<title>Node18&#45;&gt;Node10</title>
<path fill="none" stroke="midnightblue" d="M1559.98,-238.96C1478.68,-229.72 1354.6,-212.37 1313.5,-189 1290.49,-175.92 1298.04,-156.09 1274.5,-144 1119.25,-64.3 1038.14,-188.88 883.5,-108 869.26,-100.55 843.2,-66.59 826.92,-44.05"/>
<polygon fill="midnightblue" stroke="midnightblue" points="829.67,-41.87 821.01,-35.77 823.97,-45.94 829.67,-41.87"/>
</g>
<!-- Node18&#45;&gt;Node12 -->
<g id="edge27" class="edge">
<title>Node18&#45;&gt;Node12</title>
<path fill="none" stroke="midnightblue" d="M1559.8,-243.98C1433.41,-238.87 1169.66,-224.62 949.5,-189 937.36,-187.04 924.44,-184.3 912.3,-181.43"/>
<polygon fill="midnightblue" stroke="midnightblue" points="912.88,-177.97 902.34,-179.01 911.23,-184.77 912.88,-177.97"/>
</g>
<!-- Node18&#45;&gt;Node14 -->
<g id="edge32" class="edge">
<title>Node18&#45;&gt;Node14</title>
<path fill="none" stroke="midnightblue" d="M1709.34,-241.71C1745.8,-235.14 1786.62,-220.6 1809.5,-189 1840.37,-146.37 1826.04,-80.01 1815.39,-45.71"/>
<polygon fill="midnightblue" stroke="midnightblue" points="1818.57,-44.18 1812.12,-35.77 1811.92,-46.36 1818.57,-44.18"/>
</g>
<!-- Node18&#45;&gt;Node15 -->
<g id="edge29" class="edge">
<title>Node18&#45;&gt;Node15</title>
<path fill="none" stroke="midnightblue" d="M1559.83,-236.69C1487.89,-226.69 1376.19,-209.73 1280.5,-189 1271.42,-187.03 1261.83,-184.67 1252.58,-182.24"/>
<polygon fill="midnightblue" stroke="midnightblue" points="1253.28,-178.8 1242.71,-179.59 1251.46,-185.56 1253.28,-178.8"/>
</g>
<!-- Node18&#45;&gt;Node16 -->
<g id="edge28" class="edge">
<title>Node18&#45;&gt;Node16</title>
<path fill="none" stroke="midnightblue" d="M1559.6,-239.3C1460.53,-229.48 1280.56,-210.62 1127.5,-189 1102.62,-185.49 1075.11,-180.91 1052.08,-176.89"/>
<polygon fill="midnightblue" stroke="midnightblue" points="1052.62,-173.43 1042.17,-175.15 1051.41,-180.33 1052.62,-173.43"/>
</g>
<!-- Node18&#45;&gt;Node17 -->
<g id="edge35" class="edge">
<title>Node18&#45;&gt;Node17</title>
<path fill="none" stroke="midnightblue" d="M1559.93,-242.68C1370.63,-232.78 881.39,-205.9 809.5,-189 803.59,-187.61 797.49,-185.63 791.63,-183.43"/>
<polygon fill="midnightblue" stroke="midnightblue" points="792.67,-180.07 782.09,-179.57 790.05,-186.56 792.67,-180.07"/>
</g>
<!-- Node19 -->
<g id="node19" class="node">
<title>Node19</title>
<g id="a_node19"><a xlink:title=" ">
<polygon fill="white" stroke="#bfbfbf" points="1700.5,-153.5 1700.5,-179.5 1800.5,-179.5 1800.5,-153.5 1700.5,-153.5"/>
<text text-anchor="middle" x="1750.5" y="-162.7" font-family="Source Sans Pro" font-size="16.00">stb_image.h</text>
</a>
</g>
</g>
<!-- Node18&#45;&gt;Node19 -->
<g id="edge31" class="edge">
<title>Node18&#45;&gt;Node19</title>
<path fill="none" stroke="midnightblue" d="M1652.37,-234.33C1671.59,-221.24 1702.33,-200.31 1724.28,-185.36"/>
<polygon fill="midnightblue" stroke="midnightblue" points="1726.5,-188.08 1732.8,-179.55 1722.56,-182.29 1726.5,-188.08"/>
</g>
<!-- Node20&#45;&gt;Node4 -->
<g id="edge37" class="edge">
<title>Node20&#45;&gt;Node4</title>
<path fill="none" stroke="midnightblue" d="M2576.03,-153.2C2563.44,-133.77 2535.96,-96.58 2501.5,-81 2500.67,-80.62 1567.85,-35.39 1362.27,-25.43"/>
<polygon fill="midnightblue" stroke="midnightblue" points="1362.37,-21.93 1352.21,-24.94 1362.03,-28.92 1362.37,-21.93"/>
</g>
<!-- Node20&#45;&gt;Node11 -->
<g id="edge38" class="edge">
<title>Node20&#45;&gt;Node11</title>
<path fill="none" stroke="midnightblue" d="M2525.05,-153.47C2458.82,-139.83 2352.15,-117.87 2290.89,-105.26"/>
<polygon fill="midnightblue" stroke="midnightblue" points="2291.23,-101.75 2280.72,-103.16 2289.81,-108.61 2291.23,-101.75"/>
</g>
<!-- Node21&#45;&gt;Node3 -->
<g id="edge59" class="edge">
<title>Node21&#45;&gt;Node3</title>
<path fill="none" stroke="midnightblue" d="M730.56,-306.44C714.94,-263.34 683.59,-167.16 705.5,-144 732.94,-115 1303.27,-100.97 1508.62,-96.84"/>
<polygon fill="midnightblue" stroke="midnightblue" points="1508.78,-100.34 1518.71,-96.64 1508.64,-93.34 1508.78,-100.34"/>
</g>
<!-- Node21&#45;&gt;Node4 -->
<g id="edge61" class="edge">
<title>Node21&#45;&gt;Node4</title>
<path fill="none" stroke="midnightblue" d="M648.42,-311.33C491,-279.5 192.92,-201.19 306.5,-81 315.05,-71.96 1096,-34.27 1282.73,-25.38"/>
<polygon fill="midnightblue" stroke="midnightblue" points="1283.1,-28.87 1292.92,-24.9 1282.76,-21.88 1283.1,-28.87"/>
</g>
<!-- Node21&#45;&gt;Node9 -->
<g id="edge58" class="edge">
<title>Node21&#45;&gt;Node9</title>
<path fill="none" stroke="midnightblue" d="M828.54,-322.83C920.7,-316.48 1067.43,-302 1190.5,-270 1263.32,-251.07 1343.18,-216.57 1393.78,-192.86"/>
<polygon fill="midnightblue" stroke="midnightblue" points="1395.33,-196 1402.88,-188.57 1392.34,-189.67 1395.33,-196"/>
</g>
<!-- Node21&#45;&gt;Node17 -->
<g id="edge60" class="edge">
<title>Node21&#45;&gt;Node17</title>
<path fill="none" stroke="midnightblue" d="M741.02,-306.25C744.62,-275.97 751.19,-220.65 754.85,-189.8"/>
<polygon fill="midnightblue" stroke="midnightblue" points="758.36,-189.98 756.06,-179.63 751.4,-189.15 758.36,-189.98"/>
</g>
<!-- Node22 -->
<g id="node22" class="node">
<title>Node22</title>
<g id="a_node22"><a xlink:href="_i_e_shader_8hpp.html" target="_top" xlink:title=" ">
<polygon fill="white" stroke="black" points="511.5,-225.5 511.5,-269.5 691.5,-269.5 691.5,-225.5 511.5,-225.5"/>
<text text-anchor="start" x="519.5" y="-252.7" font-family="Source Sans Pro" font-size="16.00">GraphicsModule/Shader</text>
<text text-anchor="middle" x="601.5" y="-234.7" font-family="Source Sans Pro" font-size="16.00">/IEShader.hpp</text>
</a>
</g>
</g>
<!-- Node21&#45;&gt;Node22 -->
<g id="edge40" class="edge">
<title>Node21&#45;&gt;Node22</title>
<path fill="none" stroke="midnightblue" d="M701.79,-306.33C685.05,-296.68 665.06,-285.15 647.34,-274.93"/>
<polygon fill="midnightblue" stroke="midnightblue" points="648.73,-271.69 638.31,-269.73 645.23,-277.76 648.73,-271.69"/>
</g>
<!-- Node22&#45;&gt;Node3 -->
<g id="edge42" class="edge">
<title>Node22&#45;&gt;Node3</title>
<path fill="none" stroke="midnightblue" d="M609.46,-225.21C619.85,-200.79 640.56,-161.83 672.5,-144 708.78,-123.75 1299.01,-104.04 1508.48,-97.65"/>
<polygon fill="midnightblue" stroke="midnightblue" points="1508.87,-101.14 1518.76,-97.33 1508.66,-94.14 1508.87,-101.14"/>
</g>
<!-- Node22&#45;&gt;Node4 -->
<g id="edge44" class="edge">
<title>Node22&#45;&gt;Node4</title>
<path fill="none" stroke="midnightblue" d="M600.03,-225.28C599.66,-202.04 602.93,-165.25 624.5,-144 636.71,-131.97 909.62,-83.98 926.5,-81 1056.26,-58.07 1211.12,-37.55 1282.66,-28.46"/>
<polygon fill="midnightblue" stroke="midnightblue" points="1283.11,-31.93 1292.59,-27.2 1282.23,-24.99 1283.11,-31.93"/>
</g>
<!-- Node22&#45;&gt;Node10 -->
<g id="edge43" class="edge">
<title>Node22&#45;&gt;Node10</title>
<path fill="none" stroke="midnightblue" d="M580.63,-225.2C561.68,-203.21 539.39,-168.74 558.5,-144 597.25,-93.84 639.22,-135.13 696.5,-108 732.84,-90.79 769.46,-61.7 791.57,-42.54"/>
<polygon fill="midnightblue" stroke="midnightblue" points="794.11,-44.97 799.3,-35.73 789.48,-39.72 794.11,-44.97"/>
</g>
<!-- Node22&#45;&gt;Node12 -->
<g id="edge41" class="edge">
<title>Node22&#45;&gt;Node12</title>
<path fill="none" stroke="midnightblue" d="M687.27,-225.46C725.09,-215.5 769.86,-202.77 809.5,-189 814.37,-187.31 819.43,-185.38 824.4,-183.4"/>
<polygon fill="midnightblue" stroke="midnightblue" points="825.84,-186.59 833.76,-179.54 823.18,-180.11 825.84,-186.59"/>
</g>
<!-- Node22&#45;&gt;Node16 -->
<g id="edge57" class="edge">
<title>Node22&#45;&gt;Node16</title>
<path fill="none" stroke="midnightblue" d="M691.65,-230.96C753.41,-220.02 837.11,-204.58 910.5,-189 923.02,-186.34 936.47,-183.25 949.06,-180.26"/>
<polygon fill="midnightblue" stroke="midnightblue" points="950.02,-183.63 958.93,-177.89 948.39,-176.82 950.02,-183.63"/>
</g>
<!-- Node22&#45;&gt;Node17 -->
<g id="edge45" class="edge">
<title>Node22&#45;&gt;Node17</title>
<path fill="none" stroke="midnightblue" d="M643.31,-225.33C668.8,-212.42 700.93,-196.15 724.6,-184.16"/>
<polygon fill="midnightblue" stroke="midnightblue" points="726.21,-187.27 733.55,-179.63 723.05,-181.02 726.21,-187.27"/>
</g>
<!-- Node23 -->
<g id="node23" class="node">
<title>Node23</title>
<g id="a_node23"><a xlink:href="_i_e_file_8hpp.html" target="_top" xlink:title=" ">
<polygon fill="white" stroke="black" points="330,-144.5 330,-188.5 507,-188.5 507,-144.5 330,-144.5"/>
<text text-anchor="start" x="338" y="-171.7" font-family="Source Sans Pro" font-size="16.00">Core/FileSystemModule</text>
<text text-anchor="middle" x="418.5" y="-153.7" font-family="Source Sans Pro" font-size="16.00">/IEFile.hpp</text>
</a>
</g>
</g>
<!-- Node22&#45;&gt;Node23 -->
<g id="edge46" class="edge">
<title>Node22&#45;&gt;Node23</title>
<path fill="none" stroke="midnightblue" d="M552.46,-225.33C529.19,-215.28 501.2,-203.2 476.85,-192.69"/>
<polygon fill="midnightblue" stroke="midnightblue" points="477.93,-189.34 467.36,-188.59 475.15,-195.77 477.93,-189.34"/>
</g>
<!-- Node23&#45;&gt;Node4 -->
<g id="edge51" class="edge">
<title>Node23&#45;&gt;Node4</title>
<path fill="none" stroke="midnightblue" d="M507.15,-147.53C561.79,-136.36 633.26,-121.6 696.5,-108 750.37,-96.42 763.16,-90.13 817.5,-81 989.58,-52.09 1197.15,-33.53 1282.69,-26.59"/>
<polygon fill="midnightblue" stroke="midnightblue" points="1283.06,-30.07 1292.75,-25.78 1282.5,-23.09 1283.06,-30.07"/>
</g>
<!-- Node23&#45;&gt;Node10 -->
<g id="edge52" class="edge">
<title>Node23&#45;&gt;Node10</title>
<path fill="none" stroke="midnightblue" d="M507.07,-145.93C570.08,-131.76 646.04,-114.06 660.5,-108 681.31,-99.28 683.95,-92.27 703.5,-81 728.53,-66.57 757.47,-51.37 779.25,-40.22"/>
<polygon fill="midnightblue" stroke="midnightblue" points="781.08,-43.21 788.4,-35.55 777.9,-36.97 781.08,-43.21"/>
</g>
<!-- Node24 -->
<g id="node24" class="node">
<title>Node24</title>
<g id="a_node24"><a xlink:href="_i_e_logger_8hpp.html" target="_top" xlink:title=" ">
<polygon fill="white" stroke="black" points="36,-81.5 36,-107.5 259,-107.5 259,-81.5 36,-81.5"/>
<text text-anchor="middle" x="147.5" y="-90.7" font-family="Source Sans Pro" font-size="16.00">Core/LogModule/IELogger.hpp</text>
</a>
</g>
</g>
<!-- Node23&#45;&gt;Node24 -->
<g id="edge47" class="edge">
<title>Node23&#45;&gt;Node24</title>
<path fill="none" stroke="midnightblue" d="M337.19,-144.5C294.26,-133.41 242.63,-120.07 204.08,-110.12"/>
<polygon fill="midnightblue" stroke="midnightblue" points="204.63,-106.64 194.08,-107.53 202.88,-113.42 204.63,-106.64"/>
</g>
<!-- Node27 -->
<g id="node27" class="node">
<title>Node27</title>
<g id="a_node27"><a xlink:title=" ">
<polygon fill="white" stroke="#bfbfbf" points="480,-81.5 480,-107.5 565,-107.5 565,-81.5 480,-81.5"/>
<text text-anchor="middle" x="522.5" y="-90.7" font-family="Source Sans Pro" font-size="16.00">filesystem</text>
</a>
</g>
</g>
<!-- Node23&#45;&gt;Node27 -->
<g id="edge53" class="edge">
<title>Node23&#45;&gt;Node27</title>
<path fill="none" stroke="midnightblue" d="M449.7,-144.5C464.57,-134.49 482.15,-122.66 496.31,-113.13"/>
<polygon fill="midnightblue" stroke="midnightblue" points="498.28,-116.02 504.63,-107.53 494.38,-110.21 498.28,-116.02"/>
</g>
<!-- Node28 -->
<g id="node28" class="node">
<title>Node28</title>
<g id="a_node28"><a xlink:title=" ">
<polygon fill="white" stroke="#bfbfbf" points="583.5,-81.5 583.5,-107.5 651.5,-107.5 651.5,-81.5 583.5,-81.5"/>
<text text-anchor="middle" x="617.5" y="-90.7" font-family="Source Sans Pro" font-size="16.00">fstream</text>
</a>
</g>
</g>
<!-- Node23&#45;&gt;Node28 -->
<g id="edge54" class="edge">
<title>Node23&#45;&gt;Node28</title>
<path fill="none" stroke="midnightblue" d="M478.21,-144.5C508.93,-133.69 545.71,-120.75 573.76,-110.88"/>
<polygon fill="midnightblue" stroke="midnightblue" points="575.03,-114.15 583.3,-107.53 572.7,-107.55 575.03,-114.15"/>
</g>
<!-- Node29 -->
<g id="node29" class="node">
<title>Node29</title>
<g id="a_node29"><a xlink:title=" ">
<polygon fill="white" stroke="#bfbfbf" points="315.5,-81.5 315.5,-107.5 367.5,-107.5 367.5,-81.5 315.5,-81.5"/>
<text text-anchor="middle" x="341.5" y="-90.7" font-family="Source Sans Pro" font-size="16.00">regex</text>
</a>
</g>
</g>
<!-- Node23&#45;&gt;Node29 -->
<g id="edge55" class="edge">
<title>Node23&#45;&gt;Node29</title>
<path fill="none" stroke="midnightblue" d="M395.4,-144.5C384.91,-134.96 372.6,-123.77 362.39,-114.49"/>
<polygon fill="midnightblue" stroke="midnightblue" points="364.49,-111.67 354.73,-107.53 359.78,-116.85 364.49,-111.67"/>
</g>
<!-- Node30 -->
<g id="node30" class="node">
<title>Node30</title>
<g id="a_node30"><a xlink:title=" ">
<polygon fill="white" stroke="#bfbfbf" points="385.5,-81.5 385.5,-107.5 461.5,-107.5 461.5,-81.5 385.5,-81.5"/>
<text text-anchor="middle" x="423.5" y="-90.7" font-family="Source Sans Pro" font-size="16.00">iostream</text>
</a>
</g>
</g>
<!-- Node23&#45;&gt;Node30 -->
<g id="edge56" class="edge">
<title>Node23&#45;&gt;Node30</title>
<path fill="none" stroke="midnightblue" d="M420,-144.5C420.61,-136 421.31,-126.19 421.92,-117.59"/>
<polygon fill="midnightblue" stroke="midnightblue" points="425.42,-117.75 422.64,-107.53 418.44,-117.26 425.42,-117.75"/>
</g>
<!-- Node24&#45;&gt;Node10 -->
<g id="edge50" class="edge">
<title>Node24&#45;&gt;Node10</title>
<path fill="none" stroke="midnightblue" d="M259.18,-81.74C411.6,-65.7 676.99,-37.76 774.86,-27.46"/>
<polygon fill="midnightblue" stroke="midnightblue" points="775.3,-30.94 784.87,-26.41 774.56,-23.97 775.3,-30.94"/>
</g>
<!-- Node25 -->
<g id="node25" class="node">
<title>Node25</title>
<g id="a_node25"><a xlink:title=" ">
<polygon fill="white" stroke="#bfbfbf" points="161,-9.5 161,-35.5 288,-35.5 288,-9.5 161,-9.5"/>
<text text-anchor="middle" x="224.5" y="-18.7" font-family="Source Sans Pro" font-size="16.00">spdlog/spdlog.h</text>
</a>
</g>
</g>
<!-- Node24&#45;&gt;Node25 -->
<g id="edge48" class="edge">
<title>Node24&#45;&gt;Node25</title>
<path fill="none" stroke="midnightblue" d="M160.91,-81.31C172.73,-70.57 190.12,-54.75 203.74,-42.38"/>
<polygon fill="midnightblue" stroke="midnightblue" points="206.2,-44.87 211.24,-35.55 201.49,-39.69 206.2,-44.87"/>
</g>
<!-- Node26 -->
<g id="node26" class="node">
<title>Node26</title>
<g id="a_node26"><a xlink:title=" ">
<polygon fill="white" stroke="#bfbfbf" points="0,-0.5 0,-44.5 143,-44.5 143,-0.5 0,-0.5"/>
<text text-anchor="start" x="8" y="-27.7" font-family="Source Sans Pro" font-size="16.00">spdlog/sinks/basic</text>
<text text-anchor="middle" x="71.5" y="-9.7" font-family="Source Sans Pro" font-size="16.00">_file_sink.h</text>
</a>
</g>
</g>
<!-- Node24&#45;&gt;Node26 -->
<g id="edge49" class="edge">
<title>Node24&#45;&gt;Node26</title>
<path fill="none" stroke="midnightblue" d="M134.26,-81.31C125.35,-73.1 113.21,-61.92 101.99,-51.58"/>
<polygon fill="midnightblue" stroke="midnightblue" points="104.14,-48.8 94.41,-44.6 99.4,-53.95 104.14,-48.8"/>
</g>
<!-- Node31&#45;&gt;Node3 -->
<g id="edge65" class="edge">
<title>Node31&#45;&gt;Node3</title>
<path fill="none" stroke="midnightblue" d="M2109.93,-387.48C2110.47,-365.73 2108.62,-331.44 2094.5,-306 2039.82,-207.48 2002.27,-190.18 1899.5,-144 1820.68,-108.59 1720.98,-98.26 1654.42,-95.64"/>
<polygon fill="midnightblue" stroke="midnightblue" points="1654.15,-92.13 1644.04,-95.28 1653.91,-99.12 1654.15,-92.13"/>
</g>
<!-- Node31&#45;&gt;Node4 -->
<g id="edge63" class="edge">
<title>Node31&#45;&gt;Node4</title>
<path fill="none" stroke="midnightblue" d="M2220.53,-388.19C2307.46,-372.32 2413.58,-352.68 2415.5,-351 2451.65,-319.43 2449.5,-296.5 2449.5,-248.5 2449.5,-248.5 2449.5,-248.5 2449.5,-165.5 2449.5,-143.72 2446.21,-123.21 2289.5,-81 2244.07,-68.76 1539.01,-33.98 1362.38,-25.42"/>
<polygon fill="midnightblue" stroke="midnightblue" points="1362.39,-21.92 1352.23,-24.93 1362.05,-28.91 1362.39,-21.92"/>
</g>
<!-- Node31&#45;&gt;Node11 -->
<g id="edge64" class="edge">
<title>Node31&#45;&gt;Node11</title>
<path fill="none" stroke="midnightblue" d="M2218.38,-387.48C2295.23,-372.52 2384.66,-354.48 2387.5,-351 2445.62,-279.68 2441.18,-218.72 2387.5,-144 2365.7,-113.65 2323.93,-102.04 2290.96,-97.72"/>
<polygon fill="midnightblue" stroke="midnightblue" points="2290.94,-94.19 2280.61,-96.56 2290.16,-101.15 2290.94,-94.19"/>
</g>
<!-- Node32 -->
<g id="node32" class="node">
<title>Node32</title>
<g id="a_node32"><a xlink:href="_i_e_buffer_memory_barrier_8hpp.html" target="_top" xlink:title=" ">
<polygon fill="white" stroke="black" points="1882,-315.5 1882,-341.5 2085,-341.5 2085,-315.5 1882,-315.5"/>
<text text-anchor="middle" x="1983.5" y="-324.7" font-family="Source Sans Pro" font-size="16.00">IEBufferMemoryBarrier.hpp</text>
</a>
</g>
</g>
<!-- Node31&#45;&gt;Node32 -->
<g id="edge66" class="edge">
<title>Node31&#45;&gt;Node32</title>
<path fill="none" stroke="midnightblue" d="M2075,-387.33C2055.12,-374.76 2030.19,-359.01 2011.38,-347.12"/>
<polygon fill="midnightblue" stroke="midnightblue" points="2013.01,-344.01 2002.69,-341.63 2009.27,-349.93 2013.01,-344.01"/>
</g>
<!-- Node33 -->
<g id="node33" class="node">
<title>Node33</title>
<g id="a_node33"><a xlink:href="_i_e_image_memory_barrier_8hpp.html" target="_top" xlink:title=" ">
<polygon fill="white" stroke="black" points="2142,-315.5 2142,-341.5 2345,-341.5 2345,-315.5 2142,-315.5"/>
<text text-anchor="middle" x="2243.5" y="-324.7" font-family="Source Sans Pro" font-size="16.00">IEImageMemoryBarrier.hpp</text>
</a>
</g>
</g>
<!-- Node31&#45;&gt;Node33 -->
<g id="edge70" class="edge">
<title>Node31&#45;&gt;Node33</title>
<path fill="none" stroke="midnightblue" d="M2144.68,-387.33C2166.35,-374.65 2193.56,-358.72 2213.94,-346.8"/>
<polygon fill="midnightblue" stroke="midnightblue" points="2215.91,-349.7 2222.78,-341.63 2212.38,-343.66 2215.91,-349.7"/>
</g>
<!-- Node32&#45;&gt;Node3 -->
<g id="edge67" class="edge">
<title>Node32&#45;&gt;Node3</title>
<path fill="none" stroke="midnightblue" d="M1979.34,-315.15C1967.29,-281.44 1928.92,-187.46 1862.5,-144 1829.04,-122.11 1725.9,-108.53 1654.35,-101.49"/>
<polygon fill="midnightblue" stroke="midnightblue" points="1654.33,-97.97 1644.04,-100.5 1653.66,-104.94 1654.33,-97.97"/>
</g>
<!-- Node32&#45;&gt;Node8 -->
<g id="edge69" class="edge">
<title>Node32&#45;&gt;Node8</title>
<path fill="none" stroke="midnightblue" d="M1928.6,-315.45C1911.06,-311.95 1891.53,-308.43 1873.5,-306 1627.23,-272.79 1333.57,-257.45 1192.42,-251.57"/>
<polygon fill="midnightblue" stroke="midnightblue" points="1192.25,-248.06 1182.11,-251.14 1191.96,-255.05 1192.25,-248.06"/>
</g>
<!-- Node32&#45;&gt;Node11 -->
<g id="edge68" class="edge">
<title>Node32&#45;&gt;Node11</title>
<path fill="none" stroke="midnightblue" d="M1998.22,-315.31C2012.08,-303.77 2033.36,-285.9 2051.5,-270 2114.84,-214.47 2188.1,-146.95 2222.98,-114.59"/>
<polygon fill="midnightblue" stroke="midnightblue" points="2225.66,-116.88 2230.61,-107.51 2220.9,-111.75 2225.66,-116.88"/>
</g>
<!-- Node33&#45;&gt;Node3 -->
<g id="edge72" class="edge">
<title>Node33&#45;&gt;Node3</title>
<path fill="none" stroke="midnightblue" d="M2240.01,-315.36C2229.51,-281.37 2194.74,-185.03 2127.5,-144 2088.02,-119.91 1793.69,-104.44 1654.3,-98.39"/>
<polygon fill="midnightblue" stroke="midnightblue" points="1654.27,-94.89 1644.13,-97.95 1653.97,-101.88 1654.27,-94.89"/>
</g>
<!-- Node33&#45;&gt;Node11 -->
<g id="edge71" class="edge">
<title>Node33&#45;&gt;Node11</title>
<path fill="none" stroke="midnightblue" d="M2243.5,-315.35C2243.5,-278.24 2243.5,-165.93 2243.5,-117.79"/>
<polygon fill="midnightblue" stroke="midnightblue" points="2247,-117.53 2243.5,-107.53 2240,-117.53 2247,-117.53"/>
</g>
<!-- Node33&#45;&gt;Node18 -->
<g id="edge73" class="edge">
<title>Node33&#45;&gt;Node18</title>
<path fill="none" stroke="midnightblue" d="M2161.95,-315.45C2140.06,-312.29 2116.39,-308.95 2094.5,-306 1963.61,-288.38 1811.51,-269.72 1719.18,-258.6"/>
<polygon fill="midnightblue" stroke="midnightblue" points="1719.4,-255.1 1709.05,-257.38 1718.56,-262.05 1719.4,-255.1"/>
</g>
<!-- Node34&#45;&gt;Node3 -->
<g id="edge76" class="edge">
<title>Node34&#45;&gt;Node3</title>
<path fill="none" stroke="midnightblue" d="M1450.2,-306.42C1491.27,-275.58 1563.43,-218.6 1577.5,-189 1588.16,-166.57 1587.52,-137.59 1585.27,-117.88"/>
<polygon fill="midnightblue" stroke="midnightblue" points="1588.7,-117.16 1583.87,-107.73 1581.77,-118.11 1588.7,-117.16"/>
</g>
<!-- Node34&#45;&gt;Node8 -->
<g id="edge77" class="edge">
<title>Node34&#45;&gt;Node8</title>
<path fill="none" stroke="midnightblue" d="M1338.03,-306.43C1283.76,-292.74 1214.38,-275.22 1166.18,-263.06"/>
<polygon fill="midnightblue" stroke="midnightblue" points="1166.78,-259.6 1156.23,-260.55 1165.07,-266.39 1166.78,-259.6"/>
</g>
<!-- Node34&#45;&gt;Node11 -->
<g id="edge75" class="edge">
<title>Node34&#45;&gt;Node11</title>
<path fill="none" stroke="midnightblue" d="M1549.5,-306.47C1602.19,-296.84 1663.63,-284.37 1718.5,-270 1901.91,-221.98 2114.61,-144.27 2202.39,-111.2"/>
<polygon fill="midnightblue" stroke="midnightblue" points="2203.85,-114.39 2211.97,-107.58 2201.38,-107.84 2203.85,-114.39"/>
</g>
<!-- Node34&#45;&gt;Node18 -->
<g id="edge78" class="edge">
<title>Node34&#45;&gt;Node18</title>
<path fill="none" stroke="midnightblue" d="M1478.3,-306.43C1514.15,-293.14 1559.69,-276.25 1592.33,-264.14"/>
<polygon fill="midnightblue" stroke="midnightblue" points="1593.86,-267.3 1602.02,-260.55 1591.43,-260.74 1593.86,-267.3"/>
</g>
<!-- Node35&#45;&gt;Node11 -->
<g id="edge80" class="edge">
<title>Node35&#45;&gt;Node11</title>
<path fill="none" stroke="midnightblue" d="M1978.81,-388.13C1981.74,-387.74 1984.63,-387.37 1987.5,-387 2028.14,-381.82 2326.98,-381.35 2354.5,-351 2420.35,-278.37 2312.31,-160.56 2264.48,-114.66"/>
<polygon fill="midnightblue" stroke="midnightblue" points="2266.77,-112 2257.1,-107.68 2261.96,-117.09 2266.77,-112"/>
</g>
<!-- Node36 -->
<g id="node36" class="node">
<title>Node36</title>
<g id="a_node36"><a xlink:href="_i_e_framebuffer_8hpp.html" target="_top" xlink:title=" ">
<polygon fill="white" stroke="black" points="1653,-306.5 1653,-350.5 1864,-350.5 1864,-306.5 1653,-306.5"/>
<text text-anchor="start" x="1661" y="-333.7" font-family="Source Sans Pro" font-size="16.00">GraphicsModule/RenderPass</text>
<text text-anchor="middle" x="1758.5" y="-315.7" font-family="Source Sans Pro" font-size="16.00">/IEFramebuffer.hpp</text>
</a>
</g>
</g>
<!-- Node35&#45;&gt;Node36 -->
<g id="edge81" class="edge">
<title>Node35&#45;&gt;Node36</title>
<path fill="none" stroke="midnightblue" d="M1825.85,-387.33C1815.12,-378.12 1802.41,-367.2 1790.93,-357.35"/>
<polygon fill="midnightblue" stroke="midnightblue" points="1793.09,-354.59 1783.22,-350.73 1788.53,-359.9 1793.09,-354.59"/>
</g>
<!-- Node36&#45;&gt;Node3 -->
<g id="edge83" class="edge">
<title>Node36&#45;&gt;Node3</title>
<path fill="none" stroke="midnightblue" d="M1782.04,-306.26C1819.57,-269.87 1884.61,-194.65 1842.5,-144 1818.96,-115.68 1723.11,-103.82 1654.4,-98.9"/>
<polygon fill="midnightblue" stroke="midnightblue" points="1654.26,-95.39 1644.05,-98.2 1653.79,-102.37 1654.26,-95.39"/>
</g>
<!-- Node36&#45;&gt;Node4 -->
<g id="edge85" class="edge">
<title>Node36&#45;&gt;Node4</title>
<path fill="none" stroke="midnightblue" d="M1851.95,-306.41C1888.65,-296.35 1924.99,-283.55 1937.5,-270 1994.75,-207.95 2013.44,-143.33 1956.5,-81 1936.36,-58.95 1498.37,-33.15 1362.4,-25.65"/>
<polygon fill="midnightblue" stroke="midnightblue" points="1362.58,-22.15 1352.4,-25.1 1362.19,-29.14 1362.58,-22.15"/>
</g>
<!-- Node36&#45;&gt;Node10 -->
<g id="edge84" class="edge">
<title>Node36&#45;&gt;Node10</title>
<path fill="none" stroke="midnightblue" d="M1802.58,-306.36C1817.6,-297.13 1833.19,-284.97 1843.5,-270 1875.63,-223.36 1896.28,-189.46 1862.5,-144 1804.64,-66.13 1748.94,-98.42 1653.5,-81 1496,-52.25 993.38,-30.64 850.64,-24.97"/>
<polygon fill="midnightblue" stroke="midnightblue" points="850.36,-21.45 840.23,-24.56 850.08,-28.45 850.36,-21.45"/>
</g>
<!-- Node36&#45;&gt;Node18 -->
<g id="edge82" class="edge">
<title>Node36&#45;&gt;Node18</title>
<path fill="none" stroke="midnightblue" d="M1725.27,-306.33C1705.54,-293.76 1680.82,-278.01 1662.16,-266.12"/>
<polygon fill="midnightblue" stroke="midnightblue" points="1663.85,-263.05 1653.54,-260.63 1660.09,-268.95 1663.85,-263.05"/>
</g>
</g>
</svg>
