<?xml version="1.0" encoding="UTF-8" standalone="no"?>
<!DOCTYPE svg PUBLIC "-//W3C//DTD SVG 1.1//EN"
 "http://www.w3.org/Graphics/SVG/1.1/DTD/svg11.dtd">
<!-- Generated by graphviz version 2.43.0 (0)
 -->
<!-- Title: Illumination&#45;Engine/src/Core/FileSystemModule/IEFileSystem.cpp Pages: 1 -->
<svg width="551pt" height="323pt"
 viewBox="0.00 0.00 550.62 323.00" xmlns="http://www.w3.org/2000/svg" xmlns:xlink="http://www.w3.org/1999/xlink">
<g id="graph0" class="graph" transform="scale(1 1) rotate(0) translate(4 319)">
<title>Illumination&#45;Engine/src/Core/FileSystemModule/IEFileSystem.cpp</title>
<polygon fill="white" stroke="transparent" points="-4,4 -4,-319 546.62,-319 546.62,4 -4,4"/>
<!-- Node1 -->
<g id="node1" class="node">
<title>Node1</title>
<g id="a_node1"><a xlink:title=" ">
<polygon fill="#bfbfbf" stroke="black" points="84.12,-252.5 84.12,-314.5 291.12,-314.5 291.12,-252.5 84.12,-252.5"/>
<text text-anchor="start" x="92.12" y="-297.7" font-family="Source Sans Pro" font-size="16.00">Illumination&#45;Engine</text>
<text text-anchor="start" x="92.12" y="-279.7" font-family="Source Sans Pro" font-size="16.00">/src/Core/FileSystemModule</text>
<text text-anchor="middle" x="187.62" y="-261.7" font-family="Source Sans Pro" font-size="16.00">/IEFileSystem.cpp</text>
</a>
</g>
</g>
<!-- Node2 -->
<g id="node2" class="node">
<title>Node2</title>
<g id="a_node2"><a xlink:href="_i_e_file_system_8hpp.html" target="_top" xlink:title=" ">
<polygon fill="white" stroke="black" points="121.12,-189.5 121.12,-215.5 254.12,-215.5 254.12,-189.5 121.12,-189.5"/>
<text text-anchor="middle" x="187.62" y="-198.7" font-family="Source Sans Pro" font-size="16.00">IEFileSystem.hpp</text>
</a>
</g>
</g>
<!-- Node1&#45;&gt;Node2 -->
<g id="edge1" class="edge">
<title>Node1&#45;&gt;Node2</title>
<path fill="none" stroke="midnightblue" d="M187.62,-252.18C187.62,-243.45 187.62,-234.08 187.62,-225.91"/>
<polygon fill="midnightblue" stroke="midnightblue" points="191.12,-225.7 187.62,-215.7 184.12,-225.7 191.12,-225.7"/>
</g>
<!-- Node3 -->
<g id="node3" class="node">
<title>Node3</title>
<g id="a_node3"><a xlink:href="_i_e_file_8hpp.html" target="_top" xlink:title=" ">
<polygon fill="white" stroke="black" points="196.62,-63.5 196.62,-89.5 280.62,-89.5 280.62,-63.5 196.62,-63.5"/>
<text text-anchor="middle" x="238.62" y="-72.7" font-family="Source Sans Pro" font-size="16.00">IEFile.hpp</text>
</a>
</g>
</g>
<!-- Node2&#45;&gt;Node3 -->
<g id="edge2" class="edge">
<title>Node2&#45;&gt;Node3</title>
<path fill="none" stroke="midnightblue" d="M192.7,-189.16C201.33,-168.17 218.96,-125.29 229.69,-99.2"/>
<polygon fill="midnightblue" stroke="midnightblue" points="233,-100.37 233.56,-89.79 226.52,-97.71 233,-100.37"/>
</g>
<!-- Node4 -->
<g id="node4" class="node">
<title>Node4</title>
<g id="a_node4"><a xlink:title=" ">
<polygon fill="white" stroke="#bfbfbf" points="50.12,-0.5 50.12,-26.5 109.12,-26.5 109.12,-0.5 50.12,-0.5"/>
<text text-anchor="middle" x="79.62" y="-9.7" font-family="Source Sans Pro" font-size="16.00">vector</text>
</a>
</g>
</g>
<!-- Node2&#45;&gt;Node4 -->
<g id="edge12" class="edge">
<title>Node2&#45;&gt;Node4</title>
<path fill="none" stroke="midnightblue" d="M120.9,-191.88C76.31,-183.93 23.38,-171.01 9.62,-153 -19.81,-114.48 26.71,-61.69 56.95,-33.72"/>
<polygon fill="midnightblue" stroke="midnightblue" points="59.51,-36.13 64.6,-26.84 54.83,-30.92 59.51,-36.13"/>
</g>
<!-- Node5 -->
<g id="node5" class="node">
<title>Node5</title>
<g id="a_node5"><a xlink:title=" ">
<polygon fill="white" stroke="#bfbfbf" points="133.12,-0.5 133.12,-26.5 188.12,-26.5 188.12,-0.5 133.12,-0.5"/>
<text text-anchor="middle" x="160.62" y="-9.7" font-family="Source Sans Pro" font-size="16.00">string</text>
</a>
</g>
</g>
<!-- Node2&#45;&gt;Node5 -->
<g id="edge13" class="edge">
<title>Node2&#45;&gt;Node5</title>
<path fill="none" stroke="midnightblue" d="M185.85,-189.23C181.37,-158.18 169.52,-76.17 163.8,-36.55"/>
<polygon fill="midnightblue" stroke="midnightblue" points="167.26,-35.97 162.36,-26.57 160.33,-36.97 167.26,-35.97"/>
</g>
<!-- Node10 -->
<g id="node10" class="node">
<title>Node10</title>
<g id="a_node10"><a xlink:href="_i_e_directory_8hpp.html" target="_top" xlink:title=" ">
<polygon fill="white" stroke="black" points="18.62,-126.5 18.62,-152.5 140.62,-152.5 140.62,-126.5 18.62,-126.5"/>
<text text-anchor="middle" x="79.62" y="-135.7" font-family="Source Sans Pro" font-size="16.00">IEDirectory.hpp</text>
</a>
</g>
</g>
<!-- Node2&#45;&gt;Node10 -->
<g id="edge9" class="edge">
<title>Node2&#45;&gt;Node10</title>
<path fill="none" stroke="midnightblue" d="M166.28,-189.45C150.16,-180.34 127.81,-167.72 109.85,-157.57"/>
<polygon fill="midnightblue" stroke="midnightblue" points="111.34,-154.4 100.91,-152.53 107.9,-160.49 111.34,-154.4"/>
</g>
<!-- Node11 -->
<g id="node11" class="node">
<title>Node11</title>
<g id="a_node11"><a xlink:title=" ">
<polygon fill="white" stroke="#bfbfbf" points="234.62,-126.5 234.62,-152.5 362.62,-152.5 362.62,-126.5 234.62,-126.5"/>
<text text-anchor="middle" x="298.62" y="-135.7" font-family="Source Sans Pro" font-size="16.00">unordered_map</text>
</a>
</g>
</g>
<!-- Node2&#45;&gt;Node11 -->
<g id="edge14" class="edge">
<title>Node2&#45;&gt;Node11</title>
<path fill="none" stroke="midnightblue" d="M209.55,-189.45C226.2,-180.3 249.3,-167.6 267.8,-157.44"/>
<polygon fill="midnightblue" stroke="midnightblue" points="269.66,-160.41 276.74,-152.53 266.29,-154.28 269.66,-160.41"/>
</g>
<!-- Node12 -->
<g id="node12" class="node">
<title>Node12</title>
<g id="a_node12"><a xlink:title=" ">
<polygon fill="white" stroke="#bfbfbf" points="380.62,-126.5 380.62,-152.5 444.62,-152.5 444.62,-126.5 380.62,-126.5"/>
<text text-anchor="middle" x="412.62" y="-135.7" font-family="Source Sans Pro" font-size="16.00">variant</text>
</a>
</g>
</g>
<!-- Node2&#45;&gt;Node12 -->
<g id="edge15" class="edge">
<title>Node2&#45;&gt;Node12</title>
<path fill="none" stroke="midnightblue" d="M235.41,-189.44C270.45,-180.47 319.4,-167.7 370.8,-153.17"/>
<polygon fill="midnightblue" stroke="midnightblue" points="371.76,-156.54 380.43,-150.44 369.85,-149.81 371.76,-156.54"/>
</g>
<!-- Node3&#45;&gt;Node4 -->
<g id="edge3" class="edge">
<title>Node3&#45;&gt;Node4</title>
<path fill="none" stroke="midnightblue" d="M207.21,-63.45C181.9,-53.74 146.17,-40.03 118.96,-29.59"/>
<polygon fill="midnightblue" stroke="midnightblue" points="119.95,-26.22 109.35,-25.91 117.44,-32.76 119.95,-26.22"/>
</g>
<!-- Node3&#45;&gt;Node5 -->
<g id="edge4" class="edge">
<title>Node3&#45;&gt;Node5</title>
<path fill="none" stroke="midnightblue" d="M223.21,-63.45C211.99,-54.68 196.6,-42.64 183.89,-32.7"/>
<polygon fill="midnightblue" stroke="midnightblue" points="186.03,-29.93 176,-26.53 181.72,-35.44 186.03,-29.93"/>
</g>
<!-- Node6 -->
<g id="node6" class="node">
<title>Node6</title>
<g id="a_node6"><a xlink:title=" ">
<polygon fill="white" stroke="#bfbfbf" points="371.12,-0.5 371.12,-26.5 456.12,-26.5 456.12,-0.5 371.12,-0.5"/>
<text text-anchor="middle" x="413.62" y="-9.7" font-family="Source Sans Pro" font-size="16.00">filesystem</text>
</a>
</g>
</g>
<!-- Node3&#45;&gt;Node6 -->
<g id="edge5" class="edge">
<title>Node3&#45;&gt;Node6</title>
<path fill="none" stroke="midnightblue" d="M273.19,-63.45C300.76,-53.84 339.55,-40.32 369.37,-29.92"/>
<polygon fill="midnightblue" stroke="midnightblue" points="370.83,-33.12 379.12,-26.53 368.52,-26.51 370.83,-33.12"/>
</g>
<!-- Node7 -->
<g id="node7" class="node">
<title>Node7</title>
<g id="a_node7"><a xlink:title=" ">
<polygon fill="white" stroke="#bfbfbf" points="474.62,-0.5 474.62,-26.5 542.62,-26.5 542.62,-0.5 474.62,-0.5"/>
<text text-anchor="middle" x="508.62" y="-9.7" font-family="Source Sans Pro" font-size="16.00">fstream</text>
</a>
</g>
</g>
<!-- Node3&#45;&gt;Node7 -->
<g id="edge6" class="edge">
<title>Node3&#45;&gt;Node7</title>
<path fill="none" stroke="midnightblue" d="M280.67,-67.46C324.34,-58.91 394.84,-44.51 464.58,-27.15"/>
<polygon fill="midnightblue" stroke="midnightblue" points="465.57,-30.52 474.41,-24.69 463.86,-23.73 465.57,-30.52"/>
</g>
<!-- Node8 -->
<g id="node8" class="node">
<title>Node8</title>
<g id="a_node8"><a xlink:title=" ">
<polygon fill="white" stroke="#bfbfbf" points="206.62,-0.5 206.62,-26.5 258.62,-26.5 258.62,-0.5 206.62,-0.5"/>
<text text-anchor="middle" x="232.62" y="-9.7" font-family="Source Sans Pro" font-size="16.00">regex</text>
</a>
</g>
</g>
<!-- Node3&#45;&gt;Node8 -->
<g id="edge7" class="edge">
<title>Node3&#45;&gt;Node8</title>
<path fill="none" stroke="midnightblue" d="M237.43,-63.45C236.68,-55.76 235.68,-45.57 234.78,-36.48"/>
<polygon fill="midnightblue" stroke="midnightblue" points="238.27,-36.14 233.8,-26.53 231.3,-36.82 238.27,-36.14"/>
</g>
<!-- Node9 -->
<g id="node9" class="node">
<title>Node9</title>
<g id="a_node9"><a xlink:title=" ">
<polygon fill="white" stroke="#bfbfbf" points="276.62,-0.5 276.62,-26.5 352.62,-26.5 352.62,-0.5 276.62,-0.5"/>
<text text-anchor="middle" x="314.62" y="-9.7" font-family="Source Sans Pro" font-size="16.00">iostream</text>
</a>
</g>
</g>
<!-- Node3&#45;&gt;Node9 -->
<g id="edge8" class="edge">
<title>Node3&#45;&gt;Node9</title>
<path fill="none" stroke="midnightblue" d="M253.64,-63.45C264.46,-54.76 279.27,-42.87 291.59,-32.99"/>
<polygon fill="midnightblue" stroke="midnightblue" points="294.03,-35.52 299.64,-26.53 289.65,-30.06 294.03,-35.52"/>
</g>
<!-- Node10&#45;&gt;Node3 -->
<g id="edge10" class="edge">
<title>Node10&#45;&gt;Node3</title>
<path fill="none" stroke="midnightblue" d="M111.03,-126.45C135.86,-116.92 170.71,-103.55 197.71,-93.19"/>
<polygon fill="midnightblue" stroke="midnightblue" points="199.19,-96.38 207.27,-89.53 196.68,-89.84 199.19,-96.38"/>
</g>
<!-- Node10&#45;&gt;Node4 -->
<g id="edge11" class="edge">
<title>Node10&#45;&gt;Node4</title>
<path fill="none" stroke="midnightblue" d="M79.62,-126.16C79.62,-105.36 79.62,-63.05 79.62,-36.9"/>
<polygon fill="midnightblue" stroke="midnightblue" points="83.12,-36.79 79.62,-26.79 76.12,-36.79 83.12,-36.79"/>
</g>
</g>
</svg>
