<?xml version="1.0" encoding="UTF-8" standalone="no"?>
<!DOCTYPE svg PUBLIC "-//W3C//DTD SVG 1.1//EN"
 "http://www.w3.org/Graphics/SVG/1.1/DTD/svg11.dtd">
<!-- Generated by graphviz version 2.43.0 (0)
 -->
<!-- Title: Illumination&#45;Engine/src/Core/LogModule/IELogger.cpp Pages: 1 -->
<svg width="887pt" height="215pt"
 viewBox="0.00 0.00 887.00 215.00" xmlns="http://www.w3.org/2000/svg" xmlns:xlink="http://www.w3.org/1999/xlink">
<g id="graph0" class="graph" transform="scale(1 1) rotate(0) translate(4 211)">
<title>Illumination&#45;Engine/src/Core/LogModule/IELogger.cpp</title>
<polygon fill="white" stroke="transparent" points="-4,4 -4,-211 883,-211 883,4 -4,4"/>
<!-- Node1 -->
<g id="node1" class="node">
<title>Node1</title>
<g id="a_node1"><a xlink:title=" ">
<polygon fill="#bfbfbf" stroke="black" points="445.5,-144.5 445.5,-206.5 604.5,-206.5 604.5,-144.5 445.5,-144.5"/>
<text text-anchor="start" x="453.5" y="-189.7" font-family="Source Sans Pro" font-size="16.00">Illumination&#45;Engine</text>
<text text-anchor="start" x="453.5" y="-171.7" font-family="Source Sans Pro" font-size="16.00">/src/Core/LogModule</text>
<text text-anchor="middle" x="525" y="-153.7" font-family="Source Sans Pro" font-size="16.00">/IELogger.cpp</text>
</a>
</g>
</g>
<!-- Node2 -->
<g id="node2" class="node">
<title>Node2</title>
<g id="a_node2"><a xlink:href="_i_e_logger_8hpp.html" target="_top" xlink:title=" ">
<polygon fill="white" stroke="black" points="221.5,-72.5 221.5,-98.5 326.5,-98.5 326.5,-72.5 221.5,-72.5"/>
<text text-anchor="middle" x="274" y="-81.7" font-family="Source Sans Pro" font-size="16.00">IELogger.hpp</text>
</a>
</g>
</g>
<!-- Node1&#45;&gt;Node2 -->
<g id="edge1" class="edge">
<title>Node1&#45;&gt;Node2</title>
<path fill="none" stroke="midnightblue" d="M445.24,-146.54C403.12,-131.77 353.04,-114.21 317.95,-101.91"/>
<polygon fill="midnightblue" stroke="midnightblue" points="319.07,-98.59 308.47,-98.59 316.75,-105.2 319.07,-98.59"/>
</g>
<!-- Node7 -->
<g id="node7" class="node">
<title>Node7</title>
<g id="a_node7"><a xlink:title=" ">
<polygon fill="white" stroke="#bfbfbf" points="345,-72.5 345,-98.5 521,-98.5 521,-72.5 345,-72.5"/>
<text text-anchor="middle" x="433" y="-81.7" font-family="Source Sans Pro" font-size="16.00">include/spdlog/async.h</text>
</a>
</g>
</g>
<!-- Node1&#45;&gt;Node7 -->
<g id="edge6" class="edge">
<title>Node1&#45;&gt;Node7</title>
<path fill="none" stroke="midnightblue" d="M493.6,-144.46C480.1,-131.55 464.74,-116.86 452.86,-105.5"/>
<polygon fill="midnightblue" stroke="midnightblue" points="455.26,-102.94 445.61,-98.56 450.42,-108 455.26,-102.94"/>
</g>
<!-- Node8 -->
<g id="node8" class="node">
<title>Node8</title>
<g id="a_node8"><a xlink:title=" ">
<polygon fill="white" stroke="#bfbfbf" points="539,-63.5 539,-107.5 697,-107.5 697,-63.5 539,-63.5"/>
<text text-anchor="start" x="547" y="-90.7" font-family="Source Sans Pro" font-size="16.00">include/spdlog/sinks</text>
<text text-anchor="middle" x="618" y="-72.7" font-family="Source Sans Pro" font-size="16.00">/basic_file_sink.h</text>
</a>
</g>
</g>
<!-- Node1&#45;&gt;Node8 -->
<g id="edge7" class="edge">
<title>Node1&#45;&gt;Node8</title>
<path fill="none" stroke="midnightblue" d="M556.75,-144.46C566.98,-134.78 578.27,-124.09 588.35,-114.56"/>
<polygon fill="midnightblue" stroke="midnightblue" points="590.92,-116.95 595.77,-107.53 586.1,-111.86 590.92,-116.95"/>
</g>
<!-- Node9 -->
<g id="node9" class="node">
<title>Node9</title>
<g id="a_node9"><a xlink:title=" ">
<polygon fill="white" stroke="#bfbfbf" points="715,-63.5 715,-107.5 879,-107.5 879,-63.5 715,-63.5"/>
<text text-anchor="start" x="723" y="-90.7" font-family="Source Sans Pro" font-size="16.00">include/spdlog/sinks</text>
<text text-anchor="middle" x="797" y="-72.7" font-family="Source Sans Pro" font-size="16.00">/stdout_color_sinks.h</text>
</a>
</g>
</g>
<!-- Node1&#45;&gt;Node9 -->
<g id="edge8" class="edge">
<title>Node1&#45;&gt;Node9</title>
<path fill="none" stroke="midnightblue" d="M604.77,-148.69C641.9,-136.68 685.81,-122.47 722.28,-110.67"/>
<polygon fill="midnightblue" stroke="midnightblue" points="723.44,-113.98 731.87,-107.57 721.28,-107.32 723.44,-113.98"/>
</g>
<!-- Node3 -->
<g id="node3" class="node">
<title>Node3</title>
<g id="a_node3"><a xlink:title=" ">
<polygon fill="white" stroke="#bfbfbf" points="0,-0.5 0,-26.5 178,-26.5 178,-0.5 0,-0.5"/>
<text text-anchor="middle" x="89" y="-9.7" font-family="Source Sans Pro" font-size="16.00">include/spdlog/logger.h</text>
</a>
</g>
</g>
<!-- Node2&#45;&gt;Node3 -->
<g id="edge2" class="edge">
<title>Node2&#45;&gt;Node3</title>
<path fill="none" stroke="midnightblue" d="M242.2,-72.47C211.36,-60.8 164.4,-43.03 130.6,-30.24"/>
<polygon fill="midnightblue" stroke="midnightblue" points="131.6,-26.88 121.01,-26.61 129.12,-33.42 131.6,-26.88"/>
</g>
<!-- Node4 -->
<g id="node4" class="node">
<title>Node4</title>
<g id="a_node4"><a xlink:title=" ">
<polygon fill="white" stroke="#bfbfbf" points="196,-0.5 196,-26.5 270,-26.5 270,-0.5 196,-0.5"/>
<text text-anchor="middle" x="233" y="-9.7" font-family="Source Sans Pro" font-size="16.00">memory</text>
</a>
</g>
</g>
<!-- Node2&#45;&gt;Node4 -->
<g id="edge3" class="edge">
<title>Node2&#45;&gt;Node4</title>
<path fill="none" stroke="midnightblue" d="M266.86,-72.31C260.92,-62.17 252.33,-47.51 245.29,-35.49"/>
<polygon fill="midnightblue" stroke="midnightblue" points="248.13,-33.41 240.06,-26.55 242.09,-36.95 248.13,-33.41"/>
</g>
<!-- Node5 -->
<g id="node5" class="node">
<title>Node5</title>
<g id="a_node5"><a xlink:title=" ">
<polygon fill="white" stroke="#bfbfbf" points="288.5,-0.5 288.5,-26.5 343.5,-26.5 343.5,-0.5 288.5,-0.5"/>
<text text-anchor="middle" x="316" y="-9.7" font-family="Source Sans Pro" font-size="16.00">string</text>
</a>
</g>
</g>
<!-- Node2&#45;&gt;Node5 -->
<g id="edge4" class="edge">
<title>Node2&#45;&gt;Node5</title>
<path fill="none" stroke="midnightblue" d="M281.32,-72.31C287.46,-62.07 296.37,-47.22 303.62,-35.13"/>
<polygon fill="midnightblue" stroke="midnightblue" points="306.62,-36.93 308.77,-26.55 300.62,-33.33 306.62,-36.93"/>
</g>
<!-- Node6 -->
<g id="node6" class="node">
<title>Node6</title>
<g id="a_node6"><a xlink:title=" ">
<polygon fill="white" stroke="#bfbfbf" points="361.5,-0.5 361.5,-26.5 486.5,-26.5 486.5,-0.5 361.5,-0.5"/>
<text text-anchor="middle" x="424" y="-9.7" font-family="Source Sans Pro" font-size="16.00">vulkan/vulkan.h</text>
</a>
</g>
</g>
<!-- Node2&#45;&gt;Node6 -->
<g id="edge5" class="edge">
<title>Node2&#45;&gt;Node6</title>
<path fill="none" stroke="midnightblue" d="M299.79,-72.47C324.36,-61 361.56,-43.64 388.85,-30.9"/>
<polygon fill="midnightblue" stroke="midnightblue" points="390.47,-34.01 398.05,-26.61 387.51,-27.67 390.47,-34.01"/>
</g>
</g>
</svg>
