<?xml version="1.0" encoding="UTF-8" standalone="no"?>
<!DOCTYPE svg PUBLIC "-//W3C//DTD SVG 1.1//EN"
 "http://www.w3.org/Graphics/SVG/1.1/DTD/svg11.dtd">
<!-- Generated by graphviz version 2.43.0 (0)
 -->
<!-- Title: Illumination&#45;Engine/src/GraphicsModule/Image/IETexture.hpp Pages: 1 -->
<svg width="1232pt" height="341pt"
 viewBox="0.00 0.00 1231.50 341.00" xmlns="http://www.w3.org/2000/svg" xmlns:xlink="http://www.w3.org/1999/xlink">
<g id="graph0" class="graph" transform="scale(1 1) rotate(0) translate(4 337)">
<title>Illumination&#45;Engine/src/GraphicsModule/Image/IETexture.hpp</title>
<polygon fill="white" stroke="transparent" points="-4,4 -4,-337 1227.5,-337 1227.5,4 -4,4"/>
<!-- Node1 -->
<g id="node1" class="node">
<title>Node1</title>
<g id="a_node1"><a xlink:title=" ">
<polygon fill="#bfbfbf" stroke="black" points="918.5,-270.5 918.5,-332.5 1080.5,-332.5 1080.5,-270.5 918.5,-270.5"/>
<text text-anchor="start" x="926.5" y="-315.7" font-family="Source Sans Pro" font-size="16.00">Illumination&#45;Engine</text>
<text text-anchor="start" x="926.5" y="-297.7" font-family="Source Sans Pro" font-size="16.00">/src/GraphicsModule</text>
<text text-anchor="middle" x="999.5" y="-279.7" font-family="Source Sans Pro" font-size="16.00">/Image/IETexture.hpp</text>
</a>
</g>
</g>
<!-- Node2 -->
<g id="node2" class="node">
<title>Node2</title>
<g id="a_node2"><a xlink:href="_i_e_image_8hpp.html" target="_top" xlink:title=" ">
<polygon fill="white" stroke="black" points="601.5,-207.5 601.5,-233.5 703.5,-233.5 703.5,-207.5 601.5,-207.5"/>
<text text-anchor="middle" x="652.5" y="-216.7" font-family="Source Sans Pro" font-size="16.00">IEImage.hpp</text>
</a>
</g>
</g>
<!-- Node1&#45;&gt;Node2 -->
<g id="edge1" class="edge">
<title>Node1&#45;&gt;Node2</title>
<path fill="none" stroke="midnightblue" d="M918.14,-281.98C855.5,-267.72 770.28,-248.31 713.43,-235.37"/>
<polygon fill="midnightblue" stroke="midnightblue" points="714.04,-231.92 703.51,-233.11 712.48,-238.75 714.04,-231.92"/>
</g>
<!-- Node5 -->
<g id="node5" class="node">
<title>Node5</title>
<g id="a_node5"><a xlink:title=" ">
<polygon fill="white" stroke="#bfbfbf" points="710,-63.5 710,-89.5 835,-89.5 835,-63.5 710,-63.5"/>
<text text-anchor="middle" x="772.5" y="-72.7" font-family="Source Sans Pro" font-size="16.00">vulkan/vulkan.h</text>
</a>
</g>
</g>
<!-- Node1&#45;&gt;Node5 -->
<g id="edge22" class="edge">
<title>Node1&#45;&gt;Node5</title>
<path fill="none" stroke="midnightblue" d="M1010.15,-270.21C1021.43,-232.1 1033.48,-166.73 1000.5,-126 981.15,-102.1 904.44,-89.49 845.28,-83.18"/>
<polygon fill="midnightblue" stroke="midnightblue" points="845.51,-79.68 835.2,-82.15 844.79,-86.65 845.51,-79.68"/>
</g>
<!-- Node6 -->
<g id="node6" class="node">
<title>Node6</title>
<g id="a_node6"><a xlink:title=" ">
<polygon fill="white" stroke="#bfbfbf" points="654,-0.5 654,-26.5 709,-26.5 709,-0.5 654,-0.5"/>
<text text-anchor="middle" x="681.5" y="-9.7" font-family="Source Sans Pro" font-size="16.00">string</text>
</a>
</g>
</g>
<!-- Node1&#45;&gt;Node6 -->
<g id="edge25" class="edge">
<title>Node1&#45;&gt;Node6</title>
<path fill="none" stroke="midnightblue" d="M1019.35,-270.29C1025.47,-259.33 1031.4,-246.54 1034.5,-234 1041.8,-204.46 1031.76,-135.27 1024.5,-126 949.79,-30.62 792.08,-15.72 719.51,-14.14"/>
<polygon fill="midnightblue" stroke="midnightblue" points="719.49,-10.64 709.44,-13.99 719.39,-17.64 719.49,-10.64"/>
</g>
<!-- Node10 -->
<g id="node10" class="node">
<title>Node10</title>
<g id="a_node10"><a xlink:title=" ">
<polygon fill="white" stroke="#bfbfbf" points="0,-0.5 0,-26.5 63,-26.5 63,-0.5 0,-0.5"/>
<text text-anchor="middle" x="31.5" y="-9.7" font-family="Source Sans Pro" font-size="16.00">cstdint</text>
</a>
</g>
</g>
<!-- Node1&#45;&gt;Node10 -->
<g id="edge24" class="edge">
<title>Node1&#45;&gt;Node10</title>
<path fill="none" stroke="midnightblue" d="M918.13,-301.45C709.56,-302.1 163.51,-291.94 39.5,-171 3.82,-136.21 15.11,-71.08 24.41,-36.84"/>
<polygon fill="midnightblue" stroke="midnightblue" points="27.88,-37.47 27.3,-26.89 21.15,-35.52 27.88,-37.47"/>
</g>
<!-- Node13 -->
<g id="node13" class="node">
<title>Node13</title>
<g id="a_node13"><a xlink:title=" ">
<polygon fill="white" stroke="#bfbfbf" points="891.5,-135.5 891.5,-161.5 991.5,-161.5 991.5,-135.5 891.5,-135.5"/>
<text text-anchor="middle" x="941.5" y="-144.7" font-family="Source Sans Pro" font-size="16.00">stb_image.h</text>
</a>
</g>
</g>
<!-- Node1&#45;&gt;Node13 -->
<g id="edge23" class="edge">
<title>Node1&#45;&gt;Node13</title>
<path fill="none" stroke="midnightblue" d="M987.9,-270.31C976.64,-240.98 959.81,-197.18 949.82,-171.16"/>
<polygon fill="midnightblue" stroke="midnightblue" points="953.08,-169.89 946.23,-161.81 946.55,-172.4 953.08,-169.89"/>
</g>
<!-- Node15 -->
<g id="node15" class="node">
<title>Node15</title>
<g id="a_node15"><a xlink:title=" ">
<polygon fill="white" stroke="#bfbfbf" points="1085.5,-207.5 1085.5,-233.5 1223.5,-233.5 1223.5,-207.5 1085.5,-207.5"/>
<text text-anchor="middle" x="1154.5" y="-216.7" font-family="Source Sans Pro" font-size="16.00">assimp/material.h</text>
</a>
</g>
</g>
<!-- Node1&#45;&gt;Node15 -->
<g id="edge21" class="edge">
<title>Node1&#45;&gt;Node15</title>
<path fill="none" stroke="midnightblue" d="M1058.54,-270.41C1079.96,-259.49 1103.38,-247.56 1121.71,-238.21"/>
<polygon fill="midnightblue" stroke="midnightblue" points="1123.48,-241.24 1130.8,-233.58 1120.31,-235 1123.48,-241.24"/>
</g>
<!-- Node3 -->
<g id="node3" class="node">
<title>Node3</title>
<g id="a_node3"><a xlink:href="_i_e_dependency_8hpp.html" target="_top" xlink:title=" ">
<polygon fill="white" stroke="black" points="98,-126.5 98,-170.5 343,-170.5 343,-126.5 98,-126.5"/>
<text text-anchor="start" x="106" y="-153.7" font-family="Source Sans Pro" font-size="16.00">GraphicsModule/CommandBuffer</text>
<text text-anchor="middle" x="220.5" y="-135.7" font-family="Source Sans Pro" font-size="16.00">/IEDependency.hpp</text>
</a>
</g>
</g>
<!-- Node2&#45;&gt;Node3 -->
<g id="edge2" class="edge">
<title>Node2&#45;&gt;Node3</title>
<path fill="none" stroke="midnightblue" d="M601.36,-211.31C543.58,-202.04 446.4,-186.42 353.37,-171.3"/>
<polygon fill="midnightblue" stroke="midnightblue" points="353.66,-167.8 343.22,-169.65 352.53,-174.71 353.66,-167.8"/>
</g>
<!-- Node4 -->
<g id="node4" class="node">
<title>Node4</title>
<g id="a_node4"><a xlink:title=" ">
<polygon fill="white" stroke="#bfbfbf" points="159,-0.5 159,-26.5 218,-26.5 218,-0.5 159,-0.5"/>
<text text-anchor="middle" x="188.5" y="-9.7" font-family="Source Sans Pro" font-size="16.00">vector</text>
</a>
</g>
</g>
<!-- Node2&#45;&gt;Node4 -->
<g id="edge19" class="edge">
<title>Node2&#45;&gt;Node4</title>
<path fill="none" stroke="midnightblue" d="M601.24,-218.95C468.74,-217.01 122.8,-208.38 88.5,-171 47.61,-126.44 120.33,-63.16 162.12,-32.51"/>
<polygon fill="midnightblue" stroke="midnightblue" points="164.19,-35.34 170.27,-26.66 160.11,-29.65 164.19,-35.34"/>
</g>
<!-- Node2&#45;&gt;Node5 -->
<g id="edge15" class="edge">
<title>Node2&#45;&gt;Node5</title>
<path fill="none" stroke="midnightblue" d="M703.71,-218.08C738.55,-214.11 782.37,-202.59 805.5,-171 821.78,-148.76 804.78,-117.76 789.77,-97.66"/>
<polygon fill="midnightblue" stroke="midnightblue" points="792.49,-95.46 783.56,-89.77 786.99,-99.79 792.49,-95.46"/>
</g>
<!-- Node2&#45;&gt;Node6 -->
<g id="edge18" class="edge">
<title>Node2&#45;&gt;Node6</title>
<path fill="none" stroke="midnightblue" d="M703.53,-218.2C741.68,-214.46 792.41,-203.18 823.5,-171 849.27,-144.33 839.02,-126.81 843.5,-90 844.95,-78.09 850.67,-72.63 843.5,-63 815.06,-24.79 757.6,-15.53 719.32,-13.88"/>
<polygon fill="midnightblue" stroke="midnightblue" points="719.17,-10.37 709.08,-13.59 718.98,-17.37 719.17,-10.37"/>
</g>
<!-- Node8 -->
<g id="node8" class="node">
<title>Node8</title>
<g id="a_node8"><a xlink:href="_i_e_a_p_i_8hpp.html" target="_top" xlink:title=" ">
<polygon fill="white" stroke="black" points="714,-135.5 714,-161.5 797,-161.5 797,-135.5 714,-135.5"/>
<text text-anchor="middle" x="755.5" y="-144.7" font-family="Source Sans Pro" font-size="16.00">IEAPI.hpp</text>
</a>
</g>
</g>
<!-- Node2&#45;&gt;Node8 -->
<g id="edge7" class="edge">
<title>Node2&#45;&gt;Node8</title>
<path fill="none" stroke="midnightblue" d="M670.44,-207.31C686.76,-196.22 711.05,-179.71 729.49,-167.17"/>
<polygon fill="midnightblue" stroke="midnightblue" points="731.46,-170.07 737.76,-161.55 727.53,-164.28 731.46,-170.07"/>
</g>
<!-- Node2&#45;&gt;Node10 -->
<g id="edge17" class="edge">
<title>Node2&#45;&gt;Node10</title>
<path fill="none" stroke="midnightblue" d="M601.29,-218.55C467.04,-215.59 112.53,-204.65 72.5,-171 32.92,-137.73 29.06,-71.39 30.02,-36.74"/>
<polygon fill="midnightblue" stroke="midnightblue" points="33.52,-36.83 30.46,-26.68 26.52,-36.52 33.52,-36.83"/>
</g>
<!-- Node11 -->
<g id="node11" class="node">
<title>Node11</title>
<g id="a_node11"><a xlink:title=" ">
<polygon fill="white" stroke="#bfbfbf" points="361,-135.5 361,-161.5 444,-161.5 444,-135.5 361,-135.5"/>
<text text-anchor="middle" x="402.5" y="-144.7" font-family="Source Sans Pro" font-size="16.00">GL/glew.h</text>
</a>
</g>
</g>
<!-- Node2&#45;&gt;Node11 -->
<g id="edge13" class="edge">
<title>Node2&#45;&gt;Node11</title>
<path fill="none" stroke="midnightblue" d="M601.28,-209.56C560.47,-201.05 502.15,-187.56 452.5,-171 447.58,-169.36 442.48,-167.44 437.49,-165.42"/>
<polygon fill="midnightblue" stroke="midnightblue" points="438.71,-162.14 428.13,-161.5 436,-168.59 438.71,-162.14"/>
</g>
<!-- Node12 -->
<g id="node12" class="node">
<title>Node12</title>
<g id="a_node12"><a xlink:title=" ">
<polygon fill="white" stroke="#bfbfbf" points="462,-135.5 462,-161.5 591,-161.5 591,-135.5 462,-135.5"/>
<text text-anchor="middle" x="526.5" y="-144.7" font-family="Source Sans Pro" font-size="16.00">vk_mem_alloc.h</text>
</a>
</g>
</g>
<!-- Node2&#45;&gt;Node12 -->
<g id="edge14" class="edge">
<title>Node2&#45;&gt;Node12</title>
<path fill="none" stroke="midnightblue" d="M630.84,-207.47C610.56,-196.2 580.04,-179.24 557.24,-166.58"/>
<polygon fill="midnightblue" stroke="midnightblue" points="558.74,-163.41 548.3,-161.61 555.34,-169.53 558.74,-163.41"/>
</g>
<!-- Node2&#45;&gt;Node13 -->
<g id="edge16" class="edge">
<title>Node2&#45;&gt;Node13</title>
<path fill="none" stroke="midnightblue" d="M703.83,-210.13C749.69,-201.36 818.55,-187.2 877.5,-171 884.18,-169.16 891.19,-167.03 898.02,-164.83"/>
<polygon fill="midnightblue" stroke="midnightblue" points="899.44,-168.05 907.84,-161.59 897.25,-161.4 899.44,-168.05"/>
</g>
<!-- Node14 -->
<g id="node14" class="node">
<title>Node14</title>
<g id="a_node14"><a xlink:title=" ">
<polygon fill="white" stroke="#bfbfbf" points="609.5,-135.5 609.5,-161.5 695.5,-161.5 695.5,-135.5 609.5,-135.5"/>
<text text-anchor="middle" x="652.5" y="-144.7" font-family="Source Sans Pro" font-size="16.00">functional</text>
</a>
</g>
</g>
<!-- Node2&#45;&gt;Node14 -->
<g id="edge20" class="edge">
<title>Node2&#45;&gt;Node14</title>
<path fill="none" stroke="midnightblue" d="M652.5,-207.31C652.5,-197.47 652.5,-183.38 652.5,-171.57"/>
<polygon fill="midnightblue" stroke="midnightblue" points="656,-171.55 652.5,-161.55 649,-171.55 656,-171.55"/>
</g>
<!-- Node3&#45;&gt;Node4 -->
<g id="edge3" class="edge">
<title>Node3&#45;&gt;Node4</title>
<path fill="none" stroke="midnightblue" d="M215.43,-126.43C209.53,-101.92 199.85,-61.66 193.84,-36.69"/>
<polygon fill="midnightblue" stroke="midnightblue" points="197.18,-35.62 191.44,-26.71 190.38,-37.26 197.18,-35.62"/>
</g>
<!-- Node3&#45;&gt;Node5 -->
<g id="edge4" class="edge">
<title>Node3&#45;&gt;Node5</title>
<path fill="none" stroke="midnightblue" d="M343.2,-127.18C345.99,-126.78 348.76,-126.38 351.5,-126 473.51,-108.97 616.02,-93.47 700.02,-84.78"/>
<polygon fill="midnightblue" stroke="midnightblue" points="700.38,-88.26 709.97,-83.76 699.66,-81.3 700.38,-88.26"/>
</g>
<!-- Node3&#45;&gt;Node6 -->
<g id="edge5" class="edge">
<title>Node3&#45;&gt;Node6</title>
<path fill="none" stroke="midnightblue" d="M334.87,-126.43C398.32,-114.28 470.51,-99.57 501.5,-90 553.89,-73.82 611.95,-47.94 647.59,-31.08"/>
<polygon fill="midnightblue" stroke="midnightblue" points="649.51,-34.04 657.03,-26.58 646.5,-27.72 649.51,-34.04"/>
</g>
<!-- Node7 -->
<g id="node7" class="node">
<title>Node7</title>
<g id="a_node7"><a xlink:title=" ">
<polygon fill="white" stroke="#bfbfbf" points="216.5,-63.5 216.5,-89.5 290.5,-89.5 290.5,-63.5 216.5,-63.5"/>
<text text-anchor="middle" x="253.5" y="-72.7" font-family="Source Sans Pro" font-size="16.00">memory</text>
</a>
</g>
</g>
<!-- Node3&#45;&gt;Node7 -->
<g id="edge6" class="edge">
<title>Node3&#45;&gt;Node7</title>
<path fill="none" stroke="midnightblue" d="M230.4,-126.5C234.54,-117.72 239.34,-107.54 243.49,-98.73"/>
<polygon fill="midnightblue" stroke="midnightblue" points="246.73,-100.07 247.83,-89.53 240.4,-97.08 246.73,-100.07"/>
</g>
<!-- Node8&#45;&gt;Node6 -->
<g id="edge12" class="edge">
<title>Node8&#45;&gt;Node6</title>
<path fill="none" stroke="midnightblue" d="M740.18,-135.42C727.68,-124.76 710.52,-108.14 700.5,-90 691.4,-73.53 686.58,-52.65 684.07,-37.02"/>
<polygon fill="midnightblue" stroke="midnightblue" points="687.48,-36.13 682.63,-26.71 680.55,-37.1 687.48,-36.13"/>
</g>
<!-- Node9 -->
<g id="node9" class="node">
<title>Node9</title>
<g id="a_node9"><a xlink:href="_i_e_version_8hpp.html" target="_top" xlink:title=" ">
<polygon fill="white" stroke="black" points="382.5,-63.5 382.5,-89.5 492.5,-89.5 492.5,-63.5 382.5,-63.5"/>
<text text-anchor="middle" x="437.5" y="-72.7" font-family="Source Sans Pro" font-size="16.00">IEVersion.hpp</text>
</a>
</g>
</g>
<!-- Node8&#45;&gt;Node9 -->
<g id="edge8" class="edge">
<title>Node8&#45;&gt;Node9</title>
<path fill="none" stroke="midnightblue" d="M729.96,-135.44C721.94,-132.01 712.97,-128.52 704.5,-126 637.05,-105.92 557.41,-92.76 502.77,-85.28"/>
<polygon fill="midnightblue" stroke="midnightblue" points="502.9,-81.77 492.53,-83.91 501.97,-88.71 502.9,-81.77"/>
</g>
<!-- Node9&#45;&gt;Node4 -->
<g id="edge11" class="edge">
<title>Node9&#45;&gt;Node4</title>
<path fill="none" stroke="midnightblue" d="M388.31,-63.45C341.33,-51.94 271.45,-34.82 228,-24.18"/>
<polygon fill="midnightblue" stroke="midnightblue" points="228.63,-20.73 218.08,-21.75 226.96,-27.53 228.63,-20.73"/>
</g>
<!-- Node9&#45;&gt;Node6 -->
<g id="edge10" class="edge">
<title>Node9&#45;&gt;Node6</title>
<path fill="none" stroke="midnightblue" d="M485.71,-63.45C532.15,-51.84 601.46,-34.51 643.94,-23.89"/>
<polygon fill="midnightblue" stroke="midnightblue" points="645.02,-27.23 653.88,-21.41 643.33,-20.44 645.02,-27.23"/>
</g>
<!-- Node9&#45;&gt;Node10 -->
<g id="edge9" class="edge">
<title>Node9&#45;&gt;Node10</title>
<path fill="none" stroke="midnightblue" d="M382.32,-67.21C300.08,-54.85 147.12,-31.87 73.38,-20.79"/>
<polygon fill="midnightblue" stroke="midnightblue" points="73.51,-17.27 63.1,-19.25 72.47,-24.19 73.51,-17.27"/>
</g>
</g>
</svg>
