<?xml version="1.0" encoding="UTF-8" standalone="no"?>
<!DOCTYPE svg PUBLIC "-//W3C//DTD SVG 1.1//EN"
 "http://www.w3.org/Graphics/SVG/1.1/DTD/svg11.dtd">
<!-- Generated by graphviz version 2.43.0 (0)
 -->
<!-- Title: Illumination&#45;Engine/src/GraphicsModule/Renderable/IERenderable.hpp Pages: 1 -->
<svg width="410pt" height="251pt"
 viewBox="0.00 0.00 410.00 251.00" xmlns="http://www.w3.org/2000/svg" xmlns:xlink="http://www.w3.org/1999/xlink">
<g id="graph0" class="graph" transform="scale(1 1) rotate(0) translate(4 247)">
<title>Illumination&#45;Engine/src/GraphicsModule/Renderable/IERenderable.hpp</title>
<polygon fill="white" stroke="transparent" points="-4,4 -4,-247 406,-247 406,4 -4,4"/>
<!-- Node1 -->
<g id="node1" class="node">
<title>Node1</title>
<g id="a_node1"><a xlink:title=" ">
<polygon fill="#bfbfbf" stroke="black" points="71,-180.5 71,-242.5 298,-242.5 298,-180.5 71,-180.5"/>
<text text-anchor="start" x="79" y="-225.7" font-family="Source Sans Pro" font-size="16.00">Illumination&#45;Engine</text>
<text text-anchor="start" x="79" y="-207.7" font-family="Source Sans Pro" font-size="16.00">/src/GraphicsModule</text>
<text text-anchor="middle" x="184.5" y="-189.7" font-family="Source Sans Pro" font-size="16.00">/Renderable/IERenderable.hpp</text>
</a>
</g>
</g>
<!-- Node2 -->
<g id="node2" class="node">
<title>Node2</title>
<g id="a_node2"><a xlink:href="_i_e_render_engine_8cpp.html" target="_top" xlink:title=" ">
<polygon fill="white" stroke="black" points="0,-81.5 0,-143.5 159,-143.5 159,-81.5 0,-81.5"/>
<text text-anchor="start" x="8" y="-126.7" font-family="Source Sans Pro" font-size="16.00">Illumination&#45;Engine</text>
<text text-anchor="start" x="8" y="-108.7" font-family="Source Sans Pro" font-size="16.00">/src/GraphicsModule</text>
<text text-anchor="middle" x="79.5" y="-90.7" font-family="Source Sans Pro" font-size="16.00">/IERenderEngine.cpp</text>
</a>
</g>
</g>
<!-- Node1&#45;&gt;Node2 -->
<g id="edge1" class="edge">
<title>Node1&#45;&gt;Node2</title>
<path fill="none" stroke="midnightblue" d="M144.27,-173.33C133.64,-163.51 122.3,-153.04 112.13,-143.64"/>
<polygon fill="midnightblue" stroke="midnightblue" points="142.13,-176.13 151.85,-180.34 146.88,-170.98 142.13,-176.13"/>
</g>
<!-- Node4 -->
<g id="node4" class="node">
<title>Node4</title>
<g id="a_node4"><a xlink:href="_i_e_renderable_8cpp.html" target="_top" xlink:title=" ">
<polygon fill="white" stroke="black" points="177,-81.5 177,-143.5 402,-143.5 402,-81.5 177,-81.5"/>
<text text-anchor="start" x="185" y="-126.7" font-family="Source Sans Pro" font-size="16.00">Illumination&#45;Engine</text>
<text text-anchor="start" x="185" y="-108.7" font-family="Source Sans Pro" font-size="16.00">/src/GraphicsModule</text>
<text text-anchor="middle" x="289.5" y="-90.7" font-family="Source Sans Pro" font-size="16.00">/Renderable/IERenderable.cpp</text>
</a>
</g>
</g>
<!-- Node1&#45;&gt;Node4 -->
<g id="edge3" class="edge">
<title>Node1&#45;&gt;Node4</title>
<path fill="none" stroke="midnightblue" d="M224.73,-173.33C235.36,-163.51 246.7,-153.04 256.87,-143.64"/>
<polygon fill="midnightblue" stroke="midnightblue" points="222.12,-170.98 217.15,-180.34 226.87,-176.13 222.12,-170.98"/>
</g>
<!-- Node3 -->
<g id="node3" class="node">
<title>Node3</title>
<g id="a_node3"><a xlink:href="main_8cpp.html" target="_top" xlink:title=" ">
<polygon fill="white" stroke="black" points="4.5,-0.5 4.5,-44.5 154.5,-44.5 154.5,-0.5 4.5,-0.5"/>
<text text-anchor="start" x="12.5" y="-27.7" font-family="Source Sans Pro" font-size="16.00">Illumination&#45;Engine</text>
<text text-anchor="middle" x="79.5" y="-9.7" font-family="Source Sans Pro" font-size="16.00">/src/main.cpp</text>
</a>
</g>
</g>
<!-- Node2&#45;&gt;Node3 -->
<g id="edge2" class="edge">
<title>Node2&#45;&gt;Node3</title>
<path fill="none" stroke="midnightblue" d="M79.5,-71.09C79.5,-61.97 79.5,-52.64 79.5,-44.68"/>
<polygon fill="midnightblue" stroke="midnightblue" points="76,-71.22 79.5,-81.22 83,-71.22 76,-71.22"/>
</g>
</g>
</svg>
