<?xml version="1.0" encoding="UTF-8" standalone="no"?>
<!DOCTYPE svg PUBLIC "-//W3C//DTD SVG 1.1//EN"
 "http://www.w3.org/Graphics/SVG/1.1/DTD/svg11.dtd">
<!-- Generated by graphviz version 2.43.0 (0)
 -->
<!-- Title: Illumination&#45;Engine/src/GraphicsModule/Buffer/IEBuffer.hpp Pages: 1 -->
<svg width="3414pt" height="818pt"
 viewBox="0.00 0.00 3414.00 818.00" xmlns="http://www.w3.org/2000/svg" xmlns:xlink="http://www.w3.org/1999/xlink">
<g id="graph0" class="graph" transform="scale(1 1) rotate(0) translate(4 814)">
<title>Illumination&#45;Engine/src/GraphicsModule/Buffer/IEBuffer.hpp</title>
<polygon fill="white" stroke="transparent" points="-4,4 -4,-814 3410,-814 3410,4 -4,4"/>
<!-- Node1 -->
<g id="node1" class="node">
<title>Node1</title>
<g id="a_node1"><a xlink:title=" ">
<polygon fill="#bfbfbf" stroke="black" points="2345,-747.5 2345,-809.5 2502,-809.5 2502,-747.5 2345,-747.5"/>
<text text-anchor="start" x="2353" y="-792.7" font-family="Source Sans Pro" font-size="16.00">Illumination&#45;Engine</text>
<text text-anchor="start" x="2353" y="-774.7" font-family="Source Sans Pro" font-size="16.00">/src/GraphicsModule</text>
<text text-anchor="middle" x="2423.5" y="-756.7" font-family="Source Sans Pro" font-size="16.00">/Buffer/IEBuffer.hpp</text>
</a>
</g>
</g>
<!-- Node2 -->
<g id="node2" class="node">
<title>Node2</title>
<g id="a_node2"><a xlink:href="_i_e_buffer_8cpp.html" target="_top" xlink:title=" ">
<polygon fill="white" stroke="black" points="0,-81.5 0,-143.5 157,-143.5 157,-81.5 0,-81.5"/>
<text text-anchor="start" x="8" y="-126.7" font-family="Source Sans Pro" font-size="16.00">Illumination&#45;Engine</text>
<text text-anchor="start" x="8" y="-108.7" font-family="Source Sans Pro" font-size="16.00">/src/GraphicsModule</text>
<text text-anchor="middle" x="78.5" y="-90.7" font-family="Source Sans Pro" font-size="16.00">/Buffer/IEBuffer.cpp</text>
</a>
</g>
</g>
<!-- Node1&#45;&gt;Node2 -->
<g id="edge1" class="edge">
<title>Node1&#45;&gt;Node2</title>
<path fill="none" stroke="midnightblue" d="M2334.86,-776.66C1957.31,-771.91 502.5,-741.5 502.5,-554.5 502.5,-554.5 502.5,-554.5 502.5,-327.5 502.5,-289 276.86,-192.79 154.79,-143.56"/>
<polygon fill="midnightblue" stroke="midnightblue" points="2334.87,-780.16 2344.91,-776.78 2334.96,-773.16 2334.87,-780.16"/>
</g>
<!-- Node3 -->
<g id="node3" class="node">
<title>Node3</title>
<g id="a_node3"><a xlink:href="_i_e_buffer_memory_barrier_8hpp.html" target="_top" xlink:title=" ">
<polygon fill="white" stroke="black" points="1697.5,-630.5 1697.5,-710.5 1969.5,-710.5 1969.5,-630.5 1697.5,-630.5"/>
<text text-anchor="start" x="1705.5" y="-693.7" font-family="Source Sans Pro" font-size="16.00">Illumination&#45;Engine</text>
<text text-anchor="start" x="1705.5" y="-675.7" font-family="Source Sans Pro" font-size="16.00">/src/GraphicsModule</text>
<text text-anchor="start" x="1705.5" y="-657.7" font-family="Source Sans Pro" font-size="16.00">/CommandBuffer/DependencyStructs</text>
<text text-anchor="middle" x="1833.5" y="-639.7" font-family="Source Sans Pro" font-size="16.00">/IEBufferMemoryBarrier.hpp</text>
</a>
</g>
</g>
<!-- Node1&#45;&gt;Node3 -->
<g id="edge2" class="edge">
<title>Node1&#45;&gt;Node3</title>
<path fill="none" stroke="midnightblue" d="M2334.79,-764.33C2252.18,-751.75 2125.73,-731.7 2016.5,-711 2001.33,-708.13 1985.49,-704.96 1969.75,-701.7"/>
<polygon fill="midnightblue" stroke="midnightblue" points="2334.48,-767.82 2344.89,-765.86 2335.53,-760.9 2334.48,-767.82"/>
</g>
<!-- Node7 -->
<g id="node7" class="node">
<title>Node7</title>
<g id="a_node7"><a xlink:href="_i_e_command_buffer_8hpp.html" target="_top" xlink:title=" ">
<polygon fill="white" stroke="black" points="1232,-405.5 1232,-467.5 1527,-467.5 1527,-405.5 1232,-405.5"/>
<text text-anchor="start" x="1240" y="-450.7" font-family="Source Sans Pro" font-size="16.00">Illumination&#45;Engine</text>
<text text-anchor="start" x="1240" y="-432.7" font-family="Source Sans Pro" font-size="16.00">/src/GraphicsModule</text>
<text text-anchor="middle" x="1379.5" y="-414.7" font-family="Source Sans Pro" font-size="16.00">/CommandBuffer/IECommandBuffer.hpp</text>
</a>
</g>
</g>
<!-- Node1&#45;&gt;Node7 -->
<g id="edge37" class="edge">
<title>Node1&#45;&gt;Node7</title>
<path fill="none" stroke="midnightblue" d="M2334.55,-777.79C2194.95,-776.39 1916.78,-766.1 1688.5,-711 1553.4,-678.39 1483.06,-704.3 1398.5,-594 1370.61,-557.62 1371.08,-501.85 1374.74,-467.63"/>
<polygon fill="midnightblue" stroke="midnightblue" points="2334.73,-781.29 2344.76,-777.88 2334.8,-774.29 2334.73,-781.29"/>
</g>
<!-- Node16 -->
<g id="node16" class="node">
<title>Node16</title>
<g id="a_node16"><a xlink:href="_i_e_image_8cpp.html" target="_top" xlink:title=" ">
<polygon fill="white" stroke="black" points="2845,-81.5 2845,-143.5 3002,-143.5 3002,-81.5 2845,-81.5"/>
<text text-anchor="start" x="2853" y="-126.7" font-family="Source Sans Pro" font-size="16.00">Illumination&#45;Engine</text>
<text text-anchor="start" x="2853" y="-108.7" font-family="Source Sans Pro" font-size="16.00">/src/GraphicsModule</text>
<text text-anchor="middle" x="2923.5" y="-90.7" font-family="Source Sans Pro" font-size="16.00">/Image/IEImage.cpp</text>
</a>
</g>
</g>
<!-- Node1&#45;&gt;Node16 -->
<g id="edge40" class="edge">
<title>Node1&#45;&gt;Node16</title>
<path fill="none" stroke="midnightblue" d="M2511.29,-747.28C2530.42,-737.8 2549.42,-725.83 2564.5,-711 2619.77,-656.64 2641.5,-632.02 2641.5,-554.5 2641.5,-554.5 2641.5,-554.5 2641.5,-327.5 2641.5,-261.08 2619.63,-228.04 2665.5,-180 2719.14,-123.83 2761.7,-164.89 2836.5,-144 2839.27,-143.23 2842.09,-142.41 2844.92,-141.56"/>
<polygon fill="midnightblue" stroke="midnightblue" points="2509.73,-744.14 2502.2,-751.59 2512.73,-750.46 2509.73,-744.14"/>
</g>
<!-- Node17 -->
<g id="node17" class="node">
<title>Node17</title>
<g id="a_node17"><a xlink:href="_i_e_texture_8cpp.html" target="_top" xlink:title=" ">
<polygon fill="white" stroke="black" points="3020,-81.5 3020,-143.5 3181,-143.5 3181,-81.5 3020,-81.5"/>
<text text-anchor="start" x="3028" y="-126.7" font-family="Source Sans Pro" font-size="16.00">Illumination&#45;Engine</text>
<text text-anchor="start" x="3028" y="-108.7" font-family="Source Sans Pro" font-size="16.00">/src/GraphicsModule</text>
<text text-anchor="middle" x="3100.5" y="-90.7" font-family="Source Sans Pro" font-size="16.00">/Image/IETexture.cpp</text>
</a>
</g>
</g>
<!-- Node1&#45;&gt;Node17 -->
<g id="edge41" class="edge">
<title>Node1&#45;&gt;Node17</title>
<path fill="none" stroke="midnightblue" d="M2512.51,-761.92C2546.84,-752.14 2584.31,-736.36 2611.5,-711 2666.97,-659.28 2679.5,-630.34 2679.5,-554.5 2679.5,-554.5 2679.5,-554.5 2679.5,-327.5 2679.5,-261.08 2655.49,-225.9 2703.5,-180 2753.31,-132.38 2944.3,-159.26 3011.5,-144 3014.21,-143.39 3016.95,-142.72 3019.71,-142.01"/>
<polygon fill="midnightblue" stroke="midnightblue" points="2511.18,-758.66 2502.45,-764.65 2513.01,-765.41 2511.18,-758.66"/>
</g>
<!-- Node21 -->
<g id="node21" class="node">
<title>Node21</title>
<g id="a_node21"><a xlink:href="_i_e_mesh_8cpp.html" target="_top" xlink:title=" ">
<polygon fill="white" stroke="black" points="2644,-81.5 2644,-143.5 2827,-143.5 2827,-81.5 2644,-81.5"/>
<text text-anchor="start" x="2652" y="-126.7" font-family="Source Sans Pro" font-size="16.00">Illumination&#45;Engine</text>
<text text-anchor="start" x="2652" y="-108.7" font-family="Source Sans Pro" font-size="16.00">/src/GraphicsModule</text>
<text text-anchor="middle" x="2735.5" y="-90.7" font-family="Source Sans Pro" font-size="16.00">/Renderable/IEMesh.cpp</text>
</a>
</g>
</g>
<!-- Node1&#45;&gt;Node21 -->
<g id="edge42" class="edge">
<title>Node1&#45;&gt;Node21</title>
<path fill="none" stroke="midnightblue" d="M2479.57,-741.18C2532.4,-702.06 2603.5,-634.55 2603.5,-554.5 2603.5,-554.5 2603.5,-554.5 2603.5,-327.5 2603.5,-261.08 2590.54,-235.19 2627.5,-180 2637.36,-165.27 2651.7,-153.23 2666.73,-143.64"/>
<polygon fill="midnightblue" stroke="midnightblue" points="2477.3,-738.5 2471.26,-747.21 2481.41,-744.17 2477.3,-738.5"/>
</g>
<!-- Node23 -->
<g id="node23" class="node">
<title>Node23</title>
<g id="a_node23"><a xlink:href="_i_e_descriptor_set_8cpp.html" target="_top" xlink:title=" ">
<polygon fill="white" stroke="black" points="3199,-81.5 3199,-143.5 3406,-143.5 3406,-81.5 3199,-81.5"/>
<text text-anchor="start" x="3207" y="-126.7" font-family="Source Sans Pro" font-size="16.00">Illumination&#45;Engine</text>
<text text-anchor="start" x="3207" y="-108.7" font-family="Source Sans Pro" font-size="16.00">/src/GraphicsModule</text>
<text text-anchor="middle" x="3302.5" y="-90.7" font-family="Source Sans Pro" font-size="16.00">/Shader/IEDescriptorSet.cpp</text>
</a>
</g>
</g>
<!-- Node1&#45;&gt;Node23 -->
<g id="edge51" class="edge">
<title>Node1&#45;&gt;Node23</title>
<path fill="none" stroke="midnightblue" d="M2512.18,-770.86C2559.75,-763.07 2616.45,-746.4 2655.5,-711 2710.93,-660.75 2717.5,-629.31 2717.5,-554.5 2717.5,-554.5 2717.5,-554.5 2717.5,-327.5 2717.5,-301.78 3040.59,-196.1 3206.55,-143.51"/>
<polygon fill="midnightblue" stroke="midnightblue" points="2511.54,-767.42 2502.18,-772.4 2512.6,-774.34 2511.54,-767.42"/>
</g>
<!-- Node28 -->
<g id="node28" class="node">
<title>Node28</title>
<g id="a_node28"><a xlink:href="_i_e_dependency_8cpp.html" target="_top" xlink:title=" ">
<polygon fill="white" stroke="black" points="1935.5,-189.5 1935.5,-251.5 2201.5,-251.5 2201.5,-189.5 1935.5,-189.5"/>
<text text-anchor="start" x="1943.5" y="-234.7" font-family="Source Sans Pro" font-size="16.00">Illumination&#45;Engine</text>
<text text-anchor="start" x="1943.5" y="-216.7" font-family="Source Sans Pro" font-size="16.00">/src/GraphicsModule</text>
<text text-anchor="middle" x="2068.5" y="-198.7" font-family="Source Sans Pro" font-size="16.00">/CommandBuffer/IEDependency.cpp</text>
</a>
</g>
</g>
<!-- Node1&#45;&gt;Node28 -->
<g id="edge38" class="edge">
<title>Node1&#45;&gt;Node28</title>
<path fill="none" stroke="midnightblue" d="M2389.11,-739.55C2382.24,-730.63 2375.58,-720.84 2370.5,-711 2337.31,-646.69 2325.5,-626.87 2325.5,-554.5 2325.5,-554.5 2325.5,-554.5 2325.5,-435.5 2325.5,-344.05 2228.22,-284.13 2153.36,-251.55"/>
<polygon fill="midnightblue" stroke="midnightblue" points="2386.46,-741.84 2395.44,-747.47 2391.93,-737.47 2386.46,-741.84"/>
</g>
<!-- Node29 -->
<g id="node29" class="node">
<title>Node29</title>
<g id="a_node29"><a xlink:href="_i_e_copy_buffer_to_image_info_8hpp.html" target="_top" xlink:title=" ">
<polygon fill="white" stroke="black" points="2025.5,-630.5 2025.5,-710.5 2297.5,-710.5 2297.5,-630.5 2025.5,-630.5"/>
<text text-anchor="start" x="2033.5" y="-693.7" font-family="Source Sans Pro" font-size="16.00">Illumination&#45;Engine</text>
<text text-anchor="start" x="2033.5" y="-675.7" font-family="Source Sans Pro" font-size="16.00">/src/GraphicsModule</text>
<text text-anchor="start" x="2033.5" y="-657.7" font-family="Source Sans Pro" font-size="16.00">/CommandBuffer/DependencyStructs</text>
<text text-anchor="middle" x="2161.5" y="-639.7" font-family="Source Sans Pro" font-size="16.00">/IECopyBufferToImageInfo.hpp</text>
</a>
</g>
</g>
<!-- Node1&#45;&gt;Node29 -->
<g id="edge34" class="edge">
<title>Node1&#45;&gt;Node29</title>
<path fill="none" stroke="midnightblue" d="M2339.69,-743.59C2313.72,-733.09 2284.89,-721.42 2258.12,-710.59"/>
<polygon fill="midnightblue" stroke="midnightblue" points="2338.54,-746.9 2349.12,-747.41 2341.16,-740.41 2338.54,-746.9"/>
</g>
<!-- Node31 -->
<g id="node31" class="node">
<title>Node31</title>
<g id="a_node31"><a xlink:href="_i_e_dependent_8cpp.html" target="_top" xlink:title=" ">
<polygon fill="white" stroke="black" points="2746,-639.5 2746,-701.5 3003,-701.5 3003,-639.5 2746,-639.5"/>
<text text-anchor="start" x="2754" y="-684.7" font-family="Source Sans Pro" font-size="16.00">Illumination&#45;Engine</text>
<text text-anchor="start" x="2754" y="-666.7" font-family="Source Sans Pro" font-size="16.00">/src/GraphicsModule</text>
<text text-anchor="middle" x="2874.5" y="-648.7" font-family="Source Sans Pro" font-size="16.00">/CommandBuffer/IEDependent.cpp</text>
</a>
</g>
</g>
<!-- Node1&#45;&gt;Node31 -->
<g id="edge39" class="edge">
<title>Node1&#45;&gt;Node31</title>
<path fill="none" stroke="midnightblue" d="M2512.36,-759.71C2574.05,-747.02 2658.03,-729.06 2731.5,-711 2743.51,-708.05 2756.04,-704.81 2768.47,-701.51"/>
<polygon fill="midnightblue" stroke="midnightblue" points="2511.36,-756.34 2502.27,-761.78 2512.77,-763.2 2511.36,-756.34"/>
</g>
<!-- Node32 -->
<g id="node32" class="node">
<title>Node32</title>
<g id="a_node32"><a xlink:href="_i_e_mesh_8hpp.html" target="_top" xlink:title=" ">
<polygon fill="white" stroke="black" points="2391,-297.5 2391,-359.5 2576,-359.5 2576,-297.5 2391,-297.5"/>
<text text-anchor="start" x="2399" y="-342.7" font-family="Source Sans Pro" font-size="16.00">Illumination&#45;Engine</text>
<text text-anchor="start" x="2399" y="-324.7" font-family="Source Sans Pro" font-size="16.00">/src/GraphicsModule</text>
<text text-anchor="middle" x="2483.5" y="-306.7" font-family="Source Sans Pro" font-size="16.00">/Renderable/IEMesh.hpp</text>
</a>
</g>
</g>
<!-- Node1&#45;&gt;Node32 -->
<g id="edge43" class="edge">
<title>Node1&#45;&gt;Node32</title>
<path fill="none" stroke="midnightblue" d="M2428.86,-737.49C2440.71,-649.01 2468.92,-438.35 2479.45,-359.75"/>
<polygon fill="midnightblue" stroke="midnightblue" points="2425.39,-737.03 2427.53,-747.41 2432.33,-737.96 2425.39,-737.03"/>
</g>
<!-- Node33 -->
<g id="node33" class="node">
<title>Node33</title>
<g id="a_node33"><a xlink:href="_i_e_renderable_8hpp.html" target="_top" xlink:title=" ">
<polygon fill="white" stroke="black" points="2224,-189.5 2224,-251.5 2451,-251.5 2451,-189.5 2224,-189.5"/>
<text text-anchor="start" x="2232" y="-234.7" font-family="Source Sans Pro" font-size="16.00">Illumination&#45;Engine</text>
<text text-anchor="start" x="2232" y="-216.7" font-family="Source Sans Pro" font-size="16.00">/src/GraphicsModule</text>
<text text-anchor="middle" x="2337.5" y="-198.7" font-family="Source Sans Pro" font-size="16.00">/Renderable/IERenderable.hpp</text>
</a>
</g>
</g>
<!-- Node1&#45;&gt;Node33 -->
<g id="edge50" class="edge">
<title>Node1&#45;&gt;Node33</title>
<path fill="none" stroke="midnightblue" d="M2406,-737.72C2388.29,-693.77 2363.5,-620.47 2363.5,-554.5 2363.5,-554.5 2363.5,-554.5 2363.5,-435.5 2363.5,-369.63 2351.21,-293.18 2343.53,-251.84"/>
<polygon fill="midnightblue" stroke="midnightblue" points="2402.85,-739.25 2409.89,-747.17 2409.32,-736.59 2402.85,-739.25"/>
</g>
<!-- Node4 -->
<g id="node4" class="node">
<title>Node4</title>
<g id="a_node4"><a xlink:href="_i_e_buffer_memory_barrier_8cpp.html" target="_top" xlink:title=" ">
<polygon fill="white" stroke="black" points="1697.5,-513.5 1697.5,-593.5 1969.5,-593.5 1969.5,-513.5 1697.5,-513.5"/>
<text text-anchor="start" x="1705.5" y="-576.7" font-family="Source Sans Pro" font-size="16.00">Illumination&#45;Engine</text>
<text text-anchor="start" x="1705.5" y="-558.7" font-family="Source Sans Pro" font-size="16.00">/src/GraphicsModule</text>
<text text-anchor="start" x="1705.5" y="-540.7" font-family="Source Sans Pro" font-size="16.00">/CommandBuffer/DependencyStructs</text>
<text text-anchor="middle" x="1833.5" y="-522.7" font-family="Source Sans Pro" font-size="16.00">/IEBufferMemoryBarrier.cpp</text>
</a>
</g>
</g>
<!-- Node3&#45;&gt;Node4 -->
<g id="edge3" class="edge">
<title>Node3&#45;&gt;Node4</title>
<path fill="none" stroke="midnightblue" d="M1833.5,-620.03C1833.5,-611.19 1833.5,-602.08 1833.5,-593.58"/>
<polygon fill="midnightblue" stroke="midnightblue" points="1830,-620.25 1833.5,-630.25 1837,-620.25 1830,-620.25"/>
</g>
<!-- Node5 -->
<g id="node5" class="node">
<title>Node5</title>
<g id="a_node5"><a xlink:href="_i_e_dependency_info_8hpp.html" target="_top" xlink:title=" ">
<polygon fill="white" stroke="black" points="1407.5,-513.5 1407.5,-593.5 1679.5,-593.5 1679.5,-513.5 1407.5,-513.5"/>
<text text-anchor="start" x="1415.5" y="-576.7" font-family="Source Sans Pro" font-size="16.00">Illumination&#45;Engine</text>
<text text-anchor="start" x="1415.5" y="-558.7" font-family="Source Sans Pro" font-size="16.00">/src/GraphicsModule</text>
<text text-anchor="start" x="1415.5" y="-540.7" font-family="Source Sans Pro" font-size="16.00">/CommandBuffer/DependencyStructs</text>
<text text-anchor="middle" x="1543.5" y="-522.7" font-family="Source Sans Pro" font-size="16.00">/IEDependencyInfo.hpp</text>
</a>
</g>
</g>
<!-- Node3&#45;&gt;Node5 -->
<g id="edge4" class="edge">
<title>Node3&#45;&gt;Node5</title>
<path fill="none" stroke="midnightblue" d="M1725.37,-626.62C1698.14,-615.82 1669.05,-604.29 1642.31,-593.68"/>
<polygon fill="midnightblue" stroke="midnightblue" points="1724.33,-629.97 1734.91,-630.41 1726.91,-623.47 1724.33,-629.97"/>
</g>
<!-- Node6 -->
<g id="node6" class="node">
<title>Node6</title>
<g id="a_node6"><a xlink:href="_i_e_dependency_info_8cpp.html" target="_top" xlink:title=" ">
<polygon fill="white" stroke="black" points="1545.5,-396.5 1545.5,-476.5 1817.5,-476.5 1817.5,-396.5 1545.5,-396.5"/>
<text text-anchor="start" x="1553.5" y="-459.7" font-family="Source Sans Pro" font-size="16.00">Illumination&#45;Engine</text>
<text text-anchor="start" x="1553.5" y="-441.7" font-family="Source Sans Pro" font-size="16.00">/src/GraphicsModule</text>
<text text-anchor="start" x="1553.5" y="-423.7" font-family="Source Sans Pro" font-size="16.00">/CommandBuffer/DependencyStructs</text>
<text text-anchor="middle" x="1681.5" y="-405.7" font-family="Source Sans Pro" font-size="16.00">/IEDependencyInfo.cpp</text>
</a>
</g>
</g>
<!-- Node5&#45;&gt;Node6 -->
<g id="edge5" class="edge">
<title>Node5&#45;&gt;Node6</title>
<path fill="none" stroke="midnightblue" d="M1598.38,-506.76C1610.38,-496.77 1622.96,-486.28 1634.61,-476.58"/>
<polygon fill="midnightblue" stroke="midnightblue" points="1596.05,-504.15 1590.61,-513.25 1600.53,-509.53 1596.05,-504.15"/>
</g>
<!-- Node5&#45;&gt;Node7 -->
<g id="edge6" class="edge">
<title>Node5&#45;&gt;Node7</title>
<path fill="none" stroke="midnightblue" d="M1479.15,-507.38C1460.07,-493.99 1439.64,-479.67 1422.29,-467.5"/>
<polygon fill="midnightblue" stroke="midnightblue" points="1477.32,-510.37 1487.52,-513.25 1481.34,-504.64 1477.32,-510.37"/>
</g>
<!-- Node8 -->
<g id="node8" class="node">
<title>Node8</title>
<g id="a_node8"><a xlink:href="_i_e_command_buffer_8cpp.html" target="_top" xlink:title=" ">
<polygon fill="white" stroke="black" points="175,-81.5 175,-143.5 468,-143.5 468,-81.5 175,-81.5"/>
<text text-anchor="start" x="183" y="-126.7" font-family="Source Sans Pro" font-size="16.00">Illumination&#45;Engine</text>
<text text-anchor="start" x="183" y="-108.7" font-family="Source Sans Pro" font-size="16.00">/src/GraphicsModule</text>
<text text-anchor="middle" x="321.5" y="-90.7" font-family="Source Sans Pro" font-size="16.00">/CommandBuffer/IECommandBuffer.cpp</text>
</a>
</g>
</g>
<!-- Node7&#45;&gt;Node8 -->
<g id="edge7" class="edge">
<title>Node7&#45;&gt;Node8</title>
<path fill="none" stroke="midnightblue" d="M1260.29,-402.68C1213.78,-389.68 1160.06,-374.41 1111.5,-360 858.76,-284.98 562.44,-190.86 414.88,-143.56"/>
<polygon fill="midnightblue" stroke="midnightblue" points="1259.52,-406.1 1270.1,-405.42 1261.41,-399.36 1259.52,-406.1"/>
</g>
<!-- Node9 -->
<g id="node9" class="node">
<title>Node9</title>
<g id="a_node9"><a xlink:href="_i_e_command_pool_8hpp.html" target="_top" xlink:title=" ">
<polygon fill="white" stroke="black" points="1121,-297.5 1121,-359.5 1406,-359.5 1406,-297.5 1121,-297.5"/>
<text text-anchor="start" x="1129" y="-342.7" font-family="Source Sans Pro" font-size="16.00">Illumination&#45;Engine</text>
<text text-anchor="start" x="1129" y="-324.7" font-family="Source Sans Pro" font-size="16.00">/src/GraphicsModule</text>
<text text-anchor="middle" x="1263.5" y="-306.7" font-family="Source Sans Pro" font-size="16.00">/CommandBuffer/IECommandPool.hpp</text>
</a>
</g>
</g>
<!-- Node7&#45;&gt;Node9 -->
<g id="edge8" class="edge">
<title>Node7&#45;&gt;Node9</title>
<path fill="none" stroke="midnightblue" d="M1339.02,-398.51C1325.13,-385.81 1309.75,-371.76 1296.51,-359.67"/>
<polygon fill="midnightblue" stroke="midnightblue" points="1336.83,-401.25 1346.57,-405.41 1341.55,-396.08 1336.83,-401.25"/>
</g>
<!-- Node26 -->
<g id="node26" class="node">
<title>Node26</title>
<g id="a_node26"><a xlink:href="_i_e_render_pass_8hpp.html" target="_top" xlink:title=" ">
<polygon fill="white" stroke="black" points="1424.5,-297.5 1424.5,-359.5 1652.5,-359.5 1652.5,-297.5 1424.5,-297.5"/>
<text text-anchor="start" x="1432.5" y="-342.7" font-family="Source Sans Pro" font-size="16.00">Illumination&#45;Engine</text>
<text text-anchor="start" x="1432.5" y="-324.7" font-family="Source Sans Pro" font-size="16.00">/src/GraphicsModule</text>
<text text-anchor="middle" x="1538.5" y="-306.7" font-family="Source Sans Pro" font-size="16.00">/RenderPass/IERenderPass.hpp</text>
</a>
</g>
</g>
<!-- Node7&#45;&gt;Node26 -->
<g id="edge28" class="edge">
<title>Node7&#45;&gt;Node26</title>
<path fill="none" stroke="midnightblue" d="M1433.13,-399.74C1452.66,-386.73 1474.52,-372.15 1493.25,-359.67"/>
<polygon fill="midnightblue" stroke="midnightblue" points="1431.02,-396.95 1424.64,-405.41 1434.9,-402.77 1431.02,-396.95"/>
</g>
<!-- Node10 -->
<g id="node10" class="node">
<title>Node10</title>
<g id="a_node10"><a xlink:href="_i_e_command_pool_8cpp.html" target="_top" xlink:title=" ">
<polygon fill="white" stroke="black" points="486.5,-81.5 486.5,-143.5 770.5,-143.5 770.5,-81.5 486.5,-81.5"/>
<text text-anchor="start" x="494.5" y="-126.7" font-family="Source Sans Pro" font-size="16.00">Illumination&#45;Engine</text>
<text text-anchor="start" x="494.5" y="-108.7" font-family="Source Sans Pro" font-size="16.00">/src/GraphicsModule</text>
<text text-anchor="middle" x="628.5" y="-90.7" font-family="Source Sans Pro" font-size="16.00">/CommandBuffer/IECommandPool.cpp</text>
</a>
</g>
</g>
<!-- Node9&#45;&gt;Node10 -->
<g id="edge9" class="edge">
<title>Node9&#45;&gt;Node10</title>
<path fill="none" stroke="midnightblue" d="M1206.7,-292.09C1150.14,-258.37 1059.82,-208.64 975.5,-180 891.64,-151.51 866.47,-160.77 779.5,-144 776.61,-143.44 773.69,-142.88 770.75,-142.31"/>
<polygon fill="midnightblue" stroke="midnightblue" points="1205.11,-295.21 1215.48,-297.35 1208.71,-289.21 1205.11,-295.21"/>
</g>
<!-- Node11 -->
<g id="node11" class="node">
<title>Node11</title>
<g id="a_node11"><a xlink:href="_i_e_render_engine_8hpp.html" target="_top" xlink:title=" ">
<polygon fill="white" stroke="black" points="1458,-189.5 1458,-251.5 1619,-251.5 1619,-189.5 1458,-189.5"/>
<text text-anchor="start" x="1466" y="-234.7" font-family="Source Sans Pro" font-size="16.00">Illumination&#45;Engine</text>
<text text-anchor="start" x="1466" y="-216.7" font-family="Source Sans Pro" font-size="16.00">/src/GraphicsModule</text>
<text text-anchor="middle" x="1538.5" y="-198.7" font-family="Source Sans Pro" font-size="16.00">/IERenderEngine.hpp</text>
</a>
</g>
</g>
<!-- Node9&#45;&gt;Node11 -->
<g id="edge10" class="edge">
<title>Node9&#45;&gt;Node11</title>
<path fill="none" stroke="midnightblue" d="M1351.3,-293.66C1386.29,-280.17 1426.25,-264.77 1460.24,-251.67"/>
<polygon fill="midnightblue" stroke="midnightblue" points="1349.64,-290.55 1341.57,-297.41 1352.16,-297.08 1349.64,-290.55"/>
</g>
<!-- Node11&#45;&gt;Node2 -->
<g id="edge11" class="edge">
<title>Node11&#45;&gt;Node2</title>
<path fill="none" stroke="midnightblue" d="M1447.32,-215.98C1160.84,-204.71 290.4,-168.81 165.5,-144 162.83,-143.47 160.13,-142.88 157.42,-142.23"/>
<polygon fill="midnightblue" stroke="midnightblue" points="1447.54,-219.49 1457.67,-216.39 1447.82,-212.5 1447.54,-219.49"/>
</g>
<!-- Node11&#45;&gt;Node8 -->
<g id="edge12" class="edge">
<title>Node11&#45;&gt;Node8</title>
<path fill="none" stroke="midnightblue" d="M1447.28,-213.08C1192.23,-195.13 489.48,-145.59 477.5,-144 474.49,-143.6 471.45,-143.18 468.39,-142.74"/>
<polygon fill="midnightblue" stroke="midnightblue" points="1447.41,-216.6 1457.63,-213.81 1447.9,-209.62 1447.41,-216.6"/>
</g>
<!-- Node11&#45;&gt;Node10 -->
<g id="edge13" class="edge">
<title>Node11&#45;&gt;Node10</title>
<path fill="none" stroke="midnightblue" d="M1447.82,-210.99C1260.76,-193.38 844.15,-153.72 779.5,-144 776.59,-143.56 773.65,-143.11 770.69,-142.63"/>
<polygon fill="midnightblue" stroke="midnightblue" points="1447.62,-214.49 1457.9,-211.94 1448.28,-207.52 1447.62,-214.49"/>
</g>
<!-- Node12 -->
<g id="node12" class="node">
<title>Node12</title>
<g id="a_node12"><a xlink:href="_i_e_a_p_i_8cpp.html" target="_top" xlink:title=" ">
<polygon fill="white" stroke="black" points="1282,-81.5 1282,-143.5 1439,-143.5 1439,-81.5 1282,-81.5"/>
<text text-anchor="start" x="1290" y="-126.7" font-family="Source Sans Pro" font-size="16.00">Illumination&#45;Engine</text>
<text text-anchor="start" x="1290" y="-108.7" font-family="Source Sans Pro" font-size="16.00">/src/GraphicsModule</text>
<text text-anchor="middle" x="1360.5" y="-90.7" font-family="Source Sans Pro" font-size="16.00">/IEAPI.cpp</text>
</a>
</g>
</g>
<!-- Node11&#45;&gt;Node12 -->
<g id="edge14" class="edge">
<title>Node11&#45;&gt;Node12</title>
<path fill="none" stroke="midnightblue" d="M1479.34,-184.27C1457.26,-171.12 1432.4,-156.32 1411.16,-143.67"/>
<polygon fill="midnightblue" stroke="midnightblue" points="1477.59,-187.3 1487.97,-189.41 1481.17,-181.28 1477.59,-187.3"/>
</g>
<!-- Node13 -->
<g id="node13" class="node">
<title>Node13</title>
<g id="a_node13"><a xlink:href="_i_e_camera_8cpp.html" target="_top" xlink:title=" ">
<polygon fill="white" stroke="black" points="1457,-81.5 1457,-143.5 1614,-143.5 1614,-81.5 1457,-81.5"/>
<text text-anchor="start" x="1465" y="-126.7" font-family="Source Sans Pro" font-size="16.00">Illumination&#45;Engine</text>
<text text-anchor="start" x="1465" y="-108.7" font-family="Source Sans Pro" font-size="16.00">/src/GraphicsModule</text>
<text text-anchor="middle" x="1535.5" y="-90.7" font-family="Source Sans Pro" font-size="16.00">/IECamera.cpp</text>
</a>
</g>
</g>
<!-- Node11&#45;&gt;Node13 -->
<g id="edge15" class="edge">
<title>Node11&#45;&gt;Node13</title>
<path fill="none" stroke="midnightblue" d="M1537.36,-179.31C1537.03,-167.48 1536.67,-154.75 1536.35,-143.67"/>
<polygon fill="midnightblue" stroke="midnightblue" points="1533.87,-179.51 1537.65,-189.41 1540.86,-179.31 1533.87,-179.51"/>
</g>
<!-- Node14 -->
<g id="node14" class="node">
<title>Node14</title>
<g id="a_node14"><a xlink:href="_i_e_render_engine_8cpp.html" target="_top" xlink:title=" ">
<polygon fill="white" stroke="black" points="2005,-81.5 2005,-143.5 2164,-143.5 2164,-81.5 2005,-81.5"/>
<text text-anchor="start" x="2013" y="-126.7" font-family="Source Sans Pro" font-size="16.00">Illumination&#45;Engine</text>
<text text-anchor="start" x="2013" y="-108.7" font-family="Source Sans Pro" font-size="16.00">/src/GraphicsModule</text>
<text text-anchor="middle" x="2084.5" y="-90.7" font-family="Source Sans Pro" font-size="16.00">/IERenderEngine.cpp</text>
</a>
</g>
</g>
<!-- Node11&#45;&gt;Node14 -->
<g id="edge16" class="edge">
<title>Node11&#45;&gt;Node14</title>
<path fill="none" stroke="midnightblue" d="M1609.79,-185.81C1616.03,-183.6 1622.32,-181.61 1628.5,-180 1787.07,-138.55 1835.34,-178.8 1995.5,-144 1998.53,-143.34 2001.61,-142.61 2004.7,-141.83"/>
<polygon fill="midnightblue" stroke="midnightblue" points="1608.18,-182.68 1600.04,-189.46 1610.64,-189.23 1608.18,-182.68"/>
</g>
<!-- Node11&#45;&gt;Node16 -->
<g id="edge18" class="edge">
<title>Node11&#45;&gt;Node16</title>
<path fill="none" stroke="midnightblue" d="M1608.22,-185.85C1614.96,-183.53 1621.79,-181.51 1628.5,-180 1890.49,-120.95 2572.44,-193 2836.5,-144 2839.18,-143.5 2841.88,-142.94 2844.6,-142.32"/>
<polygon fill="midnightblue" stroke="midnightblue" points="1606.6,-182.72 1598.42,-189.45 1609.02,-189.29 1606.6,-182.72"/>
</g>
<!-- Node11&#45;&gt;Node17 -->
<g id="edge19" class="edge">
<title>Node11&#45;&gt;Node17</title>
<path fill="none" stroke="midnightblue" d="M1608.21,-185.82C1614.96,-183.51 1621.79,-181.5 1628.5,-180 1928.54,-112.97 2708.92,-198.46 3011.5,-144 3014.23,-143.51 3017,-142.95 3019.77,-142.33"/>
<polygon fill="midnightblue" stroke="midnightblue" points="1606.6,-182.69 1598.41,-189.42 1609.01,-189.26 1606.6,-182.69"/>
</g>
<!-- Node18 -->
<g id="node18" class="node">
<title>Node18</title>
<g id="a_node18"><a xlink:href="_i_e_framebuffer_8cpp.html" target="_top" xlink:title=" ">
<polygon fill="white" stroke="black" points="788.5,-81.5 788.5,-143.5 1018.5,-143.5 1018.5,-81.5 788.5,-81.5"/>
<text text-anchor="start" x="796.5" y="-126.7" font-family="Source Sans Pro" font-size="16.00">Illumination&#45;Engine</text>
<text text-anchor="start" x="796.5" y="-108.7" font-family="Source Sans Pro" font-size="16.00">/src/GraphicsModule</text>
<text text-anchor="middle" x="903.5" y="-90.7" font-family="Source Sans Pro" font-size="16.00">/RenderPass/IEFramebuffer.cpp</text>
</a>
</g>
</g>
<!-- Node11&#45;&gt;Node18 -->
<g id="edge20" class="edge">
<title>Node11&#45;&gt;Node18</title>
<path fill="none" stroke="midnightblue" d="M1448,-208.75C1345.51,-195.98 1173.76,-172.73 1027.5,-144 1024.56,-143.42 1021.59,-142.82 1018.6,-142.2"/>
<polygon fill="midnightblue" stroke="midnightblue" points="1447.65,-212.24 1458,-210 1448.51,-205.29 1447.65,-212.24"/>
</g>
<!-- Node19 -->
<g id="node19" class="node">
<title>Node19</title>
<g id="a_node19"><a xlink:href="_i_e_render_pass_8cpp.html" target="_top" xlink:title=" ">
<polygon fill="white" stroke="black" points="1037,-81.5 1037,-143.5 1264,-143.5 1264,-81.5 1037,-81.5"/>
<text text-anchor="start" x="1045" y="-126.7" font-family="Source Sans Pro" font-size="16.00">Illumination&#45;Engine</text>
<text text-anchor="start" x="1045" y="-108.7" font-family="Source Sans Pro" font-size="16.00">/src/GraphicsModule</text>
<text text-anchor="middle" x="1150.5" y="-90.7" font-family="Source Sans Pro" font-size="16.00">/RenderPass/IERenderPass.cpp</text>
</a>
</g>
</g>
<!-- Node11&#45;&gt;Node19 -->
<g id="edge21" class="edge">
<title>Node11&#45;&gt;Node19</title>
<path fill="none" stroke="midnightblue" d="M1447.73,-194.7C1391.73,-179.4 1319.54,-159.68 1260.33,-143.5"/>
<polygon fill="midnightblue" stroke="midnightblue" points="1447.07,-198.15 1457.63,-197.41 1448.91,-191.4 1447.07,-198.15"/>
</g>
<!-- Node20 -->
<g id="node20" class="node">
<title>Node20</title>
<g id="a_node20"><a xlink:href="_i_e_material_8cpp.html" target="_top" xlink:title=" ">
<polygon fill="white" stroke="black" points="2425,-81.5 2425,-143.5 2626,-143.5 2626,-81.5 2425,-81.5"/>
<text text-anchor="start" x="2433" y="-126.7" font-family="Source Sans Pro" font-size="16.00">Illumination&#45;Engine</text>
<text text-anchor="start" x="2433" y="-108.7" font-family="Source Sans Pro" font-size="16.00">/src/GraphicsModule</text>
<text text-anchor="middle" x="2525.5" y="-90.7" font-family="Source Sans Pro" font-size="16.00">/Renderable/IEMaterial.cpp</text>
</a>
</g>
</g>
<!-- Node11&#45;&gt;Node20 -->
<g id="edge22" class="edge">
<title>Node11&#45;&gt;Node20</title>
<path fill="none" stroke="midnightblue" d="M1608.58,-185.85C1615.21,-183.55 1621.91,-181.54 1628.5,-180 1969.45,-100.3 2069.72,-199.13 2415.5,-144 2418.63,-143.5 2421.8,-142.94 2424.99,-142.34"/>
<polygon fill="midnightblue" stroke="midnightblue" points="1607.12,-182.66 1598.95,-189.4 1609.54,-189.22 1607.12,-182.66"/>
</g>
<!-- Node11&#45;&gt;Node21 -->
<g id="edge23" class="edge">
<title>Node11&#45;&gt;Node21</title>
<path fill="none" stroke="midnightblue" d="M1608.56,-185.78C1615.2,-183.49 1621.91,-181.51 1628.5,-180 1846.58,-130.16 2413.82,-180.64 2634.5,-144 2637.57,-143.49 2640.68,-142.91 2643.81,-142.28"/>
<polygon fill="midnightblue" stroke="midnightblue" points="1607.11,-182.58 1598.93,-189.31 1609.52,-189.15 1607.11,-182.58"/>
</g>
<!-- Node22 -->
<g id="node22" class="node">
<title>Node22</title>
<g id="a_node22"><a xlink:href="_i_e_renderable_8cpp.html" target="_top" xlink:title=" ">
<polygon fill="white" stroke="black" points="2182,-81.5 2182,-143.5 2407,-143.5 2407,-81.5 2182,-81.5"/>
<text text-anchor="start" x="2190" y="-126.7" font-family="Source Sans Pro" font-size="16.00">Illumination&#45;Engine</text>
<text text-anchor="start" x="2190" y="-108.7" font-family="Source Sans Pro" font-size="16.00">/src/GraphicsModule</text>
<text text-anchor="middle" x="2294.5" y="-90.7" font-family="Source Sans Pro" font-size="16.00">/Renderable/IERenderable.cpp</text>
</a>
</g>
</g>
<!-- Node11&#45;&gt;Node22 -->
<g id="edge24" class="edge">
<title>Node11&#45;&gt;Node22</title>
<path fill="none" stroke="midnightblue" d="M1608.95,-185.87C1615.46,-183.59 1622.04,-181.58 1628.5,-180 1863.87,-122.44 1933.12,-181.53 2172.5,-144 2175.63,-143.51 2178.79,-142.98 2181.98,-142.41"/>
<polygon fill="midnightblue" stroke="midnightblue" points="1607.64,-182.63 1599.48,-189.38 1610.07,-189.19 1607.64,-182.63"/>
</g>
<!-- Node11&#45;&gt;Node23 -->
<g id="edge25" class="edge">
<title>Node11&#45;&gt;Node23</title>
<path fill="none" stroke="midnightblue" d="M1608.21,-185.8C1614.95,-183.49 1621.78,-181.49 1628.5,-180 1967.46,-104.8 2846.91,-193.98 3190.5,-144 3193.29,-143.59 3196.11,-143.14 3198.95,-142.65"/>
<polygon fill="midnightblue" stroke="midnightblue" points="1606.59,-182.67 1598.41,-189.39 1609,-189.24 1606.59,-182.67"/>
</g>
<!-- Node24 -->
<g id="node24" class="node">
<title>Node24</title>
<g id="a_node24"><a xlink:href="_i_e_pipeline_8cpp.html" target="_top" xlink:title=" ">
<polygon fill="white" stroke="black" points="1632.5,-81.5 1632.5,-143.5 1804.5,-143.5 1804.5,-81.5 1632.5,-81.5"/>
<text text-anchor="start" x="1640.5" y="-126.7" font-family="Source Sans Pro" font-size="16.00">Illumination&#45;Engine</text>
<text text-anchor="start" x="1640.5" y="-108.7" font-family="Source Sans Pro" font-size="16.00">/src/GraphicsModule</text>
<text text-anchor="middle" x="1718.5" y="-90.7" font-family="Source Sans Pro" font-size="16.00">/Shader/IEPipeline.cpp</text>
</a>
</g>
</g>
<!-- Node11&#45;&gt;Node24 -->
<g id="edge26" class="edge">
<title>Node11&#45;&gt;Node24</title>
<path fill="none" stroke="midnightblue" d="M1598.33,-184.27C1620.66,-171.12 1645.79,-156.32 1667.27,-143.67"/>
<polygon fill="midnightblue" stroke="midnightblue" points="1596.44,-181.32 1589.6,-189.41 1599.99,-187.35 1596.44,-181.32"/>
</g>
<!-- Node25 -->
<g id="node25" class="node">
<title>Node25</title>
<g id="a_node25"><a xlink:href="_i_e_shader_8cpp.html" target="_top" xlink:title=" ">
<polygon fill="white" stroke="black" points="1822.5,-81.5 1822.5,-143.5 1986.5,-143.5 1986.5,-81.5 1822.5,-81.5"/>
<text text-anchor="start" x="1830.5" y="-126.7" font-family="Source Sans Pro" font-size="16.00">Illumination&#45;Engine</text>
<text text-anchor="start" x="1830.5" y="-108.7" font-family="Source Sans Pro" font-size="16.00">/src/GraphicsModule</text>
<text text-anchor="middle" x="1904.5" y="-90.7" font-family="Source Sans Pro" font-size="16.00">/Shader/IEShader.cpp</text>
</a>
</g>
</g>
<!-- Node11&#45;&gt;Node25 -->
<g id="edge27" class="edge">
<title>Node11&#45;&gt;Node25</title>
<path fill="none" stroke="midnightblue" d="M1611.69,-185.8C1617.32,-183.69 1622.97,-181.73 1628.5,-180 1708.45,-155.02 1732.5,-165.36 1813.5,-144 1816.4,-143.24 1819.34,-142.43 1822.31,-141.59"/>
<polygon fill="midnightblue" stroke="midnightblue" points="1610.3,-182.59 1602.24,-189.47 1612.83,-189.11 1610.3,-182.59"/>
</g>
<!-- Node15 -->
<g id="node15" class="node">
<title>Node15</title>
<g id="a_node15"><a xlink:href="main_8cpp.html" target="_top" xlink:title=" ">
<polygon fill="white" stroke="black" points="2009.5,-0.5 2009.5,-44.5 2159.5,-44.5 2159.5,-0.5 2009.5,-0.5"/>
<text text-anchor="start" x="2017.5" y="-27.7" font-family="Source Sans Pro" font-size="16.00">Illumination&#45;Engine</text>
<text text-anchor="middle" x="2084.5" y="-9.7" font-family="Source Sans Pro" font-size="16.00">/src/main.cpp</text>
</a>
</g>
</g>
<!-- Node14&#45;&gt;Node15 -->
<g id="edge17" class="edge">
<title>Node14&#45;&gt;Node15</title>
<path fill="none" stroke="midnightblue" d="M2084.5,-71.09C2084.5,-61.97 2084.5,-52.64 2084.5,-44.68"/>
<polygon fill="midnightblue" stroke="midnightblue" points="2081,-71.22 2084.5,-81.22 2088,-71.22 2081,-71.22"/>
</g>
<!-- Node26&#45;&gt;Node11 -->
<g id="edge31" class="edge">
<title>Node26&#45;&gt;Node11</title>
<path fill="none" stroke="midnightblue" d="M1538.5,-287.31C1538.5,-275.48 1538.5,-262.75 1538.5,-251.67"/>
<polygon fill="midnightblue" stroke="midnightblue" points="1535,-287.41 1538.5,-297.41 1542,-287.41 1535,-287.41"/>
</g>
<!-- Node26&#45;&gt;Node18 -->
<g id="edge32" class="edge">
<title>Node26&#45;&gt;Node18</title>
<path fill="none" stroke="midnightblue" d="M1414.06,-296.82C1348.4,-280.56 1279.85,-263.43 1272.5,-261 1183.4,-231.54 1164.67,-214.76 1077.5,-180 1047.01,-167.84 1013.34,-154.87 983.81,-143.65"/>
<polygon fill="midnightblue" stroke="midnightblue" points="1413.6,-300.31 1424.15,-299.32 1415.28,-293.52 1413.6,-300.31"/>
</g>
<!-- Node26&#45;&gt;Node19 -->
<g id="edge33" class="edge">
<title>Node26&#45;&gt;Node19</title>
<path fill="none" stroke="midnightblue" d="M1474.81,-292.37C1399.64,-250.91 1275.91,-182.67 1204.99,-143.55"/>
<polygon fill="midnightblue" stroke="midnightblue" points="1473.29,-295.53 1483.73,-297.29 1476.67,-289.4 1473.29,-295.53"/>
</g>
<!-- Node27 -->
<g id="node27" class="node">
<title>Node27</title>
<g id="a_node27"><a xlink:href="_i_e_render_pass_begin_info_8cpp.html" target="_top" xlink:title=" ">
<polygon fill="white" stroke="black" points="1637.5,-180.5 1637.5,-260.5 1909.5,-260.5 1909.5,-180.5 1637.5,-180.5"/>
<text text-anchor="start" x="1645.5" y="-243.7" font-family="Source Sans Pro" font-size="16.00">Illumination&#45;Engine</text>
<text text-anchor="start" x="1645.5" y="-225.7" font-family="Source Sans Pro" font-size="16.00">/src/GraphicsModule</text>
<text text-anchor="start" x="1645.5" y="-207.7" font-family="Source Sans Pro" font-size="16.00">/CommandBuffer/DependencyStructs</text>
<text text-anchor="middle" x="1773.5" y="-189.7" font-family="Source Sans Pro" font-size="16.00">/IERenderPassBeginInfo.cpp</text>
</a>
</g>
</g>
<!-- Node26&#45;&gt;Node27 -->
<g id="edge29" class="edge">
<title>Node26&#45;&gt;Node27</title>
<path fill="none" stroke="midnightblue" d="M1614.59,-293.18C1637.65,-282.78 1663.14,-271.28 1686.83,-260.59"/>
<polygon fill="midnightblue" stroke="midnightblue" points="1612.89,-290.11 1605.21,-297.41 1615.77,-296.49 1612.89,-290.11"/>
</g>
<!-- Node26&#45;&gt;Node28 -->
<g id="edge30" class="edge">
<title>Node26&#45;&gt;Node28</title>
<path fill="none" stroke="midnightblue" d="M1662.79,-308.46C1737.26,-296.38 1833.66,-279.56 1918.5,-261 1931.52,-258.15 1945.12,-254.93 1958.58,-251.58"/>
<polygon fill="midnightblue" stroke="midnightblue" points="1662.21,-305.01 1652.89,-310.06 1663.32,-311.92 1662.21,-305.01"/>
</g>
<!-- Node29&#45;&gt;Node7 -->
<g id="edge36" class="edge">
<title>Node29&#45;&gt;Node7</title>
<path fill="none" stroke="midnightblue" d="M2055.58,-624.98C2041.36,-616.09 2027.81,-605.79 2016.5,-594 1988.97,-565.31 2011.17,-535.67 1978.5,-513 1897.54,-456.81 1633.73,-493.08 1536.5,-477 1521.11,-474.46 1505.01,-471.16 1489.24,-467.55"/>
<polygon fill="midnightblue" stroke="midnightblue" points="2054.13,-628.19 2064.5,-630.34 2057.73,-622.19 2054.13,-628.19"/>
</g>
<!-- Node30 -->
<g id="node30" class="node">
<title>Node30</title>
<g id="a_node30"><a xlink:href="_i_e_copy_buffer_to_image_info_8cpp.html" target="_top" xlink:title=" ">
<polygon fill="white" stroke="black" points="2025.5,-513.5 2025.5,-593.5 2297.5,-593.5 2297.5,-513.5 2025.5,-513.5"/>
<text text-anchor="start" x="2033.5" y="-576.7" font-family="Source Sans Pro" font-size="16.00">Illumination&#45;Engine</text>
<text text-anchor="start" x="2033.5" y="-558.7" font-family="Source Sans Pro" font-size="16.00">/src/GraphicsModule</text>
<text text-anchor="start" x="2033.5" y="-540.7" font-family="Source Sans Pro" font-size="16.00">/CommandBuffer/DependencyStructs</text>
<text text-anchor="middle" x="2161.5" y="-522.7" font-family="Source Sans Pro" font-size="16.00">/IECopyBufferToImageInfo.cpp</text>
</a>
</g>
</g>
<!-- Node29&#45;&gt;Node30 -->
<g id="edge35" class="edge">
<title>Node29&#45;&gt;Node30</title>
<path fill="none" stroke="midnightblue" d="M2161.5,-620.03C2161.5,-611.19 2161.5,-602.08 2161.5,-593.58"/>
<polygon fill="midnightblue" stroke="midnightblue" points="2158,-620.25 2161.5,-630.25 2165,-620.25 2158,-620.25"/>
</g>
<!-- Node32&#45;&gt;Node20 -->
<g id="edge44" class="edge">
<title>Node32&#45;&gt;Node20</title>
<path fill="none" stroke="midnightblue" d="M2491.36,-287.45C2499.56,-245.68 2512.22,-181.16 2519.6,-143.55"/>
<polygon fill="midnightblue" stroke="midnightblue" points="2487.92,-286.81 2489.43,-297.29 2494.79,-288.15 2487.92,-286.81"/>
</g>
<!-- Node32&#45;&gt;Node21 -->
<g id="edge45" class="edge">
<title>Node32&#45;&gt;Node21</title>
<path fill="none" stroke="midnightblue" d="M2503.86,-288.55C2522.51,-256 2552.74,-210.18 2589.5,-180 2607.26,-165.42 2628.73,-153.33 2649.69,-143.64"/>
<polygon fill="midnightblue" stroke="midnightblue" points="2500.76,-286.92 2498.92,-297.35 2506.87,-290.35 2500.76,-286.92"/>
</g>
<!-- Node32&#45;&gt;Node22 -->
<g id="edge46" class="edge">
<title>Node32&#45;&gt;Node22</title>
<path fill="none" stroke="midnightblue" d="M2487.09,-287.19C2487.78,-254.87 2483.55,-210.08 2459.5,-180 2445.81,-162.87 2427.02,-150.13 2407.01,-140.66"/>
<polygon fill="midnightblue" stroke="midnightblue" points="2483.59,-287.09 2486.71,-297.22 2490.58,-287.35 2483.59,-287.09"/>
</g>
<!-- Node32&#45;&gt;Node33 -->
<g id="edge47" class="edge">
<title>Node32&#45;&gt;Node33</title>
<path fill="none" stroke="midnightblue" d="M2433.53,-291.22C2415.78,-278.33 2396.02,-263.98 2379.05,-251.67"/>
<polygon fill="midnightblue" stroke="midnightblue" points="2431.9,-294.37 2442.05,-297.41 2436.02,-288.7 2431.9,-294.37"/>
</g>
<!-- Node33&#45;&gt;Node14 -->
<g id="edge48" class="edge">
<title>Node33&#45;&gt;Node14</title>
<path fill="none" stroke="midnightblue" d="M2256.31,-185.48C2224.22,-172.04 2187.64,-156.71 2156.5,-143.67"/>
<polygon fill="midnightblue" stroke="midnightblue" points="2255.1,-188.77 2265.68,-189.41 2257.81,-182.32 2255.1,-188.77"/>
</g>
<!-- Node33&#45;&gt;Node22 -->
<g id="edge49" class="edge">
<title>Node33&#45;&gt;Node22</title>
<path fill="none" stroke="midnightblue" d="M2321.49,-180.03C2316.61,-168 2311.33,-154.98 2306.74,-143.67"/>
<polygon fill="midnightblue" stroke="midnightblue" points="2318.29,-181.46 2325.29,-189.41 2324.78,-178.83 2318.29,-181.46"/>
</g>
</g>
</svg>
