<?xml version="1.0" encoding="UTF-8" standalone="no"?>
<!DOCTYPE svg PUBLIC "-//W3C//DTD SVG 1.1//EN"
 "http://www.w3.org/Graphics/SVG/1.1/DTD/svg11.dtd">
<!-- Generated by graphviz version 2.43.0 (0)
 -->
<!-- Title: Illumination&#45;Engine/src/GraphicsModule/RenderPass/IEFramebuffer.hpp Pages: 1 -->
<svg width="3415pt" height="683pt"
 viewBox="0.00 0.00 3415.00 683.00" xmlns="http://www.w3.org/2000/svg" xmlns:xlink="http://www.w3.org/1999/xlink">
<g id="graph0" class="graph" transform="scale(1 1) rotate(0) translate(4 679)">
<title>Illumination&#45;Engine/src/GraphicsModule/RenderPass/IEFramebuffer.hpp</title>
<polygon fill="white" stroke="transparent" points="-4,4 -4,-679 3411,-679 3411,4 -4,4"/>
<!-- Node1 -->
<g id="node1" class="node">
<title>Node1</title>
<g id="a_node1"><a xlink:title=" ">
<polygon fill="#bfbfbf" stroke="black" points="2792.5,-612.5 2792.5,-674.5 3024.5,-674.5 3024.5,-612.5 2792.5,-612.5"/>
<text text-anchor="start" x="2800.5" y="-657.7" font-family="Source Sans Pro" font-size="16.00">Illumination&#45;Engine</text>
<text text-anchor="start" x="2800.5" y="-639.7" font-family="Source Sans Pro" font-size="16.00">/src/GraphicsModule</text>
<text text-anchor="middle" x="2908.5" y="-621.7" font-family="Source Sans Pro" font-size="16.00">/RenderPass/IEFramebuffer.hpp</text>
</a>
</g>
</g>
<!-- Node2 -->
<g id="node2" class="node">
<title>Node2</title>
<g id="a_node2"><a xlink:href="_i_e_render_pass_begin_info_8hpp.html" target="_top" xlink:title=" ">
<polygon fill="white" stroke="black" points="2290.5,-495.5 2290.5,-575.5 2562.5,-575.5 2562.5,-495.5 2290.5,-495.5"/>
<text text-anchor="start" x="2298.5" y="-558.7" font-family="Source Sans Pro" font-size="16.00">Illumination&#45;Engine</text>
<text text-anchor="start" x="2298.5" y="-540.7" font-family="Source Sans Pro" font-size="16.00">/src/GraphicsModule</text>
<text text-anchor="start" x="2298.5" y="-522.7" font-family="Source Sans Pro" font-size="16.00">/CommandBuffer/DependencyStructs</text>
<text text-anchor="middle" x="2426.5" y="-504.7" font-family="Source Sans Pro" font-size="16.00">/IERenderPassBeginInfo.hpp</text>
</a>
</g>
</g>
<!-- Node1&#45;&gt;Node2 -->
<g id="edge1" class="edge">
<title>Node1&#45;&gt;Node2</title>
<path fill="none" stroke="midnightblue" d="M2782.28,-619.06C2720.12,-607.05 2644.18,-591.67 2576.5,-576 2571.91,-574.94 2567.24,-573.83 2562.54,-572.7"/>
<polygon fill="midnightblue" stroke="midnightblue" points="2781.65,-622.5 2792.13,-620.96 2782.97,-615.63 2781.65,-622.5"/>
</g>
<!-- Node8 -->
<g id="node8" class="node">
<title>Node8</title>
<g id="a_node8"><a xlink:href="_i_e_render_engine_8hpp.html" target="_top" xlink:title=" ">
<polygon fill="white" stroke="black" points="1952,-189.5 1952,-251.5 2113,-251.5 2113,-189.5 1952,-189.5"/>
<text text-anchor="start" x="1960" y="-234.7" font-family="Source Sans Pro" font-size="16.00">Illumination&#45;Engine</text>
<text text-anchor="start" x="1960" y="-216.7" font-family="Source Sans Pro" font-size="16.00">/src/GraphicsModule</text>
<text text-anchor="middle" x="2032.5" y="-198.7" font-family="Source Sans Pro" font-size="16.00">/IERenderEngine.hpp</text>
</a>
</g>
</g>
<!-- Node1&#45;&gt;Node8 -->
<g id="edge32" class="edge">
<title>Node1&#45;&gt;Node8</title>
<path fill="none" stroke="midnightblue" d="M2836.6,-607.94C2668.71,-527.26 2253.18,-327.56 2095,-251.54"/>
<polygon fill="midnightblue" stroke="midnightblue" points="2835.32,-611.21 2845.85,-612.39 2838.35,-604.91 2835.32,-611.21"/>
</g>
<!-- Node16 -->
<g id="node16" class="node">
<title>Node16</title>
<g id="a_node16"><a xlink:href="_i_e_framebuffer_8cpp.html" target="_top" xlink:title=" ">
<polygon fill="white" stroke="black" points="2931.5,-81.5 2931.5,-143.5 3161.5,-143.5 3161.5,-81.5 2931.5,-81.5"/>
<text text-anchor="start" x="2939.5" y="-126.7" font-family="Source Sans Pro" font-size="16.00">Illumination&#45;Engine</text>
<text text-anchor="start" x="2939.5" y="-108.7" font-family="Source Sans Pro" font-size="16.00">/src/GraphicsModule</text>
<text text-anchor="middle" x="3046.5" y="-90.7" font-family="Source Sans Pro" font-size="16.00">/RenderPass/IEFramebuffer.cpp</text>
</a>
</g>
</g>
<!-- Node1&#45;&gt;Node16 -->
<g id="edge33" class="edge">
<title>Node1&#45;&gt;Node16</title>
<path fill="none" stroke="midnightblue" d="M2926.26,-603.02C2943.63,-560.74 2967.5,-491.25 2967.5,-428.5 2967.5,-428.5 2967.5,-428.5 2967.5,-327.5 2967.5,-261.08 2964.04,-240.48 2991.5,-180 2997.45,-166.9 3006.67,-154.28 3015.87,-143.61"/>
<polygon fill="midnightblue" stroke="midnightblue" points="2922.97,-601.81 2922.33,-612.39 2929.43,-604.52 2922.97,-601.81"/>
</g>
<!-- Node17 -->
<g id="node17" class="node">
<title>Node17</title>
<g id="a_node17"><a xlink:href="_i_e_render_pass_8cpp.html" target="_top" xlink:title=" ">
<polygon fill="white" stroke="black" points="3180,-81.5 3180,-143.5 3407,-143.5 3407,-81.5 3180,-81.5"/>
<text text-anchor="start" x="3188" y="-126.7" font-family="Source Sans Pro" font-size="16.00">Illumination&#45;Engine</text>
<text text-anchor="start" x="3188" y="-108.7" font-family="Source Sans Pro" font-size="16.00">/src/GraphicsModule</text>
<text text-anchor="middle" x="3293.5" y="-90.7" font-family="Source Sans Pro" font-size="16.00">/RenderPass/IERenderPass.cpp</text>
</a>
</g>
</g>
<!-- Node1&#45;&gt;Node17 -->
<g id="edge34" class="edge">
<title>Node1&#45;&gt;Node17</title>
<path fill="none" stroke="midnightblue" d="M2942.82,-604.51C2949.7,-595.59 2956.37,-585.82 2961.5,-576 2993.18,-515.36 3005.5,-496.91 3005.5,-428.5 3005.5,-428.5 3005.5,-428.5 3005.5,-327.5 3005.5,-232.5 3107.7,-174.75 3190.34,-143.57"/>
<polygon fill="midnightblue" stroke="midnightblue" points="2940,-602.43 2936.49,-612.43 2945.47,-606.8 2940,-602.43"/>
</g>
<!-- Node24 -->
<g id="node24" class="node">
<title>Node24</title>
<g id="a_node24"><a xlink:href="_i_e_render_pass_8hpp.html" target="_top" xlink:title=" ">
<polygon fill="white" stroke="black" points="2618.5,-297.5 2618.5,-359.5 2846.5,-359.5 2846.5,-297.5 2618.5,-297.5"/>
<text text-anchor="start" x="2626.5" y="-342.7" font-family="Source Sans Pro" font-size="16.00">Illumination&#45;Engine</text>
<text text-anchor="start" x="2626.5" y="-324.7" font-family="Source Sans Pro" font-size="16.00">/src/GraphicsModule</text>
<text text-anchor="middle" x="2732.5" y="-306.7" font-family="Source Sans Pro" font-size="16.00">/RenderPass/IERenderPass.hpp</text>
</a>
</g>
</g>
<!-- Node1&#45;&gt;Node24 -->
<g id="edge35" class="edge">
<title>Node1&#45;&gt;Node24</title>
<path fill="none" stroke="midnightblue" d="M2886.64,-603.63C2851.15,-540.51 2781.73,-417.04 2749.58,-359.88"/>
<polygon fill="midnightblue" stroke="midnightblue" points="2883.67,-605.49 2891.62,-612.49 2889.77,-602.06 2883.67,-605.49"/>
</g>
<!-- Node26 -->
<g id="node26" class="node">
<title>Node26</title>
<g id="a_node26"><a xlink:href="_i_e_dependent_8cpp.html" target="_top" xlink:title=" ">
<polygon fill="white" stroke="black" points="3034,-504.5 3034,-566.5 3291,-566.5 3291,-504.5 3034,-504.5"/>
<text text-anchor="start" x="3042" y="-549.7" font-family="Source Sans Pro" font-size="16.00">Illumination&#45;Engine</text>
<text text-anchor="start" x="3042" y="-531.7" font-family="Source Sans Pro" font-size="16.00">/src/GraphicsModule</text>
<text text-anchor="middle" x="3162.5" y="-513.7" font-family="Source Sans Pro" font-size="16.00">/CommandBuffer/IEDependent.cpp</text>
</a>
</g>
</g>
<!-- Node1&#45;&gt;Node26 -->
<g id="edge31" class="edge">
<title>Node1&#45;&gt;Node26</title>
<path fill="none" stroke="midnightblue" d="M2990.01,-608.48C3022.23,-595.04 3058.96,-579.71 3090.21,-566.67"/>
<polygon fill="midnightblue" stroke="midnightblue" points="2988.49,-605.33 2980.61,-612.41 2991.18,-611.79 2988.49,-605.33"/>
</g>
<!-- Node3 -->
<g id="node3" class="node">
<title>Node3</title>
<g id="a_node3"><a xlink:href="_i_e_render_pass_begin_info_8cpp.html" target="_top" xlink:title=" ">
<polygon fill="white" stroke="black" points="2298.5,-180.5 2298.5,-260.5 2570.5,-260.5 2570.5,-180.5 2298.5,-180.5"/>
<text text-anchor="start" x="2306.5" y="-243.7" font-family="Source Sans Pro" font-size="16.00">Illumination&#45;Engine</text>
<text text-anchor="start" x="2306.5" y="-225.7" font-family="Source Sans Pro" font-size="16.00">/src/GraphicsModule</text>
<text text-anchor="start" x="2306.5" y="-207.7" font-family="Source Sans Pro" font-size="16.00">/CommandBuffer/DependencyStructs</text>
<text text-anchor="middle" x="2434.5" y="-189.7" font-family="Source Sans Pro" font-size="16.00">/IERenderPassBeginInfo.cpp</text>
</a>
</g>
</g>
<!-- Node2&#45;&gt;Node3 -->
<g id="edge2" class="edge">
<title>Node2&#45;&gt;Node3</title>
<path fill="none" stroke="midnightblue" d="M2427.76,-485.15C2429.35,-422.97 2432.05,-317.36 2433.5,-260.51"/>
<polygon fill="midnightblue" stroke="midnightblue" points="2424.25,-485.4 2427.5,-495.49 2431.25,-485.58 2424.25,-485.4"/>
</g>
<!-- Node4 -->
<g id="node4" class="node">
<title>Node4</title>
<g id="a_node4"><a xlink:href="_i_e_command_buffer_8hpp.html" target="_top" xlink:title=" ">
<polygon fill="white" stroke="black" points="1998,-396.5 1998,-458.5 2293,-458.5 2293,-396.5 1998,-396.5"/>
<text text-anchor="start" x="2006" y="-441.7" font-family="Source Sans Pro" font-size="16.00">Illumination&#45;Engine</text>
<text text-anchor="start" x="2006" y="-423.7" font-family="Source Sans Pro" font-size="16.00">/src/GraphicsModule</text>
<text text-anchor="middle" x="2145.5" y="-405.7" font-family="Source Sans Pro" font-size="16.00">/CommandBuffer/IECommandBuffer.hpp</text>
</a>
</g>
</g>
<!-- Node2&#45;&gt;Node4 -->
<g id="edge3" class="edge">
<title>Node2&#45;&gt;Node4</title>
<path fill="none" stroke="midnightblue" d="M2313.55,-491.89C2284.03,-480.76 2252.82,-468.98 2225.42,-458.65"/>
<polygon fill="midnightblue" stroke="midnightblue" points="2312.47,-495.23 2323.06,-495.48 2314.94,-488.68 2312.47,-495.23"/>
</g>
<!-- Node5 -->
<g id="node5" class="node">
<title>Node5</title>
<g id="a_node5"><a xlink:href="_i_e_command_buffer_8cpp.html" target="_top" xlink:title=" ">
<polygon fill="white" stroke="black" points="0,-81.5 0,-143.5 293,-143.5 293,-81.5 0,-81.5"/>
<text text-anchor="start" x="8" y="-126.7" font-family="Source Sans Pro" font-size="16.00">Illumination&#45;Engine</text>
<text text-anchor="start" x="8" y="-108.7" font-family="Source Sans Pro" font-size="16.00">/src/GraphicsModule</text>
<text text-anchor="middle" x="146.5" y="-90.7" font-family="Source Sans Pro" font-size="16.00">/CommandBuffer/IECommandBuffer.cpp</text>
</a>
</g>
</g>
<!-- Node4&#45;&gt;Node5 -->
<g id="edge4" class="edge">
<title>Node4&#45;&gt;Node5</title>
<path fill="none" stroke="midnightblue" d="M1987.69,-404.62C1668.67,-359.89 924.47,-252.95 302.5,-144 299.37,-143.45 296.21,-142.89 293.03,-142.32"/>
<polygon fill="midnightblue" stroke="midnightblue" points="1987.54,-408.14 1997.93,-406.06 1988.51,-401.2 1987.54,-408.14"/>
</g>
<!-- Node6 -->
<g id="node6" class="node">
<title>Node6</title>
<g id="a_node6"><a xlink:href="_i_e_command_pool_8hpp.html" target="_top" xlink:title=" ">
<polygon fill="white" stroke="black" points="1890,-297.5 1890,-359.5 2175,-359.5 2175,-297.5 1890,-297.5"/>
<text text-anchor="start" x="1898" y="-342.7" font-family="Source Sans Pro" font-size="16.00">Illumination&#45;Engine</text>
<text text-anchor="start" x="1898" y="-324.7" font-family="Source Sans Pro" font-size="16.00">/src/GraphicsModule</text>
<text text-anchor="middle" x="2032.5" y="-306.7" font-family="Source Sans Pro" font-size="16.00">/CommandBuffer/IECommandPool.hpp</text>
</a>
</g>
</g>
<!-- Node4&#45;&gt;Node6 -->
<g id="edge5" class="edge">
<title>Node4&#45;&gt;Node6</title>
<path fill="none" stroke="midnightblue" d="M2102.53,-389.62C2091,-379.72 2078.67,-369.13 2067.61,-359.64"/>
<polygon fill="midnightblue" stroke="midnightblue" points="2100.5,-392.48 2110.37,-396.34 2105.06,-387.17 2100.5,-392.48"/>
</g>
<!-- Node4&#45;&gt;Node24 -->
<g id="edge25" class="edge">
<title>Node4&#45;&gt;Node24</title>
<path fill="none" stroke="midnightblue" d="M2303.38,-400.41C2402.63,-384.01 2528.4,-363.23 2618.07,-348.41"/>
<polygon fill="midnightblue" stroke="midnightblue" points="2302.54,-397 2293.25,-402.09 2303.68,-403.91 2302.54,-397"/>
</g>
<!-- Node7 -->
<g id="node7" class="node">
<title>Node7</title>
<g id="a_node7"><a xlink:href="_i_e_command_pool_8cpp.html" target="_top" xlink:title=" ">
<polygon fill="white" stroke="black" points="311.5,-81.5 311.5,-143.5 595.5,-143.5 595.5,-81.5 311.5,-81.5"/>
<text text-anchor="start" x="319.5" y="-126.7" font-family="Source Sans Pro" font-size="16.00">Illumination&#45;Engine</text>
<text text-anchor="start" x="319.5" y="-108.7" font-family="Source Sans Pro" font-size="16.00">/src/GraphicsModule</text>
<text text-anchor="middle" x="453.5" y="-90.7" font-family="Source Sans Pro" font-size="16.00">/CommandBuffer/IECommandPool.cpp</text>
</a>
</g>
</g>
<!-- Node6&#45;&gt;Node7 -->
<g id="edge6" class="edge">
<title>Node6&#45;&gt;Node7</title>
<path fill="none" stroke="midnightblue" d="M1879.46,-300.91C1687.84,-268.42 1349.27,-213.62 1057.5,-180 856.86,-156.88 804.51,-172.04 604.5,-144 601.59,-143.59 598.64,-143.16 595.68,-142.71"/>
<polygon fill="midnightblue" stroke="midnightblue" points="1879.16,-304.41 1889.61,-302.64 1880.33,-297.51 1879.16,-304.41"/>
</g>
<!-- Node6&#45;&gt;Node8 -->
<g id="edge7" class="edge">
<title>Node6&#45;&gt;Node8</title>
<path fill="none" stroke="midnightblue" d="M2032.5,-287.31C2032.5,-275.48 2032.5,-262.75 2032.5,-251.67"/>
<polygon fill="midnightblue" stroke="midnightblue" points="2029,-287.41 2032.5,-297.41 2036,-287.41 2029,-287.41"/>
</g>
<!-- Node8&#45;&gt;Node5 -->
<g id="edge9" class="edge">
<title>Node8&#45;&gt;Node5</title>
<path fill="none" stroke="midnightblue" d="M1941.58,-215.91C1596.67,-202.24 384.37,-153.73 302.5,-144 299.49,-143.64 296.44,-143.26 293.38,-142.85"/>
<polygon fill="midnightblue" stroke="midnightblue" points="1941.64,-219.41 1951.77,-216.31 1941.92,-212.42 1941.64,-219.41"/>
</g>
<!-- Node8&#45;&gt;Node7 -->
<g id="edge10" class="edge">
<title>Node8&#45;&gt;Node7</title>
<path fill="none" stroke="midnightblue" d="M1951.26,-186.42C1942.67,-183.86 1933.98,-181.63 1925.5,-180 1637.14,-124.41 896.28,-177.19 604.5,-144 601.58,-143.67 598.63,-143.31 595.66,-142.92"/>
<polygon fill="midnightblue" stroke="midnightblue" points="1950.3,-189.79 1960.89,-189.45 1952.4,-183.11 1950.3,-189.79"/>
</g>
<!-- Node9 -->
<g id="node9" class="node">
<title>Node9</title>
<g id="a_node9"><a xlink:href="_i_e_buffer_8cpp.html" target="_top" xlink:title=" ">
<polygon fill="white" stroke="black" points="1875,-81.5 1875,-143.5 2032,-143.5 2032,-81.5 1875,-81.5"/>
<text text-anchor="start" x="1883" y="-126.7" font-family="Source Sans Pro" font-size="16.00">Illumination&#45;Engine</text>
<text text-anchor="start" x="1883" y="-108.7" font-family="Source Sans Pro" font-size="16.00">/src/GraphicsModule</text>
<text text-anchor="middle" x="1953.5" y="-90.7" font-family="Source Sans Pro" font-size="16.00">/Buffer/IEBuffer.cpp</text>
</a>
</g>
</g>
<!-- Node8&#45;&gt;Node9 -->
<g id="edge8" class="edge">
<title>Node8&#45;&gt;Node9</title>
<path fill="none" stroke="midnightblue" d="M2003.88,-181.1C1994.7,-168.78 1984.66,-155.31 1975.98,-143.67"/>
<polygon fill="midnightblue" stroke="midnightblue" points="2001.29,-183.48 2010.07,-189.41 2006.9,-179.3 2001.29,-183.48"/>
</g>
<!-- Node10 -->
<g id="node10" class="node">
<title>Node10</title>
<g id="a_node10"><a xlink:href="_i_e_a_p_i_8cpp.html" target="_top" xlink:title=" ">
<polygon fill="white" stroke="black" points="2050,-81.5 2050,-143.5 2207,-143.5 2207,-81.5 2050,-81.5"/>
<text text-anchor="start" x="2058" y="-126.7" font-family="Source Sans Pro" font-size="16.00">Illumination&#45;Engine</text>
<text text-anchor="start" x="2058" y="-108.7" font-family="Source Sans Pro" font-size="16.00">/src/GraphicsModule</text>
<text text-anchor="middle" x="2128.5" y="-90.7" font-family="Source Sans Pro" font-size="16.00">/IEAPI.cpp</text>
</a>
</g>
</g>
<!-- Node8&#45;&gt;Node10 -->
<g id="edge11" class="edge">
<title>Node8&#45;&gt;Node10</title>
<path fill="none" stroke="midnightblue" d="M2066.64,-181.81C2077.97,-169.29 2090.43,-155.54 2101.18,-143.67"/>
<polygon fill="midnightblue" stroke="midnightblue" points="2063.87,-179.65 2059.75,-189.41 2069.06,-184.35 2063.87,-179.65"/>
</g>
<!-- Node11 -->
<g id="node11" class="node">
<title>Node11</title>
<g id="a_node11"><a xlink:href="_i_e_camera_8cpp.html" target="_top" xlink:title=" ">
<polygon fill="white" stroke="black" points="2225,-81.5 2225,-143.5 2382,-143.5 2382,-81.5 2225,-81.5"/>
<text text-anchor="start" x="2233" y="-126.7" font-family="Source Sans Pro" font-size="16.00">Illumination&#45;Engine</text>
<text text-anchor="start" x="2233" y="-108.7" font-family="Source Sans Pro" font-size="16.00">/src/GraphicsModule</text>
<text text-anchor="middle" x="2303.5" y="-90.7" font-family="Source Sans Pro" font-size="16.00">/IECamera.cpp</text>
</a>
</g>
</g>
<!-- Node8&#45;&gt;Node11 -->
<g id="edge12" class="edge">
<title>Node8&#45;&gt;Node11</title>
<path fill="none" stroke="midnightblue" d="M2119.02,-185.66C2153.51,-172.17 2192.88,-156.77 2226.37,-143.67"/>
<polygon fill="midnightblue" stroke="midnightblue" points="2117.47,-182.51 2109.43,-189.41 2120.02,-189.02 2117.47,-182.51"/>
</g>
<!-- Node12 -->
<g id="node12" class="node">
<title>Node12</title>
<g id="a_node12"><a xlink:href="_i_e_render_engine_8cpp.html" target="_top" xlink:title=" ">
<polygon fill="white" stroke="black" points="2400,-81.5 2400,-143.5 2559,-143.5 2559,-81.5 2400,-81.5"/>
<text text-anchor="start" x="2408" y="-126.7" font-family="Source Sans Pro" font-size="16.00">Illumination&#45;Engine</text>
<text text-anchor="start" x="2408" y="-108.7" font-family="Source Sans Pro" font-size="16.00">/src/GraphicsModule</text>
<text text-anchor="middle" x="2479.5" y="-90.7" font-family="Source Sans Pro" font-size="16.00">/IERenderEngine.cpp</text>
</a>
</g>
</g>
<!-- Node8&#45;&gt;Node12 -->
<g id="edge13" class="edge">
<title>Node8&#45;&gt;Node12</title>
<path fill="none" stroke="midnightblue" d="M2123.21,-203.55C2196.03,-189.98 2300.58,-168.79 2390.5,-144 2393.49,-143.18 2396.53,-142.3 2399.59,-141.4"/>
<polygon fill="midnightblue" stroke="midnightblue" points="2122.35,-200.15 2113.15,-205.41 2123.62,-207.03 2122.35,-200.15"/>
</g>
<!-- Node14 -->
<g id="node14" class="node">
<title>Node14</title>
<g id="a_node14"><a xlink:href="_i_e_image_8cpp.html" target="_top" xlink:title=" ">
<polygon fill="white" stroke="black" points="2577,-81.5 2577,-143.5 2734,-143.5 2734,-81.5 2577,-81.5"/>
<text text-anchor="start" x="2585" y="-126.7" font-family="Source Sans Pro" font-size="16.00">Illumination&#45;Engine</text>
<text text-anchor="start" x="2585" y="-108.7" font-family="Source Sans Pro" font-size="16.00">/src/GraphicsModule</text>
<text text-anchor="middle" x="2655.5" y="-90.7" font-family="Source Sans Pro" font-size="16.00">/Image/IEImage.cpp</text>
</a>
</g>
</g>
<!-- Node8&#45;&gt;Node14 -->
<g id="edge15" class="edge">
<title>Node8&#45;&gt;Node14</title>
<path fill="none" stroke="midnightblue" d="M2123.14,-205.03C2172.32,-197.32 2234.2,-187.83 2289.5,-180 2412.86,-162.54 2446.23,-172.55 2567.5,-144 2570.49,-143.3 2573.52,-142.53 2576.57,-141.71"/>
<polygon fill="midnightblue" stroke="midnightblue" points="2122.5,-201.59 2113.16,-206.6 2123.59,-208.5 2122.5,-201.59"/>
</g>
<!-- Node15 -->
<g id="node15" class="node">
<title>Node15</title>
<g id="a_node15"><a xlink:href="_i_e_texture_8cpp.html" target="_top" xlink:title=" ">
<polygon fill="white" stroke="black" points="2752,-81.5 2752,-143.5 2913,-143.5 2913,-81.5 2752,-81.5"/>
<text text-anchor="start" x="2760" y="-126.7" font-family="Source Sans Pro" font-size="16.00">Illumination&#45;Engine</text>
<text text-anchor="start" x="2760" y="-108.7" font-family="Source Sans Pro" font-size="16.00">/src/GraphicsModule</text>
<text text-anchor="middle" x="2832.5" y="-90.7" font-family="Source Sans Pro" font-size="16.00">/Image/IETexture.cpp</text>
</a>
</g>
</g>
<!-- Node8&#45;&gt;Node15 -->
<g id="edge16" class="edge">
<title>Node8&#45;&gt;Node15</title>
<path fill="none" stroke="midnightblue" d="M2123,-203.93C2172.14,-195.9 2234.02,-186.46 2289.5,-180 2490.11,-156.64 2544.68,-184.72 2742.5,-144 2745.57,-143.37 2748.68,-142.66 2751.81,-141.9"/>
<polygon fill="midnightblue" stroke="midnightblue" points="2122.33,-200.5 2113.03,-205.57 2123.47,-207.4 2122.33,-200.5"/>
</g>
<!-- Node8&#45;&gt;Node16 -->
<g id="edge17" class="edge">
<title>Node8&#45;&gt;Node16</title>
<path fill="none" stroke="midnightblue" d="M2123.22,-203.39C2172.3,-195.22 2234.06,-185.82 2289.5,-180 2569.75,-150.56 2643.83,-185.83 2922.5,-144 2925.46,-143.56 2928.45,-143.07 2931.47,-142.56"/>
<polygon fill="midnightblue" stroke="midnightblue" points="2122.55,-199.95 2113.27,-205.06 2123.71,-206.86 2122.55,-199.95"/>
</g>
<!-- Node8&#45;&gt;Node17 -->
<g id="edge18" class="edge">
<title>Node8&#45;&gt;Node17</title>
<path fill="none" stroke="midnightblue" d="M2123.19,-203.03C2172.26,-194.76 2234.01,-185.38 2289.5,-180 2679.55,-142.18 2782.56,-199.44 3170.5,-144 3173.55,-143.56 3176.63,-143.08 3179.74,-142.57"/>
<polygon fill="midnightblue" stroke="midnightblue" points="2122.51,-199.6 2113.23,-204.72 2123.68,-206.5 2122.51,-199.6"/>
</g>
<!-- Node18 -->
<g id="node18" class="node">
<title>Node18</title>
<g id="a_node18"><a xlink:href="_i_e_material_8cpp.html" target="_top" xlink:title=" ">
<polygon fill="white" stroke="black" points="614,-81.5 614,-143.5 815,-143.5 815,-81.5 614,-81.5"/>
<text text-anchor="start" x="622" y="-126.7" font-family="Source Sans Pro" font-size="16.00">Illumination&#45;Engine</text>
<text text-anchor="start" x="622" y="-108.7" font-family="Source Sans Pro" font-size="16.00">/src/GraphicsModule</text>
<text text-anchor="middle" x="714.5" y="-90.7" font-family="Source Sans Pro" font-size="16.00">/Renderable/IEMaterial.cpp</text>
</a>
</g>
</g>
<!-- Node8&#45;&gt;Node18 -->
<g id="edge19" class="edge">
<title>Node8&#45;&gt;Node18</title>
<path fill="none" stroke="midnightblue" d="M1951.03,-186.4C1942.52,-183.86 1933.9,-181.64 1925.5,-180 1444.57,-85.94 1307.83,-218.56 823.5,-144 820.78,-143.58 818.03,-143.12 815.27,-142.61"/>
<polygon fill="midnightblue" stroke="midnightblue" points="1950,-189.75 1960.59,-189.41 1952.1,-183.07 1950,-189.75"/>
</g>
<!-- Node19 -->
<g id="node19" class="node">
<title>Node19</title>
<g id="a_node19"><a xlink:href="_i_e_mesh_8cpp.html" target="_top" xlink:title=" ">
<polygon fill="white" stroke="black" points="833,-81.5 833,-143.5 1016,-143.5 1016,-81.5 833,-81.5"/>
<text text-anchor="start" x="841" y="-126.7" font-family="Source Sans Pro" font-size="16.00">Illumination&#45;Engine</text>
<text text-anchor="start" x="841" y="-108.7" font-family="Source Sans Pro" font-size="16.00">/src/GraphicsModule</text>
<text text-anchor="middle" x="924.5" y="-90.7" font-family="Source Sans Pro" font-size="16.00">/Renderable/IEMesh.cpp</text>
</a>
</g>
</g>
<!-- Node8&#45;&gt;Node19 -->
<g id="edge20" class="edge">
<title>Node8&#45;&gt;Node19</title>
<path fill="none" stroke="midnightblue" d="M1951.02,-186.47C1942.51,-183.91 1933.9,-181.67 1925.5,-180 1532.47,-101.64 1419.62,-211.01 1024.5,-144 1021.73,-143.53 1018.92,-143 1016.1,-142.43"/>
<polygon fill="midnightblue" stroke="midnightblue" points="1949.99,-189.81 1960.58,-189.48 1952.09,-183.14 1949.99,-189.81"/>
</g>
<!-- Node20 -->
<g id="node20" class="node">
<title>Node20</title>
<g id="a_node20"><a xlink:href="_i_e_renderable_8cpp.html" target="_top" xlink:title=" ">
<polygon fill="white" stroke="black" points="1034,-81.5 1034,-143.5 1259,-143.5 1259,-81.5 1034,-81.5"/>
<text text-anchor="start" x="1042" y="-126.7" font-family="Source Sans Pro" font-size="16.00">Illumination&#45;Engine</text>
<text text-anchor="start" x="1042" y="-108.7" font-family="Source Sans Pro" font-size="16.00">/src/GraphicsModule</text>
<text text-anchor="middle" x="1146.5" y="-90.7" font-family="Source Sans Pro" font-size="16.00">/Renderable/IERenderable.cpp</text>
</a>
</g>
</g>
<!-- Node8&#45;&gt;Node20 -->
<g id="edge21" class="edge">
<title>Node8&#45;&gt;Node20</title>
<path fill="none" stroke="midnightblue" d="M1950.3,-186.38C1942.01,-183.89 1933.65,-181.69 1925.5,-180 1638.7,-120.62 1557.06,-188 1267.5,-144 1264.72,-143.58 1261.9,-143.12 1259.07,-142.63"/>
<polygon fill="midnightblue" stroke="midnightblue" points="1949.37,-189.76 1959.96,-189.44 1951.48,-183.09 1949.37,-189.76"/>
</g>
<!-- Node21 -->
<g id="node21" class="node">
<title>Node21</title>
<g id="a_node21"><a xlink:href="_i_e_descriptor_set_8cpp.html" target="_top" xlink:title=" ">
<polygon fill="white" stroke="black" points="1277,-81.5 1277,-143.5 1484,-143.5 1484,-81.5 1277,-81.5"/>
<text text-anchor="start" x="1285" y="-126.7" font-family="Source Sans Pro" font-size="16.00">Illumination&#45;Engine</text>
<text text-anchor="start" x="1285" y="-108.7" font-family="Source Sans Pro" font-size="16.00">/src/GraphicsModule</text>
<text text-anchor="middle" x="1380.5" y="-90.7" font-family="Source Sans Pro" font-size="16.00">/Shader/IEDescriptorSet.cpp</text>
</a>
</g>
</g>
<!-- Node8&#45;&gt;Node21 -->
<g id="edge22" class="edge">
<title>Node8&#45;&gt;Node21</title>
<path fill="none" stroke="midnightblue" d="M1949.34,-186.35C1941.37,-183.92 1933.33,-181.74 1925.5,-180 1737.41,-138.26 1683.28,-177.24 1493.5,-144 1490.4,-143.46 1487.26,-142.87 1484.09,-142.24"/>
<polygon fill="midnightblue" stroke="midnightblue" points="1948.44,-189.73 1959.03,-189.44 1950.56,-183.07 1948.44,-189.73"/>
</g>
<!-- Node22 -->
<g id="node22" class="node">
<title>Node22</title>
<g id="a_node22"><a xlink:href="_i_e_pipeline_8cpp.html" target="_top" xlink:title=" ">
<polygon fill="white" stroke="black" points="1502.5,-81.5 1502.5,-143.5 1674.5,-143.5 1674.5,-81.5 1502.5,-81.5"/>
<text text-anchor="start" x="1510.5" y="-126.7" font-family="Source Sans Pro" font-size="16.00">Illumination&#45;Engine</text>
<text text-anchor="start" x="1510.5" y="-108.7" font-family="Source Sans Pro" font-size="16.00">/src/GraphicsModule</text>
<text text-anchor="middle" x="1588.5" y="-90.7" font-family="Source Sans Pro" font-size="16.00">/Shader/IEPipeline.cpp</text>
</a>
</g>
</g>
<!-- Node8&#45;&gt;Node22 -->
<g id="edge23" class="edge">
<title>Node8&#45;&gt;Node22</title>
<path fill="none" stroke="midnightblue" d="M1947.22,-186.25C1939.93,-183.95 1932.62,-181.82 1925.5,-180 1820.16,-153.03 1789.4,-168.7 1683.5,-144 1680.55,-143.31 1677.56,-142.57 1674.54,-141.8"/>
<polygon fill="midnightblue" stroke="midnightblue" points="1946.53,-189.71 1957.12,-189.49 1948.7,-183.05 1946.53,-189.71"/>
</g>
<!-- Node23 -->
<g id="node23" class="node">
<title>Node23</title>
<g id="a_node23"><a xlink:href="_i_e_shader_8cpp.html" target="_top" xlink:title=" ">
<polygon fill="white" stroke="black" points="1692.5,-81.5 1692.5,-143.5 1856.5,-143.5 1856.5,-81.5 1692.5,-81.5"/>
<text text-anchor="start" x="1700.5" y="-126.7" font-family="Source Sans Pro" font-size="16.00">Illumination&#45;Engine</text>
<text text-anchor="start" x="1700.5" y="-108.7" font-family="Source Sans Pro" font-size="16.00">/src/GraphicsModule</text>
<text text-anchor="middle" x="1774.5" y="-90.7" font-family="Source Sans Pro" font-size="16.00">/Shader/IEShader.cpp</text>
</a>
</g>
</g>
<!-- Node8&#45;&gt;Node23 -->
<g id="edge24" class="edge">
<title>Node8&#45;&gt;Node23</title>
<path fill="none" stroke="midnightblue" d="M1949.71,-185.48C1916.98,-172.04 1879.68,-156.71 1847.93,-143.67"/>
<polygon fill="midnightblue" stroke="midnightblue" points="1948.68,-188.85 1959.26,-189.41 1951.34,-182.37 1948.68,-188.85"/>
</g>
<!-- Node13 -->
<g id="node13" class="node">
<title>Node13</title>
<g id="a_node13"><a xlink:href="main_8cpp.html" target="_top" xlink:title=" ">
<polygon fill="white" stroke="black" points="2404.5,-0.5 2404.5,-44.5 2554.5,-44.5 2554.5,-0.5 2404.5,-0.5"/>
<text text-anchor="start" x="2412.5" y="-27.7" font-family="Source Sans Pro" font-size="16.00">Illumination&#45;Engine</text>
<text text-anchor="middle" x="2479.5" y="-9.7" font-family="Source Sans Pro" font-size="16.00">/src/main.cpp</text>
</a>
</g>
</g>
<!-- Node12&#45;&gt;Node13 -->
<g id="edge14" class="edge">
<title>Node12&#45;&gt;Node13</title>
<path fill="none" stroke="midnightblue" d="M2479.5,-71.09C2479.5,-61.97 2479.5,-52.64 2479.5,-44.68"/>
<polygon fill="midnightblue" stroke="midnightblue" points="2476,-71.22 2479.5,-81.22 2483,-71.22 2476,-71.22"/>
</g>
<!-- Node24&#45;&gt;Node3 -->
<g id="edge26" class="edge">
<title>Node24&#45;&gt;Node3</title>
<path fill="none" stroke="midnightblue" d="M2638.34,-294.01C2608.5,-283.39 2575.25,-271.56 2544.4,-260.59"/>
<polygon fill="midnightblue" stroke="midnightblue" points="2637.31,-297.35 2647.9,-297.41 2639.65,-290.76 2637.31,-297.35"/>
</g>
<!-- Node24&#45;&gt;Node8 -->
<g id="edge28" class="edge">
<title>Node24&#45;&gt;Node8</title>
<path fill="none" stroke="midnightblue" d="M2608.31,-297.68C2607.04,-297.45 2605.77,-297.22 2604.5,-297 2465.71,-272.63 2429.16,-279.71 2289.5,-261 2230.33,-253.07 2163.71,-242.8 2113.12,-234.71"/>
<polygon fill="midnightblue" stroke="midnightblue" points="2607.72,-301.13 2618.19,-299.54 2609.02,-294.25 2607.72,-301.13"/>
</g>
<!-- Node24&#45;&gt;Node16 -->
<g id="edge29" class="edge">
<title>Node24&#45;&gt;Node16</title>
<path fill="none" stroke="midnightblue" d="M2827.39,-292.69C2843.64,-283.98 2859.46,-273.48 2872.5,-261 2901.96,-232.83 2886.42,-208.56 2915.5,-180 2930.42,-165.35 2949.23,-153.26 2967.89,-143.59"/>
<polygon fill="midnightblue" stroke="midnightblue" points="2825.63,-289.66 2818.33,-297.34 2828.83,-295.88 2825.63,-289.66"/>
</g>
<!-- Node24&#45;&gt;Node17 -->
<g id="edge30" class="edge">
<title>Node24&#45;&gt;Node17</title>
<path fill="none" stroke="midnightblue" d="M2842.15,-293.64C2864.58,-284.59 2887.45,-273.72 2907.5,-261 2951.3,-233.22 2945.57,-204.08 2991.5,-180 3063.37,-142.32 3091.32,-161.77 3170.5,-144 3173.61,-143.3 3176.77,-142.58 3179.95,-141.85"/>
<polygon fill="midnightblue" stroke="midnightblue" points="2840.6,-290.49 2832.57,-297.41 2843.16,-297.01 2840.6,-290.49"/>
</g>
<!-- Node25 -->
<g id="node25" class="node">
<title>Node25</title>
<g id="a_node25"><a xlink:href="_i_e_dependency_8cpp.html" target="_top" xlink:title=" ">
<polygon fill="white" stroke="black" points="2597.5,-189.5 2597.5,-251.5 2863.5,-251.5 2863.5,-189.5 2597.5,-189.5"/>
<text text-anchor="start" x="2605.5" y="-234.7" font-family="Source Sans Pro" font-size="16.00">Illumination&#45;Engine</text>
<text text-anchor="start" x="2605.5" y="-216.7" font-family="Source Sans Pro" font-size="16.00">/src/GraphicsModule</text>
<text text-anchor="middle" x="2730.5" y="-198.7" font-family="Source Sans Pro" font-size="16.00">/CommandBuffer/IEDependency.cpp</text>
</a>
</g>
</g>
<!-- Node24&#45;&gt;Node25 -->
<g id="edge27" class="edge">
<title>Node24&#45;&gt;Node25</title>
<path fill="none" stroke="midnightblue" d="M2731.74,-287.31C2731.52,-275.48 2731.28,-262.75 2731.07,-251.67"/>
<polygon fill="midnightblue" stroke="midnightblue" points="2728.24,-287.48 2731.93,-297.41 2735.24,-287.34 2728.24,-287.48"/>
</g>
</g>
</svg>
