<?xml version="1.0" encoding="UTF-8" standalone="no"?>
<!DOCTYPE svg PUBLIC "-//W3C//DTD SVG 1.1//EN"
 "http://www.w3.org/Graphics/SVG/1.1/DTD/svg11.dtd">
<!-- Generated by graphviz version 2.43.0 (0)
 -->
<!-- Title: Illumination&#45;Engine/src/Core/LogModule/IELogger.hpp Pages: 1 -->
<svg width="352pt" height="134pt"
 viewBox="0.00 0.00 352.00 134.00" xmlns="http://www.w3.org/2000/svg" xmlns:xlink="http://www.w3.org/1999/xlink">
<g id="graph0" class="graph" transform="scale(1 1) rotate(0) translate(4 130)">
<title>Illumination&#45;Engine/src/Core/LogModule/IELogger.hpp</title>
<polygon fill="white" stroke="transparent" points="-4,4 -4,-130 348,-130 348,4 -4,4"/>
<!-- Node1 -->
<g id="node1" class="node">
<title>Node1</title>
<g id="a_node1"><a xlink:title=" ">
<polygon fill="#bfbfbf" stroke="black" points="144.5,-63.5 144.5,-125.5 303.5,-125.5 303.5,-63.5 144.5,-63.5"/>
<text text-anchor="start" x="152.5" y="-108.7" font-family="Source Sans Pro" font-size="16.00">Illumination&#45;Engine</text>
<text text-anchor="start" x="152.5" y="-90.7" font-family="Source Sans Pro" font-size="16.00">/src/Core/LogModule</text>
<text text-anchor="middle" x="224" y="-72.7" font-family="Source Sans Pro" font-size="16.00">/IELogger.hpp</text>
</a>
</g>
</g>
<!-- Node2 -->
<g id="node2" class="node">
<title>Node2</title>
<g id="a_node2"><a xlink:title=" ">
<polygon fill="white" stroke="#bfbfbf" points="0,-0.5 0,-26.5 178,-26.5 178,-0.5 0,-0.5"/>
<text text-anchor="middle" x="89" y="-9.7" font-family="Source Sans Pro" font-size="16.00">include/spdlog/logger.h</text>
</a>
</g>
</g>
<!-- Node1&#45;&gt;Node2 -->
<g id="edge1" class="edge">
<title>Node1&#45;&gt;Node2</title>
<path fill="none" stroke="midnightblue" d="M172.58,-63.41C154.26,-52.69 134.28,-40.99 118.44,-31.73"/>
<polygon fill="midnightblue" stroke="midnightblue" points="120.04,-28.61 109.64,-26.58 116.5,-34.65 120.04,-28.61"/>
</g>
<!-- Node3 -->
<g id="node3" class="node">
<title>Node3</title>
<g id="a_node3"><a xlink:title=" ">
<polygon fill="white" stroke="#bfbfbf" points="196.5,-0.5 196.5,-26.5 251.5,-26.5 251.5,-0.5 196.5,-0.5"/>
<text text-anchor="middle" x="224" y="-9.7" font-family="Source Sans Pro" font-size="16.00">string</text>
</a>
</g>
</g>
<!-- Node1&#45;&gt;Node3 -->
<g id="edge2" class="edge">
<title>Node1&#45;&gt;Node3</title>
<path fill="none" stroke="midnightblue" d="M224,-63.18C224,-54.45 224,-45.08 224,-36.91"/>
<polygon fill="midnightblue" stroke="midnightblue" points="227.5,-36.7 224,-26.7 220.5,-36.7 227.5,-36.7"/>
</g>
<!-- Node4 -->
<g id="node4" class="node">
<title>Node4</title>
<g id="a_node4"><a xlink:title=" ">
<polygon fill="white" stroke="#bfbfbf" points="270,-0.5 270,-26.5 344,-26.5 344,-0.5 270,-0.5"/>
<text text-anchor="middle" x="307" y="-9.7" font-family="Source Sans Pro" font-size="16.00">memory</text>
</a>
</g>
</g>
<!-- Node1&#45;&gt;Node4 -->
<g id="edge3" class="edge">
<title>Node1&#45;&gt;Node4</title>
<path fill="none" stroke="midnightblue" d="M255.85,-63.18C266.28,-53.26 277.57,-42.51 286.88,-33.65"/>
<polygon fill="midnightblue" stroke="midnightblue" points="289.35,-36.13 294.18,-26.7 284.52,-31.06 289.35,-36.13"/>
</g>
</g>
</svg>
