<?xml version="1.0" encoding="UTF-8" standalone="no"?>
<!DOCTYPE svg PUBLIC "-//W3C//DTD SVG 1.1//EN"
 "http://www.w3.org/Graphics/SVG/1.1/DTD/svg11.dtd">
<!-- Generated by graphviz version 2.43.0 (0)
 -->
<!-- Title: Illumination&#45;Engine/src/GraphicsModule/CommandBuffer/IECommandPool.hpp Pages: 1 -->
<svg width="2418pt" height="602pt"
 viewBox="0.00 0.00 2417.50 602.00" xmlns="http://www.w3.org/2000/svg" xmlns:xlink="http://www.w3.org/1999/xlink">
<g id="graph0" class="graph" transform="scale(1 1) rotate(0) translate(4 598)">
<title>Illumination&#45;Engine/src/GraphicsModule/CommandBuffer/IECommandPool.hpp</title>
<polygon fill="white" stroke="transparent" points="-4,4 -4,-598 2413.5,-598 2413.5,4 -4,4"/>
<!-- Node1 -->
<g id="node1" class="node">
<title>Node1</title>
<g id="a_node1"><a xlink:title=" ">
<polygon fill="#bfbfbf" stroke="black" points="1024.5,-531.5 1024.5,-593.5 1309.5,-593.5 1309.5,-531.5 1024.5,-531.5"/>
<text text-anchor="start" x="1032.5" y="-576.7" font-family="Source Sans Pro" font-size="16.00">Illumination&#45;Engine</text>
<text text-anchor="start" x="1032.5" y="-558.7" font-family="Source Sans Pro" font-size="16.00">/src/GraphicsModule</text>
<text text-anchor="middle" x="1167" y="-540.7" font-family="Source Sans Pro" font-size="16.00">/CommandBuffer/IECommandPool.hpp</text>
</a>
</g>
</g>
<!-- Node2 -->
<g id="node2" class="node">
<title>Node2</title>
<g id="a_node2"><a xlink:href="_i_e_command_buffer_8hpp.html" target="_top" xlink:title=" ">
<polygon fill="white" stroke="black" points="1081,-468.5 1081,-494.5 1253,-494.5 1253,-468.5 1081,-468.5"/>
<text text-anchor="middle" x="1167" y="-477.7" font-family="Source Sans Pro" font-size="16.00">IECommandBuffer.hpp</text>
</a>
</g>
</g>
<!-- Node1&#45;&gt;Node2 -->
<g id="edge1" class="edge">
<title>Node1&#45;&gt;Node2</title>
<path fill="none" stroke="midnightblue" d="M1167,-531.18C1167,-522.45 1167,-513.08 1167,-504.91"/>
<polygon fill="midnightblue" stroke="midnightblue" points="1170.5,-504.7 1167,-494.7 1163.5,-504.7 1170.5,-504.7"/>
</g>
<!-- Node7 -->
<g id="node7" class="node">
<title>Node7</title>
<g id="a_node7"><a xlink:title=" ">
<polygon fill="white" stroke="#bfbfbf" points="883.5,-0.5 883.5,-26.5 942.5,-26.5 942.5,-0.5 883.5,-0.5"/>
<text text-anchor="middle" x="913" y="-9.7" font-family="Source Sans Pro" font-size="16.00">vector</text>
</a>
</g>
</g>
<!-- Node1&#45;&gt;Node7 -->
<g id="edge85" class="edge">
<title>Node1&#45;&gt;Node7</title>
<path fill="none" stroke="midnightblue" d="M1024.49,-557.67C713.17,-547.4 0,-512.71 0,-410.5 0,-410.5 0,-410.5 0,-165.5 0,-112.71 14.97,-90.55 60,-63 129.81,-20.3 713.12,-15.18 872.75,-14.58"/>
<polygon fill="midnightblue" stroke="midnightblue" points="873.09,-18.08 883.08,-14.54 873.06,-11.08 873.09,-18.08"/>
</g>
<!-- Node8 -->
<g id="node8" class="node">
<title>Node8</title>
<g id="a_node8"><a xlink:title=" ">
<polygon fill="white" stroke="#bfbfbf" points="672.5,-72.5 672.5,-98.5 797.5,-98.5 797.5,-72.5 672.5,-72.5"/>
<text text-anchor="middle" x="735" y="-81.7" font-family="Source Sans Pro" font-size="16.00">vulkan/vulkan.h</text>
</a>
</g>
</g>
<!-- Node1&#45;&gt;Node8 -->
<g id="edge83" class="edge">
<title>Node1&#45;&gt;Node8</title>
<path fill="none" stroke="midnightblue" d="M1024.16,-551.48C827.11,-535.41 484.35,-498.69 380,-432 343.33,-408.57 337.79,-392.59 325,-351 277.15,-195.35 532.37,-124.31 662.47,-98.58"/>
<polygon fill="midnightblue" stroke="midnightblue" points="663.22,-102 672.37,-96.66 661.89,-95.13 663.22,-102"/>
</g>
<!-- Node11 -->
<g id="node11" class="node">
<title>Node11</title>
<g id="a_node11"><a xlink:title=" ">
<polygon fill="white" stroke="#bfbfbf" points="1740.5,-0.5 1740.5,-26.5 1803.5,-26.5 1803.5,-0.5 1740.5,-0.5"/>
<text text-anchor="middle" x="1772" y="-9.7" font-family="Source Sans Pro" font-size="16.00">cstdint</text>
</a>
</g>
</g>
<!-- Node1&#45;&gt;Node11 -->
<g id="edge84" class="edge">
<title>Node1&#45;&gt;Node11</title>
<path fill="none" stroke="midnightblue" d="M1309.68,-554.34C1584.64,-538.64 2161,-495.57 2161,-410.5 2161,-410.5 2161,-410.5 2161,-246.5 2161,-86.06 1913.91,-34 1813.59,-19.47"/>
<polygon fill="midnightblue" stroke="midnightblue" points="1813.89,-15.97 1803.5,-18.06 1812.93,-22.91 1813.89,-15.97"/>
</g>
<!-- Node34 -->
<g id="node34" class="node">
<title>Node34</title>
<g id="a_node34"><a xlink:title=" ">
<polygon fill="white" stroke="#bfbfbf" points="2189.5,-468.5 2189.5,-494.5 2302.5,-494.5 2302.5,-468.5 2189.5,-468.5"/>
<text text-anchor="middle" x="2246" y="-477.7" font-family="Source Sans Pro" font-size="16.00">VkBootstrap.h</text>
</a>
</g>
</g>
<!-- Node1&#45;&gt;Node34 -->
<g id="edge82" class="edge">
<title>Node1&#45;&gt;Node34</title>
<path fill="none" stroke="midnightblue" d="M1309.76,-556.96C1505.49,-549.62 1867.9,-532.05 2175,-495 2176.29,-494.84 2177.6,-494.68 2178.91,-494.51"/>
<polygon fill="midnightblue" stroke="midnightblue" points="2179.7,-497.93 2189.11,-493.07 2178.72,-491 2179.7,-497.93"/>
</g>
<!-- Node3 -->
<g id="node3" class="node">
<title>Node3</title>
<g id="a_node3"><a xlink:href="_i_e_buffer_8hpp.html" target="_top" xlink:title=" ">
<polygon fill="white" stroke="black" points="1469.5,-234.5 1469.5,-260.5 1616.5,-260.5 1616.5,-234.5 1469.5,-234.5"/>
<text text-anchor="middle" x="1543" y="-243.7" font-family="Source Sans Pro" font-size="16.00">Buffer/IEBuffer.hpp</text>
</a>
</g>
</g>
<!-- Node2&#45;&gt;Node3 -->
<g id="edge2" class="edge">
<title>Node2&#45;&gt;Node3</title>
<path fill="none" stroke="midnightblue" d="M1253.26,-470.48C1313.54,-462.2 1387.75,-449.05 1414,-432 1476.36,-391.5 1517.46,-309.34 1534.32,-270.19"/>
<polygon fill="midnightblue" stroke="midnightblue" points="1537.63,-271.36 1538.26,-260.78 1531.17,-268.65 1537.63,-271.36"/>
</g>
<!-- Node2&#45;&gt;Node7 -->
<g id="edge80" class="edge">
<title>Node2&#45;&gt;Node7</title>
<path fill="none" stroke="midnightblue" d="M1080.73,-480.2C884.14,-478.82 407.97,-471.4 253,-432 150.4,-405.92 38,-435.36 38,-329.5 38,-329.5 38,-329.5 38,-165.5 38,-128.39 13.06,-119.17 165,-63 296.62,-14.34 737.31,-13.25 872.94,-14.11"/>
<polygon fill="midnightblue" stroke="midnightblue" points="873.25,-17.61 883.27,-14.18 873.3,-10.61 873.25,-17.61"/>
</g>
<!-- Node2&#45;&gt;Node8 -->
<g id="edge81" class="edge">
<title>Node2&#45;&gt;Node8</title>
<path fill="none" stroke="midnightblue" d="M1080.75,-477.66C997.6,-473.17 879.46,-461.62 845,-432 800.55,-393.79 842.01,-352.25 806,-306 787.13,-281.76 764.72,-295.09 747,-270 725.78,-239.95 733.8,-225.59 730,-189 727.13,-161.36 729.61,-129.35 731.99,-108.56"/>
<polygon fill="midnightblue" stroke="midnightblue" points="735.48,-108.88 733.23,-98.53 728.53,-108.02 735.48,-108.88"/>
</g>
<!-- Node15 -->
<g id="node15" class="node">
<title>Node15</title>
<g id="a_node15"><a xlink:href="_i_e_copy_buffer_to_image_info_8hpp.html" target="_top" xlink:title=" ">
<polygon fill="white" stroke="black" points="1083.5,-306.5 1083.5,-350.5 1356.5,-350.5 1356.5,-306.5 1083.5,-306.5"/>
<text text-anchor="start" x="1091.5" y="-333.7" font-family="Source Sans Pro" font-size="16.00">CommandBuffer/Dependency</text>
<text text-anchor="middle" x="1220" y="-315.7" font-family="Source Sans Pro" font-size="16.00">Structs/IECopyBufferToImageInfo.hpp</text>
</a>
</g>
</g>
<!-- Node2&#45;&gt;Node15 -->
<g id="edge20" class="edge">
<title>Node2&#45;&gt;Node15</title>
<path fill="none" stroke="midnightblue" d="M1161.97,-468.39C1155.12,-449.97 1145.01,-414.18 1157,-387 1162,-375.67 1170.45,-365.61 1179.56,-357.2"/>
<polygon fill="midnightblue" stroke="midnightblue" points="1182.02,-359.7 1187.32,-350.53 1177.45,-354.4 1182.02,-359.7"/>
</g>
<!-- Node16 -->
<g id="node16" class="node">
<title>Node16</title>
<g id="a_node16"><a xlink:href="_i_e_image_8hpp.html" target="_top" xlink:title=" ">
<polygon fill="white" stroke="black" points="1179.5,-234.5 1179.5,-260.5 1328.5,-260.5 1328.5,-234.5 1179.5,-234.5"/>
<text text-anchor="middle" x="1254" y="-243.7" font-family="Source Sans Pro" font-size="16.00">Image/IEImage.hpp</text>
</a>
</g>
</g>
<!-- Node2&#45;&gt;Node16 -->
<g id="edge76" class="edge">
<title>Node2&#45;&gt;Node16</title>
<path fill="none" stroke="midnightblue" d="M1253.2,-473.41C1310.32,-466.71 1377.96,-454.26 1396,-432 1421.91,-400.03 1366.46,-307.63 1365,-306 1348.18,-287.18 1323.74,-273.59 1302.07,-264.37"/>
<polygon fill="midnightblue" stroke="midnightblue" points="1303.25,-261.07 1292.66,-260.56 1300.62,-267.56 1303.25,-261.07"/>
</g>
<!-- Node18 -->
<g id="node18" class="node">
<title>Node18</title>
<g id="a_node18"><a xlink:href="_i_e_dependency_info_8hpp.html" target="_top" xlink:title=" ">
<polygon fill="white" stroke="black" points="389,-387.5 389,-431.5 613,-431.5 613,-387.5 389,-387.5"/>
<text text-anchor="start" x="397" y="-414.7" font-family="Source Sans Pro" font-size="16.00">CommandBuffer/Dependency</text>
<text text-anchor="middle" x="501" y="-396.7" font-family="Source Sans Pro" font-size="16.00">Structs/IEDependencyInfo.hpp</text>
</a>
</g>
</g>
<!-- Node2&#45;&gt;Node18 -->
<g id="edge35" class="edge">
<title>Node2&#45;&gt;Node18</title>
<path fill="none" stroke="midnightblue" d="M1080.96,-471.46C964.52,-459.22 756.12,-437.31 623.41,-423.37"/>
<polygon fill="midnightblue" stroke="midnightblue" points="623.5,-419.86 613.19,-422.29 622.77,-426.82 623.5,-419.86"/>
</g>
<!-- Node21 -->
<g id="node21" class="node">
<title>Node21</title>
<g id="a_node21"><a xlink:href="_i_e_render_pass_begin_info_8hpp.html" target="_top" xlink:title=" ">
<polygon fill="white" stroke="black" points="854,-387.5 854,-431.5 1110,-431.5 1110,-387.5 854,-387.5"/>
<text text-anchor="start" x="862" y="-414.7" font-family="Source Sans Pro" font-size="16.00">CommandBuffer/Dependency</text>
<text text-anchor="middle" x="982" y="-396.7" font-family="Source Sans Pro" font-size="16.00">Structs/IERenderPassBeginInfo.hpp</text>
</a>
</g>
</g>
<!-- Node2&#45;&gt;Node21 -->
<g id="edge47" class="edge">
<title>Node2&#45;&gt;Node21</title>
<path fill="none" stroke="midnightblue" d="M1135.2,-468.47C1111.05,-459.33 1077.03,-446.46 1047.18,-435.16"/>
<polygon fill="midnightblue" stroke="midnightblue" points="1048.24,-431.82 1037.65,-431.56 1045.77,-438.37 1048.24,-431.82"/>
</g>
<!-- Node23 -->
<g id="node23" class="node">
<title>Node23</title>
<g id="a_node23"><a xlink:href="_i_e_pipeline_8hpp.html" target="_top" xlink:title=" ">
<polygon fill="white" stroke="black" points="1742,-306.5 1742,-350.5 1922,-350.5 1922,-306.5 1742,-306.5"/>
<text text-anchor="start" x="1750" y="-333.7" font-family="Source Sans Pro" font-size="16.00">GraphicsModule/Shader</text>
<text text-anchor="middle" x="1832" y="-315.7" font-family="Source Sans Pro" font-size="16.00">/IEPipeline.hpp</text>
</a>
</g>
</g>
<!-- Node2&#45;&gt;Node23 -->
<g id="edge54" class="edge">
<title>Node2&#45;&gt;Node23</title>
<path fill="none" stroke="midnightblue" d="M1253.16,-472.5C1323.41,-465 1424.88,-451.92 1512,-432 1601.79,-411.47 1702.55,-377.27 1766.59,-354.08"/>
<polygon fill="midnightblue" stroke="midnightblue" points="1767.96,-357.3 1776.16,-350.59 1765.57,-350.72 1767.96,-357.3"/>
</g>
<!-- Node30 -->
<g id="node30" class="node">
<title>Node30</title>
<g id="a_node30"><a xlink:href="_i_e_dependent_8hpp.html" target="_top" xlink:title=" ">
<polygon fill="white" stroke="black" points="66,-153.5 66,-179.5 202,-179.5 202,-153.5 66,-153.5"/>
<text text-anchor="middle" x="134" y="-162.7" font-family="Source Sans Pro" font-size="16.00">IEDependent.hpp</text>
</a>
</g>
</g>
<!-- Node2&#45;&gt;Node30 -->
<g id="edge73" class="edge">
<title>Node2&#45;&gt;Node30</title>
<path fill="none" stroke="midnightblue" d="M1080.96,-479.48C905.1,-476.68 510.14,-466.64 380,-432 301.44,-411.09 272.37,-409.58 216,-351 170.64,-303.86 147.74,-227.34 138.73,-189.76"/>
<polygon fill="midnightblue" stroke="midnightblue" points="142.1,-188.81 136.46,-179.84 135.28,-190.37 142.1,-188.81"/>
</g>
<!-- Node31 -->
<g id="node31" class="node">
<title>Node31</title>
<g id="a_node31"><a xlink:title=" ">
<polygon fill="white" stroke="#bfbfbf" points="1166.5,-396.5 1166.5,-422.5 1225.5,-422.5 1225.5,-396.5 1166.5,-396.5"/>
<text text-anchor="middle" x="1196" y="-405.7" font-family="Source Sans Pro" font-size="16.00">mutex</text>
</a>
</g>
</g>
<!-- Node2&#45;&gt;Node31 -->
<g id="edge77" class="edge">
<title>Node2&#45;&gt;Node31</title>
<path fill="none" stroke="midnightblue" d="M1172.05,-468.31C1176.21,-458.27 1182.2,-443.8 1187.16,-431.85"/>
<polygon fill="midnightblue" stroke="midnightblue" points="1190.41,-433.13 1191.01,-422.55 1183.95,-430.45 1190.41,-433.13"/>
</g>
<!-- Node32 -->
<g id="node32" class="node">
<title>Node32</title>
<g id="a_node32"><a xlink:title=" ">
<polygon fill="white" stroke="#bfbfbf" points="1243.5,-396.5 1243.5,-422.5 1304.5,-422.5 1304.5,-396.5 1243.5,-396.5"/>
<text text-anchor="middle" x="1274" y="-405.7" font-family="Source Sans Pro" font-size="16.00">thread</text>
</a>
</g>
</g>
<!-- Node2&#45;&gt;Node32 -->
<g id="edge78" class="edge">
<title>Node2&#45;&gt;Node32</title>
<path fill="none" stroke="midnightblue" d="M1185.64,-468.31C1202.59,-457.22 1227.82,-440.71 1246.98,-428.17"/>
<polygon fill="midnightblue" stroke="midnightblue" points="1249.12,-430.96 1255.58,-422.55 1245.29,-425.1 1249.12,-430.96"/>
</g>
<!-- Node33 -->
<g id="node33" class="node">
<title>Node33</title>
<g id="a_node33"><a xlink:title=" ">
<polygon fill="white" stroke="#bfbfbf" points="1323,-396.5 1323,-422.5 1387,-422.5 1387,-396.5 1323,-396.5"/>
<text text-anchor="middle" x="1355" y="-405.7" font-family="Source Sans Pro" font-size="16.00">variant</text>
</a>
</g>
</g>
<!-- Node2&#45;&gt;Node33 -->
<g id="edge79" class="edge">
<title>Node2&#45;&gt;Node33</title>
<path fill="none" stroke="midnightblue" d="M1208.84,-468.46C1238.37,-459.51 1278.64,-446.4 1313,-432 1316.64,-430.48 1320.39,-428.77 1324.09,-426.99"/>
<polygon fill="midnightblue" stroke="midnightblue" points="1325.67,-430.11 1333.07,-422.52 1322.55,-423.85 1325.67,-430.11"/>
</g>
<!-- Node4 -->
<g id="node4" class="node">
<title>Node4</title>
<g id="a_node4"><a xlink:href="_i_e_dependency_8hpp.html" target="_top" xlink:title=" ">
<polygon fill="white" stroke="black" points="1014.5,-144.5 1014.5,-188.5 1259.5,-188.5 1259.5,-144.5 1014.5,-144.5"/>
<text text-anchor="start" x="1022.5" y="-171.7" font-family="Source Sans Pro" font-size="16.00">GraphicsModule/CommandBuffer</text>
<text text-anchor="middle" x="1137" y="-153.7" font-family="Source Sans Pro" font-size="16.00">/IEDependency.hpp</text>
</a>
</g>
</g>
<!-- Node3&#45;&gt;Node4 -->
<g id="edge3" class="edge">
<title>Node3&#45;&gt;Node4</title>
<path fill="none" stroke="midnightblue" d="M1480.9,-234.42C1421.05,-222.77 1328.97,-204.85 1255.15,-190.49"/>
<polygon fill="midnightblue" stroke="midnightblue" points="1255.81,-187.05 1245.32,-188.58 1254.47,-193.92 1255.81,-187.05"/>
</g>
<!-- Node3&#45;&gt;Node7 -->
<g id="edge19" class="edge">
<title>Node3&#45;&gt;Node7</title>
<path fill="none" stroke="midnightblue" d="M1566.28,-234.38C1582.41,-224.55 1602.61,-209.05 1612,-189 1620.48,-170.89 1624.79,-159.38 1612,-144 1601.21,-131.03 1098.48,-45.67 952.41,-21.1"/>
<polygon fill="midnightblue" stroke="midnightblue" points="952.96,-17.65 942.52,-19.44 951.8,-24.55 952.96,-17.65"/>
</g>
<!-- Node3&#45;&gt;Node8 -->
<g id="edge16" class="edge">
<title>Node3&#45;&gt;Node8</title>
<path fill="none" stroke="midnightblue" d="M1557.29,-234.42C1580.06,-213.78 1619.53,-171.29 1594,-144 1567.3,-115.45 1010.41,-95.16 807.84,-88.7"/>
<polygon fill="midnightblue" stroke="midnightblue" points="807.71,-85.19 797.6,-88.37 807.49,-92.19 807.71,-85.19"/>
</g>
<!-- Node9 -->
<g id="node9" class="node">
<title>Node9</title>
<g id="a_node9"><a xlink:href="_i_e_a_p_i_8hpp.html" target="_top" xlink:title=" ">
<polygon fill="white" stroke="black" points="1679.5,-153.5 1679.5,-179.5 1762.5,-179.5 1762.5,-153.5 1679.5,-153.5"/>
<text text-anchor="middle" x="1721" y="-162.7" font-family="Source Sans Pro" font-size="16.00">IEAPI.hpp</text>
</a>
</g>
</g>
<!-- Node3&#45;&gt;Node9 -->
<g id="edge8" class="edge">
<title>Node3&#45;&gt;Node9</title>
<path fill="none" stroke="midnightblue" d="M1570.42,-234.33C1600.96,-220.78 1650.45,-198.81 1684.3,-183.79"/>
<polygon fill="midnightblue" stroke="midnightblue" points="1686.12,-186.81 1693.84,-179.55 1683.28,-180.41 1686.12,-186.81"/>
</g>
<!-- Node3&#45;&gt;Node11 -->
<g id="edge17" class="edge">
<title>Node3&#45;&gt;Node11</title>
<path fill="none" stroke="midnightblue" d="M1616.78,-237.82C1676.21,-229.13 1752.9,-213.48 1772,-189 1806.76,-144.43 1790.85,-72.13 1779.67,-36.2"/>
<polygon fill="midnightblue" stroke="midnightblue" points="1782.99,-35.1 1776.55,-26.69 1776.34,-37.28 1782.99,-35.1"/>
</g>
<!-- Node12 -->
<g id="node12" class="node">
<title>Node12</title>
<g id="a_node12"><a xlink:title=" ">
<polygon fill="white" stroke="#bfbfbf" points="1354.5,-153.5 1354.5,-179.5 1483.5,-179.5 1483.5,-153.5 1354.5,-153.5"/>
<text text-anchor="middle" x="1419" y="-162.7" font-family="Source Sans Pro" font-size="16.00">vk_mem_alloc.h</text>
</a>
</g>
</g>
<!-- Node3&#45;&gt;Node12 -->
<g id="edge14" class="edge">
<title>Node3&#45;&gt;Node12</title>
<path fill="none" stroke="midnightblue" d="M1523.9,-234.33C1503.17,-221.13 1469.91,-199.94 1446.41,-184.96"/>
<polygon fill="midnightblue" stroke="midnightblue" points="1448.24,-181.98 1437.92,-179.55 1444.47,-187.88 1448.24,-181.98"/>
</g>
<!-- Node13 -->
<g id="node13" class="node">
<title>Node13</title>
<g id="a_node13"><a xlink:title=" ">
<polygon fill="white" stroke="#bfbfbf" points="1501.5,-153.5 1501.5,-179.5 1584.5,-179.5 1584.5,-153.5 1501.5,-153.5"/>
<text text-anchor="middle" x="1543" y="-162.7" font-family="Source Sans Pro" font-size="16.00">GL/glew.h</text>
</a>
</g>
</g>
<!-- Node3&#45;&gt;Node13 -->
<g id="edge15" class="edge">
<title>Node3&#45;&gt;Node13</title>
<path fill="none" stroke="midnightblue" d="M1543,-234.16C1543,-222.33 1543,-204.21 1543,-189.84"/>
<polygon fill="midnightblue" stroke="midnightblue" points="1546.5,-189.76 1543,-179.76 1539.5,-189.76 1546.5,-189.76"/>
</g>
<!-- Node14 -->
<g id="node14" class="node">
<title>Node14</title>
<g id="a_node14"><a xlink:title=" ">
<polygon fill="white" stroke="#bfbfbf" points="1819,-153.5 1819,-179.5 1905,-179.5 1905,-153.5 1819,-153.5"/>
<text text-anchor="middle" x="1862" y="-162.7" font-family="Source Sans Pro" font-size="16.00">functional</text>
</a>
</g>
</g>
<!-- Node3&#45;&gt;Node14 -->
<g id="edge18" class="edge">
<title>Node3&#45;&gt;Node14</title>
<path fill="none" stroke="midnightblue" d="M1610.44,-234.48C1663.77,-224.32 1739.82,-208.34 1805,-189 1810.78,-187.29 1816.81,-185.27 1822.7,-183.17"/>
<polygon fill="midnightblue" stroke="midnightblue" points="1824.23,-186.34 1832.4,-179.59 1821.81,-179.77 1824.23,-186.34"/>
</g>
<!-- Node5 -->
<g id="node5" class="node">
<title>Node5</title>
<g id="a_node5"><a xlink:title=" ">
<polygon fill="white" stroke="#bfbfbf" points="307,-72.5 307,-98.5 381,-98.5 381,-72.5 307,-72.5"/>
<text text-anchor="middle" x="344" y="-81.7" font-family="Source Sans Pro" font-size="16.00">memory</text>
</a>
</g>
</g>
<!-- Node4&#45;&gt;Node5 -->
<g id="edge4" class="edge">
<title>Node4&#45;&gt;Node5</title>
<path fill="none" stroke="midnightblue" d="M1014.44,-145.22C1011.26,-144.79 1008.11,-144.39 1005,-144 775.74,-115.4 499.97,-96.32 391.3,-89.4"/>
<polygon fill="midnightblue" stroke="midnightblue" points="391.21,-85.88 381.01,-88.75 390.77,-92.87 391.21,-85.88"/>
</g>
<!-- Node6 -->
<g id="node6" class="node">
<title>Node6</title>
<g id="a_node6"><a xlink:title=" ">
<polygon fill="white" stroke="#bfbfbf" points="1559.5,-0.5 1559.5,-26.5 1614.5,-26.5 1614.5,-0.5 1559.5,-0.5"/>
<text text-anchor="middle" x="1587" y="-9.7" font-family="Source Sans Pro" font-size="16.00">string</text>
</a>
</g>
</g>
<!-- Node4&#45;&gt;Node6 -->
<g id="edge5" class="edge">
<title>Node4&#45;&gt;Node6</title>
<path fill="none" stroke="midnightblue" d="M1200.04,-144.35C1295.19,-112.42 1472.52,-52.91 1549.61,-27.05"/>
<polygon fill="midnightblue" stroke="midnightblue" points="1551.01,-30.27 1559.37,-23.77 1548.78,-23.63 1551.01,-30.27"/>
</g>
<!-- Node4&#45;&gt;Node7 -->
<g id="edge6" class="edge">
<title>Node4&#45;&gt;Node7</title>
<path fill="none" stroke="midnightblue" d="M1105.38,-144.19C1061,-114.27 981.03,-60.36 939.56,-32.41"/>
<polygon fill="midnightblue" stroke="midnightblue" points="941.33,-29.38 931.08,-26.69 937.42,-35.18 941.33,-29.38"/>
</g>
<!-- Node4&#45;&gt;Node8 -->
<g id="edge7" class="edge">
<title>Node4&#45;&gt;Node8</title>
<path fill="none" stroke="midnightblue" d="M1030.06,-144.49C959.23,-130.56 868.26,-112.69 806.18,-100.49"/>
<polygon fill="midnightblue" stroke="midnightblue" points="806.58,-97 796.09,-98.51 805.23,-103.87 806.58,-97"/>
</g>
<!-- Node9&#45;&gt;Node6 -->
<g id="edge13" class="edge">
<title>Node9&#45;&gt;Node6</title>
<path fill="none" stroke="midnightblue" d="M1689.48,-153.4C1659.33,-141.21 1616.9,-122.22 1606,-108 1590.36,-87.59 1586.7,-57.55 1586.24,-37.06"/>
<polygon fill="midnightblue" stroke="midnightblue" points="1589.74,-36.79 1586.26,-26.79 1582.74,-36.78 1589.74,-36.79"/>
</g>
<!-- Node10 -->
<g id="node10" class="node">
<title>Node10</title>
<g id="a_node10"><a xlink:href="_i_e_version_8hpp.html" target="_top" xlink:title=" ">
<polygon fill="white" stroke="black" points="1615,-72.5 1615,-98.5 1725,-98.5 1725,-72.5 1615,-72.5"/>
<text text-anchor="middle" x="1670" y="-81.7" font-family="Source Sans Pro" font-size="16.00">IEVersion.hpp</text>
</a>
</g>
</g>
<!-- Node9&#45;&gt;Node10 -->
<g id="edge9" class="edge">
<title>Node9&#45;&gt;Node10</title>
<path fill="none" stroke="midnightblue" d="M1713.03,-153.16C1705.1,-140.87 1692.77,-121.78 1683.34,-107.17"/>
<polygon fill="midnightblue" stroke="midnightblue" points="1686.28,-105.26 1677.91,-98.76 1680.4,-109.06 1686.28,-105.26"/>
</g>
<!-- Node10&#45;&gt;Node6 -->
<g id="edge11" class="edge">
<title>Node10&#45;&gt;Node6</title>
<path fill="none" stroke="midnightblue" d="M1655.54,-72.31C1642.69,-61.47 1623.7,-45.46 1608.97,-33.03"/>
<polygon fill="midnightblue" stroke="midnightblue" points="1611.19,-30.32 1601.29,-26.55 1606.68,-35.68 1611.19,-30.32"/>
</g>
<!-- Node10&#45;&gt;Node7 -->
<g id="edge12" class="edge">
<title>Node10&#45;&gt;Node7</title>
<path fill="none" stroke="midnightblue" d="M1614.69,-75.39C1587.7,-71.18 1554.71,-66.38 1525,-63 1309.66,-38.53 1050.29,-22.33 952.7,-16.71"/>
<polygon fill="midnightblue" stroke="midnightblue" points="952.87,-13.21 942.68,-16.13 952.47,-20.2 952.87,-13.21"/>
</g>
<!-- Node10&#45;&gt;Node11 -->
<g id="edge10" class="edge">
<title>Node10&#45;&gt;Node11</title>
<path fill="none" stroke="midnightblue" d="M1687.77,-72.31C1703.86,-61.27 1727.76,-44.86 1746,-32.34"/>
<polygon fill="midnightblue" stroke="midnightblue" points="1748.17,-35.1 1754.44,-26.55 1744.21,-29.33 1748.17,-35.1"/>
</g>
<!-- Node15&#45;&gt;Node3 -->
<g id="edge21" class="edge">
<title>Node15&#45;&gt;Node3</title>
<path fill="none" stroke="midnightblue" d="M1306.13,-306.43C1362.26,-292.71 1434.03,-275.15 1483.79,-262.98"/>
<polygon fill="midnightblue" stroke="midnightblue" points="1484.87,-266.32 1493.75,-260.55 1483.2,-259.52 1484.87,-266.32"/>
</g>
<!-- Node15&#45;&gt;Node5 -->
<g id="edge33" class="edge">
<title>Node15&#45;&gt;Node5</title>
<path fill="none" stroke="midnightblue" d="M1083.47,-307.33C980.48,-292.02 854.93,-273.07 843,-270 664.54,-224.08 460.96,-138.19 379.97,-102.59"/>
<polygon fill="midnightblue" stroke="midnightblue" points="381.27,-99.34 370.71,-98.51 378.44,-105.74 381.27,-99.34"/>
</g>
<!-- Node15&#45;&gt;Node8 -->
<g id="edge34" class="edge">
<title>Node15&#45;&gt;Node8</title>
<path fill="none" stroke="midnightblue" d="M1119.97,-306.46C1005.82,-280.72 828.39,-234.88 778,-189 754.6,-167.69 743.53,-131.61 738.6,-108.43"/>
<polygon fill="midnightblue" stroke="midnightblue" points="742.02,-107.66 736.69,-98.5 735.14,-108.98 742.02,-107.66"/>
</g>
<!-- Node15&#45;&gt;Node16 -->
<g id="edge22" class="edge">
<title>Node15&#45;&gt;Node16</title>
<path fill="none" stroke="midnightblue" d="M1229.11,-306.33C1233.93,-295.13 1239.84,-281.41 1244.69,-270.14"/>
<polygon fill="midnightblue" stroke="midnightblue" points="1248.04,-271.2 1248.78,-260.63 1241.61,-268.43 1248.04,-271.2"/>
</g>
<!-- Node16&#45;&gt;Node4 -->
<g id="edge23" class="edge">
<title>Node16&#45;&gt;Node4</title>
<path fill="none" stroke="midnightblue" d="M1235.98,-234.33C1220.27,-223.73 1196.93,-207.97 1176.86,-194.42"/>
<polygon fill="midnightblue" stroke="midnightblue" points="1178.74,-191.46 1168.49,-188.76 1174.82,-197.26 1178.74,-191.46"/>
</g>
<!-- Node16&#45;&gt;Node6 -->
<g id="edge31" class="edge">
<title>Node16&#45;&gt;Node6</title>
<path fill="none" stroke="midnightblue" d="M1258.13,-234.17C1265.73,-213.15 1283.79,-170.11 1312,-144 1339.73,-118.34 1354.81,-124.07 1389,-108 1446.09,-81.17 1512.36,-49.84 1551.92,-31.11"/>
<polygon fill="midnightblue" stroke="midnightblue" points="1553.84,-34.08 1561.38,-26.63 1550.85,-27.75 1553.84,-34.08"/>
</g>
<!-- Node16&#45;&gt;Node7 -->
<g id="edge32" class="edge">
<title>Node16&#45;&gt;Node7</title>
<path fill="none" stroke="midnightblue" d="M1179.36,-246.82C1076.13,-245.49 897.85,-236.19 857,-189 817.65,-143.54 866.91,-70.1 895.41,-34.77"/>
<polygon fill="midnightblue" stroke="midnightblue" points="898.45,-36.58 902.14,-26.65 893.06,-32.11 898.45,-36.58"/>
</g>
<!-- Node16&#45;&gt;Node8 -->
<g id="edge28" class="edge">
<title>Node16&#45;&gt;Node8</title>
<path fill="none" stroke="midnightblue" d="M1179.47,-242.86C1073.06,-236.61 883.84,-221.25 824,-189 805.64,-179.1 770.13,-133.9 749.95,-106.94"/>
<polygon fill="midnightblue" stroke="midnightblue" points="752.52,-104.52 743.75,-98.57 746.89,-108.69 752.52,-104.52"/>
</g>
<!-- Node16&#45;&gt;Node9 -->
<g id="edge24" class="edge">
<title>Node16&#45;&gt;Node9</title>
<path fill="none" stroke="midnightblue" d="M1324.98,-234.5C1393.76,-222.87 1501.03,-204.73 1594,-189 1618.78,-184.81 1646.27,-180.15 1669.33,-176.25"/>
<polygon fill="midnightblue" stroke="midnightblue" points="1669.97,-179.69 1679.24,-174.57 1668.8,-172.79 1669.97,-179.69"/>
</g>
<!-- Node16&#45;&gt;Node11 -->
<g id="edge29" class="edge">
<title>Node16&#45;&gt;Node11</title>
<path fill="none" stroke="midnightblue" d="M1266.87,-234.1C1278.5,-222.7 1295.9,-205.18 1310,-189 1326.64,-169.89 1322.78,-156.17 1345,-144 1421.14,-102.3 1664.29,-159.74 1734,-108 1756.63,-91.2 1765.82,-58.61 1769.53,-36.7"/>
<polygon fill="midnightblue" stroke="midnightblue" points="1773.02,-37.03 1770.98,-26.63 1766.09,-36.03 1773.02,-37.03"/>
</g>
<!-- Node16&#45;&gt;Node12 -->
<g id="edge27" class="edge">
<title>Node16&#45;&gt;Node12</title>
<path fill="none" stroke="midnightblue" d="M1279.42,-234.33C1307.6,-220.84 1353.21,-199 1384.58,-183.98"/>
<polygon fill="midnightblue" stroke="midnightblue" points="1386.31,-187.03 1393.82,-179.55 1383.29,-180.72 1386.31,-187.03"/>
</g>
<!-- Node16&#45;&gt;Node13 -->
<g id="edge25" class="edge">
<title>Node16&#45;&gt;Node13</title>
<path fill="none" stroke="midnightblue" d="M1316.72,-234.46C1365.4,-224.38 1434.28,-208.53 1493,-189 1497.92,-187.36 1503.02,-185.44 1508.01,-183.43"/>
<polygon fill="midnightblue" stroke="midnightblue" points="1509.5,-186.6 1517.37,-179.51 1506.8,-180.15 1509.5,-186.6"/>
</g>
<!-- Node16&#45;&gt;Node14 -->
<g id="edge30" class="edge">
<title>Node16&#45;&gt;Node14</title>
<path fill="none" stroke="midnightblue" d="M1328.73,-238.72C1461.69,-224.81 1729.41,-196.42 1772,-189 1783.99,-186.91 1796.77,-184.17 1808.82,-181.36"/>
<polygon fill="midnightblue" stroke="midnightblue" points="1809.83,-184.71 1818.74,-178.98 1808.2,-177.91 1809.83,-184.71"/>
</g>
<!-- Node17 -->
<g id="node17" class="node">
<title>Node17</title>
<g id="a_node17"><a xlink:title=" ">
<polygon fill="white" stroke="#bfbfbf" points="866,-144.5 866,-188.5 996,-188.5 996,-144.5 866,-144.5"/>
<text text-anchor="start" x="874" y="-171.7" font-family="Source Sans Pro" font-size="16.00">../contrib/stb/stb</text>
<text text-anchor="middle" x="931" y="-153.7" font-family="Source Sans Pro" font-size="16.00">_image.h</text>
</a>
</g>
</g>
<!-- Node16&#45;&gt;Node17 -->
<g id="edge26" class="edge">
<title>Node16&#45;&gt;Node17</title>
<path fill="none" stroke="midnightblue" d="M1197.91,-234.48C1149.57,-223.92 1077.71,-207.71 1006.38,-189.3"/>
<polygon fill="midnightblue" stroke="midnightblue" points="1006.87,-185.82 996.32,-186.69 1005.12,-192.59 1006.87,-185.82"/>
</g>
<!-- Node18&#45;&gt;Node5 -->
<g id="edge44" class="edge">
<title>Node18&#45;&gt;Node5</title>
<path fill="none" stroke="midnightblue" d="M388.85,-390.24C346.19,-380.8 304.74,-367.72 292,-351 234.83,-275.97 299.92,-155.12 330.19,-107.12"/>
<polygon fill="midnightblue" stroke="midnightblue" points="333.25,-108.82 335.73,-98.52 327.37,-105.03 333.25,-108.82"/>
</g>
<!-- Node18&#45;&gt;Node7 -->
<g id="edge45" class="edge">
<title>Node18&#45;&gt;Node7</title>
<path fill="none" stroke="midnightblue" d="M388.98,-390.85C339.13,-381.01 287.52,-367.41 269,-351 232.52,-318.67 230,-297.24 230,-248.5 230,-248.5 230,-248.5 230,-165.5 230,-110.83 250.88,-90.73 298,-63 347.44,-33.91 744.8,-19.54 873.17,-15.63"/>
<polygon fill="midnightblue" stroke="midnightblue" points="873.45,-19.12 883.34,-15.32 873.24,-12.13 873.45,-19.12"/>
</g>
<!-- Node18&#45;&gt;Node8 -->
<g id="edge46" class="edge">
<title>Node18&#45;&gt;Node8</title>
<path fill="none" stroke="midnightblue" d="M518.65,-387.48C527.28,-376.83 537.59,-363.53 546,-351 605.01,-263.07 595.45,-224.72 664,-144 676.75,-128.98 693.85,-115 708.07,-104.58"/>
<polygon fill="midnightblue" stroke="midnightblue" points="710.37,-107.24 716.48,-98.58 706.31,-101.54 710.37,-107.24"/>
</g>
<!-- Node19 -->
<g id="node19" class="node">
<title>Node19</title>
<g id="a_node19"><a xlink:href="_i_e_buffer_memory_barrier_8hpp.html" target="_top" xlink:title=" ">
<polygon fill="white" stroke="black" points="594.5,-315.5 594.5,-341.5 797.5,-341.5 797.5,-315.5 594.5,-315.5"/>
<text text-anchor="middle" x="696" y="-324.7" font-family="Source Sans Pro" font-size="16.00">IEBufferMemoryBarrier.hpp</text>
</a>
</g>
</g>
<!-- Node18&#45;&gt;Node19 -->
<g id="edge36" class="edge">
<title>Node18&#45;&gt;Node19</title>
<path fill="none" stroke="midnightblue" d="M553,-387.43C585.54,-374.25 626.79,-357.54 656.62,-345.45"/>
<polygon fill="midnightblue" stroke="midnightblue" points="658.31,-348.54 666.27,-341.55 655.68,-342.06 658.31,-348.54"/>
</g>
<!-- Node20 -->
<g id="node20" class="node">
<title>Node20</title>
<g id="a_node20"><a xlink:href="_i_e_image_memory_barrier_8hpp.html" target="_top" xlink:title=" ">
<polygon fill="white" stroke="black" points="334.5,-315.5 334.5,-341.5 537.5,-341.5 537.5,-315.5 334.5,-315.5"/>
<text text-anchor="middle" x="436" y="-324.7" font-family="Source Sans Pro" font-size="16.00">IEImageMemoryBarrier.hpp</text>
</a>
</g>
</g>
<!-- Node18&#45;&gt;Node20 -->
<g id="edge40" class="edge">
<title>Node18&#45;&gt;Node20</title>
<path fill="none" stroke="midnightblue" d="M483.58,-387.33C473.9,-375.56 461.92,-361 452.4,-349.44"/>
<polygon fill="midnightblue" stroke="midnightblue" points="455.03,-347.13 445.98,-341.63 449.63,-351.57 455.03,-347.13"/>
</g>
<!-- Node19&#45;&gt;Node3 -->
<g id="edge37" class="edge">
<title>Node19&#45;&gt;Node3</title>
<path fill="none" stroke="midnightblue" d="M772.05,-315.47C795.41,-312.06 821.23,-308.58 845,-306 1062.97,-282.33 1118.61,-289.38 1337,-270 1377.11,-266.44 1421.54,-261.88 1458.84,-257.88"/>
<polygon fill="midnightblue" stroke="midnightblue" points="1459.59,-261.32 1469.16,-256.77 1458.84,-254.36 1459.59,-261.32"/>
</g>
<!-- Node19&#45;&gt;Node5 -->
<g id="edge38" class="edge">
<title>Node19&#45;&gt;Node5</title>
<path fill="none" stroke="midnightblue" d="M628.04,-315.5C588.43,-306.66 538.47,-292.23 498,-270 450.25,-243.77 440.95,-230.79 406,-189 384.48,-163.27 365.47,-129.27 354.34,-107.64"/>
<polygon fill="midnightblue" stroke="midnightblue" points="357.43,-106 349.81,-98.64 351.18,-109.15 357.43,-106"/>
</g>
<!-- Node19&#45;&gt;Node8 -->
<g id="edge39" class="edge">
<title>Node19&#45;&gt;Node8</title>
<path fill="none" stroke="midnightblue" d="M687.47,-315.41C680.15,-304.23 670.13,-286.84 666,-270 660.13,-246.06 670.88,-146.3 672,-144 679.7,-128.16 693.85,-114.63 706.78,-104.67"/>
<polygon fill="midnightblue" stroke="midnightblue" points="709.01,-107.38 715.03,-98.66 704.89,-101.72 709.01,-107.38"/>
</g>
<!-- Node20&#45;&gt;Node5 -->
<g id="edge42" class="edge">
<title>Node20&#45;&gt;Node5</title>
<path fill="none" stroke="midnightblue" d="M429.41,-315.24C423.23,-303.65 413.79,-285.74 406,-270 388.35,-234.36 381.05,-226.56 368,-189 358.6,-161.95 351.72,-129.61 347.79,-108.6"/>
<polygon fill="midnightblue" stroke="midnightblue" points="351.23,-107.94 346.01,-98.72 344.34,-109.19 351.23,-107.94"/>
</g>
<!-- Node20&#45;&gt;Node8 -->
<g id="edge43" class="edge">
<title>Node20&#45;&gt;Node8</title>
<path fill="none" stroke="midnightblue" d="M440.76,-315.17C454.08,-282.3 494.91,-191.87 558,-144 588.34,-120.98 628.26,-106.97 662.51,-98.55"/>
<polygon fill="midnightblue" stroke="midnightblue" points="663.53,-101.91 672.47,-96.22 661.94,-95.09 663.53,-101.91"/>
</g>
<!-- Node20&#45;&gt;Node16 -->
<g id="edge41" class="edge">
<title>Node20&#45;&gt;Node16</title>
<path fill="none" stroke="midnightblue" d="M513.22,-315.49C536.28,-312.14 561.63,-308.69 585,-306 794.59,-281.89 1042.18,-263.13 1169.3,-254.21"/>
<polygon fill="midnightblue" stroke="midnightblue" points="1169.63,-257.7 1179.36,-253.51 1169.14,-250.71 1169.63,-257.7"/>
</g>
<!-- Node21&#45;&gt;Node5 -->
<g id="edge53" class="edge">
<title>Node21&#45;&gt;Node5</title>
<path fill="none" stroke="midnightblue" d="M853.97,-399.47C665.32,-385.85 333.84,-360.65 325,-351 292.86,-315.92 325,-165.08 338.58,-108.26"/>
<polygon fill="midnightblue" stroke="midnightblue" points="341.99,-109.05 340.95,-98.51 335.19,-107.4 341.99,-109.05"/>
</g>
<!-- Node22 -->
<g id="node22" class="node">
<title>Node22</title>
<g id="a_node22"><a xlink:href="_i_e_framebuffer_8hpp.html" target="_top" xlink:title=" ">
<polygon fill="white" stroke="black" points="854.5,-306.5 854.5,-350.5 1065.5,-350.5 1065.5,-306.5 854.5,-306.5"/>
<text text-anchor="start" x="862.5" y="-333.7" font-family="Source Sans Pro" font-size="16.00">GraphicsModule/RenderPass</text>
<text text-anchor="middle" x="960" y="-315.7" font-family="Source Sans Pro" font-size="16.00">/IEFramebuffer.hpp</text>
</a>
</g>
</g>
<!-- Node21&#45;&gt;Node22 -->
<g id="edge48" class="edge">
<title>Node21&#45;&gt;Node22</title>
<path fill="none" stroke="midnightblue" d="M976.1,-387.33C973.81,-379.09 971.14,-369.49 968.63,-360.51"/>
<polygon fill="midnightblue" stroke="midnightblue" points="971.97,-359.42 965.91,-350.73 965.22,-361.3 971.97,-359.42"/>
</g>
<!-- Node22&#45;&gt;Node6 -->
<g id="edge51" class="edge">
<title>Node22&#45;&gt;Node6</title>
<path fill="none" stroke="midnightblue" d="M854.26,-316.66C817.23,-308.54 777.35,-294.45 747,-270 669.68,-207.72 594.66,-135.02 663,-63 693.99,-30.34 1379.35,-17.69 1549.19,-15.05"/>
<polygon fill="midnightblue" stroke="midnightblue" points="1549.44,-18.54 1559.39,-14.89 1549.34,-11.55 1549.44,-18.54"/>
</g>
<!-- Node22&#45;&gt;Node7 -->
<g id="edge52" class="edge">
<title>Node22&#45;&gt;Node7</title>
<path fill="none" stroke="midnightblue" d="M854.43,-312.02C749.56,-296.5 602.55,-274.3 590,-270 554.9,-257.96 462.83,-220.97 444,-189 415.59,-140.74 406.49,-104.58 444,-63 472.55,-31.34 765.18,-19.09 873.21,-15.63"/>
<polygon fill="midnightblue" stroke="midnightblue" points="873.49,-19.12 883.38,-15.31 873.27,-12.12 873.49,-19.12"/>
</g>
<!-- Node22&#45;&gt;Node8 -->
<g id="edge50" class="edge">
<title>Node22&#45;&gt;Node8</title>
<path fill="none" stroke="midnightblue" d="M854.09,-310.45C827.37,-301.93 800.49,-289.16 780,-270 734.64,-227.59 731.76,-147.55 733.34,-108.73"/>
<polygon fill="midnightblue" stroke="midnightblue" points="736.84,-108.7 733.9,-98.52 729.85,-108.31 736.84,-108.7"/>
</g>
<!-- Node22&#45;&gt;Node16 -->
<g id="edge49" class="edge">
<title>Node22&#45;&gt;Node16</title>
<path fill="none" stroke="midnightblue" d="M1038.4,-306.43C1089.16,-292.79 1154,-275.37 1199.25,-263.21"/>
<polygon fill="midnightblue" stroke="midnightblue" points="1200.42,-266.52 1209.17,-260.55 1198.61,-259.76 1200.42,-266.52"/>
</g>
<!-- Node23&#45;&gt;Node4 -->
<g id="edge55" class="edge">
<title>Node23&#45;&gt;Node4</title>
<path fill="none" stroke="midnightblue" d="M1741.81,-318.49C1666.06,-309.74 1555.39,-294.2 1461,-270 1404.21,-255.44 1392.76,-243.11 1337,-225 1300.41,-213.12 1259.65,-201.17 1224.53,-191.27"/>
<polygon fill="midnightblue" stroke="midnightblue" points="1225.35,-187.86 1214.78,-188.53 1223.46,-194.6 1225.35,-187.86"/>
</g>
<!-- Node23&#45;&gt;Node7 -->
<g id="edge72" class="edge">
<title>Node23&#45;&gt;Node7</title>
<path fill="none" stroke="midnightblue" d="M1922.39,-320.18C1955.42,-312.61 1989.65,-297.96 2010,-270 2044.27,-222.91 2021.23,-178.08 1974,-144 1907.37,-95.92 1686.93,-122.22 1606,-108 1526.48,-94.03 1509.55,-76.81 1430,-63 1253.71,-32.39 1040.02,-20.09 952.88,-16.11"/>
<polygon fill="midnightblue" stroke="midnightblue" points="952.8,-12.6 942.65,-15.65 952.49,-19.6 952.8,-12.6"/>
</g>
<!-- Node23&#45;&gt;Node8 -->
<g id="edge70" class="edge">
<title>Node23&#45;&gt;Node8</title>
<path fill="none" stroke="midnightblue" d="M1922.41,-314.7C1948.51,-306.35 1974.18,-292.6 1990,-270 2025.26,-219.65 1986.86,-173.62 1933,-144 1883.59,-116.83 1060.01,-94.47 807.81,-88.23"/>
<polygon fill="midnightblue" stroke="midnightblue" points="807.74,-84.73 797.65,-87.98 807.56,-91.73 807.74,-84.73"/>
</g>
<!-- Node23&#45;&gt;Node14 -->
<g id="edge71" class="edge">
<title>Node23&#45;&gt;Node14</title>
<path fill="none" stroke="midnightblue" d="M1812.56,-306.26C1804.53,-296.08 1796.15,-283.23 1792,-270 1786.02,-250.92 1783.45,-243.08 1792,-225 1799.9,-208.28 1815.32,-194.79 1829.67,-185.09"/>
<polygon fill="midnightblue" stroke="midnightblue" points="1831.83,-187.86 1838.4,-179.54 1828.08,-181.95 1831.83,-187.86"/>
</g>
<!-- Node24 -->
<g id="node24" class="node">
<title>Node24</title>
<g id="a_node24"><a xlink:href="_i_e_shader_8hpp.html" target="_top" xlink:title=" ">
<polygon fill="white" stroke="black" points="1801,-225.5 1801,-269.5 1981,-269.5 1981,-225.5 1801,-225.5"/>
<text text-anchor="start" x="1809" y="-252.7" font-family="Source Sans Pro" font-size="16.00">GraphicsModule/Shader</text>
<text text-anchor="middle" x="1891" y="-234.7" font-family="Source Sans Pro" font-size="16.00">/IEShader.hpp</text>
</a>
</g>
</g>
<!-- Node23&#45;&gt;Node24 -->
<g id="edge56" class="edge">
<title>Node23&#45;&gt;Node24</title>
<path fill="none" stroke="midnightblue" d="M1847.81,-306.33C1854.36,-297.56 1862.06,-287.25 1869.14,-277.78"/>
<polygon fill="midnightblue" stroke="midnightblue" points="1871.97,-279.84 1875.15,-269.73 1866.36,-275.65 1871.97,-279.84"/>
</g>
<!-- Node24&#45;&gt;Node6 -->
<g id="edge67" class="edge">
<title>Node24&#45;&gt;Node6</title>
<path fill="none" stroke="midnightblue" d="M1945.72,-225.41C1961.2,-216.61 1976.21,-204.69 1985,-189 1994.78,-171.55 1996.75,-160.18 1985,-144 1941.52,-84.12 1715.27,-37.55 1624.62,-21.01"/>
<polygon fill="midnightblue" stroke="midnightblue" points="1624.97,-17.52 1614.51,-19.19 1623.73,-24.41 1624.97,-17.52"/>
</g>
<!-- Node24&#45;&gt;Node7 -->
<g id="edge68" class="edge">
<title>Node24&#45;&gt;Node7</title>
<path fill="none" stroke="midnightblue" d="M1911.65,-225.29C1931.12,-202.74 1954.36,-167.2 1933,-144 1900.07,-108.24 1544.85,-116.54 1497,-108 1423.44,-94.87 1408.34,-77.31 1335,-63 1196.16,-35.91 1028.46,-22.19 953.1,-17.01"/>
<polygon fill="midnightblue" stroke="midnightblue" points="952.87,-13.49 942.66,-16.31 952.4,-20.47 952.87,-13.49"/>
</g>
<!-- Node24&#45;&gt;Node8 -->
<g id="edge58" class="edge">
<title>Node24&#45;&gt;Node8</title>
<path fill="none" stroke="midnightblue" d="M1905.52,-225.11C1919.2,-202.07 1934.75,-165.79 1914,-144 1894.84,-123.89 1062.03,-96.59 807.88,-88.71"/>
<polygon fill="midnightblue" stroke="midnightblue" points="807.75,-85.2 797.65,-88.39 807.53,-92.2 807.75,-85.2"/>
</g>
<!-- Node24&#45;&gt;Node9 -->
<g id="edge57" class="edge">
<title>Node24&#45;&gt;Node9</title>
<path fill="none" stroke="midnightblue" d="M1845.44,-225.33C1817.54,-212.36 1782.34,-196.01 1756.51,-184"/>
<polygon fill="midnightblue" stroke="midnightblue" points="1757.64,-180.67 1747.1,-179.63 1754.69,-187.02 1757.64,-180.67"/>
</g>
<!-- Node24&#45;&gt;Node13 -->
<g id="edge69" class="edge">
<title>Node24&#45;&gt;Node13</title>
<path fill="none" stroke="midnightblue" d="M1800.93,-226.05C1735.47,-211.19 1649.17,-191.6 1594.87,-179.27"/>
<polygon fill="midnightblue" stroke="midnightblue" points="1595.31,-175.79 1584.78,-176.99 1593.76,-182.61 1595.31,-175.79"/>
</g>
<!-- Node24&#45;&gt;Node14 -->
<g id="edge66" class="edge">
<title>Node24&#45;&gt;Node14</title>
<path fill="none" stroke="midnightblue" d="M1883.23,-225.33C1879.12,-214.13 1874.08,-200.41 1869.94,-189.14"/>
<polygon fill="midnightblue" stroke="midnightblue" points="1873.18,-187.81 1866.45,-179.63 1866.61,-190.22 1873.18,-187.81"/>
</g>
<!-- Node25 -->
<g id="node25" class="node">
<title>Node25</title>
<g id="a_node25"><a xlink:href="_i_e_file_8hpp.html" target="_top" xlink:title=" ">
<polygon fill="white" stroke="black" points="2150.5,-63.5 2150.5,-107.5 2327.5,-107.5 2327.5,-63.5 2150.5,-63.5"/>
<text text-anchor="start" x="2158.5" y="-90.7" font-family="Source Sans Pro" font-size="16.00">Core/FileSystemModule</text>
<text text-anchor="middle" x="2239" y="-72.7" font-family="Source Sans Pro" font-size="16.00">/IEFile.hpp</text>
</a>
</g>
</g>
<!-- Node24&#45;&gt;Node25 -->
<g id="edge59" class="edge">
<title>Node24&#45;&gt;Node25</title>
<path fill="none" stroke="midnightblue" d="M1963.34,-225.49C1993.99,-215.71 2029.77,-203.11 2061,-189 2109.98,-166.87 2162.99,-135.27 2198.3,-113.02"/>
<polygon fill="midnightblue" stroke="midnightblue" points="2200.32,-115.89 2206.89,-107.57 2196.57,-109.97 2200.32,-115.89"/>
</g>
<!-- Node25&#45;&gt;Node6 -->
<g id="edge64" class="edge">
<title>Node25&#45;&gt;Node6</title>
<path fill="none" stroke="midnightblue" d="M2150.31,-73.46C2121.8,-70 2090.08,-66.24 2061,-63 1898.72,-44.9 1704.89,-25.88 1624.64,-18.12"/>
<polygon fill="midnightblue" stroke="midnightblue" points="1624.83,-14.62 1614.53,-17.14 1624.15,-21.59 1624.83,-14.62"/>
</g>
<!-- Node25&#45;&gt;Node7 -->
<g id="edge65" class="edge">
<title>Node25&#45;&gt;Node7</title>
<path fill="none" stroke="midnightblue" d="M2150.46,-79.83C1890.2,-66.09 1134.57,-26.2 952.71,-16.6"/>
<polygon fill="midnightblue" stroke="midnightblue" points="952.7,-13.09 942.53,-16.06 952.34,-20.08 952.7,-13.09"/>
</g>
<!-- Node26 -->
<g id="node26" class="node">
<title>Node26</title>
<g id="a_node26"><a xlink:title=" ">
<polygon fill="white" stroke="#bfbfbf" points="2324.5,-0.5 2324.5,-26.5 2409.5,-26.5 2409.5,-0.5 2324.5,-0.5"/>
<text text-anchor="middle" x="2367" y="-9.7" font-family="Source Sans Pro" font-size="16.00">filesystem</text>
</a>
</g>
</g>
<!-- Node25&#45;&gt;Node26 -->
<g id="edge60" class="edge">
<title>Node25&#45;&gt;Node26</title>
<path fill="none" stroke="midnightblue" d="M2277.4,-63.5C2296.04,-53.3 2318.15,-41.21 2335.74,-31.59"/>
<polygon fill="midnightblue" stroke="midnightblue" points="2337.91,-34.4 2345,-26.53 2334.55,-28.26 2337.91,-34.4"/>
</g>
<!-- Node27 -->
<g id="node27" class="node">
<title>Node27</title>
<g id="a_node27"><a xlink:title=" ">
<polygon fill="white" stroke="#bfbfbf" points="2074,-0.5 2074,-26.5 2142,-26.5 2142,-0.5 2074,-0.5"/>
<text text-anchor="middle" x="2108" y="-9.7" font-family="Source Sans Pro" font-size="16.00">fstream</text>
</a>
</g>
</g>
<!-- Node25&#45;&gt;Node27 -->
<g id="edge61" class="edge">
<title>Node25&#45;&gt;Node27</title>
<path fill="none" stroke="midnightblue" d="M2199.7,-63.5C2180.44,-53.21 2157.57,-40.99 2139.49,-31.33"/>
<polygon fill="midnightblue" stroke="midnightblue" points="2140.98,-28.16 2130.52,-26.53 2137.69,-34.33 2140.98,-28.16"/>
</g>
<!-- Node28 -->
<g id="node28" class="node">
<title>Node28</title>
<g id="a_node28"><a xlink:title=" ">
<polygon fill="white" stroke="#bfbfbf" points="2160,-0.5 2160,-26.5 2236,-26.5 2236,-0.5 2160,-0.5"/>
<text text-anchor="middle" x="2198" y="-9.7" font-family="Source Sans Pro" font-size="16.00">iostream</text>
</a>
</g>
</g>
<!-- Node25&#45;&gt;Node28 -->
<g id="edge62" class="edge">
<title>Node25&#45;&gt;Node28</title>
<path fill="none" stroke="midnightblue" d="M2226.7,-63.5C2221.45,-54.53 2215.34,-44.1 2210.11,-35.17"/>
<polygon fill="midnightblue" stroke="midnightblue" points="2213.12,-33.39 2205.05,-26.53 2207.08,-36.93 2213.12,-33.39"/>
</g>
<!-- Node29 -->
<g id="node29" class="node">
<title>Node29</title>
<g id="a_node29"><a xlink:title=" ">
<polygon fill="white" stroke="#bfbfbf" points="2254,-0.5 2254,-26.5 2306,-26.5 2306,-0.5 2254,-0.5"/>
<text text-anchor="middle" x="2280" y="-9.7" font-family="Source Sans Pro" font-size="16.00">regex</text>
</a>
</g>
</g>
<!-- Node25&#45;&gt;Node29 -->
<g id="edge63" class="edge">
<title>Node25&#45;&gt;Node29</title>
<path fill="none" stroke="midnightblue" d="M2251.3,-63.5C2256.55,-54.53 2262.66,-44.1 2267.89,-35.17"/>
<polygon fill="midnightblue" stroke="midnightblue" points="2270.92,-36.93 2272.95,-26.53 2264.88,-33.39 2270.92,-36.93"/>
</g>
<!-- Node30&#45;&gt;Node5 -->
<g id="edge74" class="edge">
<title>Node30&#45;&gt;Node5</title>
<path fill="none" stroke="midnightblue" d="M166.35,-153.33C202.92,-139.57 262.53,-117.15 302.49,-102.11"/>
<polygon fill="midnightblue" stroke="midnightblue" points="303.83,-105.35 311.96,-98.55 301.36,-98.8 303.83,-105.35"/>
</g>
<!-- Node30&#45;&gt;Node7 -->
<g id="edge75" class="edge">
<title>Node30&#45;&gt;Node7</title>
<path fill="none" stroke="midnightblue" d="M139.55,-153.29C150.5,-130.81 177.25,-83.31 216,-63 274.24,-32.47 733.93,-18.86 873.17,-15.41"/>
<polygon fill="midnightblue" stroke="midnightblue" points="873.48,-18.91 883.39,-15.17 873.3,-11.91 873.48,-18.91"/>
</g>
</g>
</svg>
