<?xml version="1.0" encoding="UTF-8" standalone="no"?>
<!DOCTYPE svg PUBLIC "-//W3C//DTD SVG 1.1//EN"
 "http://www.w3.org/Graphics/SVG/1.1/DTD/svg11.dtd">
<!-- Generated by graphviz version 2.43.0 (0)
 -->
<!-- Title: Illumination&#45;Engine/src/GraphicsModule/Shader/IEDescriptorSet.hpp Pages: 1 -->
<svg width="3584pt" height="467pt"
 viewBox="0.00 0.00 3583.50 467.00" xmlns="http://www.w3.org/2000/svg" xmlns:xlink="http://www.w3.org/1999/xlink">
<g id="graph0" class="graph" transform="scale(1 1) rotate(0) translate(4 463)">
<title>Illumination&#45;Engine/src/GraphicsModule/Shader/IEDescriptorSet.hpp</title>
<polygon fill="white" stroke="transparent" points="-4,4 -4,-463 3579.5,-463 3579.5,4 -4,4"/>
<!-- Node1 -->
<g id="node1" class="node">
<title>Node1</title>
<g id="a_node1"><a xlink:title=" ">
<polygon fill="#bfbfbf" stroke="black" points="1521,-396.5 1521,-458.5 1730,-458.5 1730,-396.5 1521,-396.5"/>
<text text-anchor="start" x="1529" y="-441.7" font-family="Source Sans Pro" font-size="16.00">Illumination&#45;Engine</text>
<text text-anchor="start" x="1529" y="-423.7" font-family="Source Sans Pro" font-size="16.00">/src/GraphicsModule</text>
<text text-anchor="middle" x="1625.5" y="-405.7" font-family="Source Sans Pro" font-size="16.00">/Shader/IEDescriptorSet.hpp</text>
</a>
</g>
</g>
<!-- Node2 -->
<g id="node2" class="node">
<title>Node2</title>
<g id="a_node2"><a xlink:href="_i_e_command_buffer_8cpp.html" target="_top" xlink:title=" ">
<polygon fill="white" stroke="black" points="0,-0.5 0,-62.5 293,-62.5 293,-0.5 0,-0.5"/>
<text text-anchor="start" x="8" y="-45.7" font-family="Source Sans Pro" font-size="16.00">Illumination&#45;Engine</text>
<text text-anchor="start" x="8" y="-27.7" font-family="Source Sans Pro" font-size="16.00">/src/GraphicsModule</text>
<text text-anchor="middle" x="146.5" y="-9.7" font-family="Source Sans Pro" font-size="16.00">/CommandBuffer/IECommandBuffer.cpp</text>
</a>
</g>
</g>
<!-- Node1&#45;&gt;Node2 -->
<g id="edge1" class="edge">
<title>Node1&#45;&gt;Node2</title>
<path fill="none" stroke="midnightblue" d="M1510.4,-423.91C1304.69,-418.28 882.31,-401.88 741.5,-360 515.18,-292.68 278.86,-130.29 186.66,-62.75"/>
<polygon fill="midnightblue" stroke="midnightblue" points="1510.54,-427.42 1520.63,-424.19 1510.73,-420.42 1510.54,-427.42"/>
</g>
<!-- Node3 -->
<g id="node3" class="node">
<title>Node3</title>
<g id="a_node3"><a xlink:href="_i_e_dependency_8cpp.html" target="_top" xlink:title=" ">
<polygon fill="white" stroke="black" points="1882.5,-297.5 1882.5,-359.5 2148.5,-359.5 2148.5,-297.5 1882.5,-297.5"/>
<text text-anchor="start" x="1890.5" y="-342.7" font-family="Source Sans Pro" font-size="16.00">Illumination&#45;Engine</text>
<text text-anchor="start" x="1890.5" y="-324.7" font-family="Source Sans Pro" font-size="16.00">/src/GraphicsModule</text>
<text text-anchor="middle" x="2015.5" y="-306.7" font-family="Source Sans Pro" font-size="16.00">/CommandBuffer/IEDependency.cpp</text>
</a>
</g>
</g>
<!-- Node1&#45;&gt;Node3 -->
<g id="edge2" class="edge">
<title>Node1&#45;&gt;Node3</title>
<path fill="none" stroke="midnightblue" d="M1739.96,-398.03C1788.64,-385.92 1845.46,-371.79 1894.81,-359.52"/>
<polygon fill="midnightblue" stroke="midnightblue" points="1738.87,-394.7 1730.01,-400.51 1740.56,-401.49 1738.87,-394.7"/>
</g>
<!-- Node4 -->
<g id="node4" class="node">
<title>Node4</title>
<g id="a_node4"><a xlink:href="_i_e_mesh_8hpp.html" target="_top" xlink:title=" ">
<polygon fill="white" stroke="black" points="751,-297.5 751,-359.5 936,-359.5 936,-297.5 751,-297.5"/>
<text text-anchor="start" x="759" y="-342.7" font-family="Source Sans Pro" font-size="16.00">Illumination&#45;Engine</text>
<text text-anchor="start" x="759" y="-324.7" font-family="Source Sans Pro" font-size="16.00">/src/GraphicsModule</text>
<text text-anchor="middle" x="843.5" y="-306.7" font-family="Source Sans Pro" font-size="16.00">/Renderable/IEMesh.hpp</text>
</a>
</g>
</g>
<!-- Node1&#45;&gt;Node4 -->
<g id="edge3" class="edge">
<title>Node1&#45;&gt;Node4</title>
<path fill="none" stroke="midnightblue" d="M1510.76,-412.27C1355.02,-392.95 1079.7,-358.8 936.26,-341.01"/>
<polygon fill="midnightblue" stroke="midnightblue" points="1510.49,-415.76 1520.85,-413.52 1511.35,-408.81 1510.49,-415.76"/>
</g>
<!-- Node8 -->
<g id="node8" class="node">
<title>Node8</title>
<g id="a_node8"><a xlink:href="_i_e_renderable_8hpp.html" target="_top" xlink:title=" ">
<polygon fill="white" stroke="black" points="940,-198.5 940,-260.5 1167,-260.5 1167,-198.5 940,-198.5"/>
<text text-anchor="start" x="948" y="-243.7" font-family="Source Sans Pro" font-size="16.00">Illumination&#45;Engine</text>
<text text-anchor="start" x="948" y="-225.7" font-family="Source Sans Pro" font-size="16.00">/src/GraphicsModule</text>
<text text-anchor="middle" x="1053.5" y="-207.7" font-family="Source Sans Pro" font-size="16.00">/Renderable/IERenderable.hpp</text>
</a>
</g>
</g>
<!-- Node1&#45;&gt;Node8 -->
<g id="edge28" class="edge">
<title>Node1&#45;&gt;Node8</title>
<path fill="none" stroke="midnightblue" d="M1528.05,-393.11C1419.57,-355.93 1245.8,-296.39 1141.35,-260.6"/>
<polygon fill="midnightblue" stroke="midnightblue" points="1527.1,-396.48 1537.69,-396.41 1529.37,-389.86 1527.1,-396.48"/>
</g>
<!-- Node19 -->
<g id="node19" class="node">
<title>Node19</title>
<g id="a_node19"><a xlink:href="_i_e_descriptor_set_8cpp.html" target="_top" xlink:title=" ">
<polygon fill="white" stroke="black" points="3178,-0.5 3178,-62.5 3385,-62.5 3385,-0.5 3178,-0.5"/>
<text text-anchor="start" x="3186" y="-45.7" font-family="Source Sans Pro" font-size="16.00">Illumination&#45;Engine</text>
<text text-anchor="start" x="3186" y="-27.7" font-family="Source Sans Pro" font-size="16.00">/src/GraphicsModule</text>
<text text-anchor="middle" x="3281.5" y="-9.7" font-family="Source Sans Pro" font-size="16.00">/Shader/IEDescriptorSet.cpp</text>
</a>
</g>
</g>
<!-- Node1&#45;&gt;Node19 -->
<g id="edge29" class="edge">
<title>Node1&#45;&gt;Node19</title>
<path fill="none" stroke="midnightblue" d="M1650.26,-387.77C1705.2,-301.99 1833.05,-103.15 1840.5,-99 1905.02,-63.04 3096.43,-73.78 3169.5,-63 3172.29,-62.59 3175.11,-62.13 3177.95,-61.63"/>
<polygon fill="midnightblue" stroke="midnightblue" points="1647.16,-386.13 1644.71,-396.44 1653.05,-389.91 1647.16,-386.13"/>
</g>
<!-- Node20 -->
<g id="node20" class="node">
<title>Node20</title>
<g id="a_node20"><a xlink:href="_i_e_pipeline_8cpp.html" target="_top" xlink:title=" ">
<polygon fill="white" stroke="black" points="3403.5,-0.5 3403.5,-62.5 3575.5,-62.5 3575.5,-0.5 3403.5,-0.5"/>
<text text-anchor="start" x="3411.5" y="-45.7" font-family="Source Sans Pro" font-size="16.00">Illumination&#45;Engine</text>
<text text-anchor="start" x="3411.5" y="-27.7" font-family="Source Sans Pro" font-size="16.00">/src/GraphicsModule</text>
<text text-anchor="middle" x="3489.5" y="-9.7" font-family="Source Sans Pro" font-size="16.00">/Shader/IEPipeline.cpp</text>
</a>
</g>
</g>
<!-- Node1&#45;&gt;Node20 -->
<g id="edge30" class="edge">
<title>Node1&#45;&gt;Node20</title>
<path fill="none" stroke="midnightblue" d="M1680.72,-390.88C1729.5,-361.11 1803.55,-319.94 1873.5,-297 2523.39,-83.84 2728.82,-220.03 3394.5,-63 3397.45,-62.3 3400.44,-61.56 3403.45,-60.78"/>
<polygon fill="midnightblue" stroke="midnightblue" points="1678.59,-388.08 1671.91,-396.3 1682.26,-394.04 1678.59,-388.08"/>
</g>
<!-- Node5 -->
<g id="node5" class="node">
<title>Node5</title>
<g id="a_node5"><a xlink:href="_i_e_material_8cpp.html" target="_top" xlink:title=" ">
<polygon fill="white" stroke="black" points="311,-0.5 311,-62.5 512,-62.5 512,-0.5 311,-0.5"/>
<text text-anchor="start" x="319" y="-45.7" font-family="Source Sans Pro" font-size="16.00">Illumination&#45;Engine</text>
<text text-anchor="start" x="319" y="-27.7" font-family="Source Sans Pro" font-size="16.00">/src/GraphicsModule</text>
<text text-anchor="middle" x="411.5" y="-9.7" font-family="Source Sans Pro" font-size="16.00">/Renderable/IEMaterial.cpp</text>
</a>
</g>
</g>
<!-- Node4&#45;&gt;Node5 -->
<g id="edge4" class="edge">
<title>Node4&#45;&gt;Node5</title>
<path fill="none" stroke="midnightblue" d="M797.98,-291.17C785.79,-281.4 772.62,-270.82 760.5,-261 672.13,-189.45 659.42,-158.46 562.5,-99 540.16,-85.29 514.5,-72.89 490.74,-62.61"/>
<polygon fill="midnightblue" stroke="midnightblue" points="795.84,-293.94 805.84,-297.46 800.22,-288.47 795.84,-293.94"/>
</g>
<!-- Node6 -->
<g id="node6" class="node">
<title>Node6</title>
<g id="a_node6"><a xlink:href="_i_e_mesh_8cpp.html" target="_top" xlink:title=" ">
<polygon fill="white" stroke="black" points="530,-0.5 530,-62.5 713,-62.5 713,-0.5 530,-0.5"/>
<text text-anchor="start" x="538" y="-45.7" font-family="Source Sans Pro" font-size="16.00">Illumination&#45;Engine</text>
<text text-anchor="start" x="538" y="-27.7" font-family="Source Sans Pro" font-size="16.00">/src/GraphicsModule</text>
<text text-anchor="middle" x="621.5" y="-9.7" font-family="Source Sans Pro" font-size="16.00">/Renderable/IEMesh.cpp</text>
</a>
</g>
</g>
<!-- Node4&#45;&gt;Node6 -->
<g id="edge5" class="edge">
<title>Node4&#45;&gt;Node6</title>
<path fill="none" stroke="midnightblue" d="M820.96,-288.57C793,-241.62 742.61,-161.25 690.5,-99 679.93,-86.37 667.21,-73.56 655.6,-62.61"/>
<polygon fill="midnightblue" stroke="midnightblue" points="817.97,-290.4 826.08,-297.22 824,-286.83 817.97,-290.4"/>
</g>
<!-- Node7 -->
<g id="node7" class="node">
<title>Node7</title>
<g id="a_node7"><a xlink:href="_i_e_renderable_8cpp.html" target="_top" xlink:title=" ">
<polygon fill="white" stroke="black" points="731,-0.5 731,-62.5 956,-62.5 956,-0.5 731,-0.5"/>
<text text-anchor="start" x="739" y="-45.7" font-family="Source Sans Pro" font-size="16.00">Illumination&#45;Engine</text>
<text text-anchor="start" x="739" y="-27.7" font-family="Source Sans Pro" font-size="16.00">/src/GraphicsModule</text>
<text text-anchor="middle" x="843.5" y="-9.7" font-family="Source Sans Pro" font-size="16.00">/Renderable/IERenderable.cpp</text>
</a>
</g>
</g>
<!-- Node4&#45;&gt;Node7 -->
<g id="edge6" class="edge">
<title>Node4&#45;&gt;Node7</title>
<path fill="none" stroke="midnightblue" d="M843.5,-287.11C843.5,-227.25 843.5,-116.32 843.5,-62.86"/>
<polygon fill="midnightblue" stroke="midnightblue" points="840,-287.32 843.5,-297.32 847,-287.32 840,-287.32"/>
</g>
<!-- Node4&#45;&gt;Node8 -->
<g id="edge7" class="edge">
<title>Node4&#45;&gt;Node8</title>
<path fill="none" stroke="midnightblue" d="M917.89,-293.14C940.92,-282.5 966.09,-270.87 988.44,-260.55"/>
<polygon fill="midnightblue" stroke="midnightblue" points="916.12,-290.1 908.51,-297.47 919.05,-296.46 916.12,-290.1"/>
</g>
<!-- Node8&#45;&gt;Node7 -->
<g id="edge27" class="edge">
<title>Node8&#45;&gt;Node7</title>
<path fill="none" stroke="midnightblue" d="M1013.45,-191.12C973.5,-153.83 912.9,-97.27 875.89,-62.73"/>
<polygon fill="midnightblue" stroke="midnightblue" points="1011.45,-194.04 1021.15,-198.3 1016.23,-188.92 1011.45,-194.04"/>
</g>
<!-- Node9 -->
<g id="node9" class="node">
<title>Node9</title>
<g id="a_node9"><a xlink:href="_i_e_render_engine_8cpp.html" target="_top" xlink:title=" ">
<polygon fill="white" stroke="black" points="974,-0.5 974,-62.5 1133,-62.5 1133,-0.5 974,-0.5"/>
<text text-anchor="start" x="982" y="-45.7" font-family="Source Sans Pro" font-size="16.00">Illumination&#45;Engine</text>
<text text-anchor="start" x="982" y="-27.7" font-family="Source Sans Pro" font-size="16.00">/src/GraphicsModule</text>
<text text-anchor="middle" x="1053.5" y="-9.7" font-family="Source Sans Pro" font-size="16.00">/IERenderEngine.cpp</text>
</a>
</g>
</g>
<!-- Node8&#45;&gt;Node9 -->
<g id="edge8" class="edge">
<title>Node8&#45;&gt;Node9</title>
<path fill="none" stroke="midnightblue" d="M1053.5,-188.29C1053.5,-151.02 1053.5,-96.41 1053.5,-62.73"/>
<polygon fill="midnightblue" stroke="midnightblue" points="1050,-188.3 1053.5,-198.3 1057,-188.3 1050,-188.3"/>
</g>
<!-- Node10 -->
<g id="node10" class="node">
<title>Node10</title>
<g id="a_node10"><a xlink:href="_i_e_render_engine_8hpp.html" target="_top" xlink:title=" ">
<polygon fill="white" stroke="black" points="1627,-99.5 1627,-161.5 1788,-161.5 1788,-99.5 1627,-99.5"/>
<text text-anchor="start" x="1635" y="-144.7" font-family="Source Sans Pro" font-size="16.00">Illumination&#45;Engine</text>
<text text-anchor="start" x="1635" y="-126.7" font-family="Source Sans Pro" font-size="16.00">/src/GraphicsModule</text>
<text text-anchor="middle" x="1707.5" y="-108.7" font-family="Source Sans Pro" font-size="16.00">/IERenderEngine.hpp</text>
</a>
</g>
</g>
<!-- Node8&#45;&gt;Node10 -->
<g id="edge9" class="edge">
<title>Node8&#45;&gt;Node10</title>
<path fill="none" stroke="midnightblue" d="M1177.2,-210.15C1309.11,-190.59 1514.17,-160.17 1626.74,-143.48"/>
<polygon fill="midnightblue" stroke="midnightblue" points="1176.42,-206.73 1167.04,-211.66 1177.45,-213.65 1176.42,-206.73"/>
</g>
<!-- Node10&#45;&gt;Node2 -->
<g id="edge11" class="edge">
<title>Node10&#45;&gt;Node2</title>
<path fill="none" stroke="midnightblue" d="M1616.64,-129.82C1392.42,-129.6 795.16,-122.91 301.5,-63 298.78,-62.67 296.03,-62.32 293.27,-61.95"/>
<polygon fill="midnightblue" stroke="midnightblue" points="1616.71,-133.32 1626.71,-129.82 1616.71,-126.32 1616.71,-133.32"/>
</g>
<!-- Node10&#45;&gt;Node5 -->
<g id="edge20" class="edge">
<title>Node10&#45;&gt;Node5</title>
<path fill="none" stroke="midnightblue" d="M1616.51,-126.96C1376.66,-119.84 731.14,-97.95 520.5,-63 517.79,-62.55 515.04,-62.06 512.28,-61.53"/>
<polygon fill="midnightblue" stroke="midnightblue" points="1616.49,-130.46 1626.59,-127.25 1616.7,-123.46 1616.49,-130.46"/>
</g>
<!-- Node10&#45;&gt;Node6 -->
<g id="edge21" class="edge">
<title>Node10&#45;&gt;Node6</title>
<path fill="none" stroke="midnightblue" d="M1616.67,-130.27C1441.83,-130.24 1047.02,-122.8 721.5,-63 718.73,-62.49 715.93,-61.93 713.12,-61.33"/>
<polygon fill="midnightblue" stroke="midnightblue" points="1616.85,-133.77 1626.85,-130.26 1616.85,-126.77 1616.85,-133.77"/>
</g>
<!-- Node10&#45;&gt;Node7 -->
<g id="edge22" class="edge">
<title>Node10&#45;&gt;Node7</title>
<path fill="none" stroke="midnightblue" d="M1616.68,-125.99C1476.08,-119.51 1197.59,-102.55 964.5,-63 961.72,-62.53 958.92,-62.03 956.09,-61.5"/>
<polygon fill="midnightblue" stroke="midnightblue" points="1616.83,-129.5 1626.98,-126.45 1617.15,-122.5 1616.83,-129.5"/>
</g>
<!-- Node10&#45;&gt;Node9 -->
<g id="edge15" class="edge">
<title>Node10&#45;&gt;Node9</title>
<path fill="none" stroke="midnightblue" d="M1616.3,-124.75C1503.76,-117.53 1307.1,-100.44 1142.5,-63 1139.47,-62.31 1136.41,-61.56 1133.32,-60.75"/>
<polygon fill="midnightblue" stroke="midnightblue" points="1616.39,-128.27 1626.59,-125.4 1616.83,-121.28 1616.39,-128.27"/>
</g>
<!-- Node11 -->
<g id="node11" class="node">
<title>Node11</title>
<g id="a_node11"><a xlink:href="_i_e_buffer_8cpp.html" target="_top" xlink:title=" ">
<polygon fill="white" stroke="black" points="3003,-0.5 3003,-62.5 3160,-62.5 3160,-0.5 3003,-0.5"/>
<text text-anchor="start" x="3011" y="-45.7" font-family="Source Sans Pro" font-size="16.00">Illumination&#45;Engine</text>
<text text-anchor="start" x="3011" y="-27.7" font-family="Source Sans Pro" font-size="16.00">/src/GraphicsModule</text>
<text text-anchor="middle" x="3081.5" y="-9.7" font-family="Source Sans Pro" font-size="16.00">/Buffer/IEBuffer.cpp</text>
</a>
</g>
</g>
<!-- Node10&#45;&gt;Node11 -->
<g id="edge10" class="edge">
<title>Node10&#45;&gt;Node11</title>
<path fill="none" stroke="midnightblue" d="M1798.08,-99.81C1799.56,-99.52 1801.03,-99.25 1802.5,-99 2324.4,-9.18 2472.66,-158.81 2993.5,-63 2996.52,-62.44 2999.58,-61.8 3002.65,-61.09"/>
<polygon fill="midnightblue" stroke="midnightblue" points="1797.27,-96.4 1788.23,-101.91 1798.74,-103.25 1797.27,-96.4"/>
</g>
<!-- Node12 -->
<g id="node12" class="node">
<title>Node12</title>
<g id="a_node12"><a xlink:href="_i_e_command_pool_8cpp.html" target="_top" xlink:title=" ">
<polygon fill="white" stroke="black" points="1151.5,-0.5 1151.5,-62.5 1435.5,-62.5 1435.5,-0.5 1151.5,-0.5"/>
<text text-anchor="start" x="1159.5" y="-45.7" font-family="Source Sans Pro" font-size="16.00">Illumination&#45;Engine</text>
<text text-anchor="start" x="1159.5" y="-27.7" font-family="Source Sans Pro" font-size="16.00">/src/GraphicsModule</text>
<text text-anchor="middle" x="1293.5" y="-9.7" font-family="Source Sans Pro" font-size="16.00">/CommandBuffer/IECommandPool.cpp</text>
</a>
</g>
</g>
<!-- Node10&#45;&gt;Node12 -->
<g id="edge12" class="edge">
<title>Node10&#45;&gt;Node12</title>
<path fill="none" stroke="midnightblue" d="M1616.95,-108.28C1559.76,-94.89 1485,-77.37 1421.76,-62.55"/>
<polygon fill="midnightblue" stroke="midnightblue" points="1616.16,-111.69 1626.69,-110.57 1617.76,-104.88 1616.16,-111.69"/>
</g>
<!-- Node13 -->
<g id="node13" class="node">
<title>Node13</title>
<g id="a_node13"><a xlink:href="_i_e_a_p_i_8cpp.html" target="_top" xlink:title=" ">
<polygon fill="white" stroke="black" points="1454,-0.5 1454,-62.5 1611,-62.5 1611,-0.5 1454,-0.5"/>
<text text-anchor="start" x="1462" y="-45.7" font-family="Source Sans Pro" font-size="16.00">Illumination&#45;Engine</text>
<text text-anchor="start" x="1462" y="-27.7" font-family="Source Sans Pro" font-size="16.00">/src/GraphicsModule</text>
<text text-anchor="middle" x="1532.5" y="-9.7" font-family="Source Sans Pro" font-size="16.00">/IEAPI.cpp</text>
</a>
</g>
</g>
<!-- Node10&#45;&gt;Node13 -->
<g id="edge13" class="edge">
<title>Node10&#45;&gt;Node13</title>
<path fill="none" stroke="midnightblue" d="M1644.29,-94.47C1625.49,-84.04 1605.07,-72.72 1586.88,-62.64"/>
<polygon fill="midnightblue" stroke="midnightblue" points="1642.65,-97.55 1653.09,-99.34 1646.04,-91.43 1642.65,-97.55"/>
</g>
<!-- Node14 -->
<g id="node14" class="node">
<title>Node14</title>
<g id="a_node14"><a xlink:href="_i_e_camera_8cpp.html" target="_top" xlink:title=" ">
<polygon fill="white" stroke="black" points="1629,-0.5 1629,-62.5 1786,-62.5 1786,-0.5 1629,-0.5"/>
<text text-anchor="start" x="1637" y="-45.7" font-family="Source Sans Pro" font-size="16.00">Illumination&#45;Engine</text>
<text text-anchor="start" x="1637" y="-27.7" font-family="Source Sans Pro" font-size="16.00">/src/GraphicsModule</text>
<text text-anchor="middle" x="1707.5" y="-9.7" font-family="Source Sans Pro" font-size="16.00">/IECamera.cpp</text>
</a>
</g>
</g>
<!-- Node10&#45;&gt;Node14 -->
<g id="edge14" class="edge">
<title>Node10&#45;&gt;Node14</title>
<path fill="none" stroke="midnightblue" d="M1707.5,-89.17C1707.5,-80.29 1707.5,-71.03 1707.5,-62.64"/>
<polygon fill="midnightblue" stroke="midnightblue" points="1704,-89.34 1707.5,-99.34 1711,-89.34 1704,-89.34"/>
</g>
<!-- Node15 -->
<g id="node15" class="node">
<title>Node15</title>
<g id="a_node15"><a xlink:href="_i_e_image_8cpp.html" target="_top" xlink:title=" ">
<polygon fill="white" stroke="black" points="1804,-0.5 1804,-62.5 1961,-62.5 1961,-0.5 1804,-0.5"/>
<text text-anchor="start" x="1812" y="-45.7" font-family="Source Sans Pro" font-size="16.00">Illumination&#45;Engine</text>
<text text-anchor="start" x="1812" y="-27.7" font-family="Source Sans Pro" font-size="16.00">/src/GraphicsModule</text>
<text text-anchor="middle" x="1882.5" y="-9.7" font-family="Source Sans Pro" font-size="16.00">/Image/IEImage.cpp</text>
</a>
</g>
</g>
<!-- Node10&#45;&gt;Node15 -->
<g id="edge16" class="edge">
<title>Node10&#45;&gt;Node15</title>
<path fill="none" stroke="midnightblue" d="M1770.71,-94.47C1789.51,-84.04 1809.93,-72.72 1828.12,-62.64"/>
<polygon fill="midnightblue" stroke="midnightblue" points="1768.96,-91.43 1761.91,-99.34 1772.35,-97.55 1768.96,-91.43"/>
</g>
<!-- Node16 -->
<g id="node16" class="node">
<title>Node16</title>
<g id="a_node16"><a xlink:href="_i_e_texture_8cpp.html" target="_top" xlink:title=" ">
<polygon fill="white" stroke="black" points="1979,-0.5 1979,-62.5 2140,-62.5 2140,-0.5 1979,-0.5"/>
<text text-anchor="start" x="1987" y="-45.7" font-family="Source Sans Pro" font-size="16.00">Illumination&#45;Engine</text>
<text text-anchor="start" x="1987" y="-27.7" font-family="Source Sans Pro" font-size="16.00">/src/GraphicsModule</text>
<text text-anchor="middle" x="2059.5" y="-9.7" font-family="Source Sans Pro" font-size="16.00">/Image/IETexture.cpp</text>
</a>
</g>
</g>
<!-- Node10&#45;&gt;Node16 -->
<g id="edge17" class="edge">
<title>Node10&#45;&gt;Node16</title>
<path fill="none" stroke="midnightblue" d="M1798.08,-100.2C1799.56,-99.79 1801.04,-99.39 1802.5,-99 1875.85,-79.37 1896.31,-83.22 1969.5,-63 1972.52,-62.17 1975.59,-61.29 1978.68,-60.37"/>
<polygon fill="midnightblue" stroke="midnightblue" points="1796.86,-96.91 1788.19,-103 1798.76,-103.64 1796.86,-96.91"/>
</g>
<!-- Node17 -->
<g id="node17" class="node">
<title>Node17</title>
<g id="a_node17"><a xlink:href="_i_e_framebuffer_8cpp.html" target="_top" xlink:title=" ">
<polygon fill="white" stroke="black" points="2158.5,-0.5 2158.5,-62.5 2388.5,-62.5 2388.5,-0.5 2158.5,-0.5"/>
<text text-anchor="start" x="2166.5" y="-45.7" font-family="Source Sans Pro" font-size="16.00">Illumination&#45;Engine</text>
<text text-anchor="start" x="2166.5" y="-27.7" font-family="Source Sans Pro" font-size="16.00">/src/GraphicsModule</text>
<text text-anchor="middle" x="2273.5" y="-9.7" font-family="Source Sans Pro" font-size="16.00">/RenderPass/IEFramebuffer.cpp</text>
</a>
</g>
</g>
<!-- Node10&#45;&gt;Node17 -->
<g id="edge18" class="edge">
<title>Node10&#45;&gt;Node17</title>
<path fill="none" stroke="midnightblue" d="M1798.02,-99.98C1799.52,-99.64 1801.02,-99.31 1802.5,-99 1954.24,-67.13 1996.75,-89.58 2149.5,-63 2152.45,-62.49 2155.43,-61.94 2158.44,-61.37"/>
<polygon fill="midnightblue" stroke="midnightblue" points="1796.94,-96.64 1788.04,-102.39 1798.59,-103.44 1796.94,-96.64"/>
</g>
<!-- Node18 -->
<g id="node18" class="node">
<title>Node18</title>
<g id="a_node18"><a xlink:href="_i_e_render_pass_8cpp.html" target="_top" xlink:title=" ">
<polygon fill="white" stroke="black" points="2407,-0.5 2407,-62.5 2634,-62.5 2634,-0.5 2407,-0.5"/>
<text text-anchor="start" x="2415" y="-45.7" font-family="Source Sans Pro" font-size="16.00">Illumination&#45;Engine</text>
<text text-anchor="start" x="2415" y="-27.7" font-family="Source Sans Pro" font-size="16.00">/src/GraphicsModule</text>
<text text-anchor="middle" x="2520.5" y="-9.7" font-family="Source Sans Pro" font-size="16.00">/RenderPass/IERenderPass.cpp</text>
</a>
</g>
</g>
<!-- Node10&#45;&gt;Node18 -->
<g id="edge19" class="edge">
<title>Node10&#45;&gt;Node18</title>
<path fill="none" stroke="midnightblue" d="M1798.09,-99.87C1799.57,-99.57 1801.04,-99.27 1802.5,-99 2062.88,-50.13 2135.62,-103.05 2397.5,-63 2400.54,-62.53 2403.62,-62.03 2406.73,-61.49"/>
<polygon fill="midnightblue" stroke="midnightblue" points="1797.25,-96.47 1788.26,-102.08 1798.78,-103.3 1797.25,-96.47"/>
</g>
<!-- Node10&#45;&gt;Node19 -->
<g id="edge23" class="edge">
<title>Node10&#45;&gt;Node19</title>
<path fill="none" stroke="midnightblue" d="M1798.07,-99.8C1799.56,-99.52 1801.03,-99.25 1802.5,-99 2102.08,-48.04 2868.85,-107.24 3169.5,-63 3172.29,-62.59 3175.11,-62.13 3177.95,-61.64"/>
<polygon fill="midnightblue" stroke="midnightblue" points="1797.28,-96.39 1788.22,-101.89 1798.73,-103.24 1797.28,-96.39"/>
</g>
<!-- Node10&#45;&gt;Node20 -->
<g id="edge24" class="edge">
<title>Node10&#45;&gt;Node20</title>
<path fill="none" stroke="midnightblue" d="M1798.4,-106.09C1812.42,-103.23 1826.79,-100.71 1840.5,-99 2183.26,-56.18 3053.87,-120.39 3394.5,-63 3397.4,-62.51 3400.34,-61.95 3403.29,-61.34"/>
<polygon fill="midnightblue" stroke="midnightblue" points="1797.33,-102.74 1788.27,-108.24 1798.78,-109.59 1797.33,-102.74"/>
</g>
<!-- Node21 -->
<g id="node21" class="node">
<title>Node21</title>
<g id="a_node21"><a xlink:href="_i_e_shader_8cpp.html" target="_top" xlink:title=" ">
<polygon fill="white" stroke="black" points="2652.5,-0.5 2652.5,-62.5 2816.5,-62.5 2816.5,-0.5 2652.5,-0.5"/>
<text text-anchor="start" x="2660.5" y="-45.7" font-family="Source Sans Pro" font-size="16.00">Illumination&#45;Engine</text>
<text text-anchor="start" x="2660.5" y="-27.7" font-family="Source Sans Pro" font-size="16.00">/src/GraphicsModule</text>
<text text-anchor="middle" x="2734.5" y="-9.7" font-family="Source Sans Pro" font-size="16.00">/Shader/IEShader.cpp</text>
</a>
</g>
</g>
<!-- Node10&#45;&gt;Node21 -->
<g id="edge25" class="edge">
<title>Node10&#45;&gt;Node21</title>
<path fill="none" stroke="midnightblue" d="M1798.08,-99.83C1799.56,-99.54 1801.03,-99.26 1802.5,-99 2170.79,-33.23 2275.63,-131.12 2643.5,-63 2646.45,-62.45 2649.43,-61.83 2652.43,-61.15"/>
<polygon fill="midnightblue" stroke="midnightblue" points="1797.26,-96.43 1788.24,-101.98 1798.75,-103.27 1797.26,-96.43"/>
</g>
<!-- Node22 -->
<g id="node22" class="node">
<title>Node22</title>
<g id="a_node22"><a xlink:href="main_8cpp.html" target="_top" xlink:title=" ">
<polygon fill="white" stroke="black" points="2834.5,-9.5 2834.5,-53.5 2984.5,-53.5 2984.5,-9.5 2834.5,-9.5"/>
<text text-anchor="start" x="2842.5" y="-36.7" font-family="Source Sans Pro" font-size="16.00">Illumination&#45;Engine</text>
<text text-anchor="middle" x="2909.5" y="-18.7" font-family="Source Sans Pro" font-size="16.00">/src/main.cpp</text>
</a>
</g>
</g>
<!-- Node10&#45;&gt;Node22 -->
<g id="edge26" class="edge">
<title>Node10&#45;&gt;Node22</title>
<path fill="none" stroke="midnightblue" d="M1798.08,-99.82C1799.56,-99.53 1801.03,-99.26 1802.5,-99 2250.66,-20.72 2378.89,-149.7 2825.5,-63 2836.77,-60.81 2848.54,-57.34 2859.59,-53.51"/>
<polygon fill="midnightblue" stroke="midnightblue" points="1797.27,-96.41 1788.23,-101.94 1798.74,-103.26 1797.27,-96.41"/>
</g>
</g>
</svg>
