<?xml version="1.0" encoding="UTF-8" standalone="no"?>
<!DOCTYPE svg PUBLIC "-//W3C//DTD SVG 1.1//EN"
 "http://www.w3.org/Graphics/SVG/1.1/DTD/svg11.dtd">
<!-- Generated by graphviz version 2.43.0 (0)
 -->
<!-- Title: Illumination&#45;Engine/src/GraphicsModule/Shader/IEDescriptorSet.hpp Pages: 1 -->
<svg width="1243pt" height="449pt"
 viewBox="0.00 0.00 1242.50 449.00" xmlns="http://www.w3.org/2000/svg" xmlns:xlink="http://www.w3.org/1999/xlink">
<g id="graph0" class="graph" transform="scale(1 1) rotate(0) translate(4 445)">
<title>Illumination&#45;Engine/src/GraphicsModule/Shader/IEDescriptorSet.hpp</title>
<polygon fill="white" stroke="transparent" points="-4,4 -4,-445 1238.5,-445 1238.5,4 -4,4"/>
<!-- Node1 -->
<g id="node1" class="node">
<title>Node1</title>
<g id="a_node1"><a xlink:title=" ">
<polygon fill="#bfbfbf" stroke="black" points="644,-378.5 644,-440.5 853,-440.5 853,-378.5 644,-378.5"/>
<text text-anchor="start" x="652" y="-423.7" font-family="Source Sans Pro" font-size="16.00">Illumination&#45;Engine</text>
<text text-anchor="start" x="652" y="-405.7" font-family="Source Sans Pro" font-size="16.00">/src/GraphicsModule</text>
<text text-anchor="middle" x="748.5" y="-387.7" font-family="Source Sans Pro" font-size="16.00">/Shader/IEDescriptorSet.hpp</text>
</a>
</g>
</g>
<!-- Node2 -->
<g id="node2" class="node">
<title>Node2</title>
<g id="a_node2"><a xlink:href="_i_e_command_buffer_8cpp.html" target="_top" xlink:title=" ">
<polygon fill="white" stroke="black" points="0,-279.5 0,-341.5 293,-341.5 293,-279.5 0,-279.5"/>
<text text-anchor="start" x="8" y="-324.7" font-family="Source Sans Pro" font-size="16.00">Illumination&#45;Engine</text>
<text text-anchor="start" x="8" y="-306.7" font-family="Source Sans Pro" font-size="16.00">/src/GraphicsModule</text>
<text text-anchor="middle" x="146.5" y="-288.7" font-family="Source Sans Pro" font-size="16.00">/CommandBuffer/IECommandBuffer.cpp</text>
</a>
</g>
</g>
<!-- Node1&#45;&gt;Node2 -->
<g id="edge1" class="edge">
<title>Node1&#45;&gt;Node2</title>
<path fill="none" stroke="midnightblue" d="M633.77,-392.84C543.56,-380.18 414.79,-361.34 302.5,-342 299.37,-341.46 296.21,-340.91 293.03,-340.35"/>
<polygon fill="midnightblue" stroke="midnightblue" points="633.36,-396.32 643.75,-394.24 634.34,-389.39 633.36,-396.32"/>
</g>
<!-- Node3 -->
<g id="node3" class="node">
<title>Node3</title>
<g id="a_node3"><a xlink:href="_i_e_dependency_8cpp.html" target="_top" xlink:title=" ">
<polygon fill="white" stroke="black" points="311.5,-279.5 311.5,-341.5 577.5,-341.5 577.5,-279.5 311.5,-279.5"/>
<text text-anchor="start" x="319.5" y="-324.7" font-family="Source Sans Pro" font-size="16.00">Illumination&#45;Engine</text>
<text text-anchor="start" x="319.5" y="-306.7" font-family="Source Sans Pro" font-size="16.00">/src/GraphicsModule</text>
<text text-anchor="middle" x="444.5" y="-288.7" font-family="Source Sans Pro" font-size="16.00">/CommandBuffer/IEDependency.cpp</text>
</a>
</g>
</g>
<!-- Node1&#45;&gt;Node3 -->
<g id="edge2" class="edge">
<title>Node1&#45;&gt;Node3</title>
<path fill="none" stroke="midnightblue" d="M644.8,-375.41C610.4,-364.44 572.32,-352.29 538.68,-341.55"/>
<polygon fill="midnightblue" stroke="midnightblue" points="643.8,-378.77 654.39,-378.47 645.93,-372.1 643.8,-378.77"/>
</g>
<!-- Node4 -->
<g id="node4" class="node">
<title>Node4</title>
<g id="a_node4"><a xlink:href="_i_e_mesh_8hpp.html" target="_top" xlink:title=" ">
<polygon fill="white" stroke="black" points="596,-279.5 596,-341.5 781,-341.5 781,-279.5 596,-279.5"/>
<text text-anchor="start" x="604" y="-324.7" font-family="Source Sans Pro" font-size="16.00">Illumination&#45;Engine</text>
<text text-anchor="start" x="604" y="-306.7" font-family="Source Sans Pro" font-size="16.00">/src/GraphicsModule</text>
<text text-anchor="middle" x="688.5" y="-288.7" font-family="Source Sans Pro" font-size="16.00">/Renderable/IEMesh.hpp</text>
</a>
</g>
</g>
<!-- Node1&#45;&gt;Node4 -->
<g id="edge3" class="edge">
<title>Node1&#45;&gt;Node4</title>
<path fill="none" stroke="midnightblue" d="M724.44,-369.61C718.68,-360.3 712.62,-350.49 707.14,-341.64"/>
<polygon fill="midnightblue" stroke="midnightblue" points="721.61,-371.68 729.84,-378.34 727.56,-367.99 721.61,-371.68"/>
</g>
<!-- Node8 -->
<g id="node8" class="node">
<title>Node8</title>
<g id="a_node8"><a xlink:href="_i_e_renderable_8hpp.html" target="_top" xlink:title=" ">
<polygon fill="white" stroke="black" points="717,-180.5 717,-242.5 944,-242.5 944,-180.5 717,-180.5"/>
<text text-anchor="start" x="725" y="-225.7" font-family="Source Sans Pro" font-size="16.00">Illumination&#45;Engine</text>
<text text-anchor="start" x="725" y="-207.7" font-family="Source Sans Pro" font-size="16.00">/src/GraphicsModule</text>
<text text-anchor="middle" x="830.5" y="-189.7" font-family="Source Sans Pro" font-size="16.00">/Renderable/IERenderable.hpp</text>
</a>
</g>
</g>
<!-- Node1&#45;&gt;Node8 -->
<g id="edge11" class="edge">
<title>Node1&#45;&gt;Node8</title>
<path fill="none" stroke="midnightblue" d="M774.65,-369.65C779.99,-360.79 785.26,-351.25 789.5,-342 804.53,-309.2 816.24,-269.35 823.23,-242.59"/>
<polygon fill="midnightblue" stroke="midnightblue" points="771.61,-367.91 769.33,-378.25 777.57,-371.59 771.61,-367.91"/>
</g>
<!-- Node11 -->
<g id="node11" class="node">
<title>Node11</title>
<g id="a_node11"><a xlink:href="_i_e_descriptor_set_8cpp.html" target="_top" xlink:title=" ">
<polygon fill="white" stroke="black" points="837,-279.5 837,-341.5 1044,-341.5 1044,-279.5 837,-279.5"/>
<text text-anchor="start" x="845" y="-324.7" font-family="Source Sans Pro" font-size="16.00">Illumination&#45;Engine</text>
<text text-anchor="start" x="845" y="-306.7" font-family="Source Sans Pro" font-size="16.00">/src/GraphicsModule</text>
<text text-anchor="middle" x="940.5" y="-288.7" font-family="Source Sans Pro" font-size="16.00">/Shader/IEDescriptorSet.cpp</text>
</a>
</g>
</g>
<!-- Node1&#45;&gt;Node11 -->
<g id="edge12" class="edge">
<title>Node1&#45;&gt;Node11</title>
<path fill="none" stroke="midnightblue" d="M817.07,-373.86C837.98,-363.3 860.77,-351.78 881.02,-341.55"/>
<polygon fill="midnightblue" stroke="midnightblue" points="815.28,-370.84 807.94,-378.47 818.44,-377.09 815.28,-370.84"/>
</g>
<!-- Node12 -->
<g id="node12" class="node">
<title>Node12</title>
<g id="a_node12"><a xlink:href="_i_e_pipeline_8cpp.html" target="_top" xlink:title=" ">
<polygon fill="white" stroke="black" points="1062.5,-279.5 1062.5,-341.5 1234.5,-341.5 1234.5,-279.5 1062.5,-279.5"/>
<text text-anchor="start" x="1070.5" y="-324.7" font-family="Source Sans Pro" font-size="16.00">Illumination&#45;Engine</text>
<text text-anchor="start" x="1070.5" y="-306.7" font-family="Source Sans Pro" font-size="16.00">/src/GraphicsModule</text>
<text text-anchor="middle" x="1148.5" y="-288.7" font-family="Source Sans Pro" font-size="16.00">/Shader/IEPipeline.cpp</text>
</a>
</g>
</g>
<!-- Node1&#45;&gt;Node12 -->
<g id="edge13" class="edge">
<title>Node1&#45;&gt;Node12</title>
<path fill="none" stroke="midnightblue" d="M863.05,-386.24C920.53,-374.38 991.04,-358.79 1053.5,-342 1056.43,-341.21 1059.4,-340.39 1062.39,-339.54"/>
<polygon fill="midnightblue" stroke="midnightblue" points="862.3,-382.82 853.21,-388.26 863.71,-389.68 862.3,-382.82"/>
</g>
<!-- Node5 -->
<g id="node5" class="node">
<title>Node5</title>
<g id="a_node5"><a xlink:href="_i_e_material_8cpp.html" target="_top" xlink:title=" ">
<polygon fill="white" stroke="black" points="258,-180.5 258,-242.5 459,-242.5 459,-180.5 258,-180.5"/>
<text text-anchor="start" x="266" y="-225.7" font-family="Source Sans Pro" font-size="16.00">Illumination&#45;Engine</text>
<text text-anchor="start" x="266" y="-207.7" font-family="Source Sans Pro" font-size="16.00">/src/GraphicsModule</text>
<text text-anchor="middle" x="358.5" y="-189.7" font-family="Source Sans Pro" font-size="16.00">/Renderable/IEMaterial.cpp</text>
</a>
</g>
</g>
<!-- Node4&#45;&gt;Node5 -->
<g id="edge4" class="edge">
<title>Node4&#45;&gt;Node5</title>
<path fill="none" stroke="midnightblue" d="M586.13,-278.9C538.98,-264.99 496.39,-252.54 459.28,-241.73"/>
<polygon fill="midnightblue" stroke="midnightblue" points="585.36,-282.32 595.94,-281.79 587.34,-275.61 585.36,-282.32"/>
</g>
<!-- Node6 -->
<g id="node6" class="node">
<title>Node6</title>
<g id="a_node6"><a xlink:href="_i_e_mesh_8cpp.html" target="_top" xlink:title=" ">
<polygon fill="white" stroke="black" points="477,-180.5 477,-242.5 660,-242.5 660,-180.5 477,-180.5"/>
<text text-anchor="start" x="485" y="-225.7" font-family="Source Sans Pro" font-size="16.00">Illumination&#45;Engine</text>
<text text-anchor="start" x="485" y="-207.7" font-family="Source Sans Pro" font-size="16.00">/src/GraphicsModule</text>
<text text-anchor="middle" x="568.5" y="-189.7" font-family="Source Sans Pro" font-size="16.00">/Renderable/IEMesh.cpp</text>
</a>
</g>
</g>
<!-- Node4&#45;&gt;Node6 -->
<g id="edge5" class="edge">
<title>Node4&#45;&gt;Node6</title>
<path fill="none" stroke="midnightblue" d="M643.23,-272.9C630.88,-262.92 617.64,-252.22 605.79,-242.64"/>
<polygon fill="midnightblue" stroke="midnightblue" points="641.21,-275.78 651.19,-279.34 645.61,-270.33 641.21,-275.78"/>
</g>
<!-- Node7 -->
<g id="node7" class="node">
<title>Node7</title>
<g id="a_node7"><a xlink:href="_i_e_renderable_8cpp.html" target="_top" xlink:title=" ">
<polygon fill="white" stroke="black" points="576,-81.5 576,-143.5 801,-143.5 801,-81.5 576,-81.5"/>
<text text-anchor="start" x="584" y="-126.7" font-family="Source Sans Pro" font-size="16.00">Illumination&#45;Engine</text>
<text text-anchor="start" x="584" y="-108.7" font-family="Source Sans Pro" font-size="16.00">/src/GraphicsModule</text>
<text text-anchor="middle" x="688.5" y="-90.7" font-family="Source Sans Pro" font-size="16.00">/Renderable/IERenderable.cpp</text>
</a>
</g>
</g>
<!-- Node4&#45;&gt;Node7 -->
<g id="edge6" class="edge">
<title>Node4&#45;&gt;Node7</title>
<path fill="none" stroke="midnightblue" d="M688.5,-269.29C688.5,-232.02 688.5,-177.41 688.5,-143.73"/>
<polygon fill="midnightblue" stroke="midnightblue" points="685,-269.3 688.5,-279.3 692,-269.3 685,-269.3"/>
</g>
<!-- Node4&#45;&gt;Node8 -->
<g id="edge7" class="edge">
<title>Node4&#45;&gt;Node8</title>
<path fill="none" stroke="midnightblue" d="M741.24,-273.47C756.09,-263.33 772.09,-252.4 786.38,-242.64"/>
<polygon fill="midnightblue" stroke="midnightblue" points="738.93,-270.81 732.65,-279.34 742.88,-276.59 738.93,-270.81"/>
</g>
<!-- Node8&#45;&gt;Node7 -->
<g id="edge10" class="edge">
<title>Node8&#45;&gt;Node7</title>
<path fill="none" stroke="midnightblue" d="M777.76,-174.47C762.91,-164.33 746.91,-153.4 732.62,-143.64"/>
<polygon fill="midnightblue" stroke="midnightblue" points="776.12,-177.59 786.35,-180.34 780.07,-171.81 776.12,-177.59"/>
</g>
<!-- Node9 -->
<g id="node9" class="node">
<title>Node9</title>
<g id="a_node9"><a xlink:href="_i_e_render_engine_8cpp.html" target="_top" xlink:title=" ">
<polygon fill="white" stroke="black" points="819,-81.5 819,-143.5 978,-143.5 978,-81.5 819,-81.5"/>
<text text-anchor="start" x="827" y="-126.7" font-family="Source Sans Pro" font-size="16.00">Illumination&#45;Engine</text>
<text text-anchor="start" x="827" y="-108.7" font-family="Source Sans Pro" font-size="16.00">/src/GraphicsModule</text>
<text text-anchor="middle" x="898.5" y="-90.7" font-family="Source Sans Pro" font-size="16.00">/IERenderEngine.cpp</text>
</a>
</g>
</g>
<!-- Node8&#45;&gt;Node9 -->
<g id="edge8" class="edge">
<title>Node8&#45;&gt;Node9</title>
<path fill="none" stroke="midnightblue" d="M857.56,-171.9C864.15,-162.5 871.1,-152.58 877.37,-143.64"/>
<polygon fill="midnightblue" stroke="midnightblue" points="854.52,-170.14 851.64,-180.34 860.25,-174.16 854.52,-170.14"/>
</g>
<!-- Node10 -->
<g id="node10" class="node">
<title>Node10</title>
<g id="a_node10"><a xlink:href="main_8cpp.html" target="_top" xlink:title=" ">
<polygon fill="white" stroke="black" points="823.5,-0.5 823.5,-44.5 973.5,-44.5 973.5,-0.5 823.5,-0.5"/>
<text text-anchor="start" x="831.5" y="-27.7" font-family="Source Sans Pro" font-size="16.00">Illumination&#45;Engine</text>
<text text-anchor="middle" x="898.5" y="-9.7" font-family="Source Sans Pro" font-size="16.00">/src/main.cpp</text>
</a>
</g>
</g>
<!-- Node9&#45;&gt;Node10 -->
<g id="edge9" class="edge">
<title>Node9&#45;&gt;Node10</title>
<path fill="none" stroke="midnightblue" d="M898.5,-71.09C898.5,-61.97 898.5,-52.64 898.5,-44.68"/>
<polygon fill="midnightblue" stroke="midnightblue" points="895,-71.22 898.5,-81.22 902,-71.22 895,-71.22"/>
</g>
</g>
</svg>
