<?xml version="1.0" encoding="UTF-8" standalone="no"?>
<!DOCTYPE svg PUBLIC "-//W3C//DTD SVG 1.1//EN"
 "http://www.w3.org/Graphics/SVG/1.1/DTD/svg11.dtd">
<!-- Generated by graphviz version 2.43.0 (0)
 -->
<!-- Title: Illumination&#45;Engine/src/GraphicsModule/Image/IETexture.hpp Pages: 1 -->
<svg width="1344pt" height="341pt"
 viewBox="0.00 0.00 1343.50 341.00" xmlns="http://www.w3.org/2000/svg" xmlns:xlink="http://www.w3.org/1999/xlink">
<g id="graph0" class="graph" transform="scale(1 1) rotate(0) translate(4 337)">
<title>Illumination&#45;Engine/src/GraphicsModule/Image/IETexture.hpp</title>
<polygon fill="white" stroke="transparent" points="-4,4 -4,-337 1339.5,-337 1339.5,4 -4,4"/>
<!-- Node1 -->
<g id="node1" class="node">
<title>Node1</title>
<g id="a_node1"><a xlink:title=" ">
<polygon fill="#bfbfbf" stroke="black" points="1030.5,-270.5 1030.5,-332.5 1192.5,-332.5 1192.5,-270.5 1030.5,-270.5"/>
<text text-anchor="start" x="1038.5" y="-315.7" font-family="Source Sans Pro" font-size="16.00">Illumination&#45;Engine</text>
<text text-anchor="start" x="1038.5" y="-297.7" font-family="Source Sans Pro" font-size="16.00">/src/GraphicsModule</text>
<text text-anchor="middle" x="1111.5" y="-279.7" font-family="Source Sans Pro" font-size="16.00">/Image/IETexture.hpp</text>
</a>
</g>
</g>
<!-- Node2 -->
<g id="node2" class="node">
<title>Node2</title>
<g id="a_node2"><a xlink:href="_i_e_image_8hpp.html" target="_top" xlink:title=" ">
<polygon fill="white" stroke="black" points="713.5,-207.5 713.5,-233.5 815.5,-233.5 815.5,-207.5 713.5,-207.5"/>
<text text-anchor="middle" x="764.5" y="-216.7" font-family="Source Sans Pro" font-size="16.00">IEImage.hpp</text>
</a>
</g>
</g>
<!-- Node1&#45;&gt;Node2 -->
<g id="edge1" class="edge">
<title>Node1&#45;&gt;Node2</title>
<path fill="none" stroke="midnightblue" d="M1030.14,-281.98C967.5,-267.72 882.28,-248.31 825.43,-235.37"/>
<polygon fill="midnightblue" stroke="midnightblue" points="826.04,-231.92 815.51,-233.11 824.48,-238.75 826.04,-231.92"/>
</g>
<!-- Node5 -->
<g id="node5" class="node">
<title>Node5</title>
<g id="a_node5"><a xlink:title=" ">
<polygon fill="white" stroke="#bfbfbf" points="822,-63.5 822,-89.5 947,-89.5 947,-63.5 822,-63.5"/>
<text text-anchor="middle" x="884.5" y="-72.7" font-family="Source Sans Pro" font-size="16.00">vulkan/vulkan.h</text>
</a>
</g>
</g>
<!-- Node1&#45;&gt;Node5 -->
<g id="edge22" class="edge">
<title>Node1&#45;&gt;Node5</title>
<path fill="none" stroke="midnightblue" d="M1122.15,-270.21C1133.43,-232.1 1145.48,-166.73 1112.5,-126 1093.15,-102.1 1016.44,-89.49 957.28,-83.18"/>
<polygon fill="midnightblue" stroke="midnightblue" points="957.51,-79.68 947.2,-82.15 956.79,-86.65 957.51,-79.68"/>
</g>
<!-- Node6 -->
<g id="node6" class="node">
<title>Node6</title>
<g id="a_node6"><a xlink:title=" ">
<polygon fill="white" stroke="#bfbfbf" points="766,-0.5 766,-26.5 821,-26.5 821,-0.5 766,-0.5"/>
<text text-anchor="middle" x="793.5" y="-9.7" font-family="Source Sans Pro" font-size="16.00">string</text>
</a>
</g>
</g>
<!-- Node1&#45;&gt;Node6 -->
<g id="edge25" class="edge">
<title>Node1&#45;&gt;Node6</title>
<path fill="none" stroke="midnightblue" d="M1131.35,-270.29C1137.47,-259.33 1143.4,-246.54 1146.5,-234 1153.8,-204.46 1143.76,-135.27 1136.5,-126 1061.79,-30.62 904.08,-15.72 831.51,-14.14"/>
<polygon fill="midnightblue" stroke="midnightblue" points="831.49,-10.64 821.44,-13.99 831.39,-17.64 831.49,-10.64"/>
</g>
<!-- Node10 -->
<g id="node10" class="node">
<title>Node10</title>
<g id="a_node10"><a xlink:title=" ">
<polygon fill="white" stroke="#bfbfbf" points="0,-0.5 0,-26.5 63,-26.5 63,-0.5 0,-0.5"/>
<text text-anchor="middle" x="31.5" y="-9.7" font-family="Source Sans Pro" font-size="16.00">cstdint</text>
</a>
</g>
</g>
<!-- Node1&#45;&gt;Node10 -->
<g id="edge24" class="edge">
<title>Node1&#45;&gt;Node10</title>
<path fill="none" stroke="midnightblue" d="M1030.38,-296.26C792.81,-283.07 110.77,-239.55 39.5,-171 3.58,-136.45 14.97,-71.22 24.35,-36.9"/>
<polygon fill="midnightblue" stroke="midnightblue" points="27.82,-37.5 27.27,-26.92 21.11,-35.54 27.82,-37.5"/>
</g>
<!-- Node13 -->
<g id="node13" class="node">
<title>Node13</title>
<g id="a_node13"><a xlink:title=" ">
<polygon fill="white" stroke="#bfbfbf" points="1003.5,-135.5 1003.5,-161.5 1103.5,-161.5 1103.5,-135.5 1003.5,-135.5"/>
<text text-anchor="middle" x="1053.5" y="-144.7" font-family="Source Sans Pro" font-size="16.00">stb_image.h</text>
</a>
</g>
</g>
<!-- Node1&#45;&gt;Node13 -->
<g id="edge23" class="edge">
<title>Node1&#45;&gt;Node13</title>
<path fill="none" stroke="midnightblue" d="M1099.9,-270.31C1088.64,-240.98 1071.81,-197.18 1061.82,-171.16"/>
<polygon fill="midnightblue" stroke="midnightblue" points="1065.08,-169.89 1058.23,-161.81 1058.55,-172.4 1065.08,-169.89"/>
</g>
<!-- Node15 -->
<g id="node15" class="node">
<title>Node15</title>
<g id="a_node15"><a xlink:title=" ">
<polygon fill="white" stroke="#bfbfbf" points="1197.5,-207.5 1197.5,-233.5 1335.5,-233.5 1335.5,-207.5 1197.5,-207.5"/>
<text text-anchor="middle" x="1266.5" y="-216.7" font-family="Source Sans Pro" font-size="16.00">assimp/material.h</text>
</a>
</g>
</g>
<!-- Node1&#45;&gt;Node15 -->
<g id="edge21" class="edge">
<title>Node1&#45;&gt;Node15</title>
<path fill="none" stroke="midnightblue" d="M1170.54,-270.41C1191.96,-259.49 1215.38,-247.56 1233.71,-238.21"/>
<polygon fill="midnightblue" stroke="midnightblue" points="1235.48,-241.24 1242.8,-233.58 1232.31,-235 1235.48,-241.24"/>
</g>
<!-- Node3 -->
<g id="node3" class="node">
<title>Node3</title>
<g id="a_node3"><a xlink:href="_i_e_dependency_8hpp.html" target="_top" xlink:title=" ">
<polygon fill="white" stroke="black" points="98,-126.5 98,-170.5 343,-170.5 343,-126.5 98,-126.5"/>
<text text-anchor="start" x="106" y="-153.7" font-family="Source Sans Pro" font-size="16.00">GraphicsModule/CommandBuffer</text>
<text text-anchor="middle" x="220.5" y="-135.7" font-family="Source Sans Pro" font-size="16.00">/IEDependency.hpp</text>
</a>
</g>
</g>
<!-- Node2&#45;&gt;Node3 -->
<g id="edge2" class="edge">
<title>Node2&#45;&gt;Node3</title>
<path fill="none" stroke="midnightblue" d="M713.34,-214.21C637.27,-206.19 489.57,-189.99 353.29,-171.08"/>
<polygon fill="midnightblue" stroke="midnightblue" points="353.47,-167.57 343.08,-169.66 352.5,-174.5 353.47,-167.57"/>
</g>
<!-- Node4 -->
<g id="node4" class="node">
<title>Node4</title>
<g id="a_node4"><a xlink:title=" ">
<polygon fill="white" stroke="#bfbfbf" points="159,-0.5 159,-26.5 218,-26.5 218,-0.5 159,-0.5"/>
<text text-anchor="middle" x="188.5" y="-9.7" font-family="Source Sans Pro" font-size="16.00">vector</text>
</a>
</g>
</g>
<!-- Node2&#45;&gt;Node4 -->
<g id="edge19" class="edge">
<title>Node2&#45;&gt;Node4</title>
<path fill="none" stroke="midnightblue" d="M713.37,-219.74C563.11,-219.92 130.81,-216.46 88.5,-171 47.29,-126.73 120.16,-63.31 162.06,-32.58"/>
<polygon fill="midnightblue" stroke="midnightblue" points="164.15,-35.38 170.23,-26.71 160.06,-29.7 164.15,-35.38"/>
</g>
<!-- Node2&#45;&gt;Node5 -->
<g id="edge15" class="edge">
<title>Node2&#45;&gt;Node5</title>
<path fill="none" stroke="midnightblue" d="M815.71,-218.08C850.55,-214.11 894.37,-202.59 917.5,-171 933.78,-148.76 916.78,-117.76 901.77,-97.66"/>
<polygon fill="midnightblue" stroke="midnightblue" points="904.49,-95.46 895.56,-89.77 898.99,-99.79 904.49,-95.46"/>
</g>
<!-- Node2&#45;&gt;Node6 -->
<g id="edge18" class="edge">
<title>Node2&#45;&gt;Node6</title>
<path fill="none" stroke="midnightblue" d="M815.53,-218.2C853.68,-214.46 904.41,-203.18 935.5,-171 961.27,-144.33 951.02,-126.81 955.5,-90 956.95,-78.09 962.67,-72.63 955.5,-63 927.06,-24.79 869.6,-15.53 831.32,-13.88"/>
<polygon fill="midnightblue" stroke="midnightblue" points="831.17,-10.37 821.08,-13.59 830.98,-17.37 831.17,-10.37"/>
</g>
<!-- Node8 -->
<g id="node8" class="node">
<title>Node8</title>
<g id="a_node8"><a xlink:href="_i_e_a_p_i_8hpp.html" target="_top" xlink:title=" ">
<polygon fill="white" stroke="black" points="826,-135.5 826,-161.5 909,-161.5 909,-135.5 826,-135.5"/>
<text text-anchor="middle" x="867.5" y="-144.7" font-family="Source Sans Pro" font-size="16.00">IEAPI.hpp</text>
</a>
</g>
</g>
<!-- Node2&#45;&gt;Node8 -->
<g id="edge7" class="edge">
<title>Node2&#45;&gt;Node8</title>
<path fill="none" stroke="midnightblue" d="M782.44,-207.31C798.76,-196.22 823.05,-179.71 841.49,-167.17"/>
<polygon fill="midnightblue" stroke="midnightblue" points="843.46,-170.07 849.76,-161.55 839.53,-164.28 843.46,-170.07"/>
</g>
<!-- Node2&#45;&gt;Node10 -->
<g id="edge17" class="edge">
<title>Node2&#45;&gt;Node10</title>
<path fill="none" stroke="midnightblue" d="M713.48,-219.3C561.87,-218.23 121.52,-211.65 72.5,-171 32.7,-138 28.94,-71.54 29.97,-36.8"/>
<polygon fill="midnightblue" stroke="midnightblue" points="33.47,-36.87 30.43,-26.72 26.47,-36.55 33.47,-36.87"/>
</g>
<!-- Node11 -->
<g id="node11" class="node">
<title>Node11</title>
<g id="a_node11"><a xlink:title=" ">
<polygon fill="white" stroke="#bfbfbf" points="361.5,-135.5 361.5,-161.5 499.5,-161.5 499.5,-135.5 361.5,-135.5"/>
<text text-anchor="middle" x="430.5" y="-144.7" font-family="Source Sans Pro" font-size="16.00">include/GL/glew.h</text>
</a>
</g>
</g>
<!-- Node2&#45;&gt;Node11 -->
<g id="edge13" class="edge">
<title>Node2&#45;&gt;Node11</title>
<path fill="none" stroke="midnightblue" d="M713.24,-211.06C661.38,-202.22 579,-187.37 508.5,-171 499.75,-168.97 490.51,-166.61 481.56,-164.22"/>
<polygon fill="midnightblue" stroke="midnightblue" points="482.2,-160.76 471.63,-161.51 480.36,-167.52 482.2,-160.76"/>
</g>
<!-- Node12 -->
<g id="node12" class="node">
<title>Node12</title>
<g id="a_node12"><a xlink:title=" ">
<polygon fill="white" stroke="#bfbfbf" points="518,-135.5 518,-161.5 703,-161.5 703,-135.5 518,-135.5"/>
<text text-anchor="middle" x="610.5" y="-144.7" font-family="Source Sans Pro" font-size="16.00">include/vk_mem_alloc.h</text>
</a>
</g>
</g>
<!-- Node2&#45;&gt;Node12 -->
<g id="edge14" class="edge">
<title>Node2&#45;&gt;Node12</title>
<path fill="none" stroke="midnightblue" d="M738.03,-207.47C712.79,-196 674.6,-178.64 646.59,-165.9"/>
<polygon fill="midnightblue" stroke="midnightblue" points="647.7,-162.56 637.14,-161.61 644.8,-168.94 647.7,-162.56"/>
</g>
<!-- Node2&#45;&gt;Node13 -->
<g id="edge16" class="edge">
<title>Node2&#45;&gt;Node13</title>
<path fill="none" stroke="midnightblue" d="M815.83,-210.13C861.69,-201.36 930.55,-187.2 989.5,-171 996.18,-169.16 1003.19,-167.03 1010.02,-164.83"/>
<polygon fill="midnightblue" stroke="midnightblue" points="1011.44,-168.05 1019.84,-161.59 1009.25,-161.4 1011.44,-168.05"/>
</g>
<!-- Node14 -->
<g id="node14" class="node">
<title>Node14</title>
<g id="a_node14"><a xlink:title=" ">
<polygon fill="white" stroke="#bfbfbf" points="721.5,-135.5 721.5,-161.5 807.5,-161.5 807.5,-135.5 721.5,-135.5"/>
<text text-anchor="middle" x="764.5" y="-144.7" font-family="Source Sans Pro" font-size="16.00">functional</text>
</a>
</g>
</g>
<!-- Node2&#45;&gt;Node14 -->
<g id="edge20" class="edge">
<title>Node2&#45;&gt;Node14</title>
<path fill="none" stroke="midnightblue" d="M764.5,-207.31C764.5,-197.47 764.5,-183.38 764.5,-171.57"/>
<polygon fill="midnightblue" stroke="midnightblue" points="768,-171.55 764.5,-161.55 761,-171.55 768,-171.55"/>
</g>
<!-- Node3&#45;&gt;Node4 -->
<g id="edge3" class="edge">
<title>Node3&#45;&gt;Node4</title>
<path fill="none" stroke="midnightblue" d="M215.43,-126.43C209.53,-101.92 199.85,-61.66 193.84,-36.69"/>
<polygon fill="midnightblue" stroke="midnightblue" points="197.18,-35.62 191.44,-26.71 190.38,-37.26 197.18,-35.62"/>
</g>
<!-- Node3&#45;&gt;Node5 -->
<g id="edge4" class="edge">
<title>Node3&#45;&gt;Node5</title>
<path fill="none" stroke="midnightblue" d="M343.07,-127.24C346.24,-126.81 349.39,-126.39 352.5,-126 515.95,-105.26 708.74,-89.95 811.44,-82.52"/>
<polygon fill="midnightblue" stroke="midnightblue" points="811.97,-85.99 821.69,-81.78 811.47,-79.01 811.97,-85.99"/>
</g>
<!-- Node3&#45;&gt;Node6 -->
<g id="edge5" class="edge">
<title>Node3&#45;&gt;Node6</title>
<path fill="none" stroke="midnightblue" d="M343.24,-127.41C400.16,-117.39 468.55,-104.35 529.5,-90 611.28,-70.74 705.59,-42.21 756.41,-26.31"/>
<polygon fill="midnightblue" stroke="midnightblue" points="757.49,-29.64 765.98,-23.3 755.39,-22.96 757.49,-29.64"/>
</g>
<!-- Node7 -->
<g id="node7" class="node">
<title>Node7</title>
<g id="a_node7"><a xlink:title=" ">
<polygon fill="white" stroke="#bfbfbf" points="216.5,-63.5 216.5,-89.5 290.5,-89.5 290.5,-63.5 216.5,-63.5"/>
<text text-anchor="middle" x="253.5" y="-72.7" font-family="Source Sans Pro" font-size="16.00">memory</text>
</a>
</g>
</g>
<!-- Node3&#45;&gt;Node7 -->
<g id="edge6" class="edge">
<title>Node3&#45;&gt;Node7</title>
<path fill="none" stroke="midnightblue" d="M230.4,-126.5C234.54,-117.72 239.34,-107.54 243.49,-98.73"/>
<polygon fill="midnightblue" stroke="midnightblue" points="246.73,-100.07 247.83,-89.53 240.4,-97.08 246.73,-100.07"/>
</g>
<!-- Node8&#45;&gt;Node6 -->
<g id="edge12" class="edge">
<title>Node8&#45;&gt;Node6</title>
<path fill="none" stroke="midnightblue" d="M852.18,-135.42C839.68,-124.76 822.52,-108.14 812.5,-90 803.4,-73.53 798.58,-52.65 796.07,-37.02"/>
<polygon fill="midnightblue" stroke="midnightblue" points="799.48,-36.13 794.63,-26.71 792.55,-37.1 799.48,-36.13"/>
</g>
<!-- Node9 -->
<g id="node9" class="node">
<title>Node9</title>
<g id="a_node9"><a xlink:href="_i_e_version_8hpp.html" target="_top" xlink:title=" ">
<polygon fill="white" stroke="black" points="410.5,-63.5 410.5,-89.5 520.5,-89.5 520.5,-63.5 410.5,-63.5"/>
<text text-anchor="middle" x="465.5" y="-72.7" font-family="Source Sans Pro" font-size="16.00">IEVersion.hpp</text>
</a>
</g>
</g>
<!-- Node8&#45;&gt;Node9 -->
<g id="edge8" class="edge">
<title>Node8&#45;&gt;Node9</title>
<path fill="none" stroke="midnightblue" d="M842.54,-135.44C834.4,-131.93 825.21,-128.39 816.5,-126 718.97,-99.2 601.94,-86.82 530.68,-81.39"/>
<polygon fill="midnightblue" stroke="midnightblue" points="530.74,-77.89 520.51,-80.64 530.22,-84.87 530.74,-77.89"/>
</g>
<!-- Node9&#45;&gt;Node4 -->
<g id="edge11" class="edge">
<title>Node9&#45;&gt;Node4</title>
<path fill="none" stroke="midnightblue" d="M410.77,-63.45C357.01,-51.61 276.27,-33.83 228.34,-23.27"/>
<polygon fill="midnightblue" stroke="midnightblue" points="228.86,-19.8 218.34,-21.07 227.35,-26.64 228.86,-19.8"/>
</g>
<!-- Node9&#45;&gt;Node6 -->
<g id="edge10" class="edge">
<title>Node9&#45;&gt;Node6</title>
<path fill="none" stroke="midnightblue" d="M520.77,-65.22C587.46,-52.82 697.8,-32.3 755.57,-21.55"/>
<polygon fill="midnightblue" stroke="midnightblue" points="756.53,-24.94 765.72,-19.67 755.25,-18.05 756.53,-24.94"/>
</g>
<!-- Node9&#45;&gt;Node10 -->
<g id="edge9" class="edge">
<title>Node9&#45;&gt;Node10</title>
<path fill="none" stroke="midnightblue" d="M410.09,-67.71C321.96,-55.32 151.77,-31.4 73.17,-20.36"/>
<polygon fill="midnightblue" stroke="midnightblue" points="73.54,-16.87 63.15,-18.95 72.56,-23.81 73.54,-16.87"/>
</g>
</g>
</svg>
