<?xml version="1.0" encoding="UTF-8" standalone="no"?>
<!DOCTYPE svg PUBLIC "-//W3C//DTD SVG 1.1//EN"
 "http://www.w3.org/Graphics/SVG/1.1/DTD/svg11.dtd">
<!-- Generated by graphviz version 2.43.0 (0)
 -->
<!-- Title: Illumination&#45;Engine/src/GraphicsModule/Renderable/IEMaterial.hpp Pages: 1 -->
<svg width="1581pt" height="404pt"
 viewBox="0.00 0.00 1581.00 404.00" xmlns="http://www.w3.org/2000/svg" xmlns:xlink="http://www.w3.org/1999/xlink">
<g id="graph0" class="graph" transform="scale(1 1) rotate(0) translate(4 400)">
<title>Illumination&#45;Engine/src/GraphicsModule/Renderable/IEMaterial.hpp</title>
<polygon fill="white" stroke="transparent" points="-4,4 -4,-400 1577,-400 1577,4 -4,4"/>
<!-- Node1 -->
<g id="node1" class="node">
<title>Node1</title>
<g id="a_node1"><a xlink:title=" ">
<polygon fill="#bfbfbf" stroke="black" points="355.5,-333.5 355.5,-395.5 558.5,-395.5 558.5,-333.5 355.5,-333.5"/>
<text text-anchor="start" x="363.5" y="-378.7" font-family="Source Sans Pro" font-size="16.00">Illumination&#45;Engine</text>
<text text-anchor="start" x="363.5" y="-360.7" font-family="Source Sans Pro" font-size="16.00">/src/GraphicsModule</text>
<text text-anchor="middle" x="457" y="-342.7" font-family="Source Sans Pro" font-size="16.00">/Renderable/IEMaterial.hpp</text>
</a>
</g>
</g>
<!-- Node2 -->
<g id="node2" class="node">
<title>Node2</title>
<g id="a_node2"><a xlink:title=" ">
<polygon fill="white" stroke="#bfbfbf" points="0,-270.5 0,-296.5 76,-296.5 76,-270.5 0,-270.5"/>
<text text-anchor="middle" x="38" y="-279.7" font-family="Source Sans Pro" font-size="16.00">iostream</text>
</a>
</g>
</g>
<!-- Node1&#45;&gt;Node2 -->
<g id="edge1" class="edge">
<title>Node1&#45;&gt;Node2</title>
<path fill="none" stroke="midnightblue" d="M355.45,-346.69C281.6,-334.08 179.34,-315.82 90,-297 88.75,-296.74 87.48,-296.46 86.2,-296.19"/>
<polygon fill="midnightblue" stroke="midnightblue" points="86.81,-292.74 76.28,-293.96 85.27,-299.57 86.81,-292.74"/>
</g>
<!-- Node3 -->
<g id="node3" class="node">
<title>Node3</title>
<g id="a_node3"><a xlink:title=" ">
<polygon fill="white" stroke="#bfbfbf" points="132,-207.5 132,-233.5 270,-233.5 270,-207.5 132,-207.5"/>
<text text-anchor="middle" x="201" y="-216.7" font-family="Source Sans Pro" font-size="16.00">assimp/material.h</text>
</a>
</g>
</g>
<!-- Node1&#45;&gt;Node3 -->
<g id="edge2" class="edge">
<title>Node1&#45;&gt;Node3</title>
<path fill="none" stroke="midnightblue" d="M355.43,-353.65C281.23,-344.11 189.62,-326.63 166,-297 152.53,-280.11 166.74,-257.19 180.89,-241.05"/>
<polygon fill="midnightblue" stroke="midnightblue" points="183.45,-243.43 187.7,-233.73 178.33,-238.66 183.45,-243.43"/>
</g>
<!-- Node4 -->
<g id="node4" class="node">
<title>Node4</title>
<g id="a_node4"><a xlink:title=" ">
<polygon fill="white" stroke="#bfbfbf" points="320,-135.5 320,-161.5 420,-161.5 420,-135.5 320,-135.5"/>
<text text-anchor="middle" x="370" y="-144.7" font-family="Source Sans Pro" font-size="16.00">stb_image.h</text>
</a>
</g>
</g>
<!-- Node1&#45;&gt;Node4 -->
<g id="edge3" class="edge">
<title>Node1&#45;&gt;Node4</title>
<path fill="none" stroke="midnightblue" d="M558.64,-335.65C593.38,-320.54 619.57,-298.93 602,-270 580.58,-234.74 472.61,-188.8 411.8,-165.12"/>
<polygon fill="midnightblue" stroke="midnightblue" points="413.05,-161.86 402.46,-161.52 410.53,-168.39 413.05,-161.86"/>
</g>
<!-- Node5 -->
<g id="node5" class="node">
<title>Node5</title>
<g id="a_node5"><a xlink:title=" ">
<polygon fill="white" stroke="#bfbfbf" points="175.5,-270.5 175.5,-296.5 306.5,-296.5 306.5,-270.5 175.5,-270.5"/>
<text text-anchor="middle" x="241" y="-279.7" font-family="Source Sans Pro" font-size="16.00">assimp/texture.h</text>
</a>
</g>
</g>
<!-- Node1&#45;&gt;Node5 -->
<g id="edge4" class="edge">
<title>Node1&#45;&gt;Node5</title>
<path fill="none" stroke="midnightblue" d="M374.72,-333.41C343.64,-322.04 309.54,-309.57 283.56,-300.07"/>
<polygon fill="midnightblue" stroke="midnightblue" points="284.61,-296.72 274.02,-296.58 282.21,-303.3 284.61,-296.72"/>
</g>
<!-- Node6 -->
<g id="node6" class="node">
<title>Node6</title>
<g id="a_node6"><a xlink:title=" ">
<polygon fill="white" stroke="#bfbfbf" points="325,-270.5 325,-296.5 447,-296.5 447,-270.5 325,-270.5"/>
<text text-anchor="middle" x="386" y="-279.7" font-family="Source Sans Pro" font-size="16.00">assimp/scene.h</text>
</a>
</g>
</g>
<!-- Node1&#45;&gt;Node6 -->
<g id="edge5" class="edge">
<title>Node1&#45;&gt;Node6</title>
<path fill="none" stroke="midnightblue" d="M429.75,-333.18C421.01,-323.45 411.56,-312.94 403.69,-304.18"/>
<polygon fill="midnightblue" stroke="midnightblue" points="406.25,-301.8 396.97,-296.7 401.05,-306.48 406.25,-301.8"/>
</g>
<!-- Node7 -->
<g id="node7" class="node">
<title>Node7</title>
<g id="a_node7"><a xlink:title=" ">
<polygon fill="white" stroke="#bfbfbf" points="465,-270.5 465,-296.5 593,-296.5 593,-270.5 465,-270.5"/>
<text text-anchor="middle" x="529" y="-279.7" font-family="Source Sans Pro" font-size="16.00">unordered_map</text>
</a>
</g>
</g>
<!-- Node1&#45;&gt;Node7 -->
<g id="edge6" class="edge">
<title>Node1&#45;&gt;Node7</title>
<path fill="none" stroke="midnightblue" d="M484.63,-333.18C493.5,-323.45 503.08,-312.94 511.06,-304.18"/>
<polygon fill="midnightblue" stroke="midnightblue" points="513.73,-306.45 517.88,-296.7 508.56,-301.74 513.73,-306.45"/>
</g>
<!-- Node8 -->
<g id="node8" class="node">
<title>Node8</title>
<g id="a_node8"><a xlink:title=" ">
<polygon fill="white" stroke="#bfbfbf" points="447.5,-0.5 447.5,-26.5 502.5,-26.5 502.5,-0.5 447.5,-0.5"/>
<text text-anchor="middle" x="475" y="-9.7" font-family="Source Sans Pro" font-size="16.00">string</text>
</a>
</g>
</g>
<!-- Node1&#45;&gt;Node8 -->
<g id="edge7" class="edge">
<title>Node1&#45;&gt;Node8</title>
<path fill="none" stroke="midnightblue" d="M355.26,-359.32C293.51,-352.55 215.57,-336.09 157,-297 122.9,-274.24 104,-262.5 104,-221.5 104,-221.5 104,-221.5 104,-147.5 104,-77.18 343.17,-34.04 437.45,-19.77"/>
<polygon fill="midnightblue" stroke="midnightblue" points="438.04,-23.22 447.42,-18.28 437.01,-16.29 438.04,-23.22"/>
</g>
<!-- Node9 -->
<g id="node9" class="node">
<title>Node9</title>
<g id="a_node9"><a xlink:href="_i_e_texture_8hpp.html" target="_top" xlink:title=" ">
<polygon fill="white" stroke="black" points="649.5,-270.5 649.5,-296.5 806.5,-296.5 806.5,-270.5 649.5,-270.5"/>
<text text-anchor="middle" x="728" y="-279.7" font-family="Source Sans Pro" font-size="16.00">Image/IETexture.hpp</text>
</a>
</g>
</g>
<!-- Node1&#45;&gt;Node9 -->
<g id="edge8" class="edge">
<title>Node1&#45;&gt;Node9</title>
<path fill="none" stroke="midnightblue" d="M558.68,-333.86C598.97,-322.11 643.52,-309.13 676.81,-299.42"/>
<polygon fill="midnightblue" stroke="midnightblue" points="678.14,-302.68 686.76,-296.52 676.18,-295.96 678.14,-302.68"/>
</g>
<!-- Node21 -->
<g id="node21" class="node">
<title>Node21</title>
<g id="a_node21"><a xlink:href="_i_e_renderable_settings_8hpp.html" target="_top" xlink:title=" ">
<polygon fill="white" stroke="black" points="1245.5,-135.5 1245.5,-161.5 1436.5,-161.5 1436.5,-135.5 1245.5,-135.5"/>
<text text-anchor="middle" x="1341" y="-144.7" font-family="Source Sans Pro" font-size="16.00">IERenderableSettings.hpp</text>
</a>
</g>
</g>
<!-- Node1&#45;&gt;Node21 -->
<g id="edge34" class="edge">
<title>Node1&#45;&gt;Node21</title>
<path fill="none" stroke="midnightblue" d="M558.79,-346.82C630.89,-334.47 729.75,-316.47 816,-297 921.9,-273.1 947.45,-263.24 1052,-234 1136.06,-210.49 1233.41,-181.7 1290.96,-164.52"/>
<polygon fill="midnightblue" stroke="midnightblue" points="1292.3,-167.77 1300.88,-161.56 1290.3,-161.07 1292.3,-167.77"/>
</g>
<!-- Node22 -->
<g id="node22" class="node">
<title>Node22</title>
<g id="a_node22"><a xlink:title=" ">
<polygon fill="white" stroke="#bfbfbf" points="1469,-270.5 1469,-296.5 1573,-296.5 1573,-270.5 1469,-270.5"/>
<text text-anchor="middle" x="1521" y="-279.7" font-family="Source Sans Pro" font-size="16.00">glm/glm.hpp</text>
</a>
</g>
</g>
<!-- Node1&#45;&gt;Node22 -->
<g id="edge39" class="edge">
<title>Node1&#45;&gt;Node22</title>
<path fill="none" stroke="midnightblue" d="M558.68,-360.77C739.59,-355.02 1129.01,-338.58 1455,-297 1456.27,-296.84 1457.55,-296.67 1458.84,-296.49"/>
<polygon fill="midnightblue" stroke="midnightblue" points="1459.49,-299.93 1468.85,-294.98 1458.44,-293.01 1459.49,-299.93"/>
</g>
<!-- Node9&#45;&gt;Node3 -->
<g id="edge29" class="edge">
<title>Node9&#45;&gt;Node3</title>
<path fill="none" stroke="midnightblue" d="M649.43,-274.31C541.42,-262.98 352.63,-242.91 284,-234 282.74,-233.84 281.47,-233.67 280.19,-233.5"/>
<polygon fill="midnightblue" stroke="midnightblue" points="280.64,-230.03 270.26,-232.15 279.7,-236.96 280.64,-230.03"/>
</g>
<!-- Node9&#45;&gt;Node4 -->
<g id="edge31" class="edge">
<title>Node9&#45;&gt;Node4</title>
<path fill="none" stroke="midnightblue" d="M717.01,-270.33C700.83,-253.24 668.84,-222.5 635,-207 552.49,-169.2 521.92,-193.51 434,-171 426.97,-169.2 419.61,-167.02 412.47,-164.74"/>
<polygon fill="midnightblue" stroke="midnightblue" points="413.53,-161.4 402.94,-161.6 411.34,-168.05 413.53,-161.4"/>
</g>
<!-- Node9&#45;&gt;Node8 -->
<g id="edge33" class="edge">
<title>Node9&#45;&gt;Node8</title>
<path fill="none" stroke="midnightblue" d="M649.06,-272.81C539.97,-257.61 351.9,-224.27 311,-171 265.73,-112.03 376.56,-54.88 437.77,-28.97"/>
<polygon fill="midnightblue" stroke="midnightblue" points="439.24,-32.15 447.14,-25.08 436.56,-25.68 439.24,-32.15"/>
</g>
<!-- Node10 -->
<g id="node10" class="node">
<title>Node10</title>
<g id="a_node10"><a xlink:href="_i_e_image_8hpp.html" target="_top" xlink:title=" ">
<polygon fill="white" stroke="black" points="717,-207.5 717,-233.5 819,-233.5 819,-207.5 717,-207.5"/>
<text text-anchor="middle" x="768" y="-216.7" font-family="Source Sans Pro" font-size="16.00">IEImage.hpp</text>
</a>
</g>
</g>
<!-- Node9&#45;&gt;Node10 -->
<g id="edge9" class="edge">
<title>Node9&#45;&gt;Node10</title>
<path fill="none" stroke="midnightblue" d="M735.9,-270.45C741.22,-262.34 748.36,-251.46 754.55,-242.01"/>
<polygon fill="midnightblue" stroke="midnightblue" points="757.56,-243.81 760.11,-233.53 751.7,-239.97 757.56,-243.81"/>
</g>
<!-- Node13 -->
<g id="node13" class="node">
<title>Node13</title>
<g id="a_node13"><a xlink:title=" ">
<polygon fill="white" stroke="#bfbfbf" points="1116.5,-63.5 1116.5,-89.5 1241.5,-89.5 1241.5,-63.5 1116.5,-63.5"/>
<text text-anchor="middle" x="1179" y="-72.7" font-family="Source Sans Pro" font-size="16.00">vulkan/vulkan.h</text>
</a>
</g>
</g>
<!-- Node9&#45;&gt;Node13 -->
<g id="edge30" class="edge">
<title>Node9&#45;&gt;Node13</title>
<path fill="none" stroke="midnightblue" d="M806.53,-271.13C914.8,-253.94 1102.14,-218.26 1151,-171 1170.29,-152.34 1176.43,-120.98 1178.31,-99.77"/>
<polygon fill="midnightblue" stroke="midnightblue" points="1181.8,-99.94 1178.95,-89.73 1174.82,-99.49 1181.8,-99.94"/>
</g>
<!-- Node17 -->
<g id="node17" class="node">
<title>Node17</title>
<g id="a_node17"><a xlink:title=" ">
<polygon fill="white" stroke="#bfbfbf" points="1409.5,-0.5 1409.5,-26.5 1472.5,-26.5 1472.5,-0.5 1409.5,-0.5"/>
<text text-anchor="middle" x="1441" y="-9.7" font-family="Source Sans Pro" font-size="16.00">cstdint</text>
</a>
</g>
</g>
<!-- Node9&#45;&gt;Node17 -->
<g id="edge32" class="edge">
<title>Node9&#45;&gt;Node17</title>
<path fill="none" stroke="midnightblue" d="M806.81,-282.52C979.05,-280.76 1380.68,-266.3 1469,-171 1501.68,-135.74 1489.47,-108.85 1475,-63 1471.74,-52.67 1465.4,-42.62 1459.07,-34.38"/>
<polygon fill="midnightblue" stroke="midnightblue" points="1461.66,-32.01 1452.61,-26.5 1456.25,-36.45 1461.66,-32.01"/>
</g>
<!-- Node10&#45;&gt;Node4 -->
<g id="edge24" class="edge">
<title>Node10&#45;&gt;Node4</title>
<path fill="none" stroke="midnightblue" d="M716.79,-210.78C708.83,-209.47 700.7,-208.18 693,-207 578.12,-189.45 547.13,-197.62 434,-171 426.62,-169.26 418.89,-167.03 411.45,-164.67"/>
<polygon fill="midnightblue" stroke="midnightblue" points="412.49,-161.32 401.89,-161.51 410.29,-167.97 412.49,-161.32"/>
</g>
<!-- Node10&#45;&gt;Node8 -->
<g id="edge26" class="edge">
<title>Node10&#45;&gt;Node8</title>
<path fill="none" stroke="midnightblue" d="M716.94,-213.01C633.19,-202.13 475.05,-180.46 467,-171 434.71,-133.09 452.69,-69.37 465.56,-36.14"/>
<polygon fill="midnightblue" stroke="midnightblue" points="468.8,-37.45 469.33,-26.87 462.32,-34.81 468.8,-37.45"/>
</g>
<!-- Node11 -->
<g id="node11" class="node">
<title>Node11</title>
<g id="a_node11"><a xlink:href="_i_e_dependency_8hpp.html" target="_top" xlink:title=" ">
<polygon fill="white" stroke="black" points="829.5,-126.5 829.5,-170.5 1074.5,-170.5 1074.5,-126.5 829.5,-126.5"/>
<text text-anchor="start" x="837.5" y="-153.7" font-family="Source Sans Pro" font-size="16.00">GraphicsModule/CommandBuffer</text>
<text text-anchor="middle" x="952" y="-135.7" font-family="Source Sans Pro" font-size="16.00">/IEDependency.hpp</text>
</a>
</g>
</g>
<!-- Node10&#45;&gt;Node11 -->
<g id="edge10" class="edge">
<title>Node10&#45;&gt;Node11</title>
<path fill="none" stroke="midnightblue" d="M799.63,-207.47C823.64,-198.33 857.48,-185.46 887.17,-174.16"/>
<polygon fill="midnightblue" stroke="midnightblue" points="888.55,-177.38 896.65,-170.56 886.06,-170.84 888.55,-177.38"/>
</g>
<!-- Node12 -->
<g id="node12" class="node">
<title>Node12</title>
<g id="a_node12"><a xlink:title=" ">
<polygon fill="white" stroke="#bfbfbf" points="1031.5,-0.5 1031.5,-26.5 1090.5,-26.5 1090.5,-0.5 1031.5,-0.5"/>
<text text-anchor="middle" x="1061" y="-9.7" font-family="Source Sans Pro" font-size="16.00">vector</text>
</a>
</g>
</g>
<!-- Node10&#45;&gt;Node12 -->
<g id="edge27" class="edge">
<title>Node10&#45;&gt;Node12</title>
<path fill="none" stroke="midnightblue" d="M819.07,-219.38C899.62,-217.98 1050.47,-210.07 1084,-171 1116.88,-132.69 1090.67,-68.69 1073.29,-35.66"/>
<polygon fill="midnightblue" stroke="midnightblue" points="1076.33,-33.93 1068.46,-26.83 1070.19,-37.29 1076.33,-33.93"/>
</g>
<!-- Node10&#45;&gt;Node13 -->
<g id="edge23" class="edge">
<title>Node10&#45;&gt;Node13</title>
<path fill="none" stroke="midnightblue" d="M819.17,-217.5C903.81,-213.36 1068.46,-201.54 1117,-171 1143.75,-154.16 1161.5,-121.1 1170.91,-99.14"/>
<polygon fill="midnightblue" stroke="midnightblue" points="1174.25,-100.24 1174.76,-89.66 1167.76,-97.61 1174.25,-100.24"/>
</g>
<!-- Node15 -->
<g id="node15" class="node">
<title>Node15</title>
<g id="a_node15"><a xlink:href="_i_e_a_p_i_8hpp.html" target="_top" xlink:title=" ">
<polygon fill="white" stroke="black" points="476.5,-135.5 476.5,-161.5 559.5,-161.5 559.5,-135.5 476.5,-135.5"/>
<text text-anchor="middle" x="518" y="-144.7" font-family="Source Sans Pro" font-size="16.00">IEAPI.hpp</text>
</a>
</g>
</g>
<!-- Node10&#45;&gt;Node15 -->
<g id="edge15" class="edge">
<title>Node10&#45;&gt;Node15</title>
<path fill="none" stroke="midnightblue" d="M716.78,-209.56C675.97,-201.05 617.65,-187.56 568,-171 563.08,-169.36 557.98,-167.44 552.99,-165.42"/>
<polygon fill="midnightblue" stroke="midnightblue" points="554.21,-162.14 543.63,-161.5 551.5,-168.59 554.21,-162.14"/>
</g>
<!-- Node10&#45;&gt;Node17 -->
<g id="edge25" class="edge">
<title>Node10&#45;&gt;Node17</title>
<path fill="none" stroke="midnightblue" d="M819.02,-219.75C969.47,-219.97 1403.53,-216.61 1446,-171 1480.08,-134.4 1462.59,-69.58 1450.06,-36"/>
<polygon fill="midnightblue" stroke="midnightblue" points="1453.3,-34.68 1446.39,-26.65 1446.78,-37.24 1453.3,-34.68"/>
</g>
<!-- Node18 -->
<g id="node18" class="node">
<title>Node18</title>
<g id="a_node18"><a xlink:title=" ">
<polygon fill="white" stroke="#bfbfbf" points="1259.5,-63.5 1259.5,-89.5 1342.5,-89.5 1342.5,-63.5 1259.5,-63.5"/>
<text text-anchor="middle" x="1301" y="-72.7" font-family="Source Sans Pro" font-size="16.00">GL/glew.h</text>
</a>
</g>
</g>
<!-- Node10&#45;&gt;Node18 -->
<g id="edge21" class="edge">
<title>Node10&#45;&gt;Node18</title>
<path fill="none" stroke="midnightblue" d="M819.17,-219.9C894.16,-218.98 1037.33,-211.42 1151,-171 1200.26,-153.48 1250.39,-117.87 1278.42,-96"/>
<polygon fill="midnightblue" stroke="midnightblue" points="1280.71,-98.65 1286.38,-89.69 1276.37,-93.16 1280.71,-98.65"/>
</g>
<!-- Node19 -->
<g id="node19" class="node">
<title>Node19</title>
<g id="a_node19"><a xlink:title=" ">
<polygon fill="white" stroke="#bfbfbf" points="577.5,-135.5 577.5,-161.5 706.5,-161.5 706.5,-135.5 577.5,-135.5"/>
<text text-anchor="middle" x="642" y="-144.7" font-family="Source Sans Pro" font-size="16.00">vk_mem_alloc.h</text>
</a>
</g>
</g>
<!-- Node10&#45;&gt;Node19 -->
<g id="edge22" class="edge">
<title>Node10&#45;&gt;Node19</title>
<path fill="none" stroke="midnightblue" d="M746.34,-207.47C726.06,-196.2 695.54,-179.24 672.74,-166.58"/>
<polygon fill="midnightblue" stroke="midnightblue" points="674.24,-163.41 663.8,-161.61 670.84,-169.53 674.24,-163.41"/>
</g>
<!-- Node20 -->
<g id="node20" class="node">
<title>Node20</title>
<g id="a_node20"><a xlink:title=" ">
<polygon fill="white" stroke="#bfbfbf" points="725,-135.5 725,-161.5 811,-161.5 811,-135.5 725,-135.5"/>
<text text-anchor="middle" x="768" y="-144.7" font-family="Source Sans Pro" font-size="16.00">functional</text>
</a>
</g>
</g>
<!-- Node10&#45;&gt;Node20 -->
<g id="edge28" class="edge">
<title>Node10&#45;&gt;Node20</title>
<path fill="none" stroke="midnightblue" d="M768,-207.31C768,-197.47 768,-183.38 768,-171.57"/>
<polygon fill="midnightblue" stroke="midnightblue" points="771.5,-171.55 768,-161.55 764.5,-171.55 771.5,-171.55"/>
</g>
<!-- Node11&#45;&gt;Node8 -->
<g id="edge13" class="edge">
<title>Node11&#45;&gt;Node8</title>
<path fill="none" stroke="midnightblue" d="M829.35,-127.31C779.16,-117.83 720.83,-105.23 669,-90 612.58,-73.42 549.51,-47.42 511.03,-30.67"/>
<polygon fill="midnightblue" stroke="midnightblue" points="512.36,-27.43 501.8,-26.62 509.55,-33.84 512.36,-27.43"/>
</g>
<!-- Node11&#45;&gt;Node12 -->
<g id="edge11" class="edge">
<title>Node11&#45;&gt;Node12</title>
<path fill="none" stroke="midnightblue" d="M969.27,-126.43C989.89,-101.27 1024.13,-59.49 1044.43,-34.71"/>
<polygon fill="midnightblue" stroke="midnightblue" points="1047.36,-36.67 1050.99,-26.71 1041.94,-32.23 1047.36,-36.67"/>
</g>
<!-- Node11&#45;&gt;Node13 -->
<g id="edge12" class="edge">
<title>Node11&#45;&gt;Node13</title>
<path fill="none" stroke="midnightblue" d="M1020.11,-126.5C1055.61,-115.55 1098.21,-102.41 1130.36,-92.5"/>
<polygon fill="midnightblue" stroke="midnightblue" points="1131.46,-95.82 1139.99,-89.53 1129.4,-89.13 1131.46,-95.82"/>
</g>
<!-- Node14 -->
<g id="node14" class="node">
<title>Node14</title>
<g id="a_node14"><a xlink:title=" ">
<polygon fill="white" stroke="#bfbfbf" points="915,-63.5 915,-89.5 989,-89.5 989,-63.5 915,-63.5"/>
<text text-anchor="middle" x="952" y="-72.7" font-family="Source Sans Pro" font-size="16.00">memory</text>
</a>
</g>
</g>
<!-- Node11&#45;&gt;Node14 -->
<g id="edge14" class="edge">
<title>Node11&#45;&gt;Node14</title>
<path fill="none" stroke="midnightblue" d="M952,-126.5C952,-118 952,-108.19 952,-99.59"/>
<polygon fill="midnightblue" stroke="midnightblue" points="955.5,-99.53 952,-89.53 948.5,-99.53 955.5,-99.53"/>
</g>
<!-- Node15&#45;&gt;Node8 -->
<g id="edge20" class="edge">
<title>Node15&#45;&gt;Node8</title>
<path fill="none" stroke="midnightblue" d="M514.03,-135.23C506.77,-112.76 491.24,-64.74 482.11,-36.5"/>
<polygon fill="midnightblue" stroke="midnightblue" points="485.37,-35.18 478.96,-26.74 478.7,-37.34 485.37,-35.18"/>
</g>
<!-- Node16 -->
<g id="node16" class="node">
<title>Node16</title>
<g id="a_node16"><a xlink:href="_i_e_version_8hpp.html" target="_top" xlink:title=" ">
<polygon fill="white" stroke="black" points="678,-63.5 678,-89.5 788,-89.5 788,-63.5 678,-63.5"/>
<text text-anchor="middle" x="733" y="-72.7" font-family="Source Sans Pro" font-size="16.00">IEVersion.hpp</text>
</a>
</g>
</g>
<!-- Node15&#45;&gt;Node16 -->
<g id="edge16" class="edge">
<title>Node15&#45;&gt;Node16</title>
<path fill="none" stroke="midnightblue" d="M544.49,-135.41C552.01,-132.16 560.27,-128.79 568,-126 603.76,-113.11 644.77,-101.04 676.96,-92.17"/>
<polygon fill="midnightblue" stroke="midnightblue" points="677.92,-95.53 686.65,-89.52 676.08,-88.78 677.92,-95.53"/>
</g>
<!-- Node16&#45;&gt;Node8 -->
<g id="edge18" class="edge">
<title>Node16&#45;&gt;Node8</title>
<path fill="none" stroke="midnightblue" d="M682.03,-63.45C632.16,-51.66 557.38,-33.98 512.67,-23.41"/>
<polygon fill="midnightblue" stroke="midnightblue" points="513.33,-19.97 502.79,-21.07 511.72,-26.78 513.33,-19.97"/>
</g>
<!-- Node16&#45;&gt;Node12 -->
<g id="edge19" class="edge">
<title>Node16&#45;&gt;Node12</title>
<path fill="none" stroke="midnightblue" d="M788.27,-65.22C854.23,-52.95 962.91,-32.74 1021.17,-21.91"/>
<polygon fill="midnightblue" stroke="midnightblue" points="1021.91,-25.33 1031.1,-20.06 1020.63,-18.45 1021.91,-25.33"/>
</g>
<!-- Node16&#45;&gt;Node17 -->
<g id="edge17" class="edge">
<title>Node16&#45;&gt;Node17</title>
<path fill="none" stroke="midnightblue" d="M788.26,-70.74C925.19,-58.94 1277.85,-28.56 1399.23,-18.1"/>
<polygon fill="midnightblue" stroke="midnightblue" points="1399.58,-21.58 1409.24,-17.24 1398.98,-14.61 1399.58,-21.58"/>
</g>
<!-- Node21&#45;&gt;Node12 -->
<g id="edge38" class="edge">
<title>Node21&#45;&gt;Node12</title>
<path fill="none" stroke="midnightblue" d="M1347.74,-135.25C1356.64,-117.21 1369.31,-83.43 1352,-63 1320.25,-25.52 1172.7,-16.98 1100.72,-15.05"/>
<polygon fill="midnightblue" stroke="midnightblue" points="1100.75,-11.55 1090.67,-14.81 1100.58,-18.55 1100.75,-11.55"/>
</g>
<!-- Node21&#45;&gt;Node13 -->
<g id="edge36" class="edge">
<title>Node21&#45;&gt;Node13</title>
<path fill="none" stroke="midnightblue" d="M1313.15,-135.47C1286.49,-123.95 1246.08,-106.49 1216.58,-93.74"/>
<polygon fill="midnightblue" stroke="midnightblue" points="1217.6,-90.36 1207.03,-89.61 1214.82,-96.79 1217.6,-90.36"/>
</g>
<!-- Node21&#45;&gt;Node17 -->
<g id="edge37" class="edge">
<title>Node21&#45;&gt;Node17</title>
<path fill="none" stroke="midnightblue" d="M1350.49,-135.2C1359.44,-123.59 1373.2,-105.66 1385,-90 1399.04,-71.37 1414.86,-50 1426.09,-34.77"/>
<polygon fill="midnightblue" stroke="midnightblue" points="1429.02,-36.7 1432.13,-26.57 1423.38,-32.55 1429.02,-36.7"/>
</g>
<!-- Node21&#45;&gt;Node18 -->
<g id="edge35" class="edge">
<title>Node21&#45;&gt;Node18</title>
<path fill="none" stroke="midnightblue" d="M1334.03,-135.31C1328.24,-125.17 1319.86,-110.51 1312.99,-98.49"/>
<polygon fill="midnightblue" stroke="midnightblue" points="1315.89,-96.5 1307.89,-89.55 1309.81,-99.97 1315.89,-96.5"/>
</g>
</g>
</svg>
