<?xml version="1.0" encoding="UTF-8" standalone="no"?>
<!DOCTYPE svg PUBLIC "-//W3C//DTD SVG 1.1//EN"
 "http://www.w3.org/Graphics/SVG/1.1/DTD/svg11.dtd">
<!-- Generated by graphviz version 2.43.0 (0)
 -->
<!-- Title: Illumination&#45;Engine/src/Core/AssetModule/IEAsset.hpp Pages: 1 -->
<svg width="3641pt" height="350pt"
 viewBox="0.00 0.00 3640.50 350.00" xmlns="http://www.w3.org/2000/svg" xmlns:xlink="http://www.w3.org/1999/xlink">
<g id="graph0" class="graph" transform="scale(1 1) rotate(0) translate(4 346)">
<title>Illumination&#45;Engine/src/Core/AssetModule/IEAsset.hpp</title>
<polygon fill="white" stroke="transparent" points="-4,4 -4,-346 3636.5,-346 3636.5,4 -4,4"/>
<!-- Node1 -->
<g id="node1" class="node">
<title>Node1</title>
<g id="a_node1"><a xlink:title=" ">
<polygon fill="#bfbfbf" stroke="black" points="149,-279.5 149,-341.5 319,-341.5 319,-279.5 149,-279.5"/>
<text text-anchor="start" x="157" y="-324.7" font-family="Source Sans Pro" font-size="16.00">Illumination&#45;Engine</text>
<text text-anchor="start" x="157" y="-306.7" font-family="Source Sans Pro" font-size="16.00">/src/Core/AssetModule</text>
<text text-anchor="middle" x="234" y="-288.7" font-family="Source Sans Pro" font-size="16.00">/IEAsset.hpp</text>
</a>
</g>
</g>
<!-- Node2 -->
<g id="node2" class="node">
<title>Node2</title>
<g id="a_node2"><a xlink:href="_i_e_asset_8cpp.html" target="_top" xlink:title=" ">
<polygon fill="white" stroke="black" points="0,-180.5 0,-242.5 170,-242.5 170,-180.5 0,-180.5"/>
<text text-anchor="start" x="8" y="-225.7" font-family="Source Sans Pro" font-size="16.00">Illumination&#45;Engine</text>
<text text-anchor="start" x="8" y="-207.7" font-family="Source Sans Pro" font-size="16.00">/src/Core/AssetModule</text>
<text text-anchor="middle" x="85" y="-189.7" font-family="Source Sans Pro" font-size="16.00">/IEAsset.cpp</text>
</a>
</g>
</g>
<!-- Node1&#45;&gt;Node2 -->
<g id="edge1" class="edge">
<title>Node1&#45;&gt;Node2</title>
<path fill="none" stroke="midnightblue" d="M179.1,-273.76C163.39,-263.53 146.43,-252.49 131.3,-242.64"/>
<polygon fill="midnightblue" stroke="midnightblue" points="177.38,-276.82 187.67,-279.34 181.2,-270.95 177.38,-276.82"/>
</g>
<!-- Node3 -->
<g id="node3" class="node">
<title>Node3</title>
<g id="a_node3"><a xlink:href="_i_e_render_engine_8cpp.html" target="_top" xlink:title=" ">
<polygon fill="white" stroke="black" points="225.5,-81.5 225.5,-143.5 384.5,-143.5 384.5,-81.5 225.5,-81.5"/>
<text text-anchor="start" x="233.5" y="-126.7" font-family="Source Sans Pro" font-size="16.00">Illumination&#45;Engine</text>
<text text-anchor="start" x="233.5" y="-108.7" font-family="Source Sans Pro" font-size="16.00">/src/GraphicsModule</text>
<text text-anchor="middle" x="305" y="-90.7" font-family="Source Sans Pro" font-size="16.00">/IERenderEngine.cpp</text>
</a>
</g>
</g>
<!-- Node1&#45;&gt;Node3 -->
<g id="edge2" class="edge">
<title>Node1&#45;&gt;Node3</title>
<path fill="none" stroke="midnightblue" d="M248.39,-269.76C261.9,-232.49 281.8,-177.55 294.05,-143.73"/>
<polygon fill="midnightblue" stroke="midnightblue" points="245.05,-268.71 244.94,-279.3 251.63,-271.09 245.05,-268.71"/>
</g>
<!-- Node4 -->
<g id="node4" class="node">
<title>Node4</title>
<g id="a_node4"><a xlink:href="main_8cpp.html" target="_top" xlink:title=" ">
<polygon fill="white" stroke="black" points="176,-0.5 176,-44.5 326,-44.5 326,-0.5 176,-0.5"/>
<text text-anchor="start" x="184" y="-27.7" font-family="Source Sans Pro" font-size="16.00">Illumination&#45;Engine</text>
<text text-anchor="middle" x="251" y="-9.7" font-family="Source Sans Pro" font-size="16.00">/src/main.cpp</text>
</a>
</g>
</g>
<!-- Node1&#45;&gt;Node4 -->
<g id="edge21" class="edge">
<title>Node1&#45;&gt;Node4</title>
<path fill="none" stroke="midnightblue" d="M222.55,-269.34C211.24,-223.05 198.02,-145.12 216,-81 219.66,-67.95 227.19,-54.92 234.33,-44.57"/>
<polygon fill="midnightblue" stroke="midnightblue" points="219.22,-270.44 225.07,-279.28 226,-268.72 219.22,-270.44"/>
</g>
<!-- Node5 -->
<g id="node5" class="node">
<title>Node5</title>
<g id="a_node5"><a xlink:href="_i_e_render_engine_8hpp.html" target="_top" xlink:title=" ">
<polygon fill="white" stroke="black" points="1691.5,-180.5 1691.5,-242.5 1852.5,-242.5 1852.5,-180.5 1691.5,-180.5"/>
<text text-anchor="start" x="1699.5" y="-225.7" font-family="Source Sans Pro" font-size="16.00">Illumination&#45;Engine</text>
<text text-anchor="start" x="1699.5" y="-207.7" font-family="Source Sans Pro" font-size="16.00">/src/GraphicsModule</text>
<text text-anchor="middle" x="1772" y="-189.7" font-family="Source Sans Pro" font-size="16.00">/IERenderEngine.hpp</text>
</a>
</g>
</g>
<!-- Node1&#45;&gt;Node5 -->
<g id="edge4" class="edge">
<title>Node1&#45;&gt;Node5</title>
<path fill="none" stroke="midnightblue" d="M329.31,-303.49C609.98,-285.79 1430.06,-234.07 1691.16,-217.6"/>
<polygon fill="midnightblue" stroke="midnightblue" points="328.92,-300.01 319.16,-304.13 329.36,-306.99 328.92,-300.01"/>
</g>
<!-- Node3&#45;&gt;Node4 -->
<g id="edge3" class="edge">
<title>Node3&#45;&gt;Node4</title>
<path fill="none" stroke="midnightblue" d="M281.1,-72.56C275.22,-62.97 269.14,-53.07 264,-44.68"/>
<polygon fill="midnightblue" stroke="midnightblue" points="278.2,-74.52 286.42,-81.22 284.17,-70.86 278.2,-74.52"/>
</g>
<!-- Node5&#45;&gt;Node3 -->
<g id="edge10" class="edge">
<title>Node5&#45;&gt;Node3</title>
<path fill="none" stroke="midnightblue" d="M1681.05,-209.45C1415.07,-205.84 641.81,-191.45 394,-144 390.95,-143.42 387.87,-142.75 384.76,-142.02"/>
<polygon fill="midnightblue" stroke="midnightblue" points="1681.39,-212.95 1691.44,-209.59 1681.48,-205.95 1681.39,-212.95"/>
</g>
<!-- Node6 -->
<g id="node6" class="node">
<title>Node6</title>
<g id="a_node6"><a xlink:href="_i_e_buffer_8cpp.html" target="_top" xlink:title=" ">
<polygon fill="white" stroke="black" points="3164.5,-81.5 3164.5,-143.5 3321.5,-143.5 3321.5,-81.5 3164.5,-81.5"/>
<text text-anchor="start" x="3172.5" y="-126.7" font-family="Source Sans Pro" font-size="16.00">Illumination&#45;Engine</text>
<text text-anchor="start" x="3172.5" y="-108.7" font-family="Source Sans Pro" font-size="16.00">/src/GraphicsModule</text>
<text text-anchor="middle" x="3243" y="-90.7" font-family="Source Sans Pro" font-size="16.00">/Buffer/IEBuffer.cpp</text>
</a>
</g>
</g>
<!-- Node5&#45;&gt;Node6 -->
<g id="edge5" class="edge">
<title>Node5&#45;&gt;Node6</title>
<path fill="none" stroke="midnightblue" d="M1862.89,-209.51C2129.49,-206.06 2906.25,-192.06 3155,-144 3158.02,-143.42 3161.07,-142.75 3164.14,-142.02"/>
<polygon fill="midnightblue" stroke="midnightblue" points="1862.82,-206.01 1852.86,-209.63 1862.91,-213.01 1862.82,-206.01"/>
</g>
<!-- Node7 -->
<g id="node7" class="node">
<title>Node7</title>
<g id="a_node7"><a xlink:href="_i_e_command_buffer_8cpp.html" target="_top" xlink:title=" ">
<polygon fill="white" stroke="black" points="3339.5,-81.5 3339.5,-143.5 3632.5,-143.5 3632.5,-81.5 3339.5,-81.5"/>
<text text-anchor="start" x="3347.5" y="-126.7" font-family="Source Sans Pro" font-size="16.00">Illumination&#45;Engine</text>
<text text-anchor="start" x="3347.5" y="-108.7" font-family="Source Sans Pro" font-size="16.00">/src/GraphicsModule</text>
<text text-anchor="middle" x="3486" y="-90.7" font-family="Source Sans Pro" font-size="16.00">/CommandBuffer/IECommandBuffer.cpp</text>
</a>
</g>
</g>
<!-- Node5&#45;&gt;Node7 -->
<g id="edge6" class="edge">
<title>Node5&#45;&gt;Node7</title>
<path fill="none" stroke="midnightblue" d="M1862.95,-208.43C2151.43,-201.6 3043.85,-178.18 3331,-144 3333.72,-143.68 3336.47,-143.33 3339.24,-142.97"/>
<polygon fill="midnightblue" stroke="midnightblue" points="1862.45,-204.95 1852.53,-208.68 1862.61,-211.94 1862.45,-204.95"/>
</g>
<!-- Node8 -->
<g id="node8" class="node">
<title>Node8</title>
<g id="a_node8"><a xlink:href="_i_e_command_pool_8cpp.html" target="_top" xlink:title=" ">
<polygon fill="white" stroke="black" points="403,-81.5 403,-143.5 687,-143.5 687,-81.5 403,-81.5"/>
<text text-anchor="start" x="411" y="-126.7" font-family="Source Sans Pro" font-size="16.00">Illumination&#45;Engine</text>
<text text-anchor="start" x="411" y="-108.7" font-family="Source Sans Pro" font-size="16.00">/src/GraphicsModule</text>
<text text-anchor="middle" x="545" y="-90.7" font-family="Source Sans Pro" font-size="16.00">/CommandBuffer/IECommandPool.cpp</text>
</a>
</g>
</g>
<!-- Node5&#45;&gt;Node8 -->
<g id="edge7" class="edge">
<title>Node5&#45;&gt;Node8</title>
<path fill="none" stroke="midnightblue" d="M1681.06,-209.1C1495.23,-205.3 1058.89,-191.63 696,-144 693.08,-143.62 690.14,-143.21 687.17,-142.78"/>
<polygon fill="midnightblue" stroke="midnightblue" points="1681.26,-212.6 1691.32,-209.3 1681.4,-205.6 1681.26,-212.6"/>
</g>
<!-- Node9 -->
<g id="node9" class="node">
<title>Node9</title>
<g id="a_node9"><a xlink:href="_i_e_a_p_i_8cpp.html" target="_top" xlink:title=" ">
<polygon fill="white" stroke="black" points="705.5,-81.5 705.5,-143.5 862.5,-143.5 862.5,-81.5 705.5,-81.5"/>
<text text-anchor="start" x="713.5" y="-126.7" font-family="Source Sans Pro" font-size="16.00">Illumination&#45;Engine</text>
<text text-anchor="start" x="713.5" y="-108.7" font-family="Source Sans Pro" font-size="16.00">/src/GraphicsModule</text>
<text text-anchor="middle" x="784" y="-90.7" font-family="Source Sans Pro" font-size="16.00">/IEAPI.cpp</text>
</a>
</g>
</g>
<!-- Node5&#45;&gt;Node9 -->
<g id="edge8" class="edge">
<title>Node5&#45;&gt;Node9</title>
<path fill="none" stroke="midnightblue" d="M1681.46,-206.85C1484.8,-198.42 1024,-175.88 871,-144 868.34,-143.44 865.64,-142.83 862.93,-142.16"/>
<polygon fill="midnightblue" stroke="midnightblue" points="1681.33,-210.35 1691.47,-207.28 1681.63,-203.35 1681.33,-210.35"/>
</g>
<!-- Node10 -->
<g id="node10" class="node">
<title>Node10</title>
<g id="a_node10"><a xlink:href="_i_e_camera_8cpp.html" target="_top" xlink:title=" ">
<polygon fill="white" stroke="black" points="880.5,-81.5 880.5,-143.5 1037.5,-143.5 1037.5,-81.5 880.5,-81.5"/>
<text text-anchor="start" x="888.5" y="-126.7" font-family="Source Sans Pro" font-size="16.00">Illumination&#45;Engine</text>
<text text-anchor="start" x="888.5" y="-108.7" font-family="Source Sans Pro" font-size="16.00">/src/GraphicsModule</text>
<text text-anchor="middle" x="959" y="-90.7" font-family="Source Sans Pro" font-size="16.00">/IECamera.cpp</text>
</a>
</g>
</g>
<!-- Node5&#45;&gt;Node10 -->
<g id="edge9" class="edge">
<title>Node5&#45;&gt;Node10</title>
<path fill="none" stroke="midnightblue" d="M1681.11,-209.31C1542.55,-205.9 1270.87,-192.93 1046,-144 1043.34,-143.42 1040.65,-142.79 1037.95,-142.1"/>
<polygon fill="midnightblue" stroke="midnightblue" points="1681.18,-212.81 1691.26,-209.55 1681.34,-205.82 1681.18,-212.81"/>
</g>
<!-- Node11 -->
<g id="node11" class="node">
<title>Node11</title>
<g id="a_node11"><a xlink:href="_i_e_image_8cpp.html" target="_top" xlink:title=" ">
<polygon fill="white" stroke="black" points="1055.5,-81.5 1055.5,-143.5 1212.5,-143.5 1212.5,-81.5 1055.5,-81.5"/>
<text text-anchor="start" x="1063.5" y="-126.7" font-family="Source Sans Pro" font-size="16.00">Illumination&#45;Engine</text>
<text text-anchor="start" x="1063.5" y="-108.7" font-family="Source Sans Pro" font-size="16.00">/src/GraphicsModule</text>
<text text-anchor="middle" x="1134" y="-90.7" font-family="Source Sans Pro" font-size="16.00">/Image/IEImage.cpp</text>
</a>
</g>
</g>
<!-- Node5&#45;&gt;Node11 -->
<g id="edge11" class="edge">
<title>Node5&#45;&gt;Node11</title>
<path fill="none" stroke="midnightblue" d="M1681.14,-205.59C1571.05,-198.26 1380.49,-181.12 1221,-144 1218.35,-143.38 1215.67,-142.71 1212.97,-142"/>
<polygon fill="midnightblue" stroke="midnightblue" points="1681,-209.09 1691.21,-206.25 1681.46,-202.1 1681,-209.09"/>
</g>
<!-- Node12 -->
<g id="node12" class="node">
<title>Node12</title>
<g id="a_node12"><a xlink:href="_i_e_texture_8cpp.html" target="_top" xlink:title=" ">
<polygon fill="white" stroke="black" points="1230.5,-81.5 1230.5,-143.5 1391.5,-143.5 1391.5,-81.5 1230.5,-81.5"/>
<text text-anchor="start" x="1238.5" y="-126.7" font-family="Source Sans Pro" font-size="16.00">Illumination&#45;Engine</text>
<text text-anchor="start" x="1238.5" y="-108.7" font-family="Source Sans Pro" font-size="16.00">/src/GraphicsModule</text>
<text text-anchor="middle" x="1311" y="-90.7" font-family="Source Sans Pro" font-size="16.00">/Image/IETexture.cpp</text>
</a>
</g>
</g>
<!-- Node5&#45;&gt;Node12 -->
<g id="edge12" class="edge">
<title>Node5&#45;&gt;Node12</title>
<path fill="none" stroke="midnightblue" d="M1681.31,-198.12C1605.69,-186.87 1495.46,-168.33 1401,-144 1397.96,-143.22 1394.88,-142.38 1391.78,-141.51"/>
<polygon fill="midnightblue" stroke="midnightblue" points="1680.88,-201.59 1691.28,-199.59 1681.9,-194.66 1680.88,-201.59"/>
</g>
<!-- Node13 -->
<g id="node13" class="node">
<title>Node13</title>
<g id="a_node13"><a xlink:href="_i_e_framebuffer_8cpp.html" target="_top" xlink:title=" ">
<polygon fill="white" stroke="black" points="1410,-81.5 1410,-143.5 1640,-143.5 1640,-81.5 1410,-81.5"/>
<text text-anchor="start" x="1418" y="-126.7" font-family="Source Sans Pro" font-size="16.00">Illumination&#45;Engine</text>
<text text-anchor="start" x="1418" y="-108.7" font-family="Source Sans Pro" font-size="16.00">/src/GraphicsModule</text>
<text text-anchor="middle" x="1525" y="-90.7" font-family="Source Sans Pro" font-size="16.00">/RenderPass/IEFramebuffer.cpp</text>
</a>
</g>
</g>
<!-- Node5&#45;&gt;Node13 -->
<g id="edge13" class="edge">
<title>Node5&#45;&gt;Node13</title>
<path fill="none" stroke="midnightblue" d="M1685.95,-176.71C1658.47,-165.92 1628.27,-154.06 1601.52,-143.55"/>
<polygon fill="midnightblue" stroke="midnightblue" points="1684.95,-180.08 1695.54,-180.47 1687.51,-173.56 1684.95,-180.08"/>
</g>
<!-- Node14 -->
<g id="node14" class="node">
<title>Node14</title>
<g id="a_node14"><a xlink:href="_i_e_render_pass_8cpp.html" target="_top" xlink:title=" ">
<polygon fill="white" stroke="black" points="1658.5,-81.5 1658.5,-143.5 1885.5,-143.5 1885.5,-81.5 1658.5,-81.5"/>
<text text-anchor="start" x="1666.5" y="-126.7" font-family="Source Sans Pro" font-size="16.00">Illumination&#45;Engine</text>
<text text-anchor="start" x="1666.5" y="-108.7" font-family="Source Sans Pro" font-size="16.00">/src/GraphicsModule</text>
<text text-anchor="middle" x="1772" y="-90.7" font-family="Source Sans Pro" font-size="16.00">/RenderPass/IERenderPass.cpp</text>
</a>
</g>
</g>
<!-- Node5&#45;&gt;Node14 -->
<g id="edge14" class="edge">
<title>Node5&#45;&gt;Node14</title>
<path fill="none" stroke="midnightblue" d="M1772,-170.17C1772,-161.29 1772,-152.03 1772,-143.64"/>
<polygon fill="midnightblue" stroke="midnightblue" points="1768.5,-170.34 1772,-180.34 1775.5,-170.34 1768.5,-170.34"/>
</g>
<!-- Node15 -->
<g id="node15" class="node">
<title>Node15</title>
<g id="a_node15"><a xlink:href="_i_e_material_8cpp.html" target="_top" xlink:title=" ">
<polygon fill="white" stroke="black" points="1903.5,-81.5 1903.5,-143.5 2104.5,-143.5 2104.5,-81.5 1903.5,-81.5"/>
<text text-anchor="start" x="1911.5" y="-126.7" font-family="Source Sans Pro" font-size="16.00">Illumination&#45;Engine</text>
<text text-anchor="start" x="1911.5" y="-108.7" font-family="Source Sans Pro" font-size="16.00">/src/GraphicsModule</text>
<text text-anchor="middle" x="2004" y="-90.7" font-family="Source Sans Pro" font-size="16.00">/Renderable/IEMaterial.cpp</text>
</a>
</g>
</g>
<!-- Node5&#45;&gt;Node15 -->
<g id="edge15" class="edge">
<title>Node5&#45;&gt;Node15</title>
<path fill="none" stroke="midnightblue" d="M1853.17,-176.56C1878.88,-165.81 1907.11,-154.01 1932.12,-143.55"/>
<polygon fill="midnightblue" stroke="midnightblue" points="1851.69,-173.39 1843.82,-180.47 1854.39,-179.84 1851.69,-173.39"/>
</g>
<!-- Node16 -->
<g id="node16" class="node">
<title>Node16</title>
<g id="a_node16"><a xlink:href="_i_e_mesh_8cpp.html" target="_top" xlink:title=" ">
<polygon fill="white" stroke="black" points="2122.5,-81.5 2122.5,-143.5 2305.5,-143.5 2305.5,-81.5 2122.5,-81.5"/>
<text text-anchor="start" x="2130.5" y="-126.7" font-family="Source Sans Pro" font-size="16.00">Illumination&#45;Engine</text>
<text text-anchor="start" x="2130.5" y="-108.7" font-family="Source Sans Pro" font-size="16.00">/src/GraphicsModule</text>
<text text-anchor="middle" x="2214" y="-90.7" font-family="Source Sans Pro" font-size="16.00">/Renderable/IEMesh.cpp</text>
</a>
</g>
</g>
<!-- Node5&#45;&gt;Node16 -->
<g id="edge16" class="edge">
<title>Node5&#45;&gt;Node16</title>
<path fill="none" stroke="midnightblue" d="M1862.68,-195.52C1931.94,-183.44 2029.53,-165.03 2114,-144 2116.73,-143.32 2119.5,-142.61 2122.28,-141.88"/>
<polygon fill="midnightblue" stroke="midnightblue" points="1861.93,-192.1 1852.68,-197.25 1863.13,-198.99 1861.93,-192.1"/>
</g>
<!-- Node17 -->
<g id="node17" class="node">
<title>Node17</title>
<g id="a_node17"><a xlink:href="_i_e_renderable_8cpp.html" target="_top" xlink:title=" ">
<polygon fill="white" stroke="black" points="2323.5,-81.5 2323.5,-143.5 2548.5,-143.5 2548.5,-81.5 2323.5,-81.5"/>
<text text-anchor="start" x="2331.5" y="-126.7" font-family="Source Sans Pro" font-size="16.00">Illumination&#45;Engine</text>
<text text-anchor="start" x="2331.5" y="-108.7" font-family="Source Sans Pro" font-size="16.00">/src/GraphicsModule</text>
<text text-anchor="middle" x="2436" y="-90.7" font-family="Source Sans Pro" font-size="16.00">/Renderable/IERenderable.cpp</text>
</a>
</g>
</g>
<!-- Node5&#45;&gt;Node17 -->
<g id="edge17" class="edge">
<title>Node5&#45;&gt;Node17</title>
<path fill="none" stroke="midnightblue" d="M1862.75,-202.88C1971.01,-192.99 2157.17,-173.44 2315,-144 2317.77,-143.48 2320.57,-142.94 2323.39,-142.38"/>
<polygon fill="midnightblue" stroke="midnightblue" points="1862.17,-199.42 1852.52,-203.81 1862.8,-206.39 1862.17,-199.42"/>
</g>
<!-- Node18 -->
<g id="node18" class="node">
<title>Node18</title>
<g id="a_node18"><a xlink:href="_i_e_descriptor_set_8cpp.html" target="_top" xlink:title=" ">
<polygon fill="white" stroke="black" points="2566.5,-81.5 2566.5,-143.5 2773.5,-143.5 2773.5,-81.5 2566.5,-81.5"/>
<text text-anchor="start" x="2574.5" y="-126.7" font-family="Source Sans Pro" font-size="16.00">Illumination&#45;Engine</text>
<text text-anchor="start" x="2574.5" y="-108.7" font-family="Source Sans Pro" font-size="16.00">/src/GraphicsModule</text>
<text text-anchor="middle" x="2670" y="-90.7" font-family="Source Sans Pro" font-size="16.00">/Shader/IEDescriptorSet.cpp</text>
</a>
</g>
</g>
<!-- Node5&#45;&gt;Node18 -->
<g id="edge18" class="edge">
<title>Node5&#45;&gt;Node18</title>
<path fill="none" stroke="midnightblue" d="M1863.01,-208.15C2010.14,-203.16 2308.94,-188.07 2558,-144 2560.78,-143.51 2563.59,-142.98 2566.42,-142.42"/>
<polygon fill="midnightblue" stroke="midnightblue" points="1862.56,-204.67 1852.68,-208.5 1862.79,-211.66 1862.56,-204.67"/>
</g>
<!-- Node19 -->
<g id="node19" class="node">
<title>Node19</title>
<g id="a_node19"><a xlink:href="_i_e_pipeline_8cpp.html" target="_top" xlink:title=" ">
<polygon fill="white" stroke="black" points="2792,-81.5 2792,-143.5 2964,-143.5 2964,-81.5 2792,-81.5"/>
<text text-anchor="start" x="2800" y="-126.7" font-family="Source Sans Pro" font-size="16.00">Illumination&#45;Engine</text>
<text text-anchor="start" x="2800" y="-108.7" font-family="Source Sans Pro" font-size="16.00">/src/GraphicsModule</text>
<text text-anchor="middle" x="2878" y="-90.7" font-family="Source Sans Pro" font-size="16.00">/Shader/IEPipeline.cpp</text>
</a>
</g>
</g>
<!-- Node5&#45;&gt;Node19 -->
<g id="edge19" class="edge">
<title>Node5&#45;&gt;Node19</title>
<path fill="none" stroke="midnightblue" d="M1862.9,-207.37C2076.98,-199.55 2608,-177.32 2783,-144 2785.89,-143.45 2788.82,-142.84 2791.77,-142.17"/>
<polygon fill="midnightblue" stroke="midnightblue" points="1862.51,-203.88 1852.64,-207.75 1862.76,-210.88 1862.51,-203.88"/>
</g>
<!-- Node20 -->
<g id="node20" class="node">
<title>Node20</title>
<g id="a_node20"><a xlink:href="_i_e_shader_8cpp.html" target="_top" xlink:title=" ">
<polygon fill="white" stroke="black" points="2982,-81.5 2982,-143.5 3146,-143.5 3146,-81.5 2982,-81.5"/>
<text text-anchor="start" x="2990" y="-126.7" font-family="Source Sans Pro" font-size="16.00">Illumination&#45;Engine</text>
<text text-anchor="start" x="2990" y="-108.7" font-family="Source Sans Pro" font-size="16.00">/src/GraphicsModule</text>
<text text-anchor="middle" x="3064" y="-90.7" font-family="Source Sans Pro" font-size="16.00">/Shader/IEShader.cpp</text>
</a>
</g>
</g>
<!-- Node5&#45;&gt;Node20 -->
<g id="edge20" class="edge">
<title>Node5&#45;&gt;Node20</title>
<path fill="none" stroke="midnightblue" d="M1862.87,-208.62C2104.77,-203.1 2760.45,-184.74 2973,-144 2975.95,-143.44 2978.93,-142.8 2981.92,-142.11"/>
<polygon fill="midnightblue" stroke="midnightblue" points="1862.62,-205.12 1852.7,-208.85 1862.78,-212.12 1862.62,-205.12"/>
</g>
</g>
</svg>
