<?xml version="1.0" encoding="UTF-8" standalone="no"?>
<!DOCTYPE svg PUBLIC "-//W3C//DTD SVG 1.1//EN"
 "http://www.w3.org/Graphics/SVG/1.1/DTD/svg11.dtd">
<!-- Generated by graphviz version 2.43.0 (0)
 -->
<!-- Title: Illumination&#45;Engine/src/GraphicsModule/Image/IEImage.hpp Pages: 1 -->
<svg width="3583pt" height="737pt"
 viewBox="0.00 0.00 3583.00 737.00" xmlns="http://www.w3.org/2000/svg" xmlns:xlink="http://www.w3.org/1999/xlink">
<g id="graph0" class="graph" transform="scale(1 1) rotate(0) translate(4 733)">
<title>Illumination&#45;Engine/src/GraphicsModule/Image/IEImage.hpp</title>
<polygon fill="white" stroke="transparent" points="-4,4 -4,-733 3579,-733 3579,4 -4,4"/>
<!-- Node1 -->
<g id="node1" class="node">
<title>Node1</title>
<g id="a_node1"><a xlink:title=" ">
<polygon fill="#bfbfbf" stroke="black" points="1104,-666.5 1104,-728.5 1261,-728.5 1261,-666.5 1104,-666.5"/>
<text text-anchor="start" x="1112" y="-711.7" font-family="Source Sans Pro" font-size="16.00">Illumination&#45;Engine</text>
<text text-anchor="start" x="1112" y="-693.7" font-family="Source Sans Pro" font-size="16.00">/src/GraphicsModule</text>
<text text-anchor="middle" x="1182.5" y="-675.7" font-family="Source Sans Pro" font-size="16.00">/Image/IEImage.hpp</text>
</a>
</g>
</g>
<!-- Node2 -->
<g id="node2" class="node">
<title>Node2</title>
<g id="a_node2"><a xlink:href="_i_e_copy_buffer_to_image_info_8hpp.html" target="_top" xlink:title=" ">
<polygon fill="white" stroke="black" points="674.5,-549.5 674.5,-629.5 946.5,-629.5 946.5,-549.5 674.5,-549.5"/>
<text text-anchor="start" x="682.5" y="-612.7" font-family="Source Sans Pro" font-size="16.00">Illumination&#45;Engine</text>
<text text-anchor="start" x="682.5" y="-594.7" font-family="Source Sans Pro" font-size="16.00">/src/GraphicsModule</text>
<text text-anchor="start" x="682.5" y="-576.7" font-family="Source Sans Pro" font-size="16.00">/CommandBuffer/DependencyStructs</text>
<text text-anchor="middle" x="810.5" y="-558.7" font-family="Source Sans Pro" font-size="16.00">/IECopyBufferToImageInfo.hpp</text>
</a>
</g>
</g>
<!-- Node1&#45;&gt;Node2 -->
<g id="edge1" class="edge">
<title>Node1&#45;&gt;Node2</title>
<path fill="none" stroke="midnightblue" d="M1093.82,-671.23C1049.87,-658.71 995.84,-643.31 946.78,-629.33"/>
<polygon fill="midnightblue" stroke="midnightblue" points="1093.03,-674.65 1103.61,-674.02 1094.95,-667.91 1093.03,-674.65"/>
</g>
<!-- Node4 -->
<g id="node4" class="node">
<title>Node4</title>
<g id="a_node4"><a xlink:href="_i_e_command_buffer_8hpp.html" target="_top" xlink:title=" ">
<polygon fill="white" stroke="black" points="1087,-324.5 1087,-386.5 1382,-386.5 1382,-324.5 1087,-324.5"/>
<text text-anchor="start" x="1095" y="-369.7" font-family="Source Sans Pro" font-size="16.00">Illumination&#45;Engine</text>
<text text-anchor="start" x="1095" y="-351.7" font-family="Source Sans Pro" font-size="16.00">/src/GraphicsModule</text>
<text text-anchor="middle" x="1234.5" y="-333.7" font-family="Source Sans Pro" font-size="16.00">/CommandBuffer/IECommandBuffer.hpp</text>
</a>
</g>
</g>
<!-- Node1&#45;&gt;Node4 -->
<g id="edge36" class="edge">
<title>Node1&#45;&gt;Node4</title>
<path fill="none" stroke="midnightblue" d="M1227.28,-658.74C1234.72,-650.12 1241.35,-640.41 1245.5,-630 1278.57,-547.01 1257.14,-438.41 1243.42,-386.57"/>
<polygon fill="midnightblue" stroke="midnightblue" points="1224.48,-656.61 1220.27,-666.33 1229.63,-661.35 1224.48,-656.61"/>
</g>
<!-- Node13 -->
<g id="node13" class="node">
<title>Node13</title>
<g id="a_node13"><a xlink:href="_i_e_image_8cpp.html" target="_top" xlink:title=" ">
<polygon fill="white" stroke="black" points="0,-0.5 0,-62.5 157,-62.5 157,-0.5 0,-0.5"/>
<text text-anchor="start" x="8" y="-45.7" font-family="Source Sans Pro" font-size="16.00">Illumination&#45;Engine</text>
<text text-anchor="start" x="8" y="-27.7" font-family="Source Sans Pro" font-size="16.00">/src/GraphicsModule</text>
<text text-anchor="middle" x="78.5" y="-9.7" font-family="Source Sans Pro" font-size="16.00">/Image/IEImage.cpp</text>
</a>
</g>
</g>
<!-- Node1&#45;&gt;Node13 -->
<g id="edge38" class="edge">
<title>Node1&#45;&gt;Node13</title>
<path fill="none" stroke="midnightblue" d="M1093.93,-696.05C908.23,-694.04 484.3,-683.53 351.5,-630 249.71,-588.97 160.5,-583.25 160.5,-473.5 160.5,-473.5 160.5,-473.5 160.5,-246.5 160.5,-177.07 122.4,-102.86 98.14,-62.65"/>
<polygon fill="midnightblue" stroke="midnightblue" points="1093.9,-699.55 1103.94,-696.15 1093.97,-692.55 1093.9,-699.55"/>
</g>
<!-- Node20 -->
<g id="node20" class="node">
<title>Node20</title>
<g id="a_node20"><a xlink:href="_i_e_descriptor_set_8cpp.html" target="_top" xlink:title=" ">
<polygon fill="white" stroke="black" points="175,-0.5 175,-62.5 382,-62.5 382,-0.5 175,-0.5"/>
<text text-anchor="start" x="183" y="-45.7" font-family="Source Sans Pro" font-size="16.00">Illumination&#45;Engine</text>
<text text-anchor="start" x="183" y="-27.7" font-family="Source Sans Pro" font-size="16.00">/src/GraphicsModule</text>
<text text-anchor="middle" x="278.5" y="-9.7" font-family="Source Sans Pro" font-size="16.00">/Shader/IEDescriptorSet.cpp</text>
</a>
</g>
</g>
<!-- Node1&#45;&gt;Node20 -->
<g id="edge63" class="edge">
<title>Node1&#45;&gt;Node20</title>
<path fill="none" stroke="midnightblue" d="M1093.57,-693.01C868.59,-681.78 294.5,-637.09 294.5,-473.5 294.5,-473.5 294.5,-473.5 294.5,-246.5 294.5,-180.74 286.89,-103.93 282.17,-62.57"/>
<polygon fill="midnightblue" stroke="midnightblue" points="1093.54,-696.51 1103.7,-693.51 1093.88,-689.52 1093.54,-696.51"/>
</g>
<!-- Node26 -->
<g id="node26" class="node">
<title>Node26</title>
<g id="a_node26"><a xlink:href="_i_e_dependency_8cpp.html" target="_top" xlink:title=" ">
<polygon fill="white" stroke="black" points="1927.5,-108.5 1927.5,-170.5 2193.5,-170.5 2193.5,-108.5 1927.5,-108.5"/>
<text text-anchor="start" x="1935.5" y="-153.7" font-family="Source Sans Pro" font-size="16.00">Illumination&#45;Engine</text>
<text text-anchor="start" x="1935.5" y="-135.7" font-family="Source Sans Pro" font-size="16.00">/src/GraphicsModule</text>
<text text-anchor="middle" x="2060.5" y="-117.7" font-family="Source Sans Pro" font-size="16.00">/CommandBuffer/IEDependency.cpp</text>
</a>
</g>
</g>
<!-- Node1&#45;&gt;Node26 -->
<g id="edge37" class="edge">
<title>Node1&#45;&gt;Node26</title>
<path fill="none" stroke="midnightblue" d="M1271.32,-689.82C1380,-680.45 1556.7,-661 1614.5,-630 1827.77,-515.61 1991.86,-258.38 2043.45,-170.55"/>
<polygon fill="midnightblue" stroke="midnightblue" points="1271.01,-686.34 1261.35,-690.67 1271.61,-693.31 1271.01,-686.34"/>
</g>
<!-- Node27 -->
<g id="node27" class="node">
<title>Node27</title>
<g id="a_node27"><a xlink:href="_i_e_image_memory_barrier_8hpp.html" target="_top" xlink:title=" ">
<polygon fill="white" stroke="black" points="964.5,-549.5 964.5,-629.5 1236.5,-629.5 1236.5,-549.5 964.5,-549.5"/>
<text text-anchor="start" x="972.5" y="-612.7" font-family="Source Sans Pro" font-size="16.00">Illumination&#45;Engine</text>
<text text-anchor="start" x="972.5" y="-594.7" font-family="Source Sans Pro" font-size="16.00">/src/GraphicsModule</text>
<text text-anchor="start" x="972.5" y="-576.7" font-family="Source Sans Pro" font-size="16.00">/CommandBuffer/DependencyStructs</text>
<text text-anchor="middle" x="1100.5" y="-558.7" font-family="Source Sans Pro" font-size="16.00">/IEImageMemoryBarrier.hpp</text>
</a>
</g>
</g>
<!-- Node1&#45;&gt;Node27 -->
<g id="edge31" class="edge">
<title>Node1&#45;&gt;Node27</title>
<path fill="none" stroke="midnightblue" d="M1153.05,-658.43C1145.85,-649.13 1138.13,-639.15 1130.89,-629.79"/>
<polygon fill="midnightblue" stroke="midnightblue" points="1150.33,-660.64 1159.22,-666.41 1155.87,-656.36 1150.33,-660.64"/>
</g>
<!-- Node31 -->
<g id="node31" class="node">
<title>Node31</title>
<g id="a_node31"><a xlink:href="_i_e_texture_8hpp.html" target="_top" xlink:title=" ">
<polygon fill="white" stroke="black" points="1443.5,-558.5 1443.5,-620.5 1605.5,-620.5 1605.5,-558.5 1443.5,-558.5"/>
<text text-anchor="start" x="1451.5" y="-603.7" font-family="Source Sans Pro" font-size="16.00">Illumination&#45;Engine</text>
<text text-anchor="start" x="1451.5" y="-585.7" font-family="Source Sans Pro" font-size="16.00">/src/GraphicsModule</text>
<text text-anchor="middle" x="1524.5" y="-567.7" font-family="Source Sans Pro" font-size="16.00">/Image/IETexture.hpp</text>
</a>
</g>
</g>
<!-- Node1&#45;&gt;Node31 -->
<g id="edge39" class="edge">
<title>Node1&#45;&gt;Node31</title>
<path fill="none" stroke="midnightblue" d="M1271.16,-669.02C1324.36,-652.53 1391.53,-631.71 1443.33,-615.66"/>
<polygon fill="midnightblue" stroke="midnightblue" points="1269.91,-665.74 1261.39,-672.05 1271.98,-672.43 1269.91,-665.74"/>
</g>
<!-- Node35 -->
<g id="node35" class="node">
<title>Node35</title>
<g id="a_node35"><a xlink:href="_i_e_framebuffer_8hpp.html" target="_top" xlink:title=" ">
<polygon fill="white" stroke="black" points="2319.5,-558.5 2319.5,-620.5 2551.5,-620.5 2551.5,-558.5 2319.5,-558.5"/>
<text text-anchor="start" x="2327.5" y="-603.7" font-family="Source Sans Pro" font-size="16.00">Illumination&#45;Engine</text>
<text text-anchor="start" x="2327.5" y="-585.7" font-family="Source Sans Pro" font-size="16.00">/src/GraphicsModule</text>
<text text-anchor="middle" x="2435.5" y="-567.7" font-family="Source Sans Pro" font-size="16.00">/RenderPass/IEFramebuffer.hpp</text>
</a>
</g>
</g>
<!-- Node1&#45;&gt;Node35 -->
<g id="edge54" class="edge">
<title>Node1&#45;&gt;Node35</title>
<path fill="none" stroke="midnightblue" d="M1271.24,-690.5C1428.69,-679.67 1767.2,-655.61 2052.5,-630 2142.05,-621.96 2243.22,-611.47 2319.09,-603.31"/>
<polygon fill="midnightblue" stroke="midnightblue" points="1270.87,-687.01 1261.14,-691.19 1271.35,-694 1270.87,-687.01"/>
</g>
<!-- Node3 -->
<g id="node3" class="node">
<title>Node3</title>
<g id="a_node3"><a xlink:href="_i_e_copy_buffer_to_image_info_8cpp.html" target="_top" xlink:title=" ">
<polygon fill="white" stroke="black" points="346.5,-432.5 346.5,-512.5 618.5,-512.5 618.5,-432.5 346.5,-432.5"/>
<text text-anchor="start" x="354.5" y="-495.7" font-family="Source Sans Pro" font-size="16.00">Illumination&#45;Engine</text>
<text text-anchor="start" x="354.5" y="-477.7" font-family="Source Sans Pro" font-size="16.00">/src/GraphicsModule</text>
<text text-anchor="start" x="354.5" y="-459.7" font-family="Source Sans Pro" font-size="16.00">/CommandBuffer/DependencyStructs</text>
<text text-anchor="middle" x="482.5" y="-441.7" font-family="Source Sans Pro" font-size="16.00">/IECopyBufferToImageInfo.cpp</text>
</a>
</g>
</g>
<!-- Node2&#45;&gt;Node3 -->
<g id="edge2" class="edge">
<title>Node2&#45;&gt;Node3</title>
<path fill="none" stroke="midnightblue" d="M689.38,-546.03C658.15,-535.08 624.69,-523.35 593.97,-512.58"/>
<polygon fill="midnightblue" stroke="midnightblue" points="688.4,-549.4 699,-549.41 690.72,-542.79 688.4,-549.4"/>
</g>
<!-- Node2&#45;&gt;Node4 -->
<g id="edge3" class="edge">
<title>Node2&#45;&gt;Node4</title>
<path fill="none" stroke="midnightblue" d="M885.36,-543.35C897.02,-534.25 908.25,-524.04 917.5,-513 943.04,-482.52 925.04,-457.56 955.5,-432 967.8,-421.68 1037.55,-402.8 1104.22,-386.51"/>
<polygon fill="midnightblue" stroke="midnightblue" points="883.11,-540.66 877.23,-549.47 887.33,-546.25 883.11,-540.66"/>
</g>
<!-- Node5 -->
<g id="node5" class="node">
<title>Node5</title>
<g id="a_node5"><a xlink:href="_i_e_command_buffer_8cpp.html" target="_top" xlink:title=" ">
<polygon fill="white" stroke="black" points="1063,-0.5 1063,-62.5 1356,-62.5 1356,-0.5 1063,-0.5"/>
<text text-anchor="start" x="1071" y="-45.7" font-family="Source Sans Pro" font-size="16.00">Illumination&#45;Engine</text>
<text text-anchor="start" x="1071" y="-27.7" font-family="Source Sans Pro" font-size="16.00">/src/GraphicsModule</text>
<text text-anchor="middle" x="1209.5" y="-9.7" font-family="Source Sans Pro" font-size="16.00">/CommandBuffer/IECommandBuffer.cpp</text>
</a>
</g>
</g>
<!-- Node4&#45;&gt;Node5 -->
<g id="edge4" class="edge">
<title>Node4&#45;&gt;Node5</title>
<path fill="none" stroke="midnightblue" d="M1231.37,-314.16C1226.28,-248.67 1216.35,-120.7 1211.83,-62.54"/>
<polygon fill="midnightblue" stroke="midnightblue" points="1227.91,-314.8 1232.17,-324.5 1234.89,-314.26 1227.91,-314.8"/>
</g>
<!-- Node6 -->
<g id="node6" class="node">
<title>Node6</title>
<g id="a_node6"><a xlink:href="_i_e_command_pool_8hpp.html" target="_top" xlink:title=" ">
<polygon fill="white" stroke="black" points="1542,-216.5 1542,-278.5 1827,-278.5 1827,-216.5 1542,-216.5"/>
<text text-anchor="start" x="1550" y="-261.7" font-family="Source Sans Pro" font-size="16.00">Illumination&#45;Engine</text>
<text text-anchor="start" x="1550" y="-243.7" font-family="Source Sans Pro" font-size="16.00">/src/GraphicsModule</text>
<text text-anchor="middle" x="1684.5" y="-225.7" font-family="Source Sans Pro" font-size="16.00">/CommandBuffer/IECommandPool.hpp</text>
</a>
</g>
</g>
<!-- Node4&#45;&gt;Node6 -->
<g id="edge5" class="edge">
<title>Node4&#45;&gt;Node6</title>
<path fill="none" stroke="midnightblue" d="M1371.71,-322.18C1430.68,-308.29 1499.2,-292.15 1557.05,-278.52"/>
<polygon fill="midnightblue" stroke="midnightblue" points="1370.88,-318.78 1361.95,-324.48 1372.48,-325.59 1370.88,-318.78"/>
</g>
<!-- Node24 -->
<g id="node24" class="node">
<title>Node24</title>
<g id="a_node24"><a xlink:href="_i_e_render_pass_8hpp.html" target="_top" xlink:title=" ">
<polygon fill="white" stroke="black" points="2107.5,-216.5 2107.5,-278.5 2335.5,-278.5 2335.5,-216.5 2107.5,-216.5"/>
<text text-anchor="start" x="2115.5" y="-261.7" font-family="Source Sans Pro" font-size="16.00">Illumination&#45;Engine</text>
<text text-anchor="start" x="2115.5" y="-243.7" font-family="Source Sans Pro" font-size="16.00">/src/GraphicsModule</text>
<text text-anchor="middle" x="2221.5" y="-225.7" font-family="Source Sans Pro" font-size="16.00">/RenderPass/IERenderPass.hpp</text>
</a>
</g>
</g>
<!-- Node4&#45;&gt;Node24 -->
<g id="edge25" class="edge">
<title>Node4&#45;&gt;Node24</title>
<path fill="none" stroke="midnightblue" d="M1392.26,-337.56C1591.93,-316.11 1931.05,-279.69 2107.38,-260.76"/>
<polygon fill="midnightblue" stroke="midnightblue" points="1391.83,-334.08 1382.26,-338.63 1392.58,-341.04 1391.83,-334.08"/>
</g>
<!-- Node7 -->
<g id="node7" class="node">
<title>Node7</title>
<g id="a_node7"><a xlink:href="_i_e_command_pool_8cpp.html" target="_top" xlink:title=" ">
<polygon fill="white" stroke="black" points="1551.5,-0.5 1551.5,-62.5 1835.5,-62.5 1835.5,-0.5 1551.5,-0.5"/>
<text text-anchor="start" x="1559.5" y="-45.7" font-family="Source Sans Pro" font-size="16.00">Illumination&#45;Engine</text>
<text text-anchor="start" x="1559.5" y="-27.7" font-family="Source Sans Pro" font-size="16.00">/src/GraphicsModule</text>
<text text-anchor="middle" x="1693.5" y="-9.7" font-family="Source Sans Pro" font-size="16.00">/CommandBuffer/IECommandPool.cpp</text>
</a>
</g>
</g>
<!-- Node6&#45;&gt;Node7 -->
<g id="edge6" class="edge">
<title>Node6&#45;&gt;Node7</title>
<path fill="none" stroke="midnightblue" d="M1686.2,-206.19C1687.95,-164.41 1690.66,-100.08 1692.24,-62.55"/>
<polygon fill="midnightblue" stroke="midnightblue" points="1682.69,-206.15 1685.77,-216.29 1689.69,-206.45 1682.69,-206.15"/>
</g>
<!-- Node8 -->
<g id="node8" class="node">
<title>Node8</title>
<g id="a_node8"><a xlink:href="_i_e_render_engine_8hpp.html" target="_top" xlink:title=" ">
<polygon fill="white" stroke="black" points="1748,-108.5 1748,-170.5 1909,-170.5 1909,-108.5 1748,-108.5"/>
<text text-anchor="start" x="1756" y="-153.7" font-family="Source Sans Pro" font-size="16.00">Illumination&#45;Engine</text>
<text text-anchor="start" x="1756" y="-135.7" font-family="Source Sans Pro" font-size="16.00">/src/GraphicsModule</text>
<text text-anchor="middle" x="1828.5" y="-117.7" font-family="Source Sans Pro" font-size="16.00">/IERenderEngine.hpp</text>
</a>
</g>
</g>
<!-- Node6&#45;&gt;Node8 -->
<g id="edge7" class="edge">
<title>Node6&#45;&gt;Node8</title>
<path fill="none" stroke="midnightblue" d="M1733.79,-210.22C1751.29,-197.33 1770.79,-182.98 1787.52,-170.67"/>
<polygon fill="midnightblue" stroke="midnightblue" points="1731.36,-207.66 1725.38,-216.41 1735.51,-213.3 1731.36,-207.66"/>
</g>
<!-- Node8&#45;&gt;Node5 -->
<g id="edge9" class="edge">
<title>Node8&#45;&gt;Node5</title>
<path fill="none" stroke="midnightblue" d="M1737.67,-124.55C1644.21,-110 1494.48,-86.12 1365.5,-63 1362.38,-62.44 1359.22,-61.87 1356.04,-61.29"/>
<polygon fill="midnightblue" stroke="midnightblue" points="1737.24,-128.03 1747.66,-126.11 1738.31,-121.11 1737.24,-128.03"/>
</g>
<!-- Node8&#45;&gt;Node7 -->
<g id="edge10" class="edge">
<title>Node8&#45;&gt;Node7</title>
<path fill="none" stroke="midnightblue" d="M1782.29,-102.22C1765.88,-89.33 1747.61,-74.98 1731.92,-62.67"/>
<polygon fill="midnightblue" stroke="midnightblue" points="1780.15,-104.99 1790.18,-108.41 1784.47,-99.48 1780.15,-104.99"/>
</g>
<!-- Node9 -->
<g id="node9" class="node">
<title>Node9</title>
<g id="a_node9"><a xlink:href="_i_e_buffer_8cpp.html" target="_top" xlink:title=" ">
<polygon fill="white" stroke="black" points="2745,-0.5 2745,-62.5 2902,-62.5 2902,-0.5 2745,-0.5"/>
<text text-anchor="start" x="2753" y="-45.7" font-family="Source Sans Pro" font-size="16.00">Illumination&#45;Engine</text>
<text text-anchor="start" x="2753" y="-27.7" font-family="Source Sans Pro" font-size="16.00">/src/GraphicsModule</text>
<text text-anchor="middle" x="2823.5" y="-9.7" font-family="Source Sans Pro" font-size="16.00">/Buffer/IEBuffer.cpp</text>
</a>
</g>
</g>
<!-- Node8&#45;&gt;Node9 -->
<g id="edge8" class="edge">
<title>Node8&#45;&gt;Node9</title>
<path fill="none" stroke="midnightblue" d="M1898.58,-104.84C1905.21,-102.54 1911.91,-100.53 1918.5,-99 2272.49,-16.56 2378.5,-131.23 2735.5,-63 2738.52,-62.42 2741.57,-61.76 2744.64,-61.04"/>
<polygon fill="midnightblue" stroke="midnightblue" points="1897.12,-101.64 1888.94,-108.38 1899.54,-108.21 1897.12,-101.64"/>
</g>
<!-- Node10 -->
<g id="node10" class="node">
<title>Node10</title>
<g id="a_node10"><a xlink:href="_i_e_a_p_i_8cpp.html" target="_top" xlink:title=" ">
<polygon fill="white" stroke="black" points="1854,-0.5 1854,-62.5 2011,-62.5 2011,-0.5 1854,-0.5"/>
<text text-anchor="start" x="1862" y="-45.7" font-family="Source Sans Pro" font-size="16.00">Illumination&#45;Engine</text>
<text text-anchor="start" x="1862" y="-27.7" font-family="Source Sans Pro" font-size="16.00">/src/GraphicsModule</text>
<text text-anchor="middle" x="1932.5" y="-9.7" font-family="Source Sans Pro" font-size="16.00">/IEAPI.cpp</text>
</a>
</g>
</g>
<!-- Node8&#45;&gt;Node10 -->
<g id="edge11" class="edge">
<title>Node8&#45;&gt;Node10</title>
<path fill="none" stroke="midnightblue" d="M1865.14,-101.16C1877.5,-88.55 1891.15,-74.65 1902.9,-62.67"/>
<polygon fill="midnightblue" stroke="midnightblue" points="1862.53,-98.82 1858.02,-108.41 1867.53,-103.72 1862.53,-98.82"/>
</g>
<!-- Node11 -->
<g id="node11" class="node">
<title>Node11</title>
<g id="a_node11"><a xlink:href="_i_e_camera_8cpp.html" target="_top" xlink:title=" ">
<polygon fill="white" stroke="black" points="2029,-0.5 2029,-62.5 2186,-62.5 2186,-0.5 2029,-0.5"/>
<text text-anchor="start" x="2037" y="-45.7" font-family="Source Sans Pro" font-size="16.00">Illumination&#45;Engine</text>
<text text-anchor="start" x="2037" y="-27.7" font-family="Source Sans Pro" font-size="16.00">/src/GraphicsModule</text>
<text text-anchor="middle" x="2107.5" y="-9.7" font-family="Source Sans Pro" font-size="16.00">/IECamera.cpp</text>
</a>
</g>
</g>
<!-- Node8&#45;&gt;Node11 -->
<g id="edge12" class="edge">
<title>Node8&#45;&gt;Node11</title>
<path fill="none" stroke="midnightblue" d="M1904.98,-104.47C1909.54,-102.58 1914.07,-100.75 1918.5,-99 1921.35,-97.88 1978.19,-77.89 2028.8,-60.12"/>
<polygon fill="midnightblue" stroke="midnightblue" points="1903.47,-101.31 1895.6,-108.39 1906.17,-107.76 1903.47,-101.31"/>
</g>
<!-- Node12 -->
<g id="node12" class="node">
<title>Node12</title>
<g id="a_node12"><a xlink:href="_i_e_render_engine_8cpp.html" target="_top" xlink:title=" ">
<polygon fill="white" stroke="black" points="1374,-0.5 1374,-62.5 1533,-62.5 1533,-0.5 1374,-0.5"/>
<text text-anchor="start" x="1382" y="-45.7" font-family="Source Sans Pro" font-size="16.00">Illumination&#45;Engine</text>
<text text-anchor="start" x="1382" y="-27.7" font-family="Source Sans Pro" font-size="16.00">/src/GraphicsModule</text>
<text text-anchor="middle" x="1453.5" y="-9.7" font-family="Source Sans Pro" font-size="16.00">/IERenderEngine.cpp</text>
</a>
</g>
</g>
<!-- Node8&#45;&gt;Node12 -->
<g id="edge13" class="edge">
<title>Node8&#45;&gt;Node12</title>
<path fill="none" stroke="midnightblue" d="M1737.95,-116.37C1681.47,-102.13 1607.41,-82.66 1542.5,-63 1539.53,-62.1 1536.51,-61.17 1533.47,-60.21"/>
<polygon fill="midnightblue" stroke="midnightblue" points="1737.38,-119.84 1747.93,-118.88 1739.09,-113.05 1737.38,-119.84"/>
</g>
<!-- Node8&#45;&gt;Node13 -->
<g id="edge14" class="edge">
<title>Node8&#45;&gt;Node13</title>
<path fill="none" stroke="midnightblue" d="M1737.91,-137.86C1436.69,-135.18 470.6,-122.08 165.5,-63 162.83,-62.48 160.13,-61.9 157.42,-61.26"/>
<polygon fill="midnightblue" stroke="midnightblue" points="1737.88,-141.36 1747.91,-137.95 1737.94,-134.36 1737.88,-141.36"/>
</g>
<!-- Node14 -->
<g id="node14" class="node">
<title>Node14</title>
<g id="a_node14"><a xlink:href="_i_e_texture_8cpp.html" target="_top" xlink:title=" ">
<polygon fill="white" stroke="black" points="2920,-0.5 2920,-62.5 3081,-62.5 3081,-0.5 2920,-0.5"/>
<text text-anchor="start" x="2928" y="-45.7" font-family="Source Sans Pro" font-size="16.00">Illumination&#45;Engine</text>
<text text-anchor="start" x="2928" y="-27.7" font-family="Source Sans Pro" font-size="16.00">/src/GraphicsModule</text>
<text text-anchor="middle" x="3000.5" y="-9.7" font-family="Source Sans Pro" font-size="16.00">/Image/IETexture.cpp</text>
</a>
</g>
</g>
<!-- Node8&#45;&gt;Node14 -->
<g id="edge15" class="edge">
<title>Node8&#45;&gt;Node14</title>
<path fill="none" stroke="midnightblue" d="M1898.56,-104.78C1905.2,-102.5 1911.91,-100.51 1918.5,-99 2133.75,-49.76 2694.38,-103.23 2911.5,-63 2914.23,-62.49 2916.99,-61.92 2919.76,-61.29"/>
<polygon fill="midnightblue" stroke="midnightblue" points="1897.11,-101.59 1888.93,-108.32 1899.52,-108.16 1897.11,-101.59"/>
</g>
<!-- Node15 -->
<g id="node15" class="node">
<title>Node15</title>
<g id="a_node15"><a xlink:href="_i_e_framebuffer_8cpp.html" target="_top" xlink:title=" ">
<polygon fill="white" stroke="black" points="3099.5,-0.5 3099.5,-62.5 3329.5,-62.5 3329.5,-0.5 3099.5,-0.5"/>
<text text-anchor="start" x="3107.5" y="-45.7" font-family="Source Sans Pro" font-size="16.00">Illumination&#45;Engine</text>
<text text-anchor="start" x="3107.5" y="-27.7" font-family="Source Sans Pro" font-size="16.00">/src/GraphicsModule</text>
<text text-anchor="middle" x="3214.5" y="-9.7" font-family="Source Sans Pro" font-size="16.00">/RenderPass/IEFramebuffer.cpp</text>
</a>
</g>
</g>
<!-- Node8&#45;&gt;Node15 -->
<g id="edge16" class="edge">
<title>Node8&#45;&gt;Node15</title>
<path fill="none" stroke="midnightblue" d="M1898.22,-104.86C1904.96,-102.53 1911.79,-100.52 1918.5,-99 2172.66,-41.59 2832.34,-98.31 3090.5,-63 3093.47,-62.59 3096.46,-62.15 3099.48,-61.66"/>
<polygon fill="midnightblue" stroke="midnightblue" points="1896.6,-101.72 1888.42,-108.46 1899.02,-108.29 1896.6,-101.72"/>
</g>
<!-- Node16 -->
<g id="node16" class="node">
<title>Node16</title>
<g id="a_node16"><a xlink:href="_i_e_render_pass_8cpp.html" target="_top" xlink:title=" ">
<polygon fill="white" stroke="black" points="3348,-0.5 3348,-62.5 3575,-62.5 3575,-0.5 3348,-0.5"/>
<text text-anchor="start" x="3356" y="-45.7" font-family="Source Sans Pro" font-size="16.00">Illumination&#45;Engine</text>
<text text-anchor="start" x="3356" y="-27.7" font-family="Source Sans Pro" font-size="16.00">/src/GraphicsModule</text>
<text text-anchor="middle" x="3461.5" y="-9.7" font-family="Source Sans Pro" font-size="16.00">/RenderPass/IERenderPass.cpp</text>
</a>
</g>
</g>
<!-- Node8&#45;&gt;Node16 -->
<g id="edge17" class="edge">
<title>Node8&#45;&gt;Node16</title>
<path fill="none" stroke="midnightblue" d="M1898.21,-104.82C1904.96,-102.5 1911.79,-100.5 1918.5,-99 2226.59,-30.28 3025.68,-105.24 3338.5,-63 3341.55,-62.59 3344.64,-62.13 3347.75,-61.63"/>
<polygon fill="midnightblue" stroke="midnightblue" points="1896.6,-101.68 1888.41,-108.41 1899.01,-108.25 1896.6,-101.68"/>
</g>
<!-- Node17 -->
<g id="node17" class="node">
<title>Node17</title>
<g id="a_node17"><a xlink:href="_i_e_material_8cpp.html" target="_top" xlink:title=" ">
<polygon fill="white" stroke="black" points="400,-0.5 400,-62.5 601,-62.5 601,-0.5 400,-0.5"/>
<text text-anchor="start" x="408" y="-45.7" font-family="Source Sans Pro" font-size="16.00">Illumination&#45;Engine</text>
<text text-anchor="start" x="408" y="-27.7" font-family="Source Sans Pro" font-size="16.00">/src/GraphicsModule</text>
<text text-anchor="middle" x="500.5" y="-9.7" font-family="Source Sans Pro" font-size="16.00">/Renderable/IEMaterial.cpp</text>
</a>
</g>
</g>
<!-- Node8&#45;&gt;Node17 -->
<g id="edge18" class="edge">
<title>Node8&#45;&gt;Node17</title>
<path fill="none" stroke="midnightblue" d="M1737.68,-135.36C1493.47,-126.52 826.56,-99.67 609.5,-63 606.79,-62.54 604.05,-62.04 601.29,-61.51"/>
<polygon fill="midnightblue" stroke="midnightblue" points="1737.82,-138.87 1747.94,-135.73 1738.07,-131.87 1737.82,-138.87"/>
</g>
<!-- Node18 -->
<g id="node18" class="node">
<title>Node18</title>
<g id="a_node18"><a xlink:href="_i_e_mesh_8cpp.html" target="_top" xlink:title=" ">
<polygon fill="white" stroke="black" points="619,-0.5 619,-62.5 802,-62.5 802,-0.5 619,-0.5"/>
<text text-anchor="start" x="627" y="-45.7" font-family="Source Sans Pro" font-size="16.00">Illumination&#45;Engine</text>
<text text-anchor="start" x="627" y="-27.7" font-family="Source Sans Pro" font-size="16.00">/src/GraphicsModule</text>
<text text-anchor="middle" x="710.5" y="-9.7" font-family="Source Sans Pro" font-size="16.00">/Renderable/IEMesh.cpp</text>
</a>
</g>
</g>
<!-- Node8&#45;&gt;Node18 -->
<g id="edge19" class="edge">
<title>Node8&#45;&gt;Node18</title>
<path fill="none" stroke="midnightblue" d="M1737.71,-138.49C1558.74,-137 1148.41,-126.25 810.5,-63 807.73,-62.48 804.94,-61.92 802.12,-61.31"/>
<polygon fill="midnightblue" stroke="midnightblue" points="1737.85,-141.99 1747.87,-138.57 1737.9,-134.99 1737.85,-141.99"/>
</g>
<!-- Node19 -->
<g id="node19" class="node">
<title>Node19</title>
<g id="a_node19"><a xlink:href="_i_e_renderable_8cpp.html" target="_top" xlink:title=" ">
<polygon fill="white" stroke="black" points="820,-0.5 820,-62.5 1045,-62.5 1045,-0.5 820,-0.5"/>
<text text-anchor="start" x="828" y="-45.7" font-family="Source Sans Pro" font-size="16.00">Illumination&#45;Engine</text>
<text text-anchor="start" x="828" y="-27.7" font-family="Source Sans Pro" font-size="16.00">/src/GraphicsModule</text>
<text text-anchor="middle" x="932.5" y="-9.7" font-family="Source Sans Pro" font-size="16.00">/Renderable/IERenderable.cpp</text>
</a>
</g>
</g>
<!-- Node8&#45;&gt;Node19 -->
<g id="edge20" class="edge">
<title>Node8&#45;&gt;Node19</title>
<path fill="none" stroke="midnightblue" d="M1737.83,-131.39C1562.52,-117.35 1182.93,-85.49 1053.5,-63 1050.73,-62.52 1047.92,-62.01 1045.1,-61.47"/>
<polygon fill="midnightblue" stroke="midnightblue" points="1737.56,-134.88 1747.81,-132.18 1738.12,-127.9 1737.56,-134.88"/>
</g>
<!-- Node8&#45;&gt;Node20 -->
<g id="edge21" class="edge">
<title>Node8&#45;&gt;Node20</title>
<path fill="none" stroke="midnightblue" d="M1737.51,-136.26C1463.95,-129.14 651.72,-104.93 390.5,-63 387.71,-62.55 384.9,-62.06 382.06,-61.54"/>
<polygon fill="midnightblue" stroke="midnightblue" points="1737.71,-139.77 1747.79,-136.53 1737.89,-132.77 1737.71,-139.77"/>
</g>
<!-- Node21 -->
<g id="node21" class="node">
<title>Node21</title>
<g id="a_node21"><a xlink:href="_i_e_pipeline_8cpp.html" target="_top" xlink:title=" ">
<polygon fill="white" stroke="black" points="2204.5,-0.5 2204.5,-62.5 2376.5,-62.5 2376.5,-0.5 2204.5,-0.5"/>
<text text-anchor="start" x="2212.5" y="-45.7" font-family="Source Sans Pro" font-size="16.00">Illumination&#45;Engine</text>
<text text-anchor="start" x="2212.5" y="-27.7" font-family="Source Sans Pro" font-size="16.00">/src/GraphicsModule</text>
<text text-anchor="middle" x="2290.5" y="-9.7" font-family="Source Sans Pro" font-size="16.00">/Shader/IEPipeline.cpp</text>
</a>
</g>
</g>
<!-- Node8&#45;&gt;Node21 -->
<g id="edge22" class="edge">
<title>Node8&#45;&gt;Node21</title>
<path fill="none" stroke="midnightblue" d="M1900.5,-104.79C1906.52,-102.62 1912.57,-100.65 1918.5,-99 2038.1,-65.72 2074.34,-90.09 2195.5,-63 2198.46,-62.34 2201.46,-61.63 2204.47,-60.87"/>
<polygon fill="midnightblue" stroke="midnightblue" points="1899.22,-101.53 1891.1,-108.34 1901.69,-108.08 1899.22,-101.53"/>
</g>
<!-- Node22 -->
<g id="node22" class="node">
<title>Node22</title>
<g id="a_node22"><a xlink:href="_i_e_shader_8cpp.html" target="_top" xlink:title=" ">
<polygon fill="white" stroke="black" points="2394.5,-0.5 2394.5,-62.5 2558.5,-62.5 2558.5,-0.5 2394.5,-0.5"/>
<text text-anchor="start" x="2402.5" y="-45.7" font-family="Source Sans Pro" font-size="16.00">Illumination&#45;Engine</text>
<text text-anchor="start" x="2402.5" y="-27.7" font-family="Source Sans Pro" font-size="16.00">/src/GraphicsModule</text>
<text text-anchor="middle" x="2476.5" y="-9.7" font-family="Source Sans Pro" font-size="16.00">/Shader/IEShader.cpp</text>
</a>
</g>
</g>
<!-- Node8&#45;&gt;Node22 -->
<g id="edge23" class="edge">
<title>Node8&#45;&gt;Node22</title>
<path fill="none" stroke="midnightblue" d="M1898.97,-104.95C1905.48,-102.65 1912.05,-100.61 1918.5,-99 2120.44,-48.46 2181.49,-104.39 2385.5,-63 2388.44,-62.4 2391.42,-61.74 2394.41,-61.02"/>
<polygon fill="midnightblue" stroke="midnightblue" points="1897.65,-101.7 1889.5,-108.48 1900.1,-108.26 1897.65,-101.7"/>
</g>
<!-- Node23 -->
<g id="node23" class="node">
<title>Node23</title>
<g id="a_node23"><a xlink:href="main_8cpp.html" target="_top" xlink:title=" ">
<polygon fill="white" stroke="black" points="2576.5,-9.5 2576.5,-53.5 2726.5,-53.5 2726.5,-9.5 2576.5,-9.5"/>
<text text-anchor="start" x="2584.5" y="-36.7" font-family="Source Sans Pro" font-size="16.00">Illumination&#45;Engine</text>
<text text-anchor="middle" x="2651.5" y="-18.7" font-family="Source Sans Pro" font-size="16.00">/src/main.cpp</text>
</a>
</g>
</g>
<!-- Node8&#45;&gt;Node23 -->
<g id="edge24" class="edge">
<title>Node8&#45;&gt;Node23</title>
<path fill="none" stroke="midnightblue" d="M1898.6,-104.92C1905.22,-102.6 1911.92,-100.57 1918.5,-99 2199.48,-31.88 2284.48,-120.92 2567.5,-63 2578.44,-60.76 2589.88,-57.37 2600.66,-53.65"/>
<polygon fill="midnightblue" stroke="midnightblue" points="1897.13,-101.73 1888.97,-108.48 1899.56,-108.29 1897.13,-101.73"/>
</g>
<!-- Node24&#45;&gt;Node8 -->
<g id="edge28" class="edge">
<title>Node24&#45;&gt;Node8</title>
<path fill="none" stroke="midnightblue" d="M2097.61,-225.06C2042.15,-214 1976.35,-198.84 1918.5,-180 1910.06,-177.25 1901.34,-173.99 1892.8,-170.54"/>
<polygon fill="midnightblue" stroke="midnightblue" points="2097,-228.51 2107.49,-227.01 2098.35,-221.64 2097,-228.51"/>
</g>
<!-- Node24&#45;&gt;Node15 -->
<g id="edge29" class="edge">
<title>Node24&#45;&gt;Node15</title>
<path fill="none" stroke="midnightblue" d="M2215.58,-206.38C2213.07,-172.43 2215.96,-125.22 2245.5,-99 2280.64,-67.8 3043.99,-69.64 3090.5,-63 3093.46,-62.58 3096.46,-62.11 3099.47,-61.62"/>
<polygon fill="midnightblue" stroke="midnightblue" points="2212.1,-206.82 2216.5,-216.45 2219.07,-206.17 2212.1,-206.82"/>
</g>
<!-- Node24&#45;&gt;Node16 -->
<g id="edge30" class="edge">
<title>Node24&#45;&gt;Node16</title>
<path fill="none" stroke="midnightblue" d="M2235.69,-206.61C2251,-164.07 2273.83,-102.32 2278.5,-99 2326.52,-64.86 3280.14,-71.14 3338.5,-63 3341.55,-62.57 3344.64,-62.1 3347.74,-61.6"/>
<polygon fill="midnightblue" stroke="midnightblue" points="2232.34,-205.57 2232.26,-216.17 2238.93,-207.94 2232.34,-205.57"/>
</g>
<!-- Node25 -->
<g id="node25" class="node">
<title>Node25</title>
<g id="a_node25"><a xlink:href="_i_e_render_pass_begin_info_8cpp.html" target="_top" xlink:title=" ">
<polygon fill="white" stroke="black" points="2287.5,-99.5 2287.5,-179.5 2559.5,-179.5 2559.5,-99.5 2287.5,-99.5"/>
<text text-anchor="start" x="2295.5" y="-162.7" font-family="Source Sans Pro" font-size="16.00">Illumination&#45;Engine</text>
<text text-anchor="start" x="2295.5" y="-144.7" font-family="Source Sans Pro" font-size="16.00">/src/GraphicsModule</text>
<text text-anchor="start" x="2295.5" y="-126.7" font-family="Source Sans Pro" font-size="16.00">/CommandBuffer/DependencyStructs</text>
<text text-anchor="middle" x="2423.5" y="-108.7" font-family="Source Sans Pro" font-size="16.00">/IERenderPassBeginInfo.cpp</text>
</a>
</g>
</g>
<!-- Node24&#45;&gt;Node25 -->
<g id="edge26" class="edge">
<title>Node24&#45;&gt;Node25</title>
<path fill="none" stroke="midnightblue" d="M2287.7,-211.76C2307.31,-201.47 2328.91,-190.14 2349,-179.59"/>
<polygon fill="midnightblue" stroke="midnightblue" points="2286.07,-208.66 2278.84,-216.41 2289.33,-214.86 2286.07,-208.66"/>
</g>
<!-- Node24&#45;&gt;Node26 -->
<g id="edge27" class="edge">
<title>Node24&#45;&gt;Node26</title>
<path fill="none" stroke="midnightblue" d="M2167.19,-210.74C2147.42,-197.73 2125.28,-183.15 2106.32,-170.67"/>
<polygon fill="midnightblue" stroke="midnightblue" points="2165.52,-213.83 2175.79,-216.41 2169.37,-207.99 2165.52,-213.83"/>
</g>
<!-- Node28 -->
<g id="node28" class="node">
<title>Node28</title>
<g id="a_node28"><a xlink:href="_i_e_dependency_info_8hpp.html" target="_top" xlink:title=" ">
<polygon fill="white" stroke="black" points="636.5,-432.5 636.5,-512.5 908.5,-512.5 908.5,-432.5 636.5,-432.5"/>
<text text-anchor="start" x="644.5" y="-495.7" font-family="Source Sans Pro" font-size="16.00">Illumination&#45;Engine</text>
<text text-anchor="start" x="644.5" y="-477.7" font-family="Source Sans Pro" font-size="16.00">/src/GraphicsModule</text>
<text text-anchor="start" x="644.5" y="-459.7" font-family="Source Sans Pro" font-size="16.00">/CommandBuffer/DependencyStructs</text>
<text text-anchor="middle" x="772.5" y="-441.7" font-family="Source Sans Pro" font-size="16.00">/IEDependencyInfo.hpp</text>
</a>
</g>
</g>
<!-- Node27&#45;&gt;Node28 -->
<g id="edge32" class="edge">
<title>Node27&#45;&gt;Node28</title>
<path fill="none" stroke="midnightblue" d="M979.38,-546.03C948.15,-535.08 914.69,-523.35 883.97,-512.58"/>
<polygon fill="midnightblue" stroke="midnightblue" points="978.4,-549.4 989,-549.41 980.72,-542.79 978.4,-549.4"/>
</g>
<!-- Node30 -->
<g id="node30" class="node">
<title>Node30</title>
<g id="a_node30"><a xlink:href="_i_e_image_memory_barrier_8cpp.html" target="_top" xlink:title=" ">
<polygon fill="white" stroke="black" points="964.5,-432.5 964.5,-512.5 1236.5,-512.5 1236.5,-432.5 964.5,-432.5"/>
<text text-anchor="start" x="972.5" y="-495.7" font-family="Source Sans Pro" font-size="16.00">Illumination&#45;Engine</text>
<text text-anchor="start" x="972.5" y="-477.7" font-family="Source Sans Pro" font-size="16.00">/src/GraphicsModule</text>
<text text-anchor="start" x="972.5" y="-459.7" font-family="Source Sans Pro" font-size="16.00">/CommandBuffer/DependencyStructs</text>
<text text-anchor="middle" x="1100.5" y="-441.7" font-family="Source Sans Pro" font-size="16.00">/IEImageMemoryBarrier.cpp</text>
</a>
</g>
</g>
<!-- Node27&#45;&gt;Node30 -->
<g id="edge35" class="edge">
<title>Node27&#45;&gt;Node30</title>
<path fill="none" stroke="midnightblue" d="M1100.5,-539.03C1100.5,-530.19 1100.5,-521.08 1100.5,-512.58"/>
<polygon fill="midnightblue" stroke="midnightblue" points="1097,-539.25 1100.5,-549.25 1104,-539.25 1097,-539.25"/>
</g>
<!-- Node28&#45;&gt;Node4 -->
<g id="edge34" class="edge">
<title>Node28&#45;&gt;Node4</title>
<path fill="none" stroke="midnightblue" d="M918.63,-432.98C919.92,-432.65 921.21,-432.32 922.5,-432 983.42,-416.61 1051.2,-400.13 1107.98,-386.51"/>
<polygon fill="midnightblue" stroke="midnightblue" points="917.42,-429.68 908.6,-435.53 919.15,-436.46 917.42,-429.68"/>
</g>
<!-- Node29 -->
<g id="node29" class="node">
<title>Node29</title>
<g id="a_node29"><a xlink:href="_i_e_dependency_info_8cpp.html" target="_top" xlink:title=" ">
<polygon fill="white" stroke="black" points="535.5,-315.5 535.5,-395.5 807.5,-395.5 807.5,-315.5 535.5,-315.5"/>
<text text-anchor="start" x="543.5" y="-378.7" font-family="Source Sans Pro" font-size="16.00">Illumination&#45;Engine</text>
<text text-anchor="start" x="543.5" y="-360.7" font-family="Source Sans Pro" font-size="16.00">/src/GraphicsModule</text>
<text text-anchor="start" x="543.5" y="-342.7" font-family="Source Sans Pro" font-size="16.00">/CommandBuffer/DependencyStructs</text>
<text text-anchor="middle" x="671.5" y="-324.7" font-family="Source Sans Pro" font-size="16.00">/IEDependencyInfo.cpp</text>
</a>
</g>
</g>
<!-- Node28&#45;&gt;Node29 -->
<g id="edge33" class="edge">
<title>Node28&#45;&gt;Node29</title>
<path fill="none" stroke="midnightblue" d="M731.33,-424.62C722.85,-414.97 714.02,-404.91 705.82,-395.58"/>
<polygon fill="midnightblue" stroke="midnightblue" points="728.8,-427.04 738.02,-432.25 734.05,-422.42 728.8,-427.04"/>
</g>
<!-- Node31&#45;&gt;Node8 -->
<g id="edge40" class="edge">
<title>Node31&#45;&gt;Node8</title>
<path fill="none" stroke="midnightblue" d="M1582.08,-552.8C1657.15,-502.45 1784.94,-402.77 1836.5,-279 1851.09,-243.98 1844.7,-199.63 1837.62,-170.68"/>
<polygon fill="midnightblue" stroke="midnightblue" points="1580.04,-549.95 1573.65,-558.4 1583.91,-555.78 1580.04,-549.95"/>
</g>
<!-- Node31&#45;&gt;Node14 -->
<g id="edge41" class="edge">
<title>Node31&#45;&gt;Node14</title>
<path fill="none" stroke="midnightblue" d="M1615.92,-588.17C1813.67,-586.27 2274.74,-575.09 2416.5,-513 2510.87,-471.67 2587.5,-459.52 2587.5,-356.5 2587.5,-356.5 2587.5,-356.5 2587.5,-246.5 2587.5,-179.86 2565.97,-144.68 2614.5,-99 2662.91,-53.43 2846.7,-77.86 2911.5,-63 2914.21,-62.38 2916.95,-61.71 2919.7,-60.99"/>
<polygon fill="midnightblue" stroke="midnightblue" points="1615.82,-584.67 1605.85,-588.26 1615.88,-591.67 1615.82,-584.67"/>
</g>
<!-- Node32 -->
<g id="node32" class="node">
<title>Node32</title>
<g id="a_node32"><a xlink:href="_i_e_material_8hpp.html" target="_top" xlink:title=" ">
<polygon fill="white" stroke="black" points="1293,-441.5 1293,-503.5 1496,-503.5 1496,-441.5 1293,-441.5"/>
<text text-anchor="start" x="1301" y="-486.7" font-family="Source Sans Pro" font-size="16.00">Illumination&#45;Engine</text>
<text text-anchor="start" x="1301" y="-468.7" font-family="Source Sans Pro" font-size="16.00">/src/GraphicsModule</text>
<text text-anchor="middle" x="1394.5" y="-450.7" font-family="Source Sans Pro" font-size="16.00">/Renderable/IEMaterial.hpp</text>
</a>
</g>
</g>
<!-- Node31&#45;&gt;Node32 -->
<g id="edge42" class="edge">
<title>Node31&#45;&gt;Node32</title>
<path fill="none" stroke="midnightblue" d="M1482.51,-551.35C1465.01,-535.88 1444.97,-518.14 1428.43,-503.51"/>
<polygon fill="midnightblue" stroke="midnightblue" points="1480.54,-554.28 1490.34,-558.29 1485.17,-549.04 1480.54,-554.28"/>
</g>
<!-- Node34 -->
<g id="node34" class="node">
<title>Node34</title>
<g id="a_node34"><a xlink:href="_i_e_renderable_8hpp.html" target="_top" xlink:title=" ">
<polygon fill="white" stroke="black" points="1297,-216.5 1297,-278.5 1524,-278.5 1524,-216.5 1297,-216.5"/>
<text text-anchor="start" x="1305" y="-261.7" font-family="Source Sans Pro" font-size="16.00">Illumination&#45;Engine</text>
<text text-anchor="start" x="1305" y="-243.7" font-family="Source Sans Pro" font-size="16.00">/src/GraphicsModule</text>
<text text-anchor="middle" x="1410.5" y="-225.7" font-family="Source Sans Pro" font-size="16.00">/Renderable/IERenderable.hpp</text>
</a>
</g>
</g>
<!-- Node31&#45;&gt;Node34 -->
<g id="edge53" class="edge">
<title>Node31&#45;&gt;Node34</title>
<path fill="none" stroke="midnightblue" d="M1523.53,-548.09C1521.83,-515.99 1517.32,-470.3 1505.5,-432 1487.78,-374.58 1452.58,-313.74 1430.36,-278.54"/>
<polygon fill="midnightblue" stroke="midnightblue" points="1520.05,-548.59 1524.01,-558.42 1527.04,-548.27 1520.05,-548.59"/>
</g>
<!-- Node32&#45;&gt;Node17 -->
<g id="edge43" class="edge">
<title>Node32&#45;&gt;Node17</title>
<path fill="none" stroke="midnightblue" d="M1282.8,-439.73C1270.29,-436.82 1257.66,-434.16 1245.5,-432 1159.36,-416.74 924.85,-446.61 853.5,-396 821.22,-373.1 839.97,-346.87 816.5,-315 737.07,-207.17 610.86,-109.88 544.54,-62.64"/>
<polygon fill="midnightblue" stroke="midnightblue" points="1282.27,-443.2 1292.81,-442.12 1283.9,-436.4 1282.27,-443.2"/>
</g>
<!-- Node33 -->
<g id="node33" class="node">
<title>Node33</title>
<g id="a_node33"><a xlink:href="_i_e_mesh_8hpp.html" target="_top" xlink:title=" ">
<polygon fill="white" stroke="black" points="863,-324.5 863,-386.5 1048,-386.5 1048,-324.5 863,-324.5"/>
<text text-anchor="start" x="871" y="-369.7" font-family="Source Sans Pro" font-size="16.00">Illumination&#45;Engine</text>
<text text-anchor="start" x="871" y="-351.7" font-family="Source Sans Pro" font-size="16.00">/src/GraphicsModule</text>
<text text-anchor="middle" x="955.5" y="-333.7" font-family="Source Sans Pro" font-size="16.00">/Renderable/IEMesh.hpp</text>
</a>
</g>
</g>
<!-- Node32&#45;&gt;Node33 -->
<g id="edge44" class="edge">
<title>Node32&#45;&gt;Node33</title>
<path fill="none" stroke="midnightblue" d="M1282.82,-441.27C1270.25,-438.06 1257.62,-434.9 1245.5,-432 1171.24,-414.21 1151.25,-415.79 1077.5,-396 1066.86,-393.14 1055.77,-389.92 1044.8,-386.57"/>
<polygon fill="midnightblue" stroke="midnightblue" points="1282.32,-444.76 1292.87,-443.86 1284.06,-437.98 1282.32,-444.76"/>
</g>
<!-- Node32&#45;&gt;Node34 -->
<g id="edge52" class="edge">
<title>Node32&#45;&gt;Node34</title>
<path fill="none" stroke="midnightblue" d="M1397.38,-431.4C1400.52,-387.57 1405.49,-318.33 1408.33,-278.81"/>
<polygon fill="midnightblue" stroke="midnightblue" points="1393.88,-431.2 1396.66,-441.43 1400.86,-431.7 1393.88,-431.2"/>
</g>
<!-- Node33&#45;&gt;Node17 -->
<g id="edge45" class="edge">
<title>Node33&#45;&gt;Node17</title>
<path fill="none" stroke="midnightblue" d="M938.01,-315.03C932.94,-303.45 927.45,-290.74 922.5,-279 914.12,-259.11 866.45,-112.35 849.5,-99 764.77,-32.26 714.97,-85.58 609.5,-63 606.71,-62.4 603.89,-61.78 601.05,-61.13"/>
<polygon fill="midnightblue" stroke="midnightblue" points="934.92,-316.7 942.15,-324.45 941.33,-313.89 934.92,-316.7"/>
</g>
<!-- Node33&#45;&gt;Node18 -->
<g id="edge46" class="edge">
<title>Node33&#45;&gt;Node18</title>
<path fill="none" stroke="midnightblue" d="M947.08,-314.25C932.56,-246.41 903.01,-115.06 888.5,-99 881.85,-91.64 842.17,-76.52 801.96,-62.56"/>
<polygon fill="midnightblue" stroke="midnightblue" points="943.68,-315.12 949.19,-324.18 950.53,-313.67 943.68,-315.12"/>
</g>
<!-- Node33&#45;&gt;Node19 -->
<g id="edge47" class="edge">
<title>Node33&#45;&gt;Node19</title>
<path fill="none" stroke="midnightblue" d="M952.62,-314.16C947.94,-248.67 938.8,-120.7 934.65,-62.54"/>
<polygon fill="midnightblue" stroke="midnightblue" points="949.15,-314.77 953.36,-324.5 956.14,-314.27 949.15,-314.77"/>
</g>
<!-- Node33&#45;&gt;Node34 -->
<g id="edge48" class="edge">
<title>Node33&#45;&gt;Node34</title>
<path fill="none" stroke="midnightblue" d="M1053.82,-321.59C1061.8,-319.25 1069.77,-317.02 1077.5,-315 1149.81,-296.14 1232.14,-279.66 1296.85,-267.82"/>
<polygon fill="midnightblue" stroke="midnightblue" points="1052.68,-318.27 1044.1,-324.49 1054.68,-324.98 1052.68,-318.27"/>
</g>
<!-- Node34&#45;&gt;Node8 -->
<g id="edge50" class="edge">
<title>Node34&#45;&gt;Node8</title>
<path fill="none" stroke="midnightblue" d="M1534.25,-215.12C1603.33,-197.6 1687.41,-176.28 1747.97,-160.92"/>
<polygon fill="midnightblue" stroke="midnightblue" points="1533,-211.82 1524.17,-217.68 1534.72,-218.61 1533,-211.82"/>
</g>
<!-- Node34&#45;&gt;Node12 -->
<g id="edge49" class="edge">
<title>Node34&#45;&gt;Node12</title>
<path fill="none" stroke="midnightblue" d="M1418.55,-206.45C1426.94,-164.68 1439.9,-100.16 1447.46,-62.55"/>
<polygon fill="midnightblue" stroke="midnightblue" points="1415.11,-205.8 1416.57,-216.29 1421.97,-207.18 1415.11,-205.8"/>
</g>
<!-- Node34&#45;&gt;Node19 -->
<g id="edge51" class="edge">
<title>Node34&#45;&gt;Node19</title>
<path fill="none" stroke="midnightblue" d="M1333.99,-212.24C1241.6,-170.89 1087.71,-101.99 999.71,-62.59"/>
<polygon fill="midnightblue" stroke="midnightblue" points="1332.72,-215.51 1343.28,-216.41 1335.58,-209.13 1332.72,-215.51"/>
</g>
<!-- Node35&#45;&gt;Node8 -->
<g id="edge59" class="edge">
<title>Node35&#45;&gt;Node8</title>
<path fill="none" stroke="midnightblue" d="M2309.28,-576.63C2250.18,-566.5 2180.96,-547.74 2126.5,-513 1985.11,-422.8 1880.94,-242.23 1843.58,-170.69"/>
<polygon fill="midnightblue" stroke="midnightblue" points="2309,-580.13 2319.44,-578.3 2310.14,-573.22 2309,-580.13"/>
</g>
<!-- Node35&#45;&gt;Node15 -->
<g id="edge60" class="edge">
<title>Node35&#45;&gt;Node15</title>
<path fill="none" stroke="midnightblue" d="M2552.12,-553.62C2571.05,-543.28 2588.63,-530 2601.5,-513 2643.98,-456.9 2625.5,-426.87 2625.5,-356.5 2625.5,-356.5 2625.5,-356.5 2625.5,-246.5 2625.5,-180.08 2600.7,-144.05 2649.5,-99 2685.62,-65.65 3041.98,-70.9 3090.5,-63 3093.45,-62.52 3096.44,-62 3099.45,-61.46"/>
<polygon fill="midnightblue" stroke="midnightblue" points="2550.31,-550.61 2543.04,-558.31 2553.53,-556.83 2550.31,-550.61"/>
</g>
<!-- Node35&#45;&gt;Node16 -->
<g id="edge61" class="edge">
<title>Node35&#45;&gt;Node16</title>
<path fill="none" stroke="midnightblue" d="M2561.02,-559.86C2586.36,-548.9 2610.66,-533.8 2628.5,-513 2674.9,-458.9 2663.5,-427.77 2663.5,-356.5 2663.5,-356.5 2663.5,-356.5 2663.5,-246.5 2663.5,-237.75 3127.11,-118.02 3347.59,-61.56"/>
<polygon fill="midnightblue" stroke="midnightblue" points="2559.56,-556.67 2551.64,-563.71 2562.22,-563.15 2559.56,-556.67"/>
</g>
<!-- Node35&#45;&gt;Node24 -->
<g id="edge62" class="edge">
<title>Node35&#45;&gt;Node24</title>
<path fill="none" stroke="midnightblue" d="M2437.97,-548.03C2438.3,-515.08 2434.84,-468.25 2416.5,-432 2382.93,-365.63 2315.15,-310.54 2269.04,-278.56"/>
<polygon fill="midnightblue" stroke="midnightblue" points="2434.46,-548.14 2437.74,-558.21 2441.46,-548.29 2434.46,-548.14"/>
</g>
<!-- Node36 -->
<g id="node36" class="node">
<title>Node36</title>
<g id="a_node36"><a xlink:href="_i_e_render_pass_begin_info_8hpp.html" target="_top" xlink:title=" ">
<polygon fill="white" stroke="black" points="2135.5,-432.5 2135.5,-512.5 2407.5,-512.5 2407.5,-432.5 2135.5,-432.5"/>
<text text-anchor="start" x="2143.5" y="-495.7" font-family="Source Sans Pro" font-size="16.00">Illumination&#45;Engine</text>
<text text-anchor="start" x="2143.5" y="-477.7" font-family="Source Sans Pro" font-size="16.00">/src/GraphicsModule</text>
<text text-anchor="start" x="2143.5" y="-459.7" font-family="Source Sans Pro" font-size="16.00">/CommandBuffer/DependencyStructs</text>
<text text-anchor="middle" x="2271.5" y="-441.7" font-family="Source Sans Pro" font-size="16.00">/IERenderPassBeginInfo.hpp</text>
</a>
</g>
</g>
<!-- Node35&#45;&gt;Node36 -->
<g id="edge55" class="edge">
<title>Node35&#45;&gt;Node36</title>
<path fill="none" stroke="midnightblue" d="M2383.78,-552.24C2365.81,-539.63 2345.57,-525.44 2327.27,-512.61"/>
<polygon fill="midnightblue" stroke="midnightblue" points="2382.21,-555.41 2392.41,-558.29 2386.23,-549.68 2382.21,-555.41"/>
</g>
<!-- Node37 -->
<g id="node37" class="node">
<title>Node37</title>
<g id="a_node37"><a xlink:href="_i_e_dependent_8cpp.html" target="_top" xlink:title=" ">
<polygon fill="white" stroke="black" points="2692,-441.5 2692,-503.5 2949,-503.5 2949,-441.5 2692,-441.5"/>
<text text-anchor="start" x="2700" y="-486.7" font-family="Source Sans Pro" font-size="16.00">Illumination&#45;Engine</text>
<text text-anchor="start" x="2700" y="-468.7" font-family="Source Sans Pro" font-size="16.00">/src/GraphicsModule</text>
<text text-anchor="middle" x="2820.5" y="-450.7" font-family="Source Sans Pro" font-size="16.00">/CommandBuffer/IEDependent.cpp</text>
</a>
</g>
</g>
<!-- Node35&#45;&gt;Node37 -->
<g id="edge58" class="edge">
<title>Node35&#45;&gt;Node37</title>
<path fill="none" stroke="midnightblue" d="M2545.9,-555.52C2600.68,-539.16 2666.37,-519.54 2719.77,-503.59"/>
<polygon fill="midnightblue" stroke="midnightblue" points="2544.73,-552.22 2536.15,-558.44 2546.73,-558.93 2544.73,-552.22"/>
</g>
<!-- Node36&#45;&gt;Node4 -->
<g id="edge57" class="edge">
<title>Node36&#45;&gt;Node4</title>
<path fill="none" stroke="midnightblue" d="M2125.26,-455.28C1928.3,-433.44 1579.73,-394.78 1382.08,-372.87"/>
<polygon fill="midnightblue" stroke="midnightblue" points="2125.07,-458.78 2135.4,-456.41 2125.84,-451.83 2125.07,-458.78"/>
</g>
<!-- Node36&#45;&gt;Node25 -->
<g id="edge56" class="edge">
<title>Node36&#45;&gt;Node25</title>
<path fill="none" stroke="midnightblue" d="M2293.83,-422.88C2324.11,-356.93 2377.62,-240.41 2405.49,-179.72"/>
<polygon fill="midnightblue" stroke="midnightblue" points="2290.53,-421.68 2289.53,-432.23 2296.89,-424.6 2290.53,-421.68"/>
</g>
</g>
</svg>
