<?xml version="1.0" encoding="UTF-8" standalone="no"?>
<!DOCTYPE svg PUBLIC "-//W3C//DTD SVG 1.1//EN"
 "http://www.w3.org/Graphics/SVG/1.1/DTD/svg11.dtd">
<!-- Generated by graphviz version 2.43.0 (0)
 -->
<!-- Title: Illumination&#45;Engine/src/Core/AssetModule/IEAspect.hpp Pages: 1 -->
<svg width="3583pt" height="368pt"
 viewBox="0.00 0.00 3583.00 368.00" xmlns="http://www.w3.org/2000/svg" xmlns:xlink="http://www.w3.org/1999/xlink">
<g id="graph0" class="graph" transform="scale(1 1) rotate(0) translate(4 364)">
<title>Illumination&#45;Engine/src/Core/AssetModule/IEAspect.hpp</title>
<polygon fill="white" stroke="transparent" points="-4,4 -4,-364 3579,-364 3579,4 -4,4"/>
<!-- Node1 -->
<g id="node1" class="node">
<title>Node1</title>
<g id="a_node1"><a xlink:title=" ">
<polygon fill="#bfbfbf" stroke="black" points="1376.5,-297.5 1376.5,-359.5 1546.5,-359.5 1546.5,-297.5 1376.5,-297.5"/>
<text text-anchor="start" x="1384.5" y="-342.7" font-family="Source Sans Pro" font-size="16.00">Illumination&#45;Engine</text>
<text text-anchor="start" x="1384.5" y="-324.7" font-family="Source Sans Pro" font-size="16.00">/src/Core/AssetModule</text>
<text text-anchor="middle" x="1461.5" y="-306.7" font-family="Source Sans Pro" font-size="16.00">/IEAspect.hpp</text>
</a>
</g>
</g>
<!-- Node2 -->
<g id="node2" class="node">
<title>Node2</title>
<g id="a_node2"><a xlink:href="_i_e_aspect_8cpp.html" target="_top" xlink:title=" ">
<polygon fill="white" stroke="black" points="1188.5,-198.5 1188.5,-260.5 1358.5,-260.5 1358.5,-198.5 1188.5,-198.5"/>
<text text-anchor="start" x="1196.5" y="-243.7" font-family="Source Sans Pro" font-size="16.00">Illumination&#45;Engine</text>
<text text-anchor="start" x="1196.5" y="-225.7" font-family="Source Sans Pro" font-size="16.00">/src/Core/AssetModule</text>
<text text-anchor="middle" x="1273.5" y="-207.7" font-family="Source Sans Pro" font-size="16.00">/IEAspect.cpp</text>
</a>
</g>
</g>
<!-- Node1&#45;&gt;Node2 -->
<g id="edge1" class="edge">
<title>Node1&#45;&gt;Node2</title>
<path fill="none" stroke="midnightblue" d="M1394.35,-292.86C1373.89,-282.3 1351.57,-270.78 1331.75,-260.55"/>
<polygon fill="midnightblue" stroke="midnightblue" points="1392.81,-296 1403.3,-297.47 1396.02,-289.78 1392.81,-296"/>
</g>
<!-- Node3 -->
<g id="node3" class="node">
<title>Node3</title>
<g id="a_node3"><a xlink:href="_i_e_asset_8hpp.html" target="_top" xlink:title=" ">
<polygon fill="white" stroke="black" points="1376.5,-198.5 1376.5,-260.5 1546.5,-260.5 1546.5,-198.5 1376.5,-198.5"/>
<text text-anchor="start" x="1384.5" y="-243.7" font-family="Source Sans Pro" font-size="16.00">Illumination&#45;Engine</text>
<text text-anchor="start" x="1384.5" y="-225.7" font-family="Source Sans Pro" font-size="16.00">/src/Core/AssetModule</text>
<text text-anchor="middle" x="1461.5" y="-207.7" font-family="Source Sans Pro" font-size="16.00">/IEAsset.hpp</text>
</a>
</g>
</g>
<!-- Node1&#45;&gt;Node3 -->
<g id="edge2" class="edge">
<title>Node1&#45;&gt;Node3</title>
<path fill="none" stroke="midnightblue" d="M1461.5,-287.17C1461.5,-278.29 1461.5,-269.03 1461.5,-260.64"/>
<polygon fill="midnightblue" stroke="midnightblue" points="1458,-287.34 1461.5,-297.34 1465,-287.34 1458,-287.34"/>
</g>
<!-- Node23 -->
<g id="node23" class="node">
<title>Node23</title>
<g id="a_node23"><a xlink:href="_i_e_renderable_8hpp.html" target="_top" xlink:title=" ">
<polygon fill="white" stroke="black" points="1565,-198.5 1565,-260.5 1792,-260.5 1792,-198.5 1565,-198.5"/>
<text text-anchor="start" x="1573" y="-243.7" font-family="Source Sans Pro" font-size="16.00">Illumination&#45;Engine</text>
<text text-anchor="start" x="1573" y="-225.7" font-family="Source Sans Pro" font-size="16.00">/src/GraphicsModule</text>
<text text-anchor="middle" x="1678.5" y="-207.7" font-family="Source Sans Pro" font-size="16.00">/Renderable/IERenderable.hpp</text>
</a>
</g>
</g>
<!-- Node1&#45;&gt;Node23 -->
<g id="edge23" class="edge">
<title>Node1&#45;&gt;Node23</title>
<path fill="none" stroke="midnightblue" d="M1538.05,-293.28C1561.93,-282.61 1588.08,-270.92 1611.27,-260.55"/>
<polygon fill="midnightblue" stroke="midnightblue" points="1536.38,-290.2 1528.67,-297.47 1539.23,-296.59 1536.38,-290.2"/>
</g>
<!-- Node4 -->
<g id="node4" class="node">
<title>Node4</title>
<g id="a_node4"><a xlink:href="_i_e_asset_8cpp.html" target="_top" xlink:title=" ">
<polygon fill="white" stroke="black" points="1263.5,-99.5 1263.5,-161.5 1433.5,-161.5 1433.5,-99.5 1263.5,-99.5"/>
<text text-anchor="start" x="1271.5" y="-144.7" font-family="Source Sans Pro" font-size="16.00">Illumination&#45;Engine</text>
<text text-anchor="start" x="1271.5" y="-126.7" font-family="Source Sans Pro" font-size="16.00">/src/Core/AssetModule</text>
<text text-anchor="middle" x="1348.5" y="-108.7" font-family="Source Sans Pro" font-size="16.00">/IEAsset.cpp</text>
</a>
</g>
</g>
<!-- Node3&#45;&gt;Node4 -->
<g id="edge3" class="edge">
<title>Node3&#45;&gt;Node4</title>
<path fill="none" stroke="midnightblue" d="M1418.53,-191.62C1407,-181.72 1394.67,-171.13 1383.61,-161.64"/>
<polygon fill="midnightblue" stroke="midnightblue" points="1416.5,-194.48 1426.37,-198.34 1421.06,-189.17 1416.5,-194.48"/>
</g>
<!-- Node5 -->
<g id="node5" class="node">
<title>Node5</title>
<g id="a_node5"><a xlink:href="_i_e_render_engine_8cpp.html" target="_top" xlink:title=" ">
<polygon fill="white" stroke="black" points="0,-0.5 0,-62.5 159,-62.5 159,-0.5 0,-0.5"/>
<text text-anchor="start" x="8" y="-45.7" font-family="Source Sans Pro" font-size="16.00">Illumination&#45;Engine</text>
<text text-anchor="start" x="8" y="-27.7" font-family="Source Sans Pro" font-size="16.00">/src/GraphicsModule</text>
<text text-anchor="middle" x="79.5" y="-9.7" font-family="Source Sans Pro" font-size="16.00">/IERenderEngine.cpp</text>
</a>
</g>
</g>
<!-- Node3&#45;&gt;Node5 -->
<g id="edge4" class="edge">
<title>Node3&#45;&gt;Node5</title>
<path fill="none" stroke="midnightblue" d="M1467.84,-187.94C1469.89,-158.67 1466.85,-120.65 1442.5,-99 1389.54,-51.92 237.2,-75.75 167.5,-63 164.8,-62.51 162.06,-61.94 159.32,-61.32"/>
<polygon fill="midnightblue" stroke="midnightblue" points="1464.32,-188 1466.89,-198.28 1471.29,-188.64 1464.32,-188"/>
</g>
<!-- Node6 -->
<g id="node6" class="node">
<title>Node6</title>
<g id="a_node6"><a xlink:href="_i_e_render_engine_8hpp.html" target="_top" xlink:title=" ">
<polygon fill="white" stroke="black" points="1598,-99.5 1598,-161.5 1759,-161.5 1759,-99.5 1598,-99.5"/>
<text text-anchor="start" x="1606" y="-144.7" font-family="Source Sans Pro" font-size="16.00">Illumination&#45;Engine</text>
<text text-anchor="start" x="1606" y="-126.7" font-family="Source Sans Pro" font-size="16.00">/src/GraphicsModule</text>
<text text-anchor="middle" x="1678.5" y="-108.7" font-family="Source Sans Pro" font-size="16.00">/IERenderEngine.hpp</text>
</a>
</g>
</g>
<!-- Node3&#45;&gt;Node6 -->
<g id="edge5" class="edge">
<title>Node3&#45;&gt;Node6</title>
<path fill="none" stroke="midnightblue" d="M1538.05,-194.28C1561.93,-183.61 1588.08,-171.92 1611.27,-161.55"/>
<polygon fill="midnightblue" stroke="midnightblue" points="1536.38,-191.2 1528.67,-198.47 1539.23,-197.59 1536.38,-191.2"/>
</g>
<!-- Node6&#45;&gt;Node5 -->
<g id="edge11" class="edge">
<title>Node6&#45;&gt;Node5</title>
<path fill="none" stroke="midnightblue" d="M1587.86,-105.75C1574.73,-103.04 1561.33,-100.65 1548.5,-99 1244.03,-59.73 469.54,-117.92 167.5,-63 164.8,-62.51 162.06,-61.95 159.32,-61.33"/>
<polygon fill="midnightblue" stroke="midnightblue" points="1587.32,-109.21 1597.83,-107.88 1588.79,-102.37 1587.32,-109.21"/>
</g>
<!-- Node7 -->
<g id="node7" class="node">
<title>Node7</title>
<g id="a_node7"><a xlink:href="_i_e_buffer_8cpp.html" target="_top" xlink:title=" ">
<polygon fill="white" stroke="black" points="177,-0.5 177,-62.5 334,-62.5 334,-0.5 177,-0.5"/>
<text text-anchor="start" x="185" y="-45.7" font-family="Source Sans Pro" font-size="16.00">Illumination&#45;Engine</text>
<text text-anchor="start" x="185" y="-27.7" font-family="Source Sans Pro" font-size="16.00">/src/GraphicsModule</text>
<text text-anchor="middle" x="255.5" y="-9.7" font-family="Source Sans Pro" font-size="16.00">/Buffer/IEBuffer.cpp</text>
</a>
</g>
</g>
<!-- Node6&#45;&gt;Node7 -->
<g id="edge6" class="edge">
<title>Node6&#45;&gt;Node7</title>
<path fill="none" stroke="midnightblue" d="M1587.86,-105.79C1574.73,-103.07 1561.32,-100.68 1548.5,-99 1282.87,-64.23 606.98,-111.42 343.5,-63 340.48,-62.44 337.42,-61.8 334.35,-61.09"/>
<polygon fill="midnightblue" stroke="midnightblue" points="1587.31,-109.26 1597.83,-107.93 1588.78,-102.41 1587.31,-109.26"/>
</g>
<!-- Node8 -->
<g id="node8" class="node">
<title>Node8</title>
<g id="a_node8"><a xlink:href="_i_e_command_buffer_8cpp.html" target="_top" xlink:title=" ">
<polygon fill="white" stroke="black" points="352,-0.5 352,-62.5 645,-62.5 645,-0.5 352,-0.5"/>
<text text-anchor="start" x="360" y="-45.7" font-family="Source Sans Pro" font-size="16.00">Illumination&#45;Engine</text>
<text text-anchor="start" x="360" y="-27.7" font-family="Source Sans Pro" font-size="16.00">/src/GraphicsModule</text>
<text text-anchor="middle" x="498.5" y="-9.7" font-family="Source Sans Pro" font-size="16.00">/CommandBuffer/IECommandBuffer.cpp</text>
</a>
</g>
</g>
<!-- Node6&#45;&gt;Node8 -->
<g id="edge7" class="edge">
<title>Node6&#45;&gt;Node8</title>
<path fill="none" stroke="midnightblue" d="M1587.84,-105.92C1574.71,-103.18 1561.31,-100.74 1548.5,-99 1154.48,-45.34 1049.45,-109.29 654.5,-63 651.49,-62.65 648.44,-62.27 645.38,-61.87"/>
<polygon fill="midnightblue" stroke="midnightblue" points="1587.3,-109.38 1597.81,-108.06 1588.77,-102.54 1587.3,-109.38"/>
</g>
<!-- Node9 -->
<g id="node9" class="node">
<title>Node9</title>
<g id="a_node9"><a xlink:href="_i_e_command_pool_8cpp.html" target="_top" xlink:title=" ">
<polygon fill="white" stroke="black" points="663.5,-0.5 663.5,-62.5 947.5,-62.5 947.5,-0.5 663.5,-0.5"/>
<text text-anchor="start" x="671.5" y="-45.7" font-family="Source Sans Pro" font-size="16.00">Illumination&#45;Engine</text>
<text text-anchor="start" x="671.5" y="-27.7" font-family="Source Sans Pro" font-size="16.00">/src/GraphicsModule</text>
<text text-anchor="middle" x="805.5" y="-9.7" font-family="Source Sans Pro" font-size="16.00">/CommandBuffer/IECommandPool.cpp</text>
</a>
</g>
</g>
<!-- Node6&#45;&gt;Node9 -->
<g id="edge8" class="edge">
<title>Node6&#45;&gt;Node9</title>
<path fill="none" stroke="midnightblue" d="M1587.81,-106.16C1574.69,-103.38 1561.29,-100.88 1548.5,-99 1288.13,-60.81 1218.45,-96.97 957.5,-63 954.3,-62.58 951.06,-62.14 947.8,-61.67"/>
<polygon fill="midnightblue" stroke="midnightblue" points="1587.26,-109.62 1597.77,-108.32 1588.74,-102.78 1587.26,-109.62"/>
</g>
<!-- Node10 -->
<g id="node10" class="node">
<title>Node10</title>
<g id="a_node10"><a xlink:href="_i_e_a_p_i_8cpp.html" target="_top" xlink:title=" ">
<polygon fill="white" stroke="black" points="966,-0.5 966,-62.5 1123,-62.5 1123,-0.5 966,-0.5"/>
<text text-anchor="start" x="974" y="-45.7" font-family="Source Sans Pro" font-size="16.00">Illumination&#45;Engine</text>
<text text-anchor="start" x="974" y="-27.7" font-family="Source Sans Pro" font-size="16.00">/src/GraphicsModule</text>
<text text-anchor="middle" x="1044.5" y="-9.7" font-family="Source Sans Pro" font-size="16.00">/IEAPI.cpp</text>
</a>
</g>
</g>
<!-- Node6&#45;&gt;Node10 -->
<g id="edge9" class="edge">
<title>Node6&#45;&gt;Node10</title>
<path fill="none" stroke="midnightblue" d="M1587.76,-106.46C1574.65,-103.64 1561.27,-101.04 1548.5,-99 1365.24,-69.73 1314,-101.68 1132.5,-63 1129.5,-62.36 1126.45,-61.65 1123.39,-60.87"/>
<polygon fill="midnightblue" stroke="midnightblue" points="1587.2,-109.92 1597.72,-108.65 1588.71,-103.08 1587.2,-109.92"/>
</g>
<!-- Node11 -->
<g id="node11" class="node">
<title>Node11</title>
<g id="a_node11"><a xlink:href="_i_e_camera_8cpp.html" target="_top" xlink:title=" ">
<polygon fill="white" stroke="black" points="1141,-0.5 1141,-62.5 1298,-62.5 1298,-0.5 1141,-0.5"/>
<text text-anchor="start" x="1149" y="-45.7" font-family="Source Sans Pro" font-size="16.00">Illumination&#45;Engine</text>
<text text-anchor="start" x="1149" y="-27.7" font-family="Source Sans Pro" font-size="16.00">/src/GraphicsModule</text>
<text text-anchor="middle" x="1219.5" y="-9.7" font-family="Source Sans Pro" font-size="16.00">/IECamera.cpp</text>
</a>
</g>
</g>
<!-- Node6&#45;&gt;Node11 -->
<g id="edge10" class="edge">
<title>Node6&#45;&gt;Node11</title>
<path fill="none" stroke="midnightblue" d="M1587.91,-107.24C1574.73,-104.3 1561.29,-101.45 1548.5,-99 1442.14,-78.61 1412.67,-88.84 1307.5,-63 1304.52,-62.27 1301.49,-61.47 1298.45,-60.64"/>
<polygon fill="midnightblue" stroke="midnightblue" points="1587.4,-110.72 1597.93,-109.51 1588.95,-103.89 1587.4,-110.72"/>
</g>
<!-- Node12 -->
<g id="node12" class="node">
<title>Node12</title>
<g id="a_node12"><a xlink:href="_i_e_image_8cpp.html" target="_top" xlink:title=" ">
<polygon fill="white" stroke="black" points="1316,-0.5 1316,-62.5 1473,-62.5 1473,-0.5 1316,-0.5"/>
<text text-anchor="start" x="1324" y="-45.7" font-family="Source Sans Pro" font-size="16.00">Illumination&#45;Engine</text>
<text text-anchor="start" x="1324" y="-27.7" font-family="Source Sans Pro" font-size="16.00">/src/GraphicsModule</text>
<text text-anchor="middle" x="1394.5" y="-9.7" font-family="Source Sans Pro" font-size="16.00">/Image/IEImage.cpp</text>
</a>
</g>
</g>
<!-- Node6&#45;&gt;Node12 -->
<g id="edge12" class="edge">
<title>Node6&#45;&gt;Node12</title>
<path fill="none" stroke="midnightblue" d="M1588.18,-98.99C1554.94,-87.73 1516.99,-74.83 1482.5,-63 1479.44,-61.95 1476.32,-60.88 1473.17,-59.8"/>
<polygon fill="midnightblue" stroke="midnightblue" points="1587.29,-102.39 1597.88,-102.28 1589.53,-95.76 1587.29,-102.39"/>
</g>
<!-- Node13 -->
<g id="node13" class="node">
<title>Node13</title>
<g id="a_node13"><a xlink:href="_i_e_texture_8cpp.html" target="_top" xlink:title=" ">
<polygon fill="white" stroke="black" points="1491,-0.5 1491,-62.5 1652,-62.5 1652,-0.5 1491,-0.5"/>
<text text-anchor="start" x="1499" y="-45.7" font-family="Source Sans Pro" font-size="16.00">Illumination&#45;Engine</text>
<text text-anchor="start" x="1499" y="-27.7" font-family="Source Sans Pro" font-size="16.00">/src/GraphicsModule</text>
<text text-anchor="middle" x="1571.5" y="-9.7" font-family="Source Sans Pro" font-size="16.00">/Image/IETexture.cpp</text>
</a>
</g>
</g>
<!-- Node6&#45;&gt;Node13 -->
<g id="edge13" class="edge">
<title>Node6&#45;&gt;Node13</title>
<path fill="none" stroke="midnightblue" d="M1637.81,-92.62C1626.89,-82.72 1615.21,-72.13 1604.75,-62.64"/>
<polygon fill="midnightblue" stroke="midnightblue" points="1635.47,-95.22 1645.23,-99.34 1640.17,-90.03 1635.47,-95.22"/>
</g>
<!-- Node14 -->
<g id="node14" class="node">
<title>Node14</title>
<g id="a_node14"><a xlink:href="_i_e_framebuffer_8cpp.html" target="_top" xlink:title=" ">
<polygon fill="white" stroke="black" points="1670.5,-0.5 1670.5,-62.5 1900.5,-62.5 1900.5,-0.5 1670.5,-0.5"/>
<text text-anchor="start" x="1678.5" y="-45.7" font-family="Source Sans Pro" font-size="16.00">Illumination&#45;Engine</text>
<text text-anchor="start" x="1678.5" y="-27.7" font-family="Source Sans Pro" font-size="16.00">/src/GraphicsModule</text>
<text text-anchor="middle" x="1785.5" y="-9.7" font-family="Source Sans Pro" font-size="16.00">/RenderPass/IEFramebuffer.cpp</text>
</a>
</g>
</g>
<!-- Node6&#45;&gt;Node14 -->
<g id="edge14" class="edge">
<title>Node6&#45;&gt;Node14</title>
<path fill="none" stroke="midnightblue" d="M1719.19,-92.62C1730.11,-82.72 1741.79,-72.13 1752.25,-62.64"/>
<polygon fill="midnightblue" stroke="midnightblue" points="1716.83,-90.03 1711.77,-99.34 1721.53,-95.22 1716.83,-90.03"/>
</g>
<!-- Node15 -->
<g id="node15" class="node">
<title>Node15</title>
<g id="a_node15"><a xlink:href="_i_e_render_pass_8cpp.html" target="_top" xlink:title=" ">
<polygon fill="white" stroke="black" points="1919,-0.5 1919,-62.5 2146,-62.5 2146,-0.5 1919,-0.5"/>
<text text-anchor="start" x="1927" y="-45.7" font-family="Source Sans Pro" font-size="16.00">Illumination&#45;Engine</text>
<text text-anchor="start" x="1927" y="-27.7" font-family="Source Sans Pro" font-size="16.00">/src/GraphicsModule</text>
<text text-anchor="middle" x="2032.5" y="-9.7" font-family="Source Sans Pro" font-size="16.00">/RenderPass/IERenderPass.cpp</text>
</a>
</g>
</g>
<!-- Node6&#45;&gt;Node15 -->
<g id="edge15" class="edge">
<title>Node6&#45;&gt;Node15</title>
<path fill="none" stroke="midnightblue" d="M1769.1,-104.67C1815.97,-91.83 1873.54,-76.06 1922.89,-62.53"/>
<polygon fill="midnightblue" stroke="midnightblue" points="1767.99,-101.35 1759.27,-107.37 1769.84,-108.1 1767.99,-101.35"/>
</g>
<!-- Node16 -->
<g id="node16" class="node">
<title>Node16</title>
<g id="a_node16"><a xlink:href="_i_e_material_8cpp.html" target="_top" xlink:title=" ">
<polygon fill="white" stroke="black" points="2164,-0.5 2164,-62.5 2365,-62.5 2365,-0.5 2164,-0.5"/>
<text text-anchor="start" x="2172" y="-45.7" font-family="Source Sans Pro" font-size="16.00">Illumination&#45;Engine</text>
<text text-anchor="start" x="2172" y="-27.7" font-family="Source Sans Pro" font-size="16.00">/src/GraphicsModule</text>
<text text-anchor="middle" x="2264.5" y="-9.7" font-family="Source Sans Pro" font-size="16.00">/Renderable/IEMaterial.cpp</text>
</a>
</g>
</g>
<!-- Node6&#45;&gt;Node16 -->
<g id="edge16" class="edge">
<title>Node6&#45;&gt;Node16</title>
<path fill="none" stroke="midnightblue" d="M1769.25,-120.52C1865.68,-110.12 2022.3,-90.79 2155.5,-63 2158.29,-62.42 2161.11,-61.8 2163.96,-61.16"/>
<polygon fill="midnightblue" stroke="midnightblue" points="1768.82,-117.05 1759.25,-121.59 1769.56,-124.01 1768.82,-117.05"/>
</g>
<!-- Node17 -->
<g id="node17" class="node">
<title>Node17</title>
<g id="a_node17"><a xlink:href="_i_e_mesh_8cpp.html" target="_top" xlink:title=" ">
<polygon fill="white" stroke="black" points="2383,-0.5 2383,-62.5 2566,-62.5 2566,-0.5 2383,-0.5"/>
<text text-anchor="start" x="2391" y="-45.7" font-family="Source Sans Pro" font-size="16.00">Illumination&#45;Engine</text>
<text text-anchor="start" x="2391" y="-27.7" font-family="Source Sans Pro" font-size="16.00">/src/GraphicsModule</text>
<text text-anchor="middle" x="2474.5" y="-9.7" font-family="Source Sans Pro" font-size="16.00">/Renderable/IEMesh.cpp</text>
</a>
</g>
</g>
<!-- Node6&#45;&gt;Node17 -->
<g id="edge17" class="edge">
<title>Node6&#45;&gt;Node17</title>
<path fill="none" stroke="midnightblue" d="M1769.3,-126.63C1902.99,-121.11 2160.11,-105.49 2374.5,-63 2377.26,-62.45 2380.05,-61.86 2382.86,-61.23"/>
<polygon fill="midnightblue" stroke="midnightblue" points="1768.96,-123.14 1759.11,-127.04 1769.24,-130.14 1768.96,-123.14"/>
</g>
<!-- Node18 -->
<g id="node18" class="node">
<title>Node18</title>
<g id="a_node18"><a xlink:href="_i_e_renderable_8cpp.html" target="_top" xlink:title=" ">
<polygon fill="white" stroke="black" points="3350,-0.5 3350,-62.5 3575,-62.5 3575,-0.5 3350,-0.5"/>
<text text-anchor="start" x="3358" y="-45.7" font-family="Source Sans Pro" font-size="16.00">Illumination&#45;Engine</text>
<text text-anchor="start" x="3358" y="-27.7" font-family="Source Sans Pro" font-size="16.00">/src/GraphicsModule</text>
<text text-anchor="middle" x="3462.5" y="-9.7" font-family="Source Sans Pro" font-size="16.00">/Renderable/IERenderable.cpp</text>
</a>
</g>
</g>
<!-- Node6&#45;&gt;Node18 -->
<g id="edge18" class="edge">
<title>Node6&#45;&gt;Node18</title>
<path fill="none" stroke="midnightblue" d="M1769.36,-126.95C2093.93,-117.71 3185.06,-85.3 3340.5,-63 3343.63,-62.55 3346.8,-62.05 3350,-61.52"/>
<polygon fill="midnightblue" stroke="midnightblue" points="1768.96,-123.46 1759.06,-127.25 1769.15,-130.46 1768.96,-123.46"/>
</g>
<!-- Node19 -->
<g id="node19" class="node">
<title>Node19</title>
<g id="a_node19"><a xlink:href="_i_e_descriptor_set_8cpp.html" target="_top" xlink:title=" ">
<polygon fill="white" stroke="black" points="2584,-0.5 2584,-62.5 2791,-62.5 2791,-0.5 2584,-0.5"/>
<text text-anchor="start" x="2592" y="-45.7" font-family="Source Sans Pro" font-size="16.00">Illumination&#45;Engine</text>
<text text-anchor="start" x="2592" y="-27.7" font-family="Source Sans Pro" font-size="16.00">/src/GraphicsModule</text>
<text text-anchor="middle" x="2687.5" y="-9.7" font-family="Source Sans Pro" font-size="16.00">/Shader/IEDescriptorSet.cpp</text>
</a>
</g>
</g>
<!-- Node6&#45;&gt;Node19 -->
<g id="edge19" class="edge">
<title>Node6&#45;&gt;Node19</title>
<path fill="none" stroke="midnightblue" d="M1769.69,-128.5C1932.6,-125.43 2283.9,-113.04 2575.5,-63 2578.28,-62.52 2581.09,-62.01 2583.92,-61.46"/>
<polygon fill="midnightblue" stroke="midnightblue" points="1769.17,-125.01 1759.23,-128.69 1769.29,-132.01 1769.17,-125.01"/>
</g>
<!-- Node20 -->
<g id="node20" class="node">
<title>Node20</title>
<g id="a_node20"><a xlink:href="_i_e_pipeline_8cpp.html" target="_top" xlink:title=" ">
<polygon fill="white" stroke="black" points="2809.5,-0.5 2809.5,-62.5 2981.5,-62.5 2981.5,-0.5 2809.5,-0.5"/>
<text text-anchor="start" x="2817.5" y="-45.7" font-family="Source Sans Pro" font-size="16.00">Illumination&#45;Engine</text>
<text text-anchor="start" x="2817.5" y="-27.7" font-family="Source Sans Pro" font-size="16.00">/src/GraphicsModule</text>
<text text-anchor="middle" x="2895.5" y="-9.7" font-family="Source Sans Pro" font-size="16.00">/Shader/IEPipeline.cpp</text>
</a>
</g>
</g>
<!-- Node6&#45;&gt;Node20 -->
<g id="edge20" class="edge">
<title>Node6&#45;&gt;Node20</title>
<path fill="none" stroke="midnightblue" d="M1769.43,-127.06C2000.07,-120.39 2603.47,-99.86 2800.5,-63 2803.39,-62.46 2806.32,-61.85 2809.27,-61.2"/>
<polygon fill="midnightblue" stroke="midnightblue" points="1769.29,-123.56 1759.4,-127.34 1769.49,-130.56 1769.29,-123.56"/>
</g>
<!-- Node21 -->
<g id="node21" class="node">
<title>Node21</title>
<g id="a_node21"><a xlink:href="_i_e_shader_8cpp.html" target="_top" xlink:title=" ">
<polygon fill="white" stroke="black" points="2999.5,-0.5 2999.5,-62.5 3163.5,-62.5 3163.5,-0.5 2999.5,-0.5"/>
<text text-anchor="start" x="3007.5" y="-45.7" font-family="Source Sans Pro" font-size="16.00">Illumination&#45;Engine</text>
<text text-anchor="start" x="3007.5" y="-27.7" font-family="Source Sans Pro" font-size="16.00">/src/GraphicsModule</text>
<text text-anchor="middle" x="3081.5" y="-9.7" font-family="Source Sans Pro" font-size="16.00">/Shader/IEShader.cpp</text>
</a>
</g>
</g>
<!-- Node6&#45;&gt;Node21 -->
<g id="edge21" class="edge">
<title>Node6&#45;&gt;Node21</title>
<path fill="none" stroke="midnightblue" d="M1769.13,-128.12C2026.04,-123.68 2755.68,-107.44 2990.5,-63 2993.45,-62.44 2996.43,-61.81 2999.43,-61.12"/>
<polygon fill="midnightblue" stroke="midnightblue" points="1769.02,-124.62 1759.08,-128.29 1769.14,-131.62 1769.02,-124.62"/>
</g>
<!-- Node22 -->
<g id="node22" class="node">
<title>Node22</title>
<g id="a_node22"><a xlink:href="main_8cpp.html" target="_top" xlink:title=" ">
<polygon fill="white" stroke="black" points="3181.5,-9.5 3181.5,-53.5 3331.5,-53.5 3331.5,-9.5 3181.5,-9.5"/>
<text text-anchor="start" x="3189.5" y="-36.7" font-family="Source Sans Pro" font-size="16.00">Illumination&#45;Engine</text>
<text text-anchor="middle" x="3256.5" y="-18.7" font-family="Source Sans Pro" font-size="16.00">/src/main.cpp</text>
</a>
</g>
</g>
<!-- Node6&#45;&gt;Node22 -->
<g id="edge22" class="edge">
<title>Node6&#45;&gt;Node22</title>
<path fill="none" stroke="midnightblue" d="M1769.11,-127.07C2071.61,-118.72 3035.4,-90.28 3172.5,-63 3183.61,-60.79 3195.21,-57.36 3206.12,-53.59"/>
<polygon fill="midnightblue" stroke="midnightblue" points="1768.96,-123.57 1759.06,-127.34 1769.15,-130.57 1768.96,-123.57"/>
</g>
<!-- Node23&#45;&gt;Node5 -->
<g id="edge24" class="edge">
<title>Node23&#45;&gt;Node5</title>
<path fill="none" stroke="midnightblue" d="M1627.34,-192.64C1576.55,-157.85 1501.64,-108.9 1468.5,-99 1191.37,-16.26 452.02,-114.96 167.5,-63 164.8,-62.51 162.06,-61.94 159.32,-61.32"/>
<polygon fill="midnightblue" stroke="midnightblue" points="1625.36,-195.53 1635.58,-198.31 1629.32,-189.76 1625.36,-195.53"/>
</g>
<!-- Node23&#45;&gt;Node6 -->
<g id="edge25" class="edge">
<title>Node23&#45;&gt;Node6</title>
<path fill="none" stroke="midnightblue" d="M1678.5,-188.17C1678.5,-179.29 1678.5,-170.03 1678.5,-161.64"/>
<polygon fill="midnightblue" stroke="midnightblue" points="1675,-188.34 1678.5,-198.34 1682,-188.34 1675,-188.34"/>
</g>
<!-- Node23&#45;&gt;Node18 -->
<g id="edge26" class="edge">
<title>Node23&#45;&gt;Node18</title>
<path fill="none" stroke="midnightblue" d="M1802.21,-222.36C2079.35,-207.26 2770.46,-162.09 3340.5,-63 3343.62,-62.46 3346.78,-61.88 3349.96,-61.27"/>
<polygon fill="midnightblue" stroke="midnightblue" points="1801.92,-218.87 1792.12,-222.91 1802.3,-225.86 1801.92,-218.87"/>
</g>
</g>
</svg>
