<?xml version="1.0" encoding="UTF-8" standalone="no"?>
<!DOCTYPE svg PUBLIC "-//W3C//DTD SVG 1.1//EN"
 "http://www.w3.org/Graphics/SVG/1.1/DTD/svg11.dtd">
<!-- Generated by graphviz version 2.43.0 (0)
 -->
<!-- Title: Illumination&#45;Engine/src/GraphicsModule/Image/IETextureNEW.cpp Pages: 1 -->
<svg width="457pt" height="278pt"
 viewBox="0.00 0.00 456.50 278.00" xmlns="http://www.w3.org/2000/svg" xmlns:xlink="http://www.w3.org/1999/xlink">
<g id="graph0" class="graph" transform="scale(1 1) rotate(0) translate(4 274)">
<title>Illumination&#45;Engine/src/GraphicsModule/Image/IETextureNEW.cpp</title>
<polygon fill="white" stroke="transparent" points="-4,4 -4,-274 452.5,-274 452.5,4 -4,4"/>
<!-- Node1 -->
<g id="node1" class="node">
<title>Node1</title>
<g id="a_node1"><a xlink:title=" ">
<polygon fill="#bfbfbf" stroke="black" points="167.5,-207.5 167.5,-269.5 358.5,-269.5 358.5,-207.5 167.5,-207.5"/>
<text text-anchor="start" x="175.5" y="-252.7" font-family="Source Sans Pro" font-size="16.00">Illumination&#45;Engine</text>
<text text-anchor="start" x="175.5" y="-234.7" font-family="Source Sans Pro" font-size="16.00">/src/GraphicsModule</text>
<text text-anchor="middle" x="263" y="-216.7" font-family="Source Sans Pro" font-size="16.00">/Image/IETextureNEW.cpp</text>
</a>
</g>
</g>
<!-- Node2 -->
<g id="node2" class="node">
<title>Node2</title>
<g id="a_node2"><a xlink:href="_i_e_texture_n_e_w_8hpp.html" target="_top" xlink:title=" ">
<polygon fill="white" stroke="black" points="193,-144.5 193,-170.5 333,-170.5 333,-144.5 193,-144.5"/>
<text text-anchor="middle" x="263" y="-153.7" font-family="Source Sans Pro" font-size="16.00">IETextureNEW.hpp</text>
</a>
</g>
</g>
<!-- Node1&#45;&gt;Node2 -->
<g id="edge1" class="edge">
<title>Node1&#45;&gt;Node2</title>
<path fill="none" stroke="midnightblue" d="M263,-207.18C263,-198.45 263,-189.08 263,-180.91"/>
<polygon fill="midnightblue" stroke="midnightblue" points="266.5,-180.7 263,-170.7 259.5,-180.7 266.5,-180.7"/>
</g>
<!-- Node3 -->
<g id="node3" class="node">
<title>Node3</title>
<g id="a_node3"><a xlink:href="_i_e_image_n_e_w_8hpp.html" target="_top" xlink:title=" ">
<polygon fill="white" stroke="black" points="196.5,-81.5 196.5,-107.5 329.5,-107.5 329.5,-81.5 196.5,-81.5"/>
<text text-anchor="middle" x="263" y="-90.7" font-family="Source Sans Pro" font-size="16.00">IEImageNEW.hpp</text>
</a>
</g>
</g>
<!-- Node2&#45;&gt;Node3 -->
<g id="edge2" class="edge">
<title>Node2&#45;&gt;Node3</title>
<path fill="none" stroke="midnightblue" d="M263,-144.45C263,-136.85 263,-126.79 263,-117.78"/>
<polygon fill="midnightblue" stroke="midnightblue" points="266.5,-117.53 263,-107.53 259.5,-117.53 266.5,-117.53"/>
</g>
<!-- Node4 -->
<g id="node4" class="node">
<title>Node4</title>
<g id="a_node4"><a xlink:title=" ">
<polygon fill="white" stroke="#bfbfbf" points="0,-0.5 0,-44.5 130,-44.5 130,-0.5 0,-0.5"/>
<text text-anchor="start" x="8" y="-27.7" font-family="Source Sans Pro" font-size="16.00">../contrib/stb/stb</text>
<text text-anchor="middle" x="65" y="-9.7" font-family="Source Sans Pro" font-size="16.00">_image.h</text>
</a>
</g>
</g>
<!-- Node3&#45;&gt;Node4 -->
<g id="edge3" class="edge">
<title>Node3&#45;&gt;Node4</title>
<path fill="none" stroke="midnightblue" d="M228.96,-81.47C203.01,-72.29 166.39,-59.35 134.35,-48.02"/>
<polygon fill="midnightblue" stroke="midnightblue" points="135.16,-44.59 124.56,-44.56 132.82,-51.19 135.16,-44.59"/>
</g>
<!-- Node5 -->
<g id="node5" class="node">
<title>Node5</title>
<g id="a_node5"><a xlink:title=" ">
<polygon fill="white" stroke="#bfbfbf" points="148.5,-9.5 148.5,-35.5 213.5,-35.5 213.5,-9.5 148.5,-9.5"/>
<text text-anchor="middle" x="181" y="-18.7" font-family="Source Sans Pro" font-size="16.00">cassert</text>
</a>
</g>
</g>
<!-- Node3&#45;&gt;Node5 -->
<g id="edge4" class="edge">
<title>Node3&#45;&gt;Node5</title>
<path fill="none" stroke="midnightblue" d="M248.72,-81.31C236.14,-70.57 217.61,-54.75 203.11,-42.38"/>
<polygon fill="midnightblue" stroke="midnightblue" points="205,-39.38 195.12,-35.55 200.45,-44.71 205,-39.38"/>
</g>
<!-- Node6 -->
<g id="node6" class="node">
<title>Node6</title>
<g id="a_node6"><a xlink:title=" ">
<polygon fill="white" stroke="#bfbfbf" points="231.5,-9.5 231.5,-35.5 294.5,-35.5 294.5,-9.5 231.5,-9.5"/>
<text text-anchor="middle" x="263" y="-18.7" font-family="Source Sans Pro" font-size="16.00">cstdint</text>
</a>
</g>
</g>
<!-- Node3&#45;&gt;Node6 -->
<g id="edge5" class="edge">
<title>Node3&#45;&gt;Node6</title>
<path fill="none" stroke="midnightblue" d="M263,-81.31C263,-71.47 263,-57.38 263,-45.57"/>
<polygon fill="midnightblue" stroke="midnightblue" points="266.5,-45.55 263,-35.55 259.5,-45.55 266.5,-45.55"/>
</g>
<!-- Node7 -->
<g id="node7" class="node">
<title>Node7</title>
<g id="a_node7"><a xlink:title=" ">
<polygon fill="white" stroke="#bfbfbf" points="312.5,-9.5 312.5,-35.5 371.5,-35.5 371.5,-9.5 312.5,-9.5"/>
<text text-anchor="middle" x="342" y="-18.7" font-family="Source Sans Pro" font-size="16.00">mutex</text>
</a>
</g>
</g>
<!-- Node3&#45;&gt;Node7 -->
<g id="edge6" class="edge">
<title>Node3&#45;&gt;Node7</title>
<path fill="none" stroke="midnightblue" d="M276.76,-81.31C288.88,-70.57 306.73,-54.75 320.7,-42.38"/>
<polygon fill="midnightblue" stroke="midnightblue" points="323.23,-44.8 328.4,-35.55 318.59,-39.57 323.23,-44.8"/>
</g>
<!-- Node8 -->
<g id="node8" class="node">
<title>Node8</title>
<g id="a_node8"><a xlink:title=" ">
<polygon fill="white" stroke="#bfbfbf" points="389.5,-9.5 389.5,-35.5 448.5,-35.5 448.5,-9.5 389.5,-9.5"/>
<text text-anchor="middle" x="419" y="-18.7" font-family="Source Sans Pro" font-size="16.00">vector</text>
</a>
</g>
</g>
<!-- Node3&#45;&gt;Node8 -->
<g id="edge7" class="edge">
<title>Node3&#45;&gt;Node8</title>
<path fill="none" stroke="midnightblue" d="M295.28,-81.49C319.27,-72.26 352.61,-58.8 381,-45 383.93,-43.58 386.95,-42.02 389.94,-40.42"/>
<polygon fill="midnightblue" stroke="midnightblue" points="391.67,-43.47 398.74,-35.58 388.29,-37.34 391.67,-43.47"/>
</g>
</g>
</svg>
