<?xml version="1.0" encoding="UTF-8" standalone="no"?>
<!DOCTYPE svg PUBLIC "-//W3C//DTD SVG 1.1//EN"
 "http://www.w3.org/Graphics/SVG/1.1/DTD/svg11.dtd">
<!-- Generated by graphviz version 2.43.0 (0)
 -->
<!-- Title: Illumination&#45;Engine/src/GraphicsModule/Renderable/IEMesh.hpp Pages: 1 -->
<svg width="2535pt" height="521pt"
 viewBox="0.00 0.00 2534.50 521.00" xmlns="http://www.w3.org/2000/svg" xmlns:xlink="http://www.w3.org/1999/xlink">
<g id="graph0" class="graph" transform="scale(1 1) rotate(0) translate(4 517)">
<title>Illumination&#45;Engine/src/GraphicsModule/Renderable/IEMesh.hpp</title>
<polygon fill="white" stroke="transparent" points="-4,4 -4,-517 2530.5,-517 2530.5,4 -4,4"/>
<!-- Node1 -->
<g id="node1" class="node">
<title>Node1</title>
<g id="a_node1"><a xlink:title=" ">
<polygon fill="#bfbfbf" stroke="black" points="582.5,-450.5 582.5,-512.5 767.5,-512.5 767.5,-450.5 582.5,-450.5"/>
<text text-anchor="start" x="590.5" y="-495.7" font-family="Source Sans Pro" font-size="16.00">Illumination&#45;Engine</text>
<text text-anchor="start" x="590.5" y="-477.7" font-family="Source Sans Pro" font-size="16.00">/src/GraphicsModule</text>
<text text-anchor="middle" x="675" y="-459.7" font-family="Source Sans Pro" font-size="16.00">/Renderable/IEMesh.hpp</text>
</a>
</g>
</g>
<!-- Node2 -->
<g id="node2" class="node">
<title>Node2</title>
<g id="a_node2"><a xlink:title=" ">
<polygon fill="white" stroke="#bfbfbf" points="294.5,-9.5 294.5,-35.5 357.5,-35.5 357.5,-9.5 294.5,-9.5"/>
<text text-anchor="middle" x="326" y="-18.7" font-family="Source Sans Pro" font-size="16.00">cstdint</text>
</a>
</g>
</g>
<!-- Node1&#45;&gt;Node2 -->
<g id="edge1" class="edge">
<title>Node1&#45;&gt;Node2</title>
<path fill="none" stroke="midnightblue" d="M582.21,-478.93C397.19,-473.28 0,-447.41 0,-329.5 0,-329.5 0,-329.5 0,-165.5 0,-42.85 196.34,-25.05 284.28,-23.22"/>
<polygon fill="midnightblue" stroke="midnightblue" points="284.5,-26.72 294.45,-23.07 284.4,-19.72 284.5,-26.72"/>
</g>
<!-- Node3 -->
<g id="node3" class="node">
<title>Node3</title>
<g id="a_node3"><a xlink:title=" ">
<polygon fill="white" stroke="#bfbfbf" points="1206.5,-9.5 1206.5,-35.5 1265.5,-35.5 1265.5,-9.5 1206.5,-9.5"/>
<text text-anchor="middle" x="1236" y="-18.7" font-family="Source Sans Pro" font-size="16.00">vector</text>
</a>
</g>
</g>
<!-- Node1&#45;&gt;Node3 -->
<g id="edge2" class="edge">
<title>Node1&#45;&gt;Node3</title>
<path fill="none" stroke="midnightblue" d="M767.71,-480.1C1015.13,-478.3 1686.78,-468.4 1901,-414 1985.88,-392.44 2079,-417.07 2079,-329.5 2079,-329.5 2079,-329.5 2079,-246.5 2079,-152.14 2031.33,-121.29 1946,-81 1825.83,-24.25 1406.98,-22.26 1275.68,-23.08"/>
<polygon fill="midnightblue" stroke="midnightblue" points="1275.63,-19.58 1265.66,-23.16 1275.68,-26.58 1275.63,-19.58"/>
</g>
<!-- Node4 -->
<g id="node4" class="node">
<title>Node4</title>
<g id="a_node4"><a xlink:href="_i_e_vertex_8hpp.html" target="_top" xlink:title=" ">
<polygon fill="white" stroke="black" points="2148.5,-387.5 2148.5,-413.5 2249.5,-413.5 2249.5,-387.5 2148.5,-387.5"/>
<text text-anchor="middle" x="2199" y="-396.7" font-family="Source Sans Pro" font-size="16.00">IEVertex.hpp</text>
</a>
</g>
</g>
<!-- Node1&#45;&gt;Node4 -->
<g id="edge3" class="edge">
<title>Node1&#45;&gt;Node4</title>
<path fill="none" stroke="midnightblue" d="M767.64,-478.42C994.17,-472.83 1594.08,-455.06 2093,-414 2107.71,-412.79 2123.52,-411.12 2138.33,-409.4"/>
<polygon fill="midnightblue" stroke="midnightblue" points="2138.87,-412.86 2148.39,-408.2 2138.05,-405.91 2138.87,-412.86"/>
</g>
<!-- Node8 -->
<g id="node8" class="node">
<title>Node8</title>
<g id="a_node8"><a xlink:href="_i_e_material_8hpp.html" target="_top" xlink:title=" ">
<polygon fill="white" stroke="black" points="1778,-387.5 1778,-413.5 1892,-413.5 1892,-387.5 1778,-387.5"/>
<text text-anchor="middle" x="1835" y="-396.7" font-family="Source Sans Pro" font-size="16.00">IEMaterial.hpp</text>
</a>
</g>
</g>
<!-- Node1&#45;&gt;Node8 -->
<g id="edge7" class="edge">
<title>Node1&#45;&gt;Node8</title>
<path fill="none" stroke="midnightblue" d="M767.97,-474.17C994.42,-458.75 1570.45,-419.52 1767.61,-406.09"/>
<polygon fill="midnightblue" stroke="midnightblue" points="1768.09,-409.57 1777.83,-405.39 1767.61,-402.58 1768.09,-409.57"/>
</g>
<!-- Node26 -->
<g id="node26" class="node">
<title>Node26</title>
<g id="a_node26"><a xlink:href="_i_e_descriptor_set_8hpp.html" target="_top" xlink:title=" ">
<polygon fill="white" stroke="black" points="207,-225.5 207,-269.5 387,-269.5 387,-225.5 207,-225.5"/>
<text text-anchor="start" x="215" y="-252.7" font-family="Source Sans Pro" font-size="16.00">GraphicsModule/Shader</text>
<text text-anchor="middle" x="297" y="-234.7" font-family="Source Sans Pro" font-size="16.00">/IEDescriptorSet.hpp</text>
</a>
</g>
</g>
<!-- Node1&#45;&gt;Node26 -->
<g id="edge47" class="edge">
<title>Node1&#45;&gt;Node26</title>
<path fill="none" stroke="midnightblue" d="M625.97,-450.41C551.45,-404.67 410.88,-318.4 340.07,-274.94"/>
<polygon fill="midnightblue" stroke="midnightblue" points="341.73,-271.85 331.38,-269.6 338.07,-277.82 341.73,-271.85"/>
</g>
<!-- Node29 -->
<g id="node29" class="node">
<title>Node29</title>
<g id="a_node29"><a xlink:href="_i_e_pipeline_8hpp.html" target="_top" xlink:title=" ">
<polygon fill="white" stroke="black" points="585,-306.5 585,-350.5 765,-350.5 765,-306.5 585,-306.5"/>
<text text-anchor="start" x="593" y="-333.7" font-family="Source Sans Pro" font-size="16.00">GraphicsModule/Shader</text>
<text text-anchor="middle" x="675" y="-315.7" font-family="Source Sans Pro" font-size="16.00">/IEPipeline.hpp</text>
</a>
</g>
</g>
<!-- Node1&#45;&gt;Node29 -->
<g id="edge55" class="edge">
<title>Node1&#45;&gt;Node29</title>
<path fill="none" stroke="midnightblue" d="M675,-450.31C675,-424.44 675,-387.3 675,-361.05"/>
<polygon fill="midnightblue" stroke="midnightblue" points="678.5,-360.88 675,-350.88 671.5,-360.88 678.5,-360.88"/>
</g>
<!-- Node38 -->
<g id="node38" class="node">
<title>Node38</title>
<g id="a_node38"><a xlink:href="_i_e_buffer_8hpp.html" target="_top" xlink:title=" ">
<polygon fill="white" stroke="black" points="461.5,-234.5 461.5,-260.5 608.5,-260.5 608.5,-234.5 461.5,-234.5"/>
<text text-anchor="middle" x="535" y="-243.7" font-family="Source Sans Pro" font-size="16.00">Buffer/IEBuffer.hpp</text>
</a>
</g>
</g>
<!-- Node1&#45;&gt;Node38 -->
<g id="edge78" class="edge">
<title>Node1&#45;&gt;Node38</title>
<path fill="none" stroke="midnightblue" d="M648.05,-450.25C626.54,-425.01 596.69,-387.42 576,-351 561.02,-324.63 548.89,-291.69 541.81,-270.38"/>
<polygon fill="midnightblue" stroke="midnightblue" points="545.08,-269.1 538.67,-260.67 538.42,-271.26 545.08,-269.1"/>
</g>
<!-- Node5 -->
<g id="node5" class="node">
<title>Node5</title>
<g id="a_node5"><a xlink:title=" ">
<polygon fill="white" stroke="#bfbfbf" points="2107,-315.5 2107,-341.5 2211,-341.5 2211,-315.5 2107,-315.5"/>
<text text-anchor="middle" x="2159" y="-324.7" font-family="Source Sans Pro" font-size="16.00">glm/glm.hpp</text>
</a>
</g>
</g>
<!-- Node4&#45;&gt;Node5 -->
<g id="edge4" class="edge">
<title>Node4&#45;&gt;Node5</title>
<path fill="none" stroke="midnightblue" d="M2192.03,-387.31C2186.24,-377.17 2177.86,-362.51 2170.99,-350.49"/>
<polygon fill="midnightblue" stroke="midnightblue" points="2173.89,-348.5 2165.89,-341.55 2167.81,-351.97 2173.89,-348.5"/>
</g>
<!-- Node6 -->
<g id="node6" class="node">
<title>Node6</title>
<g id="a_node6"><a xlink:title=" ">
<polygon fill="white" stroke="#bfbfbf" points="2267.5,-315.5 2267.5,-341.5 2318.5,-341.5 2318.5,-315.5 2267.5,-315.5"/>
<text text-anchor="middle" x="2293" y="-324.7" font-family="Source Sans Pro" font-size="16.00">array</text>
</a>
</g>
</g>
<!-- Node4&#45;&gt;Node6 -->
<g id="edge5" class="edge">
<title>Node4&#45;&gt;Node6</title>
<path fill="none" stroke="midnightblue" d="M2215.37,-387.31C2230.07,-376.37 2251.83,-360.16 2268.58,-347.69"/>
<polygon fill="midnightblue" stroke="midnightblue" points="2270.88,-350.33 2276.81,-341.55 2266.7,-344.72 2270.88,-350.33"/>
</g>
<!-- Node7 -->
<g id="node7" class="node">
<title>Node7</title>
<g id="a_node7"><a xlink:title=" ">
<polygon fill="white" stroke="#bfbfbf" points="1956.5,-9.5 1956.5,-35.5 2011.5,-35.5 2011.5,-9.5 1956.5,-9.5"/>
<text text-anchor="middle" x="1984" y="-18.7" font-family="Source Sans Pro" font-size="16.00">string</text>
</a>
</g>
</g>
<!-- Node4&#45;&gt;Node7 -->
<g id="edge6" class="edge">
<title>Node4&#45;&gt;Node7</title>
<path fill="none" stroke="midnightblue" d="M2205.14,-387.43C2209.81,-377.79 2216.09,-363.81 2220,-351 2233.51,-306.68 2239,-294.83 2239,-248.5 2239,-248.5 2239,-248.5 2239,-165.5 2239,-67.42 2093.22,-36.48 2022.11,-27.22"/>
<polygon fill="midnightblue" stroke="midnightblue" points="2022.13,-23.69 2011.77,-25.96 2021.28,-30.64 2022.13,-23.69"/>
</g>
<!-- Node8&#45;&gt;Node5 -->
<g id="edge46" class="edge">
<title>Node8&#45;&gt;Node5</title>
<path fill="none" stroke="midnightblue" d="M1890.7,-387.47C1948.08,-375.07 2037.32,-355.79 2096.93,-342.91"/>
<polygon fill="midnightblue" stroke="midnightblue" points="2097.94,-346.27 2106.97,-340.74 2096.46,-339.43 2097.94,-346.27"/>
</g>
<!-- Node8&#45;&gt;Node7 -->
<g id="edge14" class="edge">
<title>Node8&#45;&gt;Node7</title>
<path fill="none" stroke="midnightblue" d="M1892.27,-391.23C1921.36,-384.53 1955.61,-372.5 1980,-351 2009.97,-324.58 2010.11,-308.95 2019,-270 2026.44,-237.41 2040.33,-161.53 2018,-81 2014.36,-67.86 2006.89,-54.66 1999.88,-44.23"/>
<polygon fill="midnightblue" stroke="midnightblue" points="2002.58,-41.99 1993.94,-35.85 1996.86,-46.03 2002.58,-41.99"/>
</g>
<!-- Node9 -->
<g id="node9" class="node">
<title>Node9</title>
<g id="a_node9"><a xlink:title=" ">
<polygon fill="white" stroke="#bfbfbf" points="1861,-81.5 1861,-107.5 1937,-107.5 1937,-81.5 1861,-81.5"/>
<text text-anchor="middle" x="1899" y="-90.7" font-family="Source Sans Pro" font-size="16.00">iostream</text>
</a>
</g>
</g>
<!-- Node8&#45;&gt;Node9 -->
<g id="edge8" class="edge">
<title>Node8&#45;&gt;Node9</title>
<path fill="none" stroke="midnightblue" d="M1891.84,-387.42C1912.96,-380.19 1935.32,-368.81 1950,-351 2009.29,-279.05 2030.82,-224.62 1984,-144 1975.59,-129.52 1961.06,-119 1946.37,-111.54"/>
<polygon fill="midnightblue" stroke="midnightblue" points="1947.79,-108.34 1937.25,-107.28 1944.83,-114.69 1947.79,-108.34"/>
</g>
<!-- Node10 -->
<g id="node10" class="node">
<title>Node10</title>
<g id="a_node10"><a xlink:title=" ">
<polygon fill="white" stroke="#bfbfbf" points="1799,-234.5 1799,-260.5 1937,-260.5 1937,-234.5 1799,-234.5"/>
<text text-anchor="middle" x="1868" y="-243.7" font-family="Source Sans Pro" font-size="16.00">assimp/material.h</text>
</a>
</g>
</g>
<!-- Node8&#45;&gt;Node10 -->
<g id="edge9" class="edge">
<title>Node8&#45;&gt;Node10</title>
<path fill="none" stroke="midnightblue" d="M1866.1,-387.38C1881.68,-379.53 1899.08,-367.63 1908,-351 1922.68,-323.63 1902.57,-289.68 1885.95,-268.55"/>
<polygon fill="midnightblue" stroke="midnightblue" points="1888.45,-266.07 1879.38,-260.59 1883.05,-270.53 1888.45,-266.07"/>
</g>
<!-- Node11 -->
<g id="node11" class="node">
<title>Node11</title>
<g id="a_node11"><a xlink:title=" ">
<polygon fill="white" stroke="#bfbfbf" points="1875,-153.5 1875,-179.5 1975,-179.5 1975,-153.5 1875,-153.5"/>
<text text-anchor="middle" x="1925" y="-162.7" font-family="Source Sans Pro" font-size="16.00">stb_image.h</text>
</a>
</g>
</g>
<!-- Node8&#45;&gt;Node11 -->
<g id="edge10" class="edge">
<title>Node8&#45;&gt;Node11</title>
<path fill="none" stroke="midnightblue" d="M1871.69,-387.39C1889.86,-379.65 1910.69,-367.85 1924,-351 1959.24,-306.39 1955.9,-280.98 1946,-225 1943.84,-212.79 1939.28,-199.76 1934.97,-189.2"/>
<polygon fill="midnightblue" stroke="midnightblue" points="1938.15,-187.74 1930.99,-179.94 1931.72,-190.5 1938.15,-187.74"/>
</g>
<!-- Node12 -->
<g id="node12" class="node">
<title>Node12</title>
<g id="a_node12"><a xlink:title=" ">
<polygon fill="white" stroke="#bfbfbf" points="1481.5,-315.5 1481.5,-341.5 1612.5,-341.5 1612.5,-315.5 1481.5,-315.5"/>
<text text-anchor="middle" x="1547" y="-324.7" font-family="Source Sans Pro" font-size="16.00">assimp/texture.h</text>
</a>
</g>
</g>
<!-- Node8&#45;&gt;Node12 -->
<g id="edge11" class="edge">
<title>Node8&#45;&gt;Node12</title>
<path fill="none" stroke="midnightblue" d="M1778.29,-387.48C1735.26,-378.14 1674.71,-364.55 1622,-351 1613.89,-348.92 1605.33,-346.59 1597,-344.25"/>
<polygon fill="midnightblue" stroke="midnightblue" points="1597.94,-340.88 1587.37,-341.52 1596.03,-347.61 1597.94,-340.88"/>
</g>
<!-- Node13 -->
<g id="node13" class="node">
<title>Node13</title>
<g id="a_node13"><a xlink:title=" ">
<polygon fill="white" stroke="#bfbfbf" points="1631,-315.5 1631,-341.5 1753,-341.5 1753,-315.5 1631,-315.5"/>
<text text-anchor="middle" x="1692" y="-324.7" font-family="Source Sans Pro" font-size="16.00">assimp/scene.h</text>
</a>
</g>
</g>
<!-- Node8&#45;&gt;Node13 -->
<g id="edge12" class="edge">
<title>Node8&#45;&gt;Node13</title>
<path fill="none" stroke="midnightblue" d="M1810.42,-387.47C1787.09,-376.05 1751.83,-358.79 1725.85,-346.07"/>
<polygon fill="midnightblue" stroke="midnightblue" points="1727.26,-342.86 1716.74,-341.61 1724.18,-349.15 1727.26,-342.86"/>
</g>
<!-- Node14 -->
<g id="node14" class="node">
<title>Node14</title>
<g id="a_node14"><a xlink:title=" ">
<polygon fill="white" stroke="#bfbfbf" points="1771,-315.5 1771,-341.5 1899,-341.5 1899,-315.5 1771,-315.5"/>
<text text-anchor="middle" x="1835" y="-324.7" font-family="Source Sans Pro" font-size="16.00">unordered_map</text>
</a>
</g>
</g>
<!-- Node8&#45;&gt;Node14 -->
<g id="edge13" class="edge">
<title>Node8&#45;&gt;Node14</title>
<path fill="none" stroke="midnightblue" d="M1835,-387.31C1835,-377.47 1835,-363.38 1835,-351.57"/>
<polygon fill="midnightblue" stroke="midnightblue" points="1838.5,-351.55 1835,-341.55 1831.5,-351.55 1838.5,-351.55"/>
</g>
<!-- Node15 -->
<g id="node15" class="node">
<title>Node15</title>
<g id="a_node15"><a xlink:href="_i_e_texture_8hpp.html" target="_top" xlink:title=" ">
<polygon fill="white" stroke="black" points="1306.5,-315.5 1306.5,-341.5 1463.5,-341.5 1463.5,-315.5 1306.5,-315.5"/>
<text text-anchor="middle" x="1385" y="-324.7" font-family="Source Sans Pro" font-size="16.00">Image/IETexture.hpp</text>
</a>
</g>
</g>
<!-- Node8&#45;&gt;Node15 -->
<g id="edge15" class="edge">
<title>Node8&#45;&gt;Node15</title>
<path fill="none" stroke="midnightblue" d="M1777.96,-393.76C1706.38,-386.11 1580.02,-371.18 1473,-351 1462.35,-348.99 1451.06,-346.51 1440.24,-343.95"/>
<polygon fill="midnightblue" stroke="midnightblue" points="1441.02,-340.53 1430.47,-341.59 1439.37,-347.34 1441.02,-340.53"/>
</g>
<!-- Node25 -->
<g id="node25" class="node">
<title>Node25</title>
<g id="a_node25"><a xlink:href="_i_e_renderable_settings_8hpp.html" target="_top" xlink:title=" ">
<polygon fill="white" stroke="black" points="902.5,-234.5 902.5,-260.5 1093.5,-260.5 1093.5,-234.5 902.5,-234.5"/>
<text text-anchor="middle" x="998" y="-243.7" font-family="Source Sans Pro" font-size="16.00">IERenderableSettings.hpp</text>
</a>
</g>
</g>
<!-- Node8&#45;&gt;Node25 -->
<g id="edge41" class="edge">
<title>Node8&#45;&gt;Node25</title>
<path fill="none" stroke="midnightblue" d="M1777.79,-398.83C1678.75,-396.69 1469.43,-387.77 1297,-351 1200.05,-330.33 1091.03,-287.79 1035.26,-264.54"/>
<polygon fill="midnightblue" stroke="midnightblue" points="1036.38,-261.21 1025.8,-260.57 1033.67,-267.67 1036.38,-261.21"/>
</g>
<!-- Node15&#45;&gt;Node2 -->
<g id="edge39" class="edge">
<title>Node15&#45;&gt;Node2</title>
<path fill="none" stroke="midnightblue" d="M1306.11,-324.89C1049.24,-316.23 250.35,-287.99 198,-270 126.3,-245.36 61.84,-216.81 83,-144 92.26,-112.15 96.41,-100.82 123,-81 170.99,-45.23 240.42,-31.7 284.37,-26.59"/>
<polygon fill="midnightblue" stroke="midnightblue" points="284.85,-30.05 294.42,-25.51 284.11,-23.09 284.85,-30.05"/>
</g>
<!-- Node15&#45;&gt;Node7 -->
<g id="edge40" class="edge">
<title>Node15&#45;&gt;Node7</title>
<path fill="none" stroke="midnightblue" d="M1430.95,-315.41C1444.44,-312.09 1459.26,-308.68 1473,-306 1581.46,-284.86 1615.4,-308.42 1719,-270 1754.03,-257.01 1755.23,-238.66 1790,-225 1871.63,-192.95 1922.37,-251.39 1984,-189 2021.51,-151.02 2004.58,-81.01 1992.47,-45.45"/>
<polygon fill="midnightblue" stroke="midnightblue" points="1995.6,-43.83 1988.93,-35.6 1989.01,-46.19 1995.6,-43.83"/>
</g>
<!-- Node15&#45;&gt;Node10 -->
<g id="edge36" class="edge">
<title>Node15&#45;&gt;Node10</title>
<path fill="none" stroke="midnightblue" d="M1429.54,-315.48C1443.39,-312.05 1458.76,-308.55 1473,-306 1610.4,-281.39 1647.77,-295.56 1785,-270 1795.2,-268.1 1806,-265.64 1816.32,-263.07"/>
<polygon fill="midnightblue" stroke="midnightblue" points="1817.21,-266.45 1826.03,-260.58 1815.47,-259.67 1817.21,-266.45"/>
</g>
<!-- Node15&#45;&gt;Node11 -->
<g id="edge38" class="edge">
<title>Node15&#45;&gt;Node11</title>
<path fill="none" stroke="midnightblue" d="M1432.87,-315.41C1445.86,-312.23 1459.95,-308.89 1473,-306 1553.08,-288.26 1575.74,-294.56 1654,-270 1701.66,-255.04 1710.44,-243.1 1757,-225 1768.74,-220.43 1834.02,-198.24 1879.65,-182.81"/>
<polygon fill="midnightblue" stroke="midnightblue" points="1881,-186.05 1889.35,-179.53 1878.76,-179.41 1881,-186.05"/>
</g>
<!-- Node16 -->
<g id="node16" class="node">
<title>Node16</title>
<g id="a_node16"><a xlink:href="_i_e_image_8hpp.html" target="_top" xlink:title=" ">
<polygon fill="white" stroke="black" points="1272,-234.5 1272,-260.5 1374,-260.5 1374,-234.5 1272,-234.5"/>
<text text-anchor="middle" x="1323" y="-243.7" font-family="Source Sans Pro" font-size="16.00">IEImage.hpp</text>
</a>
</g>
</g>
<!-- Node15&#45;&gt;Node16 -->
<g id="edge16" class="edge">
<title>Node15&#45;&gt;Node16</title>
<path fill="none" stroke="midnightblue" d="M1375.31,-315.16C1365.58,-302.75 1350.4,-283.42 1338.9,-268.76"/>
<polygon fill="midnightblue" stroke="midnightblue" points="1341.55,-266.46 1332.62,-260.76 1336.04,-270.78 1341.55,-266.46"/>
</g>
<!-- Node18 -->
<g id="node18" class="node">
<title>Node18</title>
<g id="a_node18"><a xlink:title=" ">
<polygon fill="white" stroke="#bfbfbf" points="576.5,-81.5 576.5,-107.5 701.5,-107.5 701.5,-81.5 576.5,-81.5"/>
<text text-anchor="middle" x="639" y="-90.7" font-family="Source Sans Pro" font-size="16.00">vulkan/vulkan.h</text>
</a>
</g>
</g>
<!-- Node15&#45;&gt;Node18 -->
<g id="edge37" class="edge">
<title>Node15&#45;&gt;Node18</title>
<path fill="none" stroke="midnightblue" d="M1306.23,-323.17C1208.4,-316.69 1036.83,-301.65 893,-270 780.17,-245.17 717.23,-279.96 646,-189 630.26,-168.9 631.18,-138.34 634.25,-117.68"/>
<polygon fill="midnightblue" stroke="midnightblue" points="637.74,-118.07 636.03,-107.62 630.84,-116.85 637.74,-118.07"/>
</g>
<!-- Node16&#45;&gt;Node2 -->
<g id="edge32" class="edge">
<title>Node16&#45;&gt;Node2</title>
<path fill="none" stroke="midnightblue" d="M1323.98,-234.27C1324.98,-212.6 1323.63,-167.55 1298,-144 1228.33,-79.98 545.04,-36.19 367.81,-25.85"/>
<polygon fill="midnightblue" stroke="midnightblue" points="367.78,-22.34 357.59,-25.26 367.38,-29.33 367.78,-22.34"/>
</g>
<!-- Node16&#45;&gt;Node3 -->
<g id="edge34" class="edge">
<title>Node16&#45;&gt;Node3</title>
<path fill="none" stroke="midnightblue" d="M1329.67,-234.19C1339.84,-213.57 1356.13,-171.61 1337,-144 1311.04,-106.55 1268.05,-144.67 1241,-108 1227.87,-90.21 1228.45,-64.14 1231.16,-45.67"/>
<polygon fill="midnightblue" stroke="midnightblue" points="1234.61,-46.25 1232.91,-35.79 1227.72,-45.03 1234.61,-46.25"/>
</g>
<!-- Node16&#45;&gt;Node7 -->
<g id="edge33" class="edge">
<title>Node16&#45;&gt;Node7</title>
<path fill="none" stroke="midnightblue" d="M1374.06,-237.59C1398.77,-233.45 1428.88,-228.65 1456,-225 1530.21,-215.02 1726.39,-226.84 1791,-189 1812.18,-176.6 1803.01,-158.23 1823,-144 1869.4,-110.96 1903.04,-145.41 1946,-108 1964.54,-91.85 1974.49,-64.86 1979.49,-45.74"/>
<polygon fill="midnightblue" stroke="midnightblue" points="1982.95,-46.32 1981.84,-35.78 1976.14,-44.71 1982.95,-46.32"/>
</g>
<!-- Node16&#45;&gt;Node11 -->
<g id="edge31" class="edge">
<title>Node16&#45;&gt;Node11</title>
<path fill="none" stroke="midnightblue" d="M1374.05,-237.48C1398.75,-233.31 1428.86,-228.52 1456,-225 1618.53,-203.91 1661.01,-213.94 1823,-189 1836.67,-186.89 1851.28,-184.13 1865.03,-181.29"/>
<polygon fill="midnightblue" stroke="midnightblue" points="1865.81,-184.7 1874.88,-179.21 1864.37,-177.85 1865.81,-184.7"/>
</g>
<!-- Node17 -->
<g id="node17" class="node">
<title>Node17</title>
<g id="a_node17"><a xlink:href="_i_e_dependency_8hpp.html" target="_top" xlink:title=" ">
<polygon fill="white" stroke="black" points="686.5,-144.5 686.5,-188.5 931.5,-188.5 931.5,-144.5 686.5,-144.5"/>
<text text-anchor="start" x="694.5" y="-171.7" font-family="Source Sans Pro" font-size="16.00">GraphicsModule/CommandBuffer</text>
<text text-anchor="middle" x="809" y="-153.7" font-family="Source Sans Pro" font-size="16.00">/IEDependency.hpp</text>
</a>
</g>
</g>
<!-- Node16&#45;&gt;Node17 -->
<g id="edge17" class="edge">
<title>Node16&#45;&gt;Node17</title>
<path fill="none" stroke="midnightblue" d="M1271.84,-238.64C1195.5,-226.9 1049.25,-204.43 941.5,-187.86"/>
<polygon fill="midnightblue" stroke="midnightblue" points="941.94,-184.39 931.52,-186.33 940.88,-191.31 941.94,-184.39"/>
</g>
<!-- Node16&#45;&gt;Node18 -->
<g id="edge30" class="edge">
<title>Node16&#45;&gt;Node18</title>
<path fill="none" stroke="midnightblue" d="M1320.16,-234.42C1314.22,-212.14 1298.18,-164.98 1265,-144 1217.73,-114.12 818.71,-112.8 763,-108 746.49,-106.58 728.75,-104.88 712.01,-103.21"/>
<polygon fill="midnightblue" stroke="midnightblue" points="712.03,-99.7 701.73,-102.18 711.33,-106.66 712.03,-99.7"/>
</g>
<!-- Node20 -->
<g id="node20" class="node">
<title>Node20</title>
<g id="a_node20"><a xlink:href="_i_e_a_p_i_8hpp.html" target="_top" xlink:title=" ">
<polygon fill="white" stroke="black" points="1465.5,-153.5 1465.5,-179.5 1548.5,-179.5 1548.5,-153.5 1465.5,-153.5"/>
<text text-anchor="middle" x="1507" y="-162.7" font-family="Source Sans Pro" font-size="16.00">IEAPI.hpp</text>
</a>
</g>
</g>
<!-- Node16&#45;&gt;Node20 -->
<g id="edge22" class="edge">
<title>Node16&#45;&gt;Node20</title>
<path fill="none" stroke="midnightblue" d="M1351.35,-234.33C1383.04,-220.72 1434.52,-198.62 1469.52,-183.59"/>
<polygon fill="midnightblue" stroke="midnightblue" points="1471.11,-186.72 1478.92,-179.55 1468.35,-180.28 1471.11,-186.72"/>
</g>
<!-- Node22 -->
<g id="node22" class="node">
<title>Node22</title>
<g id="a_node22"><a xlink:title=" ">
<polygon fill="white" stroke="#bfbfbf" points="1173.5,-153.5 1173.5,-179.5 1256.5,-179.5 1256.5,-153.5 1173.5,-153.5"/>
<text text-anchor="middle" x="1215" y="-162.7" font-family="Source Sans Pro" font-size="16.00">GL/glew.h</text>
</a>
</g>
</g>
<!-- Node16&#45;&gt;Node22 -->
<g id="edge28" class="edge">
<title>Node16&#45;&gt;Node22</title>
<path fill="none" stroke="midnightblue" d="M1306.12,-234.16C1288.37,-221.17 1260.24,-200.59 1239.93,-185.74"/>
<polygon fill="midnightblue" stroke="midnightblue" points="1241.89,-182.84 1231.76,-179.76 1237.76,-188.49 1241.89,-182.84"/>
</g>
<!-- Node23 -->
<g id="node23" class="node">
<title>Node23</title>
<g id="a_node23"><a xlink:title=" ">
<polygon fill="white" stroke="#bfbfbf" points="1026.5,-153.5 1026.5,-179.5 1155.5,-179.5 1155.5,-153.5 1026.5,-153.5"/>
<text text-anchor="middle" x="1091" y="-162.7" font-family="Source Sans Pro" font-size="16.00">vk_mem_alloc.h</text>
</a>
</g>
</g>
<!-- Node16&#45;&gt;Node23 -->
<g id="edge29" class="edge">
<title>Node16&#45;&gt;Node23</title>
<path fill="none" stroke="midnightblue" d="M1287.51,-234.42C1246.92,-220.59 1180.36,-197.93 1136.12,-182.86"/>
<polygon fill="midnightblue" stroke="midnightblue" points="1137.08,-179.49 1126.48,-179.58 1134.82,-186.12 1137.08,-179.49"/>
</g>
<!-- Node24 -->
<g id="node24" class="node">
<title>Node24</title>
<g id="a_node24"><a xlink:title=" ">
<polygon fill="white" stroke="#bfbfbf" points="430,-153.5 430,-179.5 516,-179.5 516,-153.5 430,-153.5"/>
<text text-anchor="middle" x="473" y="-162.7" font-family="Source Sans Pro" font-size="16.00">functional</text>
</a>
</g>
</g>
<!-- Node16&#45;&gt;Node24 -->
<g id="edge35" class="edge">
<title>Node16&#45;&gt;Node24</title>
<path fill="none" stroke="midnightblue" d="M1271.66,-241.32C1226.88,-236.85 1160.16,-230.29 1102,-225 913.21,-207.82 865.71,-206.94 677,-189 625.85,-184.14 567.56,-177.93 526.43,-173.43"/>
<polygon fill="midnightblue" stroke="midnightblue" points="526.67,-169.94 516.35,-172.33 525.91,-176.9 526.67,-169.94"/>
</g>
<!-- Node17&#45;&gt;Node3 -->
<g id="edge18" class="edge">
<title>Node17&#45;&gt;Node3</title>
<path fill="none" stroke="midnightblue" d="M851.71,-144.4C890.48,-125.86 949.59,-99.08 1003,-81 1069.59,-58.46 1149.63,-40.65 1196.45,-31.13"/>
<polygon fill="midnightblue" stroke="midnightblue" points="1197.37,-34.52 1206.49,-29.11 1195.99,-27.65 1197.37,-34.52"/>
</g>
<!-- Node17&#45;&gt;Node7 -->
<g id="edge20" class="edge">
<title>Node17&#45;&gt;Node7</title>
<path fill="none" stroke="midnightblue" d="M931.61,-152.62C959.67,-149.74 989.36,-146.72 1017,-144 1188.03,-127.16 1232.17,-134.33 1402,-108 1457.74,-99.36 1470.41,-90.52 1526,-81 1680.84,-54.48 1867.1,-34.86 1945.87,-27.12"/>
<polygon fill="midnightblue" stroke="midnightblue" points="1946.64,-30.56 1956.25,-26.11 1945.96,-23.6 1946.64,-30.56"/>
</g>
<!-- Node17&#45;&gt;Node18 -->
<g id="edge19" class="edge">
<title>Node17&#45;&gt;Node18</title>
<path fill="none" stroke="midnightblue" d="M757.99,-144.5C732.21,-133.88 701.42,-121.2 677.62,-111.4"/>
<polygon fill="midnightblue" stroke="midnightblue" points="678.8,-108.1 668.22,-107.53 676.13,-114.57 678.8,-108.1"/>
</g>
<!-- Node19 -->
<g id="node19" class="node">
<title>Node19</title>
<g id="a_node19"><a xlink:title=" ">
<polygon fill="white" stroke="#bfbfbf" points="772,-81.5 772,-107.5 846,-107.5 846,-81.5 772,-81.5"/>
<text text-anchor="middle" x="809" y="-90.7" font-family="Source Sans Pro" font-size="16.00">memory</text>
</a>
</g>
</g>
<!-- Node17&#45;&gt;Node19 -->
<g id="edge21" class="edge">
<title>Node17&#45;&gt;Node19</title>
<path fill="none" stroke="midnightblue" d="M809,-144.5C809,-136 809,-126.19 809,-117.59"/>
<polygon fill="midnightblue" stroke="midnightblue" points="812.5,-117.53 809,-107.53 805.5,-117.53 812.5,-117.53"/>
</g>
<!-- Node20&#45;&gt;Node7 -->
<g id="edge27" class="edge">
<title>Node20&#45;&gt;Node7</title>
<path fill="none" stroke="midnightblue" d="M1510.15,-153.33C1515.73,-134.42 1529.27,-98.37 1555,-81 1618.65,-38.04 1854.09,-27.03 1946.46,-24.33"/>
<polygon fill="midnightblue" stroke="midnightblue" points="1946.59,-27.83 1956.49,-24.05 1946.39,-20.83 1946.59,-27.83"/>
</g>
<!-- Node21 -->
<g id="node21" class="node">
<title>Node21</title>
<g id="a_node21"><a xlink:href="_i_e_version_8hpp.html" target="_top" xlink:title=" ">
<polygon fill="white" stroke="black" points="1283,-81.5 1283,-107.5 1393,-107.5 1393,-81.5 1283,-81.5"/>
<text text-anchor="middle" x="1338" y="-90.7" font-family="Source Sans Pro" font-size="16.00">IEVersion.hpp</text>
</a>
</g>
</g>
<!-- Node20&#45;&gt;Node21 -->
<g id="edge23" class="edge">
<title>Node20&#45;&gt;Node21</title>
<path fill="none" stroke="midnightblue" d="M1477.95,-153.47C1450.02,-141.9 1407.61,-124.33 1376.8,-111.57"/>
<polygon fill="midnightblue" stroke="midnightblue" points="1377.82,-108.2 1367.24,-107.61 1375.14,-114.67 1377.82,-108.2"/>
</g>
<!-- Node21&#45;&gt;Node2 -->
<g id="edge24" class="edge">
<title>Node21&#45;&gt;Node2</title>
<path fill="none" stroke="midnightblue" d="M1282.94,-88.5C1255.86,-86.1 1222.73,-83.27 1193,-81 875.84,-56.81 492.97,-33.46 367.79,-25.98"/>
<polygon fill="midnightblue" stroke="midnightblue" points="367.7,-22.47 357.51,-25.36 367.28,-29.45 367.7,-22.47"/>
</g>
<!-- Node21&#45;&gt;Node3 -->
<g id="edge26" class="edge">
<title>Node21&#45;&gt;Node3</title>
<path fill="none" stroke="midnightblue" d="M1320.23,-81.31C1304.14,-70.27 1280.24,-53.86 1262,-41.34"/>
<polygon fill="midnightblue" stroke="midnightblue" points="1263.79,-38.33 1253.56,-35.55 1259.83,-44.1 1263.79,-38.33"/>
</g>
<!-- Node21&#45;&gt;Node7 -->
<g id="edge25" class="edge">
<title>Node21&#45;&gt;Node7</title>
<path fill="none" stroke="midnightblue" d="M1393.3,-83.08C1397.93,-82.33 1402.54,-81.63 1407,-81 1609.55,-52.61 1854.02,-33.06 1946.3,-26.21"/>
<polygon fill="midnightblue" stroke="midnightblue" points="1946.57,-29.7 1956.28,-25.47 1946.05,-22.72 1946.57,-29.7"/>
</g>
<!-- Node25&#45;&gt;Node2 -->
<g id="edge44" class="edge">
<title>Node25&#45;&gt;Node2</title>
<path fill="none" stroke="midnightblue" d="M993.15,-234.42C984.6,-214.13 965.32,-172.65 940,-144 908.85,-108.77 898.79,-98.14 855,-81 766.23,-46.26 476.79,-30.16 367.92,-25.23"/>
<polygon fill="midnightblue" stroke="midnightblue" points="367.8,-21.72 357.66,-24.77 367.49,-28.71 367.8,-21.72"/>
</g>
<!-- Node25&#45;&gt;Node3 -->
<g id="edge45" class="edge">
<title>Node25&#45;&gt;Node3</title>
<path fill="none" stroke="midnightblue" d="M997.09,-234.48C996.17,-213.93 997.08,-171.58 1017,-144 1061.22,-82.78 1146.51,-49.11 1196.61,-33.83"/>
<polygon fill="midnightblue" stroke="midnightblue" points="1197.83,-37.11 1206.43,-30.92 1195.85,-30.4 1197.83,-37.11"/>
</g>
<!-- Node25&#45;&gt;Node18 -->
<g id="edge43" class="edge">
<title>Node25&#45;&gt;Node18</title>
<path fill="none" stroke="midnightblue" d="M902.26,-239.5C820.51,-231.73 710.93,-216.49 677,-189 655.22,-171.35 645.82,-139.25 641.84,-117.65"/>
<polygon fill="midnightblue" stroke="midnightblue" points="645.28,-117.04 640.25,-107.72 638.37,-118.15 645.28,-117.04"/>
</g>
<!-- Node25&#45;&gt;Node22 -->
<g id="edge42" class="edge">
<title>Node25&#45;&gt;Node22</title>
<path fill="none" stroke="midnightblue" d="M1035.17,-234.4C1068.98,-223.21 1120.15,-205.82 1164,-189 1168.53,-187.26 1173.25,-185.38 1177.92,-183.46"/>
<polygon fill="midnightblue" stroke="midnightblue" points="1179.45,-186.62 1187.34,-179.55 1176.76,-180.16 1179.45,-186.62"/>
</g>
<!-- Node26&#45;&gt;Node2 -->
<g id="edge50" class="edge">
<title>Node26&#45;&gt;Node2</title>
<path fill="none" stroke="midnightblue" d="M206.82,-231.77C159.76,-222.05 109.09,-207.66 95,-189 82.95,-173.04 84.63,-161.1 95,-144 136.19,-76.05 229.63,-44.61 284.21,-31.58"/>
<polygon fill="midnightblue" stroke="midnightblue" points="285.29,-34.92 294.26,-29.28 283.73,-28.1 285.29,-34.92"/>
</g>
<!-- Node26&#45;&gt;Node3 -->
<g id="edge54" class="edge">
<title>Node26&#45;&gt;Node3</title>
<path fill="none" stroke="midnightblue" d="M304.59,-225.26C313.35,-203.01 329.49,-168.02 352,-144 388.17,-105.39 402.71,-97.42 453,-81 593.33,-35.19 1056.75,-25.74 1196.05,-23.91"/>
<polygon fill="midnightblue" stroke="midnightblue" points="1196.31,-27.41 1206.27,-23.78 1196.23,-20.41 1196.31,-27.41"/>
</g>
<!-- Node26&#45;&gt;Node17 -->
<g id="edge48" class="edge">
<title>Node26&#45;&gt;Node17</title>
<path fill="none" stroke="midnightblue" d="M387.06,-232.6C467.13,-220.25 585.25,-202.02 676.16,-188"/>
<polygon fill="midnightblue" stroke="midnightblue" points="676.92,-191.42 686.27,-186.44 675.85,-184.5 676.92,-191.42"/>
</g>
<!-- Node26&#45;&gt;Node18 -->
<g id="edge49" class="edge">
<title>Node26&#45;&gt;Node18</title>
<path fill="none" stroke="midnightblue" d="M316.35,-225.38C339.1,-201.87 379.1,-164.49 421,-144 466.56,-121.72 522.48,-109.54 566.28,-102.97"/>
<polygon fill="midnightblue" stroke="midnightblue" points="566.88,-106.42 576.28,-101.53 565.88,-99.49 566.88,-106.42"/>
</g>
<!-- Node26&#45;&gt;Node24 -->
<g id="edge51" class="edge">
<title>Node26&#45;&gt;Node24</title>
<path fill="none" stroke="midnightblue" d="M344.16,-225.33C373.27,-212.26 410.05,-195.76 436.85,-183.73"/>
<polygon fill="midnightblue" stroke="midnightblue" points="438.55,-186.8 446.24,-179.51 435.68,-180.42 438.55,-186.8"/>
</g>
<!-- Node27 -->
<g id="node27" class="node">
<title>Node27</title>
<g id="a_node27"><a xlink:title=" ">
<polygon fill="white" stroke="#bfbfbf" points="186.5,-153.5 186.5,-179.5 259.5,-179.5 259.5,-153.5 186.5,-153.5"/>
<text text-anchor="middle" x="223" y="-162.7" font-family="Source Sans Pro" font-size="16.00">optional</text>
</a>
</g>
</g>
<!-- Node26&#45;&gt;Node27 -->
<g id="edge52" class="edge">
<title>Node26&#45;&gt;Node27</title>
<path fill="none" stroke="midnightblue" d="M277.17,-225.33C266.04,-213.45 252.24,-198.72 241.36,-187.1"/>
<polygon fill="midnightblue" stroke="midnightblue" points="243.75,-184.53 234.36,-179.63 238.64,-189.32 243.75,-184.53"/>
</g>
<!-- Node28 -->
<g id="node28" class="node">
<title>Node28</title>
<g id="a_node28"><a xlink:title=" ">
<polygon fill="white" stroke="#bfbfbf" points="104,-153.5 104,-179.5 168,-179.5 168,-153.5 104,-153.5"/>
<text text-anchor="middle" x="136" y="-162.7" font-family="Source Sans Pro" font-size="16.00">variant</text>
</a>
</g>
</g>
<!-- Node26&#45;&gt;Node28 -->
<g id="edge53" class="edge">
<title>Node26&#45;&gt;Node28</title>
<path fill="none" stroke="midnightblue" d="M252.08,-225.45C229.46,-214.73 201.68,-201.38 177,-189 174.05,-187.52 171,-185.97 167.95,-184.4"/>
<polygon fill="midnightblue" stroke="midnightblue" points="169.4,-181.2 158.91,-179.7 166.17,-187.42 169.4,-181.2"/>
</g>
<!-- Node29&#45;&gt;Node3 -->
<g id="edge77" class="edge">
<title>Node29&#45;&gt;Node3</title>
<path fill="none" stroke="midnightblue" d="M765.3,-326.84C946.77,-324.58 1341.93,-314.54 1383,-270 1409.01,-241.79 1360.68,-150.18 1355,-144 1328.36,-114.98 1301.92,-135.8 1274,-108 1256.67,-90.75 1246.52,-64.19 1241.14,-45.46"/>
<polygon fill="midnightblue" stroke="midnightblue" points="1244.5,-44.49 1238.56,-35.72 1237.74,-46.28 1244.5,-44.49"/>
</g>
<!-- Node29&#45;&gt;Node17 -->
<g id="edge74" class="edge">
<title>Node29&#45;&gt;Node17</title>
<path fill="none" stroke="midnightblue" d="M692.79,-306.25C716.39,-278.08 758.12,-228.25 784.63,-196.6"/>
<polygon fill="midnightblue" stroke="midnightblue" points="787.61,-198.49 791.35,-188.58 782.24,-194 787.61,-198.49"/>
</g>
<!-- Node29&#45;&gt;Node18 -->
<g id="edge75" class="edge">
<title>Node29&#45;&gt;Node18</title>
<path fill="none" stroke="midnightblue" d="M660.41,-306.16C643.46,-279.94 616.46,-233.45 606,-189 601.42,-169.53 600.11,-163.11 606,-144 609.16,-133.74 615.31,-123.71 621.45,-115.46"/>
<polygon fill="midnightblue" stroke="midnightblue" points="624.24,-117.57 627.73,-107.56 618.77,-113.21 624.24,-117.57"/>
</g>
<!-- Node29&#45;&gt;Node24 -->
<g id="edge76" class="edge">
<title>Node29&#45;&gt;Node24</title>
<path fill="none" stroke="midnightblue" d="M584.92,-315.61C530.55,-306.38 468.65,-291.49 452,-270 433.7,-246.38 447.59,-210.79 459.86,-188.37"/>
<polygon fill="midnightblue" stroke="midnightblue" points="462.93,-190.05 464.91,-179.64 456.87,-186.54 462.93,-190.05"/>
</g>
<!-- Node30 -->
<g id="node30" class="node">
<title>Node30</title>
<g id="a_node30"><a xlink:href="_i_e_shader_8hpp.html" target="_top" xlink:title=" ">
<polygon fill="white" stroke="black" points="1465,-225.5 1465,-269.5 1645,-269.5 1645,-225.5 1465,-225.5"/>
<text text-anchor="start" x="1473" y="-252.7" font-family="Source Sans Pro" font-size="16.00">GraphicsModule/Shader</text>
<text text-anchor="middle" x="1555" y="-234.7" font-family="Source Sans Pro" font-size="16.00">/IEShader.hpp</text>
</a>
</g>
</g>
<!-- Node29&#45;&gt;Node30 -->
<g id="edge56" class="edge">
<title>Node29&#45;&gt;Node30</title>
<path fill="none" stroke="midnightblue" d="M765.02,-324.63C910.05,-319.14 1204.16,-304.51 1451,-270 1452.28,-269.82 1453.58,-269.63 1454.87,-269.44"/>
<polygon fill="midnightblue" stroke="midnightblue" points="1455.6,-272.87 1464.93,-267.87 1454.51,-265.96 1455.6,-272.87"/>
</g>
<!-- Node30&#45;&gt;Node3 -->
<g id="edge60" class="edge">
<title>Node30&#45;&gt;Node3</title>
<path fill="none" stroke="midnightblue" d="M1562.33,-225.27C1568.58,-203.03 1574.23,-168.06 1558,-144 1555.39,-140.13 1406.38,-82.64 1402,-81 1358.85,-64.83 1308.81,-47.72 1275.05,-36.41"/>
<polygon fill="midnightblue" stroke="midnightblue" points="1276.14,-33.08 1265.55,-33.23 1273.92,-39.72 1276.14,-33.08"/>
</g>
<!-- Node30&#45;&gt;Node7 -->
<g id="edge59" class="edge">
<title>Node30&#45;&gt;Node7</title>
<path fill="none" stroke="midnightblue" d="M1645.25,-226.03C1646.85,-225.69 1648.43,-225.34 1650,-225 1726.75,-208.33 1754.33,-227.11 1823,-189 1847.19,-175.58 1842.54,-158.65 1866,-144 1910.71,-116.08 1946.65,-149.62 1979,-108 1992.65,-90.44 1991.91,-64.12 1989.02,-45.53"/>
<polygon fill="midnightblue" stroke="midnightblue" points="1992.44,-44.79 1987.17,-35.6 1985.56,-46.07 1992.44,-44.79"/>
</g>
<!-- Node30&#45;&gt;Node18 -->
<g id="edge58" class="edge">
<title>Node30&#45;&gt;Node18</title>
<path fill="none" stroke="midnightblue" d="M1514,-225.48C1464.32,-201.12 1377.4,-162.03 1298,-144 1065.6,-91.22 1000.48,-127.95 763,-108 746.48,-106.61 728.75,-104.94 712,-103.27"/>
<polygon fill="midnightblue" stroke="midnightblue" points="712.03,-99.75 701.73,-102.23 711.33,-106.72 712.03,-99.75"/>
</g>
<!-- Node30&#45;&gt;Node20 -->
<g id="edge57" class="edge">
<title>Node30&#45;&gt;Node20</title>
<path fill="none" stroke="midnightblue" d="M1542.14,-225.33C1535.19,-213.9 1526.65,-199.85 1519.73,-188.46"/>
<polygon fill="midnightblue" stroke="midnightblue" points="1522.55,-186.36 1514.37,-179.63 1516.57,-189.99 1522.55,-186.36"/>
</g>
<!-- Node30&#45;&gt;Node22 -->
<g id="edge73" class="edge">
<title>Node30&#45;&gt;Node22</title>
<path fill="none" stroke="midnightblue" d="M1464.78,-225.54C1401.39,-210.81 1318.85,-191.63 1266.38,-179.44"/>
<polygon fill="midnightblue" stroke="midnightblue" points="1267.15,-176.02 1256.62,-177.17 1265.57,-182.84 1267.15,-176.02"/>
</g>
<!-- Node30&#45;&gt;Node24 -->
<g id="edge61" class="edge">
<title>Node30&#45;&gt;Node24</title>
<path fill="none" stroke="midnightblue" d="M1464.97,-233.98C1438.6,-230.66 1409.68,-227.34 1383,-225 1070.02,-197.5 990.23,-213.47 677,-189 625.78,-185 567.5,-178.68 526.38,-173.92"/>
<polygon fill="midnightblue" stroke="midnightblue" points="526.65,-170.43 516.31,-172.75 525.84,-177.38 526.65,-170.43"/>
</g>
<!-- Node31 -->
<g id="node31" class="node">
<title>Node31</title>
<g id="a_node31"><a xlink:href="_i_e_file_8hpp.html" target="_top" xlink:title=" ">
<polygon fill="white" stroke="black" points="1604.5,-144.5 1604.5,-188.5 1781.5,-188.5 1781.5,-144.5 1604.5,-144.5"/>
<text text-anchor="start" x="1612.5" y="-171.7" font-family="Source Sans Pro" font-size="16.00">Core/FileSystemModule</text>
<text text-anchor="middle" x="1693" y="-153.7" font-family="Source Sans Pro" font-size="16.00">/IEFile.hpp</text>
</a>
</g>
</g>
<!-- Node30&#45;&gt;Node31 -->
<g id="edge62" class="edge">
<title>Node30&#45;&gt;Node31</title>
<path fill="none" stroke="midnightblue" d="M1591.98,-225.33C1608.84,-215.68 1628.98,-204.15 1646.82,-193.93"/>
<polygon fill="midnightblue" stroke="midnightblue" points="1648.98,-196.73 1655.92,-188.73 1645.5,-190.66 1648.98,-196.73"/>
</g>
<!-- Node31&#45;&gt;Node3 -->
<g id="edge67" class="edge">
<title>Node31&#45;&gt;Node3</title>
<path fill="none" stroke="midnightblue" d="M1643.4,-144.34C1599.23,-126.01 1532.56,-99.58 1473,-81 1404.47,-59.62 1322.75,-41.34 1275.38,-31.43"/>
<polygon fill="midnightblue" stroke="midnightblue" points="1276.02,-27.99 1265.52,-29.38 1274.6,-34.84 1276.02,-27.99"/>
</g>
<!-- Node31&#45;&gt;Node7 -->
<g id="edge68" class="edge">
<title>Node31&#45;&gt;Node7</title>
<path fill="none" stroke="midnightblue" d="M1742.28,-144.44C1764.64,-134.29 1791.13,-121.42 1814,-108 1831.87,-97.51 1833.96,-91.19 1852,-81 1882.82,-63.59 1919.93,-47.84 1946.95,-37.25"/>
<polygon fill="midnightblue" stroke="midnightblue" points="1948.35,-40.46 1956.41,-33.59 1945.82,-33.93 1948.35,-40.46"/>
</g>
<!-- Node31&#45;&gt;Node9 -->
<g id="edge72" class="edge">
<title>Node31&#45;&gt;Node9</title>
<path fill="none" stroke="midnightblue" d="M1754.81,-144.5C1786.75,-133.64 1825.02,-120.64 1854.11,-110.76"/>
<polygon fill="midnightblue" stroke="midnightblue" points="1855.25,-114.06 1863.59,-107.53 1853,-107.43 1855.25,-114.06"/>
</g>
<!-- Node32 -->
<g id="node32" class="node">
<title>Node32</title>
<g id="a_node32"><a xlink:href="_i_e_logger_8hpp.html" target="_top" xlink:title=" ">
<polygon fill="white" stroke="black" points="2267.5,-81.5 2267.5,-107.5 2490.5,-107.5 2490.5,-81.5 2267.5,-81.5"/>
<text text-anchor="middle" x="2379" y="-90.7" font-family="Source Sans Pro" font-size="16.00">Core/LogModule/IELogger.hpp</text>
</a>
</g>
</g>
<!-- Node31&#45;&gt;Node32 -->
<g id="edge63" class="edge">
<title>Node31&#45;&gt;Node32</title>
<path fill="none" stroke="midnightblue" d="M1781.84,-153.95C1808.85,-150.58 1838.62,-146.99 1866,-144 1999.61,-129.38 2153.1,-115.22 2257.1,-106.01"/>
<polygon fill="midnightblue" stroke="midnightblue" points="2257.67,-109.47 2267.32,-105.11 2257.05,-102.5 2257.67,-109.47"/>
</g>
<!-- Node35 -->
<g id="node35" class="node">
<title>Node35</title>
<g id="a_node35"><a xlink:title=" ">
<polygon fill="white" stroke="#bfbfbf" points="1563.5,-81.5 1563.5,-107.5 1648.5,-107.5 1648.5,-81.5 1563.5,-81.5"/>
<text text-anchor="middle" x="1606" y="-90.7" font-family="Source Sans Pro" font-size="16.00">filesystem</text>
</a>
</g>
</g>
<!-- Node31&#45;&gt;Node35 -->
<g id="edge69" class="edge">
<title>Node31&#45;&gt;Node35</title>
<path fill="none" stroke="midnightblue" d="M1666.9,-144.5C1654.81,-134.78 1640.59,-123.33 1628.92,-113.95"/>
<polygon fill="midnightblue" stroke="midnightblue" points="1630.94,-111.07 1620.95,-107.53 1626.55,-116.53 1630.94,-111.07"/>
</g>
<!-- Node36 -->
<g id="node36" class="node">
<title>Node36</title>
<g id="a_node36"><a xlink:title=" ">
<polygon fill="white" stroke="#bfbfbf" points="1667,-81.5 1667,-107.5 1735,-107.5 1735,-81.5 1667,-81.5"/>
<text text-anchor="middle" x="1701" y="-90.7" font-family="Source Sans Pro" font-size="16.00">fstream</text>
</a>
</g>
</g>
<!-- Node31&#45;&gt;Node36 -->
<g id="edge70" class="edge">
<title>Node31&#45;&gt;Node36</title>
<path fill="none" stroke="midnightblue" d="M1695.4,-144.5C1696.37,-136 1697.49,-126.19 1698.48,-117.59"/>
<polygon fill="midnightblue" stroke="midnightblue" points="1701.97,-117.86 1699.63,-107.53 1695.01,-117.07 1701.97,-117.86"/>
</g>
<!-- Node37 -->
<g id="node37" class="node">
<title>Node37</title>
<g id="a_node37"><a xlink:title=" ">
<polygon fill="white" stroke="#bfbfbf" points="1753,-81.5 1753,-107.5 1805,-107.5 1805,-81.5 1753,-81.5"/>
<text text-anchor="middle" x="1779" y="-90.7" font-family="Source Sans Pro" font-size="16.00">regex</text>
</a>
</g>
</g>
<!-- Node31&#45;&gt;Node37 -->
<g id="edge71" class="edge">
<title>Node31&#45;&gt;Node37</title>
<path fill="none" stroke="midnightblue" d="M1718.8,-144.5C1730.75,-134.78 1744.81,-123.33 1756.34,-113.95"/>
<polygon fill="midnightblue" stroke="midnightblue" points="1758.67,-116.56 1764.22,-107.53 1754.25,-111.13 1758.67,-116.56"/>
</g>
<!-- Node32&#45;&gt;Node7 -->
<g id="edge66" class="edge">
<title>Node32&#45;&gt;Node7</title>
<path fill="none" stroke="midnightblue" d="M2311.1,-81.47C2227.56,-66.66 2088.62,-42.04 2021.96,-30.23"/>
<polygon fill="midnightblue" stroke="midnightblue" points="2022.36,-26.74 2011.9,-28.45 2021.14,-33.64 2022.36,-26.74"/>
</g>
<!-- Node33 -->
<g id="node33" class="node">
<title>Node33</title>
<g id="a_node33"><a xlink:title=" ">
<polygon fill="white" stroke="#bfbfbf" points="2238.5,-9.5 2238.5,-35.5 2365.5,-35.5 2365.5,-9.5 2238.5,-9.5"/>
<text text-anchor="middle" x="2302" y="-18.7" font-family="Source Sans Pro" font-size="16.00">spdlog/spdlog.h</text>
</a>
</g>
</g>
<!-- Node32&#45;&gt;Node33 -->
<g id="edge64" class="edge">
<title>Node32&#45;&gt;Node33</title>
<path fill="none" stroke="midnightblue" d="M2365.59,-81.31C2353.77,-70.57 2336.38,-54.75 2322.76,-42.38"/>
<polygon fill="midnightblue" stroke="midnightblue" points="2325.01,-39.69 2315.26,-35.55 2320.3,-44.87 2325.01,-39.69"/>
</g>
<!-- Node34 -->
<g id="node34" class="node">
<title>Node34</title>
<g id="a_node34"><a xlink:title=" ">
<polygon fill="white" stroke="#bfbfbf" points="2383.5,-0.5 2383.5,-44.5 2526.5,-44.5 2526.5,-0.5 2383.5,-0.5"/>
<text text-anchor="start" x="2391.5" y="-27.7" font-family="Source Sans Pro" font-size="16.00">spdlog/sinks/basic</text>
<text text-anchor="middle" x="2455" y="-9.7" font-family="Source Sans Pro" font-size="16.00">_file_sink.h</text>
</a>
</g>
</g>
<!-- Node32&#45;&gt;Node34 -->
<g id="edge65" class="edge">
<title>Node32&#45;&gt;Node34</title>
<path fill="none" stroke="midnightblue" d="M2392.24,-81.31C2401.15,-73.1 2413.29,-61.92 2424.51,-51.58"/>
<polygon fill="midnightblue" stroke="midnightblue" points="2427.1,-53.95 2432.09,-44.6 2422.36,-48.8 2427.1,-53.95"/>
</g>
<!-- Node38&#45;&gt;Node2 -->
<g id="edge85" class="edge">
<title>Node38&#45;&gt;Node2</title>
<path fill="none" stroke="midnightblue" d="M472.69,-234.46C443.71,-226.05 410.7,-212.03 388,-189 348.35,-148.78 333.67,-80.83 328.54,-45.82"/>
<polygon fill="midnightblue" stroke="midnightblue" points="331.98,-45.15 327.2,-35.69 325.04,-46.07 331.98,-45.15"/>
</g>
<!-- Node38&#45;&gt;Node3 -->
<g id="edge84" class="edge">
<title>Node38&#45;&gt;Node3</title>
<path fill="none" stroke="midnightblue" d="M485.06,-234.45C461.3,-225.94 435.06,-211.84 421,-189 410.52,-171.97 410.01,-160.71 421,-144 459.83,-84.95 498.46,-98.25 567,-81 687.42,-50.69 1070.73,-31.01 1195.98,-25.25"/>
<polygon fill="midnightblue" stroke="midnightblue" points="1196.43,-28.74 1206.26,-24.79 1196.11,-21.74 1196.43,-28.74"/>
</g>
<!-- Node38&#45;&gt;Node17 -->
<g id="edge79" class="edge">
<title>Node38&#45;&gt;Node17</title>
<path fill="none" stroke="midnightblue" d="M576.91,-234.42C616.48,-223.01 676.92,-205.58 726.2,-191.37"/>
<polygon fill="midnightblue" stroke="midnightblue" points="727.26,-194.71 735.9,-188.58 725.32,-187.98 727.26,-194.71"/>
</g>
<!-- Node38&#45;&gt;Node18 -->
<g id="edge83" class="edge">
<title>Node38&#45;&gt;Node18</title>
<path fill="none" stroke="midnightblue" d="M536.34,-234.28C539.12,-213.79 547.08,-172.01 568,-144 577.58,-131.17 591.59,-120.58 604.65,-112.6"/>
<polygon fill="midnightblue" stroke="midnightblue" points="606.56,-115.54 613.46,-107.5 603.05,-109.48 606.56,-115.54"/>
</g>
<!-- Node38&#45;&gt;Node20 -->
<g id="edge80" class="edge">
<title>Node38&#45;&gt;Node20</title>
<path fill="none" stroke="midnightblue" d="M608.59,-240.95C740.28,-230.96 1024.93,-209.12 1265,-189 1330.73,-183.49 1406.46,-176.69 1455.44,-172.23"/>
<polygon fill="midnightblue" stroke="midnightblue" points="1455.83,-175.71 1465.47,-171.32 1455.2,-168.74 1455.83,-175.71"/>
</g>
<!-- Node38&#45;&gt;Node22 -->
<g id="edge82" class="edge">
<title>Node38&#45;&gt;Node22</title>
<path fill="none" stroke="midnightblue" d="M608.55,-242.62C751.21,-234.62 1060.55,-214.87 1164,-189 1169.73,-187.57 1175.65,-185.58 1181.34,-183.39"/>
<polygon fill="midnightblue" stroke="midnightblue" points="1182.71,-186.61 1190.62,-179.57 1180.04,-180.14 1182.71,-186.61"/>
</g>
<!-- Node38&#45;&gt;Node23 -->
<g id="edge81" class="edge">
<title>Node38&#45;&gt;Node23</title>
<path fill="none" stroke="midnightblue" d="M608.53,-236.07C689.69,-224.56 824.16,-205.47 940,-189 964.77,-185.48 991.83,-181.63 1016.12,-178.17"/>
<polygon fill="midnightblue" stroke="midnightblue" points="1016.93,-181.59 1026.34,-176.71 1015.94,-174.66 1016.93,-181.59"/>
</g>
<!-- Node38&#45;&gt;Node24 -->
<g id="edge86" class="edge">
<title>Node38&#45;&gt;Node24</title>
<path fill="none" stroke="midnightblue" d="M525.31,-234.16C515.58,-221.75 500.4,-202.42 488.9,-187.76"/>
<polygon fill="midnightblue" stroke="midnightblue" points="491.55,-185.46 482.62,-179.76 486.04,-189.78 491.55,-185.46"/>
</g>
</g>
</svg>
