<?xml version="1.0" encoding="UTF-8" standalone="no"?>
<!DOCTYPE svg PUBLIC "-//W3C//DTD SVG 1.1//EN"
 "http://www.w3.org/Graphics/SVG/1.1/DTD/svg11.dtd">
<!-- Generated by graphviz version 2.43.0 (0)
 -->
<!-- Title: Illumination&#45;Engine/src/GraphicsModule/Renderable/IEVertex.hpp Pages: 1 -->
<svg width="411pt" height="134pt"
 viewBox="0.00 0.00 410.50 134.00" xmlns="http://www.w3.org/2000/svg" xmlns:xlink="http://www.w3.org/1999/xlink">
<g id="graph0" class="graph" transform="scale(1 1) rotate(0) translate(4 130)">
<title>Illumination&#45;Engine/src/GraphicsModule/Renderable/IEVertex.hpp</title>
<polygon fill="white" stroke="transparent" points="-4,4 -4,-130 406.5,-130 406.5,4 -4,4"/>
<!-- Node1 -->
<g id="node1" class="node">
<title>Node1</title>
<g id="a_node1"><a xlink:title=" ">
<polygon fill="#bfbfbf" stroke="black" points="152,-63.5 152,-125.5 342,-125.5 342,-63.5 152,-63.5"/>
<text text-anchor="start" x="160" y="-108.7" font-family="Source Sans Pro" font-size="16.00">Illumination&#45;Engine</text>
<text text-anchor="start" x="160" y="-90.7" font-family="Source Sans Pro" font-size="16.00">/src/GraphicsModule</text>
<text text-anchor="middle" x="247" y="-72.7" font-family="Source Sans Pro" font-size="16.00">/Renderable/IEVertex.hpp</text>
</a>
</g>
</g>
<!-- Node2 -->
<g id="node2" class="node">
<title>Node2</title>
<g id="a_node2"><a xlink:title=" ">
<polygon fill="white" stroke="#bfbfbf" points="0,-0.5 0,-26.5 104,-26.5 104,-0.5 0,-0.5"/>
<text text-anchor="middle" x="52" y="-9.7" font-family="Source Sans Pro" font-size="16.00">glm/glm.hpp</text>
</a>
</g>
</g>
<!-- Node1&#45;&gt;Node2 -->
<g id="edge1" class="edge">
<title>Node1&#45;&gt;Node2</title>
<path fill="none" stroke="midnightblue" d="M172.72,-63.41C145.03,-52.19 114.69,-39.9 91.36,-30.44"/>
<polygon fill="midnightblue" stroke="midnightblue" points="92.39,-27.09 81.81,-26.58 89.76,-33.58 92.39,-27.09"/>
</g>
<!-- Node3 -->
<g id="node3" class="node">
<title>Node3</title>
<g id="a_node3"><a xlink:title=" ">
<polygon fill="white" stroke="#bfbfbf" points="122,-0.5 122,-26.5 260,-26.5 260,-0.5 122,-0.5"/>
<text text-anchor="middle" x="191" y="-9.7" font-family="Source Sans Pro" font-size="16.00">include/GL/glew.h</text>
</a>
</g>
</g>
<!-- Node1&#45;&gt;Node3 -->
<g id="edge2" class="edge">
<title>Node1&#45;&gt;Node3</title>
<path fill="none" stroke="midnightblue" d="M225.51,-63.18C218.82,-53.75 211.62,-43.58 205.52,-34.99"/>
<polygon fill="midnightblue" stroke="midnightblue" points="208.29,-32.84 199.65,-26.7 202.58,-36.89 208.29,-32.84"/>
</g>
<!-- Node4 -->
<g id="node4" class="node">
<title>Node4</title>
<g id="a_node4"><a xlink:title=" ">
<polygon fill="white" stroke="#bfbfbf" points="278.5,-0.5 278.5,-26.5 329.5,-26.5 329.5,-0.5 278.5,-0.5"/>
<text text-anchor="middle" x="304" y="-9.7" font-family="Source Sans Pro" font-size="16.00">array</text>
</a>
</g>
</g>
<!-- Node1&#45;&gt;Node4 -->
<g id="edge3" class="edge">
<title>Node1&#45;&gt;Node4</title>
<path fill="none" stroke="midnightblue" d="M268.87,-63.18C275.68,-53.75 283.02,-43.58 289.22,-34.99"/>
<polygon fill="midnightblue" stroke="midnightblue" points="292.18,-36.86 295.2,-26.7 286.51,-32.76 292.18,-36.86"/>
</g>
<!-- Node5 -->
<g id="node5" class="node">
<title>Node5</title>
<g id="a_node5"><a xlink:title=" ">
<polygon fill="white" stroke="#bfbfbf" points="347.5,-0.5 347.5,-26.5 402.5,-26.5 402.5,-0.5 347.5,-0.5"/>
<text text-anchor="middle" x="375" y="-9.7" font-family="Source Sans Pro" font-size="16.00">string</text>
</a>
</g>
</g>
<!-- Node1&#45;&gt;Node5 -->
<g id="edge4" class="edge">
<title>Node1&#45;&gt;Node5</title>
<path fill="none" stroke="midnightblue" d="M295.76,-63.41C312.96,-52.79 331.72,-41.21 346.67,-31.99"/>
<polygon fill="midnightblue" stroke="midnightblue" points="348.76,-34.81 355.43,-26.58 345.08,-28.85 348.76,-34.81"/>
</g>
</g>
</svg>
