<?xml version="1.0" encoding="UTF-8" standalone="no"?>
<!DOCTYPE svg PUBLIC "-//W3C//DTD SVG 1.1//EN"
 "http://www.w3.org/Graphics/SVG/1.1/DTD/svg11.dtd">
<!-- Generated by graphviz version 2.43.0 (0)
 -->
<!-- Title: Illumination&#45;Engine/src/GraphicsModule/Shader/IEPipeline.hpp Pages: 1 -->
<svg width="3415pt" height="566pt"
 viewBox="0.00 0.00 3415.00 566.00" xmlns="http://www.w3.org/2000/svg" xmlns:xlink="http://www.w3.org/1999/xlink">
<g id="graph0" class="graph" transform="scale(1 1) rotate(0) translate(4 562)">
<title>Illumination&#45;Engine/src/GraphicsModule/Shader/IEPipeline.hpp</title>
<polygon fill="white" stroke="transparent" points="-4,4 -4,-562 3411,-562 3411,4 -4,4"/>
<!-- Node1 -->
<g id="node1" class="node">
<title>Node1</title>
<g id="a_node1"><a xlink:title=" ">
<polygon fill="#bfbfbf" stroke="black" points="1993,-495.5 1993,-557.5 2166,-557.5 2166,-495.5 1993,-495.5"/>
<text text-anchor="start" x="2001" y="-540.7" font-family="Source Sans Pro" font-size="16.00">Illumination&#45;Engine</text>
<text text-anchor="start" x="2001" y="-522.7" font-family="Source Sans Pro" font-size="16.00">/src/GraphicsModule</text>
<text text-anchor="middle" x="2079.5" y="-504.7" font-family="Source Sans Pro" font-size="16.00">/Shader/IEPipeline.hpp</text>
</a>
</g>
</g>
<!-- Node2 -->
<g id="node2" class="node">
<title>Node2</title>
<g id="a_node2"><a xlink:href="_i_e_command_buffer_8cpp.html" target="_top" xlink:title=" ">
<polygon fill="white" stroke="black" points="0,-81.5 0,-143.5 293,-143.5 293,-81.5 0,-81.5"/>
<text text-anchor="start" x="8" y="-126.7" font-family="Source Sans Pro" font-size="16.00">Illumination&#45;Engine</text>
<text text-anchor="start" x="8" y="-108.7" font-family="Source Sans Pro" font-size="16.00">/src/GraphicsModule</text>
<text text-anchor="middle" x="146.5" y="-90.7" font-family="Source Sans Pro" font-size="16.00">/CommandBuffer/IECommandBuffer.cpp</text>
</a>
</g>
</g>
<!-- Node1&#45;&gt;Node2 -->
<g id="edge1" class="edge">
<title>Node1&#45;&gt;Node2</title>
<path fill="none" stroke="midnightblue" d="M1982.36,-519.99C1727.27,-503.33 1019.59,-442.91 462.5,-261 366.67,-229.71 261.83,-176.73 200.23,-143.51"/>
<polygon fill="midnightblue" stroke="midnightblue" points="1982.51,-523.51 1992.71,-520.66 1982.96,-516.52 1982.51,-523.51"/>
</g>
<!-- Node3 -->
<g id="node3" class="node">
<title>Node3</title>
<g id="a_node3"><a xlink:href="_i_e_command_buffer_8hpp.html" target="_top" xlink:title=" ">
<polygon fill="white" stroke="black" points="1477,-396.5 1477,-458.5 1772,-458.5 1772,-396.5 1477,-396.5"/>
<text text-anchor="start" x="1485" y="-441.7" font-family="Source Sans Pro" font-size="16.00">Illumination&#45;Engine</text>
<text text-anchor="start" x="1485" y="-423.7" font-family="Source Sans Pro" font-size="16.00">/src/GraphicsModule</text>
<text text-anchor="middle" x="1624.5" y="-405.7" font-family="Source Sans Pro" font-size="16.00">/CommandBuffer/IECommandBuffer.hpp</text>
</a>
</g>
</g>
<!-- Node1&#45;&gt;Node3 -->
<g id="edge2" class="edge">
<title>Node1&#45;&gt;Node3</title>
<path fill="none" stroke="midnightblue" d="M1982.88,-504.9C1919.66,-491.42 1835.99,-473.59 1765.4,-458.54"/>
<polygon fill="midnightblue" stroke="midnightblue" points="1982.34,-508.36 1992.85,-507.03 1983.8,-501.52 1982.34,-508.36"/>
</g>
<!-- Node20 -->
<g id="node20" class="node">
<title>Node20</title>
<g id="a_node20"><a xlink:href="_i_e_pipeline_8cpp.html" target="_top" xlink:title=" ">
<polygon fill="white" stroke="black" points="2394.5,-81.5 2394.5,-143.5 2566.5,-143.5 2566.5,-81.5 2394.5,-81.5"/>
<text text-anchor="start" x="2402.5" y="-126.7" font-family="Source Sans Pro" font-size="16.00">Illumination&#45;Engine</text>
<text text-anchor="start" x="2402.5" y="-108.7" font-family="Source Sans Pro" font-size="16.00">/src/GraphicsModule</text>
<text text-anchor="middle" x="2480.5" y="-90.7" font-family="Source Sans Pro" font-size="16.00">/Shader/IEPipeline.cpp</text>
</a>
</g>
</g>
<!-- Node1&#45;&gt;Node20 -->
<g id="edge39" class="edge">
<title>Node1&#45;&gt;Node20</title>
<path fill="none" stroke="midnightblue" d="M2116.29,-487.7C2195.24,-406.58 2379.55,-217.22 2451.24,-143.56"/>
<polygon fill="midnightblue" stroke="midnightblue" points="2113.45,-485.6 2108.99,-495.2 2118.47,-490.48 2113.45,-485.6"/>
</g>
<!-- Node24 -->
<g id="node24" class="node">
<title>Node24</title>
<g id="a_node24"><a xlink:href="_i_e_dependency_8cpp.html" target="_top" xlink:title=" ">
<polygon fill="white" stroke="black" points="1809.5,-189.5 1809.5,-251.5 2075.5,-251.5 2075.5,-189.5 1809.5,-189.5"/>
<text text-anchor="start" x="1817.5" y="-234.7" font-family="Source Sans Pro" font-size="16.00">Illumination&#45;Engine</text>
<text text-anchor="start" x="1817.5" y="-216.7" font-family="Source Sans Pro" font-size="16.00">/src/GraphicsModule</text>
<text text-anchor="middle" x="1942.5" y="-198.7" font-family="Source Sans Pro" font-size="16.00">/CommandBuffer/IEDependency.cpp</text>
</a>
</g>
</g>
<!-- Node1&#45;&gt;Node24 -->
<g id="edge30" class="edge">
<title>Node1&#45;&gt;Node24</title>
<path fill="none" stroke="midnightblue" d="M2061.63,-485.85C2033.86,-424.23 1980.97,-306.86 1956.08,-251.64"/>
<polygon fill="midnightblue" stroke="midnightblue" points="2058.56,-487.56 2065.86,-495.24 2064.95,-484.68 2058.56,-487.56"/>
</g>
<!-- Node25 -->
<g id="node25" class="node">
<title>Node25</title>
<g id="a_node25"><a xlink:href="_i_e_mesh_8hpp.html" target="_top" xlink:title=" ">
<polygon fill="white" stroke="black" points="2794,-297.5 2794,-359.5 2979,-359.5 2979,-297.5 2794,-297.5"/>
<text text-anchor="start" x="2802" y="-342.7" font-family="Source Sans Pro" font-size="16.00">Illumination&#45;Engine</text>
<text text-anchor="start" x="2802" y="-324.7" font-family="Source Sans Pro" font-size="16.00">/src/GraphicsModule</text>
<text text-anchor="middle" x="2886.5" y="-306.7" font-family="Source Sans Pro" font-size="16.00">/Renderable/IEMesh.hpp</text>
</a>
</g>
</g>
<!-- Node1&#45;&gt;Node25 -->
<g id="edge31" class="edge">
<title>Node1&#45;&gt;Node25</title>
<path fill="none" stroke="midnightblue" d="M2176.34,-501.98C2332.96,-463.94 2639.8,-389.42 2793.75,-352.03"/>
<polygon fill="midnightblue" stroke="midnightblue" points="2175.14,-498.67 2166.25,-504.43 2176.79,-505.47 2175.14,-498.67"/>
</g>
<!-- Node26 -->
<g id="node26" class="node">
<title>Node26</title>
<g id="a_node26"><a xlink:href="_i_e_renderable_8hpp.html" target="_top" xlink:title=" ">
<polygon fill="white" stroke="black" points="2991,-189.5 2991,-251.5 3218,-251.5 3218,-189.5 2991,-189.5"/>
<text text-anchor="start" x="2999" y="-234.7" font-family="Source Sans Pro" font-size="16.00">Illumination&#45;Engine</text>
<text text-anchor="start" x="2999" y="-216.7" font-family="Source Sans Pro" font-size="16.00">/src/GraphicsModule</text>
<text text-anchor="middle" x="3104.5" y="-198.7" font-family="Source Sans Pro" font-size="16.00">/Renderable/IERenderable.hpp</text>
</a>
</g>
</g>
<!-- Node1&#45;&gt;Node26 -->
<g id="edge38" class="edge">
<title>Node1&#45;&gt;Node26</title>
<path fill="none" stroke="midnightblue" d="M2176.45,-516.44C2381.56,-495.92 2851.8,-441.25 2988.5,-360 3032.99,-333.56 3068.32,-283.67 3087.81,-251.54"/>
<polygon fill="midnightblue" stroke="midnightblue" points="2175.9,-512.98 2166.29,-517.45 2176.59,-519.95 2175.9,-512.98"/>
</g>
<!-- Node3&#45;&gt;Node2 -->
<g id="edge3" class="edge">
<title>Node3&#45;&gt;Node2</title>
<path fill="none" stroke="midnightblue" d="M1472.72,-394.36C1185.75,-333.58 567.44,-202.64 288.33,-143.54"/>
<polygon fill="midnightblue" stroke="midnightblue" points="1472.27,-397.84 1482.78,-396.49 1473.73,-390.99 1472.27,-397.84"/>
</g>
<!-- Node4 -->
<g id="node4" class="node">
<title>Node4</title>
<g id="a_node4"><a xlink:href="_i_e_command_pool_8hpp.html" target="_top" xlink:title=" ">
<polygon fill="white" stroke="black" points="1620,-297.5 1620,-359.5 1905,-359.5 1905,-297.5 1620,-297.5"/>
<text text-anchor="start" x="1628" y="-342.7" font-family="Source Sans Pro" font-size="16.00">Illumination&#45;Engine</text>
<text text-anchor="start" x="1628" y="-324.7" font-family="Source Sans Pro" font-size="16.00">/src/GraphicsModule</text>
<text text-anchor="middle" x="1762.5" y="-306.7" font-family="Source Sans Pro" font-size="16.00">/CommandBuffer/IECommandPool.hpp</text>
</a>
</g>
</g>
<!-- Node3&#45;&gt;Node4 -->
<g id="edge4" class="edge">
<title>Node3&#45;&gt;Node4</title>
<path fill="none" stroke="midnightblue" d="M1675.76,-390.47C1690.19,-380.33 1705.73,-369.4 1719.62,-359.64"/>
<polygon fill="midnightblue" stroke="midnightblue" points="1673.58,-387.73 1667.41,-396.34 1677.6,-393.45 1673.58,-387.73"/>
</g>
<!-- Node22 -->
<g id="node22" class="node">
<title>Node22</title>
<g id="a_node22"><a xlink:href="_i_e_render_pass_8hpp.html" target="_top" xlink:title=" ">
<polygon fill="white" stroke="black" points="1373.5,-297.5 1373.5,-359.5 1601.5,-359.5 1601.5,-297.5 1373.5,-297.5"/>
<text text-anchor="start" x="1381.5" y="-342.7" font-family="Source Sans Pro" font-size="16.00">Illumination&#45;Engine</text>
<text text-anchor="start" x="1381.5" y="-324.7" font-family="Source Sans Pro" font-size="16.00">/src/GraphicsModule</text>
<text text-anchor="middle" x="1487.5" y="-306.7" font-family="Source Sans Pro" font-size="16.00">/RenderPass/IERenderPass.hpp</text>
</a>
</g>
</g>
<!-- Node3&#45;&gt;Node22 -->
<g id="edge24" class="edge">
<title>Node3&#45;&gt;Node22</title>
<path fill="none" stroke="midnightblue" d="M1573.62,-390.47C1559.29,-380.33 1543.86,-369.4 1530.07,-359.64"/>
<polygon fill="midnightblue" stroke="midnightblue" points="1571.72,-393.42 1581.9,-396.34 1575.76,-387.71 1571.72,-393.42"/>
</g>
<!-- Node5 -->
<g id="node5" class="node">
<title>Node5</title>
<g id="a_node5"><a xlink:href="_i_e_command_pool_8cpp.html" target="_top" xlink:title=" ">
<polygon fill="white" stroke="black" points="2092.5,-81.5 2092.5,-143.5 2376.5,-143.5 2376.5,-81.5 2092.5,-81.5"/>
<text text-anchor="start" x="2100.5" y="-126.7" font-family="Source Sans Pro" font-size="16.00">Illumination&#45;Engine</text>
<text text-anchor="start" x="2100.5" y="-108.7" font-family="Source Sans Pro" font-size="16.00">/src/GraphicsModule</text>
<text text-anchor="middle" x="2234.5" y="-90.7" font-family="Source Sans Pro" font-size="16.00">/CommandBuffer/IECommandPool.cpp</text>
</a>
</g>
</g>
<!-- Node4&#45;&gt;Node5 -->
<g id="edge5" class="edge">
<title>Node4&#45;&gt;Node5</title>
<path fill="none" stroke="midnightblue" d="M1915.16,-314.19C1970.87,-304.73 2032.84,-288.58 2084.5,-261 2138.63,-232.11 2186.31,-177.61 2212.7,-143.56"/>
<polygon fill="midnightblue" stroke="midnightblue" points="1914.49,-310.75 1905.19,-315.82 1915.62,-317.66 1914.49,-310.75"/>
</g>
<!-- Node6 -->
<g id="node6" class="node">
<title>Node6</title>
<g id="a_node6"><a xlink:href="_i_e_render_engine_8hpp.html" target="_top" xlink:title=" ">
<polygon fill="white" stroke="black" points="1592,-189.5 1592,-251.5 1753,-251.5 1753,-189.5 1592,-189.5"/>
<text text-anchor="start" x="1600" y="-234.7" font-family="Source Sans Pro" font-size="16.00">Illumination&#45;Engine</text>
<text text-anchor="start" x="1600" y="-216.7" font-family="Source Sans Pro" font-size="16.00">/src/GraphicsModule</text>
<text text-anchor="middle" x="1672.5" y="-198.7" font-family="Source Sans Pro" font-size="16.00">/IERenderEngine.hpp</text>
</a>
</g>
</g>
<!-- Node4&#45;&gt;Node6 -->
<g id="edge6" class="edge">
<title>Node4&#45;&gt;Node6</title>
<path fill="none" stroke="midnightblue" d="M1730.19,-289.45C1719.65,-277.03 1708.1,-263.42 1698.11,-251.67"/>
<polygon fill="midnightblue" stroke="midnightblue" points="1727.81,-292.05 1736.95,-297.41 1733.15,-287.52 1727.81,-292.05"/>
</g>
<!-- Node6&#45;&gt;Node2 -->
<g id="edge8" class="edge">
<title>Node6&#45;&gt;Node2</title>
<path fill="none" stroke="midnightblue" d="M1581.81,-201.83C1536.54,-193.74 1480.82,-184.89 1430.5,-180 931.26,-131.5 800.92,-200.31 302.5,-144 299.48,-143.66 296.44,-143.29 293.37,-142.9"/>
<polygon fill="midnightblue" stroke="midnightblue" points="1581.44,-205.32 1591.9,-203.65 1582.68,-198.43 1581.44,-205.32"/>
</g>
<!-- Node6&#45;&gt;Node5 -->
<g id="edge9" class="edge">
<title>Node6&#45;&gt;Node5</title>
<path fill="none" stroke="midnightblue" d="M1763.13,-189.43C1775.6,-185.91 1788.3,-182.64 1800.5,-180 1923.99,-153.27 1957.81,-164.44 2082.5,-144 2085.69,-143.48 2088.91,-142.94 2092.16,-142.38"/>
<polygon fill="midnightblue" stroke="midnightblue" points="1761.83,-186.16 1753.2,-192.29 1763.78,-192.88 1761.83,-186.16"/>
</g>
<!-- Node7 -->
<g id="node7" class="node">
<title>Node7</title>
<g id="a_node7"><a xlink:href="_i_e_buffer_8cpp.html" target="_top" xlink:title=" ">
<polygon fill="white" stroke="black" points="1742,-81.5 1742,-143.5 1899,-143.5 1899,-81.5 1742,-81.5"/>
<text text-anchor="start" x="1750" y="-126.7" font-family="Source Sans Pro" font-size="16.00">Illumination&#45;Engine</text>
<text text-anchor="start" x="1750" y="-108.7" font-family="Source Sans Pro" font-size="16.00">/src/GraphicsModule</text>
<text text-anchor="middle" x="1820.5" y="-90.7" font-family="Source Sans Pro" font-size="16.00">/Buffer/IEBuffer.cpp</text>
</a>
</g>
</g>
<!-- Node6&#45;&gt;Node7 -->
<g id="edge7" class="edge">
<title>Node6&#45;&gt;Node7</title>
<path fill="none" stroke="midnightblue" d="M1722.67,-183.57C1740.78,-170.6 1761.03,-156.1 1778.38,-143.67"/>
<polygon fill="midnightblue" stroke="midnightblue" points="1720.61,-180.74 1714.51,-189.41 1724.68,-186.43 1720.61,-180.74"/>
</g>
<!-- Node8 -->
<g id="node8" class="node">
<title>Node8</title>
<g id="a_node8"><a xlink:href="_i_e_a_p_i_8cpp.html" target="_top" xlink:title=" ">
<polygon fill="white" stroke="black" points="1917,-81.5 1917,-143.5 2074,-143.5 2074,-81.5 1917,-81.5"/>
<text text-anchor="start" x="1925" y="-126.7" font-family="Source Sans Pro" font-size="16.00">Illumination&#45;Engine</text>
<text text-anchor="start" x="1925" y="-108.7" font-family="Source Sans Pro" font-size="16.00">/src/GraphicsModule</text>
<text text-anchor="middle" x="1995.5" y="-90.7" font-family="Source Sans Pro" font-size="16.00">/IEAPI.cpp</text>
</a>
</g>
</g>
<!-- Node6&#45;&gt;Node8 -->
<g id="edge10" class="edge">
<title>Node6&#45;&gt;Node8</title>
<path fill="none" stroke="midnightblue" d="M1762.89,-190.99C1806.64,-177.05 1859.89,-159.9 1907.5,-144 1910.57,-142.98 1913.69,-141.93 1916.85,-140.86"/>
<polygon fill="midnightblue" stroke="midnightblue" points="1761.6,-187.73 1753.13,-194.09 1763.72,-194.4 1761.6,-187.73"/>
</g>
<!-- Node9 -->
<g id="node9" class="node">
<title>Node9</title>
<g id="a_node9"><a xlink:href="_i_e_camera_8cpp.html" target="_top" xlink:title=" ">
<polygon fill="white" stroke="black" points="805,-81.5 805,-143.5 962,-143.5 962,-81.5 805,-81.5"/>
<text text-anchor="start" x="813" y="-126.7" font-family="Source Sans Pro" font-size="16.00">Illumination&#45;Engine</text>
<text text-anchor="start" x="813" y="-108.7" font-family="Source Sans Pro" font-size="16.00">/src/GraphicsModule</text>
<text text-anchor="middle" x="883.5" y="-90.7" font-family="Source Sans Pro" font-size="16.00">/IECamera.cpp</text>
</a>
</g>
</g>
<!-- Node6&#45;&gt;Node9 -->
<g id="edge11" class="edge">
<title>Node6&#45;&gt;Node9</title>
<path fill="none" stroke="midnightblue" d="M1581.91,-195.74C1556.09,-189.75 1527.82,-183.91 1501.5,-180 1267.52,-145.27 1202.21,-191.56 970.5,-144 967.83,-143.45 965.14,-142.84 962.43,-142.18"/>
<polygon fill="midnightblue" stroke="midnightblue" points="1581.14,-199.16 1591.68,-198.05 1582.75,-192.35 1581.14,-199.16"/>
</g>
<!-- Node10 -->
<g id="node10" class="node">
<title>Node10</title>
<g id="a_node10"><a xlink:href="_i_e_render_engine_8cpp.html" target="_top" xlink:title=" ">
<polygon fill="white" stroke="black" points="3248,-81.5 3248,-143.5 3407,-143.5 3407,-81.5 3248,-81.5"/>
<text text-anchor="start" x="3256" y="-126.7" font-family="Source Sans Pro" font-size="16.00">Illumination&#45;Engine</text>
<text text-anchor="start" x="3256" y="-108.7" font-family="Source Sans Pro" font-size="16.00">/src/GraphicsModule</text>
<text text-anchor="middle" x="3327.5" y="-90.7" font-family="Source Sans Pro" font-size="16.00">/IERenderEngine.cpp</text>
</a>
</g>
</g>
<!-- Node6&#45;&gt;Node10 -->
<g id="edge12" class="edge">
<title>Node6&#45;&gt;Node10</title>
<path fill="none" stroke="midnightblue" d="M1763.18,-188.18C1775.6,-184.88 1788.28,-182 1800.5,-180 2116.18,-128.35 2924.75,-201.05 3239.5,-144 3242.2,-143.51 3244.94,-142.95 3247.68,-142.33"/>
<polygon fill="midnightblue" stroke="midnightblue" points="1762,-184.88 1753.3,-190.91 1763.87,-191.62 1762,-184.88"/>
</g>
<!-- Node12 -->
<g id="node12" class="node">
<title>Node12</title>
<g id="a_node12"><a xlink:href="_i_e_image_8cpp.html" target="_top" xlink:title=" ">
<polygon fill="white" stroke="black" points="980,-81.5 980,-143.5 1137,-143.5 1137,-81.5 980,-81.5"/>
<text text-anchor="start" x="988" y="-126.7" font-family="Source Sans Pro" font-size="16.00">Illumination&#45;Engine</text>
<text text-anchor="start" x="988" y="-108.7" font-family="Source Sans Pro" font-size="16.00">/src/GraphicsModule</text>
<text text-anchor="middle" x="1058.5" y="-90.7" font-family="Source Sans Pro" font-size="16.00">/Image/IEImage.cpp</text>
</a>
</g>
</g>
<!-- Node6&#45;&gt;Node12 -->
<g id="edge14" class="edge">
<title>Node6&#45;&gt;Node12</title>
<path fill="none" stroke="midnightblue" d="M1581.82,-196.31C1556,-190.32 1527.76,-184.34 1501.5,-180 1344.6,-154.05 1300.73,-178.55 1145.5,-144 1142.84,-143.41 1140.16,-142.76 1137.46,-142.07"/>
<polygon fill="midnightblue" stroke="midnightblue" points="1581.05,-199.73 1591.59,-198.6 1582.65,-192.91 1581.05,-199.73"/>
</g>
<!-- Node13 -->
<g id="node13" class="node">
<title>Node13</title>
<g id="a_node13"><a xlink:href="_i_e_texture_8cpp.html" target="_top" xlink:title=" ">
<polygon fill="white" stroke="black" points="1155,-81.5 1155,-143.5 1316,-143.5 1316,-81.5 1155,-81.5"/>
<text text-anchor="start" x="1163" y="-126.7" font-family="Source Sans Pro" font-size="16.00">Illumination&#45;Engine</text>
<text text-anchor="start" x="1163" y="-108.7" font-family="Source Sans Pro" font-size="16.00">/src/GraphicsModule</text>
<text text-anchor="middle" x="1235.5" y="-90.7" font-family="Source Sans Pro" font-size="16.00">/Image/IETexture.cpp</text>
</a>
</g>
</g>
<!-- Node6&#45;&gt;Node13 -->
<g id="edge15" class="edge">
<title>Node6&#45;&gt;Node13</title>
<path fill="none" stroke="midnightblue" d="M1581.89,-198.1C1555.96,-192.1 1527.64,-185.68 1501.5,-180 1423.05,-162.96 1401.97,-165.06 1324.5,-144 1321.82,-143.27 1319.1,-142.51 1316.37,-141.71"/>
<polygon fill="midnightblue" stroke="midnightblue" points="1581.17,-201.53 1591.7,-200.38 1582.75,-194.71 1581.17,-201.53"/>
</g>
<!-- Node14 -->
<g id="node14" class="node">
<title>Node14</title>
<g id="a_node14"><a xlink:href="_i_e_framebuffer_8cpp.html" target="_top" xlink:title=" ">
<polygon fill="white" stroke="black" points="311.5,-81.5 311.5,-143.5 541.5,-143.5 541.5,-81.5 311.5,-81.5"/>
<text text-anchor="start" x="319.5" y="-126.7" font-family="Source Sans Pro" font-size="16.00">Illumination&#45;Engine</text>
<text text-anchor="start" x="319.5" y="-108.7" font-family="Source Sans Pro" font-size="16.00">/src/GraphicsModule</text>
<text text-anchor="middle" x="426.5" y="-90.7" font-family="Source Sans Pro" font-size="16.00">/RenderPass/IEFramebuffer.cpp</text>
</a>
</g>
</g>
<!-- Node6&#45;&gt;Node14 -->
<g id="edge16" class="edge">
<title>Node6&#45;&gt;Node14</title>
<path fill="none" stroke="midnightblue" d="M1581.41,-199.26C1544.93,-191.95 1502.4,-184.42 1463.5,-180 1060,-134.17 952.6,-200.79 550.5,-144 547.54,-143.58 544.54,-143.12 541.52,-142.63"/>
<polygon fill="midnightblue" stroke="midnightblue" points="1581.04,-202.76 1591.53,-201.32 1582.43,-195.9 1581.04,-202.76"/>
</g>
<!-- Node15 -->
<g id="node15" class="node">
<title>Node15</title>
<g id="a_node15"><a xlink:href="_i_e_render_pass_8cpp.html" target="_top" xlink:title=" ">
<polygon fill="white" stroke="black" points="560,-81.5 560,-143.5 787,-143.5 787,-81.5 560,-81.5"/>
<text text-anchor="start" x="568" y="-126.7" font-family="Source Sans Pro" font-size="16.00">Illumination&#45;Engine</text>
<text text-anchor="start" x="568" y="-108.7" font-family="Source Sans Pro" font-size="16.00">/src/GraphicsModule</text>
<text text-anchor="middle" x="673.5" y="-90.7" font-family="Source Sans Pro" font-size="16.00">/RenderPass/IERenderPass.cpp</text>
</a>
</g>
</g>
<!-- Node6&#45;&gt;Node15 -->
<g id="edge17" class="edge">
<title>Node6&#45;&gt;Node15</title>
<path fill="none" stroke="midnightblue" d="M1581.95,-195.46C1556.13,-189.46 1527.86,-183.69 1501.5,-180 1190.34,-136.47 1106.25,-190.32 795.5,-144 792.69,-143.58 789.86,-143.13 787,-142.64"/>
<polygon fill="midnightblue" stroke="midnightblue" points="1581.18,-198.87 1591.72,-197.76 1582.79,-192.06 1581.18,-198.87"/>
</g>
<!-- Node16 -->
<g id="node16" class="node">
<title>Node16</title>
<g id="a_node16"><a xlink:href="_i_e_material_8cpp.html" target="_top" xlink:title=" ">
<polygon fill="white" stroke="black" points="2786,-81.5 2786,-143.5 2987,-143.5 2987,-81.5 2786,-81.5"/>
<text text-anchor="start" x="2794" y="-126.7" font-family="Source Sans Pro" font-size="16.00">Illumination&#45;Engine</text>
<text text-anchor="start" x="2794" y="-108.7" font-family="Source Sans Pro" font-size="16.00">/src/GraphicsModule</text>
<text text-anchor="middle" x="2886.5" y="-90.7" font-family="Source Sans Pro" font-size="16.00">/Renderable/IEMaterial.cpp</text>
</a>
</g>
</g>
<!-- Node6&#45;&gt;Node16 -->
<g id="edge18" class="edge">
<title>Node6&#45;&gt;Node16</title>
<path fill="none" stroke="midnightblue" d="M1763.21,-188.32C1775.62,-184.99 1788.29,-182.07 1800.5,-180 2228.89,-107.31 2348.18,-211.01 2777.5,-144 2780.22,-143.58 2782.97,-143.11 2785.73,-142.6"/>
<polygon fill="midnightblue" stroke="midnightblue" points="1762.02,-185.01 1753.32,-191.06 1763.89,-191.76 1762.02,-185.01"/>
</g>
<!-- Node17 -->
<g id="node17" class="node">
<title>Node17</title>
<g id="a_node17"><a xlink:href="_i_e_mesh_8cpp.html" target="_top" xlink:title=" ">
<polygon fill="white" stroke="black" points="2585,-81.5 2585,-143.5 2768,-143.5 2768,-81.5 2585,-81.5"/>
<text text-anchor="start" x="2593" y="-126.7" font-family="Source Sans Pro" font-size="16.00">Illumination&#45;Engine</text>
<text text-anchor="start" x="2593" y="-108.7" font-family="Source Sans Pro" font-size="16.00">/src/GraphicsModule</text>
<text text-anchor="middle" x="2676.5" y="-90.7" font-family="Source Sans Pro" font-size="16.00">/Renderable/IEMesh.cpp</text>
</a>
</g>
</g>
<!-- Node6&#45;&gt;Node17 -->
<g id="edge19" class="edge">
<title>Node6&#45;&gt;Node17</title>
<path fill="none" stroke="midnightblue" d="M1763.22,-188.43C1775.63,-185.08 1788.3,-182.13 1800.5,-180 2140.18,-120.69 2235.65,-202.28 2575.5,-144 2578.57,-143.47 2581.68,-142.88 2584.8,-142.24"/>
<polygon fill="midnightblue" stroke="midnightblue" points="1762.04,-185.12 1753.34,-191.18 1763.92,-191.87 1762.04,-185.12"/>
</g>
<!-- Node18 -->
<g id="node18" class="node">
<title>Node18</title>
<g id="a_node18"><a xlink:href="_i_e_renderable_8cpp.html" target="_top" xlink:title=" ">
<polygon fill="white" stroke="black" points="3005,-81.5 3005,-143.5 3230,-143.5 3230,-81.5 3005,-81.5"/>
<text text-anchor="start" x="3013" y="-126.7" font-family="Source Sans Pro" font-size="16.00">Illumination&#45;Engine</text>
<text text-anchor="start" x="3013" y="-108.7" font-family="Source Sans Pro" font-size="16.00">/src/GraphicsModule</text>
<text text-anchor="middle" x="3117.5" y="-90.7" font-family="Source Sans Pro" font-size="16.00">/Renderable/IERenderable.cpp</text>
</a>
</g>
</g>
<!-- Node6&#45;&gt;Node18 -->
<g id="edge20" class="edge">
<title>Node6&#45;&gt;Node18</title>
<path fill="none" stroke="midnightblue" d="M1763.19,-188.24C1775.61,-184.93 1788.28,-182.03 1800.5,-180 2325.1,-92.81 2469.8,-217.42 2996.5,-144 2999.29,-143.61 3002.11,-143.18 3004.94,-142.72"/>
<polygon fill="midnightblue" stroke="midnightblue" points="1762.01,-184.93 1753.31,-190.98 1763.88,-191.68 1762.01,-184.93"/>
</g>
<!-- Node19 -->
<g id="node19" class="node">
<title>Node19</title>
<g id="a_node19"><a xlink:href="_i_e_descriptor_set_8cpp.html" target="_top" xlink:title=" ">
<polygon fill="white" stroke="black" points="1334,-81.5 1334,-143.5 1541,-143.5 1541,-81.5 1334,-81.5"/>
<text text-anchor="start" x="1342" y="-126.7" font-family="Source Sans Pro" font-size="16.00">Illumination&#45;Engine</text>
<text text-anchor="start" x="1342" y="-108.7" font-family="Source Sans Pro" font-size="16.00">/src/GraphicsModule</text>
<text text-anchor="middle" x="1437.5" y="-90.7" font-family="Source Sans Pro" font-size="16.00">/Shader/IEDescriptorSet.cpp</text>
</a>
</g>
</g>
<!-- Node6&#45;&gt;Node19 -->
<g id="edge21" class="edge">
<title>Node6&#45;&gt;Node19</title>
<path fill="none" stroke="midnightblue" d="M1596.32,-185.14C1566.69,-171.77 1533.05,-156.6 1504.38,-143.67"/>
<polygon fill="midnightblue" stroke="midnightblue" points="1595.23,-188.49 1605.79,-189.41 1598.11,-182.11 1595.23,-188.49"/>
</g>
<!-- Node6&#45;&gt;Node20 -->
<g id="edge22" class="edge">
<title>Node6&#45;&gt;Node20</title>
<path fill="none" stroke="midnightblue" d="M1762.98,-188.67C1775.47,-185.27 1788.22,-182.24 1800.5,-180 2056.76,-133.26 2129.5,-192.19 2385.5,-144 2388.39,-143.46 2391.32,-142.85 2394.27,-142.19"/>
<polygon fill="midnightblue" stroke="midnightblue" points="1761.71,-185.39 1753.03,-191.47 1763.61,-192.13 1761.71,-185.39"/>
</g>
<!-- Node21 -->
<g id="node21" class="node">
<title>Node21</title>
<g id="a_node21"><a xlink:href="_i_e_shader_8cpp.html" target="_top" xlink:title=" ">
<polygon fill="white" stroke="black" points="1559.5,-81.5 1559.5,-143.5 1723.5,-143.5 1723.5,-81.5 1559.5,-81.5"/>
<text text-anchor="start" x="1567.5" y="-126.7" font-family="Source Sans Pro" font-size="16.00">Illumination&#45;Engine</text>
<text text-anchor="start" x="1567.5" y="-108.7" font-family="Source Sans Pro" font-size="16.00">/src/GraphicsModule</text>
<text text-anchor="middle" x="1641.5" y="-90.7" font-family="Source Sans Pro" font-size="16.00">/Shader/IEShader.cpp</text>
</a>
</g>
</g>
<!-- Node6&#45;&gt;Node21 -->
<g id="edge23" class="edge">
<title>Node6&#45;&gt;Node21</title>
<path fill="none" stroke="midnightblue" d="M1660.85,-179.67C1657.36,-167.74 1653.6,-154.86 1650.32,-143.67"/>
<polygon fill="midnightblue" stroke="midnightblue" points="1657.53,-180.79 1663.7,-189.41 1664.25,-178.83 1657.53,-180.79"/>
</g>
<!-- Node11 -->
<g id="node11" class="node">
<title>Node11</title>
<g id="a_node11"><a xlink:href="main_8cpp.html" target="_top" xlink:title=" ">
<polygon fill="white" stroke="black" points="3252.5,-0.5 3252.5,-44.5 3402.5,-44.5 3402.5,-0.5 3252.5,-0.5"/>
<text text-anchor="start" x="3260.5" y="-27.7" font-family="Source Sans Pro" font-size="16.00">Illumination&#45;Engine</text>
<text text-anchor="middle" x="3327.5" y="-9.7" font-family="Source Sans Pro" font-size="16.00">/src/main.cpp</text>
</a>
</g>
</g>
<!-- Node10&#45;&gt;Node11 -->
<g id="edge13" class="edge">
<title>Node10&#45;&gt;Node11</title>
<path fill="none" stroke="midnightblue" d="M3327.5,-71.09C3327.5,-61.97 3327.5,-52.64 3327.5,-44.68"/>
<polygon fill="midnightblue" stroke="midnightblue" points="3324,-71.22 3327.5,-81.22 3331,-71.22 3324,-71.22"/>
</g>
<!-- Node22&#45;&gt;Node6 -->
<g id="edge27" class="edge">
<title>Node22&#45;&gt;Node6</title>
<path fill="none" stroke="midnightblue" d="M1548.99,-292.27C1571.94,-279.12 1597.77,-264.32 1619.85,-251.67"/>
<polygon fill="midnightblue" stroke="midnightblue" points="1546.96,-289.4 1540.02,-297.41 1550.44,-295.47 1546.96,-289.4"/>
</g>
<!-- Node22&#45;&gt;Node14 -->
<g id="edge28" class="edge">
<title>Node22&#45;&gt;Node14</title>
<path fill="none" stroke="midnightblue" d="M1472.83,-288C1456.74,-244.88 1432.85,-181.68 1430.5,-180 1350.94,-123.02 647.39,-157.76 550.5,-144 547.54,-143.58 544.54,-143.12 541.53,-142.62"/>
<polygon fill="midnightblue" stroke="midnightblue" points="1469.57,-289.26 1476.34,-297.4 1476.13,-286.81 1469.57,-289.26"/>
</g>
<!-- Node22&#45;&gt;Node15 -->
<g id="edge29" class="edge">
<title>Node22&#45;&gt;Node15</title>
<path fill="none" stroke="midnightblue" d="M1493.37,-287.16C1495.79,-253.28 1492.8,-206.31 1463.5,-180 1408.19,-130.34 869,-155.06 795.5,-144 792.69,-143.58 789.86,-143.12 787,-142.63"/>
<polygon fill="midnightblue" stroke="midnightblue" points="1489.88,-286.94 1492.47,-297.21 1496.85,-287.57 1489.88,-286.94"/>
</g>
<!-- Node23 -->
<g id="node23" class="node">
<title>Node23</title>
<g id="a_node23"><a xlink:href="_i_e_render_pass_begin_info_8cpp.html" target="_top" xlink:title=" ">
<polygon fill="white" stroke="black" points="1149.5,-180.5 1149.5,-260.5 1421.5,-260.5 1421.5,-180.5 1149.5,-180.5"/>
<text text-anchor="start" x="1157.5" y="-243.7" font-family="Source Sans Pro" font-size="16.00">Illumination&#45;Engine</text>
<text text-anchor="start" x="1157.5" y="-225.7" font-family="Source Sans Pro" font-size="16.00">/src/GraphicsModule</text>
<text text-anchor="start" x="1157.5" y="-207.7" font-family="Source Sans Pro" font-size="16.00">/CommandBuffer/DependencyStructs</text>
<text text-anchor="middle" x="1285.5" y="-189.7" font-family="Source Sans Pro" font-size="16.00">/IERenderPassBeginInfo.cpp</text>
</a>
</g>
</g>
<!-- Node22&#45;&gt;Node23 -->
<g id="edge25" class="edge">
<title>Node22&#45;&gt;Node23</title>
<path fill="none" stroke="midnightblue" d="M1421.3,-292.76C1401.69,-282.47 1380.09,-271.14 1360,-260.59"/>
<polygon fill="midnightblue" stroke="midnightblue" points="1419.67,-295.86 1430.16,-297.41 1422.93,-289.66 1419.67,-295.86"/>
</g>
<!-- Node22&#45;&gt;Node24 -->
<g id="edge26" class="edge">
<title>Node22&#45;&gt;Node24</title>
<path fill="none" stroke="midnightblue" d="M1611.72,-296.72C1682.44,-279.96 1751.48,-264.2 1809.49,-251.13"/>
<polygon fill="midnightblue" stroke="midnightblue" points="1610.65,-293.38 1601.73,-299.09 1612.27,-300.19 1610.65,-293.38"/>
</g>
<!-- Node25&#45;&gt;Node16 -->
<g id="edge32" class="edge">
<title>Node25&#45;&gt;Node16</title>
<path fill="none" stroke="midnightblue" d="M2886.5,-287.19C2886.5,-245.41 2886.5,-181.08 2886.5,-143.55"/>
<polygon fill="midnightblue" stroke="midnightblue" points="2883,-287.29 2886.5,-297.29 2890,-287.29 2883,-287.29"/>
</g>
<!-- Node25&#45;&gt;Node17 -->
<g id="edge33" class="edge">
<title>Node25&#45;&gt;Node17</title>
<path fill="none" stroke="midnightblue" d="M2849.77,-290.07C2808.9,-248.42 2743.67,-181.95 2705.99,-143.55"/>
<polygon fill="midnightblue" stroke="midnightblue" points="2847.36,-292.61 2856.86,-297.29 2852.35,-287.7 2847.36,-292.61"/>
</g>
<!-- Node25&#45;&gt;Node18 -->
<g id="edge34" class="edge">
<title>Node25&#45;&gt;Node18</title>
<path fill="none" stroke="midnightblue" d="M2904.71,-288.04C2921.25,-255.66 2948.28,-210.36 2982.5,-180 2998.82,-165.52 3018.85,-153.41 3038.45,-143.67"/>
<polygon fill="midnightblue" stroke="midnightblue" points="2901.46,-286.72 2900.12,-297.23 2907.72,-289.84 2901.46,-286.72"/>
</g>
<!-- Node25&#45;&gt;Node26 -->
<g id="edge35" class="edge">
<title>Node25&#45;&gt;Node26</title>
<path fill="none" stroke="midnightblue" d="M2957.53,-292.96C2984.92,-279.64 3015.98,-264.54 3042.46,-251.67"/>
<polygon fill="midnightblue" stroke="midnightblue" points="2955.85,-289.89 2948.39,-297.41 2958.91,-296.18 2955.85,-289.89"/>
</g>
<!-- Node26&#45;&gt;Node10 -->
<g id="edge36" class="edge">
<title>Node26&#45;&gt;Node10</title>
<path fill="none" stroke="midnightblue" d="M3177.15,-184.96C3205.18,-171.64 3236.95,-156.54 3264.04,-143.67"/>
<polygon fill="midnightblue" stroke="midnightblue" points="3175.34,-181.95 3167.81,-189.41 3178.34,-188.28 3175.34,-181.95"/>
</g>
<!-- Node26&#45;&gt;Node18 -->
<g id="edge37" class="edge">
<title>Node26&#45;&gt;Node18</title>
<path fill="none" stroke="midnightblue" d="M3109.43,-179.31C3110.88,-167.48 3112.44,-154.75 3113.8,-143.67"/>
<polygon fill="midnightblue" stroke="midnightblue" points="3105.93,-179.06 3108.19,-189.41 3112.88,-179.91 3105.93,-179.06"/>
</g>
</g>
</svg>
