<?xml version="1.0" encoding="UTF-8" standalone="no"?>
<!DOCTYPE svg PUBLIC "-//W3C//DTD SVG 1.1//EN"
 "http://www.w3.org/Graphics/SVG/1.1/DTD/svg11.dtd">
<!-- Generated by graphviz version 2.43.0 (0)
 -->
<!-- Title: Illumination&#45;Engine/src/GraphicsModule/CommandBuffer/DependencyStructs/IECopyBufferToImageInfo.cpp Pages: 1 -->
<svg width="1275pt" height="422pt"
 viewBox="0.00 0.00 1274.54 422.00" xmlns="http://www.w3.org/2000/svg" xmlns:xlink="http://www.w3.org/1999/xlink">
<g id="graph0" class="graph" transform="scale(1 1) rotate(0) translate(4 418)">
<title>Illumination&#45;Engine/src/GraphicsModule/CommandBuffer/DependencyStructs/IECopyBufferToImageInfo.cpp</title>
<polygon fill="white" stroke="transparent" points="-4,4 -4,-418 1270.54,-418 1270.54,4 -4,4"/>
<!-- Node1 -->
<g id="node1" class="node">
<title>Node1</title>
<g id="a_node1"><a xlink:title=" ">
<polygon fill="#bfbfbf" stroke="black" points="0,-333.5 0,-413.5 272,-413.5 272,-333.5 0,-333.5"/>
<text text-anchor="start" x="8" y="-396.7" font-family="Source Sans Pro" font-size="16.00">Illumination&#45;Engine</text>
<text text-anchor="start" x="8" y="-378.7" font-family="Source Sans Pro" font-size="16.00">/src/GraphicsModule</text>
<text text-anchor="start" x="8" y="-360.7" font-family="Source Sans Pro" font-size="16.00">/CommandBuffer/DependencyStructs</text>
<text text-anchor="middle" x="136" y="-342.7" font-family="Source Sans Pro" font-size="16.00">/IECopyBufferToImageInfo.cpp</text>
</a>
</g>
</g>
<!-- Node2 -->
<g id="node2" class="node">
<title>Node2</title>
<g id="a_node2"><a xlink:href="_i_e_copy_buffer_to_image_info_8hpp.html" target="_top" xlink:title=" ">
<polygon fill="white" stroke="black" points="214.5,-270.5 214.5,-296.5 435.5,-296.5 435.5,-270.5 214.5,-270.5"/>
<text text-anchor="middle" x="325" y="-279.7" font-family="Source Sans Pro" font-size="16.00">IECopyBufferToImageInfo.hpp</text>
</a>
</g>
</g>
<!-- Node1&#45;&gt;Node2 -->
<g id="edge1" class="edge">
<title>Node1&#45;&gt;Node2</title>
<path fill="none" stroke="midnightblue" d="M220,-333.39C244.57,-321.95 270.1,-310.06 289.83,-300.88"/>
<polygon fill="midnightblue" stroke="midnightblue" points="291.43,-303.99 299.02,-296.6 288.48,-297.64 291.43,-303.99"/>
</g>
<!-- Node7 -->
<g id="node7" class="node">
<title>Node7</title>
<g id="a_node7"><a xlink:title=" ">
<polygon fill="white" stroke="#bfbfbf" points="800.5,-0.5 800.5,-26.5 859.5,-26.5 859.5,-0.5 800.5,-0.5"/>
<text text-anchor="middle" x="830" y="-9.7" font-family="Source Sans Pro" font-size="16.00">vector</text>
</a>
</g>
</g>
<!-- Node1&#45;&gt;Node7 -->
<g id="edge33" class="edge">
<title>Node1&#45;&gt;Node7</title>
<path fill="none" stroke="midnightblue" d="M85.7,-333.24C56.33,-305.6 25,-265.75 25,-221.5 25,-221.5 25,-221.5 25,-147.5 25,-105.76 31.34,-86.27 66,-63 126.35,-22.49 641.4,-15.8 790.01,-14.71"/>
<polygon fill="midnightblue" stroke="midnightblue" points="790.09,-18.21 800.07,-14.64 790.04,-11.21 790.09,-18.21"/>
</g>
<!-- Node3 -->
<g id="node3" class="node">
<title>Node3</title>
<g id="a_node3"><a xlink:title=" ">
<polygon fill="white" stroke="#bfbfbf" points="1149,-63.5 1149,-89.5 1223,-89.5 1223,-63.5 1149,-63.5"/>
<text text-anchor="middle" x="1186" y="-72.7" font-family="Source Sans Pro" font-size="16.00">memory</text>
</a>
</g>
</g>
<!-- Node2&#45;&gt;Node3 -->
<g id="edge2" class="edge">
<title>Node2&#45;&gt;Node3</title>
<path fill="none" stroke="midnightblue" d="M435.88,-277.63C671.75,-266.1 1206.07,-233.3 1258,-171 1270.81,-155.64 1267.39,-143.66 1258,-126 1250.81,-112.49 1237.99,-102.06 1225.14,-94.4"/>
<polygon fill="midnightblue" stroke="midnightblue" points="1226.76,-91.3 1216.31,-89.54 1223.38,-97.43 1226.76,-91.3"/>
</g>
<!-- Node4 -->
<g id="node4" class="node">
<title>Node4</title>
<g id="a_node4"><a xlink:title=" ">
<polygon fill="white" stroke="#bfbfbf" points="373.5,-63.5 373.5,-89.5 498.5,-89.5 498.5,-63.5 373.5,-63.5"/>
<text text-anchor="middle" x="436" y="-72.7" font-family="Source Sans Pro" font-size="16.00">vulkan/vulkan.h</text>
</a>
</g>
</g>
<!-- Node2&#45;&gt;Node4 -->
<g id="edge3" class="edge">
<title>Node2&#45;&gt;Node4</title>
<path fill="none" stroke="midnightblue" d="M298.75,-270.49C245.94,-244.75 135.67,-182.01 182,-126 204.66,-98.61 296.49,-86.54 363.24,-81.33"/>
<polygon fill="midnightblue" stroke="midnightblue" points="363.59,-84.81 373.31,-80.58 363.07,-77.83 363.59,-84.81"/>
</g>
<!-- Node5 -->
<g id="node5" class="node">
<title>Node5</title>
<g id="a_node5"><a xlink:href="_i_e_buffer_8hpp.html" target="_top" xlink:title=" ">
<polygon fill="white" stroke="black" points="251.5,-207.5 251.5,-233.5 398.5,-233.5 398.5,-207.5 251.5,-207.5"/>
<text text-anchor="middle" x="325" y="-216.7" font-family="Source Sans Pro" font-size="16.00">Buffer/IEBuffer.hpp</text>
</a>
</g>
</g>
<!-- Node2&#45;&gt;Node5 -->
<g id="edge4" class="edge">
<title>Node2&#45;&gt;Node5</title>
<path fill="none" stroke="midnightblue" d="M325,-270.45C325,-262.85 325,-252.79 325,-243.78"/>
<polygon fill="midnightblue" stroke="midnightblue" points="328.5,-243.53 325,-233.53 321.5,-243.53 328.5,-243.53"/>
</g>
<!-- Node15 -->
<g id="node15" class="node">
<title>Node15</title>
<g id="a_node15"><a xlink:href="_i_e_image_8hpp.html" target="_top" xlink:title=" ">
<polygon fill="white" stroke="black" points="755.5,-207.5 755.5,-233.5 904.5,-233.5 904.5,-207.5 755.5,-207.5"/>
<text text-anchor="middle" x="830" y="-216.7" font-family="Source Sans Pro" font-size="16.00">Image/IEImage.hpp</text>
</a>
</g>
</g>
<!-- Node2&#45;&gt;Node15 -->
<g id="edge22" class="edge">
<title>Node2&#45;&gt;Node15</title>
<path fill="none" stroke="midnightblue" d="M424.47,-270.48C518.13,-259.17 656.88,-242.41 745.37,-231.72"/>
<polygon fill="midnightblue" stroke="midnightblue" points="745.86,-235.19 755.37,-230.52 745.02,-228.24 745.86,-235.19"/>
</g>
<!-- Node5&#45;&gt;Node4 -->
<g id="edge18" class="edge">
<title>Node5&#45;&gt;Node4</title>
<path fill="none" stroke="midnightblue" d="M251.46,-208.25C230.04,-201.18 208.94,-189.69 196,-171 184.62,-154.56 183.34,-141.48 196,-126 216.84,-100.52 300.31,-88.12 363,-82.3"/>
<polygon fill="midnightblue" stroke="midnightblue" points="363.61,-85.76 373.26,-81.39 362.99,-78.78 363.61,-85.76"/>
</g>
<!-- Node6 -->
<g id="node6" class="node">
<title>Node6</title>
<g id="a_node6"><a xlink:href="_i_e_dependency_8hpp.html" target="_top" xlink:title=" ">
<polygon fill="white" stroke="black" points="707.5,-126.5 707.5,-170.5 952.5,-170.5 952.5,-126.5 707.5,-126.5"/>
<text text-anchor="start" x="715.5" y="-153.7" font-family="Source Sans Pro" font-size="16.00">GraphicsModule/CommandBuffer</text>
<text text-anchor="middle" x="830" y="-135.7" font-family="Source Sans Pro" font-size="16.00">/IEDependency.hpp</text>
</a>
</g>
</g>
<!-- Node5&#45;&gt;Node6 -->
<g id="edge5" class="edge">
<title>Node5&#45;&gt;Node6</title>
<path fill="none" stroke="midnightblue" d="M398.7,-209.28C476.83,-198.45 601.87,-181.12 697.25,-167.9"/>
<polygon fill="midnightblue" stroke="midnightblue" points="697.83,-171.35 707.26,-166.51 696.87,-164.42 697.83,-171.35"/>
</g>
<!-- Node5&#45;&gt;Node7 -->
<g id="edge19" class="edge">
<title>Node5&#45;&gt;Node7</title>
<path fill="none" stroke="midnightblue" d="M251.24,-214.48C189.23,-208.55 107.51,-196.11 87,-171 56.64,-133.82 54.18,-98.03 87,-63 135.28,-11.46 642.56,-12.57 790.01,-14"/>
<polygon fill="midnightblue" stroke="midnightblue" points="790.36,-17.5 800.39,-14.11 790.43,-10.5 790.36,-17.5"/>
</g>
<!-- Node9 -->
<g id="node9" class="node">
<title>Node9</title>
<g id="a_node9"><a xlink:href="_i_e_a_p_i_8hpp.html" target="_top" xlink:title=" ">
<polygon fill="white" stroke="black" points="1009.5,-135.5 1009.5,-161.5 1092.5,-161.5 1092.5,-135.5 1009.5,-135.5"/>
<text text-anchor="middle" x="1051" y="-144.7" font-family="Source Sans Pro" font-size="16.00">IEAPI.hpp</text>
</a>
</g>
</g>
<!-- Node5&#45;&gt;Node9 -->
<g id="edge10" class="edge">
<title>Node5&#45;&gt;Node9</title>
<path fill="none" stroke="midnightblue" d="M398.53,-217.74C517.57,-214.04 759.6,-202.94 962,-171 974.14,-169.08 987.07,-166.36 999.21,-163.5"/>
<polygon fill="midnightblue" stroke="midnightblue" points="1000.29,-166.84 1009.18,-161.07 998.63,-160.04 1000.29,-166.84"/>
</g>
<!-- Node11 -->
<g id="node11" class="node">
<title>Node11</title>
<g id="a_node11"><a xlink:title=" ">
<polygon fill="white" stroke="#bfbfbf" points="968.5,-0.5 968.5,-26.5 1031.5,-26.5 1031.5,-0.5 968.5,-0.5"/>
<text text-anchor="middle" x="1000" y="-9.7" font-family="Source Sans Pro" font-size="16.00">cstdint</text>
</a>
</g>
</g>
<!-- Node5&#45;&gt;Node11 -->
<g id="edge20" class="edge">
<title>Node5&#45;&gt;Node11</title>
<path fill="none" stroke="midnightblue" d="M251.17,-212.14C224.97,-205.55 198.04,-193.37 182,-171 170.35,-154.74 170.39,-142.28 182,-126 274.92,4.27 678.01,-42.93 869,-27 898.82,-24.51 932.41,-21.3 958.11,-18.75"/>
<polygon fill="midnightblue" stroke="midnightblue" points="958.65,-22.22 968.25,-17.74 957.96,-15.25 958.65,-22.22"/>
</g>
<!-- Node12 -->
<g id="node12" class="node">
<title>Node12</title>
<g id="a_node12"><a xlink:title=" ">
<polygon fill="white" stroke="#bfbfbf" points="309.5,-135.5 309.5,-161.5 494.5,-161.5 494.5,-135.5 309.5,-135.5"/>
<text text-anchor="middle" x="402" y="-144.7" font-family="Source Sans Pro" font-size="16.00">include/vk_mem_alloc.h</text>
</a>
</g>
</g>
<!-- Node5&#45;&gt;Node12 -->
<g id="edge16" class="edge">
<title>Node5&#45;&gt;Node12</title>
<path fill="none" stroke="midnightblue" d="M338.41,-207.31C350.23,-196.57 367.62,-180.75 381.24,-168.38"/>
<polygon fill="midnightblue" stroke="midnightblue" points="383.7,-170.87 388.74,-161.55 378.99,-165.69 383.7,-170.87"/>
</g>
<!-- Node13 -->
<g id="node13" class="node">
<title>Node13</title>
<g id="a_node13"><a xlink:title=" ">
<polygon fill="white" stroke="#bfbfbf" points="513,-135.5 513,-161.5 651,-161.5 651,-135.5 513,-135.5"/>
<text text-anchor="middle" x="582" y="-144.7" font-family="Source Sans Pro" font-size="16.00">include/GL/glew.h</text>
</a>
</g>
</g>
<!-- Node5&#45;&gt;Node13 -->
<g id="edge17" class="edge">
<title>Node5&#45;&gt;Node13</title>
<path fill="none" stroke="midnightblue" d="M369.52,-207.5C405.75,-197.71 458.19,-183.52 504,-171 511.9,-168.84 520.25,-166.55 528.43,-164.3"/>
<polygon fill="midnightblue" stroke="midnightblue" points="529.57,-167.62 538.28,-161.59 527.71,-160.87 529.57,-167.62"/>
</g>
<!-- Node14 -->
<g id="node14" class="node">
<title>Node14</title>
<g id="a_node14"><a xlink:title=" ">
<polygon fill="white" stroke="#bfbfbf" points="205,-135.5 205,-161.5 291,-161.5 291,-135.5 205,-135.5"/>
<text text-anchor="middle" x="248" y="-144.7" font-family="Source Sans Pro" font-size="16.00">functional</text>
</a>
</g>
</g>
<!-- Node5&#45;&gt;Node14 -->
<g id="edge21" class="edge">
<title>Node5&#45;&gt;Node14</title>
<path fill="none" stroke="midnightblue" d="M311.59,-207.31C299.77,-196.57 282.38,-180.75 268.76,-168.38"/>
<polygon fill="midnightblue" stroke="midnightblue" points="271.01,-165.69 261.26,-161.55 266.3,-170.87 271.01,-165.69"/>
</g>
<!-- Node6&#45;&gt;Node3 -->
<g id="edge9" class="edge">
<title>Node6&#45;&gt;Node3</title>
<path fill="none" stroke="midnightblue" d="M936.81,-126.5C1004.07,-113.27 1087.55,-96.86 1138.79,-86.78"/>
<polygon fill="midnightblue" stroke="midnightblue" points="1139.76,-90.16 1148.9,-84.79 1138.41,-83.29 1139.76,-90.16"/>
</g>
<!-- Node6&#45;&gt;Node4 -->
<g id="edge7" class="edge">
<title>Node6&#45;&gt;Node4</title>
<path fill="none" stroke="midnightblue" d="M711.79,-126.5C645.71,-114.76 565.48,-100.5 508.63,-90.4"/>
<polygon fill="midnightblue" stroke="midnightblue" points="509.11,-86.93 498.65,-88.63 507.89,-93.83 509.11,-86.93"/>
</g>
<!-- Node6&#45;&gt;Node7 -->
<g id="edge6" class="edge">
<title>Node6&#45;&gt;Node7</title>
<path fill="none" stroke="midnightblue" d="M830,-126.43C830,-102.03 830,-62.03 830,-37.03"/>
<polygon fill="midnightblue" stroke="midnightblue" points="833.5,-36.71 830,-26.71 826.5,-36.71 833.5,-36.71"/>
</g>
<!-- Node8 -->
<g id="node8" class="node">
<title>Node8</title>
<g id="a_node8"><a xlink:title=" ">
<polygon fill="white" stroke="#bfbfbf" points="1139.5,-0.5 1139.5,-26.5 1194.5,-26.5 1194.5,-0.5 1139.5,-0.5"/>
<text text-anchor="middle" x="1167" y="-9.7" font-family="Source Sans Pro" font-size="16.00">string</text>
</a>
</g>
</g>
<!-- Node6&#45;&gt;Node8 -->
<g id="edge8" class="edge">
<title>Node6&#45;&gt;Node8</title>
<path fill="none" stroke="midnightblue" d="M952.72,-126.84C989.53,-118.15 1029.32,-106.19 1064,-90 1095.29,-75.39 1126.63,-50.61 1146.38,-33.45"/>
<polygon fill="midnightblue" stroke="midnightblue" points="1148.94,-35.86 1154.1,-26.61 1144.29,-30.62 1148.94,-35.86"/>
</g>
<!-- Node9&#45;&gt;Node8 -->
<g id="edge15" class="edge">
<title>Node9&#45;&gt;Node8</title>
<path fill="none" stroke="midnightblue" d="M1092.65,-137.03C1143.42,-123.85 1223.56,-101.54 1232,-90 1247.3,-69.08 1222.42,-46.78 1199.15,-31.89"/>
<polygon fill="midnightblue" stroke="midnightblue" points="1200.76,-28.77 1190.4,-26.56 1197.12,-34.75 1200.76,-28.77"/>
</g>
<!-- Node10 -->
<g id="node10" class="node">
<title>Node10</title>
<g id="a_node10"><a xlink:href="_i_e_version_8hpp.html" target="_top" xlink:title=" ">
<polygon fill="white" stroke="black" points="945,-63.5 945,-89.5 1055,-89.5 1055,-63.5 945,-63.5"/>
<text text-anchor="middle" x="1000" y="-72.7" font-family="Source Sans Pro" font-size="16.00">IEVersion.hpp</text>
</a>
</g>
</g>
<!-- Node9&#45;&gt;Node10 -->
<g id="edge11" class="edge">
<title>Node9&#45;&gt;Node10</title>
<path fill="none" stroke="midnightblue" d="M1042.12,-135.31C1034.58,-124.97 1023.63,-109.93 1014.77,-97.78"/>
<polygon fill="midnightblue" stroke="midnightblue" points="1017.5,-95.57 1008.78,-89.55 1011.84,-99.7 1017.5,-95.57"/>
</g>
<!-- Node10&#45;&gt;Node7 -->
<g id="edge14" class="edge">
<title>Node10&#45;&gt;Node7</title>
<path fill="none" stroke="midnightblue" d="M966.41,-63.45C938.42,-53.4 898.51,-39.08 869.09,-28.52"/>
<polygon fill="midnightblue" stroke="midnightblue" points="870.14,-25.18 859.54,-25.1 867.77,-31.77 870.14,-25.18"/>
</g>
<!-- Node10&#45;&gt;Node8 -->
<g id="edge13" class="edge">
<title>Node10&#45;&gt;Node8</title>
<path fill="none" stroke="midnightblue" d="M1032.99,-63.45C1060.8,-53.29 1100.57,-38.76 1129.56,-28.17"/>
<polygon fill="midnightblue" stroke="midnightblue" points="1131.14,-31.33 1139.33,-24.61 1128.74,-24.75 1131.14,-31.33"/>
</g>
<!-- Node10&#45;&gt;Node11 -->
<g id="edge12" class="edge">
<title>Node10&#45;&gt;Node11</title>
<path fill="none" stroke="midnightblue" d="M1000,-63.45C1000,-55.85 1000,-45.79 1000,-36.78"/>
<polygon fill="midnightblue" stroke="midnightblue" points="1003.5,-36.53 1000,-26.53 996.5,-36.53 1003.5,-36.53"/>
</g>
<!-- Node15&#45;&gt;Node4 -->
<g id="edge27" class="edge">
<title>Node15&#45;&gt;Node4</title>
<path fill="none" stroke="midnightblue" d="M780.21,-207.49C754.47,-199.74 723.42,-187.91 699,-171 677.24,-155.93 682.77,-139.49 660,-126 614.17,-98.84 555.02,-86.83 509.01,-81.54"/>
<polygon fill="midnightblue" stroke="midnightblue" points="509.12,-78.03 498.8,-80.45 508.38,-84.99 509.12,-78.03"/>
</g>
<!-- Node15&#45;&gt;Node6 -->
<g id="edge23" class="edge">
<title>Node15&#45;&gt;Node6</title>
<path fill="none" stroke="midnightblue" d="M830,-207.31C830,-199.96 830,-190.25 830,-180.88"/>
<polygon fill="midnightblue" stroke="midnightblue" points="833.5,-180.6 830,-170.6 826.5,-180.6 833.5,-180.6"/>
</g>
<!-- Node15&#45;&gt;Node7 -->
<g id="edge31" class="edge">
<title>Node15&#45;&gt;Node7</title>
<path fill="none" stroke="midnightblue" d="M904.51,-208.87C926.67,-201.84 948.59,-190.22 962,-171 973.45,-154.6 970.42,-144.14 962,-126 950.76,-101.8 891.38,-57.38 856.21,-32.53"/>
<polygon fill="midnightblue" stroke="midnightblue" points="858.03,-29.54 847.83,-26.66 854.01,-35.27 858.03,-29.54"/>
</g>
<!-- Node15&#45;&gt;Node8 -->
<g id="edge30" class="edge">
<title>Node15&#45;&gt;Node8</title>
<path fill="none" stroke="midnightblue" d="M904.72,-216.35C1021.13,-210.67 1234.93,-196.83 1258,-171 1270.44,-157.07 1249.17,-64.73 1248,-63 1237.41,-47.33 1219.92,-35.94 1203.89,-28.15"/>
<polygon fill="midnightblue" stroke="midnightblue" points="1205.24,-24.92 1194.69,-23.97 1202.35,-31.29 1205.24,-24.92"/>
</g>
<!-- Node15&#45;&gt;Node9 -->
<g id="edge24" class="edge">
<title>Node15&#45;&gt;Node9</title>
<path fill="none" stroke="midnightblue" d="M874.42,-207.49C907.81,-198.21 954.56,-184.68 995,-171 1000.3,-169.21 1005.85,-167.22 1011.3,-165.2"/>
<polygon fill="midnightblue" stroke="midnightblue" points="1012.82,-168.36 1020.94,-161.55 1010.35,-161.81 1012.82,-168.36"/>
</g>
<!-- Node15&#45;&gt;Node11 -->
<g id="edge29" class="edge">
<title>Node15&#45;&gt;Node11</title>
<path fill="none" stroke="midnightblue" d="M904.66,-216.63C976.33,-212.12 1077.25,-200.56 1102,-171 1140.88,-124.57 1068.78,-62.62 1026.91,-32.48"/>
<polygon fill="midnightblue" stroke="midnightblue" points="1028.68,-29.45 1018.49,-26.55 1024.65,-35.17 1028.68,-29.45"/>
</g>
<!-- Node15&#45;&gt;Node12 -->
<g id="edge26" class="edge">
<title>Node15&#45;&gt;Node12</title>
<path fill="none" stroke="midnightblue" d="M755.34,-209.69C689.13,-200.68 589.89,-186.43 504,-171 491.7,-168.79 478.62,-166.21 466.07,-163.62"/>
<polygon fill="midnightblue" stroke="midnightblue" points="466.64,-160.16 456.14,-161.54 465.21,-167.01 466.64,-160.16"/>
</g>
<!-- Node15&#45;&gt;Node13 -->
<g id="edge25" class="edge">
<title>Node15&#45;&gt;Node13</title>
<path fill="none" stroke="midnightblue" d="M787.37,-207.47C745.05,-195.52 680.09,-177.19 634.59,-164.34"/>
<polygon fill="midnightblue" stroke="midnightblue" points="635.48,-160.96 624.91,-161.61 633.58,-167.7 635.48,-160.96"/>
</g>
<!-- Node15&#45;&gt;Node14 -->
<g id="edge32" class="edge">
<title>Node15&#45;&gt;Node14</title>
<path fill="none" stroke="midnightblue" d="M755.28,-219.51C651.78,-217.98 459.62,-209.55 301,-171 295.07,-169.56 288.92,-167.57 283.02,-165.38"/>
<polygon fill="midnightblue" stroke="midnightblue" points="283.96,-161.99 273.38,-161.56 281.39,-168.49 283.96,-161.99"/>
</g>
<!-- Node16 -->
<g id="node16" class="node">
<title>Node16</title>
<g id="a_node16"><a xlink:title=" ">
<polygon fill="white" stroke="#bfbfbf" points="1149,-135.5 1149,-161.5 1249,-161.5 1249,-135.5 1149,-135.5"/>
<text text-anchor="middle" x="1199" y="-144.7" font-family="Source Sans Pro" font-size="16.00">stb_image.h</text>
</a>
</g>
</g>
<!-- Node15&#45;&gt;Node16 -->
<g id="edge28" class="edge">
<title>Node15&#45;&gt;Node16</title>
<path fill="none" stroke="midnightblue" d="M904.65,-211.15C966.82,-203.36 1057.42,-190.06 1135,-171 1142.12,-169.25 1149.58,-167.07 1156.8,-164.78"/>
<polygon fill="midnightblue" stroke="midnightblue" points="1158.02,-168.06 1166.42,-161.61 1155.83,-161.41 1158.02,-168.06"/>
</g>
</g>
</svg>
