<?xml version="1.0" encoding="UTF-8" standalone="no"?>
<!DOCTYPE svg PUBLIC "-//W3C//DTD SVG 1.1//EN"
 "http://www.w3.org/Graphics/SVG/1.1/DTD/svg11.dtd">
<!-- Generated by graphviz version 2.43.0 (0)
 -->
<!-- Title: Illumination&#45;Engine/src/GraphicsModule/Renderable/IEVertex.hpp Pages: 1 -->
<svg width="356pt" height="134pt"
 viewBox="0.00 0.00 355.50 134.00" xmlns="http://www.w3.org/2000/svg" xmlns:xlink="http://www.w3.org/1999/xlink">
<g id="graph0" class="graph" transform="scale(1 1) rotate(0) translate(4 130)">
<title>Illumination&#45;Engine/src/GraphicsModule/Renderable/IEVertex.hpp</title>
<polygon fill="white" stroke="transparent" points="-4,4 -4,-130 351.5,-130 351.5,4 -4,4"/>
<!-- Node1 -->
<g id="node1" class="node">
<title>Node1</title>
<g id="a_node1"><a xlink:title=" ">
<polygon fill="#bfbfbf" stroke="black" points="111,-63.5 111,-125.5 301,-125.5 301,-63.5 111,-63.5"/>
<text text-anchor="start" x="119" y="-108.7" font-family="Source Sans Pro" font-size="16.00">Illumination&#45;Engine</text>
<text text-anchor="start" x="119" y="-90.7" font-family="Source Sans Pro" font-size="16.00">/src/GraphicsModule</text>
<text text-anchor="middle" x="206" y="-72.7" font-family="Source Sans Pro" font-size="16.00">/Renderable/IEVertex.hpp</text>
</a>
</g>
</g>
<!-- Node2 -->
<g id="node2" class="node">
<title>Node2</title>
<g id="a_node2"><a xlink:title=" ">
<polygon fill="white" stroke="#bfbfbf" points="0,-0.5 0,-26.5 104,-26.5 104,-0.5 0,-0.5"/>
<text text-anchor="middle" x="52" y="-9.7" font-family="Source Sans Pro" font-size="16.00">glm/glm.hpp</text>
</a>
</g>
</g>
<!-- Node1&#45;&gt;Node2 -->
<g id="edge1" class="edge">
<title>Node1&#45;&gt;Node2</title>
<path fill="none" stroke="midnightblue" d="M147.34,-63.41C126.06,-52.49 102.79,-40.56 84.57,-31.21"/>
<polygon fill="midnightblue" stroke="midnightblue" points="86.04,-28.03 75.54,-26.58 82.84,-34.26 86.04,-28.03"/>
</g>
<!-- Node3 -->
<g id="node3" class="node">
<title>Node3</title>
<g id="a_node3"><a xlink:title=" ">
<polygon fill="white" stroke="#bfbfbf" points="122.5,-0.5 122.5,-26.5 205.5,-26.5 205.5,-0.5 122.5,-0.5"/>
<text text-anchor="middle" x="164" y="-9.7" font-family="Source Sans Pro" font-size="16.00">GL/glew.h</text>
</a>
</g>
</g>
<!-- Node1&#45;&gt;Node3 -->
<g id="edge2" class="edge">
<title>Node1&#45;&gt;Node3</title>
<path fill="none" stroke="midnightblue" d="M189.88,-63.18C184.97,-53.95 179.69,-44.01 175.18,-35.54"/>
<polygon fill="midnightblue" stroke="midnightblue" points="178.27,-33.89 170.49,-26.7 172.09,-37.18 178.27,-33.89"/>
</g>
<!-- Node4 -->
<g id="node4" class="node">
<title>Node4</title>
<g id="a_node4"><a xlink:title=" ">
<polygon fill="white" stroke="#bfbfbf" points="223.5,-0.5 223.5,-26.5 274.5,-26.5 274.5,-0.5 223.5,-0.5"/>
<text text-anchor="middle" x="249" y="-9.7" font-family="Source Sans Pro" font-size="16.00">array</text>
</a>
</g>
</g>
<!-- Node1&#45;&gt;Node4 -->
<g id="edge3" class="edge">
<title>Node1&#45;&gt;Node4</title>
<path fill="none" stroke="midnightblue" d="M222.5,-63.18C227.53,-53.95 232.94,-44.01 237.55,-35.54"/>
<polygon fill="midnightblue" stroke="midnightblue" points="240.65,-37.16 242.36,-26.7 234.5,-33.81 240.65,-37.16"/>
</g>
<!-- Node5 -->
<g id="node5" class="node">
<title>Node5</title>
<g id="a_node5"><a xlink:title=" ">
<polygon fill="white" stroke="#bfbfbf" points="292.5,-0.5 292.5,-26.5 347.5,-26.5 347.5,-0.5 292.5,-0.5"/>
<text text-anchor="middle" x="320" y="-9.7" font-family="Source Sans Pro" font-size="16.00">string</text>
</a>
</g>
</g>
<!-- Node1&#45;&gt;Node5 -->
<g id="edge4" class="edge">
<title>Node1&#45;&gt;Node5</title>
<path fill="none" stroke="midnightblue" d="M249.42,-63.41C264.45,-52.99 280.82,-41.65 294.01,-32.51"/>
<polygon fill="midnightblue" stroke="midnightblue" points="296.35,-35.15 302.57,-26.58 292.36,-29.4 296.35,-35.15"/>
</g>
</g>
</svg>
