<?xml version="1.0" encoding="UTF-8" standalone="no"?>
<!DOCTYPE svg PUBLIC "-//W3C//DTD SVG 1.1//EN"
 "http://www.w3.org/Graphics/SVG/1.1/DTD/svg11.dtd">
<!-- Generated by graphviz version 2.43.0 (0)
 -->
<!-- Title: Illumination&#45;Engine/src/GraphicsModule/CommandBuffer/DependencyStructs/IERenderPassBeginInfo.cpp Pages: 1 -->
<svg width="2325pt" height="701pt"
 viewBox="0.00 0.00 2325.00 701.00" xmlns="http://www.w3.org/2000/svg" xmlns:xlink="http://www.w3.org/1999/xlink">
<g id="graph0" class="graph" transform="scale(1 1) rotate(0) translate(4 697)">
<title>Illumination&#45;Engine/src/GraphicsModule/CommandBuffer/DependencyStructs/IERenderPassBeginInfo.cpp</title>
<polygon fill="white" stroke="transparent" points="-4,4 -4,-697 2321,-697 2321,4 -4,4"/>
<!-- Node1 -->
<g id="node1" class="node">
<title>Node1</title>
<g id="a_node1"><a xlink:title=" ">
<polygon fill="#bfbfbf" stroke="black" points="136,-612.5 136,-692.5 408,-692.5 408,-612.5 136,-612.5"/>
<text text-anchor="start" x="144" y="-675.7" font-family="Source Sans Pro" font-size="16.00">Illumination&#45;Engine</text>
<text text-anchor="start" x="144" y="-657.7" font-family="Source Sans Pro" font-size="16.00">/src/GraphicsModule</text>
<text text-anchor="start" x="144" y="-639.7" font-family="Source Sans Pro" font-size="16.00">/CommandBuffer/DependencyStructs</text>
<text text-anchor="middle" x="272" y="-621.7" font-family="Source Sans Pro" font-size="16.00">/IERenderPassBeginInfo.cpp</text>
</a>
</g>
</g>
<!-- Node2 -->
<g id="node2" class="node">
<title>Node2</title>
<g id="a_node2"><a xlink:href="_i_e_render_pass_begin_info_8hpp.html" target="_top" xlink:title=" ">
<polygon fill="white" stroke="black" points="32.5,-396.5 32.5,-422.5 235.5,-422.5 235.5,-396.5 32.5,-396.5"/>
<text text-anchor="middle" x="134" y="-405.7" font-family="Source Sans Pro" font-size="16.00">IERenderPassBeginInfo.hpp</text>
</a>
</g>
</g>
<!-- Node1&#45;&gt;Node2 -->
<g id="edge1" class="edge">
<title>Node1&#45;&gt;Node2</title>
<path fill="none" stroke="midnightblue" d="M249.52,-612.24C219.97,-560.63 169.1,-471.79 146.01,-431.48"/>
<polygon fill="midnightblue" stroke="midnightblue" points="149.03,-429.7 141.02,-422.77 142.96,-433.18 149.03,-429.7"/>
</g>
<!-- Node17 -->
<g id="node17" class="node">
<title>Node17</title>
<g id="a_node17"><a xlink:href="_i_e_render_pass_8hpp.html" target="_top" xlink:title=" ">
<polygon fill="white" stroke="black" points="534.5,-531.5 534.5,-575.5 745.5,-575.5 745.5,-531.5 534.5,-531.5"/>
<text text-anchor="start" x="542.5" y="-558.7" font-family="Source Sans Pro" font-size="16.00">GraphicsModule/RenderPass</text>
<text text-anchor="middle" x="640" y="-540.7" font-family="Source Sans Pro" font-size="16.00">/IERenderPass.hpp</text>
</a>
</g>
</g>
<!-- Node1&#45;&gt;Node17 -->
<g id="edge27" class="edge">
<title>Node1&#45;&gt;Node17</title>
<path fill="none" stroke="midnightblue" d="M408.25,-615.59C455.71,-603.08 507.73,-589.36 550.44,-578.11"/>
<polygon fill="midnightblue" stroke="midnightblue" points="551.46,-581.46 560.24,-575.52 549.68,-574.69 551.46,-581.46"/>
</g>
<!-- Node3 -->
<g id="node3" class="node">
<title>Node3</title>
<g id="a_node3"><a xlink:href="_i_e_framebuffer_8hpp.html" target="_top" xlink:title=" ">
<polygon fill="white" stroke="black" points="114.5,-306.5 114.5,-350.5 325.5,-350.5 325.5,-306.5 114.5,-306.5"/>
<text text-anchor="start" x="122.5" y="-333.7" font-family="Source Sans Pro" font-size="16.00">GraphicsModule/RenderPass</text>
<text text-anchor="middle" x="220" y="-315.7" font-family="Source Sans Pro" font-size="16.00">/IEFramebuffer.hpp</text>
</a>
</g>
</g>
<!-- Node2&#45;&gt;Node3 -->
<g id="edge2" class="edge">
<title>Node2&#45;&gt;Node3</title>
<path fill="none" stroke="midnightblue" d="M147.44,-396.16C158.6,-385.9 174.91,-370.92 189.24,-357.76"/>
<polygon fill="midnightblue" stroke="midnightblue" points="191.96,-360.01 196.95,-350.67 187.22,-354.86 191.96,-360.01"/>
</g>
<!-- Node6 -->
<g id="node6" class="node">
<title>Node6</title>
<g id="a_node6"><a xlink:title=" ">
<polygon fill="white" stroke="#bfbfbf" points="1220,-72.5 1220,-98.5 1294,-98.5 1294,-72.5 1220,-72.5"/>
<text text-anchor="middle" x="1257" y="-81.7" font-family="Source Sans Pro" font-size="16.00">memory</text>
</a>
</g>
</g>
<!-- Node2&#45;&gt;Node6 -->
<g id="edge26" class="edge">
<title>Node2&#45;&gt;Node6</title>
<path fill="none" stroke="midnightblue" d="M125.46,-396.49C112.72,-377 91.62,-337.49 105,-306 145.56,-210.53 177.99,-185.61 273,-144 359.3,-106.2 1025.32,-90.88 1209.78,-87.34"/>
<polygon fill="midnightblue" stroke="midnightblue" points="1210.04,-90.84 1219.97,-87.15 1209.9,-83.84 1210.04,-90.84"/>
</g>
<!-- Node4 -->
<g id="node4" class="node">
<title>Node4</title>
<g id="a_node4"><a xlink:href="_i_e_image_8hpp.html" target="_top" xlink:title=" ">
<polygon fill="white" stroke="black" points="511,-225.5 511,-269.5 685,-269.5 685,-225.5 511,-225.5"/>
<text text-anchor="start" x="519" y="-252.7" font-family="Source Sans Pro" font-size="16.00">GraphicsModule/Image</text>
<text text-anchor="middle" x="598" y="-234.7" font-family="Source Sans Pro" font-size="16.00">/IEImage.hpp</text>
</a>
</g>
</g>
<!-- Node3&#45;&gt;Node4 -->
<g id="edge3" class="edge">
<title>Node3&#45;&gt;Node4</title>
<path fill="none" stroke="midnightblue" d="M320.8,-306.43C376.71,-294.75 445.9,-280.29 501.16,-268.74"/>
<polygon fill="midnightblue" stroke="midnightblue" points="501.89,-272.16 510.96,-266.69 500.46,-265.31 501.89,-272.16"/>
</g>
<!-- Node7 -->
<g id="node7" class="node">
<title>Node7</title>
<g id="a_node7"><a xlink:title=" ">
<polygon fill="white" stroke="#bfbfbf" points="442.5,-0.5 442.5,-26.5 497.5,-26.5 497.5,-0.5 442.5,-0.5"/>
<text text-anchor="middle" x="470" y="-9.7" font-family="Source Sans Pro" font-size="16.00">string</text>
</a>
</g>
</g>
<!-- Node3&#45;&gt;Node7 -->
<g id="edge24" class="edge">
<title>Node3&#45;&gt;Node7</title>
<path fill="none" stroke="midnightblue" d="M155.65,-306.37C135.96,-297.52 115.45,-285.58 100,-270 58.81,-228.47 29.53,-192.65 62,-144 104.21,-80.76 339.59,-35.88 432.39,-20.41"/>
<polygon fill="midnightblue" stroke="midnightblue" points="433.16,-23.83 442.46,-18.76 432.02,-16.93 433.16,-23.83"/>
</g>
<!-- Node8 -->
<g id="node8" class="node">
<title>Node8</title>
<g id="a_node8"><a xlink:title=" ">
<polygon fill="white" stroke="#bfbfbf" points="1319.5,-0.5 1319.5,-26.5 1378.5,-26.5 1378.5,-0.5 1319.5,-0.5"/>
<text text-anchor="middle" x="1349" y="-9.7" font-family="Source Sans Pro" font-size="16.00">vector</text>
</a>
</g>
</g>
<!-- Node3&#45;&gt;Node8 -->
<g id="edge25" class="edge">
<title>Node3&#45;&gt;Node8</title>
<path fill="none" stroke="midnightblue" d="M196.85,-306.27C159.58,-269.56 94.61,-193.44 138,-144 178.65,-97.68 354.47,-127.31 413,-108 452.11,-95.1 454.44,-74.46 494,-63 649.87,-17.86 1161.57,-14.44 1308.95,-14.41"/>
<polygon fill="midnightblue" stroke="midnightblue" points="1309.32,-17.91 1319.32,-14.41 1309.32,-10.91 1309.32,-17.91"/>
</g>
<!-- Node9 -->
<g id="node9" class="node">
<title>Node9</title>
<g id="a_node9"><a xlink:title=" ">
<polygon fill="white" stroke="#bfbfbf" points="1403.5,-72.5 1403.5,-98.5 1528.5,-98.5 1528.5,-72.5 1403.5,-72.5"/>
<text text-anchor="middle" x="1466" y="-81.7" font-family="Source Sans Pro" font-size="16.00">vulkan/vulkan.h</text>
</a>
</g>
</g>
<!-- Node3&#45;&gt;Node9 -->
<g id="edge23" class="edge">
<title>Node3&#45;&gt;Node9</title>
<path fill="none" stroke="midnightblue" d="M224.71,-306.3C234.84,-266.38 262.82,-180.73 323,-144 416.01,-87.23 1194.42,-117.13 1303,-108 1332.64,-105.51 1365.16,-101.48 1393.3,-97.58"/>
<polygon fill="midnightblue" stroke="midnightblue" points="1394.04,-101.01 1403.45,-96.16 1393.06,-94.08 1394.04,-101.01"/>
</g>
<!-- Node5 -->
<g id="node5" class="node">
<title>Node5</title>
<g id="a_node5"><a xlink:href="_i_e_dependency_8hpp.html" target="_top" xlink:title=" ">
<polygon fill="white" stroke="black" points="844.5,-144.5 844.5,-188.5 1089.5,-188.5 1089.5,-144.5 844.5,-144.5"/>
<text text-anchor="start" x="852.5" y="-171.7" font-family="Source Sans Pro" font-size="16.00">GraphicsModule/CommandBuffer</text>
<text text-anchor="middle" x="967" y="-153.7" font-family="Source Sans Pro" font-size="16.00">/IEDependency.hpp</text>
</a>
</g>
</g>
<!-- Node4&#45;&gt;Node5 -->
<g id="edge4" class="edge">
<title>Node4&#45;&gt;Node5</title>
<path fill="none" stroke="midnightblue" d="M685.45,-227.78C737.42,-216.65 803.75,-202.45 858.98,-190.63"/>
<polygon fill="midnightblue" stroke="midnightblue" points="859.76,-194.04 868.8,-188.52 858.29,-187.19 859.76,-194.04"/>
</g>
<!-- Node4&#45;&gt;Node7 -->
<g id="edge21" class="edge">
<title>Node4&#45;&gt;Node7</title>
<path fill="none" stroke="midnightblue" d="M510.65,-244.42C419.23,-240.17 284.53,-227.38 252,-189 224.27,-156.28 282.65,-65.06 285,-63 326.21,-26.84 391.23,-17.15 432.2,-14.83"/>
<polygon fill="midnightblue" stroke="midnightblue" points="432.48,-18.32 442.31,-14.37 432.17,-11.32 432.48,-18.32"/>
</g>
<!-- Node4&#45;&gt;Node8 -->
<g id="edge22" class="edge">
<title>Node4&#45;&gt;Node8</title>
<path fill="none" stroke="midnightblue" d="M510.96,-242.11C410.34,-233.89 265.48,-210.46 323,-144 333.27,-132.14 866.43,-64.94 882,-63 1039.92,-43.37 1228.58,-25.47 1309.25,-18.08"/>
<polygon fill="midnightblue" stroke="midnightblue" points="1309.81,-21.55 1319.45,-17.15 1309.17,-14.57 1309.81,-21.55"/>
</g>
<!-- Node4&#45;&gt;Node9 -->
<g id="edge18" class="edge">
<title>Node4&#45;&gt;Node9</title>
<path fill="none" stroke="midnightblue" d="M547.06,-225.37C532.07,-216.47 517.44,-204.51 509,-189 499.44,-171.43 495.18,-158.46 509,-144 539.51,-112.08 1259.02,-111.89 1303,-108 1332.63,-105.38 1365.14,-101.33 1393.29,-97.45"/>
<polygon fill="midnightblue" stroke="midnightblue" points="1394.02,-100.88 1403.44,-96.03 1393.05,-93.95 1394.02,-100.88"/>
</g>
<!-- Node10 -->
<g id="node10" class="node">
<title>Node10</title>
<g id="a_node10"><a xlink:href="_i_e_a_p_i_8hpp.html" target="_top" xlink:title=" ">
<polygon fill="white" stroke="black" points="704.5,-153.5 704.5,-179.5 787.5,-179.5 787.5,-153.5 704.5,-153.5"/>
<text text-anchor="middle" x="746" y="-162.7" font-family="Source Sans Pro" font-size="16.00">IEAPI.hpp</text>
</a>
</g>
</g>
<!-- Node4&#45;&gt;Node10 -->
<g id="edge9" class="edge">
<title>Node4&#45;&gt;Node10</title>
<path fill="none" stroke="midnightblue" d="M637.66,-225.33C661.64,-212.53 691.79,-196.44 714.19,-184.48"/>
<polygon fill="midnightblue" stroke="midnightblue" points="716.11,-187.42 723.28,-179.63 712.81,-181.25 716.11,-187.42"/>
</g>
<!-- Node12 -->
<g id="node12" class="node">
<title>Node12</title>
<g id="a_node12"><a xlink:title=" ">
<polygon fill="white" stroke="#bfbfbf" points="177.5,-0.5 177.5,-26.5 240.5,-26.5 240.5,-0.5 177.5,-0.5"/>
<text text-anchor="middle" x="209" y="-9.7" font-family="Source Sans Pro" font-size="16.00">cstdint</text>
</a>
</g>
</g>
<!-- Node4&#45;&gt;Node12 -->
<g id="edge19" class="edge">
<title>Node4&#45;&gt;Node12</title>
<path fill="none" stroke="midnightblue" d="M510.88,-243.71C417.71,-238.84 278.3,-225.5 241,-189 199.9,-148.78 201.73,-74.42 205.73,-37.1"/>
<polygon fill="midnightblue" stroke="midnightblue" points="209.25,-37.14 207,-26.79 202.3,-36.29 209.25,-37.14"/>
</g>
<!-- Node13 -->
<g id="node13" class="node">
<title>Node13</title>
<g id="a_node13"><a xlink:title=" ">
<polygon fill="white" stroke="#bfbfbf" points="1107.5,-153.5 1107.5,-179.5 1190.5,-179.5 1190.5,-153.5 1107.5,-153.5"/>
<text text-anchor="middle" x="1149" y="-162.7" font-family="Source Sans Pro" font-size="16.00">GL/glew.h</text>
</a>
</g>
</g>
<!-- Node4&#45;&gt;Node13 -->
<g id="edge15" class="edge">
<title>Node4&#45;&gt;Node13</title>
<path fill="none" stroke="midnightblue" d="M685.4,-234.82C710.74,-231.53 738.46,-228.03 764,-225 912.26,-207.41 953.45,-226.4 1098,-189 1103.52,-187.57 1109.23,-185.65 1114.73,-183.54"/>
<polygon fill="midnightblue" stroke="midnightblue" points="1116.42,-186.63 1124.34,-179.6 1113.76,-180.15 1116.42,-186.63"/>
</g>
<!-- Node14 -->
<g id="node14" class="node">
<title>Node14</title>
<g id="a_node14"><a xlink:title=" ">
<polygon fill="white" stroke="#bfbfbf" points="332,-144.5 332,-188.5 462,-188.5 462,-144.5 332,-144.5"/>
<text text-anchor="start" x="340" y="-171.7" font-family="Source Sans Pro" font-size="16.00">../contrib/stb/stb</text>
<text text-anchor="middle" x="397" y="-153.7" font-family="Source Sans Pro" font-size="16.00">_image.h</text>
</a>
</g>
</g>
<!-- Node4&#45;&gt;Node14 -->
<g id="edge16" class="edge">
<title>Node4&#45;&gt;Node14</title>
<path fill="none" stroke="midnightblue" d="M544.4,-225.43C518.39,-215.21 486.98,-202.87 459.85,-192.2"/>
<polygon fill="midnightblue" stroke="midnightblue" points="461.04,-188.91 450.45,-188.51 458.48,-195.42 461.04,-188.91"/>
</g>
<!-- Node15 -->
<g id="node15" class="node">
<title>Node15</title>
<g id="a_node15"><a xlink:title=" ">
<polygon fill="white" stroke="#bfbfbf" points="518.5,-153.5 518.5,-179.5 647.5,-179.5 647.5,-153.5 518.5,-153.5"/>
<text text-anchor="middle" x="583" y="-162.7" font-family="Source Sans Pro" font-size="16.00">vk_mem_alloc.h</text>
</a>
</g>
</g>
<!-- Node4&#45;&gt;Node15 -->
<g id="edge17" class="edge">
<title>Node4&#45;&gt;Node15</title>
<path fill="none" stroke="midnightblue" d="M593.98,-225.33C591.88,-214.25 589.3,-200.69 587.17,-189.49"/>
<polygon fill="midnightblue" stroke="midnightblue" points="590.61,-188.8 585.3,-179.63 583.73,-190.1 590.61,-188.8"/>
</g>
<!-- Node16 -->
<g id="node16" class="node">
<title>Node16</title>
<g id="a_node16"><a xlink:title=" ">
<polygon fill="white" stroke="#bfbfbf" points="1627,-153.5 1627,-179.5 1713,-179.5 1713,-153.5 1627,-153.5"/>
<text text-anchor="middle" x="1670" y="-162.7" font-family="Source Sans Pro" font-size="16.00">functional</text>
</a>
</g>
</g>
<!-- Node4&#45;&gt;Node16 -->
<g id="edge20" class="edge">
<title>Node4&#45;&gt;Node16</title>
<path fill="none" stroke="midnightblue" d="M685.32,-234.1C710.66,-230.8 738.4,-227.47 764,-225 1086.94,-193.87 1476.32,-175.63 1616.49,-169.67"/>
<polygon fill="midnightblue" stroke="midnightblue" points="1616.7,-173.17 1626.54,-169.25 1616.4,-166.17 1616.7,-173.17"/>
</g>
<!-- Node5&#45;&gt;Node6 -->
<g id="edge5" class="edge">
<title>Node5&#45;&gt;Node6</title>
<path fill="none" stroke="midnightblue" d="M1044.33,-144.43C1097.06,-130.07 1165.17,-111.52 1209.92,-99.32"/>
<polygon fill="midnightblue" stroke="midnightblue" points="1210.93,-102.68 1219.66,-96.67 1209.09,-95.92 1210.93,-102.68"/>
</g>
<!-- Node5&#45;&gt;Node7 -->
<g id="edge6" class="edge">
<title>Node5&#45;&gt;Node7</title>
<path fill="none" stroke="midnightblue" d="M897.63,-144.42C791.03,-112.04 590.57,-51.13 507.52,-25.9"/>
<polygon fill="midnightblue" stroke="midnightblue" points="508.34,-22.49 497.75,-22.93 506.3,-29.19 508.34,-22.49"/>
</g>
<!-- Node5&#45;&gt;Node8 -->
<g id="edge7" class="edge">
<title>Node5&#45;&gt;Node8</title>
<path fill="none" stroke="midnightblue" d="M1014.81,-144.42C1063.75,-123.07 1142.19,-89.52 1211,-63 1244.03,-50.27 1282,-37.03 1309.74,-27.6"/>
<polygon fill="midnightblue" stroke="midnightblue" points="1311.12,-30.83 1319.47,-24.31 1308.88,-24.2 1311.12,-30.83"/>
</g>
<!-- Node5&#45;&gt;Node9 -->
<g id="edge8" class="edge">
<title>Node5&#45;&gt;Node9</title>
<path fill="none" stroke="midnightblue" d="M1089.72,-145.33C1092.51,-144.88 1095.27,-144.44 1098,-144 1200.45,-127.59 1319.04,-109.16 1393.29,-97.69"/>
<polygon fill="midnightblue" stroke="midnightblue" points="1394.12,-101.11 1403.47,-96.12 1393.05,-94.19 1394.12,-101.11"/>
</g>
<!-- Node10&#45;&gt;Node7 -->
<g id="edge14" class="edge">
<title>Node10&#45;&gt;Node7</title>
<path fill="none" stroke="midnightblue" d="M723.88,-153.4C674.93,-126.62 557.32,-62.27 501.03,-31.48"/>
<polygon fill="midnightblue" stroke="midnightblue" points="502.68,-28.39 492.23,-26.66 499.32,-34.53 502.68,-28.39"/>
</g>
<!-- Node11 -->
<g id="node11" class="node">
<title>Node11</title>
<g id="a_node11"><a xlink:href="_i_e_version_8hpp.html" target="_top" xlink:title=" ">
<polygon fill="white" stroke="black" points="294,-72.5 294,-98.5 404,-98.5 404,-72.5 294,-72.5"/>
<text text-anchor="middle" x="349" y="-81.7" font-family="Source Sans Pro" font-size="16.00">IEVersion.hpp</text>
</a>
</g>
</g>
<!-- Node10&#45;&gt;Node11 -->
<g id="edge10" class="edge">
<title>Node10&#45;&gt;Node11</title>
<path fill="none" stroke="midnightblue" d="M718.19,-153.47C709.31,-150 699.36,-146.49 690,-144 588.3,-116.99 559.61,-126.37 456,-108 442.41,-105.59 427.9,-102.81 414.08,-100.07"/>
<polygon fill="midnightblue" stroke="midnightblue" points="414.66,-96.62 404.17,-98.09 413.29,-103.48 414.66,-96.62"/>
</g>
<!-- Node11&#45;&gt;Node7 -->
<g id="edge12" class="edge">
<title>Node11&#45;&gt;Node7</title>
<path fill="none" stroke="midnightblue" d="M369.8,-72.47C389.19,-61.25 418.33,-44.39 440.19,-31.74"/>
<polygon fill="midnightblue" stroke="midnightblue" points="442.16,-34.65 449.07,-26.61 438.66,-28.59 442.16,-34.65"/>
</g>
<!-- Node11&#45;&gt;Node8 -->
<g id="edge13" class="edge">
<title>Node11&#45;&gt;Node8</title>
<path fill="none" stroke="midnightblue" d="M381.92,-72.4C393.21,-68.75 406.02,-65.14 418,-63 593.21,-31.65 1154.58,-18.37 1309.23,-15.25"/>
<polygon fill="midnightblue" stroke="midnightblue" points="1309.31,-18.75 1319.24,-15.05 1309.17,-11.75 1309.31,-18.75"/>
</g>
<!-- Node11&#45;&gt;Node12 -->
<g id="edge11" class="edge">
<title>Node11&#45;&gt;Node12</title>
<path fill="none" stroke="midnightblue" d="M324.93,-72.47C302.2,-61.1 267.88,-43.94 242.48,-31.24"/>
<polygon fill="midnightblue" stroke="midnightblue" points="243.73,-27.95 233.22,-26.61 240.6,-34.21 243.73,-27.95"/>
</g>
<!-- Node17&#45;&gt;Node3 -->
<g id="edge84" class="edge">
<title>Node17&#45;&gt;Node3</title>
<path fill="none" stroke="midnightblue" d="M543.37,-531.45C473.61,-513.06 379.5,-481.42 308,-432 279.77,-412.49 255.07,-381.8 239.08,-359.08"/>
<polygon fill="midnightblue" stroke="midnightblue" points="241.94,-357.06 233.39,-350.81 236.17,-361.03 241.94,-357.06"/>
</g>
<!-- Node17&#45;&gt;Node8 -->
<g id="edge88" class="edge">
<title>Node17&#45;&gt;Node8</title>
<path fill="none" stroke="midnightblue" d="M745.95,-553.01C1018.56,-553.52 1739.09,-549.5 1971,-495 2060.97,-473.86 2161,-502.92 2161,-410.5 2161,-410.5 2161,-410.5 2161,-246.5 2161,-191.58 2132.52,-181.07 2092,-144 2064.48,-118.82 1980.71,-73.75 1945,-63 1840.41,-31.51 1505.06,-19.02 1388.99,-15.57"/>
<polygon fill="midnightblue" stroke="midnightblue" points="1388.87,-12.07 1378.77,-15.27 1388.67,-19.06 1388.87,-12.07"/>
</g>
<!-- Node17&#45;&gt;Node9 -->
<g id="edge85" class="edge">
<title>Node17&#45;&gt;Node9</title>
<path fill="none" stroke="midnightblue" d="M745.67,-553.18C1078.78,-553.95 2085,-545.12 2085,-410.5 2085,-410.5 2085,-410.5 2085,-246.5 2085,-200.17 2100.17,-175.29 2066,-144 2027.81,-109.02 1689.93,-93.76 1538.67,-88.63"/>
<polygon fill="midnightblue" stroke="midnightblue" points="1538.65,-85.13 1528.54,-88.3 1538.42,-92.13 1538.65,-85.13"/>
</g>
<!-- Node17&#45;&gt;Node12 -->
<g id="edge86" class="edge">
<title>Node17&#45;&gt;Node12</title>
<path fill="none" stroke="midnightblue" d="M534.32,-550.61C352.54,-544.47 0,-518.62 0,-410.5 0,-410.5 0,-410.5 0,-165.5 0,-83.66 106.59,-41.7 167.53,-24.4"/>
<polygon fill="midnightblue" stroke="midnightblue" points="168.54,-27.75 177.26,-21.74 166.69,-21 168.54,-27.75"/>
</g>
<!-- Node17&#45;&gt;Node16 -->
<g id="edge87" class="edge">
<title>Node17&#45;&gt;Node16</title>
<path fill="none" stroke="midnightblue" d="M745.76,-553.26C1013.49,-552.46 1704.72,-532.58 1816,-351 1826.45,-333.95 1827.97,-322.02 1816,-306 1782.15,-260.72 1732.82,-311.1 1694,-270 1673.62,-248.42 1669.44,-212.96 1669.1,-189.92"/>
<polygon fill="midnightblue" stroke="midnightblue" points="1672.61,-189.76 1669.2,-179.73 1665.61,-189.7 1672.61,-189.76"/>
</g>
<!-- Node18 -->
<g id="node18" class="node">
<title>Node18</title>
<g id="a_node18"><a xlink:href="_i_e_command_buffer_8hpp.html" target="_top" xlink:title=" ">
<polygon fill="white" stroke="black" points="495,-468.5 495,-494.5 785,-494.5 785,-468.5 495,-468.5"/>
<text text-anchor="middle" x="640" y="-477.7" font-family="Source Sans Pro" font-size="16.00">CommandBuffer/IECommandBuffer.hpp</text>
</a>
</g>
</g>
<!-- Node17&#45;&gt;Node18 -->
<g id="edge28" class="edge">
<title>Node17&#45;&gt;Node18</title>
<path fill="none" stroke="midnightblue" d="M640,-531.5C640,-523 640,-513.19 640,-504.59"/>
<polygon fill="midnightblue" stroke="midnightblue" points="643.5,-504.53 640,-494.53 636.5,-504.53 643.5,-504.53"/>
</g>
<!-- Node18&#45;&gt;Node2 -->
<g id="edge55" class="edge">
<title>Node18&#45;&gt;Node2</title>
<path fill="none" stroke="midnightblue" d="M553.02,-468.47C463.46,-456.08 324.21,-436.81 231.11,-423.93"/>
<polygon fill="midnightblue" stroke="midnightblue" points="231.5,-420.46 221.12,-422.55 230.54,-427.39 231.5,-420.46"/>
</g>
<!-- Node18&#45;&gt;Node4 -->
<g id="edge78" class="edge">
<title>Node18&#45;&gt;Node4</title>
<path fill="none" stroke="midnightblue" d="M637.8,-468.35C631.47,-433.38 613.05,-331.62 603.65,-279.73"/>
<polygon fill="midnightblue" stroke="midnightblue" points="607.07,-278.96 601.85,-269.75 600.18,-280.21 607.07,-278.96"/>
</g>
<!-- Node18&#45;&gt;Node8 -->
<g id="edge82" class="edge">
<title>Node18&#45;&gt;Node8</title>
<path fill="none" stroke="midnightblue" d="M628.63,-468.31C611.46,-450.08 577.66,-414.88 547,-387 434.46,-284.67 210.82,-262.65 306,-144 352.15,-86.47 399.83,-136.16 468,-108 502.53,-93.73 503.45,-74.48 539,-63 684.66,-15.96 1166.7,-13.83 1309.07,-14.27"/>
<polygon fill="midnightblue" stroke="midnightblue" points="1309.1,-17.77 1319.11,-14.3 1309.13,-10.77 1309.1,-17.77"/>
</g>
<!-- Node18&#45;&gt;Node9 -->
<g id="edge83" class="edge">
<title>Node18&#45;&gt;Node9</title>
<path fill="none" stroke="midnightblue" d="M785.43,-477.67C1030.73,-472.18 1502.68,-458.25 1528,-432 1616.97,-339.77 1569.88,-259.32 1514,-144 1507.22,-130.01 1496.31,-116.55 1486.6,-106.17"/>
<polygon fill="midnightblue" stroke="midnightblue" points="1488.98,-103.6 1479.5,-98.88 1483.97,-108.49 1488.98,-103.6"/>
</g>
<!-- Node19 -->
<g id="node19" class="node">
<title>Node19</title>
<g id="a_node19"><a xlink:href="_i_e_buffer_8hpp.html" target="_top" xlink:title=" ">
<polygon fill="white" stroke="black" points="773.5,-234.5 773.5,-260.5 920.5,-260.5 920.5,-234.5 773.5,-234.5"/>
<text text-anchor="middle" x="847" y="-243.7" font-family="Source Sans Pro" font-size="16.00">Buffer/IEBuffer.hpp</text>
</a>
</g>
</g>
<!-- Node18&#45;&gt;Node19 -->
<g id="edge29" class="edge">
<title>Node18&#45;&gt;Node19</title>
<path fill="none" stroke="midnightblue" d="M640.87,-468.13C643.71,-436.79 655.39,-353.42 701,-306 720.76,-285.45 748.77,-272.1 774.97,-263.48"/>
<polygon fill="midnightblue" stroke="midnightblue" points="776.01,-266.83 784.52,-260.52 773.93,-260.14 776.01,-266.83"/>
</g>
<!-- Node20 -->
<g id="node20" class="node">
<title>Node20</title>
<g id="a_node20"><a xlink:href="_i_e_copy_buffer_to_image_info_8hpp.html" target="_top" xlink:title=" ">
<polygon fill="white" stroke="black" points="710.5,-306.5 710.5,-350.5 983.5,-350.5 983.5,-306.5 710.5,-306.5"/>
<text text-anchor="start" x="718.5" y="-333.7" font-family="Source Sans Pro" font-size="16.00">CommandBuffer/Dependency</text>
<text text-anchor="middle" x="847" y="-315.7" font-family="Source Sans Pro" font-size="16.00">Structs/IECopyBufferToImageInfo.hpp</text>
</a>
</g>
</g>
<!-- Node18&#45;&gt;Node20 -->
<g id="edge38" class="edge">
<title>Node18&#45;&gt;Node20</title>
<path fill="none" stroke="midnightblue" d="M656.59,-468.4C689.65,-444.29 764.44,-389.72 809.83,-356.61"/>
<polygon fill="midnightblue" stroke="midnightblue" points="811.93,-359.41 817.95,-350.69 807.81,-353.76 811.93,-359.41"/>
</g>
<!-- Node21 -->
<g id="node21" class="node">
<title>Node21</title>
<g id="a_node21"><a xlink:href="_i_e_dependency_info_8hpp.html" target="_top" xlink:title=" ">
<polygon fill="white" stroke="black" points="1295,-387.5 1295,-431.5 1519,-431.5 1519,-387.5 1295,-387.5"/>
<text text-anchor="start" x="1303" y="-414.7" font-family="Source Sans Pro" font-size="16.00">CommandBuffer/Dependency</text>
<text text-anchor="middle" x="1407" y="-396.7" font-family="Source Sans Pro" font-size="16.00">Structs/IEDependencyInfo.hpp</text>
</a>
</g>
</g>
<!-- Node18&#45;&gt;Node21 -->
<g id="edge43" class="edge">
<title>Node18&#45;&gt;Node21</title>
<path fill="none" stroke="midnightblue" d="M771.85,-468.47C915.8,-455.33 1144.45,-434.46 1284.57,-421.67"/>
<polygon fill="midnightblue" stroke="midnightblue" points="1285.28,-425.12 1294.92,-420.73 1284.64,-418.15 1285.28,-425.12"/>
</g>
<!-- Node24 -->
<g id="node24" class="node">
<title>Node24</title>
<g id="a_node24"><a xlink:href="_i_e_pipeline_8hpp.html" target="_top" xlink:title=" ">
<polygon fill="white" stroke="black" points="1627,-306.5 1627,-350.5 1807,-350.5 1807,-306.5 1627,-306.5"/>
<text text-anchor="start" x="1635" y="-333.7" font-family="Source Sans Pro" font-size="16.00">GraphicsModule/Shader</text>
<text text-anchor="middle" x="1717" y="-315.7" font-family="Source Sans Pro" font-size="16.00">/IEPipeline.hpp</text>
</a>
</g>
</g>
<!-- Node18&#45;&gt;Node24 -->
<g id="edge56" class="edge">
<title>Node18&#45;&gt;Node24</title>
<path fill="none" stroke="midnightblue" d="M785.01,-478.95C1037.79,-475.41 1539.35,-464.36 1613,-432 1648.29,-416.49 1678.36,-383.24 1696.95,-358.8"/>
<polygon fill="midnightblue" stroke="midnightblue" points="1699.9,-360.68 1703.03,-350.56 1694.27,-356.52 1699.9,-360.68"/>
</g>
<!-- Node31 -->
<g id="node31" class="node">
<title>Node31</title>
<g id="a_node31"><a xlink:href="_i_e_dependent_8hpp.html" target="_top" xlink:title=" ">
<polygon fill="white" stroke="black" points="1921,-153.5 1921,-179.5 2057,-179.5 2057,-153.5 1921,-153.5"/>
<text text-anchor="middle" x="1989" y="-162.7" font-family="Source Sans Pro" font-size="16.00">IEDependent.hpp</text>
</a>
</g>
</g>
<!-- Node18&#45;&gt;Node31 -->
<g id="edge75" class="edge">
<title>Node18&#45;&gt;Node31</title>
<path fill="none" stroke="midnightblue" d="M785.07,-481.07C1025.72,-480.77 1496.83,-474.51 1657,-432 1793,-395.91 1834.2,-373.98 1929,-270 1951.53,-245.29 1969.59,-210.76 1979.81,-188.76"/>
<polygon fill="midnightblue" stroke="midnightblue" points="1983.01,-190.17 1983.93,-179.61 1976.63,-187.29 1983.01,-190.17"/>
</g>
<!-- Node32 -->
<g id="node32" class="node">
<title>Node32</title>
<g id="a_node32"><a xlink:title=" ">
<polygon fill="white" stroke="#bfbfbf" points="317.5,-396.5 317.5,-422.5 376.5,-422.5 376.5,-396.5 317.5,-396.5"/>
<text text-anchor="middle" x="347" y="-405.7" font-family="Source Sans Pro" font-size="16.00">mutex</text>
</a>
</g>
</g>
<!-- Node18&#45;&gt;Node32 -->
<g id="edge79" class="edge">
<title>Node18&#45;&gt;Node32</title>
<path fill="none" stroke="midnightblue" d="M535.26,-468.46C488.34,-461.08 432.92,-449.57 385,-432 381.62,-430.76 378.19,-429.24 374.85,-427.59"/>
<polygon fill="midnightblue" stroke="midnightblue" points="376.21,-424.35 365.74,-422.71 372.9,-430.52 376.21,-424.35"/>
</g>
<!-- Node33 -->
<g id="node33" class="node">
<title>Node33</title>
<g id="a_node33"><a xlink:title=" ">
<polygon fill="white" stroke="#bfbfbf" points="394.5,-396.5 394.5,-422.5 455.5,-422.5 455.5,-396.5 394.5,-396.5"/>
<text text-anchor="middle" x="425" y="-405.7" font-family="Source Sans Pro" font-size="16.00">thread</text>
</a>
</g>
</g>
<!-- Node18&#45;&gt;Node33 -->
<g id="edge80" class="edge">
<title>Node18&#45;&gt;Node33</title>
<path fill="none" stroke="midnightblue" d="M584.57,-468.49C549.63,-460.1 503.91,-447.62 465,-432 461.5,-430.6 457.92,-428.97 454.39,-427.24"/>
<polygon fill="midnightblue" stroke="midnightblue" points="455.83,-424.05 445.34,-422.56 452.61,-430.26 455.83,-424.05"/>
</g>
<!-- Node34 -->
<g id="node34" class="node">
<title>Node34</title>
<g id="a_node34"><a xlink:title=" ">
<polygon fill="white" stroke="#bfbfbf" points="474,-396.5 474,-422.5 538,-422.5 538,-396.5 474,-396.5"/>
<text text-anchor="middle" x="506" y="-405.7" font-family="Source Sans Pro" font-size="16.00">variant</text>
</a>
</g>
</g>
<!-- Node18&#45;&gt;Node34 -->
<g id="edge81" class="edge">
<title>Node18&#45;&gt;Node34</title>
<path fill="none" stroke="midnightblue" d="M616.96,-468.47C595.3,-457.15 562.65,-440.09 538.36,-427.41"/>
<polygon fill="midnightblue" stroke="midnightblue" points="539.67,-424.14 529.18,-422.61 536.43,-430.34 539.67,-424.14"/>
</g>
<!-- Node19&#45;&gt;Node5 -->
<g id="edge30" class="edge">
<title>Node19&#45;&gt;Node5</title>
<path fill="none" stroke="midnightblue" d="M865.49,-234.33C881.59,-223.73 905.53,-207.97 926.12,-194.42"/>
<polygon fill="midnightblue" stroke="midnightblue" points="928.27,-197.19 934.7,-188.76 924.42,-191.34 928.27,-197.19"/>
</g>
<!-- Node19&#45;&gt;Node8 -->
<g id="edge37" class="edge">
<title>Node19&#45;&gt;Node8</title>
<path fill="none" stroke="midnightblue" d="M840.67,-234.38C830.83,-213.66 814.96,-171.08 835,-144 892.21,-66.7 1198.62,-29.3 1309.18,-18.17"/>
<polygon fill="midnightblue" stroke="midnightblue" points="1309.65,-21.65 1319.26,-17.18 1308.96,-14.68 1309.65,-21.65"/>
</g>
<!-- Node19&#45;&gt;Node9 -->
<g id="edge34" class="edge">
<title>Node19&#45;&gt;Node9</title>
<path fill="none" stroke="midnightblue" d="M920.74,-238.91C992.61,-230.47 1104.56,-214.55 1199,-189 1210.46,-185.9 1353.82,-130.22 1425.6,-102.26"/>
<polygon fill="midnightblue" stroke="midnightblue" points="1427.19,-105.4 1435.23,-98.5 1424.65,-98.87 1427.19,-105.4"/>
</g>
<!-- Node19&#45;&gt;Node10 -->
<g id="edge31" class="edge">
<title>Node19&#45;&gt;Node10</title>
<path fill="none" stroke="midnightblue" d="M831.22,-234.16C814.69,-221.23 788.54,-200.78 769.57,-185.94"/>
<polygon fill="midnightblue" stroke="midnightblue" points="771.7,-183.16 761.67,-179.76 767.39,-188.67 771.7,-183.16"/>
</g>
<!-- Node19&#45;&gt;Node12 -->
<g id="edge35" class="edge">
<title>Node19&#45;&gt;Node12</title>
<path fill="none" stroke="midnightblue" d="M797.11,-234.41C765.9,-225.26 725.89,-210.55 695,-189 673.29,-173.86 679.52,-156.14 656,-144 508.81,-67.98 430.97,-186.33 285,-108 254.65,-91.72 231.91,-57.71 219.54,-35.5"/>
<polygon fill="midnightblue" stroke="midnightblue" points="222.53,-33.69 214.73,-26.52 216.36,-36.99 222.53,-33.69"/>
</g>
<!-- Node19&#45;&gt;Node13 -->
<g id="edge33" class="edge">
<title>Node19&#45;&gt;Node13</title>
<path fill="none" stroke="midnightblue" d="M913.91,-234.46C964.97,-224.49 1036.73,-208.77 1098,-189 1103.02,-187.38 1108.22,-185.47 1113.31,-183.47"/>
<polygon fill="midnightblue" stroke="midnightblue" points="1114.94,-186.58 1122.86,-179.55 1112.28,-180.1 1114.94,-186.58"/>
</g>
<!-- Node19&#45;&gt;Node15 -->
<g id="edge32" class="edge">
<title>Node19&#45;&gt;Node15</title>
<path fill="none" stroke="midnightblue" d="M806.62,-234.42C760.03,-220.48 683.41,-197.55 633.08,-182.49"/>
<polygon fill="midnightblue" stroke="midnightblue" points="633.96,-179.1 623.38,-179.58 631.96,-185.8 633.96,-179.1"/>
</g>
<!-- Node19&#45;&gt;Node16 -->
<g id="edge36" class="edge">
<title>Node19&#45;&gt;Node16</title>
<path fill="none" stroke="midnightblue" d="M920.76,-239.42C1084.35,-223.72 1474.33,-186.28 1616.76,-172.61"/>
<polygon fill="midnightblue" stroke="midnightblue" points="1617.36,-176.07 1626.98,-171.63 1616.69,-169.1 1617.36,-176.07"/>
</g>
<!-- Node20&#45;&gt;Node4 -->
<g id="edge40" class="edge">
<title>Node20&#45;&gt;Node4</title>
<path fill="none" stroke="midnightblue" d="M780.6,-306.43C747.82,-296.03 708.11,-283.43 674.11,-272.65"/>
<polygon fill="midnightblue" stroke="midnightblue" points="674.81,-269.2 664.22,-269.51 672.69,-275.87 674.81,-269.2"/>
</g>
<!-- Node20&#45;&gt;Node6 -->
<g id="edge41" class="edge">
<title>Node20&#45;&gt;Node6</title>
<path fill="none" stroke="midnightblue" d="M950.37,-306.47C1026.23,-286.72 1127.99,-250.7 1199,-189 1224.3,-167.02 1240.98,-131.17 1249.7,-108.22"/>
<polygon fill="midnightblue" stroke="midnightblue" points="1253.04,-109.27 1253.16,-98.68 1246.46,-106.89 1253.04,-109.27"/>
</g>
<!-- Node20&#45;&gt;Node9 -->
<g id="edge42" class="edge">
<title>Node20&#45;&gt;Node9</title>
<path fill="none" stroke="midnightblue" d="M983.6,-306.69C1028.15,-297.84 1077.36,-285.82 1121,-270 1246.36,-224.55 1382.6,-140.71 1439.11,-104.23"/>
<polygon fill="midnightblue" stroke="midnightblue" points="1441.31,-106.98 1447.79,-98.6 1437.5,-101.11 1441.31,-106.98"/>
</g>
<!-- Node20&#45;&gt;Node19 -->
<g id="edge39" class="edge">
<title>Node20&#45;&gt;Node19</title>
<path fill="none" stroke="midnightblue" d="M847,-306.33C847,-295.36 847,-281.97 847,-270.83"/>
<polygon fill="midnightblue" stroke="midnightblue" points="850.5,-270.63 847,-260.63 843.5,-270.63 850.5,-270.63"/>
</g>
<!-- Node21&#45;&gt;Node6 -->
<g id="edge52" class="edge">
<title>Node21&#45;&gt;Node6</title>
<path fill="none" stroke="midnightblue" d="M1436.83,-387.24C1447.87,-377.58 1459.11,-365.14 1465,-351 1472.69,-332.54 1472.4,-324.58 1465,-306 1428.12,-213.45 1331.62,-137.5 1284.16,-104.39"/>
<polygon fill="midnightblue" stroke="midnightblue" points="1285.84,-101.3 1275.62,-98.53 1281.88,-107.07 1285.84,-101.3"/>
</g>
<!-- Node21&#45;&gt;Node8 -->
<g id="edge53" class="edge">
<title>Node21&#45;&gt;Node8</title>
<path fill="none" stroke="midnightblue" d="M1475.05,-387.47C1492.6,-378.87 1509.71,-367.04 1521,-351 1594.78,-246.16 1615.52,-164.34 1537,-63 1519.03,-39.8 1438.54,-25.72 1388.88,-19.09"/>
<polygon fill="midnightblue" stroke="midnightblue" points="1389.15,-15.6 1378.79,-17.79 1388.26,-22.54 1389.15,-15.6"/>
</g>
<!-- Node21&#45;&gt;Node9 -->
<g id="edge54" class="edge">
<title>Node21&#45;&gt;Node9</title>
<path fill="none" stroke="midnightblue" d="M1460.1,-387.45C1475.42,-378.6 1490.33,-366.65 1499,-351 1543.73,-270.3 1498.77,-154.87 1476.7,-107.76"/>
<polygon fill="midnightblue" stroke="midnightblue" points="1479.74,-106.02 1472.25,-98.53 1473.44,-109.06 1479.74,-106.02"/>
</g>
<!-- Node22 -->
<g id="node22" class="node">
<title>Node22</title>
<g id="a_node22"><a xlink:href="_i_e_buffer_memory_barrier_8hpp.html" target="_top" xlink:title=" ">
<polygon fill="white" stroke="black" points="1253.5,-315.5 1253.5,-341.5 1456.5,-341.5 1456.5,-315.5 1253.5,-315.5"/>
<text text-anchor="middle" x="1355" y="-324.7" font-family="Source Sans Pro" font-size="16.00">IEBufferMemoryBarrier.hpp</text>
</a>
</g>
</g>
<!-- Node21&#45;&gt;Node22 -->
<g id="edge44" class="edge">
<title>Node21&#45;&gt;Node22</title>
<path fill="none" stroke="midnightblue" d="M1393.06,-387.33C1385.47,-375.79 1376.11,-361.57 1368.57,-350.11"/>
<polygon fill="midnightblue" stroke="midnightblue" points="1371.4,-348.06 1362.98,-341.63 1365.56,-351.9 1371.4,-348.06"/>
</g>
<!-- Node23 -->
<g id="node23" class="node">
<title>Node23</title>
<g id="a_node23"><a xlink:href="_i_e_image_memory_barrier_8hpp.html" target="_top" xlink:title=" ">
<polygon fill="white" stroke="black" points="1032.5,-315.5 1032.5,-341.5 1235.5,-341.5 1235.5,-315.5 1032.5,-315.5"/>
<text text-anchor="middle" x="1134" y="-324.7" font-family="Source Sans Pro" font-size="16.00">IEImageMemoryBarrier.hpp</text>
</a>
</g>
</g>
<!-- Node21&#45;&gt;Node23 -->
<g id="edge48" class="edge">
<title>Node21&#45;&gt;Node23</title>
<path fill="none" stroke="midnightblue" d="M1334.2,-387.43C1287.26,-373.85 1227.36,-356.52 1185.37,-344.36"/>
<polygon fill="midnightblue" stroke="midnightblue" points="1186.21,-340.96 1175.63,-341.55 1184.26,-347.69 1186.21,-340.96"/>
</g>
<!-- Node22&#45;&gt;Node6 -->
<g id="edge46" class="edge">
<title>Node22&#45;&gt;Node6</title>
<path fill="none" stroke="midnightblue" d="M1350.01,-315.22C1334.31,-276.62 1285.84,-157.43 1265.81,-108.16"/>
<polygon fill="midnightblue" stroke="midnightblue" points="1268.99,-106.7 1261.98,-98.76 1262.51,-109.34 1268.99,-106.7"/>
</g>
<!-- Node22&#45;&gt;Node9 -->
<g id="edge47" class="edge">
<title>Node22&#45;&gt;Node9</title>
<path fill="none" stroke="midnightblue" d="M1368.56,-315.4C1392.41,-293.15 1441.22,-243.02 1461,-189 1470.65,-162.64 1470.32,-129.91 1468.63,-108.63"/>
<polygon fill="midnightblue" stroke="midnightblue" points="1472.11,-108.26 1467.67,-98.64 1465.15,-108.93 1472.11,-108.26"/>
</g>
<!-- Node22&#45;&gt;Node19 -->
<g id="edge45" class="edge">
<title>Node22&#45;&gt;Node19</title>
<path fill="none" stroke="midnightblue" d="M1295.76,-315.49C1279.05,-312.24 1260.84,-308.85 1244,-306 1136.17,-287.76 1011.25,-270.26 930.78,-259.46"/>
<polygon fill="midnightblue" stroke="midnightblue" points="931.07,-255.97 920.7,-258.11 930.15,-262.9 931.07,-255.97"/>
</g>
<!-- Node23&#45;&gt;Node4 -->
<g id="edge49" class="edge">
<title>Node23&#45;&gt;Node4</title>
<path fill="none" stroke="midnightblue" d="M1055.15,-315.48C1034.59,-312.37 1012.47,-309.04 992,-306 890.86,-290.96 775.05,-274.11 695.3,-262.55"/>
<polygon fill="midnightblue" stroke="midnightblue" points="695.66,-259.07 685.26,-261.1 694.66,-266 695.66,-259.07"/>
</g>
<!-- Node23&#45;&gt;Node6 -->
<g id="edge50" class="edge">
<title>Node23&#45;&gt;Node6</title>
<path fill="none" stroke="midnightblue" d="M1170.95,-315.47C1192.59,-306.44 1218.46,-291.84 1233,-270 1266.08,-220.31 1263.78,-146.1 1260.04,-109.13"/>
<polygon fill="midnightblue" stroke="midnightblue" points="1263.48,-108.45 1258.87,-98.92 1256.53,-109.25 1263.48,-108.45"/>
</g>
<!-- Node23&#45;&gt;Node9 -->
<g id="edge51" class="edge">
<title>Node23&#45;&gt;Node9</title>
<path fill="none" stroke="midnightblue" d="M1197.65,-315.43C1232.61,-306.71 1275.52,-292.43 1309,-270 1375.47,-225.47 1430.08,-145.36 1453.58,-107.46"/>
<polygon fill="midnightblue" stroke="midnightblue" points="1456.65,-109.15 1458.87,-98.79 1450.68,-105.5 1456.65,-109.15"/>
</g>
<!-- Node24&#45;&gt;Node5 -->
<g id="edge57" class="edge">
<title>Node24&#45;&gt;Node5</title>
<path fill="none" stroke="midnightblue" d="M1626.91,-308.28C1488.6,-278.78 1224.42,-222.42 1075.7,-190.69"/>
<polygon fill="midnightblue" stroke="midnightblue" points="1076.14,-187.21 1065.63,-188.54 1074.68,-194.05 1076.14,-187.21"/>
</g>
<!-- Node24&#45;&gt;Node8 -->
<g id="edge74" class="edge">
<title>Node24&#45;&gt;Node8</title>
<path fill="none" stroke="midnightblue" d="M1807.09,-311.56C1851.3,-301.71 1897.86,-287.59 1911,-270 1932.32,-241.45 1897.16,-95.57 1856,-63 1819.64,-34.23 1502.55,-20.05 1389.13,-15.86"/>
<polygon fill="midnightblue" stroke="midnightblue" points="1388.93,-12.35 1378.81,-15.49 1388.67,-19.35 1388.93,-12.35"/>
</g>
<!-- Node24&#45;&gt;Node9 -->
<g id="edge72" class="edge">
<title>Node24&#45;&gt;Node9</title>
<path fill="none" stroke="midnightblue" d="M1807.28,-319.47C1839.33,-311.76 1872.31,-297.2 1892,-270 1903.73,-253.8 1901.85,-242.4 1892,-225 1857.53,-164.11 1822.29,-169.16 1757,-144 1685.57,-116.48 1598.97,-101.53 1538.91,-93.83"/>
<polygon fill="midnightblue" stroke="midnightblue" points="1539.12,-90.33 1528.76,-92.57 1538.25,-97.28 1539.12,-90.33"/>
</g>
<!-- Node24&#45;&gt;Node16 -->
<g id="edge73" class="edge">
<title>Node24&#45;&gt;Node16</title>
<path fill="none" stroke="midnightblue" d="M1688.47,-306.31C1677.72,-296.58 1666.72,-284.07 1661,-270 1650.35,-243.81 1656.31,-210.83 1662.41,-189.46"/>
<polygon fill="midnightblue" stroke="midnightblue" points="1665.81,-190.3 1665.44,-179.71 1659.13,-188.23 1665.81,-190.3"/>
</g>
<!-- Node25 -->
<g id="node25" class="node">
<title>Node25</title>
<g id="a_node25"><a xlink:href="_i_e_shader_8hpp.html" target="_top" xlink:title=" ">
<polygon fill="white" stroke="black" points="1703,-225.5 1703,-269.5 1883,-269.5 1883,-225.5 1703,-225.5"/>
<text text-anchor="start" x="1711" y="-252.7" font-family="Source Sans Pro" font-size="16.00">GraphicsModule/Shader</text>
<text text-anchor="middle" x="1793" y="-234.7" font-family="Source Sans Pro" font-size="16.00">/IEShader.hpp</text>
</a>
</g>
</g>
<!-- Node24&#45;&gt;Node25 -->
<g id="edge58" class="edge">
<title>Node24&#45;&gt;Node25</title>
<path fill="none" stroke="midnightblue" d="M1737.37,-306.33C1745.97,-297.39 1756.12,-286.83 1765.39,-277.2"/>
<polygon fill="midnightblue" stroke="midnightblue" points="1768.17,-279.36 1772.58,-269.73 1763.12,-274.51 1768.17,-279.36"/>
</g>
<!-- Node25&#45;&gt;Node7 -->
<g id="edge69" class="edge">
<title>Node25&#45;&gt;Node7</title>
<path fill="none" stroke="midnightblue" d="M1790.87,-225.26C1787.48,-202.34 1778.84,-166.17 1757,-144 1683.88,-69.77 1639.14,-83.61 1537,-63 1334.01,-22.04 673.06,-15.63 507.74,-14.67"/>
<polygon fill="midnightblue" stroke="midnightblue" points="507.6,-11.17 497.58,-14.61 507.56,-18.17 507.6,-11.17"/>
</g>
<!-- Node25&#45;&gt;Node8 -->
<g id="edge70" class="edge">
<title>Node25&#45;&gt;Node8</title>
<path fill="none" stroke="midnightblue" d="M1811.28,-225.38C1818.97,-215.12 1827.04,-202.18 1831,-189 1847.12,-135.37 1868.56,-104.53 1831,-63 1801.52,-30.41 1498.89,-18.71 1388.78,-15.51"/>
<polygon fill="midnightblue" stroke="midnightblue" points="1388.84,-12.01 1378.74,-15.22 1388.64,-19.01 1388.84,-12.01"/>
</g>
<!-- Node25&#45;&gt;Node9 -->
<g id="edge60" class="edge">
<title>Node25&#45;&gt;Node9</title>
<path fill="none" stroke="midnightblue" d="M1784.09,-225.27C1773.06,-201.67 1751.98,-164.2 1722,-144 1667.61,-107.35 1593.43,-93.74 1538.92,-88.84"/>
<polygon fill="midnightblue" stroke="midnightblue" points="1538.89,-85.33 1528.64,-88 1538.32,-92.3 1538.89,-85.33"/>
</g>
<!-- Node25&#45;&gt;Node10 -->
<g id="edge59" class="edge">
<title>Node25&#45;&gt;Node10</title>
<path fill="none" stroke="midnightblue" d="M1702.97,-246.39C1532.56,-245.02 1151.59,-236.36 835,-189 822.84,-187.18 809.91,-184.5 797.77,-181.64"/>
<polygon fill="midnightblue" stroke="midnightblue" points="798.35,-178.18 787.8,-179.21 796.69,-184.98 798.35,-178.18"/>
</g>
<!-- Node25&#45;&gt;Node13 -->
<g id="edge71" class="edge">
<title>Node25&#45;&gt;Node13</title>
<path fill="none" stroke="midnightblue" d="M1702.78,-235.43C1565.95,-218.65 1310.36,-187.29 1200.91,-173.87"/>
<polygon fill="midnightblue" stroke="midnightblue" points="1201.13,-170.37 1190.78,-172.63 1200.28,-177.32 1201.13,-170.37"/>
</g>
<!-- Node25&#45;&gt;Node16 -->
<g id="edge68" class="edge">
<title>Node25&#45;&gt;Node16</title>
<path fill="none" stroke="midnightblue" d="M1760.04,-225.33C1740.47,-212.76 1715.95,-197.01 1697.44,-185.12"/>
<polygon fill="midnightblue" stroke="midnightblue" points="1699.19,-182.09 1688.88,-179.63 1695.4,-187.98 1699.19,-182.09"/>
</g>
<!-- Node26 -->
<g id="node26" class="node">
<title>Node26</title>
<g id="a_node26"><a xlink:href="_i_e_file_8hpp.html" target="_top" xlink:title=" ">
<polygon fill="white" stroke="black" points="2053.5,-63.5 2053.5,-107.5 2230.5,-107.5 2230.5,-63.5 2053.5,-63.5"/>
<text text-anchor="start" x="2061.5" y="-90.7" font-family="Source Sans Pro" font-size="16.00">Core/FileSystemModule</text>
<text text-anchor="middle" x="2142" y="-72.7" font-family="Source Sans Pro" font-size="16.00">/IEFile.hpp</text>
</a>
</g>
</g>
<!-- Node25&#45;&gt;Node26 -->
<g id="edge61" class="edge">
<title>Node25&#45;&gt;Node26</title>
<path fill="none" stroke="midnightblue" d="M1883.32,-243.58C1939.67,-238.04 2011.57,-223.9 2066,-189 2093.49,-171.37 2114.53,-140.05 2127.42,-116.66"/>
<polygon fill="midnightblue" stroke="midnightblue" points="2130.52,-118.28 2132.12,-107.81 2124.34,-115 2130.52,-118.28"/>
</g>
<!-- Node26&#45;&gt;Node7 -->
<g id="edge66" class="edge">
<title>Node26&#45;&gt;Node7</title>
<path fill="none" stroke="midnightblue" d="M2053.24,-77.57C1991.05,-72.91 1905.99,-66.93 1831,-63 1307.07,-35.56 668.84,-19.25 508.12,-15.39"/>
<polygon fill="midnightblue" stroke="midnightblue" points="507.89,-11.89 497.8,-15.15 507.72,-18.88 507.89,-11.89"/>
</g>
<!-- Node26&#45;&gt;Node8 -->
<g id="edge67" class="edge">
<title>Node26&#45;&gt;Node8</title>
<path fill="none" stroke="midnightblue" d="M2053.4,-65.06C2048.88,-64.31 2044.39,-63.61 2040,-63 1794.16,-28.63 1495.53,-18.15 1389.07,-15.39"/>
<polygon fill="midnightblue" stroke="midnightblue" points="1388.87,-11.88 1378.79,-15.13 1388.69,-18.88 1388.87,-11.88"/>
</g>
<!-- Node27 -->
<g id="node27" class="node">
<title>Node27</title>
<g id="a_node27"><a xlink:title=" ">
<polygon fill="white" stroke="#bfbfbf" points="2051.5,-0.5 2051.5,-26.5 2136.5,-26.5 2136.5,-0.5 2051.5,-0.5"/>
<text text-anchor="middle" x="2094" y="-9.7" font-family="Source Sans Pro" font-size="16.00">filesystem</text>
</a>
</g>
</g>
<!-- Node26&#45;&gt;Node27 -->
<g id="edge62" class="edge">
<title>Node26&#45;&gt;Node27</title>
<path fill="none" stroke="midnightblue" d="M2127.6,-63.5C2121.39,-54.44 2114.14,-43.88 2107.98,-34.89"/>
<polygon fill="midnightblue" stroke="midnightblue" points="2110.79,-32.8 2102.25,-26.53 2105.02,-36.76 2110.79,-32.8"/>
</g>
<!-- Node28 -->
<g id="node28" class="node">
<title>Node28</title>
<g id="a_node28"><a xlink:title=" ">
<polygon fill="white" stroke="#bfbfbf" points="2155,-0.5 2155,-26.5 2223,-26.5 2223,-0.5 2155,-0.5"/>
<text text-anchor="middle" x="2189" y="-9.7" font-family="Source Sans Pro" font-size="16.00">fstream</text>
</a>
</g>
</g>
<!-- Node26&#45;&gt;Node28 -->
<g id="edge63" class="edge">
<title>Node26&#45;&gt;Node28</title>
<path fill="none" stroke="midnightblue" d="M2156.1,-63.5C2162.19,-54.44 2169.28,-43.88 2175.31,-34.89"/>
<polygon fill="midnightblue" stroke="midnightblue" points="2178.25,-36.78 2180.92,-26.53 2172.44,-32.88 2178.25,-36.78"/>
</g>
<!-- Node29 -->
<g id="node29" class="node">
<title>Node29</title>
<g id="a_node29"><a xlink:title=" ">
<polygon fill="white" stroke="#bfbfbf" points="2241,-0.5 2241,-26.5 2317,-26.5 2317,-0.5 2241,-0.5"/>
<text text-anchor="middle" x="2279" y="-9.7" font-family="Source Sans Pro" font-size="16.00">iostream</text>
</a>
</g>
</g>
<!-- Node26&#45;&gt;Node29 -->
<g id="edge64" class="edge">
<title>Node26&#45;&gt;Node29</title>
<path fill="none" stroke="midnightblue" d="M2183.1,-63.5C2203.33,-53.16 2227.38,-40.88 2246.33,-31.19"/>
<polygon fill="midnightblue" stroke="midnightblue" points="2248.14,-34.2 2255.45,-26.53 2244.96,-27.96 2248.14,-34.2"/>
</g>
<!-- Node30 -->
<g id="node30" class="node">
<title>Node30</title>
<g id="a_node30"><a xlink:title=" ">
<polygon fill="white" stroke="#bfbfbf" points="1981,-0.5 1981,-26.5 2033,-26.5 2033,-0.5 1981,-0.5"/>
<text text-anchor="middle" x="2007" y="-9.7" font-family="Source Sans Pro" font-size="16.00">regex</text>
</a>
</g>
</g>
<!-- Node26&#45;&gt;Node30 -->
<g id="edge65" class="edge">
<title>Node26&#45;&gt;Node30</title>
<path fill="none" stroke="midnightblue" d="M2101.5,-63.5C2081.56,-53.16 2057.87,-40.88 2039.2,-31.19"/>
<polygon fill="midnightblue" stroke="midnightblue" points="2040.69,-28.03 2030.2,-26.53 2037.47,-34.24 2040.69,-28.03"/>
</g>
<!-- Node31&#45;&gt;Node6 -->
<g id="edge76" class="edge">
<title>Node31&#45;&gt;Node6</title>
<path fill="none" stroke="midnightblue" d="M1920.59,-160.22C1809.77,-151.36 1584.21,-132.09 1394,-108 1364.06,-104.21 1330.59,-98.97 1304.23,-94.62"/>
<polygon fill="midnightblue" stroke="midnightblue" points="1304.57,-91.13 1294.13,-92.94 1303.42,-98.03 1304.57,-91.13"/>
</g>
<!-- Node31&#45;&gt;Node8 -->
<g id="edge77" class="edge">
<title>Node31&#45;&gt;Node8</title>
<path fill="none" stroke="midnightblue" d="M1983.42,-153.36C1972.41,-130.98 1945.58,-83.65 1907,-63 1817.3,-15 1501.43,-13.06 1389.06,-13.96"/>
<polygon fill="midnightblue" stroke="midnightblue" points="1388.8,-10.46 1378.83,-14.05 1388.86,-17.46 1388.8,-10.46"/>
</g>
</g>
</svg>
