<?xml version="1.0" encoding="UTF-8" standalone="no"?>
<!DOCTYPE svg PUBLIC "-//W3C//DTD SVG 1.1//EN"
 "http://www.w3.org/Graphics/SVG/1.1/DTD/svg11.dtd">
<!-- Generated by graphviz version 2.43.0 (0)
 -->
<!-- Title: Illumination&#45;Engine/src/GraphicsModule/CommandBuffer/DependencyStructs/IERenderPassBeginInfo.hpp Pages: 1 -->
<svg width="1228pt" height="458pt"
 viewBox="0.00 0.00 1227.86 458.00" xmlns="http://www.w3.org/2000/svg" xmlns:xlink="http://www.w3.org/1999/xlink">
<g id="graph0" class="graph" transform="scale(1 1) rotate(0) translate(4 454)">
<title>Illumination&#45;Engine/src/GraphicsModule/CommandBuffer/DependencyStructs/IERenderPassBeginInfo.hpp</title>
<polygon fill="white" stroke="transparent" points="-4,4 -4,-454 1223.86,-454 1223.86,4 -4,4"/>
<!-- Node1 -->
<g id="node1" class="node">
<title>Node1</title>
<g id="a_node1"><a xlink:title=" ">
<polygon fill="#bfbfbf" stroke="black" points="222.03,-369.5 222.03,-449.5 494.03,-449.5 494.03,-369.5 222.03,-369.5"/>
<text text-anchor="start" x="230.03" y="-432.7" font-family="Source Sans Pro" font-size="16.00">Illumination&#45;Engine</text>
<text text-anchor="start" x="230.03" y="-414.7" font-family="Source Sans Pro" font-size="16.00">/src/GraphicsModule</text>
<text text-anchor="start" x="230.03" y="-396.7" font-family="Source Sans Pro" font-size="16.00">/CommandBuffer/DependencyStructs</text>
<text text-anchor="middle" x="358.03" y="-378.7" font-family="Source Sans Pro" font-size="16.00">/IERenderPassBeginInfo.hpp</text>
</a>
</g>
</g>
<!-- Node2 -->
<g id="node2" class="node">
<title>Node2</title>
<g id="a_node2"><a xlink:href="_i_e_framebuffer_8hpp.html" target="_top" xlink:title=" ">
<polygon fill="white" stroke="black" points="668.53,-288.5 668.53,-332.5 879.53,-332.5 879.53,-288.5 668.53,-288.5"/>
<text text-anchor="start" x="676.53" y="-315.7" font-family="Source Sans Pro" font-size="16.00">GraphicsModule/RenderPass</text>
<text text-anchor="middle" x="774.03" y="-297.7" font-family="Source Sans Pro" font-size="16.00">/IEFramebuffer.hpp</text>
</a>
</g>
</g>
<!-- Node1&#45;&gt;Node2 -->
<g id="edge1" class="edge">
<title>Node1&#45;&gt;Node2</title>
<path fill="none" stroke="midnightblue" d="M494.25,-376.74C552.8,-363.08 620.01,-347.41 673.88,-334.85"/>
<polygon fill="midnightblue" stroke="midnightblue" points="674.83,-338.22 683.78,-332.54 673.24,-331.41 674.83,-338.22"/>
</g>
<!-- Node5 -->
<g id="node5" class="node">
<title>Node5</title>
<g id="a_node5"><a xlink:title=" ">
<polygon fill="white" stroke="#bfbfbf" points="13.03,-63.5 13.03,-89.5 87.03,-89.5 87.03,-63.5 13.03,-63.5"/>
<text text-anchor="middle" x="50.03" y="-72.7" font-family="Source Sans Pro" font-size="16.00">memory</text>
</a>
</g>
</g>
<!-- Node1&#45;&gt;Node5 -->
<g id="edge25" class="edge">
<title>Node1&#45;&gt;Node5</title>
<path fill="none" stroke="midnightblue" d="M315.34,-369.45C266.22,-323.74 184.1,-244.86 120.03,-171 99.27,-147.07 77.77,-117.52 64.18,-98.12"/>
<polygon fill="midnightblue" stroke="midnightblue" points="66.93,-95.95 58.34,-89.73 61.18,-99.94 66.93,-95.95"/>
</g>
<!-- Node3 -->
<g id="node3" class="node">
<title>Node3</title>
<g id="a_node3"><a xlink:href="_i_e_image_8hpp.html" target="_top" xlink:title=" ">
<polygon fill="white" stroke="black" points="687.03,-207.5 687.03,-251.5 861.03,-251.5 861.03,-207.5 687.03,-207.5"/>
<text text-anchor="start" x="695.03" y="-234.7" font-family="Source Sans Pro" font-size="16.00">GraphicsModule/Image</text>
<text text-anchor="middle" x="774.03" y="-216.7" font-family="Source Sans Pro" font-size="16.00">/IEImage.hpp</text>
</a>
</g>
</g>
<!-- Node2&#45;&gt;Node3 -->
<g id="edge2" class="edge">
<title>Node2&#45;&gt;Node3</title>
<path fill="none" stroke="midnightblue" d="M774.03,-288.33C774.03,-280.18 774.03,-270.7 774.03,-261.8"/>
<polygon fill="midnightblue" stroke="midnightblue" points="777.53,-261.73 774.03,-251.73 770.53,-261.73 777.53,-261.73"/>
</g>
<!-- Node6 -->
<g id="node6" class="node">
<title>Node6</title>
<g id="a_node6"><a xlink:title=" ">
<polygon fill="white" stroke="#bfbfbf" points="1133.53,-0.5 1133.53,-26.5 1188.53,-26.5 1188.53,-0.5 1133.53,-0.5"/>
<text text-anchor="middle" x="1161.03" y="-9.7" font-family="Source Sans Pro" font-size="16.00">string</text>
</a>
</g>
</g>
<!-- Node2&#45;&gt;Node6 -->
<g id="edge23" class="edge">
<title>Node2&#45;&gt;Node6</title>
<path fill="none" stroke="midnightblue" d="M879.68,-291.57C997.84,-269.06 1177.86,-226.57 1217.03,-171 1225.28,-159.29 1212.74,-66.56 1211.03,-63 1205.52,-51.53 1196.1,-41.3 1186.91,-33.23"/>
<polygon fill="midnightblue" stroke="midnightblue" points="1188.94,-30.36 1179,-26.71 1184.49,-35.77 1188.94,-30.36"/>
</g>
<!-- Node7 -->
<g id="node7" class="node">
<title>Node7</title>
<g id="a_node7"><a xlink:title=" ">
<polygon fill="white" stroke="#bfbfbf" points="104.53,-0.5 104.53,-26.5 163.53,-26.5 163.53,-0.5 104.53,-0.5"/>
<text text-anchor="middle" x="134.03" y="-9.7" font-family="Source Sans Pro" font-size="16.00">vector</text>
</a>
</g>
</g>
<!-- Node2&#45;&gt;Node7 -->
<g id="edge24" class="edge">
<title>Node2&#45;&gt;Node7</title>
<path fill="none" stroke="midnightblue" d="M668.35,-297.77C472.2,-273.3 66.05,-208.94 4.03,-90 -16.72,-50.2 49.09,-29.8 94.52,-20.7"/>
<polygon fill="midnightblue" stroke="midnightblue" points="95.25,-24.12 104.43,-18.82 93.95,-17.24 95.25,-24.12"/>
</g>
<!-- Node8 -->
<g id="node8" class="node">
<title>Node8</title>
<g id="a_node8"><a xlink:title=" ">
<polygon fill="white" stroke="#bfbfbf" points="879.53,-63.5 879.53,-89.5 1004.53,-89.5 1004.53,-63.5 879.53,-63.5"/>
<text text-anchor="middle" x="942.03" y="-72.7" font-family="Source Sans Pro" font-size="16.00">vulkan/vulkan.h</text>
</a>
</g>
</g>
<!-- Node2&#45;&gt;Node8 -->
<g id="edge22" class="edge">
<title>Node2&#45;&gt;Node8</title>
<path fill="none" stroke="midnightblue" d="M862.16,-288.49C922.65,-268.97 998.53,-233.25 1036.03,-171 1046.35,-153.87 1046.44,-143.08 1036.03,-126 1027.17,-111.45 1012.39,-101.08 997.14,-93.77"/>
<polygon fill="midnightblue" stroke="midnightblue" points="998.2,-90.41 987.64,-89.6 995.39,-96.82 998.2,-90.41"/>
</g>
<!-- Node4 -->
<g id="node4" class="node">
<title>Node4</title>
<g id="a_node4"><a xlink:href="_i_e_dependency_8hpp.html" target="_top" xlink:title=" ">
<polygon fill="white" stroke="black" points="181.53,-126.5 181.53,-170.5 426.53,-170.5 426.53,-126.5 181.53,-126.5"/>
<text text-anchor="start" x="189.53" y="-153.7" font-family="Source Sans Pro" font-size="16.00">GraphicsModule/CommandBuffer</text>
<text text-anchor="middle" x="304.03" y="-135.7" font-family="Source Sans Pro" font-size="16.00">/IEDependency.hpp</text>
</a>
</g>
</g>
<!-- Node3&#45;&gt;Node4 -->
<g id="edge3" class="edge">
<title>Node3&#45;&gt;Node4</title>
<path fill="none" stroke="midnightblue" d="M687,-213.87C616.9,-202.09 517.17,-185.33 437.05,-171.86"/>
<polygon fill="midnightblue" stroke="midnightblue" points="437.33,-168.36 426.89,-170.15 436.17,-175.26 437.33,-168.36"/>
</g>
<!-- Node3&#45;&gt;Node6 -->
<g id="edge20" class="edge">
<title>Node3&#45;&gt;Node6</title>
<path fill="none" stroke="midnightblue" d="M861.17,-222.68C978.28,-213.95 1174.36,-195.82 1196.03,-171 1229.84,-132.27 1196.67,-68 1175.55,-35.17"/>
<polygon fill="midnightblue" stroke="midnightblue" points="1178.44,-33.19 1169.98,-26.8 1172.61,-37.06 1178.44,-33.19"/>
</g>
<!-- Node3&#45;&gt;Node7 -->
<g id="edge21" class="edge">
<title>Node3&#45;&gt;Node7</title>
<path fill="none" stroke="midnightblue" d="M686.98,-226.65C523.41,-222.29 183.23,-208.75 146.03,-171 111,-135.44 119.96,-70.65 127.89,-36.66"/>
<polygon fill="midnightblue" stroke="midnightblue" points="131.33,-37.33 130.37,-26.78 124.54,-35.62 131.33,-37.33"/>
</g>
<!-- Node3&#45;&gt;Node8 -->
<g id="edge17" class="edge">
<title>Node3&#45;&gt;Node8</title>
<path fill="none" stroke="midnightblue" d="M861.14,-219.35C923.03,-210.85 998.48,-195.7 1018.03,-171 1030.45,-155.32 1027.64,-143.54 1018.03,-126 1010.57,-112.39 997.5,-102.05 984.27,-94.49"/>
<polygon fill="midnightblue" stroke="midnightblue" points="985.64,-91.25 975.16,-89.69 982.37,-97.45 985.64,-91.25"/>
</g>
<!-- Node9 -->
<g id="node9" class="node">
<title>Node9</title>
<g id="a_node9"><a xlink:href="_i_e_a_p_i_8hpp.html" target="_top" xlink:title=" ">
<polygon fill="white" stroke="black" points="1103.53,-135.5 1103.53,-161.5 1186.53,-161.5 1186.53,-135.5 1103.53,-135.5"/>
<text text-anchor="middle" x="1145.03" y="-144.7" font-family="Source Sans Pro" font-size="16.00">IEAPI.hpp</text>
</a>
</g>
</g>
<!-- Node3&#45;&gt;Node9 -->
<g id="edge8" class="edge">
<title>Node3&#45;&gt;Node9</title>
<path fill="none" stroke="midnightblue" d="M861.15,-210.89C915.75,-199.73 987.57,-184.84 1051.03,-171 1064.85,-167.99 1079.79,-164.62 1093.6,-161.46"/>
<polygon fill="midnightblue" stroke="midnightblue" points="1094.46,-164.85 1103.43,-159.21 1092.9,-158.03 1094.46,-164.85"/>
</g>
<!-- Node11 -->
<g id="node11" class="node">
<title>Node11</title>
<g id="a_node11"><a xlink:title=" ">
<polygon fill="white" stroke="#bfbfbf" points="614.53,-0.5 614.53,-26.5 677.53,-26.5 677.53,-0.5 614.53,-0.5"/>
<text text-anchor="middle" x="646.03" y="-9.7" font-family="Source Sans Pro" font-size="16.00">cstdint</text>
</a>
</g>
</g>
<!-- Node3&#45;&gt;Node11 -->
<g id="edge18" class="edge">
<title>Node3&#45;&gt;Node11</title>
<path fill="none" stroke="midnightblue" d="M686.94,-226.53C528.44,-222.02 205.97,-208.34 172.03,-171 46.62,-33.04 466.78,-16.43 604.09,-14.64"/>
<polygon fill="midnightblue" stroke="midnightblue" points="604.27,-18.14 614.23,-14.53 604.19,-11.14 604.27,-18.14"/>
</g>
<!-- Node12 -->
<g id="node12" class="node">
<title>Node12</title>
<g id="a_node12"><a xlink:title=" ">
<polygon fill="white" stroke="#bfbfbf" points="445.03,-135.5 445.03,-161.5 583.03,-161.5 583.03,-135.5 445.03,-135.5"/>
<text text-anchor="middle" x="514.03" y="-144.7" font-family="Source Sans Pro" font-size="16.00">include/GL/glew.h</text>
</a>
</g>
</g>
<!-- Node3&#45;&gt;Node12 -->
<g id="edge14" class="edge">
<title>Node3&#45;&gt;Node12</title>
<path fill="none" stroke="midnightblue" d="M704.7,-207.43C660.18,-193.91 603.43,-176.66 563.46,-164.52"/>
<polygon fill="midnightblue" stroke="midnightblue" points="564.26,-161.1 553.68,-161.55 562.23,-167.8 564.26,-161.1"/>
</g>
<!-- Node13 -->
<g id="node13" class="node">
<title>Node13</title>
<g id="a_node13"><a xlink:title=" ">
<polygon fill="white" stroke="#bfbfbf" points="601.53,-135.5 601.53,-161.5 786.53,-161.5 786.53,-135.5 601.53,-135.5"/>
<text text-anchor="middle" x="694.03" y="-144.7" font-family="Source Sans Pro" font-size="16.00">include/vk_mem_alloc.h</text>
</a>
</g>
</g>
<!-- Node3&#45;&gt;Node13 -->
<g id="edge15" class="edge">
<title>Node3&#45;&gt;Node13</title>
<path fill="none" stroke="midnightblue" d="M752.59,-207.33C740.44,-195.33 725.36,-180.44 713.54,-168.77"/>
<polygon fill="midnightblue" stroke="midnightblue" points="715.89,-166.16 706.31,-161.63 710.97,-171.14 715.89,-166.16"/>
</g>
<!-- Node14 -->
<g id="node14" class="node">
<title>Node14</title>
<g id="a_node14"><a xlink:title=" ">
<polygon fill="white" stroke="#bfbfbf" points="805.03,-135.5 805.03,-161.5 905.03,-161.5 905.03,-135.5 805.03,-135.5"/>
<text text-anchor="middle" x="855.03" y="-144.7" font-family="Source Sans Pro" font-size="16.00">stb_image.h</text>
</a>
</g>
</g>
<!-- Node3&#45;&gt;Node14 -->
<g id="edge16" class="edge">
<title>Node3&#45;&gt;Node14</title>
<path fill="none" stroke="midnightblue" d="M795.74,-207.33C808.04,-195.33 823.31,-180.44 835.28,-168.77"/>
<polygon fill="midnightblue" stroke="midnightblue" points="837.88,-171.12 842.6,-161.63 832.99,-166.1 837.88,-171.12"/>
</g>
<!-- Node15 -->
<g id="node15" class="node">
<title>Node15</title>
<g id="a_node15"><a xlink:title=" ">
<polygon fill="white" stroke="#bfbfbf" points="923.03,-135.5 923.03,-161.5 1009.03,-161.5 1009.03,-135.5 923.03,-135.5"/>
<text text-anchor="middle" x="966.03" y="-144.7" font-family="Source Sans Pro" font-size="16.00">functional</text>
</a>
</g>
</g>
<!-- Node3&#45;&gt;Node15 -->
<g id="edge19" class="edge">
<title>Node3&#45;&gt;Node15</title>
<path fill="none" stroke="midnightblue" d="M825.24,-207.5C851.75,-196.62 884.64,-183.11 914.03,-171 918.43,-169.19 923.03,-167.29 927.61,-165.4"/>
<polygon fill="midnightblue" stroke="midnightblue" points="928.98,-168.62 936.88,-161.57 926.31,-162.15 928.98,-168.62"/>
</g>
<!-- Node4&#45;&gt;Node5 -->
<g id="edge4" class="edge">
<title>Node4&#45;&gt;Node5</title>
<path fill="none" stroke="midnightblue" d="M227.82,-126.5C185.35,-114.79 133.8,-100.59 97.17,-90.49"/>
<polygon fill="midnightblue" stroke="midnightblue" points="97.82,-87.04 87.25,-87.76 95.96,-93.79 97.82,-87.04"/>
</g>
<!-- Node4&#45;&gt;Node6 -->
<g id="edge5" class="edge">
<title>Node4&#45;&gt;Node6</title>
<path fill="none" stroke="midnightblue" d="M426.63,-127.49C429.8,-126.99 432.94,-126.49 436.03,-126 698.96,-84.37 1015.9,-36.38 1123.34,-20.18"/>
<polygon fill="midnightblue" stroke="midnightblue" points="1123.99,-23.62 1133.36,-18.67 1122.95,-16.7 1123.99,-23.62"/>
</g>
<!-- Node4&#45;&gt;Node7 -->
<g id="edge6" class="edge">
<title>Node4&#45;&gt;Node7</title>
<path fill="none" stroke="midnightblue" d="M277.09,-126.43C244.23,-100.72 189.19,-57.65 157.83,-33.12"/>
<polygon fill="midnightblue" stroke="midnightblue" points="159.68,-30.12 149.64,-26.71 155.36,-35.63 159.68,-30.12"/>
</g>
<!-- Node4&#45;&gt;Node8 -->
<g id="edge7" class="edge">
<title>Node4&#45;&gt;Node8</title>
<path fill="none" stroke="midnightblue" d="M426.6,-127.25C429.78,-126.82 432.92,-126.4 436.03,-126 589.67,-106.15 770.52,-90.72 869.03,-82.98"/>
<polygon fill="midnightblue" stroke="midnightblue" points="869.47,-86.45 879.17,-82.19 868.93,-79.48 869.47,-86.45"/>
</g>
<!-- Node9&#45;&gt;Node6 -->
<g id="edge13" class="edge">
<title>Node9&#45;&gt;Node6</title>
<path fill="none" stroke="midnightblue" d="M1146.51,-135.23C1149.2,-112.86 1154.94,-65.16 1158.34,-36.88"/>
<polygon fill="midnightblue" stroke="midnightblue" points="1161.84,-37.09 1159.56,-26.74 1154.89,-36.25 1161.84,-37.09"/>
</g>
<!-- Node10 -->
<g id="node10" class="node">
<title>Node10</title>
<g id="a_node10"><a xlink:href="_i_e_version_8hpp.html" target="_top" xlink:title=" ">
<polygon fill="white" stroke="black" points="1023.03,-63.5 1023.03,-89.5 1133.03,-89.5 1133.03,-63.5 1023.03,-63.5"/>
<text text-anchor="middle" x="1078.03" y="-72.7" font-family="Source Sans Pro" font-size="16.00">IEVersion.hpp</text>
</a>
</g>
</g>
<!-- Node9&#45;&gt;Node10 -->
<g id="edge9" class="edge">
<title>Node9&#45;&gt;Node10</title>
<path fill="none" stroke="midnightblue" d="M1133.36,-135.31C1123.27,-124.77 1108.51,-109.34 1096.77,-97.07"/>
<polygon fill="midnightblue" stroke="midnightblue" points="1099.01,-94.36 1089.57,-89.55 1093.95,-99.2 1099.01,-94.36"/>
</g>
<!-- Node10&#45;&gt;Node6 -->
<g id="edge11" class="edge">
<title>Node10&#45;&gt;Node6</title>
<path fill="none" stroke="midnightblue" d="M1094.43,-63.45C1106.37,-54.68 1122.74,-42.64 1136.27,-32.7"/>
<polygon fill="midnightblue" stroke="midnightblue" points="1138.68,-35.27 1144.67,-26.53 1134.54,-29.63 1138.68,-35.27"/>
</g>
<!-- Node10&#45;&gt;Node7 -->
<g id="edge12" class="edge">
<title>Node10&#45;&gt;Node7</title>
<path fill="none" stroke="midnightblue" d="M1022.95,-64.24C1019.94,-63.78 1016.95,-63.36 1014.03,-63 691.67,-22.83 298.73,-15.93 174.01,-14.75"/>
<polygon fill="midnightblue" stroke="midnightblue" points="173.82,-11.24 163.79,-14.66 173.76,-18.24 173.82,-11.24"/>
</g>
<!-- Node10&#45;&gt;Node11 -->
<g id="edge10" class="edge">
<title>Node10&#45;&gt;Node11</title>
<path fill="none" stroke="midnightblue" d="M1022.91,-64.51C1019.91,-63.98 1016.94,-63.47 1014.03,-63 896.07,-43.73 755.86,-26.92 687.57,-19.13"/>
<polygon fill="midnightblue" stroke="midnightblue" points="687.96,-15.65 677.63,-18 687.17,-22.6 687.96,-15.65"/>
</g>
</g>
</svg>
