<?xml version="1.0" encoding="UTF-8" standalone="no"?>
<!DOCTYPE svg PUBLIC "-//W3C//DTD SVG 1.1//EN"
 "http://www.w3.org/Graphics/SVG/1.1/DTD/svg11.dtd">
<!-- Generated by graphviz version 2.43.0 (0)
 -->
<!-- Title: Illumination&#45;Engine/src/Core/FileSystemModule/IEFile.hpp Pages: 1 -->
<svg width="3450pt" height="764pt"
 viewBox="0.00 0.00 3449.99 764.00" xmlns="http://www.w3.org/2000/svg" xmlns:xlink="http://www.w3.org/1999/xlink">
<g id="graph0" class="graph" transform="scale(1 1) rotate(0) translate(4 760)">
<title>Illumination&#45;Engine/src/Core/FileSystemModule/IEFile.hpp</title>
<polygon fill="white" stroke="transparent" points="-4,4 -4,-760 3445.99,-760 3445.99,4 -4,4"/>
<!-- Node1 -->
<g id="node1" class="node">
<title>Node1</title>
<g id="a_node1"><a xlink:title=" ">
<polygon fill="#bfbfbf" stroke="black" points="1715.5,-693.5 1715.5,-755.5 1922.5,-755.5 1922.5,-693.5 1715.5,-693.5"/>
<text text-anchor="start" x="1723.5" y="-738.7" font-family="Source Sans Pro" font-size="16.00">Illumination&#45;Engine</text>
<text text-anchor="start" x="1723.5" y="-720.7" font-family="Source Sans Pro" font-size="16.00">/src/Core/FileSystemModule</text>
<text text-anchor="middle" x="1819" y="-702.7" font-family="Source Sans Pro" font-size="16.00">/IEFile.hpp</text>
</a>
</g>
</g>
<!-- Node2 -->
<g id="node2" class="node">
<title>Node2</title>
<g id="a_node2"><a xlink:href="_i_e_directory_8hpp.html" target="_top" xlink:title=" ">
<polygon fill="white" stroke="black" points="2189.5,-594.5 2189.5,-656.5 2396.5,-656.5 2396.5,-594.5 2189.5,-594.5"/>
<text text-anchor="start" x="2197.5" y="-639.7" font-family="Source Sans Pro" font-size="16.00">Illumination&#45;Engine</text>
<text text-anchor="start" x="2197.5" y="-621.7" font-family="Source Sans Pro" font-size="16.00">/src/Core/FileSystemModule</text>
<text text-anchor="middle" x="2293" y="-603.7" font-family="Source Sans Pro" font-size="16.00">/IEDirectory.hpp</text>
</a>
</g>
</g>
<!-- Node1&#45;&gt;Node2 -->
<g id="edge1" class="edge">
<title>Node1&#45;&gt;Node2</title>
<path fill="none" stroke="midnightblue" d="M1932.59,-700.25C2010.58,-684.3 2113.28,-663.28 2189.09,-647.76"/>
<polygon fill="midnightblue" stroke="midnightblue" points="1931.82,-696.84 1922.73,-702.27 1933.23,-703.7 1931.82,-696.84"/>
</g>
<!-- Node3 -->
<g id="node3" class="node">
<title>Node3</title>
<g id="a_node3"><a xlink:href="_i_e_file_system_8hpp.html" target="_top" xlink:title=" ">
<polygon fill="white" stroke="black" points="2237.5,-495.5 2237.5,-557.5 2444.5,-557.5 2444.5,-495.5 2237.5,-495.5"/>
<text text-anchor="start" x="2245.5" y="-540.7" font-family="Source Sans Pro" font-size="16.00">Illumination&#45;Engine</text>
<text text-anchor="start" x="2245.5" y="-522.7" font-family="Source Sans Pro" font-size="16.00">/src/Core/FileSystemModule</text>
<text text-anchor="middle" x="2341" y="-504.7" font-family="Source Sans Pro" font-size="16.00">/IEFileSystem.hpp</text>
</a>
</g>
</g>
<!-- Node1&#45;&gt;Node3 -->
<g id="edge4" class="edge">
<title>Node1&#45;&gt;Node3</title>
<path fill="none" stroke="midnightblue" d="M1908.53,-689.88C2007.57,-652.7 2165.7,-593.32 2260.83,-557.6"/>
<polygon fill="midnightblue" stroke="midnightblue" points="1907.26,-686.62 1899.13,-693.41 1909.73,-693.17 1907.26,-686.62"/>
</g>
<!-- Node5 -->
<g id="node5" class="node">
<title>Node5</title>
<g id="a_node5"><a xlink:href="_i_e_shader_8cpp.html" target="_top" xlink:title=" ">
<polygon fill="white" stroke="black" points="0,-81.5 0,-143.5 164,-143.5 164,-81.5 0,-81.5"/>
<text text-anchor="start" x="8" y="-126.7" font-family="Source Sans Pro" font-size="16.00">Illumination&#45;Engine</text>
<text text-anchor="start" x="8" y="-108.7" font-family="Source Sans Pro" font-size="16.00">/src/GraphicsModule</text>
<text text-anchor="middle" x="82" y="-90.7" font-family="Source Sans Pro" font-size="16.00">/Shader/IEShader.cpp</text>
</a>
</g>
</g>
<!-- Node1&#45;&gt;Node5 -->
<g id="edge5" class="edge">
<title>Node1&#45;&gt;Node5</title>
<path fill="none" stroke="midnightblue" d="M1705.27,-722.52C1321.64,-717.71 99,-689.67 99,-527.5 99,-527.5 99,-527.5 99,-327.5 99,-261.72 90.92,-184.92 85.9,-143.56"/>
<polygon fill="midnightblue" stroke="midnightblue" points="1705.24,-726.02 1715.28,-722.64 1705.32,-719.02 1705.24,-726.02"/>
</g>
<!-- Node6 -->
<g id="node6" class="node">
<title>Node6</title>
<g id="a_node6"><a xlink:href="_i_e_shader_8hpp.html" target="_top" xlink:title=" ">
<polygon fill="white" stroke="black" points="1681,-594.5 1681,-656.5 1847,-656.5 1847,-594.5 1681,-594.5"/>
<text text-anchor="start" x="1689" y="-639.7" font-family="Source Sans Pro" font-size="16.00">Illumination&#45;Engine</text>
<text text-anchor="start" x="1689" y="-621.7" font-family="Source Sans Pro" font-size="16.00">/src/GraphicsModule</text>
<text text-anchor="middle" x="1764" y="-603.7" font-family="Source Sans Pro" font-size="16.00">/Shader/IEShader.hpp</text>
</a>
</g>
</g>
<!-- Node1&#45;&gt;Node6 -->
<g id="edge6" class="edge">
<title>Node1&#45;&gt;Node6</title>
<path fill="none" stroke="midnightblue" d="M1796.95,-684.61C1791.67,-675.3 1786.11,-665.49 1781.09,-656.64"/>
<polygon fill="midnightblue" stroke="midnightblue" points="1793.92,-686.37 1801.9,-693.34 1800.01,-682.92 1793.92,-686.37"/>
</g>
<!-- Node2&#45;&gt;Node3 -->
<g id="edge2" class="edge">
<title>Node2&#45;&gt;Node3</title>
<path fill="none" stroke="midnightblue" d="M2312.39,-585.32C2316.95,-576.09 2321.75,-566.4 2326.08,-557.64"/>
<polygon fill="midnightblue" stroke="midnightblue" points="2309.22,-583.83 2307.92,-594.34 2315.5,-586.93 2309.22,-583.83"/>
</g>
<!-- Node4 -->
<g id="node4" class="node">
<title>Node4</title>
<g id="a_node4"><a xlink:href="main_8cpp.html" target="_top" xlink:title=" ">
<polygon fill="white" stroke="black" points="2974,-0.5 2974,-44.5 3124,-44.5 3124,-0.5 2974,-0.5"/>
<text text-anchor="start" x="2982" y="-27.7" font-family="Source Sans Pro" font-size="16.00">Illumination&#45;Engine</text>
<text text-anchor="middle" x="3049" y="-9.7" font-family="Source Sans Pro" font-size="16.00">/src/main.cpp</text>
</a>
</g>
</g>
<!-- Node3&#45;&gt;Node4 -->
<g id="edge3" class="edge">
<title>Node3&#45;&gt;Node4</title>
<path fill="none" stroke="midnightblue" d="M2455.1,-516.94C2735.39,-494.41 3435,-428.25 3435,-329.5 3435,-329.5 3435,-329.5 3435,-219.5 3435,-157.37 3459.51,-125.35 3416,-81 3376.48,-40.72 3219.49,-28.64 3124.1,-25.03"/>
<polygon fill="midnightblue" stroke="midnightblue" points="2454.6,-513.47 2444.91,-517.76 2455.15,-520.45 2454.6,-513.47"/>
</g>
<!-- Node6&#45;&gt;Node5 -->
<g id="edge48" class="edge">
<title>Node6&#45;&gt;Node5</title>
<path fill="none" stroke="midnightblue" d="M1670.57,-617.5C1406.89,-596.49 676,-529.18 676,-428.5 676,-428.5 676,-428.5 676,-327.5 676,-320.78 327.36,-198.75 164.28,-142.04"/>
<polygon fill="midnightblue" stroke="midnightblue" points="1670.64,-621.01 1680.88,-618.31 1671.19,-614.03 1670.64,-621.01"/>
</g>
<!-- Node7 -->
<g id="node7" class="node">
<title>Node7</title>
<g id="a_node7"><a xlink:href="_i_e_renderable_8hpp.html" target="_top" xlink:title=" ">
<polygon fill="white" stroke="black" points="2550.5,-189.5 2550.5,-251.5 2777.5,-251.5 2777.5,-189.5 2550.5,-189.5"/>
<text text-anchor="start" x="2558.5" y="-234.7" font-family="Source Sans Pro" font-size="16.00">Illumination&#45;Engine</text>
<text text-anchor="start" x="2558.5" y="-216.7" font-family="Source Sans Pro" font-size="16.00">/src/GraphicsModule</text>
<text text-anchor="middle" x="2664" y="-198.7" font-family="Source Sans Pro" font-size="16.00">/Renderable/IERenderable.hpp</text>
</a>
</g>
</g>
<!-- Node6&#45;&gt;Node7 -->
<g id="edge7" class="edge">
<title>Node6&#45;&gt;Node7</title>
<path fill="none" stroke="midnightblue" d="M1840.58,-590.21C2013.7,-512.69 2432.83,-325.01 2596.72,-251.63"/>
<polygon fill="midnightblue" stroke="midnightblue" points="1838.97,-587.09 1831.28,-594.37 1841.84,-593.48 1838.97,-587.09"/>
</g>
<!-- Node10 -->
<g id="node10" class="node">
<title>Node10</title>
<g id="a_node10"><a xlink:href="_i_e_pipeline_8hpp.html" target="_top" xlink:title=" ">
<polygon fill="white" stroke="black" points="1629.5,-495.5 1629.5,-557.5 1802.5,-557.5 1802.5,-495.5 1629.5,-495.5"/>
<text text-anchor="start" x="1637.5" y="-540.7" font-family="Source Sans Pro" font-size="16.00">Illumination&#45;Engine</text>
<text text-anchor="start" x="1637.5" y="-522.7" font-family="Source Sans Pro" font-size="16.00">/src/GraphicsModule</text>
<text text-anchor="middle" x="1716" y="-504.7" font-family="Source Sans Pro" font-size="16.00">/Shader/IEPipeline.hpp</text>
</a>
</g>
</g>
<!-- Node6&#45;&gt;Node10 -->
<g id="edge11" class="edge">
<title>Node6&#45;&gt;Node10</title>
<path fill="none" stroke="midnightblue" d="M1744.61,-585.32C1740.05,-576.09 1735.25,-566.4 1730.92,-557.64"/>
<polygon fill="midnightblue" stroke="midnightblue" points="1741.5,-586.93 1749.08,-594.34 1747.78,-583.83 1741.5,-586.93"/>
</g>
<!-- Node8 -->
<g id="node8" class="node">
<title>Node8</title>
<g id="a_node8"><a xlink:href="_i_e_render_engine_8cpp.html" target="_top" xlink:title=" ">
<polygon fill="white" stroke="black" points="2584.5,-81.5 2584.5,-143.5 2743.5,-143.5 2743.5,-81.5 2584.5,-81.5"/>
<text text-anchor="start" x="2592.5" y="-126.7" font-family="Source Sans Pro" font-size="16.00">Illumination&#45;Engine</text>
<text text-anchor="start" x="2592.5" y="-108.7" font-family="Source Sans Pro" font-size="16.00">/src/GraphicsModule</text>
<text text-anchor="middle" x="2664" y="-90.7" font-family="Source Sans Pro" font-size="16.00">/IERenderEngine.cpp</text>
</a>
</g>
</g>
<!-- Node7&#45;&gt;Node8 -->
<g id="edge8" class="edge">
<title>Node7&#45;&gt;Node8</title>
<path fill="none" stroke="midnightblue" d="M2664,-179.31C2664,-167.48 2664,-154.75 2664,-143.67"/>
<polygon fill="midnightblue" stroke="midnightblue" points="2660.5,-179.41 2664,-189.41 2667.5,-179.41 2660.5,-179.41"/>
</g>
<!-- Node9 -->
<g id="node9" class="node">
<title>Node9</title>
<g id="a_node9"><a xlink:href="_i_e_renderable_8cpp.html" target="_top" xlink:title=" ">
<polygon fill="white" stroke="black" points="3181.5,-81.5 3181.5,-143.5 3406.5,-143.5 3406.5,-81.5 3181.5,-81.5"/>
<text text-anchor="start" x="3189.5" y="-126.7" font-family="Source Sans Pro" font-size="16.00">Illumination&#45;Engine</text>
<text text-anchor="start" x="3189.5" y="-108.7" font-family="Source Sans Pro" font-size="16.00">/src/GraphicsModule</text>
<text text-anchor="middle" x="3294" y="-90.7" font-family="Source Sans Pro" font-size="16.00">/Renderable/IERenderable.cpp</text>
</a>
</g>
</g>
<!-- Node7&#45;&gt;Node9 -->
<g id="edge10" class="edge">
<title>Node7&#45;&gt;Node9</title>
<path fill="none" stroke="midnightblue" d="M2787.69,-204.66C2891.13,-191.41 3042.33,-170.09 3173,-144 3175.76,-143.45 3178.56,-142.87 3181.37,-142.28"/>
<polygon fill="midnightblue" stroke="midnightblue" points="2787,-201.22 2777.52,-205.96 2787.88,-208.16 2787,-201.22"/>
</g>
<!-- Node8&#45;&gt;Node4 -->
<g id="edge9" class="edge">
<title>Node8&#45;&gt;Node4</title>
<path fill="none" stroke="midnightblue" d="M2753.64,-80.67C2833.31,-59.73 2915.78,-44.59 2973.87,-35"/>
<polygon fill="midnightblue" stroke="midnightblue" points="2752.71,-77.3 2743.95,-83.25 2754.51,-84.06 2752.71,-77.3"/>
</g>
<!-- Node10&#45;&gt;Node7 -->
<g id="edge46" class="edge">
<title>Node10&#45;&gt;Node7</title>
<path fill="none" stroke="midnightblue" d="M1812.24,-493.67C1895.02,-464.41 2016.2,-416.98 2114,-360 2153.41,-337.04 2153.18,-315.19 2195,-297 2309.38,-247.24 2452.32,-229.92 2550.14,-224.08"/>
<polygon fill="midnightblue" stroke="midnightblue" points="1810.86,-490.45 1802.59,-497.07 1813.18,-497.05 1810.86,-490.45"/>
</g>
<!-- Node11 -->
<g id="node11" class="node">
<title>Node11</title>
<g id="a_node11"><a xlink:href="_i_e_command_buffer_8cpp.html" target="_top" xlink:title=" ">
<polygon fill="white" stroke="black" points="372.5,-81.5 372.5,-143.5 665.5,-143.5 665.5,-81.5 372.5,-81.5"/>
<text text-anchor="start" x="380.5" y="-126.7" font-family="Source Sans Pro" font-size="16.00">Illumination&#45;Engine</text>
<text text-anchor="start" x="380.5" y="-108.7" font-family="Source Sans Pro" font-size="16.00">/src/GraphicsModule</text>
<text text-anchor="middle" x="519" y="-90.7" font-family="Source Sans Pro" font-size="16.00">/CommandBuffer/IECommandBuffer.cpp</text>
</a>
</g>
</g>
<!-- Node10&#45;&gt;Node11 -->
<g id="edge12" class="edge">
<title>Node10&#45;&gt;Node11</title>
<path fill="none" stroke="midnightblue" d="M1619.65,-501.64C1580.03,-490.55 1534.12,-476.02 1494,-459 1260.81,-360.05 1238.13,-257.62 997,-180 859.92,-135.87 817.34,-165.83 675,-144 672,-143.54 668.97,-143.06 665.92,-142.57"/>
<polygon fill="midnightblue" stroke="midnightblue" points="1618.75,-505.02 1629.32,-504.31 1620.61,-498.27 1618.75,-505.02"/>
</g>
<!-- Node12 -->
<g id="node12" class="node">
<title>Node12</title>
<g id="a_node12"><a xlink:href="_i_e_command_buffer_8hpp.html" target="_top" xlink:title=" ">
<polygon fill="white" stroke="black" points="1568.5,-396.5 1568.5,-458.5 1863.5,-458.5 1863.5,-396.5 1568.5,-396.5"/>
<text text-anchor="start" x="1576.5" y="-441.7" font-family="Source Sans Pro" font-size="16.00">Illumination&#45;Engine</text>
<text text-anchor="start" x="1576.5" y="-423.7" font-family="Source Sans Pro" font-size="16.00">/src/GraphicsModule</text>
<text text-anchor="middle" x="1716" y="-405.7" font-family="Source Sans Pro" font-size="16.00">/CommandBuffer/IECommandBuffer.hpp</text>
</a>
</g>
</g>
<!-- Node10&#45;&gt;Node12 -->
<g id="edge13" class="edge">
<title>Node10&#45;&gt;Node12</title>
<path fill="none" stroke="midnightblue" d="M1716,-485.17C1716,-476.29 1716,-467.03 1716,-458.64"/>
<polygon fill="midnightblue" stroke="midnightblue" points="1712.5,-485.34 1716,-495.34 1719.5,-485.34 1712.5,-485.34"/>
</g>
<!-- Node26 -->
<g id="node26" class="node">
<title>Node26</title>
<g id="a_node26"><a xlink:href="_i_e_pipeline_8cpp.html" target="_top" xlink:title=" ">
<polygon fill="white" stroke="black" points="182,-81.5 182,-143.5 354,-143.5 354,-81.5 182,-81.5"/>
<text text-anchor="start" x="190" y="-126.7" font-family="Source Sans Pro" font-size="16.00">Illumination&#45;Engine</text>
<text text-anchor="start" x="190" y="-108.7" font-family="Source Sans Pro" font-size="16.00">/src/GraphicsModule</text>
<text text-anchor="middle" x="268" y="-90.7" font-family="Source Sans Pro" font-size="16.00">/Shader/IEPipeline.cpp</text>
</a>
</g>
</g>
<!-- Node10&#45;&gt;Node26 -->
<g id="edge47" class="edge">
<title>Node10&#45;&gt;Node26</title>
<path fill="none" stroke="midnightblue" d="M1619.26,-512.46C1548.5,-501.62 1450.67,-483.93 1367,-459 1055.11,-366.07 1005.3,-260.6 690,-180 548.34,-143.79 505.99,-174.5 363,-144 360.04,-143.37 357.03,-142.68 354.01,-141.95"/>
<polygon fill="midnightblue" stroke="midnightblue" points="1619.09,-515.97 1629.5,-514.01 1620.14,-509.05 1619.09,-515.97"/>
</g>
<!-- Node29 -->
<g id="node29" class="node">
<title>Node29</title>
<g id="a_node29"><a xlink:href="_i_e_dependency_8cpp.html" target="_top" xlink:title=" ">
<polygon fill="white" stroke="black" points="1251,-189.5 1251,-251.5 1517,-251.5 1517,-189.5 1251,-189.5"/>
<text text-anchor="start" x="1259" y="-234.7" font-family="Source Sans Pro" font-size="16.00">Illumination&#45;Engine</text>
<text text-anchor="start" x="1259" y="-216.7" font-family="Source Sans Pro" font-size="16.00">/src/GraphicsModule</text>
<text text-anchor="middle" x="1384" y="-198.7" font-family="Source Sans Pro" font-size="16.00">/CommandBuffer/IEDependency.cpp</text>
</a>
</g>
</g>
<!-- Node10&#45;&gt;Node29 -->
<g id="edge40" class="edge">
<title>Node10&#45;&gt;Node29</title>
<path fill="none" stroke="midnightblue" d="M1619.74,-494.34C1598.52,-484.92 1577.01,-473.22 1559,-459 1484.22,-399.98 1425.73,-301.35 1399.33,-251.82"/>
<polygon fill="midnightblue" stroke="midnightblue" points="1618.56,-497.64 1629.13,-498.36 1621.32,-491.2 1618.56,-497.64"/>
</g>
<!-- Node30 -->
<g id="node30" class="node">
<title>Node30</title>
<g id="a_node30"><a xlink:href="_i_e_mesh_8hpp.html" target="_top" xlink:title=" ">
<polygon fill="white" stroke="black" points="2760.5,-297.5 2760.5,-359.5 2945.5,-359.5 2945.5,-297.5 2760.5,-297.5"/>
<text text-anchor="start" x="2768.5" y="-342.7" font-family="Source Sans Pro" font-size="16.00">Illumination&#45;Engine</text>
<text text-anchor="start" x="2768.5" y="-324.7" font-family="Source Sans Pro" font-size="16.00">/src/GraphicsModule</text>
<text text-anchor="middle" x="2853" y="-306.7" font-family="Source Sans Pro" font-size="16.00">/Renderable/IEMesh.hpp</text>
</a>
</g>
</g>
<!-- Node10&#45;&gt;Node30 -->
<g id="edge41" class="edge">
<title>Node10&#45;&gt;Node30</title>
<path fill="none" stroke="midnightblue" d="M1812.7,-511.38C1900.14,-498.42 2032.34,-478.36 2147,-459 2367.41,-421.79 2625.56,-373.15 2760.35,-347.36"/>
<polygon fill="midnightblue" stroke="midnightblue" points="1812.18,-507.92 1802.8,-512.85 1813.2,-514.84 1812.18,-507.92"/>
</g>
<!-- Node12&#45;&gt;Node11 -->
<g id="edge14" class="edge">
<title>Node12&#45;&gt;Node11</title>
<path fill="none" stroke="midnightblue" d="M1601.83,-391.38C1587.52,-382.99 1574.32,-372.67 1564,-360 1512.38,-296.59 1588.4,-232.83 1526,-180 1489.88,-149.42 721.99,-149.56 675,-144 671.99,-143.64 668.94,-143.26 665.88,-142.86"/>
<polygon fill="midnightblue" stroke="midnightblue" points="1600.42,-394.6 1610.87,-396.36 1603.8,-388.47 1600.42,-394.6"/>
</g>
<!-- Node13 -->
<g id="node13" class="node">
<title>Node13</title>
<g id="a_node13"><a xlink:href="_i_e_command_pool_8hpp.html" target="_top" xlink:title=" ">
<polygon fill="white" stroke="black" points="1573.5,-297.5 1573.5,-359.5 1858.5,-359.5 1858.5,-297.5 1573.5,-297.5"/>
<text text-anchor="start" x="1581.5" y="-342.7" font-family="Source Sans Pro" font-size="16.00">Illumination&#45;Engine</text>
<text text-anchor="start" x="1581.5" y="-324.7" font-family="Source Sans Pro" font-size="16.00">/src/GraphicsModule</text>
<text text-anchor="middle" x="1716" y="-306.7" font-family="Source Sans Pro" font-size="16.00">/CommandBuffer/IECommandPool.hpp</text>
</a>
</g>
</g>
<!-- Node12&#45;&gt;Node13 -->
<g id="edge15" class="edge">
<title>Node12&#45;&gt;Node13</title>
<path fill="none" stroke="midnightblue" d="M1716,-386.17C1716,-377.29 1716,-368.03 1716,-359.64"/>
<polygon fill="midnightblue" stroke="midnightblue" points="1712.5,-386.34 1716,-396.34 1719.5,-386.34 1712.5,-386.34"/>
</g>
<!-- Node27 -->
<g id="node27" class="node">
<title>Node27</title>
<g id="a_node27"><a xlink:href="_i_e_render_pass_8hpp.html" target="_top" xlink:title=" ">
<polygon fill="white" stroke="black" points="1877,-297.5 1877,-359.5 2105,-359.5 2105,-297.5 1877,-297.5"/>
<text text-anchor="start" x="1885" y="-342.7" font-family="Source Sans Pro" font-size="16.00">Illumination&#45;Engine</text>
<text text-anchor="start" x="1885" y="-324.7" font-family="Source Sans Pro" font-size="16.00">/src/GraphicsModule</text>
<text text-anchor="middle" x="1991" y="-306.7" font-family="Source Sans Pro" font-size="16.00">/RenderPass/IERenderPass.hpp</text>
</a>
</g>
</g>
<!-- Node12&#45;&gt;Node27 -->
<g id="edge34" class="edge">
<title>Node12&#45;&gt;Node27</title>
<path fill="none" stroke="midnightblue" d="M1810.61,-393.13C1841.51,-382.23 1875.63,-370.19 1905.8,-359.55"/>
<polygon fill="midnightblue" stroke="midnightblue" points="1809.39,-389.85 1801.13,-396.47 1811.72,-396.45 1809.39,-389.85"/>
</g>
<!-- Node14 -->
<g id="node14" class="node">
<title>Node14</title>
<g id="a_node14"><a xlink:href="_i_e_command_pool_8cpp.html" target="_top" xlink:title=" ">
<polygon fill="white" stroke="black" points="684,-81.5 684,-143.5 968,-143.5 968,-81.5 684,-81.5"/>
<text text-anchor="start" x="692" y="-126.7" font-family="Source Sans Pro" font-size="16.00">Illumination&#45;Engine</text>
<text text-anchor="start" x="692" y="-108.7" font-family="Source Sans Pro" font-size="16.00">/src/GraphicsModule</text>
<text text-anchor="middle" x="826" y="-90.7" font-family="Source Sans Pro" font-size="16.00">/CommandBuffer/IECommandPool.cpp</text>
</a>
</g>
</g>
<!-- Node13&#45;&gt;Node14 -->
<g id="edge16" class="edge">
<title>Node13&#45;&gt;Node14</title>
<path fill="none" stroke="midnightblue" d="M1678.85,-290.04C1637.18,-248.44 1573.49,-186.26 1559,-180 1440.06,-128.59 1105.48,-160.87 977,-144 974.08,-143.62 971.14,-143.21 968.17,-142.78"/>
<polygon fill="midnightblue" stroke="midnightblue" points="1676.56,-292.7 1686.1,-297.3 1681.51,-287.75 1676.56,-292.7"/>
</g>
<!-- Node15 -->
<g id="node15" class="node">
<title>Node15</title>
<g id="a_node15"><a xlink:href="_i_e_render_engine_8hpp.html" target="_top" xlink:title=" ">
<polygon fill="white" stroke="black" points="1659.5,-189.5 1659.5,-251.5 1820.5,-251.5 1820.5,-189.5 1659.5,-189.5"/>
<text text-anchor="start" x="1667.5" y="-234.7" font-family="Source Sans Pro" font-size="16.00">Illumination&#45;Engine</text>
<text text-anchor="start" x="1667.5" y="-216.7" font-family="Source Sans Pro" font-size="16.00">/src/GraphicsModule</text>
<text text-anchor="middle" x="1740" y="-198.7" font-family="Source Sans Pro" font-size="16.00">/IERenderEngine.hpp</text>
</a>
</g>
</g>
<!-- Node13&#45;&gt;Node15 -->
<g id="edge17" class="edge">
<title>Node13&#45;&gt;Node15</title>
<path fill="none" stroke="midnightblue" d="M1725.1,-287.31C1727.78,-275.48 1730.66,-262.75 1733.17,-251.67"/>
<polygon fill="midnightblue" stroke="midnightblue" points="1721.61,-286.88 1722.81,-297.41 1728.44,-288.43 1721.61,-286.88"/>
</g>
<!-- Node15&#45;&gt;Node5 -->
<g id="edge33" class="edge">
<title>Node15&#45;&gt;Node5</title>
<path fill="none" stroke="midnightblue" d="M1649.39,-199.54C1611.46,-192.03 1566.79,-184.28 1526,-180 1226.87,-148.61 469.18,-196.37 173,-144 170.05,-143.48 167.06,-142.88 164.06,-142.21"/>
<polygon fill="midnightblue" stroke="midnightblue" points="1648.9,-203.01 1659.39,-201.55 1650.27,-196.15 1648.9,-203.01"/>
</g>
<!-- Node15&#45;&gt;Node8 -->
<g id="edge23" class="edge">
<title>Node15&#45;&gt;Node8</title>
<path fill="none" stroke="midnightblue" d="M1821.2,-186.4C1829.48,-183.89 1837.84,-181.68 1846,-180 2163.73,-114.59 2256.43,-205.18 2575,-144 2578.05,-143.41 2581.13,-142.75 2584.23,-142.02"/>
<polygon fill="midnightblue" stroke="midnightblue" points="1820.01,-183.11 1811.54,-189.48 1822.13,-189.78 1820.01,-183.11"/>
</g>
<!-- Node15&#45;&gt;Node9 -->
<g id="edge30" class="edge">
<title>Node15&#45;&gt;Node9</title>
<path fill="none" stroke="midnightblue" d="M1820.47,-186.42C1828.98,-183.86 1837.6,-181.63 1846,-180 2135.58,-123.73 2880.77,-184.29 3173,-144 3175.79,-143.62 3178.61,-143.19 3181.45,-142.73"/>
<polygon fill="midnightblue" stroke="midnightblue" points="1819.4,-183.09 1810.92,-189.44 1821.51,-189.76 1819.4,-183.09"/>
</g>
<!-- Node15&#45;&gt;Node11 -->
<g id="edge19" class="edge">
<title>Node15&#45;&gt;Node11</title>
<path fill="none" stroke="midnightblue" d="M1649.42,-196.49C1620.69,-190.07 1588.68,-183.81 1559,-180 1168.99,-129.89 1065.53,-189.86 675,-144 671.99,-143.65 668.94,-143.27 665.88,-142.86"/>
<polygon fill="midnightblue" stroke="midnightblue" points="1648.91,-199.97 1659.43,-198.77 1650.46,-193.14 1648.91,-199.97"/>
</g>
<!-- Node15&#45;&gt;Node14 -->
<g id="edge20" class="edge">
<title>Node15&#45;&gt;Node14</title>
<path fill="none" stroke="midnightblue" d="M1649.7,-188.46C1637.48,-185.13 1625.01,-182.17 1613,-180 1334.41,-129.58 1257.81,-180.12 977,-144 974.08,-143.62 971.14,-143.23 968.17,-142.8"/>
<polygon fill="midnightblue" stroke="midnightblue" points="1648.86,-191.86 1659.44,-191.21 1650.76,-185.13 1648.86,-191.86"/>
</g>
<!-- Node16 -->
<g id="node16" class="node">
<title>Node16</title>
<g id="a_node16"><a xlink:href="_i_e_buffer_8cpp.html" target="_top" xlink:title=" ">
<polygon fill="white" stroke="black" points="1565.5,-81.5 1565.5,-143.5 1722.5,-143.5 1722.5,-81.5 1565.5,-81.5"/>
<text text-anchor="start" x="1573.5" y="-126.7" font-family="Source Sans Pro" font-size="16.00">Illumination&#45;Engine</text>
<text text-anchor="start" x="1573.5" y="-108.7" font-family="Source Sans Pro" font-size="16.00">/src/GraphicsModule</text>
<text text-anchor="middle" x="1644" y="-90.7" font-family="Source Sans Pro" font-size="16.00">/Buffer/IEBuffer.cpp</text>
</a>
</g>
</g>
<!-- Node15&#45;&gt;Node16 -->
<g id="edge18" class="edge">
<title>Node15&#45;&gt;Node16</title>
<path fill="none" stroke="midnightblue" d="M1705.86,-181.81C1694.53,-169.29 1682.07,-155.54 1671.32,-143.67"/>
<polygon fill="midnightblue" stroke="midnightblue" points="1703.44,-184.35 1712.75,-189.41 1708.63,-179.65 1703.44,-184.35"/>
</g>
<!-- Node17 -->
<g id="node17" class="node">
<title>Node17</title>
<g id="a_node17"><a xlink:href="_i_e_a_p_i_8cpp.html" target="_top" xlink:title=" ">
<polygon fill="white" stroke="black" points="1740.5,-81.5 1740.5,-143.5 1897.5,-143.5 1897.5,-81.5 1740.5,-81.5"/>
<text text-anchor="start" x="1748.5" y="-126.7" font-family="Source Sans Pro" font-size="16.00">Illumination&#45;Engine</text>
<text text-anchor="start" x="1748.5" y="-108.7" font-family="Source Sans Pro" font-size="16.00">/src/GraphicsModule</text>
<text text-anchor="middle" x="1819" y="-90.7" font-family="Source Sans Pro" font-size="16.00">/IEAPI.cpp</text>
</a>
</g>
</g>
<!-- Node15&#45;&gt;Node17 -->
<g id="edge21" class="edge">
<title>Node15&#45;&gt;Node17</title>
<path fill="none" stroke="midnightblue" d="M1768.62,-181.1C1777.8,-168.78 1787.84,-155.31 1796.52,-143.67"/>
<polygon fill="midnightblue" stroke="midnightblue" points="1765.6,-179.3 1762.43,-189.41 1771.21,-183.48 1765.6,-179.3"/>
</g>
<!-- Node18 -->
<g id="node18" class="node">
<title>Node18</title>
<g id="a_node18"><a xlink:href="_i_e_camera_8cpp.html" target="_top" xlink:title=" ">
<polygon fill="white" stroke="black" points="1915.5,-81.5 1915.5,-143.5 2072.5,-143.5 2072.5,-81.5 1915.5,-81.5"/>
<text text-anchor="start" x="1923.5" y="-126.7" font-family="Source Sans Pro" font-size="16.00">Illumination&#45;Engine</text>
<text text-anchor="start" x="1923.5" y="-108.7" font-family="Source Sans Pro" font-size="16.00">/src/GraphicsModule</text>
<text text-anchor="middle" x="1994" y="-90.7" font-family="Source Sans Pro" font-size="16.00">/IECamera.cpp</text>
</a>
</g>
</g>
<!-- Node15&#45;&gt;Node18 -->
<g id="edge22" class="edge">
<title>Node15&#45;&gt;Node18</title>
<path fill="none" stroke="midnightblue" d="M1821.51,-185.48C1853.73,-172.04 1890.46,-156.71 1921.71,-143.67"/>
<polygon fill="midnightblue" stroke="midnightblue" points="1819.99,-182.33 1812.11,-189.41 1822.68,-188.79 1819.99,-182.33"/>
</g>
<!-- Node19 -->
<g id="node19" class="node">
<title>Node19</title>
<g id="a_node19"><a xlink:href="_i_e_image_8cpp.html" target="_top" xlink:title=" ">
<polygon fill="white" stroke="black" points="986.5,-81.5 986.5,-143.5 1143.5,-143.5 1143.5,-81.5 986.5,-81.5"/>
<text text-anchor="start" x="994.5" y="-126.7" font-family="Source Sans Pro" font-size="16.00">Illumination&#45;Engine</text>
<text text-anchor="start" x="994.5" y="-108.7" font-family="Source Sans Pro" font-size="16.00">/src/GraphicsModule</text>
<text text-anchor="middle" x="1065" y="-90.7" font-family="Source Sans Pro" font-size="16.00">/Image/IEImage.cpp</text>
</a>
</g>
</g>
<!-- Node15&#45;&gt;Node19 -->
<g id="edge24" class="edge">
<title>Node15&#45;&gt;Node19</title>
<path fill="none" stroke="midnightblue" d="M1649.66,-188.71C1637.44,-185.34 1624.99,-182.3 1613,-180 1411.18,-141.24 1353.1,-186.35 1152,-144 1149.34,-143.44 1146.64,-142.82 1143.94,-142.15"/>
<polygon fill="midnightblue" stroke="midnightblue" points="1648.81,-192.11 1659.39,-191.47 1650.72,-185.37 1648.81,-192.11"/>
</g>
<!-- Node20 -->
<g id="node20" class="node">
<title>Node20</title>
<g id="a_node20"><a xlink:href="_i_e_texture_8cpp.html" target="_top" xlink:title=" ">
<polygon fill="white" stroke="black" points="1161.5,-81.5 1161.5,-143.5 1322.5,-143.5 1322.5,-81.5 1161.5,-81.5"/>
<text text-anchor="start" x="1169.5" y="-126.7" font-family="Source Sans Pro" font-size="16.00">Illumination&#45;Engine</text>
<text text-anchor="start" x="1169.5" y="-108.7" font-family="Source Sans Pro" font-size="16.00">/src/GraphicsModule</text>
<text text-anchor="middle" x="1242" y="-90.7" font-family="Source Sans Pro" font-size="16.00">/Image/IETexture.cpp</text>
</a>
</g>
</g>
<!-- Node15&#45;&gt;Node20 -->
<g id="edge25" class="edge">
<title>Node15&#45;&gt;Node20</title>
<path fill="none" stroke="midnightblue" d="M1649.54,-189.26C1637.35,-185.8 1624.93,-182.6 1613,-180 1489.54,-153.14 1454.06,-172.63 1331,-144 1328.3,-143.37 1325.56,-142.69 1322.8,-141.97"/>
<polygon fill="midnightblue" stroke="midnightblue" points="1648.68,-192.66 1659.26,-192.08 1650.63,-185.93 1648.68,-192.66"/>
</g>
<!-- Node21 -->
<g id="node21" class="node">
<title>Node21</title>
<g id="a_node21"><a xlink:href="_i_e_framebuffer_8cpp.html" target="_top" xlink:title=" ">
<polygon fill="white" stroke="black" points="2091,-81.5 2091,-143.5 2321,-143.5 2321,-81.5 2091,-81.5"/>
<text text-anchor="start" x="2099" y="-126.7" font-family="Source Sans Pro" font-size="16.00">Illumination&#45;Engine</text>
<text text-anchor="start" x="2099" y="-108.7" font-family="Source Sans Pro" font-size="16.00">/src/GraphicsModule</text>
<text text-anchor="middle" x="2206" y="-90.7" font-family="Source Sans Pro" font-size="16.00">/RenderPass/IEFramebuffer.cpp</text>
</a>
</g>
</g>
<!-- Node15&#45;&gt;Node21 -->
<g id="edge26" class="edge">
<title>Node15&#45;&gt;Node21</title>
<path fill="none" stroke="midnightblue" d="M1824.68,-186.21C1831.84,-183.93 1839.01,-181.82 1846,-180 1948.26,-153.41 1977.35,-164.54 2081,-144 2084.29,-143.35 2087.62,-142.67 2090.98,-141.97"/>
<polygon fill="midnightblue" stroke="midnightblue" points="1823.36,-182.96 1814.96,-189.42 1825.55,-189.61 1823.36,-182.96"/>
</g>
<!-- Node22 -->
<g id="node22" class="node">
<title>Node22</title>
<g id="a_node22"><a xlink:href="_i_e_render_pass_8cpp.html" target="_top" xlink:title=" ">
<polygon fill="white" stroke="black" points="2339.5,-81.5 2339.5,-143.5 2566.5,-143.5 2566.5,-81.5 2339.5,-81.5"/>
<text text-anchor="start" x="2347.5" y="-126.7" font-family="Source Sans Pro" font-size="16.00">Illumination&#45;Engine</text>
<text text-anchor="start" x="2347.5" y="-108.7" font-family="Source Sans Pro" font-size="16.00">/src/GraphicsModule</text>
<text text-anchor="middle" x="2453" y="-90.7" font-family="Source Sans Pro" font-size="16.00">/RenderPass/IERenderPass.cpp</text>
</a>
</g>
</g>
<!-- Node15&#45;&gt;Node22 -->
<g id="edge27" class="edge">
<title>Node15&#45;&gt;Node22</title>
<path fill="none" stroke="midnightblue" d="M1822.14,-186.34C1830.12,-183.89 1838.16,-181.72 1846,-180 2056.72,-133.88 2117,-178.08 2330,-144 2333.04,-143.51 2336.12,-142.99 2339.22,-142.43"/>
<polygon fill="midnightblue" stroke="midnightblue" points="1820.92,-183.05 1812.46,-189.44 1823.05,-189.72 1820.92,-183.05"/>
</g>
<!-- Node23 -->
<g id="node23" class="node">
<title>Node23</title>
<g id="a_node23"><a xlink:href="_i_e_material_8cpp.html" target="_top" xlink:title=" ">
<polygon fill="white" stroke="black" points="2962.5,-81.5 2962.5,-143.5 3163.5,-143.5 3163.5,-81.5 2962.5,-81.5"/>
<text text-anchor="start" x="2970.5" y="-126.7" font-family="Source Sans Pro" font-size="16.00">Illumination&#45;Engine</text>
<text text-anchor="start" x="2970.5" y="-108.7" font-family="Source Sans Pro" font-size="16.00">/src/GraphicsModule</text>
<text text-anchor="middle" x="3063" y="-90.7" font-family="Source Sans Pro" font-size="16.00">/Renderable/IEMaterial.cpp</text>
</a>
</g>
</g>
<!-- Node15&#45;&gt;Node23 -->
<g id="edge28" class="edge">
<title>Node15&#45;&gt;Node23</title>
<path fill="none" stroke="midnightblue" d="M1820.48,-186.47C1828.99,-183.89 1837.6,-181.66 1846,-180 2328.97,-84.81 2466.38,-218.29 2953,-144 2956.04,-143.54 2959.11,-143.02 2962.2,-142.45"/>
<polygon fill="midnightblue" stroke="midnightblue" points="1819.4,-183.14 1810.93,-189.5 1821.52,-189.81 1819.4,-183.14"/>
</g>
<!-- Node24 -->
<g id="node24" class="node">
<title>Node24</title>
<g id="a_node24"><a xlink:href="_i_e_mesh_8cpp.html" target="_top" xlink:title=" ">
<polygon fill="white" stroke="black" points="2761.5,-81.5 2761.5,-143.5 2944.5,-143.5 2944.5,-81.5 2761.5,-81.5"/>
<text text-anchor="start" x="2769.5" y="-126.7" font-family="Source Sans Pro" font-size="16.00">Illumination&#45;Engine</text>
<text text-anchor="start" x="2769.5" y="-108.7" font-family="Source Sans Pro" font-size="16.00">/src/GraphicsModule</text>
<text text-anchor="middle" x="2853" y="-90.7" font-family="Source Sans Pro" font-size="16.00">/Renderable/IEMesh.cpp</text>
</a>
</g>
</g>
<!-- Node15&#45;&gt;Node24 -->
<g id="edge29" class="edge">
<title>Node15&#45;&gt;Node24</title>
<path fill="none" stroke="midnightblue" d="M1820.98,-186.38C1829.32,-183.86 1837.77,-181.65 1846,-180 2241.09,-100.65 2354.59,-210.78 2752,-144 2755.07,-143.48 2758.18,-142.9 2761.31,-142.27"/>
<polygon fill="midnightblue" stroke="midnightblue" points="1819.7,-183.11 1811.23,-189.48 1821.82,-189.78 1819.7,-183.11"/>
</g>
<!-- Node25 -->
<g id="node25" class="node">
<title>Node25</title>
<g id="a_node25"><a xlink:href="_i_e_descriptor_set_8cpp.html" target="_top" xlink:title=" ">
<polygon fill="white" stroke="black" points="1340.5,-81.5 1340.5,-143.5 1547.5,-143.5 1547.5,-81.5 1340.5,-81.5"/>
<text text-anchor="start" x="1348.5" y="-126.7" font-family="Source Sans Pro" font-size="16.00">Illumination&#45;Engine</text>
<text text-anchor="start" x="1348.5" y="-108.7" font-family="Source Sans Pro" font-size="16.00">/src/GraphicsModule</text>
<text text-anchor="middle" x="1444" y="-90.7" font-family="Source Sans Pro" font-size="16.00">/Shader/IEDescriptorSet.cpp</text>
</a>
</g>
</g>
<!-- Node15&#45;&gt;Node25 -->
<g id="edge31" class="edge">
<title>Node15&#45;&gt;Node25</title>
<path fill="none" stroke="midnightblue" d="M1649.42,-187.06C1610.72,-173.2 1565.82,-157.12 1527.88,-143.54"/>
<polygon fill="midnightblue" stroke="midnightblue" points="1648.52,-190.46 1659.12,-190.54 1650.88,-183.87 1648.52,-190.46"/>
</g>
<!-- Node15&#45;&gt;Node26 -->
<g id="edge32" class="edge">
<title>Node15&#45;&gt;Node26</title>
<path fill="none" stroke="midnightblue" d="M1649.38,-199.63C1611.45,-192.13 1566.78,-184.37 1526,-180 1268.9,-152.45 617.81,-187.95 363,-144 360.1,-143.5 357.16,-142.93 354.21,-142.31"/>
<polygon fill="midnightblue" stroke="midnightblue" points="1648.89,-203.1 1659.38,-201.63 1650.26,-196.24 1648.89,-203.1"/>
</g>
<!-- Node27&#45;&gt;Node15 -->
<g id="edge37" class="edge">
<title>Node27&#45;&gt;Node15</title>
<path fill="none" stroke="midnightblue" d="M1910.45,-293.48C1878.61,-280.04 1842.32,-264.71 1811.43,-251.67"/>
<polygon fill="midnightblue" stroke="midnightblue" points="1909.17,-296.74 1919.74,-297.41 1911.89,-290.29 1909.17,-296.74"/>
</g>
<!-- Node27&#45;&gt;Node21 -->
<g id="edge38" class="edge">
<title>Node27&#45;&gt;Node21</title>
<path fill="none" stroke="midnightblue" d="M2091.33,-292.79C2107.55,-284.15 2123.19,-273.64 2136,-261 2169.29,-228.15 2188.74,-176.37 2198.37,-143.71"/>
<polygon fill="midnightblue" stroke="midnightblue" points="2089.6,-289.74 2082.28,-297.4 2092.78,-295.98 2089.6,-289.74"/>
</g>
<!-- Node27&#45;&gt;Node22 -->
<g id="edge39" class="edge">
<title>Node27&#45;&gt;Node22</title>
<path fill="none" stroke="midnightblue" d="M2091.88,-293.94C2119.16,-284.08 2148.47,-272.76 2175,-261 2256.29,-224.96 2346.58,-175.13 2401.57,-143.61"/>
<polygon fill="midnightblue" stroke="midnightblue" points="2090.55,-290.69 2082.32,-297.36 2092.91,-297.28 2090.55,-290.69"/>
</g>
<!-- Node28 -->
<g id="node28" class="node">
<title>Node28</title>
<g id="a_node28"><a xlink:href="_i_e_render_pass_begin_info_8cpp.html" target="_top" xlink:title=" ">
<polygon fill="white" stroke="black" points="1855,-180.5 1855,-260.5 2127,-260.5 2127,-180.5 1855,-180.5"/>
<text text-anchor="start" x="1863" y="-243.7" font-family="Source Sans Pro" font-size="16.00">Illumination&#45;Engine</text>
<text text-anchor="start" x="1863" y="-225.7" font-family="Source Sans Pro" font-size="16.00">/src/GraphicsModule</text>
<text text-anchor="start" x="1863" y="-207.7" font-family="Source Sans Pro" font-size="16.00">/CommandBuffer/DependencyStructs</text>
<text text-anchor="middle" x="1991" y="-189.7" font-family="Source Sans Pro" font-size="16.00">/IERenderPassBeginInfo.cpp</text>
</a>
</g>
</g>
<!-- Node27&#45;&gt;Node28 -->
<g id="edge35" class="edge">
<title>Node27&#45;&gt;Node28</title>
<path fill="none" stroke="midnightblue" d="M1991,-287.16C1991,-278.52 1991,-269.39 1991,-260.79"/>
<polygon fill="midnightblue" stroke="midnightblue" points="1987.5,-287.41 1991,-297.41 1994.5,-287.41 1987.5,-287.41"/>
</g>
<!-- Node27&#45;&gt;Node29 -->
<g id="edge36" class="edge">
<title>Node27&#45;&gt;Node29</title>
<path fill="none" stroke="midnightblue" d="M1867.31,-297.06C1867.2,-297.04 1867.1,-297.02 1867,-297 1801.99,-283.95 1636.41,-258.7 1517.24,-241.01"/>
<polygon fill="midnightblue" stroke="midnightblue" points="1866.39,-300.45 1876.9,-299.04 1867.81,-293.59 1866.39,-300.45"/>
</g>
<!-- Node30&#45;&gt;Node7 -->
<g id="edge45" class="edge">
<title>Node30&#45;&gt;Node7</title>
<path fill="none" stroke="midnightblue" d="M2790.49,-292.44C2766.97,-279.25 2740.45,-264.38 2717.79,-251.67"/>
<polygon fill="midnightblue" stroke="midnightblue" points="2788.91,-295.57 2799.35,-297.41 2792.34,-289.46 2788.91,-295.57"/>
</g>
<!-- Node30&#45;&gt;Node9 -->
<g id="edge44" class="edge">
<title>Node30&#45;&gt;Node9</title>
<path fill="none" stroke="midnightblue" d="M2924.35,-292.88C3009.69,-251.47 3151.13,-182.83 3232.07,-143.55"/>
<polygon fill="midnightblue" stroke="midnightblue" points="2922.72,-289.78 2915.25,-297.29 2925.77,-296.08 2922.72,-289.78"/>
</g>
<!-- Node30&#45;&gt;Node23 -->
<g id="edge42" class="edge">
<title>Node30&#45;&gt;Node23</title>
<path fill="none" stroke="midnightblue" d="M2889.73,-290.07C2930.6,-248.42 2995.83,-181.95 3033.51,-143.55"/>
<polygon fill="midnightblue" stroke="midnightblue" points="2887.15,-287.7 2882.64,-297.29 2892.14,-292.61 2887.15,-287.7"/>
</g>
<!-- Node30&#45;&gt;Node24 -->
<g id="edge43" class="edge">
<title>Node30&#45;&gt;Node24</title>
<path fill="none" stroke="midnightblue" d="M2853,-287.19C2853,-245.41 2853,-181.08 2853,-143.55"/>
<polygon fill="midnightblue" stroke="midnightblue" points="2849.5,-287.29 2853,-297.29 2856.5,-287.29 2849.5,-287.29"/>
</g>
</g>
</svg>
