<?xml version="1.0" encoding="UTF-8" standalone="no"?>
<!DOCTYPE svg PUBLIC "-//W3C//DTD SVG 1.1//EN"
 "http://www.w3.org/Graphics/SVG/1.1/DTD/svg11.dtd">
<!-- Generated by graphviz version 2.43.0 (0)
 -->
<!-- Title: Illumination&#45;Engine/src/InputModule/IEKeyboard.hpp Pages: 1 -->
<svg width="256pt" height="134pt"
 viewBox="0.00 0.00 256.00 134.00" xmlns="http://www.w3.org/2000/svg" xmlns:xlink="http://www.w3.org/1999/xlink">
<g id="graph0" class="graph" transform="scale(1 1) rotate(0) translate(4 130)">
<title>Illumination&#45;Engine/src/InputModule/IEKeyboard.hpp</title>
<polygon fill="white" stroke="transparent" points="-4,4 -4,-130 252,-130 252,4 -4,4"/>
<!-- Node1 -->
<g id="node1" class="node">
<title>Node1</title>
<g id="a_node1"><a xlink:title=" ">
<polygon fill="#bfbfbf" stroke="black" points="0,-81.5 0,-125.5 248,-125.5 248,-81.5 0,-81.5"/>
<text text-anchor="start" x="8" y="-108.7" font-family="Source Sans Pro" font-size="16.00">Illumination&#45;Engine</text>
<text text-anchor="middle" x="124" y="-90.7" font-family="Source Sans Pro" font-size="16.00">/src/InputModule/IEKeyboard.hpp</text>
</a>
</g>
</g>
<!-- Node2 -->
<g id="node2" class="node">
<title>Node2</title>
<g id="a_node2"><a xlink:href="main_8cpp.html" target="_top" xlink:title=" ">
<polygon fill="white" stroke="black" points="49,-0.5 49,-44.5 199,-44.5 199,-0.5 49,-0.5"/>
<text text-anchor="start" x="57" y="-27.7" font-family="Source Sans Pro" font-size="16.00">Illumination&#45;Engine</text>
<text text-anchor="middle" x="124" y="-9.7" font-family="Source Sans Pro" font-size="16.00">/src/main.cpp</text>
</a>
</g>
</g>
<!-- Node1&#45;&gt;Node2 -->
<g id="edge1" class="edge">
<title>Node1&#45;&gt;Node2</title>
<path fill="none" stroke="midnightblue" d="M124,-71.27C124,-62.37 124,-52.88 124,-44.73"/>
<polygon fill="midnightblue" stroke="midnightblue" points="120.5,-71.33 124,-81.33 127.5,-71.33 120.5,-71.33"/>
</g>
</g>
</svg>
