<?xml version="1.0" encoding="UTF-8" standalone="no"?>
<!DOCTYPE svg PUBLIC "-//W3C//DTD SVG 1.1//EN"
 "http://www.w3.org/Graphics/SVG/1.1/DTD/svg11.dtd">
<!-- Generated by graphviz version 2.43.0 (0)
 -->
<!-- Title: Illumination&#45;Engine/src/InputModule/IEKeyboard.hpp Pages: 1 -->
<svg width="811pt" height="116pt"
 viewBox="0.00 0.00 811.00 116.00" xmlns="http://www.w3.org/2000/svg" xmlns:xlink="http://www.w3.org/1999/xlink">
<g id="graph0" class="graph" transform="scale(1 1) rotate(0) translate(4 112)">
<title>Illumination&#45;Engine/src/InputModule/IEKeyboard.hpp</title>
<polygon fill="white" stroke="transparent" points="-4,4 -4,-112 807,-112 807,4 -4,4"/>
<!-- Node1 -->
<g id="node1" class="node">
<title>Node1</title>
<g id="a_node1"><a xlink:title=" ">
<polygon fill="#bfbfbf" stroke="black" points="271.5,-63.5 271.5,-107.5 519.5,-107.5 519.5,-63.5 271.5,-63.5"/>
<text text-anchor="start" x="279.5" y="-90.7" font-family="Source Sans Pro" font-size="16.00">Illumination&#45;Engine</text>
<text text-anchor="middle" x="395.5" y="-72.7" font-family="Source Sans Pro" font-size="16.00">/src/InputModule/IEKeyboard.hpp</text>
</a>
</g>
</g>
<!-- Node2 -->
<g id="node2" class="node">
<title>Node2</title>
<g id="a_node2"><a xlink:title=" ">
<polygon fill="white" stroke="#bfbfbf" points="0,-0.5 0,-26.5 83,-26.5 83,-0.5 0,-0.5"/>
<text text-anchor="middle" x="41.5" y="-9.7" font-family="Source Sans Pro" font-size="16.00">GL/glew.h</text>
</a>
</g>
</g>
<!-- Node1&#45;&gt;Node2 -->
<g id="edge1" class="edge">
<title>Node1&#45;&gt;Node2</title>
<path fill="none" stroke="midnightblue" d="M276.85,-63.48C223.43,-53.66 159.39,-41.37 93.02,-27.04"/>
<polygon fill="midnightblue" stroke="midnightblue" points="93.72,-23.61 83.21,-24.91 92.24,-30.45 93.72,-23.61"/>
</g>
<!-- Node3 -->
<g id="node3" class="node">
<title>Node3</title>
<g id="a_node3"><a xlink:title=" ">
<polygon fill="white" stroke="#bfbfbf" points="101.5,-0.5 101.5,-26.5 209.5,-26.5 209.5,-0.5 101.5,-0.5"/>
<text text-anchor="middle" x="155.5" y="-9.7" font-family="Source Sans Pro" font-size="16.00">GLFW/glfw3.h</text>
</a>
</g>
</g>
<!-- Node1&#45;&gt;Node3 -->
<g id="edge2" class="edge">
<title>Node1&#45;&gt;Node3</title>
<path fill="none" stroke="midnightblue" d="M323.49,-63.5C285.79,-52.5 240.52,-39.3 206.48,-29.37"/>
<polygon fill="midnightblue" stroke="midnightblue" points="207.33,-25.97 196.75,-26.53 205.37,-32.69 207.33,-25.97"/>
</g>
<!-- Node4 -->
<g id="node4" class="node">
<title>Node4</title>
<g id="a_node4"><a xlink:title=" ">
<polygon fill="white" stroke="#bfbfbf" points="227.5,-0.5 227.5,-26.5 313.5,-26.5 313.5,-0.5 227.5,-0.5"/>
<text text-anchor="middle" x="270.5" y="-9.7" font-family="Source Sans Pro" font-size="16.00">functional</text>
</a>
</g>
</g>
<!-- Node1&#45;&gt;Node4 -->
<g id="edge3" class="edge">
<title>Node1&#45;&gt;Node4</title>
<path fill="none" stroke="midnightblue" d="M358,-63.5C339.79,-53.3 318.2,-41.21 301.02,-31.59"/>
<polygon fill="midnightblue" stroke="midnightblue" points="302.42,-28.36 291.98,-26.53 299,-34.47 302.42,-28.36"/>
</g>
<!-- Node5 -->
<g id="node5" class="node">
<title>Node5</title>
<g id="a_node5"><a xlink:title=" ">
<polygon fill="white" stroke="#bfbfbf" points="332,-0.5 332,-26.5 391,-26.5 391,-0.5 332,-0.5"/>
<text text-anchor="middle" x="361.5" y="-9.7" font-family="Source Sans Pro" font-size="16.00">vector</text>
</a>
</g>
</g>
<!-- Node1&#45;&gt;Node5 -->
<g id="edge4" class="edge">
<title>Node1&#45;&gt;Node5</title>
<path fill="none" stroke="midnightblue" d="M385.3,-63.5C381.04,-54.72 376.09,-44.54 371.81,-35.73"/>
<polygon fill="midnightblue" stroke="midnightblue" points="374.86,-34 367.34,-26.53 368.56,-37.06 374.86,-34"/>
</g>
<!-- Node6 -->
<g id="node6" class="node">
<title>Node6</title>
<g id="a_node6"><a xlink:title=" ">
<polygon fill="white" stroke="#bfbfbf" points="409,-0.5 409,-26.5 450,-26.5 450,-0.5 409,-0.5"/>
<text text-anchor="middle" x="429.5" y="-9.7" font-family="Source Sans Pro" font-size="16.00">any</text>
</a>
</g>
</g>
<!-- Node1&#45;&gt;Node6 -->
<g id="edge5" class="edge">
<title>Node1&#45;&gt;Node6</title>
<path fill="none" stroke="midnightblue" d="M405.7,-63.5C409.96,-54.72 414.91,-44.54 419.19,-35.73"/>
<polygon fill="midnightblue" stroke="midnightblue" points="422.44,-37.06 423.66,-26.53 416.14,-34 422.44,-37.06"/>
</g>
<!-- Node7 -->
<g id="node7" class="node">
<title>Node7</title>
<g id="a_node7"><a xlink:title=" ">
<polygon fill="white" stroke="#bfbfbf" points="468,-0.5 468,-26.5 523,-26.5 523,-0.5 468,-0.5"/>
<text text-anchor="middle" x="495.5" y="-9.7" font-family="Source Sans Pro" font-size="16.00">string</text>
</a>
</g>
</g>
<!-- Node1&#45;&gt;Node7 -->
<g id="edge6" class="edge">
<title>Node1&#45;&gt;Node7</title>
<path fill="none" stroke="midnightblue" d="M425.5,-63.5C439.66,-53.59 456.38,-41.88 469.93,-32.4"/>
<polygon fill="midnightblue" stroke="midnightblue" points="472.13,-35.13 478.31,-26.53 468.11,-29.4 472.13,-35.13"/>
</g>
<!-- Node8 -->
<g id="node8" class="node">
<title>Node8</title>
<g id="a_node8"><a xlink:title=" ">
<polygon fill="white" stroke="#bfbfbf" points="541,-0.5 541,-26.5 604,-26.5 604,-0.5 541,-0.5"/>
<text text-anchor="middle" x="572.5" y="-9.7" font-family="Source Sans Pro" font-size="16.00">cstdint</text>
</a>
</g>
</g>
<!-- Node1&#45;&gt;Node8 -->
<g id="edge7" class="edge">
<title>Node1&#45;&gt;Node8</title>
<path fill="none" stroke="midnightblue" d="M448.61,-63.5C475.57,-52.83 507.79,-40.09 532.61,-30.27"/>
<polygon fill="midnightblue" stroke="midnightblue" points="534.07,-33.46 542.08,-26.53 531.49,-26.95 534.07,-33.46"/>
</g>
<!-- Node9 -->
<g id="node9" class="node">
<title>Node9</title>
<g id="a_node9"><a xlink:href="_i_e_window_user_8hpp.html" target="_top" xlink:title=" ">
<polygon fill="white" stroke="black" points="622,-0.5 622,-26.5 803,-26.5 803,-0.5 622,-0.5"/>
<text text-anchor="middle" x="712.5" y="-9.7" font-family="Source Sans Pro" font-size="16.00">Core/IEWindowUser.hpp</text>
</a>
</g>
</g>
<!-- Node1&#45;&gt;Node9 -->
<g id="edge8" class="edge">
<title>Node1&#45;&gt;Node9</title>
<path fill="none" stroke="midnightblue" d="M490.61,-63.5C541.48,-52.27 602.77,-38.73 648.03,-28.74"/>
<polygon fill="midnightblue" stroke="midnightblue" points="649.01,-32.1 658.02,-26.53 647.5,-25.27 649.01,-32.1"/>
</g>
</g>
</svg>
