<?xml version="1.0" encoding="UTF-8" standalone="no"?>
<!DOCTYPE svg PUBLIC "-//W3C//DTD SVG 1.1//EN"
 "http://www.w3.org/Graphics/SVG/1.1/DTD/svg11.dtd">
<!-- Generated by graphviz version 2.43.0 (0)
 -->
<!-- Title: Illumination&#45;Engine/src/GraphicsModule/CommandBuffer/IEDependent.hpp Pages: 1 -->
<svg width="3582pt" height="485pt"
 viewBox="0.00 0.00 3582.00 485.00" xmlns="http://www.w3.org/2000/svg" xmlns:xlink="http://www.w3.org/1999/xlink">
<g id="graph0" class="graph" transform="scale(1 1) rotate(0) translate(4 481)">
<title>Illumination&#45;Engine/src/GraphicsModule/CommandBuffer/IEDependent.hpp</title>
<polygon fill="white" stroke="transparent" points="-4,4 -4,-481 3578,-481 3578,4 -4,4"/>
<!-- Node1 -->
<g id="node1" class="node">
<title>Node1</title>
<g id="a_node1"><a xlink:title=" ">
<polygon fill="#bfbfbf" stroke="black" points="2016,-414.5 2016,-476.5 2275,-476.5 2275,-414.5 2016,-414.5"/>
<text text-anchor="start" x="2024" y="-459.7" font-family="Source Sans Pro" font-size="16.00">Illumination&#45;Engine</text>
<text text-anchor="start" x="2024" y="-441.7" font-family="Source Sans Pro" font-size="16.00">/src/GraphicsModule</text>
<text text-anchor="middle" x="2145.5" y="-423.7" font-family="Source Sans Pro" font-size="16.00">/CommandBuffer/IEDependent.hpp</text>
</a>
</g>
</g>
<!-- Node2 -->
<g id="node2" class="node">
<title>Node2</title>
<g id="a_node2"><a xlink:href="_i_e_command_buffer_8hpp.html" target="_top" xlink:title=" ">
<polygon fill="white" stroke="black" points="1702,-315.5 1702,-377.5 1997,-377.5 1997,-315.5 1702,-315.5"/>
<text text-anchor="start" x="1710" y="-360.7" font-family="Source Sans Pro" font-size="16.00">Illumination&#45;Engine</text>
<text text-anchor="start" x="1710" y="-342.7" font-family="Source Sans Pro" font-size="16.00">/src/GraphicsModule</text>
<text text-anchor="middle" x="1849.5" y="-324.7" font-family="Source Sans Pro" font-size="16.00">/CommandBuffer/IECommandBuffer.hpp</text>
</a>
</g>
</g>
<!-- Node1&#45;&gt;Node2 -->
<g id="edge1" class="edge">
<title>Node1&#45;&gt;Node2</title>
<path fill="none" stroke="midnightblue" d="M2044.1,-411.27C2010.72,-400.33 1973.82,-388.24 1941.21,-377.55"/>
<polygon fill="midnightblue" stroke="midnightblue" points="2043.28,-414.68 2053.87,-414.47 2045.46,-408.03 2043.28,-414.68"/>
</g>
<!-- Node24 -->
<g id="node24" class="node">
<title>Node24</title>
<g id="a_node24"><a xlink:href="_i_e_dependency_8cpp.html" target="_top" xlink:title=" ">
<polygon fill="white" stroke="black" points="2244.5,-108.5 2244.5,-170.5 2510.5,-170.5 2510.5,-108.5 2244.5,-108.5"/>
<text text-anchor="start" x="2252.5" y="-153.7" font-family="Source Sans Pro" font-size="16.00">Illumination&#45;Engine</text>
<text text-anchor="start" x="2252.5" y="-135.7" font-family="Source Sans Pro" font-size="16.00">/src/GraphicsModule</text>
<text text-anchor="middle" x="2377.5" y="-117.7" font-family="Source Sans Pro" font-size="16.00">/CommandBuffer/IEDependency.cpp</text>
</a>
</g>
</g>
<!-- Node1&#45;&gt;Node24 -->
<g id="edge29" class="edge">
<title>Node1&#45;&gt;Node24</title>
<path fill="none" stroke="midnightblue" d="M2144.06,-404.03C2144.81,-377.19 2149.18,-342.06 2164.5,-315 2200.88,-250.72 2270.93,-200.47 2320.76,-170.73"/>
<polygon fill="midnightblue" stroke="midnightblue" points="2140.56,-404.2 2143.94,-414.25 2147.56,-404.29 2140.56,-404.2"/>
</g>
<!-- Node25 -->
<g id="node25" class="node">
<title>Node25</title>
<g id="a_node25"><a xlink:href="_i_e_dependent_8cpp.html" target="_top" xlink:title=" ">
<polygon fill="white" stroke="black" points="2174,-315.5 2174,-377.5 2431,-377.5 2431,-315.5 2174,-315.5"/>
<text text-anchor="start" x="2182" y="-360.7" font-family="Source Sans Pro" font-size="16.00">Illumination&#45;Engine</text>
<text text-anchor="start" x="2182" y="-342.7" font-family="Source Sans Pro" font-size="16.00">/src/GraphicsModule</text>
<text text-anchor="middle" x="2302.5" y="-324.7" font-family="Source Sans Pro" font-size="16.00">/CommandBuffer/IEDependent.cpp</text>
</a>
</g>
</g>
<!-- Node1&#45;&gt;Node25 -->
<g id="edge30" class="edge">
<title>Node1&#45;&gt;Node25</title>
<path fill="none" stroke="midnightblue" d="M2202.89,-409.04C2219.57,-398.74 2237.62,-387.58 2253.72,-377.64"/>
<polygon fill="midnightblue" stroke="midnightblue" points="2200.98,-406.11 2194.32,-414.34 2204.66,-412.06 2200.98,-406.11"/>
</g>
<!-- Node3 -->
<g id="node3" class="node">
<title>Node3</title>
<g id="a_node3"><a xlink:href="_i_e_command_buffer_8cpp.html" target="_top" xlink:title=" ">
<polygon fill="white" stroke="black" points="0,-0.5 0,-62.5 293,-62.5 293,-0.5 0,-0.5"/>
<text text-anchor="start" x="8" y="-45.7" font-family="Source Sans Pro" font-size="16.00">Illumination&#45;Engine</text>
<text text-anchor="start" x="8" y="-27.7" font-family="Source Sans Pro" font-size="16.00">/src/GraphicsModule</text>
<text text-anchor="middle" x="146.5" y="-9.7" font-family="Source Sans Pro" font-size="16.00">/CommandBuffer/IECommandBuffer.cpp</text>
</a>
</g>
</g>
<!-- Node2&#45;&gt;Node3 -->
<g id="edge2" class="edge">
<title>Node2&#45;&gt;Node3</title>
<path fill="none" stroke="midnightblue" d="M1691.71,-322.35C1491.41,-292.38 1135.44,-237.18 832.5,-180 638.13,-143.31 414.34,-93.82 276.66,-62.53"/>
<polygon fill="midnightblue" stroke="midnightblue" points="1691.32,-325.83 1701.72,-323.84 1692.35,-318.9 1691.32,-325.83"/>
</g>
<!-- Node4 -->
<g id="node4" class="node">
<title>Node4</title>
<g id="a_node4"><a xlink:href="_i_e_command_pool_8hpp.html" target="_top" xlink:title=" ">
<polygon fill="white" stroke="black" points="1509,-216.5 1509,-278.5 1794,-278.5 1794,-216.5 1509,-216.5"/>
<text text-anchor="start" x="1517" y="-261.7" font-family="Source Sans Pro" font-size="16.00">Illumination&#45;Engine</text>
<text text-anchor="start" x="1517" y="-243.7" font-family="Source Sans Pro" font-size="16.00">/src/GraphicsModule</text>
<text text-anchor="middle" x="1651.5" y="-225.7" font-family="Source Sans Pro" font-size="16.00">/CommandBuffer/IECommandPool.hpp</text>
</a>
</g>
</g>
<!-- Node2&#45;&gt;Node4 -->
<g id="edge3" class="edge">
<title>Node2&#45;&gt;Node4</title>
<path fill="none" stroke="midnightblue" d="M1779.07,-311C1757.44,-300.4 1733.82,-288.83 1712.84,-278.55"/>
<polygon fill="midnightblue" stroke="midnightblue" points="1777.69,-314.22 1788.21,-315.47 1780.77,-307.93 1777.69,-314.22"/>
</g>
<!-- Node22 -->
<g id="node22" class="node">
<title>Node22</title>
<g id="a_node22"><a xlink:href="_i_e_render_pass_8hpp.html" target="_top" xlink:title=" ">
<polygon fill="white" stroke="black" points="1812.5,-216.5 1812.5,-278.5 2040.5,-278.5 2040.5,-216.5 1812.5,-216.5"/>
<text text-anchor="start" x="1820.5" y="-261.7" font-family="Source Sans Pro" font-size="16.00">Illumination&#45;Engine</text>
<text text-anchor="start" x="1820.5" y="-243.7" font-family="Source Sans Pro" font-size="16.00">/src/GraphicsModule</text>
<text text-anchor="middle" x="1926.5" y="-225.7" font-family="Source Sans Pro" font-size="16.00">/RenderPass/IERenderPass.hpp</text>
</a>
</g>
</g>
<!-- Node2&#45;&gt;Node22 -->
<g id="edge23" class="edge">
<title>Node2&#45;&gt;Node22</title>
<path fill="none" stroke="midnightblue" d="M1879.69,-307.47C1887.28,-297.9 1895.33,-287.76 1902.57,-278.64"/>
<polygon fill="midnightblue" stroke="midnightblue" points="1876.92,-305.33 1873.44,-315.34 1882.4,-309.68 1876.92,-305.33"/>
</g>
<!-- Node5 -->
<g id="node5" class="node">
<title>Node5</title>
<g id="a_node5"><a xlink:href="_i_e_command_pool_8cpp.html" target="_top" xlink:title=" ">
<polygon fill="white" stroke="black" points="311.5,-0.5 311.5,-62.5 595.5,-62.5 595.5,-0.5 311.5,-0.5"/>
<text text-anchor="start" x="319.5" y="-45.7" font-family="Source Sans Pro" font-size="16.00">Illumination&#45;Engine</text>
<text text-anchor="start" x="319.5" y="-27.7" font-family="Source Sans Pro" font-size="16.00">/src/GraphicsModule</text>
<text text-anchor="middle" x="453.5" y="-9.7" font-family="Source Sans Pro" font-size="16.00">/CommandBuffer/IECommandPool.cpp</text>
</a>
</g>
</g>
<!-- Node4&#45;&gt;Node5 -->
<g id="edge4" class="edge">
<title>Node4&#45;&gt;Node5</title>
<path fill="none" stroke="midnightblue" d="M1498.71,-217.96C1334.33,-187.5 1065.17,-138.32 832.5,-99 731.35,-81.91 705.47,-81.16 604.5,-63 601.6,-62.48 598.68,-61.95 595.73,-61.4"/>
<polygon fill="midnightblue" stroke="midnightblue" points="1498.42,-221.47 1508.89,-219.85 1499.7,-214.59 1498.42,-221.47"/>
</g>
<!-- Node6 -->
<g id="node6" class="node">
<title>Node6</title>
<g id="a_node6"><a xlink:href="_i_e_render_engine_8hpp.html" target="_top" xlink:title=" ">
<polygon fill="white" stroke="black" points="1690,-108.5 1690,-170.5 1851,-170.5 1851,-108.5 1690,-108.5"/>
<text text-anchor="start" x="1698" y="-153.7" font-family="Source Sans Pro" font-size="16.00">Illumination&#45;Engine</text>
<text text-anchor="start" x="1698" y="-135.7" font-family="Source Sans Pro" font-size="16.00">/src/GraphicsModule</text>
<text text-anchor="middle" x="1770.5" y="-117.7" font-family="Source Sans Pro" font-size="16.00">/IERenderEngine.hpp</text>
</a>
</g>
</g>
<!-- Node4&#45;&gt;Node6 -->
<g id="edge5" class="edge">
<title>Node4&#45;&gt;Node6</title>
<path fill="none" stroke="midnightblue" d="M1693.02,-209.51C1707.28,-196.81 1723.06,-182.76 1736.63,-170.67"/>
<polygon fill="midnightblue" stroke="midnightblue" points="1690.42,-207.14 1685.28,-216.41 1695.08,-212.37 1690.42,-207.14"/>
</g>
<!-- Node6&#45;&gt;Node3 -->
<g id="edge7" class="edge">
<title>Node6&#45;&gt;Node3</title>
<path fill="none" stroke="midnightblue" d="M1679.36,-134.57C1380.03,-121.54 438.54,-79.71 302.5,-63 299.49,-62.63 296.45,-62.24 293.38,-61.82"/>
<polygon fill="midnightblue" stroke="midnightblue" points="1679.59,-138.08 1689.73,-135.02 1679.89,-131.09 1679.59,-138.08"/>
</g>
<!-- Node6&#45;&gt;Node5 -->
<g id="edge8" class="edge">
<title>Node6&#45;&gt;Node5</title>
<path fill="none" stroke="midnightblue" d="M1679.57,-130.68C1579.04,-122.18 1412.29,-108.55 1268.5,-99 973.61,-79.41 897.67,-100.36 604.5,-63 601.58,-62.63 598.64,-62.23 595.67,-61.81"/>
<polygon fill="midnightblue" stroke="midnightblue" points="1679.43,-134.18 1689.69,-131.53 1680.02,-127.2 1679.43,-134.18"/>
</g>
<!-- Node7 -->
<g id="node7" class="node">
<title>Node7</title>
<g id="a_node7"><a xlink:href="_i_e_buffer_8cpp.html" target="_top" xlink:title=" ">
<polygon fill="white" stroke="black" points="614,-0.5 614,-62.5 771,-62.5 771,-0.5 614,-0.5"/>
<text text-anchor="start" x="622" y="-45.7" font-family="Source Sans Pro" font-size="16.00">Illumination&#45;Engine</text>
<text text-anchor="start" x="622" y="-27.7" font-family="Source Sans Pro" font-size="16.00">/src/GraphicsModule</text>
<text text-anchor="middle" x="692.5" y="-9.7" font-family="Source Sans Pro" font-size="16.00">/Buffer/IEBuffer.cpp</text>
</a>
</g>
</g>
<!-- Node6&#45;&gt;Node7 -->
<g id="edge6" class="edge">
<title>Node6&#45;&gt;Node7</title>
<path fill="none" stroke="midnightblue" d="M1679.53,-131.2C1578.97,-123.17 1412.19,-109.94 1268.5,-99 1051.21,-82.45 992.84,-107.43 779.5,-63 776.84,-62.45 774.14,-61.83 771.43,-61.16"/>
<polygon fill="midnightblue" stroke="midnightblue" points="1679.4,-134.7 1689.65,-132.01 1679.96,-127.73 1679.4,-134.7"/>
</g>
<!-- Node8 -->
<g id="node8" class="node">
<title>Node8</title>
<g id="a_node8"><a xlink:href="_i_e_a_p_i_8cpp.html" target="_top" xlink:title=" ">
<polygon fill="white" stroke="black" points="789,-0.5 789,-62.5 946,-62.5 946,-0.5 789,-0.5"/>
<text text-anchor="start" x="797" y="-45.7" font-family="Source Sans Pro" font-size="16.00">Illumination&#45;Engine</text>
<text text-anchor="start" x="797" y="-27.7" font-family="Source Sans Pro" font-size="16.00">/src/GraphicsModule</text>
<text text-anchor="middle" x="867.5" y="-9.7" font-family="Source Sans Pro" font-size="16.00">/IEAPI.cpp</text>
</a>
</g>
</g>
<!-- Node6&#45;&gt;Node8 -->
<g id="edge9" class="edge">
<title>Node6&#45;&gt;Node8</title>
<path fill="none" stroke="midnightblue" d="M1679.76,-131.37C1481.93,-115.63 1023.92,-78.14 954.5,-63 951.84,-62.42 949.15,-61.78 946.45,-61.1"/>
<polygon fill="midnightblue" stroke="midnightblue" points="1679.59,-134.86 1689.84,-132.17 1680.14,-127.89 1679.59,-134.86"/>
</g>
<!-- Node9 -->
<g id="node9" class="node">
<title>Node9</title>
<g id="a_node9"><a xlink:href="_i_e_camera_8cpp.html" target="_top" xlink:title=" ">
<polygon fill="white" stroke="black" points="964,-0.5 964,-62.5 1121,-62.5 1121,-0.5 964,-0.5"/>
<text text-anchor="start" x="972" y="-45.7" font-family="Source Sans Pro" font-size="16.00">Illumination&#45;Engine</text>
<text text-anchor="start" x="972" y="-27.7" font-family="Source Sans Pro" font-size="16.00">/src/GraphicsModule</text>
<text text-anchor="middle" x="1042.5" y="-9.7" font-family="Source Sans Pro" font-size="16.00">/IECamera.cpp</text>
</a>
</g>
</g>
<!-- Node6&#45;&gt;Node9 -->
<g id="edge10" class="edge">
<title>Node6&#45;&gt;Node9</title>
<path fill="none" stroke="midnightblue" d="M1679.53,-134.09C1554.29,-126.59 1322.37,-107.59 1129.5,-63 1126.85,-62.39 1124.17,-61.72 1121.47,-61.01"/>
<polygon fill="midnightblue" stroke="midnightblue" points="1679.65,-137.6 1689.83,-134.69 1680.06,-130.61 1679.65,-137.6"/>
</g>
<!-- Node10 -->
<g id="node10" class="node">
<title>Node10</title>
<g id="a_node10"><a xlink:href="_i_e_render_engine_8cpp.html" target="_top" xlink:title=" ">
<polygon fill="white" stroke="black" points="1139,-0.5 1139,-62.5 1298,-62.5 1298,-0.5 1139,-0.5"/>
<text text-anchor="start" x="1147" y="-45.7" font-family="Source Sans Pro" font-size="16.00">Illumination&#45;Engine</text>
<text text-anchor="start" x="1147" y="-27.7" font-family="Source Sans Pro" font-size="16.00">/src/GraphicsModule</text>
<text text-anchor="middle" x="1218.5" y="-9.7" font-family="Source Sans Pro" font-size="16.00">/IERenderEngine.cpp</text>
</a>
</g>
</g>
<!-- Node6&#45;&gt;Node10 -->
<g id="edge11" class="edge">
<title>Node6&#45;&gt;Node10</title>
<path fill="none" stroke="midnightblue" d="M1679.51,-128.4C1585.27,-116.85 1434.19,-95.26 1306.5,-63 1303.83,-62.33 1301.14,-61.61 1298.42,-60.85"/>
<polygon fill="midnightblue" stroke="midnightblue" points="1679.23,-131.89 1689.58,-129.62 1680.08,-124.95 1679.23,-131.89"/>
</g>
<!-- Node11 -->
<g id="node11" class="node">
<title>Node11</title>
<g id="a_node11"><a xlink:href="_i_e_image_8cpp.html" target="_top" xlink:title=" ">
<polygon fill="white" stroke="black" points="1316,-0.5 1316,-62.5 1473,-62.5 1473,-0.5 1316,-0.5"/>
<text text-anchor="start" x="1324" y="-45.7" font-family="Source Sans Pro" font-size="16.00">Illumination&#45;Engine</text>
<text text-anchor="start" x="1324" y="-27.7" font-family="Source Sans Pro" font-size="16.00">/src/GraphicsModule</text>
<text text-anchor="middle" x="1394.5" y="-9.7" font-family="Source Sans Pro" font-size="16.00">/Image/IEImage.cpp</text>
</a>
</g>
</g>
<!-- Node6&#45;&gt;Node11 -->
<g id="edge12" class="edge">
<title>Node6&#45;&gt;Node11</title>
<path fill="none" stroke="midnightblue" d="M1680.21,-116.93C1622.95,-102.75 1547.49,-83.15 1481.5,-63 1478.74,-62.16 1475.95,-61.28 1473.13,-60.39"/>
<polygon fill="midnightblue" stroke="midnightblue" points="1679.42,-120.34 1689.96,-119.33 1681.09,-113.54 1679.42,-120.34"/>
</g>
<!-- Node12 -->
<g id="node12" class="node">
<title>Node12</title>
<g id="a_node12"><a xlink:href="_i_e_texture_8cpp.html" target="_top" xlink:title=" ">
<polygon fill="white" stroke="black" points="1491,-0.5 1491,-62.5 1652,-62.5 1652,-0.5 1491,-0.5"/>
<text text-anchor="start" x="1499" y="-45.7" font-family="Source Sans Pro" font-size="16.00">Illumination&#45;Engine</text>
<text text-anchor="start" x="1499" y="-27.7" font-family="Source Sans Pro" font-size="16.00">/src/GraphicsModule</text>
<text text-anchor="middle" x="1571.5" y="-9.7" font-family="Source Sans Pro" font-size="16.00">/Image/IETexture.cpp</text>
</a>
</g>
</g>
<!-- Node6&#45;&gt;Node12 -->
<g id="edge13" class="edge">
<title>Node6&#45;&gt;Node12</title>
<path fill="none" stroke="midnightblue" d="M1705.01,-103.62C1680.16,-90.38 1652.1,-75.43 1628.13,-62.67"/>
<polygon fill="midnightblue" stroke="midnightblue" points="1703.54,-106.8 1714.01,-108.41 1706.83,-100.62 1703.54,-106.8"/>
</g>
<!-- Node13 -->
<g id="node13" class="node">
<title>Node13</title>
<g id="a_node13"><a xlink:href="_i_e_framebuffer_8cpp.html" target="_top" xlink:title=" ">
<polygon fill="white" stroke="black" points="3098.5,-0.5 3098.5,-62.5 3328.5,-62.5 3328.5,-0.5 3098.5,-0.5"/>
<text text-anchor="start" x="3106.5" y="-45.7" font-family="Source Sans Pro" font-size="16.00">Illumination&#45;Engine</text>
<text text-anchor="start" x="3106.5" y="-27.7" font-family="Source Sans Pro" font-size="16.00">/src/GraphicsModule</text>
<text text-anchor="middle" x="3213.5" y="-9.7" font-family="Source Sans Pro" font-size="16.00">/RenderPass/IEFramebuffer.cpp</text>
</a>
</g>
</g>
<!-- Node6&#45;&gt;Node13 -->
<g id="edge14" class="edge">
<title>Node6&#45;&gt;Node13</title>
<path fill="none" stroke="midnightblue" d="M1849.69,-105.36C1857.96,-102.82 1866.33,-100.62 1874.5,-99 2139.43,-46.32 2821.85,-99.46 3089.5,-63 3092.47,-62.6 3095.46,-62.15 3098.48,-61.67"/>
<polygon fill="midnightblue" stroke="midnightblue" points="1848.49,-102.06 1840.05,-108.47 1850.64,-108.73 1848.49,-102.06"/>
</g>
<!-- Node14 -->
<g id="node14" class="node">
<title>Node14</title>
<g id="a_node14"><a xlink:href="_i_e_render_pass_8cpp.html" target="_top" xlink:title=" ">
<polygon fill="white" stroke="black" points="3347,-0.5 3347,-62.5 3574,-62.5 3574,-0.5 3347,-0.5"/>
<text text-anchor="start" x="3355" y="-45.7" font-family="Source Sans Pro" font-size="16.00">Illumination&#45;Engine</text>
<text text-anchor="start" x="3355" y="-27.7" font-family="Source Sans Pro" font-size="16.00">/src/GraphicsModule</text>
<text text-anchor="middle" x="3460.5" y="-9.7" font-family="Source Sans Pro" font-size="16.00">/RenderPass/IERenderPass.cpp</text>
</a>
</g>
</g>
<!-- Node6&#45;&gt;Node14 -->
<g id="edge15" class="edge">
<title>Node6&#45;&gt;Node14</title>
<path fill="none" stroke="midnightblue" d="M1861.1,-109.74C1878.02,-105.38 1895.68,-101.51 1912.5,-99 2539.08,-5.4 2709.66,-147.74 3337.5,-63 3340.55,-62.59 3343.64,-62.13 3346.75,-61.63"/>
<polygon fill="midnightblue" stroke="midnightblue" points="1860,-106.41 1851.23,-112.35 1861.79,-113.17 1860,-106.41"/>
</g>
<!-- Node15 -->
<g id="node15" class="node">
<title>Node15</title>
<g id="a_node15"><a xlink:href="_i_e_material_8cpp.html" target="_top" xlink:title=" ">
<polygon fill="white" stroke="black" points="1670,-0.5 1670,-62.5 1871,-62.5 1871,-0.5 1670,-0.5"/>
<text text-anchor="start" x="1678" y="-45.7" font-family="Source Sans Pro" font-size="16.00">Illumination&#45;Engine</text>
<text text-anchor="start" x="1678" y="-27.7" font-family="Source Sans Pro" font-size="16.00">/src/GraphicsModule</text>
<text text-anchor="middle" x="1770.5" y="-9.7" font-family="Source Sans Pro" font-size="16.00">/Renderable/IEMaterial.cpp</text>
</a>
</g>
</g>
<!-- Node6&#45;&gt;Node15 -->
<g id="edge16" class="edge">
<title>Node6&#45;&gt;Node15</title>
<path fill="none" stroke="midnightblue" d="M1770.5,-98.31C1770.5,-86.48 1770.5,-73.75 1770.5,-62.67"/>
<polygon fill="midnightblue" stroke="midnightblue" points="1767,-98.41 1770.5,-108.41 1774,-98.41 1767,-98.41"/>
</g>
<!-- Node16 -->
<g id="node16" class="node">
<title>Node16</title>
<g id="a_node16"><a xlink:href="_i_e_mesh_8cpp.html" target="_top" xlink:title=" ">
<polygon fill="white" stroke="black" points="1889,-0.5 1889,-62.5 2072,-62.5 2072,-0.5 1889,-0.5"/>
<text text-anchor="start" x="1897" y="-45.7" font-family="Source Sans Pro" font-size="16.00">Illumination&#45;Engine</text>
<text text-anchor="start" x="1897" y="-27.7" font-family="Source Sans Pro" font-size="16.00">/src/GraphicsModule</text>
<text text-anchor="middle" x="1980.5" y="-9.7" font-family="Source Sans Pro" font-size="16.00">/Renderable/IEMesh.cpp</text>
</a>
</g>
</g>
<!-- Node6&#45;&gt;Node16 -->
<g id="edge17" class="edge">
<title>Node6&#45;&gt;Node16</title>
<path fill="none" stroke="midnightblue" d="M1839.26,-103.79C1865.57,-90.51 1895.34,-75.49 1920.74,-62.67"/>
<polygon fill="midnightblue" stroke="midnightblue" points="1837.47,-100.78 1830.12,-108.41 1840.62,-107.03 1837.47,-100.78"/>
</g>
<!-- Node17 -->
<g id="node17" class="node">
<title>Node17</title>
<g id="a_node17"><a xlink:href="_i_e_renderable_8cpp.html" target="_top" xlink:title=" ">
<polygon fill="white" stroke="black" points="2090,-0.5 2090,-62.5 2315,-62.5 2315,-0.5 2090,-0.5"/>
<text text-anchor="start" x="2098" y="-45.7" font-family="Source Sans Pro" font-size="16.00">Illumination&#45;Engine</text>
<text text-anchor="start" x="2098" y="-27.7" font-family="Source Sans Pro" font-size="16.00">/src/GraphicsModule</text>
<text text-anchor="middle" x="2202.5" y="-9.7" font-family="Source Sans Pro" font-size="16.00">/Renderable/IERenderable.cpp</text>
</a>
</g>
</g>
<!-- Node6&#45;&gt;Node17 -->
<g id="edge18" class="edge">
<title>Node6&#45;&gt;Node17</title>
<path fill="none" stroke="midnightblue" d="M1854.28,-105.13C1861.07,-102.9 1867.87,-100.82 1874.5,-99 1964.13,-74.39 1989.58,-82.28 2080.5,-63 2083.6,-62.34 2086.73,-61.66 2089.9,-60.96"/>
<polygon fill="midnightblue" stroke="midnightblue" points="1852.7,-101.97 1844.35,-108.49 1854.95,-108.6 1852.7,-101.97"/>
</g>
<!-- Node18 -->
<g id="node18" class="node">
<title>Node18</title>
<g id="a_node18"><a xlink:href="_i_e_descriptor_set_8cpp.html" target="_top" xlink:title=" ">
<polygon fill="white" stroke="black" points="2333,-0.5 2333,-62.5 2540,-62.5 2540,-0.5 2333,-0.5"/>
<text text-anchor="start" x="2341" y="-45.7" font-family="Source Sans Pro" font-size="16.00">Illumination&#45;Engine</text>
<text text-anchor="start" x="2341" y="-27.7" font-family="Source Sans Pro" font-size="16.00">/src/GraphicsModule</text>
<text text-anchor="middle" x="2436.5" y="-9.7" font-family="Source Sans Pro" font-size="16.00">/Shader/IEDescriptorSet.cpp</text>
</a>
</g>
</g>
<!-- Node6&#45;&gt;Node18 -->
<g id="edge19" class="edge">
<title>Node6&#45;&gt;Node18</title>
<path fill="none" stroke="midnightblue" d="M1851.33,-105.29C1859.08,-102.87 1866.88,-100.72 1874.5,-99 2069.81,-55.02 2126.25,-97.23 2323.5,-63 2326.6,-62.46 2329.74,-61.88 2332.91,-61.25"/>
<polygon fill="midnightblue" stroke="midnightblue" points="1849.99,-102.05 1841.58,-108.48 1852.17,-108.7 1849.99,-102.05"/>
</g>
<!-- Node19 -->
<g id="node19" class="node">
<title>Node19</title>
<g id="a_node19"><a xlink:href="_i_e_pipeline_8cpp.html" target="_top" xlink:title=" ">
<polygon fill="white" stroke="black" points="2558.5,-0.5 2558.5,-62.5 2730.5,-62.5 2730.5,-0.5 2558.5,-0.5"/>
<text text-anchor="start" x="2566.5" y="-45.7" font-family="Source Sans Pro" font-size="16.00">Illumination&#45;Engine</text>
<text text-anchor="start" x="2566.5" y="-27.7" font-family="Source Sans Pro" font-size="16.00">/src/GraphicsModule</text>
<text text-anchor="middle" x="2644.5" y="-9.7" font-family="Source Sans Pro" font-size="16.00">/Shader/IEPipeline.cpp</text>
</a>
</g>
</g>
<!-- Node6&#45;&gt;Node19 -->
<g id="edge20" class="edge">
<title>Node6&#45;&gt;Node19</title>
<path fill="none" stroke="midnightblue" d="M1850.62,-105.28C1858.59,-102.82 1866.64,-100.66 1874.5,-99 2168.01,-37 2253.39,-116.85 2548.5,-63 2551.77,-62.4 2555.08,-61.73 2558.41,-60.99"/>
<polygon fill="midnightblue" stroke="midnightblue" points="1849.38,-102 1840.95,-108.41 1851.54,-108.66 1849.38,-102"/>
</g>
<!-- Node20 -->
<g id="node20" class="node">
<title>Node20</title>
<g id="a_node20"><a xlink:href="_i_e_shader_8cpp.html" target="_top" xlink:title=" ">
<polygon fill="white" stroke="black" points="2748.5,-0.5 2748.5,-62.5 2912.5,-62.5 2912.5,-0.5 2748.5,-0.5"/>
<text text-anchor="start" x="2756.5" y="-45.7" font-family="Source Sans Pro" font-size="16.00">Illumination&#45;Engine</text>
<text text-anchor="start" x="2756.5" y="-27.7" font-family="Source Sans Pro" font-size="16.00">/src/GraphicsModule</text>
<text text-anchor="middle" x="2830.5" y="-9.7" font-family="Source Sans Pro" font-size="16.00">/Shader/IEShader.cpp</text>
</a>
</g>
</g>
<!-- Node6&#45;&gt;Node20 -->
<g id="edge21" class="edge">
<title>Node6&#45;&gt;Node20</title>
<path fill="none" stroke="midnightblue" d="M1849.92,-105.39C1858.12,-102.87 1866.41,-100.66 1874.5,-99 2251.43,-21.69 2361.11,-132.83 2739.5,-63 2742.45,-62.46 2745.43,-61.84 2748.43,-61.16"/>
<polygon fill="midnightblue" stroke="midnightblue" points="1848.79,-102.08 1840.36,-108.49 1850.95,-108.74 1848.79,-102.08"/>
</g>
<!-- Node21 -->
<g id="node21" class="node">
<title>Node21</title>
<g id="a_node21"><a xlink:href="main_8cpp.html" target="_top" xlink:title=" ">
<polygon fill="white" stroke="black" points="2930.5,-9.5 2930.5,-53.5 3080.5,-53.5 3080.5,-9.5 2930.5,-9.5"/>
<text text-anchor="start" x="2938.5" y="-36.7" font-family="Source Sans Pro" font-size="16.00">Illumination&#45;Engine</text>
<text text-anchor="middle" x="3005.5" y="-18.7" font-family="Source Sans Pro" font-size="16.00">/src/main.cpp</text>
</a>
</g>
</g>
<!-- Node6&#45;&gt;Node21 -->
<g id="edge22" class="edge">
<title>Node6&#45;&gt;Node21</title>
<path fill="none" stroke="midnightblue" d="M1849.91,-105.33C1858.11,-102.82 1866.4,-100.63 1874.5,-99 2330.95,-7.1 2464.39,-151.54 2921.5,-63 2932.77,-60.82 2944.55,-57.35 2955.59,-53.52"/>
<polygon fill="midnightblue" stroke="midnightblue" points="1848.79,-102.02 1840.34,-108.42 1850.94,-108.68 1848.79,-102.02"/>
</g>
<!-- Node22&#45;&gt;Node6 -->
<g id="edge26" class="edge">
<title>Node22&#45;&gt;Node6</title>
<path fill="none" stroke="midnightblue" d="M1873.88,-210.74C1854.72,-197.73 1833.27,-183.15 1814.9,-170.67"/>
<polygon fill="midnightblue" stroke="midnightblue" points="1871.98,-213.68 1882.21,-216.41 1875.91,-207.89 1871.98,-213.68"/>
</g>
<!-- Node22&#45;&gt;Node13 -->
<g id="edge27" class="edge">
<title>Node22&#45;&gt;Node13</title>
<path fill="none" stroke="midnightblue" d="M1907.85,-206.84C1895.26,-173.52 1885.36,-126.98 1912.5,-99 1958.05,-52.04 3024.68,-71.86 3089.5,-63 3092.47,-62.59 3095.46,-62.15 3098.48,-61.66"/>
<polygon fill="midnightblue" stroke="midnightblue" points="1904.67,-208.31 1911.63,-216.29 1911.17,-205.71 1904.67,-208.31"/>
</g>
<!-- Node22&#45;&gt;Node14 -->
<g id="edge28" class="edge">
<title>Node22&#45;&gt;Node14</title>
<path fill="none" stroke="midnightblue" d="M1918.95,-206.44C1915.13,-172.52 1916.32,-125.34 1945.5,-99 2002.93,-47.17 3260.84,-73.37 3337.5,-63 3340.55,-62.59 3343.64,-62.13 3346.75,-61.63"/>
<polygon fill="midnightblue" stroke="midnightblue" points="1915.5,-207.04 1920.28,-216.5 1922.44,-206.13 1915.5,-207.04"/>
</g>
<!-- Node23 -->
<g id="node23" class="node">
<title>Node23</title>
<g id="a_node23"><a xlink:href="_i_e_render_pass_begin_info_8cpp.html" target="_top" xlink:title=" ">
<polygon fill="white" stroke="black" points="1954.5,-99.5 1954.5,-179.5 2226.5,-179.5 2226.5,-99.5 1954.5,-99.5"/>
<text text-anchor="start" x="1962.5" y="-162.7" font-family="Source Sans Pro" font-size="16.00">Illumination&#45;Engine</text>
<text text-anchor="start" x="1962.5" y="-144.7" font-family="Source Sans Pro" font-size="16.00">/src/GraphicsModule</text>
<text text-anchor="start" x="1962.5" y="-126.7" font-family="Source Sans Pro" font-size="16.00">/CommandBuffer/DependencyStructs</text>
<text text-anchor="middle" x="2090.5" y="-108.7" font-family="Source Sans Pro" font-size="16.00">/IERenderPassBeginInfo.cpp</text>
</a>
</g>
</g>
<!-- Node22&#45;&gt;Node23 -->
<g id="edge24" class="edge">
<title>Node22&#45;&gt;Node23</title>
<path fill="none" stroke="midnightblue" d="M1981.54,-210.92C1997.11,-200.86 2014.14,-189.85 2030.02,-179.59"/>
<polygon fill="midnightblue" stroke="midnightblue" points="1979.56,-208.04 1973.06,-216.41 1983.36,-213.92 1979.56,-208.04"/>
</g>
<!-- Node22&#45;&gt;Node24 -->
<g id="edge25" class="edge">
<title>Node22&#45;&gt;Node24</title>
<path fill="none" stroke="midnightblue" d="M2050.67,-221.53C2107.23,-209.71 2174.93,-194.93 2235.5,-180 2247.43,-177.06 2259.87,-173.84 2272.22,-170.53"/>
<polygon fill="midnightblue" stroke="midnightblue" points="2049.68,-218.16 2040.6,-223.63 2051.11,-225.02 2049.68,-218.16"/>
</g>
</g>
</svg>
