<?xml version="1.0" encoding="UTF-8" standalone="no"?>
<!DOCTYPE svg PUBLIC "-//W3C//DTD SVG 1.1//EN"
 "http://www.w3.org/Graphics/SVG/1.1/DTD/svg11.dtd">
<!-- Generated by graphviz version 2.43.0 (0)
 -->
<!-- Title: Illumination&#45;Engine/src/GraphicsModule/CommandBuffer/DependencyStructs/IERenderPassBeginInfo.hpp Pages: 1 -->
<svg width="1107pt" height="458pt"
 viewBox="0.00 0.00 1106.88 458.00" xmlns="http://www.w3.org/2000/svg" xmlns:xlink="http://www.w3.org/1999/xlink">
<g id="graph0" class="graph" transform="scale(1 1) rotate(0) translate(4 454)">
<title>Illumination&#45;Engine/src/GraphicsModule/CommandBuffer/DependencyStructs/IERenderPassBeginInfo.hpp</title>
<polygon fill="white" stroke="transparent" points="-4,4 -4,-454 1102.88,-454 1102.88,4 -4,4"/>
<!-- Node1 -->
<g id="node1" class="node">
<title>Node1</title>
<g id="a_node1"><a xlink:title=" ">
<polygon fill="#bfbfbf" stroke="black" points="0,-369.5 0,-449.5 272,-449.5 272,-369.5 0,-369.5"/>
<text text-anchor="start" x="8" y="-432.7" font-family="Source Sans Pro" font-size="16.00">Illumination&#45;Engine</text>
<text text-anchor="start" x="8" y="-414.7" font-family="Source Sans Pro" font-size="16.00">/src/GraphicsModule</text>
<text text-anchor="start" x="8" y="-396.7" font-family="Source Sans Pro" font-size="16.00">/CommandBuffer/DependencyStructs</text>
<text text-anchor="middle" x="136" y="-378.7" font-family="Source Sans Pro" font-size="16.00">/IERenderPassBeginInfo.hpp</text>
</a>
</g>
</g>
<!-- Node2 -->
<g id="node2" class="node">
<title>Node2</title>
<g id="a_node2"><a xlink:title=" ">
<polygon fill="white" stroke="#bfbfbf" points="38,-63.5 38,-89.5 112,-89.5 112,-63.5 38,-63.5"/>
<text text-anchor="middle" x="75" y="-72.7" font-family="Source Sans Pro" font-size="16.00">memory</text>
</a>
</g>
</g>
<!-- Node1&#45;&gt;Node2 -->
<g id="edge1" class="edge">
<title>Node1&#45;&gt;Node2</title>
<path fill="none" stroke="midnightblue" d="M110.61,-369.31C82.76,-323.79 39.79,-245.38 23,-171 18.6,-151.49 15.03,-144.34 23,-126 28.19,-114.06 37.93,-103.73 47.59,-95.7"/>
<polygon fill="midnightblue" stroke="midnightblue" points="49.81,-98.41 55.58,-89.52 45.53,-92.87 49.81,-98.41"/>
</g>
<!-- Node3 -->
<g id="node3" class="node">
<title>Node3</title>
<g id="a_node3"><a xlink:href="_i_e_framebuffer_8hpp.html" target="_top" xlink:title=" ">
<polygon fill="white" stroke="black" points="200.5,-288.5 200.5,-332.5 411.5,-332.5 411.5,-288.5 200.5,-288.5"/>
<text text-anchor="start" x="208.5" y="-315.7" font-family="Source Sans Pro" font-size="16.00">GraphicsModule/RenderPass</text>
<text text-anchor="middle" x="306" y="-297.7" font-family="Source Sans Pro" font-size="16.00">/IEFramebuffer.hpp</text>
</a>
</g>
</g>
<!-- Node1&#45;&gt;Node3 -->
<g id="edge2" class="edge">
<title>Node1&#45;&gt;Node3</title>
<path fill="none" stroke="midnightblue" d="M204.66,-369.33C223.16,-358.77 242.74,-347.6 259.7,-337.92"/>
<polygon fill="midnightblue" stroke="midnightblue" points="261.88,-340.7 268.84,-332.71 258.42,-334.62 261.88,-340.7"/>
</g>
<!-- Node4 -->
<g id="node4" class="node">
<title>Node4</title>
<g id="a_node4"><a xlink:href="_i_e_image_8hpp.html" target="_top" xlink:title=" ">
<polygon fill="white" stroke="black" points="431,-207.5 431,-251.5 605,-251.5 605,-207.5 431,-207.5"/>
<text text-anchor="start" x="439" y="-234.7" font-family="Source Sans Pro" font-size="16.00">GraphicsModule/Image</text>
<text text-anchor="middle" x="518" y="-216.7" font-family="Source Sans Pro" font-size="16.00">/IEImage.hpp</text>
</a>
</g>
</g>
<!-- Node3&#45;&gt;Node4 -->
<g id="edge3" class="edge">
<title>Node3&#45;&gt;Node4</title>
<path fill="none" stroke="midnightblue" d="M362.53,-288.43C390.08,-278.17 423.38,-265.76 452.08,-255.06"/>
<polygon fill="midnightblue" stroke="midnightblue" points="453.48,-258.28 461.62,-251.51 451.03,-251.72 453.48,-258.28"/>
</g>
<!-- Node6 -->
<g id="node6" class="node">
<title>Node6</title>
<g id="a_node6"><a xlink:title=" ">
<polygon fill="white" stroke="#bfbfbf" points="45.5,-0.5 45.5,-26.5 104.5,-26.5 104.5,-0.5 45.5,-0.5"/>
<text text-anchor="middle" x="75" y="-9.7" font-family="Source Sans Pro" font-size="16.00">vector</text>
</a>
</g>
</g>
<!-- Node3&#45;&gt;Node6 -->
<g id="edge25" class="edge">
<title>Node3&#45;&gt;Node6</title>
<path fill="none" stroke="midnightblue" d="M200.17,-288.73C134.92,-269.87 56.25,-234.83 16,-171 8.81,-159.59 19.15,-66.75 21,-63 26.89,-51.09 37.09,-40.76 47.05,-32.73"/>
<polygon fill="midnightblue" stroke="midnightblue" points="49.38,-35.35 55.27,-26.54 45.17,-29.76 49.38,-35.35"/>
</g>
<!-- Node7 -->
<g id="node7" class="node">
<title>Node7</title>
<g id="a_node7"><a xlink:title=" ">
<polygon fill="white" stroke="#bfbfbf" points="243.5,-63.5 243.5,-89.5 368.5,-89.5 368.5,-63.5 243.5,-63.5"/>
<text text-anchor="middle" x="306" y="-72.7" font-family="Source Sans Pro" font-size="16.00">vulkan/vulkan.h</text>
</a>
</g>
</g>
<!-- Node3&#45;&gt;Node7 -->
<g id="edge23" class="edge">
<title>Node3&#45;&gt;Node7</title>
<path fill="none" stroke="midnightblue" d="M306,-288.09C306,-244.14 306,-144.14 306,-99.6"/>
<polygon fill="midnightblue" stroke="midnightblue" points="309.5,-99.55 306,-89.55 302.5,-99.55 309.5,-99.55"/>
</g>
<!-- Node8 -->
<g id="node8" class="node">
<title>Node8</title>
<g id="a_node8"><a xlink:title=" ">
<polygon fill="white" stroke="#bfbfbf" points="522.5,-0.5 522.5,-26.5 577.5,-26.5 577.5,-0.5 522.5,-0.5"/>
<text text-anchor="middle" x="550" y="-9.7" font-family="Source Sans Pro" font-size="16.00">string</text>
</a>
</g>
</g>
<!-- Node3&#45;&gt;Node8 -->
<g id="edge24" class="edge">
<title>Node3&#45;&gt;Node8</title>
<path fill="none" stroke="midnightblue" d="M411.84,-306.81C604.47,-299.45 1000.31,-272.08 1085,-171 1097.84,-155.67 1097.62,-141.52 1085,-126 1021.8,-48.27 698.78,-22.91 587.63,-16.41"/>
<polygon fill="midnightblue" stroke="midnightblue" points="587.73,-12.91 577.55,-15.84 587.34,-19.9 587.73,-12.91"/>
</g>
<!-- Node5 -->
<g id="node5" class="node">
<title>Node5</title>
<g id="a_node5"><a xlink:href="_i_e_dependency_8hpp.html" target="_top" xlink:title=" ">
<polygon fill="white" stroke="black" points="32.5,-126.5 32.5,-170.5 277.5,-170.5 277.5,-126.5 32.5,-126.5"/>
<text text-anchor="start" x="40.5" y="-153.7" font-family="Source Sans Pro" font-size="16.00">GraphicsModule/CommandBuffer</text>
<text text-anchor="middle" x="155" y="-135.7" font-family="Source Sans Pro" font-size="16.00">/IEDependency.hpp</text>
</a>
</g>
</g>
<!-- Node4&#45;&gt;Node5 -->
<g id="edge4" class="edge">
<title>Node4&#45;&gt;Node5</title>
<path fill="none" stroke="midnightblue" d="M430.59,-209.48C379.74,-198.41 315.26,-184.38 261.46,-172.67"/>
<polygon fill="midnightblue" stroke="midnightblue" points="262.06,-169.22 251.54,-170.51 260.57,-176.06 262.06,-169.22"/>
</g>
<!-- Node4&#45;&gt;Node6 -->
<g id="edge21" class="edge">
<title>Node4&#45;&gt;Node6</title>
<path fill="none" stroke="midnightblue" d="M430.76,-224.57C295.93,-217.58 49.59,-200.86 23,-171 14.05,-160.96 26.32,-68.9 29,-63 34.08,-51.84 42.8,-41.63 51.29,-33.49"/>
<polygon fill="midnightblue" stroke="midnightblue" points="53.83,-35.91 58.92,-26.62 49.14,-30.71 53.83,-35.91"/>
</g>
<!-- Node4&#45;&gt;Node7 -->
<g id="edge17" class="edge">
<title>Node4&#45;&gt;Node7</title>
<path fill="none" stroke="midnightblue" d="M498.98,-207.31C489.34,-196.5 477.48,-183.11 467,-171 449.87,-151.21 450.27,-141.26 429,-126 408.78,-111.48 383.61,-100.56 361.32,-92.8"/>
<polygon fill="midnightblue" stroke="midnightblue" points="362.24,-89.41 351.64,-89.55 360.01,-96.05 362.24,-89.41"/>
</g>
<!-- Node4&#45;&gt;Node8 -->
<g id="edge20" class="edge">
<title>Node4&#45;&gt;Node8</title>
<path fill="none" stroke="midnightblue" d="M543,-207.29C552.77,-197.39 562.86,-184.75 568,-171 585.13,-125.2 569.55,-67.04 558.6,-36.12"/>
<polygon fill="midnightblue" stroke="midnightblue" points="561.88,-34.9 555.12,-26.74 555.31,-37.33 561.88,-34.9"/>
</g>
<!-- Node9 -->
<g id="node9" class="node">
<title>Node9</title>
<g id="a_node9"><a xlink:href="_i_e_a_p_i_8hpp.html" target="_top" xlink:title=" ">
<polygon fill="white" stroke="black" points="476.5,-135.5 476.5,-161.5 559.5,-161.5 559.5,-135.5 476.5,-135.5"/>
<text text-anchor="middle" x="518" y="-144.7" font-family="Source Sans Pro" font-size="16.00">IEAPI.hpp</text>
</a>
</g>
</g>
<!-- Node4&#45;&gt;Node9 -->
<g id="edge9" class="edge">
<title>Node4&#45;&gt;Node9</title>
<path fill="none" stroke="midnightblue" d="M518,-207.33C518,-196.36 518,-182.97 518,-171.83"/>
<polygon fill="midnightblue" stroke="midnightblue" points="521.5,-171.63 518,-161.63 514.5,-171.63 521.5,-171.63"/>
</g>
<!-- Node11 -->
<g id="node11" class="node">
<title>Node11</title>
<g id="a_node11"><a xlink:title=" ">
<polygon fill="white" stroke="#bfbfbf" points="833.5,-0.5 833.5,-26.5 896.5,-26.5 896.5,-0.5 833.5,-0.5"/>
<text text-anchor="middle" x="865" y="-9.7" font-family="Source Sans Pro" font-size="16.00">cstdint</text>
</a>
</g>
</g>
<!-- Node4&#45;&gt;Node11 -->
<g id="edge19" class="edge">
<title>Node4&#45;&gt;Node11</title>
<path fill="none" stroke="midnightblue" d="M605.05,-225.97C756.03,-220.67 1053.47,-205.89 1085,-171 1146.41,-103.05 985.91,-47.66 906.48,-25.24"/>
<polygon fill="midnightblue" stroke="midnightblue" points="907.33,-21.84 896.76,-22.54 905.46,-28.59 907.33,-21.84"/>
</g>
<!-- Node12 -->
<g id="node12" class="node">
<title>Node12</title>
<g id="a_node12"><a xlink:title=" ">
<polygon fill="white" stroke="#bfbfbf" points="616,-135.5 616,-161.5 754,-161.5 754,-135.5 616,-135.5"/>
<text text-anchor="middle" x="685" y="-144.7" font-family="Source Sans Pro" font-size="16.00">include/GL/glew.h</text>
</a>
</g>
</g>
<!-- Node4&#45;&gt;Node12 -->
<g id="edge15" class="edge">
<title>Node4&#45;&gt;Node12</title>
<path fill="none" stroke="midnightblue" d="M562.75,-207.33C590.17,-194.36 624.74,-178.01 650.12,-166"/>
<polygon fill="midnightblue" stroke="midnightblue" points="651.82,-169.07 659.36,-161.63 648.83,-162.74 651.82,-169.07"/>
</g>
<!-- Node13 -->
<g id="node13" class="node">
<title>Node13</title>
<g id="a_node13"><a xlink:title=" ">
<polygon fill="white" stroke="#bfbfbf" points="772.5,-135.5 772.5,-161.5 957.5,-161.5 957.5,-135.5 772.5,-135.5"/>
<text text-anchor="middle" x="865" y="-144.7" font-family="Source Sans Pro" font-size="16.00">include/vk_mem_alloc.h</text>
</a>
</g>
</g>
<!-- Node4&#45;&gt;Node13 -->
<g id="edge16" class="edge">
<title>Node4&#45;&gt;Node13</title>
<path fill="none" stroke="midnightblue" d="M605.11,-208.67C666.44,-194.7 747.11,-176.34 802.2,-163.8"/>
<polygon fill="midnightblue" stroke="midnightblue" points="803.2,-167.16 812.18,-161.53 801.65,-160.33 803.2,-167.16"/>
</g>
<!-- Node14 -->
<g id="node14" class="node">
<title>Node14</title>
<g id="a_node14"><a xlink:title=" ">
<polygon fill="white" stroke="#bfbfbf" points="976,-135.5 976,-161.5 1076,-161.5 1076,-135.5 976,-135.5"/>
<text text-anchor="middle" x="1026" y="-144.7" font-family="Source Sans Pro" font-size="16.00">stb_image.h</text>
</a>
</g>
</g>
<!-- Node4&#45;&gt;Node14 -->
<g id="edge18" class="edge">
<title>Node4&#45;&gt;Node14</title>
<path fill="none" stroke="midnightblue" d="M605.12,-223.1C696.35,-216.11 843.29,-201.07 967,-171 973.69,-169.37 980.67,-167.24 987.39,-164.95"/>
<polygon fill="midnightblue" stroke="midnightblue" points="988.75,-168.18 996.99,-161.53 986.39,-161.59 988.75,-168.18"/>
</g>
<!-- Node15 -->
<g id="node15" class="node">
<title>Node15</title>
<g id="a_node15"><a xlink:title=" ">
<polygon fill="white" stroke="#bfbfbf" points="334,-135.5 334,-161.5 420,-161.5 420,-135.5 334,-135.5"/>
<text text-anchor="middle" x="377" y="-144.7" font-family="Source Sans Pro" font-size="16.00">functional</text>
</a>
</g>
</g>
<!-- Node4&#45;&gt;Node15 -->
<g id="edge22" class="edge">
<title>Node4&#45;&gt;Node15</title>
<path fill="none" stroke="midnightblue" d="M480.21,-207.33C457.48,-194.59 428.9,-178.58 407.59,-166.64"/>
<polygon fill="midnightblue" stroke="midnightblue" points="409.08,-163.46 398.65,-161.63 405.66,-169.57 409.08,-163.46"/>
</g>
<!-- Node5&#45;&gt;Node2 -->
<g id="edge8" class="edge">
<title>Node5&#45;&gt;Node2</title>
<path fill="none" stroke="midnightblue" d="M131,-126.5C119.99,-116.87 107.06,-105.55 96.39,-96.22"/>
<polygon fill="midnightblue" stroke="midnightblue" points="98.58,-93.48 88.75,-89.53 93.97,-98.75 98.58,-93.48"/>
</g>
<!-- Node5&#45;&gt;Node6 -->
<g id="edge5" class="edge">
<title>Node5&#45;&gt;Node6</title>
<path fill="none" stroke="midnightblue" d="M148.93,-126.3C143.29,-108.54 133.81,-82.96 121,-63 114.18,-52.38 104.86,-42.04 96.39,-33.65"/>
<polygon fill="midnightblue" stroke="midnightblue" points="98.59,-30.91 88.95,-26.54 93.76,-35.97 98.59,-30.91"/>
</g>
<!-- Node5&#45;&gt;Node7 -->
<g id="edge6" class="edge">
<title>Node5&#45;&gt;Node7</title>
<path fill="none" stroke="midnightblue" d="M200.3,-126.5C222.91,-116.02 249.83,-103.54 270.84,-93.8"/>
<polygon fill="midnightblue" stroke="midnightblue" points="272.45,-96.91 280.05,-89.53 269.5,-90.56 272.45,-96.91"/>
</g>
<!-- Node5&#45;&gt;Node8 -->
<g id="edge7" class="edge">
<title>Node5&#45;&gt;Node8</title>
<path fill="none" stroke="midnightblue" d="M168.53,-126.34C182.42,-106.53 205.94,-77.81 234,-63 281.72,-37.81 439.24,-22.91 512.25,-17.2"/>
<polygon fill="midnightblue" stroke="midnightblue" points="512.68,-20.67 522.38,-16.42 512.14,-13.69 512.68,-20.67"/>
</g>
<!-- Node9&#45;&gt;Node8 -->
<g id="edge14" class="edge">
<title>Node9&#45;&gt;Node8</title>
<path fill="none" stroke="midnightblue" d="M520.95,-135.23C526.36,-112.76 537.91,-64.74 544.71,-36.5"/>
<polygon fill="midnightblue" stroke="midnightblue" points="548.12,-37.29 547.05,-26.74 541.31,-35.65 548.12,-37.29"/>
</g>
<!-- Node10 -->
<g id="node10" class="node">
<title>Node10</title>
<g id="a_node10"><a xlink:href="_i_e_version_8hpp.html" target="_top" xlink:title=" ">
<polygon fill="white" stroke="black" points="412,-63.5 412,-89.5 522,-89.5 522,-63.5 412,-63.5"/>
<text text-anchor="middle" x="467" y="-72.7" font-family="Source Sans Pro" font-size="16.00">IEVersion.hpp</text>
</a>
</g>
</g>
<!-- Node9&#45;&gt;Node10 -->
<g id="edge10" class="edge">
<title>Node9&#45;&gt;Node10</title>
<path fill="none" stroke="midnightblue" d="M509.12,-135.31C501.58,-124.97 490.63,-109.93 481.77,-97.78"/>
<polygon fill="midnightblue" stroke="midnightblue" points="484.5,-95.57 475.78,-89.55 478.84,-99.7 484.5,-95.57"/>
</g>
<!-- Node10&#45;&gt;Node6 -->
<g id="edge13" class="edge">
<title>Node10&#45;&gt;Node6</title>
<path fill="none" stroke="midnightblue" d="M411.67,-66.89C331.57,-54.43 185.24,-31.65 114.87,-20.7"/>
<polygon fill="midnightblue" stroke="midnightblue" points="115.07,-17.19 104.65,-19.11 114,-24.11 115.07,-17.19"/>
</g>
<!-- Node10&#45;&gt;Node8 -->
<g id="edge12" class="edge">
<title>Node10&#45;&gt;Node8</title>
<path fill="none" stroke="midnightblue" d="M483.4,-63.45C495.33,-54.68 511.71,-42.64 525.23,-32.7"/>
<polygon fill="midnightblue" stroke="midnightblue" points="527.65,-35.27 533.64,-26.53 523.51,-29.63 527.65,-35.27"/>
</g>
<!-- Node10&#45;&gt;Node11 -->
<g id="edge11" class="edge">
<title>Node10&#45;&gt;Node11</title>
<path fill="none" stroke="midnightblue" d="M522.34,-67.02C603.06,-54.65 751.3,-31.93 823.41,-20.87"/>
<polygon fill="midnightblue" stroke="midnightblue" points="824.13,-24.31 833.48,-19.33 823.07,-17.39 824.13,-24.31"/>
</g>
</g>
</svg>
