<?xml version="1.0" encoding="UTF-8" standalone="no"?>
<!DOCTYPE svg PUBLIC "-//W3C//DTD SVG 1.1//EN"
 "http://www.w3.org/Graphics/SVG/1.1/DTD/svg11.dtd">
<!-- Generated by graphviz version 2.43.0 (0)
 -->
<!-- Title: Illumination&#45;Engine/src/GraphicsModule/CommandBuffer/DependencyStructs/IEBufferMemoryBarrier.cpp Pages: 1 -->
<svg width="1147pt" height="422pt"
 viewBox="0.00 0.00 1147.00 422.00" xmlns="http://www.w3.org/2000/svg" xmlns:xlink="http://www.w3.org/1999/xlink">
<g id="graph0" class="graph" transform="scale(1 1) rotate(0) translate(4 418)">
<title>Illumination&#45;Engine/src/GraphicsModule/CommandBuffer/DependencyStructs/IEBufferMemoryBarrier.cpp</title>
<polygon fill="white" stroke="transparent" points="-4,4 -4,-418 1143,-418 1143,4 -4,4"/>
<!-- Node1 -->
<g id="node1" class="node">
<title>Node1</title>
<g id="a_node1"><a xlink:title=" ">
<polygon fill="#bfbfbf" stroke="black" points="867,-333.5 867,-413.5 1139,-413.5 1139,-333.5 867,-333.5"/>
<text text-anchor="start" x="875" y="-396.7" font-family="Source Sans Pro" font-size="16.00">Illumination&#45;Engine</text>
<text text-anchor="start" x="875" y="-378.7" font-family="Source Sans Pro" font-size="16.00">/src/GraphicsModule</text>
<text text-anchor="start" x="875" y="-360.7" font-family="Source Sans Pro" font-size="16.00">/CommandBuffer/DependencyStructs</text>
<text text-anchor="middle" x="1003" y="-342.7" font-family="Source Sans Pro" font-size="16.00">/IEBufferMemoryBarrier.cpp</text>
</a>
</g>
</g>
<!-- Node2 -->
<g id="node2" class="node">
<title>Node2</title>
<g id="a_node2"><a xlink:href="_i_e_buffer_memory_barrier_8hpp.html" target="_top" xlink:title=" ">
<polygon fill="white" stroke="black" points="836.5,-270.5 836.5,-296.5 1039.5,-296.5 1039.5,-270.5 836.5,-270.5"/>
<text text-anchor="middle" x="938" y="-279.7" font-family="Source Sans Pro" font-size="16.00">IEBufferMemoryBarrier.hpp</text>
</a>
</g>
</g>
<!-- Node1&#45;&gt;Node2 -->
<g id="edge1" class="edge">
<title>Node1&#45;&gt;Node2</title>
<path fill="none" stroke="midnightblue" d="M974.11,-333.39C966.86,-323.58 959.37,-313.44 953.11,-304.95"/>
<polygon fill="midnightblue" stroke="midnightblue" points="955.84,-302.76 947.08,-296.79 950.21,-306.92 955.84,-302.76"/>
</g>
<!-- Node8 -->
<g id="node8" class="node">
<title>Node8</title>
<g id="a_node8"><a xlink:title=" ">
<polygon fill="white" stroke="#bfbfbf" points="902.5,-63.5 902.5,-89.5 1027.5,-89.5 1027.5,-63.5 902.5,-63.5"/>
<text text-anchor="middle" x="965" y="-72.7" font-family="Source Sans Pro" font-size="16.00">vulkan/vulkan.h</text>
</a>
</g>
</g>
<!-- Node1&#45;&gt;Node8 -->
<g id="edge22" class="edge">
<title>Node1&#45;&gt;Node8</title>
<path fill="none" stroke="midnightblue" d="M1032.44,-333.26C1039.22,-322.1 1045.47,-309.56 1049,-297 1052.24,-285.45 1051.07,-281.82 1049,-270 1037.27,-202.97 1027.51,-186.82 997,-126 992.22,-116.46 985.93,-106.53 980.19,-98.16"/>
<polygon fill="midnightblue" stroke="midnightblue" points="982.9,-95.93 974.28,-89.77 977.18,-99.96 982.9,-95.93"/>
</g>
<!-- Node3 -->
<g id="node3" class="node">
<title>Node3</title>
<g id="a_node3"><a xlink:href="_i_e_buffer_8hpp.html" target="_top" xlink:title=" ">
<polygon fill="white" stroke="black" points="349.5,-207.5 349.5,-233.5 496.5,-233.5 496.5,-207.5 349.5,-207.5"/>
<text text-anchor="middle" x="423" y="-216.7" font-family="Source Sans Pro" font-size="16.00">Buffer/IEBuffer.hpp</text>
</a>
</g>
</g>
<!-- Node2&#45;&gt;Node3 -->
<g id="edge2" class="edge">
<title>Node2&#45;&gt;Node3</title>
<path fill="none" stroke="midnightblue" d="M836.56,-270.48C740.2,-259.07 597.03,-242.11 506.92,-231.44"/>
<polygon fill="midnightblue" stroke="midnightblue" points="507.09,-227.94 496.75,-230.24 506.27,-234.89 507.09,-227.94"/>
</g>
<!-- Node5 -->
<g id="node5" class="node">
<title>Node5</title>
<g id="a_node5"><a xlink:title=" ">
<polygon fill="white" stroke="#bfbfbf" points="719,-63.5 719,-89.5 793,-89.5 793,-63.5 719,-63.5"/>
<text text-anchor="middle" x="756" y="-72.7" font-family="Source Sans Pro" font-size="16.00">memory</text>
</a>
</g>
</g>
<!-- Node2&#45;&gt;Node5 -->
<g id="edge20" class="edge">
<title>Node2&#45;&gt;Node5</title>
<path fill="none" stroke="midnightblue" d="M939.61,-270.13C942.65,-241.09 945.95,-167.83 909,-126 882.59,-96.1 837.85,-84.47 803.56,-80.03"/>
<polygon fill="midnightblue" stroke="midnightblue" points="803.61,-76.52 793.28,-78.87 802.83,-83.47 803.61,-76.52"/>
</g>
<!-- Node2&#45;&gt;Node8 -->
<g id="edge21" class="edge">
<title>Node2&#45;&gt;Node8</title>
<path fill="none" stroke="midnightblue" d="M952.77,-270.19C962.26,-261.27 973.77,-248.29 979,-234 995.69,-188.4 982.4,-130.55 972.75,-99.53"/>
<polygon fill="midnightblue" stroke="midnightblue" points="975.99,-98.15 969.55,-89.74 969.33,-100.33 975.99,-98.15"/>
</g>
<!-- Node4 -->
<g id="node4" class="node">
<title>Node4</title>
<g id="a_node4"><a xlink:href="_i_e_dependency_8hpp.html" target="_top" xlink:title=" ">
<polygon fill="white" stroke="black" points="451.5,-126.5 451.5,-170.5 696.5,-170.5 696.5,-126.5 451.5,-126.5"/>
<text text-anchor="start" x="459.5" y="-153.7" font-family="Source Sans Pro" font-size="16.00">GraphicsModule/CommandBuffer</text>
<text text-anchor="middle" x="574" y="-135.7" font-family="Source Sans Pro" font-size="16.00">/IEDependency.hpp</text>
</a>
</g>
</g>
<!-- Node3&#45;&gt;Node4 -->
<g id="edge3" class="edge">
<title>Node3&#45;&gt;Node4</title>
<path fill="none" stroke="midnightblue" d="M448.96,-207.47C468.24,-198.53 495.24,-186.01 519.21,-174.9"/>
<polygon fill="midnightblue" stroke="midnightblue" points="520.98,-177.94 528.58,-170.56 518.03,-171.59 520.98,-177.94"/>
</g>
<!-- Node7 -->
<g id="node7" class="node">
<title>Node7</title>
<g id="a_node7"><a xlink:title=" ">
<polygon fill="white" stroke="#bfbfbf" points="462.5,-0.5 462.5,-26.5 521.5,-26.5 521.5,-0.5 462.5,-0.5"/>
<text text-anchor="middle" x="492" y="-9.7" font-family="Source Sans Pro" font-size="16.00">vector</text>
</a>
</g>
</g>
<!-- Node3&#45;&gt;Node7 -->
<g id="edge19" class="edge">
<title>Node3&#45;&gt;Node7</title>
<path fill="none" stroke="midnightblue" d="M424.57,-207.48C427.13,-189.46 432.82,-154.54 442,-126 452.47,-93.42 469.6,-57.63 480.83,-35.61"/>
<polygon fill="midnightblue" stroke="midnightblue" points="484.05,-37.01 485.54,-26.52 477.83,-33.8 484.05,-37.01"/>
</g>
<!-- Node3&#45;&gt;Node8 -->
<g id="edge16" class="edge">
<title>Node3&#45;&gt;Node8</title>
<path fill="none" stroke="midnightblue" d="M496.72,-220.08C615.42,-219.72 842.32,-213.3 909,-171 934.93,-154.55 950.49,-121.38 958.41,-99.3"/>
<polygon fill="midnightblue" stroke="midnightblue" points="961.75,-100.35 961.6,-89.75 955.11,-98.12 961.75,-100.35"/>
</g>
<!-- Node9 -->
<g id="node9" class="node">
<title>Node9</title>
<g id="a_node9"><a xlink:href="_i_e_a_p_i_8hpp.html" target="_top" xlink:title=" ">
<polygon fill="white" stroke="black" points="311.5,-135.5 311.5,-161.5 394.5,-161.5 394.5,-135.5 311.5,-135.5"/>
<text text-anchor="middle" x="353" y="-144.7" font-family="Source Sans Pro" font-size="16.00">IEAPI.hpp</text>
</a>
</g>
</g>
<!-- Node3&#45;&gt;Node9 -->
<g id="edge8" class="edge">
<title>Node3&#45;&gt;Node9</title>
<path fill="none" stroke="midnightblue" d="M410.81,-207.31C400.17,-196.67 384.55,-181.05 372.23,-168.73"/>
<polygon fill="midnightblue" stroke="midnightblue" points="374.6,-166.15 365.05,-161.55 369.65,-171.1 374.6,-166.15"/>
</g>
<!-- Node11 -->
<g id="node11" class="node">
<title>Node11</title>
<g id="a_node11"><a xlink:title=" ">
<polygon fill="white" stroke="#bfbfbf" points="282.5,-0.5 282.5,-26.5 345.5,-26.5 345.5,-0.5 282.5,-0.5"/>
<text text-anchor="middle" x="314" y="-9.7" font-family="Source Sans Pro" font-size="16.00">cstdint</text>
</a>
</g>
</g>
<!-- Node3&#45;&gt;Node11 -->
<g id="edge17" class="edge">
<title>Node3&#45;&gt;Node11</title>
<path fill="none" stroke="midnightblue" d="M359.65,-207.43C338.33,-200.28 316.34,-188.94 302,-171 271.81,-133.24 277.6,-109.98 289,-63 291.34,-53.37 295.94,-43.51 300.56,-35.22"/>
<polygon fill="midnightblue" stroke="midnightblue" points="303.58,-37 305.68,-26.61 297.56,-33.42 303.58,-37"/>
</g>
<!-- Node12 -->
<g id="node12" class="node">
<title>Node12</title>
<g id="a_node12"><a xlink:title=" ">
<polygon fill="white" stroke="#bfbfbf" points="714.5,-135.5 714.5,-161.5 899.5,-161.5 899.5,-135.5 714.5,-135.5"/>
<text text-anchor="middle" x="807" y="-144.7" font-family="Source Sans Pro" font-size="16.00">include/vk_mem_alloc.h</text>
</a>
</g>
</g>
<!-- Node3&#45;&gt;Node12 -->
<g id="edge14" class="edge">
<title>Node3&#45;&gt;Node12</title>
<path fill="none" stroke="midnightblue" d="M496.74,-207.69C553.93,-198.33 635.14,-184.61 706,-171 717.83,-168.73 730.41,-166.17 742.52,-163.63"/>
<polygon fill="midnightblue" stroke="midnightblue" points="743.51,-167 752.57,-161.5 742.06,-160.15 743.51,-167"/>
</g>
<!-- Node13 -->
<g id="node13" class="node">
<title>Node13</title>
<g id="a_node13"><a xlink:title=" ">
<polygon fill="white" stroke="#bfbfbf" points="0,-135.5 0,-161.5 138,-161.5 138,-135.5 0,-135.5"/>
<text text-anchor="middle" x="69" y="-144.7" font-family="Source Sans Pro" font-size="16.00">include/GL/glew.h</text>
</a>
</g>
</g>
<!-- Node3&#45;&gt;Node13 -->
<g id="edge15" class="edge">
<title>Node3&#45;&gt;Node13</title>
<path fill="none" stroke="midnightblue" d="M349.4,-208.52C293.58,-199.72 215.11,-186.33 147,-171 138.04,-168.98 128.58,-166.6 119.44,-164.16"/>
<polygon fill="midnightblue" stroke="midnightblue" points="120.27,-160.75 109.7,-161.51 118.43,-167.51 120.27,-160.75"/>
</g>
<!-- Node14 -->
<g id="node14" class="node">
<title>Node14</title>
<g id="a_node14"><a xlink:title=" ">
<polygon fill="white" stroke="#bfbfbf" points="156,-135.5 156,-161.5 242,-161.5 242,-135.5 156,-135.5"/>
<text text-anchor="middle" x="199" y="-144.7" font-family="Source Sans Pro" font-size="16.00">functional</text>
</a>
</g>
</g>
<!-- Node3&#45;&gt;Node14 -->
<g id="edge18" class="edge">
<title>Node3&#45;&gt;Node14</title>
<path fill="none" stroke="midnightblue" d="M378.05,-207.47C344.27,-198.18 296.96,-184.65 256,-171 250.47,-169.16 244.68,-167.11 239,-165.04"/>
<polygon fill="midnightblue" stroke="midnightblue" points="240.2,-161.75 229.61,-161.55 237.76,-168.31 240.2,-161.75"/>
</g>
<!-- Node4&#45;&gt;Node5 -->
<g id="edge4" class="edge">
<title>Node4&#45;&gt;Node5</title>
<path fill="none" stroke="midnightblue" d="M628.61,-126.5C656.46,-115.78 689.76,-102.98 715.33,-93.14"/>
<polygon fill="midnightblue" stroke="midnightblue" points="716.64,-96.39 724.72,-89.53 714.13,-89.85 716.64,-96.39"/>
</g>
<!-- Node6 -->
<g id="node6" class="node">
<title>Node6</title>
<g id="a_node6"><a xlink:title=" ">
<polygon fill="white" stroke="#bfbfbf" points="389.5,-0.5 389.5,-26.5 444.5,-26.5 444.5,-0.5 389.5,-0.5"/>
<text text-anchor="middle" x="417" y="-9.7" font-family="Source Sans Pro" font-size="16.00">string</text>
</a>
</g>
</g>
<!-- Node4&#45;&gt;Node6 -->
<g id="edge5" class="edge">
<title>Node4&#45;&gt;Node6</title>
<path fill="none" stroke="midnightblue" d="M549.12,-126.43C518.9,-100.83 468.38,-58.02 439.35,-33.43"/>
<polygon fill="midnightblue" stroke="midnightblue" points="441.31,-30.51 431.42,-26.71 436.79,-35.85 441.31,-30.51"/>
</g>
<!-- Node4&#45;&gt;Node7 -->
<g id="edge6" class="edge">
<title>Node4&#45;&gt;Node7</title>
<path fill="none" stroke="midnightblue" d="M565.08,-126.29C557.33,-108.74 545.28,-83.48 532,-63 525.52,-53.01 517.29,-42.72 509.99,-34.21"/>
<polygon fill="midnightblue" stroke="midnightblue" points="512.59,-31.86 503.36,-26.66 507.33,-36.48 512.59,-31.86"/>
</g>
<!-- Node4&#45;&gt;Node8 -->
<g id="edge7" class="edge">
<title>Node4&#45;&gt;Node8</title>
<path fill="none" stroke="midnightblue" d="M691.31,-126.5C756.67,-114.8 835.99,-100.6 892.37,-90.5"/>
<polygon fill="midnightblue" stroke="midnightblue" points="893.05,-93.94 902.27,-88.73 891.81,-87.05 893.05,-93.94"/>
</g>
<!-- Node9&#45;&gt;Node6 -->
<g id="edge13" class="edge">
<title>Node9&#45;&gt;Node6</title>
<path fill="none" stroke="midnightblue" d="M374,-135.39C389.09,-125.38 408.24,-109.64 417,-90 424.43,-73.33 423.78,-52.47 421.64,-36.9"/>
<polygon fill="midnightblue" stroke="midnightblue" points="425.02,-35.91 419.91,-26.63 418.12,-37.07 425.02,-35.91"/>
</g>
<!-- Node10 -->
<g id="node10" class="node">
<title>Node10</title>
<g id="a_node10"><a xlink:href="_i_e_version_8hpp.html" target="_top" xlink:title=" ">
<polygon fill="white" stroke="black" points="298,-63.5 298,-89.5 408,-89.5 408,-63.5 298,-63.5"/>
<text text-anchor="middle" x="353" y="-72.7" font-family="Source Sans Pro" font-size="16.00">IEVersion.hpp</text>
</a>
</g>
</g>
<!-- Node9&#45;&gt;Node10 -->
<g id="edge9" class="edge">
<title>Node9&#45;&gt;Node10</title>
<path fill="none" stroke="midnightblue" d="M353,-135.31C353,-125.47 353,-111.38 353,-99.57"/>
<polygon fill="midnightblue" stroke="midnightblue" points="356.5,-99.55 353,-89.55 349.5,-99.55 356.5,-99.55"/>
</g>
<!-- Node10&#45;&gt;Node6 -->
<g id="edge11" class="edge">
<title>Node10&#45;&gt;Node6</title>
<path fill="none" stroke="midnightblue" d="M365.64,-63.45C374.59,-54.93 386.76,-43.33 397,-33.56"/>
<polygon fill="midnightblue" stroke="midnightblue" points="399.56,-35.96 404.38,-26.53 394.73,-30.89 399.56,-35.96"/>
</g>
<!-- Node10&#45;&gt;Node7 -->
<g id="edge12" class="edge">
<title>Node10&#45;&gt;Node7</title>
<path fill="none" stroke="midnightblue" d="M380.46,-63.45C401.88,-54.05 431.83,-40.91 455.3,-30.61"/>
<polygon fill="midnightblue" stroke="midnightblue" points="456.84,-33.75 464.6,-26.53 454.03,-27.34 456.84,-33.75"/>
</g>
<!-- Node10&#45;&gt;Node11 -->
<g id="edge10" class="edge">
<title>Node10&#45;&gt;Node11</title>
<path fill="none" stroke="midnightblue" d="M345.29,-63.45C340.11,-55.34 333.15,-44.46 327.11,-35.01"/>
<polygon fill="midnightblue" stroke="midnightblue" points="330.02,-33.07 321.69,-26.53 324.13,-36.84 330.02,-33.07"/>
</g>
</g>
</svg>
