<?xml version="1.0" encoding="UTF-8" standalone="no"?>
<!DOCTYPE svg PUBLIC "-//W3C//DTD SVG 1.1//EN"
 "http://www.w3.org/Graphics/SVG/1.1/DTD/svg11.dtd">
<!-- Generated by graphviz version 2.43.0 (0)
 -->
<!-- Title: Illumination&#45;Engine/src/InputModule/IEKeyboard.cpp Pages: 1 -->
<svg width="879pt" height="242pt"
 viewBox="0.00 0.00 878.50 242.00" xmlns="http://www.w3.org/2000/svg" xmlns:xlink="http://www.w3.org/1999/xlink">
<g id="graph0" class="graph" transform="scale(1 1) rotate(0) translate(4 238)">
<title>Illumination&#45;Engine/src/InputModule/IEKeyboard.cpp</title>
<polygon fill="white" stroke="transparent" points="-4,4 -4,-238 874.5,-238 874.5,4 -4,4"/>
<!-- Node1 -->
<g id="node1" class="node">
<title>Node1</title>
<g id="a_node1"><a xlink:title=" ">
<polygon fill="#bfbfbf" stroke="black" points="459,-189.5 459,-233.5 705,-233.5 705,-189.5 459,-189.5"/>
<text text-anchor="start" x="467" y="-216.7" font-family="Source Sans Pro" font-size="16.00">Illumination&#45;Engine</text>
<text text-anchor="middle" x="582" y="-198.7" font-family="Source Sans Pro" font-size="16.00">/src/InputModule/IEKeyboard.cpp</text>
</a>
</g>
</g>
<!-- Node2 -->
<g id="node2" class="node">
<title>Node2</title>
<g id="a_node2"><a xlink:href="_i_e_keyboard_8hpp.html" target="_top" xlink:title=" ">
<polygon fill="white" stroke="black" points="519.5,-126.5 519.5,-152.5 644.5,-152.5 644.5,-126.5 519.5,-126.5"/>
<text text-anchor="middle" x="582" y="-135.7" font-family="Source Sans Pro" font-size="16.00">IEKeyboard.hpp</text>
</a>
</g>
</g>
<!-- Node1&#45;&gt;Node2 -->
<g id="edge1" class="edge">
<title>Node1&#45;&gt;Node2</title>
<path fill="none" stroke="midnightblue" d="M582,-189.5C582,-181 582,-171.19 582,-162.59"/>
<polygon fill="midnightblue" stroke="midnightblue" points="585.5,-162.53 582,-152.53 578.5,-162.53 585.5,-162.53"/>
</g>
<!-- Node3 -->
<g id="node3" class="node">
<title>Node3</title>
<g id="a_node3"><a xlink:href="_i_e_window_user_8hpp.html" target="_top" xlink:title=" ">
<polygon fill="white" stroke="black" points="0,-63.5 0,-89.5 194,-89.5 194,-63.5 0,-63.5"/>
<text text-anchor="middle" x="97" y="-72.7" font-family="Source Sans Pro" font-size="16.00">../Core/IEWindowUser.hpp</text>
</a>
</g>
</g>
<!-- Node2&#45;&gt;Node3 -->
<g id="edge2" class="edge">
<title>Node2&#45;&gt;Node3</title>
<path fill="none" stroke="midnightblue" d="M519.09,-130.59C439.01,-120.52 299.48,-102.97 202.88,-90.82"/>
<polygon fill="midnightblue" stroke="midnightblue" points="203.15,-87.32 192.79,-89.55 202.28,-94.27 203.15,-87.32"/>
</g>
<!-- Node5 -->
<g id="node5" class="node">
<title>Node5</title>
<g id="a_node5"><a xlink:title=" ">
<polygon fill="white" stroke="#bfbfbf" points="212,-63.5 212,-89.5 350,-89.5 350,-63.5 212,-63.5"/>
<text text-anchor="middle" x="281" y="-72.7" font-family="Source Sans Pro" font-size="16.00">include/GL/glew.h</text>
</a>
</g>
</g>
<!-- Node2&#45;&gt;Node5 -->
<g id="edge4" class="edge">
<title>Node2&#45;&gt;Node5</title>
<path fill="none" stroke="midnightblue" d="M522.53,-126.45C472.96,-116.4 402.27,-102.08 350.18,-91.52"/>
<polygon fill="midnightblue" stroke="midnightblue" points="350.84,-88.08 340.34,-89.53 349.45,-94.94 350.84,-88.08"/>
</g>
<!-- Node6 -->
<g id="node6" class="node">
<title>Node6</title>
<g id="a_node6"><a xlink:title=" ">
<polygon fill="white" stroke="#bfbfbf" points="368,-63.5 368,-89.5 476,-89.5 476,-63.5 368,-63.5"/>
<text text-anchor="middle" x="422" y="-72.7" font-family="Source Sans Pro" font-size="16.00">GLFW/glfw3.h</text>
</a>
</g>
</g>
<!-- Node2&#45;&gt;Node6 -->
<g id="edge5" class="edge">
<title>Node2&#45;&gt;Node6</title>
<path fill="none" stroke="midnightblue" d="M550.39,-126.45C525.41,-116.92 490.34,-103.55 463.17,-93.19"/>
<polygon fill="midnightblue" stroke="midnightblue" points="464.14,-89.82 453.55,-89.53 461.64,-96.36 464.14,-89.82"/>
</g>
<!-- Node7 -->
<g id="node7" class="node">
<title>Node7</title>
<g id="a_node7"><a xlink:title=" ">
<polygon fill="white" stroke="#bfbfbf" points="494,-63.5 494,-89.5 580,-89.5 580,-63.5 494,-63.5"/>
<text text-anchor="middle" x="537" y="-72.7" font-family="Source Sans Pro" font-size="16.00">functional</text>
</a>
</g>
</g>
<!-- Node2&#45;&gt;Node7 -->
<g id="edge6" class="edge">
<title>Node2&#45;&gt;Node7</title>
<path fill="none" stroke="midnightblue" d="M573.11,-126.45C567.07,-118.26 558.93,-107.23 551.91,-97.72"/>
<polygon fill="midnightblue" stroke="midnightblue" points="554.63,-95.5 545.87,-89.53 548.99,-99.65 554.63,-95.5"/>
</g>
<!-- Node8 -->
<g id="node8" class="node">
<title>Node8</title>
<g id="a_node8"><a xlink:title=" ">
<polygon fill="white" stroke="#bfbfbf" points="598.5,-63.5 598.5,-89.5 657.5,-89.5 657.5,-63.5 598.5,-63.5"/>
<text text-anchor="middle" x="628" y="-72.7" font-family="Source Sans Pro" font-size="16.00">vector</text>
</a>
</g>
</g>
<!-- Node2&#45;&gt;Node8 -->
<g id="edge7" class="edge">
<title>Node2&#45;&gt;Node8</title>
<path fill="none" stroke="midnightblue" d="M591.09,-126.45C597.26,-118.26 605.58,-107.23 612.76,-97.72"/>
<polygon fill="midnightblue" stroke="midnightblue" points="615.7,-99.62 618.93,-89.53 610.12,-95.4 615.7,-99.62"/>
</g>
<!-- Node9 -->
<g id="node9" class="node">
<title>Node9</title>
<g id="a_node9"><a xlink:title=" ">
<polygon fill="white" stroke="#bfbfbf" points="675.5,-63.5 675.5,-89.5 716.5,-89.5 716.5,-63.5 675.5,-63.5"/>
<text text-anchor="middle" x="696" y="-72.7" font-family="Source Sans Pro" font-size="16.00">any</text>
</a>
</g>
</g>
<!-- Node2&#45;&gt;Node9 -->
<g id="edge8" class="edge">
<title>Node2&#45;&gt;Node9</title>
<path fill="none" stroke="midnightblue" d="M604.52,-126.45C622.26,-116.96 647.12,-103.66 666.45,-93.31"/>
<polygon fill="midnightblue" stroke="midnightblue" points="668.27,-96.31 675.44,-88.5 664.97,-90.13 668.27,-96.31"/>
</g>
<!-- Node10 -->
<g id="node10" class="node">
<title>Node10</title>
<g id="a_node10"><a xlink:title=" ">
<polygon fill="white" stroke="#bfbfbf" points="734.5,-63.5 734.5,-89.5 789.5,-89.5 789.5,-63.5 734.5,-63.5"/>
<text text-anchor="middle" x="762" y="-72.7" font-family="Source Sans Pro" font-size="16.00">string</text>
</a>
</g>
</g>
<!-- Node2&#45;&gt;Node10 -->
<g id="edge9" class="edge">
<title>Node2&#45;&gt;Node10</title>
<path fill="none" stroke="midnightblue" d="M618.13,-126.43C645.22,-117.36 683.46,-104.51 725.01,-90.32"/>
<polygon fill="midnightblue" stroke="midnightblue" points="726.16,-93.63 734.49,-87.08 723.9,-87 726.16,-93.63"/>
</g>
<!-- Node11 -->
<g id="node11" class="node">
<title>Node11</title>
<g id="a_node11"><a xlink:title=" ">
<polygon fill="white" stroke="#bfbfbf" points="807.5,-63.5 807.5,-89.5 870.5,-89.5 870.5,-63.5 807.5,-63.5"/>
<text text-anchor="middle" x="839" y="-72.7" font-family="Source Sans Pro" font-size="16.00">cstdint</text>
</a>
</g>
</g>
<!-- Node2&#45;&gt;Node11 -->
<g id="edge10" class="edge">
<title>Node2&#45;&gt;Node11</title>
<path fill="none" stroke="midnightblue" d="M642.2,-126.45C683.54,-117.85 739.85,-105.51 797.23,-90.36"/>
<polygon fill="midnightblue" stroke="midnightblue" points="798.43,-93.66 807.19,-87.7 796.63,-86.9 798.43,-93.66"/>
</g>
<!-- Node4 -->
<g id="node4" class="node">
<title>Node4</title>
<g id="a_node4"><a xlink:title=" ">
<polygon fill="white" stroke="#bfbfbf" points="60,-0.5 60,-26.5 134,-26.5 134,-0.5 60,-0.5"/>
<text text-anchor="middle" x="97" y="-9.7" font-family="Source Sans Pro" font-size="16.00">memory</text>
</a>
</g>
</g>
<!-- Node3&#45;&gt;Node4 -->
<g id="edge3" class="edge">
<title>Node3&#45;&gt;Node4</title>
<path fill="none" stroke="midnightblue" d="M97,-63.45C97,-55.85 97,-45.79 97,-36.78"/>
<polygon fill="midnightblue" stroke="midnightblue" points="100.5,-36.53 97,-26.53 93.5,-36.53 100.5,-36.53"/>
</g>
</g>
</svg>
