<?xml version="1.0" encoding="UTF-8" standalone="no"?>
<!DOCTYPE svg PUBLIC "-//W3C//DTD SVG 1.1//EN"
 "http://www.w3.org/Graphics/SVG/1.1/DTD/svg11.dtd">
<!-- Generated by graphviz version 2.43.0 (0)
 -->
<!-- Title: Illumination&#45;Engine/src/GraphicsModule/Renderable/IEVertex.hpp Pages: 1 -->
<svg width="976pt" height="449pt"
 viewBox="0.00 0.00 975.50 449.00" xmlns="http://www.w3.org/2000/svg" xmlns:xlink="http://www.w3.org/1999/xlink">
<g id="graph0" class="graph" transform="scale(1 1) rotate(0) translate(4 445)">
<title>Illumination&#45;Engine/src/GraphicsModule/Renderable/IEVertex.hpp</title>
<polygon fill="white" stroke="transparent" points="-4,4 -4,-445 971.5,-445 971.5,4 -4,4"/>
<!-- Node1 -->
<g id="node1" class="node">
<title>Node1</title>
<g id="a_node1"><a xlink:title=" ">
<polygon fill="#bfbfbf" stroke="black" points="527.5,-378.5 527.5,-440.5 717.5,-440.5 717.5,-378.5 527.5,-378.5"/>
<text text-anchor="start" x="535.5" y="-423.7" font-family="Source Sans Pro" font-size="16.00">Illumination&#45;Engine</text>
<text text-anchor="start" x="535.5" y="-405.7" font-family="Source Sans Pro" font-size="16.00">/src/GraphicsModule</text>
<text text-anchor="middle" x="622.5" y="-387.7" font-family="Source Sans Pro" font-size="16.00">/Renderable/IEVertex.hpp</text>
</a>
</g>
</g>
<!-- Node2 -->
<g id="node2" class="node">
<title>Node2</title>
<g id="a_node2"><a xlink:href="_i_e_mesh_8hpp.html" target="_top" xlink:title=" ">
<polygon fill="white" stroke="black" points="338,-279.5 338,-341.5 523,-341.5 523,-279.5 338,-279.5"/>
<text text-anchor="start" x="346" y="-324.7" font-family="Source Sans Pro" font-size="16.00">Illumination&#45;Engine</text>
<text text-anchor="start" x="346" y="-306.7" font-family="Source Sans Pro" font-size="16.00">/src/GraphicsModule</text>
<text text-anchor="middle" x="430.5" y="-288.7" font-family="Source Sans Pro" font-size="16.00">/Renderable/IEMesh.hpp</text>
</a>
</g>
</g>
<!-- Node1&#45;&gt;Node2 -->
<g id="edge1" class="edge">
<title>Node1&#45;&gt;Node2</title>
<path fill="none" stroke="midnightblue" d="M553.93,-373.86C533.02,-363.3 510.23,-351.78 489.98,-341.55"/>
<polygon fill="midnightblue" stroke="midnightblue" points="552.56,-377.09 563.06,-378.47 555.72,-370.84 552.56,-377.09"/>
</g>
<!-- Node6 -->
<g id="node6" class="node">
<title>Node6</title>
<g id="a_node6"><a xlink:href="_i_e_renderable_8hpp.html" target="_top" xlink:title=" ">
<polygon fill="white" stroke="black" points="459,-180.5 459,-242.5 686,-242.5 686,-180.5 459,-180.5"/>
<text text-anchor="start" x="467" y="-225.7" font-family="Source Sans Pro" font-size="16.00">Illumination&#45;Engine</text>
<text text-anchor="start" x="467" y="-207.7" font-family="Source Sans Pro" font-size="16.00">/src/GraphicsModule</text>
<text text-anchor="middle" x="572.5" y="-189.7" font-family="Source Sans Pro" font-size="16.00">/Renderable/IERenderable.hpp</text>
</a>
</g>
</g>
<!-- Node1&#45;&gt;Node6 -->
<g id="edge9" class="edge">
<title>Node1&#45;&gt;Node6</title>
<path fill="none" stroke="midnightblue" d="M593.6,-369.86C588.36,-361.1 583.59,-351.55 580.5,-342 569.9,-309.21 569.12,-269.35 570.2,-242.59"/>
<polygon fill="midnightblue" stroke="midnightblue" points="590.65,-371.74 598.95,-378.33 596.57,-368 590.65,-371.74"/>
</g>
<!-- Node9 -->
<g id="node9" class="node">
<title>Node9</title>
<g id="a_node9"><a xlink:href="_i_e_vertex_8cpp.html" target="_top" xlink:title=" ">
<polygon fill="white" stroke="black" points="589.5,-279.5 589.5,-341.5 777.5,-341.5 777.5,-279.5 589.5,-279.5"/>
<text text-anchor="start" x="597.5" y="-324.7" font-family="Source Sans Pro" font-size="16.00">Illumination&#45;Engine</text>
<text text-anchor="start" x="597.5" y="-306.7" font-family="Source Sans Pro" font-size="16.00">/src/GraphicsModule</text>
<text text-anchor="middle" x="683.5" y="-288.7" font-family="Source Sans Pro" font-size="16.00">/Renderable/IEVertex.cpp</text>
</a>
</g>
</g>
<!-- Node1&#45;&gt;Node9 -->
<g id="edge10" class="edge">
<title>Node1&#45;&gt;Node9</title>
<path fill="none" stroke="midnightblue" d="M646.96,-369.61C652.81,-360.3 658.98,-350.49 664.55,-341.64"/>
<polygon fill="midnightblue" stroke="midnightblue" points="643.83,-368.01 641.47,-378.34 649.75,-371.74 643.83,-368.01"/>
</g>
<!-- Node10 -->
<g id="node10" class="node">
<title>Node10</title>
<g id="a_node10"><a xlink:href="_i_e_pipeline_8cpp.html" target="_top" xlink:title=" ">
<polygon fill="white" stroke="black" points="795.5,-279.5 795.5,-341.5 967.5,-341.5 967.5,-279.5 795.5,-279.5"/>
<text text-anchor="start" x="803.5" y="-324.7" font-family="Source Sans Pro" font-size="16.00">Illumination&#45;Engine</text>
<text text-anchor="start" x="803.5" y="-306.7" font-family="Source Sans Pro" font-size="16.00">/src/GraphicsModule</text>
<text text-anchor="middle" x="881.5" y="-288.7" font-family="Source Sans Pro" font-size="16.00">/Shader/IEPipeline.cpp</text>
</a>
</g>
</g>
<!-- Node1&#45;&gt;Node10 -->
<g id="edge11" class="edge">
<title>Node1&#45;&gt;Node10</title>
<path fill="none" stroke="midnightblue" d="M712.36,-374.85C741.26,-364.02 773.09,-352.1 801.26,-341.55"/>
<polygon fill="midnightblue" stroke="midnightblue" points="710.81,-371.69 702.68,-378.47 713.27,-378.24 710.81,-371.69"/>
</g>
<!-- Node3 -->
<g id="node3" class="node">
<title>Node3</title>
<g id="a_node3"><a xlink:href="_i_e_material_8cpp.html" target="_top" xlink:title=" ">
<polygon fill="white" stroke="black" points="0,-180.5 0,-242.5 201,-242.5 201,-180.5 0,-180.5"/>
<text text-anchor="start" x="8" y="-225.7" font-family="Source Sans Pro" font-size="16.00">Illumination&#45;Engine</text>
<text text-anchor="start" x="8" y="-207.7" font-family="Source Sans Pro" font-size="16.00">/src/GraphicsModule</text>
<text text-anchor="middle" x="100.5" y="-189.7" font-family="Source Sans Pro" font-size="16.00">/Renderable/IEMaterial.cpp</text>
</a>
</g>
</g>
<!-- Node2&#45;&gt;Node3 -->
<g id="edge2" class="edge">
<title>Node2&#45;&gt;Node3</title>
<path fill="none" stroke="midnightblue" d="M327.85,-279.33C287.54,-267.48 241.4,-253.92 201.27,-242.12"/>
<polygon fill="midnightblue" stroke="midnightblue" points="327.12,-282.76 337.7,-282.22 329.09,-276.04 327.12,-282.76"/>
</g>
<!-- Node4 -->
<g id="node4" class="node">
<title>Node4</title>
<g id="a_node4"><a xlink:href="_i_e_mesh_8cpp.html" target="_top" xlink:title=" ">
<polygon fill="white" stroke="black" points="219,-180.5 219,-242.5 402,-242.5 402,-180.5 219,-180.5"/>
<text text-anchor="start" x="227" y="-225.7" font-family="Source Sans Pro" font-size="16.00">Illumination&#45;Engine</text>
<text text-anchor="start" x="227" y="-207.7" font-family="Source Sans Pro" font-size="16.00">/src/GraphicsModule</text>
<text text-anchor="middle" x="310.5" y="-189.7" font-family="Source Sans Pro" font-size="16.00">/Renderable/IEMesh.cpp</text>
</a>
</g>
</g>
<!-- Node2&#45;&gt;Node4 -->
<g id="edge3" class="edge">
<title>Node2&#45;&gt;Node4</title>
<path fill="none" stroke="midnightblue" d="M385.23,-272.9C372.88,-262.92 359.64,-252.22 347.79,-242.64"/>
<polygon fill="midnightblue" stroke="midnightblue" points="383.21,-275.78 393.19,-279.34 387.61,-270.33 383.21,-275.78"/>
</g>
<!-- Node5 -->
<g id="node5" class="node">
<title>Node5</title>
<g id="a_node5"><a xlink:href="_i_e_renderable_8cpp.html" target="_top" xlink:title=" ">
<polygon fill="white" stroke="black" points="318,-81.5 318,-143.5 543,-143.5 543,-81.5 318,-81.5"/>
<text text-anchor="start" x="326" y="-126.7" font-family="Source Sans Pro" font-size="16.00">Illumination&#45;Engine</text>
<text text-anchor="start" x="326" y="-108.7" font-family="Source Sans Pro" font-size="16.00">/src/GraphicsModule</text>
<text text-anchor="middle" x="430.5" y="-90.7" font-family="Source Sans Pro" font-size="16.00">/Renderable/IERenderable.cpp</text>
</a>
</g>
</g>
<!-- Node2&#45;&gt;Node5 -->
<g id="edge4" class="edge">
<title>Node2&#45;&gt;Node5</title>
<path fill="none" stroke="midnightblue" d="M430.5,-269.29C430.5,-232.02 430.5,-177.41 430.5,-143.73"/>
<polygon fill="midnightblue" stroke="midnightblue" points="427,-269.3 430.5,-279.3 434,-269.3 427,-269.3"/>
</g>
<!-- Node2&#45;&gt;Node6 -->
<g id="edge5" class="edge">
<title>Node2&#45;&gt;Node6</title>
<path fill="none" stroke="midnightblue" d="M483.24,-273.47C498.09,-263.33 514.09,-252.4 528.38,-242.64"/>
<polygon fill="midnightblue" stroke="midnightblue" points="480.93,-270.81 474.65,-279.34 484.88,-276.59 480.93,-270.81"/>
</g>
<!-- Node6&#45;&gt;Node5 -->
<g id="edge8" class="edge">
<title>Node6&#45;&gt;Node5</title>
<path fill="none" stroke="midnightblue" d="M519.76,-174.47C504.91,-164.33 488.91,-153.4 474.62,-143.64"/>
<polygon fill="midnightblue" stroke="midnightblue" points="518.12,-177.59 528.35,-180.34 522.07,-171.81 518.12,-177.59"/>
</g>
<!-- Node7 -->
<g id="node7" class="node">
<title>Node7</title>
<g id="a_node7"><a xlink:href="_i_e_render_engine_8cpp.html" target="_top" xlink:title=" ">
<polygon fill="white" stroke="black" points="561,-81.5 561,-143.5 720,-143.5 720,-81.5 561,-81.5"/>
<text text-anchor="start" x="569" y="-126.7" font-family="Source Sans Pro" font-size="16.00">Illumination&#45;Engine</text>
<text text-anchor="start" x="569" y="-108.7" font-family="Source Sans Pro" font-size="16.00">/src/GraphicsModule</text>
<text text-anchor="middle" x="640.5" y="-90.7" font-family="Source Sans Pro" font-size="16.00">/IERenderEngine.cpp</text>
</a>
</g>
</g>
<!-- Node6&#45;&gt;Node7 -->
<g id="edge6" class="edge">
<title>Node6&#45;&gt;Node7</title>
<path fill="none" stroke="midnightblue" d="M599.56,-171.9C606.15,-162.5 613.1,-152.58 619.37,-143.64"/>
<polygon fill="midnightblue" stroke="midnightblue" points="596.52,-170.14 593.64,-180.34 602.25,-174.16 596.52,-170.14"/>
</g>
<!-- Node8 -->
<g id="node8" class="node">
<title>Node8</title>
<g id="a_node8"><a xlink:href="main_8cpp.html" target="_top" xlink:title=" ">
<polygon fill="white" stroke="black" points="565.5,-0.5 565.5,-44.5 715.5,-44.5 715.5,-0.5 565.5,-0.5"/>
<text text-anchor="start" x="573.5" y="-27.7" font-family="Source Sans Pro" font-size="16.00">Illumination&#45;Engine</text>
<text text-anchor="middle" x="640.5" y="-9.7" font-family="Source Sans Pro" font-size="16.00">/src/main.cpp</text>
</a>
</g>
</g>
<!-- Node7&#45;&gt;Node8 -->
<g id="edge7" class="edge">
<title>Node7&#45;&gt;Node8</title>
<path fill="none" stroke="midnightblue" d="M640.5,-71.09C640.5,-61.97 640.5,-52.64 640.5,-44.68"/>
<polygon fill="midnightblue" stroke="midnightblue" points="637,-71.22 640.5,-81.22 644,-71.22 637,-71.22"/>
</g>
</g>
</svg>
