<?xml version="1.0" encoding="UTF-8" standalone="no"?>
<!DOCTYPE svg PUBLIC "-//W3C//DTD SVG 1.1//EN"
 "http://www.w3.org/Graphics/SVG/1.1/DTD/svg11.dtd">
<!-- Generated by graphviz version 2.43.0 (0)
 -->
<!-- Title: Illumination&#45;Engine/src/GraphicsModule/Shader/IEShader.hpp Pages: 1 -->
<svg width="3583pt" height="584pt"
 viewBox="0.00 0.00 3582.50 584.00" xmlns="http://www.w3.org/2000/svg" xmlns:xlink="http://www.w3.org/1999/xlink">
<g id="graph0" class="graph" transform="scale(1 1) rotate(0) translate(4 580)">
<title>Illumination&#45;Engine/src/GraphicsModule/Shader/IEShader.hpp</title>
<polygon fill="white" stroke="transparent" points="-4,4 -4,-580 3578.5,-580 3578.5,4 -4,4"/>
<!-- Node1 -->
<g id="node1" class="node">
<title>Node1</title>
<g id="a_node1"><a xlink:title=" ">
<polygon fill="#bfbfbf" stroke="black" points="2082,-513.5 2082,-575.5 2248,-575.5 2248,-513.5 2082,-513.5"/>
<text text-anchor="start" x="2090" y="-558.7" font-family="Source Sans Pro" font-size="16.00">Illumination&#45;Engine</text>
<text text-anchor="start" x="2090" y="-540.7" font-family="Source Sans Pro" font-size="16.00">/src/GraphicsModule</text>
<text text-anchor="middle" x="2165" y="-522.7" font-family="Source Sans Pro" font-size="16.00">/Shader/IEShader.hpp</text>
</a>
</g>
</g>
<!-- Node2 -->
<g id="node2" class="node">
<title>Node2</title>
<g id="a_node2"><a xlink:href="_i_e_renderable_8hpp.html" target="_top" xlink:title=" ">
<polygon fill="white" stroke="black" points="2445.5,-216.5 2445.5,-278.5 2672.5,-278.5 2672.5,-216.5 2445.5,-216.5"/>
<text text-anchor="start" x="2453.5" y="-261.7" font-family="Source Sans Pro" font-size="16.00">Illumination&#45;Engine</text>
<text text-anchor="start" x="2453.5" y="-243.7" font-family="Source Sans Pro" font-size="16.00">/src/GraphicsModule</text>
<text text-anchor="middle" x="2559" y="-225.7" font-family="Source Sans Pro" font-size="16.00">/Renderable/IERenderable.hpp</text>
</a>
</g>
</g>
<!-- Node1&#45;&gt;Node2 -->
<g id="edge1" class="edge">
<title>Node1&#45;&gt;Node2</title>
<path fill="none" stroke="midnightblue" d="M2230.27,-508.34C2285.67,-477.2 2366.11,-428.91 2430,-378 2468.47,-347.35 2507.64,-306.34 2532.57,-278.75"/>
<polygon fill="midnightblue" stroke="midnightblue" points="2228.28,-505.44 2221.25,-513.37 2231.69,-511.55 2228.28,-505.44"/>
</g>
<!-- Node19 -->
<g id="node19" class="node">
<title>Node19</title>
<g id="a_node19"><a xlink:href="_i_e_shader_8cpp.html" target="_top" xlink:title=" ">
<polygon fill="white" stroke="black" points="0,-0.5 0,-62.5 164,-62.5 164,-0.5 0,-0.5"/>
<text text-anchor="start" x="8" y="-45.7" font-family="Source Sans Pro" font-size="16.00">Illumination&#45;Engine</text>
<text text-anchor="start" x="8" y="-27.7" font-family="Source Sans Pro" font-size="16.00">/src/GraphicsModule</text>
<text text-anchor="middle" x="82" y="-9.7" font-family="Source Sans Pro" font-size="16.00">/Shader/IEShader.cpp</text>
</a>
</g>
</g>
<!-- Node1&#45;&gt;Node19 -->
<g id="edge43" class="edge">
<title>Node1&#45;&gt;Node19</title>
<path fill="none" stroke="midnightblue" d="M2071.69,-543.71C1691.47,-543.37 279,-529.83 279,-347.5 279,-347.5 279,-347.5 279,-246.5 279,-163.05 196.91,-98.17 138.72,-62.65"/>
<polygon fill="midnightblue" stroke="midnightblue" points="2071.83,-547.21 2081.83,-543.72 2071.84,-540.21 2071.83,-547.21"/>
</g>
<!-- Node21 -->
<g id="node21" class="node">
<title>Node21</title>
<g id="a_node21"><a xlink:href="_i_e_pipeline_8hpp.html" target="_top" xlink:title=" ">
<polygon fill="white" stroke="black" points="2078.5,-414.5 2078.5,-476.5 2251.5,-476.5 2251.5,-414.5 2078.5,-414.5"/>
<text text-anchor="start" x="2086.5" y="-459.7" font-family="Source Sans Pro" font-size="16.00">Illumination&#45;Engine</text>
<text text-anchor="start" x="2086.5" y="-441.7" font-family="Source Sans Pro" font-size="16.00">/src/GraphicsModule</text>
<text text-anchor="middle" x="2165" y="-423.7" font-family="Source Sans Pro" font-size="16.00">/Shader/IEPipeline.hpp</text>
</a>
</g>
</g>
<!-- Node1&#45;&gt;Node21 -->
<g id="edge22" class="edge">
<title>Node1&#45;&gt;Node21</title>
<path fill="none" stroke="midnightblue" d="M2165,-503.17C2165,-494.29 2165,-485.03 2165,-476.64"/>
<polygon fill="midnightblue" stroke="midnightblue" points="2161.5,-503.34 2165,-513.34 2168.5,-503.34 2161.5,-503.34"/>
</g>
<!-- Node3 -->
<g id="node3" class="node">
<title>Node3</title>
<g id="a_node3"><a xlink:href="_i_e_render_engine_8cpp.html" target="_top" xlink:title=" ">
<polygon fill="white" stroke="black" points="2752.5,-0.5 2752.5,-62.5 2911.5,-62.5 2911.5,-0.5 2752.5,-0.5"/>
<text text-anchor="start" x="2760.5" y="-45.7" font-family="Source Sans Pro" font-size="16.00">Illumination&#45;Engine</text>
<text text-anchor="start" x="2760.5" y="-27.7" font-family="Source Sans Pro" font-size="16.00">/src/GraphicsModule</text>
<text text-anchor="middle" x="2832" y="-9.7" font-family="Source Sans Pro" font-size="16.00">/IERenderEngine.cpp</text>
</a>
</g>
</g>
<!-- Node2&#45;&gt;Node3 -->
<g id="edge2" class="edge">
<title>Node2&#45;&gt;Node3</title>
<path fill="none" stroke="midnightblue" d="M2605.43,-210.1C2658.47,-168.53 2744.27,-101.27 2793.66,-62.55"/>
<polygon fill="midnightblue" stroke="midnightblue" points="2603.25,-207.37 2597.54,-216.29 2607.56,-212.88 2603.25,-207.37"/>
</g>
<!-- Node4 -->
<g id="node4" class="node">
<title>Node4</title>
<g id="a_node4"><a xlink:href="_i_e_render_engine_8hpp.html" target="_top" xlink:title=" ">
<polygon fill="white" stroke="black" points="1730.5,-108.5 1730.5,-170.5 1891.5,-170.5 1891.5,-108.5 1730.5,-108.5"/>
<text text-anchor="start" x="1738.5" y="-153.7" font-family="Source Sans Pro" font-size="16.00">Illumination&#45;Engine</text>
<text text-anchor="start" x="1738.5" y="-135.7" font-family="Source Sans Pro" font-size="16.00">/src/GraphicsModule</text>
<text text-anchor="middle" x="1811" y="-117.7" font-family="Source Sans Pro" font-size="16.00">/IERenderEngine.hpp</text>
</a>
</g>
</g>
<!-- Node2&#45;&gt;Node4 -->
<g id="edge3" class="edge">
<title>Node2&#45;&gt;Node4</title>
<path fill="none" stroke="midnightblue" d="M2435.43,-233.18C2384.52,-227.75 2324.93,-221.48 2271,-216 2106.63,-199.3 2060.87,-221.72 1901,-180 1891.59,-177.54 1881.91,-174.22 1872.54,-170.54"/>
<polygon fill="midnightblue" stroke="midnightblue" points="2435.18,-236.67 2445.49,-234.25 2435.92,-229.71 2435.18,-236.67"/>
</g>
<!-- Node16 -->
<g id="node16" class="node">
<title>Node16</title>
<g id="a_node16"><a xlink:href="_i_e_renderable_8cpp.html" target="_top" xlink:title=" ">
<polygon fill="white" stroke="black" points="3349.5,-0.5 3349.5,-62.5 3574.5,-62.5 3574.5,-0.5 3349.5,-0.5"/>
<text text-anchor="start" x="3357.5" y="-45.7" font-family="Source Sans Pro" font-size="16.00">Illumination&#45;Engine</text>
<text text-anchor="start" x="3357.5" y="-27.7" font-family="Source Sans Pro" font-size="16.00">/src/GraphicsModule</text>
<text text-anchor="middle" x="3462" y="-9.7" font-family="Source Sans Pro" font-size="16.00">/Renderable/IERenderable.cpp</text>
</a>
</g>
</g>
<!-- Node2&#45;&gt;Node16 -->
<g id="edge21" class="edge">
<title>Node2&#45;&gt;Node16</title>
<path fill="none" stroke="midnightblue" d="M2682.77,-218.12C2837.07,-182.58 3108.81,-119.5 3341,-63 3343.74,-62.33 3346.51,-61.66 3349.3,-60.97"/>
<polygon fill="midnightblue" stroke="midnightblue" points="2681.74,-214.76 2672.78,-220.42 2683.31,-221.59 2681.74,-214.76"/>
</g>
<!-- Node4&#45;&gt;Node3 -->
<g id="edge9" class="edge">
<title>Node4&#45;&gt;Node3</title>
<path fill="none" stroke="midnightblue" d="M1881.08,-104.83C1887.7,-102.53 1894.41,-100.53 1901,-99 2266.29,-14.19 2375.61,-133.14 2744,-63 2746.7,-62.49 2749.43,-61.91 2752.17,-61.27"/>
<polygon fill="midnightblue" stroke="midnightblue" points="1879.62,-101.63 1871.44,-108.37 1882.03,-108.2 1879.62,-101.63"/>
</g>
<!-- Node5 -->
<g id="node5" class="node">
<title>Node5</title>
<g id="a_node5"><a xlink:href="_i_e_buffer_8cpp.html" target="_top" xlink:title=" ">
<polygon fill="white" stroke="black" points="986.5,-0.5 986.5,-62.5 1143.5,-62.5 1143.5,-0.5 986.5,-0.5"/>
<text text-anchor="start" x="994.5" y="-45.7" font-family="Source Sans Pro" font-size="16.00">Illumination&#45;Engine</text>
<text text-anchor="start" x="994.5" y="-27.7" font-family="Source Sans Pro" font-size="16.00">/src/GraphicsModule</text>
<text text-anchor="middle" x="1065" y="-9.7" font-family="Source Sans Pro" font-size="16.00">/Buffer/IEBuffer.cpp</text>
</a>
</g>
</g>
<!-- Node4&#45;&gt;Node5 -->
<g id="edge4" class="edge">
<title>Node4&#45;&gt;Node5</title>
<path fill="none" stroke="midnightblue" d="M1728.56,-105.41C1720.36,-102.92 1712.07,-100.72 1704,-99 1463.52,-47.9 1392.9,-112.12 1152,-63 1149.33,-62.46 1146.64,-61.85 1143.93,-61.19"/>
<polygon fill="midnightblue" stroke="midnightblue" points="1727.56,-108.76 1738.15,-108.45 1729.68,-102.09 1727.56,-108.76"/>
</g>
<!-- Node6 -->
<g id="node6" class="node">
<title>Node6</title>
<g id="a_node6"><a xlink:href="_i_e_command_buffer_8cpp.html" target="_top" xlink:title=" ">
<polygon fill="white" stroke="black" points="372.5,-0.5 372.5,-62.5 665.5,-62.5 665.5,-0.5 372.5,-0.5"/>
<text text-anchor="start" x="380.5" y="-45.7" font-family="Source Sans Pro" font-size="16.00">Illumination&#45;Engine</text>
<text text-anchor="start" x="380.5" y="-27.7" font-family="Source Sans Pro" font-size="16.00">/src/GraphicsModule</text>
<text text-anchor="middle" x="519" y="-9.7" font-family="Source Sans Pro" font-size="16.00">/CommandBuffer/IECommandBuffer.cpp</text>
</a>
</g>
</g>
<!-- Node4&#45;&gt;Node6 -->
<g id="edge5" class="edge">
<title>Node4&#45;&gt;Node6</title>
<path fill="none" stroke="midnightblue" d="M1720.25,-125.05C1657.88,-116.3 1573.09,-105.37 1498,-99 1133.18,-68.05 1038.56,-106.25 675,-63 671.99,-62.64 668.94,-62.26 665.88,-61.85"/>
<polygon fill="midnightblue" stroke="midnightblue" points="1720.06,-128.56 1730.45,-126.49 1721.04,-121.63 1720.06,-128.56"/>
</g>
<!-- Node7 -->
<g id="node7" class="node">
<title>Node7</title>
<g id="a_node7"><a xlink:href="_i_e_command_pool_8cpp.html" target="_top" xlink:title=" ">
<polygon fill="white" stroke="black" points="684,-0.5 684,-62.5 968,-62.5 968,-0.5 684,-0.5"/>
<text text-anchor="start" x="692" y="-45.7" font-family="Source Sans Pro" font-size="16.00">Illumination&#45;Engine</text>
<text text-anchor="start" x="692" y="-27.7" font-family="Source Sans Pro" font-size="16.00">/src/GraphicsModule</text>
<text text-anchor="middle" x="826" y="-9.7" font-family="Source Sans Pro" font-size="16.00">/CommandBuffer/IECommandPool.cpp</text>
</a>
</g>
</g>
<!-- Node4&#45;&gt;Node7 -->
<g id="edge6" class="edge">
<title>Node4&#45;&gt;Node7</title>
<path fill="none" stroke="midnightblue" d="M1729.02,-105.4C1720.66,-102.89 1712.23,-100.68 1704,-99 1387.04,-34.23 1298.01,-103.14 977,-63 974.08,-62.63 971.13,-62.25 968.17,-61.83"/>
<polygon fill="midnightblue" stroke="midnightblue" points="1728.18,-108.81 1738.77,-108.48 1730.28,-102.13 1728.18,-108.81"/>
</g>
<!-- Node8 -->
<g id="node8" class="node">
<title>Node8</title>
<g id="a_node8"><a xlink:href="_i_e_a_p_i_8cpp.html" target="_top" xlink:title=" ">
<polygon fill="white" stroke="black" points="1161.5,-0.5 1161.5,-62.5 1318.5,-62.5 1318.5,-0.5 1161.5,-0.5"/>
<text text-anchor="start" x="1169.5" y="-45.7" font-family="Source Sans Pro" font-size="16.00">Illumination&#45;Engine</text>
<text text-anchor="start" x="1169.5" y="-27.7" font-family="Source Sans Pro" font-size="16.00">/src/GraphicsModule</text>
<text text-anchor="middle" x="1240" y="-9.7" font-family="Source Sans Pro" font-size="16.00">/IEAPI.cpp</text>
</a>
</g>
</g>
<!-- Node4&#45;&gt;Node8 -->
<g id="edge7" class="edge">
<title>Node4&#45;&gt;Node8</title>
<path fill="none" stroke="midnightblue" d="M1727.61,-105.39C1719.71,-102.96 1711.75,-100.77 1704,-99 1539.9,-61.54 1491.4,-99.11 1327,-63 1324.34,-62.42 1321.65,-61.78 1318.95,-61.09"/>
<polygon fill="midnightblue" stroke="midnightblue" points="1726.62,-108.74 1737.21,-108.46 1728.75,-102.08 1726.62,-108.74"/>
</g>
<!-- Node9 -->
<g id="node9" class="node">
<title>Node9</title>
<g id="a_node9"><a xlink:href="_i_e_camera_8cpp.html" target="_top" xlink:title=" ">
<polygon fill="white" stroke="black" points="1336.5,-0.5 1336.5,-62.5 1493.5,-62.5 1493.5,-0.5 1336.5,-0.5"/>
<text text-anchor="start" x="1344.5" y="-45.7" font-family="Source Sans Pro" font-size="16.00">Illumination&#45;Engine</text>
<text text-anchor="start" x="1344.5" y="-27.7" font-family="Source Sans Pro" font-size="16.00">/src/GraphicsModule</text>
<text text-anchor="middle" x="1415" y="-9.7" font-family="Source Sans Pro" font-size="16.00">/IECamera.cpp</text>
</a>
</g>
</g>
<!-- Node4&#45;&gt;Node9 -->
<g id="edge8" class="edge">
<title>Node4&#45;&gt;Node9</title>
<path fill="none" stroke="midnightblue" d="M1725.05,-105.28C1717.98,-103.01 1710.9,-100.87 1704,-99 1616.42,-75.19 1590.81,-85.93 1503,-63 1500.03,-62.22 1497.01,-61.39 1493.97,-60.53"/>
<polygon fill="midnightblue" stroke="midnightblue" points="1724.08,-108.65 1734.67,-108.47 1726.28,-102.01 1724.08,-108.65"/>
</g>
<!-- Node10 -->
<g id="node10" class="node">
<title>Node10</title>
<g id="a_node10"><a xlink:href="_i_e_image_8cpp.html" target="_top" xlink:title=" ">
<polygon fill="white" stroke="black" points="1511.5,-0.5 1511.5,-62.5 1668.5,-62.5 1668.5,-0.5 1511.5,-0.5"/>
<text text-anchor="start" x="1519.5" y="-45.7" font-family="Source Sans Pro" font-size="16.00">Illumination&#45;Engine</text>
<text text-anchor="start" x="1519.5" y="-27.7" font-family="Source Sans Pro" font-size="16.00">/src/GraphicsModule</text>
<text text-anchor="middle" x="1590" y="-9.7" font-family="Source Sans Pro" font-size="16.00">/Image/IEImage.cpp</text>
</a>
</g>
</g>
<!-- Node4&#45;&gt;Node10 -->
<g id="edge10" class="edge">
<title>Node4&#45;&gt;Node10</title>
<path fill="none" stroke="midnightblue" d="M1739,-103.96C1711.22,-90.64 1679.74,-75.54 1652.9,-62.67"/>
<polygon fill="midnightblue" stroke="midnightblue" points="1737.73,-107.24 1748.26,-108.41 1740.76,-100.93 1737.73,-107.24"/>
</g>
<!-- Node11 -->
<g id="node11" class="node">
<title>Node11</title>
<g id="a_node11"><a xlink:href="_i_e_texture_8cpp.html" target="_top" xlink:title=" ">
<polygon fill="white" stroke="black" points="1686.5,-0.5 1686.5,-62.5 1847.5,-62.5 1847.5,-0.5 1686.5,-0.5"/>
<text text-anchor="start" x="1694.5" y="-45.7" font-family="Source Sans Pro" font-size="16.00">Illumination&#45;Engine</text>
<text text-anchor="start" x="1694.5" y="-27.7" font-family="Source Sans Pro" font-size="16.00">/src/GraphicsModule</text>
<text text-anchor="middle" x="1767" y="-9.7" font-family="Source Sans Pro" font-size="16.00">/Image/IETexture.cpp</text>
</a>
</g>
</g>
<!-- Node4&#45;&gt;Node11 -->
<g id="edge11" class="edge">
<title>Node4&#45;&gt;Node11</title>
<path fill="none" stroke="midnightblue" d="M1794.62,-99.03C1789.62,-87 1784.22,-73.98 1779.52,-62.67"/>
<polygon fill="midnightblue" stroke="midnightblue" points="1791.44,-100.51 1798.51,-108.41 1797.91,-97.83 1791.44,-100.51"/>
</g>
<!-- Node12 -->
<g id="node12" class="node">
<title>Node12</title>
<g id="a_node12"><a xlink:href="_i_e_framebuffer_8cpp.html" target="_top" xlink:title=" ">
<polygon fill="white" stroke="black" points="2259,-0.5 2259,-62.5 2489,-62.5 2489,-0.5 2259,-0.5"/>
<text text-anchor="start" x="2267" y="-45.7" font-family="Source Sans Pro" font-size="16.00">Illumination&#45;Engine</text>
<text text-anchor="start" x="2267" y="-27.7" font-family="Source Sans Pro" font-size="16.00">/src/GraphicsModule</text>
<text text-anchor="middle" x="2374" y="-9.7" font-family="Source Sans Pro" font-size="16.00">/RenderPass/IEFramebuffer.cpp</text>
</a>
</g>
</g>
<!-- Node4&#45;&gt;Node12 -->
<g id="edge12" class="edge">
<title>Node4&#45;&gt;Node12</title>
<path fill="none" stroke="midnightblue" d="M1882.63,-104.73C1888.76,-102.56 1894.94,-100.6 1901,-99 2051.77,-59.19 2096.37,-89.69 2250,-63 2252.95,-62.49 2255.93,-61.94 2258.94,-61.38"/>
<polygon fill="midnightblue" stroke="midnightblue" points="1881.19,-101.53 1873.05,-108.31 1883.64,-108.09 1881.19,-101.53"/>
</g>
<!-- Node13 -->
<g id="node13" class="node">
<title>Node13</title>
<g id="a_node13"><a xlink:href="_i_e_render_pass_8cpp.html" target="_top" xlink:title=" ">
<polygon fill="white" stroke="black" points="2507.5,-0.5 2507.5,-62.5 2734.5,-62.5 2734.5,-0.5 2507.5,-0.5"/>
<text text-anchor="start" x="2515.5" y="-45.7" font-family="Source Sans Pro" font-size="16.00">Illumination&#45;Engine</text>
<text text-anchor="start" x="2515.5" y="-27.7" font-family="Source Sans Pro" font-size="16.00">/src/GraphicsModule</text>
<text text-anchor="middle" x="2621" y="-9.7" font-family="Source Sans Pro" font-size="16.00">/RenderPass/IERenderPass.cpp</text>
</a>
</g>
</g>
<!-- Node4&#45;&gt;Node13 -->
<g id="edge13" class="edge">
<title>Node4&#45;&gt;Node13</title>
<path fill="none" stroke="midnightblue" d="M1881.44,-104.83C1887.95,-102.56 1894.54,-100.56 1901,-99 2159.39,-36.62 2235.24,-103.16 2498,-63 2501.04,-62.53 2504.12,-62.03 2507.23,-61.49"/>
<polygon fill="midnightblue" stroke="midnightblue" points="1880.14,-101.58 1871.97,-108.33 1882.56,-108.15 1880.14,-101.58"/>
</g>
<!-- Node14 -->
<g id="node14" class="node">
<title>Node14</title>
<g id="a_node14"><a xlink:href="_i_e_material_8cpp.html" target="_top" xlink:title=" ">
<polygon fill="white" stroke="black" points="3130.5,-0.5 3130.5,-62.5 3331.5,-62.5 3331.5,-0.5 3130.5,-0.5"/>
<text text-anchor="start" x="3138.5" y="-45.7" font-family="Source Sans Pro" font-size="16.00">Illumination&#45;Engine</text>
<text text-anchor="start" x="3138.5" y="-27.7" font-family="Source Sans Pro" font-size="16.00">/src/GraphicsModule</text>
<text text-anchor="middle" x="3231" y="-9.7" font-family="Source Sans Pro" font-size="16.00">/Renderable/IEMaterial.cpp</text>
</a>
</g>
</g>
<!-- Node4&#45;&gt;Node14 -->
<g id="edge14" class="edge">
<title>Node4&#45;&gt;Node14</title>
<path fill="none" stroke="midnightblue" d="M1880.72,-104.85C1887.46,-102.53 1894.29,-100.51 1901,-99 2165.82,-39.36 2853.64,-103.88 3122,-63 3124.72,-62.59 3127.47,-62.13 3130.23,-61.63"/>
<polygon fill="midnightblue" stroke="midnightblue" points="1879.1,-101.71 1870.92,-108.45 1881.52,-108.28 1879.1,-101.71"/>
</g>
<!-- Node15 -->
<g id="node15" class="node">
<title>Node15</title>
<g id="a_node15"><a xlink:href="_i_e_mesh_8cpp.html" target="_top" xlink:title=" ">
<polygon fill="white" stroke="black" points="2929.5,-0.5 2929.5,-62.5 3112.5,-62.5 3112.5,-0.5 2929.5,-0.5"/>
<text text-anchor="start" x="2937.5" y="-45.7" font-family="Source Sans Pro" font-size="16.00">Illumination&#45;Engine</text>
<text text-anchor="start" x="2937.5" y="-27.7" font-family="Source Sans Pro" font-size="16.00">/src/GraphicsModule</text>
<text text-anchor="middle" x="3021" y="-9.7" font-family="Source Sans Pro" font-size="16.00">/Renderable/IEMesh.cpp</text>
</a>
</g>
</g>
<!-- Node4&#45;&gt;Node15 -->
<g id="edge15" class="edge">
<title>Node4&#45;&gt;Node15</title>
<path fill="none" stroke="midnightblue" d="M1880.73,-104.89C1887.47,-102.56 1894.29,-100.53 1901,-99 2122.12,-48.52 2697.3,-100.4 2921,-63 2923.77,-62.54 2926.58,-62.02 2929.4,-61.45"/>
<polygon fill="midnightblue" stroke="midnightblue" points="1879.11,-101.76 1870.93,-108.5 1881.53,-108.33 1879.11,-101.76"/>
</g>
<!-- Node4&#45;&gt;Node16 -->
<g id="edge16" class="edge">
<title>Node4&#45;&gt;Node16</title>
<path fill="none" stroke="midnightblue" d="M1880.71,-104.82C1887.45,-102.5 1894.29,-100.5 1901,-99 2213.43,-29.37 3023.85,-106.39 3341,-63 3343.79,-62.62 3346.61,-62.2 3349.45,-61.74"/>
<polygon fill="midnightblue" stroke="midnightblue" points="1879.1,-101.68 1870.91,-108.41 1881.51,-108.25 1879.1,-101.68"/>
</g>
<!-- Node17 -->
<g id="node17" class="node">
<title>Node17</title>
<g id="a_node17"><a xlink:href="_i_e_descriptor_set_8cpp.html" target="_top" xlink:title=" ">
<polygon fill="white" stroke="black" points="1865.5,-0.5 1865.5,-62.5 2072.5,-62.5 2072.5,-0.5 1865.5,-0.5"/>
<text text-anchor="start" x="1873.5" y="-45.7" font-family="Source Sans Pro" font-size="16.00">Illumination&#45;Engine</text>
<text text-anchor="start" x="1873.5" y="-27.7" font-family="Source Sans Pro" font-size="16.00">/src/GraphicsModule</text>
<text text-anchor="middle" x="1969" y="-9.7" font-family="Source Sans Pro" font-size="16.00">/Shader/IEDescriptorSet.cpp</text>
</a>
</g>
</g>
<!-- Node4&#45;&gt;Node17 -->
<g id="edge17" class="edge">
<title>Node4&#45;&gt;Node17</title>
<path fill="none" stroke="midnightblue" d="M1864.3,-102.74C1883.7,-89.73 1905.42,-75.15 1924.03,-62.67"/>
<polygon fill="midnightblue" stroke="midnightblue" points="1862.21,-99.93 1855.85,-108.41 1866.11,-105.74 1862.21,-99.93"/>
</g>
<!-- Node18 -->
<g id="node18" class="node">
<title>Node18</title>
<g id="a_node18"><a xlink:href="_i_e_pipeline_8cpp.html" target="_top" xlink:title=" ">
<polygon fill="white" stroke="black" points="182,-0.5 182,-62.5 354,-62.5 354,-0.5 182,-0.5"/>
<text text-anchor="start" x="190" y="-45.7" font-family="Source Sans Pro" font-size="16.00">Illumination&#45;Engine</text>
<text text-anchor="start" x="190" y="-27.7" font-family="Source Sans Pro" font-size="16.00">/src/GraphicsModule</text>
<text text-anchor="middle" x="268" y="-9.7" font-family="Source Sans Pro" font-size="16.00">/Shader/IEPipeline.cpp</text>
</a>
</g>
</g>
<!-- Node4&#45;&gt;Node18 -->
<g id="edge18" class="edge">
<title>Node4&#45;&gt;Node18</title>
<path fill="none" stroke="midnightblue" d="M1719.77,-136.82C1444.52,-131.28 625.18,-111.08 363,-63 360.1,-62.47 357.17,-61.87 354.23,-61.23"/>
<polygon fill="midnightblue" stroke="midnightblue" points="1720.05,-140.33 1730.12,-137.03 1720.19,-133.33 1720.05,-140.33"/>
</g>
<!-- Node4&#45;&gt;Node19 -->
<g id="edge19" class="edge">
<title>Node4&#45;&gt;Node19</title>
<path fill="none" stroke="midnightblue" d="M1719.82,-137.62C1420.99,-134.2 473.23,-119.1 173,-63 170.05,-62.45 167.07,-61.82 164.07,-61.14"/>
<polygon fill="midnightblue" stroke="midnightblue" points="1720.13,-141.12 1730.17,-137.73 1720.21,-134.12 1720.13,-141.12"/>
</g>
<!-- Node20 -->
<g id="node20" class="node">
<title>Node20</title>
<g id="a_node20"><a xlink:href="main_8cpp.html" target="_top" xlink:title=" ">
<polygon fill="white" stroke="black" points="2091,-9.5 2091,-53.5 2241,-53.5 2241,-9.5 2091,-9.5"/>
<text text-anchor="start" x="2099" y="-36.7" font-family="Source Sans Pro" font-size="16.00">Illumination&#45;Engine</text>
<text text-anchor="middle" x="2166" y="-18.7" font-family="Source Sans Pro" font-size="16.00">/src/main.cpp</text>
</a>
</g>
</g>
<!-- Node4&#45;&gt;Node20 -->
<g id="edge20" class="edge">
<title>Node4&#45;&gt;Node20</title>
<path fill="none" stroke="midnightblue" d="M1884.92,-104.56C1890.31,-102.54 1895.71,-100.67 1901,-99 1979.24,-74.37 2003,-85.06 2082,-63 2091.71,-60.29 2101.91,-56.99 2111.72,-53.57"/>
<polygon fill="midnightblue" stroke="midnightblue" points="1883.31,-101.43 1875.24,-108.3 1885.83,-107.96 1883.31,-101.43"/>
</g>
<!-- Node21&#45;&gt;Node2 -->
<g id="edge41" class="edge">
<title>Node21&#45;&gt;Node2</title>
<path fill="none" stroke="midnightblue" d="M2261.42,-417.92C2294.68,-407.29 2331.68,-393.79 2364,-378 2421.7,-349.82 2482.45,-307.09 2520.51,-278.51"/>
<polygon fill="midnightblue" stroke="midnightblue" points="2260.18,-414.64 2251.69,-420.99 2262.28,-421.32 2260.18,-414.64"/>
</g>
<!-- Node21&#45;&gt;Node6 -->
<g id="edge23" class="edge">
<title>Node21&#45;&gt;Node6</title>
<path fill="none" stroke="midnightblue" d="M2068.56,-427.45C2000.07,-414.92 1906.09,-396.85 1824,-378 1373.72,-274.61 843.11,-125.59 622.87,-62.51"/>
<polygon fill="midnightblue" stroke="midnightblue" points="2068.01,-430.91 2078.48,-429.26 2069.27,-424.02 2068.01,-430.91"/>
</g>
<!-- Node21&#45;&gt;Node18 -->
<g id="edge42" class="edge">
<title>Node21&#45;&gt;Node18</title>
<path fill="none" stroke="midnightblue" d="M2067.99,-438.28C1947.96,-429.56 1737.68,-410.96 1560,-378 1098.56,-292.41 560.36,-126.59 354.27,-60.59"/>
<polygon fill="midnightblue" stroke="midnightblue" points="2068.03,-441.79 2078.25,-439.01 2068.53,-434.81 2068.03,-441.79"/>
</g>
<!-- Node22 -->
<g id="node22" class="node">
<title>Node22</title>
<g id="a_node22"><a xlink:href="_i_e_command_buffer_8hpp.html" target="_top" xlink:title=" ">
<polygon fill="white" stroke="black" points="1832.5,-315.5 1832.5,-377.5 2127.5,-377.5 2127.5,-315.5 1832.5,-315.5"/>
<text text-anchor="start" x="1840.5" y="-360.7" font-family="Source Sans Pro" font-size="16.00">Illumination&#45;Engine</text>
<text text-anchor="start" x="1840.5" y="-342.7" font-family="Source Sans Pro" font-size="16.00">/src/GraphicsModule</text>
<text text-anchor="middle" x="1980" y="-324.7" font-family="Source Sans Pro" font-size="16.00">/CommandBuffer/IECommandBuffer.hpp</text>
</a>
</g>
</g>
<!-- Node21&#45;&gt;Node22 -->
<g id="edge24" class="edge">
<title>Node21&#45;&gt;Node22</title>
<path fill="none" stroke="midnightblue" d="M2098.65,-409.71C2078.59,-399.19 2056.74,-387.74 2037.32,-377.55"/>
<polygon fill="midnightblue" stroke="midnightblue" points="2097.25,-412.93 2107.73,-414.47 2100.5,-406.73 2097.25,-412.93"/>
</g>
<!-- Node26 -->
<g id="node26" class="node">
<title>Node26</title>
<g id="a_node26"><a xlink:href="_i_e_dependency_8cpp.html" target="_top" xlink:title=" ">
<polygon fill="white" stroke="black" points="2276,-108.5 2276,-170.5 2542,-170.5 2542,-108.5 2276,-108.5"/>
<text text-anchor="start" x="2284" y="-153.7" font-family="Source Sans Pro" font-size="16.00">Illumination&#45;Engine</text>
<text text-anchor="start" x="2284" y="-135.7" font-family="Source Sans Pro" font-size="16.00">/src/GraphicsModule</text>
<text text-anchor="middle" x="2409" y="-117.7" font-family="Source Sans Pro" font-size="16.00">/CommandBuffer/IEDependency.cpp</text>
</a>
</g>
</g>
<!-- Node21&#45;&gt;Node26 -->
<g id="edge35" class="edge">
<title>Node21&#45;&gt;Node26</title>
<path fill="none" stroke="midnightblue" d="M2195.61,-406.36C2244.73,-345.17 2340.12,-226.31 2384.81,-170.64"/>
<polygon fill="midnightblue" stroke="midnightblue" points="2192.82,-404.25 2189.29,-414.24 2198.28,-408.63 2192.82,-404.25"/>
</g>
<!-- Node27 -->
<g id="node27" class="node">
<title>Node27</title>
<g id="a_node27"><a xlink:href="_i_e_mesh_8hpp.html" target="_top" xlink:title=" ">
<polygon fill="white" stroke="black" points="2928.5,-315.5 2928.5,-377.5 3113.5,-377.5 3113.5,-315.5 2928.5,-315.5"/>
<text text-anchor="start" x="2936.5" y="-360.7" font-family="Source Sans Pro" font-size="16.00">Illumination&#45;Engine</text>
<text text-anchor="start" x="2936.5" y="-342.7" font-family="Source Sans Pro" font-size="16.00">/src/GraphicsModule</text>
<text text-anchor="middle" x="3021" y="-324.7" font-family="Source Sans Pro" font-size="16.00">/Renderable/IEMesh.hpp</text>
</a>
</g>
</g>
<!-- Node21&#45;&gt;Node27 -->
<g id="edge36" class="edge">
<title>Node21&#45;&gt;Node27</title>
<path fill="none" stroke="midnightblue" d="M2262,-433.51C2428.24,-414.67 2765.38,-376.47 2928.49,-357.98"/>
<polygon fill="midnightblue" stroke="midnightblue" points="2261.33,-430.06 2251.79,-434.67 2262.12,-437.02 2261.33,-430.06"/>
</g>
<!-- Node22&#45;&gt;Node6 -->
<g id="edge25" class="edge">
<title>Node22&#45;&gt;Node6</title>
<path fill="none" stroke="midnightblue" d="M1824.18,-313.37C1771.97,-302.54 1713.45,-290.33 1660,-279 1297.44,-202.16 870.62,-109.32 656.36,-62.54"/>
<polygon fill="midnightblue" stroke="midnightblue" points="1823.69,-316.85 1834.19,-315.45 1825.11,-309.99 1823.69,-316.85"/>
</g>
<!-- Node23 -->
<g id="node23" class="node">
<title>Node23</title>
<g id="a_node23"><a xlink:href="_i_e_command_pool_8hpp.html" target="_top" xlink:title=" ">
<polygon fill="white" stroke="black" points="1668.5,-216.5 1668.5,-278.5 1953.5,-278.5 1953.5,-216.5 1668.5,-216.5"/>
<text text-anchor="start" x="1676.5" y="-261.7" font-family="Source Sans Pro" font-size="16.00">Illumination&#45;Engine</text>
<text text-anchor="start" x="1676.5" y="-243.7" font-family="Source Sans Pro" font-size="16.00">/src/GraphicsModule</text>
<text text-anchor="middle" x="1811" y="-225.7" font-family="Source Sans Pro" font-size="16.00">/CommandBuffer/IECommandPool.hpp</text>
</a>
</g>
</g>
<!-- Node22&#45;&gt;Node23 -->
<g id="edge26" class="edge">
<title>Node22&#45;&gt;Node23</title>
<path fill="none" stroke="midnightblue" d="M1918.71,-310.32C1900.62,-299.94 1881,-288.68 1863.51,-278.64"/>
<polygon fill="midnightblue" stroke="midnightblue" points="1917.04,-313.4 1927.45,-315.34 1920.52,-307.33 1917.04,-313.4"/>
</g>
<!-- Node24 -->
<g id="node24" class="node">
<title>Node24</title>
<g id="a_node24"><a xlink:href="_i_e_render_pass_8hpp.html" target="_top" xlink:title=" ">
<polygon fill="white" stroke="black" points="2034,-216.5 2034,-278.5 2262,-278.5 2262,-216.5 2034,-216.5"/>
<text text-anchor="start" x="2042" y="-261.7" font-family="Source Sans Pro" font-size="16.00">Illumination&#45;Engine</text>
<text text-anchor="start" x="2042" y="-243.7" font-family="Source Sans Pro" font-size="16.00">/src/GraphicsModule</text>
<text text-anchor="middle" x="2148" y="-225.7" font-family="Source Sans Pro" font-size="16.00">/RenderPass/IERenderPass.hpp</text>
</a>
</g>
</g>
<!-- Node22&#45;&gt;Node24 -->
<g id="edge29" class="edge">
<title>Node22&#45;&gt;Node24</title>
<path fill="none" stroke="midnightblue" d="M2040.92,-310.32C2058.91,-299.94 2078.42,-288.68 2095.8,-278.64"/>
<polygon fill="midnightblue" stroke="midnightblue" points="2039.15,-307.31 2032.24,-315.34 2042.65,-313.37 2039.15,-307.31"/>
</g>
<!-- Node23&#45;&gt;Node4 -->
<g id="edge28" class="edge">
<title>Node23&#45;&gt;Node4</title>
<path fill="none" stroke="midnightblue" d="M1811,-206.31C1811,-194.48 1811,-181.75 1811,-170.67"/>
<polygon fill="midnightblue" stroke="midnightblue" points="1807.5,-206.41 1811,-216.41 1814.5,-206.41 1807.5,-206.41"/>
</g>
<!-- Node23&#45;&gt;Node7 -->
<g id="edge27" class="edge">
<title>Node23&#45;&gt;Node7</title>
<path fill="none" stroke="midnightblue" d="M1753.52,-211.38C1692.54,-176.09 1592.2,-123.52 1498,-99 1273.38,-40.52 1207.02,-94.04 977,-63 974.08,-62.61 971.14,-62.19 968.18,-61.75"/>
<polygon fill="midnightblue" stroke="midnightblue" points="1751.82,-214.44 1762.22,-216.46 1755.35,-208.4 1751.82,-214.44"/>
</g>
<!-- Node24&#45;&gt;Node4 -->
<g id="edge32" class="edge">
<title>Node24&#45;&gt;Node4</title>
<path fill="none" stroke="midnightblue" d="M2024.05,-217.03C1984.36,-206.56 1940.48,-193.89 1901,-180 1892.95,-177.17 1884.61,-173.94 1876.41,-170.57"/>
<polygon fill="midnightblue" stroke="midnightblue" points="2023.22,-220.43 2033.78,-219.58 2024.99,-213.66 2023.22,-220.43"/>
</g>
<!-- Node24&#45;&gt;Node12 -->
<g id="edge33" class="edge">
<title>Node24&#45;&gt;Node12</title>
<path fill="none" stroke="midnightblue" d="M2173.74,-207.92C2179.57,-198.86 2185.62,-189.16 2191,-180 2211.64,-144.85 2204.54,-127.17 2234,-99 2249.46,-84.21 2268.82,-72.2 2288.17,-62.66"/>
<polygon fill="midnightblue" stroke="midnightblue" points="2170.76,-206.09 2168.25,-216.39 2176.63,-209.9 2170.76,-206.09"/>
</g>
<!-- Node24&#45;&gt;Node13 -->
<g id="edge34" class="edge">
<title>Node24&#45;&gt;Node13</title>
<path fill="none" stroke="midnightblue" d="M2197.17,-209.76C2207.44,-200.73 2217.67,-190.59 2226,-180 2250.95,-148.29 2234.36,-122.72 2267,-99 2351.06,-37.92 2396.14,-83.52 2498,-63 2501.13,-62.37 2504.29,-61.71 2507.49,-61.04"/>
<polygon fill="midnightblue" stroke="midnightblue" points="2194.68,-207.29 2189.34,-216.44 2199.22,-212.61 2194.68,-207.29"/>
</g>
<!-- Node25 -->
<g id="node25" class="node">
<title>Node25</title>
<g id="a_node25"><a xlink:href="_i_e_render_pass_begin_info_8cpp.html" target="_top" xlink:title=" ">
<polygon fill="white" stroke="black" points="1910,-99.5 1910,-179.5 2182,-179.5 2182,-99.5 1910,-99.5"/>
<text text-anchor="start" x="1918" y="-162.7" font-family="Source Sans Pro" font-size="16.00">Illumination&#45;Engine</text>
<text text-anchor="start" x="1918" y="-144.7" font-family="Source Sans Pro" font-size="16.00">/src/GraphicsModule</text>
<text text-anchor="start" x="1918" y="-126.7" font-family="Source Sans Pro" font-size="16.00">/CommandBuffer/DependencyStructs</text>
<text text-anchor="middle" x="2046" y="-108.7" font-family="Source Sans Pro" font-size="16.00">/IERenderPassBeginInfo.cpp</text>
</a>
</g>
</g>
<!-- Node24&#45;&gt;Node25 -->
<g id="edge30" class="edge">
<title>Node24&#45;&gt;Node25</title>
<path fill="none" stroke="midnightblue" d="M2111.91,-209C2102.8,-199.53 2093,-189.34 2083.8,-179.79"/>
<polygon fill="midnightblue" stroke="midnightblue" points="2109.59,-211.63 2119.04,-216.41 2114.63,-206.78 2109.59,-211.63"/>
</g>
<!-- Node24&#45;&gt;Node26 -->
<g id="edge31" class="edge">
<title>Node24&#45;&gt;Node26</title>
<path fill="none" stroke="midnightblue" d="M2231.75,-212.48C2264.86,-199.04 2302.6,-183.71 2334.72,-170.67"/>
<polygon fill="midnightblue" stroke="midnightblue" points="2230.04,-209.4 2222.09,-216.41 2232.68,-215.89 2230.04,-209.4"/>
</g>
<!-- Node27&#45;&gt;Node2 -->
<g id="edge40" class="edge">
<title>Node27&#45;&gt;Node2</title>
<path fill="none" stroke="midnightblue" d="M2918.24,-323.93C2845.48,-308.65 2747.88,-288.16 2672.77,-272.39"/>
<polygon fill="midnightblue" stroke="midnightblue" points="2917.83,-327.42 2928.34,-326.05 2919.27,-320.57 2917.83,-327.42"/>
</g>
<!-- Node27&#45;&gt;Node14 -->
<g id="edge37" class="edge">
<title>Node27&#45;&gt;Node14</title>
<path fill="none" stroke="midnightblue" d="M3046.82,-307.02C3089.09,-244.02 3172.19,-120.16 3210.62,-62.88"/>
<polygon fill="midnightblue" stroke="midnightblue" points="3043.8,-305.23 3041.14,-315.49 3049.61,-309.13 3043.8,-305.23"/>
</g>
<!-- Node27&#45;&gt;Node15 -->
<g id="edge38" class="edge">
<title>Node27&#45;&gt;Node15</title>
<path fill="none" stroke="midnightblue" d="M3021,-305.46C3021,-241.99 3021,-119.69 3021,-62.88"/>
<polygon fill="midnightblue" stroke="midnightblue" points="3017.5,-305.49 3021,-315.49 3024.5,-305.49 3017.5,-305.49"/>
</g>
<!-- Node27&#45;&gt;Node16 -->
<g id="edge39" class="edge">
<title>Node27&#45;&gt;Node16</title>
<path fill="none" stroke="midnightblue" d="M3071.47,-309.68C3159.1,-247.48 3337.81,-120.64 3419.52,-62.65"/>
<polygon fill="midnightblue" stroke="midnightblue" points="3069.41,-306.85 3063.28,-315.49 3073.47,-312.55 3069.41,-306.85"/>
</g>
</g>
</svg>
