<?xml version="1.0" encoding="UTF-8" standalone="no"?>
<!DOCTYPE svg PUBLIC "-//W3C//DTD SVG 1.1//EN"
 "http://www.w3.org/Graphics/SVG/1.1/DTD/svg11.dtd">
<!-- Generated by graphviz version 2.43.0 (0)
 -->
<!-- Title: Illumination&#45;Engine/src/GraphicsModule/Image/IENDimensionalResizableImage.cpp Pages: 1 -->
<svg width="338pt" height="215pt"
 viewBox="0.00 0.00 338.00 215.00" xmlns="http://www.w3.org/2000/svg" xmlns:xlink="http://www.w3.org/1999/xlink">
<g id="graph0" class="graph" transform="scale(1 1) rotate(0) translate(4 211)">
<title>Illumination&#45;Engine/src/GraphicsModule/Image/IENDimensionalResizableImage.cpp</title>
<polygon fill="white" stroke="transparent" points="-4,4 -4,-211 334,-211 334,4 -4,4"/>
<!-- Node1 -->
<g id="node1" class="node">
<title>Node1</title>
<g id="a_node1"><a xlink:title=" ">
<polygon fill="#bfbfbf" stroke="black" points="48,-126.5 48,-206.5 289,-206.5 289,-126.5 48,-126.5"/>
<text text-anchor="start" x="56" y="-189.7" font-family="Source Sans Pro" font-size="16.00">Illumination&#45;Engine</text>
<text text-anchor="start" x="56" y="-171.7" font-family="Source Sans Pro" font-size="16.00">/src/GraphicsModule</text>
<text text-anchor="start" x="56" y="-153.7" font-family="Source Sans Pro" font-size="16.00">/Image/IENDimensionalResizable</text>
<text text-anchor="middle" x="168.5" y="-135.7" font-family="Source Sans Pro" font-size="16.00">Image.cpp</text>
</a>
</g>
</g>
<!-- Node2 -->
<g id="node2" class="node">
<title>Node2</title>
<g id="a_node2"><a xlink:href="_i_e_n_dimensional_resizable_image_8hpp.html" target="_top" xlink:title=" ">
<polygon fill="white" stroke="black" points="38,-63.5 38,-89.5 299,-89.5 299,-63.5 38,-63.5"/>
<text text-anchor="middle" x="168.5" y="-72.7" font-family="Source Sans Pro" font-size="16.00">IENDimensionalResizableImage.hpp</text>
</a>
</g>
</g>
<!-- Node1&#45;&gt;Node2 -->
<g id="edge1" class="edge">
<title>Node1&#45;&gt;Node2</title>
<path fill="none" stroke="midnightblue" d="M168.5,-126.39C168.5,-117.3 168.5,-107.93 168.5,-99.85"/>
<polygon fill="midnightblue" stroke="midnightblue" points="172,-99.79 168.5,-89.79 165,-99.79 172,-99.79"/>
</g>
<!-- Node3 -->
<g id="node3" class="node">
<title>Node3</title>
<g id="a_node3"><a xlink:title=" ">
<polygon fill="white" stroke="#bfbfbf" points="0,-0.5 0,-26.5 63,-26.5 63,-0.5 0,-0.5"/>
<text text-anchor="middle" x="31.5" y="-9.7" font-family="Source Sans Pro" font-size="16.00">cstdint</text>
</a>
</g>
</g>
<!-- Node2&#45;&gt;Node3 -->
<g id="edge2" class="edge">
<title>Node2&#45;&gt;Node3</title>
<path fill="none" stroke="midnightblue" d="M141.43,-63.45C120.32,-54.05 90.81,-40.91 67.67,-30.61"/>
<polygon fill="midnightblue" stroke="midnightblue" points="69.07,-27.4 58.51,-26.53 66.22,-33.79 69.07,-27.4"/>
</g>
<!-- Node4 -->
<g id="node4" class="node">
<title>Node4</title>
<g id="a_node4"><a xlink:title=" ">
<polygon fill="white" stroke="#bfbfbf" points="81.5,-0.5 81.5,-26.5 161.5,-26.5 161.5,-0.5 81.5,-0.5"/>
<text text-anchor="middle" x="121.5" y="-9.7" font-family="Source Sans Pro" font-size="16.00">stdexcept</text>
</a>
</g>
</g>
<!-- Node2&#45;&gt;Node4 -->
<g id="edge3" class="edge">
<title>Node2&#45;&gt;Node4</title>
<path fill="none" stroke="midnightblue" d="M159.21,-63.45C152.91,-55.26 144.41,-44.23 137.08,-34.72"/>
<polygon fill="midnightblue" stroke="midnightblue" points="139.64,-32.31 130.77,-26.53 134.1,-36.58 139.64,-32.31"/>
</g>
<!-- Node5 -->
<g id="node5" class="node">
<title>Node5</title>
<g id="a_node5"><a xlink:title=" ">
<polygon fill="white" stroke="#bfbfbf" points="180,-0.5 180,-26.5 253,-26.5 253,-0.5 180,-0.5"/>
<text text-anchor="middle" x="216.5" y="-9.7" font-family="Source Sans Pro" font-size="16.00">typeinfo</text>
</a>
</g>
</g>
<!-- Node2&#45;&gt;Node5 -->
<g id="edge4" class="edge">
<title>Node2&#45;&gt;Node5</title>
<path fill="none" stroke="midnightblue" d="M177.98,-63.45C184.49,-55.18 193.28,-44.01 200.82,-34.42"/>
<polygon fill="midnightblue" stroke="midnightblue" points="203.6,-36.55 207.04,-26.53 198.1,-32.22 203.6,-36.55"/>
</g>
<!-- Node6 -->
<g id="node6" class="node">
<title>Node6</title>
<g id="a_node6"><a xlink:title=" ">
<polygon fill="white" stroke="#bfbfbf" points="271,-0.5 271,-26.5 330,-26.5 330,-0.5 271,-0.5"/>
<text text-anchor="middle" x="300.5" y="-9.7" font-family="Source Sans Pro" font-size="16.00">vector</text>
</a>
</g>
</g>
<!-- Node2&#45;&gt;Node6 -->
<g id="edge5" class="edge">
<title>Node2&#45;&gt;Node6</title>
<path fill="none" stroke="midnightblue" d="M194.58,-63.45C214.83,-54.09 243.11,-41.02 265.35,-30.74"/>
<polygon fill="midnightblue" stroke="midnightblue" points="266.87,-33.9 274.48,-26.53 263.93,-27.54 266.87,-33.9"/>
</g>
</g>
</svg>
