<?xml version="1.0" encoding="UTF-8" standalone="no"?>
<!DOCTYPE svg PUBLIC "-//W3C//DTD SVG 1.1//EN"
 "http://www.w3.org/Graphics/SVG/1.1/DTD/svg11.dtd">
<!-- Generated by graphviz version 2.43.0 (0)
 -->
<!-- Title: Illumination&#45;Engine/src/GraphicsModule/IESettings.hpp Pages: 1 -->
<svg width="944pt" height="197pt"
 viewBox="0.00 0.00 944.00 197.00" xmlns="http://www.w3.org/2000/svg" xmlns:xlink="http://www.w3.org/1999/xlink">
<g id="graph0" class="graph" transform="scale(1 1) rotate(0) translate(4 193)">
<title>Illumination&#45;Engine/src/GraphicsModule/IESettings.hpp</title>
<polygon fill="white" stroke="transparent" points="-4,4 -4,-193 940,-193 940,4 -4,4"/>
<!-- Node1 -->
<g id="node1" class="node">
<title>Node1</title>
<g id="a_node1"><a xlink:title=" ">
<polygon fill="#bfbfbf" stroke="black" points="443,-126.5 443,-188.5 600,-188.5 600,-126.5 443,-126.5"/>
<text text-anchor="start" x="451" y="-171.7" font-family="Source Sans Pro" font-size="16.00">Illumination&#45;Engine</text>
<text text-anchor="start" x="451" y="-153.7" font-family="Source Sans Pro" font-size="16.00">/src/GraphicsModule</text>
<text text-anchor="middle" x="521.5" y="-135.7" font-family="Source Sans Pro" font-size="16.00">/IESettings.hpp</text>
</a>
</g>
</g>
<!-- Node2 -->
<g id="node2" class="node">
<title>Node2</title>
<g id="a_node2"><a xlink:href="_i_e_version_8hpp.html" target="_top" xlink:title=" ">
<polygon fill="white" stroke="black" points="51.5,-63.5 51.5,-89.5 161.5,-89.5 161.5,-63.5 51.5,-63.5"/>
<text text-anchor="middle" x="106.5" y="-72.7" font-family="Source Sans Pro" font-size="16.00">IEVersion.hpp</text>
</a>
</g>
</g>
<!-- Node1&#45;&gt;Node2 -->
<g id="edge1" class="edge">
<title>Node1&#45;&gt;Node2</title>
<path fill="none" stroke="midnightblue" d="M442.95,-141.55C364.4,-126.59 245.01,-103.87 171.58,-89.89"/>
<polygon fill="midnightblue" stroke="midnightblue" points="172.01,-86.41 161.53,-87.98 170.7,-93.28 172.01,-86.41"/>
</g>
<!-- Node4 -->
<g id="node4" class="node">
<title>Node4</title>
<g id="a_node4"><a xlink:title=" ">
<polygon fill="white" stroke="#bfbfbf" points="162,-0.5 162,-26.5 217,-26.5 217,-0.5 162,-0.5"/>
<text text-anchor="middle" x="189.5" y="-9.7" font-family="Source Sans Pro" font-size="16.00">string</text>
</a>
</g>
</g>
<!-- Node1&#45;&gt;Node4 -->
<g id="edge12" class="edge">
<title>Node1&#45;&gt;Node4</title>
<path fill="none" stroke="midnightblue" d="M442.69,-149.08C361.55,-139.86 242.44,-121.36 209.5,-90 195.16,-76.35 190.67,-53.71 189.46,-36.77"/>
<polygon fill="midnightblue" stroke="midnightblue" points="192.95,-36.48 189.07,-26.62 185.96,-36.75 192.95,-36.48"/>
</g>
<!-- Node6 -->
<g id="node6" class="node">
<title>Node6</title>
<g id="a_node6"><a xlink:href="_i_e_logger_8hpp.html" target="_top" xlink:title=" ">
<polygon fill="white" stroke="black" points="218,-63.5 218,-89.5 441,-89.5 441,-63.5 218,-63.5"/>
<text text-anchor="middle" x="329.5" y="-72.7" font-family="Source Sans Pro" font-size="16.00">Core/LogModule/IELogger.hpp</text>
</a>
</g>
</g>
<!-- Node1&#45;&gt;Node6 -->
<g id="edge5" class="edge">
<title>Node1&#45;&gt;Node6</title>
<path fill="none" stroke="midnightblue" d="M448.37,-126.41C421.1,-115.19 391.23,-102.9 368.25,-93.44"/>
<polygon fill="midnightblue" stroke="midnightblue" points="369.43,-90.15 358.85,-89.58 366.77,-96.62 369.43,-90.15"/>
</g>
<!-- Node9 -->
<g id="node9" class="node">
<title>Node9</title>
<g id="a_node9"><a xlink:title=" ">
<polygon fill="white" stroke="#bfbfbf" points="459,-63.5 459,-89.5 584,-89.5 584,-63.5 459,-63.5"/>
<text text-anchor="middle" x="521.5" y="-72.7" font-family="Source Sans Pro" font-size="16.00">vulkan/vulkan.h</text>
</a>
</g>
</g>
<!-- Node1&#45;&gt;Node9 -->
<g id="edge9" class="edge">
<title>Node1&#45;&gt;Node9</title>
<path fill="none" stroke="midnightblue" d="M521.5,-126.18C521.5,-117.45 521.5,-108.08 521.5,-99.91"/>
<polygon fill="midnightblue" stroke="midnightblue" points="525,-99.7 521.5,-89.7 518,-99.7 525,-99.7"/>
</g>
<!-- Node10 -->
<g id="node10" class="node">
<title>Node10</title>
<g id="a_node10"><a xlink:title=" ">
<polygon fill="white" stroke="#bfbfbf" points="602.5,-63.5 602.5,-89.5 740.5,-89.5 740.5,-63.5 602.5,-63.5"/>
<text text-anchor="middle" x="671.5" y="-72.7" font-family="Source Sans Pro" font-size="16.00">include/GL/glew.h</text>
</a>
</g>
</g>
<!-- Node1&#45;&gt;Node10 -->
<g id="edge10" class="edge">
<title>Node1&#45;&gt;Node10</title>
<path fill="none" stroke="midnightblue" d="M578.64,-126.41C599.17,-115.59 621.61,-103.78 639.28,-94.47"/>
<polygon fill="midnightblue" stroke="midnightblue" points="641.35,-97.33 648.57,-89.58 638.09,-91.14 641.35,-97.33"/>
</g>
<!-- Node11 -->
<g id="node11" class="node">
<title>Node11</title>
<g id="a_node11"><a xlink:title=" ">
<polygon fill="white" stroke="#bfbfbf" points="758.5,-63.5 758.5,-89.5 866.5,-89.5 866.5,-63.5 758.5,-63.5"/>
<text text-anchor="middle" x="812.5" y="-72.7" font-family="Source Sans Pro" font-size="16.00">GLFW/glfw3.h</text>
</a>
</g>
</g>
<!-- Node1&#45;&gt;Node11 -->
<g id="edge11" class="edge">
<title>Node1&#45;&gt;Node11</title>
<path fill="none" stroke="midnightblue" d="M600.25,-135.12C650.32,-121.53 713.87,-104.28 758.32,-92.21"/>
<polygon fill="midnightblue" stroke="midnightblue" points="759.33,-95.56 768.07,-89.56 757.5,-88.81 759.33,-95.56"/>
</g>
<!-- Node12 -->
<g id="node12" class="node">
<title>Node12</title>
<g id="a_node12"><a xlink:title=" ">
<polygon fill="white" stroke="#bfbfbf" points="885,-63.5 885,-89.5 936,-89.5 936,-63.5 885,-63.5"/>
<text text-anchor="middle" x="910.5" y="-72.7" font-family="Source Sans Pro" font-size="16.00">array</text>
</a>
</g>
</g>
<!-- Node1&#45;&gt;Node12 -->
<g id="edge13" class="edge">
<title>Node1&#45;&gt;Node12</title>
<path fill="none" stroke="midnightblue" d="M600.34,-145.33C670.28,-134.6 775.22,-116.46 874.73,-89.92"/>
<polygon fill="midnightblue" stroke="midnightblue" points="875.91,-93.23 884.65,-87.24 874.08,-86.47 875.91,-93.23"/>
</g>
<!-- Node3 -->
<g id="node3" class="node">
<title>Node3</title>
<g id="a_node3"><a xlink:title=" ">
<polygon fill="white" stroke="#bfbfbf" points="0,-0.5 0,-26.5 63,-26.5 63,-0.5 0,-0.5"/>
<text text-anchor="middle" x="31.5" y="-9.7" font-family="Source Sans Pro" font-size="16.00">cstdint</text>
</a>
</g>
</g>
<!-- Node2&#45;&gt;Node3 -->
<g id="edge2" class="edge">
<title>Node2&#45;&gt;Node3</title>
<path fill="none" stroke="midnightblue" d="M91.68,-63.45C81,-54.76 66.38,-42.87 54.23,-32.99"/>
<polygon fill="midnightblue" stroke="midnightblue" points="56.25,-30.12 46.29,-26.53 51.84,-35.55 56.25,-30.12"/>
</g>
<!-- Node2&#45;&gt;Node4 -->
<g id="edge3" class="edge">
<title>Node2&#45;&gt;Node4</title>
<path fill="none" stroke="midnightblue" d="M122.9,-63.45C134.83,-54.68 151.21,-42.64 164.73,-32.7"/>
<polygon fill="midnightblue" stroke="midnightblue" points="167.15,-35.27 173.14,-26.53 163.01,-29.63 167.15,-35.27"/>
</g>
<!-- Node5 -->
<g id="node5" class="node">
<title>Node5</title>
<g id="a_node5"><a xlink:title=" ">
<polygon fill="white" stroke="#bfbfbf" points="81,-0.5 81,-26.5 140,-26.5 140,-0.5 81,-0.5"/>
<text text-anchor="middle" x="110.5" y="-9.7" font-family="Source Sans Pro" font-size="16.00">vector</text>
</a>
</g>
</g>
<!-- Node2&#45;&gt;Node5 -->
<g id="edge4" class="edge">
<title>Node2&#45;&gt;Node5</title>
<path fill="none" stroke="midnightblue" d="M107.29,-63.45C107.79,-55.85 108.45,-45.79 109.04,-36.78"/>
<polygon fill="midnightblue" stroke="midnightblue" points="112.55,-36.73 109.71,-26.53 105.56,-36.28 112.55,-36.73"/>
</g>
<!-- Node6&#45;&gt;Node4 -->
<g id="edge7" class="edge">
<title>Node6&#45;&gt;Node4</title>
<path fill="none" stroke="midnightblue" d="M301.84,-63.45C280.27,-54.05 250.1,-40.91 226.46,-30.61"/>
<polygon fill="midnightblue" stroke="midnightblue" points="227.67,-27.31 217.1,-26.53 224.87,-33.73 227.67,-27.31"/>
</g>
<!-- Node7 -->
<g id="node7" class="node">
<title>Node7</title>
<g id="a_node7"><a xlink:title=" ">
<polygon fill="white" stroke="#bfbfbf" points="238.5,-0.5 238.5,-26.5 416.5,-26.5 416.5,-0.5 238.5,-0.5"/>
<text text-anchor="middle" x="327.5" y="-9.7" font-family="Source Sans Pro" font-size="16.00">include/spdlog/logger.h</text>
</a>
</g>
</g>
<!-- Node6&#45;&gt;Node7 -->
<g id="edge6" class="edge">
<title>Node6&#45;&gt;Node7</title>
<path fill="none" stroke="midnightblue" d="M329.1,-63.45C328.86,-55.85 328.53,-45.79 328.23,-36.78"/>
<polygon fill="midnightblue" stroke="midnightblue" points="331.72,-36.41 327.89,-26.53 324.72,-36.64 331.72,-36.41"/>
</g>
<!-- Node8 -->
<g id="node8" class="node">
<title>Node8</title>
<g id="a_node8"><a xlink:title=" ">
<polygon fill="white" stroke="#bfbfbf" points="434.5,-0.5 434.5,-26.5 508.5,-26.5 508.5,-0.5 434.5,-0.5"/>
<text text-anchor="middle" x="471.5" y="-9.7" font-family="Source Sans Pro" font-size="16.00">memory</text>
</a>
</g>
</g>
<!-- Node6&#45;&gt;Node8 -->
<g id="edge8" class="edge">
<title>Node6&#45;&gt;Node8</title>
<path fill="none" stroke="midnightblue" d="M357.55,-63.45C379.43,-54.05 410.03,-40.91 434.01,-30.61"/>
<polygon fill="midnightblue" stroke="midnightblue" points="435.7,-33.69 443.5,-26.53 432.93,-27.26 435.7,-33.69"/>
</g>
</g>
</svg>
