<?xml version="1.0" encoding="UTF-8" standalone="no"?>
<!DOCTYPE svg PUBLIC "-//W3C//DTD SVG 1.1//EN"
 "http://www.w3.org/Graphics/SVG/1.1/DTD/svg11.dtd">
<!-- Generated by graphviz version 2.43.0 (0)
 -->
<!-- Title: Illumination&#45;Engine/src/GraphicsModule/RenderPass/IERenderPass.hpp Pages: 1 -->
<svg width="2698pt" height="602pt"
 viewBox="0.00 0.00 2697.50 602.00" xmlns="http://www.w3.org/2000/svg" xmlns:xlink="http://www.w3.org/1999/xlink">
<g id="graph0" class="graph" transform="scale(1 1) rotate(0) translate(4 598)">
<title>Illumination&#45;Engine/src/GraphicsModule/RenderPass/IERenderPass.hpp</title>
<polygon fill="white" stroke="transparent" points="-4,4 -4,-598 2693.5,-598 2693.5,4 -4,4"/>
<!-- Node1 -->
<g id="node1" class="node">
<title>Node1</title>
<g id="a_node1"><a xlink:title=" ">
<polygon fill="#bfbfbf" stroke="black" points="759.5,-531.5 759.5,-593.5 987.5,-593.5 987.5,-531.5 759.5,-531.5"/>
<text text-anchor="start" x="767.5" y="-576.7" font-family="Source Sans Pro" font-size="16.00">Illumination&#45;Engine</text>
<text text-anchor="start" x="767.5" y="-558.7" font-family="Source Sans Pro" font-size="16.00">/src/GraphicsModule</text>
<text text-anchor="middle" x="873.5" y="-540.7" font-family="Source Sans Pro" font-size="16.00">/RenderPass/IERenderPass.hpp</text>
</a>
</g>
</g>
<!-- Node2 -->
<g id="node2" class="node">
<title>Node2</title>
<g id="a_node2"><a xlink:href="_i_e_framebuffer_8hpp.html" target="_top" xlink:title=" ">
<polygon fill="white" stroke="black" points="1081,-315.5 1081,-341.5 1224,-341.5 1224,-315.5 1081,-315.5"/>
<text text-anchor="middle" x="1152.5" y="-324.7" font-family="Source Sans Pro" font-size="16.00">IEFramebuffer.hpp</text>
</a>
</g>
</g>
<!-- Node1&#45;&gt;Node2 -->
<g id="edge1" class="edge">
<title>Node1&#45;&gt;Node2</title>
<path fill="none" stroke="midnightblue" d="M909.69,-531.41C968.11,-482.83 1081.52,-388.53 1129.82,-348.36"/>
<polygon fill="midnightblue" stroke="midnightblue" points="1132.35,-350.81 1137.8,-341.73 1127.87,-345.43 1132.35,-350.81"/>
</g>
<!-- Node5 -->
<g id="node5" class="node">
<title>Node5</title>
<g id="a_node5"><a xlink:title=" ">
<polygon fill="white" stroke="#bfbfbf" points="1050,-9.5 1050,-35.5 1109,-35.5 1109,-9.5 1050,-9.5"/>
<text text-anchor="middle" x="1079.5" y="-18.7" font-family="Source Sans Pro" font-size="16.00">vector</text>
</a>
</g>
</g>
<!-- Node1&#45;&gt;Node5 -->
<g id="edge89" class="edge">
<title>Node1&#45;&gt;Node5</title>
<path fill="none" stroke="midnightblue" d="M759.32,-555.64C586.78,-543.62 279.5,-508.46 279.5,-410.5 279.5,-410.5 279.5,-410.5 279.5,-165.5 279.5,-95.84 345.42,-103.02 411.5,-81 514.24,-46.76 789.7,-55.35 897.5,-45 946.5,-40.29 1002.76,-33.42 1039.59,-28.72"/>
<polygon fill="midnightblue" stroke="midnightblue" points="1040.44,-32.14 1049.91,-27.4 1039.55,-25.2 1040.44,-32.14"/>
</g>
<!-- Node6 -->
<g id="node6" class="node">
<title>Node6</title>
<g id="a_node6"><a xlink:title=" ">
<polygon fill="white" stroke="#bfbfbf" points="1600,-81.5 1600,-107.5 1725,-107.5 1725,-81.5 1600,-81.5"/>
<text text-anchor="middle" x="1662.5" y="-90.7" font-family="Source Sans Pro" font-size="16.00">vulkan/vulkan.h</text>
</a>
</g>
</g>
<!-- Node1&#45;&gt;Node6 -->
<g id="edge87" class="edge">
<title>Node1&#45;&gt;Node6</title>
<path fill="none" stroke="midnightblue" d="M759.43,-539.64C691.53,-519.28 618.5,-480.99 618.5,-410.5 618.5,-410.5 618.5,-410.5 618.5,-246.5 618.5,-214.74 598.51,-197.37 733.5,-144 812.2,-112.89 1384.71,-100.21 1589.72,-96.64"/>
<polygon fill="midnightblue" stroke="midnightblue" points="1589.85,-100.13 1599.79,-96.46 1589.73,-93.14 1589.85,-100.13"/>
</g>
<!-- Node11 -->
<g id="node11" class="node">
<title>Node11</title>
<g id="a_node11"><a xlink:title=" ">
<polygon fill="white" stroke="#bfbfbf" points="1613,-9.5 1613,-35.5 1676,-35.5 1676,-9.5 1613,-9.5"/>
<text text-anchor="middle" x="1644.5" y="-18.7" font-family="Source Sans Pro" font-size="16.00">cstdint</text>
</a>
</g>
</g>
<!-- Node1&#45;&gt;Node11 -->
<g id="edge88" class="edge">
<title>Node1&#45;&gt;Node11</title>
<path fill="none" stroke="midnightblue" d="M987.88,-555.7C1187.74,-545.3 1613.44,-522.06 1972.5,-495 2132.48,-482.94 2689.5,-570.94 2689.5,-410.5 2689.5,-410.5 2689.5,-410.5 2689.5,-165.5 2689.5,-72.27 2588.04,-103.25 2497.5,-81 2340.9,-42.52 1835.63,-27.94 1686.38,-24.41"/>
<polygon fill="midnightblue" stroke="midnightblue" points="1686.34,-20.91 1676.26,-24.17 1686.18,-27.9 1686.34,-20.91"/>
</g>
<!-- Node15 -->
<g id="node15" class="node">
<title>Node15</title>
<g id="a_node15"><a xlink:title=" ">
<polygon fill="white" stroke="#bfbfbf" points="768.5,-153.5 768.5,-179.5 854.5,-179.5 854.5,-153.5 768.5,-153.5"/>
<text text-anchor="middle" x="811.5" y="-162.7" font-family="Source Sans Pro" font-size="16.00">functional</text>
</a>
</g>
</g>
<!-- Node1&#45;&gt;Node15 -->
<g id="edge90" class="edge">
<title>Node1&#45;&gt;Node15</title>
<path fill="none" stroke="midnightblue" d="M867.44,-531.27C861.88,-500.89 854.5,-452.64 854.5,-410.5 854.5,-410.5 854.5,-410.5 854.5,-327.5 854.5,-281.17 848.72,-269.41 835.5,-225 831.85,-212.74 826.45,-199.54 821.7,-188.89"/>
<polygon fill="midnightblue" stroke="midnightblue" points="824.77,-187.19 817.42,-179.56 818.41,-190.11 824.77,-187.19"/>
</g>
<!-- Node16 -->
<g id="node16" class="node">
<title>Node16</title>
<g id="a_node16"><a xlink:href="_i_e_command_buffer_8hpp.html" target="_top" xlink:title=" ">
<polygon fill="white" stroke="black" points="1673.5,-468.5 1673.5,-494.5 1963.5,-494.5 1963.5,-468.5 1673.5,-468.5"/>
<text text-anchor="middle" x="1818.5" y="-477.7" font-family="Source Sans Pro" font-size="16.00">CommandBuffer/IECommandBuffer.hpp</text>
</a>
</g>
</g>
<!-- Node1&#45;&gt;Node16 -->
<g id="edge25" class="edge">
<title>Node1&#45;&gt;Node16</title>
<path fill="none" stroke="midnightblue" d="M987.96,-551.93C1157.41,-537.77 1475.34,-511.19 1664.89,-495.34"/>
<polygon fill="midnightblue" stroke="midnightblue" points="1665.27,-498.82 1674.94,-494.5 1664.68,-491.85 1665.27,-498.82"/>
</g>
<!-- Node3 -->
<g id="node3" class="node">
<title>Node3</title>
<g id="a_node3"><a xlink:href="_i_e_image_8hpp.html" target="_top" xlink:title=" ">
<polygon fill="white" stroke="black" points="1731.5,-225.5 1731.5,-269.5 1905.5,-269.5 1905.5,-225.5 1731.5,-225.5"/>
<text text-anchor="start" x="1739.5" y="-252.7" font-family="Source Sans Pro" font-size="16.00">GraphicsModule/Image</text>
<text text-anchor="middle" x="1818.5" y="-234.7" font-family="Source Sans Pro" font-size="16.00">/IEImage.hpp</text>
</a>
</g>
</g>
<!-- Node2&#45;&gt;Node3 -->
<g id="edge2" class="edge">
<title>Node2&#45;&gt;Node3</title>
<path fill="none" stroke="midnightblue" d="M1224.09,-319.01C1344.13,-304.77 1586.12,-276.07 1721.38,-260.02"/>
<polygon fill="midnightblue" stroke="midnightblue" points="1721.81,-263.49 1731.33,-258.84 1720.99,-256.54 1721.81,-263.49"/>
</g>
<!-- Node2&#45;&gt;Node5 -->
<g id="edge24" class="edge">
<title>Node2&#45;&gt;Node5</title>
<path fill="none" stroke="midnightblue" d="M1131.41,-315.35C1079.75,-285.36 950.25,-208.82 939.5,-189 906.3,-127.81 994.18,-68.63 1045.49,-40.51"/>
<polygon fill="midnightblue" stroke="midnightblue" points="1047.45,-43.44 1054.61,-35.63 1044.14,-37.27 1047.45,-43.44"/>
</g>
<!-- Node2&#45;&gt;Node6 -->
<g id="edge22" class="edge">
<title>Node2&#45;&gt;Node6</title>
<path fill="none" stroke="midnightblue" d="M1150.93,-315.33C1147.41,-282.06 1142.77,-189.13 1193.5,-144 1222.46,-118.24 1465.35,-104.05 1589.72,-98.41"/>
<polygon fill="midnightblue" stroke="midnightblue" points="1590.08,-101.89 1599.92,-97.95 1589.77,-94.9 1590.08,-101.89"/>
</g>
<!-- Node7 -->
<g id="node7" class="node">
<title>Node7</title>
<g id="a_node7"><a xlink:title=" ">
<polygon fill="white" stroke="#bfbfbf" points="834,-9.5 834,-35.5 889,-35.5 889,-9.5 834,-9.5"/>
<text text-anchor="middle" x="861.5" y="-18.7" font-family="Source Sans Pro" font-size="16.00">string</text>
</a>
</g>
</g>
<!-- Node2&#45;&gt;Node7 -->
<g id="edge23" class="edge">
<title>Node2&#45;&gt;Node7</title>
<path fill="none" stroke="midnightblue" d="M1106.24,-315.48C1062.97,-303.61 1002.15,-285.08 982.5,-270 906.9,-211.99 875.59,-94.29 865.5,-45.48"/>
<polygon fill="midnightblue" stroke="midnightblue" points="868.92,-44.78 863.56,-35.64 862.06,-46.13 868.92,-44.78"/>
</g>
<!-- Node4 -->
<g id="node4" class="node">
<title>Node4</title>
<g id="a_node4"><a xlink:href="_i_e_dependency_8hpp.html" target="_top" xlink:title=" ">
<polygon fill="white" stroke="black" points="1304,-144.5 1304,-188.5 1549,-188.5 1549,-144.5 1304,-144.5"/>
<text text-anchor="start" x="1312" y="-171.7" font-family="Source Sans Pro" font-size="16.00">GraphicsModule/CommandBuffer</text>
<text text-anchor="middle" x="1426.5" y="-153.7" font-family="Source Sans Pro" font-size="16.00">/IEDependency.hpp</text>
</a>
</g>
</g>
<!-- Node3&#45;&gt;Node4 -->
<g id="edge3" class="edge">
<title>Node3&#45;&gt;Node4</title>
<path fill="none" stroke="midnightblue" d="M1731.02,-228.87C1674.91,-217.56 1601.47,-202.76 1540.78,-190.53"/>
<polygon fill="midnightblue" stroke="midnightblue" points="1541.26,-187.06 1530.76,-188.51 1539.87,-193.92 1541.26,-187.06"/>
</g>
<!-- Node3&#45;&gt;Node5 -->
<g id="edge20" class="edge">
<title>Node3&#45;&gt;Node5</title>
<path fill="none" stroke="midnightblue" d="M1835.17,-225.43C1842.31,-215.08 1849.84,-202.05 1853.5,-189 1866.46,-142.78 1886.16,-116.18 1853.5,-81 1828.27,-53.82 1273.83,-30.86 1119.22,-24.97"/>
<polygon fill="midnightblue" stroke="midnightblue" points="1119.33,-21.47 1109.2,-24.59 1119.06,-28.46 1119.33,-21.47"/>
</g>
<!-- Node3&#45;&gt;Node6 -->
<g id="edge16" class="edge">
<title>Node3&#45;&gt;Node6</title>
<path fill="none" stroke="midnightblue" d="M1815.04,-225.41C1810.28,-202.63 1799.65,-166.57 1777.5,-144 1762.76,-128.99 1742.66,-118.38 1723.38,-111.01"/>
<polygon fill="midnightblue" stroke="midnightblue" points="1724.31,-107.62 1713.71,-107.54 1721.95,-114.21 1724.31,-107.62"/>
</g>
<!-- Node3&#45;&gt;Node7 -->
<g id="edge19" class="edge">
<title>Node3&#45;&gt;Node7</title>
<path fill="none" stroke="midnightblue" d="M1819.74,-225.19C1820.08,-203.51 1818.03,-169.56 1804.5,-144 1784.92,-107.01 1773.18,-97 1734.5,-81 1591.8,-21.96 1194.36,-58.22 1040.5,-45 991.54,-40.79 935.31,-33.66 899.14,-28.77"/>
<polygon fill="midnightblue" stroke="midnightblue" points="899.42,-25.28 889.04,-27.4 898.47,-32.21 899.42,-25.28"/>
</g>
<!-- Node9 -->
<g id="node9" class="node">
<title>Node9</title>
<g id="a_node9"><a xlink:href="_i_e_a_p_i_8hpp.html" target="_top" xlink:title=" ">
<polygon fill="white" stroke="black" points="949,-153.5 949,-179.5 1032,-179.5 1032,-153.5 949,-153.5"/>
<text text-anchor="middle" x="990.5" y="-162.7" font-family="Source Sans Pro" font-size="16.00">IEAPI.hpp</text>
</a>
</g>
</g>
<!-- Node3&#45;&gt;Node9 -->
<g id="edge8" class="edge">
<title>Node3&#45;&gt;Node9</title>
<path fill="none" stroke="midnightblue" d="M1731.25,-238.86C1610.42,-228.18 1385.3,-207.98 1193.5,-189 1141.97,-183.9 1083.13,-177.62 1042.11,-173.16"/>
<polygon fill="midnightblue" stroke="midnightblue" points="1042.4,-169.68 1032.08,-172.07 1041.65,-176.63 1042.4,-169.68"/>
</g>
<!-- Node3&#45;&gt;Node11 -->
<g id="edge18" class="edge">
<title>Node3&#45;&gt;Node11</title>
<path fill="none" stroke="midnightblue" d="M1905.76,-231.49C1951.51,-221.65 2000.84,-207.24 2014.5,-189 2026.49,-172.99 2024.93,-161.06 2014.5,-144 1979.46,-86.68 1775.56,-45.7 1686.31,-30.26"/>
<polygon fill="midnightblue" stroke="midnightblue" points="1686.71,-26.78 1676.27,-28.55 1685.54,-33.68 1686.71,-26.78"/>
</g>
<!-- Node12 -->
<g id="node12" class="node">
<title>Node12</title>
<g id="a_node12"><a xlink:title=" ">
<polygon fill="white" stroke="#bfbfbf" points="1203,-153.5 1203,-179.5 1286,-179.5 1286,-153.5 1203,-153.5"/>
<text text-anchor="middle" x="1244.5" y="-162.7" font-family="Source Sans Pro" font-size="16.00">GL/glew.h</text>
</a>
</g>
</g>
<!-- Node3&#45;&gt;Node12 -->
<g id="edge14" class="edge">
<title>Node3&#45;&gt;Node12</title>
<path fill="none" stroke="midnightblue" d="M1731.05,-244.58C1626.05,-240.52 1445.35,-227.94 1295.5,-189 1289.98,-187.57 1284.27,-185.64 1278.77,-183.53"/>
<polygon fill="midnightblue" stroke="midnightblue" points="1279.74,-180.14 1269.16,-179.59 1277.09,-186.62 1279.74,-180.14"/>
</g>
<!-- Node13 -->
<g id="node13" class="node">
<title>Node13</title>
<g id="a_node13"><a xlink:title=" ">
<polygon fill="white" stroke="#bfbfbf" points="1606,-153.5 1606,-179.5 1735,-179.5 1735,-153.5 1606,-153.5"/>
<text text-anchor="middle" x="1670.5" y="-162.7" font-family="Source Sans Pro" font-size="16.00">vk_mem_alloc.h</text>
</a>
</g>
</g>
<!-- Node3&#45;&gt;Node13 -->
<g id="edge15" class="edge">
<title>Node3&#45;&gt;Node13</title>
<path fill="none" stroke="midnightblue" d="M1778.84,-225.33C1754.86,-212.53 1724.71,-196.44 1702.31,-184.48"/>
<polygon fill="midnightblue" stroke="midnightblue" points="1703.69,-181.25 1693.22,-179.63 1700.39,-187.42 1703.69,-181.25"/>
</g>
<!-- Node14 -->
<g id="node14" class="node">
<title>Node14</title>
<g id="a_node14"><a xlink:title=" ">
<polygon fill="white" stroke="#bfbfbf" points="1905.5,-153.5 1905.5,-179.5 2005.5,-179.5 2005.5,-153.5 1905.5,-153.5"/>
<text text-anchor="middle" x="1955.5" y="-162.7" font-family="Source Sans Pro" font-size="16.00">stb_image.h</text>
</a>
</g>
</g>
<!-- Node3&#45;&gt;Node14 -->
<g id="edge17" class="edge">
<title>Node3&#45;&gt;Node14</title>
<path fill="none" stroke="midnightblue" d="M1855.21,-225.33C1877.31,-212.59 1905.07,-196.58 1925.78,-184.64"/>
<polygon fill="midnightblue" stroke="midnightblue" points="1927.55,-187.65 1934.47,-179.63 1924.06,-181.59 1927.55,-187.65"/>
</g>
<!-- Node3&#45;&gt;Node15 -->
<g id="edge21" class="edge">
<title>Node3&#45;&gt;Node15</title>
<path fill="none" stroke="midnightblue" d="M1731.2,-241.03C1516.69,-227.55 978.35,-193.52 939.5,-189 914.74,-186.12 887.47,-181.71 864.49,-177.64"/>
<polygon fill="midnightblue" stroke="midnightblue" points="865.06,-174.18 854.6,-175.86 863.82,-181.07 865.06,-174.18"/>
</g>
<!-- Node4&#45;&gt;Node5 -->
<g id="edge4" class="edge">
<title>Node4&#45;&gt;Node5</title>
<path fill="none" stroke="midnightblue" d="M1374.93,-144.39C1304.85,-115.72 1181.13,-65.09 1118.37,-39.4"/>
<polygon fill="midnightblue" stroke="midnightblue" points="1119.41,-36.05 1108.83,-35.5 1116.76,-42.53 1119.41,-36.05"/>
</g>
<!-- Node4&#45;&gt;Node6 -->
<g id="edge5" class="edge">
<title>Node4&#45;&gt;Node6</title>
<path fill="none" stroke="midnightblue" d="M1497.31,-144.5C1534.22,-133.55 1578.51,-120.41 1611.93,-110.5"/>
<polygon fill="midnightblue" stroke="midnightblue" points="1613.35,-113.73 1621.94,-107.53 1611.36,-107.02 1613.35,-113.73"/>
</g>
<!-- Node4&#45;&gt;Node7 -->
<g id="edge6" class="edge">
<title>Node4&#45;&gt;Node7</title>
<path fill="none" stroke="midnightblue" d="M1303.8,-145.2C1301.01,-144.79 1298.24,-144.39 1295.5,-144 1162.1,-125.09 1121.4,-153.25 994.5,-108 951.9,-92.81 908.86,-62 883.71,-42.08"/>
<polygon fill="midnightblue" stroke="midnightblue" points="885.87,-39.33 875.89,-35.78 881.48,-44.78 885.87,-39.33"/>
</g>
<!-- Node8 -->
<g id="node8" class="node">
<title>Node8</title>
<g id="a_node8"><a xlink:title=" ">
<polygon fill="white" stroke="#bfbfbf" points="2224.5,-81.5 2224.5,-107.5 2298.5,-107.5 2298.5,-81.5 2224.5,-81.5"/>
<text text-anchor="middle" x="2261.5" y="-90.7" font-family="Source Sans Pro" font-size="16.00">memory</text>
</a>
</g>
</g>
<!-- Node4&#45;&gt;Node8 -->
<g id="edge7" class="edge">
<title>Node4&#45;&gt;Node8</title>
<path fill="none" stroke="midnightblue" d="M1549.24,-149.28C1565.46,-147.37 1581.87,-145.55 1597.5,-144 1828.43,-121.06 2105.55,-104.27 2214.37,-98.1"/>
<polygon fill="midnightblue" stroke="midnightblue" points="2214.58,-101.59 2224.37,-97.53 2214.19,-94.6 2214.58,-101.59"/>
</g>
<!-- Node9&#45;&gt;Node7 -->
<g id="edge13" class="edge">
<title>Node9&#45;&gt;Node7</title>
<path fill="none" stroke="midnightblue" d="M974.43,-153.42C960.26,-142.38 939.44,-125.2 923.5,-108 904.76,-87.77 886.47,-61.87 874.68,-44.11"/>
<polygon fill="midnightblue" stroke="midnightblue" points="877.53,-42.09 869.13,-35.64 871.68,-45.92 877.53,-42.09"/>
</g>
<!-- Node10 -->
<g id="node10" class="node">
<title>Node10</title>
<g id="a_node10"><a xlink:href="_i_e_version_8hpp.html" target="_top" xlink:title=" ">
<polygon fill="white" stroke="black" points="1003.5,-81.5 1003.5,-107.5 1113.5,-107.5 1113.5,-81.5 1003.5,-81.5"/>
<text text-anchor="middle" x="1058.5" y="-90.7" font-family="Source Sans Pro" font-size="16.00">IEVersion.hpp</text>
</a>
</g>
</g>
<!-- Node9&#45;&gt;Node10 -->
<g id="edge9" class="edge">
<title>Node9&#45;&gt;Node10</title>
<path fill="none" stroke="midnightblue" d="M1002.34,-153.31C1012.58,-142.77 1027.57,-127.34 1039.48,-115.07"/>
<polygon fill="midnightblue" stroke="midnightblue" points="1042.33,-117.16 1046.79,-107.55 1037.31,-112.29 1042.33,-117.16"/>
</g>
<!-- Node10&#45;&gt;Node5 -->
<g id="edge12" class="edge">
<title>Node10&#45;&gt;Node5</title>
<path fill="none" stroke="midnightblue" d="M1062.16,-81.31C1065.14,-71.37 1069.42,-57.09 1072.99,-45.21"/>
<polygon fill="midnightblue" stroke="midnightblue" points="1076.36,-46.14 1075.88,-35.55 1069.66,-44.13 1076.36,-46.14"/>
</g>
<!-- Node10&#45;&gt;Node7 -->
<g id="edge11" class="edge">
<title>Node10&#45;&gt;Node7</title>
<path fill="none" stroke="midnightblue" d="M1024.63,-81.47C989.64,-69.03 935.16,-49.67 898.92,-36.79"/>
<polygon fill="midnightblue" stroke="midnightblue" points="899.8,-33.4 889.21,-33.34 897.46,-39.99 899.8,-33.4"/>
</g>
<!-- Node10&#45;&gt;Node11 -->
<g id="edge10" class="edge">
<title>Node10&#45;&gt;Node11</title>
<path fill="none" stroke="midnightblue" d="M1113.63,-86.91C1230.15,-73 1499.22,-40.85 1602.8,-28.48"/>
<polygon fill="midnightblue" stroke="midnightblue" points="1603.36,-31.94 1612.88,-27.28 1602.53,-24.99 1603.36,-31.94"/>
</g>
<!-- Node16&#45;&gt;Node3 -->
<g id="edge40" class="edge">
<title>Node16&#45;&gt;Node3</title>
<path fill="none" stroke="midnightblue" d="M1818.5,-468.35C1818.5,-433.45 1818.5,-332.05 1818.5,-280.05"/>
<polygon fill="midnightblue" stroke="midnightblue" points="1822,-279.75 1818.5,-269.75 1815,-279.75 1822,-279.75"/>
</g>
<!-- Node16&#45;&gt;Node5 -->
<g id="edge27" class="edge">
<title>Node16&#45;&gt;Node5</title>
<path fill="none" stroke="midnightblue" d="M1963.61,-474.36C2118.11,-466.82 2345.24,-452.45 2380.5,-432 2428.44,-404.2 2451.5,-384.92 2451.5,-329.5 2451.5,-329.5 2451.5,-329.5 2451.5,-165.5 2451.5,-151.64 2437.95,-114.04 2356.5,-81 2341.8,-75.04 1333.65,-33.82 1119.29,-25.11"/>
<polygon fill="midnightblue" stroke="midnightblue" points="1119.26,-21.61 1109.12,-24.7 1118.97,-28.6 1119.26,-21.61"/>
</g>
<!-- Node16&#45;&gt;Node6 -->
<g id="edge26" class="edge">
<title>Node16&#45;&gt;Node6</title>
<path fill="none" stroke="midnightblue" d="M1822.13,-468.31C1833.31,-431.01 1867,-320.05 1876.5,-306 1899.01,-272.69 1997.6,-225.48 2014.5,-189 2022.91,-170.85 2027.64,-159.08 2014.5,-144 1979.04,-103.32 1827.67,-95.59 1735.36,-94.77"/>
<polygon fill="midnightblue" stroke="midnightblue" points="1735.26,-91.27 1725.24,-94.71 1735.21,-98.27 1735.26,-91.27"/>
</g>
<!-- Node17 -->
<g id="node17" class="node">
<title>Node17</title>
<g id="a_node17"><a xlink:title=" ">
<polygon fill="white" stroke="#bfbfbf" points="2517.5,-396.5 2517.5,-422.5 2581.5,-422.5 2581.5,-396.5 2517.5,-396.5"/>
<text text-anchor="middle" x="2549.5" y="-405.7" font-family="Source Sans Pro" font-size="16.00">variant</text>
</a>
</g>
</g>
<!-- Node16&#45;&gt;Node17 -->
<g id="edge28" class="edge">
<title>Node16&#45;&gt;Node17</title>
<path fill="none" stroke="midnightblue" d="M1963.77,-476.43C2133.94,-470.57 2405.12,-457.53 2503.5,-432 2508.49,-430.7 2513.6,-428.88 2518.52,-426.83"/>
<polygon fill="midnightblue" stroke="midnightblue" points="2519.98,-430.01 2527.65,-422.71 2517.1,-423.63 2519.98,-430.01"/>
</g>
<!-- Node18 -->
<g id="node18" class="node">
<title>Node18</title>
<g id="a_node18"><a xlink:title=" ">
<polygon fill="white" stroke="#bfbfbf" points="2600,-396.5 2600,-422.5 2661,-422.5 2661,-396.5 2600,-396.5"/>
<text text-anchor="middle" x="2630.5" y="-405.7" font-family="Source Sans Pro" font-size="16.00">thread</text>
</a>
</g>
</g>
<!-- Node16&#45;&gt;Node18 -->
<g id="edge29" class="edge">
<title>Node16&#45;&gt;Node18</title>
<path fill="none" stroke="midnightblue" d="M1963.85,-478.76C2154.13,-475.21 2476.78,-464.45 2590.5,-432 2594.68,-430.81 2598.91,-429.13 2602.98,-427.24"/>
<polygon fill="midnightblue" stroke="midnightblue" points="2604.81,-430.23 2612.09,-422.54 2601.6,-424.01 2604.81,-430.23"/>
</g>
<!-- Node19 -->
<g id="node19" class="node">
<title>Node19</title>
<g id="a_node19"><a xlink:title=" ">
<polygon fill="white" stroke="#bfbfbf" points="1419,-396.5 1419,-422.5 1478,-422.5 1478,-396.5 1419,-396.5"/>
<text text-anchor="middle" x="1448.5" y="-405.7" font-family="Source Sans Pro" font-size="16.00">mutex</text>
</a>
</g>
</g>
<!-- Node16&#45;&gt;Node19 -->
<g id="edge30" class="edge">
<title>Node16&#45;&gt;Node19</title>
<path fill="none" stroke="midnightblue" d="M1673.15,-468.54C1615.96,-461.34 1550.29,-449.95 1492.5,-432 1488.09,-430.63 1483.57,-428.87 1479.18,-426.95"/>
<polygon fill="midnightblue" stroke="midnightblue" points="1480.43,-423.67 1469.89,-422.59 1477.45,-430.01 1480.43,-423.67"/>
</g>
<!-- Node20 -->
<g id="node20" class="node">
<title>Node20</title>
<g id="a_node20"><a xlink:href="_i_e_buffer_8hpp.html" target="_top" xlink:title=" ">
<polygon fill="white" stroke="black" points="1317,-234.5 1317,-260.5 1464,-260.5 1464,-234.5 1317,-234.5"/>
<text text-anchor="middle" x="1390.5" y="-243.7" font-family="Source Sans Pro" font-size="16.00">Buffer/IEBuffer.hpp</text>
</a>
</g>
</g>
<!-- Node16&#45;&gt;Node20 -->
<g id="edge31" class="edge">
<title>Node16&#45;&gt;Node20</title>
<path fill="none" stroke="midnightblue" d="M1673.5,-472.02C1563.89,-464.17 1429.17,-450.85 1410.5,-432 1368.02,-389.1 1377.23,-309.96 1385.06,-271.15"/>
<polygon fill="midnightblue" stroke="midnightblue" points="1388.58,-271.43 1387.29,-260.91 1381.74,-269.94 1388.58,-271.43"/>
</g>
<!-- Node21 -->
<g id="node21" class="node">
<title>Node21</title>
<g id="a_node21"><a xlink:href="_i_e_dependent_8hpp.html" target="_top" xlink:title=" ">
<polygon fill="white" stroke="black" points="2479.5,-153.5 2479.5,-179.5 2615.5,-179.5 2615.5,-153.5 2479.5,-153.5"/>
<text text-anchor="middle" x="2547.5" y="-162.7" font-family="Source Sans Pro" font-size="16.00">IEDependent.hpp</text>
</a>
</g>
</g>
<!-- Node16&#45;&gt;Node21 -->
<g id="edge41" class="edge">
<title>Node16&#45;&gt;Node21</title>
<path fill="none" stroke="midnightblue" d="M1963.71,-478.15C2142.46,-473.94 2427.2,-462.5 2465.5,-432 2541.53,-371.45 2548.62,-241.58 2548.23,-189.64"/>
<polygon fill="midnightblue" stroke="midnightblue" points="2551.73,-189.46 2548.05,-179.52 2544.73,-189.58 2551.73,-189.46"/>
</g>
<!-- Node22 -->
<g id="node22" class="node">
<title>Node22</title>
<g id="a_node22"><a xlink:href="_i_e_pipeline_8hpp.html" target="_top" xlink:title=" ">
<polygon fill="white" stroke="black" points="882.5,-306.5 882.5,-350.5 1062.5,-350.5 1062.5,-306.5 882.5,-306.5"/>
<text text-anchor="start" x="890.5" y="-333.7" font-family="Source Sans Pro" font-size="16.00">GraphicsModule/Shader</text>
<text text-anchor="middle" x="972.5" y="-315.7" font-family="Source Sans Pro" font-size="16.00">/IEPipeline.hpp</text>
</a>
</g>
</g>
<!-- Node16&#45;&gt;Node22 -->
<g id="edge44" class="edge">
<title>Node16&#45;&gt;Node22</title>
<path fill="none" stroke="midnightblue" d="M1673.45,-469.71C1586.83,-461.99 1474.87,-449.79 1376.5,-432 1262.74,-411.43 1133.63,-376.62 1052.63,-353.35"/>
<polygon fill="midnightblue" stroke="midnightblue" points="1053.58,-349.98 1043,-350.57 1051.64,-356.7 1053.58,-349.98"/>
</g>
<!-- Node32 -->
<g id="node32" class="node">
<title>Node32</title>
<g id="a_node32"><a xlink:href="_i_e_dependency_info_8hpp.html" target="_top" xlink:title=" ">
<polygon fill="white" stroke="black" points="2147.5,-387.5 2147.5,-431.5 2371.5,-431.5 2371.5,-387.5 2147.5,-387.5"/>
<text text-anchor="start" x="2155.5" y="-414.7" font-family="Source Sans Pro" font-size="16.00">CommandBuffer/Dependency</text>
<text text-anchor="middle" x="2259.5" y="-396.7" font-family="Source Sans Pro" font-size="16.00">Structs/IEDependencyInfo.hpp</text>
</a>
</g>
</g>
<!-- Node16&#45;&gt;Node32 -->
<g id="edge67" class="edge">
<title>Node16&#45;&gt;Node32</title>
<path fill="none" stroke="midnightblue" d="M1894.31,-468.47C1960.89,-457.9 2058.98,-442.33 2136.74,-429.99"/>
<polygon fill="midnightblue" stroke="midnightblue" points="2137.76,-433.37 2147.09,-428.34 2136.67,-426.45 2137.76,-433.37"/>
</g>
<!-- Node35 -->
<g id="node35" class="node">
<title>Node35</title>
<g id="a_node35"><a xlink:href="_i_e_copy_buffer_to_image_info_8hpp.html" target="_top" xlink:title=" ">
<polygon fill="white" stroke="black" points="1479,-306.5 1479,-350.5 1752,-350.5 1752,-306.5 1479,-306.5"/>
<text text-anchor="start" x="1487" y="-333.7" font-family="Source Sans Pro" font-size="16.00">CommandBuffer/Dependency</text>
<text text-anchor="middle" x="1615.5" y="-315.7" font-family="Source Sans Pro" font-size="16.00">Structs/IECopyBufferToImageInfo.hpp</text>
</a>
</g>
</g>
<!-- Node16&#45;&gt;Node35 -->
<g id="edge79" class="edge">
<title>Node16&#45;&gt;Node35</title>
<path fill="none" stroke="midnightblue" d="M1673.22,-473.76C1609.78,-467.47 1545.3,-455.35 1525.5,-432 1512.56,-416.75 1515.89,-404.54 1525.5,-387 1532.38,-374.44 1543.3,-364.22 1555.2,-356.08"/>
<polygon fill="midnightblue" stroke="midnightblue" points="1557.42,-358.82 1564,-350.51 1553.68,-352.9 1557.42,-358.82"/>
</g>
<!-- Node36 -->
<g id="node36" class="node">
<title>Node36</title>
<g id="a_node36"><a xlink:href="_i_e_render_pass_begin_info_8hpp.html" target="_top" xlink:title=" ">
<polygon fill="white" stroke="black" points="1534.5,-387.5 1534.5,-431.5 1790.5,-431.5 1790.5,-387.5 1534.5,-387.5"/>
<text text-anchor="start" x="1542.5" y="-414.7" font-family="Source Sans Pro" font-size="16.00">CommandBuffer/Dependency</text>
<text text-anchor="middle" x="1662.5" y="-396.7" font-family="Source Sans Pro" font-size="16.00">Structs/IERenderPassBeginInfo.hpp</text>
</a>
</g>
</g>
<!-- Node16&#45;&gt;Node36 -->
<g id="edge84" class="edge">
<title>Node16&#45;&gt;Node36</title>
<path fill="none" stroke="midnightblue" d="M1791.68,-468.47C1771.68,-459.49 1743.63,-446.9 1718.77,-435.75"/>
<polygon fill="midnightblue" stroke="midnightblue" points="1719.98,-432.46 1709.43,-431.56 1717.12,-438.84 1719.98,-432.46"/>
</g>
<!-- Node20&#45;&gt;Node4 -->
<g id="edge32" class="edge">
<title>Node20&#45;&gt;Node4</title>
<path fill="none" stroke="midnightblue" d="M1396.12,-234.16C1400.54,-224.47 1406.87,-210.57 1412.62,-197.97"/>
<polygon fill="midnightblue" stroke="midnightblue" points="1415.89,-199.22 1416.85,-188.67 1409.52,-196.32 1415.89,-199.22"/>
</g>
<!-- Node20&#45;&gt;Node5 -->
<g id="edge37" class="edge">
<title>Node20&#45;&gt;Node5</title>
<path fill="none" stroke="midnightblue" d="M1316.89,-240.83C1273.32,-234.19 1219.23,-219.85 1180.5,-189 1137.88,-155.05 1151.79,-126.94 1122.5,-81 1114.36,-68.23 1104.26,-54.62 1095.89,-43.86"/>
<polygon fill="midnightblue" stroke="midnightblue" points="1098.56,-41.59 1089.63,-35.9 1093.06,-45.92 1098.56,-41.59"/>
</g>
<!-- Node20&#45;&gt;Node6 -->
<g id="edge36" class="edge">
<title>Node20&#45;&gt;Node6</title>
<path fill="none" stroke="midnightblue" d="M1449.57,-234.4C1483.45,-225.55 1525.65,-211.15 1558.5,-189 1580.44,-174.2 1578.11,-162.02 1597.5,-144 1609.28,-133.05 1623.5,-122.21 1635.63,-113.57"/>
<polygon fill="midnightblue" stroke="midnightblue" points="1637.84,-116.29 1644.02,-107.69 1633.82,-110.56 1637.84,-116.29"/>
</g>
<!-- Node20&#45;&gt;Node9 -->
<g id="edge33" class="edge">
<title>Node20&#45;&gt;Node9</title>
<path fill="none" stroke="midnightblue" d="M1329.31,-234.42C1250.72,-218.89 1115.7,-192.23 1042.07,-177.68"/>
<polygon fill="midnightblue" stroke="midnightblue" points="1042.59,-174.22 1032.1,-175.72 1041.23,-181.09 1042.59,-174.22"/>
</g>
<!-- Node20&#45;&gt;Node11 -->
<g id="edge38" class="edge">
<title>Node20&#45;&gt;Node11</title>
<path fill="none" stroke="midnightblue" d="M1317.12,-234.49C1267.63,-224.72 1208.68,-209.24 1193.5,-189 1181.5,-173 1181.32,-159.86 1193.5,-144 1243.91,-78.36 1500.94,-40.76 1602.82,-28.24"/>
<polygon fill="midnightblue" stroke="midnightblue" points="1603.25,-31.71 1612.75,-27.03 1602.41,-24.76 1603.25,-31.71"/>
</g>
<!-- Node20&#45;&gt;Node12 -->
<g id="edge35" class="edge">
<title>Node20&#45;&gt;Node12</title>
<path fill="none" stroke="midnightblue" d="M1368.01,-234.33C1343.29,-220.95 1303.41,-199.37 1275.68,-184.37"/>
<polygon fill="midnightblue" stroke="midnightblue" points="1277.24,-181.24 1266.78,-179.55 1273.91,-187.39 1277.24,-181.24"/>
</g>
<!-- Node20&#45;&gt;Node13 -->
<g id="edge34" class="edge">
<title>Node20&#45;&gt;Node13</title>
<path fill="none" stroke="midnightblue" d="M1433.33,-234.42C1482.84,-220.45 1564.34,-197.45 1617.72,-182.39"/>
<polygon fill="midnightblue" stroke="midnightblue" points="1619,-185.67 1627.67,-179.58 1617.1,-178.93 1619,-185.67"/>
</g>
<!-- Node20&#45;&gt;Node15 -->
<g id="edge39" class="edge">
<title>Node20&#45;&gt;Node15</title>
<path fill="none" stroke="midnightblue" d="M1316.95,-238.03C1227.57,-227.53 1072.25,-208.6 939.5,-189 914.84,-185.36 887.59,-180.85 864.59,-176.9"/>
<polygon fill="midnightblue" stroke="midnightblue" points="865.13,-173.44 854.68,-175.19 863.94,-180.34 865.13,-173.44"/>
</g>
<!-- Node21&#45;&gt;Node5 -->
<g id="edge42" class="edge">
<title>Node21&#45;&gt;Node5</title>
<path fill="none" stroke="midnightblue" d="M2540.24,-153.49C2527.77,-134.1 2500.2,-96.54 2465.5,-81 2463.52,-80.12 1345.38,-34.37 1119.14,-25.12"/>
<polygon fill="midnightblue" stroke="midnightblue" points="1119.18,-21.62 1109.04,-24.71 1118.89,-28.61 1119.18,-21.62"/>
</g>
<!-- Node21&#45;&gt;Node8 -->
<g id="edge43" class="edge">
<title>Node21&#45;&gt;Node8</title>
<path fill="none" stroke="midnightblue" d="M2498.33,-153.47C2445.18,-140.46 2361.06,-119.87 2308.69,-107.05"/>
<polygon fill="midnightblue" stroke="midnightblue" points="2309.2,-103.57 2298.66,-104.59 2307.54,-110.37 2309.2,-103.57"/>
</g>
<!-- Node22&#45;&gt;Node4 -->
<g id="edge63" class="edge">
<title>Node22&#45;&gt;Node4</title>
<path fill="none" stroke="midnightblue" d="M1032.32,-306.42C1116.3,-276.82 1268.79,-223.08 1357.48,-191.83"/>
<polygon fill="midnightblue" stroke="midnightblue" points="1358.64,-195.13 1366.91,-188.5 1356.31,-188.52 1358.64,-195.13"/>
</g>
<!-- Node22&#45;&gt;Node5 -->
<g id="edge66" class="edge">
<title>Node22&#45;&gt;Node5</title>
<path fill="none" stroke="midnightblue" d="M882.35,-319.53C736.48,-304.49 459.42,-266.24 404.5,-189 392.91,-172.7 399.37,-163.33 404.5,-144 412.78,-112.83 413.27,-98.27 440.5,-81 526.53,-26.45 796.12,-54.98 897.5,-45 946.49,-40.18 1002.75,-33.33 1039.59,-28.67"/>
<polygon fill="midnightblue" stroke="midnightblue" points="1040.43,-32.09 1049.91,-27.36 1039.54,-25.15 1040.43,-32.09"/>
</g>
<!-- Node22&#45;&gt;Node6 -->
<g id="edge64" class="edge">
<title>Node22&#45;&gt;Node6</title>
<path fill="none" stroke="midnightblue" d="M986.55,-306.37C1014.35,-266.55 1080.66,-181.08 1160.5,-144 1234.87,-109.46 1469.11,-99.5 1589.5,-96.64"/>
<polygon fill="midnightblue" stroke="midnightblue" points="1589.81,-100.14 1599.73,-96.41 1589.65,-93.14 1589.81,-100.14"/>
</g>
<!-- Node22&#45;&gt;Node15 -->
<g id="edge65" class="edge">
<title>Node22&#45;&gt;Node15</title>
<path fill="none" stroke="midnightblue" d="M951.12,-306.25C919.71,-275.04 861.54,-217.23 831.15,-187.03"/>
<polygon fill="midnightblue" stroke="midnightblue" points="833.27,-184.2 823.71,-179.63 828.33,-189.16 833.27,-184.2"/>
</g>
<!-- Node23 -->
<g id="node23" class="node">
<title>Node23</title>
<g id="a_node23"><a xlink:href="_i_e_shader_8hpp.html" target="_top" xlink:title=" ">
<polygon fill="white" stroke="black" points="646.5,-225.5 646.5,-269.5 826.5,-269.5 826.5,-225.5 646.5,-225.5"/>
<text text-anchor="start" x="654.5" y="-252.7" font-family="Source Sans Pro" font-size="16.00">GraphicsModule/Shader</text>
<text text-anchor="middle" x="736.5" y="-234.7" font-family="Source Sans Pro" font-size="16.00">/IEShader.hpp</text>
</a>
</g>
</g>
<!-- Node22&#45;&gt;Node23 -->
<g id="edge45" class="edge">
<title>Node22&#45;&gt;Node23</title>
<path fill="none" stroke="midnightblue" d="M909.57,-306.43C878.63,-296.08 841.18,-283.54 809.05,-272.79"/>
<polygon fill="midnightblue" stroke="midnightblue" points="809.85,-269.36 799.26,-269.51 807.63,-276 809.85,-269.36"/>
</g>
<!-- Node23&#45;&gt;Node5 -->
<g id="edge49" class="edge">
<title>Node23&#45;&gt;Node5</title>
<path fill="none" stroke="midnightblue" d="M728.94,-225.11C722.5,-202.74 716.69,-167.65 733.5,-144 751.95,-118.03 953.38,-58.92 1040.13,-34.44"/>
<polygon fill="midnightblue" stroke="midnightblue" points="1041.2,-37.77 1049.88,-31.7 1039.31,-31.03 1041.2,-37.77"/>
</g>
<!-- Node23&#45;&gt;Node6 -->
<g id="edge47" class="edge">
<title>Node23&#45;&gt;Node6</title>
<path fill="none" stroke="midnightblue" d="M734.47,-225.08C733.54,-201.29 736.24,-163.66 759.5,-144 791.02,-117.35 1380.27,-101.75 1589.53,-97.04"/>
<polygon fill="midnightblue" stroke="midnightblue" points="1589.88,-100.53 1599.8,-96.81 1589.72,-93.53 1589.88,-100.53"/>
</g>
<!-- Node23&#45;&gt;Node7 -->
<g id="edge48" class="edge">
<title>Node23&#45;&gt;Node7</title>
<path fill="none" stroke="midnightblue" d="M646.21,-243.53C558.7,-238.52 434.87,-225.08 404.5,-189 396.72,-179.75 401.54,-87.44 407.5,-81 435.66,-50.54 719.98,-31.51 823.8,-25.54"/>
<polygon fill="midnightblue" stroke="midnightblue" points="824.06,-29.03 833.84,-24.97 823.66,-22.04 824.06,-29.03"/>
</g>
<!-- Node23&#45;&gt;Node9 -->
<g id="edge46" class="edge">
<title>Node23&#45;&gt;Node9</title>
<path fill="none" stroke="midnightblue" d="M804.23,-225.43C847.72,-211.91 903.16,-194.66 942.21,-182.52"/>
<polygon fill="midnightblue" stroke="midnightblue" points="943.26,-185.86 951.77,-179.55 941.18,-179.17 943.26,-185.86"/>
</g>
<!-- Node23&#45;&gt;Node12 -->
<g id="edge62" class="edge">
<title>Node23&#45;&gt;Node12</title>
<path fill="none" stroke="midnightblue" d="M826.73,-232.47C933.31,-215.89 1106.95,-188.89 1192.92,-175.52"/>
<polygon fill="midnightblue" stroke="midnightblue" points="1193.61,-178.96 1202.96,-173.96 1192.54,-172.04 1193.61,-178.96"/>
</g>
<!-- Node23&#45;&gt;Node15 -->
<g id="edge50" class="edge">
<title>Node23&#45;&gt;Node15</title>
<path fill="none" stroke="midnightblue" d="M756.6,-225.33C767.88,-213.45 781.86,-198.72 792.89,-187.1"/>
<polygon fill="midnightblue" stroke="midnightblue" points="795.64,-189.29 799.99,-179.63 790.56,-184.47 795.64,-189.29"/>
</g>
<!-- Node24 -->
<g id="node24" class="node">
<title>Node24</title>
<g id="a_node24"><a xlink:href="_i_e_file_8hpp.html" target="_top" xlink:title=" ">
<polygon fill="white" stroke="black" points="414,-144.5 414,-188.5 591,-188.5 591,-144.5 414,-144.5"/>
<text text-anchor="start" x="422" y="-171.7" font-family="Source Sans Pro" font-size="16.00">Core/FileSystemModule</text>
<text text-anchor="middle" x="502.5" y="-153.7" font-family="Source Sans Pro" font-size="16.00">/IEFile.hpp</text>
</a>
</g>
</g>
<!-- Node23&#45;&gt;Node24 -->
<g id="edge51" class="edge">
<title>Node23&#45;&gt;Node24</title>
<path fill="none" stroke="midnightblue" d="M674.1,-225.43C643.43,-215.08 606.3,-202.54 574.43,-191.79"/>
<polygon fill="midnightblue" stroke="midnightblue" points="575.32,-188.39 564.73,-188.51 573.08,-195.02 575.32,-188.39"/>
</g>
<!-- Node24&#45;&gt;Node5 -->
<g id="edge56" class="edge">
<title>Node24&#45;&gt;Node5</title>
<path fill="none" stroke="midnightblue" d="M474.53,-144.16C454.12,-126.08 432.86,-100.12 450.5,-81 484.29,-44.38 847.92,-49.92 897.5,-45 946.49,-40.14 1002.74,-33.3 1039.59,-28.65"/>
<polygon fill="midnightblue" stroke="midnightblue" points="1040.42,-32.07 1049.9,-27.34 1039.54,-25.13 1040.42,-32.07"/>
</g>
<!-- Node24&#45;&gt;Node7 -->
<g id="edge57" class="edge">
<title>Node24&#45;&gt;Node7</title>
<path fill="none" stroke="midnightblue" d="M457.18,-144.4C427.5,-127.76 397.58,-103.66 417.5,-81 444.2,-50.62 720.97,-31.63 823.54,-25.59"/>
<polygon fill="midnightblue" stroke="midnightblue" points="823.97,-29.07 833.75,-25 823.57,-22.09 823.97,-29.07"/>
</g>
<!-- Node25 -->
<g id="node25" class="node">
<title>Node25</title>
<g id="a_node25"><a xlink:href="_i_e_logger_8hpp.html" target="_top" xlink:title=" ">
<polygon fill="white" stroke="black" points="28,-81.5 28,-107.5 251,-107.5 251,-81.5 28,-81.5"/>
<text text-anchor="middle" x="139.5" y="-90.7" font-family="Source Sans Pro" font-size="16.00">Core/LogModule/IELogger.hpp</text>
</a>
</g>
</g>
<!-- Node24&#45;&gt;Node25 -->
<g id="edge52" class="edge">
<title>Node24&#45;&gt;Node25</title>
<path fill="none" stroke="midnightblue" d="M413.7,-148.38C351.6,-136.4 269.7,-120.61 211.63,-109.41"/>
<polygon fill="midnightblue" stroke="midnightblue" points="212.28,-105.97 201.79,-107.51 210.95,-112.84 212.28,-105.97"/>
</g>
<!-- Node28 -->
<g id="node28" class="node">
<title>Node28</title>
<g id="a_node28"><a xlink:title=" ">
<polygon fill="white" stroke="#bfbfbf" points="460,-81.5 460,-107.5 545,-107.5 545,-81.5 460,-81.5"/>
<text text-anchor="middle" x="502.5" y="-90.7" font-family="Source Sans Pro" font-size="16.00">filesystem</text>
</a>
</g>
</g>
<!-- Node24&#45;&gt;Node28 -->
<g id="edge58" class="edge">
<title>Node24&#45;&gt;Node28</title>
<path fill="none" stroke="midnightblue" d="M502.5,-144.5C502.5,-136 502.5,-126.19 502.5,-117.59"/>
<polygon fill="midnightblue" stroke="midnightblue" points="506,-117.53 502.5,-107.53 499,-117.53 506,-117.53"/>
</g>
<!-- Node29 -->
<g id="node29" class="node">
<title>Node29</title>
<g id="a_node29"><a xlink:title=" ">
<polygon fill="white" stroke="#bfbfbf" points="563.5,-81.5 563.5,-107.5 631.5,-107.5 631.5,-81.5 563.5,-81.5"/>
<text text-anchor="middle" x="597.5" y="-90.7" font-family="Source Sans Pro" font-size="16.00">fstream</text>
</a>
</g>
</g>
<!-- Node24&#45;&gt;Node29 -->
<g id="edge59" class="edge">
<title>Node24&#45;&gt;Node29</title>
<path fill="none" stroke="midnightblue" d="M531,-144.5C544.33,-134.68 560.03,-123.11 572.84,-113.67"/>
<polygon fill="midnightblue" stroke="midnightblue" points="575.2,-116.28 581.17,-107.53 571.05,-110.65 575.2,-116.28"/>
</g>
<!-- Node30 -->
<g id="node30" class="node">
<title>Node30</title>
<g id="a_node30"><a xlink:title=" ">
<polygon fill="white" stroke="#bfbfbf" points="649.5,-81.5 649.5,-107.5 701.5,-107.5 701.5,-81.5 649.5,-81.5"/>
<text text-anchor="middle" x="675.5" y="-90.7" font-family="Source Sans Pro" font-size="16.00">regex</text>
</a>
</g>
</g>
<!-- Node24&#45;&gt;Node30 -->
<g id="edge60" class="edge">
<title>Node24&#45;&gt;Node30</title>
<path fill="none" stroke="midnightblue" d="M554.41,-144.5C582,-133.33 615.21,-119.9 639.86,-109.92"/>
<polygon fill="midnightblue" stroke="midnightblue" points="641.24,-113.14 649.2,-106.14 638.62,-106.65 641.24,-113.14"/>
</g>
<!-- Node31 -->
<g id="node31" class="node">
<title>Node31</title>
<g id="a_node31"><a xlink:title=" ">
<polygon fill="white" stroke="#bfbfbf" points="719.5,-81.5 719.5,-107.5 795.5,-107.5 795.5,-81.5 719.5,-81.5"/>
<text text-anchor="middle" x="757.5" y="-90.7" font-family="Source Sans Pro" font-size="16.00">iostream</text>
</a>
</g>
</g>
<!-- Node24&#45;&gt;Node31 -->
<g id="edge61" class="edge">
<title>Node24&#45;&gt;Node31</title>
<path fill="none" stroke="midnightblue" d="M579.01,-144.5C621.38,-132.87 672.75,-118.76 709.48,-108.68"/>
<polygon fill="midnightblue" stroke="midnightblue" points="710.72,-111.97 719.44,-105.95 708.87,-105.22 710.72,-111.97"/>
</g>
<!-- Node25&#45;&gt;Node7 -->
<g id="edge55" class="edge">
<title>Node25&#45;&gt;Node7</title>
<path fill="none" stroke="midnightblue" d="M251.14,-82.41C255.99,-81.93 260.8,-81.46 265.5,-81 476.44,-60.36 729.44,-36.12 823.69,-27.11"/>
<polygon fill="midnightblue" stroke="midnightblue" points="824.25,-30.57 833.87,-26.14 823.58,-23.61 824.25,-30.57"/>
</g>
<!-- Node26 -->
<g id="node26" class="node">
<title>Node26</title>
<g id="a_node26"><a xlink:title=" ">
<polygon fill="white" stroke="#bfbfbf" points="0,-9.5 0,-35.5 127,-35.5 127,-9.5 0,-9.5"/>
<text text-anchor="middle" x="63.5" y="-18.7" font-family="Source Sans Pro" font-size="16.00">spdlog/spdlog.h</text>
</a>
</g>
</g>
<!-- Node25&#45;&gt;Node26 -->
<g id="edge53" class="edge">
<title>Node25&#45;&gt;Node26</title>
<path fill="none" stroke="midnightblue" d="M126.26,-81.31C114.6,-70.57 97.43,-54.75 84,-42.38"/>
<polygon fill="midnightblue" stroke="midnightblue" points="86.31,-39.75 76.59,-35.55 81.57,-44.9 86.31,-39.75"/>
</g>
<!-- Node27 -->
<g id="node27" class="node">
<title>Node27</title>
<g id="a_node27"><a xlink:title=" ">
<polygon fill="white" stroke="#bfbfbf" points="145,-0.5 145,-44.5 288,-44.5 288,-0.5 145,-0.5"/>
<text text-anchor="start" x="153" y="-27.7" font-family="Source Sans Pro" font-size="16.00">spdlog/sinks/basic</text>
<text text-anchor="middle" x="216.5" y="-9.7" font-family="Source Sans Pro" font-size="16.00">_file_sink.h</text>
</a>
</g>
</g>
<!-- Node25&#45;&gt;Node27 -->
<g id="edge54" class="edge">
<title>Node25&#45;&gt;Node27</title>
<path fill="none" stroke="midnightblue" d="M152.91,-81.31C161.94,-73.1 174.24,-61.92 185.61,-51.58"/>
<polygon fill="midnightblue" stroke="midnightblue" points="188.24,-53.92 193.29,-44.6 183.53,-48.74 188.24,-53.92"/>
</g>
<!-- Node32&#45;&gt;Node5 -->
<g id="edge68" class="edge">
<title>Node32&#45;&gt;Node5</title>
<path fill="none" stroke="midnightblue" d="M2319.14,-387.45C2337.81,-378.53 2357.24,-366.54 2371.5,-351 2404.79,-314.73 2413.5,-297.73 2413.5,-248.5 2413.5,-248.5 2413.5,-248.5 2413.5,-165.5 2413.5,-105.25 2363.89,-102.22 2307.5,-81 2293.26,-75.64 1328.99,-34.16 1119.41,-25.2"/>
<polygon fill="midnightblue" stroke="midnightblue" points="1119.31,-21.69 1109.17,-24.76 1119.01,-28.69 1119.31,-21.69"/>
</g>
<!-- Node32&#45;&gt;Node6 -->
<g id="edge70" class="edge">
<title>Node32&#45;&gt;Node6</title>
<path fill="none" stroke="midnightblue" d="M2289.84,-387.34C2301.06,-377.69 2312.5,-365.23 2318.5,-351 2326.27,-332.57 2327.26,-323.98 2318.5,-306 2267.33,-200.98 2219.74,-187.96 2111.5,-144 2045.18,-117.06 1845.01,-103.88 1735.69,-98.53"/>
<polygon fill="midnightblue" stroke="midnightblue" points="1735.56,-95.02 1725.41,-98.04 1735.23,-102.01 1735.56,-95.02"/>
</g>
<!-- Node32&#45;&gt;Node8 -->
<g id="edge69" class="edge">
<title>Node32&#45;&gt;Node8</title>
<path fill="none" stroke="midnightblue" d="M2312.6,-387.45C2327.92,-378.6 2342.83,-366.65 2351.5,-351 2397.01,-268.88 2316.81,-159.46 2279.29,-115.26"/>
<polygon fill="midnightblue" stroke="midnightblue" points="2281.8,-112.82 2272.61,-107.55 2276.51,-117.4 2281.8,-112.82"/>
</g>
<!-- Node33 -->
<g id="node33" class="node">
<title>Node33</title>
<g id="a_node33"><a xlink:href="_i_e_buffer_memory_barrier_8hpp.html" target="_top" xlink:title=" ">
<polygon fill="white" stroke="black" points="1885,-315.5 1885,-341.5 2088,-341.5 2088,-315.5 1885,-315.5"/>
<text text-anchor="middle" x="1986.5" y="-324.7" font-family="Source Sans Pro" font-size="16.00">IEBufferMemoryBarrier.hpp</text>
</a>
</g>
</g>
<!-- Node32&#45;&gt;Node33 -->
<g id="edge71" class="edge">
<title>Node32&#45;&gt;Node33</title>
<path fill="none" stroke="midnightblue" d="M2186.7,-387.43C2139.76,-373.85 2079.86,-356.52 2037.87,-344.36"/>
<polygon fill="midnightblue" stroke="midnightblue" points="2038.71,-340.96 2028.13,-341.55 2036.76,-347.69 2038.71,-340.96"/>
</g>
<!-- Node34 -->
<g id="node34" class="node">
<title>Node34</title>
<g id="a_node34"><a xlink:href="_i_e_image_memory_barrier_8hpp.html" target="_top" xlink:title=" ">
<polygon fill="white" stroke="black" points="2106,-315.5 2106,-341.5 2309,-341.5 2309,-315.5 2106,-315.5"/>
<text text-anchor="middle" x="2207.5" y="-324.7" font-family="Source Sans Pro" font-size="16.00">IEImageMemoryBarrier.hpp</text>
</a>
</g>
</g>
<!-- Node32&#45;&gt;Node34 -->
<g id="edge75" class="edge">
<title>Node32&#45;&gt;Node34</title>
<path fill="none" stroke="midnightblue" d="M2245.56,-387.33C2237.97,-375.79 2228.61,-361.57 2221.07,-350.11"/>
<polygon fill="midnightblue" stroke="midnightblue" points="2223.9,-348.06 2215.48,-341.63 2218.06,-351.9 2223.9,-348.06"/>
</g>
<!-- Node33&#45;&gt;Node6 -->
<g id="edge72" class="edge">
<title>Node33&#45;&gt;Node6</title>
<path fill="none" stroke="midnightblue" d="M2006.24,-315.37C2020.68,-305.25 2039.14,-289.38 2047.5,-270 2069.69,-218.58 2084.54,-186 2047.5,-144 2027.21,-120.99 1840.93,-106.18 1735.11,-99.54"/>
<polygon fill="midnightblue" stroke="midnightblue" points="1735.33,-96.04 1725.13,-98.92 1734.89,-103.03 1735.33,-96.04"/>
</g>
<!-- Node33&#45;&gt;Node8 -->
<g id="edge73" class="edge">
<title>Node33&#45;&gt;Node8</title>
<path fill="none" stroke="midnightblue" d="M2035.51,-315.49C2094.36,-298.25 2190.95,-260.39 2237.5,-189 2251.63,-167.32 2257.45,-137.78 2259.84,-117.75"/>
<polygon fill="midnightblue" stroke="midnightblue" points="2263.33,-118 2260.84,-107.71 2256.37,-117.31 2263.33,-118"/>
</g>
<!-- Node33&#45;&gt;Node20 -->
<g id="edge74" class="edge">
<title>Node33&#45;&gt;Node20</title>
<path fill="none" stroke="midnightblue" d="M1895.66,-315.46C1781.11,-300.27 1585.73,-274.38 1474.51,-259.64"/>
<polygon fill="midnightblue" stroke="midnightblue" points="1474.72,-256.13 1464.34,-258.29 1473.8,-263.07 1474.72,-256.13"/>
</g>
<!-- Node34&#45;&gt;Node3 -->
<g id="edge78" class="edge">
<title>Node34&#45;&gt;Node3</title>
<path fill="none" stroke="midnightblue" d="M2148,-315.42C2086.3,-302.89 1988.85,-283.1 1915.91,-268.28"/>
<polygon fill="midnightblue" stroke="midnightblue" points="1916.28,-264.79 1905.79,-266.23 1914.89,-271.65 1916.28,-264.79"/>
</g>
<!-- Node34&#45;&gt;Node6 -->
<g id="edge77" class="edge">
<title>Node34&#45;&gt;Node6</title>
<path fill="none" stroke="midnightblue" d="M2202.74,-315.42C2188.71,-281.57 2143.94,-185.58 2072.5,-144 2016.88,-111.62 1837.53,-100.8 1735.42,-97.23"/>
<polygon fill="midnightblue" stroke="midnightblue" points="1735.29,-93.72 1725.18,-96.89 1735.06,-100.72 1735.29,-93.72"/>
</g>
<!-- Node34&#45;&gt;Node8 -->
<g id="edge76" class="edge">
<title>Node34&#45;&gt;Node8</title>
<path fill="none" stroke="midnightblue" d="M2215.94,-315.25C2231.43,-291.96 2263.87,-239.1 2275.5,-189 2281.14,-164.72 2275.16,-136.34 2269.36,-117.27"/>
<polygon fill="midnightblue" stroke="midnightblue" points="2272.67,-116.13 2266.24,-107.72 2266.02,-118.31 2272.67,-116.13"/>
</g>
<!-- Node35&#45;&gt;Node3 -->
<g id="edge83" class="edge">
<title>Node35&#45;&gt;Node3</title>
<path fill="none" stroke="midnightblue" d="M1669.63,-306.43C1695.9,-296.21 1727.62,-283.87 1755.02,-273.2"/>
<polygon fill="midnightblue" stroke="midnightblue" points="1756.47,-276.4 1764.52,-269.51 1753.93,-269.87 1756.47,-276.4"/>
</g>
<!-- Node35&#45;&gt;Node6 -->
<g id="edge81" class="edge">
<title>Node35&#45;&gt;Node6</title>
<path fill="none" stroke="midnightblue" d="M1638.86,-306.45C1672.97,-275.09 1733.55,-216.82 1744.5,-189 1751.82,-170.39 1754.41,-161.37 1744.5,-144 1736.5,-129.98 1722.68,-119.59 1708.64,-112.12"/>
<polygon fill="midnightblue" stroke="midnightblue" points="1709.96,-108.87 1699.44,-107.61 1706.88,-115.15 1709.96,-108.87"/>
</g>
<!-- Node35&#45;&gt;Node8 -->
<g id="edge80" class="edge">
<title>Node35&#45;&gt;Node8</title>
<path fill="none" stroke="midnightblue" d="M1743.72,-306.44C1809.76,-294.88 1882.91,-280.75 1914.5,-270 2039.37,-227.51 2176.01,-148.07 2233.53,-112.96"/>
<polygon fill="midnightblue" stroke="midnightblue" points="2235.69,-115.73 2242.38,-107.52 2232.03,-109.77 2235.69,-115.73"/>
</g>
<!-- Node35&#45;&gt;Node20 -->
<g id="edge82" class="edge">
<title>Node35&#45;&gt;Node20</title>
<path fill="none" stroke="midnightblue" d="M1555.5,-306.43C1517.47,-293.08 1469.11,-276.1 1434.6,-263.98"/>
<polygon fill="midnightblue" stroke="midnightblue" points="1435.4,-260.56 1424.81,-260.55 1433.08,-267.16 1435.4,-260.56"/>
</g>
<!-- Node36&#45;&gt;Node2 -->
<g id="edge86" class="edge">
<title>Node36&#45;&gt;Node2</title>
<path fill="none" stroke="midnightblue" d="M1534.46,-388.67C1440.38,-374.09 1315.34,-354.72 1234.39,-342.18"/>
<polygon fill="midnightblue" stroke="midnightblue" points="1234.67,-338.69 1224.25,-340.61 1233.59,-345.6 1234.67,-338.69"/>
</g>
<!-- Node36&#45;&gt;Node8 -->
<g id="edge85" class="edge">
<title>Node36&#45;&gt;Node8</title>
<path fill="none" stroke="midnightblue" d="M1702.9,-387.45C1745.47,-365.68 1814.78,-331.37 1876.5,-306 1921.74,-287.41 1935.2,-288.45 1980.5,-270 2058.76,-238.13 2081.57,-234.92 2152.5,-189 2186.65,-166.89 2221.54,-134.99 2242.36,-114.75"/>
<polygon fill="midnightblue" stroke="midnightblue" points="2244.95,-117.12 2249.62,-107.61 2240.04,-112.13 2244.95,-117.12"/>
</g>
</g>
</svg>
