<?xml version="1.0" encoding="UTF-8" standalone="no"?>
<!DOCTYPE svg PUBLIC "-//W3C//DTD SVG 1.1//EN"
 "http://www.w3.org/Graphics/SVG/1.1/DTD/svg11.dtd">
<!-- Generated by graphviz version 2.43.0 (0)
 -->
<!-- Title: Illumination&#45;Engine/src/Core/AssetModule/IEAsset.hpp Pages: 1 -->
<svg width="524pt" height="350pt"
 viewBox="0.00 0.00 523.50 350.00" xmlns="http://www.w3.org/2000/svg" xmlns:xlink="http://www.w3.org/1999/xlink">
<g id="graph0" class="graph" transform="scale(1 1) rotate(0) translate(4 346)">
<title>Illumination&#45;Engine/src/Core/AssetModule/IEAsset.hpp</title>
<polygon fill="white" stroke="transparent" points="-4,4 -4,-346 519.5,-346 519.5,4 -4,4"/>
<!-- Node1 -->
<g id="node1" class="node">
<title>Node1</title>
<g id="a_node1"><a xlink:title=" ">
<polygon fill="#bfbfbf" stroke="black" points="175,-279.5 175,-341.5 345,-341.5 345,-279.5 175,-279.5"/>
<text text-anchor="start" x="183" y="-324.7" font-family="Source Sans Pro" font-size="16.00">Illumination&#45;Engine</text>
<text text-anchor="start" x="183" y="-306.7" font-family="Source Sans Pro" font-size="16.00">/src/Core/AssetModule</text>
<text text-anchor="middle" x="260" y="-288.7" font-family="Source Sans Pro" font-size="16.00">/IEAsset.hpp</text>
</a>
</g>
</g>
<!-- Node2 -->
<g id="node2" class="node">
<title>Node2</title>
<g id="a_node2"><a xlink:href="opengl_renderable_8hpp.html" target="_top" xlink:title=" ">
<polygon fill="white" stroke="black" points="16.5,-180.5 16.5,-242.5 253.5,-242.5 253.5,-180.5 16.5,-180.5"/>
<text text-anchor="start" x="24.5" y="-225.7" font-family="Source Sans Pro" font-size="16.00">Illumination&#45;Engine</text>
<text text-anchor="start" x="24.5" y="-207.7" font-family="Source Sans Pro" font-size="16.00">/src/GraphicsModule</text>
<text text-anchor="middle" x="135" y="-189.7" font-family="Source Sans Pro" font-size="16.00">/OpenGL/openglRenderable.hpp</text>
</a>
</g>
</g>
<!-- Node1&#45;&gt;Node2 -->
<g id="edge1" class="edge">
<title>Node1&#45;&gt;Node2</title>
<path fill="none" stroke="midnightblue" d="M213.21,-273.19C200.24,-263.12 186.3,-252.31 173.84,-242.64"/>
<polygon fill="midnightblue" stroke="midnightblue" points="211.09,-275.97 221.13,-279.34 215.38,-270.44 211.09,-275.97"/>
</g>
<!-- Node5 -->
<g id="node5" class="node">
<title>Node5</title>
<g id="a_node5"><a xlink:href="vulkan_renderable_8hpp.html" target="_top" xlink:title=" ">
<polygon fill="white" stroke="black" points="276,-180.5 276,-242.5 502,-242.5 502,-180.5 276,-180.5"/>
<text text-anchor="start" x="284" y="-225.7" font-family="Source Sans Pro" font-size="16.00">Illumination&#45;Engine</text>
<text text-anchor="start" x="284" y="-207.7" font-family="Source Sans Pro" font-size="16.00">/src/GraphicsModule</text>
<text text-anchor="middle" x="389" y="-189.7" font-family="Source Sans Pro" font-size="16.00">/Vulkan/vulkanRenderable.hpp</text>
</a>
</g>
</g>
<!-- Node1&#45;&gt;Node5 -->
<g id="edge4" class="edge">
<title>Node1&#45;&gt;Node5</title>
<path fill="none" stroke="midnightblue" d="M308.29,-273.19C321.68,-263.12 336.06,-252.31 348.92,-242.64"/>
<polygon fill="midnightblue" stroke="midnightblue" points="306,-270.53 300.11,-279.34 310.21,-276.13 306,-270.53"/>
</g>
<!-- Node3 -->
<g id="node3" class="node">
<title>Node3</title>
<g id="a_node3"><a xlink:href="opengl_render_engine_8hpp.html" target="_top" xlink:title=" ">
<polygon fill="white" stroke="black" points="0,-81.5 0,-143.5 254,-143.5 254,-81.5 0,-81.5"/>
<text text-anchor="start" x="8" y="-126.7" font-family="Source Sans Pro" font-size="16.00">Illumination&#45;Engine</text>
<text text-anchor="start" x="8" y="-108.7" font-family="Source Sans Pro" font-size="16.00">/src/GraphicsModule</text>
<text text-anchor="middle" x="127" y="-90.7" font-family="Source Sans Pro" font-size="16.00">/OpenGL/openglRenderEngine.hpp</text>
</a>
</g>
</g>
<!-- Node2&#45;&gt;Node3 -->
<g id="edge2" class="edge">
<title>Node2&#45;&gt;Node3</title>
<path fill="none" stroke="midnightblue" d="M131.67,-170.17C130.94,-161.29 130.18,-152.03 129.49,-143.64"/>
<polygon fill="midnightblue" stroke="midnightblue" points="128.2,-170.66 132.51,-180.34 135.18,-170.09 128.2,-170.66"/>
</g>
<!-- Node4 -->
<g id="node4" class="node">
<title>Node4</title>
<g id="a_node4"><a xlink:href="main_8cpp.html" target="_top" xlink:title=" ">
<polygon fill="white" stroke="black" points="52,-0.5 52,-44.5 202,-44.5 202,-0.5 52,-0.5"/>
<text text-anchor="start" x="60" y="-27.7" font-family="Source Sans Pro" font-size="16.00">Illumination&#45;Engine</text>
<text text-anchor="middle" x="127" y="-9.7" font-family="Source Sans Pro" font-size="16.00">/src/main.cpp</text>
</a>
</g>
</g>
<!-- Node3&#45;&gt;Node4 -->
<g id="edge3" class="edge">
<title>Node3&#45;&gt;Node4</title>
<path fill="none" stroke="midnightblue" d="M127,-71.09C127,-61.97 127,-52.64 127,-44.68"/>
<polygon fill="midnightblue" stroke="midnightblue" points="123.5,-71.22 127,-81.22 130.5,-71.22 123.5,-71.22"/>
</g>
<!-- Node6 -->
<g id="node6" class="node">
<title>Node6</title>
<g id="a_node6"><a xlink:href="vulkan_render_engine_8hpp.html" target="_top" xlink:title=" ">
<polygon fill="white" stroke="black" points="272.5,-81.5 272.5,-143.5 515.5,-143.5 515.5,-81.5 272.5,-81.5"/>
<text text-anchor="start" x="280.5" y="-126.7" font-family="Source Sans Pro" font-size="16.00">Illumination&#45;Engine</text>
<text text-anchor="start" x="280.5" y="-108.7" font-family="Source Sans Pro" font-size="16.00">/src/GraphicsModule</text>
<text text-anchor="middle" x="394" y="-90.7" font-family="Source Sans Pro" font-size="16.00">/Vulkan/vulkanRenderEngine.hpp</text>
</a>
</g>
</g>
<!-- Node5&#45;&gt;Node6 -->
<g id="edge5" class="edge">
<title>Node5&#45;&gt;Node6</title>
<path fill="none" stroke="midnightblue" d="M391.08,-170.17C391.54,-161.29 392.01,-152.03 392.45,-143.64"/>
<polygon fill="midnightblue" stroke="midnightblue" points="387.57,-170.17 390.55,-180.34 394.56,-170.53 387.57,-170.17"/>
</g>
</g>
</svg>
