<?xml version="1.0" encoding="UTF-8" standalone="no"?>
<!DOCTYPE svg PUBLIC "-//W3C//DTD SVG 1.1//EN"
 "http://www.w3.org/Graphics/SVG/1.1/DTD/svg11.dtd">
<!-- Generated by graphviz version 2.43.0 (0)
 -->
<!-- Title: Illumination&#45;Engine/src/GraphicsModule/CommandBuffer/DependencyStructs/IEBufferMemoryBarrier.hpp Pages: 1 -->
<svg width="949pt" height="359pt"
 viewBox="0.00 0.00 949.00 359.00" xmlns="http://www.w3.org/2000/svg" xmlns:xlink="http://www.w3.org/1999/xlink">
<g id="graph0" class="graph" transform="scale(1 1) rotate(0) translate(4 355)">
<title>Illumination&#45;Engine/src/GraphicsModule/CommandBuffer/DependencyStructs/IEBufferMemoryBarrier.hpp</title>
<polygon fill="white" stroke="transparent" points="-4,4 -4,-355 945,-355 945,4 -4,4"/>
<!-- Node1 -->
<g id="node1" class="node">
<title>Node1</title>
<g id="a_node1"><a xlink:title=" ">
<polygon fill="#bfbfbf" stroke="black" points="0,-270.5 0,-350.5 272,-350.5 272,-270.5 0,-270.5"/>
<text text-anchor="start" x="8" y="-333.7" font-family="Source Sans Pro" font-size="16.00">Illumination&#45;Engine</text>
<text text-anchor="start" x="8" y="-315.7" font-family="Source Sans Pro" font-size="16.00">/src/GraphicsModule</text>
<text text-anchor="start" x="8" y="-297.7" font-family="Source Sans Pro" font-size="16.00">/CommandBuffer/DependencyStructs</text>
<text text-anchor="middle" x="136" y="-279.7" font-family="Source Sans Pro" font-size="16.00">/IEBufferMemoryBarrier.hpp</text>
</a>
</g>
</g>
<!-- Node2 -->
<g id="node2" class="node">
<title>Node2</title>
<g id="a_node2"><a xlink:title=" ">
<polygon fill="white" stroke="#bfbfbf" points="35.5,-63.5 35.5,-89.5 160.5,-89.5 160.5,-63.5 35.5,-63.5"/>
<text text-anchor="middle" x="98" y="-72.7" font-family="Source Sans Pro" font-size="16.00">vulkan/vulkan.h</text>
</a>
</g>
</g>
<!-- Node1&#45;&gt;Node2 -->
<g id="edge1" class="edge">
<title>Node1&#45;&gt;Node2</title>
<path fill="none" stroke="midnightblue" d="M128.5,-270.36C126.33,-258.67 124,-245.83 122,-234 113.91,-186.21 105.58,-130 101.17,-99.65"/>
<polygon fill="midnightblue" stroke="midnightblue" points="104.63,-99.09 99.74,-89.7 97.7,-100.09 104.63,-99.09"/>
</g>
<!-- Node3 -->
<g id="node3" class="node">
<title>Node3</title>
<g id="a_node3"><a xlink:title=" ">
<polygon fill="white" stroke="#bfbfbf" points="187,-63.5 187,-89.5 261,-89.5 261,-63.5 187,-63.5"/>
<text text-anchor="middle" x="224" y="-72.7" font-family="Source Sans Pro" font-size="16.00">memory</text>
</a>
</g>
</g>
<!-- Node1&#45;&gt;Node3 -->
<g id="edge2" class="edge">
<title>Node1&#45;&gt;Node3</title>
<path fill="none" stroke="midnightblue" d="M131.1,-270.45C128.12,-231.21 128.98,-170.34 155,-126 162.63,-112.99 175.29,-102.6 187.7,-94.83"/>
<polygon fill="midnightblue" stroke="midnightblue" points="189.74,-97.69 196.61,-89.63 186.21,-91.64 189.74,-97.69"/>
</g>
<!-- Node4 -->
<g id="node4" class="node">
<title>Node4</title>
<g id="a_node4"><a xlink:href="_i_e_buffer_8hpp.html" target="_top" xlink:title=" ">
<polygon fill="white" stroke="black" points="434.5,-207.5 434.5,-233.5 581.5,-233.5 581.5,-207.5 434.5,-207.5"/>
<text text-anchor="middle" x="508" y="-216.7" font-family="Source Sans Pro" font-size="16.00">Buffer/IEBuffer.hpp</text>
</a>
</g>
</g>
<!-- Node1&#45;&gt;Node4 -->
<g id="edge3" class="edge">
<title>Node1&#45;&gt;Node4</title>
<path fill="none" stroke="midnightblue" d="M272.14,-277.29C332.18,-263.09 399.71,-247.12 447.07,-235.91"/>
<polygon fill="midnightblue" stroke="midnightblue" points="447.94,-239.31 456.86,-233.6 446.33,-232.49 447.94,-239.31"/>
</g>
<!-- Node4&#45;&gt;Node2 -->
<g id="edge17" class="edge">
<title>Node4&#45;&gt;Node2</title>
<path fill="none" stroke="midnightblue" d="M434.47,-216.74C344.81,-212.13 199.7,-200.28 155,-171 129.19,-154.09 113.2,-121.04 104.95,-99.11"/>
<polygon fill="midnightblue" stroke="midnightblue" points="108.23,-97.9 101.6,-89.64 101.63,-100.24 108.23,-97.9"/>
</g>
<!-- Node5 -->
<g id="node5" class="node">
<title>Node5</title>
<g id="a_node5"><a xlink:href="_i_e_dependency_8hpp.html" target="_top" xlink:title=" ">
<polygon fill="white" stroke="black" points="164.5,-126.5 164.5,-170.5 409.5,-170.5 409.5,-126.5 164.5,-126.5"/>
<text text-anchor="start" x="172.5" y="-153.7" font-family="Source Sans Pro" font-size="16.00">GraphicsModule/CommandBuffer</text>
<text text-anchor="middle" x="287" y="-135.7" font-family="Source Sans Pro" font-size="16.00">/IEDependency.hpp</text>
</a>
</g>
</g>
<!-- Node4&#45;&gt;Node5 -->
<g id="edge4" class="edge">
<title>Node4&#45;&gt;Node5</title>
<path fill="none" stroke="midnightblue" d="M470.01,-207.47C440.67,-198.17 399.11,-185.01 363.02,-173.58"/>
<polygon fill="midnightblue" stroke="midnightblue" points="364.07,-170.24 353.48,-170.56 361.96,-176.91 364.07,-170.24"/>
</g>
<!-- Node6 -->
<g id="node6" class="node">
<title>Node6</title>
<g id="a_node6"><a xlink:title=" ">
<polygon fill="white" stroke="#bfbfbf" points="306.5,-0.5 306.5,-26.5 365.5,-26.5 365.5,-0.5 306.5,-0.5"/>
<text text-anchor="middle" x="336" y="-9.7" font-family="Source Sans Pro" font-size="16.00">vector</text>
</a>
</g>
</g>
<!-- Node4&#45;&gt;Node6 -->
<g id="edge18" class="edge">
<title>Node4&#45;&gt;Node6</title>
<path fill="none" stroke="midnightblue" d="M494.39,-207.17C484.08,-197.61 469.72,-183.88 458,-171 416,-124.86 372.36,-65.67 350.43,-34.99"/>
<polygon fill="midnightblue" stroke="midnightblue" points="353.24,-32.9 344.59,-26.78 347.53,-36.96 353.24,-32.9"/>
</g>
<!-- Node8 -->
<g id="node8" class="node">
<title>Node8</title>
<g id="a_node8"><a xlink:href="_i_e_a_p_i_8hpp.html" target="_top" xlink:title=" ">
<polygon fill="white" stroke="black" points="466.5,-135.5 466.5,-161.5 549.5,-161.5 549.5,-135.5 466.5,-135.5"/>
<text text-anchor="middle" x="508" y="-144.7" font-family="Source Sans Pro" font-size="16.00">IEAPI.hpp</text>
</a>
</g>
</g>
<!-- Node4&#45;&gt;Node8 -->
<g id="edge9" class="edge">
<title>Node4&#45;&gt;Node8</title>
<path fill="none" stroke="midnightblue" d="M508,-207.31C508,-197.47 508,-183.38 508,-171.57"/>
<polygon fill="midnightblue" stroke="midnightblue" points="511.5,-171.55 508,-161.55 504.5,-171.55 511.5,-171.55"/>
</g>
<!-- Node10 -->
<g id="node10" class="node">
<title>Node10</title>
<g id="a_node10"><a xlink:title=" ">
<polygon fill="white" stroke="#bfbfbf" points="524.5,-0.5 524.5,-26.5 587.5,-26.5 587.5,-0.5 524.5,-0.5"/>
<text text-anchor="middle" x="556" y="-9.7" font-family="Source Sans Pro" font-size="16.00">cstdint</text>
</a>
</g>
</g>
<!-- Node4&#45;&gt;Node10 -->
<g id="edge19" class="edge">
<title>Node4&#45;&gt;Node10</title>
<path fill="none" stroke="midnightblue" d="M527.05,-207.4C538.67,-198.82 552.5,-186.16 559,-171 578.17,-126.32 569.08,-67.66 561.87,-36.37"/>
<polygon fill="midnightblue" stroke="midnightblue" points="565.23,-35.39 559.44,-26.52 558.43,-37.07 565.23,-35.39"/>
</g>
<!-- Node11 -->
<g id="node11" class="node">
<title>Node11</title>
<g id="a_node11"><a xlink:title=" ">
<polygon fill="white" stroke="#bfbfbf" points="606.5,-135.5 606.5,-161.5 735.5,-161.5 735.5,-135.5 606.5,-135.5"/>
<text text-anchor="middle" x="671" y="-144.7" font-family="Source Sans Pro" font-size="16.00">vk_mem_alloc.h</text>
</a>
</g>
</g>
<!-- Node4&#45;&gt;Node11 -->
<g id="edge15" class="edge">
<title>Node4&#45;&gt;Node11</title>
<path fill="none" stroke="midnightblue" d="M536.02,-207.47C562.96,-195.9 603.86,-178.33 633.58,-165.57"/>
<polygon fill="midnightblue" stroke="midnightblue" points="634.99,-168.77 642.8,-161.61 632.23,-162.34 634.99,-168.77"/>
</g>
<!-- Node12 -->
<g id="node12" class="node">
<title>Node12</title>
<g id="a_node12"><a xlink:title=" ">
<polygon fill="white" stroke="#bfbfbf" points="753.5,-135.5 753.5,-161.5 836.5,-161.5 836.5,-135.5 753.5,-135.5"/>
<text text-anchor="middle" x="795" y="-144.7" font-family="Source Sans Pro" font-size="16.00">GL/glew.h</text>
</a>
</g>
</g>
<!-- Node4&#45;&gt;Node12 -->
<g id="edge16" class="edge">
<title>Node4&#45;&gt;Node12</title>
<path fill="none" stroke="midnightblue" d="M581.59,-208.43C628.88,-200.34 691.3,-187.84 745,-171 750,-169.43 755.18,-167.53 760.23,-165.52"/>
<polygon fill="midnightblue" stroke="midnightblue" points="761.81,-168.66 769.69,-161.57 759.11,-162.2 761.81,-168.66"/>
</g>
<!-- Node13 -->
<g id="node13" class="node">
<title>Node13</title>
<g id="a_node13"><a xlink:title=" ">
<polygon fill="white" stroke="#bfbfbf" points="855,-135.5 855,-161.5 941,-161.5 941,-135.5 855,-135.5"/>
<text text-anchor="middle" x="898" y="-144.7" font-family="Source Sans Pro" font-size="16.00">functional</text>
</a>
</g>
</g>
<!-- Node4&#45;&gt;Node13 -->
<g id="edge20" class="edge">
<title>Node4&#45;&gt;Node13</title>
<path fill="none" stroke="midnightblue" d="M581.6,-214.26C650.8,-208.09 756.8,-195.43 846,-171 851.67,-169.45 857.56,-167.43 863.23,-165.26"/>
<polygon fill="midnightblue" stroke="midnightblue" points="864.56,-168.5 872.52,-161.52 861.94,-162.01 864.56,-168.5"/>
</g>
<!-- Node5&#45;&gt;Node2 -->
<g id="edge6" class="edge">
<title>Node5&#45;&gt;Node2</title>
<path fill="none" stroke="midnightblue" d="M230.29,-126.5C201.24,-115.74 166.48,-102.86 139.89,-93.01"/>
<polygon fill="midnightblue" stroke="midnightblue" points="141.08,-89.72 130.48,-89.53 138.65,-96.29 141.08,-89.72"/>
</g>
<!-- Node5&#45;&gt;Node3 -->
<g id="edge8" class="edge">
<title>Node5&#45;&gt;Node3</title>
<path fill="none" stroke="midnightblue" d="M268.1,-126.5C259.69,-117.15 249.84,-106.22 241.59,-97.05"/>
<polygon fill="midnightblue" stroke="midnightblue" points="244.12,-94.62 234.83,-89.53 238.92,-99.31 244.12,-94.62"/>
</g>
<!-- Node5&#45;&gt;Node6 -->
<g id="edge5" class="edge">
<title>Node5&#45;&gt;Node6</title>
<path fill="none" stroke="midnightblue" d="M294.76,-126.43C303.83,-101.81 318.76,-61.3 327.95,-36.36"/>
<polygon fill="midnightblue" stroke="midnightblue" points="331.33,-37.31 331.5,-26.71 324.76,-34.89 331.33,-37.31"/>
</g>
<!-- Node7 -->
<g id="node7" class="node">
<title>Node7</title>
<g id="a_node7"><a xlink:title=" ">
<polygon fill="white" stroke="#bfbfbf" points="429.5,-0.5 429.5,-26.5 484.5,-26.5 484.5,-0.5 429.5,-0.5"/>
<text text-anchor="middle" x="457" y="-9.7" font-family="Source Sans Pro" font-size="16.00">string</text>
</a>
</g>
</g>
<!-- Node5&#45;&gt;Node7 -->
<g id="edge7" class="edge">
<title>Node5&#45;&gt;Node7</title>
<path fill="none" stroke="midnightblue" d="M313,-126.49C334.37,-109.28 365.5,-84.38 393,-63 406.02,-52.88 420.67,-41.76 432.67,-32.72"/>
<polygon fill="midnightblue" stroke="midnightblue" points="434.98,-35.36 440.87,-26.55 430.78,-29.76 434.98,-35.36"/>
</g>
<!-- Node8&#45;&gt;Node7 -->
<g id="edge14" class="edge">
<title>Node8&#45;&gt;Node7</title>
<path fill="none" stroke="midnightblue" d="M514.16,-135.34C521.88,-118.27 532.76,-86.66 521,-63 514.62,-50.17 503.05,-39.82 491.48,-32.03"/>
<polygon fill="midnightblue" stroke="midnightblue" points="493.06,-28.89 482.72,-26.57 489.35,-34.83 493.06,-28.89"/>
</g>
<!-- Node9 -->
<g id="node9" class="node">
<title>Node9</title>
<g id="a_node9"><a xlink:href="_i_e_version_8hpp.html" target="_top" xlink:title=" ">
<polygon fill="white" stroke="black" points="402,-63.5 402,-89.5 512,-89.5 512,-63.5 402,-63.5"/>
<text text-anchor="middle" x="457" y="-72.7" font-family="Source Sans Pro" font-size="16.00">IEVersion.hpp</text>
</a>
</g>
</g>
<!-- Node8&#45;&gt;Node9 -->
<g id="edge10" class="edge">
<title>Node8&#45;&gt;Node9</title>
<path fill="none" stroke="midnightblue" d="M499.12,-135.31C491.58,-124.97 480.63,-109.93 471.77,-97.78"/>
<polygon fill="midnightblue" stroke="midnightblue" points="474.5,-95.57 465.78,-89.55 468.84,-99.7 474.5,-95.57"/>
</g>
<!-- Node9&#45;&gt;Node6 -->
<g id="edge13" class="edge">
<title>Node9&#45;&gt;Node6</title>
<path fill="none" stroke="midnightblue" d="M433.09,-63.45C414.78,-54.22 389.3,-41.37 369.04,-31.16"/>
<polygon fill="midnightblue" stroke="midnightblue" points="370.36,-27.9 359.86,-26.53 367.21,-34.15 370.36,-27.9"/>
</g>
<!-- Node9&#45;&gt;Node7 -->
<g id="edge12" class="edge">
<title>Node9&#45;&gt;Node7</title>
<path fill="none" stroke="midnightblue" d="M457,-63.45C457,-55.85 457,-45.79 457,-36.78"/>
<polygon fill="midnightblue" stroke="midnightblue" points="460.5,-36.53 457,-26.53 453.5,-36.53 460.5,-36.53"/>
</g>
<!-- Node9&#45;&gt;Node10 -->
<g id="edge11" class="edge">
<title>Node9&#45;&gt;Node10</title>
<path fill="none" stroke="midnightblue" d="M476.56,-63.45C491.2,-54.43 511.45,-41.95 527.83,-31.85"/>
<polygon fill="midnightblue" stroke="midnightblue" points="529.8,-34.75 536.48,-26.53 526.13,-28.79 529.8,-34.75"/>
</g>
</g>
</svg>
