<?xml version="1.0" encoding="UTF-8" standalone="no"?>
<!DOCTYPE svg PUBLIC "-//W3C//DTD SVG 1.1//EN"
 "http://www.w3.org/Graphics/SVG/1.1/DTD/svg11.dtd">
<!-- Generated by graphviz version 2.43.0 (0)
 -->
<!-- Title: Illumination&#45;Engine/src/Core/FileSystemModule/IEFileSystem.hpp Pages: 1 -->
<svg width="794pt" height="260pt"
 viewBox="0.00 0.00 794.00 260.00" xmlns="http://www.w3.org/2000/svg" xmlns:xlink="http://www.w3.org/1999/xlink">
<g id="graph0" class="graph" transform="scale(1 1) rotate(0) translate(4 256)">
<title>Illumination&#45;Engine/src/Core/FileSystemModule/IEFileSystem.hpp</title>
<polygon fill="white" stroke="transparent" points="-4,4 -4,-256 790,-256 790,4 -4,4"/>
<!-- Node1 -->
<g id="node1" class="node">
<title>Node1</title>
<g id="a_node1"><a xlink:title=" ">
<polygon fill="#bfbfbf" stroke="black" points="399.5,-189.5 399.5,-251.5 606.5,-251.5 606.5,-189.5 399.5,-189.5"/>
<text text-anchor="start" x="407.5" y="-234.7" font-family="Source Sans Pro" font-size="16.00">Illumination&#45;Engine</text>
<text text-anchor="start" x="407.5" y="-216.7" font-family="Source Sans Pro" font-size="16.00">/src/Core/FileSystemModule</text>
<text text-anchor="middle" x="503" y="-198.7" font-family="Source Sans Pro" font-size="16.00">/IEFileSystem.hpp</text>
</a>
</g>
</g>
<!-- Node2 -->
<g id="node2" class="node">
<title>Node2</title>
<g id="a_node2"><a xlink:href="_i_e_directory_8hpp.html" target="_top" xlink:title=" ">
<polygon fill="white" stroke="black" points="398,-126.5 398,-152.5 520,-152.5 520,-126.5 398,-126.5"/>
<text text-anchor="middle" x="459" y="-135.7" font-family="Source Sans Pro" font-size="16.00">IEDirectory.hpp</text>
</a>
</g>
</g>
<!-- Node1&#45;&gt;Node2 -->
<g id="edge1" class="edge">
<title>Node1&#45;&gt;Node2</title>
<path fill="none" stroke="midnightblue" d="M486.11,-189.18C480.97,-179.95 475.44,-170.01 470.72,-161.54"/>
<polygon fill="midnightblue" stroke="midnightblue" points="473.72,-159.74 465.8,-152.7 467.6,-163.14 473.72,-159.74"/>
</g>
<!-- Node3 -->
<g id="node3" class="node">
<title>Node3</title>
<g id="a_node3"><a xlink:href="_i_e_file_8hpp.html" target="_top" xlink:title=" ">
<polygon fill="white" stroke="black" points="258,-63.5 258,-89.5 342,-89.5 342,-63.5 258,-63.5"/>
<text text-anchor="middle" x="300" y="-72.7" font-family="Source Sans Pro" font-size="16.00">IEFile.hpp</text>
</a>
</g>
</g>
<!-- Node1&#45;&gt;Node3 -->
<g id="edge10" class="edge">
<title>Node1&#45;&gt;Node3</title>
<path fill="none" stroke="midnightblue" d="M417.13,-189.43C395.91,-179.72 374.1,-167.6 356,-153 337.31,-137.93 321.61,-115.24 311.63,-98.67"/>
<polygon fill="midnightblue" stroke="midnightblue" points="314.49,-96.62 306.44,-89.73 308.43,-100.13 314.49,-96.62"/>
</g>
<!-- Node8 -->
<g id="node8" class="node">
<title>Node8</title>
<g id="a_node8"><a xlink:title=" ">
<polygon fill="white" stroke="#bfbfbf" points="354.5,-0.5 354.5,-26.5 409.5,-26.5 409.5,-0.5 354.5,-0.5"/>
<text text-anchor="middle" x="382" y="-9.7" font-family="Source Sans Pro" font-size="16.00">string</text>
</a>
</g>
</g>
<!-- Node1&#45;&gt;Node8 -->
<g id="edge11" class="edge">
<title>Node1&#45;&gt;Node8</title>
<path fill="none" stroke="midnightblue" d="M426.89,-189.35C411.96,-179.94 398.11,-167.97 389,-153 367.14,-117.07 371.85,-65.69 377.05,-36.67"/>
<polygon fill="midnightblue" stroke="midnightblue" points="380.51,-37.21 379.02,-26.72 373.65,-35.86 380.51,-37.21"/>
</g>
<!-- Node9 -->
<g id="node9" class="node">
<title>Node9</title>
<g id="a_node9"><a xlink:title=" ">
<polygon fill="white" stroke="#bfbfbf" points="429.5,-0.5 429.5,-26.5 488.5,-26.5 488.5,-0.5 429.5,-0.5"/>
<text text-anchor="middle" x="459" y="-9.7" font-family="Source Sans Pro" font-size="16.00">vector</text>
</a>
</g>
</g>
<!-- Node1&#45;&gt;Node9 -->
<g id="edge14" class="edge">
<title>Node1&#45;&gt;Node9</title>
<path fill="none" stroke="midnightblue" d="M520.1,-189.14C528.26,-170.83 535.06,-147.05 529,-126 518.83,-90.67 493.81,-55.72 476.61,-34.62"/>
<polygon fill="midnightblue" stroke="midnightblue" points="479.11,-32.15 470.01,-26.72 473.74,-36.64 479.11,-32.15"/>
</g>
<!-- Node10 -->
<g id="node10" class="node">
<title>Node10</title>
<g id="a_node10"><a xlink:title=" ">
<polygon fill="white" stroke="#bfbfbf" points="576,-126.5 576,-152.5 704,-152.5 704,-126.5 576,-126.5"/>
<text text-anchor="middle" x="640" y="-135.7" font-family="Source Sans Pro" font-size="16.00">unordered_map</text>
</a>
</g>
</g>
<!-- Node1&#45;&gt;Node10 -->
<g id="edge12" class="edge">
<title>Node1&#45;&gt;Node10</title>
<path fill="none" stroke="midnightblue" d="M555.18,-189.41C573.77,-178.69 594.05,-166.99 610.13,-157.73"/>
<polygon fill="midnightblue" stroke="midnightblue" points="612.14,-160.6 619.06,-152.58 608.65,-154.54 612.14,-160.6"/>
</g>
<!-- Node11 -->
<g id="node11" class="node">
<title>Node11</title>
<g id="a_node11"><a xlink:title=" ">
<polygon fill="white" stroke="#bfbfbf" points="722,-126.5 722,-152.5 786,-152.5 786,-126.5 722,-126.5"/>
<text text-anchor="middle" x="754" y="-135.7" font-family="Source Sans Pro" font-size="16.00">variant</text>
</a>
</g>
</g>
<!-- Node1&#45;&gt;Node11 -->
<g id="edge13" class="edge">
<title>Node1&#45;&gt;Node11</title>
<path fill="none" stroke="midnightblue" d="M598.61,-189.41C637.86,-177.05 681.26,-163.4 712.19,-153.66"/>
<polygon fill="midnightblue" stroke="midnightblue" points="713.29,-156.98 721.77,-150.64 711.18,-150.31 713.29,-156.98"/>
</g>
<!-- Node2&#45;&gt;Node3 -->
<g id="edge2" class="edge">
<title>Node2&#45;&gt;Node3</title>
<path fill="none" stroke="midnightblue" d="M427.59,-126.45C402.76,-116.92 367.91,-103.55 340.91,-93.19"/>
<polygon fill="midnightblue" stroke="midnightblue" points="341.94,-89.84 331.35,-89.53 339.43,-96.38 341.94,-89.84"/>
</g>
<!-- Node2&#45;&gt;Node9 -->
<g id="edge9" class="edge">
<title>Node2&#45;&gt;Node9</title>
<path fill="none" stroke="midnightblue" d="M459,-126.16C459,-105.36 459,-63.05 459,-36.9"/>
<polygon fill="midnightblue" stroke="midnightblue" points="462.5,-36.79 459,-26.79 455.5,-36.79 462.5,-36.79"/>
</g>
<!-- Node4 -->
<g id="node4" class="node">
<title>Node4</title>
<g id="a_node4"><a xlink:title=" ">
<polygon fill="white" stroke="#bfbfbf" points="164.5,-0.5 164.5,-26.5 249.5,-26.5 249.5,-0.5 164.5,-0.5"/>
<text text-anchor="middle" x="207" y="-9.7" font-family="Source Sans Pro" font-size="16.00">filesystem</text>
</a>
</g>
</g>
<!-- Node3&#45;&gt;Node4 -->
<g id="edge3" class="edge">
<title>Node3&#45;&gt;Node4</title>
<path fill="none" stroke="midnightblue" d="M281.63,-63.45C268,-54.51 249.2,-42.18 233.89,-32.14"/>
<polygon fill="midnightblue" stroke="midnightblue" points="235.62,-29.08 225.34,-26.53 231.78,-34.94 235.62,-29.08"/>
</g>
<!-- Node5 -->
<g id="node5" class="node">
<title>Node5</title>
<g id="a_node5"><a xlink:title=" ">
<polygon fill="white" stroke="#bfbfbf" points="268,-0.5 268,-26.5 336,-26.5 336,-0.5 268,-0.5"/>
<text text-anchor="middle" x="302" y="-9.7" font-family="Source Sans Pro" font-size="16.00">fstream</text>
</a>
</g>
</g>
<!-- Node3&#45;&gt;Node5 -->
<g id="edge4" class="edge">
<title>Node3&#45;&gt;Node5</title>
<path fill="none" stroke="midnightblue" d="M300.4,-63.45C300.64,-55.85 300.97,-45.79 301.27,-36.78"/>
<polygon fill="midnightblue" stroke="midnightblue" points="304.78,-36.64 301.61,-26.53 297.78,-36.41 304.78,-36.64"/>
</g>
<!-- Node6 -->
<g id="node6" class="node">
<title>Node6</title>
<g id="a_node6"><a xlink:title=" ">
<polygon fill="white" stroke="#bfbfbf" points="0,-0.5 0,-26.5 76,-26.5 76,-0.5 0,-0.5"/>
<text text-anchor="middle" x="38" y="-9.7" font-family="Source Sans Pro" font-size="16.00">iostream</text>
</a>
</g>
</g>
<!-- Node3&#45;&gt;Node6 -->
<g id="edge5" class="edge">
<title>Node3&#45;&gt;Node6</title>
<path fill="none" stroke="midnightblue" d="M257.87,-66.49C216.56,-57.55 151.56,-43.19 86.25,-27.25"/>
<polygon fill="midnightblue" stroke="midnightblue" points="86.73,-23.77 76.19,-24.79 85.07,-30.57 86.73,-23.77"/>
</g>
<!-- Node7 -->
<g id="node7" class="node">
<title>Node7</title>
<g id="a_node7"><a xlink:title=" ">
<polygon fill="white" stroke="#bfbfbf" points="94,-0.5 94,-26.5 146,-26.5 146,-0.5 94,-0.5"/>
<text text-anchor="middle" x="120" y="-9.7" font-family="Source Sans Pro" font-size="16.00">regex</text>
</a>
</g>
</g>
<!-- Node3&#45;&gt;Node7 -->
<g id="edge6" class="edge">
<title>Node3&#45;&gt;Node7</title>
<path fill="none" stroke="midnightblue" d="M263.28,-63.45C235.99,-54.44 197.62,-41.66 155.88,-27.27"/>
<polygon fill="midnightblue" stroke="midnightblue" points="156.95,-23.94 146.35,-23.98 154.66,-30.55 156.95,-23.94"/>
</g>
<!-- Node3&#45;&gt;Node8 -->
<g id="edge7" class="edge">
<title>Node3&#45;&gt;Node8</title>
<path fill="none" stroke="midnightblue" d="M316.2,-63.45C327.99,-54.68 344.17,-42.64 357.53,-32.7"/>
<polygon fill="midnightblue" stroke="midnightblue" points="359.9,-35.3 365.83,-26.53 355.72,-29.69 359.9,-35.3"/>
</g>
<!-- Node3&#45;&gt;Node9 -->
<g id="edge8" class="edge">
<title>Node3&#45;&gt;Node9</title>
<path fill="none" stroke="midnightblue" d="M331.41,-63.45C356.72,-53.74 392.45,-40.03 419.66,-29.59"/>
<polygon fill="midnightblue" stroke="midnightblue" points="421.18,-32.76 429.27,-25.91 418.68,-26.22 421.18,-32.76"/>
</g>
</g>
</svg>
