<?xml version="1.0" encoding="UTF-8" standalone="no"?>
<!DOCTYPE svg PUBLIC "-//W3C//DTD SVG 1.1//EN"
 "http://www.w3.org/Graphics/SVG/1.1/DTD/svg11.dtd">
<!-- Generated by graphviz version 2.43.0 (0)
 -->
<!-- Title: Illumination&#45;Engine/src/GraphicsModule/Shader/IEShader.hpp Pages: 1 -->
<svg width="3415pt" height="665pt"
 viewBox="0.00 0.00 3414.50 665.00" xmlns="http://www.w3.org/2000/svg" xmlns:xlink="http://www.w3.org/1999/xlink">
<g id="graph0" class="graph" transform="scale(1 1) rotate(0) translate(4 661)">
<title>Illumination&#45;Engine/src/GraphicsModule/Shader/IEShader.hpp</title>
<polygon fill="white" stroke="transparent" points="-4,4 -4,-661 3410.5,-661 3410.5,4 -4,4"/>
<!-- Node1 -->
<g id="node1" class="node">
<title>Node1</title>
<g id="a_node1"><a xlink:title=" ">
<polygon fill="#bfbfbf" stroke="black" points="1220.5,-594.5 1220.5,-656.5 1386.5,-656.5 1386.5,-594.5 1220.5,-594.5"/>
<text text-anchor="start" x="1228.5" y="-639.7" font-family="Source Sans Pro" font-size="16.00">Illumination&#45;Engine</text>
<text text-anchor="start" x="1228.5" y="-621.7" font-family="Source Sans Pro" font-size="16.00">/src/GraphicsModule</text>
<text text-anchor="middle" x="1303.5" y="-603.7" font-family="Source Sans Pro" font-size="16.00">/Shader/IEShader.hpp</text>
</a>
</g>
</g>
<!-- Node2 -->
<g id="node2" class="node">
<title>Node2</title>
<g id="a_node2"><a xlink:href="_i_e_renderable_8hpp.html" target="_top" xlink:title=" ">
<polygon fill="white" stroke="black" points="261,-189.5 261,-251.5 488,-251.5 488,-189.5 261,-189.5"/>
<text text-anchor="start" x="269" y="-234.7" font-family="Source Sans Pro" font-size="16.00">Illumination&#45;Engine</text>
<text text-anchor="start" x="269" y="-216.7" font-family="Source Sans Pro" font-size="16.00">/src/GraphicsModule</text>
<text text-anchor="middle" x="374.5" y="-198.7" font-family="Source Sans Pro" font-size="16.00">/Renderable/IERenderable.hpp</text>
</a>
</g>
</g>
<!-- Node1&#45;&gt;Node2 -->
<g id="edge1" class="edge">
<title>Node1&#45;&gt;Node2</title>
<path fill="none" stroke="midnightblue" d="M1210.26,-619.17C1058.66,-607.42 752.36,-570.73 520.5,-459 458.21,-428.99 435.65,-419.54 400.5,-360 380.72,-326.5 375.48,-281.19 374.35,-251.66"/>
<polygon fill="midnightblue" stroke="midnightblue" points="1210.22,-622.67 1220.46,-619.94 1210.75,-615.69 1210.22,-622.67"/>
</g>
<!-- Node6 -->
<g id="node6" class="node">
<title>Node6</title>
<g id="a_node6"><a xlink:href="_i_e_pipeline_8hpp.html" target="_top" xlink:title=" ">
<polygon fill="white" stroke="black" points="1217,-495.5 1217,-557.5 1390,-557.5 1390,-495.5 1217,-495.5"/>
<text text-anchor="start" x="1225" y="-540.7" font-family="Source Sans Pro" font-size="16.00">Illumination&#45;Engine</text>
<text text-anchor="start" x="1225" y="-522.7" font-family="Source Sans Pro" font-size="16.00">/src/GraphicsModule</text>
<text text-anchor="middle" x="1303.5" y="-504.7" font-family="Source Sans Pro" font-size="16.00">/Shader/IEPipeline.hpp</text>
</a>
</g>
</g>
<!-- Node1&#45;&gt;Node6 -->
<g id="edge5" class="edge">
<title>Node1&#45;&gt;Node6</title>
<path fill="none" stroke="midnightblue" d="M1303.5,-584.17C1303.5,-575.29 1303.5,-566.03 1303.5,-557.64"/>
<polygon fill="midnightblue" stroke="midnightblue" points="1300,-584.34 1303.5,-594.34 1307,-584.34 1300,-584.34"/>
</g>
<!-- Node23 -->
<g id="node23" class="node">
<title>Node23</title>
<g id="a_node23"><a xlink:href="_i_e_shader_8cpp.html" target="_top" xlink:title=" ">
<polygon fill="white" stroke="black" points="3242.5,-81.5 3242.5,-143.5 3406.5,-143.5 3406.5,-81.5 3242.5,-81.5"/>
<text text-anchor="start" x="3250.5" y="-126.7" font-family="Source Sans Pro" font-size="16.00">Illumination&#45;Engine</text>
<text text-anchor="start" x="3250.5" y="-108.7" font-family="Source Sans Pro" font-size="16.00">/src/GraphicsModule</text>
<text text-anchor="middle" x="3324.5" y="-90.7" font-family="Source Sans Pro" font-size="16.00">/Shader/IEShader.cpp</text>
</a>
</g>
</g>
<!-- Node1&#45;&gt;Node23 -->
<g id="edge42" class="edge">
<title>Node1&#45;&gt;Node23</title>
<path fill="none" stroke="midnightblue" d="M1396.72,-625.17C1788.37,-626.77 3280.5,-620.27 3280.5,-428.5 3280.5,-428.5 3280.5,-428.5 3280.5,-327.5 3280.5,-260.74 3301.3,-184.63 3314.29,-143.58"/>
<polygon fill="midnightblue" stroke="midnightblue" points="1396.57,-621.67 1386.56,-625.12 1396.54,-628.67 1396.57,-621.67"/>
</g>
<!-- Node3 -->
<g id="node3" class="node">
<title>Node3</title>
<g id="a_node3"><a xlink:href="_i_e_render_engine_8cpp.html" target="_top" xlink:title=" ">
<polygon fill="white" stroke="black" points="243,-81.5 243,-143.5 402,-143.5 402,-81.5 243,-81.5"/>
<text text-anchor="start" x="251" y="-126.7" font-family="Source Sans Pro" font-size="16.00">Illumination&#45;Engine</text>
<text text-anchor="start" x="251" y="-108.7" font-family="Source Sans Pro" font-size="16.00">/src/GraphicsModule</text>
<text text-anchor="middle" x="322.5" y="-90.7" font-family="Source Sans Pro" font-size="16.00">/IERenderEngine.cpp</text>
</a>
</g>
</g>
<!-- Node2&#45;&gt;Node3 -->
<g id="edge2" class="edge">
<title>Node2&#45;&gt;Node3</title>
<path fill="none" stroke="midnightblue" d="M355.31,-180.38C349.36,-168.26 342.9,-155.09 337.3,-143.67"/>
<polygon fill="midnightblue" stroke="midnightblue" points="352.19,-181.97 359.74,-189.41 358.48,-178.89 352.19,-181.97"/>
</g>
<!-- Node5 -->
<g id="node5" class="node">
<title>Node5</title>
<g id="a_node5"><a xlink:href="_i_e_renderable_8cpp.html" target="_top" xlink:title=" ">
<polygon fill="white" stroke="black" points="0,-81.5 0,-143.5 225,-143.5 225,-81.5 0,-81.5"/>
<text text-anchor="start" x="8" y="-126.7" font-family="Source Sans Pro" font-size="16.00">Illumination&#45;Engine</text>
<text text-anchor="start" x="8" y="-108.7" font-family="Source Sans Pro" font-size="16.00">/src/GraphicsModule</text>
<text text-anchor="middle" x="112.5" y="-90.7" font-family="Source Sans Pro" font-size="16.00">/Renderable/IERenderable.cpp</text>
</a>
</g>
</g>
<!-- Node2&#45;&gt;Node5 -->
<g id="edge4" class="edge">
<title>Node2&#45;&gt;Node5</title>
<path fill="none" stroke="midnightblue" d="M290.42,-185.48C257.19,-172.04 219.31,-156.71 187.06,-143.67"/>
<polygon fill="midnightblue" stroke="midnightblue" points="289.54,-188.9 300.12,-189.41 292.16,-182.41 289.54,-188.9"/>
</g>
<!-- Node4 -->
<g id="node4" class="node">
<title>Node4</title>
<g id="a_node4"><a xlink:href="main_8cpp.html" target="_top" xlink:title=" ">
<polygon fill="white" stroke="black" points="247.5,-0.5 247.5,-44.5 397.5,-44.5 397.5,-0.5 247.5,-0.5"/>
<text text-anchor="start" x="255.5" y="-27.7" font-family="Source Sans Pro" font-size="16.00">Illumination&#45;Engine</text>
<text text-anchor="middle" x="322.5" y="-9.7" font-family="Source Sans Pro" font-size="16.00">/src/main.cpp</text>
</a>
</g>
</g>
<!-- Node3&#45;&gt;Node4 -->
<g id="edge3" class="edge">
<title>Node3&#45;&gt;Node4</title>
<path fill="none" stroke="midnightblue" d="M322.5,-71.09C322.5,-61.97 322.5,-52.64 322.5,-44.68"/>
<polygon fill="midnightblue" stroke="midnightblue" points="319,-71.22 322.5,-81.22 326,-71.22 319,-71.22"/>
</g>
<!-- Node6&#45;&gt;Node2 -->
<g id="edge40" class="edge">
<title>Node6&#45;&gt;Node2</title>
<path fill="none" stroke="midnightblue" d="M1206.84,-517.66C1009.56,-499.95 569.3,-451.1 452.5,-360 416.81,-332.17 394.84,-283.15 383.65,-251.52"/>
<polygon fill="midnightblue" stroke="midnightblue" points="1206.64,-521.16 1216.91,-518.56 1207.26,-514.19 1206.64,-521.16"/>
</g>
<!-- Node7 -->
<g id="node7" class="node">
<title>Node7</title>
<g id="a_node7"><a xlink:href="_i_e_command_buffer_8cpp.html" target="_top" xlink:title=" ">
<polygon fill="white" stroke="black" points="2741,-81.5 2741,-143.5 3034,-143.5 3034,-81.5 2741,-81.5"/>
<text text-anchor="start" x="2749" y="-126.7" font-family="Source Sans Pro" font-size="16.00">Illumination&#45;Engine</text>
<text text-anchor="start" x="2749" y="-108.7" font-family="Source Sans Pro" font-size="16.00">/src/GraphicsModule</text>
<text text-anchor="middle" x="2887.5" y="-90.7" font-family="Source Sans Pro" font-size="16.00">/CommandBuffer/IECommandBuffer.cpp</text>
</a>
</g>
</g>
<!-- Node6&#45;&gt;Node7 -->
<g id="edge6" class="edge">
<title>Node6&#45;&gt;Node7</title>
<path fill="none" stroke="midnightblue" d="M1400.35,-511.46C1474.34,-499.86 1578.57,-481.66 1668.5,-459 1945.31,-389.26 2008.05,-349.31 2279.5,-261 2389.76,-225.13 2415.02,-208.15 2527.5,-180 2616.81,-157.65 2640.98,-160.83 2731.5,-144 2734.62,-143.42 2737.77,-142.83 2740.95,-142.23"/>
<polygon fill="midnightblue" stroke="midnightblue" points="1399.45,-508.05 1390.11,-513.05 1400.53,-514.97 1399.45,-508.05"/>
</g>
<!-- Node8 -->
<g id="node8" class="node">
<title>Node8</title>
<g id="a_node8"><a xlink:href="_i_e_command_buffer_8hpp.html" target="_top" xlink:title=" ">
<polygon fill="white" stroke="black" points="1365,-396.5 1365,-458.5 1660,-458.5 1660,-396.5 1365,-396.5"/>
<text text-anchor="start" x="1373" y="-441.7" font-family="Source Sans Pro" font-size="16.00">Illumination&#45;Engine</text>
<text text-anchor="start" x="1373" y="-423.7" font-family="Source Sans Pro" font-size="16.00">/src/GraphicsModule</text>
<text text-anchor="middle" x="1512.5" y="-405.7" font-family="Source Sans Pro" font-size="16.00">/CommandBuffer/IECommandBuffer.hpp</text>
</a>
</g>
</g>
<!-- Node6&#45;&gt;Node8 -->
<g id="edge7" class="edge">
<title>Node6&#45;&gt;Node8</title>
<path fill="none" stroke="midnightblue" d="M1377.54,-491.14C1400.45,-480.5 1425.51,-468.87 1447.75,-458.55"/>
<polygon fill="midnightblue" stroke="midnightblue" points="1375.79,-488.09 1368.2,-495.47 1378.74,-494.44 1375.79,-488.09"/>
</g>
<!-- Node22 -->
<g id="node22" class="node">
<title>Node22</title>
<g id="a_node22"><a xlink:href="_i_e_pipeline_8cpp.html" target="_top" xlink:title=" ">
<polygon fill="white" stroke="black" points="3052.5,-81.5 3052.5,-143.5 3224.5,-143.5 3224.5,-81.5 3052.5,-81.5"/>
<text text-anchor="start" x="3060.5" y="-126.7" font-family="Source Sans Pro" font-size="16.00">Illumination&#45;Engine</text>
<text text-anchor="start" x="3060.5" y="-108.7" font-family="Source Sans Pro" font-size="16.00">/src/GraphicsModule</text>
<text text-anchor="middle" x="3138.5" y="-90.7" font-family="Source Sans Pro" font-size="16.00">/Shader/IEPipeline.cpp</text>
</a>
</g>
</g>
<!-- Node6&#45;&gt;Node22 -->
<g id="edge41" class="edge">
<title>Node6&#45;&gt;Node22</title>
<path fill="none" stroke="midnightblue" d="M1400.29,-515.61C1499.51,-504.71 1658.02,-485.19 1793.5,-459 2355.59,-350.33 2491.88,-300.75 3042.5,-144 3045.78,-143.07 3049.12,-142.1 3052.48,-141.11"/>
<polygon fill="midnightblue" stroke="midnightblue" points="1399.84,-512.14 1390.28,-516.7 1400.6,-519.09 1399.84,-512.14"/>
</g>
<!-- Node26 -->
<g id="node26" class="node">
<title>Node26</title>
<g id="a_node26"><a xlink:href="_i_e_dependency_8cpp.html" target="_top" xlink:title=" ">
<polygon fill="white" stroke="black" points="950.5,-189.5 950.5,-251.5 1216.5,-251.5 1216.5,-189.5 950.5,-189.5"/>
<text text-anchor="start" x="958.5" y="-234.7" font-family="Source Sans Pro" font-size="16.00">Illumination&#45;Engine</text>
<text text-anchor="start" x="958.5" y="-216.7" font-family="Source Sans Pro" font-size="16.00">/src/GraphicsModule</text>
<text text-anchor="middle" x="1083.5" y="-198.7" font-family="Source Sans Pro" font-size="16.00">/CommandBuffer/IEDependency.cpp</text>
</a>
</g>
</g>
<!-- Node6&#45;&gt;Node26 -->
<g id="edge34" class="edge">
<title>Node6&#45;&gt;Node26</title>
<path fill="none" stroke="midnightblue" d="M1275.63,-486.98C1231.26,-425.68 1145.52,-307.2 1105.31,-251.64"/>
<polygon fill="midnightblue" stroke="midnightblue" points="1272.9,-489.19 1281.6,-495.24 1278.57,-485.09 1272.9,-489.19"/>
</g>
<!-- Node27 -->
<g id="node27" class="node">
<title>Node27</title>
<g id="a_node27"><a xlink:href="_i_e_mesh_8hpp.html" target="_top" xlink:title=" ">
<polygon fill="white" stroke="black" points="462,-297.5 462,-359.5 647,-359.5 647,-297.5 462,-297.5"/>
<text text-anchor="start" x="470" y="-342.7" font-family="Source Sans Pro" font-size="16.00">Illumination&#45;Engine</text>
<text text-anchor="start" x="470" y="-324.7" font-family="Source Sans Pro" font-size="16.00">/src/GraphicsModule</text>
<text text-anchor="middle" x="554.5" y="-306.7" font-family="Source Sans Pro" font-size="16.00">/Renderable/IEMesh.hpp</text>
</a>
</g>
</g>
<!-- Node6&#45;&gt;Node27 -->
<g id="edge35" class="edge">
<title>Node6&#45;&gt;Node27</title>
<path fill="none" stroke="midnightblue" d="M1207.06,-500.26C1062.08,-462.32 789.78,-391.07 647.09,-353.73"/>
<polygon fill="midnightblue" stroke="midnightblue" points="1206.29,-503.68 1216.85,-502.82 1208.06,-496.91 1206.29,-503.68"/>
</g>
<!-- Node8&#45;&gt;Node7 -->
<g id="edge8" class="edge">
<title>Node8&#45;&gt;Node7</title>
<path fill="none" stroke="midnightblue" d="M1670.16,-397.05C1722.12,-386.46 1780.02,-373.72 1832.5,-360 2089.12,-292.93 2141.95,-234.65 2401.5,-180 2545.87,-149.6 2585.64,-166.17 2731.5,-144 2734.5,-143.54 2737.53,-143.07 2740.59,-142.58"/>
<polygon fill="midnightblue" stroke="midnightblue" points="1669.3,-393.65 1660.19,-399.07 1670.69,-400.51 1669.3,-393.65"/>
</g>
<!-- Node9 -->
<g id="node9" class="node">
<title>Node9</title>
<g id="a_node9"><a xlink:href="_i_e_command_pool_8hpp.html" target="_top" xlink:title=" ">
<polygon fill="white" stroke="black" points="1539,-297.5 1539,-359.5 1824,-359.5 1824,-297.5 1539,-297.5"/>
<text text-anchor="start" x="1547" y="-342.7" font-family="Source Sans Pro" font-size="16.00">Illumination&#45;Engine</text>
<text text-anchor="start" x="1547" y="-324.7" font-family="Source Sans Pro" font-size="16.00">/src/GraphicsModule</text>
<text text-anchor="middle" x="1681.5" y="-306.7" font-family="Source Sans Pro" font-size="16.00">/CommandBuffer/IECommandPool.hpp</text>
</a>
</g>
</g>
<!-- Node8&#45;&gt;Node9 -->
<g id="edge9" class="edge">
<title>Node8&#45;&gt;Node9</title>
<path fill="none" stroke="midnightblue" d="M1573.79,-391.32C1591.88,-380.94 1611.5,-369.68 1628.99,-359.64"/>
<polygon fill="midnightblue" stroke="midnightblue" points="1571.98,-388.33 1565.05,-396.34 1575.46,-394.4 1571.98,-388.33"/>
</g>
<!-- Node24 -->
<g id="node24" class="node">
<title>Node24</title>
<g id="a_node24"><a xlink:href="_i_e_render_pass_8hpp.html" target="_top" xlink:title=" ">
<polygon fill="white" stroke="black" points="1230.5,-297.5 1230.5,-359.5 1458.5,-359.5 1458.5,-297.5 1230.5,-297.5"/>
<text text-anchor="start" x="1238.5" y="-342.7" font-family="Source Sans Pro" font-size="16.00">Illumination&#45;Engine</text>
<text text-anchor="start" x="1238.5" y="-324.7" font-family="Source Sans Pro" font-size="16.00">/src/GraphicsModule</text>
<text text-anchor="middle" x="1344.5" y="-306.7" font-family="Source Sans Pro" font-size="16.00">/RenderPass/IERenderPass.hpp</text>
</a>
</g>
</g>
<!-- Node8&#45;&gt;Node24 -->
<g id="edge28" class="edge">
<title>Node8&#45;&gt;Node24</title>
<path fill="none" stroke="midnightblue" d="M1451.58,-391.32C1433.59,-380.94 1414.08,-369.68 1396.7,-359.64"/>
<polygon fill="midnightblue" stroke="midnightblue" points="1449.85,-394.37 1460.26,-396.34 1453.35,-388.31 1449.85,-394.37"/>
</g>
<!-- Node10 -->
<g id="node10" class="node">
<title>Node10</title>
<g id="a_node10"><a xlink:href="_i_e_command_pool_8cpp.html" target="_top" xlink:title=" ">
<polygon fill="white" stroke="black" points="2438.5,-81.5 2438.5,-143.5 2722.5,-143.5 2722.5,-81.5 2438.5,-81.5"/>
<text text-anchor="start" x="2446.5" y="-126.7" font-family="Source Sans Pro" font-size="16.00">Illumination&#45;Engine</text>
<text text-anchor="start" x="2446.5" y="-108.7" font-family="Source Sans Pro" font-size="16.00">/src/GraphicsModule</text>
<text text-anchor="middle" x="2580.5" y="-90.7" font-family="Source Sans Pro" font-size="16.00">/CommandBuffer/IECommandPool.cpp</text>
</a>
</g>
</g>
<!-- Node9&#45;&gt;Node10 -->
<g id="edge10" class="edge">
<title>Node9&#45;&gt;Node10</title>
<path fill="none" stroke="midnightblue" d="M1780.85,-294.29C1882.34,-261.4 2044.94,-211.5 2188.5,-180 2293.85,-156.88 2322.26,-162.62 2428.5,-144 2431.68,-143.44 2434.9,-142.87 2438.14,-142.29"/>
<polygon fill="midnightblue" stroke="midnightblue" points="1779.66,-291 1771.23,-297.42 1781.82,-297.66 1779.66,-291"/>
</g>
<!-- Node11 -->
<g id="node11" class="node">
<title>Node11</title>
<g id="a_node11"><a xlink:href="_i_e_render_engine_8hpp.html" target="_top" xlink:title=" ">
<polygon fill="white" stroke="black" points="1601,-189.5 1601,-251.5 1762,-251.5 1762,-189.5 1601,-189.5"/>
<text text-anchor="start" x="1609" y="-234.7" font-family="Source Sans Pro" font-size="16.00">Illumination&#45;Engine</text>
<text text-anchor="start" x="1609" y="-216.7" font-family="Source Sans Pro" font-size="16.00">/src/GraphicsModule</text>
<text text-anchor="middle" x="1681.5" y="-198.7" font-family="Source Sans Pro" font-size="16.00">/IERenderEngine.hpp</text>
</a>
</g>
</g>
<!-- Node9&#45;&gt;Node11 -->
<g id="edge11" class="edge">
<title>Node9&#45;&gt;Node11</title>
<path fill="none" stroke="midnightblue" d="M1681.5,-287.31C1681.5,-275.48 1681.5,-262.75 1681.5,-251.67"/>
<polygon fill="midnightblue" stroke="midnightblue" points="1678,-287.41 1681.5,-297.41 1685,-287.41 1678,-287.41"/>
</g>
<!-- Node11&#45;&gt;Node3 -->
<g id="edge17" class="edge">
<title>Node11&#45;&gt;Node3</title>
<path fill="none" stroke="midnightblue" d="M1611.78,-185.86C1605.04,-183.53 1598.21,-181.51 1591.5,-180 1335.38,-122.18 668.73,-191.54 410.5,-144 407.8,-143.5 405.06,-142.94 402.32,-142.31"/>
<polygon fill="midnightblue" stroke="midnightblue" points="1610.98,-189.29 1621.58,-189.46 1613.4,-182.72 1610.98,-189.29"/>
</g>
<!-- Node11&#45;&gt;Node5 -->
<g id="edge24" class="edge">
<title>Node11&#45;&gt;Node5</title>
<path fill="none" stroke="midnightblue" d="M1611.79,-185.83C1605.04,-183.51 1598.21,-181.5 1591.5,-180 1296.89,-114.11 532.57,-185.14 233.5,-144 230.71,-143.62 227.89,-143.19 225.05,-142.73"/>
<polygon fill="midnightblue" stroke="midnightblue" points="1610.99,-189.26 1621.58,-189.42 1613.4,-182.69 1610.99,-189.26"/>
</g>
<!-- Node11&#45;&gt;Node7 -->
<g id="edge13" class="edge">
<title>Node11&#45;&gt;Node7</title>
<path fill="none" stroke="midnightblue" d="M1772.47,-212.09C1873.93,-203.91 2042.92,-190.5 2188.5,-180 2429.74,-162.61 2491.67,-175.27 2731.5,-144 2734.51,-143.61 2737.55,-143.19 2740.61,-142.76"/>
<polygon fill="midnightblue" stroke="midnightblue" points="1771.95,-208.62 1762.26,-212.92 1772.51,-215.6 1771.95,-208.62"/>
</g>
<!-- Node11&#45;&gt;Node10 -->
<g id="edge14" class="edge">
<title>Node11&#45;&gt;Node10</title>
<path fill="none" stroke="midnightblue" d="M1772.27,-205.33C1827.46,-197.08 1899.42,-186.96 1963.5,-180 2169.57,-157.61 2223.18,-172.44 2428.5,-144 2431.7,-143.56 2434.93,-143.09 2438.19,-142.6"/>
<polygon fill="midnightblue" stroke="midnightblue" points="1771.54,-201.9 1762.17,-206.85 1772.58,-208.82 1771.54,-201.9"/>
</g>
<!-- Node12 -->
<g id="node12" class="node">
<title>Node12</title>
<g id="a_node12"><a xlink:href="_i_e_buffer_8cpp.html" target="_top" xlink:title=" ">
<polygon fill="white" stroke="black" points="1559,-81.5 1559,-143.5 1716,-143.5 1716,-81.5 1559,-81.5"/>
<text text-anchor="start" x="1567" y="-126.7" font-family="Source Sans Pro" font-size="16.00">Illumination&#45;Engine</text>
<text text-anchor="start" x="1567" y="-108.7" font-family="Source Sans Pro" font-size="16.00">/src/GraphicsModule</text>
<text text-anchor="middle" x="1637.5" y="-90.7" font-family="Source Sans Pro" font-size="16.00">/Buffer/IEBuffer.cpp</text>
</a>
</g>
</g>
<!-- Node11&#45;&gt;Node12 -->
<g id="edge12" class="edge">
<title>Node11&#45;&gt;Node12</title>
<path fill="none" stroke="midnightblue" d="M1665.12,-180.03C1660.12,-168 1654.72,-154.98 1650.02,-143.67"/>
<polygon fill="midnightblue" stroke="midnightblue" points="1661.94,-181.51 1669.01,-189.41 1668.41,-178.83 1661.94,-181.51"/>
</g>
<!-- Node13 -->
<g id="node13" class="node">
<title>Node13</title>
<g id="a_node13"><a xlink:href="_i_e_a_p_i_8cpp.html" target="_top" xlink:title=" ">
<polygon fill="white" stroke="black" points="1734,-81.5 1734,-143.5 1891,-143.5 1891,-81.5 1734,-81.5"/>
<text text-anchor="start" x="1742" y="-126.7" font-family="Source Sans Pro" font-size="16.00">Illumination&#45;Engine</text>
<text text-anchor="start" x="1742" y="-108.7" font-family="Source Sans Pro" font-size="16.00">/src/GraphicsModule</text>
<text text-anchor="middle" x="1812.5" y="-90.7" font-family="Source Sans Pro" font-size="16.00">/IEAPI.cpp</text>
</a>
</g>
</g>
<!-- Node11&#45;&gt;Node13 -->
<g id="edge15" class="edge">
<title>Node11&#45;&gt;Node13</title>
<path fill="none" stroke="midnightblue" d="M1726.77,-182.87C1742.58,-170.07 1760.13,-155.87 1775.22,-143.67"/>
<polygon fill="midnightblue" stroke="midnightblue" points="1724.26,-180.4 1718.69,-189.41 1728.66,-185.84 1724.26,-180.4"/>
</g>
<!-- Node14 -->
<g id="node14" class="node">
<title>Node14</title>
<g id="a_node14"><a xlink:href="_i_e_camera_8cpp.html" target="_top" xlink:title=" ">
<polygon fill="white" stroke="black" points="1909,-81.5 1909,-143.5 2066,-143.5 2066,-81.5 1909,-81.5"/>
<text text-anchor="start" x="1917" y="-126.7" font-family="Source Sans Pro" font-size="16.00">Illumination&#45;Engine</text>
<text text-anchor="start" x="1917" y="-108.7" font-family="Source Sans Pro" font-size="16.00">/src/GraphicsModule</text>
<text text-anchor="middle" x="1987.5" y="-90.7" font-family="Source Sans Pro" font-size="16.00">/IECamera.cpp</text>
</a>
</g>
</g>
<!-- Node11&#45;&gt;Node14 -->
<g id="edge16" class="edge">
<title>Node11&#45;&gt;Node14</title>
<path fill="none" stroke="midnightblue" d="M1772.05,-188.14C1811.24,-174.57 1857.63,-158.51 1899.5,-144 1902.56,-142.94 1905.67,-141.86 1908.82,-140.77"/>
<polygon fill="midnightblue" stroke="midnightblue" points="1770.56,-184.96 1762.25,-191.54 1772.85,-191.57 1770.56,-184.96"/>
</g>
<!-- Node15 -->
<g id="node15" class="node">
<title>Node15</title>
<g id="a_node15"><a xlink:href="_i_e_image_8cpp.html" target="_top" xlink:title=" ">
<polygon fill="white" stroke="black" points="2084,-81.5 2084,-143.5 2241,-143.5 2241,-81.5 2084,-81.5"/>
<text text-anchor="start" x="2092" y="-126.7" font-family="Source Sans Pro" font-size="16.00">Illumination&#45;Engine</text>
<text text-anchor="start" x="2092" y="-108.7" font-family="Source Sans Pro" font-size="16.00">/src/GraphicsModule</text>
<text text-anchor="middle" x="2162.5" y="-90.7" font-family="Source Sans Pro" font-size="16.00">/Image/IEImage.cpp</text>
</a>
</g>
</g>
<!-- Node11&#45;&gt;Node15 -->
<g id="edge18" class="edge">
<title>Node11&#45;&gt;Node15</title>
<path fill="none" stroke="midnightblue" d="M1772.12,-205.89C1852.32,-192.95 1972.17,-171.41 2074.5,-144 2077.62,-143.16 2080.8,-142.27 2083.99,-141.34"/>
<polygon fill="midnightblue" stroke="midnightblue" points="1771.37,-202.47 1762.05,-207.51 1772.48,-209.38 1771.37,-202.47"/>
</g>
<!-- Node16 -->
<g id="node16" class="node">
<title>Node16</title>
<g id="a_node16"><a xlink:href="_i_e_texture_8cpp.html" target="_top" xlink:title=" ">
<polygon fill="white" stroke="black" points="2259,-81.5 2259,-143.5 2420,-143.5 2420,-81.5 2259,-81.5"/>
<text text-anchor="start" x="2267" y="-126.7" font-family="Source Sans Pro" font-size="16.00">Illumination&#45;Engine</text>
<text text-anchor="start" x="2267" y="-108.7" font-family="Source Sans Pro" font-size="16.00">/src/GraphicsModule</text>
<text text-anchor="middle" x="2339.5" y="-90.7" font-family="Source Sans Pro" font-size="16.00">/Image/IETexture.cpp</text>
</a>
</g>
</g>
<!-- Node11&#45;&gt;Node16 -->
<g id="edge19" class="edge">
<title>Node11&#45;&gt;Node16</title>
<path fill="none" stroke="midnightblue" d="M1772.41,-206.44C1827.64,-198.58 1899.6,-188.5 1963.5,-180 2090.5,-163.11 2124.64,-172.71 2249.5,-144 2252.55,-143.3 2255.65,-142.53 2258.77,-141.72"/>
<polygon fill="midnightblue" stroke="midnightblue" points="1771.7,-203 1762.29,-207.88 1772.69,-209.93 1771.7,-203"/>
</g>
<!-- Node17 -->
<g id="node17" class="node">
<title>Node17</title>
<g id="a_node17"><a xlink:href="_i_e_framebuffer_8cpp.html" target="_top" xlink:title=" ">
<polygon fill="white" stroke="black" points="840.5,-81.5 840.5,-143.5 1070.5,-143.5 1070.5,-81.5 840.5,-81.5"/>
<text text-anchor="start" x="848.5" y="-126.7" font-family="Source Sans Pro" font-size="16.00">Illumination&#45;Engine</text>
<text text-anchor="start" x="848.5" y="-108.7" font-family="Source Sans Pro" font-size="16.00">/src/GraphicsModule</text>
<text text-anchor="middle" x="955.5" y="-90.7" font-family="Source Sans Pro" font-size="16.00">/RenderPass/IEFramebuffer.cpp</text>
</a>
</g>
</g>
<!-- Node11&#45;&gt;Node17 -->
<g id="edge20" class="edge">
<title>Node11&#45;&gt;Node17</title>
<path fill="none" stroke="midnightblue" d="M1611.04,-185.9C1604.53,-183.62 1597.96,-181.59 1591.5,-180 1370.02,-125.36 1304.86,-179.37 1079.5,-144 1076.54,-143.54 1073.55,-143.04 1070.54,-142.51"/>
<polygon fill="midnightblue" stroke="midnightblue" points="1609.92,-189.22 1620.51,-189.42 1612.35,-182.66 1609.92,-189.22"/>
</g>
<!-- Node18 -->
<g id="node18" class="node">
<title>Node18</title>
<g id="a_node18"><a xlink:href="_i_e_render_pass_8cpp.html" target="_top" xlink:title=" ">
<polygon fill="white" stroke="black" points="1089,-81.5 1089,-143.5 1316,-143.5 1316,-81.5 1089,-81.5"/>
<text text-anchor="start" x="1097" y="-126.7" font-family="Source Sans Pro" font-size="16.00">Illumination&#45;Engine</text>
<text text-anchor="start" x="1097" y="-108.7" font-family="Source Sans Pro" font-size="16.00">/src/GraphicsModule</text>
<text text-anchor="middle" x="1202.5" y="-90.7" font-family="Source Sans Pro" font-size="16.00">/RenderPass/IERenderPass.cpp</text>
</a>
</g>
</g>
<!-- Node11&#45;&gt;Node18 -->
<g id="edge21" class="edge">
<title>Node11&#45;&gt;Node18</title>
<path fill="none" stroke="midnightblue" d="M1609.49,-185.82C1603.48,-183.65 1597.43,-181.67 1591.5,-180 1476.22,-147.62 1442.1,-166.56 1324.5,-144 1321.71,-143.47 1318.89,-142.91 1316.05,-142.33"/>
<polygon fill="midnightblue" stroke="midnightblue" points="1608.3,-189.11 1618.89,-189.38 1610.78,-182.57 1608.3,-189.11"/>
</g>
<!-- Node19 -->
<g id="node19" class="node">
<title>Node19</title>
<g id="a_node19"><a xlink:href="_i_e_material_8cpp.html" target="_top" xlink:title=" ">
<polygon fill="white" stroke="black" points="621,-81.5 621,-143.5 822,-143.5 822,-81.5 621,-81.5"/>
<text text-anchor="start" x="629" y="-126.7" font-family="Source Sans Pro" font-size="16.00">Illumination&#45;Engine</text>
<text text-anchor="start" x="629" y="-108.7" font-family="Source Sans Pro" font-size="16.00">/src/GraphicsModule</text>
<text text-anchor="middle" x="721.5" y="-90.7" font-family="Source Sans Pro" font-size="16.00">/Renderable/IEMaterial.cpp</text>
</a>
</g>
</g>
<!-- Node11&#45;&gt;Node19 -->
<g id="edge22" class="edge">
<title>Node11&#45;&gt;Node19</title>
<path fill="none" stroke="midnightblue" d="M1611.42,-185.86C1604.79,-183.56 1598.09,-181.55 1591.5,-180 1262.28,-102.76 1165.4,-197.51 831.5,-144 828.37,-143.5 825.2,-142.94 822.01,-142.33"/>
<polygon fill="midnightblue" stroke="midnightblue" points="1610.46,-189.24 1621.05,-189.41 1612.88,-182.67 1610.46,-189.24"/>
</g>
<!-- Node20 -->
<g id="node20" class="node">
<title>Node20</title>
<g id="a_node20"><a xlink:href="_i_e_mesh_8cpp.html" target="_top" xlink:title=" ">
<polygon fill="white" stroke="black" points="420,-81.5 420,-143.5 603,-143.5 603,-81.5 420,-81.5"/>
<text text-anchor="start" x="428" y="-126.7" font-family="Source Sans Pro" font-size="16.00">Illumination&#45;Engine</text>
<text text-anchor="start" x="428" y="-108.7" font-family="Source Sans Pro" font-size="16.00">/src/GraphicsModule</text>
<text text-anchor="middle" x="511.5" y="-90.7" font-family="Source Sans Pro" font-size="16.00">/Renderable/IEMesh.cpp</text>
</a>
</g>
</g>
<!-- Node11&#45;&gt;Node20 -->
<g id="edge23" class="edge">
<title>Node11&#45;&gt;Node20</title>
<path fill="none" stroke="midnightblue" d="M1611.43,-185.78C1604.8,-183.5 1598.09,-181.51 1591.5,-180 1379.08,-131.35 826.42,-180.09 611.5,-144 608.73,-143.53 605.92,-143.01 603.1,-142.44"/>
<polygon fill="midnightblue" stroke="midnightblue" points="1610.48,-189.16 1621.07,-189.32 1612.89,-182.59 1610.48,-189.16"/>
</g>
<!-- Node21 -->
<g id="node21" class="node">
<title>Node21</title>
<g id="a_node21"><a xlink:href="_i_e_descriptor_set_8cpp.html" target="_top" xlink:title=" ">
<polygon fill="white" stroke="black" points="1334,-81.5 1334,-143.5 1541,-143.5 1541,-81.5 1334,-81.5"/>
<text text-anchor="start" x="1342" y="-126.7" font-family="Source Sans Pro" font-size="16.00">Illumination&#45;Engine</text>
<text text-anchor="start" x="1342" y="-108.7" font-family="Source Sans Pro" font-size="16.00">/src/GraphicsModule</text>
<text text-anchor="middle" x="1437.5" y="-90.7" font-family="Source Sans Pro" font-size="16.00">/Shader/IEDescriptorSet.cpp</text>
</a>
</g>
</g>
<!-- Node11&#45;&gt;Node21 -->
<g id="edge25" class="edge">
<title>Node11&#45;&gt;Node21</title>
<path fill="none" stroke="midnightblue" d="M1603.95,-185.43C1599.74,-183.59 1595.57,-181.77 1591.5,-180 1564,-168.03 1533.7,-154.92 1507.3,-143.54"/>
<polygon fill="midnightblue" stroke="midnightblue" points="1602.65,-188.68 1613.21,-189.48 1605.45,-182.27 1602.65,-188.68"/>
</g>
<!-- Node11&#45;&gt;Node22 -->
<g id="edge26" class="edge">
<title>Node11&#45;&gt;Node22</title>
<path fill="none" stroke="midnightblue" d="M1772.46,-215.09C2067.13,-200.7 2980.1,-155.45 3042.5,-144 3045.77,-143.4 3049.08,-142.72 3052.41,-141.98"/>
<polygon fill="midnightblue" stroke="midnightblue" points="1772.06,-211.6 1762.24,-215.58 1772.4,-218.59 1772.06,-211.6"/>
</g>
<!-- Node11&#45;&gt;Node23 -->
<g id="edge27" class="edge">
<title>Node11&#45;&gt;Node23</title>
<path fill="none" stroke="midnightblue" d="M1772.78,-218.34C2061.21,-214.17 2950.68,-197.22 3233.5,-144 3236.45,-143.45 3239.43,-142.82 3242.43,-142.13"/>
<polygon fill="midnightblue" stroke="midnightblue" points="1772.31,-214.85 1762.36,-218.49 1772.41,-221.85 1772.31,-214.85"/>
</g>
<!-- Node24&#45;&gt;Node11 -->
<g id="edge31" class="edge">
<title>Node24&#45;&gt;Node11</title>
<path fill="none" stroke="midnightblue" d="M1468.45,-298.03C1508.14,-287.56 1552.02,-274.89 1591.5,-261 1599.55,-258.17 1607.89,-254.94 1616.09,-251.57"/>
<polygon fill="midnightblue" stroke="midnightblue" points="1467.51,-294.66 1458.72,-300.58 1469.28,-301.43 1467.51,-294.66"/>
</g>
<!-- Node24&#45;&gt;Node17 -->
<g id="edge32" class="edge">
<title>Node24&#45;&gt;Node17</title>
<path fill="none" stroke="midnightblue" d="M1288.37,-291.04C1277.48,-282.15 1266.86,-272 1258.5,-261 1234.98,-230.05 1254.91,-205.42 1225.5,-180 1225.4,-179.91 1144.08,-159.89 1070.73,-141.84"/>
<polygon fill="midnightblue" stroke="midnightblue" points="1286.3,-293.86 1296.32,-297.28 1290.62,-288.35 1286.3,-293.86"/>
</g>
<!-- Node24&#45;&gt;Node18 -->
<g id="edge33" class="edge">
<title>Node24&#45;&gt;Node18</title>
<path fill="none" stroke="midnightblue" d="M1318.76,-288.92C1312.93,-279.86 1306.88,-270.16 1301.5,-261 1280.86,-225.85 1281.31,-213.78 1258.5,-180 1250.05,-167.49 1239.66,-154.61 1230.13,-143.55"/>
<polygon fill="midnightblue" stroke="midnightblue" points="1315.87,-290.9 1324.25,-297.39 1321.74,-287.09 1315.87,-290.9"/>
</g>
<!-- Node25 -->
<g id="node25" class="node">
<title>Node25</title>
<g id="a_node25"><a xlink:href="_i_e_render_pass_begin_info_8cpp.html" target="_top" xlink:title=" ">
<polygon fill="white" stroke="black" points="1310.5,-180.5 1310.5,-260.5 1582.5,-260.5 1582.5,-180.5 1310.5,-180.5"/>
<text text-anchor="start" x="1318.5" y="-243.7" font-family="Source Sans Pro" font-size="16.00">Illumination&#45;Engine</text>
<text text-anchor="start" x="1318.5" y="-225.7" font-family="Source Sans Pro" font-size="16.00">/src/GraphicsModule</text>
<text text-anchor="start" x="1318.5" y="-207.7" font-family="Source Sans Pro" font-size="16.00">/CommandBuffer/DependencyStructs</text>
<text text-anchor="middle" x="1446.5" y="-189.7" font-family="Source Sans Pro" font-size="16.00">/IERenderPassBeginInfo.cpp</text>
</a>
</g>
</g>
<!-- Node24&#45;&gt;Node25 -->
<g id="edge29" class="edge">
<title>Node24&#45;&gt;Node25</title>
<path fill="none" stroke="midnightblue" d="M1380.59,-290C1389.7,-280.53 1399.5,-270.34 1408.7,-260.79"/>
<polygon fill="midnightblue" stroke="midnightblue" points="1377.87,-287.78 1373.46,-297.41 1382.91,-292.63 1377.87,-287.78"/>
</g>
<!-- Node24&#45;&gt;Node26 -->
<g id="edge30" class="edge">
<title>Node24&#45;&gt;Node26</title>
<path fill="none" stroke="midnightblue" d="M1260.75,-293.48C1227.64,-280.04 1189.9,-264.71 1157.78,-251.67"/>
<polygon fill="midnightblue" stroke="midnightblue" points="1259.82,-296.89 1270.41,-297.41 1262.46,-290.4 1259.82,-296.89"/>
</g>
<!-- Node27&#45;&gt;Node2 -->
<g id="edge39" class="edge">
<title>Node27&#45;&gt;Node2</title>
<path fill="none" stroke="midnightblue" d="M494.67,-292.27C472.34,-279.12 447.21,-264.32 425.73,-251.67"/>
<polygon fill="midnightblue" stroke="midnightblue" points="493.01,-295.35 503.4,-297.41 496.56,-289.32 493.01,-295.35"/>
</g>
<!-- Node27&#45;&gt;Node5 -->
<g id="edge38" class="edge">
<title>Node27&#45;&gt;Node5</title>
<path fill="none" stroke="midnightblue" d="M539.98,-287.69C524.32,-245.23 501.02,-183.55 496.5,-180 450.12,-143.55 291.41,-155.23 233.5,-144 230.74,-143.46 227.94,-142.9 225.12,-142.32"/>
<polygon fill="midnightblue" stroke="midnightblue" points="536.75,-289.05 543.49,-297.23 543.32,-286.64 536.75,-289.05"/>
</g>
<!-- Node27&#45;&gt;Node19 -->
<g id="edge36" class="edge">
<title>Node27&#45;&gt;Node19</title>
<path fill="none" stroke="midnightblue" d="M584.32,-289.29C616.85,-247.6 668.27,-181.72 698.05,-143.55"/>
<polygon fill="midnightblue" stroke="midnightblue" points="581.47,-287.26 578.07,-297.29 586.98,-291.56 581.47,-287.26"/>
</g>
<!-- Node27&#45;&gt;Node20 -->
<g id="edge37" class="edge">
<title>Node27&#45;&gt;Node20</title>
<path fill="none" stroke="midnightblue" d="M549.26,-287.34C545.06,-257.54 538.55,-216.01 530.5,-180 527.83,-168.05 524.27,-155.06 520.96,-143.77"/>
<polygon fill="midnightblue" stroke="midnightblue" points="545.81,-287.93 550.65,-297.36 552.74,-286.97 545.81,-287.93"/>
</g>
</g>
</svg>
