<?xml version="1.0" encoding="UTF-8" standalone="no"?>
<!DOCTYPE svg PUBLIC "-//W3C//DTD SVG 1.1//EN"
 "http://www.w3.org/Graphics/SVG/1.1/DTD/svg11.dtd">
<!-- Generated by graphviz version 2.43.0 (0)
 -->
<!-- Title: Illumination&#45;Engine/src/GraphicsModule/CommandBuffer/DependencyStructs/IEBufferMemoryBarrier.cpp Pages: 1 -->
<svg width="1038pt" height="422pt"
 viewBox="0.00 0.00 1037.50 422.00" xmlns="http://www.w3.org/2000/svg" xmlns:xlink="http://www.w3.org/1999/xlink">
<g id="graph0" class="graph" transform="scale(1 1) rotate(0) translate(4 418)">
<title>Illumination&#45;Engine/src/GraphicsModule/CommandBuffer/DependencyStructs/IEBufferMemoryBarrier.cpp</title>
<polygon fill="white" stroke="transparent" points="-4,4 -4,-418 1033.5,-418 1033.5,4 -4,4"/>
<!-- Node1 -->
<g id="node1" class="node">
<title>Node1</title>
<g id="a_node1"><a xlink:title=" ">
<polygon fill="#bfbfbf" stroke="black" points="757.5,-333.5 757.5,-413.5 1029.5,-413.5 1029.5,-333.5 757.5,-333.5"/>
<text text-anchor="start" x="765.5" y="-396.7" font-family="Source Sans Pro" font-size="16.00">Illumination&#45;Engine</text>
<text text-anchor="start" x="765.5" y="-378.7" font-family="Source Sans Pro" font-size="16.00">/src/GraphicsModule</text>
<text text-anchor="start" x="765.5" y="-360.7" font-family="Source Sans Pro" font-size="16.00">/CommandBuffer/DependencyStructs</text>
<text text-anchor="middle" x="893.5" y="-342.7" font-family="Source Sans Pro" font-size="16.00">/IEBufferMemoryBarrier.cpp</text>
</a>
</g>
</g>
<!-- Node2 -->
<g id="node2" class="node">
<title>Node2</title>
<g id="a_node2"><a xlink:href="_i_e_buffer_memory_barrier_8hpp.html" target="_top" xlink:title=" ">
<polygon fill="white" stroke="black" points="727,-270.5 727,-296.5 930,-296.5 930,-270.5 727,-270.5"/>
<text text-anchor="middle" x="828.5" y="-279.7" font-family="Source Sans Pro" font-size="16.00">IEBufferMemoryBarrier.hpp</text>
</a>
</g>
</g>
<!-- Node1&#45;&gt;Node2 -->
<g id="edge1" class="edge">
<title>Node1&#45;&gt;Node2</title>
<path fill="none" stroke="midnightblue" d="M864.61,-333.39C857.36,-323.58 849.87,-313.44 843.61,-304.95"/>
<polygon fill="midnightblue" stroke="midnightblue" points="846.34,-302.76 837.58,-296.79 840.71,-306.92 846.34,-302.76"/>
</g>
<!-- Node8 -->
<g id="node8" class="node">
<title>Node8</title>
<g id="a_node8"><a xlink:title=" ">
<polygon fill="white" stroke="#bfbfbf" points="793,-63.5 793,-89.5 918,-89.5 918,-63.5 793,-63.5"/>
<text text-anchor="middle" x="855.5" y="-72.7" font-family="Source Sans Pro" font-size="16.00">vulkan/vulkan.h</text>
</a>
</g>
</g>
<!-- Node1&#45;&gt;Node8 -->
<g id="edge22" class="edge">
<title>Node1&#45;&gt;Node8</title>
<path fill="none" stroke="midnightblue" d="M922.94,-333.26C929.72,-322.1 935.97,-309.56 939.5,-297 942.74,-285.45 941.57,-281.82 939.5,-270 927.77,-202.97 918.01,-186.82 887.5,-126 882.72,-116.46 876.43,-106.53 870.69,-98.16"/>
<polygon fill="midnightblue" stroke="midnightblue" points="873.4,-95.93 864.78,-89.77 867.68,-99.96 873.4,-95.93"/>
</g>
<!-- Node3 -->
<g id="node3" class="node">
<title>Node3</title>
<g id="a_node3"><a xlink:href="_i_e_buffer_8hpp.html" target="_top" xlink:title=" ">
<polygon fill="white" stroke="black" points="295,-207.5 295,-233.5 442,-233.5 442,-207.5 295,-207.5"/>
<text text-anchor="middle" x="368.5" y="-216.7" font-family="Source Sans Pro" font-size="16.00">Buffer/IEBuffer.hpp</text>
</a>
</g>
</g>
<!-- Node2&#45;&gt;Node3 -->
<g id="edge2" class="edge">
<title>Node2&#45;&gt;Node3</title>
<path fill="none" stroke="midnightblue" d="M737.89,-270.48C654.94,-259.48 533.13,-243.33 452.37,-232.62"/>
<polygon fill="midnightblue" stroke="midnightblue" points="452.61,-229.12 442.24,-231.28 451.69,-236.06 452.61,-229.12"/>
</g>
<!-- Node5 -->
<g id="node5" class="node">
<title>Node5</title>
<g id="a_node5"><a xlink:title=" ">
<polygon fill="white" stroke="#bfbfbf" points="637.5,-63.5 637.5,-89.5 711.5,-89.5 711.5,-63.5 637.5,-63.5"/>
<text text-anchor="middle" x="674.5" y="-72.7" font-family="Source Sans Pro" font-size="16.00">memory</text>
</a>
</g>
</g>
<!-- Node2&#45;&gt;Node5 -->
<g id="edge20" class="edge">
<title>Node2&#45;&gt;Node5</title>
<path fill="none" stroke="midnightblue" d="M829.83,-270.28C832.25,-241.57 834.23,-168.97 798.5,-126 779.37,-102.99 747.87,-90.85 721.41,-84.47"/>
<polygon fill="midnightblue" stroke="midnightblue" points="722.08,-81.03 711.56,-82.3 720.57,-87.87 722.08,-81.03"/>
</g>
<!-- Node2&#45;&gt;Node8 -->
<g id="edge21" class="edge">
<title>Node2&#45;&gt;Node8</title>
<path fill="none" stroke="midnightblue" d="M843.27,-270.19C852.76,-261.27 864.27,-248.29 869.5,-234 886.19,-188.4 872.9,-130.55 863.25,-99.53"/>
<polygon fill="midnightblue" stroke="midnightblue" points="866.49,-98.15 860.05,-89.74 859.83,-100.33 866.49,-98.15"/>
</g>
<!-- Node4 -->
<g id="node4" class="node">
<title>Node4</title>
<g id="a_node4"><a xlink:href="_i_e_dependency_8hpp.html" target="_top" xlink:title=" ">
<polygon fill="white" stroke="black" points="397,-126.5 397,-170.5 642,-170.5 642,-126.5 397,-126.5"/>
<text text-anchor="start" x="405" y="-153.7" font-family="Source Sans Pro" font-size="16.00">GraphicsModule/CommandBuffer</text>
<text text-anchor="middle" x="519.5" y="-135.7" font-family="Source Sans Pro" font-size="16.00">/IEDependency.hpp</text>
</a>
</g>
</g>
<!-- Node3&#45;&gt;Node4 -->
<g id="edge3" class="edge">
<title>Node3&#45;&gt;Node4</title>
<path fill="none" stroke="midnightblue" d="M394.46,-207.47C413.74,-198.53 440.74,-186.01 464.71,-174.9"/>
<polygon fill="midnightblue" stroke="midnightblue" points="466.48,-177.94 474.08,-170.56 463.53,-171.59 466.48,-177.94"/>
</g>
<!-- Node7 -->
<g id="node7" class="node">
<title>Node7</title>
<g id="a_node7"><a xlink:title=" ">
<polygon fill="white" stroke="#bfbfbf" points="408,-0.5 408,-26.5 467,-26.5 467,-0.5 408,-0.5"/>
<text text-anchor="middle" x="437.5" y="-9.7" font-family="Source Sans Pro" font-size="16.00">vector</text>
</a>
</g>
</g>
<!-- Node3&#45;&gt;Node7 -->
<g id="edge19" class="edge">
<title>Node3&#45;&gt;Node7</title>
<path fill="none" stroke="midnightblue" d="M370.27,-207.49C373.09,-189.49 379.27,-154.59 388.5,-126 398.98,-93.55 415.71,-57.72 426.65,-35.66"/>
<polygon fill="midnightblue" stroke="midnightblue" points="429.86,-37.06 431.22,-26.56 423.61,-33.92 429.86,-37.06"/>
</g>
<!-- Node3&#45;&gt;Node8 -->
<g id="edge16" class="edge">
<title>Node3&#45;&gt;Node8</title>
<path fill="none" stroke="midnightblue" d="M442.39,-218.87C549.43,-216.69 741.1,-207.61 798.5,-171 824.51,-154.41 840.45,-121.27 848.64,-99.24"/>
<polygon fill="midnightblue" stroke="midnightblue" points="851.97,-100.31 851.95,-89.72 845.36,-98.01 851.97,-100.31"/>
</g>
<!-- Node9 -->
<g id="node9" class="node">
<title>Node9</title>
<g id="a_node9"><a xlink:href="_i_e_a_p_i_8hpp.html" target="_top" xlink:title=" ">
<polygon fill="white" stroke="black" points="257,-135.5 257,-161.5 340,-161.5 340,-135.5 257,-135.5"/>
<text text-anchor="middle" x="298.5" y="-144.7" font-family="Source Sans Pro" font-size="16.00">IEAPI.hpp</text>
</a>
</g>
</g>
<!-- Node3&#45;&gt;Node9 -->
<g id="edge8" class="edge">
<title>Node3&#45;&gt;Node9</title>
<path fill="none" stroke="midnightblue" d="M356.31,-207.31C345.67,-196.67 330.05,-181.05 317.73,-168.73"/>
<polygon fill="midnightblue" stroke="midnightblue" points="320.1,-166.15 310.55,-161.55 315.15,-171.1 320.1,-166.15"/>
</g>
<!-- Node11 -->
<g id="node11" class="node">
<title>Node11</title>
<g id="a_node11"><a xlink:title=" ">
<polygon fill="white" stroke="#bfbfbf" points="228,-0.5 228,-26.5 291,-26.5 291,-0.5 228,-0.5"/>
<text text-anchor="middle" x="259.5" y="-9.7" font-family="Source Sans Pro" font-size="16.00">cstdint</text>
</a>
</g>
</g>
<!-- Node3&#45;&gt;Node11 -->
<g id="edge17" class="edge">
<title>Node3&#45;&gt;Node11</title>
<path fill="none" stroke="midnightblue" d="M305.15,-207.43C283.83,-200.28 261.84,-188.94 247.5,-171 217.31,-133.24 223.1,-109.98 234.5,-63 236.84,-53.37 241.44,-43.51 246.06,-35.22"/>
<polygon fill="midnightblue" stroke="midnightblue" points="249.08,-37 251.18,-26.61 243.06,-33.42 249.08,-37"/>
</g>
<!-- Node12 -->
<g id="node12" class="node">
<title>Node12</title>
<g id="a_node12"><a xlink:title=" ">
<polygon fill="white" stroke="#bfbfbf" points="660,-135.5 660,-161.5 789,-161.5 789,-135.5 660,-135.5"/>
<text text-anchor="middle" x="724.5" y="-144.7" font-family="Source Sans Pro" font-size="16.00">vk_mem_alloc.h</text>
</a>
</g>
</g>
<!-- Node3&#45;&gt;Node12 -->
<g id="edge14" class="edge">
<title>Node3&#45;&gt;Node12</title>
<path fill="none" stroke="midnightblue" d="M442.27,-209.27C499.65,-200.73 581.09,-187.34 651.5,-171 659.83,-169.07 668.6,-166.74 677.08,-164.34"/>
<polygon fill="midnightblue" stroke="midnightblue" points="678.21,-167.65 686.83,-161.51 676.25,-160.93 678.21,-167.65"/>
</g>
<!-- Node13 -->
<g id="node13" class="node">
<title>Node13</title>
<g id="a_node13"><a xlink:title=" ">
<polygon fill="white" stroke="#bfbfbf" points="0,-135.5 0,-161.5 83,-161.5 83,-135.5 0,-135.5"/>
<text text-anchor="middle" x="41.5" y="-144.7" font-family="Source Sans Pro" font-size="16.00">GL/glew.h</text>
</a>
</g>
</g>
<!-- Node3&#45;&gt;Node13 -->
<g id="edge15" class="edge">
<title>Node3&#45;&gt;Node13</title>
<path fill="none" stroke="midnightblue" d="M294.83,-211.14C238.63,-203.67 159.7,-190.79 92.5,-171 87.2,-169.44 81.71,-167.49 76.38,-165.42"/>
<polygon fill="midnightblue" stroke="midnightblue" points="77.61,-162.14 67.03,-161.59 74.96,-168.62 77.61,-162.14"/>
</g>
<!-- Node14 -->
<g id="node14" class="node">
<title>Node14</title>
<g id="a_node14"><a xlink:title=" ">
<polygon fill="white" stroke="#bfbfbf" points="101.5,-135.5 101.5,-161.5 187.5,-161.5 187.5,-135.5 101.5,-135.5"/>
<text text-anchor="middle" x="144.5" y="-144.7" font-family="Source Sans Pro" font-size="16.00">functional</text>
</a>
</g>
</g>
<!-- Node3&#45;&gt;Node14 -->
<g id="edge18" class="edge">
<title>Node3&#45;&gt;Node14</title>
<path fill="none" stroke="midnightblue" d="M323.55,-207.47C289.77,-198.18 242.46,-184.65 201.5,-171 195.97,-169.16 190.18,-167.11 184.5,-165.04"/>
<polygon fill="midnightblue" stroke="midnightblue" points="185.7,-161.75 175.11,-161.55 183.26,-168.31 185.7,-161.75"/>
</g>
<!-- Node4&#45;&gt;Node5 -->
<g id="edge4" class="edge">
<title>Node4&#45;&gt;Node5</title>
<path fill="none" stroke="midnightblue" d="M566.01,-126.5C589.31,-115.97 617.09,-103.43 638.7,-93.67"/>
<polygon fill="midnightblue" stroke="midnightblue" points="640.19,-96.84 647.86,-89.53 637.31,-90.46 640.19,-96.84"/>
</g>
<!-- Node6 -->
<g id="node6" class="node">
<title>Node6</title>
<g id="a_node6"><a xlink:title=" ">
<polygon fill="white" stroke="#bfbfbf" points="335,-0.5 335,-26.5 390,-26.5 390,-0.5 335,-0.5"/>
<text text-anchor="middle" x="362.5" y="-9.7" font-family="Source Sans Pro" font-size="16.00">string</text>
</a>
</g>
</g>
<!-- Node4&#45;&gt;Node6 -->
<g id="edge5" class="edge">
<title>Node4&#45;&gt;Node6</title>
<path fill="none" stroke="midnightblue" d="M494.62,-126.43C464.4,-100.83 413.88,-58.02 384.85,-33.43"/>
<polygon fill="midnightblue" stroke="midnightblue" points="386.81,-30.51 376.92,-26.71 382.29,-35.85 386.81,-30.51"/>
</g>
<!-- Node4&#45;&gt;Node7 -->
<g id="edge6" class="edge">
<title>Node4&#45;&gt;Node7</title>
<path fill="none" stroke="midnightblue" d="M510.58,-126.29C502.83,-108.74 490.78,-83.48 477.5,-63 471.02,-53.01 462.79,-42.72 455.49,-34.21"/>
<polygon fill="midnightblue" stroke="midnightblue" points="458.09,-31.86 448.86,-26.66 452.83,-36.48 458.09,-31.86"/>
</g>
<!-- Node4&#45;&gt;Node8 -->
<g id="edge7" class="edge">
<title>Node4&#45;&gt;Node8</title>
<path fill="none" stroke="midnightblue" d="M620.31,-126.5C674.45,-115.22 739.74,-101.62 787.77,-91.61"/>
<polygon fill="midnightblue" stroke="midnightblue" points="788.68,-95 797.75,-89.53 787.25,-88.14 788.68,-95"/>
</g>
<!-- Node9&#45;&gt;Node6 -->
<g id="edge13" class="edge">
<title>Node9&#45;&gt;Node6</title>
<path fill="none" stroke="midnightblue" d="M319.5,-135.39C334.59,-125.38 353.74,-109.64 362.5,-90 369.93,-73.33 369.28,-52.47 367.14,-36.9"/>
<polygon fill="midnightblue" stroke="midnightblue" points="370.52,-35.91 365.41,-26.63 363.62,-37.07 370.52,-35.91"/>
</g>
<!-- Node10 -->
<g id="node10" class="node">
<title>Node10</title>
<g id="a_node10"><a xlink:href="_i_e_version_8hpp.html" target="_top" xlink:title=" ">
<polygon fill="white" stroke="black" points="243.5,-63.5 243.5,-89.5 353.5,-89.5 353.5,-63.5 243.5,-63.5"/>
<text text-anchor="middle" x="298.5" y="-72.7" font-family="Source Sans Pro" font-size="16.00">IEVersion.hpp</text>
</a>
</g>
</g>
<!-- Node9&#45;&gt;Node10 -->
<g id="edge9" class="edge">
<title>Node9&#45;&gt;Node10</title>
<path fill="none" stroke="midnightblue" d="M298.5,-135.31C298.5,-125.47 298.5,-111.38 298.5,-99.57"/>
<polygon fill="midnightblue" stroke="midnightblue" points="302,-99.55 298.5,-89.55 295,-99.55 302,-99.55"/>
</g>
<!-- Node10&#45;&gt;Node6 -->
<g id="edge11" class="edge">
<title>Node10&#45;&gt;Node6</title>
<path fill="none" stroke="midnightblue" d="M311.14,-63.45C320.09,-54.93 332.26,-43.33 342.5,-33.56"/>
<polygon fill="midnightblue" stroke="midnightblue" points="345.06,-35.96 349.88,-26.53 340.23,-30.89 345.06,-35.96"/>
</g>
<!-- Node10&#45;&gt;Node7 -->
<g id="edge12" class="edge">
<title>Node10&#45;&gt;Node7</title>
<path fill="none" stroke="midnightblue" d="M325.96,-63.45C347.38,-54.05 377.33,-40.91 400.8,-30.61"/>
<polygon fill="midnightblue" stroke="midnightblue" points="402.34,-33.75 410.1,-26.53 399.53,-27.34 402.34,-33.75"/>
</g>
<!-- Node10&#45;&gt;Node11 -->
<g id="edge10" class="edge">
<title>Node10&#45;&gt;Node11</title>
<path fill="none" stroke="midnightblue" d="M290.79,-63.45C285.61,-55.34 278.65,-44.46 272.61,-35.01"/>
<polygon fill="midnightblue" stroke="midnightblue" points="275.52,-33.07 267.19,-26.53 269.63,-36.84 275.52,-33.07"/>
</g>
</g>
</svg>
