<?xml version="1.0" encoding="UTF-8" standalone="no"?>
<!DOCTYPE svg PUBLIC "-//W3C//DTD SVG 1.1//EN"
 "http://www.w3.org/Graphics/SVG/1.1/DTD/svg11.dtd">
<!-- Generated by graphviz version 2.43.0 (0)
 -->
<!-- Title: Illumination&#45;Engine/src/Core/LogModule/IELogger.hpp Pages: 1 -->
<svg width="369pt" height="152pt"
 viewBox="0.00 0.00 369.00 152.00" xmlns="http://www.w3.org/2000/svg" xmlns:xlink="http://www.w3.org/1999/xlink">
<g id="graph0" class="graph" transform="scale(1 1) rotate(0) translate(4 148)">
<title>Illumination&#45;Engine/src/Core/LogModule/IELogger.hpp</title>
<polygon fill="white" stroke="transparent" points="-4,4 -4,-148 365,-148 365,4 -4,4"/>
<!-- Node1 -->
<g id="node1" class="node">
<title>Node1</title>
<g id="a_node1"><a xlink:title=" ">
<polygon fill="#bfbfbf" stroke="black" points="137,-81.5 137,-143.5 296,-143.5 296,-81.5 137,-81.5"/>
<text text-anchor="start" x="145" y="-126.7" font-family="Source Sans Pro" font-size="16.00">Illumination&#45;Engine</text>
<text text-anchor="start" x="145" y="-108.7" font-family="Source Sans Pro" font-size="16.00">/src/Core/LogModule</text>
<text text-anchor="middle" x="216.5" y="-90.7" font-family="Source Sans Pro" font-size="16.00">/IELogger.hpp</text>
</a>
</g>
</g>
<!-- Node2 -->
<g id="node2" class="node">
<title>Node2</title>
<g id="a_node2"><a xlink:title=" ">
<polygon fill="white" stroke="#bfbfbf" points="0,-9.5 0,-35.5 127,-35.5 127,-9.5 0,-9.5"/>
<text text-anchor="middle" x="63.5" y="-18.7" font-family="Source Sans Pro" font-size="16.00">spdlog/spdlog.h</text>
</a>
</g>
</g>
<!-- Node1&#45;&gt;Node2 -->
<g id="edge1" class="edge">
<title>Node1&#45;&gt;Node2</title>
<path fill="none" stroke="midnightblue" d="M164.27,-81.46C140.55,-67.82 113.36,-52.17 93.2,-40.58"/>
<polygon fill="midnightblue" stroke="midnightblue" points="94.88,-37.51 84.47,-35.56 91.39,-43.58 94.88,-37.51"/>
</g>
<!-- Node3 -->
<g id="node3" class="node">
<title>Node3</title>
<g id="a_node3"><a xlink:title=" ">
<polygon fill="white" stroke="#bfbfbf" points="145,-0.5 145,-44.5 288,-44.5 288,-0.5 145,-0.5"/>
<text text-anchor="start" x="153" y="-27.7" font-family="Source Sans Pro" font-size="16.00">spdlog/sinks/basic</text>
<text text-anchor="middle" x="216.5" y="-9.7" font-family="Source Sans Pro" font-size="16.00">_file_sink.h</text>
</a>
</g>
</g>
<!-- Node1&#45;&gt;Node3 -->
<g id="edge2" class="edge">
<title>Node1&#45;&gt;Node3</title>
<path fill="none" stroke="midnightblue" d="M216.5,-81.22C216.5,-72.66 216.5,-63.34 216.5,-54.73"/>
<polygon fill="midnightblue" stroke="midnightblue" points="220,-54.68 216.5,-44.68 213,-54.68 220,-54.68"/>
</g>
<!-- Node4 -->
<g id="node4" class="node">
<title>Node4</title>
<g id="a_node4"><a xlink:title=" ">
<polygon fill="white" stroke="#bfbfbf" points="306,-9.5 306,-35.5 361,-35.5 361,-9.5 306,-9.5"/>
<text text-anchor="middle" x="333.5" y="-18.7" font-family="Source Sans Pro" font-size="16.00">string</text>
</a>
</g>
</g>
<!-- Node1&#45;&gt;Node4 -->
<g id="edge3" class="edge">
<title>Node1&#45;&gt;Node4</title>
<path fill="none" stroke="midnightblue" d="M256.44,-81.46C273.92,-68.31 293.88,-53.3 309.1,-41.85"/>
<polygon fill="midnightblue" stroke="midnightblue" points="311.58,-44.37 317.46,-35.56 307.37,-38.78 311.58,-44.37"/>
</g>
</g>
</svg>
