<?xml version="1.0" encoding="UTF-8" standalone="no"?>
<!DOCTYPE svg PUBLIC "-//W3C//DTD SVG 1.1//EN"
 "http://www.w3.org/Graphics/SVG/1.1/DTD/svg11.dtd">
<!-- Generated by graphviz version 2.43.0 (0)
 -->
<!-- Title: Illumination&#45;Engine/src/GraphicsModule/CommandBuffer/DependencyStructs/IECopyBufferToImageInfo.cpp Pages: 1 -->
<svg width="1386pt" height="422pt"
 viewBox="0.00 0.00 1386.00 422.00" xmlns="http://www.w3.org/2000/svg" xmlns:xlink="http://www.w3.org/1999/xlink">
<g id="graph0" class="graph" transform="scale(1 1) rotate(0) translate(4 418)">
<title>Illumination&#45;Engine/src/GraphicsModule/CommandBuffer/DependencyStructs/IECopyBufferToImageInfo.cpp</title>
<polygon fill="white" stroke="transparent" points="-4,4 -4,-418 1382,-418 1382,4 -4,4"/>
<!-- Node1 -->
<g id="node1" class="node">
<title>Node1</title>
<g id="a_node1"><a xlink:title=" ">
<polygon fill="#bfbfbf" stroke="black" points="0,-333.5 0,-413.5 272,-413.5 272,-333.5 0,-333.5"/>
<text text-anchor="start" x="8" y="-396.7" font-family="Source Sans Pro" font-size="16.00">Illumination&#45;Engine</text>
<text text-anchor="start" x="8" y="-378.7" font-family="Source Sans Pro" font-size="16.00">/src/GraphicsModule</text>
<text text-anchor="start" x="8" y="-360.7" font-family="Source Sans Pro" font-size="16.00">/CommandBuffer/DependencyStructs</text>
<text text-anchor="middle" x="136" y="-342.7" font-family="Source Sans Pro" font-size="16.00">/IECopyBufferToImageInfo.cpp</text>
</a>
</g>
</g>
<!-- Node2 -->
<g id="node2" class="node">
<title>Node2</title>
<g id="a_node2"><a xlink:href="_i_e_copy_buffer_to_image_info_8hpp.html" target="_top" xlink:title=" ">
<polygon fill="white" stroke="black" points="214.5,-270.5 214.5,-296.5 435.5,-296.5 435.5,-270.5 214.5,-270.5"/>
<text text-anchor="middle" x="325" y="-279.7" font-family="Source Sans Pro" font-size="16.00">IECopyBufferToImageInfo.hpp</text>
</a>
</g>
</g>
<!-- Node1&#45;&gt;Node2 -->
<g id="edge1" class="edge">
<title>Node1&#45;&gt;Node2</title>
<path fill="none" stroke="midnightblue" d="M220,-333.39C244.57,-321.95 270.1,-310.06 289.83,-300.88"/>
<polygon fill="midnightblue" stroke="midnightblue" points="291.43,-303.99 299.02,-296.6 288.48,-297.64 291.43,-303.99"/>
</g>
<!-- Node7 -->
<g id="node7" class="node">
<title>Node7</title>
<g id="a_node7"><a xlink:title=" ">
<polygon fill="white" stroke="#bfbfbf" points="687.5,-0.5 687.5,-26.5 746.5,-26.5 746.5,-0.5 687.5,-0.5"/>
<text text-anchor="middle" x="717" y="-9.7" font-family="Source Sans Pro" font-size="16.00">vector</text>
</a>
</g>
</g>
<!-- Node1&#45;&gt;Node7 -->
<g id="edge33" class="edge">
<title>Node1&#45;&gt;Node7</title>
<path fill="none" stroke="midnightblue" d="M85.7,-333.24C56.33,-305.6 25,-265.75 25,-221.5 25,-221.5 25,-221.5 25,-147.5 25,-105.76 31.47,-86.46 66,-63 116.49,-28.7 542.96,-17.78 676.91,-15.18"/>
<polygon fill="midnightblue" stroke="midnightblue" points="677.21,-18.68 687.14,-14.99 677.07,-11.68 677.21,-18.68"/>
</g>
<!-- Node3 -->
<g id="node3" class="node">
<title>Node3</title>
<g id="a_node3"><a xlink:href="_i_e_buffer_8hpp.html" target="_top" xlink:title=" ">
<polygon fill="white" stroke="black" points="251.5,-207.5 251.5,-233.5 398.5,-233.5 398.5,-207.5 251.5,-207.5"/>
<text text-anchor="middle" x="325" y="-216.7" font-family="Source Sans Pro" font-size="16.00">Buffer/IEBuffer.hpp</text>
</a>
</g>
</g>
<!-- Node2&#45;&gt;Node3 -->
<g id="edge2" class="edge">
<title>Node2&#45;&gt;Node3</title>
<path fill="none" stroke="midnightblue" d="M325,-270.45C325,-262.85 325,-252.79 325,-243.78"/>
<polygon fill="midnightblue" stroke="midnightblue" points="328.5,-243.53 325,-233.53 321.5,-243.53 328.5,-243.53"/>
</g>
<!-- Node5 -->
<g id="node5" class="node">
<title>Node5</title>
<g id="a_node5"><a xlink:title=" ">
<polygon fill="white" stroke="#bfbfbf" points="1304,-63.5 1304,-89.5 1378,-89.5 1378,-63.5 1304,-63.5"/>
<text text-anchor="middle" x="1341" y="-72.7" font-family="Source Sans Pro" font-size="16.00">memory</text>
</a>
</g>
</g>
<!-- Node2&#45;&gt;Node5 -->
<g id="edge31" class="edge">
<title>Node2&#45;&gt;Node5</title>
<path fill="none" stroke="midnightblue" d="M435.74,-281.04C655.68,-276.31 1138.33,-256.23 1277,-171 1304.2,-154.28 1322.63,-121.18 1332.49,-99.19"/>
<polygon fill="midnightblue" stroke="midnightblue" points="1335.83,-100.26 1336.52,-89.69 1329.39,-97.52 1335.83,-100.26"/>
</g>
<!-- Node8 -->
<g id="node8" class="node">
<title>Node8</title>
<g id="a_node8"><a xlink:title=" ">
<polygon fill="white" stroke="#bfbfbf" points="346.5,-63.5 346.5,-89.5 471.5,-89.5 471.5,-63.5 346.5,-63.5"/>
<text text-anchor="middle" x="409" y="-72.7" font-family="Source Sans Pro" font-size="16.00">vulkan/vulkan.h</text>
</a>
</g>
</g>
<!-- Node2&#45;&gt;Node8 -->
<g id="edge32" class="edge">
<title>Node2&#45;&gt;Node8</title>
<path fill="none" stroke="midnightblue" d="M298.61,-270.35C246.15,-244.59 137.57,-182.21 183,-126 202.11,-102.36 277.74,-89.71 336.31,-83.33"/>
<polygon fill="midnightblue" stroke="midnightblue" points="336.7,-86.81 346.28,-82.28 335.97,-79.85 336.7,-86.81"/>
</g>
<!-- Node15 -->
<g id="node15" class="node">
<title>Node15</title>
<g id="a_node15"><a xlink:href="_i_e_image_8hpp.html" target="_top" xlink:title=" ">
<polygon fill="white" stroke="black" points="642.5,-207.5 642.5,-233.5 791.5,-233.5 791.5,-207.5 642.5,-207.5"/>
<text text-anchor="middle" x="717" y="-216.7" font-family="Source Sans Pro" font-size="16.00">Image/IEImage.hpp</text>
</a>
</g>
</g>
<!-- Node2&#45;&gt;Node15 -->
<g id="edge20" class="edge">
<title>Node2&#45;&gt;Node15</title>
<path fill="none" stroke="midnightblue" d="M402.45,-270.45C468.66,-260.14 563.8,-245.34 632.08,-234.71"/>
<polygon fill="midnightblue" stroke="midnightblue" points="633.03,-238.11 642.37,-233.11 631.95,-231.19 633.03,-238.11"/>
</g>
<!-- Node4 -->
<g id="node4" class="node">
<title>Node4</title>
<g id="a_node4"><a xlink:href="_i_e_dependency_8hpp.html" target="_top" xlink:title=" ">
<polygon fill="white" stroke="black" points="745.5,-126.5 745.5,-170.5 990.5,-170.5 990.5,-126.5 745.5,-126.5"/>
<text text-anchor="start" x="753.5" y="-153.7" font-family="Source Sans Pro" font-size="16.00">GraphicsModule/CommandBuffer</text>
<text text-anchor="middle" x="868" y="-135.7" font-family="Source Sans Pro" font-size="16.00">/IEDependency.hpp</text>
</a>
</g>
</g>
<!-- Node3&#45;&gt;Node4 -->
<g id="edge3" class="edge">
<title>Node3&#45;&gt;Node4</title>
<path fill="none" stroke="midnightblue" d="M398.51,-210.02C484.68,-198.91 629.15,-180.29 735.12,-166.63"/>
<polygon fill="midnightblue" stroke="midnightblue" points="735.78,-170.07 745.25,-165.32 734.89,-163.13 735.78,-170.07"/>
</g>
<!-- Node3&#45;&gt;Node7 -->
<g id="edge19" class="edge">
<title>Node3&#45;&gt;Node7</title>
<path fill="none" stroke="midnightblue" d="M251.24,-214.48C189.23,-208.55 107.51,-196.11 87,-171 56.64,-133.82 54.39,-98.22 87,-63 127.09,-19.7 544.87,-14.93 677.1,-14.5"/>
<polygon fill="midnightblue" stroke="midnightblue" points="677.21,-18 687.2,-14.48 677.19,-11 677.21,-18"/>
</g>
<!-- Node3&#45;&gt;Node8 -->
<g id="edge16" class="edge">
<title>Node3&#45;&gt;Node8</title>
<path fill="none" stroke="midnightblue" d="M251.46,-208.25C230.04,-201.18 208.94,-189.69 196,-171 184.62,-154.56 183.53,-141.63 196,-126 213.48,-104.09 281.78,-91.31 336.38,-84.43"/>
<polygon fill="midnightblue" stroke="midnightblue" points="336.9,-87.89 346.4,-83.21 336.06,-80.94 336.9,-87.89"/>
</g>
<!-- Node9 -->
<g id="node9" class="node">
<title>Node9</title>
<g id="a_node9"><a xlink:href="_i_e_a_p_i_8hpp.html" target="_top" xlink:title=" ">
<polygon fill="white" stroke="black" points="1008.5,-135.5 1008.5,-161.5 1091.5,-161.5 1091.5,-135.5 1008.5,-135.5"/>
<text text-anchor="middle" x="1050" y="-144.7" font-family="Source Sans Pro" font-size="16.00">IEAPI.hpp</text>
</a>
</g>
</g>
<!-- Node3&#45;&gt;Node9 -->
<g id="edge8" class="edge">
<title>Node3&#45;&gt;Node9</title>
<path fill="none" stroke="midnightblue" d="M398.66,-215.6C561.62,-206.77 942.82,-184.93 1000,-171 1005.57,-169.64 1011.3,-167.73 1016.81,-165.59"/>
<polygon fill="midnightblue" stroke="midnightblue" points="1018.53,-168.66 1026.4,-161.57 1015.83,-162.2 1018.53,-168.66"/>
</g>
<!-- Node11 -->
<g id="node11" class="node">
<title>Node11</title>
<g id="a_node11"><a xlink:title=" ">
<polygon fill="white" stroke="#bfbfbf" points="897.5,-0.5 897.5,-26.5 960.5,-26.5 960.5,-0.5 897.5,-0.5"/>
<text text-anchor="middle" x="929" y="-9.7" font-family="Source Sans Pro" font-size="16.00">cstdint</text>
</a>
</g>
</g>
<!-- Node3&#45;&gt;Node11 -->
<g id="edge17" class="edge">
<title>Node3&#45;&gt;Node11</title>
<path fill="none" stroke="midnightblue" d="M251.31,-211.91C225.41,-205.29 198.84,-193.14 183,-171 171.37,-154.73 171.83,-142.59 183,-126 224.52,-64.31 265.66,-80.24 338,-63 364.69,-56.64 756.92,-27.23 887.25,-17.58"/>
<polygon fill="midnightblue" stroke="midnightblue" points="887.54,-21.07 897.25,-16.84 887.02,-14.08 887.54,-21.07"/>
</g>
<!-- Node12 -->
<g id="node12" class="node">
<title>Node12</title>
<g id="a_node12"><a xlink:title=" ">
<polygon fill="white" stroke="#bfbfbf" points="309.5,-135.5 309.5,-161.5 494.5,-161.5 494.5,-135.5 309.5,-135.5"/>
<text text-anchor="middle" x="402" y="-144.7" font-family="Source Sans Pro" font-size="16.00">include/vk_mem_alloc.h</text>
</a>
</g>
</g>
<!-- Node3&#45;&gt;Node12 -->
<g id="edge14" class="edge">
<title>Node3&#45;&gt;Node12</title>
<path fill="none" stroke="midnightblue" d="M338.41,-207.31C350.23,-196.57 367.62,-180.75 381.24,-168.38"/>
<polygon fill="midnightblue" stroke="midnightblue" points="383.7,-170.87 388.74,-161.55 378.99,-165.69 383.7,-170.87"/>
</g>
<!-- Node13 -->
<g id="node13" class="node">
<title>Node13</title>
<g id="a_node13"><a xlink:title=" ">
<polygon fill="white" stroke="#bfbfbf" points="513,-135.5 513,-161.5 651,-161.5 651,-135.5 513,-135.5"/>
<text text-anchor="middle" x="582" y="-144.7" font-family="Source Sans Pro" font-size="16.00">include/GL/glew.h</text>
</a>
</g>
</g>
<!-- Node3&#45;&gt;Node13 -->
<g id="edge15" class="edge">
<title>Node3&#45;&gt;Node13</title>
<path fill="none" stroke="midnightblue" d="M369.52,-207.5C405.75,-197.71 458.19,-183.52 504,-171 511.9,-168.84 520.25,-166.55 528.43,-164.3"/>
<polygon fill="midnightblue" stroke="midnightblue" points="529.57,-167.62 538.28,-161.59 527.71,-160.87 529.57,-167.62"/>
</g>
<!-- Node14 -->
<g id="node14" class="node">
<title>Node14</title>
<g id="a_node14"><a xlink:title=" ">
<polygon fill="white" stroke="#bfbfbf" points="205,-135.5 205,-161.5 291,-161.5 291,-135.5 205,-135.5"/>
<text text-anchor="middle" x="248" y="-144.7" font-family="Source Sans Pro" font-size="16.00">functional</text>
</a>
</g>
</g>
<!-- Node3&#45;&gt;Node14 -->
<g id="edge18" class="edge">
<title>Node3&#45;&gt;Node14</title>
<path fill="none" stroke="midnightblue" d="M311.59,-207.31C299.77,-196.57 282.38,-180.75 268.76,-168.38"/>
<polygon fill="midnightblue" stroke="midnightblue" points="271.01,-165.69 261.26,-161.55 266.3,-170.87 271.01,-165.69"/>
</g>
<!-- Node4&#45;&gt;Node5 -->
<g id="edge4" class="edge">
<title>Node4&#45;&gt;Node5</title>
<path fill="none" stroke="midnightblue" d="M990.6,-127.45C993.76,-126.96 996.9,-126.47 1000,-126 1104.79,-110.02 1227.96,-92.91 1293.81,-83.91"/>
<polygon fill="midnightblue" stroke="midnightblue" points="1294.44,-87.35 1303.88,-82.53 1293.49,-80.42 1294.44,-87.35"/>
</g>
<!-- Node6 -->
<g id="node6" class="node">
<title>Node6</title>
<g id="a_node6"><a xlink:title=" ">
<polygon fill="white" stroke="#bfbfbf" points="1003.5,-0.5 1003.5,-26.5 1058.5,-26.5 1058.5,-0.5 1003.5,-0.5"/>
<text text-anchor="middle" x="1031" y="-9.7" font-family="Source Sans Pro" font-size="16.00">string</text>
</a>
</g>
</g>
<!-- Node4&#45;&gt;Node6 -->
<g id="edge5" class="edge">
<title>Node4&#45;&gt;Node6</title>
<path fill="none" stroke="midnightblue" d="M935.09,-126.44C955.48,-117.62 976.76,-105.68 993,-90 1008.24,-75.28 1018.38,-53.15 1024.32,-36.65"/>
<polygon fill="midnightblue" stroke="midnightblue" points="1027.78,-37.35 1027.63,-26.76 1021.14,-35.13 1027.78,-37.35"/>
</g>
<!-- Node4&#45;&gt;Node7 -->
<g id="edge6" class="edge">
<title>Node4&#45;&gt;Node7</title>
<path fill="none" stroke="midnightblue" d="M844.07,-126.43C815.01,-100.83 766.41,-58.02 738.49,-33.43"/>
<polygon fill="midnightblue" stroke="midnightblue" points="740.69,-30.7 730.87,-26.71 736.06,-35.95 740.69,-30.7"/>
</g>
<!-- Node4&#45;&gt;Node8 -->
<g id="edge7" class="edge">
<title>Node4&#45;&gt;Node8</title>
<path fill="none" stroke="midnightblue" d="M745.3,-128.79C661.26,-115.97 552.65,-99.41 481.93,-88.62"/>
<polygon fill="midnightblue" stroke="midnightblue" points="482.19,-85.12 471.78,-87.07 481.14,-92.04 482.19,-85.12"/>
</g>
<!-- Node9&#45;&gt;Node6 -->
<g id="edge13" class="edge">
<title>Node9&#45;&gt;Node6</title>
<path fill="none" stroke="midnightblue" d="M1048.25,-135.23C1045.05,-112.86 1038.24,-65.16 1034.2,-36.88"/>
<polygon fill="midnightblue" stroke="midnightblue" points="1037.63,-36.15 1032.75,-26.74 1030.7,-37.14 1037.63,-36.15"/>
</g>
<!-- Node10 -->
<g id="node10" class="node">
<title>Node10</title>
<g id="a_node10"><a xlink:href="_i_e_version_8hpp.html" target="_top" xlink:title=" ">
<polygon fill="white" stroke="black" points="874,-63.5 874,-89.5 984,-89.5 984,-63.5 874,-63.5"/>
<text text-anchor="middle" x="929" y="-72.7" font-family="Source Sans Pro" font-size="16.00">IEVersion.hpp</text>
</a>
</g>
</g>
<!-- Node9&#45;&gt;Node10 -->
<g id="edge9" class="edge">
<title>Node9&#45;&gt;Node10</title>
<path fill="none" stroke="midnightblue" d="M1029.2,-135.47C1009.81,-124.25 980.67,-107.39 958.81,-94.74"/>
<polygon fill="midnightblue" stroke="midnightblue" points="960.34,-91.59 949.93,-89.61 956.84,-97.65 960.34,-91.59"/>
</g>
<!-- Node10&#45;&gt;Node6 -->
<g id="edge11" class="edge">
<title>Node10&#45;&gt;Node6</title>
<path fill="none" stroke="midnightblue" d="M949.15,-63.45C964.24,-54.43 985.1,-41.95 1001.98,-31.85"/>
<polygon fill="midnightblue" stroke="midnightblue" points="1004.1,-34.66 1010.89,-26.53 1000.51,-28.66 1004.1,-34.66"/>
</g>
<!-- Node10&#45;&gt;Node7 -->
<g id="edge12" class="edge">
<title>Node10&#45;&gt;Node7</title>
<path fill="none" stroke="midnightblue" d="M887.12,-63.45C849.17,-52.53 793.67,-36.56 756.49,-25.86"/>
<polygon fill="midnightblue" stroke="midnightblue" points="757.1,-22.4 746.52,-22.99 755.16,-29.12 757.1,-22.4"/>
</g>
<!-- Node10&#45;&gt;Node11 -->
<g id="edge10" class="edge">
<title>Node10&#45;&gt;Node11</title>
<path fill="none" stroke="midnightblue" d="M929,-63.45C929,-55.85 929,-45.79 929,-36.78"/>
<polygon fill="midnightblue" stroke="midnightblue" points="932.5,-36.53 929,-26.53 925.5,-36.53 932.5,-36.53"/>
</g>
<!-- Node15&#45;&gt;Node4 -->
<g id="edge21" class="edge">
<title>Node15&#45;&gt;Node4</title>
<path fill="none" stroke="midnightblue" d="M742.96,-207.47C762.24,-198.53 789.24,-186.01 813.21,-174.9"/>
<polygon fill="midnightblue" stroke="midnightblue" points="814.98,-177.94 822.58,-170.56 812.03,-171.59 814.98,-177.94"/>
</g>
<!-- Node15&#45;&gt;Node6 -->
<g id="edge29" class="edge">
<title>Node15&#45;&gt;Node6</title>
<path fill="none" stroke="midnightblue" d="M791.53,-218.27C932.35,-215.16 1226.22,-204.67 1257,-171 1321.18,-100.8 1148.45,-45.05 1068.79,-23.8"/>
<polygon fill="midnightblue" stroke="midnightblue" points="1069.21,-20.29 1058.65,-21.15 1067.44,-27.06 1069.21,-20.29"/>
</g>
<!-- Node15&#45;&gt;Node7 -->
<g id="edge30" class="edge">
<title>Node15&#45;&gt;Node7</title>
<path fill="none" stroke="midnightblue" d="M717,-207.29C717,-173.75 717,-79.83 717,-36.69"/>
<polygon fill="midnightblue" stroke="midnightblue" points="720.5,-36.65 717,-26.65 713.5,-36.65 720.5,-36.65"/>
</g>
<!-- Node15&#45;&gt;Node8 -->
<g id="edge26" class="edge">
<title>Node15&#45;&gt;Node8</title>
<path fill="none" stroke="midnightblue" d="M713.17,-207.2C706.15,-186.82 689.2,-146.28 660,-126 631.67,-106.32 545.21,-92.66 481.65,-84.96"/>
<polygon fill="midnightblue" stroke="midnightblue" points="482.01,-81.48 471.66,-83.78 481.18,-88.43 482.01,-81.48"/>
</g>
<!-- Node15&#45;&gt;Node9 -->
<g id="edge22" class="edge">
<title>Node15&#45;&gt;Node9</title>
<path fill="none" stroke="midnightblue" d="M791.69,-211.59C849.39,-204.31 930.81,-191.49 1000,-171 1005.27,-169.44 1010.72,-167.48 1016,-165.38"/>
<polygon fill="midnightblue" stroke="midnightblue" points="1017.37,-168.6 1025.25,-161.51 1014.67,-162.14 1017.37,-168.6"/>
</g>
<!-- Node15&#45;&gt;Node11 -->
<g id="edge27" class="edge">
<title>Node15&#45;&gt;Node11</title>
<path fill="none" stroke="midnightblue" d="M791.83,-215.3C897.77,-208.57 1080.92,-193.78 1101,-171 1151.03,-114.26 1035.67,-56.73 970.23,-29.97"/>
<polygon fill="midnightblue" stroke="midnightblue" points="971.16,-26.58 960.58,-26.1 968.56,-33.07 971.16,-26.58"/>
</g>
<!-- Node15&#45;&gt;Node12 -->
<g id="edge24" class="edge">
<title>Node15&#45;&gt;Node12</title>
<path fill="none" stroke="midnightblue" d="M662.85,-207.47C608.23,-195.33 523.91,-176.59 466.01,-163.72"/>
<polygon fill="midnightblue" stroke="midnightblue" points="466.75,-160.3 456.23,-161.55 465.24,-167.14 466.75,-160.3"/>
</g>
<!-- Node15&#45;&gt;Node13 -->
<g id="edge23" class="edge">
<title>Node15&#45;&gt;Node13</title>
<path fill="none" stroke="midnightblue" d="M693.79,-207.47C671.87,-196.1 638.78,-178.94 614.28,-166.24"/>
<polygon fill="midnightblue" stroke="midnightblue" points="615.84,-163.11 605.36,-161.61 612.62,-169.32 615.84,-163.11"/>
</g>
<!-- Node15&#45;&gt;Node14 -->
<g id="edge28" class="edge">
<title>Node15&#45;&gt;Node14</title>
<path fill="none" stroke="midnightblue" d="M642.26,-216.84C558.13,-212.45 417.93,-200.95 301,-171 295.15,-169.5 289.08,-167.5 283.23,-165.32"/>
<polygon fill="midnightblue" stroke="midnightblue" points="284.26,-161.96 273.68,-161.54 281.69,-168.47 284.26,-161.96"/>
</g>
<!-- Node16 -->
<g id="node16" class="node">
<title>Node16</title>
<g id="a_node16"><a xlink:title=" ">
<polygon fill="white" stroke="#bfbfbf" points="1148,-135.5 1148,-161.5 1248,-161.5 1248,-135.5 1148,-135.5"/>
<text text-anchor="middle" x="1198" y="-144.7" font-family="Source Sans Pro" font-size="16.00">stb_image.h</text>
</a>
</g>
</g>
<!-- Node15&#45;&gt;Node16 -->
<g id="edge25" class="edge">
<title>Node15&#45;&gt;Node16</title>
<path fill="none" stroke="midnightblue" d="M791.6,-215.52C875.64,-209.95 1015.93,-197.4 1134,-171 1141.48,-169.33 1149.31,-167.11 1156.82,-164.73"/>
<polygon fill="midnightblue" stroke="midnightblue" points="1158.07,-168 1166.47,-161.54 1155.87,-161.36 1158.07,-168"/>
</g>
</g>
</svg>
