<?xml version="1.0" encoding="UTF-8" standalone="no"?>
<!DOCTYPE svg PUBLIC "-//W3C//DTD SVG 1.1//EN"
 "http://www.w3.org/Graphics/SVG/1.1/DTD/svg11.dtd">
<!-- Generated by graphviz version 2.43.0 (0)
 -->
<!-- Title: Illumination&#45;Engine/src/GraphicsModule/Image/IETexture.hpp Pages: 1 -->
<svg width="1262pt" height="341pt"
 viewBox="0.00 0.00 1261.50 341.00" xmlns="http://www.w3.org/2000/svg" xmlns:xlink="http://www.w3.org/1999/xlink">
<g id="graph0" class="graph" transform="scale(1 1) rotate(0) translate(4 337)">
<title>Illumination&#45;Engine/src/GraphicsModule/Image/IETexture.hpp</title>
<polygon fill="white" stroke="transparent" points="-4,4 -4,-337 1257.5,-337 1257.5,4 -4,4"/>
<!-- Node1 -->
<g id="node1" class="node">
<title>Node1</title>
<g id="a_node1"><a xlink:title=" ">
<polygon fill="#bfbfbf" stroke="black" points="681.5,-270.5 681.5,-332.5 843.5,-332.5 843.5,-270.5 681.5,-270.5"/>
<text text-anchor="start" x="689.5" y="-315.7" font-family="Source Sans Pro" font-size="16.00">Illumination&#45;Engine</text>
<text text-anchor="start" x="689.5" y="-297.7" font-family="Source Sans Pro" font-size="16.00">/src/GraphicsModule</text>
<text text-anchor="middle" x="762.5" y="-279.7" font-family="Source Sans Pro" font-size="16.00">/Image/IETexture.hpp</text>
</a>
</g>
</g>
<!-- Node2 -->
<g id="node2" class="node">
<title>Node2</title>
<g id="a_node2"><a xlink:href="_i_e_image_8hpp.html" target="_top" xlink:title=" ">
<polygon fill="white" stroke="black" points="479.5,-207.5 479.5,-233.5 581.5,-233.5 581.5,-207.5 479.5,-207.5"/>
<text text-anchor="middle" x="530.5" y="-216.7" font-family="Source Sans Pro" font-size="16.00">IEImage.hpp</text>
</a>
</g>
</g>
<!-- Node1&#45;&gt;Node2 -->
<g id="edge1" class="edge">
<title>Node1&#45;&gt;Node2</title>
<path fill="none" stroke="midnightblue" d="M681.36,-272.87C645.9,-260.8 605.66,-247.09 575.66,-236.88"/>
<polygon fill="midnightblue" stroke="midnightblue" points="576.5,-233.47 565.9,-233.55 574.24,-240.09 576.5,-233.47"/>
</g>
<!-- Node5 -->
<g id="node5" class="node">
<title>Node5</title>
<g id="a_node5"><a xlink:title=" ">
<polygon fill="white" stroke="#bfbfbf" points="396,-0.5 396,-26.5 451,-26.5 451,-0.5 396,-0.5"/>
<text text-anchor="middle" x="423.5" y="-9.7" font-family="Source Sans Pro" font-size="16.00">string</text>
</a>
</g>
</g>
<!-- Node1&#45;&gt;Node5 -->
<g id="edge25" class="edge">
<title>Node1&#45;&gt;Node5</title>
<path fill="none" stroke="midnightblue" d="M681.49,-296.85C522.61,-287.83 179.34,-258.44 107.5,-171 75.38,-131.91 102.07,-92.05 143.5,-63 182.03,-35.98 318.66,-22.29 385.76,-17.08"/>
<polygon fill="midnightblue" stroke="midnightblue" points="386.19,-20.55 395.9,-16.31 385.67,-13.57 386.19,-20.55"/>
</g>
<!-- Node7 -->
<g id="node7" class="node">
<title>Node7</title>
<g id="a_node7"><a xlink:title=" ">
<polygon fill="white" stroke="#bfbfbf" points="748,-63.5 748,-89.5 873,-89.5 873,-63.5 748,-63.5"/>
<text text-anchor="middle" x="810.5" y="-72.7" font-family="Source Sans Pro" font-size="16.00">vulkan/vulkan.h</text>
</a>
</g>
</g>
<!-- Node1&#45;&gt;Node7 -->
<g id="edge23" class="edge">
<title>Node1&#45;&gt;Node7</title>
<path fill="none" stroke="midnightblue" d="M843.69,-290.93C916.36,-277.59 1018.87,-245.9 1068.5,-171 1114.92,-100.95 974.89,-83.04 883.3,-78.68"/>
<polygon fill="midnightblue" stroke="midnightblue" points="883.36,-75.18 873.22,-78.24 883.06,-82.17 883.36,-75.18"/>
</g>
<!-- Node10 -->
<g id="node10" class="node">
<title>Node10</title>
<g id="a_node10"><a xlink:title=" ">
<polygon fill="white" stroke="#bfbfbf" points="0,-0.5 0,-26.5 63,-26.5 63,-0.5 0,-0.5"/>
<text text-anchor="middle" x="31.5" y="-9.7" font-family="Source Sans Pro" font-size="16.00">cstdint</text>
</a>
</g>
</g>
<!-- Node1&#45;&gt;Node10 -->
<g id="edge24" class="edge">
<title>Node1&#45;&gt;Node10</title>
<path fill="none" stroke="midnightblue" d="M681.37,-297.86C538.6,-292.17 248.93,-275.75 157.5,-234 81.98,-199.51 65.18,-168.62 38.5,-90 32.64,-72.75 31.07,-52.08 30.87,-36.74"/>
<polygon fill="midnightblue" stroke="midnightblue" points="34.37,-36.64 30.92,-26.63 27.37,-36.61 34.37,-36.64"/>
</g>
<!-- Node12 -->
<g id="node12" class="node">
<title>Node12</title>
<g id="a_node12"><a xlink:title=" ">
<polygon fill="white" stroke="#bfbfbf" points="929.5,-126.5 929.5,-170.5 1059.5,-170.5 1059.5,-126.5 929.5,-126.5"/>
<text text-anchor="start" x="937.5" y="-153.7" font-family="Source Sans Pro" font-size="16.00">../contrib/stb/stb</text>
<text text-anchor="middle" x="994.5" y="-135.7" font-family="Source Sans Pro" font-size="16.00">_image.h</text>
</a>
</g>
</g>
<!-- Node1&#45;&gt;Node12 -->
<g id="edge21" class="edge">
<title>Node1&#45;&gt;Node12</title>
<path fill="none" stroke="midnightblue" d="M808.61,-270.49C850.84,-243 912.77,-202.7 953.35,-176.28"/>
<polygon fill="midnightblue" stroke="midnightblue" points="955.45,-179.09 961.93,-170.7 951.64,-173.22 955.45,-179.09"/>
</g>
<!-- Node15 -->
<g id="node15" class="node">
<title>Node15</title>
<g id="a_node15"><a xlink:title=" ">
<polygon fill="white" stroke="#bfbfbf" points="1115.5,-207.5 1115.5,-233.5 1253.5,-233.5 1253.5,-207.5 1115.5,-207.5"/>
<text text-anchor="middle" x="1184.5" y="-216.7" font-family="Source Sans Pro" font-size="16.00">assimp/material.h</text>
</a>
</g>
</g>
<!-- Node1&#45;&gt;Node15 -->
<g id="edge22" class="edge">
<title>Node1&#45;&gt;Node15</title>
<path fill="none" stroke="midnightblue" d="M843.87,-285.27C920.84,-270.86 1035.39,-249.41 1110.02,-235.44"/>
<polygon fill="midnightblue" stroke="midnightblue" points="1111.09,-238.8 1120.28,-233.52 1109.8,-231.92 1111.09,-238.8"/>
</g>
<!-- Node3 -->
<g id="node3" class="node">
<title>Node3</title>
<g id="a_node3"><a xlink:href="_i_e_dependency_8hpp.html" target="_top" xlink:title=" ">
<polygon fill="white" stroke="black" points="590,-126.5 590,-170.5 835,-170.5 835,-126.5 590,-126.5"/>
<text text-anchor="start" x="598" y="-153.7" font-family="Source Sans Pro" font-size="16.00">GraphicsModule/CommandBuffer</text>
<text text-anchor="middle" x="712.5" y="-135.7" font-family="Source Sans Pro" font-size="16.00">/IEDependency.hpp</text>
</a>
</g>
</g>
<!-- Node2&#45;&gt;Node3 -->
<g id="edge2" class="edge">
<title>Node2&#45;&gt;Node3</title>
<path fill="none" stroke="midnightblue" d="M561.79,-207.47C585.54,-198.33 619.01,-185.46 648.38,-174.16"/>
<polygon fill="midnightblue" stroke="midnightblue" points="649.67,-177.41 657.75,-170.56 647.16,-170.88 649.67,-177.41"/>
</g>
<!-- Node2&#45;&gt;Node5 -->
<g id="edge19" class="edge">
<title>Node2&#45;&gt;Node5</title>
<path fill="none" stroke="midnightblue" d="M479.3,-217.09C375.81,-211.68 149.56,-196.99 126.5,-171 46.55,-80.87 289.37,-34.25 385.83,-19.65"/>
<polygon fill="midnightblue" stroke="midnightblue" points="386.39,-23.1 395.77,-18.18 385.36,-16.18 386.39,-23.1"/>
</g>
<!-- Node6 -->
<g id="node6" class="node">
<title>Node6</title>
<g id="a_node6"><a xlink:title=" ">
<polygon fill="white" stroke="#bfbfbf" points="690,-0.5 690,-26.5 749,-26.5 749,-0.5 690,-0.5"/>
<text text-anchor="middle" x="719.5" y="-9.7" font-family="Source Sans Pro" font-size="16.00">vector</text>
</a>
</g>
</g>
<!-- Node2&#45;&gt;Node6 -->
<g id="edge20" class="edge">
<title>Node2&#45;&gt;Node6</title>
<path fill="none" stroke="midnightblue" d="M581.58,-218.77C664.05,-216.51 821.4,-207.4 861.5,-171 897.64,-138.19 910.65,-102.16 881.5,-63 853.54,-25.44 797.53,-15.86 759.28,-13.97"/>
<polygon fill="midnightblue" stroke="midnightblue" points="759.11,-10.46 749,-13.62 758.88,-17.46 759.11,-10.46"/>
</g>
<!-- Node2&#45;&gt;Node7 -->
<g id="edge16" class="edge">
<title>Node2&#45;&gt;Node7</title>
<path fill="none" stroke="midnightblue" d="M581.74,-219.29C661.68,-217.75 810.4,-209.62 843.5,-171 861.63,-149.84 843.64,-118.06 827.96,-97.54"/>
<polygon fill="midnightblue" stroke="midnightblue" points="830.49,-95.1 821.49,-89.51 825.03,-99.49 830.49,-95.1"/>
</g>
<!-- Node8 -->
<g id="node8" class="node">
<title>Node8</title>
<g id="a_node8"><a xlink:href="_i_e_a_p_i_8hpp.html" target="_top" xlink:title=" ">
<polygon fill="white" stroke="black" points="489,-135.5 489,-161.5 572,-161.5 572,-135.5 489,-135.5"/>
<text text-anchor="middle" x="530.5" y="-144.7" font-family="Source Sans Pro" font-size="16.00">IEAPI.hpp</text>
</a>
</g>
</g>
<!-- Node2&#45;&gt;Node8 -->
<g id="edge7" class="edge">
<title>Node2&#45;&gt;Node8</title>
<path fill="none" stroke="midnightblue" d="M530.5,-207.31C530.5,-197.47 530.5,-183.38 530.5,-171.57"/>
<polygon fill="midnightblue" stroke="midnightblue" points="534,-171.55 530.5,-161.55 527,-171.55 534,-171.55"/>
</g>
<!-- Node2&#45;&gt;Node10 -->
<g id="edge17" class="edge">
<title>Node2&#45;&gt;Node10</title>
<path fill="none" stroke="midnightblue" d="M479.15,-219.64C379.86,-218.96 166.15,-212.56 107.5,-171 62.13,-138.86 42.71,-72.02 35.38,-37.01"/>
<polygon fill="midnightblue" stroke="midnightblue" points="38.75,-35.99 33.41,-26.84 31.88,-37.32 38.75,-35.99"/>
</g>
<!-- Node11 -->
<g id="node11" class="node">
<title>Node11</title>
<g id="a_node11"><a xlink:title=" ">
<polygon fill="white" stroke="#bfbfbf" points="136,-135.5 136,-161.5 219,-161.5 219,-135.5 136,-135.5"/>
<text text-anchor="middle" x="177.5" y="-144.7" font-family="Source Sans Pro" font-size="16.00">GL/glew.h</text>
</a>
</g>
</g>
<!-- Node2&#45;&gt;Node11 -->
<g id="edge13" class="edge">
<title>Node2&#45;&gt;Node11</title>
<path fill="none" stroke="midnightblue" d="M479.26,-215.2C418.32,-209.19 313.97,-196.09 227.5,-171 222.23,-169.47 216.77,-167.53 211.48,-165.43"/>
<polygon fill="midnightblue" stroke="midnightblue" points="212.81,-162.2 202.23,-161.57 210.11,-168.66 212.81,-162.2"/>
</g>
<!-- Node2&#45;&gt;Node12 -->
<g id="edge14" class="edge">
<title>Node2&#45;&gt;Node12</title>
<path fill="none" stroke="midnightblue" d="M581.62,-215.36C655.72,-208.85 797.04,-194.46 915.5,-171 916.75,-170.75 918.02,-170.49 919.29,-170.23"/>
<polygon fill="midnightblue" stroke="midnightblue" points="920.14,-173.63 929.14,-168.05 918.62,-166.79 920.14,-173.63"/>
</g>
<!-- Node13 -->
<g id="node13" class="node">
<title>Node13</title>
<g id="a_node13"><a xlink:title=" ">
<polygon fill="white" stroke="#bfbfbf" points="237,-135.5 237,-161.5 366,-161.5 366,-135.5 237,-135.5"/>
<text text-anchor="middle" x="301.5" y="-144.7" font-family="Source Sans Pro" font-size="16.00">vk_mem_alloc.h</text>
</a>
</g>
</g>
<!-- Node2&#45;&gt;Node13 -->
<g id="edge15" class="edge">
<title>Node2&#45;&gt;Node13</title>
<path fill="none" stroke="midnightblue" d="M491.13,-207.47C452.3,-195.6 392.83,-177.42 350.86,-164.59"/>
<polygon fill="midnightblue" stroke="midnightblue" points="351.71,-161.19 341.12,-161.61 349.66,-167.88 351.71,-161.19"/>
</g>
<!-- Node14 -->
<g id="node14" class="node">
<title>Node14</title>
<g id="a_node14"><a xlink:title=" ">
<polygon fill="white" stroke="#bfbfbf" points="384.5,-135.5 384.5,-161.5 470.5,-161.5 470.5,-135.5 384.5,-135.5"/>
<text text-anchor="middle" x="427.5" y="-144.7" font-family="Source Sans Pro" font-size="16.00">functional</text>
</a>
</g>
</g>
<!-- Node2&#45;&gt;Node14 -->
<g id="edge18" class="edge">
<title>Node2&#45;&gt;Node14</title>
<path fill="none" stroke="midnightblue" d="M512.56,-207.31C496.24,-196.22 471.95,-179.71 453.51,-167.17"/>
<polygon fill="midnightblue" stroke="midnightblue" points="455.47,-164.28 445.24,-161.55 451.54,-170.07 455.47,-164.28"/>
</g>
<!-- Node4 -->
<g id="node4" class="node">
<title>Node4</title>
<g id="a_node4"><a xlink:title=" ">
<polygon fill="white" stroke="#bfbfbf" points="617.5,-63.5 617.5,-89.5 691.5,-89.5 691.5,-63.5 617.5,-63.5"/>
<text text-anchor="middle" x="654.5" y="-72.7" font-family="Source Sans Pro" font-size="16.00">memory</text>
</a>
</g>
</g>
<!-- Node3&#45;&gt;Node4 -->
<g id="edge3" class="edge">
<title>Node3&#45;&gt;Node4</title>
<path fill="none" stroke="midnightblue" d="M695.1,-126.5C687.43,-117.25 678.48,-106.44 670.93,-97.33"/>
<polygon fill="midnightblue" stroke="midnightblue" points="673.54,-95 664.47,-89.53 668.15,-99.46 673.54,-95"/>
</g>
<!-- Node3&#45;&gt;Node5 -->
<g id="edge4" class="edge">
<title>Node3&#45;&gt;Node5</title>
<path fill="none" stroke="midnightblue" d="M671.89,-126.42C652.41,-115.97 628.93,-102.85 608.5,-90 590.96,-78.97 588.99,-72.35 570.5,-63 534.95,-45.02 491.28,-31.6 460.81,-23.49"/>
<polygon fill="midnightblue" stroke="midnightblue" points="461.58,-20.07 451.02,-20.94 459.82,-26.85 461.58,-20.07"/>
</g>
<!-- Node3&#45;&gt;Node6 -->
<g id="edge5" class="edge">
<title>Node3&#45;&gt;Node6</title>
<path fill="none" stroke="midnightblue" d="M713.61,-126.43C714.89,-102.03 717,-62.03 718.31,-37.03"/>
<polygon fill="midnightblue" stroke="midnightblue" points="721.83,-36.88 718.86,-26.71 714.84,-36.52 721.83,-36.88"/>
</g>
<!-- Node3&#45;&gt;Node7 -->
<g id="edge6" class="edge">
<title>Node3&#45;&gt;Node7</title>
<path fill="none" stroke="midnightblue" d="M741.9,-126.5C755.78,-116.59 772.16,-104.88 785.44,-95.4"/>
<polygon fill="midnightblue" stroke="midnightblue" points="787.55,-98.19 793.66,-89.53 783.48,-92.5 787.55,-98.19"/>
</g>
<!-- Node8&#45;&gt;Node5 -->
<g id="edge12" class="edge">
<title>Node8&#45;&gt;Node5</title>
<path fill="none" stroke="midnightblue" d="M501.38,-135.39C481.9,-125.83 457.22,-110.66 442.5,-90 431.34,-74.35 426.72,-52.79 424.81,-36.72"/>
<polygon fill="midnightblue" stroke="midnightblue" points="428.28,-36.24 423.88,-26.61 421.31,-36.89 428.28,-36.24"/>
</g>
<!-- Node9 -->
<g id="node9" class="node">
<title>Node9</title>
<g id="a_node9"><a xlink:href="_i_e_version_8hpp.html" target="_top" xlink:title=" ">
<polygon fill="white" stroke="black" points="451.5,-63.5 451.5,-89.5 561.5,-89.5 561.5,-63.5 451.5,-63.5"/>
<text text-anchor="middle" x="506.5" y="-72.7" font-family="Source Sans Pro" font-size="16.00">IEVersion.hpp</text>
</a>
</g>
</g>
<!-- Node8&#45;&gt;Node9 -->
<g id="edge8" class="edge">
<title>Node8&#45;&gt;Node9</title>
<path fill="none" stroke="midnightblue" d="M526.32,-135.31C522.91,-125.37 518.02,-111.09 513.94,-99.21"/>
<polygon fill="midnightblue" stroke="midnightblue" points="517.19,-97.88 510.63,-89.55 510.57,-100.15 517.19,-97.88"/>
</g>
<!-- Node9&#45;&gt;Node5 -->
<g id="edge10" class="edge">
<title>Node9&#45;&gt;Node5</title>
<path fill="none" stroke="midnightblue" d="M490.1,-63.45C478.17,-54.68 461.79,-42.64 448.27,-32.7"/>
<polygon fill="midnightblue" stroke="midnightblue" points="449.99,-29.63 439.86,-26.53 445.85,-35.27 449.99,-29.63"/>
</g>
<!-- Node9&#45;&gt;Node6 -->
<g id="edge11" class="edge">
<title>Node9&#45;&gt;Node6</title>
<path fill="none" stroke="midnightblue" d="M548.58,-63.45C586.7,-52.53 642.47,-36.56 679.82,-25.86"/>
<polygon fill="midnightblue" stroke="midnightblue" points="681.19,-29.11 689.84,-22.99 679.26,-22.38 681.19,-29.11"/>
</g>
<!-- Node9&#45;&gt;Node10 -->
<g id="edge9" class="edge">
<title>Node9&#45;&gt;Node10</title>
<path fill="none" stroke="midnightblue" d="M451.08,-68.38C354.88,-56.03 159.06,-30.88 73.31,-19.87"/>
<polygon fill="midnightblue" stroke="midnightblue" points="73.53,-16.37 63.17,-18.57 72.64,-23.31 73.53,-16.37"/>
</g>
</g>
</svg>
