<?xml version="1.0" encoding="UTF-8" standalone="no"?>
<!DOCTYPE svg PUBLIC "-//W3C//DTD SVG 1.1//EN"
 "http://www.w3.org/Graphics/SVG/1.1/DTD/svg11.dtd">
<!-- Generated by graphviz version 2.43.0 (0)
 -->
<!-- Title: Illumination&#45;Engine/src/GraphicsModule/IERenderableSettings.hpp Pages: 1 -->
<svg width="392pt" height="134pt"
 viewBox="0.00 0.00 392.00 134.00" xmlns="http://www.w3.org/2000/svg" xmlns:xlink="http://www.w3.org/1999/xlink">
<g id="graph0" class="graph" transform="scale(1 1) rotate(0) translate(4 130)">
<title>Illumination&#45;Engine/src/GraphicsModule/IERenderableSettings.hpp</title>
<polygon fill="white" stroke="transparent" points="-4,4 -4,-130 388,-130 388,4 -4,4"/>
<!-- Node1 -->
<g id="node1" class="node">
<title>Node1</title>
<g id="a_node1"><a xlink:title=" ">
<polygon fill="#bfbfbf" stroke="black" points="121,-63.5 121,-125.5 318,-125.5 318,-63.5 121,-63.5"/>
<text text-anchor="start" x="129" y="-108.7" font-family="Source Sans Pro" font-size="16.00">Illumination&#45;Engine</text>
<text text-anchor="start" x="129" y="-90.7" font-family="Source Sans Pro" font-size="16.00">/src/GraphicsModule</text>
<text text-anchor="middle" x="219.5" y="-72.7" font-family="Source Sans Pro" font-size="16.00">/IERenderableSettings.hpp</text>
</a>
</g>
</g>
<!-- Node2 -->
<g id="node2" class="node">
<title>Node2</title>
<g id="a_node2"><a xlink:title=" ">
<polygon fill="white" stroke="#bfbfbf" points="0,-0.5 0,-26.5 83,-26.5 83,-0.5 0,-0.5"/>
<text text-anchor="middle" x="41.5" y="-9.7" font-family="Source Sans Pro" font-size="16.00">GL/glew.h</text>
</a>
</g>
</g>
<!-- Node1&#45;&gt;Node2 -->
<g id="edge1" class="edge">
<title>Node1&#45;&gt;Node2</title>
<path fill="none" stroke="midnightblue" d="M151.7,-63.41C126.65,-52.29 99.22,-40.12 78,-30.7"/>
<polygon fill="midnightblue" stroke="midnightblue" points="79.27,-27.43 68.71,-26.58 76.43,-33.83 79.27,-27.43"/>
</g>
<!-- Node3 -->
<g id="node3" class="node">
<title>Node3</title>
<g id="a_node3"><a xlink:title=" ">
<polygon fill="white" stroke="#bfbfbf" points="101,-0.5 101,-26.5 226,-26.5 226,-0.5 101,-0.5"/>
<text text-anchor="middle" x="163.5" y="-9.7" font-family="Source Sans Pro" font-size="16.00">vulkan/vulkan.h</text>
</a>
</g>
</g>
<!-- Node1&#45;&gt;Node3 -->
<g id="edge2" class="edge">
<title>Node1&#45;&gt;Node3</title>
<path fill="none" stroke="midnightblue" d="M198.01,-63.18C191.32,-53.75 184.12,-43.58 178.02,-34.99"/>
<polygon fill="midnightblue" stroke="midnightblue" points="180.79,-32.84 172.15,-26.7 175.08,-36.89 180.79,-32.84"/>
</g>
<!-- Node4 -->
<g id="node4" class="node">
<title>Node4</title>
<g id="a_node4"><a xlink:title=" ">
<polygon fill="white" stroke="#bfbfbf" points="244,-0.5 244,-26.5 307,-26.5 307,-0.5 244,-0.5"/>
<text text-anchor="middle" x="275.5" y="-9.7" font-family="Source Sans Pro" font-size="16.00">cstdint</text>
</a>
</g>
</g>
<!-- Node1&#45;&gt;Node4 -->
<g id="edge3" class="edge">
<title>Node1&#45;&gt;Node4</title>
<path fill="none" stroke="midnightblue" d="M240.99,-63.18C247.68,-53.75 254.88,-43.58 260.98,-34.99"/>
<polygon fill="midnightblue" stroke="midnightblue" points="263.92,-36.89 266.85,-26.7 258.21,-32.84 263.92,-36.89"/>
</g>
<!-- Node5 -->
<g id="node5" class="node">
<title>Node5</title>
<g id="a_node5"><a xlink:title=" ">
<polygon fill="white" stroke="#bfbfbf" points="325,-0.5 325,-26.5 384,-26.5 384,-0.5 325,-0.5"/>
<text text-anchor="middle" x="354.5" y="-9.7" font-family="Source Sans Pro" font-size="16.00">vector</text>
</a>
</g>
</g>
<!-- Node1&#45;&gt;Node5 -->
<g id="edge4" class="edge">
<title>Node1&#45;&gt;Node5</title>
<path fill="none" stroke="midnightblue" d="M270.92,-63.41C289.24,-52.69 309.22,-40.99 325.06,-31.73"/>
<polygon fill="midnightblue" stroke="midnightblue" points="327,-34.65 333.86,-26.58 323.46,-28.61 327,-34.65"/>
</g>
</g>
</svg>
