<?xml version="1.0" encoding="UTF-8" standalone="no"?>
<!DOCTYPE svg PUBLIC "-//W3C//DTD SVG 1.1//EN"
 "http://www.w3.org/Graphics/SVG/1.1/DTD/svg11.dtd">
<!-- Generated by graphviz version 2.43.0 (0)
 -->
<!-- Title: Illumination&#45;Engine/src/Core/FileSystemModule/IEFile.hpp Pages: 1 -->
<svg width="494pt" height="134pt"
 viewBox="0.00 0.00 494.00 134.00" xmlns="http://www.w3.org/2000/svg" xmlns:xlink="http://www.w3.org/1999/xlink">
<g id="graph0" class="graph" transform="scale(1 1) rotate(0) translate(4 130)">
<title>Illumination&#45;Engine/src/Core/FileSystemModule/IEFile.hpp</title>
<polygon fill="white" stroke="transparent" points="-4,4 -4,-130 490,-130 490,4 -4,4"/>
<!-- Node1 -->
<g id="node1" class="node">
<title>Node1</title>
<g id="a_node1"><a xlink:title=" ">
<polygon fill="#bfbfbf" stroke="black" points="165,-63.5 165,-125.5 372,-125.5 372,-63.5 165,-63.5"/>
<text text-anchor="start" x="173" y="-108.7" font-family="Source Sans Pro" font-size="16.00">Illumination&#45;Engine</text>
<text text-anchor="start" x="173" y="-90.7" font-family="Source Sans Pro" font-size="16.00">/src/Core/FileSystemModule</text>
<text text-anchor="middle" x="268.5" y="-72.7" font-family="Source Sans Pro" font-size="16.00">/IEFile.hpp</text>
</a>
</g>
</g>
<!-- Node2 -->
<g id="node2" class="node">
<title>Node2</title>
<g id="a_node2"><a xlink:title=" ">
<polygon fill="white" stroke="#bfbfbf" points="0,-0.5 0,-26.5 85,-26.5 85,-0.5 0,-0.5"/>
<text text-anchor="middle" x="42.5" y="-9.7" font-family="Source Sans Pro" font-size="16.00">filesystem</text>
</a>
</g>
</g>
<!-- Node1&#45;&gt;Node2 -->
<g id="edge1" class="edge">
<title>Node1&#45;&gt;Node2</title>
<path fill="none" stroke="midnightblue" d="M182.41,-63.41C149.75,-51.99 113.9,-39.46 86.67,-29.94"/>
<polygon fill="midnightblue" stroke="midnightblue" points="87.64,-26.57 77.05,-26.58 85.33,-33.18 87.64,-26.57"/>
</g>
<!-- Node3 -->
<g id="node3" class="node">
<title>Node3</title>
<g id="a_node3"><a xlink:title=" ">
<polygon fill="white" stroke="#bfbfbf" points="103.5,-0.5 103.5,-26.5 171.5,-26.5 171.5,-0.5 103.5,-0.5"/>
<text text-anchor="middle" x="137.5" y="-9.7" font-family="Source Sans Pro" font-size="16.00">fstream</text>
</a>
</g>
</g>
<!-- Node1&#45;&gt;Node3 -->
<g id="edge2" class="edge">
<title>Node1&#45;&gt;Node3</title>
<path fill="none" stroke="midnightblue" d="M218.6,-63.41C201,-52.79 181.8,-41.21 166.5,-31.99"/>
<polygon fill="midnightblue" stroke="midnightblue" points="167.9,-28.74 157.53,-26.58 164.28,-34.74 167.9,-28.74"/>
</g>
<!-- Node4 -->
<g id="node4" class="node">
<title>Node4</title>
<g id="a_node4"><a xlink:title=" ">
<polygon fill="white" stroke="#bfbfbf" points="189.5,-0.5 189.5,-26.5 265.5,-26.5 265.5,-0.5 189.5,-0.5"/>
<text text-anchor="middle" x="227.5" y="-9.7" font-family="Source Sans Pro" font-size="16.00">iostream</text>
</a>
</g>
</g>
<!-- Node1&#45;&gt;Node4 -->
<g id="edge3" class="edge">
<title>Node1&#45;&gt;Node4</title>
<path fill="none" stroke="midnightblue" d="M252.77,-63.18C248.03,-54.05 242.93,-44.22 238.56,-35.81"/>
<polygon fill="midnightblue" stroke="midnightblue" points="241.55,-33.97 233.83,-26.7 235.33,-37.19 241.55,-33.97"/>
</g>
<!-- Node5 -->
<g id="node5" class="node">
<title>Node5</title>
<g id="a_node5"><a xlink:title=" ">
<polygon fill="white" stroke="#bfbfbf" points="283.5,-0.5 283.5,-26.5 335.5,-26.5 335.5,-0.5 283.5,-0.5"/>
<text text-anchor="middle" x="309.5" y="-9.7" font-family="Source Sans Pro" font-size="16.00">regex</text>
</a>
</g>
</g>
<!-- Node1&#45;&gt;Node5 -->
<g id="edge4" class="edge">
<title>Node1&#45;&gt;Node5</title>
<path fill="none" stroke="midnightblue" d="M284.23,-63.18C288.97,-54.05 294.07,-44.22 298.44,-35.81"/>
<polygon fill="midnightblue" stroke="midnightblue" points="301.67,-37.19 303.17,-26.7 295.45,-33.97 301.67,-37.19"/>
</g>
<!-- Node6 -->
<g id="node6" class="node">
<title>Node6</title>
<g id="a_node6"><a xlink:title=" ">
<polygon fill="white" stroke="#bfbfbf" points="354,-0.5 354,-26.5 409,-26.5 409,-0.5 354,-0.5"/>
<text text-anchor="middle" x="381.5" y="-9.7" font-family="Source Sans Pro" font-size="16.00">string</text>
</a>
</g>
</g>
<!-- Node1&#45;&gt;Node6 -->
<g id="edge5" class="edge">
<title>Node1&#45;&gt;Node6</title>
<path fill="none" stroke="midnightblue" d="M311.54,-63.41C326.44,-52.99 342.67,-41.65 355.74,-32.51"/>
<polygon fill="midnightblue" stroke="midnightblue" points="358.03,-35.18 364.23,-26.58 354.02,-29.44 358.03,-35.18"/>
</g>
<!-- Node7 -->
<g id="node7" class="node">
<title>Node7</title>
<g id="a_node7"><a xlink:title=" ">
<polygon fill="white" stroke="#bfbfbf" points="427,-0.5 427,-26.5 486,-26.5 486,-0.5 427,-0.5"/>
<text text-anchor="middle" x="456.5" y="-9.7" font-family="Source Sans Pro" font-size="16.00">vector</text>
</a>
</g>
</g>
<!-- Node1&#45;&gt;Node7 -->
<g id="edge6" class="edge">
<title>Node1&#45;&gt;Node7</title>
<path fill="none" stroke="midnightblue" d="M340.11,-63.41C366.69,-52.24 395.8,-40.01 418.26,-30.57"/>
<polygon fill="midnightblue" stroke="midnightblue" points="419.9,-33.68 427.76,-26.58 417.18,-27.22 419.9,-33.68"/>
</g>
</g>
</svg>
