<?xml version="1.0" encoding="UTF-8" standalone="no"?>
<!DOCTYPE svg PUBLIC "-//W3C//DTD SVG 1.1//EN"
 "http://www.w3.org/Graphics/SVG/1.1/DTD/svg11.dtd">
<!-- Generated by graphviz version 2.43.0 (0)
 -->
<!-- Title: Illumination&#45;Engine/src/GraphicsModule/CommandBuffer/DependencyStructs/IECopyBufferToImageInfo.hpp Pages: 1 -->
<svg width="1319pt" height="359pt"
 viewBox="0.00 0.00 1319.00 359.00" xmlns="http://www.w3.org/2000/svg" xmlns:xlink="http://www.w3.org/1999/xlink">
<g id="graph0" class="graph" transform="scale(1 1) rotate(0) translate(4 355)">
<title>Illumination&#45;Engine/src/GraphicsModule/CommandBuffer/DependencyStructs/IECopyBufferToImageInfo.hpp</title>
<polygon fill="white" stroke="transparent" points="-4,4 -4,-355 1315,-355 1315,4 -4,4"/>
<!-- Node1 -->
<g id="node1" class="node">
<title>Node1</title>
<g id="a_node1"><a xlink:title=" ">
<polygon fill="#bfbfbf" stroke="black" points="0,-270.5 0,-350.5 272,-350.5 272,-270.5 0,-270.5"/>
<text text-anchor="start" x="8" y="-333.7" font-family="Source Sans Pro" font-size="16.00">Illumination&#45;Engine</text>
<text text-anchor="start" x="8" y="-315.7" font-family="Source Sans Pro" font-size="16.00">/src/GraphicsModule</text>
<text text-anchor="start" x="8" y="-297.7" font-family="Source Sans Pro" font-size="16.00">/CommandBuffer/DependencyStructs</text>
<text text-anchor="middle" x="136" y="-279.7" font-family="Source Sans Pro" font-size="16.00">/IECopyBufferToImageInfo.hpp</text>
</a>
</g>
</g>
<!-- Node2 -->
<g id="node2" class="node">
<title>Node2</title>
<g id="a_node2"><a xlink:href="_i_e_buffer_8hpp.html" target="_top" xlink:title=" ">
<polygon fill="white" stroke="black" points="149.5,-207.5 149.5,-233.5 296.5,-233.5 296.5,-207.5 149.5,-207.5"/>
<text text-anchor="middle" x="223" y="-216.7" font-family="Source Sans Pro" font-size="16.00">Buffer/IEBuffer.hpp</text>
</a>
</g>
</g>
<!-- Node1&#45;&gt;Node2 -->
<g id="edge1" class="edge">
<title>Node1&#45;&gt;Node2</title>
<path fill="none" stroke="midnightblue" d="M174.67,-270.39C184.67,-260.27 195.03,-249.8 203.57,-241.15"/>
<polygon fill="midnightblue" stroke="midnightblue" points="206.3,-243.37 210.85,-233.79 201.33,-238.44 206.3,-243.37"/>
</g>
<!-- Node4 -->
<g id="node4" class="node">
<title>Node4</title>
<g id="a_node4"><a xlink:title=" ">
<polygon fill="white" stroke="#bfbfbf" points="273,-63.5 273,-89.5 347,-89.5 347,-63.5 273,-63.5"/>
<text text-anchor="middle" x="310" y="-72.7" font-family="Source Sans Pro" font-size="16.00">memory</text>
</a>
</g>
</g>
<!-- Node1&#45;&gt;Node4 -->
<g id="edge30" class="edge">
<title>Node1&#45;&gt;Node4</title>
<path fill="none" stroke="midnightblue" d="M66.36,-270.5C54.1,-260.29 43.03,-248.12 36,-234 14.6,-191.03 5.16,-162.78 36,-126 64.34,-92.2 191.69,-81.94 262.36,-78.84"/>
<polygon fill="midnightblue" stroke="midnightblue" points="262.93,-82.32 272.77,-78.42 262.64,-75.32 262.93,-82.32"/>
</g>
<!-- Node7 -->
<g id="node7" class="node">
<title>Node7</title>
<g id="a_node7"><a xlink:title=" ">
<polygon fill="white" stroke="#bfbfbf" points="554.5,-63.5 554.5,-89.5 679.5,-89.5 679.5,-63.5 554.5,-63.5"/>
<text text-anchor="middle" x="617" y="-72.7" font-family="Source Sans Pro" font-size="16.00">vulkan/vulkan.h</text>
</a>
</g>
</g>
<!-- Node1&#45;&gt;Node7 -->
<g id="edge31" class="edge">
<title>Node1&#45;&gt;Node7</title>
<path fill="none" stroke="midnightblue" d="M121.24,-270.45C108.44,-229.16 96.93,-164.75 132,-126 145.64,-110.92 412.3,-91.14 544.27,-82.22"/>
<polygon fill="midnightblue" stroke="midnightblue" points="544.56,-85.71 554.31,-81.55 544.09,-78.73 544.56,-85.71"/>
</g>
<!-- Node14 -->
<g id="node14" class="node">
<title>Node14</title>
<g id="a_node14"><a xlink:href="_i_e_image_8hpp.html" target="_top" xlink:title=" ">
<polygon fill="white" stroke="black" points="816.5,-207.5 816.5,-233.5 965.5,-233.5 965.5,-207.5 816.5,-207.5"/>
<text text-anchor="middle" x="891" y="-216.7" font-family="Source Sans Pro" font-size="16.00">Image/IEImage.hpp</text>
</a>
</g>
</g>
<!-- Node1&#45;&gt;Node14 -->
<g id="edge19" class="edge">
<title>Node1&#45;&gt;Node14</title>
<path fill="none" stroke="midnightblue" d="M272.29,-293.61C427.47,-275.53 676.23,-246.53 806,-231.41"/>
<polygon fill="midnightblue" stroke="midnightblue" points="806.75,-234.84 816.28,-230.21 805.94,-227.89 806.75,-234.84"/>
</g>
<!-- Node3 -->
<g id="node3" class="node">
<title>Node3</title>
<g id="a_node3"><a xlink:href="_i_e_dependency_8hpp.html" target="_top" xlink:title=" ">
<polygon fill="white" stroke="black" points="617.5,-126.5 617.5,-170.5 862.5,-170.5 862.5,-126.5 617.5,-126.5"/>
<text text-anchor="start" x="625.5" y="-153.7" font-family="Source Sans Pro" font-size="16.00">GraphicsModule/CommandBuffer</text>
<text text-anchor="middle" x="740" y="-135.7" font-family="Source Sans Pro" font-size="16.00">/IEDependency.hpp</text>
</a>
</g>
</g>
<!-- Node2&#45;&gt;Node3 -->
<g id="edge2" class="edge">
<title>Node2&#45;&gt;Node3</title>
<path fill="none" stroke="midnightblue" d="M296.75,-211.07C372.31,-202.24 493.45,-187.57 607.36,-171.22"/>
<polygon fill="midnightblue" stroke="midnightblue" points="607.9,-174.67 617.3,-169.78 606.9,-167.75 607.9,-174.67"/>
</g>
<!-- Node6 -->
<g id="node6" class="node">
<title>Node6</title>
<g id="a_node6"><a xlink:title=" ">
<polygon fill="white" stroke="#bfbfbf" points="823.5,-0.5 823.5,-26.5 882.5,-26.5 882.5,-0.5 823.5,-0.5"/>
<text text-anchor="middle" x="853" y="-9.7" font-family="Source Sans Pro" font-size="16.00">vector</text>
</a>
</g>
</g>
<!-- Node2&#45;&gt;Node6 -->
<g id="edge18" class="edge">
<title>Node2&#45;&gt;Node6</title>
<path fill="none" stroke="midnightblue" d="M149.27,-213.62C121.02,-207.35 91.42,-194.99 74,-171 45.8,-132.16 41.13,-97.98 74,-63 99.54,-35.82 657.45,-19.52 813.04,-15.49"/>
<polygon fill="midnightblue" stroke="midnightblue" points="813.21,-18.98 823.11,-15.23 813.03,-11.99 813.21,-18.98"/>
</g>
<!-- Node2&#45;&gt;Node7 -->
<g id="edge15" class="edge">
<title>Node2&#45;&gt;Node7</title>
<path fill="none" stroke="midnightblue" d="M188.62,-207.33C172.31,-199.62 154.37,-187.87 145,-171 135.28,-153.52 131.6,-140.85 145,-126 158.18,-111.39 414.64,-91.57 543.87,-82.46"/>
<polygon fill="midnightblue" stroke="midnightblue" points="544.35,-85.93 554.08,-81.74 543.86,-78.95 544.35,-85.93"/>
</g>
<!-- Node8 -->
<g id="node8" class="node">
<title>Node8</title>
<g id="a_node8"><a xlink:href="_i_e_a_p_i_8hpp.html" target="_top" xlink:title=" ">
<polygon fill="white" stroke="black" points="957.5,-135.5 957.5,-161.5 1040.5,-161.5 1040.5,-135.5 957.5,-135.5"/>
<text text-anchor="middle" x="999" y="-144.7" font-family="Source Sans Pro" font-size="16.00">IEAPI.hpp</text>
</a>
</g>
</g>
<!-- Node2&#45;&gt;Node8 -->
<g id="edge7" class="edge">
<title>Node2&#45;&gt;Node8</title>
<path fill="none" stroke="midnightblue" d="M296.7,-216.23C417.31,-210.38 664.22,-196.3 872,-171 896.94,-167.96 924.46,-163.45 947.48,-159.34"/>
<polygon fill="midnightblue" stroke="midnightblue" points="948.17,-162.77 957.39,-157.55 946.92,-155.89 948.17,-162.77"/>
</g>
<!-- Node10 -->
<g id="node10" class="node">
<title>Node10</title>
<g id="a_node10"><a xlink:title=" ">
<polygon fill="white" stroke="#bfbfbf" points="954.5,-0.5 954.5,-26.5 1017.5,-26.5 1017.5,-0.5 954.5,-0.5"/>
<text text-anchor="middle" x="986" y="-9.7" font-family="Source Sans Pro" font-size="16.00">cstdint</text>
</a>
</g>
</g>
<!-- Node2&#45;&gt;Node10 -->
<g id="edge16" class="edge">
<title>Node2&#45;&gt;Node10</title>
<path fill="none" stroke="midnightblue" d="M179.76,-207.44C161.7,-200.03 142.5,-188.5 132,-171 121.71,-153.85 121.33,-142.92 132,-126 166.68,-71.02 201.04,-79.16 264,-63 534.79,6.51 613.68,-53.44 892,-27 909.07,-25.38 927.82,-23.01 944.05,-20.76"/>
<polygon fill="midnightblue" stroke="midnightblue" points="944.89,-24.18 954.3,-19.32 943.91,-17.25 944.89,-24.18"/>
</g>
<!-- Node11 -->
<g id="node11" class="node">
<title>Node11</title>
<g id="a_node11"><a xlink:title=" ">
<polygon fill="white" stroke="#bfbfbf" points="414.5,-135.5 414.5,-161.5 599.5,-161.5 599.5,-135.5 414.5,-135.5"/>
<text text-anchor="middle" x="507" y="-144.7" font-family="Source Sans Pro" font-size="16.00">include/vk_mem_alloc.h</text>
</a>
</g>
</g>
<!-- Node2&#45;&gt;Node11 -->
<g id="edge13" class="edge">
<title>Node2&#45;&gt;Node11</title>
<path fill="none" stroke="midnightblue" d="M271.82,-207.47C320.69,-195.42 395.92,-176.88 448.08,-164.02"/>
<polygon fill="midnightblue" stroke="midnightblue" points="448.99,-167.4 457.87,-161.61 447.32,-160.61 448.99,-167.4"/>
</g>
<!-- Node12 -->
<g id="node12" class="node">
<title>Node12</title>
<g id="a_node12"><a xlink:title=" ">
<polygon fill="white" stroke="#bfbfbf" points="154,-135.5 154,-161.5 292,-161.5 292,-135.5 154,-135.5"/>
<text text-anchor="middle" x="223" y="-144.7" font-family="Source Sans Pro" font-size="16.00">include/GL/glew.h</text>
</a>
</g>
</g>
<!-- Node2&#45;&gt;Node12 -->
<g id="edge14" class="edge">
<title>Node2&#45;&gt;Node12</title>
<path fill="none" stroke="midnightblue" d="M223,-207.31C223,-197.47 223,-183.38 223,-171.57"/>
<polygon fill="midnightblue" stroke="midnightblue" points="226.5,-171.55 223,-161.55 219.5,-171.55 226.5,-171.55"/>
</g>
<!-- Node13 -->
<g id="node13" class="node">
<title>Node13</title>
<g id="a_node13"><a xlink:title=" ">
<polygon fill="white" stroke="#bfbfbf" points="310,-135.5 310,-161.5 396,-161.5 396,-135.5 310,-135.5"/>
<text text-anchor="middle" x="353" y="-144.7" font-family="Source Sans Pro" font-size="16.00">functional</text>
</a>
</g>
</g>
<!-- Node2&#45;&gt;Node13 -->
<g id="edge17" class="edge">
<title>Node2&#45;&gt;Node13</title>
<path fill="none" stroke="midnightblue" d="M245.35,-207.47C266.37,-196.15 298.05,-179.09 321.6,-166.41"/>
<polygon fill="midnightblue" stroke="midnightblue" points="323.36,-169.43 330.51,-161.61 320.04,-163.27 323.36,-169.43"/>
</g>
<!-- Node3&#45;&gt;Node4 -->
<g id="edge3" class="edge">
<title>Node3&#45;&gt;Node4</title>
<path fill="none" stroke="midnightblue" d="M617.28,-127.35C614.49,-126.9 611.73,-126.45 609,-126 520.13,-111.5 416.39,-94.7 357.42,-85.16"/>
<polygon fill="midnightblue" stroke="midnightblue" points="357.73,-81.67 347.29,-83.53 356.61,-88.58 357.73,-81.67"/>
</g>
<!-- Node5 -->
<g id="node5" class="node">
<title>Node5</title>
<g id="a_node5"><a xlink:title=" ">
<polygon fill="white" stroke="#bfbfbf" points="1098.5,-0.5 1098.5,-26.5 1153.5,-26.5 1153.5,-0.5 1098.5,-0.5"/>
<text text-anchor="middle" x="1126" y="-9.7" font-family="Source Sans Pro" font-size="16.00">string</text>
</a>
</g>
</g>
<!-- Node3&#45;&gt;Node5 -->
<g id="edge4" class="edge">
<title>Node3&#45;&gt;Node5</title>
<path fill="none" stroke="midnightblue" d="M862.79,-132.25C934.73,-121.87 1017.64,-106.96 1050,-90 1075.11,-76.84 1097.26,-52.58 1111.08,-35.11"/>
<polygon fill="midnightblue" stroke="midnightblue" points="1114.22,-36.76 1117.51,-26.69 1108.66,-32.51 1114.22,-36.76"/>
</g>
<!-- Node3&#45;&gt;Node6 -->
<g id="edge5" class="edge">
<title>Node3&#45;&gt;Node6</title>
<path fill="none" stroke="midnightblue" d="M757.91,-126.43C779.38,-101.16 815.09,-59.12 836.1,-34.39"/>
<polygon fill="midnightblue" stroke="midnightblue" points="838.81,-36.6 842.62,-26.71 833.48,-32.07 838.81,-36.6"/>
</g>
<!-- Node3&#45;&gt;Node7 -->
<g id="edge6" class="edge">
<title>Node3&#45;&gt;Node7</title>
<path fill="none" stroke="midnightblue" d="M703.1,-126.5C685.18,-116.3 663.94,-104.21 647.04,-94.59"/>
<polygon fill="midnightblue" stroke="midnightblue" points="648.56,-91.44 638.14,-89.53 645.1,-97.52 648.56,-91.44"/>
</g>
<!-- Node8&#45;&gt;Node5 -->
<g id="edge12" class="edge">
<title>Node8&#45;&gt;Node5</title>
<path fill="none" stroke="midnightblue" d="M1040.67,-139.3C1068.28,-131.54 1102.67,-116.89 1121,-90 1131.52,-74.57 1131.9,-52.99 1130.15,-36.85"/>
<polygon fill="midnightblue" stroke="midnightblue" points="1133.58,-36.09 1128.7,-26.69 1126.65,-37.08 1133.58,-36.09"/>
</g>
<!-- Node9 -->
<g id="node9" class="node">
<title>Node9</title>
<g id="a_node9"><a xlink:href="_i_e_version_8hpp.html" target="_top" xlink:title=" ">
<polygon fill="white" stroke="black" points="931,-63.5 931,-89.5 1041,-89.5 1041,-63.5 931,-63.5"/>
<text text-anchor="middle" x="986" y="-72.7" font-family="Source Sans Pro" font-size="16.00">IEVersion.hpp</text>
</a>
</g>
</g>
<!-- Node8&#45;&gt;Node9 -->
<g id="edge8" class="edge">
<title>Node8&#45;&gt;Node9</title>
<path fill="none" stroke="midnightblue" d="M996.74,-135.31C994.91,-125.47 992.29,-111.38 990.1,-99.57"/>
<polygon fill="midnightblue" stroke="midnightblue" points="993.51,-98.75 988.24,-89.55 986.62,-100.02 993.51,-98.75"/>
</g>
<!-- Node9&#45;&gt;Node5 -->
<g id="edge10" class="edge">
<title>Node9&#45;&gt;Node5</title>
<path fill="none" stroke="midnightblue" d="M1013.66,-63.45C1035.23,-54.05 1065.4,-40.91 1089.04,-30.61"/>
<polygon fill="midnightblue" stroke="midnightblue" points="1090.63,-33.73 1098.4,-26.53 1087.83,-27.31 1090.63,-33.73"/>
</g>
<!-- Node9&#45;&gt;Node6 -->
<g id="edge11" class="edge">
<title>Node9&#45;&gt;Node6</title>
<path fill="none" stroke="midnightblue" d="M959.72,-63.45C939.32,-54.09 910.83,-41.02 888.41,-30.74"/>
<polygon fill="midnightblue" stroke="midnightblue" points="889.77,-27.51 879.22,-26.53 886.85,-33.88 889.77,-27.51"/>
</g>
<!-- Node9&#45;&gt;Node10 -->
<g id="edge9" class="edge">
<title>Node9&#45;&gt;Node10</title>
<path fill="none" stroke="midnightblue" d="M986,-63.45C986,-55.85 986,-45.79 986,-36.78"/>
<polygon fill="midnightblue" stroke="midnightblue" points="989.5,-36.53 986,-26.53 982.5,-36.53 989.5,-36.53"/>
</g>
<!-- Node14&#45;&gt;Node3 -->
<g id="edge20" class="edge">
<title>Node14&#45;&gt;Node3</title>
<path fill="none" stroke="midnightblue" d="M865.04,-207.47C845.76,-198.53 818.76,-186.01 794.79,-174.9"/>
<polygon fill="midnightblue" stroke="midnightblue" points="795.97,-171.59 785.42,-170.56 793.02,-177.94 795.97,-171.59"/>
</g>
<!-- Node14&#45;&gt;Node5 -->
<g id="edge28" class="edge">
<title>Node14&#45;&gt;Node5</title>
<path fill="none" stroke="midnightblue" d="M965.73,-210.41C1000.44,-203.58 1041,-191.68 1073,-171 1112,-145.79 1123.43,-133.75 1139,-90 1145.23,-72.49 1140.79,-51.6 1135.46,-36.23"/>
<polygon fill="midnightblue" stroke="midnightblue" points="1138.61,-34.67 1131.76,-26.59 1132.08,-37.18 1138.61,-34.67"/>
</g>
<!-- Node14&#45;&gt;Node6 -->
<g id="edge29" class="edge">
<title>Node14&#45;&gt;Node6</title>
<path fill="none" stroke="midnightblue" d="M892.3,-207.16C893.26,-197.37 894.49,-183.32 895,-171 895.82,-151.02 898.58,-145.68 895,-126 889.05,-93.35 874.07,-57.83 863.7,-35.87"/>
<polygon fill="midnightblue" stroke="midnightblue" points="866.82,-34.27 859.32,-26.78 860.52,-37.31 866.82,-34.27"/>
</g>
<!-- Node14&#45;&gt;Node7 -->
<g id="edge25" class="edge">
<title>Node14&#45;&gt;Node7</title>
<path fill="none" stroke="midnightblue" d="M892.43,-207.21C894.02,-187.2 893.92,-147.65 872,-126 846.69,-101 755.59,-88.39 689.49,-82.4"/>
<polygon fill="midnightblue" stroke="midnightblue" points="689.79,-78.91 679.52,-81.52 689.18,-85.88 689.79,-78.91"/>
</g>
<!-- Node14&#45;&gt;Node8 -->
<g id="edge21" class="edge">
<title>Node14&#45;&gt;Node8</title>
<path fill="none" stroke="midnightblue" d="M909.81,-207.31C927,-196.17 952.62,-179.56 971.99,-167"/>
<polygon fill="midnightblue" stroke="midnightblue" points="973.92,-169.93 980.4,-161.55 970.11,-164.06 973.92,-169.93"/>
</g>
<!-- Node14&#45;&gt;Node10 -->
<g id="edge26" class="edge">
<title>Node14&#45;&gt;Node10</title>
<path fill="none" stroke="midnightblue" d="M965.83,-215.62C997.05,-209.84 1030.51,-197.32 1050,-171 1078.56,-132.42 1071.36,-105.99 1050,-63 1043.62,-50.17 1032.05,-39.82 1020.48,-32.03"/>
<polygon fill="midnightblue" stroke="midnightblue" points="1022.06,-28.89 1011.72,-26.57 1018.35,-34.83 1022.06,-28.89"/>
</g>
<!-- Node14&#45;&gt;Node11 -->
<g id="edge23" class="edge">
<title>Node14&#45;&gt;Node11</title>
<path fill="none" stroke="midnightblue" d="M816.64,-207.49C759.7,-198.11 679.26,-184.44 609,-171 597.13,-168.73 584.51,-166.18 572.33,-163.65"/>
<polygon fill="midnightblue" stroke="midnightblue" points="572.75,-160.16 562.24,-161.54 571.31,-167.01 572.75,-160.16"/>
</g>
<!-- Node14&#45;&gt;Node12 -->
<g id="edge22" class="edge">
<title>Node14&#45;&gt;Node12</title>
<path fill="none" stroke="midnightblue" d="M816.38,-217.83C703.87,-214.3 484.42,-203.52 301,-171 291.15,-169.25 280.73,-166.81 270.84,-164.2"/>
<polygon fill="midnightblue" stroke="midnightblue" points="271.73,-160.81 261.16,-161.55 269.88,-167.57 271.73,-160.81"/>
</g>
<!-- Node14&#45;&gt;Node13 -->
<g id="edge27" class="edge">
<title>Node14&#45;&gt;Node13</title>
<path fill="none" stroke="midnightblue" d="M816.34,-218.61C720.14,-215.97 548.32,-206.21 406,-171 400.07,-169.53 393.93,-167.53 388.03,-165.33"/>
<polygon fill="midnightblue" stroke="midnightblue" points="388.97,-161.94 378.39,-161.51 386.39,-168.45 388.97,-161.94"/>
</g>
<!-- Node15 -->
<g id="node15" class="node">
<title>Node15</title>
<g id="a_node15"><a xlink:title=" ">
<polygon fill="white" stroke="#bfbfbf" points="1211,-135.5 1211,-161.5 1311,-161.5 1311,-135.5 1211,-135.5"/>
<text text-anchor="middle" x="1261" y="-144.7" font-family="Source Sans Pro" font-size="16.00">stb_image.h</text>
</a>
</g>
</g>
<!-- Node14&#45;&gt;Node15 -->
<g id="edge24" class="edge">
<title>Node14&#45;&gt;Node15</title>
<path fill="none" stroke="midnightblue" d="M965.58,-211.21C1027.97,-203.44 1119.03,-190.13 1197,-171 1204.2,-169.23 1211.75,-167.03 1219.04,-164.71"/>
<polygon fill="midnightblue" stroke="midnightblue" points="1220.35,-167.96 1228.75,-161.5 1218.16,-161.31 1220.35,-167.96"/>
</g>
</g>
</svg>
