<?xml version="1.0" encoding="UTF-8" standalone="no"?>
<!DOCTYPE svg PUBLIC "-//W3C//DTD SVG 1.1//EN"
 "http://www.w3.org/Graphics/SVG/1.1/DTD/svg11.dtd">
<!-- Generated by graphviz version 2.43.0 (0)
 -->
<!-- Title: Illumination&#45;Engine/src/GraphicsModule/Shader/IEDescriptorSet.hpp Pages: 1 -->
<svg width="690pt" height="215pt"
 viewBox="0.00 0.00 689.50 215.00" xmlns="http://www.w3.org/2000/svg" xmlns:xlink="http://www.w3.org/1999/xlink">
<g id="graph0" class="graph" transform="scale(1 1) rotate(0) translate(4 211)">
<title>Illumination&#45;Engine/src/GraphicsModule/Shader/IEDescriptorSet.hpp</title>
<polygon fill="white" stroke="transparent" points="-4,4 -4,-211 685.5,-211 685.5,4 -4,4"/>
<!-- Node1 -->
<g id="node1" class="node">
<title>Node1</title>
<g id="a_node1"><a xlink:title=" ">
<polygon fill="#bfbfbf" stroke="black" points="267,-144.5 267,-206.5 476,-206.5 476,-144.5 267,-144.5"/>
<text text-anchor="start" x="275" y="-189.7" font-family="Source Sans Pro" font-size="16.00">Illumination&#45;Engine</text>
<text text-anchor="start" x="275" y="-171.7" font-family="Source Sans Pro" font-size="16.00">/src/GraphicsModule</text>
<text text-anchor="middle" x="371.5" y="-153.7" font-family="Source Sans Pro" font-size="16.00">/Shader/IEDescriptorSet.hpp</text>
</a>
</g>
</g>
<!-- Node2 -->
<g id="node2" class="node">
<title>Node2</title>
<g id="a_node2"><a xlink:href="_i_e_dependency_8hpp.html" target="_top" xlink:title=" ">
<polygon fill="white" stroke="black" points="0,-63.5 0,-107.5 245,-107.5 245,-63.5 0,-63.5"/>
<text text-anchor="start" x="8" y="-90.7" font-family="Source Sans Pro" font-size="16.00">GraphicsModule/CommandBuffer</text>
<text text-anchor="middle" x="122.5" y="-72.7" font-family="Source Sans Pro" font-size="16.00">/IEDependency.hpp</text>
</a>
</g>
</g>
<!-- Node1&#45;&gt;Node2 -->
<g id="edge1" class="edge">
<title>Node1&#45;&gt;Node2</title>
<path fill="none" stroke="midnightblue" d="M286.5,-144.46C255.62,-133.55 221.12,-121.35 191.76,-110.98"/>
<polygon fill="midnightblue" stroke="midnightblue" points="192.6,-107.56 182.01,-107.53 190.27,-114.16 192.6,-107.56"/>
</g>
<!-- Node5 -->
<g id="node5" class="node">
<title>Node5</title>
<g id="a_node5"><a xlink:title=" ">
<polygon fill="white" stroke="#bfbfbf" points="171,-0.5 171,-26.5 230,-26.5 230,-0.5 171,-0.5"/>
<text text-anchor="middle" x="200.5" y="-9.7" font-family="Source Sans Pro" font-size="16.00">vector</text>
</a>
</g>
</g>
<!-- Node1&#45;&gt;Node5 -->
<g id="edge11" class="edge">
<title>Node1&#45;&gt;Node5</title>
<path fill="none" stroke="midnightblue" d="M339.58,-144.07C315.91,-121.58 282.81,-90.25 253.5,-63 243.08,-53.31 231.43,-42.63 221.7,-33.76"/>
<polygon fill="midnightblue" stroke="midnightblue" points="223.81,-30.95 214.06,-26.8 219.1,-36.12 223.81,-30.95"/>
</g>
<!-- Node6 -->
<g id="node6" class="node">
<title>Node6</title>
<g id="a_node6"><a xlink:title=" ">
<polygon fill="white" stroke="#bfbfbf" points="249,-0.5 249,-26.5 374,-26.5 374,-0.5 249,-0.5"/>
<text text-anchor="middle" x="311.5" y="-9.7" font-family="Source Sans Pro" font-size="16.00">vulkan/vulkan.h</text>
</a>
</g>
</g>
<!-- Node1&#45;&gt;Node6 -->
<g id="edge6" class="edge">
<title>Node1&#45;&gt;Node6</title>
<path fill="none" stroke="midnightblue" d="M350.56,-144.47C343.63,-133.42 336.45,-120.53 331.5,-108 322.23,-84.53 316.92,-55.97 314.13,-36.63"/>
<polygon fill="midnightblue" stroke="midnightblue" points="317.59,-36.13 312.8,-26.68 310.66,-37.05 317.59,-36.13"/>
</g>
<!-- Node7 -->
<g id="node7" class="node">
<title>Node7</title>
<g id="a_node7"><a xlink:title=" ">
<polygon fill="white" stroke="#bfbfbf" points="340,-72.5 340,-98.5 403,-98.5 403,-72.5 340,-72.5"/>
<text text-anchor="middle" x="371.5" y="-81.7" font-family="Source Sans Pro" font-size="16.00">cstdint</text>
</a>
</g>
</g>
<!-- Node1&#45;&gt;Node7 -->
<g id="edge7" class="edge">
<title>Node1&#45;&gt;Node7</title>
<path fill="none" stroke="midnightblue" d="M371.5,-144.22C371.5,-132.7 371.5,-119.8 371.5,-109.12"/>
<polygon fill="midnightblue" stroke="midnightblue" points="375,-108.94 371.5,-98.94 368,-108.94 375,-108.94"/>
</g>
<!-- Node8 -->
<g id="node8" class="node">
<title>Node8</title>
<g id="a_node8"><a xlink:title=" ">
<polygon fill="white" stroke="#bfbfbf" points="421.5,-72.5 421.5,-98.5 507.5,-98.5 507.5,-72.5 421.5,-72.5"/>
<text text-anchor="middle" x="464.5" y="-81.7" font-family="Source Sans Pro" font-size="16.00">functional</text>
</a>
</g>
</g>
<!-- Node1&#45;&gt;Node8 -->
<g id="edge8" class="edge">
<title>Node1&#45;&gt;Node8</title>
<path fill="none" stroke="midnightblue" d="M403.25,-144.46C416.89,-131.55 432.41,-116.86 444.42,-105.5"/>
<polygon fill="midnightblue" stroke="midnightblue" points="446.9,-107.98 451.75,-98.56 442.08,-102.89 446.9,-107.98"/>
</g>
<!-- Node9 -->
<g id="node9" class="node">
<title>Node9</title>
<g id="a_node9"><a xlink:title=" ">
<polygon fill="white" stroke="#bfbfbf" points="526,-72.5 526,-98.5 599,-98.5 599,-72.5 526,-72.5"/>
<text text-anchor="middle" x="562.5" y="-81.7" font-family="Source Sans Pro" font-size="16.00">optional</text>
</a>
</g>
</g>
<!-- Node1&#45;&gt;Node9 -->
<g id="edge9" class="edge">
<title>Node1&#45;&gt;Node9</title>
<path fill="none" stroke="midnightblue" d="M437.23,-144.48C462.09,-133.09 490.61,-119.99 516.5,-108 520.09,-106.34 523.83,-104.6 527.56,-102.86"/>
<polygon fill="midnightblue" stroke="midnightblue" points="529.14,-105.99 536.73,-98.59 526.18,-99.64 529.14,-105.99"/>
</g>
<!-- Node10 -->
<g id="node10" class="node">
<title>Node10</title>
<g id="a_node10"><a xlink:title=" ">
<polygon fill="white" stroke="#bfbfbf" points="617.5,-72.5 617.5,-98.5 681.5,-98.5 681.5,-72.5 617.5,-72.5"/>
<text text-anchor="middle" x="649.5" y="-81.7" font-family="Source Sans Pro" font-size="16.00">variant</text>
</a>
</g>
</g>
<!-- Node1&#45;&gt;Node10 -->
<g id="edge10" class="edge">
<title>Node1&#45;&gt;Node10</title>
<path fill="none" stroke="midnightblue" d="M476.01,-150.23C517.86,-139.21 566.11,-124.85 608.5,-108 612.18,-106.54 615.95,-104.85 619.66,-103.06"/>
<polygon fill="midnightblue" stroke="midnightblue" points="621.28,-106.17 628.62,-98.53 618.12,-99.92 621.28,-106.17"/>
</g>
<!-- Node3 -->
<g id="node3" class="node">
<title>Node3</title>
<g id="a_node3"><a xlink:title=" ">
<polygon fill="white" stroke="#bfbfbf" points="3.5,-0.5 3.5,-26.5 77.5,-26.5 77.5,-0.5 3.5,-0.5"/>
<text text-anchor="middle" x="40.5" y="-9.7" font-family="Source Sans Pro" font-size="16.00">memory</text>
</a>
</g>
</g>
<!-- Node2&#45;&gt;Node3 -->
<g id="edge2" class="edge">
<title>Node2&#45;&gt;Node3</title>
<path fill="none" stroke="midnightblue" d="M97.9,-63.5C86.62,-53.87 73.36,-42.55 62.43,-33.22"/>
<polygon fill="midnightblue" stroke="midnightblue" points="64.47,-30.36 54.59,-26.53 59.93,-35.69 64.47,-30.36"/>
</g>
<!-- Node4 -->
<g id="node4" class="node">
<title>Node4</title>
<g id="a_node4"><a xlink:title=" ">
<polygon fill="white" stroke="#bfbfbf" points="96,-0.5 96,-26.5 151,-26.5 151,-0.5 96,-0.5"/>
<text text-anchor="middle" x="123.5" y="-9.7" font-family="Source Sans Pro" font-size="16.00">string</text>
</a>
</g>
</g>
<!-- Node2&#45;&gt;Node4 -->
<g id="edge3" class="edge">
<title>Node2&#45;&gt;Node4</title>
<path fill="none" stroke="midnightblue" d="M122.8,-63.5C122.92,-55 123.06,-45.19 123.18,-36.59"/>
<polygon fill="midnightblue" stroke="midnightblue" points="126.68,-36.58 123.33,-26.53 119.69,-36.48 126.68,-36.58"/>
</g>
<!-- Node2&#45;&gt;Node5 -->
<g id="edge4" class="edge">
<title>Node2&#45;&gt;Node5</title>
<path fill="none" stroke="midnightblue" d="M145.9,-63.5C156.63,-53.87 169.24,-42.55 179.64,-33.22"/>
<polygon fill="midnightblue" stroke="midnightblue" points="181.99,-35.81 187.09,-26.53 177.31,-30.61 181.99,-35.81"/>
</g>
<!-- Node2&#45;&gt;Node6 -->
<g id="edge5" class="edge">
<title>Node2&#45;&gt;Node6</title>
<path fill="none" stroke="midnightblue" d="M179.21,-63.5C208.26,-52.74 243.02,-39.86 269.61,-30.01"/>
<polygon fill="midnightblue" stroke="midnightblue" points="270.85,-33.29 279.02,-26.53 268.42,-26.72 270.85,-33.29"/>
</g>
</g>
</svg>
