<?xml version="1.0" encoding="UTF-8" standalone="no"?>
<!DOCTYPE svg PUBLIC "-//W3C//DTD SVG 1.1//EN"
 "http://www.w3.org/Graphics/SVG/1.1/DTD/svg11.dtd">
<!-- Generated by graphviz version 2.43.0 (0)
 -->
<!-- Title: Illumination&#45;Engine/src/GraphicsModule/RenderPass/IEFramebuffer.hpp Pages: 1 -->
<svg width="3583pt" height="602pt"
 viewBox="0.00 0.00 3583.00 602.00" xmlns="http://www.w3.org/2000/svg" xmlns:xlink="http://www.w3.org/1999/xlink">
<g id="graph0" class="graph" transform="scale(1 1) rotate(0) translate(4 598)">
<title>Illumination&#45;Engine/src/GraphicsModule/RenderPass/IEFramebuffer.hpp</title>
<polygon fill="white" stroke="transparent" points="-4,4 -4,-598 3579,-598 3579,4 -4,4"/>
<!-- Node1 -->
<g id="node1" class="node">
<title>Node1</title>
<g id="a_node1"><a xlink:title=" ">
<polygon fill="#bfbfbf" stroke="black" points="2881.5,-531.5 2881.5,-593.5 3113.5,-593.5 3113.5,-531.5 2881.5,-531.5"/>
<text text-anchor="start" x="2889.5" y="-576.7" font-family="Source Sans Pro" font-size="16.00">Illumination&#45;Engine</text>
<text text-anchor="start" x="2889.5" y="-558.7" font-family="Source Sans Pro" font-size="16.00">/src/GraphicsModule</text>
<text text-anchor="middle" x="2997.5" y="-540.7" font-family="Source Sans Pro" font-size="16.00">/RenderPass/IEFramebuffer.hpp</text>
</a>
</g>
</g>
<!-- Node2 -->
<g id="node2" class="node">
<title>Node2</title>
<g id="a_node2"><a xlink:href="_i_e_render_pass_begin_info_8hpp.html" target="_top" xlink:title=" ">
<polygon fill="white" stroke="black" points="2379.5,-414.5 2379.5,-494.5 2651.5,-494.5 2651.5,-414.5 2379.5,-414.5"/>
<text text-anchor="start" x="2387.5" y="-477.7" font-family="Source Sans Pro" font-size="16.00">Illumination&#45;Engine</text>
<text text-anchor="start" x="2387.5" y="-459.7" font-family="Source Sans Pro" font-size="16.00">/src/GraphicsModule</text>
<text text-anchor="start" x="2387.5" y="-441.7" font-family="Source Sans Pro" font-size="16.00">/CommandBuffer/DependencyStructs</text>
<text text-anchor="middle" x="2515.5" y="-423.7" font-family="Source Sans Pro" font-size="16.00">/IERenderPassBeginInfo.hpp</text>
</a>
</g>
</g>
<!-- Node1&#45;&gt;Node2 -->
<g id="edge1" class="edge">
<title>Node1&#45;&gt;Node2</title>
<path fill="none" stroke="midnightblue" d="M2871.28,-538.06C2809.12,-526.05 2733.18,-510.67 2665.5,-495 2660.91,-493.94 2656.24,-492.83 2651.54,-491.7"/>
<polygon fill="midnightblue" stroke="midnightblue" points="2870.65,-541.5 2881.13,-539.96 2871.97,-534.63 2870.65,-541.5"/>
</g>
<!-- Node8 -->
<g id="node8" class="node">
<title>Node8</title>
<g id="a_node8"><a xlink:href="_i_e_render_engine_8hpp.html" target="_top" xlink:title=" ">
<polygon fill="white" stroke="black" points="2041,-108.5 2041,-170.5 2202,-170.5 2202,-108.5 2041,-108.5"/>
<text text-anchor="start" x="2049" y="-153.7" font-family="Source Sans Pro" font-size="16.00">Illumination&#45;Engine</text>
<text text-anchor="start" x="2049" y="-135.7" font-family="Source Sans Pro" font-size="16.00">/src/GraphicsModule</text>
<text text-anchor="middle" x="2121.5" y="-117.7" font-family="Source Sans Pro" font-size="16.00">/IERenderEngine.hpp</text>
</a>
</g>
</g>
<!-- Node1&#45;&gt;Node8 -->
<g id="edge32" class="edge">
<title>Node1&#45;&gt;Node8</title>
<path fill="none" stroke="midnightblue" d="M2925.6,-526.94C2757.71,-446.26 2342.18,-246.56 2184,-170.54"/>
<polygon fill="midnightblue" stroke="midnightblue" points="2924.32,-530.21 2934.85,-531.39 2927.35,-523.91 2924.32,-530.21"/>
</g>
<!-- Node15 -->
<g id="node15" class="node">
<title>Node15</title>
<g id="a_node15"><a xlink:href="_i_e_framebuffer_8cpp.html" target="_top" xlink:title=" ">
<polygon fill="white" stroke="black" points="3099.5,-0.5 3099.5,-62.5 3329.5,-62.5 3329.5,-0.5 3099.5,-0.5"/>
<text text-anchor="start" x="3107.5" y="-45.7" font-family="Source Sans Pro" font-size="16.00">Illumination&#45;Engine</text>
<text text-anchor="start" x="3107.5" y="-27.7" font-family="Source Sans Pro" font-size="16.00">/src/GraphicsModule</text>
<text text-anchor="middle" x="3214.5" y="-9.7" font-family="Source Sans Pro" font-size="16.00">/RenderPass/IEFramebuffer.cpp</text>
</a>
</g>
</g>
<!-- Node1&#45;&gt;Node15 -->
<g id="edge33" class="edge">
<title>Node1&#45;&gt;Node15</title>
<path fill="none" stroke="midnightblue" d="M3015.26,-522.02C3032.63,-479.74 3056.5,-410.25 3056.5,-347.5 3056.5,-347.5 3056.5,-347.5 3056.5,-246.5 3056.5,-180.08 3041.06,-152.44 3080.5,-99 3091.68,-83.85 3107.27,-71.95 3123.89,-62.67"/>
<polygon fill="midnightblue" stroke="midnightblue" points="3011.97,-520.81 3011.33,-531.39 3018.43,-523.52 3011.97,-520.81"/>
</g>
<!-- Node16 -->
<g id="node16" class="node">
<title>Node16</title>
<g id="a_node16"><a xlink:href="_i_e_render_pass_8cpp.html" target="_top" xlink:title=" ">
<polygon fill="white" stroke="black" points="3348,-0.5 3348,-62.5 3575,-62.5 3575,-0.5 3348,-0.5"/>
<text text-anchor="start" x="3356" y="-45.7" font-family="Source Sans Pro" font-size="16.00">Illumination&#45;Engine</text>
<text text-anchor="start" x="3356" y="-27.7" font-family="Source Sans Pro" font-size="16.00">/src/GraphicsModule</text>
<text text-anchor="middle" x="3461.5" y="-9.7" font-family="Source Sans Pro" font-size="16.00">/RenderPass/IERenderPass.cpp</text>
</a>
</g>
</g>
<!-- Node1&#45;&gt;Node16 -->
<g id="edge34" class="edge">
<title>Node1&#45;&gt;Node16</title>
<path fill="none" stroke="midnightblue" d="M3031.82,-523.51C3038.7,-514.59 3045.37,-504.82 3050.5,-495 3082.18,-434.36 3094.5,-415.91 3094.5,-347.5 3094.5,-347.5 3094.5,-347.5 3094.5,-246.5 3094.5,-181.32 3269.45,-104.13 3377.76,-62.59"/>
<polygon fill="midnightblue" stroke="midnightblue" points="3029,-521.43 3025.49,-531.43 3034.47,-525.8 3029,-521.43"/>
</g>
<!-- Node24 -->
<g id="node24" class="node">
<title>Node24</title>
<g id="a_node24"><a xlink:href="_i_e_render_pass_8hpp.html" target="_top" xlink:title=" ">
<polygon fill="white" stroke="black" points="2707.5,-216.5 2707.5,-278.5 2935.5,-278.5 2935.5,-216.5 2707.5,-216.5"/>
<text text-anchor="start" x="2715.5" y="-261.7" font-family="Source Sans Pro" font-size="16.00">Illumination&#45;Engine</text>
<text text-anchor="start" x="2715.5" y="-243.7" font-family="Source Sans Pro" font-size="16.00">/src/GraphicsModule</text>
<text text-anchor="middle" x="2821.5" y="-225.7" font-family="Source Sans Pro" font-size="16.00">/RenderPass/IERenderPass.hpp</text>
</a>
</g>
</g>
<!-- Node1&#45;&gt;Node24 -->
<g id="edge35" class="edge">
<title>Node1&#45;&gt;Node24</title>
<path fill="none" stroke="midnightblue" d="M2975.64,-522.63C2940.15,-459.51 2870.73,-336.04 2838.58,-278.88"/>
<polygon fill="midnightblue" stroke="midnightblue" points="2972.67,-524.49 2980.62,-531.49 2978.77,-521.06 2972.67,-524.49"/>
</g>
<!-- Node26 -->
<g id="node26" class="node">
<title>Node26</title>
<g id="a_node26"><a xlink:href="_i_e_dependent_8cpp.html" target="_top" xlink:title=" ">
<polygon fill="white" stroke="black" points="3123,-423.5 3123,-485.5 3380,-485.5 3380,-423.5 3123,-423.5"/>
<text text-anchor="start" x="3131" y="-468.7" font-family="Source Sans Pro" font-size="16.00">Illumination&#45;Engine</text>
<text text-anchor="start" x="3131" y="-450.7" font-family="Source Sans Pro" font-size="16.00">/src/GraphicsModule</text>
<text text-anchor="middle" x="3251.5" y="-432.7" font-family="Source Sans Pro" font-size="16.00">/CommandBuffer/IEDependent.cpp</text>
</a>
</g>
</g>
<!-- Node1&#45;&gt;Node26 -->
<g id="edge31" class="edge">
<title>Node1&#45;&gt;Node26</title>
<path fill="none" stroke="midnightblue" d="M3079.01,-527.48C3111.23,-514.04 3147.96,-498.71 3179.21,-485.67"/>
<polygon fill="midnightblue" stroke="midnightblue" points="3077.49,-524.33 3069.61,-531.41 3080.18,-530.79 3077.49,-524.33"/>
</g>
<!-- Node3 -->
<g id="node3" class="node">
<title>Node3</title>
<g id="a_node3"><a xlink:href="_i_e_render_pass_begin_info_8cpp.html" target="_top" xlink:title=" ">
<polygon fill="white" stroke="black" points="2387.5,-99.5 2387.5,-179.5 2659.5,-179.5 2659.5,-99.5 2387.5,-99.5"/>
<text text-anchor="start" x="2395.5" y="-162.7" font-family="Source Sans Pro" font-size="16.00">Illumination&#45;Engine</text>
<text text-anchor="start" x="2395.5" y="-144.7" font-family="Source Sans Pro" font-size="16.00">/src/GraphicsModule</text>
<text text-anchor="start" x="2395.5" y="-126.7" font-family="Source Sans Pro" font-size="16.00">/CommandBuffer/DependencyStructs</text>
<text text-anchor="middle" x="2523.5" y="-108.7" font-family="Source Sans Pro" font-size="16.00">/IERenderPassBeginInfo.cpp</text>
</a>
</g>
</g>
<!-- Node2&#45;&gt;Node3 -->
<g id="edge2" class="edge">
<title>Node2&#45;&gt;Node3</title>
<path fill="none" stroke="midnightblue" d="M2516.76,-404.15C2518.35,-341.97 2521.05,-236.36 2522.5,-179.51"/>
<polygon fill="midnightblue" stroke="midnightblue" points="2513.25,-404.4 2516.5,-414.49 2520.25,-404.58 2513.25,-404.4"/>
</g>
<!-- Node4 -->
<g id="node4" class="node">
<title>Node4</title>
<g id="a_node4"><a xlink:href="_i_e_command_buffer_8hpp.html" target="_top" xlink:title=" ">
<polygon fill="white" stroke="black" points="2087,-315.5 2087,-377.5 2382,-377.5 2382,-315.5 2087,-315.5"/>
<text text-anchor="start" x="2095" y="-360.7" font-family="Source Sans Pro" font-size="16.00">Illumination&#45;Engine</text>
<text text-anchor="start" x="2095" y="-342.7" font-family="Source Sans Pro" font-size="16.00">/src/GraphicsModule</text>
<text text-anchor="middle" x="2234.5" y="-324.7" font-family="Source Sans Pro" font-size="16.00">/CommandBuffer/IECommandBuffer.hpp</text>
</a>
</g>
</g>
<!-- Node2&#45;&gt;Node4 -->
<g id="edge3" class="edge">
<title>Node2&#45;&gt;Node4</title>
<path fill="none" stroke="midnightblue" d="M2402.55,-410.89C2373.03,-399.76 2341.82,-387.98 2314.42,-377.65"/>
<polygon fill="midnightblue" stroke="midnightblue" points="2401.47,-414.23 2412.06,-414.48 2403.94,-407.68 2401.47,-414.23"/>
</g>
<!-- Node5 -->
<g id="node5" class="node">
<title>Node5</title>
<g id="a_node5"><a xlink:href="_i_e_command_buffer_8cpp.html" target="_top" xlink:title=" ">
<polygon fill="white" stroke="black" points="0,-0.5 0,-62.5 293,-62.5 293,-0.5 0,-0.5"/>
<text text-anchor="start" x="8" y="-45.7" font-family="Source Sans Pro" font-size="16.00">Illumination&#45;Engine</text>
<text text-anchor="start" x="8" y="-27.7" font-family="Source Sans Pro" font-size="16.00">/src/GraphicsModule</text>
<text text-anchor="middle" x="146.5" y="-9.7" font-family="Source Sans Pro" font-size="16.00">/CommandBuffer/IECommandBuffer.cpp</text>
</a>
</g>
</g>
<!-- Node4&#45;&gt;Node5 -->
<g id="edge4" class="edge">
<title>Node4&#45;&gt;Node5</title>
<path fill="none" stroke="midnightblue" d="M2076.7,-325.44C1746.51,-282.81 958.96,-177.66 302.5,-63 299.37,-62.45 296.21,-61.9 293.03,-61.33"/>
<polygon fill="midnightblue" stroke="midnightblue" points="2076.45,-328.94 2086.81,-326.75 2077.34,-322 2076.45,-328.94"/>
</g>
<!-- Node6 -->
<g id="node6" class="node">
<title>Node6</title>
<g id="a_node6"><a xlink:href="_i_e_command_pool_8hpp.html" target="_top" xlink:title=" ">
<polygon fill="white" stroke="black" points="1979,-216.5 1979,-278.5 2264,-278.5 2264,-216.5 1979,-216.5"/>
<text text-anchor="start" x="1987" y="-261.7" font-family="Source Sans Pro" font-size="16.00">Illumination&#45;Engine</text>
<text text-anchor="start" x="1987" y="-243.7" font-family="Source Sans Pro" font-size="16.00">/src/GraphicsModule</text>
<text text-anchor="middle" x="2121.5" y="-225.7" font-family="Source Sans Pro" font-size="16.00">/CommandBuffer/IECommandPool.hpp</text>
</a>
</g>
</g>
<!-- Node4&#45;&gt;Node6 -->
<g id="edge5" class="edge">
<title>Node4&#45;&gt;Node6</title>
<path fill="none" stroke="midnightblue" d="M2191.53,-308.62C2180,-298.72 2167.67,-288.13 2156.61,-278.64"/>
<polygon fill="midnightblue" stroke="midnightblue" points="2189.5,-311.48 2199.37,-315.34 2194.06,-306.17 2189.5,-311.48"/>
</g>
<!-- Node4&#45;&gt;Node24 -->
<g id="edge25" class="edge">
<title>Node4&#45;&gt;Node24</title>
<path fill="none" stroke="midnightblue" d="M2392.38,-319.41C2491.63,-303.01 2617.4,-282.23 2707.07,-267.41"/>
<polygon fill="midnightblue" stroke="midnightblue" points="2391.54,-316 2382.25,-321.09 2392.68,-322.91 2391.54,-316"/>
</g>
<!-- Node7 -->
<g id="node7" class="node">
<title>Node7</title>
<g id="a_node7"><a xlink:href="_i_e_command_pool_8cpp.html" target="_top" xlink:title=" ">
<polygon fill="white" stroke="black" points="311.5,-0.5 311.5,-62.5 595.5,-62.5 595.5,-0.5 311.5,-0.5"/>
<text text-anchor="start" x="319.5" y="-45.7" font-family="Source Sans Pro" font-size="16.00">Illumination&#45;Engine</text>
<text text-anchor="start" x="319.5" y="-27.7" font-family="Source Sans Pro" font-size="16.00">/src/GraphicsModule</text>
<text text-anchor="middle" x="453.5" y="-9.7" font-family="Source Sans Pro" font-size="16.00">/CommandBuffer/IECommandPool.cpp</text>
</a>
</g>
</g>
<!-- Node6&#45;&gt;Node7 -->
<g id="edge6" class="edge">
<title>Node6&#45;&gt;Node7</title>
<path fill="none" stroke="midnightblue" d="M1968.85,-222.31C1763.36,-190.41 1386.14,-134.23 1062.5,-99 859.52,-76.91 806.72,-91.26 604.5,-63 601.59,-62.59 598.64,-62.16 595.68,-61.72"/>
<polygon fill="midnightblue" stroke="midnightblue" points="1968.39,-225.78 1978.81,-223.86 1969.47,-218.86 1968.39,-225.78"/>
</g>
<!-- Node6&#45;&gt;Node8 -->
<g id="edge7" class="edge">
<title>Node6&#45;&gt;Node8</title>
<path fill="none" stroke="midnightblue" d="M2121.5,-206.31C2121.5,-194.48 2121.5,-181.75 2121.5,-170.67"/>
<polygon fill="midnightblue" stroke="midnightblue" points="2118,-206.41 2121.5,-216.41 2125,-206.41 2118,-206.41"/>
</g>
<!-- Node8&#45;&gt;Node5 -->
<g id="edge9" class="edge">
<title>Node8&#45;&gt;Node5</title>
<path fill="none" stroke="midnightblue" d="M2030.98,-135.12C1675.33,-121.81 389,-73.19 302.5,-63 299.49,-62.64 296.44,-62.26 293.38,-61.86"/>
<polygon fill="midnightblue" stroke="midnightblue" points="2030.85,-138.62 2040.98,-135.5 2031.12,-131.63 2030.85,-138.62"/>
</g>
<!-- Node8&#45;&gt;Node7 -->
<g id="edge10" class="edge">
<title>Node8&#45;&gt;Node7</title>
<path fill="none" stroke="midnightblue" d="M2040.26,-105.41C2031.67,-102.84 2022.98,-100.63 2014.5,-99 1706.68,-39.93 915.96,-98.16 604.5,-63 601.58,-62.67 598.63,-62.31 595.66,-61.93"/>
<polygon fill="midnightblue" stroke="midnightblue" points="2039.31,-108.78 2049.9,-108.43 2041.4,-102.1 2039.31,-108.78"/>
</g>
<!-- Node9 -->
<g id="node9" class="node">
<title>Node9</title>
<g id="a_node9"><a xlink:href="_i_e_buffer_8cpp.html" target="_top" xlink:title=" ">
<polygon fill="white" stroke="black" points="2043,-0.5 2043,-62.5 2200,-62.5 2200,-0.5 2043,-0.5"/>
<text text-anchor="start" x="2051" y="-45.7" font-family="Source Sans Pro" font-size="16.00">Illumination&#45;Engine</text>
<text text-anchor="start" x="2051" y="-27.7" font-family="Source Sans Pro" font-size="16.00">/src/GraphicsModule</text>
<text text-anchor="middle" x="2121.5" y="-9.7" font-family="Source Sans Pro" font-size="16.00">/Buffer/IEBuffer.cpp</text>
</a>
</g>
</g>
<!-- Node8&#45;&gt;Node9 -->
<g id="edge8" class="edge">
<title>Node8&#45;&gt;Node9</title>
<path fill="none" stroke="midnightblue" d="M2121.5,-98.31C2121.5,-86.48 2121.5,-73.75 2121.5,-62.67"/>
<polygon fill="midnightblue" stroke="midnightblue" points="2118,-98.41 2121.5,-108.41 2125,-98.41 2118,-98.41"/>
</g>
<!-- Node10 -->
<g id="node10" class="node">
<title>Node10</title>
<g id="a_node10"><a xlink:href="_i_e_a_p_i_8cpp.html" target="_top" xlink:title=" ">
<polygon fill="white" stroke="black" points="2218,-0.5 2218,-62.5 2375,-62.5 2375,-0.5 2218,-0.5"/>
<text text-anchor="start" x="2226" y="-45.7" font-family="Source Sans Pro" font-size="16.00">Illumination&#45;Engine</text>
<text text-anchor="start" x="2226" y="-27.7" font-family="Source Sans Pro" font-size="16.00">/src/GraphicsModule</text>
<text text-anchor="middle" x="2296.5" y="-9.7" font-family="Source Sans Pro" font-size="16.00">/IEAPI.cpp</text>
</a>
</g>
</g>
<!-- Node8&#45;&gt;Node10 -->
<g id="edge11" class="edge">
<title>Node8&#45;&gt;Node10</title>
<path fill="none" stroke="midnightblue" d="M2179.95,-103.09C2201.59,-89.99 2225.9,-75.26 2246.7,-62.67"/>
<polygon fill="midnightblue" stroke="midnightblue" points="2177.92,-100.23 2171.18,-108.41 2181.55,-106.22 2177.92,-100.23"/>
</g>
<!-- Node11 -->
<g id="node11" class="node">
<title>Node11</title>
<g id="a_node11"><a xlink:href="_i_e_camera_8cpp.html" target="_top" xlink:title=" ">
<polygon fill="white" stroke="black" points="2393,-0.5 2393,-62.5 2550,-62.5 2550,-0.5 2393,-0.5"/>
<text text-anchor="start" x="2401" y="-45.7" font-family="Source Sans Pro" font-size="16.00">Illumination&#45;Engine</text>
<text text-anchor="start" x="2401" y="-27.7" font-family="Source Sans Pro" font-size="16.00">/src/GraphicsModule</text>
<text text-anchor="middle" x="2471.5" y="-9.7" font-family="Source Sans Pro" font-size="16.00">/IECamera.cpp</text>
</a>
</g>
</g>
<!-- Node8&#45;&gt;Node11 -->
<g id="edge12" class="edge">
<title>Node8&#45;&gt;Node11</title>
<path fill="none" stroke="midnightblue" d="M2212.04,-113.69C2262.67,-99.49 2326.82,-80.98 2383.5,-63 2386.58,-62.02 2389.72,-61.01 2392.89,-59.98"/>
<polygon fill="midnightblue" stroke="midnightblue" points="2210.79,-110.4 2202.1,-116.47 2212.67,-117.14 2210.79,-110.4"/>
</g>
<!-- Node12 -->
<g id="node12" class="node">
<title>Node12</title>
<g id="a_node12"><a xlink:href="_i_e_render_engine_8cpp.html" target="_top" xlink:title=" ">
<polygon fill="white" stroke="black" points="2568,-0.5 2568,-62.5 2727,-62.5 2727,-0.5 2568,-0.5"/>
<text text-anchor="start" x="2576" y="-45.7" font-family="Source Sans Pro" font-size="16.00">Illumination&#45;Engine</text>
<text text-anchor="start" x="2576" y="-27.7" font-family="Source Sans Pro" font-size="16.00">/src/GraphicsModule</text>
<text text-anchor="middle" x="2647.5" y="-9.7" font-family="Source Sans Pro" font-size="16.00">/IERenderEngine.cpp</text>
</a>
</g>
</g>
<!-- Node8&#45;&gt;Node12 -->
<g id="edge13" class="edge">
<title>Node8&#45;&gt;Node12</title>
<path fill="none" stroke="midnightblue" d="M2212.19,-124.57C2320.36,-107.66 2494.58,-79.36 2558.5,-63 2561.51,-62.23 2564.56,-61.41 2567.63,-60.54"/>
<polygon fill="midnightblue" stroke="midnightblue" points="2211.6,-121.12 2202.26,-126.12 2212.68,-128.04 2211.6,-121.12"/>
</g>
<!-- Node13 -->
<g id="node13" class="node">
<title>Node13</title>
<g id="a_node13"><a xlink:href="_i_e_image_8cpp.html" target="_top" xlink:title=" ">
<polygon fill="white" stroke="black" points="2745,-0.5 2745,-62.5 2902,-62.5 2902,-0.5 2745,-0.5"/>
<text text-anchor="start" x="2753" y="-45.7" font-family="Source Sans Pro" font-size="16.00">Illumination&#45;Engine</text>
<text text-anchor="start" x="2753" y="-27.7" font-family="Source Sans Pro" font-size="16.00">/src/GraphicsModule</text>
<text text-anchor="middle" x="2823.5" y="-9.7" font-family="Source Sans Pro" font-size="16.00">/Image/IEImage.cpp</text>
</a>
</g>
</g>
<!-- Node8&#45;&gt;Node13 -->
<g id="edge14" class="edge">
<title>Node8&#45;&gt;Node13</title>
<path fill="none" stroke="midnightblue" d="M2212.06,-123.4C2261.21,-115.51 2323.09,-106.05 2378.5,-99 2536.7,-78.88 2579.77,-97.34 2735.5,-63 2738.5,-62.34 2741.54,-61.61 2744.6,-60.82"/>
<polygon fill="midnightblue" stroke="midnightblue" points="2211.4,-119.97 2202.09,-125.01 2212.52,-126.88 2211.4,-119.97"/>
</g>
<!-- Node14 -->
<g id="node14" class="node">
<title>Node14</title>
<g id="a_node14"><a xlink:href="_i_e_texture_8cpp.html" target="_top" xlink:title=" ">
<polygon fill="white" stroke="black" points="2920,-0.5 2920,-62.5 3081,-62.5 3081,-0.5 2920,-0.5"/>
<text text-anchor="start" x="2928" y="-45.7" font-family="Source Sans Pro" font-size="16.00">Illumination&#45;Engine</text>
<text text-anchor="start" x="2928" y="-27.7" font-family="Source Sans Pro" font-size="16.00">/src/GraphicsModule</text>
<text text-anchor="middle" x="3000.5" y="-9.7" font-family="Source Sans Pro" font-size="16.00">/Image/IETexture.cpp</text>
</a>
</g>
</g>
<!-- Node8&#45;&gt;Node14 -->
<g id="edge15" class="edge">
<title>Node8&#45;&gt;Node14</title>
<path fill="none" stroke="midnightblue" d="M2211.97,-122.67C2261.1,-114.56 2322.99,-105.13 2378.5,-99 2614.05,-72.98 2678.11,-109.42 2910.5,-63 2913.57,-62.39 2916.69,-61.7 2919.82,-60.94"/>
<polygon fill="midnightblue" stroke="midnightblue" points="2211.3,-119.24 2202,-124.33 2212.44,-126.14 2211.3,-119.24"/>
</g>
<!-- Node8&#45;&gt;Node15 -->
<g id="edge16" class="edge">
<title>Node8&#45;&gt;Node15</title>
<path fill="none" stroke="midnightblue" d="M2212.21,-122.25C2261.28,-114.04 2323.04,-104.65 2378.5,-99 2693.72,-66.89 2777.02,-109.05 3090.5,-63 3093.46,-62.57 3096.45,-62.09 3099.47,-61.58"/>
<polygon fill="midnightblue" stroke="midnightblue" points="2211.53,-118.81 2202.25,-123.93 2212.7,-125.71 2211.53,-118.81"/>
</g>
<!-- Node8&#45;&gt;Node16 -->
<g id="edge17" class="edge">
<title>Node8&#45;&gt;Node16</title>
<path fill="none" stroke="midnightblue" d="M2212.18,-121.96C2261.25,-113.67 2323,-104.29 2378.5,-99 2803.54,-58.5 2915.73,-122.7 3338.5,-63 3341.55,-62.57 3344.63,-62.09 3347.74,-61.58"/>
<polygon fill="midnightblue" stroke="midnightblue" points="2211.5,-118.52 2202.23,-123.65 2212.67,-125.42 2211.5,-118.52"/>
</g>
<!-- Node17 -->
<g id="node17" class="node">
<title>Node17</title>
<g id="a_node17"><a xlink:href="_i_e_material_8cpp.html" target="_top" xlink:title=" ">
<polygon fill="white" stroke="black" points="614,-0.5 614,-62.5 815,-62.5 815,-0.5 614,-0.5"/>
<text text-anchor="start" x="622" y="-45.7" font-family="Source Sans Pro" font-size="16.00">Illumination&#45;Engine</text>
<text text-anchor="start" x="622" y="-27.7" font-family="Source Sans Pro" font-size="16.00">/src/GraphicsModule</text>
<text text-anchor="middle" x="714.5" y="-9.7" font-family="Source Sans Pro" font-size="16.00">/Renderable/IEMaterial.cpp</text>
</a>
</g>
</g>
<!-- Node8&#45;&gt;Node17 -->
<g id="edge18" class="edge">
<title>Node8&#45;&gt;Node17</title>
<path fill="none" stroke="midnightblue" d="M2040.25,-105.45C2031.66,-102.88 2022.97,-100.65 2014.5,-99 1754.57,-48.49 1085.25,-102.97 823.5,-63 820.78,-62.58 818.03,-62.12 815.27,-61.62"/>
<polygon fill="midnightblue" stroke="midnightblue" points="2039.3,-108.82 2049.89,-108.48 2041.4,-102.14 2039.3,-108.82"/>
</g>
<!-- Node18 -->
<g id="node18" class="node">
<title>Node18</title>
<g id="a_node18"><a xlink:href="_i_e_mesh_8cpp.html" target="_top" xlink:title=" ">
<polygon fill="white" stroke="black" points="833,-0.5 833,-62.5 1016,-62.5 1016,-0.5 833,-0.5"/>
<text text-anchor="start" x="841" y="-45.7" font-family="Source Sans Pro" font-size="16.00">Illumination&#45;Engine</text>
<text text-anchor="start" x="841" y="-27.7" font-family="Source Sans Pro" font-size="16.00">/src/GraphicsModule</text>
<text text-anchor="middle" x="924.5" y="-9.7" font-family="Source Sans Pro" font-size="16.00">/Renderable/IEMesh.cpp</text>
</a>
</g>
</g>
<!-- Node8&#45;&gt;Node18 -->
<g id="edge19" class="edge">
<title>Node8&#45;&gt;Node18</title>
<path fill="none" stroke="midnightblue" d="M2040.03,-105.44C2031.51,-102.88 2022.9,-100.66 2014.5,-99 1582.55,-13.69 1458.72,-135.84 1024.5,-63 1021.73,-62.53 1018.92,-62.01 1016.1,-61.45"/>
<polygon fill="midnightblue" stroke="midnightblue" points="2038.99,-108.78 2049.58,-108.44 2041.1,-102.1 2038.99,-108.78"/>
</g>
<!-- Node19 -->
<g id="node19" class="node">
<title>Node19</title>
<g id="a_node19"><a xlink:href="_i_e_renderable_8cpp.html" target="_top" xlink:title=" ">
<polygon fill="white" stroke="black" points="1034,-0.5 1034,-62.5 1259,-62.5 1259,-0.5 1034,-0.5"/>
<text text-anchor="start" x="1042" y="-45.7" font-family="Source Sans Pro" font-size="16.00">Illumination&#45;Engine</text>
<text text-anchor="start" x="1042" y="-27.7" font-family="Source Sans Pro" font-size="16.00">/src/GraphicsModule</text>
<text text-anchor="middle" x="1146.5" y="-9.7" font-family="Source Sans Pro" font-size="16.00">/Renderable/IERenderable.cpp</text>
</a>
</g>
</g>
<!-- Node8&#45;&gt;Node19 -->
<g id="edge20" class="edge">
<title>Node8&#45;&gt;Node19</title>
<path fill="none" stroke="midnightblue" d="M2039.52,-105.39C2031.17,-102.88 2022.73,-100.68 2014.5,-99 1688.8,-32.67 1596.27,-111.86 1267.5,-63 1264.71,-62.59 1261.9,-62.14 1259.07,-61.65"/>
<polygon fill="midnightblue" stroke="midnightblue" points="2038.68,-108.8 2049.27,-108.47 2040.79,-102.12 2038.68,-108.8"/>
</g>
<!-- Node20 -->
<g id="node20" class="node">
<title>Node20</title>
<g id="a_node20"><a xlink:href="_i_e_descriptor_set_8cpp.html" target="_top" xlink:title=" ">
<polygon fill="white" stroke="black" points="1277,-0.5 1277,-62.5 1484,-62.5 1484,-0.5 1277,-0.5"/>
<text text-anchor="start" x="1285" y="-45.7" font-family="Source Sans Pro" font-size="16.00">Illumination&#45;Engine</text>
<text text-anchor="start" x="1285" y="-27.7" font-family="Source Sans Pro" font-size="16.00">/src/GraphicsModule</text>
<text text-anchor="middle" x="1380.5" y="-9.7" font-family="Source Sans Pro" font-size="16.00">/Shader/IEDescriptorSet.cpp</text>
</a>
</g>
</g>
<!-- Node8&#45;&gt;Node20 -->
<g id="edge21" class="edge">
<title>Node8&#45;&gt;Node20</title>
<path fill="none" stroke="midnightblue" d="M2039.06,-105.44C2030.85,-102.95 2022.57,-100.73 2014.5,-99 1787.56,-50.32 1722.41,-101.42 1493.5,-63 1490.39,-62.48 1487.25,-61.91 1484.08,-61.3"/>
<polygon fill="midnightblue" stroke="midnightblue" points="2038.05,-108.79 2048.64,-108.49 2040.17,-102.12 2038.05,-108.79"/>
</g>
<!-- Node21 -->
<g id="node21" class="node">
<title>Node21</title>
<g id="a_node21"><a xlink:href="_i_e_pipeline_8cpp.html" target="_top" xlink:title=" ">
<polygon fill="white" stroke="black" points="1502.5,-0.5 1502.5,-62.5 1674.5,-62.5 1674.5,-0.5 1502.5,-0.5"/>
<text text-anchor="start" x="1510.5" y="-45.7" font-family="Source Sans Pro" font-size="16.00">Illumination&#45;Engine</text>
<text text-anchor="start" x="1510.5" y="-27.7" font-family="Source Sans Pro" font-size="16.00">/src/GraphicsModule</text>
<text text-anchor="middle" x="1588.5" y="-9.7" font-family="Source Sans Pro" font-size="16.00">/Shader/IEPipeline.cpp</text>
</a>
</g>
</g>
<!-- Node8&#45;&gt;Node21 -->
<g id="edge22" class="edge">
<title>Node8&#45;&gt;Node21</title>
<path fill="none" stroke="midnightblue" d="M2037.62,-105.35C2029.88,-102.96 2022.09,-100.79 2014.5,-99 1870.45,-65.12 1828.24,-93.77 1683.5,-63 1680.53,-62.37 1677.53,-61.68 1674.51,-60.95"/>
<polygon fill="midnightblue" stroke="midnightblue" points="2036.79,-108.76 2047.39,-108.49 2038.94,-102.1 2036.79,-108.76"/>
</g>
<!-- Node22 -->
<g id="node22" class="node">
<title>Node22</title>
<g id="a_node22"><a xlink:href="_i_e_shader_8cpp.html" target="_top" xlink:title=" ">
<polygon fill="white" stroke="black" points="1692.5,-0.5 1692.5,-62.5 1856.5,-62.5 1856.5,-0.5 1692.5,-0.5"/>
<text text-anchor="start" x="1700.5" y="-45.7" font-family="Source Sans Pro" font-size="16.00">Illumination&#45;Engine</text>
<text text-anchor="start" x="1700.5" y="-27.7" font-family="Source Sans Pro" font-size="16.00">/src/GraphicsModule</text>
<text text-anchor="middle" x="1774.5" y="-9.7" font-family="Source Sans Pro" font-size="16.00">/Shader/IEShader.cpp</text>
</a>
</g>
</g>
<!-- Node8&#45;&gt;Node22 -->
<g id="edge23" class="edge">
<title>Node8&#45;&gt;Node22</title>
<path fill="none" stroke="midnightblue" d="M2033.76,-105.18C2027.27,-103 2020.8,-100.92 2014.5,-99 1949.32,-79.17 1930.97,-81.84 1865.5,-63 1862.62,-62.17 1859.69,-61.31 1856.74,-60.42"/>
<polygon fill="midnightblue" stroke="midnightblue" points="2032.66,-108.51 2043.26,-108.43 2034.93,-101.88 2032.66,-108.51"/>
</g>
<!-- Node23 -->
<g id="node23" class="node">
<title>Node23</title>
<g id="a_node23"><a xlink:href="main_8cpp.html" target="_top" xlink:title=" ">
<polygon fill="white" stroke="black" points="1874.5,-9.5 1874.5,-53.5 2024.5,-53.5 2024.5,-9.5 1874.5,-9.5"/>
<text text-anchor="start" x="1882.5" y="-36.7" font-family="Source Sans Pro" font-size="16.00">Illumination&#45;Engine</text>
<text text-anchor="middle" x="1949.5" y="-18.7" font-family="Source Sans Pro" font-size="16.00">/src/main.cpp</text>
</a>
</g>
</g>
<!-- Node8&#45;&gt;Node23 -->
<g id="edge24" class="edge">
<title>Node8&#45;&gt;Node23</title>
<path fill="none" stroke="midnightblue" d="M2063.83,-102.96C2037.24,-86.57 2006.58,-67.68 1983.71,-53.58"/>
<polygon fill="midnightblue" stroke="midnightblue" points="2062.32,-106.14 2072.67,-108.41 2065.99,-100.18 2062.32,-106.14"/>
</g>
<!-- Node24&#45;&gt;Node3 -->
<g id="edge26" class="edge">
<title>Node24&#45;&gt;Node3</title>
<path fill="none" stroke="midnightblue" d="M2727.34,-213.01C2697.5,-202.39 2664.25,-190.56 2633.4,-179.59"/>
<polygon fill="midnightblue" stroke="midnightblue" points="2726.31,-216.35 2736.9,-216.41 2728.65,-209.76 2726.31,-216.35"/>
</g>
<!-- Node24&#45;&gt;Node8 -->
<g id="edge28" class="edge">
<title>Node24&#45;&gt;Node8</title>
<path fill="none" stroke="midnightblue" d="M2697.31,-216.68C2696.04,-216.45 2694.77,-216.22 2693.5,-216 2554.71,-191.63 2518.16,-198.71 2378.5,-180 2319.33,-172.07 2252.71,-161.8 2202.12,-153.71"/>
<polygon fill="midnightblue" stroke="midnightblue" points="2696.72,-220.13 2707.19,-218.54 2698.02,-213.25 2696.72,-220.13"/>
</g>
<!-- Node24&#45;&gt;Node15 -->
<g id="edge29" class="edge">
<title>Node24&#45;&gt;Node15</title>
<path fill="none" stroke="midnightblue" d="M2916.39,-211.69C2932.64,-202.98 2948.46,-192.48 2961.5,-180 2990.96,-151.83 2973.19,-125.09 3004.5,-99 3020.14,-85.96 3059.12,-72.26 3099.3,-60.71"/>
<polygon fill="midnightblue" stroke="midnightblue" points="2914.63,-208.66 2907.33,-216.34 2917.83,-214.88 2914.63,-208.66"/>
</g>
<!-- Node24&#45;&gt;Node16 -->
<g id="edge30" class="edge">
<title>Node24&#45;&gt;Node16</title>
<path fill="none" stroke="midnightblue" d="M2931.15,-212.64C2953.58,-203.59 2976.45,-192.72 2996.5,-180 3040.3,-152.22 3033.87,-121.7 3080.5,-99 3184.6,-48.34 3224.82,-84.96 3338.5,-63 3341.52,-62.42 3344.59,-61.8 3347.67,-61.17"/>
<polygon fill="midnightblue" stroke="midnightblue" points="2929.6,-209.49 2921.57,-216.41 2932.16,-216.01 2929.6,-209.49"/>
</g>
<!-- Node25 -->
<g id="node25" class="node">
<title>Node25</title>
<g id="a_node25"><a xlink:href="_i_e_dependency_8cpp.html" target="_top" xlink:title=" ">
<polygon fill="white" stroke="black" points="2686.5,-108.5 2686.5,-170.5 2952.5,-170.5 2952.5,-108.5 2686.5,-108.5"/>
<text text-anchor="start" x="2694.5" y="-153.7" font-family="Source Sans Pro" font-size="16.00">Illumination&#45;Engine</text>
<text text-anchor="start" x="2694.5" y="-135.7" font-family="Source Sans Pro" font-size="16.00">/src/GraphicsModule</text>
<text text-anchor="middle" x="2819.5" y="-117.7" font-family="Source Sans Pro" font-size="16.00">/CommandBuffer/IEDependency.cpp</text>
</a>
</g>
</g>
<!-- Node24&#45;&gt;Node25 -->
<g id="edge27" class="edge">
<title>Node24&#45;&gt;Node25</title>
<path fill="none" stroke="midnightblue" d="M2820.74,-206.31C2820.52,-194.48 2820.28,-181.75 2820.07,-170.67"/>
<polygon fill="midnightblue" stroke="midnightblue" points="2817.24,-206.48 2820.93,-216.41 2824.24,-206.34 2817.24,-206.48"/>
</g>
</g>
</svg>
