<?xml version="1.0" encoding="UTF-8" standalone="no"?>
<!DOCTYPE svg PUBLIC "-//W3C//DTD SVG 1.1//EN"
 "http://www.w3.org/Graphics/SVG/1.1/DTD/svg11.dtd">
<!-- Generated by graphviz version 2.43.0 (0)
 -->
<!-- Title: Illumination&#45;Engine/src/GraphicsModule/Image/IENDimensionalResizableImage.cpp Pages: 1 -->
<svg width="338pt" height="215pt"
 viewBox="0.00 0.00 337.50 215.00" xmlns="http://www.w3.org/2000/svg" xmlns:xlink="http://www.w3.org/1999/xlink">
<g id="graph0" class="graph" transform="scale(1 1) rotate(0) translate(4 211)">
<title>Illumination&#45;Engine/src/GraphicsModule/Image/IENDimensionalResizableImage.cpp</title>
<polygon fill="white" stroke="transparent" points="-4,4 -4,-211 333.5,-211 333.5,4 -4,4"/>
<!-- Node1 -->
<g id="node1" class="node">
<title>Node1</title>
<g id="a_node1"><a xlink:title=" ">
<polygon fill="#bfbfbf" stroke="black" points="31,-126.5 31,-206.5 272,-206.5 272,-126.5 31,-126.5"/>
<text text-anchor="start" x="39" y="-189.7" font-family="Source Sans Pro" font-size="16.00">Illumination&#45;Engine</text>
<text text-anchor="start" x="39" y="-171.7" font-family="Source Sans Pro" font-size="16.00">/src/GraphicsModule</text>
<text text-anchor="start" x="39" y="-153.7" font-family="Source Sans Pro" font-size="16.00">/Image/IENDimensionalResizable</text>
<text text-anchor="middle" x="151.5" y="-135.7" font-family="Source Sans Pro" font-size="16.00">Image.cpp</text>
</a>
</g>
</g>
<!-- Node2 -->
<g id="node2" class="node">
<title>Node2</title>
<g id="a_node2"><a xlink:href="_i_e_n_dimensional_resizable_image_8hpp.html" target="_top" xlink:title=" ">
<polygon fill="white" stroke="black" points="21,-63.5 21,-89.5 282,-89.5 282,-63.5 21,-63.5"/>
<text text-anchor="middle" x="151.5" y="-72.7" font-family="Source Sans Pro" font-size="16.00">IENDimensionalResizableImage.hpp</text>
</a>
</g>
</g>
<!-- Node1&#45;&gt;Node2 -->
<g id="edge1" class="edge">
<title>Node1&#45;&gt;Node2</title>
<path fill="none" stroke="midnightblue" d="M151.5,-126.39C151.5,-117.3 151.5,-107.93 151.5,-99.85"/>
<polygon fill="midnightblue" stroke="midnightblue" points="155,-99.79 151.5,-89.79 148,-99.79 155,-99.79"/>
</g>
<!-- Node3 -->
<g id="node3" class="node">
<title>Node3</title>
<g id="a_node3"><a xlink:title=" ">
<polygon fill="white" stroke="#bfbfbf" points="0,-0.5 0,-26.5 59,-26.5 59,-0.5 0,-0.5"/>
<text text-anchor="middle" x="29.5" y="-9.7" font-family="Source Sans Pro" font-size="16.00">vector</text>
</a>
</g>
</g>
<!-- Node2&#45;&gt;Node3 -->
<g id="edge2" class="edge">
<title>Node2&#45;&gt;Node3</title>
<path fill="none" stroke="midnightblue" d="M127.4,-63.45C108.85,-54.17 83.01,-41.26 62.54,-31.02"/>
<polygon fill="midnightblue" stroke="midnightblue" points="64.06,-27.87 53.55,-26.53 60.93,-34.13 64.06,-27.87"/>
</g>
<!-- Node4 -->
<g id="node4" class="node">
<title>Node4</title>
<g id="a_node4"><a xlink:title=" ">
<polygon fill="white" stroke="#bfbfbf" points="77,-0.5 77,-26.5 140,-26.5 140,-0.5 77,-0.5"/>
<text text-anchor="middle" x="108.5" y="-9.7" font-family="Source Sans Pro" font-size="16.00">cstdint</text>
</a>
</g>
</g>
<!-- Node2&#45;&gt;Node4 -->
<g id="edge3" class="edge">
<title>Node2&#45;&gt;Node4</title>
<path fill="none" stroke="midnightblue" d="M143,-63.45C137.23,-55.26 129.46,-44.23 122.75,-34.72"/>
<polygon fill="midnightblue" stroke="midnightblue" points="125.6,-32.68 116.98,-26.53 119.88,-36.72 125.6,-32.68"/>
</g>
<!-- Node5 -->
<g id="node5" class="node">
<title>Node5</title>
<g id="a_node5"><a xlink:title=" ">
<polygon fill="white" stroke="#bfbfbf" points="158,-0.5 158,-26.5 231,-26.5 231,-0.5 158,-0.5"/>
<text text-anchor="middle" x="194.5" y="-9.7" font-family="Source Sans Pro" font-size="16.00">typeinfo</text>
</a>
</g>
</g>
<!-- Node2&#45;&gt;Node5 -->
<g id="edge4" class="edge">
<title>Node2&#45;&gt;Node5</title>
<path fill="none" stroke="midnightblue" d="M160,-63.45C165.77,-55.26 173.54,-44.23 180.25,-34.72"/>
<polygon fill="midnightblue" stroke="midnightblue" points="183.12,-36.72 186.02,-26.53 177.4,-32.68 183.12,-36.72"/>
</g>
<!-- Node6 -->
<g id="node6" class="node">
<title>Node6</title>
<g id="a_node6"><a xlink:title=" ">
<polygon fill="white" stroke="#bfbfbf" points="249.5,-0.5 249.5,-26.5 329.5,-26.5 329.5,-0.5 249.5,-0.5"/>
<text text-anchor="middle" x="289.5" y="-9.7" font-family="Source Sans Pro" font-size="16.00">stdexcept</text>
</a>
</g>
</g>
<!-- Node2&#45;&gt;Node6 -->
<g id="edge5" class="edge">
<title>Node2&#45;&gt;Node6</title>
<path fill="none" stroke="midnightblue" d="M178.76,-63.45C200.03,-54.05 229.76,-40.91 253.07,-30.61"/>
<polygon fill="midnightblue" stroke="midnightblue" points="254.56,-33.77 262.29,-26.53 251.73,-27.37 254.56,-33.77"/>
</g>
</g>
</svg>
