<?xml version="1.0" encoding="UTF-8" standalone="no"?>
<!DOCTYPE svg PUBLIC "-//W3C//DTD SVG 1.1//EN"
 "http://www.w3.org/Graphics/SVG/1.1/DTD/svg11.dtd">
<!-- Generated by graphviz version 2.43.0 (0)
 -->
<!-- Title: Illumination&#45;Engine/src/GraphicsModule/IEAPI.hpp Pages: 1 -->
<svg width="236pt" height="197pt"
 viewBox="0.00 0.00 236.00 197.00" xmlns="http://www.w3.org/2000/svg" xmlns:xlink="http://www.w3.org/1999/xlink">
<g id="graph0" class="graph" transform="scale(1 1) rotate(0) translate(4 193)">
<title>Illumination&#45;Engine/src/GraphicsModule/IEAPI.hpp</title>
<polygon fill="white" stroke="transparent" points="-4,4 -4,-193 232,-193 232,4 -4,4"/>
<!-- Node1 -->
<g id="node1" class="node">
<title>Node1</title>
<g id="a_node1"><a xlink:title=" ">
<polygon fill="#bfbfbf" stroke="black" points="71,-126.5 71,-188.5 228,-188.5 228,-126.5 71,-126.5"/>
<text text-anchor="start" x="79" y="-171.7" font-family="Source Sans Pro" font-size="16.00">Illumination&#45;Engine</text>
<text text-anchor="start" x="79" y="-153.7" font-family="Source Sans Pro" font-size="16.00">/src/GraphicsModule</text>
<text text-anchor="middle" x="149.5" y="-135.7" font-family="Source Sans Pro" font-size="16.00">/IEAPI.hpp</text>
</a>
</g>
</g>
<!-- Node2 -->
<g id="node2" class="node">
<title>Node2</title>
<g id="a_node2"><a xlink:href="_i_e_version_8hpp.html" target="_top" xlink:title=" ">
<polygon fill="white" stroke="black" points="53.5,-63.5 53.5,-89.5 163.5,-89.5 163.5,-63.5 53.5,-63.5"/>
<text text-anchor="middle" x="108.5" y="-72.7" font-family="Source Sans Pro" font-size="16.00">IEVersion.hpp</text>
</a>
</g>
</g>
<!-- Node1&#45;&gt;Node2 -->
<g id="edge1" class="edge">
<title>Node1&#45;&gt;Node2</title>
<path fill="none" stroke="midnightblue" d="M133.77,-126.18C129.03,-117.05 123.93,-107.22 119.56,-98.81"/>
<polygon fill="midnightblue" stroke="midnightblue" points="122.55,-96.97 114.83,-89.7 116.33,-100.19 122.55,-96.97"/>
</g>
<!-- Node4 -->
<g id="node4" class="node">
<title>Node4</title>
<g id="a_node4"><a xlink:title=" ">
<polygon fill="white" stroke="#bfbfbf" points="160,-0.5 160,-26.5 215,-26.5 215,-0.5 160,-0.5"/>
<text text-anchor="middle" x="187.5" y="-9.7" font-family="Source Sans Pro" font-size="16.00">string</text>
</a>
</g>
</g>
<!-- Node1&#45;&gt;Node4 -->
<g id="edge5" class="edge">
<title>Node1&#45;&gt;Node4</title>
<path fill="none" stroke="midnightblue" d="M160.92,-126.32C164.93,-115.03 169.24,-102.03 172.5,-90 177.31,-72.25 181.28,-51.77 183.93,-36.62"/>
<polygon fill="midnightblue" stroke="midnightblue" points="187.4,-37.09 185.61,-26.65 180.5,-35.92 187.4,-37.09"/>
</g>
<!-- Node3 -->
<g id="node3" class="node">
<title>Node3</title>
<g id="a_node3"><a xlink:title=" ">
<polygon fill="white" stroke="#bfbfbf" points="0,-0.5 0,-26.5 63,-26.5 63,-0.5 0,-0.5"/>
<text text-anchor="middle" x="31.5" y="-9.7" font-family="Source Sans Pro" font-size="16.00">cstdint</text>
</a>
</g>
</g>
<!-- Node2&#45;&gt;Node3 -->
<g id="edge2" class="edge">
<title>Node2&#45;&gt;Node3</title>
<path fill="none" stroke="midnightblue" d="M93.29,-63.45C82.32,-54.76 67.31,-42.87 54.83,-32.99"/>
<polygon fill="midnightblue" stroke="midnightblue" points="56.69,-29.99 46.68,-26.53 52.35,-35.48 56.69,-29.99"/>
</g>
<!-- Node2&#45;&gt;Node4 -->
<g id="edge3" class="edge">
<title>Node2&#45;&gt;Node4</title>
<path fill="none" stroke="midnightblue" d="M124.11,-63.45C135.47,-54.68 151.05,-42.64 163.93,-32.7"/>
<polygon fill="midnightblue" stroke="midnightblue" points="166.15,-35.41 171.92,-26.53 161.87,-29.87 166.15,-35.41"/>
</g>
<!-- Node5 -->
<g id="node5" class="node">
<title>Node5</title>
<g id="a_node5"><a xlink:title=" ">
<polygon fill="white" stroke="#bfbfbf" points="81,-0.5 81,-26.5 140,-26.5 140,-0.5 81,-0.5"/>
<text text-anchor="middle" x="110.5" y="-9.7" font-family="Source Sans Pro" font-size="16.00">vector</text>
</a>
</g>
</g>
<!-- Node2&#45;&gt;Node5 -->
<g id="edge4" class="edge">
<title>Node2&#45;&gt;Node5</title>
<path fill="none" stroke="midnightblue" d="M108.9,-63.45C109.14,-55.85 109.47,-45.79 109.77,-36.78"/>
<polygon fill="midnightblue" stroke="midnightblue" points="113.28,-36.64 110.11,-26.53 106.28,-36.41 113.28,-36.64"/>
</g>
</g>
</svg>
