<?xml version="1.0" encoding="UTF-8" standalone="no"?>
<!DOCTYPE svg PUBLIC "-//W3C//DTD SVG 1.1//EN"
 "http://www.w3.org/Graphics/SVG/1.1/DTD/svg11.dtd">
<!-- Generated by graphviz version 2.43.0 (0)
 -->
<!-- Title: Illumination&#45;Engine/src/Core/FileSystemModule/IEDirectory.hpp Pages: 1 -->
<svg width="494pt" height="197pt"
 viewBox="0.00 0.00 494.00 197.00" xmlns="http://www.w3.org/2000/svg" xmlns:xlink="http://www.w3.org/1999/xlink">
<g id="graph0" class="graph" transform="scale(1 1) rotate(0) translate(4 193)">
<title>Illumination&#45;Engine/src/Core/FileSystemModule/IEDirectory.hpp</title>
<polygon fill="white" stroke="transparent" points="-4,4 -4,-193 490,-193 490,4 -4,4"/>
<!-- Node1 -->
<g id="node1" class="node">
<title>Node1</title>
<g id="a_node1"><a xlink:title=" ">
<polygon fill="#bfbfbf" stroke="black" points="241,-126.5 241,-188.5 448,-188.5 448,-126.5 241,-126.5"/>
<text text-anchor="start" x="249" y="-171.7" font-family="Source Sans Pro" font-size="16.00">Illumination&#45;Engine</text>
<text text-anchor="start" x="249" y="-153.7" font-family="Source Sans Pro" font-size="16.00">/src/Core/FileSystemModule</text>
<text text-anchor="middle" x="344.5" y="-135.7" font-family="Source Sans Pro" font-size="16.00">/IEDirectory.hpp</text>
</a>
</g>
</g>
<!-- Node2 -->
<g id="node2" class="node">
<title>Node2</title>
<g id="a_node2"><a xlink:href="_i_e_file_8hpp.html" target="_top" xlink:title=" ">
<polygon fill="white" stroke="black" points="267.5,-63.5 267.5,-89.5 351.5,-89.5 351.5,-63.5 267.5,-63.5"/>
<text text-anchor="middle" x="309.5" y="-72.7" font-family="Source Sans Pro" font-size="16.00">IEFile.hpp</text>
</a>
</g>
</g>
<!-- Node1&#45;&gt;Node2 -->
<g id="edge1" class="edge">
<title>Node1&#45;&gt;Node2</title>
<path fill="none" stroke="midnightblue" d="M331.07,-126.18C327.07,-117.15 322.76,-107.44 319.06,-99.08"/>
<polygon fill="midnightblue" stroke="midnightblue" points="322.16,-97.43 314.91,-89.7 315.76,-100.26 322.16,-97.43"/>
</g>
<!-- Node8 -->
<g id="node8" class="node">
<title>Node8</title>
<g id="a_node8"><a xlink:title=" ">
<polygon fill="white" stroke="#bfbfbf" points="427,-0.5 427,-26.5 486,-26.5 486,-0.5 427,-0.5"/>
<text text-anchor="middle" x="456.5" y="-9.7" font-family="Source Sans Pro" font-size="16.00">vector</text>
</a>
</g>
</g>
<!-- Node1&#45;&gt;Node8 -->
<g id="edge8" class="edge">
<title>Node1&#45;&gt;Node8</title>
<path fill="none" stroke="midnightblue" d="M368.25,-126.39C389.98,-98.83 421.54,-58.82 440.44,-34.86"/>
<polygon fill="midnightblue" stroke="midnightblue" points="443.35,-36.83 446.79,-26.81 437.85,-32.49 443.35,-36.83"/>
</g>
<!-- Node3 -->
<g id="node3" class="node">
<title>Node3</title>
<g id="a_node3"><a xlink:title=" ">
<polygon fill="white" stroke="#bfbfbf" points="0,-0.5 0,-26.5 85,-26.5 85,-0.5 0,-0.5"/>
<text text-anchor="middle" x="42.5" y="-9.7" font-family="Source Sans Pro" font-size="16.00">filesystem</text>
</a>
</g>
</g>
<!-- Node2&#45;&gt;Node3 -->
<g id="edge2" class="edge">
<title>Node2&#45;&gt;Node3</title>
<path fill="none" stroke="midnightblue" d="M267.44,-66.19C226.1,-57.01 160.96,-42.43 94.82,-27.05"/>
<polygon fill="midnightblue" stroke="midnightblue" points="95.59,-23.64 85.06,-24.78 94,-30.46 95.59,-23.64"/>
</g>
<!-- Node4 -->
<g id="node4" class="node">
<title>Node4</title>
<g id="a_node4"><a xlink:title=" ">
<polygon fill="white" stroke="#bfbfbf" points="103.5,-0.5 103.5,-26.5 171.5,-26.5 171.5,-0.5 103.5,-0.5"/>
<text text-anchor="middle" x="137.5" y="-9.7" font-family="Source Sans Pro" font-size="16.00">fstream</text>
</a>
</g>
</g>
<!-- Node2&#45;&gt;Node4 -->
<g id="edge3" class="edge">
<title>Node2&#45;&gt;Node4</title>
<path fill="none" stroke="midnightblue" d="M275.52,-63.45C248.43,-53.84 210.3,-40.32 180.99,-29.92"/>
<polygon fill="midnightblue" stroke="midnightblue" points="182.01,-26.57 171.41,-26.53 179.67,-33.17 182.01,-26.57"/>
</g>
<!-- Node5 -->
<g id="node5" class="node">
<title>Node5</title>
<g id="a_node5"><a xlink:title=" ">
<polygon fill="white" stroke="#bfbfbf" points="189.5,-0.5 189.5,-26.5 265.5,-26.5 265.5,-0.5 189.5,-0.5"/>
<text text-anchor="middle" x="227.5" y="-9.7" font-family="Source Sans Pro" font-size="16.00">iostream</text>
</a>
</g>
</g>
<!-- Node2&#45;&gt;Node5 -->
<g id="edge4" class="edge">
<title>Node2&#45;&gt;Node5</title>
<path fill="none" stroke="midnightblue" d="M293.3,-63.45C281.51,-54.68 265.33,-42.64 251.97,-32.7"/>
<polygon fill="midnightblue" stroke="midnightblue" points="253.78,-29.69 243.67,-26.53 249.6,-35.3 253.78,-29.69"/>
</g>
<!-- Node6 -->
<g id="node6" class="node">
<title>Node6</title>
<g id="a_node6"><a xlink:title=" ">
<polygon fill="white" stroke="#bfbfbf" points="283.5,-0.5 283.5,-26.5 335.5,-26.5 335.5,-0.5 283.5,-0.5"/>
<text text-anchor="middle" x="309.5" y="-9.7" font-family="Source Sans Pro" font-size="16.00">regex</text>
</a>
</g>
</g>
<!-- Node2&#45;&gt;Node6 -->
<g id="edge5" class="edge">
<title>Node2&#45;&gt;Node6</title>
<path fill="none" stroke="midnightblue" d="M309.5,-63.45C309.5,-55.85 309.5,-45.79 309.5,-36.78"/>
<polygon fill="midnightblue" stroke="midnightblue" points="313,-36.53 309.5,-26.53 306,-36.53 313,-36.53"/>
</g>
<!-- Node7 -->
<g id="node7" class="node">
<title>Node7</title>
<g id="a_node7"><a xlink:title=" ">
<polygon fill="white" stroke="#bfbfbf" points="354,-0.5 354,-26.5 409,-26.5 409,-0.5 354,-0.5"/>
<text text-anchor="middle" x="381.5" y="-9.7" font-family="Source Sans Pro" font-size="16.00">string</text>
</a>
</g>
</g>
<!-- Node2&#45;&gt;Node7 -->
<g id="edge6" class="edge">
<title>Node2&#45;&gt;Node7</title>
<path fill="none" stroke="midnightblue" d="M323.72,-63.45C333.88,-54.84 347.74,-43.1 359.34,-33.27"/>
<polygon fill="midnightblue" stroke="midnightblue" points="361.94,-35.66 367.3,-26.53 357.41,-30.32 361.94,-35.66"/>
</g>
<!-- Node2&#45;&gt;Node8 -->
<g id="edge7" class="edge">
<title>Node2&#45;&gt;Node8</title>
<path fill="none" stroke="midnightblue" d="M338.54,-63.45C361.29,-54.01 393.15,-40.79 418.02,-30.47"/>
<polygon fill="midnightblue" stroke="midnightblue" points="419.62,-33.59 427.52,-26.53 416.94,-27.13 419.62,-33.59"/>
</g>
</g>
</svg>
