<?xml version="1.0" encoding="UTF-8" standalone="no"?>
<!DOCTYPE svg PUBLIC "-//W3C//DTD SVG 1.1//EN"
 "http://www.w3.org/Graphics/SVG/1.1/DTD/svg11.dtd">
<!-- Generated by graphviz version 2.43.0 (0)
 -->
<!-- Title: Illumination&#45;Engine/src/GraphicsModule/IESettings.hpp Pages: 1 -->
<svg width="951pt" height="197pt"
 viewBox="0.00 0.00 950.50 197.00" xmlns="http://www.w3.org/2000/svg" xmlns:xlink="http://www.w3.org/1999/xlink">
<g id="graph0" class="graph" transform="scale(1 1) rotate(0) translate(4 193)">
<title>Illumination&#45;Engine/src/GraphicsModule/IESettings.hpp</title>
<polygon fill="white" stroke="transparent" points="-4,4 -4,-193 946.5,-193 946.5,4 -4,4"/>
<!-- Node1 -->
<g id="node1" class="node">
<title>Node1</title>
<g id="a_node1"><a xlink:title=" ">
<polygon fill="#bfbfbf" stroke="black" points="457.5,-126.5 457.5,-188.5 614.5,-188.5 614.5,-126.5 457.5,-126.5"/>
<text text-anchor="start" x="465.5" y="-171.7" font-family="Source Sans Pro" font-size="16.00">Illumination&#45;Engine</text>
<text text-anchor="start" x="465.5" y="-153.7" font-family="Source Sans Pro" font-size="16.00">/src/GraphicsModule</text>
<text text-anchor="middle" x="536" y="-135.7" font-family="Source Sans Pro" font-size="16.00">/IESettings.hpp</text>
</a>
</g>
</g>
<!-- Node2 -->
<g id="node2" class="node">
<title>Node2</title>
<g id="a_node2"><a xlink:href="_i_e_logger_8hpp.html" target="_top" xlink:title=" ">
<polygon fill="white" stroke="black" points="163.5,-63.5 163.5,-89.5 386.5,-89.5 386.5,-63.5 163.5,-63.5"/>
<text text-anchor="middle" x="275" y="-72.7" font-family="Source Sans Pro" font-size="16.00">Core/LogModule/IELogger.hpp</text>
</a>
</g>
</g>
<!-- Node1&#45;&gt;Node2 -->
<g id="edge1" class="edge">
<title>Node1&#45;&gt;Node2</title>
<path fill="none" stroke="midnightblue" d="M457.34,-132.69C414.21,-119.64 362.07,-103.85 324.61,-92.51"/>
<polygon fill="midnightblue" stroke="midnightblue" points="325.52,-89.13 314.93,-89.59 323.49,-95.83 325.52,-89.13"/>
</g>
<!-- Node5 -->
<g id="node5" class="node">
<title>Node5</title>
<g id="a_node5"><a xlink:title=" ">
<polygon fill="white" stroke="#bfbfbf" points="431.5,-0.5 431.5,-26.5 486.5,-26.5 486.5,-0.5 431.5,-0.5"/>
<text text-anchor="middle" x="459" y="-9.7" font-family="Source Sans Pro" font-size="16.00">string</text>
</a>
</g>
</g>
<!-- Node1&#45;&gt;Node5 -->
<g id="edge14" class="edge">
<title>Node1&#45;&gt;Node5</title>
<path fill="none" stroke="midnightblue" d="M499.72,-126.46C489.23,-115.98 478.8,-103.44 472,-90 463.64,-73.48 460.53,-52.6 459.43,-36.99"/>
<polygon fill="midnightblue" stroke="midnightblue" points="462.91,-36.51 458.94,-26.69 455.92,-36.84 462.91,-36.51"/>
</g>
<!-- Node6 -->
<g id="node6" class="node">
<title>Node6</title>
<g id="a_node6"><a xlink:title=" ">
<polygon fill="white" stroke="#bfbfbf" points="288.5,-0.5 288.5,-26.5 413.5,-26.5 413.5,-0.5 288.5,-0.5"/>
<text text-anchor="middle" x="351" y="-9.7" font-family="Source Sans Pro" font-size="16.00">vulkan/vulkan.h</text>
</a>
</g>
</g>
<!-- Node1&#45;&gt;Node6 -->
<g id="edge12" class="edge">
<title>Node1&#45;&gt;Node6</title>
<path fill="none" stroke="midnightblue" d="M496.77,-126.39C459.93,-98.11 405.98,-56.7 375.1,-33"/>
<polygon fill="midnightblue" stroke="midnightblue" points="377.1,-30.12 367.03,-26.81 372.84,-35.67 377.1,-30.12"/>
</g>
<!-- Node7 -->
<g id="node7" class="node">
<title>Node7</title>
<g id="a_node7"><a xlink:href="_i_e_version_8hpp.html" target="_top" xlink:title=" ">
<polygon fill="white" stroke="black" points="481,-63.5 481,-89.5 591,-89.5 591,-63.5 481,-63.5"/>
<text text-anchor="middle" x="536" y="-72.7" font-family="Source Sans Pro" font-size="16.00">IEVersion.hpp</text>
</a>
</g>
</g>
<!-- Node1&#45;&gt;Node7 -->
<g id="edge6" class="edge">
<title>Node1&#45;&gt;Node7</title>
<path fill="none" stroke="midnightblue" d="M536,-126.18C536,-117.45 536,-108.08 536,-99.91"/>
<polygon fill="midnightblue" stroke="midnightblue" points="539.5,-99.7 536,-89.7 532.5,-99.7 539.5,-99.7"/>
</g>
<!-- Node10 -->
<g id="node10" class="node">
<title>Node10</title>
<g id="a_node10"><a xlink:title=" ">
<polygon fill="white" stroke="#bfbfbf" points="609,-63.5 609,-89.5 747,-89.5 747,-63.5 609,-63.5"/>
<text text-anchor="middle" x="678" y="-72.7" font-family="Source Sans Pro" font-size="16.00">include/GL/glew.h</text>
</a>
</g>
</g>
<!-- Node1&#45;&gt;Node10 -->
<g id="edge10" class="edge">
<title>Node1&#45;&gt;Node10</title>
<path fill="none" stroke="midnightblue" d="M590.09,-126.41C609.53,-115.59 630.77,-103.78 647.5,-94.47"/>
<polygon fill="midnightblue" stroke="midnightblue" points="649.25,-97.5 656.29,-89.58 645.85,-91.38 649.25,-97.5"/>
</g>
<!-- Node11 -->
<g id="node11" class="node">
<title>Node11</title>
<g id="a_node11"><a xlink:title=" ">
<polygon fill="white" stroke="#bfbfbf" points="765,-63.5 765,-89.5 873,-89.5 873,-63.5 765,-63.5"/>
<text text-anchor="middle" x="819" y="-72.7" font-family="Source Sans Pro" font-size="16.00">GLFW/glfw3.h</text>
</a>
</g>
</g>
<!-- Node1&#45;&gt;Node11 -->
<g id="edge11" class="edge">
<title>Node1&#45;&gt;Node11</title>
<path fill="none" stroke="midnightblue" d="M614.83,-134.49C662.98,-121.05 723.26,-104.23 765.8,-92.35"/>
<polygon fill="midnightblue" stroke="midnightblue" points="766.99,-95.65 775.68,-89.59 765.1,-88.91 766.99,-95.65"/>
</g>
<!-- Node12 -->
<g id="node12" class="node">
<title>Node12</title>
<g id="a_node12"><a xlink:title=" ">
<polygon fill="white" stroke="#bfbfbf" points="891.5,-63.5 891.5,-89.5 942.5,-89.5 942.5,-63.5 891.5,-63.5"/>
<text text-anchor="middle" x="917" y="-72.7" font-family="Source Sans Pro" font-size="16.00">array</text>
</a>
</g>
</g>
<!-- Node1&#45;&gt;Node12 -->
<g id="edge13" class="edge">
<title>Node1&#45;&gt;Node12</title>
<path fill="none" stroke="midnightblue" d="M614.77,-144.89C683.07,-134.02 784.56,-115.93 881.21,-89.94"/>
<polygon fill="midnightblue" stroke="midnightblue" points="882.42,-93.24 891.15,-87.23 880.58,-86.48 882.42,-93.24"/>
</g>
<!-- Node3 -->
<g id="node3" class="node">
<title>Node3</title>
<g id="a_node3"><a xlink:title=" ">
<polygon fill="white" stroke="#bfbfbf" points="0,-0.5 0,-26.5 178,-26.5 178,-0.5 0,-0.5"/>
<text text-anchor="middle" x="89" y="-9.7" font-family="Source Sans Pro" font-size="16.00">include/spdlog/logger.h</text>
</a>
</g>
</g>
<!-- Node2&#45;&gt;Node3 -->
<g id="edge2" class="edge">
<title>Node2&#45;&gt;Node3</title>
<path fill="none" stroke="midnightblue" d="M238.25,-63.45C208.7,-53.76 167.01,-40.08 135.2,-29.65"/>
<polygon fill="midnightblue" stroke="midnightblue" points="136.26,-26.32 125.67,-26.53 134.08,-32.97 136.26,-26.32"/>
</g>
<!-- Node4 -->
<g id="node4" class="node">
<title>Node4</title>
<g id="a_node4"><a xlink:title=" ">
<polygon fill="white" stroke="#bfbfbf" points="196,-0.5 196,-26.5 270,-26.5 270,-0.5 196,-0.5"/>
<text text-anchor="middle" x="233" y="-9.7" font-family="Source Sans Pro" font-size="16.00">memory</text>
</a>
</g>
</g>
<!-- Node2&#45;&gt;Node4 -->
<g id="edge3" class="edge">
<title>Node2&#45;&gt;Node4</title>
<path fill="none" stroke="midnightblue" d="M266.7,-63.45C261.12,-55.34 253.63,-44.46 247.12,-35.01"/>
<polygon fill="midnightblue" stroke="midnightblue" points="249.83,-32.78 241.28,-26.53 244.07,-36.75 249.83,-32.78"/>
</g>
<!-- Node2&#45;&gt;Node5 -->
<g id="edge4" class="edge">
<title>Node2&#45;&gt;Node5</title>
<path fill="none" stroke="midnightblue" d="M311.88,-63.41C339.59,-54.31 378.72,-41.42 421.63,-27.11"/>
<polygon fill="midnightblue" stroke="midnightblue" points="422.75,-30.43 431.13,-23.94 420.53,-23.79 422.75,-30.43"/>
</g>
<!-- Node2&#45;&gt;Node6 -->
<g id="edge5" class="edge">
<title>Node2&#45;&gt;Node6</title>
<path fill="none" stroke="midnightblue" d="M290.02,-63.45C300.84,-54.76 315.65,-42.87 327.97,-32.99"/>
<polygon fill="midnightblue" stroke="midnightblue" points="330.41,-35.52 336.02,-26.53 326.03,-30.06 330.41,-35.52"/>
</g>
<!-- Node7&#45;&gt;Node5 -->
<g id="edge8" class="edge">
<title>Node7&#45;&gt;Node5</title>
<path fill="none" stroke="midnightblue" d="M520.79,-63.45C509.82,-54.76 494.81,-42.87 482.33,-32.99"/>
<polygon fill="midnightblue" stroke="midnightblue" points="484.19,-29.99 474.18,-26.53 479.85,-35.48 484.19,-29.99"/>
</g>
<!-- Node8 -->
<g id="node8" class="node">
<title>Node8</title>
<g id="a_node8"><a xlink:title=" ">
<polygon fill="white" stroke="#bfbfbf" points="504.5,-0.5 504.5,-26.5 567.5,-26.5 567.5,-0.5 504.5,-0.5"/>
<text text-anchor="middle" x="536" y="-9.7" font-family="Source Sans Pro" font-size="16.00">cstdint</text>
</a>
</g>
</g>
<!-- Node7&#45;&gt;Node8 -->
<g id="edge7" class="edge">
<title>Node7&#45;&gt;Node8</title>
<path fill="none" stroke="midnightblue" d="M536,-63.45C536,-55.85 536,-45.79 536,-36.78"/>
<polygon fill="midnightblue" stroke="midnightblue" points="539.5,-36.53 536,-26.53 532.5,-36.53 539.5,-36.53"/>
</g>
<!-- Node9 -->
<g id="node9" class="node">
<title>Node9</title>
<g id="a_node9"><a xlink:title=" ">
<polygon fill="white" stroke="#bfbfbf" points="585.5,-0.5 585.5,-26.5 644.5,-26.5 644.5,-0.5 585.5,-0.5"/>
<text text-anchor="middle" x="615" y="-9.7" font-family="Source Sans Pro" font-size="16.00">vector</text>
</a>
</g>
</g>
<!-- Node7&#45;&gt;Node9 -->
<g id="edge9" class="edge">
<title>Node7&#45;&gt;Node9</title>
<path fill="none" stroke="midnightblue" d="M551.61,-63.45C562.97,-54.68 578.55,-42.64 591.43,-32.7"/>
<polygon fill="midnightblue" stroke="midnightblue" points="593.65,-35.41 599.42,-26.53 589.37,-29.87 593.65,-35.41"/>
</g>
</g>
</svg>
