<?xml version="1.0" encoding="UTF-8" standalone="no"?>
<!DOCTYPE svg PUBLIC "-//W3C//DTD SVG 1.1//EN"
 "http://www.w3.org/Graphics/SVG/1.1/DTD/svg11.dtd">
<!-- Generated by graphviz version 2.43.0 (0)
 -->
<!-- Title: Illumination&#45;Engine/src/InputModule/IEKeyboard.hpp Pages: 1 -->
<svg width="422pt" height="134pt"
 viewBox="0.00 0.00 422.00 134.00" xmlns="http://www.w3.org/2000/svg" xmlns:xlink="http://www.w3.org/1999/xlink">
<g id="graph0" class="graph" transform="scale(1 1) rotate(0) translate(4 130)">
<title>Illumination&#45;Engine/src/InputModule/IEKeyboard.hpp</title>
<polygon fill="white" stroke="transparent" points="-4,4 -4,-130 418,-130 418,4 -4,4"/>
<!-- Node1 -->
<g id="node1" class="node">
<title>Node1</title>
<g id="a_node1"><a xlink:title=" ">
<polygon fill="#bfbfbf" stroke="black" points="107,-81.5 107,-125.5 355,-125.5 355,-81.5 107,-81.5"/>
<text text-anchor="start" x="115" y="-108.7" font-family="Source Sans Pro" font-size="16.00">Illumination&#45;Engine</text>
<text text-anchor="middle" x="231" y="-90.7" font-family="Source Sans Pro" font-size="16.00">/src/InputModule/IEKeyboard.hpp</text>
</a>
</g>
</g>
<!-- Node2 -->
<g id="node2" class="node">
<title>Node2</title>
<g id="a_node2"><a xlink:href="_i_e_keyboard_8cpp.html" target="_top" xlink:title=" ">
<polygon fill="white" stroke="black" points="0,-0.5 0,-44.5 246,-44.5 246,-0.5 0,-0.5"/>
<text text-anchor="start" x="8" y="-27.7" font-family="Source Sans Pro" font-size="16.00">Illumination&#45;Engine</text>
<text text-anchor="middle" x="123" y="-9.7" font-family="Source Sans Pro" font-size="16.00">/src/InputModule/IEKeyboard.cpp</text>
</a>
</g>
</g>
<!-- Node1&#45;&gt;Node2 -->
<g id="edge1" class="edge">
<title>Node1&#45;&gt;Node2</title>
<path fill="none" stroke="midnightblue" d="M193.79,-75.28C180.12,-65.29 164.86,-54.12 152.02,-44.73"/>
<polygon fill="midnightblue" stroke="midnightblue" points="191.92,-78.25 202.06,-81.33 196.05,-72.6 191.92,-78.25"/>
</g>
<!-- Node3 -->
<g id="node3" class="node">
<title>Node3</title>
<g id="a_node3"><a xlink:href="main_8cpp.html" target="_top" xlink:title=" ">
<polygon fill="white" stroke="black" points="264,-0.5 264,-44.5 414,-44.5 414,-0.5 264,-0.5"/>
<text text-anchor="start" x="272" y="-27.7" font-family="Source Sans Pro" font-size="16.00">Illumination&#45;Engine</text>
<text text-anchor="middle" x="339" y="-9.7" font-family="Source Sans Pro" font-size="16.00">/src/main.cpp</text>
</a>
</g>
</g>
<!-- Node1&#45;&gt;Node3 -->
<g id="edge2" class="edge">
<title>Node1&#45;&gt;Node3</title>
<path fill="none" stroke="midnightblue" d="M268.21,-75.28C281.88,-65.29 297.14,-54.12 309.98,-44.73"/>
<polygon fill="midnightblue" stroke="midnightblue" points="265.95,-72.6 259.94,-81.33 270.08,-78.25 265.95,-72.6"/>
</g>
</g>
</svg>
