<?xml version="1.0" encoding="UTF-8" standalone="no"?>
<!DOCTYPE svg PUBLIC "-//W3C//DTD SVG 1.1//EN"
 "http://www.w3.org/Graphics/SVG/1.1/DTD/svg11.dtd">
<!-- Generated by graphviz version 2.43.0 (0)
 -->
<!-- Title: Illumination&#45;Engine/src/GraphicsModule/Renderable/IEMesh.hpp Pages: 1 -->
<svg width="3583pt" height="368pt"
 viewBox="0.00 0.00 3582.50 368.00" xmlns="http://www.w3.org/2000/svg" xmlns:xlink="http://www.w3.org/1999/xlink">
<g id="graph0" class="graph" transform="scale(1 1) rotate(0) translate(4 364)">
<title>Illumination&#45;Engine/src/GraphicsModule/Renderable/IEMesh.hpp</title>
<polygon fill="white" stroke="transparent" points="-4,4 -4,-364 3578.5,-364 3578.5,4 -4,4"/>
<!-- Node1 -->
<g id="node1" class="node">
<title>Node1</title>
<g id="a_node1"><a xlink:title=" ">
<polygon fill="#bfbfbf" stroke="black" points="273,-297.5 273,-359.5 458,-359.5 458,-297.5 273,-297.5"/>
<text text-anchor="start" x="281" y="-342.7" font-family="Source Sans Pro" font-size="16.00">Illumination&#45;Engine</text>
<text text-anchor="start" x="281" y="-324.7" font-family="Source Sans Pro" font-size="16.00">/src/GraphicsModule</text>
<text text-anchor="middle" x="365.5" y="-306.7" font-family="Source Sans Pro" font-size="16.00">/Renderable/IEMesh.hpp</text>
</a>
</g>
</g>
<!-- Node2 -->
<g id="node2" class="node">
<title>Node2</title>
<g id="a_node2"><a xlink:href="_i_e_material_8cpp.html" target="_top" xlink:title=" ">
<polygon fill="white" stroke="black" points="0,-0.5 0,-62.5 201,-62.5 201,-0.5 0,-0.5"/>
<text text-anchor="start" x="8" y="-45.7" font-family="Source Sans Pro" font-size="16.00">Illumination&#45;Engine</text>
<text text-anchor="start" x="8" y="-27.7" font-family="Source Sans Pro" font-size="16.00">/src/GraphicsModule</text>
<text text-anchor="middle" x="100.5" y="-9.7" font-family="Source Sans Pro" font-size="16.00">/Renderable/IEMaterial.cpp</text>
</a>
</g>
</g>
<!-- Node1&#45;&gt;Node2 -->
<g id="edge1" class="edge">
<title>Node1&#45;&gt;Node2</title>
<path fill="none" stroke="midnightblue" d="M331.53,-289.68C278.35,-230.48 176.49,-117.1 127.77,-62.86"/>
<polygon fill="midnightblue" stroke="midnightblue" points="329.1,-292.22 338.39,-297.32 334.31,-287.54 329.1,-292.22"/>
</g>
<!-- Node3 -->
<g id="node3" class="node">
<title>Node3</title>
<g id="a_node3"><a xlink:href="_i_e_mesh_8cpp.html" target="_top" xlink:title=" ">
<polygon fill="white" stroke="black" points="219,-0.5 219,-62.5 402,-62.5 402,-0.5 219,-0.5"/>
<text text-anchor="start" x="227" y="-45.7" font-family="Source Sans Pro" font-size="16.00">Illumination&#45;Engine</text>
<text text-anchor="start" x="227" y="-27.7" font-family="Source Sans Pro" font-size="16.00">/src/GraphicsModule</text>
<text text-anchor="middle" x="310.5" y="-9.7" font-family="Source Sans Pro" font-size="16.00">/Renderable/IEMesh.cpp</text>
</a>
</g>
</g>
<!-- Node1&#45;&gt;Node3 -->
<g id="edge2" class="edge">
<title>Node1&#45;&gt;Node3</title>
<path fill="none" stroke="midnightblue" d="M358.04,-287.48C346.9,-227.71 326.15,-116.43 316.16,-62.86"/>
<polygon fill="midnightblue" stroke="midnightblue" points="354.6,-288.13 359.87,-297.32 361.48,-286.84 354.6,-288.13"/>
</g>
<!-- Node4 -->
<g id="node4" class="node">
<title>Node4</title>
<g id="a_node4"><a xlink:href="_i_e_renderable_8cpp.html" target="_top" xlink:title=" ">
<polygon fill="white" stroke="black" points="420,-0.5 420,-62.5 645,-62.5 645,-0.5 420,-0.5"/>
<text text-anchor="start" x="428" y="-45.7" font-family="Source Sans Pro" font-size="16.00">Illumination&#45;Engine</text>
<text text-anchor="start" x="428" y="-27.7" font-family="Source Sans Pro" font-size="16.00">/src/GraphicsModule</text>
<text text-anchor="middle" x="532.5" y="-9.7" font-family="Source Sans Pro" font-size="16.00">/Renderable/IERenderable.cpp</text>
</a>
</g>
</g>
<!-- Node1&#45;&gt;Node4 -->
<g id="edge3" class="edge">
<title>Node1&#45;&gt;Node4</title>
<path fill="none" stroke="midnightblue" d="M387.53,-288.59C421.21,-229.09 484.8,-116.77 515.31,-62.86"/>
<polygon fill="midnightblue" stroke="midnightblue" points="384.47,-286.89 382.59,-297.32 390.56,-290.34 384.47,-286.89"/>
</g>
<!-- Node5 -->
<g id="node5" class="node">
<title>Node5</title>
<g id="a_node5"><a xlink:href="_i_e_renderable_8hpp.html" target="_top" xlink:title=" ">
<polygon fill="white" stroke="black" points="522,-198.5 522,-260.5 749,-260.5 749,-198.5 522,-198.5"/>
<text text-anchor="start" x="530" y="-243.7" font-family="Source Sans Pro" font-size="16.00">Illumination&#45;Engine</text>
<text text-anchor="start" x="530" y="-225.7" font-family="Source Sans Pro" font-size="16.00">/src/GraphicsModule</text>
<text text-anchor="middle" x="635.5" y="-207.7" font-family="Source Sans Pro" font-size="16.00">/Renderable/IERenderable.hpp</text>
</a>
</g>
</g>
<!-- Node1&#45;&gt;Node5 -->
<g id="edge4" class="edge">
<title>Node1&#45;&gt;Node5</title>
<path fill="none" stroke="midnightblue" d="M458.78,-293.99C489.02,-283.12 522.36,-271.15 551.85,-260.55"/>
<polygon fill="midnightblue" stroke="midnightblue" points="457.31,-290.8 449.08,-297.47 459.68,-297.39 457.31,-290.8"/>
</g>
<!-- Node5&#45;&gt;Node4 -->
<g id="edge24" class="edge">
<title>Node5&#45;&gt;Node4</title>
<path fill="none" stroke="midnightblue" d="M614.87,-189.24C595.27,-151.95 566.24,-96.7 548.39,-62.73"/>
<polygon fill="midnightblue" stroke="midnightblue" points="611.88,-191.08 619.63,-198.3 618.08,-187.82 611.88,-191.08"/>
</g>
<!-- Node6 -->
<g id="node6" class="node">
<title>Node6</title>
<g id="a_node6"><a xlink:href="_i_e_render_engine_8cpp.html" target="_top" xlink:title=" ">
<polygon fill="white" stroke="black" points="663,-0.5 663,-62.5 822,-62.5 822,-0.5 663,-0.5"/>
<text text-anchor="start" x="671" y="-45.7" font-family="Source Sans Pro" font-size="16.00">Illumination&#45;Engine</text>
<text text-anchor="start" x="671" y="-27.7" font-family="Source Sans Pro" font-size="16.00">/src/GraphicsModule</text>
<text text-anchor="middle" x="742.5" y="-9.7" font-family="Source Sans Pro" font-size="16.00">/IERenderEngine.cpp</text>
</a>
</g>
</g>
<!-- Node5&#45;&gt;Node6 -->
<g id="edge5" class="edge">
<title>Node5&#45;&gt;Node6</title>
<path fill="none" stroke="midnightblue" d="M656.93,-189.24C677.29,-151.95 707.45,-96.7 726,-62.73"/>
<polygon fill="midnightblue" stroke="midnightblue" points="653.7,-187.85 651.98,-198.3 659.85,-191.2 653.7,-187.85"/>
</g>
<!-- Node7 -->
<g id="node7" class="node">
<title>Node7</title>
<g id="a_node7"><a xlink:href="_i_e_render_engine_8hpp.html" target="_top" xlink:title=" ">
<polygon fill="white" stroke="black" points="1675,-99.5 1675,-161.5 1836,-161.5 1836,-99.5 1675,-99.5"/>
<text text-anchor="start" x="1683" y="-144.7" font-family="Source Sans Pro" font-size="16.00">Illumination&#45;Engine</text>
<text text-anchor="start" x="1683" y="-126.7" font-family="Source Sans Pro" font-size="16.00">/src/GraphicsModule</text>
<text text-anchor="middle" x="1755.5" y="-108.7" font-family="Source Sans Pro" font-size="16.00">/IERenderEngine.hpp</text>
</a>
</g>
</g>
<!-- Node5&#45;&gt;Node7 -->
<g id="edge6" class="edge">
<title>Node5&#45;&gt;Node7</title>
<path fill="none" stroke="midnightblue" d="M759.18,-217.79C990.21,-197.78 1481.36,-155.24 1674.8,-138.49"/>
<polygon fill="midnightblue" stroke="midnightblue" points="758.72,-214.32 749.06,-218.67 759.32,-221.29 758.72,-214.32"/>
</g>
<!-- Node7&#45;&gt;Node2 -->
<g id="edge17" class="edge">
<title>Node7&#45;&gt;Node2</title>
<path fill="none" stroke="midnightblue" d="M1664.19,-128.32C1376.67,-124.19 492.37,-108.04 209.5,-63 206.78,-62.57 204.04,-62.09 201.27,-61.58"/>
<polygon fill="midnightblue" stroke="midnightblue" points="1664.52,-131.83 1674.57,-128.47 1664.62,-124.83 1664.52,-131.83"/>
</g>
<!-- Node7&#45;&gt;Node3 -->
<g id="edge18" class="edge">
<title>Node7&#45;&gt;Node3</title>
<path fill="none" stroke="midnightblue" d="M1664.51,-127.92C1402.96,-122.92 652.41,-105.2 410.5,-63 407.73,-62.52 404.93,-61.98 402.11,-61.4"/>
<polygon fill="midnightblue" stroke="midnightblue" points="1664.66,-131.43 1674.72,-128.12 1664.79,-124.43 1664.66,-131.43"/>
</g>
<!-- Node7&#45;&gt;Node4 -->
<g id="edge19" class="edge">
<title>Node7&#45;&gt;Node4</title>
<path fill="none" stroke="midnightblue" d="M1664.66,-129.66C1475.54,-128.77 1026.2,-120.19 654.5,-63 651.37,-62.52 648.21,-61.99 645.02,-61.43"/>
<polygon fill="midnightblue" stroke="midnightblue" points="1664.82,-133.16 1674.84,-129.71 1664.85,-126.16 1664.82,-133.16"/>
</g>
<!-- Node7&#45;&gt;Node6 -->
<g id="edge12" class="edge">
<title>Node7&#45;&gt;Node6</title>
<path fill="none" stroke="midnightblue" d="M1664.78,-126C1464.18,-117.77 988.23,-95.42 830.5,-63 827.81,-62.45 825.08,-61.83 822.35,-61.17"/>
<polygon fill="midnightblue" stroke="midnightblue" points="1664.86,-129.51 1674.99,-126.42 1665.15,-122.51 1664.86,-129.51"/>
</g>
<!-- Node8 -->
<g id="node8" class="node">
<title>Node8</title>
<g id="a_node8"><a xlink:href="_i_e_buffer_8cpp.html" target="_top" xlink:title=" ">
<polygon fill="white" stroke="black" points="1008,-0.5 1008,-62.5 1165,-62.5 1165,-0.5 1008,-0.5"/>
<text text-anchor="start" x="1016" y="-45.7" font-family="Source Sans Pro" font-size="16.00">Illumination&#45;Engine</text>
<text text-anchor="start" x="1016" y="-27.7" font-family="Source Sans Pro" font-size="16.00">/src/GraphicsModule</text>
<text text-anchor="middle" x="1086.5" y="-9.7" font-family="Source Sans Pro" font-size="16.00">/Buffer/IEBuffer.cpp</text>
</a>
</g>
</g>
<!-- Node7&#45;&gt;Node8 -->
<g id="edge7" class="edge">
<title>Node7&#45;&gt;Node8</title>
<path fill="none" stroke="midnightblue" d="M1664.49,-125.27C1549.22,-118.51 1345.07,-101.82 1174.5,-63 1171.5,-62.32 1168.47,-61.57 1165.42,-60.77"/>
<polygon fill="midnightblue" stroke="midnightblue" points="1664.49,-128.78 1674.68,-125.86 1664.9,-121.79 1664.49,-128.78"/>
</g>
<!-- Node9 -->
<g id="node9" class="node">
<title>Node9</title>
<g id="a_node9"><a xlink:href="_i_e_command_buffer_8cpp.html" target="_top" xlink:title=" ">
<polygon fill="white" stroke="black" points="1183,-0.5 1183,-62.5 1476,-62.5 1476,-0.5 1183,-0.5"/>
<text text-anchor="start" x="1191" y="-45.7" font-family="Source Sans Pro" font-size="16.00">Illumination&#45;Engine</text>
<text text-anchor="start" x="1191" y="-27.7" font-family="Source Sans Pro" font-size="16.00">/src/GraphicsModule</text>
<text text-anchor="middle" x="1329.5" y="-9.7" font-family="Source Sans Pro" font-size="16.00">/CommandBuffer/IECommandBuffer.cpp</text>
</a>
</g>
</g>
<!-- Node7&#45;&gt;Node9 -->
<g id="edge8" class="edge">
<title>Node7&#45;&gt;Node9</title>
<path fill="none" stroke="midnightblue" d="M1664.79,-108.85C1605.59,-95.37 1527.33,-77.55 1461.3,-62.51"/>
<polygon fill="midnightblue" stroke="midnightblue" points="1664.34,-112.33 1674.87,-111.14 1665.9,-105.51 1664.34,-112.33"/>
</g>
<!-- Node10 -->
<g id="node10" class="node">
<title>Node10</title>
<g id="a_node10"><a xlink:href="_i_e_command_pool_8cpp.html" target="_top" xlink:title=" ">
<polygon fill="white" stroke="black" points="1494.5,-0.5 1494.5,-62.5 1778.5,-62.5 1778.5,-0.5 1494.5,-0.5"/>
<text text-anchor="start" x="1502.5" y="-45.7" font-family="Source Sans Pro" font-size="16.00">Illumination&#45;Engine</text>
<text text-anchor="start" x="1502.5" y="-27.7" font-family="Source Sans Pro" font-size="16.00">/src/GraphicsModule</text>
<text text-anchor="middle" x="1636.5" y="-9.7" font-family="Source Sans Pro" font-size="16.00">/CommandBuffer/IECommandPool.cpp</text>
</a>
</g>
</g>
<!-- Node7&#45;&gt;Node10 -->
<g id="edge9" class="edge">
<title>Node7&#45;&gt;Node10</title>
<path fill="none" stroke="midnightblue" d="M1710.6,-92.9C1698.36,-82.92 1685.23,-72.22 1673.48,-62.64"/>
<polygon fill="midnightblue" stroke="midnightblue" points="1708.54,-95.74 1718.5,-99.34 1712.96,-90.31 1708.54,-95.74"/>
</g>
<!-- Node11 -->
<g id="node11" class="node">
<title>Node11</title>
<g id="a_node11"><a xlink:href="_i_e_a_p_i_8cpp.html" target="_top" xlink:title=" ">
<polygon fill="white" stroke="black" points="1797,-0.5 1797,-62.5 1954,-62.5 1954,-0.5 1797,-0.5"/>
<text text-anchor="start" x="1805" y="-45.7" font-family="Source Sans Pro" font-size="16.00">Illumination&#45;Engine</text>
<text text-anchor="start" x="1805" y="-27.7" font-family="Source Sans Pro" font-size="16.00">/src/GraphicsModule</text>
<text text-anchor="middle" x="1875.5" y="-9.7" font-family="Source Sans Pro" font-size="16.00">/IEAPI.cpp</text>
</a>
</g>
</g>
<!-- Node7&#45;&gt;Node11 -->
<g id="edge10" class="edge">
<title>Node7&#45;&gt;Node11</title>
<path fill="none" stroke="midnightblue" d="M1800.77,-92.9C1813.12,-82.92 1826.36,-72.22 1838.21,-62.64"/>
<polygon fill="midnightblue" stroke="midnightblue" points="1798.39,-90.33 1792.81,-99.34 1802.79,-95.78 1798.39,-90.33"/>
</g>
<!-- Node12 -->
<g id="node12" class="node">
<title>Node12</title>
<g id="a_node12"><a xlink:href="_i_e_camera_8cpp.html" target="_top" xlink:title=" ">
<polygon fill="white" stroke="black" points="1972,-0.5 1972,-62.5 2129,-62.5 2129,-0.5 1972,-0.5"/>
<text text-anchor="start" x="1980" y="-45.7" font-family="Source Sans Pro" font-size="16.00">Illumination&#45;Engine</text>
<text text-anchor="start" x="1980" y="-27.7" font-family="Source Sans Pro" font-size="16.00">/src/GraphicsModule</text>
<text text-anchor="middle" x="2050.5" y="-9.7" font-family="Source Sans Pro" font-size="16.00">/IECamera.cpp</text>
</a>
</g>
</g>
<!-- Node7&#45;&gt;Node12 -->
<g id="edge11" class="edge">
<title>Node7&#45;&gt;Node12</title>
<path fill="none" stroke="midnightblue" d="M1845.83,-101.22C1882.43,-89.61 1925.06,-75.88 1963.5,-63 1966.23,-62.08 1969.01,-61.15 1971.81,-60.2"/>
<polygon fill="midnightblue" stroke="midnightblue" points="1844.65,-97.92 1836.17,-104.28 1846.76,-104.6 1844.65,-97.92"/>
</g>
<!-- Node13 -->
<g id="node13" class="node">
<title>Node13</title>
<g id="a_node13"><a xlink:href="_i_e_image_8cpp.html" target="_top" xlink:title=" ">
<polygon fill="white" stroke="black" points="2147,-0.5 2147,-62.5 2304,-62.5 2304,-0.5 2147,-0.5"/>
<text text-anchor="start" x="2155" y="-45.7" font-family="Source Sans Pro" font-size="16.00">Illumination&#45;Engine</text>
<text text-anchor="start" x="2155" y="-27.7" font-family="Source Sans Pro" font-size="16.00">/src/GraphicsModule</text>
<text text-anchor="middle" x="2225.5" y="-9.7" font-family="Source Sans Pro" font-size="16.00">/Image/IEImage.cpp</text>
</a>
</g>
</g>
<!-- Node7&#45;&gt;Node13 -->
<g id="edge13" class="edge">
<title>Node7&#45;&gt;Node13</title>
<path fill="none" stroke="midnightblue" d="M1846.58,-118.01C1924.76,-107.12 2040.05,-88.62 2138.5,-63 2141.29,-62.27 2144.11,-61.5 2146.96,-60.69"/>
<polygon fill="midnightblue" stroke="midnightblue" points="1845.71,-114.6 1836.28,-119.43 1846.67,-121.53 1845.71,-114.6"/>
</g>
<!-- Node14 -->
<g id="node14" class="node">
<title>Node14</title>
<g id="a_node14"><a xlink:href="_i_e_texture_8cpp.html" target="_top" xlink:title=" ">
<polygon fill="white" stroke="black" points="2322,-0.5 2322,-62.5 2483,-62.5 2483,-0.5 2322,-0.5"/>
<text text-anchor="start" x="2330" y="-45.7" font-family="Source Sans Pro" font-size="16.00">Illumination&#45;Engine</text>
<text text-anchor="start" x="2330" y="-27.7" font-family="Source Sans Pro" font-size="16.00">/src/GraphicsModule</text>
<text text-anchor="middle" x="2402.5" y="-9.7" font-family="Source Sans Pro" font-size="16.00">/Image/IETexture.cpp</text>
</a>
</g>
</g>
<!-- Node7&#45;&gt;Node14 -->
<g id="edge14" class="edge">
<title>Node7&#45;&gt;Node14</title>
<path fill="none" stroke="midnightblue" d="M1846.52,-124.58C1957.82,-117.21 2151.4,-100 2313.5,-63 2316.21,-62.38 2318.95,-61.71 2321.7,-61"/>
<polygon fill="midnightblue" stroke="midnightblue" points="1846.09,-121.1 1836.34,-125.24 1846.55,-128.08 1846.09,-121.1"/>
</g>
<!-- Node15 -->
<g id="node15" class="node">
<title>Node15</title>
<g id="a_node15"><a xlink:href="_i_e_framebuffer_8cpp.html" target="_top" xlink:title=" ">
<polygon fill="white" stroke="black" points="2501.5,-0.5 2501.5,-62.5 2731.5,-62.5 2731.5,-0.5 2501.5,-0.5"/>
<text text-anchor="start" x="2509.5" y="-45.7" font-family="Source Sans Pro" font-size="16.00">Illumination&#45;Engine</text>
<text text-anchor="start" x="2509.5" y="-27.7" font-family="Source Sans Pro" font-size="16.00">/src/GraphicsModule</text>
<text text-anchor="middle" x="2616.5" y="-9.7" font-family="Source Sans Pro" font-size="16.00">/RenderPass/IEFramebuffer.cpp</text>
</a>
</g>
</g>
<!-- Node7&#45;&gt;Node15 -->
<g id="edge15" class="edge">
<title>Node7&#45;&gt;Node15</title>
<path fill="none" stroke="midnightblue" d="M1846.39,-125.72C1986.09,-118.93 2261.64,-101.58 2492.5,-63 2495.45,-62.51 2498.44,-61.98 2501.44,-61.43"/>
<polygon fill="midnightblue" stroke="midnightblue" points="1845.99,-122.24 1836.16,-126.22 1846.32,-129.23 1845.99,-122.24"/>
</g>
<!-- Node16 -->
<g id="node16" class="node">
<title>Node16</title>
<g id="a_node16"><a xlink:href="_i_e_render_pass_8cpp.html" target="_top" xlink:title=" ">
<polygon fill="white" stroke="black" points="2750,-0.5 2750,-62.5 2977,-62.5 2977,-0.5 2750,-0.5"/>
<text text-anchor="start" x="2758" y="-45.7" font-family="Source Sans Pro" font-size="16.00">Illumination&#45;Engine</text>
<text text-anchor="start" x="2758" y="-27.7" font-family="Source Sans Pro" font-size="16.00">/src/GraphicsModule</text>
<text text-anchor="middle" x="2863.5" y="-9.7" font-family="Source Sans Pro" font-size="16.00">/RenderPass/IERenderPass.cpp</text>
</a>
</g>
</g>
<!-- Node7&#45;&gt;Node16 -->
<g id="edge16" class="edge">
<title>Node7&#45;&gt;Node16</title>
<path fill="none" stroke="midnightblue" d="M1846.31,-128.68C2020.67,-125.94 2414.05,-114.09 2740.5,-63 2743.54,-62.52 2746.62,-62.01 2749.72,-61.46"/>
<polygon fill="midnightblue" stroke="midnightblue" points="1846.09,-125.19 1836.15,-128.84 1846.2,-132.19 1846.09,-125.19"/>
</g>
<!-- Node17 -->
<g id="node17" class="node">
<title>Node17</title>
<g id="a_node17"><a xlink:href="_i_e_descriptor_set_8cpp.html" target="_top" xlink:title=" ">
<polygon fill="white" stroke="black" points="2995,-0.5 2995,-62.5 3202,-62.5 3202,-0.5 2995,-0.5"/>
<text text-anchor="start" x="3003" y="-45.7" font-family="Source Sans Pro" font-size="16.00">Illumination&#45;Engine</text>
<text text-anchor="start" x="3003" y="-27.7" font-family="Source Sans Pro" font-size="16.00">/src/GraphicsModule</text>
<text text-anchor="middle" x="3098.5" y="-9.7" font-family="Source Sans Pro" font-size="16.00">/Shader/IEDescriptorSet.cpp</text>
</a>
</g>
</g>
<!-- Node7&#45;&gt;Node17 -->
<g id="edge20" class="edge">
<title>Node7&#45;&gt;Node17</title>
<path fill="none" stroke="midnightblue" d="M1846.76,-127.08C2092.96,-120.14 2767,-98.41 2986.5,-63 2989.29,-62.55 2992.1,-62.06 2994.94,-61.53"/>
<polygon fill="midnightblue" stroke="midnightblue" points="1846.31,-123.59 1836.42,-127.37 1846.51,-130.59 1846.31,-123.59"/>
</g>
<!-- Node18 -->
<g id="node18" class="node">
<title>Node18</title>
<g id="a_node18"><a xlink:href="_i_e_pipeline_8cpp.html" target="_top" xlink:title=" ">
<polygon fill="white" stroke="black" points="3220.5,-0.5 3220.5,-62.5 3392.5,-62.5 3392.5,-0.5 3220.5,-0.5"/>
<text text-anchor="start" x="3228.5" y="-45.7" font-family="Source Sans Pro" font-size="16.00">Illumination&#45;Engine</text>
<text text-anchor="start" x="3228.5" y="-27.7" font-family="Source Sans Pro" font-size="16.00">/src/GraphicsModule</text>
<text text-anchor="middle" x="3306.5" y="-9.7" font-family="Source Sans Pro" font-size="16.00">/Shader/IEPipeline.cpp</text>
</a>
</g>
</g>
<!-- Node7&#45;&gt;Node18 -->
<g id="edge21" class="edge">
<title>Node7&#45;&gt;Node18</title>
<path fill="none" stroke="midnightblue" d="M1846.75,-128.49C2123.02,-124.93 2947.65,-110.51 3211.5,-63 3214.4,-62.48 3217.33,-61.89 3220.28,-61.25"/>
<polygon fill="midnightblue" stroke="midnightblue" points="1846.32,-124.99 1836.36,-128.62 1846.41,-131.99 1846.32,-124.99"/>
</g>
<!-- Node19 -->
<g id="node19" class="node">
<title>Node19</title>
<g id="a_node19"><a xlink:href="_i_e_shader_8cpp.html" target="_top" xlink:title=" ">
<polygon fill="white" stroke="black" points="3410.5,-0.5 3410.5,-62.5 3574.5,-62.5 3574.5,-0.5 3410.5,-0.5"/>
<text text-anchor="start" x="3418.5" y="-45.7" font-family="Source Sans Pro" font-size="16.00">Illumination&#45;Engine</text>
<text text-anchor="start" x="3418.5" y="-27.7" font-family="Source Sans Pro" font-size="16.00">/src/GraphicsModule</text>
<text text-anchor="middle" x="3492.5" y="-9.7" font-family="Source Sans Pro" font-size="16.00">/Shader/IEShader.cpp</text>
</a>
</g>
</g>
<!-- Node7&#45;&gt;Node19 -->
<g id="edge22" class="edge">
<title>Node7&#45;&gt;Node19</title>
<path fill="none" stroke="midnightblue" d="M1846.6,-129.2C2146.29,-127.69 3099.54,-118.54 3401.5,-63 3404.45,-62.46 3407.43,-61.84 3410.43,-61.16"/>
<polygon fill="midnightblue" stroke="midnightblue" points="1846.2,-125.7 1836.22,-129.25 1846.24,-132.7 1846.2,-125.7"/>
</g>
<!-- Node20 -->
<g id="node20" class="node">
<title>Node20</title>
<g id="a_node20"><a xlink:href="main_8cpp.html" target="_top" xlink:title=" ">
<polygon fill="white" stroke="black" points="839.5,-9.5 839.5,-53.5 989.5,-53.5 989.5,-9.5 839.5,-9.5"/>
<text text-anchor="start" x="847.5" y="-36.7" font-family="Source Sans Pro" font-size="16.00">Illumination&#45;Engine</text>
<text text-anchor="middle" x="914.5" y="-18.7" font-family="Source Sans Pro" font-size="16.00">/src/main.cpp</text>
</a>
</g>
</g>
<!-- Node7&#45;&gt;Node20 -->
<g id="edge23" class="edge">
<title>Node7&#45;&gt;Node20</title>
<path fill="none" stroke="midnightblue" d="M1664.69,-128.99C1521.6,-126.53 1235.61,-114.84 999.5,-63 988.63,-60.61 977.25,-57.2 966.48,-53.52"/>
<polygon fill="midnightblue" stroke="midnightblue" points="1664.69,-132.49 1674.75,-129.16 1664.81,-125.5 1664.69,-132.49"/>
</g>
</g>
</svg>
