<?xml version="1.0" encoding="UTF-8" standalone="no"?>
<!DOCTYPE svg PUBLIC "-//W3C//DTD SVG 1.1//EN"
 "http://www.w3.org/Graphics/SVG/1.1/DTD/svg11.dtd">
<!-- Generated by graphviz version 2.43.0 (0)
 -->
<!-- Title: Illumination&#45;Engine/src/GraphicsModule/CommandBuffer/DependencyStructs/IECopyBufferToImageInfo.hpp Pages: 1 -->
<svg width="1340pt" height="359pt"
 viewBox="0.00 0.00 1340.17 359.00" xmlns="http://www.w3.org/2000/svg" xmlns:xlink="http://www.w3.org/1999/xlink">
<g id="graph0" class="graph" transform="scale(1 1) rotate(0) translate(4 355)">
<title>Illumination&#45;Engine/src/GraphicsModule/CommandBuffer/DependencyStructs/IECopyBufferToImageInfo.hpp</title>
<polygon fill="white" stroke="transparent" points="-4,4 -4,-355 1336.17,-355 1336.17,4 -4,4"/>
<!-- Node1 -->
<g id="node1" class="node">
<title>Node1</title>
<g id="a_node1"><a xlink:title=" ">
<polygon fill="#bfbfbf" stroke="black" points="14.17,-270.5 14.17,-350.5 286.17,-350.5 286.17,-270.5 14.17,-270.5"/>
<text text-anchor="start" x="22.17" y="-333.7" font-family="Source Sans Pro" font-size="16.00">Illumination&#45;Engine</text>
<text text-anchor="start" x="22.17" y="-315.7" font-family="Source Sans Pro" font-size="16.00">/src/GraphicsModule</text>
<text text-anchor="start" x="22.17" y="-297.7" font-family="Source Sans Pro" font-size="16.00">/CommandBuffer/DependencyStructs</text>
<text text-anchor="middle" x="150.17" y="-279.7" font-family="Source Sans Pro" font-size="16.00">/IECopyBufferToImageInfo.hpp</text>
</a>
</g>
</g>
<!-- Node2 -->
<g id="node2" class="node">
<title>Node2</title>
<g id="a_node2"><a xlink:title=" ">
<polygon fill="white" stroke="#bfbfbf" points="99.17,-63.5 99.17,-89.5 173.17,-89.5 173.17,-63.5 99.17,-63.5"/>
<text text-anchor="middle" x="136.17" y="-72.7" font-family="Source Sans Pro" font-size="16.00">memory</text>
</a>
</g>
</g>
<!-- Node1&#45;&gt;Node2 -->
<g id="edge1" class="edge">
<title>Node1&#45;&gt;Node2</title>
<path fill="none" stroke="midnightblue" d="M53.82,-270.34C39.97,-260.54 27.58,-248.55 19.17,-234 -4.85,-192.44 -7.49,-165.91 19.17,-126 34.75,-102.68 63.86,-90.55 89.14,-84.26"/>
<polygon fill="midnightblue" stroke="midnightblue" points="89.97,-87.66 98.96,-82.05 88.44,-80.83 89.97,-87.66"/>
</g>
<!-- Node3 -->
<g id="node3" class="node">
<title>Node3</title>
<g id="a_node3"><a xlink:title=" ">
<polygon fill="white" stroke="#bfbfbf" points="407.67,-63.5 407.67,-89.5 532.67,-89.5 532.67,-63.5 407.67,-63.5"/>
<text text-anchor="middle" x="470.17" y="-72.7" font-family="Source Sans Pro" font-size="16.00">vulkan/vulkan.h</text>
</a>
</g>
</g>
<!-- Node1&#45;&gt;Node3 -->
<g id="edge2" class="edge">
<title>Node1&#45;&gt;Node3</title>
<path fill="none" stroke="midnightblue" d="M137.64,-270.31C127.19,-229.21 118.91,-165.24 153.17,-126 184.28,-90.37 313.74,-80.67 397.29,-78.18"/>
<polygon fill="midnightblue" stroke="midnightblue" points="397.59,-81.67 407.49,-77.9 397.4,-74.67 397.59,-81.67"/>
</g>
<!-- Node4 -->
<g id="node4" class="node">
<title>Node4</title>
<g id="a_node4"><a xlink:href="_i_e_buffer_8hpp.html" target="_top" xlink:title=" ">
<polygon fill="white" stroke="black" points="193.67,-207.5 193.67,-233.5 340.67,-233.5 340.67,-207.5 193.67,-207.5"/>
<text text-anchor="middle" x="267.17" y="-216.7" font-family="Source Sans Pro" font-size="16.00">Buffer/IEBuffer.hpp</text>
</a>
</g>
</g>
<!-- Node1&#45;&gt;Node4 -->
<g id="edge3" class="edge">
<title>Node1&#45;&gt;Node4</title>
<path fill="none" stroke="midnightblue" d="M202.17,-270.39C216.41,-259.68 231.17,-248.57 243.02,-239.66"/>
<polygon fill="midnightblue" stroke="midnightblue" points="245.2,-242.4 251.09,-233.6 240.99,-236.81 245.2,-242.4"/>
</g>
<!-- Node14 -->
<g id="node14" class="node">
<title>Node14</title>
<g id="a_node14"><a xlink:href="_i_e_image_8hpp.html" target="_top" xlink:title=" ">
<polygon fill="white" stroke="black" points="724.67,-207.5 724.67,-233.5 873.67,-233.5 873.67,-207.5 724.67,-207.5"/>
<text text-anchor="middle" x="799.17" y="-216.7" font-family="Source Sans Pro" font-size="16.00">Image/IEImage.hpp</text>
</a>
</g>
</g>
<!-- Node1&#45;&gt;Node14 -->
<g id="edge21" class="edge">
<title>Node1&#45;&gt;Node14</title>
<path fill="none" stroke="midnightblue" d="M286.22,-291.05C415.44,-273.53 605.67,-247.74 714.48,-232.98"/>
<polygon fill="midnightblue" stroke="midnightblue" points="714.99,-236.45 724.43,-231.63 714.05,-229.51 714.99,-236.45"/>
</g>
<!-- Node4&#45;&gt;Node3 -->
<g id="edge17" class="edge">
<title>Node4&#45;&gt;Node3</title>
<path fill="none" stroke="midnightblue" d="M216.15,-207.44C197.08,-200.19 177.36,-188.78 166.17,-171 155.52,-154.07 153.19,-141.22 166.17,-126 195.32,-91.83 317.21,-81.62 397.52,-78.64"/>
<polygon fill="midnightblue" stroke="midnightblue" points="397.71,-82.14 407.58,-78.3 397.47,-75.14 397.71,-82.14"/>
</g>
<!-- Node5 -->
<g id="node5" class="node">
<title>Node5</title>
<g id="a_node5"><a xlink:href="_i_e_dependency_8hpp.html" target="_top" xlink:title=" ">
<polygon fill="white" stroke="black" points="676.67,-126.5 676.67,-170.5 921.67,-170.5 921.67,-126.5 676.67,-126.5"/>
<text text-anchor="start" x="684.67" y="-153.7" font-family="Source Sans Pro" font-size="16.00">GraphicsModule/CommandBuffer</text>
<text text-anchor="middle" x="799.17" y="-135.7" font-family="Source Sans Pro" font-size="16.00">/IEDependency.hpp</text>
</a>
</g>
</g>
<!-- Node4&#45;&gt;Node5 -->
<g id="edge4" class="edge">
<title>Node4&#45;&gt;Node5</title>
<path fill="none" stroke="midnightblue" d="M340.86,-209.8C424.79,-198.76 563.59,-180.5 666.49,-166.96"/>
<polygon fill="midnightblue" stroke="midnightblue" points="667.19,-170.4 676.65,-165.62 666.28,-163.46 667.19,-170.4"/>
</g>
<!-- Node6 -->
<g id="node6" class="node">
<title>Node6</title>
<g id="a_node6"><a xlink:title=" ">
<polygon fill="white" stroke="#bfbfbf" points="832.67,-0.5 832.67,-26.5 891.67,-26.5 891.67,-0.5 832.67,-0.5"/>
<text text-anchor="middle" x="862.17" y="-9.7" font-family="Source Sans Pro" font-size="16.00">vector</text>
</a>
</g>
</g>
<!-- Node4&#45;&gt;Node6 -->
<g id="edge18" class="edge">
<title>Node4&#45;&gt;Node6</title>
<path fill="none" stroke="midnightblue" d="M193.32,-207.42C152.67,-199.15 107.93,-186.82 95.17,-171 65,-133.6 57.27,-98.03 90.17,-63 115.45,-36.08 667.27,-19.61 822.1,-15.51"/>
<polygon fill="midnightblue" stroke="midnightblue" points="822.65,-19 832.55,-15.24 822.46,-12 822.65,-19"/>
</g>
<!-- Node8 -->
<g id="node8" class="node">
<title>Node8</title>
<g id="a_node8"><a xlink:href="_i_e_a_p_i_8hpp.html" target="_top" xlink:title=" ">
<polygon fill="white" stroke="black" points="978.67,-135.5 978.67,-161.5 1061.67,-161.5 1061.67,-135.5 978.67,-135.5"/>
<text text-anchor="middle" x="1020.17" y="-144.7" font-family="Source Sans Pro" font-size="16.00">IEAPI.hpp</text>
</a>
</g>
</g>
<!-- Node4&#45;&gt;Node8 -->
<g id="edge9" class="edge">
<title>Node4&#45;&gt;Node8</title>
<path fill="none" stroke="midnightblue" d="M340.82,-218.06C463.8,-214.78 718.47,-204.23 931.17,-171 943.32,-169.1 956.25,-166.39 968.38,-163.53"/>
<polygon fill="midnightblue" stroke="midnightblue" points="969.46,-166.87 978.35,-161.1 967.81,-160.06 969.46,-166.87"/>
</g>
<!-- Node10 -->
<g id="node10" class="node">
<title>Node10</title>
<g id="a_node10"><a xlink:title=" ">
<polygon fill="white" stroke="#bfbfbf" points="975.67,-0.5 975.67,-26.5 1038.67,-26.5 1038.67,-0.5 975.67,-0.5"/>
<text text-anchor="middle" x="1007.17" y="-9.7" font-family="Source Sans Pro" font-size="16.00">cstdint</text>
</a>
</g>
</g>
<!-- Node4&#45;&gt;Node10 -->
<g id="edge19" class="edge">
<title>Node4&#45;&gt;Node10</title>
<path fill="none" stroke="midnightblue" d="M204.98,-207.41C185.02,-200.27 165.03,-188.94 153.17,-171 142.14,-154.32 140.91,-141.8 153.17,-126 234.41,-21.33 764.55,-39.95 901.17,-27 922.28,-25 945.7,-22.29 965.14,-19.9"/>
<polygon fill="midnightblue" stroke="midnightblue" points="965.71,-23.36 975.2,-18.66 964.85,-16.41 965.71,-23.36"/>
</g>
<!-- Node11 -->
<g id="node11" class="node">
<title>Node11</title>
<g id="a_node11"><a xlink:title=" ">
<polygon fill="white" stroke="#bfbfbf" points="174.67,-135.5 174.67,-161.5 359.67,-161.5 359.67,-135.5 174.67,-135.5"/>
<text text-anchor="middle" x="267.17" y="-144.7" font-family="Source Sans Pro" font-size="16.00">include/vk_mem_alloc.h</text>
</a>
</g>
</g>
<!-- Node4&#45;&gt;Node11 -->
<g id="edge15" class="edge">
<title>Node4&#45;&gt;Node11</title>
<path fill="none" stroke="midnightblue" d="M267.17,-207.31C267.17,-197.47 267.17,-183.38 267.17,-171.57"/>
<polygon fill="midnightblue" stroke="midnightblue" points="270.67,-171.55 267.17,-161.55 263.67,-171.55 270.67,-171.55"/>
</g>
<!-- Node12 -->
<g id="node12" class="node">
<title>Node12</title>
<g id="a_node12"><a xlink:title=" ">
<polygon fill="white" stroke="#bfbfbf" points="378.17,-135.5 378.17,-161.5 516.17,-161.5 516.17,-135.5 378.17,-135.5"/>
<text text-anchor="middle" x="447.17" y="-144.7" font-family="Source Sans Pro" font-size="16.00">include/GL/glew.h</text>
</a>
</g>
</g>
<!-- Node4&#45;&gt;Node12 -->
<g id="edge16" class="edge">
<title>Node4&#45;&gt;Node12</title>
<path fill="none" stroke="midnightblue" d="M298.11,-207.47C328.12,-195.8 373.81,-178.03 406.69,-165.24"/>
<polygon fill="midnightblue" stroke="midnightblue" points="407.98,-168.5 416.03,-161.61 405.44,-161.97 407.98,-168.5"/>
</g>
<!-- Node13 -->
<g id="node13" class="node">
<title>Node13</title>
<g id="a_node13"><a xlink:title=" ">
<polygon fill="white" stroke="#bfbfbf" points="534.17,-135.5 534.17,-161.5 620.17,-161.5 620.17,-135.5 534.17,-135.5"/>
<text text-anchor="middle" x="577.17" y="-144.7" font-family="Source Sans Pro" font-size="16.00">functional</text>
</a>
</g>
</g>
<!-- Node4&#45;&gt;Node13 -->
<g id="edge20" class="edge">
<title>Node4&#45;&gt;Node13</title>
<path fill="none" stroke="midnightblue" d="M340.69,-209.81C392.84,-201.94 464.12,-189.15 525.17,-171 530.55,-169.4 536.14,-167.43 541.57,-165.35"/>
<polygon fill="midnightblue" stroke="midnightblue" points="543.13,-168.49 551.1,-161.51 540.51,-162 543.13,-168.49"/>
</g>
<!-- Node5&#45;&gt;Node2 -->
<g id="edge8" class="edge">
<title>Node5&#45;&gt;Node2</title>
<path fill="none" stroke="midnightblue" d="M676.65,-131.59C660.68,-129.64 644.54,-127.73 629.17,-126 465.74,-107.63 271.38,-89.64 183.49,-81.72"/>
<polygon fill="midnightblue" stroke="midnightblue" points="183.59,-78.21 173.31,-80.8 182.96,-85.18 183.59,-78.21"/>
</g>
<!-- Node5&#45;&gt;Node3 -->
<g id="edge6" class="edge">
<title>Node5&#45;&gt;Node3</title>
<path fill="none" stroke="midnightblue" d="M700.46,-126.5C647.56,-115.24 583.79,-101.67 536.78,-91.67"/>
<polygon fill="midnightblue" stroke="midnightblue" points="537.22,-88.19 526.71,-89.53 535.77,-95.04 537.22,-88.19"/>
</g>
<!-- Node5&#45;&gt;Node6 -->
<g id="edge5" class="edge">
<title>Node5&#45;&gt;Node6</title>
<path fill="none" stroke="midnightblue" d="M809.15,-126.43C820.86,-101.7 840.17,-60.94 851.97,-36.03"/>
<polygon fill="midnightblue" stroke="midnightblue" points="855.27,-37.25 856.38,-26.71 848.94,-34.25 855.27,-37.25"/>
</g>
<!-- Node7 -->
<g id="node7" class="node">
<title>Node7</title>
<g id="a_node7"><a xlink:title=" ">
<polygon fill="white" stroke="#bfbfbf" points="1119.67,-0.5 1119.67,-26.5 1174.67,-26.5 1174.67,-0.5 1119.67,-0.5"/>
<text text-anchor="middle" x="1147.17" y="-9.7" font-family="Source Sans Pro" font-size="16.00">string</text>
</a>
</g>
</g>
<!-- Node5&#45;&gt;Node7 -->
<g id="edge7" class="edge">
<title>Node5&#45;&gt;Node7</title>
<path fill="none" stroke="midnightblue" d="M921.99,-128.49C981.24,-117.93 1045.05,-104.11 1071.17,-90 1096.11,-76.53 1118.3,-52.33 1132.16,-34.96"/>
<polygon fill="midnightblue" stroke="midnightblue" points="1135.29,-36.64 1138.63,-26.59 1129.75,-32.36 1135.29,-36.64"/>
</g>
<!-- Node8&#45;&gt;Node7 -->
<g id="edge14" class="edge">
<title>Node8&#45;&gt;Node7</title>
<path fill="none" stroke="midnightblue" d="M1061.84,-139.3C1089.45,-131.54 1123.84,-116.89 1142.17,-90 1152.69,-74.57 1153.07,-52.99 1151.32,-36.85"/>
<polygon fill="midnightblue" stroke="midnightblue" points="1154.75,-36.09 1149.87,-26.69 1147.82,-37.08 1154.75,-36.09"/>
</g>
<!-- Node9 -->
<g id="node9" class="node">
<title>Node9</title>
<g id="a_node9"><a xlink:href="_i_e_version_8hpp.html" target="_top" xlink:title=" ">
<polygon fill="white" stroke="black" points="952.17,-63.5 952.17,-89.5 1062.17,-89.5 1062.17,-63.5 952.17,-63.5"/>
<text text-anchor="middle" x="1007.17" y="-72.7" font-family="Source Sans Pro" font-size="16.00">IEVersion.hpp</text>
</a>
</g>
</g>
<!-- Node8&#45;&gt;Node9 -->
<g id="edge10" class="edge">
<title>Node8&#45;&gt;Node9</title>
<path fill="none" stroke="midnightblue" d="M1017.91,-135.31C1016.08,-125.47 1013.46,-111.38 1011.27,-99.57"/>
<polygon fill="midnightblue" stroke="midnightblue" points="1014.68,-98.75 1009.41,-89.55 1007.79,-100.02 1014.68,-98.75"/>
</g>
<!-- Node9&#45;&gt;Node6 -->
<g id="edge13" class="edge">
<title>Node9&#45;&gt;Node6</title>
<path fill="none" stroke="midnightblue" d="M978.52,-63.45C956.08,-54.01 924.66,-40.79 900.13,-30.47"/>
<polygon fill="midnightblue" stroke="midnightblue" points="901.33,-27.18 890.76,-26.53 898.62,-33.63 901.33,-27.18"/>
</g>
<!-- Node9&#45;&gt;Node7 -->
<g id="edge12" class="edge">
<title>Node9&#45;&gt;Node7</title>
<path fill="none" stroke="midnightblue" d="M1034.83,-63.45C1056.4,-54.05 1086.57,-40.91 1110.21,-30.61"/>
<polygon fill="midnightblue" stroke="midnightblue" points="1111.8,-33.73 1119.57,-26.53 1109,-27.31 1111.8,-33.73"/>
</g>
<!-- Node9&#45;&gt;Node10 -->
<g id="edge11" class="edge">
<title>Node9&#45;&gt;Node10</title>
<path fill="none" stroke="midnightblue" d="M1007.17,-63.45C1007.17,-55.85 1007.17,-45.79 1007.17,-36.78"/>
<polygon fill="midnightblue" stroke="midnightblue" points="1010.67,-36.53 1007.17,-26.53 1003.67,-36.53 1010.67,-36.53"/>
</g>
<!-- Node14&#45;&gt;Node3 -->
<g id="edge26" class="edge">
<title>Node14&#45;&gt;Node3</title>
<path fill="none" stroke="midnightblue" d="M749.38,-207.49C723.64,-199.74 692.59,-187.91 668.17,-171 646.41,-155.93 651.36,-140.42 629.17,-126 603.3,-109.19 571.32,-97.96 542.83,-90.58"/>
<polygon fill="midnightblue" stroke="midnightblue" points="543.46,-87.13 532.91,-88.13 541.78,-93.93 543.46,-87.13"/>
</g>
<!-- Node14&#45;&gt;Node5 -->
<g id="edge22" class="edge">
<title>Node14&#45;&gt;Node5</title>
<path fill="none" stroke="midnightblue" d="M799.17,-207.31C799.17,-199.96 799.17,-190.25 799.17,-180.88"/>
<polygon fill="midnightblue" stroke="midnightblue" points="802.67,-180.6 799.17,-170.6 795.67,-180.6 802.67,-180.6"/>
</g>
<!-- Node14&#45;&gt;Node6 -->
<g id="edge30" class="edge">
<title>Node14&#45;&gt;Node6</title>
<path fill="none" stroke="midnightblue" d="M873.68,-208.87C895.84,-201.84 917.76,-190.22 931.17,-171 962.5,-126.11 912.91,-64.7 882.71,-33.85"/>
<polygon fill="midnightblue" stroke="midnightblue" points="885.07,-31.27 875.51,-26.7 880.14,-36.23 885.07,-31.27"/>
</g>
<!-- Node14&#45;&gt;Node7 -->
<g id="edge29" class="edge">
<title>Node14&#45;&gt;Node7</title>
<path fill="none" stroke="midnightblue" d="M873.88,-213.28C948.65,-205.98 1057.68,-192.14 1094.17,-171 1134.35,-147.72 1144.6,-133.75 1160.17,-90 1166.4,-72.49 1161.95,-51.6 1156.63,-36.23"/>
<polygon fill="midnightblue" stroke="midnightblue" points="1159.78,-34.67 1152.93,-26.59 1153.25,-37.18 1159.78,-34.67"/>
</g>
<!-- Node14&#45;&gt;Node8 -->
<g id="edge23" class="edge">
<title>Node14&#45;&gt;Node8</title>
<path fill="none" stroke="midnightblue" d="M843.59,-207.49C876.98,-198.21 923.72,-184.68 964.17,-171 969.47,-169.21 975.02,-167.22 980.47,-165.2"/>
<polygon fill="midnightblue" stroke="midnightblue" points="981.99,-168.36 990.11,-161.55 979.51,-161.81 981.99,-168.36"/>
</g>
<!-- Node14&#45;&gt;Node10 -->
<g id="edge28" class="edge">
<title>Node14&#45;&gt;Node10</title>
<path fill="none" stroke="midnightblue" d="M873.83,-216.63C945.5,-212.12 1046.42,-200.56 1071.17,-171 1101.99,-134.2 1092.53,-105.99 1071.17,-63 1064.79,-50.17 1053.22,-39.82 1041.65,-32.03"/>
<polygon fill="midnightblue" stroke="midnightblue" points="1043.22,-28.89 1032.89,-26.57 1039.52,-34.83 1043.22,-28.89"/>
</g>
<!-- Node14&#45;&gt;Node11 -->
<g id="edge25" class="edge">
<title>Node14&#45;&gt;Node11</title>
<path fill="none" stroke="midnightblue" d="M724.3,-213.24C638.28,-205.54 493.03,-190.99 369.17,-171 356.21,-168.91 342.41,-166.28 329.29,-163.58"/>
<polygon fill="midnightblue" stroke="midnightblue" points="329.91,-160.13 319.4,-161.51 328.48,-166.99 329.91,-160.13"/>
</g>
<!-- Node14&#45;&gt;Node12 -->
<g id="edge24" class="edge">
<title>Node14&#45;&gt;Node12</title>
<path fill="none" stroke="midnightblue" d="M724.66,-208.25C669.34,-199.43 592.2,-186.14 525.17,-171 516.41,-169.02 507.16,-166.69 498.21,-164.31"/>
<polygon fill="midnightblue" stroke="midnightblue" points="498.85,-160.85 488.28,-161.61 497.01,-167.61 498.85,-160.85"/>
</g>
<!-- Node14&#45;&gt;Node13 -->
<g id="edge31" class="edge">
<title>Node14&#45;&gt;Node13</title>
<path fill="none" stroke="midnightblue" d="M754.77,-207.42C721.39,-198.11 674.65,-184.56 634.17,-171 628.64,-169.15 622.86,-167.1 617.18,-165.02"/>
<polygon fill="midnightblue" stroke="midnightblue" points="618.38,-161.73 607.78,-161.53 615.94,-168.29 618.38,-161.73"/>
</g>
<!-- Node15 -->
<g id="node15" class="node">
<title>Node15</title>
<g id="a_node15"><a xlink:title=" ">
<polygon fill="white" stroke="#bfbfbf" points="1232.17,-135.5 1232.17,-161.5 1332.17,-161.5 1332.17,-135.5 1232.17,-135.5"/>
<text text-anchor="middle" x="1282.17" y="-144.7" font-family="Source Sans Pro" font-size="16.00">stb_image.h</text>
</a>
</g>
</g>
<!-- Node14&#45;&gt;Node15 -->
<g id="edge27" class="edge">
<title>Node14&#45;&gt;Node15</title>
<path fill="none" stroke="midnightblue" d="M873.75,-215.58C958.15,-210.06 1099.35,-197.53 1218.17,-171 1225.65,-169.33 1233.48,-167.11 1240.99,-164.73"/>
<polygon fill="midnightblue" stroke="midnightblue" points="1242.24,-168.01 1250.64,-161.55 1240.04,-161.36 1242.24,-168.01"/>
</g>
</g>
</svg>
