<?xml version="1.0" encoding="UTF-8" standalone="no"?>
<!DOCTYPE svg PUBLIC "-//W3C//DTD SVG 1.1//EN"
 "http://www.w3.org/Graphics/SVG/1.1/DTD/svg11.dtd">
<!-- Generated by graphviz version 2.43.0 (0)
 -->
<!-- Title: Illumination&#45;Engine/src/GraphicsModule/Renderable/IEMaterial.hpp Pages: 1 -->
<svg width="1678pt" height="404pt"
 viewBox="0.00 0.00 1678.00 404.00" xmlns="http://www.w3.org/2000/svg" xmlns:xlink="http://www.w3.org/1999/xlink">
<g id="graph0" class="graph" transform="scale(1 1) rotate(0) translate(4 400)">
<title>Illumination&#45;Engine/src/GraphicsModule/Renderable/IEMaterial.hpp</title>
<polygon fill="white" stroke="transparent" points="-4,4 -4,-400 1674,-400 1674,4 -4,4"/>
<!-- Node1 -->
<g id="node1" class="node">
<title>Node1</title>
<g id="a_node1"><a xlink:title=" ">
<polygon fill="#bfbfbf" stroke="black" points="1158.5,-333.5 1158.5,-395.5 1361.5,-395.5 1361.5,-333.5 1158.5,-333.5"/>
<text text-anchor="start" x="1166.5" y="-378.7" font-family="Source Sans Pro" font-size="16.00">Illumination&#45;Engine</text>
<text text-anchor="start" x="1166.5" y="-360.7" font-family="Source Sans Pro" font-size="16.00">/src/GraphicsModule</text>
<text text-anchor="middle" x="1260" y="-342.7" font-family="Source Sans Pro" font-size="16.00">/Renderable/IEMaterial.hpp</text>
</a>
</g>
</g>
<!-- Node2 -->
<g id="node2" class="node">
<title>Node2</title>
<g id="a_node2"><a xlink:title=" ">
<polygon fill="white" stroke="#bfbfbf" points="0,-207.5 0,-233.5 138,-233.5 138,-207.5 0,-207.5"/>
<text text-anchor="middle" x="69" y="-216.7" font-family="Source Sans Pro" font-size="16.00">assimp/material.h</text>
</a>
</g>
</g>
<!-- Node1&#45;&gt;Node2 -->
<g id="edge1" class="edge">
<title>Node1&#45;&gt;Node2</title>
<path fill="none" stroke="midnightblue" d="M1158.27,-352.75C962.96,-331.86 522.01,-283.47 152,-234 150.74,-233.83 149.47,-233.66 148.19,-233.49"/>
<polygon fill="midnightblue" stroke="midnightblue" points="148.65,-230.02 138.27,-232.11 147.69,-236.95 148.65,-230.02"/>
</g>
<!-- Node3 -->
<g id="node3" class="node">
<title>Node3</title>
<g id="a_node3"><a xlink:title=" ">
<polygon fill="white" stroke="#bfbfbf" points="785,-270.5 785,-296.5 907,-296.5 907,-270.5 785,-270.5"/>
<text text-anchor="middle" x="846" y="-279.7" font-family="Source Sans Pro" font-size="16.00">assimp/scene.h</text>
</a>
</g>
</g>
<!-- Node1&#45;&gt;Node3 -->
<g id="edge2" class="edge">
<title>Node1&#45;&gt;Node3</title>
<path fill="none" stroke="midnightblue" d="M1158.46,-344.12C1083.54,-329.83 983.48,-310.73 917,-298.05"/>
<polygon fill="midnightblue" stroke="midnightblue" points="917.51,-294.58 907.03,-296.15 916.2,-301.46 917.51,-294.58"/>
</g>
<!-- Node4 -->
<g id="node4" class="node">
<title>Node4</title>
<g id="a_node4"><a xlink:title=" ">
<polygon fill="white" stroke="#bfbfbf" points="925.5,-270.5 925.5,-296.5 1056.5,-296.5 1056.5,-270.5 925.5,-270.5"/>
<text text-anchor="middle" x="991" y="-279.7" font-family="Source Sans Pro" font-size="16.00">assimp/texture.h</text>
</a>
</g>
</g>
<!-- Node1&#45;&gt;Node4 -->
<g id="edge3" class="edge">
<title>Node1&#45;&gt;Node4</title>
<path fill="none" stroke="midnightblue" d="M1158.3,-333.63C1118.53,-321.95 1074.67,-309.07 1041.85,-299.43"/>
<polygon fill="midnightblue" stroke="midnightblue" points="1042.61,-296.01 1032.03,-296.55 1040.64,-302.73 1042.61,-296.01"/>
</g>
<!-- Node5 -->
<g id="node5" class="node">
<title>Node5</title>
<g id="a_node5"><a xlink:href="_i_e_texture_8hpp.html" target="_top" xlink:title=" ">
<polygon fill="white" stroke="black" points="1074.5,-270.5 1074.5,-296.5 1231.5,-296.5 1231.5,-270.5 1074.5,-270.5"/>
<text text-anchor="middle" x="1153" y="-279.7" font-family="Source Sans Pro" font-size="16.00">Image/IETexture.hpp</text>
</a>
</g>
</g>
<!-- Node1&#45;&gt;Node5 -->
<g id="edge4" class="edge">
<title>Node1&#45;&gt;Node5</title>
<path fill="none" stroke="midnightblue" d="M1219.24,-333.41C1205.27,-323.09 1190.07,-311.87 1177.75,-302.78"/>
<polygon fill="midnightblue" stroke="midnightblue" points="1179.48,-299.7 1169.36,-296.58 1175.32,-305.33 1179.48,-299.7"/>
</g>
<!-- Node9 -->
<g id="node9" class="node">
<title>Node9</title>
<g id="a_node9"><a xlink:title=" ">
<polygon fill="white" stroke="#bfbfbf" points="928.5,-0.5 928.5,-26.5 983.5,-26.5 983.5,-0.5 928.5,-0.5"/>
<text text-anchor="middle" x="956" y="-9.7" font-family="Source Sans Pro" font-size="16.00">string</text>
</a>
</g>
</g>
<!-- Node1&#45;&gt;Node9 -->
<g id="edge32" class="edge">
<title>Node1&#45;&gt;Node9</title>
<path fill="none" stroke="midnightblue" d="M1272.97,-333.38C1283.98,-305.05 1298,-261.18 1298,-221.5 1298,-221.5 1298,-221.5 1298,-147.5 1298,-93.28 1258.17,-87.89 1210,-63 1139.48,-26.56 1045.2,-17.32 993.63,-15.09"/>
<polygon fill="midnightblue" stroke="midnightblue" points="993.72,-11.59 983.6,-14.72 993.46,-18.59 993.72,-11.59"/>
</g>
<!-- Node16 -->
<g id="node16" class="node">
<title>Node16</title>
<g id="a_node16"><a xlink:title=" ">
<polygon fill="white" stroke="#bfbfbf" points="1102,-126.5 1102,-170.5 1232,-170.5 1232,-126.5 1102,-126.5"/>
<text text-anchor="start" x="1110" y="-153.7" font-family="Source Sans Pro" font-size="16.00">../contrib/stb/stb</text>
<text text-anchor="middle" x="1167" y="-135.7" font-family="Source Sans Pro" font-size="16.00">_image.h</text>
</a>
</g>
</g>
<!-- Node1&#45;&gt;Node16 -->
<g id="edge30" class="edge">
<title>Node1&#45;&gt;Node16</title>
<path fill="none" stroke="midnightblue" d="M1256.59,-333.26C1253.82,-314.56 1249.02,-290.34 1241,-270 1227.93,-236.84 1205.88,-202.54 1189.25,-179.06"/>
<polygon fill="midnightblue" stroke="midnightblue" points="1192.07,-176.99 1183.39,-170.92 1186.39,-181.08 1192.07,-176.99"/>
</g>
<!-- Node19 -->
<g id="node19" class="node">
<title>Node19</title>
<g id="a_node19"><a xlink:title=" ">
<polygon fill="white" stroke="#bfbfbf" points="1326,-270.5 1326,-296.5 1402,-296.5 1402,-270.5 1326,-270.5"/>
<text text-anchor="middle" x="1364" y="-279.7" font-family="Source Sans Pro" font-size="16.00">iostream</text>
</a>
</g>
</g>
<!-- Node1&#45;&gt;Node19 -->
<g id="edge31" class="edge">
<title>Node1&#45;&gt;Node19</title>
<path fill="none" stroke="midnightblue" d="M1299.61,-333.41C1313.19,-323.09 1327.97,-311.87 1339.94,-302.78"/>
<polygon fill="midnightblue" stroke="midnightblue" points="1342.26,-305.41 1348.1,-296.58 1338.02,-299.84 1342.26,-305.41"/>
</g>
<!-- Node20 -->
<g id="node20" class="node">
<title>Node20</title>
<g id="a_node20"><a xlink:title=" ">
<polygon fill="white" stroke="#bfbfbf" points="1420,-270.5 1420,-296.5 1548,-296.5 1548,-270.5 1420,-270.5"/>
<text text-anchor="middle" x="1484" y="-279.7" font-family="Source Sans Pro" font-size="16.00">unordered_map</text>
</a>
</g>
</g>
<!-- Node1&#45;&gt;Node20 -->
<g id="edge33" class="edge">
<title>Node1&#45;&gt;Node20</title>
<path fill="none" stroke="midnightblue" d="M1345.32,-333.41C1377.7,-321.99 1413.23,-309.46 1440.22,-299.94"/>
<polygon fill="midnightblue" stroke="midnightblue" points="1441.49,-303.2 1449.76,-296.58 1439.16,-296.6 1441.49,-303.2"/>
</g>
<!-- Node21 -->
<g id="node21" class="node">
<title>Node21</title>
<g id="a_node21"><a xlink:title=" ">
<polygon fill="white" stroke="#bfbfbf" points="1566,-270.5 1566,-296.5 1670,-296.5 1670,-270.5 1566,-270.5"/>
<text text-anchor="middle" x="1618" y="-279.7" font-family="Source Sans Pro" font-size="16.00">glm/glm.hpp</text>
</a>
</g>
</g>
<!-- Node1&#45;&gt;Node21 -->
<g id="edge34" class="edge">
<title>Node1&#45;&gt;Node21</title>
<path fill="none" stroke="midnightblue" d="M1361.63,-341.07C1424.16,-327.27 1502.3,-310.03 1555.77,-298.23"/>
<polygon fill="midnightblue" stroke="midnightblue" points="1556.78,-301.59 1565.79,-296.02 1555.27,-294.76 1556.78,-301.59"/>
</g>
<!-- Node5&#45;&gt;Node2 -->
<g id="edge26" class="edge">
<title>Node5&#45;&gt;Node2</title>
<path fill="none" stroke="midnightblue" d="M1074.36,-270.93C1071.2,-270.59 1068.07,-270.28 1065,-270 660.56,-233.4 556.28,-272.3 152,-234 150.74,-233.88 149.46,-233.75 148.18,-233.62"/>
<polygon fill="midnightblue" stroke="midnightblue" points="148.55,-230.14 138.22,-232.51 147.77,-237.1 148.55,-230.14"/>
</g>
<!-- Node6 -->
<g id="node6" class="node">
<title>Node6</title>
<g id="a_node6"><a xlink:href="_i_e_image_8hpp.html" target="_top" xlink:title=" ">
<polygon fill="white" stroke="black" points="614,-207.5 614,-233.5 716,-233.5 716,-207.5 614,-207.5"/>
<text text-anchor="middle" x="665" y="-216.7" font-family="Source Sans Pro" font-size="16.00">IEImage.hpp</text>
</a>
</g>
</g>
<!-- Node5&#45;&gt;Node6 -->
<g id="edge5" class="edge">
<title>Node5&#45;&gt;Node6</title>
<path fill="none" stroke="midnightblue" d="M1074.33,-271.24C1071.18,-270.82 1068.06,-270.4 1065,-270 945.19,-254.23 804.94,-237.66 726.39,-228.55"/>
<polygon fill="midnightblue" stroke="midnightblue" points="726.52,-225.04 716.19,-227.37 725.72,-231.99 726.52,-225.04"/>
</g>
<!-- Node5&#45;&gt;Node9 -->
<g id="edge29" class="edge">
<title>Node5&#45;&gt;Node9</title>
<path fill="none" stroke="midnightblue" d="M1168.87,-270.48C1201.21,-244.46 1269.36,-180.82 1241,-126 1194.65,-36.41 1060.31,-18.38 993.98,-15.04"/>
<polygon fill="midnightblue" stroke="midnightblue" points="994.07,-11.54 983.94,-14.62 993.78,-18.54 994.07,-11.54"/>
</g>
<!-- Node11 -->
<g id="node11" class="node">
<title>Node11</title>
<g id="a_node11"><a xlink:title=" ">
<polygon fill="white" stroke="#bfbfbf" points="1018.5,-63.5 1018.5,-89.5 1143.5,-89.5 1143.5,-63.5 1018.5,-63.5"/>
<text text-anchor="middle" x="1081" y="-72.7" font-family="Source Sans Pro" font-size="16.00">vulkan/vulkan.h</text>
</a>
</g>
</g>
<!-- Node5&#45;&gt;Node11 -->
<g id="edge27" class="edge">
<title>Node5&#45;&gt;Node11</title>
<path fill="none" stroke="midnightblue" d="M1144.58,-270.46C1131.23,-250.71 1105.43,-209.72 1093,-171 1085.43,-147.42 1082.62,-119.05 1081.58,-99.79"/>
<polygon fill="midnightblue" stroke="midnightblue" points="1085.07,-99.46 1081.15,-89.61 1078.08,-99.75 1085.07,-99.46"/>
</g>
<!-- Node14 -->
<g id="node14" class="node">
<title>Node14</title>
<g id="a_node14"><a xlink:title=" ">
<polygon fill="white" stroke="#bfbfbf" points="172.5,-0.5 172.5,-26.5 235.5,-26.5 235.5,-0.5 172.5,-0.5"/>
<text text-anchor="middle" x="204" y="-9.7" font-family="Source Sans Pro" font-size="16.00">cstdint</text>
</a>
</g>
</g>
<!-- Node5&#45;&gt;Node14 -->
<g id="edge28" class="edge">
<title>Node5&#45;&gt;Node14</title>
<path fill="none" stroke="midnightblue" d="M1074.35,-271.08C1071.19,-270.7 1068.07,-270.34 1065,-270 874.22,-249.01 340.38,-309.01 207,-171 172.41,-135.21 185.78,-70.51 196.19,-36.6"/>
<polygon fill="midnightblue" stroke="midnightblue" points="199.63,-37.34 199.4,-26.75 192.98,-35.17 199.63,-37.34"/>
</g>
<!-- Node5&#45;&gt;Node16 -->
<g id="edge25" class="edge">
<title>Node5&#45;&gt;Node16</title>
<path fill="none" stroke="midnightblue" d="M1154.29,-270.23C1156.4,-250.15 1160.66,-209.69 1163.67,-181.15"/>
<polygon fill="midnightblue" stroke="midnightblue" points="1167.18,-181.18 1164.75,-170.87 1160.22,-180.45 1167.18,-181.18"/>
</g>
<!-- Node7 -->
<g id="node7" class="node">
<title>Node7</title>
<g id="a_node7"><a xlink:href="_i_e_dependency_8hpp.html" target="_top" xlink:title=" ">
<polygon fill="white" stroke="black" points="724.5,-126.5 724.5,-170.5 969.5,-170.5 969.5,-126.5 724.5,-126.5"/>
<text text-anchor="start" x="732.5" y="-153.7" font-family="Source Sans Pro" font-size="16.00">GraphicsModule/CommandBuffer</text>
<text text-anchor="middle" x="847" y="-135.7" font-family="Source Sans Pro" font-size="16.00">/IEDependency.hpp</text>
</a>
</g>
</g>
<!-- Node6&#45;&gt;Node7 -->
<g id="edge6" class="edge">
<title>Node6&#45;&gt;Node7</title>
<path fill="none" stroke="midnightblue" d="M696.29,-207.47C720.04,-198.33 753.51,-185.46 782.88,-174.16"/>
<polygon fill="midnightblue" stroke="midnightblue" points="784.17,-177.41 792.25,-170.56 781.66,-170.88 784.17,-177.41"/>
</g>
<!-- Node6&#45;&gt;Node9 -->
<g id="edge23" class="edge">
<title>Node6&#45;&gt;Node9</title>
<path fill="none" stroke="midnightblue" d="M716.24,-219.29C796.18,-217.75 944.9,-209.62 978,-171 1010.82,-132.7 985.16,-68.69 968.08,-35.66"/>
<polygon fill="midnightblue" stroke="midnightblue" points="971.15,-33.99 963.34,-26.84 964.99,-37.3 971.15,-33.99"/>
</g>
<!-- Node10 -->
<g id="node10" class="node">
<title>Node10</title>
<g id="a_node10"><a xlink:title=" ">
<polygon fill="white" stroke="#bfbfbf" points="633.5,-0.5 633.5,-26.5 692.5,-26.5 692.5,-0.5 633.5,-0.5"/>
<text text-anchor="middle" x="663" y="-9.7" font-family="Source Sans Pro" font-size="16.00">vector</text>
</a>
</g>
</g>
<!-- Node6&#45;&gt;Node10 -->
<g id="edge24" class="edge">
<title>Node6&#45;&gt;Node10</title>
<path fill="none" stroke="midnightblue" d="M613.8,-217.09C510.31,-211.68 284.06,-196.99 261,-171 155.34,-51.9 502.37,-22.68 623.12,-16.2"/>
<polygon fill="midnightblue" stroke="midnightblue" points="623.61,-19.68 633.41,-15.67 623.25,-12.69 623.61,-19.68"/>
</g>
<!-- Node6&#45;&gt;Node11 -->
<g id="edge20" class="edge">
<title>Node6&#45;&gt;Node11</title>
<path fill="none" stroke="midnightblue" d="M716.05,-217.19C800.07,-212.59 963.06,-200.13 1012,-171 1040.26,-154.18 1060.51,-120.86 1071.49,-98.88"/>
<polygon fill="midnightblue" stroke="midnightblue" points="1074.73,-100.21 1075.88,-89.68 1068.42,-97.2 1074.73,-100.21"/>
</g>
<!-- Node12 -->
<g id="node12" class="node">
<title>Node12</title>
<g id="a_node12"><a xlink:href="_i_e_a_p_i_8hpp.html" target="_top" xlink:title=" ">
<polygon fill="white" stroke="black" points="623.5,-135.5 623.5,-161.5 706.5,-161.5 706.5,-135.5 623.5,-135.5"/>
<text text-anchor="middle" x="665" y="-144.7" font-family="Source Sans Pro" font-size="16.00">IEAPI.hpp</text>
</a>
</g>
</g>
<!-- Node6&#45;&gt;Node12 -->
<g id="edge11" class="edge">
<title>Node6&#45;&gt;Node12</title>
<path fill="none" stroke="midnightblue" d="M665,-207.31C665,-197.47 665,-183.38 665,-171.57"/>
<polygon fill="midnightblue" stroke="midnightblue" points="668.5,-171.55 665,-161.55 661.5,-171.55 668.5,-171.55"/>
</g>
<!-- Node6&#45;&gt;Node14 -->
<g id="edge21" class="edge">
<title>Node6&#45;&gt;Node14</title>
<path fill="none" stroke="midnightblue" d="M613.8,-216.99C506.46,-211.27 265.43,-195.8 238,-171 200.2,-136.83 199.1,-71.37 201.52,-36.94"/>
<polygon fill="midnightblue" stroke="midnightblue" points="205.05,-36.81 202.43,-26.54 198.07,-36.2 205.05,-36.81"/>
</g>
<!-- Node15 -->
<g id="node15" class="node">
<title>Node15</title>
<g id="a_node15"><a xlink:title=" ">
<polygon fill="white" stroke="#bfbfbf" points="270.5,-135.5 270.5,-161.5 353.5,-161.5 353.5,-135.5 270.5,-135.5"/>
<text text-anchor="middle" x="312" y="-144.7" font-family="Source Sans Pro" font-size="16.00">GL/glew.h</text>
</a>
</g>
</g>
<!-- Node6&#45;&gt;Node15 -->
<g id="edge17" class="edge">
<title>Node6&#45;&gt;Node15</title>
<path fill="none" stroke="midnightblue" d="M613.76,-215.2C552.82,-209.19 448.47,-196.09 362,-171 356.73,-169.47 351.27,-167.53 345.98,-165.43"/>
<polygon fill="midnightblue" stroke="midnightblue" points="347.31,-162.2 336.73,-161.57 344.61,-168.66 347.31,-162.2"/>
</g>
<!-- Node6&#45;&gt;Node16 -->
<g id="edge18" class="edge">
<title>Node6&#45;&gt;Node16</title>
<path fill="none" stroke="midnightblue" d="M716.2,-213.98C790.08,-205.81 930.83,-189.44 1050,-171 1063.55,-168.9 1077.94,-166.45 1091.82,-163.96"/>
<polygon fill="midnightblue" stroke="midnightblue" points="1092.61,-167.38 1101.82,-162.15 1091.36,-160.49 1092.61,-167.38"/>
</g>
<!-- Node17 -->
<g id="node17" class="node">
<title>Node17</title>
<g id="a_node17"><a xlink:title=" ">
<polygon fill="white" stroke="#bfbfbf" points="371.5,-135.5 371.5,-161.5 500.5,-161.5 500.5,-135.5 371.5,-135.5"/>
<text text-anchor="middle" x="436" y="-144.7" font-family="Source Sans Pro" font-size="16.00">vk_mem_alloc.h</text>
</a>
</g>
</g>
<!-- Node6&#45;&gt;Node17 -->
<g id="edge19" class="edge">
<title>Node6&#45;&gt;Node17</title>
<path fill="none" stroke="midnightblue" d="M625.63,-207.47C586.8,-195.6 527.33,-177.42 485.36,-164.59"/>
<polygon fill="midnightblue" stroke="midnightblue" points="486.21,-161.19 475.62,-161.61 484.16,-167.88 486.21,-161.19"/>
</g>
<!-- Node18 -->
<g id="node18" class="node">
<title>Node18</title>
<g id="a_node18"><a xlink:title=" ">
<polygon fill="white" stroke="#bfbfbf" points="519,-135.5 519,-161.5 605,-161.5 605,-135.5 519,-135.5"/>
<text text-anchor="middle" x="562" y="-144.7" font-family="Source Sans Pro" font-size="16.00">functional</text>
</a>
</g>
</g>
<!-- Node6&#45;&gt;Node18 -->
<g id="edge22" class="edge">
<title>Node6&#45;&gt;Node18</title>
<path fill="none" stroke="midnightblue" d="M647.06,-207.31C630.74,-196.22 606.45,-179.71 588.01,-167.17"/>
<polygon fill="midnightblue" stroke="midnightblue" points="589.97,-164.28 579.74,-161.55 586.04,-170.07 589.97,-164.28"/>
</g>
<!-- Node8 -->
<g id="node8" class="node">
<title>Node8</title>
<g id="a_node8"><a xlink:title=" ">
<polygon fill="white" stroke="#bfbfbf" points="812,-63.5 812,-89.5 886,-89.5 886,-63.5 812,-63.5"/>
<text text-anchor="middle" x="849" y="-72.7" font-family="Source Sans Pro" font-size="16.00">memory</text>
</a>
</g>
</g>
<!-- Node7&#45;&gt;Node8 -->
<g id="edge7" class="edge">
<title>Node7&#45;&gt;Node8</title>
<path fill="none" stroke="midnightblue" d="M847.6,-126.5C847.84,-118 848.12,-108.19 848.37,-99.59"/>
<polygon fill="midnightblue" stroke="midnightblue" points="851.87,-99.63 848.66,-89.53 844.87,-99.43 851.87,-99.63"/>
</g>
<!-- Node7&#45;&gt;Node9 -->
<g id="edge8" class="edge">
<title>Node7&#45;&gt;Node9</title>
<path fill="none" stroke="midnightblue" d="M864.86,-126.27C873.93,-115.45 885.1,-102.06 895,-90 910.29,-71.39 927.52,-50.02 939.76,-34.78"/>
<polygon fill="midnightblue" stroke="midnightblue" points="942.81,-36.57 946.34,-26.58 937.35,-32.19 942.81,-36.57"/>
</g>
<!-- Node7&#45;&gt;Node10 -->
<g id="edge9" class="edge">
<title>Node7&#45;&gt;Node10</title>
<path fill="none" stroke="midnightblue" d="M817.84,-126.43C782.12,-100.61 722.19,-57.29 688.32,-32.8"/>
<polygon fill="midnightblue" stroke="midnightblue" points="690.05,-29.74 679.9,-26.71 685.95,-35.41 690.05,-29.74"/>
</g>
<!-- Node7&#45;&gt;Node11 -->
<g id="edge10" class="edge">
<title>Node7&#45;&gt;Node11</title>
<path fill="none" stroke="midnightblue" d="M917.21,-126.5C953.81,-115.55 997.72,-102.41 1030.86,-92.5"/>
<polygon fill="midnightblue" stroke="midnightblue" points="1032.2,-95.75 1040.78,-89.53 1030.2,-89.04 1032.2,-95.75"/>
</g>
<!-- Node12&#45;&gt;Node9 -->
<g id="edge16" class="edge">
<title>Node12&#45;&gt;Node9</title>
<path fill="none" stroke="midnightblue" d="M681.68,-135.43C706.91,-117.61 756.74,-84.11 803,-63 841.08,-45.62 887.16,-31.93 918.74,-23.59"/>
<polygon fill="midnightblue" stroke="midnightblue" points="919.65,-26.97 928.45,-21.07 917.89,-20.2 919.65,-26.97"/>
</g>
<!-- Node13 -->
<g id="node13" class="node">
<title>Node13</title>
<g id="a_node13"><a xlink:href="_i_e_version_8hpp.html" target="_top" xlink:title=" ">
<polygon fill="white" stroke="black" points="608,-63.5 608,-89.5 718,-89.5 718,-63.5 608,-63.5"/>
<text text-anchor="middle" x="663" y="-72.7" font-family="Source Sans Pro" font-size="16.00">IEVersion.hpp</text>
</a>
</g>
</g>
<!-- Node12&#45;&gt;Node13 -->
<g id="edge12" class="edge">
<title>Node12&#45;&gt;Node13</title>
<path fill="none" stroke="midnightblue" d="M664.65,-135.31C664.37,-125.47 663.97,-111.38 663.63,-99.57"/>
<polygon fill="midnightblue" stroke="midnightblue" points="667.13,-99.45 663.34,-89.55 660.13,-99.65 667.13,-99.45"/>
</g>
<!-- Node13&#45;&gt;Node9 -->
<g id="edge14" class="edge">
<title>Node13&#45;&gt;Node9</title>
<path fill="none" stroke="midnightblue" d="M718.11,-64.03C776.58,-51.85 867.38,-32.95 918.22,-22.36"/>
<polygon fill="midnightblue" stroke="midnightblue" points="919.06,-25.77 928.14,-20.3 917.64,-18.91 919.06,-25.77"/>
</g>
<!-- Node13&#45;&gt;Node10 -->
<g id="edge15" class="edge">
<title>Node13&#45;&gt;Node10</title>
<path fill="none" stroke="midnightblue" d="M663,-63.45C663,-55.85 663,-45.79 663,-36.78"/>
<polygon fill="midnightblue" stroke="midnightblue" points="666.5,-36.53 663,-26.53 659.5,-36.53 666.5,-36.53"/>
</g>
<!-- Node13&#45;&gt;Node14 -->
<g id="edge13" class="edge">
<title>Node13&#45;&gt;Node14</title>
<path fill="none" stroke="midnightblue" d="M607.63,-68.14C514.57,-55.77 328.83,-31.09 245.8,-20.05"/>
<polygon fill="midnightblue" stroke="midnightblue" points="246.09,-16.56 235.72,-18.72 245.17,-23.5 246.09,-16.56"/>
</g>
</g>
</svg>
