<?xml version="1.0" encoding="UTF-8" standalone="no"?>
<!DOCTYPE svg PUBLIC "-//W3C//DTD SVG 1.1//EN"
 "http://www.w3.org/Graphics/SVG/1.1/DTD/svg11.dtd">
<!-- Generated by graphviz version 2.43.0 (0)
 -->
<!-- Title: Illumination&#45;Engine/src/GraphicsModule/Renderable/IEMesh.hpp Pages: 1 -->
<svg width="2220pt" height="503pt"
 viewBox="0.00 0.00 2220.00 503.00" xmlns="http://www.w3.org/2000/svg" xmlns:xlink="http://www.w3.org/1999/xlink">
<g id="graph0" class="graph" transform="scale(1 1) rotate(0) translate(4 499)">
<title>Illumination&#45;Engine/src/GraphicsModule/Renderable/IEMesh.hpp</title>
<polygon fill="white" stroke="transparent" points="-4,4 -4,-499 2216,-499 2216,4 -4,4"/>
<!-- Node1 -->
<g id="node1" class="node">
<title>Node1</title>
<g id="a_node1"><a xlink:title=" ">
<polygon fill="#bfbfbf" stroke="black" points="1036.5,-432.5 1036.5,-494.5 1221.5,-494.5 1221.5,-432.5 1036.5,-432.5"/>
<text text-anchor="start" x="1044.5" y="-477.7" font-family="Source Sans Pro" font-size="16.00">Illumination&#45;Engine</text>
<text text-anchor="start" x="1044.5" y="-459.7" font-family="Source Sans Pro" font-size="16.00">/src/GraphicsModule</text>
<text text-anchor="middle" x="1129" y="-441.7" font-family="Source Sans Pro" font-size="16.00">/Renderable/IEMesh.hpp</text>
</a>
</g>
</g>
<!-- Node2 -->
<g id="node2" class="node">
<title>Node2</title>
<g id="a_node2"><a xlink:href="_i_e_buffer_8hpp.html" target="_top" xlink:title=" ">
<polygon fill="white" stroke="black" points="1055.5,-216.5 1055.5,-242.5 1202.5,-242.5 1202.5,-216.5 1055.5,-216.5"/>
<text text-anchor="middle" x="1129" y="-225.7" font-family="Source Sans Pro" font-size="16.00">Buffer/IEBuffer.hpp</text>
</a>
</g>
</g>
<!-- Node1&#45;&gt;Node2 -->
<g id="edge1" class="edge">
<title>Node1&#45;&gt;Node2</title>
<path fill="none" stroke="midnightblue" d="M1129,-432.17C1129,-384.92 1129,-294.81 1129,-252.93"/>
<polygon fill="midnightblue" stroke="midnightblue" points="1132.5,-252.7 1129,-242.7 1125.5,-252.7 1132.5,-252.7"/>
</g>
<!-- Node6 -->
<g id="node6" class="node">
<title>Node6</title>
<g id="a_node6"><a xlink:title=" ">
<polygon fill="white" stroke="#bfbfbf" points="490.5,-0.5 490.5,-26.5 549.5,-26.5 549.5,-0.5 490.5,-0.5"/>
<text text-anchor="middle" x="520" y="-9.7" font-family="Source Sans Pro" font-size="16.00">vector</text>
</a>
</g>
</g>
<!-- Node1&#45;&gt;Node6 -->
<g id="edge78" class="edge">
<title>Node1&#45;&gt;Node6</title>
<path fill="none" stroke="midnightblue" d="M1036.13,-459.8C766.06,-450.71 0,-415.75 0,-311.5 0,-311.5 0,-311.5 0,-147.5 0,-94.55 36.31,-86.01 84,-63 153.52,-29.46 386.27,-18.63 480.19,-15.57"/>
<polygon fill="midnightblue" stroke="midnightblue" points="480.53,-19.06 490.42,-15.25 480.31,-12.06 480.53,-19.06"/>
</g>
<!-- Node10 -->
<g id="node10" class="node">
<title>Node10</title>
<g id="a_node10"><a xlink:title=" ">
<polygon fill="white" stroke="#bfbfbf" points="1720.5,-0.5 1720.5,-26.5 1783.5,-26.5 1783.5,-0.5 1720.5,-0.5"/>
<text text-anchor="middle" x="1752" y="-9.7" font-family="Source Sans Pro" font-size="16.00">cstdint</text>
</a>
</g>
</g>
<!-- Node1&#45;&gt;Node10 -->
<g id="edge77" class="edge">
<title>Node1&#45;&gt;Node10</title>
<path fill="none" stroke="midnightblue" d="M1221.8,-459.26C1484.1,-448.88 2212,-411.11 2212,-311.5 2212,-311.5 2212,-311.5 2212,-147.5 2212,-60.84 1906.89,-27.12 1793.65,-17.59"/>
<polygon fill="midnightblue" stroke="midnightblue" points="1793.87,-14.09 1783.62,-16.76 1793.3,-21.07 1793.87,-14.09"/>
</g>
<!-- Node14 -->
<g id="node14" class="node">
<title>Node14</title>
<g id="a_node14"><a xlink:href="_i_e_descriptor_set_8hpp.html" target="_top" xlink:title=" ">
<polygon fill="white" stroke="black" points="272,-207.5 272,-251.5 452,-251.5 452,-207.5 272,-207.5"/>
<text text-anchor="start" x="280" y="-234.7" font-family="Source Sans Pro" font-size="16.00">GraphicsModule/Shader</text>
<text text-anchor="middle" x="362" y="-216.7" font-family="Source Sans Pro" font-size="16.00">/IEDescriptorSet.hpp</text>
</a>
</g>
</g>
<!-- Node1&#45;&gt;Node14 -->
<g id="edge19" class="edge">
<title>Node1&#45;&gt;Node14</title>
<path fill="none" stroke="midnightblue" d="M1036.48,-434.52C884.39,-388.51 584.16,-297.7 441.23,-254.47"/>
<polygon fill="midnightblue" stroke="midnightblue" points="442.22,-251.11 431.64,-251.56 440.19,-257.81 442.22,-251.11"/>
</g>
<!-- Node17 -->
<g id="node17" class="node">
<title>Node17</title>
<g id="a_node17"><a xlink:href="_i_e_pipeline_8hpp.html" target="_top" xlink:title=" ">
<polygon fill="white" stroke="black" points="719,-288.5 719,-332.5 899,-332.5 899,-288.5 719,-288.5"/>
<text text-anchor="start" x="727" y="-315.7" font-family="Source Sans Pro" font-size="16.00">GraphicsModule/Shader</text>
<text text-anchor="middle" x="809" y="-297.7" font-family="Source Sans Pro" font-size="16.00">/IEPipeline.hpp</text>
</a>
</g>
</g>
<!-- Node1&#45;&gt;Node17 -->
<g id="edge27" class="edge">
<title>Node1&#45;&gt;Node17</title>
<path fill="none" stroke="midnightblue" d="M1065.4,-432.49C1006.3,-404.6 919.22,-363.51 863.31,-337.13"/>
<polygon fill="midnightblue" stroke="midnightblue" points="864.47,-333.8 853.93,-332.7 861.48,-340.13 864.47,-333.8"/>
</g>
<!-- Node24 -->
<g id="node24" class="node">
<title>Node24</title>
<g id="a_node24"><a xlink:href="_i_e_material_8hpp.html" target="_top" xlink:title=" ">
<polygon fill="white" stroke="black" points="1815,-369.5 1815,-395.5 1929,-395.5 1929,-369.5 1815,-369.5"/>
<text text-anchor="middle" x="1872" y="-378.7" font-family="Source Sans Pro" font-size="16.00">IEMaterial.hpp</text>
</a>
</g>
</g>
<!-- Node1&#45;&gt;Node24 -->
<g id="edge46" class="edge">
<title>Node1&#45;&gt;Node24</title>
<path fill="none" stroke="midnightblue" d="M1221.6,-452.65C1373.25,-436.53 1671.03,-404.87 1804.5,-390.68"/>
<polygon fill="midnightblue" stroke="midnightblue" points="1805.01,-394.14 1814.59,-389.6 1804.27,-387.18 1805.01,-394.14"/>
</g>
<!-- Node33 -->
<g id="node33" class="node">
<title>Node33</title>
<g id="a_node33"><a xlink:href="_i_e_vertex_8hpp.html" target="_top" xlink:title=" ">
<polygon fill="white" stroke="black" points="1168.5,-369.5 1168.5,-395.5 1269.5,-395.5 1269.5,-369.5 1168.5,-369.5"/>
<text text-anchor="middle" x="1219" y="-378.7" font-family="Source Sans Pro" font-size="16.00">IEVertex.hpp</text>
</a>
</g>
</g>
<!-- Node1&#45;&gt;Node33 -->
<g id="edge72" class="edge">
<title>Node1&#45;&gt;Node33</title>
<path fill="none" stroke="midnightblue" d="M1163.28,-432.41C1174.73,-422.36 1187.16,-411.45 1197.36,-402.49"/>
<polygon fill="midnightblue" stroke="midnightblue" points="1199.81,-405 1205.01,-395.78 1195.19,-399.74 1199.81,-405"/>
</g>
<!-- Node3 -->
<g id="node3" class="node">
<title>Node3</title>
<g id="a_node3"><a xlink:href="_i_e_dependency_8hpp.html" target="_top" xlink:title=" ">
<polygon fill="white" stroke="black" points="766.5,-126.5 766.5,-170.5 1011.5,-170.5 1011.5,-126.5 766.5,-126.5"/>
<text text-anchor="start" x="774.5" y="-153.7" font-family="Source Sans Pro" font-size="16.00">GraphicsModule/CommandBuffer</text>
<text text-anchor="middle" x="889" y="-135.7" font-family="Source Sans Pro" font-size="16.00">/IEDependency.hpp</text>
</a>
</g>
</g>
<!-- Node2&#45;&gt;Node3 -->
<g id="edge2" class="edge">
<title>Node2&#45;&gt;Node3</title>
<path fill="none" stroke="midnightblue" d="M1092.29,-216.42C1057.98,-205.12 1005.76,-187.93 962.84,-173.8"/>
<polygon fill="midnightblue" stroke="midnightblue" points="963.86,-170.46 953.27,-170.66 961.67,-177.11 963.86,-170.46"/>
</g>
<!-- Node2&#45;&gt;Node6 -->
<g id="edge18" class="edge">
<title>Node2&#45;&gt;Node6</title>
<path fill="none" stroke="midnightblue" d="M1131.01,-216.19C1135.3,-185.1 1141.63,-103.09 1097,-63 1057.17,-27.22 684.04,-17.4 559.93,-15.12"/>
<polygon fill="midnightblue" stroke="midnightblue" points="559.78,-11.61 549.72,-14.94 559.66,-18.61 559.78,-11.61"/>
</g>
<!-- Node7 -->
<g id="node7" class="node">
<title>Node7</title>
<g id="a_node7"><a xlink:title=" ">
<polygon fill="white" stroke="#bfbfbf" points="962.5,-63.5 962.5,-89.5 1087.5,-89.5 1087.5,-63.5 962.5,-63.5"/>
<text text-anchor="middle" x="1025" y="-72.7" font-family="Source Sans Pro" font-size="16.00">vulkan/vulkan.h</text>
</a>
</g>
</g>
<!-- Node2&#45;&gt;Node7 -->
<g id="edge15" class="edge">
<title>Node2&#45;&gt;Node7</title>
<path fill="none" stroke="midnightblue" d="M1120.67,-216.4C1102.94,-190.67 1061.33,-130.25 1039.29,-98.25"/>
<polygon fill="midnightblue" stroke="midnightblue" points="1041.93,-95.91 1033.37,-89.66 1036.16,-99.88 1041.93,-95.91"/>
</g>
<!-- Node8 -->
<g id="node8" class="node">
<title>Node8</title>
<g id="a_node8"><a xlink:href="_i_e_a_p_i_8hpp.html" target="_top" xlink:title=" ">
<polygon fill="white" stroke="black" points="1144.5,-135.5 1144.5,-161.5 1227.5,-161.5 1227.5,-135.5 1144.5,-135.5"/>
<text text-anchor="middle" x="1186" y="-144.7" font-family="Source Sans Pro" font-size="16.00">IEAPI.hpp</text>
</a>
</g>
</g>
<!-- Node2&#45;&gt;Node8 -->
<g id="edge7" class="edge">
<title>Node2&#45;&gt;Node8</title>
<path fill="none" stroke="midnightblue" d="M1137.91,-216.16C1146.77,-203.87 1160.55,-184.78 1171.09,-170.17"/>
<polygon fill="midnightblue" stroke="midnightblue" points="1174.14,-171.91 1177.16,-161.76 1168.47,-167.82 1174.14,-171.91"/>
</g>
<!-- Node2&#45;&gt;Node10 -->
<g id="edge16" class="edge">
<title>Node2&#45;&gt;Node10</title>
<path fill="none" stroke="midnightblue" d="M1158.25,-216.48C1181.03,-206.31 1212.75,-190.33 1237,-171 1257.7,-154.5 1252.53,-138.24 1276,-126 1411.91,-55.13 1473.05,-136.82 1619,-90 1659.71,-76.94 1701.82,-50.44 1727.47,-32.57"/>
<polygon fill="midnightblue" stroke="midnightblue" points="1729.69,-35.29 1735.83,-26.65 1725.64,-29.58 1729.69,-35.29"/>
</g>
<!-- Node11 -->
<g id="node11" class="node">
<title>Node11</title>
<g id="a_node11"><a xlink:title=" ">
<polygon fill="white" stroke="#bfbfbf" points="1385.5,-135.5 1385.5,-161.5 1514.5,-161.5 1514.5,-135.5 1385.5,-135.5"/>
<text text-anchor="middle" x="1450" y="-144.7" font-family="Source Sans Pro" font-size="16.00">vk_mem_alloc.h</text>
</a>
</g>
</g>
<!-- Node2&#45;&gt;Node11 -->
<g id="edge13" class="edge">
<title>Node2&#45;&gt;Node11</title>
<path fill="none" stroke="midnightblue" d="M1185.37,-216.42C1235.79,-205.38 1311.6,-188.2 1377,-171 1384.81,-168.95 1393.06,-166.65 1401.08,-164.34"/>
<polygon fill="midnightblue" stroke="midnightblue" points="1402.1,-167.69 1410.72,-161.53 1400.14,-160.97 1402.1,-167.69"/>
</g>
<!-- Node12 -->
<g id="node12" class="node">
<title>Node12</title>
<g id="a_node12"><a xlink:title=" ">
<polygon fill="white" stroke="#bfbfbf" points="1284.5,-135.5 1284.5,-161.5 1367.5,-161.5 1367.5,-135.5 1284.5,-135.5"/>
<text text-anchor="middle" x="1326" y="-144.7" font-family="Source Sans Pro" font-size="16.00">GL/glew.h</text>
</a>
</g>
</g>
<!-- Node2&#45;&gt;Node12 -->
<g id="edge14" class="edge">
<title>Node2&#45;&gt;Node12</title>
<path fill="none" stroke="midnightblue" d="M1159.35,-216.33C1193.43,-202.66 1248.87,-180.43 1286.35,-165.4"/>
<polygon fill="midnightblue" stroke="midnightblue" points="1287.96,-168.53 1295.94,-161.55 1285.36,-162.03 1287.96,-168.53"/>
</g>
<!-- Node13 -->
<g id="node13" class="node">
<title>Node13</title>
<g id="a_node13"><a xlink:title=" ">
<polygon fill="white" stroke="#bfbfbf" points="662,-135.5 662,-161.5 748,-161.5 748,-135.5 662,-135.5"/>
<text text-anchor="middle" x="705" y="-144.7" font-family="Source Sans Pro" font-size="16.00">functional</text>
</a>
</g>
</g>
<!-- Node2&#45;&gt;Node13 -->
<g id="edge17" class="edge">
<title>Node2&#45;&gt;Node13</title>
<path fill="none" stroke="midnightblue" d="M1055.43,-222.17C979.81,-214.48 859.15,-198.95 758,-171 752.3,-169.42 746.38,-167.42 740.65,-165.27"/>
<polygon fill="midnightblue" stroke="midnightblue" points="741.86,-161.98 731.27,-161.56 739.29,-168.49 741.86,-161.98"/>
</g>
<!-- Node4 -->
<g id="node4" class="node">
<title>Node4</title>
<g id="a_node4"><a xlink:title=" ">
<polygon fill="white" stroke="#bfbfbf" points="738,-63.5 738,-89.5 812,-89.5 812,-63.5 738,-63.5"/>
<text text-anchor="middle" x="775" y="-72.7" font-family="Source Sans Pro" font-size="16.00">memory</text>
</a>
</g>
</g>
<!-- Node3&#45;&gt;Node4 -->
<g id="edge3" class="edge">
<title>Node3&#45;&gt;Node4</title>
<path fill="none" stroke="midnightblue" d="M854.8,-126.5C838.35,-116.4 818.87,-104.44 803.27,-94.86"/>
<polygon fill="midnightblue" stroke="midnightblue" points="804.95,-91.78 794.59,-89.53 801.28,-97.75 804.95,-91.78"/>
</g>
<!-- Node5 -->
<g id="node5" class="node">
<title>Node5</title>
<g id="a_node5"><a xlink:title=" ">
<polygon fill="white" stroke="#bfbfbf" points="1527.5,-0.5 1527.5,-26.5 1582.5,-26.5 1582.5,-0.5 1527.5,-0.5"/>
<text text-anchor="middle" x="1555" y="-9.7" font-family="Source Sans Pro" font-size="16.00">string</text>
</a>
</g>
</g>
<!-- Node3&#45;&gt;Node5 -->
<g id="edge4" class="edge">
<title>Node3&#45;&gt;Node5</title>
<path fill="none" stroke="midnightblue" d="M898.79,-126.35C909.33,-106.25 928.14,-77.05 954,-63 1003.38,-36.17 1392.8,-20.22 1517.05,-15.78"/>
<polygon fill="midnightblue" stroke="midnightblue" points="1517.35,-19.27 1527.22,-15.42 1517.1,-12.28 1517.35,-19.27"/>
</g>
<!-- Node3&#45;&gt;Node6 -->
<g id="edge5" class="edge">
<title>Node3&#45;&gt;Node6</title>
<path fill="none" stroke="midnightblue" d="M830.48,-126.49C800.18,-115.61 762.6,-102.11 729,-90 669.86,-68.69 601.34,-43.92 559.33,-28.73"/>
<polygon fill="midnightblue" stroke="midnightblue" points="560.35,-25.38 549.76,-25.27 557.97,-31.96 560.35,-25.38"/>
</g>
<!-- Node3&#45;&gt;Node7 -->
<g id="edge6" class="edge">
<title>Node3&#45;&gt;Node7</title>
<path fill="none" stroke="midnightblue" d="M929.8,-126.5C949.88,-116.16 973.75,-103.88 992.57,-94.19"/>
<polygon fill="midnightblue" stroke="midnightblue" points="994.34,-97.22 1001.63,-89.53 991.13,-91 994.34,-97.22"/>
</g>
<!-- Node8&#45;&gt;Node5 -->
<g id="edge12" class="edge">
<title>Node8&#45;&gt;Node5</title>
<path fill="none" stroke="midnightblue" d="M1217.05,-135.42C1225.16,-132.31 1233.89,-129 1242,-126 1341.22,-89.29 1458.91,-47.95 1517.69,-27.46"/>
<polygon fill="midnightblue" stroke="midnightblue" points="1518.99,-30.71 1527.28,-24.12 1516.69,-24.1 1518.99,-30.71"/>
</g>
<!-- Node9 -->
<g id="node9" class="node">
<title>Node9</title>
<g id="a_node9"><a xlink:href="_i_e_version_8hpp.html" target="_top" xlink:title=" ">
<polygon fill="white" stroke="black" points="1500,-63.5 1500,-89.5 1610,-89.5 1610,-63.5 1500,-63.5"/>
<text text-anchor="middle" x="1555" y="-72.7" font-family="Source Sans Pro" font-size="16.00">IEVersion.hpp</text>
</a>
</g>
</g>
<!-- Node8&#45;&gt;Node9 -->
<g id="edge8" class="edge">
<title>Node8&#45;&gt;Node9</title>
<path fill="none" stroke="midnightblue" d="M1213.8,-135.44C1222.68,-131.97 1232.63,-128.46 1242,-126 1348.03,-98.19 1377.83,-107.77 1486,-90 1487.25,-89.79 1488.51,-89.59 1489.78,-89.37"/>
<polygon fill="midnightblue" stroke="midnightblue" points="1490.4,-92.82 1499.67,-87.69 1489.22,-85.92 1490.4,-92.82"/>
</g>
<!-- Node9&#45;&gt;Node5 -->
<g id="edge10" class="edge">
<title>Node9&#45;&gt;Node5</title>
<path fill="none" stroke="midnightblue" d="M1555,-63.45C1555,-55.85 1555,-45.79 1555,-36.78"/>
<polygon fill="midnightblue" stroke="midnightblue" points="1558.5,-36.53 1555,-26.53 1551.5,-36.53 1558.5,-36.53"/>
</g>
<!-- Node9&#45;&gt;Node6 -->
<g id="edge11" class="edge">
<title>Node9&#45;&gt;Node6</title>
<path fill="none" stroke="midnightblue" d="M1499.81,-68.37C1483.18,-66.4 1464.87,-64.42 1448,-63 1104.78,-34.01 688.6,-19.64 559.86,-15.67"/>
<polygon fill="midnightblue" stroke="midnightblue" points="559.8,-12.17 549.7,-15.36 559.58,-19.16 559.8,-12.17"/>
</g>
<!-- Node9&#45;&gt;Node10 -->
<g id="edge9" class="edge">
<title>Node9&#45;&gt;Node10</title>
<path fill="none" stroke="midnightblue" d="M1593.92,-63.45C1627.6,-53.02 1676.16,-37.98 1710.56,-27.33"/>
<polygon fill="midnightblue" stroke="midnightblue" points="1711.79,-30.62 1720.3,-24.31 1709.72,-23.93 1711.79,-30.62"/>
</g>
<!-- Node14&#45;&gt;Node3 -->
<g id="edge20" class="edge">
<title>Node14&#45;&gt;Node3</title>
<path fill="none" stroke="midnightblue" d="M452.27,-215.8C530.03,-204.76 645.55,-188.12 756.38,-171.08"/>
<polygon fill="midnightblue" stroke="midnightblue" points="757.05,-174.52 766.4,-169.54 755.99,-167.6 757.05,-174.52"/>
</g>
<!-- Node14&#45;&gt;Node6 -->
<g id="edge26" class="edge">
<title>Node14&#45;&gt;Node6</title>
<path fill="none" stroke="midnightblue" d="M271.66,-227C181.32,-221.37 60.4,-200.26 95,-126 113.39,-86.54 130.22,-80.68 170,-63 224.92,-38.59 400.83,-23.13 480.33,-17.22"/>
<polygon fill="midnightblue" stroke="midnightblue" points="480.72,-20.71 490.43,-16.49 480.21,-13.72 480.72,-20.71"/>
</g>
<!-- Node14&#45;&gt;Node7 -->
<g id="edge21" class="edge">
<title>Node14&#45;&gt;Node7</title>
<path fill="none" stroke="midnightblue" d="M414.17,-207.4C481.09,-180.62 593.7,-136.62 637,-126 652.09,-122.3 844.07,-99.08 952.19,-86.16"/>
<polygon fill="midnightblue" stroke="midnightblue" points="952.87,-89.6 962.38,-84.94 952.04,-82.65 952.87,-89.6"/>
</g>
<!-- Node14&#45;&gt;Node10 -->
<g id="edge22" class="edge">
<title>Node14&#45;&gt;Node10</title>
<path fill="none" stroke="midnightblue" d="M340.55,-207.34C329.94,-196.65 317.06,-183.35 306,-171 288.73,-151.71 288.95,-142.5 269,-126 243.25,-104.71 220.06,-118.73 203,-90 196.87,-79.68 194.63,-71.59 203,-63 229.94,-35.36 1553.46,-29 1592,-27 1632.3,-24.91 1678.21,-21.18 1710.48,-18.34"/>
<polygon fill="midnightblue" stroke="midnightblue" points="1710.81,-21.82 1720.46,-17.45 1710.19,-14.85 1710.81,-21.82"/>
</g>
<!-- Node14&#45;&gt;Node13 -->
<g id="edge23" class="edge">
<title>Node14&#45;&gt;Node13</title>
<path fill="none" stroke="midnightblue" d="M452.12,-207.74C515.7,-193.1 598.72,-173.98 651.96,-161.72"/>
<polygon fill="midnightblue" stroke="midnightblue" points="652.91,-165.09 661.87,-159.43 651.34,-158.27 652.91,-165.09"/>
</g>
<!-- Node15 -->
<g id="node15" class="node">
<title>Node15</title>
<g id="a_node15"><a xlink:title=" ">
<polygon fill="white" stroke="#bfbfbf" points="104.5,-135.5 104.5,-161.5 177.5,-161.5 177.5,-135.5 104.5,-135.5"/>
<text text-anchor="middle" x="141" y="-144.7" font-family="Source Sans Pro" font-size="16.00">optional</text>
</a>
</g>
</g>
<!-- Node14&#45;&gt;Node15 -->
<g id="edge24" class="edge">
<title>Node14&#45;&gt;Node15</title>
<path fill="none" stroke="midnightblue" d="M291.49,-207.45C259.3,-197.3 220.89,-184.43 187,-171 183.04,-169.43 178.93,-167.68 174.87,-165.89"/>
<polygon fill="midnightblue" stroke="midnightblue" points="176.14,-162.62 165.59,-161.66 173.24,-168.99 176.14,-162.62"/>
</g>
<!-- Node16 -->
<g id="node16" class="node">
<title>Node16</title>
<g id="a_node16"><a xlink:title=" ">
<polygon fill="white" stroke="#bfbfbf" points="196,-135.5 196,-161.5 260,-161.5 260,-135.5 196,-135.5"/>
<text text-anchor="middle" x="228" y="-144.7" font-family="Source Sans Pro" font-size="16.00">variant</text>
</a>
</g>
</g>
<!-- Node14&#45;&gt;Node16 -->
<g id="edge25" class="edge">
<title>Node14&#45;&gt;Node16</title>
<path fill="none" stroke="midnightblue" d="M326.09,-207.33C304.58,-194.65 277.57,-178.72 257.34,-166.8"/>
<polygon fill="midnightblue" stroke="midnightblue" points="258.96,-163.69 248.57,-161.63 255.41,-169.72 258.96,-163.69"/>
</g>
<!-- Node17&#45;&gt;Node3 -->
<g id="edge28" class="edge">
<title>Node17&#45;&gt;Node3</title>
<path fill="none" stroke="midnightblue" d="M819.62,-288.25C833.53,-260.44 857.99,-211.52 873.84,-179.82"/>
<polygon fill="midnightblue" stroke="midnightblue" points="877.12,-181.09 878.46,-170.58 870.86,-177.96 877.12,-181.09"/>
</g>
<!-- Node17&#45;&gt;Node6 -->
<g id="edge45" class="edge">
<title>Node17&#45;&gt;Node6</title>
<path fill="none" stroke="midnightblue" d="M718.83,-307.6C540.22,-301.56 152.79,-276.32 85,-171 57.91,-128.9 75.97,-91.69 117,-63 175.05,-22.4 390.46,-15.66 480.28,-14.63"/>
<polygon fill="midnightblue" stroke="midnightblue" points="480.37,-18.13 490.34,-14.54 480.31,-11.13 480.37,-18.13"/>
</g>
<!-- Node17&#45;&gt;Node7 -->
<g id="edge43" class="edge">
<title>Node17&#45;&gt;Node7</title>
<path fill="none" stroke="midnightblue" d="M868.68,-288.46C918.95,-267.26 987.84,-229.27 1021,-171 1033.41,-149.2 1032.3,-119.68 1029.47,-99.69"/>
<polygon fill="midnightblue" stroke="midnightblue" points="1032.9,-98.95 1027.8,-89.67 1026,-100.11 1032.9,-98.95"/>
</g>
<!-- Node17&#45;&gt;Node13 -->
<g id="edge44" class="edge">
<title>Node17&#45;&gt;Node13</title>
<path fill="none" stroke="midnightblue" d="M800.47,-288.12C791.45,-266.68 776.04,-233.19 758,-207 748.58,-193.32 736.06,-179.59 725.56,-168.98"/>
<polygon fill="midnightblue" stroke="midnightblue" points="727.91,-166.38 718.34,-161.84 722.99,-171.36 727.91,-166.38"/>
</g>
<!-- Node18 -->
<g id="node18" class="node">
<title>Node18</title>
<g id="a_node18"><a xlink:href="_i_e_shader_8hpp.html" target="_top" xlink:title=" ">
<polygon fill="white" stroke="black" points="569,-207.5 569,-251.5 749,-251.5 749,-207.5 569,-207.5"/>
<text text-anchor="start" x="577" y="-234.7" font-family="Source Sans Pro" font-size="16.00">GraphicsModule/Shader</text>
<text text-anchor="middle" x="659" y="-216.7" font-family="Source Sans Pro" font-size="16.00">/IEShader.hpp</text>
</a>
</g>
</g>
<!-- Node17&#45;&gt;Node18 -->
<g id="edge29" class="edge">
<title>Node17&#45;&gt;Node18</title>
<path fill="none" stroke="midnightblue" d="M768.8,-288.33C750.15,-278.5 727.8,-266.74 708.15,-256.39"/>
<polygon fill="midnightblue" stroke="midnightblue" points="709.53,-253.16 699.05,-251.59 706.26,-259.35 709.53,-253.16"/>
</g>
<!-- Node18&#45;&gt;Node5 -->
<g id="edge40" class="edge">
<title>Node18&#45;&gt;Node5</title>
<path fill="none" stroke="midnightblue" d="M646.51,-207.34C635.56,-185.78 623.33,-151.92 637,-126 660.11,-82.16 682.11,-79.04 729,-63 877.7,-12.14 1375.6,-12.79 1517.16,-14.05"/>
<polygon fill="midnightblue" stroke="midnightblue" points="1517.46,-17.56 1527.49,-14.15 1517.52,-10.56 1517.46,-17.56"/>
</g>
<!-- Node18&#45;&gt;Node6 -->
<g id="edge41" class="edge">
<title>Node18&#45;&gt;Node6</title>
<path fill="none" stroke="midnightblue" d="M590.67,-207.37C572.97,-198.77 555.63,-186.97 544,-171 514.9,-131.05 514.84,-70.02 517.38,-37.23"/>
<polygon fill="midnightblue" stroke="midnightblue" points="520.9,-37.17 518.34,-26.88 513.93,-36.52 520.9,-37.17"/>
</g>
<!-- Node18&#45;&gt;Node7 -->
<g id="edge31" class="edge">
<title>Node18&#45;&gt;Node7</title>
<path fill="none" stroke="midnightblue" d="M649.91,-207.23C641.7,-184.29 633.59,-148.1 653,-126 657.9,-120.41 845.09,-98.12 952.02,-85.8"/>
<polygon fill="midnightblue" stroke="midnightblue" points="952.57,-89.25 962.11,-84.63 951.77,-82.3 952.57,-89.25"/>
</g>
<!-- Node18&#45;&gt;Node8 -->
<g id="edge30" class="edge">
<title>Node18&#45;&gt;Node8</title>
<path fill="none" stroke="midnightblue" d="M749.29,-214.96C860.32,-198.32 1044.99,-170.64 1134.38,-157.24"/>
<polygon fill="midnightblue" stroke="midnightblue" points="1134.91,-160.7 1144.28,-155.75 1133.87,-153.78 1134.91,-160.7"/>
</g>
<!-- Node18&#45;&gt;Node12 -->
<g id="edge42" class="edge">
<title>Node18&#45;&gt;Node12</title>
<path fill="none" stroke="midnightblue" d="M749.12,-223.4C863.27,-216.05 1065.75,-200.06 1237,-171 1249.12,-168.94 1262.04,-166.17 1274.17,-163.29"/>
<polygon fill="midnightblue" stroke="midnightblue" points="1275.25,-166.63 1284.14,-160.87 1273.6,-159.83 1275.25,-166.63"/>
</g>
<!-- Node18&#45;&gt;Node13 -->
<g id="edge39" class="edge">
<title>Node18&#45;&gt;Node13</title>
<path fill="none" stroke="midnightblue" d="M671.33,-207.33C677.98,-195.9 686.16,-181.85 692.8,-170.46"/>
<polygon fill="midnightblue" stroke="midnightblue" points="695.93,-172.03 697.94,-161.63 689.88,-168.51 695.93,-172.03"/>
</g>
<!-- Node19 -->
<g id="node19" class="node">
<title>Node19</title>
<g id="a_node19"><a xlink:href="_i_e_file_8hpp.html" target="_top" xlink:title=" ">
<polygon fill="white" stroke="black" points="315.5,-126.5 315.5,-170.5 492.5,-170.5 492.5,-126.5 315.5,-126.5"/>
<text text-anchor="start" x="323.5" y="-153.7" font-family="Source Sans Pro" font-size="16.00">Core/FileSystemModule</text>
<text text-anchor="middle" x="404" y="-135.7" font-family="Source Sans Pro" font-size="16.00">/IEFile.hpp</text>
</a>
</g>
</g>
<!-- Node18&#45;&gt;Node19 -->
<g id="edge32" class="edge">
<title>Node18&#45;&gt;Node19</title>
<path fill="none" stroke="midnightblue" d="M591,-207.43C557.28,-196.99 516.41,-184.33 481.49,-173.51"/>
<polygon fill="midnightblue" stroke="midnightblue" points="482.4,-170.12 471.81,-170.51 480.33,-176.81 482.4,-170.12"/>
</g>
<!-- Node19&#45;&gt;Node5 -->
<g id="edge37" class="edge">
<title>Node19&#45;&gt;Node5</title>
<path fill="none" stroke="midnightblue" d="M445.77,-126.49C488.39,-106.19 557.02,-76.58 620,-63 795.54,-25.15 1364.55,-16.51 1517.08,-14.85"/>
<polygon fill="midnightblue" stroke="midnightblue" points="1517.37,-18.35 1527.34,-14.74 1517.3,-11.35 1517.37,-18.35"/>
</g>
<!-- Node19&#45;&gt;Node6 -->
<g id="edge38" class="edge">
<title>Node19&#45;&gt;Node6</title>
<path fill="none" stroke="midnightblue" d="M427.22,-126.43C438.43,-115.87 451.84,-102.66 463,-90 478.61,-72.29 494.67,-50.65 505.75,-35.09"/>
<polygon fill="midnightblue" stroke="midnightblue" points="508.75,-36.9 511.65,-26.71 503.03,-32.87 508.75,-36.9"/>
</g>
<!-- Node20 -->
<g id="node20" class="node">
<title>Node20</title>
<g id="a_node20"><a xlink:title=" ">
<polygon fill="white" stroke="#bfbfbf" points="212.5,-63.5 212.5,-89.5 297.5,-89.5 297.5,-63.5 212.5,-63.5"/>
<text text-anchor="middle" x="255" y="-72.7" font-family="Source Sans Pro" font-size="16.00">filesystem</text>
</a>
</g>
</g>
<!-- Node19&#45;&gt;Node20 -->
<g id="edge33" class="edge">
<title>Node19&#45;&gt;Node20</title>
<path fill="none" stroke="midnightblue" d="M359.3,-126.5C336.99,-116.02 310.43,-103.54 289.69,-93.8"/>
<polygon fill="midnightblue" stroke="midnightblue" points="291.15,-90.62 280.61,-89.53 288.17,-96.95 291.15,-90.62"/>
</g>
<!-- Node21 -->
<g id="node21" class="node">
<title>Node21</title>
<g id="a_node21"><a xlink:title=" ">
<polygon fill="white" stroke="#bfbfbf" points="316,-63.5 316,-89.5 384,-89.5 384,-63.5 316,-63.5"/>
<text text-anchor="middle" x="350" y="-72.7" font-family="Source Sans Pro" font-size="16.00">fstream</text>
</a>
</g>
</g>
<!-- Node19&#45;&gt;Node21 -->
<g id="edge34" class="edge">
<title>Node19&#45;&gt;Node21</title>
<path fill="none" stroke="midnightblue" d="M387.8,-126.5C380.74,-117.34 372.49,-106.66 365.51,-97.61"/>
<polygon fill="midnightblue" stroke="midnightblue" points="368.16,-95.31 359.28,-89.53 362.62,-99.59 368.16,-95.31"/>
</g>
<!-- Node22 -->
<g id="node22" class="node">
<title>Node22</title>
<g id="a_node22"><a xlink:title=" ">
<polygon fill="white" stroke="#bfbfbf" points="830,-63.5 830,-89.5 906,-89.5 906,-63.5 830,-63.5"/>
<text text-anchor="middle" x="868" y="-72.7" font-family="Source Sans Pro" font-size="16.00">iostream</text>
</a>
</g>
</g>
<!-- Node19&#45;&gt;Node22 -->
<g id="edge35" class="edge">
<title>Node19&#45;&gt;Node22</title>
<path fill="none" stroke="midnightblue" d="M492.94,-136.54C591.56,-124.17 745.5,-104.15 819.91,-90.01"/>
<polygon fill="midnightblue" stroke="midnightblue" points="820.73,-93.42 829.87,-88.06 819.39,-86.55 820.73,-93.42"/>
</g>
<!-- Node23 -->
<g id="node23" class="node">
<title>Node23</title>
<g id="a_node23"><a xlink:title=" ">
<polygon fill="white" stroke="#bfbfbf" points="402,-63.5 402,-89.5 454,-89.5 454,-63.5 402,-63.5"/>
<text text-anchor="middle" x="428" y="-72.7" font-family="Source Sans Pro" font-size="16.00">regex</text>
</a>
</g>
</g>
<!-- Node19&#45;&gt;Node23 -->
<g id="edge36" class="edge">
<title>Node19&#45;&gt;Node23</title>
<path fill="none" stroke="midnightblue" d="M411.2,-126.5C414.18,-117.81 417.63,-107.75 420.62,-99.02"/>
<polygon fill="midnightblue" stroke="midnightblue" points="423.94,-100.13 423.88,-89.53 417.32,-97.86 423.94,-100.13"/>
</g>
<!-- Node24&#45;&gt;Node5 -->
<g id="edge69" class="edge">
<title>Node24&#45;&gt;Node5</title>
<path fill="none" stroke="midnightblue" d="M1929.19,-375C1989.72,-367.22 2080.39,-352.73 2109,-333 2153.41,-302.37 2174,-284.44 2174,-230.5 2174,-230.5 2174,-230.5 2174,-147.5 2174,-87.77 1727.74,-33.59 1593.04,-18.59"/>
<polygon fill="midnightblue" stroke="midnightblue" points="1593.12,-15.08 1582.8,-17.46 1592.35,-22.04 1593.12,-15.08"/>
</g>
<!-- Node24&#45;&gt;Node22 -->
<g id="edge68" class="edge">
<title>Node24&#45;&gt;Node22</title>
<path fill="none" stroke="midnightblue" d="M1929.24,-375.33C1983.77,-368.23 2060.5,-354.7 2081,-333 2119.69,-292.04 2123,-255.9 2095,-207 2059.66,-145.28 2025.28,-145.88 1957,-126 1742.86,-63.65 1176.13,-110.07 954,-90 941.79,-88.9 928.67,-87.23 916.44,-85.48"/>
<polygon fill="midnightblue" stroke="midnightblue" points="916.83,-82 906.42,-83.99 915.8,-88.92 916.83,-82"/>
</g>
<!-- Node25 -->
<g id="node25" class="node">
<title>Node25</title>
<g id="a_node25"><a xlink:title=" ">
<polygon fill="white" stroke="#bfbfbf" points="1932,-216.5 1932,-242.5 2070,-242.5 2070,-216.5 1932,-216.5"/>
<text text-anchor="middle" x="2001" y="-225.7" font-family="Source Sans Pro" font-size="16.00">assimp/material.h</text>
</a>
</g>
</g>
<!-- Node24&#45;&gt;Node25 -->
<g id="edge47" class="edge">
<title>Node24&#45;&gt;Node25</title>
<path fill="none" stroke="midnightblue" d="M1929.16,-372.6C1972.68,-364.52 2027.36,-351.1 2041,-333 2060.06,-307.7 2037.65,-272.17 2019.49,-250.28"/>
<polygon fill="midnightblue" stroke="midnightblue" points="2022.03,-247.87 2012.84,-242.61 2016.74,-252.45 2022.03,-247.87"/>
</g>
<!-- Node26 -->
<g id="node26" class="node">
<title>Node26</title>
<g id="a_node26"><a xlink:title=" ">
<polygon fill="white" stroke="#bfbfbf" points="1585,-297.5 1585,-323.5 1707,-323.5 1707,-297.5 1585,-297.5"/>
<text text-anchor="middle" x="1646" y="-306.7" font-family="Source Sans Pro" font-size="16.00">assimp/scene.h</text>
</a>
</g>
</g>
<!-- Node24&#45;&gt;Node26 -->
<g id="edge48" class="edge">
<title>Node24&#45;&gt;Node26</title>
<path fill="none" stroke="midnightblue" d="M1833.15,-369.47C1794.83,-357.6 1736.13,-339.42 1694.71,-326.59"/>
<polygon fill="midnightblue" stroke="midnightblue" points="1695.69,-323.23 1685.1,-323.61 1693.62,-329.91 1695.69,-323.23"/>
</g>
<!-- Node27 -->
<g id="node27" class="node">
<title>Node27</title>
<g id="a_node27"><a xlink:title=" ">
<polygon fill="white" stroke="#bfbfbf" points="1725.5,-297.5 1725.5,-323.5 1856.5,-323.5 1856.5,-297.5 1725.5,-297.5"/>
<text text-anchor="middle" x="1791" y="-306.7" font-family="Source Sans Pro" font-size="16.00">assimp/texture.h</text>
</a>
</g>
</g>
<!-- Node24&#45;&gt;Node27 -->
<g id="edge49" class="edge">
<title>Node24&#45;&gt;Node27</title>
<path fill="none" stroke="midnightblue" d="M1857.89,-369.31C1845.46,-358.57 1827.16,-342.75 1812.84,-330.38"/>
<polygon fill="midnightblue" stroke="midnightblue" points="1814.8,-327.44 1804.95,-323.55 1810.23,-332.74 1814.8,-327.44"/>
</g>
<!-- Node28 -->
<g id="node28" class="node">
<title>Node28</title>
<g id="a_node28"><a xlink:href="_i_e_texture_8hpp.html" target="_top" xlink:title=" ">
<polygon fill="white" stroke="black" points="1874.5,-297.5 1874.5,-323.5 2031.5,-323.5 2031.5,-297.5 1874.5,-297.5"/>
<text text-anchor="middle" x="1953" y="-306.7" font-family="Source Sans Pro" font-size="16.00">Image/IETexture.hpp</text>
</a>
</g>
</g>
<!-- Node24&#45;&gt;Node28 -->
<g id="edge50" class="edge">
<title>Node24&#45;&gt;Node28</title>
<path fill="none" stroke="midnightblue" d="M1886.11,-369.31C1898.54,-358.57 1916.84,-342.75 1931.16,-330.38"/>
<polygon fill="midnightblue" stroke="midnightblue" points="1933.77,-332.74 1939.05,-323.55 1929.2,-327.44 1933.77,-332.74"/>
</g>
<!-- Node30 -->
<g id="node30" class="node">
<title>Node30</title>
<g id="a_node30"><a xlink:title=" ">
<polygon fill="white" stroke="#bfbfbf" points="1818,-126.5 1818,-170.5 1948,-170.5 1948,-126.5 1818,-126.5"/>
<text text-anchor="start" x="1826" y="-153.7" font-family="Source Sans Pro" font-size="16.00">../contrib/stb/stb</text>
<text text-anchor="middle" x="1883" y="-135.7" font-family="Source Sans Pro" font-size="16.00">_image.h</text>
</a>
</g>
</g>
<!-- Node24&#45;&gt;Node30 -->
<g id="edge67" class="edge">
<title>Node24&#45;&gt;Node30</title>
<path fill="none" stroke="midnightblue" d="M1929.02,-381.23C1970.19,-377.94 2024.28,-366.77 2058,-333 2084.28,-306.68 2074.3,-288.89 2079,-252 2081.53,-232.16 2090.99,-223.01 2079,-207 2077.04,-204.38 2012.36,-185.72 1957.83,-170.35"/>
<polygon fill="midnightblue" stroke="midnightblue" points="1958.71,-166.96 1948.14,-167.62 1956.82,-173.7 1958.71,-166.96"/>
</g>
<!-- Node31 -->
<g id="node31" class="node">
<title>Node31</title>
<g id="a_node31"><a xlink:title=" ">
<polygon fill="white" stroke="#bfbfbf" points="1439,-297.5 1439,-323.5 1567,-323.5 1567,-297.5 1439,-297.5"/>
<text text-anchor="middle" x="1503" y="-306.7" font-family="Source Sans Pro" font-size="16.00">unordered_map</text>
</a>
</g>
</g>
<!-- Node24&#45;&gt;Node31 -->
<g id="edge70" class="edge">
<title>Node24&#45;&gt;Node31</title>
<path fill="none" stroke="midnightblue" d="M1814.85,-374.28C1754.93,-366.21 1658.24,-351.77 1576,-333 1567.67,-331.1 1558.89,-328.78 1550.41,-326.39"/>
<polygon fill="midnightblue" stroke="midnightblue" points="1551.23,-322.98 1540.65,-323.56 1549.28,-329.71 1551.23,-322.98"/>
</g>
<!-- Node32 -->
<g id="node32" class="node">
<title>Node32</title>
<g id="a_node32"><a xlink:title=" ">
<polygon fill="white" stroke="#bfbfbf" points="1317,-297.5 1317,-323.5 1421,-323.5 1421,-297.5 1317,-297.5"/>
<text text-anchor="middle" x="1369" y="-306.7" font-family="Source Sans Pro" font-size="16.00">glm/glm.hpp</text>
</a>
</g>
</g>
<!-- Node24&#45;&gt;Node32 -->
<g id="edge71" class="edge">
<title>Node24&#45;&gt;Node32</title>
<path fill="none" stroke="midnightblue" d="M1814.79,-379.41C1729.87,-375.37 1565.86,-363.96 1430,-333 1422.85,-331.37 1415.38,-329.17 1408.21,-326.8"/>
<polygon fill="midnightblue" stroke="midnightblue" points="1409.29,-323.47 1398.69,-323.5 1406.99,-330.09 1409.29,-323.47"/>
</g>
<!-- Node28&#45;&gt;Node5 -->
<g id="edge66" class="edge">
<title>Node28&#45;&gt;Node5</title>
<path fill="none" stroke="midnightblue" d="M1936.11,-297.36C1920.21,-285.86 1895.79,-268.01 1875,-252 1768.81,-170.22 1750.78,-138.45 1640,-63 1623.21,-51.57 1603.57,-40.24 1587.4,-31.41"/>
<polygon fill="midnightblue" stroke="midnightblue" points="1588.79,-28.18 1578.33,-26.51 1585.47,-34.34 1588.79,-28.18"/>
</g>
<!-- Node28&#45;&gt;Node7 -->
<g id="edge64" class="edge">
<title>Node28&#45;&gt;Node7</title>
<path fill="none" stroke="midnightblue" d="M1904.93,-297.48C1846.37,-282.71 1753.31,-258.77 1738,-252 1643.29,-210.12 1639.89,-159.8 1542,-126 1461.81,-98.31 1220.09,-85.12 1097.69,-80.08"/>
<polygon fill="midnightblue" stroke="midnightblue" points="1097.79,-76.58 1087.66,-79.67 1097.51,-83.57 1097.79,-76.58"/>
</g>
<!-- Node28&#45;&gt;Node10 -->
<g id="edge65" class="edge">
<title>Node28&#45;&gt;Node10</title>
<path fill="none" stroke="midnightblue" d="M1944.47,-297.41C1937.15,-286.23 1927.13,-268.84 1923,-252 1918.24,-232.58 1915.61,-225.59 1923,-207 1931.13,-186.55 1948.87,-191.45 1957,-171 1964.39,-152.41 1967.22,-143.19 1957,-126 1921.73,-66.66 1842.6,-36.92 1793.62,-23.66"/>
<polygon fill="midnightblue" stroke="midnightblue" points="1794.21,-20.2 1783.65,-21.08 1792.45,-26.98 1794.21,-20.2"/>
</g>
<!-- Node28&#45;&gt;Node25 -->
<g id="edge63" class="edge">
<title>Node28&#45;&gt;Node25</title>
<path fill="none" stroke="midnightblue" d="M1960.5,-297.16C1967.9,-284.98 1979.35,-266.14 1988.19,-251.59"/>
<polygon fill="midnightblue" stroke="midnightblue" points="1991.35,-253.12 1993.55,-242.76 1985.37,-249.49 1991.35,-253.12"/>
</g>
<!-- Node29 -->
<g id="node29" class="node">
<title>Node29</title>
<g id="a_node29"><a xlink:href="_i_e_image_8hpp.html" target="_top" xlink:title=" ">
<polygon fill="white" stroke="black" points="1413,-216.5 1413,-242.5 1515,-242.5 1515,-216.5 1413,-216.5"/>
<text text-anchor="middle" x="1464" y="-225.7" font-family="Source Sans Pro" font-size="16.00">IEImage.hpp</text>
</a>
</g>
</g>
<!-- Node28&#45;&gt;Node29 -->
<g id="edge51" class="edge">
<title>Node28&#45;&gt;Node29</title>
<path fill="none" stroke="midnightblue" d="M1908.52,-297.4C1894.95,-294 1879.93,-290.55 1866,-288 1734.34,-263.9 1699.08,-273.69 1567,-252 1553.37,-249.76 1538.8,-246.97 1525.03,-244.14"/>
<polygon fill="midnightblue" stroke="midnightblue" points="1525.68,-240.7 1515.18,-242.09 1524.26,-247.56 1525.68,-240.7"/>
</g>
<!-- Node28&#45;&gt;Node30 -->
<g id="edge62" class="edge">
<title>Node28&#45;&gt;Node30</title>
<path fill="none" stroke="midnightblue" d="M1933,-297.35C1918.3,-287.22 1899.33,-271.34 1890,-252 1879.32,-229.87 1878.11,-201.89 1879.27,-180.75"/>
<polygon fill="midnightblue" stroke="midnightblue" points="1882.76,-180.92 1880.02,-170.68 1875.78,-180.4 1882.76,-180.92"/>
</g>
<!-- Node29&#45;&gt;Node3 -->
<g id="edge52" class="edge">
<title>Node29&#45;&gt;Node3</title>
<path fill="none" stroke="midnightblue" d="M1412.97,-221.49C1325.93,-209.53 1146.12,-184.83 1021.59,-167.72"/>
<polygon fill="midnightblue" stroke="midnightblue" points="1021.98,-164.24 1011.6,-166.34 1021.03,-171.17 1021.98,-164.24"/>
</g>
<!-- Node29&#45;&gt;Node5 -->
<g id="edge60" class="edge">
<title>Node29&#45;&gt;Node5</title>
<path fill="none" stroke="midnightblue" d="M1515.4,-226.25C1554.69,-221.5 1606.48,-208.04 1633,-171 1661.18,-131.65 1645.14,-103.74 1619,-63 1611.02,-50.56 1598.68,-40.11 1586.95,-32.13"/>
<polygon fill="midnightblue" stroke="midnightblue" points="1588.5,-28.97 1578.19,-26.52 1584.73,-34.86 1588.5,-28.97"/>
</g>
<!-- Node29&#45;&gt;Node6 -->
<g id="edge61" class="edge">
<title>Node29&#45;&gt;Node6</title>
<path fill="none" stroke="midnightblue" d="M1491.77,-216.32C1509.68,-206.81 1531.53,-191.72 1542,-171 1551.02,-153.15 1555.06,-141.15 1542,-126 1476.63,-50.15 740.57,-21.6 559.87,-15.71"/>
<polygon fill="midnightblue" stroke="midnightblue" points="559.85,-12.21 549.74,-15.38 559.63,-19.2 559.85,-12.21"/>
</g>
<!-- Node29&#45;&gt;Node7 -->
<g id="edge57" class="edge">
<title>Node29&#45;&gt;Node7</title>
<path fill="none" stroke="midnightblue" d="M1483.43,-216.3C1497.63,-206.13 1515.79,-190.24 1524,-171 1531.85,-152.6 1537.44,-140.81 1524,-126 1495.92,-95.06 1229.28,-83.25 1097.71,-79.28"/>
<polygon fill="midnightblue" stroke="midnightblue" points="1097.81,-75.78 1087.71,-78.98 1097.6,-82.78 1097.81,-75.78"/>
</g>
<!-- Node29&#45;&gt;Node8 -->
<g id="edge53" class="edge">
<title>Node29&#45;&gt;Node8</title>
<path fill="none" stroke="midnightblue" d="M1421.48,-216.42C1372.03,-202.37 1290.46,-179.18 1237.48,-164.13"/>
<polygon fill="midnightblue" stroke="midnightblue" points="1238.19,-160.69 1227.61,-161.32 1236.27,-167.43 1238.19,-160.69"/>
</g>
<!-- Node29&#45;&gt;Node10 -->
<g id="edge58" class="edge">
<title>Node29&#45;&gt;Node10</title>
<path fill="none" stroke="midnightblue" d="M1515.1,-220.71C1555.23,-212.85 1611.28,-197.91 1654,-171 1695.26,-145.01 1703.6,-132.22 1728,-90 1737.67,-73.26 1743.96,-52.14 1747.66,-36.5"/>
<polygon fill="midnightblue" stroke="midnightblue" points="1751.09,-37.18 1749.82,-26.67 1744.26,-35.68 1751.09,-37.18"/>
</g>
<!-- Node29&#45;&gt;Node11 -->
<g id="edge56" class="edge">
<title>Node29&#45;&gt;Node11</title>
<path fill="none" stroke="midnightblue" d="M1461.81,-216.16C1459.72,-204.33 1456.51,-186.21 1453.96,-171.84"/>
<polygon fill="midnightblue" stroke="midnightblue" points="1457.36,-170.99 1452.17,-161.76 1450.47,-172.21 1457.36,-170.99"/>
</g>
<!-- Node29&#45;&gt;Node12 -->
<g id="edge54" class="edge">
<title>Node29&#45;&gt;Node12</title>
<path fill="none" stroke="midnightblue" d="M1442.74,-216.33C1419.47,-203.01 1382.01,-181.56 1355.81,-166.57"/>
<polygon fill="midnightblue" stroke="midnightblue" points="1357.48,-163.49 1347.06,-161.55 1354,-169.56 1357.48,-163.49"/>
</g>
<!-- Node29&#45;&gt;Node13 -->
<g id="edge59" class="edge">
<title>Node29&#45;&gt;Node13</title>
<path fill="none" stroke="midnightblue" d="M1412.85,-224.05C1361.94,-219.63 1281.58,-212.73 1212,-207 1010.27,-190.4 954.98,-217.59 758,-171 752,-169.58 745.78,-167.58 739.82,-165.37"/>
<polygon fill="midnightblue" stroke="midnightblue" points="740.68,-161.95 730.09,-161.51 738.1,-168.45 740.68,-161.95"/>
</g>
<!-- Node29&#45;&gt;Node30 -->
<g id="edge55" class="edge">
<title>Node29&#45;&gt;Node30</title>
<path fill="none" stroke="midnightblue" d="M1515.28,-221.43C1582.1,-211.85 1702.41,-193.36 1804,-171 1805.25,-170.73 1806.51,-170.44 1807.78,-170.15"/>
<polygon fill="midnightblue" stroke="midnightblue" points="1808.67,-173.54 1817.6,-167.83 1807.06,-166.73 1808.67,-173.54"/>
</g>
<!-- Node33&#45;&gt;Node5 -->
<g id="edge76" class="edge">
<title>Node33&#45;&gt;Node5</title>
<path fill="none" stroke="midnightblue" d="M1217.59,-369.36C1216,-349.21 1216.14,-309 1239,-288 1333.04,-201.64 1417.42,-322.29 1524,-252 1593.68,-206.05 1597.12,-170.55 1619,-90 1622.15,-78.42 1624.34,-73.75 1619,-63 1612.62,-50.17 1601.05,-39.82 1589.48,-32.03"/>
<polygon fill="midnightblue" stroke="midnightblue" points="1591.06,-28.89 1580.72,-26.57 1587.35,-34.83 1591.06,-28.89"/>
</g>
<!-- Node33&#45;&gt;Node12 -->
<g id="edge74" class="edge">
<title>Node33&#45;&gt;Node12</title>
<path fill="none" stroke="midnightblue" d="M1213.41,-369.29C1205.88,-351.04 1194.56,-315.81 1205,-288 1224.2,-236.85 1271.79,-192.2 1301.24,-168.21"/>
<polygon fill="midnightblue" stroke="midnightblue" points="1303.74,-170.7 1309.39,-161.73 1299.38,-165.22 1303.74,-170.7"/>
</g>
<!-- Node33&#45;&gt;Node32 -->
<g id="edge73" class="edge">
<title>Node33&#45;&gt;Node32</title>
<path fill="none" stroke="midnightblue" d="M1244.79,-369.47C1269.36,-358 1306.56,-340.64 1333.85,-327.9"/>
<polygon fill="midnightblue" stroke="midnightblue" points="1335.47,-331.01 1343.05,-323.61 1332.51,-324.67 1335.47,-331.01"/>
</g>
<!-- Node34 -->
<g id="node34" class="node">
<title>Node34</title>
<g id="a_node34"><a xlink:title=" ">
<polygon fill="white" stroke="#bfbfbf" points="1247.5,-297.5 1247.5,-323.5 1298.5,-323.5 1298.5,-297.5 1247.5,-297.5"/>
<text text-anchor="middle" x="1273" y="-306.7" font-family="Source Sans Pro" font-size="16.00">array</text>
</a>
</g>
</g>
<!-- Node33&#45;&gt;Node34 -->
<g id="edge75" class="edge">
<title>Node33&#45;&gt;Node34</title>
<path fill="none" stroke="midnightblue" d="M1228.41,-369.31C1236.38,-358.97 1247.98,-343.93 1257.36,-331.78"/>
<polygon fill="midnightblue" stroke="midnightblue" points="1260.36,-333.61 1263.7,-323.55 1254.82,-329.33 1260.36,-333.61"/>
</g>
</g>
</svg>
