<?xml version="1.0" encoding="UTF-8" standalone="no"?>
<!DOCTYPE svg PUBLIC "-//W3C//DTD SVG 1.1//EN"
 "http://www.w3.org/Graphics/SVG/1.1/DTD/svg11.dtd">
<!-- Generated by graphviz version 2.43.0 (0)
 -->
<!-- Title: Illumination&#45;Engine/src/GraphicsModule/RenderPass/IEFramebuffer.hpp Pages: 1 -->
<svg width="1054pt" height="359pt"
 viewBox="0.00 0.00 1054.38 359.00" xmlns="http://www.w3.org/2000/svg" xmlns:xlink="http://www.w3.org/1999/xlink">
<g id="graph0" class="graph" transform="scale(1 1) rotate(0) translate(4 355)">
<title>Illumination&#45;Engine/src/GraphicsModule/RenderPass/IEFramebuffer.hpp</title>
<polygon fill="white" stroke="transparent" points="-4,4 -4,-355 1050.38,-355 1050.38,4 -4,4"/>
<!-- Node1 -->
<g id="node1" class="node">
<title>Node1</title>
<g id="a_node1"><a xlink:title=" ">
<polygon fill="#bfbfbf" stroke="black" points="707.56,-288.5 707.56,-350.5 939.56,-350.5 939.56,-288.5 707.56,-288.5"/>
<text text-anchor="start" x="715.56" y="-333.7" font-family="Source Sans Pro" font-size="16.00">Illumination&#45;Engine</text>
<text text-anchor="start" x="715.56" y="-315.7" font-family="Source Sans Pro" font-size="16.00">/src/GraphicsModule</text>
<text text-anchor="middle" x="823.56" y="-297.7" font-family="Source Sans Pro" font-size="16.00">/RenderPass/IEFramebuffer.hpp</text>
</a>
</g>
</g>
<!-- Node2 -->
<g id="node2" class="node">
<title>Node2</title>
<g id="a_node2"><a xlink:href="_i_e_image_8hpp.html" target="_top" xlink:title=" ">
<polygon fill="white" stroke="black" points="480.56,-207.5 480.56,-251.5 654.56,-251.5 654.56,-207.5 480.56,-207.5"/>
<text text-anchor="start" x="488.56" y="-234.7" font-family="Source Sans Pro" font-size="16.00">GraphicsModule/Image</text>
<text text-anchor="middle" x="567.56" y="-216.7" font-family="Source Sans Pro" font-size="16.00">/IEImage.hpp</text>
</a>
</g>
</g>
<!-- Node1&#45;&gt;Node2 -->
<g id="edge1" class="edge">
<title>Node1&#45;&gt;Node2</title>
<path fill="none" stroke="midnightblue" d="M736.17,-288.46C704.28,-277.5 668.64,-265.25 638.37,-254.84"/>
<polygon fill="midnightblue" stroke="midnightblue" points="639.34,-251.47 628.74,-251.53 637.06,-258.09 639.34,-251.47"/>
</g>
<!-- Node5 -->
<g id="node5" class="node">
<title>Node5</title>
<g id="a_node5"><a xlink:title=" ">
<polygon fill="white" stroke="#bfbfbf" points="828.06,-0.5 828.06,-26.5 883.06,-26.5 883.06,-0.5 828.06,-0.5"/>
<text text-anchor="middle" x="855.56" y="-9.7" font-family="Source Sans Pro" font-size="16.00">string</text>
</a>
</g>
</g>
<!-- Node1&#45;&gt;Node5 -->
<g id="edge22" class="edge">
<title>Node1&#45;&gt;Node5</title>
<path fill="none" stroke="midnightblue" d="M913.18,-288.44C933.51,-278.9 953.97,-266.86 970.56,-252 1029.25,-199.44 1031.25,-167.98 1042.56,-90 1044.28,-78.12 1049.9,-72.49 1042.56,-63 1024.45,-39.6 942.47,-25.41 893.26,-18.86"/>
<polygon fill="midnightblue" stroke="midnightblue" points="893.66,-15.38 883.3,-17.58 892.77,-22.32 893.66,-15.38"/>
</g>
<!-- Node6 -->
<g id="node6" class="node">
<title>Node6</title>
<g id="a_node6"><a xlink:title=" ">
<polygon fill="white" stroke="#bfbfbf" points="366.06,-0.5 366.06,-26.5 425.06,-26.5 425.06,-0.5 366.06,-0.5"/>
<text text-anchor="middle" x="395.56" y="-9.7" font-family="Source Sans Pro" font-size="16.00">vector</text>
</a>
</g>
</g>
<!-- Node1&#45;&gt;Node6 -->
<g id="edge23" class="edge">
<title>Node1&#45;&gt;Node6</title>
<path fill="none" stroke="midnightblue" d="M707.44,-314.89C505.38,-305.89 102.32,-275.04 15.56,-171 -16.59,-132.45 7.52,-91.9 48.56,-63 97.35,-28.64 275.16,-18.46 355.58,-15.58"/>
<polygon fill="midnightblue" stroke="midnightblue" points="355.92,-19.07 365.8,-15.23 355.69,-12.07 355.92,-19.07"/>
</g>
<!-- Node7 -->
<g id="node7" class="node">
<title>Node7</title>
<g id="a_node7"><a xlink:title=" ">
<polygon fill="white" stroke="#bfbfbf" points="888.06,-63.5 888.06,-89.5 1013.06,-89.5 1013.06,-63.5 888.06,-63.5"/>
<text text-anchor="middle" x="950.56" y="-72.7" font-family="Source Sans Pro" font-size="16.00">vulkan/vulkan.h</text>
</a>
</g>
</g>
<!-- Node1&#45;&gt;Node7 -->
<g id="edge21" class="edge">
<title>Node1&#45;&gt;Node7</title>
<path fill="none" stroke="midnightblue" d="M882.28,-288.28C924.1,-263.16 977.06,-223.12 1001.56,-171 1010.07,-152.9 1009.44,-144.38 1001.56,-126 996.53,-114.28 987.12,-104.05 977.74,-96.04"/>
<polygon fill="midnightblue" stroke="midnightblue" points="979.62,-93.07 969.61,-89.6 975.27,-98.56 979.62,-93.07"/>
</g>
<!-- Node3 -->
<g id="node3" class="node">
<title>Node3</title>
<g id="a_node3"><a xlink:href="_i_e_dependency_8hpp.html" target="_top" xlink:title=" ">
<polygon fill="white" stroke="black" points="730.06,-126.5 730.06,-170.5 975.06,-170.5 975.06,-126.5 730.06,-126.5"/>
<text text-anchor="start" x="738.06" y="-153.7" font-family="Source Sans Pro" font-size="16.00">GraphicsModule/CommandBuffer</text>
<text text-anchor="middle" x="852.56" y="-135.7" font-family="Source Sans Pro" font-size="16.00">/IEDependency.hpp</text>
</a>
</g>
</g>
<!-- Node2&#45;&gt;Node3 -->
<g id="edge2" class="edge">
<title>Node2&#45;&gt;Node3</title>
<path fill="none" stroke="midnightblue" d="M643.56,-207.43C681.56,-196.9 727.7,-184.11 766.95,-173.23"/>
<polygon fill="midnightblue" stroke="midnightblue" points="768.07,-176.55 776.77,-170.51 766.2,-169.81 768.07,-176.55"/>
</g>
<!-- Node2&#45;&gt;Node5 -->
<g id="edge19" class="edge">
<title>Node2&#45;&gt;Node5</title>
<path fill="none" stroke="midnightblue" d="M654.97,-228.12C766.71,-225.79 951.68,-215.14 1001.56,-171 1038.18,-138.59 1051.92,-102.1 1022.56,-63 1007.04,-42.33 937.54,-27.61 893.23,-20.13"/>
<polygon fill="midnightblue" stroke="midnightblue" points="893.54,-16.63 883.1,-18.47 892.4,-23.54 893.54,-16.63"/>
</g>
<!-- Node2&#45;&gt;Node6 -->
<g id="edge20" class="edge">
<title>Node2&#45;&gt;Node6</title>
<path fill="none" stroke="midnightblue" d="M480.54,-225.3C337.74,-219.15 66.55,-203.31 37.56,-171 -57.57,-64.99 244.2,-27.6 355.78,-17.58"/>
<polygon fill="midnightblue" stroke="midnightblue" points="356.31,-21.04 365.97,-16.69 355.7,-14.07 356.31,-21.04"/>
</g>
<!-- Node2&#45;&gt;Node7 -->
<g id="edge16" class="edge">
<title>Node2&#45;&gt;Node7</title>
<path fill="none" stroke="midnightblue" d="M654.7,-229.34C764.13,-228.32 942.66,-219.07 984.56,-171 1003.01,-149.83 984.31,-117.83 968.2,-97.3"/>
<polygon fill="midnightblue" stroke="midnightblue" points="970.86,-95.02 961.8,-89.53 965.46,-99.47 970.86,-95.02"/>
</g>
<!-- Node8 -->
<g id="node8" class="node">
<title>Node8</title>
<g id="a_node8"><a xlink:href="_i_e_a_p_i_8hpp.html" target="_top" xlink:title=" ">
<polygon fill="white" stroke="black" points="629.06,-135.5 629.06,-161.5 712.06,-161.5 712.06,-135.5 629.06,-135.5"/>
<text text-anchor="middle" x="670.56" y="-144.7" font-family="Source Sans Pro" font-size="16.00">IEAPI.hpp</text>
</a>
</g>
</g>
<!-- Node2&#45;&gt;Node8 -->
<g id="edge7" class="edge">
<title>Node2&#45;&gt;Node8</title>
<path fill="none" stroke="midnightblue" d="M595.16,-207.33C611.25,-194.99 631.34,-179.58 646.73,-167.77"/>
<polygon fill="midnightblue" stroke="midnightblue" points="648.94,-170.49 654.75,-161.63 644.68,-164.94 648.94,-170.49"/>
</g>
<!-- Node10 -->
<g id="node10" class="node">
<title>Node10</title>
<g id="a_node10"><a xlink:title=" ">
<polygon fill="white" stroke="#bfbfbf" points="14.06,-0.5 14.06,-26.5 77.06,-26.5 77.06,-0.5 14.06,-0.5"/>
<text text-anchor="middle" x="45.56" y="-9.7" font-family="Source Sans Pro" font-size="16.00">cstdint</text>
</a>
</g>
</g>
<!-- Node2&#45;&gt;Node10 -->
<g id="edge17" class="edge">
<title>Node2&#45;&gt;Node10</title>
<path fill="none" stroke="midnightblue" d="M480.48,-225.71C332.76,-220.06 46.06,-204.84 15.56,-171 -18.49,-133.22 11.84,-68.99 31.64,-35.78"/>
<polygon fill="midnightblue" stroke="midnightblue" points="34.84,-37.26 37.12,-26.91 28.89,-33.58 34.84,-37.26"/>
</g>
<!-- Node11 -->
<g id="node11" class="node">
<title>Node11</title>
<g id="a_node11"><a xlink:title=" ">
<polygon fill="white" stroke="#bfbfbf" points="46.56,-135.5 46.56,-161.5 184.56,-161.5 184.56,-135.5 46.56,-135.5"/>
<text text-anchor="middle" x="115.56" y="-144.7" font-family="Source Sans Pro" font-size="16.00">include/GL/glew.h</text>
</a>
</g>
</g>
<!-- Node2&#45;&gt;Node11 -->
<g id="edge13" class="edge">
<title>Node2&#45;&gt;Node11</title>
<path fill="none" stroke="midnightblue" d="M480.51,-218.04C404.37,-208.19 291.04,-191.85 193.56,-171 184.48,-169.06 174.89,-166.69 165.66,-164.23"/>
<polygon fill="midnightblue" stroke="midnightblue" points="166.39,-160.81 155.82,-161.56 164.55,-167.56 166.39,-160.81"/>
</g>
<!-- Node12 -->
<g id="node12" class="node">
<title>Node12</title>
<g id="a_node12"><a xlink:title=" ">
<polygon fill="white" stroke="#bfbfbf" points="203.06,-135.5 203.06,-161.5 388.06,-161.5 388.06,-135.5 203.06,-135.5"/>
<text text-anchor="middle" x="295.56" y="-144.7" font-family="Source Sans Pro" font-size="16.00">include/vk_mem_alloc.h</text>
</a>
</g>
</g>
<!-- Node2&#45;&gt;Node12 -->
<g id="edge14" class="edge">
<title>Node2&#45;&gt;Node12</title>
<path fill="none" stroke="midnightblue" d="M495.03,-207.43C448.26,-193.85 388.58,-176.52 346.74,-164.36"/>
<polygon fill="midnightblue" stroke="midnightblue" points="347.61,-160.97 337.03,-161.55 345.66,-167.7 347.61,-160.97"/>
</g>
<!-- Node13 -->
<g id="node13" class="node">
<title>Node13</title>
<g id="a_node13"><a xlink:title=" ">
<polygon fill="white" stroke="#bfbfbf" points="406.56,-135.5 406.56,-161.5 506.56,-161.5 506.56,-135.5 406.56,-135.5"/>
<text text-anchor="middle" x="456.56" y="-144.7" font-family="Source Sans Pro" font-size="16.00">stb_image.h</text>
</a>
</g>
</g>
<!-- Node2&#45;&gt;Node13 -->
<g id="edge15" class="edge">
<title>Node2&#45;&gt;Node13</title>
<path fill="none" stroke="midnightblue" d="M537.81,-207.33C520.31,-194.87 498.43,-179.3 481.78,-167.45"/>
<polygon fill="midnightblue" stroke="midnightblue" points="483.78,-164.57 473.6,-161.63 479.72,-170.28 483.78,-164.57"/>
</g>
<!-- Node14 -->
<g id="node14" class="node">
<title>Node14</title>
<g id="a_node14"><a xlink:title=" ">
<polygon fill="white" stroke="#bfbfbf" points="524.56,-135.5 524.56,-161.5 610.56,-161.5 610.56,-135.5 524.56,-135.5"/>
<text text-anchor="middle" x="567.56" y="-144.7" font-family="Source Sans Pro" font-size="16.00">functional</text>
</a>
</g>
</g>
<!-- Node2&#45;&gt;Node14 -->
<g id="edge18" class="edge">
<title>Node2&#45;&gt;Node14</title>
<path fill="none" stroke="midnightblue" d="M567.56,-207.33C567.56,-196.36 567.56,-182.97 567.56,-171.83"/>
<polygon fill="midnightblue" stroke="midnightblue" points="571.06,-171.63 567.56,-161.63 564.06,-171.63 571.06,-171.63"/>
</g>
<!-- Node4 -->
<g id="node4" class="node">
<title>Node4</title>
<g id="a_node4"><a xlink:title=" ">
<polygon fill="white" stroke="#bfbfbf" points="753.56,-63.5 753.56,-89.5 827.56,-89.5 827.56,-63.5 753.56,-63.5"/>
<text text-anchor="middle" x="790.56" y="-72.7" font-family="Source Sans Pro" font-size="16.00">memory</text>
</a>
</g>
</g>
<!-- Node3&#45;&gt;Node4 -->
<g id="edge3" class="edge">
<title>Node3&#45;&gt;Node4</title>
<path fill="none" stroke="midnightblue" d="M833.96,-126.5C825.68,-117.15 815.99,-106.22 807.87,-97.05"/>
<polygon fill="midnightblue" stroke="midnightblue" points="810.47,-94.7 801.22,-89.53 805.23,-99.34 810.47,-94.7"/>
</g>
<!-- Node3&#45;&gt;Node5 -->
<g id="edge4" class="edge">
<title>Node3&#45;&gt;Node5</title>
<path fill="none" stroke="midnightblue" d="M853.03,-126.43C853.58,-102.03 854.49,-62.03 855.05,-37.03"/>
<polygon fill="midnightblue" stroke="midnightblue" points="858.56,-36.79 855.28,-26.71 851.56,-36.63 858.56,-36.79"/>
</g>
<!-- Node3&#45;&gt;Node6 -->
<g id="edge5" class="edge">
<title>Node3&#45;&gt;Node6</title>
<path fill="none" stroke="midnightblue" d="M780.4,-126.5C682.67,-98.06 511.63,-48.28 434.84,-25.93"/>
<polygon fill="midnightblue" stroke="midnightblue" points="435.66,-22.53 425.08,-23.09 433.71,-29.25 435.66,-22.53"/>
</g>
<!-- Node3&#45;&gt;Node7 -->
<g id="edge6" class="edge">
<title>Node3&#45;&gt;Node7</title>
<path fill="none" stroke="midnightblue" d="M881.96,-126.5C895.84,-116.59 912.22,-104.88 925.5,-95.4"/>
<polygon fill="midnightblue" stroke="midnightblue" points="927.61,-98.19 933.72,-89.53 923.54,-92.5 927.61,-98.19"/>
</g>
<!-- Node8&#45;&gt;Node5 -->
<g id="edge12" class="edge">
<title>Node8&#45;&gt;Node5</title>
<path fill="none" stroke="midnightblue" d="M678.56,-135.36C690.88,-117.45 716.08,-83.84 744.56,-63 766.88,-46.66 795.57,-34.31 818.19,-26.16"/>
<polygon fill="midnightblue" stroke="midnightblue" points="819.5,-29.41 827.79,-22.82 817.2,-22.8 819.5,-29.41"/>
</g>
<!-- Node9 -->
<g id="node9" class="node">
<title>Node9</title>
<g id="a_node9"><a xlink:href="_i_e_version_8hpp.html" target="_top" xlink:title=" ">
<polygon fill="white" stroke="black" points="404.56,-63.5 404.56,-89.5 514.56,-89.5 514.56,-63.5 404.56,-63.5"/>
<text text-anchor="middle" x="459.56" y="-72.7" font-family="Source Sans Pro" font-size="16.00">IEVersion.hpp</text>
</a>
</g>
</g>
<!-- Node8&#45;&gt;Node9 -->
<g id="edge8" class="edge">
<title>Node8&#45;&gt;Node9</title>
<path fill="none" stroke="midnightblue" d="M643.51,-135.47C635.83,-132.23 627.42,-128.84 619.56,-126 584.7,-113.41 544.81,-101.31 513.59,-92.35"/>
<polygon fill="midnightblue" stroke="midnightblue" points="514.34,-88.93 503.77,-89.55 512.43,-95.66 514.34,-88.93"/>
</g>
<!-- Node9&#45;&gt;Node5 -->
<g id="edge10" class="edge">
<title>Node9&#45;&gt;Node5</title>
<path fill="none" stroke="midnightblue" d="M514.62,-67.02C596.29,-54.44 747.42,-31.16 817.74,-20.33"/>
<polygon fill="midnightblue" stroke="midnightblue" points="818.56,-23.74 827.91,-18.76 817.49,-16.82 818.56,-23.74"/>
</g>
<!-- Node9&#45;&gt;Node6 -->
<g id="edge11" class="edge">
<title>Node9&#45;&gt;Node6</title>
<path fill="none" stroke="midnightblue" d="M446.91,-63.45C437.97,-54.93 425.8,-43.33 415.55,-33.56"/>
<polygon fill="midnightblue" stroke="midnightblue" points="417.83,-30.89 408.18,-26.53 413,-35.96 417.83,-30.89"/>
</g>
<!-- Node9&#45;&gt;Node10 -->
<g id="edge9" class="edge">
<title>Node9&#45;&gt;Node10</title>
<path fill="none" stroke="midnightblue" d="M404.16,-67.34C320.09,-54.95 162.17,-31.68 87.16,-20.63"/>
<polygon fill="midnightblue" stroke="midnightblue" points="87.54,-17.15 77.14,-19.15 86.52,-24.07 87.54,-17.15"/>
</g>
</g>
</svg>
