<?xml version="1.0" encoding="UTF-8" standalone="no"?>
<!DOCTYPE svg PUBLIC "-//W3C//DTD SVG 1.1//EN"
 "http://www.w3.org/Graphics/SVG/1.1/DTD/svg11.dtd">
<!-- Generated by graphviz version 2.43.0 (0)
 -->
<!-- Title: Illumination&#45;Engine/src/GraphicsModule/Image/IENDimensionalResizableImage.hpp Pages: 1 -->
<svg width="249pt" height="206pt"
 viewBox="0.00 0.00 249.00 206.00" xmlns="http://www.w3.org/2000/svg" xmlns:xlink="http://www.w3.org/1999/xlink">
<g id="graph0" class="graph" transform="scale(1 1) rotate(0) translate(4 202)">
<title>Illumination&#45;Engine/src/GraphicsModule/Image/IENDimensionalResizableImage.hpp</title>
<polygon fill="white" stroke="transparent" points="-4,4 -4,-202 245,-202 245,4 -4,4"/>
<!-- Node1 -->
<g id="node1" class="node">
<title>Node1</title>
<g id="a_node1"><a xlink:title=" ">
<polygon fill="#bfbfbf" stroke="black" points="0,-117.5 0,-197.5 241,-197.5 241,-117.5 0,-117.5"/>
<text text-anchor="start" x="8" y="-180.7" font-family="Source Sans Pro" font-size="16.00">Illumination&#45;Engine</text>
<text text-anchor="start" x="8" y="-162.7" font-family="Source Sans Pro" font-size="16.00">/src/GraphicsModule</text>
<text text-anchor="start" x="8" y="-144.7" font-family="Source Sans Pro" font-size="16.00">/Image/IENDimensionalResizable</text>
<text text-anchor="middle" x="120.5" y="-126.7" font-family="Source Sans Pro" font-size="16.00">Image.hpp</text>
</a>
</g>
</g>
<!-- Node2 -->
<g id="node2" class="node">
<title>Node2</title>
<g id="a_node2"><a xlink:href="_i_e_n_dimensional_resizable_image_8cpp.html" target="_top" xlink:title=" ">
<polygon fill="white" stroke="black" points="0,-0.5 0,-80.5 241,-80.5 241,-0.5 0,-0.5"/>
<text text-anchor="start" x="8" y="-63.7" font-family="Source Sans Pro" font-size="16.00">Illumination&#45;Engine</text>
<text text-anchor="start" x="8" y="-45.7" font-family="Source Sans Pro" font-size="16.00">/src/GraphicsModule</text>
<text text-anchor="start" x="8" y="-27.7" font-family="Source Sans Pro" font-size="16.00">/Image/IENDimensionalResizable</text>
<text text-anchor="middle" x="120.5" y="-9.7" font-family="Source Sans Pro" font-size="16.00">Image.cpp</text>
</a>
</g>
</g>
<!-- Node1&#45;&gt;Node2 -->
<g id="edge1" class="edge">
<title>Node1&#45;&gt;Node2</title>
<path fill="none" stroke="midnightblue" d="M120.5,-107.03C120.5,-98.19 120.5,-89.08 120.5,-80.58"/>
<polygon fill="midnightblue" stroke="midnightblue" points="117,-107.25 120.5,-117.25 124,-107.25 117,-107.25"/>
</g>
</g>
</svg>
