<?xml version="1.0" encoding="UTF-8" standalone="no"?>
<!DOCTYPE svg PUBLIC "-//W3C//DTD SVG 1.1//EN"
 "http://www.w3.org/Graphics/SVG/1.1/DTD/svg11.dtd">
<!-- Generated by graphviz version 2.43.0 (0)
 -->
<!-- Title: Illumination&#45;Engine/src/GraphicsModule/Image/IETextureNEW.cpp Pages: 1 -->
<svg width="427pt" height="260pt"
 viewBox="0.00 0.00 426.50 260.00" xmlns="http://www.w3.org/2000/svg" xmlns:xlink="http://www.w3.org/1999/xlink">
<g id="graph0" class="graph" transform="scale(1 1) rotate(0) translate(4 256)">
<title>Illumination&#45;Engine/src/GraphicsModule/Image/IETextureNEW.cpp</title>
<polygon fill="white" stroke="transparent" points="-4,4 -4,-256 422.5,-256 422.5,4 -4,4"/>
<!-- Node1 -->
<g id="node1" class="node">
<title>Node1</title>
<g id="a_node1"><a xlink:title=" ">
<polygon fill="#bfbfbf" stroke="black" points="137.5,-189.5 137.5,-251.5 328.5,-251.5 328.5,-189.5 137.5,-189.5"/>
<text text-anchor="start" x="145.5" y="-234.7" font-family="Source Sans Pro" font-size="16.00">Illumination&#45;Engine</text>
<text text-anchor="start" x="145.5" y="-216.7" font-family="Source Sans Pro" font-size="16.00">/src/GraphicsModule</text>
<text text-anchor="middle" x="233" y="-198.7" font-family="Source Sans Pro" font-size="16.00">/Image/IETextureNEW.cpp</text>
</a>
</g>
</g>
<!-- Node2 -->
<g id="node2" class="node">
<title>Node2</title>
<g id="a_node2"><a xlink:href="_i_e_texture_n_e_w_8hpp.html" target="_top" xlink:title=" ">
<polygon fill="white" stroke="black" points="163,-126.5 163,-152.5 303,-152.5 303,-126.5 163,-126.5"/>
<text text-anchor="middle" x="233" y="-135.7" font-family="Source Sans Pro" font-size="16.00">IETextureNEW.hpp</text>
</a>
</g>
</g>
<!-- Node1&#45;&gt;Node2 -->
<g id="edge1" class="edge">
<title>Node1&#45;&gt;Node2</title>
<path fill="none" stroke="midnightblue" d="M233,-189.18C233,-180.45 233,-171.08 233,-162.91"/>
<polygon fill="midnightblue" stroke="midnightblue" points="236.5,-162.7 233,-152.7 229.5,-162.7 236.5,-162.7"/>
</g>
<!-- Node3 -->
<g id="node3" class="node">
<title>Node3</title>
<g id="a_node3"><a xlink:href="_i_e_image_n_e_w_8hpp.html" target="_top" xlink:title=" ">
<polygon fill="white" stroke="black" points="166.5,-63.5 166.5,-89.5 299.5,-89.5 299.5,-63.5 166.5,-63.5"/>
<text text-anchor="middle" x="233" y="-72.7" font-family="Source Sans Pro" font-size="16.00">IEImageNEW.hpp</text>
</a>
</g>
</g>
<!-- Node2&#45;&gt;Node3 -->
<g id="edge2" class="edge">
<title>Node2&#45;&gt;Node3</title>
<path fill="none" stroke="midnightblue" d="M233,-126.45C233,-118.85 233,-108.79 233,-99.78"/>
<polygon fill="midnightblue" stroke="midnightblue" points="236.5,-99.53 233,-89.53 229.5,-99.53 236.5,-99.53"/>
</g>
<!-- Node4 -->
<g id="node4" class="node">
<title>Node4</title>
<g id="a_node4"><a xlink:title=" ">
<polygon fill="white" stroke="#bfbfbf" points="0,-0.5 0,-26.5 100,-26.5 100,-0.5 0,-0.5"/>
<text text-anchor="middle" x="50" y="-9.7" font-family="Source Sans Pro" font-size="16.00">stb_image.h</text>
</a>
</g>
</g>
<!-- Node3&#45;&gt;Node4 -->
<g id="edge3" class="edge">
<title>Node3&#45;&gt;Node4</title>
<path fill="none" stroke="midnightblue" d="M196.85,-63.45C167.9,-53.8 127.11,-40.2 95.86,-29.79"/>
<polygon fill="midnightblue" stroke="midnightblue" points="96.67,-26.37 86.08,-26.53 94.46,-33.01 96.67,-26.37"/>
</g>
<!-- Node5 -->
<g id="node5" class="node">
<title>Node5</title>
<g id="a_node5"><a xlink:title=" ">
<polygon fill="white" stroke="#bfbfbf" points="118.5,-0.5 118.5,-26.5 183.5,-26.5 183.5,-0.5 118.5,-0.5"/>
<text text-anchor="middle" x="151" y="-9.7" font-family="Source Sans Pro" font-size="16.00">cassert</text>
</a>
</g>
</g>
<!-- Node3&#45;&gt;Node5 -->
<g id="edge4" class="edge">
<title>Node3&#45;&gt;Node5</title>
<path fill="none" stroke="midnightblue" d="M216.8,-63.45C205.01,-54.68 188.83,-42.64 175.47,-32.7"/>
<polygon fill="midnightblue" stroke="midnightblue" points="177.28,-29.69 167.17,-26.53 173.1,-35.3 177.28,-29.69"/>
</g>
<!-- Node6 -->
<g id="node6" class="node">
<title>Node6</title>
<g id="a_node6"><a xlink:title=" ">
<polygon fill="white" stroke="#bfbfbf" points="201.5,-0.5 201.5,-26.5 264.5,-26.5 264.5,-0.5 201.5,-0.5"/>
<text text-anchor="middle" x="233" y="-9.7" font-family="Source Sans Pro" font-size="16.00">cstdint</text>
</a>
</g>
</g>
<!-- Node3&#45;&gt;Node6 -->
<g id="edge5" class="edge">
<title>Node3&#45;&gt;Node6</title>
<path fill="none" stroke="midnightblue" d="M233,-63.45C233,-55.85 233,-45.79 233,-36.78"/>
<polygon fill="midnightblue" stroke="midnightblue" points="236.5,-36.53 233,-26.53 229.5,-36.53 236.5,-36.53"/>
</g>
<!-- Node7 -->
<g id="node7" class="node">
<title>Node7</title>
<g id="a_node7"><a xlink:title=" ">
<polygon fill="white" stroke="#bfbfbf" points="282.5,-0.5 282.5,-26.5 341.5,-26.5 341.5,-0.5 282.5,-0.5"/>
<text text-anchor="middle" x="312" y="-9.7" font-family="Source Sans Pro" font-size="16.00">mutex</text>
</a>
</g>
</g>
<!-- Node3&#45;&gt;Node7 -->
<g id="edge6" class="edge">
<title>Node3&#45;&gt;Node7</title>
<path fill="none" stroke="midnightblue" d="M248.61,-63.45C259.97,-54.68 275.55,-42.64 288.43,-32.7"/>
<polygon fill="midnightblue" stroke="midnightblue" points="290.65,-35.41 296.42,-26.53 286.37,-29.87 290.65,-35.41"/>
</g>
<!-- Node8 -->
<g id="node8" class="node">
<title>Node8</title>
<g id="a_node8"><a xlink:title=" ">
<polygon fill="white" stroke="#bfbfbf" points="359.5,-0.5 359.5,-26.5 418.5,-26.5 418.5,-0.5 359.5,-0.5"/>
<text text-anchor="middle" x="389" y="-9.7" font-family="Source Sans Pro" font-size="16.00">vector</text>
</a>
</g>
</g>
<!-- Node3&#45;&gt;Node8 -->
<g id="edge7" class="edge">
<title>Node3&#45;&gt;Node8</title>
<path fill="none" stroke="midnightblue" d="M263.82,-63.45C288.49,-53.8 323.26,-40.21 349.89,-29.79"/>
<polygon fill="midnightblue" stroke="midnightblue" points="351.26,-33.01 359.3,-26.11 348.71,-26.49 351.26,-33.01"/>
</g>
</g>
</svg>
