<?xml version="1.0" encoding="UTF-8" standalone="no"?>
<!DOCTYPE svg PUBLIC "-//W3C//DTD SVG 1.1//EN"
 "http://www.w3.org/Graphics/SVG/1.1/DTD/svg11.dtd">
<!-- Generated by graphviz version 2.43.0 (0)
 -->
<!-- Title: Illumination&#45;Engine/src/GraphicsModule/CommandBuffer/DependencyStructs/IEImageMemoryBarrier.cpp Pages: 1 -->
<svg width="1044pt" height="422pt"
 viewBox="0.00 0.00 1044.43 422.00" xmlns="http://www.w3.org/2000/svg" xmlns:xlink="http://www.w3.org/1999/xlink">
<g id="graph0" class="graph" transform="scale(1 1) rotate(0) translate(4 418)">
<title>Illumination&#45;Engine/src/GraphicsModule/CommandBuffer/DependencyStructs/IEImageMemoryBarrier.cpp</title>
<polygon fill="white" stroke="transparent" points="-4,4 -4,-418 1040.43,-418 1040.43,4 -4,4"/>
<!-- Node1 -->
<g id="node1" class="node">
<title>Node1</title>
<g id="a_node1"><a xlink:title=" ">
<polygon fill="#bfbfbf" stroke="black" points="368.56,-333.5 368.56,-413.5 640.56,-413.5 640.56,-333.5 368.56,-333.5"/>
<text text-anchor="start" x="376.56" y="-396.7" font-family="Source Sans Pro" font-size="16.00">Illumination&#45;Engine</text>
<text text-anchor="start" x="376.56" y="-378.7" font-family="Source Sans Pro" font-size="16.00">/src/GraphicsModule</text>
<text text-anchor="start" x="376.56" y="-360.7" font-family="Source Sans Pro" font-size="16.00">/CommandBuffer/DependencyStructs</text>
<text text-anchor="middle" x="504.56" y="-342.7" font-family="Source Sans Pro" font-size="16.00">/IEImageMemoryBarrier.cpp</text>
</a>
</g>
</g>
<!-- Node2 -->
<g id="node2" class="node">
<title>Node2</title>
<g id="a_node2"><a xlink:href="_i_e_image_memory_barrier_8hpp.html" target="_top" xlink:title=" ">
<polygon fill="white" stroke="black" points="403.06,-270.5 403.06,-296.5 606.06,-296.5 606.06,-270.5 403.06,-270.5"/>
<text text-anchor="middle" x="504.56" y="-279.7" font-family="Source Sans Pro" font-size="16.00">IEImageMemoryBarrier.hpp</text>
</a>
</g>
</g>
<!-- Node1&#45;&gt;Node2 -->
<g id="edge1" class="edge">
<title>Node1&#45;&gt;Node2</title>
<path fill="none" stroke="midnightblue" d="M504.56,-333.39C504.56,-324.3 504.56,-314.93 504.56,-306.85"/>
<polygon fill="midnightblue" stroke="midnightblue" points="508.06,-306.79 504.56,-296.79 501.06,-306.79 508.06,-306.79"/>
</g>
<!-- Node3 -->
<g id="node3" class="node">
<title>Node3</title>
<g id="a_node3"><a xlink:href="_i_e_image_8hpp.html" target="_top" xlink:title=" ">
<polygon fill="white" stroke="black" points="430.06,-207.5 430.06,-233.5 579.06,-233.5 579.06,-207.5 430.06,-207.5"/>
<text text-anchor="middle" x="504.56" y="-216.7" font-family="Source Sans Pro" font-size="16.00">Image/IEImage.hpp</text>
</a>
</g>
</g>
<!-- Node2&#45;&gt;Node3 -->
<g id="edge2" class="edge">
<title>Node2&#45;&gt;Node3</title>
<path fill="none" stroke="midnightblue" d="M504.56,-270.45C504.56,-262.85 504.56,-252.79 504.56,-243.78"/>
<polygon fill="midnightblue" stroke="midnightblue" points="508.06,-243.53 504.56,-233.53 501.06,-243.53 508.06,-243.53"/>
</g>
<!-- Node5 -->
<g id="node5" class="node">
<title>Node5</title>
<g id="a_node5"><a xlink:title=" ">
<polygon fill="white" stroke="#bfbfbf" points="52.56,-63.5 52.56,-89.5 126.56,-89.5 126.56,-63.5 52.56,-63.5"/>
<text text-anchor="middle" x="89.56" y="-72.7" font-family="Source Sans Pro" font-size="16.00">memory</text>
</a>
</g>
</g>
<!-- Node2&#45;&gt;Node5 -->
<g id="edge22" class="edge">
<title>Node2&#45;&gt;Node5</title>
<path fill="none" stroke="midnightblue" d="M402.87,-273.91C274.3,-260.69 63.93,-230.42 16.56,-171 4.09,-155.36 7.11,-143.63 16.56,-126 23.8,-112.49 36.65,-102.1 49.57,-94.47"/>
<polygon fill="midnightblue" stroke="midnightblue" points="51.36,-97.48 58.46,-89.62 48.01,-91.34 51.36,-97.48"/>
</g>
<!-- Node8 -->
<g id="node8" class="node">
<title>Node8</title>
<g id="a_node8"><a xlink:title=" ">
<polygon fill="white" stroke="#bfbfbf" points="897.06,-63.5 897.06,-89.5 1022.06,-89.5 1022.06,-63.5 897.06,-63.5"/>
<text text-anchor="middle" x="959.56" y="-72.7" font-family="Source Sans Pro" font-size="16.00">vulkan/vulkan.h</text>
</a>
</g>
</g>
<!-- Node2&#45;&gt;Node8 -->
<g id="edge23" class="edge">
<title>Node2&#45;&gt;Node8</title>
<path fill="none" stroke="midnightblue" d="M602.13,-270.48C717.63,-254.18 900.1,-221.2 945.56,-171 962.93,-151.82 964.22,-120.8 962.64,-99.8"/>
<polygon fill="midnightblue" stroke="midnightblue" points="966.09,-99.16 961.59,-89.57 959.13,-99.88 966.09,-99.16"/>
</g>
<!-- Node4 -->
<g id="node4" class="node">
<title>Node4</title>
<g id="a_node4"><a xlink:href="_i_e_dependency_8hpp.html" target="_top" xlink:title=" ">
<polygon fill="white" stroke="black" points="629.06,-126.5 629.06,-170.5 874.06,-170.5 874.06,-126.5 629.06,-126.5"/>
<text text-anchor="start" x="637.06" y="-153.7" font-family="Source Sans Pro" font-size="16.00">GraphicsModule/CommandBuffer</text>
<text text-anchor="middle" x="751.56" y="-135.7" font-family="Source Sans Pro" font-size="16.00">/IEDependency.hpp</text>
</a>
</g>
</g>
<!-- Node3&#45;&gt;Node4 -->
<g id="edge3" class="edge">
<title>Node3&#45;&gt;Node4</title>
<path fill="none" stroke="midnightblue" d="M547.02,-207.47C580.09,-198.09 627.05,-184.79 667.63,-173.29"/>
<polygon fill="midnightblue" stroke="midnightblue" points="668.59,-176.65 677.26,-170.56 666.68,-169.92 668.59,-176.65"/>
</g>
<!-- Node6 -->
<g id="node6" class="node">
<title>Node6</title>
<g id="a_node6"><a xlink:title=" ">
<polygon fill="white" stroke="#bfbfbf" points="277.06,-0.5 277.06,-26.5 332.06,-26.5 332.06,-0.5 277.06,-0.5"/>
<text text-anchor="middle" x="304.56" y="-9.7" font-family="Source Sans Pro" font-size="16.00">string</text>
</a>
</g>
</g>
<!-- Node3&#45;&gt;Node6 -->
<g id="edge20" class="edge">
<title>Node3&#45;&gt;Node6</title>
<path fill="none" stroke="midnightblue" d="M429.9,-217.49C300.04,-213.2 43.74,-201.02 16.56,-171 -16.65,-134.33 4.93,-93.91 43.56,-63 77.48,-35.86 202.96,-22.39 266.77,-17.18"/>
<polygon fill="midnightblue" stroke="midnightblue" points="267.14,-20.66 276.83,-16.38 266.58,-13.68 267.14,-20.66"/>
</g>
<!-- Node7 -->
<g id="node7" class="node">
<title>Node7</title>
<g id="a_node7"><a xlink:title=" ">
<polygon fill="white" stroke="#bfbfbf" points="722.06,-0.5 722.06,-26.5 781.06,-26.5 781.06,-0.5 722.06,-0.5"/>
<text text-anchor="middle" x="751.56" y="-9.7" font-family="Source Sans Pro" font-size="16.00">vector</text>
</a>
</g>
</g>
<!-- Node3&#45;&gt;Node7 -->
<g id="edge21" class="edge">
<title>Node3&#45;&gt;Node7</title>
<path fill="none" stroke="midnightblue" d="M579.19,-216.99C687.49,-212.4 882.18,-200.26 945.56,-171 993.23,-148.99 1010.74,-138.2 1031.56,-90 1036.32,-78.98 1039.29,-72.18 1031.56,-63 1001.34,-27.1 861.42,-17.77 791.52,-15.35"/>
<polygon fill="midnightblue" stroke="midnightblue" points="791.44,-11.85 781.33,-15.03 791.22,-18.84 791.44,-11.85"/>
</g>
<!-- Node3&#45;&gt;Node8 -->
<g id="edge17" class="edge">
<title>Node3&#45;&gt;Node8</title>
<path fill="none" stroke="midnightblue" d="M579.37,-219.27C683.26,-217.53 864.34,-208.95 916.56,-171 939.8,-154.11 950.81,-121.54 955.79,-99.65"/>
<polygon fill="midnightblue" stroke="midnightblue" points="959.27,-100.1 957.82,-89.61 952.41,-98.71 959.27,-100.1"/>
</g>
<!-- Node9 -->
<g id="node9" class="node">
<title>Node9</title>
<g id="a_node9"><a xlink:href="_i_e_a_p_i_8hpp.html" target="_top" xlink:title=" ">
<polygon fill="white" stroke="black" points="26.06,-135.5 26.06,-161.5 109.06,-161.5 109.06,-135.5 26.06,-135.5"/>
<text text-anchor="middle" x="67.56" y="-144.7" font-family="Source Sans Pro" font-size="16.00">IEAPI.hpp</text>
</a>
</g>
</g>
<!-- Node3&#45;&gt;Node9 -->
<g id="edge8" class="edge">
<title>Node3&#45;&gt;Node9</title>
<path fill="none" stroke="midnightblue" d="M429.89,-216.37C351.06,-211.62 223.74,-199.86 117.56,-171 112.15,-169.53 106.55,-167.58 101.16,-165.46"/>
<polygon fill="midnightblue" stroke="midnightblue" points="102.31,-162.15 91.74,-161.52 99.61,-168.61 102.31,-162.15"/>
</g>
<!-- Node11 -->
<g id="node11" class="node">
<title>Node11</title>
<g id="a_node11"><a xlink:title=" ">
<polygon fill="white" stroke="#bfbfbf" points="534.06,-0.5 534.06,-26.5 597.06,-26.5 597.06,-0.5 534.06,-0.5"/>
<text text-anchor="middle" x="565.56" y="-9.7" font-family="Source Sans Pro" font-size="16.00">cstdint</text>
</a>
</g>
</g>
<!-- Node3&#45;&gt;Node11 -->
<g id="edge18" class="edge">
<title>Node3&#45;&gt;Node11</title>
<path fill="none" stroke="midnightblue" d="M579.29,-215.17C683.98,-208.32 863.81,-193.44 883.56,-171 967.18,-76 711.14,-32.63 607.27,-19.25"/>
<polygon fill="midnightblue" stroke="midnightblue" points="607.49,-15.75 597.13,-17.98 606.61,-22.7 607.49,-15.75"/>
</g>
<!-- Node12 -->
<g id="node12" class="node">
<title>Node12</title>
<g id="a_node12"><a xlink:title=" ">
<polygon fill="white" stroke="#bfbfbf" points="127.06,-135.5 127.06,-161.5 210.06,-161.5 210.06,-135.5 127.06,-135.5"/>
<text text-anchor="middle" x="168.56" y="-144.7" font-family="Source Sans Pro" font-size="16.00">GL/glew.h</text>
</a>
</g>
</g>
<!-- Node3&#45;&gt;Node12 -->
<g id="edge14" class="edge">
<title>Node3&#45;&gt;Node12</title>
<path fill="none" stroke="midnightblue" d="M429.99,-211.58C371.86,-204.27 289.55,-191.41 219.56,-171 214.2,-169.44 208.64,-167.47 203.26,-165.38"/>
<polygon fill="midnightblue" stroke="midnightblue" points="204.4,-162.06 193.82,-161.51 201.75,-168.54 204.4,-162.06"/>
</g>
<!-- Node13 -->
<g id="node13" class="node">
<title>Node13</title>
<g id="a_node13"><a xlink:title=" ">
<polygon fill="white" stroke="#bfbfbf" points="228.56,-126.5 228.56,-170.5 358.56,-170.5 358.56,-126.5 228.56,-126.5"/>
<text text-anchor="start" x="236.56" y="-153.7" font-family="Source Sans Pro" font-size="16.00">../contrib/stb/stb</text>
<text text-anchor="middle" x="293.56" y="-135.7" font-family="Source Sans Pro" font-size="16.00">_image.h</text>
</a>
</g>
</g>
<!-- Node3&#45;&gt;Node13 -->
<g id="edge15" class="edge">
<title>Node3&#45;&gt;Node13</title>
<path fill="none" stroke="midnightblue" d="M468.29,-207.47C440.39,-198.21 400.94,-185.12 366.58,-173.72"/>
<polygon fill="midnightblue" stroke="midnightblue" points="367.63,-170.38 357.03,-170.56 365.42,-177.03 367.63,-170.38"/>
</g>
<!-- Node14 -->
<g id="node14" class="node">
<title>Node14</title>
<g id="a_node14"><a xlink:title=" ">
<polygon fill="white" stroke="#bfbfbf" points="377.06,-135.5 377.06,-161.5 506.06,-161.5 506.06,-135.5 377.06,-135.5"/>
<text text-anchor="middle" x="441.56" y="-144.7" font-family="Source Sans Pro" font-size="16.00">vk_mem_alloc.h</text>
</a>
</g>
</g>
<!-- Node3&#45;&gt;Node14 -->
<g id="edge16" class="edge">
<title>Node3&#45;&gt;Node14</title>
<path fill="none" stroke="midnightblue" d="M493.59,-207.31C484.1,-196.77 470.22,-181.34 459.18,-169.07"/>
<polygon fill="midnightblue" stroke="midnightblue" points="461.7,-166.64 452.41,-161.55 456.5,-171.33 461.7,-166.64"/>
</g>
<!-- Node15 -->
<g id="node15" class="node">
<title>Node15</title>
<g id="a_node15"><a xlink:title=" ">
<polygon fill="white" stroke="#bfbfbf" points="524.56,-135.5 524.56,-161.5 610.56,-161.5 610.56,-135.5 524.56,-135.5"/>
<text text-anchor="middle" x="567.56" y="-144.7" font-family="Source Sans Pro" font-size="16.00">functional</text>
</a>
</g>
</g>
<!-- Node3&#45;&gt;Node15 -->
<g id="edge19" class="edge">
<title>Node3&#45;&gt;Node15</title>
<path fill="none" stroke="midnightblue" d="M515.53,-207.31C525.02,-196.77 538.9,-181.34 549.94,-169.07"/>
<polygon fill="midnightblue" stroke="midnightblue" points="552.62,-171.33 556.71,-161.55 547.42,-166.64 552.62,-171.33"/>
</g>
<!-- Node4&#45;&gt;Node5 -->
<g id="edge4" class="edge">
<title>Node4&#45;&gt;Node5</title>
<path fill="none" stroke="midnightblue" d="M628.99,-127.24C625.82,-126.81 622.67,-126.4 619.56,-126 441.94,-103.44 229.54,-87.24 136.79,-80.7"/>
<polygon fill="midnightblue" stroke="midnightblue" points="136.82,-77.2 126.6,-79.99 136.33,-84.18 136.82,-77.2"/>
</g>
<!-- Node4&#45;&gt;Node6 -->
<g id="edge5" class="edge">
<title>Node4&#45;&gt;Node6</title>
<path fill="none" stroke="midnightblue" d="M628.95,-127.52C625.79,-127.01 622.65,-126.5 619.56,-126 519.58,-109.86 486.68,-132.06 394.56,-90 365.76,-76.85 338.8,-51.89 322.03,-34.27"/>
<polygon fill="midnightblue" stroke="midnightblue" points="324.44,-31.72 315.08,-26.77 319.3,-36.48 324.44,-31.72"/>
</g>
<!-- Node4&#45;&gt;Node7 -->
<g id="edge6" class="edge">
<title>Node4&#45;&gt;Node7</title>
<path fill="none" stroke="midnightblue" d="M751.56,-126.43C751.56,-102.03 751.56,-62.03 751.56,-37.03"/>
<polygon fill="midnightblue" stroke="midnightblue" points="755.06,-36.71 751.56,-26.71 748.06,-36.71 755.06,-36.71"/>
</g>
<!-- Node4&#45;&gt;Node8 -->
<g id="edge7" class="edge">
<title>Node4&#45;&gt;Node8</title>
<path fill="none" stroke="midnightblue" d="M813.97,-126.5C846.22,-115.64 884.86,-102.64 914.23,-92.76"/>
<polygon fill="midnightblue" stroke="midnightblue" points="915.45,-96.04 923.81,-89.53 913.22,-89.4 915.45,-96.04"/>
</g>
<!-- Node9&#45;&gt;Node6 -->
<g id="edge13" class="edge">
<title>Node9&#45;&gt;Node6</title>
<path fill="none" stroke="midnightblue" d="M89.01,-135.46C131.29,-111.73 225.51,-58.86 274.17,-31.55"/>
<polygon fill="midnightblue" stroke="midnightblue" points="275.98,-34.55 282.99,-26.61 272.55,-28.45 275.98,-34.55"/>
</g>
<!-- Node10 -->
<g id="node10" class="node">
<title>Node10</title>
<g id="a_node10"><a xlink:href="_i_e_version_8hpp.html" target="_top" xlink:title=" ">
<polygon fill="white" stroke="black" points="403.56,-63.5 403.56,-89.5 513.56,-89.5 513.56,-63.5 403.56,-63.5"/>
<text text-anchor="middle" x="458.56" y="-72.7" font-family="Source Sans Pro" font-size="16.00">IEVersion.hpp</text>
</a>
</g>
</g>
<!-- Node9&#45;&gt;Node10 -->
<g id="edge9" class="edge">
<title>Node9&#45;&gt;Node10</title>
<path fill="none" stroke="midnightblue" d="M92.01,-135.45C100,-131.94 109.01,-128.4 117.56,-126 211.2,-99.71 323.5,-87.25 392.96,-81.66"/>
<polygon fill="midnightblue" stroke="midnightblue" points="393.61,-85.12 403.3,-80.85 393.06,-78.14 393.61,-85.12"/>
</g>
<!-- Node10&#45;&gt;Node6 -->
<g id="edge11" class="edge">
<title>Node10&#45;&gt;Node6</title>
<path fill="none" stroke="midnightblue" d="M428.13,-63.45C403.23,-53.58 367.91,-39.59 341.41,-29.1"/>
<polygon fill="midnightblue" stroke="midnightblue" points="342.67,-25.83 332.08,-25.4 340.09,-32.34 342.67,-25.83"/>
</g>
<!-- Node10&#45;&gt;Node7 -->
<g id="edge12" class="edge">
<title>Node10&#45;&gt;Node7</title>
<path fill="none" stroke="midnightblue" d="M513.67,-64.03C571.36,-52.02 660.54,-33.45 711.74,-22.79"/>
<polygon fill="midnightblue" stroke="midnightblue" points="712.68,-26.17 721.76,-20.7 711.26,-19.32 712.68,-26.17"/>
</g>
<!-- Node10&#45;&gt;Node11 -->
<g id="edge10" class="edge">
<title>Node10&#45;&gt;Node11</title>
<path fill="none" stroke="midnightblue" d="M479.7,-63.45C495.67,-54.34 517.81,-41.72 535.61,-31.57"/>
<polygon fill="midnightblue" stroke="midnightblue" points="537.51,-34.52 544.46,-26.53 534.04,-28.44 537.51,-34.52"/>
</g>
</g>
</svg>
