<?xml version="1.0" encoding="UTF-8" standalone="no"?>
<!DOCTYPE svg PUBLIC "-//W3C//DTD SVG 1.1//EN"
 "http://www.w3.org/Graphics/SVG/1.1/DTD/svg11.dtd">
<!-- Generated by graphviz version 2.43.0 (0)
 -->
<!-- Title: Illumination&#45;Engine/src/GraphicsModule/Shader/IEShader.hpp Pages: 1 -->
<svg width="651pt" height="278pt"
 viewBox="0.00 0.00 650.50 278.00" xmlns="http://www.w3.org/2000/svg" xmlns:xlink="http://www.w3.org/1999/xlink">
<g id="graph0" class="graph" transform="scale(1 1) rotate(0) translate(4 274)">
<title>Illumination&#45;Engine/src/GraphicsModule/Shader/IEShader.hpp</title>
<polygon fill="white" stroke="transparent" points="-4,4 -4,-274 646.5,-274 646.5,4 -4,4"/>
<!-- Node1 -->
<g id="node1" class="node">
<title>Node1</title>
<g id="a_node1"><a xlink:title=" ">
<polygon fill="#bfbfbf" stroke="black" points="145.5,-207.5 145.5,-269.5 311.5,-269.5 311.5,-207.5 145.5,-207.5"/>
<text text-anchor="start" x="153.5" y="-252.7" font-family="Source Sans Pro" font-size="16.00">Illumination&#45;Engine</text>
<text text-anchor="start" x="153.5" y="-234.7" font-family="Source Sans Pro" font-size="16.00">/src/GraphicsModule</text>
<text text-anchor="middle" x="228.5" y="-216.7" font-family="Source Sans Pro" font-size="16.00">/Shader/IEShader.hpp</text>
</a>
</g>
</g>
<!-- Node2 -->
<g id="node2" class="node">
<title>Node2</title>
<g id="a_node2"><a xlink:href="_i_e_a_p_i_8hpp.html" target="_top" xlink:title=" ">
<polygon fill="white" stroke="black" points="66,-144.5 66,-170.5 149,-170.5 149,-144.5 66,-144.5"/>
<text text-anchor="middle" x="107.5" y="-153.7" font-family="Source Sans Pro" font-size="16.00">IEAPI.hpp</text>
</a>
</g>
</g>
<!-- Node1&#45;&gt;Node2 -->
<g id="edge1" class="edge">
<title>Node1&#45;&gt;Node2</title>
<path fill="none" stroke="midnightblue" d="M182.41,-207.41C166.3,-196.89 148.75,-185.43 134.69,-176.25"/>
<polygon fill="midnightblue" stroke="midnightblue" points="136.28,-173.11 126,-170.58 132.46,-178.97 136.28,-173.11"/>
</g>
<!-- Node5 -->
<g id="node5" class="node">
<title>Node5</title>
<g id="a_node5"><a xlink:title=" ">
<polygon fill="white" stroke="#bfbfbf" points="0,-0.5 0,-26.5 55,-26.5 55,-0.5 0,-0.5"/>
<text text-anchor="middle" x="27.5" y="-9.7" font-family="Source Sans Pro" font-size="16.00">string</text>
</a>
</g>
</g>
<!-- Node1&#45;&gt;Node5 -->
<g id="edge8" class="edge">
<title>Node1&#45;&gt;Node5</title>
<path fill="none" stroke="midnightblue" d="M145.45,-219.07C114.69,-208.96 81.3,-193.7 56.5,-171 19.66,-137.28 24.47,-112.93 25.5,-63 25.67,-54.54 26.02,-45.26 26.37,-37.1"/>
<polygon fill="midnightblue" stroke="midnightblue" points="29.88,-37.01 26.85,-26.85 22.89,-36.68 29.88,-37.01"/>
</g>
<!-- Node6 -->
<g id="node6" class="node">
<title>Node6</title>
<g id="a_node6"><a xlink:title=" ">
<polygon fill="white" stroke="#bfbfbf" points="155,-0.5 155,-26.5 214,-26.5 214,-0.5 155,-0.5"/>
<text text-anchor="middle" x="184.5" y="-9.7" font-family="Source Sans Pro" font-size="16.00">vector</text>
</a>
</g>
</g>
<!-- Node1&#45;&gt;Node6 -->
<g id="edge9" class="edge">
<title>Node1&#45;&gt;Node6</title>
<path fill="none" stroke="midnightblue" d="M222.57,-207.43C213.58,-161.9 196.75,-76.57 188.83,-36.43"/>
<polygon fill="midnightblue" stroke="midnightblue" points="192.26,-35.73 186.89,-26.6 185.39,-37.08 192.26,-35.73"/>
</g>
<!-- Node7 -->
<g id="node7" class="node">
<title>Node7</title>
<g id="a_node7"><a xlink:title=" ">
<polygon fill="white" stroke="#bfbfbf" points="257,-144.5 257,-170.5 382,-170.5 382,-144.5 257,-144.5"/>
<text text-anchor="middle" x="319.5" y="-153.7" font-family="Source Sans Pro" font-size="16.00">vulkan/vulkan.h</text>
</a>
</g>
</g>
<!-- Node1&#45;&gt;Node7 -->
<g id="edge7" class="edge">
<title>Node1&#45;&gt;Node7</title>
<path fill="none" stroke="midnightblue" d="M263.16,-207.41C274.74,-197.36 287.3,-186.45 297.62,-177.49"/>
<polygon fill="midnightblue" stroke="midnightblue" points="300.1,-179.98 305.36,-170.78 295.51,-174.69 300.1,-179.98"/>
</g>
<!-- Node8 -->
<g id="node8" class="node">
<title>Node8</title>
<g id="a_node8"><a xlink:title=" ">
<polygon fill="white" stroke="#bfbfbf" points="400.5,-144.5 400.5,-170.5 486.5,-170.5 486.5,-144.5 400.5,-144.5"/>
<text text-anchor="middle" x="443.5" y="-153.7" font-family="Source Sans Pro" font-size="16.00">functional</text>
</a>
</g>
</g>
<!-- Node1&#45;&gt;Node8 -->
<g id="edge10" class="edge">
<title>Node1&#45;&gt;Node8</title>
<path fill="none" stroke="midnightblue" d="M310.4,-207.41C341.33,-196.04 375.27,-183.57 401.14,-174.07"/>
<polygon fill="midnightblue" stroke="midnightblue" points="402.45,-177.31 410.63,-170.58 400.04,-170.74 402.45,-177.31"/>
</g>
<!-- Node9 -->
<g id="node9" class="node">
<title>Node9</title>
<g id="a_node9"><a xlink:href="_i_e_file_8hpp.html" target="_top" xlink:title=" ">
<polygon fill="white" stroke="black" points="218,-63.5 218,-107.5 395,-107.5 395,-63.5 218,-63.5"/>
<text text-anchor="start" x="226" y="-90.7" font-family="Source Sans Pro" font-size="16.00">Core/FileSystemModule</text>
<text text-anchor="middle" x="306.5" y="-72.7" font-family="Source Sans Pro" font-size="16.00">/IEFile.hpp</text>
</a>
</g>
</g>
<!-- Node1&#45;&gt;Node9 -->
<g id="edge11" class="edge">
<title>Node1&#45;&gt;Node9</title>
<path fill="none" stroke="midnightblue" d="M230.53,-207.33C232.85,-188.22 237.83,-163.52 248.5,-144 254.4,-133.21 262.95,-123.13 271.69,-114.52"/>
<polygon fill="midnightblue" stroke="midnightblue" points="274.12,-117.05 279.02,-107.65 269.33,-111.94 274.12,-117.05"/>
</g>
<!-- Node14 -->
<g id="node14" class="node">
<title>Node14</title>
<g id="a_node14"><a xlink:title=" ">
<polygon fill="white" stroke="#bfbfbf" points="504.5,-144.5 504.5,-170.5 642.5,-170.5 642.5,-144.5 504.5,-144.5"/>
<text text-anchor="middle" x="573.5" y="-153.7" font-family="Source Sans Pro" font-size="16.00">include/GL/glew.h</text>
</a>
</g>
</g>
<!-- Node1&#45;&gt;Node14 -->
<g id="edge18" class="edge">
<title>Node1&#45;&gt;Node14</title>
<path fill="none" stroke="midnightblue" d="M311.58,-218.48C372.99,-204.41 455.3,-185.57 511.14,-172.78"/>
<polygon fill="midnightblue" stroke="midnightblue" points="511.94,-176.19 520.9,-170.54 510.38,-169.36 511.94,-176.19"/>
</g>
<!-- Node3 -->
<g id="node3" class="node">
<title>Node3</title>
<g id="a_node3"><a xlink:href="_i_e_version_8hpp.html" target="_top" xlink:title=" ">
<polygon fill="white" stroke="black" points="52.5,-72.5 52.5,-98.5 162.5,-98.5 162.5,-72.5 52.5,-72.5"/>
<text text-anchor="middle" x="107.5" y="-81.7" font-family="Source Sans Pro" font-size="16.00">IEVersion.hpp</text>
</a>
</g>
</g>
<!-- Node2&#45;&gt;Node3 -->
<g id="edge2" class="edge">
<title>Node2&#45;&gt;Node3</title>
<path fill="none" stroke="midnightblue" d="M107.5,-144.31C107.5,-134.47 107.5,-120.38 107.5,-108.57"/>
<polygon fill="midnightblue" stroke="midnightblue" points="111,-108.55 107.5,-98.55 104,-108.55 111,-108.55"/>
</g>
<!-- Node2&#45;&gt;Node5 -->
<g id="edge6" class="edge">
<title>Node2&#45;&gt;Node5</title>
<path fill="none" stroke="midnightblue" d="M83.72,-144.46C69.77,-136.13 53.05,-123.73 43.5,-108 30.3,-86.27 27.2,-56.74 26.82,-36.72"/>
<polygon fill="midnightblue" stroke="midnightblue" points="30.32,-36.7 26.84,-26.69 23.32,-36.68 30.32,-36.7"/>
</g>
<!-- Node4 -->
<g id="node4" class="node">
<title>Node4</title>
<g id="a_node4"><a xlink:title=" ">
<polygon fill="white" stroke="#bfbfbf" points="74,-0.5 74,-26.5 137,-26.5 137,-0.5 74,-0.5"/>
<text text-anchor="middle" x="105.5" y="-9.7" font-family="Source Sans Pro" font-size="16.00">cstdint</text>
</a>
</g>
</g>
<!-- Node3&#45;&gt;Node4 -->
<g id="edge3" class="edge">
<title>Node3&#45;&gt;Node4</title>
<path fill="none" stroke="midnightblue" d="M107.15,-72.31C106.87,-62.47 106.47,-48.38 106.13,-36.57"/>
<polygon fill="midnightblue" stroke="midnightblue" points="109.63,-36.45 105.84,-26.55 102.63,-36.65 109.63,-36.45"/>
</g>
<!-- Node3&#45;&gt;Node5 -->
<g id="edge4" class="edge">
<title>Node3&#45;&gt;Node5</title>
<path fill="none" stroke="midnightblue" d="M93.57,-72.31C81.29,-61.57 63.22,-45.75 49.07,-33.38"/>
<polygon fill="midnightblue" stroke="midnightblue" points="51.11,-30.5 41.28,-26.55 46.5,-35.77 51.11,-30.5"/>
</g>
<!-- Node3&#45;&gt;Node6 -->
<g id="edge5" class="edge">
<title>Node3&#45;&gt;Node6</title>
<path fill="none" stroke="midnightblue" d="M120.91,-72.31C132.73,-61.57 150.12,-45.75 163.74,-33.38"/>
<polygon fill="midnightblue" stroke="midnightblue" points="166.2,-35.87 171.24,-26.55 161.49,-30.69 166.2,-35.87"/>
</g>
<!-- Node9&#45;&gt;Node5 -->
<g id="edge13" class="edge">
<title>Node9&#45;&gt;Node5</title>
<path fill="none" stroke="midnightblue" d="M217.77,-65.49C174.28,-55.68 121.02,-42.93 65.04,-26.99"/>
<polygon fill="midnightblue" stroke="midnightblue" points="65.87,-23.59 55.29,-24.2 63.94,-30.32 65.87,-23.59"/>
</g>
<!-- Node9&#45;&gt;Node6 -->
<g id="edge12" class="edge">
<title>Node9&#45;&gt;Node6</title>
<path fill="none" stroke="midnightblue" d="M269.9,-63.5C252.13,-53.3 231.06,-41.21 214.29,-31.59"/>
<polygon fill="midnightblue" stroke="midnightblue" points="215.88,-28.47 205.47,-26.53 212.4,-34.54 215.88,-28.47"/>
</g>
<!-- Node10 -->
<g id="node10" class="node">
<title>Node10</title>
<g id="a_node10"><a xlink:title=" ">
<polygon fill="white" stroke="#bfbfbf" points="483,-0.5 483,-26.5 568,-26.5 568,-0.5 483,-0.5"/>
<text text-anchor="middle" x="525.5" y="-9.7" font-family="Source Sans Pro" font-size="16.00">filesystem</text>
</a>
</g>
</g>
<!-- Node9&#45;&gt;Node10 -->
<g id="edge14" class="edge">
<title>Node9&#45;&gt;Node10</title>
<path fill="none" stroke="midnightblue" d="M372.21,-63.5C406.31,-52.6 447.21,-39.53 478.18,-29.63"/>
<polygon fill="midnightblue" stroke="midnightblue" points="479.4,-32.91 487.86,-26.53 477.27,-26.24 479.4,-32.91"/>
</g>
<!-- Node11 -->
<g id="node11" class="node">
<title>Node11</title>
<g id="a_node11"><a xlink:title=" ">
<polygon fill="white" stroke="#bfbfbf" points="232.5,-0.5 232.5,-26.5 300.5,-26.5 300.5,-0.5 232.5,-0.5"/>
<text text-anchor="middle" x="266.5" y="-9.7" font-family="Source Sans Pro" font-size="16.00">fstream</text>
</a>
</g>
</g>
<!-- Node9&#45;&gt;Node11 -->
<g id="edge15" class="edge">
<title>Node9&#45;&gt;Node11</title>
<path fill="none" stroke="midnightblue" d="M294.5,-63.5C289.43,-54.63 283.54,-44.32 278.47,-35.45"/>
<polygon fill="midnightblue" stroke="midnightblue" points="281.38,-33.48 273.37,-26.53 275.3,-36.95 281.38,-33.48"/>
</g>
<!-- Node12 -->
<g id="node12" class="node">
<title>Node12</title>
<g id="a_node12"><a xlink:title=" ">
<polygon fill="white" stroke="#bfbfbf" points="318.5,-0.5 318.5,-26.5 370.5,-26.5 370.5,-0.5 318.5,-0.5"/>
<text text-anchor="middle" x="344.5" y="-9.7" font-family="Source Sans Pro" font-size="16.00">regex</text>
</a>
</g>
</g>
<!-- Node9&#45;&gt;Node12 -->
<g id="edge16" class="edge">
<title>Node9&#45;&gt;Node12</title>
<path fill="none" stroke="midnightblue" d="M317.9,-63.5C322.72,-54.63 328.31,-44.32 333.13,-35.45"/>
<polygon fill="midnightblue" stroke="midnightblue" points="336.27,-36.99 337.97,-26.53 330.12,-33.65 336.27,-36.99"/>
</g>
<!-- Node13 -->
<g id="node13" class="node">
<title>Node13</title>
<g id="a_node13"><a xlink:title=" ">
<polygon fill="white" stroke="#bfbfbf" points="388.5,-0.5 388.5,-26.5 464.5,-26.5 464.5,-0.5 388.5,-0.5"/>
<text text-anchor="middle" x="426.5" y="-9.7" font-family="Source Sans Pro" font-size="16.00">iostream</text>
</a>
</g>
</g>
<!-- Node9&#45;&gt;Node13 -->
<g id="edge17" class="edge">
<title>Node9&#45;&gt;Node13</title>
<path fill="none" stroke="midnightblue" d="M342.5,-63.5C359.98,-53.3 380.71,-41.21 397.2,-31.59"/>
<polygon fill="midnightblue" stroke="midnightblue" points="399,-34.59 405.88,-26.53 395.47,-28.55 399,-34.59"/>
</g>
</g>
</svg>
