<?xml version="1.0" encoding="UTF-8" standalone="no"?>
<!DOCTYPE svg PUBLIC "-//W3C//DTD SVG 1.1//EN"
 "http://www.w3.org/Graphics/SVG/1.1/DTD/svg11.dtd">
<!-- Generated by graphviz version 2.43.0 (0)
 -->
<!-- Title: Illumination&#45;Engine/src/Core/LogModule/IELogger.hpp Pages: 1 -->
<svg width="3584pt" height="368pt"
 viewBox="0.00 0.00 3583.50 368.00" xmlns="http://www.w3.org/2000/svg" xmlns:xlink="http://www.w3.org/1999/xlink">
<g id="graph0" class="graph" transform="scale(1 1) rotate(0) translate(4 364)">
<title>Illumination&#45;Engine/src/Core/LogModule/IELogger.hpp</title>
<polygon fill="white" stroke="transparent" points="-4,4 -4,-364 3579.5,-364 3579.5,4 -4,4"/>
<!-- Node1 -->
<g id="node1" class="node">
<title>Node1</title>
<g id="a_node1"><a xlink:title=" ">
<polygon fill="#bfbfbf" stroke="black" points="1828,-297.5 1828,-359.5 1987,-359.5 1987,-297.5 1828,-297.5"/>
<text text-anchor="start" x="1836" y="-342.7" font-family="Source Sans Pro" font-size="16.00">Illumination&#45;Engine</text>
<text text-anchor="start" x="1836" y="-324.7" font-family="Source Sans Pro" font-size="16.00">/src/Core/LogModule</text>
<text text-anchor="middle" x="1907.5" y="-306.7" font-family="Source Sans Pro" font-size="16.00">/IELogger.hpp</text>
</a>
</g>
</g>
<!-- Node2 -->
<g id="node2" class="node">
<title>Node2</title>
<g id="a_node2"><a xlink:href="_i_e_logger_8cpp.html" target="_top" xlink:title=" ">
<polygon fill="white" stroke="black" points="1412,-198.5 1412,-260.5 1571,-260.5 1571,-198.5 1412,-198.5"/>
<text text-anchor="start" x="1420" y="-243.7" font-family="Source Sans Pro" font-size="16.00">Illumination&#45;Engine</text>
<text text-anchor="start" x="1420" y="-225.7" font-family="Source Sans Pro" font-size="16.00">/src/Core/LogModule</text>
<text text-anchor="middle" x="1491.5" y="-207.7" font-family="Source Sans Pro" font-size="16.00">/IELogger.cpp</text>
</a>
</g>
</g>
<!-- Node1&#45;&gt;Node2 -->
<g id="edge1" class="edge">
<title>Node1&#45;&gt;Node2</title>
<path fill="none" stroke="midnightblue" d="M1818.09,-311.92C1752.89,-299.88 1662.65,-281.79 1584.5,-261 1580.15,-259.84 1575.7,-258.6 1571.22,-257.3"/>
<polygon fill="midnightblue" stroke="midnightblue" points="1817.46,-315.37 1827.93,-313.73 1818.73,-308.48 1817.46,-315.37"/>
</g>
<!-- Node3 -->
<g id="node3" class="node">
<title>Node3</title>
<g id="a_node3"><a xlink:href="_i_e_command_buffer_8cpp.html" target="_top" xlink:title=" ">
<polygon fill="white" stroke="black" points="0,-0.5 0,-62.5 293,-62.5 293,-0.5 0,-0.5"/>
<text text-anchor="start" x="8" y="-45.7" font-family="Source Sans Pro" font-size="16.00">Illumination&#45;Engine</text>
<text text-anchor="start" x="8" y="-27.7" font-family="Source Sans Pro" font-size="16.00">/src/GraphicsModule</text>
<text text-anchor="middle" x="146.5" y="-9.7" font-family="Source Sans Pro" font-size="16.00">/CommandBuffer/IECommandBuffer.cpp</text>
</a>
</g>
</g>
<!-- Node1&#45;&gt;Node3 -->
<g id="edge2" class="edge">
<title>Node1&#45;&gt;Node3</title>
<path fill="none" stroke="midnightblue" d="M1818.11,-310.85C1771.48,-300.19 1714.35,-283.99 1666.5,-261 1623.47,-240.32 1624.08,-215.09 1579.5,-198 1046.59,6.27 866.88,-147.84 302.5,-63 299.5,-62.55 296.47,-62.08 293.41,-61.6"/>
<polygon fill="midnightblue" stroke="midnightblue" points="1817.37,-314.27 1827.89,-313.03 1818.9,-307.44 1817.37,-314.27"/>
</g>
<!-- Node4 -->
<g id="node4" class="node">
<title>Node4</title>
<g id="a_node4"><a xlink:href="_i_e_command_pool_8cpp.html" target="_top" xlink:title=" ">
<polygon fill="white" stroke="black" points="311.5,-0.5 311.5,-62.5 595.5,-62.5 595.5,-0.5 311.5,-0.5"/>
<text text-anchor="start" x="319.5" y="-45.7" font-family="Source Sans Pro" font-size="16.00">Illumination&#45;Engine</text>
<text text-anchor="start" x="319.5" y="-27.7" font-family="Source Sans Pro" font-size="16.00">/src/GraphicsModule</text>
<text text-anchor="middle" x="453.5" y="-9.7" font-family="Source Sans Pro" font-size="16.00">/CommandBuffer/IECommandPool.cpp</text>
</a>
</g>
</g>
<!-- Node1&#45;&gt;Node4 -->
<g id="edge3" class="edge">
<title>Node1&#45;&gt;Node4</title>
<path fill="none" stroke="midnightblue" d="M1817.61,-312.72C1779.87,-302.99 1737.42,-287.02 1705.5,-261 1697.46,-254.44 1621.39,-104.36 1612.5,-99 1516.53,-41.12 715.8,-76.14 604.5,-63 601.58,-62.66 598.63,-62.28 595.66,-61.89"/>
<polygon fill="midnightblue" stroke="midnightblue" points="1817.06,-316.19 1827.61,-315.19 1818.74,-309.4 1817.06,-316.19"/>
</g>
<!-- Node5 -->
<g id="node5" class="node">
<title>Node5</title>
<g id="a_node5"><a xlink:href="_i_e_a_p_i_8cpp.html" target="_top" xlink:title=" ">
<polygon fill="white" stroke="black" points="614,-0.5 614,-62.5 771,-62.5 771,-0.5 614,-0.5"/>
<text text-anchor="start" x="622" y="-45.7" font-family="Source Sans Pro" font-size="16.00">Illumination&#45;Engine</text>
<text text-anchor="start" x="622" y="-27.7" font-family="Source Sans Pro" font-size="16.00">/src/GraphicsModule</text>
<text text-anchor="middle" x="692.5" y="-9.7" font-family="Source Sans Pro" font-size="16.00">/IEAPI.cpp</text>
</a>
</g>
</g>
<!-- Node1&#45;&gt;Node5 -->
<g id="edge4" class="edge">
<title>Node1&#45;&gt;Node5</title>
<path fill="none" stroke="midnightblue" d="M1818.35,-297.5C1797.09,-287.86 1775.4,-275.76 1757.5,-261 1716.13,-226.87 1717.7,-206.99 1688.5,-162 1670.7,-134.57 1678.64,-115.66 1650.5,-99 1567.16,-49.64 874.63,-81.22 779.5,-63 776.83,-62.49 774.13,-61.91 771.41,-61.28"/>
<polygon fill="midnightblue" stroke="midnightblue" points="1817.18,-300.81 1827.75,-301.62 1819.99,-294.4 1817.18,-300.81"/>
</g>
<!-- Node6 -->
<g id="node6" class="node">
<title>Node6</title>
<g id="a_node6"><a xlink:href="_i_e_render_engine_8cpp.html" target="_top" xlink:title=" ">
<polygon fill="white" stroke="black" points="789,-0.5 789,-62.5 948,-62.5 948,-0.5 789,-0.5"/>
<text text-anchor="start" x="797" y="-45.7" font-family="Source Sans Pro" font-size="16.00">Illumination&#45;Engine</text>
<text text-anchor="start" x="797" y="-27.7" font-family="Source Sans Pro" font-size="16.00">/src/GraphicsModule</text>
<text text-anchor="middle" x="868.5" y="-9.7" font-family="Source Sans Pro" font-size="16.00">/IERenderEngine.cpp</text>
</a>
</g>
</g>
<!-- Node1&#45;&gt;Node6 -->
<g id="edge5" class="edge">
<title>Node1&#45;&gt;Node6</title>
<path fill="none" stroke="midnightblue" d="M1856.35,-290.92C1844.24,-281.58 1831.62,-271.27 1820.5,-261 1777.03,-220.86 1768.04,-208.54 1731.5,-162 1710.57,-135.34 1718.08,-115.56 1688.5,-99 1617.45,-59.21 1036.44,-78.49 956.5,-63 953.8,-62.48 951.07,-61.89 948.33,-61.25"/>
<polygon fill="midnightblue" stroke="midnightblue" points="1854.55,-293.95 1864.63,-297.22 1858.79,-288.38 1854.55,-293.95"/>
</g>
<!-- Node7 -->
<g id="node7" class="node">
<title>Node7</title>
<g id="a_node7"><a xlink:href="_i_e_settings_8hpp.html" target="_top" xlink:title=" ">
<polygon fill="white" stroke="black" points="1829,-198.5 1829,-260.5 1986,-260.5 1986,-198.5 1829,-198.5"/>
<text text-anchor="start" x="1837" y="-243.7" font-family="Source Sans Pro" font-size="16.00">Illumination&#45;Engine</text>
<text text-anchor="start" x="1837" y="-225.7" font-family="Source Sans Pro" font-size="16.00">/src/GraphicsModule</text>
<text text-anchor="middle" x="1907.5" y="-207.7" font-family="Source Sans Pro" font-size="16.00">/IESettings.hpp</text>
</a>
</g>
</g>
<!-- Node1&#45;&gt;Node7 -->
<g id="edge6" class="edge">
<title>Node1&#45;&gt;Node7</title>
<path fill="none" stroke="midnightblue" d="M1907.5,-287.17C1907.5,-278.29 1907.5,-269.03 1907.5,-260.64"/>
<polygon fill="midnightblue" stroke="midnightblue" points="1904,-287.34 1907.5,-297.34 1911,-287.34 1904,-287.34"/>
</g>
<!-- Node11 -->
<g id="node11" class="node">
<title>Node11</title>
<g id="a_node11"><a xlink:href="_i_e_image_8cpp.html" target="_top" xlink:title=" ">
<polygon fill="white" stroke="black" points="2603,-0.5 2603,-62.5 2760,-62.5 2760,-0.5 2603,-0.5"/>
<text text-anchor="start" x="2611" y="-45.7" font-family="Source Sans Pro" font-size="16.00">Illumination&#45;Engine</text>
<text text-anchor="start" x="2611" y="-27.7" font-family="Source Sans Pro" font-size="16.00">/src/GraphicsModule</text>
<text text-anchor="middle" x="2681.5" y="-9.7" font-family="Source Sans Pro" font-size="16.00">/Image/IEImage.cpp</text>
</a>
</g>
</g>
<!-- Node1&#45;&gt;Node11 -->
<g id="edge26" class="edge">
<title>Node1&#45;&gt;Node11</title>
<path fill="none" stroke="midnightblue" d="M1995.69,-293.89C2147.91,-235.87 2457.6,-117.84 2602.91,-62.46"/>
<polygon fill="midnightblue" stroke="midnightblue" points="1994.43,-290.62 1986.33,-297.45 1996.92,-297.16 1994.43,-290.62"/>
</g>
<!-- Node12 -->
<g id="node12" class="node">
<title>Node12</title>
<g id="a_node12"><a xlink:href="_i_e_texture_8cpp.html" target="_top" xlink:title=" ">
<polygon fill="white" stroke="black" points="2778,-0.5 2778,-62.5 2939,-62.5 2939,-0.5 2778,-0.5"/>
<text text-anchor="start" x="2786" y="-45.7" font-family="Source Sans Pro" font-size="16.00">Illumination&#45;Engine</text>
<text text-anchor="start" x="2786" y="-27.7" font-family="Source Sans Pro" font-size="16.00">/src/GraphicsModule</text>
<text text-anchor="middle" x="2858.5" y="-9.7" font-family="Source Sans Pro" font-size="16.00">/Image/IETexture.cpp</text>
</a>
</g>
</g>
<!-- Node1&#45;&gt;Node12 -->
<g id="edge27" class="edge">
<title>Node1&#45;&gt;Node12</title>
<path fill="none" stroke="midnightblue" d="M1996.93,-307.75C2050.48,-295.41 2119.73,-278.58 2180.5,-261 2398.86,-197.83 2651.49,-108.21 2777.82,-62.23"/>
<polygon fill="midnightblue" stroke="midnightblue" points="1996.08,-304.35 1987.12,-310 1997.65,-311.17 1996.08,-304.35"/>
</g>
<!-- Node14 -->
<g id="node14" class="node">
<title>Node14</title>
<g id="a_node14"><a xlink:href="_i_e_render_pass_8cpp.html" target="_top" xlink:title=" ">
<polygon fill="white" stroke="black" points="2957,-0.5 2957,-62.5 3184,-62.5 3184,-0.5 2957,-0.5"/>
<text text-anchor="start" x="2965" y="-45.7" font-family="Source Sans Pro" font-size="16.00">Illumination&#45;Engine</text>
<text text-anchor="start" x="2965" y="-27.7" font-family="Source Sans Pro" font-size="16.00">/src/GraphicsModule</text>
<text text-anchor="middle" x="3070.5" y="-9.7" font-family="Source Sans Pro" font-size="16.00">/RenderPass/IERenderPass.cpp</text>
</a>
</g>
</g>
<!-- Node1&#45;&gt;Node14 -->
<g id="edge28" class="edge">
<title>Node1&#45;&gt;Node14</title>
<path fill="none" stroke="midnightblue" d="M1997.24,-315.1C2076.06,-303.5 2193.57,-284.45 2294.5,-261 2546.38,-202.48 2837.36,-109.94 2980.9,-62.58"/>
<polygon fill="midnightblue" stroke="midnightblue" points="1996.73,-311.64 1987.35,-316.55 1997.75,-318.56 1996.73,-311.64"/>
</g>
<!-- Node16 -->
<g id="node16" class="node">
<title>Node16</title>
<g id="a_node16"><a xlink:href="_i_e_mesh_8cpp.html" target="_top" xlink:title=" ">
<polygon fill="white" stroke="black" points="3202,-0.5 3202,-62.5 3385,-62.5 3385,-0.5 3202,-0.5"/>
<text text-anchor="start" x="3210" y="-45.7" font-family="Source Sans Pro" font-size="16.00">Illumination&#45;Engine</text>
<text text-anchor="start" x="3210" y="-27.7" font-family="Source Sans Pro" font-size="16.00">/src/GraphicsModule</text>
<text text-anchor="middle" x="3293.5" y="-9.7" font-family="Source Sans Pro" font-size="16.00">/Renderable/IEMesh.cpp</text>
</a>
</g>
</g>
<!-- Node1&#45;&gt;Node16 -->
<g id="edge29" class="edge">
<title>Node1&#45;&gt;Node16</title>
<path fill="none" stroke="midnightblue" d="M1997.18,-319.34C2100.54,-309.14 2275.21,-289.51 2423.5,-261 2711.04,-205.72 3044.08,-108.84 3201.73,-60.95"/>
<polygon fill="midnightblue" stroke="midnightblue" points="1996.71,-315.86 1987.1,-320.32 1997.39,-322.83 1996.71,-315.86"/>
</g>
<!-- Node19 -->
<g id="node19" class="node">
<title>Node19</title>
<g id="a_node19"><a xlink:href="_i_e_pipeline_8cpp.html" target="_top" xlink:title=" ">
<polygon fill="white" stroke="black" points="3403.5,-0.5 3403.5,-62.5 3575.5,-62.5 3575.5,-0.5 3403.5,-0.5"/>
<text text-anchor="start" x="3411.5" y="-45.7" font-family="Source Sans Pro" font-size="16.00">Illumination&#45;Engine</text>
<text text-anchor="start" x="3411.5" y="-27.7" font-family="Source Sans Pro" font-size="16.00">/src/GraphicsModule</text>
<text text-anchor="middle" x="3489.5" y="-9.7" font-family="Source Sans Pro" font-size="16.00">/Shader/IEPipeline.cpp</text>
</a>
</g>
</g>
<!-- Node1&#45;&gt;Node19 -->
<g id="edge30" class="edge">
<title>Node1&#45;&gt;Node19</title>
<path fill="none" stroke="midnightblue" d="M1997.22,-322.49C2125.78,-314.41 2369.52,-295.8 2574.5,-261 2944.13,-198.25 3033.55,-164.37 3394.5,-63 3397.42,-62.18 3400.38,-61.33 3403.37,-60.46"/>
<polygon fill="midnightblue" stroke="midnightblue" points="1996.79,-319.01 1987.03,-323.12 1997.23,-325.99 1996.79,-319.01"/>
</g>
<!-- Node8 -->
<g id="node8" class="node">
<title>Node8</title>
<g id="a_node8"><a xlink:href="_i_e_render_engine_8hpp.html" target="_top" xlink:title=" ">
<polygon fill="white" stroke="black" points="1916,-99.5 1916,-161.5 2077,-161.5 2077,-99.5 1916,-99.5"/>
<text text-anchor="start" x="1924" y="-144.7" font-family="Source Sans Pro" font-size="16.00">Illumination&#45;Engine</text>
<text text-anchor="start" x="1924" y="-126.7" font-family="Source Sans Pro" font-size="16.00">/src/GraphicsModule</text>
<text text-anchor="middle" x="1996.5" y="-108.7" font-family="Source Sans Pro" font-size="16.00">/IERenderEngine.hpp</text>
</a>
</g>
</g>
<!-- Node7&#45;&gt;Node8 -->
<g id="edge7" class="edge">
<title>Node7&#45;&gt;Node8</title>
<path fill="none" stroke="midnightblue" d="M1942.13,-190.76C1950.98,-181.11 1960.39,-170.86 1968.84,-161.64"/>
<polygon fill="midnightblue" stroke="midnightblue" points="1939.35,-188.61 1935.17,-198.34 1944.51,-193.34 1939.35,-188.61"/>
</g>
<!-- Node22 -->
<g id="node22" class="node">
<title>Node22</title>
<g id="a_node22"><a xlink:href="_i_e_settings_8cpp.html" target="_top" xlink:title=" ">
<polygon fill="white" stroke="black" points="1741,-99.5 1741,-161.5 1898,-161.5 1898,-99.5 1741,-99.5"/>
<text text-anchor="start" x="1749" y="-144.7" font-family="Source Sans Pro" font-size="16.00">Illumination&#45;Engine</text>
<text text-anchor="start" x="1749" y="-126.7" font-family="Source Sans Pro" font-size="16.00">/src/GraphicsModule</text>
<text text-anchor="middle" x="1819.5" y="-108.7" font-family="Source Sans Pro" font-size="16.00">/IESettings.cpp</text>
</a>
</g>
</g>
<!-- Node7&#45;&gt;Node22 -->
<g id="edge25" class="edge">
<title>Node7&#45;&gt;Node22</title>
<path fill="none" stroke="midnightblue" d="M1873.26,-190.76C1864.5,-181.11 1855.2,-170.86 1846.84,-161.64"/>
<polygon fill="midnightblue" stroke="midnightblue" points="1870.83,-193.29 1880.14,-198.34 1876.01,-188.58 1870.83,-193.29"/>
</g>
<!-- Node8&#45;&gt;Node3 -->
<g id="edge9" class="edge">
<title>Node8&#45;&gt;Node3</title>
<path fill="none" stroke="midnightblue" d="M1905.9,-98.95C1540.07,-37.6 653.98,-101.02 302.5,-63 299.48,-62.67 296.44,-62.32 293.37,-61.94"/>
<polygon fill="midnightblue" stroke="midnightblue" points="1905.32,-102.4 1915.77,-100.66 1906.52,-95.5 1905.32,-102.4"/>
</g>
<!-- Node8&#45;&gt;Node4 -->
<g id="edge10" class="edge">
<title>Node8&#45;&gt;Node4</title>
<path fill="none" stroke="midnightblue" d="M1905.72,-98.92C1606.11,-48.53 889.07,-95.43 604.5,-63 601.58,-62.67 598.63,-62.31 595.66,-61.92"/>
<polygon fill="midnightblue" stroke="midnightblue" points="1905.32,-102.4 1915.77,-100.68 1906.52,-95.51 1905.32,-102.4"/>
</g>
<!-- Node8&#45;&gt;Node5 -->
<g id="edge11" class="edge">
<title>Node8&#45;&gt;Node5</title>
<path fill="none" stroke="midnightblue" d="M1905.89,-98.9C1412.23,-10.61 1269.32,-154.43 779.5,-63 776.83,-62.5 774.12,-61.93 771.41,-61.31"/>
<polygon fill="midnightblue" stroke="midnightblue" points="1905.3,-102.35 1915.77,-100.69 1906.55,-95.47 1905.3,-102.35"/>
</g>
<!-- Node8&#45;&gt;Node6 -->
<g id="edge13" class="edge">
<title>Node8&#45;&gt;Node6</title>
<path fill="none" stroke="midnightblue" d="M1905.88,-98.9C1489.79,-23.47 1368.95,-140.5 956.5,-63 953.8,-62.49 951.07,-61.92 948.32,-61.29"/>
<polygon fill="midnightblue" stroke="midnightblue" points="1905.3,-102.35 1915.76,-100.71 1906.56,-95.46 1905.3,-102.35"/>
</g>
<!-- Node9 -->
<g id="node9" class="node">
<title>Node9</title>
<g id="a_node9"><a xlink:href="_i_e_buffer_8cpp.html" target="_top" xlink:title=" ">
<polygon fill="white" stroke="black" points="2004,-0.5 2004,-62.5 2161,-62.5 2161,-0.5 2004,-0.5"/>
<text text-anchor="start" x="2012" y="-45.7" font-family="Source Sans Pro" font-size="16.00">Illumination&#45;Engine</text>
<text text-anchor="start" x="2012" y="-27.7" font-family="Source Sans Pro" font-size="16.00">/src/GraphicsModule</text>
<text text-anchor="middle" x="2082.5" y="-9.7" font-family="Source Sans Pro" font-size="16.00">/Buffer/IEBuffer.cpp</text>
</a>
</g>
</g>
<!-- Node8&#45;&gt;Node9 -->
<g id="edge8" class="edge">
<title>Node8&#45;&gt;Node9</title>
<path fill="none" stroke="midnightblue" d="M2029.96,-91.76C2038.52,-82.11 2047.61,-71.86 2055.78,-62.64"/>
<polygon fill="midnightblue" stroke="midnightblue" points="2027.25,-89.54 2023.24,-99.34 2032.49,-94.18 2027.25,-89.54"/>
</g>
<!-- Node10 -->
<g id="node10" class="node">
<title>Node10</title>
<g id="a_node10"><a xlink:href="_i_e_camera_8cpp.html" target="_top" xlink:title=" ">
<polygon fill="white" stroke="black" points="2179,-0.5 2179,-62.5 2336,-62.5 2336,-0.5 2179,-0.5"/>
<text text-anchor="start" x="2187" y="-45.7" font-family="Source Sans Pro" font-size="16.00">Illumination&#45;Engine</text>
<text text-anchor="start" x="2187" y="-27.7" font-family="Source Sans Pro" font-size="16.00">/src/GraphicsModule</text>
<text text-anchor="middle" x="2257.5" y="-9.7" font-family="Source Sans Pro" font-size="16.00">/IECamera.cpp</text>
</a>
</g>
</g>
<!-- Node8&#45;&gt;Node10 -->
<g id="edge12" class="edge">
<title>Node8&#45;&gt;Node10</title>
<path fill="none" stroke="midnightblue" d="M2086.9,-95.9C2116.84,-84.78 2149.89,-72.49 2178.88,-61.72"/>
<polygon fill="midnightblue" stroke="midnightblue" points="2085.45,-92.71 2077.29,-99.47 2087.89,-99.27 2085.45,-92.71"/>
</g>
<!-- Node8&#45;&gt;Node11 -->
<g id="edge14" class="edge">
<title>Node8&#45;&gt;Node11</title>
<path fill="none" stroke="midnightblue" d="M2087.17,-125.68C2205.08,-119.29 2416.82,-102.93 2593.5,-63 2596.5,-62.32 2599.53,-61.58 2602.59,-60.78"/>
<polygon fill="midnightblue" stroke="midnightblue" points="2086.91,-122.19 2077.11,-126.21 2087.28,-129.18 2086.91,-122.19"/>
</g>
<!-- Node8&#45;&gt;Node12 -->
<g id="edge15" class="edge">
<title>Node8&#45;&gt;Node12</title>
<path fill="none" stroke="midnightblue" d="M2087.22,-128.84C2232.72,-126.18 2526.57,-114.27 2769.5,-63 2772.22,-62.43 2774.97,-61.79 2777.73,-61.12"/>
<polygon fill="midnightblue" stroke="midnightblue" points="2086.94,-125.34 2077,-129.01 2087.06,-132.34 2086.94,-125.34"/>
</g>
<!-- Node13 -->
<g id="node13" class="node">
<title>Node13</title>
<g id="a_node13"><a xlink:href="_i_e_framebuffer_8cpp.html" target="_top" xlink:title=" ">
<polygon fill="white" stroke="black" points="2354.5,-0.5 2354.5,-62.5 2584.5,-62.5 2584.5,-0.5 2354.5,-0.5"/>
<text text-anchor="start" x="2362.5" y="-45.7" font-family="Source Sans Pro" font-size="16.00">Illumination&#45;Engine</text>
<text text-anchor="start" x="2362.5" y="-27.7" font-family="Source Sans Pro" font-size="16.00">/src/GraphicsModule</text>
<text text-anchor="middle" x="2469.5" y="-9.7" font-family="Source Sans Pro" font-size="16.00">/RenderPass/IEFramebuffer.cpp</text>
</a>
</g>
</g>
<!-- Node8&#45;&gt;Node13 -->
<g id="edge16" class="edge">
<title>Node8&#45;&gt;Node13</title>
<path fill="none" stroke="midnightblue" d="M2087.34,-113.55C2157.93,-100.83 2258.19,-82.04 2345.5,-63 2348.42,-62.36 2351.38,-61.71 2354.37,-61.04"/>
<polygon fill="midnightblue" stroke="midnightblue" points="2086.37,-110.17 2077.14,-115.38 2087.61,-117.06 2086.37,-110.17"/>
</g>
<!-- Node8&#45;&gt;Node14 -->
<g id="edge17" class="edge">
<title>Node8&#45;&gt;Node14</title>
<path fill="none" stroke="midnightblue" d="M2087.44,-128.44C2257.54,-125.28 2635,-112.74 2948.5,-63 2951.3,-62.56 2954.14,-62.08 2956.99,-61.57"/>
<polygon fill="midnightblue" stroke="midnightblue" points="2087.21,-124.94 2077.28,-128.62 2087.34,-131.94 2087.21,-124.94"/>
</g>
<!-- Node15 -->
<g id="node15" class="node">
<title>Node15</title>
<g id="a_node15"><a xlink:href="_i_e_material_8cpp.html" target="_top" xlink:title=" ">
<polygon fill="white" stroke="black" points="966,-0.5 966,-62.5 1167,-62.5 1167,-0.5 966,-0.5"/>
<text text-anchor="start" x="974" y="-45.7" font-family="Source Sans Pro" font-size="16.00">Illumination&#45;Engine</text>
<text text-anchor="start" x="974" y="-27.7" font-family="Source Sans Pro" font-size="16.00">/src/GraphicsModule</text>
<text text-anchor="middle" x="1066.5" y="-9.7" font-family="Source Sans Pro" font-size="16.00">/Renderable/IEMaterial.cpp</text>
</a>
</g>
</g>
<!-- Node8&#45;&gt;Node15 -->
<g id="edge18" class="edge">
<title>Node8&#45;&gt;Node15</title>
<path fill="none" stroke="midnightblue" d="M1905.74,-98.86C1585.73,-39.17 1493.72,-114.68 1175.5,-63 1172.78,-62.56 1170.04,-62.08 1167.28,-61.55"/>
<polygon fill="midnightblue" stroke="midnightblue" points="1905.28,-102.33 1915.76,-100.75 1906.58,-95.45 1905.28,-102.33"/>
</g>
<!-- Node8&#45;&gt;Node16 -->
<g id="edge19" class="edge">
<title>Node8&#45;&gt;Node16</title>
<path fill="none" stroke="midnightblue" d="M2087.44,-127.28C2328.74,-120.93 2981.25,-100.7 3193.5,-63 3196.27,-62.51 3199.07,-61.96 3201.89,-61.38"/>
<polygon fill="midnightblue" stroke="midnightblue" points="2087.2,-123.78 2077.3,-127.54 2087.39,-130.78 2087.2,-123.78"/>
</g>
<!-- Node17 -->
<g id="node17" class="node">
<title>Node17</title>
<g id="a_node17"><a xlink:href="_i_e_renderable_8cpp.html" target="_top" xlink:title=" ">
<polygon fill="white" stroke="black" points="1185,-0.5 1185,-62.5 1410,-62.5 1410,-0.5 1185,-0.5"/>
<text text-anchor="start" x="1193" y="-45.7" font-family="Source Sans Pro" font-size="16.00">Illumination&#45;Engine</text>
<text text-anchor="start" x="1193" y="-27.7" font-family="Source Sans Pro" font-size="16.00">/src/GraphicsModule</text>
<text text-anchor="middle" x="1297.5" y="-9.7" font-family="Source Sans Pro" font-size="16.00">/Renderable/IERenderable.cpp</text>
</a>
</g>
</g>
<!-- Node8&#45;&gt;Node17 -->
<g id="edge20" class="edge">
<title>Node8&#45;&gt;Node17</title>
<path fill="none" stroke="midnightblue" d="M1905.78,-98.83C1692.14,-56.58 1630.37,-97.24 1418.5,-63 1415.72,-62.55 1412.91,-62.07 1410.08,-61.56"/>
<polygon fill="midnightblue" stroke="midnightblue" points="1905.24,-102.3 1915.74,-100.84 1906.63,-95.43 1905.24,-102.3"/>
</g>
<!-- Node18 -->
<g id="node18" class="node">
<title>Node18</title>
<g id="a_node18"><a xlink:href="_i_e_descriptor_set_8cpp.html" target="_top" xlink:title=" ">
<polygon fill="white" stroke="black" points="1428,-0.5 1428,-62.5 1635,-62.5 1635,-0.5 1428,-0.5"/>
<text text-anchor="start" x="1436" y="-45.7" font-family="Source Sans Pro" font-size="16.00">Illumination&#45;Engine</text>
<text text-anchor="start" x="1436" y="-27.7" font-family="Source Sans Pro" font-size="16.00">/src/GraphicsModule</text>
<text text-anchor="middle" x="1531.5" y="-9.7" font-family="Source Sans Pro" font-size="16.00">/Shader/IEDescriptorSet.cpp</text>
</a>
</g>
</g>
<!-- Node8&#45;&gt;Node18 -->
<g id="edge21" class="edge">
<title>Node8&#45;&gt;Node18</title>
<path fill="none" stroke="midnightblue" d="M1905.8,-98.75C1790.87,-72.52 1756.97,-85.78 1644.5,-63 1641.41,-62.37 1638.29,-61.71 1635.13,-61.02"/>
<polygon fill="midnightblue" stroke="midnightblue" points="1905.16,-102.2 1915.69,-101.06 1906.75,-95.38 1905.16,-102.2"/>
</g>
<!-- Node8&#45;&gt;Node19 -->
<g id="edge22" class="edge">
<title>Node8&#45;&gt;Node19</title>
<path fill="none" stroke="midnightblue" d="M2087.38,-128.29C2355.84,-124.24 3142.21,-108.67 3394.5,-63 3397.4,-62.48 3400.33,-61.89 3403.28,-61.24"/>
<polygon fill="midnightblue" stroke="midnightblue" points="2087.23,-124.79 2077.29,-128.44 2087.34,-131.79 2087.23,-124.79"/>
</g>
<!-- Node20 -->
<g id="node20" class="node">
<title>Node20</title>
<g id="a_node20"><a xlink:href="_i_e_shader_8cpp.html" target="_top" xlink:title=" ">
<polygon fill="white" stroke="black" points="1653.5,-0.5 1653.5,-62.5 1817.5,-62.5 1817.5,-0.5 1653.5,-0.5"/>
<text text-anchor="start" x="1661.5" y="-45.7" font-family="Source Sans Pro" font-size="16.00">Illumination&#45;Engine</text>
<text text-anchor="start" x="1661.5" y="-27.7" font-family="Source Sans Pro" font-size="16.00">/src/GraphicsModule</text>
<text text-anchor="middle" x="1735.5" y="-9.7" font-family="Source Sans Pro" font-size="16.00">/Shader/IEShader.cpp</text>
</a>
</g>
</g>
<!-- Node8&#45;&gt;Node20 -->
<g id="edge23" class="edge">
<title>Node8&#45;&gt;Node20</title>
<path fill="none" stroke="midnightblue" d="M1906.33,-95.99C1877.1,-85.12 1844.87,-73.15 1816.36,-62.55"/>
<polygon fill="midnightblue" stroke="midnightblue" points="1905.11,-99.27 1915.71,-99.47 1907.55,-92.71 1905.11,-99.27"/>
</g>
<!-- Node21 -->
<g id="node21" class="node">
<title>Node21</title>
<g id="a_node21"><a xlink:href="main_8cpp.html" target="_top" xlink:title=" ">
<polygon fill="white" stroke="black" points="1835.5,-9.5 1835.5,-53.5 1985.5,-53.5 1985.5,-9.5 1835.5,-9.5"/>
<text text-anchor="start" x="1843.5" y="-36.7" font-family="Source Sans Pro" font-size="16.00">Illumination&#45;Engine</text>
<text text-anchor="middle" x="1910.5" y="-18.7" font-family="Source Sans Pro" font-size="16.00">/src/main.cpp</text>
</a>
</g>
</g>
<!-- Node8&#45;&gt;Node21 -->
<g id="edge24" class="edge">
<title>Node8&#45;&gt;Node21</title>
<path fill="none" stroke="midnightblue" d="M1962.82,-91.51C1951.43,-78.66 1939.13,-64.79 1929.31,-53.72"/>
<polygon fill="midnightblue" stroke="midnightblue" points="1960.51,-94.18 1969.76,-99.34 1965.75,-89.54 1960.51,-94.18"/>
</g>
</g>
</svg>
