<?xml version="1.0" encoding="UTF-8" standalone="no"?>
<!DOCTYPE svg PUBLIC "-//W3C//DTD SVG 1.1//EN"
 "http://www.w3.org/Graphics/SVG/1.1/DTD/svg11.dtd">
<!-- Generated by graphviz version 2.43.0 (0)
 -->
<!-- Title: Illumination&#45;Engine/src/GraphicsModule/CommandBuffer/DependencyStructs/IEBufferMemoryBarrier.hpp Pages: 1 -->
<svg width="834pt" height="359pt"
 viewBox="0.00 0.00 834.14 359.00" xmlns="http://www.w3.org/2000/svg" xmlns:xlink="http://www.w3.org/1999/xlink">
<g id="graph0" class="graph" transform="scale(1 1) rotate(0) translate(4 355)">
<title>Illumination&#45;Engine/src/GraphicsModule/CommandBuffer/DependencyStructs/IEBufferMemoryBarrier.hpp</title>
<polygon fill="white" stroke="transparent" points="-4,4 -4,-355 830.14,-355 830.14,4 -4,4"/>
<!-- Node1 -->
<g id="node1" class="node">
<title>Node1</title>
<g id="a_node1"><a xlink:title=" ">
<polygon fill="#bfbfbf" stroke="black" points="353.13,-270.5 353.13,-350.5 625.13,-350.5 625.13,-270.5 353.13,-270.5"/>
<text text-anchor="start" x="361.13" y="-333.7" font-family="Source Sans Pro" font-size="16.00">Illumination&#45;Engine</text>
<text text-anchor="start" x="361.13" y="-315.7" font-family="Source Sans Pro" font-size="16.00">/src/GraphicsModule</text>
<text text-anchor="start" x="361.13" y="-297.7" font-family="Source Sans Pro" font-size="16.00">/CommandBuffer/DependencyStructs</text>
<text text-anchor="middle" x="489.13" y="-279.7" font-family="Source Sans Pro" font-size="16.00">/IEBufferMemoryBarrier.hpp</text>
</a>
</g>
</g>
<!-- Node2 -->
<g id="node2" class="node">
<title>Node2</title>
<g id="a_node2"><a xlink:href="_i_e_buffer_8hpp.html" target="_top" xlink:title=" ">
<polygon fill="white" stroke="black" points="313.63,-207.5 313.63,-233.5 460.63,-233.5 460.63,-207.5 313.63,-207.5"/>
<text text-anchor="middle" x="387.13" y="-216.7" font-family="Source Sans Pro" font-size="16.00">Buffer/IEBuffer.hpp</text>
</a>
</g>
</g>
<!-- Node1&#45;&gt;Node2 -->
<g id="edge1" class="edge">
<title>Node1&#45;&gt;Node2</title>
<path fill="none" stroke="midnightblue" d="M443.8,-270.39C431.7,-259.96 419.18,-249.16 408.99,-240.37"/>
<polygon fill="midnightblue" stroke="midnightblue" points="411.24,-237.68 401.38,-233.79 406.66,-242.98 411.24,-237.68"/>
</g>
<!-- Node4 -->
<g id="node4" class="node">
<title>Node4</title>
<g id="a_node4"><a xlink:title=" ">
<polygon fill="white" stroke="#bfbfbf" points="464.13,-63.5 464.13,-89.5 538.13,-89.5 538.13,-63.5 464.13,-63.5"/>
<text text-anchor="middle" x="501.13" y="-72.7" font-family="Source Sans Pro" font-size="16.00">memory</text>
</a>
</g>
</g>
<!-- Node1&#45;&gt;Node4 -->
<g id="edge19" class="edge">
<title>Node1&#45;&gt;Node4</title>
<path fill="none" stroke="midnightblue" d="M491.15,-270.41C493.68,-221.41 497.94,-139.09 499.98,-99.74"/>
<polygon fill="midnightblue" stroke="midnightblue" points="503.48,-99.8 500.5,-89.64 496.49,-99.44 503.48,-99.8"/>
</g>
<!-- Node7 -->
<g id="node7" class="node">
<title>Node7</title>
<g id="a_node7"><a xlink:title=" ">
<polygon fill="white" stroke="#bfbfbf" points="675.63,-63.5 675.63,-89.5 800.63,-89.5 800.63,-63.5 675.63,-63.5"/>
<text text-anchor="middle" x="738.13" y="-72.7" font-family="Source Sans Pro" font-size="16.00">vulkan/vulkan.h</text>
</a>
</g>
</g>
<!-- Node1&#45;&gt;Node7 -->
<g id="edge20" class="edge">
<title>Node1&#45;&gt;Node7</title>
<path fill="none" stroke="midnightblue" d="M625.26,-281.73C686.34,-261.76 752.73,-227.9 789.13,-171 799.91,-154.15 797.01,-144.38 789.13,-126 784.1,-114.28 774.69,-104.05 765.31,-96.04"/>
<polygon fill="midnightblue" stroke="midnightblue" points="767.19,-93.07 757.18,-89.6 762.84,-98.56 767.19,-93.07"/>
</g>
<!-- Node3 -->
<g id="node3" class="node">
<title>Node3</title>
<g id="a_node3"><a xlink:href="_i_e_dependency_8hpp.html" target="_top" xlink:title=" ">
<polygon fill="white" stroke="black" points="517.63,-126.5 517.63,-170.5 762.63,-170.5 762.63,-126.5 517.63,-126.5"/>
<text text-anchor="start" x="525.63" y="-153.7" font-family="Source Sans Pro" font-size="16.00">GraphicsModule/CommandBuffer</text>
<text text-anchor="middle" x="640.13" y="-135.7" font-family="Source Sans Pro" font-size="16.00">/IEDependency.hpp</text>
</a>
</g>
</g>
<!-- Node2&#45;&gt;Node3 -->
<g id="edge2" class="edge">
<title>Node2&#45;&gt;Node3</title>
<path fill="none" stroke="midnightblue" d="M430.62,-207.47C464.5,-198.09 512.59,-184.79 554.16,-173.29"/>
<polygon fill="midnightblue" stroke="midnightblue" points="555.32,-176.6 564.02,-170.56 553.45,-169.85 555.32,-176.6"/>
</g>
<!-- Node6 -->
<g id="node6" class="node">
<title>Node6</title>
<g id="a_node6"><a xlink:title=" ">
<polygon fill="white" stroke="#bfbfbf" points="610.63,-0.5 610.63,-26.5 669.63,-26.5 669.63,-0.5 610.63,-0.5"/>
<text text-anchor="middle" x="640.13" y="-9.7" font-family="Source Sans Pro" font-size="16.00">vector</text>
</a>
</g>
</g>
<!-- Node2&#45;&gt;Node6 -->
<g id="edge18" class="edge">
<title>Node2&#45;&gt;Node6</title>
<path fill="none" stroke="midnightblue" d="M460.64,-220.22C563.1,-219.67 741.64,-212.54 789.13,-171 825.94,-138.81 839.58,-102.03 810.13,-63 794.48,-42.26 725.17,-27.74 680.02,-20.28"/>
<polygon fill="midnightblue" stroke="midnightblue" points="680.38,-16.8 669.95,-18.67 679.27,-23.71 680.38,-16.8"/>
</g>
<!-- Node2&#45;&gt;Node7 -->
<g id="edge15" class="edge">
<title>Node2&#45;&gt;Node7</title>
<path fill="none" stroke="midnightblue" d="M460.83,-215.39C566.84,-208.72 751.91,-193.93 772.13,-171 790.7,-149.94 771.97,-117.91 755.82,-97.35"/>
<polygon fill="midnightblue" stroke="midnightblue" points="758.46,-95.05 749.4,-89.56 753.06,-99.5 758.46,-95.05"/>
</g>
<!-- Node8 -->
<g id="node8" class="node">
<title>Node8</title>
<g id="a_node8"><a xlink:href="_i_e_a_p_i_8hpp.html" target="_top" xlink:title=" ">
<polygon fill="white" stroke="black" points="25.63,-135.5 25.63,-161.5 108.63,-161.5 108.63,-135.5 25.63,-135.5"/>
<text text-anchor="middle" x="67.13" y="-144.7" font-family="Source Sans Pro" font-size="16.00">IEAPI.hpp</text>
</a>
</g>
</g>
<!-- Node2&#45;&gt;Node8 -->
<g id="edge7" class="edge">
<title>Node2&#45;&gt;Node8</title>
<path fill="none" stroke="midnightblue" d="M313.59,-210.91C258.69,-203.39 182.24,-190.57 117.13,-171 112.05,-169.48 106.81,-167.59 101.7,-165.57"/>
<polygon fill="midnightblue" stroke="midnightblue" points="102.72,-162.2 92.15,-161.59 100.03,-168.66 102.72,-162.2"/>
</g>
<!-- Node10 -->
<g id="node10" class="node">
<title>Node10</title>
<g id="a_node10"><a xlink:title=" ">
<polygon fill="white" stroke="#bfbfbf" points="7.63,-0.5 7.63,-26.5 70.63,-26.5 70.63,-0.5 7.63,-0.5"/>
<text text-anchor="middle" x="39.13" y="-9.7" font-family="Source Sans Pro" font-size="16.00">cstdint</text>
</a>
</g>
</g>
<!-- Node2&#45;&gt;Node10 -->
<g id="edge16" class="edge">
<title>Node2&#45;&gt;Node10</title>
<path fill="none" stroke="midnightblue" d="M313.55,-215.02C210.99,-208.02 35.41,-192.97 16.13,-171 -17.18,-133.06 9.22,-68.89 26.74,-35.74"/>
<polygon fill="midnightblue" stroke="midnightblue" points="29.86,-37.34 31.6,-26.89 23.72,-33.97 29.86,-37.34"/>
</g>
<!-- Node11 -->
<g id="node11" class="node">
<title>Node11</title>
<g id="a_node11"><a xlink:title=" ">
<polygon fill="white" stroke="#bfbfbf" points="126.63,-135.5 126.63,-161.5 255.63,-161.5 255.63,-135.5 126.63,-135.5"/>
<text text-anchor="middle" x="191.13" y="-144.7" font-family="Source Sans Pro" font-size="16.00">vk_mem_alloc.h</text>
</a>
</g>
</g>
<!-- Node2&#45;&gt;Node11 -->
<g id="edge13" class="edge">
<title>Node2&#45;&gt;Node11</title>
<path fill="none" stroke="midnightblue" d="M353.43,-207.47C320.62,-195.75 270.58,-177.88 234.74,-165.08"/>
<polygon fill="midnightblue" stroke="midnightblue" points="235.63,-161.68 225.04,-161.61 233.28,-168.27 235.63,-161.68"/>
</g>
<!-- Node12 -->
<g id="node12" class="node">
<title>Node12</title>
<g id="a_node12"><a xlink:title=" ">
<polygon fill="white" stroke="#bfbfbf" points="273.63,-135.5 273.63,-161.5 356.63,-161.5 356.63,-135.5 273.63,-135.5"/>
<text text-anchor="middle" x="315.13" y="-144.7" font-family="Source Sans Pro" font-size="16.00">GL/glew.h</text>
</a>
</g>
</g>
<!-- Node2&#45;&gt;Node12 -->
<g id="edge14" class="edge">
<title>Node2&#45;&gt;Node12</title>
<path fill="none" stroke="midnightblue" d="M374.59,-207.31C363.64,-196.67 347.58,-181.05 334.9,-168.73"/>
<polygon fill="midnightblue" stroke="midnightblue" points="337.14,-166.01 327.53,-161.55 332.26,-171.03 337.14,-166.01"/>
</g>
<!-- Node13 -->
<g id="node13" class="node">
<title>Node13</title>
<g id="a_node13"><a xlink:title=" ">
<polygon fill="white" stroke="#bfbfbf" points="375.13,-135.5 375.13,-161.5 461.13,-161.5 461.13,-135.5 375.13,-135.5"/>
<text text-anchor="middle" x="418.13" y="-144.7" font-family="Source Sans Pro" font-size="16.00">functional</text>
</a>
</g>
</g>
<!-- Node2&#45;&gt;Node13 -->
<g id="edge17" class="edge">
<title>Node2&#45;&gt;Node13</title>
<path fill="none" stroke="midnightblue" d="M392.53,-207.31C396.97,-197.27 403.38,-182.8 408.67,-170.85"/>
<polygon fill="midnightblue" stroke="midnightblue" points="411.94,-172.11 412.79,-161.55 405.54,-169.28 411.94,-172.11"/>
</g>
<!-- Node3&#45;&gt;Node4 -->
<g id="edge3" class="edge">
<title>Node3&#45;&gt;Node4</title>
<path fill="none" stroke="midnightblue" d="M598.42,-126.5C577.81,-116.12 553.28,-103.77 534.01,-94.06"/>
<polygon fill="midnightblue" stroke="midnightblue" points="535.52,-90.9 525.02,-89.53 532.38,-97.15 535.52,-90.9"/>
</g>
<!-- Node5 -->
<g id="node5" class="node">
<title>Node5</title>
<g id="a_node5"><a xlink:title=" ">
<polygon fill="white" stroke="#bfbfbf" points="135.63,-0.5 135.63,-26.5 190.63,-26.5 190.63,-0.5 135.63,-0.5"/>
<text text-anchor="middle" x="163.13" y="-9.7" font-family="Source Sans Pro" font-size="16.00">string</text>
</a>
</g>
</g>
<!-- Node3&#45;&gt;Node5 -->
<g id="edge4" class="edge">
<title>Node3&#45;&gt;Node5</title>
<path fill="none" stroke="midnightblue" d="M623.44,-126.17C606.52,-106.23 578.44,-77.42 547.13,-63 485.96,-34.83 285.19,-21.04 200.91,-16.38"/>
<polygon fill="midnightblue" stroke="midnightblue" points="200.93,-12.88 190.76,-15.83 200.55,-19.87 200.93,-12.88"/>
</g>
<!-- Node3&#45;&gt;Node6 -->
<g id="edge5" class="edge">
<title>Node3&#45;&gt;Node6</title>
<path fill="none" stroke="midnightblue" d="M640.13,-126.43C640.13,-102.03 640.13,-62.03 640.13,-37.03"/>
<polygon fill="midnightblue" stroke="midnightblue" points="643.63,-36.71 640.13,-26.71 636.63,-36.71 643.63,-36.71"/>
</g>
<!-- Node3&#45;&gt;Node7 -->
<g id="edge6" class="edge">
<title>Node3&#45;&gt;Node7</title>
<path fill="none" stroke="midnightblue" d="M669.53,-126.5C683.41,-116.59 699.79,-104.88 713.07,-95.4"/>
<polygon fill="midnightblue" stroke="midnightblue" points="715.18,-98.19 721.28,-89.53 711.11,-92.5 715.18,-98.19"/>
</g>
<!-- Node8&#45;&gt;Node5 -->
<g id="edge12" class="edge">
<title>Node8&#45;&gt;Node5</title>
<path fill="none" stroke="midnightblue" d="M91.16,-135.38C108.42,-125.47 130.89,-109.85 144.13,-90 154.73,-74.1 159.41,-52.74 161.49,-36.79"/>
<polygon fill="midnightblue" stroke="midnightblue" points="164.98,-37.06 162.54,-26.75 158.02,-36.33 164.98,-37.06"/>
</g>
<!-- Node9 -->
<g id="node9" class="node">
<title>Node9</title>
<g id="a_node9"><a xlink:href="_i_e_version_8hpp.html" target="_top" xlink:title=" ">
<polygon fill="white" stroke="black" points="25.13,-63.5 25.13,-89.5 135.13,-89.5 135.13,-63.5 25.13,-63.5"/>
<text text-anchor="middle" x="80.13" y="-72.7" font-family="Source Sans Pro" font-size="16.00">IEVersion.hpp</text>
</a>
</g>
</g>
<!-- Node8&#45;&gt;Node9 -->
<g id="edge8" class="edge">
<title>Node8&#45;&gt;Node9</title>
<path fill="none" stroke="midnightblue" d="M69.39,-135.31C71.22,-125.47 73.84,-111.38 76.03,-99.57"/>
<polygon fill="midnightblue" stroke="midnightblue" points="79.5,-100.02 77.89,-89.55 72.62,-98.75 79.5,-100.02"/>
</g>
<!-- Node9&#45;&gt;Node5 -->
<g id="edge10" class="edge">
<title>Node9&#45;&gt;Node5</title>
<path fill="none" stroke="midnightblue" d="M96.53,-63.45C108.46,-54.68 124.84,-42.64 138.36,-32.7"/>
<polygon fill="midnightblue" stroke="midnightblue" points="140.78,-35.27 146.76,-26.53 136.63,-29.63 140.78,-35.27"/>
</g>
<!-- Node9&#45;&gt;Node6 -->
<g id="edge11" class="edge">
<title>Node9&#45;&gt;Node6</title>
<path fill="none" stroke="midnightblue" d="M135.36,-69.48C248.11,-57.2 502.39,-29.5 600.49,-18.82"/>
<polygon fill="midnightblue" stroke="midnightblue" points="601.01,-22.28 610.57,-17.72 600.25,-15.32 601.01,-22.28"/>
</g>
<!-- Node9&#45;&gt;Node10 -->
<g id="edge9" class="edge">
<title>Node9&#45;&gt;Node10</title>
<path fill="none" stroke="midnightblue" d="M72.03,-63.45C66.58,-55.34 59.26,-44.46 52.91,-35.01"/>
<polygon fill="midnightblue" stroke="midnightblue" points="55.69,-32.87 47.21,-26.53 49.88,-36.78 55.69,-32.87"/>
</g>
</g>
</svg>
