<?xml version="1.0" encoding="UTF-8" standalone="no"?>
<!DOCTYPE svg PUBLIC "-//W3C//DTD SVG 1.1//EN"
 "http://www.w3.org/Graphics/SVG/1.1/DTD/svg11.dtd">
<!-- Generated by graphviz version 2.43.0 (0)
 -->
<!-- Title: Illumination&#45;Engine/src/Core/FileSystemModule/IEDirectory.hpp Pages: 1 -->
<svg width="510pt" height="269pt"
 viewBox="0.00 0.00 509.50 269.00" xmlns="http://www.w3.org/2000/svg" xmlns:xlink="http://www.w3.org/1999/xlink">
<g id="graph0" class="graph" transform="scale(1 1) rotate(0) translate(4 265)">
<title>Illumination&#45;Engine/src/Core/FileSystemModule/IEDirectory.hpp</title>
<polygon fill="white" stroke="transparent" points="-4,4 -4,-265 505.5,-265 505.5,4 -4,4"/>
<!-- Node1 -->
<g id="node1" class="node">
<title>Node1</title>
<g id="a_node1"><a xlink:title=" ">
<polygon fill="#bfbfbf" stroke="black" points="112,-198.5 112,-260.5 319,-260.5 319,-198.5 112,-198.5"/>
<text text-anchor="start" x="120" y="-243.7" font-family="Source Sans Pro" font-size="16.00">Illumination&#45;Engine</text>
<text text-anchor="start" x="120" y="-225.7" font-family="Source Sans Pro" font-size="16.00">/src/Core/FileSystemModule</text>
<text text-anchor="middle" x="215.5" y="-207.7" font-family="Source Sans Pro" font-size="16.00">/IEDirectory.hpp</text>
</a>
</g>
</g>
<!-- Node2 -->
<g id="node2" class="node">
<title>Node2</title>
<g id="a_node2"><a xlink:href="_i_e_directory_8cpp.html" target="_top" xlink:title=" ">
<polygon fill="white" stroke="black" points="0,-99.5 0,-161.5 207,-161.5 207,-99.5 0,-99.5"/>
<text text-anchor="start" x="8" y="-144.7" font-family="Source Sans Pro" font-size="16.00">Illumination&#45;Engine</text>
<text text-anchor="start" x="8" y="-126.7" font-family="Source Sans Pro" font-size="16.00">/src/Core/FileSystemModule</text>
<text text-anchor="middle" x="103.5" y="-108.7" font-family="Source Sans Pro" font-size="16.00">/IEDirectory.cpp</text>
</a>
</g>
</g>
<!-- Node1&#45;&gt;Node2 -->
<g id="edge1" class="edge">
<title>Node1&#45;&gt;Node2</title>
<path fill="none" stroke="midnightblue" d="M172.91,-191.62C161.48,-181.72 149.26,-171.13 138.3,-161.64"/>
<polygon fill="midnightblue" stroke="midnightblue" points="170.83,-194.44 180.68,-198.34 175.41,-189.15 170.83,-194.44"/>
</g>
<!-- Node3 -->
<g id="node3" class="node">
<title>Node3</title>
<g id="a_node3"><a xlink:href="_i_e_file_system_8hpp.html" target="_top" xlink:title=" ">
<polygon fill="white" stroke="black" points="225,-99.5 225,-161.5 432,-161.5 432,-99.5 225,-99.5"/>
<text text-anchor="start" x="233" y="-144.7" font-family="Source Sans Pro" font-size="16.00">Illumination&#45;Engine</text>
<text text-anchor="start" x="233" y="-126.7" font-family="Source Sans Pro" font-size="16.00">/src/Core/FileSystemModule</text>
<text text-anchor="middle" x="328.5" y="-108.7" font-family="Source Sans Pro" font-size="16.00">/IEFileSystem.hpp</text>
</a>
</g>
</g>
<!-- Node1&#45;&gt;Node3 -->
<g id="edge2" class="edge">
<title>Node1&#45;&gt;Node3</title>
<path fill="none" stroke="midnightblue" d="M258.47,-191.62C270,-181.72 282.33,-171.13 293.39,-161.64"/>
<polygon fill="midnightblue" stroke="midnightblue" points="255.94,-189.17 250.63,-198.34 260.5,-194.48 255.94,-189.17"/>
</g>
<!-- Node4 -->
<g id="node4" class="node">
<title>Node4</title>
<g id="a_node4"><a xlink:href="_i_e_file_system_8cpp.html" target="_top" xlink:title=" ">
<polygon fill="white" stroke="black" points="126,-0.5 126,-62.5 333,-62.5 333,-0.5 126,-0.5"/>
<text text-anchor="start" x="134" y="-45.7" font-family="Source Sans Pro" font-size="16.00">Illumination&#45;Engine</text>
<text text-anchor="start" x="134" y="-27.7" font-family="Source Sans Pro" font-size="16.00">/src/Core/FileSystemModule</text>
<text text-anchor="middle" x="229.5" y="-9.7" font-family="Source Sans Pro" font-size="16.00">/IEFileSystem.cpp</text>
</a>
</g>
</g>
<!-- Node3&#45;&gt;Node4 -->
<g id="edge3" class="edge">
<title>Node3&#45;&gt;Node4</title>
<path fill="none" stroke="midnightblue" d="M290.57,-92.33C280.54,-82.51 269.85,-72.04 260.26,-62.64"/>
<polygon fill="midnightblue" stroke="midnightblue" points="288.13,-94.84 297.72,-99.34 293.03,-89.84 288.13,-94.84"/>
</g>
<!-- Node5 -->
<g id="node5" class="node">
<title>Node5</title>
<g id="a_node5"><a xlink:href="main_8cpp.html" target="_top" xlink:title=" ">
<polygon fill="white" stroke="black" points="351.5,-9.5 351.5,-53.5 501.5,-53.5 501.5,-9.5 351.5,-9.5"/>
<text text-anchor="start" x="359.5" y="-36.7" font-family="Source Sans Pro" font-size="16.00">Illumination&#45;Engine</text>
<text text-anchor="middle" x="426.5" y="-18.7" font-family="Source Sans Pro" font-size="16.00">/src/main.cpp</text>
</a>
</g>
</g>
<!-- Node3&#45;&gt;Node5 -->
<g id="edge4" class="edge">
<title>Node3&#45;&gt;Node5</title>
<path fill="none" stroke="midnightblue" d="M366.15,-92.24C379.33,-79.19 393.67,-65 405.06,-53.72"/>
<polygon fill="midnightblue" stroke="midnightblue" points="363.62,-89.82 358.97,-99.34 368.54,-94.79 363.62,-89.82"/>
</g>
</g>
</svg>
