<?xml version="1.0" encoding="UTF-8" standalone="no"?>
<!DOCTYPE svg PUBLIC "-//W3C//DTD SVG 1.1//EN"
 "http://www.w3.org/Graphics/SVG/1.1/DTD/svg11.dtd">
<!-- Generated by graphviz version 2.43.0 (0)
 -->
<!-- Title: Illumination&#45;Engine/src/GraphicsModule/RenderPass/IERenderPass.hpp Pages: 1 -->
<svg width="3414pt" height="368pt"
 viewBox="0.00 0.00 3414.00 368.00" xmlns="http://www.w3.org/2000/svg" xmlns:xlink="http://www.w3.org/1999/xlink">
<g id="graph0" class="graph" transform="scale(1 1) rotate(0) translate(4 364)">
<title>Illumination&#45;Engine/src/GraphicsModule/RenderPass/IERenderPass.hpp</title>
<polygon fill="white" stroke="transparent" points="-4,4 -4,-364 3410,-364 3410,4 -4,4"/>
<!-- Node1 -->
<g id="node1" class="node">
<title>Node1</title>
<g id="a_node1"><a xlink:title=" ">
<polygon fill="#bfbfbf" stroke="black" points="1700.5,-297.5 1700.5,-359.5 1928.5,-359.5 1928.5,-297.5 1700.5,-297.5"/>
<text text-anchor="start" x="1708.5" y="-342.7" font-family="Source Sans Pro" font-size="16.00">Illumination&#45;Engine</text>
<text text-anchor="start" x="1708.5" y="-324.7" font-family="Source Sans Pro" font-size="16.00">/src/GraphicsModule</text>
<text text-anchor="middle" x="1814.5" y="-306.7" font-family="Source Sans Pro" font-size="16.00">/RenderPass/IERenderPass.hpp</text>
</a>
</g>
</g>
<!-- Node2 -->
<g id="node2" class="node">
<title>Node2</title>
<g id="a_node2"><a xlink:href="_i_e_render_pass_begin_info_8cpp.html" target="_top" xlink:title=" ">
<polygon fill="white" stroke="black" points="1159.5,-180.5 1159.5,-260.5 1431.5,-260.5 1431.5,-180.5 1159.5,-180.5"/>
<text text-anchor="start" x="1167.5" y="-243.7" font-family="Source Sans Pro" font-size="16.00">Illumination&#45;Engine</text>
<text text-anchor="start" x="1167.5" y="-225.7" font-family="Source Sans Pro" font-size="16.00">/src/GraphicsModule</text>
<text text-anchor="start" x="1167.5" y="-207.7" font-family="Source Sans Pro" font-size="16.00">/CommandBuffer/DependencyStructs</text>
<text text-anchor="middle" x="1295.5" y="-189.7" font-family="Source Sans Pro" font-size="16.00">/IERenderPassBeginInfo.cpp</text>
</a>
</g>
</g>
<!-- Node1&#45;&gt;Node2 -->
<g id="edge1" class="edge">
<title>Node1&#45;&gt;Node2</title>
<path fill="none" stroke="midnightblue" d="M1690.05,-308.25C1617.03,-296.25 1523.16,-279.57 1440.5,-261 1437.57,-260.34 1434.62,-259.66 1431.64,-258.97"/>
<polygon fill="midnightblue" stroke="midnightblue" points="1689.78,-311.76 1700.22,-309.92 1690.91,-304.85 1689.78,-311.76"/>
</g>
<!-- Node3 -->
<g id="node3" class="node">
<title>Node3</title>
<g id="a_node3"><a xlink:href="_i_e_dependency_8cpp.html" target="_top" xlink:title=" ">
<polygon fill="white" stroke="black" points="1449.5,-189.5 1449.5,-251.5 1715.5,-251.5 1715.5,-189.5 1449.5,-189.5"/>
<text text-anchor="start" x="1457.5" y="-234.7" font-family="Source Sans Pro" font-size="16.00">Illumination&#45;Engine</text>
<text text-anchor="start" x="1457.5" y="-216.7" font-family="Source Sans Pro" font-size="16.00">/src/GraphicsModule</text>
<text text-anchor="middle" x="1582.5" y="-198.7" font-family="Source Sans Pro" font-size="16.00">/CommandBuffer/IEDependency.cpp</text>
</a>
</g>
</g>
<!-- Node1&#45;&gt;Node3 -->
<g id="edge2" class="edge">
<title>Node1&#45;&gt;Node3</title>
<path fill="none" stroke="midnightblue" d="M1739.29,-293.14C1710.04,-279.77 1676.83,-264.6 1648.53,-251.67"/>
<polygon fill="midnightblue" stroke="midnightblue" points="1738.09,-296.44 1748.64,-297.41 1741,-290.07 1738.09,-296.44"/>
</g>
<!-- Node4 -->
<g id="node4" class="node">
<title>Node4</title>
<g id="a_node4"><a xlink:href="_i_e_render_engine_8hpp.html" target="_top" xlink:title=" ">
<polygon fill="white" stroke="black" points="1734,-189.5 1734,-251.5 1895,-251.5 1895,-189.5 1734,-189.5"/>
<text text-anchor="start" x="1742" y="-234.7" font-family="Source Sans Pro" font-size="16.00">Illumination&#45;Engine</text>
<text text-anchor="start" x="1742" y="-216.7" font-family="Source Sans Pro" font-size="16.00">/src/GraphicsModule</text>
<text text-anchor="middle" x="1814.5" y="-198.7" font-family="Source Sans Pro" font-size="16.00">/IERenderEngine.hpp</text>
</a>
</g>
</g>
<!-- Node1&#45;&gt;Node4 -->
<g id="edge3" class="edge">
<title>Node1&#45;&gt;Node4</title>
<path fill="none" stroke="midnightblue" d="M1814.5,-287.31C1814.5,-275.48 1814.5,-262.75 1814.5,-251.67"/>
<polygon fill="midnightblue" stroke="midnightblue" points="1811,-287.41 1814.5,-297.41 1818,-287.41 1811,-287.41"/>
</g>
<!-- Node14 -->
<g id="node14" class="node">
<title>Node14</title>
<g id="a_node14"><a xlink:href="_i_e_framebuffer_8cpp.html" target="_top" xlink:title=" ">
<polygon fill="white" stroke="black" points="2930.5,-81.5 2930.5,-143.5 3160.5,-143.5 3160.5,-81.5 2930.5,-81.5"/>
<text text-anchor="start" x="2938.5" y="-126.7" font-family="Source Sans Pro" font-size="16.00">Illumination&#45;Engine</text>
<text text-anchor="start" x="2938.5" y="-108.7" font-family="Source Sans Pro" font-size="16.00">/src/GraphicsModule</text>
<text text-anchor="middle" x="3045.5" y="-90.7" font-family="Source Sans Pro" font-size="16.00">/RenderPass/IEFramebuffer.cpp</text>
</a>
</g>
</g>
<!-- Node1&#45;&gt;Node14 -->
<g id="edge21" class="edge">
<title>Node1&#45;&gt;Node14</title>
<path fill="none" stroke="midnightblue" d="M1938.49,-310.13C2143.79,-280.65 2566.89,-216.89 2921.5,-144 2924.43,-143.4 2927.4,-142.77 2930.39,-142.13"/>
<polygon fill="midnightblue" stroke="midnightblue" points="1937.98,-306.66 1928.58,-311.55 1938.97,-313.59 1937.98,-306.66"/>
</g>
<!-- Node15 -->
<g id="node15" class="node">
<title>Node15</title>
<g id="a_node15"><a xlink:href="_i_e_render_pass_8cpp.html" target="_top" xlink:title=" ">
<polygon fill="white" stroke="black" points="3179,-81.5 3179,-143.5 3406,-143.5 3406,-81.5 3179,-81.5"/>
<text text-anchor="start" x="3187" y="-126.7" font-family="Source Sans Pro" font-size="16.00">Illumination&#45;Engine</text>
<text text-anchor="start" x="3187" y="-108.7" font-family="Source Sans Pro" font-size="16.00">/src/GraphicsModule</text>
<text text-anchor="middle" x="3292.5" y="-90.7" font-family="Source Sans Pro" font-size="16.00">/RenderPass/IERenderPass.cpp</text>
</a>
</g>
</g>
<!-- Node1&#45;&gt;Node15 -->
<g id="edge22" class="edge">
<title>Node1&#45;&gt;Node15</title>
<path fill="none" stroke="midnightblue" d="M1938.83,-318.39C2076.88,-307.6 2306.16,-287.67 2502.5,-261 2800.73,-220.49 2875.04,-206.26 3169.5,-144 3172.62,-143.34 3175.78,-142.66 3178.97,-141.96"/>
<polygon fill="midnightblue" stroke="midnightblue" points="1938.34,-314.92 1928.64,-319.18 1938.88,-321.9 1938.34,-314.92"/>
</g>
<!-- Node5 -->
<g id="node5" class="node">
<title>Node5</title>
<g id="a_node5"><a xlink:href="_i_e_buffer_8cpp.html" target="_top" xlink:title=" ">
<polygon fill="white" stroke="black" points="1615,-81.5 1615,-143.5 1772,-143.5 1772,-81.5 1615,-81.5"/>
<text text-anchor="start" x="1623" y="-126.7" font-family="Source Sans Pro" font-size="16.00">Illumination&#45;Engine</text>
<text text-anchor="start" x="1623" y="-108.7" font-family="Source Sans Pro" font-size="16.00">/src/GraphicsModule</text>
<text text-anchor="middle" x="1693.5" y="-90.7" font-family="Source Sans Pro" font-size="16.00">/Buffer/IEBuffer.cpp</text>
</a>
</g>
</g>
<!-- Node4&#45;&gt;Node5 -->
<g id="edge4" class="edge">
<title>Node4&#45;&gt;Node5</title>
<path fill="none" stroke="midnightblue" d="M1772.28,-182.51C1757.78,-169.81 1741.74,-155.76 1727.94,-143.67"/>
<polygon fill="midnightblue" stroke="midnightblue" points="1770.32,-185.45 1780.15,-189.41 1774.93,-180.19 1770.32,-185.45"/>
</g>
<!-- Node6 -->
<g id="node6" class="node">
<title>Node6</title>
<g id="a_node6"><a xlink:href="_i_e_command_buffer_8cpp.html" target="_top" xlink:title=" ">
<polygon fill="white" stroke="black" points="1790,-81.5 1790,-143.5 2083,-143.5 2083,-81.5 1790,-81.5"/>
<text text-anchor="start" x="1798" y="-126.7" font-family="Source Sans Pro" font-size="16.00">Illumination&#45;Engine</text>
<text text-anchor="start" x="1798" y="-108.7" font-family="Source Sans Pro" font-size="16.00">/src/GraphicsModule</text>
<text text-anchor="middle" x="1936.5" y="-90.7" font-family="Source Sans Pro" font-size="16.00">/CommandBuffer/IECommandBuffer.cpp</text>
</a>
</g>
</g>
<!-- Node4&#45;&gt;Node6 -->
<g id="edge5" class="edge">
<title>Node4&#45;&gt;Node6</title>
<path fill="none" stroke="midnightblue" d="M1857.07,-182.51C1871.69,-169.81 1887.86,-155.76 1901.78,-143.67"/>
<polygon fill="midnightblue" stroke="midnightblue" points="1854.39,-180.21 1849.13,-189.41 1858.98,-185.49 1854.39,-180.21"/>
</g>
<!-- Node7 -->
<g id="node7" class="node">
<title>Node7</title>
<g id="a_node7"><a xlink:href="_i_e_command_pool_8cpp.html" target="_top" xlink:title=" ">
<polygon fill="white" stroke="black" points="2101.5,-81.5 2101.5,-143.5 2385.5,-143.5 2385.5,-81.5 2101.5,-81.5"/>
<text text-anchor="start" x="2109.5" y="-126.7" font-family="Source Sans Pro" font-size="16.00">Illumination&#45;Engine</text>
<text text-anchor="start" x="2109.5" y="-108.7" font-family="Source Sans Pro" font-size="16.00">/src/GraphicsModule</text>
<text text-anchor="middle" x="2243.5" y="-90.7" font-family="Source Sans Pro" font-size="16.00">/CommandBuffer/IECommandPool.cpp</text>
</a>
</g>
</g>
<!-- Node4&#45;&gt;Node7 -->
<g id="edge6" class="edge">
<title>Node4&#45;&gt;Node7</title>
<path fill="none" stroke="midnightblue" d="M1905.11,-197.11C1968.14,-181.54 2052.87,-160.6 2121.78,-143.58"/>
<polygon fill="midnightblue" stroke="midnightblue" points="1904.06,-193.77 1895.19,-199.56 1905.74,-200.56 1904.06,-193.77"/>
</g>
<!-- Node8 -->
<g id="node8" class="node">
<title>Node8</title>
<g id="a_node8"><a xlink:href="_i_e_a_p_i_8cpp.html" target="_top" xlink:title=" ">
<polygon fill="white" stroke="black" points="2404,-81.5 2404,-143.5 2561,-143.5 2561,-81.5 2404,-81.5"/>
<text text-anchor="start" x="2412" y="-126.7" font-family="Source Sans Pro" font-size="16.00">Illumination&#45;Engine</text>
<text text-anchor="start" x="2412" y="-108.7" font-family="Source Sans Pro" font-size="16.00">/src/GraphicsModule</text>
<text text-anchor="middle" x="2482.5" y="-90.7" font-family="Source Sans Pro" font-size="16.00">/IEAPI.cpp</text>
</a>
</g>
</g>
<!-- Node4&#45;&gt;Node8 -->
<g id="edge7" class="edge">
<title>Node4&#45;&gt;Node8</title>
<path fill="none" stroke="midnightblue" d="M1905.35,-213.44C2020.41,-204.45 2224.21,-184.15 2394.5,-144 2397.49,-143.3 2400.52,-142.53 2403.57,-141.71"/>
<polygon fill="midnightblue" stroke="midnightblue" points="1904.88,-209.97 1895.18,-214.22 1905.42,-216.95 1904.88,-209.97"/>
</g>
<!-- Node9 -->
<g id="node9" class="node">
<title>Node9</title>
<g id="a_node9"><a xlink:href="_i_e_camera_8cpp.html" target="_top" xlink:title=" ">
<polygon fill="white" stroke="black" points="2579,-81.5 2579,-143.5 2736,-143.5 2736,-81.5 2579,-81.5"/>
<text text-anchor="start" x="2587" y="-126.7" font-family="Source Sans Pro" font-size="16.00">Illumination&#45;Engine</text>
<text text-anchor="start" x="2587" y="-108.7" font-family="Source Sans Pro" font-size="16.00">/src/GraphicsModule</text>
<text text-anchor="middle" x="2657.5" y="-90.7" font-family="Source Sans Pro" font-size="16.00">/IECamera.cpp</text>
</a>
</g>
</g>
<!-- Node4&#45;&gt;Node9 -->
<g id="edge8" class="edge">
<title>Node4&#45;&gt;Node9</title>
<path fill="none" stroke="midnightblue" d="M1905.13,-217.26C2047.96,-212.22 2333.46,-195.95 2569.5,-144 2572.5,-143.34 2575.54,-142.61 2578.6,-141.82"/>
<polygon fill="midnightblue" stroke="midnightblue" points="1904.97,-213.77 1895.09,-217.61 1905.21,-220.76 1904.97,-213.77"/>
</g>
<!-- Node10 -->
<g id="node10" class="node">
<title>Node10</title>
<g id="a_node10"><a xlink:href="_i_e_render_engine_8cpp.html" target="_top" xlink:title=" ">
<polygon fill="white" stroke="black" points="2754,-81.5 2754,-143.5 2913,-143.5 2913,-81.5 2754,-81.5"/>
<text text-anchor="start" x="2762" y="-126.7" font-family="Source Sans Pro" font-size="16.00">Illumination&#45;Engine</text>
<text text-anchor="start" x="2762" y="-108.7" font-family="Source Sans Pro" font-size="16.00">/src/GraphicsModule</text>
<text text-anchor="middle" x="2833.5" y="-90.7" font-family="Source Sans Pro" font-size="16.00">/IERenderEngine.cpp</text>
</a>
</g>
</g>
<!-- Node4&#45;&gt;Node10 -->
<g id="edge9" class="edge">
<title>Node4&#45;&gt;Node10</title>
<path fill="none" stroke="midnightblue" d="M1905.09,-219.59C2072.63,-218.11 2441.46,-207.19 2744.5,-144 2747.54,-143.37 2750.62,-142.66 2753.71,-141.89"/>
<polygon fill="midnightblue" stroke="midnightblue" points="1905.05,-216.09 1895.07,-219.67 1905.1,-223.09 1905.05,-216.09"/>
</g>
<!-- Node12 -->
<g id="node12" class="node">
<title>Node12</title>
<g id="a_node12"><a xlink:href="_i_e_image_8cpp.html" target="_top" xlink:title=" ">
<polygon fill="white" stroke="black" points="0,-81.5 0,-143.5 157,-143.5 157,-81.5 0,-81.5"/>
<text text-anchor="start" x="8" y="-126.7" font-family="Source Sans Pro" font-size="16.00">Illumination&#45;Engine</text>
<text text-anchor="start" x="8" y="-108.7" font-family="Source Sans Pro" font-size="16.00">/src/GraphicsModule</text>
<text text-anchor="middle" x="78.5" y="-90.7" font-family="Source Sans Pro" font-size="16.00">/Image/IEImage.cpp</text>
</a>
</g>
</g>
<!-- Node4&#45;&gt;Node12 -->
<g id="edge11" class="edge">
<title>Node4&#45;&gt;Node12</title>
<path fill="none" stroke="midnightblue" d="M1744.79,-185.8C1738.05,-183.49 1731.22,-181.49 1724.5,-180 1386.19,-104.94 506.43,-206.09 165.5,-144 162.82,-143.51 160.12,-142.96 157.4,-142.34"/>
<polygon fill="midnightblue" stroke="midnightblue" points="1744,-189.24 1754.59,-189.39 1746.41,-182.67 1744,-189.24"/>
</g>
<!-- Node13 -->
<g id="node13" class="node">
<title>Node13</title>
<g id="a_node13"><a xlink:href="_i_e_texture_8cpp.html" target="_top" xlink:title=" ">
<polygon fill="white" stroke="black" points="175,-81.5 175,-143.5 336,-143.5 336,-81.5 175,-81.5"/>
<text text-anchor="start" x="183" y="-126.7" font-family="Source Sans Pro" font-size="16.00">Illumination&#45;Engine</text>
<text text-anchor="start" x="183" y="-108.7" font-family="Source Sans Pro" font-size="16.00">/src/GraphicsModule</text>
<text text-anchor="middle" x="255.5" y="-90.7" font-family="Source Sans Pro" font-size="16.00">/Image/IETexture.cpp</text>
</a>
</g>
</g>
<!-- Node4&#45;&gt;Node13 -->
<g id="edge12" class="edge">
<title>Node4&#45;&gt;Node13</title>
<path fill="none" stroke="midnightblue" d="M1744.79,-185.82C1738.04,-183.51 1731.21,-181.5 1724.5,-180 1425.11,-113.1 646.42,-198.35 344.5,-144 341.77,-143.51 339,-142.95 336.23,-142.33"/>
<polygon fill="midnightblue" stroke="midnightblue" points="1743.99,-189.26 1754.59,-189.42 1746.4,-182.69 1743.99,-189.26"/>
</g>
<!-- Node4&#45;&gt;Node14 -->
<g id="edge13" class="edge">
<title>Node4&#45;&gt;Node14</title>
<path fill="none" stroke="midnightblue" d="M1905.37,-214.21C2152.06,-199.72 2822.41,-159.45 2921.5,-144 2924.46,-143.54 2927.45,-143.04 2930.46,-142.51"/>
<polygon fill="midnightblue" stroke="midnightblue" points="1905.14,-210.72 1895.36,-214.8 1905.55,-217.71 1905.14,-210.72"/>
</g>
<!-- Node4&#45;&gt;Node15 -->
<g id="edge14" class="edge">
<title>Node4&#45;&gt;Node15</title>
<path fill="none" stroke="midnightblue" d="M1905.37,-220.29C2124.27,-220.92 2697.62,-215.01 3169.5,-144 3172.55,-143.54 3175.63,-143.04 3178.73,-142.51"/>
<polygon fill="midnightblue" stroke="midnightblue" points="1905.23,-216.79 1895.22,-220.25 1905.21,-223.79 1905.23,-216.79"/>
</g>
<!-- Node16 -->
<g id="node16" class="node">
<title>Node16</title>
<g id="a_node16"><a xlink:href="_i_e_material_8cpp.html" target="_top" xlink:title=" ">
<polygon fill="white" stroke="black" points="354,-81.5 354,-143.5 555,-143.5 555,-81.5 354,-81.5"/>
<text text-anchor="start" x="362" y="-126.7" font-family="Source Sans Pro" font-size="16.00">Illumination&#45;Engine</text>
<text text-anchor="start" x="362" y="-108.7" font-family="Source Sans Pro" font-size="16.00">/src/GraphicsModule</text>
<text text-anchor="middle" x="454.5" y="-90.7" font-family="Source Sans Pro" font-size="16.00">/Renderable/IEMaterial.cpp</text>
</a>
</g>
</g>
<!-- Node4&#45;&gt;Node16 -->
<g id="edge15" class="edge">
<title>Node4&#45;&gt;Node16</title>
<path fill="none" stroke="midnightblue" d="M1744.78,-185.86C1738.04,-183.53 1731.21,-181.52 1724.5,-180 1472.73,-123.09 818.65,-183.06 563.5,-144 560.78,-143.58 558.03,-143.12 555.27,-142.62"/>
<polygon fill="midnightblue" stroke="midnightblue" points="1743.98,-189.29 1754.58,-189.46 1746.4,-182.72 1743.98,-189.29"/>
</g>
<!-- Node17 -->
<g id="node17" class="node">
<title>Node17</title>
<g id="a_node17"><a xlink:href="_i_e_mesh_8cpp.html" target="_top" xlink:title=" ">
<polygon fill="white" stroke="black" points="573,-81.5 573,-143.5 756,-143.5 756,-81.5 573,-81.5"/>
<text text-anchor="start" x="581" y="-126.7" font-family="Source Sans Pro" font-size="16.00">Illumination&#45;Engine</text>
<text text-anchor="start" x="581" y="-108.7" font-family="Source Sans Pro" font-size="16.00">/src/GraphicsModule</text>
<text text-anchor="middle" x="664.5" y="-90.7" font-family="Source Sans Pro" font-size="16.00">/Renderable/IEMesh.cpp</text>
</a>
</g>
</g>
<!-- Node4&#45;&gt;Node17 -->
<g id="edge16" class="edge">
<title>Node4&#45;&gt;Node17</title>
<path fill="none" stroke="midnightblue" d="M1744.43,-185.79C1737.8,-183.5 1731.09,-181.51 1724.5,-180 1516.42,-132.26 975.02,-179.44 764.5,-144 761.73,-143.53 758.92,-143.01 756.1,-142.44"/>
<polygon fill="midnightblue" stroke="midnightblue" points="1743.48,-189.17 1754.07,-189.33 1745.89,-182.6 1743.48,-189.17"/>
</g>
<!-- Node18 -->
<g id="node18" class="node">
<title>Node18</title>
<g id="a_node18"><a xlink:href="_i_e_renderable_8cpp.html" target="_top" xlink:title=" ">
<polygon fill="white" stroke="black" points="774,-81.5 774,-143.5 999,-143.5 999,-81.5 774,-81.5"/>
<text text-anchor="start" x="782" y="-126.7" font-family="Source Sans Pro" font-size="16.00">Illumination&#45;Engine</text>
<text text-anchor="start" x="782" y="-108.7" font-family="Source Sans Pro" font-size="16.00">/src/GraphicsModule</text>
<text text-anchor="middle" x="886.5" y="-90.7" font-family="Source Sans Pro" font-size="16.00">/Renderable/IERenderable.cpp</text>
</a>
</g>
</g>
<!-- Node4&#45;&gt;Node18 -->
<g id="edge17" class="edge">
<title>Node4&#45;&gt;Node18</title>
<path fill="none" stroke="midnightblue" d="M1744.41,-185.88C1737.79,-183.57 1731.08,-181.55 1724.5,-180 1413.97,-106.68 1323.05,-191.22 1007.5,-144 1004.71,-143.58 1001.9,-143.13 999.07,-142.65"/>
<polygon fill="midnightblue" stroke="midnightblue" points="1743.45,-189.25 1754.04,-189.44 1745.88,-182.69 1743.45,-189.25"/>
</g>
<!-- Node19 -->
<g id="node19" class="node">
<title>Node19</title>
<g id="a_node19"><a xlink:href="_i_e_descriptor_set_8cpp.html" target="_top" xlink:title=" ">
<polygon fill="white" stroke="black" points="1017,-81.5 1017,-143.5 1224,-143.5 1224,-81.5 1017,-81.5"/>
<text text-anchor="start" x="1025" y="-126.7" font-family="Source Sans Pro" font-size="16.00">Illumination&#45;Engine</text>
<text text-anchor="start" x="1025" y="-108.7" font-family="Source Sans Pro" font-size="16.00">/src/GraphicsModule</text>
<text text-anchor="middle" x="1120.5" y="-90.7" font-family="Source Sans Pro" font-size="16.00">/Shader/IEDescriptorSet.cpp</text>
</a>
</g>
</g>
<!-- Node4&#45;&gt;Node19 -->
<g id="edge18" class="edge">
<title>Node4&#45;&gt;Node19</title>
<path fill="none" stroke="midnightblue" d="M1744.04,-185.92C1737.53,-183.63 1730.95,-181.6 1724.5,-180 1512.14,-127.27 1449.21,-180.68 1233.5,-144 1230.39,-143.47 1227.25,-142.9 1224.09,-142.28"/>
<polygon fill="midnightblue" stroke="midnightblue" points="1742.91,-189.24 1753.5,-189.44 1745.35,-182.68 1742.91,-189.24"/>
</g>
<!-- Node20 -->
<g id="node20" class="node">
<title>Node20</title>
<g id="a_node20"><a xlink:href="_i_e_pipeline_8cpp.html" target="_top" xlink:title=" ">
<polygon fill="white" stroke="black" points="1242.5,-81.5 1242.5,-143.5 1414.5,-143.5 1414.5,-81.5 1242.5,-81.5"/>
<text text-anchor="start" x="1250.5" y="-126.7" font-family="Source Sans Pro" font-size="16.00">Illumination&#45;Engine</text>
<text text-anchor="start" x="1250.5" y="-108.7" font-family="Source Sans Pro" font-size="16.00">/src/GraphicsModule</text>
<text text-anchor="middle" x="1328.5" y="-90.7" font-family="Source Sans Pro" font-size="16.00">/Shader/IEPipeline.cpp</text>
</a>
</g>
</g>
<!-- Node4&#45;&gt;Node20 -->
<g id="edge19" class="edge">
<title>Node4&#45;&gt;Node20</title>
<path fill="none" stroke="midnightblue" d="M1742.84,-185.84C1736.72,-183.64 1730.55,-181.65 1724.5,-180 1594.52,-144.54 1555.13,-172.72 1423.5,-144 1420.54,-143.35 1417.54,-142.65 1414.52,-141.91"/>
<polygon fill="midnightblue" stroke="midnightblue" points="1741.82,-189.2 1752.42,-189.45 1744.29,-182.65 1741.82,-189.2"/>
</g>
<!-- Node21 -->
<g id="node21" class="node">
<title>Node21</title>
<g id="a_node21"><a xlink:href="_i_e_shader_8cpp.html" target="_top" xlink:title=" ">
<polygon fill="white" stroke="black" points="1432.5,-81.5 1432.5,-143.5 1596.5,-143.5 1596.5,-81.5 1432.5,-81.5"/>
<text text-anchor="start" x="1440.5" y="-126.7" font-family="Source Sans Pro" font-size="16.00">Illumination&#45;Engine</text>
<text text-anchor="start" x="1440.5" y="-108.7" font-family="Source Sans Pro" font-size="16.00">/src/GraphicsModule</text>
<text text-anchor="middle" x="1514.5" y="-90.7" font-family="Source Sans Pro" font-size="16.00">/Shader/IEShader.cpp</text>
</a>
</g>
</g>
<!-- Node4&#45;&gt;Node21 -->
<g id="edge20" class="edge">
<title>Node4&#45;&gt;Node21</title>
<path fill="none" stroke="midnightblue" d="M1739.08,-185.62C1734.17,-183.66 1729.28,-181.76 1724.5,-180 1672.66,-160.86 1658.15,-160.78 1605.5,-144 1602.64,-143.09 1599.74,-142.16 1596.8,-141.21"/>
<polygon fill="midnightblue" stroke="midnightblue" points="1737.93,-188.93 1748.51,-189.47 1740.58,-182.45 1737.93,-188.93"/>
</g>
<!-- Node11 -->
<g id="node11" class="node">
<title>Node11</title>
<g id="a_node11"><a xlink:href="main_8cpp.html" target="_top" xlink:title=" ">
<polygon fill="white" stroke="black" points="2758.5,-0.5 2758.5,-44.5 2908.5,-44.5 2908.5,-0.5 2758.5,-0.5"/>
<text text-anchor="start" x="2766.5" y="-27.7" font-family="Source Sans Pro" font-size="16.00">Illumination&#45;Engine</text>
<text text-anchor="middle" x="2833.5" y="-9.7" font-family="Source Sans Pro" font-size="16.00">/src/main.cpp</text>
</a>
</g>
</g>
<!-- Node10&#45;&gt;Node11 -->
<g id="edge10" class="edge">
<title>Node10&#45;&gt;Node11</title>
<path fill="none" stroke="midnightblue" d="M2833.5,-71.09C2833.5,-61.97 2833.5,-52.64 2833.5,-44.68"/>
<polygon fill="midnightblue" stroke="midnightblue" points="2830,-71.22 2833.5,-81.22 2837,-71.22 2830,-71.22"/>
</g>
</g>
</svg>
