<?xml version="1.0" encoding="UTF-8" standalone="no"?>
<!DOCTYPE svg PUBLIC "-//W3C//DTD SVG 1.1//EN"
 "http://www.w3.org/Graphics/SVG/1.1/DTD/svg11.dtd">
<!-- Generated by graphviz version 2.43.0 (0)
 -->
<!-- Title: Illumination&#45;Engine/src/InputModule/IEKeyboard.hpp Pages: 1 -->
<svg width="879pt" height="179pt"
 viewBox="0.00 0.00 878.50 179.00" xmlns="http://www.w3.org/2000/svg" xmlns:xlink="http://www.w3.org/1999/xlink">
<g id="graph0" class="graph" transform="scale(1 1) rotate(0) translate(4 175)">
<title>Illumination&#45;Engine/src/InputModule/IEKeyboard.hpp</title>
<polygon fill="white" stroke="transparent" points="-4,4 -4,-175 874.5,-175 874.5,4 -4,4"/>
<!-- Node1 -->
<g id="node1" class="node">
<title>Node1</title>
<g id="a_node1"><a xlink:title=" ">
<polygon fill="#bfbfbf" stroke="black" points="458,-126.5 458,-170.5 706,-170.5 706,-126.5 458,-126.5"/>
<text text-anchor="start" x="466" y="-153.7" font-family="Source Sans Pro" font-size="16.00">Illumination&#45;Engine</text>
<text text-anchor="middle" x="582" y="-135.7" font-family="Source Sans Pro" font-size="16.00">/src/InputModule/IEKeyboard.hpp</text>
</a>
</g>
</g>
<!-- Node2 -->
<g id="node2" class="node">
<title>Node2</title>
<g id="a_node2"><a xlink:href="_i_e_window_user_8hpp.html" target="_top" xlink:title=" ">
<polygon fill="white" stroke="black" points="0,-63.5 0,-89.5 194,-89.5 194,-63.5 0,-63.5"/>
<text text-anchor="middle" x="97" y="-72.7" font-family="Source Sans Pro" font-size="16.00">../Core/IEWindowUser.hpp</text>
</a>
</g>
</g>
<!-- Node1&#45;&gt;Node2 -->
<g id="edge1" class="edge">
<title>Node1&#45;&gt;Node2</title>
<path fill="none" stroke="midnightblue" d="M457.73,-129.56C374.33,-117.53 266.23,-101.92 190.19,-90.95"/>
<polygon fill="midnightblue" stroke="midnightblue" points="190.54,-87.46 180.15,-89.5 189.54,-94.39 190.54,-87.46"/>
</g>
<!-- Node4 -->
<g id="node4" class="node">
<title>Node4</title>
<g id="a_node4"><a xlink:title=" ">
<polygon fill="white" stroke="#bfbfbf" points="212,-63.5 212,-89.5 350,-89.5 350,-63.5 212,-63.5"/>
<text text-anchor="middle" x="281" y="-72.7" font-family="Source Sans Pro" font-size="16.00">include/GL/glew.h</text>
</a>
</g>
</g>
<!-- Node1&#45;&gt;Node4 -->
<g id="edge3" class="edge">
<title>Node1&#45;&gt;Node4</title>
<path fill="none" stroke="midnightblue" d="M491.69,-126.5C443.49,-115.29 385.44,-101.79 342.48,-91.8"/>
<polygon fill="midnightblue" stroke="midnightblue" points="343.27,-88.39 332.73,-89.53 341.68,-95.21 343.27,-88.39"/>
</g>
<!-- Node5 -->
<g id="node5" class="node">
<title>Node5</title>
<g id="a_node5"><a xlink:title=" ">
<polygon fill="white" stroke="#bfbfbf" points="368,-63.5 368,-89.5 476,-89.5 476,-63.5 368,-63.5"/>
<text text-anchor="middle" x="422" y="-72.7" font-family="Source Sans Pro" font-size="16.00">GLFW/glfw3.h</text>
</a>
</g>
</g>
<!-- Node1&#45;&gt;Node5 -->
<g id="edge4" class="edge">
<title>Node1&#45;&gt;Node5</title>
<path fill="none" stroke="midnightblue" d="M533.99,-126.5C509.94,-115.97 481.26,-103.43 458.95,-93.67"/>
<polygon fill="midnightblue" stroke="midnightblue" points="460.06,-90.33 449.5,-89.53 457.26,-96.75 460.06,-90.33"/>
</g>
<!-- Node6 -->
<g id="node6" class="node">
<title>Node6</title>
<g id="a_node6"><a xlink:title=" ">
<polygon fill="white" stroke="#bfbfbf" points="494,-63.5 494,-89.5 580,-89.5 580,-63.5 494,-63.5"/>
<text text-anchor="middle" x="537" y="-72.7" font-family="Source Sans Pro" font-size="16.00">functional</text>
</a>
</g>
</g>
<!-- Node1&#45;&gt;Node6 -->
<g id="edge5" class="edge">
<title>Node1&#45;&gt;Node6</title>
<path fill="none" stroke="midnightblue" d="M568.5,-126.5C562.73,-117.53 556.03,-107.1 550.29,-98.17"/>
<polygon fill="midnightblue" stroke="midnightblue" points="553.09,-96.05 544.73,-89.53 547.2,-99.84 553.09,-96.05"/>
</g>
<!-- Node7 -->
<g id="node7" class="node">
<title>Node7</title>
<g id="a_node7"><a xlink:title=" ">
<polygon fill="white" stroke="#bfbfbf" points="598.5,-63.5 598.5,-89.5 657.5,-89.5 657.5,-63.5 598.5,-63.5"/>
<text text-anchor="middle" x="628" y="-72.7" font-family="Source Sans Pro" font-size="16.00">vector</text>
</a>
</g>
</g>
<!-- Node1&#45;&gt;Node7 -->
<g id="edge6" class="edge">
<title>Node1&#45;&gt;Node7</title>
<path fill="none" stroke="midnightblue" d="M595.8,-126.5C601.69,-117.53 608.55,-107.1 614.42,-98.17"/>
<polygon fill="midnightblue" stroke="midnightblue" points="617.53,-99.81 620.09,-89.53 611.68,-95.97 617.53,-99.81"/>
</g>
<!-- Node8 -->
<g id="node8" class="node">
<title>Node8</title>
<g id="a_node8"><a xlink:title=" ">
<polygon fill="white" stroke="#bfbfbf" points="675.5,-63.5 675.5,-89.5 716.5,-89.5 716.5,-63.5 675.5,-63.5"/>
<text text-anchor="middle" x="696" y="-72.7" font-family="Source Sans Pro" font-size="16.00">any</text>
</a>
</g>
</g>
<!-- Node1&#45;&gt;Node8 -->
<g id="edge7" class="edge">
<title>Node1&#45;&gt;Node8</title>
<path fill="none" stroke="midnightblue" d="M616.2,-126.5C632.65,-116.4 652.13,-104.44 667.73,-94.86"/>
<polygon fill="midnightblue" stroke="midnightblue" points="669.72,-97.75 676.41,-89.53 666.05,-91.78 669.72,-97.75"/>
</g>
<!-- Node9 -->
<g id="node9" class="node">
<title>Node9</title>
<g id="a_node9"><a xlink:title=" ">
<polygon fill="white" stroke="#bfbfbf" points="734.5,-63.5 734.5,-89.5 789.5,-89.5 789.5,-63.5 734.5,-63.5"/>
<text text-anchor="middle" x="762" y="-72.7" font-family="Source Sans Pro" font-size="16.00">string</text>
</a>
</g>
</g>
<!-- Node1&#45;&gt;Node9 -->
<g id="edge8" class="edge">
<title>Node1&#45;&gt;Node9</title>
<path fill="none" stroke="midnightblue" d="M636.01,-126.5C664.66,-115.36 699.13,-101.95 724.77,-91.98"/>
<polygon fill="midnightblue" stroke="midnightblue" points="726.08,-95.22 734.13,-88.34 723.55,-88.7 726.08,-95.22"/>
</g>
<!-- Node10 -->
<g id="node10" class="node">
<title>Node10</title>
<g id="a_node10"><a xlink:title=" ">
<polygon fill="white" stroke="#bfbfbf" points="807.5,-63.5 807.5,-89.5 870.5,-89.5 870.5,-63.5 807.5,-63.5"/>
<text text-anchor="middle" x="839" y="-72.7" font-family="Source Sans Pro" font-size="16.00">cstdint</text>
</a>
</g>
</g>
<!-- Node1&#45;&gt;Node10 -->
<g id="edge9" class="edge">
<title>Node1&#45;&gt;Node10</title>
<path fill="none" stroke="midnightblue" d="M664.93,-126.44C702.93,-116.57 748.76,-104.36 797.4,-90.4"/>
<polygon fill="midnightblue" stroke="midnightblue" points="798.52,-93.72 807.16,-87.59 796.58,-87 798.52,-93.72"/>
</g>
<!-- Node3 -->
<g id="node3" class="node">
<title>Node3</title>
<g id="a_node3"><a xlink:title=" ">
<polygon fill="white" stroke="#bfbfbf" points="60,-0.5 60,-26.5 134,-26.5 134,-0.5 60,-0.5"/>
<text text-anchor="middle" x="97" y="-9.7" font-family="Source Sans Pro" font-size="16.00">memory</text>
</a>
</g>
</g>
<!-- Node2&#45;&gt;Node3 -->
<g id="edge2" class="edge">
<title>Node2&#45;&gt;Node3</title>
<path fill="none" stroke="midnightblue" d="M97,-63.45C97,-55.85 97,-45.79 97,-36.78"/>
<polygon fill="midnightblue" stroke="midnightblue" points="100.5,-36.53 97,-26.53 93.5,-36.53 100.5,-36.53"/>
</g>
</g>
</svg>
