<?xml version="1.0" encoding="UTF-8" standalone="no"?>
<!DOCTYPE svg PUBLIC "-//W3C//DTD SVG 1.1//EN"
 "http://www.w3.org/Graphics/SVG/1.1/DTD/svg11.dtd">
<!-- Generated by graphviz version 2.43.0 (0)
 -->
<!-- Title: Illumination&#45;Engine/src/Core/AssetModule/IEAsset.hpp Pages: 1 -->
<svg width="457pt" height="197pt"
 viewBox="0.00 0.00 456.50 197.00" xmlns="http://www.w3.org/2000/svg" xmlns:xlink="http://www.w3.org/1999/xlink">
<g id="graph0" class="graph" transform="scale(1 1) rotate(0) translate(4 193)">
<title>Illumination&#45;Engine/src/Core/AssetModule/IEAsset.hpp</title>
<polygon fill="white" stroke="transparent" points="-4,4 -4,-193 452.5,-193 452.5,4 -4,4"/>
<!-- Node1 -->
<g id="node1" class="node">
<title>Node1</title>
<g id="a_node1"><a xlink:title=" ">
<polygon fill="#bfbfbf" stroke="black" points="112.5,-126.5 112.5,-188.5 282.5,-188.5 282.5,-126.5 112.5,-126.5"/>
<text text-anchor="start" x="120.5" y="-171.7" font-family="Source Sans Pro" font-size="16.00">Illumination&#45;Engine</text>
<text text-anchor="start" x="120.5" y="-153.7" font-family="Source Sans Pro" font-size="16.00">/src/Core/AssetModule</text>
<text text-anchor="middle" x="197.5" y="-135.7" font-family="Source Sans Pro" font-size="16.00">/IEAsset.hpp</text>
</a>
</g>
</g>
<!-- Node2 -->
<g id="node2" class="node">
<title>Node2</title>
<g id="a_node2"><a xlink:title=" ">
<polygon fill="white" stroke="#bfbfbf" points="0,-0.5 0,-26.5 55,-26.5 55,-0.5 0,-0.5"/>
<text text-anchor="middle" x="27.5" y="-9.7" font-family="Source Sans Pro" font-size="16.00">string</text>
</a>
</g>
</g>
<!-- Node1&#45;&gt;Node2 -->
<g id="edge1" class="edge">
<title>Node1&#45;&gt;Node2</title>
<path fill="none" stroke="midnightblue" d="M112.36,-140.19C83.6,-130.41 54.1,-114.81 35.5,-90 24.19,-74.92 23.02,-53.13 24.19,-36.83"/>
<polygon fill="midnightblue" stroke="midnightblue" points="27.7,-36.89 25.28,-26.57 20.74,-36.15 27.7,-36.89"/>
</g>
<!-- Node3 -->
<g id="node3" class="node">
<title>Node3</title>
<g id="a_node3"><a xlink:title=" ">
<polygon fill="white" stroke="#bfbfbf" points="76,-0.5 76,-26.5 135,-26.5 135,-0.5 76,-0.5"/>
<text text-anchor="middle" x="105.5" y="-9.7" font-family="Source Sans Pro" font-size="16.00">vector</text>
</a>
</g>
</g>
<!-- Node1&#45;&gt;Node3 -->
<g id="edge2" class="edge">
<title>Node1&#45;&gt;Node3</title>
<path fill="none" stroke="midnightblue" d="M189.03,-126.12C182.78,-106.93 173,-82.21 159.5,-63 151.63,-51.8 140.72,-41.38 130.77,-33.09"/>
<polygon fill="midnightblue" stroke="midnightblue" points="132.71,-30.16 122.72,-26.65 128.34,-35.63 132.71,-30.16"/>
</g>
<!-- Node4 -->
<g id="node4" class="node">
<title>Node4</title>
<g id="a_node4"><a xlink:href="_i_e_aspect_8hpp.html" target="_top" xlink:title=" ">
<polygon fill="white" stroke="black" points="44.5,-63.5 44.5,-89.5 150.5,-89.5 150.5,-63.5 44.5,-63.5"/>
<text text-anchor="middle" x="97.5" y="-72.7" font-family="Source Sans Pro" font-size="16.00">IEAspect.hpp</text>
</a>
</g>
</g>
<!-- Node1&#45;&gt;Node4 -->
<g id="edge3" class="edge">
<title>Node1&#45;&gt;Node4</title>
<path fill="none" stroke="midnightblue" d="M159.41,-126.41C146.35,-116.09 132.14,-104.87 120.63,-95.78"/>
<polygon fill="midnightblue" stroke="midnightblue" points="122.8,-93.03 112.79,-89.58 118.46,-98.52 122.8,-93.03"/>
</g>
<!-- Node5 -->
<g id="node5" class="node">
<title>Node5</title>
<g id="a_node5"><a xlink:title=" ">
<polygon fill="white" stroke="#bfbfbf" points="170.5,-0.5 170.5,-26.5 244.5,-26.5 244.5,-0.5 170.5,-0.5"/>
<text text-anchor="middle" x="207.5" y="-9.7" font-family="Source Sans Pro" font-size="16.00">memory</text>
</a>
</g>
</g>
<!-- Node1&#45;&gt;Node5 -->
<g id="edge9" class="edge">
<title>Node1&#45;&gt;Node5</title>
<path fill="none" stroke="midnightblue" d="M199.62,-126.39C201.5,-99.68 204.21,-61.26 205.91,-37.11"/>
<polygon fill="midnightblue" stroke="midnightblue" points="209.42,-37.03 206.63,-26.81 202.44,-36.54 209.42,-37.03"/>
</g>
<!-- Node6 -->
<g id="node6" class="node">
<title>Node6</title>
<g id="a_node6"><a xlink:title=" ">
<polygon fill="white" stroke="#bfbfbf" points="244.5,-63.5 244.5,-89.5 326.5,-89.5 326.5,-63.5 244.5,-63.5"/>
<text text-anchor="middle" x="285.5" y="-72.7" font-family="Source Sans Pro" font-size="16.00">algorithm</text>
</a>
</g>
</g>
<!-- Node1&#45;&gt;Node6 -->
<g id="edge7" class="edge">
<title>Node1&#45;&gt;Node6</title>
<path fill="none" stroke="midnightblue" d="M231.02,-126.41C242.21,-116.36 254.36,-105.45 264.34,-96.49"/>
<polygon fill="midnightblue" stroke="midnightblue" points="266.72,-99.06 271.82,-89.78 262.04,-93.85 266.72,-99.06"/>
</g>
<!-- Node7 -->
<g id="node7" class="node">
<title>Node7</title>
<g id="a_node7"><a xlink:title=" ">
<polygon fill="white" stroke="#bfbfbf" points="344.5,-63.5 344.5,-89.5 448.5,-89.5 448.5,-63.5 344.5,-63.5"/>
<text text-anchor="middle" x="396.5" y="-72.7" font-family="Source Sans Pro" font-size="16.00">glm/glm.hpp</text>
</a>
</g>
</g>
<!-- Node1&#45;&gt;Node7 -->
<g id="edge8" class="edge">
<title>Node1&#45;&gt;Node7</title>
<path fill="none" stroke="midnightblue" d="M273.3,-126.41C301.68,-115.14 332.8,-102.79 356.66,-93.32"/>
<polygon fill="midnightblue" stroke="midnightblue" points="358.08,-96.52 366.08,-89.58 355.49,-90.01 358.08,-96.52"/>
</g>
<!-- Node4&#45;&gt;Node2 -->
<g id="edge5" class="edge">
<title>Node4&#45;&gt;Node2</title>
<path fill="none" stroke="midnightblue" d="M83.67,-63.45C73.8,-54.84 60.32,-43.1 49.04,-33.27"/>
<polygon fill="midnightblue" stroke="midnightblue" points="51.14,-30.46 41.3,-26.53 46.54,-35.74 51.14,-30.46"/>
</g>
<!-- Node4&#45;&gt;Node3 -->
<g id="edge6" class="edge">
<title>Node4&#45;&gt;Node3</title>
<path fill="none" stroke="midnightblue" d="M99.08,-63.45C100.09,-55.76 101.43,-45.57 102.62,-36.48"/>
<polygon fill="midnightblue" stroke="midnightblue" points="106.09,-36.9 103.92,-26.53 99.15,-35.99 106.09,-36.9"/>
</g>
<!-- Node4&#45;&gt;Node5 -->
<g id="edge4" class="edge">
<title>Node4&#45;&gt;Node5</title>
<path fill="none" stroke="midnightblue" d="M119.23,-63.45C135.73,-54.3 158.62,-41.6 176.96,-31.44"/>
<polygon fill="midnightblue" stroke="midnightblue" points="178.76,-34.44 185.81,-26.53 175.37,-28.32 178.76,-34.44"/>
</g>
</g>
</svg>
