<?xml version="1.0" encoding="UTF-8" standalone="no"?>
<!DOCTYPE svg PUBLIC "-//W3C//DTD SVG 1.1//EN"
 "http://www.w3.org/Graphics/SVG/1.1/DTD/svg11.dtd">
<!-- Generated by graphviz version 2.43.0 (0)
 -->
<!-- Title: Illumination&#45;Engine/src/GraphicsModule/Renderable/IEMaterial.hpp Pages: 1 -->
<svg width="3583pt" height="467pt"
 viewBox="0.00 0.00 3583.00 467.00" xmlns="http://www.w3.org/2000/svg" xmlns:xlink="http://www.w3.org/1999/xlink">
<g id="graph0" class="graph" transform="scale(1 1) rotate(0) translate(4 463)">
<title>Illumination&#45;Engine/src/GraphicsModule/Renderable/IEMaterial.hpp</title>
<polygon fill="white" stroke="transparent" points="-4,4 -4,-463 3579,-463 3579,4 -4,4"/>
<!-- Node1 -->
<g id="node1" class="node">
<title>Node1</title>
<g id="a_node1"><a xlink:title=" ">
<polygon fill="#bfbfbf" stroke="black" points="910,-396.5 910,-458.5 1113,-458.5 1113,-396.5 910,-396.5"/>
<text text-anchor="start" x="918" y="-441.7" font-family="Source Sans Pro" font-size="16.00">Illumination&#45;Engine</text>
<text text-anchor="start" x="918" y="-423.7" font-family="Source Sans Pro" font-size="16.00">/src/GraphicsModule</text>
<text text-anchor="middle" x="1011.5" y="-405.7" font-family="Source Sans Pro" font-size="16.00">/Renderable/IEMaterial.hpp</text>
</a>
</g>
</g>
<!-- Node2 -->
<g id="node2" class="node">
<title>Node2</title>
<g id="a_node2"><a xlink:href="_i_e_material_8cpp.html" target="_top" xlink:title=" ">
<polygon fill="white" stroke="black" points="0,-0.5 0,-62.5 201,-62.5 201,-0.5 0,-0.5"/>
<text text-anchor="start" x="8" y="-45.7" font-family="Source Sans Pro" font-size="16.00">Illumination&#45;Engine</text>
<text text-anchor="start" x="8" y="-27.7" font-family="Source Sans Pro" font-size="16.00">/src/GraphicsModule</text>
<text text-anchor="middle" x="100.5" y="-9.7" font-family="Source Sans Pro" font-size="16.00">/Renderable/IEMaterial.cpp</text>
</a>
</g>
</g>
<!-- Node1&#45;&gt;Node2 -->
<g id="edge1" class="edge">
<title>Node1&#45;&gt;Node2</title>
<path fill="none" stroke="midnightblue" d="M932.72,-392.43C757.28,-316.55 336.74,-134.67 170.16,-62.63"/>
<polygon fill="midnightblue" stroke="midnightblue" points="931.34,-395.64 941.9,-396.4 934.12,-389.22 931.34,-395.64"/>
</g>
<!-- Node3 -->
<g id="node3" class="node">
<title>Node3</title>
<g id="a_node3"><a xlink:href="_i_e_mesh_8hpp.html" target="_top" xlink:title=" ">
<polygon fill="white" stroke="black" points="919,-297.5 919,-359.5 1104,-359.5 1104,-297.5 919,-297.5"/>
<text text-anchor="start" x="927" y="-342.7" font-family="Source Sans Pro" font-size="16.00">Illumination&#45;Engine</text>
<text text-anchor="start" x="927" y="-324.7" font-family="Source Sans Pro" font-size="16.00">/src/GraphicsModule</text>
<text text-anchor="middle" x="1011.5" y="-306.7" font-family="Source Sans Pro" font-size="16.00">/Renderable/IEMesh.hpp</text>
</a>
</g>
</g>
<!-- Node1&#45;&gt;Node3 -->
<g id="edge2" class="edge">
<title>Node1&#45;&gt;Node3</title>
<path fill="none" stroke="midnightblue" d="M1011.5,-386.17C1011.5,-377.29 1011.5,-368.03 1011.5,-359.64"/>
<polygon fill="midnightblue" stroke="midnightblue" points="1008,-386.34 1011.5,-396.34 1015,-386.34 1008,-386.34"/>
</g>
<!-- Node6 -->
<g id="node6" class="node">
<title>Node6</title>
<g id="a_node6"><a xlink:href="_i_e_renderable_8hpp.html" target="_top" xlink:title=" ">
<polygon fill="white" stroke="black" points="1892,-198.5 1892,-260.5 2119,-260.5 2119,-198.5 1892,-198.5"/>
<text text-anchor="start" x="1900" y="-243.7" font-family="Source Sans Pro" font-size="16.00">Illumination&#45;Engine</text>
<text text-anchor="start" x="1900" y="-225.7" font-family="Source Sans Pro" font-size="16.00">/src/GraphicsModule</text>
<text text-anchor="middle" x="2005.5" y="-207.7" font-family="Source Sans Pro" font-size="16.00">/Renderable/IERenderable.hpp</text>
</a>
</g>
</g>
<!-- Node1&#45;&gt;Node6 -->
<g id="edge27" class="edge">
<title>Node1&#45;&gt;Node6</title>
<path fill="none" stroke="midnightblue" d="M1123.3,-406.8C1288.61,-377.29 1607.77,-318.88 1877.5,-261 1882.19,-259.99 1886.97,-258.95 1891.8,-257.87"/>
<polygon fill="midnightblue" stroke="midnightblue" points="1122.36,-403.41 1113.13,-408.61 1123.58,-410.3 1122.36,-403.41"/>
</g>
<!-- Node3&#45;&gt;Node2 -->
<g id="edge3" class="edge">
<title>Node3&#45;&gt;Node2</title>
<path fill="none" stroke="midnightblue" d="M984.72,-288.93C942.61,-229.58 861.32,-120.44 818.5,-99 697.28,-38.3 343.21,-85.39 209.5,-63 206.79,-62.55 204.04,-62.05 201.28,-61.52"/>
<polygon fill="midnightblue" stroke="midnightblue" points="982.01,-291.17 990.64,-297.31 987.73,-287.13 982.01,-291.17"/>
</g>
<!-- Node4 -->
<g id="node4" class="node">
<title>Node4</title>
<g id="a_node4"><a xlink:href="_i_e_mesh_8cpp.html" target="_top" xlink:title=" ">
<polygon fill="white" stroke="black" points="219,-0.5 219,-62.5 402,-62.5 402,-0.5 219,-0.5"/>
<text text-anchor="start" x="227" y="-45.7" font-family="Source Sans Pro" font-size="16.00">Illumination&#45;Engine</text>
<text text-anchor="start" x="227" y="-27.7" font-family="Source Sans Pro" font-size="16.00">/src/GraphicsModule</text>
<text text-anchor="middle" x="310.5" y="-9.7" font-family="Source Sans Pro" font-size="16.00">/Renderable/IEMesh.cpp</text>
</a>
</g>
</g>
<!-- Node3&#45;&gt;Node4 -->
<g id="edge4" class="edge">
<title>Node3&#45;&gt;Node4</title>
<path fill="none" stroke="midnightblue" d="M1002.78,-287.72C988.83,-234.66 956.04,-142.37 889.5,-99 800.08,-40.71 515.41,-82.69 410.5,-63 407.73,-62.48 404.94,-61.91 402.12,-61.3"/>
<polygon fill="midnightblue" stroke="midnightblue" points="999.4,-288.63 1005.24,-297.47 1006.18,-286.92 999.4,-288.63"/>
</g>
<!-- Node5 -->
<g id="node5" class="node">
<title>Node5</title>
<g id="a_node5"><a xlink:href="_i_e_renderable_8cpp.html" target="_top" xlink:title=" ">
<polygon fill="white" stroke="black" points="3173,-0.5 3173,-62.5 3398,-62.5 3398,-0.5 3173,-0.5"/>
<text text-anchor="start" x="3181" y="-45.7" font-family="Source Sans Pro" font-size="16.00">Illumination&#45;Engine</text>
<text text-anchor="start" x="3181" y="-27.7" font-family="Source Sans Pro" font-size="16.00">/src/GraphicsModule</text>
<text text-anchor="middle" x="3285.5" y="-9.7" font-family="Source Sans Pro" font-size="16.00">/Renderable/IERenderable.cpp</text>
</a>
</g>
</g>
<!-- Node3&#45;&gt;Node5 -->
<g id="edge5" class="edge">
<title>Node3&#45;&gt;Node5</title>
<path fill="none" stroke="midnightblue" d="M1114.25,-309.15C1362.21,-265.56 2013.39,-155.27 2561.5,-99 2828.57,-71.58 2899.17,-103.99 3164.5,-63 3167.28,-62.57 3170.1,-62.11 3172.93,-61.61"/>
<polygon fill="midnightblue" stroke="midnightblue" points="1113.42,-305.74 1104.18,-310.92 1114.63,-312.63 1113.42,-305.74"/>
</g>
<!-- Node3&#45;&gt;Node6 -->
<g id="edge6" class="edge">
<title>Node3&#45;&gt;Node6</title>
<path fill="none" stroke="midnightblue" d="M1114.1,-305.78C1133.11,-302.37 1152.85,-299.24 1171.5,-297 1483.44,-259.5 1566.5,-305.6 1877.5,-261 1882.25,-260.32 1887.08,-259.54 1891.95,-258.7"/>
<polygon fill="midnightblue" stroke="midnightblue" points="1113.44,-302.35 1104.23,-307.59 1114.7,-309.23 1113.44,-302.35"/>
</g>
<!-- Node6&#45;&gt;Node5 -->
<g id="edge26" class="edge">
<title>Node6&#45;&gt;Node5</title>
<path fill="none" stroke="midnightblue" d="M2129.22,-215.16C2341.95,-191.26 2790.28,-136.67 3164.5,-63 3167.26,-62.46 3170.06,-61.89 3172.87,-61.3"/>
<polygon fill="midnightblue" stroke="midnightblue" points="2128.82,-211.68 2119.27,-216.28 2129.6,-218.64 2128.82,-211.68"/>
</g>
<!-- Node7 -->
<g id="node7" class="node">
<title>Node7</title>
<g id="a_node7"><a xlink:href="_i_e_render_engine_8cpp.html" target="_top" xlink:title=" ">
<polygon fill="white" stroke="black" points="3416,-0.5 3416,-62.5 3575,-62.5 3575,-0.5 3416,-0.5"/>
<text text-anchor="start" x="3424" y="-45.7" font-family="Source Sans Pro" font-size="16.00">Illumination&#45;Engine</text>
<text text-anchor="start" x="3424" y="-27.7" font-family="Source Sans Pro" font-size="16.00">/src/GraphicsModule</text>
<text text-anchor="middle" x="3495.5" y="-9.7" font-family="Source Sans Pro" font-size="16.00">/IERenderEngine.cpp</text>
</a>
</g>
</g>
<!-- Node6&#45;&gt;Node7 -->
<g id="edge7" class="edge">
<title>Node6&#45;&gt;Node7</title>
<path fill="none" stroke="midnightblue" d="M2129.53,-224.34C2376.34,-213.77 2945.04,-177.97 3407.5,-63 3410.17,-62.34 3412.87,-61.63 3415.59,-60.88"/>
<polygon fill="midnightblue" stroke="midnightblue" points="2129.3,-220.84 2119.46,-224.76 2129.59,-227.84 2129.3,-220.84"/>
</g>
<!-- Node8 -->
<g id="node8" class="node">
<title>Node8</title>
<g id="a_node8"><a xlink:href="_i_e_render_engine_8hpp.html" target="_top" xlink:title=" ">
<polygon fill="white" stroke="black" points="1674,-99.5 1674,-161.5 1835,-161.5 1835,-99.5 1674,-99.5"/>
<text text-anchor="start" x="1682" y="-144.7" font-family="Source Sans Pro" font-size="16.00">Illumination&#45;Engine</text>
<text text-anchor="start" x="1682" y="-126.7" font-family="Source Sans Pro" font-size="16.00">/src/GraphicsModule</text>
<text text-anchor="middle" x="1754.5" y="-108.7" font-family="Source Sans Pro" font-size="16.00">/IERenderEngine.hpp</text>
</a>
</g>
</g>
<!-- Node6&#45;&gt;Node8 -->
<g id="edge8" class="edge">
<title>Node6&#45;&gt;Node8</title>
<path fill="none" stroke="midnightblue" d="M1918.42,-194.85C1890.4,-184.02 1859.56,-172.1 1832.26,-161.55"/>
<polygon fill="midnightblue" stroke="midnightblue" points="1917.21,-198.13 1927.8,-198.47 1919.73,-191.6 1917.21,-198.13"/>
</g>
<!-- Node8&#45;&gt;Node2 -->
<g id="edge19" class="edge">
<title>Node8&#45;&gt;Node2</title>
<path fill="none" stroke="midnightblue" d="M1663.76,-126.17C1343.52,-114.35 281.49,-74.46 209.5,-63 206.78,-62.57 204.04,-62.09 201.27,-61.58"/>
<polygon fill="midnightblue" stroke="midnightblue" points="1663.81,-129.67 1673.93,-126.55 1664.07,-122.68 1663.81,-129.67"/>
</g>
<!-- Node8&#45;&gt;Node4 -->
<g id="edge20" class="edge">
<title>Node8&#45;&gt;Node4</title>
<path fill="none" stroke="midnightblue" d="M1663.67,-125.62C1371.64,-113.07 472.12,-73.75 410.5,-63 407.73,-62.52 404.93,-61.98 402.11,-61.4"/>
<polygon fill="midnightblue" stroke="midnightblue" points="1663.66,-129.12 1673.8,-126.06 1663.96,-122.13 1663.66,-129.12"/>
</g>
<!-- Node8&#45;&gt;Node5 -->
<g id="edge21" class="edge">
<title>Node8&#45;&gt;Node5</title>
<path fill="none" stroke="midnightblue" d="M1845.07,-99.8C1846.56,-99.52 1848.03,-99.25 1849.5,-99 2137.67,-49.83 2874.91,-102.97 3164.5,-63 3167.29,-62.61 3170.11,-62.19 3172.95,-61.73"/>
<polygon fill="midnightblue" stroke="midnightblue" points="1844.28,-96.39 1835.22,-101.9 1845.73,-103.24 1844.28,-96.39"/>
</g>
<!-- Node8&#45;&gt;Node7 -->
<g id="edge14" class="edge">
<title>Node8&#45;&gt;Node7</title>
<path fill="none" stroke="midnightblue" d="M1845.49,-129.34C2145.94,-128.27 3104.37,-120.33 3407.5,-63 3410.2,-62.49 3412.93,-61.91 3415.67,-61.28"/>
<polygon fill="midnightblue" stroke="midnightblue" points="1845.07,-125.84 1835.09,-129.38 1845.1,-132.84 1845.07,-125.84"/>
</g>
<!-- Node9 -->
<g id="node9" class="node">
<title>Node9</title>
<g id="a_node9"><a xlink:href="_i_e_buffer_8cpp.html" target="_top" xlink:title=" ">
<polygon fill="white" stroke="black" points="2209,-0.5 2209,-62.5 2366,-62.5 2366,-0.5 2209,-0.5"/>
<text text-anchor="start" x="2217" y="-45.7" font-family="Source Sans Pro" font-size="16.00">Illumination&#45;Engine</text>
<text text-anchor="start" x="2217" y="-27.7" font-family="Source Sans Pro" font-size="16.00">/src/GraphicsModule</text>
<text text-anchor="middle" x="2287.5" y="-9.7" font-family="Source Sans Pro" font-size="16.00">/Buffer/IEBuffer.cpp</text>
</a>
</g>
</g>
<!-- Node8&#45;&gt;Node9 -->
<g id="edge9" class="edge">
<title>Node8&#45;&gt;Node9</title>
<path fill="none" stroke="midnightblue" d="M1845.02,-99.97C1846.52,-99.64 1848.02,-99.31 1849.5,-99 2002.55,-66.93 2046.83,-96.83 2199.5,-63 2202.5,-62.34 2205.54,-61.6 2208.59,-60.81"/>
<polygon fill="midnightblue" stroke="midnightblue" points="1843.94,-96.63 1835.04,-102.38 1845.58,-103.44 1843.94,-96.63"/>
</g>
<!-- Node10 -->
<g id="node10" class="node">
<title>Node10</title>
<g id="a_node10"><a xlink:href="_i_e_command_buffer_8cpp.html" target="_top" xlink:title=" ">
<polygon fill="white" stroke="black" points="2384,-0.5 2384,-62.5 2677,-62.5 2677,-0.5 2384,-0.5"/>
<text text-anchor="start" x="2392" y="-45.7" font-family="Source Sans Pro" font-size="16.00">Illumination&#45;Engine</text>
<text text-anchor="start" x="2392" y="-27.7" font-family="Source Sans Pro" font-size="16.00">/src/GraphicsModule</text>
<text text-anchor="middle" x="2530.5" y="-9.7" font-family="Source Sans Pro" font-size="16.00">/CommandBuffer/IECommandBuffer.cpp</text>
</a>
</g>
</g>
<!-- Node8&#45;&gt;Node10 -->
<g id="edge10" class="edge">
<title>Node8&#45;&gt;Node10</title>
<path fill="none" stroke="midnightblue" d="M1845.01,-99.9C1846.51,-99.59 1848.01,-99.29 1849.5,-99 2079.63,-54.86 2143.19,-93.68 2375.5,-63 2378.22,-62.64 2380.96,-62.26 2383.72,-61.87"/>
<polygon fill="midnightblue" stroke="midnightblue" points="1843.97,-96.55 1835,-102.19 1845.53,-103.37 1843.97,-96.55"/>
</g>
<!-- Node11 -->
<g id="node11" class="node">
<title>Node11</title>
<g id="a_node11"><a xlink:href="_i_e_command_pool_8cpp.html" target="_top" xlink:title=" ">
<polygon fill="white" stroke="black" points="2695.5,-0.5 2695.5,-62.5 2979.5,-62.5 2979.5,-0.5 2695.5,-0.5"/>
<text text-anchor="start" x="2703.5" y="-45.7" font-family="Source Sans Pro" font-size="16.00">Illumination&#45;Engine</text>
<text text-anchor="start" x="2703.5" y="-27.7" font-family="Source Sans Pro" font-size="16.00">/src/GraphicsModule</text>
<text text-anchor="middle" x="2837.5" y="-9.7" font-family="Source Sans Pro" font-size="16.00">/CommandBuffer/IECommandPool.cpp</text>
</a>
</g>
</g>
<!-- Node8&#45;&gt;Node11 -->
<g id="edge11" class="edge">
<title>Node8&#45;&gt;Node11</title>
<path fill="none" stroke="midnightblue" d="M1845.08,-99.83C1846.56,-99.54 1848.03,-99.26 1849.5,-99 2216.04,-33.5 2316.89,-108 2686.5,-63 2689.42,-62.64 2692.37,-62.26 2695.34,-61.86"/>
<polygon fill="midnightblue" stroke="midnightblue" points="1844.26,-96.43 1835.24,-101.98 1845.76,-103.27 1844.26,-96.43"/>
</g>
<!-- Node12 -->
<g id="node12" class="node">
<title>Node12</title>
<g id="a_node12"><a xlink:href="_i_e_a_p_i_8cpp.html" target="_top" xlink:title=" ">
<polygon fill="white" stroke="black" points="2998,-0.5 2998,-62.5 3155,-62.5 3155,-0.5 2998,-0.5"/>
<text text-anchor="start" x="3006" y="-45.7" font-family="Source Sans Pro" font-size="16.00">Illumination&#45;Engine</text>
<text text-anchor="start" x="3006" y="-27.7" font-family="Source Sans Pro" font-size="16.00">/src/GraphicsModule</text>
<text text-anchor="middle" x="3076.5" y="-9.7" font-family="Source Sans Pro" font-size="16.00">/IEAPI.cpp</text>
</a>
</g>
</g>
<!-- Node8&#45;&gt;Node12 -->
<g id="edge12" class="edge">
<title>Node8&#45;&gt;Node12</title>
<path fill="none" stroke="midnightblue" d="M1845.08,-99.81C1846.56,-99.52 1848.03,-99.25 1849.5,-99 2348.58,-12.75 2490.45,-154.98 2988.5,-63 2991.52,-62.44 2994.58,-61.8 2997.65,-61.09"/>
<polygon fill="midnightblue" stroke="midnightblue" points="1844.27,-96.4 1835.23,-101.92 1845.74,-103.25 1844.27,-96.4"/>
</g>
<!-- Node13 -->
<g id="node13" class="node">
<title>Node13</title>
<g id="a_node13"><a xlink:href="_i_e_camera_8cpp.html" target="_top" xlink:title=" ">
<polygon fill="white" stroke="black" points="420,-0.5 420,-62.5 577,-62.5 577,-0.5 420,-0.5"/>
<text text-anchor="start" x="428" y="-45.7" font-family="Source Sans Pro" font-size="16.00">Illumination&#45;Engine</text>
<text text-anchor="start" x="428" y="-27.7" font-family="Source Sans Pro" font-size="16.00">/src/GraphicsModule</text>
<text text-anchor="middle" x="498.5" y="-9.7" font-family="Source Sans Pro" font-size="16.00">/IECamera.cpp</text>
</a>
</g>
</g>
<!-- Node8&#45;&gt;Node13 -->
<g id="edge13" class="edge">
<title>Node8&#45;&gt;Node13</title>
<path fill="none" stroke="midnightblue" d="M1663.87,-125.81C1407.68,-115.17 690.01,-83.86 585.5,-63 582.83,-62.47 580.13,-61.87 577.42,-61.22"/>
<polygon fill="midnightblue" stroke="midnightblue" points="1663.75,-129.31 1673.88,-126.22 1664.04,-122.31 1663.75,-129.31"/>
</g>
<!-- Node14 -->
<g id="node14" class="node">
<title>Node14</title>
<g id="a_node14"><a xlink:href="_i_e_image_8cpp.html" target="_top" xlink:title=" ">
<polygon fill="white" stroke="black" points="595,-0.5 595,-62.5 752,-62.5 752,-0.5 595,-0.5"/>
<text text-anchor="start" x="603" y="-45.7" font-family="Source Sans Pro" font-size="16.00">Illumination&#45;Engine</text>
<text text-anchor="start" x="603" y="-27.7" font-family="Source Sans Pro" font-size="16.00">/src/GraphicsModule</text>
<text text-anchor="middle" x="673.5" y="-9.7" font-family="Source Sans Pro" font-size="16.00">/Image/IEImage.cpp</text>
</a>
</g>
</g>
<!-- Node8&#45;&gt;Node14 -->
<g id="edge15" class="edge">
<title>Node8&#45;&gt;Node14</title>
<path fill="none" stroke="midnightblue" d="M1663.53,-126.56C1451.92,-119.2 931.69,-98.06 760.5,-63 757.83,-62.45 755.14,-61.85 752.43,-61.19"/>
<polygon fill="midnightblue" stroke="midnightblue" points="1663.56,-130.06 1673.67,-126.91 1663.8,-123.06 1663.56,-130.06"/>
</g>
<!-- Node15 -->
<g id="node15" class="node">
<title>Node15</title>
<g id="a_node15"><a xlink:href="_i_e_texture_8cpp.html" target="_top" xlink:title=" ">
<polygon fill="white" stroke="black" points="770,-0.5 770,-62.5 931,-62.5 931,-0.5 770,-0.5"/>
<text text-anchor="start" x="778" y="-45.7" font-family="Source Sans Pro" font-size="16.00">Illumination&#45;Engine</text>
<text text-anchor="start" x="778" y="-27.7" font-family="Source Sans Pro" font-size="16.00">/src/GraphicsModule</text>
<text text-anchor="middle" x="850.5" y="-9.7" font-family="Source Sans Pro" font-size="16.00">/Image/IETexture.cpp</text>
</a>
</g>
</g>
<!-- Node8&#45;&gt;Node15 -->
<g id="edge16" class="edge">
<title>Node8&#45;&gt;Node15</title>
<path fill="none" stroke="midnightblue" d="M1663.67,-129.3C1512.18,-127.37 1199.06,-116.53 940.5,-63 937.43,-62.36 934.32,-61.66 931.19,-60.89"/>
<polygon fill="midnightblue" stroke="midnightblue" points="1663.81,-132.8 1673.85,-129.42 1663.89,-125.8 1663.81,-132.8"/>
</g>
<!-- Node16 -->
<g id="node16" class="node">
<title>Node16</title>
<g id="a_node16"><a xlink:href="_i_e_framebuffer_8cpp.html" target="_top" xlink:title=" ">
<polygon fill="white" stroke="black" points="949.5,-0.5 949.5,-62.5 1179.5,-62.5 1179.5,-0.5 949.5,-0.5"/>
<text text-anchor="start" x="957.5" y="-45.7" font-family="Source Sans Pro" font-size="16.00">Illumination&#45;Engine</text>
<text text-anchor="start" x="957.5" y="-27.7" font-family="Source Sans Pro" font-size="16.00">/src/GraphicsModule</text>
<text text-anchor="middle" x="1064.5" y="-9.7" font-family="Source Sans Pro" font-size="16.00">/RenderPass/IEFramebuffer.cpp</text>
</a>
</g>
</g>
<!-- Node8&#45;&gt;Node16 -->
<g id="edge17" class="edge">
<title>Node8&#45;&gt;Node16</title>
<path fill="none" stroke="midnightblue" d="M1663.63,-122.33C1551.4,-112.66 1354.9,-93.12 1188.5,-63 1185.55,-62.47 1182.58,-61.91 1179.57,-61.32"/>
<polygon fill="midnightblue" stroke="midnightblue" points="1663.63,-125.84 1673.9,-123.2 1664.23,-118.86 1663.63,-125.84"/>
</g>
<!-- Node17 -->
<g id="node17" class="node">
<title>Node17</title>
<g id="a_node17"><a xlink:href="_i_e_render_pass_8cpp.html" target="_top" xlink:title=" ">
<polygon fill="white" stroke="black" points="1198,-0.5 1198,-62.5 1425,-62.5 1425,-0.5 1198,-0.5"/>
<text text-anchor="start" x="1206" y="-45.7" font-family="Source Sans Pro" font-size="16.00">Illumination&#45;Engine</text>
<text text-anchor="start" x="1206" y="-27.7" font-family="Source Sans Pro" font-size="16.00">/src/GraphicsModule</text>
<text text-anchor="middle" x="1311.5" y="-9.7" font-family="Source Sans Pro" font-size="16.00">/RenderPass/IERenderPass.cpp</text>
</a>
</g>
</g>
<!-- Node8&#45;&gt;Node17 -->
<g id="edge18" class="edge">
<title>Node8&#45;&gt;Node17</title>
<path fill="none" stroke="midnightblue" d="M1663.68,-111.59C1599.51,-98.7 1511.57,-80.56 1434.5,-63 1431.39,-62.29 1428.24,-61.57 1425.06,-60.83"/>
<polygon fill="midnightblue" stroke="midnightblue" points="1663.27,-115.07 1673.76,-113.61 1664.65,-108.21 1663.27,-115.07"/>
</g>
<!-- Node18 -->
<g id="node18" class="node">
<title>Node18</title>
<g id="a_node18"><a xlink:href="_i_e_descriptor_set_8cpp.html" target="_top" xlink:title=" ">
<polygon fill="white" stroke="black" points="1443,-0.5 1443,-62.5 1650,-62.5 1650,-0.5 1443,-0.5"/>
<text text-anchor="start" x="1451" y="-45.7" font-family="Source Sans Pro" font-size="16.00">Illumination&#45;Engine</text>
<text text-anchor="start" x="1451" y="-27.7" font-family="Source Sans Pro" font-size="16.00">/src/GraphicsModule</text>
<text text-anchor="middle" x="1546.5" y="-9.7" font-family="Source Sans Pro" font-size="16.00">/Shader/IEDescriptorSet.cpp</text>
</a>
</g>
</g>
<!-- Node8&#45;&gt;Node18 -->
<g id="edge22" class="edge">
<title>Node8&#45;&gt;Node18</title>
<path fill="none" stroke="midnightblue" d="M1680.82,-95.14C1658.01,-84.5 1633.07,-72.87 1610.94,-62.55"/>
<polygon fill="midnightblue" stroke="midnightblue" points="1679.57,-98.42 1690.11,-99.47 1682.53,-92.07 1679.57,-98.42"/>
</g>
<!-- Node19 -->
<g id="node19" class="node">
<title>Node19</title>
<g id="a_node19"><a xlink:href="_i_e_pipeline_8cpp.html" target="_top" xlink:title=" ">
<polygon fill="white" stroke="black" points="1668.5,-0.5 1668.5,-62.5 1840.5,-62.5 1840.5,-0.5 1668.5,-0.5"/>
<text text-anchor="start" x="1676.5" y="-45.7" font-family="Source Sans Pro" font-size="16.00">Illumination&#45;Engine</text>
<text text-anchor="start" x="1676.5" y="-27.7" font-family="Source Sans Pro" font-size="16.00">/src/GraphicsModule</text>
<text text-anchor="middle" x="1754.5" y="-9.7" font-family="Source Sans Pro" font-size="16.00">/Shader/IEPipeline.cpp</text>
</a>
</g>
</g>
<!-- Node8&#45;&gt;Node19 -->
<g id="edge23" class="edge">
<title>Node8&#45;&gt;Node19</title>
<path fill="none" stroke="midnightblue" d="M1754.5,-89.17C1754.5,-80.29 1754.5,-71.03 1754.5,-62.64"/>
<polygon fill="midnightblue" stroke="midnightblue" points="1751,-89.34 1754.5,-99.34 1758,-89.34 1751,-89.34"/>
</g>
<!-- Node20 -->
<g id="node20" class="node">
<title>Node20</title>
<g id="a_node20"><a xlink:href="_i_e_shader_8cpp.html" target="_top" xlink:title=" ">
<polygon fill="white" stroke="black" points="1858.5,-0.5 1858.5,-62.5 2022.5,-62.5 2022.5,-0.5 1858.5,-0.5"/>
<text text-anchor="start" x="1866.5" y="-45.7" font-family="Source Sans Pro" font-size="16.00">Illumination&#45;Engine</text>
<text text-anchor="start" x="1866.5" y="-27.7" font-family="Source Sans Pro" font-size="16.00">/src/GraphicsModule</text>
<text text-anchor="middle" x="1940.5" y="-9.7" font-family="Source Sans Pro" font-size="16.00">/Shader/IEShader.cpp</text>
</a>
</g>
</g>
<!-- Node8&#45;&gt;Node20 -->
<g id="edge24" class="edge">
<title>Node8&#45;&gt;Node20</title>
<path fill="none" stroke="midnightblue" d="M1821.2,-94.71C1841.38,-84.19 1863.35,-72.74 1882.87,-62.55"/>
<polygon fill="midnightblue" stroke="midnightblue" points="1819.33,-91.75 1812.08,-99.47 1822.56,-97.95 1819.33,-91.75"/>
</g>
<!-- Node21 -->
<g id="node21" class="node">
<title>Node21</title>
<g id="a_node21"><a xlink:href="main_8cpp.html" target="_top" xlink:title=" ">
<polygon fill="white" stroke="black" points="2040.5,-9.5 2040.5,-53.5 2190.5,-53.5 2190.5,-9.5 2040.5,-9.5"/>
<text text-anchor="start" x="2048.5" y="-36.7" font-family="Source Sans Pro" font-size="16.00">Illumination&#45;Engine</text>
<text text-anchor="middle" x="2115.5" y="-18.7" font-family="Source Sans Pro" font-size="16.00">/src/main.cpp</text>
</a>
</g>
</g>
<!-- Node8&#45;&gt;Node21 -->
<g id="edge25" class="edge">
<title>Node8&#45;&gt;Node21</title>
<path fill="none" stroke="midnightblue" d="M1845.07,-100.17C1846.55,-99.77 1848.03,-99.38 1849.5,-99 1929.33,-78.36 1952.07,-85.14 2031.5,-63 2041.21,-60.29 2051.41,-56.99 2061.22,-53.58"/>
<polygon fill="midnightblue" stroke="midnightblue" points="1843.87,-96.87 1835.16,-102.9 1845.74,-103.61 1843.87,-96.87"/>
</g>
</g>
</svg>
