<?xml version="1.0" encoding="UTF-8" standalone="no"?>
<!DOCTYPE svg PUBLIC "-//W3C//DTD SVG 1.1//EN"
 "http://www.w3.org/Graphics/SVG/1.1/DTD/svg11.dtd">
<!-- Generated by graphviz version 2.43.0 (0)
 -->
<!-- Title: Illumination&#45;Engine/src/InputModule/IEKeyboard.hpp Pages: 1 -->
<svg width="825pt" height="179pt"
 viewBox="0.00 0.00 824.50 179.00" xmlns="http://www.w3.org/2000/svg" xmlns:xlink="http://www.w3.org/1999/xlink">
<g id="graph0" class="graph" transform="scale(1 1) rotate(0) translate(4 175)">
<title>Illumination&#45;Engine/src/InputModule/IEKeyboard.hpp</title>
<polygon fill="white" stroke="transparent" points="-4,4 -4,-175 820.5,-175 820.5,4 -4,4"/>
<!-- Node1 -->
<g id="node1" class="node">
<title>Node1</title>
<g id="a_node1"><a xlink:title=" ">
<polygon fill="#bfbfbf" stroke="black" points="326,-126.5 326,-170.5 574,-170.5 574,-126.5 326,-126.5"/>
<text text-anchor="start" x="334" y="-153.7" font-family="Source Sans Pro" font-size="16.00">Illumination&#45;Engine</text>
<text text-anchor="middle" x="450" y="-135.7" font-family="Source Sans Pro" font-size="16.00">/src/InputModule/IEKeyboard.hpp</text>
</a>
</g>
</g>
<!-- Node2 -->
<g id="node2" class="node">
<title>Node2</title>
<g id="a_node2"><a xlink:href="_i_e_window_user_8hpp.html" target="_top" xlink:title=" ">
<polygon fill="white" stroke="black" points="0,-63.5 0,-89.5 194,-89.5 194,-63.5 0,-63.5"/>
<text text-anchor="middle" x="97" y="-72.7" font-family="Source Sans Pro" font-size="16.00">../Core/IEWindowUser.hpp</text>
</a>
</g>
</g>
<!-- Node1&#45;&gt;Node2 -->
<g id="edge1" class="edge">
<title>Node1&#45;&gt;Node2</title>
<path fill="none" stroke="midnightblue" d="M344.09,-126.5C286.97,-115.17 218.05,-101.5 167.52,-91.48"/>
<polygon fill="midnightblue" stroke="midnightblue" points="168.16,-88.04 157.67,-89.53 166.8,-94.91 168.16,-88.04"/>
</g>
<!-- Node4 -->
<g id="node4" class="node">
<title>Node4</title>
<g id="a_node4"><a xlink:title=" ">
<polygon fill="white" stroke="#bfbfbf" points="212.5,-63.5 212.5,-89.5 295.5,-89.5 295.5,-63.5 212.5,-63.5"/>
<text text-anchor="middle" x="254" y="-72.7" font-family="Source Sans Pro" font-size="16.00">GL/glew.h</text>
</a>
</g>
</g>
<!-- Node1&#45;&gt;Node4 -->
<g id="edge3" class="edge">
<title>Node1&#45;&gt;Node4</title>
<path fill="none" stroke="midnightblue" d="M391.19,-126.5C361.07,-115.74 325.02,-102.86 297.44,-93.01"/>
<polygon fill="midnightblue" stroke="midnightblue" points="298.28,-89.6 287.69,-89.53 295.93,-96.19 298.28,-89.6"/>
</g>
<!-- Node5 -->
<g id="node5" class="node">
<title>Node5</title>
<g id="a_node5"><a xlink:title=" ">
<polygon fill="white" stroke="#bfbfbf" points="313.5,-63.5 313.5,-89.5 354.5,-89.5 354.5,-63.5 313.5,-63.5"/>
<text text-anchor="middle" x="334" y="-72.7" font-family="Source Sans Pro" font-size="16.00">any</text>
</a>
</g>
</g>
<!-- Node1&#45;&gt;Node5 -->
<g id="edge4" class="edge">
<title>Node1&#45;&gt;Node5</title>
<path fill="none" stroke="midnightblue" d="M415.2,-126.5C398.46,-116.4 378.64,-104.44 362.77,-94.86"/>
<polygon fill="midnightblue" stroke="midnightblue" points="364.31,-91.7 353.94,-89.53 360.69,-97.69 364.31,-91.7"/>
</g>
<!-- Node6 -->
<g id="node6" class="node">
<title>Node6</title>
<g id="a_node6"><a xlink:title=" ">
<polygon fill="white" stroke="#bfbfbf" points="372.5,-63.5 372.5,-89.5 435.5,-89.5 435.5,-63.5 372.5,-63.5"/>
<text text-anchor="middle" x="404" y="-72.7" font-family="Source Sans Pro" font-size="16.00">cstdint</text>
</a>
</g>
</g>
<!-- Node1&#45;&gt;Node6 -->
<g id="edge5" class="edge">
<title>Node1&#45;&gt;Node6</title>
<path fill="none" stroke="midnightblue" d="M436.2,-126.5C430.31,-117.53 423.45,-107.1 417.58,-98.17"/>
<polygon fill="midnightblue" stroke="midnightblue" points="420.32,-95.97 411.91,-89.53 414.47,-99.81 420.32,-95.97"/>
</g>
<!-- Node7 -->
<g id="node7" class="node">
<title>Node7</title>
<g id="a_node7"><a xlink:title=" ">
<polygon fill="white" stroke="#bfbfbf" points="454,-63.5 454,-89.5 540,-89.5 540,-63.5 454,-63.5"/>
<text text-anchor="middle" x="497" y="-72.7" font-family="Source Sans Pro" font-size="16.00">functional</text>
</a>
</g>
</g>
<!-- Node1&#45;&gt;Node7 -->
<g id="edge6" class="edge">
<title>Node1&#45;&gt;Node7</title>
<path fill="none" stroke="midnightblue" d="M464.1,-126.5C470.19,-117.44 477.28,-106.88 483.31,-97.89"/>
<polygon fill="midnightblue" stroke="midnightblue" points="486.25,-99.78 488.92,-89.53 480.44,-95.88 486.25,-99.78"/>
</g>
<!-- Node8 -->
<g id="node8" class="node">
<title>Node8</title>
<g id="a_node8"><a xlink:title=" ">
<polygon fill="white" stroke="#bfbfbf" points="558,-63.5 558,-89.5 666,-89.5 666,-63.5 558,-63.5"/>
<text text-anchor="middle" x="612" y="-72.7" font-family="Source Sans Pro" font-size="16.00">GLFW/glfw3.h</text>
</a>
</g>
</g>
<!-- Node1&#45;&gt;Node8 -->
<g id="edge7" class="edge">
<title>Node1&#45;&gt;Node8</title>
<path fill="none" stroke="midnightblue" d="M498.61,-126.5C523.07,-115.93 552.26,-103.32 574.89,-93.54"/>
<polygon fill="midnightblue" stroke="midnightblue" points="576.37,-96.71 584.16,-89.53 573.59,-90.28 576.37,-96.71"/>
</g>
<!-- Node9 -->
<g id="node9" class="node">
<title>Node9</title>
<g id="a_node9"><a xlink:title=" ">
<polygon fill="white" stroke="#bfbfbf" points="684.5,-63.5 684.5,-89.5 739.5,-89.5 739.5,-63.5 684.5,-63.5"/>
<text text-anchor="middle" x="712" y="-72.7" font-family="Source Sans Pro" font-size="16.00">string</text>
</a>
</g>
</g>
<!-- Node1&#45;&gt;Node9 -->
<g id="edge8" class="edge">
<title>Node1&#45;&gt;Node9</title>
<path fill="none" stroke="midnightblue" d="M538.85,-126.44C577.89,-116.79 624.42,-104.76 674.47,-90.03"/>
<polygon fill="midnightblue" stroke="midnightblue" points="675.6,-93.34 684.19,-87.15 673.61,-86.63 675.6,-93.34"/>
</g>
<!-- Node10 -->
<g id="node10" class="node">
<title>Node10</title>
<g id="a_node10"><a xlink:title=" ">
<polygon fill="white" stroke="#bfbfbf" points="757.5,-63.5 757.5,-89.5 816.5,-89.5 816.5,-63.5 757.5,-63.5"/>
<text text-anchor="middle" x="787" y="-72.7" font-family="Source Sans Pro" font-size="16.00">vector</text>
</a>
</g>
</g>
<!-- Node1&#45;&gt;Node10 -->
<g id="edge9" class="edge">
<title>Node1&#45;&gt;Node10</title>
<path fill="none" stroke="midnightblue" d="M574.08,-127.31C625.42,-118.06 685.61,-106.06 747.32,-90.26"/>
<polygon fill="midnightblue" stroke="midnightblue" points="748.43,-93.59 757.24,-87.69 746.68,-86.81 748.43,-93.59"/>
</g>
<!-- Node3 -->
<g id="node3" class="node">
<title>Node3</title>
<g id="a_node3"><a xlink:title=" ">
<polygon fill="white" stroke="#bfbfbf" points="60,-0.5 60,-26.5 134,-26.5 134,-0.5 60,-0.5"/>
<text text-anchor="middle" x="97" y="-9.7" font-family="Source Sans Pro" font-size="16.00">memory</text>
</a>
</g>
</g>
<!-- Node2&#45;&gt;Node3 -->
<g id="edge2" class="edge">
<title>Node2&#45;&gt;Node3</title>
<path fill="none" stroke="midnightblue" d="M97,-63.45C97,-55.85 97,-45.79 97,-36.78"/>
<polygon fill="midnightblue" stroke="midnightblue" points="100.5,-36.53 97,-26.53 93.5,-36.53 100.5,-36.53"/>
</g>
</g>
</svg>
