<?xml version="1.0" encoding="UTF-8" standalone="no"?>
<!DOCTYPE svg PUBLIC "-//W3C//DTD SVG 1.1//EN"
 "http://www.w3.org/Graphics/SVG/1.1/DTD/svg11.dtd">
<!-- Generated by graphviz version 2.43.0 (0)
 -->
<!-- Title: Illumination&#45;Engine/src/GraphicsModule/Image/IEImageNEW.hpp Pages: 1 -->
<svg width="404pt" height="269pt"
 viewBox="0.00 0.00 403.50 269.00" xmlns="http://www.w3.org/2000/svg" xmlns:xlink="http://www.w3.org/1999/xlink">
<g id="graph0" class="graph" transform="scale(1 1) rotate(0) translate(4 265)">
<title>Illumination&#45;Engine/src/GraphicsModule/Image/IEImageNEW.hpp</title>
<polygon fill="white" stroke="transparent" points="-4,4 -4,-265 399.5,-265 399.5,4 -4,4"/>
<!-- Node1 -->
<g id="node1" class="node">
<title>Node1</title>
<g id="a_node1"><a xlink:title=" ">
<polygon fill="#bfbfbf" stroke="black" points="102.5,-198.5 102.5,-260.5 287.5,-260.5 287.5,-198.5 102.5,-198.5"/>
<text text-anchor="start" x="110.5" y="-243.7" font-family="Source Sans Pro" font-size="16.00">Illumination&#45;Engine</text>
<text text-anchor="start" x="110.5" y="-225.7" font-family="Source Sans Pro" font-size="16.00">/src/GraphicsModule</text>
<text text-anchor="middle" x="195" y="-207.7" font-family="Source Sans Pro" font-size="16.00">/Image/IEImageNEW.hpp</text>
</a>
</g>
</g>
<!-- Node2 -->
<g id="node2" class="node">
<title>Node2</title>
<g id="a_node2"><a xlink:href="_i_e_image_n_e_w_8cpp.html" target="_top" xlink:title=" ">
<polygon fill="white" stroke="black" points="0,-99.5 0,-161.5 184,-161.5 184,-99.5 0,-99.5"/>
<text text-anchor="start" x="8" y="-144.7" font-family="Source Sans Pro" font-size="16.00">Illumination&#45;Engine</text>
<text text-anchor="start" x="8" y="-126.7" font-family="Source Sans Pro" font-size="16.00">/src/GraphicsModule</text>
<text text-anchor="middle" x="92" y="-108.7" font-family="Source Sans Pro" font-size="16.00">/Image/IEImageNEW.cpp</text>
</a>
</g>
</g>
<!-- Node1&#45;&gt;Node2 -->
<g id="edge1" class="edge">
<title>Node1&#45;&gt;Node2</title>
<path fill="none" stroke="midnightblue" d="M155.53,-191.33C145.11,-181.51 133.98,-171.04 124.01,-161.64"/>
<polygon fill="midnightblue" stroke="midnightblue" points="153.3,-194.03 162.97,-198.34 158.09,-188.94 153.3,-194.03"/>
</g>
<!-- Node3 -->
<g id="node3" class="node">
<title>Node3</title>
<g id="a_node3"><a xlink:href="_i_e_texture_n_e_w_8hpp.html" target="_top" xlink:title=" ">
<polygon fill="white" stroke="black" points="202.5,-99.5 202.5,-161.5 395.5,-161.5 395.5,-99.5 202.5,-99.5"/>
<text text-anchor="start" x="210.5" y="-144.7" font-family="Source Sans Pro" font-size="16.00">Illumination&#45;Engine</text>
<text text-anchor="start" x="210.5" y="-126.7" font-family="Source Sans Pro" font-size="16.00">/src/GraphicsModule</text>
<text text-anchor="middle" x="299" y="-108.7" font-family="Source Sans Pro" font-size="16.00">/Image/IETextureNEW.hpp</text>
</a>
</g>
</g>
<!-- Node1&#45;&gt;Node3 -->
<g id="edge2" class="edge">
<title>Node1&#45;&gt;Node3</title>
<path fill="none" stroke="midnightblue" d="M234.85,-191.33C245.38,-181.51 256.61,-171.04 266.68,-161.64"/>
<polygon fill="midnightblue" stroke="midnightblue" points="232.26,-188.96 227.34,-198.34 237.04,-194.08 232.26,-188.96"/>
</g>
<!-- Node4 -->
<g id="node4" class="node">
<title>Node4</title>
<g id="a_node4"><a xlink:href="_i_e_texture_n_e_w_8cpp.html" target="_top" xlink:title=" ">
<polygon fill="white" stroke="black" points="203.5,-0.5 203.5,-62.5 394.5,-62.5 394.5,-0.5 203.5,-0.5"/>
<text text-anchor="start" x="211.5" y="-45.7" font-family="Source Sans Pro" font-size="16.00">Illumination&#45;Engine</text>
<text text-anchor="start" x="211.5" y="-27.7" font-family="Source Sans Pro" font-size="16.00">/src/GraphicsModule</text>
<text text-anchor="middle" x="299" y="-9.7" font-family="Source Sans Pro" font-size="16.00">/Image/IETextureNEW.cpp</text>
</a>
</g>
</g>
<!-- Node3&#45;&gt;Node4 -->
<g id="edge3" class="edge">
<title>Node3&#45;&gt;Node4</title>
<path fill="none" stroke="midnightblue" d="M299,-89.17C299,-80.29 299,-71.03 299,-62.64"/>
<polygon fill="midnightblue" stroke="midnightblue" points="295.5,-89.34 299,-99.34 302.5,-89.34 295.5,-89.34"/>
</g>
</g>
</svg>
