<?xml version="1.0" encoding="UTF-8" standalone="no"?>
<!DOCTYPE svg PUBLIC "-//W3C//DTD SVG 1.1//EN"
 "http://www.w3.org/Graphics/SVG/1.1/DTD/svg11.dtd">
<!-- Generated by graphviz version 2.43.0 (0)
 -->
<!-- Title: Illumination&#45;Engine/src/Core/FileSystemModule/IEFile.hpp Pages: 1 -->
<svg width="494pt" height="134pt"
 viewBox="0.00 0.00 493.50 134.00" xmlns="http://www.w3.org/2000/svg" xmlns:xlink="http://www.w3.org/1999/xlink">
<g id="graph0" class="graph" transform="scale(1 1) rotate(0) translate(4 130)">
<title>Illumination&#45;Engine/src/Core/FileSystemModule/IEFile.hpp</title>
<polygon fill="white" stroke="transparent" points="-4,4 -4,-130 489.5,-130 489.5,4 -4,4"/>
<!-- Node1 -->
<g id="node1" class="node">
<title>Node1</title>
<g id="a_node1"><a xlink:title=" ">
<polygon fill="#bfbfbf" stroke="black" points="136,-63.5 136,-125.5 343,-125.5 343,-63.5 136,-63.5"/>
<text text-anchor="start" x="144" y="-108.7" font-family="Source Sans Pro" font-size="16.00">Illumination&#45;Engine</text>
<text text-anchor="start" x="144" y="-90.7" font-family="Source Sans Pro" font-size="16.00">/src/Core/FileSystemModule</text>
<text text-anchor="middle" x="239.5" y="-72.7" font-family="Source Sans Pro" font-size="16.00">/IEFile.hpp</text>
</a>
</g>
</g>
<!-- Node2 -->
<g id="node2" class="node">
<title>Node2</title>
<g id="a_node2"><a xlink:title=" ">
<polygon fill="white" stroke="#bfbfbf" points="0,-0.5 0,-26.5 59,-26.5 59,-0.5 0,-0.5"/>
<text text-anchor="middle" x="29.5" y="-9.7" font-family="Source Sans Pro" font-size="16.00">vector</text>
</a>
</g>
</g>
<!-- Node1&#45;&gt;Node2 -->
<g id="edge1" class="edge">
<title>Node1&#45;&gt;Node2</title>
<path fill="none" stroke="midnightblue" d="M159.51,-63.41C128.5,-51.74 94.41,-38.92 68.92,-29.33"/>
<polygon fill="midnightblue" stroke="midnightblue" points="69.84,-25.94 59.25,-25.69 67.37,-32.49 69.84,-25.94"/>
</g>
<!-- Node3 -->
<g id="node3" class="node">
<title>Node3</title>
<g id="a_node3"><a xlink:title=" ">
<polygon fill="white" stroke="#bfbfbf" points="77,-0.5 77,-26.5 132,-26.5 132,-0.5 77,-0.5"/>
<text text-anchor="middle" x="104.5" y="-9.7" font-family="Source Sans Pro" font-size="16.00">string</text>
</a>
</g>
</g>
<!-- Node1&#45;&gt;Node3 -->
<g id="edge2" class="edge">
<title>Node1&#45;&gt;Node3</title>
<path fill="none" stroke="midnightblue" d="M188.08,-63.41C169.76,-52.69 149.78,-40.99 133.94,-31.73"/>
<polygon fill="midnightblue" stroke="midnightblue" points="135.54,-28.61 125.14,-26.58 132,-34.65 135.54,-28.61"/>
</g>
<!-- Node4 -->
<g id="node4" class="node">
<title>Node4</title>
<g id="a_node4"><a xlink:title=" ">
<polygon fill="white" stroke="#bfbfbf" points="150,-0.5 150,-26.5 235,-26.5 235,-0.5 150,-0.5"/>
<text text-anchor="middle" x="192.5" y="-9.7" font-family="Source Sans Pro" font-size="16.00">filesystem</text>
</a>
</g>
</g>
<!-- Node1&#45;&gt;Node4 -->
<g id="edge3" class="edge">
<title>Node1&#45;&gt;Node4</title>
<path fill="none" stroke="midnightblue" d="M221.46,-63.18C215.97,-53.95 210.06,-44.01 205.01,-35.54"/>
<polygon fill="midnightblue" stroke="midnightblue" points="207.88,-33.51 199.76,-26.7 201.87,-37.09 207.88,-33.51"/>
</g>
<!-- Node5 -->
<g id="node5" class="node">
<title>Node5</title>
<g id="a_node5"><a xlink:title=" ">
<polygon fill="white" stroke="#bfbfbf" points="253.5,-0.5 253.5,-26.5 321.5,-26.5 321.5,-0.5 253.5,-0.5"/>
<text text-anchor="middle" x="287.5" y="-9.7" font-family="Source Sans Pro" font-size="16.00">fstream</text>
</a>
</g>
</g>
<!-- Node1&#45;&gt;Node5 -->
<g id="edge4" class="edge">
<title>Node1&#45;&gt;Node5</title>
<path fill="none" stroke="midnightblue" d="M257.92,-63.18C263.59,-53.85 269.7,-43.8 274.89,-35.26"/>
<polygon fill="midnightblue" stroke="midnightblue" points="277.88,-37.07 280.09,-26.7 271.9,-33.43 277.88,-37.07"/>
</g>
<!-- Node6 -->
<g id="node6" class="node">
<title>Node6</title>
<g id="a_node6"><a xlink:title=" ">
<polygon fill="white" stroke="#bfbfbf" points="339.5,-0.5 339.5,-26.5 391.5,-26.5 391.5,-0.5 339.5,-0.5"/>
<text text-anchor="middle" x="365.5" y="-9.7" font-family="Source Sans Pro" font-size="16.00">regex</text>
</a>
</g>
</g>
<!-- Node1&#45;&gt;Node6 -->
<g id="edge5" class="edge">
<title>Node1&#45;&gt;Node6</title>
<path fill="none" stroke="midnightblue" d="M287.49,-63.41C304.43,-52.79 322.89,-41.21 337.61,-31.99"/>
<polygon fill="midnightblue" stroke="midnightblue" points="339.62,-34.85 346.24,-26.58 335.91,-28.92 339.62,-34.85"/>
</g>
<!-- Node7 -->
<g id="node7" class="node">
<title>Node7</title>
<g id="a_node7"><a xlink:title=" ">
<polygon fill="white" stroke="#bfbfbf" points="409.5,-0.5 409.5,-26.5 485.5,-26.5 485.5,-0.5 409.5,-0.5"/>
<text text-anchor="middle" x="447.5" y="-9.7" font-family="Source Sans Pro" font-size="16.00">iostream</text>
</a>
</g>
</g>
<!-- Node1&#45;&gt;Node7 -->
<g id="edge6" class="edge">
<title>Node1&#45;&gt;Node7</title>
<path fill="none" stroke="midnightblue" d="M318.73,-63.41C348.53,-52.09 381.2,-39.68 406.19,-30.19"/>
<polygon fill="midnightblue" stroke="midnightblue" points="407.6,-33.4 415.7,-26.58 405.11,-26.86 407.6,-33.4"/>
</g>
</g>
</svg>
