<?xml version="1.0" encoding="UTF-8" standalone="no"?>
<!DOCTYPE svg PUBLIC "-//W3C//DTD SVG 1.1//EN"
 "http://www.w3.org/Graphics/SVG/1.1/DTD/svg11.dtd">
<!-- Generated by graphviz version 2.43.0 (0)
 -->
<!-- Title: Illumination&#45;Engine/src/GraphicsModule/CommandBuffer/IECommandPool.hpp Pages: 1 -->
<svg width="2581pt" height="602pt"
 viewBox="0.00 0.00 2581.00 602.00" xmlns="http://www.w3.org/2000/svg" xmlns:xlink="http://www.w3.org/1999/xlink">
<g id="graph0" class="graph" transform="scale(1 1) rotate(0) translate(4 598)">
<title>Illumination&#45;Engine/src/GraphicsModule/CommandBuffer/IECommandPool.hpp</title>
<polygon fill="white" stroke="transparent" points="-4,4 -4,-598 2577,-598 2577,4 -4,4"/>
<!-- Node1 -->
<g id="node1" class="node">
<title>Node1</title>
<g id="a_node1"><a xlink:title=" ">
<polygon fill="#bfbfbf" stroke="black" points="1362,-531.5 1362,-593.5 1647,-593.5 1647,-531.5 1362,-531.5"/>
<text text-anchor="start" x="1370" y="-576.7" font-family="Source Sans Pro" font-size="16.00">Illumination&#45;Engine</text>
<text text-anchor="start" x="1370" y="-558.7" font-family="Source Sans Pro" font-size="16.00">/src/GraphicsModule</text>
<text text-anchor="middle" x="1504.5" y="-540.7" font-family="Source Sans Pro" font-size="16.00">/CommandBuffer/IECommandPool.hpp</text>
</a>
</g>
</g>
<!-- Node2 -->
<g id="node2" class="node">
<title>Node2</title>
<g id="a_node2"><a xlink:href="_i_e_command_buffer_8hpp.html" target="_top" xlink:title=" ">
<polygon fill="white" stroke="black" points="1418.5,-468.5 1418.5,-494.5 1590.5,-494.5 1590.5,-468.5 1418.5,-468.5"/>
<text text-anchor="middle" x="1504.5" y="-477.7" font-family="Source Sans Pro" font-size="16.00">IECommandBuffer.hpp</text>
</a>
</g>
</g>
<!-- Node1&#45;&gt;Node2 -->
<g id="edge1" class="edge">
<title>Node1&#45;&gt;Node2</title>
<path fill="none" stroke="midnightblue" d="M1504.5,-531.18C1504.5,-522.45 1504.5,-513.08 1504.5,-504.91"/>
<polygon fill="midnightblue" stroke="midnightblue" points="1508,-504.7 1504.5,-494.7 1501,-504.7 1508,-504.7"/>
</g>
<!-- Node3 -->
<g id="node3" class="node">
<title>Node3</title>
<g id="a_node3"><a xlink:title=" ">
<polygon fill="white" stroke="#bfbfbf" points="1434,-72.5 1434,-98.5 1559,-98.5 1559,-72.5 1434,-72.5"/>
<text text-anchor="middle" x="1496.5" y="-81.7" font-family="Source Sans Pro" font-size="16.00">vulkan/vulkan.h</text>
</a>
</g>
</g>
<!-- Node1&#45;&gt;Node3 -->
<g id="edge83" class="edge">
<title>Node1&#45;&gt;Node3</title>
<path fill="none" stroke="midnightblue" d="M1361.77,-562.05C1140.15,-559 738.5,-536.13 738.5,-410.5 738.5,-410.5 738.5,-410.5 738.5,-327.5 738.5,-230.05 774.96,-194.16 858.5,-144 906.05,-115.45 1266.93,-96.48 1423.92,-89.49"/>
<polygon fill="midnightblue" stroke="midnightblue" points="1424.13,-92.99 1433.96,-89.05 1423.82,-86 1424.13,-92.99"/>
</g>
<!-- Node4 -->
<g id="node4" class="node">
<title>Node4</title>
<g id="a_node4"><a xlink:title=" ">
<polygon fill="white" stroke="#bfbfbf" points="1216,-0.5 1216,-26.5 1275,-26.5 1275,-0.5 1216,-0.5"/>
<text text-anchor="middle" x="1245.5" y="-9.7" font-family="Source Sans Pro" font-size="16.00">vector</text>
</a>
</g>
</g>
<!-- Node1&#45;&gt;Node4 -->
<g id="edge84" class="edge">
<title>Node1&#45;&gt;Node4</title>
<path fill="none" stroke="midnightblue" d="M1647.06,-552.74C1907,-534.84 2431.5,-489 2431.5,-410.5 2431.5,-410.5 2431.5,-410.5 2431.5,-165.5 2431.5,-100.28 2386.33,-88.94 2326.5,-63 2229.6,-20.99 1468.75,-15.36 1285.23,-14.61"/>
<polygon fill="midnightblue" stroke="midnightblue" points="1285.22,-11.11 1275.21,-14.58 1285.19,-18.11 1285.22,-11.11"/>
</g>
<!-- Node14 -->
<g id="node14" class="node">
<title>Node14</title>
<g id="a_node14"><a xlink:title=" ">
<polygon fill="white" stroke="#bfbfbf" points="626,-0.5 626,-26.5 689,-26.5 689,-0.5 626,-0.5"/>
<text text-anchor="middle" x="657.5" y="-9.7" font-family="Source Sans Pro" font-size="16.00">cstdint</text>
</a>
</g>
</g>
<!-- Node1&#45;&gt;Node14 -->
<g id="edge85" class="edge">
<title>Node1&#45;&gt;Node14</title>
<path fill="none" stroke="midnightblue" d="M1361.84,-559.29C1028.87,-552.25 228.5,-523.57 228.5,-410.5 228.5,-410.5 228.5,-410.5 228.5,-246.5 228.5,-71.55 507.96,-27.88 615.77,-17.54"/>
<polygon fill="midnightblue" stroke="midnightblue" points="616.31,-21 625.95,-16.61 615.68,-14.03 616.31,-21"/>
</g>
<!-- Node34 -->
<g id="node34" class="node">
<title>Node34</title>
<g id="a_node34"><a xlink:title=" ">
<polygon fill="white" stroke="#bfbfbf" points="2460,-468.5 2460,-494.5 2573,-494.5 2573,-468.5 2460,-468.5"/>
<text text-anchor="middle" x="2516.5" y="-477.7" font-family="Source Sans Pro" font-size="16.00">VkBootstrap.h</text>
</a>
</g>
</g>
<!-- Node1&#45;&gt;Node34 -->
<g id="edge82" class="edge">
<title>Node1&#45;&gt;Node34</title>
<path fill="none" stroke="midnightblue" d="M1647.22,-556.02C1831.98,-547.88 2163.68,-529.67 2445.5,-495 2446.98,-494.82 2448.47,-494.63 2449.97,-494.43"/>
<polygon fill="midnightblue" stroke="midnightblue" points="2450.59,-497.87 2460,-492.99 2449.6,-490.94 2450.59,-497.87"/>
</g>
<!-- Node2&#45;&gt;Node3 -->
<g id="edge2" class="edge">
<title>Node2&#45;&gt;Node3</title>
<path fill="none" stroke="midnightblue" d="M1590.75,-479.36C1740.77,-476.48 2036.89,-466.44 2068.5,-432 2169.61,-321.82 2029.38,-208.59 1894.5,-144 1838.47,-117.17 1668.02,-99.86 1569.3,-91.79"/>
<polygon fill="midnightblue" stroke="midnightblue" points="1569.35,-88.29 1559.1,-90.97 1568.78,-95.26 1569.35,-88.29"/>
</g>
<!-- Node2&#45;&gt;Node4 -->
<g id="edge3" class="edge">
<title>Node2&#45;&gt;Node4</title>
<path fill="none" stroke="midnightblue" d="M1590.55,-477.63C1742.17,-471.98 2050.79,-457.68 2155.5,-432 2267.36,-404.57 2393.5,-444.67 2393.5,-329.5 2393.5,-329.5 2393.5,-329.5 2393.5,-165.5 2393.5,-122.35 2427.61,-120.5 2253.5,-63 2160.47,-32.27 1460.46,-18.21 1285.19,-15.15"/>
<polygon fill="midnightblue" stroke="midnightblue" points="1285.18,-11.65 1275.12,-14.98 1285.06,-18.65 1285.18,-11.65"/>
</g>
<!-- Node5 -->
<g id="node5" class="node">
<title>Node5</title>
<g id="a_node5"><a xlink:title=" ">
<polygon fill="white" stroke="#bfbfbf" points="1284.5,-396.5 1284.5,-422.5 1348.5,-422.5 1348.5,-396.5 1284.5,-396.5"/>
<text text-anchor="middle" x="1316.5" y="-405.7" font-family="Source Sans Pro" font-size="16.00">variant</text>
</a>
</g>
</g>
<!-- Node2&#45;&gt;Node5 -->
<g id="edge4" class="edge">
<title>Node2&#45;&gt;Node5</title>
<path fill="none" stroke="midnightblue" d="M1461.68,-468.41C1431.99,-459.53 1391.77,-446.52 1357.5,-432 1354.04,-430.53 1350.48,-428.89 1346.96,-427.17"/>
<polygon fill="midnightblue" stroke="midnightblue" points="1348.38,-423.97 1337.88,-422.56 1345.21,-430.21 1348.38,-423.97"/>
</g>
<!-- Node6 -->
<g id="node6" class="node">
<title>Node6</title>
<g id="a_node6"><a xlink:title=" ">
<polygon fill="white" stroke="#bfbfbf" points="1367,-396.5 1367,-422.5 1428,-422.5 1428,-396.5 1367,-396.5"/>
<text text-anchor="middle" x="1397.5" y="-405.7" font-family="Source Sans Pro" font-size="16.00">thread</text>
</a>
</g>
</g>
<!-- Node2&#45;&gt;Node6 -->
<g id="edge5" class="edge">
<title>Node2&#45;&gt;Node6</title>
<path fill="none" stroke="midnightblue" d="M1485.86,-468.31C1468.91,-457.22 1443.68,-440.71 1424.52,-428.17"/>
<polygon fill="midnightblue" stroke="midnightblue" points="1426.21,-425.1 1415.92,-422.55 1422.38,-430.96 1426.21,-425.1"/>
</g>
<!-- Node7 -->
<g id="node7" class="node">
<title>Node7</title>
<g id="a_node7"><a xlink:title=" ">
<polygon fill="white" stroke="#bfbfbf" points="1446,-396.5 1446,-422.5 1505,-422.5 1505,-396.5 1446,-396.5"/>
<text text-anchor="middle" x="1475.5" y="-405.7" font-family="Source Sans Pro" font-size="16.00">mutex</text>
</a>
</g>
</g>
<!-- Node2&#45;&gt;Node7 -->
<g id="edge6" class="edge">
<title>Node2&#45;&gt;Node7</title>
<path fill="none" stroke="midnightblue" d="M1499.45,-468.31C1495.29,-458.27 1489.3,-443.8 1484.34,-431.85"/>
<polygon fill="midnightblue" stroke="midnightblue" points="1487.55,-430.45 1480.49,-422.55 1481.09,-433.13 1487.55,-430.45"/>
</g>
<!-- Node8 -->
<g id="node8" class="node">
<title>Node8</title>
<g id="a_node8"><a xlink:href="_i_e_buffer_8hpp.html" target="_top" xlink:title=" ">
<polygon fill="white" stroke="black" points="1368,-234.5 1368,-260.5 1515,-260.5 1515,-234.5 1368,-234.5"/>
<text text-anchor="middle" x="1441.5" y="-243.7" font-family="Source Sans Pro" font-size="16.00">Buffer/IEBuffer.hpp</text>
</a>
</g>
</g>
<!-- Node2&#45;&gt;Node8 -->
<g id="edge7" class="edge">
<title>Node2&#45;&gt;Node8</title>
<path fill="none" stroke="midnightblue" d="M1418.3,-473.41C1361.18,-466.71 1293.54,-454.26 1275.5,-432 1255.41,-407.21 1289.71,-312.61 1295.5,-306 1313.48,-285.46 1339.75,-272.19 1365.06,-263.64"/>
<polygon fill="midnightblue" stroke="midnightblue" points="1366.22,-266.95 1374.7,-260.59 1364.11,-260.27 1366.22,-266.95"/>
</g>
<!-- Node18 -->
<g id="node18" class="node">
<title>Node18</title>
<g id="a_node18"><a xlink:href="_i_e_image_8hpp.html" target="_top" xlink:title=" ">
<polygon fill="white" stroke="black" points="945,-234.5 945,-260.5 1094,-260.5 1094,-234.5 945,-234.5"/>
<text text-anchor="middle" x="1019.5" y="-243.7" font-family="Source Sans Pro" font-size="16.00">Image/IEImage.hpp</text>
</a>
</g>
</g>
<!-- Node2&#45;&gt;Node18 -->
<g id="edge25" class="edge">
<title>Node2&#45;&gt;Node18</title>
<path fill="none" stroke="midnightblue" d="M1418.34,-470.22C1360.34,-461.96 1290.13,-448.95 1265.5,-432 1210.85,-394.4 1237.52,-347.15 1185.5,-306 1159.38,-285.34 1125.35,-271.84 1094.9,-263.16"/>
<polygon fill="midnightblue" stroke="midnightblue" points="1095.72,-259.76 1085.16,-260.5 1093.88,-266.51 1095.72,-259.76"/>
</g>
<!-- Node20 -->
<g id="node20" class="node">
<title>Node20</title>
<g id="a_node20"><a xlink:href="_i_e_dependent_8hpp.html" target="_top" xlink:title=" ">
<polygon fill="white" stroke="black" points="2229.5,-153.5 2229.5,-179.5 2365.5,-179.5 2365.5,-153.5 2229.5,-153.5"/>
<text text-anchor="middle" x="2297.5" y="-162.7" font-family="Source Sans Pro" font-size="16.00">IEDependent.hpp</text>
</a>
</g>
</g>
<!-- Node2&#45;&gt;Node20 -->
<g id="edge36" class="edge">
<title>Node2&#45;&gt;Node20</title>
<path fill="none" stroke="midnightblue" d="M1590.75,-479.1C1732.97,-475.85 2010.02,-465.33 2101.5,-432 2159.9,-410.72 2176.1,-399.07 2215.5,-351 2256.77,-300.65 2281.44,-226.22 2291.79,-189.55"/>
<polygon fill="midnightblue" stroke="midnightblue" points="2295.18,-190.43 2294.43,-179.86 2288.42,-188.58 2295.18,-190.43"/>
</g>
<!-- Node21 -->
<g id="node21" class="node">
<title>Node21</title>
<g id="a_node21"><a xlink:href="_i_e_pipeline_8hpp.html" target="_top" xlink:title=" ">
<polygon fill="white" stroke="black" points="996.5,-306.5 996.5,-350.5 1176.5,-350.5 1176.5,-306.5 996.5,-306.5"/>
<text text-anchor="start" x="1004.5" y="-333.7" font-family="Source Sans Pro" font-size="16.00">GraphicsModule/Shader</text>
<text text-anchor="middle" x="1086.5" y="-315.7" font-family="Source Sans Pro" font-size="16.00">/IEPipeline.hpp</text>
</a>
</g>
</g>
<!-- Node2&#45;&gt;Node21 -->
<g id="edge39" class="edge">
<title>Node2&#45;&gt;Node21</title>
<path fill="none" stroke="midnightblue" d="M1418.45,-480.16C1354.6,-476.83 1266.94,-465.64 1197.5,-432 1161.87,-414.74 1129.67,-382.2 1109.24,-358.4"/>
<polygon fill="midnightblue" stroke="midnightblue" points="1111.88,-356.11 1102.77,-350.7 1106.52,-360.61 1111.88,-356.11"/>
</g>
<!-- Node28 -->
<g id="node28" class="node">
<title>Node28</title>
<g id="a_node28"><a xlink:href="_i_e_dependency_info_8hpp.html" target="_top" xlink:title=" ">
<polygon fill="white" stroke="black" points="1835.5,-387.5 1835.5,-431.5 2059.5,-431.5 2059.5,-387.5 1835.5,-387.5"/>
<text text-anchor="start" x="1843.5" y="-414.7" font-family="Source Sans Pro" font-size="16.00">CommandBuffer/Dependency</text>
<text text-anchor="middle" x="1947.5" y="-396.7" font-family="Source Sans Pro" font-size="16.00">Structs/IEDependencyInfo.hpp</text>
</a>
</g>
</g>
<!-- Node2&#45;&gt;Node28 -->
<g id="edge58" class="edge">
<title>Node2&#45;&gt;Node28</title>
<path fill="none" stroke="midnightblue" d="M1588.33,-468.49C1650.95,-459.38 1738.93,-446.27 1825.45,-432.15"/>
<polygon fill="midnightblue" stroke="midnightblue" points="1826.14,-435.59 1835.45,-430.52 1825.01,-428.68 1826.14,-435.59"/>
</g>
<!-- Node31 -->
<g id="node31" class="node">
<title>Node31</title>
<g id="a_node31"><a xlink:href="_i_e_copy_buffer_to_image_info_8hpp.html" target="_top" xlink:title=" ">
<polygon fill="white" stroke="black" points="1305,-306.5 1305,-350.5 1578,-350.5 1578,-306.5 1305,-306.5"/>
<text text-anchor="start" x="1313" y="-333.7" font-family="Source Sans Pro" font-size="16.00">CommandBuffer/Dependency</text>
<text text-anchor="middle" x="1441.5" y="-315.7" font-family="Source Sans Pro" font-size="16.00">Structs/IECopyBufferToImageInfo.hpp</text>
</a>
</g>
</g>
<!-- Node2&#45;&gt;Node31 -->
<g id="edge70" class="edge">
<title>Node2&#45;&gt;Node31</title>
<path fill="none" stroke="midnightblue" d="M1509.55,-468.28C1516.39,-449.72 1526.37,-413.75 1513.5,-387 1507.86,-375.28 1498.55,-365.21 1488.46,-356.92"/>
<polygon fill="midnightblue" stroke="midnightblue" points="1490.33,-353.94 1480.26,-350.66 1486.08,-359.51 1490.33,-353.94"/>
</g>
<!-- Node32 -->
<g id="node32" class="node">
<title>Node32</title>
<g id="a_node32"><a xlink:href="_i_e_render_pass_begin_info_8hpp.html" target="_top" xlink:title=" ">
<polygon fill="white" stroke="black" points="1561.5,-387.5 1561.5,-431.5 1817.5,-431.5 1817.5,-387.5 1561.5,-387.5"/>
<text text-anchor="start" x="1569.5" y="-414.7" font-family="Source Sans Pro" font-size="16.00">CommandBuffer/Dependency</text>
<text text-anchor="middle" x="1689.5" y="-396.7" font-family="Source Sans Pro" font-size="16.00">Structs/IERenderPassBeginInfo.hpp</text>
</a>
</g>
</g>
<!-- Node2&#45;&gt;Node32 -->
<g id="edge75" class="edge">
<title>Node2&#45;&gt;Node32</title>
<path fill="none" stroke="midnightblue" d="M1536.3,-468.47C1560.45,-459.33 1594.47,-446.46 1624.32,-435.16"/>
<polygon fill="midnightblue" stroke="midnightblue" points="1625.73,-438.37 1633.85,-431.56 1623.26,-431.82 1625.73,-438.37"/>
</g>
<!-- Node8&#45;&gt;Node3 -->
<g id="edge21" class="edge">
<title>Node8&#45;&gt;Node3</title>
<path fill="none" stroke="midnightblue" d="M1445.63,-234.47C1454.87,-207.6 1477.29,-142.37 1489.04,-108.2"/>
<polygon fill="midnightblue" stroke="midnightblue" points="1492.38,-109.26 1492.32,-98.67 1485.76,-106.98 1492.38,-109.26"/>
</g>
<!-- Node8&#45;&gt;Node4 -->
<g id="edge22" class="edge">
<title>Node8&#45;&gt;Node4</title>
<path fill="none" stroke="midnightblue" d="M1515.09,-244C1600.4,-239.37 1733.32,-226.22 1764.5,-189 1777.34,-173.67 1775.04,-161 1764.5,-144 1721.89,-75.24 1678.82,-86.77 1601.5,-63 1490.29,-28.81 1352.15,-18.69 1285.36,-15.72"/>
<polygon fill="midnightblue" stroke="midnightblue" points="1285.4,-12.22 1275.27,-15.3 1285.11,-19.22 1285.4,-12.22"/>
</g>
<!-- Node9 -->
<g id="node9" class="node">
<title>Node9</title>
<g id="a_node9"><a xlink:href="_i_e_dependency_8hpp.html" target="_top" xlink:title=" ">
<polygon fill="white" stroke="black" points="1510,-144.5 1510,-188.5 1755,-188.5 1755,-144.5 1510,-144.5"/>
<text text-anchor="start" x="1518" y="-171.7" font-family="Source Sans Pro" font-size="16.00">GraphicsModule/CommandBuffer</text>
<text text-anchor="middle" x="1632.5" y="-153.7" font-family="Source Sans Pro" font-size="16.00">/IEDependency.hpp</text>
</a>
</g>
</g>
<!-- Node8&#45;&gt;Node9 -->
<g id="edge8" class="edge">
<title>Node8&#45;&gt;Node9</title>
<path fill="none" stroke="midnightblue" d="M1470.93,-234.33C1497.8,-223.21 1538.38,-206.43 1572.14,-192.47"/>
<polygon fill="midnightblue" stroke="midnightblue" points="1573.56,-195.66 1581.47,-188.61 1570.89,-189.2 1573.56,-195.66"/>
</g>
<!-- Node12 -->
<g id="node12" class="node">
<title>Node12</title>
<g id="a_node12"><a xlink:href="_i_e_a_p_i_8hpp.html" target="_top" xlink:title=" ">
<polygon fill="white" stroke="black" points="627,-153.5 627,-179.5 710,-179.5 710,-153.5 627,-153.5"/>
<text text-anchor="middle" x="668.5" y="-162.7" font-family="Source Sans Pro" font-size="16.00">IEAPI.hpp</text>
</a>
</g>
</g>
<!-- Node8&#45;&gt;Node12 -->
<g id="edge13" class="edge">
<title>Node8&#45;&gt;Node12</title>
<path fill="none" stroke="midnightblue" d="M1367.73,-238.96C1212.16,-223.06 853.78,-186.44 720.06,-172.77"/>
<polygon fill="midnightblue" stroke="midnightblue" points="720.37,-169.28 710.07,-171.75 719.66,-176.25 720.37,-169.28"/>
</g>
<!-- Node8&#45;&gt;Node14 -->
<g id="edge23" class="edge">
<title>Node8&#45;&gt;Node14</title>
<path fill="none" stroke="midnightblue" d="M1443.52,-234.41C1446.34,-212.98 1448.7,-168.27 1424.5,-144 1321.36,-40.56 844.8,-19.47 699.6,-15.41"/>
<polygon fill="midnightblue" stroke="midnightblue" points="699.43,-11.91 689.34,-15.14 699.24,-18.91 699.43,-11.91"/>
</g>
<!-- Node15 -->
<g id="node15" class="node">
<title>Node15</title>
<g id="a_node15"><a xlink:title=" ">
<polygon fill="white" stroke="#bfbfbf" points="1231,-153.5 1231,-179.5 1416,-179.5 1416,-153.5 1231,-153.5"/>
<text text-anchor="middle" x="1323.5" y="-162.7" font-family="Source Sans Pro" font-size="16.00">include/vk_mem_alloc.h</text>
</a>
</g>
</g>
<!-- Node8&#45;&gt;Node15 -->
<g id="edge19" class="edge">
<title>Node8&#45;&gt;Node15</title>
<path fill="none" stroke="midnightblue" d="M1423.32,-234.33C1403.69,-221.19 1372.23,-200.12 1349.88,-185.16"/>
<polygon fill="midnightblue" stroke="midnightblue" points="1351.76,-182.21 1341.51,-179.55 1347.87,-188.03 1351.76,-182.21"/>
</g>
<!-- Node16 -->
<g id="node16" class="node">
<title>Node16</title>
<g id="a_node16"><a xlink:title=" ">
<polygon fill="white" stroke="#bfbfbf" points="1074.5,-153.5 1074.5,-179.5 1212.5,-179.5 1212.5,-153.5 1074.5,-153.5"/>
<text text-anchor="middle" x="1143.5" y="-162.7" font-family="Source Sans Pro" font-size="16.00">include/GL/glew.h</text>
</a>
</g>
</g>
<!-- Node8&#45;&gt;Node16 -->
<g id="edge20" class="edge">
<title>Node8&#45;&gt;Node16</title>
<path fill="none" stroke="midnightblue" d="M1394.67,-234.45C1350.1,-222.94 1281.17,-205.02 1221.5,-189 1213.41,-186.83 1204.85,-184.5 1196.48,-182.21"/>
<polygon fill="midnightblue" stroke="midnightblue" points="1197.36,-178.82 1186.79,-179.54 1195.51,-185.57 1197.36,-178.82"/>
</g>
<!-- Node17 -->
<g id="node17" class="node">
<title>Node17</title>
<g id="a_node17"><a xlink:title=" ">
<polygon fill="white" stroke="#bfbfbf" points="484.5,-153.5 484.5,-179.5 570.5,-179.5 570.5,-153.5 484.5,-153.5"/>
<text text-anchor="middle" x="527.5" y="-162.7" font-family="Source Sans Pro" font-size="16.00">functional</text>
</a>
</g>
</g>
<!-- Node8&#45;&gt;Node17 -->
<g id="edge24" class="edge">
<title>Node8&#45;&gt;Node17</title>
<path fill="none" stroke="midnightblue" d="M1367.94,-241.7C1172.79,-228.91 654.27,-194.63 617.5,-189 605.47,-187.16 592.67,-184.52 580.62,-181.72"/>
<polygon fill="midnightblue" stroke="midnightblue" points="581.24,-178.27 570.7,-179.35 579.61,-185.08 581.24,-178.27"/>
</g>
<!-- Node9&#45;&gt;Node3 -->
<g id="edge10" class="edge">
<title>Node9&#45;&gt;Node3</title>
<path fill="none" stroke="midnightblue" d="M1596.05,-144.33C1574.22,-131.65 1546.81,-115.72 1526.28,-103.8"/>
<polygon fill="midnightblue" stroke="midnightblue" points="1527.78,-100.62 1517.38,-98.63 1524.27,-106.68 1527.78,-100.62"/>
</g>
<!-- Node9&#45;&gt;Node4 -->
<g id="edge9" class="edge">
<title>Node9&#45;&gt;Node4</title>
<path fill="none" stroke="midnightblue" d="M1625.25,-144.34C1615.88,-120.43 1597.16,-82.33 1567.5,-63 1521.59,-33.08 1360.53,-20.66 1285.07,-16.4"/>
<polygon fill="midnightblue" stroke="midnightblue" points="1285.18,-12.9 1275.01,-15.85 1284.8,-19.89 1285.18,-12.9"/>
</g>
<!-- Node10 -->
<g id="node10" class="node">
<title>Node10</title>
<g id="a_node10"><a xlink:title=" ">
<polygon fill="white" stroke="#bfbfbf" points="391,-0.5 391,-26.5 446,-26.5 446,-0.5 391,-0.5"/>
<text text-anchor="middle" x="418.5" y="-9.7" font-family="Source Sans Pro" font-size="16.00">string</text>
</a>
</g>
</g>
<!-- Node9&#45;&gt;Node10 -->
<g id="edge11" class="edge">
<title>Node9&#45;&gt;Node10</title>
<path fill="none" stroke="midnightblue" d="M1509.98,-151.56C1481.92,-148.73 1452.2,-146 1424.5,-144 1327.67,-137.01 643.44,-139.18 551.5,-108 527.8,-99.96 473.12,-58.2 441.75,-33.29"/>
<polygon fill="midnightblue" stroke="midnightblue" points="443.56,-30.25 433.56,-26.75 439.19,-35.72 443.56,-30.25"/>
</g>
<!-- Node11 -->
<g id="node11" class="node">
<title>Node11</title>
<g id="a_node11"><a xlink:title=" ">
<polygon fill="white" stroke="#bfbfbf" points="2050.5,-72.5 2050.5,-98.5 2124.5,-98.5 2124.5,-72.5 2050.5,-72.5"/>
<text text-anchor="middle" x="2087.5" y="-81.7" font-family="Source Sans Pro" font-size="16.00">memory</text>
</a>
</g>
</g>
<!-- Node9&#45;&gt;Node11 -->
<g id="edge12" class="edge">
<title>Node9&#45;&gt;Node11</title>
<path fill="none" stroke="midnightblue" d="M1753.54,-144.49C1847.69,-128.14 1973.26,-106.34 2040.41,-94.68"/>
<polygon fill="midnightblue" stroke="midnightblue" points="2041.03,-98.12 2050.28,-92.96 2039.83,-91.22 2041.03,-98.12"/>
</g>
<!-- Node12&#45;&gt;Node10 -->
<g id="edge18" class="edge">
<title>Node12&#45;&gt;Node10</title>
<path fill="none" stroke="midnightblue" d="M638.76,-153.45C630.34,-150.21 621.11,-146.82 612.5,-144 554.71,-125.08 529.79,-143.62 480.5,-108 455.02,-89.58 437.02,-57.21 427.2,-35.81"/>
<polygon fill="midnightblue" stroke="midnightblue" points="430.37,-34.32 423.15,-26.57 423.95,-37.13 430.37,-34.32"/>
</g>
<!-- Node13 -->
<g id="node13" class="node">
<title>Node13</title>
<g id="a_node13"><a xlink:href="_i_e_version_8hpp.html" target="_top" xlink:title=" ">
<polygon fill="white" stroke="black" points="560.5,-72.5 560.5,-98.5 670.5,-98.5 670.5,-72.5 560.5,-72.5"/>
<text text-anchor="middle" x="615.5" y="-81.7" font-family="Source Sans Pro" font-size="16.00">IEVersion.hpp</text>
</a>
</g>
</g>
<!-- Node12&#45;&gt;Node13 -->
<g id="edge14" class="edge">
<title>Node12&#45;&gt;Node13</title>
<path fill="none" stroke="midnightblue" d="M660.22,-153.16C651.97,-140.87 639.17,-121.78 629.37,-107.17"/>
<polygon fill="midnightblue" stroke="midnightblue" points="632.2,-105.11 623.72,-98.76 626.39,-109.01 632.2,-105.11"/>
</g>
<!-- Node13&#45;&gt;Node4 -->
<g id="edge17" class="edge">
<title>Node13&#45;&gt;Node4</title>
<path fill="none" stroke="midnightblue" d="M670.84,-75.66C697.84,-71.51 730.83,-66.68 760.5,-63 925.59,-42.52 1123.14,-24.89 1205.94,-17.81"/>
<polygon fill="midnightblue" stroke="midnightblue" points="1206.25,-21.3 1215.92,-16.96 1205.66,-14.33 1206.25,-21.3"/>
</g>
<!-- Node13&#45;&gt;Node10 -->
<g id="edge16" class="edge">
<title>Node13&#45;&gt;Node10</title>
<path fill="none" stroke="midnightblue" d="M581.63,-72.47C546.64,-60.03 492.16,-40.67 455.92,-27.79"/>
<polygon fill="midnightblue" stroke="midnightblue" points="456.8,-24.4 446.21,-24.34 454.46,-30.99 456.8,-24.4"/>
</g>
<!-- Node13&#45;&gt;Node14 -->
<g id="edge15" class="edge">
<title>Node13&#45;&gt;Node14</title>
<path fill="none" stroke="midnightblue" d="M622.82,-72.31C628.96,-62.07 637.87,-47.22 645.12,-35.13"/>
<polygon fill="midnightblue" stroke="midnightblue" points="648.12,-36.93 650.27,-26.55 642.12,-33.33 648.12,-36.93"/>
</g>
<!-- Node18&#45;&gt;Node3 -->
<g id="edge30" class="edge">
<title>Node18&#45;&gt;Node3</title>
<path fill="none" stroke="midnightblue" d="M1021.11,-234.34C1024.73,-212.37 1035.64,-166.27 1065.5,-144 1120.68,-102.85 1315.96,-91.15 1423.74,-87.82"/>
<polygon fill="midnightblue" stroke="midnightblue" points="1423.99,-91.32 1433.89,-87.52 1423.79,-84.32 1423.99,-91.32"/>
</g>
<!-- Node18&#45;&gt;Node4 -->
<g id="edge34" class="edge">
<title>Node18&#45;&gt;Node4</title>
<path fill="none" stroke="midnightblue" d="M972.4,-234.42C949.16,-225.83 923.23,-211.67 909.5,-189 899.14,-171.89 898.18,-160.49 909.5,-144 977.44,-45.01 1132.55,-21.66 1205.8,-16.17"/>
<polygon fill="midnightblue" stroke="midnightblue" points="1206.25,-19.65 1215.99,-15.49 1205.78,-12.67 1206.25,-19.65"/>
</g>
<!-- Node18&#45;&gt;Node9 -->
<g id="edge26" class="edge">
<title>Node18&#45;&gt;Node9</title>
<path fill="none" stroke="midnightblue" d="M1094.05,-236.89C1194.71,-223.92 1375.73,-200.59 1499.88,-184.59"/>
<polygon fill="midnightblue" stroke="midnightblue" points="1500.37,-188.06 1509.84,-183.31 1499.47,-181.12 1500.37,-188.06"/>
</g>
<!-- Node18&#45;&gt;Node10 -->
<g id="edge33" class="edge">
<title>Node18&#45;&gt;Node10</title>
<path fill="none" stroke="midnightblue" d="M944.74,-238.71C836.38,-226.99 645.52,-204.52 617.5,-189 594.6,-176.32 601.67,-157.92 579.5,-144 525.09,-109.84 484.23,-154.12 439.5,-108 421.24,-89.17 417.51,-58.07 417.33,-36.95"/>
<polygon fill="midnightblue" stroke="midnightblue" points="420.84,-36.73 417.52,-26.67 413.84,-36.6 420.84,-36.73"/>
</g>
<!-- Node18&#45;&gt;Node12 -->
<g id="edge27" class="edge">
<title>Node18&#45;&gt;Node12</title>
<path fill="none" stroke="midnightblue" d="M944.7,-235.61C884.55,-225.98 798.23,-210.16 724.5,-189 718.66,-187.32 712.58,-185.3 706.67,-183.17"/>
<polygon fill="midnightblue" stroke="midnightblue" points="707.54,-179.76 696.95,-179.52 705.09,-186.31 707.54,-179.76"/>
</g>
<!-- Node18&#45;&gt;Node14 -->
<g id="edge32" class="edge">
<title>Node18&#45;&gt;Node14</title>
<path fill="none" stroke="midnightblue" d="M976.97,-234.49C915.53,-215.52 800.73,-173.87 722.5,-108 698.35,-87.66 679.03,-56.31 667.92,-35.6"/>
<polygon fill="midnightblue" stroke="midnightblue" points="670.99,-33.91 663.27,-26.65 664.77,-37.14 670.99,-33.91"/>
</g>
<!-- Node18&#45;&gt;Node15 -->
<g id="edge29" class="edge">
<title>Node18&#45;&gt;Node15</title>
<path fill="none" stroke="midnightblue" d="M1066,-234.42C1120.09,-220.36 1209.34,-197.17 1267.28,-182.11"/>
<polygon fill="midnightblue" stroke="midnightblue" points="1268.2,-185.49 1277,-179.58 1266.44,-178.71 1268.2,-185.49"/>
</g>
<!-- Node18&#45;&gt;Node16 -->
<g id="edge28" class="edge">
<title>Node18&#45;&gt;Node16</title>
<path fill="none" stroke="midnightblue" d="M1038.6,-234.33C1059.33,-221.13 1092.59,-199.94 1116.09,-184.96"/>
<polygon fill="midnightblue" stroke="midnightblue" points="1118.03,-187.88 1124.58,-179.55 1114.26,-181.98 1118.03,-187.88"/>
</g>
<!-- Node18&#45;&gt;Node17 -->
<g id="edge35" class="edge">
<title>Node18&#45;&gt;Node17</title>
<path fill="none" stroke="midnightblue" d="M944.83,-238.72C839.04,-227.34 650.99,-205.7 584.5,-189 578.17,-187.41 571.58,-185.34 565.23,-183.11"/>
<polygon fill="midnightblue" stroke="midnightblue" points="566.1,-179.7 555.5,-179.52 563.68,-186.27 566.1,-179.7"/>
</g>
<!-- Node19 -->
<g id="node19" class="node">
<title>Node19</title>
<g id="a_node19"><a xlink:title=" ">
<polygon fill="white" stroke="#bfbfbf" points="918.5,-153.5 918.5,-179.5 1018.5,-179.5 1018.5,-153.5 918.5,-153.5"/>
<text text-anchor="middle" x="968.5" y="-162.7" font-family="Source Sans Pro" font-size="16.00">stb_image.h</text>
</a>
</g>
</g>
<!-- Node18&#45;&gt;Node19 -->
<g id="edge31" class="edge">
<title>Node18&#45;&gt;Node19</title>
<path fill="none" stroke="midnightblue" d="M1011.53,-234.16C1003.6,-221.87 991.27,-202.78 981.84,-188.17"/>
<polygon fill="midnightblue" stroke="midnightblue" points="984.78,-186.26 976.41,-179.76 978.9,-190.06 984.78,-186.26"/>
</g>
<!-- Node20&#45;&gt;Node4 -->
<g id="edge37" class="edge">
<title>Node20&#45;&gt;Node4</title>
<path fill="none" stroke="midnightblue" d="M2291.99,-153.22C2281.1,-130.62 2254.45,-82.93 2215.5,-63 2131.79,-20.16 1457.41,-15.15 1285.34,-14.57"/>
<polygon fill="midnightblue" stroke="midnightblue" points="1285.22,-11.07 1275.21,-14.54 1285.2,-18.07 1285.22,-11.07"/>
</g>
<!-- Node20&#45;&gt;Node11 -->
<g id="edge38" class="edge">
<title>Node20&#45;&gt;Node11</title>
<path fill="none" stroke="midnightblue" d="M2265.15,-153.33C2228.58,-139.57 2168.97,-117.15 2129.01,-102.11"/>
<polygon fill="midnightblue" stroke="midnightblue" points="2130.14,-98.8 2119.54,-98.55 2127.67,-105.35 2130.14,-98.8"/>
</g>
<!-- Node21&#45;&gt;Node3 -->
<g id="edge55" class="edge">
<title>Node21&#45;&gt;Node3</title>
<path fill="none" stroke="midnightblue" d="M996.35,-307.97C974.06,-299.45 951.91,-287.3 935.5,-270 896.16,-228.51 871.09,-186.36 909.5,-144 943.46,-106.55 1274.27,-92.66 1423.79,-88.27"/>
<polygon fill="midnightblue" stroke="midnightblue" points="1423.91,-91.77 1433.8,-87.98 1423.7,-84.77 1423.91,-91.77"/>
</g>
<!-- Node21&#45;&gt;Node4 -->
<g id="edge57" class="edge">
<title>Node21&#45;&gt;Node4</title>
<path fill="none" stroke="midnightblue" d="M996.4,-307.47C993.06,-306.94 989.75,-306.45 986.5,-306 921.21,-297.05 439.66,-317.99 394.5,-270 380.79,-255.43 388.62,-244.12 394.5,-225 407.29,-183.41 412.18,-166.37 449.5,-144 579.45,-66.1 654.65,-178.99 788.5,-108 811.63,-95.73 803.43,-75.37 826.5,-63 891.52,-28.12 1113.82,-18.1 1205.48,-15.42"/>
<polygon fill="midnightblue" stroke="midnightblue" points="1205.84,-18.91 1215.74,-15.13 1205.65,-11.91 1205.84,-18.91"/>
</g>
<!-- Node21&#45;&gt;Node9 -->
<g id="edge54" class="edge">
<title>Node21&#45;&gt;Node9</title>
<path fill="none" stroke="midnightblue" d="M1176.67,-318.62C1295.43,-306.47 1492.88,-284.52 1523.5,-270 1558.77,-253.28 1590.2,-220.86 1610.13,-196.95"/>
<polygon fill="midnightblue" stroke="midnightblue" points="1613.1,-198.85 1616.69,-188.88 1607.67,-194.43 1613.1,-198.85"/>
</g>
<!-- Node21&#45;&gt;Node17 -->
<g id="edge56" class="edge">
<title>Node21&#45;&gt;Node17</title>
<path fill="none" stroke="midnightblue" d="M1000.96,-306.48C900.47,-281.2 729.1,-236.22 584.5,-189 578.9,-187.17 573.03,-185.12 567.28,-183.03"/>
<polygon fill="midnightblue" stroke="midnightblue" points="568.38,-179.7 557.79,-179.5 565.95,-186.26 568.38,-179.7"/>
</g>
<!-- Node22 -->
<g id="node22" class="node">
<title>Node22</title>
<g id="a_node22"><a xlink:href="_i_e_shader_8hpp.html" target="_top" xlink:title=" ">
<polygon fill="white" stroke="black" points="403.5,-225.5 403.5,-269.5 583.5,-269.5 583.5,-225.5 403.5,-225.5"/>
<text text-anchor="start" x="411.5" y="-252.7" font-family="Source Sans Pro" font-size="16.00">GraphicsModule/Shader</text>
<text text-anchor="middle" x="493.5" y="-234.7" font-family="Source Sans Pro" font-size="16.00">/IEShader.hpp</text>
</a>
</g>
</g>
<!-- Node21&#45;&gt;Node22 -->
<g id="edge40" class="edge">
<title>Node21&#45;&gt;Node22</title>
<path fill="none" stroke="midnightblue" d="M996.36,-307.71C993.04,-307.11 989.74,-306.54 986.5,-306 851.29,-283.63 693.81,-266.87 593.91,-257.37"/>
<polygon fill="midnightblue" stroke="midnightblue" points="594.11,-253.88 583.82,-256.42 593.45,-260.84 594.11,-253.88"/>
</g>
<!-- Node22&#45;&gt;Node3 -->
<g id="edge42" class="edge">
<title>Node22&#45;&gt;Node3</title>
<path fill="none" stroke="midnightblue" d="M480.75,-225.48C468.58,-202.42 454.9,-165.8 475.5,-144 491.79,-126.77 1192.45,-98.23 1423.47,-89.28"/>
<polygon fill="midnightblue" stroke="midnightblue" points="1423.93,-92.76 1433.78,-88.88 1423.66,-85.77 1423.93,-92.76"/>
</g>
<!-- Node22&#45;&gt;Node4 -->
<g id="edge44" class="edge">
<title>Node22&#45;&gt;Node4</title>
<path fill="none" stroke="midnightblue" d="M476.41,-225.49C460.11,-202.78 440.84,-166.79 461.5,-144 516.23,-83.61 747.22,-126.91 826.5,-108 880.29,-95.17 889.12,-77.45 942.5,-63 1034.96,-37.97 1147.02,-24.17 1205.53,-18.18"/>
<polygon fill="midnightblue" stroke="midnightblue" points="1206.21,-21.63 1215.81,-17.15 1205.51,-14.66 1206.21,-21.63"/>
</g>
<!-- Node22&#45;&gt;Node10 -->
<g id="edge43" class="edge">
<title>Node22&#45;&gt;Node10</title>
<path fill="none" stroke="midnightblue" d="M442.56,-225.37C427.57,-216.47 412.94,-204.51 404.5,-189 377.76,-139.89 396.68,-71.25 409.45,-36.51"/>
<polygon fill="midnightblue" stroke="midnightblue" points="412.83,-37.46 413.15,-26.87 406.3,-34.95 412.83,-37.46"/>
</g>
<!-- Node22&#45;&gt;Node12 -->
<g id="edge41" class="edge">
<title>Node22&#45;&gt;Node12</title>
<path fill="none" stroke="midnightblue" d="M540.4,-225.33C569.25,-212.3 605.68,-195.86 632.3,-183.84"/>
<polygon fill="midnightblue" stroke="midnightblue" points="633.96,-186.93 641.64,-179.63 631.08,-180.55 633.96,-186.93"/>
</g>
<!-- Node22&#45;&gt;Node16 -->
<g id="edge53" class="edge">
<title>Node22&#45;&gt;Node16</title>
<path fill="none" stroke="midnightblue" d="M583.52,-238.91C689.88,-229.46 872.04,-211.74 1027.5,-189 1042.32,-186.83 1058.14,-184.15 1073.17,-181.42"/>
<polygon fill="midnightblue" stroke="midnightblue" points="1074.24,-184.78 1083.44,-179.53 1072.97,-177.9 1074.24,-184.78"/>
</g>
<!-- Node22&#45;&gt;Node17 -->
<g id="edge45" class="edge">
<title>Node22&#45;&gt;Node17</title>
<path fill="none" stroke="midnightblue" d="M502.61,-225.33C507.43,-214.13 513.34,-200.41 518.19,-189.14"/>
<polygon fill="midnightblue" stroke="midnightblue" points="521.54,-190.2 522.28,-179.63 515.11,-187.43 521.54,-190.2"/>
</g>
<!-- Node23 -->
<g id="node23" class="node">
<title>Node23</title>
<g id="a_node23"><a xlink:href="_i_e_file_8hpp.html" target="_top" xlink:title=" ">
<polygon fill="white" stroke="black" points="90,-63.5 90,-107.5 267,-107.5 267,-63.5 90,-63.5"/>
<text text-anchor="start" x="98" y="-90.7" font-family="Source Sans Pro" font-size="16.00">Core/FileSystemModule</text>
<text text-anchor="middle" x="178.5" y="-72.7" font-family="Source Sans Pro" font-size="16.00">/IEFile.hpp</text>
</a>
</g>
</g>
<!-- Node22&#45;&gt;Node23 -->
<g id="edge46" class="edge">
<title>Node22&#45;&gt;Node23</title>
<path fill="none" stroke="midnightblue" d="M444.86,-225.49C421.04,-214.95 392.06,-201.73 366.5,-189 317.06,-164.37 261.67,-133.8 223.9,-112.48"/>
<polygon fill="midnightblue" stroke="midnightblue" points="225.6,-109.42 215.17,-107.54 222.15,-115.51 225.6,-109.42"/>
</g>
<!-- Node23&#45;&gt;Node4 -->
<g id="edge47" class="edge">
<title>Node23&#45;&gt;Node4</title>
<path fill="none" stroke="midnightblue" d="M267.18,-78.68C487.16,-64.25 1051.3,-27.24 1205.84,-17.1"/>
<polygon fill="midnightblue" stroke="midnightblue" points="1206.09,-20.59 1215.84,-16.45 1205.63,-13.61 1206.09,-20.59"/>
</g>
<!-- Node23&#45;&gt;Node10 -->
<g id="edge48" class="edge">
<title>Node23&#45;&gt;Node10</title>
<path fill="none" stroke="midnightblue" d="M250.51,-63.5C293.49,-50.96 346.3,-35.56 381.1,-25.41"/>
<polygon fill="midnightblue" stroke="midnightblue" points="382.24,-28.72 390.86,-22.56 380.28,-22 382.24,-28.72"/>
</g>
<!-- Node24 -->
<g id="node24" class="node">
<title>Node24</title>
<g id="a_node24"><a xlink:title=" ">
<polygon fill="white" stroke="#bfbfbf" points="0,-0.5 0,-26.5 85,-26.5 85,-0.5 0,-0.5"/>
<text text-anchor="middle" x="42.5" y="-9.7" font-family="Source Sans Pro" font-size="16.00">filesystem</text>
</a>
</g>
</g>
<!-- Node23&#45;&gt;Node24 -->
<g id="edge49" class="edge">
<title>Node23&#45;&gt;Node24</title>
<path fill="none" stroke="midnightblue" d="M137.7,-63.5C117.62,-53.16 93.75,-40.88 74.93,-31.19"/>
<polygon fill="midnightblue" stroke="midnightblue" points="76.37,-28 65.87,-26.53 73.16,-34.22 76.37,-28"/>
</g>
<!-- Node25 -->
<g id="node25" class="node">
<title>Node25</title>
<g id="a_node25"><a xlink:title=" ">
<polygon fill="white" stroke="#bfbfbf" points="103.5,-0.5 103.5,-26.5 171.5,-26.5 171.5,-0.5 103.5,-0.5"/>
<text text-anchor="middle" x="137.5" y="-9.7" font-family="Source Sans Pro" font-size="16.00">fstream</text>
</a>
</g>
</g>
<!-- Node23&#45;&gt;Node25 -->
<g id="edge50" class="edge">
<title>Node23&#45;&gt;Node25</title>
<path fill="none" stroke="midnightblue" d="M166.2,-63.5C160.95,-54.53 154.84,-44.1 149.61,-35.17"/>
<polygon fill="midnightblue" stroke="midnightblue" points="152.62,-33.39 144.55,-26.53 146.58,-36.93 152.62,-33.39"/>
</g>
<!-- Node26 -->
<g id="node26" class="node">
<title>Node26</title>
<g id="a_node26"><a xlink:title=" ">
<polygon fill="white" stroke="#bfbfbf" points="189.5,-0.5 189.5,-26.5 241.5,-26.5 241.5,-0.5 189.5,-0.5"/>
<text text-anchor="middle" x="215.5" y="-9.7" font-family="Source Sans Pro" font-size="16.00">regex</text>
</a>
</g>
</g>
<!-- Node23&#45;&gt;Node26 -->
<g id="edge51" class="edge">
<title>Node23&#45;&gt;Node26</title>
<path fill="none" stroke="midnightblue" d="M189.6,-63.5C194.29,-54.63 199.74,-44.32 204.43,-35.45"/>
<polygon fill="midnightblue" stroke="midnightblue" points="207.56,-37.01 209.14,-26.53 201.37,-33.74 207.56,-37.01"/>
</g>
<!-- Node27 -->
<g id="node27" class="node">
<title>Node27</title>
<g id="a_node27"><a xlink:title=" ">
<polygon fill="white" stroke="#bfbfbf" points="259.5,-0.5 259.5,-26.5 335.5,-26.5 335.5,-0.5 259.5,-0.5"/>
<text text-anchor="middle" x="297.5" y="-9.7" font-family="Source Sans Pro" font-size="16.00">iostream</text>
</a>
</g>
</g>
<!-- Node23&#45;&gt;Node27 -->
<g id="edge52" class="edge">
<title>Node23&#45;&gt;Node27</title>
<path fill="none" stroke="midnightblue" d="M214.2,-63.5C231.37,-53.4 251.71,-41.44 267.99,-31.86"/>
<polygon fill="midnightblue" stroke="midnightblue" points="270.2,-34.62 277.05,-26.53 266.65,-28.58 270.2,-34.62"/>
</g>
<!-- Node28&#45;&gt;Node3 -->
<g id="edge61" class="edge">
<title>Node28&#45;&gt;Node3</title>
<path fill="none" stroke="midnightblue" d="M1835.33,-388.51C1742.84,-372.02 1626.72,-351.26 1626.5,-351 1613.67,-335.66 1615.32,-322.58 1626.5,-306 1650.35,-270.62 1681.07,-295.21 1715.5,-270 1766.67,-232.53 1822.69,-193.07 1782.5,-144 1756.07,-111.72 1645.2,-97.18 1569.53,-90.91"/>
<polygon fill="midnightblue" stroke="midnightblue" points="1569.34,-87.38 1559.1,-90.08 1568.79,-94.36 1569.34,-87.38"/>
</g>
<!-- Node28&#45;&gt;Node4 -->
<g id="edge59" class="edge">
<title>Node28&#45;&gt;Node4</title>
<path fill="none" stroke="midnightblue" d="M2059.77,-388.89C2104.48,-379.08 2149.18,-366.07 2165.5,-351 2200.98,-318.25 2201.5,-296.78 2201.5,-248.5 2201.5,-248.5 2201.5,-248.5 2201.5,-165.5 2201.5,-110.83 2180.95,-90.15 2133.5,-63 2059.25,-20.51 1447.98,-15.24 1285.2,-14.59"/>
<polygon fill="midnightblue" stroke="midnightblue" points="1285.15,-11.09 1275.13,-14.55 1285.12,-18.09 1285.15,-11.09"/>
</g>
<!-- Node28&#45;&gt;Node11 -->
<g id="edge60" class="edge">
<title>Node28&#45;&gt;Node11</title>
<path fill="none" stroke="midnightblue" d="M2057.45,-387.45C2094.17,-378.02 2128.57,-365.69 2139.5,-351 2194.44,-277.2 2172.56,-229.85 2139.5,-144 2133.74,-129.04 2122.08,-115.56 2111.27,-105.41"/>
<polygon fill="midnightblue" stroke="midnightblue" points="2113.44,-102.66 2103.63,-98.64 2108.79,-107.9 2113.44,-102.66"/>
</g>
<!-- Node29 -->
<g id="node29" class="node">
<title>Node29</title>
<g id="a_node29"><a xlink:href="_i_e_buffer_memory_barrier_8hpp.html" target="_top" xlink:title=" ">
<polygon fill="white" stroke="black" points="1856,-315.5 1856,-341.5 2059,-341.5 2059,-315.5 1856,-315.5"/>
<text text-anchor="middle" x="1957.5" y="-324.7" font-family="Source Sans Pro" font-size="16.00">IEBufferMemoryBarrier.hpp</text>
</a>
</g>
</g>
<!-- Node28&#45;&gt;Node29 -->
<g id="edge62" class="edge">
<title>Node28&#45;&gt;Node29</title>
<path fill="none" stroke="midnightblue" d="M1950.18,-387.33C1951.57,-376.36 1953.26,-362.97 1954.67,-351.83"/>
<polygon fill="midnightblue" stroke="midnightblue" points="1958.18,-351.99 1955.96,-341.63 1951.24,-351.11 1958.18,-351.99"/>
</g>
<!-- Node30 -->
<g id="node30" class="node">
<title>Node30</title>
<g id="a_node30"><a xlink:href="_i_e_image_memory_barrier_8hpp.html" target="_top" xlink:title=" ">
<polygon fill="white" stroke="black" points="1635,-315.5 1635,-341.5 1838,-341.5 1838,-315.5 1635,-315.5"/>
<text text-anchor="middle" x="1736.5" y="-324.7" font-family="Source Sans Pro" font-size="16.00">IEImageMemoryBarrier.hpp</text>
</a>
</g>
</g>
<!-- Node28&#45;&gt;Node30 -->
<g id="edge66" class="edge">
<title>Node28&#45;&gt;Node30</title>
<path fill="none" stroke="midnightblue" d="M1891.23,-387.43C1855.72,-374.14 1810.61,-357.25 1778.27,-345.14"/>
<polygon fill="midnightblue" stroke="midnightblue" points="1779.27,-341.77 1768.67,-341.55 1776.81,-348.33 1779.27,-341.77"/>
</g>
<!-- Node29&#45;&gt;Node3 -->
<g id="edge63" class="edge">
<title>Node29&#45;&gt;Node3</title>
<path fill="none" stroke="midnightblue" d="M1954.98,-315.16C1947.4,-281.48 1921.48,-187.59 1860.5,-144 1814.97,-111.46 1661.68,-96.54 1569.18,-90.36"/>
<polygon fill="midnightblue" stroke="midnightblue" points="1569.24,-86.85 1559.04,-89.7 1568.79,-93.84 1569.24,-86.85"/>
</g>
<!-- Node29&#45;&gt;Node8 -->
<g id="edge65" class="edge">
<title>Node29&#45;&gt;Node8</title>
<path fill="none" stroke="midnightblue" d="M1899.09,-315.49C1882.45,-312.23 1864.29,-308.83 1847.5,-306 1736.31,-287.27 1607.28,-269.71 1525.06,-259.04"/>
<polygon fill="midnightblue" stroke="midnightblue" points="1525.39,-255.55 1515.02,-257.74 1524.49,-262.49 1525.39,-255.55"/>
</g>
<!-- Node29&#45;&gt;Node11 -->
<g id="edge64" class="edge">
<title>Node29&#45;&gt;Node11</title>
<path fill="none" stroke="midnightblue" d="M1975.87,-315.35C1990.75,-304.76 2011.49,-288.29 2025.5,-270 2063.49,-220.41 2079,-146.15 2084.64,-109.15"/>
<polygon fill="midnightblue" stroke="midnightblue" points="2088.15,-109.32 2086.09,-98.93 2081.22,-108.34 2088.15,-109.32"/>
</g>
<!-- Node30&#45;&gt;Node3 -->
<g id="edge68" class="edge">
<title>Node30&#45;&gt;Node3</title>
<path fill="none" stroke="midnightblue" d="M1775.98,-315.49C1797.67,-306.65 1822.71,-292.22 1835.5,-270 1863.44,-221.47 1871.64,-186.78 1835.5,-144 1802.12,-104.48 1658.55,-92.12 1569.29,-88.25"/>
<polygon fill="midnightblue" stroke="midnightblue" points="1569.36,-84.75 1559.23,-87.84 1569.08,-91.75 1569.36,-84.75"/>
</g>
<!-- Node30&#45;&gt;Node11 -->
<g id="edge67" class="edge">
<title>Node30&#45;&gt;Node11</title>
<path fill="none" stroke="midnightblue" d="M1767.64,-315.39C1793.16,-304.9 1829.8,-288.52 1859.5,-270 1942.02,-218.55 2028.59,-141.47 2067.03,-105.84"/>
<polygon fill="midnightblue" stroke="midnightblue" points="2069.56,-108.26 2074.48,-98.89 2064.78,-103.15 2069.56,-108.26"/>
</g>
<!-- Node30&#45;&gt;Node18 -->
<g id="edge69" class="edge">
<title>Node30&#45;&gt;Node18</title>
<path fill="none" stroke="midnightblue" d="M1656.79,-315.45C1634.1,-312.19 1609.35,-308.79 1586.5,-306 1415.79,-285.12 1215.49,-266.08 1104.49,-256.02"/>
<polygon fill="midnightblue" stroke="midnightblue" points="1104.64,-252.51 1094.36,-255.1 1104.01,-259.49 1104.64,-252.51"/>
</g>
<!-- Node31&#45;&gt;Node3 -->
<g id="edge72" class="edge">
<title>Node31&#45;&gt;Node3</title>
<path fill="none" stroke="midnightblue" d="M1573.64,-306.39C1642.96,-287.88 1722.1,-253.31 1764.5,-189 1813.31,-114.96 1664.65,-94.33 1569.55,-88.63"/>
<polygon fill="midnightblue" stroke="midnightblue" points="1569.56,-85.12 1559.38,-88.06 1569.17,-92.11 1569.56,-85.12"/>
</g>
<!-- Node31&#45;&gt;Node8 -->
<g id="edge73" class="edge">
<title>Node31&#45;&gt;Node8</title>
<path fill="none" stroke="midnightblue" d="M1441.5,-306.33C1441.5,-295.36 1441.5,-281.97 1441.5,-270.83"/>
<polygon fill="midnightblue" stroke="midnightblue" points="1445,-270.63 1441.5,-260.63 1438,-270.63 1445,-270.63"/>
</g>
<!-- Node31&#45;&gt;Node11 -->
<g id="edge71" class="edge">
<title>Node31&#45;&gt;Node11</title>
<path fill="none" stroke="midnightblue" d="M1575.03,-306.48C1620.29,-297.52 1670.71,-285.49 1715.5,-270 1834.97,-228.69 1857.11,-199.88 1970.5,-144 1998.51,-130.2 2030.32,-114.57 2053.69,-103.09"/>
<polygon fill="midnightblue" stroke="midnightblue" points="2055.41,-106.15 2062.84,-98.6 2052.32,-99.86 2055.41,-106.15"/>
</g>
<!-- Node31&#45;&gt;Node18 -->
<g id="edge74" class="edge">
<title>Node31&#45;&gt;Node18</title>
<path fill="none" stroke="midnightblue" d="M1329.24,-306.49C1254.73,-292.54 1159,-274.61 1093.82,-262.41"/>
<polygon fill="midnightblue" stroke="midnightblue" points="1094.1,-258.9 1083.63,-260.51 1092.81,-265.79 1094.1,-258.9"/>
</g>
<!-- Node32&#45;&gt;Node11 -->
<g id="edge76" class="edge">
<title>Node32&#45;&gt;Node11</title>
<path fill="none" stroke="midnightblue" d="M1817.84,-388.33C1820.75,-387.88 1823.64,-387.44 1826.5,-387 1880.25,-378.79 2030.89,-390.26 2068.5,-351 2132.58,-284.09 2107.66,-158.94 2094.06,-108.45"/>
<polygon fill="midnightblue" stroke="midnightblue" points="2097.37,-107.27 2091.29,-98.59 2090.63,-109.17 2097.37,-107.27"/>
</g>
<!-- Node33 -->
<g id="node33" class="node">
<title>Node33</title>
<g id="a_node33"><a xlink:href="_i_e_framebuffer_8hpp.html" target="_top" xlink:title=" ">
<polygon fill="white" stroke="black" points="767,-306.5 767,-350.5 978,-350.5 978,-306.5 767,-306.5"/>
<text text-anchor="start" x="775" y="-333.7" font-family="Source Sans Pro" font-size="16.00">GraphicsModule/RenderPass</text>
<text text-anchor="middle" x="872.5" y="-315.7" font-family="Source Sans Pro" font-size="16.00">/IEFramebuffer.hpp</text>
</a>
</g>
</g>
<!-- Node32&#45;&gt;Node33 -->
<g id="edge77" class="edge">
<title>Node32&#45;&gt;Node33</title>
<path fill="none" stroke="midnightblue" d="M1561.26,-392.03C1545.19,-390.2 1528.98,-388.47 1513.5,-387 1283.53,-365.1 1221.69,-380.14 988.19,-351"/>
<polygon fill="midnightblue" stroke="midnightblue" points="988.38,-347.5 978.02,-349.72 987.5,-354.45 988.38,-347.5"/>
</g>
<!-- Node33&#45;&gt;Node3 -->
<g id="edge79" class="edge">
<title>Node33&#45;&gt;Node3</title>
<path fill="none" stroke="midnightblue" d="M866.48,-306.44C856.99,-268.25 843.74,-187.53 886.5,-144 923.48,-106.35 1269.66,-92.52 1423.46,-88.2"/>
<polygon fill="midnightblue" stroke="midnightblue" points="1423.85,-91.69 1433.75,-87.92 1423.66,-84.7 1423.85,-91.69"/>
</g>
<!-- Node33&#45;&gt;Node4 -->
<g id="edge81" class="edge">
<title>Node33&#45;&gt;Node4</title>
<path fill="none" stroke="midnightblue" d="M766.99,-322.43C630.88,-314.79 408.53,-298.15 383.5,-270 361.93,-245.75 394.98,-151.62 403.5,-144 449.62,-102.79 619.74,-123.94 679.5,-108 730.14,-94.5 737.7,-75.9 788.5,-63 939.29,-24.72 1125.51,-16.61 1205.7,-14.93"/>
<polygon fill="midnightblue" stroke="midnightblue" points="1205.92,-18.42 1215.85,-14.74 1205.79,-11.43 1205.92,-18.42"/>
</g>
<!-- Node33&#45;&gt;Node10 -->
<g id="edge80" class="edge">
<title>Node33&#45;&gt;Node10</title>
<path fill="none" stroke="midnightblue" d="M766.98,-322.73C628.05,-315.35 398.27,-298.9 372.5,-270 351.37,-246.3 335.35,-220.13 388.5,-63 391.81,-53.22 397.4,-43.36 402.86,-35.11"/>
<polygon fill="midnightblue" stroke="midnightblue" points="405.77,-37.06 408.63,-26.86 400.03,-33.05 405.77,-37.06"/>
</g>
<!-- Node33&#45;&gt;Node18 -->
<g id="edge78" class="edge">
<title>Node33&#45;&gt;Node18</title>
<path fill="none" stroke="midnightblue" d="M911.89,-306.33C935.71,-293.53 965.66,-277.44 987.91,-265.48"/>
<polygon fill="midnightblue" stroke="midnightblue" points="989.78,-268.44 996.93,-260.63 986.47,-262.28 989.78,-268.44"/>
</g>
</g>
</svg>
