<?xml version="1.0" encoding="UTF-8" standalone="no"?>
<!DOCTYPE svg PUBLIC "-//W3C//DTD SVG 1.1//EN"
 "http://www.w3.org/Graphics/SVG/1.1/DTD/svg11.dtd">
<!-- Generated by graphviz version 2.43.0 (0)
 -->
<!-- Title: Illumination&#45;Engine/src/GraphicsModule/Shader/IEShader.hpp Pages: 1 -->
<svg width="903pt" height="296pt"
 viewBox="0.00 0.00 903.00 296.00" xmlns="http://www.w3.org/2000/svg" xmlns:xlink="http://www.w3.org/1999/xlink">
<g id="graph0" class="graph" transform="scale(1 1) rotate(0) translate(4 292)">
<title>Illumination&#45;Engine/src/GraphicsModule/Shader/IEShader.hpp</title>
<polygon fill="white" stroke="transparent" points="-4,4 -4,-292 899,-292 899,4 -4,4"/>
<!-- Node1 -->
<g id="node1" class="node">
<title>Node1</title>
<g id="a_node1"><a xlink:title=" ">
<polygon fill="#bfbfbf" stroke="black" points="276,-225.5 276,-287.5 442,-287.5 442,-225.5 276,-225.5"/>
<text text-anchor="start" x="284" y="-270.7" font-family="Source Sans Pro" font-size="16.00">Illumination&#45;Engine</text>
<text text-anchor="start" x="284" y="-252.7" font-family="Source Sans Pro" font-size="16.00">/src/GraphicsModule</text>
<text text-anchor="middle" x="359" y="-234.7" font-family="Source Sans Pro" font-size="16.00">/Shader/IEShader.hpp</text>
</a>
</g>
</g>
<!-- Node2 -->
<g id="node2" class="node">
<title>Node2</title>
<g id="a_node2"><a xlink:href="_i_e_a_p_i_8hpp.html" target="_top" xlink:title=" ">
<polygon fill="white" stroke="black" points="64.5,-153.5 64.5,-179.5 147.5,-179.5 147.5,-153.5 64.5,-153.5"/>
<text text-anchor="middle" x="106" y="-162.7" font-family="Source Sans Pro" font-size="16.00">IEAPI.hpp</text>
</a>
</g>
</g>
<!-- Node1&#45;&gt;Node2 -->
<g id="edge1" class="edge">
<title>Node1&#45;&gt;Node2</title>
<path fill="none" stroke="midnightblue" d="M275.83,-228.26C240.6,-216.51 199.18,-202.41 162,-189 156.86,-187.15 151.47,-185.15 146.15,-183.14"/>
<polygon fill="midnightblue" stroke="midnightblue" points="147.32,-179.84 136.72,-179.56 144.83,-186.38 147.32,-179.84"/>
</g>
<!-- Node5 -->
<g id="node5" class="node">
<title>Node5</title>
<g id="a_node5"><a xlink:title=" ">
<polygon fill="white" stroke="#bfbfbf" points="203.5,-9.5 203.5,-35.5 258.5,-35.5 258.5,-9.5 203.5,-9.5"/>
<text text-anchor="middle" x="231" y="-18.7" font-family="Source Sans Pro" font-size="16.00">string</text>
</a>
</g>
</g>
<!-- Node1&#45;&gt;Node5 -->
<g id="edge8" class="edge">
<title>Node1&#45;&gt;Node5</title>
<path fill="none" stroke="midnightblue" d="M298.49,-225.38C284.21,-215.61 270.42,-203.48 261,-189 232.09,-144.58 229.09,-79.97 229.8,-46.11"/>
<polygon fill="midnightblue" stroke="midnightblue" points="233.3,-46 230.15,-35.89 226.31,-45.76 233.3,-46"/>
</g>
<!-- Node6 -->
<g id="node6" class="node">
<title>Node6</title>
<g id="a_node6"><a xlink:title=" ">
<polygon fill="white" stroke="#bfbfbf" points="126.5,-9.5 126.5,-35.5 185.5,-35.5 185.5,-9.5 126.5,-9.5"/>
<text text-anchor="middle" x="156" y="-18.7" font-family="Source Sans Pro" font-size="16.00">vector</text>
</a>
</g>
</g>
<!-- Node1&#45;&gt;Node6 -->
<g id="edge9" class="edge">
<title>Node1&#45;&gt;Node6</title>
<path fill="none" stroke="midnightblue" d="M306.34,-225.48C290.71,-215.12 274.24,-202.65 261,-189 217.64,-144.28 182.6,-78.89 166.15,-45.26"/>
<polygon fill="midnightblue" stroke="midnightblue" points="169.14,-43.4 161.66,-35.9 162.83,-46.43 169.14,-43.4"/>
</g>
<!-- Node7 -->
<g id="node7" class="node">
<title>Node7</title>
<g id="a_node7"><a xlink:title=" ">
<polygon fill="white" stroke="#bfbfbf" points="465.5,-153.5 465.5,-179.5 590.5,-179.5 590.5,-153.5 465.5,-153.5"/>
<text text-anchor="middle" x="528" y="-162.7" font-family="Source Sans Pro" font-size="16.00">vulkan/vulkan.h</text>
</a>
</g>
</g>
<!-- Node1&#45;&gt;Node7 -->
<g id="edge7" class="edge">
<title>Node1&#45;&gt;Node7</title>
<path fill="none" stroke="midnightblue" d="M416.69,-225.46C443.13,-211.69 473.47,-195.89 495.8,-184.27"/>
<polygon fill="midnightblue" stroke="midnightblue" points="497.58,-187.28 504.84,-179.56 494.35,-181.08 497.58,-187.28"/>
</g>
<!-- Node8 -->
<g id="node8" class="node">
<title>Node8</title>
<g id="a_node8"><a xlink:title=" ">
<polygon fill="white" stroke="#bfbfbf" points="609,-153.5 609,-179.5 695,-179.5 695,-153.5 609,-153.5"/>
<text text-anchor="middle" x="652" y="-162.7" font-family="Source Sans Pro" font-size="16.00">functional</text>
</a>
</g>
</g>
<!-- Node1&#45;&gt;Node8 -->
<g id="edge10" class="edge">
<title>Node1&#45;&gt;Node8</title>
<path fill="none" stroke="midnightblue" d="M442.19,-234.97C488.71,-222.86 547.53,-206.51 599,-189 603.98,-187.3 609.18,-185.39 614.28,-183.42"/>
<polygon fill="midnightblue" stroke="midnightblue" points="615.89,-186.54 623.9,-179.6 613.31,-180.04 615.89,-186.54"/>
</g>
<!-- Node9 -->
<g id="node9" class="node">
<title>Node9</title>
<g id="a_node9"><a xlink:href="_i_e_file_8hpp.html" target="_top" xlink:title=" ">
<polygon fill="white" stroke="black" points="270.5,-144.5 270.5,-188.5 447.5,-188.5 447.5,-144.5 270.5,-144.5"/>
<text text-anchor="start" x="278.5" y="-171.7" font-family="Source Sans Pro" font-size="16.00">Core/FileSystemModule</text>
<text text-anchor="middle" x="359" y="-153.7" font-family="Source Sans Pro" font-size="16.00">/IEFile.hpp</text>
</a>
</g>
</g>
<!-- Node1&#45;&gt;Node9 -->
<g id="edge11" class="edge">
<title>Node1&#45;&gt;Node9</title>
<path fill="none" stroke="midnightblue" d="M359,-225.22C359,-216.66 359,-207.34 359,-198.73"/>
<polygon fill="midnightblue" stroke="midnightblue" points="362.5,-198.68 359,-188.68 355.5,-198.68 362.5,-198.68"/>
</g>
<!-- Node17 -->
<g id="node17" class="node">
<title>Node17</title>
<g id="a_node17"><a xlink:title=" ">
<polygon fill="white" stroke="#bfbfbf" points="713.5,-153.5 713.5,-179.5 796.5,-179.5 796.5,-153.5 713.5,-153.5"/>
<text text-anchor="middle" x="755" y="-162.7" font-family="Source Sans Pro" font-size="16.00">GL/glew.h</text>
</a>
</g>
</g>
<!-- Node1&#45;&gt;Node17 -->
<g id="edge22" class="edge">
<title>Node1&#45;&gt;Node17</title>
<path fill="none" stroke="midnightblue" d="M442.08,-244.46C512.7,-233.9 616.3,-215.62 704,-189 709.29,-187.4 714.77,-185.43 720.1,-183.34"/>
<polygon fill="midnightblue" stroke="midnightblue" points="721.52,-186.54 729.44,-179.5 718.86,-180.06 721.52,-186.54"/>
</g>
<!-- Node3 -->
<g id="node3" class="node">
<title>Node3</title>
<g id="a_node3"><a xlink:href="_i_e_version_8hpp.html" target="_top" xlink:title=" ">
<polygon fill="white" stroke="black" points="0,-81.5 0,-107.5 110,-107.5 110,-81.5 0,-81.5"/>
<text text-anchor="middle" x="55" y="-90.7" font-family="Source Sans Pro" font-size="16.00">IEVersion.hpp</text>
</a>
</g>
</g>
<!-- Node2&#45;&gt;Node3 -->
<g id="edge2" class="edge">
<title>Node2&#45;&gt;Node3</title>
<path fill="none" stroke="midnightblue" d="M97.12,-153.31C89.58,-142.97 78.63,-127.93 69.77,-115.78"/>
<polygon fill="midnightblue" stroke="midnightblue" points="72.5,-113.57 63.78,-107.55 66.84,-117.7 72.5,-113.57"/>
</g>
<!-- Node2&#45;&gt;Node5 -->
<g id="edge6" class="edge">
<title>Node2&#45;&gt;Node5</title>
<path fill="none" stroke="midnightblue" d="M112.61,-153.24C122.19,-136.07 141.09,-104.33 162,-81 175.1,-66.38 192,-52.24 205.79,-41.64"/>
<polygon fill="midnightblue" stroke="midnightblue" points="208.04,-44.33 213.92,-35.52 203.83,-38.74 208.04,-44.33"/>
</g>
<!-- Node4 -->
<g id="node4" class="node">
<title>Node4</title>
<g id="a_node4"><a xlink:title=" ">
<polygon fill="white" stroke="#bfbfbf" points="23.5,-9.5 23.5,-35.5 86.5,-35.5 86.5,-9.5 23.5,-9.5"/>
<text text-anchor="middle" x="55" y="-18.7" font-family="Source Sans Pro" font-size="16.00">cstdint</text>
</a>
</g>
</g>
<!-- Node3&#45;&gt;Node4 -->
<g id="edge3" class="edge">
<title>Node3&#45;&gt;Node4</title>
<path fill="none" stroke="midnightblue" d="M55,-81.31C55,-71.47 55,-57.38 55,-45.57"/>
<polygon fill="midnightblue" stroke="midnightblue" points="58.5,-45.55 55,-35.55 51.5,-45.55 58.5,-45.55"/>
</g>
<!-- Node3&#45;&gt;Node5 -->
<g id="edge4" class="edge">
<title>Node3&#45;&gt;Node5</title>
<path fill="none" stroke="midnightblue" d="M95.95,-81.48C124.07,-72.68 161.96,-59.74 194,-45 196.97,-43.63 200.01,-42.1 203.01,-40.5"/>
<polygon fill="midnightblue" stroke="midnightblue" points="204.77,-43.53 211.78,-35.6 201.35,-37.42 204.77,-43.53"/>
</g>
<!-- Node3&#45;&gt;Node6 -->
<g id="edge5" class="edge">
<title>Node3&#45;&gt;Node6</title>
<path fill="none" stroke="midnightblue" d="M72.59,-81.31C88.52,-70.27 112.19,-53.86 130.25,-41.34"/>
<polygon fill="midnightblue" stroke="midnightblue" points="132.38,-44.13 138.61,-35.55 128.4,-38.37 132.38,-44.13"/>
</g>
<!-- Node9&#45;&gt;Node5 -->
<g id="edge17" class="edge">
<title>Node9&#45;&gt;Node5</title>
<path fill="none" stroke="midnightblue" d="M316.86,-144.43C300.99,-134.95 283.71,-122.58 271,-108 254.95,-89.59 243.95,-63.63 237.61,-45.36"/>
<polygon fill="midnightblue" stroke="midnightblue" points="240.85,-44.01 234.41,-35.6 234.2,-46.19 240.85,-44.01"/>
</g>
<!-- Node9&#45;&gt;Node6 -->
<g id="edge16" class="edge">
<title>Node9&#45;&gt;Node6</title>
<path fill="none" stroke="midnightblue" d="M399.18,-144.36C426.25,-127.41 453.87,-102.9 435,-81 399.65,-39.98 245.2,-62.63 194,-45 190.42,-43.77 186.79,-42.2 183.27,-40.47"/>
<polygon fill="midnightblue" stroke="midnightblue" points="184.76,-37.3 174.3,-35.65 181.45,-43.46 184.76,-37.3"/>
</g>
<!-- Node10 -->
<g id="node10" class="node">
<title>Node10</title>
<g id="a_node10"><a xlink:href="_i_e_logger_8hpp.html" target="_top" xlink:title=" ">
<polygon fill="white" stroke="black" points="585.5,-81.5 585.5,-107.5 808.5,-107.5 808.5,-81.5 585.5,-81.5"/>
<text text-anchor="middle" x="697" y="-90.7" font-family="Source Sans Pro" font-size="16.00">Core/LogModule/IELogger.hpp</text>
</a>
</g>
</g>
<!-- Node9&#45;&gt;Node10 -->
<g id="edge12" class="edge">
<title>Node9&#45;&gt;Node10</title>
<path fill="none" stroke="midnightblue" d="M447.53,-145.8C450.39,-145.19 453.22,-144.59 456,-144 512.92,-131.97 577.54,-119 625.54,-109.5"/>
<polygon fill="midnightblue" stroke="midnightblue" points="626.39,-112.9 635.52,-107.53 625.03,-106.03 626.39,-112.9"/>
</g>
<!-- Node13 -->
<g id="node13" class="node">
<title>Node13</title>
<g id="a_node13"><a xlink:title=" ">
<polygon fill="white" stroke="#bfbfbf" points="482.5,-81.5 482.5,-107.5 567.5,-107.5 567.5,-81.5 482.5,-81.5"/>
<text text-anchor="middle" x="525" y="-90.7" font-family="Source Sans Pro" font-size="16.00">filesystem</text>
</a>
</g>
</g>
<!-- Node9&#45;&gt;Node13 -->
<g id="edge18" class="edge">
<title>Node9&#45;&gt;Node13</title>
<path fill="none" stroke="midnightblue" d="M408.81,-144.5C433.87,-133.93 463.78,-121.32 486.97,-111.54"/>
<polygon fill="midnightblue" stroke="midnightblue" points="488.62,-114.64 496.47,-107.53 485.9,-108.19 488.62,-114.64"/>
</g>
<!-- Node14 -->
<g id="node14" class="node">
<title>Node14</title>
<g id="a_node14"><a xlink:title=" ">
<polygon fill="white" stroke="#bfbfbf" points="827,-81.5 827,-107.5 895,-107.5 895,-81.5 827,-81.5"/>
<text text-anchor="middle" x="861" y="-90.7" font-family="Source Sans Pro" font-size="16.00">fstream</text>
</a>
</g>
</g>
<!-- Node9&#45;&gt;Node14 -->
<g id="edge19" class="edge">
<title>Node9&#45;&gt;Node14</title>
<path fill="none" stroke="midnightblue" d="M447.73,-145.39C450.51,-144.9 453.27,-144.44 456,-144 611.95,-119.03 656.78,-137.36 816.37,-107.83"/>
<polygon fill="midnightblue" stroke="midnightblue" points="817.37,-111.2 826.55,-105.91 816.08,-104.32 817.37,-111.2"/>
</g>
<!-- Node15 -->
<g id="node15" class="node">
<title>Node15</title>
<g id="a_node15"><a xlink:title=" ">
<polygon fill="white" stroke="#bfbfbf" points="280,-81.5 280,-107.5 332,-107.5 332,-81.5 280,-81.5"/>
<text text-anchor="middle" x="306" y="-90.7" font-family="Source Sans Pro" font-size="16.00">regex</text>
</a>
</g>
</g>
<!-- Node9&#45;&gt;Node15 -->
<g id="edge20" class="edge">
<title>Node9&#45;&gt;Node15</title>
<path fill="none" stroke="midnightblue" d="M343.1,-144.5C336.17,-135.34 328.08,-124.66 321.22,-115.61"/>
<polygon fill="midnightblue" stroke="midnightblue" points="323.94,-113.39 315.11,-107.53 318.36,-117.62 323.94,-113.39"/>
</g>
<!-- Node16 -->
<g id="node16" class="node">
<title>Node16</title>
<g id="a_node16"><a xlink:title=" ">
<polygon fill="white" stroke="#bfbfbf" points="350,-81.5 350,-107.5 426,-107.5 426,-81.5 350,-81.5"/>
<text text-anchor="middle" x="388" y="-90.7" font-family="Source Sans Pro" font-size="16.00">iostream</text>
</a>
</g>
</g>
<!-- Node9&#45;&gt;Node16 -->
<g id="edge21" class="edge">
<title>Node9&#45;&gt;Node16</title>
<path fill="none" stroke="midnightblue" d="M367.7,-144.5C371.3,-135.81 375.47,-125.75 379.09,-117.02"/>
<polygon fill="midnightblue" stroke="midnightblue" points="382.42,-118.11 383.02,-107.53 375.95,-115.43 382.42,-118.11"/>
</g>
<!-- Node10&#45;&gt;Node5 -->
<g id="edge15" class="edge">
<title>Node10&#45;&gt;Node5</title>
<path fill="none" stroke="midnightblue" d="M616.89,-81.47C515.24,-66.2 344.08,-40.49 268.64,-29.15"/>
<polygon fill="midnightblue" stroke="midnightblue" points="269.05,-25.68 258.65,-27.65 268.01,-32.6 269.05,-25.68"/>
</g>
<!-- Node11 -->
<g id="node11" class="node">
<title>Node11</title>
<g id="a_node11"><a xlink:title=" ">
<polygon fill="white" stroke="#bfbfbf" points="709.5,-9.5 709.5,-35.5 836.5,-35.5 836.5,-9.5 709.5,-9.5"/>
<text text-anchor="middle" x="773" y="-18.7" font-family="Source Sans Pro" font-size="16.00">spdlog/spdlog.h</text>
</a>
</g>
</g>
<!-- Node10&#45;&gt;Node11 -->
<g id="edge13" class="edge">
<title>Node10&#45;&gt;Node11</title>
<path fill="none" stroke="midnightblue" d="M710.24,-81.31C721.9,-70.57 739.07,-54.75 752.5,-42.38"/>
<polygon fill="midnightblue" stroke="midnightblue" points="754.93,-44.9 759.91,-35.55 750.19,-39.75 754.93,-44.9"/>
</g>
<!-- Node12 -->
<g id="node12" class="node">
<title>Node12</title>
<g id="a_node12"><a xlink:title=" ">
<polygon fill="white" stroke="#bfbfbf" points="548.5,-0.5 548.5,-44.5 691.5,-44.5 691.5,-0.5 548.5,-0.5"/>
<text text-anchor="start" x="556.5" y="-27.7" font-family="Source Sans Pro" font-size="16.00">spdlog/sinks/basic</text>
<text text-anchor="middle" x="620" y="-9.7" font-family="Source Sans Pro" font-size="16.00">_file_sink.h</text>
</a>
</g>
</g>
<!-- Node10&#45;&gt;Node12 -->
<g id="edge14" class="edge">
<title>Node10&#45;&gt;Node12</title>
<path fill="none" stroke="midnightblue" d="M683.59,-81.31C674.56,-73.1 662.26,-61.92 650.89,-51.58"/>
<polygon fill="midnightblue" stroke="midnightblue" points="652.97,-48.74 643.21,-44.6 648.26,-53.92 652.97,-48.74"/>
</g>
</g>
</svg>
