<?xml version="1.0" encoding="UTF-8" standalone="no"?>
<!DOCTYPE svg PUBLIC "-//W3C//DTD SVG 1.1//EN"
 "http://www.w3.org/Graphics/SVG/1.1/DTD/svg11.dtd">
<!-- Generated by graphviz version 2.43.0 (0)
 -->
<!-- Title: Illumination&#45;Engine/src/GraphicsModule/CommandBuffer/DependencyStructs/IECopyBufferToImageInfo.cpp Pages: 1 -->
<svg width="1305pt" height="422pt"
 viewBox="0.00 0.00 1305.00 422.00" xmlns="http://www.w3.org/2000/svg" xmlns:xlink="http://www.w3.org/1999/xlink">
<g id="graph0" class="graph" transform="scale(1 1) rotate(0) translate(4 418)">
<title>Illumination&#45;Engine/src/GraphicsModule/CommandBuffer/DependencyStructs/IECopyBufferToImageInfo.cpp</title>
<polygon fill="white" stroke="transparent" points="-4,4 -4,-418 1301,-418 1301,4 -4,4"/>
<!-- Node1 -->
<g id="node1" class="node">
<title>Node1</title>
<g id="a_node1"><a xlink:title=" ">
<polygon fill="#bfbfbf" stroke="black" points="0,-333.5 0,-413.5 272,-413.5 272,-333.5 0,-333.5"/>
<text text-anchor="start" x="8" y="-396.7" font-family="Source Sans Pro" font-size="16.00">Illumination&#45;Engine</text>
<text text-anchor="start" x="8" y="-378.7" font-family="Source Sans Pro" font-size="16.00">/src/GraphicsModule</text>
<text text-anchor="start" x="8" y="-360.7" font-family="Source Sans Pro" font-size="16.00">/CommandBuffer/DependencyStructs</text>
<text text-anchor="middle" x="136" y="-342.7" font-family="Source Sans Pro" font-size="16.00">/IECopyBufferToImageInfo.cpp</text>
</a>
</g>
</g>
<!-- Node2 -->
<g id="node2" class="node">
<title>Node2</title>
<g id="a_node2"><a xlink:href="_i_e_copy_buffer_to_image_info_8hpp.html" target="_top" xlink:title=" ">
<polygon fill="white" stroke="black" points="200.5,-270.5 200.5,-296.5 421.5,-296.5 421.5,-270.5 200.5,-270.5"/>
<text text-anchor="middle" x="311" y="-279.7" font-family="Source Sans Pro" font-size="16.00">IECopyBufferToImageInfo.hpp</text>
</a>
</g>
</g>
<!-- Node1&#45;&gt;Node2 -->
<g id="edge1" class="edge">
<title>Node1&#45;&gt;Node2</title>
<path fill="none" stroke="midnightblue" d="M213.78,-333.39C236.32,-322.05 259.73,-310.28 277.94,-301.13"/>
<polygon fill="midnightblue" stroke="midnightblue" points="279.59,-304.21 286.95,-296.6 276.44,-297.96 279.59,-304.21"/>
</g>
<!-- Node7 -->
<g id="node7" class="node">
<title>Node7</title>
<g id="a_node7"><a xlink:title=" ">
<polygon fill="white" stroke="#bfbfbf" points="576.5,-0.5 576.5,-26.5 635.5,-26.5 635.5,-0.5 576.5,-0.5"/>
<text text-anchor="middle" x="606" y="-9.7" font-family="Source Sans Pro" font-size="16.00">vector</text>
</a>
</g>
</g>
<!-- Node1&#45;&gt;Node7 -->
<g id="edge33" class="edge">
<title>Node1&#45;&gt;Node7</title>
<path fill="none" stroke="midnightblue" d="M85.7,-333.24C56.33,-305.6 25,-265.75 25,-221.5 25,-221.5 25,-221.5 25,-147.5 25,-105.76 31.65,-86.72 66,-63 106.93,-34.74 448.4,-20.08 566.22,-15.83"/>
<polygon fill="midnightblue" stroke="midnightblue" points="566.39,-19.33 576.26,-15.47 566.14,-12.33 566.39,-19.33"/>
</g>
<!-- Node3 -->
<g id="node3" class="node">
<title>Node3</title>
<g id="a_node3"><a xlink:href="_i_e_buffer_8hpp.html" target="_top" xlink:title=" ">
<polygon fill="white" stroke="black" points="237.5,-207.5 237.5,-233.5 384.5,-233.5 384.5,-207.5 237.5,-207.5"/>
<text text-anchor="middle" x="311" y="-216.7" font-family="Source Sans Pro" font-size="16.00">Buffer/IEBuffer.hpp</text>
</a>
</g>
</g>
<!-- Node2&#45;&gt;Node3 -->
<g id="edge2" class="edge">
<title>Node2&#45;&gt;Node3</title>
<path fill="none" stroke="midnightblue" d="M311,-270.45C311,-262.85 311,-252.79 311,-243.78"/>
<polygon fill="midnightblue" stroke="midnightblue" points="314.5,-243.53 311,-233.53 307.5,-243.53 314.5,-243.53"/>
</g>
<!-- Node5 -->
<g id="node5" class="node">
<title>Node5</title>
<g id="a_node5"><a xlink:title=" ">
<polygon fill="white" stroke="#bfbfbf" points="1223,-63.5 1223,-89.5 1297,-89.5 1297,-63.5 1223,-63.5"/>
<text text-anchor="middle" x="1260" y="-72.7" font-family="Source Sans Pro" font-size="16.00">memory</text>
</a>
</g>
</g>
<!-- Node2&#45;&gt;Node5 -->
<g id="edge31" class="edge">
<title>Node2&#45;&gt;Node5</title>
<path fill="none" stroke="midnightblue" d="M421.6,-279.83C629.57,-273.02 1069.41,-249.49 1197,-171 1224.06,-154.35 1242.13,-121.23 1251.73,-99.22"/>
<polygon fill="midnightblue" stroke="midnightblue" points="1255.08,-100.28 1255.66,-89.71 1248.61,-97.61 1255.08,-100.28"/>
</g>
<!-- Node8 -->
<g id="node8" class="node">
<title>Node8</title>
<g id="a_node8"><a xlink:title=" ">
<polygon fill="white" stroke="#bfbfbf" points="291.5,-63.5 291.5,-89.5 416.5,-89.5 416.5,-63.5 291.5,-63.5"/>
<text text-anchor="middle" x="354" y="-72.7" font-family="Source Sans Pro" font-size="16.00">vulkan/vulkan.h</text>
</a>
</g>
</g>
<!-- Node2&#45;&gt;Node8 -->
<g id="edge32" class="edge">
<title>Node2&#45;&gt;Node8</title>
<path fill="none" stroke="midnightblue" d="M284.82,-270.49C267.76,-261.86 245.65,-249.12 229,-234 190.37,-198.93 151.54,-167.62 183,-126 195.29,-109.74 240.43,-97.35 281.25,-89.16"/>
<polygon fill="midnightblue" stroke="midnightblue" points="282.09,-92.56 291.24,-87.22 280.75,-85.69 282.09,-92.56"/>
</g>
<!-- Node15 -->
<g id="node15" class="node">
<title>Node15</title>
<g id="a_node15"><a xlink:href="_i_e_image_8hpp.html" target="_top" xlink:title=" ">
<polygon fill="white" stroke="black" points="531.5,-207.5 531.5,-233.5 680.5,-233.5 680.5,-207.5 531.5,-207.5"/>
<text text-anchor="middle" x="606" y="-216.7" font-family="Source Sans Pro" font-size="16.00">Image/IEImage.hpp</text>
</a>
</g>
</g>
<!-- Node2&#45;&gt;Node15 -->
<g id="edge20" class="edge">
<title>Node2&#45;&gt;Node15</title>
<path fill="none" stroke="midnightblue" d="M369.28,-270.45C417.77,-260.42 486.85,-246.14 537.88,-235.58"/>
<polygon fill="midnightblue" stroke="midnightblue" points="538.75,-238.98 547.84,-233.53 537.34,-232.12 538.75,-238.98"/>
</g>
<!-- Node4 -->
<g id="node4" class="node">
<title>Node4</title>
<g id="a_node4"><a xlink:href="_i_e_dependency_8hpp.html" target="_top" xlink:title=" ">
<polygon fill="white" stroke="black" points="634.5,-126.5 634.5,-170.5 879.5,-170.5 879.5,-126.5 634.5,-126.5"/>
<text text-anchor="start" x="642.5" y="-153.7" font-family="Source Sans Pro" font-size="16.00">GraphicsModule/CommandBuffer</text>
<text text-anchor="middle" x="757" y="-135.7" font-family="Source Sans Pro" font-size="16.00">/IEDependency.hpp</text>
</a>
</g>
</g>
<!-- Node3&#45;&gt;Node4 -->
<g id="edge3" class="edge">
<title>Node3&#45;&gt;Node4</title>
<path fill="none" stroke="midnightblue" d="M384.65,-207.94C449.66,-197.74 546.01,-182.61 624.42,-170.31"/>
<polygon fill="midnightblue" stroke="midnightblue" points="625.04,-173.75 634.37,-168.75 623.95,-166.84 625.04,-173.75"/>
</g>
<!-- Node3&#45;&gt;Node7 -->
<g id="edge19" class="edge">
<title>Node3&#45;&gt;Node7</title>
<path fill="none" stroke="midnightblue" d="M237.23,-213.39C179.42,-206.89 105.74,-194.23 87,-171 56.86,-133.64 54.68,-98.49 87,-63 119.1,-27.76 449.85,-17.68 565.97,-15.21"/>
<polygon fill="midnightblue" stroke="midnightblue" points="566.27,-18.7 576.2,-15 566.13,-11.71 566.27,-18.7"/>
</g>
<!-- Node3&#45;&gt;Node8 -->
<g id="edge16" class="edge">
<title>Node3&#45;&gt;Node8</title>
<path fill="none" stroke="midnightblue" d="M247.98,-207.43C227.95,-200.29 207.92,-188.96 196,-171 184.94,-154.34 184.11,-142.08 196,-126 215.7,-99.35 249.78,-86.87 281.26,-81.21"/>
<polygon fill="midnightblue" stroke="midnightblue" points="282.05,-84.63 291.37,-79.6 280.95,-77.71 282.05,-84.63"/>
</g>
<!-- Node9 -->
<g id="node9" class="node">
<title>Node9</title>
<g id="a_node9"><a xlink:href="_i_e_a_p_i_8hpp.html" target="_top" xlink:title=" ">
<polygon fill="white" stroke="black" points="897.5,-135.5 897.5,-161.5 980.5,-161.5 980.5,-135.5 897.5,-135.5"/>
<text text-anchor="middle" x="939" y="-144.7" font-family="Source Sans Pro" font-size="16.00">IEAPI.hpp</text>
</a>
</g>
</g>
<!-- Node3&#45;&gt;Node9 -->
<g id="edge8" class="edge">
<title>Node3&#45;&gt;Node9</title>
<path fill="none" stroke="midnightblue" d="M384.59,-214.65C529.34,-204.93 841.25,-182.93 889,-171 894.56,-169.61 900.29,-167.67 905.8,-165.53"/>
<polygon fill="midnightblue" stroke="midnightblue" points="907.52,-168.6 915.39,-161.51 904.81,-162.14 907.52,-168.6"/>
</g>
<!-- Node11 -->
<g id="node11" class="node">
<title>Node11</title>
<g id="a_node11"><a xlink:title=" ">
<polygon fill="white" stroke="#bfbfbf" points="786.5,-0.5 786.5,-26.5 849.5,-26.5 849.5,-0.5 786.5,-0.5"/>
<text text-anchor="middle" x="818" y="-9.7" font-family="Source Sans Pro" font-size="16.00">cstdint</text>
</a>
</g>
</g>
<!-- Node3&#45;&gt;Node11 -->
<g id="edge17" class="edge">
<title>Node3&#45;&gt;Node11</title>
<path fill="none" stroke="midnightblue" d="M237.35,-207.9C216.32,-200.8 195.69,-189.38 183,-171 171.64,-154.54 173.34,-143.51 183,-126 208.38,-80.01 233.24,-79.84 283,-63 306.28,-55.12 654.16,-27.32 776.13,-17.76"/>
<polygon fill="midnightblue" stroke="midnightblue" points="776.51,-21.24 786.2,-16.97 775.96,-14.26 776.51,-21.24"/>
</g>
<!-- Node12 -->
<g id="node12" class="node">
<title>Node12</title>
<g id="a_node12"><a xlink:title=" ">
<polygon fill="white" stroke="#bfbfbf" points="309.5,-135.5 309.5,-161.5 438.5,-161.5 438.5,-135.5 309.5,-135.5"/>
<text text-anchor="middle" x="374" y="-144.7" font-family="Source Sans Pro" font-size="16.00">vk_mem_alloc.h</text>
</a>
</g>
</g>
<!-- Node3&#45;&gt;Node12 -->
<g id="edge14" class="edge">
<title>Node3&#45;&gt;Node12</title>
<path fill="none" stroke="midnightblue" d="M321.97,-207.31C331.46,-196.77 345.34,-181.34 356.38,-169.07"/>
<polygon fill="midnightblue" stroke="midnightblue" points="359.06,-171.33 363.15,-161.55 353.86,-166.64 359.06,-171.33"/>
</g>
<!-- Node13 -->
<g id="node13" class="node">
<title>Node13</title>
<g id="a_node13"><a xlink:title=" ">
<polygon fill="white" stroke="#bfbfbf" points="456.5,-135.5 456.5,-161.5 539.5,-161.5 539.5,-135.5 456.5,-135.5"/>
<text text-anchor="middle" x="498" y="-144.7" font-family="Source Sans Pro" font-size="16.00">GL/glew.h</text>
</a>
</g>
</g>
<!-- Node3&#45;&gt;Node13 -->
<g id="edge15" class="edge">
<title>Node3&#45;&gt;Node13</title>
<path fill="none" stroke="midnightblue" d="M347.01,-207.48C374.78,-198.03 414.05,-184.29 448,-171 452.44,-169.26 457.07,-167.37 461.65,-165.46"/>
<polygon fill="midnightblue" stroke="midnightblue" points="463.05,-168.67 470.89,-161.54 460.31,-162.23 463.05,-168.67"/>
</g>
<!-- Node14 -->
<g id="node14" class="node">
<title>Node14</title>
<g id="a_node14"><a xlink:title=" ">
<polygon fill="white" stroke="#bfbfbf" points="205,-135.5 205,-161.5 291,-161.5 291,-135.5 205,-135.5"/>
<text text-anchor="middle" x="248" y="-144.7" font-family="Source Sans Pro" font-size="16.00">functional</text>
</a>
</g>
</g>
<!-- Node3&#45;&gt;Node14 -->
<g id="edge18" class="edge">
<title>Node3&#45;&gt;Node14</title>
<path fill="none" stroke="midnightblue" d="M300.03,-207.31C290.54,-196.77 276.66,-181.34 265.62,-169.07"/>
<polygon fill="midnightblue" stroke="midnightblue" points="268.14,-166.64 258.85,-161.55 262.94,-171.33 268.14,-166.64"/>
</g>
<!-- Node4&#45;&gt;Node5 -->
<g id="edge4" class="edge">
<title>Node4&#45;&gt;Node5</title>
<path fill="none" stroke="midnightblue" d="M879.59,-127.4C882.76,-126.92 885.9,-126.46 889,-126 1005,-108.98 1141.84,-91.85 1212.48,-83.23"/>
<polygon fill="midnightblue" stroke="midnightblue" points="1213.32,-86.65 1222.82,-81.97 1212.47,-79.7 1213.32,-86.65"/>
</g>
<!-- Node6 -->
<g id="node6" class="node">
<title>Node6</title>
<g id="a_node6"><a xlink:title=" ">
<polygon fill="white" stroke="#bfbfbf" points="892.5,-0.5 892.5,-26.5 947.5,-26.5 947.5,-0.5 892.5,-0.5"/>
<text text-anchor="middle" x="920" y="-9.7" font-family="Source Sans Pro" font-size="16.00">string</text>
</a>
</g>
</g>
<!-- Node4&#45;&gt;Node6 -->
<g id="edge5" class="edge">
<title>Node4&#45;&gt;Node6</title>
<path fill="none" stroke="midnightblue" d="M824.09,-126.44C844.48,-117.62 865.76,-105.68 882,-90 897.24,-75.28 907.38,-53.15 913.32,-36.65"/>
<polygon fill="midnightblue" stroke="midnightblue" points="916.78,-37.35 916.63,-26.76 910.14,-35.13 916.78,-37.35"/>
</g>
<!-- Node4&#45;&gt;Node7 -->
<g id="edge6" class="edge">
<title>Node4&#45;&gt;Node7</title>
<path fill="none" stroke="midnightblue" d="M733.07,-126.43C704.01,-100.83 655.41,-58.02 627.49,-33.43"/>
<polygon fill="midnightblue" stroke="midnightblue" points="629.69,-30.7 619.87,-26.71 625.06,-35.95 629.69,-30.7"/>
</g>
<!-- Node4&#45;&gt;Node8 -->
<g id="edge7" class="edge">
<title>Node4&#45;&gt;Node8</title>
<path fill="none" stroke="midnightblue" d="M636.09,-126.5C567.96,-114.66 485.11,-100.27 426.88,-90.16"/>
<polygon fill="midnightblue" stroke="midnightblue" points="427.12,-86.65 416.67,-88.39 425.92,-93.55 427.12,-86.65"/>
</g>
<!-- Node9&#45;&gt;Node6 -->
<g id="edge13" class="edge">
<title>Node9&#45;&gt;Node6</title>
<path fill="none" stroke="midnightblue" d="M937.25,-135.23C934.05,-112.86 927.24,-65.16 923.2,-36.88"/>
<polygon fill="midnightblue" stroke="midnightblue" points="926.63,-36.15 921.75,-26.74 919.7,-37.14 926.63,-36.15"/>
</g>
<!-- Node10 -->
<g id="node10" class="node">
<title>Node10</title>
<g id="a_node10"><a xlink:href="_i_e_version_8hpp.html" target="_top" xlink:title=" ">
<polygon fill="white" stroke="black" points="763,-63.5 763,-89.5 873,-89.5 873,-63.5 763,-63.5"/>
<text text-anchor="middle" x="818" y="-72.7" font-family="Source Sans Pro" font-size="16.00">IEVersion.hpp</text>
</a>
</g>
</g>
<!-- Node9&#45;&gt;Node10 -->
<g id="edge9" class="edge">
<title>Node9&#45;&gt;Node10</title>
<path fill="none" stroke="midnightblue" d="M918.2,-135.47C898.81,-124.25 869.67,-107.39 847.81,-94.74"/>
<polygon fill="midnightblue" stroke="midnightblue" points="849.34,-91.59 838.93,-89.61 845.84,-97.65 849.34,-91.59"/>
</g>
<!-- Node10&#45;&gt;Node6 -->
<g id="edge11" class="edge">
<title>Node10&#45;&gt;Node6</title>
<path fill="none" stroke="midnightblue" d="M838.15,-63.45C853.24,-54.43 874.1,-41.95 890.98,-31.85"/>
<polygon fill="midnightblue" stroke="midnightblue" points="893.1,-34.66 899.89,-26.53 889.51,-28.66 893.1,-34.66"/>
</g>
<!-- Node10&#45;&gt;Node7 -->
<g id="edge12" class="edge">
<title>Node10&#45;&gt;Node7</title>
<path fill="none" stroke="midnightblue" d="M776.12,-63.45C738.17,-52.53 682.67,-36.56 645.49,-25.86"/>
<polygon fill="midnightblue" stroke="midnightblue" points="646.1,-22.4 635.52,-22.99 644.16,-29.12 646.1,-22.4"/>
</g>
<!-- Node10&#45;&gt;Node11 -->
<g id="edge10" class="edge">
<title>Node10&#45;&gt;Node11</title>
<path fill="none" stroke="midnightblue" d="M818,-63.45C818,-55.85 818,-45.79 818,-36.78"/>
<polygon fill="midnightblue" stroke="midnightblue" points="821.5,-36.53 818,-26.53 814.5,-36.53 821.5,-36.53"/>
</g>
<!-- Node15&#45;&gt;Node4 -->
<g id="edge21" class="edge">
<title>Node15&#45;&gt;Node4</title>
<path fill="none" stroke="midnightblue" d="M631.96,-207.47C651.24,-198.53 678.24,-186.01 702.21,-174.9"/>
<polygon fill="midnightblue" stroke="midnightblue" points="703.98,-177.94 711.58,-170.56 701.03,-171.59 703.98,-177.94"/>
</g>
<!-- Node15&#45;&gt;Node6 -->
<g id="edge29" class="edge">
<title>Node15&#45;&gt;Node6</title>
<path fill="none" stroke="midnightblue" d="M680.67,-218.65C827.66,-216.19 1143.14,-206.77 1176,-171 1247.53,-93.12 1044.65,-40.35 957.58,-21.83"/>
<polygon fill="midnightblue" stroke="midnightblue" points="958.06,-18.36 947.56,-19.75 956.63,-25.21 958.06,-18.36"/>
</g>
<!-- Node15&#45;&gt;Node7 -->
<g id="edge30" class="edge">
<title>Node15&#45;&gt;Node7</title>
<path fill="none" stroke="midnightblue" d="M606,-207.29C606,-173.75 606,-79.83 606,-36.69"/>
<polygon fill="midnightblue" stroke="midnightblue" points="609.5,-36.65 606,-26.65 602.5,-36.65 609.5,-36.65"/>
</g>
<!-- Node15&#45;&gt;Node8 -->
<g id="edge26" class="edge">
<title>Node15&#45;&gt;Node8</title>
<path fill="none" stroke="midnightblue" d="M602.05,-207.37C594.86,-187.24 577.65,-147.05 549,-126 513.7,-100.07 466.11,-87.91 426.78,-82.24"/>
<polygon fill="midnightblue" stroke="midnightblue" points="427.09,-78.75 416.72,-80.91 426.17,-85.69 427.09,-78.75"/>
</g>
<!-- Node15&#45;&gt;Node9 -->
<g id="edge22" class="edge">
<title>Node15&#45;&gt;Node9</title>
<path fill="none" stroke="midnightblue" d="M680.69,-211.59C738.39,-204.31 819.81,-191.49 889,-171 894.27,-169.44 899.72,-167.48 905,-165.38"/>
<polygon fill="midnightblue" stroke="midnightblue" points="906.37,-168.6 914.25,-161.51 903.67,-162.14 906.37,-168.6"/>
</g>
<!-- Node15&#45;&gt;Node11 -->
<g id="edge27" class="edge">
<title>Node15&#45;&gt;Node11</title>
<path fill="none" stroke="midnightblue" d="M680.83,-215.3C786.77,-208.57 969.92,-193.78 990,-171 1040.03,-114.26 924.67,-56.73 859.23,-29.97"/>
<polygon fill="midnightblue" stroke="midnightblue" points="860.16,-26.58 849.58,-26.1 857.56,-33.07 860.16,-26.58"/>
</g>
<!-- Node15&#45;&gt;Node12 -->
<g id="edge25" class="edge">
<title>Node15&#45;&gt;Node12</title>
<path fill="none" stroke="midnightblue" d="M566.12,-207.47C526.69,-195.57 466.27,-177.34 423.73,-164.51"/>
<polygon fill="midnightblue" stroke="midnightblue" points="424.72,-161.15 414.14,-161.61 422.7,-167.85 424.72,-161.15"/>
</g>
<!-- Node15&#45;&gt;Node13 -->
<g id="edge23" class="edge">
<title>Node15&#45;&gt;Node13</title>
<path fill="none" stroke="midnightblue" d="M587.19,-207.31C570,-196.17 544.38,-179.56 525.01,-167"/>
<polygon fill="midnightblue" stroke="midnightblue" points="526.89,-164.06 516.6,-161.55 523.08,-169.93 526.89,-164.06"/>
</g>
<!-- Node15&#45;&gt;Node14 -->
<g id="edge28" class="edge">
<title>Node15&#45;&gt;Node14</title>
<path fill="none" stroke="midnightblue" d="M531.34,-212.43C468.96,-205.38 378.09,-192.46 301,-171 295.3,-169.41 289.38,-167.4 283.66,-165.25"/>
<polygon fill="midnightblue" stroke="midnightblue" points="284.86,-161.96 274.28,-161.54 282.29,-168.47 284.86,-161.96"/>
</g>
<!-- Node16 -->
<g id="node16" class="node">
<title>Node16</title>
<g id="a_node16"><a xlink:title=" ">
<polygon fill="white" stroke="#bfbfbf" points="1037,-126.5 1037,-170.5 1167,-170.5 1167,-126.5 1037,-126.5"/>
<text text-anchor="start" x="1045" y="-153.7" font-family="Source Sans Pro" font-size="16.00">../contrib/stb/stb</text>
<text text-anchor="middle" x="1102" y="-135.7" font-family="Source Sans Pro" font-size="16.00">_image.h</text>
</a>
</g>
</g>
<!-- Node15&#45;&gt;Node16 -->
<g id="edge24" class="edge">
<title>Node15&#45;&gt;Node16</title>
<path fill="none" stroke="midnightblue" d="M680.71,-214.21C764.56,-207.48 904.39,-193.9 1023,-171 1024.26,-170.76 1025.52,-170.51 1026.79,-170.24"/>
<polygon fill="midnightblue" stroke="midnightblue" points="1027.63,-173.65 1036.65,-168.1 1026.14,-166.81 1027.63,-173.65"/>
</g>
</g>
</svg>
