<?xml version="1.0" encoding="UTF-8" standalone="no"?>
<!DOCTYPE svg PUBLIC "-//W3C//DTD SVG 1.1//EN"
 "http://www.w3.org/Graphics/SVG/1.1/DTD/svg11.dtd">
<!-- Generated by graphviz version 2.43.0 (0)
 -->
<!-- Title: Illumination&#45;Engine/src/GraphicsModule/RenderPass/IERenderPass.hpp Pages: 1 -->
<svg width="3582pt" height="287pt"
 viewBox="0.00 0.00 3582.00 287.00" xmlns="http://www.w3.org/2000/svg" xmlns:xlink="http://www.w3.org/1999/xlink">
<g id="graph0" class="graph" transform="scale(1 1) rotate(0) translate(4 283)">
<title>Illumination&#45;Engine/src/GraphicsModule/RenderPass/IERenderPass.hpp</title>
<polygon fill="white" stroke="transparent" points="-4,4 -4,-283 3578,-283 3578,4 -4,4"/>
<!-- Node1 -->
<g id="node1" class="node">
<title>Node1</title>
<g id="a_node1"><a xlink:title=" ">
<polygon fill="#bfbfbf" stroke="black" points="1747.5,-216.5 1747.5,-278.5 1975.5,-278.5 1975.5,-216.5 1747.5,-216.5"/>
<text text-anchor="start" x="1755.5" y="-261.7" font-family="Source Sans Pro" font-size="16.00">Illumination&#45;Engine</text>
<text text-anchor="start" x="1755.5" y="-243.7" font-family="Source Sans Pro" font-size="16.00">/src/GraphicsModule</text>
<text text-anchor="middle" x="1861.5" y="-225.7" font-family="Source Sans Pro" font-size="16.00">/RenderPass/IERenderPass.hpp</text>
</a>
</g>
</g>
<!-- Node2 -->
<g id="node2" class="node">
<title>Node2</title>
<g id="a_node2"><a xlink:href="_i_e_render_pass_begin_info_8cpp.html" target="_top" xlink:title=" ">
<polygon fill="white" stroke="black" points="1206.5,-99.5 1206.5,-179.5 1478.5,-179.5 1478.5,-99.5 1206.5,-99.5"/>
<text text-anchor="start" x="1214.5" y="-162.7" font-family="Source Sans Pro" font-size="16.00">Illumination&#45;Engine</text>
<text text-anchor="start" x="1214.5" y="-144.7" font-family="Source Sans Pro" font-size="16.00">/src/GraphicsModule</text>
<text text-anchor="start" x="1214.5" y="-126.7" font-family="Source Sans Pro" font-size="16.00">/CommandBuffer/DependencyStructs</text>
<text text-anchor="middle" x="1342.5" y="-108.7" font-family="Source Sans Pro" font-size="16.00">/IERenderPassBeginInfo.cpp</text>
</a>
</g>
</g>
<!-- Node1&#45;&gt;Node2 -->
<g id="edge1" class="edge">
<title>Node1&#45;&gt;Node2</title>
<path fill="none" stroke="midnightblue" d="M1737.05,-227.25C1664.03,-215.25 1570.16,-198.57 1487.5,-180 1484.57,-179.34 1481.62,-178.66 1478.64,-177.97"/>
<polygon fill="midnightblue" stroke="midnightblue" points="1736.78,-230.76 1747.22,-228.92 1737.91,-223.85 1736.78,-230.76"/>
</g>
<!-- Node3 -->
<g id="node3" class="node">
<title>Node3</title>
<g id="a_node3"><a xlink:href="_i_e_dependency_8cpp.html" target="_top" xlink:title=" ">
<polygon fill="white" stroke="black" points="1496.5,-108.5 1496.5,-170.5 1762.5,-170.5 1762.5,-108.5 1496.5,-108.5"/>
<text text-anchor="start" x="1504.5" y="-153.7" font-family="Source Sans Pro" font-size="16.00">Illumination&#45;Engine</text>
<text text-anchor="start" x="1504.5" y="-135.7" font-family="Source Sans Pro" font-size="16.00">/src/GraphicsModule</text>
<text text-anchor="middle" x="1629.5" y="-117.7" font-family="Source Sans Pro" font-size="16.00">/CommandBuffer/IEDependency.cpp</text>
</a>
</g>
</g>
<!-- Node1&#45;&gt;Node3 -->
<g id="edge2" class="edge">
<title>Node1&#45;&gt;Node3</title>
<path fill="none" stroke="midnightblue" d="M1786.29,-212.14C1757.04,-198.77 1723.83,-183.6 1695.53,-170.67"/>
<polygon fill="midnightblue" stroke="midnightblue" points="1785.09,-215.44 1795.64,-216.41 1788,-209.07 1785.09,-215.44"/>
</g>
<!-- Node4 -->
<g id="node4" class="node">
<title>Node4</title>
<g id="a_node4"><a xlink:href="_i_e_render_engine_8hpp.html" target="_top" xlink:title=" ">
<polygon fill="white" stroke="black" points="1781,-108.5 1781,-170.5 1942,-170.5 1942,-108.5 1781,-108.5"/>
<text text-anchor="start" x="1789" y="-153.7" font-family="Source Sans Pro" font-size="16.00">Illumination&#45;Engine</text>
<text text-anchor="start" x="1789" y="-135.7" font-family="Source Sans Pro" font-size="16.00">/src/GraphicsModule</text>
<text text-anchor="middle" x="1861.5" y="-117.7" font-family="Source Sans Pro" font-size="16.00">/IERenderEngine.hpp</text>
</a>
</g>
</g>
<!-- Node1&#45;&gt;Node4 -->
<g id="edge3" class="edge">
<title>Node1&#45;&gt;Node4</title>
<path fill="none" stroke="midnightblue" d="M1861.5,-206.31C1861.5,-194.48 1861.5,-181.75 1861.5,-170.67"/>
<polygon fill="midnightblue" stroke="midnightblue" points="1858,-206.41 1861.5,-216.41 1865,-206.41 1858,-206.41"/>
</g>
<!-- Node13 -->
<g id="node13" class="node">
<title>Node13</title>
<g id="a_node13"><a xlink:href="_i_e_framebuffer_8cpp.html" target="_top" xlink:title=" ">
<polygon fill="white" stroke="black" points="3098.5,-0.5 3098.5,-62.5 3328.5,-62.5 3328.5,-0.5 3098.5,-0.5"/>
<text text-anchor="start" x="3106.5" y="-45.7" font-family="Source Sans Pro" font-size="16.00">Illumination&#45;Engine</text>
<text text-anchor="start" x="3106.5" y="-27.7" font-family="Source Sans Pro" font-size="16.00">/src/GraphicsModule</text>
<text text-anchor="middle" x="3213.5" y="-9.7" font-family="Source Sans Pro" font-size="16.00">/RenderPass/IEFramebuffer.cpp</text>
</a>
</g>
</g>
<!-- Node1&#45;&gt;Node13 -->
<g id="edge21" class="edge">
<title>Node1&#45;&gt;Node13</title>
<path fill="none" stroke="midnightblue" d="M1985.61,-231.83C2207.97,-204.68 2688.55,-142.09 3089.5,-63 3092.44,-62.42 3095.41,-61.82 3098.4,-61.2"/>
<polygon fill="midnightblue" stroke="midnightblue" points="1985.04,-228.37 1975.54,-233.05 1985.89,-235.32 1985.04,-228.37"/>
</g>
<!-- Node14 -->
<g id="node14" class="node">
<title>Node14</title>
<g id="a_node14"><a xlink:href="_i_e_render_pass_8cpp.html" target="_top" xlink:title=" ">
<polygon fill="white" stroke="black" points="3347,-0.5 3347,-62.5 3574,-62.5 3574,-0.5 3347,-0.5"/>
<text text-anchor="start" x="3355" y="-45.7" font-family="Source Sans Pro" font-size="16.00">Illumination&#45;Engine</text>
<text text-anchor="start" x="3355" y="-27.7" font-family="Source Sans Pro" font-size="16.00">/src/GraphicsModule</text>
<text text-anchor="middle" x="3460.5" y="-9.7" font-family="Source Sans Pro" font-size="16.00">/RenderPass/IERenderPass.cpp</text>
</a>
</g>
</g>
<!-- Node1&#45;&gt;Node14 -->
<g id="edge22" class="edge">
<title>Node1&#45;&gt;Node14</title>
<path fill="none" stroke="midnightblue" d="M1985.7,-239.43C2142.27,-229.75 2419.52,-210.07 2655.5,-180 2960.57,-141.13 3036.49,-126.05 3337.5,-63 3340.62,-62.35 3343.79,-61.67 3346.98,-60.97"/>
<polygon fill="midnightblue" stroke="midnightblue" points="1985.33,-235.94 1975.56,-240.05 1985.76,-242.93 1985.33,-235.94"/>
</g>
<!-- Node5 -->
<g id="node5" class="node">
<title>Node5</title>
<g id="a_node5"><a xlink:href="_i_e_buffer_8cpp.html" target="_top" xlink:title=" ">
<polygon fill="white" stroke="black" points="1783,-0.5 1783,-62.5 1940,-62.5 1940,-0.5 1783,-0.5"/>
<text text-anchor="start" x="1791" y="-45.7" font-family="Source Sans Pro" font-size="16.00">Illumination&#45;Engine</text>
<text text-anchor="start" x="1791" y="-27.7" font-family="Source Sans Pro" font-size="16.00">/src/GraphicsModule</text>
<text text-anchor="middle" x="1861.5" y="-9.7" font-family="Source Sans Pro" font-size="16.00">/Buffer/IEBuffer.cpp</text>
</a>
</g>
</g>
<!-- Node4&#45;&gt;Node5 -->
<g id="edge4" class="edge">
<title>Node4&#45;&gt;Node5</title>
<path fill="none" stroke="midnightblue" d="M1861.5,-98.31C1861.5,-86.48 1861.5,-73.75 1861.5,-62.67"/>
<polygon fill="midnightblue" stroke="midnightblue" points="1858,-98.41 1861.5,-108.41 1865,-98.41 1858,-98.41"/>
</g>
<!-- Node6 -->
<g id="node6" class="node">
<title>Node6</title>
<g id="a_node6"><a xlink:href="_i_e_command_buffer_8cpp.html" target="_top" xlink:title=" ">
<polygon fill="white" stroke="black" points="1958,-0.5 1958,-62.5 2251,-62.5 2251,-0.5 1958,-0.5"/>
<text text-anchor="start" x="1966" y="-45.7" font-family="Source Sans Pro" font-size="16.00">Illumination&#45;Engine</text>
<text text-anchor="start" x="1966" y="-27.7" font-family="Source Sans Pro" font-size="16.00">/src/GraphicsModule</text>
<text text-anchor="middle" x="2104.5" y="-9.7" font-family="Source Sans Pro" font-size="16.00">/CommandBuffer/IECommandBuffer.cpp</text>
</a>
</g>
</g>
<!-- Node4&#45;&gt;Node6 -->
<g id="edge5" class="edge">
<title>Node4&#45;&gt;Node6</title>
<path fill="none" stroke="midnightblue" d="M1939.88,-104.31C1970.61,-90.91 2005.57,-75.66 2035.34,-62.67"/>
<polygon fill="midnightblue" stroke="midnightblue" points="1938.25,-101.2 1930.48,-108.41 1941.05,-107.62 1938.25,-101.2"/>
</g>
<!-- Node7 -->
<g id="node7" class="node">
<title>Node7</title>
<g id="a_node7"><a xlink:href="_i_e_command_pool_8cpp.html" target="_top" xlink:title=" ">
<polygon fill="white" stroke="black" points="2269.5,-0.5 2269.5,-62.5 2553.5,-62.5 2553.5,-0.5 2269.5,-0.5"/>
<text text-anchor="start" x="2277.5" y="-45.7" font-family="Source Sans Pro" font-size="16.00">Illumination&#45;Engine</text>
<text text-anchor="start" x="2277.5" y="-27.7" font-family="Source Sans Pro" font-size="16.00">/src/GraphicsModule</text>
<text text-anchor="middle" x="2411.5" y="-9.7" font-family="Source Sans Pro" font-size="16.00">/CommandBuffer/IECommandPool.cpp</text>
</a>
</g>
</g>
<!-- Node4&#45;&gt;Node7 -->
<g id="edge6" class="edge">
<title>Node4&#45;&gt;Node7</title>
<path fill="none" stroke="midnightblue" d="M1952.48,-121.52C2033.18,-106.4 2154.25,-83.54 2259.5,-63 2262.67,-62.38 2265.88,-61.75 2269.11,-61.12"/>
<polygon fill="midnightblue" stroke="midnightblue" points="1951.53,-118.14 1942.35,-123.42 1952.82,-125.02 1951.53,-118.14"/>
</g>
<!-- Node8 -->
<g id="node8" class="node">
<title>Node8</title>
<g id="a_node8"><a xlink:href="_i_e_a_p_i_8cpp.html" target="_top" xlink:title=" ">
<polygon fill="white" stroke="black" points="2572,-0.5 2572,-62.5 2729,-62.5 2729,-0.5 2572,-0.5"/>
<text text-anchor="start" x="2580" y="-45.7" font-family="Source Sans Pro" font-size="16.00">Illumination&#45;Engine</text>
<text text-anchor="start" x="2580" y="-27.7" font-family="Source Sans Pro" font-size="16.00">/src/GraphicsModule</text>
<text text-anchor="middle" x="2650.5" y="-9.7" font-family="Source Sans Pro" font-size="16.00">/IEAPI.cpp</text>
</a>
</g>
</g>
<!-- Node4&#45;&gt;Node8 -->
<g id="edge7" class="edge">
<title>Node4&#45;&gt;Node8</title>
<path fill="none" stroke="midnightblue" d="M1952.37,-135.27C2087.06,-129.02 2347,-111.3 2562.5,-63 2565.5,-62.33 2568.54,-61.59 2571.59,-60.79"/>
<polygon fill="midnightblue" stroke="midnightblue" points="1951.93,-131.79 1942.1,-135.74 1952.24,-138.78 1951.93,-131.79"/>
</g>
<!-- Node9 -->
<g id="node9" class="node">
<title>Node9</title>
<g id="a_node9"><a xlink:href="_i_e_camera_8cpp.html" target="_top" xlink:title=" ">
<polygon fill="white" stroke="black" points="2747,-0.5 2747,-62.5 2904,-62.5 2904,-0.5 2747,-0.5"/>
<text text-anchor="start" x="2755" y="-45.7" font-family="Source Sans Pro" font-size="16.00">Illumination&#45;Engine</text>
<text text-anchor="start" x="2755" y="-27.7" font-family="Source Sans Pro" font-size="16.00">/src/GraphicsModule</text>
<text text-anchor="middle" x="2825.5" y="-9.7" font-family="Source Sans Pro" font-size="16.00">/IECamera.cpp</text>
</a>
</g>
</g>
<!-- Node4&#45;&gt;Node9 -->
<g id="edge8" class="edge">
<title>Node4&#45;&gt;Node9</title>
<path fill="none" stroke="midnightblue" d="M1952.49,-138.03C2112.86,-135.58 2455.54,-123.04 2737.5,-63 2740.5,-62.36 2743.55,-61.65 2746.61,-60.88"/>
<polygon fill="midnightblue" stroke="midnightblue" points="1952.14,-134.54 1942.19,-138.18 1952.24,-141.54 1952.14,-134.54"/>
</g>
<!-- Node10 -->
<g id="node10" class="node">
<title>Node10</title>
<g id="a_node10"><a xlink:href="_i_e_render_engine_8cpp.html" target="_top" xlink:title=" ">
<polygon fill="white" stroke="black" points="2922,-0.5 2922,-62.5 3081,-62.5 3081,-0.5 2922,-0.5"/>
<text text-anchor="start" x="2930" y="-45.7" font-family="Source Sans Pro" font-size="16.00">Illumination&#45;Engine</text>
<text text-anchor="start" x="2930" y="-27.7" font-family="Source Sans Pro" font-size="16.00">/src/GraphicsModule</text>
<text text-anchor="middle" x="3001.5" y="-9.7" font-family="Source Sans Pro" font-size="16.00">/IERenderEngine.cpp</text>
</a>
</g>
</g>
<!-- Node4&#45;&gt;Node10 -->
<g id="edge9" class="edge">
<title>Node4&#45;&gt;Node10</title>
<path fill="none" stroke="midnightblue" d="M1952.41,-133.32C2190.41,-119.56 2819.78,-81.89 2912.5,-63 2915.54,-62.38 2918.62,-61.69 2921.72,-60.93"/>
<polygon fill="midnightblue" stroke="midnightblue" points="1952.18,-129.83 1942.4,-133.9 1952.59,-136.81 1952.18,-129.83"/>
</g>
<!-- Node11 -->
<g id="node11" class="node">
<title>Node11</title>
<g id="a_node11"><a xlink:href="_i_e_image_8cpp.html" target="_top" xlink:title=" ">
<polygon fill="white" stroke="black" points="0,-0.5 0,-62.5 157,-62.5 157,-0.5 0,-0.5"/>
<text text-anchor="start" x="8" y="-45.7" font-family="Source Sans Pro" font-size="16.00">Illumination&#45;Engine</text>
<text text-anchor="start" x="8" y="-27.7" font-family="Source Sans Pro" font-size="16.00">/src/GraphicsModule</text>
<text text-anchor="middle" x="78.5" y="-9.7" font-family="Source Sans Pro" font-size="16.00">/Image/IEImage.cpp</text>
</a>
</g>
</g>
<!-- Node4&#45;&gt;Node11 -->
<g id="edge10" class="edge">
<title>Node4&#45;&gt;Node11</title>
<path fill="none" stroke="midnightblue" d="M1791.79,-104.8C1785.05,-102.49 1778.22,-100.49 1771.5,-99 1422.97,-21.8 516.72,-126.84 165.5,-63 162.82,-62.51 160.12,-61.96 157.4,-61.34"/>
<polygon fill="midnightblue" stroke="midnightblue" points="1791,-108.23 1801.59,-108.39 1793.41,-101.66 1791,-108.23"/>
</g>
<!-- Node12 -->
<g id="node12" class="node">
<title>Node12</title>
<g id="a_node12"><a xlink:href="_i_e_texture_8cpp.html" target="_top" xlink:title=" ">
<polygon fill="white" stroke="black" points="175,-0.5 175,-62.5 336,-62.5 336,-0.5 175,-0.5"/>
<text text-anchor="start" x="183" y="-45.7" font-family="Source Sans Pro" font-size="16.00">Illumination&#45;Engine</text>
<text text-anchor="start" x="183" y="-27.7" font-family="Source Sans Pro" font-size="16.00">/src/GraphicsModule</text>
<text text-anchor="middle" x="255.5" y="-9.7" font-family="Source Sans Pro" font-size="16.00">/Image/IETexture.cpp</text>
</a>
</g>
</g>
<!-- Node4&#45;&gt;Node12 -->
<g id="edge11" class="edge">
<title>Node4&#45;&gt;Node12</title>
<path fill="none" stroke="midnightblue" d="M1791.79,-104.82C1785.05,-102.5 1778.21,-100.5 1771.5,-99 1461.89,-29.96 656.72,-119.07 344.5,-63 341.77,-62.51 339,-61.95 336.23,-61.33"/>
<polygon fill="midnightblue" stroke="midnightblue" points="1790.99,-108.25 1801.59,-108.41 1793.4,-101.68 1790.99,-108.25"/>
</g>
<!-- Node4&#45;&gt;Node13 -->
<g id="edge12" class="edge">
<title>Node4&#45;&gt;Node13</title>
<path fill="none" stroke="midnightblue" d="M1952.81,-133.34C2227.93,-117.72 3033.54,-71.53 3089.5,-63 3092.46,-62.55 3095.45,-62.06 3098.46,-61.54"/>
<polygon fill="midnightblue" stroke="midnightblue" points="1952.25,-129.86 1942.46,-133.92 1952.64,-136.85 1952.25,-129.86"/>
</g>
<!-- Node4&#45;&gt;Node14 -->
<g id="edge13" class="edge">
<title>Node4&#45;&gt;Node14</title>
<path fill="none" stroke="midnightblue" d="M1952.48,-136.14C2230.8,-128.54 3068.14,-102.91 3337.5,-63 3340.55,-62.55 3343.63,-62.06 3346.73,-61.53"/>
<polygon fill="midnightblue" stroke="midnightblue" points="1952.32,-132.64 1942.42,-136.41 1952.51,-139.64 1952.32,-132.64"/>
</g>
<!-- Node15 -->
<g id="node15" class="node">
<title>Node15</title>
<g id="a_node15"><a xlink:href="_i_e_material_8cpp.html" target="_top" xlink:title=" ">
<polygon fill="white" stroke="black" points="354,-0.5 354,-62.5 555,-62.5 555,-0.5 354,-0.5"/>
<text text-anchor="start" x="362" y="-45.7" font-family="Source Sans Pro" font-size="16.00">Illumination&#45;Engine</text>
<text text-anchor="start" x="362" y="-27.7" font-family="Source Sans Pro" font-size="16.00">/src/GraphicsModule</text>
<text text-anchor="middle" x="454.5" y="-9.7" font-family="Source Sans Pro" font-size="16.00">/Renderable/IEMaterial.cpp</text>
</a>
</g>
</g>
<!-- Node4&#45;&gt;Node15 -->
<g id="edge14" class="edge">
<title>Node4&#45;&gt;Node15</title>
<path fill="none" stroke="midnightblue" d="M1791.78,-104.85C1785.04,-102.53 1778.21,-100.51 1771.5,-99 1509.51,-39.95 828.99,-103.48 563.5,-63 560.78,-62.59 558.03,-62.12 555.27,-61.62"/>
<polygon fill="midnightblue" stroke="midnightblue" points="1790.98,-108.29 1801.58,-108.45 1793.4,-101.72 1790.98,-108.29"/>
</g>
<!-- Node16 -->
<g id="node16" class="node">
<title>Node16</title>
<g id="a_node16"><a xlink:href="_i_e_mesh_8cpp.html" target="_top" xlink:title=" ">
<polygon fill="white" stroke="black" points="573,-0.5 573,-62.5 756,-62.5 756,-0.5 573,-0.5"/>
<text text-anchor="start" x="581" y="-45.7" font-family="Source Sans Pro" font-size="16.00">Illumination&#45;Engine</text>
<text text-anchor="start" x="581" y="-27.7" font-family="Source Sans Pro" font-size="16.00">/src/GraphicsModule</text>
<text text-anchor="middle" x="664.5" y="-9.7" font-family="Source Sans Pro" font-size="16.00">/Renderable/IEMesh.cpp</text>
</a>
</g>
</g>
<!-- Node4&#45;&gt;Node16 -->
<g id="edge15" class="edge">
<title>Node4&#45;&gt;Node16</title>
<path fill="none" stroke="midnightblue" d="M1791.44,-104.78C1784.8,-102.49 1778.09,-100.51 1771.5,-99 1553.21,-49.12 985.35,-99.98 764.5,-63 761.73,-62.54 758.92,-62.02 756.1,-61.45"/>
<polygon fill="midnightblue" stroke="midnightblue" points="1790.48,-108.15 1801.07,-108.31 1792.89,-101.58 1790.48,-108.15"/>
</g>
<!-- Node17 -->
<g id="node17" class="node">
<title>Node17</title>
<g id="a_node17"><a xlink:href="_i_e_renderable_8cpp.html" target="_top" xlink:title=" ">
<polygon fill="white" stroke="black" points="774,-0.5 774,-62.5 999,-62.5 999,-0.5 774,-0.5"/>
<text text-anchor="start" x="782" y="-45.7" font-family="Source Sans Pro" font-size="16.00">Illumination&#45;Engine</text>
<text text-anchor="start" x="782" y="-27.7" font-family="Source Sans Pro" font-size="16.00">/src/GraphicsModule</text>
<text text-anchor="middle" x="886.5" y="-9.7" font-family="Source Sans Pro" font-size="16.00">/Renderable/IERenderable.cpp</text>
</a>
</g>
</g>
<!-- Node4&#45;&gt;Node17 -->
<g id="edge16" class="edge">
<title>Node4&#45;&gt;Node17</title>
<path fill="none" stroke="midnightblue" d="M1791.42,-104.86C1784.79,-102.56 1778.09,-100.54 1771.5,-99 1440.54,-21.39 1343.77,-112.79 1007.5,-63 1004.71,-62.59 1001.9,-62.14 999.07,-61.66"/>
<polygon fill="midnightblue" stroke="midnightblue" points="1790.46,-108.23 1801.05,-108.41 1792.88,-101.67 1790.46,-108.23"/>
</g>
<!-- Node18 -->
<g id="node18" class="node">
<title>Node18</title>
<g id="a_node18"><a xlink:href="_i_e_descriptor_set_8cpp.html" target="_top" xlink:title=" ">
<polygon fill="white" stroke="black" points="1017,-0.5 1017,-62.5 1224,-62.5 1224,-0.5 1017,-0.5"/>
<text text-anchor="start" x="1025" y="-45.7" font-family="Source Sans Pro" font-size="16.00">Illumination&#45;Engine</text>
<text text-anchor="start" x="1025" y="-27.7" font-family="Source Sans Pro" font-size="16.00">/src/GraphicsModule</text>
<text text-anchor="middle" x="1120.5" y="-9.7" font-family="Source Sans Pro" font-size="16.00">/Shader/IEDescriptorSet.cpp</text>
</a>
</g>
</g>
<!-- Node4&#45;&gt;Node18 -->
<g id="edge17" class="edge">
<title>Node4&#45;&gt;Node18</title>
<path fill="none" stroke="midnightblue" d="M1791.05,-104.88C1784.54,-102.6 1777.96,-100.58 1771.5,-99 1538.73,-41.99 1469.88,-102.41 1233.5,-63 1230.39,-62.48 1227.25,-61.91 1224.08,-61.31"/>
<polygon fill="midnightblue" stroke="midnightblue" points="1789.92,-108.19 1800.52,-108.39 1792.36,-101.63 1789.92,-108.19"/>
</g>
<!-- Node19 -->
<g id="node19" class="node">
<title>Node19</title>
<g id="a_node19"><a xlink:href="_i_e_pipeline_8cpp.html" target="_top" xlink:title=" ">
<polygon fill="white" stroke="black" points="1242.5,-0.5 1242.5,-62.5 1414.5,-62.5 1414.5,-0.5 1242.5,-0.5"/>
<text text-anchor="start" x="1250.5" y="-45.7" font-family="Source Sans Pro" font-size="16.00">Illumination&#45;Engine</text>
<text text-anchor="start" x="1250.5" y="-27.7" font-family="Source Sans Pro" font-size="16.00">/src/GraphicsModule</text>
<text text-anchor="middle" x="1328.5" y="-9.7" font-family="Source Sans Pro" font-size="16.00">/Shader/IEPipeline.cpp</text>
</a>
</g>
</g>
<!-- Node4&#45;&gt;Node19 -->
<g id="edge18" class="edge">
<title>Node4&#45;&gt;Node19</title>
<path fill="none" stroke="midnightblue" d="M1789.87,-104.73C1783.74,-102.56 1777.56,-100.6 1771.5,-99 1621.17,-59.28 1575.68,-94.94 1423.5,-63 1420.53,-62.38 1417.53,-61.7 1414.5,-60.97"/>
<polygon fill="midnightblue" stroke="midnightblue" points="1788.86,-108.09 1799.45,-108.31 1791.31,-101.53 1788.86,-108.09"/>
</g>
<!-- Node20 -->
<g id="node20" class="node">
<title>Node20</title>
<g id="a_node20"><a xlink:href="_i_e_shader_8cpp.html" target="_top" xlink:title=" ">
<polygon fill="white" stroke="black" points="1432.5,-0.5 1432.5,-62.5 1596.5,-62.5 1596.5,-0.5 1432.5,-0.5"/>
<text text-anchor="start" x="1440.5" y="-45.7" font-family="Source Sans Pro" font-size="16.00">Illumination&#45;Engine</text>
<text text-anchor="start" x="1440.5" y="-27.7" font-family="Source Sans Pro" font-size="16.00">/src/GraphicsModule</text>
<text text-anchor="middle" x="1514.5" y="-9.7" font-family="Source Sans Pro" font-size="16.00">/Shader/IEShader.cpp</text>
</a>
</g>
</g>
<!-- Node4&#45;&gt;Node20 -->
<g id="edge19" class="edge">
<title>Node4&#45;&gt;Node20</title>
<path fill="none" stroke="midnightblue" d="M1787.55,-104.66C1782.16,-102.62 1776.78,-100.71 1771.5,-99 1699.69,-75.71 1678.29,-83.03 1605.5,-63 1602.61,-62.2 1599.67,-61.37 1596.72,-60.51"/>
<polygon fill="midnightblue" stroke="midnightblue" points="1786.62,-108.06 1797.21,-108.44 1789.17,-101.54 1786.62,-108.06"/>
</g>
<!-- Node21 -->
<g id="node21" class="node">
<title>Node21</title>
<g id="a_node21"><a xlink:href="main_8cpp.html" target="_top" xlink:title=" ">
<polygon fill="white" stroke="black" points="1614.5,-9.5 1614.5,-53.5 1764.5,-53.5 1764.5,-9.5 1614.5,-9.5"/>
<text text-anchor="start" x="1622.5" y="-36.7" font-family="Source Sans Pro" font-size="16.00">Illumination&#45;Engine</text>
<text text-anchor="middle" x="1689.5" y="-18.7" font-family="Source Sans Pro" font-size="16.00">/src/main.cpp</text>
</a>
</g>
</g>
<!-- Node4&#45;&gt;Node21 -->
<g id="edge20" class="edge">
<title>Node4&#45;&gt;Node21</title>
<path fill="none" stroke="midnightblue" d="M1803.83,-102.96C1777.24,-86.57 1746.58,-67.68 1723.71,-53.58"/>
<polygon fill="midnightblue" stroke="midnightblue" points="1802.32,-106.14 1812.67,-108.41 1805.99,-100.18 1802.32,-106.14"/>
</g>
</g>
</svg>
