<?xml version="1.0" encoding="UTF-8" standalone="no"?>
<!DOCTYPE svg PUBLIC "-//W3C//DTD SVG 1.1//EN"
 "http://www.w3.org/Graphics/SVG/1.1/DTD/svg11.dtd">
<!-- Generated by graphviz version 2.43.0 (0)
 -->
<!-- Title: Illumination&#45;Engine/src/GraphicsModule/CommandBuffer/IEDependent.cpp Pages: 1 -->
<svg width="1327pt" height="440pt"
 viewBox="0.00 0.00 1326.53 440.00" xmlns="http://www.w3.org/2000/svg" xmlns:xlink="http://www.w3.org/1999/xlink">
<g id="graph0" class="graph" transform="scale(1 1) rotate(0) translate(4 436)">
<title>Illumination&#45;Engine/src/GraphicsModule/CommandBuffer/IEDependent.cpp</title>
<polygon fill="white" stroke="transparent" points="-4,4 -4,-436 1322.53,-436 1322.53,4 -4,4"/>
<!-- Node1 -->
<g id="node1" class="node">
<title>Node1</title>
<g id="a_node1"><a xlink:title=" ">
<polygon fill="#bfbfbf" stroke="black" points="319.5,-369.5 319.5,-431.5 576.5,-431.5 576.5,-369.5 319.5,-369.5"/>
<text text-anchor="start" x="327.5" y="-414.7" font-family="Source Sans Pro" font-size="16.00">Illumination&#45;Engine</text>
<text text-anchor="start" x="327.5" y="-396.7" font-family="Source Sans Pro" font-size="16.00">/src/GraphicsModule</text>
<text text-anchor="middle" x="448" y="-378.7" font-family="Source Sans Pro" font-size="16.00">/CommandBuffer/IEDependent.cpp</text>
</a>
</g>
</g>
<!-- Node2 -->
<g id="node2" class="node">
<title>Node2</title>
<g id="a_node2"><a xlink:title=" ">
<polygon fill="white" stroke="#bfbfbf" points="16,-297.5 16,-323.5 98,-323.5 98,-297.5 16,-297.5"/>
<text text-anchor="middle" x="57" y="-306.7" font-family="Source Sans Pro" font-size="16.00">algorithm</text>
</a>
</g>
</g>
<!-- Node1&#45;&gt;Node2 -->
<g id="edge1" class="edge">
<title>Node1&#45;&gt;Node2</title>
<path fill="none" stroke="midnightblue" d="M319.47,-379.57C256.33,-368.39 179.5,-352.7 112,-333 106.26,-331.33 100.29,-329.3 94.48,-327.17"/>
<polygon fill="midnightblue" stroke="midnightblue" points="95.52,-323.82 84.93,-323.52 93.03,-330.36 95.52,-323.82"/>
</g>
<!-- Node3 -->
<g id="node3" class="node">
<title>Node3</title>
<g id="a_node3"><a xlink:title=" ">
<polygon fill="white" stroke="#bfbfbf" points="100,-63.5 100,-89.5 174,-89.5 174,-63.5 100,-63.5"/>
<text text-anchor="middle" x="137" y="-72.7" font-family="Source Sans Pro" font-size="16.00">memory</text>
</a>
</g>
</g>
<!-- Node1&#45;&gt;Node3 -->
<g id="edge2" class="edge">
<title>Node1&#45;&gt;Node3</title>
<path fill="none" stroke="midnightblue" d="M359.67,-369.39C302.97,-345.79 231.97,-307.54 188,-252 169.07,-228.09 149.66,-140.85 141.28,-99.51"/>
<polygon fill="midnightblue" stroke="midnightblue" points="144.69,-98.73 139.31,-89.61 137.83,-100.1 144.69,-98.73"/>
</g>
<!-- Node4 -->
<g id="node4" class="node">
<title>Node4</title>
<g id="a_node4"><a xlink:title=" ">
<polygon fill="white" stroke="#bfbfbf" points="725,-297.5 725,-323.5 801,-323.5 801,-297.5 725,-297.5"/>
<text text-anchor="middle" x="763" y="-306.7" font-family="Source Sans Pro" font-size="16.00">iostream</text>
</a>
</g>
</g>
<!-- Node1&#45;&gt;Node4 -->
<g id="edge3" class="edge">
<title>Node1&#45;&gt;Node4</title>
<path fill="none" stroke="midnightblue" d="M576.55,-372.73C621.22,-362.08 671.31,-348.61 716,-333 720.53,-331.42 725.21,-329.56 729.79,-327.61"/>
<polygon fill="midnightblue" stroke="midnightblue" points="731.24,-330.8 738.96,-323.54 728.4,-324.4 731.24,-330.8"/>
</g>
<!-- Node5 -->
<g id="node5" class="node">
<title>Node5</title>
<g id="a_node5"><a xlink:title=" ">
<polygon fill="white" stroke="#bfbfbf" points="819,-297.5 819,-323.5 891,-323.5 891,-297.5 819,-297.5"/>
<text text-anchor="middle" x="855" y="-306.7" font-family="Source Sans Pro" font-size="16.00">cxxabi.h</text>
</a>
</g>
</g>
<!-- Node1&#45;&gt;Node5 -->
<g id="edge4" class="edge">
<title>Node1&#45;&gt;Node5</title>
<path fill="none" stroke="midnightblue" d="M576.52,-384.32C646.64,-373.95 734.33,-357.55 810,-333 814.38,-331.58 818.88,-329.82 823.27,-327.93"/>
<polygon fill="midnightblue" stroke="midnightblue" points="824.96,-331 832.59,-323.64 822.04,-324.64 824.96,-331"/>
</g>
<!-- Node6 -->
<g id="node6" class="node">
<title>Node6</title>
<g id="a_node6"><a xlink:href="_i_e_dependent_8hpp.html" target="_top" xlink:title=" ">
<polygon fill="white" stroke="black" points="0,-135.5 0,-161.5 136,-161.5 136,-135.5 0,-135.5"/>
<text text-anchor="middle" x="68" y="-144.7" font-family="Source Sans Pro" font-size="16.00">IEDependent.hpp</text>
</a>
</g>
</g>
<!-- Node1&#45;&gt;Node6 -->
<g id="edge5" class="edge">
<title>Node1&#45;&gt;Node6</title>
<path fill="none" stroke="midnightblue" d="M319.5,-382.48C251.35,-371.22 176.37,-354.55 150,-333 98.74,-291.11 78.42,-210.53 71.33,-171.61"/>
<polygon fill="midnightblue" stroke="midnightblue" points="74.76,-170.87 69.64,-161.59 67.86,-172.03 74.76,-170.87"/>
</g>
<!-- Node8 -->
<g id="node8" class="node">
<title>Node8</title>
<g id="a_node8"><a xlink:href="_i_e_buffer_8hpp.html" target="_top" xlink:title=" ">
<polygon fill="white" stroke="black" points="506.5,-216.5 506.5,-242.5 653.5,-242.5 653.5,-216.5 506.5,-216.5"/>
<text text-anchor="middle" x="580" y="-225.7" font-family="Source Sans Pro" font-size="16.00">Buffer/IEBuffer.hpp</text>
</a>
</g>
</g>
<!-- Node1&#45;&gt;Node8 -->
<g id="edge8" class="edge">
<title>Node1&#45;&gt;Node8</title>
<path fill="none" stroke="midnightblue" d="M452.82,-369.34C457.93,-345.23 467.99,-311.66 487,-288 501.14,-270.4 522.21,-256.75 540.72,-247.17"/>
<polygon fill="midnightblue" stroke="midnightblue" points="542.42,-250.23 549.83,-242.66 539.32,-243.96 542.42,-250.23"/>
</g>
<!-- Node9 -->
<g id="node9" class="node">
<title>Node9</title>
<g id="a_node9"><a xlink:href="_i_e_dependency_8hpp.html" target="_top" xlink:title=" ">
<polygon fill="white" stroke="black" points="306.5,-126.5 306.5,-170.5 551.5,-170.5 551.5,-126.5 306.5,-126.5"/>
<text text-anchor="start" x="314.5" y="-153.7" font-family="Source Sans Pro" font-size="16.00">GraphicsModule/CommandBuffer</text>
<text text-anchor="middle" x="429" y="-135.7" font-family="Source Sans Pro" font-size="16.00">/IEDependency.hpp</text>
</a>
</g>
</g>
<!-- Node1&#45;&gt;Node9 -->
<g id="edge41" class="edge">
<title>Node1&#45;&gt;Node9</title>
<path fill="none" stroke="midnightblue" d="M445.71,-369.34C442.08,-321.65 435.06,-229.28 431.38,-180.85"/>
<polygon fill="midnightblue" stroke="midnightblue" points="434.86,-180.36 430.61,-170.66 427.88,-180.89 434.86,-180.36"/>
</g>
<!-- Node18 -->
<g id="node18" class="node">
<title>Node18</title>
<g id="a_node18"><a xlink:href="_i_e_framebuffer_8hpp.html" target="_top" xlink:title=" ">
<polygon fill="white" stroke="black" points="495.5,-288.5 495.5,-332.5 706.5,-332.5 706.5,-288.5 495.5,-288.5"/>
<text text-anchor="start" x="503.5" y="-315.7" font-family="Source Sans Pro" font-size="16.00">GraphicsModule/RenderPass</text>
<text text-anchor="middle" x="601" y="-297.7" font-family="Source Sans Pro" font-size="16.00">/IEFramebuffer.hpp</text>
</a>
</g>
</g>
<!-- Node1&#45;&gt;Node18 -->
<g id="edge26" class="edge">
<title>Node1&#45;&gt;Node18</title>
<path fill="none" stroke="midnightblue" d="M500.23,-369.46C518.21,-359.12 538.2,-347.62 555.6,-337.61"/>
<polygon fill="midnightblue" stroke="midnightblue" points="557.51,-340.55 564.43,-332.53 554.02,-334.48 557.51,-340.55"/>
</g>
<!-- Node6&#45;&gt;Node3 -->
<g id="edge7" class="edge">
<title>Node6&#45;&gt;Node3</title>
<path fill="none" stroke="midnightblue" d="M80.02,-135.31C90.51,-124.67 105.9,-109.05 118.05,-96.73"/>
<polygon fill="midnightblue" stroke="midnightblue" points="120.59,-99.13 125.12,-89.55 115.61,-94.22 120.59,-99.13"/>
</g>
<!-- Node7 -->
<g id="node7" class="node">
<title>Node7</title>
<g id="a_node7"><a xlink:title=" ">
<polygon fill="white" stroke="#bfbfbf" points="229.5,-0.5 229.5,-26.5 288.5,-26.5 288.5,-0.5 229.5,-0.5"/>
<text text-anchor="middle" x="259" y="-9.7" font-family="Source Sans Pro" font-size="16.00">vector</text>
</a>
</g>
</g>
<!-- Node6&#45;&gt;Node7 -->
<g id="edge6" class="edge">
<title>Node6&#45;&gt;Node7</title>
<path fill="none" stroke="midnightblue" d="M67.79,-135.34C68.15,-117.11 71.58,-82.72 91,-63 124.78,-28.7 181.18,-18.28 219.21,-15.32"/>
<polygon fill="midnightblue" stroke="midnightblue" points="219.66,-18.8 229.42,-14.67 219.21,-11.82 219.66,-18.8"/>
</g>
<!-- Node8&#45;&gt;Node7 -->
<g id="edge23" class="edge">
<title>Node8&#45;&gt;Node7</title>
<path fill="none" stroke="midnightblue" d="M506.35,-225.48C423,-220.36 294.81,-206.74 264,-171 231.65,-133.47 242.83,-70.04 251.96,-36.63"/>
<polygon fill="midnightblue" stroke="midnightblue" points="255.35,-37.48 254.79,-26.9 248.63,-35.52 255.35,-37.48"/>
</g>
<!-- Node8&#45;&gt;Node9 -->
<g id="edge9" class="edge">
<title>Node8&#45;&gt;Node9</title>
<path fill="none" stroke="midnightblue" d="M556.74,-216.33C535.94,-205.45 504.78,-189.15 478.44,-175.36"/>
<polygon fill="midnightblue" stroke="midnightblue" points="479.83,-172.14 469.35,-170.61 476.58,-178.35 479.83,-172.14"/>
</g>
<!-- Node10 -->
<g id="node10" class="node">
<title>Node10</title>
<g id="a_node10"><a xlink:title=" ">
<polygon fill="white" stroke="#bfbfbf" points="673.5,-63.5 673.5,-89.5 798.5,-89.5 798.5,-63.5 673.5,-63.5"/>
<text text-anchor="middle" x="736" y="-72.7" font-family="Source Sans Pro" font-size="16.00">vulkan/vulkan.h</text>
</a>
</g>
</g>
<!-- Node8&#45;&gt;Node10 -->
<g id="edge22" class="edge">
<title>Node8&#45;&gt;Node10</title>
<path fill="none" stroke="midnightblue" d="M578.8,-216.45C577.4,-195.47 577.65,-151.98 600,-126 616.16,-107.21 640.13,-95.7 663.46,-88.65"/>
<polygon fill="midnightblue" stroke="midnightblue" points="664.7,-91.94 673.39,-85.89 662.82,-85.19 664.7,-91.94"/>
</g>
<!-- Node12 -->
<g id="node12" class="node">
<title>Node12</title>
<g id="a_node12"><a xlink:href="_i_e_a_p_i_8hpp.html" target="_top" xlink:title=" ">
<polygon fill="white" stroke="black" points="1037.5,-135.5 1037.5,-161.5 1120.5,-161.5 1120.5,-135.5 1037.5,-135.5"/>
<text text-anchor="middle" x="1079" y="-144.7" font-family="Source Sans Pro" font-size="16.00">IEAPI.hpp</text>
</a>
</g>
</g>
<!-- Node8&#45;&gt;Node12 -->
<g id="edge14" class="edge">
<title>Node8&#45;&gt;Node12</title>
<path fill="none" stroke="midnightblue" d="M653.81,-217.41C728.9,-206.05 848.62,-187.74 952,-171 976.81,-166.98 1004.3,-162.35 1027.35,-158.42"/>
<polygon fill="midnightblue" stroke="midnightblue" points="1028,-161.86 1037.27,-156.72 1026.82,-154.96 1028,-161.86"/>
</g>
<!-- Node14 -->
<g id="node14" class="node">
<title>Node14</title>
<g id="a_node14"><a xlink:title=" ">
<polygon fill="white" stroke="#bfbfbf" points="1034.5,-0.5 1034.5,-26.5 1097.5,-26.5 1097.5,-0.5 1034.5,-0.5"/>
<text text-anchor="middle" x="1066" y="-9.7" font-family="Source Sans Pro" font-size="16.00">cstdint</text>
</a>
</g>
</g>
<!-- Node8&#45;&gt;Node14 -->
<g id="edge24" class="edge">
<title>Node8&#45;&gt;Node14</title>
<path fill="none" stroke="midnightblue" d="M506.35,-225.85C403.82,-219.54 237.15,-198.19 298,-126 345.38,-69.79 870.23,-28.38 1023.94,-17.39"/>
<polygon fill="midnightblue" stroke="midnightblue" points="1024.63,-20.85 1034.36,-16.65 1024.13,-13.87 1024.63,-20.85"/>
</g>
<!-- Node15 -->
<g id="node15" class="node">
<title>Node15</title>
<g id="a_node15"><a xlink:title=" ">
<polygon fill="white" stroke="#bfbfbf" points="709.5,-135.5 709.5,-161.5 838.5,-161.5 838.5,-135.5 709.5,-135.5"/>
<text text-anchor="middle" x="774" y="-144.7" font-family="Source Sans Pro" font-size="16.00">vk_mem_alloc.h</text>
</a>
</g>
</g>
<!-- Node8&#45;&gt;Node15 -->
<g id="edge20" class="edge">
<title>Node8&#45;&gt;Node15</title>
<path fill="none" stroke="midnightblue" d="M609.89,-216.33C643.45,-202.66 698.04,-180.43 734.95,-165.4"/>
<polygon fill="midnightblue" stroke="midnightblue" points="736.46,-168.57 744.4,-161.55 733.82,-162.08 736.46,-168.57"/>
</g>
<!-- Node16 -->
<g id="node16" class="node">
<title>Node16</title>
<g id="a_node16"><a xlink:title=" ">
<polygon fill="white" stroke="#bfbfbf" points="608.5,-135.5 608.5,-161.5 691.5,-161.5 691.5,-135.5 608.5,-135.5"/>
<text text-anchor="middle" x="650" y="-144.7" font-family="Source Sans Pro" font-size="16.00">GL/glew.h</text>
</a>
</g>
</g>
<!-- Node8&#45;&gt;Node16 -->
<g id="edge21" class="edge">
<title>Node8&#45;&gt;Node16</title>
<path fill="none" stroke="midnightblue" d="M590.94,-216.16C602.03,-203.63 619.38,-184.05 632.41,-169.35"/>
<polygon fill="midnightblue" stroke="midnightblue" points="635.13,-171.56 639.14,-161.76 629.89,-166.92 635.13,-171.56"/>
</g>
<!-- Node17 -->
<g id="node17" class="node">
<title>Node17</title>
<g id="a_node17"><a xlink:title=" ">
<polygon fill="white" stroke="#bfbfbf" points="857,-135.5 857,-161.5 943,-161.5 943,-135.5 857,-135.5"/>
<text text-anchor="middle" x="900" y="-144.7" font-family="Source Sans Pro" font-size="16.00">functional</text>
</a>
</g>
</g>
<!-- Node8&#45;&gt;Node17 -->
<g id="edge25" class="edge">
<title>Node8&#45;&gt;Node17</title>
<path fill="none" stroke="midnightblue" d="M653.15,-216.5C707.55,-206.68 783.25,-191.15 848,-171 853.25,-169.37 858.7,-167.41 864.01,-165.36"/>
<polygon fill="midnightblue" stroke="midnightblue" points="865.38,-168.58 873.35,-161.6 862.77,-162.09 865.38,-168.58"/>
</g>
<!-- Node9&#45;&gt;Node3 -->
<g id="edge13" class="edge">
<title>Node9&#45;&gt;Node3</title>
<path fill="none" stroke="midnightblue" d="M341.39,-126.5C289.76,-114.12 226.46,-98.95 184.11,-88.79"/>
<polygon fill="midnightblue" stroke="midnightblue" points="184.88,-85.38 174.34,-86.45 183.25,-92.19 184.88,-85.38"/>
</g>
<!-- Node9&#45;&gt;Node7 -->
<g id="edge10" class="edge">
<title>Node9&#45;&gt;Node7</title>
<path fill="none" stroke="midnightblue" d="M402.06,-126.43C369.2,-100.72 314.16,-57.65 282.79,-33.12"/>
<polygon fill="midnightblue" stroke="midnightblue" points="284.65,-30.12 274.61,-26.71 280.33,-35.63 284.65,-30.12"/>
</g>
<!-- Node9&#45;&gt;Node10 -->
<g id="edge11" class="edge">
<title>Node9&#45;&gt;Node10</title>
<path fill="none" stroke="midnightblue" d="M521.11,-126.5C570.27,-115.29 629.48,-101.79 673.29,-91.8"/>
<polygon fill="midnightblue" stroke="midnightblue" points="674.26,-95.17 683.24,-89.53 672.71,-88.34 674.26,-95.17"/>
</g>
<!-- Node11 -->
<g id="node11" class="node">
<title>Node11</title>
<g id="a_node11"><a xlink:title=" ">
<polygon fill="white" stroke="#bfbfbf" points="1197.5,-0.5 1197.5,-26.5 1252.5,-26.5 1252.5,-0.5 1197.5,-0.5"/>
<text text-anchor="middle" x="1225" y="-9.7" font-family="Source Sans Pro" font-size="16.00">string</text>
</a>
</g>
</g>
<!-- Node9&#45;&gt;Node11 -->
<g id="edge12" class="edge">
<title>Node9&#45;&gt;Node11</title>
<path fill="none" stroke="midnightblue" d="M551.73,-131.21C567.95,-129.31 584.36,-127.51 600,-126 717.5,-114.63 1019.93,-132.65 1130,-90 1160.83,-78.05 1189.57,-52.37 1207.19,-34.29"/>
<polygon fill="midnightblue" stroke="midnightblue" points="1210.14,-36.27 1214.47,-26.6 1205.06,-31.46 1210.14,-36.27"/>
</g>
<!-- Node12&#45;&gt;Node11 -->
<g id="edge19" class="edge">
<title>Node12&#45;&gt;Node11</title>
<path fill="none" stroke="midnightblue" d="M1120.75,-137.14C1147.15,-128.58 1180.1,-113.87 1201,-90 1213.96,-75.2 1219.93,-53.38 1222.67,-36.99"/>
<polygon fill="midnightblue" stroke="midnightblue" points="1226.2,-37.06 1224.1,-26.67 1219.26,-36.1 1226.2,-37.06"/>
</g>
<!-- Node13 -->
<g id="node13" class="node">
<title>Node13</title>
<g id="a_node13"><a xlink:href="_i_e_version_8hpp.html" target="_top" xlink:title=" ">
<polygon fill="white" stroke="black" points="1011,-63.5 1011,-89.5 1121,-89.5 1121,-63.5 1011,-63.5"/>
<text text-anchor="middle" x="1066" y="-72.7" font-family="Source Sans Pro" font-size="16.00">IEVersion.hpp</text>
</a>
</g>
</g>
<!-- Node12&#45;&gt;Node13 -->
<g id="edge15" class="edge">
<title>Node12&#45;&gt;Node13</title>
<path fill="none" stroke="midnightblue" d="M1076.74,-135.31C1074.91,-125.47 1072.29,-111.38 1070.1,-99.57"/>
<polygon fill="midnightblue" stroke="midnightblue" points="1073.51,-98.75 1068.24,-89.55 1066.62,-100.02 1073.51,-98.75"/>
</g>
<!-- Node13&#45;&gt;Node7 -->
<g id="edge18" class="edge">
<title>Node13&#45;&gt;Node7</title>
<path fill="none" stroke="midnightblue" d="M1010.72,-64.92C1006.09,-64.2 1001.47,-63.55 997,-63 731.57,-30.34 409.53,-18.72 298.7,-15.52"/>
<polygon fill="midnightblue" stroke="midnightblue" points="298.74,-12.02 288.64,-15.24 298.54,-19.02 298.74,-12.02"/>
</g>
<!-- Node13&#45;&gt;Node11 -->
<g id="edge17" class="edge">
<title>Node13&#45;&gt;Node11</title>
<path fill="none" stroke="midnightblue" d="M1097.41,-63.45C1123.37,-53.49 1160.28,-39.33 1187.72,-28.8"/>
<polygon fill="midnightblue" stroke="midnightblue" points="1189.29,-31.95 1197.37,-25.1 1186.78,-25.41 1189.29,-31.95"/>
</g>
<!-- Node13&#45;&gt;Node14 -->
<g id="edge16" class="edge">
<title>Node13&#45;&gt;Node14</title>
<path fill="none" stroke="midnightblue" d="M1066,-63.45C1066,-55.85 1066,-45.79 1066,-36.78"/>
<polygon fill="midnightblue" stroke="midnightblue" points="1069.5,-36.53 1066,-26.53 1062.5,-36.53 1069.5,-36.53"/>
</g>
<!-- Node18&#45;&gt;Node7 -->
<g id="edge40" class="edge">
<title>Node18&#45;&gt;Node7</title>
<path fill="none" stroke="midnightblue" d="M495.17,-300.04C410.88,-286.34 297.77,-252.86 240,-171 211.25,-130.27 233.04,-68.26 247.99,-35.88"/>
<polygon fill="midnightblue" stroke="midnightblue" points="251.16,-37.37 252.35,-26.84 244.86,-34.33 251.16,-37.37"/>
</g>
<!-- Node18&#45;&gt;Node10 -->
<g id="edge38" class="edge">
<title>Node18&#45;&gt;Node10</title>
<path fill="none" stroke="midnightblue" d="M706.54,-289.42C709.72,-288.92 712.88,-288.45 716,-288 843.98,-269.51 1212.11,-277.11 1286,-171 1297.43,-154.59 1299.51,-140.75 1286,-126 1270.11,-108.64 954.85,-89.37 808.94,-81.34"/>
<polygon fill="midnightblue" stroke="midnightblue" points="808.91,-77.83 798.74,-80.78 808.53,-84.82 808.91,-77.83"/>
</g>
<!-- Node18&#45;&gt;Node11 -->
<g id="edge39" class="edge">
<title>Node18&#45;&gt;Node11</title>
<path fill="none" stroke="midnightblue" d="M706.52,-289.32C709.71,-288.85 712.88,-288.41 716,-288 921.95,-260.87 985.34,-318.89 1182,-252 1244.32,-230.8 1274.67,-228.89 1306,-171 1329.13,-128.27 1316.15,-103.3 1289,-63 1280.74,-50.75 1268.35,-40.33 1256.67,-32.32"/>
<polygon fill="midnightblue" stroke="midnightblue" points="1258.25,-29.17 1247.95,-26.68 1254.44,-35.05 1258.25,-29.17"/>
</g>
<!-- Node19 -->
<g id="node19" class="node">
<title>Node19</title>
<g id="a_node19"><a xlink:href="_i_e_image_8hpp.html" target="_top" xlink:title=" ">
<polygon fill="white" stroke="black" points="884,-207.5 884,-251.5 1058,-251.5 1058,-207.5 884,-207.5"/>
<text text-anchor="start" x="892" y="-234.7" font-family="Source Sans Pro" font-size="16.00">GraphicsModule/Image</text>
<text text-anchor="middle" x="971" y="-216.7" font-family="Source Sans Pro" font-size="16.00">/IEImage.hpp</text>
</a>
</g>
</g>
<!-- Node18&#45;&gt;Node19 -->
<g id="edge27" class="edge">
<title>Node18&#45;&gt;Node19</title>
<path fill="none" stroke="midnightblue" d="M699.67,-288.43C753.68,-276.9 820.34,-262.67 874.08,-251.19"/>
<polygon fill="midnightblue" stroke="midnightblue" points="874.91,-254.6 883.96,-249.09 873.45,-247.75 874.91,-254.6"/>
</g>
<!-- Node19&#45;&gt;Node7 -->
<g id="edge36" class="edge">
<title>Node19&#45;&gt;Node7</title>
<path fill="none" stroke="midnightblue" d="M978.74,-207.2C985.37,-184.9 991.51,-149.88 975,-126 929.88,-60.75 885.34,-80.65 808,-63 620.91,-20.29 390.01,-14.73 298.77,-14.33"/>
<polygon fill="midnightblue" stroke="midnightblue" points="298.61,-10.83 288.6,-14.3 298.59,-17.83 298.61,-10.83"/>
</g>
<!-- Node19&#45;&gt;Node9 -->
<g id="edge28" class="edge">
<title>Node19&#45;&gt;Node9</title>
<path fill="none" stroke="midnightblue" d="M883.92,-215.81C796.89,-203.12 661.96,-183.46 561.62,-168.83"/>
<polygon fill="midnightblue" stroke="midnightblue" points="562.12,-165.37 551.72,-167.39 561.11,-172.29 562.12,-165.37"/>
</g>
<!-- Node19&#45;&gt;Node10 -->
<g id="edge32" class="edge">
<title>Node19&#45;&gt;Node10</title>
<path fill="none" stroke="midnightblue" d="M973.33,-207.43C974.64,-184.31 972.84,-147.64 952,-126 932.3,-105.54 863.35,-92.54 808.58,-85.2"/>
<polygon fill="midnightblue" stroke="midnightblue" points="808.9,-81.72 798.53,-83.9 808,-88.66 808.9,-81.72"/>
</g>
<!-- Node19&#45;&gt;Node11 -->
<g id="edge35" class="edge">
<title>Node19&#45;&gt;Node11</title>
<path fill="none" stroke="midnightblue" d="M1058.26,-224.74C1141.23,-219.12 1257.47,-205.21 1286,-171 1320.61,-129.5 1273.16,-66.09 1244.31,-34.22"/>
<polygon fill="midnightblue" stroke="midnightblue" points="1246.81,-31.77 1237.44,-26.83 1241.68,-36.54 1246.81,-31.77"/>
</g>
<!-- Node19&#45;&gt;Node12 -->
<g id="edge29" class="edge">
<title>Node19&#45;&gt;Node12</title>
<path fill="none" stroke="midnightblue" d="M999.94,-207.33C1016.81,-194.99 1037.87,-179.58 1054.02,-167.77"/>
<polygon fill="midnightblue" stroke="midnightblue" points="1056.42,-170.36 1062.42,-161.63 1052.28,-164.71 1056.42,-170.36"/>
</g>
<!-- Node19&#45;&gt;Node14 -->
<g id="edge34" class="edge">
<title>Node19&#45;&gt;Node14</title>
<path fill="none" stroke="midnightblue" d="M1058.22,-216.99C1085.75,-208.78 1113.31,-194.79 1130,-171 1157.57,-131.71 1151.36,-105.99 1130,-63 1123.62,-50.17 1112.05,-39.82 1100.48,-32.03"/>
<polygon fill="midnightblue" stroke="midnightblue" points="1102.06,-28.89 1091.72,-26.57 1098.35,-34.83 1102.06,-28.89"/>
</g>
<!-- Node19&#45;&gt;Node15 -->
<g id="edge31" class="edge">
<title>Node19&#45;&gt;Node15</title>
<path fill="none" stroke="midnightblue" d="M918.47,-207.43C885.45,-194.19 843.56,-177.39 813.39,-165.3"/>
<polygon fill="midnightblue" stroke="midnightblue" points="814.62,-162.02 804.04,-161.55 812.02,-168.52 814.62,-162.02"/>
</g>
<!-- Node19&#45;&gt;Node16 -->
<g id="edge30" class="edge">
<title>Node19&#45;&gt;Node16</title>
<path fill="none" stroke="midnightblue" d="M883.89,-214.28C830.46,-204.49 761.01,-189.85 701,-171 695.79,-169.36 690.37,-167.39 685.1,-165.31"/>
<polygon fill="midnightblue" stroke="midnightblue" points="686.43,-162.08 675.85,-161.52 683.77,-168.55 686.43,-162.08"/>
</g>
<!-- Node19&#45;&gt;Node17 -->
<g id="edge37" class="edge">
<title>Node19&#45;&gt;Node17</title>
<path fill="none" stroke="midnightblue" d="M951.97,-207.33C941.29,-195.45 928.06,-180.72 917.62,-169.1"/>
<polygon fill="midnightblue" stroke="midnightblue" points="920.19,-166.73 910.9,-161.63 914.98,-171.4 920.19,-166.73"/>
</g>
<!-- Node20 -->
<g id="node20" class="node">
<title>Node20</title>
<g id="a_node20"><a xlink:title=" ">
<polygon fill="white" stroke="#bfbfbf" points="1177,-135.5 1177,-161.5 1277,-161.5 1277,-135.5 1177,-135.5"/>
<text text-anchor="middle" x="1227" y="-144.7" font-family="Source Sans Pro" font-size="16.00">stb_image.h</text>
</a>
</g>
</g>
<!-- Node19&#45;&gt;Node20 -->
<g id="edge33" class="edge">
<title>Node19&#45;&gt;Node20</title>
<path fill="none" stroke="midnightblue" d="M1043.2,-207.49C1079.27,-196.84 1123.54,-183.53 1163,-171 1169.16,-169.04 1175.63,-166.93 1182,-164.83"/>
<polygon fill="midnightblue" stroke="midnightblue" points="1183.48,-168.02 1191.86,-161.54 1181.26,-161.38 1183.48,-168.02"/>
</g>
</g>
</svg>
