<?xml version="1.0" encoding="UTF-8" standalone="no"?>
<!DOCTYPE svg PUBLIC "-//W3C//DTD SVG 1.1//EN"
 "http://www.w3.org/Graphics/SVG/1.1/DTD/svg11.dtd">
<!-- Generated by graphviz version 2.43.0 (0)
 -->
<!-- Title: Illumination&#45;Engine/src/InputModule/IEKeyboard.hpp Pages: 1 -->
<svg width="880pt" height="179pt"
 viewBox="0.00 0.00 879.50 179.00" xmlns="http://www.w3.org/2000/svg" xmlns:xlink="http://www.w3.org/1999/xlink">
<g id="graph0" class="graph" transform="scale(1 1) rotate(0) translate(4 175)">
<title>Illumination&#45;Engine/src/InputModule/IEKeyboard.hpp</title>
<polygon fill="white" stroke="transparent" points="-4,4 -4,-175 875.5,-175 875.5,4 -4,4"/>
<!-- Node1 -->
<g id="node1" class="node">
<title>Node1</title>
<g id="a_node1"><a xlink:title=" ">
<polygon fill="#bfbfbf" stroke="black" points="381,-126.5 381,-170.5 629,-170.5 629,-126.5 381,-126.5"/>
<text text-anchor="start" x="389" y="-153.7" font-family="Source Sans Pro" font-size="16.00">Illumination&#45;Engine</text>
<text text-anchor="middle" x="505" y="-135.7" font-family="Source Sans Pro" font-size="16.00">/src/InputModule/IEKeyboard.hpp</text>
</a>
</g>
</g>
<!-- Node2 -->
<g id="node2" class="node">
<title>Node2</title>
<g id="a_node2"><a xlink:href="_i_e_window_user_8hpp.html" target="_top" xlink:title=" ">
<polygon fill="white" stroke="black" points="0,-63.5 0,-89.5 194,-89.5 194,-63.5 0,-63.5"/>
<text text-anchor="middle" x="97" y="-72.7" font-family="Source Sans Pro" font-size="16.00">../Core/IEWindowUser.hpp</text>
</a>
</g>
</g>
<!-- Node1&#45;&gt;Node2 -->
<g id="edge1" class="edge">
<title>Node1&#45;&gt;Node2</title>
<path fill="none" stroke="midnightblue" d="M382.59,-126.5C316.02,-115.08 235.58,-101.28 177.05,-91.23"/>
<polygon fill="midnightblue" stroke="midnightblue" points="177.57,-87.77 167.12,-89.53 176.39,-94.67 177.57,-87.77"/>
</g>
<!-- Node4 -->
<g id="node4" class="node">
<title>Node4</title>
<g id="a_node4"><a xlink:title=" ">
<polygon fill="white" stroke="#bfbfbf" points="212,-63.5 212,-89.5 350,-89.5 350,-63.5 212,-63.5"/>
<text text-anchor="middle" x="281" y="-72.7" font-family="Source Sans Pro" font-size="16.00">include/GL/glew.h</text>
</a>
</g>
</g>
<!-- Node1&#45;&gt;Node4 -->
<g id="edge3" class="edge">
<title>Node1&#45;&gt;Node4</title>
<path fill="none" stroke="midnightblue" d="M437.79,-126.5C402.91,-115.6 361.08,-102.53 329.41,-92.63"/>
<polygon fill="midnightblue" stroke="midnightblue" points="330.09,-89.17 319.5,-89.53 328,-95.85 330.09,-89.17"/>
</g>
<!-- Node5 -->
<g id="node5" class="node">
<title>Node5</title>
<g id="a_node5"><a xlink:title=" ">
<polygon fill="white" stroke="#bfbfbf" points="368.5,-63.5 368.5,-89.5 409.5,-89.5 409.5,-63.5 368.5,-63.5"/>
<text text-anchor="middle" x="389" y="-72.7" font-family="Source Sans Pro" font-size="16.00">any</text>
</a>
</g>
</g>
<!-- Node1&#45;&gt;Node5 -->
<g id="edge4" class="edge">
<title>Node1&#45;&gt;Node5</title>
<path fill="none" stroke="midnightblue" d="M470.2,-126.5C453.46,-116.4 433.64,-104.44 417.77,-94.86"/>
<polygon fill="midnightblue" stroke="midnightblue" points="419.31,-91.7 408.94,-89.53 415.69,-97.69 419.31,-91.7"/>
</g>
<!-- Node6 -->
<g id="node6" class="node">
<title>Node6</title>
<g id="a_node6"><a xlink:title=" ">
<polygon fill="white" stroke="#bfbfbf" points="427.5,-63.5 427.5,-89.5 490.5,-89.5 490.5,-63.5 427.5,-63.5"/>
<text text-anchor="middle" x="459" y="-72.7" font-family="Source Sans Pro" font-size="16.00">cstdint</text>
</a>
</g>
</g>
<!-- Node1&#45;&gt;Node6 -->
<g id="edge5" class="edge">
<title>Node1&#45;&gt;Node6</title>
<path fill="none" stroke="midnightblue" d="M491.2,-126.5C485.31,-117.53 478.45,-107.1 472.58,-98.17"/>
<polygon fill="midnightblue" stroke="midnightblue" points="475.32,-95.97 466.91,-89.53 469.47,-99.81 475.32,-95.97"/>
</g>
<!-- Node7 -->
<g id="node7" class="node">
<title>Node7</title>
<g id="a_node7"><a xlink:title=" ">
<polygon fill="white" stroke="#bfbfbf" points="509,-63.5 509,-89.5 595,-89.5 595,-63.5 509,-63.5"/>
<text text-anchor="middle" x="552" y="-72.7" font-family="Source Sans Pro" font-size="16.00">functional</text>
</a>
</g>
</g>
<!-- Node1&#45;&gt;Node7 -->
<g id="edge6" class="edge">
<title>Node1&#45;&gt;Node7</title>
<path fill="none" stroke="midnightblue" d="M519.1,-126.5C525.19,-117.44 532.28,-106.88 538.31,-97.89"/>
<polygon fill="midnightblue" stroke="midnightblue" points="541.25,-99.78 543.92,-89.53 535.44,-95.88 541.25,-99.78"/>
</g>
<!-- Node8 -->
<g id="node8" class="node">
<title>Node8</title>
<g id="a_node8"><a xlink:title=" ">
<polygon fill="white" stroke="#bfbfbf" points="613,-63.5 613,-89.5 721,-89.5 721,-63.5 613,-63.5"/>
<text text-anchor="middle" x="667" y="-72.7" font-family="Source Sans Pro" font-size="16.00">GLFW/glfw3.h</text>
</a>
</g>
</g>
<!-- Node1&#45;&gt;Node8 -->
<g id="edge7" class="edge">
<title>Node1&#45;&gt;Node8</title>
<path fill="none" stroke="midnightblue" d="M553.61,-126.5C578.07,-115.93 607.26,-103.32 629.89,-93.54"/>
<polygon fill="midnightblue" stroke="midnightblue" points="631.37,-96.71 639.16,-89.53 628.59,-90.28 631.37,-96.71"/>
</g>
<!-- Node9 -->
<g id="node9" class="node">
<title>Node9</title>
<g id="a_node9"><a xlink:title=" ">
<polygon fill="white" stroke="#bfbfbf" points="739.5,-63.5 739.5,-89.5 794.5,-89.5 794.5,-63.5 739.5,-63.5"/>
<text text-anchor="middle" x="767" y="-72.7" font-family="Source Sans Pro" font-size="16.00">string</text>
</a>
</g>
</g>
<!-- Node1&#45;&gt;Node9 -->
<g id="edge8" class="edge">
<title>Node1&#45;&gt;Node9</title>
<path fill="none" stroke="midnightblue" d="M593.85,-126.44C632.89,-116.79 679.42,-104.76 729.47,-90.03"/>
<polygon fill="midnightblue" stroke="midnightblue" points="730.6,-93.34 739.19,-87.15 728.61,-86.63 730.6,-93.34"/>
</g>
<!-- Node10 -->
<g id="node10" class="node">
<title>Node10</title>
<g id="a_node10"><a xlink:title=" ">
<polygon fill="white" stroke="#bfbfbf" points="812.5,-63.5 812.5,-89.5 871.5,-89.5 871.5,-63.5 812.5,-63.5"/>
<text text-anchor="middle" x="842" y="-72.7" font-family="Source Sans Pro" font-size="16.00">vector</text>
</a>
</g>
</g>
<!-- Node1&#45;&gt;Node10 -->
<g id="edge9" class="edge">
<title>Node1&#45;&gt;Node10</title>
<path fill="none" stroke="midnightblue" d="M629.08,-127.31C680.42,-118.06 740.61,-106.06 802.32,-90.26"/>
<polygon fill="midnightblue" stroke="midnightblue" points="803.43,-93.59 812.24,-87.69 801.68,-86.81 803.43,-93.59"/>
</g>
<!-- Node3 -->
<g id="node3" class="node">
<title>Node3</title>
<g id="a_node3"><a xlink:title=" ">
<polygon fill="white" stroke="#bfbfbf" points="60,-0.5 60,-26.5 134,-26.5 134,-0.5 60,-0.5"/>
<text text-anchor="middle" x="97" y="-9.7" font-family="Source Sans Pro" font-size="16.00">memory</text>
</a>
</g>
</g>
<!-- Node2&#45;&gt;Node3 -->
<g id="edge2" class="edge">
<title>Node2&#45;&gt;Node3</title>
<path fill="none" stroke="midnightblue" d="M97,-63.45C97,-55.85 97,-45.79 97,-36.78"/>
<polygon fill="midnightblue" stroke="midnightblue" points="100.5,-36.53 97,-26.53 93.5,-36.53 100.5,-36.53"/>
</g>
</g>
</svg>
