<?xml version="1.0" encoding="UTF-8" standalone="no"?>
<!DOCTYPE svg PUBLIC "-//W3C//DTD SVG 1.1//EN"
 "http://www.w3.org/Graphics/SVG/1.1/DTD/svg11.dtd">
<!-- Generated by graphviz version 2.43.0 (0)
 -->
<!-- Title: Illumination&#45;Engine/src/GraphicsModule/Buffer/IEBuffer.hpp Pages: 1 -->
<svg width="3581pt" height="737pt"
 viewBox="0.00 0.00 3581.00 737.00" xmlns="http://www.w3.org/2000/svg" xmlns:xlink="http://www.w3.org/1999/xlink">
<g id="graph0" class="graph" transform="scale(1 1) rotate(0) translate(4 733)">
<title>Illumination&#45;Engine/src/GraphicsModule/Buffer/IEBuffer.hpp</title>
<polygon fill="white" stroke="transparent" points="-4,4 -4,-733 3577,-733 3577,4 -4,4"/>
<!-- Node1 -->
<g id="node1" class="node">
<title>Node1</title>
<g id="a_node1"><a xlink:title=" ">
<polygon fill="#bfbfbf" stroke="black" points="2424,-666.5 2424,-728.5 2581,-728.5 2581,-666.5 2424,-666.5"/>
<text text-anchor="start" x="2432" y="-711.7" font-family="Source Sans Pro" font-size="16.00">Illumination&#45;Engine</text>
<text text-anchor="start" x="2432" y="-693.7" font-family="Source Sans Pro" font-size="16.00">/src/GraphicsModule</text>
<text text-anchor="middle" x="2502.5" y="-675.7" font-family="Source Sans Pro" font-size="16.00">/Buffer/IEBuffer.hpp</text>
</a>
</g>
</g>
<!-- Node2 -->
<g id="node2" class="node">
<title>Node2</title>
<g id="a_node2"><a xlink:href="_i_e_buffer_8cpp.html" target="_top" xlink:title=" ">
<polygon fill="white" stroke="black" points="0,-0.5 0,-62.5 157,-62.5 157,-0.5 0,-0.5"/>
<text text-anchor="start" x="8" y="-45.7" font-family="Source Sans Pro" font-size="16.00">Illumination&#45;Engine</text>
<text text-anchor="start" x="8" y="-27.7" font-family="Source Sans Pro" font-size="16.00">/src/GraphicsModule</text>
<text text-anchor="middle" x="78.5" y="-9.7" font-family="Source Sans Pro" font-size="16.00">/Buffer/IEBuffer.cpp</text>
</a>
</g>
</g>
<!-- Node1&#45;&gt;Node2 -->
<g id="edge1" class="edge">
<title>Node1&#45;&gt;Node2</title>
<path fill="none" stroke="midnightblue" d="M2413.68,-695.64C2036.23,-690.82 584.5,-660.16 584.5,-473.5 584.5,-473.5 584.5,-473.5 584.5,-246.5 584.5,-223.58 299.13,-114.4 157.01,-61.44"/>
<polygon fill="midnightblue" stroke="midnightblue" points="2413.69,-699.14 2423.74,-695.76 2413.78,-692.14 2413.69,-699.14"/>
</g>
<!-- Node3 -->
<g id="node3" class="node">
<title>Node3</title>
<g id="a_node3"><a xlink:href="_i_e_buffer_memory_barrier_8hpp.html" target="_top" xlink:title=" ">
<polygon fill="white" stroke="black" points="1817.5,-549.5 1817.5,-629.5 2089.5,-629.5 2089.5,-549.5 1817.5,-549.5"/>
<text text-anchor="start" x="1825.5" y="-612.7" font-family="Source Sans Pro" font-size="16.00">Illumination&#45;Engine</text>
<text text-anchor="start" x="1825.5" y="-594.7" font-family="Source Sans Pro" font-size="16.00">/src/GraphicsModule</text>
<text text-anchor="start" x="1825.5" y="-576.7" font-family="Source Sans Pro" font-size="16.00">/CommandBuffer/DependencyStructs</text>
<text text-anchor="middle" x="1953.5" y="-558.7" font-family="Source Sans Pro" font-size="16.00">/IEBufferMemoryBarrier.hpp</text>
</a>
</g>
</g>
<!-- Node1&#45;&gt;Node3 -->
<g id="edge2" class="edge">
<title>Node1&#45;&gt;Node3</title>
<path fill="none" stroke="midnightblue" d="M2413.58,-681.19C2339.37,-668.2 2230.88,-648.75 2136.5,-630 2121.36,-626.99 2105.53,-623.74 2089.8,-620.44"/>
<polygon fill="midnightblue" stroke="midnightblue" points="2413.37,-684.7 2423.82,-682.97 2414.57,-677.81 2413.37,-684.7"/>
</g>
<!-- Node7 -->
<g id="node7" class="node">
<title>Node7</title>
<g id="a_node7"><a xlink:href="_i_e_command_buffer_8hpp.html" target="_top" xlink:title=" ">
<polygon fill="white" stroke="black" points="1352,-324.5 1352,-386.5 1647,-386.5 1647,-324.5 1352,-324.5"/>
<text text-anchor="start" x="1360" y="-369.7" font-family="Source Sans Pro" font-size="16.00">Illumination&#45;Engine</text>
<text text-anchor="start" x="1360" y="-351.7" font-family="Source Sans Pro" font-size="16.00">/src/GraphicsModule</text>
<text text-anchor="middle" x="1499.5" y="-333.7" font-family="Source Sans Pro" font-size="16.00">/CommandBuffer/IECommandBuffer.hpp</text>
</a>
</g>
</g>
<!-- Node1&#45;&gt;Node7 -->
<g id="edge37" class="edge">
<title>Node1&#45;&gt;Node7</title>
<path fill="none" stroke="midnightblue" d="M2413.58,-696.1C2280.22,-693.7 2021.37,-681.98 1808.5,-630 1673.48,-597.03 1603.06,-623.3 1518.5,-513 1490.61,-476.62 1491.08,-420.85 1494.74,-386.63"/>
<polygon fill="midnightblue" stroke="midnightblue" points="2413.68,-699.61 2423.74,-696.27 2413.8,-692.61 2413.68,-699.61"/>
</g>
<!-- Node15 -->
<g id="node15" class="node">
<title>Node15</title>
<g id="a_node15"><a xlink:href="_i_e_image_8cpp.html" target="_top" xlink:title=" ">
<polygon fill="white" stroke="black" points="3012,-0.5 3012,-62.5 3169,-62.5 3169,-0.5 3012,-0.5"/>
<text text-anchor="start" x="3020" y="-45.7" font-family="Source Sans Pro" font-size="16.00">Illumination&#45;Engine</text>
<text text-anchor="start" x="3020" y="-27.7" font-family="Source Sans Pro" font-size="16.00">/src/GraphicsModule</text>
<text text-anchor="middle" x="3090.5" y="-9.7" font-family="Source Sans Pro" font-size="16.00">/Image/IEImage.cpp</text>
</a>
</g>
</g>
<!-- Node1&#45;&gt;Node15 -->
<g id="edge40" class="edge">
<title>Node1&#45;&gt;Node15</title>
<path fill="none" stroke="midnightblue" d="M2591.01,-671.42C2678.54,-640.55 2799.5,-578.84 2799.5,-473.5 2799.5,-473.5 2799.5,-473.5 2799.5,-246.5 2799.5,-180.08 2777.42,-146.83 2823.5,-99 2879.8,-40.56 2924.21,-84.34 3002.5,-63 3005.62,-62.15 3008.79,-61.25 3011.98,-60.3"/>
<polygon fill="midnightblue" stroke="midnightblue" points="2589.62,-668.19 2581.31,-674.76 2591.91,-674.81 2589.62,-668.19"/>
</g>
<!-- Node16 -->
<g id="node16" class="node">
<title>Node16</title>
<g id="a_node16"><a xlink:href="_i_e_texture_8cpp.html" target="_top" xlink:title=" ">
<polygon fill="white" stroke="black" points="3187,-0.5 3187,-62.5 3348,-62.5 3348,-0.5 3187,-0.5"/>
<text text-anchor="start" x="3195" y="-45.7" font-family="Source Sans Pro" font-size="16.00">Illumination&#45;Engine</text>
<text text-anchor="start" x="3195" y="-27.7" font-family="Source Sans Pro" font-size="16.00">/src/GraphicsModule</text>
<text text-anchor="middle" x="3267.5" y="-9.7" font-family="Source Sans Pro" font-size="16.00">/Image/IETexture.cpp</text>
</a>
</g>
</g>
<!-- Node1&#45;&gt;Node16 -->
<g id="edge41" class="edge">
<title>Node1&#45;&gt;Node16</title>
<path fill="none" stroke="midnightblue" d="M2591.12,-688.46C2640.37,-680.24 2700.41,-663.61 2744.5,-630 2808.84,-580.94 2837.5,-554.41 2837.5,-473.5 2837.5,-473.5 2837.5,-473.5 2837.5,-246.5 2837.5,-180.08 2813.42,-144.82 2861.5,-99 2912.83,-50.09 3109.34,-78.58 3178.5,-63 3181.21,-62.39 3183.95,-61.73 3186.71,-61.02"/>
<polygon fill="midnightblue" stroke="midnightblue" points="2590.44,-685.03 2581.11,-690.05 2591.53,-691.94 2590.44,-685.03"/>
</g>
<!-- Node20 -->
<g id="node20" class="node">
<title>Node20</title>
<g id="a_node20"><a xlink:href="_i_e_mesh_8cpp.html" target="_top" xlink:title=" ">
<polygon fill="white" stroke="black" points="2811,-0.5 2811,-62.5 2994,-62.5 2994,-0.5 2811,-0.5"/>
<text text-anchor="start" x="2819" y="-45.7" font-family="Source Sans Pro" font-size="16.00">Illumination&#45;Engine</text>
<text text-anchor="start" x="2819" y="-27.7" font-family="Source Sans Pro" font-size="16.00">/src/GraphicsModule</text>
<text text-anchor="middle" x="2902.5" y="-9.7" font-family="Source Sans Pro" font-size="16.00">/Renderable/IEMesh.cpp</text>
</a>
</g>
</g>
<!-- Node1&#45;&gt;Node20 -->
<g id="edge42" class="edge">
<title>Node1&#45;&gt;Node20</title>
<path fill="none" stroke="midnightblue" d="M2574.78,-661.39C2639.25,-624.43 2723.5,-559.66 2723.5,-473.5 2723.5,-473.5 2723.5,-473.5 2723.5,-246.5 2723.5,-175.39 2738.29,-152.18 2785.5,-99 2798.45,-84.41 2815.4,-72.26 2832.36,-62.52"/>
<polygon fill="midnightblue" stroke="midnightblue" points="2572.83,-658.47 2565.83,-666.42 2576.26,-664.57 2572.83,-658.47"/>
</g>
<!-- Node22 -->
<g id="node22" class="node">
<title>Node22</title>
<g id="a_node22"><a xlink:href="_i_e_descriptor_set_8cpp.html" target="_top" xlink:title=" ">
<polygon fill="white" stroke="black" points="3366,-0.5 3366,-62.5 3573,-62.5 3573,-0.5 3366,-0.5"/>
<text text-anchor="start" x="3374" y="-45.7" font-family="Source Sans Pro" font-size="16.00">Illumination&#45;Engine</text>
<text text-anchor="start" x="3374" y="-27.7" font-family="Source Sans Pro" font-size="16.00">/src/GraphicsModule</text>
<text text-anchor="middle" x="3469.5" y="-9.7" font-family="Source Sans Pro" font-size="16.00">/Shader/IEDescriptorSet.cpp</text>
</a>
</g>
</g>
<!-- Node1&#45;&gt;Node22 -->
<g id="edge52" class="edge">
<title>Node1&#45;&gt;Node22</title>
<path fill="none" stroke="midnightblue" d="M2591.08,-685.16C2666.2,-674.03 2766.68,-655.07 2798.5,-630 2859.39,-582.03 2875.5,-551.02 2875.5,-473.5 2875.5,-473.5 2875.5,-473.5 2875.5,-246.5 2875.5,-220.45 3203.13,-115.06 3371.75,-62.54"/>
<polygon fill="midnightblue" stroke="midnightblue" points="2590.52,-681.71 2581.13,-686.61 2591.53,-688.63 2590.52,-681.71"/>
</g>
<!-- Node28 -->
<g id="node28" class="node">
<title>Node28</title>
<g id="a_node28"><a xlink:href="_i_e_dependency_8cpp.html" target="_top" xlink:title=" ">
<polygon fill="white" stroke="black" points="2113.5,-108.5 2113.5,-170.5 2379.5,-170.5 2379.5,-108.5 2113.5,-108.5"/>
<text text-anchor="start" x="2121.5" y="-153.7" font-family="Source Sans Pro" font-size="16.00">Illumination&#45;Engine</text>
<text text-anchor="start" x="2121.5" y="-135.7" font-family="Source Sans Pro" font-size="16.00">/src/GraphicsModule</text>
<text text-anchor="middle" x="2246.5" y="-117.7" font-family="Source Sans Pro" font-size="16.00">/CommandBuffer/IEDependency.cpp</text>
</a>
</g>
</g>
<!-- Node1&#45;&gt;Node28 -->
<g id="edge38" class="edge">
<title>Node1&#45;&gt;Node28</title>
<path fill="none" stroke="midnightblue" d="M2510.56,-656.29C2515.01,-626.15 2517.79,-584.2 2507.5,-549 2501.25,-527.59 2326.36,-261.5 2266.43,-170.66"/>
<polygon fill="midnightblue" stroke="midnightblue" points="2507.06,-656 2508.93,-666.43 2513.97,-657.11 2507.06,-656"/>
</g>
<!-- Node29 -->
<g id="node29" class="node">
<title>Node29</title>
<g id="a_node29"><a xlink:href="_i_e_copy_buffer_to_image_info_8hpp.html" target="_top" xlink:title=" ">
<polygon fill="white" stroke="black" points="2145.5,-549.5 2145.5,-629.5 2417.5,-629.5 2417.5,-549.5 2145.5,-549.5"/>
<text text-anchor="start" x="2153.5" y="-612.7" font-family="Source Sans Pro" font-size="16.00">Illumination&#45;Engine</text>
<text text-anchor="start" x="2153.5" y="-594.7" font-family="Source Sans Pro" font-size="16.00">/src/GraphicsModule</text>
<text text-anchor="start" x="2153.5" y="-576.7" font-family="Source Sans Pro" font-size="16.00">/CommandBuffer/DependencyStructs</text>
<text text-anchor="middle" x="2281.5" y="-558.7" font-family="Source Sans Pro" font-size="16.00">/IECopyBufferToImageInfo.hpp</text>
</a>
</g>
</g>
<!-- Node1&#45;&gt;Node29 -->
<g id="edge34" class="edge">
<title>Node1&#45;&gt;Node29</title>
<path fill="none" stroke="midnightblue" d="M2430.65,-662.04C2409.05,-651.68 2385.19,-640.23 2363,-629.59"/>
<polygon fill="midnightblue" stroke="midnightblue" points="2429.23,-665.24 2439.76,-666.41 2432.26,-658.93 2429.23,-665.24"/>
</g>
<!-- Node31 -->
<g id="node31" class="node">
<title>Node31</title>
<g id="a_node31"><a xlink:href="_i_e_dependent_8cpp.html" target="_top" xlink:title=" ">
<polygon fill="white" stroke="black" points="2904,-558.5 2904,-620.5 3161,-620.5 3161,-558.5 2904,-558.5"/>
<text text-anchor="start" x="2912" y="-603.7" font-family="Source Sans Pro" font-size="16.00">Illumination&#45;Engine</text>
<text text-anchor="start" x="2912" y="-585.7" font-family="Source Sans Pro" font-size="16.00">/src/GraphicsModule</text>
<text text-anchor="middle" x="3032.5" y="-567.7" font-family="Source Sans Pro" font-size="16.00">/CommandBuffer/IEDependent.cpp</text>
</a>
</g>
</g>
<!-- Node1&#45;&gt;Node31 -->
<g id="edge39" class="edge">
<title>Node1&#45;&gt;Node31</title>
<path fill="none" stroke="midnightblue" d="M2591.51,-683.78C2670.27,-671.91 2788.1,-652.66 2889.5,-630 2902.19,-627.16 2915.44,-623.91 2928.54,-620.51"/>
<polygon fill="midnightblue" stroke="midnightblue" points="2590.52,-680.39 2581.15,-685.33 2591.56,-687.31 2590.52,-680.39"/>
</g>
<!-- Node32 -->
<g id="node32" class="node">
<title>Node32</title>
<g id="a_node32"><a xlink:href="_i_e_mesh_8hpp.html" target="_top" xlink:title=" ">
<polygon fill="white" stroke="black" points="2511,-324.5 2511,-386.5 2696,-386.5 2696,-324.5 2511,-324.5"/>
<text text-anchor="start" x="2519" y="-369.7" font-family="Source Sans Pro" font-size="16.00">Illumination&#45;Engine</text>
<text text-anchor="start" x="2519" y="-351.7" font-family="Source Sans Pro" font-size="16.00">/src/GraphicsModule</text>
<text text-anchor="middle" x="2603.5" y="-333.7" font-family="Source Sans Pro" font-size="16.00">/Renderable/IEMesh.hpp</text>
</a>
</g>
</g>
<!-- Node1&#45;&gt;Node32 -->
<g id="edge43" class="edge">
<title>Node1&#45;&gt;Node32</title>
<path fill="none" stroke="midnightblue" d="M2514.32,-656.7C2534.77,-587.86 2576.31,-448.04 2594.56,-386.61"/>
<polygon fill="midnightblue" stroke="midnightblue" points="2510.96,-655.74 2511.46,-666.33 2517.67,-657.74 2510.96,-655.74"/>
</g>
<!-- Node33 -->
<g id="node33" class="node">
<title>Node33</title>
<g id="a_node33"><a xlink:href="_i_e_renderable_8hpp.html" target="_top" xlink:title=" ">
<polygon fill="white" stroke="black" points="2348,-216.5 2348,-278.5 2575,-278.5 2575,-216.5 2348,-216.5"/>
<text text-anchor="start" x="2356" y="-261.7" font-family="Source Sans Pro" font-size="16.00">Illumination&#45;Engine</text>
<text text-anchor="start" x="2356" y="-243.7" font-family="Source Sans Pro" font-size="16.00">/src/GraphicsModule</text>
<text text-anchor="middle" x="2461.5" y="-225.7" font-family="Source Sans Pro" font-size="16.00">/Renderable/IERenderable.hpp</text>
</a>
</g>
</g>
<!-- Node1&#45;&gt;Node33 -->
<g id="edge51" class="edge">
<title>Node1&#45;&gt;Node33</title>
<path fill="none" stroke="midnightblue" d="M2498.81,-656.22C2490.7,-567.58 2471.45,-357.27 2464.27,-278.75"/>
<polygon fill="midnightblue" stroke="midnightblue" points="2495.35,-656.77 2499.75,-666.41 2502.32,-656.13 2495.35,-656.77"/>
</g>
<!-- Node4 -->
<g id="node4" class="node">
<title>Node4</title>
<g id="a_node4"><a xlink:href="_i_e_buffer_memory_barrier_8cpp.html" target="_top" xlink:title=" ">
<polygon fill="white" stroke="black" points="1817.5,-432.5 1817.5,-512.5 2089.5,-512.5 2089.5,-432.5 1817.5,-432.5"/>
<text text-anchor="start" x="1825.5" y="-495.7" font-family="Source Sans Pro" font-size="16.00">Illumination&#45;Engine</text>
<text text-anchor="start" x="1825.5" y="-477.7" font-family="Source Sans Pro" font-size="16.00">/src/GraphicsModule</text>
<text text-anchor="start" x="1825.5" y="-459.7" font-family="Source Sans Pro" font-size="16.00">/CommandBuffer/DependencyStructs</text>
<text text-anchor="middle" x="1953.5" y="-441.7" font-family="Source Sans Pro" font-size="16.00">/IEBufferMemoryBarrier.cpp</text>
</a>
</g>
</g>
<!-- Node3&#45;&gt;Node4 -->
<g id="edge3" class="edge">
<title>Node3&#45;&gt;Node4</title>
<path fill="none" stroke="midnightblue" d="M1953.5,-539.03C1953.5,-530.19 1953.5,-521.08 1953.5,-512.58"/>
<polygon fill="midnightblue" stroke="midnightblue" points="1950,-539.25 1953.5,-549.25 1957,-539.25 1950,-539.25"/>
</g>
<!-- Node5 -->
<g id="node5" class="node">
<title>Node5</title>
<g id="a_node5"><a xlink:href="_i_e_dependency_info_8hpp.html" target="_top" xlink:title=" ">
<polygon fill="white" stroke="black" points="1527.5,-432.5 1527.5,-512.5 1799.5,-512.5 1799.5,-432.5 1527.5,-432.5"/>
<text text-anchor="start" x="1535.5" y="-495.7" font-family="Source Sans Pro" font-size="16.00">Illumination&#45;Engine</text>
<text text-anchor="start" x="1535.5" y="-477.7" font-family="Source Sans Pro" font-size="16.00">/src/GraphicsModule</text>
<text text-anchor="start" x="1535.5" y="-459.7" font-family="Source Sans Pro" font-size="16.00">/CommandBuffer/DependencyStructs</text>
<text text-anchor="middle" x="1663.5" y="-441.7" font-family="Source Sans Pro" font-size="16.00">/IEDependencyInfo.hpp</text>
</a>
</g>
</g>
<!-- Node3&#45;&gt;Node5 -->
<g id="edge4" class="edge">
<title>Node3&#45;&gt;Node5</title>
<path fill="none" stroke="midnightblue" d="M1845.37,-545.62C1818.14,-534.82 1789.05,-523.29 1762.31,-512.68"/>
<polygon fill="midnightblue" stroke="midnightblue" points="1844.33,-548.97 1854.91,-549.41 1846.91,-542.47 1844.33,-548.97"/>
</g>
<!-- Node6 -->
<g id="node6" class="node">
<title>Node6</title>
<g id="a_node6"><a xlink:href="_i_e_dependency_info_8cpp.html" target="_top" xlink:title=" ">
<polygon fill="white" stroke="black" points="1665.5,-315.5 1665.5,-395.5 1937.5,-395.5 1937.5,-315.5 1665.5,-315.5"/>
<text text-anchor="start" x="1673.5" y="-378.7" font-family="Source Sans Pro" font-size="16.00">Illumination&#45;Engine</text>
<text text-anchor="start" x="1673.5" y="-360.7" font-family="Source Sans Pro" font-size="16.00">/src/GraphicsModule</text>
<text text-anchor="start" x="1673.5" y="-342.7" font-family="Source Sans Pro" font-size="16.00">/CommandBuffer/DependencyStructs</text>
<text text-anchor="middle" x="1801.5" y="-324.7" font-family="Source Sans Pro" font-size="16.00">/IEDependencyInfo.cpp</text>
</a>
</g>
</g>
<!-- Node5&#45;&gt;Node6 -->
<g id="edge5" class="edge">
<title>Node5&#45;&gt;Node6</title>
<path fill="none" stroke="midnightblue" d="M1718.38,-425.76C1730.38,-415.77 1742.96,-405.28 1754.61,-395.58"/>
<polygon fill="midnightblue" stroke="midnightblue" points="1716.05,-423.15 1710.61,-432.25 1720.53,-428.53 1716.05,-423.15"/>
</g>
<!-- Node5&#45;&gt;Node7 -->
<g id="edge6" class="edge">
<title>Node5&#45;&gt;Node7</title>
<path fill="none" stroke="midnightblue" d="M1599.15,-426.38C1580.07,-412.99 1559.64,-398.67 1542.29,-386.5"/>
<polygon fill="midnightblue" stroke="midnightblue" points="1597.32,-429.37 1607.52,-432.25 1601.34,-423.64 1597.32,-429.37"/>
</g>
<!-- Node8 -->
<g id="node8" class="node">
<title>Node8</title>
<g id="a_node8"><a xlink:href="_i_e_command_buffer_8cpp.html" target="_top" xlink:title=" ">
<polygon fill="white" stroke="black" points="175,-0.5 175,-62.5 468,-62.5 468,-0.5 175,-0.5"/>
<text text-anchor="start" x="183" y="-45.7" font-family="Source Sans Pro" font-size="16.00">Illumination&#45;Engine</text>
<text text-anchor="start" x="183" y="-27.7" font-family="Source Sans Pro" font-size="16.00">/src/GraphicsModule</text>
<text text-anchor="middle" x="321.5" y="-9.7" font-family="Source Sans Pro" font-size="16.00">/CommandBuffer/IECommandBuffer.cpp</text>
</a>
</g>
</g>
<!-- Node7&#45;&gt;Node8 -->
<g id="edge7" class="edge">
<title>Node7&#45;&gt;Node8</title>
<path fill="none" stroke="midnightblue" d="M1388.84,-321.55C1219.28,-271.42 884.72,-173.91 598.5,-99 550.65,-86.48 497.92,-73.59 451.42,-62.54"/>
<polygon fill="midnightblue" stroke="midnightblue" points="1387.94,-324.93 1398.53,-324.41 1389.93,-318.22 1387.94,-324.93"/>
</g>
<!-- Node9 -->
<g id="node9" class="node">
<title>Node9</title>
<g id="a_node9"><a xlink:href="_i_e_command_pool_8hpp.html" target="_top" xlink:title=" ">
<polygon fill="white" stroke="black" points="1304,-216.5 1304,-278.5 1589,-278.5 1589,-216.5 1304,-216.5"/>
<text text-anchor="start" x="1312" y="-261.7" font-family="Source Sans Pro" font-size="16.00">Illumination&#45;Engine</text>
<text text-anchor="start" x="1312" y="-243.7" font-family="Source Sans Pro" font-size="16.00">/src/GraphicsModule</text>
<text text-anchor="middle" x="1446.5" y="-225.7" font-family="Source Sans Pro" font-size="16.00">/CommandBuffer/IECommandPool.hpp</text>
</a>
</g>
</g>
<!-- Node7&#45;&gt;Node9 -->
<g id="edge8" class="edge">
<title>Node7&#45;&gt;Node9</title>
<path fill="none" stroke="midnightblue" d="M1479.94,-315.38C1473.88,-303.26 1467.29,-290.09 1461.58,-278.67"/>
<polygon fill="midnightblue" stroke="midnightblue" points="1476.85,-317.03 1484.45,-324.41 1483.11,-313.9 1476.85,-317.03"/>
</g>
<!-- Node26 -->
<g id="node26" class="node">
<title>Node26</title>
<g id="a_node26"><a xlink:href="_i_e_render_pass_8hpp.html" target="_top" xlink:title=" ">
<polygon fill="white" stroke="black" points="1607.5,-216.5 1607.5,-278.5 1835.5,-278.5 1835.5,-216.5 1607.5,-216.5"/>
<text text-anchor="start" x="1615.5" y="-261.7" font-family="Source Sans Pro" font-size="16.00">Illumination&#45;Engine</text>
<text text-anchor="start" x="1615.5" y="-243.7" font-family="Source Sans Pro" font-size="16.00">/src/GraphicsModule</text>
<text text-anchor="middle" x="1721.5" y="-225.7" font-family="Source Sans Pro" font-size="16.00">/RenderPass/IERenderPass.hpp</text>
</a>
</g>
</g>
<!-- Node7&#45;&gt;Node26 -->
<g id="edge28" class="edge">
<title>Node7&#45;&gt;Node26</title>
<path fill="none" stroke="midnightblue" d="M1571.83,-319.96C1599.73,-306.64 1631.35,-291.54 1658.32,-278.67"/>
<polygon fill="midnightblue" stroke="midnightblue" points="1570.04,-316.94 1562.52,-324.41 1573.05,-323.26 1570.04,-316.94"/>
</g>
<!-- Node10 -->
<g id="node10" class="node">
<title>Node10</title>
<g id="a_node10"><a xlink:href="_i_e_command_pool_8cpp.html" target="_top" xlink:title=" ">
<polygon fill="white" stroke="black" points="486.5,-0.5 486.5,-62.5 770.5,-62.5 770.5,-0.5 486.5,-0.5"/>
<text text-anchor="start" x="494.5" y="-45.7" font-family="Source Sans Pro" font-size="16.00">Illumination&#45;Engine</text>
<text text-anchor="start" x="494.5" y="-27.7" font-family="Source Sans Pro" font-size="16.00">/src/GraphicsModule</text>
<text text-anchor="middle" x="628.5" y="-9.7" font-family="Source Sans Pro" font-size="16.00">/CommandBuffer/IECommandPool.cpp</text>
</a>
</g>
</g>
<!-- Node9&#45;&gt;Node10 -->
<g id="edge9" class="edge">
<title>Node9&#45;&gt;Node10</title>
<path fill="none" stroke="midnightblue" d="M1393.12,-211.02C1337.56,-176.05 1246.76,-124.29 1160.5,-99 997.28,-51.15 947.76,-87.87 779.5,-63 776.59,-62.57 773.65,-62.12 770.69,-61.65"/>
<polygon fill="midnightblue" stroke="midnightblue" points="1391.41,-214.08 1401.73,-216.48 1395.16,-208.17 1391.41,-214.08"/>
</g>
<!-- Node11 -->
<g id="node11" class="node">
<title>Node11</title>
<g id="a_node11"><a xlink:href="_i_e_render_engine_8hpp.html" target="_top" xlink:title=" ">
<polygon fill="white" stroke="black" points="1641,-108.5 1641,-170.5 1802,-170.5 1802,-108.5 1641,-108.5"/>
<text text-anchor="start" x="1649" y="-153.7" font-family="Source Sans Pro" font-size="16.00">Illumination&#45;Engine</text>
<text text-anchor="start" x="1649" y="-135.7" font-family="Source Sans Pro" font-size="16.00">/src/GraphicsModule</text>
<text text-anchor="middle" x="1721.5" y="-117.7" font-family="Source Sans Pro" font-size="16.00">/IERenderEngine.hpp</text>
</a>
</g>
</g>
<!-- Node9&#45;&gt;Node11 -->
<g id="edge10" class="edge">
<title>Node9&#45;&gt;Node11</title>
<path fill="none" stroke="midnightblue" d="M1534.3,-212.66C1569.29,-199.17 1609.25,-183.77 1643.24,-170.67"/>
<polygon fill="midnightblue" stroke="midnightblue" points="1532.64,-209.55 1524.57,-216.41 1535.16,-216.08 1532.64,-209.55"/>
</g>
<!-- Node11&#45;&gt;Node2 -->
<g id="edge11" class="edge">
<title>Node11&#45;&gt;Node2</title>
<path fill="none" stroke="midnightblue" d="M1630.64,-135.62C1319.62,-125.55 308.95,-91.01 165.5,-63 162.83,-62.48 160.13,-61.89 157.42,-61.25"/>
<polygon fill="midnightblue" stroke="midnightblue" points="1630.86,-139.13 1640.96,-135.95 1631.08,-132.13 1630.86,-139.13"/>
</g>
<!-- Node11&#45;&gt;Node8 -->
<g id="edge12" class="edge">
<title>Node11&#45;&gt;Node8</title>
<path fill="none" stroke="midnightblue" d="M1630.56,-131.6C1519.62,-123.3 1326.35,-109.21 1160.5,-99 857.1,-80.32 779.19,-100.26 477.5,-63 474.49,-62.63 471.45,-62.23 468.38,-61.81"/>
<polygon fill="midnightblue" stroke="midnightblue" points="1630.47,-135.1 1640.7,-132.36 1630.99,-128.12 1630.47,-135.1"/>
</g>
<!-- Node11&#45;&gt;Node10 -->
<g id="edge13" class="edge">
<title>Node11&#45;&gt;Node10</title>
<path fill="none" stroke="midnightblue" d="M1630.9,-128.46C1551.5,-119.88 1432.95,-107.59 1329.5,-99 1085.37,-78.72 1022.33,-95.32 779.5,-63 776.58,-62.61 773.64,-62.2 770.67,-61.77"/>
<polygon fill="midnightblue" stroke="midnightblue" points="1630.55,-131.94 1640.87,-129.54 1631.3,-124.98 1630.55,-131.94"/>
</g>
<!-- Node12 -->
<g id="node12" class="node">
<title>Node12</title>
<g id="a_node12"><a xlink:href="_i_e_a_p_i_8cpp.html" target="_top" xlink:title=" ">
<polygon fill="white" stroke="black" points="1282,-0.5 1282,-62.5 1439,-62.5 1439,-0.5 1282,-0.5"/>
<text text-anchor="start" x="1290" y="-45.7" font-family="Source Sans Pro" font-size="16.00">Illumination&#45;Engine</text>
<text text-anchor="start" x="1290" y="-27.7" font-family="Source Sans Pro" font-size="16.00">/src/GraphicsModule</text>
<text text-anchor="middle" x="1360.5" y="-9.7" font-family="Source Sans Pro" font-size="16.00">/IEAPI.cpp</text>
</a>
</g>
</g>
<!-- Node11&#45;&gt;Node12 -->
<g id="edge14" class="edge">
<title>Node11&#45;&gt;Node12</title>
<path fill="none" stroke="midnightblue" d="M1630.93,-115.21C1577.32,-101.01 1508.24,-81.99 1447.5,-63 1444.75,-62.14 1441.96,-61.25 1439.14,-60.34"/>
<polygon fill="midnightblue" stroke="midnightblue" points="1630.19,-118.63 1640.75,-117.8 1631.97,-111.86 1630.19,-118.63"/>
</g>
<!-- Node13 -->
<g id="node13" class="node">
<title>Node13</title>
<g id="a_node13"><a xlink:href="_i_e_camera_8cpp.html" target="_top" xlink:title=" ">
<polygon fill="white" stroke="black" points="1457,-0.5 1457,-62.5 1614,-62.5 1614,-0.5 1457,-0.5"/>
<text text-anchor="start" x="1465" y="-45.7" font-family="Source Sans Pro" font-size="16.00">Illumination&#45;Engine</text>
<text text-anchor="start" x="1465" y="-27.7" font-family="Source Sans Pro" font-size="16.00">/src/GraphicsModule</text>
<text text-anchor="middle" x="1535.5" y="-9.7" font-family="Source Sans Pro" font-size="16.00">/IECamera.cpp</text>
</a>
</g>
</g>
<!-- Node11&#45;&gt;Node13 -->
<g id="edge15" class="edge">
<title>Node11&#45;&gt;Node13</title>
<path fill="none" stroke="midnightblue" d="M1659.98,-103.44C1636.83,-90.25 1610.73,-75.38 1588.43,-62.67"/>
<polygon fill="midnightblue" stroke="midnightblue" points="1658.28,-106.5 1668.7,-108.41 1661.74,-100.42 1658.28,-106.5"/>
</g>
<!-- Node14 -->
<g id="node14" class="node">
<title>Node14</title>
<g id="a_node14"><a xlink:href="_i_e_render_engine_8cpp.html" target="_top" xlink:title=" ">
<polygon fill="white" stroke="black" points="2172,-0.5 2172,-62.5 2331,-62.5 2331,-0.5 2172,-0.5"/>
<text text-anchor="start" x="2180" y="-45.7" font-family="Source Sans Pro" font-size="16.00">Illumination&#45;Engine</text>
<text text-anchor="start" x="2180" y="-27.7" font-family="Source Sans Pro" font-size="16.00">/src/GraphicsModule</text>
<text text-anchor="middle" x="2251.5" y="-9.7" font-family="Source Sans Pro" font-size="16.00">/IERenderEngine.cpp</text>
</a>
</g>
</g>
<!-- Node11&#45;&gt;Node14 -->
<g id="edge16" class="edge">
<title>Node11&#45;&gt;Node14</title>
<path fill="none" stroke="midnightblue" d="M1792.8,-104.84C1799.04,-102.62 1805.33,-100.63 1811.5,-99 1963.57,-58.91 2009.95,-96.98 2163.5,-63 2166.18,-62.41 2168.9,-61.76 2171.63,-61.06"/>
<polygon fill="midnightblue" stroke="midnightblue" points="1791.19,-101.71 1783.05,-108.5 1793.64,-108.26 1791.19,-101.71"/>
</g>
<!-- Node11&#45;&gt;Node15 -->
<g id="edge17" class="edge">
<title>Node11&#45;&gt;Node15</title>
<path fill="none" stroke="midnightblue" d="M1791.22,-104.85C1797.96,-102.53 1804.79,-100.51 1811.5,-99 2069.8,-40.73 2742.08,-110.91 3002.5,-63 3005.52,-62.44 3008.58,-61.8 3011.65,-61.09"/>
<polygon fill="midnightblue" stroke="midnightblue" points="1789.6,-101.72 1781.42,-108.45 1792.02,-108.29 1789.6,-101.72"/>
</g>
<!-- Node11&#45;&gt;Node16 -->
<g id="edge18" class="edge">
<title>Node11&#45;&gt;Node16</title>
<path fill="none" stroke="midnightblue" d="M1791.21,-104.83C1797.96,-102.51 1804.79,-100.5 1811.5,-99 2108.06,-32.7 2879.43,-116.88 3178.5,-63 3181.23,-62.51 3183.99,-61.95 3186.77,-61.33"/>
<polygon fill="midnightblue" stroke="midnightblue" points="1789.6,-101.69 1781.42,-108.42 1792.01,-108.26 1789.6,-101.69"/>
</g>
<!-- Node17 -->
<g id="node17" class="node">
<title>Node17</title>
<g id="a_node17"><a xlink:href="_i_e_framebuffer_8cpp.html" target="_top" xlink:title=" ">
<polygon fill="white" stroke="black" points="788.5,-0.5 788.5,-62.5 1018.5,-62.5 1018.5,-0.5 788.5,-0.5"/>
<text text-anchor="start" x="796.5" y="-45.7" font-family="Source Sans Pro" font-size="16.00">Illumination&#45;Engine</text>
<text text-anchor="start" x="796.5" y="-27.7" font-family="Source Sans Pro" font-size="16.00">/src/GraphicsModule</text>
<text text-anchor="middle" x="903.5" y="-9.7" font-family="Source Sans Pro" font-size="16.00">/RenderPass/IEFramebuffer.cpp</text>
</a>
</g>
</g>
<!-- Node11&#45;&gt;Node17 -->
<g id="edge19" class="edge">
<title>Node11&#45;&gt;Node17</title>
<path fill="none" stroke="midnightblue" d="M1631.04,-122.07C1585.16,-114.19 1528.5,-105.16 1477.5,-99 1278.31,-74.95 1225.56,-95.07 1027.5,-63 1024.55,-62.52 1021.56,-62.01 1018.55,-61.47"/>
<polygon fill="midnightblue" stroke="midnightblue" points="1630.5,-125.53 1640.95,-123.78 1631.7,-118.63 1630.5,-125.53"/>
</g>
<!-- Node18 -->
<g id="node18" class="node">
<title>Node18</title>
<g id="a_node18"><a xlink:href="_i_e_render_pass_8cpp.html" target="_top" xlink:title=" ">
<polygon fill="white" stroke="black" points="1037,-0.5 1037,-62.5 1264,-62.5 1264,-0.5 1037,-0.5"/>
<text text-anchor="start" x="1045" y="-45.7" font-family="Source Sans Pro" font-size="16.00">Illumination&#45;Engine</text>
<text text-anchor="start" x="1045" y="-27.7" font-family="Source Sans Pro" font-size="16.00">/src/GraphicsModule</text>
<text text-anchor="middle" x="1150.5" y="-9.7" font-family="Source Sans Pro" font-size="16.00">/RenderPass/IERenderPass.cpp</text>
</a>
</g>
</g>
<!-- Node11&#45;&gt;Node18 -->
<g id="edge20" class="edge">
<title>Node11&#45;&gt;Node18</title>
<path fill="none" stroke="midnightblue" d="M1630.92,-112.68C1611.12,-107.63 1590.2,-102.75 1570.5,-99 1439.44,-74.06 1403.69,-87.23 1272.5,-63 1269.71,-62.48 1266.89,-61.94 1264.04,-61.38"/>
<polygon fill="midnightblue" stroke="midnightblue" points="1630.29,-116.13 1640.85,-115.24 1632.05,-109.35 1630.29,-116.13"/>
</g>
<!-- Node19 -->
<g id="node19" class="node">
<title>Node19</title>
<g id="a_node19"><a xlink:href="_i_e_material_8cpp.html" target="_top" xlink:title=" ">
<polygon fill="white" stroke="black" points="2592,-0.5 2592,-62.5 2793,-62.5 2793,-0.5 2592,-0.5"/>
<text text-anchor="start" x="2600" y="-45.7" font-family="Source Sans Pro" font-size="16.00">Illumination&#45;Engine</text>
<text text-anchor="start" x="2600" y="-27.7" font-family="Source Sans Pro" font-size="16.00">/src/GraphicsModule</text>
<text text-anchor="middle" x="2692.5" y="-9.7" font-family="Source Sans Pro" font-size="16.00">/Renderable/IEMaterial.cpp</text>
</a>
</g>
</g>
<!-- Node11&#45;&gt;Node19 -->
<g id="edge21" class="edge">
<title>Node11&#45;&gt;Node19</title>
<path fill="none" stroke="midnightblue" d="M1791.58,-104.85C1798.21,-102.55 1804.91,-100.54 1811.5,-99 2145.5,-20.76 2243.76,-117.17 2582.5,-63 2585.63,-62.5 2588.8,-61.94 2591.99,-61.34"/>
<polygon fill="midnightblue" stroke="midnightblue" points="1790.12,-101.66 1781.95,-108.41 1792.54,-108.23 1790.12,-101.66"/>
</g>
<!-- Node11&#45;&gt;Node20 -->
<g id="edge22" class="edge">
<title>Node11&#45;&gt;Node20</title>
<path fill="none" stroke="midnightblue" d="M1791.57,-104.78C1798.2,-102.5 1804.91,-100.51 1811.5,-99 2026.1,-49.89 2584.34,-99.12 2801.5,-63 2804.57,-62.49 2807.68,-61.91 2810.81,-61.28"/>
<polygon fill="midnightblue" stroke="midnightblue" points="1790.11,-101.59 1781.93,-108.32 1792.52,-108.16 1790.11,-101.59"/>
</g>
<!-- Node21 -->
<g id="node21" class="node">
<title>Node21</title>
<g id="a_node21"><a xlink:href="_i_e_renderable_8cpp.html" target="_top" xlink:title=" ">
<polygon fill="white" stroke="black" points="2349,-0.5 2349,-62.5 2574,-62.5 2574,-0.5 2349,-0.5"/>
<text text-anchor="start" x="2357" y="-45.7" font-family="Source Sans Pro" font-size="16.00">Illumination&#45;Engine</text>
<text text-anchor="start" x="2357" y="-27.7" font-family="Source Sans Pro" font-size="16.00">/src/GraphicsModule</text>
<text text-anchor="middle" x="2461.5" y="-9.7" font-family="Source Sans Pro" font-size="16.00">/Renderable/IERenderable.cpp</text>
</a>
</g>
</g>
<!-- Node11&#45;&gt;Node21 -->
<g id="edge23" class="edge">
<title>Node11&#45;&gt;Node21</title>
<path fill="none" stroke="midnightblue" d="M1791.95,-104.89C1798.47,-102.6 1805.04,-100.59 1811.5,-99 2039.92,-42.9 2107.16,-99.67 2339.5,-63 2342.63,-62.51 2345.79,-61.97 2348.98,-61.4"/>
<polygon fill="midnightblue" stroke="midnightblue" points="1790.64,-101.64 1782.49,-108.4 1793.08,-108.2 1790.64,-101.64"/>
</g>
<!-- Node11&#45;&gt;Node22 -->
<g id="edge24" class="edge">
<title>Node11&#45;&gt;Node22</title>
<path fill="none" stroke="midnightblue" d="M1791.21,-104.8C1797.95,-102.49 1804.78,-100.49 1811.5,-99 2146.98,-24.53 3017.44,-112.51 3357.5,-63 3360.29,-62.59 3363.11,-62.14 3365.95,-61.65"/>
<polygon fill="midnightblue" stroke="midnightblue" points="1789.6,-101.67 1781.41,-108.39 1792,-108.24 1789.6,-101.67"/>
</g>
<!-- Node23 -->
<g id="node23" class="node">
<title>Node23</title>
<g id="a_node23"><a xlink:href="_i_e_pipeline_8cpp.html" target="_top" xlink:title=" ">
<polygon fill="white" stroke="black" points="1632.5,-0.5 1632.5,-62.5 1804.5,-62.5 1804.5,-0.5 1632.5,-0.5"/>
<text text-anchor="start" x="1640.5" y="-45.7" font-family="Source Sans Pro" font-size="16.00">Illumination&#45;Engine</text>
<text text-anchor="start" x="1640.5" y="-27.7" font-family="Source Sans Pro" font-size="16.00">/src/GraphicsModule</text>
<text text-anchor="middle" x="1718.5" y="-9.7" font-family="Source Sans Pro" font-size="16.00">/Shader/IEPipeline.cpp</text>
</a>
</g>
</g>
<!-- Node11&#45;&gt;Node23 -->
<g id="edge25" class="edge">
<title>Node11&#45;&gt;Node23</title>
<path fill="none" stroke="midnightblue" d="M1720.36,-98.31C1720.03,-86.48 1719.67,-73.75 1719.35,-62.67"/>
<polygon fill="midnightblue" stroke="midnightblue" points="1716.87,-98.51 1720.65,-108.41 1723.86,-98.31 1716.87,-98.51"/>
</g>
<!-- Node24 -->
<g id="node24" class="node">
<title>Node24</title>
<g id="a_node24"><a xlink:href="_i_e_shader_8cpp.html" target="_top" xlink:title=" ">
<polygon fill="white" stroke="black" points="1822.5,-0.5 1822.5,-62.5 1986.5,-62.5 1986.5,-0.5 1822.5,-0.5"/>
<text text-anchor="start" x="1830.5" y="-45.7" font-family="Source Sans Pro" font-size="16.00">Illumination&#45;Engine</text>
<text text-anchor="start" x="1830.5" y="-27.7" font-family="Source Sans Pro" font-size="16.00">/src/GraphicsModule</text>
<text text-anchor="middle" x="1904.5" y="-9.7" font-family="Source Sans Pro" font-size="16.00">/Shader/IEShader.cpp</text>
</a>
</g>
</g>
<!-- Node11&#45;&gt;Node24 -->
<g id="edge26" class="edge">
<title>Node11&#45;&gt;Node24</title>
<path fill="none" stroke="midnightblue" d="M1782.33,-103.27C1805.03,-90.12 1830.58,-75.32 1852.42,-62.67"/>
<polygon fill="midnightblue" stroke="midnightblue" points="1780.35,-100.37 1773.45,-108.41 1783.86,-106.42 1780.35,-100.37"/>
</g>
<!-- Node25 -->
<g id="node25" class="node">
<title>Node25</title>
<g id="a_node25"><a xlink:href="main_8cpp.html" target="_top" xlink:title=" ">
<polygon fill="white" stroke="black" points="2004.5,-9.5 2004.5,-53.5 2154.5,-53.5 2154.5,-9.5 2004.5,-9.5"/>
<text text-anchor="start" x="2012.5" y="-36.7" font-family="Source Sans Pro" font-size="16.00">Illumination&#45;Engine</text>
<text text-anchor="middle" x="2079.5" y="-18.7" font-family="Source Sans Pro" font-size="16.00">/src/main.cpp</text>
</a>
</g>
</g>
<!-- Node11&#45;&gt;Node25 -->
<g id="edge27" class="edge">
<title>Node11&#45;&gt;Node25</title>
<path fill="none" stroke="midnightblue" d="M1794.69,-104.81C1800.33,-102.7 1805.97,-100.73 1811.5,-99 1891.02,-74.1 1915.21,-85.29 1995.5,-63 2005.22,-60.3 2015.42,-57.01 2025.22,-53.6"/>
<polygon fill="midnightblue" stroke="midnightblue" points="1793.3,-101.59 1785.24,-108.47 1795.83,-108.12 1793.3,-101.59"/>
</g>
<!-- Node26&#45;&gt;Node11 -->
<g id="edge31" class="edge">
<title>Node26&#45;&gt;Node11</title>
<path fill="none" stroke="midnightblue" d="M1721.5,-206.31C1721.5,-194.48 1721.5,-181.75 1721.5,-170.67"/>
<polygon fill="midnightblue" stroke="midnightblue" points="1718,-206.41 1721.5,-216.41 1725,-206.41 1718,-206.41"/>
</g>
<!-- Node26&#45;&gt;Node17 -->
<g id="edge32" class="edge">
<title>Node26&#45;&gt;Node17</title>
<path fill="none" stroke="midnightblue" d="M1597.51,-215.13C1558.85,-204.7 1516.2,-192.53 1477.5,-180 1380.36,-148.54 1361.28,-124.87 1262.5,-99 1160.28,-72.23 1131.13,-83.64 1027.5,-63 1024.56,-62.42 1021.59,-61.81 1018.6,-61.18"/>
<polygon fill="midnightblue" stroke="midnightblue" points="1596.69,-218.54 1607.25,-217.75 1598.5,-211.78 1596.69,-218.54"/>
</g>
<!-- Node26&#45;&gt;Node18 -->
<g id="edge33" class="edge">
<title>Node26&#45;&gt;Node18</title>
<path fill="none" stroke="midnightblue" d="M1673.81,-210.28C1626.52,-176.22 1550.74,-126.46 1477.5,-99 1390.88,-66.52 1362.98,-82.23 1272.5,-63 1269.72,-62.41 1266.91,-61.8 1264.08,-61.18"/>
<polygon fill="midnightblue" stroke="midnightblue" points="1671.87,-213.2 1682.01,-216.24 1675.98,-207.53 1671.87,-213.2"/>
</g>
<!-- Node27 -->
<g id="node27" class="node">
<title>Node27</title>
<g id="a_node27"><a xlink:href="_i_e_render_pass_begin_info_8cpp.html" target="_top" xlink:title=" ">
<polygon fill="white" stroke="black" points="1820.5,-99.5 1820.5,-179.5 2092.5,-179.5 2092.5,-99.5 1820.5,-99.5"/>
<text text-anchor="start" x="1828.5" y="-162.7" font-family="Source Sans Pro" font-size="16.00">Illumination&#45;Engine</text>
<text text-anchor="start" x="1828.5" y="-144.7" font-family="Source Sans Pro" font-size="16.00">/src/GraphicsModule</text>
<text text-anchor="start" x="1828.5" y="-126.7" font-family="Source Sans Pro" font-size="16.00">/CommandBuffer/DependencyStructs</text>
<text text-anchor="middle" x="1956.5" y="-108.7" font-family="Source Sans Pro" font-size="16.00">/IERenderPassBeginInfo.cpp</text>
</a>
</g>
</g>
<!-- Node26&#45;&gt;Node27 -->
<g id="edge29" class="edge">
<title>Node26&#45;&gt;Node27</title>
<path fill="none" stroke="midnightblue" d="M1797.59,-212.18C1820.65,-201.78 1846.14,-190.28 1869.83,-179.59"/>
<polygon fill="midnightblue" stroke="midnightblue" points="1795.89,-209.11 1788.21,-216.41 1798.77,-215.49 1795.89,-209.11"/>
</g>
<!-- Node26&#45;&gt;Node28 -->
<g id="edge30" class="edge">
<title>Node26&#45;&gt;Node28</title>
<path fill="none" stroke="midnightblue" d="M1845.43,-227.79C1919.98,-215.8 2016.58,-198.95 2101.5,-180 2114.23,-177.16 2127.52,-173.92 2140.67,-170.55"/>
<polygon fill="midnightblue" stroke="midnightblue" points="1844.85,-224.34 1835.53,-229.38 1845.96,-231.25 1844.85,-224.34"/>
</g>
<!-- Node29&#45;&gt;Node7 -->
<g id="edge36" class="edge">
<title>Node29&#45;&gt;Node7</title>
<path fill="none" stroke="midnightblue" d="M2175.58,-543.98C2161.36,-535.09 2147.81,-524.79 2136.5,-513 2108.97,-484.31 2131.17,-454.67 2098.5,-432 2017.54,-375.81 1753.73,-412.08 1656.5,-396 1641.11,-393.46 1625.01,-390.16 1609.24,-386.55"/>
<polygon fill="midnightblue" stroke="midnightblue" points="2174.13,-547.19 2184.5,-549.34 2177.73,-541.19 2174.13,-547.19"/>
</g>
<!-- Node30 -->
<g id="node30" class="node">
<title>Node30</title>
<g id="a_node30"><a xlink:href="_i_e_copy_buffer_to_image_info_8cpp.html" target="_top" xlink:title=" ">
<polygon fill="white" stroke="black" points="2145.5,-432.5 2145.5,-512.5 2417.5,-512.5 2417.5,-432.5 2145.5,-432.5"/>
<text text-anchor="start" x="2153.5" y="-495.7" font-family="Source Sans Pro" font-size="16.00">Illumination&#45;Engine</text>
<text text-anchor="start" x="2153.5" y="-477.7" font-family="Source Sans Pro" font-size="16.00">/src/GraphicsModule</text>
<text text-anchor="start" x="2153.5" y="-459.7" font-family="Source Sans Pro" font-size="16.00">/CommandBuffer/DependencyStructs</text>
<text text-anchor="middle" x="2281.5" y="-441.7" font-family="Source Sans Pro" font-size="16.00">/IECopyBufferToImageInfo.cpp</text>
</a>
</g>
</g>
<!-- Node29&#45;&gt;Node30 -->
<g id="edge35" class="edge">
<title>Node29&#45;&gt;Node30</title>
<path fill="none" stroke="midnightblue" d="M2281.5,-539.03C2281.5,-530.19 2281.5,-521.08 2281.5,-512.58"/>
<polygon fill="midnightblue" stroke="midnightblue" points="2278,-539.25 2281.5,-549.25 2285,-539.25 2278,-539.25"/>
</g>
<!-- Node32&#45;&gt;Node19 -->
<g id="edge44" class="edge">
<title>Node32&#45;&gt;Node19</title>
<path fill="none" stroke="midnightblue" d="M2614.54,-314.57C2632.6,-249.2 2668.09,-120.82 2684.2,-62.54"/>
<polygon fill="midnightblue" stroke="midnightblue" points="2611.08,-313.93 2611.79,-324.5 2617.83,-315.79 2611.08,-313.93"/>
</g>
<!-- Node32&#45;&gt;Node20 -->
<g id="edge45" class="edge">
<title>Node32&#45;&gt;Node20</title>
<path fill="none" stroke="midnightblue" d="M2627.98,-315.97C2668.25,-253.36 2747.76,-133.07 2785.5,-99 2801.02,-84.99 2819.99,-72.64 2838.1,-62.52"/>
<polygon fill="midnightblue" stroke="midnightblue" points="2625.02,-314.11 2622.57,-324.41 2630.92,-317.89 2625.02,-314.11"/>
</g>
<!-- Node32&#45;&gt;Node21 -->
<g id="edge46" class="edge">
<title>Node32&#45;&gt;Node21</title>
<path fill="none" stroke="midnightblue" d="M2602.35,-314.05C2600.43,-285.78 2595.58,-247.59 2583.5,-216 2560.83,-156.68 2516.26,-97.13 2487.73,-62.6"/>
<polygon fill="midnightblue" stroke="midnightblue" points="2598.87,-314.59 2602.95,-324.37 2605.86,-314.18 2598.87,-314.59"/>
</g>
<!-- Node32&#45;&gt;Node33 -->
<g id="edge47" class="edge">
<title>Node32&#45;&gt;Node33</title>
<path fill="none" stroke="midnightblue" d="M2554.89,-318.22C2537.64,-305.33 2518.41,-290.98 2501.91,-278.67"/>
<polygon fill="midnightblue" stroke="midnightblue" points="2553.08,-321.23 2563.19,-324.41 2557.27,-315.62 2553.08,-321.23"/>
</g>
<!-- Node33&#45;&gt;Node11 -->
<g id="edge49" class="edge">
<title>Node33&#45;&gt;Node11</title>
<path fill="none" stroke="midnightblue" d="M2337.57,-245.22C2205.25,-241.23 1990.43,-227.17 1811.5,-180 1802.1,-177.52 1792.42,-174.19 1783.05,-170.5"/>
<polygon fill="midnightblue" stroke="midnightblue" points="2337.65,-248.72 2347.74,-245.51 2337.85,-241.73 2337.65,-248.72"/>
</g>
<!-- Node33&#45;&gt;Node14 -->
<g id="edge48" class="edge">
<title>Node33&#45;&gt;Node14</title>
<path fill="none" stroke="midnightblue" d="M2449.86,-206.8C2438.63,-174.36 2418.83,-129.09 2388.5,-99 2372.36,-82.98 2351.6,-70.22 2331.15,-60.34"/>
<polygon fill="midnightblue" stroke="midnightblue" points="2446.59,-208.05 2453.07,-216.43 2453.23,-205.83 2446.59,-208.05"/>
</g>
<!-- Node33&#45;&gt;Node21 -->
<g id="edge50" class="edge">
<title>Node33&#45;&gt;Node21</title>
<path fill="none" stroke="midnightblue" d="M2461.5,-206.19C2461.5,-164.41 2461.5,-100.08 2461.5,-62.55"/>
<polygon fill="midnightblue" stroke="midnightblue" points="2458,-206.29 2461.5,-216.29 2465,-206.29 2458,-206.29"/>
</g>
</g>
</svg>
