<?xml version="1.0" encoding="UTF-8" standalone="no"?>
<!DOCTYPE svg PUBLIC "-//W3C//DTD SVG 1.1//EN"
 "http://www.w3.org/Graphics/SVG/1.1/DTD/svg11.dtd">
<!-- Generated by graphviz version 2.43.0 (0)
 -->
<!-- Title: Illumination&#45;Engine/src/GraphicsModule/Image/IETexture.hpp Pages: 1 -->
<svg width="3356pt" height="548pt"
 viewBox="0.00 0.00 3356.00 548.00" xmlns="http://www.w3.org/2000/svg" xmlns:xlink="http://www.w3.org/1999/xlink">
<g id="graph0" class="graph" transform="scale(1 1) rotate(0) translate(4 544)">
<title>Illumination&#45;Engine/src/GraphicsModule/Image/IETexture.hpp</title>
<polygon fill="white" stroke="transparent" points="-4,4 -4,-544 3352,-544 3352,4 -4,4"/>
<!-- Node1 -->
<g id="node1" class="node">
<title>Node1</title>
<g id="a_node1"><a xlink:title=" ">
<polygon fill="#bfbfbf" stroke="black" points="1079.5,-477.5 1079.5,-539.5 1241.5,-539.5 1241.5,-477.5 1079.5,-477.5"/>
<text text-anchor="start" x="1087.5" y="-522.7" font-family="Source Sans Pro" font-size="16.00">Illumination&#45;Engine</text>
<text text-anchor="start" x="1087.5" y="-504.7" font-family="Source Sans Pro" font-size="16.00">/src/GraphicsModule</text>
<text text-anchor="middle" x="1160.5" y="-486.7" font-family="Source Sans Pro" font-size="16.00">/Image/IETexture.hpp</text>
</a>
</g>
</g>
<!-- Node2 -->
<g id="node2" class="node">
<title>Node2</title>
<g id="a_node2"><a xlink:href="_i_e_render_engine_8hpp.html" target="_top" xlink:title=" ">
<polygon fill="white" stroke="black" points="1850,-279.5 1850,-341.5 2011,-341.5 2011,-279.5 1850,-279.5"/>
<text text-anchor="start" x="1858" y="-324.7" font-family="Source Sans Pro" font-size="16.00">Illumination&#45;Engine</text>
<text text-anchor="start" x="1858" y="-306.7" font-family="Source Sans Pro" font-size="16.00">/src/GraphicsModule</text>
<text text-anchor="middle" x="1930.5" y="-288.7" font-family="Source Sans Pro" font-size="16.00">/IERenderEngine.hpp</text>
</a>
</g>
</g>
<!-- Node1&#45;&gt;Node2 -->
<g id="edge1" class="edge">
<title>Node1&#45;&gt;Node2</title>
<path fill="none" stroke="midnightblue" d="M1251.58,-484.31C1403.31,-445.69 1705.37,-368.81 1849.86,-332.03"/>
<polygon fill="midnightblue" stroke="midnightblue" points="1250.64,-480.94 1241.81,-486.8 1252.37,-487.73 1250.64,-480.94"/>
</g>
<!-- Node11 -->
<g id="node11" class="node">
<title>Node11</title>
<g id="a_node11"><a xlink:href="_i_e_texture_8cpp.html" target="_top" xlink:title=" ">
<polygon fill="white" stroke="black" points="3187,-180.5 3187,-242.5 3348,-242.5 3348,-180.5 3187,-180.5"/>
<text text-anchor="start" x="3195" y="-225.7" font-family="Source Sans Pro" font-size="16.00">Illumination&#45;Engine</text>
<text text-anchor="start" x="3195" y="-207.7" font-family="Source Sans Pro" font-size="16.00">/src/GraphicsModule</text>
<text text-anchor="middle" x="3267.5" y="-189.7" font-family="Source Sans Pro" font-size="16.00">/Image/IETexture.cpp</text>
</a>
</g>
</g>
<!-- Node1&#45;&gt;Node11 -->
<g id="edge19" class="edge">
<title>Node1&#45;&gt;Node11</title>
<path fill="none" stroke="midnightblue" d="M1252.18,-502.03C1539.61,-483.48 2447.46,-414.35 3178.5,-243 3181.2,-242.37 3183.94,-241.68 3186.69,-240.96"/>
<polygon fill="midnightblue" stroke="midnightblue" points="1251.56,-498.56 1241.81,-502.69 1252.01,-505.54 1251.56,-498.56"/>
</g>
<!-- Node20 -->
<g id="node20" class="node">
<title>Node20</title>
<g id="a_node20"><a xlink:href="_i_e_material_8hpp.html" target="_top" xlink:title=" ">
<polygon fill="white" stroke="black" points="230,-378.5 230,-440.5 433,-440.5 433,-378.5 230,-378.5"/>
<text text-anchor="start" x="238" y="-423.7" font-family="Source Sans Pro" font-size="16.00">Illumination&#45;Engine</text>
<text text-anchor="start" x="238" y="-405.7" font-family="Source Sans Pro" font-size="16.00">/src/GraphicsModule</text>
<text text-anchor="middle" x="331.5" y="-387.7" font-family="Source Sans Pro" font-size="16.00">/Renderable/IEMaterial.hpp</text>
</a>
</g>
</g>
<!-- Node1&#45;&gt;Node20 -->
<g id="edge20" class="edge">
<title>Node1&#45;&gt;Node20</title>
<path fill="none" stroke="midnightblue" d="M1069.08,-496.8C912.97,-478.54 596.14,-441.46 433.24,-422.4"/>
<polygon fill="midnightblue" stroke="midnightblue" points="1068.78,-500.29 1079.12,-497.98 1069.6,-493.34 1068.78,-500.29"/>
</g>
<!-- Node22 -->
<g id="node22" class="node">
<title>Node22</title>
<g id="a_node22"><a xlink:href="_i_e_renderable_8hpp.html" target="_top" xlink:title=" ">
<polygon fill="white" stroke="black" points="0,-180.5 0,-242.5 227,-242.5 227,-180.5 0,-180.5"/>
<text text-anchor="start" x="8" y="-225.7" font-family="Source Sans Pro" font-size="16.00">Illumination&#45;Engine</text>
<text text-anchor="start" x="8" y="-207.7" font-family="Source Sans Pro" font-size="16.00">/src/GraphicsModule</text>
<text text-anchor="middle" x="113.5" y="-189.7" font-family="Source Sans Pro" font-size="16.00">/Renderable/IERenderable.hpp</text>
</a>
</g>
</g>
<!-- Node1&#45;&gt;Node22 -->
<g id="edge30" class="edge">
<title>Node1&#45;&gt;Node22</title>
<path fill="none" stroke="midnightblue" d="M1068.86,-504.83C847.38,-497.84 295.72,-477 220.5,-441 166.32,-415.07 153.65,-396.55 128.5,-342 113.91,-310.35 111.44,-269.91 111.8,-242.72"/>
<polygon fill="midnightblue" stroke="midnightblue" points="1069.05,-508.34 1079.15,-505.15 1069.27,-501.34 1069.05,-508.34"/>
</g>
<!-- Node3 -->
<g id="node3" class="node">
<title>Node3</title>
<g id="a_node3"><a xlink:href="_i_e_buffer_8cpp.html" target="_top" xlink:title=" ">
<polygon fill="white" stroke="black" points="1302,-180.5 1302,-242.5 1459,-242.5 1459,-180.5 1302,-180.5"/>
<text text-anchor="start" x="1310" y="-225.7" font-family="Source Sans Pro" font-size="16.00">Illumination&#45;Engine</text>
<text text-anchor="start" x="1310" y="-207.7" font-family="Source Sans Pro" font-size="16.00">/src/GraphicsModule</text>
<text text-anchor="middle" x="1380.5" y="-189.7" font-family="Source Sans Pro" font-size="16.00">/Buffer/IEBuffer.cpp</text>
</a>
</g>
</g>
<!-- Node2&#45;&gt;Node3 -->
<g id="edge2" class="edge">
<title>Node2&#45;&gt;Node3</title>
<path fill="none" stroke="midnightblue" d="M1839.66,-301.72C1745.58,-292.44 1594.79,-274.14 1467.5,-243 1464.7,-242.32 1461.87,-241.58 1459.01,-240.79"/>
<polygon fill="midnightblue" stroke="midnightblue" points="1839.42,-305.22 1849.71,-302.7 1840.1,-298.25 1839.42,-305.22"/>
</g>
<!-- Node4 -->
<g id="node4" class="node">
<title>Node4</title>
<g id="a_node4"><a xlink:href="_i_e_command_buffer_8cpp.html" target="_top" xlink:title=" ">
<polygon fill="white" stroke="black" points="1477,-180.5 1477,-242.5 1770,-242.5 1770,-180.5 1477,-180.5"/>
<text text-anchor="start" x="1485" y="-225.7" font-family="Source Sans Pro" font-size="16.00">Illumination&#45;Engine</text>
<text text-anchor="start" x="1485" y="-207.7" font-family="Source Sans Pro" font-size="16.00">/src/GraphicsModule</text>
<text text-anchor="middle" x="1623.5" y="-189.7" font-family="Source Sans Pro" font-size="16.00">/CommandBuffer/IECommandBuffer.cpp</text>
</a>
</g>
</g>
<!-- Node2&#45;&gt;Node4 -->
<g id="edge3" class="edge">
<title>Node2&#45;&gt;Node4</title>
<path fill="none" stroke="midnightblue" d="M1840.26,-280.99C1802,-268.9 1757.38,-254.8 1718.61,-242.55"/>
<polygon fill="midnightblue" stroke="midnightblue" points="1839.25,-284.34 1849.84,-284.01 1841.36,-277.66 1839.25,-284.34"/>
</g>
<!-- Node5 -->
<g id="node5" class="node">
<title>Node5</title>
<g id="a_node5"><a xlink:href="_i_e_command_pool_8cpp.html" target="_top" xlink:title=" ">
<polygon fill="white" stroke="black" points="1788.5,-180.5 1788.5,-242.5 2072.5,-242.5 2072.5,-180.5 1788.5,-180.5"/>
<text text-anchor="start" x="1796.5" y="-225.7" font-family="Source Sans Pro" font-size="16.00">Illumination&#45;Engine</text>
<text text-anchor="start" x="1796.5" y="-207.7" font-family="Source Sans Pro" font-size="16.00">/src/GraphicsModule</text>
<text text-anchor="middle" x="1930.5" y="-189.7" font-family="Source Sans Pro" font-size="16.00">/CommandBuffer/IECommandPool.cpp</text>
</a>
</g>
</g>
<!-- Node2&#45;&gt;Node5 -->
<g id="edge4" class="edge">
<title>Node2&#45;&gt;Node5</title>
<path fill="none" stroke="midnightblue" d="M1930.5,-269.17C1930.5,-260.29 1930.5,-251.03 1930.5,-242.64"/>
<polygon fill="midnightblue" stroke="midnightblue" points="1927,-269.34 1930.5,-279.34 1934,-269.34 1927,-269.34"/>
</g>
<!-- Node6 -->
<g id="node6" class="node">
<title>Node6</title>
<g id="a_node6"><a xlink:href="_i_e_a_p_i_8cpp.html" target="_top" xlink:title=" ">
<polygon fill="white" stroke="black" points="2091,-180.5 2091,-242.5 2248,-242.5 2248,-180.5 2091,-180.5"/>
<text text-anchor="start" x="2099" y="-225.7" font-family="Source Sans Pro" font-size="16.00">Illumination&#45;Engine</text>
<text text-anchor="start" x="2099" y="-207.7" font-family="Source Sans Pro" font-size="16.00">/src/GraphicsModule</text>
<text text-anchor="middle" x="2169.5" y="-189.7" font-family="Source Sans Pro" font-size="16.00">/IEAPI.cpp</text>
</a>
</g>
</g>
<!-- Node2&#45;&gt;Node6 -->
<g id="edge5" class="edge">
<title>Node2&#45;&gt;Node6</title>
<path fill="none" stroke="midnightblue" d="M2013.77,-275.71C2040.35,-264.92 2069.57,-253.06 2095.45,-242.55"/>
<polygon fill="midnightblue" stroke="midnightblue" points="2012.43,-272.47 2004.48,-279.47 2015.07,-278.96 2012.43,-272.47"/>
</g>
<!-- Node7 -->
<g id="node7" class="node">
<title>Node7</title>
<g id="a_node7"><a xlink:href="_i_e_camera_8cpp.html" target="_top" xlink:title=" ">
<polygon fill="white" stroke="black" points="2266,-180.5 2266,-242.5 2423,-242.5 2423,-180.5 2266,-180.5"/>
<text text-anchor="start" x="2274" y="-225.7" font-family="Source Sans Pro" font-size="16.00">Illumination&#45;Engine</text>
<text text-anchor="start" x="2274" y="-207.7" font-family="Source Sans Pro" font-size="16.00">/src/GraphicsModule</text>
<text text-anchor="middle" x="2344.5" y="-189.7" font-family="Source Sans Pro" font-size="16.00">/IECamera.cpp</text>
</a>
</g>
</g>
<!-- Node2&#45;&gt;Node7 -->
<g id="edge6" class="edge">
<title>Node2&#45;&gt;Node7</title>
<path fill="none" stroke="midnightblue" d="M2021.18,-294.33C2087.02,-282.51 2177.94,-264.52 2256.5,-243 2259.62,-242.15 2262.79,-241.24 2265.98,-240.29"/>
<polygon fill="midnightblue" stroke="midnightblue" points="2020.48,-290.9 2011.25,-296.1 2021.71,-297.79 2020.48,-290.9"/>
</g>
<!-- Node8 -->
<g id="node8" class="node">
<title>Node8</title>
<g id="a_node8"><a xlink:href="_i_e_render_engine_8cpp.html" target="_top" xlink:title=" ">
<polygon fill="white" stroke="black" points="1398,-81.5 1398,-143.5 1557,-143.5 1557,-81.5 1398,-81.5"/>
<text text-anchor="start" x="1406" y="-126.7" font-family="Source Sans Pro" font-size="16.00">Illumination&#45;Engine</text>
<text text-anchor="start" x="1406" y="-108.7" font-family="Source Sans Pro" font-size="16.00">/src/GraphicsModule</text>
<text text-anchor="middle" x="1477.5" y="-90.7" font-family="Source Sans Pro" font-size="16.00">/IERenderEngine.cpp</text>
</a>
</g>
</g>
<!-- Node2&#45;&gt;Node8 -->
<g id="edge7" class="edge">
<title>Node2&#45;&gt;Node8</title>
<path fill="none" stroke="midnightblue" d="M2021.23,-304.68C2166.16,-296.03 2436.62,-275.69 2465.5,-243 2484.04,-222.02 2484.62,-200.45 2465.5,-180 2404.01,-114.23 1781.49,-111.57 1557.36,-112.78"/>
<polygon fill="midnightblue" stroke="midnightblue" points="2020.79,-301.19 2011.01,-305.28 2021.2,-308.18 2020.79,-301.19"/>
</g>
<!-- Node10 -->
<g id="node10" class="node">
<title>Node10</title>
<g id="a_node10"><a xlink:href="_i_e_image_8cpp.html" target="_top" xlink:title=" ">
<polygon fill="white" stroke="black" points="2518,-180.5 2518,-242.5 2675,-242.5 2675,-180.5 2518,-180.5"/>
<text text-anchor="start" x="2526" y="-225.7" font-family="Source Sans Pro" font-size="16.00">Illumination&#45;Engine</text>
<text text-anchor="start" x="2526" y="-207.7" font-family="Source Sans Pro" font-size="16.00">/src/GraphicsModule</text>
<text text-anchor="middle" x="2596.5" y="-189.7" font-family="Source Sans Pro" font-size="16.00">/Image/IEImage.cpp</text>
</a>
</g>
</g>
<!-- Node2&#45;&gt;Node10 -->
<g id="edge9" class="edge">
<title>Node2&#45;&gt;Node10</title>
<path fill="none" stroke="midnightblue" d="M2021.12,-304.63C2134.86,-297.23 2335.44,-279.92 2503.5,-243 2508.23,-241.96 2513.06,-240.78 2517.91,-239.49"/>
<polygon fill="midnightblue" stroke="midnightblue" points="2020.82,-301.14 2011.06,-305.27 2021.26,-308.13 2020.82,-301.14"/>
</g>
<!-- Node2&#45;&gt;Node11 -->
<g id="edge10" class="edge">
<title>Node2&#45;&gt;Node11</title>
<path fill="none" stroke="midnightblue" d="M2021.46,-305.34C2299.37,-292.55 3121.92,-253.98 3178.5,-243 3181.23,-242.47 3183.98,-241.88 3186.75,-241.23"/>
<polygon fill="midnightblue" stroke="midnightblue" points="2021.24,-301.85 2011.41,-305.81 2021.56,-308.84 2021.24,-301.85"/>
</g>
<!-- Node12 -->
<g id="node12" class="node">
<title>Node12</title>
<g id="a_node12"><a xlink:href="_i_e_framebuffer_8cpp.html" target="_top" xlink:title=" ">
<polygon fill="white" stroke="black" points="2693.5,-180.5 2693.5,-242.5 2923.5,-242.5 2923.5,-180.5 2693.5,-180.5"/>
<text text-anchor="start" x="2701.5" y="-225.7" font-family="Source Sans Pro" font-size="16.00">Illumination&#45;Engine</text>
<text text-anchor="start" x="2701.5" y="-207.7" font-family="Source Sans Pro" font-size="16.00">/src/GraphicsModule</text>
<text text-anchor="middle" x="2808.5" y="-189.7" font-family="Source Sans Pro" font-size="16.00">/RenderPass/IEFramebuffer.cpp</text>
</a>
</g>
</g>
<!-- Node2&#45;&gt;Node12 -->
<g id="edge11" class="edge">
<title>Node2&#45;&gt;Node12</title>
<path fill="none" stroke="midnightblue" d="M2021.65,-305.9C2163.82,-299.29 2446.65,-282.12 2683.5,-243 2686.7,-242.47 2689.93,-241.91 2693.19,-241.31"/>
<polygon fill="midnightblue" stroke="midnightblue" points="2021.07,-302.42 2011.24,-306.38 2021.39,-309.42 2021.07,-302.42"/>
</g>
<!-- Node13 -->
<g id="node13" class="node">
<title>Node13</title>
<g id="a_node13"><a xlink:href="_i_e_render_pass_8cpp.html" target="_top" xlink:title=" ">
<polygon fill="white" stroke="black" points="2942,-180.5 2942,-242.5 3169,-242.5 3169,-180.5 2942,-180.5"/>
<text text-anchor="start" x="2950" y="-225.7" font-family="Source Sans Pro" font-size="16.00">Illumination&#45;Engine</text>
<text text-anchor="start" x="2950" y="-207.7" font-family="Source Sans Pro" font-size="16.00">/src/GraphicsModule</text>
<text text-anchor="middle" x="3055.5" y="-189.7" font-family="Source Sans Pro" font-size="16.00">/RenderPass/IERenderPass.cpp</text>
</a>
</g>
</g>
<!-- Node2&#45;&gt;Node13 -->
<g id="edge12" class="edge">
<title>Node2&#45;&gt;Node13</title>
<path fill="none" stroke="midnightblue" d="M2021.26,-308.83C2197.81,-306.35 2599.4,-294.93 2932.5,-243 2935.54,-242.53 2938.62,-242.01 2941.72,-241.46"/>
<polygon fill="midnightblue" stroke="midnightblue" points="2021.19,-305.33 2011.23,-308.97 2021.28,-312.33 2021.19,-305.33"/>
</g>
<!-- Node14 -->
<g id="node14" class="node">
<title>Node14</title>
<g id="a_node14"><a xlink:href="_i_e_material_8cpp.html" target="_top" xlink:title=" ">
<polygon fill="white" stroke="black" points="284,-180.5 284,-242.5 485,-242.5 485,-180.5 284,-180.5"/>
<text text-anchor="start" x="292" y="-225.7" font-family="Source Sans Pro" font-size="16.00">Illumination&#45;Engine</text>
<text text-anchor="start" x="292" y="-207.7" font-family="Source Sans Pro" font-size="16.00">/src/GraphicsModule</text>
<text text-anchor="middle" x="384.5" y="-189.7" font-family="Source Sans Pro" font-size="16.00">/Renderable/IEMaterial.cpp</text>
</a>
</g>
</g>
<!-- Node2&#45;&gt;Node14 -->
<g id="edge13" class="edge">
<title>Node2&#45;&gt;Node14</title>
<path fill="none" stroke="midnightblue" d="M1839.57,-307.98C1566.17,-303 754.44,-284.99 493.5,-243 490.78,-242.56 488.04,-242.08 485.28,-241.56"/>
<polygon fill="midnightblue" stroke="midnightblue" points="1839.78,-311.49 1849.84,-308.17 1839.91,-304.49 1839.78,-311.49"/>
</g>
<!-- Node15 -->
<g id="node15" class="node">
<title>Node15</title>
<g id="a_node15"><a xlink:href="_i_e_mesh_8cpp.html" target="_top" xlink:title=" ">
<polygon fill="white" stroke="black" points="503,-180.5 503,-242.5 686,-242.5 686,-180.5 503,-180.5"/>
<text text-anchor="start" x="511" y="-225.7" font-family="Source Sans Pro" font-size="16.00">Illumination&#45;Engine</text>
<text text-anchor="start" x="511" y="-207.7" font-family="Source Sans Pro" font-size="16.00">/src/GraphicsModule</text>
<text text-anchor="middle" x="594.5" y="-189.7" font-family="Source Sans Pro" font-size="16.00">/Renderable/IEMesh.cpp</text>
</a>
</g>
</g>
<!-- Node2&#45;&gt;Node15 -->
<g id="edge14" class="edge">
<title>Node2&#45;&gt;Node15</title>
<path fill="none" stroke="midnightblue" d="M1839.62,-307.46C1592.93,-301.48 914.57,-281.89 694.5,-243 691.73,-242.51 688.93,-241.97 686.11,-241.38"/>
<polygon fill="midnightblue" stroke="midnightblue" points="1839.54,-310.96 1849.63,-307.7 1839.71,-303.96 1839.54,-310.96"/>
</g>
<!-- Node16 -->
<g id="node16" class="node">
<title>Node16</title>
<g id="a_node16"><a xlink:href="_i_e_renderable_8cpp.html" target="_top" xlink:title=" ">
<polygon fill="white" stroke="black" points="143,-81.5 143,-143.5 368,-143.5 368,-81.5 143,-81.5"/>
<text text-anchor="start" x="151" y="-126.7" font-family="Source Sans Pro" font-size="16.00">Illumination&#45;Engine</text>
<text text-anchor="start" x="151" y="-108.7" font-family="Source Sans Pro" font-size="16.00">/src/GraphicsModule</text>
<text text-anchor="middle" x="255.5" y="-90.7" font-family="Source Sans Pro" font-size="16.00">/Renderable/IERenderable.cpp</text>
</a>
</g>
</g>
<!-- Node2&#45;&gt;Node16 -->
<g id="edge15" class="edge">
<title>Node2&#45;&gt;Node16</title>
<path fill="none" stroke="midnightblue" d="M2021.29,-303.85C2158.32,-294.38 2404.94,-273.32 2431.5,-243 2449.95,-221.94 2450.99,-200.1 2431.5,-180 2422.43,-170.65 812.82,-128.02 368.15,-116.42"/>
<polygon fill="midnightblue" stroke="midnightblue" points="2020.95,-300.36 2011.21,-304.54 2021.43,-307.35 2020.95,-300.36"/>
</g>
<!-- Node17 -->
<g id="node17" class="node">
<title>Node17</title>
<g id="a_node17"><a xlink:href="_i_e_descriptor_set_8cpp.html" target="_top" xlink:title=" ">
<polygon fill="white" stroke="black" points="704,-180.5 704,-242.5 911,-242.5 911,-180.5 704,-180.5"/>
<text text-anchor="start" x="712" y="-225.7" font-family="Source Sans Pro" font-size="16.00">Illumination&#45;Engine</text>
<text text-anchor="start" x="712" y="-207.7" font-family="Source Sans Pro" font-size="16.00">/src/GraphicsModule</text>
<text text-anchor="middle" x="807.5" y="-189.7" font-family="Source Sans Pro" font-size="16.00">/Shader/IEDescriptorSet.cpp</text>
</a>
</g>
</g>
<!-- Node2&#45;&gt;Node17 -->
<g id="edge16" class="edge">
<title>Node2&#45;&gt;Node17</title>
<path fill="none" stroke="midnightblue" d="M1839.59,-309.51C1661.81,-308.22 1256.13,-298.78 920.5,-243 917.39,-242.48 914.25,-241.92 911.08,-241.31"/>
<polygon fill="midnightblue" stroke="midnightblue" points="1839.66,-313.02 1849.69,-309.58 1839.71,-306.02 1839.66,-313.02"/>
</g>
<!-- Node18 -->
<g id="node18" class="node">
<title>Node18</title>
<g id="a_node18"><a xlink:href="_i_e_pipeline_8cpp.html" target="_top" xlink:title=" ">
<polygon fill="white" stroke="black" points="929.5,-180.5 929.5,-242.5 1101.5,-242.5 1101.5,-180.5 929.5,-180.5"/>
<text text-anchor="start" x="937.5" y="-225.7" font-family="Source Sans Pro" font-size="16.00">Illumination&#45;Engine</text>
<text text-anchor="start" x="937.5" y="-207.7" font-family="Source Sans Pro" font-size="16.00">/src/GraphicsModule</text>
<text text-anchor="middle" x="1015.5" y="-189.7" font-family="Source Sans Pro" font-size="16.00">/Shader/IEPipeline.cpp</text>
</a>
</g>
</g>
<!-- Node2&#45;&gt;Node18 -->
<g id="edge17" class="edge">
<title>Node2&#45;&gt;Node18</title>
<path fill="none" stroke="midnightblue" d="M1839.69,-308.91C1687.46,-306.43 1371.74,-294.81 1110.5,-243 1107.61,-242.43 1104.69,-241.8 1101.75,-241.12"/>
<polygon fill="midnightblue" stroke="midnightblue" points="1839.87,-312.42 1849.93,-309.07 1839.98,-305.42 1839.87,-312.42"/>
</g>
<!-- Node19 -->
<g id="node19" class="node">
<title>Node19</title>
<g id="a_node19"><a xlink:href="_i_e_shader_8cpp.html" target="_top" xlink:title=" ">
<polygon fill="white" stroke="black" points="1119.5,-180.5 1119.5,-242.5 1283.5,-242.5 1283.5,-180.5 1119.5,-180.5"/>
<text text-anchor="start" x="1127.5" y="-225.7" font-family="Source Sans Pro" font-size="16.00">Illumination&#45;Engine</text>
<text text-anchor="start" x="1127.5" y="-207.7" font-family="Source Sans Pro" font-size="16.00">/src/GraphicsModule</text>
<text text-anchor="middle" x="1201.5" y="-189.7" font-family="Source Sans Pro" font-size="16.00">/Shader/IEShader.cpp</text>
</a>
</g>
</g>
<!-- Node2&#45;&gt;Node19 -->
<g id="edge18" class="edge">
<title>Node2&#45;&gt;Node19</title>
<path fill="none" stroke="midnightblue" d="M1839.53,-306.29C1714.86,-300.48 1484.5,-284.65 1292.5,-243 1289.57,-242.36 1286.6,-241.67 1283.61,-240.92"/>
<polygon fill="midnightblue" stroke="midnightblue" points="1839.64,-309.8 1849.79,-306.76 1839.96,-302.81 1839.64,-309.8"/>
</g>
<!-- Node9 -->
<g id="node9" class="node">
<title>Node9</title>
<g id="a_node9"><a xlink:href="main_8cpp.html" target="_top" xlink:title=" ">
<polygon fill="white" stroke="black" points="1402.5,-0.5 1402.5,-44.5 1552.5,-44.5 1552.5,-0.5 1402.5,-0.5"/>
<text text-anchor="start" x="1410.5" y="-27.7" font-family="Source Sans Pro" font-size="16.00">Illumination&#45;Engine</text>
<text text-anchor="middle" x="1477.5" y="-9.7" font-family="Source Sans Pro" font-size="16.00">/src/main.cpp</text>
</a>
</g>
</g>
<!-- Node8&#45;&gt;Node9 -->
<g id="edge8" class="edge">
<title>Node8&#45;&gt;Node9</title>
<path fill="none" stroke="midnightblue" d="M1477.5,-71.09C1477.5,-61.97 1477.5,-52.64 1477.5,-44.68"/>
<polygon fill="midnightblue" stroke="midnightblue" points="1474,-71.22 1477.5,-81.22 1481,-71.22 1474,-71.22"/>
</g>
<!-- Node20&#45;&gt;Node14 -->
<g id="edge21" class="edge">
<title>Node20&#45;&gt;Node14</title>
<path fill="none" stroke="midnightblue" d="M359.65,-369.44C364.71,-360.76 369.37,-351.36 372.5,-342 383.45,-309.23 385.6,-269.38 385.55,-242.61"/>
<polygon fill="midnightblue" stroke="midnightblue" points="356.53,-367.83 354.26,-378.18 362.49,-371.5 356.53,-367.83"/>
</g>
<!-- Node21 -->
<g id="node21" class="node">
<title>Node21</title>
<g id="a_node21"><a xlink:href="_i_e_mesh_8hpp.html" target="_top" xlink:title=" ">
<polygon fill="white" stroke="black" points="179,-279.5 179,-341.5 364,-341.5 364,-279.5 179,-279.5"/>
<text text-anchor="start" x="187" y="-324.7" font-family="Source Sans Pro" font-size="16.00">Illumination&#45;Engine</text>
<text text-anchor="start" x="187" y="-306.7" font-family="Source Sans Pro" font-size="16.00">/src/GraphicsModule</text>
<text text-anchor="middle" x="271.5" y="-288.7" font-family="Source Sans Pro" font-size="16.00">/Renderable/IEMesh.hpp</text>
</a>
</g>
</g>
<!-- Node20&#45;&gt;Node21 -->
<g id="edge22" class="edge">
<title>Node20&#45;&gt;Node21</title>
<path fill="none" stroke="midnightblue" d="M307.44,-369.61C301.68,-360.3 295.62,-350.49 290.14,-341.64"/>
<polygon fill="midnightblue" stroke="midnightblue" points="304.61,-371.68 312.84,-378.34 310.56,-367.99 304.61,-371.68"/>
</g>
<!-- Node20&#45;&gt;Node22 -->
<g id="edge29" class="edge">
<title>Node20&#45;&gt;Node22</title>
<path fill="none" stroke="midnightblue" d="M220.78,-376.63C202.08,-367.63 184.04,-356.28 169.5,-342 141.79,-314.8 126.93,-271.64 119.62,-242.71"/>
<polygon fill="midnightblue" stroke="midnightblue" points="219.45,-379.87 230,-380.85 222.37,-373.5 219.45,-379.87"/>
</g>
<!-- Node21&#45;&gt;Node14 -->
<g id="edge23" class="edge">
<title>Node21&#45;&gt;Node14</title>
<path fill="none" stroke="midnightblue" d="M314.47,-272.62C326,-262.72 338.33,-252.13 349.39,-242.64"/>
<polygon fill="midnightblue" stroke="midnightblue" points="311.94,-270.17 306.63,-279.34 316.5,-275.48 311.94,-270.17"/>
</g>
<!-- Node21&#45;&gt;Node15 -->
<g id="edge24" class="edge">
<title>Node21&#45;&gt;Node15</title>
<path fill="none" stroke="midnightblue" d="M374.07,-278.83C411.65,-267.58 454.51,-254.73 493.5,-243 496.57,-242.08 499.69,-241.14 502.84,-240.19"/>
<polygon fill="midnightblue" stroke="midnightblue" points="372.71,-275.58 364.13,-281.8 374.72,-282.29 372.71,-275.58"/>
</g>
<!-- Node21&#45;&gt;Node16 -->
<g id="edge25" class="edge">
<title>Node21&#45;&gt;Node16</title>
<path fill="none" stroke="midnightblue" d="M268.22,-269.29C265.18,-232.02 260.72,-177.41 257.97,-143.73"/>
<polygon fill="midnightblue" stroke="midnightblue" points="264.73,-269.62 269.04,-279.3 271.71,-269.05 264.73,-269.62"/>
</g>
<!-- Node21&#45;&gt;Node22 -->
<g id="edge26" class="edge">
<title>Node21&#45;&gt;Node22</title>
<path fill="none" stroke="midnightblue" d="M213.74,-274.04C196.96,-263.74 178.79,-252.58 162.6,-242.64"/>
<polygon fill="midnightblue" stroke="midnightblue" points="212.02,-277.09 222.37,-279.34 215.68,-271.13 212.02,-277.09"/>
</g>
<!-- Node22&#45;&gt;Node8 -->
<g id="edge27" class="edge">
<title>Node22&#45;&gt;Node8</title>
<path fill="none" stroke="midnightblue" d="M237.18,-185.37C249.75,-183.32 262.36,-181.48 274.5,-180 695.49,-128.72 1204.22,-116.95 1397.65,-114.28"/>
<polygon fill="midnightblue" stroke="midnightblue" points="236.4,-181.95 227.11,-187.04 237.55,-188.85 236.4,-181.95"/>
</g>
<!-- Node22&#45;&gt;Node16 -->
<g id="edge28" class="edge">
<title>Node22&#45;&gt;Node16</title>
<path fill="none" stroke="midnightblue" d="M166.24,-174.47C181.09,-164.33 197.09,-153.4 211.38,-143.64"/>
<polygon fill="midnightblue" stroke="midnightblue" points="163.93,-171.81 157.65,-180.34 167.88,-177.59 163.93,-171.81"/>
</g>
</g>
</svg>
