<?xml version="1.0" encoding="UTF-8" standalone="no"?>
<!DOCTYPE svg PUBLIC "-//W3C//DTD SVG 1.1//EN"
 "http://www.w3.org/Graphics/SVG/1.1/DTD/svg11.dtd">
<!-- Generated by graphviz version 2.43.0 (0)
 -->
<!-- Title: Illumination&#45;Engine/src/GraphicsModule/CommandBuffer/IECommandBuffer.hpp Pages: 1 -->
<svg width="2266pt" height="539pt"
 viewBox="0.00 0.00 2265.80 539.00" xmlns="http://www.w3.org/2000/svg" xmlns:xlink="http://www.w3.org/1999/xlink">
<g id="graph0" class="graph" transform="scale(1 1) rotate(0) translate(4 535)">
<title>Illumination&#45;Engine/src/GraphicsModule/CommandBuffer/IECommandBuffer.hpp</title>
<polygon fill="white" stroke="transparent" points="-4,4 -4,-535 2261.8,-535 2261.8,4 -4,4"/>
<!-- Node1 -->
<g id="node1" class="node">
<title>Node1</title>
<g id="a_node1"><a xlink:title=" ">
<polygon fill="#bfbfbf" stroke="black" points="1686.3,-468.5 1686.3,-530.5 1981.3,-530.5 1981.3,-468.5 1686.3,-468.5"/>
<text text-anchor="start" x="1694.3" y="-513.7" font-family="Source Sans Pro" font-size="16.00">Illumination&#45;Engine</text>
<text text-anchor="start" x="1694.3" y="-495.7" font-family="Source Sans Pro" font-size="16.00">/src/GraphicsModule</text>
<text text-anchor="middle" x="1833.8" y="-477.7" font-family="Source Sans Pro" font-size="16.00">/CommandBuffer/IECommandBuffer.hpp</text>
</a>
</g>
</g>
<!-- Node2 -->
<g id="node2" class="node">
<title>Node2</title>
<g id="a_node2"><a xlink:href="_i_e_buffer_8hpp.html" target="_top" xlink:title=" ">
<polygon fill="white" stroke="black" points="697.3,-234.5 697.3,-260.5 844.3,-260.5 844.3,-234.5 697.3,-234.5"/>
<text text-anchor="middle" x="770.8" y="-243.7" font-family="Source Sans Pro" font-size="16.00">Buffer/IEBuffer.hpp</text>
</a>
</g>
</g>
<!-- Node1&#45;&gt;Node2 -->
<g id="edge1" class="edge">
<title>Node1&#45;&gt;Node2</title>
<path fill="none" stroke="midnightblue" d="M1686.29,-492.29C1368.6,-477.37 642.55,-434.42 570.8,-351 557.75,-335.84 558.77,-321.98 570.8,-306 585.31,-286.73 639.11,-271.92 687.26,-262.15"/>
<polygon fill="midnightblue" stroke="midnightblue" points="687.98,-265.58 697.11,-260.21 686.62,-258.71 687.98,-265.58"/>
</g>
<!-- Node6 -->
<g id="node6" class="node">
<title>Node6</title>
<g id="a_node6"><a xlink:title=" ">
<polygon fill="white" stroke="#bfbfbf" points="1228.3,-0.5 1228.3,-26.5 1287.3,-26.5 1287.3,-0.5 1228.3,-0.5"/>
<text text-anchor="middle" x="1257.8" y="-9.7" font-family="Source Sans Pro" font-size="16.00">vector</text>
</a>
</g>
</g>
<!-- Node1&#45;&gt;Node6 -->
<g id="edge79" class="edge">
<title>Node1&#45;&gt;Node6</title>
<path fill="none" stroke="midnightblue" d="M1897.58,-468.47C1913.61,-458.61 1929.68,-446.41 1941.8,-432 2028.74,-328.64 2102.64,-263.02 2038.8,-144 2008.03,-86.65 1978.37,-84.08 1916.8,-63 1801.31,-23.47 1422.47,-16.15 1297.9,-14.8"/>
<polygon fill="midnightblue" stroke="midnightblue" points="1297.7,-11.3 1287.67,-14.7 1297.63,-18.3 1297.7,-11.3"/>
</g>
<!-- Node7 -->
<g id="node7" class="node">
<title>Node7</title>
<g id="a_node7"><a xlink:title=" ">
<polygon fill="white" stroke="#bfbfbf" points="1294.3,-72.5 1294.3,-98.5 1419.3,-98.5 1419.3,-72.5 1294.3,-72.5"/>
<text text-anchor="middle" x="1356.8" y="-81.7" font-family="Source Sans Pro" font-size="16.00">vulkan/vulkan.h</text>
</a>
</g>
</g>
<!-- Node1&#45;&gt;Node7 -->
<g id="edge80" class="edge">
<title>Node1&#45;&gt;Node7</title>
<path fill="none" stroke="midnightblue" d="M1863.67,-468.21C1872.19,-457.62 1880.35,-445.09 1884.8,-432 1891.22,-413.06 1893.22,-405.14 1884.8,-387 1871.22,-357.78 1696.96,-195.03 1595.8,-144 1543.39,-117.57 1478.32,-102.94 1429.31,-95.06"/>
<polygon fill="midnightblue" stroke="midnightblue" points="1429.84,-91.6 1419.42,-93.53 1428.77,-98.52 1429.84,-91.6"/>
</g>
<!-- Node14 -->
<g id="node14" class="node">
<title>Node14</title>
<g id="a_node14"><a xlink:href="_i_e_copy_buffer_to_image_info_8hpp.html" target="_top" xlink:title=" ">
<polygon fill="white" stroke="black" points="809.3,-306.5 809.3,-350.5 1082.3,-350.5 1082.3,-306.5 809.3,-306.5"/>
<text text-anchor="start" x="817.3" y="-333.7" font-family="Source Sans Pro" font-size="16.00">CommandBuffer/Dependency</text>
<text text-anchor="middle" x="945.8" y="-315.7" font-family="Source Sans Pro" font-size="16.00">Structs/IECopyBufferToImageInfo.hpp</text>
</a>
</g>
</g>
<!-- Node1&#45;&gt;Node14 -->
<g id="edge19" class="edge">
<title>Node1&#45;&gt;Node14</title>
<path fill="none" stroke="midnightblue" d="M1686.08,-488.45C1572.45,-478.91 1412.03,-461.54 1273.8,-432 1181.12,-412.19 1077.17,-377.5 1011.62,-354.03"/>
<polygon fill="midnightblue" stroke="midnightblue" points="1012.43,-350.6 1001.83,-350.5 1010.06,-357.18 1012.43,-350.6"/>
</g>
<!-- Node15 -->
<g id="node15" class="node">
<title>Node15</title>
<g id="a_node15"><a xlink:href="_i_e_image_8hpp.html" target="_top" xlink:title=" ">
<polygon fill="white" stroke="black" points="438.3,-234.5 438.3,-260.5 587.3,-260.5 587.3,-234.5 438.3,-234.5"/>
<text text-anchor="middle" x="512.8" y="-243.7" font-family="Source Sans Pro" font-size="16.00">Image/IEImage.hpp</text>
</a>
</g>
</g>
<!-- Node1&#45;&gt;Node15 -->
<g id="edge75" class="edge">
<title>Node1&#45;&gt;Node15</title>
<path fill="none" stroke="midnightblue" d="M1686.25,-495.5C1390.49,-488.72 745.33,-469.76 651.8,-432 600.66,-411.35 590.58,-395.35 557.8,-351 539.33,-326.02 526.38,-292.27 519.26,-270.45"/>
<polygon fill="midnightblue" stroke="midnightblue" points="522.56,-269.28 516.23,-260.78 515.88,-271.37 522.56,-269.28"/>
</g>
<!-- Node17 -->
<g id="node17" class="node">
<title>Node17</title>
<g id="a_node17"><a xlink:href="_i_e_dependency_info_8hpp.html" target="_top" xlink:title=" ">
<polygon fill="white" stroke="black" points="1651.8,-387.5 1651.8,-431.5 1875.8,-431.5 1875.8,-387.5 1651.8,-387.5"/>
<text text-anchor="start" x="1659.8" y="-414.7" font-family="Source Sans Pro" font-size="16.00">CommandBuffer/Dependency</text>
<text text-anchor="middle" x="1763.8" y="-396.7" font-family="Source Sans Pro" font-size="16.00">Structs/IEDependencyInfo.hpp</text>
</a>
</g>
</g>
<!-- Node1&#45;&gt;Node17 -->
<g id="edge34" class="edge">
<title>Node1&#45;&gt;Node17</title>
<path fill="none" stroke="midnightblue" d="M1809.71,-468.22C1802.38,-459 1794.34,-448.9 1787.07,-439.76"/>
<polygon fill="midnightblue" stroke="midnightblue" points="1789.61,-437.33 1780.65,-431.68 1784.13,-441.69 1789.61,-437.33"/>
</g>
<!-- Node20 -->
<g id="node20" class="node">
<title>Node20</title>
<g id="a_node20"><a xlink:href="_i_e_render_pass_begin_info_8hpp.html" target="_top" xlink:title=" ">
<polygon fill="white" stroke="black" points="1377.8,-387.5 1377.8,-431.5 1633.8,-431.5 1633.8,-387.5 1377.8,-387.5"/>
<text text-anchor="start" x="1385.8" y="-414.7" font-family="Source Sans Pro" font-size="16.00">CommandBuffer/Dependency</text>
<text text-anchor="middle" x="1505.8" y="-396.7" font-family="Source Sans Pro" font-size="16.00">Structs/IERenderPassBeginInfo.hpp</text>
</a>
</g>
</g>
<!-- Node1&#45;&gt;Node20 -->
<g id="edge46" class="edge">
<title>Node1&#45;&gt;Node20</title>
<path fill="none" stroke="midnightblue" d="M1721.83,-468.46C1680.09,-457.26 1633.33,-444.72 1594.01,-434.17"/>
<polygon fill="midnightblue" stroke="midnightblue" points="1594.75,-430.74 1584.18,-431.53 1592.94,-437.5 1594.75,-430.74"/>
</g>
<!-- Node22 -->
<g id="node22" class="node">
<title>Node22</title>
<g id="a_node22"><a xlink:href="_i_e_pipeline_8hpp.html" target="_top" xlink:title=" ">
<polygon fill="white" stroke="black" points="1100.8,-306.5 1100.8,-350.5 1280.8,-350.5 1280.8,-306.5 1100.8,-306.5"/>
<text text-anchor="start" x="1108.8" y="-333.7" font-family="Source Sans Pro" font-size="16.00">GraphicsModule/Shader</text>
<text text-anchor="middle" x="1190.8" y="-315.7" font-family="Source Sans Pro" font-size="16.00">/IEPipeline.hpp</text>
</a>
</g>
</g>
<!-- Node1&#45;&gt;Node22 -->
<g id="edge53" class="edge">
<title>Node1&#45;&gt;Node22</title>
<path fill="none" stroke="midnightblue" d="M1686.18,-491.72C1593.06,-483.98 1471.42,-467.41 1368.8,-432 1316.59,-413.99 1262.4,-380.25 1227.74,-356.41"/>
<polygon fill="midnightblue" stroke="midnightblue" points="1229.57,-353.42 1219.36,-350.58 1225.57,-359.17 1229.57,-353.42"/>
</g>
<!-- Node29 -->
<g id="node29" class="node">
<title>Node29</title>
<g id="a_node29"><a xlink:href="_i_e_dependent_8hpp.html" target="_top" xlink:title=" ">
<polygon fill="white" stroke="black" points="1893.8,-153.5 1893.8,-179.5 2029.8,-179.5 2029.8,-153.5 1893.8,-153.5"/>
<text text-anchor="middle" x="1961.8" y="-162.7" font-family="Source Sans Pro" font-size="16.00">IEDependent.hpp</text>
</a>
</g>
</g>
<!-- Node1&#45;&gt;Node29 -->
<g id="edge72" class="edge">
<title>Node1&#45;&gt;Node29</title>
<path fill="none" stroke="midnightblue" d="M1884.1,-468.39C1896.95,-458.36 1909.48,-446.1 1917.8,-432 1964.66,-352.57 1965.34,-237.67 1963.25,-189.77"/>
<polygon fill="midnightblue" stroke="midnightblue" points="1966.74,-189.4 1962.72,-179.59 1959.75,-189.76 1966.74,-189.4"/>
</g>
<!-- Node30 -->
<g id="node30" class="node">
<title>Node30</title>
<g id="a_node30"><a xlink:title=" ">
<polygon fill="white" stroke="#bfbfbf" points="2037.3,-396.5 2037.3,-422.5 2096.3,-422.5 2096.3,-396.5 2037.3,-396.5"/>
<text text-anchor="middle" x="2066.8" y="-405.7" font-family="Source Sans Pro" font-size="16.00">mutex</text>
</a>
</g>
</g>
<!-- Node1&#45;&gt;Node30 -->
<g id="edge76" class="edge">
<title>Node1&#45;&gt;Node30</title>
<path fill="none" stroke="midnightblue" d="M1925.94,-468.48C1957,-457.73 1991.67,-445.03 2022.8,-432 2026.48,-430.46 2030.3,-428.75 2034.08,-427"/>
<polygon fill="midnightblue" stroke="midnightblue" points="2035.76,-430.08 2043.28,-422.62 2032.75,-423.76 2035.76,-430.08"/>
</g>
<!-- Node31 -->
<g id="node31" class="node">
<title>Node31</title>
<g id="a_node31"><a xlink:title=" ">
<polygon fill="white" stroke="#bfbfbf" points="2114.3,-396.5 2114.3,-422.5 2175.3,-422.5 2175.3,-396.5 2114.3,-396.5"/>
<text text-anchor="middle" x="2144.8" y="-405.7" font-family="Source Sans Pro" font-size="16.00">thread</text>
</a>
</g>
</g>
<!-- Node1&#45;&gt;Node31 -->
<g id="edge77" class="edge">
<title>Node1&#45;&gt;Node31</title>
<path fill="none" stroke="midnightblue" d="M1981.39,-469.91C2022.36,-459.97 2066.39,-447.37 2105.8,-432 2109.14,-430.7 2112.55,-429.16 2115.9,-427.52"/>
<polygon fill="midnightblue" stroke="midnightblue" points="2117.82,-430.46 2125.05,-422.71 2114.56,-424.26 2117.82,-430.46"/>
</g>
<!-- Node32 -->
<g id="node32" class="node">
<title>Node32</title>
<g id="a_node32"><a xlink:title=" ">
<polygon fill="white" stroke="#bfbfbf" points="2193.8,-396.5 2193.8,-422.5 2257.8,-422.5 2257.8,-396.5 2193.8,-396.5"/>
<text text-anchor="middle" x="2225.8" y="-405.7" font-family="Source Sans Pro" font-size="16.00">variant</text>
</a>
</g>
</g>
<!-- Node1&#45;&gt;Node32 -->
<g id="edge78" class="edge">
<title>Node1&#45;&gt;Node32</title>
<path fill="none" stroke="midnightblue" d="M1981.48,-480.46C2045.16,-470.15 2119.78,-454.64 2184.8,-432 2188.61,-430.67 2192.52,-429.03 2196.32,-427.26"/>
<polygon fill="midnightblue" stroke="midnightblue" points="2198.1,-430.28 2205.47,-422.67 2194.96,-424.02 2198.1,-430.28"/>
</g>
<!-- Node3 -->
<g id="node3" class="node">
<title>Node3</title>
<g id="a_node3"><a xlink:href="_i_e_dependency_8hpp.html" target="_top" xlink:title=" ">
<polygon fill="white" stroke="black" points="648.3,-144.5 648.3,-188.5 893.3,-188.5 893.3,-144.5 648.3,-144.5"/>
<text text-anchor="start" x="656.3" y="-171.7" font-family="Source Sans Pro" font-size="16.00">GraphicsModule/CommandBuffer</text>
<text text-anchor="middle" x="770.8" y="-153.7" font-family="Source Sans Pro" font-size="16.00">/IEDependency.hpp</text>
</a>
</g>
</g>
<!-- Node2&#45;&gt;Node3 -->
<g id="edge2" class="edge">
<title>Node2&#45;&gt;Node3</title>
<path fill="none" stroke="midnightblue" d="M770.8,-234.16C770.8,-224.66 770.8,-211.11 770.8,-198.71"/>
<polygon fill="midnightblue" stroke="midnightblue" points="774.3,-198.67 770.8,-188.67 767.3,-198.67 774.3,-198.67"/>
</g>
<!-- Node2&#45;&gt;Node6 -->
<g id="edge18" class="edge">
<title>Node2&#45;&gt;Node6</title>
<path fill="none" stroke="midnightblue" d="M706.36,-234.39C680.84,-226.1 654,-212.21 638.8,-189 627.84,-172.27 625.81,-159.21 638.8,-144 671.96,-105.16 817.31,-124.05 865.8,-108 906.75,-94.44 910.84,-76.55 951.8,-63 1044.04,-32.47 1158.48,-20.88 1217.85,-16.7"/>
<polygon fill="midnightblue" stroke="midnightblue" points="1218.19,-20.18 1227.93,-16.02 1217.72,-13.2 1218.19,-20.18"/>
</g>
<!-- Node2&#45;&gt;Node7 -->
<g id="edge15" class="edge">
<title>Node2&#45;&gt;Node7</title>
<path fill="none" stroke="midnightblue" d="M844.47,-245.07C905.67,-240.9 993.05,-227.82 1058.8,-189 1081.34,-175.69 1074.39,-157.54 1096.8,-144 1153.88,-109.5 1229.2,-95.63 1284.07,-90.09"/>
<polygon fill="midnightblue" stroke="midnightblue" points="1284.44,-93.57 1294.07,-89.14 1283.78,-86.6 1284.44,-93.57"/>
</g>
<!-- Node8 -->
<g id="node8" class="node">
<title>Node8</title>
<g id="a_node8"><a xlink:href="_i_e_a_p_i_8hpp.html" target="_top" xlink:title=" ">
<polygon fill="white" stroke="black" points="470.3,-153.5 470.3,-179.5 553.3,-179.5 553.3,-153.5 470.3,-153.5"/>
<text text-anchor="middle" x="511.8" y="-162.7" font-family="Source Sans Pro" font-size="16.00">IEAPI.hpp</text>
</a>
</g>
</g>
<!-- Node2&#45;&gt;Node8 -->
<g id="edge7" class="edge">
<title>Node2&#45;&gt;Node8</title>
<path fill="none" stroke="midnightblue" d="M723.66,-234.45C682.28,-223.56 620.62,-206.58 567.8,-189 562.48,-187.23 556.94,-185.26 551.48,-183.24"/>
<polygon fill="midnightblue" stroke="midnightblue" points="552.43,-179.86 541.84,-179.61 549.96,-186.41 552.43,-179.86"/>
</g>
<!-- Node10 -->
<g id="node10" class="node">
<title>Node10</title>
<g id="a_node10"><a xlink:title=" ">
<polygon fill="white" stroke="#bfbfbf" points="308.3,-0.5 308.3,-26.5 371.3,-26.5 371.3,-0.5 308.3,-0.5"/>
<text text-anchor="middle" x="339.8" y="-9.7" font-family="Source Sans Pro" font-size="16.00">cstdint</text>
</a>
</g>
</g>
<!-- Node2&#45;&gt;Node10 -->
<g id="edge16" class="edge">
<title>Node2&#45;&gt;Node10</title>
<path fill="none" stroke="midnightblue" d="M697.09,-235.84C611.78,-223.03 480.42,-201.69 460.8,-189 402.22,-151.13 364.13,-73.91 348.25,-36.2"/>
<polygon fill="midnightblue" stroke="midnightblue" points="351.38,-34.61 344.35,-26.68 344.9,-37.26 351.38,-34.61"/>
</g>
<!-- Node11 -->
<g id="node11" class="node">
<title>Node11</title>
<g id="a_node11"><a xlink:title=" ">
<polygon fill="white" stroke="#bfbfbf" points="191.3,-153.5 191.3,-179.5 376.3,-179.5 376.3,-153.5 191.3,-153.5"/>
<text text-anchor="middle" x="283.8" y="-162.7" font-family="Source Sans Pro" font-size="16.00">include/vk_mem_alloc.h</text>
</a>
</g>
</g>
<!-- Node2&#45;&gt;Node11 -->
<g id="edge13" class="edge">
<title>Node2&#45;&gt;Node11</title>
<path fill="none" stroke="midnightblue" d="M697.22,-236.52C620.35,-225.82 496.35,-207.83 389.8,-189 376.98,-186.73 363.33,-184.12 350.24,-181.51"/>
<polygon fill="midnightblue" stroke="midnightblue" points="350.85,-178.06 340.36,-179.52 349.47,-184.93 350.85,-178.06"/>
</g>
<!-- Node12 -->
<g id="node12" class="node">
<title>Node12</title>
<g id="a_node12"><a xlink:title=" ">
<polygon fill="white" stroke="#bfbfbf" points="911.8,-153.5 911.8,-179.5 1049.8,-179.5 1049.8,-153.5 911.8,-153.5"/>
<text text-anchor="middle" x="980.8" y="-162.7" font-family="Source Sans Pro" font-size="16.00">include/GL/glew.h</text>
</a>
</g>
</g>
<!-- Node2&#45;&gt;Node12 -->
<g id="edge14" class="edge">
<title>Node2&#45;&gt;Node12</title>
<path fill="none" stroke="midnightblue" d="M803.15,-234.33C839.71,-220.57 899.33,-198.15 939.29,-183.11"/>
<polygon fill="midnightblue" stroke="midnightblue" points="940.62,-186.35 948.75,-179.55 938.16,-179.8 940.62,-186.35"/>
</g>
<!-- Node13 -->
<g id="node13" class="node">
<title>Node13</title>
<g id="a_node13"><a xlink:title=" ">
<polygon fill="white" stroke="#bfbfbf" points="1105.8,-153.5 1105.8,-179.5 1191.8,-179.5 1191.8,-153.5 1105.8,-153.5"/>
<text text-anchor="middle" x="1148.8" y="-162.7" font-family="Source Sans Pro" font-size="16.00">functional</text>
</a>
</g>
</g>
<!-- Node2&#45;&gt;Node13 -->
<g id="edge17" class="edge">
<title>Node2&#45;&gt;Node13</title>
<path fill="none" stroke="midnightblue" d="M844.32,-237.24C909.94,-228.06 1008.29,-212.02 1091.8,-189 1097.88,-187.32 1104.23,-185.26 1110.39,-183.08"/>
<polygon fill="midnightblue" stroke="midnightblue" points="1111.67,-186.33 1119.85,-179.59 1109.25,-179.77 1111.67,-186.33"/>
</g>
<!-- Node4 -->
<g id="node4" class="node">
<title>Node4</title>
<g id="a_node4"><a xlink:title=" ">
<polygon fill="white" stroke="#bfbfbf" points="1676.8,-72.5 1676.8,-98.5 1750.8,-98.5 1750.8,-72.5 1676.8,-72.5"/>
<text text-anchor="middle" x="1713.8" y="-81.7" font-family="Source Sans Pro" font-size="16.00">memory</text>
</a>
</g>
</g>
<!-- Node3&#45;&gt;Node4 -->
<g id="edge3" class="edge">
<title>Node3&#45;&gt;Node4</title>
<path fill="none" stroke="midnightblue" d="M893.35,-145.14C896.53,-144.74 899.68,-144.36 902.8,-144 1135.58,-117.14 1195.08,-124.81 1428.8,-108 1512.43,-101.98 1609.83,-94.54 1666.38,-90.18"/>
<polygon fill="midnightblue" stroke="midnightblue" points="1666.75,-93.66 1676.46,-89.4 1666.22,-86.68 1666.75,-93.66"/>
</g>
<!-- Node5 -->
<g id="node5" class="node">
<title>Node5</title>
<g id="a_node5"><a xlink:title=" ">
<polygon fill="white" stroke="#bfbfbf" points="471.3,-0.5 471.3,-26.5 526.3,-26.5 526.3,-0.5 471.3,-0.5"/>
<text text-anchor="middle" x="498.8" y="-9.7" font-family="Source Sans Pro" font-size="16.00">string</text>
</a>
</g>
</g>
<!-- Node3&#45;&gt;Node5 -->
<g id="edge4" class="edge">
<title>Node3&#45;&gt;Node5</title>
<path fill="none" stroke="midnightblue" d="M707.76,-144.43C684.64,-135.15 658.97,-122.93 637.8,-108 615.43,-92.24 617.71,-79.38 595.8,-63 577.47,-49.31 554.7,-37.69 535.82,-29.26"/>
<polygon fill="midnightblue" stroke="midnightblue" points="537.2,-26.04 526.63,-25.27 534.41,-32.46 537.2,-26.04"/>
</g>
<!-- Node3&#45;&gt;Node6 -->
<g id="edge5" class="edge">
<title>Node3&#45;&gt;Node6</title>
<path fill="none" stroke="midnightblue" d="M838.77,-144.42C942.09,-112.39 1135.41,-52.45 1218.35,-26.73"/>
<polygon fill="midnightblue" stroke="midnightblue" points="1219.63,-30 1228.14,-23.69 1217.55,-23.31 1219.63,-30"/>
</g>
<!-- Node3&#45;&gt;Node7 -->
<g id="edge6" class="edge">
<title>Node3&#45;&gt;Node7</title>
<path fill="none" stroke="midnightblue" d="M893.38,-145.38C896.55,-144.91 899.69,-144.45 902.8,-144 1037.18,-124.55 1194.49,-105.44 1284.21,-94.89"/>
<polygon fill="midnightblue" stroke="midnightblue" points="1284.76,-98.35 1294.28,-93.71 1283.94,-91.4 1284.76,-98.35"/>
</g>
<!-- Node8&#45;&gt;Node5 -->
<g id="edge12" class="edge">
<title>Node8&#45;&gt;Node5</title>
<path fill="none" stroke="midnightblue" d="M484.76,-153.44C467,-143.9 445.19,-128.73 434.8,-108 425.83,-90.12 425.9,-80.91 434.8,-63 441.17,-50.17 452.75,-39.82 464.32,-32.03"/>
<polygon fill="midnightblue" stroke="midnightblue" points="466.44,-34.83 473.08,-26.57 462.74,-28.89 466.44,-34.83"/>
</g>
<!-- Node9 -->
<g id="node9" class="node">
<title>Node9</title>
<g id="a_node9"><a xlink:href="_i_e_version_8hpp.html" target="_top" xlink:title=" ">
<polygon fill="white" stroke="black" points="443.8,-72.5 443.8,-98.5 553.8,-98.5 553.8,-72.5 443.8,-72.5"/>
<text text-anchor="middle" x="498.8" y="-81.7" font-family="Source Sans Pro" font-size="16.00">IEVersion.hpp</text>
</a>
</g>
</g>
<!-- Node8&#45;&gt;Node9 -->
<g id="edge8" class="edge">
<title>Node8&#45;&gt;Node9</title>
<path fill="none" stroke="midnightblue" d="M509.76,-153.16C507.82,-141.33 504.84,-123.21 502.47,-108.84"/>
<polygon fill="midnightblue" stroke="midnightblue" points="505.89,-108.06 500.81,-98.76 498.98,-109.19 505.89,-108.06"/>
</g>
<!-- Node9&#45;&gt;Node5 -->
<g id="edge10" class="edge">
<title>Node9&#45;&gt;Node5</title>
<path fill="none" stroke="midnightblue" d="M498.8,-72.31C498.8,-62.47 498.8,-48.38 498.8,-36.57"/>
<polygon fill="midnightblue" stroke="midnightblue" points="502.3,-36.55 498.8,-26.55 495.3,-36.55 502.3,-36.55"/>
</g>
<!-- Node9&#45;&gt;Node6 -->
<g id="edge11" class="edge">
<title>Node9&#45;&gt;Node6</title>
<path fill="none" stroke="midnightblue" d="M554.13,-74.96C579.56,-70.83 610.14,-66.22 637.8,-63 856.13,-37.61 1119.3,-21.93 1217.92,-16.57"/>
<polygon fill="midnightblue" stroke="midnightblue" points="1218.24,-20.06 1228.03,-16.03 1217.86,-13.07 1218.24,-20.06"/>
</g>
<!-- Node9&#45;&gt;Node10 -->
<g id="edge9" class="edge">
<title>Node9&#45;&gt;Node10</title>
<path fill="none" stroke="midnightblue" d="M471.46,-72.47C445.3,-60.95 405.63,-43.49 376.68,-30.74"/>
<polygon fill="midnightblue" stroke="midnightblue" points="377.87,-27.44 367.3,-26.61 375.05,-33.84 377.87,-27.44"/>
</g>
<!-- Node14&#45;&gt;Node2 -->
<g id="edge20" class="edge">
<title>Node14&#45;&gt;Node2</title>
<path fill="none" stroke="midnightblue" d="M898.9,-306.33C870.04,-293.3 833.62,-276.86 806.99,-264.84"/>
<polygon fill="midnightblue" stroke="midnightblue" points="808.22,-261.55 797.66,-260.63 805.33,-267.93 808.22,-261.55"/>
</g>
<!-- Node14&#45;&gt;Node4 -->
<g id="edge32" class="edge">
<title>Node14&#45;&gt;Node4</title>
<path fill="none" stroke="midnightblue" d="M1082.55,-307.2C1085.66,-306.79 1088.75,-306.39 1091.8,-306 1239.02,-287.18 1283.68,-318.95 1423.8,-270 1534.46,-231.34 1646.32,-143.71 1692.17,-105.22"/>
<polygon fill="midnightblue" stroke="midnightblue" points="1694.58,-107.77 1699.95,-98.63 1690.06,-102.43 1694.58,-107.77"/>
</g>
<!-- Node14&#45;&gt;Node7 -->
<g id="edge33" class="edge">
<title>Node14&#45;&gt;Node7</title>
<path fill="none" stroke="midnightblue" d="M1075.91,-306.49C1162.8,-292.14 1262.79,-274.87 1271.8,-270 1315.21,-246.51 1327.64,-234.06 1347.8,-189 1359.29,-163.31 1360.04,-130.42 1358.93,-108.92"/>
<polygon fill="midnightblue" stroke="midnightblue" points="1362.41,-108.55 1358.22,-98.82 1355.42,-109.04 1362.41,-108.55"/>
</g>
<!-- Node14&#45;&gt;Node15 -->
<g id="edge21" class="edge">
<title>Node14&#45;&gt;Node15</title>
<path fill="none" stroke="midnightblue" d="M830.61,-306.49C754,-292.51 655.53,-274.54 588.64,-262.34"/>
<polygon fill="midnightblue" stroke="midnightblue" points="589.06,-258.86 578.6,-260.51 587.81,-265.74 589.06,-258.86"/>
</g>
<!-- Node15&#45;&gt;Node3 -->
<g id="edge22" class="edge">
<title>Node15&#45;&gt;Node3</title>
<path fill="none" stroke="midnightblue" d="M552.26,-234.42C589.36,-223.06 645.95,-205.73 692.25,-191.55"/>
<polygon fill="midnightblue" stroke="midnightblue" points="693.42,-194.85 701.96,-188.58 691.37,-188.16 693.42,-194.85"/>
</g>
<!-- Node15&#45;&gt;Node5 -->
<g id="edge30" class="edge">
<title>Node15&#45;&gt;Node5</title>
<path fill="none" stroke="midnightblue" d="M438.25,-242.96C309.67,-236.09 57.35,-218.92 30.8,-189 17.52,-174.04 18.69,-159.92 30.8,-144 83.86,-74.26 359.37,-32.39 461.05,-19.11"/>
<polygon fill="midnightblue" stroke="midnightblue" points="461.7,-22.56 471.17,-17.81 460.81,-15.61 461.7,-22.56"/>
</g>
<!-- Node15&#45;&gt;Node6 -->
<g id="edge31" class="edge">
<title>Node15&#45;&gt;Node6</title>
<path fill="none" stroke="midnightblue" d="M437.81,-242.23C316.46,-234.55 88.07,-216.58 63.8,-189 50.58,-173.99 49.99,-158.47 63.8,-144 122.85,-82.12 757.42,-148.44 832.8,-108 854.65,-96.28 844.4,-75.55 865.8,-63 924.91,-28.32 1130.67,-18.23 1218.06,-15.47"/>
<polygon fill="midnightblue" stroke="midnightblue" points="1218.22,-18.97 1228.11,-15.17 1218.01,-11.97 1218.22,-18.97"/>
</g>
<!-- Node15&#45;&gt;Node7 -->
<g id="edge27" class="edge">
<title>Node15&#45;&gt;Node7</title>
<path fill="none" stroke="midnightblue" d="M498.31,-234.44C475.21,-213.82 435.13,-171.36 460.8,-144 474.84,-129.02 1073.28,-99.72 1284.17,-89.84"/>
<polygon fill="midnightblue" stroke="midnightblue" points="1284.39,-93.34 1294.22,-89.37 1284.06,-86.35 1284.39,-93.34"/>
</g>
<!-- Node15&#45;&gt;Node8 -->
<g id="edge23" class="edge">
<title>Node15&#45;&gt;Node8</title>
<path fill="none" stroke="midnightblue" d="M512.64,-234.16C512.49,-222.33 512.26,-204.21 512.08,-189.84"/>
<polygon fill="midnightblue" stroke="midnightblue" points="515.58,-189.71 511.95,-179.76 508.58,-189.8 515.58,-189.71"/>
</g>
<!-- Node15&#45;&gt;Node10 -->
<g id="edge28" class="edge">
<title>Node15&#45;&gt;Node10</title>
<path fill="none" stroke="midnightblue" d="M438.06,-243.2C306.61,-236.63 45.23,-219.81 17.8,-189 -69.37,-91.12 192.61,-37.73 297.98,-20.64"/>
<polygon fill="midnightblue" stroke="midnightblue" points="298.64,-24.08 307.97,-19.06 297.54,-17.17 298.64,-24.08"/>
</g>
<!-- Node15&#45;&gt;Node11 -->
<g id="edge25" class="edge">
<title>Node15&#45;&gt;Node11</title>
<path fill="none" stroke="midnightblue" d="M477.52,-234.33C437.39,-220.49 371.81,-197.86 328.23,-182.83"/>
<polygon fill="midnightblue" stroke="midnightblue" points="329.33,-179.51 318.74,-179.55 327.05,-186.12 329.33,-179.51"/>
</g>
<!-- Node15&#45;&gt;Node12 -->
<g id="edge24" class="edge">
<title>Node15&#45;&gt;Node12</title>
<path fill="none" stroke="midnightblue" d="M587.62,-236.58C683.47,-223.68 844.2,-201.35 902.8,-189 911.88,-187.09 921.47,-184.73 930.71,-182.28"/>
<polygon fill="midnightblue" stroke="midnightblue" points="931.81,-185.61 940.54,-179.61 929.98,-178.85 931.81,-185.61"/>
</g>
<!-- Node15&#45;&gt;Node13 -->
<g id="edge29" class="edge">
<title>Node15&#45;&gt;Node13</title>
<path fill="none" stroke="midnightblue" d="M587.69,-236.87C618.65,-233 654.93,-228.61 687.8,-225 852.47,-206.9 895.4,-216.31 1058.8,-189 1070.8,-186.99 1083.59,-184.29 1095.64,-181.48"/>
<polygon fill="midnightblue" stroke="midnightblue" points="1096.64,-184.84 1105.55,-179.11 1095.01,-178.03 1096.64,-184.84"/>
</g>
<!-- Node16 -->
<g id="node16" class="node">
<title>Node16</title>
<g id="a_node16"><a xlink:title=" ">
<polygon fill="white" stroke="#bfbfbf" points="72.8,-153.5 72.8,-179.5 172.8,-179.5 172.8,-153.5 72.8,-153.5"/>
<text text-anchor="middle" x="122.8" y="-162.7" font-family="Source Sans Pro" font-size="16.00">stb_image.h</text>
</a>
</g>
</g>
<!-- Node15&#45;&gt;Node16 -->
<g id="edge26" class="edge">
<title>Node15&#45;&gt;Node16</title>
<path fill="none" stroke="midnightblue" d="M438.03,-237.37C370.4,-228.21 268.44,-212.12 181.8,-189 175.51,-187.32 168.94,-185.26 162.57,-183.08"/>
<polygon fill="midnightblue" stroke="midnightblue" points="163.38,-179.65 152.78,-179.59 161.03,-186.24 163.38,-179.65"/>
</g>
<!-- Node17&#45;&gt;Node4 -->
<g id="edge43" class="edge">
<title>Node17&#45;&gt;Node4</title>
<path fill="none" stroke="midnightblue" d="M1783.23,-387.26C1791.26,-377.08 1799.65,-364.23 1803.8,-351 1809.78,-331.92 1806.09,-325.87 1803.8,-306 1795.3,-232.54 1800.13,-209.5 1765.8,-144 1758.25,-129.61 1746.26,-116.01 1735.7,-105.65"/>
<polygon fill="midnightblue" stroke="midnightblue" points="1738.02,-103.02 1728.34,-98.71 1733.22,-108.12 1738.02,-103.02"/>
</g>
<!-- Node17&#45;&gt;Node6 -->
<g id="edge44" class="edge">
<title>Node17&#45;&gt;Node6</title>
<path fill="none" stroke="midnightblue" d="M1788.49,-387.41C1818.67,-359.14 1865.8,-305.82 1865.8,-248.5 1865.8,-248.5 1865.8,-248.5 1865.8,-165.5 1865.8,-99.97 1819.3,-90.47 1759.8,-63 1677.65,-25.08 1401.01,-16.78 1297.41,-14.98"/>
<polygon fill="midnightblue" stroke="midnightblue" points="1297.42,-11.48 1287.36,-14.82 1297.3,-18.48 1297.42,-11.48"/>
</g>
<!-- Node17&#45;&gt;Node7 -->
<g id="edge45" class="edge">
<title>Node17&#45;&gt;Node7</title>
<path fill="none" stroke="midnightblue" d="M1651.77,-388.34C1648.75,-387.88 1645.75,-387.43 1642.8,-387 1573.3,-376.85 1375.55,-403.42 1328.8,-351 1315.48,-336.07 1319.68,-323.8 1328.8,-306 1341.28,-281.63 1363.07,-292.42 1378.8,-270 1400.29,-239.36 1396.64,-226.07 1401.8,-189 1404.55,-169.19 1408.32,-162.91 1401.8,-144 1396.86,-129.68 1386.72,-116.19 1377.32,-105.89"/>
<polygon fill="midnightblue" stroke="midnightblue" points="1379.82,-103.44 1370.36,-98.67 1374.78,-108.3 1379.82,-103.44"/>
</g>
<!-- Node18 -->
<g id="node18" class="node">
<title>Node18</title>
<g id="a_node18"><a xlink:href="_i_e_buffer_memory_barrier_8hpp.html" target="_top" xlink:title=" ">
<polygon fill="white" stroke="black" points="1558.3,-315.5 1558.3,-341.5 1761.3,-341.5 1761.3,-315.5 1558.3,-315.5"/>
<text text-anchor="middle" x="1659.8" y="-324.7" font-family="Source Sans Pro" font-size="16.00">IEBufferMemoryBarrier.hpp</text>
</a>
</g>
</g>
<!-- Node17&#45;&gt;Node18 -->
<g id="edge35" class="edge">
<title>Node17&#45;&gt;Node18</title>
<path fill="none" stroke="midnightblue" d="M1735.93,-387.33C1719.68,-374.99 1699.4,-359.58 1683.85,-347.77"/>
<polygon fill="midnightblue" stroke="midnightblue" points="1685.84,-344.89 1675.76,-341.63 1681.61,-350.46 1685.84,-344.89"/>
</g>
<!-- Node19 -->
<g id="node19" class="node">
<title>Node19</title>
<g id="a_node19"><a xlink:href="_i_e_image_memory_barrier_8hpp.html" target="_top" xlink:title=" ">
<polygon fill="white" stroke="black" points="1337.3,-315.5 1337.3,-341.5 1540.3,-341.5 1540.3,-315.5 1337.3,-315.5"/>
<text text-anchor="middle" x="1438.8" y="-324.7" font-family="Source Sans Pro" font-size="16.00">IEImageMemoryBarrier.hpp</text>
</a>
</g>
</g>
<!-- Node17&#45;&gt;Node19 -->
<g id="edge39" class="edge">
<title>Node17&#45;&gt;Node19</title>
<path fill="none" stroke="midnightblue" d="M1677.13,-387.43C1620.66,-373.71 1548.44,-356.15 1498.37,-343.98"/>
<polygon fill="midnightblue" stroke="midnightblue" points="1498.9,-340.51 1488.35,-341.55 1497.24,-347.31 1498.9,-340.51"/>
</g>
<!-- Node18&#45;&gt;Node2 -->
<g id="edge36" class="edge">
<title>Node18&#45;&gt;Node2</title>
<path fill="none" stroke="midnightblue" d="M1605.18,-315.46C1587.58,-311.94 1567.93,-308.4 1549.8,-306 1324.98,-276.19 1266.95,-287 1040.8,-270 978.35,-265.31 907.81,-259.68 854.5,-255.36"/>
<polygon fill="midnightblue" stroke="midnightblue" points="854.66,-251.86 844.41,-254.54 854.09,-258.84 854.66,-251.86"/>
</g>
<!-- Node18&#45;&gt;Node4 -->
<g id="edge37" class="edge">
<title>Node18&#45;&gt;Node4</title>
<path fill="none" stroke="midnightblue" d="M1667.8,-315.27C1674.78,-303.99 1684.58,-286.54 1689.8,-270 1707.5,-213.87 1712.15,-144.12 1713.37,-108.97"/>
<polygon fill="midnightblue" stroke="midnightblue" points="1716.87,-108.94 1713.66,-98.84 1709.88,-108.74 1716.87,-108.94"/>
</g>
<!-- Node18&#45;&gt;Node7 -->
<g id="edge38" class="edge">
<title>Node18&#45;&gt;Node7</title>
<path fill="none" stroke="midnightblue" d="M1656.8,-315.05C1648.18,-281.9 1620.07,-190.83 1561.8,-144 1524.32,-113.89 1472,-99.53 1429.6,-92.69"/>
<polygon fill="midnightblue" stroke="midnightblue" points="1430.02,-89.21 1419.61,-91.19 1428.97,-96.14 1430.02,-89.21"/>
</g>
<!-- Node19&#45;&gt;Node4 -->
<g id="edge41" class="edge">
<title>Node19&#45;&gt;Node4</title>
<path fill="none" stroke="midnightblue" d="M1470.69,-315.42C1496.11,-305.12 1532.08,-288.97 1560.8,-270 1605.97,-240.15 1617.17,-230.63 1651.8,-189 1673.25,-163.21 1692.28,-129.23 1703.43,-107.61"/>
<polygon fill="midnightblue" stroke="midnightblue" points="1706.58,-109.13 1707.97,-98.63 1700.33,-105.97 1706.58,-109.13"/>
</g>
<!-- Node19&#45;&gt;Node7 -->
<g id="edge42" class="edge">
<title>Node19&#45;&gt;Node7</title>
<path fill="none" stroke="midnightblue" d="M1478.27,-315.49C1499.97,-306.65 1525,-292.22 1537.8,-270 1565.73,-221.47 1570.86,-189.2 1537.8,-144 1513.13,-110.29 1468.56,-95.86 1429.82,-89.89"/>
<polygon fill="midnightblue" stroke="midnightblue" points="1429.97,-86.38 1419.59,-88.48 1429.02,-93.31 1429.97,-86.38"/>
</g>
<!-- Node19&#45;&gt;Node15 -->
<g id="edge40" class="edge">
<title>Node19&#45;&gt;Node15</title>
<path fill="none" stroke="midnightblue" d="M1363.91,-315.45C1340.25,-311.97 1313.98,-308.46 1289.8,-306 1023.14,-278.84 954.72,-294.35 687.8,-270 658.35,-267.31 626.2,-263.59 597.59,-260"/>
<polygon fill="midnightblue" stroke="midnightblue" points="597.99,-256.52 587.63,-258.74 597.11,-263.47 597.99,-256.52"/>
</g>
<!-- Node20&#45;&gt;Node4 -->
<g id="edge52" class="edge">
<title>Node20&#45;&gt;Node4</title>
<path fill="none" stroke="midnightblue" d="M1633.83,-388.07C1696.89,-376.71 1761.47,-362.57 1770.8,-351 1801.26,-313.22 1745.41,-164.1 1722.73,-107.99"/>
<polygon fill="midnightblue" stroke="midnightblue" points="1725.94,-106.58 1718.92,-98.65 1719.46,-109.23 1725.94,-106.58"/>
</g>
<!-- Node21 -->
<g id="node21" class="node">
<title>Node21</title>
<g id="a_node21"><a xlink:href="_i_e_framebuffer_8hpp.html" target="_top" xlink:title=" ">
<polygon fill="white" stroke="black" points="580.3,-306.5 580.3,-350.5 791.3,-350.5 791.3,-306.5 580.3,-306.5"/>
<text text-anchor="start" x="588.3" y="-333.7" font-family="Source Sans Pro" font-size="16.00">GraphicsModule/RenderPass</text>
<text text-anchor="middle" x="685.8" y="-315.7" font-family="Source Sans Pro" font-size="16.00">/IEFramebuffer.hpp</text>
</a>
</g>
</g>
<!-- Node20&#45;&gt;Node21 -->
<g id="edge47" class="edge">
<title>Node20&#45;&gt;Node21</title>
<path fill="none" stroke="midnightblue" d="M1377.5,-402.11C1237.98,-394.24 1008.29,-378.57 801.46,-351.16"/>
<polygon fill="midnightblue" stroke="midnightblue" points="801.69,-347.66 791.32,-349.81 800.77,-354.6 801.69,-347.66"/>
</g>
<!-- Node21&#45;&gt;Node5 -->
<g id="edge50" class="edge">
<title>Node21&#45;&gt;Node5</title>
<path fill="none" stroke="midnightblue" d="M580.24,-321.36C410.18,-309.02 87.52,-274.66 17.8,-189 -21.6,-140.59 25.52,-93.81 79.8,-63 88.07,-58.3 359.23,-29.25 460.84,-18.5"/>
<polygon fill="midnightblue" stroke="midnightblue" points="461.4,-21.96 470.98,-17.43 460.66,-15 461.4,-21.96"/>
</g>
<!-- Node21&#45;&gt;Node6 -->
<g id="edge51" class="edge">
<title>Node21&#45;&gt;Node6</title>
<path fill="none" stroke="midnightblue" d="M791.32,-307.18C794.17,-306.76 797,-306.37 799.8,-306 903.42,-292.29 1173.96,-313.97 1268.8,-270 1374.29,-221.09 1498.91,-155.76 1428.8,-63 1413,-42.1 1342.95,-27.59 1297.55,-20.19"/>
<polygon fill="midnightblue" stroke="midnightblue" points="1297.85,-16.69 1287.43,-18.59 1296.76,-23.61 1297.85,-16.69"/>
</g>
<!-- Node21&#45;&gt;Node7 -->
<g id="edge49" class="edge">
<title>Node21&#45;&gt;Node7</title>
<path fill="none" stroke="midnightblue" d="M791.32,-307.2C794.17,-306.78 797,-306.38 799.8,-306 896.8,-292.91 1153.37,-317.78 1238.8,-270 1260.44,-257.89 1255.78,-243.94 1271.8,-225 1286.21,-207.96 1293.97,-207.26 1306.8,-189 1324.99,-163.11 1339.96,-129.59 1348.63,-108.06"/>
<polygon fill="midnightblue" stroke="midnightblue" points="1351.98,-109.13 1352.37,-98.54 1345.46,-106.57 1351.98,-109.13"/>
</g>
<!-- Node21&#45;&gt;Node15 -->
<g id="edge48" class="edge">
<title>Node21&#45;&gt;Node15</title>
<path fill="none" stroke="midnightblue" d="M639.44,-306.33C610.91,-293.3 574.9,-276.86 548.58,-264.84"/>
<polygon fill="midnightblue" stroke="midnightblue" points="549.9,-261.6 539.35,-260.63 547,-267.97 549.9,-261.6"/>
</g>
<!-- Node22&#45;&gt;Node3 -->
<g id="edge54" class="edge">
<title>Node22&#45;&gt;Node3</title>
<path fill="none" stroke="midnightblue" d="M1135.46,-306.42C1058.08,-276.94 917.83,-223.51 835.65,-192.21"/>
<polygon fill="midnightblue" stroke="midnightblue" points="836.51,-188.79 825.92,-188.5 834.02,-195.33 836.51,-188.79"/>
</g>
<!-- Node22&#45;&gt;Node6 -->
<g id="edge71" class="edge">
<title>Node22&#45;&gt;Node6</title>
<path fill="none" stroke="midnightblue" d="M1280.81,-308.43C1321.73,-298.11 1364.24,-284.52 1378.8,-270 1432.15,-216.79 1417.56,-182.51 1428.8,-108 1431.78,-88.22 1440.86,-78.96 1428.8,-63 1413,-42.1 1342.95,-27.59 1297.55,-20.19"/>
<polygon fill="midnightblue" stroke="midnightblue" points="1297.85,-16.69 1287.43,-18.59 1296.76,-23.61 1297.85,-16.69"/>
</g>
<!-- Node22&#45;&gt;Node7 -->
<g id="edge69" class="edge">
<title>Node22&#45;&gt;Node7</title>
<path fill="none" stroke="midnightblue" d="M1280.97,-307.86C1304.8,-299.3 1329.07,-287.16 1347.8,-270 1390.93,-230.49 1399.33,-200.9 1385.8,-144 1382.74,-131.18 1376.35,-117.97 1370.34,-107.45"/>
<polygon fill="midnightblue" stroke="midnightblue" points="1373.2,-105.4 1365.04,-98.63 1367.2,-109.01 1373.2,-105.4"/>
</g>
<!-- Node22&#45;&gt;Node13 -->
<g id="edge70" class="edge">
<title>Node22&#45;&gt;Node13</title>
<path fill="none" stroke="midnightblue" d="M1214.56,-306.38C1224.02,-296.41 1233.83,-283.69 1238.8,-270 1245.61,-251.2 1248.4,-242.54 1238.8,-225 1228.71,-206.58 1209.93,-193.21 1192.13,-184.02"/>
<polygon fill="midnightblue" stroke="midnightblue" points="1193.48,-180.79 1182.96,-179.59 1190.44,-187.09 1193.48,-180.79"/>
</g>
<!-- Node23 -->
<g id="node23" class="node">
<title>Node23</title>
<g id="a_node23"><a xlink:href="_i_e_shader_8hpp.html" target="_top" xlink:title=" ">
<polygon fill="white" stroke="black" points="1049.8,-225.5 1049.8,-269.5 1229.8,-269.5 1229.8,-225.5 1049.8,-225.5"/>
<text text-anchor="start" x="1057.8" y="-252.7" font-family="Source Sans Pro" font-size="16.00">GraphicsModule/Shader</text>
<text text-anchor="middle" x="1139.8" y="-234.7" font-family="Source Sans Pro" font-size="16.00">/IEShader.hpp</text>
</a>
</g>
</g>
<!-- Node22&#45;&gt;Node23 -->
<g id="edge55" class="edge">
<title>Node22&#45;&gt;Node23</title>
<path fill="none" stroke="midnightblue" d="M1177.13,-306.33C1171.58,-297.74 1165.08,-287.66 1159.07,-278.35"/>
<polygon fill="midnightblue" stroke="midnightblue" points="1161.86,-276.23 1153.5,-269.73 1155.98,-280.03 1161.86,-276.23"/>
</g>
<!-- Node23&#45;&gt;Node5 -->
<g id="edge66" class="edge">
<title>Node23&#45;&gt;Node5</title>
<path fill="none" stroke="midnightblue" d="M1049.59,-240.46C914.69,-230.79 672.54,-210.68 638.8,-189 583.78,-153.65 606.53,-111.62 562.8,-63 552.37,-51.41 538.83,-40.69 526.9,-32.29"/>
<polygon fill="midnightblue" stroke="midnightblue" points="528.79,-29.34 518.56,-26.6 524.85,-35.13 528.79,-29.34"/>
</g>
<!-- Node23&#45;&gt;Node6 -->
<g id="edge67" class="edge">
<title>Node23&#45;&gt;Node6</title>
<path fill="none" stroke="midnightblue" d="M1180.04,-225.36C1194.26,-216 1209.12,-203.75 1218.8,-189 1250.15,-141.23 1256.58,-71.93 1257.71,-36.77"/>
<polygon fill="midnightblue" stroke="midnightblue" points="1261.22,-36.69 1257.92,-26.62 1254.22,-36.55 1261.22,-36.69"/>
</g>
<!-- Node23&#45;&gt;Node7 -->
<g id="edge57" class="edge">
<title>Node23&#45;&gt;Node7</title>
<path fill="none" stroke="midnightblue" d="M1204.18,-225.47C1226.81,-216.32 1251.62,-204.17 1271.8,-189 1302.33,-166.05 1328.86,-130.02 1343.83,-107.36"/>
<polygon fill="midnightblue" stroke="midnightblue" points="1346.86,-109.13 1349.34,-98.83 1340.98,-105.33 1346.86,-109.13"/>
</g>
<!-- Node23&#45;&gt;Node8 -->
<g id="edge56" class="edge">
<title>Node23&#45;&gt;Node8</title>
<path fill="none" stroke="midnightblue" d="M1049.59,-240.37C912.15,-230.54 656.89,-210.18 567.8,-189 561.48,-187.5 554.92,-185.45 548.61,-183.22"/>
<polygon fill="midnightblue" stroke="midnightblue" points="549.56,-179.84 538.96,-179.6 547.1,-186.39 549.56,-179.84"/>
</g>
<!-- Node23&#45;&gt;Node12 -->
<g id="edge68" class="edge">
<title>Node23&#45;&gt;Node12</title>
<path fill="none" stroke="midnightblue" d="M1097.19,-225.33C1071.2,-212.42 1038.46,-196.15 1014.32,-184.16"/>
<polygon fill="midnightblue" stroke="midnightblue" points="1015.72,-180.94 1005.2,-179.63 1012.6,-187.21 1015.72,-180.94"/>
</g>
<!-- Node23&#45;&gt;Node13 -->
<g id="edge65" class="edge">
<title>Node23&#45;&gt;Node13</title>
<path fill="none" stroke="midnightblue" d="M1142.21,-225.33C1143.46,-214.36 1144.98,-200.97 1146.25,-189.83"/>
<polygon fill="midnightblue" stroke="midnightblue" points="1149.76,-189.96 1147.41,-179.63 1142.8,-189.17 1149.76,-189.96"/>
</g>
<!-- Node24 -->
<g id="node24" class="node">
<title>Node24</title>
<g id="a_node24"><a xlink:href="_i_e_file_8hpp.html" target="_top" xlink:title=" ">
<polygon fill="white" stroke="black" points="647.3,-63.5 647.3,-107.5 824.3,-107.5 824.3,-63.5 647.3,-63.5"/>
<text text-anchor="start" x="655.3" y="-90.7" font-family="Source Sans Pro" font-size="16.00">Core/FileSystemModule</text>
<text text-anchor="middle" x="735.8" y="-72.7" font-family="Source Sans Pro" font-size="16.00">/IEFile.hpp</text>
</a>
</g>
</g>
<!-- Node23&#45;&gt;Node24 -->
<g id="edge58" class="edge">
<title>Node23&#45;&gt;Node24</title>
<path fill="none" stroke="midnightblue" d="M1171.46,-225.27C1182.96,-215.69 1194.62,-203.3 1200.8,-189 1208.72,-170.64 1214.04,-158.98 1200.8,-144 1176.98,-117.06 964.19,-99.9 834.86,-91.87"/>
<polygon fill="midnightblue" stroke="midnightblue" points="834.74,-88.35 824.54,-91.23 834.31,-95.34 834.74,-88.35"/>
</g>
<!-- Node24&#45;&gt;Node5 -->
<g id="edge63" class="edge">
<title>Node24&#45;&gt;Node5</title>
<path fill="none" stroke="midnightblue" d="M664.69,-63.5C622.37,-51 570.4,-35.65 536.03,-25.5"/>
<polygon fill="midnightblue" stroke="midnightblue" points="536.97,-22.13 526.39,-22.65 534.99,-28.84 536.97,-22.13"/>
</g>
<!-- Node24&#45;&gt;Node6 -->
<g id="edge64" class="edge">
<title>Node24&#45;&gt;Node6</title>
<path fill="none" stroke="midnightblue" d="M824.44,-65.3C828.95,-64.49 833.42,-63.71 837.8,-63 976.59,-40.41 1142.86,-24.47 1217.76,-17.88"/>
<polygon fill="midnightblue" stroke="midnightblue" points="1218.47,-21.33 1228.13,-16.97 1217.87,-14.35 1218.47,-21.33"/>
</g>
<!-- Node25 -->
<g id="node25" class="node">
<title>Node25</title>
<g id="a_node25"><a xlink:title=" ">
<polygon fill="white" stroke="#bfbfbf" points="745.3,-0.5 745.3,-26.5 830.3,-26.5 830.3,-0.5 745.3,-0.5"/>
<text text-anchor="middle" x="787.8" y="-9.7" font-family="Source Sans Pro" font-size="16.00">filesystem</text>
</a>
</g>
</g>
<!-- Node24&#45;&gt;Node25 -->
<g id="edge59" class="edge">
<title>Node24&#45;&gt;Node25</title>
<path fill="none" stroke="midnightblue" d="M751.4,-63.5C758.2,-54.34 766.14,-43.66 772.86,-34.61"/>
<polygon fill="midnightblue" stroke="midnightblue" points="775.7,-36.65 778.86,-26.53 770.09,-32.47 775.7,-36.65"/>
</g>
<!-- Node26 -->
<g id="node26" class="node">
<title>Node26</title>
<g id="a_node26"><a xlink:title=" ">
<polygon fill="white" stroke="#bfbfbf" points="848.8,-0.5 848.8,-26.5 916.8,-26.5 916.8,-0.5 848.8,-0.5"/>
<text text-anchor="middle" x="882.8" y="-9.7" font-family="Source Sans Pro" font-size="16.00">fstream</text>
</a>
</g>
</g>
<!-- Node24&#45;&gt;Node26 -->
<g id="edge60" class="edge">
<title>Node24&#45;&gt;Node26</title>
<path fill="none" stroke="midnightblue" d="M779.9,-63.5C801.8,-53.07 827.87,-40.65 848.29,-30.93"/>
<polygon fill="midnightblue" stroke="midnightblue" points="850.01,-33.99 857.53,-26.53 847,-27.67 850.01,-33.99"/>
</g>
<!-- Node27 -->
<g id="node27" class="node">
<title>Node27</title>
<g id="a_node27"><a xlink:title=" ">
<polygon fill="white" stroke="#bfbfbf" points="580.8,-0.5 580.8,-26.5 656.8,-26.5 656.8,-0.5 580.8,-0.5"/>
<text text-anchor="middle" x="618.8" y="-9.7" font-family="Source Sans Pro" font-size="16.00">iostream</text>
</a>
</g>
</g>
<!-- Node24&#45;&gt;Node27 -->
<g id="edge61" class="edge">
<title>Node24&#45;&gt;Node27</title>
<path fill="none" stroke="midnightblue" d="M700.69,-63.5C683.81,-53.4 663.82,-41.44 647.81,-31.86"/>
<polygon fill="midnightblue" stroke="midnightblue" points="649.28,-28.66 638.9,-26.53 645.69,-34.67 649.28,-28.66"/>
</g>
<!-- Node28 -->
<g id="node28" class="node">
<title>Node28</title>
<g id="a_node28"><a xlink:title=" ">
<polygon fill="white" stroke="#bfbfbf" points="674.8,-0.5 674.8,-26.5 726.8,-26.5 726.8,-0.5 674.8,-0.5"/>
<text text-anchor="middle" x="700.8" y="-9.7" font-family="Source Sans Pro" font-size="16.00">regex</text>
</a>
</g>
</g>
<!-- Node24&#45;&gt;Node28 -->
<g id="edge62" class="edge">
<title>Node24&#45;&gt;Node28</title>
<path fill="none" stroke="midnightblue" d="M725.29,-63.5C720.91,-54.72 715.81,-44.54 711.41,-35.73"/>
<polygon fill="midnightblue" stroke="midnightblue" points="714.41,-33.91 706.81,-26.53 708.15,-37.04 714.41,-33.91"/>
</g>
<!-- Node29&#45;&gt;Node4 -->
<g id="edge73" class="edge">
<title>Node29&#45;&gt;Node4</title>
<path fill="none" stroke="midnightblue" d="M1923.86,-153.42C1880.03,-139.45 1807.89,-116.47 1760.61,-101.41"/>
<polygon fill="midnightblue" stroke="midnightblue" points="1761.51,-98.03 1750.92,-98.32 1759.38,-104.69 1761.51,-98.03"/>
</g>
<!-- Node29&#45;&gt;Node6 -->
<g id="edge74" class="edge">
<title>Node29&#45;&gt;Node6</title>
<path fill="none" stroke="midnightblue" d="M1956.23,-153.32C1945.26,-130.89 1918.47,-83.47 1879.8,-63 1828.47,-35.83 1426.58,-20.14 1297.54,-15.77"/>
<polygon fill="midnightblue" stroke="midnightblue" points="1297.43,-12.26 1287.32,-15.43 1297.19,-19.26 1297.43,-12.26"/>
</g>
</g>
</svg>
