<?xml version="1.0" encoding="UTF-8" standalone="no"?>
<!DOCTYPE svg PUBLIC "-//W3C//DTD SVG 1.1//EN"
 "http://www.w3.org/Graphics/SVG/1.1/DTD/svg11.dtd">
<!-- Generated by graphviz version 2.43.0 (0)
 -->
<!-- Title: Illumination&#45;Engine/src/GraphicsModule/CommandBuffer/DependencyStructs/IEDependencyInfo.cpp Pages: 1 -->
<svg width="1477pt" height="485pt"
 viewBox="0.00 0.00 1476.64 485.00" xmlns="http://www.w3.org/2000/svg" xmlns:xlink="http://www.w3.org/1999/xlink">
<g id="graph0" class="graph" transform="scale(1 1) rotate(0) translate(4 481)">
<title>Illumination&#45;Engine/src/GraphicsModule/CommandBuffer/DependencyStructs/IEDependencyInfo.cpp</title>
<polygon fill="white" stroke="transparent" points="-4,4 -4,-481 1472.64,-481 1472.64,4 -4,4"/>
<!-- Node1 -->
<g id="node1" class="node">
<title>Node1</title>
<g id="a_node1"><a xlink:title=" ">
<polygon fill="#bfbfbf" stroke="black" points="1164.64,-396.5 1164.64,-476.5 1436.64,-476.5 1436.64,-396.5 1164.64,-396.5"/>
<text text-anchor="start" x="1172.64" y="-459.7" font-family="Source Sans Pro" font-size="16.00">Illumination&#45;Engine</text>
<text text-anchor="start" x="1172.64" y="-441.7" font-family="Source Sans Pro" font-size="16.00">/src/GraphicsModule</text>
<text text-anchor="start" x="1172.64" y="-423.7" font-family="Source Sans Pro" font-size="16.00">/CommandBuffer/DependencyStructs</text>
<text text-anchor="middle" x="1300.64" y="-405.7" font-family="Source Sans Pro" font-size="16.00">/IEDependencyInfo.cpp</text>
</a>
</g>
</g>
<!-- Node2 -->
<g id="node2" class="node">
<title>Node2</title>
<g id="a_node2"><a xlink:href="_i_e_dependency_info_8hpp.html" target="_top" xlink:title=" ">
<polygon fill="white" stroke="black" points="1214.64,-333.5 1214.64,-359.5 1386.64,-359.5 1386.64,-333.5 1214.64,-333.5"/>
<text text-anchor="middle" x="1300.64" y="-342.7" font-family="Source Sans Pro" font-size="16.00">IEDependencyInfo.hpp</text>
</a>
</g>
</g>
<!-- Node1&#45;&gt;Node2 -->
<g id="edge1" class="edge">
<title>Node1&#45;&gt;Node2</title>
<path fill="none" stroke="midnightblue" d="M1300.64,-396.39C1300.64,-387.3 1300.64,-377.93 1300.64,-369.85"/>
<polygon fill="midnightblue" stroke="midnightblue" points="1304.14,-369.79 1300.64,-359.79 1297.14,-369.79 1304.14,-369.79"/>
</g>
<!-- Node3 -->
<g id="node3" class="node">
<title>Node3</title>
<g id="a_node3"><a xlink:href="_i_e_buffer_memory_barrier_8hpp.html" target="_top" xlink:title=" ">
<polygon fill="white" stroke="black" points="1199.14,-270.5 1199.14,-296.5 1402.14,-296.5 1402.14,-270.5 1199.14,-270.5"/>
<text text-anchor="middle" x="1300.64" y="-279.7" font-family="Source Sans Pro" font-size="16.00">IEBufferMemoryBarrier.hpp</text>
</a>
</g>
</g>
<!-- Node2&#45;&gt;Node3 -->
<g id="edge2" class="edge">
<title>Node2&#45;&gt;Node3</title>
<path fill="none" stroke="midnightblue" d="M1300.64,-333.45C1300.64,-325.85 1300.64,-315.79 1300.64,-306.78"/>
<polygon fill="midnightblue" stroke="midnightblue" points="1304.14,-306.53 1300.64,-296.53 1297.14,-306.53 1304.14,-306.53"/>
</g>
<!-- Node6 -->
<g id="node6" class="node">
<title>Node6</title>
<g id="a_node6"><a xlink:title=" ">
<polygon fill="white" stroke="#bfbfbf" points="1100.64,-63.5 1100.64,-89.5 1174.64,-89.5 1174.64,-63.5 1100.64,-63.5"/>
<text text-anchor="middle" x="1137.64" y="-72.7" font-family="Source Sans Pro" font-size="16.00">memory</text>
</a>
</g>
</g>
<!-- Node2&#45;&gt;Node6 -->
<g id="edge37" class="edge">
<title>Node2&#45;&gt;Node6</title>
<path fill="none" stroke="midnightblue" d="M1248.76,-333.46C1227.94,-326.15 1205.43,-314.7 1190.64,-297 1141.94,-238.74 1136.59,-142.99 1136.87,-99.83"/>
<polygon fill="midnightblue" stroke="midnightblue" points="1140.38,-99.64 1137.06,-89.58 1133.38,-99.52 1140.38,-99.64"/>
</g>
<!-- Node8 -->
<g id="node8" class="node">
<title>Node8</title>
<g id="a_node8"><a xlink:title=" ">
<polygon fill="white" stroke="#bfbfbf" points="914.14,-0.5 914.14,-26.5 973.14,-26.5 973.14,-0.5 914.14,-0.5"/>
<text text-anchor="middle" x="943.64" y="-9.7" font-family="Source Sans Pro" font-size="16.00">vector</text>
</a>
</g>
</g>
<!-- Node2&#45;&gt;Node8 -->
<g id="edge38" class="edge">
<title>Node2&#45;&gt;Node8</title>
<path fill="none" stroke="midnightblue" d="M1355.31,-333.46C1379.27,-326.06 1406.47,-314.52 1426.64,-297 1455.62,-271.82 1468.64,-259.9 1468.64,-221.5 1468.64,-221.5 1468.64,-221.5 1468.64,-147.5 1468.64,-90.32 1423.97,-86.04 1371.64,-63 1302.44,-32.53 1075.53,-19.94 983.22,-15.99"/>
<polygon fill="midnightblue" stroke="midnightblue" points="983.3,-12.49 973.17,-15.57 983.01,-19.48 983.3,-12.49"/>
</g>
<!-- Node9 -->
<g id="node9" class="node">
<title>Node9</title>
<g id="a_node9"><a xlink:title=" ">
<polygon fill="white" stroke="#bfbfbf" points="1237.14,-63.5 1237.14,-89.5 1362.14,-89.5 1362.14,-63.5 1237.14,-63.5"/>
<text text-anchor="middle" x="1299.64" y="-72.7" font-family="Source Sans Pro" font-size="16.00">vulkan/vulkan.h</text>
</a>
</g>
</g>
<!-- Node2&#45;&gt;Node9 -->
<g id="edge39" class="edge">
<title>Node2&#45;&gt;Node9</title>
<path fill="none" stroke="midnightblue" d="M1360.06,-333.45C1379.89,-326.29 1399.89,-314.95 1411.64,-297 1418.21,-286.96 1413.85,-281.79 1411.64,-270 1398.98,-202.51 1395.2,-182.13 1355.64,-126 1347.57,-114.55 1336.23,-104.07 1325.87,-95.8"/>
<polygon fill="midnightblue" stroke="midnightblue" points="1327.92,-92.96 1317.85,-89.67 1323.66,-98.52 1327.92,-92.96"/>
</g>
<!-- Node16 -->
<g id="node16" class="node">
<title>Node16</title>
<g id="a_node16"><a xlink:href="_i_e_image_memory_barrier_8hpp.html" target="_top" xlink:title=" ">
<polygon fill="white" stroke="black" points="939.14,-270.5 939.14,-296.5 1142.14,-296.5 1142.14,-270.5 939.14,-270.5"/>
<text text-anchor="middle" x="1040.64" y="-279.7" font-family="Source Sans Pro" font-size="16.00">IEImageMemoryBarrier.hpp</text>
</a>
</g>
</g>
<!-- Node2&#45;&gt;Node16 -->
<g id="edge23" class="edge">
<title>Node2&#45;&gt;Node16</title>
<path fill="none" stroke="midnightblue" d="M1249.27,-333.45C1206.89,-323.51 1146.66,-309.37 1101.8,-298.85"/>
<polygon fill="midnightblue" stroke="midnightblue" points="1102.43,-295.4 1091.9,-296.53 1100.83,-302.22 1102.43,-295.4"/>
</g>
<!-- Node4 -->
<g id="node4" class="node">
<title>Node4</title>
<g id="a_node4"><a xlink:href="_i_e_buffer_8hpp.html" target="_top" xlink:title=" ">
<polygon fill="white" stroke="black" points="719.14,-207.5 719.14,-233.5 866.14,-233.5 866.14,-207.5 719.14,-207.5"/>
<text text-anchor="middle" x="792.64" y="-216.7" font-family="Source Sans Pro" font-size="16.00">Buffer/IEBuffer.hpp</text>
</a>
</g>
</g>
<!-- Node3&#45;&gt;Node4 -->
<g id="edge3" class="edge">
<title>Node3&#45;&gt;Node4</title>
<path fill="none" stroke="midnightblue" d="M1200.58,-270.48C1105.81,-259.1 965.13,-242.21 876.2,-231.53"/>
<polygon fill="midnightblue" stroke="midnightblue" points="876.5,-228.05 866.16,-230.33 875.67,-235 876.5,-228.05"/>
</g>
<!-- Node3&#45;&gt;Node6 -->
<g id="edge21" class="edge">
<title>Node3&#45;&gt;Node6</title>
<path fill="none" stroke="midnightblue" d="M1292.42,-270.31C1274.13,-243.42 1228.19,-177.31 1184.64,-126 1176.19,-116.04 1166.19,-105.57 1157.6,-96.92"/>
<polygon fill="midnightblue" stroke="midnightblue" points="1160.04,-94.41 1150.48,-89.84 1155.1,-99.37 1160.04,-94.41"/>
</g>
<!-- Node3&#45;&gt;Node9 -->
<g id="edge22" class="edge">
<title>Node3&#45;&gt;Node9</title>
<path fill="none" stroke="midnightblue" d="M1313.28,-270.24C1321.7,-261.14 1332.03,-247.94 1336.64,-234 1351.7,-188.43 1352,-171.47 1336.64,-126 1333.08,-115.46 1326.21,-105.41 1319.35,-97.22"/>
<polygon fill="midnightblue" stroke="midnightblue" points="1321.9,-94.81 1312.62,-89.7 1316.68,-99.48 1321.9,-94.81"/>
</g>
<!-- Node5 -->
<g id="node5" class="node">
<title>Node5</title>
<g id="a_node5"><a xlink:href="_i_e_dependency_8hpp.html" target="_top" xlink:title=" ">
<polygon fill="white" stroke="black" points="821.14,-126.5 821.14,-170.5 1066.14,-170.5 1066.14,-126.5 821.14,-126.5"/>
<text text-anchor="start" x="829.14" y="-153.7" font-family="Source Sans Pro" font-size="16.00">GraphicsModule/CommandBuffer</text>
<text text-anchor="middle" x="943.64" y="-135.7" font-family="Source Sans Pro" font-size="16.00">/IEDependency.hpp</text>
</a>
</g>
</g>
<!-- Node4&#45;&gt;Node5 -->
<g id="edge4" class="edge">
<title>Node4&#45;&gt;Node5</title>
<path fill="none" stroke="midnightblue" d="M818.6,-207.47C837.88,-198.53 864.87,-186.01 888.85,-174.9"/>
<polygon fill="midnightblue" stroke="midnightblue" points="890.61,-177.94 898.21,-170.56 887.67,-171.59 890.61,-177.94"/>
</g>
<!-- Node4&#45;&gt;Node8 -->
<g id="edge20" class="edge">
<title>Node4&#45;&gt;Node8</title>
<path fill="none" stroke="midnightblue" d="M866.26,-216.37C925.01,-211.67 1008.34,-199.98 1075.64,-171 1130.75,-147.27 1156.8,-143.67 1183.64,-90 1189,-79.27 1191.24,-72.29 1183.64,-63 1158.83,-32.68 1045.31,-20.88 983.7,-16.65"/>
<polygon fill="midnightblue" stroke="midnightblue" points="983.76,-13.14 973.55,-15.98 983.3,-20.13 983.76,-13.14"/>
</g>
<!-- Node4&#45;&gt;Node9 -->
<g id="edge17" class="edge">
<title>Node4&#45;&gt;Node9</title>
<path fill="none" stroke="midnightblue" d="M866.35,-217.8C972.67,-214.24 1162.88,-203.42 1222.64,-171 1238.61,-162.34 1268.09,-122.78 1285.58,-97.97"/>
<polygon fill="midnightblue" stroke="midnightblue" points="1288.58,-99.79 1291.43,-89.58 1282.84,-95.78 1288.58,-99.79"/>
</g>
<!-- Node10 -->
<g id="node10" class="node">
<title>Node10</title>
<g id="a_node10"><a xlink:href="_i_e_a_p_i_8hpp.html" target="_top" xlink:title=" ">
<polygon fill="white" stroke="black" points="179.14,-135.5 179.14,-161.5 262.14,-161.5 262.14,-135.5 179.14,-135.5"/>
<text text-anchor="middle" x="220.64" y="-144.7" font-family="Source Sans Pro" font-size="16.00">IEAPI.hpp</text>
</a>
</g>
</g>
<!-- Node4&#45;&gt;Node10 -->
<g id="edge9" class="edge">
<title>Node4&#45;&gt;Node10</title>
<path fill="none" stroke="midnightblue" d="M718.98,-215.25C623.91,-209.05 453.58,-195.49 309.64,-171 297.52,-168.94 284.6,-166.16 272.47,-163.28"/>
<polygon fill="midnightblue" stroke="midnightblue" points="273.04,-159.82 262.5,-160.86 271.39,-166.62 273.04,-159.82"/>
</g>
<!-- Node12 -->
<g id="node12" class="node">
<title>Node12</title>
<g id="a_node12"><a xlink:title=" ">
<polygon fill="white" stroke="#bfbfbf" points="310.14,-0.5 310.14,-26.5 373.14,-26.5 373.14,-0.5 310.14,-0.5"/>
<text text-anchor="middle" x="341.64" y="-9.7" font-family="Source Sans Pro" font-size="16.00">cstdint</text>
</a>
</g>
</g>
<!-- Node4&#45;&gt;Node12 -->
<g id="edge18" class="edge">
<title>Node4&#45;&gt;Node12</title>
<path fill="none" stroke="midnightblue" d="M793.91,-207.36C795.27,-187.58 794.85,-148.35 773.64,-126 719.68,-69.15 481.06,-32.5 383.46,-19.64"/>
<polygon fill="midnightblue" stroke="midnightblue" points="383.74,-16.15 373.37,-18.33 382.83,-23.09 383.74,-16.15"/>
</g>
<!-- Node13 -->
<g id="node13" class="node">
<title>Node13</title>
<g id="a_node13"><a xlink:title=" ">
<polygon fill="white" stroke="#bfbfbf" points="423.14,-135.5 423.14,-161.5 608.14,-161.5 608.14,-135.5 423.14,-135.5"/>
<text text-anchor="middle" x="515.64" y="-144.7" font-family="Source Sans Pro" font-size="16.00">include/vk_mem_alloc.h</text>
</a>
</g>
</g>
<!-- Node4&#45;&gt;Node13 -->
<g id="edge15" class="edge">
<title>Node4&#45;&gt;Node13</title>
<path fill="none" stroke="midnightblue" d="M745.02,-207.47C697.45,-195.45 624.28,-176.96 573.42,-164.1"/>
<polygon fill="midnightblue" stroke="midnightblue" points="574.11,-160.67 563.56,-161.61 572.4,-167.45 574.11,-160.67"/>
</g>
<!-- Node14 -->
<g id="node14" class="node">
<title>Node14</title>
<g id="a_node14"><a xlink:title=" ">
<polygon fill="white" stroke="#bfbfbf" points="626.64,-135.5 626.64,-161.5 764.64,-161.5 764.64,-135.5 626.64,-135.5"/>
<text text-anchor="middle" x="695.64" y="-144.7" font-family="Source Sans Pro" font-size="16.00">include/GL/glew.h</text>
</a>
</g>
</g>
<!-- Node4&#45;&gt;Node14 -->
<g id="edge16" class="edge">
<title>Node4&#45;&gt;Node14</title>
<path fill="none" stroke="midnightblue" d="M775.74,-207.31C760.58,-196.37 738.12,-180.16 720.84,-167.69"/>
<polygon fill="midnightblue" stroke="midnightblue" points="722.5,-164.57 712.34,-161.55 718.4,-170.24 722.5,-164.57"/>
</g>
<!-- Node15 -->
<g id="node15" class="node">
<title>Node15</title>
<g id="a_node15"><a xlink:title=" ">
<polygon fill="white" stroke="#bfbfbf" points="318.64,-135.5 318.64,-161.5 404.64,-161.5 404.64,-135.5 318.64,-135.5"/>
<text text-anchor="middle" x="361.64" y="-144.7" font-family="Source Sans Pro" font-size="16.00">functional</text>
</a>
</g>
</g>
<!-- Node4&#45;&gt;Node15 -->
<g id="edge19" class="edge">
<title>Node4&#45;&gt;Node15</title>
<path fill="none" stroke="midnightblue" d="M719.11,-215.68C642.15,-210.39 518.32,-198.19 414.64,-171 408.85,-169.48 402.86,-167.49 397.07,-165.33"/>
<polygon fill="midnightblue" stroke="midnightblue" points="398.19,-162.01 387.6,-161.59 395.62,-168.52 398.19,-162.01"/>
</g>
<!-- Node5&#45;&gt;Node6 -->
<g id="edge5" class="edge">
<title>Node5&#45;&gt;Node6</title>
<path fill="none" stroke="midnightblue" d="M1001.84,-126.5C1031.66,-115.74 1067.34,-102.86 1094.64,-93.01"/>
<polygon fill="midnightblue" stroke="midnightblue" points="1096.08,-96.22 1104.29,-89.53 1093.7,-89.63 1096.08,-96.22"/>
</g>
<!-- Node7 -->
<g id="node7" class="node">
<title>Node7</title>
<g id="a_node7"><a xlink:title=" ">
<polygon fill="white" stroke="#bfbfbf" points="212.14,-0.5 212.14,-26.5 267.14,-26.5 267.14,-0.5 212.14,-0.5"/>
<text text-anchor="middle" x="239.64" y="-9.7" font-family="Source Sans Pro" font-size="16.00">string</text>
</a>
</g>
</g>
<!-- Node5&#45;&gt;Node7 -->
<g id="edge6" class="edge">
<title>Node5&#45;&gt;Node7</title>
<path fill="none" stroke="midnightblue" d="M820.69,-131.16C804.87,-129.29 788.88,-127.52 773.64,-126 718.65,-120.53 323.6,-120.67 277.64,-90 259.44,-77.86 249.55,-54.26 244.47,-36.66"/>
<polygon fill="midnightblue" stroke="midnightblue" points="247.77,-35.45 241.89,-26.63 240.99,-37.19 247.77,-35.45"/>
</g>
<!-- Node5&#45;&gt;Node8 -->
<g id="edge7" class="edge">
<title>Node5&#45;&gt;Node8</title>
<path fill="none" stroke="midnightblue" d="M943.64,-126.43C943.64,-102.03 943.64,-62.03 943.64,-37.03"/>
<polygon fill="midnightblue" stroke="midnightblue" points="947.14,-36.71 943.64,-26.71 940.14,-36.71 947.14,-36.71"/>
</g>
<!-- Node5&#45;&gt;Node9 -->
<g id="edge8" class="edge">
<title>Node5&#45;&gt;Node9</title>
<path fill="none" stroke="midnightblue" d="M1050.45,-126.5C1108.05,-115.17 1177.56,-101.5 1228.52,-91.48"/>
<polygon fill="midnightblue" stroke="midnightblue" points="1229.31,-94.89 1238.45,-89.53 1227.96,-88.03 1229.31,-94.89"/>
</g>
<!-- Node10&#45;&gt;Node7 -->
<g id="edge14" class="edge">
<title>Node10&#45;&gt;Node7</title>
<path fill="none" stroke="midnightblue" d="M222.39,-135.23C225.59,-112.86 232.4,-65.16 236.44,-36.88"/>
<polygon fill="midnightblue" stroke="midnightblue" points="239.94,-37.14 237.89,-26.74 233.01,-36.15 239.94,-37.14"/>
</g>
<!-- Node11 -->
<g id="node11" class="node">
<title>Node11</title>
<g id="a_node11"><a xlink:href="_i_e_version_8hpp.html" target="_top" xlink:title=" ">
<polygon fill="white" stroke="black" points="286.64,-63.5 286.64,-89.5 396.64,-89.5 396.64,-63.5 286.64,-63.5"/>
<text text-anchor="middle" x="341.64" y="-72.7" font-family="Source Sans Pro" font-size="16.00">IEVersion.hpp</text>
</a>
</g>
</g>
<!-- Node10&#45;&gt;Node11 -->
<g id="edge10" class="edge">
<title>Node10&#45;&gt;Node11</title>
<path fill="none" stroke="midnightblue" d="M241.44,-135.47C260.83,-124.25 289.97,-107.39 311.83,-94.74"/>
<polygon fill="midnightblue" stroke="midnightblue" points="313.8,-97.65 320.7,-89.61 310.29,-91.59 313.8,-97.65"/>
</g>
<!-- Node11&#45;&gt;Node7 -->
<g id="edge12" class="edge">
<title>Node11&#45;&gt;Node7</title>
<path fill="none" stroke="midnightblue" d="M321.49,-63.45C306.4,-54.43 285.54,-41.95 268.66,-31.85"/>
<polygon fill="midnightblue" stroke="midnightblue" points="270.13,-28.66 259.75,-26.53 266.53,-34.66 270.13,-28.66"/>
</g>
<!-- Node11&#45;&gt;Node8 -->
<g id="edge13" class="edge">
<title>Node11&#45;&gt;Node8</title>
<path fill="none" stroke="midnightblue" d="M396.66,-69.92C516.62,-57.77 799.34,-29.12 903.87,-18.53"/>
<polygon fill="midnightblue" stroke="midnightblue" points="904.4,-21.99 914,-17.5 903.7,-15.03 904.4,-21.99"/>
</g>
<!-- Node11&#45;&gt;Node12 -->
<g id="edge11" class="edge">
<title>Node11&#45;&gt;Node12</title>
<path fill="none" stroke="midnightblue" d="M341.64,-63.45C341.64,-55.85 341.64,-45.79 341.64,-36.78"/>
<polygon fill="midnightblue" stroke="midnightblue" points="345.14,-36.53 341.64,-26.53 338.14,-36.53 345.14,-36.53"/>
</g>
<!-- Node16&#45;&gt;Node6 -->
<g id="edge35" class="edge">
<title>Node16&#45;&gt;Node6</title>
<path fill="none" stroke="midnightblue" d="M1046.41,-270.29C1062.39,-236.54 1107.29,-141.63 1127.53,-98.87"/>
<polygon fill="midnightblue" stroke="midnightblue" points="1130.78,-100.18 1131.89,-89.65 1124.45,-97.19 1130.78,-100.18"/>
</g>
<!-- Node16&#45;&gt;Node9 -->
<g id="edge36" class="edge">
<title>Node16&#45;&gt;Node9</title>
<path fill="none" stroke="midnightblue" d="M1081.45,-270.49C1129.01,-254.64 1207.37,-222.56 1256.64,-171 1276.08,-150.65 1287.88,-119.94 1294.08,-99.32"/>
<polygon fill="midnightblue" stroke="midnightblue" points="1297.48,-100.15 1296.82,-89.57 1290.74,-98.25 1297.48,-100.15"/>
</g>
<!-- Node17 -->
<g id="node17" class="node">
<title>Node17</title>
<g id="a_node17"><a xlink:href="_i_e_image_8hpp.html" target="_top" xlink:title=" ">
<polygon fill="white" stroke="black" points="287.14,-207.5 287.14,-233.5 436.14,-233.5 436.14,-207.5 287.14,-207.5"/>
<text text-anchor="middle" x="361.64" y="-216.7" font-family="Source Sans Pro" font-size="16.00">Image/IEImage.hpp</text>
</a>
</g>
</g>
<!-- Node16&#45;&gt;Node17 -->
<g id="edge24" class="edge">
<title>Node16&#45;&gt;Node17</title>
<path fill="none" stroke="midnightblue" d="M938.98,-273.37C804.94,-261.33 571.5,-240.35 446.45,-229.12"/>
<polygon fill="midnightblue" stroke="midnightblue" points="446.44,-225.6 436.17,-228.2 445.82,-232.58 446.44,-225.6"/>
</g>
<!-- Node17&#45;&gt;Node5 -->
<g id="edge25" class="edge">
<title>Node17&#45;&gt;Node5</title>
<path fill="none" stroke="midnightblue" d="M436.47,-210.89C519.04,-201.34 655.86,-185.38 773.64,-171 785.75,-169.52 798.35,-167.96 810.97,-166.39"/>
<polygon fill="midnightblue" stroke="midnightblue" points="811.59,-169.84 821.08,-165.13 810.73,-162.89 811.59,-169.84"/>
</g>
<!-- Node17&#45;&gt;Node7 -->
<g id="edge33" class="edge">
<title>Node17&#45;&gt;Node7</title>
<path fill="none" stroke="midnightblue" d="M286.94,-220.07C195.45,-218.98 48.33,-210.86 13.64,-171 -48.73,-99.34 122.54,-44.5 201.82,-23.65"/>
<polygon fill="midnightblue" stroke="midnightblue" points="203.1,-26.93 211.91,-21.04 201.35,-20.15 203.1,-26.93"/>
</g>
<!-- Node17&#45;&gt;Node8 -->
<g id="edge34" class="edge">
<title>Node17&#45;&gt;Node8</title>
<path fill="none" stroke="midnightblue" d="M342.22,-207.48C330.38,-198.94 316.28,-186.28 309.64,-171 301.66,-152.66 296.78,-141.32 309.64,-126 348.34,-79.9 770.82,-32.43 903.81,-18.54"/>
<polygon fill="midnightblue" stroke="midnightblue" points="904.37,-22 913.96,-17.49 903.65,-15.04 904.37,-22"/>
</g>
<!-- Node17&#45;&gt;Node9 -->
<g id="edge30" class="edge">
<title>Node17&#45;&gt;Node9</title>
<path fill="none" stroke="midnightblue" d="M436.25,-217.52C593.82,-212.82 955.85,-199.25 1075.64,-171 1147.71,-154 1226.37,-116.29 1268.62,-94.31"/>
<polygon fill="midnightblue" stroke="midnightblue" points="1270.35,-97.36 1277.57,-89.6 1267.09,-91.16 1270.35,-97.36"/>
</g>
<!-- Node17&#45;&gt;Node10 -->
<g id="edge26" class="edge">
<title>Node17&#45;&gt;Node10</title>
<path fill="none" stroke="midnightblue" d="M337.4,-207.47C314.4,-196.05 279.63,-178.79 254.02,-166.07"/>
<polygon fill="midnightblue" stroke="midnightblue" points="255.55,-162.92 245.03,-161.61 252.43,-169.19 255.55,-162.92"/>
</g>
<!-- Node17&#45;&gt;Node12 -->
<g id="edge31" class="edge">
<title>Node17&#45;&gt;Node12</title>
<path fill="none" stroke="midnightblue" d="M287.06,-210.05C239.9,-202.36 185.18,-189.7 170.64,-171 124.57,-111.78 236.29,-55.81 300.41,-29.77"/>
<polygon fill="midnightblue" stroke="midnightblue" points="301.88,-32.95 309.88,-26 299.29,-26.45 301.88,-32.95"/>
</g>
<!-- Node17&#45;&gt;Node13 -->
<g id="edge28" class="edge">
<title>Node17&#45;&gt;Node13</title>
<path fill="none" stroke="midnightblue" d="M388.11,-207.47C413.34,-196 451.54,-178.64 479.55,-165.9"/>
<polygon fill="midnightblue" stroke="midnightblue" points="481.34,-168.94 488.99,-161.61 478.44,-162.56 481.34,-168.94"/>
</g>
<!-- Node17&#45;&gt;Node14 -->
<g id="edge27" class="edge">
<title>Node17&#45;&gt;Node14</title>
<path fill="none" stroke="midnightblue" d="M433.69,-207.47C485.17,-198.48 555.95,-185.32 617.64,-171 626.39,-168.97 635.63,-166.61 644.58,-164.22"/>
<polygon fill="midnightblue" stroke="midnightblue" points="645.78,-167.52 654.51,-161.51 643.94,-160.76 645.78,-167.52"/>
</g>
<!-- Node17&#45;&gt;Node15 -->
<g id="edge32" class="edge">
<title>Node17&#45;&gt;Node15</title>
<path fill="none" stroke="midnightblue" d="M361.64,-207.31C361.64,-197.47 361.64,-183.38 361.64,-171.57"/>
<polygon fill="midnightblue" stroke="midnightblue" points="365.14,-171.55 361.64,-161.55 358.14,-171.55 365.14,-171.55"/>
</g>
<!-- Node18 -->
<g id="node18" class="node">
<title>Node18</title>
<g id="a_node18"><a xlink:title=" ">
<polygon fill="white" stroke="#bfbfbf" points="22.64,-135.5 22.64,-161.5 122.64,-161.5 122.64,-135.5 22.64,-135.5"/>
<text text-anchor="middle" x="72.64" y="-144.7" font-family="Source Sans Pro" font-size="16.00">stb_image.h</text>
</a>
</g>
</g>
<!-- Node17&#45;&gt;Node18 -->
<g id="edge29" class="edge">
<title>Node17&#45;&gt;Node18</title>
<path fill="none" stroke="midnightblue" d="M296.68,-207.5C251.48,-198.66 190,-185.67 136.64,-171 129.96,-169.16 122.95,-167.03 116.12,-164.83"/>
<polygon fill="midnightblue" stroke="midnightblue" points="116.89,-161.4 106.3,-161.59 114.7,-168.05 116.89,-161.4"/>
</g>
</g>
</svg>
