<?xml version="1.0" encoding="UTF-8" standalone="no"?>
<!DOCTYPE svg PUBLIC "-//W3C//DTD SVG 1.1//EN"
 "http://www.w3.org/Graphics/SVG/1.1/DTD/svg11.dtd">
<!-- Generated by graphviz version 2.43.0 (0)
 -->
<!-- Title: Illumination&#45;Engine/src/GraphicsModule/CommandBuffer/DependencyStructs/IECopyBufferToImageInfo.hpp Pages: 1 -->
<svg width="1230pt" height="359pt"
 viewBox="0.00 0.00 1230.00 359.00" xmlns="http://www.w3.org/2000/svg" xmlns:xlink="http://www.w3.org/1999/xlink">
<g id="graph0" class="graph" transform="scale(1 1) rotate(0) translate(4 355)">
<title>Illumination&#45;Engine/src/GraphicsModule/CommandBuffer/DependencyStructs/IECopyBufferToImageInfo.hpp</title>
<polygon fill="white" stroke="transparent" points="-4,4 -4,-355 1226,-355 1226,4 -4,4"/>
<!-- Node1 -->
<g id="node1" class="node">
<title>Node1</title>
<g id="a_node1"><a xlink:title=" ">
<polygon fill="#bfbfbf" stroke="black" points="0,-270.5 0,-350.5 272,-350.5 272,-270.5 0,-270.5"/>
<text text-anchor="start" x="8" y="-333.7" font-family="Source Sans Pro" font-size="16.00">Illumination&#45;Engine</text>
<text text-anchor="start" x="8" y="-315.7" font-family="Source Sans Pro" font-size="16.00">/src/GraphicsModule</text>
<text text-anchor="start" x="8" y="-297.7" font-family="Source Sans Pro" font-size="16.00">/CommandBuffer/DependencyStructs</text>
<text text-anchor="middle" x="136" y="-279.7" font-family="Source Sans Pro" font-size="16.00">/IECopyBufferToImageInfo.hpp</text>
</a>
</g>
</g>
<!-- Node2 -->
<g id="node2" class="node">
<title>Node2</title>
<g id="a_node2"><a xlink:title=" ">
<polygon fill="white" stroke="#bfbfbf" points="99,-63.5 99,-89.5 173,-89.5 173,-63.5 99,-63.5"/>
<text text-anchor="middle" x="136" y="-72.7" font-family="Source Sans Pro" font-size="16.00">memory</text>
</a>
</g>
</g>
<!-- Node1&#45;&gt;Node2 -->
<g id="edge1" class="edge">
<title>Node1&#45;&gt;Node2</title>
<path fill="none" stroke="midnightblue" d="M51.81,-270.29C38.63,-260.35 26.81,-248.33 19,-234 -3.96,-191.85 -7.66,-165.91 19,-126 34.58,-102.68 63.69,-90.55 88.97,-84.26"/>
<polygon fill="midnightblue" stroke="midnightblue" points="89.8,-87.66 98.79,-82.05 88.27,-80.83 89.8,-87.66"/>
</g>
<!-- Node3 -->
<g id="node3" class="node">
<title>Node3</title>
<g id="a_node3"><a xlink:title=" ">
<polygon fill="white" stroke="#bfbfbf" points="352.5,-63.5 352.5,-89.5 477.5,-89.5 477.5,-63.5 352.5,-63.5"/>
<text text-anchor="middle" x="415" y="-72.7" font-family="Source Sans Pro" font-size="16.00">vulkan/vulkan.h</text>
</a>
</g>
</g>
<!-- Node1&#45;&gt;Node3 -->
<g id="edge2" class="edge">
<title>Node1&#45;&gt;Node3</title>
<path fill="none" stroke="midnightblue" d="M127.55,-270.42C121.1,-229.11 118.51,-164.68 154,-126 178.82,-98.95 273.84,-86.78 342.06,-81.45"/>
<polygon fill="midnightblue" stroke="midnightblue" points="342.63,-84.92 352.35,-80.68 342.11,-77.94 342.63,-84.92"/>
</g>
<!-- Node4 -->
<g id="node4" class="node">
<title>Node4</title>
<g id="a_node4"><a xlink:href="_i_e_buffer_8hpp.html" target="_top" xlink:title=" ">
<polygon fill="white" stroke="black" points="166.5,-207.5 166.5,-233.5 313.5,-233.5 313.5,-207.5 166.5,-207.5"/>
<text text-anchor="middle" x="240" y="-216.7" font-family="Source Sans Pro" font-size="16.00">Buffer/IEBuffer.hpp</text>
</a>
</g>
</g>
<!-- Node1&#45;&gt;Node4 -->
<g id="edge3" class="edge">
<title>Node1&#45;&gt;Node4</title>
<path fill="none" stroke="midnightblue" d="M182.22,-270.39C194.55,-259.96 207.32,-249.16 217.7,-240.37"/>
<polygon fill="midnightblue" stroke="midnightblue" points="220.1,-242.93 225.47,-233.79 215.58,-237.58 220.1,-242.93"/>
</g>
<!-- Node14 -->
<g id="node14" class="node">
<title>Node14</title>
<g id="a_node14"><a xlink:href="_i_e_image_8hpp.html" target="_top" xlink:title=" ">
<polygon fill="white" stroke="black" points="614.5,-207.5 614.5,-233.5 763.5,-233.5 763.5,-207.5 614.5,-207.5"/>
<text text-anchor="middle" x="689" y="-216.7" font-family="Source Sans Pro" font-size="16.00">Image/IEImage.hpp</text>
</a>
</g>
</g>
<!-- Node1&#45;&gt;Node14 -->
<g id="edge21" class="edge">
<title>Node1&#45;&gt;Node14</title>
<path fill="none" stroke="midnightblue" d="M272.34,-287.8C376.28,-271.26 516.13,-249.01 604.43,-234.96"/>
<polygon fill="midnightblue" stroke="midnightblue" points="605.08,-238.4 614.41,-233.37 603.98,-231.48 605.08,-238.4"/>
</g>
<!-- Node4&#45;&gt;Node3 -->
<g id="edge17" class="edge">
<title>Node4&#45;&gt;Node3</title>
<path fill="none" stroke="midnightblue" d="M208.9,-207.38C193.32,-199.53 175.92,-187.63 167,-171 157.55,-153.37 154.29,-141.44 167,-126 188.87,-99.44 277.05,-87.22 342.06,-81.74"/>
<polygon fill="midnightblue" stroke="midnightblue" points="342.6,-85.2 352.29,-80.91 342.04,-78.23 342.6,-85.2"/>
</g>
<!-- Node5 -->
<g id="node5" class="node">
<title>Node5</title>
<g id="a_node5"><a xlink:href="_i_e_dependency_8hpp.html" target="_top" xlink:title=" ">
<polygon fill="white" stroke="black" points="566.5,-126.5 566.5,-170.5 811.5,-170.5 811.5,-126.5 566.5,-126.5"/>
<text text-anchor="start" x="574.5" y="-153.7" font-family="Source Sans Pro" font-size="16.00">GraphicsModule/CommandBuffer</text>
<text text-anchor="middle" x="689" y="-135.7" font-family="Source Sans Pro" font-size="16.00">/IEDependency.hpp</text>
</a>
</g>
</g>
<!-- Node4&#45;&gt;Node5 -->
<g id="edge4" class="edge">
<title>Node4&#45;&gt;Node5</title>
<path fill="none" stroke="midnightblue" d="M313.64,-208.02C379.25,-197.79 476.86,-182.57 556.09,-170.22"/>
<polygon fill="midnightblue" stroke="midnightblue" points="556.81,-173.65 566.15,-168.65 555.73,-166.73 556.81,-173.65"/>
</g>
<!-- Node6 -->
<g id="node6" class="node">
<title>Node6</title>
<g id="a_node6"><a xlink:title=" ">
<polygon fill="white" stroke="#bfbfbf" points="722.5,-0.5 722.5,-26.5 781.5,-26.5 781.5,-0.5 722.5,-0.5"/>
<text text-anchor="middle" x="752" y="-9.7" font-family="Source Sans Pro" font-size="16.00">vector</text>
</a>
</g>
</g>
<!-- Node4&#45;&gt;Node6 -->
<g id="edge18" class="edge">
<title>Node4&#45;&gt;Node6</title>
<path fill="none" stroke="midnightblue" d="M166.26,-211.95C139.68,-205.35 112.06,-193.21 95,-171 65.74,-132.89 57.29,-98.2 90,-63 132.44,-17.34 576.01,-14.22 712.36,-14.34"/>
<polygon fill="midnightblue" stroke="midnightblue" points="712.37,-17.84 722.37,-14.36 712.38,-10.84 712.37,-17.84"/>
</g>
<!-- Node8 -->
<g id="node8" class="node">
<title>Node8</title>
<g id="a_node8"><a xlink:href="_i_e_a_p_i_8hpp.html" target="_top" xlink:title=" ">
<polygon fill="white" stroke="black" points="868.5,-135.5 868.5,-161.5 951.5,-161.5 951.5,-135.5 868.5,-135.5"/>
<text text-anchor="middle" x="910" y="-144.7" font-family="Source Sans Pro" font-size="16.00">IEAPI.hpp</text>
</a>
</g>
</g>
<!-- Node4&#45;&gt;Node8 -->
<g id="edge9" class="edge">
<title>Node4&#45;&gt;Node8</title>
<path fill="none" stroke="midnightblue" d="M313.81,-216.97C424.59,-212.36 640.14,-200.22 821,-171 833.14,-169.04 846.06,-166.3 858.2,-163.43"/>
<polygon fill="midnightblue" stroke="midnightblue" points="859.28,-166.77 868.17,-161.01 857.62,-159.97 859.28,-166.77"/>
</g>
<!-- Node10 -->
<g id="node10" class="node">
<title>Node10</title>
<g id="a_node10"><a xlink:title=" ">
<polygon fill="white" stroke="#bfbfbf" points="865.5,-0.5 865.5,-26.5 928.5,-26.5 928.5,-0.5 865.5,-0.5"/>
<text text-anchor="middle" x="897" y="-9.7" font-family="Source Sans Pro" font-size="16.00">cstdint</text>
</a>
</g>
</g>
<!-- Node4&#45;&gt;Node10 -->
<g id="edge19" class="edge">
<title>Node4&#45;&gt;Node10</title>
<path fill="none" stroke="midnightblue" d="M200.42,-207.45C182.95,-199.94 164.12,-188.32 154,-171 143.91,-153.73 142.29,-142.22 154,-126 238.4,-9.09 673.4,-38.67 791,-27 812.26,-24.89 835.87,-22.15 855.4,-19.77"/>
<polygon fill="midnightblue" stroke="midnightblue" points="856,-23.22 865.49,-18.53 855.14,-16.27 856,-23.22"/>
</g>
<!-- Node11 -->
<g id="node11" class="node">
<title>Node11</title>
<g id="a_node11"><a xlink:title=" ">
<polygon fill="white" stroke="#bfbfbf" points="175.5,-135.5 175.5,-161.5 304.5,-161.5 304.5,-135.5 175.5,-135.5"/>
<text text-anchor="middle" x="240" y="-144.7" font-family="Source Sans Pro" font-size="16.00">vk_mem_alloc.h</text>
</a>
</g>
</g>
<!-- Node4&#45;&gt;Node11 -->
<g id="edge15" class="edge">
<title>Node4&#45;&gt;Node11</title>
<path fill="none" stroke="midnightblue" d="M240,-207.31C240,-197.47 240,-183.38 240,-171.57"/>
<polygon fill="midnightblue" stroke="midnightblue" points="243.5,-171.55 240,-161.55 236.5,-171.55 243.5,-171.55"/>
</g>
<!-- Node12 -->
<g id="node12" class="node">
<title>Node12</title>
<g id="a_node12"><a xlink:title=" ">
<polygon fill="white" stroke="#bfbfbf" points="322.5,-135.5 322.5,-161.5 405.5,-161.5 405.5,-135.5 322.5,-135.5"/>
<text text-anchor="middle" x="364" y="-144.7" font-family="Source Sans Pro" font-size="16.00">GL/glew.h</text>
</a>
</g>
</g>
<!-- Node4&#45;&gt;Node12 -->
<g id="edge16" class="edge">
<title>Node4&#45;&gt;Node12</title>
<path fill="none" stroke="midnightblue" d="M261.32,-207.47C281.28,-196.2 311.31,-179.24 333.75,-166.58"/>
<polygon fill="midnightblue" stroke="midnightblue" points="335.56,-169.57 342.55,-161.61 332.12,-163.48 335.56,-169.57"/>
</g>
<!-- Node13 -->
<g id="node13" class="node">
<title>Node13</title>
<g id="a_node13"><a xlink:title=" ">
<polygon fill="white" stroke="#bfbfbf" points="424,-135.5 424,-161.5 510,-161.5 510,-135.5 424,-135.5"/>
<text text-anchor="middle" x="467" y="-144.7" font-family="Source Sans Pro" font-size="16.00">functional</text>
</a>
</g>
</g>
<!-- Node4&#45;&gt;Node13 -->
<g id="edge20" class="edge">
<title>Node4&#45;&gt;Node13</title>
<path fill="none" stroke="midnightblue" d="M289.52,-207.49C324.84,-198.51 373.26,-185.35 415,-171 419.95,-169.3 425.11,-167.36 430.18,-165.37"/>
<polygon fill="midnightblue" stroke="midnightblue" points="431.76,-168.51 439.71,-161.51 429.13,-162.02 431.76,-168.51"/>
</g>
<!-- Node5&#45;&gt;Node2 -->
<g id="edge8" class="edge">
<title>Node5&#45;&gt;Node2</title>
<path fill="none" stroke="midnightblue" d="M566.27,-131.96C445.46,-116.67 267.23,-94.11 183.16,-83.47"/>
<polygon fill="midnightblue" stroke="midnightblue" points="183.51,-79.99 173.15,-82.2 182.63,-86.93 183.51,-79.99"/>
</g>
<!-- Node5&#45;&gt;Node3 -->
<g id="edge6" class="edge">
<title>Node5&#45;&gt;Node3</title>
<path fill="none" stroke="midnightblue" d="M606.79,-126.5C563.38,-115.41 511.18,-102.07 472.21,-92.12"/>
<polygon fill="midnightblue" stroke="midnightblue" points="472.65,-88.62 462.09,-89.53 470.91,-95.4 472.65,-88.62"/>
</g>
<!-- Node5&#45;&gt;Node6 -->
<g id="edge5" class="edge">
<title>Node5&#45;&gt;Node6</title>
<path fill="none" stroke="midnightblue" d="M698.98,-126.43C710.69,-101.7 730,-60.94 741.8,-36.03"/>
<polygon fill="midnightblue" stroke="midnightblue" points="745.1,-37.25 746.21,-26.71 738.77,-34.25 745.1,-37.25"/>
</g>
<!-- Node7 -->
<g id="node7" class="node">
<title>Node7</title>
<g id="a_node7"><a xlink:title=" ">
<polygon fill="white" stroke="#bfbfbf" points="1009.5,-0.5 1009.5,-26.5 1064.5,-26.5 1064.5,-0.5 1009.5,-0.5"/>
<text text-anchor="middle" x="1037" y="-9.7" font-family="Source Sans Pro" font-size="16.00">string</text>
</a>
</g>
</g>
<!-- Node5&#45;&gt;Node7 -->
<g id="edge7" class="edge">
<title>Node5&#45;&gt;Node7</title>
<path fill="none" stroke="midnightblue" d="M811.82,-128.49C871.07,-117.93 934.88,-104.11 961,-90 985.94,-76.53 1008.13,-52.33 1022,-34.96"/>
<polygon fill="midnightblue" stroke="midnightblue" points="1025.12,-36.64 1028.46,-26.59 1019.58,-32.36 1025.12,-36.64"/>
</g>
<!-- Node8&#45;&gt;Node7 -->
<g id="edge14" class="edge">
<title>Node8&#45;&gt;Node7</title>
<path fill="none" stroke="midnightblue" d="M951.67,-139.3C979.28,-131.54 1013.67,-116.89 1032,-90 1042.52,-74.57 1042.9,-52.99 1041.15,-36.85"/>
<polygon fill="midnightblue" stroke="midnightblue" points="1044.58,-36.09 1039.7,-26.69 1037.65,-37.08 1044.58,-36.09"/>
</g>
<!-- Node9 -->
<g id="node9" class="node">
<title>Node9</title>
<g id="a_node9"><a xlink:href="_i_e_version_8hpp.html" target="_top" xlink:title=" ">
<polygon fill="white" stroke="black" points="842,-63.5 842,-89.5 952,-89.5 952,-63.5 842,-63.5"/>
<text text-anchor="middle" x="897" y="-72.7" font-family="Source Sans Pro" font-size="16.00">IEVersion.hpp</text>
</a>
</g>
</g>
<!-- Node8&#45;&gt;Node9 -->
<g id="edge10" class="edge">
<title>Node8&#45;&gt;Node9</title>
<path fill="none" stroke="midnightblue" d="M907.74,-135.31C905.91,-125.47 903.29,-111.38 901.1,-99.57"/>
<polygon fill="midnightblue" stroke="midnightblue" points="904.51,-98.75 899.24,-89.55 897.62,-100.02 904.51,-98.75"/>
</g>
<!-- Node9&#45;&gt;Node6 -->
<g id="edge13" class="edge">
<title>Node9&#45;&gt;Node6</title>
<path fill="none" stroke="midnightblue" d="M868.35,-63.45C845.91,-54.01 814.49,-40.79 789.96,-30.47"/>
<polygon fill="midnightblue" stroke="midnightblue" points="791.16,-27.18 780.59,-26.53 788.45,-33.63 791.16,-27.18"/>
</g>
<!-- Node9&#45;&gt;Node7 -->
<g id="edge12" class="edge">
<title>Node9&#45;&gt;Node7</title>
<path fill="none" stroke="midnightblue" d="M924.66,-63.45C946.23,-54.05 976.4,-40.91 1000.04,-30.61"/>
<polygon fill="midnightblue" stroke="midnightblue" points="1001.63,-33.73 1009.4,-26.53 998.83,-27.31 1001.63,-33.73"/>
</g>
<!-- Node9&#45;&gt;Node10 -->
<g id="edge11" class="edge">
<title>Node9&#45;&gt;Node10</title>
<path fill="none" stroke="midnightblue" d="M897,-63.45C897,-55.85 897,-45.79 897,-36.78"/>
<polygon fill="midnightblue" stroke="midnightblue" points="900.5,-36.53 897,-26.53 893.5,-36.53 900.5,-36.53"/>
</g>
<!-- Node14&#45;&gt;Node3 -->
<g id="edge26" class="edge">
<title>Node14&#45;&gt;Node3</title>
<path fill="none" stroke="midnightblue" d="M639.21,-207.49C613.47,-199.74 582.42,-187.91 558,-171 536.24,-155.93 540.12,-141.94 519,-126 501.18,-112.55 479.03,-101.58 459.76,-93.5"/>
<polygon fill="midnightblue" stroke="midnightblue" points="460.85,-90.17 450.27,-89.65 458.22,-96.65 460.85,-90.17"/>
</g>
<!-- Node14&#45;&gt;Node5 -->
<g id="edge22" class="edge">
<title>Node14&#45;&gt;Node5</title>
<path fill="none" stroke="midnightblue" d="M689,-207.31C689,-199.96 689,-190.25 689,-180.88"/>
<polygon fill="midnightblue" stroke="midnightblue" points="692.5,-180.6 689,-170.6 685.5,-180.6 692.5,-180.6"/>
</g>
<!-- Node14&#45;&gt;Node6 -->
<g id="edge30" class="edge">
<title>Node14&#45;&gt;Node6</title>
<path fill="none" stroke="midnightblue" d="M763.51,-208.87C785.67,-201.84 807.59,-190.22 821,-171 852.33,-126.11 802.74,-64.7 772.54,-33.85"/>
<polygon fill="midnightblue" stroke="midnightblue" points="774.9,-31.27 765.34,-26.7 769.97,-36.23 774.9,-31.27"/>
</g>
<!-- Node14&#45;&gt;Node7 -->
<g id="edge29" class="edge">
<title>Node14&#45;&gt;Node7</title>
<path fill="none" stroke="midnightblue" d="M763.71,-213.28C838.48,-205.98 947.51,-192.14 984,-171 1024.18,-147.72 1034.43,-133.75 1050,-90 1056.23,-72.49 1051.79,-51.6 1046.46,-36.23"/>
<polygon fill="midnightblue" stroke="midnightblue" points="1049.61,-34.67 1042.76,-26.59 1043.08,-37.18 1049.61,-34.67"/>
</g>
<!-- Node14&#45;&gt;Node8 -->
<g id="edge23" class="edge">
<title>Node14&#45;&gt;Node8</title>
<path fill="none" stroke="midnightblue" d="M733.42,-207.49C766.81,-198.21 813.56,-184.68 854,-171 859.3,-169.21 864.85,-167.22 870.3,-165.2"/>
<polygon fill="midnightblue" stroke="midnightblue" points="871.82,-168.36 879.94,-161.55 869.35,-161.81 871.82,-168.36"/>
</g>
<!-- Node14&#45;&gt;Node10 -->
<g id="edge28" class="edge">
<title>Node14&#45;&gt;Node10</title>
<path fill="none" stroke="midnightblue" d="M763.66,-216.63C835.33,-212.12 936.25,-200.56 961,-171 991.82,-134.2 982.36,-105.99 961,-63 954.62,-50.17 943.05,-39.82 931.48,-32.03"/>
<polygon fill="midnightblue" stroke="midnightblue" points="933.06,-28.89 922.72,-26.57 929.35,-34.83 933.06,-28.89"/>
</g>
<!-- Node14&#45;&gt;Node11 -->
<g id="edge25" class="edge">
<title>Node14&#45;&gt;Node11</title>
<path fill="none" stroke="midnightblue" d="M614.44,-213.27C538.35,-206.12 417.14,-192.52 314,-171 305.25,-169.17 296.02,-166.84 287.16,-164.38"/>
<polygon fill="midnightblue" stroke="midnightblue" points="287.94,-160.96 277.36,-161.57 286.01,-167.69 287.94,-160.96"/>
</g>
<!-- Node14&#45;&gt;Node12 -->
<g id="edge24" class="edge">
<title>Node14&#45;&gt;Node12</title>
<path fill="none" stroke="midnightblue" d="M614.41,-210.89C558.71,-203.36 481.14,-190.53 415,-171 409.7,-169.44 404.21,-167.49 398.88,-165.41"/>
<polygon fill="midnightblue" stroke="midnightblue" points="400.12,-162.14 389.54,-161.58 397.46,-168.61 400.12,-162.14"/>
</g>
<!-- Node14&#45;&gt;Node13 -->
<g id="edge31" class="edge">
<title>Node14&#45;&gt;Node13</title>
<path fill="none" stroke="midnightblue" d="M644.6,-207.42C611.22,-198.11 564.48,-184.56 524,-171 518.47,-169.15 512.69,-167.1 507.01,-165.02"/>
<polygon fill="midnightblue" stroke="midnightblue" points="508.21,-161.73 497.61,-161.53 505.77,-168.29 508.21,-161.73"/>
</g>
<!-- Node15 -->
<g id="node15" class="node">
<title>Node15</title>
<g id="a_node15"><a xlink:title=" ">
<polygon fill="white" stroke="#bfbfbf" points="1122,-135.5 1122,-161.5 1222,-161.5 1222,-135.5 1122,-135.5"/>
<text text-anchor="middle" x="1172" y="-144.7" font-family="Source Sans Pro" font-size="16.00">stb_image.h</text>
</a>
</g>
</g>
<!-- Node14&#45;&gt;Node15 -->
<g id="edge27" class="edge">
<title>Node14&#45;&gt;Node15</title>
<path fill="none" stroke="midnightblue" d="M763.58,-215.58C847.98,-210.06 989.18,-197.53 1108,-171 1115.48,-169.33 1123.31,-167.11 1130.82,-164.73"/>
<polygon fill="midnightblue" stroke="midnightblue" points="1132.07,-168.01 1140.47,-161.55 1129.88,-161.36 1132.07,-168.01"/>
</g>
</g>
</svg>
