<?xml version="1.0" encoding="UTF-8" standalone="no"?>
<!DOCTYPE svg PUBLIC "-//W3C//DTD SVG 1.1//EN"
 "http://www.w3.org/Graphics/SVG/1.1/DTD/svg11.dtd">
<!-- Generated by graphviz version 2.43.0 (0)
 -->
<!-- Title: Illumination&#45;Engine/src/GraphicsModule/CommandBuffer/DependencyStructs/IECopyBufferToImageInfo.hpp Pages: 1 -->
<svg width="1252pt" height="359pt"
 viewBox="0.00 0.00 1252.00 359.00" xmlns="http://www.w3.org/2000/svg" xmlns:xlink="http://www.w3.org/1999/xlink">
<g id="graph0" class="graph" transform="scale(1 1) rotate(0) translate(4 355)">
<title>Illumination&#45;Engine/src/GraphicsModule/CommandBuffer/DependencyStructs/IECopyBufferToImageInfo.hpp</title>
<polygon fill="white" stroke="transparent" points="-4,4 -4,-355 1248,-355 1248,4 -4,4"/>
<!-- Node1 -->
<g id="node1" class="node">
<title>Node1</title>
<g id="a_node1"><a xlink:title=" ">
<polygon fill="#bfbfbf" stroke="black" points="0,-270.5 0,-350.5 272,-350.5 272,-270.5 0,-270.5"/>
<text text-anchor="start" x="8" y="-333.7" font-family="Source Sans Pro" font-size="16.00">Illumination&#45;Engine</text>
<text text-anchor="start" x="8" y="-315.7" font-family="Source Sans Pro" font-size="16.00">/src/GraphicsModule</text>
<text text-anchor="start" x="8" y="-297.7" font-family="Source Sans Pro" font-size="16.00">/CommandBuffer/DependencyStructs</text>
<text text-anchor="middle" x="136" y="-279.7" font-family="Source Sans Pro" font-size="16.00">/IECopyBufferToImageInfo.hpp</text>
</a>
</g>
</g>
<!-- Node2 -->
<g id="node2" class="node">
<title>Node2</title>
<g id="a_node2"><a xlink:href="_i_e_buffer_8hpp.html" target="_top" xlink:title=" ">
<polygon fill="white" stroke="black" points="135.5,-207.5 135.5,-233.5 282.5,-233.5 282.5,-207.5 135.5,-207.5"/>
<text text-anchor="middle" x="209" y="-216.7" font-family="Source Sans Pro" font-size="16.00">Buffer/IEBuffer.hpp</text>
</a>
</g>
</g>
<!-- Node1&#45;&gt;Node2 -->
<g id="edge1" class="edge">
<title>Node1&#45;&gt;Node2</title>
<path fill="none" stroke="midnightblue" d="M168.44,-270.39C176.67,-260.47 185.17,-250.22 192.26,-241.69"/>
<polygon fill="midnightblue" stroke="midnightblue" points="195.11,-243.73 198.8,-233.79 189.72,-239.26 195.11,-243.73"/>
</g>
<!-- Node4 -->
<g id="node4" class="node">
<title>Node4</title>
<g id="a_node4"><a xlink:title=" ">
<polygon fill="white" stroke="#bfbfbf" points="258,-63.5 258,-89.5 332,-89.5 332,-63.5 258,-63.5"/>
<text text-anchor="middle" x="295" y="-72.7" font-family="Source Sans Pro" font-size="16.00">memory</text>
</a>
</g>
</g>
<!-- Node1&#45;&gt;Node4 -->
<g id="edge30" class="edge">
<title>Node1&#45;&gt;Node4</title>
<path fill="none" stroke="midnightblue" d="M76.36,-270.11C65.27,-259.78 55.23,-247.65 49,-234 29.08,-190.33 18.52,-163.08 49,-126 73.61,-96.06 183.03,-84.3 247.35,-79.92"/>
<polygon fill="midnightblue" stroke="midnightblue" points="247.9,-83.39 257.65,-79.26 247.45,-76.41 247.9,-83.39"/>
</g>
<!-- Node7 -->
<g id="node7" class="node">
<title>Node7</title>
<g id="a_node7"><a xlink:title=" ">
<polygon fill="white" stroke="#bfbfbf" points="484.5,-63.5 484.5,-89.5 609.5,-89.5 609.5,-63.5 484.5,-63.5"/>
<text text-anchor="middle" x="547" y="-72.7" font-family="Source Sans Pro" font-size="16.00">vulkan/vulkan.h</text>
</a>
</g>
</g>
<!-- Node1&#45;&gt;Node7 -->
<g id="edge31" class="edge">
<title>Node1&#45;&gt;Node7</title>
<path fill="none" stroke="midnightblue" d="M124.12,-270.12C114.01,-227.6 106.67,-161.23 146,-126 169.94,-104.56 365.26,-88.95 474.21,-81.82"/>
<polygon fill="midnightblue" stroke="midnightblue" points="474.72,-85.3 484.47,-81.16 474.27,-78.31 474.72,-85.3"/>
</g>
<!-- Node14 -->
<g id="node14" class="node">
<title>Node14</title>
<g id="a_node14"><a xlink:href="_i_e_image_8hpp.html" target="_top" xlink:title=" ">
<polygon fill="white" stroke="black" points="719.5,-207.5 719.5,-233.5 868.5,-233.5 868.5,-207.5 719.5,-207.5"/>
<text text-anchor="middle" x="794" y="-216.7" font-family="Source Sans Pro" font-size="16.00">Image/IEImage.hpp</text>
</a>
</g>
</g>
<!-- Node1&#45;&gt;Node14 -->
<g id="edge19" class="edge">
<title>Node1&#45;&gt;Node14</title>
<path fill="none" stroke="midnightblue" d="M272.34,-291.27C403.75,-273.69 598.48,-247.65 709.09,-232.86"/>
<polygon fill="midnightblue" stroke="midnightblue" points="709.75,-236.3 719.2,-231.5 708.82,-229.36 709.75,-236.3"/>
</g>
<!-- Node3 -->
<g id="node3" class="node">
<title>Node3</title>
<g id="a_node3"><a xlink:href="_i_e_dependency_8hpp.html" target="_top" xlink:title=" ">
<polygon fill="white" stroke="black" points="520.5,-126.5 520.5,-170.5 765.5,-170.5 765.5,-126.5 520.5,-126.5"/>
<text text-anchor="start" x="528.5" y="-153.7" font-family="Source Sans Pro" font-size="16.00">GraphicsModule/CommandBuffer</text>
<text text-anchor="middle" x="643" y="-135.7" font-family="Source Sans Pro" font-size="16.00">/IEDependency.hpp</text>
</a>
</g>
</g>
<!-- Node2&#45;&gt;Node3 -->
<g id="edge2" class="edge">
<title>Node2&#45;&gt;Node3</title>
<path fill="none" stroke="midnightblue" d="M282.79,-207.77C341.82,-198.37 426.99,-184.76 510.38,-171.26"/>
<polygon fill="midnightblue" stroke="midnightblue" points="510.97,-174.71 520.28,-169.66 509.85,-167.8 510.97,-174.71"/>
</g>
<!-- Node6 -->
<g id="node6" class="node">
<title>Node6</title>
<g id="a_node6"><a xlink:title=" ">
<polygon fill="white" stroke="#bfbfbf" points="726.5,-0.5 726.5,-26.5 785.5,-26.5 785.5,-0.5 726.5,-0.5"/>
<text text-anchor="middle" x="756" y="-9.7" font-family="Source Sans Pro" font-size="16.00">vector</text>
</a>
</g>
</g>
<!-- Node2&#45;&gt;Node6 -->
<g id="edge18" class="edge">
<title>Node2&#45;&gt;Node6</title>
<path fill="none" stroke="midnightblue" d="M139.68,-207.45C119.3,-200.33 99.22,-189.01 87,-171 60.05,-131.28 54.31,-98.15 87,-63 129.95,-16.83 579.17,-14.07 716.4,-14.31"/>
<polygon fill="midnightblue" stroke="midnightblue" points="716.47,-17.81 726.48,-14.34 716.49,-10.81 716.47,-17.81"/>
</g>
<!-- Node2&#45;&gt;Node7 -->
<g id="edge15" class="edge">
<title>Node2&#45;&gt;Node7</title>
<path fill="none" stroke="midnightblue" d="M190.31,-207.31C178.92,-198.7 165.36,-186.04 159,-171 151.21,-152.58 145.76,-140.99 159,-126 179.48,-102.8 367.68,-88.04 474.25,-81.47"/>
<polygon fill="midnightblue" stroke="midnightblue" points="474.53,-84.96 484.3,-80.86 474.11,-77.97 474.53,-84.96"/>
</g>
<!-- Node8 -->
<g id="node8" class="node">
<title>Node8</title>
<g id="a_node8"><a xlink:href="_i_e_a_p_i_8hpp.html" target="_top" xlink:title=" ">
<polygon fill="white" stroke="black" points="860.5,-135.5 860.5,-161.5 943.5,-161.5 943.5,-135.5 860.5,-135.5"/>
<text text-anchor="middle" x="902" y="-144.7" font-family="Source Sans Pro" font-size="16.00">IEAPI.hpp</text>
</a>
</g>
</g>
<!-- Node2&#45;&gt;Node8 -->
<g id="edge7" class="edge">
<title>Node2&#45;&gt;Node8</title>
<path fill="none" stroke="midnightblue" d="M282.92,-215.11C391.2,-208.24 599.14,-193.38 775,-171 799.93,-167.83 827.44,-163.3 850.47,-159.21"/>
<polygon fill="midnightblue" stroke="midnightblue" points="851.15,-162.65 860.37,-157.43 849.91,-155.76 851.15,-162.65"/>
</g>
<!-- Node10 -->
<g id="node10" class="node">
<title>Node10</title>
<g id="a_node10"><a xlink:title=" ">
<polygon fill="white" stroke="#bfbfbf" points="857.5,-0.5 857.5,-26.5 920.5,-26.5 920.5,-0.5 857.5,-0.5"/>
<text text-anchor="middle" x="889" y="-9.7" font-family="Source Sans Pro" font-size="16.00">cstdint</text>
</a>
</g>
</g>
<!-- Node2&#45;&gt;Node10 -->
<g id="edge16" class="edge">
<title>Node2&#45;&gt;Node10</title>
<path fill="none" stroke="midnightblue" d="M183.67,-207.33C169.8,-199.17 153.86,-186.98 146,-171 137.17,-153.06 136.22,-143.45 146,-126 172.24,-79.19 197.85,-79.24 249,-63 364.9,-26.21 674,-39.02 795,-27 812.07,-25.3 830.81,-22.92 847.04,-20.69"/>
<polygon fill="midnightblue" stroke="midnightblue" points="847.88,-24.1 857.3,-19.25 846.91,-17.17 847.88,-24.1"/>
</g>
<!-- Node11 -->
<g id="node11" class="node">
<title>Node11</title>
<g id="a_node11"><a xlink:title=" ">
<polygon fill="white" stroke="#bfbfbf" points="373.5,-135.5 373.5,-161.5 502.5,-161.5 502.5,-135.5 373.5,-135.5"/>
<text text-anchor="middle" x="438" y="-144.7" font-family="Source Sans Pro" font-size="16.00">vk_mem_alloc.h</text>
</a>
</g>
</g>
<!-- Node2&#45;&gt;Node11 -->
<g id="edge13" class="edge">
<title>Node2&#45;&gt;Node11</title>
<path fill="none" stroke="midnightblue" d="M248.37,-207.47C287.2,-195.6 346.67,-177.42 388.64,-164.59"/>
<polygon fill="midnightblue" stroke="midnightblue" points="389.84,-167.88 398.38,-161.61 387.79,-161.19 389.84,-167.88"/>
</g>
<!-- Node12 -->
<g id="node12" class="node">
<title>Node12</title>
<g id="a_node12"><a xlink:title=" ">
<polygon fill="white" stroke="#bfbfbf" points="167.5,-135.5 167.5,-161.5 250.5,-161.5 250.5,-135.5 167.5,-135.5"/>
<text text-anchor="middle" x="209" y="-144.7" font-family="Source Sans Pro" font-size="16.00">GL/glew.h</text>
</a>
</g>
</g>
<!-- Node2&#45;&gt;Node12 -->
<g id="edge14" class="edge">
<title>Node2&#45;&gt;Node12</title>
<path fill="none" stroke="midnightblue" d="M209,-207.31C209,-197.47 209,-183.38 209,-171.57"/>
<polygon fill="midnightblue" stroke="midnightblue" points="212.5,-171.55 209,-161.55 205.5,-171.55 212.5,-171.55"/>
</g>
<!-- Node13 -->
<g id="node13" class="node">
<title>Node13</title>
<g id="a_node13"><a xlink:title=" ">
<polygon fill="white" stroke="#bfbfbf" points="269,-135.5 269,-161.5 355,-161.5 355,-135.5 269,-135.5"/>
<text text-anchor="middle" x="312" y="-144.7" font-family="Source Sans Pro" font-size="16.00">functional</text>
</a>
</g>
</g>
<!-- Node2&#45;&gt;Node13 -->
<g id="edge17" class="edge">
<title>Node2&#45;&gt;Node13</title>
<path fill="none" stroke="midnightblue" d="M226.94,-207.31C243.26,-196.22 267.55,-179.71 285.99,-167.17"/>
<polygon fill="midnightblue" stroke="midnightblue" points="287.96,-170.07 294.26,-161.55 284.03,-164.28 287.96,-170.07"/>
</g>
<!-- Node3&#45;&gt;Node4 -->
<g id="edge3" class="edge">
<title>Node3&#45;&gt;Node4</title>
<path fill="none" stroke="midnightblue" d="M538.59,-126.5C473.22,-113.35 392.16,-97.04 342.01,-86.96"/>
<polygon fill="midnightblue" stroke="midnightblue" points="342.59,-83.5 332.1,-84.96 341.21,-90.37 342.59,-83.5"/>
</g>
<!-- Node5 -->
<g id="node5" class="node">
<title>Node5</title>
<g id="a_node5"><a xlink:title=" ">
<polygon fill="white" stroke="#bfbfbf" points="1001.5,-0.5 1001.5,-26.5 1056.5,-26.5 1056.5,-0.5 1001.5,-0.5"/>
<text text-anchor="middle" x="1029" y="-9.7" font-family="Source Sans Pro" font-size="16.00">string</text>
</a>
</g>
</g>
<!-- Node3&#45;&gt;Node5 -->
<g id="edge4" class="edge">
<title>Node3&#45;&gt;Node5</title>
<path fill="none" stroke="midnightblue" d="M765.79,-132.25C837.73,-121.87 920.64,-106.96 953,-90 978.11,-76.84 1000.26,-52.58 1014.08,-35.11"/>
<polygon fill="midnightblue" stroke="midnightblue" points="1017.22,-36.76 1020.51,-26.69 1011.66,-32.51 1017.22,-36.76"/>
</g>
<!-- Node3&#45;&gt;Node6 -->
<g id="edge5" class="edge">
<title>Node3&#45;&gt;Node6</title>
<path fill="none" stroke="midnightblue" d="M660.91,-126.43C682.38,-101.16 718.09,-59.12 739.1,-34.39"/>
<polygon fill="midnightblue" stroke="midnightblue" points="741.81,-36.6 745.62,-26.71 736.48,-32.07 741.81,-36.6"/>
</g>
<!-- Node3&#45;&gt;Node7 -->
<g id="edge6" class="edge">
<title>Node3&#45;&gt;Node7</title>
<path fill="none" stroke="midnightblue" d="M614.2,-126.5C600.73,-116.68 584.86,-105.11 571.92,-95.67"/>
<polygon fill="midnightblue" stroke="midnightblue" points="573.64,-92.59 563.5,-89.53 569.52,-98.25 573.64,-92.59"/>
</g>
<!-- Node8&#45;&gt;Node5 -->
<g id="edge12" class="edge">
<title>Node8&#45;&gt;Node5</title>
<path fill="none" stroke="midnightblue" d="M943.67,-139.3C971.28,-131.54 1005.67,-116.89 1024,-90 1034.52,-74.57 1034.9,-52.99 1033.15,-36.85"/>
<polygon fill="midnightblue" stroke="midnightblue" points="1036.58,-36.09 1031.7,-26.69 1029.65,-37.08 1036.58,-36.09"/>
</g>
<!-- Node9 -->
<g id="node9" class="node">
<title>Node9</title>
<g id="a_node9"><a xlink:href="_i_e_version_8hpp.html" target="_top" xlink:title=" ">
<polygon fill="white" stroke="black" points="834,-63.5 834,-89.5 944,-89.5 944,-63.5 834,-63.5"/>
<text text-anchor="middle" x="889" y="-72.7" font-family="Source Sans Pro" font-size="16.00">IEVersion.hpp</text>
</a>
</g>
</g>
<!-- Node8&#45;&gt;Node9 -->
<g id="edge8" class="edge">
<title>Node8&#45;&gt;Node9</title>
<path fill="none" stroke="midnightblue" d="M899.74,-135.31C897.91,-125.47 895.29,-111.38 893.1,-99.57"/>
<polygon fill="midnightblue" stroke="midnightblue" points="896.51,-98.75 891.24,-89.55 889.62,-100.02 896.51,-98.75"/>
</g>
<!-- Node9&#45;&gt;Node5 -->
<g id="edge10" class="edge">
<title>Node9&#45;&gt;Node5</title>
<path fill="none" stroke="midnightblue" d="M916.66,-63.45C938.23,-54.05 968.4,-40.91 992.04,-30.61"/>
<polygon fill="midnightblue" stroke="midnightblue" points="993.63,-33.73 1001.4,-26.53 990.83,-27.31 993.63,-33.73"/>
</g>
<!-- Node9&#45;&gt;Node6 -->
<g id="edge11" class="edge">
<title>Node9&#45;&gt;Node6</title>
<path fill="none" stroke="midnightblue" d="M862.72,-63.45C842.32,-54.09 813.83,-41.02 791.41,-30.74"/>
<polygon fill="midnightblue" stroke="midnightblue" points="792.77,-27.51 782.22,-26.53 789.85,-33.88 792.77,-27.51"/>
</g>
<!-- Node9&#45;&gt;Node10 -->
<g id="edge9" class="edge">
<title>Node9&#45;&gt;Node10</title>
<path fill="none" stroke="midnightblue" d="M889,-63.45C889,-55.85 889,-45.79 889,-36.78"/>
<polygon fill="midnightblue" stroke="midnightblue" points="892.5,-36.53 889,-26.53 885.5,-36.53 892.5,-36.53"/>
</g>
<!-- Node14&#45;&gt;Node3 -->
<g id="edge20" class="edge">
<title>Node14&#45;&gt;Node3</title>
<path fill="none" stroke="midnightblue" d="M768.04,-207.47C748.76,-198.53 721.76,-186.01 697.79,-174.9"/>
<polygon fill="midnightblue" stroke="midnightblue" points="698.97,-171.59 688.42,-170.56 696.02,-177.94 698.97,-171.59"/>
</g>
<!-- Node14&#45;&gt;Node5 -->
<g id="edge28" class="edge">
<title>Node14&#45;&gt;Node5</title>
<path fill="none" stroke="midnightblue" d="M868.73,-210.41C903.44,-203.58 944,-191.68 976,-171 1015,-145.79 1026.43,-133.75 1042,-90 1048.23,-72.49 1043.79,-51.6 1038.46,-36.23"/>
<polygon fill="midnightblue" stroke="midnightblue" points="1041.61,-34.67 1034.76,-26.59 1035.08,-37.18 1041.61,-34.67"/>
</g>
<!-- Node14&#45;&gt;Node6 -->
<g id="edge29" class="edge">
<title>Node14&#45;&gt;Node6</title>
<path fill="none" stroke="midnightblue" d="M795.3,-207.16C796.26,-197.37 797.49,-183.32 798,-171 798.82,-151.02 801.58,-145.68 798,-126 792.05,-93.35 777.07,-57.83 766.7,-35.87"/>
<polygon fill="midnightblue" stroke="midnightblue" points="769.82,-34.27 762.32,-26.78 763.52,-37.31 769.82,-34.27"/>
</g>
<!-- Node14&#45;&gt;Node7 -->
<g id="edge25" class="edge">
<title>Node14&#45;&gt;Node7</title>
<path fill="none" stroke="midnightblue" d="M795.38,-207.26C796.89,-187.33 796.69,-147.88 775,-126 753.46,-104.26 677.78,-91.28 619.46,-84.3"/>
<polygon fill="midnightblue" stroke="midnightblue" points="619.86,-80.82 609.53,-83.14 619.06,-87.77 619.86,-80.82"/>
</g>
<!-- Node14&#45;&gt;Node8 -->
<g id="edge21" class="edge">
<title>Node14&#45;&gt;Node8</title>
<path fill="none" stroke="midnightblue" d="M812.81,-207.31C830,-196.17 855.62,-179.56 874.99,-167"/>
<polygon fill="midnightblue" stroke="midnightblue" points="876.92,-169.93 883.4,-161.55 873.11,-164.06 876.92,-169.93"/>
</g>
<!-- Node14&#45;&gt;Node10 -->
<g id="edge26" class="edge">
<title>Node14&#45;&gt;Node10</title>
<path fill="none" stroke="midnightblue" d="M868.83,-215.62C900.05,-209.84 933.51,-197.32 953,-171 981.56,-132.42 974.36,-105.99 953,-63 946.62,-50.17 935.05,-39.82 923.48,-32.03"/>
<polygon fill="midnightblue" stroke="midnightblue" points="925.06,-28.89 914.72,-26.57 921.35,-34.83 925.06,-28.89"/>
</g>
<!-- Node14&#45;&gt;Node11 -->
<g id="edge24" class="edge">
<title>Node14&#45;&gt;Node11</title>
<path fill="none" stroke="midnightblue" d="M719.33,-209C662.22,-200.4 581.71,-187.07 512,-171 503.66,-169.08 494.87,-166.77 486.37,-164.4"/>
<polygon fill="midnightblue" stroke="midnightblue" points="487.15,-160.98 476.57,-161.6 485.23,-167.71 487.15,-160.98"/>
</g>
<!-- Node14&#45;&gt;Node12 -->
<g id="edge22" class="edge">
<title>Node14&#45;&gt;Node12</title>
<path fill="none" stroke="midnightblue" d="M719.38,-219.91C615.03,-218.87 420.31,-211.04 260,-171 254.27,-169.57 248.34,-167.58 242.66,-165.39"/>
<polygon fill="midnightblue" stroke="midnightblue" points="243.96,-162.14 233.38,-161.58 241.29,-168.62 243.96,-162.14"/>
</g>
<!-- Node14&#45;&gt;Node13 -->
<g id="edge27" class="edge">
<title>Node14&#45;&gt;Node13</title>
<path fill="none" stroke="midnightblue" d="M719.26,-217.21C632.78,-213.15 486.68,-201.94 365,-171 359.14,-169.51 353.08,-167.51 347.23,-165.34"/>
<polygon fill="midnightblue" stroke="midnightblue" points="348.26,-161.98 337.67,-161.56 345.68,-168.49 348.26,-161.98"/>
</g>
<!-- Node15 -->
<g id="node15" class="node">
<title>Node15</title>
<g id="a_node15"><a xlink:title=" ">
<polygon fill="white" stroke="#bfbfbf" points="1114,-126.5 1114,-170.5 1244,-170.5 1244,-126.5 1114,-126.5"/>
<text text-anchor="start" x="1122" y="-153.7" font-family="Source Sans Pro" font-size="16.00">../contrib/stb/stb</text>
<text text-anchor="middle" x="1179" y="-135.7" font-family="Source Sans Pro" font-size="16.00">_image.h</text>
</a>
</g>
</g>
<!-- Node14&#45;&gt;Node15 -->
<g id="edge23" class="edge">
<title>Node14&#45;&gt;Node15</title>
<path fill="none" stroke="midnightblue" d="M868.62,-209.98C930.84,-201.49 1021.64,-187.82 1100,-171 1101.25,-170.73 1102.51,-170.46 1103.78,-170.17"/>
<polygon fill="midnightblue" stroke="midnightblue" points="1104.66,-173.56 1113.61,-167.88 1103.08,-166.74 1104.66,-173.56"/>
</g>
</g>
</svg>
