<?xml version="1.0" encoding="UTF-8" standalone="no"?>
<!DOCTYPE svg PUBLIC "-//W3C//DTD SVG 1.1//EN"
 "http://www.w3.org/Graphics/SVG/1.1/DTD/svg11.dtd">
<!-- Generated by graphviz version 2.43.0 (0)
 -->
<!-- Title: Illumination&#45;Engine/src/GraphicsModule/Image/IENDimensionalResizableImage.hpp Pages: 1 -->
<svg width="338pt" height="152pt"
 viewBox="0.00 0.00 338.00 152.00" xmlns="http://www.w3.org/2000/svg" xmlns:xlink="http://www.w3.org/1999/xlink">
<g id="graph0" class="graph" transform="scale(1 1) rotate(0) translate(4 148)">
<title>Illumination&#45;Engine/src/GraphicsModule/Image/IENDimensionalResizableImage.hpp</title>
<polygon fill="white" stroke="transparent" points="-4,4 -4,-148 334,-148 334,4 -4,4"/>
<!-- Node1 -->
<g id="node1" class="node">
<title>Node1</title>
<g id="a_node1"><a xlink:title=" ">
<polygon fill="#bfbfbf" stroke="black" points="48,-63.5 48,-143.5 289,-143.5 289,-63.5 48,-63.5"/>
<text text-anchor="start" x="56" y="-126.7" font-family="Source Sans Pro" font-size="16.00">Illumination&#45;Engine</text>
<text text-anchor="start" x="56" y="-108.7" font-family="Source Sans Pro" font-size="16.00">/src/GraphicsModule</text>
<text text-anchor="start" x="56" y="-90.7" font-family="Source Sans Pro" font-size="16.00">/Image/IENDimensionalResizable</text>
<text text-anchor="middle" x="168.5" y="-72.7" font-family="Source Sans Pro" font-size="16.00">Image.hpp</text>
</a>
</g>
</g>
<!-- Node2 -->
<g id="node2" class="node">
<title>Node2</title>
<g id="a_node2"><a xlink:title=" ">
<polygon fill="white" stroke="#bfbfbf" points="0,-0.5 0,-26.5 63,-26.5 63,-0.5 0,-0.5"/>
<text text-anchor="middle" x="31.5" y="-9.7" font-family="Source Sans Pro" font-size="16.00">cstdint</text>
</a>
</g>
</g>
<!-- Node1&#45;&gt;Node2 -->
<g id="edge1" class="edge">
<title>Node1&#45;&gt;Node2</title>
<path fill="none" stroke="midnightblue" d="M107.61,-63.39C90.61,-52.47 72.98,-41.14 58.97,-32.14"/>
<polygon fill="midnightblue" stroke="midnightblue" points="60.64,-29.06 50.33,-26.6 56.85,-34.94 60.64,-29.06"/>
</g>
<!-- Node3 -->
<g id="node3" class="node">
<title>Node3</title>
<g id="a_node3"><a xlink:title=" ">
<polygon fill="white" stroke="#bfbfbf" points="81.5,-0.5 81.5,-26.5 161.5,-26.5 161.5,-0.5 81.5,-0.5"/>
<text text-anchor="middle" x="121.5" y="-9.7" font-family="Source Sans Pro" font-size="16.00">stdexcept</text>
</a>
</g>
</g>
<!-- Node1&#45;&gt;Node3 -->
<g id="edge2" class="edge">
<title>Node1&#45;&gt;Node3</title>
<path fill="none" stroke="midnightblue" d="M147.61,-63.39C142.54,-53.89 137.3,-44.08 132.86,-35.76"/>
<polygon fill="midnightblue" stroke="midnightblue" points="135.86,-33.97 128.07,-26.79 129.69,-37.26 135.86,-33.97"/>
</g>
<!-- Node4 -->
<g id="node4" class="node">
<title>Node4</title>
<g id="a_node4"><a xlink:title=" ">
<polygon fill="white" stroke="#bfbfbf" points="180,-0.5 180,-26.5 253,-26.5 253,-0.5 180,-0.5"/>
<text text-anchor="middle" x="216.5" y="-9.7" font-family="Source Sans Pro" font-size="16.00">typeinfo</text>
</a>
</g>
</g>
<!-- Node1&#45;&gt;Node4 -->
<g id="edge3" class="edge">
<title>Node1&#45;&gt;Node4</title>
<path fill="none" stroke="midnightblue" d="M189.83,-63.39C195.02,-53.89 200.37,-44.08 204.9,-35.76"/>
<polygon fill="midnightblue" stroke="midnightblue" points="208.08,-37.25 209.79,-26.79 201.93,-33.9 208.08,-37.25"/>
</g>
<!-- Node5 -->
<g id="node5" class="node">
<title>Node5</title>
<g id="a_node5"><a xlink:title=" ">
<polygon fill="white" stroke="#bfbfbf" points="271,-0.5 271,-26.5 330,-26.5 330,-0.5 271,-0.5"/>
<text text-anchor="middle" x="300.5" y="-9.7" font-family="Source Sans Pro" font-size="16.00">vector</text>
</a>
</g>
</g>
<!-- Node1&#45;&gt;Node5 -->
<g id="edge4" class="edge">
<title>Node1&#45;&gt;Node5</title>
<path fill="none" stroke="midnightblue" d="M227.17,-63.39C243.55,-52.47 260.54,-41.14 274.03,-32.14"/>
<polygon fill="midnightblue" stroke="midnightblue" points="275.98,-35.05 282.36,-26.6 272.09,-29.23 275.98,-35.05"/>
</g>
</g>
</svg>
