<?xml version="1.0" encoding="UTF-8" standalone="no"?>
<!DOCTYPE svg PUBLIC "-//W3C//DTD SVG 1.1//EN"
 "http://www.w3.org/Graphics/SVG/1.1/DTD/svg11.dtd">
<!-- Generated by graphviz version 2.43.0 (0)
 -->
<!-- Title: Illumination&#45;Engine/src/GraphicsModule/RenderPass/IEFramebuffer.hpp Pages: 1 -->
<svg width="1009pt" height="359pt"
 viewBox="0.00 0.00 1008.84 359.00" xmlns="http://www.w3.org/2000/svg" xmlns:xlink="http://www.w3.org/1999/xlink">
<g id="graph0" class="graph" transform="scale(1 1) rotate(0) translate(4 355)">
<title>Illumination&#45;Engine/src/GraphicsModule/RenderPass/IEFramebuffer.hpp</title>
<polygon fill="white" stroke="transparent" points="-4,4 -4,-355 1004.84,-355 1004.84,4 -4,4"/>
<!-- Node1 -->
<g id="node1" class="node">
<title>Node1</title>
<g id="a_node1"><a xlink:title=" ">
<polygon fill="#bfbfbf" stroke="black" points="706.02,-288.5 706.02,-350.5 938.02,-350.5 938.02,-288.5 706.02,-288.5"/>
<text text-anchor="start" x="714.02" y="-333.7" font-family="Source Sans Pro" font-size="16.00">Illumination&#45;Engine</text>
<text text-anchor="start" x="714.02" y="-315.7" font-family="Source Sans Pro" font-size="16.00">/src/GraphicsModule</text>
<text text-anchor="middle" x="822.02" y="-297.7" font-family="Source Sans Pro" font-size="16.00">/RenderPass/IEFramebuffer.hpp</text>
</a>
</g>
</g>
<!-- Node2 -->
<g id="node2" class="node">
<title>Node2</title>
<g id="a_node2"><a xlink:href="_i_e_image_8hpp.html" target="_top" xlink:title=" ">
<polygon fill="white" stroke="black" points="529.02,-207.5 529.02,-251.5 703.02,-251.5 703.02,-207.5 529.02,-207.5"/>
<text text-anchor="start" x="537.02" y="-234.7" font-family="Source Sans Pro" font-size="16.00">GraphicsModule/Image</text>
<text text-anchor="middle" x="616.02" y="-216.7" font-family="Source Sans Pro" font-size="16.00">/IEImage.hpp</text>
</a>
</g>
</g>
<!-- Node1&#45;&gt;Node2 -->
<g id="edge1" class="edge">
<title>Node1&#45;&gt;Node2</title>
<path fill="none" stroke="midnightblue" d="M751.71,-288.46C726.6,-277.74 698.6,-265.78 674.59,-255.52"/>
<polygon fill="midnightblue" stroke="midnightblue" points="675.83,-252.24 665.26,-251.53 673.08,-258.68 675.83,-252.24"/>
</g>
<!-- Node4 -->
<g id="node4" class="node">
<title>Node4</title>
<g id="a_node4"><a xlink:title=" ">
<polygon fill="white" stroke="#bfbfbf" points="740.52,-0.5 740.52,-26.5 799.52,-26.5 799.52,-0.5 740.52,-0.5"/>
<text text-anchor="middle" x="770.02" y="-9.7" font-family="Source Sans Pro" font-size="16.00">vector</text>
</a>
</g>
</g>
<!-- Node1&#45;&gt;Node4 -->
<g id="edge23" class="edge">
<title>Node1&#45;&gt;Node4</title>
<path fill="none" stroke="midnightblue" d="M910.11,-288.35C928.39,-278.94 946.25,-266.97 960.02,-252 999.07,-209.55 1010.27,-180.36 991.02,-126 979,-92.04 970.08,-82.87 940.02,-63 900.29,-36.74 846.26,-24.49 809.87,-18.92"/>
<polygon fill="midnightblue" stroke="midnightblue" points="810.03,-15.41 799.64,-17.46 809.04,-22.34 810.03,-15.41"/>
</g>
<!-- Node5 -->
<g id="node5" class="node">
<title>Node5</title>
<g id="a_node5"><a xlink:title=" ">
<polygon fill="white" stroke="#bfbfbf" points="623.52,-63.5 623.52,-89.5 748.52,-89.5 748.52,-63.5 623.52,-63.5"/>
<text text-anchor="middle" x="686.02" y="-72.7" font-family="Source Sans Pro" font-size="16.00">vulkan/vulkan.h</text>
</a>
</g>
</g>
<!-- Node1&#45;&gt;Node5 -->
<g id="edge21" class="edge">
<title>Node1&#45;&gt;Node5</title>
<path fill="none" stroke="midnightblue" d="M873.99,-288.37C933.81,-249.94 1018.12,-181.79 971.02,-126 944.39,-94.45 834.29,-83.42 759,-79.57"/>
<polygon fill="midnightblue" stroke="midnightblue" points="758.78,-76.05 748.62,-79.07 758.44,-83.05 758.78,-76.05"/>
</g>
<!-- Node6 -->
<g id="node6" class="node">
<title>Node6</title>
<g id="a_node6"><a xlink:title=" ">
<polygon fill="white" stroke="#bfbfbf" points="141.52,-0.5 141.52,-26.5 196.52,-26.5 196.52,-0.5 141.52,-0.5"/>
<text text-anchor="middle" x="169.02" y="-9.7" font-family="Source Sans Pro" font-size="16.00">string</text>
</a>
</g>
</g>
<!-- Node1&#45;&gt;Node6 -->
<g id="edge22" class="edge">
<title>Node1&#45;&gt;Node6</title>
<path fill="none" stroke="midnightblue" d="M706.02,-314.95C503.59,-306.05 99.08,-275.33 12.02,-171 -34.43,-115.32 72.55,-56.82 132.27,-29.82"/>
<polygon fill="midnightblue" stroke="midnightblue" points="133.69,-33.02 141.41,-25.76 130.85,-26.62 133.69,-33.02"/>
</g>
<!-- Node3 -->
<g id="node3" class="node">
<title>Node3</title>
<g id="a_node3"><a xlink:href="_i_e_dependency_8hpp.html" target="_top" xlink:title=" ">
<polygon fill="white" stroke="black" points="311.52,-126.5 311.52,-170.5 556.52,-170.5 556.52,-126.5 311.52,-126.5"/>
<text text-anchor="start" x="319.52" y="-153.7" font-family="Source Sans Pro" font-size="16.00">GraphicsModule/CommandBuffer</text>
<text text-anchor="middle" x="434.02" y="-135.7" font-family="Source Sans Pro" font-size="16.00">/IEDependency.hpp</text>
</a>
</g>
</g>
<!-- Node2&#45;&gt;Node3 -->
<g id="edge2" class="edge">
<title>Node2&#45;&gt;Node3</title>
<path fill="none" stroke="midnightblue" d="M567.25,-207.33C544.11,-197.28 516.28,-185.2 492.05,-174.69"/>
<polygon fill="midnightblue" stroke="midnightblue" points="493.18,-171.36 482.62,-170.59 490.4,-177.78 493.18,-171.36"/>
</g>
<!-- Node2&#45;&gt;Node4 -->
<g id="edge19" class="edge">
<title>Node2&#45;&gt;Node4</title>
<path fill="none" stroke="midnightblue" d="M703.08,-226.86C796.88,-223.04 937.29,-210.64 971.02,-171 1026.67,-105.62 882.35,-49.41 809.33,-26.05"/>
<polygon fill="midnightblue" stroke="midnightblue" points="810.12,-22.63 799.53,-22.98 808.02,-29.31 810.12,-22.63"/>
</g>
<!-- Node2&#45;&gt;Node5 -->
<g id="edge15" class="edge">
<title>Node2&#45;&gt;Node5</title>
<path fill="none" stroke="midnightblue" d="M639.68,-207.35C649.56,-197.27 660.29,-184.49 667.02,-171 678.33,-148.35 682.91,-119.41 684.76,-99.77"/>
<polygon fill="midnightblue" stroke="midnightblue" points="688.27,-99.9 685.56,-89.66 681.29,-99.36 688.27,-99.9"/>
</g>
<!-- Node2&#45;&gt;Node6 -->
<g id="edge18" class="edge">
<title>Node2&#45;&gt;Node6</title>
<path fill="none" stroke="midnightblue" d="M528.85,-223.58C403.8,-215.62 185.84,-198.03 162.02,-171 129.09,-133.63 146.87,-69.61 159.65,-36.21"/>
<polygon fill="midnightblue" stroke="midnightblue" points="163.07,-37.1 163.56,-26.52 156.57,-34.49 163.07,-37.1"/>
</g>
<!-- Node8 -->
<g id="node8" class="node">
<title>Node8</title>
<g id="a_node8"><a xlink:href="_i_e_a_p_i_8hpp.html" target="_top" xlink:title=" ">
<polygon fill="white" stroke="black" points="171.52,-135.5 171.52,-161.5 254.52,-161.5 254.52,-135.5 171.52,-135.5"/>
<text text-anchor="middle" x="213.02" y="-144.7" font-family="Source Sans Pro" font-size="16.00">IEAPI.hpp</text>
</a>
</g>
</g>
<!-- Node2&#45;&gt;Node8 -->
<g id="edge7" class="edge">
<title>Node2&#45;&gt;Node8</title>
<path fill="none" stroke="midnightblue" d="M528.7,-219C457.9,-210.11 355.94,-194.62 269.02,-171 262.96,-169.35 256.64,-167.28 250.52,-165.09"/>
<polygon fill="midnightblue" stroke="midnightblue" points="251.74,-161.8 241.14,-161.57 249.28,-168.36 251.74,-161.8"/>
</g>
<!-- Node10 -->
<g id="node10" class="node">
<title>Node10</title>
<g id="a_node10"><a xlink:title=" ">
<polygon fill="white" stroke="#bfbfbf" points="299.52,-0.5 299.52,-26.5 362.52,-26.5 362.52,-0.5 299.52,-0.5"/>
<text text-anchor="middle" x="331.02" y="-9.7" font-family="Source Sans Pro" font-size="16.00">cstdint</text>
</a>
</g>
</g>
<!-- Node2&#45;&gt;Node10 -->
<g id="edge17" class="edge">
<title>Node2&#45;&gt;Node10</title>
<path fill="none" stroke="midnightblue" d="M528.65,-224.67C445.97,-219 330.41,-205.06 302.02,-171 289.22,-155.64 292.74,-143.72 302.02,-126 315.07,-101.1 340.98,-114.9 354.02,-90 363.14,-72.61 354.85,-51.04 345.78,-35.41"/>
<polygon fill="midnightblue" stroke="midnightblue" points="348.48,-33.13 340.18,-26.54 342.56,-36.87 348.48,-33.13"/>
</g>
<!-- Node11 -->
<g id="node11" class="node">
<title>Node11</title>
<g id="a_node11"><a xlink:title=" ">
<polygon fill="white" stroke="#bfbfbf" points="574.52,-135.5 574.52,-161.5 657.52,-161.5 657.52,-135.5 574.52,-135.5"/>
<text text-anchor="middle" x="616.02" y="-144.7" font-family="Source Sans Pro" font-size="16.00">GL/glew.h</text>
</a>
</g>
</g>
<!-- Node2&#45;&gt;Node11 -->
<g id="edge13" class="edge">
<title>Node2&#45;&gt;Node11</title>
<path fill="none" stroke="midnightblue" d="M616.02,-207.33C616.02,-196.36 616.02,-182.97 616.02,-171.83"/>
<polygon fill="midnightblue" stroke="midnightblue" points="619.53,-171.63 616.02,-161.63 612.53,-171.63 619.53,-171.63"/>
</g>
<!-- Node12 -->
<g id="node12" class="node">
<title>Node12</title>
<g id="a_node12"><a xlink:title=" ">
<polygon fill="white" stroke="#bfbfbf" points="714.52,-135.5 714.52,-161.5 843.52,-161.5 843.52,-135.5 714.52,-135.5"/>
<text text-anchor="middle" x="779.02" y="-144.7" font-family="Source Sans Pro" font-size="16.00">vk_mem_alloc.h</text>
</a>
</g>
</g>
<!-- Node2&#45;&gt;Node12 -->
<g id="edge14" class="edge">
<title>Node2&#45;&gt;Node12</title>
<path fill="none" stroke="midnightblue" d="M659.71,-207.33C686.46,-194.36 720.21,-178.01 744.98,-166"/>
<polygon fill="midnightblue" stroke="midnightblue" points="746.53,-169.14 754,-161.63 743.48,-162.84 746.53,-169.14"/>
</g>
<!-- Node13 -->
<g id="node13" class="node">
<title>Node13</title>
<g id="a_node13"><a xlink:title=" ">
<polygon fill="white" stroke="#bfbfbf" points="862.02,-135.5 862.02,-161.5 962.02,-161.5 962.02,-135.5 862.02,-135.5"/>
<text text-anchor="middle" x="912.02" y="-144.7" font-family="Source Sans Pro" font-size="16.00">stb_image.h</text>
</a>
</g>
</g>
<!-- Node2&#45;&gt;Node13 -->
<g id="edge16" class="edge">
<title>Node2&#45;&gt;Node13</title>
<path fill="none" stroke="midnightblue" d="M703.05,-209.83C748.13,-199.55 803.89,-185.86 853.02,-171 859.05,-169.18 865.36,-167.08 871.52,-164.93"/>
<polygon fill="midnightblue" stroke="midnightblue" points="872.77,-168.2 881.01,-161.54 870.42,-161.61 872.77,-168.2"/>
</g>
<!-- Node14 -->
<g id="node14" class="node">
<title>Node14</title>
<g id="a_node14"><a xlink:title=" ">
<polygon fill="white" stroke="#bfbfbf" points="21.02,-135.5 21.02,-161.5 107.02,-161.5 107.02,-135.5 21.02,-135.5"/>
<text text-anchor="middle" x="64.02" y="-144.7" font-family="Source Sans Pro" font-size="16.00">functional</text>
</a>
</g>
</g>
<!-- Node2&#45;&gt;Node14 -->
<g id="edge20" class="edge">
<title>Node2&#45;&gt;Node14</title>
<path fill="none" stroke="midnightblue" d="M528.6,-224.82C428.79,-219.13 261.22,-205.04 121.02,-171 114.62,-169.44 107.95,-167.37 101.53,-165.13"/>
<polygon fill="midnightblue" stroke="midnightblue" points="102.31,-161.68 91.72,-161.5 99.89,-168.25 102.31,-161.68"/>
</g>
<!-- Node3&#45;&gt;Node4 -->
<g id="edge3" class="edge">
<title>Node3&#45;&gt;Node4</title>
<path fill="none" stroke="midnightblue" d="M475.04,-126.43C511.29,-108.28 565.88,-82.06 615.02,-63 653.69,-48 699.09,-34.23 730.72,-25.22"/>
<polygon fill="midnightblue" stroke="midnightblue" points="731.81,-28.55 740.48,-22.47 729.91,-21.82 731.81,-28.55"/>
</g>
<!-- Node3&#45;&gt;Node5 -->
<g id="edge4" class="edge">
<title>Node3&#45;&gt;Node5</title>
<path fill="none" stroke="midnightblue" d="M509.63,-126.5C549.39,-115.45 597.16,-102.19 632.95,-92.24"/>
<polygon fill="midnightblue" stroke="midnightblue" points="634.02,-95.58 642.71,-89.53 632.14,-88.84 634.02,-95.58"/>
</g>
<!-- Node3&#45;&gt;Node6 -->
<g id="edge5" class="edge">
<title>Node3&#45;&gt;Node6</title>
<path fill="none" stroke="midnightblue" d="M311.32,-127.77C281.72,-119.3 251.36,-107.22 226.02,-90 205.81,-76.26 189.84,-52.99 180.01,-35.9"/>
<polygon fill="midnightblue" stroke="midnightblue" points="182.82,-33.76 174.94,-26.68 176.69,-37.13 182.82,-33.76"/>
</g>
<!-- Node7 -->
<g id="node7" class="node">
<title>Node7</title>
<g id="a_node7"><a xlink:title=" ">
<polygon fill="white" stroke="#bfbfbf" points="401.02,-63.5 401.02,-89.5 475.02,-89.5 475.02,-63.5 401.02,-63.5"/>
<text text-anchor="middle" x="438.02" y="-72.7" font-family="Source Sans Pro" font-size="16.00">memory</text>
</a>
</g>
</g>
<!-- Node3&#45;&gt;Node7 -->
<g id="edge6" class="edge">
<title>Node3&#45;&gt;Node7</title>
<path fill="none" stroke="midnightblue" d="M435.23,-126.5C435.71,-118 436.27,-108.19 436.76,-99.59"/>
<polygon fill="midnightblue" stroke="midnightblue" points="440.26,-99.71 437.34,-89.53 433.27,-99.31 440.26,-99.71"/>
</g>
<!-- Node8&#45;&gt;Node6 -->
<g id="edge12" class="edge">
<title>Node8&#45;&gt;Node6</title>
<path fill="none" stroke="midnightblue" d="M208.64,-135.19C204.52,-123.57 198.23,-105.64 193.02,-90 187.05,-72.04 180.56,-51.58 175.84,-36.49"/>
<polygon fill="midnightblue" stroke="midnightblue" points="179.07,-35.07 172.75,-26.56 172.38,-37.15 179.07,-35.07"/>
</g>
<!-- Node9 -->
<g id="node9" class="node">
<title>Node9</title>
<g id="a_node9"><a xlink:href="_i_e_version_8hpp.html" target="_top" xlink:title=" ">
<polygon fill="white" stroke="black" points="235.02,-63.5 235.02,-89.5 345.02,-89.5 345.02,-63.5 235.02,-63.5"/>
<text text-anchor="middle" x="290.02" y="-72.7" font-family="Source Sans Pro" font-size="16.00">IEVersion.hpp</text>
</a>
</g>
</g>
<!-- Node8&#45;&gt;Node9 -->
<g id="edge8" class="edge">
<title>Node8&#45;&gt;Node9</title>
<path fill="none" stroke="midnightblue" d="M226.44,-135.31C238.25,-124.57 255.65,-108.75 269.26,-96.38"/>
<polygon fill="midnightblue" stroke="midnightblue" points="271.72,-98.87 276.77,-89.55 267.01,-93.69 271.72,-98.87"/>
</g>
<!-- Node9&#45;&gt;Node4 -->
<g id="edge11" class="edge">
<title>Node9&#45;&gt;Node4</title>
<path fill="none" stroke="midnightblue" d="M345.09,-68.5C442.95,-56.07 644.92,-30.4 730.41,-19.53"/>
<polygon fill="midnightblue" stroke="midnightblue" points="731.01,-22.99 740.49,-18.25 730.12,-16.04 731.01,-22.99"/>
</g>
<!-- Node9&#45;&gt;Node6 -->
<g id="edge10" class="edge">
<title>Node9&#45;&gt;Node6</title>
<path fill="none" stroke="midnightblue" d="M266.12,-63.45C247.81,-54.22 222.33,-41.37 202.07,-31.16"/>
<polygon fill="midnightblue" stroke="midnightblue" points="203.39,-27.9 192.88,-26.53 200.23,-34.15 203.39,-27.9"/>
</g>
<!-- Node9&#45;&gt;Node10 -->
<g id="edge9" class="edge">
<title>Node9&#45;&gt;Node10</title>
<path fill="none" stroke="midnightblue" d="M298.13,-63.45C303.57,-55.34 310.89,-44.46 317.24,-35.01"/>
<polygon fill="midnightblue" stroke="midnightblue" points="320.27,-36.78 322.94,-26.53 314.46,-32.87 320.27,-36.78"/>
</g>
</g>
</svg>
