<?xml version="1.0" encoding="UTF-8" standalone="no"?>
<!DOCTYPE svg PUBLIC "-//W3C//DTD SVG 1.1//EN"
 "http://www.w3.org/Graphics/SVG/1.1/DTD/svg11.dtd">
<!-- Generated by graphviz version 2.43.0 (0)
 -->
<!-- Title: Illumination&#45;Engine/src/GraphicsModule/CommandBuffer/IEDependent.hpp Pages: 1 -->
<svg width="3414pt" height="566pt"
 viewBox="0.00 0.00 3414.00 566.00" xmlns="http://www.w3.org/2000/svg" xmlns:xlink="http://www.w3.org/1999/xlink">
<g id="graph0" class="graph" transform="scale(1 1) rotate(0) translate(4 562)">
<title>Illumination&#45;Engine/src/GraphicsModule/CommandBuffer/IEDependent.hpp</title>
<polygon fill="white" stroke="transparent" points="-4,4 -4,-562 3410,-562 3410,4 -4,4"/>
<!-- Node1 -->
<g id="node1" class="node">
<title>Node1</title>
<g id="a_node1"><a xlink:title=" ">
<polygon fill="#bfbfbf" stroke="black" points="1916,-495.5 1916,-557.5 2175,-557.5 2175,-495.5 1916,-495.5"/>
<text text-anchor="start" x="1924" y="-540.7" font-family="Source Sans Pro" font-size="16.00">Illumination&#45;Engine</text>
<text text-anchor="start" x="1924" y="-522.7" font-family="Source Sans Pro" font-size="16.00">/src/GraphicsModule</text>
<text text-anchor="middle" x="2045.5" y="-504.7" font-family="Source Sans Pro" font-size="16.00">/CommandBuffer/IEDependent.hpp</text>
</a>
</g>
</g>
<!-- Node2 -->
<g id="node2" class="node">
<title>Node2</title>
<g id="a_node2"><a xlink:href="_i_e_command_buffer_8hpp.html" target="_top" xlink:title=" ">
<polygon fill="white" stroke="black" points="1602,-396.5 1602,-458.5 1897,-458.5 1897,-396.5 1602,-396.5"/>
<text text-anchor="start" x="1610" y="-441.7" font-family="Source Sans Pro" font-size="16.00">Illumination&#45;Engine</text>
<text text-anchor="start" x="1610" y="-423.7" font-family="Source Sans Pro" font-size="16.00">/src/GraphicsModule</text>
<text text-anchor="middle" x="1749.5" y="-405.7" font-family="Source Sans Pro" font-size="16.00">/CommandBuffer/IECommandBuffer.hpp</text>
</a>
</g>
</g>
<!-- Node1&#45;&gt;Node2 -->
<g id="edge1" class="edge">
<title>Node1&#45;&gt;Node2</title>
<path fill="none" stroke="midnightblue" d="M1944.1,-492.27C1910.72,-481.33 1873.82,-469.24 1841.21,-458.55"/>
<polygon fill="midnightblue" stroke="midnightblue" points="1943.28,-495.68 1953.87,-495.47 1945.46,-489.03 1943.28,-495.68"/>
</g>
<!-- Node24 -->
<g id="node24" class="node">
<title>Node24</title>
<g id="a_node24"><a xlink:href="_i_e_dependency_8cpp.html" target="_top" xlink:title=" ">
<polygon fill="white" stroke="black" points="2144.5,-189.5 2144.5,-251.5 2410.5,-251.5 2410.5,-189.5 2144.5,-189.5"/>
<text text-anchor="start" x="2152.5" y="-234.7" font-family="Source Sans Pro" font-size="16.00">Illumination&#45;Engine</text>
<text text-anchor="start" x="2152.5" y="-216.7" font-family="Source Sans Pro" font-size="16.00">/src/GraphicsModule</text>
<text text-anchor="middle" x="2277.5" y="-198.7" font-family="Source Sans Pro" font-size="16.00">/CommandBuffer/IEDependency.cpp</text>
</a>
</g>
</g>
<!-- Node1&#45;&gt;Node24 -->
<g id="edge29" class="edge">
<title>Node1&#45;&gt;Node24</title>
<path fill="none" stroke="midnightblue" d="M2044.06,-485.03C2044.81,-458.19 2049.18,-423.06 2064.5,-396 2100.88,-331.72 2170.93,-281.47 2220.76,-251.73"/>
<polygon fill="midnightblue" stroke="midnightblue" points="2040.56,-485.2 2043.94,-495.25 2047.56,-485.29 2040.56,-485.2"/>
</g>
<!-- Node25 -->
<g id="node25" class="node">
<title>Node25</title>
<g id="a_node25"><a xlink:href="_i_e_dependent_8cpp.html" target="_top" xlink:title=" ">
<polygon fill="white" stroke="black" points="2074,-396.5 2074,-458.5 2331,-458.5 2331,-396.5 2074,-396.5"/>
<text text-anchor="start" x="2082" y="-441.7" font-family="Source Sans Pro" font-size="16.00">Illumination&#45;Engine</text>
<text text-anchor="start" x="2082" y="-423.7" font-family="Source Sans Pro" font-size="16.00">/src/GraphicsModule</text>
<text text-anchor="middle" x="2202.5" y="-405.7" font-family="Source Sans Pro" font-size="16.00">/CommandBuffer/IEDependent.cpp</text>
</a>
</g>
</g>
<!-- Node1&#45;&gt;Node25 -->
<g id="edge30" class="edge">
<title>Node1&#45;&gt;Node25</title>
<path fill="none" stroke="midnightblue" d="M2102.89,-490.04C2119.57,-479.74 2137.62,-468.58 2153.72,-458.64"/>
<polygon fill="midnightblue" stroke="midnightblue" points="2100.98,-487.11 2094.32,-495.34 2104.66,-493.06 2100.98,-487.11"/>
</g>
<!-- Node3 -->
<g id="node3" class="node">
<title>Node3</title>
<g id="a_node3"><a xlink:href="_i_e_command_buffer_8cpp.html" target="_top" xlink:title=" ">
<polygon fill="white" stroke="black" points="0,-81.5 0,-143.5 293,-143.5 293,-81.5 0,-81.5"/>
<text text-anchor="start" x="8" y="-126.7" font-family="Source Sans Pro" font-size="16.00">Illumination&#45;Engine</text>
<text text-anchor="start" x="8" y="-108.7" font-family="Source Sans Pro" font-size="16.00">/src/GraphicsModule</text>
<text text-anchor="middle" x="146.5" y="-90.7" font-family="Source Sans Pro" font-size="16.00">/CommandBuffer/IECommandBuffer.cpp</text>
</a>
</g>
</g>
<!-- Node2&#45;&gt;Node3 -->
<g id="edge2" class="edge">
<title>Node2&#45;&gt;Node3</title>
<path fill="none" stroke="midnightblue" d="M1591.77,-399.73C1408.64,-368.26 1097.67,-313.63 831.5,-261 639.07,-222.95 417.28,-174.31 279.46,-143.52"/>
<polygon fill="midnightblue" stroke="midnightblue" points="1591.3,-403.2 1601.75,-401.44 1592.48,-396.3 1591.3,-403.2"/>
</g>
<!-- Node4 -->
<g id="node4" class="node">
<title>Node4</title>
<g id="a_node4"><a xlink:href="_i_e_command_pool_8hpp.html" target="_top" xlink:title=" ">
<polygon fill="white" stroke="black" points="1409,-297.5 1409,-359.5 1694,-359.5 1694,-297.5 1409,-297.5"/>
<text text-anchor="start" x="1417" y="-342.7" font-family="Source Sans Pro" font-size="16.00">Illumination&#45;Engine</text>
<text text-anchor="start" x="1417" y="-324.7" font-family="Source Sans Pro" font-size="16.00">/src/GraphicsModule</text>
<text text-anchor="middle" x="1551.5" y="-306.7" font-family="Source Sans Pro" font-size="16.00">/CommandBuffer/IECommandPool.hpp</text>
</a>
</g>
</g>
<!-- Node2&#45;&gt;Node4 -->
<g id="edge3" class="edge">
<title>Node2&#45;&gt;Node4</title>
<path fill="none" stroke="midnightblue" d="M1679.07,-392C1657.44,-381.4 1633.82,-369.83 1612.84,-359.55"/>
<polygon fill="midnightblue" stroke="midnightblue" points="1677.69,-395.22 1688.21,-396.47 1680.77,-388.93 1677.69,-395.22"/>
</g>
<!-- Node22 -->
<g id="node22" class="node">
<title>Node22</title>
<g id="a_node22"><a xlink:href="_i_e_render_pass_8hpp.html" target="_top" xlink:title=" ">
<polygon fill="white" stroke="black" points="1712.5,-297.5 1712.5,-359.5 1940.5,-359.5 1940.5,-297.5 1712.5,-297.5"/>
<text text-anchor="start" x="1720.5" y="-342.7" font-family="Source Sans Pro" font-size="16.00">Illumination&#45;Engine</text>
<text text-anchor="start" x="1720.5" y="-324.7" font-family="Source Sans Pro" font-size="16.00">/src/GraphicsModule</text>
<text text-anchor="middle" x="1826.5" y="-306.7" font-family="Source Sans Pro" font-size="16.00">/RenderPass/IERenderPass.hpp</text>
</a>
</g>
</g>
<!-- Node2&#45;&gt;Node22 -->
<g id="edge23" class="edge">
<title>Node2&#45;&gt;Node22</title>
<path fill="none" stroke="midnightblue" d="M1779.69,-388.47C1787.28,-378.9 1795.33,-368.76 1802.57,-359.64"/>
<polygon fill="midnightblue" stroke="midnightblue" points="1776.92,-386.33 1773.44,-396.34 1782.4,-390.68 1776.92,-386.33"/>
</g>
<!-- Node5 -->
<g id="node5" class="node">
<title>Node5</title>
<g id="a_node5"><a xlink:href="_i_e_command_pool_8cpp.html" target="_top" xlink:title=" ">
<polygon fill="white" stroke="black" points="311.5,-81.5 311.5,-143.5 595.5,-143.5 595.5,-81.5 311.5,-81.5"/>
<text text-anchor="start" x="319.5" y="-126.7" font-family="Source Sans Pro" font-size="16.00">Illumination&#45;Engine</text>
<text text-anchor="start" x="319.5" y="-108.7" font-family="Source Sans Pro" font-size="16.00">/src/GraphicsModule</text>
<text text-anchor="middle" x="453.5" y="-90.7" font-family="Source Sans Pro" font-size="16.00">/CommandBuffer/IECommandPool.cpp</text>
</a>
</g>
</g>
<!-- Node4&#45;&gt;Node5 -->
<g id="edge4" class="edge">
<title>Node4&#45;&gt;Node5</title>
<path fill="none" stroke="midnightblue" d="M1404.28,-295.33C1259.02,-264.06 1030.46,-216.14 831.5,-180 730.99,-161.75 705.03,-162.12 604.5,-144 601.6,-143.48 598.68,-142.95 595.73,-142.4"/>
<polygon fill="midnightblue" stroke="midnightblue" points="1403.65,-298.77 1414.16,-297.46 1405.12,-291.93 1403.65,-298.77"/>
</g>
<!-- Node6 -->
<g id="node6" class="node">
<title>Node6</title>
<g id="a_node6"><a xlink:href="_i_e_render_engine_8hpp.html" target="_top" xlink:title=" ">
<polygon fill="white" stroke="black" points="1590,-189.5 1590,-251.5 1751,-251.5 1751,-189.5 1590,-189.5"/>
<text text-anchor="start" x="1598" y="-234.7" font-family="Source Sans Pro" font-size="16.00">Illumination&#45;Engine</text>
<text text-anchor="start" x="1598" y="-216.7" font-family="Source Sans Pro" font-size="16.00">/src/GraphicsModule</text>
<text text-anchor="middle" x="1670.5" y="-198.7" font-family="Source Sans Pro" font-size="16.00">/IERenderEngine.hpp</text>
</a>
</g>
</g>
<!-- Node4&#45;&gt;Node6 -->
<g id="edge5" class="edge">
<title>Node4&#45;&gt;Node6</title>
<path fill="none" stroke="midnightblue" d="M1593.02,-290.51C1607.28,-277.81 1623.06,-263.76 1636.63,-251.67"/>
<polygon fill="midnightblue" stroke="midnightblue" points="1590.42,-288.14 1585.28,-297.41 1595.08,-293.37 1590.42,-288.14"/>
</g>
<!-- Node6&#45;&gt;Node3 -->
<g id="edge7" class="edge">
<title>Node6&#45;&gt;Node3</title>
<path fill="none" stroke="midnightblue" d="M1579.28,-215.2C1293.7,-201.63 428.33,-159.7 302.5,-144 299.49,-143.62 296.45,-143.22 293.38,-142.8"/>
<polygon fill="midnightblue" stroke="midnightblue" points="1579.45,-218.71 1589.6,-215.69 1579.78,-211.72 1579.45,-218.71"/>
</g>
<!-- Node6&#45;&gt;Node5 -->
<g id="edge8" class="edge">
<title>Node6&#45;&gt;Node5</title>
<path fill="none" stroke="midnightblue" d="M1579.9,-210.84C1488.5,-202.28 1343.29,-189.18 1217.5,-180 945.31,-160.14 875.15,-179.1 604.5,-144 601.58,-143.62 598.64,-143.22 595.67,-142.8"/>
<polygon fill="midnightblue" stroke="midnightblue" points="1579.67,-214.33 1589.95,-211.78 1580.32,-207.36 1579.67,-214.33"/>
</g>
<!-- Node7 -->
<g id="node7" class="node">
<title>Node7</title>
<g id="a_node7"><a xlink:href="_i_e_buffer_8cpp.html" target="_top" xlink:title=" ">
<polygon fill="white" stroke="black" points="614,-81.5 614,-143.5 771,-143.5 771,-81.5 614,-81.5"/>
<text text-anchor="start" x="622" y="-126.7" font-family="Source Sans Pro" font-size="16.00">Illumination&#45;Engine</text>
<text text-anchor="start" x="622" y="-108.7" font-family="Source Sans Pro" font-size="16.00">/src/GraphicsModule</text>
<text text-anchor="middle" x="692.5" y="-90.7" font-family="Source Sans Pro" font-size="16.00">/Buffer/IEBuffer.cpp</text>
</a>
</g>
</g>
<!-- Node6&#45;&gt;Node7 -->
<g id="edge6" class="edge">
<title>Node6&#45;&gt;Node7</title>
<path fill="none" stroke="midnightblue" d="M1579.86,-211.46C1488.41,-203.39 1343.17,-190.64 1217.5,-180 1022.87,-163.52 970.55,-184.64 779.5,-144 776.84,-143.43 774.15,-142.81 771.44,-142.13"/>
<polygon fill="midnightblue" stroke="midnightblue" points="1579.64,-214.96 1589.91,-212.35 1580.26,-207.98 1579.64,-214.96"/>
</g>
<!-- Node8 -->
<g id="node8" class="node">
<title>Node8</title>
<g id="a_node8"><a xlink:href="_i_e_a_p_i_8cpp.html" target="_top" xlink:title=" ">
<polygon fill="white" stroke="black" points="789,-81.5 789,-143.5 946,-143.5 946,-81.5 789,-81.5"/>
<text text-anchor="start" x="797" y="-126.7" font-family="Source Sans Pro" font-size="16.00">Illumination&#45;Engine</text>
<text text-anchor="start" x="797" y="-108.7" font-family="Source Sans Pro" font-size="16.00">/src/GraphicsModule</text>
<text text-anchor="middle" x="867.5" y="-90.7" font-family="Source Sans Pro" font-size="16.00">/IEAPI.cpp</text>
</a>
</g>
</g>
<!-- Node6&#45;&gt;Node8 -->
<g id="edge9" class="edge">
<title>Node6&#45;&gt;Node8</title>
<path fill="none" stroke="midnightblue" d="M1579.64,-211.11C1400.55,-194.39 1014.13,-157.4 954.5,-144 951.85,-143.4 949.16,-142.75 946.46,-142.05"/>
<polygon fill="midnightblue" stroke="midnightblue" points="1579.54,-214.61 1589.83,-212.06 1580.19,-207.64 1579.54,-214.61"/>
</g>
<!-- Node9 -->
<g id="node9" class="node">
<title>Node9</title>
<g id="a_node9"><a xlink:href="_i_e_camera_8cpp.html" target="_top" xlink:title=" ">
<polygon fill="white" stroke="black" points="964,-81.5 964,-143.5 1121,-143.5 1121,-81.5 964,-81.5"/>
<text text-anchor="start" x="972" y="-126.7" font-family="Source Sans Pro" font-size="16.00">Illumination&#45;Engine</text>
<text text-anchor="start" x="972" y="-108.7" font-family="Source Sans Pro" font-size="16.00">/src/GraphicsModule</text>
<text text-anchor="middle" x="1042.5" y="-90.7" font-family="Source Sans Pro" font-size="16.00">/IECamera.cpp</text>
</a>
</g>
</g>
<!-- Node6&#45;&gt;Node9 -->
<g id="edge10" class="edge">
<title>Node6&#45;&gt;Node9</title>
<path fill="none" stroke="midnightblue" d="M1579.58,-212.36C1471.24,-202.59 1285.3,-181.78 1129.5,-144 1126.7,-143.32 1123.86,-142.59 1121.01,-141.81"/>
<polygon fill="midnightblue" stroke="midnightblue" points="1579.55,-215.87 1589.82,-213.27 1580.17,-208.9 1579.55,-215.87"/>
</g>
<!-- Node10 -->
<g id="node10" class="node">
<title>Node10</title>
<g id="a_node10"><a xlink:href="_i_e_render_engine_8cpp.html" target="_top" xlink:title=" ">
<polygon fill="white" stroke="black" points="1139,-81.5 1139,-143.5 1298,-143.5 1298,-81.5 1139,-81.5"/>
<text text-anchor="start" x="1147" y="-126.7" font-family="Source Sans Pro" font-size="16.00">Illumination&#45;Engine</text>
<text text-anchor="start" x="1147" y="-108.7" font-family="Source Sans Pro" font-size="16.00">/src/GraphicsModule</text>
<text text-anchor="middle" x="1218.5" y="-90.7" font-family="Source Sans Pro" font-size="16.00">/IERenderEngine.cpp</text>
</a>
</g>
</g>
<!-- Node6&#45;&gt;Node10 -->
<g id="edge11" class="edge">
<title>Node6&#45;&gt;Node10</title>
<path fill="none" stroke="midnightblue" d="M1579.67,-204.03C1505.56,-190.6 1398.46,-169.36 1306.5,-144 1303.85,-143.27 1301.16,-142.5 1298.46,-141.7"/>
<polygon fill="midnightblue" stroke="midnightblue" points="1579.44,-207.54 1589.9,-205.87 1580.68,-200.65 1579.44,-207.54"/>
</g>
<!-- Node12 -->
<g id="node12" class="node">
<title>Node12</title>
<g id="a_node12"><a xlink:href="_i_e_image_8cpp.html" target="_top" xlink:title=" ">
<polygon fill="white" stroke="black" points="1316,-81.5 1316,-143.5 1473,-143.5 1473,-81.5 1316,-81.5"/>
<text text-anchor="start" x="1324" y="-126.7" font-family="Source Sans Pro" font-size="16.00">Illumination&#45;Engine</text>
<text text-anchor="start" x="1324" y="-108.7" font-family="Source Sans Pro" font-size="16.00">/src/GraphicsModule</text>
<text text-anchor="middle" x="1394.5" y="-90.7" font-family="Source Sans Pro" font-size="16.00">/Image/IEImage.cpp</text>
</a>
</g>
</g>
<!-- Node6&#45;&gt;Node12 -->
<g id="edge13" class="edge">
<title>Node6&#45;&gt;Node12</title>
<path fill="none" stroke="midnightblue" d="M1582.38,-185.66C1547.26,-172.17 1507.16,-156.77 1473.05,-143.67"/>
<polygon fill="midnightblue" stroke="midnightblue" points="1581.56,-189.09 1592.15,-189.41 1584.07,-182.56 1581.56,-189.09"/>
</g>
<!-- Node13 -->
<g id="node13" class="node">
<title>Node13</title>
<g id="a_node13"><a xlink:href="_i_e_texture_8cpp.html" target="_top" xlink:title=" ">
<polygon fill="white" stroke="black" points="1491,-81.5 1491,-143.5 1652,-143.5 1652,-81.5 1491,-81.5"/>
<text text-anchor="start" x="1499" y="-126.7" font-family="Source Sans Pro" font-size="16.00">Illumination&#45;Engine</text>
<text text-anchor="start" x="1499" y="-108.7" font-family="Source Sans Pro" font-size="16.00">/src/GraphicsModule</text>
<text text-anchor="middle" x="1571.5" y="-90.7" font-family="Source Sans Pro" font-size="16.00">/Image/IETexture.cpp</text>
</a>
</g>
</g>
<!-- Node6&#45;&gt;Node13 -->
<g id="edge14" class="edge">
<title>Node6&#45;&gt;Node13</title>
<path fill="none" stroke="midnightblue" d="M1635.3,-181.81C1623.61,-169.29 1610.76,-155.54 1599.67,-143.67"/>
<polygon fill="midnightblue" stroke="midnightblue" points="1633.01,-184.49 1642.4,-189.41 1638.13,-179.71 1633.01,-184.49"/>
</g>
<!-- Node14 -->
<g id="node14" class="node">
<title>Node14</title>
<g id="a_node14"><a xlink:href="_i_e_framebuffer_8cpp.html" target="_top" xlink:title=" ">
<polygon fill="white" stroke="black" points="2930.5,-81.5 2930.5,-143.5 3160.5,-143.5 3160.5,-81.5 2930.5,-81.5"/>
<text text-anchor="start" x="2938.5" y="-126.7" font-family="Source Sans Pro" font-size="16.00">Illumination&#45;Engine</text>
<text text-anchor="start" x="2938.5" y="-108.7" font-family="Source Sans Pro" font-size="16.00">/src/GraphicsModule</text>
<text text-anchor="middle" x="3045.5" y="-90.7" font-family="Source Sans Pro" font-size="16.00">/RenderPass/IEFramebuffer.cpp</text>
</a>
</g>
</g>
<!-- Node6&#45;&gt;Node14 -->
<g id="edge15" class="edge">
<title>Node6&#45;&gt;Node14</title>
<path fill="none" stroke="midnightblue" d="M1749.7,-186.37C1757.97,-183.83 1766.33,-181.63 1774.5,-180 2024.57,-130.04 2668.85,-178.65 2921.5,-144 2924.47,-143.59 2927.46,-143.14 2930.48,-142.66"/>
<polygon fill="midnightblue" stroke="midnightblue" points="1748.5,-183.08 1740.06,-189.48 1750.65,-189.74 1748.5,-183.08"/>
</g>
<!-- Node15 -->
<g id="node15" class="node">
<title>Node15</title>
<g id="a_node15"><a xlink:href="_i_e_render_pass_8cpp.html" target="_top" xlink:title=" ">
<polygon fill="white" stroke="black" points="3179,-81.5 3179,-143.5 3406,-143.5 3406,-81.5 3179,-81.5"/>
<text text-anchor="start" x="3187" y="-126.7" font-family="Source Sans Pro" font-size="16.00">Illumination&#45;Engine</text>
<text text-anchor="start" x="3187" y="-108.7" font-family="Source Sans Pro" font-size="16.00">/src/GraphicsModule</text>
<text text-anchor="middle" x="3292.5" y="-90.7" font-family="Source Sans Pro" font-size="16.00">/RenderPass/IERenderPass.cpp</text>
</a>
</g>
</g>
<!-- Node6&#45;&gt;Node15 -->
<g id="edge16" class="edge">
<title>Node6&#45;&gt;Node15</title>
<path fill="none" stroke="midnightblue" d="M1761.1,-190.75C1778.03,-186.4 1795.68,-182.52 1812.5,-180 2409.15,-90.49 2571.65,-225.08 3169.5,-144 3172.55,-143.59 3175.64,-143.13 3178.75,-142.63"/>
<polygon fill="midnightblue" stroke="midnightblue" points="1760,-187.42 1751.23,-193.37 1761.8,-194.19 1760,-187.42"/>
</g>
<!-- Node16 -->
<g id="node16" class="node">
<title>Node16</title>
<g id="a_node16"><a xlink:href="_i_e_material_8cpp.html" target="_top" xlink:title=" ">
<polygon fill="white" stroke="black" points="1670,-81.5 1670,-143.5 1871,-143.5 1871,-81.5 1670,-81.5"/>
<text text-anchor="start" x="1678" y="-126.7" font-family="Source Sans Pro" font-size="16.00">Illumination&#45;Engine</text>
<text text-anchor="start" x="1678" y="-108.7" font-family="Source Sans Pro" font-size="16.00">/src/GraphicsModule</text>
<text text-anchor="middle" x="1770.5" y="-90.7" font-family="Source Sans Pro" font-size="16.00">/Renderable/IEMaterial.cpp</text>
</a>
</g>
</g>
<!-- Node6&#45;&gt;Node16 -->
<g id="edge17" class="edge">
<title>Node6&#45;&gt;Node16</title>
<path fill="none" stroke="midnightblue" d="M1706.06,-181.81C1717.86,-169.29 1730.84,-155.54 1742.04,-143.67"/>
<polygon fill="midnightblue" stroke="midnightblue" points="1703.2,-179.73 1698.89,-189.41 1708.3,-184.54 1703.2,-179.73"/>
</g>
<!-- Node17 -->
<g id="node17" class="node">
<title>Node17</title>
<g id="a_node17"><a xlink:href="_i_e_mesh_8cpp.html" target="_top" xlink:title=" ">
<polygon fill="white" stroke="black" points="1889,-81.5 1889,-143.5 2072,-143.5 2072,-81.5 1889,-81.5"/>
<text text-anchor="start" x="1897" y="-126.7" font-family="Source Sans Pro" font-size="16.00">Illumination&#45;Engine</text>
<text text-anchor="start" x="1897" y="-108.7" font-family="Source Sans Pro" font-size="16.00">/src/GraphicsModule</text>
<text text-anchor="middle" x="1980.5" y="-90.7" font-family="Source Sans Pro" font-size="16.00">/Renderable/IEMesh.cpp</text>
</a>
</g>
</g>
<!-- Node6&#45;&gt;Node17 -->
<g id="edge18" class="edge">
<title>Node6&#45;&gt;Node17</title>
<path fill="none" stroke="midnightblue" d="M1757.89,-185.94C1763.5,-183.9 1769.07,-181.91 1774.5,-180 1811.73,-166.93 1853.08,-153.39 1888.9,-141.97"/>
<polygon fill="midnightblue" stroke="midnightblue" points="1756.61,-182.68 1748.43,-189.41 1759.02,-189.26 1756.61,-182.68"/>
</g>
<!-- Node18 -->
<g id="node18" class="node">
<title>Node18</title>
<g id="a_node18"><a xlink:href="_i_e_renderable_8cpp.html" target="_top" xlink:title=" ">
<polygon fill="white" stroke="black" points="2090,-81.5 2090,-143.5 2315,-143.5 2315,-81.5 2090,-81.5"/>
<text text-anchor="start" x="2098" y="-126.7" font-family="Source Sans Pro" font-size="16.00">Illumination&#45;Engine</text>
<text text-anchor="start" x="2098" y="-108.7" font-family="Source Sans Pro" font-size="16.00">/src/GraphicsModule</text>
<text text-anchor="middle" x="2202.5" y="-90.7" font-family="Source Sans Pro" font-size="16.00">/Renderable/IERenderable.cpp</text>
</a>
</g>
</g>
<!-- Node6&#45;&gt;Node18 -->
<g id="edge19" class="edge">
<title>Node6&#45;&gt;Node18</title>
<path fill="none" stroke="midnightblue" d="M1752.71,-186.18C1760.01,-183.86 1767.34,-181.75 1774.5,-180 1907.51,-147.44 1945.8,-168.66 2080.5,-144 2083.61,-143.43 2086.77,-142.83 2089.94,-142.2"/>
<polygon fill="midnightblue" stroke="midnightblue" points="1751.19,-182.99 1742.79,-189.45 1753.39,-189.64 1751.19,-182.99"/>
</g>
<!-- Node19 -->
<g id="node19" class="node">
<title>Node19</title>
<g id="a_node19"><a xlink:href="_i_e_descriptor_set_8cpp.html" target="_top" xlink:title=" ">
<polygon fill="white" stroke="black" points="2333,-81.5 2333,-143.5 2540,-143.5 2540,-81.5 2333,-81.5"/>
<text text-anchor="start" x="2341" y="-126.7" font-family="Source Sans Pro" font-size="16.00">Illumination&#45;Engine</text>
<text text-anchor="start" x="2341" y="-108.7" font-family="Source Sans Pro" font-size="16.00">/src/GraphicsModule</text>
<text text-anchor="middle" x="2436.5" y="-90.7" font-family="Source Sans Pro" font-size="16.00">/Shader/IEDescriptorSet.cpp</text>
</a>
</g>
</g>
<!-- Node6&#45;&gt;Node19 -->
<g id="edge20" class="edge">
<title>Node6&#45;&gt;Node19</title>
<path fill="none" stroke="midnightblue" d="M1750.84,-186.32C1758.74,-183.87 1766.72,-181.69 1774.5,-180 2013.43,-128.02 2082.28,-184.06 2323.5,-144 2326.61,-143.48 2329.75,-142.92 2332.92,-142.31"/>
<polygon fill="midnightblue" stroke="midnightblue" points="1749.69,-183.02 1741.26,-189.44 1751.85,-189.67 1749.69,-183.02"/>
</g>
<!-- Node20 -->
<g id="node20" class="node">
<title>Node20</title>
<g id="a_node20"><a xlink:href="_i_e_pipeline_8cpp.html" target="_top" xlink:title=" ">
<polygon fill="white" stroke="black" points="2558.5,-81.5 2558.5,-143.5 2730.5,-143.5 2730.5,-81.5 2558.5,-81.5"/>
<text text-anchor="start" x="2566.5" y="-126.7" font-family="Source Sans Pro" font-size="16.00">Illumination&#45;Engine</text>
<text text-anchor="start" x="2566.5" y="-108.7" font-family="Source Sans Pro" font-size="16.00">/src/GraphicsModule</text>
<text text-anchor="middle" x="2644.5" y="-90.7" font-family="Source Sans Pro" font-size="16.00">/Shader/IEPipeline.cpp</text>
</a>
</g>
</g>
<!-- Node6&#45;&gt;Node20 -->
<g id="edge21" class="edge">
<title>Node6&#45;&gt;Node20</title>
<path fill="none" stroke="midnightblue" d="M1750.4,-186.29C1758.44,-183.81 1766.57,-181.65 1774.5,-180 2112.12,-109.91 2210.17,-205.24 2549.5,-144 2552.4,-143.48 2555.33,-142.89 2558.28,-142.25"/>
<polygon fill="midnightblue" stroke="midnightblue" points="1749.09,-183.03 1740.65,-189.44 1751.24,-189.69 1749.09,-183.03"/>
</g>
<!-- Node21 -->
<g id="node21" class="node">
<title>Node21</title>
<g id="a_node21"><a xlink:href="_i_e_shader_8cpp.html" target="_top" xlink:title=" ">
<polygon fill="white" stroke="black" points="2748.5,-81.5 2748.5,-143.5 2912.5,-143.5 2912.5,-81.5 2748.5,-81.5"/>
<text text-anchor="start" x="2756.5" y="-126.7" font-family="Source Sans Pro" font-size="16.00">Illumination&#45;Engine</text>
<text text-anchor="start" x="2756.5" y="-108.7" font-family="Source Sans Pro" font-size="16.00">/src/GraphicsModule</text>
<text text-anchor="middle" x="2830.5" y="-90.7" font-family="Source Sans Pro" font-size="16.00">/Shader/IEShader.cpp</text>
</a>
</g>
</g>
<!-- Node6&#45;&gt;Node21 -->
<g id="edge22" class="edge">
<title>Node6&#45;&gt;Node21</title>
<path fill="none" stroke="midnightblue" d="M1749.91,-186.36C1758.11,-183.84 1766.41,-181.64 1774.5,-180 2195.12,-94.68 2317.27,-220.98 2739.5,-144 2742.45,-143.46 2745.44,-142.85 2748.44,-142.17"/>
<polygon fill="midnightblue" stroke="midnightblue" points="1748.79,-183.04 1740.35,-189.45 1750.94,-189.7 1748.79,-183.04"/>
</g>
<!-- Node11 -->
<g id="node11" class="node">
<title>Node11</title>
<g id="a_node11"><a xlink:href="main_8cpp.html" target="_top" xlink:title=" ">
<polygon fill="white" stroke="black" points="1143.5,-0.5 1143.5,-44.5 1293.5,-44.5 1293.5,-0.5 1143.5,-0.5"/>
<text text-anchor="start" x="1151.5" y="-27.7" font-family="Source Sans Pro" font-size="16.00">Illumination&#45;Engine</text>
<text text-anchor="middle" x="1218.5" y="-9.7" font-family="Source Sans Pro" font-size="16.00">/src/main.cpp</text>
</a>
</g>
</g>
<!-- Node10&#45;&gt;Node11 -->
<g id="edge12" class="edge">
<title>Node10&#45;&gt;Node11</title>
<path fill="none" stroke="midnightblue" d="M1218.5,-71.09C1218.5,-61.97 1218.5,-52.64 1218.5,-44.68"/>
<polygon fill="midnightblue" stroke="midnightblue" points="1215,-71.22 1218.5,-81.22 1222,-71.22 1215,-71.22"/>
</g>
<!-- Node22&#45;&gt;Node6 -->
<g id="edge26" class="edge">
<title>Node22&#45;&gt;Node6</title>
<path fill="none" stroke="midnightblue" d="M1773.88,-291.74C1754.72,-278.73 1733.27,-264.15 1714.9,-251.67"/>
<polygon fill="midnightblue" stroke="midnightblue" points="1771.98,-294.68 1782.21,-297.41 1775.91,-288.89 1771.98,-294.68"/>
</g>
<!-- Node22&#45;&gt;Node14 -->
<g id="edge27" class="edge">
<title>Node22&#45;&gt;Node14</title>
<path fill="none" stroke="midnightblue" d="M1807.87,-287.86C1795.28,-254.54 1785.39,-208.01 1812.5,-180 1855.38,-135.71 2860.43,-152.41 2921.5,-144 2924.46,-143.59 2927.46,-143.14 2930.48,-142.66"/>
<polygon fill="midnightblue" stroke="midnightblue" points="1804.68,-289.32 1811.64,-297.3 1811.18,-286.72 1804.68,-289.32"/>
</g>
<!-- Node22&#45;&gt;Node15 -->
<g id="edge28" class="edge">
<title>Node22&#45;&gt;Node15</title>
<path fill="none" stroke="midnightblue" d="M1818.93,-287.14C1815.15,-253.26 1816.42,-206.28 1845.5,-180 1900.09,-130.66 3096.59,-153.91 3169.5,-144 3172.55,-143.59 3175.64,-143.12 3178.75,-142.62"/>
<polygon fill="midnightblue" stroke="midnightblue" points="1815.48,-287.74 1820.24,-297.2 1822.42,-286.83 1815.48,-287.74"/>
</g>
<!-- Node23 -->
<g id="node23" class="node">
<title>Node23</title>
<g id="a_node23"><a xlink:href="_i_e_render_pass_begin_info_8cpp.html" target="_top" xlink:title=" ">
<polygon fill="white" stroke="black" points="1854.5,-180.5 1854.5,-260.5 2126.5,-260.5 2126.5,-180.5 1854.5,-180.5"/>
<text text-anchor="start" x="1862.5" y="-243.7" font-family="Source Sans Pro" font-size="16.00">Illumination&#45;Engine</text>
<text text-anchor="start" x="1862.5" y="-225.7" font-family="Source Sans Pro" font-size="16.00">/src/GraphicsModule</text>
<text text-anchor="start" x="1862.5" y="-207.7" font-family="Source Sans Pro" font-size="16.00">/CommandBuffer/DependencyStructs</text>
<text text-anchor="middle" x="1990.5" y="-189.7" font-family="Source Sans Pro" font-size="16.00">/IERenderPassBeginInfo.cpp</text>
</a>
</g>
</g>
<!-- Node22&#45;&gt;Node23 -->
<g id="edge24" class="edge">
<title>Node22&#45;&gt;Node23</title>
<path fill="none" stroke="midnightblue" d="M1881.54,-291.92C1897.11,-281.86 1914.14,-270.85 1930.02,-260.59"/>
<polygon fill="midnightblue" stroke="midnightblue" points="1879.56,-289.04 1873.06,-297.41 1883.36,-294.92 1879.56,-289.04"/>
</g>
<!-- Node22&#45;&gt;Node24 -->
<g id="edge25" class="edge">
<title>Node22&#45;&gt;Node24</title>
<path fill="none" stroke="midnightblue" d="M1950.67,-302.53C2007.23,-290.71 2074.93,-275.93 2135.5,-261 2147.43,-258.06 2159.87,-254.84 2172.22,-251.53"/>
<polygon fill="midnightblue" stroke="midnightblue" points="1949.68,-299.16 1940.6,-304.63 1951.11,-306.02 1949.68,-299.16"/>
</g>
</g>
</svg>
