<?xml version="1.0" encoding="UTF-8" standalone="no"?>
<!DOCTYPE svg PUBLIC "-//W3C//DTD SVG 1.1//EN"
 "http://www.w3.org/Graphics/SVG/1.1/DTD/svg11.dtd">
<!-- Generated by graphviz version 2.43.0 (0)
 -->
<!-- Title: Illumination&#45;Engine/src/GraphicsModule/Shader/IEPipeline.hpp Pages: 1 -->
<svg width="3584pt" height="485pt"
 viewBox="0.00 0.00 3583.50 485.00" xmlns="http://www.w3.org/2000/svg" xmlns:xlink="http://www.w3.org/1999/xlink">
<g id="graph0" class="graph" transform="scale(1 1) rotate(0) translate(4 481)">
<title>Illumination&#45;Engine/src/GraphicsModule/Shader/IEPipeline.hpp</title>
<polygon fill="white" stroke="transparent" points="-4,4 -4,-481 3579.5,-481 3579.5,4 -4,4"/>
<!-- Node1 -->
<g id="node1" class="node">
<title>Node1</title>
<g id="a_node1"><a xlink:title=" ">
<polygon fill="#bfbfbf" stroke="black" points="2532,-414.5 2532,-476.5 2705,-476.5 2705,-414.5 2532,-414.5"/>
<text text-anchor="start" x="2540" y="-459.7" font-family="Source Sans Pro" font-size="16.00">Illumination&#45;Engine</text>
<text text-anchor="start" x="2540" y="-441.7" font-family="Source Sans Pro" font-size="16.00">/src/GraphicsModule</text>
<text text-anchor="middle" x="2618.5" y="-423.7" font-family="Source Sans Pro" font-size="16.00">/Shader/IEPipeline.hpp</text>
</a>
</g>
</g>
<!-- Node2 -->
<g id="node2" class="node">
<title>Node2</title>
<g id="a_node2"><a xlink:href="_i_e_command_buffer_8cpp.html" target="_top" xlink:title=" ">
<polygon fill="white" stroke="black" points="0,-0.5 0,-62.5 293,-62.5 293,-0.5 0,-0.5"/>
<text text-anchor="start" x="8" y="-45.7" font-family="Source Sans Pro" font-size="16.00">Illumination&#45;Engine</text>
<text text-anchor="start" x="8" y="-27.7" font-family="Source Sans Pro" font-size="16.00">/src/GraphicsModule</text>
<text text-anchor="middle" x="146.5" y="-9.7" font-family="Source Sans Pro" font-size="16.00">/CommandBuffer/IECommandBuffer.cpp</text>
</a>
</g>
</g>
<!-- Node1&#45;&gt;Node2 -->
<g id="edge1" class="edge">
<title>Node1&#45;&gt;Node2</title>
<path fill="none" stroke="midnightblue" d="M2521.73,-443.56C2217.26,-438.26 1254.23,-403.68 497.5,-180 391.96,-148.8 275.23,-95.79 206.51,-62.54"/>
<polygon fill="midnightblue" stroke="midnightblue" points="2521.79,-447.06 2531.84,-443.73 2521.9,-440.06 2521.79,-447.06"/>
</g>
<!-- Node3 -->
<g id="node3" class="node">
<title>Node3</title>
<g id="a_node3"><a xlink:href="_i_e_command_buffer_8hpp.html" target="_top" xlink:title=" ">
<polygon fill="white" stroke="black" points="1614,-315.5 1614,-377.5 1909,-377.5 1909,-315.5 1614,-315.5"/>
<text text-anchor="start" x="1622" y="-360.7" font-family="Source Sans Pro" font-size="16.00">Illumination&#45;Engine</text>
<text text-anchor="start" x="1622" y="-342.7" font-family="Source Sans Pro" font-size="16.00">/src/GraphicsModule</text>
<text text-anchor="middle" x="1761.5" y="-324.7" font-family="Source Sans Pro" font-size="16.00">/CommandBuffer/IECommandBuffer.hpp</text>
</a>
</g>
</g>
<!-- Node1&#45;&gt;Node3 -->
<g id="edge2" class="edge">
<title>Node1&#45;&gt;Node3</title>
<path fill="none" stroke="midnightblue" d="M2521.54,-433.53C2372.17,-416.62 2084.74,-384.09 1909.33,-364.23"/>
<polygon fill="midnightblue" stroke="midnightblue" points="2521.28,-437.02 2531.61,-434.67 2522.07,-430.06 2521.28,-437.02"/>
</g>
<!-- Node19 -->
<g id="node19" class="node">
<title>Node19</title>
<g id="a_node19"><a xlink:href="_i_e_pipeline_8cpp.html" target="_top" xlink:title=" ">
<polygon fill="white" stroke="black" points="3403.5,-0.5 3403.5,-62.5 3575.5,-62.5 3575.5,-0.5 3403.5,-0.5"/>
<text text-anchor="start" x="3411.5" y="-45.7" font-family="Source Sans Pro" font-size="16.00">Illumination&#45;Engine</text>
<text text-anchor="start" x="3411.5" y="-27.7" font-family="Source Sans Pro" font-size="16.00">/src/GraphicsModule</text>
<text text-anchor="middle" x="3489.5" y="-9.7" font-family="Source Sans Pro" font-size="16.00">/Shader/IEPipeline.cpp</text>
</a>
</g>
</g>
<!-- Node1&#45;&gt;Node19 -->
<g id="edge40" class="edge">
<title>Node1&#45;&gt;Node19</title>
<path fill="none" stroke="midnightblue" d="M2715.15,-432.88C2778.57,-423.12 2862.44,-406.14 2932.5,-378 3143.69,-293.17 3364.86,-130.01 3451.52,-62.69"/>
<polygon fill="midnightblue" stroke="midnightblue" points="2714.51,-429.43 2705.15,-434.38 2715.56,-436.35 2714.51,-429.43"/>
</g>
<!-- Node24 -->
<g id="node24" class="node">
<title>Node24</title>
<g id="a_node24"><a xlink:href="_i_e_dependency_8cpp.html" target="_top" xlink:title=" ">
<polygon fill="white" stroke="black" points="2225.5,-108.5 2225.5,-170.5 2491.5,-170.5 2491.5,-108.5 2225.5,-108.5"/>
<text text-anchor="start" x="2233.5" y="-153.7" font-family="Source Sans Pro" font-size="16.00">Illumination&#45;Engine</text>
<text text-anchor="start" x="2233.5" y="-135.7" font-family="Source Sans Pro" font-size="16.00">/src/GraphicsModule</text>
<text text-anchor="middle" x="2358.5" y="-117.7" font-family="Source Sans Pro" font-size="16.00">/CommandBuffer/IEDependency.cpp</text>
</a>
</g>
</g>
<!-- Node1&#45;&gt;Node24 -->
<g id="edge30" class="edge">
<title>Node1&#45;&gt;Node24</title>
<path fill="none" stroke="midnightblue" d="M2585.88,-406.36C2533.55,-345.17 2431.89,-226.31 2384.28,-170.64"/>
<polygon fill="midnightblue" stroke="midnightblue" points="2583.46,-408.92 2592.62,-414.24 2588.78,-404.37 2583.46,-408.92"/>
</g>
<!-- Node25 -->
<g id="node25" class="node">
<title>Node25</title>
<g id="a_node25"><a xlink:href="_i_e_mesh_8hpp.html" target="_top" xlink:title=" ">
<polygon fill="white" stroke="black" points="2739,-315.5 2739,-377.5 2924,-377.5 2924,-315.5 2739,-315.5"/>
<text text-anchor="start" x="2747" y="-360.7" font-family="Source Sans Pro" font-size="16.00">Illumination&#45;Engine</text>
<text text-anchor="start" x="2747" y="-342.7" font-family="Source Sans Pro" font-size="16.00">/src/GraphicsModule</text>
<text text-anchor="middle" x="2831.5" y="-324.7" font-family="Source Sans Pro" font-size="16.00">/Renderable/IEMesh.hpp</text>
</a>
</g>
</g>
<!-- Node1&#45;&gt;Node25 -->
<g id="edge31" class="edge">
<title>Node1&#45;&gt;Node25</title>
<path fill="none" stroke="midnightblue" d="M2693.64,-410.28C2717.08,-399.61 2742.75,-387.92 2765.51,-377.55"/>
<polygon fill="midnightblue" stroke="midnightblue" points="2692.09,-407.14 2684.44,-414.47 2694.99,-413.51 2692.09,-407.14"/>
</g>
<!-- Node26 -->
<g id="node26" class="node">
<title>Node26</title>
<g id="a_node26"><a xlink:href="_i_e_renderable_8hpp.html" target="_top" xlink:title=" ">
<polygon fill="white" stroke="black" points="2529,-216.5 2529,-278.5 2756,-278.5 2756,-216.5 2529,-216.5"/>
<text text-anchor="start" x="2537" y="-261.7" font-family="Source Sans Pro" font-size="16.00">Illumination&#45;Engine</text>
<text text-anchor="start" x="2537" y="-243.7" font-family="Source Sans Pro" font-size="16.00">/src/GraphicsModule</text>
<text text-anchor="middle" x="2642.5" y="-225.7" font-family="Source Sans Pro" font-size="16.00">/Renderable/IERenderable.hpp</text>
</a>
</g>
</g>
<!-- Node1&#45;&gt;Node26 -->
<g id="edge39" class="edge">
<title>Node1&#45;&gt;Node26</title>
<path fill="none" stroke="midnightblue" d="M2623.42,-404.29C2627.99,-367.02 2634.67,-312.41 2638.8,-278.73"/>
<polygon fill="midnightblue" stroke="midnightblue" points="2619.94,-403.95 2622.2,-414.3 2626.89,-404.8 2619.94,-403.95"/>
</g>
<!-- Node3&#45;&gt;Node2 -->
<g id="edge3" class="edge">
<title>Node3&#45;&gt;Node2</title>
<path fill="none" stroke="midnightblue" d="M1603.75,-315.05C1336.12,-263.38 776.01,-155.13 302.5,-63 299.38,-62.39 296.23,-61.78 293.06,-61.16"/>
<polygon fill="midnightblue" stroke="midnightblue" points="1603.44,-318.56 1613.93,-317.02 1604.77,-311.69 1603.44,-318.56"/>
</g>
<!-- Node4 -->
<g id="node4" class="node">
<title>Node4</title>
<g id="a_node4"><a xlink:href="_i_e_command_pool_8hpp.html" target="_top" xlink:title=" ">
<polygon fill="white" stroke="black" points="1482,-216.5 1482,-278.5 1767,-278.5 1767,-216.5 1482,-216.5"/>
<text text-anchor="start" x="1490" y="-261.7" font-family="Source Sans Pro" font-size="16.00">Illumination&#45;Engine</text>
<text text-anchor="start" x="1490" y="-243.7" font-family="Source Sans Pro" font-size="16.00">/src/GraphicsModule</text>
<text text-anchor="middle" x="1624.5" y="-225.7" font-family="Source Sans Pro" font-size="16.00">/CommandBuffer/IECommandPool.hpp</text>
</a>
</g>
</g>
<!-- Node3&#45;&gt;Node4 -->
<g id="edge4" class="edge">
<title>Node3&#45;&gt;Node4</title>
<path fill="none" stroke="midnightblue" d="M1710.62,-309.47C1696.29,-299.33 1680.86,-288.4 1667.07,-278.64"/>
<polygon fill="midnightblue" stroke="midnightblue" points="1708.72,-312.42 1718.9,-315.34 1712.76,-306.71 1708.72,-312.42"/>
</g>
<!-- Node22 -->
<g id="node22" class="node">
<title>Node22</title>
<g id="a_node22"><a xlink:href="_i_e_render_pass_8hpp.html" target="_top" xlink:title=" ">
<polygon fill="white" stroke="black" points="1785.5,-216.5 1785.5,-278.5 2013.5,-278.5 2013.5,-216.5 1785.5,-216.5"/>
<text text-anchor="start" x="1793.5" y="-261.7" font-family="Source Sans Pro" font-size="16.00">Illumination&#45;Engine</text>
<text text-anchor="start" x="1793.5" y="-243.7" font-family="Source Sans Pro" font-size="16.00">/src/GraphicsModule</text>
<text text-anchor="middle" x="1899.5" y="-225.7" font-family="Source Sans Pro" font-size="16.00">/RenderPass/IERenderPass.hpp</text>
</a>
</g>
</g>
<!-- Node3&#45;&gt;Node22 -->
<g id="edge24" class="edge">
<title>Node3&#45;&gt;Node22</title>
<path fill="none" stroke="midnightblue" d="M1812.76,-309.47C1827.19,-299.33 1842.73,-288.4 1856.62,-278.64"/>
<polygon fill="midnightblue" stroke="midnightblue" points="1810.58,-306.73 1804.41,-315.34 1814.6,-312.45 1810.58,-306.73"/>
</g>
<!-- Node5 -->
<g id="node5" class="node">
<title>Node5</title>
<g id="a_node5"><a xlink:href="_i_e_command_pool_8cpp.html" target="_top" xlink:title=" ">
<polygon fill="white" stroke="black" points="311.5,-0.5 311.5,-62.5 595.5,-62.5 595.5,-0.5 311.5,-0.5"/>
<text text-anchor="start" x="319.5" y="-45.7" font-family="Source Sans Pro" font-size="16.00">Illumination&#45;Engine</text>
<text text-anchor="start" x="319.5" y="-27.7" font-family="Source Sans Pro" font-size="16.00">/src/GraphicsModule</text>
<text text-anchor="middle" x="453.5" y="-9.7" font-family="Source Sans Pro" font-size="16.00">/CommandBuffer/IECommandPool.cpp</text>
</a>
</g>
</g>
<!-- Node4&#45;&gt;Node5 -->
<g id="edge5" class="edge">
<title>Node4&#45;&gt;Node5</title>
<path fill="none" stroke="midnightblue" d="M1485.96,-214.17C1342.59,-181.58 1111.84,-131.58 910.5,-99 775.32,-77.13 739.73,-84.57 604.5,-63 601.59,-62.54 598.66,-62.06 595.7,-61.56"/>
<polygon fill="midnightblue" stroke="midnightblue" points="1485.61,-217.67 1496.13,-216.48 1487.16,-210.85 1485.61,-217.67"/>
</g>
<!-- Node6 -->
<g id="node6" class="node">
<title>Node6</title>
<g id="a_node6"><a xlink:href="_i_e_render_engine_8hpp.html" target="_top" xlink:title=" ">
<polygon fill="white" stroke="black" points="1819,-108.5 1819,-170.5 1980,-170.5 1980,-108.5 1819,-108.5"/>
<text text-anchor="start" x="1827" y="-153.7" font-family="Source Sans Pro" font-size="16.00">Illumination&#45;Engine</text>
<text text-anchor="start" x="1827" y="-135.7" font-family="Source Sans Pro" font-size="16.00">/src/GraphicsModule</text>
<text text-anchor="middle" x="1899.5" y="-117.7" font-family="Source Sans Pro" font-size="16.00">/IERenderEngine.hpp</text>
</a>
</g>
</g>
<!-- Node4&#45;&gt;Node6 -->
<g id="edge6" class="edge">
<title>Node4&#45;&gt;Node6</title>
<path fill="none" stroke="midnightblue" d="M1721.57,-213.02C1750.05,-202.81 1781.16,-191.3 1809.5,-180 1816.95,-177.03 1824.7,-173.82 1832.38,-170.56"/>
<polygon fill="midnightblue" stroke="midnightblue" points="1720.26,-209.77 1712.02,-216.43 1722.61,-216.36 1720.26,-209.77"/>
</g>
<!-- Node6&#45;&gt;Node2 -->
<g id="edge8" class="edge">
<title>Node6&#45;&gt;Node2</title>
<path fill="none" stroke="midnightblue" d="M1829.79,-104.81C1823.05,-102.49 1816.21,-100.49 1809.5,-99 1482.5,-26.31 635.52,-99.27 302.5,-63 299.48,-62.67 296.44,-62.31 293.37,-61.93"/>
<polygon fill="midnightblue" stroke="midnightblue" points="1829,-108.24 1839.59,-108.4 1831.4,-101.67 1829,-108.24"/>
</g>
<!-- Node6&#45;&gt;Node5 -->
<g id="edge9" class="edge">
<title>Node6&#45;&gt;Node5</title>
<path fill="none" stroke="midnightblue" d="M1829.78,-104.85C1823.04,-102.53 1816.21,-100.51 1809.5,-99 1548.16,-40.09 870.64,-93.63 604.5,-63 601.58,-62.66 598.63,-62.3 595.66,-61.91"/>
<polygon fill="midnightblue" stroke="midnightblue" points="1828.98,-108.29 1839.58,-108.45 1831.4,-101.72 1828.98,-108.29"/>
</g>
<!-- Node7 -->
<g id="node7" class="node">
<title>Node7</title>
<g id="a_node7"><a xlink:href="_i_e_buffer_8cpp.html" target="_top" xlink:title=" ">
<polygon fill="white" stroke="black" points="1614,-0.5 1614,-62.5 1771,-62.5 1771,-0.5 1614,-0.5"/>
<text text-anchor="start" x="1622" y="-45.7" font-family="Source Sans Pro" font-size="16.00">Illumination&#45;Engine</text>
<text text-anchor="start" x="1622" y="-27.7" font-family="Source Sans Pro" font-size="16.00">/src/GraphicsModule</text>
<text text-anchor="middle" x="1692.5" y="-9.7" font-family="Source Sans Pro" font-size="16.00">/Buffer/IEBuffer.cpp</text>
</a>
</g>
</g>
<!-- Node6&#45;&gt;Node7 -->
<g id="edge7" class="edge">
<title>Node6&#45;&gt;Node7</title>
<path fill="none" stroke="midnightblue" d="M1831.72,-103.79C1805.79,-90.51 1776.45,-75.49 1751.41,-62.67"/>
<polygon fill="midnightblue" stroke="midnightblue" points="1830.24,-106.97 1840.74,-108.41 1833.43,-100.73 1830.24,-106.97"/>
</g>
<!-- Node8 -->
<g id="node8" class="node">
<title>Node8</title>
<g id="a_node8"><a xlink:href="_i_e_a_p_i_8cpp.html" target="_top" xlink:title=" ">
<polygon fill="white" stroke="black" points="1789,-0.5 1789,-62.5 1946,-62.5 1946,-0.5 1789,-0.5"/>
<text text-anchor="start" x="1797" y="-45.7" font-family="Source Sans Pro" font-size="16.00">Illumination&#45;Engine</text>
<text text-anchor="start" x="1797" y="-27.7" font-family="Source Sans Pro" font-size="16.00">/src/GraphicsModule</text>
<text text-anchor="middle" x="1867.5" y="-9.7" font-family="Source Sans Pro" font-size="16.00">/IEAPI.cpp</text>
</a>
</g>
</g>
<!-- Node6&#45;&gt;Node8 -->
<g id="edge10" class="edge">
<title>Node6&#45;&gt;Node8</title>
<path fill="none" stroke="midnightblue" d="M1887.48,-98.67C1883.87,-86.74 1879.99,-73.86 1876.61,-62.67"/>
<polygon fill="midnightblue" stroke="midnightblue" points="1884.17,-99.85 1890.42,-108.41 1890.88,-97.82 1884.17,-99.85"/>
</g>
<!-- Node9 -->
<g id="node9" class="node">
<title>Node9</title>
<g id="a_node9"><a xlink:href="_i_e_camera_8cpp.html" target="_top" xlink:title=" ">
<polygon fill="white" stroke="black" points="1964,-0.5 1964,-62.5 2121,-62.5 2121,-0.5 1964,-0.5"/>
<text text-anchor="start" x="1972" y="-45.7" font-family="Source Sans Pro" font-size="16.00">Illumination&#45;Engine</text>
<text text-anchor="start" x="1972" y="-27.7" font-family="Source Sans Pro" font-size="16.00">/src/GraphicsModule</text>
<text text-anchor="middle" x="2042.5" y="-9.7" font-family="Source Sans Pro" font-size="16.00">/IECamera.cpp</text>
</a>
</g>
</g>
<!-- Node6&#45;&gt;Node9 -->
<g id="edge11" class="edge">
<title>Node6&#45;&gt;Node9</title>
<path fill="none" stroke="midnightblue" d="M1948.45,-102.22C1965.83,-89.33 1985.19,-74.98 2001.8,-62.67"/>
<polygon fill="midnightblue" stroke="midnightblue" points="1946.04,-99.64 1940.1,-108.41 1950.21,-105.26 1946.04,-99.64"/>
</g>
<!-- Node10 -->
<g id="node10" class="node">
<title>Node10</title>
<g id="a_node10"><a xlink:href="_i_e_render_engine_8cpp.html" target="_top" xlink:title=" ">
<polygon fill="white" stroke="black" points="2563,-0.5 2563,-62.5 2722,-62.5 2722,-0.5 2563,-0.5"/>
<text text-anchor="start" x="2571" y="-45.7" font-family="Source Sans Pro" font-size="16.00">Illumination&#45;Engine</text>
<text text-anchor="start" x="2571" y="-27.7" font-family="Source Sans Pro" font-size="16.00">/src/GraphicsModule</text>
<text text-anchor="middle" x="2642.5" y="-9.7" font-family="Source Sans Pro" font-size="16.00">/IERenderEngine.cpp</text>
</a>
</g>
</g>
<!-- Node6&#45;&gt;Node10 -->
<g id="edge12" class="edge">
<title>Node6&#45;&gt;Node10</title>
<path fill="none" stroke="midnightblue" d="M1990.2,-126.77C2053.56,-118.68 2140.15,-107.83 2216.5,-99 2366.13,-81.69 2406.44,-95.62 2553.5,-63 2556.53,-62.33 2559.6,-61.59 2562.69,-60.79"/>
<polygon fill="midnightblue" stroke="midnightblue" points="1989.71,-123.3 1980.23,-128.04 1990.6,-130.25 1989.71,-123.3"/>
</g>
<!-- Node11 -->
<g id="node11" class="node">
<title>Node11</title>
<g id="a_node11"><a xlink:href="_i_e_image_8cpp.html" target="_top" xlink:title=" ">
<polygon fill="white" stroke="black" points="2139,-0.5 2139,-62.5 2296,-62.5 2296,-0.5 2139,-0.5"/>
<text text-anchor="start" x="2147" y="-45.7" font-family="Source Sans Pro" font-size="16.00">Illumination&#45;Engine</text>
<text text-anchor="start" x="2147" y="-27.7" font-family="Source Sans Pro" font-size="16.00">/src/GraphicsModule</text>
<text text-anchor="middle" x="2217.5" y="-9.7" font-family="Source Sans Pro" font-size="16.00">/Image/IEImage.cpp</text>
</a>
</g>
</g>
<!-- Node6&#45;&gt;Node11 -->
<g id="edge13" class="edge">
<title>Node6&#45;&gt;Node11</title>
<path fill="none" stroke="midnightblue" d="M1989.98,-109.18C2032.4,-95.34 2083.6,-78.49 2129.5,-63 2132.56,-61.97 2135.69,-60.91 2138.84,-59.83"/>
<polygon fill="midnightblue" stroke="midnightblue" points="1988.66,-105.93 1980.24,-112.36 1990.83,-112.58 1988.66,-105.93"/>
</g>
<!-- Node12 -->
<g id="node12" class="node">
<title>Node12</title>
<g id="a_node12"><a xlink:href="_i_e_texture_8cpp.html" target="_top" xlink:title=" ">
<polygon fill="white" stroke="black" points="859,-0.5 859,-62.5 1020,-62.5 1020,-0.5 859,-0.5"/>
<text text-anchor="start" x="867" y="-45.7" font-family="Source Sans Pro" font-size="16.00">Illumination&#45;Engine</text>
<text text-anchor="start" x="867" y="-27.7" font-family="Source Sans Pro" font-size="16.00">/src/GraphicsModule</text>
<text text-anchor="middle" x="939.5" y="-9.7" font-family="Source Sans Pro" font-size="16.00">/Image/IETexture.cpp</text>
</a>
</g>
</g>
<!-- Node6&#45;&gt;Node12 -->
<g id="edge14" class="edge">
<title>Node6&#45;&gt;Node12</title>
<path fill="none" stroke="midnightblue" d="M1829.42,-104.85C1822.79,-102.55 1816.09,-100.54 1809.5,-99 1471.16,-19.84 1369.85,-127.98 1028.5,-63 1025.77,-62.48 1023.01,-61.9 1020.24,-61.26"/>
<polygon fill="midnightblue" stroke="midnightblue" points="1828.46,-108.23 1839.05,-108.4 1830.88,-101.66 1828.46,-108.23"/>
</g>
<!-- Node13 -->
<g id="node13" class="node">
<title>Node13</title>
<g id="a_node13"><a xlink:href="_i_e_framebuffer_8cpp.html" target="_top" xlink:title=" ">
<polygon fill="white" stroke="black" points="2314.5,-0.5 2314.5,-62.5 2544.5,-62.5 2544.5,-0.5 2314.5,-0.5"/>
<text text-anchor="start" x="2322.5" y="-45.7" font-family="Source Sans Pro" font-size="16.00">Illumination&#45;Engine</text>
<text text-anchor="start" x="2322.5" y="-27.7" font-family="Source Sans Pro" font-size="16.00">/src/GraphicsModule</text>
<text text-anchor="middle" x="2429.5" y="-9.7" font-family="Source Sans Pro" font-size="16.00">/RenderPass/IEFramebuffer.cpp</text>
</a>
</g>
</g>
<!-- Node6&#45;&gt;Node13 -->
<g id="edge15" class="edge">
<title>Node6&#45;&gt;Node13</title>
<path fill="none" stroke="midnightblue" d="M1990.25,-122.18C2090.63,-104.03 2245.94,-75.59 2304.5,-63 2307.78,-62.3 2311.1,-61.57 2314.45,-60.83"/>
<polygon fill="midnightblue" stroke="midnightblue" points="1989.32,-118.79 1980.11,-124.02 1990.57,-125.68 1989.32,-118.79"/>
</g>
<!-- Node14 -->
<g id="node14" class="node">
<title>Node14</title>
<g id="a_node14"><a xlink:href="_i_e_render_pass_8cpp.html" target="_top" xlink:title=" ">
<polygon fill="white" stroke="black" points="614,-0.5 614,-62.5 841,-62.5 841,-0.5 614,-0.5"/>
<text text-anchor="start" x="622" y="-45.7" font-family="Source Sans Pro" font-size="16.00">Illumination&#45;Engine</text>
<text text-anchor="start" x="622" y="-27.7" font-family="Source Sans Pro" font-size="16.00">/src/GraphicsModule</text>
<text text-anchor="middle" x="727.5" y="-9.7" font-family="Source Sans Pro" font-size="16.00">/RenderPass/IERenderPass.cpp</text>
</a>
</g>
</g>
<!-- Node6&#45;&gt;Node14 -->
<g id="edge16" class="edge">
<title>Node6&#45;&gt;Node14</title>
<path fill="none" stroke="midnightblue" d="M1829.43,-104.79C1822.8,-102.5 1816.09,-100.51 1809.5,-99 1601.42,-51.26 1060.86,-93.05 849.5,-63 846.8,-62.62 844.07,-62.2 841.32,-61.75"/>
<polygon fill="midnightblue" stroke="midnightblue" points="1828.48,-108.17 1839.07,-108.33 1830.89,-101.6 1828.48,-108.17"/>
</g>
<!-- Node15 -->
<g id="node15" class="node">
<title>Node15</title>
<g id="a_node15"><a xlink:href="_i_e_material_8cpp.html" target="_top" xlink:title=" ">
<polygon fill="white" stroke="black" points="2941,-0.5 2941,-62.5 3142,-62.5 3142,-0.5 2941,-0.5"/>
<text text-anchor="start" x="2949" y="-45.7" font-family="Source Sans Pro" font-size="16.00">Illumination&#45;Engine</text>
<text text-anchor="start" x="2949" y="-27.7" font-family="Source Sans Pro" font-size="16.00">/src/GraphicsModule</text>
<text text-anchor="middle" x="3041.5" y="-9.7" font-family="Source Sans Pro" font-size="16.00">/Renderable/IEMaterial.cpp</text>
</a>
</g>
</g>
<!-- Node6&#45;&gt;Node15 -->
<g id="edge17" class="edge">
<title>Node6&#45;&gt;Node15</title>
<path fill="none" stroke="midnightblue" d="M1990.06,-125.42C2053.36,-116.71 2139.93,-105.69 2216.5,-99 2533.47,-71.31 2617.4,-113.82 2931.5,-63 2934.63,-62.49 2937.8,-61.93 2940.99,-61.32"/>
<polygon fill="midnightblue" stroke="midnightblue" points="1989.53,-121.96 1980.11,-126.79 1990.49,-128.89 1989.53,-121.96"/>
</g>
<!-- Node16 -->
<g id="node16" class="node">
<title>Node16</title>
<g id="a_node16"><a xlink:href="_i_e_mesh_8cpp.html" target="_top" xlink:title=" ">
<polygon fill="white" stroke="black" points="2740,-0.5 2740,-62.5 2923,-62.5 2923,-0.5 2740,-0.5"/>
<text text-anchor="start" x="2748" y="-45.7" font-family="Source Sans Pro" font-size="16.00">Illumination&#45;Engine</text>
<text text-anchor="start" x="2748" y="-27.7" font-family="Source Sans Pro" font-size="16.00">/src/GraphicsModule</text>
<text text-anchor="middle" x="2831.5" y="-9.7" font-family="Source Sans Pro" font-size="16.00">/Renderable/IEMesh.cpp</text>
</a>
</g>
</g>
<!-- Node6&#45;&gt;Node16 -->
<g id="edge18" class="edge">
<title>Node6&#45;&gt;Node16</title>
<path fill="none" stroke="midnightblue" d="M1990.11,-125.89C2053.43,-117.4 2140,-106.44 2216.5,-99 2444.43,-76.83 2505.26,-104.36 2730.5,-63 2733.56,-62.44 2736.66,-61.82 2739.79,-61.14"/>
<polygon fill="midnightblue" stroke="midnightblue" points="1989.59,-122.43 1980.15,-127.23 1990.52,-129.36 1989.59,-122.43"/>
</g>
<!-- Node17 -->
<g id="node17" class="node">
<title>Node17</title>
<g id="a_node17"><a xlink:href="_i_e_renderable_8cpp.html" target="_top" xlink:title=" ">
<polygon fill="white" stroke="black" points="3160,-0.5 3160,-62.5 3385,-62.5 3385,-0.5 3160,-0.5"/>
<text text-anchor="start" x="3168" y="-45.7" font-family="Source Sans Pro" font-size="16.00">Illumination&#45;Engine</text>
<text text-anchor="start" x="3168" y="-27.7" font-family="Source Sans Pro" font-size="16.00">/src/GraphicsModule</text>
<text text-anchor="middle" x="3272.5" y="-9.7" font-family="Source Sans Pro" font-size="16.00">/Renderable/IERenderable.cpp</text>
</a>
</g>
</g>
<!-- Node6&#45;&gt;Node17 -->
<g id="edge19" class="edge">
<title>Node6&#45;&gt;Node17</title>
<path fill="none" stroke="midnightblue" d="M1990.04,-125.13C2053.33,-116.3 2139.89,-105.24 2216.5,-99 2630.55,-65.29 2739.25,-121.69 3150.5,-63 3153.63,-62.55 3156.8,-62.06 3160,-61.52"/>
<polygon fill="midnightblue" stroke="midnightblue" points="1989.5,-121.67 1980.08,-126.53 1990.47,-128.6 1989.5,-121.67"/>
</g>
<!-- Node18 -->
<g id="node18" class="node">
<title>Node18</title>
<g id="a_node18"><a xlink:href="_i_e_descriptor_set_8cpp.html" target="_top" xlink:title=" ">
<polygon fill="white" stroke="black" points="1038,-0.5 1038,-62.5 1245,-62.5 1245,-0.5 1038,-0.5"/>
<text text-anchor="start" x="1046" y="-45.7" font-family="Source Sans Pro" font-size="16.00">Illumination&#45;Engine</text>
<text text-anchor="start" x="1046" y="-27.7" font-family="Source Sans Pro" font-size="16.00">/src/GraphicsModule</text>
<text text-anchor="middle" x="1141.5" y="-9.7" font-family="Source Sans Pro" font-size="16.00">/Shader/IEDescriptorSet.cpp</text>
</a>
</g>
</g>
<!-- Node6&#45;&gt;Node18 -->
<g id="edge20" class="edge">
<title>Node6&#45;&gt;Node18</title>
<path fill="none" stroke="midnightblue" d="M1829.05,-104.86C1822.54,-102.59 1815.96,-100.58 1809.5,-99 1569.35,-40.44 1498.36,-103.41 1254.5,-63 1251.39,-62.49 1248.25,-61.92 1245.08,-61.31"/>
<polygon fill="midnightblue" stroke="midnightblue" points="1827.93,-108.18 1838.52,-108.37 1830.36,-101.62 1827.93,-108.18"/>
</g>
<!-- Node6&#45;&gt;Node19 -->
<g id="edge21" class="edge">
<title>Node6&#45;&gt;Node19</title>
<path fill="none" stroke="midnightblue" d="M1990.02,-124.94C2053.31,-116.02 2139.87,-104.93 2216.5,-99 2477.4,-78.8 3135.55,-107.04 3393.5,-63 3396.78,-62.44 3400.09,-61.8 3403.43,-61.08"/>
<polygon fill="midnightblue" stroke="midnightblue" points="1989.48,-121.48 1980.07,-126.35 1990.46,-128.41 1989.48,-121.48"/>
</g>
<!-- Node20 -->
<g id="node20" class="node">
<title>Node20</title>
<g id="a_node20"><a xlink:href="_i_e_shader_8cpp.html" target="_top" xlink:title=" ">
<polygon fill="white" stroke="black" points="1263.5,-0.5 1263.5,-62.5 1427.5,-62.5 1427.5,-0.5 1263.5,-0.5"/>
<text text-anchor="start" x="1271.5" y="-45.7" font-family="Source Sans Pro" font-size="16.00">Illumination&#45;Engine</text>
<text text-anchor="start" x="1271.5" y="-27.7" font-family="Source Sans Pro" font-size="16.00">/src/GraphicsModule</text>
<text text-anchor="middle" x="1345.5" y="-9.7" font-family="Source Sans Pro" font-size="16.00">/Shader/IEShader.cpp</text>
</a>
</g>
</g>
<!-- Node6&#45;&gt;Node20 -->
<g id="edge22" class="edge">
<title>Node6&#45;&gt;Node20</title>
<path fill="none" stroke="midnightblue" d="M1828.21,-104.8C1821.97,-102.59 1815.68,-100.61 1809.5,-99 1648.33,-57.01 1599.4,-97.69 1436.5,-63 1433.57,-62.38 1430.6,-61.69 1427.61,-60.95"/>
<polygon fill="midnightblue" stroke="midnightblue" points="1827.37,-108.22 1837.96,-108.45 1829.82,-101.67 1827.37,-108.22"/>
</g>
<!-- Node21 -->
<g id="node21" class="node">
<title>Node21</title>
<g id="a_node21"><a xlink:href="main_8cpp.html" target="_top" xlink:title=" ">
<polygon fill="white" stroke="black" points="1445.5,-9.5 1445.5,-53.5 1595.5,-53.5 1595.5,-9.5 1445.5,-9.5"/>
<text text-anchor="start" x="1453.5" y="-36.7" font-family="Source Sans Pro" font-size="16.00">Illumination&#45;Engine</text>
<text text-anchor="middle" x="1520.5" y="-18.7" font-family="Source Sans Pro" font-size="16.00">/src/main.cpp</text>
</a>
</g>
</g>
<!-- Node6&#45;&gt;Node21 -->
<g id="edge23" class="edge">
<title>Node6&#45;&gt;Node21</title>
<path fill="none" stroke="midnightblue" d="M1826.35,-104.69C1820.7,-102.6 1815.05,-100.68 1809.5,-99 1720.96,-72.22 1693.87,-86.88 1604.5,-63 1594.61,-60.36 1584.23,-57.05 1574.28,-53.6"/>
<polygon fill="midnightblue" stroke="midnightblue" points="1825.21,-108 1835.8,-108.32 1827.72,-101.47 1825.21,-108"/>
</g>
<!-- Node22&#45;&gt;Node6 -->
<g id="edge27" class="edge">
<title>Node22&#45;&gt;Node6</title>
<path fill="none" stroke="midnightblue" d="M1899.5,-206.31C1899.5,-194.48 1899.5,-181.75 1899.5,-170.67"/>
<polygon fill="midnightblue" stroke="midnightblue" points="1896,-206.41 1899.5,-216.41 1903,-206.41 1896,-206.41"/>
</g>
<!-- Node22&#45;&gt;Node13 -->
<g id="edge28" class="edge">
<title>Node22&#45;&gt;Node13</title>
<path fill="none" stroke="midnightblue" d="M1967.18,-211.81C2030.6,-180.07 2128.55,-133.02 2216.5,-99 2250.82,-85.72 2289.01,-73.14 2323.46,-62.57"/>
<polygon fill="midnightblue" stroke="midnightblue" points="1965.44,-208.76 1958.07,-216.38 1968.58,-215.02 1965.44,-208.76"/>
</g>
<!-- Node22&#45;&gt;Node14 -->
<g id="edge29" class="edge">
<title>Node22&#45;&gt;Node14</title>
<path fill="none" stroke="midnightblue" d="M1775.81,-216.06C1775.7,-216.04 1775.6,-216.02 1775.5,-216 1662.68,-194.25 1632.7,-199.66 1519.5,-180 1344.65,-149.63 1303.52,-128.38 1128.5,-99 1005.2,-78.3 972.36,-86.2 849.5,-63 846.71,-62.47 843.89,-61.92 841.05,-61.35"/>
<polygon fill="midnightblue" stroke="midnightblue" points="1774.92,-219.45 1785.41,-217.98 1776.29,-212.59 1774.92,-219.45"/>
</g>
<!-- Node23 -->
<g id="node23" class="node">
<title>Node23</title>
<g id="a_node23"><a xlink:href="_i_e_render_pass_begin_info_8cpp.html" target="_top" xlink:title=" ">
<polygon fill="white" stroke="black" points="1528.5,-99.5 1528.5,-179.5 1800.5,-179.5 1800.5,-99.5 1528.5,-99.5"/>
<text text-anchor="start" x="1536.5" y="-162.7" font-family="Source Sans Pro" font-size="16.00">Illumination&#45;Engine</text>
<text text-anchor="start" x="1536.5" y="-144.7" font-family="Source Sans Pro" font-size="16.00">/src/GraphicsModule</text>
<text text-anchor="start" x="1536.5" y="-126.7" font-family="Source Sans Pro" font-size="16.00">/CommandBuffer/DependencyStructs</text>
<text text-anchor="middle" x="1664.5" y="-108.7" font-family="Source Sans Pro" font-size="16.00">/IERenderPassBeginInfo.cpp</text>
</a>
</g>
</g>
<!-- Node22&#45;&gt;Node23 -->
<g id="edge25" class="edge">
<title>Node22&#45;&gt;Node23</title>
<path fill="none" stroke="midnightblue" d="M1823.41,-212.18C1800.35,-201.78 1774.86,-190.28 1751.17,-179.59"/>
<polygon fill="midnightblue" stroke="midnightblue" points="1822.23,-215.49 1832.79,-216.41 1825.11,-209.11 1822.23,-215.49"/>
</g>
<!-- Node22&#45;&gt;Node24 -->
<g id="edge26" class="edge">
<title>Node22&#45;&gt;Node24</title>
<path fill="none" stroke="midnightblue" d="M2023.61,-217.84C2087.02,-203.19 2164.15,-185.38 2228.4,-170.55"/>
<polygon fill="midnightblue" stroke="midnightblue" points="2022.51,-214.5 2013.55,-220.16 2024.08,-221.32 2022.51,-214.5"/>
</g>
<!-- Node25&#45;&gt;Node15 -->
<g id="edge32" class="edge">
<title>Node25&#45;&gt;Node15</title>
<path fill="none" stroke="midnightblue" d="M2857.32,-307.02C2899.59,-244.02 2982.69,-120.16 3021.12,-62.88"/>
<polygon fill="midnightblue" stroke="midnightblue" points="2854.3,-305.23 2851.64,-315.49 2860.11,-309.13 2854.3,-305.23"/>
</g>
<!-- Node25&#45;&gt;Node16 -->
<g id="edge33" class="edge">
<title>Node25&#45;&gt;Node16</title>
<path fill="none" stroke="midnightblue" d="M2831.5,-305.46C2831.5,-241.99 2831.5,-119.69 2831.5,-62.88"/>
<polygon fill="midnightblue" stroke="midnightblue" points="2828,-305.49 2831.5,-315.49 2835,-305.49 2828,-305.49"/>
</g>
<!-- Node25&#45;&gt;Node17 -->
<g id="edge34" class="edge">
<title>Node25&#45;&gt;Node17</title>
<path fill="none" stroke="midnightblue" d="M2881.97,-309.68C2969.6,-247.48 3148.31,-120.64 3230.02,-62.65"/>
<polygon fill="midnightblue" stroke="midnightblue" points="2879.91,-306.85 2873.78,-315.49 2883.97,-312.55 2879.91,-306.85"/>
</g>
<!-- Node25&#45;&gt;Node26 -->
<g id="edge35" class="edge">
<title>Node25&#45;&gt;Node26</title>
<path fill="none" stroke="midnightblue" d="M2764,-310.86C2743.42,-300.3 2720.99,-288.78 2701.06,-278.55"/>
<polygon fill="midnightblue" stroke="midnightblue" points="2762.5,-314.02 2772.99,-315.47 2765.69,-307.79 2762.5,-314.02"/>
</g>
<!-- Node26&#45;&gt;Node6 -->
<g id="edge37" class="edge">
<title>Node26&#45;&gt;Node6</title>
<path fill="none" stroke="midnightblue" d="M2518.93,-228.87C2366.01,-207.06 2110,-170.53 1980.21,-152.01"/>
<polygon fill="midnightblue" stroke="midnightblue" points="2518.45,-232.34 2528.85,-230.29 2519.44,-225.41 2518.45,-232.34"/>
</g>
<!-- Node26&#45;&gt;Node10 -->
<g id="edge36" class="edge">
<title>Node26&#45;&gt;Node10</title>
<path fill="none" stroke="midnightblue" d="M2642.5,-206.19C2642.5,-164.41 2642.5,-100.08 2642.5,-62.55"/>
<polygon fill="midnightblue" stroke="midnightblue" points="2639,-206.29 2642.5,-216.29 2646,-206.29 2639,-206.29"/>
</g>
<!-- Node26&#45;&gt;Node17 -->
<g id="edge38" class="edge">
<title>Node26&#45;&gt;Node17</title>
<path fill="none" stroke="midnightblue" d="M2740.78,-213.12C2862.33,-171.83 3067.42,-102.16 3184.18,-62.5"/>
<polygon fill="midnightblue" stroke="midnightblue" points="2739.44,-209.88 2731.09,-216.41 2741.69,-216.5 2739.44,-209.88"/>
</g>
</g>
</svg>
