<?xml version="1.0" encoding="UTF-8" standalone="no"?>
<!DOCTYPE svg PUBLIC "-//W3C//DTD SVG 1.1//EN"
 "http://www.w3.org/Graphics/SVG/1.1/DTD/svg11.dtd">
<!-- Generated by graphviz version 2.43.0 (0)
 -->
<!-- Title: Illumination&#45;Engine/src/Core/FileSystemModule/IEFileSystem.hpp Pages: 1 -->
<svg width="550pt" height="260pt"
 viewBox="0.00 0.00 549.79 260.00" xmlns="http://www.w3.org/2000/svg" xmlns:xlink="http://www.w3.org/1999/xlink">
<g id="graph0" class="graph" transform="scale(1 1) rotate(0) translate(4 256)">
<title>Illumination&#45;Engine/src/Core/FileSystemModule/IEFileSystem.hpp</title>
<polygon fill="white" stroke="transparent" points="-4,4 -4,-256 545.79,-256 545.79,4 -4,4"/>
<!-- Node1 -->
<g id="node1" class="node">
<title>Node1</title>
<g id="a_node1"><a xlink:title=" ">
<polygon fill="#bfbfbf" stroke="black" points="83.29,-189.5 83.29,-251.5 290.29,-251.5 290.29,-189.5 83.29,-189.5"/>
<text text-anchor="start" x="91.29" y="-234.7" font-family="Source Sans Pro" font-size="16.00">Illumination&#45;Engine</text>
<text text-anchor="start" x="91.29" y="-216.7" font-family="Source Sans Pro" font-size="16.00">/src/Core/FileSystemModule</text>
<text text-anchor="middle" x="186.79" y="-198.7" font-family="Source Sans Pro" font-size="16.00">/IEFileSystem.hpp</text>
</a>
</g>
</g>
<!-- Node2 -->
<g id="node2" class="node">
<title>Node2</title>
<g id="a_node2"><a xlink:href="_i_e_file_8hpp.html" target="_top" xlink:title=" ">
<polygon fill="white" stroke="black" points="195.79,-63.5 195.79,-89.5 279.79,-89.5 279.79,-63.5 195.79,-63.5"/>
<text text-anchor="middle" x="237.79" y="-72.7" font-family="Source Sans Pro" font-size="16.00">IEFile.hpp</text>
</a>
</g>
</g>
<!-- Node1&#45;&gt;Node2 -->
<g id="edge1" class="edge">
<title>Node1&#45;&gt;Node2</title>
<path fill="none" stroke="midnightblue" d="M197.61,-189.39C207.29,-162.44 221.25,-123.57 229.91,-99.46"/>
<polygon fill="midnightblue" stroke="midnightblue" points="233.29,-100.4 233.37,-89.81 226.7,-98.04 233.29,-100.4"/>
</g>
<!-- Node3 -->
<g id="node3" class="node">
<title>Node3</title>
<g id="a_node3"><a xlink:title=" ">
<polygon fill="white" stroke="#bfbfbf" points="49.29,-0.5 49.29,-26.5 108.29,-26.5 108.29,-0.5 49.29,-0.5"/>
<text text-anchor="middle" x="78.79" y="-9.7" font-family="Source Sans Pro" font-size="16.00">vector</text>
</a>
</g>
</g>
<!-- Node1&#45;&gt;Node3 -->
<g id="edge11" class="edge">
<title>Node1&#45;&gt;Node3</title>
<path fill="none" stroke="midnightblue" d="M83.01,-203.45C54.25,-193.71 26.19,-178.07 8.79,-153 -18.84,-113.17 26.95,-60.92 56.6,-33.37"/>
<polygon fill="midnightblue" stroke="midnightblue" points="59.02,-35.91 64.1,-26.61 54.33,-30.71 59.02,-35.91"/>
</g>
<!-- Node4 -->
<g id="node4" class="node">
<title>Node4</title>
<g id="a_node4"><a xlink:title=" ">
<polygon fill="white" stroke="#bfbfbf" points="132.29,-0.5 132.29,-26.5 187.29,-26.5 187.29,-0.5 132.29,-0.5"/>
<text text-anchor="middle" x="159.79" y="-9.7" font-family="Source Sans Pro" font-size="16.00">string</text>
</a>
</g>
</g>
<!-- Node1&#45;&gt;Node4 -->
<g id="edge12" class="edge">
<title>Node1&#45;&gt;Node4</title>
<path fill="none" stroke="midnightblue" d="M182.81,-189.25C177.33,-147.67 167.6,-73.8 162.74,-36.85"/>
<polygon fill="midnightblue" stroke="midnightblue" points="166.17,-36.1 161.39,-26.64 159.23,-37.01 166.17,-36.1"/>
</g>
<!-- Node9 -->
<g id="node9" class="node">
<title>Node9</title>
<g id="a_node9"><a xlink:href="_i_e_directory_8hpp.html" target="_top" xlink:title=" ">
<polygon fill="white" stroke="black" points="17.79,-126.5 17.79,-152.5 139.79,-152.5 139.79,-126.5 17.79,-126.5"/>
<text text-anchor="middle" x="78.79" y="-135.7" font-family="Source Sans Pro" font-size="16.00">IEDirectory.hpp</text>
</a>
</g>
</g>
<!-- Node1&#45;&gt;Node9 -->
<g id="edge8" class="edge">
<title>Node1&#45;&gt;Node9</title>
<path fill="none" stroke="midnightblue" d="M145.66,-189.41C131.42,-178.99 115.91,-167.65 103.42,-158.51"/>
<polygon fill="midnightblue" stroke="midnightblue" points="105.44,-155.66 95.3,-152.58 101.31,-161.31 105.44,-155.66"/>
</g>
<!-- Node10 -->
<g id="node10" class="node">
<title>Node10</title>
<g id="a_node10"><a xlink:title=" ">
<polygon fill="white" stroke="#bfbfbf" points="233.79,-126.5 233.79,-152.5 361.79,-152.5 361.79,-126.5 233.79,-126.5"/>
<text text-anchor="middle" x="297.79" y="-135.7" font-family="Source Sans Pro" font-size="16.00">unordered_map</text>
</a>
</g>
</g>
<!-- Node1&#45;&gt;Node10 -->
<g id="edge13" class="edge">
<title>Node1&#45;&gt;Node10</title>
<path fill="none" stroke="midnightblue" d="M229.07,-189.41C243.71,-178.99 259.65,-167.65 272.49,-158.51"/>
<polygon fill="midnightblue" stroke="midnightblue" points="274.71,-161.23 280.82,-152.58 270.65,-155.52 274.71,-161.23"/>
</g>
<!-- Node11 -->
<g id="node11" class="node">
<title>Node11</title>
<g id="a_node11"><a xlink:title=" ">
<polygon fill="white" stroke="#bfbfbf" points="379.79,-126.5 379.79,-152.5 443.79,-152.5 443.79,-126.5 379.79,-126.5"/>
<text text-anchor="middle" x="411.79" y="-135.7" font-family="Source Sans Pro" font-size="16.00">variant</text>
</a>
</g>
</g>
<!-- Node1&#45;&gt;Node11 -->
<g id="edge14" class="edge">
<title>Node1&#45;&gt;Node11</title>
<path fill="none" stroke="midnightblue" d="M272.5,-189.41C305.9,-177.68 342.65,-164.78 370.01,-155.17"/>
<polygon fill="midnightblue" stroke="midnightblue" points="371.37,-158.4 379.64,-151.79 369.05,-151.8 371.37,-158.4"/>
</g>
<!-- Node2&#45;&gt;Node3 -->
<g id="edge2" class="edge">
<title>Node2&#45;&gt;Node3</title>
<path fill="none" stroke="midnightblue" d="M206.38,-63.45C181.07,-53.74 145.35,-40.03 118.13,-29.59"/>
<polygon fill="midnightblue" stroke="midnightblue" points="119.12,-26.22 108.53,-25.91 116.61,-32.76 119.12,-26.22"/>
</g>
<!-- Node2&#45;&gt;Node4 -->
<g id="edge3" class="edge">
<title>Node2&#45;&gt;Node4</title>
<path fill="none" stroke="midnightblue" d="M222.38,-63.45C211.17,-54.68 195.78,-42.64 183.07,-32.7"/>
<polygon fill="midnightblue" stroke="midnightblue" points="185.21,-29.93 175.17,-26.53 180.89,-35.44 185.21,-29.93"/>
</g>
<!-- Node5 -->
<g id="node5" class="node">
<title>Node5</title>
<g id="a_node5"><a xlink:title=" ">
<polygon fill="white" stroke="#bfbfbf" points="370.29,-0.5 370.29,-26.5 455.29,-26.5 455.29,-0.5 370.29,-0.5"/>
<text text-anchor="middle" x="412.79" y="-9.7" font-family="Source Sans Pro" font-size="16.00">filesystem</text>
</a>
</g>
</g>
<!-- Node2&#45;&gt;Node5 -->
<g id="edge4" class="edge">
<title>Node2&#45;&gt;Node5</title>
<path fill="none" stroke="midnightblue" d="M272.37,-63.45C299.93,-53.84 338.72,-40.32 368.55,-29.92"/>
<polygon fill="midnightblue" stroke="midnightblue" points="370,-33.12 378.29,-26.53 367.7,-26.51 370,-33.12"/>
</g>
<!-- Node6 -->
<g id="node6" class="node">
<title>Node6</title>
<g id="a_node6"><a xlink:title=" ">
<polygon fill="white" stroke="#bfbfbf" points="473.79,-0.5 473.79,-26.5 541.79,-26.5 541.79,-0.5 473.79,-0.5"/>
<text text-anchor="middle" x="507.79" y="-9.7" font-family="Source Sans Pro" font-size="16.00">fstream</text>
</a>
</g>
</g>
<!-- Node2&#45;&gt;Node6 -->
<g id="edge5" class="edge">
<title>Node2&#45;&gt;Node6</title>
<path fill="none" stroke="midnightblue" d="M279.84,-67.46C323.51,-58.91 394.01,-44.51 463.75,-27.15"/>
<polygon fill="midnightblue" stroke="midnightblue" points="464.74,-30.52 473.59,-24.69 463.04,-23.73 464.74,-30.52"/>
</g>
<!-- Node7 -->
<g id="node7" class="node">
<title>Node7</title>
<g id="a_node7"><a xlink:title=" ">
<polygon fill="white" stroke="#bfbfbf" points="205.79,-0.5 205.79,-26.5 257.79,-26.5 257.79,-0.5 205.79,-0.5"/>
<text text-anchor="middle" x="231.79" y="-9.7" font-family="Source Sans Pro" font-size="16.00">regex</text>
</a>
</g>
</g>
<!-- Node2&#45;&gt;Node7 -->
<g id="edge6" class="edge">
<title>Node2&#45;&gt;Node7</title>
<path fill="none" stroke="midnightblue" d="M236.61,-63.45C235.85,-55.76 234.85,-45.57 233.96,-36.48"/>
<polygon fill="midnightblue" stroke="midnightblue" points="237.44,-36.14 232.98,-26.53 230.47,-36.82 237.44,-36.14"/>
</g>
<!-- Node8 -->
<g id="node8" class="node">
<title>Node8</title>
<g id="a_node8"><a xlink:title=" ">
<polygon fill="white" stroke="#bfbfbf" points="275.79,-0.5 275.79,-26.5 351.79,-26.5 351.79,-0.5 275.79,-0.5"/>
<text text-anchor="middle" x="313.79" y="-9.7" font-family="Source Sans Pro" font-size="16.00">iostream</text>
</a>
</g>
</g>
<!-- Node2&#45;&gt;Node8 -->
<g id="edge7" class="edge">
<title>Node2&#45;&gt;Node8</title>
<path fill="none" stroke="midnightblue" d="M252.81,-63.45C263.63,-54.76 278.45,-42.87 290.76,-32.99"/>
<polygon fill="midnightblue" stroke="midnightblue" points="293.2,-35.52 298.81,-26.53 288.82,-30.06 293.2,-35.52"/>
</g>
<!-- Node9&#45;&gt;Node2 -->
<g id="edge9" class="edge">
<title>Node9&#45;&gt;Node2</title>
<path fill="none" stroke="midnightblue" d="M110.21,-126.45C135.03,-116.92 169.88,-103.55 196.88,-93.19"/>
<polygon fill="midnightblue" stroke="midnightblue" points="198.36,-96.38 206.45,-89.53 195.86,-89.84 198.36,-96.38"/>
</g>
<!-- Node9&#45;&gt;Node3 -->
<g id="edge10" class="edge">
<title>Node9&#45;&gt;Node3</title>
<path fill="none" stroke="midnightblue" d="M78.79,-126.16C78.79,-105.36 78.79,-63.05 78.79,-36.9"/>
<polygon fill="midnightblue" stroke="midnightblue" points="82.29,-36.79 78.79,-26.79 75.29,-36.79 82.29,-36.79"/>
</g>
</g>
</svg>
