<?xml version="1.0" encoding="UTF-8" standalone="no"?>
<!DOCTYPE svg PUBLIC "-//W3C//DTD SVG 1.1//EN"
 "http://www.w3.org/Graphics/SVG/1.1/DTD/svg11.dtd">
<!-- Generated by graphviz version 2.43.0 (0)
 -->
<!-- Title: Illumination&#45;Engine/src/GraphicsModule/Renderable/IERenderable.hpp Pages: 1 -->
<svg width="3583pt" height="269pt"
 viewBox="0.00 0.00 3583.00 269.00" xmlns="http://www.w3.org/2000/svg" xmlns:xlink="http://www.w3.org/1999/xlink">
<g id="graph0" class="graph" transform="scale(1 1) rotate(0) translate(4 265)">
<title>Illumination&#45;Engine/src/GraphicsModule/Renderable/IERenderable.hpp</title>
<polygon fill="white" stroke="transparent" points="-4,4 -4,-265 3579,-265 3579,4 -4,4"/>
<!-- Node1 -->
<g id="node1" class="node">
<title>Node1</title>
<g id="a_node1"><a xlink:title=" ">
<polygon fill="#bfbfbf" stroke="black" points="1672,-198.5 1672,-260.5 1899,-260.5 1899,-198.5 1672,-198.5"/>
<text text-anchor="start" x="1680" y="-243.7" font-family="Source Sans Pro" font-size="16.00">Illumination&#45;Engine</text>
<text text-anchor="start" x="1680" y="-225.7" font-family="Source Sans Pro" font-size="16.00">/src/GraphicsModule</text>
<text text-anchor="middle" x="1785.5" y="-207.7" font-family="Source Sans Pro" font-size="16.00">/Renderable/IERenderable.hpp</text>
</a>
</g>
</g>
<!-- Node2 -->
<g id="node2" class="node">
<title>Node2</title>
<g id="a_node2"><a xlink:href="_i_e_render_engine_8cpp.html" target="_top" xlink:title=" ">
<polygon fill="white" stroke="black" points="0,-0.5 0,-62.5 159,-62.5 159,-0.5 0,-0.5"/>
<text text-anchor="start" x="8" y="-45.7" font-family="Source Sans Pro" font-size="16.00">Illumination&#45;Engine</text>
<text text-anchor="start" x="8" y="-27.7" font-family="Source Sans Pro" font-size="16.00">/src/GraphicsModule</text>
<text text-anchor="middle" x="79.5" y="-9.7" font-family="Source Sans Pro" font-size="16.00">/IERenderEngine.cpp</text>
</a>
</g>
</g>
<!-- Node1&#45;&gt;Node2 -->
<g id="edge1" class="edge">
<title>Node1&#45;&gt;Node2</title>
<path fill="none" stroke="midnightblue" d="M1661.43,-225.57C1388.29,-217.01 715.64,-184.3 167.5,-63 164.82,-62.41 162.1,-61.76 159.37,-61.06"/>
<polygon fill="midnightblue" stroke="midnightblue" points="1661.66,-229.08 1671.77,-225.89 1661.88,-222.09 1661.66,-229.08"/>
</g>
<!-- Node3 -->
<g id="node3" class="node">
<title>Node3</title>
<g id="a_node3"><a xlink:href="_i_e_render_engine_8hpp.html" target="_top" xlink:title=" ">
<polygon fill="white" stroke="black" points="1705,-99.5 1705,-161.5 1866,-161.5 1866,-99.5 1705,-99.5"/>
<text text-anchor="start" x="1713" y="-144.7" font-family="Source Sans Pro" font-size="16.00">Illumination&#45;Engine</text>
<text text-anchor="start" x="1713" y="-126.7" font-family="Source Sans Pro" font-size="16.00">/src/GraphicsModule</text>
<text text-anchor="middle" x="1785.5" y="-108.7" font-family="Source Sans Pro" font-size="16.00">/IERenderEngine.hpp</text>
</a>
</g>
</g>
<!-- Node1&#45;&gt;Node3 -->
<g id="edge2" class="edge">
<title>Node1&#45;&gt;Node3</title>
<path fill="none" stroke="midnightblue" d="M1785.5,-188.17C1785.5,-179.29 1785.5,-170.03 1785.5,-161.64"/>
<polygon fill="midnightblue" stroke="midnightblue" points="1782,-188.34 1785.5,-198.34 1789,-188.34 1782,-188.34"/>
</g>
<!-- Node15 -->
<g id="node15" class="node">
<title>Node15</title>
<g id="a_node15"><a xlink:href="_i_e_renderable_8cpp.html" target="_top" xlink:title=" ">
<polygon fill="white" stroke="black" points="3350,-0.5 3350,-62.5 3575,-62.5 3575,-0.5 3350,-0.5"/>
<text text-anchor="start" x="3358" y="-45.7" font-family="Source Sans Pro" font-size="16.00">Illumination&#45;Engine</text>
<text text-anchor="start" x="3358" y="-27.7" font-family="Source Sans Pro" font-size="16.00">/src/GraphicsModule</text>
<text text-anchor="middle" x="3462.5" y="-9.7" font-family="Source Sans Pro" font-size="16.00">/Renderable/IERenderable.cpp</text>
</a>
</g>
</g>
<!-- Node1&#45;&gt;Node15 -->
<g id="edge20" class="edge">
<title>Node1&#45;&gt;Node15</title>
<path fill="none" stroke="midnightblue" d="M1909.44,-221.18C2173.94,-204.27 2812.65,-156.6 3340.5,-63 3343.62,-62.45 3346.77,-61.86 3349.95,-61.24"/>
<polygon fill="midnightblue" stroke="midnightblue" points="1909.18,-217.69 1899.42,-221.82 1909.63,-224.67 1909.18,-217.69"/>
</g>
<!-- Node3&#45;&gt;Node2 -->
<g id="edge8" class="edge">
<title>Node3&#45;&gt;Node2</title>
<path fill="none" stroke="midnightblue" d="M1694.91,-126.51C1364.97,-115.52 242.83,-77.28 167.5,-63 164.8,-62.49 162.07,-61.91 159.33,-61.28"/>
<polygon fill="midnightblue" stroke="midnightblue" points="1694.8,-130.01 1704.91,-126.84 1695.03,-123.01 1694.8,-130.01"/>
</g>
<!-- Node4 -->
<g id="node4" class="node">
<title>Node4</title>
<g id="a_node4"><a xlink:href="_i_e_buffer_8cpp.html" target="_top" xlink:title=" ">
<polygon fill="white" stroke="black" points="177,-0.5 177,-62.5 334,-62.5 334,-0.5 177,-0.5"/>
<text text-anchor="start" x="185" y="-45.7" font-family="Source Sans Pro" font-size="16.00">Illumination&#45;Engine</text>
<text text-anchor="start" x="185" y="-27.7" font-family="Source Sans Pro" font-size="16.00">/src/GraphicsModule</text>
<text text-anchor="middle" x="255.5" y="-9.7" font-family="Source Sans Pro" font-size="16.00">/Buffer/IEBuffer.cpp</text>
</a>
</g>
</g>
<!-- Node3&#45;&gt;Node4 -->
<g id="edge3" class="edge">
<title>Node3&#45;&gt;Node4</title>
<path fill="none" stroke="midnightblue" d="M1694.26,-126.84C1398.01,-117.98 474.5,-88.61 342.5,-63 339.83,-62.48 337.13,-61.9 334.42,-61.26"/>
<polygon fill="midnightblue" stroke="midnightblue" points="1694.43,-130.34 1704.53,-127.14 1694.64,-123.35 1694.43,-130.34"/>
</g>
<!-- Node5 -->
<g id="node5" class="node">
<title>Node5</title>
<g id="a_node5"><a xlink:href="_i_e_command_buffer_8cpp.html" target="_top" xlink:title=" ">
<polygon fill="white" stroke="black" points="352,-0.5 352,-62.5 645,-62.5 645,-0.5 352,-0.5"/>
<text text-anchor="start" x="360" y="-45.7" font-family="Source Sans Pro" font-size="16.00">Illumination&#45;Engine</text>
<text text-anchor="start" x="360" y="-27.7" font-family="Source Sans Pro" font-size="16.00">/src/GraphicsModule</text>
<text text-anchor="middle" x="498.5" y="-9.7" font-family="Source Sans Pro" font-size="16.00">/CommandBuffer/IECommandBuffer.cpp</text>
</a>
</g>
</g>
<!-- Node3&#45;&gt;Node5 -->
<g id="edge4" class="edge">
<title>Node3&#45;&gt;Node5</title>
<path fill="none" stroke="midnightblue" d="M1694.87,-128.3C1502.49,-124.84 1039.35,-111.71 654.5,-63 651.49,-62.62 648.45,-62.21 645.39,-61.79"/>
<polygon fill="midnightblue" stroke="midnightblue" points="1694.88,-131.8 1704.94,-128.47 1695,-124.8 1694.88,-131.8"/>
</g>
<!-- Node6 -->
<g id="node6" class="node">
<title>Node6</title>
<g id="a_node6"><a xlink:href="_i_e_command_pool_8cpp.html" target="_top" xlink:title=" ">
<polygon fill="white" stroke="black" points="663.5,-0.5 663.5,-62.5 947.5,-62.5 947.5,-0.5 663.5,-0.5"/>
<text text-anchor="start" x="671.5" y="-45.7" font-family="Source Sans Pro" font-size="16.00">Illumination&#45;Engine</text>
<text text-anchor="start" x="671.5" y="-27.7" font-family="Source Sans Pro" font-size="16.00">/src/GraphicsModule</text>
<text text-anchor="middle" x="805.5" y="-9.7" font-family="Source Sans Pro" font-size="16.00">/CommandBuffer/IECommandPool.cpp</text>
</a>
</g>
</g>
<!-- Node3&#45;&gt;Node6 -->
<g id="edge5" class="edge">
<title>Node3&#45;&gt;Node6</title>
<path fill="none" stroke="midnightblue" d="M1694.55,-125.76C1541.57,-118.67 1223.28,-100.51 956.5,-63 953.59,-62.59 950.65,-62.16 947.68,-61.71"/>
<polygon fill="midnightblue" stroke="midnightblue" points="1694.68,-129.27 1704.83,-126.23 1695,-122.27 1694.68,-129.27"/>
</g>
<!-- Node7 -->
<g id="node7" class="node">
<title>Node7</title>
<g id="a_node7"><a xlink:href="_i_e_a_p_i_8cpp.html" target="_top" xlink:title=" ">
<polygon fill="white" stroke="black" points="966,-0.5 966,-62.5 1123,-62.5 1123,-0.5 966,-0.5"/>
<text text-anchor="start" x="974" y="-45.7" font-family="Source Sans Pro" font-size="16.00">Illumination&#45;Engine</text>
<text text-anchor="start" x="974" y="-27.7" font-family="Source Sans Pro" font-size="16.00">/src/GraphicsModule</text>
<text text-anchor="middle" x="1044.5" y="-9.7" font-family="Source Sans Pro" font-size="16.00">/IEAPI.cpp</text>
</a>
</g>
</g>
<!-- Node3&#45;&gt;Node7 -->
<g id="edge6" class="edge">
<title>Node3&#45;&gt;Node7</title>
<path fill="none" stroke="midnightblue" d="M1694.91,-127.02C1567.67,-122.02 1329.44,-107.11 1131.5,-63 1128.84,-62.41 1126.16,-61.76 1123.46,-61.07"/>
<polygon fill="midnightblue" stroke="midnightblue" points="1694.87,-130.52 1705,-127.41 1695.14,-123.53 1694.87,-130.52"/>
</g>
<!-- Node8 -->
<g id="node8" class="node">
<title>Node8</title>
<g id="a_node8"><a xlink:href="_i_e_camera_8cpp.html" target="_top" xlink:title=" ">
<polygon fill="white" stroke="black" points="1141,-0.5 1141,-62.5 1298,-62.5 1298,-0.5 1141,-0.5"/>
<text text-anchor="start" x="1149" y="-45.7" font-family="Source Sans Pro" font-size="16.00">Illumination&#45;Engine</text>
<text text-anchor="start" x="1149" y="-27.7" font-family="Source Sans Pro" font-size="16.00">/src/GraphicsModule</text>
<text text-anchor="middle" x="1219.5" y="-9.7" font-family="Source Sans Pro" font-size="16.00">/IECamera.cpp</text>
</a>
</g>
</g>
<!-- Node3&#45;&gt;Node8 -->
<g id="edge7" class="edge">
<title>Node3&#45;&gt;Node8</title>
<path fill="none" stroke="midnightblue" d="M1694.84,-122.34C1597.76,-113.41 1439.69,-95.25 1306.5,-63 1303.7,-62.32 1300.86,-61.59 1298.01,-60.81"/>
<polygon fill="midnightblue" stroke="midnightblue" points="1694.64,-125.83 1704.92,-123.25 1695.27,-118.86 1694.64,-125.83"/>
</g>
<!-- Node9 -->
<g id="node9" class="node">
<title>Node9</title>
<g id="a_node9"><a xlink:href="_i_e_image_8cpp.html" target="_top" xlink:title=" ">
<polygon fill="white" stroke="black" points="1316,-0.5 1316,-62.5 1473,-62.5 1473,-0.5 1316,-0.5"/>
<text text-anchor="start" x="1324" y="-45.7" font-family="Source Sans Pro" font-size="16.00">Illumination&#45;Engine</text>
<text text-anchor="start" x="1324" y="-27.7" font-family="Source Sans Pro" font-size="16.00">/src/GraphicsModule</text>
<text text-anchor="middle" x="1394.5" y="-9.7" font-family="Source Sans Pro" font-size="16.00">/Image/IEImage.cpp</text>
</a>
</g>
</g>
<!-- Node3&#45;&gt;Node9 -->
<g id="edge9" class="edge">
<title>Node3&#45;&gt;Node9</title>
<path fill="none" stroke="midnightblue" d="M1694.87,-112.68C1634.05,-100.66 1552.4,-83.1 1481.5,-63 1478.73,-62.21 1475.92,-61.39 1473.08,-60.53"/>
<polygon fill="midnightblue" stroke="midnightblue" points="1694.34,-116.14 1704.83,-114.64 1695.69,-109.28 1694.34,-116.14"/>
</g>
<!-- Node10 -->
<g id="node10" class="node">
<title>Node10</title>
<g id="a_node10"><a xlink:href="_i_e_texture_8cpp.html" target="_top" xlink:title=" ">
<polygon fill="white" stroke="black" points="1491,-0.5 1491,-62.5 1652,-62.5 1652,-0.5 1491,-0.5"/>
<text text-anchor="start" x="1499" y="-45.7" font-family="Source Sans Pro" font-size="16.00">Illumination&#45;Engine</text>
<text text-anchor="start" x="1499" y="-27.7" font-family="Source Sans Pro" font-size="16.00">/src/GraphicsModule</text>
<text text-anchor="middle" x="1571.5" y="-9.7" font-family="Source Sans Pro" font-size="16.00">/Image/IETexture.cpp</text>
</a>
</g>
</g>
<!-- Node3&#45;&gt;Node10 -->
<g id="edge10" class="edge">
<title>Node3&#45;&gt;Node10</title>
<path fill="none" stroke="midnightblue" d="M1710.01,-95.28C1686.46,-84.61 1660.67,-72.92 1637.8,-62.55"/>
<polygon fill="midnightblue" stroke="midnightblue" points="1708.7,-98.53 1719.25,-99.47 1711.59,-92.16 1708.7,-98.53"/>
</g>
<!-- Node11 -->
<g id="node11" class="node">
<title>Node11</title>
<g id="a_node11"><a xlink:href="_i_e_framebuffer_8cpp.html" target="_top" xlink:title=" ">
<polygon fill="white" stroke="black" points="1670.5,-0.5 1670.5,-62.5 1900.5,-62.5 1900.5,-0.5 1670.5,-0.5"/>
<text text-anchor="start" x="1678.5" y="-45.7" font-family="Source Sans Pro" font-size="16.00">Illumination&#45;Engine</text>
<text text-anchor="start" x="1678.5" y="-27.7" font-family="Source Sans Pro" font-size="16.00">/src/GraphicsModule</text>
<text text-anchor="middle" x="1785.5" y="-9.7" font-family="Source Sans Pro" font-size="16.00">/RenderPass/IEFramebuffer.cpp</text>
</a>
</g>
</g>
<!-- Node3&#45;&gt;Node11 -->
<g id="edge11" class="edge">
<title>Node3&#45;&gt;Node11</title>
<path fill="none" stroke="midnightblue" d="M1785.5,-89.17C1785.5,-80.29 1785.5,-71.03 1785.5,-62.64"/>
<polygon fill="midnightblue" stroke="midnightblue" points="1782,-89.34 1785.5,-99.34 1789,-89.34 1782,-89.34"/>
</g>
<!-- Node12 -->
<g id="node12" class="node">
<title>Node12</title>
<g id="a_node12"><a xlink:href="_i_e_render_pass_8cpp.html" target="_top" xlink:title=" ">
<polygon fill="white" stroke="black" points="1919,-0.5 1919,-62.5 2146,-62.5 2146,-0.5 1919,-0.5"/>
<text text-anchor="start" x="1927" y="-45.7" font-family="Source Sans Pro" font-size="16.00">Illumination&#45;Engine</text>
<text text-anchor="start" x="1927" y="-27.7" font-family="Source Sans Pro" font-size="16.00">/src/GraphicsModule</text>
<text text-anchor="middle" x="2032.5" y="-9.7" font-family="Source Sans Pro" font-size="16.00">/RenderPass/IERenderPass.cpp</text>
</a>
</g>
</g>
<!-- Node3&#45;&gt;Node12 -->
<g id="edge12" class="edge">
<title>Node3&#45;&gt;Node12</title>
<path fill="none" stroke="midnightblue" d="M1871.55,-95.71C1899.03,-84.92 1929.23,-73.06 1955.98,-62.55"/>
<polygon fill="midnightblue" stroke="midnightblue" points="1869.99,-92.56 1861.96,-99.47 1872.55,-99.08 1869.99,-92.56"/>
</g>
<!-- Node13 -->
<g id="node13" class="node">
<title>Node13</title>
<g id="a_node13"><a xlink:href="_i_e_material_8cpp.html" target="_top" xlink:title=" ">
<polygon fill="white" stroke="black" points="2164,-0.5 2164,-62.5 2365,-62.5 2365,-0.5 2164,-0.5"/>
<text text-anchor="start" x="2172" y="-45.7" font-family="Source Sans Pro" font-size="16.00">Illumination&#45;Engine</text>
<text text-anchor="start" x="2172" y="-27.7" font-family="Source Sans Pro" font-size="16.00">/src/GraphicsModule</text>
<text text-anchor="middle" x="2264.5" y="-9.7" font-family="Source Sans Pro" font-size="16.00">/Renderable/IEMaterial.cpp</text>
</a>
</g>
</g>
<!-- Node3&#45;&gt;Node13 -->
<g id="edge13" class="edge">
<title>Node3&#45;&gt;Node13</title>
<path fill="none" stroke="midnightblue" d="M1876.08,-115.57C1951.07,-103.46 2060.21,-84.52 2154.5,-63 2157.59,-62.29 2160.73,-61.56 2163.89,-60.8"/>
<polygon fill="midnightblue" stroke="midnightblue" points="1875.51,-112.11 1866.19,-117.16 1876.62,-119.03 1875.51,-112.11"/>
</g>
<!-- Node14 -->
<g id="node14" class="node">
<title>Node14</title>
<g id="a_node14"><a xlink:href="_i_e_mesh_8cpp.html" target="_top" xlink:title=" ">
<polygon fill="white" stroke="black" points="2383,-0.5 2383,-62.5 2566,-62.5 2566,-0.5 2383,-0.5"/>
<text text-anchor="start" x="2391" y="-45.7" font-family="Source Sans Pro" font-size="16.00">Illumination&#45;Engine</text>
<text text-anchor="start" x="2391" y="-27.7" font-family="Source Sans Pro" font-size="16.00">/src/GraphicsModule</text>
<text text-anchor="middle" x="2474.5" y="-9.7" font-family="Source Sans Pro" font-size="16.00">/Renderable/IEMesh.cpp</text>
</a>
</g>
</g>
<!-- Node3&#45;&gt;Node14 -->
<g id="edge14" class="edge">
<title>Node3&#45;&gt;Node14</title>
<path fill="none" stroke="midnightblue" d="M1876.38,-124.33C1992.61,-116.55 2199.63,-98.78 2373.5,-63 2376.55,-62.37 2379.64,-61.69 2382.75,-60.97"/>
<polygon fill="midnightblue" stroke="midnightblue" points="1875.86,-120.86 1866.11,-125.01 1876.32,-127.84 1875.86,-120.86"/>
</g>
<!-- Node3&#45;&gt;Node15 -->
<g id="edge15" class="edge">
<title>Node3&#45;&gt;Node15</title>
<path fill="none" stroke="midnightblue" d="M1876.26,-126.13C2197.88,-114.11 3267.85,-73.52 3340.5,-63 3343.63,-62.55 3346.8,-62.05 3349.99,-61.51"/>
<polygon fill="midnightblue" stroke="midnightblue" points="1875.91,-122.64 1866.05,-126.51 1876.18,-129.63 1875.91,-122.64"/>
</g>
<!-- Node16 -->
<g id="node16" class="node">
<title>Node16</title>
<g id="a_node16"><a xlink:href="_i_e_descriptor_set_8cpp.html" target="_top" xlink:title=" ">
<polygon fill="white" stroke="black" points="2584,-0.5 2584,-62.5 2791,-62.5 2791,-0.5 2584,-0.5"/>
<text text-anchor="start" x="2592" y="-45.7" font-family="Source Sans Pro" font-size="16.00">Illumination&#45;Engine</text>
<text text-anchor="start" x="2592" y="-27.7" font-family="Source Sans Pro" font-size="16.00">/src/GraphicsModule</text>
<text text-anchor="middle" x="2687.5" y="-9.7" font-family="Source Sans Pro" font-size="16.00">/Shader/IEDescriptorSet.cpp</text>
</a>
</g>
</g>
<!-- Node3&#45;&gt;Node16 -->
<g id="edge16" class="edge">
<title>Node3&#45;&gt;Node16</title>
<path fill="none" stroke="midnightblue" d="M1876.38,-127.21C2024.06,-122.3 2324.84,-107.3 2575.5,-63 2578.28,-62.51 2581.09,-61.98 2583.92,-61.42"/>
<polygon fill="midnightblue" stroke="midnightblue" points="1875.9,-123.73 1866.02,-127.55 1876.13,-130.72 1875.9,-123.73"/>
</g>
<!-- Node17 -->
<g id="node17" class="node">
<title>Node17</title>
<g id="a_node17"><a xlink:href="_i_e_pipeline_8cpp.html" target="_top" xlink:title=" ">
<polygon fill="white" stroke="black" points="2809.5,-0.5 2809.5,-62.5 2981.5,-62.5 2981.5,-0.5 2809.5,-0.5"/>
<text text-anchor="start" x="2817.5" y="-45.7" font-family="Source Sans Pro" font-size="16.00">Illumination&#45;Engine</text>
<text text-anchor="start" x="2817.5" y="-27.7" font-family="Source Sans Pro" font-size="16.00">/src/GraphicsModule</text>
<text text-anchor="middle" x="2895.5" y="-9.7" font-family="Source Sans Pro" font-size="16.00">/Shader/IEPipeline.cpp</text>
</a>
</g>
</g>
<!-- Node3&#45;&gt;Node17 -->
<g id="edge17" class="edge">
<title>Node3&#45;&gt;Node17</title>
<path fill="none" stroke="midnightblue" d="M1876.37,-126.4C2091.04,-118.62 2624.69,-96.45 2800.5,-63 2803.39,-62.45 2806.32,-61.84 2809.27,-61.17"/>
<polygon fill="midnightblue" stroke="midnightblue" points="1875.95,-122.91 1866.08,-126.77 1876.2,-129.91 1875.95,-122.91"/>
</g>
<!-- Node18 -->
<g id="node18" class="node">
<title>Node18</title>
<g id="a_node18"><a xlink:href="_i_e_shader_8cpp.html" target="_top" xlink:title=" ">
<polygon fill="white" stroke="black" points="2999.5,-0.5 2999.5,-62.5 3163.5,-62.5 3163.5,-0.5 2999.5,-0.5"/>
<text text-anchor="start" x="3007.5" y="-45.7" font-family="Source Sans Pro" font-size="16.00">Illumination&#45;Engine</text>
<text text-anchor="start" x="3007.5" y="-27.7" font-family="Source Sans Pro" font-size="16.00">/src/GraphicsModule</text>
<text text-anchor="middle" x="3081.5" y="-9.7" font-family="Source Sans Pro" font-size="16.00">/Shader/IEShader.cpp</text>
</a>
</g>
</g>
<!-- Node3&#45;&gt;Node18 -->
<g id="edge18" class="edge">
<title>Node3&#45;&gt;Node18</title>
<path fill="none" stroke="midnightblue" d="M1876.24,-127.64C2118.6,-122.17 2777.11,-103.88 2990.5,-63 2993.45,-62.44 2996.43,-61.8 2999.42,-61.11"/>
<polygon fill="midnightblue" stroke="midnightblue" points="1875.97,-124.14 1866.06,-127.87 1876.13,-131.14 1875.97,-124.14"/>
</g>
<!-- Node19 -->
<g id="node19" class="node">
<title>Node19</title>
<g id="a_node19"><a xlink:href="main_8cpp.html" target="_top" xlink:title=" ">
<polygon fill="white" stroke="black" points="3181.5,-9.5 3181.5,-53.5 3331.5,-53.5 3331.5,-9.5 3181.5,-9.5"/>
<text text-anchor="start" x="3189.5" y="-36.7" font-family="Source Sans Pro" font-size="16.00">Illumination&#45;Engine</text>
<text text-anchor="middle" x="3256.5" y="-18.7" font-family="Source Sans Pro" font-size="16.00">/src/main.cpp</text>
</a>
</g>
</g>
<!-- Node3&#45;&gt;Node19 -->
<g id="edge19" class="edge">
<title>Node3&#45;&gt;Node19</title>
<path fill="none" stroke="midnightblue" d="M1876.61,-126.72C2165,-117.69 3046.28,-88.34 3172.5,-63 3183.6,-60.77 3195.21,-57.33 3206.12,-53.56"/>
<polygon fill="midnightblue" stroke="midnightblue" points="1876.08,-123.23 1866.19,-127.04 1876.3,-130.23 1876.08,-123.23"/>
</g>
</g>
</svg>
