<?xml version="1.0" encoding="UTF-8" standalone="no"?>
<!DOCTYPE svg PUBLIC "-//W3C//DTD SVG 1.1//EN"
 "http://www.w3.org/Graphics/SVG/1.1/DTD/svg11.dtd">
<!-- Generated by graphviz version 2.43.0 (0)
 -->
<!-- Title: Illumination&#45;Engine/src/Core/FileSystemModule/IEFile.hpp Pages: 1 -->
<svg width="800pt" height="215pt"
 viewBox="0.00 0.00 799.50 215.00" xmlns="http://www.w3.org/2000/svg" xmlns:xlink="http://www.w3.org/1999/xlink">
<g id="graph0" class="graph" transform="scale(1 1) rotate(0) translate(4 211)">
<title>Illumination&#45;Engine/src/Core/FileSystemModule/IEFile.hpp</title>
<polygon fill="white" stroke="transparent" points="-4,4 -4,-211 795.5,-211 795.5,4 -4,4"/>
<!-- Node1 -->
<g id="node1" class="node">
<title>Node1</title>
<g id="a_node1"><a xlink:title=" ">
<polygon fill="#bfbfbf" stroke="black" points="395,-144.5 395,-206.5 602,-206.5 602,-144.5 395,-144.5"/>
<text text-anchor="start" x="403" y="-189.7" font-family="Source Sans Pro" font-size="16.00">Illumination&#45;Engine</text>
<text text-anchor="start" x="403" y="-171.7" font-family="Source Sans Pro" font-size="16.00">/src/Core/FileSystemModule</text>
<text text-anchor="middle" x="498.5" y="-153.7" font-family="Source Sans Pro" font-size="16.00">/IEFile.hpp</text>
</a>
</g>
</g>
<!-- Node2 -->
<g id="node2" class="node">
<title>Node2</title>
<g id="a_node2"><a xlink:href="_i_e_logger_8hpp.html" target="_top" xlink:title=" ">
<polygon fill="white" stroke="black" points="99,-81.5 99,-107.5 322,-107.5 322,-81.5 99,-81.5"/>
<text text-anchor="middle" x="210.5" y="-90.7" font-family="Source Sans Pro" font-size="16.00">Core/LogModule/IELogger.hpp</text>
</a>
</g>
</g>
<!-- Node1&#45;&gt;Node2 -->
<g id="edge1" class="edge">
<title>Node1&#45;&gt;Node2</title>
<path fill="none" stroke="midnightblue" d="M394.93,-146.09C350.71,-133.96 300.95,-120.31 264.28,-110.25"/>
<polygon fill="midnightblue" stroke="midnightblue" points="264.86,-106.78 254.29,-107.51 263.01,-113.53 264.86,-106.78"/>
</g>
<!-- Node5 -->
<g id="node5" class="node">
<title>Node5</title>
<g id="a_node5"><a xlink:title=" ">
<polygon fill="white" stroke="#bfbfbf" points="317,-9.5 317,-35.5 372,-35.5 372,-9.5 317,-9.5"/>
<text text-anchor="middle" x="344.5" y="-18.7" font-family="Source Sans Pro" font-size="16.00">string</text>
</a>
</g>
</g>
<!-- Node1&#45;&gt;Node5 -->
<g id="edge6" class="edge">
<title>Node1&#45;&gt;Node5</title>
<path fill="none" stroke="midnightblue" d="M416.72,-144.33C399.56,-134.88 382.93,-122.91 370.5,-108 355.7,-90.25 349.31,-64.14 346.56,-45.65"/>
<polygon fill="midnightblue" stroke="midnightblue" points="350.01,-45.01 345.31,-35.51 343.07,-45.87 350.01,-45.01"/>
</g>
<!-- Node6 -->
<g id="node6" class="node">
<title>Node6</title>
<g id="a_node6"><a xlink:title=" ">
<polygon fill="white" stroke="#bfbfbf" points="379,-81.5 379,-107.5 438,-107.5 438,-81.5 379,-81.5"/>
<text text-anchor="middle" x="408.5" y="-90.7" font-family="Source Sans Pro" font-size="16.00">vector</text>
</a>
</g>
</g>
<!-- Node1&#45;&gt;Node6 -->
<g id="edge5" class="edge">
<title>Node1&#45;&gt;Node6</title>
<path fill="none" stroke="midnightblue" d="M464.22,-144.41C452.77,-134.36 440.34,-123.45 430.14,-114.49"/>
<polygon fill="midnightblue" stroke="midnightblue" points="432.31,-111.74 422.49,-107.78 427.69,-117 432.31,-111.74"/>
</g>
<!-- Node7 -->
<g id="node7" class="node">
<title>Node7</title>
<g id="a_node7"><a xlink:title=" ">
<polygon fill="white" stroke="#bfbfbf" points="456,-81.5 456,-107.5 541,-107.5 541,-81.5 456,-81.5"/>
<text text-anchor="middle" x="498.5" y="-90.7" font-family="Source Sans Pro" font-size="16.00">filesystem</text>
</a>
</g>
</g>
<!-- Node1&#45;&gt;Node7 -->
<g id="edge7" class="edge">
<title>Node1&#45;&gt;Node7</title>
<path fill="none" stroke="midnightblue" d="M498.5,-144.18C498.5,-135.45 498.5,-126.08 498.5,-117.91"/>
<polygon fill="midnightblue" stroke="midnightblue" points="502,-117.7 498.5,-107.7 495,-117.7 502,-117.7"/>
</g>
<!-- Node8 -->
<g id="node8" class="node">
<title>Node8</title>
<g id="a_node8"><a xlink:title=" ">
<polygon fill="white" stroke="#bfbfbf" points="559.5,-81.5 559.5,-107.5 627.5,-107.5 627.5,-81.5 559.5,-81.5"/>
<text text-anchor="middle" x="593.5" y="-90.7" font-family="Source Sans Pro" font-size="16.00">fstream</text>
</a>
</g>
</g>
<!-- Node1&#45;&gt;Node8 -->
<g id="edge8" class="edge">
<title>Node1&#45;&gt;Node8</title>
<path fill="none" stroke="midnightblue" d="M534.69,-144.41C546.89,-134.26 560.15,-123.24 570.98,-114.23"/>
<polygon fill="midnightblue" stroke="midnightblue" points="573.29,-116.86 578.74,-107.78 568.81,-111.48 573.29,-116.86"/>
</g>
<!-- Node9 -->
<g id="node9" class="node">
<title>Node9</title>
<g id="a_node9"><a xlink:title=" ">
<polygon fill="white" stroke="#bfbfbf" points="645.5,-81.5 645.5,-107.5 697.5,-107.5 697.5,-81.5 645.5,-81.5"/>
<text text-anchor="middle" x="671.5" y="-90.7" font-family="Source Sans Pro" font-size="16.00">regex</text>
</a>
</g>
</g>
<!-- Node1&#45;&gt;Node9 -->
<g id="edge9" class="edge">
<title>Node1&#45;&gt;Node9</title>
<path fill="none" stroke="midnightblue" d="M564.4,-144.41C588.8,-133.27 615.52,-121.06 636.17,-111.63"/>
<polygon fill="midnightblue" stroke="midnightblue" points="637.85,-114.72 645.49,-107.38 634.94,-108.35 637.85,-114.72"/>
</g>
<!-- Node10 -->
<g id="node10" class="node">
<title>Node10</title>
<g id="a_node10"><a xlink:title=" ">
<polygon fill="white" stroke="#bfbfbf" points="715.5,-81.5 715.5,-107.5 791.5,-107.5 791.5,-81.5 715.5,-81.5"/>
<text text-anchor="middle" x="753.5" y="-90.7" font-family="Source Sans Pro" font-size="16.00">iostream</text>
</a>
</g>
</g>
<!-- Node1&#45;&gt;Node10 -->
<g id="edge10" class="edge">
<title>Node1&#45;&gt;Node10</title>
<path fill="none" stroke="midnightblue" d="M595.63,-144.41C633.35,-132.72 674.84,-119.87 705.81,-110.27"/>
<polygon fill="midnightblue" stroke="midnightblue" points="706.96,-113.58 715.48,-107.28 704.89,-106.89 706.96,-113.58"/>
</g>
<!-- Node3 -->
<g id="node3" class="node">
<title>Node3</title>
<g id="a_node3"><a xlink:title=" ">
<polygon fill="white" stroke="#bfbfbf" points="0,-9.5 0,-35.5 127,-35.5 127,-9.5 0,-9.5"/>
<text text-anchor="middle" x="63.5" y="-18.7" font-family="Source Sans Pro" font-size="16.00">spdlog/spdlog.h</text>
</a>
</g>
</g>
<!-- Node2&#45;&gt;Node3 -->
<g id="edge2" class="edge">
<title>Node2&#45;&gt;Node3</title>
<path fill="none" stroke="midnightblue" d="M185.23,-81.47C161.25,-70.05 125.01,-52.79 98.3,-40.07"/>
<polygon fill="midnightblue" stroke="midnightblue" points="99.47,-36.75 88.93,-35.61 96.46,-43.07 99.47,-36.75"/>
</g>
<!-- Node4 -->
<g id="node4" class="node">
<title>Node4</title>
<g id="a_node4"><a xlink:title=" ">
<polygon fill="white" stroke="#bfbfbf" points="145,-0.5 145,-44.5 288,-44.5 288,-0.5 145,-0.5"/>
<text text-anchor="start" x="153" y="-27.7" font-family="Source Sans Pro" font-size="16.00">spdlog/sinks/basic</text>
<text text-anchor="middle" x="216.5" y="-9.7" font-family="Source Sans Pro" font-size="16.00">_file_sink.h</text>
</a>
</g>
</g>
<!-- Node2&#45;&gt;Node4 -->
<g id="edge3" class="edge">
<title>Node2&#45;&gt;Node4</title>
<path fill="none" stroke="midnightblue" d="M211.55,-81.31C212.18,-73.89 213.03,-64.04 213.84,-54.58"/>
<polygon fill="midnightblue" stroke="midnightblue" points="217.32,-54.87 214.69,-44.6 210.35,-54.27 217.32,-54.87"/>
</g>
<!-- Node2&#45;&gt;Node5 -->
<g id="edge4" class="edge">
<title>Node2&#45;&gt;Node5</title>
<path fill="none" stroke="midnightblue" d="M233.54,-81.47C255.2,-70.15 287.85,-53.09 312.14,-40.41"/>
<polygon fill="midnightblue" stroke="midnightblue" points="314.07,-43.34 321.32,-35.61 310.83,-37.14 314.07,-43.34"/>
</g>
</g>
</svg>
