<?xml version="1.0" encoding="UTF-8" standalone="no"?>
<!DOCTYPE svg PUBLIC "-//W3C//DTD SVG 1.1//EN"
 "http://www.w3.org/Graphics/SVG/1.1/DTD/svg11.dtd">
<!-- Generated by graphviz version 2.43.0 (0)
 -->
<!-- Title: Illumination&#45;Engine/src/Core/LogModule/IELogger.hpp Pages: 1 -->
<svg width="3462pt" height="863pt"
 viewBox="0.00 0.00 3462.00 863.00" xmlns="http://www.w3.org/2000/svg" xmlns:xlink="http://www.w3.org/1999/xlink">
<g id="graph0" class="graph" transform="scale(1 1) rotate(0) translate(4 859)">
<title>Illumination&#45;Engine/src/Core/LogModule/IELogger.hpp</title>
<polygon fill="white" stroke="transparent" points="-4,4 -4,-859 3458,-859 3458,4 -4,4"/>
<!-- Node1 -->
<g id="node1" class="node">
<title>Node1</title>
<g id="a_node1"><a xlink:title=" ">
<polygon fill="#bfbfbf" stroke="black" points="1966.5,-792.5 1966.5,-854.5 2125.5,-854.5 2125.5,-792.5 1966.5,-792.5"/>
<text text-anchor="start" x="1974.5" y="-837.7" font-family="Source Sans Pro" font-size="16.00">Illumination&#45;Engine</text>
<text text-anchor="start" x="1974.5" y="-819.7" font-family="Source Sans Pro" font-size="16.00">/src/Core/LogModule</text>
<text text-anchor="middle" x="2046" y="-801.7" font-family="Source Sans Pro" font-size="16.00">/IELogger.hpp</text>
</a>
</g>
</g>
<!-- Node2 -->
<g id="node2" class="node">
<title>Node2</title>
<g id="a_node2"><a xlink:href="_i_e_file_8hpp.html" target="_top" xlink:title=" ">
<polygon fill="white" stroke="black" points="1942.5,-693.5 1942.5,-755.5 2149.5,-755.5 2149.5,-693.5 1942.5,-693.5"/>
<text text-anchor="start" x="1950.5" y="-738.7" font-family="Source Sans Pro" font-size="16.00">Illumination&#45;Engine</text>
<text text-anchor="start" x="1950.5" y="-720.7" font-family="Source Sans Pro" font-size="16.00">/src/Core/FileSystemModule</text>
<text text-anchor="middle" x="2046" y="-702.7" font-family="Source Sans Pro" font-size="16.00">/IEFile.hpp</text>
</a>
</g>
</g>
<!-- Node1&#45;&gt;Node2 -->
<g id="edge1" class="edge">
<title>Node1&#45;&gt;Node2</title>
<path fill="none" stroke="midnightblue" d="M2046,-782.17C2046,-773.29 2046,-764.03 2046,-755.64"/>
<polygon fill="midnightblue" stroke="midnightblue" points="2042.5,-782.34 2046,-792.34 2049.5,-782.34 2042.5,-782.34"/>
</g>
<!-- Node9 -->
<g id="node9" class="node">
<title>Node9</title>
<g id="a_node9"><a xlink:href="_i_e_render_engine_8cpp.html" target="_top" xlink:title=" ">
<polygon fill="white" stroke="black" points="3246.5,-81.5 3246.5,-143.5 3405.5,-143.5 3405.5,-81.5 3246.5,-81.5"/>
<text text-anchor="start" x="3254.5" y="-126.7" font-family="Source Sans Pro" font-size="16.00">Illumination&#45;Engine</text>
<text text-anchor="start" x="3254.5" y="-108.7" font-family="Source Sans Pro" font-size="16.00">/src/GraphicsModule</text>
<text text-anchor="middle" x="3326" y="-90.7" font-family="Source Sans Pro" font-size="16.00">/IERenderEngine.cpp</text>
</a>
</g>
</g>
<!-- Node1&#45;&gt;Node9 -->
<g id="edge53" class="edge">
<title>Node1&#45;&gt;Node9</title>
<path fill="none" stroke="midnightblue" d="M2135.73,-819.76C2345.06,-812.83 2860.8,-792.51 3030,-756 3170.36,-725.71 3326,-770.09 3326,-626.5 3326,-626.5 3326,-626.5 3326,-327.5 3326,-261.93 3326,-185.05 3326,-143.62"/>
<polygon fill="midnightblue" stroke="midnightblue" points="2135.57,-816.26 2125.69,-820.09 2135.8,-823.26 2135.57,-816.26"/>
</g>
<!-- Node12 -->
<g id="node12" class="node">
<title>Node12</title>
<g id="a_node12"><a xlink:href="_i_e_command_buffer_8cpp.html" target="_top" xlink:title=" ">
<polygon fill="white" stroke="black" points="182.5,-81.5 182.5,-143.5 475.5,-143.5 475.5,-81.5 182.5,-81.5"/>
<text text-anchor="start" x="190.5" y="-126.7" font-family="Source Sans Pro" font-size="16.00">Illumination&#45;Engine</text>
<text text-anchor="start" x="190.5" y="-108.7" font-family="Source Sans Pro" font-size="16.00">/src/GraphicsModule</text>
<text text-anchor="middle" x="329" y="-90.7" font-family="Source Sans Pro" font-size="16.00">/CommandBuffer/IECommandBuffer.cpp</text>
</a>
</g>
</g>
<!-- Node1&#45;&gt;Node12 -->
<g id="edge50" class="edge">
<title>Node1&#45;&gt;Node12</title>
<path fill="none" stroke="midnightblue" d="M1956.23,-822.95C1696.48,-823.48 957.02,-819.37 870,-756 820.13,-719.68 820,-688.2 820,-626.5 820,-626.5 820,-626.5 820,-327.5 820,-248.87 605.7,-180.73 460.26,-143.54"/>
<polygon fill="midnightblue" stroke="midnightblue" points="1956.39,-826.45 1966.38,-822.92 1956.37,-819.45 1956.39,-826.45"/>
</g>
<!-- Node15 -->
<g id="node15" class="node">
<title>Node15</title>
<g id="a_node15"><a xlink:href="_i_e_command_pool_8cpp.html" target="_top" xlink:title=" ">
<polygon fill="white" stroke="black" points="739,-81.5 739,-143.5 1023,-143.5 1023,-81.5 739,-81.5"/>
<text text-anchor="start" x="747" y="-126.7" font-family="Source Sans Pro" font-size="16.00">Illumination&#45;Engine</text>
<text text-anchor="start" x="747" y="-108.7" font-family="Source Sans Pro" font-size="16.00">/src/GraphicsModule</text>
<text text-anchor="middle" x="881" y="-90.7" font-family="Source Sans Pro" font-size="16.00">/CommandBuffer/IECommandPool.cpp</text>
</a>
</g>
</g>
<!-- Node1&#45;&gt;Node15 -->
<g id="edge51" class="edge">
<title>Node1&#45;&gt;Node15</title>
<path fill="none" stroke="midnightblue" d="M1956.09,-822.11C1754.38,-820.27 1271.54,-810.16 1119,-756 1024.42,-722.42 934,-726.87 934,-626.5 934,-626.5 934,-626.5 934,-525.5 934,-371.82 1007.08,-321.87 948,-180 942.27,-166.23 932.14,-153.85 921.48,-143.61"/>
<polygon fill="midnightblue" stroke="midnightblue" points="1956.32,-825.62 1966.35,-822.2 1956.38,-818.62 1956.32,-825.62"/>
</g>
<!-- Node18 -->
<g id="node18" class="node">
<title>Node18</title>
<g id="a_node18"><a xlink:href="_i_e_a_p_i_8cpp.html" target="_top" xlink:title=" ">
<polygon fill="white" stroke="black" points="2054.5,-81.5 2054.5,-143.5 2211.5,-143.5 2211.5,-81.5 2054.5,-81.5"/>
<text text-anchor="start" x="2062.5" y="-126.7" font-family="Source Sans Pro" font-size="16.00">Illumination&#45;Engine</text>
<text text-anchor="start" x="2062.5" y="-108.7" font-family="Source Sans Pro" font-size="16.00">/src/GraphicsModule</text>
<text text-anchor="middle" x="2133" y="-90.7" font-family="Source Sans Pro" font-size="16.00">/IEAPI.cpp</text>
</a>
</g>
</g>
<!-- Node1&#45;&gt;Node18 -->
<g id="edge52" class="edge">
<title>Node1&#45;&gt;Node18</title>
<path fill="none" stroke="midnightblue" d="M2127.51,-786.86C2139.67,-778.35 2150.84,-768.12 2159,-756 2191.47,-707.74 2178,-684.67 2178,-626.5 2178,-626.5 2178,-626.5 2178,-525.5 2178,-451.04 2160.65,-433.95 2152,-360 2142.9,-282.2 2137.12,-190.05 2134.55,-143.55"/>
<polygon fill="midnightblue" stroke="midnightblue" points="2125.39,-784.07 2118.96,-792.49 2129.24,-789.92 2125.39,-784.07"/>
</g>
<!-- Node20 -->
<g id="node20" class="node">
<title>Node20</title>
<g id="a_node20"><a xlink:href="_i_e_image_8cpp.html" target="_top" xlink:title=" ">
<polygon fill="white" stroke="black" points="2892.5,-81.5 2892.5,-143.5 3049.5,-143.5 3049.5,-81.5 2892.5,-81.5"/>
<text text-anchor="start" x="2900.5" y="-126.7" font-family="Source Sans Pro" font-size="16.00">Illumination&#45;Engine</text>
<text text-anchor="start" x="2900.5" y="-108.7" font-family="Source Sans Pro" font-size="16.00">/src/GraphicsModule</text>
<text text-anchor="middle" x="2971" y="-90.7" font-family="Source Sans Pro" font-size="16.00">/Image/IEImage.cpp</text>
</a>
</g>
</g>
<!-- Node1&#45;&gt;Node20 -->
<g id="edge57" class="edge">
<title>Node1&#45;&gt;Node20</title>
<path fill="none" stroke="midnightblue" d="M2136,-820.55C2353.71,-813.41 2891,-780.21 2891,-626.5 2891,-626.5 2891,-626.5 2891,-327.5 2891,-258.29 2928.17,-184 2951.84,-143.71"/>
<polygon fill="midnightblue" stroke="midnightblue" points="2135.76,-817.06 2125.88,-820.87 2135.98,-824.05 2135.76,-817.06"/>
</g>
<!-- Node21 -->
<g id="node21" class="node">
<title>Node21</title>
<g id="a_node21"><a xlink:href="_i_e_texture_8cpp.html" target="_top" xlink:title=" ">
<polygon fill="white" stroke="black" points="3067.5,-81.5 3067.5,-143.5 3228.5,-143.5 3228.5,-81.5 3067.5,-81.5"/>
<text text-anchor="start" x="3075.5" y="-126.7" font-family="Source Sans Pro" font-size="16.00">Illumination&#45;Engine</text>
<text text-anchor="start" x="3075.5" y="-108.7" font-family="Source Sans Pro" font-size="16.00">/src/GraphicsModule</text>
<text text-anchor="middle" x="3148" y="-90.7" font-family="Source Sans Pro" font-size="16.00">/Image/IETexture.cpp</text>
</a>
</g>
</g>
<!-- Node1&#45;&gt;Node21 -->
<g id="edge58" class="edge">
<title>Node1&#45;&gt;Node21</title>
<path fill="none" stroke="midnightblue" d="M2135.89,-817.8C2421.26,-801.71 3288,-743.21 3288,-626.5 3288,-626.5 3288,-626.5 3288,-327.5 3288,-251.58 3225.53,-181.6 3184.05,-143.5"/>
<polygon fill="midnightblue" stroke="midnightblue" points="2135.37,-814.33 2125.58,-818.38 2135.76,-821.32 2135.37,-814.33"/>
</g>
<!-- Node23 -->
<g id="node23" class="node">
<title>Node23</title>
<g id="a_node23"><a xlink:href="_i_e_render_pass_8cpp.html" target="_top" xlink:title=" ">
<polygon fill="white" stroke="black" points="493.5,-81.5 493.5,-143.5 720.5,-143.5 720.5,-81.5 493.5,-81.5"/>
<text text-anchor="start" x="501.5" y="-126.7" font-family="Source Sans Pro" font-size="16.00">Illumination&#45;Engine</text>
<text text-anchor="start" x="501.5" y="-108.7" font-family="Source Sans Pro" font-size="16.00">/src/GraphicsModule</text>
<text text-anchor="middle" x="607" y="-90.7" font-family="Source Sans Pro" font-size="16.00">/RenderPass/IERenderPass.cpp</text>
</a>
</g>
</g>
<!-- Node1&#45;&gt;Node23 -->
<g id="edge59" class="edge">
<title>Node1&#45;&gt;Node23</title>
<path fill="none" stroke="midnightblue" d="M1955.83,-821.32C1710.25,-817.51 1042.02,-802.91 955,-756 891.7,-721.88 858,-698.41 858,-626.5 858,-626.5 858,-626.5 858,-525.5 858,-371.57 930.5,-299.92 834,-180 829.94,-174.95 774.67,-158.71 719.7,-143.54"/>
<polygon fill="midnightblue" stroke="midnightblue" points="1956.1,-824.83 1966.15,-821.48 1956.2,-817.83 1956.1,-824.83"/>
</g>
<!-- Node25 -->
<g id="node25" class="node">
<title>Node25</title>
<g id="a_node25"><a xlink:href="_i_e_mesh_8cpp.html" target="_top" xlink:title=" ">
<polygon fill="white" stroke="black" points="2691.5,-81.5 2691.5,-143.5 2874.5,-143.5 2874.5,-81.5 2691.5,-81.5"/>
<text text-anchor="start" x="2699.5" y="-126.7" font-family="Source Sans Pro" font-size="16.00">Illumination&#45;Engine</text>
<text text-anchor="start" x="2699.5" y="-108.7" font-family="Source Sans Pro" font-size="16.00">/src/GraphicsModule</text>
<text text-anchor="middle" x="2783" y="-90.7" font-family="Source Sans Pro" font-size="16.00">/Renderable/IEMesh.cpp</text>
</a>
</g>
</g>
<!-- Node1&#45;&gt;Node25 -->
<g id="edge60" class="edge">
<title>Node1&#45;&gt;Node25</title>
<path fill="none" stroke="midnightblue" d="M2135.78,-814.22C2313.47,-795.34 2693,-741.56 2693,-626.5 2693,-626.5 2693,-626.5 2693,-327.5 2693,-257.37 2734.58,-183.71 2761.21,-143.72"/>
<polygon fill="midnightblue" stroke="midnightblue" points="2135.24,-810.76 2125.66,-815.28 2135.97,-817.72 2135.24,-810.76"/>
</g>
<!-- Node27 -->
<g id="node27" class="node">
<title>Node27</title>
<g id="a_node27"><a xlink:href="_i_e_pipeline_8cpp.html" target="_top" xlink:title=" ">
<polygon fill="white" stroke="black" points="1041,-81.5 1041,-143.5 1213,-143.5 1213,-81.5 1041,-81.5"/>
<text text-anchor="start" x="1049" y="-126.7" font-family="Source Sans Pro" font-size="16.00">Illumination&#45;Engine</text>
<text text-anchor="start" x="1049" y="-108.7" font-family="Source Sans Pro" font-size="16.00">/src/GraphicsModule</text>
<text text-anchor="middle" x="1127" y="-90.7" font-family="Source Sans Pro" font-size="16.00">/Shader/IEPipeline.cpp</text>
</a>
</g>
</g>
<!-- Node1&#45;&gt;Node27 -->
<g id="edge61" class="edge">
<title>Node1&#45;&gt;Node27</title>
<path fill="none" stroke="midnightblue" d="M1956,-817.31C1736.57,-803.19 1180.88,-758.14 1029,-657 1015.71,-648.15 1010,-642.47 1010,-626.5 1010,-626.5 1010,-626.5 1010,-327.5 1010,-261.4 994.38,-236.3 1029,-180 1037.94,-165.46 1051.38,-153.36 1065.47,-143.65"/>
<polygon fill="midnightblue" stroke="midnightblue" points="1955.99,-820.82 1966.19,-817.96 1956.43,-813.83 1955.99,-820.82"/>
</g>
<!-- Node32 -->
<g id="node32" class="node">
<title>Node32</title>
<g id="a_node32"><a xlink:href="_i_e_settings_8hpp.html" target="_top" xlink:title=" ">
<polygon fill="white" stroke="black" points="1767.5,-693.5 1767.5,-755.5 1924.5,-755.5 1924.5,-693.5 1767.5,-693.5"/>
<text text-anchor="start" x="1775.5" y="-738.7" font-family="Source Sans Pro" font-size="16.00">Illumination&#45;Engine</text>
<text text-anchor="start" x="1775.5" y="-720.7" font-family="Source Sans Pro" font-size="16.00">/src/GraphicsModule</text>
<text text-anchor="middle" x="1846" y="-702.7" font-family="Source Sans Pro" font-size="16.00">/IESettings.hpp</text>
</a>
</g>
</g>
<!-- Node1&#45;&gt;Node32 -->
<g id="edge54" class="edge">
<title>Node1&#45;&gt;Node32</title>
<path fill="none" stroke="midnightblue" d="M1974.86,-788C1953.01,-777.4 1929.15,-765.83 1907.96,-755.55"/>
<polygon fill="midnightblue" stroke="midnightblue" points="1973.56,-791.26 1984.09,-792.47 1976.62,-784.96 1973.56,-791.26"/>
</g>
<!-- Node3 -->
<g id="node3" class="node">
<title>Node3</title>
<g id="a_node3"><a xlink:href="_i_e_directory_8hpp.html" target="_top" xlink:title=" ">
<polygon fill="white" stroke="black" points="2206.5,-594.5 2206.5,-656.5 2413.5,-656.5 2413.5,-594.5 2206.5,-594.5"/>
<text text-anchor="start" x="2214.5" y="-639.7" font-family="Source Sans Pro" font-size="16.00">Illumination&#45;Engine</text>
<text text-anchor="start" x="2214.5" y="-621.7" font-family="Source Sans Pro" font-size="16.00">/src/Core/FileSystemModule</text>
<text text-anchor="middle" x="2310" y="-603.7" font-family="Source Sans Pro" font-size="16.00">/IEDirectory.hpp</text>
</a>
</g>
</g>
<!-- Node2&#45;&gt;Node3 -->
<g id="edge2" class="edge">
<title>Node2&#45;&gt;Node3</title>
<path fill="none" stroke="midnightblue" d="M2137.21,-689.99C2166.78,-679.12 2199.37,-667.15 2228.21,-656.55"/>
<polygon fill="midnightblue" stroke="midnightblue" points="2135.9,-686.74 2127.72,-693.47 2138.32,-693.31 2135.9,-686.74"/>
</g>
<!-- Node4 -->
<g id="node4" class="node">
<title>Node4</title>
<g id="a_node4"><a xlink:href="_i_e_file_system_8hpp.html" target="_top" xlink:title=" ">
<polygon fill="white" stroke="black" points="2206.5,-495.5 2206.5,-557.5 2413.5,-557.5 2413.5,-495.5 2206.5,-495.5"/>
<text text-anchor="start" x="2214.5" y="-540.7" font-family="Source Sans Pro" font-size="16.00">Illumination&#45;Engine</text>
<text text-anchor="start" x="2214.5" y="-522.7" font-family="Source Sans Pro" font-size="16.00">/src/Core/FileSystemModule</text>
<text text-anchor="middle" x="2310" y="-504.7" font-family="Source Sans Pro" font-size="16.00">/IEFileSystem.hpp</text>
</a>
</g>
</g>
<!-- Node2&#45;&gt;Node4 -->
<g id="edge5" class="edge">
<title>Node2&#45;&gt;Node4</title>
<path fill="none" stroke="midnightblue" d="M2087.79,-686.51C2124.74,-654.06 2176.08,-609.67 2198,-594 2215.94,-581.18 2236.46,-568.47 2254.99,-557.66"/>
<polygon fill="midnightblue" stroke="midnightblue" points="2085.33,-684.01 2080.14,-693.24 2089.96,-689.26 2085.33,-684.01"/>
</g>
<!-- Node6 -->
<g id="node6" class="node">
<title>Node6</title>
<g id="a_node6"><a xlink:href="_i_e_shader_8cpp.html" target="_top" xlink:title=" ">
<polygon fill="white" stroke="black" points="0,-81.5 0,-143.5 164,-143.5 164,-81.5 0,-81.5"/>
<text text-anchor="start" x="8" y="-126.7" font-family="Source Sans Pro" font-size="16.00">Illumination&#45;Engine</text>
<text text-anchor="start" x="8" y="-108.7" font-family="Source Sans Pro" font-size="16.00">/src/GraphicsModule</text>
<text text-anchor="middle" x="82" y="-90.7" font-family="Source Sans Pro" font-size="16.00">/Shader/IEShader.cpp</text>
</a>
</g>
</g>
<!-- Node2&#45;&gt;Node6 -->
<g id="edge6" class="edge">
<title>Node2&#45;&gt;Node6</title>
<path fill="none" stroke="midnightblue" d="M1932.41,-692.71C1589.97,-617.59 1490.45,-654.63 1157,-558 755.95,-441.78 301.53,-223.36 141.52,-143.62"/>
<polygon fill="midnightblue" stroke="midnightblue" points="1931.83,-696.17 1942.35,-694.91 1933.34,-689.33 1931.83,-696.17"/>
</g>
<!-- Node7 -->
<g id="node7" class="node">
<title>Node7</title>
<g id="a_node7"><a xlink:href="_i_e_shader_8hpp.html" target="_top" xlink:title=" ">
<polygon fill="white" stroke="black" points="1946,-594.5 1946,-656.5 2112,-656.5 2112,-594.5 1946,-594.5"/>
<text text-anchor="start" x="1954" y="-639.7" font-family="Source Sans Pro" font-size="16.00">Illumination&#45;Engine</text>
<text text-anchor="start" x="1954" y="-621.7" font-family="Source Sans Pro" font-size="16.00">/src/GraphicsModule</text>
<text text-anchor="middle" x="2029" y="-603.7" font-family="Source Sans Pro" font-size="16.00">/Shader/IEShader.hpp</text>
</a>
</g>
</g>
<!-- Node2&#45;&gt;Node7 -->
<g id="edge7" class="edge">
<title>Node2&#45;&gt;Node7</title>
<path fill="none" stroke="midnightblue" d="M2038.98,-683.45C2037.41,-674.49 2035.77,-665.13 2034.28,-656.64"/>
<polygon fill="midnightblue" stroke="midnightblue" points="2035.54,-684.09 2040.71,-693.34 2042.44,-682.89 2035.54,-684.09"/>
</g>
<!-- Node3&#45;&gt;Node4 -->
<g id="edge3" class="edge">
<title>Node3&#45;&gt;Node4</title>
<path fill="none" stroke="midnightblue" d="M2310,-584.17C2310,-575.29 2310,-566.03 2310,-557.64"/>
<polygon fill="midnightblue" stroke="midnightblue" points="2306.5,-584.34 2310,-594.34 2313.5,-584.34 2306.5,-584.34"/>
</g>
<!-- Node5 -->
<g id="node5" class="node">
<title>Node5</title>
<g id="a_node5"><a xlink:href="main_8cpp.html" target="_top" xlink:title=" ">
<polygon fill="white" stroke="black" points="3304,-0.5 3304,-44.5 3454,-44.5 3454,-0.5 3304,-0.5"/>
<text text-anchor="start" x="3312" y="-27.7" font-family="Source Sans Pro" font-size="16.00">Illumination&#45;Engine</text>
<text text-anchor="middle" x="3379" y="-9.7" font-family="Source Sans Pro" font-size="16.00">/src/main.cpp</text>
</a>
</g>
</g>
<!-- Node4&#45;&gt;Node5 -->
<g id="edge4" class="edge">
<title>Node4&#45;&gt;Node5</title>
<path fill="none" stroke="midnightblue" d="M2423.98,-503.39C2681.79,-450.82 3296.51,-310.26 3415,-144 3436.54,-113.77 3413.6,-70.55 3395.75,-44.93"/>
<polygon fill="midnightblue" stroke="midnightblue" points="2422.95,-500.03 2413.85,-505.45 2424.34,-506.89 2422.95,-500.03"/>
</g>
<!-- Node7&#45;&gt;Node6 -->
<g id="edge49" class="edge">
<title>Node7&#45;&gt;Node6</title>
<path fill="none" stroke="midnightblue" d="M1935.66,-621.22C1758.57,-612.29 1364.19,-579.37 1058,-459 983.32,-429.64 966.81,-413.51 907,-360 887.65,-342.69 781.14,-191.77 758,-180 641.9,-120.97 300.84,-168.91 173,-144 170.06,-143.43 167.08,-142.78 164.08,-142.08"/>
<polygon fill="midnightblue" stroke="midnightblue" points="1935.56,-624.72 1945.72,-621.71 1935.9,-617.73 1935.56,-624.72"/>
</g>
<!-- Node8 -->
<g id="node8" class="node">
<title>Node8</title>
<g id="a_node8"><a xlink:href="_i_e_renderable_8hpp.html" target="_top" xlink:title=" ">
<polygon fill="white" stroke="black" points="2357.5,-189.5 2357.5,-251.5 2584.5,-251.5 2584.5,-189.5 2357.5,-189.5"/>
<text text-anchor="start" x="2365.5" y="-234.7" font-family="Source Sans Pro" font-size="16.00">Illumination&#45;Engine</text>
<text text-anchor="start" x="2365.5" y="-216.7" font-family="Source Sans Pro" font-size="16.00">/src/GraphicsModule</text>
<text text-anchor="middle" x="2471" y="-198.7" font-family="Source Sans Pro" font-size="16.00">/Renderable/IERenderable.hpp</text>
</a>
</g>
</g>
<!-- Node7&#45;&gt;Node8 -->
<g id="edge8" class="edge">
<title>Node7&#45;&gt;Node8</title>
<path fill="none" stroke="midnightblue" d="M2075.54,-588.02C2109.26,-561.79 2156.11,-525.75 2198,-495 2282.09,-433.26 2319.39,-436.78 2390,-360 2420.08,-327.3 2444.12,-281.58 2457.97,-251.76"/>
<polygon fill="midnightblue" stroke="midnightblue" points="2072.99,-585.57 2067.25,-594.47 2077.29,-591.09 2072.99,-585.57"/>
</g>
<!-- Node11 -->
<g id="node11" class="node">
<title>Node11</title>
<g id="a_node11"><a xlink:href="_i_e_pipeline_8hpp.html" target="_top" xlink:title=" ">
<polygon fill="white" stroke="black" points="1716.5,-495.5 1716.5,-557.5 1889.5,-557.5 1889.5,-495.5 1716.5,-495.5"/>
<text text-anchor="start" x="1724.5" y="-540.7" font-family="Source Sans Pro" font-size="16.00">Illumination&#45;Engine</text>
<text text-anchor="start" x="1724.5" y="-522.7" font-family="Source Sans Pro" font-size="16.00">/src/GraphicsModule</text>
<text text-anchor="middle" x="1803" y="-504.7" font-family="Source Sans Pro" font-size="16.00">/Shader/IEPipeline.hpp</text>
</a>
</g>
</g>
<!-- Node7&#45;&gt;Node11 -->
<g id="edge12" class="edge">
<title>Node7&#45;&gt;Node11</title>
<path fill="none" stroke="midnightblue" d="M1949.6,-590.42C1924.64,-579.71 1897.28,-567.96 1873.02,-557.55"/>
<polygon fill="midnightblue" stroke="midnightblue" points="1948.47,-593.74 1959.04,-594.47 1951.23,-587.31 1948.47,-593.74"/>
</g>
<!-- Node8&#45;&gt;Node9 -->
<g id="edge9" class="edge">
<title>Node8&#45;&gt;Node9</title>
<path fill="none" stroke="midnightblue" d="M2595.07,-216.25C2747.91,-210.2 3014.74,-192.96 3238,-144 3240.68,-143.41 3243.4,-142.77 3246.13,-142.07"/>
<polygon fill="midnightblue" stroke="midnightblue" points="2594.58,-212.76 2584.72,-216.65 2594.85,-219.76 2594.58,-212.76"/>
</g>
<!-- Node10 -->
<g id="node10" class="node">
<title>Node10</title>
<g id="a_node10"><a xlink:href="_i_e_renderable_8cpp.html" target="_top" xlink:title=" ">
<polygon fill="white" stroke="black" points="2448.5,-81.5 2448.5,-143.5 2673.5,-143.5 2673.5,-81.5 2448.5,-81.5"/>
<text text-anchor="start" x="2456.5" y="-126.7" font-family="Source Sans Pro" font-size="16.00">Illumination&#45;Engine</text>
<text text-anchor="start" x="2456.5" y="-108.7" font-family="Source Sans Pro" font-size="16.00">/src/GraphicsModule</text>
<text text-anchor="middle" x="2561" y="-90.7" font-family="Source Sans Pro" font-size="16.00">/Renderable/IERenderable.cpp</text>
</a>
</g>
</g>
<!-- Node8&#45;&gt;Node10 -->
<g id="edge11" class="edge">
<title>Node8&#45;&gt;Node10</title>
<path fill="none" stroke="midnightblue" d="M2503.31,-181.45C2513.85,-169.03 2525.4,-155.42 2535.39,-143.67"/>
<polygon fill="midnightblue" stroke="midnightblue" points="2500.35,-179.52 2496.55,-189.41 2505.69,-184.05 2500.35,-179.52"/>
</g>
<!-- Node9&#45;&gt;Node5 -->
<g id="edge10" class="edge">
<title>Node9&#45;&gt;Node5</title>
<path fill="none" stroke="midnightblue" d="M3349.45,-72.56C3355.23,-62.97 3361.19,-53.07 3366.24,-44.68"/>
<polygon fill="midnightblue" stroke="midnightblue" points="3346.4,-70.84 3344.24,-81.22 3352.4,-74.45 3346.4,-70.84"/>
</g>
<!-- Node11&#45;&gt;Node8 -->
<g id="edge47" class="edge">
<title>Node11&#45;&gt;Node8</title>
<path fill="none" stroke="midnightblue" d="M1874.84,-491.24C1939.25,-461.86 2037.03,-420.49 2126,-396 2225.33,-368.66 2268.23,-415.54 2355,-360 2383.34,-341.86 2375.8,-323.13 2397,-297 2409.84,-281.18 2425.45,-264.89 2439.03,-251.5"/>
<polygon fill="midnightblue" stroke="midnightblue" points="1873.21,-488.14 1865.58,-495.49 1876.13,-494.5 1873.21,-488.14"/>
</g>
<!-- Node11&#45;&gt;Node12 -->
<g id="edge13" class="edge">
<title>Node11&#45;&gt;Node12</title>
<path fill="none" stroke="midnightblue" d="M1705.96,-523.89C1595.28,-519.73 1409.99,-505.63 1258,-459 1073.67,-402.45 1005.91,-399.72 872,-261 844.38,-232.39 866.43,-203.02 834,-180 770.24,-134.74 561.33,-155.56 484,-144 481.29,-143.59 478.55,-143.17 475.79,-142.74"/>
<polygon fill="midnightblue" stroke="midnightblue" points="1705.98,-527.39 1716.1,-524.25 1706.23,-520.4 1705.98,-527.39"/>
</g>
<!-- Node13 -->
<g id="node13" class="node">
<title>Node13</title>
<g id="a_node13"><a xlink:href="_i_e_command_buffer_8hpp.html" target="_top" xlink:title=" ">
<polygon fill="white" stroke="black" points="1353.5,-396.5 1353.5,-458.5 1648.5,-458.5 1648.5,-396.5 1353.5,-396.5"/>
<text text-anchor="start" x="1361.5" y="-441.7" font-family="Source Sans Pro" font-size="16.00">Illumination&#45;Engine</text>
<text text-anchor="start" x="1361.5" y="-423.7" font-family="Source Sans Pro" font-size="16.00">/src/GraphicsModule</text>
<text text-anchor="middle" x="1501" y="-405.7" font-family="Source Sans Pro" font-size="16.00">/CommandBuffer/IECommandBuffer.hpp</text>
</a>
</g>
</g>
<!-- Node11&#45;&gt;Node13 -->
<g id="edge14" class="edge">
<title>Node11&#45;&gt;Node13</title>
<path fill="none" stroke="midnightblue" d="M1706.94,-494.64C1670.96,-483.09 1630.16,-469.98 1594.42,-458.51"/>
<polygon fill="midnightblue" stroke="midnightblue" points="1705.87,-497.98 1716.46,-497.7 1708.01,-491.31 1705.87,-497.98"/>
</g>
<!-- Node11&#45;&gt;Node27 -->
<g id="edge48" class="edge">
<title>Node11&#45;&gt;Node27</title>
<path fill="none" stroke="midnightblue" d="M1808.09,-485.14C1812.25,-437.72 1813.5,-357.8 1785,-297 1753.38,-229.55 1732.8,-210.84 1665,-180 1575.1,-139.1 1318.88,-163.22 1222,-144 1219.11,-143.43 1216.19,-142.8 1213.25,-142.12"/>
<polygon fill="midnightblue" stroke="midnightblue" points="1804.58,-485.03 1807.1,-495.32 1811.55,-485.71 1804.58,-485.03"/>
</g>
<!-- Node30 -->
<g id="node30" class="node">
<title>Node30</title>
<g id="a_node30"><a xlink:href="_i_e_dependency_8cpp.html" target="_top" xlink:title=" ">
<polygon fill="white" stroke="black" points="1038,-189.5 1038,-251.5 1304,-251.5 1304,-189.5 1038,-189.5"/>
<text text-anchor="start" x="1046" y="-234.7" font-family="Source Sans Pro" font-size="16.00">Illumination&#45;Engine</text>
<text text-anchor="start" x="1046" y="-216.7" font-family="Source Sans Pro" font-size="16.00">/src/GraphicsModule</text>
<text text-anchor="middle" x="1171" y="-198.7" font-family="Source Sans Pro" font-size="16.00">/CommandBuffer/IEDependency.cpp</text>
</a>
</g>
</g>
<!-- Node11&#45;&gt;Node30 -->
<g id="edge41" class="edge">
<title>Node11&#45;&gt;Node30</title>
<path fill="none" stroke="midnightblue" d="M1706.06,-518.14C1590.86,-508.25 1406.39,-488.42 1344,-459 1284.81,-431.09 1273.72,-412.76 1235,-360 1210.16,-326.15 1191.54,-281.13 1180.97,-251.74"/>
<polygon fill="midnightblue" stroke="midnightblue" points="1706.03,-521.65 1716.29,-519.01 1706.62,-514.68 1706.03,-521.65"/>
</g>
<!-- Node31 -->
<g id="node31" class="node">
<title>Node31</title>
<g id="a_node31"><a xlink:href="_i_e_mesh_8hpp.html" target="_top" xlink:title=" ">
<polygon fill="white" stroke="black" points="2160.5,-297.5 2160.5,-359.5 2345.5,-359.5 2345.5,-297.5 2160.5,-297.5"/>
<text text-anchor="start" x="2168.5" y="-342.7" font-family="Source Sans Pro" font-size="16.00">Illumination&#45;Engine</text>
<text text-anchor="start" x="2168.5" y="-324.7" font-family="Source Sans Pro" font-size="16.00">/src/GraphicsModule</text>
<text text-anchor="middle" x="2253" y="-306.7" font-family="Source Sans Pro" font-size="16.00">/Renderable/IEMesh.hpp</text>
</a>
</g>
</g>
<!-- Node11&#45;&gt;Node31 -->
<g id="edge42" class="edge">
<title>Node11&#45;&gt;Node31</title>
<path fill="none" stroke="midnightblue" d="M1812.09,-485.25C1820.87,-455.9 1837.21,-417.62 1866,-396 1911.31,-361.97 2060.99,-344.1 2160.36,-335.74"/>
<polygon fill="midnightblue" stroke="midnightblue" points="1808.62,-484.65 1809.29,-495.22 1815.36,-486.54 1808.62,-484.65"/>
</g>
<!-- Node13&#45;&gt;Node12 -->
<g id="edge15" class="edge">
<title>Node13&#45;&gt;Node12</title>
<path fill="none" stroke="midnightblue" d="M1348.25,-393.96C1310.77,-384.43 1271.07,-373.02 1235,-360 1139.46,-325.5 1119.92,-306.29 1029,-261 958.72,-225.99 947.36,-202.03 872,-180 705.77,-131.41 655.41,-168.75 484,-144 481.29,-143.61 478.55,-143.2 475.79,-142.78"/>
<polygon fill="midnightblue" stroke="midnightblue" points="1347.69,-397.43 1358.25,-396.47 1349.4,-390.64 1347.69,-397.43"/>
</g>
<!-- Node14 -->
<g id="node14" class="node">
<title>Node14</title>
<g id="a_node14"><a xlink:href="_i_e_command_pool_8hpp.html" target="_top" xlink:title=" ">
<polygon fill="white" stroke="black" points="1490.5,-297.5 1490.5,-359.5 1775.5,-359.5 1775.5,-297.5 1490.5,-297.5"/>
<text text-anchor="start" x="1498.5" y="-342.7" font-family="Source Sans Pro" font-size="16.00">Illumination&#45;Engine</text>
<text text-anchor="start" x="1498.5" y="-324.7" font-family="Source Sans Pro" font-size="16.00">/src/GraphicsModule</text>
<text text-anchor="middle" x="1633" y="-306.7" font-family="Source Sans Pro" font-size="16.00">/CommandBuffer/IECommandPool.hpp</text>
</a>
</g>
</g>
<!-- Node13&#45;&gt;Node14 -->
<g id="edge16" class="edge">
<title>Node13&#45;&gt;Node14</title>
<path fill="none" stroke="midnightblue" d="M1550.41,-390.19C1564.11,-380.12 1578.82,-369.31 1591.98,-359.64"/>
<polygon fill="midnightblue" stroke="midnightblue" points="1548.03,-387.6 1542.04,-396.34 1552.17,-393.24 1548.03,-387.6"/>
</g>
<!-- Node28 -->
<g id="node28" class="node">
<title>Node28</title>
<g id="a_node28"><a xlink:href="_i_e_render_pass_8hpp.html" target="_top" xlink:title=" ">
<polygon fill="white" stroke="black" points="1244,-297.5 1244,-359.5 1472,-359.5 1472,-297.5 1244,-297.5"/>
<text text-anchor="start" x="1252" y="-342.7" font-family="Source Sans Pro" font-size="16.00">Illumination&#45;Engine</text>
<text text-anchor="start" x="1252" y="-324.7" font-family="Source Sans Pro" font-size="16.00">/src/GraphicsModule</text>
<text text-anchor="middle" x="1358" y="-306.7" font-family="Source Sans Pro" font-size="16.00">/RenderPass/IERenderPass.hpp</text>
</a>
</g>
</g>
<!-- Node13&#45;&gt;Node28 -->
<g id="edge35" class="edge">
<title>Node13&#45;&gt;Node28</title>
<path fill="none" stroke="midnightblue" d="M1447.89,-390.47C1432.93,-380.33 1416.83,-369.4 1402.43,-359.64"/>
<polygon fill="midnightblue" stroke="midnightblue" points="1446.3,-393.62 1456.54,-396.34 1450.23,-387.83 1446.3,-393.62"/>
</g>
<!-- Node14&#45;&gt;Node15 -->
<g id="edge17" class="edge">
<title>Node14&#45;&gt;Node15</title>
<path fill="none" stroke="midnightblue" d="M1649.36,-287.56C1660.02,-254.37 1667.54,-208.16 1641,-180 1594.5,-130.67 1099.22,-152.73 1032,-144 1029.08,-143.62 1026.14,-143.22 1023.17,-142.79"/>
<polygon fill="midnightblue" stroke="midnightblue" points="1645.92,-286.82 1645.99,-297.41 1652.54,-289.09 1645.92,-286.82"/>
</g>
<!-- Node16 -->
<g id="node16" class="node">
<title>Node16</title>
<g id="a_node16"><a xlink:href="_i_e_render_engine_8hpp.html" target="_top" xlink:title=" ">
<polygon fill="white" stroke="black" points="1832.5,-189.5 1832.5,-251.5 1993.5,-251.5 1993.5,-189.5 1832.5,-189.5"/>
<text text-anchor="start" x="1840.5" y="-234.7" font-family="Source Sans Pro" font-size="16.00">Illumination&#45;Engine</text>
<text text-anchor="start" x="1840.5" y="-216.7" font-family="Source Sans Pro" font-size="16.00">/src/GraphicsModule</text>
<text text-anchor="middle" x="1913" y="-198.7" font-family="Source Sans Pro" font-size="16.00">/IERenderEngine.hpp</text>
</a>
</g>
</g>
<!-- Node14&#45;&gt;Node16 -->
<g id="edge18" class="edge">
<title>Node14&#45;&gt;Node16</title>
<path fill="none" stroke="midnightblue" d="M1721.94,-293.83C1757.68,-280.3 1798.56,-264.82 1833.31,-251.67"/>
<polygon fill="midnightblue" stroke="midnightblue" points="1720.6,-290.59 1712.49,-297.41 1723.08,-297.14 1720.6,-290.59"/>
</g>
<!-- Node16&#45;&gt;Node6 -->
<g id="edge34" class="edge">
<title>Node16&#45;&gt;Node6</title>
<path fill="none" stroke="midnightblue" d="M1822.36,-203.56C1769.61,-194.99 1701.75,-185.14 1641,-180 1315.84,-152.5 494.4,-200.48 173,-144 170.05,-143.48 167.06,-142.88 164.05,-142.22"/>
<polygon fill="midnightblue" stroke="midnightblue" points="1821.92,-207.04 1832.36,-205.2 1823.06,-200.13 1821.92,-207.04"/>
</g>
<!-- Node16&#45;&gt;Node9 -->
<g id="edge24" class="edge">
<title>Node16&#45;&gt;Node9</title>
<path fill="none" stroke="midnightblue" d="M2003.63,-209.96C2091.74,-201 2229.42,-187.83 2349,-180 2546.29,-167.08 3043.73,-180.77 3238,-144 3240.7,-143.49 3243.43,-142.91 3246.17,-142.28"/>
<polygon fill="midnightblue" stroke="midnightblue" points="2003.26,-206.48 1993.66,-210.98 2003.97,-213.44 2003.26,-206.48"/>
</g>
<!-- Node16&#45;&gt;Node10 -->
<g id="edge31" class="edge">
<title>Node16&#45;&gt;Node10</title>
<path fill="none" stroke="midnightblue" d="M2003.76,-209.42C2109.17,-197.05 2288.02,-173.96 2440,-144 2442.76,-143.46 2445.56,-142.89 2448.37,-142.3"/>
<polygon fill="midnightblue" stroke="midnightblue" points="2003.32,-205.95 1993.8,-210.59 2004.14,-212.9 2003.32,-205.95"/>
</g>
<!-- Node16&#45;&gt;Node12 -->
<g id="edge20" class="edge">
<title>Node16&#45;&gt;Node12</title>
<path fill="none" stroke="midnightblue" d="M1822.34,-203.71C1769.59,-195.19 1701.73,-185.34 1641,-180 1128.5,-134.96 995.21,-201.86 484,-144 481.27,-143.69 478.53,-143.36 475.76,-143.01"/>
<polygon fill="midnightblue" stroke="midnightblue" points="1821.91,-207.19 1832.35,-205.34 1823.04,-200.28 1821.91,-207.19"/>
</g>
<!-- Node16&#45;&gt;Node15 -->
<g id="edge21" class="edge">
<title>Node16&#45;&gt;Node15</title>
<path fill="none" stroke="midnightblue" d="M1822.34,-202.15C1777.81,-194.24 1723.26,-185.44 1674,-180 1389.94,-148.65 1315.46,-180.38 1032,-144 1029.08,-143.63 1026.14,-143.23 1023.17,-142.81"/>
<polygon fill="midnightblue" stroke="midnightblue" points="1821.81,-205.61 1832.27,-203.93 1823.04,-198.72 1821.81,-205.61"/>
</g>
<!-- Node17 -->
<g id="node17" class="node">
<title>Node17</title>
<g id="a_node17"><a xlink:href="_i_e_buffer_8cpp.html" target="_top" xlink:title=" ">
<polygon fill="white" stroke="black" points="1704.5,-81.5 1704.5,-143.5 1861.5,-143.5 1861.5,-81.5 1704.5,-81.5"/>
<text text-anchor="start" x="1712.5" y="-126.7" font-family="Source Sans Pro" font-size="16.00">Illumination&#45;Engine</text>
<text text-anchor="start" x="1712.5" y="-108.7" font-family="Source Sans Pro" font-size="16.00">/src/GraphicsModule</text>
<text text-anchor="middle" x="1783" y="-90.7" font-family="Source Sans Pro" font-size="16.00">/Buffer/IEBuffer.cpp</text>
</a>
</g>
</g>
<!-- Node16&#45;&gt;Node17 -->
<g id="edge19" class="edge">
<title>Node16&#45;&gt;Node17</title>
<path fill="none" stroke="midnightblue" d="M1868.07,-182.87C1852.38,-170.07 1834.97,-155.87 1820,-143.67"/>
<polygon fill="midnightblue" stroke="midnightblue" points="1866.13,-185.8 1876.09,-189.41 1870.56,-180.38 1866.13,-185.8"/>
</g>
<!-- Node16&#45;&gt;Node18 -->
<g id="edge22" class="edge">
<title>Node16&#45;&gt;Node18</title>
<path fill="none" stroke="midnightblue" d="M1984.68,-184.96C2012.33,-171.64 2043.66,-156.54 2070.39,-143.67"/>
<polygon fill="midnightblue" stroke="midnightblue" points="1982.94,-181.91 1975.45,-189.41 1985.98,-188.22 1982.94,-181.91"/>
</g>
<!-- Node19 -->
<g id="node19" class="node">
<title>Node19</title>
<g id="a_node19"><a xlink:href="_i_e_camera_8cpp.html" target="_top" xlink:title=" ">
<polygon fill="white" stroke="black" points="1879.5,-81.5 1879.5,-143.5 2036.5,-143.5 2036.5,-81.5 1879.5,-81.5"/>
<text text-anchor="start" x="1887.5" y="-126.7" font-family="Source Sans Pro" font-size="16.00">Illumination&#45;Engine</text>
<text text-anchor="start" x="1887.5" y="-108.7" font-family="Source Sans Pro" font-size="16.00">/src/GraphicsModule</text>
<text text-anchor="middle" x="1958" y="-90.7" font-family="Source Sans Pro" font-size="16.00">/IECamera.cpp</text>
</a>
</g>
</g>
<!-- Node16&#45;&gt;Node19 -->
<g id="edge23" class="edge">
<title>Node16&#45;&gt;Node19</title>
<path fill="none" stroke="midnightblue" d="M1929.76,-180.03C1934.86,-168 1940.39,-154.98 1945.19,-143.67"/>
<polygon fill="midnightblue" stroke="midnightblue" points="1926.46,-178.84 1925.77,-189.41 1932.9,-181.57 1926.46,-178.84"/>
</g>
<!-- Node16&#45;&gt;Node20 -->
<g id="edge25" class="edge">
<title>Node16&#45;&gt;Node20</title>
<path fill="none" stroke="midnightblue" d="M2003.68,-210.67C2091.83,-202.23 2229.53,-189.43 2349,-180 2586.58,-161.25 2650.54,-191.86 2884,-144 2886.67,-143.45 2889.36,-142.85 2892.07,-142.19"/>
<polygon fill="midnightblue" stroke="midnightblue" points="2003.33,-207.19 1993.71,-211.62 2004,-214.15 2003.33,-207.19"/>
</g>
<!-- Node16&#45;&gt;Node21 -->
<g id="edge26" class="edge">
<title>Node16&#45;&gt;Node21</title>
<path fill="none" stroke="midnightblue" d="M2003.65,-210.23C2091.78,-201.47 2229.46,-188.44 2349,-180 2664.18,-157.74 2748.75,-203.8 3059,-144 3061.73,-143.47 3064.48,-142.88 3067.25,-142.24"/>
<polygon fill="midnightblue" stroke="midnightblue" points="2003.29,-206.75 1993.68,-211.22 2003.98,-213.72 2003.29,-206.75"/>
</g>
<!-- Node22 -->
<g id="node22" class="node">
<title>Node22</title>
<g id="a_node22"><a xlink:href="_i_e_framebuffer_8cpp.html" target="_top" xlink:title=" ">
<polygon fill="white" stroke="black" points="1231,-81.5 1231,-143.5 1461,-143.5 1461,-81.5 1231,-81.5"/>
<text text-anchor="start" x="1239" y="-126.7" font-family="Source Sans Pro" font-size="16.00">Illumination&#45;Engine</text>
<text text-anchor="start" x="1239" y="-108.7" font-family="Source Sans Pro" font-size="16.00">/src/GraphicsModule</text>
<text text-anchor="middle" x="1346" y="-90.7" font-family="Source Sans Pro" font-size="16.00">/RenderPass/IEFramebuffer.cpp</text>
</a>
</g>
</g>
<!-- Node16&#45;&gt;Node22 -->
<g id="edge27" class="edge">
<title>Node16&#45;&gt;Node22</title>
<path fill="none" stroke="midnightblue" d="M1837.95,-185.98C1831.28,-183.71 1824.57,-181.67 1818,-180 1667.29,-141.75 1623.19,-170.63 1470,-144 1467.05,-143.49 1464.07,-142.94 1461.06,-142.37"/>
<polygon fill="midnightblue" stroke="midnightblue" points="1837.07,-189.38 1847.66,-189.45 1839.42,-182.79 1837.07,-189.38"/>
</g>
<!-- Node16&#45;&gt;Node23 -->
<g id="edge28" class="edge">
<title>Node16&#45;&gt;Node23</title>
<path fill="none" stroke="midnightblue" d="M1822.33,-203.91C1769.57,-195.44 1701.71,-185.59 1641,-180 1237.5,-142.83 1131.17,-201.06 730,-144 726.95,-143.57 723.87,-143.09 720.76,-142.57"/>
<polygon fill="midnightblue" stroke="midnightblue" points="1821.9,-207.38 1832.33,-205.52 1823.02,-200.47 1821.9,-207.38"/>
</g>
<!-- Node24 -->
<g id="node24" class="node">
<title>Node24</title>
<g id="a_node24"><a xlink:href="_i_e_material_8cpp.html" target="_top" xlink:title=" ">
<polygon fill="white" stroke="black" points="2229.5,-81.5 2229.5,-143.5 2430.5,-143.5 2430.5,-81.5 2229.5,-81.5"/>
<text text-anchor="start" x="2237.5" y="-126.7" font-family="Source Sans Pro" font-size="16.00">Illumination&#45;Engine</text>
<text text-anchor="start" x="2237.5" y="-108.7" font-family="Source Sans Pro" font-size="16.00">/src/GraphicsModule</text>
<text text-anchor="middle" x="2330" y="-90.7" font-family="Source Sans Pro" font-size="16.00">/Renderable/IEMaterial.cpp</text>
</a>
</g>
</g>
<!-- Node16&#45;&gt;Node24 -->
<g id="edge29" class="edge">
<title>Node16&#45;&gt;Node24</title>
<path fill="none" stroke="midnightblue" d="M2003.65,-198.1C2065.11,-183.38 2148.11,-163.13 2221,-144 2223.76,-143.28 2226.55,-142.54 2229.37,-141.79"/>
<polygon fill="midnightblue" stroke="midnightblue" points="2002.51,-194.77 1993.6,-200.5 2004.13,-201.58 2002.51,-194.77"/>
</g>
<!-- Node16&#45;&gt;Node25 -->
<g id="edge30" class="edge">
<title>Node16&#45;&gt;Node25</title>
<path fill="none" stroke="midnightblue" d="M2004.07,-210.54C2085.55,-202.53 2208.25,-190.47 2315,-180 2478.55,-163.96 2521.84,-176.13 2683,-144 2685.76,-143.45 2688.55,-142.85 2691.36,-142.22"/>
<polygon fill="midnightblue" stroke="midnightblue" points="2003.46,-207.08 1993.85,-211.55 2004.14,-214.05 2003.46,-207.08"/>
</g>
<!-- Node26 -->
<g id="node26" class="node">
<title>Node26</title>
<g id="a_node26"><a xlink:href="_i_e_descriptor_set_8cpp.html" target="_top" xlink:title=" ">
<polygon fill="white" stroke="black" points="1479.5,-81.5 1479.5,-143.5 1686.5,-143.5 1686.5,-81.5 1479.5,-81.5"/>
<text text-anchor="start" x="1487.5" y="-126.7" font-family="Source Sans Pro" font-size="16.00">Illumination&#45;Engine</text>
<text text-anchor="start" x="1487.5" y="-108.7" font-family="Source Sans Pro" font-size="16.00">/src/GraphicsModule</text>
<text text-anchor="middle" x="1583" y="-90.7" font-family="Source Sans Pro" font-size="16.00">/Shader/IEDescriptorSet.cpp</text>
</a>
</g>
</g>
<!-- Node16&#45;&gt;Node26 -->
<g id="edge32" class="edge">
<title>Node16&#45;&gt;Node26</title>
<path fill="none" stroke="midnightblue" d="M1833.77,-185.74C1828.46,-183.73 1823.17,-181.8 1818,-180 1804.86,-175.43 1743.42,-158.06 1686.67,-142.23"/>
<polygon fill="midnightblue" stroke="midnightblue" points="1832.73,-189.09 1843.32,-189.43 1835.25,-182.56 1832.73,-189.09"/>
</g>
<!-- Node16&#45;&gt;Node27 -->
<g id="edge33" class="edge">
<title>Node16&#45;&gt;Node27</title>
<path fill="none" stroke="midnightblue" d="M1839.22,-186.07C1832.14,-183.7 1825,-181.62 1818,-180 1559.45,-120.23 1482.82,-192.94 1222,-144 1219.11,-143.46 1216.18,-142.85 1213.23,-142.19"/>
<polygon fill="midnightblue" stroke="midnightblue" points="1838.2,-189.42 1848.79,-189.45 1840.53,-182.82 1838.2,-189.42"/>
</g>
<!-- Node28&#45;&gt;Node16 -->
<g id="edge38" class="edge">
<title>Node28&#45;&gt;Node16</title>
<path fill="none" stroke="midnightblue" d="M1482,-296.86C1584.55,-276.61 1612.77,-278.48 1712,-261 1751.75,-254 1795.77,-245.44 1832.45,-238.08"/>
<polygon fill="midnightblue" stroke="midnightblue" points="1481.29,-293.43 1472.17,-298.82 1482.66,-300.3 1481.29,-293.43"/>
</g>
<!-- Node28&#45;&gt;Node22 -->
<g id="edge39" class="edge">
<title>Node28&#45;&gt;Node22</title>
<path fill="none" stroke="midnightblue" d="M1482.31,-296.96C1555.68,-283.29 1597.42,-315.47 1641,-261 1663.49,-232.89 1663.68,-207.96 1641,-180 1592.06,-119.69 1545.72,-161.28 1470,-144 1467.08,-143.33 1464.13,-142.65 1461.15,-141.96"/>
<polygon fill="midnightblue" stroke="midnightblue" points="1481.29,-293.59 1472.23,-299.09 1482.74,-300.44 1481.29,-293.59"/>
</g>
<!-- Node28&#45;&gt;Node23 -->
<g id="edge40" class="edge">
<title>Node28&#45;&gt;Node23</title>
<path fill="none" stroke="midnightblue" d="M1351.01,-287.23C1343.37,-248.32 1329.93,-193.36 1313,-180 1262.06,-139.79 794.15,-153.85 730,-144 726.96,-143.53 723.88,-143.02 720.77,-142.48"/>
<polygon fill="midnightblue" stroke="midnightblue" points="1347.61,-288.07 1352.92,-297.24 1354.49,-286.76 1347.61,-288.07"/>
</g>
<!-- Node29 -->
<g id="node29" class="node">
<title>Node29</title>
<g id="a_node29"><a xlink:href="_i_e_render_pass_begin_info_8cpp.html" target="_top" xlink:title=" ">
<polygon fill="white" stroke="black" points="1360,-180.5 1360,-260.5 1632,-260.5 1632,-180.5 1360,-180.5"/>
<text text-anchor="start" x="1368" y="-243.7" font-family="Source Sans Pro" font-size="16.00">Illumination&#45;Engine</text>
<text text-anchor="start" x="1368" y="-225.7" font-family="Source Sans Pro" font-size="16.00">/src/GraphicsModule</text>
<text text-anchor="start" x="1368" y="-207.7" font-family="Source Sans Pro" font-size="16.00">/CommandBuffer/DependencyStructs</text>
<text text-anchor="middle" x="1496" y="-189.7" font-family="Source Sans Pro" font-size="16.00">/IERenderPassBeginInfo.cpp</text>
</a>
</g>
</g>
<!-- Node28&#45;&gt;Node29 -->
<g id="edge36" class="edge">
<title>Node28&#45;&gt;Node29</title>
<path fill="none" stroke="midnightblue" d="M1405.41,-291.08C1418.21,-281.25 1432.12,-270.57 1445.11,-260.59"/>
<polygon fill="midnightblue" stroke="midnightblue" points="1402.97,-288.54 1397.18,-297.41 1407.24,-294.09 1402.97,-288.54"/>
</g>
<!-- Node28&#45;&gt;Node30 -->
<g id="edge37" class="edge">
<title>Node28&#45;&gt;Node30</title>
<path fill="none" stroke="midnightblue" d="M1296.15,-292.44C1272.88,-279.25 1246.64,-264.38 1224.22,-251.67"/>
<polygon fill="midnightblue" stroke="midnightblue" points="1294.49,-295.52 1304.91,-297.41 1297.94,-289.43 1294.49,-295.52"/>
</g>
<!-- Node31&#45;&gt;Node8 -->
<g id="edge46" class="edge">
<title>Node31&#45;&gt;Node8</title>
<path fill="none" stroke="midnightblue" d="M2324.03,-292.96C2351.42,-279.64 2382.48,-264.54 2408.96,-251.67"/>
<polygon fill="midnightblue" stroke="midnightblue" points="2322.35,-289.89 2314.89,-297.41 2325.41,-296.18 2322.35,-289.89"/>
</g>
<!-- Node31&#45;&gt;Node10 -->
<g id="edge45" class="edge">
<title>Node31&#45;&gt;Node10</title>
<path fill="none" stroke="midnightblue" d="M2267.59,-287.88C2283.04,-246.82 2306.36,-187.55 2315,-180 2317.78,-177.57 2384.81,-159.52 2448.19,-142.85"/>
<polygon fill="midnightblue" stroke="midnightblue" points="2264.27,-286.78 2264.04,-297.37 2270.82,-289.24 2264.27,-286.78"/>
</g>
<!-- Node31&#45;&gt;Node24 -->
<g id="edge43" class="edge">
<title>Node31&#45;&gt;Node24</title>
<path fill="none" stroke="midnightblue" d="M2254.07,-287.13C2256.16,-256.57 2261.86,-214.16 2277,-180 2282.74,-167.04 2291.63,-154.45 2300.5,-143.77"/>
<polygon fill="midnightblue" stroke="midnightblue" points="2250.56,-287.23 2253.47,-297.42 2257.55,-287.64 2250.56,-287.23"/>
</g>
<!-- Node31&#45;&gt;Node25 -->
<g id="edge44" class="edge">
<title>Node31&#45;&gt;Node25</title>
<path fill="none" stroke="midnightblue" d="M2288.37,-289.65C2295.97,-280.61 2303.63,-270.75 2310,-261 2331.85,-227.55 2316.36,-203.04 2349,-180 2409.99,-136.95 2609.86,-158.96 2683,-144 2685.76,-143.44 2688.55,-142.83 2691.35,-142.19"/>
<polygon fill="midnightblue" stroke="midnightblue" points="2285.6,-287.5 2281.73,-297.36 2290.91,-292.07 2285.6,-287.5"/>
</g>
<!-- Node32&#45;&gt;Node16 -->
<g id="edge55" class="edge">
<title>Node32&#45;&gt;Node16</title>
<path fill="none" stroke="midnightblue" d="M1869.64,-684.39C1890.63,-645.89 1918,-584.72 1918,-527.5 1918,-527.5 1918,-527.5 1918,-426.5 1918,-364.38 1915.68,-291.69 1914.2,-251.71"/>
<polygon fill="midnightblue" stroke="midnightblue" points="1866.54,-682.76 1864.73,-693.2 1872.65,-686.17 1866.54,-682.76"/>
</g>
<!-- Node33 -->
<g id="node33" class="node">
<title>Node33</title>
<g id="a_node33"><a xlink:href="_i_e_settings_8cpp.html" target="_top" xlink:title=" ">
<polygon fill="white" stroke="black" points="1038.5,-594.5 1038.5,-656.5 1195.5,-656.5 1195.5,-594.5 1038.5,-594.5"/>
<text text-anchor="start" x="1046.5" y="-639.7" font-family="Source Sans Pro" font-size="16.00">Illumination&#45;Engine</text>
<text text-anchor="start" x="1046.5" y="-621.7" font-family="Source Sans Pro" font-size="16.00">/src/GraphicsModule</text>
<text text-anchor="middle" x="1117" y="-603.7" font-family="Source Sans Pro" font-size="16.00">/IESettings.cpp</text>
</a>
</g>
</g>
<!-- Node32&#45;&gt;Node33 -->
<g id="edge56" class="edge">
<title>Node32&#45;&gt;Node33</title>
<path fill="none" stroke="midnightblue" d="M1757.14,-720.17C1633.33,-714.18 1402.45,-698.13 1210,-657 1205.26,-655.99 1200.43,-654.82 1195.58,-653.55"/>
<polygon fill="midnightblue" stroke="midnightblue" points="1757.17,-723.67 1767.33,-720.65 1757.5,-716.68 1757.17,-723.67"/>
</g>
</g>
</svg>
