<?xml version="1.0" encoding="UTF-8" standalone="no"?>
<!DOCTYPE svg PUBLIC "-//W3C//DTD SVG 1.1//EN"
 "http://www.w3.org/Graphics/SVG/1.1/DTD/svg11.dtd">
<!-- Generated by graphviz version 2.43.0 (0)
 -->
<!-- Title: Illumination&#45;Engine/src/InputModule/IEKeyboard.hpp Pages: 1 -->
<svg width="531pt" height="116pt"
 viewBox="0.00 0.00 531.00 116.00" xmlns="http://www.w3.org/2000/svg" xmlns:xlink="http://www.w3.org/1999/xlink">
<g id="graph0" class="graph" transform="scale(1 1) rotate(0) translate(4 112)">
<title>Illumination&#45;Engine/src/InputModule/IEKeyboard.hpp</title>
<polygon fill="white" stroke="transparent" points="-4,4 -4,-112 527,-112 527,4 -4,4"/>
<!-- Node1 -->
<g id="node1" class="node">
<title>Node1</title>
<g id="a_node1"><a xlink:title=" ">
<polygon fill="#bfbfbf" stroke="black" points="191.5,-63.5 191.5,-107.5 439.5,-107.5 439.5,-63.5 191.5,-63.5"/>
<text text-anchor="start" x="199.5" y="-90.7" font-family="Source Sans Pro" font-size="16.00">Illumination&#45;Engine</text>
<text text-anchor="middle" x="315.5" y="-72.7" font-family="Source Sans Pro" font-size="16.00">/src/InputModule/IEKeyboard.hpp</text>
</a>
</g>
</g>
<!-- Node2 -->
<g id="node2" class="node">
<title>Node2</title>
<g id="a_node2"><a xlink:title=" ">
<polygon fill="white" stroke="#bfbfbf" points="0,-0.5 0,-26.5 83,-26.5 83,-0.5 0,-0.5"/>
<text text-anchor="middle" x="41.5" y="-9.7" font-family="Source Sans Pro" font-size="16.00">GL/glew.h</text>
</a>
</g>
</g>
<!-- Node1&#45;&gt;Node2 -->
<g id="edge1" class="edge">
<title>Node1&#45;&gt;Node2</title>
<path fill="none" stroke="midnightblue" d="M233.29,-63.5C187.76,-51.87 132.56,-37.76 93.09,-27.68"/>
<polygon fill="midnightblue" stroke="midnightblue" points="93.71,-24.23 83.16,-25.14 91.98,-31.01 93.71,-24.23"/>
</g>
<!-- Node3 -->
<g id="node3" class="node">
<title>Node3</title>
<g id="a_node3"><a xlink:title=" ">
<polygon fill="white" stroke="#bfbfbf" points="101.5,-0.5 101.5,-26.5 209.5,-26.5 209.5,-0.5 101.5,-0.5"/>
<text text-anchor="middle" x="155.5" y="-9.7" font-family="Source Sans Pro" font-size="16.00">GLFW/glfw3.h</text>
</a>
</g>
</g>
<!-- Node1&#45;&gt;Node3 -->
<g id="edge2" class="edge">
<title>Node1&#45;&gt;Node3</title>
<path fill="none" stroke="midnightblue" d="M267.49,-63.5C243.44,-52.97 214.76,-40.43 192.45,-30.67"/>
<polygon fill="midnightblue" stroke="midnightblue" points="193.56,-27.33 183,-26.53 190.76,-33.75 193.56,-27.33"/>
</g>
<!-- Node4 -->
<g id="node4" class="node">
<title>Node4</title>
<g id="a_node4"><a xlink:title=" ">
<polygon fill="white" stroke="#bfbfbf" points="227.5,-0.5 227.5,-26.5 313.5,-26.5 313.5,-0.5 227.5,-0.5"/>
<text text-anchor="middle" x="270.5" y="-9.7" font-family="Source Sans Pro" font-size="16.00">functional</text>
</a>
</g>
</g>
<!-- Node1&#45;&gt;Node4 -->
<g id="edge3" class="edge">
<title>Node1&#45;&gt;Node4</title>
<path fill="none" stroke="midnightblue" d="M302,-63.5C296.23,-54.53 289.53,-44.1 283.79,-35.17"/>
<polygon fill="midnightblue" stroke="midnightblue" points="286.59,-33.05 278.23,-26.53 280.7,-36.84 286.59,-33.05"/>
</g>
<!-- Node5 -->
<g id="node5" class="node">
<title>Node5</title>
<g id="a_node5"><a xlink:title=" ">
<polygon fill="white" stroke="#bfbfbf" points="332,-0.5 332,-26.5 391,-26.5 391,-0.5 332,-0.5"/>
<text text-anchor="middle" x="361.5" y="-9.7" font-family="Source Sans Pro" font-size="16.00">vector</text>
</a>
</g>
</g>
<!-- Node1&#45;&gt;Node5 -->
<g id="edge4" class="edge">
<title>Node1&#45;&gt;Node5</title>
<path fill="none" stroke="midnightblue" d="M329.3,-63.5C335.19,-54.53 342.05,-44.1 347.92,-35.17"/>
<polygon fill="midnightblue" stroke="midnightblue" points="351.03,-36.81 353.59,-26.53 345.18,-32.97 351.03,-36.81"/>
</g>
<!-- Node6 -->
<g id="node6" class="node">
<title>Node6</title>
<g id="a_node6"><a xlink:title=" ">
<polygon fill="white" stroke="#bfbfbf" points="409,-0.5 409,-26.5 450,-26.5 450,-0.5 409,-0.5"/>
<text text-anchor="middle" x="429.5" y="-9.7" font-family="Source Sans Pro" font-size="16.00">any</text>
</a>
</g>
</g>
<!-- Node1&#45;&gt;Node6 -->
<g id="edge5" class="edge">
<title>Node1&#45;&gt;Node6</title>
<path fill="none" stroke="midnightblue" d="M349.7,-63.5C366.15,-53.4 385.63,-41.44 401.23,-31.86"/>
<polygon fill="midnightblue" stroke="midnightblue" points="403.22,-34.75 409.91,-26.53 399.55,-28.78 403.22,-34.75"/>
</g>
<!-- Node7 -->
<g id="node7" class="node">
<title>Node7</title>
<g id="a_node7"><a xlink:title=" ">
<polygon fill="white" stroke="#bfbfbf" points="468,-0.5 468,-26.5 523,-26.5 523,-0.5 468,-0.5"/>
<text text-anchor="middle" x="495.5" y="-9.7" font-family="Source Sans Pro" font-size="16.00">string</text>
</a>
</g>
</g>
<!-- Node1&#45;&gt;Node7 -->
<g id="edge6" class="edge">
<title>Node1&#45;&gt;Node7</title>
<path fill="none" stroke="midnightblue" d="M369.51,-63.5C398.16,-52.36 432.63,-38.95 458.27,-28.98"/>
<polygon fill="midnightblue" stroke="midnightblue" points="459.58,-32.22 467.63,-25.34 457.05,-25.7 459.58,-32.22"/>
</g>
</g>
</svg>
