<?xml version="1.0" encoding="UTF-8" standalone="no"?>
<!DOCTYPE svg PUBLIC "-//W3C//DTD SVG 1.1//EN"
 "http://www.w3.org/Graphics/SVG/1.1/DTD/svg11.dtd">
<!-- Generated by graphviz version 2.43.0 (0)
 -->
<!-- Title: Illumination&#45;Engine/src/Core/AssetModule/IEAspect.hpp Pages: 1 -->
<svg width="3642pt" height="449pt"
 viewBox="0.00 0.00 3642.00 449.00" xmlns="http://www.w3.org/2000/svg" xmlns:xlink="http://www.w3.org/1999/xlink">
<g id="graph0" class="graph" transform="scale(1 1) rotate(0) translate(4 445)">
<title>Illumination&#45;Engine/src/Core/AssetModule/IEAspect.hpp</title>
<polygon fill="white" stroke="transparent" points="-4,4 -4,-445 3638,-445 3638,4 -4,4"/>
<!-- Node1 -->
<g id="node1" class="node">
<title>Node1</title>
<g id="a_node1"><a xlink:title=" ">
<polygon fill="#bfbfbf" stroke="black" points="188,-378.5 188,-440.5 358,-440.5 358,-378.5 188,-378.5"/>
<text text-anchor="start" x="196" y="-423.7" font-family="Source Sans Pro" font-size="16.00">Illumination&#45;Engine</text>
<text text-anchor="start" x="196" y="-405.7" font-family="Source Sans Pro" font-size="16.00">/src/Core/AssetModule</text>
<text text-anchor="middle" x="273" y="-387.7" font-family="Source Sans Pro" font-size="16.00">/IEAspect.hpp</text>
</a>
</g>
</g>
<!-- Node2 -->
<g id="node2" class="node">
<title>Node2</title>
<g id="a_node2"><a xlink:href="_i_e_aspect_8cpp.html" target="_top" xlink:title=" ">
<polygon fill="white" stroke="black" points="0,-279.5 0,-341.5 170,-341.5 170,-279.5 0,-279.5"/>
<text text-anchor="start" x="8" y="-324.7" font-family="Source Sans Pro" font-size="16.00">Illumination&#45;Engine</text>
<text text-anchor="start" x="8" y="-306.7" font-family="Source Sans Pro" font-size="16.00">/src/Core/AssetModule</text>
<text text-anchor="middle" x="85" y="-288.7" font-family="Source Sans Pro" font-size="16.00">/IEAspect.cpp</text>
</a>
</g>
</g>
<!-- Node1&#45;&gt;Node2 -->
<g id="edge1" class="edge">
<title>Node1&#45;&gt;Node2</title>
<path fill="none" stroke="midnightblue" d="M205.85,-373.86C185.39,-363.3 163.07,-351.78 143.25,-341.55"/>
<polygon fill="midnightblue" stroke="midnightblue" points="204.31,-377 214.8,-378.47 207.52,-370.78 204.31,-377"/>
</g>
<!-- Node3 -->
<g id="node3" class="node">
<title>Node3</title>
<g id="a_node3"><a xlink:href="_i_e_asset_8hpp.html" target="_top" xlink:title=" ">
<polygon fill="white" stroke="black" points="188,-279.5 188,-341.5 358,-341.5 358,-279.5 188,-279.5"/>
<text text-anchor="start" x="196" y="-324.7" font-family="Source Sans Pro" font-size="16.00">Illumination&#45;Engine</text>
<text text-anchor="start" x="196" y="-306.7" font-family="Source Sans Pro" font-size="16.00">/src/Core/AssetModule</text>
<text text-anchor="middle" x="273" y="-288.7" font-family="Source Sans Pro" font-size="16.00">/IEAsset.hpp</text>
</a>
</g>
</g>
<!-- Node1&#45;&gt;Node3 -->
<g id="edge2" class="edge">
<title>Node1&#45;&gt;Node3</title>
<path fill="none" stroke="midnightblue" d="M273,-368.17C273,-359.29 273,-350.03 273,-341.64"/>
<polygon fill="midnightblue" stroke="midnightblue" points="269.5,-368.34 273,-378.34 276.5,-368.34 269.5,-368.34"/>
</g>
<!-- Node23 -->
<g id="node23" class="node">
<title>Node23</title>
<g id="a_node23"><a xlink:href="_i_e_renderable_8hpp.html" target="_top" xlink:title=" ">
<polygon fill="white" stroke="black" points="301.5,-180.5 301.5,-242.5 528.5,-242.5 528.5,-180.5 301.5,-180.5"/>
<text text-anchor="start" x="309.5" y="-225.7" font-family="Source Sans Pro" font-size="16.00">Illumination&#45;Engine</text>
<text text-anchor="start" x="309.5" y="-207.7" font-family="Source Sans Pro" font-size="16.00">/src/GraphicsModule</text>
<text text-anchor="middle" x="415" y="-189.7" font-family="Source Sans Pro" font-size="16.00">/Renderable/IERenderable.hpp</text>
</a>
</g>
</g>
<!-- Node1&#45;&gt;Node23 -->
<g id="edge24" class="edge">
<title>Node1&#45;&gt;Node23</title>
<path fill="none" stroke="midnightblue" d="M335.86,-372.07C347.33,-363.33 358.38,-353.23 367,-342 389.79,-312.34 402.63,-270.74 409.18,-242.76"/>
<polygon fill="midnightblue" stroke="midnightblue" points="333.49,-369.48 327.47,-378.2 337.61,-375.13 333.49,-369.48"/>
</g>
<!-- Node4 -->
<g id="node4" class="node">
<title>Node4</title>
<g id="a_node4"><a xlink:href="_i_e_asset_8cpp.html" target="_top" xlink:title=" ">
<polygon fill="white" stroke="black" points="2,-180.5 2,-242.5 172,-242.5 172,-180.5 2,-180.5"/>
<text text-anchor="start" x="10" y="-225.7" font-family="Source Sans Pro" font-size="16.00">Illumination&#45;Engine</text>
<text text-anchor="start" x="10" y="-207.7" font-family="Source Sans Pro" font-size="16.00">/src/Core/AssetModule</text>
<text text-anchor="middle" x="87" y="-189.7" font-family="Source Sans Pro" font-size="16.00">/IEAsset.cpp</text>
</a>
</g>
</g>
<!-- Node3&#45;&gt;Node4 -->
<g id="edge3" class="edge">
<title>Node3&#45;&gt;Node4</title>
<path fill="none" stroke="midnightblue" d="M206.3,-274.71C186.12,-264.19 164.15,-252.74 144.63,-242.55"/>
<polygon fill="midnightblue" stroke="midnightblue" points="204.94,-277.95 215.42,-279.47 208.17,-271.75 204.94,-277.95"/>
</g>
<!-- Node5 -->
<g id="node5" class="node">
<title>Node5</title>
<g id="a_node5"><a xlink:href="_i_e_render_engine_8cpp.html" target="_top" xlink:title=" ">
<polygon fill="white" stroke="black" points="227.5,-81.5 227.5,-143.5 386.5,-143.5 386.5,-81.5 227.5,-81.5"/>
<text text-anchor="start" x="235.5" y="-126.7" font-family="Source Sans Pro" font-size="16.00">Illumination&#45;Engine</text>
<text text-anchor="start" x="235.5" y="-108.7" font-family="Source Sans Pro" font-size="16.00">/src/GraphicsModule</text>
<text text-anchor="middle" x="307" y="-90.7" font-family="Source Sans Pro" font-size="16.00">/IERenderEngine.cpp</text>
</a>
</g>
</g>
<!-- Node3&#45;&gt;Node5 -->
<g id="edge4" class="edge">
<title>Node3&#45;&gt;Node5</title>
<path fill="none" stroke="midnightblue" d="M278.11,-269.21C281.55,-243.58 286.47,-209.75 292,-180 294.23,-168.01 297.09,-154.91 299.72,-143.52"/>
<polygon fill="midnightblue" stroke="midnightblue" points="274.61,-268.93 276.77,-279.3 281.55,-269.85 274.61,-268.93"/>
</g>
<!-- Node6 -->
<g id="node6" class="node">
<title>Node6</title>
<g id="a_node6"><a xlink:href="main_8cpp.html" target="_top" xlink:title=" ">
<polygon fill="white" stroke="black" points="178,-0.5 178,-44.5 328,-44.5 328,-0.5 178,-0.5"/>
<text text-anchor="start" x="186" y="-27.7" font-family="Source Sans Pro" font-size="16.00">Illumination&#45;Engine</text>
<text text-anchor="middle" x="253" y="-9.7" font-family="Source Sans Pro" font-size="16.00">/src/main.cpp</text>
</a>
</g>
</g>
<!-- Node3&#45;&gt;Node6 -->
<g id="edge23" class="edge">
<title>Node3&#45;&gt;Node6</title>
<path fill="none" stroke="midnightblue" d="M255.93,-270.15C242.61,-237.17 225.2,-188.48 218,-144 213.53,-116.36 210.44,-107.96 218,-81 221.66,-67.95 229.19,-54.92 236.33,-44.57"/>
<polygon fill="midnightblue" stroke="midnightblue" points="252.71,-271.51 259.74,-279.43 259.19,-268.85 252.71,-271.51"/>
</g>
<!-- Node7 -->
<g id="node7" class="node">
<title>Node7</title>
<g id="a_node7"><a xlink:href="_i_e_render_engine_8hpp.html" target="_top" xlink:title=" ">
<polygon fill="white" stroke="black" points="1784.5,-180.5 1784.5,-242.5 1945.5,-242.5 1945.5,-180.5 1784.5,-180.5"/>
<text text-anchor="start" x="1792.5" y="-225.7" font-family="Source Sans Pro" font-size="16.00">Illumination&#45;Engine</text>
<text text-anchor="start" x="1792.5" y="-207.7" font-family="Source Sans Pro" font-size="16.00">/src/GraphicsModule</text>
<text text-anchor="middle" x="1865" y="-189.7" font-family="Source Sans Pro" font-size="16.00">/IERenderEngine.hpp</text>
</a>
</g>
</g>
<!-- Node3&#45;&gt;Node7 -->
<g id="edge6" class="edge">
<title>Node3&#45;&gt;Node7</title>
<path fill="none" stroke="midnightblue" d="M368.03,-303.71C656.05,-286.16 1515.93,-233.77 1784.16,-217.43"/>
<polygon fill="midnightblue" stroke="midnightblue" points="367.8,-300.22 358.03,-304.32 368.22,-307.2 367.8,-300.22"/>
</g>
<!-- Node5&#45;&gt;Node6 -->
<g id="edge5" class="edge">
<title>Node5&#45;&gt;Node6</title>
<path fill="none" stroke="midnightblue" d="M283.1,-72.56C277.22,-62.97 271.14,-53.07 266,-44.68"/>
<polygon fill="midnightblue" stroke="midnightblue" points="280.2,-74.52 288.42,-81.22 286.17,-70.86 280.2,-74.52"/>
</g>
<!-- Node7&#45;&gt;Node5 -->
<g id="edge12" class="edge">
<title>Node7&#45;&gt;Node5</title>
<path fill="none" stroke="midnightblue" d="M1774.21,-209.81C1496.52,-207.16 661.27,-195.05 395,-144 392.3,-143.48 389.57,-142.9 386.83,-142.26"/>
<polygon fill="midnightblue" stroke="midnightblue" points="1774.22,-213.31 1784.25,-209.9 1774.28,-206.31 1774.22,-213.31"/>
</g>
<!-- Node8 -->
<g id="node8" class="node">
<title>Node8</title>
<g id="a_node8"><a xlink:href="_i_e_buffer_8cpp.html" target="_top" xlink:title=" ">
<polygon fill="white" stroke="black" points="647.5,-81.5 647.5,-143.5 804.5,-143.5 804.5,-81.5 647.5,-81.5"/>
<text text-anchor="start" x="655.5" y="-126.7" font-family="Source Sans Pro" font-size="16.00">Illumination&#45;Engine</text>
<text text-anchor="start" x="655.5" y="-108.7" font-family="Source Sans Pro" font-size="16.00">/src/GraphicsModule</text>
<text text-anchor="middle" x="726" y="-90.7" font-family="Source Sans Pro" font-size="16.00">/Buffer/IEBuffer.cpp</text>
</a>
</g>
</g>
<!-- Node7&#45;&gt;Node8 -->
<g id="edge7" class="edge">
<title>Node7&#45;&gt;Node8</title>
<path fill="none" stroke="midnightblue" d="M1774,-207.9C1553.71,-201.09 996.51,-180.69 814,-144 810.99,-143.39 807.94,-142.71 804.87,-141.96"/>
<polygon fill="midnightblue" stroke="midnightblue" points="1774.13,-211.4 1784.23,-208.21 1774.34,-204.41 1774.13,-211.4"/>
</g>
<!-- Node9 -->
<g id="node9" class="node">
<title>Node9</title>
<g id="a_node9"><a xlink:href="_i_e_command_buffer_8cpp.html" target="_top" xlink:title=" ">
<polygon fill="white" stroke="black" points="822.5,-81.5 822.5,-143.5 1115.5,-143.5 1115.5,-81.5 822.5,-81.5"/>
<text text-anchor="start" x="830.5" y="-126.7" font-family="Source Sans Pro" font-size="16.00">Illumination&#45;Engine</text>
<text text-anchor="start" x="830.5" y="-108.7" font-family="Source Sans Pro" font-size="16.00">/src/GraphicsModule</text>
<text text-anchor="middle" x="969" y="-90.7" font-family="Source Sans Pro" font-size="16.00">/CommandBuffer/IECommandBuffer.cpp</text>
</a>
</g>
</g>
<!-- Node7&#45;&gt;Node9 -->
<g id="edge8" class="edge">
<title>Node7&#45;&gt;Node9</title>
<path fill="none" stroke="midnightblue" d="M1774.23,-205.38C1634.34,-196.8 1357.82,-177.13 1125,-144 1121.99,-143.57 1118.96,-143.13 1115.9,-142.66"/>
<polygon fill="midnightblue" stroke="midnightblue" points="1774.28,-208.89 1784.48,-206 1774.71,-201.9 1774.28,-208.89"/>
</g>
<!-- Node10 -->
<g id="node10" class="node">
<title>Node10</title>
<g id="a_node10"><a xlink:href="_i_e_command_pool_8cpp.html" target="_top" xlink:title=" ">
<polygon fill="white" stroke="black" points="1134,-81.5 1134,-143.5 1418,-143.5 1418,-81.5 1134,-81.5"/>
<text text-anchor="start" x="1142" y="-126.7" font-family="Source Sans Pro" font-size="16.00">Illumination&#45;Engine</text>
<text text-anchor="start" x="1142" y="-108.7" font-family="Source Sans Pro" font-size="16.00">/src/GraphicsModule</text>
<text text-anchor="middle" x="1276" y="-90.7" font-family="Source Sans Pro" font-size="16.00">/CommandBuffer/IECommandPool.cpp</text>
</a>
</g>
</g>
<!-- Node7&#45;&gt;Node10 -->
<g id="edge9" class="edge">
<title>Node7&#45;&gt;Node10</title>
<path fill="none" stroke="midnightblue" d="M1774.26,-197.96C1685.73,-185.43 1547.34,-165.04 1428,-144 1424.82,-143.44 1421.6,-142.86 1418.36,-142.28"/>
<polygon fill="midnightblue" stroke="midnightblue" points="1773.88,-201.44 1784.27,-199.37 1774.86,-194.51 1773.88,-201.44"/>
</g>
<!-- Node11 -->
<g id="node11" class="node">
<title>Node11</title>
<g id="a_node11"><a xlink:href="_i_e_a_p_i_8cpp.html" target="_top" xlink:title=" ">
<polygon fill="white" stroke="black" points="1436.5,-81.5 1436.5,-143.5 1593.5,-143.5 1593.5,-81.5 1436.5,-81.5"/>
<text text-anchor="start" x="1444.5" y="-126.7" font-family="Source Sans Pro" font-size="16.00">Illumination&#45;Engine</text>
<text text-anchor="start" x="1444.5" y="-108.7" font-family="Source Sans Pro" font-size="16.00">/src/GraphicsModule</text>
<text text-anchor="middle" x="1515" y="-90.7" font-family="Source Sans Pro" font-size="16.00">/IEAPI.cpp</text>
</a>
</g>
</g>
<!-- Node7&#45;&gt;Node11 -->
<g id="edge10" class="edge">
<title>Node7&#45;&gt;Node11</title>
<path fill="none" stroke="midnightblue" d="M1774.3,-189.49C1723.61,-177.25 1659.47,-160.92 1603,-144 1599.9,-143.07 1596.75,-142.1 1593.57,-141.1"/>
<polygon fill="midnightblue" stroke="midnightblue" points="1773.71,-192.95 1784.25,-191.88 1775.34,-186.14 1773.71,-192.95"/>
</g>
<!-- Node12 -->
<g id="node12" class="node">
<title>Node12</title>
<g id="a_node12"><a xlink:href="_i_e_camera_8cpp.html" target="_top" xlink:title=" ">
<polygon fill="white" stroke="black" points="1611.5,-81.5 1611.5,-143.5 1768.5,-143.5 1768.5,-81.5 1611.5,-81.5"/>
<text text-anchor="start" x="1619.5" y="-126.7" font-family="Source Sans Pro" font-size="16.00">Illumination&#45;Engine</text>
<text text-anchor="start" x="1619.5" y="-108.7" font-family="Source Sans Pro" font-size="16.00">/src/GraphicsModule</text>
<text text-anchor="middle" x="1690" y="-90.7" font-family="Source Sans Pro" font-size="16.00">/IECamera.cpp</text>
</a>
</g>
</g>
<!-- Node7&#45;&gt;Node12 -->
<g id="edge11" class="edge">
<title>Node7&#45;&gt;Node12</title>
<path fill="none" stroke="midnightblue" d="M1801.79,-175.47C1782.99,-165.04 1762.57,-153.72 1744.38,-143.64"/>
<polygon fill="midnightblue" stroke="midnightblue" points="1800.15,-178.55 1810.59,-180.34 1803.54,-172.43 1800.15,-178.55"/>
</g>
<!-- Node13 -->
<g id="node13" class="node">
<title>Node13</title>
<g id="a_node13"><a xlink:href="_i_e_image_8cpp.html" target="_top" xlink:title=" ">
<polygon fill="white" stroke="black" points="1786.5,-81.5 1786.5,-143.5 1943.5,-143.5 1943.5,-81.5 1786.5,-81.5"/>
<text text-anchor="start" x="1794.5" y="-126.7" font-family="Source Sans Pro" font-size="16.00">Illumination&#45;Engine</text>
<text text-anchor="start" x="1794.5" y="-108.7" font-family="Source Sans Pro" font-size="16.00">/src/GraphicsModule</text>
<text text-anchor="middle" x="1865" y="-90.7" font-family="Source Sans Pro" font-size="16.00">/Image/IEImage.cpp</text>
</a>
</g>
</g>
<!-- Node7&#45;&gt;Node13 -->
<g id="edge13" class="edge">
<title>Node7&#45;&gt;Node13</title>
<path fill="none" stroke="midnightblue" d="M1865,-170.17C1865,-161.29 1865,-152.03 1865,-143.64"/>
<polygon fill="midnightblue" stroke="midnightblue" points="1861.5,-170.34 1865,-180.34 1868.5,-170.34 1861.5,-170.34"/>
</g>
<!-- Node14 -->
<g id="node14" class="node">
<title>Node14</title>
<g id="a_node14"><a xlink:href="_i_e_texture_8cpp.html" target="_top" xlink:title=" ">
<polygon fill="white" stroke="black" points="1961.5,-81.5 1961.5,-143.5 2122.5,-143.5 2122.5,-81.5 1961.5,-81.5"/>
<text text-anchor="start" x="1969.5" y="-126.7" font-family="Source Sans Pro" font-size="16.00">Illumination&#45;Engine</text>
<text text-anchor="start" x="1969.5" y="-108.7" font-family="Source Sans Pro" font-size="16.00">/src/GraphicsModule</text>
<text text-anchor="middle" x="2042" y="-90.7" font-family="Source Sans Pro" font-size="16.00">/Image/IETexture.cpp</text>
</a>
</g>
</g>
<!-- Node7&#45;&gt;Node14 -->
<g id="edge14" class="edge">
<title>Node7&#45;&gt;Node14</title>
<path fill="none" stroke="midnightblue" d="M1928.93,-175.47C1947.95,-165.04 1968.61,-153.72 1987,-143.64"/>
<polygon fill="midnightblue" stroke="midnightblue" points="1927.12,-172.47 1920.03,-180.34 1930.49,-178.6 1927.12,-172.47"/>
</g>
<!-- Node15 -->
<g id="node15" class="node">
<title>Node15</title>
<g id="a_node15"><a xlink:href="_i_e_framebuffer_8cpp.html" target="_top" xlink:title=" ">
<polygon fill="white" stroke="black" points="2141,-81.5 2141,-143.5 2371,-143.5 2371,-81.5 2141,-81.5"/>
<text text-anchor="start" x="2149" y="-126.7" font-family="Source Sans Pro" font-size="16.00">Illumination&#45;Engine</text>
<text text-anchor="start" x="2149" y="-108.7" font-family="Source Sans Pro" font-size="16.00">/src/GraphicsModule</text>
<text text-anchor="middle" x="2256" y="-90.7" font-family="Source Sans Pro" font-size="16.00">/RenderPass/IEFramebuffer.cpp</text>
</a>
</g>
</g>
<!-- Node7&#45;&gt;Node15 -->
<g id="edge15" class="edge">
<title>Node7&#45;&gt;Node15</title>
<path fill="none" stroke="midnightblue" d="M1955.3,-188.1C2010.45,-174.42 2081.52,-156.79 2140.72,-142.1"/>
<polygon fill="midnightblue" stroke="midnightblue" points="1954.4,-184.71 1945.54,-190.52 1956.09,-191.51 1954.4,-184.71"/>
</g>
<!-- Node16 -->
<g id="node16" class="node">
<title>Node16</title>
<g id="a_node16"><a xlink:href="_i_e_render_pass_8cpp.html" target="_top" xlink:title=" ">
<polygon fill="white" stroke="black" points="2389.5,-81.5 2389.5,-143.5 2616.5,-143.5 2616.5,-81.5 2389.5,-81.5"/>
<text text-anchor="start" x="2397.5" y="-126.7" font-family="Source Sans Pro" font-size="16.00">Illumination&#45;Engine</text>
<text text-anchor="start" x="2397.5" y="-108.7" font-family="Source Sans Pro" font-size="16.00">/src/GraphicsModule</text>
<text text-anchor="middle" x="2503" y="-90.7" font-family="Source Sans Pro" font-size="16.00">/RenderPass/IERenderPass.cpp</text>
</a>
</g>
</g>
<!-- Node7&#45;&gt;Node16 -->
<g id="edge16" class="edge">
<title>Node7&#45;&gt;Node16</title>
<path fill="none" stroke="midnightblue" d="M1955.81,-201.96C2059.09,-191.5 2232.52,-171.71 2380,-144 2383.03,-143.43 2386.09,-142.83 2389.18,-142.21"/>
<polygon fill="midnightblue" stroke="midnightblue" points="1955.33,-198.49 1945.73,-202.97 1956.03,-205.45 1955.33,-198.49"/>
</g>
<!-- Node17 -->
<g id="node17" class="node">
<title>Node17</title>
<g id="a_node17"><a xlink:href="_i_e_material_8cpp.html" target="_top" xlink:title=" ">
<polygon fill="white" stroke="black" points="2634.5,-81.5 2634.5,-143.5 2835.5,-143.5 2835.5,-81.5 2634.5,-81.5"/>
<text text-anchor="start" x="2642.5" y="-126.7" font-family="Source Sans Pro" font-size="16.00">Illumination&#45;Engine</text>
<text text-anchor="start" x="2642.5" y="-108.7" font-family="Source Sans Pro" font-size="16.00">/src/GraphicsModule</text>
<text text-anchor="middle" x="2735" y="-90.7" font-family="Source Sans Pro" font-size="16.00">/Renderable/IEMaterial.cpp</text>
</a>
</g>
</g>
<!-- Node7&#45;&gt;Node17 -->
<g id="edge17" class="edge">
<title>Node7&#45;&gt;Node17</title>
<path fill="none" stroke="midnightblue" d="M1955.71,-208.01C2099.09,-202.86 2386.45,-187.59 2626,-144 2628.8,-143.49 2631.64,-142.94 2634.49,-142.36"/>
<polygon fill="midnightblue" stroke="midnightblue" points="1955.5,-204.52 1945.63,-208.36 1955.75,-211.51 1955.5,-204.52"/>
</g>
<!-- Node18 -->
<g id="node18" class="node">
<title>Node18</title>
<g id="a_node18"><a xlink:href="_i_e_mesh_8cpp.html" target="_top" xlink:title=" ">
<polygon fill="white" stroke="black" points="2853.5,-81.5 2853.5,-143.5 3036.5,-143.5 3036.5,-81.5 2853.5,-81.5"/>
<text text-anchor="start" x="2861.5" y="-126.7" font-family="Source Sans Pro" font-size="16.00">Illumination&#45;Engine</text>
<text text-anchor="start" x="2861.5" y="-108.7" font-family="Source Sans Pro" font-size="16.00">/src/GraphicsModule</text>
<text text-anchor="middle" x="2945" y="-90.7" font-family="Source Sans Pro" font-size="16.00">/Renderable/IEMesh.cpp</text>
</a>
</g>
</g>
<!-- Node7&#45;&gt;Node18 -->
<g id="edge18" class="edge">
<title>Node7&#45;&gt;Node18</title>
<path fill="none" stroke="midnightblue" d="M1955.94,-211.22C2130.05,-211.07 2521.87,-203.43 2845,-144 2847.77,-143.49 2850.57,-142.93 2853.38,-142.33"/>
<polygon fill="midnightblue" stroke="midnightblue" points="1955.8,-207.72 1945.8,-211.22 1955.8,-214.72 1955.8,-207.72"/>
</g>
<!-- Node19 -->
<g id="node19" class="node">
<title>Node19</title>
<g id="a_node19"><a xlink:href="_i_e_renderable_8cpp.html" target="_top" xlink:title=" ">
<polygon fill="white" stroke="black" points="404.5,-81.5 404.5,-143.5 629.5,-143.5 629.5,-81.5 404.5,-81.5"/>
<text text-anchor="start" x="412.5" y="-126.7" font-family="Source Sans Pro" font-size="16.00">Illumination&#45;Engine</text>
<text text-anchor="start" x="412.5" y="-108.7" font-family="Source Sans Pro" font-size="16.00">/src/GraphicsModule</text>
<text text-anchor="middle" x="517" y="-90.7" font-family="Source Sans Pro" font-size="16.00">/Renderable/IERenderable.cpp</text>
</a>
</g>
</g>
<!-- Node7&#45;&gt;Node19 -->
<g id="edge19" class="edge">
<title>Node7&#45;&gt;Node19</title>
<path fill="none" stroke="midnightblue" d="M1774.15,-207.82C1529.04,-200.24 857.96,-177 639,-144 635.87,-143.53 632.7,-143.01 629.51,-142.46"/>
<polygon fill="midnightblue" stroke="midnightblue" points="1774.34,-211.33 1784.45,-208.14 1774.56,-204.33 1774.34,-211.33"/>
</g>
<!-- Node20 -->
<g id="node20" class="node">
<title>Node20</title>
<g id="a_node20"><a xlink:href="_i_e_descriptor_set_8cpp.html" target="_top" xlink:title=" ">
<polygon fill="white" stroke="black" points="3054.5,-81.5 3054.5,-143.5 3261.5,-143.5 3261.5,-81.5 3054.5,-81.5"/>
<text text-anchor="start" x="3062.5" y="-126.7" font-family="Source Sans Pro" font-size="16.00">Illumination&#45;Engine</text>
<text text-anchor="start" x="3062.5" y="-108.7" font-family="Source Sans Pro" font-size="16.00">/src/GraphicsModule</text>
<text text-anchor="middle" x="3158" y="-90.7" font-family="Source Sans Pro" font-size="16.00">/Shader/IEDescriptorSet.cpp</text>
</a>
</g>
</g>
<!-- Node7&#45;&gt;Node20 -->
<g id="edge20" class="edge">
<title>Node7&#45;&gt;Node20</title>
<path fill="none" stroke="midnightblue" d="M1955.94,-207.85C2194.89,-200.48 2836.43,-178.05 3046,-144 3048.78,-143.55 3051.6,-143.05 3054.43,-142.52"/>
<polygon fill="midnightblue" stroke="midnightblue" points="1955.79,-204.35 1945.9,-208.15 1956,-211.35 1955.79,-204.35"/>
</g>
<!-- Node21 -->
<g id="node21" class="node">
<title>Node21</title>
<g id="a_node21"><a xlink:href="_i_e_pipeline_8cpp.html" target="_top" xlink:title=" ">
<polygon fill="white" stroke="black" points="3280,-81.5 3280,-143.5 3452,-143.5 3452,-81.5 3280,-81.5"/>
<text text-anchor="start" x="3288" y="-126.7" font-family="Source Sans Pro" font-size="16.00">Illumination&#45;Engine</text>
<text text-anchor="start" x="3288" y="-108.7" font-family="Source Sans Pro" font-size="16.00">/src/GraphicsModule</text>
<text text-anchor="middle" x="3366" y="-90.7" font-family="Source Sans Pro" font-size="16.00">/Shader/IEPipeline.cpp</text>
</a>
</g>
</g>
<!-- Node7&#45;&gt;Node21 -->
<g id="edge21" class="edge">
<title>Node7&#45;&gt;Node21</title>
<path fill="none" stroke="midnightblue" d="M1955.93,-209.32C2225.47,-205.33 3017.11,-189.93 3271,-144 3273.9,-143.48 3276.83,-142.89 3279.78,-142.24"/>
<polygon fill="midnightblue" stroke="midnightblue" points="1955.74,-205.82 1945.79,-209.47 1955.84,-212.82 1955.74,-205.82"/>
</g>
<!-- Node22 -->
<g id="node22" class="node">
<title>Node22</title>
<g id="a_node22"><a xlink:href="_i_e_shader_8cpp.html" target="_top" xlink:title=" ">
<polygon fill="white" stroke="black" points="3470,-81.5 3470,-143.5 3634,-143.5 3634,-81.5 3470,-81.5"/>
<text text-anchor="start" x="3478" y="-126.7" font-family="Source Sans Pro" font-size="16.00">Illumination&#45;Engine</text>
<text text-anchor="start" x="3478" y="-108.7" font-family="Source Sans Pro" font-size="16.00">/src/GraphicsModule</text>
<text text-anchor="middle" x="3552" y="-90.7" font-family="Source Sans Pro" font-size="16.00">/Shader/IEShader.cpp</text>
</a>
</g>
</g>
<!-- Node7&#45;&gt;Node22 -->
<g id="edge22" class="edge">
<title>Node7&#45;&gt;Node22</title>
<path fill="none" stroke="midnightblue" d="M1955.86,-210.07C2249.24,-208.15 3169.07,-197.88 3461,-144 3463.95,-143.46 3466.93,-142.84 3469.93,-142.16"/>
<polygon fill="midnightblue" stroke="midnightblue" points="1955.67,-206.57 1945.69,-210.13 1955.71,-213.57 1955.67,-206.57"/>
</g>
<!-- Node23&#45;&gt;Node5 -->
<g id="edge25" class="edge">
<title>Node23&#45;&gt;Node5</title>
<path fill="none" stroke="midnightblue" d="M373.93,-173.62C362.91,-163.72 351.12,-153.13 340.56,-143.64"/>
<polygon fill="midnightblue" stroke="midnightblue" points="371.64,-176.26 381.42,-180.34 376.32,-171.05 371.64,-176.26"/>
</g>
<!-- Node23&#45;&gt;Node19 -->
<g id="edge26" class="edge">
<title>Node23&#45;&gt;Node19</title>
<path fill="none" stroke="midnightblue" d="M454.08,-173.33C464.41,-163.51 475.42,-153.04 485.31,-143.64"/>
<polygon fill="midnightblue" stroke="midnightblue" points="451.55,-170.91 446.71,-180.34 456.37,-175.99 451.55,-170.91"/>
</g>
</g>
</svg>
