<?xml version="1.0" encoding="UTF-8" standalone="no"?>
<!DOCTYPE svg PUBLIC "-//W3C//DTD SVG 1.1//EN"
 "http://www.w3.org/Graphics/SVG/1.1/DTD/svg11.dtd">
<!-- Generated by graphviz version 2.43.0 (0)
 -->
<!-- Title: Illumination&#45;Engine/src/Core/FileSystemModule/IEFileSystem.hpp Pages: 1 -->
<svg width="384pt" height="170pt"
 viewBox="0.00 0.00 383.50 170.00" xmlns="http://www.w3.org/2000/svg" xmlns:xlink="http://www.w3.org/1999/xlink">
<g id="graph0" class="graph" transform="scale(1 1) rotate(0) translate(4 166)">
<title>Illumination&#45;Engine/src/Core/FileSystemModule/IEFileSystem.hpp</title>
<polygon fill="white" stroke="transparent" points="-4,4 -4,-166 379.5,-166 379.5,4 -4,4"/>
<!-- Node1 -->
<g id="node1" class="node">
<title>Node1</title>
<g id="a_node1"><a xlink:title=" ">
<polygon fill="#bfbfbf" stroke="black" points="98,-99.5 98,-161.5 305,-161.5 305,-99.5 98,-99.5"/>
<text text-anchor="start" x="106" y="-144.7" font-family="Source Sans Pro" font-size="16.00">Illumination&#45;Engine</text>
<text text-anchor="start" x="106" y="-126.7" font-family="Source Sans Pro" font-size="16.00">/src/Core/FileSystemModule</text>
<text text-anchor="middle" x="201.5" y="-108.7" font-family="Source Sans Pro" font-size="16.00">/IEFileSystem.hpp</text>
</a>
</g>
</g>
<!-- Node2 -->
<g id="node2" class="node">
<title>Node2</title>
<g id="a_node2"><a xlink:href="_i_e_file_system_8cpp.html" target="_top" xlink:title=" ">
<polygon fill="white" stroke="black" points="0,-0.5 0,-62.5 207,-62.5 207,-0.5 0,-0.5"/>
<text text-anchor="start" x="8" y="-45.7" font-family="Source Sans Pro" font-size="16.00">Illumination&#45;Engine</text>
<text text-anchor="start" x="8" y="-27.7" font-family="Source Sans Pro" font-size="16.00">/src/Core/FileSystemModule</text>
<text text-anchor="middle" x="103.5" y="-9.7" font-family="Source Sans Pro" font-size="16.00">/IEFileSystem.cpp</text>
</a>
</g>
</g>
<!-- Node1&#45;&gt;Node2 -->
<g id="edge1" class="edge">
<title>Node1&#45;&gt;Node2</title>
<path fill="none" stroke="midnightblue" d="M163.66,-92.05C153.82,-82.31 143.35,-71.95 133.95,-62.64"/>
<polygon fill="midnightblue" stroke="midnightblue" points="161.46,-94.79 171.03,-99.34 166.38,-89.82 161.46,-94.79"/>
</g>
<!-- Node3 -->
<g id="node3" class="node">
<title>Node3</title>
<g id="a_node3"><a xlink:href="main_8cpp.html" target="_top" xlink:title=" ">
<polygon fill="white" stroke="black" points="225.5,-9.5 225.5,-53.5 375.5,-53.5 375.5,-9.5 225.5,-9.5"/>
<text text-anchor="start" x="233.5" y="-36.7" font-family="Source Sans Pro" font-size="16.00">Illumination&#45;Engine</text>
<text text-anchor="middle" x="300.5" y="-18.7" font-family="Source Sans Pro" font-size="16.00">/src/main.cpp</text>
</a>
</g>
</g>
<!-- Node1&#45;&gt;Node3 -->
<g id="edge2" class="edge">
<title>Node1&#45;&gt;Node3</title>
<path fill="none" stroke="midnightblue" d="M239.53,-92.24C252.85,-79.19 267.33,-65 278.84,-53.72"/>
<polygon fill="midnightblue" stroke="midnightblue" points="236.97,-89.84 232.28,-99.34 241.87,-94.84 236.97,-89.84"/>
</g>
</g>
</svg>
