<?xml version="1.0" encoding="UTF-8" standalone="no"?>
<!DOCTYPE svg PUBLIC "-//W3C//DTD SVG 1.1//EN"
 "http://www.w3.org/Graphics/SVG/1.1/DTD/svg11.dtd">
<!-- Generated by graphviz version 2.43.0 (0)
 -->
<!-- Title: Illumination&#45;Engine/src/GraphicsModule/Shader/IEUniformBufferObject.hpp Pages: 1 -->
<svg width="342pt" height="134pt"
 viewBox="0.00 0.00 342.00 134.00" xmlns="http://www.w3.org/2000/svg" xmlns:xlink="http://www.w3.org/1999/xlink">
<g id="graph0" class="graph" transform="scale(1 1) rotate(0) translate(4 130)">
<title>Illumination&#45;Engine/src/GraphicsModule/Shader/IEUniformBufferObject.hpp</title>
<polygon fill="white" stroke="transparent" points="-4,4 -4,-130 338,-130 338,4 -4,4"/>
<!-- Node1 -->
<g id="node1" class="node">
<title>Node1</title>
<g id="a_node1"><a xlink:title=" ">
<polygon fill="#bfbfbf" stroke="black" points="20,-63.5 20,-125.5 280,-125.5 280,-63.5 20,-63.5"/>
<text text-anchor="start" x="28" y="-108.7" font-family="Source Sans Pro" font-size="16.00">Illumination&#45;Engine</text>
<text text-anchor="start" x="28" y="-90.7" font-family="Source Sans Pro" font-size="16.00">/src/GraphicsModule</text>
<text text-anchor="middle" x="150" y="-72.7" font-family="Source Sans Pro" font-size="16.00">/Shader/IEUniformBufferObject.hpp</text>
</a>
</g>
</g>
<!-- Node2 -->
<g id="node2" class="node">
<title>Node2</title>
<g id="a_node2"><a xlink:title=" ">
<polygon fill="white" stroke="#bfbfbf" points="0,-0.5 0,-26.5 104,-26.5 104,-0.5 0,-0.5"/>
<text text-anchor="middle" x="52" y="-9.7" font-family="Source Sans Pro" font-size="16.00">glm/glm.hpp</text>
</a>
</g>
</g>
<!-- Node1&#45;&gt;Node2 -->
<g id="edge1" class="edge">
<title>Node1&#45;&gt;Node2</title>
<path fill="none" stroke="midnightblue" d="M112.67,-63.41C100.08,-53.26 86.41,-42.24 75.23,-33.23"/>
<polygon fill="midnightblue" stroke="midnightblue" points="77.21,-30.33 67.23,-26.78 72.82,-35.78 77.21,-30.33"/>
</g>
<!-- Node3 -->
<g id="node3" class="node">
<title>Node3</title>
<g id="a_node3"><a xlink:title=" ">
<polygon fill="white" stroke="#bfbfbf" points="122.5,-0.5 122.5,-26.5 177.5,-26.5 177.5,-0.5 122.5,-0.5"/>
<text text-anchor="middle" x="150" y="-9.7" font-family="Source Sans Pro" font-size="16.00">string</text>
</a>
</g>
</g>
<!-- Node1&#45;&gt;Node3 -->
<g id="edge2" class="edge">
<title>Node1&#45;&gt;Node3</title>
<path fill="none" stroke="midnightblue" d="M150,-63.18C150,-54.45 150,-45.08 150,-36.91"/>
<polygon fill="midnightblue" stroke="midnightblue" points="153.5,-36.7 150,-26.7 146.5,-36.7 153.5,-36.7"/>
</g>
<!-- Node4 -->
<g id="node4" class="node">
<title>Node4</title>
<g id="a_node4"><a xlink:title=" ">
<polygon fill="white" stroke="#bfbfbf" points="196,-0.5 196,-26.5 334,-26.5 334,-0.5 196,-0.5"/>
<text text-anchor="middle" x="265" y="-9.7" font-family="Source Sans Pro" font-size="16.00">include/GL/glew.h</text>
</a>
</g>
</g>
<!-- Node1&#45;&gt;Node4 -->
<g id="edge3" class="edge">
<title>Node1&#45;&gt;Node4</title>
<path fill="none" stroke="midnightblue" d="M193.8,-63.41C209.11,-52.89 225.8,-41.43 239.16,-32.25"/>
<polygon fill="midnightblue" stroke="midnightblue" points="241.16,-35.12 247.42,-26.58 237.2,-29.35 241.16,-35.12"/>
</g>
</g>
</svg>
