<?xml version="1.0" encoding="UTF-8" standalone="no"?>
<!DOCTYPE svg PUBLIC "-//W3C//DTD SVG 1.1//EN"
 "http://www.w3.org/Graphics/SVG/1.1/DTD/svg11.dtd">
<!-- Generated by graphviz version 2.43.0 (0)
 -->
<!-- Title: Illumination&#45;Engine/src/GraphicsModule/Buffer/IEBuffer.hpp Pages: 1 -->
<svg width="879pt" height="278pt"
 viewBox="0.00 0.00 878.50 278.00" xmlns="http://www.w3.org/2000/svg" xmlns:xlink="http://www.w3.org/1999/xlink">
<g id="graph0" class="graph" transform="scale(1 1) rotate(0) translate(4 274)">
<title>Illumination&#45;Engine/src/GraphicsModule/Buffer/IEBuffer.hpp</title>
<polygon fill="white" stroke="transparent" points="-4,4 -4,-274 874.5,-274 874.5,4 -4,4"/>
<!-- Node1 -->
<g id="node1" class="node">
<title>Node1</title>
<g id="a_node1"><a xlink:title=" ">
<polygon fill="#bfbfbf" stroke="black" points="394,-207.5 394,-269.5 551,-269.5 551,-207.5 394,-207.5"/>
<text text-anchor="start" x="402" y="-252.7" font-family="Source Sans Pro" font-size="16.00">Illumination&#45;Engine</text>
<text text-anchor="start" x="402" y="-234.7" font-family="Source Sans Pro" font-size="16.00">/src/GraphicsModule</text>
<text text-anchor="middle" x="472.5" y="-216.7" font-family="Source Sans Pro" font-size="16.00">/Buffer/IEBuffer.hpp</text>
</a>
</g>
</g>
<!-- Node2 -->
<g id="node2" class="node">
<title>Node2</title>
<g id="a_node2"><a xlink:href="_i_e_dependency_8hpp.html" target="_top" xlink:title=" ">
<polygon fill="white" stroke="black" points="37,-126.5 37,-170.5 282,-170.5 282,-126.5 37,-126.5"/>
<text text-anchor="start" x="45" y="-153.7" font-family="Source Sans Pro" font-size="16.00">GraphicsModule/CommandBuffer</text>
<text text-anchor="middle" x="159.5" y="-135.7" font-family="Source Sans Pro" font-size="16.00">/IEDependency.hpp</text>
</a>
</g>
</g>
<!-- Node1&#45;&gt;Node2 -->
<g id="edge1" class="edge">
<title>Node1&#45;&gt;Node2</title>
<path fill="none" stroke="midnightblue" d="M393.92,-215.41C348.27,-202.57 290.75,-186.4 244.11,-173.29"/>
<polygon fill="midnightblue" stroke="midnightblue" points="244.91,-169.88 234.34,-170.54 243.02,-176.62 244.91,-169.88"/>
</g>
<!-- Node3 -->
<g id="node3" class="node">
<title>Node3</title>
<g id="a_node3"><a xlink:title=" ">
<polygon fill="white" stroke="#bfbfbf" points="0,-0.5 0,-26.5 59,-26.5 59,-0.5 0,-0.5"/>
<text text-anchor="middle" x="29.5" y="-9.7" font-family="Source Sans Pro" font-size="16.00">vector</text>
</a>
</g>
</g>
<!-- Node1&#45;&gt;Node3 -->
<g id="edge15" class="edge">
<title>Node1&#45;&gt;Node3</title>
<path fill="none" stroke="midnightblue" d="M393.61,-237.53C278.68,-235.71 73.84,-224.78 27.5,-171 -4.83,-133.48 9.89,-70.05 21.05,-36.63"/>
<polygon fill="midnightblue" stroke="midnightblue" points="24.46,-37.5 24.49,-26.9 17.86,-35.17 24.46,-37.5"/>
</g>
<!-- Node4 -->
<g id="node4" class="node">
<title>Node4</title>
<g id="a_node4"><a xlink:title=" ">
<polygon fill="white" stroke="#bfbfbf" points="188,-63.5 188,-89.5 313,-89.5 313,-63.5 188,-63.5"/>
<text text-anchor="middle" x="250.5" y="-72.7" font-family="Source Sans Pro" font-size="16.00">vulkan/vulkan.h</text>
</a>
</g>
</g>
<!-- Node1&#45;&gt;Node4 -->
<g id="edge14" class="edge">
<title>Node1&#45;&gt;Node4</title>
<path fill="none" stroke="midnightblue" d="M430.74,-207.41C385.05,-174.47 313.28,-122.75 275.57,-95.57"/>
<polygon fill="midnightblue" stroke="midnightblue" points="277.34,-92.53 267.18,-89.52 273.25,-98.21 277.34,-92.53"/>
</g>
<!-- Node7 -->
<g id="node7" class="node">
<title>Node7</title>
<g id="a_node7"><a xlink:href="_i_e_a_p_i_8hpp.html" target="_top" xlink:title=" ">
<polygon fill="white" stroke="black" points="396,-135.5 396,-161.5 479,-161.5 479,-135.5 396,-135.5"/>
<text text-anchor="middle" x="437.5" y="-144.7" font-family="Source Sans Pro" font-size="16.00">IEAPI.hpp</text>
</a>
</g>
</g>
<!-- Node1&#45;&gt;Node7 -->
<g id="edge6" class="edge">
<title>Node1&#45;&gt;Node7</title>
<path fill="none" stroke="midnightblue" d="M460.45,-207.22C455.78,-195.46 450.53,-182.25 446.23,-171.44"/>
<polygon fill="midnightblue" stroke="midnightblue" points="449.4,-169.94 442.45,-161.94 442.89,-172.52 449.4,-169.94"/>
</g>
<!-- Node9 -->
<g id="node9" class="node">
<title>Node9</title>
<g id="a_node9"><a xlink:title=" ">
<polygon fill="white" stroke="#bfbfbf" points="454,-0.5 454,-26.5 517,-26.5 517,-0.5 454,-0.5"/>
<text text-anchor="middle" x="485.5" y="-9.7" font-family="Source Sans Pro" font-size="16.00">cstdint</text>
</a>
</g>
</g>
<!-- Node1&#45;&gt;Node9 -->
<g id="edge16" class="edge">
<title>Node1&#45;&gt;Node9</title>
<path fill="none" stroke="midnightblue" d="M481.36,-207.32C484.24,-196.03 487.07,-183.03 488.5,-171 494.14,-123.41 490.59,-67.13 487.83,-36.7"/>
<polygon fill="midnightblue" stroke="midnightblue" points="491.31,-36.35 486.87,-26.73 484.34,-37.02 491.31,-36.35"/>
</g>
<!-- Node10 -->
<g id="node10" class="node">
<title>Node10</title>
<g id="a_node10"><a xlink:title=" ">
<polygon fill="white" stroke="#bfbfbf" points="536,-135.5 536,-161.5 665,-161.5 665,-135.5 536,-135.5"/>
<text text-anchor="middle" x="600.5" y="-144.7" font-family="Source Sans Pro" font-size="16.00">vk_mem_alloc.h</text>
</a>
</g>
</g>
<!-- Node1&#45;&gt;Node10 -->
<g id="edge12" class="edge">
<title>Node1&#45;&gt;Node10</title>
<path fill="none" stroke="midnightblue" d="M516.19,-207.46C535.5,-194.19 557.56,-179.02 574.27,-167.53"/>
<polygon fill="midnightblue" stroke="midnightblue" points="576.7,-170.11 582.96,-161.56 572.73,-164.34 576.7,-170.11"/>
</g>
<!-- Node11 -->
<g id="node11" class="node">
<title>Node11</title>
<g id="a_node11"><a xlink:title=" ">
<polygon fill="white" stroke="#bfbfbf" points="683,-135.5 683,-161.5 766,-161.5 766,-135.5 683,-135.5"/>
<text text-anchor="middle" x="724.5" y="-144.7" font-family="Source Sans Pro" font-size="16.00">GL/glew.h</text>
</a>
</g>
</g>
<!-- Node1&#45;&gt;Node11 -->
<g id="edge13" class="edge">
<title>Node1&#45;&gt;Node11</title>
<path fill="none" stroke="midnightblue" d="M551.24,-213.35C588.83,-201.38 634.28,-186.24 674.5,-171 679.01,-169.29 683.71,-167.41 688.35,-165.49"/>
<polygon fill="midnightblue" stroke="midnightblue" points="689.84,-168.66 697.69,-161.54 687.12,-162.21 689.84,-168.66"/>
</g>
<!-- Node12 -->
<g id="node12" class="node">
<title>Node12</title>
<g id="a_node12"><a xlink:title=" ">
<polygon fill="white" stroke="#bfbfbf" points="784.5,-135.5 784.5,-161.5 870.5,-161.5 870.5,-135.5 784.5,-135.5"/>
<text text-anchor="middle" x="827.5" y="-144.7" font-family="Source Sans Pro" font-size="16.00">functional</text>
</a>
</g>
</g>
<!-- Node1&#45;&gt;Node12 -->
<g id="edge17" class="edge">
<title>Node1&#45;&gt;Node12</title>
<path fill="none" stroke="midnightblue" d="M551.02,-224.2C612.78,-212.8 700.61,-194.5 775.5,-171 780.74,-169.35 786.19,-167.39 791.5,-165.34"/>
<polygon fill="midnightblue" stroke="midnightblue" points="792.88,-168.56 800.84,-161.58 790.26,-162.07 792.88,-168.56"/>
</g>
<!-- Node2&#45;&gt;Node3 -->
<g id="edge2" class="edge">
<title>Node2&#45;&gt;Node3</title>
<path fill="none" stroke="midnightblue" d="M97.04,-126.5C79.1,-117.74 61.03,-105.82 48.5,-90 36.5,-74.85 31.98,-53.06 30.32,-36.79"/>
<polygon fill="midnightblue" stroke="midnightblue" points="33.8,-36.27 29.58,-26.55 26.81,-36.77 33.8,-36.27"/>
</g>
<!-- Node2&#45;&gt;Node4 -->
<g id="edge3" class="edge">
<title>Node2&#45;&gt;Node4</title>
<path fill="none" stroke="midnightblue" d="M186.8,-126.5C199.56,-116.68 214.61,-105.11 226.88,-95.67"/>
<polygon fill="midnightblue" stroke="midnightblue" points="229.07,-98.4 234.86,-89.53 224.8,-92.85 229.07,-98.4"/>
</g>
<!-- Node5 -->
<g id="node5" class="node">
<title>Node5</title>
<g id="a_node5"><a xlink:title=" ">
<polygon fill="white" stroke="#bfbfbf" points="359,-0.5 359,-26.5 414,-26.5 414,-0.5 359,-0.5"/>
<text text-anchor="middle" x="386.5" y="-9.7" font-family="Source Sans Pro" font-size="16.00">string</text>
</a>
</g>
</g>
<!-- Node2&#45;&gt;Node5 -->
<g id="edge4" class="edge">
<title>Node2&#45;&gt;Node5</title>
<path fill="none" stroke="midnightblue" d="M158.37,-126.15C158.58,-107.03 162.09,-79.55 178.5,-63 202,-39.31 295.29,-24.96 348.6,-18.52"/>
<polygon fill="midnightblue" stroke="midnightblue" points="349.18,-21.98 358.7,-17.34 348.36,-15.03 349.18,-21.98"/>
</g>
<!-- Node6 -->
<g id="node6" class="node">
<title>Node6</title>
<g id="a_node6"><a xlink:title=" ">
<polygon fill="white" stroke="#bfbfbf" points="57.5,-63.5 57.5,-89.5 131.5,-89.5 131.5,-63.5 57.5,-63.5"/>
<text text-anchor="middle" x="94.5" y="-72.7" font-family="Source Sans Pro" font-size="16.00">memory</text>
</a>
</g>
</g>
<!-- Node2&#45;&gt;Node6 -->
<g id="edge5" class="edge">
<title>Node2&#45;&gt;Node6</title>
<path fill="none" stroke="midnightblue" d="M140,-126.5C131.32,-117.15 121.16,-106.22 112.65,-97.05"/>
<polygon fill="midnightblue" stroke="midnightblue" points="115.04,-94.48 105.67,-89.53 109.91,-99.24 115.04,-94.48"/>
</g>
<!-- Node7&#45;&gt;Node5 -->
<g id="edge11" class="edge">
<title>Node7&#45;&gt;Node5</title>
<path fill="none" stroke="midnightblue" d="M443.66,-135.34C451.38,-118.27 462.26,-86.66 450.5,-63 444.12,-50.17 432.55,-39.82 420.98,-32.03"/>
<polygon fill="midnightblue" stroke="midnightblue" points="422.56,-28.89 412.22,-26.57 418.85,-34.83 422.56,-28.89"/>
</g>
<!-- Node8 -->
<g id="node8" class="node">
<title>Node8</title>
<g id="a_node8"><a xlink:href="_i_e_version_8hpp.html" target="_top" xlink:title=" ">
<polygon fill="white" stroke="black" points="331.5,-63.5 331.5,-89.5 441.5,-89.5 441.5,-63.5 331.5,-63.5"/>
<text text-anchor="middle" x="386.5" y="-72.7" font-family="Source Sans Pro" font-size="16.00">IEVersion.hpp</text>
</a>
</g>
</g>
<!-- Node7&#45;&gt;Node8 -->
<g id="edge7" class="edge">
<title>Node7&#45;&gt;Node8</title>
<path fill="none" stroke="midnightblue" d="M428.62,-135.31C421.08,-124.97 410.13,-109.93 401.27,-97.78"/>
<polygon fill="midnightblue" stroke="midnightblue" points="404,-95.57 395.28,-89.55 398.34,-99.7 404,-95.57"/>
</g>
<!-- Node8&#45;&gt;Node3 -->
<g id="edge10" class="edge">
<title>Node8&#45;&gt;Node3</title>
<path fill="none" stroke="midnightblue" d="M331.2,-64.77C327.92,-64.16 324.67,-63.57 321.5,-63 231.5,-46.87 125.55,-29.74 69.3,-20.78"/>
<polygon fill="midnightblue" stroke="midnightblue" points="69.81,-17.32 59.39,-19.21 68.72,-24.23 69.81,-17.32"/>
</g>
<!-- Node8&#45;&gt;Node5 -->
<g id="edge9" class="edge">
<title>Node8&#45;&gt;Node5</title>
<path fill="none" stroke="midnightblue" d="M386.5,-63.45C386.5,-55.85 386.5,-45.79 386.5,-36.78"/>
<polygon fill="midnightblue" stroke="midnightblue" points="390,-36.53 386.5,-26.53 383,-36.53 390,-36.53"/>
</g>
<!-- Node8&#45;&gt;Node9 -->
<g id="edge8" class="edge">
<title>Node8&#45;&gt;Node9</title>
<path fill="none" stroke="midnightblue" d="M406.06,-63.45C420.7,-54.43 440.95,-41.95 457.33,-31.85"/>
<polygon fill="midnightblue" stroke="midnightblue" points="459.3,-34.75 465.98,-26.53 455.63,-28.79 459.3,-34.75"/>
</g>
</g>
</svg>
