<?xml version="1.0" encoding="UTF-8" standalone="no"?>
<!DOCTYPE svg PUBLIC "-//W3C//DTD SVG 1.1//EN"
 "http://www.w3.org/Graphics/SVG/1.1/DTD/svg11.dtd">
<!-- Generated by graphviz version 2.43.0 (0)
 -->
<!-- Title: Illumination&#45;Engine/src/GraphicsModule/Image/IETexture.hpp Pages: 1 -->
<svg width="1343pt" height="341pt"
 viewBox="0.00 0.00 1342.50 341.00" xmlns="http://www.w3.org/2000/svg" xmlns:xlink="http://www.w3.org/1999/xlink">
<g id="graph0" class="graph" transform="scale(1 1) rotate(0) translate(4 337)">
<title>Illumination&#45;Engine/src/GraphicsModule/Image/IETexture.hpp</title>
<polygon fill="white" stroke="transparent" points="-4,4 -4,-337 1338.5,-337 1338.5,4 -4,4"/>
<!-- Node1 -->
<g id="node1" class="node">
<title>Node1</title>
<g id="a_node1"><a xlink:title=" ">
<polygon fill="#bfbfbf" stroke="black" points="784.5,-270.5 784.5,-332.5 946.5,-332.5 946.5,-270.5 784.5,-270.5"/>
<text text-anchor="start" x="792.5" y="-315.7" font-family="Source Sans Pro" font-size="16.00">Illumination&#45;Engine</text>
<text text-anchor="start" x="792.5" y="-297.7" font-family="Source Sans Pro" font-size="16.00">/src/GraphicsModule</text>
<text text-anchor="middle" x="865.5" y="-279.7" font-family="Source Sans Pro" font-size="16.00">/Image/IETexture.hpp</text>
</a>
</g>
</g>
<!-- Node2 -->
<g id="node2" class="node">
<title>Node2</title>
<g id="a_node2"><a xlink:href="_i_e_image_8hpp.html" target="_top" xlink:title=" ">
<polygon fill="white" stroke="black" points="590.5,-207.5 590.5,-233.5 692.5,-233.5 692.5,-207.5 590.5,-207.5"/>
<text text-anchor="middle" x="641.5" y="-216.7" font-family="Source Sans Pro" font-size="16.00">IEImage.hpp</text>
</a>
</g>
</g>
<!-- Node1&#45;&gt;Node2 -->
<g id="edge1" class="edge">
<title>Node1&#45;&gt;Node2</title>
<path fill="none" stroke="midnightblue" d="M784.31,-271.87C750.83,-260.06 713.35,-246.84 685.2,-236.91"/>
<polygon fill="midnightblue" stroke="midnightblue" points="686.24,-233.57 675.65,-233.54 683.91,-240.17 686.24,-233.57"/>
</g>
<!-- Node5 -->
<g id="node5" class="node">
<title>Node5</title>
<g id="a_node5"><a xlink:title=" ">
<polygon fill="white" stroke="#bfbfbf" points="507,-0.5 507,-26.5 562,-26.5 562,-0.5 507,-0.5"/>
<text text-anchor="middle" x="534.5" y="-9.7" font-family="Source Sans Pro" font-size="16.00">string</text>
</a>
</g>
</g>
<!-- Node1&#45;&gt;Node5 -->
<g id="edge25" class="edge">
<title>Node1&#45;&gt;Node5</title>
<path fill="none" stroke="midnightblue" d="M784.39,-299.36C606.13,-294.95 189.19,-273.65 102.5,-171 70.64,-133.28 89.17,-92.85 128.5,-63 185.83,-19.5 407.03,-14.48 496.56,-14.28"/>
<polygon fill="midnightblue" stroke="midnightblue" points="496.81,-17.78 506.81,-14.27 496.8,-10.78 496.81,-17.78"/>
</g>
<!-- Node7 -->
<g id="node7" class="node">
<title>Node7</title>
<g id="a_node7"><a xlink:title=" ">
<polygon fill="white" stroke="#bfbfbf" points="859,-63.5 859,-89.5 984,-89.5 984,-63.5 859,-63.5"/>
<text text-anchor="middle" x="921.5" y="-72.7" font-family="Source Sans Pro" font-size="16.00">vulkan/vulkan.h</text>
</a>
</g>
</g>
<!-- Node1&#45;&gt;Node7 -->
<g id="edge23" class="edge">
<title>Node1&#45;&gt;Node7</title>
<path fill="none" stroke="midnightblue" d="M946.64,-287.9C1013.78,-272.73 1105.09,-240.05 1149.5,-171 1160.32,-154.18 1162.09,-141.54 1149.5,-126 1130.15,-102.1 1053.44,-89.49 994.28,-83.18"/>
<polygon fill="midnightblue" stroke="midnightblue" points="994.51,-79.68 984.2,-82.15 993.79,-86.65 994.51,-79.68"/>
</g>
<!-- Node10 -->
<g id="node10" class="node">
<title>Node10</title>
<g id="a_node10"><a xlink:title=" ">
<polygon fill="white" stroke="#bfbfbf" points="0,-0.5 0,-26.5 63,-26.5 63,-0.5 0,-0.5"/>
<text text-anchor="middle" x="31.5" y="-9.7" font-family="Source Sans Pro" font-size="16.00">cstdint</text>
</a>
</g>
</g>
<!-- Node1&#45;&gt;Node10 -->
<g id="edge24" class="edge">
<title>Node1&#45;&gt;Node10</title>
<path fill="none" stroke="midnightblue" d="M784.41,-299.15C622.68,-295.44 265.98,-281.93 154.5,-234 78.74,-201.43 61.33,-168.94 37.5,-90 32.24,-72.58 30.91,-51.93 30.81,-36.63"/>
<polygon fill="midnightblue" stroke="midnightblue" points="34.31,-36.59 30.9,-26.56 27.31,-36.52 34.31,-36.59"/>
</g>
<!-- Node13 -->
<g id="node13" class="node">
<title>Node13</title>
<g id="a_node13"><a xlink:title=" ">
<polygon fill="white" stroke="#bfbfbf" points="1040.5,-135.5 1040.5,-161.5 1140.5,-161.5 1140.5,-135.5 1040.5,-135.5"/>
<text text-anchor="middle" x="1090.5" y="-144.7" font-family="Source Sans Pro" font-size="16.00">stb_image.h</text>
</a>
</g>
</g>
<!-- Node1&#45;&gt;Node13 -->
<g id="edge22" class="edge">
<title>Node1&#45;&gt;Node13</title>
<path fill="none" stroke="midnightblue" d="M910.22,-270.49C956.14,-239.67 1026.07,-192.74 1063.92,-167.34"/>
<polygon fill="midnightblue" stroke="midnightblue" points="1066.03,-170.14 1072.38,-161.66 1062.13,-164.33 1066.03,-170.14"/>
</g>
<!-- Node15 -->
<g id="node15" class="node">
<title>Node15</title>
<g id="a_node15"><a xlink:title=" ">
<polygon fill="white" stroke="#bfbfbf" points="1196.5,-207.5 1196.5,-233.5 1334.5,-233.5 1334.5,-207.5 1196.5,-207.5"/>
<text text-anchor="middle" x="1265.5" y="-216.7" font-family="Source Sans Pro" font-size="16.00">assimp/material.h</text>
</a>
</g>
</g>
<!-- Node1&#45;&gt;Node15 -->
<g id="edge21" class="edge">
<title>Node1&#45;&gt;Node15</title>
<path fill="none" stroke="midnightblue" d="M946.93,-284.42C1019.75,-270.03 1125.41,-249.17 1194.77,-235.47"/>
<polygon fill="midnightblue" stroke="midnightblue" points="1195.6,-238.87 1204.73,-233.5 1194.24,-232.01 1195.6,-238.87"/>
</g>
<!-- Node3 -->
<g id="node3" class="node">
<title>Node3</title>
<g id="a_node3"><a xlink:href="_i_e_dependency_8hpp.html" target="_top" xlink:title=" ">
<polygon fill="white" stroke="black" points="701,-126.5 701,-170.5 946,-170.5 946,-126.5 701,-126.5"/>
<text text-anchor="start" x="709" y="-153.7" font-family="Source Sans Pro" font-size="16.00">GraphicsModule/CommandBuffer</text>
<text text-anchor="middle" x="823.5" y="-135.7" font-family="Source Sans Pro" font-size="16.00">/IEDependency.hpp</text>
</a>
</g>
</g>
<!-- Node2&#45;&gt;Node3 -->
<g id="edge2" class="edge">
<title>Node2&#45;&gt;Node3</title>
<path fill="none" stroke="midnightblue" d="M672.79,-207.47C696.54,-198.33 730.01,-185.46 759.38,-174.16"/>
<polygon fill="midnightblue" stroke="midnightblue" points="760.67,-177.41 768.75,-170.56 758.16,-170.88 760.67,-177.41"/>
</g>
<!-- Node2&#45;&gt;Node5 -->
<g id="edge19" class="edge">
<title>Node2&#45;&gt;Node5</title>
<path fill="none" stroke="midnightblue" d="M590.2,-218.5C466.05,-215.56 157.33,-204.87 126.5,-171 17.19,-50.92 375.88,-22.23 496.4,-16.06"/>
<polygon fill="midnightblue" stroke="midnightblue" points="496.82,-19.54 506.64,-15.56 496.48,-12.55 496.82,-19.54"/>
</g>
<!-- Node6 -->
<g id="node6" class="node">
<title>Node6</title>
<g id="a_node6"><a xlink:title=" ">
<polygon fill="white" stroke="#bfbfbf" points="801,-0.5 801,-26.5 860,-26.5 860,-0.5 801,-0.5"/>
<text text-anchor="middle" x="830.5" y="-9.7" font-family="Source Sans Pro" font-size="16.00">vector</text>
</a>
</g>
</g>
<!-- Node2&#45;&gt;Node6 -->
<g id="edge20" class="edge">
<title>Node2&#45;&gt;Node6</title>
<path fill="none" stroke="midnightblue" d="M692.58,-218.77C775.05,-216.51 932.4,-207.4 972.5,-171 1008.64,-138.19 1021.65,-102.16 992.5,-63 964.54,-25.44 908.53,-15.86 870.28,-13.97"/>
<polygon fill="midnightblue" stroke="midnightblue" points="870.11,-10.46 860,-13.62 869.88,-17.46 870.11,-10.46"/>
</g>
<!-- Node2&#45;&gt;Node7 -->
<g id="edge16" class="edge">
<title>Node2&#45;&gt;Node7</title>
<path fill="none" stroke="midnightblue" d="M692.74,-219.29C772.68,-217.75 921.4,-209.62 954.5,-171 972.63,-149.84 954.64,-118.06 938.96,-97.54"/>
<polygon fill="midnightblue" stroke="midnightblue" points="941.49,-95.1 932.49,-89.51 936.03,-99.49 941.49,-95.1"/>
</g>
<!-- Node8 -->
<g id="node8" class="node">
<title>Node8</title>
<g id="a_node8"><a xlink:href="_i_e_a_p_i_8hpp.html" target="_top" xlink:title=" ">
<polygon fill="white" stroke="black" points="600,-135.5 600,-161.5 683,-161.5 683,-135.5 600,-135.5"/>
<text text-anchor="middle" x="641.5" y="-144.7" font-family="Source Sans Pro" font-size="16.00">IEAPI.hpp</text>
</a>
</g>
</g>
<!-- Node2&#45;&gt;Node8 -->
<g id="edge7" class="edge">
<title>Node2&#45;&gt;Node8</title>
<path fill="none" stroke="midnightblue" d="M641.5,-207.31C641.5,-197.47 641.5,-183.38 641.5,-171.57"/>
<polygon fill="midnightblue" stroke="midnightblue" points="645,-171.55 641.5,-161.55 638,-171.55 645,-171.55"/>
</g>
<!-- Node2&#45;&gt;Node10 -->
<g id="edge17" class="edge">
<title>Node2&#45;&gt;Node10</title>
<path fill="none" stroke="midnightblue" d="M590.06,-217.79C462.99,-213.17 141.72,-198.84 102.5,-171 57.72,-139.21 40.63,-72.22 34.56,-37.09"/>
<polygon fill="midnightblue" stroke="midnightblue" points="37.97,-36.22 32.95,-26.89 31.05,-37.31 37.97,-36.22"/>
</g>
<!-- Node11 -->
<g id="node11" class="node">
<title>Node11</title>
<g id="a_node11"><a xlink:title=" ">
<polygon fill="white" stroke="#bfbfbf" points="135.5,-135.5 135.5,-161.5 273.5,-161.5 273.5,-135.5 135.5,-135.5"/>
<text text-anchor="middle" x="204.5" y="-144.7" font-family="Source Sans Pro" font-size="16.00">include/GL/glew.h</text>
</a>
</g>
</g>
<!-- Node2&#45;&gt;Node11 -->
<g id="edge13" class="edge">
<title>Node2&#45;&gt;Node11</title>
<path fill="none" stroke="midnightblue" d="M590.31,-214.78C520.33,-207.82 391.1,-193.2 282.5,-171 273.3,-169.12 263.59,-166.76 254.26,-164.29"/>
<polygon fill="midnightblue" stroke="midnightblue" points="254.9,-160.84 244.33,-161.59 253.06,-167.59 254.9,-160.84"/>
</g>
<!-- Node12 -->
<g id="node12" class="node">
<title>Node12</title>
<g id="a_node12"><a xlink:title=" ">
<polygon fill="white" stroke="#bfbfbf" points="292,-135.5 292,-161.5 477,-161.5 477,-135.5 292,-135.5"/>
<text text-anchor="middle" x="384.5" y="-144.7" font-family="Source Sans Pro" font-size="16.00">include/vk_mem_alloc.h</text>
</a>
</g>
</g>
<!-- Node2&#45;&gt;Node12 -->
<g id="edge14" class="edge">
<title>Node2&#45;&gt;Node12</title>
<path fill="none" stroke="midnightblue" d="M597.32,-207.47C553.37,-195.5 485.87,-177.11 438.7,-164.26"/>
<polygon fill="midnightblue" stroke="midnightblue" points="439.53,-160.86 428.96,-161.61 437.69,-167.62 439.53,-160.86"/>
</g>
<!-- Node2&#45;&gt;Node13 -->
<g id="edge15" class="edge">
<title>Node2&#45;&gt;Node13</title>
<path fill="none" stroke="midnightblue" d="M692.51,-216.31C766.76,-210.95 908.61,-197.94 1026.5,-171 1033.89,-169.31 1041.63,-167.1 1049.07,-164.75"/>
<polygon fill="midnightblue" stroke="midnightblue" points="1050.23,-168.05 1058.63,-161.6 1048.03,-161.4 1050.23,-168.05"/>
</g>
<!-- Node14 -->
<g id="node14" class="node">
<title>Node14</title>
<g id="a_node14"><a xlink:title=" ">
<polygon fill="white" stroke="#bfbfbf" points="495.5,-135.5 495.5,-161.5 581.5,-161.5 581.5,-135.5 495.5,-135.5"/>
<text text-anchor="middle" x="538.5" y="-144.7" font-family="Source Sans Pro" font-size="16.00">functional</text>
</a>
</g>
</g>
<!-- Node2&#45;&gt;Node14 -->
<g id="edge18" class="edge">
<title>Node2&#45;&gt;Node14</title>
<path fill="none" stroke="midnightblue" d="M623.56,-207.31C607.24,-196.22 582.95,-179.71 564.51,-167.17"/>
<polygon fill="midnightblue" stroke="midnightblue" points="566.47,-164.28 556.24,-161.55 562.54,-170.07 566.47,-164.28"/>
</g>
<!-- Node4 -->
<g id="node4" class="node">
<title>Node4</title>
<g id="a_node4"><a xlink:title=" ">
<polygon fill="white" stroke="#bfbfbf" points="728.5,-63.5 728.5,-89.5 802.5,-89.5 802.5,-63.5 728.5,-63.5"/>
<text text-anchor="middle" x="765.5" y="-72.7" font-family="Source Sans Pro" font-size="16.00">memory</text>
</a>
</g>
</g>
<!-- Node3&#45;&gt;Node4 -->
<g id="edge3" class="edge">
<title>Node3&#45;&gt;Node4</title>
<path fill="none" stroke="midnightblue" d="M806.1,-126.5C798.43,-117.25 789.48,-106.44 781.93,-97.33"/>
<polygon fill="midnightblue" stroke="midnightblue" points="784.54,-95 775.47,-89.53 779.15,-99.46 784.54,-95"/>
</g>
<!-- Node3&#45;&gt;Node5 -->
<g id="edge4" class="edge">
<title>Node3&#45;&gt;Node5</title>
<path fill="none" stroke="midnightblue" d="M782.89,-126.42C763.41,-115.97 739.93,-102.85 719.5,-90 701.96,-78.97 699.99,-72.35 681.5,-63 645.95,-45.02 602.28,-31.6 571.81,-23.49"/>
<polygon fill="midnightblue" stroke="midnightblue" points="572.58,-20.07 562.02,-20.94 570.82,-26.85 572.58,-20.07"/>
</g>
<!-- Node3&#45;&gt;Node6 -->
<g id="edge5" class="edge">
<title>Node3&#45;&gt;Node6</title>
<path fill="none" stroke="midnightblue" d="M824.61,-126.43C825.89,-102.03 828,-62.03 829.31,-37.03"/>
<polygon fill="midnightblue" stroke="midnightblue" points="832.83,-36.88 829.86,-26.71 825.84,-36.52 832.83,-36.88"/>
</g>
<!-- Node3&#45;&gt;Node7 -->
<g id="edge6" class="edge">
<title>Node3&#45;&gt;Node7</title>
<path fill="none" stroke="midnightblue" d="M852.9,-126.5C866.78,-116.59 883.16,-104.88 896.44,-95.4"/>
<polygon fill="midnightblue" stroke="midnightblue" points="898.55,-98.19 904.66,-89.53 894.48,-92.5 898.55,-98.19"/>
</g>
<!-- Node8&#45;&gt;Node5 -->
<g id="edge12" class="edge">
<title>Node8&#45;&gt;Node5</title>
<path fill="none" stroke="midnightblue" d="M612.38,-135.39C592.9,-125.83 568.22,-110.66 553.5,-90 542.34,-74.35 537.72,-52.79 535.81,-36.72"/>
<polygon fill="midnightblue" stroke="midnightblue" points="539.28,-36.24 534.88,-26.61 532.31,-36.89 539.28,-36.24"/>
</g>
<!-- Node9 -->
<g id="node9" class="node">
<title>Node9</title>
<g id="a_node9"><a xlink:href="_i_e_version_8hpp.html" target="_top" xlink:title=" ">
<polygon fill="white" stroke="black" points="562.5,-63.5 562.5,-89.5 672.5,-89.5 672.5,-63.5 562.5,-63.5"/>
<text text-anchor="middle" x="617.5" y="-72.7" font-family="Source Sans Pro" font-size="16.00">IEVersion.hpp</text>
</a>
</g>
</g>
<!-- Node8&#45;&gt;Node9 -->
<g id="edge8" class="edge">
<title>Node8&#45;&gt;Node9</title>
<path fill="none" stroke="midnightblue" d="M637.32,-135.31C633.91,-125.37 629.02,-111.09 624.94,-99.21"/>
<polygon fill="midnightblue" stroke="midnightblue" points="628.19,-97.88 621.63,-89.55 621.57,-100.15 628.19,-97.88"/>
</g>
<!-- Node9&#45;&gt;Node5 -->
<g id="edge10" class="edge">
<title>Node9&#45;&gt;Node5</title>
<path fill="none" stroke="midnightblue" d="M601.1,-63.45C589.17,-54.68 572.79,-42.64 559.27,-32.7"/>
<polygon fill="midnightblue" stroke="midnightblue" points="560.99,-29.63 550.86,-26.53 556.85,-35.27 560.99,-29.63"/>
</g>
<!-- Node9&#45;&gt;Node6 -->
<g id="edge11" class="edge">
<title>Node9&#45;&gt;Node6</title>
<path fill="none" stroke="midnightblue" d="M659.58,-63.45C697.7,-52.53 753.47,-36.56 790.82,-25.86"/>
<polygon fill="midnightblue" stroke="midnightblue" points="792.19,-29.11 800.84,-22.99 790.26,-22.38 792.19,-29.11"/>
</g>
<!-- Node9&#45;&gt;Node10 -->
<g id="edge9" class="edge">
<title>Node9&#45;&gt;Node10</title>
<path fill="none" stroke="midnightblue" d="M562.37,-69.76C445.85,-57.63 176.78,-29.62 73.2,-18.84"/>
<polygon fill="midnightblue" stroke="midnightblue" points="73.43,-15.35 63.12,-17.79 72.7,-22.31 73.43,-15.35"/>
</g>
</g>
</svg>
