<?xml version="1.0" encoding="UTF-8" standalone="no"?>
<!DOCTYPE svg PUBLIC "-//W3C//DTD SVG 1.1//EN"
 "http://www.w3.org/Graphics/SVG/1.1/DTD/svg11.dtd">
<!-- Generated by graphviz version 2.43.0 (0)
 -->
<!-- Title: Illumination&#45;Engine/src/Core/AssetModule/IEAspect.hpp Pages: 1 -->
<svg width="233pt" height="134pt"
 viewBox="0.00 0.00 232.50 134.00" xmlns="http://www.w3.org/2000/svg" xmlns:xlink="http://www.w3.org/1999/xlink">
<g id="graph0" class="graph" transform="scale(1 1) rotate(0) translate(4 130)">
<title>Illumination&#45;Engine/src/Core/AssetModule/IEAspect.hpp</title>
<polygon fill="white" stroke="transparent" points="-4,4 -4,-130 228.5,-130 228.5,4 -4,4"/>
<!-- Node1 -->
<g id="node1" class="node">
<title>Node1</title>
<g id="a_node1"><a xlink:title=" ">
<polygon fill="#bfbfbf" stroke="black" points="19.5,-63.5 19.5,-125.5 189.5,-125.5 189.5,-63.5 19.5,-63.5"/>
<text text-anchor="start" x="27.5" y="-108.7" font-family="Source Sans Pro" font-size="16.00">Illumination&#45;Engine</text>
<text text-anchor="start" x="27.5" y="-90.7" font-family="Source Sans Pro" font-size="16.00">/src/Core/AssetModule</text>
<text text-anchor="middle" x="104.5" y="-72.7" font-family="Source Sans Pro" font-size="16.00">/IEAspect.hpp</text>
</a>
</g>
</g>
<!-- Node2 -->
<g id="node2" class="node">
<title>Node2</title>
<g id="a_node2"><a xlink:title=" ">
<polygon fill="white" stroke="#bfbfbf" points="0,-0.5 0,-26.5 59,-26.5 59,-0.5 0,-0.5"/>
<text text-anchor="middle" x="29.5" y="-9.7" font-family="Source Sans Pro" font-size="16.00">vector</text>
</a>
</g>
</g>
<!-- Node1&#45;&gt;Node2 -->
<g id="edge1" class="edge">
<title>Node1&#45;&gt;Node2</title>
<path fill="none" stroke="midnightblue" d="M75.72,-63.18C66.48,-53.45 56.5,-42.94 48.18,-34.18"/>
<polygon fill="midnightblue" stroke="midnightblue" points="50.51,-31.55 41.09,-26.7 45.43,-36.37 50.51,-31.55"/>
</g>
<!-- Node3 -->
<g id="node3" class="node">
<title>Node3</title>
<g id="a_node3"><a xlink:title=" ">
<polygon fill="white" stroke="#bfbfbf" points="77,-0.5 77,-26.5 132,-26.5 132,-0.5 77,-0.5"/>
<text text-anchor="middle" x="104.5" y="-9.7" font-family="Source Sans Pro" font-size="16.00">string</text>
</a>
</g>
</g>
<!-- Node1&#45;&gt;Node3 -->
<g id="edge2" class="edge">
<title>Node1&#45;&gt;Node3</title>
<path fill="none" stroke="midnightblue" d="M104.5,-63.18C104.5,-54.45 104.5,-45.08 104.5,-36.91"/>
<polygon fill="midnightblue" stroke="midnightblue" points="108,-36.7 104.5,-26.7 101,-36.7 108,-36.7"/>
</g>
<!-- Node4 -->
<g id="node4" class="node">
<title>Node4</title>
<g id="a_node4"><a xlink:title=" ">
<polygon fill="white" stroke="#bfbfbf" points="150.5,-0.5 150.5,-26.5 224.5,-26.5 224.5,-0.5 150.5,-0.5"/>
<text text-anchor="middle" x="187.5" y="-9.7" font-family="Source Sans Pro" font-size="16.00">memory</text>
</a>
</g>
</g>
<!-- Node1&#45;&gt;Node4 -->
<g id="edge3" class="edge">
<title>Node1&#45;&gt;Node4</title>
<path fill="none" stroke="midnightblue" d="M136.35,-63.18C146.78,-53.26 158.07,-42.51 167.38,-33.65"/>
<polygon fill="midnightblue" stroke="midnightblue" points="169.85,-36.13 174.68,-26.7 165.02,-31.06 169.85,-36.13"/>
</g>
</g>
</svg>
