<?xml version="1.0" encoding="UTF-8" standalone="no"?>
<!DOCTYPE svg PUBLIC "-//W3C//DTD SVG 1.1//EN"
 "http://www.w3.org/Graphics/SVG/1.1/DTD/svg11.dtd">
<!-- Generated by graphviz version 2.43.0 (0)
 -->
<!-- Title: Illumination&#45;Engine/src/GraphicsModule/Shader/IEUniformBufferObject.cpp Pages: 1 -->
<svg width="266pt" height="197pt"
 viewBox="0.00 0.00 266.00 197.00" xmlns="http://www.w3.org/2000/svg" xmlns:xlink="http://www.w3.org/1999/xlink">
<g id="graph0" class="graph" transform="scale(1 1) rotate(0) translate(4 193)">
<title>Illumination&#45;Engine/src/GraphicsModule/Shader/IEUniformBufferObject.cpp</title>
<polygon fill="white" stroke="transparent" points="-4,4 -4,-193 262,-193 262,4 -4,4"/>
<!-- Node1 -->
<g id="node1" class="node">
<title>Node1</title>
<g id="a_node1"><a xlink:title=" ">
<polygon fill="#bfbfbf" stroke="black" points="0,-126.5 0,-188.5 258,-188.5 258,-126.5 0,-126.5"/>
<text text-anchor="start" x="8" y="-171.7" font-family="Source Sans Pro" font-size="16.00">Illumination&#45;Engine</text>
<text text-anchor="start" x="8" y="-153.7" font-family="Source Sans Pro" font-size="16.00">/src/GraphicsModule</text>
<text text-anchor="middle" x="129" y="-135.7" font-family="Source Sans Pro" font-size="16.00">/Shader/IEUniformBufferObject.cpp</text>
</a>
</g>
</g>
<!-- Node2 -->
<g id="node2" class="node">
<title>Node2</title>
<g id="a_node2"><a xlink:href="_i_e_uniform_buffer_object_8hpp.html" target="_top" xlink:title=" ">
<polygon fill="white" stroke="black" points="28.5,-63.5 28.5,-89.5 229.5,-89.5 229.5,-63.5 28.5,-63.5"/>
<text text-anchor="middle" x="129" y="-72.7" font-family="Source Sans Pro" font-size="16.00">IEUniformBufferObject.hpp</text>
</a>
</g>
</g>
<!-- Node1&#45;&gt;Node2 -->
<g id="edge1" class="edge">
<title>Node1&#45;&gt;Node2</title>
<path fill="none" stroke="midnightblue" d="M129,-126.18C129,-117.45 129,-108.08 129,-99.91"/>
<polygon fill="midnightblue" stroke="midnightblue" points="132.5,-99.7 129,-89.7 125.5,-99.7 132.5,-99.7"/>
</g>
<!-- Node3 -->
<g id="node3" class="node">
<title>Node3</title>
<g id="a_node3"><a xlink:title=" ">
<polygon fill="white" stroke="#bfbfbf" points="77,-0.5 77,-26.5 181,-26.5 181,-0.5 77,-0.5"/>
<text text-anchor="middle" x="129" y="-9.7" font-family="Source Sans Pro" font-size="16.00">glm/glm.hpp</text>
</a>
</g>
</g>
<!-- Node2&#45;&gt;Node3 -->
<g id="edge2" class="edge">
<title>Node2&#45;&gt;Node3</title>
<path fill="none" stroke="midnightblue" d="M129,-63.45C129,-55.85 129,-45.79 129,-36.78"/>
<polygon fill="midnightblue" stroke="midnightblue" points="132.5,-36.53 129,-26.53 125.5,-36.53 132.5,-36.53"/>
</g>
</g>
</svg>
