<?xml version="1.0" encoding="UTF-8" standalone="no"?>
<!DOCTYPE svg PUBLIC "-//W3C//DTD SVG 1.1//EN"
 "http://www.w3.org/Graphics/SVG/1.1/DTD/svg11.dtd">
<!-- Generated by graphviz version 2.43.0 (0)
 -->
<!-- Title: Illumination&#45;Engine/src/GraphicsModule/IECamera.hpp Pages: 1 -->
<svg width="429pt" height="134pt"
 viewBox="0.00 0.00 429.00 134.00" xmlns="http://www.w3.org/2000/svg" xmlns:xlink="http://www.w3.org/1999/xlink">
<g id="graph0" class="graph" transform="scale(1 1) rotate(0) translate(4 130)">
<title>Illumination&#45;Engine/src/GraphicsModule/IECamera.hpp</title>
<polygon fill="white" stroke="transparent" points="-4,4 -4,-130 425,-130 425,4 -4,4"/>
<!-- Node1 -->
<g id="node1" class="node">
<title>Node1</title>
<g id="a_node1"><a xlink:title=" ">
<polygon fill="#bfbfbf" stroke="black" points="213,-63.5 213,-125.5 370,-125.5 370,-63.5 213,-63.5"/>
<text text-anchor="start" x="221" y="-108.7" font-family="Source Sans Pro" font-size="16.00">Illumination&#45;Engine</text>
<text text-anchor="start" x="221" y="-90.7" font-family="Source Sans Pro" font-size="16.00">/src/GraphicsModule</text>
<text text-anchor="middle" x="291.5" y="-72.7" font-family="Source Sans Pro" font-size="16.00">/IECamera.hpp</text>
</a>
</g>
</g>
<!-- Node2 -->
<g id="node2" class="node">
<title>Node2</title>
<g id="a_node2"><a xlink:title=" ">
<polygon fill="white" stroke="#bfbfbf" points="0,-0.5 0,-26.5 221,-26.5 221,-0.5 0,-0.5"/>
<text text-anchor="middle" x="110.5" y="-9.7" font-family="Source Sans Pro" font-size="16.00">glm/ext/matrix_transform.hpp</text>
</a>
</g>
</g>
<!-- Node1&#45;&gt;Node2 -->
<g id="edge1" class="edge">
<title>Node1&#45;&gt;Node2</title>
<path fill="none" stroke="midnightblue" d="M222.56,-63.41C197.08,-52.29 169.2,-40.12 147.61,-30.7"/>
<polygon fill="midnightblue" stroke="midnightblue" points="148.74,-27.37 138.17,-26.58 145.94,-33.79 148.74,-27.37"/>
</g>
<!-- Node3 -->
<g id="node3" class="node">
<title>Node3</title>
<g id="a_node3"><a xlink:title=" ">
<polygon fill="white" stroke="#bfbfbf" points="239.5,-0.5 239.5,-26.5 343.5,-26.5 343.5,-0.5 239.5,-0.5"/>
<text text-anchor="middle" x="291.5" y="-9.7" font-family="Source Sans Pro" font-size="16.00">glm/glm.hpp</text>
</a>
</g>
</g>
<!-- Node1&#45;&gt;Node3 -->
<g id="edge2" class="edge">
<title>Node1&#45;&gt;Node3</title>
<path fill="none" stroke="midnightblue" d="M291.5,-63.18C291.5,-54.45 291.5,-45.08 291.5,-36.91"/>
<polygon fill="midnightblue" stroke="midnightblue" points="295,-36.7 291.5,-26.7 288,-36.7 295,-36.7"/>
</g>
<!-- Node4 -->
<g id="node4" class="node">
<title>Node4</title>
<g id="a_node4"><a xlink:title=" ">
<polygon fill="white" stroke="#bfbfbf" points="362,-0.5 362,-26.5 421,-26.5 421,-0.5 362,-0.5"/>
<text text-anchor="middle" x="391.5" y="-9.7" font-family="Source Sans Pro" font-size="16.00">cmath</text>
</a>
</g>
</g>
<!-- Node1&#45;&gt;Node4 -->
<g id="edge3" class="edge">
<title>Node1&#45;&gt;Node4</title>
<path fill="none" stroke="midnightblue" d="M329.59,-63.41C342.65,-53.09 356.86,-41.87 368.37,-32.78"/>
<polygon fill="midnightblue" stroke="midnightblue" points="370.54,-35.52 376.21,-26.58 366.2,-30.03 370.54,-35.52"/>
</g>
</g>
</svg>
