<?xml version="1.0" encoding="UTF-8" standalone="no"?>
<!DOCTYPE svg PUBLIC "-//W3C//DTD SVG 1.1//EN"
 "http://www.w3.org/Graphics/SVG/1.1/DTD/svg11.dtd">
<!-- Generated by graphviz version 2.43.0 (0)
 -->
<!-- Title: Illumination&#45;Engine/src/GraphicsModule/RenderPass/IERenderPass.hpp Pages: 1 -->
<svg width="2442pt" height="602pt"
 viewBox="0.00 0.00 2442.49 602.00" xmlns="http://www.w3.org/2000/svg" xmlns:xlink="http://www.w3.org/1999/xlink">
<g id="graph0" class="graph" transform="scale(1 1) rotate(0) translate(4 598)">
<title>Illumination&#45;Engine/src/GraphicsModule/RenderPass/IERenderPass.hpp</title>
<polygon fill="white" stroke="transparent" points="-4,4 -4,-598 2438.49,-598 2438.49,4 -4,4"/>
<!-- Node1 -->
<g id="node1" class="node">
<title>Node1</title>
<g id="a_node1"><a xlink:title=" ">
<polygon fill="#bfbfbf" stroke="black" points="1692.49,-531.5 1692.49,-593.5 1920.49,-593.5 1920.49,-531.5 1692.49,-531.5"/>
<text text-anchor="start" x="1700.49" y="-576.7" font-family="Source Sans Pro" font-size="16.00">Illumination&#45;Engine</text>
<text text-anchor="start" x="1700.49" y="-558.7" font-family="Source Sans Pro" font-size="16.00">/src/GraphicsModule</text>
<text text-anchor="middle" x="1806.49" y="-540.7" font-family="Source Sans Pro" font-size="16.00">/RenderPass/IERenderPass.hpp</text>
</a>
</g>
</g>
<!-- Node2 -->
<g id="node2" class="node">
<title>Node2</title>
<g id="a_node2"><a xlink:href="_i_e_framebuffer_8hpp.html" target="_top" xlink:title=" ">
<polygon fill="white" stroke="black" points="1511.99,-315.5 1511.99,-341.5 1654.99,-341.5 1654.99,-315.5 1511.99,-315.5"/>
<text text-anchor="middle" x="1583.49" y="-324.7" font-family="Source Sans Pro" font-size="16.00">IEFramebuffer.hpp</text>
</a>
</g>
</g>
<!-- Node1&#45;&gt;Node2 -->
<g id="edge1" class="edge">
<title>Node1&#45;&gt;Node2</title>
<path fill="none" stroke="midnightblue" d="M1777.34,-531.17C1730.85,-482.81 1641.22,-389.56 1602.3,-349.06"/>
<polygon fill="midnightblue" stroke="midnightblue" points="1604.67,-346.48 1595.22,-341.7 1599.62,-351.33 1604.67,-346.48"/>
</g>
<!-- Node5 -->
<g id="node5" class="node">
<title>Node5</title>
<g id="a_node5"><a xlink:title=" ">
<polygon fill="white" stroke="#bfbfbf" points="974.99,-0.5 974.99,-26.5 1033.99,-26.5 1033.99,-0.5 974.99,-0.5"/>
<text text-anchor="middle" x="1004.49" y="-9.7" font-family="Source Sans Pro" font-size="16.00">vector</text>
</a>
</g>
</g>
<!-- Node1&#45;&gt;Node5 -->
<g id="edge85" class="edge">
<title>Node1&#45;&gt;Node5</title>
<path fill="none" stroke="midnightblue" d="M1692.21,-557.95C1295.44,-544.87 1.49,-495.7 1.49,-410.5 1.49,-410.5 1.49,-410.5 1.49,-165.5 1.49,-129.13 -22.38,-117.99 126.49,-63 205.67,-33.75 803.37,-18.84 964.55,-15.32"/>
<polygon fill="midnightblue" stroke="midnightblue" points="965.04,-18.82 974.96,-15.1 964.88,-11.82 965.04,-18.82"/>
</g>
<!-- Node6 -->
<g id="node6" class="node">
<title>Node6</title>
<g id="a_node6"><a xlink:title=" ">
<polygon fill="white" stroke="#bfbfbf" points="966.99,-72.5 966.99,-98.5 1091.99,-98.5 1091.99,-72.5 966.99,-72.5"/>
<text text-anchor="middle" x="1029.49" y="-81.7" font-family="Source Sans Pro" font-size="16.00">vulkan/vulkan.h</text>
</a>
</g>
</g>
<!-- Node1&#45;&gt;Node6 -->
<g id="edge83" class="edge">
<title>Node1&#45;&gt;Node6</title>
<path fill="none" stroke="midnightblue" d="M1920.53,-551.87C2009.29,-537.38 2117.49,-501.13 2117.49,-410.5 2117.49,-410.5 2117.49,-410.5 2117.49,-327.5 2117.49,-241.27 2127.34,-190.14 2054.49,-144 2014.36,-118.58 1330.01,-95.62 1102.43,-88.65"/>
<polygon fill="midnightblue" stroke="midnightblue" points="1102.36,-85.15 1092.26,-88.34 1102.15,-92.14 1102.36,-85.15"/>
</g>
<!-- Node11 -->
<g id="node11" class="node">
<title>Node11</title>
<g id="a_node11"><a xlink:title=" ">
<polygon fill="white" stroke="#bfbfbf" points="1700.99,-0.5 1700.99,-26.5 1763.99,-26.5 1763.99,-0.5 1700.99,-0.5"/>
<text text-anchor="middle" x="1732.49" y="-9.7" font-family="Source Sans Pro" font-size="16.00">cstdint</text>
</a>
</g>
</g>
<!-- Node1&#45;&gt;Node11 -->
<g id="edge84" class="edge">
<title>Node1&#45;&gt;Node11</title>
<path fill="none" stroke="midnightblue" d="M1920.77,-548.03C1977.18,-538.36 2045.05,-522.08 2101.49,-495 2155.81,-468.94 2207.49,-470.75 2207.49,-410.5 2207.49,-410.5 2207.49,-410.5 2207.49,-246.5 2207.49,-54.49 1890.23,-21.37 1774.28,-15.67"/>
<polygon fill="midnightblue" stroke="midnightblue" points="1774.17,-12.17 1764.03,-15.22 1773.86,-19.16 1774.17,-12.17"/>
</g>
<!-- Node15 -->
<g id="node15" class="node">
<title>Node15</title>
<g id="a_node15"><a xlink:title=" ">
<polygon fill="white" stroke="#bfbfbf" points="1941.49,-153.5 1941.49,-179.5 2027.49,-179.5 2027.49,-153.5 1941.49,-153.5"/>
<text text-anchor="middle" x="1984.49" y="-162.7" font-family="Source Sans Pro" font-size="16.00">functional</text>
</a>
</g>
</g>
<!-- Node1&#45;&gt;Node15 -->
<g id="edge86" class="edge">
<title>Node1&#45;&gt;Node15</title>
<path fill="none" stroke="midnightblue" d="M1831.88,-531.28C1853.64,-502.25 1881.49,-456.16 1881.49,-410.5 1881.49,-410.5 1881.49,-410.5 1881.49,-327.5 1881.49,-281.17 1875.22,-263.83 1900.49,-225 1911.8,-207.63 1930.37,-194.1 1947.19,-184.55"/>
<polygon fill="midnightblue" stroke="midnightblue" points="1949.14,-187.47 1956.29,-179.65 1945.82,-181.31 1949.14,-187.47"/>
</g>
<!-- Node16 -->
<g id="node16" class="node">
<title>Node16</title>
<g id="a_node16"><a xlink:href="_i_e_command_buffer_8hpp.html" target="_top" xlink:title=" ">
<polygon fill="white" stroke="black" points="809.49,-468.5 809.49,-494.5 1099.49,-494.5 1099.49,-468.5 809.49,-468.5"/>
<text text-anchor="middle" x="954.49" y="-477.7" font-family="Source Sans Pro" font-size="16.00">CommandBuffer/IECommandBuffer.hpp</text>
</a>
</g>
</g>
<!-- Node1&#45;&gt;Node16 -->
<g id="edge25" class="edge">
<title>Node1&#45;&gt;Node16</title>
<path fill="none" stroke="midnightblue" d="M1692.47,-550.93C1537.72,-536.58 1261.39,-510.96 1094.31,-495.46"/>
<polygon fill="midnightblue" stroke="midnightblue" points="1094.49,-491.97 1084.21,-494.53 1093.84,-498.94 1094.49,-491.97"/>
</g>
<!-- Node3 -->
<g id="node3" class="node">
<title>Node3</title>
<g id="a_node3"><a xlink:href="_i_e_image_8hpp.html" target="_top" xlink:title=" ">
<polygon fill="white" stroke="black" points="1342.49,-225.5 1342.49,-269.5 1516.49,-269.5 1516.49,-225.5 1342.49,-225.5"/>
<text text-anchor="start" x="1350.49" y="-252.7" font-family="Source Sans Pro" font-size="16.00">GraphicsModule/Image</text>
<text text-anchor="middle" x="1429.49" y="-234.7" font-family="Source Sans Pro" font-size="16.00">/IEImage.hpp</text>
</a>
</g>
</g>
<!-- Node2&#45;&gt;Node3 -->
<g id="edge2" class="edge">
<title>Node2&#45;&gt;Node3</title>
<path fill="none" stroke="midnightblue" d="M1559.77,-315.33C1538.47,-304.4 1506.5,-288 1479.56,-274.18"/>
<polygon fill="midnightblue" stroke="midnightblue" points="1481.14,-271.06 1470.64,-269.61 1477.94,-277.29 1481.14,-271.06"/>
</g>
<!-- Node2&#45;&gt;Node5 -->
<g id="edge24" class="edge">
<title>Node2&#45;&gt;Node5</title>
<path fill="none" stroke="midnightblue" d="M1590.05,-315.13C1595.67,-303.76 1603.36,-286.26 1606.49,-270 1617.21,-214.32 1627.05,-183.63 1586.49,-144 1508.25,-67.54 1162.45,-29.06 1044.26,-17.96"/>
<polygon fill="midnightblue" stroke="midnightblue" points="1044.47,-14.47 1034.19,-17.03 1043.83,-21.44 1044.47,-14.47"/>
</g>
<!-- Node2&#45;&gt;Node6 -->
<g id="edge22" class="edge">
<title>Node2&#45;&gt;Node6</title>
<path fill="none" stroke="midnightblue" d="M1586.32,-315.49C1593.25,-282.66 1607.26,-190.73 1559.49,-144 1527.42,-112.63 1239.88,-95.79 1102.27,-89.47"/>
<polygon fill="midnightblue" stroke="midnightblue" points="1102.37,-85.97 1092.22,-89.02 1102.05,-92.96 1102.37,-85.97"/>
</g>
<!-- Node7 -->
<g id="node7" class="node">
<title>Node7</title>
<g id="a_node7"><a xlink:title=" ">
<polygon fill="white" stroke="#bfbfbf" points="1904.99,-0.5 1904.99,-26.5 1959.99,-26.5 1959.99,-0.5 1904.99,-0.5"/>
<text text-anchor="middle" x="1932.49" y="-9.7" font-family="Source Sans Pro" font-size="16.00">string</text>
</a>
</g>
</g>
<!-- Node2&#45;&gt;Node7 -->
<g id="edge23" class="edge">
<title>Node2&#45;&gt;Node7</title>
<path fill="none" stroke="midnightblue" d="M1611.27,-315.47C1684.41,-283.7 1877.52,-199.32 1888.49,-189 1918.19,-161.08 1921.43,-147.5 1931.49,-108 1937.55,-84.2 1936.8,-55.87 1935.17,-36.68"/>
<polygon fill="midnightblue" stroke="midnightblue" points="1938.63,-36.14 1934.15,-26.54 1931.67,-36.84 1938.63,-36.14"/>
</g>
<!-- Node4 -->
<g id="node4" class="node">
<title>Node4</title>
<g id="a_node4"><a xlink:href="_i_e_dependency_8hpp.html" target="_top" xlink:title=" ">
<polygon fill="white" stroke="black" points="681.99,-144.5 681.99,-188.5 926.99,-188.5 926.99,-144.5 681.99,-144.5"/>
<text text-anchor="start" x="689.99" y="-171.7" font-family="Source Sans Pro" font-size="16.00">GraphicsModule/CommandBuffer</text>
<text text-anchor="middle" x="804.49" y="-153.7" font-family="Source Sans Pro" font-size="16.00">/IEDependency.hpp</text>
</a>
</g>
</g>
<!-- Node3&#45;&gt;Node4 -->
<g id="edge3" class="edge">
<title>Node3&#45;&gt;Node4</title>
<path fill="none" stroke="midnightblue" d="M1342.27,-235.48C1250.67,-223.91 1102.46,-205.18 974.49,-189 962.38,-187.47 949.79,-185.88 937.17,-184.28"/>
<polygon fill="midnightblue" stroke="midnightblue" points="937.42,-180.79 927.06,-183 936.54,-187.73 937.42,-180.79"/>
</g>
<!-- Node3&#45;&gt;Node5 -->
<g id="edge20" class="edge">
<title>Node3&#45;&gt;Node5</title>
<path fill="none" stroke="midnightblue" d="M1342.31,-235.8C1301.09,-227.7 1252.67,-213.58 1214.49,-189 1192.72,-174.98 1194.65,-163.4 1177.49,-144 1144.59,-106.79 1140.35,-92.63 1100.49,-63 1083.01,-50 1061.52,-38.78 1043.31,-30.41"/>
<polygon fill="midnightblue" stroke="midnightblue" points="1044.69,-27.19 1034.13,-26.3 1041.83,-33.58 1044.69,-27.19"/>
</g>
<!-- Node3&#45;&gt;Node6 -->
<g id="edge16" class="edge">
<title>Node3&#45;&gt;Node6</title>
<path fill="none" stroke="midnightblue" d="M1459.83,-225.34C1471.05,-215.69 1482.49,-203.23 1488.49,-189 1496.26,-170.57 1501.73,-159 1488.49,-144 1463.39,-115.56 1225.32,-97.78 1102.32,-90.41"/>
<polygon fill="midnightblue" stroke="midnightblue" points="1102.41,-86.91 1092.22,-89.82 1102,-93.9 1102.41,-86.91"/>
</g>
<!-- Node3&#45;&gt;Node7 -->
<g id="edge19" class="edge">
<title>Node3&#45;&gt;Node7</title>
<path fill="none" stroke="midnightblue" d="M1516.87,-244.65C1625.96,-240.69 1804.57,-228.23 1856.49,-189 1906.17,-151.48 1923.89,-74.67 1929.78,-36.73"/>
<polygon fill="midnightblue" stroke="midnightblue" points="1933.27,-37.09 1931.2,-26.7 1926.34,-36.11 1933.27,-37.09"/>
</g>
<!-- Node9 -->
<g id="node9" class="node">
<title>Node9</title>
<g id="a_node9"><a xlink:href="_i_e_a_p_i_8hpp.html" target="_top" xlink:title=" ">
<polygon fill="white" stroke="black" points="1763.99,-153.5 1763.99,-179.5 1846.99,-179.5 1846.99,-153.5 1763.99,-153.5"/>
<text text-anchor="middle" x="1805.49" y="-162.7" font-family="Source Sans Pro" font-size="16.00">IEAPI.hpp</text>
</a>
</g>
</g>
<!-- Node3&#45;&gt;Node9 -->
<g id="edge8" class="edge">
<title>Node3&#45;&gt;Node9</title>
<path fill="none" stroke="midnightblue" d="M1516.7,-228.18C1590.27,-212.72 1693.08,-191.12 1754.11,-178.29"/>
<polygon fill="midnightblue" stroke="midnightblue" points="1754.84,-181.72 1763.91,-176.24 1753.4,-174.87 1754.84,-181.72"/>
</g>
<!-- Node3&#45;&gt;Node11 -->
<g id="edge18" class="edge">
<title>Node3&#45;&gt;Node11</title>
<path fill="none" stroke="midnightblue" d="M1458.1,-225.31C1472.63,-214.5 1490.55,-201.11 1506.49,-189 1580.76,-132.6 1667.92,-64.86 1708.91,-32.91"/>
<polygon fill="midnightblue" stroke="midnightblue" points="1711.21,-35.56 1716.94,-26.65 1706.9,-30.04 1711.21,-35.56"/>
</g>
<!-- Node12 -->
<g id="node12" class="node">
<title>Node12</title>
<g id="a_node12"><a xlink:title=" ">
<polygon fill="white" stroke="#bfbfbf" points="1223.49,-153.5 1223.49,-179.5 1361.49,-179.5 1361.49,-153.5 1223.49,-153.5"/>
<text text-anchor="middle" x="1292.49" y="-162.7" font-family="Source Sans Pro" font-size="16.00">include/GL/glew.h</text>
</a>
</g>
</g>
<!-- Node3&#45;&gt;Node12 -->
<g id="edge14" class="edge">
<title>Node3&#45;&gt;Node12</title>
<path fill="none" stroke="midnightblue" d="M1392.78,-225.33C1370.68,-212.59 1342.92,-196.58 1322.21,-184.64"/>
<polygon fill="midnightblue" stroke="midnightblue" points="1323.93,-181.59 1313.52,-179.63 1320.44,-187.65 1323.93,-181.59"/>
</g>
<!-- Node13 -->
<g id="node13" class="node">
<title>Node13</title>
<g id="a_node13"><a xlink:title=" ">
<polygon fill="white" stroke="#bfbfbf" points="982.99,-153.5 982.99,-179.5 1167.99,-179.5 1167.99,-153.5 982.99,-153.5"/>
<text text-anchor="middle" x="1075.49" y="-162.7" font-family="Source Sans Pro" font-size="16.00">include/vk_mem_alloc.h</text>
</a>
</g>
</g>
<!-- Node3&#45;&gt;Node13 -->
<g id="edge15" class="edge">
<title>Node3&#45;&gt;Node13</title>
<path fill="none" stroke="midnightblue" d="M1342.44,-227.07C1279.58,-213.04 1196.1,-194.42 1139.35,-181.75"/>
<polygon fill="midnightblue" stroke="midnightblue" points="1139.95,-178.3 1129.42,-179.54 1138.42,-185.13 1139.95,-178.3"/>
</g>
<!-- Node14 -->
<g id="node14" class="node">
<title>Node14</title>
<g id="a_node14"><a xlink:title=" ">
<polygon fill="white" stroke="#bfbfbf" points="1379.49,-153.5 1379.49,-179.5 1479.49,-179.5 1479.49,-153.5 1379.49,-153.5"/>
<text text-anchor="middle" x="1429.49" y="-162.7" font-family="Source Sans Pro" font-size="16.00">stb_image.h</text>
</a>
</g>
</g>
<!-- Node3&#45;&gt;Node14 -->
<g id="edge17" class="edge">
<title>Node3&#45;&gt;Node14</title>
<path fill="none" stroke="midnightblue" d="M1429.49,-225.33C1429.49,-214.36 1429.49,-200.97 1429.49,-189.83"/>
<polygon fill="midnightblue" stroke="midnightblue" points="1432.99,-189.63 1429.49,-179.63 1425.99,-189.63 1432.99,-189.63"/>
</g>
<!-- Node3&#45;&gt;Node15 -->
<g id="edge21" class="edge">
<title>Node3&#45;&gt;Node15</title>
<path fill="none" stroke="midnightblue" d="M1516.77,-238.17C1609.58,-228.71 1760.47,-211.61 1889.49,-189 1903.03,-186.63 1917.55,-183.59 1931.06,-180.56"/>
<polygon fill="midnightblue" stroke="midnightblue" points="1932.19,-183.89 1941.16,-178.25 1930.63,-177.07 1932.19,-183.89"/>
</g>
<!-- Node4&#45;&gt;Node5 -->
<g id="edge4" class="edge">
<title>Node4&#45;&gt;Node5</title>
<path fill="none" stroke="midnightblue" d="M823.96,-144.11C844.73,-122.06 879.3,-87.53 913.49,-63 930.55,-50.76 951.08,-39.56 968.32,-31.01"/>
<polygon fill="midnightblue" stroke="midnightblue" points="970.05,-34.06 977.51,-26.54 966.99,-27.76 970.05,-34.06"/>
</g>
<!-- Node4&#45;&gt;Node6 -->
<g id="edge5" class="edge">
<title>Node4&#45;&gt;Node6</title>
<path fill="none" stroke="midnightblue" d="M864.49,-144.43C902.53,-131.08 950.88,-114.1 985.39,-101.98"/>
<polygon fill="midnightblue" stroke="midnightblue" points="986.91,-105.16 995.18,-98.55 984.59,-98.56 986.91,-105.16"/>
</g>
<!-- Node4&#45;&gt;Node7 -->
<g id="edge6" class="edge">
<title>Node4&#45;&gt;Node7</title>
<path fill="none" stroke="midnightblue" d="M843.05,-144.32C861.16,-133.95 882.83,-120.93 901.49,-108 927.74,-89.81 927.62,-74.26 957.49,-63 1042.41,-30.99 1682.91,-32.56 1773.49,-27 1814.96,-24.46 1862.44,-20.6 1894.63,-17.84"/>
<polygon fill="midnightblue" stroke="midnightblue" points="1895.28,-21.3 1904.94,-16.96 1894.67,-14.33 1895.28,-21.3"/>
</g>
<!-- Node8 -->
<g id="node8" class="node">
<title>Node8</title>
<g id="a_node8"><a xlink:title=" ">
<polygon fill="white" stroke="#bfbfbf" points="312.49,-72.5 312.49,-98.5 386.49,-98.5 386.49,-72.5 312.49,-72.5"/>
<text text-anchor="middle" x="349.49" y="-81.7" font-family="Source Sans Pro" font-size="16.00">memory</text>
</a>
</g>
</g>
<!-- Node4&#45;&gt;Node8 -->
<g id="edge7" class="edge">
<title>Node4&#45;&gt;Node8</title>
<path fill="none" stroke="midnightblue" d="M683.46,-144.49C589.3,-128.14 463.73,-106.34 396.58,-94.68"/>
<polygon fill="midnightblue" stroke="midnightblue" points="397.16,-91.22 386.71,-92.96 395.97,-98.12 397.16,-91.22"/>
</g>
<!-- Node9&#45;&gt;Node7 -->
<g id="edge13" class="edge">
<title>Node9&#45;&gt;Node7</title>
<path fill="none" stroke="midnightblue" d="M1815.67,-153.4C1837.5,-127.44 1889,-66.21 1915.73,-34.43"/>
<polygon fill="midnightblue" stroke="midnightblue" points="1918.51,-36.57 1922.27,-26.66 1913.15,-32.06 1918.51,-36.57"/>
</g>
<!-- Node10 -->
<g id="node10" class="node">
<title>Node10</title>
<g id="a_node10"><a xlink:href="_i_e_version_8hpp.html" target="_top" xlink:title=" ">
<polygon fill="white" stroke="black" points="1718.49,-72.5 1718.49,-98.5 1828.49,-98.5 1828.49,-72.5 1718.49,-72.5"/>
<text text-anchor="middle" x="1773.49" y="-81.7" font-family="Source Sans Pro" font-size="16.00">IEVersion.hpp</text>
</a>
</g>
</g>
<!-- Node9&#45;&gt;Node10 -->
<g id="edge9" class="edge">
<title>Node9&#45;&gt;Node10</title>
<path fill="none" stroke="midnightblue" d="M1800.49,-153.16C1795.65,-141.21 1788.22,-122.85 1782.37,-108.42"/>
<polygon fill="midnightblue" stroke="midnightblue" points="1785.46,-106.71 1778.46,-98.76 1778.97,-109.34 1785.46,-106.71"/>
</g>
<!-- Node10&#45;&gt;Node5 -->
<g id="edge12" class="edge">
<title>Node10&#45;&gt;Node5</title>
<path fill="none" stroke="midnightblue" d="M1720.38,-72.46C1703.25,-68.95 1684.14,-65.41 1666.49,-63 1431.88,-30.96 1147.4,-19.11 1044.25,-15.68"/>
<polygon fill="midnightblue" stroke="midnightblue" points="1044.1,-12.17 1033.99,-15.34 1043.87,-19.17 1044.1,-12.17"/>
</g>
<!-- Node10&#45;&gt;Node7 -->
<g id="edge11" class="edge">
<title>Node10&#45;&gt;Node7</title>
<path fill="none" stroke="midnightblue" d="M1800.83,-72.47C1826.99,-60.95 1866.65,-43.49 1895.61,-30.74"/>
<polygon fill="midnightblue" stroke="midnightblue" points="1897.24,-33.84 1904.98,-26.61 1894.42,-27.44 1897.24,-33.84"/>
</g>
<!-- Node10&#45;&gt;Node11 -->
<g id="edge10" class="edge">
<title>Node10&#45;&gt;Node11</title>
<path fill="none" stroke="midnightblue" d="M1766.35,-72.31C1760.41,-62.17 1751.83,-47.51 1744.79,-35.49"/>
<polygon fill="midnightblue" stroke="midnightblue" points="1747.63,-33.41 1739.55,-26.55 1741.59,-36.95 1747.63,-33.41"/>
</g>
<!-- Node16&#45;&gt;Node3 -->
<g id="edge40" class="edge">
<title>Node16&#45;&gt;Node3</title>
<path fill="none" stroke="midnightblue" d="M1099.78,-474.16C1225.2,-467.23 1389.61,-454.05 1411.49,-432 1451.1,-392.07 1444.82,-320.51 1436.98,-279.55"/>
<polygon fill="midnightblue" stroke="midnightblue" points="1440.38,-278.68 1434.93,-269.59 1433.52,-280.09 1440.38,-278.68"/>
</g>
<!-- Node16&#45;&gt;Node5 -->
<g id="edge27" class="edge">
<title>Node16&#45;&gt;Node5</title>
<path fill="none" stroke="midnightblue" d="M809.28,-473.44C696.77,-466.43 551,-453.56 495.49,-432 464.09,-419.8 465.45,-400.28 434.49,-387 349.88,-350.71 300.94,-410.28 230.49,-351 193.43,-319.82 193.49,-296.93 193.49,-248.5 193.49,-248.5 193.49,-248.5 193.49,-165.5 193.49,-114.81 201.38,-91.21 243.49,-63 303.64,-22.7 816.65,-15.86 964.66,-14.72"/>
<polygon fill="midnightblue" stroke="midnightblue" points="964.71,-18.22 974.68,-14.65 964.65,-11.22 964.71,-18.22"/>
</g>
<!-- Node16&#45;&gt;Node6 -->
<g id="edge26" class="edge">
<title>Node16&#45;&gt;Node6</title>
<path fill="none" stroke="midnightblue" d="M1099.6,-480.8C1221.45,-478.4 1383.98,-468.15 1437.49,-432 1489.87,-396.61 1472.33,-361 1503.49,-306 1512.74,-289.69 1520.41,-288.05 1525.49,-270 1540.83,-215.48 1548.69,-181.77 1506.49,-144 1476.99,-117.59 1228.75,-98.72 1102.55,-90.74"/>
<polygon fill="midnightblue" stroke="midnightblue" points="1102.4,-87.22 1092.2,-90.09 1101.97,-94.21 1102.4,-87.22"/>
</g>
<!-- Node17 -->
<g id="node17" class="node">
<title>Node17</title>
<g id="a_node17"><a xlink:title=" ">
<polygon fill="white" stroke="#bfbfbf" points="205.49,-396.5 205.49,-422.5 269.49,-422.5 269.49,-396.5 205.49,-396.5"/>
<text text-anchor="middle" x="237.49" y="-405.7" font-family="Source Sans Pro" font-size="16.00">variant</text>
</a>
</g>
</g>
<!-- Node16&#45;&gt;Node17 -->
<g id="edge28" class="edge">
<title>Node16&#45;&gt;Node17</title>
<path fill="none" stroke="midnightblue" d="M809.45,-477.03C641.22,-471.78 374.68,-459.38 278.49,-432 274.32,-430.81 270.08,-429.17 265.99,-427.31"/>
<polygon fill="midnightblue" stroke="midnightblue" points="267.33,-424.07 256.82,-422.72 264.2,-430.33 267.33,-424.07"/>
</g>
<!-- Node18 -->
<g id="node18" class="node">
<title>Node18</title>
<g id="a_node18"><a xlink:title=" ">
<polygon fill="white" stroke="#bfbfbf" points="287.99,-396.5 287.99,-422.5 348.99,-422.5 348.99,-396.5 287.99,-396.5"/>
<text text-anchor="middle" x="318.49" y="-405.7" font-family="Source Sans Pro" font-size="16.00">thread</text>
</a>
</g>
</g>
<!-- Node16&#45;&gt;Node18 -->
<g id="edge29" class="edge">
<title>Node16&#45;&gt;Node18</title>
<path fill="none" stroke="midnightblue" d="M809.21,-475.69C660.17,-469.51 438.95,-456.53 357.49,-432 353.61,-430.83 349.67,-429.24 345.88,-427.44"/>
<polygon fill="midnightblue" stroke="midnightblue" points="347.3,-424.24 336.82,-422.69 344.05,-430.44 347.3,-424.24"/>
</g>
<!-- Node19 -->
<g id="node19" class="node">
<title>Node19</title>
<g id="a_node19"><a xlink:title=" ">
<polygon fill="white" stroke="#bfbfbf" points="366.99,-396.5 366.99,-422.5 425.99,-422.5 425.99,-396.5 366.99,-396.5"/>
<text text-anchor="middle" x="396.49" y="-405.7" font-family="Source Sans Pro" font-size="16.00">mutex</text>
</a>
</g>
</g>
<!-- Node16&#45;&gt;Node19 -->
<g id="edge30" class="edge">
<title>Node16&#45;&gt;Node19</title>
<path fill="none" stroke="midnightblue" d="M809.44,-472.63C682.25,-464.67 507.47,-450.85 440.49,-432 435.83,-430.69 431.06,-428.89 426.46,-426.9"/>
<polygon fill="midnightblue" stroke="midnightblue" points="427.9,-423.71 417.36,-422.61 424.92,-430.04 427.9,-423.71"/>
</g>
<!-- Node20 -->
<g id="node20" class="node">
<title>Node20</title>
<g id="a_node20"><a xlink:href="_i_e_buffer_8hpp.html" target="_top" xlink:title=" ">
<polygon fill="white" stroke="black" points="881.99,-234.5 881.99,-260.5 1028.99,-260.5 1028.99,-234.5 881.99,-234.5"/>
<text text-anchor="middle" x="955.49" y="-243.7" font-family="Source Sans Pro" font-size="16.00">Buffer/IEBuffer.hpp</text>
</a>
</g>
</g>
<!-- Node16&#45;&gt;Node20 -->
<g id="edge31" class="edge">
<title>Node16&#45;&gt;Node20</title>
<path fill="none" stroke="midnightblue" d="M978.77,-468.48C1030.8,-441.1 1144.88,-371.35 1100.49,-306 1086.12,-284.84 1062.61,-271.47 1038.67,-263.01"/>
<polygon fill="midnightblue" stroke="midnightblue" points="1039.72,-259.68 1029.13,-259.9 1037.55,-266.33 1039.72,-259.68"/>
</g>
<!-- Node21 -->
<g id="node21" class="node">
<title>Node21</title>
<g id="a_node21"><a xlink:href="_i_e_dependent_8hpp.html" target="_top" xlink:title=" ">
<polygon fill="white" stroke="black" points="29.49,-153.5 29.49,-179.5 165.49,-179.5 165.49,-153.5 29.49,-153.5"/>
<text text-anchor="middle" x="97.49" y="-162.7" font-family="Source Sans Pro" font-size="16.00">IEDependent.hpp</text>
</a>
</g>
</g>
<!-- Node16&#45;&gt;Node21 -->
<g id="edge41" class="edge">
<title>Node16&#45;&gt;Node21</title>
<path fill="none" stroke="midnightblue" d="M809.35,-479.6C602.99,-477.06 244.38,-467.53 196.49,-432 116.88,-372.94 101.27,-242.21 98.22,-189.84"/>
<polygon fill="midnightblue" stroke="midnightblue" points="101.71,-189.45 97.74,-179.63 94.72,-189.79 101.71,-189.45"/>
</g>
<!-- Node22 -->
<g id="node22" class="node">
<title>Node22</title>
<g id="a_node22"><a xlink:href="_i_e_pipeline_8hpp.html" target="_top" xlink:title=" ">
<polygon fill="white" stroke="black" points="1673.49,-306.5 1673.49,-350.5 1853.49,-350.5 1853.49,-306.5 1673.49,-306.5"/>
<text text-anchor="start" x="1681.49" y="-333.7" font-family="Source Sans Pro" font-size="16.00">GraphicsModule/Shader</text>
<text text-anchor="middle" x="1763.49" y="-315.7" font-family="Source Sans Pro" font-size="16.00">/IEPipeline.hpp</text>
</a>
</g>
</g>
<!-- Node16&#45;&gt;Node22 -->
<g id="edge44" class="edge">
<title>Node16&#45;&gt;Node22</title>
<path fill="none" stroke="midnightblue" d="M1099.7,-478.47C1210.07,-474.31 1364.97,-462.81 1497.49,-432 1574.12,-414.18 1658.14,-378.97 1710.83,-354.84"/>
<polygon fill="midnightblue" stroke="midnightblue" points="1712.36,-357.99 1719.98,-350.62 1709.43,-351.63 1712.36,-357.99"/>
</g>
<!-- Node29 -->
<g id="node29" class="node">
<title>Node29</title>
<g id="a_node29"><a xlink:href="_i_e_dependency_info_8hpp.html" target="_top" xlink:title=" ">
<polygon fill="white" stroke="black" points="504.49,-387.5 504.49,-431.5 728.49,-431.5 728.49,-387.5 504.49,-387.5"/>
<text text-anchor="start" x="512.49" y="-414.7" font-family="Source Sans Pro" font-size="16.00">CommandBuffer/Dependency</text>
<text text-anchor="middle" x="616.49" y="-396.7" font-family="Source Sans Pro" font-size="16.00">Structs/IEDependencyInfo.hpp</text>
</a>
</g>
</g>
<!-- Node16&#45;&gt;Node29 -->
<g id="edge63" class="edge">
<title>Node16&#45;&gt;Node29</title>
<path fill="none" stroke="midnightblue" d="M896.39,-468.47C850.27,-458.92 784.43,-445.28 728.19,-433.63"/>
<polygon fill="midnightblue" stroke="midnightblue" points="728.67,-430.16 718.17,-431.56 727.25,-437.01 728.67,-430.16"/>
</g>
<!-- Node32 -->
<g id="node32" class="node">
<title>Node32</title>
<g id="a_node32"><a xlink:href="_i_e_copy_buffer_to_image_info_8hpp.html" target="_top" xlink:title=" ">
<polygon fill="white" stroke="black" points="817.99,-306.5 817.99,-350.5 1090.99,-350.5 1090.99,-306.5 817.99,-306.5"/>
<text text-anchor="start" x="825.99" y="-333.7" font-family="Source Sans Pro" font-size="16.00">CommandBuffer/Dependency</text>
<text text-anchor="middle" x="954.49" y="-315.7" font-family="Source Sans Pro" font-size="16.00">Structs/IECopyBufferToImageInfo.hpp</text>
</a>
</g>
</g>
<!-- Node16&#45;&gt;Node32 -->
<g id="edge75" class="edge">
<title>Node16&#45;&gt;Node32</title>
<path fill="none" stroke="midnightblue" d="M954.49,-468.4C954.49,-445.29 954.49,-394.2 954.49,-360.84"/>
<polygon fill="midnightblue" stroke="midnightblue" points="957.99,-360.69 954.49,-350.69 950.99,-360.69 957.99,-360.69"/>
</g>
<!-- Node33 -->
<g id="node33" class="node">
<title>Node33</title>
<g id="a_node33"><a xlink:href="_i_e_render_pass_begin_info_8hpp.html" target="_top" xlink:title=" ">
<polygon fill="white" stroke="black" points="1146.49,-387.5 1146.49,-431.5 1402.49,-431.5 1402.49,-387.5 1146.49,-387.5"/>
<text text-anchor="start" x="1154.49" y="-414.7" font-family="Source Sans Pro" font-size="16.00">CommandBuffer/Dependency</text>
<text text-anchor="middle" x="1274.49" y="-396.7" font-family="Source Sans Pro" font-size="16.00">Structs/IERenderPassBeginInfo.hpp</text>
</a>
</g>
</g>
<!-- Node16&#45;&gt;Node33 -->
<g id="edge80" class="edge">
<title>Node16&#45;&gt;Node33</title>
<path fill="none" stroke="midnightblue" d="M1009.5,-468.47C1053.07,-458.94 1115.24,-445.34 1168.41,-433.71"/>
<polygon fill="midnightblue" stroke="midnightblue" points="1169.21,-437.11 1178.23,-431.56 1167.71,-430.28 1169.21,-437.11"/>
</g>
<!-- Node20&#45;&gt;Node4 -->
<g id="edge32" class="edge">
<title>Node20&#45;&gt;Node4</title>
<path fill="none" stroke="midnightblue" d="M932.23,-234.33C911.43,-223.45 880.27,-207.15 853.93,-193.36"/>
<polygon fill="midnightblue" stroke="midnightblue" points="855.32,-190.14 844.84,-188.61 852.08,-196.35 855.32,-190.14"/>
</g>
<!-- Node20&#45;&gt;Node5 -->
<g id="edge37" class="edge">
<title>Node20&#45;&gt;Node5</title>
<path fill="none" stroke="midnightblue" d="M881.64,-243.65C798.1,-238.69 669.73,-225.23 639.49,-189 603.61,-146 602.59,-105.13 639.49,-63 660.71,-38.77 874.7,-22.63 964.82,-16.86"/>
<polygon fill="midnightblue" stroke="midnightblue" points="965.16,-20.35 974.92,-16.23 964.72,-13.36 965.16,-20.35"/>
</g>
<!-- Node20&#45;&gt;Node6 -->
<g id="edge36" class="edge">
<title>Node20&#45;&gt;Node6</title>
<path fill="none" stroke="midnightblue" d="M955.54,-234.42C956.07,-214.5 959.15,-173.96 974.49,-144 982.04,-129.26 994.58,-115.71 1005.79,-105.47"/>
<polygon fill="midnightblue" stroke="midnightblue" points="1008.39,-107.85 1013.62,-98.64 1003.78,-102.58 1008.39,-107.85"/>
</g>
<!-- Node20&#45;&gt;Node9 -->
<g id="edge33" class="edge">
<title>Node20&#45;&gt;Node9</title>
<path fill="none" stroke="midnightblue" d="M1029.07,-239.66C1197.63,-224 1608.41,-185.82 1753.6,-172.32"/>
<polygon fill="midnightblue" stroke="midnightblue" points="1753.96,-175.8 1763.59,-171.39 1753.31,-168.83 1753.96,-175.8"/>
</g>
<!-- Node20&#45;&gt;Node11 -->
<g id="edge38" class="edge">
<title>Node20&#45;&gt;Node11</title>
<path fill="none" stroke="midnightblue" d="M881.59,-245.13C780.74,-240.42 618.33,-221.06 672.49,-144 733.61,-57.05 793.37,-84.3 897.49,-63 1051.55,-31.48 1542.58,-18.58 1690.15,-15.35"/>
<polygon fill="midnightblue" stroke="midnightblue" points="1690.65,-18.84 1700.57,-15.13 1690.5,-11.85 1690.65,-18.84"/>
</g>
<!-- Node20&#45;&gt;Node12 -->
<g id="edge35" class="edge">
<title>Node20&#45;&gt;Node12</title>
<path fill="none" stroke="midnightblue" d="M1007.04,-234.42C1067.34,-220.28 1167.05,-196.91 1231.24,-181.86"/>
<polygon fill="midnightblue" stroke="midnightblue" points="1232.29,-185.21 1241.22,-179.52 1230.69,-178.39 1232.29,-185.21"/>
</g>
<!-- Node20&#45;&gt;Node13 -->
<g id="edge34" class="edge">
<title>Node20&#45;&gt;Node13</title>
<path fill="none" stroke="midnightblue" d="M973.98,-234.33C993.94,-221.19 1025.94,-200.12 1048.67,-185.16"/>
<polygon fill="midnightblue" stroke="midnightblue" points="1050.75,-187.98 1057.18,-179.55 1046.9,-182.13 1050.75,-187.98"/>
</g>
<!-- Node20&#45;&gt;Node15 -->
<g id="edge39" class="edge">
<title>Node20&#45;&gt;Node15</title>
<path fill="none" stroke="midnightblue" d="M1029.02,-242.24C1229.37,-230.58 1775.38,-198.38 1856.49,-189 1881.26,-186.14 1908.52,-181.73 1931.5,-177.66"/>
<polygon fill="midnightblue" stroke="midnightblue" points="1932.18,-181.09 1941.4,-175.87 1930.94,-174.2 1932.18,-181.09"/>
</g>
<!-- Node21&#45;&gt;Node5 -->
<g id="edge42" class="edge">
<title>Node21&#45;&gt;Node5</title>
<path fill="none" stroke="midnightblue" d="M103.02,-153.25C113.94,-130.71 140.63,-83.1 179.49,-63 249.64,-26.71 809.46,-16.97 964.7,-14.95"/>
<polygon fill="midnightblue" stroke="midnightblue" points="964.79,-18.45 974.75,-14.82 964.7,-11.45 964.79,-18.45"/>
</g>
<!-- Node21&#45;&gt;Node8 -->
<g id="edge43" class="edge">
<title>Node21&#45;&gt;Node8</title>
<path fill="none" stroke="midnightblue" d="M136.04,-153.42C180.71,-139.41 254.3,-116.34 302.34,-101.28"/>
<polygon fill="midnightblue" stroke="midnightblue" points="303.69,-104.53 312.18,-98.2 301.59,-97.85 303.69,-104.53"/>
</g>
<!-- Node22&#45;&gt;Node4 -->
<g id="edge59" class="edge">
<title>Node22&#45;&gt;Node4</title>
<path fill="none" stroke="midnightblue" d="M1673.46,-307.53C1670.44,-306.99 1667.44,-306.48 1664.49,-306 1518.43,-282.26 1479.81,-292.09 1333.49,-270 1185.71,-247.69 1016.36,-213.3 909.91,-190.61"/>
<polygon fill="midnightblue" stroke="midnightblue" points="910.64,-187.18 900.13,-188.51 909.17,-194.03 910.64,-187.18"/>
</g>
<!-- Node22&#45;&gt;Node5 -->
<g id="edge62" class="edge">
<title>Node22&#45;&gt;Node5</title>
<path fill="none" stroke="midnightblue" d="M1755,-306.49C1745.6,-284.75 1729.03,-250.47 1708.49,-225 1625.38,-121.94 1585.21,-101.37 1458.49,-63 1310.56,-18.21 1124.58,-13.51 1044.35,-13.82"/>
<polygon fill="midnightblue" stroke="midnightblue" points="1044.17,-10.32 1034.19,-13.89 1044.21,-17.32 1044.17,-10.32"/>
</g>
<!-- Node22&#45;&gt;Node6 -->
<g id="edge60" class="edge">
<title>Node22&#45;&gt;Node6</title>
<path fill="none" stroke="midnightblue" d="M1746.42,-306.46C1710.23,-262.46 1625.89,-163.18 1586.49,-144 1502.99,-103.34 1233.83,-91.34 1102.68,-87.87"/>
<polygon fill="midnightblue" stroke="midnightblue" points="1102.43,-84.37 1092.34,-87.61 1102.25,-91.36 1102.43,-84.37"/>
</g>
<!-- Node22&#45;&gt;Node15 -->
<g id="edge61" class="edge">
<title>Node22&#45;&gt;Node15</title>
<path fill="none" stroke="midnightblue" d="M1784.48,-306.1C1812.13,-278.01 1858.35,-231.49 1867.49,-225 1891.25,-208.13 1920.71,-193.68 1944.12,-183.49"/>
<polygon fill="midnightblue" stroke="midnightblue" points="1945.6,-186.67 1953.43,-179.52 1942.85,-180.23 1945.6,-186.67"/>
</g>
<!-- Node23 -->
<g id="node23" class="node">
<title>Node23</title>
<g id="a_node23"><a xlink:href="_i_e_shader_8hpp.html" target="_top" xlink:title=" ">
<polygon fill="white" stroke="black" points="1909.49,-225.5 1909.49,-269.5 2089.49,-269.5 2089.49,-225.5 1909.49,-225.5"/>
<text text-anchor="start" x="1917.49" y="-252.7" font-family="Source Sans Pro" font-size="16.00">GraphicsModule/Shader</text>
<text text-anchor="middle" x="1999.49" y="-234.7" font-family="Source Sans Pro" font-size="16.00">/IEShader.hpp</text>
</a>
</g>
</g>
<!-- Node22&#45;&gt;Node23 -->
<g id="edge45" class="edge">
<title>Node22&#45;&gt;Node23</title>
<path fill="none" stroke="midnightblue" d="M1826.43,-306.43C1857.36,-296.08 1894.81,-283.54 1926.94,-272.79"/>
<polygon fill="midnightblue" stroke="midnightblue" points="1928.36,-276 1936.73,-269.51 1926.14,-269.36 1928.36,-276"/>
</g>
<!-- Node23&#45;&gt;Node5 -->
<g id="edge49" class="edge">
<title>Node23&#45;&gt;Node5</title>
<path fill="none" stroke="midnightblue" d="M2024.72,-225.43C2048.2,-203.32 2076.53,-168.45 2054.49,-144 2002.89,-86.74 1783.01,-131.19 1709.49,-108 1670.22,-95.61 1667.93,-74.87 1628.49,-63 1518.4,-29.87 1163.94,-18.37 1044.34,-15.38"/>
<polygon fill="midnightblue" stroke="midnightblue" points="1044.24,-11.88 1034.16,-15.13 1044.07,-18.88 1044.24,-11.88"/>
</g>
<!-- Node23&#45;&gt;Node6 -->
<g id="edge47" class="edge">
<title>Node23&#45;&gt;Node6</title>
<path fill="none" stroke="midnightblue" d="M2018.32,-225.46C2036.36,-202.71 2057.93,-166.69 2036.49,-144 2020.45,-127.02 1330.97,-98.38 1102.31,-89.33"/>
<polygon fill="midnightblue" stroke="midnightblue" points="1102.23,-85.82 1092.1,-88.92 1101.95,-92.82 1102.23,-85.82"/>
</g>
<!-- Node23&#45;&gt;Node7 -->
<g id="edge48" class="edge">
<title>Node23&#45;&gt;Node7</title>
<path fill="none" stroke="midnightblue" d="M2089.69,-229.73C2111.5,-221.21 2132.31,-208.37 2145.49,-189 2156.75,-172.47 2155.3,-161.43 2145.49,-144 2107.89,-77.12 2020.21,-40.77 1969.85,-24.73"/>
<polygon fill="midnightblue" stroke="midnightblue" points="1970.59,-21.3 1960.01,-21.7 1968.54,-27.99 1970.59,-21.3"/>
</g>
<!-- Node23&#45;&gt;Node9 -->
<g id="edge46" class="edge">
<title>Node23&#45;&gt;Node9</title>
<path fill="none" stroke="midnightblue" d="M1947.76,-225.43C1915.39,-212.25 1874.35,-195.54 1844.67,-183.45"/>
<polygon fill="midnightblue" stroke="midnightblue" points="1845.65,-180.08 1835.07,-179.55 1843.01,-186.56 1845.65,-180.08"/>
</g>
<!-- Node23&#45;&gt;Node12 -->
<g id="edge58" class="edge">
<title>Node23&#45;&gt;Node12</title>
<path fill="none" stroke="midnightblue" d="M1909.23,-243.29C1786.47,-237.78 1560.37,-223.56 1370.49,-189 1360.85,-187.24 1350.67,-184.85 1340.96,-182.29"/>
<polygon fill="midnightblue" stroke="midnightblue" points="1341.63,-178.85 1331.06,-179.59 1339.79,-185.6 1341.63,-178.85"/>
</g>
<!-- Node23&#45;&gt;Node15 -->
<g id="edge50" class="edge">
<title>Node23&#45;&gt;Node15</title>
<path fill="none" stroke="midnightblue" d="M1995.47,-225.33C1993.37,-214.25 1990.79,-200.69 1988.67,-189.49"/>
<polygon fill="midnightblue" stroke="midnightblue" points="1992.1,-188.8 1986.79,-179.63 1985.22,-190.1 1992.1,-188.8"/>
</g>
<!-- Node24 -->
<g id="node24" class="node">
<title>Node24</title>
<g id="a_node24"><a xlink:href="_i_e_file_8hpp.html" target="_top" xlink:title=" ">
<polygon fill="white" stroke="black" points="2186.99,-63.5 2186.99,-107.5 2363.99,-107.5 2363.99,-63.5 2186.99,-63.5"/>
<text text-anchor="start" x="2194.99" y="-90.7" font-family="Source Sans Pro" font-size="16.00">Core/FileSystemModule</text>
<text text-anchor="middle" x="2275.49" y="-72.7" font-family="Source Sans Pro" font-size="16.00">/IEFile.hpp</text>
</a>
</g>
</g>
<!-- Node23&#45;&gt;Node24 -->
<g id="edge51" class="edge">
<title>Node23&#45;&gt;Node24</title>
<path fill="none" stroke="midnightblue" d="M2089.83,-228.62C2121.1,-219.82 2155.34,-207.09 2183.49,-189 2213.1,-169.97 2239.08,-138.94 2255.81,-116"/>
<polygon fill="midnightblue" stroke="midnightblue" points="2258.81,-117.82 2261.76,-107.64 2253.11,-113.76 2258.81,-117.82"/>
</g>
<!-- Node24&#45;&gt;Node5 -->
<g id="edge52" class="edge">
<title>Node24&#45;&gt;Node5</title>
<path fill="none" stroke="midnightblue" d="M2186.88,-79.62C1934.79,-65.74 1220.54,-26.4 1044.22,-16.69"/>
<polygon fill="midnightblue" stroke="midnightblue" points="1044.27,-13.19 1034.09,-16.13 1043.88,-20.17 1044.27,-13.19"/>
</g>
<!-- Node24&#45;&gt;Node7 -->
<g id="edge53" class="edge">
<title>Node24&#45;&gt;Node7</title>
<path fill="none" stroke="midnightblue" d="M2186.77,-65.75C2182.28,-64.81 2177.83,-63.89 2173.49,-63 2101.64,-48.2 2017.63,-31.41 1970.18,-21.97"/>
<polygon fill="midnightblue" stroke="midnightblue" points="1970.83,-18.53 1960.34,-20.02 1969.47,-25.4 1970.83,-18.53"/>
</g>
<!-- Node25 -->
<g id="node25" class="node">
<title>Node25</title>
<g id="a_node25"><a xlink:title=" ">
<polygon fill="white" stroke="#bfbfbf" points="2098.99,-0.5 2098.99,-26.5 2183.99,-26.5 2183.99,-0.5 2098.99,-0.5"/>
<text text-anchor="middle" x="2141.49" y="-9.7" font-family="Source Sans Pro" font-size="16.00">filesystem</text>
</a>
</g>
</g>
<!-- Node24&#45;&gt;Node25 -->
<g id="edge54" class="edge">
<title>Node24&#45;&gt;Node25</title>
<path fill="none" stroke="midnightblue" d="M2235.29,-63.5C2215.5,-53.16 2191.99,-40.88 2173.45,-31.19"/>
<polygon fill="midnightblue" stroke="midnightblue" points="2175.01,-28.06 2164.52,-26.53 2171.77,-34.26 2175.01,-28.06"/>
</g>
<!-- Node26 -->
<g id="node26" class="node">
<title>Node26</title>
<g id="a_node26"><a xlink:title=" ">
<polygon fill="white" stroke="#bfbfbf" points="2202.49,-0.5 2202.49,-26.5 2270.49,-26.5 2270.49,-0.5 2202.49,-0.5"/>
<text text-anchor="middle" x="2236.49" y="-9.7" font-family="Source Sans Pro" font-size="16.00">fstream</text>
</a>
</g>
</g>
<!-- Node24&#45;&gt;Node26 -->
<g id="edge55" class="edge">
<title>Node24&#45;&gt;Node26</title>
<path fill="none" stroke="midnightblue" d="M2263.79,-63.5C2258.85,-54.63 2253.1,-44.32 2248.16,-35.45"/>
<polygon fill="midnightblue" stroke="midnightblue" points="2251.12,-33.56 2243.2,-26.53 2245,-36.97 2251.12,-33.56"/>
</g>
<!-- Node27 -->
<g id="node27" class="node">
<title>Node27</title>
<g id="a_node27"><a xlink:title=" ">
<polygon fill="white" stroke="#bfbfbf" points="2288.49,-0.5 2288.49,-26.5 2340.49,-26.5 2340.49,-0.5 2288.49,-0.5"/>
<text text-anchor="middle" x="2314.49" y="-9.7" font-family="Source Sans Pro" font-size="16.00">regex</text>
</a>
</g>
</g>
<!-- Node24&#45;&gt;Node27 -->
<g id="edge56" class="edge">
<title>Node24&#45;&gt;Node27</title>
<path fill="none" stroke="midnightblue" d="M2287.19,-63.5C2292.14,-54.63 2297.88,-44.32 2302.82,-35.45"/>
<polygon fill="midnightblue" stroke="midnightblue" points="2305.98,-36.97 2307.79,-26.53 2299.86,-33.56 2305.98,-36.97"/>
</g>
<!-- Node28 -->
<g id="node28" class="node">
<title>Node28</title>
<g id="a_node28"><a xlink:title=" ">
<polygon fill="white" stroke="#bfbfbf" points="2358.49,-0.5 2358.49,-26.5 2434.49,-26.5 2434.49,-0.5 2358.49,-0.5"/>
<text text-anchor="middle" x="2396.49" y="-9.7" font-family="Source Sans Pro" font-size="16.00">iostream</text>
</a>
</g>
</g>
<!-- Node24&#45;&gt;Node28 -->
<g id="edge57" class="edge">
<title>Node24&#45;&gt;Node28</title>
<path fill="none" stroke="midnightblue" d="M2311.8,-63.5C2329.42,-53.3 2350.32,-41.21 2366.94,-31.59"/>
<polygon fill="midnightblue" stroke="midnightblue" points="2368.79,-34.57 2375.7,-26.53 2365.29,-28.51 2368.79,-34.57"/>
</g>
<!-- Node29&#45;&gt;Node5 -->
<g id="edge64" class="edge">
<title>Node29&#45;&gt;Node5</title>
<path fill="none" stroke="midnightblue" d="M504.38,-391.66C402.77,-376.18 268.14,-355.04 263.49,-351 227.45,-319.72 231.49,-296.22 231.49,-248.5 231.49,-248.5 231.49,-248.5 231.49,-165.5 231.49,-109.83 255.01,-90.36 303.49,-63 361.09,-30.5 824.1,-18.26 964.36,-15.28"/>
<polygon fill="midnightblue" stroke="midnightblue" points="964.73,-18.77 974.66,-15.06 964.59,-11.77 964.73,-18.77"/>
</g>
<!-- Node29&#45;&gt;Node6 -->
<g id="edge66" class="edge">
<title>Node29&#45;&gt;Node6</title>
<path fill="none" stroke="midnightblue" d="M723.52,-387.41C741.62,-379.03 758.18,-367.33 769.49,-351 780.88,-334.56 780.74,-322.54 769.49,-306 745.04,-270.03 708.04,-301.92 678.49,-270 639.71,-228.1 616.3,-187.31 653.49,-144 691.77,-99.42 858.52,-89.04 956.63,-86.84"/>
<polygon fill="midnightblue" stroke="midnightblue" points="956.85,-90.34 966.78,-86.64 956.71,-83.34 956.85,-90.34"/>
</g>
<!-- Node29&#45;&gt;Node8 -->
<g id="edge65" class="edge">
<title>Node29&#45;&gt;Node8</title>
<path fill="none" stroke="midnightblue" d="M504.28,-392.31C412.13,-378.47 295.63,-359.49 288.49,-351 227.27,-278.11 300.63,-155.59 334.31,-107.12"/>
<polygon fill="midnightblue" stroke="midnightblue" points="337.35,-108.89 340.28,-98.71 331.64,-104.84 337.35,-108.89"/>
</g>
<!-- Node30 -->
<g id="node30" class="node">
<title>Node30</title>
<g id="a_node30"><a xlink:href="_i_e_buffer_memory_barrier_8hpp.html" target="_top" xlink:title=" ">
<polygon fill="white" stroke="black" points="297.99,-315.5 297.99,-341.5 500.99,-341.5 500.99,-315.5 297.99,-315.5"/>
<text text-anchor="middle" x="399.49" y="-324.7" font-family="Source Sans Pro" font-size="16.00">IEBufferMemoryBarrier.hpp</text>
</a>
</g>
</g>
<!-- Node29&#45;&gt;Node30 -->
<g id="edge67" class="edge">
<title>Node29&#45;&gt;Node30</title>
<path fill="none" stroke="midnightblue" d="M558.63,-387.43C521.94,-374.08 475.31,-357.1 442.02,-344.98"/>
<polygon fill="midnightblue" stroke="midnightblue" points="443.17,-341.68 432.58,-341.55 440.78,-348.26 443.17,-341.68"/>
</g>
<!-- Node31 -->
<g id="node31" class="node">
<title>Node31</title>
<g id="a_node31"><a xlink:href="_i_e_image_memory_barrier_8hpp.html" target="_top" xlink:title=" ">
<polygon fill="white" stroke="black" points="557.99,-315.5 557.99,-341.5 760.99,-341.5 760.99,-315.5 557.99,-315.5"/>
<text text-anchor="middle" x="659.49" y="-324.7" font-family="Source Sans Pro" font-size="16.00">IEImageMemoryBarrier.hpp</text>
</a>
</g>
</g>
<!-- Node29&#45;&gt;Node31 -->
<g id="edge71" class="edge">
<title>Node29&#45;&gt;Node31</title>
<path fill="none" stroke="midnightblue" d="M628.02,-387.33C634.23,-375.9 641.89,-361.85 648.09,-350.46"/>
<polygon fill="midnightblue" stroke="midnightblue" points="651.18,-352.08 652.89,-341.63 645.04,-348.74 651.18,-352.08"/>
</g>
<!-- Node30&#45;&gt;Node6 -->
<g id="edge68" class="edge">
<title>Node30&#45;&gt;Node6</title>
<path fill="none" stroke="midnightblue" d="M402.06,-315.48C409.95,-281.79 437.25,-186.16 500.49,-144 573.56,-95.3 829.82,-87.22 956.9,-86.29"/>
<polygon fill="midnightblue" stroke="midnightblue" points="956.96,-89.79 966.94,-86.23 956.92,-82.79 956.96,-89.79"/>
</g>
<!-- Node30&#45;&gt;Node8 -->
<g id="edge69" class="edge">
<title>Node30&#45;&gt;Node8</title>
<path fill="none" stroke="midnightblue" d="M381.65,-315.4C368.05,-305.08 350.22,-288.93 341.49,-270 316.82,-216.46 331.95,-144.55 342.27,-108.72"/>
<polygon fill="midnightblue" stroke="midnightblue" points="345.72,-109.41 345.27,-98.82 339.02,-107.38 345.72,-109.41"/>
</g>
<!-- Node30&#45;&gt;Node20 -->
<g id="edge70" class="edge">
<title>Node30&#45;&gt;Node20</title>
<path fill="none" stroke="midnightblue" d="M482.63,-315.46C504.08,-312.36 527.15,-309.05 548.49,-306 660.39,-290.02 789.63,-271.8 871.91,-260.23"/>
<polygon fill="midnightblue" stroke="midnightblue" points="872.54,-263.68 881.96,-258.82 871.57,-256.75 872.54,-263.68"/>
</g>
<!-- Node31&#45;&gt;Node3 -->
<g id="edge74" class="edge">
<title>Node31&#45;&gt;Node3</title>
<path fill="none" stroke="midnightblue" d="M737.5,-315.48C760.35,-312.17 785.39,-308.73 808.49,-306 993.34,-284.12 1209.98,-265.7 1332.35,-255.95"/>
<polygon fill="midnightblue" stroke="midnightblue" points="1332.75,-259.43 1342.44,-255.15 1332.19,-252.45 1332.75,-259.43"/>
</g>
<!-- Node31&#45;&gt;Node6 -->
<g id="edge73" class="edge">
<title>Node31&#45;&gt;Node6</title>
<path fill="none" stroke="midnightblue" d="M607.89,-315.48C582.8,-306.95 554.45,-292.84 537.49,-270 503.96,-224.84 488.04,-185.97 525.49,-144 553.67,-112.42 823.74,-95.84 956.52,-89.55"/>
<polygon fill="midnightblue" stroke="midnightblue" points="956.79,-93.04 966.61,-89.08 956.46,-86.05 956.79,-93.04"/>
</g>
<!-- Node31&#45;&gt;Node8 -->
<g id="edge72" class="edge">
<title>Node31&#45;&gt;Node8</title>
<path fill="none" stroke="midnightblue" d="M601.18,-315.44C551.06,-304.22 483.5,-286.74 461.49,-270 405.28,-227.25 370.98,-147.45 356.91,-108.72"/>
<polygon fill="midnightblue" stroke="midnightblue" points="360.09,-107.23 353.47,-98.95 353.49,-109.55 360.09,-107.23"/>
</g>
<!-- Node32&#45;&gt;Node3 -->
<g id="edge79" class="edge">
<title>Node32&#45;&gt;Node3</title>
<path fill="none" stroke="midnightblue" d="M1080.85,-306.49C1159.73,-293.37 1259.72,-276.74 1332.38,-264.65"/>
<polygon fill="midnightblue" stroke="midnightblue" points="1333.15,-268.07 1342.44,-262.98 1332.01,-261.17 1333.15,-268.07"/>
</g>
<!-- Node32&#45;&gt;Node6 -->
<g id="edge77" class="edge">
<title>Node32&#45;&gt;Node6</title>
<path fill="none" stroke="midnightblue" d="M864.12,-306.4C758.79,-277.68 606.97,-220.93 672.49,-144 708.25,-102.02 863.03,-90.58 956.65,-87.53"/>
<polygon fill="midnightblue" stroke="midnightblue" points="957.02,-91.02 966.91,-87.22 956.81,-84.03 957.02,-91.02"/>
</g>
<!-- Node32&#45;&gt;Node8 -->
<g id="edge76" class="edge">
<title>Node32&#45;&gt;Node8</title>
<path fill="none" stroke="midnightblue" d="M817.76,-307.51C772.59,-298.68 722.63,-286.47 678.49,-270 558.3,-225.16 429.14,-141.3 375.32,-104.55"/>
<polygon fill="midnightblue" stroke="midnightblue" points="376.98,-101.44 366.75,-98.66 373.01,-107.2 376.98,-101.44"/>
</g>
<!-- Node32&#45;&gt;Node20 -->
<g id="edge78" class="edge">
<title>Node32&#45;&gt;Node20</title>
<path fill="none" stroke="midnightblue" d="M954.76,-306.33C954.9,-295.36 955.07,-281.97 955.21,-270.83"/>
<polygon fill="midnightblue" stroke="midnightblue" points="958.71,-270.67 955.34,-260.63 951.71,-270.58 958.71,-270.67"/>
</g>
<!-- Node33&#45;&gt;Node2 -->
<g id="edge82" class="edge">
<title>Node33&#45;&gt;Node2</title>
<path fill="none" stroke="midnightblue" d="M1356.89,-387.43C1410.47,-373.74 1478.96,-356.22 1526.55,-344.06"/>
<polygon fill="midnightblue" stroke="midnightblue" points="1527.55,-347.41 1536.38,-341.55 1525.82,-340.63 1527.55,-347.41"/>
</g>
<!-- Node33&#45;&gt;Node8 -->
<g id="edge81" class="edge">
<title>Node33&#45;&gt;Node8</title>
<path fill="none" stroke="midnightblue" d="M1146.43,-403.62C952.27,-395.43 600.37,-377.21 548.49,-351 524.87,-339.06 531.19,-321.15 509.49,-306 472.47,-280.15 448.78,-299.37 414.49,-270 383.05,-243.07 382.68,-227.89 368.49,-189 358.76,-162.34 353.82,-129.88 351.46,-108.73"/>
<polygon fill="midnightblue" stroke="midnightblue" points="354.91,-108.12 350.42,-98.52 347.95,-108.82 354.91,-108.12"/>
</g>
</g>
</svg>
