<?xml version="1.0" encoding="UTF-8" standalone="no"?>
<!DOCTYPE svg PUBLIC "-//W3C//DTD SVG 1.1//EN"
 "http://www.w3.org/Graphics/SVG/1.1/DTD/svg11.dtd">
<!-- Generated by graphviz version 2.43.0 (0)
 -->
<!-- Title: Illumination&#45;Engine/src/Core/FileSystemModule/IEDirectory.hpp Pages: 1 -->
<svg width="723pt" height="278pt"
 viewBox="0.00 0.00 722.50 278.00" xmlns="http://www.w3.org/2000/svg" xmlns:xlink="http://www.w3.org/1999/xlink">
<g id="graph0" class="graph" transform="scale(1 1) rotate(0) translate(4 274)">
<title>Illumination&#45;Engine/src/Core/FileSystemModule/IEDirectory.hpp</title>
<polygon fill="white" stroke="transparent" points="-4,4 -4,-274 718.5,-274 718.5,4 -4,4"/>
<!-- Node1 -->
<g id="node1" class="node">
<title>Node1</title>
<g id="a_node1"><a xlink:title=" ">
<polygon fill="#bfbfbf" stroke="black" points="282,-207.5 282,-269.5 489,-269.5 489,-207.5 282,-207.5"/>
<text text-anchor="start" x="290" y="-252.7" font-family="Source Sans Pro" font-size="16.00">Illumination&#45;Engine</text>
<text text-anchor="start" x="290" y="-234.7" font-family="Source Sans Pro" font-size="16.00">/src/Core/FileSystemModule</text>
<text text-anchor="middle" x="385.5" y="-216.7" font-family="Source Sans Pro" font-size="16.00">/IEDirectory.hpp</text>
</a>
</g>
</g>
<!-- Node2 -->
<g id="node2" class="node">
<title>Node2</title>
<g id="a_node2"><a xlink:href="_i_e_file_8hpp.html" target="_top" xlink:title=" ">
<polygon fill="white" stroke="black" points="343.5,-144.5 343.5,-170.5 427.5,-170.5 427.5,-144.5 343.5,-144.5"/>
<text text-anchor="middle" x="385.5" y="-153.7" font-family="Source Sans Pro" font-size="16.00">IEFile.hpp</text>
</a>
</g>
</g>
<!-- Node1&#45;&gt;Node2 -->
<g id="edge1" class="edge">
<title>Node1&#45;&gt;Node2</title>
<path fill="none" stroke="midnightblue" d="M385.5,-207.18C385.5,-198.45 385.5,-189.08 385.5,-180.91"/>
<polygon fill="midnightblue" stroke="midnightblue" points="389,-180.7 385.5,-170.7 382,-180.7 389,-180.7"/>
</g>
<!-- Node7 -->
<g id="node7" class="node">
<title>Node7</title>
<g id="a_node7"><a xlink:title=" ">
<polygon fill="white" stroke="#bfbfbf" points="22,-81.5 22,-107.5 81,-107.5 81,-81.5 22,-81.5"/>
<text text-anchor="middle" x="51.5" y="-90.7" font-family="Source Sans Pro" font-size="16.00">vector</text>
</a>
</g>
</g>
<!-- Node1&#45;&gt;Node7 -->
<g id="edge12" class="edge">
<title>Node1&#45;&gt;Node7</title>
<path fill="none" stroke="midnightblue" d="M314.67,-207.39C245.84,-178.12 143.96,-134.81 89.35,-111.59"/>
<polygon fill="midnightblue" stroke="midnightblue" points="90.61,-108.33 80.04,-107.63 87.87,-114.77 90.61,-108.33"/>
</g>
<!-- Node12 -->
<g id="node12" class="node">
<title>Node12</title>
<g id="a_node12"><a xlink:title=" ">
<polygon fill="white" stroke="#bfbfbf" points="445.5,-144.5 445.5,-170.5 531.5,-170.5 531.5,-144.5 445.5,-144.5"/>
<text text-anchor="middle" x="488.5" y="-153.7" font-family="Source Sans Pro" font-size="16.00">functional</text>
</a>
</g>
</g>
<!-- Node1&#45;&gt;Node12 -->
<g id="edge13" class="edge">
<title>Node1&#45;&gt;Node12</title>
<path fill="none" stroke="midnightblue" d="M424.73,-207.41C438.18,-197.09 452.82,-185.87 464.67,-176.78"/>
<polygon fill="midnightblue" stroke="midnightblue" points="466.95,-179.44 472.75,-170.58 462.69,-173.89 466.95,-179.44"/>
</g>
<!-- Node3 -->
<g id="node3" class="node">
<title>Node3</title>
<g id="a_node3"><a xlink:href="_i_e_logger_8hpp.html" target="_top" xlink:title=" ">
<polygon fill="white" stroke="black" points="99,-81.5 99,-107.5 322,-107.5 322,-81.5 99,-81.5"/>
<text text-anchor="middle" x="210.5" y="-90.7" font-family="Source Sans Pro" font-size="16.00">Core/LogModule/IELogger.hpp</text>
</a>
</g>
</g>
<!-- Node2&#45;&gt;Node3 -->
<g id="edge2" class="edge">
<title>Node2&#45;&gt;Node3</title>
<path fill="none" stroke="midnightblue" d="M350.93,-144.45C323.36,-134.84 284.57,-121.32 254.75,-110.92"/>
<polygon fill="midnightblue" stroke="midnightblue" points="255.6,-107.51 245,-107.53 253.29,-114.12 255.6,-107.51"/>
</g>
<!-- Node6 -->
<g id="node6" class="node">
<title>Node6</title>
<g id="a_node6"><a xlink:title=" ">
<polygon fill="white" stroke="#bfbfbf" points="317,-9.5 317,-35.5 372,-35.5 372,-9.5 317,-9.5"/>
<text text-anchor="middle" x="344.5" y="-18.7" font-family="Source Sans Pro" font-size="16.00">string</text>
</a>
</g>
</g>
<!-- Node2&#45;&gt;Node6 -->
<g id="edge7" class="edge">
<title>Node2&#45;&gt;Node6</title>
<path fill="none" stroke="midnightblue" d="M381.67,-144.14C378.64,-134.34 374.29,-120.3 370.5,-108 363.91,-86.62 356.39,-62.2 351.14,-45.12"/>
<polygon fill="midnightblue" stroke="midnightblue" points="354.48,-44.07 348.2,-35.54 347.79,-46.12 354.48,-44.07"/>
</g>
<!-- Node2&#45;&gt;Node7 -->
<g id="edge6" class="edge">
<title>Node2&#45;&gt;Node7</title>
<path fill="none" stroke="midnightblue" d="M343.42,-151.7C287.57,-144.86 185.82,-130.83 90.99,-108.14"/>
<polygon fill="midnightblue" stroke="midnightblue" points="91.79,-104.73 81.24,-105.77 90.13,-111.53 91.79,-104.73"/>
</g>
<!-- Node8 -->
<g id="node8" class="node">
<title>Node8</title>
<g id="a_node8"><a xlink:title=" ">
<polygon fill="white" stroke="#bfbfbf" points="379,-81.5 379,-107.5 464,-107.5 464,-81.5 379,-81.5"/>
<text text-anchor="middle" x="421.5" y="-90.7" font-family="Source Sans Pro" font-size="16.00">filesystem</text>
</a>
</g>
</g>
<!-- Node2&#45;&gt;Node8 -->
<g id="edge8" class="edge">
<title>Node2&#45;&gt;Node8</title>
<path fill="none" stroke="midnightblue" d="M392.61,-144.45C397.35,-136.43 403.69,-125.68 409.22,-116.3"/>
<polygon fill="midnightblue" stroke="midnightblue" points="412.33,-117.92 414.4,-107.53 406.31,-114.36 412.33,-117.92"/>
</g>
<!-- Node9 -->
<g id="node9" class="node">
<title>Node9</title>
<g id="a_node9"><a xlink:title=" ">
<polygon fill="white" stroke="#bfbfbf" points="482.5,-81.5 482.5,-107.5 550.5,-107.5 550.5,-81.5 482.5,-81.5"/>
<text text-anchor="middle" x="516.5" y="-90.7" font-family="Source Sans Pro" font-size="16.00">fstream</text>
</a>
</g>
</g>
<!-- Node2&#45;&gt;Node9 -->
<g id="edge9" class="edge">
<title>Node2&#45;&gt;Node9</title>
<path fill="none" stroke="midnightblue" d="M411.38,-144.45C431.39,-135.13 459.29,-122.14 481.32,-111.88"/>
<polygon fill="midnightblue" stroke="midnightblue" points="483.08,-114.92 490.67,-107.53 480.13,-108.58 483.08,-114.92"/>
</g>
<!-- Node10 -->
<g id="node10" class="node">
<title>Node10</title>
<g id="a_node10"><a xlink:title=" ">
<polygon fill="white" stroke="#bfbfbf" points="568.5,-81.5 568.5,-107.5 620.5,-107.5 620.5,-81.5 568.5,-81.5"/>
<text text-anchor="middle" x="594.5" y="-90.7" font-family="Source Sans Pro" font-size="16.00">regex</text>
</a>
</g>
</g>
<!-- Node2&#45;&gt;Node10 -->
<g id="edge10" class="edge">
<title>Node2&#45;&gt;Node10</title>
<path fill="none" stroke="midnightblue" d="M427.59,-145.67C460.84,-136.91 508.6,-123.88 558.52,-108.19"/>
<polygon fill="midnightblue" stroke="midnightblue" points="559.72,-111.48 568.19,-105.12 557.6,-104.81 559.72,-111.48"/>
</g>
<!-- Node11 -->
<g id="node11" class="node">
<title>Node11</title>
<g id="a_node11"><a xlink:title=" ">
<polygon fill="white" stroke="#bfbfbf" points="638.5,-81.5 638.5,-107.5 714.5,-107.5 714.5,-81.5 638.5,-81.5"/>
<text text-anchor="middle" x="676.5" y="-90.7" font-family="Source Sans Pro" font-size="16.00">iostream</text>
</a>
</g>
</g>
<!-- Node2&#45;&gt;Node11 -->
<g id="edge11" class="edge">
<title>Node2&#45;&gt;Node11</title>
<path fill="none" stroke="midnightblue" d="M427.76,-145.95C430.71,-145.27 433.65,-144.61 436.5,-144 518.71,-126.27 542.67,-127.14 628.43,-108.13"/>
<polygon fill="midnightblue" stroke="midnightblue" points="629.35,-111.51 638.34,-105.91 627.82,-104.68 629.35,-111.51"/>
</g>
<!-- Node4 -->
<g id="node4" class="node">
<title>Node4</title>
<g id="a_node4"><a xlink:title=" ">
<polygon fill="white" stroke="#bfbfbf" points="0,-9.5 0,-35.5 127,-35.5 127,-9.5 0,-9.5"/>
<text text-anchor="middle" x="63.5" y="-18.7" font-family="Source Sans Pro" font-size="16.00">spdlog/spdlog.h</text>
</a>
</g>
</g>
<!-- Node3&#45;&gt;Node4 -->
<g id="edge3" class="edge">
<title>Node3&#45;&gt;Node4</title>
<path fill="none" stroke="midnightblue" d="M185.23,-81.47C161.25,-70.05 125.01,-52.79 98.3,-40.07"/>
<polygon fill="midnightblue" stroke="midnightblue" points="99.47,-36.75 88.93,-35.61 96.46,-43.07 99.47,-36.75"/>
</g>
<!-- Node5 -->
<g id="node5" class="node">
<title>Node5</title>
<g id="a_node5"><a xlink:title=" ">
<polygon fill="white" stroke="#bfbfbf" points="145,-0.5 145,-44.5 288,-44.5 288,-0.5 145,-0.5"/>
<text text-anchor="start" x="153" y="-27.7" font-family="Source Sans Pro" font-size="16.00">spdlog/sinks/basic</text>
<text text-anchor="middle" x="216.5" y="-9.7" font-family="Source Sans Pro" font-size="16.00">_file_sink.h</text>
</a>
</g>
</g>
<!-- Node3&#45;&gt;Node5 -->
<g id="edge4" class="edge">
<title>Node3&#45;&gt;Node5</title>
<path fill="none" stroke="midnightblue" d="M211.55,-81.31C212.18,-73.89 213.03,-64.04 213.84,-54.58"/>
<polygon fill="midnightblue" stroke="midnightblue" points="217.32,-54.87 214.69,-44.6 210.35,-54.27 217.32,-54.87"/>
</g>
<!-- Node3&#45;&gt;Node6 -->
<g id="edge5" class="edge">
<title>Node3&#45;&gt;Node6</title>
<path fill="none" stroke="midnightblue" d="M233.54,-81.47C255.2,-70.15 287.85,-53.09 312.14,-40.41"/>
<polygon fill="midnightblue" stroke="midnightblue" points="314.07,-43.34 321.32,-35.61 310.83,-37.14 314.07,-43.34"/>
</g>
</g>
</svg>
