<?xml version="1.0" encoding="UTF-8" standalone="no"?>
<!DOCTYPE svg PUBLIC "-//W3C//DTD SVG 1.1//EN"
 "http://www.w3.org/Graphics/SVG/1.1/DTD/svg11.dtd">
<!-- Generated by graphviz version 2.43.0 (0)
 -->
<!-- Title: Illumination&#45;Engine/src/GraphicsModule/Renderable/IEVertex.hpp Pages: 1 -->
<svg width="255pt" height="134pt"
 viewBox="0.00 0.00 254.50 134.00" xmlns="http://www.w3.org/2000/svg" xmlns:xlink="http://www.w3.org/1999/xlink">
<g id="graph0" class="graph" transform="scale(1 1) rotate(0) translate(4 130)">
<title>Illumination&#45;Engine/src/GraphicsModule/Renderable/IEVertex.hpp</title>
<polygon fill="white" stroke="transparent" points="-4,4 -4,-130 250.5,-130 250.5,4 -4,4"/>
<!-- Node1 -->
<g id="node1" class="node">
<title>Node1</title>
<g id="a_node1"><a xlink:title=" ">
<polygon fill="#bfbfbf" stroke="black" points="53,-63.5 53,-125.5 243,-125.5 243,-63.5 53,-63.5"/>
<text text-anchor="start" x="61" y="-108.7" font-family="Source Sans Pro" font-size="16.00">Illumination&#45;Engine</text>
<text text-anchor="start" x="61" y="-90.7" font-family="Source Sans Pro" font-size="16.00">/src/GraphicsModule</text>
<text text-anchor="middle" x="148" y="-72.7" font-family="Source Sans Pro" font-size="16.00">/Renderable/IEVertex.hpp</text>
</a>
</g>
</g>
<!-- Node2 -->
<g id="node2" class="node">
<title>Node2</title>
<g id="a_node2"><a xlink:title=" ">
<polygon fill="white" stroke="#bfbfbf" points="0,-0.5 0,-26.5 104,-26.5 104,-0.5 0,-0.5"/>
<text text-anchor="middle" x="52" y="-9.7" font-family="Source Sans Pro" font-size="16.00">glm/glm.hpp</text>
</a>
</g>
</g>
<!-- Node1&#45;&gt;Node2 -->
<g id="edge1" class="edge">
<title>Node1&#45;&gt;Node2</title>
<path fill="none" stroke="midnightblue" d="M111.43,-63.41C99.1,-53.26 85.71,-42.24 74.76,-33.23"/>
<polygon fill="midnightblue" stroke="midnightblue" points="76.86,-30.43 66.92,-26.78 72.42,-35.83 76.86,-30.43"/>
</g>
<!-- Node3 -->
<g id="node3" class="node">
<title>Node3</title>
<g id="a_node3"><a xlink:title=" ">
<polygon fill="white" stroke="#bfbfbf" points="122.5,-0.5 122.5,-26.5 173.5,-26.5 173.5,-0.5 122.5,-0.5"/>
<text text-anchor="middle" x="148" y="-9.7" font-family="Source Sans Pro" font-size="16.00">array</text>
</a>
</g>
</g>
<!-- Node1&#45;&gt;Node3 -->
<g id="edge2" class="edge">
<title>Node1&#45;&gt;Node3</title>
<path fill="none" stroke="midnightblue" d="M148,-63.18C148,-54.45 148,-45.08 148,-36.91"/>
<polygon fill="midnightblue" stroke="midnightblue" points="151.5,-36.7 148,-26.7 144.5,-36.7 151.5,-36.7"/>
</g>
<!-- Node4 -->
<g id="node4" class="node">
<title>Node4</title>
<g id="a_node4"><a xlink:title=" ">
<polygon fill="white" stroke="#bfbfbf" points="191.5,-0.5 191.5,-26.5 246.5,-26.5 246.5,-0.5 191.5,-0.5"/>
<text text-anchor="middle" x="219" y="-9.7" font-family="Source Sans Pro" font-size="16.00">string</text>
</a>
</g>
</g>
<!-- Node1&#45;&gt;Node4 -->
<g id="edge3" class="edge">
<title>Node1&#45;&gt;Node4</title>
<path fill="none" stroke="midnightblue" d="M175.25,-63.18C183.99,-53.45 193.44,-42.94 201.31,-34.18"/>
<polygon fill="midnightblue" stroke="midnightblue" points="203.95,-36.48 208.03,-26.7 198.75,-31.8 203.95,-36.48"/>
</g>
</g>
</svg>
