<?xml version="1.0" encoding="UTF-8" standalone="no"?>
<!DOCTYPE svg PUBLIC "-//W3C//DTD SVG 1.1//EN"
 "http://www.w3.org/Graphics/SVG/1.1/DTD/svg11.dtd">
<!-- Generated by graphviz version 2.43.0 (0)
 -->
<!-- Title: Illumination&#45;Engine/src/GraphicsModule/IERenderEngine.cpp Pages: 1 -->
<svg width="3841pt" height="710pt"
 viewBox="0.00 0.00 3840.56 710.00" xmlns="http://www.w3.org/2000/svg" xmlns:xlink="http://www.w3.org/1999/xlink">
<g id="graph0" class="graph" transform="scale(1 1) rotate(0) translate(4 706)">
<title>Illumination&#45;Engine/src/GraphicsModule/IERenderEngine.cpp</title>
<polygon fill="white" stroke="transparent" points="-4,4 -4,-706 3836.56,-706 3836.56,4 -4,4"/>
<!-- Node1 -->
<g id="node1" class="node">
<title>Node1</title>
<g id="a_node1"><a xlink:title=" ">
<polygon fill="#bfbfbf" stroke="black" points="2686.03,-639.5 2686.03,-701.5 2845.03,-701.5 2845.03,-639.5 2686.03,-639.5"/>
<text text-anchor="start" x="2694.03" y="-684.7" font-family="Source Sans Pro" font-size="16.00">Illumination&#45;Engine</text>
<text text-anchor="start" x="2694.03" y="-666.7" font-family="Source Sans Pro" font-size="16.00">/src/GraphicsModule</text>
<text text-anchor="middle" x="2765.53" y="-648.7" font-family="Source Sans Pro" font-size="16.00">/IERenderEngine.cpp</text>
</a>
</g>
</g>
<!-- Node2 -->
<g id="node2" class="node">
<title>Node2</title>
<g id="a_node2"><a xlink:href="_i_e_render_engine_8hpp.html" target="_top" xlink:title=" ">
<polygon fill="white" stroke="black" points="1426.03,-576.5 1426.03,-602.5 1581.03,-602.5 1581.03,-576.5 1426.03,-576.5"/>
<text text-anchor="middle" x="1503.53" y="-585.7" font-family="Source Sans Pro" font-size="16.00">IERenderEngine.hpp</text>
</a>
</g>
</g>
<!-- Node1&#45;&gt;Node2 -->
<g id="edge1" class="edge">
<title>Node1&#45;&gt;Node2</title>
<path fill="none" stroke="midnightblue" d="M2685.63,-664.5C2460.99,-650.44 1825.07,-610.63 1591.22,-595.99"/>
<polygon fill="midnightblue" stroke="midnightblue" points="1591.26,-592.49 1581.06,-595.35 1590.82,-599.47 1591.26,-592.49"/>
</g>
<!-- Node14 -->
<g id="node14" class="node">
<title>Node14</title>
<g id="a_node14"><a xlink:title=" ">
<polygon fill="white" stroke="#bfbfbf" points="1563.03,-135.5 1563.03,-161.5 1748.03,-161.5 1748.03,-135.5 1563.03,-135.5"/>
<text text-anchor="middle" x="1655.53" y="-144.7" font-family="Source Sans Pro" font-size="16.00">include/vk_mem_alloc.h</text>
</a>
</g>
</g>
<!-- Node1&#45;&gt;Node14 -->
<g id="edge156" class="edge">
<title>Node1&#45;&gt;Node14</title>
<path fill="none" stroke="midnightblue" d="M2685.85,-666.66C2447.36,-657.1 1755.53,-621.29 1755.53,-527.5 1755.53,-527.5 1755.53,-527.5 1755.53,-381.5 1755.53,-318.25 1721.39,-310.16 1696.53,-252 1684.67,-224.26 1671.89,-191.88 1663.81,-171.06"/>
<polygon fill="midnightblue" stroke="midnightblue" points="1667.01,-169.63 1660.14,-161.57 1660.48,-172.16 1667.01,-169.63"/>
</g>
<!-- Node15 -->
<g id="node15" class="node">
<title>Node15</title>
<g id="a_node15"><a xlink:title=" ">
<polygon fill="white" stroke="#bfbfbf" points="2397.53,-135.5 2397.53,-161.5 2535.53,-161.5 2535.53,-135.5 2397.53,-135.5"/>
<text text-anchor="middle" x="2466.53" y="-144.7" font-family="Source Sans Pro" font-size="16.00">include/GL/glew.h</text>
</a>
</g>
</g>
<!-- Node1&#45;&gt;Node15 -->
<g id="edge155" class="edge">
<title>Node1&#45;&gt;Node15</title>
<path fill="none" stroke="midnightblue" d="M2742.67,-639.33C2692.96,-572.6 2573.66,-406.16 2500.53,-252 2487.87,-225.31 2477.91,-192.66 2472.13,-171.48"/>
<polygon fill="midnightblue" stroke="midnightblue" points="2475.44,-170.32 2469.49,-161.55 2468.68,-172.11 2475.44,-170.32"/>
</g>
<!-- Node28 -->
<g id="node20" class="node">
<title>Node28</title>
<g id="a_node20"><a xlink:title=" ">
<polygon fill="white" stroke="#bfbfbf" points="3564.03,-63.5 3564.03,-89.5 3649.03,-89.5 3649.03,-63.5 3564.03,-63.5"/>
<text text-anchor="middle" x="3606.53" y="-72.7" font-family="Source Sans Pro" font-size="16.00">filesystem</text>
</a>
</g>
</g>
<!-- Node1&#45;&gt;Node28 -->
<g id="edge158" class="edge">
<title>Node1&#45;&gt;Node28</title>
<path fill="none" stroke="midnightblue" d="M2845.23,-665.74C3011.05,-657.37 3388.09,-635.37 3512.53,-603 3592.14,-582.29 3681.53,-609.77 3681.53,-527.5 3681.53,-527.5 3681.53,-527.5 3681.53,-228.5 3681.53,-182.25 3686.5,-166.14 3663.53,-126 3656.65,-113.99 3645.63,-103.57 3635.1,-95.51"/>
<polygon fill="midnightblue" stroke="midnightblue" points="3637.01,-92.57 3626.85,-89.56 3632.91,-98.25 3637.01,-92.57"/>
</g>
<!-- Node19 -->
<g id="node22" class="node">
<title>Node19</title>
<g id="a_node22"><a xlink:title=" ">
<polygon fill="white" stroke="#bfbfbf" points="1189.53,-135.5 1189.53,-161.5 1289.53,-161.5 1289.53,-135.5 1189.53,-135.5"/>
<text text-anchor="middle" x="1239.53" y="-144.7" font-family="Source Sans Pro" font-size="16.00">stb_image.h</text>
</a>
</g>
</g>
<!-- Node1&#45;&gt;Node19 -->
<g id="edge157" class="edge">
<title>Node1&#45;&gt;Node19</title>
<path fill="none" stroke="midnightblue" d="M2685.93,-667.33C2341.83,-657.43 999.53,-613.31 999.53,-527.5 999.53,-527.5 999.53,-527.5 999.53,-381.5 999.53,-271.08 1132.48,-196.51 1200.47,-165.59"/>
<polygon fill="midnightblue" stroke="midnightblue" points="1201.91,-168.79 1209.62,-161.52 1199.06,-162.39 1201.91,-168.79"/>
</g>
<!-- Node37 -->
<g id="node25" class="node">
<title>Node37</title>
<g id="a_node25"><a xlink:href="_i_e_asset_8hpp.html" target="_top" xlink:title=" ">
<polygon fill="white" stroke="black" points="3004.53,-216.5 3004.53,-242.5 3228.53,-242.5 3228.53,-216.5 3004.53,-216.5"/>
<text text-anchor="middle" x="3116.53" y="-225.7" font-family="Source Sans Pro" font-size="16.00">Core/AssetModule/IEAsset.hpp</text>
</a>
</g>
</g>
<!-- Node1&#45;&gt;Node37 -->
<g id="edge150" class="edge">
<title>Node1&#45;&gt;Node37</title>
<path fill="none" stroke="midnightblue" d="M2845.46,-657.39C2960.88,-637.61 3160.53,-593.81 3160.53,-527.5 3160.53,-527.5 3160.53,-527.5 3160.53,-381.5 3160.53,-333.63 3139.89,-280.5 3126.88,-251.77"/>
<polygon fill="midnightblue" stroke="midnightblue" points="3130.04,-250.26 3122.65,-242.68 3123.69,-253.22 3130.04,-250.26"/>
</g>
<!-- Node46 -->
<g id="node35" class="node">
<title>Node46</title>
<g id="a_node35"><a xlink:href="_i_e_logger_8hpp.html" target="_top" xlink:title=" ">
<polygon fill="white" stroke="black" points="3036.03,-135.5 3036.03,-161.5 3259.03,-161.5 3259.03,-135.5 3036.03,-135.5"/>
<text text-anchor="middle" x="3147.53" y="-144.7" font-family="Source Sans Pro" font-size="16.00">Core/LogModule/IELogger.hpp</text>
</a>
</g>
</g>
<!-- Node1&#45;&gt;Node46 -->
<g id="edge153" class="edge">
<title>Node1&#45;&gt;Node46</title>
<path fill="none" stroke="midnightblue" d="M2845.23,-663C2984.28,-649.43 3256.53,-612.08 3256.53,-527.5 3256.53,-527.5 3256.53,-527.5 3256.53,-309.5 3256.53,-263.17 3263.41,-245.43 3237.53,-207 3225.44,-189.06 3205.68,-175.53 3187.75,-166.11"/>
<polygon fill="midnightblue" stroke="midnightblue" points="3189.1,-162.88 3178.59,-161.57 3185.99,-169.15 3189.1,-162.88"/>
</g>
<!-- Node48 -->
<g id="node37" class="node">
<title>Node48</title>
<g id="a_node37"><a xlink:title=" ">
<polygon fill="white" stroke="#bfbfbf" points="1025.53,-135.5 1025.53,-161.5 1133.53,-161.5 1133.53,-135.5 1025.53,-135.5"/>
<text text-anchor="middle" x="1079.53" y="-144.7" font-family="Source Sans Pro" font-size="16.00">GLFW/glfw3.h</text>
</a>
</g>
</g>
<!-- Node1&#45;&gt;Node48 -->
<g id="edge154" class="edge">
<title>Node1&#45;&gt;Node48</title>
<path fill="none" stroke="midnightblue" d="M2685.75,-669.64C2234.82,-669.93 25.53,-664.37 25.53,-527.5 25.53,-527.5 25.53,-527.5 25.53,-453.5 25.53,-295.15 45.57,-353.36 704.53,-207 812.45,-183.03 940.07,-165.77 1015.15,-156.73"/>
<polygon fill="midnightblue" stroke="midnightblue" points="1015.88,-160.17 1025.39,-155.51 1015.05,-153.22 1015.88,-160.17"/>
</g>
<!-- Node52 -->
<g id="node41" class="node">
<title>Node52</title>
<g id="a_node41"><a xlink:href="_i_e_renderable_8hpp.html" target="_top" xlink:title=" ">
<polygon fill="white" stroke="black" points="1797.03,-513.5 1797.03,-539.5 2018.03,-539.5 2018.03,-513.5 1797.03,-513.5"/>
<text text-anchor="middle" x="1907.53" y="-522.7" font-family="Source Sans Pro" font-size="16.00">Renderable/IERenderable.hpp</text>
</a>
</g>
</g>
<!-- Node1&#45;&gt;Node52 -->
<g id="edge149" class="edge">
<title>Node1&#45;&gt;Node52</title>
<path fill="none" stroke="midnightblue" d="M2685.96,-656.33C2523.6,-629.46 2155.55,-568.55 1990.42,-541.22"/>
<polygon fill="midnightblue" stroke="midnightblue" points="1990.76,-537.73 1980.32,-539.55 1989.61,-544.63 1990.76,-537.73"/>
</g>
<!-- Node64 -->
<g id="node50" class="node">
<title>Node64</title>
<g id="a_node50"><a xlink:href="_i_e_window_user_8hpp.html" target="_top" xlink:title=" ">
<polygon fill="white" stroke="black" points="3322.03,-576.5 3322.03,-602.5 3503.03,-602.5 3503.03,-576.5 3322.03,-576.5"/>
<text text-anchor="middle" x="3412.53" y="-585.7" font-family="Source Sans Pro" font-size="16.00">Core/IEWindowUser.hpp</text>
</a>
</g>
</g>
<!-- Node1&#45;&gt;Node64 -->
<g id="edge151" class="edge">
<title>Node1&#45;&gt;Node64</title>
<path fill="none" stroke="midnightblue" d="M2845.19,-659.77C2962.84,-645.41 3182.99,-618.53 3311.72,-602.81"/>
<polygon fill="midnightblue" stroke="midnightblue" points="3312.47,-606.24 3321.98,-601.56 3311.62,-599.29 3312.47,-606.24"/>
</g>
<!-- Node3 -->
<g id="node3" class="node">
<title>Node3</title>
<g id="a_node3"><a xlink:href="_i_e_command_pool_8hpp.html" target="_top" xlink:title=" ">
<polygon fill="white" stroke="black" points="63.53,-441.5 63.53,-467.5 343.53,-467.5 343.53,-441.5 63.53,-441.5"/>
<text text-anchor="middle" x="203.53" y="-450.7" font-family="Source Sans Pro" font-size="16.00">CommandBuffer/IECommandPool.hpp</text>
</a>
</g>
</g>
<!-- Node2&#45;&gt;Node3 -->
<g id="edge2" class="edge">
<title>Node2&#45;&gt;Node3</title>
<path fill="none" stroke="midnightblue" d="M1425.91,-586.85C1224.82,-582.23 690.46,-567.65 515.53,-540 418.39,-524.65 308.04,-490.72 248.08,-470.84"/>
<polygon fill="midnightblue" stroke="midnightblue" points="249.14,-467.5 238.55,-467.65 246.93,-474.14 249.14,-467.5"/>
</g>
<!-- Node8 -->
<g id="node8" class="node">
<title>Node8</title>
<g id="a_node8"><a xlink:title=" ">
<polygon fill="white" stroke="#bfbfbf" points="3147.03,-0.5 3147.03,-26.5 3202.03,-26.5 3202.03,-0.5 3147.03,-0.5"/>
<text text-anchor="middle" x="3174.53" y="-9.7" font-family="Source Sans Pro" font-size="16.00">string</text>
</a>
</g>
</g>
<!-- Node2&#45;&gt;Node8 -->
<g id="edge147" class="edge">
<title>Node2&#45;&gt;Node8</title>
<path fill="none" stroke="midnightblue" d="M1581.11,-585.57C1884.03,-573.64 2970.53,-525.93 2970.53,-455.5 2970.53,-455.5 2970.53,-455.5 2970.53,-381.5 2970.53,-300.7 2958.1,-278 2919.53,-207 2909.45,-188.45 2895.88,-190.79 2888.53,-171 2881.57,-152.25 2880.33,-144.24 2888.53,-126 2930.22,-33.26 3068.63,-16.82 3136.43,-14.47"/>
<polygon fill="midnightblue" stroke="midnightblue" points="3136.77,-17.96 3146.68,-14.2 3136.59,-10.96 3136.77,-17.96"/>
</g>
<!-- Node9 -->
<g id="node9" class="node">
<title>Node9</title>
<g id="a_node9"><a xlink:title=" ">
<polygon fill="white" stroke="#bfbfbf" points="1180.03,-0.5 1180.03,-26.5 1239.03,-26.5 1239.03,-0.5 1180.03,-0.5"/>
<text text-anchor="middle" x="1209.53" y="-9.7" font-family="Source Sans Pro" font-size="16.00">vector</text>
</a>
</g>
</g>
<!-- Node2&#45;&gt;Node9 -->
<g id="edge148" class="edge">
<title>Node2&#45;&gt;Node9</title>
<path fill="none" stroke="midnightblue" d="M1426.02,-588.85C1138.17,-589.31 142.65,-583.18 54.53,-477 -46.32,-355.49 5.09,-244.43 109.53,-126 158.17,-70.84 190.77,-79.11 262.53,-63 439.37,-23.29 1012.6,-16.01 1169.5,-14.75"/>
<polygon fill="midnightblue" stroke="midnightblue" points="1169.68,-18.25 1179.65,-14.67 1169.62,-11.25 1169.68,-18.25"/>
</g>
<!-- Node10 -->
<g id="node10" class="node">
<title>Node10</title>
<g id="a_node10"><a xlink:title=" ">
<polygon fill="white" stroke="#bfbfbf" points="950.03,-63.5 950.03,-89.5 1075.03,-89.5 1075.03,-63.5 950.03,-63.5"/>
<text text-anchor="middle" x="1012.53" y="-72.7" font-family="Source Sans Pro" font-size="16.00">vulkan/vulkan.h</text>
</a>
</g>
</g>
<!-- Node2&#45;&gt;Node10 -->
<g id="edge145" class="edge">
<title>Node2&#45;&gt;Node10</title>
<path fill="none" stroke="midnightblue" d="M1425.79,-582.4C1293.21,-569.84 1037.53,-535.27 1037.53,-455.5 1037.53,-455.5 1037.53,-455.5 1037.53,-381.5 1037.53,-222.7 848.47,-319.06 704.53,-252 655.75,-229.27 636.42,-220.16 614.53,-171 606.39,-152.73 601.27,-140.97 614.53,-126 635.68,-102.11 830.66,-87.57 939.65,-81.23"/>
<polygon fill="midnightblue" stroke="midnightblue" points="940.13,-84.71 949.92,-80.64 939.73,-77.72 940.13,-84.71"/>
</g>
<!-- Node11 -->
<g id="node11" class="node">
<title>Node11</title>
<g id="a_node11"><a xlink:href="_i_e_a_p_i_8hpp.html" target="_top" xlink:title=" ">
<polygon fill="white" stroke="black" points="2182.03,-135.5 2182.03,-161.5 2265.03,-161.5 2265.03,-135.5 2182.03,-135.5"/>
<text text-anchor="middle" x="2223.53" y="-144.7" font-family="Source Sans Pro" font-size="16.00">IEAPI.hpp</text>
</a>
</g>
</g>
<!-- Node2&#45;&gt;Node11 -->
<g id="edge78" class="edge">
<title>Node2&#45;&gt;Node11</title>
<path fill="none" stroke="midnightblue" d="M1519.11,-576.31C1573.22,-533.77 1757.24,-387.06 1896.53,-252 1915.95,-233.17 1913.87,-220.12 1937.53,-207 2015.37,-163.84 2047.46,-189.46 2134.53,-171 2146.68,-168.42 2159.7,-165.42 2171.93,-162.49"/>
<polygon fill="midnightblue" stroke="midnightblue" points="2173.09,-165.81 2181.98,-160.05 2171.44,-159 2173.09,-165.81"/>
</g>
<!-- Node36 -->
<g id="node24" class="node">
<title>Node36</title>
<g id="a_node24"><a xlink:title=" ">
<polygon fill="white" stroke="#bfbfbf" points="168.03,-369.5 168.03,-395.5 281.03,-395.5 281.03,-369.5 168.03,-369.5"/>
<text text-anchor="middle" x="224.53" y="-378.7" font-family="Source Sans Pro" font-size="16.00">VkBootstrap.h</text>
</a>
</g>
</g>
<!-- Node2&#45;&gt;Node36 -->
<g id="edge144" class="edge">
<title>Node2&#45;&gt;Node36</title>
<path fill="none" stroke="midnightblue" d="M1425.59,-588.63C1308.72,-587.42 1081.71,-579.55 893.53,-540 810.17,-522.48 783.03,-524.8 712.53,-477 690.62,-462.15 697.05,-444.12 673.53,-432 598.52,-393.35 379.14,-407.32 295.53,-396 294.05,-395.8 292.57,-395.59 291.06,-395.38"/>
<polygon fill="midnightblue" stroke="midnightblue" points="291.46,-391.9 281.05,-393.87 290.41,-398.82 291.46,-391.9"/>
</g>
<!-- Node2&#45;&gt;Node37 -->
<g id="edge56" class="edge">
<title>Node2&#45;&gt;Node37</title>
<path fill="none" stroke="midnightblue" d="M1581.2,-588.26C1877.93,-587.03 2926.25,-579.89 2984.53,-540 3084.39,-471.65 3109.07,-311.27 3114.85,-252.54"/>
<polygon fill="midnightblue" stroke="midnightblue" points="3118.34,-252.78 3115.75,-242.51 3111.37,-252.16 3118.34,-252.78"/>
</g>
<!-- Node39 -->
<g id="node27" class="node">
<title>Node39</title>
<g id="a_node27"><a xlink:title=" ">
<polygon fill="white" stroke="#bfbfbf" points="2897.53,-135.5 2897.53,-161.5 2979.53,-161.5 2979.53,-135.5 2897.53,-135.5"/>
<text text-anchor="middle" x="2938.53" y="-144.7" font-family="Source Sans Pro" font-size="16.00">algorithm</text>
</a>
</g>
</g>
<!-- Node2&#45;&gt;Node39 -->
<g id="edge146" class="edge">
<title>Node2&#45;&gt;Node39</title>
<path fill="none" stroke="midnightblue" d="M1581.28,-588.31C1743.74,-585.95 2129.57,-570.07 2436.53,-477 2663.16,-408.29 2774.51,-439.22 2919.53,-252 2937.35,-228.99 2940.28,-194.44 2939.99,-171.93"/>
<polygon fill="midnightblue" stroke="midnightblue" points="2943.48,-171.53 2939.63,-161.66 2936.49,-171.78 2943.48,-171.53"/>
</g>
<!-- Node24 -->
<g id="node29" class="node">
<title>Node24</title>
<g id="a_node29"><a xlink:href="_i_e_framebuffer_8hpp.html" target="_top" xlink:title=" ">
<polygon fill="white" stroke="black" points="741.03,-288.5 741.03,-332.5 952.03,-332.5 952.03,-288.5 741.03,-288.5"/>
<text text-anchor="start" x="749.03" y="-315.7" font-family="Source Sans Pro" font-size="16.00">GraphicsModule/RenderPass</text>
<text text-anchor="middle" x="846.53" y="-297.7" font-family="Source Sans Pro" font-size="16.00">/IEFramebuffer.hpp</text>
</a>
</g>
</g>
<!-- Node2&#45;&gt;Node24 -->
<g id="edge66" class="edge">
<title>Node2&#45;&gt;Node24</title>
<path fill="none" stroke="midnightblue" d="M1425.94,-588.12C1308.05,-586.32 1090.45,-577.78 1023.53,-540 971.28,-510.5 979.22,-479.47 942.53,-432 918.23,-400.58 889.82,-365.06 870.25,-340.78"/>
<polygon fill="midnightblue" stroke="midnightblue" points="872.72,-338.27 863.71,-332.68 867.27,-342.66 872.72,-338.27"/>
</g>
<!-- Node41 -->
<g id="node30" class="node">
<title>Node41</title>
<g id="a_node30"><a xlink:href="_i_e_render_pass_8hpp.html" target="_top" xlink:title=" ">
<polygon fill="white" stroke="black" points="722.03,-432.5 722.03,-476.5 933.03,-476.5 933.03,-432.5 722.03,-432.5"/>
<text text-anchor="start" x="730.03" y="-459.7" font-family="Source Sans Pro" font-size="16.00">GraphicsModule/RenderPass</text>
<text text-anchor="middle" x="827.53" y="-441.7" font-family="Source Sans Pro" font-size="16.00">/IERenderPass.hpp</text>
</a>
</g>
</g>
<!-- Node2&#45;&gt;Node41 -->
<g id="edge71" class="edge">
<title>Node2&#45;&gt;Node41</title>
<path fill="none" stroke="midnightblue" d="M1425.84,-586.7C1294.21,-582.82 1033.31,-571.34 947.53,-540 913.49,-527.56 880.23,-502.86 857.39,-483.36"/>
<polygon fill="midnightblue" stroke="midnightblue" points="859.6,-480.65 849.77,-476.71 855,-485.92 859.6,-480.65"/>
</g>
<!-- Node42 -->
<g id="node31" class="node">
<title>Node42</title>
<g id="a_node31"><a xlink:href="_i_e_camera_8hpp.html" target="_top" xlink:title=" ">
<polygon fill="white" stroke="black" points="525.03,-513.5 525.03,-539.5 638.03,-539.5 638.03,-513.5 525.03,-513.5"/>
<text text-anchor="middle" x="581.53" y="-522.7" font-family="Source Sans Pro" font-size="16.00">IECamera.hpp</text>
</a>
</g>
</g>
<!-- Node2&#45;&gt;Node42 -->
<g id="edge79" class="edge">
<title>Node2&#45;&gt;Node42</title>
<path fill="none" stroke="midnightblue" d="M1425.86,-585.69C1279.58,-580.01 953.31,-565.49 679.53,-540 669.37,-539.05 658.64,-537.87 648.15,-536.62"/>
<polygon fill="midnightblue" stroke="midnightblue" points="648.55,-533.14 638.2,-535.39 647.7,-540.09 648.55,-533.14"/>
</g>
<!-- Node45 -->
<g id="node34" class="node">
<title>Node45</title>
<g id="a_node34"><a xlink:href="_i_e_settings_8hpp.html" target="_top" xlink:title=" ">
<polygon fill="white" stroke="black" points="1946.53,-216.5 1946.53,-242.5 2060.53,-242.5 2060.53,-216.5 1946.53,-216.5"/>
<text text-anchor="middle" x="2003.53" y="-225.7" font-family="Source Sans Pro" font-size="16.00">IESettings.hpp</text>
</a>
</g>
</g>
<!-- Node2&#45;&gt;Node45 -->
<g id="edge83" class="edge">
<title>Node2&#45;&gt;Node45</title>
<path fill="none" stroke="midnightblue" d="M1503.53,-576.4C1503.53,-553.03 1503.53,-500.06 1503.53,-455.5 1503.53,-455.5 1503.53,-455.5 1503.53,-381.5 1503.53,-339 1491.81,-316.28 1523.53,-288 1585.68,-232.58 1814.15,-264.22 1896.53,-252 1910.4,-249.94 1925.2,-247.28 1939.23,-244.53"/>
<polygon fill="midnightblue" stroke="midnightblue" points="1940.16,-247.91 1949.28,-242.52 1938.79,-241.04 1940.16,-247.91"/>
</g>
<!-- Node50 -->
<g id="node39" class="node">
<title>Node50</title>
<g id="a_node39"><a xlink:href="_i_e_texture_8hpp.html" target="_top" xlink:title=" ">
<polygon fill="white" stroke="black" points="1532.03,-297.5 1532.03,-323.5 1689.03,-323.5 1689.03,-297.5 1532.03,-297.5"/>
<text text-anchor="middle" x="1610.53" y="-306.7" font-family="Source Sans Pro" font-size="16.00">Image/IETexture.hpp</text>
</a>
</g>
</g>
<!-- Node2&#45;&gt;Node50 -->
<g id="edge95" class="edge">
<title>Node2&#45;&gt;Node50</title>
<path fill="none" stroke="midnightblue" d="M1508.26,-576.24C1524.91,-533.16 1580.85,-388.33 1602.17,-333.12"/>
<polygon fill="midnightblue" stroke="midnightblue" points="1605.51,-334.21 1605.85,-323.62 1598.98,-331.69 1605.51,-334.21"/>
</g>
<!-- Node2&#45;&gt;Node52 -->
<g id="edge102" class="edge">
<title>Node2&#45;&gt;Node52</title>
<path fill="none" stroke="midnightblue" d="M1581.42,-576.74C1648.95,-566.54 1746.7,-551.78 1817.55,-541.09"/>
<polygon fill="midnightblue" stroke="midnightblue" points="1818.43,-544.49 1827.8,-539.54 1817.39,-537.57 1818.43,-544.49"/>
</g>
<!-- Node4 -->
<g id="node4" class="node">
<title>Node4</title>
<g id="a_node4"><a xlink:href="_i_e_command_buffer_8hpp.html" target="_top" xlink:title=" ">
<polygon fill="white" stroke="red" points="527.53,-369.5 527.53,-395.5 699.53,-395.5 699.53,-369.5 527.53,-369.5"/>
<text text-anchor="middle" x="613.53" y="-378.7" font-family="Source Sans Pro" font-size="16.00">IECommandBuffer.hpp</text>
</a>
</g>
</g>
<!-- Node3&#45;&gt;Node4 -->
<g id="edge3" class="edge">
<title>Node3&#45;&gt;Node4</title>
<path fill="none" stroke="midnightblue" d="M274.01,-441.47C345.99,-429.18 457.58,-410.12 533,-397.25"/>
<polygon fill="midnightblue" stroke="midnightblue" points="533.67,-400.69 542.94,-395.55 532.49,-393.78 533.67,-400.69"/>
</g>
<!-- Node3&#45;&gt;Node9 -->
<g id="edge55" class="edge">
<title>Node3&#45;&gt;Node9</title>
<path fill="none" stroke="midnightblue" d="M186.22,-441.2C157.12,-418.93 101.53,-368.87 101.53,-311.5 101.53,-311.5 101.53,-311.5 101.53,-228.5 101.53,-72.32 261.24,-105.49 411.53,-63 556.34,-22.06 1028.41,-15.68 1169.41,-14.68"/>
<polygon fill="midnightblue" stroke="midnightblue" points="1169.76,-18.18 1179.74,-14.62 1169.72,-11.18 1169.76,-18.18"/>
</g>
<!-- Node3&#45;&gt;Node10 -->
<g id="edge53" class="edge">
<title>Node3&#45;&gt;Node10</title>
<path fill="none" stroke="midnightblue" d="M188.98,-441.3C171.37,-424.97 145.6,-395.05 158.53,-369 237.91,-209.03 312.03,-190.58 478.53,-126 560.73,-94.12 813.65,-82.86 939.64,-79.17"/>
<polygon fill="midnightblue" stroke="midnightblue" points="940.07,-82.65 949.96,-78.87 939.87,-75.66 940.07,-82.65"/>
</g>
<!-- Node13 -->
<g id="node13" class="node">
<title>Node13</title>
<g id="a_node13"><a xlink:title=" ">
<polygon fill="white" stroke="#bfbfbf" points="269.03,-0.5 269.03,-26.5 332.03,-26.5 332.03,-0.5 269.03,-0.5"/>
<text text-anchor="middle" x="300.53" y="-9.7" font-family="Source Sans Pro" font-size="16.00">cstdint</text>
</a>
</g>
</g>
<!-- Node3&#45;&gt;Node13 -->
<g id="edge54" class="edge">
<title>Node3&#45;&gt;Node13</title>
<path fill="none" stroke="midnightblue" d="M161.96,-441.49C137.4,-432.51 107.34,-417.94 87.53,-396 34.88,-337.71 25.53,-309.05 25.53,-230.5 25.53,-230.5 25.53,-230.5 25.53,-147.5 25.53,-108.46 20.76,-89.4 49.53,-63 79.5,-35.5 195.23,-22.52 258.54,-17.36"/>
<polygon fill="midnightblue" stroke="midnightblue" points="258.91,-20.84 268.61,-16.57 258.36,-13.86 258.91,-20.84"/>
</g>
<!-- Node3&#45;&gt;Node36 -->
<g id="edge52" class="edge">
<title>Node3&#45;&gt;Node36</title>
<path fill="none" stroke="midnightblue" d="M207.19,-441.31C210.17,-431.37 214.45,-417.09 218.02,-405.21"/>
<polygon fill="midnightblue" stroke="midnightblue" points="221.39,-406.14 220.91,-395.55 214.69,-404.13 221.39,-406.14"/>
</g>
<!-- Node5 -->
<g id="node5" class="node">
<title>Node5</title>
<g id="a_node5"><a xlink:href="_i_e_buffer_8hpp.html" target="_top" xlink:title=" ">
<polygon fill="white" stroke="black" points="1705.03,-216.5 1705.03,-242.5 1852.03,-242.5 1852.03,-216.5 1705.03,-216.5"/>
<text text-anchor="middle" x="1778.53" y="-225.7" font-family="Source Sans Pro" font-size="16.00">Buffer/IEBuffer.hpp</text>
</a>
</g>
</g>
<!-- Node4&#45;&gt;Node5 -->
<g id="edge4" class="edge">
<title>Node4&#45;&gt;Node5</title>
<path fill="none" stroke="midnightblue" d="M699.75,-369.9C770.21,-360.32 872.37,-346.2 961.53,-333 1089.25,-314.09 1120.37,-303.66 1248.53,-288 1430.1,-265.82 1477.21,-276.15 1658.53,-252 1674.42,-249.88 1691.42,-247.13 1707.48,-244.32"/>
<polygon fill="midnightblue" stroke="midnightblue" points="1708.11,-247.76 1717.34,-242.56 1706.88,-240.87 1708.11,-247.76"/>
</g>
<!-- Node4&#45;&gt;Node9 -->
<g id="edge50" class="edge">
<title>Node4&#45;&gt;Node9</title>
<path fill="none" stroke="midnightblue" d="M580.35,-369.46C530.87,-349.11 443.53,-302.94 443.53,-230.5 443.53,-230.5 443.53,-230.5 443.53,-147.5 443.53,-63.92 531.05,-85.57 611.53,-63 717.05,-33.4 1053.15,-19.69 1169.46,-15.75"/>
<polygon fill="midnightblue" stroke="midnightblue" points="1169.82,-19.24 1179.7,-15.41 1169.58,-12.24 1169.82,-19.24"/>
</g>
<!-- Node4&#45;&gt;Node10 -->
<g id="edge51" class="edge">
<title>Node4&#45;&gt;Node10</title>
<path fill="none" stroke="midnightblue" d="M604.9,-369.22C577.63,-328.77 498.76,-198.14 563.53,-126 588.15,-98.58 818.8,-85.27 939.57,-80.14"/>
<polygon fill="midnightblue" stroke="midnightblue" points="939.99,-83.63 949.84,-79.71 939.7,-76.63 939.99,-83.63"/>
</g>
<!-- Node25 -->
<g id="node17" class="node">
<title>Node25</title>
<g id="a_node17"><a xlink:href="_i_e_pipeline_8hpp.html" target="_top" xlink:title=" ">
<polygon fill="white" stroke="black" points="1257.53,-288.5 1257.53,-332.5 1437.53,-332.5 1437.53,-288.5 1257.53,-288.5"/>
<text text-anchor="start" x="1265.53" y="-315.7" font-family="Source Sans Pro" font-size="16.00">GraphicsModule/Shader</text>
<text text-anchor="middle" x="1347.53" y="-297.7" font-family="Source Sans Pro" font-size="16.00">/IEPipeline.hpp</text>
</a>
</g>
</g>
<!-- Node4&#45;&gt;Node25 -->
<g id="edge22" class="edge">
<title>Node4&#45;&gt;Node25</title>
<path fill="none" stroke="midnightblue" d="M699.97,-374.78C809.04,-366.11 1002.35,-350.09 1167.53,-333 1193.37,-330.33 1221.26,-327.14 1247.19,-324.05"/>
<polygon fill="midnightblue" stroke="midnightblue" points="1247.89,-327.49 1257.4,-322.83 1247.06,-320.54 1247.89,-327.49"/>
</g>
<!-- Node18 -->
<g id="node21" class="node">
<title>Node18</title>
<g id="a_node21"><a xlink:href="_i_e_image_8hpp.html" target="_top" xlink:title=" ">
<polygon fill="white" stroke="black" points="1500.03,-216.5 1500.03,-242.5 1649.03,-242.5 1649.03,-216.5 1500.03,-216.5"/>
<text text-anchor="middle" x="1574.53" y="-225.7" font-family="Source Sans Pro" font-size="16.00">Image/IEImage.hpp</text>
</a>
</g>
</g>
<!-- Node4&#45;&gt;Node18 -->
<g id="edge38" class="edge">
<title>Node4&#45;&gt;Node18</title>
<path fill="none" stroke="midnightblue" d="M624.19,-369.3C643.4,-348.29 686.18,-305.82 732.53,-288 868.93,-235.55 1304,-229.93 1489.47,-230"/>
<polygon fill="midnightblue" stroke="midnightblue" points="1489.71,-233.5 1499.71,-230.01 1489.72,-226.5 1489.71,-233.5"/>
</g>
<!-- Node35 -->
<g id="node23" class="node">
<title>Node35</title>
<g id="a_node23"><a xlink:title=" ">
<polygon fill="white" stroke="#bfbfbf" points="623.53,-135.5 623.53,-161.5 687.53,-161.5 687.53,-135.5 623.53,-135.5"/>
<text text-anchor="middle" x="655.53" y="-144.7" font-family="Source Sans Pro" font-size="16.00">variant</text>
</a>
</g>
</g>
<!-- Node4&#45;&gt;Node35 -->
<g id="edge49" class="edge">
<title>Node4&#45;&gt;Node35</title>
<path fill="none" stroke="midnightblue" d="M615.73,-369.35C622.46,-332.16 642.86,-219.46 651.55,-171.49"/>
<polygon fill="midnightblue" stroke="midnightblue" points="655.01,-171.99 653.35,-161.53 648.12,-170.74 655.01,-171.99"/>
</g>
<!-- Node6 -->
<g id="node6" class="node">
<title>Node6</title>
<g id="a_node6"><a xlink:href="_i_e_dependency_8hpp.html" target="_top" xlink:title=" ">
<polygon fill="white" stroke="black" points="1880.03,-126.5 1880.03,-170.5 2125.03,-170.5 2125.03,-126.5 1880.03,-126.5"/>
<text text-anchor="start" x="1888.03" y="-153.7" font-family="Source Sans Pro" font-size="16.00">GraphicsModule/CommandBuffer</text>
<text text-anchor="middle" x="2002.53" y="-135.7" font-family="Source Sans Pro" font-size="16.00">/IEDependency.hpp</text>
</a>
</g>
</g>
<!-- Node5&#45;&gt;Node6 -->
<g id="edge5" class="edge">
<title>Node5&#45;&gt;Node6</title>
<path fill="none" stroke="midnightblue" d="M1813.04,-216.33C1844.89,-205.09 1893.16,-188.07 1933,-174.02"/>
<polygon fill="midnightblue" stroke="midnightblue" points="1934.41,-177.24 1942.68,-170.61 1932.08,-170.63 1934.41,-177.24"/>
</g>
<!-- Node5&#45;&gt;Node9 -->
<g id="edge21" class="edge">
<title>Node5&#45;&gt;Node9</title>
<path fill="none" stroke="midnightblue" d="M1793.75,-216.16C1805.49,-205.59 1820.82,-189.22 1827.53,-171 1844.12,-125.96 1860.11,-98.24 1827.53,-63 1788.31,-20.58 1380.14,-15.2 1249.5,-14.57"/>
<polygon fill="midnightblue" stroke="midnightblue" points="1249.17,-11.07 1239.16,-14.52 1249.14,-18.07 1249.17,-11.07"/>
</g>
<!-- Node5&#45;&gt;Node10 -->
<g id="edge18" class="edge">
<title>Node5&#45;&gt;Node10</title>
<path fill="none" stroke="midnightblue" d="M1780.21,-216.44C1782.5,-194.63 1783.68,-148.8 1757.53,-126 1707.62,-82.51 1262.96,-77.54 1085.34,-77.31"/>
<polygon fill="midnightblue" stroke="midnightblue" points="1085.31,-73.81 1075.31,-77.31 1085.3,-80.81 1085.31,-73.81"/>
</g>
<!-- Node5&#45;&gt;Node11 -->
<g id="edge10" class="edge">
<title>Node5&#45;&gt;Node11</title>
<path fill="none" stroke="midnightblue" d="M1848.15,-216.44C1866.48,-213.32 1886.24,-209.99 1904.53,-207 2006.64,-190.3 2033.04,-191.16 2134.53,-171 2146.71,-168.58 2159.74,-165.63 2171.98,-162.71"/>
<polygon fill="midnightblue" stroke="midnightblue" points="2173.14,-166.03 2182.03,-160.27 2171.48,-159.23 2173.14,-166.03"/>
</g>
<!-- Node5&#45;&gt;Node13 -->
<g id="edge19" class="edge">
<title>Node5&#45;&gt;Node13</title>
<path fill="none" stroke="midnightblue" d="M1783.63,-216.28C1791.6,-195.02 1803.9,-151.13 1781.53,-126 1683.26,-15.64 573.46,-13.52 342.48,-14.28"/>
<polygon fill="midnightblue" stroke="midnightblue" points="342.14,-10.78 332.15,-14.32 342.17,-17.78 342.14,-10.78"/>
</g>
<!-- Node5&#45;&gt;Node14 -->
<g id="edge16" class="edge">
<title>Node5&#45;&gt;Node14</title>
<path fill="none" stroke="midnightblue" d="M1759.58,-216.33C1739.02,-203.13 1706.03,-181.94 1682.71,-166.96"/>
<polygon fill="midnightblue" stroke="midnightblue" points="1684.6,-164.01 1674.3,-161.55 1680.82,-169.9 1684.6,-164.01"/>
</g>
<!-- Node5&#45;&gt;Node15 -->
<g id="edge17" class="edge">
<title>Node5&#45;&gt;Node15</title>
<path fill="none" stroke="midnightblue" d="M1852.09,-218.12C1878.96,-214.44 1909.6,-210.38 1937.53,-207 2087.07,-188.91 2124.79,-187.38 2274.53,-171 2311.55,-166.95 2352.58,-162.37 2387.17,-158.48"/>
<polygon fill="midnightblue" stroke="midnightblue" points="2387.67,-161.94 2397.22,-157.35 2386.89,-154.99 2387.67,-161.94"/>
</g>
<!-- Node16 -->
<g id="node16" class="node">
<title>Node16</title>
<g id="a_node16"><a xlink:title=" ">
<polygon fill="white" stroke="#bfbfbf" points="1307.53,-135.5 1307.53,-161.5 1393.53,-161.5 1393.53,-135.5 1307.53,-135.5"/>
<text text-anchor="middle" x="1350.53" y="-144.7" font-family="Source Sans Pro" font-size="16.00">functional</text>
</a>
</g>
</g>
<!-- Node5&#45;&gt;Node16 -->
<g id="edge20" class="edge">
<title>Node5&#45;&gt;Node16</title>
<path fill="none" stroke="midnightblue" d="M1713.06,-216.42C1628.23,-200.76 1481.97,-173.76 1403.66,-159.31"/>
<polygon fill="midnightblue" stroke="midnightblue" points="1404.01,-155.81 1393.54,-157.44 1402.74,-162.7 1404.01,-155.81"/>
</g>
<!-- Node7 -->
<g id="node7" class="node">
<title>Node7</title>
<g id="a_node7"><a xlink:title=" ">
<polygon fill="white" stroke="#bfbfbf" points="3228.53,-63.5 3228.53,-89.5 3302.53,-89.5 3302.53,-63.5 3228.53,-63.5"/>
<text text-anchor="middle" x="3265.53" y="-72.7" font-family="Source Sans Pro" font-size="16.00">memory</text>
</a>
</g>
</g>
<!-- Node6&#45;&gt;Node7 -->
<g id="edge6" class="edge">
<title>Node6&#45;&gt;Node7</title>
<path fill="none" stroke="midnightblue" d="M2125.22,-130.75C2141.44,-128.92 2157.87,-127.27 2173.53,-126 2608.84,-90.72 2720.01,-122.68 3155.53,-90 3176.16,-88.45 3198.89,-86 3218.31,-83.67"/>
<polygon fill="midnightblue" stroke="midnightblue" points="3218.92,-87.12 3228.42,-82.43 3218.07,-80.17 3218.92,-87.12"/>
</g>
<!-- Node6&#45;&gt;Node8 -->
<g id="edge7" class="edge">
<title>Node6&#45;&gt;Node8</title>
<path fill="none" stroke="midnightblue" d="M2032.07,-126.35C2062.41,-105.94 2111.8,-76.25 2159.53,-63 2348.55,-10.53 2975.14,-12.62 3136.41,-14.08"/>
<polygon fill="midnightblue" stroke="midnightblue" points="3136.75,-17.58 3146.78,-14.17 3136.81,-10.58 3136.75,-17.58"/>
</g>
<!-- Node6&#45;&gt;Node9 -->
<g id="edge8" class="edge">
<title>Node6&#45;&gt;Node9</title>
<path fill="none" stroke="midnightblue" d="M1976.63,-126.2C1950.41,-105.97 1907.8,-76.69 1865.53,-63 1749.93,-25.56 1373.24,-16.85 1249.39,-14.98"/>
<polygon fill="midnightblue" stroke="midnightblue" points="1249.27,-11.48 1239.22,-14.83 1249.17,-18.48 1249.27,-11.48"/>
</g>
<!-- Node6&#45;&gt;Node10 -->
<g id="edge9" class="edge">
<title>Node6&#45;&gt;Node10</title>
<path fill="none" stroke="midnightblue" d="M1879.83,-134.31C1850.28,-131.35 1818.79,-128.39 1789.53,-126 1530.63,-104.86 1222.53,-88.13 1085.03,-81.1"/>
<polygon fill="midnightblue" stroke="midnightblue" points="1085.19,-77.6 1075.03,-80.59 1084.84,-84.59 1085.19,-77.6"/>
</g>
<!-- Node11&#45;&gt;Node8 -->
<g id="edge15" class="edge">
<title>Node11&#45;&gt;Node8</title>
<path fill="none" stroke="midnightblue" d="M2237.31,-135.2C2260.04,-115.76 2307.65,-78.56 2355.53,-63 2503.55,-14.88 2995.77,-13.57 3136.59,-14.22"/>
<polygon fill="midnightblue" stroke="midnightblue" points="3136.85,-17.72 3146.87,-14.27 3136.89,-10.72 3136.85,-17.72"/>
</g>
<!-- Node12 -->
<g id="node12" class="node">
<title>Node12</title>
<g id="a_node12"><a xlink:href="_i_e_version_8hpp.html" target="_top" xlink:title=" ">
<polygon fill="white" stroke="black" points="2168.53,-63.5 2168.53,-89.5 2278.53,-89.5 2278.53,-63.5 2168.53,-63.5"/>
<text text-anchor="middle" x="2223.53" y="-72.7" font-family="Source Sans Pro" font-size="16.00">IEVersion.hpp</text>
</a>
</g>
</g>
<!-- Node11&#45;&gt;Node12 -->
<g id="edge11" class="edge">
<title>Node11&#45;&gt;Node12</title>
<path fill="none" stroke="midnightblue" d="M2223.53,-135.31C2223.53,-125.47 2223.53,-111.38 2223.53,-99.57"/>
<polygon fill="midnightblue" stroke="midnightblue" points="2227.03,-99.55 2223.53,-89.55 2220.03,-99.55 2227.03,-99.55"/>
</g>
<!-- Node12&#45;&gt;Node8 -->
<g id="edge13" class="edge">
<title>Node12&#45;&gt;Node8</title>
<path fill="none" stroke="midnightblue" d="M2278.57,-66.37C2287.56,-65.09 2296.79,-63.91 2305.53,-63 2625.76,-29.73 3014.91,-18.25 3136.43,-15.33"/>
<polygon fill="midnightblue" stroke="midnightblue" points="3136.77,-18.82 3146.69,-15.09 3136.61,-11.82 3136.77,-18.82"/>
</g>
<!-- Node12&#45;&gt;Node9 -->
<g id="edge14" class="edge">
<title>Node12&#45;&gt;Node9</title>
<path fill="none" stroke="midnightblue" d="M2168.29,-72.18C1986.09,-61.22 1406.79,-26.37 1249.35,-16.9"/>
<polygon fill="midnightblue" stroke="midnightblue" points="1249.37,-13.39 1239.17,-16.28 1248.95,-20.38 1249.37,-13.39"/>
</g>
<!-- Node12&#45;&gt;Node13 -->
<g id="edge12" class="edge">
<title>Node12&#45;&gt;Node13</title>
<path fill="none" stroke="midnightblue" d="M2168.31,-73.75C1884.26,-64.74 591.42,-23.73 342.18,-15.82"/>
<polygon fill="midnightblue" stroke="midnightblue" points="342.2,-12.32 332.09,-15.5 341.97,-19.32 342.2,-12.32"/>
</g>
<!-- Node25&#45;&gt;Node6 -->
<g id="edge23" class="edge">
<title>Node25&#45;&gt;Node6</title>
<path fill="none" stroke="midnightblue" d="M1437.57,-295.12C1454.79,-292.58 1472.7,-290.09 1489.53,-288 1571.95,-277.78 1786.83,-288.3 1861.53,-252 1886.41,-239.91 1882.83,-224.16 1904.53,-207 1919.01,-195.54 1936.01,-184.77 1951.74,-175.72"/>
<polygon fill="midnightblue" stroke="midnightblue" points="1953.84,-178.56 1960.83,-170.6 1950.4,-172.46 1953.84,-178.56"/>
</g>
<!-- Node25&#45;&gt;Node9 -->
<g id="edge37" class="edge">
<title>Node25&#45;&gt;Node9</title>
<path fill="none" stroke="midnightblue" d="M1257.16,-300.54C1180.19,-291.47 1076.78,-275.42 1042.53,-252 972.49,-204.1 964.87,-171.57 941.53,-90 938.23,-78.46 933.83,-72.21 941.53,-63 970.08,-28.81 1101.78,-18.68 1169.33,-15.71"/>
<polygon fill="midnightblue" stroke="midnightblue" points="1169.74,-19.19 1179.59,-15.29 1169.46,-12.2 1169.74,-19.19"/>
</g>
<!-- Node25&#45;&gt;Node10 -->
<g id="edge35" class="edge">
<title>Node25&#45;&gt;Node10</title>
<path fill="none" stroke="midnightblue" d="M1257.07,-289.12C1222.09,-279.79 1182.21,-267.36 1147.53,-252 1084.94,-224.28 1051.13,-230.07 1016.53,-171 1003.85,-149.35 1005.01,-119.8 1007.93,-99.76"/>
<polygon fill="midnightblue" stroke="midnightblue" points="1011.41,-100.16 1009.65,-89.71 1004.51,-98.98 1011.41,-100.16"/>
</g>
<!-- Node25&#45;&gt;Node16 -->
<g id="edge36" class="edge">
<title>Node25&#45;&gt;Node16</title>
<path fill="none" stroke="midnightblue" d="M1347.93,-288.25C1348.49,-257.97 1349.53,-202.65 1350.11,-171.8"/>
<polygon fill="midnightblue" stroke="midnightblue" points="1353.61,-171.7 1350.3,-161.63 1346.61,-171.57 1353.61,-171.7"/>
</g>
<!-- Node26 -->
<g id="node18" class="node">
<title>Node26</title>
<g id="a_node18"><a xlink:href="_i_e_shader_8hpp.html" target="_top" xlink:title=" ">
<polygon fill="white" stroke="black" points="2078.53,-207.5 2078.53,-251.5 2258.53,-251.5 2258.53,-207.5 2078.53,-207.5"/>
<text text-anchor="start" x="2086.53" y="-234.7" font-family="Source Sans Pro" font-size="16.00">GraphicsModule/Shader</text>
<text text-anchor="middle" x="2168.53" y="-216.7" font-family="Source Sans Pro" font-size="16.00">/IEShader.hpp</text>
</a>
</g>
</g>
<!-- Node25&#45;&gt;Node26 -->
<g id="edge24" class="edge">
<title>Node25&#45;&gt;Node26</title>
<path fill="none" stroke="midnightblue" d="M1437.86,-297.48C1465.34,-294.1 1495.64,-290.62 1523.53,-288 1762.34,-265.56 1826.95,-285.34 2068.38,-252.05"/>
<polygon fill="midnightblue" stroke="midnightblue" points="2069.1,-255.49 2078.52,-250.64 2068.13,-248.55 2069.1,-255.49"/>
</g>
<!-- Node26&#45;&gt;Node8 -->
<g id="edge32" class="edge">
<title>Node26&#45;&gt;Node8</title>
<path fill="none" stroke="midnightblue" d="M2258.6,-212.67C2274.2,-210.41 2290.3,-208.39 2305.53,-207 2380.69,-200.14 3610.87,-225.07 3663.53,-171 3673.33,-160.93 3664.05,-68.64 3658.53,-63 3627.47,-31.29 3320.96,-18.95 3212.4,-15.56"/>
<polygon fill="midnightblue" stroke="midnightblue" points="3212.33,-12.05 3202.23,-15.25 3212.12,-19.05 3212.33,-12.05"/>
</g>
<!-- Node26&#45;&gt;Node9 -->
<g id="edge33" class="edge">
<title>Node26&#45;&gt;Node9</title>
<path fill="none" stroke="midnightblue" d="M2258.64,-209.45C2263.33,-208.59 2267.98,-207.77 2272.53,-207 2396.89,-185.94 2622.38,-225.24 2544.53,-126 2462.47,-21.4 1462.09,-14.7 1249.2,-14.46"/>
<polygon fill="midnightblue" stroke="midnightblue" points="1249.1,-10.96 1239.1,-14.46 1249.1,-17.96 1249.1,-10.96"/>
</g>
<!-- Node26&#45;&gt;Node10 -->
<g id="edge26" class="edge">
<title>Node26&#45;&gt;Node10</title>
<path fill="none" stroke="midnightblue" d="M2232.83,-207.46C2249.28,-198.84 2265,-187.01 2274.53,-171 2284.76,-153.81 2288.4,-140.41 2274.53,-126 2233.13,-82.98 1348.38,-78.06 1085.53,-77.54"/>
<polygon fill="midnightblue" stroke="midnightblue" points="1085.34,-74.04 1075.33,-77.53 1085.33,-81.04 1085.34,-74.04"/>
</g>
<!-- Node26&#45;&gt;Node11 -->
<g id="edge25" class="edge">
<title>Node26&#45;&gt;Node11</title>
<path fill="none" stroke="midnightblue" d="M2183.27,-207.33C2191.3,-195.79 2201.2,-181.57 2209.18,-170.11"/>
<polygon fill="midnightblue" stroke="midnightblue" points="2212.24,-171.83 2215.08,-161.63 2206.5,-167.83 2212.24,-171.83"/>
</g>
<!-- Node26&#45;&gt;Node15 -->
<g id="edge34" class="edge">
<title>Node26&#45;&gt;Node15</title>
<path fill="none" stroke="midnightblue" d="M2247.99,-207.43C2299.56,-193.76 2365.44,-176.3 2411.32,-164.13"/>
<polygon fill="midnightblue" stroke="midnightblue" points="2412.32,-167.49 2421.09,-161.55 2410.53,-160.73 2412.32,-167.49"/>
</g>
<!-- Node26&#45;&gt;Node16 -->
<g id="edge31" class="edge">
<title>Node26&#45;&gt;Node16</title>
<path fill="none" stroke="midnightblue" d="M2078.52,-208.38C2075.49,-207.88 2072.49,-207.42 2069.53,-207 1842.38,-174.57 1783.1,-191.03 1554.53,-171 1503.34,-166.52 1445.06,-160.26 1403.93,-155.65"/>
<polygon fill="midnightblue" stroke="midnightblue" points="1404.19,-152.16 1393.86,-154.51 1403.41,-159.11 1404.19,-152.16"/>
</g>
<!-- Node27 -->
<g id="node19" class="node">
<title>Node27</title>
<g id="a_node19"><a xlink:href="_i_e_file_8hpp.html" target="_top" xlink:title=" ">
<polygon fill="white" stroke="red" points="3477.03,-126.5 3477.03,-170.5 3654.03,-170.5 3654.03,-126.5 3477.03,-126.5"/>
<text text-anchor="start" x="3485.03" y="-153.7" font-family="Source Sans Pro" font-size="16.00">Core/FileSystemModule</text>
<text text-anchor="middle" x="3565.53" y="-135.7" font-family="Source Sans Pro" font-size="16.00">/IEFile.hpp</text>
</a>
</g>
</g>
<!-- Node26&#45;&gt;Node27 -->
<g id="edge27" class="edge">
<title>Node26&#45;&gt;Node27</title>
<path fill="none" stroke="midnightblue" d="M2258.6,-212.74C2274.21,-210.48 2290.31,-208.43 2305.53,-207 2803.58,-160.13 2932.53,-218.43 3430.53,-171 3442.25,-169.88 3454.5,-168.39 3466.63,-166.71"/>
<polygon fill="midnightblue" stroke="midnightblue" points="3467.37,-170.14 3476.77,-165.26 3466.38,-163.21 3467.37,-170.14"/>
</g>
<!-- Node27&#45;&gt;Node8 -->
<g id="edge29" class="edge">
<title>Node27&#45;&gt;Node8</title>
<path fill="none" stroke="midnightblue" d="M3549.19,-126.4C3532.63,-106.63 3505.14,-77.95 3474.53,-63 3387.72,-20.6 3271.62,-14.04 3212.53,-13.75"/>
<polygon fill="midnightblue" stroke="midnightblue" points="3212.18,-10.25 3202.19,-13.76 3212.19,-17.25 3212.18,-10.25"/>
</g>
<!-- Node27&#45;&gt;Node9 -->
<g id="edge30" class="edge">
<title>Node27&#45;&gt;Node9</title>
<path fill="none" stroke="midnightblue" d="M3522.62,-126.5C3478.07,-105.89 3405.75,-75.76 3339.53,-63 3127.05,-22.07 1523.39,-15.44 1249.31,-14.61"/>
<polygon fill="midnightblue" stroke="midnightblue" points="1249.06,-11.11 1239.05,-14.58 1249.03,-18.11 1249.06,-11.11"/>
</g>
<!-- Node27&#45;&gt;Node28 -->
<g id="edge28" class="edge">
<title>Node27&#45;&gt;Node28</title>
<path fill="none" stroke="midnightblue" d="M3577.83,-126.5C3583.08,-117.53 3589.19,-107.1 3594.42,-98.17"/>
<polygon fill="midnightblue" stroke="midnightblue" points="3597.45,-99.93 3599.48,-89.53 3591.41,-96.39 3597.45,-99.93"/>
</g>
<!-- Node18&#45;&gt;Node6 -->
<g id="edge39" class="edge">
<title>Node18&#45;&gt;Node6</title>
<path fill="none" stroke="midnightblue" d="M1640,-216.42C1703.21,-204.75 1800.55,-186.78 1878.45,-172.4"/>
<polygon fill="midnightblue" stroke="midnightblue" points="1879.14,-175.83 1888.34,-170.58 1877.87,-168.95 1879.14,-175.83"/>
</g>
<!-- Node18&#45;&gt;Node8 -->
<g id="edge47" class="edge">
<title>Node18&#45;&gt;Node8</title>
<path fill="none" stroke="midnightblue" d="M1566.45,-216.37C1553.51,-195.27 1531.75,-151.6 1554.53,-126 1608.91,-64.87 2897.22,-22.91 3136.48,-15.63"/>
<polygon fill="midnightblue" stroke="midnightblue" points="3136.87,-19.12 3146.76,-15.32 3136.66,-12.12 3136.87,-19.12"/>
</g>
<!-- Node18&#45;&gt;Node9 -->
<g id="edge48" class="edge">
<title>Node18&#45;&gt;Node9</title>
<path fill="none" stroke="midnightblue" d="M1561,-216.28C1549.42,-205.28 1532.86,-188.24 1521.53,-171 1492.68,-127.11 1514.79,-95.5 1473.53,-63 1439.37,-36.1 1314.73,-22.64 1249.67,-17.33"/>
<polygon fill="midnightblue" stroke="midnightblue" points="1249.63,-13.81 1239.39,-16.52 1249.08,-20.79 1249.63,-13.81"/>
</g>
<!-- Node18&#45;&gt;Node10 -->
<g id="edge44" class="edge">
<title>Node18&#45;&gt;Node10</title>
<path fill="none" stroke="midnightblue" d="M1537.78,-216.48C1510.83,-206.66 1474.09,-191.12 1445.53,-171 1422.91,-155.07 1427.24,-138.43 1402.53,-126 1348.51,-98.84 1182.37,-86.04 1085.24,-80.73"/>
<polygon fill="midnightblue" stroke="midnightblue" points="1085.36,-77.24 1075.19,-80.2 1084.99,-84.23 1085.36,-77.24"/>
</g>
<!-- Node18&#45;&gt;Node11 -->
<g id="edge40" class="edge">
<title>Node18&#45;&gt;Node11</title>
<path fill="none" stroke="midnightblue" d="M1636.42,-216.45C1655.63,-213.02 1676.9,-209.53 1696.53,-207 1890.25,-182.02 1941.68,-202.03 2134.53,-171 2146.67,-169.05 2159.59,-166.31 2171.73,-163.44"/>
<polygon fill="midnightblue" stroke="midnightblue" points="2172.8,-166.78 2181.69,-161.02 2171.15,-159.98 2172.8,-166.78"/>
</g>
<!-- Node18&#45;&gt;Node13 -->
<g id="edge45" class="edge">
<title>Node18&#45;&gt;Node13</title>
<path fill="none" stroke="midnightblue" d="M1558.71,-216.36C1524.13,-189.85 1444.34,-128.96 1437.53,-126 1234.72,-37.98 522.89,-18.71 342.38,-15.19"/>
<polygon fill="midnightblue" stroke="midnightblue" points="342.3,-11.69 332.24,-15 342.17,-18.69 342.3,-11.69"/>
</g>
<!-- Node18&#45;&gt;Node14 -->
<g id="edge42" class="edge">
<title>Node18&#45;&gt;Node14</title>
<path fill="none" stroke="midnightblue" d="M1587.18,-216.16C1600.14,-203.52 1620.47,-183.69 1635.59,-168.94"/>
<polygon fill="midnightblue" stroke="midnightblue" points="1638.24,-171.24 1642.96,-161.76 1633.36,-166.23 1638.24,-171.24"/>
</g>
<!-- Node18&#45;&gt;Node15 -->
<g id="edge41" class="edge">
<title>Node18&#45;&gt;Node15</title>
<path fill="none" stroke="midnightblue" d="M1634.83,-216.49C1654.44,-212.96 1676.35,-209.4 1696.53,-207 1952.11,-176.62 2018.11,-193.33 2274.53,-171 2311.63,-167.77 2352.67,-163.3 2387.25,-159.27"/>
<polygon fill="midnightblue" stroke="midnightblue" points="2387.77,-162.73 2397.29,-158.09 2386.95,-155.78 2387.77,-162.73"/>
</g>
<!-- Node18&#45;&gt;Node16 -->
<g id="edge46" class="edge">
<title>Node18&#45;&gt;Node16</title>
<path fill="none" stroke="midnightblue" d="M1538.59,-216.46C1504.7,-205.03 1452.53,-187.23 1407.53,-171 1402.37,-169.14 1396.96,-167.15 1391.61,-165.16"/>
<polygon fill="midnightblue" stroke="midnightblue" points="1392.72,-161.84 1382.12,-161.61 1390.26,-168.39 1392.72,-161.84"/>
</g>
<!-- Node18&#45;&gt;Node19 -->
<g id="edge43" class="edge">
<title>Node18&#45;&gt;Node19</title>
<path fill="none" stroke="midnightblue" d="M1527.13,-216.46C1514.01,-213.25 1499.74,-209.88 1486.53,-207 1403.4,-188.9 1380.53,-193.64 1298.53,-171 1292.32,-169.29 1285.84,-167.22 1279.54,-165.05"/>
<polygon fill="midnightblue" stroke="midnightblue" points="1280.44,-161.66 1269.85,-161.6 1278.09,-168.26 1280.44,-161.66"/>
</g>
<!-- Node37&#45;&gt;Node7 -->
<g id="edge65" class="edge">
<title>Node37&#45;&gt;Node7</title>
<path fill="none" stroke="midnightblue" d="M3198.8,-216.45C3225.52,-208.2 3252.41,-194.33 3268.53,-171 3282.99,-150.06 3278.63,-119.73 3273.06,-99.34"/>
<polygon fill="midnightblue" stroke="midnightblue" points="3276.39,-98.25 3270.14,-89.69 3269.69,-100.28 3276.39,-98.25"/>
</g>
<!-- Node37&#45;&gt;Node8 -->
<g id="edge57" class="edge">
<title>Node37&#45;&gt;Node8</title>
<path fill="none" stroke="midnightblue" d="M3226.33,-216.48C3257.11,-213.25 3290.62,-209.86 3321.53,-207 3371.47,-202.38 3737.5,-207.86 3771.53,-171 3804.09,-135.73 3804.07,-98.29 3771.53,-63 3733.64,-21.91 3338.36,-15.63 3212.67,-14.67"/>
<polygon fill="midnightblue" stroke="midnightblue" points="3212.41,-11.17 3202.39,-14.6 3212.36,-18.17 3212.41,-11.17"/>
</g>
<!-- Node37&#45;&gt;Node9 -->
<g id="edge58" class="edge">
<title>Node37&#45;&gt;Node9</title>
<path fill="none" stroke="midnightblue" d="M3094.1,-216.4C3075.34,-205.73 3048.36,-189.09 3027.53,-171 3007.55,-153.65 3011.97,-138.27 2988.53,-126 2829.48,-42.74 1497.16,-18.81 1249.18,-15.06"/>
<polygon fill="midnightblue" stroke="midnightblue" points="1249.22,-11.56 1239.17,-14.91 1249.11,-18.56 1249.22,-11.56"/>
</g>
<!-- Node38 -->
<g id="node26" class="node">
<title>Node38</title>
<g id="a_node26"><a xlink:href="_i_e_aspect_8hpp.html" target="_top" xlink:title=" ">
<polygon fill="white" stroke="black" points="3315.53,-135.5 3315.53,-161.5 3421.53,-161.5 3421.53,-135.5 3315.53,-135.5"/>
<text text-anchor="middle" x="3368.53" y="-144.7" font-family="Source Sans Pro" font-size="16.00">IEAspect.hpp</text>
</a>
</g>
</g>
<!-- Node37&#45;&gt;Node38 -->
<g id="edge59" class="edge">
<title>Node37&#45;&gt;Node38</title>
<path fill="none" stroke="midnightblue" d="M3155.54,-216.49C3193,-204.93 3251.17,-186.9 3301.53,-171 3308.02,-168.95 3314.87,-166.77 3321.6,-164.62"/>
<polygon fill="midnightblue" stroke="midnightblue" points="3322.88,-167.88 3331.34,-161.5 3320.74,-161.22 3322.88,-167.88"/>
</g>
<!-- Node37&#45;&gt;Node39 -->
<g id="edge63" class="edge">
<title>Node37&#45;&gt;Node39</title>
<path fill="none" stroke="midnightblue" d="M3089.1,-216.33C3058.57,-202.78 3009.07,-180.81 2975.22,-165.79"/>
<polygon fill="midnightblue" stroke="midnightblue" points="2976.25,-162.41 2965.69,-161.55 2973.41,-168.81 2976.25,-162.41"/>
</g>
<!-- Node40 -->
<g id="node28" class="node">
<title>Node40</title>
<g id="a_node28"><a xlink:title=" ">
<polygon fill="white" stroke="#bfbfbf" points="2737.53,-135.5 2737.53,-161.5 2841.53,-161.5 2841.53,-135.5 2737.53,-135.5"/>
<text text-anchor="middle" x="2789.53" y="-144.7" font-family="Source Sans Pro" font-size="16.00">glm/glm.hpp</text>
</a>
</g>
</g>
<!-- Node37&#45;&gt;Node40 -->
<g id="edge64" class="edge">
<title>Node37&#45;&gt;Node40</title>
<path fill="none" stroke="midnightblue" d="M3066.51,-216.42C3008.12,-202.31 2911.64,-179 2849.35,-163.95"/>
<polygon fill="midnightblue" stroke="midnightblue" points="2849.82,-160.46 2839.27,-161.52 2848.17,-167.27 2849.82,-160.46"/>
</g>
<!-- Node38&#45;&gt;Node7 -->
<g id="edge60" class="edge">
<title>Node38&#45;&gt;Node7</title>
<path fill="none" stroke="midnightblue" d="M3350.59,-135.31C3334.27,-124.22 3309.98,-107.71 3291.53,-95.17"/>
<polygon fill="midnightblue" stroke="midnightblue" points="3293.5,-92.28 3283.26,-89.55 3289.57,-98.07 3293.5,-92.28"/>
</g>
<!-- Node38&#45;&gt;Node8 -->
<g id="edge61" class="edge">
<title>Node38&#45;&gt;Node8</title>
<path fill="none" stroke="midnightblue" d="M3368.59,-135.32C3368,-117.06 3364.14,-82.64 3344.53,-63 3309.44,-27.87 3250.8,-17.77 3212.39,-15.1"/>
<polygon fill="midnightblue" stroke="midnightblue" points="3212.31,-11.59 3202.14,-14.52 3211.92,-18.58 3212.31,-11.59"/>
</g>
<!-- Node38&#45;&gt;Node9 -->
<g id="edge62" class="edge">
<title>Node38&#45;&gt;Node9</title>
<path fill="none" stroke="midnightblue" d="M3364.43,-135.23C3357.23,-115.84 3340.25,-78.7 3311.53,-63 3217.64,-11.69 1532.22,-13.68 1249.58,-14.38"/>
<polygon fill="midnightblue" stroke="midnightblue" points="1249.37,-10.88 1239.38,-14.41 1249.39,-17.88 1249.37,-10.88"/>
</g>
<!-- Node24&#45;&gt;Node8 -->
<g id="edge69" class="edge">
<title>Node24&#45;&gt;Node8</title>
<path fill="none" stroke="midnightblue" d="M952.3,-303.32C1033.36,-298.71 1147.98,-292.46 1248.53,-288 1361.71,-282.97 2165.63,-301.53 2267.53,-252 2291.07,-240.56 2282.39,-219.24 2305.53,-207 2442.59,-134.51 2518.03,-248.14 2652.53,-171 2674.04,-158.66 2667.62,-143.16 2685.53,-126 2721.83,-91.2 2732.39,-80.54 2779.53,-63 2844.64,-38.77 3051.22,-22.68 3136.82,-16.89"/>
<polygon fill="midnightblue" stroke="midnightblue" points="3137.13,-20.38 3146.88,-16.22 3136.67,-13.39 3137.13,-20.38"/>
</g>
<!-- Node24&#45;&gt;Node9 -->
<g id="edge70" class="edge">
<title>Node24&#45;&gt;Node9</title>
<path fill="none" stroke="midnightblue" d="M741.02,-297.25C679.25,-288 609.07,-273.25 586.53,-252 545.1,-212.95 528.39,-170.79 563.53,-126 638.77,-30.08 1040.46,-16.62 1169.55,-14.78"/>
<polygon fill="midnightblue" stroke="midnightblue" points="1169.82,-18.27 1179.78,-14.65 1169.73,-11.27 1169.82,-18.27"/>
</g>
<!-- Node24&#45;&gt;Node10 -->
<g id="edge68" class="edge">
<title>Node24&#45;&gt;Node10</title>
<path fill="none" stroke="midnightblue" d="M740.98,-292.38C708.5,-283.79 673.87,-270.99 645.53,-252 593.35,-217.04 539.67,-172.83 581.53,-126 604.91,-99.84 822.69,-86.06 939.41,-80.51"/>
<polygon fill="midnightblue" stroke="midnightblue" points="939.87,-83.99 949.7,-80.03 939.55,-77 939.87,-83.99"/>
</g>
<!-- Node24&#45;&gt;Node18 -->
<g id="edge67" class="edge">
<title>Node24&#45;&gt;Node18</title>
<path fill="none" stroke="midnightblue" d="M952.38,-298.01C1097.76,-282.24 1356.32,-254.18 1489.71,-239.7"/>
<polygon fill="midnightblue" stroke="midnightblue" points="1490.31,-243.16 1499.88,-238.6 1489.56,-236.2 1490.31,-243.16"/>
</g>
<!-- Node41&#45;&gt;Node4 -->
<g id="edge72" class="edge">
<title>Node41&#45;&gt;Node4</title>
<path fill="none" stroke="midnightblue" d="M763.32,-432.5C730.14,-421.64 690.38,-408.64 660.16,-398.76"/>
<polygon fill="midnightblue" stroke="midnightblue" points="660.9,-395.31 650.31,-395.53 658.72,-401.97 660.9,-395.31"/>
</g>
<!-- Node41&#45;&gt;Node9 -->
<g id="edge77" class="edge">
<title>Node41&#45;&gt;Node9</title>
<path fill="none" stroke="midnightblue" d="M721.87,-434.43C717.02,-433.6 712.22,-432.79 707.53,-432 604.61,-414.8 561.48,-455.16 475.53,-396 353.05,-311.71 325.72,-153.71 443.53,-63 501.33,-18.49 1020.79,-14.64 1169.76,-14.46"/>
<polygon fill="midnightblue" stroke="midnightblue" points="1169.84,-17.96 1179.83,-14.45 1169.83,-10.96 1169.84,-17.96"/>
</g>
<!-- Node41&#45;&gt;Node10 -->
<g id="edge74" class="edge">
<title>Node41&#45;&gt;Node10</title>
<path fill="none" stroke="midnightblue" d="M721.76,-434.36C634.2,-418.44 523.36,-398.05 518.53,-396 473.89,-377.13 451.79,-376.04 429.53,-333 420.34,-315.24 423.69,-307.13 429.53,-288 454.85,-205 464.11,-170.64 538.53,-126 604.38,-86.51 823.99,-78.79 939.73,-77.53"/>
<polygon fill="midnightblue" stroke="midnightblue" points="939.95,-81.03 949.92,-77.43 939.88,-74.03 939.95,-81.03"/>
</g>
<!-- Node41&#45;&gt;Node13 -->
<g id="edge75" class="edge">
<title>Node41&#45;&gt;Node13</title>
<path fill="none" stroke="midnightblue" d="M721.92,-434.09C717.06,-433.35 712.24,-432.65 707.53,-432 542.09,-409.26 491.87,-449.03 333.53,-396 311.77,-388.71 310.52,-378.26 289.53,-369 236.63,-345.67 199.58,-378.98 164.53,-333 138.15,-298.41 107.52,-142.23 163.53,-63 184.95,-32.7 226.98,-21.2 258.86,-16.91"/>
<polygon fill="midnightblue" stroke="midnightblue" points="259.29,-20.38 268.82,-15.75 258.48,-13.43 259.29,-20.38"/>
</g>
<!-- Node41&#45;&gt;Node16 -->
<g id="edge76" class="edge">
<title>Node41&#45;&gt;Node16</title>
<path fill="none" stroke="midnightblue" d="M863.89,-432.36C962.11,-375.27 1231.38,-218.76 1321.04,-166.64"/>
<polygon fill="midnightblue" stroke="midnightblue" points="1322.99,-169.56 1329.87,-161.51 1319.47,-163.51 1322.99,-169.56"/>
</g>
<!-- Node41&#45;&gt;Node24 -->
<g id="edge73" class="edge">
<title>Node41&#45;&gt;Node24</title>
<path fill="none" stroke="midnightblue" d="M830.37,-432.24C833.53,-408.61 838.67,-370.2 842.3,-343.06"/>
<polygon fill="midnightblue" stroke="midnightblue" points="845.81,-343.28 843.66,-332.9 838.87,-342.35 845.81,-343.28"/>
</g>
<!-- Node42&#45;&gt;Node40 -->
<g id="edge81" class="edge">
<title>Node42&#45;&gt;Node40</title>
<path fill="none" stroke="midnightblue" d="M638.12,-522.87C773.98,-516.43 1129.3,-498.78 1425.53,-477 1648.93,-460.57 1704.31,-450.82 1927.53,-432 2130.11,-414.92 2186.39,-445.68 2383.53,-396 2515.78,-362.67 2550.04,-339.66 2654.53,-252 2675.26,-234.61 2674.67,-224.23 2695.53,-207 2714.54,-191.29 2738.24,-176.83 2757.08,-166.33"/>
<polygon fill="midnightblue" stroke="midnightblue" points="2758.81,-169.38 2765.9,-161.51 2755.45,-163.24 2758.81,-169.38"/>
</g>
<!-- Node43 -->
<g id="node32" class="node">
<title>Node43</title>
<g id="a_node32"><a xlink:title=" ">
<polygon fill="white" stroke="#bfbfbf" points="444.03,-441.5 444.03,-467.5 665.03,-467.5 665.03,-441.5 444.03,-441.5"/>
<text text-anchor="middle" x="554.53" y="-450.7" font-family="Source Sans Pro" font-size="16.00">glm/ext/matrix_transform.hpp</text>
</a>
</g>
</g>
<!-- Node42&#45;&gt;Node43 -->
<g id="edge80" class="edge">
<title>Node42&#45;&gt;Node43</title>
<path fill="none" stroke="midnightblue" d="M576.82,-513.31C572.99,-503.37 567.48,-489.09 562.9,-477.21"/>
<polygon fill="midnightblue" stroke="midnightblue" points="566.04,-475.62 559.18,-467.55 559.51,-478.14 566.04,-475.62"/>
</g>
<!-- Node44 -->
<g id="node33" class="node">
<title>Node44</title>
<g id="a_node33"><a xlink:title=" ">
<polygon fill="white" stroke="#bfbfbf" points="367.03,-441.5 367.03,-467.5 426.03,-467.5 426.03,-441.5 367.03,-441.5"/>
<text text-anchor="middle" x="396.53" y="-450.7" font-family="Source Sans Pro" font-size="16.00">cmath</text>
</a>
</g>
</g>
<!-- Node42&#45;&gt;Node44 -->
<g id="edge82" class="edge">
<title>Node42&#45;&gt;Node44</title>
<path fill="none" stroke="midnightblue" d="M537.59,-513.47C507.93,-504.75 468.19,-491.9 434.53,-477 431.48,-475.65 428.35,-474.13 425.27,-472.54"/>
<polygon fill="midnightblue" stroke="midnightblue" points="426.72,-469.34 416.26,-467.64 423.38,-475.49 426.72,-469.34"/>
</g>
<!-- Node45&#45;&gt;Node8 -->
<g id="edge94" class="edge">
<title>Node45&#45;&gt;Node8</title>
<path fill="none" stroke="midnightblue" d="M2037.16,-216.44C2047.45,-213.05 2058.87,-209.58 2069.53,-207 2166.67,-183.45 2195.96,-200.31 2291.53,-171 2336.96,-157.07 2343.6,-141.5 2388.53,-126 2664.27,-30.87 3021.3,-16.82 3136.75,-14.81"/>
<polygon fill="midnightblue" stroke="midnightblue" points="3136.9,-18.31 3146.84,-14.66 3136.79,-11.31 3136.9,-18.31"/>
</g>
<!-- Node45&#45;&gt;Node10 -->
<g id="edge92" class="edge">
<title>Node45&#45;&gt;Node10</title>
<path fill="none" stroke="midnightblue" d="M2035.99,-216.38C2072.88,-202.29 2128.75,-179.84 2134.53,-171 2145.46,-154.26 2148.36,-140.44 2134.53,-126 2098.22,-88.09 1328.63,-79.64 1085.48,-77.91"/>
<polygon fill="midnightblue" stroke="midnightblue" points="1085.35,-74.41 1075.33,-77.84 1085.3,-81.41 1085.35,-74.41"/>
</g>
<!-- Node45&#45;&gt;Node12 -->
<g id="edge89" class="edge">
<title>Node45&#45;&gt;Node12</title>
<path fill="none" stroke="midnightblue" d="M2037.52,-216.41C2047.72,-213.06 2059,-209.62 2069.53,-207 2114.41,-195.81 2244.78,-206.42 2274.53,-171 2287.39,-155.68 2282.41,-144.38 2274.53,-126 2269.5,-114.28 2260.09,-104.05 2250.7,-96.04"/>
<polygon fill="midnightblue" stroke="midnightblue" points="2252.59,-93.07 2242.58,-89.6 2248.24,-98.56 2252.59,-93.07"/>
</g>
<!-- Node45&#45;&gt;Node15 -->
<g id="edge90" class="edge">
<title>Node45&#45;&gt;Node15</title>
<path fill="none" stroke="midnightblue" d="M2036.07,-216.46C2046.62,-212.95 2058.46,-209.41 2069.53,-207 2206.78,-177.1 2245.42,-196.67 2383.53,-171 2393.73,-169.1 2404.53,-166.64 2414.85,-164.07"/>
<polygon fill="midnightblue" stroke="midnightblue" points="2415.74,-167.46 2424.56,-161.58 2414,-160.68 2415.74,-167.46"/>
</g>
<!-- Node45&#45;&gt;Node46 -->
<g id="edge84" class="edge">
<title>Node45&#45;&gt;Node46</title>
<path fill="none" stroke="midnightblue" d="M2034.63,-216.42C2045.51,-212.72 2057.9,-209.08 2069.53,-207 2471.9,-135.01 2581.31,-206.43 2988.53,-171 3011.61,-168.99 3036.48,-166.02 3059.54,-162.92"/>
<polygon fill="midnightblue" stroke="midnightblue" points="3060.22,-166.36 3069.65,-161.54 3059.27,-159.42 3060.22,-166.36"/>
</g>
<!-- Node45&#45;&gt;Node48 -->
<g id="edge91" class="edge">
<title>Node45&#45;&gt;Node48</title>
<path fill="none" stroke="midnightblue" d="M1946.34,-218.54C1920.51,-214.38 1889.56,-209.86 1861.53,-207 1560,-176.28 1481.01,-210.67 1180.53,-171 1166.73,-169.18 1152,-166.48 1138.19,-163.61"/>
<polygon fill="midnightblue" stroke="midnightblue" points="1138.83,-160.17 1128.32,-161.5 1137.37,-167.01 1138.83,-160.17"/>
</g>
<!-- Node49 -->
<g id="node38" class="node">
<title>Node49</title>
<g id="a_node38"><a xlink:title=" ">
<polygon fill="white" stroke="#bfbfbf" points="2592.03,-135.5 2592.03,-161.5 2643.03,-161.5 2643.03,-135.5 2592.03,-135.5"/>
<text text-anchor="middle" x="2617.53" y="-144.7" font-family="Source Sans Pro" font-size="16.00">array</text>
</a>
</g>
</g>
<!-- Node45&#45;&gt;Node49 -->
<g id="edge93" class="edge">
<title>Node45&#45;&gt;Node49</title>
<path fill="none" stroke="midnightblue" d="M2035.34,-216.43C2046.06,-212.83 2058.18,-209.24 2069.53,-207 2277.22,-165.92 2336.27,-209.12 2544.53,-171 2557.02,-168.71 2570.41,-165.12 2582.28,-161.51"/>
<polygon fill="midnightblue" stroke="midnightblue" points="2583.34,-164.85 2591.83,-158.51 2581.24,-158.17 2583.34,-164.85"/>
</g>
<!-- Node46&#45;&gt;Node7 -->
<g id="edge86" class="edge">
<title>Node46&#45;&gt;Node7</title>
<path fill="none" stroke="midnightblue" d="M3167.81,-135.47C3186.72,-124.25 3215.14,-107.39 3236.46,-94.74"/>
<polygon fill="midnightblue" stroke="midnightblue" points="3238.3,-97.72 3245.11,-89.61 3234.73,-91.7 3238.3,-97.72"/>
</g>
<!-- Node46&#45;&gt;Node8 -->
<g id="edge87" class="edge">
<title>Node46&#45;&gt;Node8</title>
<path fill="none" stroke="midnightblue" d="M3150.02,-135.23C3154.56,-112.86 3164.24,-65.16 3169.98,-36.88"/>
<polygon fill="midnightblue" stroke="midnightblue" points="3173.48,-37.24 3172.04,-26.74 3166.62,-35.85 3173.48,-37.24"/>
</g>
<!-- Node46&#45;&gt;Node10 -->
<g id="edge88" class="edge">
<title>Node46&#45;&gt;Node10</title>
<path fill="none" stroke="midnightblue" d="M3071.28,-135.46C3045.12,-131.79 3015.6,-128.16 2988.53,-126 2608.01,-95.7 1396.54,-81.43 1085.75,-78.22"/>
<polygon fill="midnightblue" stroke="midnightblue" points="1085.54,-74.72 1075.51,-78.11 1085.47,-81.72 1085.54,-74.72"/>
</g>
<!-- Node47 -->
<g id="node36" class="node">
<title>Node47</title>
<g id="a_node36"><a xlink:title=" ">
<polygon fill="white" stroke="#bfbfbf" points="2968.53,-63.5 2968.53,-89.5 3146.53,-89.5 3146.53,-63.5 2968.53,-63.5"/>
<text text-anchor="middle" x="3057.53" y="-72.7" font-family="Source Sans Pro" font-size="16.00">include/spdlog/logger.h</text>
</a>
</g>
</g>
<!-- Node46&#45;&gt;Node47 -->
<g id="edge85" class="edge">
<title>Node46&#45;&gt;Node47</title>
<path fill="none" stroke="midnightblue" d="M3131.85,-135.31C3117.91,-124.47 3097.33,-108.46 3081.35,-96.03"/>
<polygon fill="midnightblue" stroke="midnightblue" points="3083.07,-92.93 3073.02,-89.55 3078.77,-98.46 3083.07,-92.93"/>
</g>
<!-- Node50&#45;&gt;Node8 -->
<g id="edge101" class="edge">
<title>Node50&#45;&gt;Node8</title>
<path fill="none" stroke="midnightblue" d="M1689.39,-310.02C1972.39,-311.36 2935.94,-311.36 3237.53,-252 3294.23,-240.84 3303.1,-219.49 3359.53,-207 3407.1,-196.47 3763.52,-206.84 3796.53,-171 3804.79,-162.03 3800.16,-69.83 3793.53,-63 3753.02,-21.23 3340.46,-15.42 3212.3,-14.62"/>
<polygon fill="midnightblue" stroke="midnightblue" points="3212.2,-11.12 3202.18,-14.57 3212.16,-18.12 3212.2,-11.12"/>
</g>
<!-- Node50&#45;&gt;Node10 -->
<g id="edge99" class="edge">
<title>Node50&#45;&gt;Node10</title>
<path fill="none" stroke="midnightblue" d="M1531.9,-299.78C1474.59,-291.17 1395.72,-276.15 1329.53,-252 1258.72,-226.16 1238.96,-218.61 1180.53,-171 1160.23,-154.46 1163.93,-141.07 1142.53,-126 1121.5,-111.2 1095.4,-100.31 1072.12,-92.64"/>
<polygon fill="midnightblue" stroke="midnightblue" points="1072.93,-89.23 1062.34,-89.55 1070.82,-95.9 1072.93,-89.23"/>
</g>
<!-- Node50&#45;&gt;Node13 -->
<g id="edge100" class="edge">
<title>Node50&#45;&gt;Node13</title>
<path fill="none" stroke="midnightblue" d="M1531.84,-297.86C1504.85,-294.21 1474.41,-290.5 1446.53,-288 1282.1,-273.26 862.72,-299.2 704.53,-252 544.39,-204.22 381.15,-80.22 322.87,-33.07"/>
<polygon fill="midnightblue" stroke="midnightblue" points="325.01,-30.3 315.05,-26.69 320.58,-35.72 325.01,-30.3"/>
</g>
<!-- Node50&#45;&gt;Node18 -->
<g id="edge96" class="edge">
<title>Node50&#45;&gt;Node18</title>
<path fill="none" stroke="midnightblue" d="M1604.9,-297.16C1599.41,-285.1 1590.93,-266.49 1584.33,-252"/>
<polygon fill="midnightblue" stroke="midnightblue" points="1587.44,-250.41 1580.11,-242.76 1581.07,-253.31 1587.44,-250.41"/>
</g>
<!-- Node50&#45;&gt;Node19 -->
<g id="edge98" class="edge">
<title>Node50&#45;&gt;Node19</title>
<path fill="none" stroke="midnightblue" d="M1559.85,-297.43C1520.94,-287.4 1466.31,-271.6 1420.53,-252 1363.24,-227.47 1300.93,-189.43 1266.41,-167.24"/>
<polygon fill="midnightblue" stroke="midnightblue" points="1268.14,-164.2 1257.84,-161.7 1264.34,-170.07 1268.14,-164.2"/>
</g>
<!-- Node51 -->
<g id="node40" class="node">
<title>Node51</title>
<g id="a_node40"><a xlink:title=" ">
<polygon fill="white" stroke="#bfbfbf" points="2314.53,-216.5 2314.53,-242.5 2452.53,-242.5 2452.53,-216.5 2314.53,-216.5"/>
<text text-anchor="middle" x="2383.53" y="-225.7" font-family="Source Sans Pro" font-size="16.00">assimp/material.h</text>
</a>
</g>
</g>
<!-- Node50&#45;&gt;Node51 -->
<g id="edge97" class="edge">
<title>Node50&#45;&gt;Node51</title>
<path fill="none" stroke="midnightblue" d="M1689.13,-302.47C1737.18,-298.2 1799.9,-292.69 1855.53,-288 2053.25,-271.33 2104.87,-285 2300.53,-252 2311.09,-250.22 2322.28,-247.74 2332.91,-245.09"/>
<polygon fill="midnightblue" stroke="midnightblue" points="2334.07,-248.41 2342.88,-242.52 2332.32,-241.63 2334.07,-248.41"/>
</g>
<!-- Node52&#45;&gt;Node5 -->
<g id="edge103" class="edge">
<title>Node52&#45;&gt;Node5</title>
<path fill="none" stroke="midnightblue" d="M1903.01,-513.2C1893.16,-486.63 1868.8,-421.98 1845.53,-369 1827.05,-326.93 1803.15,-278.86 1789.46,-251.85"/>
<polygon fill="midnightblue" stroke="midnightblue" points="1792.4,-249.91 1784.75,-242.59 1786.16,-253.09 1792.4,-249.91"/>
</g>
<!-- Node52&#45;&gt;Node8 -->
<g id="edge143" class="edge">
<title>Node52&#45;&gt;Node8</title>
<path fill="none" stroke="midnightblue" d="M2018.04,-523.37C2392.64,-513.52 3603.43,-459.53 3828.53,-171 3836.1,-161.3 3831.18,-68.81 3825.53,-63 3782.66,-18.97 3345.2,-14.73 3212.49,-14.47"/>
<polygon fill="midnightblue" stroke="midnightblue" points="3212.4,-10.97 3202.39,-14.45 3212.39,-17.97 3212.4,-10.97"/>
</g>
<!-- Node52&#45;&gt;Node10 -->
<g id="edge141" class="edge">
<title>Node52&#45;&gt;Node10</title>
<path fill="none" stroke="midnightblue" d="M1796.89,-524.45C1649.27,-521.7 1396.6,-511.86 1311.53,-477 1293.5,-469.61 1054.65,-267.25 1042.53,-252 1005.89,-205.89 994.97,-184.52 1001.53,-126 1002.5,-117.29 1004.43,-107.86 1006.41,-99.65"/>
<polygon fill="midnightblue" stroke="midnightblue" points="1009.86,-100.29 1008.96,-89.73 1003.08,-98.55 1009.86,-100.29"/>
</g>
<!-- Node52&#45;&gt;Node16 -->
<g id="edge142" class="edge">
<title>Node52&#45;&gt;Node16</title>
<path fill="none" stroke="midnightblue" d="M1897.35,-513.49C1857.24,-466.25 1711.73,-295.4 1698.53,-288 1617.06,-242.36 1577.52,-288.4 1491.53,-252 1443.49,-231.67 1396.23,-192.26 1370.47,-168.67"/>
<polygon fill="midnightblue" stroke="midnightblue" points="1372.59,-165.86 1362.89,-161.61 1367.82,-170.99 1372.59,-165.86"/>
</g>
<!-- Node52&#45;&gt;Node25 -->
<g id="edge112" class="edge">
<title>Node52&#45;&gt;Node25</title>
<path fill="none" stroke="midnightblue" d="M1866.04,-513.44C1834.87,-504.14 1791.23,-490.6 1753.53,-477 1627.44,-431.53 1482.71,-370.31 1404.65,-336.52"/>
<polygon fill="midnightblue" stroke="midnightblue" points="1406.03,-333.3 1395.47,-332.54 1403.25,-339.73 1406.03,-333.3"/>
</g>
<!-- Node52&#45;&gt;Node26 -->
<g id="edge113" class="edge">
<title>Node52&#45;&gt;Node26</title>
<path fill="none" stroke="midnightblue" d="M1907.65,-513.37C1908.36,-494.62 1911.84,-458.01 1927.53,-432 1975.28,-352.81 2065.5,-290.12 2120.98,-256.82"/>
<polygon fill="midnightblue" stroke="midnightblue" points="2123.09,-259.64 2129.91,-251.53 2119.53,-253.61 2123.09,-259.64"/>
</g>
<!-- Node52&#45;&gt;Node38 -->
<g id="edge130" class="edge">
<title>Node52&#45;&gt;Node38</title>
<path fill="none" stroke="midnightblue" d="M2018.26,-521.23C2125.84,-515.7 2293.46,-503.42 2436.53,-477 2800.16,-409.84 2907.66,-419.1 3237.53,-252 3281.27,-229.84 3324.62,-191.98 3348.85,-169"/>
<polygon fill="midnightblue" stroke="midnightblue" points="3351.53,-171.28 3356.31,-161.82 3346.68,-166.23 3351.53,-171.28"/>
</g>
<!-- Node52&#45;&gt;Node50 -->
<g id="edge129" class="edge">
<title>Node52&#45;&gt;Node50</title>
<path fill="none" stroke="midnightblue" d="M1882.39,-513.48C1863.94,-504.31 1838.55,-490.9 1817.53,-477 1745.46,-429.33 1667.73,-362.54 1631.43,-330.33"/>
<polygon fill="midnightblue" stroke="midnightblue" points="1633.72,-327.68 1623.92,-323.64 1629.06,-332.91 1633.72,-327.68"/>
</g>
<!-- Node53 -->
<g id="node42" class="node">
<title>Node53</title>
<g id="a_node42"><a xlink:href="_i_e_descriptor_set_8hpp.html" target="_top" xlink:title=" ">
<polygon fill="white" stroke="black" points="713.53,-207.5 713.53,-251.5 893.53,-251.5 893.53,-207.5 713.53,-207.5"/>
<text text-anchor="start" x="721.53" y="-234.7" font-family="Source Sans Pro" font-size="16.00">GraphicsModule/Shader</text>
<text text-anchor="middle" x="803.53" y="-216.7" font-family="Source Sans Pro" font-size="16.00">/IEDescriptorSet.hpp</text>
</a>
</g>
</g>
<!-- Node52&#45;&gt;Node53 -->
<g id="edge104" class="edge">
<title>Node52&#45;&gt;Node53</title>
<path fill="none" stroke="midnightblue" d="M1796.75,-524.76C1596.59,-522.51 1190.44,-513.46 1137.53,-477 1061.53,-424.64 1122.95,-346.44 1051.53,-288 1028.69,-269.31 962.21,-254.48 903.82,-244.56"/>
<polygon fill="midnightblue" stroke="midnightblue" points="904.22,-241.08 893.78,-242.89 903.07,-247.98 904.22,-241.08"/>
</g>
<!-- Node55 -->
<g id="node44" class="node">
<title>Node55</title>
<g id="a_node44"><a xlink:href="_i_e_uniform_buffer_object_8hpp.html" target="_top" xlink:title=" ">
<polygon fill="white" stroke="black" points="2704.53,-207.5 2704.53,-251.5 2910.53,-251.5 2910.53,-207.5 2704.53,-207.5"/>
<text text-anchor="start" x="2712.53" y="-234.7" font-family="Source Sans Pro" font-size="16.00">GraphicsModule/Shader</text>
<text text-anchor="middle" x="2807.53" y="-216.7" font-family="Source Sans Pro" font-size="16.00">/IEUniformBufferObject.hpp</text>
</a>
</g>
</g>
<!-- Node52&#45;&gt;Node55 -->
<g id="edge114" class="edge">
<title>Node52&#45;&gt;Node55</title>
<path fill="none" stroke="midnightblue" d="M2018.18,-519.06C2133.59,-511.43 2306.33,-497.15 2369.53,-477 2530.9,-425.56 2699.37,-310.41 2771.4,-257.74"/>
<polygon fill="midnightblue" stroke="midnightblue" points="2773.72,-260.38 2779.7,-251.63 2769.57,-254.74 2773.72,-260.38"/>
</g>
<!-- Node56 -->
<g id="node45" class="node">
<title>Node56</title>
<g id="a_node45"><a xlink:href="_i_e_material_8hpp.html" target="_top" xlink:title=" ">
<polygon fill="white" stroke="red" points="2260.53,-369.5 2260.53,-395.5 2374.53,-395.5 2374.53,-369.5 2260.53,-369.5"/>
<text text-anchor="middle" x="2317.53" y="-378.7" font-family="Source Sans Pro" font-size="16.00">IEMaterial.hpp</text>
</a>
</g>
</g>
<!-- Node52&#45;&gt;Node56 -->
<g id="edge118" class="edge">
<title>Node52&#45;&gt;Node56</title>
<path fill="none" stroke="midnightblue" d="M2018.12,-525.76C2119.23,-523.58 2258.87,-513.71 2298.53,-477 2317.88,-459.08 2320.51,-427.28 2319.73,-405.79"/>
<polygon fill="midnightblue" stroke="midnightblue" points="2323.21,-405.39 2319.08,-395.63 2316.23,-405.83 2323.21,-405.39"/>
</g>
<!-- Node60 -->
<g id="node46" class="node">
<title>Node60</title>
<g id="a_node46"><a xlink:href="_i_e_vertex_8hpp.html" target="_top" xlink:title=" ">
<polygon fill="white" stroke="black" points="2509.03,-216.5 2509.03,-242.5 2610.03,-242.5 2610.03,-216.5 2509.03,-216.5"/>
<text text-anchor="middle" x="2559.53" y="-225.7" font-family="Source Sans Pro" font-size="16.00">IEVertex.hpp</text>
</a>
</g>
</g>
<!-- Node52&#45;&gt;Node60 -->
<g id="edge124" class="edge">
<title>Node52&#45;&gt;Node60</title>
<path fill="none" stroke="midnightblue" d="M2018.1,-520.91C2122.29,-515.1 2269.89,-502.57 2321.53,-477 2429.45,-423.56 2515.52,-300.48 2546.81,-251.33"/>
<polygon fill="midnightblue" stroke="midnightblue" points="2549.82,-253.12 2552.17,-242.79 2543.89,-249.4 2549.82,-253.12"/>
</g>
<!-- Node61 -->
<g id="node47" class="node">
<title>Node61</title>
<g id="a_node47"><a xlink:href="_i_e_mesh_8hpp.html" target="_top" xlink:title=" ">
<polygon fill="white" stroke="black" points="1320.53,-441.5 1320.53,-467.5 1416.53,-467.5 1416.53,-441.5 1320.53,-441.5"/>
<text text-anchor="middle" x="1368.53" y="-450.7" font-family="Source Sans Pro" font-size="16.00">IEMesh.hpp</text>
</a>
</g>
</g>
<!-- Node52&#45;&gt;Node61 -->
<g id="edge131" class="edge">
<title>Node52&#45;&gt;Node61</title>
<path fill="none" stroke="midnightblue" d="M1814.87,-513.47C1703.47,-499 1519.88,-475.16 1426.69,-463.05"/>
<polygon fill="midnightblue" stroke="midnightblue" points="1426.96,-459.56 1416.6,-461.74 1426.06,-466.5 1426.96,-459.56"/>
</g>
<!-- Node62 -->
<g id="node48" class="node">
<title>Node62</title>
<g id="a_node48"><a xlink:title=" ">
<polygon fill="white" stroke="#bfbfbf" points="1936.03,-441.5 1936.03,-467.5 2111.03,-467.5 2111.03,-441.5 1936.03,-441.5"/>
<text text-anchor="middle" x="2023.53" y="-450.7" font-family="Source Sans Pro" font-size="16.00">assimp/BaseImporter.h</text>
</a>
</g>
</g>
<!-- Node52&#45;&gt;Node62 -->
<g id="edge139" class="edge">
<title>Node52&#45;&gt;Node62</title>
<path fill="none" stroke="midnightblue" d="M1927.47,-513.47C1945.98,-502.3 1973.74,-485.54 1994.67,-472.91"/>
<polygon fill="midnightblue" stroke="midnightblue" points="1996.7,-475.77 2003.46,-467.61 1993.09,-469.78 1996.7,-475.77"/>
</g>
<!-- Node63 -->
<g id="node49" class="node">
<title>Node63</title>
<g id="a_node49"><a xlink:title=" ">
<polygon fill="white" stroke="#bfbfbf" points="2129.53,-441.5 2129.53,-467.5 2289.53,-467.5 2289.53,-441.5 2129.53,-441.5"/>
<text text-anchor="middle" x="2209.53" y="-450.7" font-family="Source Sans Pro" font-size="16.00">assimp/Importer.hpp</text>
</a>
</g>
</g>
<!-- Node52&#45;&gt;Node63 -->
<g id="edge140" class="edge">
<title>Node52&#45;&gt;Node63</title>
<path fill="none" stroke="midnightblue" d="M1961.41,-513.44C2004.5,-503.74 2066.44,-489.69 2120.53,-477 2130.16,-474.74 2140.37,-472.31 2150.31,-469.92"/>
<polygon fill="midnightblue" stroke="midnightblue" points="2151.22,-473.3 2160.13,-467.56 2149.58,-466.5 2151.22,-473.3"/>
</g>
<!-- Node53&#45;&gt;Node6 -->
<g id="edge105" class="edge">
<title>Node53&#45;&gt;Node6</title>
<path fill="none" stroke="midnightblue" d="M893.68,-223.89C1063.03,-215.05 1440.23,-194.48 1757.53,-171 1793.92,-168.31 1833.32,-165.02 1869.66,-161.83"/>
<polygon fill="midnightblue" stroke="midnightblue" points="1870.17,-165.29 1879.83,-160.93 1869.56,-158.32 1870.17,-165.29"/>
</g>
<!-- Node53&#45;&gt;Node9 -->
<g id="edge111" class="edge">
<title>Node53&#45;&gt;Node9</title>
<path fill="none" stroke="midnightblue" d="M793.86,-207.28C785.44,-185.37 776.69,-150.95 791.53,-126 821.52,-75.58 851.99,-81.92 907.53,-63 998.14,-32.12 1110.9,-20.68 1169.68,-16.62"/>
<polygon fill="midnightblue" stroke="midnightblue" points="1170.26,-20.09 1180.01,-15.94 1169.8,-13.1 1170.26,-20.09"/>
</g>
<!-- Node53&#45;&gt;Node10 -->
<g id="edge106" class="edge">
<title>Node53&#45;&gt;Node10</title>
<path fill="none" stroke="midnightblue" d="M798.6,-207.35C794.62,-184.51 792.42,-148.41 811.53,-126 828.26,-106.38 889.52,-93.5 940.06,-85.98"/>
<polygon fill="midnightblue" stroke="midnightblue" points="940.6,-89.44 950,-84.55 939.61,-82.51 940.6,-89.44"/>
</g>
<!-- Node53&#45;&gt;Node13 -->
<g id="edge107" class="edge">
<title>Node53&#45;&gt;Node13</title>
<path fill="none" stroke="midnightblue" d="M786.9,-207.26C767.59,-184 733.6,-147.19 696.53,-126 578.52,-58.56 417.13,-29.77 342.07,-19.44"/>
<polygon fill="midnightblue" stroke="midnightblue" points="342.44,-15.96 332.06,-18.1 341.51,-22.89 342.44,-15.96"/>
</g>
<!-- Node53&#45;&gt;Node16 -->
<g id="edge108" class="edge">
<title>Node53&#45;&gt;Node16</title>
<path fill="none" stroke="midnightblue" d="M893.87,-225.48C994.16,-220.41 1160.14,-206.9 1298.53,-171 1304.28,-169.51 1310.24,-167.51 1315.98,-165.33"/>
<polygon fill="midnightblue" stroke="midnightblue" points="1317.39,-168.53 1325.35,-161.55 1314.77,-162.04 1317.39,-168.53"/>
</g>
<!-- Node53&#45;&gt;Node35 -->
<g id="edge110" class="edge">
<title>Node53&#45;&gt;Node35</title>
<path fill="none" stroke="midnightblue" d="M763.87,-207.33C739.89,-194.53 709.74,-178.44 687.33,-166.48"/>
<polygon fill="midnightblue" stroke="midnightblue" points="688.72,-163.25 678.25,-161.63 685.42,-169.42 688.72,-163.25"/>
</g>
<!-- Node54 -->
<g id="node43" class="node">
<title>Node54</title>
<g id="a_node43"><a xlink:title=" ">
<polygon fill="white" stroke="#bfbfbf" points="820.03,-135.5 820.03,-161.5 893.03,-161.5 893.03,-135.5 820.03,-135.5"/>
<text text-anchor="middle" x="856.53" y="-144.7" font-family="Source Sans Pro" font-size="16.00">optional</text>
</a>
</g>
</g>
<!-- Node53&#45;&gt;Node54 -->
<g id="edge109" class="edge">
<title>Node53&#45;&gt;Node54</title>
<path fill="none" stroke="midnightblue" d="M817.73,-207.33C825.47,-195.79 835.01,-181.57 842.7,-170.11"/>
<polygon fill="midnightblue" stroke="midnightblue" points="845.73,-171.88 848.39,-161.63 839.91,-167.98 845.73,-171.88"/>
</g>
<!-- Node55&#45;&gt;Node8 -->
<g id="edge116" class="edge">
<title>Node55&#45;&gt;Node8</title>
<path fill="none" stroke="midnightblue" d="M2910.84,-215.46C2938.33,-212.33 2968.02,-209.24 2995.53,-207 3036.44,-203.67 3705.22,-200.72 3733.53,-171 3766.63,-136.24 3765.97,-98.38 3733.53,-63 3698.34,-24.63 3332.04,-16.52 3212.22,-14.89"/>
<polygon fill="midnightblue" stroke="midnightblue" points="3212.11,-11.39 3202.07,-14.76 3212.02,-18.39 3212.11,-11.39"/>
</g>
<!-- Node55&#45;&gt;Node15 -->
<g id="edge117" class="edge">
<title>Node55&#45;&gt;Node15</title>
<path fill="none" stroke="midnightblue" d="M2716.59,-207.43C2657.1,-193.65 2580.93,-176 2528.38,-163.83"/>
<polygon fill="midnightblue" stroke="midnightblue" points="2529.05,-160.39 2518.52,-161.55 2527.47,-167.21 2529.05,-160.39"/>
</g>
<!-- Node55&#45;&gt;Node40 -->
<g id="edge115" class="edge">
<title>Node55&#45;&gt;Node40</title>
<path fill="none" stroke="midnightblue" d="M2802.7,-207.33C2800.18,-196.25 2797.09,-182.69 2794.54,-171.49"/>
<polygon fill="midnightblue" stroke="midnightblue" points="2797.92,-170.6 2792.29,-161.63 2791.1,-172.16 2797.92,-170.6"/>
</g>
<!-- Node56&#45;&gt;Node8 -->
<g id="edge122" class="edge">
<title>Node56&#45;&gt;Node8</title>
<path fill="none" stroke="midnightblue" d="M2374.61,-381.11C2529.38,-378.58 2968.5,-361.5 3312.53,-252 3353.26,-239.04 3356.53,-219.09 3397.53,-207 3486.32,-180.82 3749.96,-239.23 3812.53,-171 3820.77,-162.01 3816.14,-69.8 3809.53,-63 3767.84,-20.1 3342.83,-15.07 3212.39,-14.54"/>
<polygon fill="midnightblue" stroke="midnightblue" points="3212.11,-11.04 3202.1,-14.51 3212.09,-18.04 3212.11,-11.04"/>
</g>
<!-- Node56&#45;&gt;Node19 -->
<g id="edge121" class="edge">
<title>Node56&#45;&gt;Node19</title>
<path fill="none" stroke="midnightblue" d="M2260.5,-372.98C2079.66,-345.91 1528.72,-262.99 1491.53,-252 1444.4,-238.07 1435.95,-225.75 1390.53,-207 1354.26,-192.03 1312.55,-176.25 1282.17,-165.02"/>
<polygon fill="midnightblue" stroke="midnightblue" points="1283.32,-161.71 1272.73,-161.54 1280.9,-168.28 1283.32,-161.71"/>
</g>
<!-- Node56&#45;&gt;Node40 -->
<g id="edge123" class="edge">
<title>Node56&#45;&gt;Node40</title>
<path fill="none" stroke="midnightblue" d="M2359.52,-369.44C2420.45,-350.67 2535.28,-310.46 2619.53,-252 2642.25,-236.23 2639.96,-223 2662.53,-207 2687.56,-189.25 2718.96,-174.98 2744.27,-165.09"/>
<polygon fill="midnightblue" stroke="midnightblue" points="2745.54,-168.35 2753.64,-161.52 2743.05,-161.81 2745.54,-168.35"/>
</g>
<!-- Node56&#45;&gt;Node50 -->
<g id="edge120" class="edge">
<title>Node56&#45;&gt;Node50</title>
<path fill="none" stroke="midnightblue" d="M2260.27,-375.83C2137.23,-363.65 1846.89,-334.9 1699.58,-320.32"/>
<polygon fill="midnightblue" stroke="midnightblue" points="1699.52,-316.79 1689.22,-319.29 1698.83,-323.76 1699.52,-316.79"/>
</g>
<!-- Node56&#45;&gt;Node51 -->
<g id="edge119" class="edge">
<title>Node56&#45;&gt;Node51</title>
<path fill="none" stroke="midnightblue" d="M2322.82,-369.4C2333.97,-343.89 2360.02,-284.29 2374.1,-252.08"/>
<polygon fill="midnightblue" stroke="midnightblue" points="2377.41,-253.22 2378.21,-242.66 2371,-250.42 2377.41,-253.22"/>
</g>
<!-- Node60&#45;&gt;Node8 -->
<g id="edge128" class="edge">
<title>Node60&#45;&gt;Node8</title>
<path fill="none" stroke="midnightblue" d="M2589.27,-216.46C2621.11,-203.31 2669.26,-182.57 2685.53,-171 2708.07,-154.97 2706.25,-142.39 2728.53,-126 2779.28,-88.66 2795.44,-81.96 2855.53,-63 2954.05,-31.91 3076.18,-20.44 3136.77,-16.46"/>
<polygon fill="midnightblue" stroke="midnightblue" points="3137.24,-19.94 3147,-15.82 3136.8,-12.95 3137.24,-19.94"/>
</g>
<!-- Node60&#45;&gt;Node15 -->
<g id="edge126" class="edge">
<title>Node60&#45;&gt;Node15</title>
<path fill="none" stroke="midnightblue" d="M2545,-216.16C2529.98,-203.4 2506.35,-183.33 2488.94,-168.54"/>
<polygon fill="midnightblue" stroke="midnightblue" points="2490.84,-165.56 2480.96,-161.76 2486.31,-170.9 2490.84,-165.56"/>
</g>
<!-- Node60&#45;&gt;Node40 -->
<g id="edge125" class="edge">
<title>Node60&#45;&gt;Node40</title>
<path fill="none" stroke="midnightblue" d="M2594.71,-216.42C2634.95,-202.59 2700.93,-179.93 2744.8,-164.86"/>
<polygon fill="midnightblue" stroke="midnightblue" points="2746.03,-168.14 2754.35,-161.58 2743.75,-161.52 2746.03,-168.14"/>
</g>
<!-- Node60&#45;&gt;Node49 -->
<g id="edge127" class="edge">
<title>Node60&#45;&gt;Node49</title>
<path fill="none" stroke="midnightblue" d="M2568.59,-216.16C2577.61,-203.87 2591.63,-184.78 2602.35,-170.17"/>
<polygon fill="midnightblue" stroke="midnightblue" points="2605.43,-171.89 2608.53,-161.76 2599.79,-167.75 2605.43,-171.89"/>
</g>
<!-- Node61&#45;&gt;Node5 -->
<g id="edge132" class="edge">
<title>Node61&#45;&gt;Node5</title>
<path fill="none" stroke="midnightblue" d="M1375.79,-441.34C1396.78,-406.59 1458.02,-308.1 1489.53,-288 1498.55,-282.24 1619.41,-259.42 1701.95,-244.31"/>
<polygon fill="midnightblue" stroke="midnightblue" points="1702.6,-247.75 1711.81,-242.51 1701.34,-240.87 1702.6,-247.75"/>
</g>
<!-- Node61&#45;&gt;Node9 -->
<g id="edge138" class="edge">
<title>Node61&#45;&gt;Node9</title>
<path fill="none" stroke="midnightblue" d="M1320.3,-451.24C1145.68,-442.92 554.79,-413.58 518.53,-396 452.45,-363.96 448.07,-324.67 437.53,-252 425.27,-167.46 407.14,-117.97 472.53,-63 526.09,-17.97 1024.16,-14.47 1169.74,-14.42"/>
<polygon fill="midnightblue" stroke="midnightblue" points="1170,-17.92 1180,-14.42 1170,-10.92 1170,-17.92"/>
</g>
<!-- Node61&#45;&gt;Node13 -->
<g id="edge137" class="edge">
<title>Node61&#45;&gt;Node13</title>
<path fill="none" stroke="midnightblue" d="M1320.39,-450.94C1137.4,-441.13 494.34,-406.02 475.53,-396 338.44,-323.02 308.32,-107.12 302.07,-36.87"/>
<polygon fill="midnightblue" stroke="midnightblue" points="305.53,-36.22 301.24,-26.54 298.55,-36.79 305.53,-36.22"/>
</g>
<!-- Node61&#45;&gt;Node25 -->
<g id="edge134" class="edge">
<title>Node61&#45;&gt;Node25</title>
<path fill="none" stroke="midnightblue" d="M1366.74,-441.39C1363.54,-419.79 1356.77,-373.98 1352.18,-342.96"/>
<polygon fill="midnightblue" stroke="midnightblue" points="1355.58,-342.04 1350.66,-332.66 1348.66,-343.07 1355.58,-342.04"/>
</g>
<!-- Node61&#45;&gt;Node53 -->
<g id="edge133" class="edge">
<title>Node61&#45;&gt;Node53</title>
<path fill="none" stroke="midnightblue" d="M1352.7,-441.3C1311.88,-410.5 1198.77,-329.09 1091.53,-288 1013.71,-258.19 989.22,-268.44 907.53,-252 906.26,-251.74 904.98,-251.49 903.69,-251.23"/>
<polygon fill="midnightblue" stroke="midnightblue" points="904.2,-247.76 893.71,-249.2 902.81,-254.62 904.2,-247.76"/>
</g>
<!-- Node61&#45;&gt;Node56 -->
<g id="edge135" class="edge">
<title>Node61&#45;&gt;Node56</title>
<path fill="none" stroke="midnightblue" d="M1408.3,-441.5C1421.89,-437.85 1437.26,-434.22 1451.53,-432 1746.48,-386 2103.93,-382.16 2250.21,-382.77"/>
<polygon fill="midnightblue" stroke="midnightblue" points="2250.36,-386.27 2260.38,-382.82 2250.4,-379.27 2250.36,-386.27"/>
</g>
<!-- Node61&#45;&gt;Node60 -->
<g id="edge136" class="edge">
<title>Node61&#45;&gt;Node60</title>
<path fill="none" stroke="midnightblue" d="M1412.31,-441.48C1424.92,-438.21 1438.73,-434.79 1451.53,-432 1897,-334.76 2014.31,-340.87 2461.53,-252 2473.73,-249.58 2486.75,-246.83 2499.18,-244.13"/>
<polygon fill="midnightblue" stroke="midnightblue" points="2499.97,-247.54 2509,-241.99 2498.48,-240.7 2499.97,-247.54"/>
</g>
<!-- Node64&#45;&gt;Node7 -->
<g id="edge152" class="edge">
<title>Node64&#45;&gt;Node7</title>
<path fill="none" stroke="midnightblue" d="M3418.31,-576.35C3428.71,-553.32 3449.53,-501.52 3449.53,-455.5 3449.53,-455.5 3449.53,-455.5 3449.53,-228.5 3449.53,-182.17 3461.57,-160.4 3430.53,-126 3414.74,-108.5 3355.69,-94.15 3312.73,-85.71"/>
<polygon fill="midnightblue" stroke="midnightblue" points="3313.22,-82.24 3302.74,-83.79 3311.9,-89.11 3313.22,-82.24"/>
</g>
</g>
</svg>
