<?xml version="1.0" encoding="UTF-8" standalone="no"?>
<!DOCTYPE svg PUBLIC "-//W3C//DTD SVG 1.1//EN"
 "http://www.w3.org/Graphics/SVG/1.1/DTD/svg11.dtd">
<!-- Generated by graphviz version 2.43.0 (0)
 -->
<!-- Title: Illumination&#45;Engine/src/GraphicsModule/Image/IENDimensionalResizableImage.hpp Pages: 1 -->
<svg width="338pt" height="152pt"
 viewBox="0.00 0.00 337.50 152.00" xmlns="http://www.w3.org/2000/svg" xmlns:xlink="http://www.w3.org/1999/xlink">
<g id="graph0" class="graph" transform="scale(1 1) rotate(0) translate(4 148)">
<title>Illumination&#45;Engine/src/GraphicsModule/Image/IENDimensionalResizableImage.hpp</title>
<polygon fill="white" stroke="transparent" points="-4,4 -4,-148 333.5,-148 333.5,4 -4,4"/>
<!-- Node1 -->
<g id="node1" class="node">
<title>Node1</title>
<g id="a_node1"><a xlink:title=" ">
<polygon fill="#bfbfbf" stroke="black" points="31,-63.5 31,-143.5 272,-143.5 272,-63.5 31,-63.5"/>
<text text-anchor="start" x="39" y="-126.7" font-family="Source Sans Pro" font-size="16.00">Illumination&#45;Engine</text>
<text text-anchor="start" x="39" y="-108.7" font-family="Source Sans Pro" font-size="16.00">/src/GraphicsModule</text>
<text text-anchor="start" x="39" y="-90.7" font-family="Source Sans Pro" font-size="16.00">/Image/IENDimensionalResizable</text>
<text text-anchor="middle" x="151.5" y="-72.7" font-family="Source Sans Pro" font-size="16.00">Image.hpp</text>
</a>
</g>
</g>
<!-- Node2 -->
<g id="node2" class="node">
<title>Node2</title>
<g id="a_node2"><a xlink:title=" ">
<polygon fill="white" stroke="#bfbfbf" points="0,-0.5 0,-26.5 59,-26.5 59,-0.5 0,-0.5"/>
<text text-anchor="middle" x="29.5" y="-9.7" font-family="Source Sans Pro" font-size="16.00">vector</text>
</a>
</g>
</g>
<!-- Node1&#45;&gt;Node2 -->
<g id="edge1" class="edge">
<title>Node1&#45;&gt;Node2</title>
<path fill="none" stroke="midnightblue" d="M97.28,-63.39C82.43,-52.68 67.03,-41.57 54.68,-32.66"/>
<polygon fill="midnightblue" stroke="midnightblue" points="56.43,-29.61 46.27,-26.6 52.33,-35.28 56.43,-29.61"/>
</g>
<!-- Node3 -->
<g id="node3" class="node">
<title>Node3</title>
<g id="a_node3"><a xlink:title=" ">
<polygon fill="white" stroke="#bfbfbf" points="77,-0.5 77,-26.5 140,-26.5 140,-0.5 77,-0.5"/>
<text text-anchor="middle" x="108.5" y="-9.7" font-family="Source Sans Pro" font-size="16.00">cstdint</text>
</a>
</g>
</g>
<!-- Node1&#45;&gt;Node3 -->
<g id="edge2" class="edge">
<title>Node1&#45;&gt;Node3</title>
<path fill="none" stroke="midnightblue" d="M132.39,-63.39C127.8,-53.99 123.06,-44.29 119.02,-36.03"/>
<polygon fill="midnightblue" stroke="midnightblue" points="122.04,-34.24 114.51,-26.79 115.75,-37.32 122.04,-34.24"/>
</g>
<!-- Node4 -->
<g id="node4" class="node">
<title>Node4</title>
<g id="a_node4"><a xlink:title=" ">
<polygon fill="white" stroke="#bfbfbf" points="158,-0.5 158,-26.5 231,-26.5 231,-0.5 158,-0.5"/>
<text text-anchor="middle" x="194.5" y="-9.7" font-family="Source Sans Pro" font-size="16.00">typeinfo</text>
</a>
</g>
</g>
<!-- Node1&#45;&gt;Node4 -->
<g id="edge3" class="edge">
<title>Node1&#45;&gt;Node4</title>
<path fill="none" stroke="midnightblue" d="M170.61,-63.39C175.2,-53.99 179.94,-44.29 183.98,-36.03"/>
<polygon fill="midnightblue" stroke="midnightblue" points="187.25,-37.32 188.49,-26.79 180.96,-34.24 187.25,-37.32"/>
</g>
<!-- Node5 -->
<g id="node5" class="node">
<title>Node5</title>
<g id="a_node5"><a xlink:title=" ">
<polygon fill="white" stroke="#bfbfbf" points="249.5,-0.5 249.5,-26.5 329.5,-26.5 329.5,-0.5 249.5,-0.5"/>
<text text-anchor="middle" x="289.5" y="-9.7" font-family="Source Sans Pro" font-size="16.00">stdexcept</text>
</a>
</g>
</g>
<!-- Node1&#45;&gt;Node5 -->
<g id="edge4" class="edge">
<title>Node1&#45;&gt;Node5</title>
<path fill="none" stroke="midnightblue" d="M212.83,-63.39C229.96,-52.47 247.72,-41.14 261.83,-32.14"/>
<polygon fill="midnightblue" stroke="midnightblue" points="263.98,-34.92 270.53,-26.6 260.22,-29.02 263.98,-34.92"/>
</g>
</g>
</svg>
