<?xml version="1.0" encoding="UTF-8" standalone="no"?>
<!DOCTYPE svg PUBLIC "-//W3C//DTD SVG 1.1//EN"
 "http://www.w3.org/Graphics/SVG/1.1/DTD/svg11.dtd">
<!-- Generated by graphviz version 2.43.0 (0)
 -->
<!-- Title: Illumination&#45;Engine/src/GraphicsModule/Renderable/IEVertex.hpp Pages: 1 -->
<svg width="3584pt" height="467pt"
 viewBox="0.00 0.00 3583.50 467.00" xmlns="http://www.w3.org/2000/svg" xmlns:xlink="http://www.w3.org/1999/xlink">
<g id="graph0" class="graph" transform="scale(1 1) rotate(0) translate(4 463)">
<title>Illumination&#45;Engine/src/GraphicsModule/Renderable/IEVertex.hpp</title>
<polygon fill="white" stroke="transparent" points="-4,4 -4,-463 3579.5,-463 3579.5,4 -4,4"/>
<!-- Node1 -->
<g id="node1" class="node">
<title>Node1</title>
<g id="a_node1"><a xlink:title=" ">
<polygon fill="#bfbfbf" stroke="black" points="1723.5,-396.5 1723.5,-458.5 1913.5,-458.5 1913.5,-396.5 1723.5,-396.5"/>
<text text-anchor="start" x="1731.5" y="-441.7" font-family="Source Sans Pro" font-size="16.00">Illumination&#45;Engine</text>
<text text-anchor="start" x="1731.5" y="-423.7" font-family="Source Sans Pro" font-size="16.00">/src/GraphicsModule</text>
<text text-anchor="middle" x="1818.5" y="-405.7" font-family="Source Sans Pro" font-size="16.00">/Renderable/IEVertex.hpp</text>
</a>
</g>
</g>
<!-- Node2 -->
<g id="node2" class="node">
<title>Node2</title>
<g id="a_node2"><a xlink:href="_i_e_mesh_8hpp.html" target="_top" xlink:title=" ">
<polygon fill="white" stroke="black" points="1574,-297.5 1574,-359.5 1759,-359.5 1759,-297.5 1574,-297.5"/>
<text text-anchor="start" x="1582" y="-342.7" font-family="Source Sans Pro" font-size="16.00">Illumination&#45;Engine</text>
<text text-anchor="start" x="1582" y="-324.7" font-family="Source Sans Pro" font-size="16.00">/src/GraphicsModule</text>
<text text-anchor="middle" x="1666.5" y="-306.7" font-family="Source Sans Pro" font-size="16.00">/Renderable/IEMesh.hpp</text>
</a>
</g>
</g>
<!-- Node1&#45;&gt;Node2 -->
<g id="edge1" class="edge">
<title>Node1&#45;&gt;Node2</title>
<path fill="none" stroke="midnightblue" d="M1762.49,-390.76C1746.47,-380.53 1729.17,-369.49 1713.73,-359.64"/>
<polygon fill="midnightblue" stroke="midnightblue" points="1760.93,-393.91 1771.24,-396.34 1764.69,-388.01 1760.93,-393.91"/>
</g>
<!-- Node6 -->
<g id="node6" class="node">
<title>Node6</title>
<g id="a_node6"><a xlink:href="_i_e_renderable_8hpp.html" target="_top" xlink:title=" ">
<polygon fill="white" stroke="black" points="1553,-198.5 1553,-260.5 1780,-260.5 1780,-198.5 1553,-198.5"/>
<text text-anchor="start" x="1561" y="-243.7" font-family="Source Sans Pro" font-size="16.00">Illumination&#45;Engine</text>
<text text-anchor="start" x="1561" y="-225.7" font-family="Source Sans Pro" font-size="16.00">/src/GraphicsModule</text>
<text text-anchor="middle" x="1666.5" y="-207.7" font-family="Source Sans Pro" font-size="16.00">/Renderable/IERenderable.hpp</text>
</a>
</g>
</g>
<!-- Node1&#45;&gt;Node6 -->
<g id="edge26" class="edge">
<title>Node1&#45;&gt;Node6</title>
<path fill="none" stroke="midnightblue" d="M1809.61,-386.64C1801.96,-359.21 1788.73,-323.15 1767.5,-297 1755.99,-282.82 1740.64,-270.6 1725.38,-260.64"/>
<polygon fill="midnightblue" stroke="midnightblue" points="1806.23,-387.56 1812.18,-396.32 1812.99,-385.76 1806.23,-387.56"/>
</g>
<!-- Node19 -->
<g id="node19" class="node">
<title>Node19</title>
<g id="a_node19"><a xlink:href="_i_e_pipeline_8cpp.html" target="_top" xlink:title=" ">
<polygon fill="white" stroke="black" points="3403.5,-0.5 3403.5,-62.5 3575.5,-62.5 3575.5,-0.5 3403.5,-0.5"/>
<text text-anchor="start" x="3411.5" y="-45.7" font-family="Source Sans Pro" font-size="16.00">Illumination&#45;Engine</text>
<text text-anchor="start" x="3411.5" y="-27.7" font-family="Source Sans Pro" font-size="16.00">/src/GraphicsModule</text>
<text text-anchor="middle" x="3489.5" y="-9.7" font-family="Source Sans Pro" font-size="16.00">/Shader/IEPipeline.cpp</text>
</a>
</g>
</g>
<!-- Node1&#45;&gt;Node19 -->
<g id="edge28" class="edge">
<title>Node1&#45;&gt;Node19</title>
<path fill="none" stroke="midnightblue" d="M1822.98,-386.35C1828.45,-357.04 1840.59,-318.78 1867.5,-297 2401.13,135.02 2726.2,-220.43 3394.5,-63 3397.45,-62.3 3400.44,-61.56 3403.45,-60.78"/>
<polygon fill="midnightblue" stroke="midnightblue" points="1819.51,-385.85 1821.31,-396.3 1826.42,-387.01 1819.51,-385.85"/>
</g>
<!-- Node22 -->
<g id="node22" class="node">
<title>Node22</title>
<g id="a_node22"><a xlink:href="_i_e_vertex_8cpp.html" target="_top" xlink:title=" ">
<polygon fill="white" stroke="black" points="1876.5,-297.5 1876.5,-359.5 2064.5,-359.5 2064.5,-297.5 1876.5,-297.5"/>
<text text-anchor="start" x="1884.5" y="-342.7" font-family="Source Sans Pro" font-size="16.00">Illumination&#45;Engine</text>
<text text-anchor="start" x="1884.5" y="-324.7" font-family="Source Sans Pro" font-size="16.00">/src/GraphicsModule</text>
<text text-anchor="middle" x="1970.5" y="-306.7" font-family="Source Sans Pro" font-size="16.00">/Renderable/IEVertex.cpp</text>
</a>
</g>
</g>
<!-- Node1&#45;&gt;Node22 -->
<g id="edge27" class="edge">
<title>Node1&#45;&gt;Node22</title>
<path fill="none" stroke="midnightblue" d="M1874.51,-390.76C1890.53,-380.53 1907.83,-369.49 1923.27,-359.64"/>
<polygon fill="midnightblue" stroke="midnightblue" points="1872.31,-388.01 1865.76,-396.34 1876.07,-393.91 1872.31,-388.01"/>
</g>
<!-- Node3 -->
<g id="node3" class="node">
<title>Node3</title>
<g id="a_node3"><a xlink:href="_i_e_material_8cpp.html" target="_top" xlink:title=" ">
<polygon fill="white" stroke="black" points="0,-0.5 0,-62.5 201,-62.5 201,-0.5 0,-0.5"/>
<text text-anchor="start" x="8" y="-45.7" font-family="Source Sans Pro" font-size="16.00">Illumination&#45;Engine</text>
<text text-anchor="start" x="8" y="-27.7" font-family="Source Sans Pro" font-size="16.00">/src/GraphicsModule</text>
<text text-anchor="middle" x="100.5" y="-9.7" font-family="Source Sans Pro" font-size="16.00">/Renderable/IEMaterial.cpp</text>
</a>
</g>
</g>
<!-- Node2&#45;&gt;Node3 -->
<g id="edge2" class="edge">
<title>Node2&#45;&gt;Node3</title>
<path fill="none" stroke="midnightblue" d="M1563.8,-321.22C1431.55,-312.25 1194.89,-293.18 994.5,-261 795.31,-229.01 746.99,-211.86 551.5,-162 429.35,-130.84 290.08,-90.03 199.02,-62.63"/>
<polygon fill="midnightblue" stroke="midnightblue" points="1563.71,-324.72 1573.92,-321.9 1564.18,-317.74 1563.71,-324.72"/>
</g>
<!-- Node4 -->
<g id="node4" class="node">
<title>Node4</title>
<g id="a_node4"><a xlink:href="_i_e_mesh_8cpp.html" target="_top" xlink:title=" ">
<polygon fill="white" stroke="black" points="219,-0.5 219,-62.5 402,-62.5 402,-0.5 219,-0.5"/>
<text text-anchor="start" x="227" y="-45.7" font-family="Source Sans Pro" font-size="16.00">Illumination&#45;Engine</text>
<text text-anchor="start" x="227" y="-27.7" font-family="Source Sans Pro" font-size="16.00">/src/GraphicsModule</text>
<text text-anchor="middle" x="310.5" y="-9.7" font-family="Source Sans Pro" font-size="16.00">/Renderable/IEMesh.cpp</text>
</a>
</g>
</g>
<!-- Node2&#45;&gt;Node4 -->
<g id="edge3" class="edge">
<title>Node2&#45;&gt;Node4</title>
<path fill="none" stroke="midnightblue" d="M1563.64,-309.03C1348.3,-269.68 834.85,-172.17 410.5,-63 407.78,-62.3 405.01,-61.57 402.23,-60.82"/>
<polygon fill="midnightblue" stroke="midnightblue" points="1563.2,-312.51 1573.67,-310.86 1564.46,-305.63 1563.2,-312.51"/>
</g>
<!-- Node5 -->
<g id="node5" class="node">
<title>Node5</title>
<g id="a_node5"><a xlink:href="_i_e_renderable_8cpp.html" target="_top" xlink:title=" ">
<polygon fill="white" stroke="black" points="3160,-0.5 3160,-62.5 3385,-62.5 3385,-0.5 3160,-0.5"/>
<text text-anchor="start" x="3168" y="-45.7" font-family="Source Sans Pro" font-size="16.00">Illumination&#45;Engine</text>
<text text-anchor="start" x="3168" y="-27.7" font-family="Source Sans Pro" font-size="16.00">/src/GraphicsModule</text>
<text text-anchor="middle" x="3272.5" y="-9.7" font-family="Source Sans Pro" font-size="16.00">/Renderable/IERenderable.cpp</text>
</a>
</g>
</g>
<!-- Node2&#45;&gt;Node5 -->
<g id="edge4" class="edge">
<title>Node2&#45;&gt;Node5</title>
<path fill="none" stroke="midnightblue" d="M1752.67,-292.06C1766.1,-283.5 1778.74,-273.21 1788.5,-261 1835.22,-202.53 1775.41,-144.93 1834.5,-99 1892.25,-54.11 3078.04,-72.93 3150.5,-63 3153.53,-62.59 3156.59,-62.12 3159.67,-61.62"/>
<polygon fill="midnightblue" stroke="midnightblue" points="1750.51,-289.28 1743.75,-297.44 1754.13,-295.27 1750.51,-289.28"/>
</g>
<!-- Node2&#45;&gt;Node6 -->
<g id="edge5" class="edge">
<title>Node2&#45;&gt;Node6</title>
<path fill="none" stroke="midnightblue" d="M1666.5,-287.17C1666.5,-278.29 1666.5,-269.03 1666.5,-260.64"/>
<polygon fill="midnightblue" stroke="midnightblue" points="1663,-287.34 1666.5,-297.34 1670,-287.34 1663,-287.34"/>
</g>
<!-- Node6&#45;&gt;Node5 -->
<g id="edge25" class="edge">
<title>Node6&#45;&gt;Node5</title>
<path fill="none" stroke="midnightblue" d="M1718.69,-192.22C1730.4,-183 1742.35,-172.66 1752.5,-162 1776.06,-137.27 1766.43,-115.19 1796.5,-99 1862.76,-63.33 3075.94,-73.19 3150.5,-63 3153.53,-62.59 3156.59,-62.13 3159.67,-61.63"/>
<polygon fill="midnightblue" stroke="midnightblue" points="1716.43,-189.54 1710.64,-198.41 1720.7,-195.08 1716.43,-189.54"/>
</g>
<!-- Node7 -->
<g id="node7" class="node">
<title>Node7</title>
<g id="a_node7"><a xlink:href="_i_e_render_engine_8cpp.html" target="_top" xlink:title=" ">
<polygon fill="white" stroke="black" points="420,-0.5 420,-62.5 579,-62.5 579,-0.5 420,-0.5"/>
<text text-anchor="start" x="428" y="-45.7" font-family="Source Sans Pro" font-size="16.00">Illumination&#45;Engine</text>
<text text-anchor="start" x="428" y="-27.7" font-family="Source Sans Pro" font-size="16.00">/src/GraphicsModule</text>
<text text-anchor="middle" x="499.5" y="-9.7" font-family="Source Sans Pro" font-size="16.00">/IERenderEngine.cpp</text>
</a>
</g>
</g>
<!-- Node6&#45;&gt;Node7 -->
<g id="edge6" class="edge">
<title>Node6&#45;&gt;Node7</title>
<path fill="none" stroke="midnightblue" d="M1542.87,-199.65C1412.26,-170.18 1199.94,-125.15 1014.5,-99 825.91,-72.41 773.81,-102.49 587.5,-63 584.81,-62.43 582.09,-61.8 579.36,-61.12"/>
<polygon fill="midnightblue" stroke="midnightblue" points="1542.39,-203.13 1552.91,-201.92 1543.93,-196.3 1542.39,-203.13"/>
</g>
<!-- Node8 -->
<g id="node8" class="node">
<title>Node8</title>
<g id="a_node8"><a xlink:href="_i_e_render_engine_8hpp.html" target="_top" xlink:title=" ">
<polygon fill="white" stroke="black" points="1583,-99.5 1583,-161.5 1744,-161.5 1744,-99.5 1583,-99.5"/>
<text text-anchor="start" x="1591" y="-144.7" font-family="Source Sans Pro" font-size="16.00">Illumination&#45;Engine</text>
<text text-anchor="start" x="1591" y="-126.7" font-family="Source Sans Pro" font-size="16.00">/src/GraphicsModule</text>
<text text-anchor="middle" x="1663.5" y="-108.7" font-family="Source Sans Pro" font-size="16.00">/IERenderEngine.hpp</text>
</a>
</g>
</g>
<!-- Node6&#45;&gt;Node8 -->
<g id="edge7" class="edge">
<title>Node6&#45;&gt;Node8</title>
<path fill="none" stroke="midnightblue" d="M1665.25,-188.17C1664.98,-179.29 1664.69,-170.03 1664.43,-161.64"/>
<polygon fill="midnightblue" stroke="midnightblue" points="1661.76,-188.45 1665.57,-198.34 1668.76,-188.24 1661.76,-188.45"/>
</g>
<!-- Node8&#45;&gt;Node3 -->
<g id="edge18" class="edge">
<title>Node8&#45;&gt;Node3</title>
<path fill="none" stroke="midnightblue" d="M1572.46,-128.04C1296.78,-123.19 473.84,-105.46 209.5,-63 206.78,-62.56 204.04,-62.08 201.28,-61.57"/>
<polygon fill="midnightblue" stroke="midnightblue" points="1572.76,-131.55 1582.82,-128.22 1572.88,-124.55 1572.76,-131.55"/>
</g>
<!-- Node8&#45;&gt;Node4 -->
<g id="edge19" class="edge">
<title>Node8&#45;&gt;Node4</title>
<path fill="none" stroke="midnightblue" d="M1572.68,-125.29C1294.17,-112.28 467.52,-73.05 410.5,-63 407.73,-62.51 404.93,-61.97 402.11,-61.38"/>
<polygon fill="midnightblue" stroke="midnightblue" points="1572.6,-128.79 1582.75,-125.76 1572.92,-121.79 1572.6,-128.79"/>
</g>
<!-- Node8&#45;&gt;Node5 -->
<g id="edge20" class="edge">
<title>Node8&#45;&gt;Node5</title>
<path fill="none" stroke="midnightblue" d="M1754.07,-99.8C1755.56,-99.52 1757.03,-99.25 1758.5,-99 2063.57,-47.18 2843.9,-104.78 3150.5,-63 3153.53,-62.59 3156.59,-62.13 3159.67,-61.63"/>
<polygon fill="midnightblue" stroke="midnightblue" points="1753.28,-96.39 1744.22,-101.89 1754.73,-103.24 1753.28,-96.39"/>
</g>
<!-- Node8&#45;&gt;Node7 -->
<g id="edge13" class="edge">
<title>Node8&#45;&gt;Node7</title>
<path fill="none" stroke="midnightblue" d="M1572.61,-117.54C1521.04,-111.15 1455.25,-103.66 1396.5,-99 1037.71,-70.56 941,-130.64 587.5,-63 584.8,-62.48 582.07,-61.9 579.33,-61.26"/>
<polygon fill="midnightblue" stroke="midnightblue" points="1572.37,-121.03 1582.73,-118.8 1573.24,-114.09 1572.37,-121.03"/>
</g>
<!-- Node9 -->
<g id="node9" class="node">
<title>Node9</title>
<g id="a_node9"><a xlink:href="_i_e_buffer_8cpp.html" target="_top" xlink:title=" ">
<polygon fill="white" stroke="black" points="2371,-0.5 2371,-62.5 2528,-62.5 2528,-0.5 2371,-0.5"/>
<text text-anchor="start" x="2379" y="-45.7" font-family="Source Sans Pro" font-size="16.00">Illumination&#45;Engine</text>
<text text-anchor="start" x="2379" y="-27.7" font-family="Source Sans Pro" font-size="16.00">/src/GraphicsModule</text>
<text text-anchor="middle" x="2449.5" y="-9.7" font-family="Source Sans Pro" font-size="16.00">/Buffer/IEBuffer.cpp</text>
</a>
</g>
</g>
<!-- Node8&#45;&gt;Node9 -->
<g id="edge8" class="edge">
<title>Node8&#45;&gt;Node9</title>
<path fill="none" stroke="midnightblue" d="M1754.09,-99.87C1755.56,-99.56 1757.04,-99.27 1758.5,-99 2022.39,-49.58 2098.2,-115.45 2361.5,-63 2364.51,-62.4 2367.56,-61.72 2370.63,-60.98"/>
<polygon fill="midnightblue" stroke="midnightblue" points="1753.25,-96.47 1744.26,-102.08 1754.78,-103.3 1753.25,-96.47"/>
</g>
<!-- Node10 -->
<g id="node10" class="node">
<title>Node10</title>
<g id="a_node10"><a xlink:href="_i_e_command_buffer_8cpp.html" target="_top" xlink:title=" ">
<polygon fill="white" stroke="black" points="2546,-0.5 2546,-62.5 2839,-62.5 2839,-0.5 2546,-0.5"/>
<text text-anchor="start" x="2554" y="-45.7" font-family="Source Sans Pro" font-size="16.00">Illumination&#45;Engine</text>
<text text-anchor="start" x="2554" y="-27.7" font-family="Source Sans Pro" font-size="16.00">/src/GraphicsModule</text>
<text text-anchor="middle" x="2692.5" y="-9.7" font-family="Source Sans Pro" font-size="16.00">/CommandBuffer/IECommandBuffer.cpp</text>
</a>
</g>
</g>
<!-- Node8&#45;&gt;Node10 -->
<g id="edge9" class="edge">
<title>Node8&#45;&gt;Node10</title>
<path fill="none" stroke="midnightblue" d="M1754.08,-99.84C1755.56,-99.55 1757.04,-99.26 1758.5,-99 2099.59,-37.49 2193.41,-104.57 2537.5,-63 2540.22,-62.67 2542.97,-62.32 2545.73,-61.95"/>
<polygon fill="midnightblue" stroke="midnightblue" points="1753.26,-96.44 1744.24,-102 1754.76,-103.28 1753.26,-96.44"/>
</g>
<!-- Node11 -->
<g id="node11" class="node">
<title>Node11</title>
<g id="a_node11"><a xlink:href="_i_e_command_pool_8cpp.html" target="_top" xlink:title=" ">
<polygon fill="white" stroke="black" points="2857.5,-0.5 2857.5,-62.5 3141.5,-62.5 3141.5,-0.5 2857.5,-0.5"/>
<text text-anchor="start" x="2865.5" y="-45.7" font-family="Source Sans Pro" font-size="16.00">Illumination&#45;Engine</text>
<text text-anchor="start" x="2865.5" y="-27.7" font-family="Source Sans Pro" font-size="16.00">/src/GraphicsModule</text>
<text text-anchor="middle" x="2999.5" y="-9.7" font-family="Source Sans Pro" font-size="16.00">/CommandBuffer/IECommandPool.cpp</text>
</a>
</g>
</g>
<!-- Node8&#45;&gt;Node11 -->
<g id="edge10" class="edge">
<title>Node8&#45;&gt;Node11</title>
<path fill="none" stroke="midnightblue" d="M1754.08,-99.81C1755.56,-99.53 1757.03,-99.25 1758.5,-99 2236.07,-16.12 2367.06,-119.18 2848.5,-63 2851.42,-62.66 2854.37,-62.29 2857.34,-61.9"/>
<polygon fill="midnightblue" stroke="midnightblue" points="1753.27,-96.41 1744.23,-101.93 1754.74,-103.25 1753.27,-96.41"/>
</g>
<!-- Node12 -->
<g id="node12" class="node">
<title>Node12</title>
<g id="a_node12"><a xlink:href="_i_e_a_p_i_8cpp.html" target="_top" xlink:title=" ">
<polygon fill="white" stroke="black" points="597,-0.5 597,-62.5 754,-62.5 754,-0.5 597,-0.5"/>
<text text-anchor="start" x="605" y="-45.7" font-family="Source Sans Pro" font-size="16.00">Illumination&#45;Engine</text>
<text text-anchor="start" x="605" y="-27.7" font-family="Source Sans Pro" font-size="16.00">/src/GraphicsModule</text>
<text text-anchor="middle" x="675.5" y="-9.7" font-family="Source Sans Pro" font-size="16.00">/IEAPI.cpp</text>
</a>
</g>
</g>
<!-- Node8&#45;&gt;Node12 -->
<g id="edge11" class="edge">
<title>Node8&#45;&gt;Node12</title>
<path fill="none" stroke="midnightblue" d="M1572.59,-117.81C1521.01,-111.51 1455.23,-104.02 1396.5,-99 1115.29,-74.97 1039.28,-118.23 762.5,-63 759.83,-62.47 757.13,-61.87 754.42,-61.22"/>
<polygon fill="midnightblue" stroke="midnightblue" points="1572.35,-121.31 1582.71,-119.06 1573.21,-114.36 1572.35,-121.31"/>
</g>
<!-- Node13 -->
<g id="node13" class="node">
<title>Node13</title>
<g id="a_node13"><a xlink:href="_i_e_camera_8cpp.html" target="_top" xlink:title=" ">
<polygon fill="white" stroke="black" points="772,-0.5 772,-62.5 929,-62.5 929,-0.5 772,-0.5"/>
<text text-anchor="start" x="780" y="-45.7" font-family="Source Sans Pro" font-size="16.00">Illumination&#45;Engine</text>
<text text-anchor="start" x="780" y="-27.7" font-family="Source Sans Pro" font-size="16.00">/src/GraphicsModule</text>
<text text-anchor="middle" x="850.5" y="-9.7" font-family="Source Sans Pro" font-size="16.00">/IECamera.cpp</text>
</a>
</g>
</g>
<!-- Node8&#45;&gt;Node13 -->
<g id="edge12" class="edge">
<title>Node8&#45;&gt;Node13</title>
<path fill="none" stroke="midnightblue" d="M1572.83,-118.33C1521.2,-112.18 1455.28,-104.66 1396.5,-99 1192.82,-79.38 1137.73,-105.2 937.5,-63 934.84,-62.44 932.15,-61.82 929.44,-61.15"/>
<polygon fill="midnightblue" stroke="midnightblue" points="1572.61,-121.83 1582.96,-119.55 1573.45,-114.88 1572.61,-121.83"/>
</g>
<!-- Node14 -->
<g id="node14" class="node">
<title>Node14</title>
<g id="a_node14"><a xlink:href="_i_e_image_8cpp.html" target="_top" xlink:title=" ">
<polygon fill="white" stroke="black" points="947,-0.5 947,-62.5 1104,-62.5 1104,-0.5 947,-0.5"/>
<text text-anchor="start" x="955" y="-45.7" font-family="Source Sans Pro" font-size="16.00">Illumination&#45;Engine</text>
<text text-anchor="start" x="955" y="-27.7" font-family="Source Sans Pro" font-size="16.00">/src/GraphicsModule</text>
<text text-anchor="middle" x="1025.5" y="-9.7" font-family="Source Sans Pro" font-size="16.00">/Image/IEImage.cpp</text>
</a>
</g>
</g>
<!-- Node8&#45;&gt;Node14 -->
<g id="edge14" class="edge">
<title>Node8&#45;&gt;Node14</title>
<path fill="none" stroke="midnightblue" d="M1572.62,-119.05C1421.91,-101.65 1134.57,-68.14 1112.5,-63 1109.85,-62.38 1107.17,-61.71 1104.47,-61"/>
<polygon fill="midnightblue" stroke="midnightblue" points="1572.45,-122.56 1582.78,-120.23 1573.25,-115.6 1572.45,-122.56"/>
</g>
<!-- Node15 -->
<g id="node15" class="node">
<title>Node15</title>
<g id="a_node15"><a xlink:href="_i_e_texture_8cpp.html" target="_top" xlink:title=" ">
<polygon fill="white" stroke="black" points="1122,-0.5 1122,-62.5 1283,-62.5 1283,-0.5 1122,-0.5"/>
<text text-anchor="start" x="1130" y="-45.7" font-family="Source Sans Pro" font-size="16.00">Illumination&#45;Engine</text>
<text text-anchor="start" x="1130" y="-27.7" font-family="Source Sans Pro" font-size="16.00">/src/GraphicsModule</text>
<text text-anchor="middle" x="1202.5" y="-9.7" font-family="Source Sans Pro" font-size="16.00">/Image/IETexture.cpp</text>
</a>
</g>
</g>
<!-- Node8&#45;&gt;Node15 -->
<g id="edge15" class="edge">
<title>Node8&#45;&gt;Node15</title>
<path fill="none" stroke="midnightblue" d="M1572.81,-117.12C1497.19,-105.87 1386.96,-87.33 1292.5,-63 1289.46,-62.22 1286.38,-61.38 1283.28,-60.51"/>
<polygon fill="midnightblue" stroke="midnightblue" points="1572.38,-120.59 1582.78,-118.59 1573.4,-113.66 1572.38,-120.59"/>
</g>
<!-- Node16 -->
<g id="node16" class="node">
<title>Node16</title>
<g id="a_node16"><a xlink:href="_i_e_framebuffer_8cpp.html" target="_top" xlink:title=" ">
<polygon fill="white" stroke="black" points="1301.5,-0.5 1301.5,-62.5 1531.5,-62.5 1531.5,-0.5 1301.5,-0.5"/>
<text text-anchor="start" x="1309.5" y="-45.7" font-family="Source Sans Pro" font-size="16.00">Illumination&#45;Engine</text>
<text text-anchor="start" x="1309.5" y="-27.7" font-family="Source Sans Pro" font-size="16.00">/src/GraphicsModule</text>
<text text-anchor="middle" x="1416.5" y="-9.7" font-family="Source Sans Pro" font-size="16.00">/RenderPass/IEFramebuffer.cpp</text>
</a>
</g>
</g>
<!-- Node8&#45;&gt;Node16 -->
<g id="edge16" class="edge">
<title>Node8&#45;&gt;Node16</title>
<path fill="none" stroke="midnightblue" d="M1577.45,-95.71C1549.97,-84.92 1519.77,-73.06 1493.02,-62.55"/>
<polygon fill="midnightblue" stroke="midnightblue" points="1576.45,-99.08 1587.04,-99.47 1579.01,-92.56 1576.45,-99.08"/>
</g>
<!-- Node17 -->
<g id="node17" class="node">
<title>Node17</title>
<g id="a_node17"><a xlink:href="_i_e_render_pass_8cpp.html" target="_top" xlink:title=" ">
<polygon fill="white" stroke="black" points="1550,-0.5 1550,-62.5 1777,-62.5 1777,-0.5 1550,-0.5"/>
<text text-anchor="start" x="1558" y="-45.7" font-family="Source Sans Pro" font-size="16.00">Illumination&#45;Engine</text>
<text text-anchor="start" x="1558" y="-27.7" font-family="Source Sans Pro" font-size="16.00">/src/GraphicsModule</text>
<text text-anchor="middle" x="1663.5" y="-9.7" font-family="Source Sans Pro" font-size="16.00">/RenderPass/IERenderPass.cpp</text>
</a>
</g>
</g>
<!-- Node8&#45;&gt;Node17 -->
<g id="edge17" class="edge">
<title>Node8&#45;&gt;Node17</title>
<path fill="none" stroke="midnightblue" d="M1663.5,-89.17C1663.5,-80.29 1663.5,-71.03 1663.5,-62.64"/>
<polygon fill="midnightblue" stroke="midnightblue" points="1660,-89.34 1663.5,-99.34 1667,-89.34 1660,-89.34"/>
</g>
<!-- Node18 -->
<g id="node18" class="node">
<title>Node18</title>
<g id="a_node18"><a xlink:href="_i_e_descriptor_set_8cpp.html" target="_top" xlink:title=" ">
<polygon fill="white" stroke="black" points="1795,-0.5 1795,-62.5 2002,-62.5 2002,-0.5 1795,-0.5"/>
<text text-anchor="start" x="1803" y="-45.7" font-family="Source Sans Pro" font-size="16.00">Illumination&#45;Engine</text>
<text text-anchor="start" x="1803" y="-27.7" font-family="Source Sans Pro" font-size="16.00">/src/GraphicsModule</text>
<text text-anchor="middle" x="1898.5" y="-9.7" font-family="Source Sans Pro" font-size="16.00">/Shader/IEDescriptorSet.cpp</text>
</a>
</g>
</g>
<!-- Node8&#45;&gt;Node18 -->
<g id="edge21" class="edge">
<title>Node8&#45;&gt;Node18</title>
<path fill="none" stroke="midnightblue" d="M1745.72,-95.56C1771.76,-84.81 1800.36,-73.01 1825.69,-62.55"/>
<polygon fill="midnightblue" stroke="midnightblue" points="1744.15,-92.42 1736.25,-99.47 1746.83,-98.89 1744.15,-92.42"/>
</g>
<!-- Node8&#45;&gt;Node19 -->
<g id="edge22" class="edge">
<title>Node8&#45;&gt;Node19</title>
<path fill="none" stroke="midnightblue" d="M1754.19,-110.65C1780.03,-106.01 1808.28,-101.63 1834.5,-99 2179.53,-64.45 3052.56,-120.59 3394.5,-63 3397.4,-62.51 3400.34,-61.95 3403.29,-61.34"/>
<polygon fill="midnightblue" stroke="midnightblue" points="1753.25,-107.27 1744.04,-112.51 1754.51,-114.15 1753.25,-107.27"/>
</g>
<!-- Node20 -->
<g id="node20" class="node">
<title>Node20</title>
<g id="a_node20"><a xlink:href="_i_e_shader_8cpp.html" target="_top" xlink:title=" ">
<polygon fill="white" stroke="black" points="2020.5,-0.5 2020.5,-62.5 2184.5,-62.5 2184.5,-0.5 2020.5,-0.5"/>
<text text-anchor="start" x="2028.5" y="-45.7" font-family="Source Sans Pro" font-size="16.00">Illumination&#45;Engine</text>
<text text-anchor="start" x="2028.5" y="-27.7" font-family="Source Sans Pro" font-size="16.00">/src/GraphicsModule</text>
<text text-anchor="middle" x="2102.5" y="-9.7" font-family="Source Sans Pro" font-size="16.00">/Shader/IEShader.cpp</text>
</a>
</g>
</g>
<!-- Node8&#45;&gt;Node20 -->
<g id="edge23" class="edge">
<title>Node8&#45;&gt;Node20</title>
<path fill="none" stroke="midnightblue" d="M1754.04,-100.06C1755.54,-99.69 1757.02,-99.34 1758.5,-99 1868.75,-73.62 1900.37,-88.9 2010.5,-63 2013.78,-62.23 2017.1,-61.39 2020.45,-60.51"/>
<polygon fill="midnightblue" stroke="midnightblue" points="1752.91,-96.73 1744.09,-102.6 1754.65,-103.51 1752.91,-96.73"/>
</g>
<!-- Node21 -->
<g id="node21" class="node">
<title>Node21</title>
<g id="a_node21"><a xlink:href="main_8cpp.html" target="_top" xlink:title=" ">
<polygon fill="white" stroke="black" points="2202.5,-9.5 2202.5,-53.5 2352.5,-53.5 2352.5,-9.5 2202.5,-9.5"/>
<text text-anchor="start" x="2210.5" y="-36.7" font-family="Source Sans Pro" font-size="16.00">Illumination&#45;Engine</text>
<text text-anchor="middle" x="2277.5" y="-18.7" font-family="Source Sans Pro" font-size="16.00">/src/main.cpp</text>
</a>
</g>
</g>
<!-- Node8&#45;&gt;Node21 -->
<g id="edge24" class="edge">
<title>Node8&#45;&gt;Node21</title>
<path fill="none" stroke="midnightblue" d="M1754.01,-99.93C1755.52,-99.61 1757.01,-99.3 1758.5,-99 1948.76,-61.1 2003.99,-104.47 2193.5,-63 2204.26,-60.65 2215.51,-57.25 2226.16,-53.57"/>
<polygon fill="midnightblue" stroke="midnightblue" points="1752.96,-96.59 1744.02,-102.27 1754.55,-103.4 1752.96,-96.59"/>
</g>
</g>
</svg>
