<?xml version="1.0" encoding="UTF-8" standalone="no"?>
<!DOCTYPE svg PUBLIC "-//W3C//DTD SVG 1.1//EN"
 "http://www.w3.org/Graphics/SVG/1.1/DTD/svg11.dtd">
<!-- Generated by graphviz version 2.43.0 (0)
 -->
<!-- Title: Illumination&#45;Engine/src/GraphicsModule/Shader/IEPipeline.hpp Pages: 1 -->
<svg width="831pt" height="359pt"
 viewBox="0.00 0.00 831.10 359.00" xmlns="http://www.w3.org/2000/svg" xmlns:xlink="http://www.w3.org/1999/xlink">
<g id="graph0" class="graph" transform="scale(1 1) rotate(0) translate(4 355)">
<title>Illumination&#45;Engine/src/GraphicsModule/Shader/IEPipeline.hpp</title>
<polygon fill="white" stroke="transparent" points="-4,4 -4,-355 827.1,-355 827.1,4 -4,4"/>
<!-- Node1 -->
<g id="node1" class="node">
<title>Node1</title>
<g id="a_node1"><a xlink:title=" ">
<polygon fill="#bfbfbf" stroke="black" points="221.1,-288.5 221.1,-350.5 394.1,-350.5 394.1,-288.5 221.1,-288.5"/>
<text text-anchor="start" x="229.1" y="-333.7" font-family="Source Sans Pro" font-size="16.00">Illumination&#45;Engine</text>
<text text-anchor="start" x="229.1" y="-315.7" font-family="Source Sans Pro" font-size="16.00">/src/GraphicsModule</text>
<text text-anchor="middle" x="307.6" y="-297.7" font-family="Source Sans Pro" font-size="16.00">/Shader/IEPipeline.hpp</text>
</a>
</g>
</g>
<!-- Node2 -->
<g id="node2" class="node">
<title>Node2</title>
<g id="a_node2"><a xlink:href="_i_e_dependency_8hpp.html" target="_top" xlink:title=" ">
<polygon fill="white" stroke="black" points="34.1,-207.5 34.1,-251.5 279.1,-251.5 279.1,-207.5 34.1,-207.5"/>
<text text-anchor="start" x="42.1" y="-234.7" font-family="Source Sans Pro" font-size="16.00">GraphicsModule/CommandBuffer</text>
<text text-anchor="middle" x="156.6" y="-216.7" font-family="Source Sans Pro" font-size="16.00">/IEDependency.hpp</text>
</a>
</g>
</g>
<!-- Node1&#45;&gt;Node2 -->
<g id="edge1" class="edge">
<title>Node1&#45;&gt;Node2</title>
<path fill="none" stroke="midnightblue" d="M256.06,-288.46C238.3,-278.12 218.58,-266.62 201.41,-256.61"/>
<polygon fill="midnightblue" stroke="midnightblue" points="203.09,-253.54 192.69,-251.53 199.57,-259.59 203.09,-253.54"/>
</g>
<!-- Node5 -->
<g id="node5" class="node">
<title>Node5</title>
<g id="a_node5"><a xlink:title=" ">
<polygon fill="white" stroke="#bfbfbf" points="212.1,-0.5 212.1,-26.5 271.1,-26.5 271.1,-0.5 212.1,-0.5"/>
<text text-anchor="middle" x="241.6" y="-9.7" font-family="Source Sans Pro" font-size="16.00">vector</text>
</a>
</g>
</g>
<!-- Node1&#45;&gt;Node5 -->
<g id="edge27" class="edge">
<title>Node1&#45;&gt;Node5</title>
<path fill="none" stroke="midnightblue" d="M220.83,-309.84C146.88,-300.45 48.81,-282.56 24.6,-252 -29.73,-183.43 15.16,-122.17 79.6,-63 113.16,-32.19 165.56,-20.91 201.63,-16.81"/>
<polygon fill="midnightblue" stroke="midnightblue" points="202.2,-20.27 211.8,-15.79 201.5,-13.3 202.2,-20.27"/>
</g>
<!-- Node6 -->
<g id="node6" class="node">
<title>Node6</title>
<g id="a_node6"><a xlink:title=" ">
<polygon fill="white" stroke="#bfbfbf" points="194.1,-144.5 194.1,-170.5 319.1,-170.5 319.1,-144.5 194.1,-144.5"/>
<text text-anchor="middle" x="256.6" y="-153.7" font-family="Source Sans Pro" font-size="16.00">vulkan/vulkan.h</text>
</a>
</g>
</g>
<!-- Node1&#45;&gt;Node6 -->
<g id="edge25" class="edge">
<title>Node1&#45;&gt;Node6</title>
<path fill="none" stroke="midnightblue" d="M305.39,-288.29C302.96,-265.35 297.92,-233.37 287.6,-207 283.75,-197.16 277.79,-187.17 272.12,-178.84"/>
<polygon fill="midnightblue" stroke="midnightblue" points="274.85,-176.64 266.2,-170.53 269.15,-180.71 274.85,-176.64"/>
</g>
<!-- Node7 -->
<g id="node7" class="node">
<title>Node7</title>
<g id="a_node7"><a xlink:href="_i_e_shader_8hpp.html" target="_top" xlink:title=" ">
<polygon fill="white" stroke="black" points="335.6,-207.5 335.6,-251.5 515.6,-251.5 515.6,-207.5 335.6,-207.5"/>
<text text-anchor="start" x="343.6" y="-234.7" font-family="Source Sans Pro" font-size="16.00">GraphicsModule/Shader</text>
<text text-anchor="middle" x="425.6" y="-216.7" font-family="Source Sans Pro" font-size="16.00">/IEShader.hpp</text>
</a>
</g>
</g>
<!-- Node1&#45;&gt;Node7 -->
<g id="edge6" class="edge">
<title>Node1&#45;&gt;Node7</title>
<path fill="none" stroke="midnightblue" d="M347.88,-288.46C361.24,-278.5 376.04,-267.46 389.1,-257.72"/>
<polygon fill="midnightblue" stroke="midnightblue" points="391.48,-260.31 397.4,-251.53 387.29,-254.7 391.48,-260.31"/>
</g>
<!-- Node16 -->
<g id="node16" class="node">
<title>Node16</title>
<g id="a_node16"><a xlink:title=" ">
<polygon fill="white" stroke="#bfbfbf" points="709.6,-144.5 709.6,-170.5 795.6,-170.5 795.6,-144.5 709.6,-144.5"/>
<text text-anchor="middle" x="752.6" y="-153.7" font-family="Source Sans Pro" font-size="16.00">functional</text>
</a>
</g>
</g>
<!-- Node1&#45;&gt;Node16 -->
<g id="edge26" class="edge">
<title>Node1&#45;&gt;Node16</title>
<path fill="none" stroke="midnightblue" d="M394.26,-293.93C434.23,-282.09 482.12,-267.18 524.6,-252 593.28,-227.45 671.61,-194.13 716.27,-174.61"/>
<polygon fill="midnightblue" stroke="midnightblue" points="717.79,-177.77 725.54,-170.54 714.98,-171.36 717.79,-177.77"/>
</g>
<!-- Node3 -->
<g id="node3" class="node">
<title>Node3</title>
<g id="a_node3"><a xlink:title=" ">
<polygon fill="white" stroke="#bfbfbf" points="63.6,-144.5 63.6,-170.5 137.6,-170.5 137.6,-144.5 63.6,-144.5"/>
<text text-anchor="middle" x="100.6" y="-153.7" font-family="Source Sans Pro" font-size="16.00">memory</text>
</a>
</g>
</g>
<!-- Node2&#45;&gt;Node3 -->
<g id="edge2" class="edge">
<title>Node2&#45;&gt;Node3</title>
<path fill="none" stroke="midnightblue" d="M139.8,-207.5C132.47,-198.34 123.93,-187.66 116.68,-178.61"/>
<polygon fill="midnightblue" stroke="midnightblue" points="119.2,-176.15 110.22,-170.53 113.74,-180.53 119.2,-176.15"/>
</g>
<!-- Node4 -->
<g id="node4" class="node">
<title>Node4</title>
<g id="a_node4"><a xlink:title=" ">
<polygon fill="white" stroke="#bfbfbf" points="414.1,-0.5 414.1,-26.5 469.1,-26.5 469.1,-0.5 414.1,-0.5"/>
<text text-anchor="middle" x="441.6" y="-9.7" font-family="Source Sans Pro" font-size="16.00">string</text>
</a>
</g>
</g>
<!-- Node2&#45;&gt;Node4 -->
<g id="edge3" class="edge">
<title>Node2&#45;&gt;Node4</title>
<path fill="none" stroke="midnightblue" d="M157.69,-207.48C159.87,-188.05 166.24,-159.87 184.6,-144 254.26,-83.8 313.4,-161.11 388.6,-108 401.53,-98.87 420.59,-60.79 431.99,-36.13"/>
<polygon fill="midnightblue" stroke="midnightblue" points="435.27,-37.37 436.22,-26.81 428.9,-34.47 435.27,-37.37"/>
</g>
<!-- Node2&#45;&gt;Node5 -->
<g id="edge4" class="edge">
<title>Node2&#45;&gt;Node5</title>
<path fill="none" stroke="midnightblue" d="M98.76,-207.49C68.49,-192.84 40.41,-171.09 54.6,-144 85.59,-84.85 157.22,-47.34 202.29,-28.69"/>
<polygon fill="midnightblue" stroke="midnightblue" points="203.78,-31.86 211.76,-24.89 201.17,-25.37 203.78,-31.86"/>
</g>
<!-- Node2&#45;&gt;Node6 -->
<g id="edge5" class="edge">
<title>Node2&#45;&gt;Node6</title>
<path fill="none" stroke="midnightblue" d="M186.6,-207.5C200.76,-197.59 217.48,-185.88 231.03,-176.4"/>
<polygon fill="midnightblue" stroke="midnightblue" points="233.23,-179.13 239.41,-170.53 229.21,-173.4 233.23,-179.13"/>
</g>
<!-- Node7&#45;&gt;Node4 -->
<g id="edge22" class="edge">
<title>Node7&#45;&gt;Node4</title>
<path fill="none" stroke="midnightblue" d="M446.47,-207.5C455.1,-197.36 464.12,-184.48 468.6,-171 484.16,-124.22 464.81,-66.45 451.73,-35.86"/>
<polygon fill="midnightblue" stroke="midnightblue" points="454.86,-34.29 447.59,-26.58 448.47,-37.14 454.86,-34.29"/>
</g>
<!-- Node7&#45;&gt;Node5 -->
<g id="edge23" class="edge">
<title>Node7&#45;&gt;Node5</title>
<path fill="none" stroke="midnightblue" d="M403.77,-207.21C384.63,-189.16 355.55,-163.22 327.6,-144 299.74,-124.85 280.76,-135.13 260.6,-108 245.26,-87.36 241.54,-57.37 240.98,-36.96"/>
<polygon fill="midnightblue" stroke="midnightblue" points="244.48,-36.71 240.95,-26.72 237.48,-36.73 244.48,-36.71"/>
</g>
<!-- Node7&#45;&gt;Node6 -->
<g id="edge13" class="edge">
<title>Node7&#45;&gt;Node6</title>
<path fill="none" stroke="midnightblue" d="M374.89,-207.5C349.26,-196.88 318.65,-184.2 295,-174.4"/>
<polygon fill="midnightblue" stroke="midnightblue" points="296.22,-171.12 285.65,-170.53 293.55,-177.59 296.22,-171.12"/>
</g>
<!-- Node8 -->
<g id="node8" class="node">
<title>Node8</title>
<g id="a_node8"><a xlink:href="_i_e_a_p_i_8hpp.html" target="_top" xlink:title=" ">
<polygon fill="white" stroke="black" points="376.1,-144.5 376.1,-170.5 459.1,-170.5 459.1,-144.5 376.1,-144.5"/>
<text text-anchor="middle" x="417.6" y="-153.7" font-family="Source Sans Pro" font-size="16.00">IEAPI.hpp</text>
</a>
</g>
</g>
<!-- Node7&#45;&gt;Node8 -->
<g id="edge7" class="edge">
<title>Node7&#45;&gt;Node8</title>
<path fill="none" stroke="midnightblue" d="M423.2,-207.5C422.23,-199 421.11,-189.19 420.12,-180.59"/>
<polygon fill="midnightblue" stroke="midnightblue" points="423.59,-180.07 418.98,-170.53 416.63,-180.86 423.59,-180.07"/>
</g>
<!-- Node11 -->
<g id="node11" class="node">
<title>Node11</title>
<g id="a_node11"><a xlink:href="_i_e_file_8hpp.html" target="_top" xlink:title=" ">
<polygon fill="white" stroke="black" points="523.1,-63.5 523.1,-107.5 700.1,-107.5 700.1,-63.5 523.1,-63.5"/>
<text text-anchor="start" x="531.1" y="-90.7" font-family="Source Sans Pro" font-size="16.00">Core/FileSystemModule</text>
<text text-anchor="middle" x="611.6" y="-72.7" font-family="Source Sans Pro" font-size="16.00">/IEFile.hpp</text>
</a>
</g>
</g>
<!-- Node7&#45;&gt;Node11 -->
<g id="edge14" class="edge">
<title>Node7&#45;&gt;Node11</title>
<path fill="none" stroke="midnightblue" d="M515.88,-218.18C574.87,-209.36 644.25,-194.34 662.6,-171 676.5,-153.32 662.74,-131.56 646.03,-114.55"/>
<polygon fill="midnightblue" stroke="midnightblue" points="648.4,-111.97 638.76,-107.57 643.56,-117.02 648.4,-111.97"/>
</g>
<!-- Node7&#45;&gt;Node16 -->
<g id="edge21" class="edge">
<title>Node7&#45;&gt;Node16</title>
<path fill="none" stroke="midnightblue" d="M515.63,-209.47C568.14,-198.33 635.64,-183.96 695.6,-171 696.85,-170.73 698.12,-170.45 699.4,-170.18"/>
<polygon fill="midnightblue" stroke="midnightblue" points="700.32,-173.56 709.35,-168.01 698.83,-166.72 700.32,-173.56"/>
</g>
<!-- Node17 -->
<g id="node17" class="node">
<title>Node17</title>
<g id="a_node17"><a xlink:title=" ">
<polygon fill="white" stroke="#bfbfbf" points="515.6,-144.5 515.6,-170.5 653.6,-170.5 653.6,-144.5 515.6,-144.5"/>
<text text-anchor="middle" x="584.6" y="-153.7" font-family="Source Sans Pro" font-size="16.00">include/GL/glew.h</text>
</a>
</g>
</g>
<!-- Node7&#45;&gt;Node17 -->
<g id="edge24" class="edge">
<title>Node7&#45;&gt;Node17</title>
<path fill="none" stroke="midnightblue" d="M473.31,-207.5C497.21,-196.97 525.71,-184.43 547.88,-174.67"/>
<polygon fill="midnightblue" stroke="midnightblue" points="549.53,-177.76 557.27,-170.53 546.71,-171.36 549.53,-177.76"/>
</g>
<!-- Node8&#45;&gt;Node4 -->
<g id="edge12" class="edge">
<title>Node8&#45;&gt;Node4</title>
<path fill="none" stroke="midnightblue" d="M419.65,-144.39C423.68,-120.5 432.73,-66.97 437.86,-36.61"/>
<polygon fill="midnightblue" stroke="midnightblue" points="441.34,-37.02 439.56,-26.58 434.44,-35.85 441.34,-37.02"/>
</g>
<!-- Node9 -->
<g id="node9" class="node">
<title>Node9</title>
<g id="a_node9"><a xlink:href="_i_e_version_8hpp.html" target="_top" xlink:title=" ">
<polygon fill="white" stroke="black" points="269.6,-72.5 269.6,-98.5 379.6,-98.5 379.6,-72.5 269.6,-72.5"/>
<text text-anchor="middle" x="324.6" y="-81.7" font-family="Source Sans Pro" font-size="16.00">IEVersion.hpp</text>
</a>
</g>
</g>
<!-- Node8&#45;&gt;Node9 -->
<g id="edge8" class="edge">
<title>Node8&#45;&gt;Node9</title>
<path fill="none" stroke="midnightblue" d="M401.4,-144.31C386.87,-133.37 365.33,-117.16 348.76,-104.69"/>
<polygon fill="midnightblue" stroke="midnightblue" points="350.71,-101.77 340.61,-98.55 346.5,-107.36 350.71,-101.77"/>
</g>
<!-- Node9&#45;&gt;Node4 -->
<g id="edge10" class="edge">
<title>Node9&#45;&gt;Node4</title>
<path fill="none" stroke="midnightblue" d="M344.71,-72.47C363.38,-61.3 391.39,-44.54 412.49,-31.91"/>
<polygon fill="midnightblue" stroke="midnightblue" points="414.57,-34.75 421.36,-26.61 410.98,-28.74 414.57,-34.75"/>
</g>
<!-- Node9&#45;&gt;Node5 -->
<g id="edge11" class="edge">
<title>Node9&#45;&gt;Node5</title>
<path fill="none" stroke="midnightblue" d="M310.14,-72.31C297.29,-61.47 278.3,-45.46 263.57,-33.03"/>
<polygon fill="midnightblue" stroke="midnightblue" points="265.79,-30.32 255.89,-26.55 261.28,-35.68 265.79,-30.32"/>
</g>
<!-- Node10 -->
<g id="node10" class="node">
<title>Node10</title>
<g id="a_node10"><a xlink:title=" ">
<polygon fill="white" stroke="#bfbfbf" points="293.1,-0.5 293.1,-26.5 356.1,-26.5 356.1,-0.5 293.1,-0.5"/>
<text text-anchor="middle" x="324.6" y="-9.7" font-family="Source Sans Pro" font-size="16.00">cstdint</text>
</a>
</g>
</g>
<!-- Node9&#45;&gt;Node10 -->
<g id="edge9" class="edge">
<title>Node9&#45;&gt;Node10</title>
<path fill="none" stroke="midnightblue" d="M324.6,-72.31C324.6,-62.47 324.6,-48.38 324.6,-36.57"/>
<polygon fill="midnightblue" stroke="midnightblue" points="328.1,-36.55 324.6,-26.55 321.1,-36.55 328.1,-36.55"/>
</g>
<!-- Node11&#45;&gt;Node4 -->
<g id="edge19" class="edge">
<title>Node11&#45;&gt;Node4</title>
<path fill="none" stroke="midnightblue" d="M560.59,-63.5C534.29,-52.67 502.79,-39.69 478.81,-29.82"/>
<polygon fill="midnightblue" stroke="midnightblue" points="479.93,-26.5 469.35,-25.93 477.27,-32.97 479.93,-26.5"/>
</g>
<!-- Node11&#45;&gt;Node5 -->
<g id="edge20" class="edge">
<title>Node11&#45;&gt;Node5</title>
<path fill="none" stroke="midnightblue" d="M522.98,-71.81C456.66,-61.63 363.93,-45.93 283.6,-27 282.85,-26.82 282.09,-26.64 281.33,-26.45"/>
<polygon fill="midnightblue" stroke="midnightblue" points="281.88,-22.98 271.31,-23.81 280.09,-29.74 281.88,-22.98"/>
</g>
<!-- Node12 -->
<g id="node12" class="node">
<title>Node12</title>
<g id="a_node12"><a xlink:title=" ">
<polygon fill="white" stroke="#bfbfbf" points="738.1,-0.5 738.1,-26.5 823.1,-26.5 823.1,-0.5 738.1,-0.5"/>
<text text-anchor="middle" x="780.6" y="-9.7" font-family="Source Sans Pro" font-size="16.00">filesystem</text>
</a>
</g>
</g>
<!-- Node11&#45;&gt;Node12 -->
<g id="edge15" class="edge">
<title>Node11&#45;&gt;Node12</title>
<path fill="none" stroke="midnightblue" d="M662.31,-63.5C687.94,-52.88 718.55,-40.2 742.2,-30.4"/>
<polygon fill="midnightblue" stroke="midnightblue" points="743.65,-33.59 751.55,-26.53 740.98,-27.12 743.65,-33.59"/>
</g>
<!-- Node13 -->
<g id="node13" class="node">
<title>Node13</title>
<g id="a_node13"><a xlink:title=" ">
<polygon fill="white" stroke="#bfbfbf" points="487.6,-0.5 487.6,-26.5 555.6,-26.5 555.6,-0.5 487.6,-0.5"/>
<text text-anchor="middle" x="521.6" y="-9.7" font-family="Source Sans Pro" font-size="16.00">fstream</text>
</a>
</g>
</g>
<!-- Node11&#45;&gt;Node13 -->
<g id="edge16" class="edge">
<title>Node11&#45;&gt;Node13</title>
<path fill="none" stroke="midnightblue" d="M584.6,-63.5C571.98,-53.68 557.09,-42.11 544.96,-32.67"/>
<polygon fill="midnightblue" stroke="midnightblue" points="547.11,-29.91 537.07,-26.53 542.81,-35.43 547.11,-29.91"/>
</g>
<!-- Node14 -->
<g id="node14" class="node">
<title>Node14</title>
<g id="a_node14"><a xlink:title=" ">
<polygon fill="white" stroke="#bfbfbf" points="573.6,-0.5 573.6,-26.5 649.6,-26.5 649.6,-0.5 573.6,-0.5"/>
<text text-anchor="middle" x="611.6" y="-9.7" font-family="Source Sans Pro" font-size="16.00">iostream</text>
</a>
</g>
</g>
<!-- Node11&#45;&gt;Node14 -->
<g id="edge17" class="edge">
<title>Node11&#45;&gt;Node14</title>
<path fill="none" stroke="midnightblue" d="M611.6,-63.5C611.6,-55 611.6,-45.19 611.6,-36.59"/>
<polygon fill="midnightblue" stroke="midnightblue" points="615.1,-36.53 611.6,-26.53 608.1,-36.53 615.1,-36.53"/>
</g>
<!-- Node15 -->
<g id="node15" class="node">
<title>Node15</title>
<g id="a_node15"><a xlink:title=" ">
<polygon fill="white" stroke="#bfbfbf" points="667.6,-0.5 667.6,-26.5 719.6,-26.5 719.6,-0.5 667.6,-0.5"/>
<text text-anchor="middle" x="693.6" y="-9.7" font-family="Source Sans Pro" font-size="16.00">regex</text>
</a>
</g>
</g>
<!-- Node11&#45;&gt;Node15 -->
<g id="edge18" class="edge">
<title>Node11&#45;&gt;Node15</title>
<path fill="none" stroke="midnightblue" d="M636.2,-63.5C647.48,-53.87 660.74,-42.55 671.67,-33.22"/>
<polygon fill="midnightblue" stroke="midnightblue" points="674.17,-35.69 679.51,-26.53 669.63,-30.36 674.17,-35.69"/>
</g>
</g>
</svg>
