<?xml version="1.0" encoding="UTF-8" standalone="no"?>
<!DOCTYPE svg PUBLIC "-//W3C//DTD SVG 1.1//EN"
 "http://www.w3.org/Graphics/SVG/1.1/DTD/svg11.dtd">
<!-- Generated by graphviz version 2.43.0 (0)
 -->
<!-- Title: Illumination&#45;Engine/src/GraphicsModule/Image/IETextureNEW.hpp Pages: 1 -->
<svg width="201pt" height="170pt"
 viewBox="0.00 0.00 201.00 170.00" xmlns="http://www.w3.org/2000/svg" xmlns:xlink="http://www.w3.org/1999/xlink">
<g id="graph0" class="graph" transform="scale(1 1) rotate(0) translate(4 166)">
<title>Illumination&#45;Engine/src/GraphicsModule/Image/IETextureNEW.hpp</title>
<polygon fill="white" stroke="transparent" points="-4,4 -4,-166 197,-166 197,4 -4,4"/>
<!-- Node1 -->
<g id="node1" class="node">
<title>Node1</title>
<g id="a_node1"><a xlink:title=" ">
<polygon fill="#bfbfbf" stroke="black" points="0,-99.5 0,-161.5 193,-161.5 193,-99.5 0,-99.5"/>
<text text-anchor="start" x="8" y="-144.7" font-family="Source Sans Pro" font-size="16.00">Illumination&#45;Engine</text>
<text text-anchor="start" x="8" y="-126.7" font-family="Source Sans Pro" font-size="16.00">/src/GraphicsModule</text>
<text text-anchor="middle" x="96.5" y="-108.7" font-family="Source Sans Pro" font-size="16.00">/Image/IETextureNEW.hpp</text>
</a>
</g>
</g>
<!-- Node2 -->
<g id="node2" class="node">
<title>Node2</title>
<g id="a_node2"><a xlink:href="_i_e_texture_n_e_w_8cpp.html" target="_top" xlink:title=" ">
<polygon fill="white" stroke="black" points="1,-0.5 1,-62.5 192,-62.5 192,-0.5 1,-0.5"/>
<text text-anchor="start" x="9" y="-45.7" font-family="Source Sans Pro" font-size="16.00">Illumination&#45;Engine</text>
<text text-anchor="start" x="9" y="-27.7" font-family="Source Sans Pro" font-size="16.00">/src/GraphicsModule</text>
<text text-anchor="middle" x="96.5" y="-9.7" font-family="Source Sans Pro" font-size="16.00">/Image/IETextureNEW.cpp</text>
</a>
</g>
</g>
<!-- Node1&#45;&gt;Node2 -->
<g id="edge1" class="edge">
<title>Node1&#45;&gt;Node2</title>
<path fill="none" stroke="midnightblue" d="M96.5,-89.17C96.5,-80.29 96.5,-71.03 96.5,-62.64"/>
<polygon fill="midnightblue" stroke="midnightblue" points="93,-89.34 96.5,-99.34 100,-89.34 93,-89.34"/>
</g>
</g>
</svg>
