<?xml version="1.0" encoding="UTF-8" standalone="no"?>
<!DOCTYPE svg PUBLIC "-//W3C//DTD SVG 1.1//EN"
 "http://www.w3.org/Graphics/SVG/1.1/DTD/svg11.dtd">
<!-- Generated by graphviz version 2.43.0 (0)
 -->
<!-- Title: Illumination&#45;Engine/src/GraphicsModule/Renderable/IEMesh.hpp Pages: 1 -->
<svg width="2426pt" height="503pt"
 viewBox="0.00 0.00 2426.00 503.00" xmlns="http://www.w3.org/2000/svg" xmlns:xlink="http://www.w3.org/1999/xlink">
<g id="graph0" class="graph" transform="scale(1 1) rotate(0) translate(4 499)">
<title>Illumination&#45;Engine/src/GraphicsModule/Renderable/IEMesh.hpp</title>
<polygon fill="white" stroke="transparent" points="-4,4 -4,-499 2422,-499 2422,4 -4,4"/>
<!-- Node1 -->
<g id="node1" class="node">
<title>Node1</title>
<g id="a_node1"><a xlink:title=" ">
<polygon fill="#bfbfbf" stroke="black" points="1071.5,-432.5 1071.5,-494.5 1256.5,-494.5 1256.5,-432.5 1071.5,-432.5"/>
<text text-anchor="start" x="1079.5" y="-477.7" font-family="Source Sans Pro" font-size="16.00">Illumination&#45;Engine</text>
<text text-anchor="start" x="1079.5" y="-459.7" font-family="Source Sans Pro" font-size="16.00">/src/GraphicsModule</text>
<text text-anchor="middle" x="1164" y="-441.7" font-family="Source Sans Pro" font-size="16.00">/Renderable/IEMesh.hpp</text>
</a>
</g>
</g>
<!-- Node2 -->
<g id="node2" class="node">
<title>Node2</title>
<g id="a_node2"><a xlink:title=" ">
<polygon fill="white" stroke="#bfbfbf" points="1658.5,-0.5 1658.5,-26.5 1721.5,-26.5 1721.5,-0.5 1658.5,-0.5"/>
<text text-anchor="middle" x="1690" y="-9.7" font-family="Source Sans Pro" font-size="16.00">cstdint</text>
</a>
</g>
</g>
<!-- Node1&#45;&gt;Node2 -->
<g id="edge1" class="edge">
<title>Node1&#45;&gt;Node2</title>
<path fill="none" stroke="midnightblue" d="M1256.72,-461.06C1546.83,-455.35 2418,-428.47 2418,-311.5 2418,-311.5 2418,-311.5 2418,-147.5 2418,-77.25 1886.57,-29.95 1731.81,-17.67"/>
<polygon fill="midnightblue" stroke="midnightblue" points="1731.99,-14.17 1721.75,-16.88 1731.44,-21.15 1731.99,-14.17"/>
</g>
<!-- Node3 -->
<g id="node3" class="node">
<title>Node3</title>
<g id="a_node3"><a xlink:title=" ">
<polygon fill="white" stroke="#bfbfbf" points="334.5,-0.5 334.5,-26.5 393.5,-26.5 393.5,-0.5 334.5,-0.5"/>
<text text-anchor="middle" x="364" y="-9.7" font-family="Source Sans Pro" font-size="16.00">vector</text>
</a>
</g>
</g>
<!-- Node1&#45;&gt;Node3 -->
<g id="edge2" class="edge">
<title>Node1&#45;&gt;Node3</title>
<path fill="none" stroke="midnightblue" d="M1071.2,-460.18C795.44,-452.06 0,-419.31 0,-311.5 0,-311.5 0,-311.5 0,-147.5 0,-98.16 29.06,-87.3 72,-63 114.44,-38.99 254.4,-23.93 323.99,-17.74"/>
<polygon fill="midnightblue" stroke="midnightblue" points="324.47,-21.21 334.13,-16.86 323.86,-14.24 324.47,-21.21"/>
</g>
<!-- Node4 -->
<g id="node4" class="node">
<title>Node4</title>
<g id="a_node4"><a xlink:href="_i_e_vertex_8hpp.html" target="_top" xlink:title=" ">
<polygon fill="white" stroke="black" points="1374.5,-369.5 1374.5,-395.5 1475.5,-395.5 1475.5,-369.5 1374.5,-369.5"/>
<text text-anchor="middle" x="1425" y="-378.7" font-family="Source Sans Pro" font-size="16.00">IEVertex.hpp</text>
</a>
</g>
</g>
<!-- Node1&#45;&gt;Node4 -->
<g id="edge3" class="edge">
<title>Node1&#45;&gt;Node4</title>
<path fill="none" stroke="midnightblue" d="M1256.75,-434.43C1296.72,-422.33 1341.86,-408.67 1375.31,-398.54"/>
<polygon fill="midnightblue" stroke="midnightblue" points="1376.74,-401.76 1385.3,-395.52 1374.71,-395.06 1376.74,-401.76"/>
</g>
<!-- Node9 -->
<g id="node9" class="node">
<title>Node9</title>
<g id="a_node9"><a xlink:href="_i_e_material_8hpp.html" target="_top" xlink:title=" ">
<polygon fill="white" stroke="black" points="1830,-369.5 1830,-395.5 1944,-395.5 1944,-369.5 1830,-369.5"/>
<text text-anchor="middle" x="1887" y="-378.7" font-family="Source Sans Pro" font-size="16.00">IEMaterial.hpp</text>
</a>
</g>
</g>
<!-- Node1&#45;&gt;Node9 -->
<g id="edge8" class="edge">
<title>Node1&#45;&gt;Node9</title>
<path fill="none" stroke="midnightblue" d="M1256.67,-452.37C1404.33,-436.24 1689.54,-405.08 1819.51,-390.87"/>
<polygon fill="midnightblue" stroke="midnightblue" points="1820.16,-394.32 1829.72,-389.76 1819.4,-387.37 1820.16,-394.32"/>
</g>
<!-- Node25 -->
<g id="node25" class="node">
<title>Node25</title>
<g id="a_node25"><a xlink:href="_i_e_descriptor_set_8hpp.html" target="_top" xlink:title=" ">
<polygon fill="white" stroke="black" points="312,-207.5 312,-251.5 492,-251.5 492,-207.5 312,-207.5"/>
<text text-anchor="start" x="320" y="-234.7" font-family="Source Sans Pro" font-size="16.00">GraphicsModule/Shader</text>
<text text-anchor="middle" x="402" y="-216.7" font-family="Source Sans Pro" font-size="16.00">/IEDescriptorSet.hpp</text>
</a>
</g>
</g>
<!-- Node1&#45;&gt;Node25 -->
<g id="edge43" class="edge">
<title>Node1&#45;&gt;Node25</title>
<path fill="none" stroke="midnightblue" d="M1071.33,-434.28C920.07,-388.23 622.82,-297.73 480.96,-254.54"/>
<polygon fill="midnightblue" stroke="midnightblue" points="481.61,-251.08 471.02,-251.51 479.57,-257.78 481.61,-251.08"/>
</g>
<!-- Node28 -->
<g id="node28" class="node">
<title>Node28</title>
<g id="a_node28"><a xlink:href="_i_e_pipeline_8hpp.html" target="_top" xlink:title=" ">
<polygon fill="white" stroke="black" points="837,-288.5 837,-332.5 1017,-332.5 1017,-288.5 837,-288.5"/>
<text text-anchor="start" x="845" y="-315.7" font-family="Source Sans Pro" font-size="16.00">GraphicsModule/Shader</text>
<text text-anchor="middle" x="927" y="-297.7" font-family="Source Sans Pro" font-size="16.00">/IEPipeline.hpp</text>
</a>
</g>
</g>
<!-- Node1&#45;&gt;Node28 -->
<g id="edge51" class="edge">
<title>Node1&#45;&gt;Node28</title>
<path fill="none" stroke="midnightblue" d="M1116.89,-432.49C1073.67,-404.94 1010.23,-364.53 968.77,-338.11"/>
<polygon fill="midnightblue" stroke="midnightblue" points="970.59,-335.12 960.28,-332.7 966.83,-341.03 970.59,-335.12"/>
</g>
<!-- Node34 -->
<g id="node34" class="node">
<title>Node34</title>
<g id="a_node34"><a xlink:href="_i_e_buffer_8hpp.html" target="_top" xlink:title=" ">
<polygon fill="white" stroke="black" points="1090.5,-216.5 1090.5,-242.5 1237.5,-242.5 1237.5,-216.5 1090.5,-216.5"/>
<text text-anchor="middle" x="1164" y="-225.7" font-family="Source Sans Pro" font-size="16.00">Buffer/IEBuffer.hpp</text>
</a>
</g>
</g>
<!-- Node1&#45;&gt;Node34 -->
<g id="edge70" class="edge">
<title>Node1&#45;&gt;Node34</title>
<path fill="none" stroke="midnightblue" d="M1164,-432.17C1164,-384.92 1164,-294.81 1164,-252.93"/>
<polygon fill="midnightblue" stroke="midnightblue" points="1167.5,-252.7 1164,-242.7 1160.5,-252.7 1167.5,-252.7"/>
</g>
<!-- Node5 -->
<g id="node5" class="node">
<title>Node5</title>
<g id="a_node5"><a xlink:title=" ">
<polygon fill="white" stroke="#bfbfbf" points="1514,-297.5 1514,-323.5 1618,-323.5 1618,-297.5 1514,-297.5"/>
<text text-anchor="middle" x="1566" y="-306.7" font-family="Source Sans Pro" font-size="16.00">glm/glm.hpp</text>
</a>
</g>
</g>
<!-- Node4&#45;&gt;Node5 -->
<g id="edge4" class="edge">
<title>Node4&#45;&gt;Node5</title>
<path fill="none" stroke="midnightblue" d="M1449.24,-369.47C1472.24,-358.05 1507,-340.79 1532.62,-328.07"/>
<polygon fill="midnightblue" stroke="midnightblue" points="1534.21,-331.19 1541.61,-323.61 1531.09,-324.92 1534.21,-331.19"/>
</g>
<!-- Node6 -->
<g id="node6" class="node">
<title>Node6</title>
<g id="a_node6"><a xlink:title=" ">
<polygon fill="white" stroke="#bfbfbf" points="1284,-135.5 1284,-161.5 1422,-161.5 1422,-135.5 1284,-135.5"/>
<text text-anchor="middle" x="1353" y="-144.7" font-family="Source Sans Pro" font-size="16.00">include/GL/glew.h</text>
</a>
</g>
</g>
<!-- Node4&#45;&gt;Node6 -->
<g id="edge5" class="edge">
<title>Node4&#45;&gt;Node6</title>
<path fill="none" stroke="midnightblue" d="M1414.22,-369.19C1406.62,-359.86 1396.79,-346.4 1391,-333 1367.25,-278.02 1358.01,-207.23 1354.69,-171.79"/>
<polygon fill="midnightblue" stroke="midnightblue" points="1358.16,-171.26 1353.81,-161.6 1351.18,-171.86 1358.16,-171.26"/>
</g>
<!-- Node7 -->
<g id="node7" class="node">
<title>Node7</title>
<g id="a_node7"><a xlink:title=" ">
<polygon fill="white" stroke="#bfbfbf" points="1399.5,-297.5 1399.5,-323.5 1450.5,-323.5 1450.5,-297.5 1399.5,-297.5"/>
<text text-anchor="middle" x="1425" y="-306.7" font-family="Source Sans Pro" font-size="16.00">array</text>
</a>
</g>
</g>
<!-- Node4&#45;&gt;Node7 -->
<g id="edge6" class="edge">
<title>Node4&#45;&gt;Node7</title>
<path fill="none" stroke="midnightblue" d="M1425,-369.31C1425,-359.47 1425,-345.38 1425,-333.57"/>
<polygon fill="midnightblue" stroke="midnightblue" points="1428.5,-333.55 1425,-323.55 1421.5,-333.55 1428.5,-333.55"/>
</g>
<!-- Node8 -->
<g id="node8" class="node">
<title>Node8</title>
<g id="a_node8"><a xlink:title=" ">
<polygon fill="white" stroke="#bfbfbf" points="1320.5,-0.5 1320.5,-26.5 1375.5,-26.5 1375.5,-0.5 1320.5,-0.5"/>
<text text-anchor="middle" x="1348" y="-9.7" font-family="Source Sans Pro" font-size="16.00">string</text>
</a>
</g>
</g>
<!-- Node4&#45;&gt;Node8 -->
<g id="edge7" class="edge">
<title>Node4&#45;&gt;Node8</title>
<path fill="none" stroke="midnightblue" d="M1433.58,-369.41C1450.19,-346.4 1486.69,-297.7 1505,-288 1568.42,-254.39 1778.16,-305.51 1826,-252 1839.33,-237.09 1829.31,-226.72 1826,-207 1819.69,-169.44 1821.4,-156.06 1798,-126 1766.65,-85.73 1749.79,-80.9 1702,-63 1592.5,-21.98 1452.32,-15.07 1386.01,-14.28"/>
<polygon fill="midnightblue" stroke="midnightblue" points="1385.67,-10.78 1375.64,-14.2 1385.61,-17.78 1385.67,-10.78"/>
</g>
<!-- Node9&#45;&gt;Node5 -->
<g id="edge42" class="edge">
<title>Node9&#45;&gt;Node5</title>
<path fill="none" stroke="midnightblue" d="M1829.83,-372.76C1777.84,-364.31 1699.22,-350.27 1632,-333 1624.86,-331.17 1617.36,-328.98 1610.08,-326.72"/>
<polygon fill="midnightblue" stroke="midnightblue" points="1610.94,-323.32 1600.35,-323.6 1608.81,-329.98 1610.94,-323.32"/>
</g>
<!-- Node9&#45;&gt;Node8 -->
<g id="edge15" class="edge">
<title>Node9&#45;&gt;Node8</title>
<path fill="none" stroke="midnightblue" d="M1888.37,-369.25C1891.33,-348.95 1900.29,-308.51 1926,-288 1999.33,-229.48 2073.58,-323.77 2134,-252 2165.8,-214.22 2093.46,-126.39 2093,-126 1983.94,-34.6 1521.99,-18.02 1385.88,-15.1"/>
<polygon fill="midnightblue" stroke="midnightblue" points="1385.63,-11.6 1375.56,-14.9 1385.48,-18.6 1385.63,-11.6"/>
</g>
<!-- Node10 -->
<g id="node10" class="node">
<title>Node10</title>
<g id="a_node10"><a xlink:title=" ">
<polygon fill="white" stroke="#bfbfbf" points="858,-63.5 858,-89.5 934,-89.5 934,-63.5 858,-63.5"/>
<text text-anchor="middle" x="896" y="-72.7" font-family="Source Sans Pro" font-size="16.00">iostream</text>
</a>
</g>
</g>
<!-- Node9&#45;&gt;Node10 -->
<g id="edge9" class="edge">
<title>Node9&#45;&gt;Node10</title>
<path fill="none" stroke="midnightblue" d="M1829.82,-376.87C1785.18,-371.33 1722.76,-359.24 1674,-333 1648.53,-319.29 1649.11,-306.64 1627,-288 1560.2,-231.67 1532.73,-230.78 1469,-171 1449.91,-153.09 1454.28,-137.96 1431,-126 1341.77,-80.15 1080.68,-101.3 981,-90 968.96,-88.63 956,-86.88 943.92,-85.11"/>
<polygon fill="midnightblue" stroke="midnightblue" points="944.42,-81.65 934.01,-83.64 943.39,-88.57 944.42,-81.65"/>
</g>
<!-- Node11 -->
<g id="node11" class="node">
<title>Node11</title>
<g id="a_node11"><a xlink:title=" ">
<polygon fill="white" stroke="#bfbfbf" points="1987,-216.5 1987,-242.5 2125,-242.5 2125,-216.5 1987,-216.5"/>
<text text-anchor="middle" x="2056" y="-225.7" font-family="Source Sans Pro" font-size="16.00">assimp/material.h</text>
</a>
</g>
</g>
<!-- Node9&#45;&gt;Node11 -->
<g id="edge10" class="edge">
<title>Node9&#45;&gt;Node11</title>
<path fill="none" stroke="midnightblue" d="M1883.78,-369.47C1879.38,-350.17 1873.96,-312.06 1892,-288 1899.08,-278.56 1958.81,-259.17 2004.16,-245.52"/>
<polygon fill="midnightblue" stroke="midnightblue" points="2005.3,-248.83 2013.88,-242.62 2003.3,-242.13 2005.3,-248.83"/>
</g>
<!-- Node12 -->
<g id="node12" class="node">
<title>Node12</title>
<g id="a_node12"><a xlink:title=" ">
<polygon fill="white" stroke="#bfbfbf" points="1984,-135.5 1984,-161.5 2084,-161.5 2084,-135.5 1984,-135.5"/>
<text text-anchor="middle" x="2034" y="-144.7" font-family="Source Sans Pro" font-size="16.00">stb_image.h</text>
</a>
</g>
</g>
<!-- Node9&#45;&gt;Node12 -->
<g id="edge11" class="edge">
<title>Node9&#45;&gt;Node12</title>
<path fill="none" stroke="midnightblue" d="M1944.29,-379.85C2064.34,-375.82 2333.52,-363.43 2361,-333 2446.33,-238.49 2210.37,-181.28 2094.28,-159.54"/>
<polygon fill="midnightblue" stroke="midnightblue" points="2094.57,-156.04 2084.1,-157.67 2093.31,-162.92 2094.57,-156.04"/>
</g>
<!-- Node13 -->
<g id="node13" class="node">
<title>Node13</title>
<g id="a_node13"><a xlink:title=" ">
<polygon fill="white" stroke="#bfbfbf" points="1934.5,-297.5 1934.5,-323.5 2065.5,-323.5 2065.5,-297.5 1934.5,-297.5"/>
<text text-anchor="middle" x="2000" y="-306.7" font-family="Source Sans Pro" font-size="16.00">assimp/texture.h</text>
</a>
</g>
</g>
<!-- Node9&#45;&gt;Node13 -->
<g id="edge12" class="edge">
<title>Node9&#45;&gt;Node13</title>
<path fill="none" stroke="midnightblue" d="M1906.43,-369.47C1924.45,-358.3 1951.5,-341.54 1971.89,-328.91"/>
<polygon fill="midnightblue" stroke="midnightblue" points="1973.79,-331.85 1980.45,-323.61 1970.11,-325.9 1973.79,-331.85"/>
</g>
<!-- Node14 -->
<g id="node14" class="node">
<title>Node14</title>
<g id="a_node14"><a xlink:title=" ">
<polygon fill="white" stroke="#bfbfbf" points="2084,-297.5 2084,-323.5 2206,-323.5 2206,-297.5 2084,-297.5"/>
<text text-anchor="middle" x="2145" y="-306.7" font-family="Source Sans Pro" font-size="16.00">assimp/scene.h</text>
</a>
</g>
</g>
<!-- Node9&#45;&gt;Node14 -->
<g id="edge13" class="edge">
<title>Node9&#45;&gt;Node14</title>
<path fill="none" stroke="midnightblue" d="M1936.25,-369.45C1974.27,-359.98 2028.13,-346.24 2075,-333 2082.23,-330.96 2089.85,-328.71 2097.3,-326.47"/>
<polygon fill="midnightblue" stroke="midnightblue" points="2098.4,-329.79 2106.95,-323.53 2096.36,-323.1 2098.4,-329.79"/>
</g>
<!-- Node15 -->
<g id="node15" class="node">
<title>Node15</title>
<g id="a_node15"><a xlink:title=" ">
<polygon fill="white" stroke="#bfbfbf" points="2224,-297.5 2224,-323.5 2352,-323.5 2352,-297.5 2224,-297.5"/>
<text text-anchor="middle" x="2288" y="-306.7" font-family="Source Sans Pro" font-size="16.00">unordered_map</text>
</a>
</g>
</g>
<!-- Node9&#45;&gt;Node15 -->
<g id="edge14" class="edge">
<title>Node9&#45;&gt;Node15</title>
<path fill="none" stroke="midnightblue" d="M1944.03,-375.52C2009.81,-368.05 2120.97,-353.69 2215,-333 2223.44,-331.14 2232.33,-328.83 2240.89,-326.42"/>
<polygon fill="midnightblue" stroke="midnightblue" points="2242.12,-329.71 2250.75,-323.56 2240.17,-322.98 2242.12,-329.71"/>
</g>
<!-- Node16 -->
<g id="node16" class="node">
<title>Node16</title>
<g id="a_node16"><a xlink:href="_i_e_texture_8hpp.html" target="_top" xlink:title=" ">
<polygon fill="white" stroke="black" points="1682.5,-297.5 1682.5,-323.5 1839.5,-323.5 1839.5,-297.5 1682.5,-297.5"/>
<text text-anchor="middle" x="1761" y="-306.7" font-family="Source Sans Pro" font-size="16.00">Image/IETexture.hpp</text>
</a>
</g>
</g>
<!-- Node9&#45;&gt;Node16 -->
<g id="edge16" class="edge">
<title>Node9&#45;&gt;Node16</title>
<path fill="none" stroke="midnightblue" d="M1865.34,-369.47C1845.06,-358.2 1814.54,-341.24 1791.74,-328.58"/>
<polygon fill="midnightblue" stroke="midnightblue" points="1793.24,-325.41 1782.8,-323.61 1789.84,-331.53 1793.24,-325.41"/>
</g>
<!-- Node16&#45;&gt;Node2 -->
<g id="edge40" class="edge">
<title>Node16&#45;&gt;Node2</title>
<path fill="none" stroke="midnightblue" d="M1813.52,-297.47C1841.29,-288.81 1874.25,-274.57 1897,-252 1938.26,-211.06 1959.36,-177.28 1932,-126 1892.97,-52.85 1789.96,-27.47 1731.7,-18.83"/>
<polygon fill="midnightblue" stroke="midnightblue" points="1732.1,-15.35 1721.71,-17.45 1731.14,-22.29 1732.1,-15.35"/>
</g>
<!-- Node16&#45;&gt;Node8 -->
<g id="edge41" class="edge">
<title>Node16&#45;&gt;Node8</title>
<path fill="none" stroke="midnightblue" d="M1792.32,-297.32C1813.51,-287.73 1840.84,-272.54 1859,-252 1914.65,-189.06 1927.11,-107.74 1856,-63 1816.41,-38.09 1496.42,-21.27 1385.61,-16.15"/>
<polygon fill="midnightblue" stroke="midnightblue" points="1385.7,-12.65 1375.55,-15.69 1385.38,-19.64 1385.7,-12.65"/>
</g>
<!-- Node16&#45;&gt;Node11 -->
<g id="edge37" class="edge">
<title>Node16&#45;&gt;Node11</title>
<path fill="none" stroke="midnightblue" d="M1806.13,-297.42C1858.5,-283.39 1944.87,-260.26 2001.09,-245.2"/>
<polygon fill="midnightblue" stroke="midnightblue" points="2002.13,-248.55 2010.88,-242.58 2000.31,-241.79 2002.13,-248.55"/>
</g>
<!-- Node16&#45;&gt;Node12 -->
<g id="edge39" class="edge">
<title>Node16&#45;&gt;Node12</title>
<path fill="none" stroke="midnightblue" d="M1820.55,-297.48C1855.71,-288.58 1900.04,-274.1 1935,-252 1958.38,-237.22 1958.79,-226.91 1978,-207 1990.14,-194.41 2003.84,-180.34 2014.65,-169.27"/>
<polygon fill="midnightblue" stroke="midnightblue" points="2017.46,-171.4 2021.95,-161.81 2012.46,-166.51 2017.46,-171.4"/>
</g>
<!-- Node17 -->
<g id="node17" class="node">
<title>Node17</title>
<g id="a_node17"><a xlink:href="_i_e_image_8hpp.html" target="_top" xlink:title=" ">
<polygon fill="white" stroke="black" points="1715,-216.5 1715,-242.5 1817,-242.5 1817,-216.5 1715,-216.5"/>
<text text-anchor="middle" x="1766" y="-225.7" font-family="Source Sans Pro" font-size="16.00">IEImage.hpp</text>
</a>
</g>
</g>
<!-- Node16&#45;&gt;Node17 -->
<g id="edge17" class="edge">
<title>Node16&#45;&gt;Node17</title>
<path fill="none" stroke="midnightblue" d="M1761.78,-297.16C1762.53,-285.33 1763.68,-267.21 1764.59,-252.84"/>
<polygon fill="midnightblue" stroke="midnightblue" points="1768.09,-252.96 1765.22,-242.76 1761.1,-252.52 1768.09,-252.96"/>
</g>
<!-- Node19 -->
<g id="node19" class="node">
<title>Node19</title>
<g id="a_node19"><a xlink:title=" ">
<polygon fill="white" stroke="#bfbfbf" points="990.5,-63.5 990.5,-89.5 1115.5,-89.5 1115.5,-63.5 990.5,-63.5"/>
<text text-anchor="middle" x="1053" y="-72.7" font-family="Source Sans Pro" font-size="16.00">vulkan/vulkan.h</text>
</a>
</g>
</g>
<!-- Node16&#45;&gt;Node19 -->
<g id="edge38" class="edge">
<title>Node16&#45;&gt;Node19</title>
<path fill="none" stroke="midnightblue" d="M1745.75,-297.37C1733.31,-286.69 1716.18,-270.05 1706,-252 1677.51,-201.47 1716.76,-162.89 1672,-126 1628.67,-90.29 1223.92,-95.03 1168,-90 1154.32,-88.77 1139.74,-87.3 1125.72,-85.82"/>
<polygon fill="midnightblue" stroke="midnightblue" points="1125.94,-82.32 1115.63,-84.73 1125.2,-89.28 1125.94,-82.32"/>
</g>
<!-- Node17&#45;&gt;Node2 -->
<g id="edge33" class="edge">
<title>Node17&#45;&gt;Node2</title>
<path fill="none" stroke="midnightblue" d="M1782.13,-216.36C1794.58,-205.9 1810.84,-189.59 1818,-171 1835.25,-126.21 1845.27,-102.5 1818,-63 1798.74,-35.1 1761.18,-23.23 1731.71,-18.2"/>
<polygon fill="midnightblue" stroke="midnightblue" points="1732.08,-14.71 1721.67,-16.68 1731.04,-21.63 1732.08,-14.71"/>
</g>
<!-- Node17&#45;&gt;Node3 -->
<g id="edge35" class="edge">
<title>Node17&#45;&gt;Node3</title>
<path fill="none" stroke="midnightblue" d="M1766.65,-216.33C1767.08,-194.35 1764.44,-148.24 1737,-126 1690.63,-88.42 1258.66,-105.44 1201,-90 1174.7,-82.95 1172.32,-69.98 1146,-63 1003.6,-25.25 542.33,-16.66 403.74,-14.91"/>
<polygon fill="midnightblue" stroke="midnightblue" points="403.61,-11.41 393.57,-14.79 403.53,-18.41 403.61,-11.41"/>
</g>
<!-- Node17&#45;&gt;Node6 -->
<g id="edge29" class="edge">
<title>Node17&#45;&gt;Node6</title>
<path fill="none" stroke="midnightblue" d="M1714.94,-218.73C1642.25,-204.83 1508.57,-179.26 1425.6,-163.39"/>
<polygon fill="midnightblue" stroke="midnightblue" points="1426.22,-159.94 1415.74,-161.5 1424.9,-166.82 1426.22,-159.94"/>
</g>
<!-- Node17&#45;&gt;Node8 -->
<g id="edge34" class="edge">
<title>Node17&#45;&gt;Node8</title>
<path fill="none" stroke="midnightblue" d="M1772.82,-216.3C1783.44,-195.46 1800.68,-152.69 1780,-126 1731.19,-62.99 1481.7,-29.23 1385.71,-18.41"/>
<polygon fill="midnightblue" stroke="midnightblue" points="1385.9,-14.91 1375.58,-17.29 1385.13,-21.87 1385.9,-14.91"/>
</g>
<!-- Node17&#45;&gt;Node12 -->
<g id="edge32" class="edge">
<title>Node17&#45;&gt;Node12</title>
<path fill="none" stroke="midnightblue" d="M1807,-216.42C1854.28,-202.48 1932.06,-179.55 1983.16,-164.49"/>
<polygon fill="midnightblue" stroke="midnightblue" points="1984.41,-167.77 1993.01,-161.58 1982.43,-161.05 1984.41,-167.77"/>
</g>
<!-- Node18 -->
<g id="node18" class="node">
<title>Node18</title>
<g id="a_node18"><a xlink:href="_i_e_dependency_8hpp.html" target="_top" xlink:title=" ">
<polygon fill="white" stroke="black" points="354.5,-126.5 354.5,-170.5 599.5,-170.5 599.5,-126.5 354.5,-126.5"/>
<text text-anchor="start" x="362.5" y="-153.7" font-family="Source Sans Pro" font-size="16.00">GraphicsModule/CommandBuffer</text>
<text text-anchor="middle" x="477" y="-135.7" font-family="Source Sans Pro" font-size="16.00">/IEDependency.hpp</text>
</a>
</g>
</g>
<!-- Node17&#45;&gt;Node18 -->
<g id="edge18" class="edge">
<title>Node17&#45;&gt;Node18</title>
<path fill="none" stroke="midnightblue" d="M1714.97,-226.31C1510.99,-217.5 758.48,-184.55 610.02,-171.08"/>
<polygon fill="midnightblue" stroke="midnightblue" points="609.96,-167.55 599.67,-170.06 609.28,-174.52 609.96,-167.55"/>
</g>
<!-- Node17&#45;&gt;Node19 -->
<g id="edge31" class="edge">
<title>Node17&#45;&gt;Node19</title>
<path fill="none" stroke="midnightblue" d="M1762.71,-216.38C1755.93,-194.04 1738.11,-146.77 1704,-126 1653.02,-94.96 1227.46,-95.23 1168,-90 1154.32,-88.8 1139.74,-87.34 1125.71,-85.86"/>
<polygon fill="midnightblue" stroke="midnightblue" points="1125.94,-82.37 1115.62,-84.78 1125.19,-89.33 1125.94,-82.37"/>
</g>
<!-- Node21 -->
<g id="node21" class="node">
<title>Node21</title>
<g id="a_node21"><a xlink:href="_i_e_a_p_i_8hpp.html" target="_top" xlink:title=" ">
<polygon fill="white" stroke="black" points="1144.5,-135.5 1144.5,-161.5 1227.5,-161.5 1227.5,-135.5 1144.5,-135.5"/>
<text text-anchor="middle" x="1186" y="-144.7" font-family="Source Sans Pro" font-size="16.00">IEAPI.hpp</text>
</a>
</g>
</g>
<!-- Node17&#45;&gt;Node21 -->
<g id="edge23" class="edge">
<title>Node17&#45;&gt;Node21</title>
<path fill="none" stroke="midnightblue" d="M1714.81,-224.55C1625.19,-217.18 1434.26,-199.45 1275,-171 1262.9,-168.84 1249.98,-166.02 1237.85,-163.14"/>
<polygon fill="midnightblue" stroke="midnightblue" points="1238.43,-159.68 1227.88,-160.72 1236.78,-166.48 1238.43,-159.68"/>
</g>
<!-- Node23 -->
<g id="node23" class="node">
<title>Node23</title>
<g id="a_node23"><a xlink:title=" ">
<polygon fill="white" stroke="#bfbfbf" points="1477.5,-135.5 1477.5,-161.5 1662.5,-161.5 1662.5,-135.5 1477.5,-135.5"/>
<text text-anchor="middle" x="1570" y="-144.7" font-family="Source Sans Pro" font-size="16.00">include/vk_mem_alloc.h</text>
</a>
</g>
</g>
<!-- Node17&#45;&gt;Node23 -->
<g id="edge30" class="edge">
<title>Node17&#45;&gt;Node23</title>
<path fill="none" stroke="midnightblue" d="M1735.8,-216.33C1701.9,-202.66 1646.74,-180.43 1609.45,-165.4"/>
<polygon fill="midnightblue" stroke="midnightblue" points="1610.49,-162.05 1599.91,-161.55 1607.87,-168.54 1610.49,-162.05"/>
</g>
<!-- Node24 -->
<g id="node24" class="node">
<title>Node24</title>
<g id="a_node24"><a xlink:title=" ">
<polygon fill="white" stroke="#bfbfbf" points="926,-135.5 926,-161.5 1012,-161.5 1012,-135.5 926,-135.5"/>
<text text-anchor="middle" x="969" y="-144.7" font-family="Source Sans Pro" font-size="16.00">functional</text>
</a>
</g>
</g>
<!-- Node17&#45;&gt;Node24 -->
<g id="edge36" class="edge">
<title>Node17&#45;&gt;Node24</title>
<path fill="none" stroke="midnightblue" d="M1714.81,-224.5C1607.3,-215.95 1350.13,-194.72 1135,-171 1097.34,-166.85 1054.98,-161.35 1022.47,-156.95"/>
<polygon fill="midnightblue" stroke="midnightblue" points="1022.67,-153.44 1012.29,-155.56 1021.72,-160.38 1022.67,-153.44"/>
</g>
<!-- Node18&#45;&gt;Node3 -->
<g id="edge19" class="edge">
<title>Node18&#45;&gt;Node3</title>
<path fill="none" stroke="midnightblue" d="M426.96,-126.36C410.82,-117.31 394.22,-105.26 383,-90 371.61,-74.52 367.01,-52.94 365.17,-36.82"/>
<polygon fill="midnightblue" stroke="midnightblue" points="368.65,-36.33 364.29,-26.67 361.67,-36.94 368.65,-36.33"/>
</g>
<!-- Node18&#45;&gt;Node8 -->
<g id="edge21" class="edge">
<title>Node18&#45;&gt;Node8</title>
<path fill="none" stroke="midnightblue" d="M488.83,-126.18C501.36,-105.95 523.16,-76.66 551,-63 619.59,-29.34 1161.11,-17.69 1310.15,-15.1"/>
<polygon fill="midnightblue" stroke="midnightblue" points="1310.25,-18.6 1320.19,-14.93 1310.13,-11.6 1310.25,-18.6"/>
</g>
<!-- Node18&#45;&gt;Node19 -->
<g id="edge20" class="edge">
<title>Node18&#45;&gt;Node19</title>
<path fill="none" stroke="midnightblue" d="M599.69,-127.15C602.49,-126.76 605.26,-126.37 608,-126 756.39,-105.87 794.16,-106.45 943,-90 955.13,-88.66 968.02,-87.21 980.54,-85.8"/>
<polygon fill="midnightblue" stroke="midnightblue" points="980.93,-89.28 990.47,-84.67 980.14,-82.32 980.93,-89.28"/>
</g>
<!-- Node20 -->
<g id="node20" class="node">
<title>Node20</title>
<g id="a_node20"><a xlink:title=" ">
<polygon fill="white" stroke="#bfbfbf" points="392,-63.5 392,-89.5 466,-89.5 466,-63.5 392,-63.5"/>
<text text-anchor="middle" x="429" y="-72.7" font-family="Source Sans Pro" font-size="16.00">memory</text>
</a>
</g>
</g>
<!-- Node18&#45;&gt;Node20 -->
<g id="edge22" class="edge">
<title>Node18&#45;&gt;Node20</title>
<path fill="none" stroke="midnightblue" d="M462.6,-126.5C456.39,-117.44 449.14,-106.88 442.98,-97.89"/>
<polygon fill="midnightblue" stroke="midnightblue" points="445.79,-95.8 437.25,-89.53 440.02,-99.76 445.79,-95.8"/>
</g>
<!-- Node21&#45;&gt;Node8 -->
<g id="edge28" class="edge">
<title>Node21&#45;&gt;Node8</title>
<path fill="none" stroke="midnightblue" d="M1216.84,-135.5C1258.29,-119.32 1327.04,-92.25 1329,-90 1341.71,-75.44 1346.15,-53.59 1347.59,-37.13"/>
<polygon fill="midnightblue" stroke="midnightblue" points="1351.11,-36.94 1348.18,-26.76 1344.12,-36.55 1351.11,-36.94"/>
</g>
<!-- Node22 -->
<g id="node22" class="node">
<title>Node22</title>
<g id="a_node22"><a xlink:href="_i_e_version_8hpp.html" target="_top" xlink:title=" ">
<polygon fill="white" stroke="black" points="1210,-63.5 1210,-89.5 1320,-89.5 1320,-63.5 1210,-63.5"/>
<text text-anchor="middle" x="1265" y="-72.7" font-family="Source Sans Pro" font-size="16.00">IEVersion.hpp</text>
</a>
</g>
</g>
<!-- Node21&#45;&gt;Node22 -->
<g id="edge24" class="edge">
<title>Node21&#45;&gt;Node22</title>
<path fill="none" stroke="midnightblue" d="M1199.76,-135.31C1211.88,-124.57 1229.73,-108.75 1243.7,-96.38"/>
<polygon fill="midnightblue" stroke="midnightblue" points="1246.23,-98.8 1251.4,-89.55 1241.59,-93.57 1246.23,-98.8"/>
</g>
<!-- Node22&#45;&gt;Node2 -->
<g id="edge25" class="edge">
<title>Node22&#45;&gt;Node2</title>
<path fill="none" stroke="midnightblue" d="M1320.13,-67.59C1406.25,-55.23 1570.84,-31.6 1648.05,-20.52"/>
<polygon fill="midnightblue" stroke="midnightblue" points="1648.95,-23.93 1658.35,-19.04 1647.96,-17 1648.95,-23.93"/>
</g>
<!-- Node22&#45;&gt;Node3 -->
<g id="edge27" class="edge">
<title>Node22&#45;&gt;Node3</title>
<path fill="none" stroke="midnightblue" d="M1209.73,-64.88C1205.09,-64.17 1200.47,-63.53 1196,-63 892.67,-26.82 523.77,-17.33 403.77,-15.11"/>
<polygon fill="midnightblue" stroke="midnightblue" points="403.65,-11.61 393.59,-14.93 403.53,-18.61 403.65,-11.61"/>
</g>
<!-- Node22&#45;&gt;Node8 -->
<g id="edge26" class="edge">
<title>Node22&#45;&gt;Node8</title>
<path fill="none" stroke="midnightblue" d="M1281.4,-63.45C1293.33,-54.68 1309.71,-42.64 1323.23,-32.7"/>
<polygon fill="midnightblue" stroke="midnightblue" points="1325.65,-35.27 1331.64,-26.53 1321.51,-29.63 1325.65,-35.27"/>
</g>
<!-- Node25&#45;&gt;Node2 -->
<g id="edge46" class="edge">
<title>Node25&#45;&gt;Node2</title>
<path fill="none" stroke="midnightblue" d="M372.97,-207.41C362.03,-197.7 350.83,-185.17 345,-171 325.63,-123.95 339.15,-88.81 383,-63 431,-34.75 1329.34,-29.14 1385,-27 1479.17,-23.38 1589.68,-18.76 1648.39,-16.27"/>
<polygon fill="midnightblue" stroke="midnightblue" points="1648.55,-19.77 1658.39,-15.85 1648.25,-12.77 1648.55,-19.77"/>
</g>
<!-- Node25&#45;&gt;Node3 -->
<g id="edge50" class="edge">
<title>Node25&#45;&gt;Node3</title>
<path fill="none" stroke="midnightblue" d="M318.37,-207.38C300.85,-198.97 284.52,-187.26 274,-171 247.92,-130.7 249.39,-104.21 274,-63 285.08,-44.44 305.98,-32.57 324.86,-25.21"/>
<polygon fill="midnightblue" stroke="midnightblue" points="326.24,-28.43 334.48,-21.77 323.88,-21.84 326.24,-28.43"/>
</g>
<!-- Node25&#45;&gt;Node18 -->
<g id="edge44" class="edge">
<title>Node25&#45;&gt;Node18</title>
<path fill="none" stroke="midnightblue" d="M422.1,-207.33C430.59,-198.39 440.61,-187.83 449.75,-178.2"/>
<polygon fill="midnightblue" stroke="midnightblue" points="452.5,-180.39 456.85,-170.73 447.42,-175.57 452.5,-180.39"/>
</g>
<!-- Node25&#45;&gt;Node19 -->
<g id="edge45" class="edge">
<title>Node25&#45;&gt;Node19</title>
<path fill="none" stroke="midnightblue" d="M492.16,-224.93C574.88,-219.48 699.85,-205.73 803,-171 842.03,-157.86 845.96,-141.78 884,-126 917.98,-111.9 957.43,-100.33 989.66,-92.03"/>
<polygon fill="midnightblue" stroke="midnightblue" points="990.58,-95.4 999.42,-89.56 988.86,-88.62 990.58,-95.4"/>
</g>
<!-- Node25&#45;&gt;Node24 -->
<g id="edge47" class="edge">
<title>Node25&#45;&gt;Node24</title>
<path fill="none" stroke="midnightblue" d="M492,-220.27C587.27,-210.93 741.83,-193.95 874,-171 887.54,-168.65 902.06,-165.62 915.57,-162.59"/>
<polygon fill="midnightblue" stroke="midnightblue" points="916.71,-165.92 925.68,-160.28 915.15,-159.1 916.71,-165.92"/>
</g>
<!-- Node26 -->
<g id="node26" class="node">
<title>Node26</title>
<g id="a_node26"><a xlink:title=" ">
<polygon fill="white" stroke="#bfbfbf" points="66.5,-135.5 66.5,-161.5 139.5,-161.5 139.5,-135.5 66.5,-135.5"/>
<text text-anchor="middle" x="103" y="-144.7" font-family="Source Sans Pro" font-size="16.00">optional</text>
</a>
</g>
</g>
<!-- Node25&#45;&gt;Node26 -->
<g id="edge48" class="edge">
<title>Node25&#45;&gt;Node26</title>
<path fill="none" stroke="midnightblue" d="M311.71,-212.85C262.84,-203.17 201.83,-189.12 149,-171 144.66,-169.51 140.19,-167.74 135.81,-165.86"/>
<polygon fill="midnightblue" stroke="midnightblue" points="137.03,-162.57 126.47,-161.65 134.15,-168.95 137.03,-162.57"/>
</g>
<!-- Node27 -->
<g id="node27" class="node">
<title>Node27</title>
<g id="a_node27"><a xlink:title=" ">
<polygon fill="white" stroke="#bfbfbf" points="158,-135.5 158,-161.5 222,-161.5 222,-135.5 158,-135.5"/>
<text text-anchor="middle" x="190" y="-144.7" font-family="Source Sans Pro" font-size="16.00">variant</text>
</a>
</g>
</g>
<!-- Node25&#45;&gt;Node27 -->
<g id="edge49" class="edge">
<title>Node25&#45;&gt;Node27</title>
<path fill="none" stroke="midnightblue" d="M335.98,-207.38C305.3,-197.13 268.5,-184.18 236,-171 232.05,-169.4 227.95,-167.63 223.9,-165.82"/>
<polygon fill="midnightblue" stroke="midnightblue" points="225.17,-162.56 214.62,-161.58 222.26,-168.92 225.17,-162.56"/>
</g>
<!-- Node28&#45;&gt;Node3 -->
<g id="edge69" class="edge">
<title>Node28&#45;&gt;Node3</title>
<path fill="none" stroke="midnightblue" d="M836.64,-310.31C632.65,-309.91 147.16,-295.61 57,-171 -14.99,-71.51 225.85,-30.95 324.13,-18.78"/>
<polygon fill="midnightblue" stroke="midnightblue" points="324.77,-22.23 334.28,-17.56 323.94,-15.28 324.77,-22.23"/>
</g>
<!-- Node28&#45;&gt;Node18 -->
<g id="edge66" class="edge">
<title>Node28&#45;&gt;Node18</title>
<path fill="none" stroke="midnightblue" d="M867.71,-288.42C784.55,-258.85 633.62,-205.19 545.68,-173.92"/>
<polygon fill="midnightblue" stroke="midnightblue" points="546.66,-170.55 536.07,-170.5 544.32,-177.15 546.66,-170.55"/>
</g>
<!-- Node28&#45;&gt;Node19 -->
<g id="edge67" class="edge">
<title>Node28&#45;&gt;Node19</title>
<path fill="none" stroke="midnightblue" d="M952.27,-288.33C963.31,-278.16 975.82,-265.3 985,-252 1018.82,-202.98 1039.06,-134.77 1047.83,-99.93"/>
<polygon fill="midnightblue" stroke="midnightblue" points="1051.32,-100.4 1050.28,-89.86 1044.52,-98.75 1051.32,-100.4"/>
</g>
<!-- Node28&#45;&gt;Node24 -->
<g id="edge68" class="edge">
<title>Node28&#45;&gt;Node24</title>
<path fill="none" stroke="midnightblue" d="M946.11,-288.49C954.18,-278.26 962.69,-265.3 967,-252 975.65,-225.33 974.41,-192.67 972.18,-171.49"/>
<polygon fill="midnightblue" stroke="midnightblue" points="975.65,-171.05 970.97,-161.55 968.7,-171.9 975.65,-171.05"/>
</g>
<!-- Node29 -->
<g id="node29" class="node">
<title>Node29</title>
<g id="a_node29"><a xlink:href="_i_e_shader_8hpp.html" target="_top" xlink:title=" ">
<polygon fill="white" stroke="black" points="778,-207.5 778,-251.5 958,-251.5 958,-207.5 778,-207.5"/>
<text text-anchor="start" x="786" y="-234.7" font-family="Source Sans Pro" font-size="16.00">GraphicsModule/Shader</text>
<text text-anchor="middle" x="868" y="-216.7" font-family="Source Sans Pro" font-size="16.00">/IEShader.hpp</text>
</a>
</g>
</g>
<!-- Node28&#45;&gt;Node29 -->
<g id="edge52" class="edge">
<title>Node28&#45;&gt;Node29</title>
<path fill="none" stroke="midnightblue" d="M911.19,-288.33C904.64,-279.56 896.94,-269.25 889.86,-259.78"/>
<polygon fill="midnightblue" stroke="midnightblue" points="892.64,-257.65 883.85,-251.73 887.03,-261.84 892.64,-257.65"/>
</g>
<!-- Node29&#45;&gt;Node3 -->
<g id="edge56" class="edge">
<title>Node29&#45;&gt;Node3</title>
<path fill="none" stroke="midnightblue" d="M777.86,-225.02C635.88,-218.61 373.31,-202.59 345,-171 311.4,-133.5 335.9,-69.08 352.35,-35.79"/>
<polygon fill="midnightblue" stroke="midnightblue" points="355.66,-37.02 357.13,-26.53 349.44,-33.81 355.66,-37.02"/>
</g>
<!-- Node29&#45;&gt;Node6 -->
<g id="edge65" class="edge">
<title>Node29&#45;&gt;Node6</title>
<path fill="none" stroke="midnightblue" d="M958.35,-215.16C1033.13,-203.94 1142.09,-187.19 1237,-171 1250.81,-168.64 1265.52,-166.01 1279.67,-163.42"/>
<polygon fill="midnightblue" stroke="midnightblue" points="1280.64,-166.8 1289.84,-161.55 1279.38,-159.92 1280.64,-166.8"/>
</g>
<!-- Node29&#45;&gt;Node8 -->
<g id="edge55" class="edge">
<title>Node29&#45;&gt;Node8</title>
<path fill="none" stroke="midnightblue" d="M866.34,-207.41C865.67,-185.29 867.69,-150.41 884,-126 901.06,-100.46 917.35,-106.91 943,-90 960.3,-78.6 961.72,-70.58 981,-63 1094.55,-18.36 1241.52,-13.26 1309.89,-13.6"/>
<polygon fill="midnightblue" stroke="midnightblue" points="1310.14,-17.1 1320.17,-13.7 1310.2,-10.1 1310.14,-17.1"/>
</g>
<!-- Node29&#45;&gt;Node19 -->
<g id="edge54" class="edge">
<title>Node29&#45;&gt;Node19</title>
<path fill="none" stroke="midnightblue" d="M873.01,-207.11C879.46,-184.07 892.83,-147.79 917,-126 934.76,-109.99 958.16,-99.18 980.54,-91.91"/>
<polygon fill="midnightblue" stroke="midnightblue" points="981.84,-95.17 990.39,-88.91 979.8,-88.48 981.84,-95.17"/>
</g>
<!-- Node29&#45;&gt;Node21 -->
<g id="edge53" class="edge">
<title>Node29&#45;&gt;Node21</title>
<path fill="none" stroke="midnightblue" d="M952.8,-207.43C1010.64,-193.07 1085.36,-174.5 1134.43,-162.31"/>
<polygon fill="midnightblue" stroke="midnightblue" points="1135.33,-165.69 1144.19,-159.89 1133.64,-158.9 1135.33,-165.69"/>
</g>
<!-- Node29&#45;&gt;Node24 -->
<g id="edge57" class="edge">
<title>Node29&#45;&gt;Node24</title>
<path fill="none" stroke="midnightblue" d="M895.07,-207.33C910.7,-195.1 930.18,-179.87 945.22,-168.1"/>
<polygon fill="midnightblue" stroke="midnightblue" points="947.77,-170.55 953.5,-161.63 943.46,-165.03 947.77,-170.55"/>
</g>
<!-- Node30 -->
<g id="node30" class="node">
<title>Node30</title>
<g id="a_node30"><a xlink:href="_i_e_file_8hpp.html" target="_top" xlink:title=" ">
<polygon fill="white" stroke="black" points="617.5,-126.5 617.5,-170.5 794.5,-170.5 794.5,-126.5 617.5,-126.5"/>
<text text-anchor="start" x="625.5" y="-153.7" font-family="Source Sans Pro" font-size="16.00">Core/FileSystemModule</text>
<text text-anchor="middle" x="706" y="-135.7" font-family="Source Sans Pro" font-size="16.00">/IEFile.hpp</text>
</a>
</g>
</g>
<!-- Node29&#45;&gt;Node30 -->
<g id="edge58" class="edge">
<title>Node29&#45;&gt;Node30</title>
<path fill="none" stroke="midnightblue" d="M824.59,-207.33C804.26,-197.42 779.87,-185.52 758.51,-175.11"/>
<polygon fill="midnightblue" stroke="midnightblue" points="759.77,-171.83 749.25,-170.59 756.71,-178.12 759.77,-171.83"/>
</g>
<!-- Node30&#45;&gt;Node3 -->
<g id="edge59" class="edge">
<title>Node30&#45;&gt;Node3</title>
<path fill="none" stroke="midnightblue" d="M648.07,-126.45C618.88,-115.74 582.98,-102.39 551,-90 499.45,-70.04 440.35,-45.98 402.63,-30.47"/>
<polygon fill="midnightblue" stroke="midnightblue" points="403.63,-27.1 393.05,-26.53 400.96,-33.57 403.63,-27.1"/>
</g>
<!-- Node30&#45;&gt;Node8 -->
<g id="edge60" class="edge">
<title>Node30&#45;&gt;Node8</title>
<path fill="none" stroke="midnightblue" d="M746.55,-126.31C766,-115.83 789.49,-102.73 810,-90 827.91,-78.89 829.21,-70.25 849,-63 933.85,-31.91 1209.37,-19.35 1310.41,-15.71"/>
<polygon fill="midnightblue" stroke="midnightblue" points="1310.59,-19.21 1320.46,-15.36 1310.35,-12.21 1310.59,-19.21"/>
</g>
<!-- Node30&#45;&gt;Node10 -->
<g id="edge64" class="edge">
<title>Node30&#45;&gt;Node10</title>
<path fill="none" stroke="midnightblue" d="M763.01,-126.5C792.21,-115.74 827.15,-102.86 853.89,-93.01"/>
<polygon fill="midnightblue" stroke="midnightblue" points="855.17,-96.27 863.34,-89.53 852.75,-89.7 855.17,-96.27"/>
</g>
<!-- Node31 -->
<g id="node31" class="node">
<title>Node31</title>
<g id="a_node31"><a xlink:title=" ">
<polygon fill="white" stroke="#bfbfbf" points="716.5,-63.5 716.5,-89.5 801.5,-89.5 801.5,-63.5 716.5,-63.5"/>
<text text-anchor="middle" x="759" y="-72.7" font-family="Source Sans Pro" font-size="16.00">filesystem</text>
</a>
</g>
</g>
<!-- Node30&#45;&gt;Node31 -->
<g id="edge61" class="edge">
<title>Node30&#45;&gt;Node31</title>
<path fill="none" stroke="midnightblue" d="M721.9,-126.5C728.83,-117.34 736.92,-106.66 743.78,-97.61"/>
<polygon fill="midnightblue" stroke="midnightblue" points="746.64,-99.62 749.89,-89.53 741.06,-95.39 746.64,-99.62"/>
</g>
<!-- Node32 -->
<g id="node32" class="node">
<title>Node32</title>
<g id="a_node32"><a xlink:title=" ">
<polygon fill="white" stroke="#bfbfbf" points="560,-63.5 560,-89.5 628,-89.5 628,-63.5 560,-63.5"/>
<text text-anchor="middle" x="594" y="-72.7" font-family="Source Sans Pro" font-size="16.00">fstream</text>
</a>
</g>
</g>
<!-- Node30&#45;&gt;Node32 -->
<g id="edge62" class="edge">
<title>Node30&#45;&gt;Node32</title>
<path fill="none" stroke="midnightblue" d="M672.4,-126.5C656.24,-116.4 637.1,-104.44 621.78,-94.86"/>
<polygon fill="midnightblue" stroke="midnightblue" points="623.58,-91.86 613.25,-89.53 619.87,-97.8 623.58,-91.86"/>
</g>
<!-- Node33 -->
<g id="node33" class="node">
<title>Node33</title>
<g id="a_node33"><a xlink:title=" ">
<polygon fill="white" stroke="#bfbfbf" points="646,-63.5 646,-89.5 698,-89.5 698,-63.5 646,-63.5"/>
<text text-anchor="middle" x="672" y="-72.7" font-family="Source Sans Pro" font-size="16.00">regex</text>
</a>
</g>
</g>
<!-- Node30&#45;&gt;Node33 -->
<g id="edge63" class="edge">
<title>Node30&#45;&gt;Node33</title>
<path fill="none" stroke="midnightblue" d="M695.8,-126.5C691.54,-117.72 686.59,-107.54 682.31,-98.73"/>
<polygon fill="midnightblue" stroke="midnightblue" points="685.36,-97 677.84,-89.53 679.06,-100.06 685.36,-97"/>
</g>
<!-- Node34&#45;&gt;Node2 -->
<g id="edge77" class="edge">
<title>Node34&#45;&gt;Node2</title>
<path fill="none" stroke="midnightblue" d="M1181.32,-216.4C1196.64,-205.34 1219.25,-188.15 1237,-171 1255.82,-152.81 1252.91,-140.04 1275,-126 1337.98,-85.98 1555.93,-40.42 1648.21,-22.42"/>
<polygon fill="midnightblue" stroke="midnightblue" points="1649.15,-25.8 1658.3,-20.46 1647.82,-18.93 1649.15,-25.8"/>
</g>
<!-- Node34&#45;&gt;Node3 -->
<g id="edge76" class="edge">
<title>Node34&#45;&gt;Node3</title>
<path fill="none" stroke="midnightblue" d="M1156.16,-216.26C1149.34,-204.98 1139.83,-187.53 1135,-171 1121.47,-124.69 1158.75,-96.47 1124,-63 1071.86,-12.79 552.77,-12.99 403.78,-14.1"/>
<polygon fill="midnightblue" stroke="midnightblue" points="403.68,-10.6 393.71,-14.18 403.73,-17.6 403.68,-10.6"/>
</g>
<!-- Node34&#45;&gt;Node6 -->
<g id="edge74" class="edge">
<title>Node34&#45;&gt;Node6</title>
<path fill="none" stroke="midnightblue" d="M1193.12,-216.33C1225.68,-202.72 1278.55,-180.62 1314.5,-165.59"/>
<polygon fill="midnightblue" stroke="midnightblue" points="1316.28,-168.64 1324.16,-161.55 1313.58,-162.18 1316.28,-168.64"/>
</g>
<!-- Node34&#45;&gt;Node18 -->
<g id="edge71" class="edge">
<title>Node34&#45;&gt;Node18</title>
<path fill="none" stroke="midnightblue" d="M1090.11,-220.28C1053.15,-216.21 1007.72,-211.26 967,-207 810.79,-190.64 768.69,-191.93 609.83,-171.21"/>
<polygon fill="midnightblue" stroke="midnightblue" points="610.06,-167.71 599.69,-169.88 609.15,-174.65 610.06,-167.71"/>
</g>
<!-- Node34&#45;&gt;Node19 -->
<g id="edge75" class="edge">
<title>Node34&#45;&gt;Node19</title>
<path fill="none" stroke="midnightblue" d="M1148.06,-216.3C1134.62,-205.45 1115.47,-188.61 1102,-171 1084.75,-148.44 1070.42,-118.92 1061.81,-99.15"/>
<polygon fill="midnightblue" stroke="midnightblue" points="1064.96,-97.62 1057.84,-89.78 1058.52,-100.35 1064.96,-97.62"/>
</g>
<!-- Node34&#45;&gt;Node21 -->
<g id="edge72" class="edge">
<title>Node34&#45;&gt;Node21</title>
<path fill="none" stroke="midnightblue" d="M1167.44,-216.16C1170.76,-204.21 1175.88,-185.85 1179.9,-171.42"/>
<polygon fill="midnightblue" stroke="midnightblue" points="1183.28,-172.33 1182.59,-161.76 1176.53,-170.45 1183.28,-172.33"/>
</g>
<!-- Node34&#45;&gt;Node23 -->
<g id="edge73" class="edge">
<title>Node34&#45;&gt;Node23</title>
<path fill="none" stroke="midnightblue" d="M1226.1,-216.42C1299.34,-202.17 1420.86,-178.52 1498.11,-163.49"/>
<polygon fill="midnightblue" stroke="midnightblue" points="1499.09,-166.86 1508.24,-161.52 1497.75,-159.99 1499.09,-166.86"/>
</g>
<!-- Node34&#45;&gt;Node24 -->
<g id="edge78" class="edge">
<title>Node34&#45;&gt;Node24</title>
<path fill="none" stroke="midnightblue" d="M1133.96,-216.33C1100.22,-202.66 1045.35,-180.43 1008.25,-165.4"/>
<polygon fill="midnightblue" stroke="midnightblue" points="1009.34,-162.07 998.76,-161.55 1006.71,-168.55 1009.34,-162.07"/>
</g>
</g>
</svg>
