<?xml version="1.0" encoding="UTF-8" standalone="no"?>
<!DOCTYPE svg PUBLIC "-//W3C//DTD SVG 1.1//EN"
 "http://www.w3.org/Graphics/SVG/1.1/DTD/svg11.dtd">
<!-- Generated by graphviz version 2.43.0 (0)
 -->
<!-- Title: Illumination&#45;Engine/src/GraphicsModule/Renderable/IEMaterial.hpp Pages: 1 -->
<svg width="1759pt" height="404pt"
 viewBox="0.00 0.00 1759.00 404.00" xmlns="http://www.w3.org/2000/svg" xmlns:xlink="http://www.w3.org/1999/xlink">
<g id="graph0" class="graph" transform="scale(1 1) rotate(0) translate(4 400)">
<title>Illumination&#45;Engine/src/GraphicsModule/Renderable/IEMaterial.hpp</title>
<polygon fill="white" stroke="transparent" points="-4,4 -4,-400 1755,-400 1755,4 -4,4"/>
<!-- Node1 -->
<g id="node1" class="node">
<title>Node1</title>
<g id="a_node1"><a xlink:title=" ">
<polygon fill="#bfbfbf" stroke="black" points="1239.5,-333.5 1239.5,-395.5 1442.5,-395.5 1442.5,-333.5 1239.5,-333.5"/>
<text text-anchor="start" x="1247.5" y="-378.7" font-family="Source Sans Pro" font-size="16.00">Illumination&#45;Engine</text>
<text text-anchor="start" x="1247.5" y="-360.7" font-family="Source Sans Pro" font-size="16.00">/src/GraphicsModule</text>
<text text-anchor="middle" x="1341" y="-342.7" font-family="Source Sans Pro" font-size="16.00">/Renderable/IEMaterial.hpp</text>
</a>
</g>
</g>
<!-- Node2 -->
<g id="node2" class="node">
<title>Node2</title>
<g id="a_node2"><a xlink:title=" ">
<polygon fill="white" stroke="#bfbfbf" points="0,-207.5 0,-233.5 138,-233.5 138,-207.5 0,-207.5"/>
<text text-anchor="middle" x="69" y="-216.7" font-family="Source Sans Pro" font-size="16.00">assimp/material.h</text>
</a>
</g>
</g>
<!-- Node1&#45;&gt;Node2 -->
<g id="edge1" class="edge">
<title>Node1&#45;&gt;Node2</title>
<path fill="none" stroke="midnightblue" d="M1239.44,-353.86C1033.85,-334.02 553.8,-286.11 152,-234 150.74,-233.84 149.47,-233.67 148.19,-233.5"/>
<polygon fill="midnightblue" stroke="midnightblue" points="148.64,-230.03 138.26,-232.15 147.7,-236.97 148.64,-230.03"/>
</g>
<!-- Node3 -->
<g id="node3" class="node">
<title>Node3</title>
<g id="a_node3"><a xlink:title=" ">
<polygon fill="white" stroke="#bfbfbf" points="866,-270.5 866,-296.5 988,-296.5 988,-270.5 866,-270.5"/>
<text text-anchor="middle" x="927" y="-279.7" font-family="Source Sans Pro" font-size="16.00">assimp/scene.h</text>
</a>
</g>
</g>
<!-- Node1&#45;&gt;Node3 -->
<g id="edge2" class="edge">
<title>Node1&#45;&gt;Node3</title>
<path fill="none" stroke="midnightblue" d="M1239.46,-344.12C1164.54,-329.83 1064.48,-310.73 998,-298.05"/>
<polygon fill="midnightblue" stroke="midnightblue" points="998.51,-294.58 988.03,-296.15 997.2,-301.46 998.51,-294.58"/>
</g>
<!-- Node4 -->
<g id="node4" class="node">
<title>Node4</title>
<g id="a_node4"><a xlink:title=" ">
<polygon fill="white" stroke="#bfbfbf" points="1006.5,-270.5 1006.5,-296.5 1137.5,-296.5 1137.5,-270.5 1006.5,-270.5"/>
<text text-anchor="middle" x="1072" y="-279.7" font-family="Source Sans Pro" font-size="16.00">assimp/texture.h</text>
</a>
</g>
</g>
<!-- Node1&#45;&gt;Node4 -->
<g id="edge3" class="edge">
<title>Node1&#45;&gt;Node4</title>
<path fill="none" stroke="midnightblue" d="M1239.3,-333.63C1199.53,-321.95 1155.67,-309.07 1122.85,-299.43"/>
<polygon fill="midnightblue" stroke="midnightblue" points="1123.61,-296.01 1113.03,-296.55 1121.64,-302.73 1123.61,-296.01"/>
</g>
<!-- Node5 -->
<g id="node5" class="node">
<title>Node5</title>
<g id="a_node5"><a xlink:href="_i_e_texture_8hpp.html" target="_top" xlink:title=" ">
<polygon fill="white" stroke="black" points="1155.5,-270.5 1155.5,-296.5 1312.5,-296.5 1312.5,-270.5 1155.5,-270.5"/>
<text text-anchor="middle" x="1234" y="-279.7" font-family="Source Sans Pro" font-size="16.00">Image/IETexture.hpp</text>
</a>
</g>
</g>
<!-- Node1&#45;&gt;Node5 -->
<g id="edge4" class="edge">
<title>Node1&#45;&gt;Node5</title>
<path fill="none" stroke="midnightblue" d="M1300.24,-333.41C1286.27,-323.09 1271.07,-311.87 1258.75,-302.78"/>
<polygon fill="midnightblue" stroke="midnightblue" points="1260.48,-299.7 1250.36,-296.58 1256.32,-305.33 1260.48,-299.7"/>
</g>
<!-- Node9 -->
<g id="node9" class="node">
<title>Node9</title>
<g id="a_node9"><a xlink:title=" ">
<polygon fill="white" stroke="#bfbfbf" points="1039.5,-0.5 1039.5,-26.5 1094.5,-26.5 1094.5,-0.5 1039.5,-0.5"/>
<text text-anchor="middle" x="1067" y="-9.7" font-family="Source Sans Pro" font-size="16.00">string</text>
</a>
</g>
</g>
<!-- Node1&#45;&gt;Node9 -->
<g id="edge32" class="edge">
<title>Node1&#45;&gt;Node9</title>
<path fill="none" stroke="midnightblue" d="M1353.97,-333.38C1364.98,-305.05 1379,-261.18 1379,-221.5 1379,-221.5 1379,-221.5 1379,-147.5 1379,-29.48 1187.75,-14.74 1104.72,-13.9"/>
<polygon fill="midnightblue" stroke="midnightblue" points="1104.7,-10.4 1094.69,-13.86 1104.67,-17.4 1104.7,-10.4"/>
</g>
<!-- Node17 -->
<g id="node17" class="node">
<title>Node17</title>
<g id="a_node17"><a xlink:title=" ">
<polygon fill="white" stroke="#bfbfbf" points="1213,-135.5 1213,-161.5 1313,-161.5 1313,-135.5 1213,-135.5"/>
<text text-anchor="middle" x="1263" y="-144.7" font-family="Source Sans Pro" font-size="16.00">stb_image.h</text>
</a>
</g>
</g>
<!-- Node1&#45;&gt;Node17 -->
<g id="edge30" class="edge">
<title>Node1&#45;&gt;Node17</title>
<path fill="none" stroke="midnightblue" d="M1336.39,-333.11C1333.11,-314.58 1328.04,-290.57 1321,-270 1308.58,-233.7 1288.03,-194.06 1275.02,-170.51"/>
<polygon fill="midnightblue" stroke="midnightblue" points="1278.05,-168.76 1270.11,-161.75 1271.94,-172.18 1278.05,-168.76"/>
</g>
<!-- Node19 -->
<g id="node19" class="node">
<title>Node19</title>
<g id="a_node19"><a xlink:title=" ">
<polygon fill="white" stroke="#bfbfbf" points="1407,-270.5 1407,-296.5 1483,-296.5 1483,-270.5 1407,-270.5"/>
<text text-anchor="middle" x="1445" y="-279.7" font-family="Source Sans Pro" font-size="16.00">iostream</text>
</a>
</g>
</g>
<!-- Node1&#45;&gt;Node19 -->
<g id="edge31" class="edge">
<title>Node1&#45;&gt;Node19</title>
<path fill="none" stroke="midnightblue" d="M1380.61,-333.41C1394.19,-323.09 1408.97,-311.87 1420.94,-302.78"/>
<polygon fill="midnightblue" stroke="midnightblue" points="1423.26,-305.41 1429.1,-296.58 1419.02,-299.84 1423.26,-305.41"/>
</g>
<!-- Node20 -->
<g id="node20" class="node">
<title>Node20</title>
<g id="a_node20"><a xlink:title=" ">
<polygon fill="white" stroke="#bfbfbf" points="1501,-270.5 1501,-296.5 1629,-296.5 1629,-270.5 1501,-270.5"/>
<text text-anchor="middle" x="1565" y="-279.7" font-family="Source Sans Pro" font-size="16.00">unordered_map</text>
</a>
</g>
</g>
<!-- Node1&#45;&gt;Node20 -->
<g id="edge33" class="edge">
<title>Node1&#45;&gt;Node20</title>
<path fill="none" stroke="midnightblue" d="M1426.32,-333.41C1458.7,-321.99 1494.23,-309.46 1521.22,-299.94"/>
<polygon fill="midnightblue" stroke="midnightblue" points="1522.49,-303.2 1530.76,-296.58 1520.16,-296.6 1522.49,-303.2"/>
</g>
<!-- Node21 -->
<g id="node21" class="node">
<title>Node21</title>
<g id="a_node21"><a xlink:title=" ">
<polygon fill="white" stroke="#bfbfbf" points="1647,-270.5 1647,-296.5 1751,-296.5 1751,-270.5 1647,-270.5"/>
<text text-anchor="middle" x="1699" y="-279.7" font-family="Source Sans Pro" font-size="16.00">glm/glm.hpp</text>
</a>
</g>
</g>
<!-- Node1&#45;&gt;Node21 -->
<g id="edge34" class="edge">
<title>Node1&#45;&gt;Node21</title>
<path fill="none" stroke="midnightblue" d="M1442.63,-341.07C1505.16,-327.27 1583.3,-310.03 1636.77,-298.23"/>
<polygon fill="midnightblue" stroke="midnightblue" points="1637.78,-301.59 1646.79,-296.02 1636.27,-294.76 1637.78,-301.59"/>
</g>
<!-- Node5&#45;&gt;Node2 -->
<g id="edge25" class="edge">
<title>Node5&#45;&gt;Node2</title>
<path fill="none" stroke="midnightblue" d="M1155.37,-270.91C1152.2,-270.58 1149.07,-270.27 1146,-270 705.67,-230.86 592.16,-274.98 152,-234 150.73,-233.88 149.46,-233.76 148.18,-233.63"/>
<polygon fill="midnightblue" stroke="midnightblue" points="148.54,-230.15 138.22,-232.52 147.77,-237.1 148.54,-230.15"/>
</g>
<!-- Node6 -->
<g id="node6" class="node">
<title>Node6</title>
<g id="a_node6"><a xlink:href="_i_e_image_8hpp.html" target="_top" xlink:title=" ">
<polygon fill="white" stroke="black" points="725,-207.5 725,-233.5 827,-233.5 827,-207.5 725,-207.5"/>
<text text-anchor="middle" x="776" y="-216.7" font-family="Source Sans Pro" font-size="16.00">IEImage.hpp</text>
</a>
</g>
</g>
<!-- Node5&#45;&gt;Node6 -->
<g id="edge5" class="edge">
<title>Node5&#45;&gt;Node6</title>
<path fill="none" stroke="midnightblue" d="M1155.32,-271.28C1152.18,-270.85 1149.06,-270.42 1146,-270 1037.33,-255.16 910.59,-238.74 837.19,-229.32"/>
<polygon fill="midnightblue" stroke="midnightblue" points="837.56,-225.83 827.2,-228.03 836.67,-232.78 837.56,-225.83"/>
</g>
<!-- Node5&#45;&gt;Node9 -->
<g id="edge29" class="edge">
<title>Node5&#45;&gt;Node9</title>
<path fill="none" stroke="midnightblue" d="M1249.46,-270.49C1280.29,-245 1344.57,-183.11 1322,-126 1288.76,-41.89 1167.81,-21.17 1105.18,-16.11"/>
<polygon fill="midnightblue" stroke="midnightblue" points="1105.15,-12.59 1094.92,-15.38 1104.65,-19.58 1105.15,-12.59"/>
</g>
<!-- Node11 -->
<g id="node11" class="node">
<title>Node11</title>
<g id="a_node11"><a xlink:title=" ">
<polygon fill="white" stroke="#bfbfbf" points="1129.5,-63.5 1129.5,-89.5 1254.5,-89.5 1254.5,-63.5 1129.5,-63.5"/>
<text text-anchor="middle" x="1192" y="-72.7" font-family="Source Sans Pro" font-size="16.00">vulkan/vulkan.h</text>
</a>
</g>
</g>
<!-- Node5&#45;&gt;Node11 -->
<g id="edge27" class="edge">
<title>Node5&#45;&gt;Node11</title>
<path fill="none" stroke="midnightblue" d="M1230.12,-270.25C1223.79,-249.86 1211.23,-207.58 1204,-171 1199.22,-146.84 1195.92,-118.78 1194,-99.75"/>
<polygon fill="midnightblue" stroke="midnightblue" points="1197.47,-99.31 1193.03,-89.69 1190.51,-99.98 1197.47,-99.31"/>
</g>
<!-- Node14 -->
<g id="node14" class="node">
<title>Node14</title>
<g id="a_node14"><a xlink:title=" ">
<polygon fill="white" stroke="#bfbfbf" points="172.5,-0.5 172.5,-26.5 235.5,-26.5 235.5,-0.5 172.5,-0.5"/>
<text text-anchor="middle" x="204" y="-9.7" font-family="Source Sans Pro" font-size="16.00">cstdint</text>
</a>
</g>
</g>
<!-- Node5&#45;&gt;Node14 -->
<g id="edge28" class="edge">
<title>Node5&#45;&gt;Node14</title>
<path fill="none" stroke="midnightblue" d="M1155.35,-271.1C1152.19,-270.71 1149.07,-270.35 1146,-270 936.84,-246.41 351.04,-321.61 204,-171 169.08,-135.23 184.35,-70.05 195.71,-36.2"/>
<polygon fill="midnightblue" stroke="midnightblue" points="199.01,-37.37 199.05,-26.77 192.41,-35.03 199.01,-37.37"/>
</g>
<!-- Node5&#45;&gt;Node17 -->
<g id="edge26" class="edge">
<title>Node5&#45;&gt;Node17</title>
<path fill="none" stroke="midnightblue" d="M1236.68,-270.23C1241.55,-247.86 1251.95,-200.16 1258.12,-171.88"/>
<polygon fill="midnightblue" stroke="midnightblue" points="1261.62,-172.26 1260.33,-161.74 1254.78,-170.77 1261.62,-172.26"/>
</g>
<!-- Node7 -->
<g id="node7" class="node">
<title>Node7</title>
<g id="a_node7"><a xlink:href="_i_e_dependency_8hpp.html" target="_top" xlink:title=" ">
<polygon fill="white" stroke="black" points="835.5,-126.5 835.5,-170.5 1080.5,-170.5 1080.5,-126.5 835.5,-126.5"/>
<text text-anchor="start" x="843.5" y="-153.7" font-family="Source Sans Pro" font-size="16.00">GraphicsModule/CommandBuffer</text>
<text text-anchor="middle" x="958" y="-135.7" font-family="Source Sans Pro" font-size="16.00">/IEDependency.hpp</text>
</a>
</g>
</g>
<!-- Node6&#45;&gt;Node7 -->
<g id="edge6" class="edge">
<title>Node6&#45;&gt;Node7</title>
<path fill="none" stroke="midnightblue" d="M807.29,-207.47C831.04,-198.33 864.51,-185.46 893.88,-174.16"/>
<polygon fill="midnightblue" stroke="midnightblue" points="895.17,-177.41 903.25,-170.56 892.66,-170.88 895.17,-177.41"/>
</g>
<!-- Node6&#45;&gt;Node9 -->
<g id="edge23" class="edge">
<title>Node6&#45;&gt;Node9</title>
<path fill="none" stroke="midnightblue" d="M827.24,-219.29C907.18,-217.75 1055.9,-209.62 1089,-171 1121.82,-132.7 1096.16,-68.69 1079.08,-35.66"/>
<polygon fill="midnightblue" stroke="midnightblue" points="1082.15,-33.99 1074.34,-26.84 1075.99,-37.3 1082.15,-33.99"/>
</g>
<!-- Node10 -->
<g id="node10" class="node">
<title>Node10</title>
<g id="a_node10"><a xlink:title=" ">
<polygon fill="white" stroke="#bfbfbf" points="744.5,-0.5 744.5,-26.5 803.5,-26.5 803.5,-0.5 744.5,-0.5"/>
<text text-anchor="middle" x="774" y="-9.7" font-family="Source Sans Pro" font-size="16.00">vector</text>
</a>
</g>
</g>
<!-- Node6&#45;&gt;Node10 -->
<g id="edge24" class="edge">
<title>Node6&#45;&gt;Node10</title>
<path fill="none" stroke="midnightblue" d="M724.7,-218.5C600.55,-215.56 291.83,-204.87 261,-171 124.48,-21.02 591.58,-12.96 734.02,-13.9"/>
<polygon fill="midnightblue" stroke="midnightblue" points="734.06,-17.4 744.09,-13.98 734.12,-10.4 734.06,-17.4"/>
</g>
<!-- Node6&#45;&gt;Node11 -->
<g id="edge20" class="edge">
<title>Node6&#45;&gt;Node11</title>
<path fill="none" stroke="midnightblue" d="M827.05,-217.19C911.07,-212.59 1074.06,-200.13 1123,-171 1151.26,-154.18 1171.51,-120.86 1182.49,-98.88"/>
<polygon fill="midnightblue" stroke="midnightblue" points="1185.73,-100.21 1186.88,-89.68 1179.42,-97.2 1185.73,-100.21"/>
</g>
<!-- Node12 -->
<g id="node12" class="node">
<title>Node12</title>
<g id="a_node12"><a xlink:href="_i_e_a_p_i_8hpp.html" target="_top" xlink:title=" ">
<polygon fill="white" stroke="black" points="734.5,-135.5 734.5,-161.5 817.5,-161.5 817.5,-135.5 734.5,-135.5"/>
<text text-anchor="middle" x="776" y="-144.7" font-family="Source Sans Pro" font-size="16.00">IEAPI.hpp</text>
</a>
</g>
</g>
<!-- Node6&#45;&gt;Node12 -->
<g id="edge11" class="edge">
<title>Node6&#45;&gt;Node12</title>
<path fill="none" stroke="midnightblue" d="M776,-207.31C776,-197.47 776,-183.38 776,-171.57"/>
<polygon fill="midnightblue" stroke="midnightblue" points="779.5,-171.55 776,-161.55 772.5,-171.55 779.5,-171.55"/>
</g>
<!-- Node6&#45;&gt;Node14 -->
<g id="edge21" class="edge">
<title>Node6&#45;&gt;Node14</title>
<path fill="none" stroke="midnightblue" d="M724.78,-218.37C596.66,-215.07 269.95,-203.52 234,-171 196.23,-136.84 197.27,-70.89 200.83,-36.53"/>
<polygon fill="midnightblue" stroke="midnightblue" points="204.31,-36.91 202.03,-26.56 197.36,-36.07 204.31,-36.91"/>
</g>
<!-- Node15 -->
<g id="node15" class="node">
<title>Node15</title>
<g id="a_node15"><a xlink:title=" ">
<polygon fill="white" stroke="#bfbfbf" points="270,-135.5 270,-161.5 408,-161.5 408,-135.5 270,-135.5"/>
<text text-anchor="middle" x="339" y="-144.7" font-family="Source Sans Pro" font-size="16.00">include/GL/glew.h</text>
</a>
</g>
</g>
<!-- Node6&#45;&gt;Node15 -->
<g id="edge17" class="edge">
<title>Node6&#45;&gt;Node15</title>
<path fill="none" stroke="midnightblue" d="M724.81,-214.78C654.83,-207.82 525.6,-193.2 417,-171 407.8,-169.12 398.09,-166.76 388.76,-164.29"/>
<polygon fill="midnightblue" stroke="midnightblue" points="389.4,-160.84 378.83,-161.59 387.56,-167.59 389.4,-160.84"/>
</g>
<!-- Node16 -->
<g id="node16" class="node">
<title>Node16</title>
<g id="a_node16"><a xlink:title=" ">
<polygon fill="white" stroke="#bfbfbf" points="426.5,-135.5 426.5,-161.5 611.5,-161.5 611.5,-135.5 426.5,-135.5"/>
<text text-anchor="middle" x="519" y="-144.7" font-family="Source Sans Pro" font-size="16.00">include/vk_mem_alloc.h</text>
</a>
</g>
</g>
<!-- Node6&#45;&gt;Node16 -->
<g id="edge18" class="edge">
<title>Node6&#45;&gt;Node16</title>
<path fill="none" stroke="midnightblue" d="M731.82,-207.47C687.87,-195.5 620.37,-177.11 573.2,-164.26"/>
<polygon fill="midnightblue" stroke="midnightblue" points="574.03,-160.86 563.46,-161.61 572.19,-167.62 574.03,-160.86"/>
</g>
<!-- Node6&#45;&gt;Node17 -->
<g id="edge19" class="edge">
<title>Node6&#45;&gt;Node17</title>
<path fill="none" stroke="midnightblue" d="M827.26,-214.4C901.23,-206.74 1042.08,-190.99 1161,-171 1174.64,-168.71 1189.23,-165.87 1202.99,-163.01"/>
<polygon fill="midnightblue" stroke="midnightblue" points="1203.77,-166.42 1212.83,-160.93 1202.33,-159.57 1203.77,-166.42"/>
</g>
<!-- Node18 -->
<g id="node18" class="node">
<title>Node18</title>
<g id="a_node18"><a xlink:title=" ">
<polygon fill="white" stroke="#bfbfbf" points="630,-135.5 630,-161.5 716,-161.5 716,-135.5 630,-135.5"/>
<text text-anchor="middle" x="673" y="-144.7" font-family="Source Sans Pro" font-size="16.00">functional</text>
</a>
</g>
</g>
<!-- Node6&#45;&gt;Node18 -->
<g id="edge22" class="edge">
<title>Node6&#45;&gt;Node18</title>
<path fill="none" stroke="midnightblue" d="M758.06,-207.31C741.74,-196.22 717.45,-179.71 699.01,-167.17"/>
<polygon fill="midnightblue" stroke="midnightblue" points="700.97,-164.28 690.74,-161.55 697.04,-170.07 700.97,-164.28"/>
</g>
<!-- Node8 -->
<g id="node8" class="node">
<title>Node8</title>
<g id="a_node8"><a xlink:title=" ">
<polygon fill="white" stroke="#bfbfbf" points="923,-63.5 923,-89.5 997,-89.5 997,-63.5 923,-63.5"/>
<text text-anchor="middle" x="960" y="-72.7" font-family="Source Sans Pro" font-size="16.00">memory</text>
</a>
</g>
</g>
<!-- Node7&#45;&gt;Node8 -->
<g id="edge7" class="edge">
<title>Node7&#45;&gt;Node8</title>
<path fill="none" stroke="midnightblue" d="M958.6,-126.5C958.84,-118 959.12,-108.19 959.37,-99.59"/>
<polygon fill="midnightblue" stroke="midnightblue" points="962.87,-99.63 959.66,-89.53 955.87,-99.43 962.87,-99.63"/>
</g>
<!-- Node7&#45;&gt;Node9 -->
<g id="edge8" class="edge">
<title>Node7&#45;&gt;Node9</title>
<path fill="none" stroke="midnightblue" d="M975.86,-126.27C984.93,-115.45 996.1,-102.06 1006,-90 1021.29,-71.39 1038.52,-50.02 1050.76,-34.78"/>
<polygon fill="midnightblue" stroke="midnightblue" points="1053.81,-36.57 1057.34,-26.58 1048.35,-32.19 1053.81,-36.57"/>
</g>
<!-- Node7&#45;&gt;Node10 -->
<g id="edge9" class="edge">
<title>Node7&#45;&gt;Node10</title>
<path fill="none" stroke="midnightblue" d="M928.84,-126.43C893.12,-100.61 833.19,-57.29 799.32,-32.8"/>
<polygon fill="midnightblue" stroke="midnightblue" points="801.05,-29.74 790.9,-26.71 796.95,-35.41 801.05,-29.74"/>
</g>
<!-- Node7&#45;&gt;Node11 -->
<g id="edge10" class="edge">
<title>Node7&#45;&gt;Node11</title>
<path fill="none" stroke="midnightblue" d="M1028.21,-126.5C1064.81,-115.55 1108.72,-102.41 1141.86,-92.5"/>
<polygon fill="midnightblue" stroke="midnightblue" points="1143.2,-95.75 1151.78,-89.53 1141.2,-89.04 1143.2,-95.75"/>
</g>
<!-- Node12&#45;&gt;Node9 -->
<g id="edge16" class="edge">
<title>Node12&#45;&gt;Node9</title>
<path fill="none" stroke="midnightblue" d="M792.68,-135.43C817.91,-117.61 867.74,-84.11 914,-63 952.08,-45.62 998.16,-31.93 1029.74,-23.59"/>
<polygon fill="midnightblue" stroke="midnightblue" points="1030.65,-26.97 1039.45,-21.07 1028.89,-20.2 1030.65,-26.97"/>
</g>
<!-- Node13 -->
<g id="node13" class="node">
<title>Node13</title>
<g id="a_node13"><a xlink:href="_i_e_version_8hpp.html" target="_top" xlink:title=" ">
<polygon fill="white" stroke="black" points="719,-63.5 719,-89.5 829,-89.5 829,-63.5 719,-63.5"/>
<text text-anchor="middle" x="774" y="-72.7" font-family="Source Sans Pro" font-size="16.00">IEVersion.hpp</text>
</a>
</g>
</g>
<!-- Node12&#45;&gt;Node13 -->
<g id="edge12" class="edge">
<title>Node12&#45;&gt;Node13</title>
<path fill="none" stroke="midnightblue" d="M775.65,-135.31C775.37,-125.47 774.97,-111.38 774.63,-99.57"/>
<polygon fill="midnightblue" stroke="midnightblue" points="778.13,-99.45 774.34,-89.55 771.13,-99.65 778.13,-99.45"/>
</g>
<!-- Node13&#45;&gt;Node9 -->
<g id="edge14" class="edge">
<title>Node13&#45;&gt;Node9</title>
<path fill="none" stroke="midnightblue" d="M829.11,-64.03C887.58,-51.85 978.38,-32.95 1029.22,-22.36"/>
<polygon fill="midnightblue" stroke="midnightblue" points="1030.06,-25.77 1039.14,-20.3 1028.64,-18.91 1030.06,-25.77"/>
</g>
<!-- Node13&#45;&gt;Node10 -->
<g id="edge15" class="edge">
<title>Node13&#45;&gt;Node10</title>
<path fill="none" stroke="midnightblue" d="M774,-63.45C774,-55.85 774,-45.79 774,-36.78"/>
<polygon fill="midnightblue" stroke="midnightblue" points="777.5,-36.53 774,-26.53 770.5,-36.53 777.5,-36.53"/>
</g>
<!-- Node13&#45;&gt;Node14 -->
<g id="edge13" class="edge">
<title>Node13&#45;&gt;Node14</title>
<path fill="none" stroke="midnightblue" d="M718.83,-69.6C605.09,-57.42 346.75,-29.78 245.66,-18.96"/>
<polygon fill="midnightblue" stroke="midnightblue" points="245.85,-15.46 235.53,-17.87 245.1,-22.42 245.85,-15.46"/>
</g>
</g>
</svg>
