<?xml version="1.0" encoding="UTF-8" standalone="no"?>
<!DOCTYPE svg PUBLIC "-//W3C//DTD SVG 1.1//EN"
 "http://www.w3.org/Graphics/SVG/1.1/DTD/svg11.dtd">
<!-- Generated by graphviz version 2.43.0 (0)
 -->
<!-- Title: Illumination&#45;Engine/src/GraphicsModule/IESettings.hpp Pages: 1 -->
<svg width="3583pt" height="269pt"
 viewBox="0.00 0.00 3582.50 269.00" xmlns="http://www.w3.org/2000/svg" xmlns:xlink="http://www.w3.org/1999/xlink">
<g id="graph0" class="graph" transform="scale(1 1) rotate(0) translate(4 265)">
<title>Illumination&#45;Engine/src/GraphicsModule/IESettings.hpp</title>
<polygon fill="white" stroke="transparent" points="-4,4 -4,-265 3578.5,-265 3578.5,4 -4,4"/>
<!-- Node1 -->
<g id="node1" class="node">
<title>Node1</title>
<g id="a_node1"><a xlink:title=" ">
<polygon fill="#bfbfbf" stroke="black" points="1795,-198.5 1795,-260.5 1952,-260.5 1952,-198.5 1795,-198.5"/>
<text text-anchor="start" x="1803" y="-243.7" font-family="Source Sans Pro" font-size="16.00">Illumination&#45;Engine</text>
<text text-anchor="start" x="1803" y="-225.7" font-family="Source Sans Pro" font-size="16.00">/src/GraphicsModule</text>
<text text-anchor="middle" x="1873.5" y="-207.7" font-family="Source Sans Pro" font-size="16.00">/IESettings.hpp</text>
</a>
</g>
</g>
<!-- Node2 -->
<g id="node2" class="node">
<title>Node2</title>
<g id="a_node2"><a xlink:href="_i_e_render_engine_8hpp.html" target="_top" xlink:title=" ">
<polygon fill="white" stroke="black" points="1705,-99.5 1705,-161.5 1866,-161.5 1866,-99.5 1705,-99.5"/>
<text text-anchor="start" x="1713" y="-144.7" font-family="Source Sans Pro" font-size="16.00">Illumination&#45;Engine</text>
<text text-anchor="start" x="1713" y="-126.7" font-family="Source Sans Pro" font-size="16.00">/src/GraphicsModule</text>
<text text-anchor="middle" x="1785.5" y="-108.7" font-family="Source Sans Pro" font-size="16.00">/IERenderEngine.hpp</text>
</a>
</g>
</g>
<!-- Node1&#45;&gt;Node2 -->
<g id="edge1" class="edge">
<title>Node1&#45;&gt;Node2</title>
<path fill="none" stroke="midnightblue" d="M1839.26,-190.76C1830.5,-181.11 1821.2,-170.86 1812.84,-161.64"/>
<polygon fill="midnightblue" stroke="midnightblue" points="1836.83,-193.29 1846.14,-198.34 1842.01,-188.58 1836.83,-193.29"/>
</g>
<!-- Node20 -->
<g id="node20" class="node">
<title>Node20</title>
<g id="a_node20"><a xlink:href="_i_e_settings_8cpp.html" target="_top" xlink:title=" ">
<polygon fill="white" stroke="black" points="1884,-99.5 1884,-161.5 2041,-161.5 2041,-99.5 1884,-99.5"/>
<text text-anchor="start" x="1892" y="-144.7" font-family="Source Sans Pro" font-size="16.00">Illumination&#45;Engine</text>
<text text-anchor="start" x="1892" y="-126.7" font-family="Source Sans Pro" font-size="16.00">/src/GraphicsModule</text>
<text text-anchor="middle" x="1962.5" y="-108.7" font-family="Source Sans Pro" font-size="16.00">/IESettings.cpp</text>
</a>
</g>
</g>
<!-- Node1&#45;&gt;Node20 -->
<g id="edge19" class="edge">
<title>Node1&#45;&gt;Node20</title>
<path fill="none" stroke="midnightblue" d="M1908.13,-190.76C1916.98,-181.11 1926.39,-170.86 1934.84,-161.64"/>
<polygon fill="midnightblue" stroke="midnightblue" points="1905.35,-188.61 1901.17,-198.34 1910.51,-193.34 1905.35,-188.61"/>
</g>
<!-- Node3 -->
<g id="node3" class="node">
<title>Node3</title>
<g id="a_node3"><a xlink:href="_i_e_buffer_8cpp.html" target="_top" xlink:title=" ">
<polygon fill="white" stroke="black" points="0,-0.5 0,-62.5 157,-62.5 157,-0.5 0,-0.5"/>
<text text-anchor="start" x="8" y="-45.7" font-family="Source Sans Pro" font-size="16.00">Illumination&#45;Engine</text>
<text text-anchor="start" x="8" y="-27.7" font-family="Source Sans Pro" font-size="16.00">/src/GraphicsModule</text>
<text text-anchor="middle" x="78.5" y="-9.7" font-family="Source Sans Pro" font-size="16.00">/Buffer/IEBuffer.cpp</text>
</a>
</g>
</g>
<!-- Node2&#45;&gt;Node3 -->
<g id="edge2" class="edge">
<title>Node2&#45;&gt;Node3</title>
<path fill="none" stroke="midnightblue" d="M1694.27,-129.3C1397.52,-128.07 461.78,-119.71 165.5,-63 162.83,-62.49 160.13,-61.91 157.41,-61.28"/>
<polygon fill="midnightblue" stroke="midnightblue" points="1694.54,-132.8 1704.56,-129.34 1694.57,-125.8 1694.54,-132.8"/>
</g>
<!-- Node4 -->
<g id="node4" class="node">
<title>Node4</title>
<g id="a_node4"><a xlink:href="_i_e_command_buffer_8cpp.html" target="_top" xlink:title=" ">
<polygon fill="white" stroke="black" points="175,-0.5 175,-62.5 468,-62.5 468,-0.5 175,-0.5"/>
<text text-anchor="start" x="183" y="-45.7" font-family="Source Sans Pro" font-size="16.00">Illumination&#45;Engine</text>
<text text-anchor="start" x="183" y="-27.7" font-family="Source Sans Pro" font-size="16.00">/src/GraphicsModule</text>
<text text-anchor="middle" x="321.5" y="-9.7" font-family="Source Sans Pro" font-size="16.00">/CommandBuffer/IECommandBuffer.cpp</text>
</a>
</g>
</g>
<!-- Node2&#45;&gt;Node4 -->
<g id="edge3" class="edge">
<title>Node2&#45;&gt;Node4</title>
<path fill="none" stroke="midnightblue" d="M1694.57,-129.32C1481.22,-127.92 932.15,-118.72 477.5,-63 474.49,-62.63 471.44,-62.24 468.38,-61.82"/>
<polygon fill="midnightblue" stroke="midnightblue" points="1694.76,-132.82 1704.78,-129.38 1694.8,-125.82 1694.76,-132.82"/>
</g>
<!-- Node5 -->
<g id="node5" class="node">
<title>Node5</title>
<g id="a_node5"><a xlink:href="_i_e_command_pool_8cpp.html" target="_top" xlink:title=" ">
<polygon fill="white" stroke="black" points="486.5,-0.5 486.5,-62.5 770.5,-62.5 770.5,-0.5 486.5,-0.5"/>
<text text-anchor="start" x="494.5" y="-45.7" font-family="Source Sans Pro" font-size="16.00">Illumination&#45;Engine</text>
<text text-anchor="start" x="494.5" y="-27.7" font-family="Source Sans Pro" font-size="16.00">/src/GraphicsModule</text>
<text text-anchor="middle" x="628.5" y="-9.7" font-family="Source Sans Pro" font-size="16.00">/CommandBuffer/IECommandPool.cpp</text>
</a>
</g>
</g>
<!-- Node2&#45;&gt;Node5 -->
<g id="edge4" class="edge">
<title>Node2&#45;&gt;Node5</title>
<path fill="none" stroke="midnightblue" d="M1694.91,-127.55C1518.15,-122.87 1115.2,-107.8 779.5,-63 776.58,-62.61 773.64,-62.2 770.68,-61.77"/>
<polygon fill="midnightblue" stroke="midnightblue" points="1694.85,-131.05 1704.94,-127.82 1695.04,-124.06 1694.85,-131.05"/>
</g>
<!-- Node6 -->
<g id="node6" class="node">
<title>Node6</title>
<g id="a_node6"><a xlink:href="_i_e_a_p_i_8cpp.html" target="_top" xlink:title=" ">
<polygon fill="white" stroke="black" points="789,-0.5 789,-62.5 946,-62.5 946,-0.5 789,-0.5"/>
<text text-anchor="start" x="797" y="-45.7" font-family="Source Sans Pro" font-size="16.00">Illumination&#45;Engine</text>
<text text-anchor="start" x="797" y="-27.7" font-family="Source Sans Pro" font-size="16.00">/src/GraphicsModule</text>
<text text-anchor="middle" x="867.5" y="-9.7" font-family="Source Sans Pro" font-size="16.00">/IEAPI.cpp</text>
</a>
</g>
</g>
<!-- Node2&#45;&gt;Node6 -->
<g id="edge5" class="edge">
<title>Node2&#45;&gt;Node6</title>
<path fill="none" stroke="midnightblue" d="M1694.53,-129.82C1540.49,-128.68 1219.22,-119.01 954.5,-63 951.84,-62.44 949.15,-61.81 946.44,-61.14"/>
<polygon fill="midnightblue" stroke="midnightblue" points="1694.86,-133.32 1704.88,-129.89 1694.9,-126.32 1694.86,-133.32"/>
</g>
<!-- Node7 -->
<g id="node7" class="node">
<title>Node7</title>
<g id="a_node7"><a xlink:href="_i_e_camera_8cpp.html" target="_top" xlink:title=" ">
<polygon fill="white" stroke="black" points="964,-0.5 964,-62.5 1121,-62.5 1121,-0.5 964,-0.5"/>
<text text-anchor="start" x="972" y="-45.7" font-family="Source Sans Pro" font-size="16.00">Illumination&#45;Engine</text>
<text text-anchor="start" x="972" y="-27.7" font-family="Source Sans Pro" font-size="16.00">/src/GraphicsModule</text>
<text text-anchor="middle" x="1042.5" y="-9.7" font-family="Source Sans Pro" font-size="16.00">/IECamera.cpp</text>
</a>
</g>
</g>
<!-- Node2&#45;&gt;Node7 -->
<g id="edge6" class="edge">
<title>Node2&#45;&gt;Node7</title>
<path fill="none" stroke="midnightblue" d="M1694.63,-127.05C1567.01,-122.09 1328.04,-107.21 1129.5,-63 1126.84,-62.41 1124.16,-61.76 1121.46,-61.07"/>
<polygon fill="midnightblue" stroke="midnightblue" points="1694.63,-130.55 1704.75,-127.43 1694.89,-123.56 1694.63,-130.55"/>
</g>
<!-- Node8 -->
<g id="node8" class="node">
<title>Node8</title>
<g id="a_node8"><a xlink:href="_i_e_render_engine_8cpp.html" target="_top" xlink:title=" ">
<polygon fill="white" stroke="black" points="1139,-0.5 1139,-62.5 1298,-62.5 1298,-0.5 1139,-0.5"/>
<text text-anchor="start" x="1147" y="-45.7" font-family="Source Sans Pro" font-size="16.00">Illumination&#45;Engine</text>
<text text-anchor="start" x="1147" y="-27.7" font-family="Source Sans Pro" font-size="16.00">/src/GraphicsModule</text>
<text text-anchor="middle" x="1218.5" y="-9.7" font-family="Source Sans Pro" font-size="16.00">/IERenderEngine.cpp</text>
</a>
</g>
</g>
<!-- Node2&#45;&gt;Node8 -->
<g id="edge7" class="edge">
<title>Node2&#45;&gt;Node8</title>
<path fill="none" stroke="midnightblue" d="M1694.87,-122.24C1597.8,-113.24 1439.75,-95.01 1306.5,-63 1303.83,-62.36 1301.12,-61.67 1298.4,-60.94"/>
<polygon fill="midnightblue" stroke="midnightblue" points="1694.66,-125.74 1704.94,-123.16 1695.3,-118.77 1694.66,-125.74"/>
</g>
<!-- Node9 -->
<g id="node9" class="node">
<title>Node9</title>
<g id="a_node9"><a xlink:href="_i_e_image_8cpp.html" target="_top" xlink:title=" ">
<polygon fill="white" stroke="black" points="1316,-0.5 1316,-62.5 1473,-62.5 1473,-0.5 1316,-0.5"/>
<text text-anchor="start" x="1324" y="-45.7" font-family="Source Sans Pro" font-size="16.00">Illumination&#45;Engine</text>
<text text-anchor="start" x="1324" y="-27.7" font-family="Source Sans Pro" font-size="16.00">/src/GraphicsModule</text>
<text text-anchor="middle" x="1394.5" y="-9.7" font-family="Source Sans Pro" font-size="16.00">/Image/IEImage.cpp</text>
</a>
</g>
</g>
<!-- Node2&#45;&gt;Node9 -->
<g id="edge8" class="edge">
<title>Node2&#45;&gt;Node9</title>
<path fill="none" stroke="midnightblue" d="M1694.87,-112.68C1634.05,-100.66 1552.4,-83.1 1481.5,-63 1478.73,-62.21 1475.92,-61.39 1473.08,-60.53"/>
<polygon fill="midnightblue" stroke="midnightblue" points="1694.34,-116.14 1704.83,-114.64 1695.69,-109.28 1694.34,-116.14"/>
</g>
<!-- Node10 -->
<g id="node10" class="node">
<title>Node10</title>
<g id="a_node10"><a xlink:href="_i_e_texture_8cpp.html" target="_top" xlink:title=" ">
<polygon fill="white" stroke="black" points="1491,-0.5 1491,-62.5 1652,-62.5 1652,-0.5 1491,-0.5"/>
<text text-anchor="start" x="1499" y="-45.7" font-family="Source Sans Pro" font-size="16.00">Illumination&#45;Engine</text>
<text text-anchor="start" x="1499" y="-27.7" font-family="Source Sans Pro" font-size="16.00">/src/GraphicsModule</text>
<text text-anchor="middle" x="1571.5" y="-9.7" font-family="Source Sans Pro" font-size="16.00">/Image/IETexture.cpp</text>
</a>
</g>
</g>
<!-- Node2&#45;&gt;Node10 -->
<g id="edge9" class="edge">
<title>Node2&#45;&gt;Node10</title>
<path fill="none" stroke="midnightblue" d="M1710.01,-95.28C1686.46,-84.61 1660.67,-72.92 1637.8,-62.55"/>
<polygon fill="midnightblue" stroke="midnightblue" points="1708.7,-98.53 1719.25,-99.47 1711.59,-92.16 1708.7,-98.53"/>
</g>
<!-- Node11 -->
<g id="node11" class="node">
<title>Node11</title>
<g id="a_node11"><a xlink:href="_i_e_framebuffer_8cpp.html" target="_top" xlink:title=" ">
<polygon fill="white" stroke="black" points="1670.5,-0.5 1670.5,-62.5 1900.5,-62.5 1900.5,-0.5 1670.5,-0.5"/>
<text text-anchor="start" x="1678.5" y="-45.7" font-family="Source Sans Pro" font-size="16.00">Illumination&#45;Engine</text>
<text text-anchor="start" x="1678.5" y="-27.7" font-family="Source Sans Pro" font-size="16.00">/src/GraphicsModule</text>
<text text-anchor="middle" x="1785.5" y="-9.7" font-family="Source Sans Pro" font-size="16.00">/RenderPass/IEFramebuffer.cpp</text>
</a>
</g>
</g>
<!-- Node2&#45;&gt;Node11 -->
<g id="edge10" class="edge">
<title>Node2&#45;&gt;Node11</title>
<path fill="none" stroke="midnightblue" d="M1785.5,-89.17C1785.5,-80.29 1785.5,-71.03 1785.5,-62.64"/>
<polygon fill="midnightblue" stroke="midnightblue" points="1782,-89.34 1785.5,-99.34 1789,-89.34 1782,-89.34"/>
</g>
<!-- Node12 -->
<g id="node12" class="node">
<title>Node12</title>
<g id="a_node12"><a xlink:href="_i_e_render_pass_8cpp.html" target="_top" xlink:title=" ">
<polygon fill="white" stroke="black" points="1919,-0.5 1919,-62.5 2146,-62.5 2146,-0.5 1919,-0.5"/>
<text text-anchor="start" x="1927" y="-45.7" font-family="Source Sans Pro" font-size="16.00">Illumination&#45;Engine</text>
<text text-anchor="start" x="1927" y="-27.7" font-family="Source Sans Pro" font-size="16.00">/src/GraphicsModule</text>
<text text-anchor="middle" x="2032.5" y="-9.7" font-family="Source Sans Pro" font-size="16.00">/RenderPass/IERenderPass.cpp</text>
</a>
</g>
</g>
<!-- Node2&#45;&gt;Node12 -->
<g id="edge11" class="edge">
<title>Node2&#45;&gt;Node12</title>
<path fill="none" stroke="midnightblue" d="M1871.55,-95.71C1899.03,-84.92 1929.23,-73.06 1955.98,-62.55"/>
<polygon fill="midnightblue" stroke="midnightblue" points="1869.99,-92.56 1861.96,-99.47 1872.55,-99.08 1869.99,-92.56"/>
</g>
<!-- Node13 -->
<g id="node13" class="node">
<title>Node13</title>
<g id="a_node13"><a xlink:href="_i_e_material_8cpp.html" target="_top" xlink:title=" ">
<polygon fill="white" stroke="black" points="2164,-0.5 2164,-62.5 2365,-62.5 2365,-0.5 2164,-0.5"/>
<text text-anchor="start" x="2172" y="-45.7" font-family="Source Sans Pro" font-size="16.00">Illumination&#45;Engine</text>
<text text-anchor="start" x="2172" y="-27.7" font-family="Source Sans Pro" font-size="16.00">/src/GraphicsModule</text>
<text text-anchor="middle" x="2264.5" y="-9.7" font-family="Source Sans Pro" font-size="16.00">/Renderable/IEMaterial.cpp</text>
</a>
</g>
</g>
<!-- Node2&#45;&gt;Node13 -->
<g id="edge12" class="edge">
<title>Node2&#45;&gt;Node13</title>
<path fill="none" stroke="midnightblue" d="M1876.07,-99.06C1999.57,-71.57 2035.66,-87.34 2155.5,-63 2158.29,-62.43 2161.12,-61.83 2163.96,-61.2"/>
<polygon fill="midnightblue" stroke="midnightblue" points="1875.21,-95.66 1866.23,-101.3 1876.76,-102.49 1875.21,-95.66"/>
</g>
<!-- Node14 -->
<g id="node14" class="node">
<title>Node14</title>
<g id="a_node14"><a xlink:href="_i_e_mesh_8cpp.html" target="_top" xlink:title=" ">
<polygon fill="white" stroke="black" points="2383,-0.5 2383,-62.5 2566,-62.5 2566,-0.5 2383,-0.5"/>
<text text-anchor="start" x="2391" y="-45.7" font-family="Source Sans Pro" font-size="16.00">Illumination&#45;Engine</text>
<text text-anchor="start" x="2391" y="-27.7" font-family="Source Sans Pro" font-size="16.00">/src/GraphicsModule</text>
<text text-anchor="middle" x="2474.5" y="-9.7" font-family="Source Sans Pro" font-size="16.00">/Renderable/IEMesh.cpp</text>
</a>
</g>
</g>
<!-- Node2&#45;&gt;Node14 -->
<g id="edge13" class="edge">
<title>Node2&#45;&gt;Node14</title>
<path fill="none" stroke="midnightblue" d="M1876.07,-99.11C2095.31,-56.37 2159.1,-103.09 2374.5,-63 2377.27,-62.49 2380.06,-61.92 2382.88,-61.32"/>
<polygon fill="midnightblue" stroke="midnightblue" points="1875.31,-95.69 1866.19,-101.08 1876.68,-102.56 1875.31,-95.69"/>
</g>
<!-- Node15 -->
<g id="node15" class="node">
<title>Node15</title>
<g id="a_node15"><a xlink:href="_i_e_renderable_8cpp.html" target="_top" xlink:title=" ">
<polygon fill="white" stroke="black" points="2584,-0.5 2584,-62.5 2809,-62.5 2809,-0.5 2584,-0.5"/>
<text text-anchor="start" x="2592" y="-45.7" font-family="Source Sans Pro" font-size="16.00">Illumination&#45;Engine</text>
<text text-anchor="start" x="2592" y="-27.7" font-family="Source Sans Pro" font-size="16.00">/src/GraphicsModule</text>
<text text-anchor="middle" x="2696.5" y="-9.7" font-family="Source Sans Pro" font-size="16.00">/Renderable/IERenderable.cpp</text>
</a>
</g>
</g>
<!-- Node2&#45;&gt;Node15 -->
<g id="edge14" class="edge">
<title>Node2&#45;&gt;Node15</title>
<path fill="none" stroke="midnightblue" d="M1876.25,-99.09C2183.34,-41.92 2270.75,-108.8 2575.5,-63 2578.29,-62.58 2581.1,-62.13 2583.93,-61.64"/>
<polygon fill="midnightblue" stroke="midnightblue" points="1875.35,-95.7 1866.17,-100.99 1876.65,-102.57 1875.35,-95.7"/>
</g>
<!-- Node16 -->
<g id="node16" class="node">
<title>Node16</title>
<g id="a_node16"><a xlink:href="_i_e_descriptor_set_8cpp.html" target="_top" xlink:title=" ">
<polygon fill="white" stroke="black" points="2827,-0.5 2827,-62.5 3034,-62.5 3034,-0.5 2827,-0.5"/>
<text text-anchor="start" x="2835" y="-45.7" font-family="Source Sans Pro" font-size="16.00">Illumination&#45;Engine</text>
<text text-anchor="start" x="2835" y="-27.7" font-family="Source Sans Pro" font-size="16.00">/src/GraphicsModule</text>
<text text-anchor="middle" x="2930.5" y="-9.7" font-family="Source Sans Pro" font-size="16.00">/Shader/IEDescriptorSet.cpp</text>
</a>
</g>
</g>
<!-- Node2&#45;&gt;Node16 -->
<g id="edge15" class="edge">
<title>Node2&#45;&gt;Node16</title>
<path fill="none" stroke="midnightblue" d="M1876.3,-99.09C2289.84,-24.56 2407.26,-126 2818.5,-63 2821.29,-62.57 2824.11,-62.1 2826.94,-61.59"/>
<polygon fill="midnightblue" stroke="midnightblue" points="1875.37,-95.7 1866.16,-100.94 1876.63,-102.59 1875.37,-95.7"/>
</g>
<!-- Node17 -->
<g id="node17" class="node">
<title>Node17</title>
<g id="a_node17"><a xlink:href="_i_e_pipeline_8cpp.html" target="_top" xlink:title=" ">
<polygon fill="white" stroke="black" points="3052.5,-0.5 3052.5,-62.5 3224.5,-62.5 3224.5,-0.5 3052.5,-0.5"/>
<text text-anchor="start" x="3060.5" y="-45.7" font-family="Source Sans Pro" font-size="16.00">Illumination&#45;Engine</text>
<text text-anchor="start" x="3060.5" y="-27.7" font-family="Source Sans Pro" font-size="16.00">/src/GraphicsModule</text>
<text text-anchor="middle" x="3138.5" y="-9.7" font-family="Source Sans Pro" font-size="16.00">/Shader/IEPipeline.cpp</text>
</a>
</g>
</g>
<!-- Node2&#45;&gt;Node17 -->
<g id="edge16" class="edge">
<title>Node2&#45;&gt;Node17</title>
<path fill="none" stroke="midnightblue" d="M1876.02,-99.15C2388.44,-8.47 2534.94,-150.68 3043.5,-63 3046.4,-62.5 3049.34,-61.93 3052.29,-61.31"/>
<polygon fill="midnightblue" stroke="midnightblue" points="1875.38,-95.7 1866.16,-100.91 1876.62,-102.59 1875.38,-95.7"/>
</g>
<!-- Node18 -->
<g id="node18" class="node">
<title>Node18</title>
<g id="a_node18"><a xlink:href="_i_e_shader_8cpp.html" target="_top" xlink:title=" ">
<polygon fill="white" stroke="black" points="3242.5,-0.5 3242.5,-62.5 3406.5,-62.5 3406.5,-0.5 3242.5,-0.5"/>
<text text-anchor="start" x="3250.5" y="-45.7" font-family="Source Sans Pro" font-size="16.00">Illumination&#45;Engine</text>
<text text-anchor="start" x="3250.5" y="-27.7" font-family="Source Sans Pro" font-size="16.00">/src/GraphicsModule</text>
<text text-anchor="middle" x="3324.5" y="-9.7" font-family="Source Sans Pro" font-size="16.00">/Shader/IEShader.cpp</text>
</a>
</g>
</g>
<!-- Node2&#45;&gt;Node18 -->
<g id="edge17" class="edge">
<title>Node2&#45;&gt;Node18</title>
<path fill="none" stroke="midnightblue" d="M1876.28,-99.1C2471.79,5.13 2642.29,-167.5 3233.5,-63 3236.45,-62.48 3239.44,-61.88 3242.44,-61.22"/>
<polygon fill="midnightblue" stroke="midnightblue" points="1875.39,-95.71 1866.15,-100.9 1876.61,-102.6 1875.39,-95.71"/>
</g>
<!-- Node19 -->
<g id="node19" class="node">
<title>Node19</title>
<g id="a_node19"><a xlink:href="main_8cpp.html" target="_top" xlink:title=" ">
<polygon fill="white" stroke="black" points="3424.5,-9.5 3424.5,-53.5 3574.5,-53.5 3574.5,-9.5 3424.5,-9.5"/>
<text text-anchor="start" x="3432.5" y="-36.7" font-family="Source Sans Pro" font-size="16.00">Illumination&#45;Engine</text>
<text text-anchor="middle" x="3499.5" y="-18.7" font-family="Source Sans Pro" font-size="16.00">/src/main.cpp</text>
</a>
</g>
</g>
<!-- Node2&#45;&gt;Node19 -->
<g id="edge18" class="edge">
<title>Node2&#45;&gt;Node19</title>
<path fill="none" stroke="midnightblue" d="M1876.19,-99.17C2229.04,-41.02 3082.28,-125.65 3415.5,-63 3426.78,-60.88 3438.56,-57.44 3449.61,-53.61"/>
<polygon fill="midnightblue" stroke="midnightblue" points="1875.42,-95.75 1866.15,-100.88 1876.6,-102.65 1875.42,-95.75"/>
</g>
</g>
</svg>
