<?xml version="1.0" encoding="UTF-8" standalone="no"?>
<!DOCTYPE svg PUBLIC "-//W3C//DTD SVG 1.1//EN"
 "http://www.w3.org/Graphics/SVG/1.1/DTD/svg11.dtd">
<!-- Generated by graphviz version 2.43.0 (0)
 -->
<!-- Title: Illumination&#45;Engine/src/Core/AssetModule/IEAspect.cpp Pages: 1 -->
<svg width="233pt" height="197pt"
 viewBox="0.00 0.00 232.50 197.00" xmlns="http://www.w3.org/2000/svg" xmlns:xlink="http://www.w3.org/1999/xlink">
<g id="graph0" class="graph" transform="scale(1 1) rotate(0) translate(4 193)">
<title>Illumination&#45;Engine/src/Core/AssetModule/IEAspect.cpp</title>
<polygon fill="white" stroke="transparent" points="-4,4 -4,-193 228.5,-193 228.5,4 -4,4"/>
<!-- Node1 -->
<g id="node1" class="node">
<title>Node1</title>
<g id="a_node1"><a xlink:title=" ">
<polygon fill="#bfbfbf" stroke="black" points="35,-126.5 35,-188.5 205,-188.5 205,-126.5 35,-126.5"/>
<text text-anchor="start" x="43" y="-171.7" font-family="Source Sans Pro" font-size="16.00">Illumination&#45;Engine</text>
<text text-anchor="start" x="43" y="-153.7" font-family="Source Sans Pro" font-size="16.00">/src/Core/AssetModule</text>
<text text-anchor="middle" x="120" y="-135.7" font-family="Source Sans Pro" font-size="16.00">/IEAspect.cpp</text>
</a>
</g>
</g>
<!-- Node2 -->
<g id="node2" class="node">
<title>Node2</title>
<g id="a_node2"><a xlink:href="_i_e_aspect_8hpp.html" target="_top" xlink:title=" ">
<polygon fill="white" stroke="black" points="67,-63.5 67,-89.5 173,-89.5 173,-63.5 67,-63.5"/>
<text text-anchor="middle" x="120" y="-72.7" font-family="Source Sans Pro" font-size="16.00">IEAspect.hpp</text>
</a>
</g>
</g>
<!-- Node1&#45;&gt;Node2 -->
<g id="edge1" class="edge">
<title>Node1&#45;&gt;Node2</title>
<path fill="none" stroke="midnightblue" d="M120,-126.18C120,-117.45 120,-108.08 120,-99.91"/>
<polygon fill="midnightblue" stroke="midnightblue" points="123.5,-99.7 120,-89.7 116.5,-99.7 123.5,-99.7"/>
</g>
<!-- Node3 -->
<g id="node3" class="node">
<title>Node3</title>
<g id="a_node3"><a xlink:title=" ">
<polygon fill="white" stroke="#bfbfbf" points="0,-0.5 0,-26.5 74,-26.5 74,-0.5 0,-0.5"/>
<text text-anchor="middle" x="37" y="-9.7" font-family="Source Sans Pro" font-size="16.00">memory</text>
</a>
</g>
</g>
<!-- Node2&#45;&gt;Node3 -->
<g id="edge2" class="edge">
<title>Node2&#45;&gt;Node3</title>
<path fill="none" stroke="midnightblue" d="M103.6,-63.45C91.67,-54.68 75.29,-42.64 61.77,-32.7"/>
<polygon fill="midnightblue" stroke="midnightblue" points="63.49,-29.63 53.36,-26.53 59.35,-35.27 63.49,-29.63"/>
</g>
<!-- Node4 -->
<g id="node4" class="node">
<title>Node4</title>
<g id="a_node4"><a xlink:title=" ">
<polygon fill="white" stroke="#bfbfbf" points="92.5,-0.5 92.5,-26.5 147.5,-26.5 147.5,-0.5 92.5,-0.5"/>
<text text-anchor="middle" x="120" y="-9.7" font-family="Source Sans Pro" font-size="16.00">string</text>
</a>
</g>
</g>
<!-- Node2&#45;&gt;Node4 -->
<g id="edge3" class="edge">
<title>Node2&#45;&gt;Node4</title>
<path fill="none" stroke="midnightblue" d="M120,-63.45C120,-55.85 120,-45.79 120,-36.78"/>
<polygon fill="midnightblue" stroke="midnightblue" points="123.5,-36.53 120,-26.53 116.5,-36.53 123.5,-36.53"/>
</g>
<!-- Node5 -->
<g id="node5" class="node">
<title>Node5</title>
<g id="a_node5"><a xlink:title=" ">
<polygon fill="white" stroke="#bfbfbf" points="165.5,-0.5 165.5,-26.5 224.5,-26.5 224.5,-0.5 165.5,-0.5"/>
<text text-anchor="middle" x="195" y="-9.7" font-family="Source Sans Pro" font-size="16.00">vector</text>
</a>
</g>
</g>
<!-- Node2&#45;&gt;Node5 -->
<g id="edge4" class="edge">
<title>Node2&#45;&gt;Node5</title>
<path fill="none" stroke="midnightblue" d="M134.82,-63.45C145.5,-54.76 160.12,-42.87 172.27,-32.99"/>
<polygon fill="midnightblue" stroke="midnightblue" points="174.66,-35.55 180.21,-26.53 170.25,-30.12 174.66,-35.55"/>
</g>
</g>
</svg>
