<?xml version="1.0" encoding="UTF-8" standalone="no"?>
<!DOCTYPE svg PUBLIC "-//W3C//DTD SVG 1.1//EN"
 "http://www.w3.org/Graphics/SVG/1.1/DTD/svg11.dtd">
<!-- Generated by graphviz version 2.43.0 (0)
 -->
<!-- Title: Illumination&#45;Engine/src/GraphicsModule/Shader/IEUniformBufferObject.hpp Pages: 1 -->
<svg width="268pt" height="134pt"
 viewBox="0.00 0.00 268.00 134.00" xmlns="http://www.w3.org/2000/svg" xmlns:xlink="http://www.w3.org/1999/xlink">
<g id="graph0" class="graph" transform="scale(1 1) rotate(0) translate(4 130)">
<title>Illumination&#45;Engine/src/GraphicsModule/Shader/IEUniformBufferObject.hpp</title>
<polygon fill="white" stroke="transparent" points="-4,4 -4,-130 264,-130 264,4 -4,4"/>
<!-- Node1 -->
<g id="node1" class="node">
<title>Node1</title>
<g id="a_node1"><a xlink:title=" ">
<polygon fill="#bfbfbf" stroke="black" points="0,-63.5 0,-125.5 260,-125.5 260,-63.5 0,-63.5"/>
<text text-anchor="start" x="8" y="-108.7" font-family="Source Sans Pro" font-size="16.00">Illumination&#45;Engine</text>
<text text-anchor="start" x="8" y="-90.7" font-family="Source Sans Pro" font-size="16.00">/src/GraphicsModule</text>
<text text-anchor="middle" x="130" y="-72.7" font-family="Source Sans Pro" font-size="16.00">/Shader/IEUniformBufferObject.hpp</text>
</a>
</g>
</g>
<!-- Node2 -->
<g id="node2" class="node">
<title>Node2</title>
<g id="a_node2"><a xlink:title=" ">
<polygon fill="white" stroke="#bfbfbf" points="78,-0.5 78,-26.5 182,-26.5 182,-0.5 78,-0.5"/>
<text text-anchor="middle" x="130" y="-9.7" font-family="Source Sans Pro" font-size="16.00">glm/glm.hpp</text>
</a>
</g>
</g>
<!-- Node1&#45;&gt;Node2 -->
<g id="edge1" class="edge">
<title>Node1&#45;&gt;Node2</title>
<path fill="none" stroke="midnightblue" d="M130,-63.18C130,-54.45 130,-45.08 130,-36.91"/>
<polygon fill="midnightblue" stroke="midnightblue" points="133.5,-36.7 130,-26.7 126.5,-36.7 133.5,-36.7"/>
</g>
</g>
</svg>
