<?xml version="1.0" encoding="UTF-8" standalone="no"?>
<!DOCTYPE svg PUBLIC "-//W3C//DTD SVG 1.1//EN"
 "http://www.w3.org/Graphics/SVG/1.1/DTD/svg11.dtd">
<!-- Generated by graphviz version 2.43.0 (0)
 -->
<!-- Title: Illumination&#45;Engine/src/Core/ThreadingModule/JobQueue.cpp Pages: 1 -->
<svg width="211pt" height="197pt"
 viewBox="0.00 0.00 211.00 197.00" xmlns="http://www.w3.org/2000/svg" xmlns:xlink="http://www.w3.org/1999/xlink">
<g id="graph0" class="graph" transform="scale(1 1) rotate(0) translate(4 193)">
<title>Illumination&#45;Engine/src/Core/ThreadingModule/JobQueue.cpp</title>
<polygon fill="white" stroke="transparent" points="-4,4 -4,-193 207,-193 207,4 -4,4"/>
<!-- Node1 -->
<g id="node1" class="node">
<title>Node1</title>
<g id="a_node1"><a xlink:title=" ">
<polygon fill="#bfbfbf" stroke="black" points="0,-126.5 0,-188.5 203,-188.5 203,-126.5 0,-126.5"/>
<text text-anchor="start" x="8" y="-171.7" font-family="Source Sans Pro" font-size="16.00">Illumination&#45;Engine</text>
<text text-anchor="start" x="8" y="-153.7" font-family="Source Sans Pro" font-size="16.00">/src/Core/ThreadingModule</text>
<text text-anchor="middle" x="101.5" y="-135.7" font-family="Source Sans Pro" font-size="16.00">/JobQueue.cpp</text>
</a>
</g>
</g>
<!-- Node2 -->
<g id="node2" class="node">
<title>Node2</title>
<g id="a_node2"><a xlink:href="_job_queue_8hpp.html" target="_top" xlink:title=" ">
<polygon fill="white" stroke="black" points="42.5,-63.5 42.5,-89.5 160.5,-89.5 160.5,-63.5 42.5,-63.5"/>
<text text-anchor="middle" x="101.5" y="-72.7" font-family="Source Sans Pro" font-size="16.00">JobQueue.hpp</text>
</a>
</g>
</g>
<!-- Node1&#45;&gt;Node2 -->
<g id="edge1" class="edge">
<title>Node1&#45;&gt;Node2</title>
<path fill="none" stroke="midnightblue" d="M101.5,-126.18C101.5,-117.45 101.5,-108.08 101.5,-99.91"/>
<polygon fill="midnightblue" stroke="midnightblue" points="105,-99.7 101.5,-89.7 98,-99.7 105,-99.7"/>
</g>
<!-- Node3 -->
<g id="node3" class="node">
<title>Node3</title>
<g id="a_node3"><a xlink:title=" ">
<polygon fill="white" stroke="#bfbfbf" points="33,-0.5 33,-26.5 92,-26.5 92,-0.5 33,-0.5"/>
<text text-anchor="middle" x="62.5" y="-9.7" font-family="Source Sans Pro" font-size="16.00">mutex</text>
</a>
</g>
</g>
<!-- Node2&#45;&gt;Node3 -->
<g id="edge2" class="edge">
<title>Node2&#45;&gt;Node3</title>
<path fill="none" stroke="midnightblue" d="M93.79,-63.45C88.61,-55.34 81.65,-44.46 75.61,-35.01"/>
<polygon fill="midnightblue" stroke="midnightblue" points="78.52,-33.07 70.19,-26.53 72.63,-36.84 78.52,-33.07"/>
</g>
<!-- Node4 -->
<g id="node4" class="node">
<title>Node4</title>
<g id="a_node4"><a xlink:title=" ">
<polygon fill="white" stroke="#bfbfbf" points="110.5,-0.5 110.5,-26.5 170.5,-26.5 170.5,-0.5 110.5,-0.5"/>
<text text-anchor="middle" x="140.5" y="-9.7" font-family="Source Sans Pro" font-size="16.00">queue</text>
</a>
</g>
</g>
<!-- Node2&#45;&gt;Node4 -->
<g id="edge3" class="edge">
<title>Node2&#45;&gt;Node4</title>
<path fill="none" stroke="midnightblue" d="M109.21,-63.45C114.39,-55.34 121.35,-44.46 127.39,-35.01"/>
<polygon fill="midnightblue" stroke="midnightblue" points="130.37,-36.84 132.81,-26.53 124.48,-33.07 130.37,-36.84"/>
</g>
</g>
</svg>
