<?xml version="1.0" encoding="UTF-8" standalone="no"?>
<!DOCTYPE svg PUBLIC "-//W3C//DTD SVG 1.1//EN"
 "http://www.w3.org/Graphics/SVG/1.1/DTD/svg11.dtd">
<!-- Generated by graphviz version 2.43.0 (0)
 -->
<!-- Title: Illumination&#45;Engine/src/Core/ThreadingModule/ThreadPool.cpp Pages: 1 -->
<svg width="1009pt" height="260pt"
 viewBox="0.00 0.00 1009.00 260.00" xmlns="http://www.w3.org/2000/svg" xmlns:xlink="http://www.w3.org/1999/xlink">
<g id="graph0" class="graph" transform="scale(1 1) rotate(0) translate(4 256)">
<title>Illumination&#45;Engine/src/Core/ThreadingModule/ThreadPool.cpp</title>
<polygon fill="white" stroke="transparent" points="-4,4 -4,-256 1005,-256 1005,4 -4,4"/>
<!-- Node1 -->
<g id="node1" class="node">
<title>Node1</title>
<g id="a_node1"><a xlink:title=" ">
<polygon fill="#bfbfbf" stroke="black" points="194,-189.5 194,-251.5 397,-251.5 397,-189.5 194,-189.5"/>
<text text-anchor="start" x="202" y="-234.7" font-family="Source Sans Pro" font-size="16.00">Illumination&#45;Engine</text>
<text text-anchor="start" x="202" y="-216.7" font-family="Source Sans Pro" font-size="16.00">/src/Core/ThreadingModule</text>
<text text-anchor="middle" x="295.5" y="-198.7" font-family="Source Sans Pro" font-size="16.00">/ThreadPool.cpp</text>
</a>
</g>
</g>
<!-- Node2 -->
<g id="node2" class="node">
<title>Node2</title>
<g id="a_node2"><a xlink:href="_thread_pool_8hpp.html" target="_top" xlink:title=" ">
<polygon fill="white" stroke="black" points="431,-126.5 431,-152.5 556,-152.5 556,-126.5 431,-126.5"/>
<text text-anchor="middle" x="493.5" y="-135.7" font-family="Source Sans Pro" font-size="16.00">ThreadPool.hpp</text>
</a>
</g>
</g>
<!-- Node1&#45;&gt;Node2 -->
<g id="edge1" class="edge">
<title>Node1&#45;&gt;Node2</title>
<path fill="none" stroke="midnightblue" d="M370.92,-189.41C399.16,-178.14 430.12,-165.79 453.86,-156.32"/>
<polygon fill="midnightblue" stroke="midnightblue" points="455.24,-159.53 463.23,-152.58 452.65,-153.03 455.24,-159.53"/>
</g>
<!-- Node15 -->
<g id="node15" class="node">
<title>Node15</title>
<g id="a_node15"><a xlink:href="_worker_thread_8hpp.html" target="_top" xlink:title=" ">
<polygon fill="white" stroke="black" points="148,-126.5 148,-152.5 291,-152.5 291,-126.5 148,-126.5"/>
<text text-anchor="middle" x="219.5" y="-135.7" font-family="Source Sans Pro" font-size="16.00">WorkerThread.hpp</text>
</a>
</g>
</g>
<!-- Node1&#45;&gt;Node15 -->
<g id="edge15" class="edge">
<title>Node1&#45;&gt;Node15</title>
<path fill="none" stroke="midnightblue" d="M266.33,-189.18C256.88,-179.36 246.65,-168.73 238.18,-159.91"/>
<polygon fill="midnightblue" stroke="midnightblue" points="240.69,-157.48 231.24,-152.7 235.65,-162.34 240.69,-157.48"/>
</g>
<!-- Node3 -->
<g id="node3" class="node">
<title>Node3</title>
<g id="a_node3"><a xlink:href="_job_queue_8hpp.html" target="_top" xlink:title=" ">
<polygon fill="white" stroke="black" points="119.5,-63.5 119.5,-89.5 237.5,-89.5 237.5,-63.5 119.5,-63.5"/>
<text text-anchor="middle" x="178.5" y="-72.7" font-family="Source Sans Pro" font-size="16.00">JobQueue.hpp</text>
</a>
</g>
</g>
<!-- Node2&#45;&gt;Node3 -->
<g id="edge2" class="edge">
<title>Node2&#45;&gt;Node3</title>
<path fill="none" stroke="midnightblue" d="M431.27,-126.45C378.35,-116.2 302.45,-101.5 247.65,-90.89"/>
<polygon fill="midnightblue" stroke="midnightblue" points="248.16,-87.42 237.67,-88.96 246.82,-94.3 248.16,-87.42"/>
</g>
<!-- Node4 -->
<g id="node4" class="node">
<title>Node4</title>
<g id="a_node4"><a xlink:title=" ">
<polygon fill="white" stroke="#bfbfbf" points="67,-0.5 67,-26.5 126,-26.5 126,-0.5 67,-0.5"/>
<text text-anchor="middle" x="96.5" y="-9.7" font-family="Source Sans Pro" font-size="16.00">mutex</text>
</a>
</g>
</g>
<!-- Node2&#45;&gt;Node4 -->
<g id="edge11" class="edge">
<title>Node2&#45;&gt;Node4</title>
<path fill="none" stroke="midnightblue" d="M430.82,-134.57C328.18,-127.56 133.34,-111.57 110.5,-90 96.35,-76.64 93.78,-53.96 94.19,-36.93"/>
<polygon fill="midnightblue" stroke="midnightblue" points="97.7,-36.91 94.8,-26.72 90.71,-36.49 97.7,-36.91"/>
</g>
<!-- Node6 -->
<g id="node6" class="node">
<title>Node6</title>
<g id="a_node6"><a xlink:title=" ">
<polygon fill="white" stroke="#bfbfbf" points="255.5,-63.5 255.5,-89.5 337.5,-89.5 337.5,-63.5 255.5,-63.5"/>
<text text-anchor="middle" x="296.5" y="-72.7" font-family="Source Sans Pro" font-size="16.00">algorithm</text>
</a>
</g>
</g>
<!-- Node2&#45;&gt;Node6 -->
<g id="edge5" class="edge">
<title>Node2&#45;&gt;Node6</title>
<path fill="none" stroke="midnightblue" d="M454.58,-126.45C423.15,-116.72 378.74,-102.97 345,-92.52"/>
<polygon fill="midnightblue" stroke="midnightblue" points="345.93,-89.14 335.34,-89.53 343.86,-95.83 345.93,-89.14"/>
</g>
<!-- Node7 -->
<g id="node7" class="node">
<title>Node7</title>
<g id="a_node7"><a xlink:title=" ">
<polygon fill="white" stroke="#bfbfbf" points="356,-63.5 356,-89.5 499,-89.5 499,-63.5 356,-63.5"/>
<text text-anchor="middle" x="427.5" y="-72.7" font-family="Source Sans Pro" font-size="16.00">condition_variable</text>
</a>
</g>
</g>
<!-- Node2&#45;&gt;Node7 -->
<g id="edge6" class="edge">
<title>Node2&#45;&gt;Node7</title>
<path fill="none" stroke="midnightblue" d="M480.46,-126.45C471.24,-117.93 458.69,-106.33 448.12,-96.56"/>
<polygon fill="midnightblue" stroke="midnightblue" points="450.23,-93.74 440.51,-89.53 445.48,-98.88 450.23,-93.74"/>
</g>
<!-- Node8 -->
<g id="node8" class="node">
<title>Node8</title>
<g id="a_node8"><a xlink:title=" ">
<polygon fill="white" stroke="#bfbfbf" points="0,-63.5 0,-89.5 63,-89.5 63,-63.5 0,-63.5"/>
<text text-anchor="middle" x="31.5" y="-72.7" font-family="Source Sans Pro" font-size="16.00">cstdint</text>
</a>
</g>
</g>
<!-- Node2&#45;&gt;Node8 -->
<g id="edge7" class="edge">
<title>Node2&#45;&gt;Node8</title>
<path fill="none" stroke="midnightblue" d="M430.68,-134.11C348.84,-127.73 201.55,-113.95 77.5,-90 76.03,-89.72 74.53,-89.41 73.03,-89.08"/>
<polygon fill="midnightblue" stroke="midnightblue" points="73.56,-85.62 63.03,-86.73 71.96,-92.43 73.56,-85.62"/>
</g>
<!-- Node9 -->
<g id="node9" class="node">
<title>Node9</title>
<g id="a_node9"><a xlink:title=" ">
<polygon fill="white" stroke="#bfbfbf" points="517.5,-63.5 517.5,-89.5 603.5,-89.5 603.5,-63.5 517.5,-63.5"/>
<text text-anchor="middle" x="560.5" y="-72.7" font-family="Source Sans Pro" font-size="16.00">functional</text>
</a>
</g>
</g>
<!-- Node2&#45;&gt;Node9 -->
<g id="edge8" class="edge">
<title>Node2&#45;&gt;Node9</title>
<path fill="none" stroke="midnightblue" d="M506.74,-126.45C516.19,-117.84 529.09,-106.1 539.88,-96.27"/>
<polygon fill="midnightblue" stroke="midnightblue" points="542.25,-98.85 547.29,-89.53 537.54,-93.67 542.25,-98.85"/>
</g>
<!-- Node10 -->
<g id="node10" class="node">
<title>Node10</title>
<g id="a_node10"><a xlink:title=" ">
<polygon fill="white" stroke="#bfbfbf" points="621.5,-63.5 621.5,-89.5 679.5,-89.5 679.5,-63.5 621.5,-63.5"/>
<text text-anchor="middle" x="650.5" y="-72.7" font-family="Source Sans Pro" font-size="16.00">future</text>
</a>
</g>
</g>
<!-- Node2&#45;&gt;Node10 -->
<g id="edge9" class="edge">
<title>Node2&#45;&gt;Node10</title>
<path fill="none" stroke="midnightblue" d="M524.52,-126.45C549.59,-116.71 585.01,-102.95 611.91,-92.49"/>
<polygon fill="midnightblue" stroke="midnightblue" points="613.35,-95.69 621.4,-88.81 610.81,-89.16 613.35,-95.69"/>
</g>
<!-- Node11 -->
<g id="node11" class="node">
<title>Node11</title>
<g id="a_node11"><a xlink:title=" ">
<polygon fill="white" stroke="#bfbfbf" points="697.5,-63.5 697.5,-89.5 771.5,-89.5 771.5,-63.5 697.5,-63.5"/>
<text text-anchor="middle" x="734.5" y="-72.7" font-family="Source Sans Pro" font-size="16.00">memory</text>
</a>
</g>
</g>
<!-- Node2&#45;&gt;Node11 -->
<g id="edge10" class="edge">
<title>Node2&#45;&gt;Node11</title>
<path fill="none" stroke="midnightblue" d="M543.27,-126.44C580.48,-117.34 632.86,-104.39 687.5,-90.23"/>
<polygon fill="midnightblue" stroke="midnightblue" points="688.56,-93.57 697.36,-87.67 686.8,-86.79 688.56,-93.57"/>
</g>
<!-- Node12 -->
<g id="node12" class="node">
<title>Node12</title>
<g id="a_node12"><a xlink:title=" ">
<polygon fill="white" stroke="#bfbfbf" points="790,-63.5 790,-89.5 851,-89.5 851,-63.5 790,-63.5"/>
<text text-anchor="middle" x="820.5" y="-72.7" font-family="Source Sans Pro" font-size="16.00">thread</text>
</a>
</g>
</g>
<!-- Node2&#45;&gt;Node12 -->
<g id="edge12" class="edge">
<title>Node2&#45;&gt;Node12</title>
<path fill="none" stroke="midnightblue" d="M556.14,-130.41C612.38,-122.58 697.31,-109.36 779.82,-89.94"/>
<polygon fill="midnightblue" stroke="midnightblue" points="780.69,-93.33 789.61,-87.61 779.07,-86.53 780.69,-93.33"/>
</g>
<!-- Node13 -->
<g id="node13" class="node">
<title>Node13</title>
<g id="a_node13"><a xlink:title=" ">
<polygon fill="white" stroke="#bfbfbf" points="869,-63.5 869,-89.5 924,-89.5 924,-63.5 869,-63.5"/>
<text text-anchor="middle" x="896.5" y="-72.7" font-family="Source Sans Pro" font-size="16.00">utility</text>
</a>
</g>
</g>
<!-- Node2&#45;&gt;Node13 -->
<g id="edge13" class="edge">
<title>Node2&#45;&gt;Node13</title>
<path fill="none" stroke="midnightblue" d="M556.21,-134.1C627.69,-128.23 747.98,-115.71 858.75,-90.11"/>
<polygon fill="midnightblue" stroke="midnightblue" points="859.82,-93.45 868.76,-87.76 858.22,-86.64 859.82,-93.45"/>
</g>
<!-- Node14 -->
<g id="node14" class="node">
<title>Node14</title>
<g id="a_node14"><a xlink:title=" ">
<polygon fill="white" stroke="#bfbfbf" points="942,-63.5 942,-89.5 1001,-89.5 1001,-63.5 942,-63.5"/>
<text text-anchor="middle" x="971.5" y="-72.7" font-family="Source Sans Pro" font-size="16.00">vector</text>
</a>
</g>
</g>
<!-- Node2&#45;&gt;Node14 -->
<g id="edge14" class="edge">
<title>Node2&#45;&gt;Node14</title>
<path fill="none" stroke="midnightblue" d="M556.09,-135.7C640.01,-131.04 793.54,-119.34 931.86,-90.06"/>
<polygon fill="midnightblue" stroke="midnightblue" points="932.75,-93.45 941.79,-87.92 931.28,-86.6 932.75,-93.45"/>
</g>
<!-- Node3&#45;&gt;Node4 -->
<g id="edge3" class="edge">
<title>Node3&#45;&gt;Node4</title>
<path fill="none" stroke="midnightblue" d="M162.3,-63.45C150.51,-54.68 134.33,-42.64 120.97,-32.7"/>
<polygon fill="midnightblue" stroke="midnightblue" points="122.78,-29.69 112.67,-26.53 118.6,-35.3 122.78,-29.69"/>
</g>
<!-- Node5 -->
<g id="node5" class="node">
<title>Node5</title>
<g id="a_node5"><a xlink:title=" ">
<polygon fill="white" stroke="#bfbfbf" points="148.5,-0.5 148.5,-26.5 208.5,-26.5 208.5,-0.5 148.5,-0.5"/>
<text text-anchor="middle" x="178.5" y="-9.7" font-family="Source Sans Pro" font-size="16.00">queue</text>
</a>
</g>
</g>
<!-- Node3&#45;&gt;Node5 -->
<g id="edge4" class="edge">
<title>Node3&#45;&gt;Node5</title>
<path fill="none" stroke="midnightblue" d="M178.5,-63.45C178.5,-55.85 178.5,-45.79 178.5,-36.78"/>
<polygon fill="midnightblue" stroke="midnightblue" points="182,-36.53 178.5,-26.53 175,-36.53 182,-36.53"/>
</g>
<!-- Node15&#45;&gt;Node8 -->
<g id="edge16" class="edge">
<title>Node15&#45;&gt;Node8</title>
<path fill="none" stroke="midnightblue" d="M182.36,-126.45C150.84,-116.22 105.66,-101.56 72.97,-90.96"/>
<polygon fill="midnightblue" stroke="midnightblue" points="73.85,-87.56 63.25,-87.8 71.69,-94.22 73.85,-87.56"/>
</g>
</g>
</svg>
