<?xml version="1.0" encoding="UTF-8" standalone="no"?>
<!DOCTYPE svg PUBLIC "-//W3C//DTD SVG 1.1//EN"
 "http://www.w3.org/Graphics/SVG/1.1/DTD/svg11.dtd">
<!-- Generated by graphviz version 2.43.0 (0)
 -->
<!-- Title: Illumination&#45;Engine/src/Core/ThreadingModule/ThreadPool.hpp Pages: 1 -->
<svg width="600pt" height="170pt"
 viewBox="0.00 0.00 599.50 170.00" xmlns="http://www.w3.org/2000/svg" xmlns:xlink="http://www.w3.org/1999/xlink">
<g id="graph0" class="graph" transform="scale(1 1) rotate(0) translate(4 166)">
<title>Illumination&#45;Engine/src/Core/ThreadingModule/ThreadPool.hpp</title>
<polygon fill="white" stroke="transparent" points="-4,4 -4,-166 595.5,-166 595.5,4 -4,4"/>
<!-- Node1 -->
<g id="node1" class="node">
<title>Node1</title>
<g id="a_node1"><a xlink:title=" ">
<polygon fill="#bfbfbf" stroke="black" points="221,-99.5 221,-161.5 424,-161.5 424,-99.5 221,-99.5"/>
<text text-anchor="start" x="229" y="-144.7" font-family="Source Sans Pro" font-size="16.00">Illumination&#45;Engine</text>
<text text-anchor="start" x="229" y="-126.7" font-family="Source Sans Pro" font-size="16.00">/src/Core/ThreadingModule</text>
<text text-anchor="middle" x="322.5" y="-108.7" font-family="Source Sans Pro" font-size="16.00">/ThreadPool.hpp</text>
</a>
</g>
</g>
<!-- Node2 -->
<g id="node2" class="node">
<title>Node2</title>
<g id="a_node2"><a xlink:href="_thread_pool_8cpp.html" target="_top" xlink:title=" ">
<polygon fill="white" stroke="black" points="0,-0.5 0,-62.5 203,-62.5 203,-0.5 0,-0.5"/>
<text text-anchor="start" x="8" y="-45.7" font-family="Source Sans Pro" font-size="16.00">Illumination&#45;Engine</text>
<text text-anchor="start" x="8" y="-27.7" font-family="Source Sans Pro" font-size="16.00">/src/Core/ThreadingModule</text>
<text text-anchor="middle" x="101.5" y="-9.7" font-family="Source Sans Pro" font-size="16.00">/ThreadPool.cpp</text>
</a>
</g>
</g>
<!-- Node1&#45;&gt;Node2 -->
<g id="edge1" class="edge">
<title>Node1&#45;&gt;Node2</title>
<path fill="none" stroke="midnightblue" d="M244.86,-95.42C220.45,-84.71 193.69,-72.96 169.97,-62.55"/>
<polygon fill="midnightblue" stroke="midnightblue" points="243.52,-98.66 254.09,-99.47 246.34,-92.25 243.52,-98.66"/>
</g>
<!-- Node3 -->
<g id="node3" class="node">
<title>Node3</title>
<g id="a_node3"><a xlink:href="_worker_thread_8cpp.html" target="_top" xlink:title=" ">
<polygon fill="white" stroke="black" points="221,-0.5 221,-62.5 424,-62.5 424,-0.5 221,-0.5"/>
<text text-anchor="start" x="229" y="-45.7" font-family="Source Sans Pro" font-size="16.00">Illumination&#45;Engine</text>
<text text-anchor="start" x="229" y="-27.7" font-family="Source Sans Pro" font-size="16.00">/src/Core/ThreadingModule</text>
<text text-anchor="middle" x="322.5" y="-9.7" font-family="Source Sans Pro" font-size="16.00">/WorkerThread.cpp</text>
</a>
</g>
</g>
<!-- Node1&#45;&gt;Node3 -->
<g id="edge2" class="edge">
<title>Node1&#45;&gt;Node3</title>
<path fill="none" stroke="midnightblue" d="M322.5,-89.17C322.5,-80.29 322.5,-71.03 322.5,-62.64"/>
<polygon fill="midnightblue" stroke="midnightblue" points="319,-89.34 322.5,-99.34 326,-89.34 319,-89.34"/>
</g>
<!-- Node4 -->
<g id="node4" class="node">
<title>Node4</title>
<g id="a_node4"><a xlink:href="main_8cpp.html" target="_top" xlink:title=" ">
<polygon fill="white" stroke="black" points="441.5,-9.5 441.5,-53.5 591.5,-53.5 591.5,-9.5 441.5,-9.5"/>
<text text-anchor="start" x="449.5" y="-36.7" font-family="Source Sans Pro" font-size="16.00">Illumination&#45;Engine</text>
<text text-anchor="middle" x="516.5" y="-18.7" font-family="Source Sans Pro" font-size="16.00">/src/main.cpp</text>
</a>
</g>
</g>
<!-- Node1&#45;&gt;Node4 -->
<g id="edge3" class="edge">
<title>Node1&#45;&gt;Node4</title>
<path fill="none" stroke="midnightblue" d="M391.76,-94.87C419.32,-81.09 450.14,-65.68 474.25,-53.62"/>
<polygon fill="midnightblue" stroke="midnightblue" points="389.93,-91.87 382.55,-99.47 393.06,-98.13 389.93,-91.87"/>
</g>
</g>
</svg>
