<?xml version="1.0" encoding="UTF-8" standalone="no"?>
<!DOCTYPE svg PUBLIC "-//W3C//DTD SVG 1.1//EN"
 "http://www.w3.org/Graphics/SVG/1.1/DTD/svg11.dtd">
<!-- Generated by graphviz version 2.43.0 (0)
 -->
<!-- Title: Illumination&#45;Engine/src/Core/ThreadingModule/WorkerThread.hpp Pages: 1 -->
<svg width="432pt" height="170pt"
 viewBox="0.00 0.00 432.00 170.00" xmlns="http://www.w3.org/2000/svg" xmlns:xlink="http://www.w3.org/1999/xlink">
<g id="graph0" class="graph" transform="scale(1 1) rotate(0) translate(4 166)">
<title>Illumination&#45;Engine/src/Core/ThreadingModule/WorkerThread.hpp</title>
<polygon fill="white" stroke="transparent" points="-4,4 -4,-166 428,-166 428,4 -4,4"/>
<!-- Node1 -->
<g id="node1" class="node">
<title>Node1</title>
<g id="a_node1"><a xlink:title=" ">
<polygon fill="#bfbfbf" stroke="black" points="110,-99.5 110,-161.5 313,-161.5 313,-99.5 110,-99.5"/>
<text text-anchor="start" x="118" y="-144.7" font-family="Source Sans Pro" font-size="16.00">Illumination&#45;Engine</text>
<text text-anchor="start" x="118" y="-126.7" font-family="Source Sans Pro" font-size="16.00">/src/Core/ThreadingModule</text>
<text text-anchor="middle" x="211.5" y="-108.7" font-family="Source Sans Pro" font-size="16.00">/WorkerThread.hpp</text>
</a>
</g>
</g>
<!-- Node2 -->
<g id="node2" class="node">
<title>Node2</title>
<g id="a_node2"><a xlink:href="_thread_pool_8cpp.html" target="_top" xlink:title=" ">
<polygon fill="white" stroke="black" points="0,-0.5 0,-62.5 203,-62.5 203,-0.5 0,-0.5"/>
<text text-anchor="start" x="8" y="-45.7" font-family="Source Sans Pro" font-size="16.00">Illumination&#45;Engine</text>
<text text-anchor="start" x="8" y="-27.7" font-family="Source Sans Pro" font-size="16.00">/src/Core/ThreadingModule</text>
<text text-anchor="middle" x="101.5" y="-9.7" font-family="Source Sans Pro" font-size="16.00">/ThreadPool.cpp</text>
</a>
</g>
</g>
<!-- Node1&#45;&gt;Node2 -->
<g id="edge1" class="edge">
<title>Node1&#45;&gt;Node2</title>
<path fill="none" stroke="midnightblue" d="M169.67,-92.62C158.45,-82.72 146.44,-72.13 135.68,-62.64"/>
<polygon fill="midnightblue" stroke="midnightblue" points="167.48,-95.35 177.3,-99.34 172.11,-90.1 167.48,-95.35"/>
</g>
<!-- Node3 -->
<g id="node3" class="node">
<title>Node3</title>
<g id="a_node3"><a xlink:href="_worker_thread_8cpp.html" target="_top" xlink:title=" ">
<polygon fill="white" stroke="black" points="221,-0.5 221,-62.5 424,-62.5 424,-0.5 221,-0.5"/>
<text text-anchor="start" x="229" y="-45.7" font-family="Source Sans Pro" font-size="16.00">Illumination&#45;Engine</text>
<text text-anchor="start" x="229" y="-27.7" font-family="Source Sans Pro" font-size="16.00">/src/Core/ThreadingModule</text>
<text text-anchor="middle" x="322.5" y="-9.7" font-family="Source Sans Pro" font-size="16.00">/WorkerThread.cpp</text>
</a>
</g>
</g>
<!-- Node1&#45;&gt;Node3 -->
<g id="edge2" class="edge">
<title>Node1&#45;&gt;Node3</title>
<path fill="none" stroke="midnightblue" d="M253.71,-92.62C265.04,-82.72 277.15,-72.13 288.01,-62.64"/>
<polygon fill="midnightblue" stroke="midnightblue" points="251.24,-90.12 246.01,-99.34 255.85,-95.4 251.24,-90.12"/>
</g>
</g>
</svg>
