<?xml version="1.0" encoding="UTF-8" standalone="no"?>
<!DOCTYPE svg PUBLIC "-//W3C//DTD SVG 1.1//EN"
 "http://www.w3.org/Graphics/SVG/1.1/DTD/svg11.dtd">
<!-- Generated by graphviz version 2.43.0 (0)
 -->
<!-- Title: VulkanPipeline Pages: 1 -->
<svg width="318pt" height="296pt"
 viewBox="0.00 0.00 318.00 296.00" xmlns="http://www.w3.org/2000/svg" xmlns:xlink="http://www.w3.org/1999/xlink">
<g id="graph0" class="graph" transform="scale(1 1) rotate(0) translate(4 292)">
<title>VulkanPipeline</title>
<polygon fill="white" stroke="transparent" points="-4,4 -4,-292 314,-292 314,4 -4,4"/>
<!-- Node1 -->
<g id="node1" class="node">
<title>Node1</title>
<g id="a_node1"><a xlink:title=" ">
<polygon fill="#bfbfbf" stroke="black" points="124,-0.5 124,-26.5 240,-26.5 240,-0.5 124,-0.5"/>
<text text-anchor="middle" x="182" y="-9.7" font-family="Source Sans Pro" font-size="16.00">VulkanPipeline</text>
</a>
</g>
</g>
<!-- Node2 -->
<g id="node2" class="node">
<title>Node2</title>
<g id="a_node2"><a xlink:href="struct_vulkan_pipeline_1_1_create_info.html" target="_top" xlink:title=" ">
<polygon fill="white" stroke="black" points="85,-81.5 85,-107.5 279,-107.5 279,-81.5 85,-81.5"/>
<text text-anchor="middle" x="182" y="-90.7" font-family="Source Sans Pro" font-size="16.00">VulkanPipeline::CreateInfo</text>
</a>
</g>
</g>
<!-- Node2&#45;&gt;Node1 -->
<g id="edge1" class="edge">
<title>Node2&#45;&gt;Node1</title>
<path fill="none" stroke="#9a32cd" stroke-dasharray="5,2" d="M182,-71.05C182,-56.67 182,-38.55 182,-26.76"/>
<polygon fill="#9a32cd" stroke="#9a32cd" points="178.5,-71.16 182,-81.16 185.5,-71.16 178.5,-71.16"/>
<text text-anchor="middle" x="224.5" y="-50.2" font-family="Source Sans Pro" font-size="16.00"> createdWith</text>
</g>
<!-- Node3 -->
<g id="node3" class="node">
<title>Node3</title>
<g id="a_node3"><a xlink:href="class_vulkan_descriptor_set.html" target="_top" xlink:title=" ">
<polygon fill="white" stroke="black" points="0,-162.5 0,-188.5 152,-188.5 152,-162.5 0,-162.5"/>
<text text-anchor="middle" x="76" y="-171.7" font-family="Source Sans Pro" font-size="16.00">VulkanDescriptorSet</text>
</a>
</g>
</g>
<!-- Node3&#45;&gt;Node2 -->
<g id="edge2" class="edge">
<title>Node3&#45;&gt;Node2</title>
<path fill="none" stroke="#9a32cd" stroke-dasharray="5,2" d="M86.21,-153.4C91.62,-144.01 99.01,-133.41 108,-126 117.44,-118.22 129.13,-112.19 140.41,-107.62"/>
<polygon fill="#9a32cd" stroke="#9a32cd" points="83.11,-151.77 81.48,-162.24 89.29,-155.08 83.11,-151.77"/>
<text text-anchor="middle" x="154.5" y="-131.2" font-family="Source Sans Pro" font-size="16.00"> descriptorSet</text>
</g>
<!-- Node4 -->
<g id="node4" class="node">
<title>Node4</title>
<g id="a_node4"><a xlink:href="struct_vulkan_descriptor_set_1_1_create_info.html" target="_top" xlink:title=" ">
<polygon fill="white" stroke="black" points="0,-243.5 0,-287.5 152,-287.5 152,-243.5 0,-243.5"/>
<text text-anchor="start" x="8" y="-270.7" font-family="Source Sans Pro" font-size="16.00">VulkanDescriptorSet</text>
<text text-anchor="middle" x="76" y="-252.7" font-family="Source Sans Pro" font-size="16.00">::CreateInfo</text>
</a>
</g>
</g>
<!-- Node4&#45;&gt;Node3 -->
<g id="edge3" class="edge">
<title>Node4&#45;&gt;Node3</title>
<path fill="none" stroke="#9a32cd" stroke-dasharray="5,2" d="M76,-233.02C76,-217.67 76,-200.09 76,-188.67"/>
<polygon fill="#9a32cd" stroke="#9a32cd" points="72.5,-233.2 76,-243.2 79.5,-233.2 72.5,-233.2"/>
<text text-anchor="middle" x="118.5" y="-212.2" font-family="Source Sans Pro" font-size="16.00"> createdWith</text>
</g>
<!-- Node5 -->
<g id="node5" class="node">
<title>Node5</title>
<g id="a_node5"><a xlink:href="class_vulkan_render_pass.html" target="_top" xlink:title=" ">
<polygon fill="white" stroke="black" points="170,-162.5 170,-188.5 310,-188.5 310,-162.5 170,-162.5"/>
<text text-anchor="middle" x="240" y="-171.7" font-family="Source Sans Pro" font-size="16.00">VulkanRenderPass</text>
</a>
</g>
</g>
<!-- Node5&#45;&gt;Node2 -->
<g id="edge4" class="edge">
<title>Node5&#45;&gt;Node2</title>
<path fill="none" stroke="#9a32cd" stroke-dasharray="5,2" d="M224.75,-153.73C214.01,-139.1 200,-120.02 191,-107.76"/>
<polygon fill="#9a32cd" stroke="#9a32cd" points="222.2,-156.17 230.94,-162.16 227.84,-152.02 222.2,-156.17"/>
<text text-anchor="middle" x="255.5" y="-131.2" font-family="Source Sans Pro" font-size="16.00"> renderPass</text>
</g>
</g>
</svg>
