<?xml version="1.0" encoding="UTF-8" standalone="no"?>
<!DOCTYPE svg PUBLIC "-//W3C//DTD SVG 1.1//EN"
 "http://www.w3.org/Graphics/SVG/1.1/DTD/svg11.dtd">
<!-- Generated by graphviz version 2.43.0 (0)
 -->
<!-- Title: IERenderEngine Pages: 1 -->
<svg width="497pt" height="332pt"
 viewBox="0.00 0.00 496.50 332.00" xmlns="http://www.w3.org/2000/svg" xmlns:xlink="http://www.w3.org/1999/xlink">
<g id="graph0" class="graph" transform="scale(1 1) rotate(0) translate(4 328)">
<title>IERenderEngine</title>
<polygon fill="white" stroke="transparent" points="-4,4 -4,-328 492.5,-328 492.5,4 -4,4"/>
<!-- Node1 -->
<g id="node1" class="node">
<title>Node1</title>
<g id="a_node1"><a xlink:title=" ">
<polygon fill="#bfbfbf" stroke="black" points="178,-81.5 178,-107.5 303,-107.5 303,-81.5 178,-81.5"/>
<text text-anchor="middle" x="240.5" y="-90.7" font-family="Source Sans Pro" font-size="16.00">IERenderEngine</text>
</a>
</g>
</g>
<!-- Node2 -->
<g id="node2" class="node">
<title>Node2</title>
<g id="a_node2"><a xlink:href="class_i_e_camera.html" target="_top" xlink:title=" ">
<polygon fill="white" stroke="black" points="199.5,-0.5 199.5,-26.5 281.5,-26.5 281.5,-0.5 199.5,-0.5"/>
<text text-anchor="middle" x="240.5" y="-9.7" font-family="Source Sans Pro" font-size="16.00">IECamera</text>
</a>
</g>
</g>
<!-- Node1&#45;&gt;Node2 -->
<g id="edge2" class="edge">
<title>Node1&#45;&gt;Node2</title>
<path fill="none" stroke="#9a32cd" stroke-dasharray="5,2" d="M170.38,-76.38C165.01,-72.74 160.24,-68.34 156.5,-63 142.39,-42.87 171.7,-29.92 199.49,-22.52"/>
<polygon fill="#9a32cd" stroke="#9a32cd" points="168.83,-79.53 179.24,-81.49 172.33,-73.46 168.83,-79.53"/>
<text text-anchor="middle" x="226.5" y="-50.2" font-family="Source Sans Pro" font-size="16.00"> linkedRenderEngine</text>
</g>
<!-- Node2&#45;&gt;Node1 -->
<g id="edge1" class="edge">
<title>Node2&#45;&gt;Node1</title>
<path fill="none" stroke="#9a32cd" stroke-dasharray="5,2" d="M288.24,-32.03C293.09,-35.61 297.37,-39.9 300.5,-45 304.68,-51.82 304.68,-56.18 300.5,-63 295.61,-70.97 287.92,-76.93 279.65,-81.37"/>
<polygon fill="#9a32cd" stroke="#9a32cd" points="289.98,-28.99 279.65,-26.63 286.26,-34.91 289.98,-28.99"/>
<text text-anchor="middle" x="331" y="-50.2" font-family="Source Sans Pro" font-size="16.00"> camera</text>
</g>
<!-- Node3 -->
<g id="node3" class="node">
<title>Node3</title>
<g id="a_node3"><a xlink:href="class_i_e_settings.html" target="_top" xlink:title=" ">
<polygon fill="white" stroke="black" points="65,-171.5 65,-197.5 148,-197.5 148,-171.5 65,-171.5"/>
<text text-anchor="middle" x="106.5" y="-180.7" font-family="Source Sans Pro" font-size="16.00">IESettings</text>
</a>
</g>
</g>
<!-- Node3&#45;&gt;Node1 -->
<g id="edge3" class="edge">
<title>Node3&#45;&gt;Node1</title>
<path fill="none" stroke="#9a32cd" stroke-dasharray="5,2" d="M128.17,-164.88C142.51,-153.02 162.01,-137.73 180.5,-126 191.16,-119.24 203.5,-112.75 214.21,-107.52"/>
<polygon fill="#9a32cd" stroke="#9a32cd" points="125.79,-162.31 120.37,-171.42 130.28,-167.68 125.79,-162.31"/>
<text text-anchor="middle" x="208.5" y="-131.2" font-family="Source Sans Pro" font-size="16.00"> settings</text>
</g>
<!-- Node4 -->
<g id="node4" class="node">
<title>Node4</title>
<g id="a_node4"><a xlink:href="class_i_e_logger.html" target="_top" xlink:title="A small logging tool that is a very thin wrapper for spdlog.">
<polygon fill="white" stroke="black" points="0,-297.5 0,-323.5 75,-323.5 75,-297.5 0,-297.5"/>
<text text-anchor="middle" x="37.5" y="-306.7" font-family="Source Sans Pro" font-size="16.00">IELogger</text>
</a>
</g>
</g>
<!-- Node4&#45;&gt;Node3 -->
<g id="edge4" class="edge">
<title>Node4&#45;&gt;Node3</title>
<path fill="none" stroke="#9a32cd" stroke-dasharray="5,2" d="M32.1,-287.43C28.95,-269.39 27.49,-243.87 38.5,-225 45.72,-212.62 58.46,-203.75 70.98,-197.59"/>
<polygon fill="#9a32cd" stroke="#9a32cd" points="28.69,-288.23 34.12,-297.32 35.55,-286.82 28.69,-288.23"/>
<text text-anchor="middle" x="61.5" y="-248.2" font-family="Source Sans Pro" font-size="16.00"> logger</text>
</g>
<!-- Node5 -->
<g id="node5" class="node">
<title>Node5</title>
<g id="a_node5"><a xlink:href="struct_i_e_version.html" target="_top" xlink:title=" ">
<polygon fill="white" stroke="black" points="171.5,-297.5 171.5,-323.5 251.5,-323.5 251.5,-297.5 171.5,-297.5"/>
<text text-anchor="middle" x="211.5" y="-306.7" font-family="Source Sans Pro" font-size="16.00">IEVersion</text>
</a>
</g>
</g>
<!-- Node5&#45;&gt;Node3 -->
<g id="edge5" class="edge">
<title>Node5&#45;&gt;Node3</title>
<path fill="none" stroke="#9a32cd" stroke-dasharray="5,2" d="M161.5,-308.18C140.11,-304.81 117,-296.84 103.5,-279 85.37,-255.04 95.01,-216.88 101.75,-197.56"/>
<polygon fill="#9a32cd" stroke="#9a32cd" points="161.13,-311.66 171.49,-309.45 162.01,-304.72 161.13,-311.66"/>
<text text-anchor="middle" x="183.5" y="-266.2" font-family="Source Sans Pro" font-size="16.00"> applicationVersion</text>
<text text-anchor="middle" x="183.5" y="-248.2" font-family="Source Sans Pro" font-size="16.00">desiredVulkanVersion</text>
<text text-anchor="middle" x="183.5" y="-230.2" font-family="Source Sans Pro" font-size="16.00">minimumVulkanVersion</text>
</g>
<!-- Node6 -->
<g id="node6" class="node">
<title>Node6</title>
<g id="a_node6"><a xlink:href="class_i_e_a_p_i.html" target="_top" xlink:title=" ">
<polygon fill="white" stroke="black" points="214.5,-171.5 214.5,-197.5 266.5,-197.5 266.5,-171.5 214.5,-171.5"/>
<text text-anchor="middle" x="240.5" y="-180.7" font-family="Source Sans Pro" font-size="16.00">IEAPI</text>
</a>
</g>
</g>
<!-- Node5&#45;&gt;Node6 -->
<g id="edge7" class="edge">
<title>Node5&#45;&gt;Node6</title>
<path fill="none" stroke="#9a32cd" stroke-dasharray="5,2" d="M255.94,-291.67C260.52,-288.13 264.57,-283.94 267.5,-279 279.76,-258.37 274.59,-247.93 267.5,-225 264.36,-214.84 257.61,-204.97 251.64,-197.63"/>
<polygon fill="#9a32cd" stroke="#9a32cd" points="253.68,-288.96 247.23,-297.36 257.51,-294.82 253.68,-288.96"/>
<text text-anchor="middle" x="301" y="-248.2" font-family="Source Sans Pro" font-size="16.00"> version</text>
</g>
<!-- Node6&#45;&gt;Node1 -->
<g id="edge6" class="edge">
<title>Node6&#45;&gt;Node1</title>
<path fill="none" stroke="#9a32cd" stroke-dasharray="5,2" d="M240.5,-161.07C240.5,-144.08 240.5,-121.38 240.5,-107.63"/>
<polygon fill="#9a32cd" stroke="#9a32cd" points="237,-161.26 240.5,-171.26 244,-161.26 237,-161.26"/>
<text text-anchor="middle" x="253.5" y="-131.2" font-family="Source Sans Pro" font-size="16.00"> API</text>
</g>
<!-- Node7 -->
<g id="node7" class="node">
<title>Node7</title>
<g id="a_node7"><a xlink:href="struct_i_e_render_engine_1_1_extension_and_feature_info.html" target="_top" xlink:title=" ">
<polygon fill="white" stroke="black" points="284.5,-162.5 284.5,-206.5 482.5,-206.5 482.5,-162.5 284.5,-162.5"/>
<text text-anchor="start" x="292.5" y="-189.7" font-family="Source Sans Pro" font-size="16.00">IERenderEngine::Extension</text>
<text text-anchor="middle" x="383.5" y="-171.7" font-family="Source Sans Pro" font-size="16.00">AndFeatureInfo</text>
</a>
</g>
</g>
<!-- Node7&#45;&gt;Node1 -->
<g id="edge8" class="edge">
<title>Node7&#45;&gt;Node1</title>
<path fill="none" stroke="#9a32cd" stroke-dasharray="5,2" d="M340.49,-157.03C313.89,-140.66 281,-120.42 260.37,-107.73"/>
<polygon fill="#9a32cd" stroke="#9a32cd" points="338.9,-160.16 349.25,-162.42 342.57,-154.2 338.9,-160.16"/>
<text text-anchor="middle" x="402" y="-131.2" font-family="Source Sans Pro" font-size="16.00"> extensionAndFeatureInfo</text>
</g>
</g>
</svg>
