<?xml version="1.0" encoding="UTF-8" standalone="no"?>
<!DOCTYPE svg PUBLIC "-//W3C//DTD SVG 1.1//EN"
 "http://www.w3.org/Graphics/SVG/1.1/DTD/svg11.dtd">
<!-- Generated by graphviz version 2.43.0 (0)
 -->
<!-- Title: OpenGLFramebuffer Pages: 1 -->
<svg width="525pt" height="233pt"
 viewBox="0.00 0.00 524.50 233.00" xmlns="http://www.w3.org/2000/svg" xmlns:xlink="http://www.w3.org/1999/xlink">
<g id="graph0" class="graph" transform="scale(1 1) rotate(0) translate(4 229)">
<title>OpenGLFramebuffer</title>
<polygon fill="white" stroke="transparent" points="-4,4 -4,-229 520.5,-229 520.5,4 -4,4"/>
<!-- Node1 -->
<g id="node1" class="node">
<title>Node1</title>
<g id="a_node1"><a xlink:title=" ">
<polygon fill="#bfbfbf" stroke="black" points="160,-0.5 160,-26.5 314,-26.5 314,-0.5 160,-0.5"/>
<text text-anchor="middle" x="237" y="-9.7" font-family="Source Sans Pro" font-size="16.00">OpenGLFramebuffer</text>
</a>
</g>
</g>
<!-- Node2 -->
<g id="node2" class="node">
<title>Node2</title>
<g id="a_node2"><a xlink:href="struct_open_g_l_framebuffer_1_1_create_info.html" target="_top" xlink:title=" ">
<polygon fill="white" stroke="black" points="0,-99.5 0,-143.5 162,-143.5 162,-99.5 0,-99.5"/>
<text text-anchor="start" x="8" y="-126.7" font-family="Source Sans Pro" font-size="16.00">OpenGLFramebuffer::</text>
<text text-anchor="middle" x="81" y="-108.7" font-family="Source Sans Pro" font-size="16.00">CreateInfo</text>
</a>
</g>
</g>
<!-- Node2&#45;&gt;Node1 -->
<g id="edge1" class="edge">
<title>Node2&#45;&gt;Node1</title>
<path fill="none" stroke="#9a32cd" stroke-dasharray="5,2" d="M101.39,-90.92C113.4,-75.39 129.79,-57.13 148,-45 159.83,-37.12 173.89,-31.08 187.31,-26.53"/>
<polygon fill="#9a32cd" stroke="#9a32cd" points="98.38,-89.1 95.19,-99.2 103.98,-93.3 98.38,-89.1"/>
<text text-anchor="middle" x="190.5" y="-59.2" font-family="Source Sans Pro" font-size="16.00"> createdWith</text>
</g>
<!-- Node3 -->
<g id="node3" class="node">
<title>Node3</title>
<g id="a_node3"><a xlink:href="class_open_g_l_image.html" target="_top" xlink:title=" ">
<polygon fill="white" stroke="black" points="180.5,-108.5 180.5,-134.5 293.5,-134.5 293.5,-108.5 180.5,-108.5"/>
<text text-anchor="middle" x="237" y="-117.7" font-family="Source Sans Pro" font-size="16.00">OpenGLImage</text>
</a>
</g>
</g>
<!-- Node3&#45;&gt;Node1 -->
<g id="edge2" class="edge">
<title>Node3&#45;&gt;Node1</title>
<path fill="none" stroke="#9a32cd" stroke-dasharray="5,2" d="M237,-98.31C237,-76.47 237,-43.93 237,-26.52"/>
<polygon fill="#9a32cd" stroke="#9a32cd" points="233.5,-98.34 237,-108.34 240.5,-98.34 233.5,-98.34"/>
<text text-anchor="middle" x="278" y="-68.2" font-family="Source Sans Pro" font-size="16.00"> colorImage</text>
<text text-anchor="middle" x="278" y="-50.2" font-family="Source Sans Pro" font-size="16.00">depthImage</text>
</g>
<!-- Node4 -->
<g id="node4" class="node">
<title>Node4</title>
<g id="a_node4"><a xlink:href="struct_open_g_l_image_1_1_create_info.html" target="_top" xlink:title=" ">
<polygon fill="white" stroke="black" points="142,-198.5 142,-224.5 332,-224.5 332,-198.5 142,-198.5"/>
<text text-anchor="middle" x="237" y="-207.7" font-family="Source Sans Pro" font-size="16.00">OpenGLImage::CreateInfo</text>
</a>
</g>
</g>
<!-- Node4&#45;&gt;Node3 -->
<g id="edge3" class="edge">
<title>Node4&#45;&gt;Node3</title>
<path fill="none" stroke="#9a32cd" stroke-dasharray="5,2" d="M237,-188.07C237,-171.08 237,-148.38 237,-134.63"/>
<polygon fill="#9a32cd" stroke="#9a32cd" points="233.5,-188.26 237,-198.26 240.5,-188.26 233.5,-188.26"/>
<text text-anchor="middle" x="279.5" y="-167.2" font-family="Source Sans Pro" font-size="16.00"> createdWith</text>
</g>
<!-- Node5 -->
<g id="node5" class="node">
<title>Node5</title>
<g id="a_node5"><a xlink:href="class_open_g_l_graphics_engine_link.html" target="_top" xlink:title=" ">
<polygon fill="white" stroke="black" points="311.5,-108.5 311.5,-134.5 516.5,-134.5 516.5,-108.5 311.5,-108.5"/>
<text text-anchor="middle" x="414" y="-117.7" font-family="Source Sans Pro" font-size="16.00">OpenGLGraphicsEngineLink</text>
</a>
</g>
</g>
<!-- Node5&#45;&gt;Node1 -->
<g id="edge4" class="edge">
<title>Node5&#45;&gt;Node1</title>
<path fill="none" stroke="#9a32cd" stroke-dasharray="5,2" d="M395.09,-101.37C377.65,-84.61 350.4,-60.57 323,-45 309.78,-37.49 294.38,-31.32 280.29,-26.55"/>
<polygon fill="#9a32cd" stroke="#9a32cd" points="392.78,-104 402.38,-108.5 397.68,-99 392.78,-104"/>
<text text-anchor="middle" x="443" y="-59.2" font-family="Source Sans Pro" font-size="16.00"> linkedRenderEngine</text>
</g>
<!-- Node6 -->
<g id="node6" class="node">
<title>Node6</title>
<g id="a_node6"><a xlink:href="class_open_g_l_settings.html" target="_top" xlink:title=" ">
<polygon fill="white" stroke="black" points="351.5,-198.5 351.5,-224.5 476.5,-224.5 476.5,-198.5 351.5,-198.5"/>
<text text-anchor="middle" x="414" y="-207.7" font-family="Source Sans Pro" font-size="16.00">OpenGLSettings</text>
</a>
</g>
</g>
<!-- Node6&#45;&gt;Node5 -->
<g id="edge5" class="edge">
<title>Node6&#45;&gt;Node5</title>
<path fill="none" stroke="#9a32cd" stroke-dasharray="5,2" d="M414,-188.07C414,-171.08 414,-148.38 414,-134.63"/>
<polygon fill="#9a32cd" stroke="#9a32cd" points="410.5,-188.26 414,-198.26 417.5,-188.26 410.5,-188.26"/>
<text text-anchor="middle" x="442" y="-167.2" font-family="Source Sans Pro" font-size="16.00"> settings</text>
</g>
</g>
</svg>
