<?xml version="1.0" encoding="UTF-8" standalone="no"?>
<!DOCTYPE svg PUBLIC "-//W3C//DTD SVG 1.1//EN"
 "http://www.w3.org/Graphics/SVG/1.1/DTD/svg11.dtd">
<!-- Generated by graphviz version 2.43.0 (0)
 -->
<!-- Title: VulkanRenderEngine Pages: 1 -->
<svg width="504pt" height="314pt"
 viewBox="0.00 0.00 504.00 314.00" xmlns="http://www.w3.org/2000/svg" xmlns:xlink="http://www.w3.org/1999/xlink">
<g id="graph0" class="graph" transform="scale(1 1) rotate(0) translate(4 310)">
<title>VulkanRenderEngine</title>
<polygon fill="white" stroke="transparent" points="-4,4 -4,-310 500,-310 500,4 -4,4"/>
<!-- Node1 -->
<g id="node1" class="node">
<title>Node1</title>
<g id="a_node1"><a xlink:title=" ">
<polygon fill="#bfbfbf" stroke="black" points="202.5,-0.5 202.5,-26.5 359.5,-26.5 359.5,-0.5 202.5,-0.5"/>
<text text-anchor="middle" x="281" y="-9.7" font-family="Source Sans Pro" font-size="16.00">VulkanRenderEngine</text>
</a>
</g>
</g>
<!-- Node2 -->
<g id="node2" class="node">
<title>Node2</title>
<g id="a_node2"><a xlink:href="class_vulkan_camera.html" target="_top" xlink:title=" ">
<polygon fill="white" stroke="black" points="224,-81.5 224,-107.5 338,-107.5 338,-81.5 224,-81.5"/>
<text text-anchor="middle" x="281" y="-90.7" font-family="Source Sans Pro" font-size="16.00">VulkanCamera</text>
</a>
</g>
</g>
<!-- Node2&#45;&gt;Node1 -->
<g id="edge1" class="edge">
<title>Node2&#45;&gt;Node1</title>
<path fill="none" stroke="#9a32cd" stroke-dasharray="5,2" d="M281,-71.05C281,-56.67 281,-38.55 281,-26.76"/>
<polygon fill="#9a32cd" stroke="#9a32cd" points="277.5,-71.16 281,-81.16 284.5,-71.16 277.5,-71.16"/>
<text text-anchor="middle" x="308.5" y="-50.2" font-family="Source Sans Pro" font-size="16.00"> camera</text>
</g>
<!-- Node3 -->
<g id="node3" class="node">
<title>Node3</title>
<g id="a_node3"><a xlink:href="class_vulkan_graphics_engine_link.html" target="_top" xlink:title=" ">
<polygon fill="white" stroke="black" points="0,-162.5 0,-188.5 196,-188.5 196,-162.5 0,-162.5"/>
<text text-anchor="middle" x="98" y="-171.7" font-family="Source Sans Pro" font-size="16.00">VulkanGraphicsEngineLink</text>
</a>
</g>
</g>
<!-- Node3&#45;&gt;Node1 -->
<g id="edge5" class="edge">
<title>Node3&#45;&gt;Node1</title>
<path fill="none" stroke="#9a32cd" stroke-dasharray="5,2" d="M89.09,-152.88C82.23,-132.45 76.17,-101.9 91,-81 116.18,-45.51 161.8,-28.82 202.03,-21.02"/>
<polygon fill="#9a32cd" stroke="#9a32cd" points="85.8,-154.09 92.54,-162.27 92.38,-151.68 85.8,-154.09"/>
<text text-anchor="middle" x="153" y="-90.7" font-family="Source Sans Pro" font-size="16.00"> renderEngineLink</text>
</g>
<!-- Node3&#45;&gt;Node2 -->
<g id="edge2" class="edge">
<title>Node3&#45;&gt;Node2</title>
<path fill="none" stroke="#9a32cd" stroke-dasharray="5,2" d="M135.58,-158.28C170.48,-143.21 221.66,-121.12 253.08,-107.55"/>
<polygon fill="#9a32cd" stroke="#9a32cd" points="133.99,-155.15 126.19,-162.33 136.76,-161.58 133.99,-155.15"/>
<text text-anchor="middle" x="276" y="-131.2" font-family="Source Sans Pro" font-size="16.00"> linkedRenderEngine</text>
</g>
<!-- Node4 -->
<g id="node4" class="node">
<title>Node4</title>
<g id="a_node4"><a xlink:href="struct_vulkan_graphics_engine_link_1_1_physical_device_info.html" target="_top" xlink:title=" ">
<polygon fill="white" stroke="black" points="0,-261.5 0,-305.5 196,-305.5 196,-261.5 0,-261.5"/>
<text text-anchor="start" x="8" y="-288.7" font-family="Source Sans Pro" font-size="16.00">VulkanGraphicsEngineLink</text>
<text text-anchor="middle" x="98" y="-270.7" font-family="Source Sans Pro" font-size="16.00">::PhysicalDeviceInfo</text>
</a>
</g>
</g>
<!-- Node4&#45;&gt;Node3 -->
<g id="edge3" class="edge">
<title>Node4&#45;&gt;Node3</title>
<path fill="none" stroke="#9a32cd" stroke-dasharray="5,2" d="M98,-251.24C98,-230.31 98,-203.9 98,-188.73"/>
<polygon fill="#9a32cd" stroke="#9a32cd" points="94.5,-251.3 98,-261.3 101.5,-251.3 94.5,-251.3"/>
<text text-anchor="middle" x="197" y="-230.2" font-family="Source Sans Pro" font-size="16.00"> enabledPhysicalDeviceInfo</text>
<text text-anchor="middle" x="197" y="-212.2" font-family="Source Sans Pro" font-size="16.00">supportedPhysicalDeviceInfo</text>
</g>
<!-- Node5 -->
<g id="node5" class="node">
<title>Node5</title>
<g id="a_node5"><a xlink:href="class_vulkan_render_pass.html" target="_top" xlink:title=" ">
<polygon fill="white" stroke="black" points="356,-81.5 356,-107.5 496,-107.5 496,-81.5 356,-81.5"/>
<text text-anchor="middle" x="426" y="-90.7" font-family="Source Sans Pro" font-size="16.00">VulkanRenderPass</text>
</a>
</g>
</g>
<!-- Node5&#45;&gt;Node1 -->
<g id="edge4" class="edge">
<title>Node5&#45;&gt;Node1</title>
<path fill="none" stroke="#9a32cd" stroke-dasharray="5,2" d="M395.79,-76.11C379.37,-66.74 358.66,-55.08 340,-45 328.54,-38.81 315.7,-32.14 304.93,-26.62"/>
<polygon fill="#9a32cd" stroke="#9a32cd" points="394.5,-79.4 404.91,-81.33 397.97,-73.32 394.5,-79.4"/>
<text text-anchor="middle" x="409.5" y="-50.2" font-family="Source Sans Pro" font-size="16.00"> renderPass</text>
</g>
</g>
</svg>
