<?xml version="1.0" encoding="UTF-8" standalone="no"?>
<!DOCTYPE svg PUBLIC "-//W3C//DTD SVG 1.1//EN"
 "http://www.w3.org/Graphics/SVG/1.1/DTD/svg11.dtd">
<!-- Generated by graphviz version 2.43.0 (0)
 -->
<!-- Title: IEMaterial Pages: 1 -->
<svg width="497pt" height="332pt"
 viewBox="0.00 0.00 496.50 332.00" xmlns="http://www.w3.org/2000/svg" xmlns:xlink="http://www.w3.org/1999/xlink">
<g id="graph0" class="graph" transform="scale(1 1) rotate(0) translate(4 328)">
<title>IEMaterial</title>
<polygon fill="white" stroke="transparent" points="-4,4 -4,-328 492.5,-328 492.5,4 -4,4"/>
<!-- Node1 -->
<g id="node1" class="node">
<title>Node1</title>
<g id="a_node1"><a xlink:title=" ">
<polygon fill="#bfbfbf" stroke="black" points="36,-0.5 36,-26.5 119,-26.5 119,-0.5 36,-0.5"/>
<text text-anchor="middle" x="77.5" y="-9.7" font-family="Source Sans Pro" font-size="16.00">IEMaterial</text>
</a>
</g>
</g>
<!-- Node2 -->
<g id="node2" class="node">
<title>Node2</title>
<g id="a_node2"><a xlink:href="class_i_e_render_engine.html" target="_top" xlink:title=" ">
<polygon fill="white" stroke="black" points="178,-81.5 178,-107.5 303,-107.5 303,-81.5 178,-81.5"/>
<text text-anchor="middle" x="240.5" y="-90.7" font-family="Source Sans Pro" font-size="16.00">IERenderEngine</text>
</a>
</g>
</g>
<!-- Node2&#45;&gt;Node1 -->
<g id="edge1" class="edge">
<title>Node2&#45;&gt;Node1</title>
<path fill="none" stroke="#9a32cd" stroke-dasharray="5,2" d="M167.81,-86.23C135.04,-81.5 101.1,-74.11 89.5,-63 79.73,-53.64 77.41,-37.68 77.09,-26.64"/>
<polygon fill="#9a32cd" stroke="#9a32cd" points="167.53,-89.72 177.91,-87.61 168.48,-82.79 167.53,-89.72"/>
<text text-anchor="middle" x="159.5" y="-50.2" font-family="Source Sans Pro" font-size="16.00"> linkedRenderEngine</text>
</g>
<!-- Node3 -->
<g id="node3" class="node">
<title>Node3</title>
<g id="a_node3"><a xlink:href="class_i_e_camera.html" target="_top" xlink:title=" ">
<polygon fill="white" stroke="black" points="280.5,-0.5 280.5,-26.5 362.5,-26.5 362.5,-0.5 280.5,-0.5"/>
<text text-anchor="middle" x="321.5" y="-9.7" font-family="Source Sans Pro" font-size="16.00">IECamera</text>
</a>
</g>
</g>
<!-- Node2&#45;&gt;Node3 -->
<g id="edge3" class="edge">
<title>Node2&#45;&gt;Node3</title>
<path fill="none" stroke="#9a32cd" stroke-dasharray="5,2" d="M233.46,-71.4C231.98,-62.49 232.21,-52.55 237.5,-45 247.29,-31.02 264.18,-23.43 280.26,-19.31"/>
<polygon fill="#9a32cd" stroke="#9a32cd" points="230.07,-72.26 235.77,-81.19 236.88,-70.65 230.07,-72.26"/>
<text text-anchor="middle" x="307.5" y="-50.2" font-family="Source Sans Pro" font-size="16.00"> linkedRenderEngine</text>
</g>
<!-- Node3&#45;&gt;Node2 -->
<g id="edge2" class="edge">
<title>Node3&#45;&gt;Node2</title>
<path fill="none" stroke="#9a32cd" stroke-dasharray="5,2" d="M363.95,-31.02C379.6,-39.57 391.36,-50.77 381.5,-63 371.4,-75.52 335.91,-83.16 303.07,-87.66"/>
<polygon fill="#9a32cd" stroke="#9a32cd" points="365.48,-27.87 354.97,-26.55 362.36,-34.14 365.48,-27.87"/>
<text text-anchor="middle" x="412" y="-50.2" font-family="Source Sans Pro" font-size="16.00"> camera</text>
</g>
<!-- Node4 -->
<g id="node4" class="node">
<title>Node4</title>
<g id="a_node4"><a xlink:href="class_i_e_settings.html" target="_top" xlink:title=" ">
<polygon fill="white" stroke="black" points="65,-171.5 65,-197.5 148,-197.5 148,-171.5 65,-171.5"/>
<text text-anchor="middle" x="106.5" y="-180.7" font-family="Source Sans Pro" font-size="16.00">IESettings</text>
</a>
</g>
</g>
<!-- Node4&#45;&gt;Node2 -->
<g id="edge4" class="edge">
<title>Node4&#45;&gt;Node2</title>
<path fill="none" stroke="#9a32cd" stroke-dasharray="5,2" d="M128.17,-164.88C142.51,-153.02 162.01,-137.73 180.5,-126 191.16,-119.24 203.5,-112.75 214.21,-107.52"/>
<polygon fill="#9a32cd" stroke="#9a32cd" points="125.79,-162.31 120.37,-171.42 130.28,-167.68 125.79,-162.31"/>
<text text-anchor="middle" x="208.5" y="-131.2" font-family="Source Sans Pro" font-size="16.00"> settings</text>
</g>
<!-- Node5 -->
<g id="node5" class="node">
<title>Node5</title>
<g id="a_node5"><a xlink:href="class_i_e_logger.html" target="_top" xlink:title="A small logging tool that is a very thin wrapper for spdlog.">
<polygon fill="white" stroke="black" points="0,-297.5 0,-323.5 75,-323.5 75,-297.5 0,-297.5"/>
<text text-anchor="middle" x="37.5" y="-306.7" font-family="Source Sans Pro" font-size="16.00">IELogger</text>
</a>
</g>
</g>
<!-- Node5&#45;&gt;Node4 -->
<g id="edge5" class="edge">
<title>Node5&#45;&gt;Node4</title>
<path fill="none" stroke="#9a32cd" stroke-dasharray="5,2" d="M32.1,-287.43C28.95,-269.39 27.49,-243.87 38.5,-225 45.72,-212.62 58.46,-203.75 70.98,-197.59"/>
<polygon fill="#9a32cd" stroke="#9a32cd" points="28.69,-288.23 34.12,-297.32 35.55,-286.82 28.69,-288.23"/>
<text text-anchor="middle" x="61.5" y="-248.2" font-family="Source Sans Pro" font-size="16.00"> logger</text>
</g>
<!-- Node6 -->
<g id="node6" class="node">
<title>Node6</title>
<g id="a_node6"><a xlink:href="struct_i_e_version.html" target="_top" xlink:title=" ">
<polygon fill="white" stroke="black" points="171.5,-297.5 171.5,-323.5 251.5,-323.5 251.5,-297.5 171.5,-297.5"/>
<text text-anchor="middle" x="211.5" y="-306.7" font-family="Source Sans Pro" font-size="16.00">IEVersion</text>
</a>
</g>
</g>
<!-- Node6&#45;&gt;Node4 -->
<g id="edge6" class="edge">
<title>Node6&#45;&gt;Node4</title>
<path fill="none" stroke="#9a32cd" stroke-dasharray="5,2" d="M161.5,-308.18C140.11,-304.81 117,-296.84 103.5,-279 85.37,-255.04 95.01,-216.88 101.75,-197.56"/>
<polygon fill="#9a32cd" stroke="#9a32cd" points="161.13,-311.66 171.49,-309.45 162.01,-304.72 161.13,-311.66"/>
<text text-anchor="middle" x="183.5" y="-266.2" font-family="Source Sans Pro" font-size="16.00"> applicationVersion</text>
<text text-anchor="middle" x="183.5" y="-248.2" font-family="Source Sans Pro" font-size="16.00">desiredVulkanVersion</text>
<text text-anchor="middle" x="183.5" y="-230.2" font-family="Source Sans Pro" font-size="16.00">minimumVulkanVersion</text>
</g>
<!-- Node7 -->
<g id="node7" class="node">
<title>Node7</title>
<g id="a_node7"><a xlink:href="class_i_e_a_p_i.html" target="_top" xlink:title=" ">
<polygon fill="white" stroke="black" points="214.5,-171.5 214.5,-197.5 266.5,-197.5 266.5,-171.5 214.5,-171.5"/>
<text text-anchor="middle" x="240.5" y="-180.7" font-family="Source Sans Pro" font-size="16.00">IEAPI</text>
</a>
</g>
</g>
<!-- Node6&#45;&gt;Node7 -->
<g id="edge8" class="edge">
<title>Node6&#45;&gt;Node7</title>
<path fill="none" stroke="#9a32cd" stroke-dasharray="5,2" d="M255.94,-291.67C260.52,-288.13 264.57,-283.94 267.5,-279 279.76,-258.37 274.59,-247.93 267.5,-225 264.36,-214.84 257.61,-204.97 251.64,-197.63"/>
<polygon fill="#9a32cd" stroke="#9a32cd" points="253.68,-288.96 247.23,-297.36 257.51,-294.82 253.68,-288.96"/>
<text text-anchor="middle" x="301" y="-248.2" font-family="Source Sans Pro" font-size="16.00"> version</text>
</g>
<!-- Node7&#45;&gt;Node2 -->
<g id="edge7" class="edge">
<title>Node7&#45;&gt;Node2</title>
<path fill="none" stroke="#9a32cd" stroke-dasharray="5,2" d="M240.5,-161.07C240.5,-144.08 240.5,-121.38 240.5,-107.63"/>
<polygon fill="#9a32cd" stroke="#9a32cd" points="237,-161.26 240.5,-171.26 244,-161.26 237,-161.26"/>
<text text-anchor="middle" x="253.5" y="-131.2" font-family="Source Sans Pro" font-size="16.00"> API</text>
</g>
<!-- Node8 -->
<g id="node8" class="node">
<title>Node8</title>
<g id="a_node8"><a xlink:href="struct_i_e_render_engine_1_1_extension_and_feature_info.html" target="_top" xlink:title=" ">
<polygon fill="white" stroke="black" points="284.5,-162.5 284.5,-206.5 482.5,-206.5 482.5,-162.5 284.5,-162.5"/>
<text text-anchor="start" x="292.5" y="-189.7" font-family="Source Sans Pro" font-size="16.00">IERenderEngine::Extension</text>
<text text-anchor="middle" x="383.5" y="-171.7" font-family="Source Sans Pro" font-size="16.00">AndFeatureInfo</text>
</a>
</g>
</g>
<!-- Node8&#45;&gt;Node2 -->
<g id="edge9" class="edge">
<title>Node8&#45;&gt;Node2</title>
<path fill="none" stroke="#9a32cd" stroke-dasharray="5,2" d="M340.49,-157.03C313.89,-140.66 281,-120.42 260.37,-107.73"/>
<polygon fill="#9a32cd" stroke="#9a32cd" points="338.9,-160.16 349.25,-162.42 342.57,-154.2 338.9,-160.16"/>
<text text-anchor="middle" x="402" y="-131.2" font-family="Source Sans Pro" font-size="16.00"> extensionAndFeatureInfo</text>
</g>
</g>
</svg>
