<?xml version="1.0" encoding="UTF-8" standalone="no"?>
<!DOCTYPE svg PUBLIC "-//W3C//DTD SVG 1.1//EN"
 "http://www.w3.org/Graphics/SVG/1.1/DTD/svg11.dtd">
<!-- Generated by graphviz version 2.43.0 (0)
 -->
<!-- Title: OpenGLRenderEngine Pages: 1 -->
<svg width="574pt" height="278pt"
 viewBox="0.00 0.00 573.50 278.00" xmlns="http://www.w3.org/2000/svg" xmlns:xlink="http://www.w3.org/1999/xlink">
<g id="graph0" class="graph" transform="scale(1 1) rotate(0) translate(4 274)">
<title>OpenGLRenderEngine</title>
<polygon fill="white" stroke="transparent" points="-4,4 -4,-274 569.5,-274 569.5,4 -4,4"/>
<!-- Node1 -->
<g id="node1" class="node">
<title>Node1</title>
<g id="a_node1"><a xlink:title=" ">
<polygon fill="#bfbfbf" stroke="black" points="93.5,-0.5 93.5,-26.5 259.5,-26.5 259.5,-0.5 93.5,-0.5"/>
<text text-anchor="middle" x="176.5" y="-9.7" font-family="Source Sans Pro" font-size="16.00">OpenGLRenderEngine</text>
</a>
</g>
</g>
<!-- Node2 -->
<g id="node2" class="node">
<title>Node2</title>
<g id="a_node2"><a xlink:href="class_open_g_l_settings.html" target="_top" xlink:title=" ">
<polygon fill="white" stroke="black" points="0,-243.5 0,-269.5 125,-269.5 125,-243.5 0,-243.5"/>
<text text-anchor="middle" x="62.5" y="-252.7" font-family="Source Sans Pro" font-size="16.00">OpenGLSettings</text>
</a>
</g>
</g>
<!-- Node2&#45;&gt;Node1 -->
<g id="edge1" class="edge">
<title>Node2&#45;&gt;Node1</title>
<path fill="none" stroke="#9a32cd" stroke-dasharray="5,2" d="M60.49,-233.18C59.02,-206.44 59.53,-160.87 75.5,-126 93.52,-86.66 98.72,-75.4 129.5,-45 136.56,-38.03 145.45,-31.77 153.6,-26.76"/>
<polygon fill="#9a32cd" stroke="#9a32cd" points="57.02,-233.67 61.21,-243.4 64,-233.19 57.02,-233.67"/>
<text text-anchor="middle" x="103.5" y="-131.2" font-family="Source Sans Pro" font-size="16.00"> settings</text>
</g>
<!-- Node4 -->
<g id="node4" class="node">
<title>Node4</title>
<g id="a_node4"><a xlink:href="class_open_g_l_graphics_engine_link.html" target="_top" xlink:title=" ">
<polygon fill="white" stroke="black" points="75,-162.5 75,-188.5 280,-188.5 280,-162.5 75,-162.5"/>
<text text-anchor="middle" x="177.5" y="-171.7" font-family="Source Sans Pro" font-size="16.00">OpenGLGraphicsEngineLink</text>
</a>
</g>
</g>
<!-- Node2&#45;&gt;Node4 -->
<g id="edge4" class="edge">
<title>Node2&#45;&gt;Node4</title>
<path fill="none" stroke="#9a32cd" stroke-dasharray="5,2" d="M88.9,-237.36C110.59,-222.47 140.72,-201.77 159.66,-188.76"/>
<polygon fill="#9a32cd" stroke="#9a32cd" points="86.73,-234.61 80.47,-243.16 90.69,-240.38 86.73,-234.61"/>
<text text-anchor="middle" x="158.5" y="-212.2" font-family="Source Sans Pro" font-size="16.00"> settings</text>
</g>
<!-- Node3 -->
<g id="node3" class="node">
<title>Node3</title>
<g id="a_node3"><a xlink:href="class_open_g_l_camera.html" target="_top" xlink:title=" ">
<polygon fill="white" stroke="black" points="260,-81.5 260,-107.5 383,-107.5 383,-81.5 260,-81.5"/>
<text text-anchor="middle" x="321.5" y="-90.7" font-family="Source Sans Pro" font-size="16.00">OpenGLCamera</text>
</a>
</g>
</g>
<!-- Node3&#45;&gt;Node1 -->
<g id="edge2" class="edge">
<title>Node3&#45;&gt;Node1</title>
<path fill="none" stroke="#9a32cd" stroke-dasharray="5,2" d="M290.3,-76.5C262.69,-61.46 223.09,-39.88 198.63,-26.55"/>
<polygon fill="#9a32cd" stroke="#9a32cd" points="288.71,-79.62 299.16,-81.33 292.05,-73.47 288.71,-79.62"/>
<text text-anchor="middle" x="290" y="-50.2" font-family="Source Sans Pro" font-size="16.00"> camera</text>
</g>
<!-- Node4&#45;&gt;Node1 -->
<g id="edge5" class="edge">
<title>Node4&#45;&gt;Node1</title>
<path fill="none" stroke="#9a32cd" stroke-dasharray="5,2" d="M156.91,-154.94C145.56,-142.68 132.56,-125.86 126.5,-108 115.97,-76.97 144.26,-43.89 162.47,-26.61"/>
<polygon fill="#9a32cd" stroke="#9a32cd" points="154.57,-157.55 164.05,-162.3 159.6,-152.68 154.57,-157.55"/>
<text text-anchor="middle" x="188.5" y="-90.7" font-family="Source Sans Pro" font-size="16.00"> renderEngineLink</text>
</g>
<!-- Node4&#45;&gt;Node3 -->
<g id="edge3" class="edge">
<title>Node4&#45;&gt;Node3</title>
<path fill="none" stroke="#9a32cd" stroke-dasharray="5,2" d="M208.49,-157.5C235.91,-142.46 275.23,-120.88 299.53,-107.55"/>
<polygon fill="#9a32cd" stroke="#9a32cd" points="206.77,-154.45 199.68,-162.33 210.14,-160.59 206.77,-154.45"/>
<text text-anchor="middle" x="332.5" y="-131.2" font-family="Source Sans Pro" font-size="16.00"> linkedRenderEngine</text>
</g>
<!-- Node5 -->
<g id="node5" class="node">
<title>Node5</title>
<g id="a_node5"><a xlink:href="struct_i_e_window_user_pointer.html" target="_top" xlink:title=" ">
<polygon fill="white" stroke="black" points="401.5,-81.5 401.5,-107.5 565.5,-107.5 565.5,-81.5 401.5,-81.5"/>
<text text-anchor="middle" x="483.5" y="-90.7" font-family="Source Sans Pro" font-size="16.00">IEWindowUserPointer</text>
</a>
</g>
</g>
<!-- Node5&#45;&gt;Node1 -->
<g id="edge6" class="edge">
<title>Node5&#45;&gt;Node1</title>
<path fill="none" stroke="#9a32cd" stroke-dasharray="5,2" d="M436.82,-78.4C404.61,-68.25 360.69,-54.97 321.5,-45 294.82,-38.21 265.12,-31.77 239.57,-26.57"/>
<polygon fill="#9a32cd" stroke="#9a32cd" points="435.84,-81.76 446.43,-81.44 437.95,-75.08 435.84,-81.76"/>
<text text-anchor="middle" x="427" y="-50.2" font-family="Source Sans Pro" font-size="16.00"> windowUser</text>
</g>
</g>
</svg>
