<?xml version="1.0" encoding="UTF-8" standalone="no"?>
<!DOCTYPE svg PUBLIC "-//W3C//DTD SVG 1.1//EN"
 "http://www.w3.org/Graphics/SVG/1.1/DTD/svg11.dtd">
<!-- Generated by graphviz version 2.43.0 (0)
 -->
<!-- Title: OpenGLRenderable Pages: 1 -->
<svg width="453pt" height="197pt"
 viewBox="0.00 0.00 453.00 197.00" xmlns="http://www.w3.org/2000/svg" xmlns:xlink="http://www.w3.org/1999/xlink">
<g id="graph0" class="graph" transform="scale(1 1) rotate(0) translate(4 193)">
<title>OpenGLRenderable</title>
<polygon fill="white" stroke="transparent" points="-4,4 -4,-193 449,-193 449,4 -4,4"/>
<!-- Node1 -->
<g id="node1" class="node">
<title>Node1</title>
<g id="a_node1"><a xlink:title=" ">
<polygon fill="#bfbfbf" stroke="black" points="83,-0.5 83,-26.5 232,-26.5 232,-0.5 83,-0.5"/>
<text text-anchor="middle" x="157.5" y="-9.7" font-family="Source Sans Pro" font-size="16.00">OpenGLRenderable</text>
</a>
</g>
</g>
<!-- Node2 -->
<g id="node2" class="node">
<title>Node2</title>
<g id="a_node2"><a xlink:href="class_i_e_aspect.html" target="_top" xlink:title=" ">
<polygon fill="white" stroke="black" points="0,-81.5 0,-107.5 75,-107.5 75,-81.5 0,-81.5"/>
<text text-anchor="middle" x="37.5" y="-90.7" font-family="Source Sans Pro" font-size="16.00">IEAspect</text>
</a>
</g>
</g>
<!-- Node2&#45;&gt;Node1 -->
<g id="edge1" class="edge">
<title>Node2&#45;&gt;Node1</title>
<path fill="none" stroke="midnightblue" d="M64.52,-75.71C87.31,-60.71 119.29,-39.65 139.19,-26.55"/>
<polygon fill="midnightblue" stroke="midnightblue" points="62.41,-72.91 55.99,-81.33 66.26,-78.75 62.41,-72.91"/>
</g>
<!-- Node3 -->
<g id="node3" class="node">
<title>Node3</title>
<g id="a_node3"><a xlink:href="class_open_g_l_program.html" target="_top" xlink:title=" ">
<polygon fill="white" stroke="black" points="93,-81.5 93,-107.5 222,-107.5 222,-81.5 93,-81.5"/>
<text text-anchor="middle" x="157.5" y="-90.7" font-family="Source Sans Pro" font-size="16.00">OpenGLProgram</text>
</a>
</g>
</g>
<!-- Node3&#45;&gt;Node1 -->
<g id="edge2" class="edge">
<title>Node3&#45;&gt;Node1</title>
<path fill="none" stroke="#9a32cd" stroke-dasharray="5,2" d="M157.5,-71.05C157.5,-56.67 157.5,-38.55 157.5,-26.76"/>
<polygon fill="#9a32cd" stroke="#9a32cd" points="154,-71.16 157.5,-81.16 161,-71.16 154,-71.16"/>
<text text-anchor="middle" x="188.5" y="-50.2" font-family="Source Sans Pro" font-size="16.00"> program</text>
</g>
<!-- Node4 -->
<g id="node4" class="node">
<title>Node4</title>
<g id="a_node4"><a xlink:href="struct_open_g_l_program_1_1_create_info.html" target="_top" xlink:title=" ">
<polygon fill="white" stroke="black" points="54.5,-162.5 54.5,-188.5 260.5,-188.5 260.5,-162.5 54.5,-162.5"/>
<text text-anchor="middle" x="157.5" y="-171.7" font-family="Source Sans Pro" font-size="16.00">OpenGLProgram::CreateInfo</text>
</a>
</g>
</g>
<!-- Node4&#45;&gt;Node3 -->
<g id="edge3" class="edge">
<title>Node4&#45;&gt;Node3</title>
<path fill="none" stroke="#9a32cd" stroke-dasharray="5,2" d="M157.5,-152.05C157.5,-137.67 157.5,-119.55 157.5,-107.76"/>
<polygon fill="#9a32cd" stroke="#9a32cd" points="154,-152.16 157.5,-162.16 161,-152.16 154,-152.16"/>
<text text-anchor="middle" x="200" y="-131.2" font-family="Source Sans Pro" font-size="16.00"> createdWith</text>
</g>
<!-- Node5 -->
<g id="node5" class="node">
<title>Node5</title>
<g id="a_node5"><a xlink:href="class_open_g_l_graphics_engine_link.html" target="_top" xlink:title=" ">
<polygon fill="white" stroke="black" points="240,-81.5 240,-107.5 445,-107.5 445,-81.5 240,-81.5"/>
<text text-anchor="middle" x="342.5" y="-90.7" font-family="Source Sans Pro" font-size="16.00">OpenGLGraphicsEngineLink</text>
</a>
</g>
</g>
<!-- Node5&#45;&gt;Node1 -->
<g id="edge4" class="edge">
<title>Node5&#45;&gt;Node1</title>
<path fill="none" stroke="#9a32cd" stroke-dasharray="5,2" d="M304.51,-77.28C269.23,-62.21 217.49,-40.12 185.73,-26.55"/>
<polygon fill="#9a32cd" stroke="#9a32cd" points="303.43,-80.62 314,-81.33 306.18,-74.18 303.43,-80.62"/>
<text text-anchor="middle" x="337.5" y="-50.2" font-family="Source Sans Pro" font-size="16.00"> linkedRenderEngine</text>
</g>
<!-- Node6 -->
<g id="node6" class="node">
<title>Node6</title>
<g id="a_node6"><a xlink:href="class_open_g_l_settings.html" target="_top" xlink:title=" ">
<polygon fill="white" stroke="black" points="280,-162.5 280,-188.5 405,-188.5 405,-162.5 280,-162.5"/>
<text text-anchor="middle" x="342.5" y="-171.7" font-family="Source Sans Pro" font-size="16.00">OpenGLSettings</text>
</a>
</g>
</g>
<!-- Node6&#45;&gt;Node5 -->
<g id="edge5" class="edge">
<title>Node6&#45;&gt;Node5</title>
<path fill="none" stroke="#9a32cd" stroke-dasharray="5,2" d="M342.5,-152.05C342.5,-137.67 342.5,-119.55 342.5,-107.76"/>
<polygon fill="#9a32cd" stroke="#9a32cd" points="339,-152.16 342.5,-162.16 346,-152.16 339,-152.16"/>
<text text-anchor="middle" x="370.5" y="-131.2" font-family="Source Sans Pro" font-size="16.00"> settings</text>
</g>
</g>
</svg>
