<?xml version="1.0" encoding="UTF-8" standalone="no"?>
<!DOCTYPE svg PUBLIC "-//W3C//DTD SVG 1.1//EN"
 "http://www.w3.org/Graphics/SVG/1.1/DTD/svg11.dtd">
<!-- Generated by graphviz version 2.43.0 (0)
 -->
<!-- Title: IETexture Pages: 1 -->
<svg width="678pt" height="414pt"
 viewBox="0.00 0.00 677.50 414.00" xmlns="http://www.w3.org/2000/svg" xmlns:xlink="http://www.w3.org/1999/xlink">
<g id="graph0" class="graph" transform="scale(1 1) rotate(0) translate(4 410)">
<title>IETexture</title>
<polygon fill="white" stroke="transparent" points="-4,4 -4,-410 673.5,-410 673.5,4 -4,4"/>
<!-- Node1 -->
<g id="node1" class="node">
<title>Node1</title>
<g id="a_node1"><a xlink:title=" ">
<polygon fill="#bfbfbf" stroke="black" points="177,-0.5 177,-26.5 256,-26.5 256,-0.5 177,-0.5"/>
<text text-anchor="middle" x="216.5" y="-9.7" font-family="Source Sans Pro" font-size="16.00">IETexture</text>
</a>
</g>
</g>
<!-- Node2 -->
<g id="node2" class="node">
<title>Node2</title>
<g id="a_node2"><a xlink:href="class_i_e_image.html" target="_top" xlink:title=" ">
<polygon fill="white" stroke="black" points="181,-64.5 181,-90.5 252,-90.5 252,-64.5 181,-64.5"/>
<text text-anchor="middle" x="216.5" y="-73.7" font-family="Source Sans Pro" font-size="16.00">IEImage</text>
</a>
</g>
</g>
<!-- Node2&#45;&gt;Node1 -->
<g id="edge1" class="edge">
<title>Node2&#45;&gt;Node1</title>
<path fill="none" stroke="midnightblue" d="M216.5,-54.13C216.5,-44.89 216.5,-34.53 216.5,-26.72"/>
<polygon fill="midnightblue" stroke="midnightblue" points="213,-54.25 216.5,-64.25 220,-54.25 213,-54.25"/>
</g>
<!-- Node3 -->
<g id="node3" class="node">
<title>Node3</title>
<g id="a_node3"><a xlink:href="class_i_e_dependency.html" target="_top" xlink:title=" ">
<polygon fill="white" stroke="black" points="0,-154.5 0,-180.5 115,-180.5 115,-154.5 0,-154.5"/>
<text text-anchor="middle" x="57.5" y="-163.7" font-family="Source Sans Pro" font-size="16.00">IEDependency</text>
</a>
</g>
</g>
<!-- Node3&#45;&gt;Node2 -->
<g id="edge2" class="edge">
<title>Node3&#45;&gt;Node2</title>
<path fill="none" stroke="midnightblue" d="M88.42,-149.39C119.69,-132.08 167.22,-105.77 194.73,-90.55"/>
<polygon fill="midnightblue" stroke="midnightblue" points="86.33,-146.54 79.27,-154.45 89.72,-152.67 86.33,-146.54"/>
</g>
<!-- Node4 -->
<g id="node4" class="node">
<title>Node4</title>
<g id="a_node4"><a xlink:title=" ">
<polygon fill="white" stroke="black" points="133,-145.5 133,-189.5 300,-189.5 300,-145.5 133,-145.5"/>
<text text-anchor="start" x="141" y="-172.7" font-family="Source Sans Pro" font-size="16.00">std::enable_shared</text>
<text text-anchor="middle" x="216.5" y="-154.7" font-family="Source Sans Pro" font-size="16.00">_from_this&lt; IEImage &gt;</text>
</a>
</g>
</g>
<!-- Node4&#45;&gt;Node2 -->
<g id="edge3" class="edge">
<title>Node4&#45;&gt;Node2</title>
<path fill="none" stroke="midnightblue" d="M216.5,-135.02C216.5,-119.67 216.5,-102.09 216.5,-90.67"/>
<polygon fill="midnightblue" stroke="midnightblue" points="213,-135.2 216.5,-145.2 220,-135.2 213,-135.2"/>
</g>
<!-- Node5 -->
<g id="node5" class="node">
<title>Node5</title>
<g id="a_node5"><a xlink:href="class_i_e_render_engine.html" target="_top" xlink:title=" ">
<polygon fill="white" stroke="black" points="350,-154.5 350,-180.5 475,-180.5 475,-154.5 350,-154.5"/>
<text text-anchor="middle" x="412.5" y="-163.7" font-family="Source Sans Pro" font-size="16.00">IERenderEngine</text>
</a>
</g>
</g>
<!-- Node5&#45;&gt;Node2 -->
<g id="edge4" class="edge">
<title>Node5&#45;&gt;Node2</title>
<path fill="none" stroke="#9a32cd" stroke-dasharray="5,2" d="M342.03,-152.25C309.33,-144.83 274.61,-135.54 260.5,-127 245.33,-117.82 232.31,-101.82 224.45,-90.72"/>
<polygon fill="#9a32cd" stroke="#9a32cd" points="341.57,-155.74 352.09,-154.49 343.09,-148.9 341.57,-155.74"/>
<text text-anchor="middle" x="330.5" y="-114.2" font-family="Source Sans Pro" font-size="16.00"> linkedRenderEngine</text>
</g>
<!-- Node6 -->
<g id="node6" class="node">
<title>Node6</title>
<g id="a_node6"><a xlink:href="class_i_e_camera.html" target="_top" xlink:title=" ">
<polygon fill="white" stroke="black" points="452.5,-64.5 452.5,-90.5 534.5,-90.5 534.5,-64.5 452.5,-64.5"/>
<text text-anchor="middle" x="493.5" y="-73.7" font-family="Source Sans Pro" font-size="16.00">IECamera</text>
</a>
</g>
</g>
<!-- Node5&#45;&gt;Node6 -->
<g id="edge6" class="edge">
<title>Node5&#45;&gt;Node6</title>
<path fill="none" stroke="#9a32cd" stroke-dasharray="5,2" d="M405.26,-144.51C402.87,-132.97 402.38,-119.15 409.5,-109 419.29,-95.02 436.18,-87.43 452.26,-83.31"/>
<polygon fill="#9a32cd" stroke="#9a32cd" points="401.9,-145.51 407.82,-154.3 408.67,-143.74 401.9,-145.51"/>
<text text-anchor="middle" x="479.5" y="-114.2" font-family="Source Sans Pro" font-size="16.00"> linkedRenderEngine</text>
</g>
<!-- Node6&#45;&gt;Node5 -->
<g id="edge5" class="edge">
<title>Node6&#45;&gt;Node5</title>
<path fill="none" stroke="#9a32cd" stroke-dasharray="5,2" d="M536.38,-95.18C551.58,-103.62 562.84,-114.69 553.5,-127 543.63,-140.01 508.14,-149.92 475.24,-156.55"/>
<polygon fill="#9a32cd" stroke="#9a32cd" points="537.62,-91.89 527.11,-90.53 534.48,-98.14 537.62,-91.89"/>
<text text-anchor="middle" x="584" y="-114.2" font-family="Source Sans Pro" font-size="16.00"> camera</text>
</g>
<!-- Node7 -->
<g id="node7" class="node">
<title>Node7</title>
<g id="a_node7"><a xlink:href="class_i_e_settings.html" target="_top" xlink:title=" ">
<polygon fill="white" stroke="black" points="237,-253.5 237,-279.5 320,-279.5 320,-253.5 237,-253.5"/>
<text text-anchor="middle" x="278.5" y="-262.7" font-family="Source Sans Pro" font-size="16.00">IESettings</text>
</a>
</g>
</g>
<!-- Node7&#45;&gt;Node5 -->
<g id="edge7" class="edge">
<title>Node7&#45;&gt;Node5</title>
<path fill="none" stroke="#9a32cd" stroke-dasharray="5,2" d="M301.18,-247.14C315.64,-235.61 334.92,-220.59 352.5,-208 365.88,-198.42 381.42,-188.21 393.33,-180.58"/>
<polygon fill="#9a32cd" stroke="#9a32cd" points="298.88,-244.49 293.26,-253.48 303.25,-249.96 298.88,-244.49"/>
<text text-anchor="middle" x="380.5" y="-213.2" font-family="Source Sans Pro" font-size="16.00"> settings</text>
</g>
<!-- Node8 -->
<g id="node8" class="node">
<title>Node8</title>
<g id="a_node8"><a xlink:href="class_i_e_logger.html" target="_top" xlink:title="A small logging tool that is a very thin wrapper for spdlog.">
<polygon fill="white" stroke="black" points="172,-379.5 172,-405.5 247,-405.5 247,-379.5 172,-379.5"/>
<text text-anchor="middle" x="209.5" y="-388.7" font-family="Source Sans Pro" font-size="16.00">IELogger</text>
</a>
</g>
</g>
<!-- Node8&#45;&gt;Node7 -->
<g id="edge8" class="edge">
<title>Node8&#45;&gt;Node7</title>
<path fill="none" stroke="#9a32cd" stroke-dasharray="5,2" d="M204.1,-369.43C200.95,-351.39 199.49,-325.87 210.5,-307 217.72,-294.62 230.46,-285.75 242.98,-279.59"/>
<polygon fill="#9a32cd" stroke="#9a32cd" points="200.69,-370.23 206.12,-379.32 207.55,-368.82 200.69,-370.23"/>
<text text-anchor="middle" x="233.5" y="-330.2" font-family="Source Sans Pro" font-size="16.00"> logger</text>
</g>
<!-- Node9 -->
<g id="node9" class="node">
<title>Node9</title>
<g id="a_node9"><a xlink:href="struct_i_e_version.html" target="_top" xlink:title=" ">
<polygon fill="white" stroke="black" points="343.5,-379.5 343.5,-405.5 423.5,-405.5 423.5,-379.5 343.5,-379.5"/>
<text text-anchor="middle" x="383.5" y="-388.7" font-family="Source Sans Pro" font-size="16.00">IEVersion</text>
</a>
</g>
</g>
<!-- Node9&#45;&gt;Node7 -->
<g id="edge9" class="edge">
<title>Node9&#45;&gt;Node7</title>
<path fill="none" stroke="#9a32cd" stroke-dasharray="5,2" d="M333.5,-390.18C312.11,-386.81 289,-378.84 275.5,-361 257.37,-337.04 267.01,-298.88 273.75,-279.56"/>
<polygon fill="#9a32cd" stroke="#9a32cd" points="333.13,-393.66 343.49,-391.45 334.01,-386.72 333.13,-393.66"/>
<text text-anchor="middle" x="355.5" y="-348.2" font-family="Source Sans Pro" font-size="16.00"> applicationVersion</text>
<text text-anchor="middle" x="355.5" y="-330.2" font-family="Source Sans Pro" font-size="16.00">desiredVulkanVersion</text>
<text text-anchor="middle" x="355.5" y="-312.2" font-family="Source Sans Pro" font-size="16.00">minimumVulkanVersion</text>
</g>
<!-- Node10 -->
<g id="node10" class="node">
<title>Node10</title>
<g id="a_node10"><a xlink:href="class_i_e_a_p_i.html" target="_top" xlink:title=" ">
<polygon fill="white" stroke="black" points="386.5,-253.5 386.5,-279.5 438.5,-279.5 438.5,-253.5 386.5,-253.5"/>
<text text-anchor="middle" x="412.5" y="-262.7" font-family="Source Sans Pro" font-size="16.00">IEAPI</text>
</a>
</g>
</g>
<!-- Node9&#45;&gt;Node10 -->
<g id="edge11" class="edge">
<title>Node9&#45;&gt;Node10</title>
<path fill="none" stroke="#9a32cd" stroke-dasharray="5,2" d="M427.94,-373.67C432.52,-370.13 436.57,-365.94 439.5,-361 451.76,-340.37 446.59,-329.93 439.5,-307 436.36,-296.84 429.61,-286.97 423.64,-279.63"/>
<polygon fill="#9a32cd" stroke="#9a32cd" points="425.68,-370.96 419.23,-379.36 429.51,-376.82 425.68,-370.96"/>
<text text-anchor="middle" x="473" y="-330.2" font-family="Source Sans Pro" font-size="16.00"> version</text>
</g>
<!-- Node10&#45;&gt;Node5 -->
<g id="edge10" class="edge">
<title>Node10&#45;&gt;Node5</title>
<path fill="none" stroke="#9a32cd" stroke-dasharray="5,2" d="M412.5,-243.11C412.5,-223.69 412.5,-196.31 412.5,-180.69"/>
<polygon fill="#9a32cd" stroke="#9a32cd" points="409,-243.21 412.5,-253.21 416,-243.21 409,-243.21"/>
<text text-anchor="middle" x="425.5" y="-213.2" font-family="Source Sans Pro" font-size="16.00"> API</text>
</g>
<!-- Node11 -->
<g id="node11" class="node">
<title>Node11</title>
<g id="a_node11"><a xlink:href="struct_i_e_render_engine_1_1_extension_and_feature_info.html" target="_top" xlink:title=" ">
<polygon fill="white" stroke="black" points="456.5,-244.5 456.5,-288.5 654.5,-288.5 654.5,-244.5 456.5,-244.5"/>
<text text-anchor="start" x="464.5" y="-271.7" font-family="Source Sans Pro" font-size="16.00">IERenderEngine::Extension</text>
<text text-anchor="middle" x="555.5" y="-253.7" font-family="Source Sans Pro" font-size="16.00">AndFeatureInfo</text>
</a>
</g>
</g>
<!-- Node11&#45;&gt;Node5 -->
<g id="edge12" class="edge">
<title>Node11&#45;&gt;Node5</title>
<path fill="none" stroke="#9a32cd" stroke-dasharray="5,2" d="M516.07,-238.75C488.05,-219.75 451.75,-195.12 430.4,-180.64"/>
<polygon fill="#9a32cd" stroke="#9a32cd" points="514.23,-241.74 524.47,-244.45 518.16,-235.94 514.23,-241.74"/>
<text text-anchor="middle" x="583" y="-213.2" font-family="Source Sans Pro" font-size="16.00"> extensionAndFeatureInfo</text>
</g>
</g>
</svg>
