<?xml version="1.0" encoding="UTF-8" standalone="no"?>
<!DOCTYPE svg PUBLIC "-//W3C//DTD SVG 1.1//EN"
 "http://www.w3.org/Graphics/SVG/1.1/DTD/svg11.dtd">
<!-- Generated by graphviz version 2.43.0 (0)
 -->
<!-- Title: VulkanTexture Pages: 1 -->
<svg width="532pt" height="459pt"
 viewBox="0.00 0.00 531.50 459.00" xmlns="http://www.w3.org/2000/svg" xmlns:xlink="http://www.w3.org/1999/xlink">
<g id="graph0" class="graph" transform="scale(1 1) rotate(0) translate(4 455)">
<title>VulkanTexture</title>
<polygon fill="white" stroke="transparent" points="-4,4 -4,-455 527.5,-455 527.5,4 -4,4"/>
<!-- Node1 -->
<g id="node1" class="node">
<title>Node1</title>
<g id="a_node1"><a xlink:title=" ">
<polygon fill="#bfbfbf" stroke="black" points="234.5,-0.5 234.5,-26.5 344.5,-26.5 344.5,-0.5 234.5,-0.5"/>
<text text-anchor="middle" x="289.5" y="-9.7" font-family="Source Sans Pro" font-size="16.00">VulkanTexture</text>
</a>
</g>
</g>
<!-- Node2 -->
<g id="node2" class="node">
<title>Node2</title>
<g id="a_node2"><a xlink:href="class_vulkan_image.html" target="_top" xlink:title=" ">
<polygon fill="white" stroke="black" points="237.5,-64.5 237.5,-90.5 341.5,-90.5 341.5,-64.5 237.5,-64.5"/>
<text text-anchor="middle" x="289.5" y="-73.7" font-family="Source Sans Pro" font-size="16.00">VulkanImage</text>
</a>
</g>
</g>
<!-- Node2&#45;&gt;Node1 -->
<g id="edge1" class="edge">
<title>Node2&#45;&gt;Node1</title>
<path fill="none" stroke="midnightblue" d="M289.5,-54.13C289.5,-44.89 289.5,-34.53 289.5,-26.72"/>
<polygon fill="midnightblue" stroke="midnightblue" points="286,-54.25 289.5,-64.25 293,-54.25 286,-54.25"/>
</g>
<!-- Node3 -->
<g id="node3" class="node">
<title>Node3</title>
<g id="a_node3"><a xlink:href="struct_vulkan_image_1_1_create_info.html" target="_top" xlink:title=" ">
<polygon fill="white" stroke="black" points="135,-145.5 135,-171.5 316,-171.5 316,-145.5 135,-145.5"/>
<text text-anchor="middle" x="225.5" y="-154.7" font-family="Source Sans Pro" font-size="16.00">VulkanImage::CreateInfo</text>
</a>
</g>
</g>
<!-- Node3&#45;&gt;Node2 -->
<g id="edge2" class="edge">
<title>Node3&#45;&gt;Node2</title>
<path fill="none" stroke="#9a32cd" stroke-dasharray="5,2" d="M236.26,-136.28C241.23,-127.43 247.57,-117.29 254.5,-109 260.08,-102.32 267.19,-95.85 273.53,-90.6"/>
<polygon fill="#9a32cd" stroke="#9a32cd" points="233.1,-134.78 231.44,-145.25 239.26,-138.1 233.1,-134.78"/>
<text text-anchor="middle" x="297" y="-114.2" font-family="Source Sans Pro" font-size="16.00"> createdWith</text>
</g>
<!-- Node4 -->
<g id="node4" class="node">
<title>Node4</title>
<g id="a_node4"><a xlink:href="class_vulkan_buffer.html" target="_top" xlink:title=" ">
<polygon fill="white" stroke="black" points="147,-226.5 147,-252.5 250,-252.5 250,-226.5 147,-226.5"/>
<text text-anchor="middle" x="198.5" y="-235.7" font-family="Source Sans Pro" font-size="16.00">VulkanBuffer</text>
</a>
</g>
</g>
<!-- Node4&#45;&gt;Node3 -->
<g id="edge3" class="edge">
<title>Node4&#45;&gt;Node3</title>
<path fill="none" stroke="#9a32cd" stroke-dasharray="5,2" d="M206.03,-216.47C210.97,-202.02 217.24,-183.67 221.31,-171.76"/>
<polygon fill="#9a32cd" stroke="#9a32cd" points="202.64,-215.56 202.72,-226.16 209.26,-217.83 202.64,-215.56"/>
<text text-anchor="middle" x="253.5" y="-195.2" font-family="Source Sans Pro" font-size="16.00"> dataSource</text>
</g>
<!-- Node5 -->
<g id="node5" class="node">
<title>Node5</title>
<g id="a_node5"><a xlink:href="struct_vulkan_buffer_1_1_create_info.html" target="_top" xlink:title=" ">
<polygon fill="white" stroke="black" points="0,-307.5 0,-333.5 181,-333.5 181,-307.5 0,-307.5"/>
<text text-anchor="middle" x="90.5" y="-316.7" font-family="Source Sans Pro" font-size="16.00">VulkanBuffer::CreateInfo</text>
</a>
</g>
</g>
<!-- Node5&#45;&gt;Node4 -->
<g id="edge4" class="edge">
<title>Node5&#45;&gt;Node4</title>
<path fill="none" stroke="#9a32cd" stroke-dasharray="5,2" d="M85.6,-297.5C84.85,-288.45 85.81,-278.38 91.5,-271 104.53,-254.1 126.25,-246.1 146.73,-242.48"/>
<polygon fill="#9a32cd" stroke="#9a32cd" points="82.14,-298.05 87.08,-307.43 89.07,-297.02 82.14,-298.05"/>
<text text-anchor="middle" x="134" y="-276.2" font-family="Source Sans Pro" font-size="16.00"> createdWith</text>
</g>
<!-- Node6 -->
<g id="node6" class="node">
<title>Node6</title>
<g id="a_node6"><a xlink:href="class_vulkan_graphics_engine_link.html" target="_top" xlink:title=" ">
<polygon fill="white" stroke="black" points="227.5,-307.5 227.5,-333.5 423.5,-333.5 423.5,-307.5 227.5,-307.5"/>
<text text-anchor="middle" x="325.5" y="-316.7" font-family="Source Sans Pro" font-size="16.00">VulkanGraphicsEngineLink</text>
</a>
</g>
</g>
<!-- Node6&#45;&gt;Node2 -->
<g id="edge7" class="edge">
<title>Node6&#45;&gt;Node2</title>
<path fill="none" stroke="#9a32cd" stroke-dasharray="5,2" d="M336.62,-298.28C337.81,-295.24 338.83,-292.09 339.5,-289 356.58,-210.84 378.66,-178.76 339.5,-109 335.12,-101.2 327.84,-95.16 320.18,-90.58"/>
<polygon fill="#9a32cd" stroke="#9a32cd" points="333.41,-296.9 332.48,-307.46 339.79,-299.78 333.41,-296.9"/>
<text text-anchor="middle" x="430.5" y="-195.2" font-family="Source Sans Pro" font-size="16.00"> linkedRenderEngine</text>
</g>
<!-- Node6&#45;&gt;Node4 -->
<g id="edge5" class="edge">
<title>Node6&#45;&gt;Node4</title>
<path fill="none" stroke="#9a32cd" stroke-dasharray="5,2" d="M232.72,-304.96C217.34,-300.74 204.7,-295.47 199.5,-289 191.38,-278.89 192.66,-263.39 194.98,-252.65"/>
<polygon fill="#9a32cd" stroke="#9a32cd" points="232.05,-308.41 242.61,-307.46 233.77,-301.62 232.05,-308.41"/>
<text text-anchor="middle" x="269.5" y="-276.2" font-family="Source Sans Pro" font-size="16.00"> linkedRenderEngine</text>
</g>
<!-- Node7 -->
<g id="node7" class="node">
<title>Node7</title>
<g id="a_node7"><a xlink:href="struct_vulkan_graphics_engine_link_1_1_physical_device_info.html" target="_top" xlink:title=" ">
<polygon fill="white" stroke="black" points="227.5,-406.5 227.5,-450.5 423.5,-450.5 423.5,-406.5 227.5,-406.5"/>
<text text-anchor="start" x="235.5" y="-433.7" font-family="Source Sans Pro" font-size="16.00">VulkanGraphicsEngineLink</text>
<text text-anchor="middle" x="325.5" y="-415.7" font-family="Source Sans Pro" font-size="16.00">::PhysicalDeviceInfo</text>
</a>
</g>
</g>
<!-- Node7&#45;&gt;Node6 -->
<g id="edge6" class="edge">
<title>Node7&#45;&gt;Node6</title>
<path fill="none" stroke="#9a32cd" stroke-dasharray="5,2" d="M325.5,-396.24C325.5,-375.31 325.5,-348.9 325.5,-333.73"/>
<polygon fill="#9a32cd" stroke="#9a32cd" points="322,-396.3 325.5,-406.3 329,-396.3 322,-396.3"/>
<text text-anchor="middle" x="424.5" y="-375.2" font-family="Source Sans Pro" font-size="16.00"> enabledPhysicalDeviceInfo</text>
<text text-anchor="middle" x="424.5" y="-357.2" font-family="Source Sans Pro" font-size="16.00">supportedPhysicalDeviceInfo</text>
</g>
</g>
</svg>
