<?xml version="1.0" encoding="UTF-8" standalone="no"?>
<!DOCTYPE svg PUBLIC "-//W3C//DTD SVG 1.1//EN"
 "http://www.w3.org/Graphics/SVG/1.1/DTD/svg11.dtd">
<!-- Generated by graphviz version 2.43.0 (0)
 -->
<!-- Title: IERenderable Pages: 1 -->
<svg width="840pt" height="431pt"
 viewBox="0.00 0.00 839.50 431.00" xmlns="http://www.w3.org/2000/svg" xmlns:xlink="http://www.w3.org/1999/xlink">
<g id="graph0" class="graph" transform="scale(1 1) rotate(0) translate(4 427)">
<title>IERenderable</title>
<polygon fill="white" stroke="transparent" points="-4,4 -4,-427 835.5,-427 835.5,4 -4,4"/>
<!-- Node1 -->
<g id="node1" class="node">
<title>Node1</title>
<g id="a_node1"><a xlink:title=" ">
<polygon fill="#bfbfbf" stroke="black" points="297,-0.5 297,-26.5 404,-26.5 404,-0.5 297,-0.5"/>
<text text-anchor="middle" x="350.5" y="-9.7" font-family="Source Sans Pro" font-size="16.00">IERenderable</text>
</a>
</g>
</g>
<!-- Node2 -->
<g id="node2" class="node">
<title>Node2</title>
<g id="a_node2"><a xlink:href="class_i_e_aspect.html" target="_top" xlink:title="An interface class used to create aspects of an IEAsset.">
<polygon fill="white" stroke="black" points="121,-81.5 121,-107.5 196,-107.5 196,-81.5 121,-81.5"/>
<text text-anchor="middle" x="158.5" y="-90.7" font-family="Source Sans Pro" font-size="16.00">IEAspect</text>
</a>
</g>
</g>
<!-- Node2&#45;&gt;Node1 -->
<g id="edge1" class="edge">
<title>Node2&#45;&gt;Node1</title>
<path fill="none" stroke="midnightblue" d="M197.46,-77.47C234.09,-62.4 288.1,-40.17 321.2,-26.55"/>
<polygon fill="midnightblue" stroke="midnightblue" points="196,-74.29 188.08,-81.33 198.66,-80.76 196,-74.29"/>
</g>
<!-- Node3 -->
<g id="node3" class="node">
<title>Node3</title>
<g id="a_node3"><a xlink:href="class_i_e_buffer.html" target="_top" xlink:title=" ">
<polygon fill="white" stroke="black" points="214,-81.5 214,-107.5 285,-107.5 285,-81.5 214,-81.5"/>
<text text-anchor="middle" x="249.5" y="-90.7" font-family="Source Sans Pro" font-size="16.00">IEBuffer</text>
</a>
</g>
</g>
<!-- Node3&#45;&gt;Node1 -->
<g id="edge2" class="edge">
<title>Node3&#45;&gt;Node1</title>
<path fill="none" stroke="#9a32cd" stroke-dasharray="5,2" d="M268.66,-73.94C278.15,-64.7 290.02,-53.8 301.5,-45 310.09,-38.42 320.15,-31.96 328.92,-26.7"/>
<polygon fill="#9a32cd" stroke="#9a32cd" points="265.94,-71.71 261.3,-81.23 270.87,-76.68 265.94,-71.71"/>
<text text-anchor="middle" x="345.5" y="-50.2" font-family="Source Sans Pro" font-size="16.00"> modelBuffer</text>
</g>
<!-- Node4 -->
<g id="node4" class="node">
<title>Node4</title>
<g id="a_node4"><a xlink:href="class_i_e_dependency.html" target="_top" xlink:title=" ">
<polygon fill="white" stroke="black" points="0,-171.5 0,-197.5 115,-197.5 115,-171.5 0,-171.5"/>
<text text-anchor="middle" x="57.5" y="-180.7" font-family="Source Sans Pro" font-size="16.00">IEDependency</text>
</a>
</g>
</g>
<!-- Node4&#45;&gt;Node3 -->
<g id="edge3" class="edge">
<title>Node4&#45;&gt;Node3</title>
<path fill="none" stroke="midnightblue" d="M92.9,-167.28C130.61,-149.99 189.42,-123.04 223.22,-107.55"/>
<polygon fill="midnightblue" stroke="midnightblue" points="91.43,-164.1 83.79,-171.45 94.34,-170.46 91.43,-164.1"/>
</g>
<!-- Node5 -->
<g id="node5" class="node">
<title>Node5</title>
<g id="a_node5"><a xlink:title=" ">
<polygon fill="white" stroke="black" points="133,-162.5 133,-206.5 300,-206.5 300,-162.5 133,-162.5"/>
<text text-anchor="start" x="141" y="-189.7" font-family="Source Sans Pro" font-size="16.00">std::enable_shared</text>
<text text-anchor="middle" x="216.5" y="-171.7" font-family="Source Sans Pro" font-size="16.00">_from_this&lt; IEBuffer &gt;</text>
</a>
</g>
</g>
<!-- Node5&#45;&gt;Node3 -->
<g id="edge4" class="edge">
<title>Node5&#45;&gt;Node3</title>
<path fill="none" stroke="midnightblue" d="M222.12,-152.6C224.22,-143.82 226.98,-134.37 230.5,-126 233.16,-119.67 237.04,-113.15 240.6,-107.77"/>
<polygon fill="midnightblue" stroke="midnightblue" points="218.67,-151.98 219.94,-162.5 225.51,-153.48 218.67,-151.98"/>
</g>
<!-- Node6 -->
<g id="node6" class="node">
<title>Node6</title>
<g id="a_node6"><a xlink:href="class_i_e_render_engine.html" target="_top" xlink:title=" ">
<polygon fill="white" stroke="black" points="359,-171.5 359,-197.5 484,-197.5 484,-171.5 359,-171.5"/>
<text text-anchor="middle" x="421.5" y="-180.7" font-family="Source Sans Pro" font-size="16.00">IERenderEngine</text>
</a>
</g>
</g>
<!-- Node6&#45;&gt;Node1 -->
<g id="edge14" class="edge">
<title>Node6&#45;&gt;Node1</title>
<path fill="none" stroke="#9a32cd" stroke-dasharray="5,2" d="M418.23,-161.38C412.9,-127.38 401.7,-64.16 389.5,-45 384.88,-37.75 377.92,-31.51 371.15,-26.6"/>
<polygon fill="#9a32cd" stroke="#9a32cd" points="414.78,-161.95 419.75,-171.31 421.7,-160.89 414.78,-161.95"/>
<text text-anchor="middle" x="479.5" y="-90.7" font-family="Source Sans Pro" font-size="16.00"> linkedRenderEngine</text>
</g>
<!-- Node6&#45;&gt;Node3 -->
<g id="edge5" class="edge">
<title>Node6&#45;&gt;Node3</title>
<path fill="none" stroke="#9a32cd" stroke-dasharray="5,2" d="M351.62,-169.4C305.86,-159.83 253.9,-148.19 250.5,-144 242.32,-133.93 243.62,-118.43 245.96,-107.67"/>
<polygon fill="#9a32cd" stroke="#9a32cd" points="351.07,-172.86 361.57,-171.46 352.49,-166 351.07,-172.86"/>
<text text-anchor="middle" x="320.5" y="-131.2" font-family="Source Sans Pro" font-size="16.00"> linkedRenderEngine</text>
</g>
<!-- Node7 -->
<g id="node7" class="node">
<title>Node7</title>
<g id="a_node7"><a xlink:href="class_i_e_camera.html" target="_top" xlink:title=" ">
<polygon fill="white" stroke="black" points="561.5,-81.5 561.5,-107.5 643.5,-107.5 643.5,-81.5 561.5,-81.5"/>
<text text-anchor="middle" x="602.5" y="-90.7" font-family="Source Sans Pro" font-size="16.00">IECamera</text>
</a>
</g>
</g>
<!-- Node6&#45;&gt;Node7 -->
<g id="edge7" class="edge">
<title>Node6&#45;&gt;Node7</title>
<path fill="none" stroke="#9a32cd" stroke-dasharray="5,2" d="M421.7,-161.16C423.04,-149.06 426.8,-134.82 436.5,-126 454.98,-109.18 522.97,-112.77 547.5,-108 552.02,-107.12 556.73,-106.14 561.41,-105.13"/>
<polygon fill="#9a32cd" stroke="#9a32cd" points="418.19,-161.25 421.06,-171.45 425.18,-161.69 418.19,-161.25"/>
<text text-anchor="middle" x="506.5" y="-131.2" font-family="Source Sans Pro" font-size="16.00"> linkedRenderEngine</text>
</g>
<!-- Node7&#45;&gt;Node6 -->
<g id="edge6" class="edge">
<title>Node7&#45;&gt;Node6</title>
<path fill="none" stroke="#9a32cd" stroke-dasharray="5,2" d="M597.23,-117.35C593.9,-126.8 588.64,-137.22 580.5,-144 553.72,-166.29 516.16,-176.29 484.27,-180.66"/>
<polygon fill="#9a32cd" stroke="#9a32cd" points="600.6,-118.28 600.13,-107.7 593.9,-116.27 600.6,-118.28"/>
<text text-anchor="middle" x="620" y="-131.2" font-family="Source Sans Pro" font-size="16.00"> camera</text>
</g>
<!-- Node8 -->
<g id="node8" class="node">
<title>Node8</title>
<g id="a_node8"><a xlink:href="class_i_e_settings.html" target="_top" xlink:title=" ">
<polygon fill="white" stroke="black" points="246,-270.5 246,-296.5 329,-296.5 329,-270.5 246,-270.5"/>
<text text-anchor="middle" x="287.5" y="-279.7" font-family="Source Sans Pro" font-size="16.00">IESettings</text>
</a>
</g>
</g>
<!-- Node8&#45;&gt;Node6 -->
<g id="edge8" class="edge">
<title>Node8&#45;&gt;Node6</title>
<path fill="none" stroke="#9a32cd" stroke-dasharray="5,2" d="M310.18,-264.14C324.64,-252.61 343.92,-237.59 361.5,-225 374.88,-215.42 390.42,-205.21 402.33,-197.58"/>
<polygon fill="#9a32cd" stroke="#9a32cd" points="307.88,-261.49 302.26,-270.48 312.25,-266.96 307.88,-261.49"/>
<text text-anchor="middle" x="389.5" y="-230.2" font-family="Source Sans Pro" font-size="16.00"> settings</text>
</g>
<!-- Node9 -->
<g id="node9" class="node">
<title>Node9</title>
<g id="a_node9"><a xlink:href="class_i_e_logger.html" target="_top" xlink:title="A small logging tool that is a very thin wrapper for spdlog.">
<polygon fill="white" stroke="black" points="181,-396.5 181,-422.5 256,-422.5 256,-396.5 181,-396.5"/>
<text text-anchor="middle" x="218.5" y="-405.7" font-family="Source Sans Pro" font-size="16.00">IELogger</text>
</a>
</g>
</g>
<!-- Node9&#45;&gt;Node8 -->
<g id="edge9" class="edge">
<title>Node9&#45;&gt;Node8</title>
<path fill="none" stroke="#9a32cd" stroke-dasharray="5,2" d="M213.1,-386.43C209.95,-368.39 208.49,-342.87 219.5,-324 226.72,-311.62 239.46,-302.75 251.98,-296.59"/>
<polygon fill="#9a32cd" stroke="#9a32cd" points="209.69,-387.23 215.12,-396.32 216.55,-385.82 209.69,-387.23"/>
<text text-anchor="middle" x="242.5" y="-347.2" font-family="Source Sans Pro" font-size="16.00"> logger</text>
</g>
<!-- Node10 -->
<g id="node10" class="node">
<title>Node10</title>
<g id="a_node10"><a xlink:href="struct_i_e_version.html" target="_top" xlink:title=" ">
<polygon fill="white" stroke="black" points="352.5,-396.5 352.5,-422.5 432.5,-422.5 432.5,-396.5 352.5,-396.5"/>
<text text-anchor="middle" x="392.5" y="-405.7" font-family="Source Sans Pro" font-size="16.00">IEVersion</text>
</a>
</g>
</g>
<!-- Node10&#45;&gt;Node8 -->
<g id="edge10" class="edge">
<title>Node10&#45;&gt;Node8</title>
<path fill="none" stroke="#9a32cd" stroke-dasharray="5,2" d="M342.5,-407.18C321.11,-403.81 298,-395.84 284.5,-378 266.37,-354.04 276.01,-315.88 282.75,-296.56"/>
<polygon fill="#9a32cd" stroke="#9a32cd" points="342.13,-410.66 352.49,-408.45 343.01,-403.72 342.13,-410.66"/>
<text text-anchor="middle" x="364.5" y="-365.2" font-family="Source Sans Pro" font-size="16.00"> applicationVersion</text>
<text text-anchor="middle" x="364.5" y="-347.2" font-family="Source Sans Pro" font-size="16.00">desiredVulkanVersion</text>
<text text-anchor="middle" x="364.5" y="-329.2" font-family="Source Sans Pro" font-size="16.00">minimumVulkanVersion</text>
</g>
<!-- Node11 -->
<g id="node11" class="node">
<title>Node11</title>
<g id="a_node11"><a xlink:href="class_i_e_a_p_i.html" target="_top" xlink:title=" ">
<polygon fill="white" stroke="black" points="395.5,-270.5 395.5,-296.5 447.5,-296.5 447.5,-270.5 395.5,-270.5"/>
<text text-anchor="middle" x="421.5" y="-279.7" font-family="Source Sans Pro" font-size="16.00">IEAPI</text>
</a>
</g>
</g>
<!-- Node10&#45;&gt;Node11 -->
<g id="edge12" class="edge">
<title>Node10&#45;&gt;Node11</title>
<path fill="none" stroke="#9a32cd" stroke-dasharray="5,2" d="M436.94,-390.67C441.52,-387.13 445.57,-382.94 448.5,-378 460.76,-357.37 455.59,-346.93 448.5,-324 445.36,-313.84 438.61,-303.97 432.64,-296.63"/>
<polygon fill="#9a32cd" stroke="#9a32cd" points="434.68,-387.96 428.23,-396.36 438.51,-393.82 434.68,-387.96"/>
<text text-anchor="middle" x="483" y="-347.2" font-family="Source Sans Pro" font-size="16.00"> version</text>
</g>
<!-- Node11&#45;&gt;Node6 -->
<g id="edge11" class="edge">
<title>Node11&#45;&gt;Node6</title>
<path fill="none" stroke="#9a32cd" stroke-dasharray="5,2" d="M421.5,-260.11C421.5,-240.69 421.5,-213.31 421.5,-197.69"/>
<polygon fill="#9a32cd" stroke="#9a32cd" points="418,-260.21 421.5,-270.21 425,-260.21 418,-260.21"/>
<text text-anchor="middle" x="434.5" y="-230.2" font-family="Source Sans Pro" font-size="16.00"> API</text>
</g>
<!-- Node12 -->
<g id="node12" class="node">
<title>Node12</title>
<g id="a_node12"><a xlink:href="struct_i_e_render_engine_1_1_extension_and_feature_info.html" target="_top" xlink:title=" ">
<polygon fill="white" stroke="black" points="465.5,-261.5 465.5,-305.5 663.5,-305.5 663.5,-261.5 465.5,-261.5"/>
<text text-anchor="start" x="473.5" y="-288.7" font-family="Source Sans Pro" font-size="16.00">IERenderEngine::Extension</text>
<text text-anchor="middle" x="564.5" y="-270.7" font-family="Source Sans Pro" font-size="16.00">AndFeatureInfo</text>
</a>
</g>
</g>
<!-- Node12&#45;&gt;Node6 -->
<g id="edge13" class="edge">
<title>Node12&#45;&gt;Node6</title>
<path fill="none" stroke="#9a32cd" stroke-dasharray="5,2" d="M525.07,-255.75C497.05,-236.75 460.75,-212.12 439.4,-197.64"/>
<polygon fill="#9a32cd" stroke="#9a32cd" points="523.23,-258.74 533.47,-261.45 527.16,-252.94 523.23,-258.74"/>
<text text-anchor="middle" x="593" y="-230.2" font-family="Source Sans Pro" font-size="16.00"> extensionAndFeatureInfo</text>
</g>
<!-- Node13 -->
<g id="node13" class="node">
<title>Node13</title>
<g id="a_node13"><a xlink:href="struct_i_e_uniform_buffer_object.html" target="_top" xlink:title=" ">
<polygon fill="white" stroke="black" points="661.5,-81.5 661.5,-107.5 831.5,-107.5 831.5,-81.5 661.5,-81.5"/>
<text text-anchor="middle" x="746.5" y="-90.7" font-family="Source Sans Pro" font-size="16.00">IEUniformBufferObject</text>
</a>
</g>
</g>
<!-- Node13&#45;&gt;Node1 -->
<g id="edge15" class="edge">
<title>Node13&#45;&gt;Node1</title>
<path fill="none" stroke="#9a32cd" stroke-dasharray="5,2" d="M675.72,-79.38C597.82,-63.84 474.34,-39.21 404.08,-25.19"/>
<polygon fill="#9a32cd" stroke="#9a32cd" points="675.43,-82.89 685.93,-81.42 676.8,-76.03 675.43,-82.89"/>
<text text-anchor="middle" x="655" y="-50.2" font-family="Source Sans Pro" font-size="16.00"> uniformBufferObject</text>
</g>
</g>
</svg>
