<?xml version="1.0" encoding="UTF-8" standalone="no"?>
<!DOCTYPE svg PUBLIC "-//W3C//DTD SVG 1.1//EN"
 "http://www.w3.org/Graphics/SVG/1.1/DTD/svg11.dtd">
<!-- Generated by graphviz version 2.43.0 (0)
 -->
<!-- Title: OpenGLCamera Pages: 1 -->
<svg width="251pt" height="197pt"
 viewBox="0.00 0.00 250.50 197.00" xmlns="http://www.w3.org/2000/svg" xmlns:xlink="http://www.w3.org/1999/xlink">
<g id="graph0" class="graph" transform="scale(1 1) rotate(0) translate(4 193)">
<title>OpenGLCamera</title>
<polygon fill="white" stroke="transparent" points="-4,4 -4,-193 246.5,-193 246.5,4 -4,4"/>
<!-- Node1 -->
<g id="node1" class="node">
<title>Node1</title>
<g id="a_node1"><a xlink:title=" ">
<polygon fill="#bfbfbf" stroke="black" points="41,-0.5 41,-26.5 164,-26.5 164,-0.5 41,-0.5"/>
<text text-anchor="middle" x="102.5" y="-9.7" font-family="Source Sans Pro" font-size="16.00">OpenGLCamera</text>
</a>
</g>
</g>
<!-- Node2 -->
<g id="node2" class="node">
<title>Node2</title>
<g id="a_node2"><a xlink:href="class_open_g_l_graphics_engine_link.html" target="_top" xlink:title=" ">
<polygon fill="white" stroke="black" points="0,-81.5 0,-107.5 205,-107.5 205,-81.5 0,-81.5"/>
<text text-anchor="middle" x="102.5" y="-90.7" font-family="Source Sans Pro" font-size="16.00">OpenGLGraphicsEngineLink</text>
</a>
</g>
</g>
<!-- Node2&#45;&gt;Node1 -->
<g id="edge1" class="edge">
<title>Node2&#45;&gt;Node1</title>
<path fill="none" stroke="#9a32cd" stroke-dasharray="5,2" d="M102.5,-71.05C102.5,-56.67 102.5,-38.55 102.5,-26.76"/>
<polygon fill="#9a32cd" stroke="#9a32cd" points="99,-71.16 102.5,-81.16 106,-71.16 99,-71.16"/>
<text text-anchor="middle" x="172.5" y="-50.2" font-family="Source Sans Pro" font-size="16.00"> linkedRenderEngine</text>
</g>
<!-- Node3 -->
<g id="node3" class="node">
<title>Node3</title>
<g id="a_node3"><a xlink:href="class_open_g_l_settings.html" target="_top" xlink:title=" ">
<polygon fill="white" stroke="black" points="40,-162.5 40,-188.5 165,-188.5 165,-162.5 40,-162.5"/>
<text text-anchor="middle" x="102.5" y="-171.7" font-family="Source Sans Pro" font-size="16.00">OpenGLSettings</text>
</a>
</g>
</g>
<!-- Node3&#45;&gt;Node2 -->
<g id="edge2" class="edge">
<title>Node3&#45;&gt;Node2</title>
<path fill="none" stroke="#9a32cd" stroke-dasharray="5,2" d="M102.5,-152.05C102.5,-137.67 102.5,-119.55 102.5,-107.76"/>
<polygon fill="#9a32cd" stroke="#9a32cd" points="99,-152.16 102.5,-162.16 106,-152.16 99,-152.16"/>
<text text-anchor="middle" x="130.5" y="-131.2" font-family="Source Sans Pro" font-size="16.00"> settings</text>
</g>
</g>
</svg>
