<?xml version="1.0" encoding="UTF-8" standalone="no"?>
<!DOCTYPE svg PUBLIC "-//W3C//DTD SVG 1.1//EN"
 "http://www.w3.org/Graphics/SVG/1.1/DTD/svg11.dtd">
<!-- Generated by graphviz version 2.43.0 (0)
 -->
<!-- Title: IERenderPass Pages: 1 -->
<svg width="548pt" height="134pt"
 viewBox="0.00 0.00 548.00 134.00" xmlns="http://www.w3.org/2000/svg" xmlns:xlink="http://www.w3.org/1999/xlink">
<g id="graph0" class="graph" transform="scale(1 1) rotate(0) translate(4 130)">
<title>IERenderPass</title>
<polygon fill="white" stroke="transparent" points="-4,4 -4,-130 544,-130 544,4 -4,4"/>
<!-- Node1 -->
<g id="node1" class="node">
<title>Node1</title>
<g id="a_node1"><a xlink:title=" ">
<polygon fill="#bfbfbf" stroke="black" points="181.5,-0.5 181.5,-26.5 289.5,-26.5 289.5,-0.5 181.5,-0.5"/>
<text text-anchor="middle" x="235.5" y="-9.7" font-family="Source Sans Pro" font-size="16.00">IERenderPass</text>
</a>
</g>
</g>
<!-- Node2 -->
<g id="node2" class="node">
<title>Node2</title>
<g id="a_node2"><a xlink:href="class_i_e_dependency.html" target="_top" xlink:title=" ">
<polygon fill="white" stroke="black" points="0,-90.5 0,-116.5 115,-116.5 115,-90.5 0,-90.5"/>
<text text-anchor="middle" x="57.5" y="-99.7" font-family="Source Sans Pro" font-size="16.00">IEDependency</text>
</a>
</g>
</g>
<!-- Node2&#45;&gt;Node1 -->
<g id="edge1" class="edge">
<title>Node2&#45;&gt;Node1</title>
<path fill="none" stroke="midnightblue" d="M91.21,-85.83C126.2,-68.54 180.07,-41.91 211.13,-26.55"/>
<polygon fill="midnightblue" stroke="midnightblue" points="89.29,-82.88 81.88,-90.45 92.39,-89.15 89.29,-82.88"/>
</g>
<!-- Node3 -->
<g id="node3" class="node">
<title>Node3</title>
<g id="a_node3"><a xlink:title=" ">
<polygon fill="white" stroke="black" points="133.5,-81.5 133.5,-125.5 337.5,-125.5 337.5,-81.5 133.5,-81.5"/>
<text text-anchor="start" x="141.5" y="-108.7" font-family="Source Sans Pro" font-size="16.00">std::enable_shared</text>
<text text-anchor="middle" x="235.5" y="-90.7" font-family="Source Sans Pro" font-size="16.00">_from_this&lt; IERenderPass &gt;</text>
</a>
</g>
</g>
<!-- Node3&#45;&gt;Node1 -->
<g id="edge2" class="edge">
<title>Node3&#45;&gt;Node1</title>
<path fill="none" stroke="midnightblue" d="M235.5,-71.02C235.5,-55.67 235.5,-38.09 235.5,-26.67"/>
<polygon fill="midnightblue" stroke="midnightblue" points="232,-71.2 235.5,-81.2 239,-71.2 232,-71.2"/>
</g>
<!-- Node4 -->
<g id="node4" class="node">
<title>Node4</title>
<g id="a_node4"><a xlink:href="struct_i_e_render_pass_1_1_create_info.html" target="_top" xlink:title=" ">
<polygon fill="white" stroke="black" points="355,-90.5 355,-116.5 540,-116.5 540,-90.5 355,-90.5"/>
<text text-anchor="middle" x="447.5" y="-99.7" font-family="Source Sans Pro" font-size="16.00">IERenderPass::CreateInfo</text>
</a>
</g>
</g>
<!-- Node4&#45;&gt;Node1 -->
<g id="edge3" class="edge">
<title>Node4&#45;&gt;Node1</title>
<path fill="none" stroke="#9a32cd" stroke-dasharray="5,2" d="M409.21,-86.6C367.6,-69.34 302.07,-42.13 264.52,-26.55"/>
<polygon fill="#9a32cd" stroke="#9a32cd" points="407.89,-89.85 418.47,-90.45 410.57,-83.38 407.89,-89.85"/>
<text text-anchor="middle" x="391" y="-50.2" font-family="Source Sans Pro" font-size="16.00"> createdWith</text>
</g>
</g>
</svg>
