<?xml version="1.0" encoding="UTF-8" standalone="no"?>
<!DOCTYPE svg PUBLIC "-//W3C//DTD SVG 1.1//EN"
 "http://www.w3.org/Graphics/SVG/1.1/DTD/svg11.dtd">
<!-- Generated by graphviz version 2.43.0 (0)
 -->
<!-- Title: VulkanAccelerationStructure Pages: 1 -->
<svg width="504pt" height="297pt"
 viewBox="0.00 0.00 503.50 297.00" xmlns="http://www.w3.org/2000/svg" xmlns:xlink="http://www.w3.org/1999/xlink">
<g id="graph0" class="graph" transform="scale(1 1) rotate(0) translate(4 293)">
<title>VulkanAccelerationStructure</title>
<polygon fill="white" stroke="transparent" points="-4,4 -4,-293 499.5,-293 499.5,4 -4,4"/>
<!-- Node1 -->
<g id="node1" class="node">
<title>Node1</title>
<g id="a_node1"><a xlink:title=" ">
<polygon fill="#bfbfbf" stroke="black" points="41,-0.5 41,-26.5 248,-26.5 248,-0.5 41,-0.5"/>
<text text-anchor="middle" x="144.5" y="-9.7" font-family="Source Sans Pro" font-size="16.00">VulkanAccelerationStructure</text>
</a>
</g>
</g>
<!-- Node2 -->
<g id="node2" class="node">
<title>Node2</title>
<g id="a_node2"><a xlink:href="class_vulkan_buffer.html" target="_top" xlink:title=" ">
<polygon fill="white" stroke="black" points="93,-64.5 93,-90.5 196,-90.5 196,-64.5 93,-64.5"/>
<text text-anchor="middle" x="144.5" y="-73.7" font-family="Source Sans Pro" font-size="16.00">VulkanBuffer</text>
</a>
</g>
</g>
<!-- Node2&#45;&gt;Node1 -->
<g id="edge1" class="edge">
<title>Node2&#45;&gt;Node1</title>
<path fill="none" stroke="midnightblue" d="M144.5,-54.13C144.5,-44.89 144.5,-34.53 144.5,-26.72"/>
<polygon fill="midnightblue" stroke="midnightblue" points="141,-54.25 144.5,-64.25 148,-54.25 141,-54.25"/>
</g>
<!-- Node3 -->
<g id="node3" class="node">
<title>Node3</title>
<g id="a_node3"><a xlink:href="struct_vulkan_buffer_1_1_create_info.html" target="_top" xlink:title=" ">
<polygon fill="white" stroke="black" points="0,-145.5 0,-171.5 181,-171.5 181,-145.5 0,-145.5"/>
<text text-anchor="middle" x="90.5" y="-154.7" font-family="Source Sans Pro" font-size="16.00">VulkanBuffer::CreateInfo</text>
</a>
</g>
</g>
<!-- Node3&#45;&gt;Node2 -->
<g id="edge2" class="edge">
<title>Node3&#45;&gt;Node2</title>
<path fill="none" stroke="#9a32cd" stroke-dasharray="5,2" d="M104.7,-136.73C114.7,-122.1 127.74,-103.02 136.12,-90.76"/>
<polygon fill="#9a32cd" stroke="#9a32cd" points="101.69,-134.93 98.94,-145.16 107.47,-138.88 101.69,-134.93"/>
<text text-anchor="middle" x="165" y="-114.2" font-family="Source Sans Pro" font-size="16.00"> createdWith</text>
</g>
<!-- Node4 -->
<g id="node4" class="node">
<title>Node4</title>
<g id="a_node4"><a xlink:href="class_vulkan_graphics_engine_link.html" target="_top" xlink:title=" ">
<polygon fill="white" stroke="black" points="199.5,-145.5 199.5,-171.5 395.5,-171.5 395.5,-145.5 199.5,-145.5"/>
<text text-anchor="middle" x="297.5" y="-154.7" font-family="Source Sans Pro" font-size="16.00">VulkanGraphicsEngineLink</text>
</a>
</g>
</g>
<!-- Node4&#45;&gt;Node2 -->
<g id="edge3" class="edge">
<title>Node4&#45;&gt;Node2</title>
<path fill="none" stroke="#9a32cd" stroke-dasharray="5,2" d="M268.61,-140.38C252.08,-130.8 230.84,-118.83 211.5,-109 198.85,-102.57 184.58,-95.98 172.46,-90.58"/>
<polygon fill="#9a32cd" stroke="#9a32cd" points="266.86,-143.42 277.27,-145.43 270.39,-137.37 266.86,-143.42"/>
<text text-anchor="middle" x="314.5" y="-114.2" font-family="Source Sans Pro" font-size="16.00"> linkedRenderEngine</text>
</g>
<!-- Node5 -->
<g id="node5" class="node">
<title>Node5</title>
<g id="a_node5"><a xlink:href="struct_vulkan_graphics_engine_link_1_1_physical_device_info.html" target="_top" xlink:title=" ">
<polygon fill="white" stroke="black" points="199.5,-244.5 199.5,-288.5 395.5,-288.5 395.5,-244.5 199.5,-244.5"/>
<text text-anchor="start" x="207.5" y="-271.7" font-family="Source Sans Pro" font-size="16.00">VulkanGraphicsEngineLink</text>
<text text-anchor="middle" x="297.5" y="-253.7" font-family="Source Sans Pro" font-size="16.00">::PhysicalDeviceInfo</text>
</a>
</g>
</g>
<!-- Node5&#45;&gt;Node4 -->
<g id="edge4" class="edge">
<title>Node5&#45;&gt;Node4</title>
<path fill="none" stroke="#9a32cd" stroke-dasharray="5,2" d="M297.5,-234.24C297.5,-213.31 297.5,-186.9 297.5,-171.73"/>
<polygon fill="#9a32cd" stroke="#9a32cd" points="294,-234.3 297.5,-244.3 301,-234.3 294,-234.3"/>
<text text-anchor="middle" x="396.5" y="-213.2" font-family="Source Sans Pro" font-size="16.00"> enabledPhysicalDeviceInfo</text>
<text text-anchor="middle" x="396.5" y="-195.2" font-family="Source Sans Pro" font-size="16.00">supportedPhysicalDeviceInfo</text>
</g>
</g>
</svg>
