<?xml version="1.0" encoding="UTF-8" standalone="no"?>
<!DOCTYPE svg PUBLIC "-//W3C//DTD SVG 1.1//EN"
 "http://www.w3.org/Graphics/SVG/1.1/DTD/svg11.dtd">
<!-- Generated by graphviz version 2.43.0 (0)
 -->
<!-- Title: IERenderEngine Pages: 1 -->
<svg width="520pt" height="332pt"
 viewBox="0.00 0.00 520.00 332.00" xmlns="http://www.w3.org/2000/svg" xmlns:xlink="http://www.w3.org/1999/xlink">
<g id="graph0" class="graph" transform="scale(1 1) rotate(0) translate(4 328)">
<title>IERenderEngine</title>
<polygon fill="white" stroke="transparent" points="-4,4 -4,-328 516,-328 516,4 -4,4"/>
<!-- Node1 -->
<g id="node1" class="node">
<title>Node1</title>
<g id="a_node1"><a xlink:title=" ">
<polygon fill="#bfbfbf" stroke="black" points="201.5,-81.5 201.5,-107.5 326.5,-107.5 326.5,-81.5 201.5,-81.5"/>
<text text-anchor="middle" x="264" y="-90.7" font-family="Source Sans Pro" font-size="16.00">IERenderEngine</text>
</a>
</g>
</g>
<!-- Node2 -->
<g id="node2" class="node">
<title>Node2</title>
<g id="a_node2"><a xlink:href="class_i_e_camera.html" target="_top" xlink:title=" ">
<polygon fill="white" stroke="black" points="223,-0.5 223,-26.5 305,-26.5 305,-0.5 223,-0.5"/>
<text text-anchor="middle" x="264" y="-9.7" font-family="Source Sans Pro" font-size="16.00">IECamera</text>
</a>
</g>
</g>
<!-- Node1&#45;&gt;Node2 -->
<g id="edge2" class="edge">
<title>Node1&#45;&gt;Node2</title>
<path fill="none" stroke="#9a32cd" stroke-dasharray="5,2" d="M193.88,-76.38C188.51,-72.74 183.74,-68.34 180,-63 165.89,-42.87 195.2,-29.92 222.99,-22.52"/>
<polygon fill="#9a32cd" stroke="#9a32cd" points="192.33,-79.53 202.74,-81.49 195.83,-73.46 192.33,-79.53"/>
<text text-anchor="middle" x="250" y="-50.2" font-family="Source Sans Pro" font-size="16.00"> linkedRenderEngine</text>
</g>
<!-- Node2&#45;&gt;Node1 -->
<g id="edge1" class="edge">
<title>Node2&#45;&gt;Node1</title>
<path fill="none" stroke="#9a32cd" stroke-dasharray="5,2" d="M311.74,-32.03C316.59,-35.61 320.87,-39.9 324,-45 328.18,-51.82 328.18,-56.18 324,-63 319.11,-70.97 311.42,-76.93 303.15,-81.37"/>
<polygon fill="#9a32cd" stroke="#9a32cd" points="313.48,-28.99 303.15,-26.63 309.76,-34.91 313.48,-28.99"/>
<text text-anchor="middle" x="354.5" y="-50.2" font-family="Source Sans Pro" font-size="16.00"> camera</text>
</g>
<!-- Node3 -->
<g id="node3" class="node">
<title>Node3</title>
<g id="a_node3"><a xlink:href="class_i_e_settings.html" target="_top" xlink:title=" ">
<polygon fill="white" stroke="black" points="88.5,-171.5 88.5,-197.5 171.5,-197.5 171.5,-171.5 88.5,-171.5"/>
<text text-anchor="middle" x="130" y="-180.7" font-family="Source Sans Pro" font-size="16.00">IESettings</text>
</a>
</g>
</g>
<!-- Node3&#45;&gt;Node1 -->
<g id="edge3" class="edge">
<title>Node3&#45;&gt;Node1</title>
<path fill="none" stroke="#9a32cd" stroke-dasharray="5,2" d="M151.67,-164.88C166.01,-153.02 185.51,-137.73 204,-126 214.66,-119.24 227,-112.75 237.71,-107.52"/>
<polygon fill="#9a32cd" stroke="#9a32cd" points="149.29,-162.31 143.87,-171.42 153.78,-167.68 149.29,-162.31"/>
<text text-anchor="middle" x="232" y="-131.2" font-family="Source Sans Pro" font-size="16.00"> settings</text>
</g>
<!-- Node4 -->
<g id="node4" class="node">
<title>Node4</title>
<g id="a_node4"><a xlink:href="class_i_e_1_1_core_1_1_logger.html" target="_top" xlink:title=" ">
<polygon fill="white" stroke="black" points="0,-297.5 0,-323.5 122,-323.5 122,-297.5 0,-297.5"/>
<text text-anchor="middle" x="61" y="-306.7" font-family="Source Sans Pro" font-size="16.00">IE::Core::Logger</text>
</a>
</g>
</g>
<!-- Node4&#45;&gt;Node3 -->
<g id="edge4" class="edge">
<title>Node4&#45;&gt;Node3</title>
<path fill="none" stroke="#9a32cd" stroke-dasharray="5,2" d="M55.6,-287.43C52.45,-269.39 50.99,-243.87 62,-225 69.22,-212.62 81.96,-203.75 94.48,-197.59"/>
<polygon fill="#9a32cd" stroke="#9a32cd" points="52.19,-288.23 57.62,-297.32 59.05,-286.82 52.19,-288.23"/>
<text text-anchor="middle" x="85" y="-248.2" font-family="Source Sans Pro" font-size="16.00"> logger</text>
</g>
<!-- Node5 -->
<g id="node5" class="node">
<title>Node5</title>
<g id="a_node5"><a xlink:href="struct_i_e_version.html" target="_top" xlink:title=" ">
<polygon fill="white" stroke="black" points="206,-297.5 206,-323.5 286,-323.5 286,-297.5 206,-297.5"/>
<text text-anchor="middle" x="246" y="-306.7" font-family="Source Sans Pro" font-size="16.00">IEVersion</text>
</a>
</g>
</g>
<!-- Node5&#45;&gt;Node3 -->
<g id="edge5" class="edge">
<title>Node5&#45;&gt;Node3</title>
<path fill="none" stroke="#9a32cd" stroke-dasharray="5,2" d="M195.9,-302.89C167.4,-297.98 135.68,-290.19 127,-279 108.58,-255.26 118.35,-217 125.19,-197.61"/>
<polygon fill="#9a32cd" stroke="#9a32cd" points="195.37,-306.35 205.81,-304.5 196.5,-299.44 195.37,-306.35"/>
<text text-anchor="middle" x="207" y="-266.2" font-family="Source Sans Pro" font-size="16.00"> applicationVersion</text>
<text text-anchor="middle" x="207" y="-248.2" font-family="Source Sans Pro" font-size="16.00">desiredVulkanVersion</text>
<text text-anchor="middle" x="207" y="-230.2" font-family="Source Sans Pro" font-size="16.00">minimumVulkanVersion</text>
</g>
<!-- Node6 -->
<g id="node6" class="node">
<title>Node6</title>
<g id="a_node6"><a xlink:href="class_i_e_a_p_i.html" target="_top" xlink:title=" ">
<polygon fill="white" stroke="black" points="238,-171.5 238,-197.5 290,-197.5 290,-171.5 238,-171.5"/>
<text text-anchor="middle" x="264" y="-180.7" font-family="Source Sans Pro" font-size="16.00">IEAPI</text>
</a>
</g>
</g>
<!-- Node5&#45;&gt;Node6 -->
<g id="edge7" class="edge">
<title>Node5&#45;&gt;Node6</title>
<path fill="none" stroke="#9a32cd" stroke-dasharray="5,2" d="M280.93,-291.3C284.97,-287.76 288.52,-283.67 291,-279 302.24,-257.8 298.09,-247.93 291,-225 287.86,-214.84 281.11,-204.97 275.14,-197.63"/>
<polygon fill="#9a32cd" stroke="#9a32cd" points="278.65,-288.64 272.73,-297.43 282.84,-294.25 278.65,-288.64"/>
<text text-anchor="middle" x="323.5" y="-248.2" font-family="Source Sans Pro" font-size="16.00"> version</text>
</g>
<!-- Node6&#45;&gt;Node1 -->
<g id="edge6" class="edge">
<title>Node6&#45;&gt;Node1</title>
<path fill="none" stroke="#9a32cd" stroke-dasharray="5,2" d="M264,-161.07C264,-144.08 264,-121.38 264,-107.63"/>
<polygon fill="#9a32cd" stroke="#9a32cd" points="260.5,-161.26 264,-171.26 267.5,-161.26 260.5,-161.26"/>
<text text-anchor="middle" x="277" y="-131.2" font-family="Source Sans Pro" font-size="16.00"> API</text>
</g>
<!-- Node7 -->
<g id="node7" class="node">
<title>Node7</title>
<g id="a_node7"><a xlink:href="struct_i_e_render_engine_1_1_extension_and_feature_info.html" target="_top" xlink:title=" ">
<polygon fill="white" stroke="black" points="308,-162.5 308,-206.5 506,-206.5 506,-162.5 308,-162.5"/>
<text text-anchor="start" x="316" y="-189.7" font-family="Source Sans Pro" font-size="16.00">IERenderEngine::Extension</text>
<text text-anchor="middle" x="407" y="-171.7" font-family="Source Sans Pro" font-size="16.00">AndFeatureInfo</text>
</a>
</g>
</g>
<!-- Node7&#45;&gt;Node1 -->
<g id="edge8" class="edge">
<title>Node7&#45;&gt;Node1</title>
<path fill="none" stroke="#9a32cd" stroke-dasharray="5,2" d="M363.99,-157.03C337.39,-140.66 304.5,-120.42 283.87,-107.73"/>
<polygon fill="#9a32cd" stroke="#9a32cd" points="362.4,-160.16 372.75,-162.42 366.07,-154.2 362.4,-160.16"/>
<text text-anchor="middle" x="425.5" y="-131.2" font-family="Source Sans Pro" font-size="16.00"> extensionAndFeatureInfo</text>
</g>
</g>
</svg>
