<?xml version="1.0" encoding="UTF-8" standalone="no"?>
<!DOCTYPE svg PUBLIC "-//W3C//DTD SVG 1.1//EN"
 "http://www.w3.org/Graphics/SVG/1.1/DTD/svg11.dtd">
<!-- Generated by graphviz version 2.43.0 (0)
 -->
<!-- Title: IECamera Pages: 1 -->
<svg width="573pt" height="251pt"
 viewBox="0.00 0.00 572.52 251.00" xmlns="http://www.w3.org/2000/svg" xmlns:xlink="http://www.w3.org/1999/xlink">
<g id="graph0" class="graph" transform="scale(1 1) rotate(0) translate(4 247)">
<title>IECamera</title>
<polygon fill="white" stroke="transparent" points="-4,4 -4,-247 568.52,-247 568.52,4 -4,4"/>
<!-- Node1 -->
<g id="node1" class="node">
<title>Node1</title>
<g id="a_node1"><a xlink:title=" ">
<polygon fill="#bfbfbf" stroke="black" points="0.52,-90.5 0.52,-116.5 82.52,-116.5 82.52,-90.5 0.52,-90.5"/>
<text text-anchor="middle" x="41.52" y="-99.7" font-family="Source Sans Pro" font-size="16.00">IECamera</text>
</a>
</g>
</g>
<!-- Node2 -->
<g id="node2" class="node">
<title>Node2</title>
<g id="a_node2"><a xlink:href="class_i_e_render_engine.html" target="_top" xlink:title=" ">
<polygon fill="white" stroke="black" points="181.02,-0.5 181.02,-26.5 306.02,-26.5 306.02,-0.5 181.02,-0.5"/>
<text text-anchor="middle" x="243.52" y="-9.7" font-family="Source Sans Pro" font-size="16.00">IERenderEngine</text>
</a>
</g>
</g>
<!-- Node1&#45;&gt;Node2 -->
<g id="edge2" class="edge">
<title>Node1&#45;&gt;Node2</title>
<path fill="none" stroke="#9a32cd" stroke-dasharray="5,2" d="M16.73,-83.51C4.4,-71.79 -5.88,-56.8 4.52,-45 16.04,-31.91 113.95,-22.93 180.83,-18.26"/>
<polygon fill="#9a32cd" stroke="#9a32cd" points="14.68,-86.37 24.51,-90.32 19.3,-81.1 14.68,-86.37"/>
<text text-anchor="middle" x="32.02" y="-50.2" font-family="Source Sans Pro" font-size="16.00"> camera</text>
</g>
<!-- Node2&#45;&gt;Node1 -->
<g id="edge1" class="edge">
<title>Node2&#45;&gt;Node1</title>
<path fill="none" stroke="#9a32cd" stroke-dasharray="5,2" d="M170.78,-22.57C134.64,-27.67 95.54,-35.16 80.52,-45 63.77,-55.97 52.34,-76.89 46.38,-90.24"/>
<polygon fill="#9a32cd" stroke="#9a32cd" points="171.43,-26.01 180.87,-21.2 170.49,-19.08 171.43,-26.01"/>
<text text-anchor="middle" x="150.52" y="-50.2" font-family="Source Sans Pro" font-size="16.00"> linkedRenderEngine</text>
</g>
<!-- Node3 -->
<g id="node3" class="node">
<title>Node3</title>
<g id="a_node3"><a xlink:href="class_i_e_settings.html" target="_top" xlink:title=" ">
<polygon fill="white" stroke="black" points="168.02,-90.5 168.02,-116.5 251.02,-116.5 251.02,-90.5 168.02,-90.5"/>
<text text-anchor="middle" x="209.52" y="-99.7" font-family="Source Sans Pro" font-size="16.00">IESettings</text>
</a>
</g>
</g>
<!-- Node3&#45;&gt;Node2 -->
<g id="edge3" class="edge">
<title>Node3&#45;&gt;Node2</title>
<path fill="none" stroke="#9a32cd" stroke-dasharray="5,2" d="M217.99,-80.56C224.58,-63.51 233.47,-40.51 238.83,-26.63"/>
<polygon fill="#9a32cd" stroke="#9a32cd" points="214.58,-79.67 214.24,-90.26 221.11,-82.2 214.58,-79.67"/>
<text text-anchor="middle" x="259.52" y="-50.2" font-family="Source Sans Pro" font-size="16.00"> settings</text>
</g>
<!-- Node4 -->
<g id="node4" class="node">
<title>Node4</title>
<g id="a_node4"><a xlink:href="class_i_e_1_1_core_1_1_logger.html" target="_top" xlink:title=" ">
<polygon fill="white" stroke="black" points="79.52,-216.5 79.52,-242.5 201.52,-242.5 201.52,-216.5 79.52,-216.5"/>
<text text-anchor="middle" x="140.52" y="-225.7" font-family="Source Sans Pro" font-size="16.00">IE::Core::Logger</text>
</a>
</g>
</g>
<!-- Node4&#45;&gt;Node3 -->
<g id="edge4" class="edge">
<title>Node4&#45;&gt;Node3</title>
<path fill="none" stroke="#9a32cd" stroke-dasharray="5,2" d="M135.12,-206.43C131.97,-188.39 130.5,-162.87 141.52,-144 148.74,-131.62 161.48,-122.75 173.99,-116.59"/>
<polygon fill="#9a32cd" stroke="#9a32cd" points="131.71,-207.23 137.14,-216.32 138.57,-205.82 131.71,-207.23"/>
<text text-anchor="middle" x="164.52" y="-167.2" font-family="Source Sans Pro" font-size="16.00"> logger</text>
</g>
<!-- Node5 -->
<g id="node5" class="node">
<title>Node5</title>
<g id="a_node5"><a xlink:href="struct_i_e_version.html" target="_top" xlink:title=" ">
<polygon fill="white" stroke="black" points="285.52,-216.5 285.52,-242.5 365.52,-242.5 365.52,-216.5 285.52,-216.5"/>
<text text-anchor="middle" x="325.52" y="-225.7" font-family="Source Sans Pro" font-size="16.00">IEVersion</text>
</a>
</g>
</g>
<!-- Node5&#45;&gt;Node3 -->
<g id="edge5" class="edge">
<title>Node5&#45;&gt;Node3</title>
<path fill="none" stroke="#9a32cd" stroke-dasharray="5,2" d="M275.42,-221.89C246.91,-216.98 215.2,-209.19 206.52,-198 188.1,-174.26 197.87,-136 204.7,-116.61"/>
<polygon fill="#9a32cd" stroke="#9a32cd" points="274.89,-225.35 285.32,-223.5 276.02,-218.44 274.89,-225.35"/>
<text text-anchor="middle" x="286.52" y="-185.2" font-family="Source Sans Pro" font-size="16.00"> applicationVersion</text>
<text text-anchor="middle" x="286.52" y="-167.2" font-family="Source Sans Pro" font-size="16.00">desiredVulkanVersion</text>
<text text-anchor="middle" x="286.52" y="-149.2" font-family="Source Sans Pro" font-size="16.00">minimumVulkanVersion</text>
</g>
<!-- Node6 -->
<g id="node6" class="node">
<title>Node6</title>
<g id="a_node6"><a xlink:href="class_i_e_a_p_i.html" target="_top" xlink:title=" ">
<polygon fill="white" stroke="black" points="296.52,-90.5 296.52,-116.5 348.52,-116.5 348.52,-90.5 296.52,-90.5"/>
<text text-anchor="middle" x="322.52" y="-99.7" font-family="Source Sans Pro" font-size="16.00">IEAPI</text>
</a>
</g>
</g>
<!-- Node5&#45;&gt;Node6 -->
<g id="edge7" class="edge">
<title>Node5&#45;&gt;Node6</title>
<path fill="none" stroke="#9a32cd" stroke-dasharray="5,2" d="M360.45,-210.3C364.49,-206.76 368.04,-202.67 370.52,-198 381.76,-176.8 380.76,-165.7 370.52,-144 365.08,-132.48 354.46,-123.19 344.58,-116.52"/>
<polygon fill="#9a32cd" stroke="#9a32cd" points="358.16,-207.64 352.25,-216.43 362.36,-213.25 358.16,-207.64"/>
<text text-anchor="middle" x="405.02" y="-167.2" font-family="Source Sans Pro" font-size="16.00"> version</text>
</g>
<!-- Node6&#45;&gt;Node2 -->
<g id="edge6" class="edge">
<title>Node6&#45;&gt;Node2</title>
<path fill="none" stroke="#9a32cd" stroke-dasharray="5,2" d="M314.1,-80.97C308.83,-69.4 301.2,-55.4 291.52,-45 284.79,-37.77 275.99,-31.54 267.77,-26.62"/>
<polygon fill="#9a32cd" stroke="#9a32cd" points="310.96,-82.55 318.11,-90.38 317.4,-79.8 310.96,-82.55"/>
<text text-anchor="middle" x="316.52" y="-50.2" font-family="Source Sans Pro" font-size="16.00"> API</text>
</g>
<!-- Node7 -->
<g id="node7" class="node">
<title>Node7</title>
<g id="a_node7"><a xlink:href="struct_i_e_render_engine_1_1_extension_and_feature_info.html" target="_top" xlink:title=" ">
<polygon fill="white" stroke="black" points="366.52,-81.5 366.52,-125.5 564.52,-125.5 564.52,-81.5 366.52,-81.5"/>
<text text-anchor="start" x="374.52" y="-108.7" font-family="Source Sans Pro" font-size="16.00">IERenderEngine::Extension</text>
<text text-anchor="middle" x="465.52" y="-90.7" font-family="Source Sans Pro" font-size="16.00">AndFeatureInfo</text>
</a>
</g>
</g>
<!-- Node7&#45;&gt;Node2 -->
<g id="edge8" class="edge">
<title>Node7&#45;&gt;Node2</title>
<path fill="none" stroke="#9a32cd" stroke-dasharray="5,2" d="M410.65,-77.37C387.1,-66.9 359.14,-54.9 333.52,-45 316.59,-38.46 297.59,-31.91 281.43,-26.56"/>
<polygon fill="#9a32cd" stroke="#9a32cd" points="409.23,-80.57 419.79,-81.45 412.08,-74.18 409.23,-80.57"/>
<text text-anchor="middle" x="463.02" y="-50.2" font-family="Source Sans Pro" font-size="16.00"> extensionAndFeatureInfo</text>
</g>
</g>
</svg>
