<?xml version="1.0" encoding="UTF-8" standalone="no"?>
<!DOCTYPE svg PUBLIC "-//W3C//DTD SVG 1.1//EN"
 "http://www.w3.org/Graphics/SVG/1.1/DTD/svg11.dtd">
<!-- Generated by graphviz version 2.43.0 (0)
 -->
<!-- Title: VulkanDescriptorSet Pages: 1 -->
<svg width="169pt" height="134pt"
 viewBox="0.00 0.00 169.00 134.00" xmlns="http://www.w3.org/2000/svg" xmlns:xlink="http://www.w3.org/1999/xlink">
<g id="graph0" class="graph" transform="scale(1 1) rotate(0) translate(4 130)">
<title>VulkanDescriptorSet</title>
<polygon fill="white" stroke="transparent" points="-4,4 -4,-130 165,-130 165,4 -4,4"/>
<!-- Node1 -->
<g id="node1" class="node">
<title>Node1</title>
<g id="a_node1"><a xlink:title=" ">
<polygon fill="#bfbfbf" stroke="black" points="0,-0.5 0,-26.5 152,-26.5 152,-0.5 0,-0.5"/>
<text text-anchor="middle" x="76" y="-9.7" font-family="Source Sans Pro" font-size="16.00">VulkanDescriptorSet</text>
</a>
</g>
</g>
<!-- Node2 -->
<g id="node2" class="node">
<title>Node2</title>
<g id="a_node2"><a xlink:href="struct_vulkan_descriptor_set_1_1_create_info.html" target="_top" xlink:title=" ">
<polygon fill="white" stroke="black" points="0,-81.5 0,-125.5 152,-125.5 152,-81.5 0,-81.5"/>
<text text-anchor="start" x="8" y="-108.7" font-family="Source Sans Pro" font-size="16.00">VulkanDescriptorSet</text>
<text text-anchor="middle" x="76" y="-90.7" font-family="Source Sans Pro" font-size="16.00">::CreateInfo</text>
</a>
</g>
</g>
<!-- Node2&#45;&gt;Node1 -->
<g id="edge1" class="edge">
<title>Node2&#45;&gt;Node1</title>
<path fill="none" stroke="#9a32cd" stroke-dasharray="5,2" d="M76,-71.02C76,-55.67 76,-38.09 76,-26.67"/>
<polygon fill="#9a32cd" stroke="#9a32cd" points="72.5,-71.2 76,-81.2 79.5,-71.2 72.5,-71.2"/>
<text text-anchor="middle" x="118.5" y="-50.2" font-family="Source Sans Pro" font-size="16.00"> createdWith</text>
</g>
</g>
</svg>
