<?xml version="1.0" encoding="UTF-8" standalone="no"?>
<!DOCTYPE svg PUBLIC "-//W3C//DTD SVG 1.1//EN"
 "http://www.w3.org/Graphics/SVG/1.1/DTD/svg11.dtd">
<!-- Generated by graphviz version 2.43.0 (0)
 -->
<!-- Title: IEPipeline Pages: 1 -->
<svg width="855pt" height="332pt"
 viewBox="0.00 0.00 854.50 332.00" xmlns="http://www.w3.org/2000/svg" xmlns:xlink="http://www.w3.org/1999/xlink">
<g id="graph0" class="graph" transform="scale(1 1) rotate(0) translate(4 328)">
<title>IEPipeline</title>
<polygon fill="white" stroke="transparent" points="-4,4 -4,-328 850.5,-328 850.5,4 -4,4"/>
<!-- Node1 -->
<g id="node1" class="node">
<title>Node1</title>
<g id="a_node1"><a xlink:title=" ">
<polygon fill="#bfbfbf" stroke="black" points="224.5,-0.5 224.5,-26.5 308.5,-26.5 308.5,-0.5 224.5,-0.5"/>
<text text-anchor="middle" x="266.5" y="-9.7" font-family="Source Sans Pro" font-size="16.00">IEPipeline</text>
</a>
</g>
</g>
<!-- Node2 -->
<g id="node2" class="node">
<title>Node2</title>
<g id="a_node2"><a xlink:href="class_i_e_dependency.html" target="_top" xlink:title=" ">
<polygon fill="white" stroke="black" points="0,-81.5 0,-107.5 115,-107.5 115,-81.5 0,-81.5"/>
<text text-anchor="middle" x="57.5" y="-90.7" font-family="Source Sans Pro" font-size="16.00">IEDependency</text>
</a>
</g>
</g>
<!-- Node2&#45;&gt;Node1 -->
<g id="edge1" class="edge">
<title>Node2&#45;&gt;Node1</title>
<path fill="none" stroke="midnightblue" d="M99.14,-77.76C139.03,-62.68 198.35,-40.26 234.61,-26.55"/>
<polygon fill="midnightblue" stroke="midnightblue" points="97.81,-74.52 89.7,-81.33 100.29,-81.07 97.81,-74.52"/>
</g>
<!-- Node3 -->
<g id="node3" class="node">
<title>Node3</title>
<g id="a_node3"><a xlink:href="struct_i_e_pipeline_1_1_created.html" target="_top" xlink:title=" ">
<polygon fill="white" stroke="black" points="133,-81.5 133,-107.5 276,-107.5 276,-81.5 133,-81.5"/>
<text text-anchor="middle" x="204.5" y="-90.7" font-family="Source Sans Pro" font-size="16.00">IEPipeline::Created</text>
</a>
</g>
</g>
<!-- Node3&#45;&gt;Node1 -->
<g id="edge2" class="edge">
<title>Node3&#45;&gt;Node1</title>
<path fill="none" stroke="#9a32cd" stroke-dasharray="5,2" d="M220.48,-73.14C232,-58.46 247.17,-39.13 256.88,-26.76"/>
<polygon fill="#9a32cd" stroke="#9a32cd" points="217.61,-71.13 214.19,-81.16 223.11,-75.45 217.61,-71.13"/>
<text text-anchor="middle" x="268.5" y="-50.2" font-family="Source Sans Pro" font-size="16.00"> created</text>
</g>
<!-- Node4 -->
<g id="node4" class="node">
<title>Node4</title>
<g id="a_node4"><a xlink:href="struct_i_e_pipeline_1_1_create_info.html" target="_top" xlink:title=" ">
<polygon fill="white" stroke="black" points="294,-81.5 294,-107.5 455,-107.5 455,-81.5 294,-81.5"/>
<text text-anchor="middle" x="374.5" y="-90.7" font-family="Source Sans Pro" font-size="16.00">IEPipeline::CreateInfo</text>
</a>
</g>
</g>
<!-- Node4&#45;&gt;Node1 -->
<g id="edge3" class="edge">
<title>Node4&#45;&gt;Node1</title>
<path fill="none" stroke="#9a32cd" stroke-dasharray="5,2" d="M346.83,-75.66C340.73,-71.59 334.35,-67.22 328.5,-63 312.09,-51.17 293.93,-36.81 281.53,-26.8"/>
<polygon fill="#9a32cd" stroke="#9a32cd" points="345.2,-78.78 355.47,-81.36 349.05,-72.93 345.2,-78.78"/>
<text text-anchor="middle" x="371" y="-50.2" font-family="Source Sans Pro" font-size="16.00"> createdWith</text>
</g>
<!-- Node5 -->
<g id="node5" class="node">
<title>Node5</title>
<g id="a_node5"><a xlink:href="class_i_e_render_engine.html" target="_top" xlink:title=" ">
<polygon fill="white" stroke="black" points="536,-81.5 536,-107.5 661,-107.5 661,-81.5 536,-81.5"/>
<text text-anchor="middle" x="598.5" y="-90.7" font-family="Source Sans Pro" font-size="16.00">IERenderEngine</text>
</a>
</g>
</g>
<!-- Node5&#45;&gt;Node1 -->
<g id="edge4" class="edge">
<title>Node5&#45;&gt;Node1</title>
<path fill="none" stroke="#9a32cd" stroke-dasharray="5,2" d="M525.82,-83.19C500.59,-78.47 472.4,-71.9 447.5,-63 431.4,-57.25 429.59,-50.79 413.5,-45 379.17,-32.63 338.42,-24.67 308.55,-19.99"/>
<polygon fill="#9a32cd" stroke="#9a32cd" points="525.23,-86.64 535.69,-84.97 526.47,-79.75 525.23,-86.64"/>
<text text-anchor="middle" x="517.5" y="-50.2" font-family="Source Sans Pro" font-size="16.00"> linkedRenderEngine</text>
</g>
<!-- Node6 -->
<g id="node6" class="node">
<title>Node6</title>
<g id="a_node6"><a xlink:href="class_i_e_camera.html" target="_top" xlink:title=" ">
<polygon fill="white" stroke="black" points="638.5,-0.5 638.5,-26.5 720.5,-26.5 720.5,-0.5 638.5,-0.5"/>
<text text-anchor="middle" x="679.5" y="-9.7" font-family="Source Sans Pro" font-size="16.00">IECamera</text>
</a>
</g>
</g>
<!-- Node5&#45;&gt;Node6 -->
<g id="edge6" class="edge">
<title>Node5&#45;&gt;Node6</title>
<path fill="none" stroke="#9a32cd" stroke-dasharray="5,2" d="M591.46,-71.4C589.98,-62.49 590.21,-52.55 595.5,-45 605.29,-31.02 622.18,-23.43 638.26,-19.31"/>
<polygon fill="#9a32cd" stroke="#9a32cd" points="588.07,-72.26 593.77,-81.19 594.88,-70.65 588.07,-72.26"/>
<text text-anchor="middle" x="665.5" y="-50.2" font-family="Source Sans Pro" font-size="16.00"> linkedRenderEngine</text>
</g>
<!-- Node6&#45;&gt;Node5 -->
<g id="edge5" class="edge">
<title>Node6&#45;&gt;Node5</title>
<path fill="none" stroke="#9a32cd" stroke-dasharray="5,2" d="M721.95,-31.02C737.6,-39.57 749.36,-50.77 739.5,-63 729.4,-75.52 693.91,-83.16 661.07,-87.66"/>
<polygon fill="#9a32cd" stroke="#9a32cd" points="723.48,-27.87 712.97,-26.55 720.36,-34.14 723.48,-27.87"/>
<text text-anchor="middle" x="770" y="-50.2" font-family="Source Sans Pro" font-size="16.00"> camera</text>
</g>
<!-- Node7 -->
<g id="node7" class="node">
<title>Node7</title>
<g id="a_node7"><a xlink:href="class_i_e_settings.html" target="_top" xlink:title=" ">
<polygon fill="white" stroke="black" points="423,-171.5 423,-197.5 506,-197.5 506,-171.5 423,-171.5"/>
<text text-anchor="middle" x="464.5" y="-180.7" font-family="Source Sans Pro" font-size="16.00">IESettings</text>
</a>
</g>
</g>
<!-- Node7&#45;&gt;Node5 -->
<g id="edge7" class="edge">
<title>Node7&#45;&gt;Node5</title>
<path fill="none" stroke="#9a32cd" stroke-dasharray="5,2" d="M486.17,-164.88C500.51,-153.02 520.01,-137.73 538.5,-126 549.16,-119.24 561.5,-112.75 572.21,-107.52"/>
<polygon fill="#9a32cd" stroke="#9a32cd" points="483.79,-162.31 478.37,-171.42 488.28,-167.68 483.79,-162.31"/>
<text text-anchor="middle" x="566.5" y="-131.2" font-family="Source Sans Pro" font-size="16.00"> settings</text>
</g>
<!-- Node8 -->
<g id="node8" class="node">
<title>Node8</title>
<g id="a_node8"><a xlink:href="class_i_e_1_1_core_1_1_logger.html" target="_top" xlink:title=" ">
<polygon fill="white" stroke="black" points="334.5,-297.5 334.5,-323.5 456.5,-323.5 456.5,-297.5 334.5,-297.5"/>
<text text-anchor="middle" x="395.5" y="-306.7" font-family="Source Sans Pro" font-size="16.00">IE::Core::Logger</text>
</a>
</g>
</g>
<!-- Node8&#45;&gt;Node7 -->
<g id="edge8" class="edge">
<title>Node8&#45;&gt;Node7</title>
<path fill="none" stroke="#9a32cd" stroke-dasharray="5,2" d="M390.1,-287.43C386.95,-269.39 385.49,-243.87 396.5,-225 403.72,-212.62 416.46,-203.75 428.98,-197.59"/>
<polygon fill="#9a32cd" stroke="#9a32cd" points="386.69,-288.23 392.12,-297.32 393.55,-286.82 386.69,-288.23"/>
<text text-anchor="middle" x="419.5" y="-248.2" font-family="Source Sans Pro" font-size="16.00"> logger</text>
</g>
<!-- Node9 -->
<g id="node9" class="node">
<title>Node9</title>
<g id="a_node9"><a xlink:href="struct_i_e_version.html" target="_top" xlink:title=" ">
<polygon fill="white" stroke="black" points="540.5,-297.5 540.5,-323.5 620.5,-323.5 620.5,-297.5 540.5,-297.5"/>
<text text-anchor="middle" x="580.5" y="-306.7" font-family="Source Sans Pro" font-size="16.00">IEVersion</text>
</a>
</g>
</g>
<!-- Node9&#45;&gt;Node7 -->
<g id="edge9" class="edge">
<title>Node9&#45;&gt;Node7</title>
<path fill="none" stroke="#9a32cd" stroke-dasharray="5,2" d="M530.4,-302.89C501.9,-297.98 470.18,-290.19 461.5,-279 443.08,-255.26 452.85,-217 459.69,-197.61"/>
<polygon fill="#9a32cd" stroke="#9a32cd" points="529.87,-306.35 540.31,-304.5 531,-299.44 529.87,-306.35"/>
<text text-anchor="middle" x="541.5" y="-266.2" font-family="Source Sans Pro" font-size="16.00"> applicationVersion</text>
<text text-anchor="middle" x="541.5" y="-248.2" font-family="Source Sans Pro" font-size="16.00">desiredVulkanVersion</text>
<text text-anchor="middle" x="541.5" y="-230.2" font-family="Source Sans Pro" font-size="16.00">minimumVulkanVersion</text>
</g>
<!-- Node10 -->
<g id="node10" class="node">
<title>Node10</title>
<g id="a_node10"><a xlink:href="class_i_e_a_p_i.html" target="_top" xlink:title=" ">
<polygon fill="white" stroke="black" points="572.5,-171.5 572.5,-197.5 624.5,-197.5 624.5,-171.5 572.5,-171.5"/>
<text text-anchor="middle" x="598.5" y="-180.7" font-family="Source Sans Pro" font-size="16.00">IEAPI</text>
</a>
</g>
</g>
<!-- Node9&#45;&gt;Node10 -->
<g id="edge11" class="edge">
<title>Node9&#45;&gt;Node10</title>
<path fill="none" stroke="#9a32cd" stroke-dasharray="5,2" d="M615.43,-291.3C619.47,-287.76 623.02,-283.67 625.5,-279 636.74,-257.8 632.59,-247.93 625.5,-225 622.36,-214.84 615.61,-204.97 609.64,-197.63"/>
<polygon fill="#9a32cd" stroke="#9a32cd" points="613.15,-288.64 607.23,-297.43 617.34,-294.25 613.15,-288.64"/>
<text text-anchor="middle" x="658" y="-248.2" font-family="Source Sans Pro" font-size="16.00"> version</text>
</g>
<!-- Node10&#45;&gt;Node5 -->
<g id="edge10" class="edge">
<title>Node10&#45;&gt;Node5</title>
<path fill="none" stroke="#9a32cd" stroke-dasharray="5,2" d="M598.5,-161.07C598.5,-144.08 598.5,-121.38 598.5,-107.63"/>
<polygon fill="#9a32cd" stroke="#9a32cd" points="595,-161.26 598.5,-171.26 602,-161.26 595,-161.26"/>
<text text-anchor="middle" x="611.5" y="-131.2" font-family="Source Sans Pro" font-size="16.00"> API</text>
</g>
<!-- Node11 -->
<g id="node11" class="node">
<title>Node11</title>
<g id="a_node11"><a xlink:href="struct_i_e_render_engine_1_1_extension_and_feature_info.html" target="_top" xlink:title=" ">
<polygon fill="white" stroke="black" points="642.5,-162.5 642.5,-206.5 840.5,-206.5 840.5,-162.5 642.5,-162.5"/>
<text text-anchor="start" x="650.5" y="-189.7" font-family="Source Sans Pro" font-size="16.00">IERenderEngine::Extension</text>
<text text-anchor="middle" x="741.5" y="-171.7" font-family="Source Sans Pro" font-size="16.00">AndFeatureInfo</text>
</a>
</g>
</g>
<!-- Node11&#45;&gt;Node5 -->
<g id="edge12" class="edge">
<title>Node11&#45;&gt;Node5</title>
<path fill="none" stroke="#9a32cd" stroke-dasharray="5,2" d="M698.49,-157.03C671.89,-140.66 639,-120.42 618.37,-107.73"/>
<polygon fill="#9a32cd" stroke="#9a32cd" points="696.9,-160.16 707.25,-162.42 700.57,-154.2 696.9,-160.16"/>
<text text-anchor="middle" x="760" y="-131.2" font-family="Source Sans Pro" font-size="16.00"> extensionAndFeatureInfo</text>
</g>
</g>
</svg>
