<?xml version="1.0" encoding="UTF-8" standalone="no"?>
<!DOCTYPE svg PUBLIC "-//W3C//DTD SVG 1.1//EN"
 "http://www.w3.org/Graphics/SVG/1.1/DTD/svg11.dtd">
<!-- Generated by graphviz version 2.43.0 (0)
 -->
<!-- Title: IECommandBuffer Pages: 1 -->
<svg width="506pt" height="332pt"
 viewBox="0.00 0.00 506.00 332.00" xmlns="http://www.w3.org/2000/svg" xmlns:xlink="http://www.w3.org/1999/xlink">
<g id="graph0" class="graph" transform="scale(1 1) rotate(0) translate(4 328)">
<title>IECommandBuffer</title>
<polygon fill="white" stroke="transparent" points="-4,4 -4,-328 502,-328 502,4 -4,4"/>
<!-- Node1 -->
<g id="node1" class="node">
<title>Node1</title>
<g id="a_node1"><a xlink:title=" ">
<polygon fill="#bfbfbf" stroke="black" points="0,-0.5 0,-26.5 142,-26.5 142,-0.5 0,-0.5"/>
<text text-anchor="middle" x="71" y="-9.7" font-family="Source Sans Pro" font-size="16.00">IECommandBuffer</text>
</a>
</g>
</g>
<!-- Node2 -->
<g id="node2" class="node">
<title>Node2</title>
<g id="a_node2"><a xlink:href="class_i_e_dependent.html" target="_top" xlink:title=" ">
<polygon fill="white" stroke="black" points="1.5,-81.5 1.5,-107.5 106.5,-107.5 106.5,-81.5 1.5,-81.5"/>
<text text-anchor="middle" x="54" y="-90.7" font-family="Source Sans Pro" font-size="16.00">IEDependent</text>
</a>
</g>
</g>
<!-- Node2&#45;&gt;Node1 -->
<g id="edge1" class="edge">
<title>Node2&#45;&gt;Node1</title>
<path fill="none" stroke="midnightblue" d="M58.83,-71.05C61.93,-56.67 65.82,-38.55 68.36,-26.76"/>
<polygon fill="midnightblue" stroke="midnightblue" points="55.34,-70.64 56.66,-81.16 62.18,-72.12 55.34,-70.64"/>
</g>
<!-- Node3 -->
<g id="node3" class="node">
<title>Node3</title>
<g id="a_node3"><a xlink:href="class_i_e_render_engine.html" target="_top" xlink:title=" ">
<polygon fill="white" stroke="black" points="187.5,-81.5 187.5,-107.5 312.5,-107.5 312.5,-81.5 187.5,-81.5"/>
<text text-anchor="middle" x="250" y="-90.7" font-family="Source Sans Pro" font-size="16.00">IERenderEngine</text>
</a>
</g>
</g>
<!-- Node3&#45;&gt;Node1 -->
<g id="edge2" class="edge">
<title>Node3&#45;&gt;Node1</title>
<path fill="none" stroke="#9a32cd" stroke-dasharray="5,2" d="M177.21,-91.15C150.6,-87.27 121.53,-79.2 99,-63 86.68,-54.15 78.98,-38.07 74.84,-26.87"/>
<polygon fill="#9a32cd" stroke="#9a32cd" points="176.9,-94.64 187.26,-92.44 177.79,-87.7 176.9,-94.64"/>
<text text-anchor="middle" x="169" y="-50.2" font-family="Source Sans Pro" font-size="16.00"> linkedRenderEngine</text>
</g>
<!-- Node4 -->
<g id="node4" class="node">
<title>Node4</title>
<g id="a_node4"><a xlink:href="class_i_e_camera.html" target="_top" xlink:title=" ">
<polygon fill="white" stroke="black" points="290,-0.5 290,-26.5 372,-26.5 372,-0.5 290,-0.5"/>
<text text-anchor="middle" x="331" y="-9.7" font-family="Source Sans Pro" font-size="16.00">IECamera</text>
</a>
</g>
</g>
<!-- Node3&#45;&gt;Node4 -->
<g id="edge4" class="edge">
<title>Node3&#45;&gt;Node4</title>
<path fill="none" stroke="#9a32cd" stroke-dasharray="5,2" d="M242.96,-71.4C241.48,-62.49 241.71,-52.55 247,-45 256.79,-31.02 273.68,-23.43 289.76,-19.31"/>
<polygon fill="#9a32cd" stroke="#9a32cd" points="239.57,-72.26 245.27,-81.19 246.38,-70.65 239.57,-72.26"/>
<text text-anchor="middle" x="317" y="-50.2" font-family="Source Sans Pro" font-size="16.00"> linkedRenderEngine</text>
</g>
<!-- Node4&#45;&gt;Node3 -->
<g id="edge3" class="edge">
<title>Node4&#45;&gt;Node3</title>
<path fill="none" stroke="#9a32cd" stroke-dasharray="5,2" d="M373.45,-31.02C389.1,-39.57 400.86,-50.77 391,-63 380.9,-75.52 345.41,-83.16 312.57,-87.66"/>
<polygon fill="#9a32cd" stroke="#9a32cd" points="374.98,-27.87 364.47,-26.55 371.86,-34.14 374.98,-27.87"/>
<text text-anchor="middle" x="421.5" y="-50.2" font-family="Source Sans Pro" font-size="16.00"> camera</text>
</g>
<!-- Node5 -->
<g id="node5" class="node">
<title>Node5</title>
<g id="a_node5"><a xlink:href="class_i_e_settings.html" target="_top" xlink:title=" ">
<polygon fill="white" stroke="black" points="74.5,-171.5 74.5,-197.5 157.5,-197.5 157.5,-171.5 74.5,-171.5"/>
<text text-anchor="middle" x="116" y="-180.7" font-family="Source Sans Pro" font-size="16.00">IESettings</text>
</a>
</g>
</g>
<!-- Node5&#45;&gt;Node3 -->
<g id="edge5" class="edge">
<title>Node5&#45;&gt;Node3</title>
<path fill="none" stroke="#9a32cd" stroke-dasharray="5,2" d="M137.67,-164.88C152.01,-153.02 171.51,-137.73 190,-126 200.66,-119.24 213,-112.75 223.71,-107.52"/>
<polygon fill="#9a32cd" stroke="#9a32cd" points="135.29,-162.31 129.87,-171.42 139.78,-167.68 135.29,-162.31"/>
<text text-anchor="middle" x="218" y="-131.2" font-family="Source Sans Pro" font-size="16.00"> settings</text>
</g>
<!-- Node6 -->
<g id="node6" class="node">
<title>Node6</title>
<g id="a_node6"><a xlink:href="class_i_e_logger.html" target="_top" xlink:title="A small logging tool that is a very thin wrapper for spdlog.">
<polygon fill="white" stroke="black" points="9.5,-297.5 9.5,-323.5 84.5,-323.5 84.5,-297.5 9.5,-297.5"/>
<text text-anchor="middle" x="47" y="-306.7" font-family="Source Sans Pro" font-size="16.00">IELogger</text>
</a>
</g>
</g>
<!-- Node6&#45;&gt;Node5 -->
<g id="edge6" class="edge">
<title>Node6&#45;&gt;Node5</title>
<path fill="none" stroke="#9a32cd" stroke-dasharray="5,2" d="M41.6,-287.43C38.45,-269.39 36.99,-243.87 48,-225 55.22,-212.62 67.96,-203.75 80.48,-197.59"/>
<polygon fill="#9a32cd" stroke="#9a32cd" points="38.19,-288.23 43.62,-297.32 45.05,-286.82 38.19,-288.23"/>
<text text-anchor="middle" x="71" y="-248.2" font-family="Source Sans Pro" font-size="16.00"> logger</text>
</g>
<!-- Node7 -->
<g id="node7" class="node">
<title>Node7</title>
<g id="a_node7"><a xlink:href="struct_i_e_version.html" target="_top" xlink:title=" ">
<polygon fill="white" stroke="black" points="181,-297.5 181,-323.5 261,-323.5 261,-297.5 181,-297.5"/>
<text text-anchor="middle" x="221" y="-306.7" font-family="Source Sans Pro" font-size="16.00">IEVersion</text>
</a>
</g>
</g>
<!-- Node7&#45;&gt;Node5 -->
<g id="edge7" class="edge">
<title>Node7&#45;&gt;Node5</title>
<path fill="none" stroke="#9a32cd" stroke-dasharray="5,2" d="M171,-308.18C149.61,-304.81 126.5,-296.84 113,-279 94.87,-255.04 104.51,-216.88 111.25,-197.56"/>
<polygon fill="#9a32cd" stroke="#9a32cd" points="170.63,-311.66 180.99,-309.45 171.51,-304.72 170.63,-311.66"/>
<text text-anchor="middle" x="193" y="-266.2" font-family="Source Sans Pro" font-size="16.00"> applicationVersion</text>
<text text-anchor="middle" x="193" y="-248.2" font-family="Source Sans Pro" font-size="16.00">desiredVulkanVersion</text>
<text text-anchor="middle" x="193" y="-230.2" font-family="Source Sans Pro" font-size="16.00">minimumVulkanVersion</text>
</g>
<!-- Node8 -->
<g id="node8" class="node">
<title>Node8</title>
<g id="a_node8"><a xlink:href="class_i_e_a_p_i.html" target="_top" xlink:title=" ">
<polygon fill="white" stroke="black" points="224,-171.5 224,-197.5 276,-197.5 276,-171.5 224,-171.5"/>
<text text-anchor="middle" x="250" y="-180.7" font-family="Source Sans Pro" font-size="16.00">IEAPI</text>
</a>
</g>
</g>
<!-- Node7&#45;&gt;Node8 -->
<g id="edge9" class="edge">
<title>Node7&#45;&gt;Node8</title>
<path fill="none" stroke="#9a32cd" stroke-dasharray="5,2" d="M265.44,-291.67C270.02,-288.13 274.07,-283.94 277,-279 289.26,-258.37 284.09,-247.93 277,-225 273.86,-214.84 267.11,-204.97 261.14,-197.63"/>
<polygon fill="#9a32cd" stroke="#9a32cd" points="263.18,-288.96 256.73,-297.36 267.01,-294.82 263.18,-288.96"/>
<text text-anchor="middle" x="310.5" y="-248.2" font-family="Source Sans Pro" font-size="16.00"> version</text>
</g>
<!-- Node8&#45;&gt;Node3 -->
<g id="edge8" class="edge">
<title>Node8&#45;&gt;Node3</title>
<path fill="none" stroke="#9a32cd" stroke-dasharray="5,2" d="M250,-161.07C250,-144.08 250,-121.38 250,-107.63"/>
<polygon fill="#9a32cd" stroke="#9a32cd" points="246.5,-161.26 250,-171.26 253.5,-161.26 246.5,-161.26"/>
<text text-anchor="middle" x="263" y="-131.2" font-family="Source Sans Pro" font-size="16.00"> API</text>
</g>
<!-- Node9 -->
<g id="node9" class="node">
<title>Node9</title>
<g id="a_node9"><a xlink:href="struct_i_e_render_engine_1_1_extension_and_feature_info.html" target="_top" xlink:title=" ">
<polygon fill="white" stroke="black" points="294,-162.5 294,-206.5 492,-206.5 492,-162.5 294,-162.5"/>
<text text-anchor="start" x="302" y="-189.7" font-family="Source Sans Pro" font-size="16.00">IERenderEngine::Extension</text>
<text text-anchor="middle" x="393" y="-171.7" font-family="Source Sans Pro" font-size="16.00">AndFeatureInfo</text>
</a>
</g>
</g>
<!-- Node9&#45;&gt;Node3 -->
<g id="edge10" class="edge">
<title>Node9&#45;&gt;Node3</title>
<path fill="none" stroke="#9a32cd" stroke-dasharray="5,2" d="M349.99,-157.03C323.39,-140.66 290.5,-120.42 269.87,-107.73"/>
<polygon fill="#9a32cd" stroke="#9a32cd" points="348.4,-160.16 358.75,-162.42 352.07,-154.2 348.4,-160.16"/>
<text text-anchor="middle" x="411.5" y="-131.2" font-family="Source Sans Pro" font-size="16.00"> extensionAndFeatureInfo</text>
</g>
</g>
</svg>
