<?xml version="1.0" encoding="UTF-8" standalone="no"?>
<!DOCTYPE svg PUBLIC "-//W3C//DTD SVG 1.1//EN"
 "http://www.w3.org/Graphics/SVG/1.1/DTD/svg11.dtd">
<!-- Generated by graphviz version 2.43.0 (0)
 -->
<!-- Title: VulkanShader Pages: 1 -->
<svg width="410pt" height="233pt"
 viewBox="0.00 0.00 410.00 233.00" xmlns="http://www.w3.org/2000/svg" xmlns:xlink="http://www.w3.org/1999/xlink">
<g id="graph0" class="graph" transform="scale(1 1) rotate(0) translate(4 229)">
<title>VulkanShader</title>
<polygon fill="white" stroke="transparent" points="-4,4 -4,-229 406,-229 406,4 -4,4"/>
<!-- Node1 -->
<g id="node1" class="node">
<title>Node1</title>
<g id="a_node1"><a xlink:title=" ">
<polygon fill="#bfbfbf" stroke="black" points="171,-0.5 171,-26.5 281,-26.5 281,-0.5 171,-0.5"/>
<text text-anchor="middle" x="226" y="-9.7" font-family="Source Sans Pro" font-size="16.00">VulkanShader</text>
</a>
</g>
</g>
<!-- Node2 -->
<g id="node2" class="node">
<title>Node2</title>
<g id="a_node2"><a xlink:href="class_vulkan_graphics_engine_link.html" target="_top" xlink:title=" ">
<polygon fill="white" stroke="black" points="0,-81.5 0,-107.5 196,-107.5 196,-81.5 0,-81.5"/>
<text text-anchor="middle" x="98" y="-90.7" font-family="Source Sans Pro" font-size="16.00">VulkanGraphicsEngineLink</text>
</a>
</g>
</g>
<!-- Node2&#45;&gt;Node1 -->
<g id="edge1" class="edge">
<title>Node2&#45;&gt;Node1</title>
<path fill="none" stroke="#9a32cd" stroke-dasharray="5,2" d="M103.86,-71.78C107.41,-62.36 112.87,-51.92 121,-45 134.95,-33.12 153.3,-25.87 170.75,-21.44"/>
<polygon fill="#9a32cd" stroke="#9a32cd" points="100.5,-70.8 100.72,-81.39 107.15,-72.98 100.5,-70.8"/>
<text text-anchor="middle" x="191" y="-50.2" font-family="Source Sans Pro" font-size="16.00"> linkedRenderEngine</text>
</g>
<!-- Node3 -->
<g id="node3" class="node">
<title>Node3</title>
<g id="a_node3"><a xlink:href="struct_vulkan_graphics_engine_link_1_1_physical_device_info.html" target="_top" xlink:title=" ">
<polygon fill="white" stroke="black" points="0,-180.5 0,-224.5 196,-224.5 196,-180.5 0,-180.5"/>
<text text-anchor="start" x="8" y="-207.7" font-family="Source Sans Pro" font-size="16.00">VulkanGraphicsEngineLink</text>
<text text-anchor="middle" x="98" y="-189.7" font-family="Source Sans Pro" font-size="16.00">::PhysicalDeviceInfo</text>
</a>
</g>
</g>
<!-- Node3&#45;&gt;Node2 -->
<g id="edge2" class="edge">
<title>Node3&#45;&gt;Node2</title>
<path fill="none" stroke="#9a32cd" stroke-dasharray="5,2" d="M98,-170.24C98,-149.31 98,-122.9 98,-107.73"/>
<polygon fill="#9a32cd" stroke="#9a32cd" points="94.5,-170.3 98,-180.3 101.5,-170.3 94.5,-170.3"/>
<text text-anchor="middle" x="197" y="-149.2" font-family="Source Sans Pro" font-size="16.00"> enabledPhysicalDeviceInfo</text>
<text text-anchor="middle" x="197" y="-131.2" font-family="Source Sans Pro" font-size="16.00">supportedPhysicalDeviceInfo</text>
</g>
<!-- Node4 -->
<g id="node4" class="node">
<title>Node4</title>
<g id="a_node4"><a xlink:href="struct_vulkan_shader_1_1_create_info.html" target="_top" xlink:title=" ">
<polygon fill="white" stroke="black" points="214,-81.5 214,-107.5 402,-107.5 402,-81.5 214,-81.5"/>
<text text-anchor="middle" x="308" y="-90.7" font-family="Source Sans Pro" font-size="16.00">VulkanShader::CreateInfo</text>
</a>
</g>
</g>
<!-- Node4&#45;&gt;Node1 -->
<g id="edge3" class="edge">
<title>Node4&#45;&gt;Node1</title>
<path fill="none" stroke="#9a32cd" stroke-dasharray="5,2" d="M291.78,-73.6C284.04,-64.52 274.42,-53.85 265,-45 258.11,-38.52 249.94,-31.98 242.86,-26.63"/>
<polygon fill="#9a32cd" stroke="#9a32cd" points="289.21,-75.97 298.31,-81.39 294.57,-71.48 289.21,-75.97"/>
<text text-anchor="middle" x="324.5" y="-50.2" font-family="Source Sans Pro" font-size="16.00"> createdWith</text>
</g>
</g>
</svg>
