<?xml version="1.0" encoding="UTF-8" standalone="no"?>
<!DOCTYPE svg PUBLIC "-//W3C//DTD SVG 1.1//EN"
 "http://www.w3.org/Graphics/SVG/1.1/DTD/svg11.dtd">
<!-- Generated by graphviz version 2.43.0 (0)
 -->
<!-- Title: IEImageNEW&lt; 0, 0, 0 &gt; Pages: 1 -->
<svg width="172pt" height="179pt"
 viewBox="0.00 0.00 172.00 179.00" xmlns="http://www.w3.org/2000/svg" xmlns:xlink="http://www.w3.org/1999/xlink">
<g id="graph0" class="graph" transform="scale(1 1) rotate(0) translate(4 175)">
<title>IEImageNEW&lt; 0, 0, 0 &gt;</title>
<polygon fill="white" stroke="transparent" points="-4,4 -4,-175 168,-175 168,4 -4,4"/>
<!-- Node1 -->
<g id="node1" class="node">
<title>Node1</title>
<g id="a_node1"><a xlink:title=" ">
<polygon fill="#bfbfbf" stroke="black" points="0,-81.5 0,-107.5 164,-107.5 164,-81.5 0,-81.5"/>
<text text-anchor="middle" x="82" y="-90.7" font-family="Source Sans Pro" font-size="16.00">IEImageNEW&lt; 0, 0, 0 &gt;</text>
</a>
</g>
</g>
<!-- Node3 -->
<g id="node3" class="node">
<title>Node3</title>
<g id="a_node3"><a xlink:href="class_i_e_texture_n_e_w.html" target="_top" xlink:title=" ">
<polygon fill="white" stroke="black" points="0,-0.5 0,-44.5 164,-44.5 164,-0.5 0,-0.5"/>
<text text-anchor="start" x="8" y="-27.7" font-family="Source Sans Pro" font-size="16.00">IETextureNEW&lt; width,</text>
<text text-anchor="middle" x="82" y="-9.7" font-family="Source Sans Pro" font-size="16.00"> height, channels &gt;</text>
</a>
</g>
</g>
<!-- Node1&#45;&gt;Node3 -->
<g id="edge2" class="edge">
<title>Node1&#45;&gt;Node3</title>
<path fill="none" stroke="midnightblue" d="M82,-71.3C82,-62.76 82,-53.04 82,-44.6"/>
<polygon fill="midnightblue" stroke="midnightblue" points="78.5,-71.31 82,-81.31 85.5,-71.31 78.5,-71.31"/>
</g>
<!-- Node2 -->
<g id="node2" class="node">
<title>Node2</title>
<g id="a_node2"><a xlink:href="class_i_e_image_n_e_w.html" target="_top" xlink:title=" ">
<polygon fill="white" stroke="black" points="0,-144.5 0,-170.5 164,-170.5 164,-144.5 0,-144.5"/>
<text text-anchor="middle" x="82" y="-153.7" font-family="Source Sans Pro" font-size="16.00">IEImageNEW&lt; 1, 1, 1 &gt;</text>
</a>
</g>
</g>
<!-- Node2&#45;&gt;Node1 -->
<g id="edge1" class="edge">
<title>Node2&#45;&gt;Node1</title>
<path fill="none" stroke="midnightblue" d="M82,-134.19C82,-125.18 82,-115.12 82,-107.53"/>
<polygon fill="midnightblue" stroke="midnightblue" points="78.5,-134.45 82,-144.45 85.5,-134.45 78.5,-134.45"/>
</g>
</g>
</svg>
