<?xml version="1.0" encoding="UTF-8" standalone="no"?>
<!DOCTYPE svg PUBLIC "-//W3C//DTD SVG 1.1//EN"
 "http://www.w3.org/Graphics/SVG/1.1/DTD/svg11.dtd">
<!-- Generated by graphviz version 2.43.0 (0)
 -->
<!-- Title: IEFramebuffer Pages: 1 -->
<svg width="510pt" height="332pt"
 viewBox="0.00 0.00 509.50 332.00" xmlns="http://www.w3.org/2000/svg" xmlns:xlink="http://www.w3.org/1999/xlink">
<g id="graph0" class="graph" transform="scale(1 1) rotate(0) translate(4 328)">
<title>IEFramebuffer</title>
<polygon fill="white" stroke="transparent" points="-4,4 -4,-328 505.5,-328 505.5,4 -4,4"/>
<!-- Node1 -->
<g id="node1" class="node">
<title>Node1</title>
<g id="a_node1"><a xlink:title=" ">
<polygon fill="#bfbfbf" stroke="black" points="18,-0.5 18,-26.5 131,-26.5 131,-0.5 18,-0.5"/>
<text text-anchor="middle" x="74.5" y="-9.7" font-family="Source Sans Pro" font-size="16.00">IEFramebuffer</text>
</a>
</g>
</g>
<!-- Node2 -->
<g id="node2" class="node">
<title>Node2</title>
<g id="a_node2"><a xlink:href="class_i_e_dependency.html" target="_top" xlink:title=" ">
<polygon fill="white" stroke="black" points="0,-81.5 0,-107.5 115,-107.5 115,-81.5 0,-81.5"/>
<text text-anchor="middle" x="57.5" y="-90.7" font-family="Source Sans Pro" font-size="16.00">IEDependency</text>
</a>
</g>
</g>
<!-- Node2&#45;&gt;Node1 -->
<g id="edge1" class="edge">
<title>Node2&#45;&gt;Node1</title>
<path fill="none" stroke="midnightblue" d="M62.33,-71.05C65.43,-56.67 69.32,-38.55 71.86,-26.76"/>
<polygon fill="midnightblue" stroke="midnightblue" points="58.84,-70.64 60.16,-81.16 65.68,-72.12 58.84,-70.64"/>
</g>
<!-- Node3 -->
<g id="node3" class="node">
<title>Node3</title>
<g id="a_node3"><a xlink:href="class_i_e_render_engine.html" target="_top" xlink:title=" ">
<polygon fill="white" stroke="black" points="191,-81.5 191,-107.5 316,-107.5 316,-81.5 191,-81.5"/>
<text text-anchor="middle" x="253.5" y="-90.7" font-family="Source Sans Pro" font-size="16.00">IERenderEngine</text>
</a>
</g>
</g>
<!-- Node3&#45;&gt;Node1 -->
<g id="edge2" class="edge">
<title>Node3&#45;&gt;Node1</title>
<path fill="none" stroke="#9a32cd" stroke-dasharray="5,2" d="M180.71,-91.15C154.1,-87.27 125.03,-79.2 102.5,-63 90.18,-54.15 82.48,-38.07 78.34,-26.87"/>
<polygon fill="#9a32cd" stroke="#9a32cd" points="180.4,-94.64 190.76,-92.44 181.29,-87.7 180.4,-94.64"/>
<text text-anchor="middle" x="172.5" y="-50.2" font-family="Source Sans Pro" font-size="16.00"> linkedRenderEngine</text>
</g>
<!-- Node4 -->
<g id="node4" class="node">
<title>Node4</title>
<g id="a_node4"><a xlink:href="class_i_e_camera.html" target="_top" xlink:title=" ">
<polygon fill="white" stroke="black" points="293.5,-0.5 293.5,-26.5 375.5,-26.5 375.5,-0.5 293.5,-0.5"/>
<text text-anchor="middle" x="334.5" y="-9.7" font-family="Source Sans Pro" font-size="16.00">IECamera</text>
</a>
</g>
</g>
<!-- Node3&#45;&gt;Node4 -->
<g id="edge4" class="edge">
<title>Node3&#45;&gt;Node4</title>
<path fill="none" stroke="#9a32cd" stroke-dasharray="5,2" d="M246.46,-71.4C244.98,-62.49 245.21,-52.55 250.5,-45 260.29,-31.02 277.18,-23.43 293.26,-19.31"/>
<polygon fill="#9a32cd" stroke="#9a32cd" points="243.07,-72.26 248.77,-81.19 249.88,-70.65 243.07,-72.26"/>
<text text-anchor="middle" x="320.5" y="-50.2" font-family="Source Sans Pro" font-size="16.00"> linkedRenderEngine</text>
</g>
<!-- Node4&#45;&gt;Node3 -->
<g id="edge3" class="edge">
<title>Node4&#45;&gt;Node3</title>
<path fill="none" stroke="#9a32cd" stroke-dasharray="5,2" d="M376.95,-31.02C392.6,-39.57 404.36,-50.77 394.5,-63 384.4,-75.52 348.91,-83.16 316.07,-87.66"/>
<polygon fill="#9a32cd" stroke="#9a32cd" points="378.48,-27.87 367.97,-26.55 375.36,-34.14 378.48,-27.87"/>
<text text-anchor="middle" x="425" y="-50.2" font-family="Source Sans Pro" font-size="16.00"> camera</text>
</g>
<!-- Node5 -->
<g id="node5" class="node">
<title>Node5</title>
<g id="a_node5"><a xlink:href="class_i_e_settings.html" target="_top" xlink:title=" ">
<polygon fill="white" stroke="black" points="78,-171.5 78,-197.5 161,-197.5 161,-171.5 78,-171.5"/>
<text text-anchor="middle" x="119.5" y="-180.7" font-family="Source Sans Pro" font-size="16.00">IESettings</text>
</a>
</g>
</g>
<!-- Node5&#45;&gt;Node3 -->
<g id="edge5" class="edge">
<title>Node5&#45;&gt;Node3</title>
<path fill="none" stroke="#9a32cd" stroke-dasharray="5,2" d="M141.17,-164.88C155.51,-153.02 175.01,-137.73 193.5,-126 204.16,-119.24 216.5,-112.75 227.21,-107.52"/>
<polygon fill="#9a32cd" stroke="#9a32cd" points="138.79,-162.31 133.37,-171.42 143.28,-167.68 138.79,-162.31"/>
<text text-anchor="middle" x="221.5" y="-131.2" font-family="Source Sans Pro" font-size="16.00"> settings</text>
</g>
<!-- Node6 -->
<g id="node6" class="node">
<title>Node6</title>
<g id="a_node6"><a xlink:href="class_i_e_logger.html" target="_top" xlink:title="A small logging tool that is a very thin wrapper for spdlog.">
<polygon fill="white" stroke="black" points="13,-297.5 13,-323.5 88,-323.5 88,-297.5 13,-297.5"/>
<text text-anchor="middle" x="50.5" y="-306.7" font-family="Source Sans Pro" font-size="16.00">IELogger</text>
</a>
</g>
</g>
<!-- Node6&#45;&gt;Node5 -->
<g id="edge6" class="edge">
<title>Node6&#45;&gt;Node5</title>
<path fill="none" stroke="#9a32cd" stroke-dasharray="5,2" d="M45.1,-287.43C41.95,-269.39 40.49,-243.87 51.5,-225 58.72,-212.62 71.46,-203.75 83.98,-197.59"/>
<polygon fill="#9a32cd" stroke="#9a32cd" points="41.69,-288.23 47.12,-297.32 48.55,-286.82 41.69,-288.23"/>
<text text-anchor="middle" x="74.5" y="-248.2" font-family="Source Sans Pro" font-size="16.00"> logger</text>
</g>
<!-- Node7 -->
<g id="node7" class="node">
<title>Node7</title>
<g id="a_node7"><a xlink:href="struct_i_e_version.html" target="_top" xlink:title=" ">
<polygon fill="white" stroke="black" points="184.5,-297.5 184.5,-323.5 264.5,-323.5 264.5,-297.5 184.5,-297.5"/>
<text text-anchor="middle" x="224.5" y="-306.7" font-family="Source Sans Pro" font-size="16.00">IEVersion</text>
</a>
</g>
</g>
<!-- Node7&#45;&gt;Node5 -->
<g id="edge7" class="edge">
<title>Node7&#45;&gt;Node5</title>
<path fill="none" stroke="#9a32cd" stroke-dasharray="5,2" d="M174.5,-308.18C153.11,-304.81 130,-296.84 116.5,-279 98.37,-255.04 108.01,-216.88 114.75,-197.56"/>
<polygon fill="#9a32cd" stroke="#9a32cd" points="174.13,-311.66 184.49,-309.45 175.01,-304.72 174.13,-311.66"/>
<text text-anchor="middle" x="196.5" y="-266.2" font-family="Source Sans Pro" font-size="16.00"> applicationVersion</text>
<text text-anchor="middle" x="196.5" y="-248.2" font-family="Source Sans Pro" font-size="16.00">desiredVulkanVersion</text>
<text text-anchor="middle" x="196.5" y="-230.2" font-family="Source Sans Pro" font-size="16.00">minimumVulkanVersion</text>
</g>
<!-- Node8 -->
<g id="node8" class="node">
<title>Node8</title>
<g id="a_node8"><a xlink:href="class_i_e_a_p_i.html" target="_top" xlink:title=" ">
<polygon fill="white" stroke="black" points="227.5,-171.5 227.5,-197.5 279.5,-197.5 279.5,-171.5 227.5,-171.5"/>
<text text-anchor="middle" x="253.5" y="-180.7" font-family="Source Sans Pro" font-size="16.00">IEAPI</text>
</a>
</g>
</g>
<!-- Node7&#45;&gt;Node8 -->
<g id="edge9" class="edge">
<title>Node7&#45;&gt;Node8</title>
<path fill="none" stroke="#9a32cd" stroke-dasharray="5,2" d="M268.94,-291.67C273.52,-288.13 277.57,-283.94 280.5,-279 292.76,-258.37 287.59,-247.93 280.5,-225 277.36,-214.84 270.61,-204.97 264.64,-197.63"/>
<polygon fill="#9a32cd" stroke="#9a32cd" points="266.68,-288.96 260.23,-297.36 270.51,-294.82 266.68,-288.96"/>
<text text-anchor="middle" x="314" y="-248.2" font-family="Source Sans Pro" font-size="16.00"> version</text>
</g>
<!-- Node8&#45;&gt;Node3 -->
<g id="edge8" class="edge">
<title>Node8&#45;&gt;Node3</title>
<path fill="none" stroke="#9a32cd" stroke-dasharray="5,2" d="M253.5,-161.07C253.5,-144.08 253.5,-121.38 253.5,-107.63"/>
<polygon fill="#9a32cd" stroke="#9a32cd" points="250,-161.26 253.5,-171.26 257,-161.26 250,-161.26"/>
<text text-anchor="middle" x="266.5" y="-131.2" font-family="Source Sans Pro" font-size="16.00"> API</text>
</g>
<!-- Node9 -->
<g id="node9" class="node">
<title>Node9</title>
<g id="a_node9"><a xlink:href="struct_i_e_render_engine_1_1_extension_and_feature_info.html" target="_top" xlink:title=" ">
<polygon fill="white" stroke="black" points="297.5,-162.5 297.5,-206.5 495.5,-206.5 495.5,-162.5 297.5,-162.5"/>
<text text-anchor="start" x="305.5" y="-189.7" font-family="Source Sans Pro" font-size="16.00">IERenderEngine::Extension</text>
<text text-anchor="middle" x="396.5" y="-171.7" font-family="Source Sans Pro" font-size="16.00">AndFeatureInfo</text>
</a>
</g>
</g>
<!-- Node9&#45;&gt;Node3 -->
<g id="edge10" class="edge">
<title>Node9&#45;&gt;Node3</title>
<path fill="none" stroke="#9a32cd" stroke-dasharray="5,2" d="M353.49,-157.03C326.89,-140.66 294,-120.42 273.37,-107.73"/>
<polygon fill="#9a32cd" stroke="#9a32cd" points="351.9,-160.16 362.25,-162.42 355.57,-154.2 351.9,-160.16"/>
<text text-anchor="middle" x="415" y="-131.2" font-family="Source Sans Pro" font-size="16.00"> extensionAndFeatureInfo</text>
</g>
</g>
</svg>
