<?xml version="1.0" encoding="UTF-8" standalone="no"?>
<!DOCTYPE svg PUBLIC "-//W3C//DTD SVG 1.1//EN"
 "http://www.w3.org/Graphics/SVG/1.1/DTD/svg11.dtd">
<!-- Generated by graphviz version 2.43.0 (0)
 -->
<!-- Title: VulkanRenderable Pages: 1 -->
<svg width="723pt" height="314pt"
 viewBox="0.00 0.00 723.00 314.00" xmlns="http://www.w3.org/2000/svg" xmlns:xlink="http://www.w3.org/1999/xlink">
<g id="graph0" class="graph" transform="scale(1 1) rotate(0) translate(4 310)">
<title>VulkanRenderable</title>
<polygon fill="white" stroke="transparent" points="-4,4 -4,-310 719,-310 719,4 -4,4"/>
<!-- Node1 -->
<g id="node1" class="node">
<title>Node1</title>
<g id="a_node1"><a xlink:title=" ">
<polygon fill="#bfbfbf" stroke="black" points="283.5,-0.5 283.5,-26.5 423.5,-26.5 423.5,-0.5 283.5,-0.5"/>
<text text-anchor="middle" x="353.5" y="-9.7" font-family="Source Sans Pro" font-size="16.00">VulkanRenderable</text>
</a>
</g>
</g>
<!-- Node2 -->
<g id="node2" class="node">
<title>Node2</title>
<g id="a_node2"><a xlink:href="class_vulkan_buffer.html" target="_top" xlink:title=" ">
<polygon fill="white" stroke="black" points="147,-81.5 147,-107.5 250,-107.5 250,-81.5 147,-81.5"/>
<text text-anchor="middle" x="198.5" y="-90.7" font-family="Source Sans Pro" font-size="16.00">VulkanBuffer</text>
</a>
</g>
</g>
<!-- Node2&#45;&gt;Node1 -->
<g id="edge1" class="edge">
<title>Node2&#45;&gt;Node1</title>
<path fill="none" stroke="#9a32cd" stroke-dasharray="5,2" d="M215.72,-73.98C225.38,-64.08 238.14,-52.57 251.5,-45 265.41,-37.11 281.56,-31.07 296.86,-26.54"/>
<polygon fill="#9a32cd" stroke="#9a32cd" points="212.98,-71.79 208.7,-81.47 218.09,-76.57 212.98,-71.79"/>
<text text-anchor="middle" x="295.5" y="-50.2" font-family="Source Sans Pro" font-size="16.00"> modelBuffer</text>
</g>
<!-- Node3 -->
<g id="node3" class="node">
<title>Node3</title>
<g id="a_node3"><a xlink:href="struct_vulkan_buffer_1_1_create_info.html" target="_top" xlink:title=" ">
<polygon fill="white" stroke="black" points="0,-162.5 0,-188.5 181,-188.5 181,-162.5 0,-162.5"/>
<text text-anchor="middle" x="90.5" y="-171.7" font-family="Source Sans Pro" font-size="16.00">VulkanBuffer::CreateInfo</text>
</a>
</g>
</g>
<!-- Node3&#45;&gt;Node2 -->
<g id="edge2" class="edge">
<title>Node3&#45;&gt;Node2</title>
<path fill="none" stroke="#9a32cd" stroke-dasharray="5,2" d="M85.6,-152.5C84.85,-143.45 85.81,-133.38 91.5,-126 104.53,-109.1 126.25,-101.1 146.73,-97.48"/>
<polygon fill="#9a32cd" stroke="#9a32cd" points="82.14,-153.05 87.08,-162.43 89.07,-152.02 82.14,-153.05"/>
<text text-anchor="middle" x="134" y="-131.2" font-family="Source Sans Pro" font-size="16.00"> createdWith</text>
</g>
<!-- Node4 -->
<g id="node4" class="node">
<title>Node4</title>
<g id="a_node4"><a xlink:href="class_vulkan_graphics_engine_link.html" target="_top" xlink:title=" ">
<polygon fill="white" stroke="black" points="227.5,-162.5 227.5,-188.5 423.5,-188.5 423.5,-162.5 227.5,-162.5"/>
<text text-anchor="middle" x="325.5" y="-171.7" font-family="Source Sans Pro" font-size="16.00">VulkanGraphicsEngineLink</text>
</a>
</g>
</g>
<!-- Node4&#45;&gt;Node1 -->
<g id="edge5" class="edge">
<title>Node4&#45;&gt;Node1</title>
<path fill="none" stroke="#9a32cd" stroke-dasharray="5,2" d="M336.32,-153.21C337.55,-150.17 338.66,-147.05 339.5,-144 351.1,-101.93 353.17,-49.69 353.48,-26.52"/>
<polygon fill="#9a32cd" stroke="#9a32cd" points="333.1,-151.82 332.16,-162.38 339.47,-154.71 333.1,-151.82"/>
<text text-anchor="middle" x="420.5" y="-90.7" font-family="Source Sans Pro" font-size="16.00"> linkedRenderEngine</text>
</g>
<!-- Node4&#45;&gt;Node2 -->
<g id="edge3" class="edge">
<title>Node4&#45;&gt;Node2</title>
<path fill="none" stroke="#9a32cd" stroke-dasharray="5,2" d="M232.72,-159.96C217.34,-155.74 204.7,-150.47 199.5,-144 191.38,-133.89 192.66,-118.39 194.98,-107.65"/>
<polygon fill="#9a32cd" stroke="#9a32cd" points="232.05,-163.41 242.61,-162.46 233.77,-156.62 232.05,-163.41"/>
<text text-anchor="middle" x="269.5" y="-131.2" font-family="Source Sans Pro" font-size="16.00"> linkedRenderEngine</text>
</g>
<!-- Node5 -->
<g id="node5" class="node">
<title>Node5</title>
<g id="a_node5"><a xlink:href="struct_vulkan_graphics_engine_link_1_1_physical_device_info.html" target="_top" xlink:title=" ">
<polygon fill="white" stroke="black" points="227.5,-261.5 227.5,-305.5 423.5,-305.5 423.5,-261.5 227.5,-261.5"/>
<text text-anchor="start" x="235.5" y="-288.7" font-family="Source Sans Pro" font-size="16.00">VulkanGraphicsEngineLink</text>
<text text-anchor="middle" x="325.5" y="-270.7" font-family="Source Sans Pro" font-size="16.00">::PhysicalDeviceInfo</text>
</a>
</g>
</g>
<!-- Node5&#45;&gt;Node4 -->
<g id="edge4" class="edge">
<title>Node5&#45;&gt;Node4</title>
<path fill="none" stroke="#9a32cd" stroke-dasharray="5,2" d="M325.5,-251.24C325.5,-230.31 325.5,-203.9 325.5,-188.73"/>
<polygon fill="#9a32cd" stroke="#9a32cd" points="322,-251.3 325.5,-261.3 329,-251.3 322,-251.3"/>
<text text-anchor="middle" x="424.5" y="-230.2" font-family="Source Sans Pro" font-size="16.00"> enabledPhysicalDeviceInfo</text>
<text text-anchor="middle" x="424.5" y="-212.2" font-family="Source Sans Pro" font-size="16.00">supportedPhysicalDeviceInfo</text>
</g>
<!-- Node6 -->
<g id="node6" class="node">
<title>Node6</title>
<g id="a_node6"><a xlink:href="struct_vulkan_uniform_buffer_object.html" target="_top" xlink:title=" ">
<polygon fill="white" stroke="black" points="512,-81.5 512,-107.5 715,-107.5 715,-81.5 512,-81.5"/>
<text text-anchor="middle" x="613.5" y="-90.7" font-family="Source Sans Pro" font-size="16.00">VulkanUniformBufferObject</text>
</a>
</g>
</g>
<!-- Node6&#45;&gt;Node1 -->
<g id="edge6" class="edge">
<title>Node6&#45;&gt;Node1</title>
<path fill="none" stroke="#9a32cd" stroke-dasharray="5,2" d="M563.87,-78.42C514.29,-63.35 439.05,-40.49 393.27,-26.58"/>
<polygon fill="#9a32cd" stroke="#9a32cd" points="563.14,-81.86 573.73,-81.42 565.18,-75.16 563.14,-81.86"/>
<text text-anchor="middle" x="578" y="-50.2" font-family="Source Sans Pro" font-size="16.00"> uniformBufferObject</text>
</g>
</g>
</svg>
