<?xml version="1.0" encoding="UTF-8" standalone="no"?>
<!DOCTYPE svg PUBLIC "-//W3C//DTD SVG 1.1//EN"
 "http://www.w3.org/Graphics/SVG/1.1/DTD/svg11.dtd">
<!-- Generated by graphviz version 2.43.0 (0)
 -->
<!-- Title: IEImage Pages: 1 -->
<svg width="678pt" height="350pt"
 viewBox="0.00 0.00 677.50 350.00" xmlns="http://www.w3.org/2000/svg" xmlns:xlink="http://www.w3.org/1999/xlink">
<g id="graph0" class="graph" transform="scale(1 1) rotate(0) translate(4 346)">
<title>IEImage</title>
<polygon fill="white" stroke="transparent" points="-4,4 -4,-346 673.5,-346 673.5,4 -4,4"/>
<!-- Node1 -->
<g id="node1" class="node">
<title>Node1</title>
<g id="a_node1"><a xlink:title=" ">
<polygon fill="#bfbfbf" stroke="black" points="181,-0.5 181,-26.5 252,-26.5 252,-0.5 181,-0.5"/>
<text text-anchor="middle" x="216.5" y="-9.7" font-family="Source Sans Pro" font-size="16.00">IEImage</text>
</a>
</g>
</g>
<!-- Node2 -->
<g id="node2" class="node">
<title>Node2</title>
<g id="a_node2"><a xlink:href="class_i_e_dependency.html" target="_top" xlink:title=" ">
<polygon fill="white" stroke="black" points="0,-90.5 0,-116.5 115,-116.5 115,-90.5 0,-90.5"/>
<text text-anchor="middle" x="57.5" y="-99.7" font-family="Source Sans Pro" font-size="16.00">IEDependency</text>
</a>
</g>
</g>
<!-- Node2&#45;&gt;Node1 -->
<g id="edge1" class="edge">
<title>Node2&#45;&gt;Node1</title>
<path fill="none" stroke="midnightblue" d="M88.42,-85.39C119.69,-68.08 167.22,-41.77 194.73,-26.55"/>
<polygon fill="midnightblue" stroke="midnightblue" points="86.33,-82.54 79.27,-90.45 89.72,-88.67 86.33,-82.54"/>
</g>
<!-- Node3 -->
<g id="node3" class="node">
<title>Node3</title>
<g id="a_node3"><a xlink:title=" ">
<polygon fill="white" stroke="black" points="133,-81.5 133,-125.5 300,-125.5 300,-81.5 133,-81.5"/>
<text text-anchor="start" x="141" y="-108.7" font-family="Source Sans Pro" font-size="16.00">std::enable_shared</text>
<text text-anchor="middle" x="216.5" y="-90.7" font-family="Source Sans Pro" font-size="16.00">_from_this&lt; IEImage &gt;</text>
</a>
</g>
</g>
<!-- Node3&#45;&gt;Node1 -->
<g id="edge2" class="edge">
<title>Node3&#45;&gt;Node1</title>
<path fill="none" stroke="midnightblue" d="M216.5,-71.02C216.5,-55.67 216.5,-38.09 216.5,-26.67"/>
<polygon fill="midnightblue" stroke="midnightblue" points="213,-71.2 216.5,-81.2 220,-71.2 213,-71.2"/>
</g>
<!-- Node4 -->
<g id="node4" class="node">
<title>Node4</title>
<g id="a_node4"><a xlink:href="class_i_e_render_engine.html" target="_top" xlink:title=" ">
<polygon fill="white" stroke="black" points="350,-90.5 350,-116.5 475,-116.5 475,-90.5 350,-90.5"/>
<text text-anchor="middle" x="412.5" y="-99.7" font-family="Source Sans Pro" font-size="16.00">IERenderEngine</text>
</a>
</g>
</g>
<!-- Node4&#45;&gt;Node1 -->
<g id="edge3" class="edge">
<title>Node4&#45;&gt;Node1</title>
<path fill="none" stroke="#9a32cd" stroke-dasharray="5,2" d="M342.03,-88.25C309.33,-80.83 274.61,-71.54 260.5,-63 245.33,-53.82 232.31,-37.82 224.45,-26.72"/>
<polygon fill="#9a32cd" stroke="#9a32cd" points="341.57,-91.74 352.09,-90.49 343.09,-84.9 341.57,-91.74"/>
<text text-anchor="middle" x="330.5" y="-50.2" font-family="Source Sans Pro" font-size="16.00"> linkedRenderEngine</text>
</g>
<!-- Node5 -->
<g id="node5" class="node">
<title>Node5</title>
<g id="a_node5"><a xlink:href="class_i_e_camera.html" target="_top" xlink:title=" ">
<polygon fill="white" stroke="black" points="452.5,-0.5 452.5,-26.5 534.5,-26.5 534.5,-0.5 452.5,-0.5"/>
<text text-anchor="middle" x="493.5" y="-9.7" font-family="Source Sans Pro" font-size="16.00">IECamera</text>
</a>
</g>
</g>
<!-- Node4&#45;&gt;Node5 -->
<g id="edge5" class="edge">
<title>Node4&#45;&gt;Node5</title>
<path fill="none" stroke="#9a32cd" stroke-dasharray="5,2" d="M405.26,-80.51C402.87,-68.97 402.38,-55.15 409.5,-45 419.29,-31.02 436.18,-23.43 452.26,-19.31"/>
<polygon fill="#9a32cd" stroke="#9a32cd" points="401.9,-81.51 407.82,-90.3 408.67,-79.74 401.9,-81.51"/>
<text text-anchor="middle" x="479.5" y="-50.2" font-family="Source Sans Pro" font-size="16.00"> linkedRenderEngine</text>
</g>
<!-- Node5&#45;&gt;Node4 -->
<g id="edge4" class="edge">
<title>Node5&#45;&gt;Node4</title>
<path fill="none" stroke="#9a32cd" stroke-dasharray="5,2" d="M536.38,-31.18C551.58,-39.62 562.84,-50.69 553.5,-63 543.63,-76.01 508.14,-85.92 475.24,-92.55"/>
<polygon fill="#9a32cd" stroke="#9a32cd" points="537.62,-27.89 527.11,-26.53 534.48,-34.14 537.62,-27.89"/>
<text text-anchor="middle" x="584" y="-50.2" font-family="Source Sans Pro" font-size="16.00"> camera</text>
</g>
<!-- Node6 -->
<g id="node6" class="node">
<title>Node6</title>
<g id="a_node6"><a xlink:href="class_i_e_settings.html" target="_top" xlink:title=" ">
<polygon fill="white" stroke="black" points="237,-189.5 237,-215.5 320,-215.5 320,-189.5 237,-189.5"/>
<text text-anchor="middle" x="278.5" y="-198.7" font-family="Source Sans Pro" font-size="16.00">IESettings</text>
</a>
</g>
</g>
<!-- Node6&#45;&gt;Node4 -->
<g id="edge6" class="edge">
<title>Node6&#45;&gt;Node4</title>
<path fill="none" stroke="#9a32cd" stroke-dasharray="5,2" d="M301.18,-183.14C315.64,-171.61 334.92,-156.59 352.5,-144 365.88,-134.42 381.42,-124.21 393.33,-116.58"/>
<polygon fill="#9a32cd" stroke="#9a32cd" points="298.88,-180.49 293.26,-189.48 303.25,-185.96 298.88,-180.49"/>
<text text-anchor="middle" x="380.5" y="-149.2" font-family="Source Sans Pro" font-size="16.00"> settings</text>
</g>
<!-- Node7 -->
<g id="node7" class="node">
<title>Node7</title>
<g id="a_node7"><a xlink:href="class_i_e_logger.html" target="_top" xlink:title="A small logging tool that is a very thin wrapper for spdlog.">
<polygon fill="white" stroke="black" points="172,-315.5 172,-341.5 247,-341.5 247,-315.5 172,-315.5"/>
<text text-anchor="middle" x="209.5" y="-324.7" font-family="Source Sans Pro" font-size="16.00">IELogger</text>
</a>
</g>
</g>
<!-- Node7&#45;&gt;Node6 -->
<g id="edge7" class="edge">
<title>Node7&#45;&gt;Node6</title>
<path fill="none" stroke="#9a32cd" stroke-dasharray="5,2" d="M204.1,-305.43C200.95,-287.39 199.49,-261.87 210.5,-243 217.72,-230.62 230.46,-221.75 242.98,-215.59"/>
<polygon fill="#9a32cd" stroke="#9a32cd" points="200.69,-306.23 206.12,-315.32 207.55,-304.82 200.69,-306.23"/>
<text text-anchor="middle" x="233.5" y="-266.2" font-family="Source Sans Pro" font-size="16.00"> logger</text>
</g>
<!-- Node8 -->
<g id="node8" class="node">
<title>Node8</title>
<g id="a_node8"><a xlink:href="struct_i_e_version.html" target="_top" xlink:title=" ">
<polygon fill="white" stroke="black" points="343.5,-315.5 343.5,-341.5 423.5,-341.5 423.5,-315.5 343.5,-315.5"/>
<text text-anchor="middle" x="383.5" y="-324.7" font-family="Source Sans Pro" font-size="16.00">IEVersion</text>
</a>
</g>
</g>
<!-- Node8&#45;&gt;Node6 -->
<g id="edge8" class="edge">
<title>Node8&#45;&gt;Node6</title>
<path fill="none" stroke="#9a32cd" stroke-dasharray="5,2" d="M333.5,-326.18C312.11,-322.81 289,-314.84 275.5,-297 257.37,-273.04 267.01,-234.88 273.75,-215.56"/>
<polygon fill="#9a32cd" stroke="#9a32cd" points="333.13,-329.66 343.49,-327.45 334.01,-322.72 333.13,-329.66"/>
<text text-anchor="middle" x="355.5" y="-284.2" font-family="Source Sans Pro" font-size="16.00"> applicationVersion</text>
<text text-anchor="middle" x="355.5" y="-266.2" font-family="Source Sans Pro" font-size="16.00">desiredVulkanVersion</text>
<text text-anchor="middle" x="355.5" y="-248.2" font-family="Source Sans Pro" font-size="16.00">minimumVulkanVersion</text>
</g>
<!-- Node9 -->
<g id="node9" class="node">
<title>Node9</title>
<g id="a_node9"><a xlink:href="class_i_e_a_p_i.html" target="_top" xlink:title=" ">
<polygon fill="white" stroke="black" points="386.5,-189.5 386.5,-215.5 438.5,-215.5 438.5,-189.5 386.5,-189.5"/>
<text text-anchor="middle" x="412.5" y="-198.7" font-family="Source Sans Pro" font-size="16.00">IEAPI</text>
</a>
</g>
</g>
<!-- Node8&#45;&gt;Node9 -->
<g id="edge10" class="edge">
<title>Node8&#45;&gt;Node9</title>
<path fill="none" stroke="#9a32cd" stroke-dasharray="5,2" d="M427.94,-309.67C432.52,-306.13 436.57,-301.94 439.5,-297 451.76,-276.37 446.59,-265.93 439.5,-243 436.36,-232.84 429.61,-222.97 423.64,-215.63"/>
<polygon fill="#9a32cd" stroke="#9a32cd" points="425.68,-306.96 419.23,-315.36 429.51,-312.82 425.68,-306.96"/>
<text text-anchor="middle" x="473" y="-266.2" font-family="Source Sans Pro" font-size="16.00"> version</text>
</g>
<!-- Node9&#45;&gt;Node4 -->
<g id="edge9" class="edge">
<title>Node9&#45;&gt;Node4</title>
<path fill="none" stroke="#9a32cd" stroke-dasharray="5,2" d="M412.5,-179.11C412.5,-159.69 412.5,-132.31 412.5,-116.69"/>
<polygon fill="#9a32cd" stroke="#9a32cd" points="409,-179.21 412.5,-189.21 416,-179.21 409,-179.21"/>
<text text-anchor="middle" x="425.5" y="-149.2" font-family="Source Sans Pro" font-size="16.00"> API</text>
</g>
<!-- Node10 -->
<g id="node10" class="node">
<title>Node10</title>
<g id="a_node10"><a xlink:href="struct_i_e_render_engine_1_1_extension_and_feature_info.html" target="_top" xlink:title=" ">
<polygon fill="white" stroke="black" points="456.5,-180.5 456.5,-224.5 654.5,-224.5 654.5,-180.5 456.5,-180.5"/>
<text text-anchor="start" x="464.5" y="-207.7" font-family="Source Sans Pro" font-size="16.00">IERenderEngine::Extension</text>
<text text-anchor="middle" x="555.5" y="-189.7" font-family="Source Sans Pro" font-size="16.00">AndFeatureInfo</text>
</a>
</g>
</g>
<!-- Node10&#45;&gt;Node4 -->
<g id="edge11" class="edge">
<title>Node10&#45;&gt;Node4</title>
<path fill="none" stroke="#9a32cd" stroke-dasharray="5,2" d="M516.07,-174.75C488.05,-155.75 451.75,-131.12 430.4,-116.64"/>
<polygon fill="#9a32cd" stroke="#9a32cd" points="514.23,-177.74 524.47,-180.45 518.16,-171.94 514.23,-177.74"/>
<text text-anchor="middle" x="583" y="-149.2" font-family="Source Sans Pro" font-size="16.00"> extensionAndFeatureInfo</text>
</g>
</g>
</svg>
