<?xml version="1.0" encoding="UTF-8" standalone="no"?>
<!DOCTYPE svg PUBLIC "-//W3C//DTD SVG 1.1//EN"
 "http://www.w3.org/Graphics/SVG/1.1/DTD/svg11.dtd">
<!-- Generated by graphviz version 2.43.0 (0)
 -->
<!-- Title: IEBuffer Pages: 1 -->
<svg width="308pt" height="116pt"
 viewBox="0.00 0.00 308.00 116.00" xmlns="http://www.w3.org/2000/svg" xmlns:xlink="http://www.w3.org/1999/xlink">
<g id="graph0" class="graph" transform="scale(1 1) rotate(0) translate(4 112)">
<title>IEBuffer</title>
<polygon fill="white" stroke="transparent" points="-4,4 -4,-112 304,-112 304,4 -4,4"/>
<!-- Node1 -->
<g id="node1" class="node">
<title>Node1</title>
<g id="a_node1"><a xlink:title=" ">
<polygon fill="#bfbfbf" stroke="black" points="101,-0.5 101,-26.5 172,-26.5 172,-0.5 101,-0.5"/>
<text text-anchor="middle" x="136.5" y="-9.7" font-family="Source Sans Pro" font-size="16.00">IEBuffer</text>
</a>
</g>
</g>
<!-- Node2 -->
<g id="node2" class="node">
<title>Node2</title>
<g id="a_node2"><a xlink:href="class_i_e_dependency.html" target="_top" xlink:title=" ">
<polygon fill="white" stroke="black" points="0,-72.5 0,-98.5 115,-98.5 115,-72.5 0,-72.5"/>
<text text-anchor="middle" x="57.5" y="-81.7" font-family="Source Sans Pro" font-size="16.00">IEDependency</text>
</a>
</g>
</g>
<!-- Node2&#45;&gt;Node1 -->
<g id="edge1" class="edge">
<title>Node2&#45;&gt;Node1</title>
<path fill="none" stroke="midnightblue" d="M78.99,-65.46C92.99,-53.06 110.83,-37.25 122.9,-26.55"/>
<polygon fill="midnightblue" stroke="midnightblue" points="76.42,-63.06 71.26,-72.31 81.07,-68.29 76.42,-63.06"/>
</g>
<!-- Node3 -->
<g id="node3" class="node">
<title>Node3</title>
<g id="a_node3"><a xlink:title=" ">
<polygon fill="white" stroke="black" points="133,-63.5 133,-107.5 300,-107.5 300,-63.5 133,-63.5"/>
<text text-anchor="start" x="141" y="-90.7" font-family="Source Sans Pro" font-size="16.00">std::enable_shared</text>
<text text-anchor="middle" x="216.5" y="-72.7" font-family="Source Sans Pro" font-size="16.00">_from_this&lt; IEBuffer &gt;</text>
</a>
</g>
</g>
<!-- Node3&#45;&gt;Node1 -->
<g id="edge2" class="edge">
<title>Node3&#45;&gt;Node1</title>
<path fill="none" stroke="midnightblue" d="M184.81,-56.77C172.8,-46.27 159.76,-34.85 150.25,-26.53"/>
<polygon fill="midnightblue" stroke="midnightblue" points="182.67,-59.55 192.5,-63.5 187.28,-54.28 182.67,-59.55"/>
</g>
</g>
</svg>
