<?xml version="1.0" encoding="UTF-8" standalone="no"?>
<!DOCTYPE svg PUBLIC "-//W3C//DTD SVG 1.1//EN"
 "http://www.w3.org/Graphics/SVG/1.1/DTD/svg11.dtd">
<!-- Generated by graphviz version 2.43.0 (0)
 -->
<!-- Title: IESettings Pages: 1 -->
<svg width="297pt" height="152pt"
 viewBox="0.00 0.00 296.50 152.00" xmlns="http://www.w3.org/2000/svg" xmlns:xlink="http://www.w3.org/1999/xlink">
<g id="graph0" class="graph" transform="scale(1 1) rotate(0) translate(4 148)">
<title>IESettings</title>
<polygon fill="white" stroke="transparent" points="-4,4 -4,-148 292.5,-148 292.5,4 -4,4"/>
<!-- Node1 -->
<g id="node1" class="node">
<title>Node1</title>
<g id="a_node1"><a xlink:title=" ">
<polygon fill="#bfbfbf" stroke="black" points="44,-0.5 44,-26.5 127,-26.5 127,-0.5 44,-0.5"/>
<text text-anchor="middle" x="85.5" y="-9.7" font-family="Source Sans Pro" font-size="16.00">IESettings</text>
</a>
</g>
</g>
<!-- Node2 -->
<g id="node2" class="node">
<title>Node2</title>
<g id="a_node2"><a xlink:href="class_i_e_logger.html" target="_top" xlink:title="A small logging tool that is a very thin wrapper for spdlog.">
<polygon fill="white" stroke="black" points="0,-117.5 0,-143.5 75,-143.5 75,-117.5 0,-117.5"/>
<text text-anchor="middle" x="37.5" y="-126.7" font-family="Source Sans Pro" font-size="16.00">IELogger</text>
</a>
</g>
</g>
<!-- Node2&#45;&gt;Node1 -->
<g id="edge1" class="edge">
<title>Node2&#45;&gt;Node1</title>
<path fill="none" stroke="#9a32cd" stroke-dasharray="5,2" d="M43.07,-107.56C47.89,-90.14 55.64,-65.4 65.5,-45 68.59,-38.61 72.8,-31.98 76.56,-26.53"/>
<polygon fill="#9a32cd" stroke="#9a32cd" points="39.65,-106.8 40.45,-117.36 46.42,-108.6 39.65,-106.8"/>
<text text-anchor="middle" x="88.5" y="-68.2" font-family="Source Sans Pro" font-size="16.00"> logger</text>
</g>
<!-- Node3 -->
<g id="node3" class="node">
<title>Node3</title>
<g id="a_node3"><a xlink:href="struct_i_e_version.html" target="_top" xlink:title=" ">
<polygon fill="white" stroke="black" points="93.5,-117.5 93.5,-143.5 173.5,-143.5 173.5,-117.5 93.5,-117.5"/>
<text text-anchor="middle" x="133.5" y="-126.7" font-family="Source Sans Pro" font-size="16.00">IEVersion</text>
</a>
</g>
</g>
<!-- Node3&#45;&gt;Node1 -->
<g id="edge2" class="edge">
<title>Node3&#45;&gt;Node1</title>
<path fill="none" stroke="#9a32cd" stroke-dasharray="5,2" d="M130.56,-107.48C127.55,-89.83 121.82,-64.82 111.5,-45 108.03,-38.34 102.86,-31.87 98.04,-26.61"/>
<polygon fill="#9a32cd" stroke="#9a32cd" points="127.1,-108.06 132.09,-117.41 134.02,-106.99 127.1,-108.06"/>
<text text-anchor="middle" x="208.5" y="-86.2" font-family="Source Sans Pro" font-size="16.00"> applicationVersion</text>
<text text-anchor="middle" x="208.5" y="-68.2" font-family="Source Sans Pro" font-size="16.00">desiredVulkanVersion</text>
<text text-anchor="middle" x="208.5" y="-50.2" font-family="Source Sans Pro" font-size="16.00">minimumVulkanVersion</text>
</g>
</g>
</svg>
