<?xml version="1.0" encoding="UTF-8" standalone="no"?>
<!DOCTYPE svg PUBLIC "-//W3C//DTD SVG 1.1//EN"
 "http://www.w3.org/Graphics/SVG/1.1/DTD/svg11.dtd">
<!-- Generated by graphviz version 2.43.0 (0)
 -->
<!-- Title: VulkanBuffer Pages: 1 -->
<svg width="504pt" height="233pt"
 viewBox="0.00 0.00 503.50 233.00" xmlns="http://www.w3.org/2000/svg" xmlns:xlink="http://www.w3.org/1999/xlink">
<g id="graph0" class="graph" transform="scale(1 1) rotate(0) translate(4 229)">
<title>VulkanBuffer</title>
<polygon fill="white" stroke="transparent" points="-4,4 -4,-229 499.5,-229 499.5,4 -4,4"/>
<!-- Node1 -->
<g id="node1" class="node">
<title>Node1</title>
<g id="a_node1"><a xlink:title=" ">
<polygon fill="#bfbfbf" stroke="black" points="93,-0.5 93,-26.5 196,-26.5 196,-0.5 93,-0.5"/>
<text text-anchor="middle" x="144.5" y="-9.7" font-family="Source Sans Pro" font-size="16.00">VulkanBuffer</text>
</a>
</g>
</g>
<!-- Node2 -->
<g id="node2" class="node">
<title>Node2</title>
<g id="a_node2"><a xlink:href="struct_vulkan_buffer_1_1_create_info.html" target="_top" xlink:title=" ">
<polygon fill="white" stroke="black" points="0,-81.5 0,-107.5 181,-107.5 181,-81.5 0,-81.5"/>
<text text-anchor="middle" x="90.5" y="-90.7" font-family="Source Sans Pro" font-size="16.00">VulkanBuffer::CreateInfo</text>
</a>
</g>
</g>
<!-- Node2&#45;&gt;Node1 -->
<g id="edge1" class="edge">
<title>Node2&#45;&gt;Node1</title>
<path fill="none" stroke="#9a32cd" stroke-dasharray="5,2" d="M104.7,-72.73C114.7,-58.1 127.74,-39.02 136.12,-26.76"/>
<polygon fill="#9a32cd" stroke="#9a32cd" points="101.69,-70.93 98.94,-81.16 107.47,-74.88 101.69,-70.93"/>
<text text-anchor="middle" x="165" y="-50.2" font-family="Source Sans Pro" font-size="16.00"> createdWith</text>
</g>
<!-- Node3 -->
<g id="node3" class="node">
<title>Node3</title>
<g id="a_node3"><a xlink:href="class_vulkan_graphics_engine_link.html" target="_top" xlink:title=" ">
<polygon fill="white" stroke="black" points="199.5,-81.5 199.5,-107.5 395.5,-107.5 395.5,-81.5 199.5,-81.5"/>
<text text-anchor="middle" x="297.5" y="-90.7" font-family="Source Sans Pro" font-size="16.00">VulkanGraphicsEngineLink</text>
</a>
</g>
</g>
<!-- Node3&#45;&gt;Node1 -->
<g id="edge2" class="edge">
<title>Node3&#45;&gt;Node1</title>
<path fill="none" stroke="#9a32cd" stroke-dasharray="5,2" d="M268.61,-76.38C252.08,-66.8 230.84,-54.83 211.5,-45 198.85,-38.57 184.58,-31.98 172.46,-26.58"/>
<polygon fill="#9a32cd" stroke="#9a32cd" points="266.86,-79.42 277.27,-81.43 270.39,-73.37 266.86,-79.42"/>
<text text-anchor="middle" x="314.5" y="-50.2" font-family="Source Sans Pro" font-size="16.00"> linkedRenderEngine</text>
</g>
<!-- Node4 -->
<g id="node4" class="node">
<title>Node4</title>
<g id="a_node4"><a xlink:href="struct_vulkan_graphics_engine_link_1_1_physical_device_info.html" target="_top" xlink:title=" ">
<polygon fill="white" stroke="black" points="199.5,-180.5 199.5,-224.5 395.5,-224.5 395.5,-180.5 199.5,-180.5"/>
<text text-anchor="start" x="207.5" y="-207.7" font-family="Source Sans Pro" font-size="16.00">VulkanGraphicsEngineLink</text>
<text text-anchor="middle" x="297.5" y="-189.7" font-family="Source Sans Pro" font-size="16.00">::PhysicalDeviceInfo</text>
</a>
</g>
</g>
<!-- Node4&#45;&gt;Node3 -->
<g id="edge3" class="edge">
<title>Node4&#45;&gt;Node3</title>
<path fill="none" stroke="#9a32cd" stroke-dasharray="5,2" d="M297.5,-170.24C297.5,-149.31 297.5,-122.9 297.5,-107.73"/>
<polygon fill="#9a32cd" stroke="#9a32cd" points="294,-170.3 297.5,-180.3 301,-170.3 294,-170.3"/>
<text text-anchor="middle" x="396.5" y="-149.2" font-family="Source Sans Pro" font-size="16.00"> enabledPhysicalDeviceInfo</text>
<text text-anchor="middle" x="396.5" y="-131.2" font-family="Source Sans Pro" font-size="16.00">supportedPhysicalDeviceInfo</text>
</g>
</g>
</svg>
