<?xml version="1.0" encoding="UTF-8" standalone="no"?>
<!DOCTYPE svg PUBLIC "-//W3C//DTD SVG 1.1//EN"
 "http://www.w3.org/Graphics/SVG/1.1/DTD/svg11.dtd">
<!-- Generated by graphviz version 2.43.0 (0)
 -->
<!-- Title: VulkanFramebuffer Pages: 1 -->
<svg width="1810pt" height="215pt"
 viewBox="0.00 0.00 1810.00 215.00" xmlns="http://www.w3.org/2000/svg" xmlns:xlink="http://www.w3.org/1999/xlink">
<g id="graph0" class="graph" transform="scale(1 1) rotate(0) translate(4 211)">
<title>VulkanFramebuffer</title>
<polygon fill="white" stroke="transparent" points="-4,4 -4,-211 1806,-211 1806,4 -4,4"/>
<!-- Node1 -->
<g id="node1" class="node">
<title>Node1</title>
<g id="a_node1"><a xlink:title=" ">
<polygon fill="#bfbfbf" stroke="black" points="1657,-120.5 1657,-146.5 1802,-146.5 1802,-120.5 1657,-120.5"/>
<text text-anchor="middle" x="1729.5" y="-129.7" font-family="Source Sans Pro" font-size="16.00">VulkanFramebuffer</text>
</a>
</g>
</g>
<!-- Node2 -->
<g id="node2" class="node">
<title>Node2</title>
<g id="a_node2"><a xlink:href="struct_vulkan_framebuffer_1_1_create_info.html" target="_top" xlink:title=" ">
<polygon fill="white" stroke="black" points="1383,-162.5 1383,-206.5 1536,-206.5 1536,-162.5 1383,-162.5"/>
<text text-anchor="start" x="1391" y="-189.7" font-family="Source Sans Pro" font-size="16.00">VulkanFramebuffer::</text>
<text text-anchor="middle" x="1459.5" y="-171.7" font-family="Source Sans Pro" font-size="16.00">CreateInfo</text>
</a>
</g>
</g>
<!-- Node2&#45;&gt;Node1 -->
<g id="edge1" class="edge">
<title>Node2&#45;&gt;Node1</title>
<path fill="none" stroke="#9a32cd" stroke-dasharray="5,2" d="M1546.41,-168.15C1583.08,-161.17 1625.29,-153.14 1659.83,-146.57"/>
<polygon fill="#9a32cd" stroke="#9a32cd" points="1545.39,-164.78 1536.22,-170.09 1546.7,-171.66 1545.39,-164.78"/>
<text text-anchor="middle" x="1596.5" y="-171.7" font-family="Source Sans Pro" font-size="16.00"> createdWith</text>
</g>
<!-- Node3 -->
<g id="node3" class="node">
<title>Node3</title>
<g id="a_node3"><a xlink:href="class_vulkan_render_pass.html" target="_top" xlink:title=" ">
<polygon fill="white" stroke="black" points="1101.5,-171.5 1101.5,-197.5 1241.5,-197.5 1241.5,-171.5 1101.5,-171.5"/>
<text text-anchor="middle" x="1171.5" y="-180.7" font-family="Source Sans Pro" font-size="16.00">VulkanRenderPass</text>
</a>
</g>
</g>
<!-- Node3&#45;&gt;Node2 -->
<g id="edge2" class="edge">
<title>Node3&#45;&gt;Node2</title>
<path fill="none" stroke="#9a32cd" stroke-dasharray="5,2" d="M1251.94,-184.5C1292.87,-184.5 1342.51,-184.5 1382.88,-184.5"/>
<polygon fill="#9a32cd" stroke="#9a32cd" points="1251.73,-181 1241.73,-184.5 1251.73,-188 1251.73,-181"/>
<text text-anchor="middle" x="1322.5" y="-189.7" font-family="Source Sans Pro" font-size="16.00"> renderPass</text>
</g>
<!-- Node4 -->
<g id="node4" class="node">
<title>Node4</title>
<g id="a_node4"><a xlink:href="class_vulkan_graphics_engine_link.html" target="_top" xlink:title=" ">
<polygon fill="white" stroke="black" points="430,-74.5 430,-100.5 626,-100.5 626,-74.5 430,-74.5"/>
<text text-anchor="middle" x="528" y="-83.7" font-family="Source Sans Pro" font-size="16.00">VulkanGraphicsEngineLink</text>
</a>
</g>
</g>
<!-- Node4&#45;&gt;Node1 -->
<g id="edge3" class="edge">
<title>Node4&#45;&gt;Node1</title>
<path fill="none" stroke="#9a32cd" stroke-dasharray="5,2" d="M596.05,-102.67C661.2,-116.07 763.11,-133.5 852.5,-133.5 852.5,-133.5 852.5,-133.5 1460.5,-133.5 1527.03,-133.5 1602.86,-133.5 1656.84,-133.5"/>
<polygon fill="#9a32cd" stroke="#9a32cd" points="596.42,-99.17 585.92,-100.56 595,-106.03 596.42,-99.17"/>
<text text-anchor="middle" x="1171.5" y="-138.7" font-family="Source Sans Pro" font-size="16.00"> linkedRenderEngine</text>
</g>
<!-- Node6 -->
<g id="node6" class="node">
<title>Node6</title>
<g id="a_node6"><a xlink:href="class_vulkan_image.html" target="_top" xlink:title=" ">
<polygon fill="white" stroke="black" points="1407.5,-69.5 1407.5,-95.5 1511.5,-95.5 1511.5,-69.5 1407.5,-69.5"/>
<text text-anchor="middle" x="1459.5" y="-78.7" font-family="Source Sans Pro" font-size="16.00">VulkanImage</text>
</a>
</g>
</g>
<!-- Node4&#45;&gt;Node6 -->
<g id="edge10" class="edge">
<title>Node4&#45;&gt;Node6</title>
<path fill="none" stroke="#9a32cd" stroke-dasharray="5,2" d="M636.53,-86.92C836.97,-85.84 1260.66,-83.56 1407.29,-82.78"/>
<polygon fill="#9a32cd" stroke="#9a32cd" points="636.26,-83.42 626.28,-86.98 636.3,-90.42 636.26,-83.42"/>
<text text-anchor="middle" x="993" y="-89.7" font-family="Source Sans Pro" font-size="16.00"> linkedRenderEngine</text>
</g>
<!-- Node8 -->
<g id="node8" class="node">
<title>Node8</title>
<g id="a_node8"><a xlink:href="class_vulkan_buffer.html" target="_top" xlink:title=" ">
<polygon fill="white" stroke="black" points="802,-32.5 802,-58.5 905,-58.5 905,-32.5 802,-32.5"/>
<text text-anchor="middle" x="853.5" y="-41.7" font-family="Source Sans Pro" font-size="16.00">VulkanBuffer</text>
</a>
</g>
</g>
<!-- Node4&#45;&gt;Node8 -->
<g id="edge9" class="edge">
<title>Node4&#45;&gt;Node8</title>
<path fill="none" stroke="#9a32cd" stroke-dasharray="5,2" d="M577.07,-71.54C597.48,-65.44 621.67,-59.1 644,-55.5 697.31,-46.92 759.2,-44.94 801.61,-44.78"/>
<polygon fill="#9a32cd" stroke="#9a32cd" points="575.92,-68.23 567.38,-74.5 577.97,-74.93 575.92,-68.23"/>
<text text-anchor="middle" x="714" y="-60.7" font-family="Source Sans Pro" font-size="16.00"> linkedRenderEngine</text>
</g>
<!-- Node5 -->
<g id="node5" class="node">
<title>Node5</title>
<g id="a_node5"><a xlink:href="struct_vulkan_graphics_engine_link_1_1_physical_device_info.html" target="_top" xlink:title=" ">
<polygon fill="white" stroke="black" points="0,-65.5 0,-109.5 196,-109.5 196,-65.5 0,-65.5"/>
<text text-anchor="start" x="8" y="-92.7" font-family="Source Sans Pro" font-size="16.00">VulkanGraphicsEngineLink</text>
<text text-anchor="middle" x="98" y="-74.7" font-family="Source Sans Pro" font-size="16.00">::PhysicalDeviceInfo</text>
</a>
</g>
</g>
<!-- Node5&#45;&gt;Node4 -->
<g id="edge4" class="edge">
<title>Node5&#45;&gt;Node4</title>
<path fill="none" stroke="#9a32cd" stroke-dasharray="5,2" d="M206.53,-87.5C275.16,-87.5 363.39,-87.5 429.89,-87.5"/>
<polygon fill="#9a32cd" stroke="#9a32cd" points="206.12,-84 196.12,-87.5 206.12,-91 206.12,-84"/>
<text text-anchor="middle" x="313" y="-110.7" font-family="Source Sans Pro" font-size="16.00"> enabledPhysicalDeviceInfo</text>
<text text-anchor="middle" x="313" y="-92.7" font-family="Source Sans Pro" font-size="16.00">supportedPhysicalDeviceInfo</text>
</g>
<!-- Node6&#45;&gt;Node1 -->
<g id="edge5" class="edge">
<title>Node6&#45;&gt;Node1</title>
<path fill="none" stroke="#9a32cd" stroke-dasharray="5,2" d="M1521.83,-75.37C1556.74,-73.15 1600.95,-73.48 1639,-83.5 1666.19,-90.66 1693.91,-108.03 1711.15,-120.28"/>
<polygon fill="#9a32cd" stroke="#9a32cd" points="1521.5,-71.88 1511.78,-76.09 1522.01,-78.86 1521.5,-71.88"/>
<text text-anchor="middle" x="1596.5" y="-106.7" font-family="Source Sans Pro" font-size="16.00"> colorImage</text>
<text text-anchor="middle" x="1596.5" y="-88.7" font-family="Source Sans Pro" font-size="16.00">depthImage</text>
</g>
<!-- Node7 -->
<g id="node7" class="node">
<title>Node7</title>
<g id="a_node7"><a xlink:href="struct_vulkan_image_1_1_create_info.html" target="_top" xlink:title=" ">
<polygon fill="white" stroke="black" points="1081,-32.5 1081,-58.5 1262,-58.5 1262,-32.5 1081,-32.5"/>
<text text-anchor="middle" x="1171.5" y="-41.7" font-family="Source Sans Pro" font-size="16.00">VulkanImage::CreateInfo</text>
</a>
</g>
</g>
<!-- Node7&#45;&gt;Node6 -->
<g id="edge6" class="edge">
<title>Node7&#45;&gt;Node6</title>
<path fill="none" stroke="#9a32cd" stroke-dasharray="5,2" d="M1272.15,-46.33C1302.15,-47.75 1335.05,-50.47 1365,-55.5 1383.66,-58.64 1403.89,-64.2 1420.74,-69.46"/>
<polygon fill="#9a32cd" stroke="#9a32cd" points="1272.24,-42.83 1262.09,-45.9 1271.93,-49.82 1272.24,-42.83"/>
<text text-anchor="middle" x="1322.5" y="-60.7" font-family="Source Sans Pro" font-size="16.00"> createdWith</text>
</g>
<!-- Node8&#45;&gt;Node7 -->
<g id="edge7" class="edge">
<title>Node8&#45;&gt;Node7</title>
<path fill="none" stroke="#9a32cd" stroke-dasharray="5,2" d="M915.29,-45.5C962.26,-45.5 1027.97,-45.5 1080.95,-45.5"/>
<polygon fill="#9a32cd" stroke="#9a32cd" points="915.27,-42 905.27,-45.5 915.27,-49 915.27,-42"/>
<text text-anchor="middle" x="993" y="-50.7" font-family="Source Sans Pro" font-size="16.00"> dataSource</text>
</g>
<!-- Node9 -->
<g id="node9" class="node">
<title>Node9</title>
<g id="a_node9"><a xlink:href="struct_vulkan_buffer_1_1_create_info.html" target="_top" xlink:title=" ">
<polygon fill="white" stroke="black" points="437.5,-0.5 437.5,-26.5 618.5,-26.5 618.5,-0.5 437.5,-0.5"/>
<text text-anchor="middle" x="528" y="-9.7" font-family="Source Sans Pro" font-size="16.00">VulkanBuffer::CreateInfo</text>
</a>
</g>
</g>
<!-- Node9&#45;&gt;Node8 -->
<g id="edge8" class="edge">
<title>Node9&#45;&gt;Node8</title>
<path fill="none" stroke="#9a32cd" stroke-dasharray="5,2" d="M628.5,-4.3C676.07,-2.33 733.52,-3.51 784,-14.5 800.07,-18 816.92,-25.56 829.88,-32.34"/>
<polygon fill="#9a32cd" stroke="#9a32cd" points="628.33,-0.8 618.5,-4.77 628.66,-7.8 628.33,-0.8"/>
<text text-anchor="middle" x="714" y="-19.7" font-family="Source Sans Pro" font-size="16.00"> createdWith</text>
</g>
</g>
</svg>
