<?xml version="1.0" encoding="UTF-8" standalone="no"?>
<!DOCTYPE svg PUBLIC "-//W3C//DTD SVG 1.1//EN"
 "http://www.w3.org/Graphics/SVG/1.1/DTD/svg11.dtd">
<!-- Generated by graphviz version 2.43.0 (0)
 -->
<!-- Title: IESettings Pages: 1 -->
<svg width="342pt" height="152pt"
 viewBox="0.00 0.00 342.00 152.00" xmlns="http://www.w3.org/2000/svg" xmlns:xlink="http://www.w3.org/1999/xlink">
<g id="graph0" class="graph" transform="scale(1 1) rotate(0) translate(4 148)">
<title>IESettings</title>
<polygon fill="white" stroke="transparent" points="-4,4 -4,-148 338,-148 338,4 -4,4"/>
<!-- Node1 -->
<g id="node1" class="node">
<title>Node1</title>
<g id="a_node1"><a xlink:title=" ">
<polygon fill="#bfbfbf" stroke="black" points="78.5,-0.5 78.5,-26.5 161.5,-26.5 161.5,-0.5 78.5,-0.5"/>
<text text-anchor="middle" x="120" y="-9.7" font-family="Source Sans Pro" font-size="16.00">IESettings</text>
</a>
</g>
</g>
<!-- Node2 -->
<g id="node2" class="node">
<title>Node2</title>
<g id="a_node2"><a xlink:href="class_i_e_1_1_core_1_1_logger.html" target="_top" xlink:title=" ">
<polygon fill="white" stroke="black" points="0,-117.5 0,-143.5 122,-143.5 122,-117.5 0,-117.5"/>
<text text-anchor="middle" x="61" y="-126.7" font-family="Source Sans Pro" font-size="16.00">IE::Core::Logger</text>
</a>
</g>
</g>
<!-- Node2&#45;&gt;Node1 -->
<g id="edge1" class="edge">
<title>Node2&#45;&gt;Node1</title>
<path fill="none" stroke="#9a32cd" stroke-dasharray="5,2" d="M71.94,-108.18C84.24,-84.21 103.78,-46.12 113.73,-26.72"/>
<polygon fill="#9a32cd" stroke="#9a32cd" points="68.76,-106.7 67.31,-117.19 74.99,-109.89 68.76,-106.7"/>
<text text-anchor="middle" x="128" y="-68.2" font-family="Source Sans Pro" font-size="16.00"> logger</text>
</g>
<!-- Node3 -->
<g id="node3" class="node">
<title>Node3</title>
<g id="a_node3"><a xlink:href="struct_i_e_version.html" target="_top" xlink:title=" ">
<polygon fill="white" stroke="black" points="140,-117.5 140,-143.5 220,-143.5 220,-117.5 140,-117.5"/>
<text text-anchor="middle" x="180" y="-126.7" font-family="Source Sans Pro" font-size="16.00">IEVersion</text>
</a>
</g>
</g>
<!-- Node3&#45;&gt;Node1 -->
<g id="edge2" class="edge">
<title>Node3&#45;&gt;Node1</title>
<path fill="none" stroke="#9a32cd" stroke-dasharray="5,2" d="M176.95,-107.33C173.7,-89.4 167.25,-64.08 155,-45 150.47,-37.95 143.85,-31.59 137.57,-26.53"/>
<polygon fill="#9a32cd" stroke="#9a32cd" points="173.53,-108.11 178.59,-117.42 180.44,-106.99 173.53,-108.11"/>
<text text-anchor="middle" x="254" y="-86.2" font-family="Source Sans Pro" font-size="16.00"> applicationVersion</text>
<text text-anchor="middle" x="254" y="-68.2" font-family="Source Sans Pro" font-size="16.00">desiredVulkanVersion</text>
<text text-anchor="middle" x="254" y="-50.2" font-family="Source Sans Pro" font-size="16.00">minimumVulkanVersion</text>
</g>
</g>
</svg>
