<?xml version="1.0" encoding="UTF-8" standalone="no"?>
<!DOCTYPE svg PUBLIC "-//W3C//DTD SVG 1.1//EN"
 "http://www.w3.org/Graphics/SVG/1.1/DTD/svg11.dtd">
<!-- Generated by graphviz version 2.43.0 (0)
 -->
<!-- Title: IEFramebuffer Pages: 1 -->
<svg width="520pt" height="332pt"
 viewBox="0.00 0.00 520.00 332.00" xmlns="http://www.w3.org/2000/svg" xmlns:xlink="http://www.w3.org/1999/xlink">
<g id="graph0" class="graph" transform="scale(1 1) rotate(0) translate(4 328)">
<title>IEFramebuffer</title>
<polygon fill="white" stroke="transparent" points="-4,4 -4,-328 516,-328 516,4 -4,4"/>
<!-- Node1 -->
<g id="node1" class="node">
<title>Node1</title>
<g id="a_node1"><a xlink:title=" ">
<polygon fill="#bfbfbf" stroke="black" points="28.5,-0.5 28.5,-26.5 141.5,-26.5 141.5,-0.5 28.5,-0.5"/>
<text text-anchor="middle" x="85" y="-9.7" font-family="Source Sans Pro" font-size="16.00">IEFramebuffer</text>
</a>
</g>
</g>
<!-- Node2 -->
<g id="node2" class="node">
<title>Node2</title>
<g id="a_node2"><a xlink:href="class_i_e_dependency.html" target="_top" xlink:title=" ">
<polygon fill="white" stroke="black" points="10.5,-81.5 10.5,-107.5 125.5,-107.5 125.5,-81.5 10.5,-81.5"/>
<text text-anchor="middle" x="68" y="-90.7" font-family="Source Sans Pro" font-size="16.00">IEDependency</text>
</a>
</g>
</g>
<!-- Node2&#45;&gt;Node1 -->
<g id="edge1" class="edge">
<title>Node2&#45;&gt;Node1</title>
<path fill="none" stroke="midnightblue" d="M72.83,-71.05C75.93,-56.67 79.82,-38.55 82.36,-26.76"/>
<polygon fill="midnightblue" stroke="midnightblue" points="69.34,-70.64 70.66,-81.16 76.18,-72.12 69.34,-70.64"/>
</g>
<!-- Node3 -->
<g id="node3" class="node">
<title>Node3</title>
<g id="a_node3"><a xlink:href="class_i_e_render_engine.html" target="_top" xlink:title=" ">
<polygon fill="white" stroke="black" points="201.5,-81.5 201.5,-107.5 326.5,-107.5 326.5,-81.5 201.5,-81.5"/>
<text text-anchor="middle" x="264" y="-90.7" font-family="Source Sans Pro" font-size="16.00">IERenderEngine</text>
</a>
</g>
</g>
<!-- Node3&#45;&gt;Node1 -->
<g id="edge2" class="edge">
<title>Node3&#45;&gt;Node1</title>
<path fill="none" stroke="#9a32cd" stroke-dasharray="5,2" d="M191.21,-91.15C164.6,-87.27 135.53,-79.2 113,-63 100.68,-54.15 92.98,-38.07 88.84,-26.87"/>
<polygon fill="#9a32cd" stroke="#9a32cd" points="190.9,-94.64 201.26,-92.44 191.79,-87.7 190.9,-94.64"/>
<text text-anchor="middle" x="183" y="-50.2" font-family="Source Sans Pro" font-size="16.00"> linkedRenderEngine</text>
</g>
<!-- Node4 -->
<g id="node4" class="node">
<title>Node4</title>
<g id="a_node4"><a xlink:href="class_i_e_camera.html" target="_top" xlink:title=" ">
<polygon fill="white" stroke="black" points="304,-0.5 304,-26.5 386,-26.5 386,-0.5 304,-0.5"/>
<text text-anchor="middle" x="345" y="-9.7" font-family="Source Sans Pro" font-size="16.00">IECamera</text>
</a>
</g>
</g>
<!-- Node3&#45;&gt;Node4 -->
<g id="edge4" class="edge">
<title>Node3&#45;&gt;Node4</title>
<path fill="none" stroke="#9a32cd" stroke-dasharray="5,2" d="M256.96,-71.4C255.48,-62.49 255.71,-52.55 261,-45 270.79,-31.02 287.68,-23.43 303.76,-19.31"/>
<polygon fill="#9a32cd" stroke="#9a32cd" points="253.57,-72.26 259.27,-81.19 260.38,-70.65 253.57,-72.26"/>
<text text-anchor="middle" x="331" y="-50.2" font-family="Source Sans Pro" font-size="16.00"> linkedRenderEngine</text>
</g>
<!-- Node4&#45;&gt;Node3 -->
<g id="edge3" class="edge">
<title>Node4&#45;&gt;Node3</title>
<path fill="none" stroke="#9a32cd" stroke-dasharray="5,2" d="M387.45,-31.02C403.1,-39.57 414.86,-50.77 405,-63 394.9,-75.52 359.41,-83.16 326.57,-87.66"/>
<polygon fill="#9a32cd" stroke="#9a32cd" points="388.98,-27.87 378.47,-26.55 385.86,-34.14 388.98,-27.87"/>
<text text-anchor="middle" x="435.5" y="-50.2" font-family="Source Sans Pro" font-size="16.00"> camera</text>
</g>
<!-- Node5 -->
<g id="node5" class="node">
<title>Node5</title>
<g id="a_node5"><a xlink:href="class_i_e_settings.html" target="_top" xlink:title=" ">
<polygon fill="white" stroke="black" points="88.5,-171.5 88.5,-197.5 171.5,-197.5 171.5,-171.5 88.5,-171.5"/>
<text text-anchor="middle" x="130" y="-180.7" font-family="Source Sans Pro" font-size="16.00">IESettings</text>
</a>
</g>
</g>
<!-- Node5&#45;&gt;Node3 -->
<g id="edge5" class="edge">
<title>Node5&#45;&gt;Node3</title>
<path fill="none" stroke="#9a32cd" stroke-dasharray="5,2" d="M151.67,-164.88C166.01,-153.02 185.51,-137.73 204,-126 214.66,-119.24 227,-112.75 237.71,-107.52"/>
<polygon fill="#9a32cd" stroke="#9a32cd" points="149.29,-162.31 143.87,-171.42 153.78,-167.68 149.29,-162.31"/>
<text text-anchor="middle" x="232" y="-131.2" font-family="Source Sans Pro" font-size="16.00"> settings</text>
</g>
<!-- Node6 -->
<g id="node6" class="node">
<title>Node6</title>
<g id="a_node6"><a xlink:href="class_i_e_1_1_core_1_1_logger.html" target="_top" xlink:title=" ">
<polygon fill="white" stroke="black" points="0,-297.5 0,-323.5 122,-323.5 122,-297.5 0,-297.5"/>
<text text-anchor="middle" x="61" y="-306.7" font-family="Source Sans Pro" font-size="16.00">IE::Core::Logger</text>
</a>
</g>
</g>
<!-- Node6&#45;&gt;Node5 -->
<g id="edge6" class="edge">
<title>Node6&#45;&gt;Node5</title>
<path fill="none" stroke="#9a32cd" stroke-dasharray="5,2" d="M55.6,-287.43C52.45,-269.39 50.99,-243.87 62,-225 69.22,-212.62 81.96,-203.75 94.48,-197.59"/>
<polygon fill="#9a32cd" stroke="#9a32cd" points="52.19,-288.23 57.62,-297.32 59.05,-286.82 52.19,-288.23"/>
<text text-anchor="middle" x="85" y="-248.2" font-family="Source Sans Pro" font-size="16.00"> logger</text>
</g>
<!-- Node7 -->
<g id="node7" class="node">
<title>Node7</title>
<g id="a_node7"><a xlink:href="struct_i_e_version.html" target="_top" xlink:title=" ">
<polygon fill="white" stroke="black" points="206,-297.5 206,-323.5 286,-323.5 286,-297.5 206,-297.5"/>
<text text-anchor="middle" x="246" y="-306.7" font-family="Source Sans Pro" font-size="16.00">IEVersion</text>
</a>
</g>
</g>
<!-- Node7&#45;&gt;Node5 -->
<g id="edge7" class="edge">
<title>Node7&#45;&gt;Node5</title>
<path fill="none" stroke="#9a32cd" stroke-dasharray="5,2" d="M195.9,-302.89C167.4,-297.98 135.68,-290.19 127,-279 108.58,-255.26 118.35,-217 125.19,-197.61"/>
<polygon fill="#9a32cd" stroke="#9a32cd" points="195.37,-306.35 205.81,-304.5 196.5,-299.44 195.37,-306.35"/>
<text text-anchor="middle" x="207" y="-266.2" font-family="Source Sans Pro" font-size="16.00"> applicationVersion</text>
<text text-anchor="middle" x="207" y="-248.2" font-family="Source Sans Pro" font-size="16.00">desiredVulkanVersion</text>
<text text-anchor="middle" x="207" y="-230.2" font-family="Source Sans Pro" font-size="16.00">minimumVulkanVersion</text>
</g>
<!-- Node8 -->
<g id="node8" class="node">
<title>Node8</title>
<g id="a_node8"><a xlink:href="class_i_e_a_p_i.html" target="_top" xlink:title=" ">
<polygon fill="white" stroke="black" points="238,-171.5 238,-197.5 290,-197.5 290,-171.5 238,-171.5"/>
<text text-anchor="middle" x="264" y="-180.7" font-family="Source Sans Pro" font-size="16.00">IEAPI</text>
</a>
</g>
</g>
<!-- Node7&#45;&gt;Node8 -->
<g id="edge9" class="edge">
<title>Node7&#45;&gt;Node8</title>
<path fill="none" stroke="#9a32cd" stroke-dasharray="5,2" d="M280.93,-291.3C284.97,-287.76 288.52,-283.67 291,-279 302.24,-257.8 298.09,-247.93 291,-225 287.86,-214.84 281.11,-204.97 275.14,-197.63"/>
<polygon fill="#9a32cd" stroke="#9a32cd" points="278.65,-288.64 272.73,-297.43 282.84,-294.25 278.65,-288.64"/>
<text text-anchor="middle" x="323.5" y="-248.2" font-family="Source Sans Pro" font-size="16.00"> version</text>
</g>
<!-- Node8&#45;&gt;Node3 -->
<g id="edge8" class="edge">
<title>Node8&#45;&gt;Node3</title>
<path fill="none" stroke="#9a32cd" stroke-dasharray="5,2" d="M264,-161.07C264,-144.08 264,-121.38 264,-107.63"/>
<polygon fill="#9a32cd" stroke="#9a32cd" points="260.5,-161.26 264,-171.26 267.5,-161.26 260.5,-161.26"/>
<text text-anchor="middle" x="277" y="-131.2" font-family="Source Sans Pro" font-size="16.00"> API</text>
</g>
<!-- Node9 -->
<g id="node9" class="node">
<title>Node9</title>
<g id="a_node9"><a xlink:href="struct_i_e_render_engine_1_1_extension_and_feature_info.html" target="_top" xlink:title=" ">
<polygon fill="white" stroke="black" points="308,-162.5 308,-206.5 506,-206.5 506,-162.5 308,-162.5"/>
<text text-anchor="start" x="316" y="-189.7" font-family="Source Sans Pro" font-size="16.00">IERenderEngine::Extension</text>
<text text-anchor="middle" x="407" y="-171.7" font-family="Source Sans Pro" font-size="16.00">AndFeatureInfo</text>
</a>
</g>
</g>
<!-- Node9&#45;&gt;Node3 -->
<g id="edge10" class="edge">
<title>Node9&#45;&gt;Node3</title>
<path fill="none" stroke="#9a32cd" stroke-dasharray="5,2" d="M363.99,-157.03C337.39,-140.66 304.5,-120.42 283.87,-107.73"/>
<polygon fill="#9a32cd" stroke="#9a32cd" points="362.4,-160.16 372.75,-162.42 366.07,-154.2 362.4,-160.16"/>
<text text-anchor="middle" x="425.5" y="-131.2" font-family="Source Sans Pro" font-size="16.00"> extensionAndFeatureInfo</text>
</g>
</g>
</svg>
