<?xml version="1.0" encoding="UTF-8" standalone="no"?>
<!DOCTYPE svg PUBLIC "-//W3C//DTD SVG 1.1//EN"
 "http://www.w3.org/Graphics/SVG/1.1/DTD/svg11.dtd">
<!-- Generated by graphviz version 2.43.0 (0)
 -->
<!-- Title: IECommandPool Pages: 1 -->
<svg width="1225pt" height="243pt"
 viewBox="0.00 0.00 1225.00 243.00" xmlns="http://www.w3.org/2000/svg" xmlns:xlink="http://www.w3.org/1999/xlink">
<g id="graph0" class="graph" transform="scale(1 1) rotate(0) translate(4 239)">
<title>IECommandPool</title>
<polygon fill="white" stroke="transparent" points="-4,4 -4,-239 1221,-239 1221,4 -4,4"/>
<!-- Node1 -->
<g id="node1" class="node">
<title>Node1</title>
<g id="a_node1"><a xlink:title=" ">
<polygon fill="#bfbfbf" stroke="black" points="1086,-145.5 1086,-171.5 1217,-171.5 1217,-145.5 1086,-145.5"/>
<text text-anchor="middle" x="1151.5" y="-154.7" font-family="Source Sans Pro" font-size="16.00">IECommandPool</text>
</a>
</g>
</g>
<!-- Node2 -->
<g id="node2" class="node">
<title>Node2</title>
<g id="a_node2"><a xlink:title=" ">
<polygon fill="white" stroke="black" points="683,-190.5 683,-234.5 910,-234.5 910,-190.5 683,-190.5"/>
<text text-anchor="start" x="691" y="-217.7" font-family="Source Sans Pro" font-size="16.00">std::enable_shared</text>
<text text-anchor="middle" x="796.5" y="-199.7" font-family="Source Sans Pro" font-size="16.00">_from_this&lt; IECommandPool &gt;</text>
</a>
</g>
</g>
<!-- Node2&#45;&gt;Node1 -->
<g id="edge1" class="edge">
<title>Node2&#45;&gt;Node1</title>
<path fill="none" stroke="midnightblue" d="M920.36,-201.71C966.84,-196.65 1020.08,-189.68 1068,-180.5 1080.52,-178.1 1093.94,-174.83 1106.24,-171.55"/>
<polygon fill="midnightblue" stroke="midnightblue" points="919.82,-198.25 910.25,-202.8 920.56,-205.21 919.82,-198.25"/>
</g>
<!-- Node3 -->
<g id="node3" class="node">
<title>Node3</title>
<g id="a_node3"><a xlink:href="struct_i_e_command_pool_1_1_create_info.html" target="_top" xlink:title=" ">
<polygon fill="white" stroke="black" points="692,-145.5 692,-171.5 901,-171.5 901,-145.5 692,-145.5"/>
<text text-anchor="middle" x="796.5" y="-154.7" font-family="Source Sans Pro" font-size="16.00">IECommandPool::CreateInfo</text>
</a>
</g>
</g>
<!-- Node3&#45;&gt;Node1 -->
<g id="edge2" class="edge">
<title>Node3&#45;&gt;Node1</title>
<path fill="none" stroke="#9a32cd" stroke-dasharray="5,2" d="M911.31,-158.5C969.08,-158.5 1037.14,-158.5 1085.86,-158.5"/>
<polygon fill="#9a32cd" stroke="#9a32cd" points="911.03,-155 901.03,-158.5 911.03,-162 911.03,-155"/>
<text text-anchor="middle" x="998" y="-163.7" font-family="Source Sans Pro" font-size="16.00"> createdWith</text>
</g>
<!-- Node4 -->
<g id="node4" class="node">
<title>Node4</title>
<g id="a_node4"><a xlink:href="class_i_e_render_engine.html" target="_top" xlink:title=" ">
<polygon fill="white" stroke="black" points="734,-63.5 734,-89.5 859,-89.5 859,-63.5 734,-63.5"/>
<text text-anchor="middle" x="796.5" y="-72.7" font-family="Source Sans Pro" font-size="16.00">IERenderEngine</text>
</a>
</g>
</g>
<!-- Node4&#45;&gt;Node1 -->
<g id="edge3" class="edge">
<title>Node4&#45;&gt;Node1</title>
<path fill="none" stroke="#9a32cd" stroke-dasharray="5,2" d="M869.11,-91.52C923.75,-103.19 1000.8,-120.1 1068,-136.5 1079.38,-139.28 1091.59,-142.44 1103.04,-145.48"/>
<polygon fill="#9a32cd" stroke="#9a32cd" points="869.69,-88.06 859.18,-89.4 868.23,-94.91 869.69,-88.06"/>
<text text-anchor="middle" x="998" y="-141.7" font-family="Source Sans Pro" font-size="16.00"> linkedRenderEngine</text>
</g>
<!-- Node5 -->
<g id="node5" class="node">
<title>Node5</title>
<g id="a_node5"><a xlink:href="class_i_e_camera.html" target="_top" xlink:title=" ">
<polygon fill="white" stroke="black" points="1110.5,-43.5 1110.5,-69.5 1192.5,-69.5 1192.5,-43.5 1110.5,-43.5"/>
<text text-anchor="middle" x="1151.5" y="-52.7" font-family="Source Sans Pro" font-size="16.00">IECamera</text>
</a>
</g>
</g>
<!-- Node4&#45;&gt;Node5 -->
<g id="edge5" class="edge">
<title>Node4&#45;&gt;Node5</title>
<path fill="none" stroke="#9a32cd" stroke-dasharray="5,2" d="M869.4,-72.43C942.1,-68.31 1051.85,-62.09 1110.39,-58.77"/>
<polygon fill="#9a32cd" stroke="#9a32cd" points="869.18,-68.93 859.39,-72.99 869.57,-75.92 869.18,-68.93"/>
<text text-anchor="middle" x="998" y="-73.7" font-family="Source Sans Pro" font-size="16.00"> linkedRenderEngine</text>
</g>
<!-- Node5&#45;&gt;Node4 -->
<g id="edge4" class="edge">
<title>Node5&#45;&gt;Node4</title>
<path fill="none" stroke="#9a32cd" stroke-dasharray="5,2" d="M1100.23,-42.31C1089.67,-39.89 1078.54,-37.76 1068,-36.5 1006.22,-29.12 989.54,-27.28 928,-36.5 893.9,-41.61 856.41,-53.83 830.39,-63.43"/>
<polygon fill="#9a32cd" stroke="#9a32cd" points="1099.61,-45.76 1110.15,-44.69 1101.24,-38.95 1099.61,-45.76"/>
<text text-anchor="middle" x="998" y="-41.7" font-family="Source Sans Pro" font-size="16.00"> camera</text>
</g>
<!-- Node6 -->
<g id="node6" class="node">
<title>Node6</title>
<g id="a_node6"><a xlink:href="class_i_e_settings.html" target="_top" xlink:title=" ">
<polygon fill="white" stroke="black" points="333.5,-108.5 333.5,-134.5 416.5,-134.5 416.5,-108.5 333.5,-108.5"/>
<text text-anchor="middle" x="375" y="-117.7" font-family="Source Sans Pro" font-size="16.00">IESettings</text>
</a>
</g>
</g>
<!-- Node6&#45;&gt;Node4 -->
<g id="edge6" class="edge">
<title>Node6&#45;&gt;Node4</title>
<path fill="none" stroke="#9a32cd" stroke-dasharray="5,2" d="M427.12,-118.44C484.97,-114.71 581.96,-107.61 665,-97.5 687.55,-94.75 712.18,-90.99 733.9,-87.41"/>
<polygon fill="#9a32cd" stroke="#9a32cd" points="426.54,-114.97 416.78,-119.1 426.98,-121.96 426.54,-114.97"/>
<text text-anchor="middle" x="578.5" y="-118.7" font-family="Source Sans Pro" font-size="16.00"> settings</text>
</g>
<!-- Node7 -->
<g id="node7" class="node">
<title>Node7</title>
<g id="a_node7"><a xlink:href="class_i_e_logger.html" target="_top" xlink:title="A small logging tool that is a very thin wrapper for spdlog.">
<polygon fill="white" stroke="black" points="2.5,-181.5 2.5,-207.5 77.5,-207.5 77.5,-181.5 2.5,-181.5"/>
<text text-anchor="middle" x="40" y="-190.7" font-family="Source Sans Pro" font-size="16.00">IELogger</text>
</a>
</g>
</g>
<!-- Node7&#45;&gt;Node6 -->
<g id="edge7" class="edge">
<title>Node7&#45;&gt;Node6</title>
<path fill="none" stroke="#9a32cd" stroke-dasharray="5,2" d="M87.88,-193.22C132.32,-191.09 200.61,-185.45 258,-170.5 290.58,-162.01 325.94,-146 348.94,-134.59"/>
<polygon fill="#9a32cd" stroke="#9a32cd" points="87.51,-189.73 77.67,-193.67 87.82,-196.72 87.51,-189.73"/>
<text text-anchor="middle" x="178" y="-197.7" font-family="Source Sans Pro" font-size="16.00"> logger</text>
</g>
<!-- Node8 -->
<g id="node8" class="node">
<title>Node8</title>
<g id="a_node8"><a xlink:href="struct_i_e_version.html" target="_top" xlink:title=" ">
<polygon fill="white" stroke="black" points="0,-84.5 0,-110.5 80,-110.5 80,-84.5 0,-84.5"/>
<text text-anchor="middle" x="40" y="-93.7" font-family="Source Sans Pro" font-size="16.00">IEVersion</text>
</a>
</g>
</g>
<!-- Node8&#45;&gt;Node6 -->
<g id="edge8" class="edge">
<title>Node8&#45;&gt;Node6</title>
<path fill="none" stroke="#9a32cd" stroke-dasharray="5,2" d="M90.33,-101.06C156.34,-105.81 272.18,-114.16 333.41,-118.57"/>
<polygon fill="#9a32cd" stroke="#9a32cd" points="90.4,-97.55 80.18,-100.32 89.9,-104.53 90.4,-97.55"/>
<text text-anchor="middle" x="178" y="-153.7" font-family="Source Sans Pro" font-size="16.00"> applicationVersion</text>
<text text-anchor="middle" x="178" y="-135.7" font-family="Source Sans Pro" font-size="16.00">desiredVulkanVersion</text>
<text text-anchor="middle" x="178" y="-117.7" font-family="Source Sans Pro" font-size="16.00">minimumVulkanVersion</text>
</g>
<!-- Node9 -->
<g id="node9" class="node">
<title>Node9</title>
<g id="a_node9"><a xlink:href="class_i_e_a_p_i.html" target="_top" xlink:title=" ">
<polygon fill="white" stroke="black" points="349,-63.5 349,-89.5 401,-89.5 401,-63.5 349,-63.5"/>
<text text-anchor="middle" x="375" y="-72.7" font-family="Source Sans Pro" font-size="16.00">IEAPI</text>
</a>
</g>
</g>
<!-- Node8&#45;&gt;Node9 -->
<g id="edge10" class="edge">
<title>Node8&#45;&gt;Node9</title>
<path fill="none" stroke="#9a32cd" stroke-dasharray="5,2" d="M81.7,-81.39C87.11,-79.79 92.64,-78.42 98,-77.5 189.14,-61.8 299.73,-69.21 348.64,-73.8"/>
<polygon fill="#9a32cd" stroke="#9a32cd" points="80.6,-78.07 72.16,-84.47 82.75,-84.73 80.6,-78.07"/>
<text text-anchor="middle" x="178" y="-82.7" font-family="Source Sans Pro" font-size="16.00"> version</text>
</g>
<!-- Node9&#45;&gt;Node4 -->
<g id="edge9" class="edge">
<title>Node9&#45;&gt;Node4</title>
<path fill="none" stroke="#9a32cd" stroke-dasharray="5,2" d="M411.56,-76.5C483.02,-76.5 644.76,-76.5 733.82,-76.5"/>
<polygon fill="#9a32cd" stroke="#9a32cd" points="411.3,-73 401.3,-76.5 411.3,-80 411.3,-73"/>
<text text-anchor="middle" x="578.5" y="-81.7" font-family="Source Sans Pro" font-size="16.00"> API</text>
</g>
<!-- Node10 -->
<g id="node10" class="node">
<title>Node10</title>
<g id="a_node10"><a xlink:href="struct_i_e_render_engine_1_1_extension_and_feature_info.html" target="_top" xlink:title=" ">
<polygon fill="white" stroke="black" points="276,-0.5 276,-44.5 474,-44.5 474,-0.5 276,-0.5"/>
<text text-anchor="start" x="284" y="-27.7" font-family="Source Sans Pro" font-size="16.00">IERenderEngine::Extension</text>
<text text-anchor="middle" x="375" y="-9.7" font-family="Source Sans Pro" font-size="16.00">AndFeatureInfo</text>
</a>
</g>
</g>
<!-- Node10&#45;&gt;Node4 -->
<g id="edge11" class="edge">
<title>Node10&#45;&gt;Node4</title>
<path fill="none" stroke="#9a32cd" stroke-dasharray="5,2" d="M484.16,-33.01C538.51,-38.66 605.34,-46.18 665,-54.5 687.53,-57.64 712.15,-61.65 733.87,-65.37"/>
<polygon fill="#9a32cd" stroke="#9a32cd" points="484.46,-29.52 474.16,-31.97 483.74,-36.48 484.46,-29.52"/>
<text text-anchor="middle" x="578.5" y="-59.7" font-family="Source Sans Pro" font-size="16.00"> extensionAndFeatureInfo</text>
</g>
</g>
</svg>
