<?xml version="1.0" encoding="UTF-8" standalone="no"?>
<!DOCTYPE svg PUBLIC "-//W3C//DTD SVG 1.1//EN"
 "http://www.w3.org/Graphics/SVG/1.1/DTD/svg11.dtd">
<!-- Generated by graphviz version 2.43.0 (0)
 -->
<!-- Title: IEDescriptorSet Pages: 1 -->
<svg width="338pt" height="116pt"
 viewBox="0.00 0.00 338.00 116.00" xmlns="http://www.w3.org/2000/svg" xmlns:xlink="http://www.w3.org/1999/xlink">
<g id="graph0" class="graph" transform="scale(1 1) rotate(0) translate(4 112)">
<title>IEDescriptorSet</title>
<polygon fill="white" stroke="transparent" points="-4,4 -4,-112 334,-112 334,4 -4,4"/>
<!-- Node1 -->
<g id="node1" class="node">
<title>Node1</title>
<g id="a_node1"><a xlink:title=" ">
<polygon fill="#bfbfbf" stroke="black" points="85,-0.5 85,-26.5 204,-26.5 204,-0.5 85,-0.5"/>
<text text-anchor="middle" x="144.5" y="-9.7" font-family="Source Sans Pro" font-size="16.00">IEDescriptorSet</text>
</a>
</g>
</g>
<!-- Node2 -->
<g id="node2" class="node">
<title>Node2</title>
<g id="a_node2"><a xlink:href="class_i_e_dependency.html" target="_top" xlink:title=" ">
<polygon fill="white" stroke="black" points="0,-81.5 0,-107.5 115,-107.5 115,-81.5 0,-81.5"/>
<text text-anchor="middle" x="57.5" y="-90.7" font-family="Source Sans Pro" font-size="16.00">IEDependency</text>
</a>
</g>
</g>
<!-- Node2&#45;&gt;Node1 -->
<g id="edge1" class="edge">
<title>Node2&#45;&gt;Node1</title>
<path fill="none" stroke="midnightblue" d="M78.58,-74.36C94.89,-59.55 116.99,-39.48 131,-26.76"/>
<polygon fill="midnightblue" stroke="midnightblue" points="76.14,-71.84 71.09,-81.16 80.85,-77.02 76.14,-71.84"/>
</g>
<!-- Node3 -->
<g id="node3" class="node">
<title>Node3</title>
<g id="a_node3"><a xlink:href="struct_i_e_descriptor_set_1_1_create_info.html" target="_top" xlink:title=" ">
<polygon fill="white" stroke="black" points="133,-81.5 133,-107.5 330,-107.5 330,-81.5 133,-81.5"/>
<text text-anchor="middle" x="231.5" y="-90.7" font-family="Source Sans Pro" font-size="16.00">IEDescriptorSet::CreateInfo</text>
</a>
</g>
</g>
<!-- Node3&#45;&gt;Node1 -->
<g id="edge2" class="edge">
<title>Node3&#45;&gt;Node1</title>
<path fill="none" stroke="#9a32cd" stroke-dasharray="5,2" d="M210.42,-74.36C194.11,-59.55 172.01,-39.48 158,-26.76"/>
<polygon fill="#9a32cd" stroke="#9a32cd" points="208.15,-77.02 217.91,-81.16 212.86,-71.84 208.15,-77.02"/>
<text text-anchor="middle" x="239" y="-50.2" font-family="Source Sans Pro" font-size="16.00"> createdWith</text>
</g>
</g>
</svg>
