<?xml version="1.0" encoding="UTF-8" standalone="no"?>
<!DOCTYPE svg PUBLIC "-//W3C//DTD SVG 1.1//EN"
 "http://www.w3.org/Graphics/SVG/1.1/DTD/svg11.dtd">
<!-- Generated by graphviz version 2.43.0 (0)
 -->
<!-- Title: VulkanImage Pages: 1 -->
<svg width="532pt" height="395pt"
 viewBox="0.00 0.00 531.50 395.00" xmlns="http://www.w3.org/2000/svg" xmlns:xlink="http://www.w3.org/1999/xlink">
<g id="graph0" class="graph" transform="scale(1 1) rotate(0) translate(4 391)">
<title>VulkanImage</title>
<polygon fill="white" stroke="transparent" points="-4,4 -4,-391 527.5,-391 527.5,4 -4,4"/>
<!-- Node1 -->
<g id="node1" class="node">
<title>Node1</title>
<g id="a_node1"><a xlink:title=" ">
<polygon fill="#bfbfbf" stroke="black" points="237.5,-0.5 237.5,-26.5 341.5,-26.5 341.5,-0.5 237.5,-0.5"/>
<text text-anchor="middle" x="289.5" y="-9.7" font-family="Source Sans Pro" font-size="16.00">VulkanImage</text>
</a>
</g>
</g>
<!-- Node2 -->
<g id="node2" class="node">
<title>Node2</title>
<g id="a_node2"><a xlink:href="struct_vulkan_image_1_1_create_info.html" target="_top" xlink:title=" ">
<polygon fill="white" stroke="black" points="135,-81.5 135,-107.5 316,-107.5 316,-81.5 135,-81.5"/>
<text text-anchor="middle" x="225.5" y="-90.7" font-family="Source Sans Pro" font-size="16.00">VulkanImage::CreateInfo</text>
</a>
</g>
</g>
<!-- Node2&#45;&gt;Node1 -->
<g id="edge1" class="edge">
<title>Node2&#45;&gt;Node1</title>
<path fill="none" stroke="#9a32cd" stroke-dasharray="5,2" d="M236.26,-72.28C241.23,-63.43 247.57,-53.29 254.5,-45 260.08,-38.32 267.19,-31.85 273.53,-26.6"/>
<polygon fill="#9a32cd" stroke="#9a32cd" points="233.1,-70.78 231.44,-81.25 239.26,-74.1 233.1,-70.78"/>
<text text-anchor="middle" x="297" y="-50.2" font-family="Source Sans Pro" font-size="16.00"> createdWith</text>
</g>
<!-- Node3 -->
<g id="node3" class="node">
<title>Node3</title>
<g id="a_node3"><a xlink:href="class_vulkan_buffer.html" target="_top" xlink:title=" ">
<polygon fill="white" stroke="black" points="147,-162.5 147,-188.5 250,-188.5 250,-162.5 147,-162.5"/>
<text text-anchor="middle" x="198.5" y="-171.7" font-family="Source Sans Pro" font-size="16.00">VulkanBuffer</text>
</a>
</g>
</g>
<!-- Node3&#45;&gt;Node2 -->
<g id="edge2" class="edge">
<title>Node3&#45;&gt;Node2</title>
<path fill="none" stroke="#9a32cd" stroke-dasharray="5,2" d="M206.03,-152.47C210.97,-138.02 217.24,-119.67 221.31,-107.76"/>
<polygon fill="#9a32cd" stroke="#9a32cd" points="202.64,-151.56 202.72,-162.16 209.26,-153.83 202.64,-151.56"/>
<text text-anchor="middle" x="253.5" y="-131.2" font-family="Source Sans Pro" font-size="16.00"> dataSource</text>
</g>
<!-- Node4 -->
<g id="node4" class="node">
<title>Node4</title>
<g id="a_node4"><a xlink:href="struct_vulkan_buffer_1_1_create_info.html" target="_top" xlink:title=" ">
<polygon fill="white" stroke="black" points="0,-243.5 0,-269.5 181,-269.5 181,-243.5 0,-243.5"/>
<text text-anchor="middle" x="90.5" y="-252.7" font-family="Source Sans Pro" font-size="16.00">VulkanBuffer::CreateInfo</text>
</a>
</g>
</g>
<!-- Node4&#45;&gt;Node3 -->
<g id="edge3" class="edge">
<title>Node4&#45;&gt;Node3</title>
<path fill="none" stroke="#9a32cd" stroke-dasharray="5,2" d="M85.6,-233.5C84.85,-224.45 85.81,-214.38 91.5,-207 104.53,-190.1 126.25,-182.1 146.73,-178.48"/>
<polygon fill="#9a32cd" stroke="#9a32cd" points="82.14,-234.05 87.08,-243.43 89.07,-233.02 82.14,-234.05"/>
<text text-anchor="middle" x="134" y="-212.2" font-family="Source Sans Pro" font-size="16.00"> createdWith</text>
</g>
<!-- Node5 -->
<g id="node5" class="node">
<title>Node5</title>
<g id="a_node5"><a xlink:href="class_vulkan_graphics_engine_link.html" target="_top" xlink:title=" ">
<polygon fill="white" stroke="black" points="227.5,-243.5 227.5,-269.5 423.5,-269.5 423.5,-243.5 227.5,-243.5"/>
<text text-anchor="middle" x="325.5" y="-252.7" font-family="Source Sans Pro" font-size="16.00">VulkanGraphicsEngineLink</text>
</a>
</g>
</g>
<!-- Node5&#45;&gt;Node1 -->
<g id="edge6" class="edge">
<title>Node5&#45;&gt;Node1</title>
<path fill="none" stroke="#9a32cd" stroke-dasharray="5,2" d="M336.62,-234.28C337.81,-231.24 338.83,-228.09 339.5,-225 356.58,-146.84 378.66,-114.76 339.5,-45 335.12,-37.2 327.84,-31.16 320.18,-26.58"/>
<polygon fill="#9a32cd" stroke="#9a32cd" points="333.41,-232.9 332.48,-243.46 339.79,-235.78 333.41,-232.9"/>
<text text-anchor="middle" x="430.5" y="-131.2" font-family="Source Sans Pro" font-size="16.00"> linkedRenderEngine</text>
</g>
<!-- Node5&#45;&gt;Node3 -->
<g id="edge4" class="edge">
<title>Node5&#45;&gt;Node3</title>
<path fill="none" stroke="#9a32cd" stroke-dasharray="5,2" d="M232.72,-240.96C217.34,-236.74 204.7,-231.47 199.5,-225 191.38,-214.89 192.66,-199.39 194.98,-188.65"/>
<polygon fill="#9a32cd" stroke="#9a32cd" points="232.05,-244.41 242.61,-243.46 233.77,-237.62 232.05,-244.41"/>
<text text-anchor="middle" x="269.5" y="-212.2" font-family="Source Sans Pro" font-size="16.00"> linkedRenderEngine</text>
</g>
<!-- Node6 -->
<g id="node6" class="node">
<title>Node6</title>
<g id="a_node6"><a xlink:href="struct_vulkan_graphics_engine_link_1_1_physical_device_info.html" target="_top" xlink:title=" ">
<polygon fill="white" stroke="black" points="227.5,-342.5 227.5,-386.5 423.5,-386.5 423.5,-342.5 227.5,-342.5"/>
<text text-anchor="start" x="235.5" y="-369.7" font-family="Source Sans Pro" font-size="16.00">VulkanGraphicsEngineLink</text>
<text text-anchor="middle" x="325.5" y="-351.7" font-family="Source Sans Pro" font-size="16.00">::PhysicalDeviceInfo</text>
</a>
</g>
</g>
<!-- Node6&#45;&gt;Node5 -->
<g id="edge5" class="edge">
<title>Node6&#45;&gt;Node5</title>
<path fill="none" stroke="#9a32cd" stroke-dasharray="5,2" d="M325.5,-332.24C325.5,-311.31 325.5,-284.9 325.5,-269.73"/>
<polygon fill="#9a32cd" stroke="#9a32cd" points="322,-332.3 325.5,-342.3 329,-332.3 322,-332.3"/>
<text text-anchor="middle" x="424.5" y="-311.2" font-family="Source Sans Pro" font-size="16.00"> enabledPhysicalDeviceInfo</text>
<text text-anchor="middle" x="424.5" y="-293.2" font-family="Source Sans Pro" font-size="16.00">supportedPhysicalDeviceInfo</text>
</g>
</g>
</svg>
