<?xml version="1.0" encoding="UTF-8" standalone="no"?>
<!DOCTYPE svg PUBLIC "-//W3C//DTD SVG 1.1//EN"
 "http://www.w3.org/Graphics/SVG/1.1/DTD/svg11.dtd">
<!-- Generated by graphviz version 2.43.0 (0)
 -->
<!-- Title: IEDependency Pages: 1 -->
<svg width="665pt" height="161pt"
 viewBox="0.00 0.00 664.50 161.00" xmlns="http://www.w3.org/2000/svg" xmlns:xlink="http://www.w3.org/1999/xlink">
<g id="graph0" class="graph" transform="scale(1 1) rotate(0) translate(4 157)">
<title>IEDependency</title>
<polygon fill="white" stroke="transparent" points="-4,4 -4,-157 660.5,-157 660.5,4 -4,4"/>
<!-- Node1 -->
<g id="node1" class="node">
<title>Node1</title>
<g id="a_node1"><a xlink:title=" ">
<polygon fill="#bfbfbf" stroke="black" points="280,-126.5 280,-152.5 395,-152.5 395,-126.5 280,-126.5"/>
<text text-anchor="middle" x="337.5" y="-135.7" font-family="Source Sans Pro" font-size="16.00">IEDependency</text>
</a>
</g>
</g>
<!-- Node2 -->
<g id="node2" class="node">
<title>Node2</title>
<g id="a_node2"><a xlink:href="class_i_e_buffer.html" target="_top" xlink:title=" ">
<polygon fill="white" stroke="black" points="0,-63.5 0,-89.5 71,-89.5 71,-63.5 0,-63.5"/>
<text text-anchor="middle" x="35.5" y="-72.7" font-family="Source Sans Pro" font-size="16.00">IEBuffer</text>
</a>
</g>
</g>
<!-- Node1&#45;&gt;Node2 -->
<g id="edge1" class="edge">
<title>Node1&#45;&gt;Node2</title>
<path fill="none" stroke="midnightblue" d="M269.69,-127.31C217.68,-118.34 144.24,-104.84 80.5,-90 77.5,-89.3 74.4,-88.53 71.29,-87.74"/>
<polygon fill="midnightblue" stroke="midnightblue" points="269.35,-130.81 279.79,-129.04 270.53,-123.91 269.35,-130.81"/>
</g>
<!-- Node3 -->
<g id="node3" class="node">
<title>Node3</title>
<g id="a_node3"><a xlink:href="class_i_e_descriptor_set.html" target="_top" xlink:title=" ">
<polygon fill="white" stroke="black" points="89,-63.5 89,-89.5 208,-89.5 208,-63.5 89,-63.5"/>
<text text-anchor="middle" x="148.5" y="-72.7" font-family="Source Sans Pro" font-size="16.00">IEDescriptorSet</text>
</a>
</g>
</g>
<!-- Node1&#45;&gt;Node3 -->
<g id="edge2" class="edge">
<title>Node1&#45;&gt;Node3</title>
<path fill="none" stroke="midnightblue" d="M290.47,-123.32C258.13,-112.88 215.77,-99.21 185.76,-89.53"/>
<polygon fill="midnightblue" stroke="midnightblue" points="289.57,-126.71 300.16,-126.45 291.72,-120.05 289.57,-126.71"/>
</g>
<!-- Node4 -->
<g id="node4" class="node">
<title>Node4</title>
<g id="a_node4"><a xlink:href="class_i_e_framebuffer.html" target="_top" xlink:title=" ">
<polygon fill="white" stroke="black" points="226,-63.5 226,-89.5 339,-89.5 339,-63.5 226,-63.5"/>
<text text-anchor="middle" x="282.5" y="-72.7" font-family="Source Sans Pro" font-size="16.00">IEFramebuffer</text>
</a>
</g>
</g>
<!-- Node1&#45;&gt;Node4 -->
<g id="edge3" class="edge">
<title>Node1&#45;&gt;Node4</title>
<path fill="none" stroke="midnightblue" d="M319.77,-118.84C311.07,-109.19 300.87,-97.88 293.34,-89.53"/>
<polygon fill="midnightblue" stroke="midnightblue" points="317.34,-121.37 326.63,-126.45 322.54,-116.68 317.34,-121.37"/>
</g>
<!-- Node5 -->
<g id="node5" class="node">
<title>Node5</title>
<g id="a_node5"><a xlink:href="class_i_e_image.html" target="_top" xlink:title=" ">
<polygon fill="white" stroke="black" points="357,-63.5 357,-89.5 428,-89.5 428,-63.5 357,-63.5"/>
<text text-anchor="middle" x="392.5" y="-72.7" font-family="Source Sans Pro" font-size="16.00">IEImage</text>
</a>
</g>
</g>
<!-- Node1&#45;&gt;Node5 -->
<g id="edge4" class="edge">
<title>Node1&#45;&gt;Node5</title>
<path fill="none" stroke="midnightblue" d="M355.23,-118.84C363.93,-109.19 374.13,-97.88 381.66,-89.53"/>
<polygon fill="midnightblue" stroke="midnightblue" points="352.46,-116.68 348.37,-126.45 357.66,-121.37 352.46,-116.68"/>
</g>
<!-- Node7 -->
<g id="node7" class="node">
<title>Node7</title>
<g id="a_node7"><a xlink:href="class_i_e_pipeline.html" target="_top" xlink:title=" ">
<polygon fill="white" stroke="black" points="446.5,-63.5 446.5,-89.5 530.5,-89.5 530.5,-63.5 446.5,-63.5"/>
<text text-anchor="middle" x="488.5" y="-72.7" font-family="Source Sans Pro" font-size="16.00">IEPipeline</text>
</a>
</g>
</g>
<!-- Node1&#45;&gt;Node7 -->
<g id="edge6" class="edge">
<title>Node1&#45;&gt;Node7</title>
<path fill="none" stroke="midnightblue" d="M376.76,-122.64C402.37,-112.3 435.27,-99 458.73,-89.53"/>
<polygon fill="midnightblue" stroke="midnightblue" points="375.29,-119.46 367.33,-126.45 377.92,-125.95 375.29,-119.46"/>
</g>
<!-- Node8 -->
<g id="node8" class="node">
<title>Node8</title>
<g id="a_node8"><a xlink:href="class_i_e_render_pass.html" target="_top" xlink:title=" ">
<polygon fill="white" stroke="black" points="548.5,-63.5 548.5,-89.5 656.5,-89.5 656.5,-63.5 548.5,-63.5"/>
<text text-anchor="middle" x="602.5" y="-72.7" font-family="Source Sans Pro" font-size="16.00">IERenderPass</text>
</a>
</g>
</g>
<!-- Node1&#45;&gt;Node8 -->
<g id="edge7" class="edge">
<title>Node1&#45;&gt;Node8</title>
<path fill="none" stroke="midnightblue" d="M399.66,-124.19C445.45,-113.65 507,-99.48 550.25,-89.53"/>
<polygon fill="midnightblue" stroke="midnightblue" points="398.82,-120.79 389.86,-126.45 400.39,-127.62 398.82,-120.79"/>
</g>
<!-- Node6 -->
<g id="node6" class="node">
<title>Node6</title>
<g id="a_node6"><a xlink:href="class_i_e_texture.html" target="_top" xlink:title=" ">
<polygon fill="white" stroke="black" points="353,-0.5 353,-26.5 432,-26.5 432,-0.5 353,-0.5"/>
<text text-anchor="middle" x="392.5" y="-9.7" font-family="Source Sans Pro" font-size="16.00">IETexture</text>
</a>
</g>
</g>
<!-- Node5&#45;&gt;Node6 -->
<g id="edge5" class="edge">
<title>Node5&#45;&gt;Node6</title>
<path fill="none" stroke="midnightblue" d="M392.5,-53.19C392.5,-44.18 392.5,-34.12 392.5,-26.53"/>
<polygon fill="midnightblue" stroke="midnightblue" points="389,-53.45 392.5,-63.45 396,-53.45 389,-53.45"/>
</g>
</g>
</svg>
