<?xml version="1.0" encoding="UTF-8" standalone="no"?>
<!DOCTYPE svg PUBLIC "-//W3C//DTD SVG 1.1//EN"
 "http://www.w3.org/Graphics/SVG/1.1/DTD/svg11.dtd">
<!-- Generated by graphviz version 2.43.0 (0)
 -->
<!-- Title: IETexture Pages: 1 -->
<svg width="308pt" height="179pt"
 viewBox="0.00 0.00 308.00 179.00" xmlns="http://www.w3.org/2000/svg" xmlns:xlink="http://www.w3.org/1999/xlink">
<g id="graph0" class="graph" transform="scale(1 1) rotate(0) translate(4 175)">
<title>IETexture</title>
<polygon fill="white" stroke="transparent" points="-4,4 -4,-175 304,-175 304,4 -4,4"/>
<!-- Node1 -->
<g id="node1" class="node">
<title>Node1</title>
<g id="a_node1"><a xlink:title=" ">
<polygon fill="#bfbfbf" stroke="black" points="97,-0.5 97,-26.5 176,-26.5 176,-0.5 97,-0.5"/>
<text text-anchor="middle" x="136.5" y="-9.7" font-family="Source Sans Pro" font-size="16.00">IETexture</text>
</a>
</g>
</g>
<!-- Node2 -->
<g id="node2" class="node">
<title>Node2</title>
<g id="a_node2"><a xlink:href="class_i_e_image.html" target="_top" xlink:title=" ">
<polygon fill="white" stroke="black" points="101,-63.5 101,-89.5 172,-89.5 172,-63.5 101,-63.5"/>
<text text-anchor="middle" x="136.5" y="-72.7" font-family="Source Sans Pro" font-size="16.00">IEImage</text>
</a>
</g>
</g>
<!-- Node2&#45;&gt;Node1 -->
<g id="edge1" class="edge">
<title>Node2&#45;&gt;Node1</title>
<path fill="none" stroke="midnightblue" d="M136.5,-53.19C136.5,-44.18 136.5,-34.12 136.5,-26.53"/>
<polygon fill="midnightblue" stroke="midnightblue" points="133,-53.45 136.5,-63.45 140,-53.45 133,-53.45"/>
</g>
<!-- Node3 -->
<g id="node3" class="node">
<title>Node3</title>
<g id="a_node3"><a xlink:href="class_i_e_dependency.html" target="_top" xlink:title=" ">
<polygon fill="white" stroke="black" points="0,-135.5 0,-161.5 115,-161.5 115,-135.5 0,-135.5"/>
<text text-anchor="middle" x="57.5" y="-144.7" font-family="Source Sans Pro" font-size="16.00">IEDependency</text>
</a>
</g>
</g>
<!-- Node3&#45;&gt;Node2 -->
<g id="edge2" class="edge">
<title>Node3&#45;&gt;Node2</title>
<path fill="none" stroke="midnightblue" d="M78.99,-128.46C92.99,-116.06 110.83,-100.25 122.9,-89.55"/>
<polygon fill="midnightblue" stroke="midnightblue" points="76.42,-126.06 71.26,-135.31 81.07,-131.29 76.42,-126.06"/>
</g>
<!-- Node4 -->
<g id="node4" class="node">
<title>Node4</title>
<g id="a_node4"><a xlink:title=" ">
<polygon fill="white" stroke="black" points="133,-126.5 133,-170.5 300,-170.5 300,-126.5 133,-126.5"/>
<text text-anchor="start" x="141" y="-153.7" font-family="Source Sans Pro" font-size="16.00">std::enable_shared</text>
<text text-anchor="middle" x="216.5" y="-135.7" font-family="Source Sans Pro" font-size="16.00">_from_this&lt; IEImage &gt;</text>
</a>
</g>
</g>
<!-- Node4&#45;&gt;Node2 -->
<g id="edge3" class="edge">
<title>Node4&#45;&gt;Node2</title>
<path fill="none" stroke="midnightblue" d="M184.81,-119.77C172.8,-109.27 159.76,-97.85 150.25,-89.53"/>
<polygon fill="midnightblue" stroke="midnightblue" points="182.67,-122.55 192.5,-126.5 187.28,-117.28 182.67,-122.55"/>
</g>
</g>
</svg>
