<?xml version="1.0" encoding="UTF-8" standalone="no"?>
<!DOCTYPE svg PUBLIC "-//W3C//DTD SVG 1.1//EN"
 "http://www.w3.org/Graphics/SVG/1.1/DTD/svg11.dtd">
<!-- Generated by graphviz version 2.43.0 (0)
 -->
<!-- Title: Illumination&#45;Engine/src/Core Pages: 1 -->
<svg width="390pt" height="190pt"
 viewBox="0.00 0.00 390.00 190.00" xmlns="http://www.w3.org/2000/svg" xmlns:xlink="http://www.w3.org/1999/xlink">
<g id="graph0" class="graph" transform="scale(1 1) rotate(0) translate(4 186)">
<title>Illumination&#45;Engine/src/Core</title>
<polygon fill="white" stroke="transparent" points="-4,4 -4,-186 386,-186 386,4 -4,4"/>
<g id="clust1" class="cluster">
<title>clusterdir_11522b5b7e5fd02e7f7980ad4667a586</title>
<g id="a_clust1"><a xlink:href="dir_11522b5b7e5fd02e7f7980ad4667a586.html" target="_top" xlink:title="src">
<polygon fill="#edf0f7" stroke="#7f7f7f" stroke-dasharray="5,2" points="8,-8 8,-174 374,-174 374,-8 8,-8"/>
<text text-anchor="middle" x="191" y="-157.2" font-family="Source Sans Pro" font-size="16.00">src</text>
</a>
</g>
</g>
<g id="clust2" class="cluster">
<title>clusterdir_a45b41982f9e45f9e73ec841f70f7600</title>
<g id="a_clust2"><a xlink:href="dir_a45b41982f9e45f9e73ec841f70f7600.html" target="_top">
<polygon fill="#edf0f7" stroke="#404040" stroke-width="2" points="16,-16 16,-140 366,-140 366,-16 16,-16"/>
</a>
</g>
</g>
<!-- dir_a45b41982f9e45f9e73ec841f70f7600 -->
<g id="node1" class="node">
<title>dir_a45b41982f9e45f9e73ec841f70f7600</title>
<text text-anchor="middle" x="331" y="-110.2" font-family="Source Sans Pro" font-size="16.00">Core</text>
</g>
<!-- dir_4a46cdf4329ad63e479fbd878f406aea -->
<g id="node2" class="node">
<title>dir_4a46cdf4329ad63e479fbd878f406aea</title>
<g id="a_node2"><a xlink:href="dir_4a46cdf4329ad63e479fbd878f406aea.html" target="_top" xlink:title="AssetModule">
<polygon fill="#a2b4d6" stroke="#404040" points="285.5,-132 182.5,-132 182.5,-96 285.5,-96 285.5,-132"/>
<text text-anchor="middle" x="234" y="-110.2" font-family="Source Sans Pro" font-size="16.00">AssetModule</text>
</a>
</g>
</g>
<!-- dir_511678282fae3b236ea9571cd62bbc80 -->
<g id="node3" class="node">
<title>dir_511678282fae3b236ea9571cd62bbc80</title>
<g id="a_node3"><a xlink:href="dir_511678282fae3b236ea9571cd62bbc80.html" target="_top" xlink:title="FileSystemModule">
<polygon fill="#a2b4d6" stroke="#404040" points="164,-132 24,-132 24,-96 164,-96 164,-132"/>
<text text-anchor="middle" x="94" y="-110.2" font-family="Source Sans Pro" font-size="16.00">FileSystemModule</text>
</a>
</g>
</g>
<!-- dir_a3f6fd9b1a6f2c3026db7198b09ab0cf -->
<g id="node4" class="node">
<title>dir_a3f6fd9b1a6f2c3026db7198b09ab0cf</title>
<g id="a_node4"><a xlink:href="dir_a3f6fd9b1a6f2c3026db7198b09ab0cf.html" target="_top" xlink:title="LogModule">
<polygon fill="#a2b4d6" stroke="#404040" points="140,-60 48,-60 48,-24 140,-24 140,-60"/>
<text text-anchor="middle" x="94" y="-38.2" font-family="Source Sans Pro" font-size="16.00">LogModule</text>
</a>
</g>
</g>
<!-- dir_511678282fae3b236ea9571cd62bbc80&#45;&gt;dir_a3f6fd9b1a6f2c3026db7198b09ab0cf -->
<g id="edge1" class="edge">
<title>dir_511678282fae3b236ea9571cd62bbc80&#45;&gt;dir_a3f6fd9b1a6f2c3026db7198b09ab0cf</title>
<path fill="none" stroke="black" d="M94,-95.7C94,-87.98 94,-78.71 94,-70.11"/>
<polygon fill="black" stroke="black" points="97.5,-70.1 94,-60.1 90.5,-70.1 97.5,-70.1"/>
<g id="a_edge1&#45;headlabel"><a xlink:href="dir_000006_000011.html" target="_top" xlink:title="1">
<text text-anchor="middle" x="100.34" y="-69.9" font-family="Source Sans Pro" font-size="16.00">1</text>
</a>
</g>
</g>
</g>
</svg>
