<?xml version="1.0" encoding="UTF-8" standalone="no"?>
<!DOCTYPE svg PUBLIC "-//W3C//DTD SVG 1.1//EN"
 "http://www.w3.org/Graphics/SVG/1.1/DTD/svg11.dtd">
<!-- Generated by graphviz version 2.43.0 (0)
 -->
<!-- Title: Illumination&#45;Engine/src/GraphicsModule/OpenGL Pages: 1 -->
<svg width="266pt" height="166pt"
 viewBox="0.00 0.00 266.00 166.00" xmlns="http://www.w3.org/2000/svg" xmlns:xlink="http://www.w3.org/1999/xlink">
<g id="graph0" class="graph" transform="scale(1 1) rotate(0) translate(4 162)">
<title>Illumination&#45;Engine/src/GraphicsModule/OpenGL</title>
<polygon fill="white" stroke="transparent" points="-4,4 -4,-162 262,-162 262,4 -4,4"/>
<g id="clust1" class="cluster">
<title>clusterdir_5e0da4d097999b167d323a671a026d32</title>
<g id="a_clust1"><a xlink:href="dir_5e0da4d097999b167d323a671a026d32.html" target="_top" xlink:title="GraphicsModule">
<polygon fill="#edf0f7" stroke="#7f7f7f" stroke-dasharray="5,2" points="8,-56 8,-150 250,-150 250,-56 8,-56"/>
<text text-anchor="middle" x="129" y="-133.2" font-family="Source Sans Pro" font-size="16.00">GraphicsModule</text>
</a>
</g>
</g>
<g id="clust2" class="cluster">
<title>clusterdir_295bd9936b3fe9bc43e43d70a7c55390</title>
<g id="a_clust2"><a xlink:href="dir_295bd9936b3fe9bc43e43d70a7c55390.html" target="_top">
<polygon fill="#edf0f7" stroke="#404040" stroke-width="2" points="16,-64 16,-116 242,-116 242,-64 16,-64"/>
</a>
</g>
</g>
<!-- dir_295bd9936b3fe9bc43e43d70a7c55390 -->
<g id="node1" class="node">
<title>dir_295bd9936b3fe9bc43e43d70a7c55390</title>
<text text-anchor="middle" x="198" y="-86.2" font-family="Source Sans Pro" font-size="16.00">OpenGL</text>
</g>
<!-- dir_a45b41982f9e45f9e73ec841f70f7600 -->
<g id="node3" class="node">
<title>dir_a45b41982f9e45f9e73ec841f70f7600</title>
<g id="a_node3"><a xlink:href="dir_a45b41982f9e45f9e73ec841f70f7600.html" target="_top" xlink:title="Core">
<polygon fill="none" stroke="red" stroke-dasharray="5,2" points="225,-36 171,-36 171,0 225,0 225,-36"/>
<text text-anchor="middle" x="198" y="-14.2" font-family="Source Sans Pro" font-size="16.00">Core</text>
</a>
</g>
</g>
<!-- dir_295bd9936b3fe9bc43e43d70a7c55390&#45;&gt;dir_a45b41982f9e45f9e73ec841f70f7600 -->
<g id="edge1" class="edge">
<title>dir_295bd9936b3fe9bc43e43d70a7c55390&#45;&gt;dir_a45b41982f9e45f9e73ec841f70f7600</title>
<path fill="none" stroke="black" d="M198,-71.7C198,-63.98 198,-54.71 198,-46.11"/>
<polygon fill="black" stroke="black" points="201.5,-46.1 198,-36.1 194.5,-46.1 201.5,-46.1"/>
<g id="a_edge1&#45;headlabel"><a xlink:href="dir_000009_000001.html" target="_top" xlink:title="1">
<text text-anchor="middle" x="204.34" y="-45.9" font-family="Source Sans Pro" font-size="16.00">1</text>
</a>
</g>
</g>
<!-- dir_541180198256f7cc9f727faf8c56b32b -->
<g id="node2" class="node">
<title>dir_541180198256f7cc9f727faf8c56b32b</title>
<g id="a_node2"><a xlink:href="dir_541180198256f7cc9f727faf8c56b32b.html" target="_top" xlink:title="DefaultShaders">
<polygon fill="#a2b4d6" stroke="#404040" points="144,-108 24,-108 24,-72 144,-72 144,-108"/>
<text text-anchor="middle" x="84" y="-86.2" font-family="Source Sans Pro" font-size="16.00">DefaultShaders</text>
</a>
</g>
</g>
</g>
</svg>
