<?xml version="1.0" encoding="UTF-8" standalone="no"?>
<!DOCTYPE svg PUBLIC "-//W3C//DTD SVG 1.1//EN"
 "http://www.w3.org/Graphics/SVG/1.1/DTD/svg11.dtd">
<!-- Generated by graphviz version 2.43.0 (0)
 -->
<!-- Title: Illumination&#45;Engine/src/GraphicsModule/CommandBuffer/DependencyStructs Pages: 1 -->
<svg width="257pt" height="158pt"
 viewBox="0.00 0.00 256.50 158.00" xmlns="http://www.w3.org/2000/svg" xmlns:xlink="http://www.w3.org/1999/xlink">
<g id="graph0" class="graph" transform="scale(1 1) rotate(0) translate(4 154)">
<title>Illumination&#45;Engine/src/GraphicsModule/CommandBuffer/DependencyStructs</title>
<polygon fill="white" stroke="transparent" points="-4,4 -4,-154 252.5,-154 252.5,4 -4,4"/>
<g id="clust1" class="cluster">
<title>clusterdir_302172eb7f0711faa424411fa3b0c0b6</title>
<g id="a_clust1"><a xlink:href="dir_302172eb7f0711faa424411fa3b0c0b6.html" target="_top" xlink:title="CommandBuffer">
<polygon fill="#edf0f7" stroke="#7f7f7f" stroke-dasharray="5,2" points="60.5,-64 60.5,-142 224.5,-142 224.5,-64 60.5,-64"/>
<text text-anchor="middle" x="142.5" y="-125.2" font-family="Source Sans Pro" font-size="16.00">CommandBuffer</text>
</a>
</g>
</g>
<!-- dir_60647584c8e8109f990b129573bd17e3 -->
<g id="node1" class="node">
<title>dir_60647584c8e8109f990b129573bd17e3</title>
<g id="a_node1"><a xlink:href="dir_60647584c8e8109f990b129573bd17e3.html" target="_top" xlink:title="DependencyStructs">
<polygon fill="#edf0f7" stroke="#404040" stroke-width="2" points="217,-108 68,-108 68,-72 217,-72 217,-108"/>
<text text-anchor="middle" x="142.5" y="-86.2" font-family="Source Sans Pro" font-size="16.00">DependencyStructs</text>
</a>
</g>
</g>
<!-- dir_9324b32cb1ccf315e14814a22374c0f8 -->
<g id="node2" class="node">
<title>dir_9324b32cb1ccf315e14814a22374c0f8</title>
<g id="a_node2"><a xlink:href="dir_9324b32cb1ccf315e14814a22374c0f8.html" target="_top" xlink:title="RenderPass">
<polygon fill="none" stroke="#7f7f7f" points="95,-36 0,-36 0,0 95,0 95,-36"/>
<text text-anchor="middle" x="47.5" y="-14.2" font-family="Source Sans Pro" font-size="16.00">RenderPass</text>
</a>
</g>
</g>
<!-- dir_60647584c8e8109f990b129573bd17e3&#45;&gt;dir_9324b32cb1ccf315e14814a22374c0f8 -->
<g id="edge1" class="edge">
<title>dir_60647584c8e8109f990b129573bd17e3&#45;&gt;dir_9324b32cb1ccf315e14814a22374c0f8</title>
<path fill="none" stroke="black" d="M119.02,-71.7C106.94,-62.8 92.05,-51.82 78.98,-42.2"/>
<polygon fill="black" stroke="black" points="80.84,-39.22 70.71,-36.1 76.69,-44.85 80.84,-39.22"/>
<g id="a_edge1&#45;headlabel"><a xlink:href="dir_000005_000015.html" target="_top" xlink:title="2">
<text text-anchor="middle" x="85.42" y="-35.27" font-family="Source Sans Pro" font-size="16.00">2</text>
</a>
</g>
</g>
<!-- dir_a2fd6e42b2ec4a99febc0bdce62b160b -->
<g id="node3" class="node">
<title>dir_a2fd6e42b2ec4a99febc0bdce62b160b</title>
<g id="a_node3"><a xlink:href="dir_a2fd6e42b2ec4a99febc0bdce62b160b.html" target="_top" xlink:title="Image">
<polygon fill="none" stroke="#7f7f7f" points="172,-36 113,-36 113,0 172,0 172,-36"/>
<text text-anchor="middle" x="142.5" y="-14.2" font-family="Source Sans Pro" font-size="16.00">Image</text>
</a>
</g>
</g>
<!-- dir_60647584c8e8109f990b129573bd17e3&#45;&gt;dir_a2fd6e42b2ec4a99febc0bdce62b160b -->
<g id="edge2" class="edge">
<title>dir_60647584c8e8109f990b129573bd17e3&#45;&gt;dir_a2fd6e42b2ec4a99febc0bdce62b160b</title>
<path fill="none" stroke="black" d="M142.5,-71.7C142.5,-63.98 142.5,-54.71 142.5,-46.11"/>
<polygon fill="black" stroke="black" points="146,-46.1 142.5,-36.1 139,-46.1 146,-46.1"/>
<g id="a_edge2&#45;headlabel"><a xlink:href="dir_000005_000009.html" target="_top" xlink:title="2">
<text text-anchor="middle" x="148.84" y="-45.9" font-family="Source Sans Pro" font-size="16.00">2</text>
</a>
</g>
</g>
<!-- dir_d917beb8efe0d43cf98f2f08a709b14c -->
<g id="node4" class="node">
<title>dir_d917beb8efe0d43cf98f2f08a709b14c</title>
<g id="a_node4"><a xlink:href="dir_d917beb8efe0d43cf98f2f08a709b14c.html" target="_top" xlink:title="Buffer">
<polygon fill="none" stroke="#7f7f7f" points="248.5,-36 190.5,-36 190.5,0 248.5,0 248.5,-36"/>
<text text-anchor="middle" x="219.5" y="-14.2" font-family="Source Sans Pro" font-size="16.00">Buffer</text>
</a>
</g>
</g>
<!-- dir_60647584c8e8109f990b129573bd17e3&#45;&gt;dir_d917beb8efe0d43cf98f2f08a709b14c -->
<g id="edge3" class="edge">
<title>dir_60647584c8e8109f990b129573bd17e3&#45;&gt;dir_d917beb8efe0d43cf98f2f08a709b14c</title>
<path fill="none" stroke="black" d="M161.53,-71.7C171.04,-63.05 182.71,-52.45 193.07,-43.03"/>
<polygon fill="black" stroke="black" points="195.64,-45.42 200.69,-36.1 190.93,-40.24 195.64,-45.42"/>
<g id="a_edge3&#45;headlabel"><a xlink:href="dir_000005_000001.html" target="_top" xlink:title="2">
<text text-anchor="middle" x="194.89" y="-46.14" font-family="Source Sans Pro" font-size="16.00">2</text>
</a>
</g>
</g>
</g>
</svg>
