<?xml version="1.0" encoding="UTF-8" standalone="no"?>
<!DOCTYPE svg PUBLIC "-//W3C//DTD SVG 1.1//EN"
 "http://www.w3.org/Graphics/SVG/1.1/DTD/svg11.dtd">
<!-- Generated by graphviz version 2.43.0 (0)
 -->
<!-- Title: Illumination&#45;Engine/src/GraphicsModule Pages: 1 -->
<svg width="474pt" height="478pt"
 viewBox="0.00 0.00 474.00 478.00" xmlns="http://www.w3.org/2000/svg" xmlns:xlink="http://www.w3.org/1999/xlink">
<g id="graph0" class="graph" transform="scale(1 1) rotate(0) translate(4 474)">
<title>Illumination&#45;Engine/src/GraphicsModule</title>
<polygon fill="white" stroke="transparent" points="-4,4 -4,-474 470,-474 470,4 -4,4"/>
<g id="clust1" class="cluster">
<title>clusterdir_11522b5b7e5fd02e7f7980ad4667a586</title>
<g id="a_clust1"><a xlink:href="dir_11522b5b7e5fd02e7f7980ad4667a586.html" target="_top" xlink:title="src">
<polygon fill="#edf0f7" stroke="#7f7f7f" stroke-dasharray="5,2" points="8,-8 8,-462 458,-462 458,-8 8,-8"/>
<text text-anchor="middle" x="233" y="-445.2" font-family="Source Sans Pro" font-size="16.00">src</text>
</a>
</g>
</g>
<g id="clust2" class="cluster">
<title>clusterdir_5e0da4d097999b167d323a671a026d32</title>
<g id="a_clust2"><a xlink:href="dir_5e0da4d097999b167d323a671a026d32.html" target="_top">
<polygon fill="#edf0f7" stroke="#404040" stroke-width="2" points="16,-16 16,-428 388,-428 388,-16 16,-16"/>
</a>
</g>
</g>
<!-- dir_a45b41982f9e45f9e73ec841f70f7600 -->
<g id="node1" class="node">
<title>dir_a45b41982f9e45f9e73ec841f70f7600</title>
<g id="a_node1"><a xlink:href="dir_a45b41982f9e45f9e73ec841f70f7600.html" target="_top" xlink:title="Core">
<polygon fill="#a2b4d6" stroke="red" points="450,-60 396,-60 396,-24 450,-24 450,-60"/>
<text text-anchor="middle" x="423" y="-38.2" font-family="Source Sans Pro" font-size="16.00">Core</text>
</a>
</g>
</g>
<!-- dir_5e0da4d097999b167d323a671a026d32 -->
<g id="node2" class="node">
<title>dir_5e0da4d097999b167d323a671a026d32</title>
<text text-anchor="middle" x="316" y="-398.2" font-family="Source Sans Pro" font-size="16.00">GraphicsModule</text>
</g>
<!-- dir_5e0da4d097999b167d323a671a026d32&#45;&gt;dir_a45b41982f9e45f9e73ec841f70f7600 -->
<g id="edge4" class="edge">
<title>dir_5e0da4d097999b167d323a671a026d32&#45;&gt;dir_a45b41982f9e45f9e73ec841f70f7600</title>
<path fill="none" stroke="black" d="M340.82,-383.98C372.43,-360.07 423,-313.33 423,-259 423,-259 423,-259 423,-185 423,-145 423,-98.65 423,-70.08"/>
<polygon fill="black" stroke="black" points="426.5,-70.05 423,-60.05 419.5,-70.05 426.5,-70.05"/>
<g id="a_edge4&#45;headlabel"><a xlink:href="dir_000007_000003.html" target="_top" xlink:title="16">
<text text-anchor="middle" x="429.34" y="-69.84" font-family="Source Sans Pro" font-size="16.00">16</text>
</a>
</g>
</g>
<!-- dir_302172eb7f0711faa424411fa3b0c0b6 -->
<g id="node4" class="node">
<title>dir_302172eb7f0711faa424411fa3b0c0b6</title>
<g id="a_node4"><a xlink:href="dir_302172eb7f0711faa424411fa3b0c0b6.html" target="_top" xlink:title="CommandBuffer">
<polygon fill="#a2b4d6" stroke="#404040" points="290.5,-348 161.5,-348 161.5,-312 290.5,-312 290.5,-348"/>
<text text-anchor="middle" x="226" y="-326.2" font-family="Source Sans Pro" font-size="16.00">CommandBuffer</text>
</a>
</g>
</g>
<!-- dir_5e0da4d097999b167d323a671a026d32&#45;&gt;dir_302172eb7f0711faa424411fa3b0c0b6 -->
<g id="edge1" class="edge">
<title>dir_5e0da4d097999b167d323a671a026d32&#45;&gt;dir_302172eb7f0711faa424411fa3b0c0b6</title>
<path fill="none" stroke="black" d="M293.75,-383.7C282.42,-374.88 268.47,-364.03 256.18,-354.47"/>
<polygon fill="black" stroke="black" points="258.03,-351.48 247.99,-348.1 253.74,-357.01 258.03,-351.48"/>
<g id="a_edge1&#45;headlabel"><a xlink:href="dir_000007_000002.html" target="_top" xlink:title="9">
<text text-anchor="middle" x="262.61" y="-347.65" font-family="Source Sans Pro" font-size="16.00">9</text>
</a>
</g>
</g>
<!-- dir_a2fd6e42b2ec4a99febc0bdce62b160b -->
<g id="node6" class="node">
<title>dir_a2fd6e42b2ec4a99febc0bdce62b160b</title>
<g id="a_node6"><a xlink:href="dir_a2fd6e42b2ec4a99febc0bdce62b160b.html" target="_top" xlink:title="Image">
<polygon fill="#a2b4d6" stroke="#404040" points="259.5,-132 200.5,-132 200.5,-96 259.5,-96 259.5,-132"/>
<text text-anchor="middle" x="230" y="-110.2" font-family="Source Sans Pro" font-size="16.00">Image</text>
</a>
</g>
</g>
<!-- dir_5e0da4d097999b167d323a671a026d32&#45;&gt;dir_a2fd6e42b2ec4a99febc0bdce62b160b -->
<g id="edge3" class="edge">
<title>dir_5e0da4d097999b167d323a671a026d32&#45;&gt;dir_a2fd6e42b2ec4a99febc0bdce62b160b</title>
<path fill="none" stroke="black" d="M252.48,-384.32C209.08,-372.28 158.32,-356.68 152,-348 104.32,-282.48 143.41,-239.78 181,-168 186.43,-157.63 194.42,-147.77 202.38,-139.43"/>
<polygon fill="black" stroke="black" points="205,-141.77 209.61,-132.23 200.05,-136.81 205,-141.77"/>
<g id="a_edge3&#45;headlabel"><a xlink:href="dir_000007_000009.html" target="_top" xlink:title="9">
<text text-anchor="middle" x="204.45" y="-142.52" font-family="Source Sans Pro" font-size="16.00">9</text>
</a>
</g>
</g>
<!-- dir_fc899c81e848db7af3002beb737c6817 -->
<g id="node8" class="node">
<title>dir_fc899c81e848db7af3002beb737c6817</title>
<g id="a_node8"><a xlink:href="dir_fc899c81e848db7af3002beb737c6817.html" target="_top" xlink:title="Renderable">
<polygon fill="#a2b4d6" stroke="#404040" points="343.5,-204 248.5,-204 248.5,-168 343.5,-168 343.5,-204"/>
<text text-anchor="middle" x="296" y="-182.2" font-family="Source Sans Pro" font-size="16.00">Renderable</text>
</a>
</g>
</g>
<!-- dir_5e0da4d097999b167d323a671a026d32&#45;&gt;dir_fc899c81e848db7af3002beb737c6817 -->
<g id="edge5" class="edge">
<title>dir_5e0da4d097999b167d323a671a026d32&#45;&gt;dir_fc899c81e848db7af3002beb737c6817</title>
<path fill="none" stroke="black" d="M330.18,-383.87C353.33,-353.69 394.26,-289.55 369,-240 362.77,-227.77 352.24,-217.7 341.1,-209.75"/>
<polygon fill="black" stroke="black" points="342.79,-206.67 332.51,-204.08 338.93,-212.51 342.79,-206.67"/>
<g id="a_edge5&#45;headlabel"><a xlink:href="dir_000007_000014.html" target="_top" xlink:title="3">
<text text-anchor="middle" x="347.35" y="-202.48" font-family="Source Sans Pro" font-size="16.00">3</text>
</a>
</g>
</g>
<!-- dir_9324b32cb1ccf315e14814a22374c0f8 -->
<g id="node9" class="node">
<title>dir_9324b32cb1ccf315e14814a22374c0f8</title>
<g id="a_node9"><a xlink:href="dir_9324b32cb1ccf315e14814a22374c0f8.html" target="_top" xlink:title="RenderPass">
<polygon fill="#a2b4d6" stroke="#404040" points="359.5,-276 264.5,-276 264.5,-240 359.5,-240 359.5,-276"/>
<text text-anchor="middle" x="312" y="-254.2" font-family="Source Sans Pro" font-size="16.00">RenderPass</text>
</a>
</g>
</g>
<!-- dir_5e0da4d097999b167d323a671a026d32&#45;&gt;dir_9324b32cb1ccf315e14814a22374c0f8 -->
<g id="edge2" class="edge">
<title>dir_5e0da4d097999b167d323a671a026d32&#45;&gt;dir_9324b32cb1ccf315e14814a22374c0f8</title>
<path fill="none" stroke="black" d="M315.52,-383.87C314.84,-359.67 313.58,-315.21 312.77,-286.39"/>
<polygon fill="black" stroke="black" points="316.26,-286.09 312.48,-276.19 309.27,-286.28 316.26,-286.09"/>
<g id="a_edge2&#45;headlabel"><a xlink:href="dir_000007_000015.html" target="_top" xlink:title="6">
<text text-anchor="middle" x="319.2" y="-285.8" font-family="Source Sans Pro" font-size="16.00">6</text>
</a>
</g>
</g>
<!-- dir_d917beb8efe0d43cf98f2f08a709b14c -->
<g id="node3" class="node">
<title>dir_d917beb8efe0d43cf98f2f08a709b14c</title>
<g id="a_node3"><a xlink:href="dir_d917beb8efe0d43cf98f2f08a709b14c.html" target="_top" xlink:title="Buffer">
<polygon fill="#a2b4d6" stroke="#404040" points="210,-60 152,-60 152,-24 210,-24 210,-60"/>
<text text-anchor="middle" x="181" y="-38.2" font-family="Source Sans Pro" font-size="16.00">Buffer</text>
</a>
</g>
</g>
<!-- dir_d917beb8efe0d43cf98f2f08a709b14c&#45;&gt;dir_302172eb7f0711faa424411fa3b0c0b6 -->
<g id="edge6" class="edge">
<title>dir_d917beb8efe0d43cf98f2f08a709b14c&#45;&gt;dir_302172eb7f0711faa424411fa3b0c0b6</title>
<path fill="none" stroke="black" d="M179.14,-60.08C169.48,-99.99 140.11,-201.66 174,-276 179.18,-287.35 188.12,-297.22 197.21,-305.25"/>
<polygon fill="black" stroke="black" points="195.21,-308.14 205.14,-311.84 199.68,-302.76 195.21,-308.14"/>
<g id="a_edge6&#45;headlabel"><a xlink:href="dir_000001_000002.html" target="_top" xlink:title="1">
<text text-anchor="middle" x="190.63" y="-304.23" font-family="Source Sans Pro" font-size="16.00">1</text>
</a>
</g>
</g>
<!-- dir_302172eb7f0711faa424411fa3b0c0b6&#45;&gt;dir_a45b41982f9e45f9e73ec841f70f7600 -->
<g id="edge10" class="edge">
<title>dir_302172eb7f0711faa424411fa3b0c0b6&#45;&gt;dir_a45b41982f9e45f9e73ec841f70f7600</title>
<path fill="none" stroke="black" d="M289.49,-311.92C322.33,-301.87 357.85,-288.67 369,-276 395.94,-245.39 413.33,-124.6 419.96,-70.02"/>
<polygon fill="black" stroke="black" points="423.45,-70.38 421.15,-60.04 416.49,-69.56 423.45,-70.38"/>
<g id="a_edge10&#45;headlabel"><a xlink:href="dir_000002_000003.html" target="_top" xlink:title="2">
<text text-anchor="middle" x="425.84" y="-70.48" font-family="Source Sans Pro" font-size="16.00">2</text>
</a>
</g>
</g>
<!-- dir_302172eb7f0711faa424411fa3b0c0b6&#45;&gt;dir_d917beb8efe0d43cf98f2f08a709b14c -->
<g id="edge11" class="edge">
<title>dir_302172eb7f0711faa424411fa3b0c0b6&#45;&gt;dir_d917beb8efe0d43cf98f2f08a709b14c</title>
<path fill="none" stroke="black" d="M188.78,-311.84C175.68,-302.87 162.69,-290.68 156,-276 124.49,-206.89 147.66,-114.16 165.89,-69.38"/>
<polygon fill="black" stroke="black" points="169.16,-70.64 169.91,-60.08 162.73,-67.87 169.16,-70.64"/>
<g id="a_edge11&#45;headlabel"><a xlink:href="dir_000002_000001.html" target="_top" xlink:title="5">
<text text-anchor="middle" x="170.34" y="-71.27" font-family="Source Sans Pro" font-size="16.00">5</text>
</a>
</g>
</g>
<!-- dir_302172eb7f0711faa424411fa3b0c0b6&#45;&gt;dir_a2fd6e42b2ec4a99febc0bdce62b160b -->
<g id="edge9" class="edge">
<title>dir_302172eb7f0711faa424411fa3b0c0b6&#45;&gt;dir_a2fd6e42b2ec4a99febc0bdce62b160b</title>
<path fill="none" stroke="black" d="M192.95,-311.86C180.94,-302.67 169,-290.29 163,-276 156.81,-261.25 159.55,-255.62 163,-240 171.04,-203.59 190.79,-165.18 207.04,-140.7"/>
<polygon fill="black" stroke="black" points="210.01,-142.56 212.84,-132.34 204.26,-138.56 210.01,-142.56"/>
<g id="a_edge9&#45;headlabel"><a xlink:href="dir_000002_000009.html" target="_top" xlink:title="4">
<text text-anchor="middle" x="210.3" y="-143.33" font-family="Source Sans Pro" font-size="16.00">4</text>
</a>
</g>
</g>
<!-- dir_302172eb7f0711faa424411fa3b0c0b6&#45;&gt;dir_9324b32cb1ccf315e14814a22374c0f8 -->
<g id="edge8" class="edge">
<title>dir_302172eb7f0711faa424411fa3b0c0b6&#45;&gt;dir_9324b32cb1ccf315e14814a22374c0f8</title>
<path fill="none" stroke="black" d="M241.34,-311.7C251.36,-302.8 264.68,-291.82 277.1,-282.2"/>
<polygon fill="black" stroke="black" points="279.26,-284.95 285.09,-276.1 275.02,-279.39 279.26,-284.95"/>
<g id="a_edge8&#45;headlabel"><a xlink:href="dir_000002_000015.html" target="_top" xlink:title="4">
<text text-anchor="middle" x="278.13" y="-285.59" font-family="Source Sans Pro" font-size="16.00">4</text>
</a>
</g>
</g>
<!-- dir_4af8813850092f06c26c5dae649a4a3b -->
<g id="node10" class="node">
<title>dir_4af8813850092f06c26c5dae649a4a3b</title>
<g id="a_node10"><a xlink:href="dir_4af8813850092f06c26c5dae649a4a3b.html" target="_top" xlink:title="Shader">
<polygon fill="#a2b4d6" stroke="#404040" points="246.5,-276 181.5,-276 181.5,-240 246.5,-240 246.5,-276"/>
<text text-anchor="middle" x="214" y="-254.2" font-family="Source Sans Pro" font-size="16.00">Shader</text>
</a>
</g>
</g>
<!-- dir_302172eb7f0711faa424411fa3b0c0b6&#45;&gt;dir_4af8813850092f06c26c5dae649a4a3b -->
<g id="edge7" class="edge">
<title>dir_302172eb7f0711faa424411fa3b0c0b6&#45;&gt;dir_4af8813850092f06c26c5dae649a4a3b</title>
<path fill="none" stroke="black" d="M217.12,-311.7C215,-303.98 213.18,-294.71 212.05,-286.11"/>
<polygon fill="black" stroke="black" points="215.53,-285.7 211.04,-276.1 208.56,-286.41 215.53,-285.7"/>
<g id="a_edge7&#45;headlabel"><a xlink:href="dir_000002_000016.html" target="_top" xlink:title="5">
<text text-anchor="middle" x="218.72" y="-285.19" font-family="Source Sans Pro" font-size="16.00">5</text>
</a>
</g>
</g>
<!-- dir_b760e2be46e7a479b02b6784343bf4a2 -->
<g id="node5" class="node">
<title>dir_b760e2be46e7a479b02b6784343bf4a2</title>
<g id="a_node5"><a xlink:href="dir_b760e2be46e7a479b02b6784343bf4a2.html" target="_top" xlink:title="DefaultShaders">
<polygon fill="#a2b4d6" stroke="#404040" points="234,-420 114,-420 114,-384 234,-384 234,-420"/>
<text text-anchor="middle" x="174" y="-398.2" font-family="Source Sans Pro" font-size="16.00">DefaultShaders</text>
</a>
</g>
</g>
<!-- dir_a2fd6e42b2ec4a99febc0bdce62b160b&#45;&gt;dir_a45b41982f9e45f9e73ec841f70f7600 -->
<g id="edge13" class="edge">
<title>dir_a2fd6e42b2ec4a99febc0bdce62b160b&#45;&gt;dir_a45b41982f9e45f9e73ec841f70f7600</title>
<path fill="none" stroke="black" d="M259.52,-97.83C261.02,-97.18 262.52,-96.57 264,-96 316,-75.9 335.12,-81.58 386.22,-62.15"/>
<polygon fill="black" stroke="black" points="387.77,-65.3 395.78,-58.36 385.19,-58.79 387.77,-65.3"/>
<g id="a_edge13&#45;headlabel"><a xlink:href="dir_000009_000003.html" target="_top" xlink:title="2">
<text text-anchor="middle" x="385.47" y="-65.46" font-family="Source Sans Pro" font-size="16.00">2</text>
</a>
</g>
</g>
<!-- dir_a2fd6e42b2ec4a99febc0bdce62b160b&#45;&gt;dir_d917beb8efe0d43cf98f2f08a709b14c -->
<g id="edge14" class="edge">
<title>dir_a2fd6e42b2ec4a99febc0bdce62b160b&#45;&gt;dir_d917beb8efe0d43cf98f2f08a709b14c</title>
<path fill="none" stroke="black" d="M217.89,-95.7C212.13,-87.47 205.14,-77.48 198.79,-68.42"/>
<polygon fill="black" stroke="black" points="201.58,-66.29 192.97,-60.1 195.84,-70.3 201.58,-66.29"/>
<g id="a_edge14&#45;headlabel"><a xlink:href="dir_000009_000001.html" target="_top" xlink:title="2">
<text text-anchor="middle" x="205.96" y="-63.81" font-family="Source Sans Pro" font-size="16.00">2</text>
</a>
</g>
</g>
<!-- dir_a2fd6e42b2ec4a99febc0bdce62b160b&#45;&gt;dir_302172eb7f0711faa424411fa3b0c0b6 -->
<g id="edge12" class="edge">
<title>dir_a2fd6e42b2ec4a99febc0bdce62b160b&#45;&gt;dir_302172eb7f0711faa424411fa3b0c0b6</title>
<path fill="none" stroke="black" d="M225.09,-132.34C213.81,-155.72 190.02,-199.12 181,-240 177.55,-255.62 174.81,-261.25 181,-276 185.59,-286.94 193.67,-296.76 201.8,-304.89"/>
<polygon fill="black" stroke="black" points="199.52,-307.54 209.19,-311.86 204.32,-302.45 199.52,-307.54"/>
<g id="a_edge12&#45;headlabel"><a xlink:href="dir_000009_000002.html" target="_top" xlink:title="1">
<text text-anchor="middle" x="194.95" y="-303.34" font-family="Source Sans Pro" font-size="16.00">1</text>
</a>
</g>
</g>
<!-- dir_295bd9936b3fe9bc43e43d70a7c55390 -->
<g id="node7" class="node">
<title>dir_295bd9936b3fe9bc43e43d70a7c55390</title>
<g id="a_node7"><a xlink:href="dir_295bd9936b3fe9bc43e43d70a7c55390.html" target="_top" xlink:title="OpenGL">
<polygon fill="#a2b4d6" stroke="#404040" points="95.5,-420 24.5,-420 24.5,-384 95.5,-384 95.5,-420"/>
<text text-anchor="middle" x="60" y="-398.2" font-family="Source Sans Pro" font-size="16.00">OpenGL</text>
</a>
</g>
</g>
<!-- dir_fc899c81e848db7af3002beb737c6817&#45;&gt;dir_a45b41982f9e45f9e73ec841f70f7600 -->
<g id="edge17" class="edge">
<title>dir_fc899c81e848db7af3002beb737c6817&#45;&gt;dir_a45b41982f9e45f9e73ec841f70f7600</title>
<path fill="none" stroke="black" d="M305.93,-167.89C317.23,-149.17 336.88,-118.79 358,-96 367.78,-85.45 379.7,-75.15 390.64,-66.47"/>
<polygon fill="black" stroke="black" points="393,-69.07 398.77,-60.18 388.72,-63.54 393,-69.07"/>
<g id="a_edge17&#45;headlabel"><a xlink:href="dir_000014_000003.html" target="_top" xlink:title="2">
<text text-anchor="middle" x="391.9" y="-69.72" font-family="Source Sans Pro" font-size="16.00">2</text>
</a>
</g>
</g>
<!-- dir_fc899c81e848db7af3002beb737c6817&#45;&gt;dir_d917beb8efe0d43cf98f2f08a709b14c -->
<g id="edge18" class="edge">
<title>dir_fc899c81e848db7af3002beb737c6817&#45;&gt;dir_d917beb8efe0d43cf98f2f08a709b14c</title>
<path fill="none" stroke="black" d="M294.49,-167.92C292.01,-148.67 285.57,-117.28 269,-96 265.32,-91.27 241.22,-76.88 219.17,-64.29"/>
<polygon fill="black" stroke="black" points="220.66,-61.11 210.24,-59.22 217.21,-67.2 220.66,-61.11"/>
<g id="a_edge18&#45;headlabel"><a xlink:href="dir_000014_000001.html" target="_top" xlink:title="3">
<text text-anchor="middle" x="225.19" y="-56.62" font-family="Source Sans Pro" font-size="16.00">3</text>
</a>
</g>
</g>
<!-- dir_fc899c81e848db7af3002beb737c6817&#45;&gt;dir_a2fd6e42b2ec4a99febc0bdce62b160b -->
<g id="edge16" class="edge">
<title>dir_fc899c81e848db7af3002beb737c6817&#45;&gt;dir_a2fd6e42b2ec4a99febc0bdce62b160b</title>
<path fill="none" stroke="black" d="M279.69,-167.7C271.69,-159.22 261.93,-148.86 253.18,-139.58"/>
<polygon fill="black" stroke="black" points="255.53,-136.98 246.13,-132.1 250.44,-141.78 255.53,-136.98"/>
<g id="a_edge16&#45;headlabel"><a xlink:href="dir_000014_000009.html" target="_top" xlink:title="2">
<text text-anchor="middle" x="260.07" y="-133.85" font-family="Source Sans Pro" font-size="16.00">2</text>
</a>
</g>
</g>
<!-- dir_fc899c81e848db7af3002beb737c6817&#45;&gt;dir_4af8813850092f06c26c5dae649a4a3b -->
<g id="edge15" class="edge">
<title>dir_fc899c81e848db7af3002beb737c6817&#45;&gt;dir_4af8813850092f06c26c5dae649a4a3b</title>
<path fill="none" stroke="black" d="M281.86,-204.1C272.49,-212.89 259.96,-223.73 248.18,-233.31"/>
<polygon fill="black" stroke="black" points="245.81,-230.72 240.19,-239.7 250.18,-236.19 245.81,-230.72"/>
<g id="a_edge15&#45;headlabel"><a xlink:href="dir_000014_000016.html" target="_top" xlink:title="6">
<text text-anchor="middle" x="246.85" y="-222.46" font-family="Source Sans Pro" font-size="16.00">6</text>
</a>
</g>
</g>
<!-- dir_9324b32cb1ccf315e14814a22374c0f8&#45;&gt;dir_a45b41982f9e45f9e73ec841f70f7600 -->
<g id="edge21" class="edge">
<title>dir_9324b32cb1ccf315e14814a22374c0f8&#45;&gt;dir_a45b41982f9e45f9e73ec841f70f7600</title>
<path fill="none" stroke="black" d="M335.32,-239.91C346.68,-230.48 359.65,-217.88 368,-204 393.7,-161.32 380.64,-142.7 398,-96 401.26,-87.23 405.41,-77.91 409.38,-69.58"/>
<polygon fill="black" stroke="black" points="412.65,-70.87 413.9,-60.35 406.36,-67.79 412.65,-70.87"/>
<g id="a_edge21&#45;headlabel"><a xlink:href="dir_000015_000003.html" target="_top" xlink:title="1">
<text text-anchor="middle" x="413.62" y="-71.54" font-family="Source Sans Pro" font-size="16.00">1</text>
</a>
</g>
</g>
<!-- dir_9324b32cb1ccf315e14814a22374c0f8&#45;&gt;dir_302172eb7f0711faa424411fa3b0c0b6 -->
<g id="edge19" class="edge">
<title>dir_9324b32cb1ccf315e14814a22374c0f8&#45;&gt;dir_302172eb7f0711faa424411fa3b0c0b6</title>
<path fill="none" stroke="black" d="M296.88,-276.1C286.91,-284.97 273.61,-295.94 261.18,-305.59"/>
<polygon fill="black" stroke="black" points="259,-302.85 253.17,-311.7 263.25,-308.41 259,-302.85"/>
<g id="a_edge19&#45;headlabel"><a xlink:href="dir_000015_000002.html" target="_top" xlink:title="1">
<text text-anchor="middle" x="260.13" y="-294.61" font-family="Source Sans Pro" font-size="16.00">1</text>
</a>
</g>
</g>
<!-- dir_9324b32cb1ccf315e14814a22374c0f8&#45;&gt;dir_a2fd6e42b2ec4a99febc0bdce62b160b -->
<g id="edge20" class="edge">
<title>dir_9324b32cb1ccf315e14814a22374c0f8&#45;&gt;dir_a2fd6e42b2ec4a99febc0bdce62b160b</title>
<path fill="none" stroke="black" d="M277.54,-239.84C263.57,-231.08 248.7,-219.05 240,-204 229.27,-185.43 227.2,-161.04 227.57,-142.48"/>
<polygon fill="black" stroke="black" points="231.07,-142.47 228.03,-132.32 224.08,-142.16 231.07,-142.47"/>
<g id="a_edge20&#45;headlabel"><a xlink:href="dir_000015_000009.html" target="_top" xlink:title="1">
<text text-anchor="middle" x="233.75" y="-142.39" font-family="Source Sans Pro" font-size="16.00">1</text>
</a>
</g>
</g>
<!-- dir_4af8813850092f06c26c5dae649a4a3b&#45;&gt;dir_a45b41982f9e45f9e73ec841f70f7600 -->
<g id="edge24" class="edge">
<title>dir_4af8813850092f06c26c5dae649a4a3b&#45;&gt;dir_a45b41982f9e45f9e73ec841f70f7600</title>
<path fill="none" stroke="black" d="M246.52,-243.73C249.72,-242.45 252.92,-241.19 256,-240 298.87,-223.37 321.74,-237.73 353,-204 369.97,-185.69 372.98,-118.41 384,-96 388.76,-86.31 395.32,-76.55 401.71,-68.1"/>
<polygon fill="black" stroke="black" points="404.54,-70.16 407.96,-60.13 399.03,-65.84 404.54,-70.16"/>
<g id="a_edge24&#45;headlabel"><a xlink:href="dir_000016_000003.html" target="_top" xlink:title="3">
<text text-anchor="middle" x="404.56" y="-70.94" font-family="Source Sans Pro" font-size="16.00">3</text>
</a>
</g>
</g>
<!-- dir_4af8813850092f06c26c5dae649a4a3b&#45;&gt;dir_d917beb8efe0d43cf98f2f08a709b14c -->
<g id="edge25" class="edge">
<title>dir_4af8813850092f06c26c5dae649a4a3b&#45;&gt;dir_d917beb8efe0d43cf98f2f08a709b14c</title>
<path fill="none" stroke="black" d="M210.41,-239.67C205.52,-215.6 196.72,-170.64 191,-132 187.95,-111.37 185.35,-87.92 183.56,-70.27"/>
<polygon fill="black" stroke="black" points="187.03,-69.72 182.56,-60.11 180.06,-70.4 187.03,-69.72"/>
<g id="a_edge25&#45;headlabel"><a xlink:href="dir_000016_000001.html" target="_top" xlink:title="1">
<text text-anchor="middle" x="190.2" y="-69.22" font-family="Source Sans Pro" font-size="16.00">1</text>
</a>
</g>
</g>
<!-- dir_4af8813850092f06c26c5dae649a4a3b&#45;&gt;dir_302172eb7f0711faa424411fa3b0c0b6 -->
<g id="edge22" class="edge">
<title>dir_4af8813850092f06c26c5dae649a4a3b&#45;&gt;dir_302172eb7f0711faa424411fa3b0c0b6</title>
<path fill="none" stroke="black" d="M222.83,-276.1C224.95,-283.79 226.77,-293.05 227.92,-301.67"/>
<polygon fill="black" stroke="black" points="224.44,-302.11 228.95,-311.7 231.41,-301.39 224.44,-302.11"/>
<g id="a_edge22&#45;headlabel"><a xlink:href="dir_000016_000002.html" target="_top" xlink:title="2">
<text text-anchor="middle" x="221.25" y="-295.02" font-family="Source Sans Pro" font-size="16.00">2</text>
</a>
</g>
</g>
<!-- dir_4af8813850092f06c26c5dae649a4a3b&#45;&gt;dir_a2fd6e42b2ec4a99febc0bdce62b160b -->
<g id="edge23" class="edge">
<title>dir_4af8813850092f06c26c5dae649a4a3b&#45;&gt;dir_a2fd6e42b2ec4a99febc0bdce62b160b</title>
<path fill="none" stroke="black" d="M215.91,-239.94C217.92,-222.02 221.18,-193.03 224,-168 224.95,-159.59 225.98,-150.43 226.92,-142.12"/>
<polygon fill="black" stroke="black" points="230.4,-142.52 228.05,-132.19 223.45,-141.73 230.4,-142.52"/>
<g id="a_edge23&#45;headlabel"><a xlink:href="dir_000016_000009.html" target="_top" xlink:title="1">
<text text-anchor="middle" x="232.82" y="-142.61" font-family="Source Sans Pro" font-size="16.00">1</text>
</a>
</g>
</g>
<!-- dir_4af8813850092f06c26c5dae649a4a3b&#45;&gt;dir_fc899c81e848db7af3002beb737c6817 -->
<g id="edge26" class="edge">
<title>dir_4af8813850092f06c26c5dae649a4a3b&#45;&gt;dir_fc899c81e848db7af3002beb737c6817</title>
<path fill="none" stroke="black" d="M228.35,-239.7C237.77,-230.88 250.31,-220.03 262.09,-210.47"/>
<polygon fill="black" stroke="black" points="264.44,-213.08 270.07,-204.1 260.07,-207.61 264.44,-213.08"/>
<g id="a_edge26&#45;headlabel"><a xlink:href="dir_000016_000014.html" target="_top" xlink:title="1">
<text text-anchor="middle" x="263.4" y="-213.74" font-family="Source Sans Pro" font-size="16.00">1</text>
</a>
</g>
</g>
</g>
</svg>
