<?xml version="1.0" encoding="UTF-8" standalone="no"?>
<!DOCTYPE svg PUBLIC "-//W3C//DTD SVG 1.1//EN"
 "http://www.w3.org/Graphics/SVG/1.1/DTD/svg11.dtd">
<!-- Generated by graphviz version 2.43.0 (0)
 -->
<!-- Title: Illumination&#45;Engine/src/GraphicsModule/Vulkan/DefaultShaders Pages: 1 -->
<svg width="368pt" height="118pt"
 viewBox="0.00 0.00 368.00 118.00" xmlns="http://www.w3.org/2000/svg" xmlns:xlink="http://www.w3.org/1999/xlink">
<g id="graph0" class="graph" transform="scale(1 1) rotate(0) translate(4 114)">
<title>Illumination&#45;Engine/src/GraphicsModule/Vulkan/DefaultShaders</title>
<polygon fill="white" stroke="transparent" points="-4,4 -4,-114 364,-114 364,4 -4,4"/>
<g id="clust1" class="cluster">
<title>clusterdir_0a322fa26bea7c0ed427871568c2467c</title>
<g id="a_clust1"><a xlink:href="dir_0a322fa26bea7c0ed427871568c2467c.html" target="_top" xlink:title="Vulkan">
<polygon fill="#edf0f7" stroke="#7f7f7f" stroke-dasharray="5,2" points="8,-8 8,-102 352,-102 352,-8 8,-8"/>
<text text-anchor="middle" x="180" y="-85.2" font-family="Source Sans Pro" font-size="16.00">Vulkan</text>
</a>
</g>
</g>
<g id="clust2" class="cluster">
<title>clusterdir_fc2843801cefb317065b321462f42c5a</title>
<g id="a_clust2"><a xlink:href="dir_fc2843801cefb317065b321462f42c5a.html" target="_top">
<polygon fill="#edf0f7" stroke="#404040" stroke-width="2" points="16,-16 16,-68 344,-68 344,-16 16,-16"/>
</a>
</g>
</g>
<!-- dir_fc2843801cefb317065b321462f42c5a -->
<g id="node1" class="node">
<title>dir_fc2843801cefb317065b321462f42c5a</title>
<text text-anchor="middle" x="276" y="-38.2" font-family="Source Sans Pro" font-size="16.00">DefaultShaders</text>
</g>
<!-- dir_7adba16c5c3a786107244abe54a193f5 -->
<g id="node2" class="node">
<title>dir_7adba16c5c3a786107244abe54a193f5</title>
<g id="a_node2"><a xlink:href="dir_7adba16c5c3a786107244abe54a193f5.html" target="_top" xlink:title="Rasterize">
<polygon fill="#a2b4d6" stroke="#404040" points="198,-60 120,-60 120,-24 198,-24 198,-60"/>
<text text-anchor="middle" x="159" y="-38.2" font-family="Source Sans Pro" font-size="16.00">Rasterize</text>
</a>
</g>
</g>
<!-- dir_592dd483c42a12e559386cfc233b87ef -->
<g id="node3" class="node">
<title>dir_592dd483c42a12e559386cfc233b87ef</title>
<g id="a_node3"><a xlink:href="dir_592dd483c42a12e559386cfc233b87ef.html" target="_top" xlink:title="RayTrace">
<polygon fill="#a2b4d6" stroke="#404040" points="101.5,-60 24.5,-60 24.5,-24 101.5,-24 101.5,-60"/>
<text text-anchor="middle" x="63" y="-38.2" font-family="Source Sans Pro" font-size="16.00">RayTrace</text>
</a>
</g>
</g>
</g>
</svg>
