<?xml version="1.0" encoding="UTF-8" standalone="no"?>
<!DOCTYPE svg PUBLIC "-//W3C//DTD SVG 1.1//EN"
 "http://www.w3.org/Graphics/SVG/1.1/DTD/svg11.dtd">
<!-- Generated by graphviz version 2.43.0 (0)
 -->
<!-- Title: Illumination&#45;Engine/src/GraphicsModule/DefaultShaders Pages: 1 -->
<svg width="346pt" height="118pt"
 viewBox="0.00 0.00 346.00 118.00" xmlns="http://www.w3.org/2000/svg" xmlns:xlink="http://www.w3.org/1999/xlink">
<g id="graph0" class="graph" transform="scale(1 1) rotate(0) translate(4 114)">
<title>Illumination&#45;Engine/src/GraphicsModule/DefaultShaders</title>
<polygon fill="white" stroke="transparent" points="-4,4 -4,-114 342,-114 342,4 -4,4"/>
<g id="clust1" class="cluster">
<title>clusterdir_5e0da4d097999b167d323a671a026d32</title>
<g id="a_clust1"><a xlink:href="dir_5e0da4d097999b167d323a671a026d32.html" target="_top" xlink:title="GraphicsModule">
<polygon fill="#edf0f7" stroke="#7f7f7f" stroke-dasharray="5,2" points="8,-8 8,-102 330,-102 330,-8 8,-8"/>
<text text-anchor="middle" x="169" y="-85.2" font-family="Source Sans Pro" font-size="16.00">GraphicsModule</text>
</a>
</g>
</g>
<g id="clust2" class="cluster">
<title>clusterdir_b760e2be46e7a479b02b6784343bf4a2</title>
<g id="a_clust2"><a xlink:href="dir_b760e2be46e7a479b02b6784343bf4a2.html" target="_top">
<polygon fill="#edf0f7" stroke="#404040" stroke-width="2" points="16,-16 16,-68 322,-68 322,-16 16,-16"/>
</a>
</g>
</g>
<!-- dir_b760e2be46e7a479b02b6784343bf4a2 -->
<g id="node1" class="node">
<title>dir_b760e2be46e7a479b02b6784343bf4a2</title>
<text text-anchor="middle" x="254" y="-38.2" font-family="Source Sans Pro" font-size="16.00">DefaultShaders</text>
</g>
<!-- dir_0074e3382ffda5999d20f5d039a9a4a7 -->
<g id="node2" class="node">
<title>dir_0074e3382ffda5999d20f5d039a9a4a7</title>
<g id="a_node2"><a xlink:href="dir_0074e3382ffda5999d20f5d039a9a4a7.html" target="_top" xlink:title="OpenGL">
<polygon fill="#a2b4d6" stroke="#404040" points="175.5,-60 104.5,-60 104.5,-24 175.5,-24 175.5,-60"/>
<text text-anchor="middle" x="140" y="-38.2" font-family="Source Sans Pro" font-size="16.00">OpenGL</text>
</a>
</g>
</g>
<!-- dir_1ef8eb592e7d33a976f2ce08bcf7c5d5 -->
<g id="node3" class="node">
<title>dir_1ef8eb592e7d33a976f2ce08bcf7c5d5</title>
<g id="a_node3"><a xlink:href="dir_1ef8eb592e7d33a976f2ce08bcf7c5d5.html" target="_top" xlink:title="Vulkan">
<polygon fill="#a2b4d6" stroke="#404040" points="86,-60 24,-60 24,-24 86,-24 86,-60"/>
<text text-anchor="middle" x="55" y="-38.2" font-family="Source Sans Pro" font-size="16.00">Vulkan</text>
</a>
</g>
</g>
</g>
</svg>
