<?xml version="1.0" encoding="UTF-8" standalone="no"?>
<!DOCTYPE svg PUBLIC "-//W3C//DTD SVG 1.1//EN"
 "http://www.w3.org/Graphics/SVG/1.1/DTD/svg11.dtd">
<!-- Generated by graphviz version 2.43.0 (0)
 -->
<!-- Title: Illumination&#45;Engine/src/GraphicsModule/Vulkan Pages: 1 -->
<svg width="256pt" height="166pt"
 viewBox="0.00 0.00 256.00 166.00" xmlns="http://www.w3.org/2000/svg" xmlns:xlink="http://www.w3.org/1999/xlink">
<g id="graph0" class="graph" transform="scale(1 1) rotate(0) translate(4 162)">
<title>Illumination&#45;Engine/src/GraphicsModule/Vulkan</title>
<polygon fill="white" stroke="transparent" points="-4,4 -4,-162 252,-162 252,4 -4,4"/>
<g id="clust1" class="cluster">
<title>clusterdir_5e0da4d097999b167d323a671a026d32</title>
<g id="a_clust1"><a xlink:href="dir_5e0da4d097999b167d323a671a026d32.html" target="_top" xlink:title="GraphicsModule">
<polygon fill="#edf0f7" stroke="#7f7f7f" stroke-dasharray="5,2" points="8,-56 8,-150 240,-150 240,-56 8,-56"/>
<text text-anchor="middle" x="124" y="-133.2" font-family="Source Sans Pro" font-size="16.00">GraphicsModule</text>
</a>
</g>
</g>
<g id="clust2" class="cluster">
<title>clusterdir_0a322fa26bea7c0ed427871568c2467c</title>
<g id="a_clust2"><a xlink:href="dir_0a322fa26bea7c0ed427871568c2467c.html" target="_top">
<polygon fill="#edf0f7" stroke="#404040" stroke-width="2" points="16,-64 16,-116 232,-116 232,-64 16,-64"/>
</a>
</g>
</g>
<!-- dir_0a322fa26bea7c0ed427871568c2467c -->
<g id="node1" class="node">
<title>dir_0a322fa26bea7c0ed427871568c2467c</title>
<text text-anchor="middle" x="193" y="-86.2" font-family="Source Sans Pro" font-size="16.00">Vulkan</text>
</g>
<!-- dir_a45b41982f9e45f9e73ec841f70f7600 -->
<g id="node3" class="node">
<title>dir_a45b41982f9e45f9e73ec841f70f7600</title>
<g id="a_node3"><a xlink:href="dir_a45b41982f9e45f9e73ec841f70f7600.html" target="_top" xlink:title="Core">
<polygon fill="none" stroke="red" stroke-dasharray="5,2" points="220,-36 166,-36 166,0 220,0 220,-36"/>
<text text-anchor="middle" x="193" y="-14.2" font-family="Source Sans Pro" font-size="16.00">Core</text>
</a>
</g>
</g>
<!-- dir_0a322fa26bea7c0ed427871568c2467c&#45;&gt;dir_a45b41982f9e45f9e73ec841f70f7600 -->
<g id="edge1" class="edge">
<title>dir_0a322fa26bea7c0ed427871568c2467c&#45;&gt;dir_a45b41982f9e45f9e73ec841f70f7600</title>
<path fill="none" stroke="black" d="M193,-71.7C193,-63.98 193,-54.71 193,-46.11"/>
<polygon fill="black" stroke="black" points="196.5,-46.1 193,-36.1 189.5,-46.1 196.5,-46.1"/>
<g id="a_edge1&#45;headlabel"><a xlink:href="dir_000014_000001.html" target="_top" xlink:title="1">
<text text-anchor="middle" x="199.34" y="-45.9" font-family="Source Sans Pro" font-size="16.00">1</text>
</a>
</g>
</g>
<!-- dir_fc2843801cefb317065b321462f42c5a -->
<g id="node2" class="node">
<title>dir_fc2843801cefb317065b321462f42c5a</title>
<g id="a_node2"><a xlink:href="dir_fc2843801cefb317065b321462f42c5a.html" target="_top" xlink:title="DefaultShaders">
<polygon fill="#a2b4d6" stroke="#404040" points="144,-108 24,-108 24,-72 144,-72 144,-108"/>
<text text-anchor="middle" x="84" y="-86.2" font-family="Source Sans Pro" font-size="16.00">DefaultShaders</text>
</a>
</g>
</g>
</g>
</svg>
