<?xml version="1.0" encoding="UTF-8" standalone="no"?>
<!DOCTYPE svg PUBLIC "-//W3C//DTD SVG 1.1//EN"
 "http://www.w3.org/Graphics/SVG/1.1/DTD/svg11.dtd">
<!-- Generated by graphviz version 2.43.0 (0)
 -->
<!-- Title: Illumination&#45;Engine/src/GraphicsModule/Shader Pages: 1 -->
<svg width="493pt" height="174pt"
 viewBox="0.00 0.00 493.00 174.00" xmlns="http://www.w3.org/2000/svg" xmlns:xlink="http://www.w3.org/1999/xlink">
<g id="graph0" class="graph" transform="scale(1 1) rotate(0) translate(4 170)">
<title>Illumination&#45;Engine/src/GraphicsModule/Shader</title>
<polygon fill="white" stroke="transparent" points="-4,4 -4,-170 489,-170 489,4 -4,4"/>
<g id="clust1" class="cluster">
<title>clusterdir_5e0da4d097999b167d323a671a026d32</title>
<g id="a_clust1"><a xlink:href="dir_5e0da4d097999b167d323a671a026d32.html" target="_top" xlink:title="GraphicsModule">
<polygon fill="#edf0f7" stroke="#7f7f7f" stroke-dasharray="5,2" points="8,-8 8,-158 421,-158 421,-8 8,-8"/>
<text text-anchor="middle" x="214.5" y="-141.2" font-family="Source Sans Pro" font-size="16.00">GraphicsModule</text>
</a>
</g>
</g>
<!-- dir_302172eb7f0711faa424411fa3b0c0b6 -->
<g id="node1" class="node">
<title>dir_302172eb7f0711faa424411fa3b0c0b6</title>
<g id="a_node1"><a xlink:href="dir_302172eb7f0711faa424411fa3b0c0b6.html" target="_top" xlink:title="CommandBuffer">
<polygon fill="#a2b4d6" stroke="red" points="145.5,-52 16.5,-52 16.5,-16 145.5,-16 145.5,-52"/>
<text text-anchor="middle" x="81" y="-30.2" font-family="Source Sans Pro" font-size="16.00">CommandBuffer</text>
</a>
</g>
</g>
<!-- dir_a2fd6e42b2ec4a99febc0bdce62b160b -->
<g id="node2" class="node">
<title>dir_a2fd6e42b2ec4a99febc0bdce62b160b</title>
<g id="a_node2"><a xlink:href="dir_a2fd6e42b2ec4a99febc0bdce62b160b.html" target="_top" xlink:title="Image">
<polygon fill="#a2b4d6" stroke="#404040" points="222.5,-52 163.5,-52 163.5,-16 222.5,-16 222.5,-52"/>
<text text-anchor="middle" x="193" y="-30.2" font-family="Source Sans Pro" font-size="16.00">Image</text>
</a>
</g>
</g>
<!-- dir_d917beb8efe0d43cf98f2f08a709b14c -->
<g id="node3" class="node">
<title>dir_d917beb8efe0d43cf98f2f08a709b14c</title>
<g id="a_node3"><a xlink:href="dir_d917beb8efe0d43cf98f2f08a709b14c.html" target="_top" xlink:title="Buffer">
<polygon fill="#a2b4d6" stroke="#404040" points="299,-52 241,-52 241,-16 299,-16 299,-52"/>
<text text-anchor="middle" x="270" y="-30.2" font-family="Source Sans Pro" font-size="16.00">Buffer</text>
</a>
</g>
</g>
<!-- dir_fc899c81e848db7af3002beb737c6817 -->
<g id="node4" class="node">
<title>dir_fc899c81e848db7af3002beb737c6817</title>
<g id="a_node4"><a xlink:href="dir_fc899c81e848db7af3002beb737c6817.html" target="_top" xlink:title="Renderable">
<polygon fill="#a2b4d6" stroke="#404040" points="412.5,-52 317.5,-52 317.5,-16 412.5,-16 412.5,-52"/>
<text text-anchor="middle" x="365" y="-30.2" font-family="Source Sans Pro" font-size="16.00">Renderable</text>
</a>
</g>
</g>
<!-- dir_4af8813850092f06c26c5dae649a4a3b -->
<g id="node5" class="node">
<title>dir_4af8813850092f06c26c5dae649a4a3b</title>
<g id="a_node5"><a xlink:href="dir_4af8813850092f06c26c5dae649a4a3b.html" target="_top" xlink:title="Shader">
<polygon fill="#edf0f7" stroke="#404040" stroke-width="2" points="302.5,-124 237.5,-124 237.5,-88 302.5,-88 302.5,-124"/>
<text text-anchor="middle" x="270" y="-102.2" font-family="Source Sans Pro" font-size="16.00">Shader</text>
</a>
</g>
</g>
<!-- dir_4af8813850092f06c26c5dae649a4a3b&#45;&gt;dir_302172eb7f0711faa424411fa3b0c0b6 -->
<g id="edge1" class="edge">
<title>dir_4af8813850092f06c26c5dae649a4a3b&#45;&gt;dir_302172eb7f0711faa424411fa3b0c0b6</title>
<path fill="none" stroke="black" d="M237.08,-92.81C209.36,-82.54 169.11,-67.63 136.43,-55.53"/>
<polygon fill="black" stroke="black" points="137.59,-52.23 126.99,-52.03 135.15,-58.79 137.59,-52.23"/>
<g id="a_edge1&#45;headlabel"><a xlink:href="dir_000016_000002.html" target="_top" xlink:title="2">
<text text-anchor="middle" x="141.94" y="-47.01" font-family="Source Sans Pro" font-size="16.00">2</text>
</a>
</g>
</g>
<!-- dir_4af8813850092f06c26c5dae649a4a3b&#45;&gt;dir_a2fd6e42b2ec4a99febc0bdce62b160b -->
<g id="edge2" class="edge">
<title>dir_4af8813850092f06c26c5dae649a4a3b&#45;&gt;dir_a2fd6e42b2ec4a99febc0bdce62b160b</title>
<path fill="none" stroke="black" d="M250.97,-87.7C241.46,-79.05 229.79,-68.45 219.43,-59.03"/>
<polygon fill="black" stroke="black" points="221.57,-56.24 211.81,-52.1 216.86,-61.42 221.57,-56.24"/>
<g id="a_edge2&#45;headlabel"><a xlink:href="dir_000016_000009.html" target="_top" xlink:title="1">
<text text-anchor="middle" x="226.14" y="-52.76" font-family="Source Sans Pro" font-size="16.00">1</text>
</a>
</g>
</g>
<!-- dir_4af8813850092f06c26c5dae649a4a3b&#45;&gt;dir_d917beb8efe0d43cf98f2f08a709b14c -->
<g id="edge4" class="edge">
<title>dir_4af8813850092f06c26c5dae649a4a3b&#45;&gt;dir_d917beb8efe0d43cf98f2f08a709b14c</title>
<path fill="none" stroke="black" d="M270,-87.7C270,-79.98 270,-70.71 270,-62.11"/>
<polygon fill="black" stroke="black" points="273.5,-62.1 270,-52.1 266.5,-62.1 273.5,-62.1"/>
<g id="a_edge4&#45;headlabel"><a xlink:href="dir_000016_000001.html" target="_top" xlink:title="1">
<text text-anchor="middle" x="276.34" y="-61.9" font-family="Source Sans Pro" font-size="16.00">1</text>
</a>
</g>
</g>
<!-- dir_4af8813850092f06c26c5dae649a4a3b&#45;&gt;dir_fc899c81e848db7af3002beb737c6817 -->
<g id="edge5" class="edge">
<title>dir_4af8813850092f06c26c5dae649a4a3b&#45;&gt;dir_fc899c81e848db7af3002beb737c6817</title>
<path fill="none" stroke="black" d="M293.48,-87.7C305.56,-78.8 320.45,-67.82 333.52,-58.2"/>
<polygon fill="black" stroke="black" points="335.81,-60.85 341.79,-52.1 331.66,-55.22 335.81,-60.85"/>
<g id="a_edge5&#45;headlabel"><a xlink:href="dir_000016_000014.html" target="_top" xlink:title="1">
<text text-anchor="middle" x="334.6" y="-61.47" font-family="Source Sans Pro" font-size="16.00">1</text>
</a>
</g>
</g>
<!-- dir_a45b41982f9e45f9e73ec841f70f7600 -->
<g id="node6" class="node">
<title>dir_a45b41982f9e45f9e73ec841f70f7600</title>
<g id="a_node6"><a xlink:href="dir_a45b41982f9e45f9e73ec841f70f7600.html" target="_top" xlink:title="Core">
<polygon fill="none" stroke="red" stroke-dasharray="5,2" points="485,-52 431,-52 431,-16 485,-16 485,-52"/>
<text text-anchor="middle" x="458" y="-30.2" font-family="Source Sans Pro" font-size="16.00">Core</text>
</a>
</g>
</g>
<!-- dir_4af8813850092f06c26c5dae649a4a3b&#45;&gt;dir_a45b41982f9e45f9e73ec841f70f7600 -->
<g id="edge3" class="edge">
<title>dir_4af8813850092f06c26c5dae649a4a3b&#45;&gt;dir_a45b41982f9e45f9e73ec841f70f7600</title>
<path fill="none" stroke="black" d="M302.58,-95.39C332.2,-86.31 377.18,-71.71 421.37,-53.38"/>
<polygon fill="black" stroke="black" points="422.92,-56.52 430.78,-49.41 420.2,-50.07 422.92,-56.52"/>
<g id="a_edge3&#45;headlabel"><a xlink:href="dir_000016_000003.html" target="_top" xlink:title="3">
<text text-anchor="middle" x="420.71" y="-56.74" font-family="Source Sans Pro" font-size="16.00">3</text>
</a>
</g>
</g>
</g>
</svg>
