<?xml version="1.0" encoding="UTF-8" standalone="no"?>
<!DOCTYPE svg PUBLIC "-//W3C//DTD SVG 1.1//EN"
 "http://www.w3.org/Graphics/SVG/1.1/DTD/svg11.dtd">
<!-- Generated by graphviz version 2.43.0 (0)
 -->
<!-- Title: Illumination&#45;Engine/src/GraphicsModule/RenderPass Pages: 1 -->
<svg width="303pt" height="174pt"
 viewBox="0.00 0.00 303.00 174.00" xmlns="http://www.w3.org/2000/svg" xmlns:xlink="http://www.w3.org/1999/xlink">
<g id="graph0" class="graph" transform="scale(1 1) rotate(0) translate(4 170)">
<title>Illumination&#45;Engine/src/GraphicsModule/RenderPass</title>
<polygon fill="white" stroke="transparent" points="-4,4 -4,-170 299,-170 299,4 -4,4"/>
<g id="clust1" class="cluster">
<title>clusterdir_5e0da4d097999b167d323a671a026d32</title>
<g id="a_clust1"><a xlink:href="dir_5e0da4d097999b167d323a671a026d32.html" target="_top" xlink:title="GraphicsModule">
<polygon fill="#edf0f7" stroke="#7f7f7f" stroke-dasharray="5,2" points="8,-8 8,-158 231,-158 231,-8 8,-8"/>
<text text-anchor="middle" x="119.5" y="-141.2" font-family="Source Sans Pro" font-size="16.00">GraphicsModule</text>
</a>
</g>
</g>
<!-- dir_302172eb7f0711faa424411fa3b0c0b6 -->
<g id="node1" class="node">
<title>dir_302172eb7f0711faa424411fa3b0c0b6</title>
<g id="a_node1"><a xlink:href="dir_302172eb7f0711faa424411fa3b0c0b6.html" target="_top" xlink:title="CommandBuffer">
<polygon fill="#a2b4d6" stroke="red" points="145.5,-52 16.5,-52 16.5,-16 145.5,-16 145.5,-52"/>
<text text-anchor="middle" x="81" y="-30.2" font-family="Source Sans Pro" font-size="16.00">CommandBuffer</text>
</a>
</g>
</g>
<!-- dir_a2fd6e42b2ec4a99febc0bdce62b160b -->
<g id="node2" class="node">
<title>dir_a2fd6e42b2ec4a99febc0bdce62b160b</title>
<g id="a_node2"><a xlink:href="dir_a2fd6e42b2ec4a99febc0bdce62b160b.html" target="_top" xlink:title="Image">
<polygon fill="#a2b4d6" stroke="#404040" points="222.5,-52 163.5,-52 163.5,-16 222.5,-16 222.5,-52"/>
<text text-anchor="middle" x="193" y="-30.2" font-family="Source Sans Pro" font-size="16.00">Image</text>
</a>
</g>
</g>
<!-- dir_9324b32cb1ccf315e14814a22374c0f8 -->
<g id="node3" class="node">
<title>dir_9324b32cb1ccf315e14814a22374c0f8</title>
<g id="a_node3"><a xlink:href="dir_9324b32cb1ccf315e14814a22374c0f8.html" target="_top" xlink:title="RenderPass">
<polygon fill="#edf0f7" stroke="#404040" stroke-width="2" points="222.5,-124 127.5,-124 127.5,-88 222.5,-88 222.5,-124"/>
<text text-anchor="middle" x="175" y="-102.2" font-family="Source Sans Pro" font-size="16.00">RenderPass</text>
</a>
</g>
</g>
<!-- dir_9324b32cb1ccf315e14814a22374c0f8&#45;&gt;dir_302172eb7f0711faa424411fa3b0c0b6 -->
<g id="edge1" class="edge">
<title>dir_9324b32cb1ccf315e14814a22374c0f8&#45;&gt;dir_302172eb7f0711faa424411fa3b0c0b6</title>
<path fill="none" stroke="black" d="M151.76,-87.7C139.81,-78.8 125.08,-67.82 112.15,-58.2"/>
<polygon fill="black" stroke="black" points="114.08,-55.27 103.97,-52.1 109.9,-60.88 114.08,-55.27"/>
<g id="a_edge1&#45;headlabel"><a xlink:href="dir_000015_000002.html" target="_top" xlink:title="1">
<text text-anchor="middle" x="118.66" y="-51.34" font-family="Source Sans Pro" font-size="16.00">1</text>
</a>
</g>
</g>
<!-- dir_9324b32cb1ccf315e14814a22374c0f8&#45;&gt;dir_a2fd6e42b2ec4a99febc0bdce62b160b -->
<g id="edge2" class="edge">
<title>dir_9324b32cb1ccf315e14814a22374c0f8&#45;&gt;dir_a2fd6e42b2ec4a99febc0bdce62b160b</title>
<path fill="none" stroke="black" d="M179.45,-87.7C181.45,-79.9 183.87,-70.51 186.1,-61.83"/>
<polygon fill="black" stroke="black" points="189.5,-62.66 188.6,-52.1 182.72,-60.92 189.5,-62.66"/>
<g id="a_edge2&#45;headlabel"><a xlink:href="dir_000015_000009.html" target="_top" xlink:title="1">
<text text-anchor="middle" x="191.36" y="-63.05" font-family="Source Sans Pro" font-size="16.00">1</text>
</a>
</g>
</g>
<!-- dir_a45b41982f9e45f9e73ec841f70f7600 -->
<g id="node4" class="node">
<title>dir_a45b41982f9e45f9e73ec841f70f7600</title>
<g id="a_node4"><a xlink:href="dir_a45b41982f9e45f9e73ec841f70f7600.html" target="_top" xlink:title="Core">
<polygon fill="none" stroke="red" stroke-dasharray="5,2" points="295,-52 241,-52 241,-16 295,-16 295,-52"/>
<text text-anchor="middle" x="268" y="-30.2" font-family="Source Sans Pro" font-size="16.00">Core</text>
</a>
</g>
</g>
<!-- dir_9324b32cb1ccf315e14814a22374c0f8&#45;&gt;dir_a45b41982f9e45f9e73ec841f70f7600 -->
<g id="edge3" class="edge">
<title>dir_9324b32cb1ccf315e14814a22374c0f8&#45;&gt;dir_a45b41982f9e45f9e73ec841f70f7600</title>
<path fill="none" stroke="black" d="M197.99,-87.7C209.81,-78.8 224.39,-67.82 237.18,-58.2"/>
<polygon fill="black" stroke="black" points="239.39,-60.91 245.28,-52.1 235.18,-55.32 239.39,-60.91"/>
<g id="a_edge3&#45;headlabel"><a xlink:href="dir_000015_000003.html" target="_top" xlink:title="1">
<text text-anchor="middle" x="238.23" y="-61.54" font-family="Source Sans Pro" font-size="16.00">1</text>
</a>
</g>
</g>
</g>
</svg>
