<?xml version="1.0" encoding="UTF-8" standalone="no"?>
<!DOCTYPE svg PUBLIC "-//W3C//DTD SVG 1.1//EN"
 "http://www.w3.org/Graphics/SVG/1.1/DTD/svg11.dtd">
<!-- Generated by graphviz version 2.43.0 (0)
 -->
<!-- Title: Illumination&#45;Engine/src Pages: 1 -->
<svg width="326pt" height="262pt"
 viewBox="0.00 0.00 326.00 262.00" xmlns="http://www.w3.org/2000/svg" xmlns:xlink="http://www.w3.org/1999/xlink">
<g id="graph0" class="graph" transform="scale(1 1) rotate(0) translate(4 258)">
<title>Illumination&#45;Engine/src</title>
<polygon fill="white" stroke="transparent" points="-4,4 -4,-258 322,-258 322,4 -4,4"/>
<g id="clust1" class="cluster">
<title>clusterdir_37b0beee3b5d192db6cf0b2a48cd97aa</title>
<g id="a_clust1"><a xlink:href="dir_37b0beee3b5d192db6cf0b2a48cd97aa.html" target="_top" xlink:title="Illumination&#45;Engine">
<polygon fill="#edf0f7" stroke="#404040" stroke-dasharray="5,2" points="8,-8 8,-246 310,-246 310,-8 8,-8"/>
<text text-anchor="middle" x="159" y="-229.2" font-family="Source Sans Pro" font-size="16.00">Illumination&#45;Engine</text>
</a>
</g>
</g>
<g id="clust2" class="cluster">
<title>clusterdir_11522b5b7e5fd02e7f7980ad4667a586</title>
<g id="a_clust2"><a xlink:href="dir_11522b5b7e5fd02e7f7980ad4667a586.html" target="_top">
<polygon fill="#edf0f7" stroke="#404040" stroke-width="2" points="16,-16 16,-212 302,-212 302,-16 16,-16"/>
</a>
</g>
</g>
<!-- dir_11522b5b7e5fd02e7f7980ad4667a586 -->
<g id="node1" class="node">
<title>dir_11522b5b7e5fd02e7f7980ad4667a586</title>
<text text-anchor="middle" x="108" y="-182.2" font-family="Source Sans Pro" font-size="16.00">src</text>
</g>
<!-- dir_a45b41982f9e45f9e73ec841f70f7600 -->
<g id="node2" class="node">
<title>dir_a45b41982f9e45f9e73ec841f70f7600</title>
<g id="a_node2"><a xlink:href="dir_a45b41982f9e45f9e73ec841f70f7600.html" target="_top" xlink:title="Core">
<polygon fill="#a2b4d6" stroke="#404040" points="135,-60 81,-60 81,-24 135,-24 135,-60"/>
<text text-anchor="middle" x="108" y="-38.2" font-family="Source Sans Pro" font-size="16.00">Core</text>
</a>
</g>
</g>
<!-- dir_11522b5b7e5fd02e7f7980ad4667a586&#45;&gt;dir_a45b41982f9e45f9e73ec841f70f7600 -->
<g id="edge2" class="edge">
<title>dir_11522b5b7e5fd02e7f7980ad4667a586&#45;&gt;dir_a45b41982f9e45f9e73ec841f70f7600</title>
<path fill="none" stroke="black" d="M80.93,-173.3C64.38,-164.55 44.6,-150.84 35,-132 27.73,-117.75 27.73,-110.25 35,-96 42.95,-80.4 57.88,-68.32 72.18,-59.66"/>
<polygon fill="black" stroke="black" points="73.95,-62.67 80.93,-54.7 70.5,-56.58 73.95,-62.67"/>
<g id="a_edge2&#45;headlabel"><a xlink:href="dir_000016_000003.html" target="_top" xlink:title="18">
<text text-anchor="middle" x="72.22" y="-63.12" font-family="Source Sans Pro" font-size="16.00">18</text>
</a>
</g>
</g>
<!-- dir_5e0da4d097999b167d323a671a026d32 -->
<g id="node3" class="node">
<title>dir_5e0da4d097999b167d323a671a026d32</title>
<g id="a_node3"><a xlink:href="dir_5e0da4d097999b167d323a671a026d32.html" target="_top" xlink:title="GraphicsModule">
<polygon fill="#a2b4d6" stroke="#404040" points="171.5,-132 44.5,-132 44.5,-96 171.5,-96 171.5,-132"/>
<text text-anchor="middle" x="108" y="-110.2" font-family="Source Sans Pro" font-size="16.00">GraphicsModule</text>
</a>
</g>
</g>
<!-- dir_11522b5b7e5fd02e7f7980ad4667a586&#45;&gt;dir_5e0da4d097999b167d323a671a026d32 -->
<g id="edge1" class="edge">
<title>dir_11522b5b7e5fd02e7f7980ad4667a586&#45;&gt;dir_5e0da4d097999b167d323a671a026d32</title>
<path fill="none" stroke="black" d="M108,-167.7C108,-159.98 108,-150.71 108,-142.11"/>
<polygon fill="black" stroke="black" points="111.5,-142.1 108,-132.1 104.5,-142.1 111.5,-142.1"/>
<g id="a_edge1&#45;headlabel"><a xlink:href="dir_000016_000007.html" target="_top" xlink:title="50">
<text text-anchor="middle" x="114.34" y="-141.9" font-family="Source Sans Pro" font-size="16.00">50</text>
</a>
</g>
</g>
<!-- dir_c09111e94496c02b62527b6a0a420d1a -->
<g id="node4" class="node">
<title>dir_c09111e94496c02b62527b6a0a420d1a</title>
<g id="a_node4"><a xlink:href="dir_c09111e94496c02b62527b6a0a420d1a.html" target="_top" xlink:title="InputModule">
<polygon fill="#a2b4d6" stroke="#404040" points="294,-132 190,-132 190,-96 294,-96 294,-132"/>
<text text-anchor="middle" x="242" y="-110.2" font-family="Source Sans Pro" font-size="16.00">InputModule</text>
</a>
</g>
</g>
<!-- dir_11522b5b7e5fd02e7f7980ad4667a586&#45;&gt;dir_c09111e94496c02b62527b6a0a420d1a -->
<g id="edge3" class="edge">
<title>dir_11522b5b7e5fd02e7f7980ad4667a586&#45;&gt;dir_c09111e94496c02b62527b6a0a420d1a</title>
<path fill="none" stroke="black" d="M135.12,-170.83C153.77,-161.09 178.91,-147.96 200.12,-136.88"/>
<polygon fill="black" stroke="black" points="202,-139.85 209.24,-132.11 198.76,-133.64 202,-139.85"/>
<g id="a_edge3&#45;headlabel"><a xlink:href="dir_000016_000010.html" target="_top" xlink:title="1">
<text text-anchor="middle" x="200.13" y="-140.23" font-family="Source Sans Pro" font-size="16.00">1</text>
</a>
</g>
</g>
<!-- dir_5e0da4d097999b167d323a671a026d32&#45;&gt;dir_a45b41982f9e45f9e73ec841f70f7600 -->
<g id="edge4" class="edge">
<title>dir_5e0da4d097999b167d323a671a026d32&#45;&gt;dir_a45b41982f9e45f9e73ec841f70f7600</title>
<path fill="none" stroke="black" d="M108,-95.7C108,-87.98 108,-78.71 108,-70.11"/>
<polygon fill="black" stroke="black" points="111.5,-70.1 108,-60.1 104.5,-70.1 111.5,-70.1"/>
<g id="a_edge4&#45;headlabel"><a xlink:href="dir_000007_000003.html" target="_top" xlink:title="16">
<text text-anchor="middle" x="114.34" y="-69.9" font-family="Source Sans Pro" font-size="16.00">16</text>
</a>
</g>
</g>
<!-- dir_c09111e94496c02b62527b6a0a420d1a&#45;&gt;dir_a45b41982f9e45f9e73ec841f70f7600 -->
<g id="edge5" class="edge">
<title>dir_c09111e94496c02b62527b6a0a420d1a&#45;&gt;dir_a45b41982f9e45f9e73ec841f70f7600</title>
<path fill="none" stroke="black" d="M209.22,-95.88C189.47,-85.56 164.29,-72.4 143.98,-61.8"/>
<polygon fill="black" stroke="black" points="145.52,-58.65 135.04,-57.12 142.28,-64.86 145.52,-58.65"/>
<g id="a_edge5&#45;headlabel"><a xlink:href="dir_000010_000003.html" target="_top" xlink:title="1">
<text text-anchor="middle" x="150.02" y="-54" font-family="Source Sans Pro" font-size="16.00">1</text>
</a>
</g>
</g>
</g>
</svg>
