<?xml version="1.0" encoding="UTF-8" standalone="no"?>
<!DOCTYPE svg PUBLIC "-//W3C//DTD SVG 1.1//EN"
 "http://www.w3.org/Graphics/SVG/1.1/DTD/svg11.dtd">
<!-- Generated by graphviz version 2.43.0 (0)
 -->
<!-- Title: Illumination&#45;Engine/src/Core Pages: 1 -->
<svg width="654pt" height="118pt"
 viewBox="0.00 0.00 654.00 118.00" xmlns="http://www.w3.org/2000/svg" xmlns:xlink="http://www.w3.org/1999/xlink">
<g id="graph0" class="graph" transform="scale(1 1) rotate(0) translate(4 114)">
<title>Illumination&#45;Engine/src/Core</title>
<polygon fill="white" stroke="transparent" points="-4,4 -4,-114 650,-114 650,4 -4,4"/>
<g id="clust1" class="cluster">
<title>clusterdir_11522b5b7e5fd02e7f7980ad4667a586</title>
<g id="a_clust1"><a xlink:href="dir_11522b5b7e5fd02e7f7980ad4667a586.html" target="_top" xlink:title="src">
<polygon fill="#edf0f7" stroke="#7f7f7f" stroke-dasharray="5,2" points="8,-8 8,-102 638,-102 638,-8 8,-8"/>
<text text-anchor="middle" x="323" y="-85.2" font-family="Source Sans Pro" font-size="16.00">src</text>
</a>
</g>
</g>
<g id="clust2" class="cluster">
<title>clusterdir_a45b41982f9e45f9e73ec841f70f7600</title>
<g id="a_clust2"><a xlink:href="dir_a45b41982f9e45f9e73ec841f70f7600.html" target="_top">
<polygon fill="#edf0f7" stroke="#404040" stroke-width="2" points="16,-16 16,-68 630,-68 630,-16 16,-16"/>
</a>
</g>
</g>
<!-- dir_a45b41982f9e45f9e73ec841f70f7600 -->
<g id="node1" class="node">
<title>dir_a45b41982f9e45f9e73ec841f70f7600</title>
<text text-anchor="middle" x="595" y="-38.2" font-family="Source Sans Pro" font-size="16.00">Core</text>
</g>
<!-- dir_4a46cdf4329ad63e479fbd878f406aea -->
<g id="node2" class="node">
<title>dir_4a46cdf4329ad63e479fbd878f406aea</title>
<g id="a_node2"><a xlink:href="dir_4a46cdf4329ad63e479fbd878f406aea.html" target="_top" xlink:title="AssetModule">
<polygon fill="#a2b4d6" stroke="#404040" points="549.5,-60 446.5,-60 446.5,-24 549.5,-24 549.5,-60"/>
<text text-anchor="middle" x="498" y="-38.2" font-family="Source Sans Pro" font-size="16.00">AssetModule</text>
</a>
</g>
</g>
<!-- dir_511678282fae3b236ea9571cd62bbc80 -->
<g id="node3" class="node">
<title>dir_511678282fae3b236ea9571cd62bbc80</title>
<g id="a_node3"><a xlink:href="dir_511678282fae3b236ea9571cd62bbc80.html" target="_top" xlink:title="FileSystemModule">
<polygon fill="#a2b4d6" stroke="#404040" points="428,-60 288,-60 288,-24 428,-24 428,-60"/>
<text text-anchor="middle" x="358" y="-38.2" font-family="Source Sans Pro" font-size="16.00">FileSystemModule</text>
</a>
</g>
</g>
<!-- dir_a3f6fd9b1a6f2c3026db7198b09ab0cf -->
<g id="node4" class="node">
<title>dir_a3f6fd9b1a6f2c3026db7198b09ab0cf</title>
<g id="a_node4"><a xlink:href="dir_a3f6fd9b1a6f2c3026db7198b09ab0cf.html" target="_top" xlink:title="LogModule">
<polygon fill="#a2b4d6" stroke="#404040" points="270,-60 178,-60 178,-24 270,-24 270,-60"/>
<text text-anchor="middle" x="224" y="-38.2" font-family="Source Sans Pro" font-size="16.00">LogModule</text>
</a>
</g>
</g>
<!-- dir_1ca166060f49b9bb660406b68bca2fb3 -->
<g id="node5" class="node">
<title>dir_1ca166060f49b9bb660406b68bca2fb3</title>
<g id="a_node5"><a xlink:href="dir_1ca166060f49b9bb660406b68bca2fb3.html" target="_top" xlink:title="ThreadingModule">
<polygon fill="#a2b4d6" stroke="#404040" points="160,-60 24,-60 24,-24 160,-24 160,-60"/>
<text text-anchor="middle" x="92" y="-38.2" font-family="Source Sans Pro" font-size="16.00">ThreadingModule</text>
</a>
</g>
</g>
</g>
</svg>
