<?xml version="1.0" encoding="UTF-8" standalone="no"?>
<!DOCTYPE svg PUBLIC "-//W3C//DTD SVG 1.1//EN"
 "http://www.w3.org/Graphics/SVG/1.1/DTD/svg11.dtd">
<!-- Generated by graphviz version 2.43.0 (0)
 -->
<!-- Title: Illumination&#45;Engine/src/GraphicsModule/Buffer Pages: 1 -->
<svg width="170pt" height="174pt"
 viewBox="0.00 0.00 170.00 174.00" xmlns="http://www.w3.org/2000/svg" xmlns:xlink="http://www.w3.org/1999/xlink">
<g id="graph0" class="graph" transform="scale(1 1) rotate(0) translate(4 170)">
<title>Illumination&#45;Engine/src/GraphicsModule/Buffer</title>
<polygon fill="white" stroke="transparent" points="-4,4 -4,-170 166,-170 166,4 -4,4"/>
<g id="clust1" class="cluster">
<title>clusterdir_5e0da4d097999b167d323a671a026d32</title>
<g id="a_clust1"><a xlink:href="dir_5e0da4d097999b167d323a671a026d32.html" target="_top" xlink:title="GraphicsModule">
<polygon fill="#edf0f7" stroke="#7f7f7f" stroke-dasharray="5,2" points="8,-8 8,-158 154,-158 154,-8 8,-8"/>
<text text-anchor="middle" x="81" y="-141.2" font-family="Source Sans Pro" font-size="16.00">GraphicsModule</text>
</a>
</g>
</g>
<!-- dir_302172eb7f0711faa424411fa3b0c0b6 -->
<g id="node1" class="node">
<title>dir_302172eb7f0711faa424411fa3b0c0b6</title>
<g id="a_node1"><a xlink:href="dir_302172eb7f0711faa424411fa3b0c0b6.html" target="_top" xlink:title="CommandBuffer">
<polygon fill="#a2b4d6" stroke="red" points="145.5,-52 16.5,-52 16.5,-16 145.5,-16 145.5,-52"/>
<text text-anchor="middle" x="81" y="-30.2" font-family="Source Sans Pro" font-size="16.00">CommandBuffer</text>
</a>
</g>
</g>
<!-- dir_d917beb8efe0d43cf98f2f08a709b14c -->
<g id="node2" class="node">
<title>dir_d917beb8efe0d43cf98f2f08a709b14c</title>
<g id="a_node2"><a xlink:href="dir_d917beb8efe0d43cf98f2f08a709b14c.html" target="_top" xlink:title="Buffer">
<polygon fill="#edf0f7" stroke="#404040" stroke-width="2" points="110,-124 52,-124 52,-88 110,-88 110,-124"/>
<text text-anchor="middle" x="81" y="-102.2" font-family="Source Sans Pro" font-size="16.00">Buffer</text>
</a>
</g>
</g>
<!-- dir_d917beb8efe0d43cf98f2f08a709b14c&#45;&gt;dir_302172eb7f0711faa424411fa3b0c0b6 -->
<g id="edge1" class="edge">
<title>dir_d917beb8efe0d43cf98f2f08a709b14c&#45;&gt;dir_302172eb7f0711faa424411fa3b0c0b6</title>
<path fill="none" stroke="black" d="M81,-87.7C81,-79.98 81,-70.71 81,-62.11"/>
<polygon fill="black" stroke="black" points="84.5,-62.1 81,-52.1 77.5,-62.1 84.5,-62.1"/>
<g id="a_edge1&#45;headlabel"><a xlink:href="dir_000001_000002.html" target="_top" xlink:title="1">
<text text-anchor="middle" x="87.34" y="-61.9" font-family="Source Sans Pro" font-size="16.00">1</text>
</a>
</g>
</g>
</g>
</svg>
