<?xml version="1.0" encoding="UTF-8" standalone="no"?>
<!DOCTYPE svg PUBLIC "-//W3C//DTD SVG 1.1//EN"
 "http://www.w3.org/Graphics/SVG/1.1/DTD/svg11.dtd">
<!-- Generated by graphviz version 2.43.0 (0)
 -->
<!-- Title: Illumination&#45;Engine/src/GraphicsModule Pages: 1 -->
<svg width="384pt" height="478pt"
 viewBox="0.00 0.00 384.00 478.00" xmlns="http://www.w3.org/2000/svg" xmlns:xlink="http://www.w3.org/1999/xlink">
<g id="graph0" class="graph" transform="scale(1 1) rotate(0) translate(4 474)">
<title>Illumination&#45;Engine/src/GraphicsModule</title>
<polygon fill="white" stroke="transparent" points="-4,4 -4,-474 380,-474 380,4 -4,4"/>
<g id="clust1" class="cluster">
<title>clusterdir_11522b5b7e5fd02e7f7980ad4667a586</title>
<g id="a_clust1"><a xlink:href="dir_11522b5b7e5fd02e7f7980ad4667a586.html" target="_top" xlink:title="src">
<polygon fill="#edf0f7" stroke="#7f7f7f" stroke-dasharray="5,2" points="8,-8 8,-462 368,-462 368,-8 8,-8"/>
<text text-anchor="middle" x="188" y="-445.2" font-family="Source Sans Pro" font-size="16.00">src</text>
</a>
</g>
</g>
<g id="clust2" class="cluster">
<title>clusterdir_5e0da4d097999b167d323a671a026d32</title>
<g id="a_clust2"><a xlink:href="dir_5e0da4d097999b167d323a671a026d32.html" target="_top">
<polygon fill="#edf0f7" stroke="#404040" stroke-width="2" points="16,-16 16,-428 298,-428 298,-16 16,-16"/>
</a>
</g>
</g>
<!-- dir_a45b41982f9e45f9e73ec841f70f7600 -->
<g id="node1" class="node">
<title>dir_a45b41982f9e45f9e73ec841f70f7600</title>
<g id="a_node1"><a xlink:href="dir_a45b41982f9e45f9e73ec841f70f7600.html" target="_top" xlink:title="Core">
<polygon fill="#a2b4d6" stroke="red" points="360,-60 306,-60 306,-24 360,-24 360,-60"/>
<text text-anchor="middle" x="333" y="-38.2" font-family="Source Sans Pro" font-size="16.00">Core</text>
</a>
</g>
</g>
<!-- dir_5e0da4d097999b167d323a671a026d32 -->
<g id="node2" class="node">
<title>dir_5e0da4d097999b167d323a671a026d32</title>
<text text-anchor="middle" x="226" y="-398.2" font-family="Source Sans Pro" font-size="16.00">GraphicsModule</text>
</g>
<!-- dir_5e0da4d097999b167d323a671a026d32&#45;&gt;dir_a45b41982f9e45f9e73ec841f70f7600 -->
<g id="edge4" class="edge">
<title>dir_5e0da4d097999b167d323a671a026d32&#45;&gt;dir_a45b41982f9e45f9e73ec841f70f7600</title>
<path fill="none" stroke="black" d="M250.82,-383.98C282.43,-360.07 333,-313.33 333,-259 333,-259 333,-259 333,-185 333,-145 333,-98.65 333,-70.08"/>
<polygon fill="black" stroke="black" points="336.5,-70.05 333,-60.05 329.5,-70.05 336.5,-70.05"/>
<g id="a_edge4&#45;headlabel"><a xlink:href="dir_000007_000003.html" target="_top" xlink:title="16">
<text text-anchor="middle" x="339.34" y="-69.84" font-family="Source Sans Pro" font-size="16.00">16</text>
</a>
</g>
</g>
<!-- dir_302172eb7f0711faa424411fa3b0c0b6 -->
<g id="node4" class="node">
<title>dir_302172eb7f0711faa424411fa3b0c0b6</title>
<g id="a_node4"><a xlink:href="dir_302172eb7f0711faa424411fa3b0c0b6.html" target="_top" xlink:title="CommandBuffer">
<polygon fill="#a2b4d6" stroke="#404040" points="200.5,-348 71.5,-348 71.5,-312 200.5,-312 200.5,-348"/>
<text text-anchor="middle" x="136" y="-326.2" font-family="Source Sans Pro" font-size="16.00">CommandBuffer</text>
</a>
</g>
</g>
<!-- dir_5e0da4d097999b167d323a671a026d32&#45;&gt;dir_302172eb7f0711faa424411fa3b0c0b6 -->
<g id="edge1" class="edge">
<title>dir_5e0da4d097999b167d323a671a026d32&#45;&gt;dir_302172eb7f0711faa424411fa3b0c0b6</title>
<path fill="none" stroke="black" d="M203.75,-383.7C192.42,-374.88 178.47,-364.03 166.18,-354.47"/>
<polygon fill="black" stroke="black" points="168.03,-351.48 157.99,-348.1 163.74,-357.01 168.03,-351.48"/>
<g id="a_edge1&#45;headlabel"><a xlink:href="dir_000007_000002.html" target="_top" xlink:title="9">
<text text-anchor="middle" x="172.61" y="-347.65" font-family="Source Sans Pro" font-size="16.00">9</text>
</a>
</g>
</g>
<!-- dir_a2fd6e42b2ec4a99febc0bdce62b160b -->
<g id="node6" class="node">
<title>dir_a2fd6e42b2ec4a99febc0bdce62b160b</title>
<g id="a_node6"><a xlink:href="dir_a2fd6e42b2ec4a99febc0bdce62b160b.html" target="_top" xlink:title="Image">
<polygon fill="#a2b4d6" stroke="#404040" points="169.5,-132 110.5,-132 110.5,-96 169.5,-96 169.5,-132"/>
<text text-anchor="middle" x="140" y="-110.2" font-family="Source Sans Pro" font-size="16.00">Image</text>
</a>
</g>
</g>
<!-- dir_5e0da4d097999b167d323a671a026d32&#45;&gt;dir_a2fd6e42b2ec4a99febc0bdce62b160b -->
<g id="edge3" class="edge">
<title>dir_5e0da4d097999b167d323a671a026d32&#45;&gt;dir_a2fd6e42b2ec4a99febc0bdce62b160b</title>
<path fill="none" stroke="black" d="M162.48,-384.32C119.08,-372.28 68.32,-356.68 62,-348 14.32,-282.48 53.41,-239.78 91,-168 96.43,-157.63 104.42,-147.77 112.38,-139.43"/>
<polygon fill="black" stroke="black" points="115,-141.77 119.61,-132.23 110.05,-136.81 115,-141.77"/>
<g id="a_edge3&#45;headlabel"><a xlink:href="dir_000007_000009.html" target="_top" xlink:title="9">
<text text-anchor="middle" x="114.45" y="-142.52" font-family="Source Sans Pro" font-size="16.00">9</text>
</a>
</g>
</g>
<!-- dir_fc899c81e848db7af3002beb737c6817 -->
<g id="node7" class="node">
<title>dir_fc899c81e848db7af3002beb737c6817</title>
<g id="a_node7"><a xlink:href="dir_fc899c81e848db7af3002beb737c6817.html" target="_top" xlink:title="Renderable">
<polygon fill="#a2b4d6" stroke="#404040" points="253.5,-204 158.5,-204 158.5,-168 253.5,-168 253.5,-204"/>
<text text-anchor="middle" x="206" y="-182.2" font-family="Source Sans Pro" font-size="16.00">Renderable</text>
</a>
</g>
</g>
<!-- dir_5e0da4d097999b167d323a671a026d32&#45;&gt;dir_fc899c81e848db7af3002beb737c6817 -->
<g id="edge5" class="edge">
<title>dir_5e0da4d097999b167d323a671a026d32&#45;&gt;dir_fc899c81e848db7af3002beb737c6817</title>
<path fill="none" stroke="black" d="M240.18,-383.87C263.33,-353.69 304.26,-289.55 279,-240 272.77,-227.77 262.24,-217.7 251.1,-209.75"/>
<polygon fill="black" stroke="black" points="252.79,-206.67 242.51,-204.08 248.93,-212.51 252.79,-206.67"/>
<g id="a_edge5&#45;headlabel"><a xlink:href="dir_000007_000013.html" target="_top" xlink:title="3">
<text text-anchor="middle" x="257.35" y="-202.48" font-family="Source Sans Pro" font-size="16.00">3</text>
</a>
</g>
</g>
<!-- dir_9324b32cb1ccf315e14814a22374c0f8 -->
<g id="node8" class="node">
<title>dir_9324b32cb1ccf315e14814a22374c0f8</title>
<g id="a_node8"><a xlink:href="dir_9324b32cb1ccf315e14814a22374c0f8.html" target="_top" xlink:title="RenderPass">
<polygon fill="#a2b4d6" stroke="#404040" points="269.5,-276 174.5,-276 174.5,-240 269.5,-240 269.5,-276"/>
<text text-anchor="middle" x="222" y="-254.2" font-family="Source Sans Pro" font-size="16.00">RenderPass</text>
</a>
</g>
</g>
<!-- dir_5e0da4d097999b167d323a671a026d32&#45;&gt;dir_9324b32cb1ccf315e14814a22374c0f8 -->
<g id="edge2" class="edge">
<title>dir_5e0da4d097999b167d323a671a026d32&#45;&gt;dir_9324b32cb1ccf315e14814a22374c0f8</title>
<path fill="none" stroke="black" d="M225.52,-383.87C224.84,-359.67 223.58,-315.21 222.77,-286.39"/>
<polygon fill="black" stroke="black" points="226.26,-286.09 222.48,-276.19 219.27,-286.28 226.26,-286.09"/>
<g id="a_edge2&#45;headlabel"><a xlink:href="dir_000007_000014.html" target="_top" xlink:title="6">
<text text-anchor="middle" x="229.2" y="-285.8" font-family="Source Sans Pro" font-size="16.00">6</text>
</a>
</g>
</g>
<!-- dir_d917beb8efe0d43cf98f2f08a709b14c -->
<g id="node3" class="node">
<title>dir_d917beb8efe0d43cf98f2f08a709b14c</title>
<g id="a_node3"><a xlink:href="dir_d917beb8efe0d43cf98f2f08a709b14c.html" target="_top" xlink:title="Buffer">
<polygon fill="#a2b4d6" stroke="#404040" points="120,-60 62,-60 62,-24 120,-24 120,-60"/>
<text text-anchor="middle" x="91" y="-38.2" font-family="Source Sans Pro" font-size="16.00">Buffer</text>
</a>
</g>
</g>
<!-- dir_d917beb8efe0d43cf98f2f08a709b14c&#45;&gt;dir_302172eb7f0711faa424411fa3b0c0b6 -->
<g id="edge6" class="edge">
<title>dir_d917beb8efe0d43cf98f2f08a709b14c&#45;&gt;dir_302172eb7f0711faa424411fa3b0c0b6</title>
<path fill="none" stroke="black" d="M89.14,-60.08C79.48,-99.99 50.11,-201.66 84,-276 89.18,-287.35 98.12,-297.22 107.21,-305.25"/>
<polygon fill="black" stroke="black" points="105.21,-308.14 115.14,-311.84 109.68,-302.76 105.21,-308.14"/>
<g id="a_edge6&#45;headlabel"><a xlink:href="dir_000001_000002.html" target="_top" xlink:title="1">
<text text-anchor="middle" x="100.63" y="-304.23" font-family="Source Sans Pro" font-size="16.00">1</text>
</a>
</g>
</g>
<!-- dir_302172eb7f0711faa424411fa3b0c0b6&#45;&gt;dir_a45b41982f9e45f9e73ec841f70f7600 -->
<g id="edge10" class="edge">
<title>dir_302172eb7f0711faa424411fa3b0c0b6&#45;&gt;dir_a45b41982f9e45f9e73ec841f70f7600</title>
<path fill="none" stroke="black" d="M199.49,-311.92C232.33,-301.87 267.85,-288.67 279,-276 305.94,-245.39 323.33,-124.6 329.96,-70.02"/>
<polygon fill="black" stroke="black" points="333.45,-70.38 331.15,-60.04 326.49,-69.56 333.45,-70.38"/>
<g id="a_edge10&#45;headlabel"><a xlink:href="dir_000002_000003.html" target="_top" xlink:title="2">
<text text-anchor="middle" x="335.84" y="-70.48" font-family="Source Sans Pro" font-size="16.00">2</text>
</a>
</g>
</g>
<!-- dir_302172eb7f0711faa424411fa3b0c0b6&#45;&gt;dir_d917beb8efe0d43cf98f2f08a709b14c -->
<g id="edge11" class="edge">
<title>dir_302172eb7f0711faa424411fa3b0c0b6&#45;&gt;dir_d917beb8efe0d43cf98f2f08a709b14c</title>
<path fill="none" stroke="black" d="M98.78,-311.84C85.68,-302.87 72.69,-290.68 66,-276 34.49,-206.89 57.66,-114.16 75.89,-69.38"/>
<polygon fill="black" stroke="black" points="79.16,-70.64 79.91,-60.08 72.73,-67.87 79.16,-70.64"/>
<g id="a_edge11&#45;headlabel"><a xlink:href="dir_000002_000001.html" target="_top" xlink:title="5">
<text text-anchor="middle" x="80.34" y="-71.27" font-family="Source Sans Pro" font-size="16.00">5</text>
</a>
</g>
</g>
<!-- dir_302172eb7f0711faa424411fa3b0c0b6&#45;&gt;dir_a2fd6e42b2ec4a99febc0bdce62b160b -->
<g id="edge9" class="edge">
<title>dir_302172eb7f0711faa424411fa3b0c0b6&#45;&gt;dir_a2fd6e42b2ec4a99febc0bdce62b160b</title>
<path fill="none" stroke="black" d="M102.95,-311.86C90.94,-302.67 79,-290.29 73,-276 66.81,-261.25 69.55,-255.62 73,-240 81.04,-203.59 100.79,-165.18 117.04,-140.7"/>
<polygon fill="black" stroke="black" points="120.01,-142.56 122.84,-132.34 114.26,-138.56 120.01,-142.56"/>
<g id="a_edge9&#45;headlabel"><a xlink:href="dir_000002_000009.html" target="_top" xlink:title="4">
<text text-anchor="middle" x="120.3" y="-143.33" font-family="Source Sans Pro" font-size="16.00">4</text>
</a>
</g>
</g>
<!-- dir_302172eb7f0711faa424411fa3b0c0b6&#45;&gt;dir_9324b32cb1ccf315e14814a22374c0f8 -->
<g id="edge8" class="edge">
<title>dir_302172eb7f0711faa424411fa3b0c0b6&#45;&gt;dir_9324b32cb1ccf315e14814a22374c0f8</title>
<path fill="none" stroke="black" d="M151.34,-311.7C161.36,-302.8 174.68,-291.82 187.1,-282.2"/>
<polygon fill="black" stroke="black" points="189.26,-284.95 195.09,-276.1 185.02,-279.39 189.26,-284.95"/>
<g id="a_edge8&#45;headlabel"><a xlink:href="dir_000002_000014.html" target="_top" xlink:title="4">
<text text-anchor="middle" x="188.13" y="-285.59" font-family="Source Sans Pro" font-size="16.00">4</text>
</a>
</g>
</g>
<!-- dir_4af8813850092f06c26c5dae649a4a3b -->
<g id="node9" class="node">
<title>dir_4af8813850092f06c26c5dae649a4a3b</title>
<g id="a_node9"><a xlink:href="dir_4af8813850092f06c26c5dae649a4a3b.html" target="_top" xlink:title="Shader">
<polygon fill="#a2b4d6" stroke="#404040" points="156.5,-276 91.5,-276 91.5,-240 156.5,-240 156.5,-276"/>
<text text-anchor="middle" x="124" y="-254.2" font-family="Source Sans Pro" font-size="16.00">Shader</text>
</a>
</g>
</g>
<!-- dir_302172eb7f0711faa424411fa3b0c0b6&#45;&gt;dir_4af8813850092f06c26c5dae649a4a3b -->
<g id="edge7" class="edge">
<title>dir_302172eb7f0711faa424411fa3b0c0b6&#45;&gt;dir_4af8813850092f06c26c5dae649a4a3b</title>
<path fill="none" stroke="black" d="M127.12,-311.7C125,-303.98 123.18,-294.71 122.05,-286.11"/>
<polygon fill="black" stroke="black" points="125.53,-285.7 121.04,-276.1 118.56,-286.41 125.53,-285.7"/>
<g id="a_edge7&#45;headlabel"><a xlink:href="dir_000002_000015.html" target="_top" xlink:title="5">
<text text-anchor="middle" x="128.72" y="-285.19" font-family="Source Sans Pro" font-size="16.00">5</text>
</a>
</g>
</g>
<!-- dir_b760e2be46e7a479b02b6784343bf4a2 -->
<g id="node5" class="node">
<title>dir_b760e2be46e7a479b02b6784343bf4a2</title>
<g id="a_node5"><a xlink:href="dir_b760e2be46e7a479b02b6784343bf4a2.html" target="_top" xlink:title="DefaultShaders">
<polygon fill="#a2b4d6" stroke="#404040" points="144,-420 24,-420 24,-384 144,-384 144,-420"/>
<text text-anchor="middle" x="84" y="-398.2" font-family="Source Sans Pro" font-size="16.00">DefaultShaders</text>
</a>
</g>
</g>
<!-- dir_a2fd6e42b2ec4a99febc0bdce62b160b&#45;&gt;dir_a45b41982f9e45f9e73ec841f70f7600 -->
<g id="edge13" class="edge">
<title>dir_a2fd6e42b2ec4a99febc0bdce62b160b&#45;&gt;dir_a45b41982f9e45f9e73ec841f70f7600</title>
<path fill="none" stroke="black" d="M169.73,-97.34C170.83,-96.87 171.92,-96.42 173,-96 225.38,-75.45 244.75,-81.65 296.47,-62.04"/>
<polygon fill="black" stroke="black" points="297.76,-65.29 305.78,-58.37 295.2,-58.78 297.76,-65.29"/>
<g id="a_edge13&#45;headlabel"><a xlink:href="dir_000009_000003.html" target="_top" xlink:title="2">
<text text-anchor="middle" x="295.46" y="-65.45" font-family="Source Sans Pro" font-size="16.00">2</text>
</a>
</g>
</g>
<!-- dir_a2fd6e42b2ec4a99febc0bdce62b160b&#45;&gt;dir_d917beb8efe0d43cf98f2f08a709b14c -->
<g id="edge14" class="edge">
<title>dir_a2fd6e42b2ec4a99febc0bdce62b160b&#45;&gt;dir_d917beb8efe0d43cf98f2f08a709b14c</title>
<path fill="none" stroke="black" d="M127.89,-95.7C122.13,-87.47 115.14,-77.48 108.79,-68.42"/>
<polygon fill="black" stroke="black" points="111.58,-66.29 102.97,-60.1 105.84,-70.3 111.58,-66.29"/>
<g id="a_edge14&#45;headlabel"><a xlink:href="dir_000009_000001.html" target="_top" xlink:title="2">
<text text-anchor="middle" x="115.96" y="-63.81" font-family="Source Sans Pro" font-size="16.00">2</text>
</a>
</g>
</g>
<!-- dir_a2fd6e42b2ec4a99febc0bdce62b160b&#45;&gt;dir_302172eb7f0711faa424411fa3b0c0b6 -->
<g id="edge12" class="edge">
<title>dir_a2fd6e42b2ec4a99febc0bdce62b160b&#45;&gt;dir_302172eb7f0711faa424411fa3b0c0b6</title>
<path fill="none" stroke="black" d="M135.09,-132.34C123.81,-155.72 100.02,-199.12 91,-240 87.55,-255.62 84.81,-261.25 91,-276 95.59,-286.94 103.67,-296.76 111.8,-304.89"/>
<polygon fill="black" stroke="black" points="109.52,-307.54 119.19,-311.86 114.32,-302.45 109.52,-307.54"/>
<g id="a_edge12&#45;headlabel"><a xlink:href="dir_000009_000002.html" target="_top" xlink:title="1">
<text text-anchor="middle" x="104.95" y="-303.34" font-family="Source Sans Pro" font-size="16.00">1</text>
</a>
</g>
</g>
<!-- dir_fc899c81e848db7af3002beb737c6817&#45;&gt;dir_a45b41982f9e45f9e73ec841f70f7600 -->
<g id="edge17" class="edge">
<title>dir_fc899c81e848db7af3002beb737c6817&#45;&gt;dir_a45b41982f9e45f9e73ec841f70f7600</title>
<path fill="none" stroke="black" d="M215.93,-167.89C227.23,-149.17 246.88,-118.79 268,-96 277.78,-85.45 289.7,-75.15 300.64,-66.47"/>
<polygon fill="black" stroke="black" points="303,-69.07 308.77,-60.18 298.72,-63.54 303,-69.07"/>
<g id="a_edge17&#45;headlabel"><a xlink:href="dir_000013_000003.html" target="_top" xlink:title="2">
<text text-anchor="middle" x="301.9" y="-69.72" font-family="Source Sans Pro" font-size="16.00">2</text>
</a>
</g>
</g>
<!-- dir_fc899c81e848db7af3002beb737c6817&#45;&gt;dir_d917beb8efe0d43cf98f2f08a709b14c -->
<g id="edge18" class="edge">
<title>dir_fc899c81e848db7af3002beb737c6817&#45;&gt;dir_d917beb8efe0d43cf98f2f08a709b14c</title>
<path fill="none" stroke="black" d="M204.25,-167.93C201.51,-148.68 194.68,-117.3 178,-96 174.36,-91.35 150.83,-77.12 129.15,-64.57"/>
<polygon fill="black" stroke="black" points="130.77,-61.47 120.36,-59.51 127.28,-67.53 130.77,-61.47"/>
<g id="a_edge18&#45;headlabel"><a xlink:href="dir_000013_000001.html" target="_top" xlink:title="3">
<text text-anchor="middle" x="135.3" y="-57" font-family="Source Sans Pro" font-size="16.00">3</text>
</a>
</g>
</g>
<!-- dir_fc899c81e848db7af3002beb737c6817&#45;&gt;dir_a2fd6e42b2ec4a99febc0bdce62b160b -->
<g id="edge16" class="edge">
<title>dir_fc899c81e848db7af3002beb737c6817&#45;&gt;dir_a2fd6e42b2ec4a99febc0bdce62b160b</title>
<path fill="none" stroke="black" d="M189.69,-167.7C181.69,-159.22 171.93,-148.86 163.18,-139.58"/>
<polygon fill="black" stroke="black" points="165.53,-136.98 156.13,-132.1 160.44,-141.78 165.53,-136.98"/>
<g id="a_edge16&#45;headlabel"><a xlink:href="dir_000013_000009.html" target="_top" xlink:title="2">
<text text-anchor="middle" x="170.07" y="-133.85" font-family="Source Sans Pro" font-size="16.00">2</text>
</a>
</g>
</g>
<!-- dir_fc899c81e848db7af3002beb737c6817&#45;&gt;dir_4af8813850092f06c26c5dae649a4a3b -->
<g id="edge15" class="edge">
<title>dir_fc899c81e848db7af3002beb737c6817&#45;&gt;dir_4af8813850092f06c26c5dae649a4a3b</title>
<path fill="none" stroke="black" d="M191.86,-204.1C182.49,-212.89 169.96,-223.73 158.18,-233.31"/>
<polygon fill="black" stroke="black" points="155.81,-230.72 150.19,-239.7 160.18,-236.19 155.81,-230.72"/>
<g id="a_edge15&#45;headlabel"><a xlink:href="dir_000013_000015.html" target="_top" xlink:title="6">
<text text-anchor="middle" x="156.85" y="-222.46" font-family="Source Sans Pro" font-size="16.00">6</text>
</a>
</g>
</g>
<!-- dir_9324b32cb1ccf315e14814a22374c0f8&#45;&gt;dir_a45b41982f9e45f9e73ec841f70f7600 -->
<g id="edge21" class="edge">
<title>dir_9324b32cb1ccf315e14814a22374c0f8&#45;&gt;dir_a45b41982f9e45f9e73ec841f70f7600</title>
<path fill="none" stroke="black" d="M245.32,-239.91C256.68,-230.48 269.65,-217.88 278,-204 303.7,-161.32 290.64,-142.7 308,-96 311.26,-87.23 315.41,-77.91 319.38,-69.58"/>
<polygon fill="black" stroke="black" points="322.65,-70.87 323.9,-60.35 316.36,-67.79 322.65,-70.87"/>
<g id="a_edge21&#45;headlabel"><a xlink:href="dir_000014_000003.html" target="_top" xlink:title="1">
<text text-anchor="middle" x="323.62" y="-71.54" font-family="Source Sans Pro" font-size="16.00">1</text>
</a>
</g>
</g>
<!-- dir_9324b32cb1ccf315e14814a22374c0f8&#45;&gt;dir_302172eb7f0711faa424411fa3b0c0b6 -->
<g id="edge19" class="edge">
<title>dir_9324b32cb1ccf315e14814a22374c0f8&#45;&gt;dir_302172eb7f0711faa424411fa3b0c0b6</title>
<path fill="none" stroke="black" d="M206.88,-276.1C196.91,-284.97 183.61,-295.94 171.18,-305.59"/>
<polygon fill="black" stroke="black" points="169,-302.85 163.17,-311.7 173.25,-308.41 169,-302.85"/>
<g id="a_edge19&#45;headlabel"><a xlink:href="dir_000014_000002.html" target="_top" xlink:title="1">
<text text-anchor="middle" x="170.13" y="-294.61" font-family="Source Sans Pro" font-size="16.00">1</text>
</a>
</g>
</g>
<!-- dir_9324b32cb1ccf315e14814a22374c0f8&#45;&gt;dir_a2fd6e42b2ec4a99febc0bdce62b160b -->
<g id="edge20" class="edge">
<title>dir_9324b32cb1ccf315e14814a22374c0f8&#45;&gt;dir_a2fd6e42b2ec4a99febc0bdce62b160b</title>
<path fill="none" stroke="black" d="M186.99,-239.99C172.81,-231.25 157.74,-219.21 149,-204 138.32,-185.43 136.54,-161.03 137.16,-142.48"/>
<polygon fill="black" stroke="black" points="140.67,-142.51 137.76,-132.32 133.68,-142.1 140.67,-142.51"/>
<g id="a_edge20&#45;headlabel"><a xlink:href="dir_000014_000009.html" target="_top" xlink:title="1">
<text text-anchor="middle" x="143.29" y="-142.46" font-family="Source Sans Pro" font-size="16.00">1</text>
</a>
</g>
</g>
<!-- dir_4af8813850092f06c26c5dae649a4a3b&#45;&gt;dir_a45b41982f9e45f9e73ec841f70f7600 -->
<g id="edge24" class="edge">
<title>dir_4af8813850092f06c26c5dae649a4a3b&#45;&gt;dir_a45b41982f9e45f9e73ec841f70f7600</title>
<path fill="none" stroke="black" d="M156.62,-243.33C159.45,-242.19 162.27,-241.07 165,-240 208.22,-223.11 231.4,-237.98 263,-204 280,-185.72 282.98,-118.41 294,-96 298.76,-86.31 305.32,-76.55 311.71,-68.1"/>
<polygon fill="black" stroke="black" points="314.54,-70.16 317.96,-60.13 309.03,-65.84 314.54,-70.16"/>
<g id="a_edge24&#45;headlabel"><a xlink:href="dir_000015_000003.html" target="_top" xlink:title="3">
<text text-anchor="middle" x="314.56" y="-70.94" font-family="Source Sans Pro" font-size="16.00">3</text>
</a>
</g>
</g>
<!-- dir_4af8813850092f06c26c5dae649a4a3b&#45;&gt;dir_d917beb8efe0d43cf98f2f08a709b14c -->
<g id="edge25" class="edge">
<title>dir_4af8813850092f06c26c5dae649a4a3b&#45;&gt;dir_d917beb8efe0d43cf98f2f08a709b14c</title>
<path fill="none" stroke="black" d="M120.41,-239.67C115.52,-215.6 106.72,-170.64 101,-132 97.95,-111.37 95.35,-87.92 93.56,-70.27"/>
<polygon fill="black" stroke="black" points="97.03,-69.72 92.56,-60.11 90.06,-70.4 97.03,-69.72"/>
<g id="a_edge25&#45;headlabel"><a xlink:href="dir_000015_000001.html" target="_top" xlink:title="1">
<text text-anchor="middle" x="100.2" y="-69.22" font-family="Source Sans Pro" font-size="16.00">1</text>
</a>
</g>
</g>
<!-- dir_4af8813850092f06c26c5dae649a4a3b&#45;&gt;dir_302172eb7f0711faa424411fa3b0c0b6 -->
<g id="edge22" class="edge">
<title>dir_4af8813850092f06c26c5dae649a4a3b&#45;&gt;dir_302172eb7f0711faa424411fa3b0c0b6</title>
<path fill="none" stroke="black" d="M132.83,-276.1C134.95,-283.79 136.77,-293.05 137.92,-301.67"/>
<polygon fill="black" stroke="black" points="134.44,-302.11 138.95,-311.7 141.41,-301.39 134.44,-302.11"/>
<g id="a_edge22&#45;headlabel"><a xlink:href="dir_000015_000002.html" target="_top" xlink:title="2">
<text text-anchor="middle" x="131.25" y="-295.02" font-family="Source Sans Pro" font-size="16.00">2</text>
</a>
</g>
</g>
<!-- dir_4af8813850092f06c26c5dae649a4a3b&#45;&gt;dir_a2fd6e42b2ec4a99febc0bdce62b160b -->
<g id="edge23" class="edge">
<title>dir_4af8813850092f06c26c5dae649a4a3b&#45;&gt;dir_a2fd6e42b2ec4a99febc0bdce62b160b</title>
<path fill="none" stroke="black" d="M125.91,-239.94C127.92,-222.02 131.18,-193.03 134,-168 134.95,-159.59 135.98,-150.43 136.92,-142.12"/>
<polygon fill="black" stroke="black" points="140.4,-142.52 138.05,-132.19 133.45,-141.73 140.4,-142.52"/>
<g id="a_edge23&#45;headlabel"><a xlink:href="dir_000015_000009.html" target="_top" xlink:title="1">
<text text-anchor="middle" x="142.82" y="-142.61" font-family="Source Sans Pro" font-size="16.00">1</text>
</a>
</g>
</g>
<!-- dir_4af8813850092f06c26c5dae649a4a3b&#45;&gt;dir_fc899c81e848db7af3002beb737c6817 -->
<g id="edge26" class="edge">
<title>dir_4af8813850092f06c26c5dae649a4a3b&#45;&gt;dir_fc899c81e848db7af3002beb737c6817</title>
<path fill="none" stroke="black" d="M138.35,-239.7C147.77,-230.88 160.31,-220.03 172.09,-210.47"/>
<polygon fill="black" stroke="black" points="174.44,-213.08 180.07,-204.1 170.07,-207.61 174.44,-213.08"/>
<g id="a_edge26&#45;headlabel"><a xlink:href="dir_000015_000013.html" target="_top" xlink:title="1">
<text text-anchor="middle" x="173.4" y="-213.74" font-family="Source Sans Pro" font-size="16.00">1</text>
</a>
</g>
</g>
</g>
</svg>
