<?xml version="1.0" encoding="UTF-8" standalone="no"?>
<!DOCTYPE svg PUBLIC "-//W3C//DTD SVG 1.1//EN"
 "http://www.w3.org/Graphics/SVG/1.1/DTD/svg11.dtd">
<!-- Generated by graphviz version 2.43.0 (0)
 -->
<!-- Title: Illumination&#45;Engine/src/Core/FileSystemModule Pages: 1 -->
<svg width="180pt" height="174pt"
 viewBox="0.00 0.00 180.00 174.00" xmlns="http://www.w3.org/2000/svg" xmlns:xlink="http://www.w3.org/1999/xlink">
<g id="graph0" class="graph" transform="scale(1 1) rotate(0) translate(4 170)">
<title>Illumination&#45;Engine/src/Core/FileSystemModule</title>
<polygon fill="white" stroke="transparent" points="-4,4 -4,-170 176,-170 176,4 -4,4"/>
<g id="clust1" class="cluster">
<title>clusterdir_a45b41982f9e45f9e73ec841f70f7600</title>
<g id="a_clust1"><a xlink:href="dir_a45b41982f9e45f9e73ec841f70f7600.html" target="_top" xlink:title="Core">
<polygon fill="#edf0f7" stroke="#7f7f7f" stroke-dasharray="5,2" points="8,-8 8,-158 164,-158 164,-8 8,-8"/>
<text text-anchor="middle" x="86" y="-141.2" font-family="Source Sans Pro" font-size="16.00">Core</text>
</a>
</g>
</g>
<!-- dir_a3f6fd9b1a6f2c3026db7198b09ab0cf -->
<g id="node1" class="node">
<title>dir_a3f6fd9b1a6f2c3026db7198b09ab0cf</title>
<g id="a_node1"><a xlink:href="dir_a3f6fd9b1a6f2c3026db7198b09ab0cf.html" target="_top" xlink:title="LogModule">
<polygon fill="#a2b4d6" stroke="#404040" points="132,-52 40,-52 40,-16 132,-16 132,-52"/>
<text text-anchor="middle" x="86" y="-30.2" font-family="Source Sans Pro" font-size="16.00">LogModule</text>
</a>
</g>
</g>
<!-- dir_511678282fae3b236ea9571cd62bbc80 -->
<g id="node2" class="node">
<title>dir_511678282fae3b236ea9571cd62bbc80</title>
<g id="a_node2"><a xlink:href="dir_511678282fae3b236ea9571cd62bbc80.html" target="_top" xlink:title="FileSystemModule">
<polygon fill="#edf0f7" stroke="#404040" stroke-width="2" points="156,-124 16,-124 16,-88 156,-88 156,-124"/>
<text text-anchor="middle" x="86" y="-102.2" font-family="Source Sans Pro" font-size="16.00">FileSystemModule</text>
</a>
</g>
</g>
<!-- dir_511678282fae3b236ea9571cd62bbc80&#45;&gt;dir_a3f6fd9b1a6f2c3026db7198b09ab0cf -->
<g id="edge1" class="edge">
<title>dir_511678282fae3b236ea9571cd62bbc80&#45;&gt;dir_a3f6fd9b1a6f2c3026db7198b09ab0cf</title>
<path fill="none" stroke="black" d="M86,-87.7C86,-79.98 86,-70.71 86,-62.11"/>
<polygon fill="black" stroke="black" points="89.5,-62.1 86,-52.1 82.5,-62.1 89.5,-62.1"/>
<g id="a_edge1&#45;headlabel"><a xlink:href="dir_000006_000011.html" target="_top" xlink:title="1">
<text text-anchor="middle" x="92.34" y="-61.9" font-family="Source Sans Pro" font-size="16.00">1</text>
</a>
</g>
</g>
</g>
</svg>
