<?xml version="1.0" encoding="UTF-8" standalone="no"?>
<!DOCTYPE svg PUBLIC "-//W3C//DTD SVG 1.1//EN"
 "http://www.w3.org/Graphics/SVG/1.1/DTD/svg11.dtd">
<!-- Generated by graphviz version 2.43.0 (0)
 -->
<!-- Title: Illumination&#45;Engine/src/GraphicsModule Pages: 1 -->
<svg width="353pt" height="182pt"
 viewBox="0.00 0.00 353.00 182.00" xmlns="http://www.w3.org/2000/svg" xmlns:xlink="http://www.w3.org/1999/xlink">
<g id="graph0" class="graph" transform="scale(1 1) rotate(0) translate(4 178)">
<title>Illumination&#45;Engine/src/GraphicsModule</title>
<polygon fill="white" stroke="transparent" points="-4,4 -4,-178 349,-178 349,4 -4,4"/>
<g id="clust1" class="cluster">
<title>clusterdir_11522b5b7e5fd02e7f7980ad4667a586</title>
<g id="a_clust1"><a xlink:href="dir_11522b5b7e5fd02e7f7980ad4667a586.html" target="_top" xlink:title="src">
<polygon fill="#edf0f7" stroke="#7f7f7f" stroke-dasharray="5,2" points="8,-8 8,-166 337,-166 337,-8 8,-8"/>
<text text-anchor="middle" x="172.5" y="-149.2" font-family="Source Sans Pro" font-size="16.00">src</text>
</a>
</g>
</g>
<g id="clust2" class="cluster">
<title>clusterdir_5e0da4d097999b167d323a671a026d32</title>
<g id="a_clust2"><a xlink:href="dir_5e0da4d097999b167d323a671a026d32.html" target="_top">
<polygon fill="#edf0f7" stroke="#404040" stroke-width="2" points="16,-80 16,-132 329,-132 329,-80 16,-80"/>
</a>
</g>
</g>
<!-- dir_a45b41982f9e45f9e73ec841f70f7600 -->
<g id="node1" class="node">
<title>dir_a45b41982f9e45f9e73ec841f70f7600</title>
<g id="a_node1"><a xlink:href="dir_a45b41982f9e45f9e73ec841f70f7600.html" target="_top" xlink:title="Core">
<polygon fill="#a2b4d6" stroke="red" points="124,-52 70,-52 70,-16 124,-16 124,-52"/>
<text text-anchor="middle" x="97" y="-30.2" font-family="Source Sans Pro" font-size="16.00">Core</text>
</a>
</g>
</g>
<!-- dir_5e0da4d097999b167d323a671a026d32 -->
<g id="node2" class="node">
<title>dir_5e0da4d097999b167d323a671a026d32</title>
<text text-anchor="middle" x="257" y="-102.2" font-family="Source Sans Pro" font-size="16.00">GraphicsModule</text>
</g>
<!-- dir_295bd9936b3fe9bc43e43d70a7c55390 -->
<g id="node3" class="node">
<title>dir_295bd9936b3fe9bc43e43d70a7c55390</title>
<g id="a_node3"><a xlink:href="dir_295bd9936b3fe9bc43e43d70a7c55390.html" target="_top" xlink:title="OpenGL">
<polygon fill="#a2b4d6" stroke="#404040" points="175.5,-124 104.5,-124 104.5,-88 175.5,-88 175.5,-124"/>
<text text-anchor="middle" x="140" y="-102.2" font-family="Source Sans Pro" font-size="16.00">OpenGL</text>
</a>
</g>
</g>
<!-- dir_295bd9936b3fe9bc43e43d70a7c55390&#45;&gt;dir_a45b41982f9e45f9e73ec841f70f7600 -->
<g id="edge1" class="edge">
<title>dir_295bd9936b3fe9bc43e43d70a7c55390&#45;&gt;dir_a45b41982f9e45f9e73ec841f70f7600</title>
<path fill="none" stroke="black" d="M129.37,-87.7C124.37,-79.56 118.31,-69.69 112.79,-60.7"/>
<polygon fill="black" stroke="black" points="115.72,-58.79 107.51,-52.1 109.76,-62.46 115.72,-58.79"/>
<g id="a_edge1&#45;headlabel"><a xlink:href="dir_000009_000001.html" target="_top" xlink:title="1">
<text text-anchor="middle" x="120.02" y="-56.57" font-family="Source Sans Pro" font-size="16.00">1</text>
</a>
</g>
</g>
<!-- dir_0a322fa26bea7c0ed427871568c2467c -->
<g id="node4" class="node">
<title>dir_0a322fa26bea7c0ed427871568c2467c</title>
<g id="a_node4"><a xlink:href="dir_0a322fa26bea7c0ed427871568c2467c.html" target="_top" xlink:title="Vulkan">
<polygon fill="#a2b4d6" stroke="#404040" points="86,-124 24,-124 24,-88 86,-88 86,-124"/>
<text text-anchor="middle" x="55" y="-102.2" font-family="Source Sans Pro" font-size="16.00">Vulkan</text>
</a>
</g>
</g>
<!-- dir_0a322fa26bea7c0ed427871568c2467c&#45;&gt;dir_a45b41982f9e45f9e73ec841f70f7600 -->
<g id="edge2" class="edge">
<title>dir_0a322fa26bea7c0ed427871568c2467c&#45;&gt;dir_a45b41982f9e45f9e73ec841f70f7600</title>
<path fill="none" stroke="black" d="M65.38,-87.7C70.26,-79.56 76.19,-69.69 81.58,-60.7"/>
<polygon fill="black" stroke="black" points="84.59,-62.48 86.74,-52.1 78.59,-58.88 84.59,-62.48"/>
<g id="a_edge2&#45;headlabel"><a xlink:href="dir_000014_000001.html" target="_top" xlink:title="1">
<text text-anchor="middle" x="85.18" y="-63.22" font-family="Source Sans Pro" font-size="16.00">1</text>
</a>
</g>
</g>
</g>
</svg>
