<?xml version="1.0" encoding="UTF-8" standalone="no"?>
<!DOCTYPE svg PUBLIC "-//W3C//DTD SVG 1.1//EN"
 "http://www.w3.org/Graphics/SVG/1.1/DTD/svg11.dtd">
<!-- Generated by graphviz version 2.43.0 (0)
 -->
<!-- Title: Illumination&#45;Engine/src/GraphicsModule/Renderable Pages: 1 -->
<svg width="315pt" height="174pt"
 viewBox="0.00 0.00 315.00 174.00" xmlns="http://www.w3.org/2000/svg" xmlns:xlink="http://www.w3.org/1999/xlink">
<g id="graph0" class="graph" transform="scale(1 1) rotate(0) translate(4 170)">
<title>Illumination&#45;Engine/src/GraphicsModule/Renderable</title>
<polygon fill="white" stroke="transparent" points="-4,4 -4,-170 311,-170 311,4 -4,4"/>
<g id="clust1" class="cluster">
<title>clusterdir_5e0da4d097999b167d323a671a026d32</title>
<g id="a_clust1"><a xlink:href="dir_5e0da4d097999b167d323a671a026d32.html" target="_top" xlink:title="GraphicsModule">
<polygon fill="#edf0f7" stroke="#7f7f7f" stroke-dasharray="5,2" points="8,-8 8,-158 243,-158 243,-8 8,-8"/>
<text text-anchor="middle" x="125.5" y="-141.2" font-family="Source Sans Pro" font-size="16.00">GraphicsModule</text>
</a>
</g>
</g>
<!-- dir_4af8813850092f06c26c5dae649a4a3b -->
<g id="node1" class="node">
<title>dir_4af8813850092f06c26c5dae649a4a3b</title>
<g id="a_node1"><a xlink:href="dir_4af8813850092f06c26c5dae649a4a3b.html" target="_top" xlink:title="Shader">
<polygon fill="#a2b4d6" stroke="#404040" points="81.5,-52 16.5,-52 16.5,-16 81.5,-16 81.5,-52"/>
<text text-anchor="middle" x="49" y="-30.2" font-family="Source Sans Pro" font-size="16.00">Shader</text>
</a>
</g>
</g>
<!-- dir_a2fd6e42b2ec4a99febc0bdce62b160b -->
<g id="node2" class="node">
<title>dir_a2fd6e42b2ec4a99febc0bdce62b160b</title>
<g id="a_node2"><a xlink:href="dir_a2fd6e42b2ec4a99febc0bdce62b160b.html" target="_top" xlink:title="Image">
<polygon fill="#a2b4d6" stroke="#404040" points="158.5,-52 99.5,-52 99.5,-16 158.5,-16 158.5,-52"/>
<text text-anchor="middle" x="129" y="-30.2" font-family="Source Sans Pro" font-size="16.00">Image</text>
</a>
</g>
</g>
<!-- dir_d917beb8efe0d43cf98f2f08a709b14c -->
<g id="node3" class="node">
<title>dir_d917beb8efe0d43cf98f2f08a709b14c</title>
<g id="a_node3"><a xlink:href="dir_d917beb8efe0d43cf98f2f08a709b14c.html" target="_top" xlink:title="Buffer">
<polygon fill="#a2b4d6" stroke="#404040" points="235,-52 177,-52 177,-16 235,-16 235,-52"/>
<text text-anchor="middle" x="206" y="-30.2" font-family="Source Sans Pro" font-size="16.00">Buffer</text>
</a>
</g>
</g>
<!-- dir_fc899c81e848db7af3002beb737c6817 -->
<g id="node4" class="node">
<title>dir_fc899c81e848db7af3002beb737c6817</title>
<g id="a_node4"><a xlink:href="dir_fc899c81e848db7af3002beb737c6817.html" target="_top" xlink:title="Renderable">
<polygon fill="#edf0f7" stroke="#404040" stroke-width="2" points="205.5,-124 110.5,-124 110.5,-88 205.5,-88 205.5,-124"/>
<text text-anchor="middle" x="158" y="-102.2" font-family="Source Sans Pro" font-size="16.00">Renderable</text>
</a>
</g>
</g>
<!-- dir_fc899c81e848db7af3002beb737c6817&#45;&gt;dir_4af8813850092f06c26c5dae649a4a3b -->
<g id="edge1" class="edge">
<title>dir_fc899c81e848db7af3002beb737c6817&#45;&gt;dir_4af8813850092f06c26c5dae649a4a3b</title>
<path fill="none" stroke="black" d="M131.34,-87.88C117.22,-78.81 99.69,-67.55 84.44,-57.76"/>
<polygon fill="black" stroke="black" points="86.07,-54.65 75.77,-52.19 82.29,-60.54 86.07,-54.65"/>
<g id="a_edge1&#45;headlabel"><a xlink:href="dir_000014_000016.html" target="_top" xlink:title="6">
<text text-anchor="middle" x="90.63" y="-50.4" font-family="Source Sans Pro" font-size="16.00">6</text>
</a>
</g>
</g>
<!-- dir_fc899c81e848db7af3002beb737c6817&#45;&gt;dir_a2fd6e42b2ec4a99febc0bdce62b160b -->
<g id="edge2" class="edge">
<title>dir_fc899c81e848db7af3002beb737c6817&#45;&gt;dir_a2fd6e42b2ec4a99febc0bdce62b160b</title>
<path fill="none" stroke="black" d="M150.83,-87.7C147.57,-79.81 143.63,-70.3 140,-61.55"/>
<polygon fill="black" stroke="black" points="143.15,-60 136.09,-52.1 136.68,-62.68 143.15,-60"/>
<g id="a_edge2&#45;headlabel"><a xlink:href="dir_000014_000009.html" target="_top" xlink:title="2">
<text text-anchor="middle" x="147.15" y="-58.44" font-family="Source Sans Pro" font-size="16.00">2</text>
</a>
</g>
</g>
<!-- dir_fc899c81e848db7af3002beb737c6817&#45;&gt;dir_d917beb8efe0d43cf98f2f08a709b14c -->
<g id="edge4" class="edge">
<title>dir_fc899c81e848db7af3002beb737c6817&#45;&gt;dir_d917beb8efe0d43cf98f2f08a709b14c</title>
<path fill="none" stroke="black" d="M169.87,-87.7C175.5,-79.47 182.35,-69.48 188.57,-60.42"/>
<polygon fill="black" stroke="black" points="191.5,-62.33 194.27,-52.1 185.73,-58.37 191.5,-62.33"/>
<g id="a_edge4&#45;headlabel"><a xlink:href="dir_000014_000001.html" target="_top" xlink:title="3">
<text text-anchor="middle" x="191.81" y="-63.1" font-family="Source Sans Pro" font-size="16.00">3</text>
</a>
</g>
</g>
<!-- dir_a45b41982f9e45f9e73ec841f70f7600 -->
<g id="node5" class="node">
<title>dir_a45b41982f9e45f9e73ec841f70f7600</title>
<g id="a_node5"><a xlink:href="dir_a45b41982f9e45f9e73ec841f70f7600.html" target="_top" xlink:title="Core">
<polygon fill="none" stroke="red" stroke-dasharray="5,2" points="307,-52 253,-52 253,-16 307,-16 307,-52"/>
<text text-anchor="middle" x="280" y="-30.2" font-family="Source Sans Pro" font-size="16.00">Core</text>
</a>
</g>
</g>
<!-- dir_fc899c81e848db7af3002beb737c6817&#45;&gt;dir_a45b41982f9e45f9e73ec841f70f7600 -->
<g id="edge3" class="edge">
<title>dir_fc899c81e848db7af3002beb737c6817&#45;&gt;dir_a45b41982f9e45f9e73ec841f70f7600</title>
<path fill="none" stroke="black" d="M187.84,-87.88C204.78,-78.16 226.11,-65.92 243.97,-55.67"/>
<polygon fill="black" stroke="black" points="246.03,-58.53 252.96,-50.51 242.55,-52.46 246.03,-58.53"/>
<g id="a_edge3&#45;headlabel"><a xlink:href="dir_000014_000003.html" target="_top" xlink:title="2">
<text text-anchor="middle" x="244.32" y="-58.98" font-family="Source Sans Pro" font-size="16.00">2</text>
</a>
</g>
</g>
</g>
</svg>
