<?xml version="1.0" encoding="UTF-8" standalone="no"?>
<!DOCTYPE svg PUBLIC "-//W3C//DTD SVG 1.1//EN"
 "http://www.w3.org/Graphics/SVG/1.1/DTD/svg11.dtd">
<!-- Generated by graphviz version 2.43.0 (0)
 -->
<!-- Title: Illumination&#45;Engine/src/GraphicsModule/CommandBuffer Pages: 1 -->
<svg width="388pt" height="254pt"
 viewBox="0.00 0.00 388.00 254.00" xmlns="http://www.w3.org/2000/svg" xmlns:xlink="http://www.w3.org/1999/xlink">
<g id="graph0" class="graph" transform="scale(1 1) rotate(0) translate(4 250)">
<title>Illumination&#45;Engine/src/GraphicsModule/CommandBuffer</title>
<polygon fill="white" stroke="transparent" points="-4,4 -4,-250 384,-250 384,4 -4,4"/>
<g id="clust1" class="cluster">
<title>clusterdir_5e0da4d097999b167d323a671a026d32</title>
<g id="a_clust1"><a xlink:href="dir_5e0da4d097999b167d323a671a026d32.html" target="_top" xlink:title="GraphicsModule">
<polygon fill="#edf0f7" stroke="#7f7f7f" stroke-dasharray="5,2" points="8,-8 8,-238 316,-238 316,-8 8,-8"/>
<text text-anchor="middle" x="162" y="-221.2" font-family="Source Sans Pro" font-size="16.00">GraphicsModule</text>
</a>
</g>
</g>
<g id="clust2" class="cluster">
<title>clusterdir_302172eb7f0711faa424411fa3b0c0b6</title>
<g id="a_clust2"><a xlink:href="dir_302172eb7f0711faa424411fa3b0c0b6.html" target="_top">
<polygon fill="#edf0f7" stroke="#404040" stroke-width="2" points="132,-80 132,-204 296,-204 296,-80 132,-80"/>
</a>
</g>
</g>
<!-- dir_4af8813850092f06c26c5dae649a4a3b -->
<g id="node1" class="node">
<title>dir_4af8813850092f06c26c5dae649a4a3b</title>
<g id="a_node1"><a xlink:href="dir_4af8813850092f06c26c5dae649a4a3b.html" target="_top" xlink:title="Shader">
<polygon fill="#a2b4d6" stroke="#404040" points="101.5,-124 36.5,-124 36.5,-88 101.5,-88 101.5,-124"/>
<text text-anchor="middle" x="69" y="-102.2" font-family="Source Sans Pro" font-size="16.00">Shader</text>
</a>
</g>
</g>
<!-- dir_9324b32cb1ccf315e14814a22374c0f8 -->
<g id="node2" class="node">
<title>dir_9324b32cb1ccf315e14814a22374c0f8</title>
<g id="a_node2"><a xlink:href="dir_9324b32cb1ccf315e14814a22374c0f8.html" target="_top" xlink:title="RenderPass">
<polygon fill="#a2b4d6" stroke="#404040" points="132.5,-52 37.5,-52 37.5,-16 132.5,-16 132.5,-52"/>
<text text-anchor="middle" x="85" y="-30.2" font-family="Source Sans Pro" font-size="16.00">RenderPass</text>
</a>
</g>
</g>
<!-- dir_a2fd6e42b2ec4a99febc0bdce62b160b -->
<g id="node3" class="node">
<title>dir_a2fd6e42b2ec4a99febc0bdce62b160b</title>
<g id="a_node3"><a xlink:href="dir_a2fd6e42b2ec4a99febc0bdce62b160b.html" target="_top" xlink:title="Image">
<polygon fill="#a2b4d6" stroke="#404040" points="220.5,-52 161.5,-52 161.5,-16 220.5,-16 220.5,-52"/>
<text text-anchor="middle" x="191" y="-30.2" font-family="Source Sans Pro" font-size="16.00">Image</text>
</a>
</g>
</g>
<!-- dir_d917beb8efe0d43cf98f2f08a709b14c -->
<g id="node4" class="node">
<title>dir_d917beb8efe0d43cf98f2f08a709b14c</title>
<g id="a_node4"><a xlink:href="dir_d917beb8efe0d43cf98f2f08a709b14c.html" target="_top" xlink:title="Buffer">
<polygon fill="#a2b4d6" stroke="#404040" points="302,-52 244,-52 244,-16 302,-16 302,-52"/>
<text text-anchor="middle" x="273" y="-30.2" font-family="Source Sans Pro" font-size="16.00">Buffer</text>
</a>
</g>
</g>
<!-- dir_302172eb7f0711faa424411fa3b0c0b6 -->
<g id="node5" class="node">
<title>dir_302172eb7f0711faa424411fa3b0c0b6</title>
<text text-anchor="middle" x="209" y="-174.2" font-family="Source Sans Pro" font-size="16.00">CommandBuffer</text>
</g>
<!-- dir_302172eb7f0711faa424411fa3b0c0b6&#45;&gt;dir_4af8813850092f06c26c5dae649a4a3b -->
<g id="edge1" class="edge">
<title>dir_302172eb7f0711faa424411fa3b0c0b6&#45;&gt;dir_4af8813850092f06c26c5dae649a4a3b</title>
<path fill="none" stroke="black" d="M174.75,-159.88C155.52,-150.26 131.36,-138.18 110.99,-128"/>
<polygon fill="black" stroke="black" points="112.44,-124.81 101.93,-123.47 109.31,-131.07 112.44,-124.81"/>
<g id="a_edge1&#45;headlabel"><a xlink:href="dir_000002_000015.html" target="_top" xlink:title="5">
<text text-anchor="middle" x="116.92" y="-120.07" font-family="Source Sans Pro" font-size="16.00">5</text>
</a>
</g>
</g>
<!-- dir_302172eb7f0711faa424411fa3b0c0b6&#45;&gt;dir_9324b32cb1ccf315e14814a22374c0f8 -->
<g id="edge3" class="edge">
<title>dir_302172eb7f0711faa424411fa3b0c0b6&#45;&gt;dir_9324b32cb1ccf315e14814a22374c0f8</title>
<path fill="none" stroke="black" d="M144.45,-166.46C98.41,-157.48 42.23,-143 28,-124 16.27,-108.35 19.47,-97.6 28,-80 32.04,-71.67 38.45,-64.41 45.54,-58.3"/>
<polygon fill="black" stroke="black" points="47.71,-61.05 53.42,-52.13 43.39,-55.54 47.71,-61.05"/>
<g id="a_edge3&#45;headlabel"><a xlink:href="dir_000002_000014.html" target="_top" xlink:title="4">
<text text-anchor="middle" x="46.63" y="-61.7" font-family="Source Sans Pro" font-size="16.00">4</text>
</a>
</g>
</g>
<!-- dir_302172eb7f0711faa424411fa3b0c0b6&#45;&gt;dir_a2fd6e42b2ec4a99febc0bdce62b160b -->
<g id="edge4" class="edge">
<title>dir_302172eb7f0711faa424411fa3b0c0b6&#45;&gt;dir_a2fd6e42b2ec4a99febc0bdce62b160b</title>
<path fill="none" stroke="black" d="M168.82,-159.77C154.17,-151.28 139.2,-139.48 131,-124 121.85,-106.72 122.25,-97.49 131,-80 135.9,-70.2 144.06,-61.99 152.8,-55.37"/>
<polygon fill="black" stroke="black" points="155.04,-58.08 161.28,-49.51 151.06,-52.32 155.04,-58.08"/>
<g id="a_edge4&#45;headlabel"><a xlink:href="dir_000002_000009.html" target="_top" xlink:title="4">
<text text-anchor="middle" x="153.69" y="-58.66" font-family="Source Sans Pro" font-size="16.00">4</text>
</a>
</g>
</g>
<!-- dir_302172eb7f0711faa424411fa3b0c0b6&#45;&gt;dir_d917beb8efe0d43cf98f2f08a709b14c -->
<g id="edge6" class="edge">
<title>dir_302172eb7f0711faa424411fa3b0c0b6&#45;&gt;dir_d917beb8efe0d43cf98f2f08a709b14c</title>
<path fill="none" stroke="black" d="M257.03,-159.85C272.97,-151.6 288.94,-139.95 298,-124 309.19,-104.3 300.44,-79.27 290.34,-60.77"/>
<polygon fill="black" stroke="black" points="293.28,-58.86 285.19,-52.02 287.24,-62.41 293.28,-58.86"/>
<g id="a_edge6&#45;headlabel"><a xlink:href="dir_000002_000001.html" target="_top" xlink:title="5">
<text text-anchor="middle" x="297.55" y="-56.72" font-family="Source Sans Pro" font-size="16.00">5</text>
</a>
</g>
</g>
<!-- dir_60647584c8e8109f990b129573bd17e3 -->
<g id="node6" class="node">
<title>dir_60647584c8e8109f990b129573bd17e3</title>
<g id="a_node6"><a xlink:href="dir_60647584c8e8109f990b129573bd17e3.html" target="_top" xlink:title="DependencyStructs">
<polygon fill="#a2b4d6" stroke="#404040" points="288.5,-124 139.5,-124 139.5,-88 288.5,-88 288.5,-124"/>
<text text-anchor="middle" x="214" y="-102.2" font-family="Source Sans Pro" font-size="16.00">DependencyStructs</text>
</a>
</g>
</g>
<!-- dir_302172eb7f0711faa424411fa3b0c0b6&#45;&gt;dir_60647584c8e8109f990b129573bd17e3 -->
<g id="edge2" class="edge">
<title>dir_302172eb7f0711faa424411fa3b0c0b6&#45;&gt;dir_60647584c8e8109f990b129573bd17e3</title>
<path fill="none" stroke="black" d="M210.24,-159.7C210.79,-151.98 211.45,-142.71 212.06,-134.11"/>
<polygon fill="black" stroke="black" points="215.56,-134.33 212.78,-124.1 208.57,-133.83 215.56,-134.33"/>
<g id="a_edge2&#45;headlabel"><a xlink:href="dir_000002_000005.html" target="_top" xlink:title="3">
<text text-anchor="middle" x="218.13" y="-134.32" font-family="Source Sans Pro" font-size="16.00">3</text>
</a>
</g>
</g>
<!-- dir_a45b41982f9e45f9e73ec841f70f7600 -->
<g id="node7" class="node">
<title>dir_a45b41982f9e45f9e73ec841f70f7600</title>
<g id="a_node7"><a xlink:href="dir_a45b41982f9e45f9e73ec841f70f7600.html" target="_top" xlink:title="Core">
<polygon fill="none" stroke="red" stroke-dasharray="5,2" points="380,-124 326,-124 326,-88 380,-88 380,-124"/>
<text text-anchor="middle" x="353" y="-102.2" font-family="Source Sans Pro" font-size="16.00">Core</text>
</a>
</g>
</g>
<!-- dir_302172eb7f0711faa424411fa3b0c0b6&#45;&gt;dir_a45b41982f9e45f9e73ec841f70f7600 -->
<g id="edge5" class="edge">
<title>dir_302172eb7f0711faa424411fa3b0c0b6&#45;&gt;dir_a45b41982f9e45f9e73ec841f70f7600</title>
<path fill="none" stroke="black" d="M245.38,-159.97C264.91,-150.75 289.58,-138.98 316.46,-125.72"/>
<polygon fill="black" stroke="black" points="318.25,-128.74 325.66,-121.16 315.15,-122.47 318.25,-128.74"/>
<g id="a_edge5&#45;headlabel"><a xlink:href="dir_000002_000003.html" target="_top" xlink:title="2">
<text text-anchor="middle" x="316.29" y="-129.08" font-family="Source Sans Pro" font-size="16.00">2</text>
</a>
</g>
</g>
<!-- dir_60647584c8e8109f990b129573bd17e3&#45;&gt;dir_9324b32cb1ccf315e14814a22374c0f8 -->
<g id="edge7" class="edge">
<title>dir_60647584c8e8109f990b129573bd17e3&#45;&gt;dir_9324b32cb1ccf315e14814a22374c0f8</title>
<path fill="none" stroke="black" d="M182.44,-87.88C165.34,-78.6 144.02,-67.03 125.68,-57.08"/>
<polygon fill="black" stroke="black" points="127.14,-53.88 116.68,-52.19 123.8,-60.04 127.14,-53.88"/>
<g id="a_edge7&#45;headlabel"><a xlink:href="dir_000005_000014.html" target="_top" xlink:title="2">
<text text-anchor="middle" x="131.65" y="-49.3" font-family="Source Sans Pro" font-size="16.00">2</text>
</a>
</g>
</g>
<!-- dir_60647584c8e8109f990b129573bd17e3&#45;&gt;dir_a2fd6e42b2ec4a99febc0bdce62b160b -->
<g id="edge8" class="edge">
<title>dir_60647584c8e8109f990b129573bd17e3&#45;&gt;dir_a2fd6e42b2ec4a99febc0bdce62b160b</title>
<path fill="none" stroke="black" d="M208.31,-87.7C205.75,-79.9 202.67,-70.51 199.82,-61.83"/>
<polygon fill="black" stroke="black" points="203.07,-60.51 196.62,-52.1 196.42,-62.7 203.07,-60.51"/>
<g id="a_edge8&#45;headlabel"><a xlink:href="dir_000005_000009.html" target="_top" xlink:title="2">
<text text-anchor="middle" x="206.89" y="-59.24" font-family="Source Sans Pro" font-size="16.00">2</text>
</a>
</g>
</g>
<!-- dir_60647584c8e8109f990b129573bd17e3&#45;&gt;dir_d917beb8efe0d43cf98f2f08a709b14c -->
<g id="edge9" class="edge">
<title>dir_60647584c8e8109f990b129573bd17e3&#45;&gt;dir_d917beb8efe0d43cf98f2f08a709b14c</title>
<path fill="none" stroke="black" d="M228.58,-87.7C235.66,-79.3 244.28,-69.07 252.05,-59.86"/>
<polygon fill="black" stroke="black" points="254.81,-62.01 258.58,-52.1 249.46,-57.49 254.81,-62.01"/>
<g id="a_edge9&#45;headlabel"><a xlink:href="dir_000005_000001.html" target="_top" xlink:title="2">
<text text-anchor="middle" x="254.67" y="-62.78" font-family="Source Sans Pro" font-size="16.00">2</text>
</a>
</g>
</g>
</g>
</svg>
