<?xml version="1.0" encoding="UTF-8" standalone="no"?>
<!DOCTYPE svg PUBLIC "-//W3C//DTD SVG 1.1//EN"
 "http://www.w3.org/Graphics/SVG/1.1/DTD/svg11.dtd">
<!-- Generated by graphviz version 2.43.0 (0)
 -->
<!-- Title: Illumination&#45;Engine/src/InputModule Pages: 1 -->
<svg width="144pt" height="174pt"
 viewBox="0.00 0.00 144.00 174.00" xmlns="http://www.w3.org/2000/svg" xmlns:xlink="http://www.w3.org/1999/xlink">
<g id="graph0" class="graph" transform="scale(1 1) rotate(0) translate(4 170)">
<title>Illumination&#45;Engine/src/InputModule</title>
<polygon fill="white" stroke="transparent" points="-4,4 -4,-170 140,-170 140,4 -4,4"/>
<g id="clust1" class="cluster">
<title>clusterdir_11522b5b7e5fd02e7f7980ad4667a586</title>
<g id="a_clust1"><a xlink:href="dir_11522b5b7e5fd02e7f7980ad4667a586.html" target="_top" xlink:title="src">
<polygon fill="#edf0f7" stroke="#7f7f7f" stroke-dasharray="5,2" points="8,-8 8,-158 128,-158 128,-8 8,-8"/>
<text text-anchor="middle" x="68" y="-141.2" font-family="Source Sans Pro" font-size="16.00">src</text>
</a>
</g>
</g>
<!-- dir_a45b41982f9e45f9e73ec841f70f7600 -->
<g id="node1" class="node">
<title>dir_a45b41982f9e45f9e73ec841f70f7600</title>
<g id="a_node1"><a xlink:href="dir_a45b41982f9e45f9e73ec841f70f7600.html" target="_top" xlink:title="Core">
<polygon fill="#a2b4d6" stroke="red" points="95,-52 41,-52 41,-16 95,-16 95,-52"/>
<text text-anchor="middle" x="68" y="-30.2" font-family="Source Sans Pro" font-size="16.00">Core</text>
</a>
</g>
</g>
<!-- dir_c09111e94496c02b62527b6a0a420d1a -->
<g id="node2" class="node">
<title>dir_c09111e94496c02b62527b6a0a420d1a</title>
<g id="a_node2"><a xlink:href="dir_c09111e94496c02b62527b6a0a420d1a.html" target="_top" xlink:title="InputModule">
<polygon fill="#edf0f7" stroke="#404040" stroke-width="2" points="120,-124 16,-124 16,-88 120,-88 120,-124"/>
<text text-anchor="middle" x="68" y="-102.2" font-family="Source Sans Pro" font-size="16.00">InputModule</text>
</a>
</g>
</g>
<!-- dir_c09111e94496c02b62527b6a0a420d1a&#45;&gt;dir_a45b41982f9e45f9e73ec841f70f7600 -->
<g id="edge1" class="edge">
<title>dir_c09111e94496c02b62527b6a0a420d1a&#45;&gt;dir_a45b41982f9e45f9e73ec841f70f7600</title>
<path fill="none" stroke="black" d="M68,-87.7C68,-79.98 68,-70.71 68,-62.11"/>
<polygon fill="black" stroke="black" points="71.5,-62.1 68,-52.1 64.5,-62.1 71.5,-62.1"/>
<g id="a_edge1&#45;headlabel"><a xlink:href="dir_000010_000003.html" target="_top" xlink:title="1">
<text text-anchor="middle" x="74.34" y="-61.9" font-family="Source Sans Pro" font-size="16.00">1</text>
</a>
</g>
</g>
</g>
</svg>
