<?xml version="1.0" encoding="UTF-8" standalone="no"?>
<!DOCTYPE svg PUBLIC "-//W3C//DTD SVG 1.1//EN"
 "http://www.w3.org/Graphics/SVG/1.1/DTD/svg11.dtd">
<!-- Generated by graphviz version 2.43.0 (0)
 -->
<!-- Title: Graphical Class Hierarchy Pages: 1 -->
<svg width="572pt" height="53pt"
 viewBox="0.00 0.00 572.00 53.00" xmlns="http://www.w3.org/2000/svg" xmlns:xlink="http://www.w3.org/1999/xlink">
<g id="graph0" class="graph" transform="scale(1 1) rotate(0) translate(4 49)">
<title>Graphical Class Hierarchy</title>
<polygon fill="white" stroke="transparent" points="-4,4 -4,-49 568,-49 568,4 -4,4"/>
<!-- Node0 -->
<g id="node1" class="node">
<title>Node0</title>
<g id="a_node1"><a xlink:href="class_i_e_image_n_e_w.html" target="_top" xlink:title=" ">
<polygon fill="white" stroke="black" points="0,-9.5 0,-35.5 164,-35.5 164,-9.5 0,-9.5"/>
<text text-anchor="middle" x="82" y="-18.7" font-family="Source Sans Pro" font-size="16.00">IEImageNEW&lt; 1, 1, 1 &gt;</text>
</a>
</g>
</g>
<!-- Node1 -->
<g id="node2" class="node">
<title>Node1</title>
<g id="a_node2"><a xlink:href="class_i_e_image_n_e_w_3_010_00_010_00_010_01_4.html" target="_top" xlink:title=" ">
<polygon fill="white" stroke="black" points="200,-9.5 200,-35.5 364,-35.5 364,-9.5 200,-9.5"/>
<text text-anchor="middle" x="282" y="-18.7" font-family="Source Sans Pro" font-size="16.00">IEImageNEW&lt; 0, 0, 0 &gt;</text>
</a>
</g>
</g>
<!-- Node0&#45;&gt;Node1 -->
<g id="edge1" class="edge">
<title>Node0&#45;&gt;Node1</title>
<path fill="none" stroke="midnightblue" d="M174.36,-22.5C182.82,-22.5 191.35,-22.5 199.7,-22.5"/>
<polygon fill="midnightblue" stroke="midnightblue" points="174.11,-19 164.11,-22.5 174.11,-26 174.11,-19"/>
</g>
<!-- Node2 -->
<g id="node3" class="node">
<title>Node2</title>
<g id="a_node3"><a xlink:href="class_i_e_texture_n_e_w.html" target="_top" xlink:title=" ">
<polygon fill="white" stroke="black" points="400,-0.5 400,-44.5 564,-44.5 564,-0.5 400,-0.5"/>
<text text-anchor="start" x="408" y="-27.7" font-family="Source Sans Pro" font-size="16.00">IETextureNEW&lt; width,</text>
<text text-anchor="middle" x="482" y="-9.7" font-family="Source Sans Pro" font-size="16.00"> height, channels &gt;</text>
</a>
</g>
</g>
<!-- Node1&#45;&gt;Node2 -->
<g id="edge2" class="edge">
<title>Node1&#45;&gt;Node2</title>
<path fill="none" stroke="midnightblue" d="M374.36,-22.5C382.82,-22.5 391.35,-22.5 399.7,-22.5"/>
<polygon fill="midnightblue" stroke="midnightblue" points="374.11,-19 364.11,-22.5 374.11,-26 374.11,-19"/>
</g>
</g>
</svg>
