<?xml version="1.0" encoding="UTF-8" standalone="no"?>
<!DOCTYPE svg PUBLIC "-//W3C//DTD SVG 1.1//EN"
 "http://www.w3.org/Graphics/SVG/1.1/DTD/svg11.dtd">
<!-- Generated by graphviz version 2.43.0 (0)
 -->
<!-- Title: Graphical Class Hierarchy Pages: 1 -->
<svg width="436pt" height="350pt"
 viewBox="0.00 0.00 436.00 350.00" xmlns="http://www.w3.org/2000/svg" xmlns:xlink="http://www.w3.org/1999/xlink">
<g id="graph0" class="graph" transform="scale(1 1) rotate(0) translate(4 346)">
<title>Graphical Class Hierarchy</title>
<polygon fill="white" stroke="transparent" points="-4,4 -4,-346 432,-346 432,4 -4,4"/>
<!-- Node0 -->
<g id="node1" class="node">
<title>Node0</title>
<g id="a_node1"><a xlink:title=" ">
<polygon fill="white" stroke="#bfbfbf" points="0,-216.5 0,-260.5 146,-260.5 146,-216.5 0,-216.5"/>
<text text-anchor="start" x="8" y="-243.7" font-family="Source Sans Pro" font-size="16.00">std::enable_shared</text>
<text text-anchor="middle" x="73" y="-225.7" font-family="Source Sans Pro" font-size="16.00">_from_this</text>
</a>
</g>
</g>
<!-- Node1 -->
<g id="node2" class="node">
<title>Node1</title>
<g id="a_node2"><a xlink:href="class_i_e_asset.html" target="_top" xlink:title=" ">
<polygon fill="white" stroke="black" points="215,-315.5 215,-341.5 280,-341.5 280,-315.5 215,-315.5"/>
<text text-anchor="middle" x="247.5" y="-324.7" font-family="Source Sans Pro" font-size="16.00">IEAsset</text>
</a>
</g>
</g>
<!-- Node0&#45;&gt;Node1 -->
<g id="edge1" class="edge">
<title>Node0&#45;&gt;Node1</title>
<path fill="none" stroke="midnightblue" d="M113.51,-266.5C133.42,-279.79 158.31,-295.19 182,-306.5 192.36,-311.44 204.13,-315.8 214.75,-319.3"/>
<polygon fill="midnightblue" stroke="midnightblue" points="115.26,-263.46 105.02,-260.76 111.34,-269.26 115.26,-263.46"/>
</g>
<!-- Node2 -->
<g id="node3" class="node">
<title>Node2</title>
<g id="a_node3"><a xlink:href="class_i_e_buffer.html" target="_top" xlink:title=" ">
<polygon fill="white" stroke="black" points="212,-225.5 212,-251.5 283,-251.5 283,-225.5 212,-225.5"/>
<text text-anchor="middle" x="247.5" y="-234.7" font-family="Source Sans Pro" font-size="16.00">IEBuffer</text>
</a>
</g>
</g>
<!-- Node0&#45;&gt;Node2 -->
<g id="edge2" class="edge">
<title>Node0&#45;&gt;Node2</title>
<path fill="none" stroke="midnightblue" d="M156.34,-238.5C175.89,-238.5 195.72,-238.5 211.78,-238.5"/>
<polygon fill="midnightblue" stroke="midnightblue" points="156.16,-235 146.16,-238.5 156.16,-242 156.16,-235"/>
</g>
<!-- Node10 -->
<g id="node4" class="node">
<title>Node10</title>
<g id="a_node4"><a xlink:href="class_i_e_command_pool.html" target="_top" xlink:title=" ">
<polygon fill="white" stroke="black" points="182,-270.5 182,-296.5 313,-296.5 313,-270.5 182,-270.5"/>
<text text-anchor="middle" x="247.5" y="-279.7" font-family="Source Sans Pro" font-size="16.00">IECommandPool</text>
</a>
</g>
</g>
<!-- Node0&#45;&gt;Node10 -->
<g id="edge3" class="edge">
<title>Node0&#45;&gt;Node10</title>
<path fill="none" stroke="midnightblue" d="M156.18,-259.94C170,-263.54 183.96,-267.18 196.63,-270.49"/>
<polygon fill="midnightblue" stroke="midnightblue" points="156.72,-256.46 146.16,-257.32 154.95,-263.23 156.72,-256.46"/>
</g>
<!-- Node6 -->
<g id="node5" class="node">
<title>Node6</title>
<g id="a_node5"><a xlink:href="class_i_e_image.html" target="_top" xlink:title=" ">
<polygon fill="white" stroke="black" points="212,-180.5 212,-206.5 283,-206.5 283,-180.5 212,-180.5"/>
<text text-anchor="middle" x="247.5" y="-189.7" font-family="Source Sans Pro" font-size="16.00">IEImage</text>
</a>
</g>
</g>
<!-- Node0&#45;&gt;Node6 -->
<g id="edge4" class="edge">
<title>Node0&#45;&gt;Node6</title>
<path fill="none" stroke="midnightblue" d="M156.07,-217.09C175.71,-211.97 195.65,-206.77 211.78,-202.56"/>
<polygon fill="midnightblue" stroke="midnightblue" points="154.95,-213.77 146.16,-219.68 156.72,-220.54 154.95,-213.77"/>
</g>
<!-- Node9 -->
<g id="node7" class="node">
<title>Node9</title>
<g id="a_node7"><a xlink:href="class_i_e_render_pass.html" target="_top" xlink:title=" ">
<polygon fill="white" stroke="black" points="193.5,-135.5 193.5,-161.5 301.5,-161.5 301.5,-135.5 193.5,-135.5"/>
<text text-anchor="middle" x="247.5" y="-144.7" font-family="Source Sans Pro" font-size="16.00">IERenderPass</text>
</a>
</g>
</g>
<!-- Node0&#45;&gt;Node9 -->
<g id="edge6" class="edge">
<title>Node0&#45;&gt;Node9</title>
<path fill="none" stroke="midnightblue" d="M114.07,-210.8C133.93,-197.81 158.62,-182.76 182,-171.5 189.5,-167.89 197.72,-164.53 205.7,-161.56"/>
<polygon fill="midnightblue" stroke="midnightblue" points="112,-207.97 105.59,-216.41 115.86,-213.81 112,-207.97"/>
</g>
<!-- Node7 -->
<g id="node6" class="node">
<title>Node7</title>
<g id="a_node6"><a xlink:href="class_i_e_texture.html" target="_top" xlink:title=" ">
<polygon fill="white" stroke="black" points="349,-180.5 349,-206.5 428,-206.5 428,-180.5 349,-180.5"/>
<text text-anchor="middle" x="388.5" y="-189.7" font-family="Source Sans Pro" font-size="16.00">IETexture</text>
</a>
</g>
</g>
<!-- Node6&#45;&gt;Node7 -->
<g id="edge5" class="edge">
<title>Node6&#45;&gt;Node7</title>
<path fill="none" stroke="midnightblue" d="M293.41,-193.5C311.27,-193.5 331.62,-193.5 348.82,-193.5"/>
<polygon fill="midnightblue" stroke="midnightblue" points="293.22,-190 283.22,-193.5 293.22,-197 293.22,-190"/>
</g>
<!-- Node3 -->
<g id="node8" class="node">
<title>Node3</title>
<g id="a_node8"><a xlink:href="class_i_e_dependency.html" target="_top" xlink:title=" ">
<polygon fill="white" stroke="black" points="15.5,-113.5 15.5,-139.5 130.5,-139.5 130.5,-113.5 15.5,-113.5"/>
<text text-anchor="middle" x="73" y="-122.7" font-family="Source Sans Pro" font-size="16.00">IEDependency</text>
</a>
</g>
</g>
<!-- Node3&#45;&gt;Node2 -->
<g id="edge7" class="edge">
<title>Node3&#45;&gt;Node2</title>
<path fill="none" stroke="midnightblue" d="M93.62,-146.72C114.07,-166.81 147.85,-197.32 182,-216.5 191.18,-221.66 201.77,-225.89 211.69,-229.21"/>
<polygon fill="midnightblue" stroke="midnightblue" points="96.01,-144.17 86.46,-139.58 91.06,-149.12 96.01,-144.17"/>
</g>
<!-- Node3&#45;&gt;Node6 -->
<g id="edge10" class="edge">
<title>Node3&#45;&gt;Node6</title>
<path fill="none" stroke="midnightblue" d="M113.32,-143.62C133.69,-152.3 159.04,-162.81 182,-171.5 191.63,-175.14 202.16,-178.85 211.87,-182.16"/>
<polygon fill="midnightblue" stroke="midnightblue" points="114.62,-140.37 104.05,-139.65 111.86,-146.8 114.62,-140.37"/>
</g>
<!-- Node3&#45;&gt;Node9 -->
<g id="edge12" class="edge">
<title>Node3&#45;&gt;Node9</title>
<path fill="none" stroke="midnightblue" d="M141.03,-135.05C158.4,-137.26 176.86,-139.62 193.39,-141.73"/>
<polygon fill="midnightblue" stroke="midnightblue" points="141.32,-131.56 130.96,-133.76 140.44,-138.5 141.32,-131.56"/>
</g>
<!-- Node4 -->
<g id="node9" class="node">
<title>Node4</title>
<g id="a_node9"><a xlink:href="class_i_e_descriptor_set.html" target="_top" xlink:title=" ">
<polygon fill="white" stroke="black" points="188,-90.5 188,-116.5 307,-116.5 307,-90.5 188,-90.5"/>
<text text-anchor="middle" x="247.5" y="-99.7" font-family="Source Sans Pro" font-size="16.00">IEDescriptorSet</text>
</a>
</g>
</g>
<!-- Node3&#45;&gt;Node4 -->
<g id="edge8" class="edge">
<title>Node3&#45;&gt;Node4</title>
<path fill="none" stroke="midnightblue" d="M140.97,-117.57C156.43,-115.51 172.75,-113.33 187.83,-111.32"/>
<polygon fill="midnightblue" stroke="midnightblue" points="140.41,-114.11 130.96,-118.91 141.34,-121.05 140.41,-114.11"/>
</g>
<!-- Node5 -->
<g id="node10" class="node">
<title>Node5</title>
<g id="a_node10"><a xlink:href="class_i_e_framebuffer.html" target="_top" xlink:title=" ">
<polygon fill="white" stroke="black" points="191,-45.5 191,-71.5 304,-71.5 304,-45.5 191,-45.5"/>
<text text-anchor="middle" x="247.5" y="-54.7" font-family="Source Sans Pro" font-size="16.00">IEFramebuffer</text>
</a>
</g>
</g>
<!-- Node3&#45;&gt;Node5 -->
<g id="edge9" class="edge">
<title>Node3&#45;&gt;Node5</title>
<path fill="none" stroke="midnightblue" d="M113.37,-109.52C133.75,-100.87 159.1,-90.35 182,-81.5 190.65,-78.16 200.02,-74.72 208.86,-71.55"/>
<polygon fill="midnightblue" stroke="midnightblue" points="111.92,-106.33 104.09,-113.47 114.66,-112.77 111.92,-106.33"/>
</g>
<!-- Node8 -->
<g id="node11" class="node">
<title>Node8</title>
<g id="a_node11"><a xlink:href="class_i_e_pipeline.html" target="_top" xlink:title=" ">
<polygon fill="white" stroke="black" points="205.5,-0.5 205.5,-26.5 289.5,-26.5 289.5,-0.5 205.5,-0.5"/>
<text text-anchor="middle" x="247.5" y="-9.7" font-family="Source Sans Pro" font-size="16.00">IEPipeline</text>
</a>
</g>
</g>
<!-- Node3&#45;&gt;Node8 -->
<g id="edge11" class="edge">
<title>Node3&#45;&gt;Node8</title>
<path fill="none" stroke="midnightblue" d="M93.67,-106.38C114.17,-86.36 147.98,-55.92 182,-36.5 189.23,-32.37 197.33,-28.79 205.28,-25.75"/>
<polygon fill="midnightblue" stroke="midnightblue" points="91.13,-103.96 86.5,-113.49 96.06,-108.93 91.13,-103.96"/>
</g>
</g>
</svg>
