<?xml version="1.0" encoding="UTF-8" standalone="no"?>
<!DOCTYPE svg PUBLIC "-//W3C//DTD SVG 1.1//EN"
 "http://www.w3.org/Graphics/SVG/1.1/DTD/svg11.dtd">
<!-- Generated by graphviz version 2.43.0 (0)
 -->
<!-- Title: Illumination&#45;Engine/src/main.cpp Pages: 1 -->
<svg width="2806pt" height="404pt"
 viewBox="0.00 0.00 2805.50 404.00" xmlns="http://www.w3.org/2000/svg" xmlns:xlink="http://www.w3.org/1999/xlink">
<g id="graph0" class="graph" transform="scale(1 1) rotate(0) translate(4 400)">
<title>Illumination&#45;Engine/src/main.cpp</title>
<polygon fill="white" stroke="transparent" points="-4,4 -4,-400 2801.5,-400 2801.5,4 -4,4"/>
<!-- Node1 -->
<g id="node1" class="node">
<title>Node1</title>
<g id="a_node1"><a xlink:title=" ">
<polygon fill="#bfbfbf" stroke="black" points="590.5,-351.5 590.5,-395.5 740.5,-395.5 740.5,-351.5 590.5,-351.5"/>
<text text-anchor="start" x="598.5" y="-378.7" font-family="Source Sans Pro" font-size="16.00">Illumination&#45;Engine</text>
<text text-anchor="middle" x="665.5" y="-360.7" font-family="Source Sans Pro" font-size="16.00">/src/main.cpp</text>
</a>
</g>
</g>
<!-- Node2 -->
<g id="node2" class="node">
<title>Node2</title>
<g id="a_node2"><a xlink:href="opengl_render_engine_8hpp.html" target="_top" xlink:title=" ">
<polygon fill="white" stroke="black" points="443,-270.5 443,-314.5 638,-314.5 638,-270.5 443,-270.5"/>
<text text-anchor="start" x="451" y="-297.7" font-family="Source Sans Pro" font-size="16.00">GraphicsModule/OpenGL</text>
<text text-anchor="middle" x="540.5" y="-279.7" font-family="Source Sans Pro" font-size="16.00">/openglRenderEngine.hpp</text>
</a>
</g>
</g>
<!-- Node1&#45;&gt;Node2 -->
<g id="edge1" class="edge">
<title>Node1&#45;&gt;Node2</title>
<path fill="none" stroke="midnightblue" d="M632,-351.33C616.87,-341.77 598.82,-330.36 582.77,-320.22"/>
<polygon fill="midnightblue" stroke="midnightblue" points="584.41,-317.11 574.09,-314.73 580.67,-323.03 584.41,-317.11"/>
</g>
<!-- Node36 -->
<g id="node36" class="node">
<title>Node36</title>
<g id="a_node36"><a xlink:href="_i_e_window_user_pointer_8hpp.html" target="_top" xlink:title=" ">
<polygon fill="white" stroke="black" points="2603.5,-207.5 2603.5,-233.5 2797.5,-233.5 2797.5,-207.5 2603.5,-207.5"/>
<text text-anchor="middle" x="2700.5" y="-216.7" font-family="Source Sans Pro" font-size="16.00">IEWindowUserPointer.hpp</text>
</a>
</g>
</g>
<!-- Node1&#45;&gt;Node36 -->
<g id="edge63" class="edge">
<title>Node1&#45;&gt;Node36</title>
<path fill="none" stroke="midnightblue" d="M740.77,-368.18C998.73,-353.12 1870.86,-300.3 2589.5,-234 2590.78,-233.88 2592.06,-233.76 2593.35,-233.64"/>
<polygon fill="midnightblue" stroke="midnightblue" points="2593.75,-237.12 2603.36,-232.67 2593.07,-230.15 2593.75,-237.12"/>
</g>
<!-- Node38 -->
<g id="node38" class="node">
<title>Node38</title>
<g id="a_node38"><a xlink:href="_i_e_keyboard_8hpp.html" target="_top" xlink:title=" ">
<polygon fill="white" stroke="black" points="556.5,-63.5 556.5,-89.5 774.5,-89.5 774.5,-63.5 556.5,-63.5"/>
<text text-anchor="middle" x="665.5" y="-72.7" font-family="Source Sans Pro" font-size="16.00">InputModule/IEKeyboard.hpp</text>
</a>
</g>
</g>
<!-- Node1&#45;&gt;Node38 -->
<g id="edge56" class="edge">
<title>Node1&#45;&gt;Node38</title>
<path fill="none" stroke="midnightblue" d="M665.5,-351.28C665.5,-297.27 665.5,-154.95 665.5,-99.79"/>
<polygon fill="midnightblue" stroke="midnightblue" points="669,-99.69 665.5,-89.69 662,-99.69 669,-99.69"/>
</g>
<!-- Node3 -->
<g id="node3" class="node">
<title>Node3</title>
<g id="a_node3"><a xlink:href="opengl_settings_8hpp.html" target="_top" xlink:title=" ">
<polygon fill="white" stroke="black" points="191,-63.5 191,-89.5 340,-89.5 340,-63.5 191,-63.5"/>
<text text-anchor="middle" x="265.5" y="-72.7" font-family="Source Sans Pro" font-size="16.00">openglSettings.hpp</text>
</a>
</g>
</g>
<!-- Node2&#45;&gt;Node3 -->
<g id="edge2" class="edge">
<title>Node2&#45;&gt;Node3</title>
<path fill="none" stroke="midnightblue" d="M442.75,-282.23C316.36,-267.77 107.84,-234.68 69.5,-171 59.18,-153.87 57.17,-141.75 69.5,-126 83.62,-107.97 134.38,-95.71 180.71,-88.02"/>
<polygon fill="midnightblue" stroke="midnightblue" points="181.5,-91.44 190.82,-86.41 180.39,-84.53 181.5,-91.44"/>
</g>
<!-- Node5 -->
<g id="node5" class="node">
<title>Node5</title>
<g id="a_node5"><a xlink:title=" ">
<polygon fill="white" stroke="#bfbfbf" points="108.5,-0.5 108.5,-26.5 216.5,-26.5 216.5,-0.5 108.5,-0.5"/>
<text text-anchor="middle" x="162.5" y="-9.7" font-family="Source Sans Pro" font-size="16.00">GLFW/glfw3.h</text>
</a>
</g>
</g>
<!-- Node2&#45;&gt;Node5 -->
<g id="edge50" class="edge">
<title>Node2&#45;&gt;Node5</title>
<path fill="none" stroke="midnightblue" d="M442.59,-285.94C335.18,-278.5 170.71,-262.78 115.5,-234 67.19,-208.81 37.41,-176.64 57.5,-126 73.27,-86.25 110.66,-52.44 136.29,-32.79"/>
<polygon fill="midnightblue" stroke="midnightblue" points="138.56,-35.47 144.48,-26.69 134.37,-29.86 138.56,-35.47"/>
</g>
<!-- Node6 -->
<g id="node6" class="node">
<title>Node6</title>
<g id="a_node6"><a xlink:title=" ">
<polygon fill="white" stroke="#bfbfbf" points="1051,-0.5 1051,-26.5 1110,-26.5 1110,-0.5 1051,-0.5"/>
<text text-anchor="middle" x="1080.5" y="-9.7" font-family="Source Sans Pro" font-size="16.00">vector</text>
</a>
</g>
</g>
<!-- Node2&#45;&gt;Node6 -->
<g id="edge54" class="edge">
<title>Node2&#45;&gt;Node6</title>
<path fill="none" stroke="midnightblue" d="M638.15,-288.66C1003.38,-277.58 2270.95,-234.62 2327.5,-171 2427.85,-58.09 2315.13,-95.19 2152.5,-63 1949.2,-22.77 1289.62,-15.83 1120.37,-14.71"/>
<polygon fill="midnightblue" stroke="midnightblue" points="1120.19,-11.21 1110.17,-14.64 1120.14,-18.21 1120.19,-11.21"/>
</g>
<!-- Node7 -->
<g id="node7" class="node">
<title>Node7</title>
<g id="a_node7"><a xlink:title=" ">
<polygon fill="white" stroke="#bfbfbf" points="0,-0.5 0,-26.5 51,-26.5 51,-0.5 0,-0.5"/>
<text text-anchor="middle" x="25.5" y="-9.7" font-family="Source Sans Pro" font-size="16.00">array</text>
</a>
</g>
</g>
<!-- Node2&#45;&gt;Node7 -->
<g id="edge51" class="edge">
<title>Node2&#45;&gt;Node7</title>
<path fill="none" stroke="midnightblue" d="M442.75,-290.94C322.85,-288.34 128.58,-277.31 72.5,-234 11.81,-187.13 16.65,-82.62 22.14,-36.78"/>
<polygon fill="midnightblue" stroke="midnightblue" points="25.63,-37.08 23.47,-26.7 18.69,-36.16 25.63,-37.08"/>
</g>
<!-- Node10 -->
<g id="node10" class="node">
<title>Node10</title>
<g id="a_node10"><a xlink:title=" ">
<polygon fill="white" stroke="#bfbfbf" points="482,-0.5 482,-26.5 537,-26.5 537,-0.5 482,-0.5"/>
<text text-anchor="middle" x="509.5" y="-9.7" font-family="Source Sans Pro" font-size="16.00">string</text>
</a>
</g>
</g>
<!-- Node2&#45;&gt;Node10 -->
<g id="edge52" class="edge">
<title>Node2&#45;&gt;Node10</title>
<path fill="none" stroke="midnightblue" d="M543.68,-270.34C547.12,-252.36 553.91,-226.46 566.5,-207 579.68,-186.64 597.5,-193.09 607.5,-171 615.75,-152.78 618.55,-142.67 607.5,-126 584.84,-91.8 547.99,-122.15 522.5,-90 510.68,-75.1 508.01,-53.28 507.96,-36.93"/>
<polygon fill="midnightblue" stroke="midnightblue" points="511.46,-36.73 508.25,-26.64 504.47,-36.53 511.46,-36.73"/>
</g>
<!-- Node11 -->
<g id="node11" class="node">
<title>Node11</title>
<g id="a_node11"><a xlink:href="opengl_camera_8hpp.html" target="_top" xlink:title=" ">
<polygon fill="white" stroke="black" points="198,-207.5 198,-233.5 345,-233.5 345,-207.5 198,-207.5"/>
<text text-anchor="middle" x="271.5" y="-216.7" font-family="Source Sans Pro" font-size="16.00">openglCamera.hpp</text>
</a>
</g>
</g>
<!-- Node2&#45;&gt;Node11 -->
<g id="edge10" class="edge">
<title>Node2&#45;&gt;Node11</title>
<path fill="none" stroke="midnightblue" d="M459.79,-270.5C417.17,-259.41 365.93,-246.07 327.66,-236.12"/>
<polygon fill="midnightblue" stroke="midnightblue" points="328.29,-232.66 317.73,-233.53 326.53,-239.44 328.29,-232.66"/>
</g>
<!-- Node12 -->
<g id="node12" class="node">
<title>Node12</title>
<g id="a_node12"><a xlink:href="opengl_graphics_engine_link_8hpp.html" target="_top" xlink:title=" ">
<polygon fill="white" stroke="black" points="370,-135.5 370,-161.5 599,-161.5 599,-135.5 370,-135.5"/>
<text text-anchor="middle" x="484.5" y="-144.7" font-family="Source Sans Pro" font-size="16.00">openglGraphicsEngineLink.hpp</text>
</a>
</g>
</g>
<!-- Node2&#45;&gt;Node12 -->
<g id="edge48" class="edge">
<title>Node2&#45;&gt;Node12</title>
<path fill="none" stroke="midnightblue" d="M532.12,-270.24C521.61,-243.6 503.7,-198.19 493.1,-171.3"/>
<polygon fill="midnightblue" stroke="midnightblue" points="496.22,-169.68 489.3,-161.66 489.71,-172.25 496.22,-169.68"/>
</g>
<!-- Node15 -->
<g id="node15" class="node">
<title>Node15</title>
<g id="a_node15"><a xlink:href="opengl_renderable_8hpp.html" target="_top" xlink:title=" ">
<polygon fill="white" stroke="black" points="1612,-207.5 1612,-233.5 1785,-233.5 1785,-207.5 1612,-207.5"/>
<text text-anchor="middle" x="1698.5" y="-216.7" font-family="Source Sans Pro" font-size="16.00">openglRenderable.hpp</text>
</a>
</g>
</g>
<!-- Node2&#45;&gt;Node15 -->
<g id="edge17" class="edge">
<title>Node2&#45;&gt;Node15</title>
<path fill="none" stroke="midnightblue" d="M638.23,-285.59C856.96,-272.37 1383.76,-240.53 1601.65,-227.35"/>
<polygon fill="midnightblue" stroke="midnightblue" points="1602.02,-230.84 1611.79,-226.74 1601.6,-223.85 1602.02,-230.84"/>
</g>
<!-- Node18 -->
<g id="node18" class="node">
<title>Node18</title>
<g id="a_node18"><a xlink:title=" ">
<polygon fill="white" stroke="#bfbfbf" points="2535.5,-0.5 2535.5,-26.5 2603.5,-26.5 2603.5,-0.5 2535.5,-0.5"/>
<text text-anchor="middle" x="2569.5" y="-9.7" font-family="Source Sans Pro" font-size="16.00">fstream</text>
</a>
</g>
</g>
<!-- Node2&#45;&gt;Node18 -->
<g id="edge53" class="edge">
<title>Node2&#45;&gt;Node18</title>
<path fill="none" stroke="midnightblue" d="M638.13,-290.35C875.39,-287 1501.07,-274.68 2021.5,-234 2260.19,-215.34 2390.14,-343.18 2556.5,-171 2591.2,-135.09 2582.9,-70.44 2575.37,-36.57"/>
<polygon fill="midnightblue" stroke="midnightblue" points="2578.74,-35.63 2573,-26.73 2571.94,-37.27 2578.74,-35.63"/>
</g>
<!-- Node35 -->
<g id="node35" class="node">
<title>Node35</title>
<g id="a_node35"><a xlink:href="opengl_framebuffer_8hpp.html" target="_top" xlink:title=" ">
<polygon fill="white" stroke="black" points="693,-207.5 693,-233.5 870,-233.5 870,-207.5 693,-207.5"/>
<text text-anchor="middle" x="781.5" y="-216.7" font-family="Source Sans Pro" font-size="16.00">openglFramebuffer.hpp</text>
</a>
</g>
</g>
<!-- Node2&#45;&gt;Node35 -->
<g id="edge43" class="edge">
<title>Node2&#45;&gt;Node35</title>
<path fill="none" stroke="midnightblue" d="M612.81,-270.5C650.67,-259.5 696.12,-246.3 730.3,-236.37"/>
<polygon fill="midnightblue" stroke="midnightblue" points="731.45,-239.68 740.08,-233.53 729.5,-232.96 731.45,-239.68"/>
</g>
<!-- Node2&#45;&gt;Node36 -->
<g id="edge49" class="edge">
<title>Node2&#45;&gt;Node36</title>
<path fill="none" stroke="midnightblue" d="M638.17,-289.85C991.56,-283.71 2203,-261.14 2589.5,-234 2590.78,-233.91 2592.07,-233.82 2593.36,-233.72"/>
<polygon fill="midnightblue" stroke="midnightblue" points="2593.7,-237.2 2603.38,-232.91 2593.14,-230.23 2593.7,-237.2"/>
</g>
<!-- Node37 -->
<g id="node37" class="node">
<title>Node37</title>
<g id="a_node37"><a xlink:title=" ">
<polygon fill="white" stroke="#bfbfbf" points="576,-207.5 576,-233.5 637,-233.5 637,-207.5 576,-207.5"/>
<text text-anchor="middle" x="606.5" y="-216.7" font-family="Source Sans Pro" font-size="16.00">thread</text>
</a>
</g>
</g>
<!-- Node2&#45;&gt;Node37 -->
<g id="edge55" class="edge">
<title>Node2&#45;&gt;Node37</title>
<path fill="none" stroke="midnightblue" d="M560.3,-270.5C569.11,-261.15 579.43,-250.22 588.07,-241.05"/>
<polygon fill="midnightblue" stroke="midnightblue" points="590.84,-243.21 595.16,-233.53 585.75,-238.41 590.84,-243.21"/>
</g>
<!-- Node4 -->
<g id="node4" class="node">
<title>Node4</title>
<g id="a_node4"><a xlink:title=" ">
<polygon fill="white" stroke="#bfbfbf" points="640,-0.5 640,-26.5 723,-26.5 723,-0.5 640,-0.5"/>
<text text-anchor="middle" x="681.5" y="-9.7" font-family="Source Sans Pro" font-size="16.00">GL/glew.h</text>
</a>
</g>
</g>
<!-- Node3&#45;&gt;Node4 -->
<g id="edge3" class="edge">
<title>Node3&#45;&gt;Node4</title>
<path fill="none" stroke="midnightblue" d="M340.14,-64.31C343.3,-63.86 346.43,-63.42 349.5,-63 471.05,-46.17 505,-49.82 629.89,-26.96"/>
<polygon fill="midnightblue" stroke="midnightblue" points="630.64,-30.38 639.83,-25.12 629.36,-23.5 630.64,-30.38"/>
</g>
<!-- Node3&#45;&gt;Node5 -->
<g id="edge4" class="edge">
<title>Node3&#45;&gt;Node5</title>
<path fill="none" stroke="midnightblue" d="M245.15,-63.45C229.91,-54.43 208.85,-41.95 191.8,-31.85"/>
<polygon fill="midnightblue" stroke="midnightblue" points="193.2,-28.61 182.81,-26.53 189.63,-34.63 193.2,-28.61"/>
</g>
<!-- Node3&#45;&gt;Node6 -->
<g id="edge5" class="edge">
<title>Node3&#45;&gt;Node6</title>
<path fill="none" stroke="midnightblue" d="M340.11,-64.04C343.28,-63.67 346.42,-63.32 349.5,-63 622.73,-34.76 692.77,-49.98 966.5,-27 991.05,-24.94 1018.51,-21.95 1040.32,-19.41"/>
<polygon fill="midnightblue" stroke="midnightblue" points="1041.02,-22.85 1050.54,-18.21 1040.2,-15.9 1041.02,-22.85"/>
</g>
<!-- Node3&#45;&gt;Node7 -->
<g id="edge6" class="edge">
<title>Node3&#45;&gt;Node7</title>
<path fill="none" stroke="midnightblue" d="M218.08,-63.45C171.77,-51.68 102.34,-34.03 60.73,-23.45"/>
<polygon fill="midnightblue" stroke="midnightblue" points="61.58,-20.06 51.03,-20.99 59.86,-26.84 61.58,-20.06"/>
</g>
<!-- Node8 -->
<g id="node8" class="node">
<title>Node8</title>
<g id="a_node8"><a xlink:title=" ">
<polygon fill="white" stroke="#bfbfbf" points="235,-0.5 235,-26.5 296,-26.5 296,-0.5 235,-0.5"/>
<text text-anchor="middle" x="265.5" y="-9.7" font-family="Source Sans Pro" font-size="16.00">climits</text>
</a>
</g>
</g>
<!-- Node3&#45;&gt;Node8 -->
<g id="edge7" class="edge">
<title>Node3&#45;&gt;Node8</title>
<path fill="none" stroke="midnightblue" d="M265.5,-63.45C265.5,-55.85 265.5,-45.79 265.5,-36.78"/>
<polygon fill="midnightblue" stroke="midnightblue" points="269,-36.53 265.5,-26.53 262,-36.53 269,-36.53"/>
</g>
<!-- Node9 -->
<g id="node9" class="node">
<title>Node9</title>
<g id="a_node9"><a xlink:title=" ">
<polygon fill="white" stroke="#bfbfbf" points="314.5,-0.5 314.5,-26.5 386.5,-26.5 386.5,-0.5 314.5,-0.5"/>
<text text-anchor="middle" x="350.5" y="-9.7" font-family="Source Sans Pro" font-size="16.00">unistd.h</text>
</a>
</g>
</g>
<!-- Node3&#45;&gt;Node9 -->
<g id="edge8" class="edge">
<title>Node3&#45;&gt;Node9</title>
<path fill="none" stroke="midnightblue" d="M282.29,-63.45C294.63,-54.59 311.61,-42.41 325.53,-32.42"/>
<polygon fill="midnightblue" stroke="midnightblue" points="327.66,-35.2 333.74,-26.53 323.58,-29.51 327.66,-35.2"/>
</g>
<!-- Node3&#45;&gt;Node10 -->
<g id="edge9" class="edge">
<title>Node3&#45;&gt;Node10</title>
<path fill="none" stroke="midnightblue" d="M313.71,-63.45C360.15,-51.84 429.46,-34.51 471.94,-23.89"/>
<polygon fill="midnightblue" stroke="midnightblue" points="473.02,-27.23 481.88,-21.41 471.33,-20.44 473.02,-27.23"/>
</g>
<!-- Node11&#45;&gt;Node3 -->
<g id="edge11" class="edge">
<title>Node11&#45;&gt;Node3</title>
<path fill="none" stroke="midnightblue" d="M197.94,-209.98C151.22,-202.26 96.91,-189.57 82.5,-171 70.24,-155.2 70.3,-141.85 82.5,-126 95.03,-109.72 138.94,-97.78 180.61,-89.82"/>
<polygon fill="midnightblue" stroke="midnightblue" points="181.37,-93.24 190.57,-87.98 180.1,-86.35 181.37,-93.24"/>
</g>
<!-- Node11&#45;&gt;Node7 -->
<g id="edge16" class="edge">
<title>Node11&#45;&gt;Node7</title>
<path fill="none" stroke="midnightblue" d="M197.98,-209.78C148.08,-201.74 87.95,-188.76 69.5,-171 32.41,-135.31 25.84,-71.04 25.12,-37.03"/>
<polygon fill="midnightblue" stroke="midnightblue" points="28.62,-36.72 25.07,-26.74 21.62,-36.76 28.62,-36.72"/>
</g>
<!-- Node11&#45;&gt;Node12 -->
<g id="edge12" class="edge">
<title>Node11&#45;&gt;Node12</title>
<path fill="none" stroke="midnightblue" d="M308.12,-207.47C344.08,-195.65 399.09,-177.57 438.1,-164.75"/>
<polygon fill="midnightblue" stroke="midnightblue" points="439.24,-168.06 447.65,-161.61 437.06,-161.41 439.24,-168.06"/>
</g>
<!-- Node13 -->
<g id="node13" class="node">
<title>Node13</title>
<g id="a_node13"><a xlink:title=" ">
<polygon fill="white" stroke="#bfbfbf" points="358.5,-63.5 358.5,-89.5 462.5,-89.5 462.5,-63.5 358.5,-63.5"/>
<text text-anchor="middle" x="410.5" y="-72.7" font-family="Source Sans Pro" font-size="16.00">glm/glm.hpp</text>
</a>
</g>
</g>
<!-- Node11&#45;&gt;Node13 -->
<g id="edge14" class="edge">
<title>Node11&#45;&gt;Node13</title>
<path fill="none" stroke="midnightblue" d="M285.31,-207.12C295.8,-197.55 310.43,-183.8 322.5,-171 340.46,-151.95 342.64,-145.14 360.5,-126 369.91,-115.92 380.86,-105.19 390.11,-96.4"/>
<polygon fill="midnightblue" stroke="midnightblue" points="392.53,-98.92 397.41,-89.52 387.73,-93.83 392.53,-98.92"/>
</g>
<!-- Node14 -->
<g id="node14" class="node">
<title>Node14</title>
<g id="a_node14"><a xlink:title=" ">
<polygon fill="white" stroke="#bfbfbf" points="91.5,-135.5 91.5,-161.5 313.5,-161.5 313.5,-135.5 91.5,-135.5"/>
<text text-anchor="middle" x="202.5" y="-144.7" font-family="Source Sans Pro" font-size="16.00">glm/gtc/matrix_transform.hpp</text>
</a>
</g>
</g>
<!-- Node11&#45;&gt;Node14 -->
<g id="edge15" class="edge">
<title>Node11&#45;&gt;Node14</title>
<path fill="none" stroke="midnightblue" d="M259.48,-207.31C248.99,-196.67 233.6,-181.05 221.45,-168.73"/>
<polygon fill="midnightblue" stroke="midnightblue" points="223.89,-166.22 214.38,-161.55 218.91,-171.13 223.89,-166.22"/>
</g>
<!-- Node12&#45;&gt;Node3 -->
<g id="edge13" class="edge">
<title>Node12&#45;&gt;Node3</title>
<path fill="none" stroke="midnightblue" d="M446.85,-135.47C409.8,-123.62 353.08,-105.49 312.96,-92.67"/>
<polygon fill="midnightblue" stroke="midnightblue" points="313.98,-89.32 303.39,-89.61 311.85,-95.99 313.98,-89.32"/>
</g>
<!-- Node15&#45;&gt;Node6 -->
<g id="edge41" class="edge">
<title>Node15&#45;&gt;Node6</title>
<path fill="none" stroke="midnightblue" d="M1785.14,-218.97C1945.1,-217.09 2273.74,-208.63 2308.5,-171 2322.07,-156.31 2321.99,-140.77 2308.5,-126 2226.46,-36.18 1321.95,-17.96 1120.23,-15"/>
<polygon fill="midnightblue" stroke="midnightblue" points="1120.13,-11.5 1110.08,-14.86 1120.03,-18.5 1120.13,-11.5"/>
</g>
<!-- Node16 -->
<g id="node16" class="node">
<title>Node16</title>
<g id="a_node16"><a xlink:href="opengl_program_8hpp.html" target="_top" xlink:title=" ">
<polygon fill="white" stroke="black" points="2394,-135.5 2394,-161.5 2547,-161.5 2547,-135.5 2394,-135.5"/>
<text text-anchor="middle" x="2470.5" y="-144.7" font-family="Source Sans Pro" font-size="16.00">openglProgram.hpp</text>
</a>
</g>
</g>
<!-- Node15&#45;&gt;Node16 -->
<g id="edge18" class="edge">
<title>Node15&#45;&gt;Node16</title>
<path fill="none" stroke="midnightblue" d="M1785.06,-215.45C1908.77,-209.09 2143.11,-194.97 2341.5,-171 2358.93,-168.89 2377.6,-166.1 2395.17,-163.22"/>
<polygon fill="midnightblue" stroke="midnightblue" points="2396.08,-166.62 2405.37,-161.53 2394.93,-159.72 2396.08,-166.62"/>
</g>
<!-- Node23 -->
<g id="node23" class="node">
<title>Node23</title>
<g id="a_node23"><a xlink:href="opengl_texture_8hpp.html" target="_top" xlink:title=" ">
<polygon fill="white" stroke="black" points="1049.5,-135.5 1049.5,-161.5 1193.5,-161.5 1193.5,-135.5 1049.5,-135.5"/>
<text text-anchor="middle" x="1121.5" y="-144.7" font-family="Source Sans Pro" font-size="16.00">openglTexture.hpp</text>
</a>
</g>
</g>
<!-- Node15&#45;&gt;Node23 -->
<g id="edge26" class="edge">
<title>Node15&#45;&gt;Node23</title>
<path fill="none" stroke="midnightblue" d="M1611.9,-215.29C1512.45,-209.47 1344.7,-196.65 1202.5,-171 1192.41,-169.18 1181.73,-166.73 1171.55,-164.14"/>
<polygon fill="midnightblue" stroke="midnightblue" points="1172.15,-160.68 1161.59,-161.52 1170.37,-167.45 1172.15,-160.68"/>
</g>
<!-- Node26 -->
<g id="node26" class="node">
<title>Node26</title>
<g id="a_node26"><a xlink:href="_i_e_asset_8hpp.html" target="_top" xlink:title=" ">
<polygon fill="white" stroke="black" points="769.5,-135.5 769.5,-161.5 993.5,-161.5 993.5,-135.5 769.5,-135.5"/>
<text text-anchor="middle" x="881.5" y="-144.7" font-family="Source Sans Pro" font-size="16.00">Core/AssetModule/IEAsset.hpp</text>
</a>
</g>
</g>
<!-- Node15&#45;&gt;Node26 -->
<g id="edge29" class="edge">
<title>Node15&#45;&gt;Node26</title>
<path fill="none" stroke="midnightblue" d="M1611.86,-214.8C1485.88,-207.58 1244.86,-192.33 1040.5,-171 1018.64,-168.72 995.14,-165.8 973.1,-162.86"/>
<polygon fill="midnightblue" stroke="midnightblue" points="973.47,-159.37 963.09,-161.5 972.53,-166.31 973.47,-159.37"/>
</g>
<!-- Node28 -->
<g id="node28" class="node">
<title>Node28</title>
<g id="a_node28"><a xlink:title=" ">
<polygon fill="white" stroke="#bfbfbf" points="1211.5,-135.5 1211.5,-161.5 1371.5,-161.5 1371.5,-135.5 1211.5,-135.5"/>
<text text-anchor="middle" x="1291.5" y="-144.7" font-family="Source Sans Pro" font-size="16.00">assimp/Importer.hpp</text>
</a>
</g>
</g>
<!-- Node15&#45;&gt;Node28 -->
<g id="edge35" class="edge">
<title>Node15&#45;&gt;Node28</title>
<path fill="none" stroke="midnightblue" d="M1611.77,-208.32C1547.64,-199.55 1458.31,-186.3 1380.5,-171 1369.87,-168.91 1358.6,-166.41 1347.77,-163.86"/>
<polygon fill="midnightblue" stroke="midnightblue" points="1348.53,-160.45 1337.99,-161.53 1346.9,-167.25 1348.53,-160.45"/>
</g>
<!-- Node29 -->
<g id="node29" class="node">
<title>Node29</title>
<g id="a_node29"><a xlink:title=" ">
<polygon fill="white" stroke="#bfbfbf" points="1389.5,-135.5 1389.5,-161.5 1511.5,-161.5 1511.5,-135.5 1389.5,-135.5"/>
<text text-anchor="middle" x="1450.5" y="-144.7" font-family="Source Sans Pro" font-size="16.00">assimp/scene.h</text>
</a>
</g>
</g>
<!-- Node15&#45;&gt;Node29 -->
<g id="edge36" class="edge">
<title>Node15&#45;&gt;Node29</title>
<path fill="none" stroke="midnightblue" d="M1652.66,-207.44C1616.64,-197.86 1565.26,-183.97 1520.5,-171 1513.45,-168.96 1506.02,-166.74 1498.73,-164.54"/>
<polygon fill="midnightblue" stroke="midnightblue" points="1499.53,-161.12 1488.95,-161.55 1497.49,-167.82 1499.53,-161.12"/>
</g>
<!-- Node30 -->
<g id="node30" class="node">
<title>Node30</title>
<g id="a_node30"><a xlink:title=" ">
<polygon fill="white" stroke="#bfbfbf" points="1529.5,-135.5 1529.5,-161.5 1693.5,-161.5 1693.5,-135.5 1529.5,-135.5"/>
<text text-anchor="middle" x="1611.5" y="-144.7" font-family="Source Sans Pro" font-size="16.00">assimp/postprocess.h</text>
</a>
</g>
</g>
<!-- Node15&#45;&gt;Node30 -->
<g id="edge37" class="edge">
<title>Node15&#45;&gt;Node30</title>
<path fill="none" stroke="midnightblue" d="M1683.35,-207.31C1669.87,-196.47 1649.97,-180.46 1634.53,-168.03"/>
<polygon fill="midnightblue" stroke="midnightblue" points="1636.47,-165.1 1626.48,-161.55 1632.08,-170.55 1636.47,-165.1"/>
</g>
<!-- Node31 -->
<g id="node31" class="node">
<title>Node31</title>
<g id="a_node31"><a xlink:title=" ">
<polygon fill="white" stroke="#bfbfbf" points="1712,-126.5 1712,-170.5 1859,-170.5 1859,-126.5 1712,-126.5"/>
<text text-anchor="start" x="1720" y="-153.7" font-family="Source Sans Pro" font-size="16.00">glm/ext/quaternion</text>
<text text-anchor="middle" x="1785.5" y="-135.7" font-family="Source Sans Pro" font-size="16.00">_trigonometric.hpp</text>
</a>
</g>
</g>
<!-- Node15&#45;&gt;Node31 -->
<g id="edge38" class="edge">
<title>Node15&#45;&gt;Node31</title>
<path fill="none" stroke="midnightblue" d="M1713.65,-207.31C1724.06,-198.94 1738.29,-187.49 1751.34,-176.98"/>
<polygon fill="midnightblue" stroke="midnightblue" points="1753.67,-179.6 1759.27,-170.6 1749.29,-174.15 1753.67,-179.6"/>
</g>
<!-- Node32 -->
<g id="node32" class="node">
<title>Node32</title>
<g id="a_node32"><a xlink:title=" ">
<polygon fill="white" stroke="#bfbfbf" points="1877,-135.5 1877,-161.5 2068,-161.5 2068,-135.5 1877,-135.5"/>
<text text-anchor="middle" x="1972.5" y="-144.7" font-family="Source Sans Pro" font-size="16.00">glm/detail/type_quat.hpp</text>
</a>
</g>
</g>
<!-- Node15&#45;&gt;Node32 -->
<g id="edge39" class="edge">
<title>Node15&#45;&gt;Node32</title>
<path fill="none" stroke="midnightblue" d="M1745.6,-207.47C1792.65,-195.45 1865.03,-176.96 1915.34,-164.1"/>
<polygon fill="midnightblue" stroke="midnightblue" points="1916.27,-167.48 1925.1,-161.61 1914.54,-160.69 1916.27,-167.48"/>
</g>
<!-- Node33 -->
<g id="node33" class="node">
<title>Node33</title>
<g id="a_node33"><a xlink:title=" ">
<polygon fill="white" stroke="#bfbfbf" points="2086,-135.5 2086,-161.5 2153,-161.5 2153,-135.5 2086,-135.5"/>
<text text-anchor="middle" x="2119.5" y="-144.7" font-family="Source Sans Pro" font-size="16.00">cstddef</text>
</a>
</g>
</g>
<!-- Node15&#45;&gt;Node33 -->
<g id="edge40" class="edge">
<title>Node15&#45;&gt;Node33</title>
<path fill="none" stroke="midnightblue" d="M1785.34,-216.88C1863.35,-212.55 1980.23,-201.11 2077.5,-171 2081.64,-169.72 2085.86,-168.05 2089.95,-166.21"/>
<polygon fill="midnightblue" stroke="midnightblue" points="2091.72,-169.24 2099.17,-161.7 2088.65,-162.95 2091.72,-169.24"/>
</g>
<!-- Node34 -->
<g id="node34" class="node">
<title>Node34</title>
<g id="a_node34"><a xlink:title=" ">
<polygon fill="white" stroke="#bfbfbf" points="2171.5,-135.5 2171.5,-161.5 2299.5,-161.5 2299.5,-135.5 2171.5,-135.5"/>
<text text-anchor="middle" x="2235.5" y="-144.7" font-family="Source Sans Pro" font-size="16.00">unordered_map</text>
</a>
</g>
</g>
<!-- Node15&#45;&gt;Node34 -->
<g id="edge42" class="edge">
<title>Node15&#45;&gt;Node34</title>
<path fill="none" stroke="midnightblue" d="M1785.15,-215.17C1878.89,-209.39 2032.39,-196.74 2162.5,-171 2171.35,-169.25 2180.68,-166.9 2189.59,-164.4"/>
<polygon fill="midnightblue" stroke="midnightblue" points="2190.81,-167.69 2199.44,-161.54 2188.86,-160.97 2190.81,-167.69"/>
</g>
<!-- Node17 -->
<g id="node17" class="node">
<title>Node17</title>
<g id="a_node17"><a xlink:href="opengl_shader_8hpp.html" target="_top" xlink:title=" ">
<polygon fill="white" stroke="black" points="2393.5,-63.5 2393.5,-89.5 2535.5,-89.5 2535.5,-63.5 2393.5,-63.5"/>
<text text-anchor="middle" x="2464.5" y="-72.7" font-family="Source Sans Pro" font-size="16.00">openglShader.hpp</text>
</a>
</g>
</g>
<!-- Node16&#45;&gt;Node17 -->
<g id="edge19" class="edge">
<title>Node16&#45;&gt;Node17</title>
<path fill="none" stroke="midnightblue" d="M2469.45,-135.31C2468.61,-125.47 2467.4,-111.38 2466.39,-99.57"/>
<polygon fill="midnightblue" stroke="midnightblue" points="2469.87,-99.22 2465.53,-89.55 2462.9,-99.82 2469.87,-99.22"/>
</g>
<!-- Node17&#45;&gt;Node4 -->
<g id="edge25" class="edge">
<title>Node17&#45;&gt;Node4</title>
<path fill="none" stroke="midnightblue" d="M2393.33,-75.08C2111.31,-73.19 1071.78,-63.82 744.5,-27 740.79,-26.58 736.98,-26.06 733.14,-25.47"/>
<polygon fill="midnightblue" stroke="midnightblue" points="733.47,-21.97 723.03,-23.76 732.31,-28.88 733.47,-21.97"/>
</g>
<!-- Node17&#45;&gt;Node18 -->
<g id="edge20" class="edge">
<title>Node17&#45;&gt;Node18</title>
<path fill="none" stroke="midnightblue" d="M2485.24,-63.45C2500.92,-54.34 2522.65,-41.72 2540.11,-31.57"/>
<polygon fill="midnightblue" stroke="midnightblue" points="2541.91,-34.58 2548.8,-26.53 2538.39,-28.52 2541.91,-34.58"/>
</g>
<!-- Node19 -->
<g id="node19" class="node">
<title>Node19</title>
<g id="a_node19"><a xlink:title=" ">
<polygon fill="white" stroke="#bfbfbf" points="2343.5,-0.5 2343.5,-26.5 2413.5,-26.5 2413.5,-0.5 2343.5,-0.5"/>
<text text-anchor="middle" x="2378.5" y="-9.7" font-family="Source Sans Pro" font-size="16.00">sstream</text>
</a>
</g>
</g>
<!-- Node17&#45;&gt;Node19 -->
<g id="edge21" class="edge">
<title>Node17&#45;&gt;Node19</title>
<path fill="none" stroke="midnightblue" d="M2447.51,-63.45C2435.02,-54.59 2417.85,-42.41 2403.76,-32.42"/>
<polygon fill="midnightblue" stroke="midnightblue" points="2405.64,-29.46 2395.46,-26.53 2401.59,-35.17 2405.64,-29.46"/>
</g>
<!-- Node20 -->
<g id="node20" class="node">
<title>Node20</title>
<g id="a_node20"><a xlink:title=" ">
<polygon fill="white" stroke="#bfbfbf" points="1719.5,-0.5 1719.5,-26.5 1779.5,-26.5 1779.5,-0.5 1719.5,-0.5"/>
<text text-anchor="middle" x="1749.5" y="-9.7" font-family="Source Sans Pro" font-size="16.00">deque</text>
</a>
</g>
</g>
<!-- Node17&#45;&gt;Node20 -->
<g id="edge22" class="edge">
<title>Node17&#45;&gt;Node20</title>
<path fill="none" stroke="midnightblue" d="M2393.13,-64.64C2388.52,-64.05 2383.95,-63.5 2379.5,-63 2157.56,-38.17 1890.19,-22.16 1790.01,-16.64"/>
<polygon fill="midnightblue" stroke="midnightblue" points="1789.91,-13.13 1779.73,-16.08 1789.53,-20.12 1789.91,-13.13"/>
</g>
<!-- Node21 -->
<g id="node21" class="node">
<title>Node21</title>
<g id="a_node21"><a xlink:title=" ">
<polygon fill="white" stroke="#bfbfbf" points="753.5,-0.5 753.5,-26.5 839.5,-26.5 839.5,-0.5 753.5,-0.5"/>
<text text-anchor="middle" x="796.5" y="-9.7" font-family="Source Sans Pro" font-size="16.00">functional</text>
</a>
</g>
</g>
<!-- Node17&#45;&gt;Node21 -->
<g id="edge23" class="edge">
<title>Node17&#45;&gt;Node21</title>
<path fill="none" stroke="midnightblue" d="M2393.47,-75.31C2125.41,-74.3 1174.39,-67.95 849.85,-26.91"/>
<polygon fill="midnightblue" stroke="midnightblue" points="849.87,-23.38 839.5,-25.56 848.96,-30.32 849.87,-23.38"/>
</g>
<!-- Node22 -->
<g id="node22" class="node">
<title>Node22</title>
<g id="a_node22"><a xlink:title=" ">
<polygon fill="white" stroke="#bfbfbf" points="2431.5,-0.5 2431.5,-26.5 2507.5,-26.5 2507.5,-0.5 2431.5,-0.5"/>
<text text-anchor="middle" x="2469.5" y="-9.7" font-family="Source Sans Pro" font-size="16.00">iostream</text>
</a>
</g>
</g>
<!-- Node17&#45;&gt;Node22 -->
<g id="edge24" class="edge">
<title>Node17&#45;&gt;Node22</title>
<path fill="none" stroke="midnightblue" d="M2465.49,-63.45C2466.11,-55.85 2466.94,-45.79 2467.67,-36.78"/>
<polygon fill="midnightblue" stroke="midnightblue" points="2471.19,-36.78 2468.51,-26.53 2464.21,-36.21 2471.19,-36.78"/>
</g>
<!-- Node24 -->
<g id="node24" class="node">
<title>Node24</title>
<g id="a_node24"><a xlink:href="opengl_image_8hpp.html" target="_top" xlink:title=" ">
<polygon fill="white" stroke="black" points="831,-63.5 831,-89.5 968,-89.5 968,-63.5 831,-63.5"/>
<text text-anchor="middle" x="899.5" y="-72.7" font-family="Source Sans Pro" font-size="16.00">openglImage.hpp</text>
</a>
</g>
</g>
<!-- Node23&#45;&gt;Node24 -->
<g id="edge27" class="edge">
<title>Node23&#45;&gt;Node24</title>
<path fill="none" stroke="midnightblue" d="M1083.34,-135.47C1045.77,-123.62 988.28,-105.49 947.61,-92.67"/>
<polygon fill="midnightblue" stroke="midnightblue" points="948.5,-89.28 937.91,-89.61 946.39,-95.96 948.5,-89.28"/>
</g>
<!-- Node25 -->
<g id="node25" class="node">
<title>Node25</title>
<g id="a_node25"><a xlink:title=" ">
<polygon fill="white" stroke="#bfbfbf" points="857.5,-0.5 857.5,-26.5 957.5,-26.5 957.5,-0.5 857.5,-0.5"/>
<text text-anchor="middle" x="907.5" y="-9.7" font-family="Source Sans Pro" font-size="16.00">stb_image.h</text>
</a>
</g>
</g>
<!-- Node24&#45;&gt;Node25 -->
<g id="edge28" class="edge">
<title>Node24&#45;&gt;Node25</title>
<path fill="none" stroke="midnightblue" d="M901.08,-63.45C902.09,-55.76 903.43,-45.57 904.62,-36.48"/>
<polygon fill="midnightblue" stroke="midnightblue" points="908.09,-36.9 905.92,-26.53 901.15,-35.99 908.09,-36.9"/>
</g>
<!-- Node26&#45;&gt;Node6 -->
<g id="edge32" class="edge">
<title>Node26&#45;&gt;Node6</title>
<path fill="none" stroke="midnightblue" d="M942.77,-135.46C1004.37,-122.74 1091.62,-102.79 1101.5,-90 1113.66,-74.25 1105.07,-51.84 1095.47,-35.53"/>
<polygon fill="midnightblue" stroke="midnightblue" points="1098.18,-33.28 1089.85,-26.73 1092.28,-37.04 1098.18,-33.28"/>
</g>
<!-- Node26&#45;&gt;Node10 -->
<g id="edge31" class="edge">
<title>Node26&#45;&gt;Node10</title>
<path fill="none" stroke="midnightblue" d="M769.46,-139.02C686.51,-130.78 582.13,-115.65 547.5,-90 530.02,-77.05 520.04,-53.79 514.74,-36.49"/>
<polygon fill="midnightblue" stroke="midnightblue" points="518.05,-35.35 512.02,-26.64 511.31,-37.21 518.05,-35.35"/>
</g>
<!-- Node26&#45;&gt;Node13 -->
<g id="edge30" class="edge">
<title>Node26&#45;&gt;Node13</title>
<path fill="none" stroke="midnightblue" d="M800.53,-135.47C707.52,-121.64 556.93,-99.26 472.67,-86.74"/>
<polygon fill="midnightblue" stroke="midnightblue" points="473.14,-83.27 462.73,-85.26 472.11,-90.2 473.14,-83.27"/>
</g>
<!-- Node27 -->
<g id="node27" class="node">
<title>Node27</title>
<g id="a_node27"><a xlink:href="_i_e_aspect_8hpp.html" target="_top" xlink:title=" ">
<polygon fill="white" stroke="black" points="986.5,-63.5 986.5,-89.5 1092.5,-89.5 1092.5,-63.5 986.5,-63.5"/>
<text text-anchor="middle" x="1039.5" y="-72.7" font-family="Source Sans Pro" font-size="16.00">IEAspect.hpp</text>
</a>
</g>
</g>
<!-- Node26&#45;&gt;Node27 -->
<g id="edge33" class="edge">
<title>Node26&#45;&gt;Node27</title>
<path fill="none" stroke="midnightblue" d="M908.66,-135.47C934.66,-123.95 974.08,-106.49 1002.85,-93.74"/>
<polygon fill="midnightblue" stroke="midnightblue" points="1004.44,-96.86 1012.16,-89.61 1001.6,-90.46 1004.44,-96.86"/>
</g>
<!-- Node27&#45;&gt;Node6 -->
<g id="edge34" class="edge">
<title>Node27&#45;&gt;Node6</title>
<path fill="none" stroke="midnightblue" d="M1047.6,-63.45C1053.05,-55.34 1060.37,-44.46 1066.72,-35.01"/>
<polygon fill="midnightblue" stroke="midnightblue" points="1069.74,-36.78 1072.42,-26.53 1063.93,-32.87 1069.74,-36.78"/>
</g>
<!-- Node35&#45;&gt;Node12 -->
<g id="edge45" class="edge">
<title>Node35&#45;&gt;Node12</title>
<path fill="none" stroke="midnightblue" d="M730.44,-207.47C679.23,-195.4 600.34,-176.8 545.78,-163.94"/>
<polygon fill="midnightblue" stroke="midnightblue" points="546.42,-160.5 535.88,-161.61 544.81,-167.31 546.42,-160.5"/>
</g>
<!-- Node35&#45;&gt;Node20 -->
<g id="edge46" class="edge">
<title>Node35&#45;&gt;Node20</title>
<path fill="none" stroke="midnightblue" d="M870.05,-213.32C912.54,-207.17 962.73,-194.99 1002.5,-171 1024.91,-157.48 1017.69,-138.84 1040.5,-126 1157.05,-60.38 1576.74,-26.41 1709.17,-17.15"/>
<polygon fill="midnightblue" stroke="midnightblue" points="1709.55,-20.63 1719.29,-16.45 1709.07,-13.65 1709.55,-20.63"/>
</g>
<!-- Node35&#45;&gt;Node21 -->
<g id="edge47" class="edge">
<title>Node35&#45;&gt;Node21</title>
<path fill="none" stroke="midnightblue" d="M770.56,-207.37C763.01,-198.14 753.62,-184.72 749.5,-171 743.75,-151.84 742.11,-144.59 749.5,-126 757.63,-105.55 773.66,-109.68 783.5,-90 791.78,-73.44 794.9,-52.56 796.02,-36.96"/>
<polygon fill="midnightblue" stroke="midnightblue" points="799.53,-36.83 796.53,-26.67 792.54,-36.49 799.53,-36.83"/>
</g>
<!-- Node35&#45;&gt;Node24 -->
<g id="edge44" class="edge">
<title>Node35&#45;&gt;Node24</title>
<path fill="none" stroke="midnightblue" d="M773.24,-207.39C761.38,-188.34 742.77,-150.96 760.5,-126 769.82,-112.88 803.63,-100.92 835.56,-92.17"/>
<polygon fill="midnightblue" stroke="midnightblue" points="836.62,-95.51 845.38,-89.56 834.82,-88.74 836.62,-95.51"/>
</g>
<!-- Node38&#45;&gt;Node4 -->
<g id="edge57" class="edge">
<title>Node38&#45;&gt;Node4</title>
<path fill="none" stroke="midnightblue" d="M668.66,-63.45C670.68,-55.76 673.35,-45.57 675.73,-36.48"/>
<polygon fill="midnightblue" stroke="midnightblue" points="679.19,-37.09 678.35,-26.53 672.42,-35.31 679.19,-37.09"/>
</g>
<!-- Node38&#45;&gt;Node5 -->
<g id="edge58" class="edge">
<title>Node38&#45;&gt;Node5</title>
<path fill="none" stroke="midnightblue" d="M556.21,-66.09C469.41,-58 344.76,-45.02 226.69,-27.09"/>
<polygon fill="midnightblue" stroke="midnightblue" points="227.16,-23.63 216.74,-25.57 226.1,-30.55 227.16,-23.63"/>
</g>
<!-- Node38&#45;&gt;Node6 -->
<g id="edge60" class="edge">
<title>Node38&#45;&gt;Node6</title>
<path fill="none" stroke="midnightblue" d="M747.49,-63.45C836.06,-50.43 973.49,-30.23 1040.73,-20.35"/>
<polygon fill="midnightblue" stroke="midnightblue" points="1041.51,-23.77 1050.9,-18.85 1040.49,-16.84 1041.51,-23.77"/>
</g>
<!-- Node38&#45;&gt;Node10 -->
<g id="edge62" class="edge">
<title>Node38&#45;&gt;Node10</title>
<path fill="none" stroke="midnightblue" d="M634.68,-63.45C609.37,-53.55 573.45,-39.51 546.58,-29"/>
<polygon fill="midnightblue" stroke="midnightblue" points="547.71,-25.68 537.12,-25.3 545.16,-32.2 547.71,-25.68"/>
</g>
<!-- Node38&#45;&gt;Node21 -->
<g id="edge59" class="edge">
<title>Node38&#45;&gt;Node21</title>
<path fill="none" stroke="midnightblue" d="M691.38,-63.45C711.39,-54.13 739.29,-41.14 761.32,-30.88"/>
<polygon fill="midnightblue" stroke="midnightblue" points="763.08,-33.92 770.67,-26.53 760.13,-27.58 763.08,-33.92"/>
</g>
<!-- Node39 -->
<g id="node39" class="node">
<title>Node39</title>
<g id="a_node39"><a xlink:title=" ">
<polygon fill="white" stroke="#bfbfbf" points="581,-0.5 581,-26.5 622,-26.5 622,-0.5 581,-0.5"/>
<text text-anchor="middle" x="601.5" y="-9.7" font-family="Source Sans Pro" font-size="16.00">any</text>
</a>
</g>
</g>
<!-- Node38&#45;&gt;Node39 -->
<g id="edge61" class="edge">
<title>Node38&#45;&gt;Node39</title>
<path fill="none" stroke="midnightblue" d="M652.86,-63.45C643.91,-54.93 631.74,-43.33 621.5,-33.56"/>
<polygon fill="midnightblue" stroke="midnightblue" points="623.77,-30.89 614.12,-26.53 618.94,-35.96 623.77,-30.89"/>
</g>
</g>
</svg>
