<?xml version="1.0" encoding="UTF-8" standalone="no"?>
<!DOCTYPE svg PUBLIC "-//W3C//DTD SVG 1.1//EN"
 "http://www.w3.org/Graphics/SVG/1.1/DTD/svg11.dtd">
<!-- Generated by graphviz version 2.43.0 (0)
 -->
<!-- Title: Illumination&#45;Engine/src/GraphicsModule/OpenGL/openglImage.hpp Pages: 1 -->
<svg width="506pt" height="449pt"
 viewBox="0.00 0.00 505.50 449.00" xmlns="http://www.w3.org/2000/svg" xmlns:xlink="http://www.w3.org/1999/xlink">
<g id="graph0" class="graph" transform="scale(1 1) rotate(0) translate(4 445)">
<title>Illumination&#45;Engine/src/GraphicsModule/OpenGL/openglImage.hpp</title>
<polygon fill="white" stroke="transparent" points="-4,4 -4,-445 501.5,-445 501.5,4 -4,4"/>
<!-- Node1 -->
<g id="node1" class="node">
<title>Node1</title>
<g id="a_node1"><a xlink:title=" ">
<polygon fill="#bfbfbf" stroke="black" points="148.5,-378.5 148.5,-440.5 349.5,-440.5 349.5,-378.5 148.5,-378.5"/>
<text text-anchor="start" x="156.5" y="-423.7" font-family="Source Sans Pro" font-size="16.00">Illumination&#45;Engine</text>
<text text-anchor="start" x="156.5" y="-405.7" font-family="Source Sans Pro" font-size="16.00">/src/GraphicsModule</text>
<text text-anchor="middle" x="249" y="-387.7" font-family="Source Sans Pro" font-size="16.00">/OpenGL/openglImage.hpp</text>
</a>
</g>
</g>
<!-- Node2 -->
<g id="node2" class="node">
<title>Node2</title>
<g id="a_node2"><a xlink:href="opengl_framebuffer_8hpp.html" target="_top" xlink:title=" ">
<polygon fill="white" stroke="black" points="0,-180.5 0,-242.5 242,-242.5 242,-180.5 0,-180.5"/>
<text text-anchor="start" x="8" y="-225.7" font-family="Source Sans Pro" font-size="16.00">Illumination&#45;Engine</text>
<text text-anchor="start" x="8" y="-207.7" font-family="Source Sans Pro" font-size="16.00">/src/GraphicsModule</text>
<text text-anchor="middle" x="121" y="-189.7" font-family="Source Sans Pro" font-size="16.00">/OpenGL/openglFramebuffer.hpp</text>
</a>
</g>
</g>
<!-- Node1&#45;&gt;Node2 -->
<g id="edge1" class="edge">
<title>Node1&#45;&gt;Node2</title>
<path fill="none" stroke="midnightblue" d="M223.67,-369.71C199.32,-332.42 163.02,-276.84 140.74,-242.73"/>
<polygon fill="midnightblue" stroke="midnightblue" points="220.88,-371.85 229.28,-378.3 226.74,-368.02 220.88,-371.85"/>
</g>
<!-- Node5 -->
<g id="node5" class="node">
<title>Node5</title>
<g id="a_node5"><a xlink:href="opengl_texture_8hpp.html" target="_top" xlink:title=" ">
<polygon fill="white" stroke="black" points="242.5,-279.5 242.5,-341.5 451.5,-341.5 451.5,-279.5 242.5,-279.5"/>
<text text-anchor="start" x="250.5" y="-324.7" font-family="Source Sans Pro" font-size="16.00">Illumination&#45;Engine</text>
<text text-anchor="start" x="250.5" y="-306.7" font-family="Source Sans Pro" font-size="16.00">/src/GraphicsModule</text>
<text text-anchor="middle" x="347" y="-288.7" font-family="Source Sans Pro" font-size="16.00">/OpenGL/openglTexture.hpp</text>
</a>
</g>
</g>
<!-- Node1&#45;&gt;Node5 -->
<g id="edge4" class="edge">
<title>Node1&#45;&gt;Node5</title>
<path fill="none" stroke="midnightblue" d="M286.84,-371.05C296.68,-361.31 307.15,-350.95 316.55,-341.64"/>
<polygon fill="midnightblue" stroke="midnightblue" points="284.12,-368.82 279.47,-378.34 289.04,-373.79 284.12,-368.82"/>
</g>
<!-- Node3 -->
<g id="node3" class="node">
<title>Node3</title>
<g id="a_node3"><a xlink:href="opengl_render_engine_8hpp.html" target="_top" xlink:title=" ">
<polygon fill="white" stroke="black" points="123,-81.5 123,-143.5 377,-143.5 377,-81.5 123,-81.5"/>
<text text-anchor="start" x="131" y="-126.7" font-family="Source Sans Pro" font-size="16.00">Illumination&#45;Engine</text>
<text text-anchor="start" x="131" y="-108.7" font-family="Source Sans Pro" font-size="16.00">/src/GraphicsModule</text>
<text text-anchor="middle" x="250" y="-90.7" font-family="Source Sans Pro" font-size="16.00">/OpenGL/openglRenderEngine.hpp</text>
</a>
</g>
</g>
<!-- Node2&#45;&gt;Node3 -->
<g id="edge2" class="edge">
<title>Node2&#45;&gt;Node3</title>
<path fill="none" stroke="midnightblue" d="M169.29,-174.19C182.68,-164.12 197.06,-153.31 209.92,-143.64"/>
<polygon fill="midnightblue" stroke="midnightblue" points="167,-171.53 161.11,-180.34 171.21,-177.13 167,-171.53"/>
</g>
<!-- Node4 -->
<g id="node4" class="node">
<title>Node4</title>
<g id="a_node4"><a xlink:href="main_8cpp.html" target="_top" xlink:title=" ">
<polygon fill="white" stroke="black" points="175,-0.5 175,-44.5 325,-44.5 325,-0.5 175,-0.5"/>
<text text-anchor="start" x="183" y="-27.7" font-family="Source Sans Pro" font-size="16.00">Illumination&#45;Engine</text>
<text text-anchor="middle" x="250" y="-9.7" font-family="Source Sans Pro" font-size="16.00">/src/main.cpp</text>
</a>
</g>
</g>
<!-- Node3&#45;&gt;Node4 -->
<g id="edge3" class="edge">
<title>Node3&#45;&gt;Node4</title>
<path fill="none" stroke="midnightblue" d="M250,-71.09C250,-61.97 250,-52.64 250,-44.68"/>
<polygon fill="midnightblue" stroke="midnightblue" points="246.5,-71.22 250,-81.22 253.5,-71.22 246.5,-71.22"/>
</g>
<!-- Node6 -->
<g id="node6" class="node">
<title>Node6</title>
<g id="a_node6"><a xlink:href="opengl_renderable_8hpp.html" target="_top" xlink:title=" ">
<polygon fill="white" stroke="black" points="260.5,-180.5 260.5,-242.5 497.5,-242.5 497.5,-180.5 260.5,-180.5"/>
<text text-anchor="start" x="268.5" y="-225.7" font-family="Source Sans Pro" font-size="16.00">Illumination&#45;Engine</text>
<text text-anchor="start" x="268.5" y="-207.7" font-family="Source Sans Pro" font-size="16.00">/src/GraphicsModule</text>
<text text-anchor="middle" x="379" y="-189.7" font-family="Source Sans Pro" font-size="16.00">/OpenGL/openglRenderable.hpp</text>
</a>
</g>
</g>
<!-- Node5&#45;&gt;Node6 -->
<g id="edge5" class="edge">
<title>Node5&#45;&gt;Node6</title>
<path fill="none" stroke="midnightblue" d="M360.12,-269.74C363.1,-260.69 366.23,-251.22 369.06,-242.64"/>
<polygon fill="midnightblue" stroke="midnightblue" points="356.76,-268.75 356.95,-279.34 363.41,-270.94 356.76,-268.75"/>
</g>
<!-- Node6&#45;&gt;Node3 -->
<g id="edge6" class="edge">
<title>Node6&#45;&gt;Node3</title>
<path fill="none" stroke="midnightblue" d="M330.71,-174.19C317.32,-164.12 302.94,-153.31 290.08,-143.64"/>
<polygon fill="midnightblue" stroke="midnightblue" points="328.79,-177.13 338.89,-180.34 333,-171.53 328.79,-177.13"/>
</g>
</g>
</svg>
