<?xml version="1.0" encoding="UTF-8" standalone="no"?>
<!DOCTYPE svg PUBLIC "-//W3C//DTD SVG 1.1//EN"
 "http://www.w3.org/Graphics/SVG/1.1/DTD/svg11.dtd">
<!-- Generated by graphviz version 2.43.0 (0)
 -->
<!-- Title: Illumination&#45;Engine/src/GraphicsModule/OpenGL/openglSettings.hpp Pages: 1 -->
<svg width="543pt" height="467pt"
 viewBox="0.00 0.00 543.13 467.00" xmlns="http://www.w3.org/2000/svg" xmlns:xlink="http://www.w3.org/1999/xlink">
<g id="graph0" class="graph" transform="scale(1 1) rotate(0) translate(4 463)">
<title>Illumination&#45;Engine/src/GraphicsModule/OpenGL/openglSettings.hpp</title>
<polygon fill="white" stroke="transparent" points="-4,4 -4,-463 539.13,-463 539.13,4 -4,4"/>
<!-- Node1 -->
<g id="node1" class="node">
<title>Node1</title>
<g id="a_node1"><a xlink:title=" ">
<polygon fill="#bfbfbf" stroke="black" points="13.63,-396.5 13.63,-458.5 226.63,-458.5 226.63,-396.5 13.63,-396.5"/>
<text text-anchor="start" x="21.63" y="-441.7" font-family="Source Sans Pro" font-size="16.00">Illumination&#45;Engine</text>
<text text-anchor="start" x="21.63" y="-423.7" font-family="Source Sans Pro" font-size="16.00">/src/GraphicsModule</text>
<text text-anchor="middle" x="120.13" y="-405.7" font-family="Source Sans Pro" font-size="16.00">/OpenGL/openglSettings.hpp</text>
</a>
</g>
</g>
<!-- Node2 -->
<g id="node2" class="node">
<title>Node2</title>
<g id="a_node2"><a xlink:href="opengl_camera_8hpp.html" target="_top" xlink:title=" ">
<polygon fill="white" stroke="black" points="25.13,-180.5 25.13,-242.5 237.13,-242.5 237.13,-180.5 25.13,-180.5"/>
<text text-anchor="start" x="33.13" y="-225.7" font-family="Source Sans Pro" font-size="16.00">Illumination&#45;Engine</text>
<text text-anchor="start" x="33.13" y="-207.7" font-family="Source Sans Pro" font-size="16.00">/src/GraphicsModule</text>
<text text-anchor="middle" x="131.13" y="-189.7" font-family="Source Sans Pro" font-size="16.00">/OpenGL/openglCamera.hpp</text>
</a>
</g>
</g>
<!-- Node1&#45;&gt;Node2 -->
<g id="edge1" class="edge">
<title>Node1&#45;&gt;Node2</title>
<path fill="none" stroke="midnightblue" d="M122.2,-386.19C124.35,-344.41 127.66,-280.08 129.58,-242.55"/>
<polygon fill="midnightblue" stroke="midnightblue" points="118.7,-386.13 121.68,-396.29 125.69,-386.49 118.7,-386.13"/>
</g>
<!-- Node3 -->
<g id="node3" class="node">
<title>Node3</title>
<g id="a_node3"><a xlink:href="opengl_render_engine_8hpp.html" target="_top" xlink:title=" ">
<polygon fill="white" stroke="black" points="71.13,-81.5 71.13,-143.5 325.13,-143.5 325.13,-81.5 71.13,-81.5"/>
<text text-anchor="start" x="79.13" y="-126.7" font-family="Source Sans Pro" font-size="16.00">Illumination&#45;Engine</text>
<text text-anchor="start" x="79.13" y="-108.7" font-family="Source Sans Pro" font-size="16.00">/src/GraphicsModule</text>
<text text-anchor="middle" x="198.13" y="-90.7" font-family="Source Sans Pro" font-size="16.00">/OpenGL/openglRenderEngine.hpp</text>
</a>
</g>
</g>
<!-- Node1&#45;&gt;Node3 -->
<g id="edge9" class="edge">
<title>Node1&#45;&gt;Node3</title>
<path fill="none" stroke="midnightblue" d="M82.26,-388.93C35.98,-338.35 -30.71,-246.98 16.13,-180 29.62,-160.7 49.35,-146.99 70.88,-137.24"/>
<polygon fill="midnightblue" stroke="midnightblue" points="79.83,-391.45 89.2,-396.39 84.95,-386.68 79.83,-391.45"/>
</g>
<!-- Node5 -->
<g id="node5" class="node">
<title>Node5</title>
<g id="a_node5"><a xlink:href="opengl_graphics_engine_link_8hpp.html" target="_top" xlink:title=" ">
<polygon fill="white" stroke="black" points="148.13,-279.5 148.13,-359.5 382.13,-359.5 382.13,-279.5 148.13,-279.5"/>
<text text-anchor="start" x="156.13" y="-342.7" font-family="Source Sans Pro" font-size="16.00">Illumination&#45;Engine</text>
<text text-anchor="start" x="156.13" y="-324.7" font-family="Source Sans Pro" font-size="16.00">/src/GraphicsModule</text>
<text text-anchor="start" x="156.13" y="-306.7" font-family="Source Sans Pro" font-size="16.00">/OpenGL/openglGraphicsEngine</text>
<text text-anchor="middle" x="265.13" y="-288.7" font-family="Source Sans Pro" font-size="16.00">Link.hpp</text>
</a>
</g>
</g>
<!-- Node1&#45;&gt;Node5 -->
<g id="edge4" class="edge">
<title>Node1&#45;&gt;Node5</title>
<path fill="none" stroke="midnightblue" d="M169.56,-390.36C183.12,-380.45 197.88,-369.66 211.65,-359.59"/>
<polygon fill="midnightblue" stroke="midnightblue" points="167.3,-387.68 161.29,-396.41 171.43,-393.33 167.3,-387.68"/>
</g>
<!-- Node2&#45;&gt;Node3 -->
<g id="edge2" class="edge">
<title>Node2&#45;&gt;Node3</title>
<path fill="none" stroke="midnightblue" d="M157.79,-171.9C164.29,-162.5 171.14,-152.58 177.31,-143.64"/>
<polygon fill="midnightblue" stroke="midnightblue" points="154.76,-170.12 151.96,-180.34 160.52,-174.1 154.76,-170.12"/>
</g>
<!-- Node4 -->
<g id="node4" class="node">
<title>Node4</title>
<g id="a_node4"><a xlink:href="main_8cpp.html" target="_top" xlink:title=" ">
<polygon fill="white" stroke="black" points="123.13,-0.5 123.13,-44.5 273.13,-44.5 273.13,-0.5 123.13,-0.5"/>
<text text-anchor="start" x="131.13" y="-27.7" font-family="Source Sans Pro" font-size="16.00">Illumination&#45;Engine</text>
<text text-anchor="middle" x="198.13" y="-9.7" font-family="Source Sans Pro" font-size="16.00">/src/main.cpp</text>
</a>
</g>
</g>
<!-- Node3&#45;&gt;Node4 -->
<g id="edge3" class="edge">
<title>Node3&#45;&gt;Node4</title>
<path fill="none" stroke="midnightblue" d="M198.13,-71.09C198.13,-61.97 198.13,-52.64 198.13,-44.68"/>
<polygon fill="midnightblue" stroke="midnightblue" points="194.63,-71.22 198.13,-81.22 201.63,-71.22 194.63,-71.22"/>
</g>
<!-- Node5&#45;&gt;Node2 -->
<g id="edge5" class="edge">
<title>Node5&#45;&gt;Node2</title>
<path fill="none" stroke="midnightblue" d="M207.6,-272.99C194.59,-262.7 181.1,-252.03 169.13,-242.56"/>
<polygon fill="midnightblue" stroke="midnightblue" points="205.6,-275.87 215.61,-279.33 209.94,-270.38 205.6,-275.87"/>
</g>
<!-- Node5&#45;&gt;Node3 -->
<g id="edge8" class="edge">
<title>Node5&#45;&gt;Node3</title>
<path fill="none" stroke="midnightblue" d="M264.17,-269.25C262.23,-242.1 257.45,-208.27 246.13,-180 241,-167.18 232.86,-154.53 224.74,-143.75"/>
<polygon fill="midnightblue" stroke="midnightblue" points="260.69,-269.53 264.79,-279.3 267.67,-269.1 260.69,-269.53"/>
</g>
<!-- Node6 -->
<g id="node6" class="node">
<title>Node6</title>
<g id="a_node6"><a xlink:href="opengl_framebuffer_8hpp.html" target="_top" xlink:title=" ">
<polygon fill="white" stroke="black" points="293.13,-180.5 293.13,-242.5 535.13,-242.5 535.13,-180.5 293.13,-180.5"/>
<text text-anchor="start" x="301.13" y="-225.7" font-family="Source Sans Pro" font-size="16.00">Illumination&#45;Engine</text>
<text text-anchor="start" x="301.13" y="-207.7" font-family="Source Sans Pro" font-size="16.00">/src/GraphicsModule</text>
<text text-anchor="middle" x="414.13" y="-189.7" font-family="Source Sans Pro" font-size="16.00">/OpenGL/openglFramebuffer.hpp</text>
</a>
</g>
</g>
<!-- Node5&#45;&gt;Node6 -->
<g id="edge6" class="edge">
<title>Node5&#45;&gt;Node6</title>
<path fill="none" stroke="midnightblue" d="M328.69,-273.28C343.28,-262.9 358.44,-252.12 371.87,-242.56"/>
<polygon fill="midnightblue" stroke="midnightblue" points="326.31,-270.68 320.19,-279.33 330.37,-276.39 326.31,-270.68"/>
</g>
<!-- Node6&#45;&gt;Node3 -->
<g id="edge7" class="edge">
<title>Node6&#45;&gt;Node3</title>
<path fill="none" stroke="midnightblue" d="M337.93,-176.28C314.16,-165.61 288.13,-153.92 265.05,-143.55"/>
<polygon fill="midnightblue" stroke="midnightblue" points="336.71,-179.57 347.26,-180.47 339.58,-173.18 336.71,-179.57"/>
</g>
</g>
</svg>
