<?xml version="1.0" encoding="UTF-8" standalone="no"?>
<!DOCTYPE svg PUBLIC "-//W3C//DTD SVG 1.1//EN"
 "http://www.w3.org/Graphics/SVG/1.1/DTD/svg11.dtd">
<!-- Generated by graphviz version 2.43.0 (0)
 -->
<!-- Title: Illumination&#45;Engine/src/GraphicsModule/OpenGL/openglGraphicsEngineLink.hpp Pages: 1 -->
<svg width="518pt" height="368pt"
 viewBox="0.00 0.00 518.00 368.00" xmlns="http://www.w3.org/2000/svg" xmlns:xlink="http://www.w3.org/1999/xlink">
<g id="graph0" class="graph" transform="scale(1 1) rotate(0) translate(4 364)">
<title>Illumination&#45;Engine/src/GraphicsModule/OpenGL/openglGraphicsEngineLink.hpp</title>
<polygon fill="white" stroke="transparent" points="-4,4 -4,-364 514,-364 514,4 -4,4"/>
<!-- Node1 -->
<g id="node1" class="node">
<title>Node1</title>
<g id="a_node1"><a xlink:title=" ">
<polygon fill="#bfbfbf" stroke="black" points="123,-279.5 123,-359.5 357,-359.5 357,-279.5 123,-279.5"/>
<text text-anchor="start" x="131" y="-342.7" font-family="Source Sans Pro" font-size="16.00">Illumination&#45;Engine</text>
<text text-anchor="start" x="131" y="-324.7" font-family="Source Sans Pro" font-size="16.00">/src/GraphicsModule</text>
<text text-anchor="start" x="131" y="-306.7" font-family="Source Sans Pro" font-size="16.00">/OpenGL/openglGraphicsEngine</text>
<text text-anchor="middle" x="240" y="-288.7" font-family="Source Sans Pro" font-size="16.00">Link.hpp</text>
</a>
</g>
</g>
<!-- Node2 -->
<g id="node2" class="node">
<title>Node2</title>
<g id="a_node2"><a xlink:href="opengl_camera_8hpp.html" target="_top" xlink:title=" ">
<polygon fill="white" stroke="black" points="0,-180.5 0,-242.5 212,-242.5 212,-180.5 0,-180.5"/>
<text text-anchor="start" x="8" y="-225.7" font-family="Source Sans Pro" font-size="16.00">Illumination&#45;Engine</text>
<text text-anchor="start" x="8" y="-207.7" font-family="Source Sans Pro" font-size="16.00">/src/GraphicsModule</text>
<text text-anchor="middle" x="106" y="-189.7" font-family="Source Sans Pro" font-size="16.00">/OpenGL/openglCamera.hpp</text>
</a>
</g>
</g>
<!-- Node1&#45;&gt;Node2 -->
<g id="edge1" class="edge">
<title>Node1&#45;&gt;Node2</title>
<path fill="none" stroke="midnightblue" d="M182.47,-272.99C169.46,-262.7 155.97,-252.03 144,-242.56"/>
<polygon fill="midnightblue" stroke="midnightblue" points="180.47,-275.87 190.48,-279.33 184.81,-270.38 180.47,-275.87"/>
</g>
<!-- Node3 -->
<g id="node3" class="node">
<title>Node3</title>
<g id="a_node3"><a xlink:href="opengl_render_engine_8hpp.html" target="_top" xlink:title=" ">
<polygon fill="white" stroke="black" points="113,-81.5 113,-143.5 367,-143.5 367,-81.5 113,-81.5"/>
<text text-anchor="start" x="121" y="-126.7" font-family="Source Sans Pro" font-size="16.00">Illumination&#45;Engine</text>
<text text-anchor="start" x="121" y="-108.7" font-family="Source Sans Pro" font-size="16.00">/src/GraphicsModule</text>
<text text-anchor="middle" x="240" y="-90.7" font-family="Source Sans Pro" font-size="16.00">/OpenGL/openglRenderEngine.hpp</text>
</a>
</g>
</g>
<!-- Node1&#45;&gt;Node3 -->
<g id="edge6" class="edge">
<title>Node1&#45;&gt;Node3</title>
<path fill="none" stroke="midnightblue" d="M240,-269.34C240,-230.24 240,-176.78 240,-143.73"/>
<polygon fill="midnightblue" stroke="midnightblue" points="236.5,-269.46 240,-279.46 243.5,-269.46 236.5,-269.46"/>
</g>
<!-- Node5 -->
<g id="node5" class="node">
<title>Node5</title>
<g id="a_node5"><a xlink:href="opengl_framebuffer_8hpp.html" target="_top" xlink:title=" ">
<polygon fill="white" stroke="black" points="268,-180.5 268,-242.5 510,-242.5 510,-180.5 268,-180.5"/>
<text text-anchor="start" x="276" y="-225.7" font-family="Source Sans Pro" font-size="16.00">Illumination&#45;Engine</text>
<text text-anchor="start" x="276" y="-207.7" font-family="Source Sans Pro" font-size="16.00">/src/GraphicsModule</text>
<text text-anchor="middle" x="389" y="-189.7" font-family="Source Sans Pro" font-size="16.00">/OpenGL/openglFramebuffer.hpp</text>
</a>
</g>
</g>
<!-- Node1&#45;&gt;Node5 -->
<g id="edge4" class="edge">
<title>Node1&#45;&gt;Node5</title>
<path fill="none" stroke="midnightblue" d="M303.56,-273.28C318.15,-262.9 333.31,-252.12 346.74,-242.56"/>
<polygon fill="midnightblue" stroke="midnightblue" points="301.18,-270.68 295.06,-279.33 305.24,-276.39 301.18,-270.68"/>
</g>
<!-- Node2&#45;&gt;Node3 -->
<g id="edge2" class="edge">
<title>Node2&#45;&gt;Node3</title>
<path fill="none" stroke="midnightblue" d="M155.77,-174.47C169.78,-164.33 184.88,-153.4 198.36,-143.64"/>
<polygon fill="midnightblue" stroke="midnightblue" points="153.71,-171.64 147.66,-180.34 157.82,-177.31 153.71,-171.64"/>
</g>
<!-- Node4 -->
<g id="node4" class="node">
<title>Node4</title>
<g id="a_node4"><a xlink:href="main_8cpp.html" target="_top" xlink:title=" ">
<polygon fill="white" stroke="black" points="165,-0.5 165,-44.5 315,-44.5 315,-0.5 165,-0.5"/>
<text text-anchor="start" x="173" y="-27.7" font-family="Source Sans Pro" font-size="16.00">Illumination&#45;Engine</text>
<text text-anchor="middle" x="240" y="-9.7" font-family="Source Sans Pro" font-size="16.00">/src/main.cpp</text>
</a>
</g>
</g>
<!-- Node3&#45;&gt;Node4 -->
<g id="edge3" class="edge">
<title>Node3&#45;&gt;Node4</title>
<path fill="none" stroke="midnightblue" d="M240,-71.09C240,-61.97 240,-52.64 240,-44.68"/>
<polygon fill="midnightblue" stroke="midnightblue" points="236.5,-71.22 240,-81.22 243.5,-71.22 236.5,-71.22"/>
</g>
<!-- Node5&#45;&gt;Node3 -->
<g id="edge5" class="edge">
<title>Node5&#45;&gt;Node3</title>
<path fill="none" stroke="midnightblue" d="M334.1,-174.76C318.39,-164.53 301.43,-153.49 286.3,-143.64"/>
<polygon fill="midnightblue" stroke="midnightblue" points="332.38,-177.82 342.67,-180.34 336.2,-171.95 332.38,-177.82"/>
</g>
</g>
</svg>
