<?xml version="1.0" encoding="UTF-8" standalone="no"?>
<!DOCTYPE svg PUBLIC "-//W3C//DTD SVG 1.1//EN"
 "http://www.w3.org/Graphics/SVG/1.1/DTD/svg11.dtd">
<!-- Generated by graphviz version 2.43.0 (0)
 -->
<!-- Title: Illumination&#45;Engine/src/GraphicsModule/OpenGL/openglTexture.hpp Pages: 1 -->
<svg width="217pt" height="197pt"
 viewBox="0.00 0.00 217.00 197.00" xmlns="http://www.w3.org/2000/svg" xmlns:xlink="http://www.w3.org/1999/xlink">
<g id="graph0" class="graph" transform="scale(1 1) rotate(0) translate(4 193)">
<title>Illumination&#45;Engine/src/GraphicsModule/OpenGL/openglTexture.hpp</title>
<polygon fill="white" stroke="transparent" points="-4,4 -4,-193 213,-193 213,4 -4,4"/>
<!-- Node1 -->
<g id="node1" class="node">
<title>Node1</title>
<g id="a_node1"><a xlink:title=" ">
<polygon fill="#bfbfbf" stroke="black" points="0,-126.5 0,-188.5 209,-188.5 209,-126.5 0,-126.5"/>
<text text-anchor="start" x="8" y="-171.7" font-family="Source Sans Pro" font-size="16.00">Illumination&#45;Engine</text>
<text text-anchor="start" x="8" y="-153.7" font-family="Source Sans Pro" font-size="16.00">/src/GraphicsModule</text>
<text text-anchor="middle" x="104.5" y="-135.7" font-family="Source Sans Pro" font-size="16.00">/OpenGL/openglTexture.hpp</text>
</a>
</g>
</g>
<!-- Node2 -->
<g id="node2" class="node">
<title>Node2</title>
<g id="a_node2"><a xlink:href="opengl_image_8hpp.html" target="_top" xlink:title=" ">
<polygon fill="white" stroke="black" points="36,-63.5 36,-89.5 173,-89.5 173,-63.5 36,-63.5"/>
<text text-anchor="middle" x="104.5" y="-72.7" font-family="Source Sans Pro" font-size="16.00">openglImage.hpp</text>
</a>
</g>
</g>
<!-- Node1&#45;&gt;Node2 -->
<g id="edge1" class="edge">
<title>Node1&#45;&gt;Node2</title>
<path fill="none" stroke="midnightblue" d="M104.5,-126.18C104.5,-117.45 104.5,-108.08 104.5,-99.91"/>
<polygon fill="midnightblue" stroke="midnightblue" points="108,-99.7 104.5,-89.7 101,-99.7 108,-99.7"/>
</g>
<!-- Node3 -->
<g id="node3" class="node">
<title>Node3</title>
<g id="a_node3"><a xlink:title=" ">
<polygon fill="white" stroke="#bfbfbf" points="54.5,-0.5 54.5,-26.5 154.5,-26.5 154.5,-0.5 54.5,-0.5"/>
<text text-anchor="middle" x="104.5" y="-9.7" font-family="Source Sans Pro" font-size="16.00">stb_image.h</text>
</a>
</g>
</g>
<!-- Node2&#45;&gt;Node3 -->
<g id="edge2" class="edge">
<title>Node2&#45;&gt;Node3</title>
<path fill="none" stroke="midnightblue" d="M104.5,-63.45C104.5,-55.85 104.5,-45.79 104.5,-36.78"/>
<polygon fill="midnightblue" stroke="midnightblue" points="108,-36.53 104.5,-26.53 101,-36.53 108,-36.53"/>
</g>
</g>
</svg>
