<?xml version="1.0" encoding="UTF-8" standalone="no"?>
<!DOCTYPE svg PUBLIC "-//W3C//DTD SVG 1.1//EN"
 "http://www.w3.org/Graphics/SVG/1.1/DTD/svg11.dtd">
<!-- Generated by graphviz version 2.43.0 (0)
 -->
<!-- Title: Illumination&#45;Engine/src/GraphicsModule/OpenGL/openglCamera.hpp Pages: 1 -->
<svg width="954pt" height="260pt"
 viewBox="0.00 0.00 953.50 260.00" xmlns="http://www.w3.org/2000/svg" xmlns:xlink="http://www.w3.org/1999/xlink">
<g id="graph0" class="graph" transform="scale(1 1) rotate(0) translate(4 256)">
<title>Illumination&#45;Engine/src/GraphicsModule/OpenGL/openglCamera.hpp</title>
<polygon fill="white" stroke="transparent" points="-4,4 -4,-256 949.5,-256 949.5,4 -4,4"/>
<!-- Node1 -->
<g id="node1" class="node">
<title>Node1</title>
<g id="a_node1"><a xlink:title=" ">
<polygon fill="#bfbfbf" stroke="black" points="467.5,-189.5 467.5,-251.5 679.5,-251.5 679.5,-189.5 467.5,-189.5"/>
<text text-anchor="start" x="475.5" y="-234.7" font-family="Source Sans Pro" font-size="16.00">Illumination&#45;Engine</text>
<text text-anchor="start" x="475.5" y="-216.7" font-family="Source Sans Pro" font-size="16.00">/src/GraphicsModule</text>
<text text-anchor="middle" x="573.5" y="-198.7" font-family="Source Sans Pro" font-size="16.00">/OpenGL/openglCamera.hpp</text>
</a>
</g>
</g>
<!-- Node2 -->
<g id="node2" class="node">
<title>Node2</title>
<g id="a_node2"><a xlink:href="opengl_settings_8hpp.html" target="_top" xlink:title=" ">
<polygon fill="white" stroke="black" points="261,-63.5 261,-89.5 410,-89.5 410,-63.5 261,-63.5"/>
<text text-anchor="middle" x="335.5" y="-72.7" font-family="Source Sans Pro" font-size="16.00">openglSettings.hpp</text>
</a>
</g>
</g>
<!-- Node1&#45;&gt;Node2 -->
<g id="edge1" class="edge">
<title>Node1&#45;&gt;Node2</title>
<path fill="none" stroke="midnightblue" d="M467.48,-206.52C401.97,-196.08 326.69,-178.83 306.5,-153 293.62,-136.51 305.56,-113.64 317.79,-97.4"/>
<polygon fill="midnightblue" stroke="midnightblue" points="320.54,-99.56 324.08,-89.58 315.09,-95.17 320.54,-99.56"/>
</g>
<!-- Node6 -->
<g id="node6" class="node">
<title>Node6</title>
<g id="a_node6"><a xlink:title=" ">
<polygon fill="white" stroke="#bfbfbf" points="548,-0.5 548,-26.5 599,-26.5 599,-0.5 548,-0.5"/>
<text text-anchor="middle" x="573.5" y="-9.7" font-family="Source Sans Pro" font-size="16.00">array</text>
</a>
</g>
</g>
<!-- Node1&#45;&gt;Node6 -->
<g id="edge13" class="edge">
<title>Node1&#45;&gt;Node6</title>
<path fill="none" stroke="midnightblue" d="M573.5,-189.25C573.5,-147.67 573.5,-73.8 573.5,-36.85"/>
<polygon fill="midnightblue" stroke="midnightblue" points="577,-36.64 573.5,-26.64 570,-36.64 577,-36.64"/>
</g>
<!-- Node10 -->
<g id="node10" class="node">
<title>Node10</title>
<g id="a_node10"><a xlink:href="opengl_graphics_engine_link_8hpp.html" target="_top" xlink:title=" ">
<polygon fill="white" stroke="black" points="316,-126.5 316,-152.5 545,-152.5 545,-126.5 316,-126.5"/>
<text text-anchor="middle" x="430.5" y="-135.7" font-family="Source Sans Pro" font-size="16.00">openglGraphicsEngineLink.hpp</text>
</a>
</g>
</g>
<!-- Node1&#45;&gt;Node10 -->
<g id="edge9" class="edge">
<title>Node1&#45;&gt;Node10</title>
<path fill="none" stroke="midnightblue" d="M519.03,-189.41C499.45,-178.59 478.06,-166.78 461.21,-157.47"/>
<polygon fill="midnightblue" stroke="midnightblue" points="462.81,-154.35 452.36,-152.58 459.42,-160.48 462.81,-154.35"/>
</g>
<!-- Node11 -->
<g id="node11" class="node">
<title>Node11</title>
<g id="a_node11"><a xlink:title=" ">
<polygon fill="white" stroke="#bfbfbf" points="601.5,-126.5 601.5,-152.5 705.5,-152.5 705.5,-126.5 601.5,-126.5"/>
<text text-anchor="middle" x="653.5" y="-135.7" font-family="Source Sans Pro" font-size="16.00">glm/glm.hpp</text>
</a>
</g>
</g>
<!-- Node1&#45;&gt;Node11 -->
<g id="edge11" class="edge">
<title>Node1&#45;&gt;Node11</title>
<path fill="none" stroke="midnightblue" d="M604.2,-189.18C614.15,-179.36 624.92,-168.73 633.84,-159.91"/>
<polygon fill="midnightblue" stroke="midnightblue" points="636.49,-162.22 641.14,-152.7 631.57,-157.24 636.49,-162.22"/>
</g>
<!-- Node12 -->
<g id="node12" class="node">
<title>Node12</title>
<g id="a_node12"><a xlink:title=" ">
<polygon fill="white" stroke="#bfbfbf" points="723.5,-126.5 723.5,-152.5 945.5,-152.5 945.5,-126.5 723.5,-126.5"/>
<text text-anchor="middle" x="834.5" y="-135.7" font-family="Source Sans Pro" font-size="16.00">glm/gtc/matrix_transform.hpp</text>
</a>
</g>
</g>
<!-- Node1&#45;&gt;Node12 -->
<g id="edge12" class="edge">
<title>Node1&#45;&gt;Node12</title>
<path fill="none" stroke="midnightblue" d="M672.92,-189.41C711.13,-177.84 753.13,-165.13 784.72,-155.57"/>
<polygon fill="midnightblue" stroke="midnightblue" points="786.04,-158.82 794.6,-152.58 784.01,-152.12 786.04,-158.82"/>
</g>
<!-- Node3 -->
<g id="node3" class="node">
<title>Node3</title>
<g id="a_node3"><a xlink:title=" ">
<polygon fill="white" stroke="#bfbfbf" points="0,-0.5 0,-26.5 83,-26.5 83,-0.5 0,-0.5"/>
<text text-anchor="middle" x="41.5" y="-9.7" font-family="Source Sans Pro" font-size="16.00">GL/glew.h</text>
</a>
</g>
</g>
<!-- Node2&#45;&gt;Node3 -->
<g id="edge2" class="edge">
<title>Node2&#45;&gt;Node3</title>
<path fill="none" stroke="midnightblue" d="M271.39,-63.49C224.6,-54.54 159.43,-41.71 93.02,-27.06"/>
<polygon fill="midnightblue" stroke="midnightblue" points="93.73,-23.63 83.21,-24.88 92.22,-30.46 93.73,-23.63"/>
</g>
<!-- Node4 -->
<g id="node4" class="node">
<title>Node4</title>
<g id="a_node4"><a xlink:title=" ">
<polygon fill="white" stroke="#bfbfbf" points="101.5,-0.5 101.5,-26.5 209.5,-26.5 209.5,-0.5 101.5,-0.5"/>
<text text-anchor="middle" x="155.5" y="-9.7" font-family="Source Sans Pro" font-size="16.00">GLFW/glfw3.h</text>
</a>
</g>
</g>
<!-- Node2&#45;&gt;Node4 -->
<g id="edge3" class="edge">
<title>Node2&#45;&gt;Node4</title>
<path fill="none" stroke="midnightblue" d="M299.94,-63.45C271.46,-53.8 231.34,-40.2 200.61,-29.79"/>
<polygon fill="midnightblue" stroke="midnightblue" points="201.58,-26.42 190.99,-26.53 199.34,-33.05 201.58,-26.42"/>
</g>
<!-- Node5 -->
<g id="node5" class="node">
<title>Node5</title>
<g id="a_node5"><a xlink:title=" ">
<polygon fill="white" stroke="#bfbfbf" points="228,-0.5 228,-26.5 287,-26.5 287,-0.5 228,-0.5"/>
<text text-anchor="middle" x="257.5" y="-9.7" font-family="Source Sans Pro" font-size="16.00">vector</text>
</a>
</g>
</g>
<!-- Node2&#45;&gt;Node5 -->
<g id="edge4" class="edge">
<title>Node2&#45;&gt;Node5</title>
<path fill="none" stroke="midnightblue" d="M320.09,-63.45C308.87,-54.68 293.48,-42.64 280.77,-32.7"/>
<polygon fill="midnightblue" stroke="midnightblue" points="282.91,-29.93 272.88,-26.53 278.6,-35.44 282.91,-29.93"/>
</g>
<!-- Node2&#45;&gt;Node6 -->
<g id="edge5" class="edge">
<title>Node2&#45;&gt;Node6</title>
<path fill="none" stroke="midnightblue" d="M394.47,-63.43C433.15,-55.06 484.96,-43.02 538.36,-27.15"/>
<polygon fill="midnightblue" stroke="midnightblue" points="539.42,-30.48 547.99,-24.25 537.41,-23.78 539.42,-30.48"/>
</g>
<!-- Node7 -->
<g id="node7" class="node">
<title>Node7</title>
<g id="a_node7"><a xlink:title=" ">
<polygon fill="white" stroke="#bfbfbf" points="305,-0.5 305,-26.5 366,-26.5 366,-0.5 305,-0.5"/>
<text text-anchor="middle" x="335.5" y="-9.7" font-family="Source Sans Pro" font-size="16.00">climits</text>
</a>
</g>
</g>
<!-- Node2&#45;&gt;Node7 -->
<g id="edge6" class="edge">
<title>Node2&#45;&gt;Node7</title>
<path fill="none" stroke="midnightblue" d="M335.5,-63.45C335.5,-55.85 335.5,-45.79 335.5,-36.78"/>
<polygon fill="midnightblue" stroke="midnightblue" points="339,-36.53 335.5,-26.53 332,-36.53 339,-36.53"/>
</g>
<!-- Node8 -->
<g id="node8" class="node">
<title>Node8</title>
<g id="a_node8"><a xlink:title=" ">
<polygon fill="white" stroke="#bfbfbf" points="384.5,-0.5 384.5,-26.5 456.5,-26.5 456.5,-0.5 384.5,-0.5"/>
<text text-anchor="middle" x="420.5" y="-9.7" font-family="Source Sans Pro" font-size="16.00">unistd.h</text>
</a>
</g>
</g>
<!-- Node2&#45;&gt;Node8 -->
<g id="edge7" class="edge">
<title>Node2&#45;&gt;Node8</title>
<path fill="none" stroke="midnightblue" d="M352.29,-63.45C364.63,-54.59 381.61,-42.41 395.53,-32.42"/>
<polygon fill="midnightblue" stroke="midnightblue" points="397.66,-35.2 403.74,-26.53 393.58,-29.51 397.66,-35.2"/>
</g>
<!-- Node9 -->
<g id="node9" class="node">
<title>Node9</title>
<g id="a_node9"><a xlink:title=" ">
<polygon fill="white" stroke="#bfbfbf" points="475,-0.5 475,-26.5 530,-26.5 530,-0.5 475,-0.5"/>
<text text-anchor="middle" x="502.5" y="-9.7" font-family="Source Sans Pro" font-size="16.00">string</text>
</a>
</g>
</g>
<!-- Node2&#45;&gt;Node9 -->
<g id="edge8" class="edge">
<title>Node2&#45;&gt;Node9</title>
<path fill="none" stroke="midnightblue" d="M368.49,-63.45C396.3,-53.29 436.07,-38.76 465.06,-28.17"/>
<polygon fill="midnightblue" stroke="midnightblue" points="466.64,-31.33 474.83,-24.61 464.24,-24.75 466.64,-31.33"/>
</g>
<!-- Node10&#45;&gt;Node2 -->
<g id="edge10" class="edge">
<title>Node10&#45;&gt;Node2</title>
<path fill="none" stroke="midnightblue" d="M411.73,-126.45C397.81,-117.51 378.61,-105.18 362.97,-95.14"/>
<polygon fill="midnightblue" stroke="midnightblue" points="364.54,-91.98 354.23,-89.53 360.75,-97.87 364.54,-91.98"/>
</g>
</g>
</svg>
