<?xml version="1.0" encoding="UTF-8" standalone="no"?>
<!DOCTYPE svg PUBLIC "-//W3C//DTD SVG 1.1//EN"
 "http://www.w3.org/Graphics/SVG/1.1/DTD/svg11.dtd">
<!-- Generated by graphviz version 2.43.0 (0)
 -->
<!-- Title: Illumination&#45;Engine/src/GraphicsModule/OpenGL/openglRenderEngine.hpp Pages: 1 -->
<svg width="2961pt" height="341pt"
 viewBox="0.00 0.00 2961.24 341.00" xmlns="http://www.w3.org/2000/svg" xmlns:xlink="http://www.w3.org/1999/xlink">
<g id="graph0" class="graph" transform="scale(1 1) rotate(0) translate(4 337)">
<title>Illumination&#45;Engine/src/GraphicsModule/OpenGL/openglRenderEngine.hpp</title>
<polygon fill="white" stroke="transparent" points="-4,4 -4,-337 2957.24,-337 2957.24,4 -4,4"/>
<!-- Node1 -->
<g id="node1" class="node">
<title>Node1</title>
<g id="a_node1"><a xlink:title=" ">
<polygon fill="#bfbfbf" stroke="black" points="944.74,-270.5 944.74,-332.5 1198.74,-332.5 1198.74,-270.5 944.74,-270.5"/>
<text text-anchor="start" x="952.74" y="-315.7" font-family="Source Sans Pro" font-size="16.00">Illumination&#45;Engine</text>
<text text-anchor="start" x="952.74" y="-297.7" font-family="Source Sans Pro" font-size="16.00">/src/GraphicsModule</text>
<text text-anchor="middle" x="1071.74" y="-279.7" font-family="Source Sans Pro" font-size="16.00">/OpenGL/openglRenderEngine.hpp</text>
</a>
</g>
</g>
<!-- Node2 -->
<g id="node2" class="node">
<title>Node2</title>
<g id="a_node2"><a xlink:href="opengl_settings_8hpp.html" target="_top" xlink:title=" ">
<polygon fill="white" stroke="black" points="470.24,-63.5 470.24,-89.5 619.24,-89.5 619.24,-63.5 470.24,-63.5"/>
<text text-anchor="middle" x="544.74" y="-72.7" font-family="Source Sans Pro" font-size="16.00">openglSettings.hpp</text>
</a>
</g>
</g>
<!-- Node1&#45;&gt;Node2 -->
<g id="edge1" class="edge">
<title>Node1&#45;&gt;Node2</title>
<path fill="none" stroke="midnightblue" d="M944.58,-292.93C842.83,-284.48 710.51,-267.35 668.74,-234 628.23,-201.66 658.38,-165.43 624.74,-126 613.39,-112.7 597.44,-102.01 582.76,-94.08"/>
<polygon fill="midnightblue" stroke="midnightblue" points="584.34,-90.96 573.84,-89.51 581.14,-97.19 584.34,-90.96"/>
</g>
<!-- Node4 -->
<g id="node4" class="node">
<title>Node4</title>
<g id="a_node4"><a xlink:title=" ">
<polygon fill="white" stroke="#bfbfbf" points="21.74,-0.5 21.74,-26.5 129.74,-26.5 129.74,-0.5 21.74,-0.5"/>
<text text-anchor="middle" x="75.74" y="-9.7" font-family="Source Sans Pro" font-size="16.00">GLFW/glfw3.h</text>
</a>
</g>
</g>
<!-- Node1&#45;&gt;Node4 -->
<g id="edge49" class="edge">
<title>Node1&#45;&gt;Node4</title>
<path fill="none" stroke="midnightblue" d="M944.5,-299.89C717.94,-297.47 254.07,-286.08 101.74,-234 54.15,-217.73 31.42,-215.37 7.74,-171 -17.74,-123.26 27.77,-63.96 55.93,-33.91"/>
<polygon fill="midnightblue" stroke="midnightblue" points="58.57,-36.21 63,-26.59 53.54,-31.35 58.57,-36.21"/>
</g>
<!-- Node5 -->
<g id="node5" class="node">
<title>Node5</title>
<g id="a_node5"><a xlink:title=" ">
<polygon fill="white" stroke="#bfbfbf" points="1084.24,-0.5 1084.24,-26.5 1143.24,-26.5 1143.24,-0.5 1084.24,-0.5"/>
<text text-anchor="middle" x="1113.74" y="-9.7" font-family="Source Sans Pro" font-size="16.00">vector</text>
</a>
</g>
</g>
<!-- Node1&#45;&gt;Node5 -->
<g id="edge53" class="edge">
<title>Node1&#45;&gt;Node5</title>
<path fill="none" stroke="midnightblue" d="M1198.95,-296.05C1490.99,-284.51 2189.8,-248.97 2259.74,-171 2273.09,-156.11 2273.18,-140.81 2259.74,-126 2183.77,-42.28 1347.16,-19.45 1153.56,-15.28"/>
<polygon fill="midnightblue" stroke="midnightblue" points="1153.35,-11.77 1143.28,-15.06 1153.21,-18.77 1153.35,-11.77"/>
</g>
<!-- Node6 -->
<g id="node6" class="node">
<title>Node6</title>
<g id="a_node6"><a xlink:title=" ">
<polygon fill="white" stroke="#bfbfbf" points="257.24,-0.5 257.24,-26.5 308.24,-26.5 308.24,-0.5 257.24,-0.5"/>
<text text-anchor="middle" x="282.74" y="-9.7" font-family="Source Sans Pro" font-size="16.00">array</text>
</a>
</g>
</g>
<!-- Node1&#45;&gt;Node6 -->
<g id="edge50" class="edge">
<title>Node1&#45;&gt;Node6</title>
<path fill="none" stroke="midnightblue" d="M944.49,-294.73C677.54,-281.24 78.99,-243.17 23.74,-171 -41.4,-85.9 161.72,-37.05 246.95,-20.72"/>
<polygon fill="midnightblue" stroke="midnightblue" points="247.78,-24.12 256.97,-18.84 246.5,-17.24 247.78,-24.12"/>
</g>
<!-- Node9 -->
<g id="node9" class="node">
<title>Node9</title>
<g id="a_node9"><a xlink:title=" ">
<polygon fill="white" stroke="#bfbfbf" points="655.24,-0.5 655.24,-26.5 710.24,-26.5 710.24,-0.5 655.24,-0.5"/>
<text text-anchor="middle" x="682.74" y="-9.7" font-family="Source Sans Pro" font-size="16.00">string</text>
</a>
</g>
</g>
<!-- Node1&#45;&gt;Node9 -->
<g id="edge51" class="edge">
<title>Node1&#45;&gt;Node9</title>
<path fill="none" stroke="midnightblue" d="M944.55,-289.74C862.41,-275.74 760.29,-243.78 701.74,-171 670.6,-132.3 674.07,-69.82 678.72,-36.72"/>
<polygon fill="midnightblue" stroke="midnightblue" points="682.2,-37.12 680.29,-26.7 675.28,-36.04 682.2,-37.12"/>
</g>
<!-- Node10 -->
<g id="node10" class="node">
<title>Node10</title>
<g id="a_node10"><a xlink:href="opengl_camera_8hpp.html" target="_top" xlink:title=" ">
<polygon fill="white" stroke="black" points="266.24,-207.5 266.24,-233.5 413.24,-233.5 413.24,-207.5 266.24,-207.5"/>
<text text-anchor="middle" x="339.74" y="-216.7" font-family="Source Sans Pro" font-size="16.00">openglCamera.hpp</text>
</a>
</g>
</g>
<!-- Node1&#45;&gt;Node10 -->
<g id="edge9" class="edge">
<title>Node1&#45;&gt;Node10</title>
<path fill="none" stroke="midnightblue" d="M944.65,-286.78C795.17,-270.65 551.27,-244.33 423.63,-230.55"/>
<polygon fill="midnightblue" stroke="midnightblue" points="423.83,-227.06 413.52,-229.46 423.08,-234.02 423.83,-227.06"/>
</g>
<!-- Node11 -->
<g id="node11" class="node">
<title>Node11</title>
<g id="a_node11"><a xlink:href="opengl_graphics_engine_link_8hpp.html" target="_top" xlink:title=" ">
<polygon fill="white" stroke="black" points="387.24,-135.5 387.24,-161.5 616.24,-161.5 616.24,-135.5 387.24,-135.5"/>
<text text-anchor="middle" x="501.74" y="-144.7" font-family="Source Sans Pro" font-size="16.00">openglGraphicsEngineLink.hpp</text>
</a>
</g>
</g>
<!-- Node1&#45;&gt;Node11 -->
<g id="edge47" class="edge">
<title>Node1&#45;&gt;Node11</title>
<path fill="none" stroke="midnightblue" d="M944.53,-295.73C854.4,-288.93 732.01,-272.67 630.74,-234 589.57,-218.28 548.02,-187.84 523.59,-168.11"/>
<polygon fill="midnightblue" stroke="midnightblue" points="525.64,-165.27 515.69,-161.62 521.19,-170.68 525.64,-165.27"/>
</g>
<!-- Node14 -->
<g id="node14" class="node">
<title>Node14</title>
<g id="a_node14"><a xlink:href="opengl_renderable_8hpp.html" target="_top" xlink:title=" ">
<polygon fill="white" stroke="black" points="1296.24,-207.5 1296.24,-233.5 1469.24,-233.5 1469.24,-207.5 1296.24,-207.5"/>
<text text-anchor="middle" x="1382.74" y="-216.7" font-family="Source Sans Pro" font-size="16.00">openglRenderable.hpp</text>
</a>
</g>
</g>
<!-- Node1&#45;&gt;Node14 -->
<g id="edge16" class="edge">
<title>Node1&#45;&gt;Node14</title>
<path fill="none" stroke="midnightblue" d="M1190.2,-270.41C1236.53,-258.64 1287.51,-245.69 1325.37,-236.07"/>
<polygon fill="midnightblue" stroke="midnightblue" points="1326.37,-239.43 1335.2,-233.58 1324.64,-232.65 1326.37,-239.43"/>
</g>
<!-- Node17 -->
<g id="node17" class="node">
<title>Node17</title>
<g id="a_node17"><a xlink:title=" ">
<polygon fill="white" stroke="#bfbfbf" points="2674.74,-0.5 2674.74,-26.5 2742.74,-26.5 2742.74,-0.5 2674.74,-0.5"/>
<text text-anchor="middle" x="2708.74" y="-9.7" font-family="Source Sans Pro" font-size="16.00">fstream</text>
</a>
</g>
</g>
<!-- Node1&#45;&gt;Node17 -->
<g id="edge52" class="edge">
<title>Node1&#45;&gt;Node17</title>
<path fill="none" stroke="midnightblue" d="M1199.04,-298.14C1551.49,-291.17 2518,-268.95 2576.74,-234 2652.27,-189.06 2689.86,-82.67 2703.07,-36.5"/>
<polygon fill="midnightblue" stroke="midnightblue" points="2706.51,-37.2 2705.78,-26.63 2699.76,-35.34 2706.51,-37.2"/>
</g>
<!-- Node34 -->
<g id="node34" class="node">
<title>Node34</title>
<g id="a_node34"><a xlink:href="opengl_framebuffer_8hpp.html" target="_top" xlink:title=" ">
<polygon fill="white" stroke="black" points="2390.24,-207.5 2390.24,-233.5 2567.24,-233.5 2567.24,-207.5 2390.24,-207.5"/>
<text text-anchor="middle" x="2478.74" y="-216.7" font-family="Source Sans Pro" font-size="16.00">openglFramebuffer.hpp</text>
</a>
</g>
</g>
<!-- Node1&#45;&gt;Node34 -->
<g id="edge42" class="edge">
<title>Node1&#45;&gt;Node34</title>
<path fill="none" stroke="midnightblue" d="M1198.77,-294.11C1420.73,-282.84 1893.57,-258.28 2292.74,-234 2320.94,-232.28 2351.53,-230.29 2379.6,-228.4"/>
<polygon fill="midnightblue" stroke="midnightblue" points="2380.08,-231.87 2389.82,-227.71 2379.61,-224.89 2380.08,-231.87"/>
</g>
<!-- Node35 -->
<g id="node35" class="node">
<title>Node35</title>
<g id="a_node35"><a xlink:href="_i_e_window_user_pointer_8hpp.html" target="_top" xlink:title=" ">
<polygon fill="white" stroke="black" points="2679.74,-207.5 2679.74,-233.5 2873.74,-233.5 2873.74,-207.5 2679.74,-207.5"/>
<text text-anchor="middle" x="2776.74" y="-216.7" font-family="Source Sans Pro" font-size="16.00">IEWindowUserPointer.hpp</text>
</a>
</g>
</g>
<!-- Node1&#45;&gt;Node35 -->
<g id="edge48" class="edge">
<title>Node1&#45;&gt;Node35</title>
<path fill="none" stroke="midnightblue" d="M1198.99,-298.23C1469.39,-292.75 2121.02,-275.98 2665.74,-234 2667.02,-233.9 2668.3,-233.8 2669.6,-233.7"/>
<polygon fill="midnightblue" stroke="midnightblue" points="2669.95,-237.18 2679.62,-232.84 2669.36,-230.2 2669.95,-237.18"/>
</g>
<!-- Node36 -->
<g id="node36" class="node">
<title>Node36</title>
<g id="a_node36"><a xlink:title=" ">
<polygon fill="white" stroke="#bfbfbf" points="2892.24,-207.5 2892.24,-233.5 2953.24,-233.5 2953.24,-207.5 2892.24,-207.5"/>
<text text-anchor="middle" x="2922.74" y="-216.7" font-family="Source Sans Pro" font-size="16.00">thread</text>
</a>
</g>
</g>
<!-- Node1&#45;&gt;Node36 -->
<g id="edge54" class="edge">
<title>Node1&#45;&gt;Node36</title>
<path fill="none" stroke="midnightblue" d="M1199.05,-300.22C1552.01,-298.75 2538.97,-289.77 2881.97,-233.69"/>
<polygon fill="midnightblue" stroke="midnightblue" points="2882.65,-237.13 2891.93,-232.02 2881.49,-230.22 2882.65,-237.13"/>
</g>
<!-- Node3 -->
<g id="node3" class="node">
<title>Node3</title>
<g id="a_node3"><a xlink:title=" ">
<polygon fill="white" stroke="#bfbfbf" points="1626.24,-0.5 1626.24,-26.5 1709.24,-26.5 1709.24,-0.5 1626.24,-0.5"/>
<text text-anchor="middle" x="1667.74" y="-9.7" font-family="Source Sans Pro" font-size="16.00">GL/glew.h</text>
</a>
</g>
</g>
<!-- Node2&#45;&gt;Node3 -->
<g id="edge2" class="edge">
<title>Node2&#45;&gt;Node3</title>
<path fill="none" stroke="midnightblue" d="M619.27,-70.52C655.6,-68.14 699.95,-65.32 739.74,-63 1073.63,-43.57 1475.32,-23.8 1616.04,-16.99"/>
<polygon fill="midnightblue" stroke="midnightblue" points="1616.29,-20.48 1626.11,-16.5 1615.95,-13.49 1616.29,-20.48"/>
</g>
<!-- Node2&#45;&gt;Node4 -->
<g id="edge3" class="edge">
<title>Node2&#45;&gt;Node4</title>
<path fill="none" stroke="midnightblue" d="M470.17,-65.8C379.02,-53.95 226.3,-34.08 140.08,-22.87"/>
<polygon fill="midnightblue" stroke="midnightblue" points="140.27,-19.36 129.9,-21.54 139.37,-26.31 140.27,-19.36"/>
</g>
<!-- Node2&#45;&gt;Node5 -->
<g id="edge4" class="edge">
<title>Node2&#45;&gt;Node5</title>
<path fill="none" stroke="midnightblue" d="M619.42,-67.49C741.62,-54.39 980.12,-28.83 1074.21,-18.74"/>
<polygon fill="midnightblue" stroke="midnightblue" points="1074.6,-22.22 1084.17,-17.67 1073.85,-15.26 1074.6,-22.22"/>
</g>
<!-- Node2&#45;&gt;Node6 -->
<g id="edge5" class="edge">
<title>Node2&#45;&gt;Node6</title>
<path fill="none" stroke="midnightblue" d="M492.98,-63.45C441.37,-51.43 363.49,-33.3 318.42,-22.81"/>
<polygon fill="midnightblue" stroke="midnightblue" points="319.05,-19.36 308.51,-20.5 317.46,-26.18 319.05,-19.36"/>
</g>
<!-- Node7 -->
<g id="node7" class="node">
<title>Node7</title>
<g id="a_node7"><a xlink:title=" ">
<polygon fill="white" stroke="#bfbfbf" points="563.24,-0.5 563.24,-26.5 624.24,-26.5 624.24,-0.5 563.24,-0.5"/>
<text text-anchor="middle" x="593.74" y="-9.7" font-family="Source Sans Pro" font-size="16.00">climits</text>
</a>
</g>
</g>
<!-- Node2&#45;&gt;Node7 -->
<g id="edge6" class="edge">
<title>Node2&#45;&gt;Node7</title>
<path fill="none" stroke="midnightblue" d="M554.42,-63.45C561.06,-55.18 570.04,-44.01 577.73,-34.42"/>
<polygon fill="midnightblue" stroke="midnightblue" points="580.55,-36.51 584.08,-26.53 575.09,-32.13 580.55,-36.51"/>
</g>
<!-- Node8 -->
<g id="node8" class="node">
<title>Node8</title>
<g id="a_node8"><a xlink:title=" ">
<polygon fill="white" stroke="#bfbfbf" points="472.74,-0.5 472.74,-26.5 544.74,-26.5 544.74,-0.5 472.74,-0.5"/>
<text text-anchor="middle" x="508.74" y="-9.7" font-family="Source Sans Pro" font-size="16.00">unistd.h</text>
</a>
</g>
</g>
<!-- Node2&#45;&gt;Node8 -->
<g id="edge7" class="edge">
<title>Node2&#45;&gt;Node8</title>
<path fill="none" stroke="midnightblue" d="M537.63,-63.45C532.89,-55.43 526.55,-44.68 521.02,-35.3"/>
<polygon fill="midnightblue" stroke="midnightblue" points="523.93,-33.36 515.84,-26.53 517.91,-36.92 523.93,-33.36"/>
</g>
<!-- Node2&#45;&gt;Node9 -->
<g id="edge8" class="edge">
<title>Node2&#45;&gt;Node9</title>
<path fill="none" stroke="midnightblue" d="M572,-63.45C593.27,-54.05 623,-40.91 646.31,-30.61"/>
<polygon fill="midnightblue" stroke="midnightblue" points="647.8,-33.77 655.53,-26.53 644.97,-27.37 647.8,-33.77"/>
</g>
<!-- Node10&#45;&gt;Node2 -->
<g id="edge10" class="edge">
<title>Node10&#45;&gt;Node2</title>
<path fill="none" stroke="midnightblue" d="M336.25,-207.25C331.47,-187.66 325.52,-149.13 344.74,-126 359.82,-107.85 412.59,-95.51 460.14,-87.83"/>
<polygon fill="midnightblue" stroke="midnightblue" points="460.85,-91.26 470.19,-86.26 459.77,-84.34 460.85,-91.26"/>
</g>
<!-- Node10&#45;&gt;Node6 -->
<g id="edge15" class="edge">
<title>Node10&#45;&gt;Node6</title>
<path fill="none" stroke="midnightblue" d="M336.35,-207.29C327,-173.68 300.79,-79.43 288.83,-36.41"/>
<polygon fill="midnightblue" stroke="midnightblue" points="292.17,-35.34 286.12,-26.65 285.42,-37.22 292.17,-35.34"/>
</g>
<!-- Node10&#45;&gt;Node11 -->
<g id="edge11" class="edge">
<title>Node10&#45;&gt;Node11</title>
<path fill="none" stroke="midnightblue" d="M367.59,-207.47C394.25,-195.95 434.66,-178.49 464.16,-165.74"/>
<polygon fill="midnightblue" stroke="midnightblue" points="465.92,-168.79 473.71,-161.61 463.14,-162.36 465.92,-168.79"/>
</g>
<!-- Node12 -->
<g id="node12" class="node">
<title>Node12</title>
<g id="a_node12"><a xlink:title=" ">
<polygon fill="white" stroke="#bfbfbf" points="748.74,-63.5 748.74,-89.5 852.74,-89.5 852.74,-63.5 748.74,-63.5"/>
<text text-anchor="middle" x="800.74" y="-72.7" font-family="Source Sans Pro" font-size="16.00">glm/glm.hpp</text>
</a>
</g>
</g>
<!-- Node10&#45;&gt;Node12 -->
<g id="edge13" class="edge">
<title>Node10&#45;&gt;Node12</title>
<path fill="none" stroke="midnightblue" d="M340.81,-207.43C343.31,-187.01 351.51,-145.92 377.74,-126 391.92,-115.23 624.39,-93.2 738.52,-82.96"/>
<polygon fill="midnightblue" stroke="midnightblue" points="738.87,-86.44 748.52,-82.06 738.24,-79.47 738.87,-86.44"/>
</g>
<!-- Node13 -->
<g id="node13" class="node">
<title>Node13</title>
<g id="a_node13"><a xlink:title=" ">
<polygon fill="white" stroke="#bfbfbf" points="32.74,-135.5 32.74,-161.5 254.74,-161.5 254.74,-135.5 32.74,-135.5"/>
<text text-anchor="middle" x="143.74" y="-144.7" font-family="Source Sans Pro" font-size="16.00">glm/gtc/matrix_transform.hpp</text>
</a>
</g>
</g>
<!-- Node10&#45;&gt;Node13 -->
<g id="edge14" class="edge">
<title>Node10&#45;&gt;Node13</title>
<path fill="none" stroke="midnightblue" d="M306.05,-207.47C273.23,-195.75 223.19,-177.88 187.36,-165.08"/>
<polygon fill="midnightblue" stroke="midnightblue" points="188.24,-161.68 177.65,-161.61 185.89,-168.27 188.24,-161.68"/>
</g>
<!-- Node11&#45;&gt;Node2 -->
<g id="edge12" class="edge">
<title>Node11&#45;&gt;Node2</title>
<path fill="none" stroke="midnightblue" d="M509.23,-135.31C515.52,-125.07 524.64,-110.22 532.06,-98.13"/>
<polygon fill="midnightblue" stroke="midnightblue" points="535.08,-99.91 537.34,-89.55 529.12,-96.24 535.08,-99.91"/>
</g>
<!-- Node14&#45;&gt;Node5 -->
<g id="edge40" class="edge">
<title>Node14&#45;&gt;Node5</title>
<path fill="none" stroke="midnightblue" d="M1296.13,-210.85C1266.9,-204.04 1236.06,-192.04 1213.74,-171 1176.72,-136.09 1205.42,-104.34 1175.74,-63 1167.1,-50.97 1154.67,-40.43 1143.2,-32.28"/>
<polygon fill="midnightblue" stroke="midnightblue" points="1144.94,-29.23 1134.69,-26.53 1141.01,-35.03 1144.94,-29.23"/>
</g>
<!-- Node15 -->
<g id="node15" class="node">
<title>Node15</title>
<g id="a_node15"><a xlink:href="opengl_program_8hpp.html" target="_top" xlink:title=" ">
<polygon fill="white" stroke="black" points="1888.24,-135.5 1888.24,-161.5 2041.24,-161.5 2041.24,-135.5 1888.24,-135.5"/>
<text text-anchor="middle" x="1964.74" y="-144.7" font-family="Source Sans Pro" font-size="16.00">openglProgram.hpp</text>
</a>
</g>
</g>
<!-- Node14&#45;&gt;Node15 -->
<g id="edge17" class="edge">
<title>Node14&#45;&gt;Node15</title>
<path fill="none" stroke="midnightblue" d="M1469.46,-215C1569.07,-208.92 1737.11,-195.85 1879.74,-171 1890.42,-169.14 1901.73,-166.65 1912.5,-164.03"/>
<polygon fill="midnightblue" stroke="midnightblue" points="1913.36,-167.42 1922.2,-161.59 1911.65,-160.63 1913.36,-167.42"/>
</g>
<!-- Node22 -->
<g id="node22" class="node">
<title>Node22</title>
<g id="a_node22"><a xlink:href="opengl_texture_8hpp.html" target="_top" xlink:title=" ">
<polygon fill="white" stroke="black" points="2306.74,-135.5 2306.74,-161.5 2450.74,-161.5 2450.74,-135.5 2306.74,-135.5"/>
<text text-anchor="middle" x="2378.74" y="-144.7" font-family="Source Sans Pro" font-size="16.00">openglTexture.hpp</text>
</a>
</g>
</g>
<!-- Node14&#45;&gt;Node22 -->
<g id="edge25" class="edge">
<title>Node14&#45;&gt;Node22</title>
<path fill="none" stroke="midnightblue" d="M1469.25,-218.25C1626.92,-215.19 1971.42,-204.89 2259.74,-171 2276.14,-169.07 2293.7,-166.3 2310.16,-163.38"/>
<polygon fill="midnightblue" stroke="midnightblue" points="2311.03,-166.78 2320.24,-161.55 2309.78,-159.89 2311.03,-166.78"/>
</g>
<!-- Node25 -->
<g id="node25" class="node">
<title>Node25</title>
<g id="a_node25"><a xlink:href="_i_e_asset_8hpp.html" target="_top" xlink:title=" ">
<polygon fill="white" stroke="black" points="942.74,-135.5 942.74,-161.5 1166.74,-161.5 1166.74,-135.5 942.74,-135.5"/>
<text text-anchor="middle" x="1054.74" y="-144.7" font-family="Source Sans Pro" font-size="16.00">Core/AssetModule/IEAsset.hpp</text>
</a>
</g>
</g>
<!-- Node14&#45;&gt;Node25 -->
<g id="edge28" class="edge">
<title>Node14&#45;&gt;Node25</title>
<path fill="none" stroke="midnightblue" d="M1326.35,-207.47C1269.36,-195.3 1181.31,-176.51 1121.01,-163.64"/>
<polygon fill="midnightblue" stroke="midnightblue" points="1121.72,-160.22 1111.21,-161.55 1120.26,-167.06 1121.72,-160.22"/>
</g>
<!-- Node27 -->
<g id="node27" class="node">
<title>Node27</title>
<g id="a_node27"><a xlink:title=" ">
<polygon fill="white" stroke="#bfbfbf" points="1222.74,-135.5 1222.74,-161.5 1382.74,-161.5 1382.74,-135.5 1222.74,-135.5"/>
<text text-anchor="middle" x="1302.74" y="-144.7" font-family="Source Sans Pro" font-size="16.00">assimp/Importer.hpp</text>
</a>
</g>
</g>
<!-- Node14&#45;&gt;Node27 -->
<g id="edge34" class="edge">
<title>Node14&#45;&gt;Node27</title>
<path fill="none" stroke="midnightblue" d="M1368.81,-207.31C1356.53,-196.57 1338.46,-180.75 1324.31,-168.38"/>
<polygon fill="midnightblue" stroke="midnightblue" points="1326.35,-165.5 1316.52,-161.55 1321.74,-170.77 1326.35,-165.5"/>
</g>
<!-- Node28 -->
<g id="node28" class="node">
<title>Node28</title>
<g id="a_node28"><a xlink:title=" ">
<polygon fill="white" stroke="#bfbfbf" points="1400.74,-135.5 1400.74,-161.5 1522.74,-161.5 1522.74,-135.5 1400.74,-135.5"/>
<text text-anchor="middle" x="1461.74" y="-144.7" font-family="Source Sans Pro" font-size="16.00">assimp/scene.h</text>
</a>
</g>
</g>
<!-- Node14&#45;&gt;Node28 -->
<g id="edge35" class="edge">
<title>Node14&#45;&gt;Node28</title>
<path fill="none" stroke="midnightblue" d="M1396.5,-207.31C1408.62,-196.57 1426.47,-180.75 1440.44,-168.38"/>
<polygon fill="midnightblue" stroke="midnightblue" points="1442.97,-170.8 1448.14,-161.55 1438.33,-165.57 1442.97,-170.8"/>
</g>
<!-- Node29 -->
<g id="node29" class="node">
<title>Node29</title>
<g id="a_node29"><a xlink:title=" ">
<polygon fill="white" stroke="#bfbfbf" points="1540.74,-135.5 1540.74,-161.5 1704.74,-161.5 1704.74,-135.5 1540.74,-135.5"/>
<text text-anchor="middle" x="1622.74" y="-144.7" font-family="Source Sans Pro" font-size="16.00">assimp/postprocess.h</text>
</a>
</g>
</g>
<!-- Node14&#45;&gt;Node29 -->
<g id="edge36" class="edge">
<title>Node14&#45;&gt;Node29</title>
<path fill="none" stroke="midnightblue" d="M1424,-207.47C1464.87,-195.55 1527.55,-177.26 1571.57,-164.43"/>
<polygon fill="midnightblue" stroke="midnightblue" points="1572.6,-167.77 1581.22,-161.61 1570.64,-161.05 1572.6,-167.77"/>
</g>
<!-- Node30 -->
<g id="node30" class="node">
<title>Node30</title>
<g id="a_node30"><a xlink:title=" ">
<polygon fill="white" stroke="#bfbfbf" points="1723.24,-126.5 1723.24,-170.5 1870.24,-170.5 1870.24,-126.5 1723.24,-126.5"/>
<text text-anchor="start" x="1731.24" y="-153.7" font-family="Source Sans Pro" font-size="16.00">glm/ext/quaternion</text>
<text text-anchor="middle" x="1796.74" y="-135.7" font-family="Source Sans Pro" font-size="16.00">_trigonometric.hpp</text>
</a>
</g>
</g>
<!-- Node14&#45;&gt;Node30 -->
<g id="edge37" class="edge">
<title>Node14&#45;&gt;Node30</title>
<path fill="none" stroke="midnightblue" d="M1469.25,-209.42C1533.87,-201.29 1624.51,-188.62 1713.11,-171.02"/>
<polygon fill="midnightblue" stroke="midnightblue" points="1713.95,-174.42 1723.07,-169.02 1712.58,-167.56 1713.95,-174.42"/>
</g>
<!-- Node31 -->
<g id="node31" class="node">
<title>Node31</title>
<g id="a_node31"><a xlink:title=" ">
<polygon fill="white" stroke="#bfbfbf" points="2059.24,-135.5 2059.24,-161.5 2250.24,-161.5 2250.24,-135.5 2059.24,-135.5"/>
<text text-anchor="middle" x="2154.74" y="-144.7" font-family="Source Sans Pro" font-size="16.00">glm/detail/type_quat.hpp</text>
</a>
</g>
</g>
<!-- Node14&#45;&gt;Node31 -->
<g id="edge38" class="edge">
<title>Node14&#45;&gt;Node31</title>
<path fill="none" stroke="midnightblue" d="M1469.33,-216.85C1597.06,-212.11 1843.29,-199.85 2050.74,-171 2064.63,-169.07 2079.44,-166.39 2093.4,-163.57"/>
<polygon fill="midnightblue" stroke="midnightblue" points="2094.31,-166.96 2103.4,-161.51 2092.89,-160.1 2094.31,-166.96"/>
</g>
<!-- Node32 -->
<g id="node32" class="node">
<title>Node32</title>
<g id="a_node32"><a xlink:title=" ">
<polygon fill="white" stroke="#bfbfbf" points="711.24,-135.5 711.24,-161.5 778.24,-161.5 778.24,-135.5 711.24,-135.5"/>
<text text-anchor="middle" x="744.74" y="-144.7" font-family="Source Sans Pro" font-size="16.00">cstddef</text>
</a>
</g>
</g>
<!-- Node14&#45;&gt;Node32 -->
<g id="edge39" class="edge">
<title>Node14&#45;&gt;Node32</title>
<path fill="none" stroke="midnightblue" d="M1296.14,-216.49C1154.8,-210.9 880.94,-197.05 787.74,-171 783.28,-169.75 778.73,-168.04 774.34,-166.11"/>
<polygon fill="midnightblue" stroke="midnightblue" points="775.62,-162.84 765.09,-161.67 772.59,-169.15 775.62,-162.84"/>
</g>
<!-- Node33 -->
<g id="node33" class="node">
<title>Node33</title>
<g id="a_node33"><a xlink:title=" ">
<polygon fill="white" stroke="#bfbfbf" points="796.74,-135.5 796.74,-161.5 924.74,-161.5 924.74,-135.5 796.74,-135.5"/>
<text text-anchor="middle" x="860.74" y="-144.7" font-family="Source Sans Pro" font-size="16.00">unordered_map</text>
</a>
</g>
</g>
<!-- Node14&#45;&gt;Node33 -->
<g id="edge41" class="edge">
<title>Node14&#45;&gt;Node33</title>
<path fill="none" stroke="midnightblue" d="M1295.97,-214.74C1205.02,-208.68 1058.3,-195.86 933.74,-171 924.89,-169.23 915.57,-166.88 906.65,-164.38"/>
<polygon fill="midnightblue" stroke="midnightblue" points="907.39,-160.95 896.81,-161.51 905.43,-167.67 907.39,-160.95"/>
</g>
<!-- Node16 -->
<g id="node16" class="node">
<title>Node16</title>
<g id="a_node16"><a xlink:href="opengl_shader_8hpp.html" target="_top" xlink:title=" ">
<polygon fill="white" stroke="black" points="2249.74,-63.5 2249.74,-89.5 2391.74,-89.5 2391.74,-63.5 2249.74,-63.5"/>
<text text-anchor="middle" x="2320.74" y="-72.7" font-family="Source Sans Pro" font-size="16.00">openglShader.hpp</text>
</a>
</g>
</g>
<!-- Node15&#45;&gt;Node16 -->
<g id="edge18" class="edge">
<title>Node15&#45;&gt;Node16</title>
<path fill="none" stroke="midnightblue" d="M2010.58,-135.43C2023.52,-132.19 2037.65,-128.81 2050.74,-126 2113.84,-112.46 2185.8,-99.66 2239.55,-90.62"/>
<polygon fill="midnightblue" stroke="midnightblue" points="2240.42,-94.02 2249.71,-88.92 2239.27,-87.12 2240.42,-94.02"/>
</g>
<!-- Node16&#45;&gt;Node3 -->
<g id="edge24" class="edge">
<title>Node16&#45;&gt;Node3</title>
<path fill="none" stroke="midnightblue" d="M2249.36,-64.68C2244.76,-64.08 2240.18,-63.52 2235.74,-63 2046.08,-40.98 1819.7,-24.6 1719.65,-17.87"/>
<polygon fill="midnightblue" stroke="midnightblue" points="1719.73,-14.37 1709.52,-17.19 1719.26,-21.35 1719.73,-14.37"/>
</g>
<!-- Node16&#45;&gt;Node17 -->
<g id="edge19" class="edge">
<title>Node16&#45;&gt;Node17</title>
<path fill="none" stroke="midnightblue" d="M2391.74,-66.74C2472.53,-56.57 2600.55,-39.78 2664.52,-27"/>
<polygon fill="midnightblue" stroke="midnightblue" points="2665.51,-30.37 2674.58,-24.91 2664.08,-23.52 2665.51,-30.37"/>
</g>
<!-- Node18 -->
<g id="node18" class="node">
<title>Node18</title>
<g id="a_node18"><a xlink:title=" ">
<polygon fill="white" stroke="#bfbfbf" points="2192.74,-0.5 2192.74,-26.5 2262.74,-26.5 2262.74,-0.5 2192.74,-0.5"/>
<text text-anchor="middle" x="2227.74" y="-9.7" font-family="Source Sans Pro" font-size="16.00">sstream</text>
</a>
</g>
</g>
<!-- Node16&#45;&gt;Node18 -->
<g id="edge20" class="edge">
<title>Node16&#45;&gt;Node18</title>
<path fill="none" stroke="midnightblue" d="M2302.37,-63.45C2288.74,-54.51 2269.94,-42.18 2254.63,-32.14"/>
<polygon fill="midnightblue" stroke="midnightblue" points="2256.36,-29.08 2246.08,-26.53 2252.52,-34.94 2256.36,-29.08"/>
</g>
<!-- Node19 -->
<g id="node19" class="node">
<title>Node19</title>
<g id="a_node19"><a xlink:title=" ">
<polygon fill="white" stroke="#bfbfbf" points="2374.74,-0.5 2374.74,-26.5 2434.74,-26.5 2434.74,-0.5 2374.74,-0.5"/>
<text text-anchor="middle" x="2404.74" y="-9.7" font-family="Source Sans Pro" font-size="16.00">deque</text>
</a>
</g>
</g>
<!-- Node16&#45;&gt;Node19 -->
<g id="edge21" class="edge">
<title>Node16&#45;&gt;Node19</title>
<path fill="none" stroke="midnightblue" d="M2337.34,-63.45C2349.53,-54.59 2366.3,-42.41 2380.07,-32.42"/>
<polygon fill="midnightblue" stroke="midnightblue" points="2382.14,-35.23 2388.18,-26.53 2378.03,-29.57 2382.14,-35.23"/>
</g>
<!-- Node20 -->
<g id="node20" class="node">
<title>Node20</title>
<g id="a_node20"><a xlink:title=" ">
<polygon fill="white" stroke="#bfbfbf" points="2570.74,-0.5 2570.74,-26.5 2656.74,-26.5 2656.74,-0.5 2570.74,-0.5"/>
<text text-anchor="middle" x="2613.74" y="-9.7" font-family="Source Sans Pro" font-size="16.00">functional</text>
</a>
</g>
</g>
<!-- Node16&#45;&gt;Node20 -->
<g id="edge22" class="edge">
<title>Node16&#45;&gt;Node20</title>
<path fill="none" stroke="midnightblue" d="M2383.8,-63.48C2430.12,-54.49 2494.83,-41.62 2560.52,-27.22"/>
<polygon fill="midnightblue" stroke="midnightblue" points="2561.63,-30.56 2570.64,-24.99 2560.12,-23.73 2561.63,-30.56"/>
</g>
<!-- Node21 -->
<g id="node21" class="node">
<title>Node21</title>
<g id="a_node21"><a xlink:title=" ">
<polygon fill="white" stroke="#bfbfbf" points="2280.74,-0.5 2280.74,-26.5 2356.74,-26.5 2356.74,-0.5 2280.74,-0.5"/>
<text text-anchor="middle" x="2318.74" y="-9.7" font-family="Source Sans Pro" font-size="16.00">iostream</text>
</a>
</g>
</g>
<!-- Node16&#45;&gt;Node21 -->
<g id="edge23" class="edge">
<title>Node16&#45;&gt;Node21</title>
<path fill="none" stroke="midnightblue" d="M2320.34,-63.45C2320.1,-55.85 2319.77,-45.79 2319.47,-36.78"/>
<polygon fill="midnightblue" stroke="midnightblue" points="2322.96,-36.41 2319.13,-26.53 2315.96,-36.64 2322.96,-36.41"/>
</g>
<!-- Node23 -->
<g id="node23" class="node">
<title>Node23</title>
<g id="a_node23"><a xlink:href="opengl_image_8hpp.html" target="_top" xlink:title=" ">
<polygon fill="white" stroke="black" points="2448.24,-63.5 2448.24,-89.5 2585.24,-89.5 2585.24,-63.5 2448.24,-63.5"/>
<text text-anchor="middle" x="2516.74" y="-72.7" font-family="Source Sans Pro" font-size="16.00">openglImage.hpp</text>
</a>
</g>
</g>
<!-- Node22&#45;&gt;Node23 -->
<g id="edge26" class="edge">
<title>Node22&#45;&gt;Node23</title>
<path fill="none" stroke="midnightblue" d="M2402.46,-135.47C2424.88,-124.1 2458.7,-106.94 2483.74,-94.24"/>
<polygon fill="midnightblue" stroke="midnightblue" points="2485.53,-97.26 2492.86,-89.61 2482.36,-91.01 2485.53,-97.26"/>
</g>
<!-- Node24 -->
<g id="node24" class="node">
<title>Node24</title>
<g id="a_node24"><a xlink:title=" ">
<polygon fill="white" stroke="#bfbfbf" points="2452.74,-0.5 2452.74,-26.5 2552.74,-26.5 2552.74,-0.5 2452.74,-0.5"/>
<text text-anchor="middle" x="2502.74" y="-9.7" font-family="Source Sans Pro" font-size="16.00">stb_image.h</text>
</a>
</g>
</g>
<!-- Node23&#45;&gt;Node24 -->
<g id="edge27" class="edge">
<title>Node23&#45;&gt;Node24</title>
<path fill="none" stroke="midnightblue" d="M2513.97,-63.45C2512.21,-55.76 2509.87,-45.57 2507.78,-36.48"/>
<polygon fill="midnightblue" stroke="midnightblue" points="2511.15,-35.49 2505.5,-26.53 2504.33,-37.06 2511.15,-35.49"/>
</g>
<!-- Node25&#45;&gt;Node5 -->
<g id="edge31" class="edge">
<title>Node25&#45;&gt;Node5</title>
<path fill="none" stroke="midnightblue" d="M1050.89,-135.29C1046.21,-118.17 1040.29,-86.49 1051.74,-63 1057.94,-50.27 1069.28,-39.91 1080.58,-32.07"/>
<polygon fill="midnightblue" stroke="midnightblue" points="1082.6,-34.93 1089.12,-26.58 1078.82,-29.04 1082.6,-34.93"/>
</g>
<!-- Node25&#45;&gt;Node9 -->
<g id="edge30" class="edge">
<title>Node25&#45;&gt;Node9</title>
<path fill="none" stroke="midnightblue" d="M1030.23,-135.36C994.03,-117.76 923.84,-84.87 861.74,-63 813.72,-46.09 756.72,-31.56 720.16,-22.93"/>
<polygon fill="midnightblue" stroke="midnightblue" points="720.95,-19.52 710.42,-20.65 719.36,-26.34 720.95,-19.52"/>
</g>
<!-- Node25&#45;&gt;Node12 -->
<g id="edge29" class="edge">
<title>Node25&#45;&gt;Node12</title>
<path fill="none" stroke="midnightblue" d="M1011.08,-135.47C967.73,-123.52 901.2,-105.19 854.6,-92.34"/>
<polygon fill="midnightblue" stroke="midnightblue" points="855.25,-88.89 844.68,-89.61 853.4,-95.64 855.25,-88.89"/>
</g>
<!-- Node26 -->
<g id="node26" class="node">
<title>Node26</title>
<g id="a_node26"><a xlink:href="_i_e_aspect_8hpp.html" target="_top" xlink:title=" ">
<polygon fill="white" stroke="black" points="1060.74,-63.5 1060.74,-89.5 1166.74,-89.5 1166.74,-63.5 1060.74,-63.5"/>
<text text-anchor="middle" x="1113.74" y="-72.7" font-family="Source Sans Pro" font-size="16.00">IEAspect.hpp</text>
</a>
</g>
</g>
<!-- Node25&#45;&gt;Node26 -->
<g id="edge32" class="edge">
<title>Node25&#45;&gt;Node26</title>
<path fill="none" stroke="midnightblue" d="M1065.02,-135.31C1073.82,-124.87 1086.66,-109.63 1096.95,-97.43"/>
<polygon fill="midnightblue" stroke="midnightblue" points="1099.81,-99.46 1103.58,-89.55 1094.46,-94.94 1099.81,-99.46"/>
</g>
<!-- Node26&#45;&gt;Node5 -->
<g id="edge33" class="edge">
<title>Node26&#45;&gt;Node5</title>
<path fill="none" stroke="midnightblue" d="M1113.74,-63.45C1113.74,-55.85 1113.74,-45.79 1113.74,-36.78"/>
<polygon fill="midnightblue" stroke="midnightblue" points="1117.24,-36.53 1113.74,-26.53 1110.24,-36.53 1117.24,-36.53"/>
</g>
<!-- Node34&#45;&gt;Node11 -->
<g id="edge44" class="edge">
<title>Node34&#45;&gt;Node11</title>
<path fill="none" stroke="midnightblue" d="M2389.87,-219.58C2129.89,-219.27 1348.38,-214.51 701.74,-171 671.53,-168.97 638.84,-165.85 608.82,-162.61"/>
<polygon fill="midnightblue" stroke="midnightblue" points="609.07,-159.11 598.75,-161.5 608.31,-166.07 609.07,-159.11"/>
</g>
<!-- Node34&#45;&gt;Node19 -->
<g id="edge45" class="edge">
<title>Node34&#45;&gt;Node19</title>
<path fill="none" stroke="midnightblue" d="M2477.48,-207.37C2475.32,-189.22 2470.13,-154.12 2459.74,-126 2453.4,-108.83 2448.04,-106.31 2439.74,-90 2430.64,-72.11 2421.11,-51.4 2414.29,-36.2"/>
<polygon fill="midnightblue" stroke="midnightblue" points="2417.31,-34.37 2410.05,-26.66 2410.92,-37.22 2417.31,-34.37"/>
</g>
<!-- Node34&#45;&gt;Node20 -->
<g id="edge46" class="edge">
<title>Node34&#45;&gt;Node20</title>
<path fill="none" stroke="midnightblue" d="M2493.71,-207.21C2518.56,-185.97 2568.25,-139.84 2594.74,-90 2603.57,-73.38 2608.42,-52.51 2611,-36.93"/>
<polygon fill="midnightblue" stroke="midnightblue" points="2614.52,-37.05 2612.5,-26.65 2607.59,-36.04 2614.52,-37.05"/>
</g>
<!-- Node34&#45;&gt;Node23 -->
<g id="edge43" class="edge">
<title>Node34&#45;&gt;Node23</title>
<path fill="none" stroke="midnightblue" d="M2482.41,-207.17C2485.29,-197.38 2489.37,-183.34 2492.74,-171 2499.4,-146.56 2506.57,-118.38 2511.31,-99.4"/>
<polygon fill="midnightblue" stroke="midnightblue" points="2514.73,-100.18 2513.75,-89.63 2507.93,-98.49 2514.73,-100.18"/>
</g>
</g>
</svg>
