<?xml version="1.0" encoding="UTF-8" standalone="no"?>
<!DOCTYPE svg PUBLIC "-//W3C//DTD SVG 1.1//EN"
 "http://www.w3.org/Graphics/SVG/1.1/DTD/svg11.dtd">
<!-- Generated by graphviz version 2.43.0 (0)
 -->
<!-- Title: Illumination&#45;Engine/src/GraphicsModule/OpenGL/openglSettings.hpp Pages: 1 -->
<svg width="607pt" height="134pt"
 viewBox="0.00 0.00 607.00 134.00" xmlns="http://www.w3.org/2000/svg" xmlns:xlink="http://www.w3.org/1999/xlink">
<g id="graph0" class="graph" transform="scale(1 1) rotate(0) translate(4 130)">
<title>Illumination&#45;Engine/src/GraphicsModule/OpenGL/openglSettings.hpp</title>
<polygon fill="white" stroke="transparent" points="-4,4 -4,-130 603,-130 603,4 -4,4"/>
<!-- Node1 -->
<g id="node1" class="node">
<title>Node1</title>
<g id="a_node1"><a xlink:title=" ">
<polygon fill="#bfbfbf" stroke="black" points="224,-63.5 224,-125.5 437,-125.5 437,-63.5 224,-63.5"/>
<text text-anchor="start" x="232" y="-108.7" font-family="Source Sans Pro" font-size="16.00">Illumination&#45;Engine</text>
<text text-anchor="start" x="232" y="-90.7" font-family="Source Sans Pro" font-size="16.00">/src/GraphicsModule</text>
<text text-anchor="middle" x="330.5" y="-72.7" font-family="Source Sans Pro" font-size="16.00">/OpenGL/openglSettings.hpp</text>
</a>
</g>
</g>
<!-- Node2 -->
<g id="node2" class="node">
<title>Node2</title>
<g id="a_node2"><a xlink:title=" ">
<polygon fill="white" stroke="#bfbfbf" points="0,-0.5 0,-26.5 83,-26.5 83,-0.5 0,-0.5"/>
<text text-anchor="middle" x="41.5" y="-9.7" font-family="Source Sans Pro" font-size="16.00">GL/glew.h</text>
</a>
</g>
</g>
<!-- Node1&#45;&gt;Node2 -->
<g id="edge1" class="edge">
<title>Node1&#45;&gt;Node2</title>
<path fill="none" stroke="midnightblue" d="M223.71,-64.31C179.03,-52.09 129.18,-38.47 92.93,-28.56"/>
<polygon fill="midnightblue" stroke="midnightblue" points="93.65,-25.13 83.08,-25.87 91.8,-31.88 93.65,-25.13"/>
</g>
<!-- Node3 -->
<g id="node3" class="node">
<title>Node3</title>
<g id="a_node3"><a xlink:title=" ">
<polygon fill="white" stroke="#bfbfbf" points="101.5,-0.5 101.5,-26.5 209.5,-26.5 209.5,-0.5 101.5,-0.5"/>
<text text-anchor="middle" x="155.5" y="-9.7" font-family="Source Sans Pro" font-size="16.00">GLFW/glfw3.h</text>
</a>
</g>
</g>
<!-- Node1&#45;&gt;Node3 -->
<g id="edge2" class="edge">
<title>Node1&#45;&gt;Node3</title>
<path fill="none" stroke="midnightblue" d="M263.84,-63.41C239.21,-52.29 212.25,-40.12 191.38,-30.7"/>
<polygon fill="midnightblue" stroke="midnightblue" points="192.81,-27.5 182.25,-26.58 189.93,-33.88 192.81,-27.5"/>
</g>
<!-- Node4 -->
<g id="node4" class="node">
<title>Node4</title>
<g id="a_node4"><a xlink:title=" ">
<polygon fill="white" stroke="#bfbfbf" points="228,-0.5 228,-26.5 287,-26.5 287,-0.5 228,-0.5"/>
<text text-anchor="middle" x="257.5" y="-9.7" font-family="Source Sans Pro" font-size="16.00">vector</text>
</a>
</g>
</g>
<!-- Node1&#45;&gt;Node4 -->
<g id="edge3" class="edge">
<title>Node1&#45;&gt;Node4</title>
<path fill="none" stroke="midnightblue" d="M302.49,-63.18C293.5,-53.45 283.78,-42.94 275.69,-34.18"/>
<polygon fill="midnightblue" stroke="midnightblue" points="278.13,-31.67 268.78,-26.7 272.99,-36.42 278.13,-31.67"/>
</g>
<!-- Node5 -->
<g id="node5" class="node">
<title>Node5</title>
<g id="a_node5"><a xlink:title=" ">
<polygon fill="white" stroke="#bfbfbf" points="305,-0.5 305,-26.5 356,-26.5 356,-0.5 305,-0.5"/>
<text text-anchor="middle" x="330.5" y="-9.7" font-family="Source Sans Pro" font-size="16.00">array</text>
</a>
</g>
</g>
<!-- Node1&#45;&gt;Node5 -->
<g id="edge4" class="edge">
<title>Node1&#45;&gt;Node5</title>
<path fill="none" stroke="midnightblue" d="M330.5,-63.18C330.5,-54.45 330.5,-45.08 330.5,-36.91"/>
<polygon fill="midnightblue" stroke="midnightblue" points="334,-36.7 330.5,-26.7 327,-36.7 334,-36.7"/>
</g>
<!-- Node6 -->
<g id="node6" class="node">
<title>Node6</title>
<g id="a_node6"><a xlink:title=" ">
<polygon fill="white" stroke="#bfbfbf" points="374,-0.5 374,-26.5 435,-26.5 435,-0.5 374,-0.5"/>
<text text-anchor="middle" x="404.5" y="-9.7" font-family="Source Sans Pro" font-size="16.00">climits</text>
</a>
</g>
</g>
<!-- Node1&#45;&gt;Node6 -->
<g id="edge5" class="edge">
<title>Node1&#45;&gt;Node6</title>
<path fill="none" stroke="midnightblue" d="M358.9,-63.18C368.01,-53.45 377.86,-42.94 386.06,-34.18"/>
<polygon fill="midnightblue" stroke="midnightblue" points="388.79,-36.39 393.07,-26.7 383.68,-31.61 388.79,-36.39"/>
</g>
<!-- Node7 -->
<g id="node7" class="node">
<title>Node7</title>
<g id="a_node7"><a xlink:title=" ">
<polygon fill="white" stroke="#bfbfbf" points="453.5,-0.5 453.5,-26.5 525.5,-26.5 525.5,-0.5 453.5,-0.5"/>
<text text-anchor="middle" x="489.5" y="-9.7" font-family="Source Sans Pro" font-size="16.00">unistd.h</text>
</a>
</g>
</g>
<!-- Node1&#45;&gt;Node7 -->
<g id="edge6" class="edge">
<title>Node1&#45;&gt;Node7</title>
<path fill="none" stroke="midnightblue" d="M391.06,-63.41C413.14,-52.44 437.28,-40.45 456.13,-31.08"/>
<polygon fill="midnightblue" stroke="midnightblue" points="457.79,-34.16 465.19,-26.58 454.68,-27.89 457.79,-34.16"/>
</g>
<!-- Node8 -->
<g id="node8" class="node">
<title>Node8</title>
<g id="a_node8"><a xlink:title=" ">
<polygon fill="white" stroke="#bfbfbf" points="544,-0.5 544,-26.5 599,-26.5 599,-0.5 544,-0.5"/>
<text text-anchor="middle" x="571.5" y="-9.7" font-family="Source Sans Pro" font-size="16.00">string</text>
</a>
</g>
</g>
<!-- Node1&#45;&gt;Node8 -->
<g id="edge7" class="edge">
<title>Node1&#45;&gt;Node8</title>
<path fill="none" stroke="midnightblue" d="M423.49,-63.42C455.82,-52.9 492.52,-40.91 533.88,-27.19"/>
<polygon fill="midnightblue" stroke="midnightblue" points="535.24,-30.42 543.63,-23.95 533.04,-23.78 535.24,-30.42"/>
</g>
</g>
</svg>
