<?xml version="1.0" encoding="UTF-8" standalone="no"?>
<!DOCTYPE svg PUBLIC "-//W3C//DTD SVG 1.1//EN"
 "http://www.w3.org/Graphics/SVG/1.1/DTD/svg11.dtd">
<!-- Generated by graphviz version 2.43.0 (0)
 -->
<!-- Title: Illumination&#45;Engine/src/GraphicsModule/OpenGL/openglRenderable.hpp Pages: 1 -->
<svg width="2106pt" height="278pt"
 viewBox="0.00 0.00 2106.00 278.00" xmlns="http://www.w3.org/2000/svg" xmlns:xlink="http://www.w3.org/1999/xlink">
<g id="graph0" class="graph" transform="scale(1 1) rotate(0) translate(4 274)">
<title>Illumination&#45;Engine/src/GraphicsModule/OpenGL/openglRenderable.hpp</title>
<polygon fill="white" stroke="transparent" points="-4,4 -4,-274 2102,-274 2102,4 -4,4"/>
<!-- Node1 -->
<g id="node1" class="node">
<title>Node1</title>
<g id="a_node1"><a xlink:title=" ">
<polygon fill="#bfbfbf" stroke="black" points="1130.5,-207.5 1130.5,-269.5 1367.5,-269.5 1367.5,-207.5 1130.5,-207.5"/>
<text text-anchor="start" x="1138.5" y="-252.7" font-family="Source Sans Pro" font-size="16.00">Illumination&#45;Engine</text>
<text text-anchor="start" x="1138.5" y="-234.7" font-family="Source Sans Pro" font-size="16.00">/src/GraphicsModule</text>
<text text-anchor="middle" x="1249" y="-216.7" font-family="Source Sans Pro" font-size="16.00">/OpenGL/openglRenderable.hpp</text>
</a>
</g>
</g>
<!-- Node2 -->
<g id="node2" class="node">
<title>Node2</title>
<g id="a_node2"><a xlink:href="opengl_program_8hpp.html" target="_top" xlink:title=" ">
<polygon fill="white" stroke="black" points="313.5,-135.5 313.5,-161.5 466.5,-161.5 466.5,-135.5 313.5,-135.5"/>
<text text-anchor="middle" x="390" y="-144.7" font-family="Source Sans Pro" font-size="16.00">openglProgram.hpp</text>
</a>
</g>
</g>
<!-- Node1&#45;&gt;Node2 -->
<g id="edge1" class="edge">
<title>Node1&#45;&gt;Node2</title>
<path fill="none" stroke="midnightblue" d="M1130.47,-229.56C985.45,-219.19 732.6,-199 517,-171 500.13,-168.81 482.07,-166.02 465.02,-163.19"/>
<polygon fill="midnightblue" stroke="midnightblue" points="465.56,-159.73 455.12,-161.52 464.39,-166.63 465.56,-159.73"/>
</g>
<!-- Node10 -->
<g id="node10" class="node">
<title>Node10</title>
<g id="a_node10"><a xlink:href="opengl_texture_8hpp.html" target="_top" xlink:title=" ">
<polygon fill="white" stroke="black" points="526,-135.5 526,-161.5 670,-161.5 670,-135.5 526,-135.5"/>
<text text-anchor="middle" x="598" y="-144.7" font-family="Source Sans Pro" font-size="16.00">openglTexture.hpp</text>
</a>
</g>
</g>
<!-- Node1&#45;&gt;Node10 -->
<g id="edge9" class="edge">
<title>Node1&#45;&gt;Node10</title>
<path fill="none" stroke="midnightblue" d="M1130.28,-226.24C1018.59,-214.92 846.89,-195.63 699,-171 686.44,-168.91 673.08,-166.32 660.32,-163.68"/>
<polygon fill="midnightblue" stroke="midnightblue" points="660.76,-160.19 650.25,-161.55 659.31,-167.04 660.76,-160.19"/>
</g>
<!-- Node13 -->
<g id="node13" class="node">
<title>Node13</title>
<g id="a_node13"><a xlink:href="_i_e_asset_8hpp.html" target="_top" xlink:title=" ">
<polygon fill="white" stroke="black" points="708,-135.5 708,-161.5 932,-161.5 932,-135.5 708,-135.5"/>
<text text-anchor="middle" x="820" y="-144.7" font-family="Source Sans Pro" font-size="16.00">Core/AssetModule/IEAsset.hpp</text>
</a>
</g>
</g>
<!-- Node1&#45;&gt;Node13 -->
<g id="edge12" class="edge">
<title>Node1&#45;&gt;Node13</title>
<path fill="none" stroke="midnightblue" d="M1130.35,-213.16C1052.67,-197.23 953.88,-176.96 888.88,-163.63"/>
<polygon fill="midnightblue" stroke="midnightblue" points="889.24,-160.13 878.74,-161.55 887.84,-166.99 889.24,-160.13"/>
</g>
<!-- Node16 -->
<g id="node16" class="node">
<title>Node16</title>
<g id="a_node16"><a xlink:title=" ">
<polygon fill="white" stroke="#bfbfbf" points="871.5,-0.5 871.5,-26.5 930.5,-26.5 930.5,-0.5 871.5,-0.5"/>
<text text-anchor="middle" x="901" y="-9.7" font-family="Source Sans Pro" font-size="16.00">vector</text>
</a>
</g>
</g>
<!-- Node1&#45;&gt;Node16 -->
<g id="edge24" class="edge">
<title>Node1&#45;&gt;Node16</title>
<path fill="none" stroke="midnightblue" d="M1130.32,-229.08C1085.05,-220.35 1035.99,-203.42 1001,-171 963.67,-136.42 992.68,-104.34 963,-63 954.36,-50.97 941.93,-40.43 930.46,-32.28"/>
<polygon fill="midnightblue" stroke="midnightblue" points="932.2,-29.23 921.95,-26.53 928.27,-35.03 932.2,-29.23"/>
</g>
<!-- Node18 -->
<g id="node18" class="node">
<title>Node18</title>
<g id="a_node18"><a xlink:title=" ">
<polygon fill="white" stroke="#bfbfbf" points="1010,-135.5 1010,-161.5 1170,-161.5 1170,-135.5 1010,-135.5"/>
<text text-anchor="middle" x="1090" y="-144.7" font-family="Source Sans Pro" font-size="16.00">assimp/Importer.hpp</text>
</a>
</g>
</g>
<!-- Node1&#45;&gt;Node18 -->
<g id="edge18" class="edge">
<title>Node1&#45;&gt;Node18</title>
<path fill="none" stroke="midnightblue" d="M1194.73,-207.46C1169.96,-193.76 1141.56,-178.03 1120.58,-166.43"/>
<polygon fill="midnightblue" stroke="midnightblue" points="1122.24,-163.34 1111.79,-161.56 1118.85,-169.47 1122.24,-163.34"/>
</g>
<!-- Node19 -->
<g id="node19" class="node">
<title>Node19</title>
<g id="a_node19"><a xlink:title=" ">
<polygon fill="white" stroke="#bfbfbf" points="1188,-135.5 1188,-161.5 1310,-161.5 1310,-135.5 1188,-135.5"/>
<text text-anchor="middle" x="1249" y="-144.7" font-family="Source Sans Pro" font-size="16.00">assimp/scene.h</text>
</a>
</g>
</g>
<!-- Node1&#45;&gt;Node19 -->
<g id="edge19" class="edge">
<title>Node1&#45;&gt;Node19</title>
<path fill="none" stroke="midnightblue" d="M1249,-207.22C1249,-195.7 1249,-182.8 1249,-172.12"/>
<polygon fill="midnightblue" stroke="midnightblue" points="1252.5,-171.94 1249,-161.94 1245.5,-171.94 1252.5,-171.94"/>
</g>
<!-- Node20 -->
<g id="node20" class="node">
<title>Node20</title>
<g id="a_node20"><a xlink:title=" ">
<polygon fill="white" stroke="#bfbfbf" points="1328,-135.5 1328,-161.5 1492,-161.5 1492,-135.5 1328,-135.5"/>
<text text-anchor="middle" x="1410" y="-144.7" font-family="Source Sans Pro" font-size="16.00">assimp/postprocess.h</text>
</a>
</g>
</g>
<!-- Node1&#45;&gt;Node20 -->
<g id="edge20" class="edge">
<title>Node1&#45;&gt;Node20</title>
<path fill="none" stroke="midnightblue" d="M1303.96,-207.46C1329.03,-193.76 1357.8,-178.03 1379.03,-166.43"/>
<polygon fill="midnightblue" stroke="midnightblue" points="1380.84,-169.43 1387.93,-161.56 1377.48,-163.29 1380.84,-169.43"/>
</g>
<!-- Node21 -->
<g id="node21" class="node">
<title>Node21</title>
<g id="a_node21"><a xlink:title=" ">
<polygon fill="white" stroke="#bfbfbf" points="1510.5,-126.5 1510.5,-170.5 1657.5,-170.5 1657.5,-126.5 1510.5,-126.5"/>
<text text-anchor="start" x="1518.5" y="-153.7" font-family="Source Sans Pro" font-size="16.00">glm/ext/quaternion</text>
<text text-anchor="middle" x="1584" y="-135.7" font-family="Source Sans Pro" font-size="16.00">_trigonometric.hpp</text>
</a>
</g>
</g>
<!-- Node1&#45;&gt;Node21 -->
<g id="edge21" class="edge">
<title>Node1&#45;&gt;Node21</title>
<path fill="none" stroke="midnightblue" d="M1363.35,-207.46C1408.36,-195.64 1459.08,-182.31 1500.54,-171.42"/>
<polygon fill="midnightblue" stroke="midnightblue" points="1501.54,-174.78 1510.32,-168.85 1499.76,-168.01 1501.54,-174.78"/>
</g>
<!-- Node22 -->
<g id="node22" class="node">
<title>Node22</title>
<g id="a_node22"><a xlink:title=" ">
<polygon fill="white" stroke="#bfbfbf" points="1675.5,-135.5 1675.5,-161.5 1866.5,-161.5 1866.5,-135.5 1675.5,-135.5"/>
<text text-anchor="middle" x="1771" y="-144.7" font-family="Source Sans Pro" font-size="16.00">glm/detail/type_quat.hpp</text>
</a>
</g>
</g>
<!-- Node1&#45;&gt;Node22 -->
<g id="edge22" class="edge">
<title>Node1&#45;&gt;Node22</title>
<path fill="none" stroke="midnightblue" d="M1367.71,-220.1C1451.51,-207.46 1566.34,-189.4 1667,-171 1679.38,-168.74 1692.55,-166.15 1705.21,-163.58"/>
<polygon fill="midnightblue" stroke="midnightblue" points="1706.14,-166.96 1715.23,-161.52 1704.73,-160.1 1706.14,-166.96"/>
</g>
<!-- Node23 -->
<g id="node23" class="node">
<title>Node23</title>
<g id="a_node23"><a xlink:title=" ">
<polygon fill="white" stroke="#bfbfbf" points="1884.5,-135.5 1884.5,-161.5 1951.5,-161.5 1951.5,-135.5 1884.5,-135.5"/>
<text text-anchor="middle" x="1918" y="-144.7" font-family="Source Sans Pro" font-size="16.00">cstddef</text>
</a>
</g>
</g>
<!-- Node1&#45;&gt;Node23 -->
<g id="edge23" class="edge">
<title>Node1&#45;&gt;Node23</title>
<path fill="none" stroke="midnightblue" d="M1367.65,-237.74C1495.65,-235.07 1704.21,-222.15 1876,-171 1880.36,-169.7 1884.8,-167.96 1889.08,-166.02"/>
<polygon fill="midnightblue" stroke="midnightblue" points="1890.7,-169.13 1898.12,-161.57 1887.6,-162.85 1890.7,-169.13"/>
</g>
<!-- Node24 -->
<g id="node24" class="node">
<title>Node24</title>
<g id="a_node24"><a xlink:title=" ">
<polygon fill="white" stroke="#bfbfbf" points="1970,-135.5 1970,-161.5 2098,-161.5 2098,-135.5 1970,-135.5"/>
<text text-anchor="middle" x="2034" y="-144.7" font-family="Source Sans Pro" font-size="16.00">unordered_map</text>
</a>
</g>
</g>
<!-- Node1&#45;&gt;Node24 -->
<g id="edge25" class="edge">
<title>Node1&#45;&gt;Node24</title>
<path fill="none" stroke="midnightblue" d="M1367.78,-233.42C1509.94,-226.93 1754.65,-210.64 1961,-171 1970.05,-169.26 1979.59,-166.87 1988.68,-164.32"/>
<polygon fill="midnightblue" stroke="midnightblue" points="1989.7,-167.67 1998.32,-161.51 1987.74,-160.95 1989.7,-167.67"/>
</g>
<!-- Node3 -->
<g id="node3" class="node">
<title>Node3</title>
<g id="a_node3"><a xlink:href="opengl_shader_8hpp.html" target="_top" xlink:title=" ">
<polygon fill="white" stroke="black" points="224,-63.5 224,-89.5 366,-89.5 366,-63.5 224,-63.5"/>
<text text-anchor="middle" x="295" y="-72.7" font-family="Source Sans Pro" font-size="16.00">openglShader.hpp</text>
</a>
</g>
</g>
<!-- Node2&#45;&gt;Node3 -->
<g id="edge2" class="edge">
<title>Node2&#45;&gt;Node3</title>
<path fill="none" stroke="midnightblue" d="M373.45,-135.31C358.6,-124.37 336.61,-108.16 319.68,-95.69"/>
<polygon fill="midnightblue" stroke="midnightblue" points="321.48,-92.67 311.36,-89.55 317.33,-98.3 321.48,-92.67"/>
</g>
<!-- Node4 -->
<g id="node4" class="node">
<title>Node4</title>
<g id="a_node4"><a xlink:title=" ">
<polygon fill="white" stroke="#bfbfbf" points="0,-0.5 0,-26.5 68,-26.5 68,-0.5 0,-0.5"/>
<text text-anchor="middle" x="34" y="-9.7" font-family="Source Sans Pro" font-size="16.00">fstream</text>
</a>
</g>
</g>
<!-- Node3&#45;&gt;Node4 -->
<g id="edge3" class="edge">
<title>Node3&#45;&gt;Node4</title>
<path fill="none" stroke="midnightblue" d="M236,-63.44C194.33,-54.68 136.96,-42.13 78.06,-27.18"/>
<polygon fill="midnightblue" stroke="midnightblue" points="78.77,-23.75 68.21,-24.66 77.03,-30.53 78.77,-23.75"/>
</g>
<!-- Node5 -->
<g id="node5" class="node">
<title>Node5</title>
<g id="a_node5"><a xlink:title=" ">
<polygon fill="white" stroke="#bfbfbf" points="86,-0.5 86,-26.5 156,-26.5 156,-0.5 86,-0.5"/>
<text text-anchor="middle" x="121" y="-9.7" font-family="Source Sans Pro" font-size="16.00">sstream</text>
</a>
</g>
</g>
<!-- Node3&#45;&gt;Node5 -->
<g id="edge4" class="edge">
<title>Node3&#45;&gt;Node5</title>
<path fill="none" stroke="midnightblue" d="M260.62,-63.45C233.22,-53.84 194.65,-40.32 164.99,-29.92"/>
<polygon fill="midnightblue" stroke="midnightblue" points="165.9,-26.53 155.31,-26.53 163.58,-33.14 165.9,-26.53"/>
</g>
<!-- Node6 -->
<g id="node6" class="node">
<title>Node6</title>
<g id="a_node6"><a xlink:title=" ">
<polygon fill="white" stroke="#bfbfbf" points="174,-0.5 174,-26.5 234,-26.5 234,-0.5 174,-0.5"/>
<text text-anchor="middle" x="204" y="-9.7" font-family="Source Sans Pro" font-size="16.00">deque</text>
</a>
</g>
</g>
<!-- Node3&#45;&gt;Node6 -->
<g id="edge5" class="edge">
<title>Node3&#45;&gt;Node6</title>
<path fill="none" stroke="midnightblue" d="M277.02,-63.45C263.69,-54.51 245.3,-42.18 230.31,-32.14"/>
<polygon fill="midnightblue" stroke="midnightblue" points="232.2,-29.19 221.94,-26.53 228.3,-35 232.2,-29.19"/>
</g>
<!-- Node7 -->
<g id="node7" class="node">
<title>Node7</title>
<g id="a_node7"><a xlink:title=" ">
<polygon fill="white" stroke="#bfbfbf" points="252,-0.5 252,-26.5 338,-26.5 338,-0.5 252,-0.5"/>
<text text-anchor="middle" x="295" y="-9.7" font-family="Source Sans Pro" font-size="16.00">functional</text>
</a>
</g>
</g>
<!-- Node3&#45;&gt;Node7 -->
<g id="edge6" class="edge">
<title>Node3&#45;&gt;Node7</title>
<path fill="none" stroke="midnightblue" d="M295,-63.45C295,-55.85 295,-45.79 295,-36.78"/>
<polygon fill="midnightblue" stroke="midnightblue" points="298.5,-36.53 295,-26.53 291.5,-36.53 298.5,-36.53"/>
</g>
<!-- Node8 -->
<g id="node8" class="node">
<title>Node8</title>
<g id="a_node8"><a xlink:title=" ">
<polygon fill="white" stroke="#bfbfbf" points="356,-0.5 356,-26.5 432,-26.5 432,-0.5 356,-0.5"/>
<text text-anchor="middle" x="394" y="-9.7" font-family="Source Sans Pro" font-size="16.00">iostream</text>
</a>
</g>
</g>
<!-- Node3&#45;&gt;Node8 -->
<g id="edge7" class="edge">
<title>Node3&#45;&gt;Node8</title>
<path fill="none" stroke="midnightblue" d="M314.56,-63.45C329.2,-54.43 349.45,-41.95 365.83,-31.85"/>
<polygon fill="midnightblue" stroke="midnightblue" points="367.8,-34.75 374.48,-26.53 364.13,-28.79 367.8,-34.75"/>
</g>
<!-- Node9 -->
<g id="node9" class="node">
<title>Node9</title>
<g id="a_node9"><a xlink:title=" ">
<polygon fill="white" stroke="#bfbfbf" points="450.5,-0.5 450.5,-26.5 533.5,-26.5 533.5,-0.5 450.5,-0.5"/>
<text text-anchor="middle" x="492" y="-9.7" font-family="Source Sans Pro" font-size="16.00">GL/glew.h</text>
</a>
</g>
</g>
<!-- Node3&#45;&gt;Node9 -->
<g id="edge8" class="edge">
<title>Node3&#45;&gt;Node9</title>
<path fill="none" stroke="midnightblue" d="M333.92,-63.45C365.35,-53.72 409.76,-39.97 443.5,-29.52"/>
<polygon fill="midnightblue" stroke="midnightblue" points="444.64,-32.83 453.16,-26.53 442.57,-26.14 444.64,-32.83"/>
</g>
<!-- Node11 -->
<g id="node11" class="node">
<title>Node11</title>
<g id="a_node11"><a xlink:href="opengl_image_8hpp.html" target="_top" xlink:title=" ">
<polygon fill="white" stroke="black" points="458.5,-63.5 458.5,-89.5 595.5,-89.5 595.5,-63.5 458.5,-63.5"/>
<text text-anchor="middle" x="527" y="-72.7" font-family="Source Sans Pro" font-size="16.00">openglImage.hpp</text>
</a>
</g>
</g>
<!-- Node10&#45;&gt;Node11 -->
<g id="edge10" class="edge">
<title>Node10&#45;&gt;Node11</title>
<path fill="none" stroke="midnightblue" d="M585.63,-135.31C574.84,-124.67 559,-109.05 546.5,-96.73"/>
<polygon fill="midnightblue" stroke="midnightblue" points="548.8,-94.08 539.23,-89.55 543.89,-99.07 548.8,-94.08"/>
</g>
<!-- Node12 -->
<g id="node12" class="node">
<title>Node12</title>
<g id="a_node12"><a xlink:title=" ">
<polygon fill="white" stroke="#bfbfbf" points="552,-0.5 552,-26.5 652,-26.5 652,-0.5 552,-0.5"/>
<text text-anchor="middle" x="602" y="-9.7" font-family="Source Sans Pro" font-size="16.00">stb_image.h</text>
</a>
</g>
</g>
<!-- Node11&#45;&gt;Node12 -->
<g id="edge11" class="edge">
<title>Node11&#45;&gt;Node12</title>
<path fill="none" stroke="midnightblue" d="M541.82,-63.45C552.5,-54.76 567.12,-42.87 579.27,-32.99"/>
<polygon fill="midnightblue" stroke="midnightblue" points="581.66,-35.55 587.21,-26.53 577.25,-30.12 581.66,-35.55"/>
</g>
<!-- Node14 -->
<g id="node14" class="node">
<title>Node14</title>
<g id="a_node14"><a xlink:title=" ">
<polygon fill="white" stroke="#bfbfbf" points="614,-63.5 614,-89.5 718,-89.5 718,-63.5 614,-63.5"/>
<text text-anchor="middle" x="666" y="-72.7" font-family="Source Sans Pro" font-size="16.00">glm/glm.hpp</text>
</a>
</g>
</g>
<!-- Node13&#45;&gt;Node14 -->
<g id="edge13" class="edge">
<title>Node13&#45;&gt;Node14</title>
<path fill="none" stroke="midnightblue" d="M793.53,-135.47C768.29,-124 730.1,-106.64 702.09,-93.9"/>
<polygon fill="midnightblue" stroke="midnightblue" points="703.2,-90.56 692.64,-89.61 700.3,-96.94 703.2,-90.56"/>
</g>
<!-- Node15 -->
<g id="node15" class="node">
<title>Node15</title>
<g id="a_node15"><a xlink:title=" ">
<polygon fill="white" stroke="#bfbfbf" points="736.5,-63.5 736.5,-89.5 791.5,-89.5 791.5,-63.5 736.5,-63.5"/>
<text text-anchor="middle" x="764" y="-72.7" font-family="Source Sans Pro" font-size="16.00">string</text>
</a>
</g>
</g>
<!-- Node13&#45;&gt;Node15 -->
<g id="edge14" class="edge">
<title>Node13&#45;&gt;Node15</title>
<path fill="none" stroke="midnightblue" d="M810.25,-135.31C801.89,-124.87 789.71,-109.63 779.94,-97.43"/>
<polygon fill="midnightblue" stroke="midnightblue" points="782.62,-95.18 773.64,-89.55 777.16,-99.55 782.62,-95.18"/>
</g>
<!-- Node13&#45;&gt;Node16 -->
<g id="edge15" class="edge">
<title>Node13&#45;&gt;Node16</title>
<path fill="none" stroke="midnightblue" d="M820.22,-135.34C821.05,-118 824.61,-85.75 839,-63 846.8,-50.67 858.88,-40.19 870.31,-32.15"/>
<polygon fill="midnightblue" stroke="midnightblue" points="872.44,-34.94 878.85,-26.5 868.58,-29.11 872.44,-34.94"/>
</g>
<!-- Node17 -->
<g id="node17" class="node">
<title>Node17</title>
<g id="a_node17"><a xlink:href="_i_e_aspect_8hpp.html" target="_top" xlink:title=" ">
<polygon fill="white" stroke="black" points="848,-63.5 848,-89.5 954,-89.5 954,-63.5 848,-63.5"/>
<text text-anchor="middle" x="901" y="-72.7" font-family="Source Sans Pro" font-size="16.00">IEAspect.hpp</text>
</a>
</g>
</g>
<!-- Node13&#45;&gt;Node17 -->
<g id="edge16" class="edge">
<title>Node13&#45;&gt;Node17</title>
<path fill="none" stroke="midnightblue" d="M834.11,-135.31C846.54,-124.57 864.84,-108.75 879.16,-96.38"/>
<polygon fill="midnightblue" stroke="midnightblue" points="881.77,-98.74 887.05,-89.55 877.2,-93.44 881.77,-98.74"/>
</g>
<!-- Node17&#45;&gt;Node16 -->
<g id="edge17" class="edge">
<title>Node17&#45;&gt;Node16</title>
<path fill="none" stroke="midnightblue" d="M901,-63.45C901,-55.85 901,-45.79 901,-36.78"/>
<polygon fill="midnightblue" stroke="midnightblue" points="904.5,-36.53 901,-26.53 897.5,-36.53 904.5,-36.53"/>
</g>
</g>
</svg>
