<?xml version="1.0" encoding="UTF-8" standalone="no"?>
<!DOCTYPE svg PUBLIC "-//W3C//DTD SVG 1.1//EN"
 "http://www.w3.org/Graphics/SVG/1.1/DTD/svg11.dtd">
<!-- Generated by graphviz version 2.43.0 (0)
 -->
<!-- Title: Illumination&#45;Engine/src/GraphicsModule/OpenGL/openglFramebuffer.hpp Pages: 1 -->
<svg width="636pt" height="260pt"
 viewBox="0.00 0.00 635.50 260.00" xmlns="http://www.w3.org/2000/svg" xmlns:xlink="http://www.w3.org/1999/xlink">
<g id="graph0" class="graph" transform="scale(1 1) rotate(0) translate(4 256)">
<title>Illumination&#45;Engine/src/GraphicsModule/OpenGL/openglFramebuffer.hpp</title>
<polygon fill="white" stroke="transparent" points="-4,4 -4,-256 631.5,-256 631.5,4 -4,4"/>
<!-- Node1 -->
<g id="node1" class="node">
<title>Node1</title>
<g id="a_node1"><a xlink:title=" ">
<polygon fill="#bfbfbf" stroke="black" points="290.5,-189.5 290.5,-251.5 532.5,-251.5 532.5,-189.5 290.5,-189.5"/>
<text text-anchor="start" x="298.5" y="-234.7" font-family="Source Sans Pro" font-size="16.00">Illumination&#45;Engine</text>
<text text-anchor="start" x="298.5" y="-216.7" font-family="Source Sans Pro" font-size="16.00">/src/GraphicsModule</text>
<text text-anchor="middle" x="411.5" y="-198.7" font-family="Source Sans Pro" font-size="16.00">/OpenGL/openglFramebuffer.hpp</text>
</a>
</g>
</g>
<!-- Node2 -->
<g id="node2" class="node">
<title>Node2</title>
<g id="a_node2"><a xlink:href="opengl_image_8hpp.html" target="_top" xlink:title=" ">
<polygon fill="white" stroke="black" points="61,-126.5 61,-152.5 198,-152.5 198,-126.5 61,-126.5"/>
<text text-anchor="middle" x="129.5" y="-135.7" font-family="Source Sans Pro" font-size="16.00">openglImage.hpp</text>
</a>
</g>
</g>
<!-- Node1&#45;&gt;Node2 -->
<g id="edge1" class="edge">
<title>Node1&#45;&gt;Node2</title>
<path fill="none" stroke="midnightblue" d="M304.08,-189.41C262.43,-177.74 216.63,-164.91 182.4,-155.32"/>
<polygon fill="midnightblue" stroke="midnightblue" points="183.18,-151.9 172.61,-152.58 181.3,-158.64 183.18,-151.9"/>
</g>
<!-- Node4 -->
<g id="node4" class="node">
<title>Node4</title>
<g id="a_node4"><a xlink:href="opengl_graphics_engine_link_8hpp.html" target="_top" xlink:title=" ">
<polygon fill="white" stroke="black" points="216,-126.5 216,-152.5 445,-152.5 445,-126.5 216,-126.5"/>
<text text-anchor="middle" x="330.5" y="-135.7" font-family="Source Sans Pro" font-size="16.00">openglGraphicsEngineLink.hpp</text>
</a>
</g>
</g>
<!-- Node1&#45;&gt;Node4 -->
<g id="edge3" class="edge">
<title>Node1&#45;&gt;Node4</title>
<path fill="none" stroke="midnightblue" d="M380.41,-189.18C370.34,-179.36 359.44,-168.73 350.4,-159.91"/>
<polygon fill="midnightblue" stroke="midnightblue" points="352.61,-157.18 343.01,-152.7 347.73,-162.19 352.61,-157.18"/>
</g>
<!-- Node13 -->
<g id="node13" class="node">
<title>Node13</title>
<g id="a_node13"><a xlink:title=" ">
<polygon fill="white" stroke="#bfbfbf" points="463.5,-126.5 463.5,-152.5 523.5,-152.5 523.5,-126.5 463.5,-126.5"/>
<text text-anchor="middle" x="493.5" y="-135.7" font-family="Source Sans Pro" font-size="16.00">deque</text>
</a>
</g>
</g>
<!-- Node1&#45;&gt;Node13 -->
<g id="edge12" class="edge">
<title>Node1&#45;&gt;Node13</title>
<path fill="none" stroke="midnightblue" d="M442.97,-189.18C453.27,-179.26 464.43,-168.51 473.63,-159.65"/>
<polygon fill="midnightblue" stroke="midnightblue" points="476.06,-162.16 480.83,-152.7 471.2,-157.12 476.06,-162.16"/>
</g>
<!-- Node14 -->
<g id="node14" class="node">
<title>Node14</title>
<g id="a_node14"><a xlink:title=" ">
<polygon fill="white" stroke="#bfbfbf" points="541.5,-126.5 541.5,-152.5 627.5,-152.5 627.5,-126.5 541.5,-126.5"/>
<text text-anchor="middle" x="584.5" y="-135.7" font-family="Source Sans Pro" font-size="16.00">functional</text>
</a>
</g>
</g>
<!-- Node1&#45;&gt;Node14 -->
<g id="edge13" class="edge">
<title>Node1&#45;&gt;Node14</title>
<path fill="none" stroke="midnightblue" d="M477.4,-189.41C501.63,-178.34 528.16,-166.23 548.75,-156.83"/>
<polygon fill="midnightblue" stroke="midnightblue" points="550.41,-159.91 558.05,-152.58 547.5,-153.55 550.41,-159.91"/>
</g>
<!-- Node3 -->
<g id="node3" class="node">
<title>Node3</title>
<g id="a_node3"><a xlink:title=" ">
<polygon fill="white" stroke="#bfbfbf" points="79.5,-63.5 79.5,-89.5 179.5,-89.5 179.5,-63.5 79.5,-63.5"/>
<text text-anchor="middle" x="129.5" y="-72.7" font-family="Source Sans Pro" font-size="16.00">stb_image.h</text>
</a>
</g>
</g>
<!-- Node2&#45;&gt;Node3 -->
<g id="edge2" class="edge">
<title>Node2&#45;&gt;Node3</title>
<path fill="none" stroke="midnightblue" d="M129.5,-126.45C129.5,-118.85 129.5,-108.79 129.5,-99.78"/>
<polygon fill="midnightblue" stroke="midnightblue" points="133,-99.53 129.5,-89.53 126,-99.53 133,-99.53"/>
</g>
<!-- Node5 -->
<g id="node5" class="node">
<title>Node5</title>
<g id="a_node5"><a xlink:href="opengl_settings_8hpp.html" target="_top" xlink:title=" ">
<polygon fill="white" stroke="black" points="256,-63.5 256,-89.5 405,-89.5 405,-63.5 256,-63.5"/>
<text text-anchor="middle" x="330.5" y="-72.7" font-family="Source Sans Pro" font-size="16.00">openglSettings.hpp</text>
</a>
</g>
</g>
<!-- Node4&#45;&gt;Node5 -->
<g id="edge4" class="edge">
<title>Node4&#45;&gt;Node5</title>
<path fill="none" stroke="midnightblue" d="M330.5,-126.45C330.5,-118.85 330.5,-108.79 330.5,-99.78"/>
<polygon fill="midnightblue" stroke="midnightblue" points="334,-99.53 330.5,-89.53 327,-99.53 334,-99.53"/>
</g>
<!-- Node6 -->
<g id="node6" class="node">
<title>Node6</title>
<g id="a_node6"><a xlink:title=" ">
<polygon fill="white" stroke="#bfbfbf" points="0,-0.5 0,-26.5 83,-26.5 83,-0.5 0,-0.5"/>
<text text-anchor="middle" x="41.5" y="-9.7" font-family="Source Sans Pro" font-size="16.00">GL/glew.h</text>
</a>
</g>
</g>
<!-- Node5&#45;&gt;Node6 -->
<g id="edge5" class="edge">
<title>Node5&#45;&gt;Node6</title>
<path fill="none" stroke="midnightblue" d="M267.72,-63.41C222,-54.44 158.33,-41.62 93.25,-27.11"/>
<polygon fill="midnightblue" stroke="midnightblue" points="93.74,-23.64 83.22,-24.87 92.21,-30.47 93.74,-23.64"/>
</g>
<!-- Node7 -->
<g id="node7" class="node">
<title>Node7</title>
<g id="a_node7"><a xlink:title=" ">
<polygon fill="white" stroke="#bfbfbf" points="101.5,-0.5 101.5,-26.5 209.5,-26.5 209.5,-0.5 101.5,-0.5"/>
<text text-anchor="middle" x="155.5" y="-9.7" font-family="Source Sans Pro" font-size="16.00">GLFW/glfw3.h</text>
</a>
</g>
</g>
<!-- Node5&#45;&gt;Node7 -->
<g id="edge6" class="edge">
<title>Node5&#45;&gt;Node7</title>
<path fill="none" stroke="midnightblue" d="M295.93,-63.45C268.36,-53.84 229.57,-40.32 199.75,-29.92"/>
<polygon fill="midnightblue" stroke="midnightblue" points="200.6,-26.51 190,-26.53 198.29,-33.12 200.6,-26.51"/>
</g>
<!-- Node8 -->
<g id="node8" class="node">
<title>Node8</title>
<g id="a_node8"><a xlink:title=" ">
<polygon fill="white" stroke="#bfbfbf" points="228,-0.5 228,-26.5 287,-26.5 287,-0.5 228,-0.5"/>
<text text-anchor="middle" x="257.5" y="-9.7" font-family="Source Sans Pro" font-size="16.00">vector</text>
</a>
</g>
</g>
<!-- Node5&#45;&gt;Node8 -->
<g id="edge7" class="edge">
<title>Node5&#45;&gt;Node8</title>
<path fill="none" stroke="midnightblue" d="M316.08,-63.45C305.68,-54.76 291.45,-42.87 279.62,-32.99"/>
<polygon fill="midnightblue" stroke="midnightblue" points="281.81,-30.25 271.89,-26.53 277.32,-35.62 281.81,-30.25"/>
</g>
<!-- Node9 -->
<g id="node9" class="node">
<title>Node9</title>
<g id="a_node9"><a xlink:title=" ">
<polygon fill="white" stroke="#bfbfbf" points="305,-0.5 305,-26.5 356,-26.5 356,-0.5 305,-0.5"/>
<text text-anchor="middle" x="330.5" y="-9.7" font-family="Source Sans Pro" font-size="16.00">array</text>
</a>
</g>
</g>
<!-- Node5&#45;&gt;Node9 -->
<g id="edge8" class="edge">
<title>Node5&#45;&gt;Node9</title>
<path fill="none" stroke="midnightblue" d="M330.5,-63.45C330.5,-55.85 330.5,-45.79 330.5,-36.78"/>
<polygon fill="midnightblue" stroke="midnightblue" points="334,-36.53 330.5,-26.53 327,-36.53 334,-36.53"/>
</g>
<!-- Node10 -->
<g id="node10" class="node">
<title>Node10</title>
<g id="a_node10"><a xlink:title=" ">
<polygon fill="white" stroke="#bfbfbf" points="374,-0.5 374,-26.5 435,-26.5 435,-0.5 374,-0.5"/>
<text text-anchor="middle" x="404.5" y="-9.7" font-family="Source Sans Pro" font-size="16.00">climits</text>
</a>
</g>
</g>
<!-- Node5&#45;&gt;Node10 -->
<g id="edge9" class="edge">
<title>Node5&#45;&gt;Node10</title>
<path fill="none" stroke="midnightblue" d="M345.12,-63.45C355.66,-54.76 370.08,-42.87 382.07,-32.99"/>
<polygon fill="midnightblue" stroke="midnightblue" points="384.42,-35.59 389.91,-26.53 379.97,-30.19 384.42,-35.59"/>
</g>
<!-- Node11 -->
<g id="node11" class="node">
<title>Node11</title>
<g id="a_node11"><a xlink:title=" ">
<polygon fill="white" stroke="#bfbfbf" points="453.5,-0.5 453.5,-26.5 525.5,-26.5 525.5,-0.5 453.5,-0.5"/>
<text text-anchor="middle" x="489.5" y="-9.7" font-family="Source Sans Pro" font-size="16.00">unistd.h</text>
</a>
</g>
</g>
<!-- Node5&#45;&gt;Node11 -->
<g id="edge10" class="edge">
<title>Node5&#45;&gt;Node11</title>
<path fill="none" stroke="midnightblue" d="M361.91,-63.45C386.74,-53.92 421.59,-40.55 448.59,-30.19"/>
<polygon fill="midnightblue" stroke="midnightblue" points="450.07,-33.38 458.15,-26.53 447.56,-26.84 450.07,-33.38"/>
</g>
<!-- Node12 -->
<g id="node12" class="node">
<title>Node12</title>
<g id="a_node12"><a xlink:title=" ">
<polygon fill="white" stroke="#bfbfbf" points="544,-0.5 544,-26.5 599,-26.5 599,-0.5 544,-0.5"/>
<text text-anchor="middle" x="571.5" y="-9.7" font-family="Source Sans Pro" font-size="16.00">string</text>
</a>
</g>
</g>
<!-- Node5&#45;&gt;Node12 -->
<g id="edge11" class="edge">
<title>Node5&#45;&gt;Node12</title>
<path fill="none" stroke="midnightblue" d="M387.59,-63.41C426.36,-54.86 478.97,-42.6 533.81,-27.04"/>
<polygon fill="midnightblue" stroke="midnightblue" points="535.06,-30.32 543.71,-24.2 533.13,-23.59 535.06,-30.32"/>
</g>
</g>
</svg>
