<?xml version="1.0" encoding="UTF-8" standalone="no"?>
<!DOCTYPE svg PUBLIC "-//W3C//DTD SVG 1.1//EN"
 "http://www.w3.org/Graphics/SVG/1.1/DTD/svg11.dtd">
<!-- Generated by graphviz version 2.43.0 (0)
 -->
<!-- Title: Illumination&#45;Engine/src/GraphicsModule/OpenGL/openglShader.hpp Pages: 1 -->
<svg width="542pt" height="134pt"
 viewBox="0.00 0.00 541.50 134.00" xmlns="http://www.w3.org/2000/svg" xmlns:xlink="http://www.w3.org/1999/xlink">
<g id="graph0" class="graph" transform="scale(1 1) rotate(0) translate(4 130)">
<title>Illumination&#45;Engine/src/GraphicsModule/OpenGL/openglShader.hpp</title>
<polygon fill="white" stroke="transparent" points="-4,4 -4,-130 537.5,-130 537.5,4 -4,4"/>
<!-- Node1 -->
<g id="node1" class="node">
<title>Node1</title>
<g id="a_node1"><a xlink:title=" ">
<polygon fill="#bfbfbf" stroke="black" points="146,-63.5 146,-125.5 352,-125.5 352,-63.5 146,-63.5"/>
<text text-anchor="start" x="154" y="-108.7" font-family="Source Sans Pro" font-size="16.00">Illumination&#45;Engine</text>
<text text-anchor="start" x="154" y="-90.7" font-family="Source Sans Pro" font-size="16.00">/src/GraphicsModule</text>
<text text-anchor="middle" x="249" y="-72.7" font-family="Source Sans Pro" font-size="16.00">/OpenGL/openglShader.hpp</text>
</a>
</g>
</g>
<!-- Node2 -->
<g id="node2" class="node">
<title>Node2</title>
<g id="a_node2"><a xlink:title=" ">
<polygon fill="white" stroke="#bfbfbf" points="0,-0.5 0,-26.5 68,-26.5 68,-0.5 0,-0.5"/>
<text text-anchor="middle" x="34" y="-9.7" font-family="Source Sans Pro" font-size="16.00">fstream</text>
</a>
</g>
</g>
<!-- Node1&#45;&gt;Node2 -->
<g id="edge1" class="edge">
<title>Node1&#45;&gt;Node2</title>
<path fill="none" stroke="midnightblue" d="M167.1,-63.41C136.17,-52.04 102.23,-39.57 76.36,-30.07"/>
<polygon fill="midnightblue" stroke="midnightblue" points="77.46,-26.74 66.87,-26.58 75.05,-33.31 77.46,-26.74"/>
</g>
<!-- Node3 -->
<g id="node3" class="node">
<title>Node3</title>
<g id="a_node3"><a xlink:title=" ">
<polygon fill="white" stroke="#bfbfbf" points="86,-0.5 86,-26.5 156,-26.5 156,-0.5 86,-0.5"/>
<text text-anchor="middle" x="121" y="-9.7" font-family="Source Sans Pro" font-size="16.00">sstream</text>
</a>
</g>
</g>
<!-- Node1&#45;&gt;Node3 -->
<g id="edge2" class="edge">
<title>Node1&#45;&gt;Node3</title>
<path fill="none" stroke="midnightblue" d="M200.24,-63.41C183.04,-52.79 164.28,-41.21 149.33,-31.99"/>
<polygon fill="midnightblue" stroke="midnightblue" points="150.92,-28.85 140.57,-26.58 147.24,-34.81 150.92,-28.85"/>
</g>
<!-- Node4 -->
<g id="node4" class="node">
<title>Node4</title>
<g id="a_node4"><a xlink:title=" ">
<polygon fill="white" stroke="#bfbfbf" points="174,-0.5 174,-26.5 234,-26.5 234,-0.5 174,-0.5"/>
<text text-anchor="middle" x="204" y="-9.7" font-family="Source Sans Pro" font-size="16.00">deque</text>
</a>
</g>
</g>
<!-- Node1&#45;&gt;Node4 -->
<g id="edge3" class="edge">
<title>Node1&#45;&gt;Node4</title>
<path fill="none" stroke="midnightblue" d="M231.73,-63.18C226.47,-53.95 220.81,-44.01 215.98,-35.54"/>
<polygon fill="midnightblue" stroke="midnightblue" points="218.94,-33.66 210.95,-26.7 212.86,-37.12 218.94,-33.66"/>
</g>
<!-- Node5 -->
<g id="node5" class="node">
<title>Node5</title>
<g id="a_node5"><a xlink:title=" ">
<polygon fill="white" stroke="#bfbfbf" points="252,-0.5 252,-26.5 338,-26.5 338,-0.5 252,-0.5"/>
<text text-anchor="middle" x="295" y="-9.7" font-family="Source Sans Pro" font-size="16.00">functional</text>
</a>
</g>
</g>
<!-- Node1&#45;&gt;Node5 -->
<g id="edge4" class="edge">
<title>Node1&#45;&gt;Node5</title>
<path fill="none" stroke="midnightblue" d="M266.65,-63.18C272.03,-53.95 277.82,-44.01 282.75,-35.54"/>
<polygon fill="midnightblue" stroke="midnightblue" points="285.89,-37.11 287.89,-26.7 279.84,-33.58 285.89,-37.11"/>
</g>
<!-- Node6 -->
<g id="node6" class="node">
<title>Node6</title>
<g id="a_node6"><a xlink:title=" ">
<polygon fill="white" stroke="#bfbfbf" points="356,-0.5 356,-26.5 432,-26.5 432,-0.5 356,-0.5"/>
<text text-anchor="middle" x="394" y="-9.7" font-family="Source Sans Pro" font-size="16.00">iostream</text>
</a>
</g>
</g>
<!-- Node1&#45;&gt;Node6 -->
<g id="edge5" class="edge">
<title>Node1&#45;&gt;Node6</title>
<path fill="none" stroke="midnightblue" d="M304.23,-63.41C324.09,-52.59 345.77,-40.78 362.86,-31.47"/>
<polygon fill="midnightblue" stroke="midnightblue" points="364.73,-34.43 371.83,-26.58 361.38,-28.29 364.73,-34.43"/>
</g>
<!-- Node7 -->
<g id="node7" class="node">
<title>Node7</title>
<g id="a_node7"><a xlink:title=" ">
<polygon fill="white" stroke="#bfbfbf" points="450.5,-0.5 450.5,-26.5 533.5,-26.5 533.5,-0.5 450.5,-0.5"/>
<text text-anchor="middle" x="492" y="-9.7" font-family="Source Sans Pro" font-size="16.00">GL/glew.h</text>
</a>
</g>
</g>
<!-- Node1&#45;&gt;Node7 -->
<g id="edge6" class="edge">
<title>Node1&#45;&gt;Node7</title>
<path fill="none" stroke="midnightblue" d="M341.56,-63.41C376.99,-51.89 415.9,-39.24 445.28,-29.69"/>
<polygon fill="midnightblue" stroke="midnightblue" points="446.42,-33 454.85,-26.58 444.26,-26.34 446.42,-33"/>
</g>
</g>
</svg>
