<?xml version="1.0" encoding="UTF-8" standalone="no"?>
<!DOCTYPE svg PUBLIC "-//W3C//DTD SVG 1.1//EN"
 "http://www.w3.org/Graphics/SVG/1.1/DTD/svg11.dtd">
<!-- Generated by graphviz version 2.43.0 (0)
 -->
<!-- Title: Illumination&#45;Engine/src/GraphicsModule/OpenGL/openglProgram.hpp Pages: 1 -->
<svg width="262pt" height="350pt"
 viewBox="0.00 0.00 262.00 350.00" xmlns="http://www.w3.org/2000/svg" xmlns:xlink="http://www.w3.org/1999/xlink">
<g id="graph0" class="graph" transform="scale(1 1) rotate(0) translate(4 346)">
<title>Illumination&#45;Engine/src/GraphicsModule/OpenGL/openglProgram.hpp</title>
<polygon fill="white" stroke="transparent" points="-4,4 -4,-346 258,-346 258,4 -4,4"/>
<!-- Node1 -->
<g id="node1" class="node">
<title>Node1</title>
<g id="a_node1"><a xlink:title=" ">
<polygon fill="#bfbfbf" stroke="black" points="18,-279.5 18,-341.5 236,-341.5 236,-279.5 18,-279.5"/>
<text text-anchor="start" x="26" y="-324.7" font-family="Source Sans Pro" font-size="16.00">Illumination&#45;Engine</text>
<text text-anchor="start" x="26" y="-306.7" font-family="Source Sans Pro" font-size="16.00">/src/GraphicsModule</text>
<text text-anchor="middle" x="127" y="-288.7" font-family="Source Sans Pro" font-size="16.00">/OpenGL/openglProgram.hpp</text>
</a>
</g>
</g>
<!-- Node2 -->
<g id="node2" class="node">
<title>Node2</title>
<g id="a_node2"><a xlink:href="opengl_renderable_8hpp.html" target="_top" xlink:title=" ">
<polygon fill="white" stroke="black" points="8.5,-180.5 8.5,-242.5 245.5,-242.5 245.5,-180.5 8.5,-180.5"/>
<text text-anchor="start" x="16.5" y="-225.7" font-family="Source Sans Pro" font-size="16.00">Illumination&#45;Engine</text>
<text text-anchor="start" x="16.5" y="-207.7" font-family="Source Sans Pro" font-size="16.00">/src/GraphicsModule</text>
<text text-anchor="middle" x="127" y="-189.7" font-family="Source Sans Pro" font-size="16.00">/OpenGL/openglRenderable.hpp</text>
</a>
</g>
</g>
<!-- Node1&#45;&gt;Node2 -->
<g id="edge1" class="edge">
<title>Node1&#45;&gt;Node2</title>
<path fill="none" stroke="midnightblue" d="M127,-269.17C127,-260.29 127,-251.03 127,-242.64"/>
<polygon fill="midnightblue" stroke="midnightblue" points="123.5,-269.34 127,-279.34 130.5,-269.34 123.5,-269.34"/>
</g>
<!-- Node3 -->
<g id="node3" class="node">
<title>Node3</title>
<g id="a_node3"><a xlink:href="opengl_render_engine_8hpp.html" target="_top" xlink:title=" ">
<polygon fill="white" stroke="black" points="0,-81.5 0,-143.5 254,-143.5 254,-81.5 0,-81.5"/>
<text text-anchor="start" x="8" y="-126.7" font-family="Source Sans Pro" font-size="16.00">Illumination&#45;Engine</text>
<text text-anchor="start" x="8" y="-108.7" font-family="Source Sans Pro" font-size="16.00">/src/GraphicsModule</text>
<text text-anchor="middle" x="127" y="-90.7" font-family="Source Sans Pro" font-size="16.00">/OpenGL/openglRenderEngine.hpp</text>
</a>
</g>
</g>
<!-- Node2&#45;&gt;Node3 -->
<g id="edge2" class="edge">
<title>Node2&#45;&gt;Node3</title>
<path fill="none" stroke="midnightblue" d="M127,-170.17C127,-161.29 127,-152.03 127,-143.64"/>
<polygon fill="midnightblue" stroke="midnightblue" points="123.5,-170.34 127,-180.34 130.5,-170.34 123.5,-170.34"/>
</g>
<!-- Node4 -->
<g id="node4" class="node">
<title>Node4</title>
<g id="a_node4"><a xlink:href="main_8cpp.html" target="_top" xlink:title=" ">
<polygon fill="white" stroke="black" points="52,-0.5 52,-44.5 202,-44.5 202,-0.5 52,-0.5"/>
<text text-anchor="start" x="60" y="-27.7" font-family="Source Sans Pro" font-size="16.00">Illumination&#45;Engine</text>
<text text-anchor="middle" x="127" y="-9.7" font-family="Source Sans Pro" font-size="16.00">/src/main.cpp</text>
</a>
</g>
</g>
<!-- Node3&#45;&gt;Node4 -->
<g id="edge3" class="edge">
<title>Node3&#45;&gt;Node4</title>
<path fill="none" stroke="midnightblue" d="M127,-71.09C127,-61.97 127,-52.64 127,-44.68"/>
<polygon fill="midnightblue" stroke="midnightblue" points="123.5,-71.22 127,-81.22 130.5,-71.22 123.5,-71.22"/>
</g>
</g>
</svg>
