<?xml version="1.0" encoding="UTF-8" standalone="no"?>
<!DOCTYPE svg PUBLIC "-//W3C//DTD SVG 1.1//EN"
 "http://www.w3.org/Graphics/SVG/1.1/DTD/svg11.dtd">
<!-- Generated by graphviz version 2.43.0 (0)
 -->
<!-- Title: Illumination&#45;Engine/src/GraphicsModule/OpenGL/openglProgram.hpp Pages: 1 -->
<svg width="542pt" height="197pt"
 viewBox="0.00 0.00 541.50 197.00" xmlns="http://www.w3.org/2000/svg" xmlns:xlink="http://www.w3.org/1999/xlink">
<g id="graph0" class="graph" transform="scale(1 1) rotate(0) translate(4 193)">
<title>Illumination&#45;Engine/src/GraphicsModule/OpenGL/openglProgram.hpp</title>
<polygon fill="white" stroke="transparent" points="-4,4 -4,-193 537.5,-193 537.5,4 -4,4"/>
<!-- Node1 -->
<g id="node1" class="node">
<title>Node1</title>
<g id="a_node1"><a xlink:title=" ">
<polygon fill="#bfbfbf" stroke="black" points="140,-126.5 140,-188.5 358,-188.5 358,-126.5 140,-126.5"/>
<text text-anchor="start" x="148" y="-171.7" font-family="Source Sans Pro" font-size="16.00">Illumination&#45;Engine</text>
<text text-anchor="start" x="148" y="-153.7" font-family="Source Sans Pro" font-size="16.00">/src/GraphicsModule</text>
<text text-anchor="middle" x="249" y="-135.7" font-family="Source Sans Pro" font-size="16.00">/OpenGL/openglProgram.hpp</text>
</a>
</g>
</g>
<!-- Node2 -->
<g id="node2" class="node">
<title>Node2</title>
<g id="a_node2"><a xlink:href="opengl_shader_8hpp.html" target="_top" xlink:title=" ">
<polygon fill="white" stroke="black" points="178,-63.5 178,-89.5 320,-89.5 320,-63.5 178,-63.5"/>
<text text-anchor="middle" x="249" y="-72.7" font-family="Source Sans Pro" font-size="16.00">openglShader.hpp</text>
</a>
</g>
</g>
<!-- Node1&#45;&gt;Node2 -->
<g id="edge1" class="edge">
<title>Node1&#45;&gt;Node2</title>
<path fill="none" stroke="midnightblue" d="M249,-126.18C249,-117.45 249,-108.08 249,-99.91"/>
<polygon fill="midnightblue" stroke="midnightblue" points="252.5,-99.7 249,-89.7 245.5,-99.7 252.5,-99.7"/>
</g>
<!-- Node3 -->
<g id="node3" class="node">
<title>Node3</title>
<g id="a_node3"><a xlink:title=" ">
<polygon fill="white" stroke="#bfbfbf" points="0,-0.5 0,-26.5 68,-26.5 68,-0.5 0,-0.5"/>
<text text-anchor="middle" x="34" y="-9.7" font-family="Source Sans Pro" font-size="16.00">fstream</text>
</a>
</g>
</g>
<!-- Node2&#45;&gt;Node3 -->
<g id="edge2" class="edge">
<title>Node2&#45;&gt;Node3</title>
<path fill="none" stroke="midnightblue" d="M205.85,-63.44C173.23,-54.29 127.06,-41.3 78.09,-27.3"/>
<polygon fill="midnightblue" stroke="midnightblue" points="78.84,-23.87 68.26,-24.49 76.91,-30.6 78.84,-23.87"/>
</g>
<!-- Node4 -->
<g id="node4" class="node">
<title>Node4</title>
<g id="a_node4"><a xlink:title=" ">
<polygon fill="white" stroke="#bfbfbf" points="86,-0.5 86,-26.5 156,-26.5 156,-0.5 86,-0.5"/>
<text text-anchor="middle" x="121" y="-9.7" font-family="Source Sans Pro" font-size="16.00">sstream</text>
</a>
</g>
</g>
<!-- Node2&#45;&gt;Node4 -->
<g id="edge3" class="edge">
<title>Node2&#45;&gt;Node4</title>
<path fill="none" stroke="midnightblue" d="M223.71,-63.45C204.16,-54.13 176.9,-41.14 155.37,-30.88"/>
<polygon fill="midnightblue" stroke="midnightblue" points="156.77,-27.67 146.24,-26.53 153.76,-33.99 156.77,-27.67"/>
</g>
<!-- Node5 -->
<g id="node5" class="node">
<title>Node5</title>
<g id="a_node5"><a xlink:title=" ">
<polygon fill="white" stroke="#bfbfbf" points="174,-0.5 174,-26.5 234,-26.5 234,-0.5 174,-0.5"/>
<text text-anchor="middle" x="204" y="-9.7" font-family="Source Sans Pro" font-size="16.00">deque</text>
</a>
</g>
</g>
<!-- Node2&#45;&gt;Node5 -->
<g id="edge4" class="edge">
<title>Node2&#45;&gt;Node5</title>
<path fill="none" stroke="midnightblue" d="M240.11,-63.45C234.07,-55.26 225.93,-44.23 218.91,-34.72"/>
<polygon fill="midnightblue" stroke="midnightblue" points="221.63,-32.5 212.87,-26.53 215.99,-36.65 221.63,-32.5"/>
</g>
<!-- Node6 -->
<g id="node6" class="node">
<title>Node6</title>
<g id="a_node6"><a xlink:title=" ">
<polygon fill="white" stroke="#bfbfbf" points="252,-0.5 252,-26.5 338,-26.5 338,-0.5 252,-0.5"/>
<text text-anchor="middle" x="295" y="-9.7" font-family="Source Sans Pro" font-size="16.00">functional</text>
</a>
</g>
</g>
<!-- Node2&#45;&gt;Node6 -->
<g id="edge5" class="edge">
<title>Node2&#45;&gt;Node6</title>
<path fill="none" stroke="midnightblue" d="M258.09,-63.45C264.26,-55.26 272.58,-44.23 279.76,-34.72"/>
<polygon fill="midnightblue" stroke="midnightblue" points="282.7,-36.62 285.93,-26.53 277.12,-32.4 282.7,-36.62"/>
</g>
<!-- Node7 -->
<g id="node7" class="node">
<title>Node7</title>
<g id="a_node7"><a xlink:title=" ">
<polygon fill="white" stroke="#bfbfbf" points="356,-0.5 356,-26.5 432,-26.5 432,-0.5 356,-0.5"/>
<text text-anchor="middle" x="394" y="-9.7" font-family="Source Sans Pro" font-size="16.00">iostream</text>
</a>
</g>
</g>
<!-- Node2&#45;&gt;Node7 -->
<g id="edge6" class="edge">
<title>Node2&#45;&gt;Node7</title>
<path fill="none" stroke="midnightblue" d="M277.65,-63.45C300.09,-54.01 331.51,-40.79 356.04,-30.47"/>
<polygon fill="midnightblue" stroke="midnightblue" points="357.55,-33.63 365.41,-26.53 354.84,-27.18 357.55,-33.63"/>
</g>
<!-- Node8 -->
<g id="node8" class="node">
<title>Node8</title>
<g id="a_node8"><a xlink:title=" ">
<polygon fill="white" stroke="#bfbfbf" points="450.5,-0.5 450.5,-26.5 533.5,-26.5 533.5,-0.5 450.5,-0.5"/>
<text text-anchor="middle" x="492" y="-9.7" font-family="Source Sans Pro" font-size="16.00">GL/glew.h</text>
</a>
</g>
</g>
<!-- Node2&#45;&gt;Node8 -->
<g id="edge7" class="edge">
<title>Node2&#45;&gt;Node8</title>
<path fill="none" stroke="midnightblue" d="M297.01,-63.45C338.37,-53.07 397.93,-38.11 440.32,-27.47"/>
<polygon fill="midnightblue" stroke="midnightblue" points="441.32,-30.83 450.17,-25 439.62,-24.04 441.32,-30.83"/>
</g>
</g>
</svg>
