<?xml version="1.0" encoding="UTF-8" standalone="no"?>
<!DOCTYPE svg PUBLIC "-//W3C//DTD SVG 1.1//EN"
 "http://www.w3.org/Graphics/SVG/1.1/DTD/svg11.dtd">
<!-- Generated by graphviz version 2.43.0 (0)
 -->
<!-- Title: VulkanPipeline::CreateInfo Pages: 1 -->
<svg width="318pt" height="215pt"
 viewBox="0.00 0.00 318.00 215.00" xmlns="http://www.w3.org/2000/svg" xmlns:xlink="http://www.w3.org/1999/xlink">
<g id="graph0" class="graph" transform="scale(1 1) rotate(0) translate(4 211)">
<title>VulkanPipeline::CreateInfo</title>
<polygon fill="white" stroke="transparent" points="-4,4 -4,-211 314,-211 314,4 -4,4"/>
<!-- Node1 -->
<g id="node1" class="node">
<title>Node1</title>
<g id="a_node1"><a xlink:title=" ">
<polygon fill="#bfbfbf" stroke="black" points="85,-0.5 85,-26.5 279,-26.5 279,-0.5 85,-0.5"/>
<text text-anchor="middle" x="182" y="-9.7" font-family="Source Sans Pro" font-size="16.00">VulkanPipeline::CreateInfo</text>
</a>
</g>
</g>
<!-- Node2 -->
<g id="node2" class="node">
<title>Node2</title>
<g id="a_node2"><a xlink:href="class_vulkan_descriptor_set.html" target="_top" xlink:title=" ">
<polygon fill="white" stroke="black" points="0,-81.5 0,-107.5 152,-107.5 152,-81.5 0,-81.5"/>
<text text-anchor="middle" x="76" y="-90.7" font-family="Source Sans Pro" font-size="16.00">VulkanDescriptorSet</text>
</a>
</g>
</g>
<!-- Node2&#45;&gt;Node1 -->
<g id="edge1" class="edge">
<title>Node2&#45;&gt;Node1</title>
<path fill="none" stroke="#9a32cd" stroke-dasharray="5,2" d="M86.21,-72.4C91.62,-63.01 99.01,-52.41 108,-45 117.44,-37.22 129.13,-31.19 140.41,-26.62"/>
<polygon fill="#9a32cd" stroke="#9a32cd" points="83.11,-70.77 81.48,-81.24 89.29,-74.08 83.11,-70.77"/>
<text text-anchor="middle" x="154.5" y="-50.2" font-family="Source Sans Pro" font-size="16.00"> descriptorSet</text>
</g>
<!-- Node3 -->
<g id="node3" class="node">
<title>Node3</title>
<g id="a_node3"><a xlink:href="struct_vulkan_descriptor_set_1_1_create_info.html" target="_top" xlink:title=" ">
<polygon fill="white" stroke="black" points="0,-162.5 0,-206.5 152,-206.5 152,-162.5 0,-162.5"/>
<text text-anchor="start" x="8" y="-189.7" font-family="Source Sans Pro" font-size="16.00">VulkanDescriptorSet</text>
<text text-anchor="middle" x="76" y="-171.7" font-family="Source Sans Pro" font-size="16.00">::CreateInfo</text>
</a>
</g>
</g>
<!-- Node3&#45;&gt;Node2 -->
<g id="edge2" class="edge">
<title>Node3&#45;&gt;Node2</title>
<path fill="none" stroke="#9a32cd" stroke-dasharray="5,2" d="M76,-152.02C76,-136.67 76,-119.09 76,-107.67"/>
<polygon fill="#9a32cd" stroke="#9a32cd" points="72.5,-152.2 76,-162.2 79.5,-152.2 72.5,-152.2"/>
<text text-anchor="middle" x="118.5" y="-131.2" font-family="Source Sans Pro" font-size="16.00"> createdWith</text>
</g>
<!-- Node4 -->
<g id="node4" class="node">
<title>Node4</title>
<g id="a_node4"><a xlink:href="class_vulkan_render_pass.html" target="_top" xlink:title=" ">
<polygon fill="white" stroke="black" points="170,-81.5 170,-107.5 310,-107.5 310,-81.5 170,-81.5"/>
<text text-anchor="middle" x="240" y="-90.7" font-family="Source Sans Pro" font-size="16.00">VulkanRenderPass</text>
</a>
</g>
</g>
<!-- Node4&#45;&gt;Node1 -->
<g id="edge3" class="edge">
<title>Node4&#45;&gt;Node1</title>
<path fill="none" stroke="#9a32cd" stroke-dasharray="5,2" d="M224.75,-72.73C214.01,-58.1 200,-39.02 191,-26.76"/>
<polygon fill="#9a32cd" stroke="#9a32cd" points="222.2,-75.17 230.94,-81.16 227.84,-71.02 222.2,-75.17"/>
<text text-anchor="middle" x="255.5" y="-50.2" font-family="Source Sans Pro" font-size="16.00"> renderPass</text>
</g>
</g>
</svg>
