<?xml version="1.0" encoding="UTF-8" standalone="no"?>
<!DOCTYPE svg PUBLIC "-//W3C//DTD SVG 1.1//EN"
 "http://www.w3.org/Graphics/SVG/1.1/DTD/svg11.dtd">
<!-- Generated by graphviz version 2.43.0 (0)
 -->
<!-- Title: VulkanRenderable::VulkanMesh Pages: 1 -->
<svg width="1839pt" height="206pt"
 viewBox="0.00 0.00 1839.00 205.50" xmlns="http://www.w3.org/2000/svg" xmlns:xlink="http://www.w3.org/1999/xlink">
<g id="graph0" class="graph" transform="scale(1 1) rotate(0) translate(4 201.5)">
<title>VulkanRenderable::VulkanMesh</title>
<polygon fill="white" stroke="transparent" points="-4,4 -4,-201.5 1835,-201.5 1835,4 -4,4"/>
<!-- Node1 -->
<g id="node1" class="node">
<title>Node1</title>
<g id="a_node1"><a xlink:title=" ">
<polygon fill="#bfbfbf" stroke="black" points="1603,-59.5 1603,-85.5 1831,-85.5 1831,-59.5 1603,-59.5"/>
<text text-anchor="middle" x="1717" y="-68.7" font-family="Source Sans Pro" font-size="16.00">VulkanRenderable::VulkanMesh</text>
</a>
</g>
</g>
<!-- Node2 -->
<g id="node2" class="node">
<title>Node2</title>
<g id="a_node2"><a xlink:href="class_vulkan_buffer.html" target="_top" xlink:title=" ">
<polygon fill="white" stroke="black" points="847.5,-127.5 847.5,-153.5 950.5,-153.5 950.5,-127.5 847.5,-127.5"/>
<text text-anchor="middle" x="899" y="-136.7" font-family="Source Sans Pro" font-size="16.00">VulkanBuffer</text>
</a>
</g>
</g>
<!-- Node2&#45;&gt;Node1 -->
<g id="edge1" class="edge">
<title>Node2&#45;&gt;Node1</title>
<path fill="none" stroke="#9a32cd" stroke-dasharray="5,2" d="M960.8,-142.67C1080.98,-145.88 1357.02,-148 1585,-110.5 1617.71,-105.12 1653.82,-94.26 1679.83,-85.52"/>
<polygon fill="#9a32cd" stroke="#9a32cd" points="960.79,-139.16 950.7,-142.38 960.6,-146.16 960.79,-139.16"/>
<text text-anchor="middle" x="1228.5" y="-184.7" font-family="Source Sans Pro" font-size="16.00"> indexBuffer</text>
<text text-anchor="middle" x="1228.5" y="-166.7" font-family="Source Sans Pro" font-size="16.00">transformationBuffer</text>
<text text-anchor="middle" x="1228.5" y="-148.7" font-family="Source Sans Pro" font-size="16.00">vertexBuffer</text>
</g>
<!-- Node11 -->
<g id="node11" class="node">
<title>Node11</title>
<g id="a_node11"><a xlink:href="class_vulkan_acceleration_structure.html" target="_top" xlink:title=" ">
<polygon fill="white" stroke="black" points="1125,-81.5 1125,-107.5 1332,-107.5 1332,-81.5 1125,-81.5"/>
<text text-anchor="middle" x="1228.5" y="-90.7" font-family="Source Sans Pro" font-size="16.00">VulkanAccelerationStructure</text>
</a>
</g>
</g>
<!-- Node2&#45;&gt;Node11 -->
<g id="edge12" class="edge">
<title>Node2&#45;&gt;Node11</title>
<path fill="none" stroke="midnightblue" d="M960.9,-131.95C1009.69,-125.09 1078.95,-115.36 1134.65,-107.54"/>
<polygon fill="midnightblue" stroke="midnightblue" points="960.23,-128.51 950.81,-133.36 961.2,-135.44 960.23,-128.51"/>
</g>
<!-- Node3 -->
<g id="node3" class="node">
<title>Node3</title>
<g id="a_node3"><a xlink:href="struct_vulkan_buffer_1_1_create_info.html" target="_top" xlink:title=" ">
<polygon fill="white" stroke="black" points="437.5,-166.5 437.5,-192.5 618.5,-192.5 618.5,-166.5 437.5,-166.5"/>
<text text-anchor="middle" x="528" y="-175.7" font-family="Source Sans Pro" font-size="16.00">VulkanBuffer::CreateInfo</text>
</a>
</g>
</g>
<!-- Node3&#45;&gt;Node2 -->
<g id="edge2" class="edge">
<title>Node3&#45;&gt;Node2</title>
<path fill="none" stroke="#9a32cd" stroke-dasharray="5,2" d="M628.74,-172.33C675.89,-168.58 732.92,-163.51 784,-157.5 804.77,-155.06 827.58,-151.78 847.3,-148.75"/>
<polygon fill="#9a32cd" stroke="#9a32cd" points="628.23,-168.86 618.53,-173.14 628.78,-175.84 628.23,-168.86"/>
<text text-anchor="middle" x="714" y="-175.7" font-family="Source Sans Pro" font-size="16.00"> createdWith</text>
</g>
<!-- Node4 -->
<g id="node4" class="node">
<title>Node4</title>
<g id="a_node4"><a xlink:href="class_vulkan_graphics_engine_link.html" target="_top" xlink:title=" ">
<polygon fill="white" stroke="black" points="430,-121.5 430,-147.5 626,-147.5 626,-121.5 430,-121.5"/>
<text text-anchor="middle" x="528" y="-130.7" font-family="Source Sans Pro" font-size="16.00">VulkanGraphicsEngineLink</text>
</a>
</g>
</g>
<!-- Node4&#45;&gt;Node2 -->
<g id="edge3" class="edge">
<title>Node4&#45;&gt;Node2</title>
<path fill="none" stroke="#9a32cd" stroke-dasharray="5,2" d="M636.56,-136.25C706.1,-137.38 793.4,-138.8 847.45,-139.68"/>
<polygon fill="#9a32cd" stroke="#9a32cd" points="636.49,-132.75 626.43,-136.08 636.37,-139.75 636.49,-132.75"/>
<text text-anchor="middle" x="714" y="-143.7" font-family="Source Sans Pro" font-size="16.00"> linkedRenderEngine</text>
</g>
<!-- Node5 -->
<g id="node5" class="node">
<title>Node5</title>
<g id="a_node5"><a xlink:href="struct_vulkan_graphics_engine_link_1_1_physical_device_info.html" target="_top" xlink:title=" ">
<polygon fill="white" stroke="black" points="0,-112.5 0,-156.5 196,-156.5 196,-112.5 0,-112.5"/>
<text text-anchor="start" x="8" y="-139.7" font-family="Source Sans Pro" font-size="16.00">VulkanGraphicsEngineLink</text>
<text text-anchor="middle" x="98" y="-121.7" font-family="Source Sans Pro" font-size="16.00">::PhysicalDeviceInfo</text>
</a>
</g>
</g>
<!-- Node5&#45;&gt;Node4 -->
<g id="edge4" class="edge">
<title>Node5&#45;&gt;Node4</title>
<path fill="none" stroke="#9a32cd" stroke-dasharray="5,2" d="M206.53,-134.5C275.16,-134.5 363.39,-134.5 429.89,-134.5"/>
<polygon fill="#9a32cd" stroke="#9a32cd" points="206.12,-131 196.12,-134.5 206.12,-138 206.12,-131"/>
<text text-anchor="middle" x="313" y="-157.7" font-family="Source Sans Pro" font-size="16.00"> enabledPhysicalDeviceInfo</text>
<text text-anchor="middle" x="313" y="-139.7" font-family="Source Sans Pro" font-size="16.00">supportedPhysicalDeviceInfo</text>
</g>
<!-- Node6 -->
<g id="node6" class="node">
<title>Node6</title>
<g id="a_node6"><a xlink:href="class_vulkan_descriptor_set.html" target="_top" xlink:title=" ">
<polygon fill="white" stroke="black" points="452,-9.5 452,-35.5 604,-35.5 604,-9.5 452,-9.5"/>
<text text-anchor="middle" x="528" y="-18.7" font-family="Source Sans Pro" font-size="16.00">VulkanDescriptorSet</text>
</a>
</g>
</g>
<!-- Node6&#45;&gt;Node1 -->
<g id="edge5" class="edge">
<title>Node6&#45;&gt;Node1</title>
<path fill="none" stroke="#9a32cd" stroke-dasharray="5,2" d="M614.32,-20.97C761.06,-18.77 1070.64,-16.05 1332,-26.5 1444.67,-31.01 1473.33,-29.86 1585,-45.5 1610.07,-49.01 1637.54,-54.43 1660.82,-59.49"/>
<polygon fill="#9a32cd" stroke="#9a32cd" points="613.99,-17.47 604.04,-21.12 614.1,-24.47 613.99,-17.47"/>
<text text-anchor="middle" x="1060.5" y="-25.7" font-family="Source Sans Pro" font-size="16.00"> descriptorSet</text>
</g>
<!-- Node9 -->
<g id="node9" class="node">
<title>Node9</title>
<g id="a_node9"><a xlink:href="struct_vulkan_pipeline_1_1_create_info.html" target="_top" xlink:title=" ">
<polygon fill="white" stroke="black" points="802,-36.5 802,-62.5 996,-62.5 996,-36.5 802,-36.5"/>
<text text-anchor="middle" x="899" y="-45.7" font-family="Source Sans Pro" font-size="16.00">VulkanPipeline::CreateInfo</text>
</a>
</g>
</g>
<!-- Node6&#45;&gt;Node9 -->
<g id="edge9" class="edge">
<title>Node6&#45;&gt;Node9</title>
<path fill="none" stroke="#9a32cd" stroke-dasharray="5,2" d="M614.37,-28.75C670.42,-32.85 743.83,-38.22 801.92,-42.47"/>
<polygon fill="#9a32cd" stroke="#9a32cd" points="614.35,-25.24 604.12,-28 613.84,-32.22 614.35,-25.24"/>
<text text-anchor="middle" x="714" y="-46.7" font-family="Source Sans Pro" font-size="16.00"> descriptorSet</text>
</g>
<!-- Node7 -->
<g id="node7" class="node">
<title>Node7</title>
<g id="a_node7"><a xlink:href="struct_vulkan_descriptor_set_1_1_create_info.html" target="_top" xlink:title=" ">
<polygon fill="white" stroke="black" points="22,-0.5 22,-44.5 174,-44.5 174,-0.5 22,-0.5"/>
<text text-anchor="start" x="30" y="-27.7" font-family="Source Sans Pro" font-size="16.00">VulkanDescriptorSet</text>
<text text-anchor="middle" x="98" y="-9.7" font-family="Source Sans Pro" font-size="16.00">::CreateInfo</text>
</a>
</g>
</g>
<!-- Node7&#45;&gt;Node6 -->
<g id="edge6" class="edge">
<title>Node7&#45;&gt;Node6</title>
<path fill="none" stroke="#9a32cd" stroke-dasharray="5,2" d="M184.33,-22.5C262.44,-22.5 376.9,-22.5 451.68,-22.5"/>
<polygon fill="#9a32cd" stroke="#9a32cd" points="184.04,-19 174.04,-22.5 184.04,-26 184.04,-19"/>
<text text-anchor="middle" x="313" y="-27.7" font-family="Source Sans Pro" font-size="16.00"> createdWith</text>
</g>
<!-- Node8 -->
<g id="node8" class="node">
<title>Node8</title>
<g id="a_node8"><a xlink:href="class_vulkan_pipeline.html" target="_top" xlink:title=" ">
<polygon fill="white" stroke="black" points="1170.5,-36.5 1170.5,-62.5 1286.5,-62.5 1286.5,-36.5 1170.5,-36.5"/>
<text text-anchor="middle" x="1228.5" y="-45.7" font-family="Source Sans Pro" font-size="16.00">VulkanPipeline</text>
</a>
</g>
</g>
<!-- Node8&#45;&gt;Node1 -->
<g id="edge7" class="edge">
<title>Node8&#45;&gt;Node1</title>
<path fill="none" stroke="#9a32cd" stroke-dasharray="5,2" d="M1296.76,-48.79C1368.31,-48.51 1484.79,-49.41 1585,-56.5 1595.86,-57.27 1607.19,-58.3 1618.46,-59.48"/>
<polygon fill="#9a32cd" stroke="#9a32cd" points="1296.52,-45.29 1286.53,-48.84 1296.55,-52.29 1296.52,-45.29"/>
<text text-anchor="middle" x="1467.5" y="-61.7" font-family="Source Sans Pro" font-size="16.00"> pipeline</text>
</g>
<!-- Node9&#45;&gt;Node8 -->
<g id="edge8" class="edge">
<title>Node9&#45;&gt;Node8</title>
<path fill="none" stroke="#9a32cd" stroke-dasharray="5,2" d="M1006.13,-49.5C1060.77,-49.5 1125.22,-49.5 1170.44,-49.5"/>
<polygon fill="#9a32cd" stroke="#9a32cd" points="1006.05,-46 996.05,-49.5 1006.05,-53 1006.05,-46"/>
<text text-anchor="middle" x="1060.5" y="-54.7" font-family="Source Sans Pro" font-size="16.00"> createdWith</text>
</g>
<!-- Node10 -->
<g id="node10" class="node">
<title>Node10</title>
<g id="a_node10"><a xlink:href="class_vulkan_render_pass.html" target="_top" xlink:title=" ">
<polygon fill="white" stroke="black" points="458,-68.5 458,-94.5 598,-94.5 598,-68.5 458,-68.5"/>
<text text-anchor="middle" x="528" y="-77.7" font-family="Source Sans Pro" font-size="16.00">VulkanRenderPass</text>
</a>
</g>
</g>
<!-- Node10&#45;&gt;Node9 -->
<g id="edge10" class="edge">
<title>Node10&#45;&gt;Node9</title>
<path fill="none" stroke="#9a32cd" stroke-dasharray="5,2" d="M608.43,-74.68C658.75,-70.35 725.19,-64.62 784,-59.5 789.84,-58.99 795.85,-58.47 801.9,-57.94"/>
<polygon fill="#9a32cd" stroke="#9a32cd" points="607.93,-71.21 598.27,-75.55 608.53,-78.18 607.93,-71.21"/>
<text text-anchor="middle" x="714" y="-76.7" font-family="Source Sans Pro" font-size="16.00"> renderPass</text>
</g>
<!-- Node11&#45;&gt;Node1 -->
<g id="edge11" class="edge">
<title>Node11&#45;&gt;Node1</title>
<path fill="none" stroke="#9a32cd" stroke-dasharray="5,2" d="M1342.47,-89.39C1420.77,-85.85 1524.62,-81.15 1602.94,-77.61"/>
<polygon fill="#9a32cd" stroke="#9a32cd" points="1341.91,-85.91 1332.08,-89.86 1342.23,-92.91 1341.91,-85.91"/>
<text text-anchor="middle" x="1467.5" y="-93.7" font-family="Source Sans Pro" font-size="16.00"> bottomLevelAccelerationStructure</text>
</g>
</g>
</svg>
