<?xml version="1.0" encoding="UTF-8" standalone="no"?>
<!DOCTYPE svg PUBLIC "-//W3C//DTD SVG 1.1//EN"
 "http://www.w3.org/Graphics/SVG/1.1/DTD/svg11.dtd">
<!-- Generated by graphviz version 2.43.0 (0)
 -->
<!-- Title: VulkanFramebuffer::CreateInfo Pages: 1 -->
<svg width="164pt" height="134pt"
 viewBox="0.00 0.00 163.50 134.00" xmlns="http://www.w3.org/2000/svg" xmlns:xlink="http://www.w3.org/1999/xlink">
<g id="graph0" class="graph" transform="scale(1 1) rotate(0) translate(4 130)">
<title>VulkanFramebuffer::CreateInfo</title>
<polygon fill="white" stroke="transparent" points="-4,4 -4,-130 159.5,-130 159.5,4 -4,4"/>
<!-- Node1 -->
<g id="node1" class="node">
<title>Node1</title>
<g id="a_node1"><a xlink:title=" ">
<polygon fill="#bfbfbf" stroke="black" points="0,-0.5 0,-44.5 153,-44.5 153,-0.5 0,-0.5"/>
<text text-anchor="start" x="8" y="-27.7" font-family="Source Sans Pro" font-size="16.00">VulkanFramebuffer::</text>
<text text-anchor="middle" x="76.5" y="-9.7" font-family="Source Sans Pro" font-size="16.00">CreateInfo</text>
</a>
</g>
</g>
<!-- Node2 -->
<g id="node2" class="node">
<title>Node2</title>
<g id="a_node2"><a xlink:href="class_vulkan_render_pass.html" target="_top" xlink:title=" ">
<polygon fill="white" stroke="black" points="6.5,-99.5 6.5,-125.5 146.5,-125.5 146.5,-99.5 6.5,-99.5"/>
<text text-anchor="middle" x="76.5" y="-108.7" font-family="Source Sans Pro" font-size="16.00">VulkanRenderPass</text>
</a>
</g>
</g>
<!-- Node2&#45;&gt;Node1 -->
<g id="edge1" class="edge">
<title>Node2&#45;&gt;Node1</title>
<path fill="none" stroke="#9a32cd" stroke-dasharray="5,2" d="M76.5,-88.86C76.5,-75.27 76.5,-58.1 76.5,-44.77"/>
<polygon fill="#9a32cd" stroke="#9a32cd" points="73,-89.26 76.5,-99.26 80,-89.26 73,-89.26"/>
<text text-anchor="middle" x="116" y="-68.2" font-family="Source Sans Pro" font-size="16.00"> renderPass</text>
</g>
</g>
</svg>
