<?xml version="1.0" encoding="UTF-8" standalone="no"?>
<!DOCTYPE svg PUBLIC "-//W3C//DTD SVG 1.1//EN"
 "http://www.w3.org/Graphics/SVG/1.1/DTD/svg11.dtd">
<!-- Generated by graphviz version 2.43.0 (0)
 -->
<!-- Title: Illumination&#45;Engine/src/GraphicsModule/Vulkan/vulkanUniformBufferObject.hpp Pages: 1 -->
<svg width="222pt" height="152pt"
 viewBox="0.00 0.00 222.00 152.00" xmlns="http://www.w3.org/2000/svg" xmlns:xlink="http://www.w3.org/1999/xlink">
<g id="graph0" class="graph" transform="scale(1 1) rotate(0) translate(4 148)">
<title>Illumination&#45;Engine/src/GraphicsModule/Vulkan/vulkanUniformBufferObject.hpp</title>
<polygon fill="white" stroke="transparent" points="-4,4 -4,-148 218,-148 218,4 -4,4"/>
<!-- Node1 -->
<g id="node1" class="node">
<title>Node1</title>
<g id="a_node1"><a xlink:title=" ">
<polygon fill="#bfbfbf" stroke="black" points="0,-63.5 0,-143.5 214,-143.5 214,-63.5 0,-63.5"/>
<text text-anchor="start" x="8" y="-126.7" font-family="Source Sans Pro" font-size="16.00">Illumination&#45;Engine</text>
<text text-anchor="start" x="8" y="-108.7" font-family="Source Sans Pro" font-size="16.00">/src/GraphicsModule</text>
<text text-anchor="start" x="8" y="-90.7" font-family="Source Sans Pro" font-size="16.00">/Vulkan/vulkanUniformBuffer</text>
<text text-anchor="middle" x="107" y="-72.7" font-family="Source Sans Pro" font-size="16.00">Object.hpp</text>
</a>
</g>
</g>
<!-- Node2 -->
<g id="node2" class="node">
<title>Node2</title>
<g id="a_node2"><a xlink:title=" ">
<polygon fill="white" stroke="#bfbfbf" points="55,-0.5 55,-26.5 159,-26.5 159,-0.5 55,-0.5"/>
<text text-anchor="middle" x="107" y="-9.7" font-family="Source Sans Pro" font-size="16.00">glm/glm.hpp</text>
</a>
</g>
</g>
<!-- Node1&#45;&gt;Node2 -->
<g id="edge1" class="edge">
<title>Node1&#45;&gt;Node2</title>
<path fill="none" stroke="midnightblue" d="M107,-63.39C107,-54.3 107,-44.93 107,-36.85"/>
<polygon fill="midnightblue" stroke="midnightblue" points="110.5,-36.79 107,-26.79 103.5,-36.79 110.5,-36.79"/>
</g>
</g>
</svg>
