<?xml version="1.0" encoding="UTF-8" standalone="no"?>
<!DOCTYPE svg PUBLIC "-//W3C//DTD SVG 1.1//EN"
 "http://www.w3.org/Graphics/SVG/1.1/DTD/svg11.dtd">
<!-- Generated by graphviz version 2.43.0 (0)
 -->
<!-- Title: Illumination&#45;Engine/src/GraphicsModule/Vulkan/vulkanSettings.hpp Pages: 1 -->
<svg width="875pt" height="683pt"
 viewBox="0.00 0.00 875.00 683.00" xmlns="http://www.w3.org/2000/svg" xmlns:xlink="http://www.w3.org/1999/xlink">
<g id="graph0" class="graph" transform="scale(1 1) rotate(0) translate(4 679)">
<title>Illumination&#45;Engine/src/GraphicsModule/Vulkan/vulkanSettings.hpp</title>
<polygon fill="white" stroke="transparent" points="-4,4 -4,-679 871,-679 871,4 -4,4"/>
<!-- Node1 -->
<g id="node1" class="node">
<title>Node1</title>
<g id="a_node1"><a xlink:title=" ">
<polygon fill="#bfbfbf" stroke="black" points="47.5,-612.5 47.5,-674.5 249.5,-674.5 249.5,-612.5 47.5,-612.5"/>
<text text-anchor="start" x="55.5" y="-657.7" font-family="Source Sans Pro" font-size="16.00">Illumination&#45;Engine</text>
<text text-anchor="start" x="55.5" y="-639.7" font-family="Source Sans Pro" font-size="16.00">/src/GraphicsModule</text>
<text text-anchor="middle" x="148.5" y="-621.7" font-family="Source Sans Pro" font-size="16.00">/Vulkan/vulkanSettings.hpp</text>
</a>
</g>
</g>
<!-- Node2 -->
<g id="node2" class="node">
<title>Node2</title>
<g id="a_node2"><a xlink:href="vulkan_graphics_engine_link_8hpp.html" target="_top" xlink:title=" ">
<polygon fill="white" stroke="black" points="178,-495.5 178,-575.5 401,-575.5 401,-495.5 178,-495.5"/>
<text text-anchor="start" x="186" y="-558.7" font-family="Source Sans Pro" font-size="16.00">Illumination&#45;Engine</text>
<text text-anchor="start" x="186" y="-540.7" font-family="Source Sans Pro" font-size="16.00">/src/GraphicsModule</text>
<text text-anchor="start" x="186" y="-522.7" font-family="Source Sans Pro" font-size="16.00">/Vulkan/vulkanGraphicsEngine</text>
<text text-anchor="middle" x="289.5" y="-504.7" font-family="Source Sans Pro" font-size="16.00">Link.hpp</text>
</a>
</g>
</g>
<!-- Node1&#45;&gt;Node2 -->
<g id="edge1" class="edge">
<title>Node1&#45;&gt;Node2</title>
<path fill="none" stroke="midnightblue" d="M196.57,-606.36C209.75,-596.45 224.11,-585.66 237.5,-575.59"/>
<polygon fill="midnightblue" stroke="midnightblue" points="194.42,-603.6 188.53,-612.41 198.62,-609.2 194.42,-603.6"/>
</g>
<!-- Node7 -->
<g id="node7" class="node">
<title>Node7</title>
<g id="a_node7"><a xlink:href="vulkan_render_engine_8hpp.html" target="_top" xlink:title=" ">
<polygon fill="white" stroke="black" points="0,-0.5 0,-62.5 243,-62.5 243,-0.5 0,-0.5"/>
<text text-anchor="start" x="8" y="-45.7" font-family="Source Sans Pro" font-size="16.00">Illumination&#45;Engine</text>
<text text-anchor="start" x="8" y="-27.7" font-family="Source Sans Pro" font-size="16.00">/src/GraphicsModule</text>
<text text-anchor="middle" x="121.5" y="-9.7" font-family="Source Sans Pro" font-size="16.00">/Vulkan/vulkanRenderEngine.hpp</text>
</a>
</g>
</g>
<!-- Node1&#45;&gt;Node7 -->
<g id="edge20" class="edge">
<title>Node1&#45;&gt;Node7</title>
<path fill="none" stroke="midnightblue" d="M104.28,-605.2C62.93,-565.9 7.5,-499.91 7.5,-428.5 7.5,-428.5 7.5,-428.5 7.5,-228.5 7.5,-167.42 20.59,-150.46 53.5,-99 61.95,-85.78 73.49,-73.22 84.67,-62.64"/>
<polygon fill="midnightblue" stroke="midnightblue" points="102.12,-607.96 111.82,-612.22 106.89,-602.84 102.12,-607.96"/>
</g>
<!-- Node3 -->
<g id="node3" class="node">
<title>Node3</title>
<g id="a_node3"><a xlink:href="vulkan_buffer_8hpp.html" target="_top" xlink:title=" ">
<polygon fill="white" stroke="black" points="73.5,-396.5 73.5,-458.5 261.5,-458.5 261.5,-396.5 73.5,-396.5"/>
<text text-anchor="start" x="81.5" y="-441.7" font-family="Source Sans Pro" font-size="16.00">Illumination&#45;Engine</text>
<text text-anchor="start" x="81.5" y="-423.7" font-family="Source Sans Pro" font-size="16.00">/src/GraphicsModule</text>
<text text-anchor="middle" x="167.5" y="-405.7" font-family="Source Sans Pro" font-size="16.00">/Vulkan/vulkanBuffer.hpp</text>
</a>
</g>
</g>
<!-- Node2&#45;&gt;Node3 -->
<g id="edge2" class="edge">
<title>Node2&#45;&gt;Node3</title>
<path fill="none" stroke="midnightblue" d="M236.78,-488.7C225.04,-478.5 212.89,-467.94 202.1,-458.56"/>
<polygon fill="midnightblue" stroke="midnightblue" points="234.57,-491.41 244.42,-495.33 239.17,-486.13 234.57,-491.41"/>
</g>
<!-- Node5 -->
<g id="node5" class="node">
<title>Node5</title>
<g id="a_node5"><a xlink:href="vulkan_render_pass_8hpp.html" target="_top" xlink:title=" ">
<polygon fill="white" stroke="black" points="112,-198.5 112,-260.5 339,-260.5 339,-198.5 112,-198.5"/>
<text text-anchor="start" x="120" y="-243.7" font-family="Source Sans Pro" font-size="16.00">Illumination&#45;Engine</text>
<text text-anchor="start" x="120" y="-225.7" font-family="Source Sans Pro" font-size="16.00">/src/GraphicsModule</text>
<text text-anchor="middle" x="225.5" y="-207.7" font-family="Source Sans Pro" font-size="16.00">/Vulkan/vulkanRenderPass.hpp</text>
</a>
</g>
</g>
<!-- Node2&#45;&gt;Node5 -->
<g id="edge16" class="edge">
<title>Node2&#45;&gt;Node5</title>
<path fill="none" stroke="midnightblue" d="M284.31,-485.26C281.12,-458.69 276.49,-425.39 270.5,-396 260.76,-348.15 245.03,-293.69 234.98,-260.72"/>
<polygon fill="midnightblue" stroke="midnightblue" points="280.87,-485.94 285.51,-495.47 287.82,-485.13 280.87,-485.94"/>
</g>
<!-- Node2&#45;&gt;Node7 -->
<g id="edge15" class="edge">
<title>Node2&#45;&gt;Node7</title>
<path fill="none" stroke="midnightblue" d="M167.98,-519.18C129.59,-508.37 90.45,-490.03 64.5,-459 27.19,-414.37 45.5,-387.67 45.5,-329.5 45.5,-329.5 45.5,-329.5 45.5,-228.5 45.5,-166.27 79.21,-99.99 101.73,-62.66"/>
<polygon fill="midnightblue" stroke="midnightblue" points="167.16,-522.58 177.72,-521.77 168.95,-515.82 167.16,-522.58"/>
</g>
<!-- Node9 -->
<g id="node9" class="node">
<title>Node9</title>
<g id="a_node9"><a xlink:href="vulkan_renderable_8hpp.html" target="_top" xlink:title=" ">
<polygon fill="white" stroke="black" points="469.5,-99.5 469.5,-161.5 695.5,-161.5 695.5,-99.5 469.5,-99.5"/>
<text text-anchor="start" x="477.5" y="-144.7" font-family="Source Sans Pro" font-size="16.00">Illumination&#45;Engine</text>
<text text-anchor="start" x="477.5" y="-126.7" font-family="Source Sans Pro" font-size="16.00">/src/GraphicsModule</text>
<text text-anchor="middle" x="582.5" y="-108.7" font-family="Source Sans Pro" font-size="16.00">/Vulkan/vulkanRenderable.hpp</text>
</a>
</g>
</g>
<!-- Node2&#45;&gt;Node9 -->
<g id="edge17" class="edge">
<title>Node2&#45;&gt;Node9</title>
<path fill="none" stroke="midnightblue" d="M364.79,-489.82C412.97,-458.29 474.15,-412.44 516.5,-360 564.23,-300.89 577.45,-208.71 581.1,-161.53"/>
<polygon fill="midnightblue" stroke="midnightblue" points="362.76,-486.96 356.26,-495.34 366.56,-492.84 362.76,-486.96"/>
</g>
<!-- Node10 -->
<g id="node10" class="node">
<title>Node10</title>
<g id="a_node10"><a xlink:href="vulkan_pipeline_8hpp.html" target="_top" xlink:title=" ">
<polygon fill="white" stroke="black" points="564,-297.5 564,-359.5 767,-359.5 767,-297.5 564,-297.5"/>
<text text-anchor="start" x="572" y="-342.7" font-family="Source Sans Pro" font-size="16.00">Illumination&#45;Engine</text>
<text text-anchor="start" x="572" y="-324.7" font-family="Source Sans Pro" font-size="16.00">/src/GraphicsModule</text>
<text text-anchor="middle" x="665.5" y="-306.7" font-family="Source Sans Pro" font-size="16.00">/Vulkan/vulkanPipeline.hpp</text>
</a>
</g>
</g>
<!-- Node2&#45;&gt;Node10 -->
<g id="edge13" class="edge">
<title>Node2&#45;&gt;Node10</title>
<path fill="none" stroke="midnightblue" d="M411.11,-513.97C456.89,-502.56 507.89,-485.17 549.5,-459 590.38,-433.29 625.47,-389.13 646.04,-359.63"/>
<polygon fill="midnightblue" stroke="midnightblue" points="410.02,-510.64 401.13,-516.39 411.67,-517.44 410.02,-510.64"/>
</g>
<!-- Node11 -->
<g id="node11" class="node">
<title>Node11</title>
<g id="a_node11"><a xlink:href="vulkan_shader_8hpp.html" target="_top" xlink:title=" ">
<polygon fill="white" stroke="black" points="672,-396.5 672,-458.5 867,-458.5 867,-396.5 672,-396.5"/>
<text text-anchor="start" x="680" y="-441.7" font-family="Source Sans Pro" font-size="16.00">Illumination&#45;Engine</text>
<text text-anchor="start" x="680" y="-423.7" font-family="Source Sans Pro" font-size="16.00">/src/GraphicsModule</text>
<text text-anchor="middle" x="769.5" y="-405.7" font-family="Source Sans Pro" font-size="16.00">/Vulkan/vulkanShader.hpp</text>
</a>
</g>
</g>
<!-- Node2&#45;&gt;Node11 -->
<g id="edge18" class="edge">
<title>Node2&#45;&gt;Node11</title>
<path fill="none" stroke="midnightblue" d="M411.08,-507.96C476.93,-493.55 559.69,-475.38 633.5,-459 645.9,-456.25 658.94,-453.34 671.82,-450.46"/>
<polygon fill="midnightblue" stroke="midnightblue" points="410.09,-504.59 401.07,-510.15 411.59,-511.43 410.09,-504.59"/>
</g>
<!-- Node4 -->
<g id="node4" class="node">
<title>Node4</title>
<g id="a_node4"><a xlink:href="vulkan_image_8hpp.html" target="_top" xlink:title=" ">
<polygon fill="white" stroke="black" points="317.5,-297.5 317.5,-359.5 507.5,-359.5 507.5,-297.5 317.5,-297.5"/>
<text text-anchor="start" x="325.5" y="-342.7" font-family="Source Sans Pro" font-size="16.00">Illumination&#45;Engine</text>
<text text-anchor="start" x="325.5" y="-324.7" font-family="Source Sans Pro" font-size="16.00">/src/GraphicsModule</text>
<text text-anchor="middle" x="412.5" y="-306.7" font-family="Source Sans Pro" font-size="16.00">/Vulkan/vulkanImage.hpp</text>
</a>
</g>
</g>
<!-- Node3&#45;&gt;Node4 -->
<g id="edge3" class="edge">
<title>Node3&#45;&gt;Node4</title>
<path fill="none" stroke="midnightblue" d="M252.86,-392.71C280.11,-381.92 310.06,-370.06 336.59,-359.55"/>
<polygon fill="midnightblue" stroke="midnightblue" points="251.35,-389.54 243.34,-396.47 253.93,-396.05 251.35,-389.54"/>
</g>
<!-- Node3&#45;&gt;Node7 -->
<g id="edge12" class="edge">
<title>Node3&#45;&gt;Node7</title>
<path fill="none" stroke="midnightblue" d="M147.21,-387.19C131.49,-354.42 111.02,-306 102.5,-261 89.21,-190.79 103.9,-106.7 113.86,-62.71"/>
<polygon fill="midnightblue" stroke="midnightblue" points="144.18,-388.96 151.7,-396.42 150.47,-385.9 144.18,-388.96"/>
</g>
<!-- Node4&#45;&gt;Node5 -->
<g id="edge4" class="edge">
<title>Node4&#45;&gt;Node5</title>
<path fill="none" stroke="midnightblue" d="M345.71,-292.86C325.36,-282.3 303.16,-270.78 283.44,-260.55"/>
<polygon fill="midnightblue" stroke="midnightblue" points="344.12,-295.98 354.61,-297.47 347.35,-289.76 344.12,-295.98"/>
</g>
<!-- Node8 -->
<g id="node8" class="node">
<title>Node8</title>
<g id="a_node8"><a xlink:href="vulkan_texture_8hpp.html" target="_top" xlink:title=" ">
<polygon fill="white" stroke="black" points="357,-198.5 357,-260.5 554,-260.5 554,-198.5 357,-198.5"/>
<text text-anchor="start" x="365" y="-243.7" font-family="Source Sans Pro" font-size="16.00">Illumination&#45;Engine</text>
<text text-anchor="start" x="365" y="-225.7" font-family="Source Sans Pro" font-size="16.00">/src/GraphicsModule</text>
<text text-anchor="middle" x="455.5" y="-207.7" font-family="Source Sans Pro" font-size="16.00">/Vulkan/vulkanTexture.hpp</text>
</a>
</g>
</g>
<!-- Node4&#45;&gt;Node8 -->
<g id="edge8" class="edge">
<title>Node4&#45;&gt;Node8</title>
<path fill="none" stroke="midnightblue" d="M430,-288.03C434.05,-278.89 438.3,-269.31 442.14,-260.64"/>
<polygon fill="midnightblue" stroke="midnightblue" points="426.72,-286.78 425.87,-297.34 433.12,-289.62 426.72,-286.78"/>
</g>
<!-- Node6 -->
<g id="node6" class="node">
<title>Node6</title>
<g id="a_node6"><a xlink:href="vulkan_framebuffer_8hpp.html" target="_top" xlink:title=" ">
<polygon fill="white" stroke="black" points="149.5,-99.5 149.5,-161.5 379.5,-161.5 379.5,-99.5 149.5,-99.5"/>
<text text-anchor="start" x="157.5" y="-144.7" font-family="Source Sans Pro" font-size="16.00">Illumination&#45;Engine</text>
<text text-anchor="start" x="157.5" y="-126.7" font-family="Source Sans Pro" font-size="16.00">/src/GraphicsModule</text>
<text text-anchor="middle" x="264.5" y="-108.7" font-family="Source Sans Pro" font-size="16.00">/Vulkan/vulkanFramebuffer.hpp</text>
</a>
</g>
</g>
<!-- Node5&#45;&gt;Node6 -->
<g id="edge5" class="edge">
<title>Node5&#45;&gt;Node6</title>
<path fill="none" stroke="midnightblue" d="M241.37,-189.03C245.04,-179.89 248.9,-170.31 252.38,-161.64"/>
<polygon fill="midnightblue" stroke="midnightblue" points="238.11,-187.76 237.63,-198.34 244.6,-190.37 238.11,-187.76"/>
</g>
<!-- Node5&#45;&gt;Node7 -->
<g id="edge7" class="edge">
<title>Node5&#45;&gt;Node7</title>
<path fill="none" stroke="midnightblue" d="M166.23,-191.91C156.25,-183.26 147.03,-173.23 140.5,-162 122.75,-131.45 119.55,-90.23 119.78,-62.58"/>
<polygon fill="midnightblue" stroke="midnightblue" points="164.03,-194.62 173.98,-198.25 168.46,-189.21 164.03,-194.62"/>
</g>
<!-- Node6&#45;&gt;Node7 -->
<g id="edge6" class="edge">
<title>Node6&#45;&gt;Node7</title>
<path fill="none" stroke="midnightblue" d="M211.39,-93.47C196.43,-83.33 180.33,-72.4 165.93,-62.64"/>
<polygon fill="midnightblue" stroke="midnightblue" points="209.8,-96.62 220.04,-99.34 213.73,-90.83 209.8,-96.62"/>
</g>
<!-- Node8&#45;&gt;Node7 -->
<g id="edge9" class="edge">
<title>Node8&#45;&gt;Node7</title>
<path fill="none" stroke="midnightblue" d="M444.58,-188.55C434.62,-159.52 417.02,-121.53 388.5,-99 347.36,-66.5 292.43,-49.64 243.08,-40.99"/>
<polygon fill="midnightblue" stroke="midnightblue" points="441.37,-189.97 447.79,-198.4 448.02,-187.8 441.37,-189.97"/>
</g>
<!-- Node8&#45;&gt;Node9 -->
<g id="edge10" class="edge">
<title>Node8&#45;&gt;Node9</title>
<path fill="none" stroke="midnightblue" d="M503.04,-192.19C516.22,-182.12 530.38,-171.31 543.04,-161.64"/>
<polygon fill="midnightblue" stroke="midnightblue" points="500.81,-189.49 494.99,-198.34 505.06,-195.05 500.81,-189.49"/>
</g>
<!-- Node9&#45;&gt;Node7 -->
<g id="edge11" class="edge">
<title>Node9&#45;&gt;Node7</title>
<path fill="none" stroke="midnightblue" d="M459.08,-103.34C452.12,-101.87 445.22,-100.42 438.5,-99 373.98,-85.4 302.07,-70.31 243.07,-57.94"/>
<polygon fill="midnightblue" stroke="midnightblue" points="458.8,-106.86 469.31,-105.5 460.25,-100.01 458.8,-106.86"/>
</g>
<!-- Node10&#45;&gt;Node9 -->
<g id="edge14" class="edge">
<title>Node10&#45;&gt;Node9</title>
<path fill="none" stroke="midnightblue" d="M648.67,-287.76C632.89,-250.49 609.63,-195.55 595.3,-161.73"/>
<polygon fill="midnightblue" stroke="midnightblue" points="645.59,-289.46 652.71,-297.3 652.04,-286.73 645.59,-289.46"/>
</g>
<!-- Node11&#45;&gt;Node9 -->
<g id="edge19" class="edge">
<title>Node11&#45;&gt;Node9</title>
<path fill="none" stroke="midnightblue" d="M781.08,-386.37C786.53,-359.82 789.36,-324.89 776.5,-297 748.5,-236.3 686.03,-189.63 639.5,-161.55"/>
<polygon fill="midnightblue" stroke="midnightblue" points="777.59,-385.94 778.8,-396.47 784.42,-387.48 777.59,-385.94"/>
</g>
</g>
</svg>
