<?xml version="1.0" encoding="UTF-8" standalone="no"?>
<!DOCTYPE svg PUBLIC "-//W3C//DTD SVG 1.1//EN"
 "http://www.w3.org/Graphics/SVG/1.1/DTD/svg11.dtd">
<!-- Generated by graphviz version 2.43.0 (0)
 -->
<!-- Title: Illumination&#45;Engine/src/GraphicsModule/Vulkan/vulkanTexture.hpp Pages: 1 -->
<svg width="314pt" height="269pt"
 viewBox="0.00 0.00 313.50 269.00" xmlns="http://www.w3.org/2000/svg" xmlns:xlink="http://www.w3.org/1999/xlink">
<g id="graph0" class="graph" transform="scale(1 1) rotate(0) translate(4 265)">
<title>Illumination&#45;Engine/src/GraphicsModule/Vulkan/vulkanTexture.hpp</title>
<polygon fill="white" stroke="transparent" points="-4,4 -4,-265 309.5,-265 309.5,4 -4,4"/>
<!-- Node1 -->
<g id="node1" class="node">
<title>Node1</title>
<g id="a_node1"><a xlink:title=" ">
<polygon fill="#bfbfbf" stroke="black" points="23,-198.5 23,-260.5 220,-260.5 220,-198.5 23,-198.5"/>
<text text-anchor="start" x="31" y="-243.7" font-family="Source Sans Pro" font-size="16.00">Illumination&#45;Engine</text>
<text text-anchor="start" x="31" y="-225.7" font-family="Source Sans Pro" font-size="16.00">/src/GraphicsModule</text>
<text text-anchor="middle" x="121.5" y="-207.7" font-family="Source Sans Pro" font-size="16.00">/Vulkan/vulkanTexture.hpp</text>
</a>
</g>
</g>
<!-- Node2 -->
<g id="node2" class="node">
<title>Node2</title>
<g id="a_node2"><a xlink:href="vulkan_render_engine_8hpp.html" target="_top" xlink:title=" ">
<polygon fill="white" stroke="black" points="0,-0.5 0,-62.5 243,-62.5 243,-0.5 0,-0.5"/>
<text text-anchor="start" x="8" y="-45.7" font-family="Source Sans Pro" font-size="16.00">Illumination&#45;Engine</text>
<text text-anchor="start" x="8" y="-27.7" font-family="Source Sans Pro" font-size="16.00">/src/GraphicsModule</text>
<text text-anchor="middle" x="121.5" y="-9.7" font-family="Source Sans Pro" font-size="16.00">/Vulkan/vulkanRenderEngine.hpp</text>
</a>
</g>
</g>
<!-- Node1&#45;&gt;Node2 -->
<g id="edge1" class="edge">
<title>Node1&#45;&gt;Node2</title>
<path fill="none" stroke="midnightblue" d="M85.55,-190.19C79.37,-181.52 73.87,-171.92 70.5,-162 61.5,-135.48 61.5,-125.52 70.5,-99 74.94,-85.91 83.11,-73.38 91.63,-62.79"/>
<polygon fill="midnightblue" stroke="midnightblue" points="82.79,-192.36 91.63,-198.21 88.37,-188.13 82.79,-192.36"/>
</g>
<!-- Node3 -->
<g id="node3" class="node">
<title>Node3</title>
<g id="a_node3"><a xlink:href="vulkan_renderable_8hpp.html" target="_top" xlink:title=" ">
<polygon fill="white" stroke="black" points="79.5,-99.5 79.5,-161.5 305.5,-161.5 305.5,-99.5 79.5,-99.5"/>
<text text-anchor="start" x="87.5" y="-144.7" font-family="Source Sans Pro" font-size="16.00">Illumination&#45;Engine</text>
<text text-anchor="start" x="87.5" y="-126.7" font-family="Source Sans Pro" font-size="16.00">/src/GraphicsModule</text>
<text text-anchor="middle" x="192.5" y="-108.7" font-family="Source Sans Pro" font-size="16.00">/Vulkan/vulkanRenderable.hpp</text>
</a>
</g>
</g>
<!-- Node1&#45;&gt;Node3 -->
<g id="edge2" class="edge">
<title>Node1&#45;&gt;Node3</title>
<path fill="none" stroke="midnightblue" d="M149.55,-190.18C156.49,-180.7 163.83,-170.67 170.44,-161.64"/>
<polygon fill="midnightblue" stroke="midnightblue" points="146.66,-188.2 143.58,-198.34 152.31,-192.34 146.66,-188.2"/>
</g>
<!-- Node3&#45;&gt;Node2 -->
<g id="edge3" class="edge">
<title>Node3&#45;&gt;Node2</title>
<path fill="none" stroke="midnightblue" d="M164.45,-91.18C157.51,-81.7 150.17,-71.67 143.56,-62.64"/>
<polygon fill="midnightblue" stroke="midnightblue" points="161.69,-93.34 170.42,-99.34 167.34,-89.2 161.69,-93.34"/>
</g>
</g>
</svg>
