<?xml version="1.0" encoding="UTF-8" standalone="no"?>
<!DOCTYPE svg PUBLIC "-//W3C//DTD SVG 1.1//EN"
 "http://www.w3.org/Graphics/SVG/1.1/DTD/svg11.dtd">
<!-- Generated by graphviz version 2.43.0 (0)
 -->
<!-- Title: Illumination&#45;Engine/src/GraphicsModule/Vulkan/vulkanBuffer.hpp Pages: 1 -->
<svg width="594pt" height="197pt"
 viewBox="0.00 0.00 594.00 197.00" xmlns="http://www.w3.org/2000/svg" xmlns:xlink="http://www.w3.org/1999/xlink">
<g id="graph0" class="graph" transform="scale(1 1) rotate(0) translate(4 193)">
<title>Illumination&#45;Engine/src/GraphicsModule/Vulkan/vulkanBuffer.hpp</title>
<polygon fill="white" stroke="transparent" points="-4,4 -4,-193 590,-193 590,4 -4,4"/>
<!-- Node1 -->
<g id="node1" class="node">
<title>Node1</title>
<g id="a_node1"><a xlink:title=" ">
<polygon fill="#bfbfbf" stroke="black" points="358,-126.5 358,-188.5 546,-188.5 546,-126.5 358,-126.5"/>
<text text-anchor="start" x="366" y="-171.7" font-family="Source Sans Pro" font-size="16.00">Illumination&#45;Engine</text>
<text text-anchor="start" x="366" y="-153.7" font-family="Source Sans Pro" font-size="16.00">/src/GraphicsModule</text>
<text text-anchor="middle" x="452" y="-135.7" font-family="Source Sans Pro" font-size="16.00">/Vulkan/vulkanBuffer.hpp</text>
</a>
</g>
</g>
<!-- Node2 -->
<g id="node2" class="node">
<title>Node2</title>
<g id="a_node2"><a xlink:href="vulkan_graphics_engine_link_8hpp.html" target="_top" xlink:title=" ">
<polygon fill="white" stroke="black" points="176.5,-63.5 176.5,-89.5 403.5,-89.5 403.5,-63.5 176.5,-63.5"/>
<text text-anchor="middle" x="290" y="-72.7" font-family="Source Sans Pro" font-size="16.00">vulkanGraphicsEngineLink.hpp</text>
</a>
</g>
</g>
<!-- Node1&#45;&gt;Node2 -->
<g id="edge1" class="edge">
<title>Node1&#45;&gt;Node2</title>
<path fill="none" stroke="midnightblue" d="M390.29,-126.41C367.8,-115.44 343.21,-103.45 324,-94.08"/>
<polygon fill="midnightblue" stroke="midnightblue" points="325.29,-90.81 314.77,-89.58 322.22,-97.11 325.29,-90.81"/>
</g>
<!-- Node7 -->
<g id="node7" class="node">
<title>Node7</title>
<g id="a_node7"><a xlink:title=" ">
<polygon fill="white" stroke="#bfbfbf" points="422,-63.5 422,-89.5 482,-89.5 482,-63.5 422,-63.5"/>
<text text-anchor="middle" x="452" y="-72.7" font-family="Source Sans Pro" font-size="16.00">deque</text>
</a>
</g>
</g>
<!-- Node1&#45;&gt;Node7 -->
<g id="edge6" class="edge">
<title>Node1&#45;&gt;Node7</title>
<path fill="none" stroke="midnightblue" d="M452,-126.18C452,-117.45 452,-108.08 452,-99.91"/>
<polygon fill="midnightblue" stroke="midnightblue" points="455.5,-99.7 452,-89.7 448.5,-99.7 455.5,-99.7"/>
</g>
<!-- Node8 -->
<g id="node8" class="node">
<title>Node8</title>
<g id="a_node8"><a xlink:title=" ">
<polygon fill="white" stroke="#bfbfbf" points="500,-63.5 500,-89.5 586,-89.5 586,-63.5 500,-63.5"/>
<text text-anchor="middle" x="543" y="-72.7" font-family="Source Sans Pro" font-size="16.00">functional</text>
</a>
</g>
</g>
<!-- Node1&#45;&gt;Node8 -->
<g id="edge7" class="edge">
<title>Node1&#45;&gt;Node8</title>
<path fill="none" stroke="midnightblue" d="M486.66,-126.41C498.24,-116.36 510.8,-105.45 521.12,-96.49"/>
<polygon fill="midnightblue" stroke="midnightblue" points="523.6,-98.98 528.86,-89.78 519.01,-93.69 523.6,-98.98"/>
</g>
<!-- Node3 -->
<g id="node3" class="node">
<title>Node3</title>
<g id="a_node3"><a xlink:href="vulkan_settings_8hpp.html" target="_top" xlink:title=" ">
<polygon fill="white" stroke="black" points="0,-0.5 0,-26.5 146,-26.5 146,-0.5 0,-0.5"/>
<text text-anchor="middle" x="73" y="-9.7" font-family="Source Sans Pro" font-size="16.00">vulkanSettings.hpp</text>
</a>
</g>
</g>
<!-- Node2&#45;&gt;Node3 -->
<g id="edge2" class="edge">
<title>Node2&#45;&gt;Node3</title>
<path fill="none" stroke="midnightblue" d="M247.13,-63.45C212.21,-53.63 162.75,-39.73 125.47,-29.25"/>
<polygon fill="midnightblue" stroke="midnightblue" points="126.36,-25.86 115.78,-26.53 124.46,-32.6 126.36,-25.86"/>
</g>
<!-- Node4 -->
<g id="node4" class="node">
<title>Node4</title>
<g id="a_node4"><a xlink:title=" ">
<polygon fill="white" stroke="#bfbfbf" points="164.5,-0.5 164.5,-26.5 277.5,-26.5 277.5,-0.5 164.5,-0.5"/>
<text text-anchor="middle" x="221" y="-9.7" font-family="Source Sans Pro" font-size="16.00">VkBootstrap.h</text>
</a>
</g>
</g>
<!-- Node2&#45;&gt;Node4 -->
<g id="edge3" class="edge">
<title>Node2&#45;&gt;Node4</title>
<path fill="none" stroke="midnightblue" d="M276.37,-63.45C266.63,-54.84 253.35,-43.1 242.23,-33.27"/>
<polygon fill="midnightblue" stroke="midnightblue" points="244.41,-30.53 234.6,-26.53 239.78,-35.77 244.41,-30.53"/>
</g>
<!-- Node5 -->
<g id="node5" class="node">
<title>Node5</title>
<g id="a_node5"><a xlink:title=" ">
<polygon fill="white" stroke="#bfbfbf" points="295.5,-0.5 295.5,-26.5 424.5,-26.5 424.5,-0.5 295.5,-0.5"/>
<text text-anchor="middle" x="360" y="-9.7" font-family="Source Sans Pro" font-size="16.00">vk_mem_alloc.h</text>
</a>
</g>
</g>
<!-- Node2&#45;&gt;Node5 -->
<g id="edge4" class="edge">
<title>Node2&#45;&gt;Node5</title>
<path fill="none" stroke="midnightblue" d="M303.83,-63.45C313.7,-54.84 327.18,-43.1 338.46,-33.27"/>
<polygon fill="midnightblue" stroke="midnightblue" points="340.96,-35.74 346.2,-26.53 336.36,-30.46 340.96,-35.74"/>
</g>
<!-- Node6 -->
<g id="node6" class="node">
<title>Node6</title>
<g id="a_node6"><a xlink:title=" ">
<polygon fill="white" stroke="#bfbfbf" points="442.5,-0.5 442.5,-26.5 501.5,-26.5 501.5,-0.5 442.5,-0.5"/>
<text text-anchor="middle" x="472" y="-9.7" font-family="Source Sans Pro" font-size="16.00">vector</text>
</a>
</g>
</g>
<!-- Node2&#45;&gt;Node6 -->
<g id="edge5" class="edge">
<title>Node2&#45;&gt;Node6</title>
<path fill="none" stroke="midnightblue" d="M325.96,-63.45C356.71,-53.14 400.9,-38.33 432.61,-27.7"/>
<polygon fill="midnightblue" stroke="midnightblue" points="434.06,-30.91 442.43,-24.41 431.83,-24.27 434.06,-30.91"/>
</g>
</g>
</svg>
