<?xml version="1.0" encoding="UTF-8" standalone="no"?>
<!DOCTYPE svg PUBLIC "-//W3C//DTD SVG 1.1//EN"
 "http://www.w3.org/Graphics/SVG/1.1/DTD/svg11.dtd">
<!-- Generated by graphviz version 2.43.0 (0)
 -->
<!-- Title: Illumination&#45;Engine/src/GraphicsModule/Vulkan/vulkanDescriptorSet.hpp Pages: 1 -->
<svg width="296pt" height="368pt"
 viewBox="0.00 0.00 296.00 368.00" xmlns="http://www.w3.org/2000/svg" xmlns:xlink="http://www.w3.org/1999/xlink">
<g id="graph0" class="graph" transform="scale(1 1) rotate(0) translate(4 364)">
<title>Illumination&#45;Engine/src/GraphicsModule/Vulkan/vulkanDescriptorSet.hpp</title>
<polygon fill="white" stroke="transparent" points="-4,4 -4,-364 292,-364 292,4 -4,4"/>
<!-- Node1 -->
<g id="node1" class="node">
<title>Node1</title>
<g id="a_node1"><a xlink:title=" ">
<polygon fill="#bfbfbf" stroke="black" points="47.5,-297.5 47.5,-359.5 285.5,-359.5 285.5,-297.5 47.5,-297.5"/>
<text text-anchor="start" x="55.5" y="-342.7" font-family="Source Sans Pro" font-size="16.00">Illumination&#45;Engine</text>
<text text-anchor="start" x="55.5" y="-324.7" font-family="Source Sans Pro" font-size="16.00">/src/GraphicsModule</text>
<text text-anchor="middle" x="166.5" y="-306.7" font-family="Source Sans Pro" font-size="16.00">/Vulkan/vulkanDescriptorSet.hpp</text>
</a>
</g>
</g>
<!-- Node2 -->
<g id="node2" class="node">
<title>Node2</title>
<g id="a_node2"><a xlink:href="vulkan_pipeline_8hpp.html" target="_top" xlink:title=" ">
<polygon fill="white" stroke="black" points="0,-198.5 0,-260.5 203,-260.5 203,-198.5 0,-198.5"/>
<text text-anchor="start" x="8" y="-243.7" font-family="Source Sans Pro" font-size="16.00">Illumination&#45;Engine</text>
<text text-anchor="start" x="8" y="-225.7" font-family="Source Sans Pro" font-size="16.00">/src/GraphicsModule</text>
<text text-anchor="middle" x="101.5" y="-207.7" font-family="Source Sans Pro" font-size="16.00">/Vulkan/vulkanPipeline.hpp</text>
</a>
</g>
</g>
<!-- Node1&#45;&gt;Node2 -->
<g id="edge1" class="edge">
<title>Node1&#45;&gt;Node2</title>
<path fill="none" stroke="midnightblue" d="M140.63,-288.9C134.33,-279.5 127.69,-269.58 121.7,-260.64"/>
<polygon fill="midnightblue" stroke="midnightblue" points="137.82,-290.98 146.29,-297.34 143.63,-287.08 137.82,-290.98"/>
</g>
<!-- Node3 -->
<g id="node3" class="node">
<title>Node3</title>
<g id="a_node3"><a xlink:href="vulkan_renderable_8hpp.html" target="_top" xlink:title=" ">
<polygon fill="white" stroke="black" points="53.5,-99.5 53.5,-161.5 279.5,-161.5 279.5,-99.5 53.5,-99.5"/>
<text text-anchor="start" x="61.5" y="-144.7" font-family="Source Sans Pro" font-size="16.00">Illumination&#45;Engine</text>
<text text-anchor="start" x="61.5" y="-126.7" font-family="Source Sans Pro" font-size="16.00">/src/GraphicsModule</text>
<text text-anchor="middle" x="166.5" y="-108.7" font-family="Source Sans Pro" font-size="16.00">/Vulkan/vulkanRenderable.hpp</text>
</a>
</g>
</g>
<!-- Node1&#45;&gt;Node3 -->
<g id="edge4" class="edge">
<title>Node1&#45;&gt;Node3</title>
<path fill="none" stroke="midnightblue" d="M198.09,-288.96C203.61,-280.25 208.53,-270.7 211.5,-261 219.71,-234.23 219.71,-224.77 211.5,-198 207.54,-185.07 200.12,-172.39 192.43,-161.63"/>
<polygon fill="midnightblue" stroke="midnightblue" points="195.12,-287.12 192.43,-297.37 200.92,-291.03 195.12,-287.12"/>
</g>
<!-- Node2&#45;&gt;Node3 -->
<g id="edge2" class="edge">
<title>Node2&#45;&gt;Node3</title>
<path fill="none" stroke="midnightblue" d="M127.37,-189.9C133.67,-180.5 140.31,-170.58 146.3,-161.64"/>
<polygon fill="midnightblue" stroke="midnightblue" points="124.37,-188.08 121.71,-198.34 130.18,-191.98 124.37,-188.08"/>
</g>
<!-- Node4 -->
<g id="node4" class="node">
<title>Node4</title>
<g id="a_node4"><a xlink:href="vulkan_render_engine_8hpp.html" target="_top" xlink:title=" ">
<polygon fill="white" stroke="black" points="45,-0.5 45,-62.5 288,-62.5 288,-0.5 45,-0.5"/>
<text text-anchor="start" x="53" y="-45.7" font-family="Source Sans Pro" font-size="16.00">Illumination&#45;Engine</text>
<text text-anchor="start" x="53" y="-27.7" font-family="Source Sans Pro" font-size="16.00">/src/GraphicsModule</text>
<text text-anchor="middle" x="166.5" y="-9.7" font-family="Source Sans Pro" font-size="16.00">/Vulkan/vulkanRenderEngine.hpp</text>
</a>
</g>
</g>
<!-- Node3&#45;&gt;Node4 -->
<g id="edge3" class="edge">
<title>Node3&#45;&gt;Node4</title>
<path fill="none" stroke="midnightblue" d="M166.5,-89.17C166.5,-80.29 166.5,-71.03 166.5,-62.64"/>
<polygon fill="midnightblue" stroke="midnightblue" points="163,-89.34 166.5,-99.34 170,-89.34 163,-89.34"/>
</g>
</g>
</svg>
