<?xml version="1.0" encoding="UTF-8" standalone="no"?>
<!DOCTYPE svg PUBLIC "-//W3C//DTD SVG 1.1//EN"
 "http://www.w3.org/Graphics/SVG/1.1/DTD/svg11.dtd">
<!-- Generated by graphviz version 2.43.0 (0)
 -->
<!-- Title: Illumination&#45;Engine/src/GraphicsModule/Vulkan/vulkanRenderEngine.hpp Pages: 1 -->
<svg width="2633pt" height="449pt"
 viewBox="0.00 0.00 2633.46 449.00" xmlns="http://www.w3.org/2000/svg" xmlns:xlink="http://www.w3.org/1999/xlink">
<g id="graph0" class="graph" transform="scale(1 1) rotate(0) translate(4 445)">
<title>Illumination&#45;Engine/src/GraphicsModule/Vulkan/vulkanRenderEngine.hpp</title>
<polygon fill="white" stroke="transparent" points="-4,4 -4,-445 2629.46,-445 2629.46,4 -4,4"/>
<!-- Node1 -->
<g id="node1" class="node">
<title>Node1</title>
<g id="a_node1"><a xlink:title=" ">
<polygon fill="#bfbfbf" stroke="black" points="687.5,-378.5 687.5,-440.5 930.5,-440.5 930.5,-378.5 687.5,-378.5"/>
<text text-anchor="start" x="695.5" y="-423.7" font-family="Source Sans Pro" font-size="16.00">Illumination&#45;Engine</text>
<text text-anchor="start" x="695.5" y="-405.7" font-family="Source Sans Pro" font-size="16.00">/src/GraphicsModule</text>
<text text-anchor="middle" x="809" y="-387.7" font-family="Source Sans Pro" font-size="16.00">/Vulkan/vulkanRenderEngine.hpp</text>
</a>
</g>
</g>
<!-- Node2 -->
<g id="node2" class="node">
<title>Node2</title>
<g id="a_node2"><a xlink:href="vulkan_render_pass_8hpp.html" target="_top" xlink:title=" ">
<polygon fill="white" stroke="black" points="143.5,-252.5 143.5,-278.5 314.5,-278.5 314.5,-252.5 143.5,-252.5"/>
<text text-anchor="middle" x="229" y="-261.7" font-family="Source Sans Pro" font-size="16.00">vulkanRenderPass.hpp</text>
</a>
</g>
</g>
<!-- Node1&#45;&gt;Node2 -->
<g id="edge1" class="edge">
<title>Node1&#45;&gt;Node2</title>
<path fill="none" stroke="midnightblue" d="M687.48,-403.11C597.51,-396.04 473.17,-379.7 370,-342 348.45,-334.12 346.06,-326.14 326,-315 305.72,-303.74 282.5,-292.08 263.86,-283.02"/>
<polygon fill="midnightblue" stroke="midnightblue" points="265.37,-279.87 254.84,-278.67 262.33,-286.17 265.37,-279.87"/>
</g>
<!-- Node3 -->
<g id="node3" class="node">
<title>Node3</title>
<g id="a_node3"><a xlink:href="vulkan_graphics_engine_link_8hpp.html" target="_top" xlink:title=" ">
<polygon fill="white" stroke="black" points="696.5,-63.5 696.5,-89.5 923.5,-89.5 923.5,-63.5 696.5,-63.5"/>
<text text-anchor="middle" x="810" y="-72.7" font-family="Source Sans Pro" font-size="16.00">vulkanGraphicsEngineLink.hpp</text>
</a>
</g>
</g>
<!-- Node1&#45;&gt;Node3 -->
<g id="edge16" class="edge">
<title>Node1&#45;&gt;Node3</title>
<path fill="none" stroke="midnightblue" d="M930.68,-407.06C1279.54,-402.4 2261.68,-385.49 2315,-342 2341.81,-320.13 2334,-301.1 2334,-266.5 2334,-266.5 2334,-266.5 2334,-201.5 2334,-123.27 2251,-144.55 2175,-126 2056.53,-97.08 1247.12,-83.32 933.65,-79.03"/>
<polygon fill="midnightblue" stroke="midnightblue" points="933.66,-75.53 923.61,-78.9 933.56,-82.53 933.66,-75.53"/>
</g>
<!-- Node4 -->
<g id="node4" class="node">
<title>Node4</title>
<g id="a_node4"><a xlink:href="vulkan_settings_8hpp.html" target="_top" xlink:title=" ">
<polygon fill="white" stroke="black" points="188,-0.5 188,-26.5 334,-26.5 334,-0.5 188,-0.5"/>
<text text-anchor="middle" x="261" y="-9.7" font-family="Source Sans Pro" font-size="16.00">vulkanSettings.hpp</text>
</a>
</g>
</g>
<!-- Node1&#45;&gt;Node4 -->
<g id="edge67" class="edge">
<title>Node1&#45;&gt;Node4</title>
<path fill="none" stroke="midnightblue" d="M687.13,-403.81C485.7,-395.18 100.16,-374.63 47,-342 13.31,-321.32 0,-306.03 0,-266.5 0,-266.5 0,-266.5 0,-138.5 0,-58.44 101.42,-30.01 177.82,-19.95"/>
<polygon fill="midnightblue" stroke="midnightblue" points="178.45,-23.4 187.95,-18.7 177.6,-16.45 178.45,-23.4"/>
</g>
<!-- Node5 -->
<g id="node5" class="node">
<title>Node5</title>
<g id="a_node5"><a xlink:title=" ">
<polygon fill="white" stroke="#bfbfbf" points="483.5,-0.5 483.5,-26.5 596.5,-26.5 596.5,-0.5 483.5,-0.5"/>
<text text-anchor="middle" x="540" y="-9.7" font-family="Source Sans Pro" font-size="16.00">VkBootstrap.h</text>
</a>
</g>
</g>
<!-- Node1&#45;&gt;Node5 -->
<g id="edge73" class="edge">
<title>Node1&#45;&gt;Node5</title>
<path fill="none" stroke="midnightblue" d="M687.4,-403.36C493.97,-394.29 132.83,-373.4 83,-342 49.95,-321.17 38,-305.56 38,-266.5 38,-266.5 38,-266.5 38,-138.5 38,-99.88 48.68,-84.14 81,-63 97.18,-52.42 350.04,-30.21 473.37,-19.93"/>
<polygon fill="midnightblue" stroke="midnightblue" points="473.78,-23.41 483.45,-19.09 473.2,-16.43 473.78,-23.41"/>
</g>
<!-- Node9 -->
<g id="node9" class="node">
<title>Node9</title>
<g id="a_node9"><a xlink:href="vulkan_buffer_8hpp.html" target="_top" xlink:title=" ">
<polygon fill="white" stroke="black" points="256.5,-126.5 256.5,-152.5 389.5,-152.5 389.5,-126.5 256.5,-126.5"/>
<text text-anchor="middle" x="323" y="-135.7" font-family="Source Sans Pro" font-size="16.00">vulkanBuffer.hpp</text>
</a>
</g>
</g>
<!-- Node1&#45;&gt;Node9 -->
<g id="edge17" class="edge">
<title>Node1&#45;&gt;Node9</title>
<path fill="none" stroke="midnightblue" d="M687.08,-387.5C594.12,-368.17 464.98,-334.01 362,-279 352.25,-273.79 289.73,-225.99 285,-216 275.9,-196.8 289.25,-175.17 302.56,-160"/>
<polygon fill="midnightblue" stroke="midnightblue" points="305.11,-162.39 309.4,-152.7 300.01,-157.61 305.11,-162.39"/>
</g>
<!-- Node10 -->
<g id="node10" class="node">
<title>Node10</title>
<g id="a_node10"><a xlink:title=" ">
<polygon fill="white" stroke="#bfbfbf" points="245,-63.5 245,-89.5 305,-89.5 305,-63.5 245,-63.5"/>
<text text-anchor="middle" x="275" y="-72.7" font-family="Source Sans Pro" font-size="16.00">deque</text>
</a>
</g>
</g>
<!-- Node1&#45;&gt;Node10 -->
<g id="edge76" class="edge">
<title>Node1&#45;&gt;Node10</title>
<path fill="none" stroke="midnightblue" d="M687.31,-405.22C502.72,-398.96 169.43,-382.19 133,-342 61.58,-263.21 194.2,-142.01 250.99,-96.04"/>
<polygon fill="midnightblue" stroke="midnightblue" points="253.46,-98.54 259.1,-89.57 249.1,-93.07 253.46,-98.54"/>
</g>
<!-- Node11 -->
<g id="node11" class="node">
<title>Node11</title>
<g id="a_node11"><a xlink:title=" ">
<polygon fill="white" stroke="#bfbfbf" points="90,-63.5 90,-89.5 176,-89.5 176,-63.5 90,-63.5"/>
<text text-anchor="middle" x="133" y="-72.7" font-family="Source Sans Pro" font-size="16.00">functional</text>
</a>
</g>
</g>
<!-- Node1&#45;&gt;Node11 -->
<g id="edge77" class="edge">
<title>Node1&#45;&gt;Node11</title>
<path fill="none" stroke="midnightblue" d="M687.44,-403.22C500.77,-394.17 160.14,-373.57 114,-342 82.99,-320.79 76,-304.07 76,-266.5 76,-266.5 76,-266.5 76,-201.5 76,-162 100.17,-121.36 117.03,-97.82"/>
<polygon fill="midnightblue" stroke="midnightblue" points="119.93,-99.79 123.07,-89.67 114.31,-95.62 119.93,-99.79"/>
</g>
<!-- Node14 -->
<g id="node14" class="node">
<title>Node14</title>
<g id="a_node14"><a xlink:href="vulkan_camera_8hpp.html" target="_top" xlink:title=" ">
<polygon fill="white" stroke="black" points="371.5,-252.5 371.5,-278.5 516.5,-278.5 516.5,-252.5 371.5,-252.5"/>
<text text-anchor="middle" x="444" y="-261.7" font-family="Source Sans Pro" font-size="16.00">vulkanCamera.hpp</text>
</a>
</g>
</g>
<!-- Node1&#45;&gt;Node14 -->
<g id="edge18" class="edge">
<title>Node1&#45;&gt;Node14</title>
<path fill="none" stroke="midnightblue" d="M731.59,-378.39C656.07,-349 544.12,-305.45 484.62,-282.3"/>
<polygon fill="midnightblue" stroke="midnightblue" points="485.78,-279 475.19,-278.63 483.24,-285.52 485.78,-279"/>
</g>
<!-- Node15 -->
<g id="node15" class="node">
<title>Node15</title>
<g id="a_node15"><a xlink:href="vulkan_uniform_buffer_object_8hpp.html" target="_top" xlink:title=" ">
<polygon fill="white" stroke="black" points="1628.5,-189.5 1628.5,-215.5 1861.5,-215.5 1861.5,-189.5 1628.5,-189.5"/>
<text text-anchor="middle" x="1745" y="-198.7" font-family="Source Sans Pro" font-size="16.00">vulkanUniformBufferObject.hpp</text>
</a>
</g>
</g>
<!-- Node1&#45;&gt;Node15 -->
<g id="edge66" class="edge">
<title>Node1&#45;&gt;Node15</title>
<path fill="none" stroke="midnightblue" d="M930.59,-404.01C1211,-392.36 1883.95,-356.53 1948,-279 1955.64,-269.75 1955.43,-261.42 1948,-252 1935.5,-236.17 1895.49,-224.93 1854.25,-217.29"/>
<polygon fill="midnightblue" stroke="midnightblue" points="1854.78,-213.83 1844.32,-215.52 1853.55,-220.72 1854.78,-213.83"/>
</g>
<!-- Node18 -->
<g id="node18" class="node">
<title>Node18</title>
<g id="a_node18"><a xlink:href="vulkan_renderable_8hpp.html" target="_top" xlink:title=" ">
<polygon fill="white" stroke="black" points="1441,-315.5 1441,-341.5 1611,-341.5 1611,-315.5 1441,-315.5"/>
<text text-anchor="middle" x="1526" y="-324.7" font-family="Source Sans Pro" font-size="16.00">vulkanRenderable.hpp</text>
</a>
</g>
</g>
<!-- Node1&#45;&gt;Node18 -->
<g id="edge23" class="edge">
<title>Node1&#45;&gt;Node18</title>
<path fill="none" stroke="midnightblue" d="M930.63,-395.1C1071.84,-379.54 1301.79,-354.2 1430.68,-340"/>
<polygon fill="midnightblue" stroke="midnightblue" points="1431.37,-343.45 1440.93,-338.87 1430.61,-336.49 1431.37,-343.45"/>
</g>
<!-- Node23 -->
<g id="node23" class="node">
<title>Node23</title>
<g id="a_node23"><a xlink:title=" ">
<polygon fill="white" stroke="#bfbfbf" points="2142.5,-189.5 2142.5,-215.5 2267.5,-215.5 2267.5,-189.5 2142.5,-189.5"/>
<text text-anchor="middle" x="2205" y="-198.7" font-family="Source Sans Pro" font-size="16.00">vulkan/vulkan.h</text>
</a>
</g>
</g>
<!-- Node1&#45;&gt;Node23 -->
<g id="edge72" class="edge">
<title>Node1&#45;&gt;Node23</title>
<path fill="none" stroke="midnightblue" d="M930.71,-404.93C1120.46,-398.35 1498,-381.24 1816,-342 1893.78,-332.4 2099.28,-324.62 2163,-279 2181.08,-266.06 2192.3,-242.79 2198.55,-225.49"/>
<polygon fill="midnightblue" stroke="midnightblue" points="2201.99,-226.23 2201.81,-215.64 2195.35,-224.03 2201.99,-226.23"/>
</g>
<!-- Node26 -->
<g id="node26" class="node">
<title>Node26</title>
<g id="a_node26"><a xlink:href="vulkan_texture_8hpp.html" target="_top" xlink:title=" ">
<polygon fill="white" stroke="black" points="738.5,-252.5 738.5,-278.5 879.5,-278.5 879.5,-252.5 738.5,-252.5"/>
<text text-anchor="middle" x="809" y="-261.7" font-family="Source Sans Pro" font-size="16.00">vulkanTexture.hpp</text>
</a>
</g>
</g>
<!-- Node1&#45;&gt;Node26 -->
<g id="edge69" class="edge">
<title>Node1&#45;&gt;Node26</title>
<path fill="none" stroke="midnightblue" d="M809,-378.39C809,-351.68 809,-313.26 809,-289.11"/>
<polygon fill="midnightblue" stroke="midnightblue" points="812.5,-288.81 809,-278.81 805.5,-288.81 812.5,-288.81"/>
</g>
<!-- Node31 -->
<g id="node31" class="node">
<title>Node31</title>
<g id="a_node31"><a xlink:title=" ">
<polygon fill="white" stroke="#bfbfbf" points="1854.5,-126.5 1854.5,-152.5 1927.5,-152.5 1927.5,-126.5 1854.5,-126.5"/>
<text text-anchor="middle" x="1891" y="-135.7" font-family="Source Sans Pro" font-size="16.00">optional</text>
</a>
</g>
</g>
<!-- Node1&#45;&gt;Node31 -->
<g id="edge78" class="edge">
<title>Node1&#45;&gt;Node31</title>
<path fill="none" stroke="midnightblue" d="M930.8,-409.28C1140.11,-408.86 1580.95,-400.3 1948,-342 2002.46,-333.35 2138.03,-302.3 2188,-279 2231.92,-258.52 2254.73,-259.04 2277,-216 2282.51,-205.34 2284.94,-198 2277,-189 2265.87,-176.39 2038.35,-154.04 1937.93,-144.74"/>
<polygon fill="midnightblue" stroke="midnightblue" points="1938.04,-141.24 1927.76,-143.8 1937.4,-148.21 1938.04,-141.24"/>
</g>
<!-- Node41 -->
<g id="node41" class="node">
<title>Node41</title>
<g id="a_node41"><a xlink:href="vulkan_command_buffer_8hpp.html" target="_top" xlink:title=" ">
<polygon fill="white" stroke="black" points="2102,-315.5 2102,-341.5 2306,-341.5 2306,-315.5 2102,-315.5"/>
<text text-anchor="middle" x="2204" y="-324.7" font-family="Source Sans Pro" font-size="16.00">vulkanCommandBuffer.hpp</text>
</a>
</g>
</g>
<!-- Node1&#45;&gt;Node41 -->
<g id="edge68" class="edge">
<title>Node1&#45;&gt;Node41</title>
<path fill="none" stroke="midnightblue" d="M930.83,-404.41C1158.42,-396.28 1663.55,-375.88 2088,-342 2089.28,-341.9 2090.56,-341.79 2091.86,-341.69"/>
<polygon fill="midnightblue" stroke="midnightblue" points="2092.21,-345.17 2101.87,-340.82 2091.61,-338.2 2092.21,-345.17"/>
</g>
<!-- Node42 -->
<g id="node42" class="node">
<title>Node42</title>
<g id="a_node42"><a xlink:href="vulkan_framebuffer_8hpp.html" target="_top" xlink:title=" ">
<polygon fill="white" stroke="black" points="142.5,-315.5 142.5,-341.5 317.5,-341.5 317.5,-315.5 142.5,-315.5"/>
<text text-anchor="middle" x="230" y="-324.7" font-family="Source Sans Pro" font-size="16.00">vulkanFramebuffer.hpp</text>
</a>
</g>
</g>
<!-- Node1&#45;&gt;Node42 -->
<g id="edge70" class="edge">
<title>Node1&#45;&gt;Node42</title>
<path fill="none" stroke="midnightblue" d="M687.27,-391.89C580.32,-377.3 426.73,-356.34 327.66,-342.82"/>
<polygon fill="midnightblue" stroke="midnightblue" points="328.03,-339.34 317.65,-341.46 327.08,-346.28 328.03,-339.34"/>
</g>
<!-- Node43 -->
<g id="node43" class="node">
<title>Node43</title>
<g id="a_node43"><a xlink:title=" ">
<polygon fill="white" stroke="#bfbfbf" points="2362.5,-315.5 2362.5,-341.5 2445.5,-341.5 2445.5,-315.5 2362.5,-315.5"/>
<text text-anchor="middle" x="2404" y="-324.7" font-family="Source Sans Pro" font-size="16.00">GL/glew.h</text>
</a>
</g>
</g>
<!-- Node1&#45;&gt;Node43 -->
<g id="edge74" class="edge">
<title>Node1&#45;&gt;Node43</title>
<path fill="none" stroke="midnightblue" d="M930.65,-406.02C1244.29,-399.17 2074.83,-378.1 2348,-342 2349.31,-341.83 2350.63,-341.64 2351.95,-341.44"/>
<polygon fill="midnightblue" stroke="midnightblue" points="2352.99,-344.81 2362.25,-339.66 2351.8,-337.91 2352.99,-344.81"/>
</g>
<!-- Node44 -->
<g id="node44" class="node">
<title>Node44</title>
<g id="a_node44"><a xlink:title=" ">
<polygon fill="white" stroke="#bfbfbf" points="2464,-315.5 2464,-341.5 2572,-341.5 2572,-315.5 2464,-315.5"/>
<text text-anchor="middle" x="2518" y="-324.7" font-family="Source Sans Pro" font-size="16.00">GLFW/glfw3.h</text>
</a>
</g>
</g>
<!-- Node1&#45;&gt;Node44 -->
<g id="edge75" class="edge">
<title>Node1&#45;&gt;Node44</title>
<path fill="none" stroke="midnightblue" d="M930.64,-406.04C1255.72,-399.08 2140.62,-377.49 2453.79,-341.97"/>
<polygon fill="midnightblue" stroke="midnightblue" points="2454.26,-345.44 2463.79,-340.81 2453.45,-338.49 2454.26,-345.44"/>
</g>
<!-- Node2&#45;&gt;Node3 -->
<g id="edge2" class="edge">
<title>Node2&#45;&gt;Node3</title>
<path fill="none" stroke="midnightblue" d="M289.61,-252.48C331.39,-243.69 388,-230.75 437,-216 453.63,-211 674.37,-128.36 768.23,-93.17"/>
<polygon fill="midnightblue" stroke="midnightblue" points="769.57,-96.41 777.71,-89.62 767.11,-89.85 769.57,-96.41"/>
</g>
<!-- Node8 -->
<g id="node8" class="node">
<title>Node8</title>
<g id="a_node8"><a xlink:href="vulkan_image_8hpp.html" target="_top" xlink:title=" ">
<polygon fill="white" stroke="black" points="294,-189.5 294,-215.5 428,-215.5 428,-189.5 294,-189.5"/>
<text text-anchor="middle" x="361" y="-198.7" font-family="Source Sans Pro" font-size="16.00">vulkanImage.hpp</text>
</a>
</g>
</g>
<!-- Node2&#45;&gt;Node8 -->
<g id="edge7" class="edge">
<title>Node2&#45;&gt;Node8</title>
<path fill="none" stroke="midnightblue" d="M255.08,-252.45C275.33,-243.09 303.61,-230.02 325.85,-219.74"/>
<polygon fill="midnightblue" stroke="midnightblue" points="327.37,-222.9 334.98,-215.53 324.43,-216.54 327.37,-222.9"/>
</g>
<!-- Node2&#45;&gt;Node10 -->
<g id="edge14" class="edge">
<title>Node2&#45;&gt;Node10</title>
<path fill="none" stroke="midnightblue" d="M229,-252.28C229.33,-227.7 231.84,-170.79 247,-126 250.26,-116.36 255.53,-106.5 260.63,-98.21"/>
<polygon fill="midnightblue" stroke="midnightblue" points="263.7,-99.91 266.19,-89.61 257.82,-96.11 263.7,-99.91"/>
</g>
<!-- Node2&#45;&gt;Node11 -->
<g id="edge15" class="edge">
<title>Node2&#45;&gt;Node11</title>
<path fill="none" stroke="midnightblue" d="M213.27,-252.2C190.99,-233.6 151.48,-195.91 138,-153 132.55,-135.65 131.53,-115 131.75,-99.68"/>
<polygon fill="midnightblue" stroke="midnightblue" points="135.25,-99.7 132.07,-89.59 128.25,-99.47 135.25,-99.7"/>
</g>
<!-- Node3&#45;&gt;Node4 -->
<g id="edge3" class="edge">
<title>Node3&#45;&gt;Node4</title>
<path fill="none" stroke="midnightblue" d="M701.86,-63.48C596.98,-51.83 440.06,-34.4 344.46,-23.77"/>
<polygon fill="midnightblue" stroke="midnightblue" points="344.59,-20.27 334.26,-22.64 343.81,-27.22 344.59,-20.27"/>
</g>
<!-- Node3&#45;&gt;Node5 -->
<g id="edge4" class="edge">
<title>Node3&#45;&gt;Node5</title>
<path fill="none" stroke="midnightblue" d="M756.66,-63.45C712.56,-53.49 649.84,-39.32 603.22,-28.78"/>
<polygon fill="midnightblue" stroke="midnightblue" points="603.76,-25.32 593.23,-26.53 602.22,-32.14 603.76,-25.32"/>
</g>
<!-- Node6 -->
<g id="node6" class="node">
<title>Node6</title>
<g id="a_node6"><a xlink:title=" ">
<polygon fill="white" stroke="#bfbfbf" points="745.5,-0.5 745.5,-26.5 874.5,-26.5 874.5,-0.5 745.5,-0.5"/>
<text text-anchor="middle" x="810" y="-9.7" font-family="Source Sans Pro" font-size="16.00">vk_mem_alloc.h</text>
</a>
</g>
</g>
<!-- Node3&#45;&gt;Node6 -->
<g id="edge5" class="edge">
<title>Node3&#45;&gt;Node6</title>
<path fill="none" stroke="midnightblue" d="M810,-63.45C810,-55.85 810,-45.79 810,-36.78"/>
<polygon fill="midnightblue" stroke="midnightblue" points="813.5,-36.53 810,-26.53 806.5,-36.53 813.5,-36.53"/>
</g>
<!-- Node7 -->
<g id="node7" class="node">
<title>Node7</title>
<g id="a_node7"><a xlink:title=" ">
<polygon fill="white" stroke="#bfbfbf" points="2462.5,-0.5 2462.5,-26.5 2521.5,-26.5 2521.5,-0.5 2462.5,-0.5"/>
<text text-anchor="middle" x="2492" y="-9.7" font-family="Source Sans Pro" font-size="16.00">vector</text>
</a>
</g>
</g>
<!-- Node3&#45;&gt;Node7 -->
<g id="edge6" class="edge">
<title>Node3&#45;&gt;Node7</title>
<path fill="none" stroke="midnightblue" d="M923.63,-71.38C1260.2,-59.17 2241.6,-23.58 2451.99,-15.95"/>
<polygon fill="midnightblue" stroke="midnightblue" points="2452.39,-19.44 2462.26,-15.58 2452.14,-12.44 2452.39,-19.44"/>
</g>
<!-- Node8&#45;&gt;Node9 -->
<g id="edge8" class="edge">
<title>Node8&#45;&gt;Node9</title>
<path fill="none" stroke="midnightblue" d="M353.49,-189.45C348.5,-181.43 341.8,-170.68 335.96,-161.3"/>
<polygon fill="midnightblue" stroke="midnightblue" points="338.75,-159.16 330.49,-152.53 332.81,-162.87 338.75,-159.16"/>
</g>
<!-- Node12 -->
<g id="node12" class="node">
<title>Node12</title>
<g id="a_node12"><a xlink:title=" ">
<polygon fill="white" stroke="#bfbfbf" points="408,-126.5 408,-152.5 508,-152.5 508,-126.5 408,-126.5"/>
<text text-anchor="middle" x="458" y="-135.7" font-family="Source Sans Pro" font-size="16.00">stb_image.h</text>
</a>
</g>
</g>
<!-- Node8&#45;&gt;Node12 -->
<g id="edge12" class="edge">
<title>Node8&#45;&gt;Node12</title>
<path fill="none" stroke="midnightblue" d="M380.16,-189.45C394.51,-180.43 414.35,-167.95 430.4,-157.85"/>
<polygon fill="midnightblue" stroke="midnightblue" points="432.27,-160.81 438.88,-152.53 428.55,-154.89 432.27,-160.81"/>
</g>
<!-- Node13 -->
<g id="node13" class="node">
<title>Node13</title>
<g id="a_node13"><a xlink:title=" ">
<polygon fill="white" stroke="#bfbfbf" points="526.5,-126.5 526.5,-152.5 585.5,-152.5 585.5,-126.5 526.5,-126.5"/>
<text text-anchor="middle" x="556" y="-135.7" font-family="Source Sans Pro" font-size="16.00">cmath</text>
</a>
</g>
</g>
<!-- Node8&#45;&gt;Node13 -->
<g id="edge13" class="edge">
<title>Node8&#45;&gt;Node13</title>
<path fill="none" stroke="midnightblue" d="M400.14,-189.44C429.61,-180.33 471.26,-167.41 516.49,-153.14"/>
<polygon fill="midnightblue" stroke="midnightblue" points="517.72,-156.43 526.2,-150.08 515.61,-149.75 517.72,-156.43"/>
</g>
<!-- Node9&#45;&gt;Node3 -->
<g id="edge9" class="edge">
<title>Node9&#45;&gt;Node3</title>
<path fill="none" stroke="midnightblue" d="M389.7,-127.35C392.84,-126.88 395.95,-126.43 399,-126 495.2,-112.42 604.44,-99.66 686.1,-90.63"/>
<polygon fill="midnightblue" stroke="midnightblue" points="686.87,-94.07 696.43,-89.5 686.1,-87.11 686.87,-94.07"/>
</g>
<!-- Node9&#45;&gt;Node10 -->
<g id="edge10" class="edge">
<title>Node9&#45;&gt;Node10</title>
<path fill="none" stroke="midnightblue" d="M313.52,-126.45C307.01,-118.18 298.22,-107.01 290.68,-97.42"/>
<polygon fill="midnightblue" stroke="midnightblue" points="293.4,-95.22 284.46,-89.53 287.9,-99.55 293.4,-95.22"/>
</g>
<!-- Node9&#45;&gt;Node11 -->
<g id="edge11" class="edge">
<title>Node9&#45;&gt;Node11</title>
<path fill="none" stroke="midnightblue" d="M285.46,-126.45C255.28,-116.76 212.69,-103.08 180.2,-92.65"/>
<polygon fill="midnightblue" stroke="midnightblue" points="181.05,-89.25 170.46,-89.53 178.91,-95.92 181.05,-89.25"/>
</g>
<!-- Node14&#45;&gt;Node13 -->
<g id="edge22" class="edge">
<title>Node14&#45;&gt;Node13</title>
<path fill="none" stroke="midnightblue" d="M455.15,-252.16C474.52,-230.71 514.56,-186.38 537.94,-160.5"/>
<polygon fill="midnightblue" stroke="midnightblue" points="540.79,-162.56 544.9,-152.79 535.6,-157.87 540.79,-162.56"/>
</g>
<!-- Node14&#45;&gt;Node15 -->
<g id="edge19" class="edge">
<title>Node14&#45;&gt;Node15</title>
<path fill="none" stroke="midnightblue" d="M516.81,-252.85C519.57,-252.54 522.31,-252.25 525,-252 992.55,-208.11 1112.11,-241.85 1581,-216 1593.04,-215.34 1605.56,-214.55 1618.09,-213.7"/>
<polygon fill="midnightblue" stroke="midnightblue" points="1618.39,-217.19 1628.13,-213.01 1617.91,-210.21 1618.39,-217.19"/>
</g>
<!-- Node17 -->
<g id="node17" class="node">
<title>Node17</title>
<g id="a_node17"><a xlink:title=" ">
<polygon fill="white" stroke="#bfbfbf" points="522,-189.5 522,-215.5 744,-215.5 744,-189.5 522,-189.5"/>
<text text-anchor="middle" x="633" y="-198.7" font-family="Source Sans Pro" font-size="16.00">glm/gtc/matrix_transform.hpp</text>
</a>
</g>
</g>
<!-- Node14&#45;&gt;Node17 -->
<g id="edge21" class="edge">
<title>Node14&#45;&gt;Node17</title>
<path fill="none" stroke="midnightblue" d="M481.34,-252.45C511.37,-242.76 553.73,-229.08 586.05,-218.65"/>
<polygon fill="midnightblue" stroke="midnightblue" points="587.3,-221.93 595.74,-215.53 585.15,-215.27 587.3,-221.93"/>
</g>
<!-- Node16 -->
<g id="node16" class="node">
<title>Node16</title>
<g id="a_node16"><a xlink:title=" ">
<polygon fill="white" stroke="#bfbfbf" points="2062,-126.5 2062,-152.5 2166,-152.5 2166,-126.5 2062,-126.5"/>
<text text-anchor="middle" x="2114" y="-135.7" font-family="Source Sans Pro" font-size="16.00">glm/glm.hpp</text>
</a>
</g>
</g>
<!-- Node15&#45;&gt;Node16 -->
<g id="edge20" class="edge">
<title>Node15&#45;&gt;Node16</title>
<path fill="none" stroke="midnightblue" d="M1817.9,-189.45C1886.19,-178.16 1987.14,-161.47 2051.74,-150.79"/>
<polygon fill="midnightblue" stroke="midnightblue" points="2052.49,-154.22 2061.78,-149.13 2051.35,-147.31 2052.49,-154.22"/>
</g>
<!-- Node18&#45;&gt;Node3 -->
<g id="edge51" class="edge">
<title>Node18&#45;&gt;Node3</title>
<path fill="none" stroke="midnightblue" d="M1440.78,-326.38C1284.27,-323.49 963.62,-313.4 927,-279 897.54,-251.33 931.47,-225.44 914,-189 895.57,-150.57 859.18,-116.37 834.72,-96.29"/>
<polygon fill="midnightblue" stroke="midnightblue" points="836.6,-93.31 826.61,-89.79 832.22,-98.77 836.6,-93.31"/>
</g>
<!-- Node18&#45;&gt;Node7 -->
<g id="edge65" class="edge">
<title>Node18&#45;&gt;Node7</title>
<path fill="none" stroke="midnightblue" d="M1611.41,-325.2C1853.6,-317.77 2531.43,-290.46 2595,-216 2639.15,-164.29 2631.43,-120.42 2595,-63 2581.07,-41.05 2554.26,-28.85 2531.49,-22.18"/>
<polygon fill="midnightblue" stroke="midnightblue" points="2532.26,-18.76 2521.7,-19.57 2530.46,-25.53 2532.26,-18.76"/>
</g>
<!-- Node18&#45;&gt;Node14 -->
<g id="edge28" class="edge">
<title>Node18&#45;&gt;Node14</title>
<path fill="none" stroke="midnightblue" d="M1440.74,-326.38C1269.39,-323.46 870.87,-313.37 526.97,-279.12"/>
<polygon fill="midnightblue" stroke="midnightblue" points="527.11,-275.62 516.81,-278.1 526.41,-282.59 527.11,-275.62"/>
</g>
<!-- Node18&#45;&gt;Node15 -->
<g id="edge50" class="edge">
<title>Node18&#45;&gt;Node15</title>
<path fill="none" stroke="midnightblue" d="M1611.27,-323.2C1723.54,-316.66 1909.23,-302.42 1930,-279 1958.39,-247 1916.51,-228.31 1865.47,-217.54"/>
<polygon fill="midnightblue" stroke="midnightblue" points="1865.99,-214.07 1855.5,-215.55 1864.63,-220.94 1865.99,-214.07"/>
</g>
<!-- Node19 -->
<g id="node19" class="node">
<title>Node19</title>
<g id="a_node19"><a xlink:href="vulkan_shader_8hpp.html" target="_top" xlink:title=" ">
<polygon fill="white" stroke="black" points="1672,-252.5 1672,-278.5 1812,-278.5 1812,-252.5 1672,-252.5"/>
<text text-anchor="middle" x="1742" y="-261.7" font-family="Source Sans Pro" font-size="16.00">vulkanShader.hpp</text>
</a>
</g>
</g>
<!-- Node18&#45;&gt;Node19 -->
<g id="edge24" class="edge">
<title>Node18&#45;&gt;Node19</title>
<path fill="none" stroke="midnightblue" d="M1568.67,-315.45C1603.44,-305.63 1652.66,-291.73 1689.77,-281.25"/>
<polygon fill="midnightblue" stroke="midnightblue" points="1690.74,-284.61 1699.41,-278.53 1688.84,-277.88 1690.74,-284.61"/>
</g>
<!-- Node20 -->
<g id="node20" class="node">
<title>Node20</title>
<g id="a_node20"><a xlink:title=" ">
<polygon fill="white" stroke="#bfbfbf" points="1183,-189.5 1183,-215.5 1251,-215.5 1251,-189.5 1183,-189.5"/>
<text text-anchor="middle" x="1217" y="-198.7" font-family="Source Sans Pro" font-size="16.00">fstream</text>
</a>
</g>
</g>
<!-- Node18&#45;&gt;Node20 -->
<g id="edge63" class="edge">
<title>Node18&#45;&gt;Node20</title>
<path fill="none" stroke="midnightblue" d="M1564.38,-315.44C1601.47,-301.88 1648.79,-278.28 1625,-252 1571.05,-192.39 1344.14,-230.17 1265,-216 1263.74,-215.77 1262.46,-215.53 1261.17,-215.28"/>
<polygon fill="midnightblue" stroke="midnightblue" points="1261.72,-211.81 1251.21,-213.1 1260.23,-218.65 1261.72,-211.81"/>
</g>
<!-- Node21 -->
<g id="node21" class="node">
<title>Node21</title>
<g id="a_node21"><a xlink:title=" ">
<polygon fill="white" stroke="#bfbfbf" points="1510,-189.5 1510,-215.5 1572,-215.5 1572,-189.5 1510,-189.5"/>
<text text-anchor="middle" x="1541" y="-198.7" font-family="Source Sans Pro" font-size="16.00">cstring</text>
</a>
</g>
</g>
<!-- Node18&#45;&gt;Node21 -->
<g id="edge64" class="edge">
<title>Node18&#45;&gt;Node21</title>
<path fill="none" stroke="midnightblue" d="M1611.08,-327.04C1697.61,-324.56 1823.21,-314.68 1854,-279 1861.84,-269.92 1861.9,-261.03 1854,-252 1814.44,-206.77 1644.87,-228.07 1586,-216 1584.75,-215.74 1583.48,-215.47 1582.2,-215.19"/>
<polygon fill="midnightblue" stroke="midnightblue" points="1582.88,-211.75 1572.34,-212.8 1581.23,-218.55 1582.88,-211.75"/>
</g>
<!-- Node22 -->
<g id="node22" class="node">
<title>Node22</title>
<g id="a_node22"><a xlink:href="vulkan_vertex_8hpp.html" target="_top" xlink:title=" ">
<polygon fill="white" stroke="black" points="2020.5,-252.5 2020.5,-278.5 2153.5,-278.5 2153.5,-252.5 2020.5,-252.5"/>
<text text-anchor="middle" x="2087" y="-261.7" font-family="Source Sans Pro" font-size="16.00">vulkanVertex.hpp</text>
</a>
</g>
</g>
<!-- Node18&#45;&gt;Node22 -->
<g id="edge29" class="edge">
<title>Node18&#45;&gt;Node22</title>
<path fill="none" stroke="midnightblue" d="M1611.2,-318.24C1719.77,-306.43 1905.84,-286.2 2010.22,-274.85"/>
<polygon fill="midnightblue" stroke="midnightblue" points="2010.8,-278.31 2020.36,-273.75 2010.05,-271.35 2010.8,-278.31"/>
</g>
<!-- Node18&#45;&gt;Node26 -->
<g id="edge34" class="edge">
<title>Node18&#45;&gt;Node26</title>
<path fill="none" stroke="midnightblue" d="M1440.98,-322.86C1319.46,-315.79 1089.21,-300.82 894,-279 892.71,-278.86 891.4,-278.71 890.09,-278.55"/>
<polygon fill="midnightblue" stroke="midnightblue" points="890.27,-275.05 879.91,-277.3 889.41,-282 890.27,-275.05"/>
</g>
<!-- Node27 -->
<g id="node27" class="node">
<title>Node27</title>
<g id="a_node27"><a xlink:title=" ">
<polygon fill="white" stroke="#bfbfbf" points="838.5,-189.5 838.5,-215.5 905.5,-215.5 905.5,-189.5 838.5,-189.5"/>
<text text-anchor="middle" x="872" y="-198.7" font-family="Source Sans Pro" font-size="16.00">cstddef</text>
</a>
</g>
</g>
<!-- Node18&#45;&gt;Node27 -->
<g id="edge62" class="edge">
<title>Node18&#45;&gt;Node27</title>
<path fill="none" stroke="midnightblue" d="M1440.76,-325.42C1240.13,-320.1 753.11,-304.62 729,-279 720.78,-270.26 722.01,-261.75 729,-252 735.07,-243.53 788.78,-226.87 828.6,-215.46"/>
<polygon fill="midnightblue" stroke="midnightblue" points="829.72,-218.78 838.39,-212.68 827.81,-212.05 829.72,-218.78"/>
</g>
<!-- Node28 -->
<g id="node28" class="node">
<title>Node28</title>
<g id="a_node28"><a xlink:href="vulkan_descriptor_set_8hpp.html" target="_top" xlink:title=" ">
<polygon fill="white" stroke="black" points="1310,-189.5 1310,-215.5 1492,-215.5 1492,-189.5 1310,-189.5"/>
<text text-anchor="middle" x="1401" y="-198.7" font-family="Source Sans Pro" font-size="16.00">vulkanDescriptorSet.hpp</text>
</a>
</g>
</g>
<!-- Node18&#45;&gt;Node28 -->
<g id="edge39" class="edge">
<title>Node18&#45;&gt;Node28</title>
<path fill="none" stroke="midnightblue" d="M1611.29,-325.34C1688.65,-321.37 1794.5,-310.21 1821,-279 1828.77,-269.85 1829,-260.95 1821,-252 1775.22,-200.78 1587.93,-222.5 1502.19,-215.91"/>
<polygon fill="midnightblue" stroke="midnightblue" points="1502.3,-212.4 1492.01,-214.92 1501.63,-219.37 1502.3,-212.4"/>
</g>
<!-- Node29 -->
<g id="node29" class="node">
<title>Node29</title>
<g id="a_node29"><a xlink:href="vulkan_acceleration_structure_8hpp.html" target="_top" xlink:title=" ">
<polygon fill="white" stroke="black" points="1481,-126.5 1481,-152.5 1719,-152.5 1719,-126.5 1481,-126.5"/>
<text text-anchor="middle" x="1600" y="-135.7" font-family="Source Sans Pro" font-size="16.00">vulkanAccelerationStructure.hpp</text>
</a>
</g>
</g>
<!-- Node18&#45;&gt;Node29 -->
<g id="edge49" class="edge">
<title>Node18&#45;&gt;Node29</title>
<path fill="none" stroke="midnightblue" d="M1611.07,-327.75C1701.87,-325.99 1837.12,-316.84 1870,-279 1877.87,-269.94 1877.86,-261.07 1870,-252 1796.5,-167.15 1703.84,-290.65 1620,-216 1605.13,-202.76 1600.74,-179.87 1599.7,-162.76"/>
<polygon fill="midnightblue" stroke="midnightblue" points="1603.19,-162.4 1599.42,-152.5 1596.19,-162.59 1603.19,-162.4"/>
</g>
<!-- Node33 -->
<g id="node33" class="node">
<title>Node33</title>
<g id="a_node33"><a xlink:href="vulkan_pipeline_8hpp.html" target="_top" xlink:title=" ">
<polygon fill="white" stroke="black" points="534.5,-252.5 534.5,-278.5 681.5,-278.5 681.5,-252.5 534.5,-252.5"/>
<text text-anchor="middle" x="608" y="-261.7" font-family="Source Sans Pro" font-size="16.00">vulkanPipeline.hpp</text>
</a>
</g>
</g>
<!-- Node18&#45;&gt;Node33 -->
<g id="edge44" class="edge">
<title>Node18&#45;&gt;Node33</title>
<path fill="none" stroke="midnightblue" d="M1440.98,-324.85C1290.49,-319.65 967.45,-306.16 696,-279 694.7,-278.87 693.4,-278.74 692.08,-278.6"/>
<polygon fill="midnightblue" stroke="midnightblue" points="692.22,-275.09 681.89,-277.45 691.43,-282.05 692.22,-275.09"/>
</g>
<!-- Node34 -->
<g id="node34" class="node">
<title>Node34</title>
<g id="a_node34"><a xlink:href="_i_e_asset_8hpp.html" target="_top" xlink:title=" ">
<polygon fill="white" stroke="black" points="2362,-189.5 2362,-215.5 2586,-215.5 2586,-189.5 2362,-189.5"/>
<text text-anchor="middle" x="2474" y="-198.7" font-family="Source Sans Pro" font-size="16.00">Core/AssetModule/IEAsset.hpp</text>
</a>
</g>
</g>
<!-- Node18&#45;&gt;Node34 -->
<g id="edge52" class="edge">
<title>Node18&#45;&gt;Node34</title>
<path fill="none" stroke="midnightblue" d="M1611.23,-326.07C1760.51,-322.72 2062.93,-311.98 2163,-279 2184.43,-271.94 2184.96,-260.16 2206,-252 2252,-234.17 2305.03,-222.81 2351.71,-215.62"/>
<polygon fill="midnightblue" stroke="midnightblue" points="2352.5,-219.04 2361.87,-214.1 2351.47,-212.12 2352.5,-219.04"/>
</g>
<!-- Node37 -->
<g id="node37" class="node">
<title>Node37</title>
<g id="a_node37"><a xlink:title=" ">
<polygon fill="white" stroke="#bfbfbf" points="936,-252.5 936,-278.5 1096,-278.5 1096,-252.5 936,-252.5"/>
<text text-anchor="middle" x="1016" y="-261.7" font-family="Source Sans Pro" font-size="16.00">assimp/Importer.hpp</text>
</a>
</g>
</g>
<!-- Node18&#45;&gt;Node37 -->
<g id="edge58" class="edge">
<title>Node18&#45;&gt;Node37</title>
<path fill="none" stroke="midnightblue" d="M1440.86,-318.32C1358.01,-309.24 1228.28,-294.65 1105.96,-279.1"/>
<polygon fill="midnightblue" stroke="midnightblue" points="1106.4,-275.63 1096.04,-277.84 1105.52,-282.57 1106.4,-275.63"/>
</g>
<!-- Node38 -->
<g id="node38" class="node">
<title>Node38</title>
<g id="a_node38"><a xlink:title=" ">
<polygon fill="white" stroke="#bfbfbf" points="1114,-252.5 1114,-278.5 1236,-278.5 1236,-252.5 1114,-252.5"/>
<text text-anchor="middle" x="1175" y="-261.7" font-family="Source Sans Pro" font-size="16.00">assimp/scene.h</text>
</a>
</g>
</g>
<!-- Node18&#45;&gt;Node38 -->
<g id="edge59" class="edge">
<title>Node18&#45;&gt;Node38</title>
<path fill="none" stroke="midnightblue" d="M1455.54,-315.45C1401.02,-306.11 1323.36,-292.74 1246,-279.17"/>
<polygon fill="midnightblue" stroke="midnightblue" points="1246.53,-275.71 1236.08,-277.43 1245.32,-282.6 1246.53,-275.71"/>
</g>
<!-- Node39 -->
<g id="node39" class="node">
<title>Node39</title>
<g id="a_node39"><a xlink:title=" ">
<polygon fill="white" stroke="#bfbfbf" points="1254,-252.5 1254,-278.5 1418,-278.5 1418,-252.5 1254,-252.5"/>
<text text-anchor="middle" x="1336" y="-261.7" font-family="Source Sans Pro" font-size="16.00">assimp/postprocess.h</text>
</a>
</g>
</g>
<!-- Node18&#45;&gt;Node39 -->
<g id="edge60" class="edge">
<title>Node18&#45;&gt;Node39</title>
<path fill="none" stroke="midnightblue" d="M1488.46,-315.45C1458.28,-305.76 1415.69,-292.08 1383.2,-281.65"/>
<polygon fill="midnightblue" stroke="midnightblue" points="1384.05,-278.25 1373.46,-278.53 1381.91,-284.92 1384.05,-278.25"/>
</g>
<!-- Node40 -->
<g id="node40" class="node">
<title>Node40</title>
<g id="a_node40"><a xlink:title=" ">
<polygon fill="white" stroke="#bfbfbf" points="1436.5,-252.5 1436.5,-278.5 1615.5,-278.5 1615.5,-252.5 1436.5,-252.5"/>
<text text-anchor="middle" x="1526" y="-261.7" font-family="Source Sans Pro" font-size="16.00">glm/gtc/quaternion.hpp</text>
</a>
</g>
</g>
<!-- Node18&#45;&gt;Node40 -->
<g id="edge61" class="edge">
<title>Node18&#45;&gt;Node40</title>
<path fill="none" stroke="midnightblue" d="M1526,-315.45C1526,-307.85 1526,-297.79 1526,-288.78"/>
<polygon fill="midnightblue" stroke="midnightblue" points="1529.5,-288.53 1526,-278.53 1522.5,-288.53 1529.5,-288.53"/>
</g>
<!-- Node19&#45;&gt;Node3 -->
<g id="edge25" class="edge">
<title>Node19&#45;&gt;Node3</title>
<path fill="none" stroke="midnightblue" d="M1671.81,-255.55C1661.81,-254.33 1651.65,-253.11 1642,-252 1490.6,-234.55 1444.48,-267.36 1301,-216 1280.46,-208.65 1279.99,-197.75 1260,-189 1142.62,-137.62 997.2,-107.02 904.02,-91.23"/>
<polygon fill="midnightblue" stroke="midnightblue" points="904.48,-87.76 894.04,-89.56 903.33,-94.66 904.48,-87.76"/>
</g>
<!-- Node19&#45;&gt;Node20 -->
<g id="edge26" class="edge">
<title>Node19&#45;&gt;Node20</title>
<path fill="none" stroke="midnightblue" d="M1671.91,-253.77C1667.21,-253.14 1662.54,-252.55 1658,-252 1483.85,-231.08 1437.78,-246.2 1265,-216 1263.74,-215.78 1262.46,-215.54 1261.17,-215.29"/>
<polygon fill="midnightblue" stroke="midnightblue" points="1261.71,-211.83 1251.2,-213.13 1260.23,-218.67 1261.71,-211.83"/>
</g>
<!-- Node19&#45;&gt;Node21 -->
<g id="edge27" class="edge">
<title>Node19&#45;&gt;Node21</title>
<path fill="none" stroke="midnightblue" d="M1702.29,-252.45C1667.51,-241.89 1617.17,-226.62 1582.01,-215.95"/>
<polygon fill="midnightblue" stroke="midnightblue" points="1582.66,-212.48 1572.07,-212.93 1580.62,-219.18 1582.66,-212.48"/>
</g>
<!-- Node22&#45;&gt;Node16 -->
<g id="edge31" class="edge">
<title>Node22&#45;&gt;Node16</title>
<path fill="none" stroke="midnightblue" d="M2089.69,-252.16C2094.22,-231.36 2103.43,-189.05 2109.12,-162.9"/>
<polygon fill="midnightblue" stroke="midnightblue" points="2112.62,-163.31 2111.32,-152.79 2105.78,-161.82 2112.62,-163.31"/>
</g>
<!-- Node22&#45;&gt;Node23 -->
<g id="edge30" class="edge">
<title>Node22&#45;&gt;Node23</title>
<path fill="none" stroke="midnightblue" d="M2110.31,-252.45C2128.17,-243.22 2153.02,-230.37 2172.78,-220.16"/>
<polygon fill="midnightblue" stroke="midnightblue" points="2174.46,-223.23 2181.74,-215.53 2171.24,-217.01 2174.46,-223.23"/>
</g>
<!-- Node24 -->
<g id="node24" class="node">
<title>Node24</title>
<g id="a_node24"><a xlink:title=" ">
<polygon fill="white" stroke="#bfbfbf" points="1879.5,-189.5 1879.5,-215.5 2016.5,-215.5 2016.5,-189.5 1879.5,-189.5"/>
<text text-anchor="middle" x="1948" y="-198.7" font-family="Source Sans Pro" font-size="16.00">glm/gtx/hash.hpp</text>
</a>
</g>
</g>
<!-- Node22&#45;&gt;Node24 -->
<g id="edge32" class="edge">
<title>Node22&#45;&gt;Node24</title>
<path fill="none" stroke="midnightblue" d="M2059.54,-252.45C2038.12,-243.05 2008.17,-229.91 1984.7,-219.61"/>
<polygon fill="midnightblue" stroke="midnightblue" points="1985.97,-216.34 1975.4,-215.53 1983.16,-222.75 1985.97,-216.34"/>
</g>
<!-- Node25 -->
<g id="node25" class="node">
<title>Node25</title>
<g id="a_node25"><a xlink:title=" ">
<polygon fill="white" stroke="#bfbfbf" points="2034.5,-189.5 2034.5,-215.5 2085.5,-215.5 2085.5,-189.5 2034.5,-189.5"/>
<text text-anchor="middle" x="2060" y="-198.7" font-family="Source Sans Pro" font-size="16.00">array</text>
</a>
</g>
</g>
<!-- Node22&#45;&gt;Node25 -->
<g id="edge33" class="edge">
<title>Node22&#45;&gt;Node25</title>
<path fill="none" stroke="midnightblue" d="M2081.67,-252.45C2078.19,-244.59 2073.56,-234.13 2069.47,-224.89"/>
<polygon fill="midnightblue" stroke="midnightblue" points="2072.57,-223.25 2065.32,-215.53 2066.17,-226.09 2072.57,-223.25"/>
</g>
<!-- Node26&#45;&gt;Node8 -->
<g id="edge35" class="edge">
<title>Node26&#45;&gt;Node8</title>
<path fill="none" stroke="midnightblue" d="M738.01,-254.83C656.34,-243.71 522.67,-225.51 438.39,-214.04"/>
<polygon fill="midnightblue" stroke="midnightblue" points="438.74,-210.55 428.36,-212.67 437.8,-217.49 438.74,-210.55"/>
</g>
<!-- Node26&#45;&gt;Node20 -->
<g id="edge37" class="edge">
<title>Node26&#45;&gt;Node20</title>
<path fill="none" stroke="midnightblue" d="M879.6,-253.94C963.77,-241.36 1101.9,-220.71 1172.47,-210.16"/>
<polygon fill="midnightblue" stroke="midnightblue" points="1173.42,-213.56 1182.79,-208.62 1172.38,-206.63 1173.42,-213.56"/>
</g>
<!-- Node26&#45;&gt;Node21 -->
<g id="edge38" class="edge">
<title>Node26&#45;&gt;Node21</title>
<path fill="none" stroke="midnightblue" d="M879.77,-256.5C895.32,-254.89 911.71,-253.29 927,-252 1178.35,-230.81 1247.82,-261.62 1499.55,-215.92"/>
<polygon fill="midnightblue" stroke="midnightblue" points="1500.53,-219.3 1509.74,-214.05 1499.27,-212.42 1500.53,-219.3"/>
</g>
<!-- Node26&#45;&gt;Node27 -->
<g id="edge36" class="edge">
<title>Node26&#45;&gt;Node27</title>
<path fill="none" stroke="midnightblue" d="M821.45,-252.45C830.25,-243.93 842.23,-232.33 852.32,-222.56"/>
<polygon fill="midnightblue" stroke="midnightblue" points="854.83,-225 859.58,-215.53 849.96,-219.97 854.83,-225"/>
</g>
<!-- Node28&#45;&gt;Node29 -->
<g id="edge40" class="edge">
<title>Node28&#45;&gt;Node29</title>
<path fill="none" stroke="midnightblue" d="M1440.32,-189.45C1472.07,-179.72 1516.92,-165.97 1551.01,-155.52"/>
<polygon fill="midnightblue" stroke="midnightblue" points="1552.23,-158.8 1560.77,-152.53 1550.18,-152.11 1552.23,-158.8"/>
</g>
<!-- Node30 -->
<g id="node30" class="node">
<title>Node30</title>
<g id="a_node30"><a xlink:title=" ">
<polygon fill="white" stroke="#bfbfbf" points="1399,-126.5 1399,-152.5 1463,-152.5 1463,-126.5 1399,-126.5"/>
<text text-anchor="middle" x="1431" y="-135.7" font-family="Source Sans Pro" font-size="16.00">variant</text>
</a>
</g>
</g>
<!-- Node28&#45;&gt;Node30 -->
<g id="edge41" class="edge">
<title>Node28&#45;&gt;Node30</title>
<path fill="none" stroke="midnightblue" d="M1406.93,-189.45C1410.83,-181.51 1416.05,-170.9 1420.63,-161.59"/>
<polygon fill="midnightblue" stroke="midnightblue" points="1423.81,-163.04 1425.09,-152.53 1417.53,-159.96 1423.81,-163.04"/>
</g>
<!-- Node28&#45;&gt;Node31 -->
<g id="edge42" class="edge">
<title>Node28&#45;&gt;Node31</title>
<path fill="none" stroke="midnightblue" d="M1492.02,-190.12C1495.05,-189.74 1498.05,-189.37 1501,-189 1624.9,-173.55 1770.95,-155.41 1844.17,-146.31"/>
<polygon fill="midnightblue" stroke="midnightblue" points="1844.94,-149.74 1854.44,-145.04 1844.08,-142.8 1844.94,-149.74"/>
</g>
<!-- Node32 -->
<g id="node32" class="node">
<title>Node32</title>
<g id="a_node32"><a xlink:title=" ">
<polygon fill="white" stroke="#bfbfbf" points="1307.5,-126.5 1307.5,-152.5 1380.5,-152.5 1380.5,-126.5 1307.5,-126.5"/>
<text text-anchor="middle" x="1344" y="-135.7" font-family="Source Sans Pro" font-size="16.00">numeric</text>
</a>
</g>
</g>
<!-- Node28&#45;&gt;Node32 -->
<g id="edge43" class="edge">
<title>Node28&#45;&gt;Node32</title>
<path fill="none" stroke="midnightblue" d="M1389.74,-189.45C1381.85,-181.01 1371.15,-169.55 1362.08,-159.85"/>
<polygon fill="midnightblue" stroke="midnightblue" points="1364.62,-157.44 1355.24,-152.53 1359.51,-162.22 1364.62,-157.44"/>
</g>
<!-- Node33&#45;&gt;Node3 -->
<g id="edge45" class="edge">
<title>Node33&#45;&gt;Node3</title>
<path fill="none" stroke="midnightblue" d="M681.86,-252.58C724.18,-244.23 771.67,-231.76 786,-216 815.11,-184.01 815.41,-129.93 812.85,-99.68"/>
<polygon fill="midnightblue" stroke="midnightblue" points="816.33,-99.29 811.82,-89.7 809.36,-100 816.33,-99.29"/>
</g>
<!-- Node33&#45;&gt;Node10 -->
<g id="edge47" class="edge">
<title>Node33&#45;&gt;Node10</title>
<path fill="none" stroke="midnightblue" d="M681.64,-252.86C728.23,-242.06 775.73,-222.45 753,-189 703.41,-116.01 421.22,-88.14 315.23,-80.16"/>
<polygon fill="midnightblue" stroke="midnightblue" points="315.47,-76.67 305.24,-79.43 314.96,-83.65 315.47,-76.67"/>
</g>
<!-- Node33&#45;&gt;Node11 -->
<g id="edge48" class="edge">
<title>Node33&#45;&gt;Node11</title>
<path fill="none" stroke="midnightblue" d="M534.23,-253.39C531.11,-252.92 528.03,-252.45 525,-252 418.34,-235.97 382.41,-262.32 285,-216 225.77,-187.83 173.26,-128.76 148.34,-97.65"/>
<polygon fill="midnightblue" stroke="midnightblue" points="150.99,-95.36 142.06,-89.66 145.49,-99.69 150.99,-95.36"/>
</g>
<!-- Node33&#45;&gt;Node28 -->
<g id="edge46" class="edge">
<title>Node33&#45;&gt;Node28</title>
<path fill="none" stroke="midnightblue" d="M681.55,-256.48C697.2,-254.89 713.64,-253.31 729,-252 964.68,-231.84 1024.18,-234.45 1260,-216 1272.79,-215 1286.22,-213.89 1299.51,-212.75"/>
<polygon fill="midnightblue" stroke="midnightblue" points="1299.96,-216.22 1309.63,-211.88 1299.36,-209.25 1299.96,-216.22"/>
</g>
<!-- Node34&#45;&gt;Node7 -->
<g id="edge55" class="edge">
<title>Node34&#45;&gt;Node7</title>
<path fill="none" stroke="midnightblue" d="M2471.95,-189.48C2468.21,-165.25 2461.48,-108.92 2471,-63 2472.91,-53.8 2476.65,-44.2 2480.45,-36"/>
<polygon fill="midnightblue" stroke="midnightblue" points="2483.7,-37.31 2485,-26.8 2477.43,-34.21 2483.7,-37.31"/>
</g>
<!-- Node34&#45;&gt;Node16 -->
<g id="edge53" class="edge">
<title>Node34&#45;&gt;Node16</title>
<path fill="none" stroke="midnightblue" d="M2402.88,-189.45C2336.78,-178.25 2239.32,-161.73 2176.24,-151.05"/>
<polygon fill="midnightblue" stroke="midnightblue" points="2176.48,-147.54 2166.04,-149.32 2175.31,-154.44 2176.48,-147.54"/>
</g>
<!-- Node35 -->
<g id="node35" class="node">
<title>Node35</title>
<g id="a_node35"><a xlink:title=" ">
<polygon fill="white" stroke="#bfbfbf" points="2368.5,-126.5 2368.5,-152.5 2423.5,-152.5 2423.5,-126.5 2368.5,-126.5"/>
<text text-anchor="middle" x="2396" y="-135.7" font-family="Source Sans Pro" font-size="16.00">string</text>
</a>
</g>
</g>
<!-- Node34&#45;&gt;Node35 -->
<g id="edge54" class="edge">
<title>Node34&#45;&gt;Node35</title>
<path fill="none" stroke="midnightblue" d="M2458.59,-189.45C2447.37,-180.68 2431.98,-168.64 2419.27,-158.7"/>
<polygon fill="midnightblue" stroke="midnightblue" points="2421.41,-155.93 2411.38,-152.53 2417.1,-161.44 2421.41,-155.93"/>
</g>
<!-- Node36 -->
<g id="node36" class="node">
<title>Node36</title>
<g id="a_node36"><a xlink:href="_i_e_aspect_8hpp.html" target="_top" xlink:title=" ">
<polygon fill="white" stroke="black" points="2480,-63.5 2480,-89.5 2586,-89.5 2586,-63.5 2480,-63.5"/>
<text text-anchor="middle" x="2533" y="-72.7" font-family="Source Sans Pro" font-size="16.00">IEAspect.hpp</text>
</a>
</g>
</g>
<!-- Node34&#45;&gt;Node36 -->
<g id="edge56" class="edge">
<title>Node34&#45;&gt;Node36</title>
<path fill="none" stroke="midnightblue" d="M2479.87,-189.16C2489.9,-168.08 2510.44,-124.91 2522.84,-98.86"/>
<polygon fill="midnightblue" stroke="midnightblue" points="2526.01,-100.33 2527.15,-89.79 2519.69,-97.32 2526.01,-100.33"/>
</g>
<!-- Node36&#45;&gt;Node7 -->
<g id="edge57" class="edge">
<title>Node36&#45;&gt;Node7</title>
<path fill="none" stroke="midnightblue" d="M2524.9,-63.45C2519.45,-55.34 2512.13,-44.46 2505.78,-35.01"/>
<polygon fill="midnightblue" stroke="midnightblue" points="2508.57,-32.87 2500.08,-26.53 2502.76,-36.78 2508.57,-32.87"/>
</g>
<!-- Node42&#45;&gt;Node2 -->
<g id="edge71" class="edge">
<title>Node42&#45;&gt;Node2</title>
<path fill="none" stroke="midnightblue" d="M229.8,-315.45C229.68,-307.85 229.51,-297.79 229.37,-288.78"/>
<polygon fill="midnightblue" stroke="midnightblue" points="232.86,-288.47 229.2,-278.53 225.86,-288.58 232.86,-288.47"/>
</g>
</g>
</svg>
