<?xml version="1.0" encoding="UTF-8" standalone="no"?>
<!DOCTYPE svg PUBLIC "-//W3C//DTD SVG 1.1//EN"
 "http://www.w3.org/Graphics/SVG/1.1/DTD/svg11.dtd">
<!-- Generated by graphviz version 2.43.0 (0)
 -->
<!-- Title: Illumination&#45;Engine/src/GraphicsModule/Vulkan/vulkanVertex.hpp Pages: 1 -->
<svg width="480pt" height="134pt"
 viewBox="0.00 0.00 480.00 134.00" xmlns="http://www.w3.org/2000/svg" xmlns:xlink="http://www.w3.org/1999/xlink">
<g id="graph0" class="graph" transform="scale(1 1) rotate(0) translate(4 130)">
<title>Illumination&#45;Engine/src/GraphicsModule/Vulkan/vulkanVertex.hpp</title>
<polygon fill="white" stroke="transparent" points="-4,4 -4,-130 476,-130 476,4 -4,4"/>
<!-- Node1 -->
<g id="node1" class="node">
<title>Node1</title>
<g id="a_node1"><a xlink:title=" ">
<polygon fill="#bfbfbf" stroke="black" points="170.5,-63.5 170.5,-125.5 358.5,-125.5 358.5,-63.5 170.5,-63.5"/>
<text text-anchor="start" x="178.5" y="-108.7" font-family="Source Sans Pro" font-size="16.00">Illumination&#45;Engine</text>
<text text-anchor="start" x="178.5" y="-90.7" font-family="Source Sans Pro" font-size="16.00">/src/GraphicsModule</text>
<text text-anchor="middle" x="264.5" y="-72.7" font-family="Source Sans Pro" font-size="16.00">/Vulkan/vulkanVertex.hpp</text>
</a>
</g>
</g>
<!-- Node2 -->
<g id="node2" class="node">
<title>Node2</title>
<g id="a_node2"><a xlink:title=" ">
<polygon fill="white" stroke="#bfbfbf" points="0,-0.5 0,-26.5 125,-26.5 125,-0.5 0,-0.5"/>
<text text-anchor="middle" x="62.5" y="-9.7" font-family="Source Sans Pro" font-size="16.00">vulkan/vulkan.h</text>
</a>
</g>
</g>
<!-- Node1&#45;&gt;Node2 -->
<g id="edge1" class="edge">
<title>Node1&#45;&gt;Node2</title>
<path fill="none" stroke="midnightblue" d="M187.56,-63.41C158.75,-52.14 127.16,-39.79 102.94,-30.32"/>
<polygon fill="midnightblue" stroke="midnightblue" points="103.97,-26.96 93.38,-26.58 101.42,-33.48 103.97,-26.96"/>
</g>
<!-- Node3 -->
<g id="node3" class="node">
<title>Node3</title>
<g id="a_node3"><a xlink:title=" ">
<polygon fill="white" stroke="#bfbfbf" points="143.5,-0.5 143.5,-26.5 247.5,-26.5 247.5,-0.5 143.5,-0.5"/>
<text text-anchor="middle" x="195.5" y="-9.7" font-family="Source Sans Pro" font-size="16.00">glm/glm.hpp</text>
</a>
</g>
</g>
<!-- Node1&#45;&gt;Node3 -->
<g id="edge2" class="edge">
<title>Node1&#45;&gt;Node3</title>
<path fill="none" stroke="midnightblue" d="M238.02,-63.18C229.61,-53.55 220.53,-43.15 212.92,-34.45"/>
<polygon fill="midnightblue" stroke="midnightblue" points="215.37,-31.93 206.16,-26.7 210.1,-36.54 215.37,-31.93"/>
</g>
<!-- Node4 -->
<g id="node4" class="node">
<title>Node4</title>
<g id="a_node4"><a xlink:title=" ">
<polygon fill="white" stroke="#bfbfbf" points="266,-0.5 266,-26.5 403,-26.5 403,-0.5 266,-0.5"/>
<text text-anchor="middle" x="334.5" y="-9.7" font-family="Source Sans Pro" font-size="16.00">glm/gtx/hash.hpp</text>
</a>
</g>
</g>
<!-- Node1&#45;&gt;Node4 -->
<g id="edge3" class="edge">
<title>Node1&#45;&gt;Node4</title>
<path fill="none" stroke="midnightblue" d="M291.36,-63.18C299.9,-53.55 309.11,-43.15 316.82,-34.45"/>
<polygon fill="midnightblue" stroke="midnightblue" points="319.67,-36.51 323.69,-26.7 314.44,-31.87 319.67,-36.51"/>
</g>
<!-- Node5 -->
<g id="node5" class="node">
<title>Node5</title>
<g id="a_node5"><a xlink:title=" ">
<polygon fill="white" stroke="#bfbfbf" points="421,-0.5 421,-26.5 472,-26.5 472,-0.5 421,-0.5"/>
<text text-anchor="middle" x="446.5" y="-9.7" font-family="Source Sans Pro" font-size="16.00">array</text>
</a>
</g>
</g>
<!-- Node1&#45;&gt;Node5 -->
<g id="edge4" class="edge">
<title>Node1&#45;&gt;Node5</title>
<path fill="none" stroke="midnightblue" d="M333.83,-63.41C360.43,-51.86 389.65,-39.18 411.67,-29.62"/>
<polygon fill="midnightblue" stroke="midnightblue" points="413.16,-32.79 420.94,-25.59 410.38,-26.37 413.16,-32.79"/>
</g>
</g>
</svg>
