<?xml version="1.0" encoding="UTF-8" standalone="no"?>
<!DOCTYPE svg PUBLIC "-//W3C//DTD SVG 1.1//EN"
 "http://www.w3.org/Graphics/SVG/1.1/DTD/svg11.dtd">
<!-- Generated by graphviz version 2.43.0 (0)
 -->
<!-- Title: Illumination&#45;Engine/src/GraphicsModule/Vulkan/vulkanDescriptorSet.hpp Pages: 1 -->
<svg width="511pt" height="134pt"
 viewBox="0.00 0.00 510.50 134.00" xmlns="http://www.w3.org/2000/svg" xmlns:xlink="http://www.w3.org/1999/xlink">
<g id="graph0" class="graph" transform="scale(1 1) rotate(0) translate(4 130)">
<title>Illumination&#45;Engine/src/GraphicsModule/Vulkan/vulkanDescriptorSet.hpp</title>
<polygon fill="white" stroke="transparent" points="-4,4 -4,-130 506.5,-130 506.5,4 -4,4"/>
<!-- Node1 -->
<g id="node1" class="node">
<title>Node1</title>
<g id="a_node1"><a xlink:title=" ">
<polygon fill="#bfbfbf" stroke="black" points="212,-63.5 212,-125.5 450,-125.5 450,-63.5 212,-63.5"/>
<text text-anchor="start" x="220" y="-108.7" font-family="Source Sans Pro" font-size="16.00">Illumination&#45;Engine</text>
<text text-anchor="start" x="220" y="-90.7" font-family="Source Sans Pro" font-size="16.00">/src/GraphicsModule</text>
<text text-anchor="middle" x="331" y="-72.7" font-family="Source Sans Pro" font-size="16.00">/Vulkan/vulkanDescriptorSet.hpp</text>
</a>
</g>
</g>
<!-- Node2 -->
<g id="node2" class="node">
<title>Node2</title>
<g id="a_node2"><a xlink:href="vulkan_acceleration_structure_8hpp.html" target="_top" xlink:title=" ">
<polygon fill="white" stroke="black" points="0,-0.5 0,-26.5 238,-26.5 238,-0.5 0,-0.5"/>
<text text-anchor="middle" x="119" y="-9.7" font-family="Source Sans Pro" font-size="16.00">vulkanAccelerationStructure.hpp</text>
</a>
</g>
</g>
<!-- Node1&#45;&gt;Node2 -->
<g id="edge1" class="edge">
<title>Node1&#45;&gt;Node2</title>
<path fill="none" stroke="midnightblue" d="M250.25,-63.41C219.88,-52.09 186.57,-39.68 161.11,-30.19"/>
<polygon fill="midnightblue" stroke="midnightblue" points="162,-26.79 151.41,-26.58 159.56,-33.35 162,-26.79"/>
</g>
<!-- Node3 -->
<g id="node3" class="node">
<title>Node3</title>
<g id="a_node3"><a xlink:title=" ">
<polygon fill="white" stroke="#bfbfbf" points="256,-0.5 256,-26.5 320,-26.5 320,-0.5 256,-0.5"/>
<text text-anchor="middle" x="288" y="-9.7" font-family="Source Sans Pro" font-size="16.00">variant</text>
</a>
</g>
</g>
<!-- Node1&#45;&gt;Node3 -->
<g id="edge2" class="edge">
<title>Node1&#45;&gt;Node3</title>
<path fill="none" stroke="midnightblue" d="M314.5,-63.18C309.47,-53.95 304.06,-44.01 299.45,-35.54"/>
<polygon fill="midnightblue" stroke="midnightblue" points="302.5,-33.81 294.64,-26.7 296.35,-37.16 302.5,-33.81"/>
</g>
<!-- Node4 -->
<g id="node4" class="node">
<title>Node4</title>
<g id="a_node4"><a xlink:title=" ">
<polygon fill="white" stroke="#bfbfbf" points="338.5,-0.5 338.5,-26.5 411.5,-26.5 411.5,-0.5 338.5,-0.5"/>
<text text-anchor="middle" x="375" y="-9.7" font-family="Source Sans Pro" font-size="16.00">optional</text>
</a>
</g>
</g>
<!-- Node1&#45;&gt;Node4 -->
<g id="edge3" class="edge">
<title>Node1&#45;&gt;Node4</title>
<path fill="none" stroke="midnightblue" d="M347.89,-63.18C353.03,-53.95 358.56,-44.01 363.28,-35.54"/>
<polygon fill="midnightblue" stroke="midnightblue" points="366.4,-37.14 368.2,-26.7 360.28,-33.74 366.4,-37.14"/>
</g>
<!-- Node5 -->
<g id="node5" class="node">
<title>Node5</title>
<g id="a_node5"><a xlink:title=" ">
<polygon fill="white" stroke="#bfbfbf" points="429.5,-0.5 429.5,-26.5 502.5,-26.5 502.5,-0.5 429.5,-0.5"/>
<text text-anchor="middle" x="466" y="-9.7" font-family="Source Sans Pro" font-size="16.00">numeric</text>
</a>
</g>
</g>
<!-- Node1&#45;&gt;Node5 -->
<g id="edge4" class="edge">
<title>Node1&#45;&gt;Node5</title>
<path fill="none" stroke="midnightblue" d="M382.42,-63.41C400.74,-52.69 420.72,-40.99 436.56,-31.73"/>
<polygon fill="midnightblue" stroke="midnightblue" points="438.5,-34.65 445.36,-26.58 434.96,-28.61 438.5,-34.65"/>
</g>
</g>
</svg>
