<?xml version="1.0" encoding="UTF-8" standalone="no"?>
<!DOCTYPE svg PUBLIC "-//W3C//DTD SVG 1.1//EN"
 "http://www.w3.org/Graphics/SVG/1.1/DTD/svg11.dtd">
<!-- Generated by graphviz version 2.43.0 (0)
 -->
<!-- Title: Illumination&#45;Engine/src/GraphicsModule/Vulkan/vulkanGraphicsEngineLink.hpp Pages: 1 -->
<svg width="881pt" height="584pt"
 viewBox="0.00 0.00 880.53 584.00" xmlns="http://www.w3.org/2000/svg" xmlns:xlink="http://www.w3.org/1999/xlink">
<g id="graph0" class="graph" transform="scale(1 1) rotate(0) translate(4 580)">
<title>Illumination&#45;Engine/src/GraphicsModule/Vulkan/vulkanGraphicsEngineLink.hpp</title>
<polygon fill="white" stroke="transparent" points="-4,4 -4,-580 876.53,-580 876.53,4 -4,4"/>
<!-- Node1 -->
<g id="node1" class="node">
<title>Node1</title>
<g id="a_node1"><a xlink:title=" ">
<polygon fill="#bfbfbf" stroke="black" points="368.53,-495.5 368.53,-575.5 591.53,-575.5 591.53,-495.5 368.53,-495.5"/>
<text text-anchor="start" x="376.53" y="-558.7" font-family="Source Sans Pro" font-size="16.00">Illumination&#45;Engine</text>
<text text-anchor="start" x="376.53" y="-540.7" font-family="Source Sans Pro" font-size="16.00">/src/GraphicsModule</text>
<text text-anchor="start" x="376.53" y="-522.7" font-family="Source Sans Pro" font-size="16.00">/Vulkan/vulkanGraphicsEngine</text>
<text text-anchor="middle" x="480.03" y="-504.7" font-family="Source Sans Pro" font-size="16.00">Link.hpp</text>
</a>
</g>
</g>
<!-- Node2 -->
<g id="node2" class="node">
<title>Node2</title>
<g id="a_node2"><a xlink:href="vulkan_buffer_8hpp.html" target="_top" xlink:title=" ">
<polygon fill="white" stroke="black" points="325.03,-396.5 325.03,-458.5 513.03,-458.5 513.03,-396.5 325.03,-396.5"/>
<text text-anchor="start" x="333.03" y="-441.7" font-family="Source Sans Pro" font-size="16.00">Illumination&#45;Engine</text>
<text text-anchor="start" x="333.03" y="-423.7" font-family="Source Sans Pro" font-size="16.00">/src/GraphicsModule</text>
<text text-anchor="middle" x="419.03" y="-405.7" font-family="Source Sans Pro" font-size="16.00">/Vulkan/vulkanBuffer.hpp</text>
</a>
</g>
</g>
<!-- Node1&#45;&gt;Node2 -->
<g id="edge1" class="edge">
<title>Node1&#45;&gt;Node2</title>
<path fill="none" stroke="midnightblue" d="M452.49,-486.65C446.99,-477.1 441.36,-467.31 436.33,-458.56"/>
<polygon fill="midnightblue" stroke="midnightblue" points="449.46,-488.41 457.48,-495.33 455.53,-484.92 449.46,-488.41"/>
</g>
<!-- Node4 -->
<g id="node4" class="node">
<title>Node4</title>
<g id="a_node4"><a xlink:href="vulkan_render_pass_8hpp.html" target="_top" xlink:title=" ">
<polygon fill="white" stroke="black" points="32.53,-198.5 32.53,-260.5 259.53,-260.5 259.53,-198.5 32.53,-198.5"/>
<text text-anchor="start" x="40.53" y="-243.7" font-family="Source Sans Pro" font-size="16.00">Illumination&#45;Engine</text>
<text text-anchor="start" x="40.53" y="-225.7" font-family="Source Sans Pro" font-size="16.00">/src/GraphicsModule</text>
<text text-anchor="middle" x="146.03" y="-207.7" font-family="Source Sans Pro" font-size="16.00">/Vulkan/vulkanRenderPass.hpp</text>
</a>
</g>
</g>
<!-- Node1&#45;&gt;Node4 -->
<g id="edge15" class="edge">
<title>Node1&#45;&gt;Node4</title>
<path fill="none" stroke="midnightblue" d="M365.28,-490.73C347.9,-481.59 330.85,-471.02 316.03,-459 245.17,-401.55 188.14,-308.22 161.82,-260.57"/>
<polygon fill="midnightblue" stroke="midnightblue" points="363.89,-493.95 374.38,-495.37 367.07,-487.71 363.89,-493.95"/>
</g>
<!-- Node6 -->
<g id="node6" class="node">
<title>Node6</title>
<g id="a_node6"><a xlink:href="vulkan_render_engine_8hpp.html" target="_top" xlink:title=" ">
<polygon fill="white" stroke="black" points="223.53,-0.5 223.53,-62.5 466.53,-62.5 466.53,-0.5 223.53,-0.5"/>
<text text-anchor="start" x="231.53" y="-45.7" font-family="Source Sans Pro" font-size="16.00">Illumination&#45;Engine</text>
<text text-anchor="start" x="231.53" y="-27.7" font-family="Source Sans Pro" font-size="16.00">/src/GraphicsModule</text>
<text text-anchor="middle" x="345.03" y="-9.7" font-family="Source Sans Pro" font-size="16.00">/Vulkan/vulkanRenderEngine.hpp</text>
</a>
</g>
</g>
<!-- Node1&#45;&gt;Node6 -->
<g id="edge14" class="edge">
<title>Node1&#45;&gt;Node6</title>
<path fill="none" stroke="midnightblue" d="M358.4,-532.66C217.37,-523.32 4.03,-483.71 4.03,-329.5 4.03,-329.5 4.03,-329.5 4.03,-228.5 4.03,-169.88 -12.08,-140.79 29.03,-99 56.2,-71.37 146.18,-54.19 223.21,-44.23"/>
<polygon fill="midnightblue" stroke="midnightblue" points="358.23,-536.15 368.42,-533.28 358.66,-529.17 358.23,-536.15"/>
</g>
<!-- Node8 -->
<g id="node8" class="node">
<title>Node8</title>
<g id="a_node8"><a xlink:href="vulkan_renderable_8hpp.html" target="_top" xlink:title=" ">
<polygon fill="white" stroke="black" points="531.03,-99.5 531.03,-161.5 757.03,-161.5 757.03,-99.5 531.03,-99.5"/>
<text text-anchor="start" x="539.03" y="-144.7" font-family="Source Sans Pro" font-size="16.00">Illumination&#45;Engine</text>
<text text-anchor="start" x="539.03" y="-126.7" font-family="Source Sans Pro" font-size="16.00">/src/GraphicsModule</text>
<text text-anchor="middle" x="644.03" y="-108.7" font-family="Source Sans Pro" font-size="16.00">/Vulkan/vulkanRenderable.hpp</text>
</a>
</g>
</g>
<!-- Node1&#45;&gt;Node8 -->
<g id="edge16" class="edge">
<title>Node1&#45;&gt;Node8</title>
<path fill="none" stroke="midnightblue" d="M509.45,-486.12C514.09,-477.3 518.51,-468.02 522.03,-459 548.94,-390.01 535.59,-366.55 561.03,-297 579.02,-247.79 607.75,-194.15 626.25,-161.67"/>
<polygon fill="midnightblue" stroke="midnightblue" points="506.26,-484.67 504.57,-495.13 512.41,-488 506.26,-484.67"/>
</g>
<!-- Node9 -->
<g id="node9" class="node">
<title>Node9</title>
<g id="a_node9"><a xlink:href="vulkan_pipeline_8hpp.html" target="_top" xlink:title=" ">
<polygon fill="white" stroke="black" points="569.53,-297.5 569.53,-359.5 772.53,-359.5 772.53,-297.5 569.53,-297.5"/>
<text text-anchor="start" x="577.53" y="-342.7" font-family="Source Sans Pro" font-size="16.00">Illumination&#45;Engine</text>
<text text-anchor="start" x="577.53" y="-324.7" font-family="Source Sans Pro" font-size="16.00">/src/GraphicsModule</text>
<text text-anchor="middle" x="671.03" y="-306.7" font-family="Source Sans Pro" font-size="16.00">/Vulkan/vulkanPipeline.hpp</text>
</a>
</g>
</g>
<!-- Node1&#45;&gt;Node9 -->
<g id="edge12" class="edge">
<title>Node1&#45;&gt;Node9</title>
<path fill="none" stroke="midnightblue" d="M526.85,-488.12C536.27,-478.58 546.03,-468.53 555.03,-459 586.51,-425.63 621.5,-386.23 644.73,-359.73"/>
<polygon fill="midnightblue" stroke="midnightblue" points="524.28,-485.73 519.73,-495.3 529.25,-490.66 524.28,-485.73"/>
</g>
<!-- Node10 -->
<g id="node10" class="node">
<title>Node10</title>
<g id="a_node10"><a xlink:href="vulkan_shader_8hpp.html" target="_top" xlink:title=" ">
<polygon fill="white" stroke="black" points="677.53,-396.5 677.53,-458.5 872.53,-458.5 872.53,-396.5 677.53,-396.5"/>
<text text-anchor="start" x="685.53" y="-441.7" font-family="Source Sans Pro" font-size="16.00">Illumination&#45;Engine</text>
<text text-anchor="start" x="685.53" y="-423.7" font-family="Source Sans Pro" font-size="16.00">/src/GraphicsModule</text>
<text text-anchor="middle" x="775.03" y="-405.7" font-family="Source Sans Pro" font-size="16.00">/Vulkan/vulkanShader.hpp</text>
</a>
</g>
</g>
<!-- Node1&#45;&gt;Node10 -->
<g id="edge17" class="edge">
<title>Node1&#45;&gt;Node10</title>
<path fill="none" stroke="midnightblue" d="M598.21,-492.04C629.31,-480.86 662.23,-469.03 691.13,-458.65"/>
<polygon fill="midnightblue" stroke="midnightblue" points="596.84,-488.81 588.62,-495.48 599.21,-495.39 596.84,-488.81"/>
</g>
<!-- Node3 -->
<g id="node3" class="node">
<title>Node3</title>
<g id="a_node3"><a xlink:href="vulkan_image_8hpp.html" target="_top" xlink:title=" ">
<polygon fill="white" stroke="black" points="281.03,-297.5 281.03,-359.5 471.03,-359.5 471.03,-297.5 281.03,-297.5"/>
<text text-anchor="start" x="289.03" y="-342.7" font-family="Source Sans Pro" font-size="16.00">Illumination&#45;Engine</text>
<text text-anchor="start" x="289.03" y="-324.7" font-family="Source Sans Pro" font-size="16.00">/src/GraphicsModule</text>
<text text-anchor="middle" x="376.03" y="-306.7" font-family="Source Sans Pro" font-size="16.00">/Vulkan/vulkanImage.hpp</text>
</a>
</g>
</g>
<!-- Node2&#45;&gt;Node3 -->
<g id="edge2" class="edge">
<title>Node2&#45;&gt;Node3</title>
<path fill="none" stroke="midnightblue" d="M401.53,-387.03C397.48,-377.89 393.23,-368.31 389.39,-359.64"/>
<polygon fill="midnightblue" stroke="midnightblue" points="398.4,-388.62 405.66,-396.34 404.8,-385.78 398.4,-388.62"/>
</g>
<!-- Node2&#45;&gt;Node6 -->
<g id="edge11" class="edge">
<title>Node2&#45;&gt;Node6</title>
<path fill="none" stroke="midnightblue" d="M461.84,-388.69C469.16,-380.03 475.77,-370.31 480.03,-360 507.5,-293.42 508.67,-265.67 484.03,-198 463.86,-142.65 416.15,-92.94 382.27,-62.77"/>
<polygon fill="midnightblue" stroke="midnightblue" points="459.05,-386.56 454.96,-396.33 464.26,-391.24 459.05,-386.56"/>
</g>
<!-- Node3&#45;&gt;Node4 -->
<g id="edge3" class="edge">
<title>Node3&#45;&gt;Node4</title>
<path fill="none" stroke="midnightblue" d="M295.56,-293.56C270.07,-282.81 242.08,-271.01 217.28,-260.55"/>
<polygon fill="midnightblue" stroke="midnightblue" points="294.25,-296.81 304.83,-297.47 296.97,-290.36 294.25,-296.81"/>
</g>
<!-- Node7 -->
<g id="node7" class="node">
<title>Node7</title>
<g id="a_node7"><a xlink:href="vulkan_texture_8hpp.html" target="_top" xlink:title=" ">
<polygon fill="white" stroke="black" points="277.53,-198.5 277.53,-260.5 474.53,-260.5 474.53,-198.5 277.53,-198.5"/>
<text text-anchor="start" x="285.53" y="-243.7" font-family="Source Sans Pro" font-size="16.00">Illumination&#45;Engine</text>
<text text-anchor="start" x="285.53" y="-225.7" font-family="Source Sans Pro" font-size="16.00">/src/GraphicsModule</text>
<text text-anchor="middle" x="376.03" y="-207.7" font-family="Source Sans Pro" font-size="16.00">/Vulkan/vulkanTexture.hpp</text>
</a>
</g>
</g>
<!-- Node3&#45;&gt;Node7 -->
<g id="edge7" class="edge">
<title>Node3&#45;&gt;Node7</title>
<path fill="none" stroke="midnightblue" d="M376.03,-287.17C376.03,-278.29 376.03,-269.03 376.03,-260.64"/>
<polygon fill="midnightblue" stroke="midnightblue" points="372.53,-287.34 376.03,-297.34 379.53,-287.34 372.53,-287.34"/>
</g>
<!-- Node5 -->
<g id="node5" class="node">
<title>Node5</title>
<g id="a_node5"><a xlink:href="vulkan_framebuffer_8hpp.html" target="_top" xlink:title=" ">
<polygon fill="white" stroke="black" points="38.03,-99.5 38.03,-161.5 268.03,-161.5 268.03,-99.5 38.03,-99.5"/>
<text text-anchor="start" x="46.03" y="-144.7" font-family="Source Sans Pro" font-size="16.00">Illumination&#45;Engine</text>
<text text-anchor="start" x="46.03" y="-126.7" font-family="Source Sans Pro" font-size="16.00">/src/GraphicsModule</text>
<text text-anchor="middle" x="153.03" y="-108.7" font-family="Source Sans Pro" font-size="16.00">/Vulkan/vulkanFramebuffer.hpp</text>
</a>
</g>
</g>
<!-- Node4&#45;&gt;Node5 -->
<g id="edge4" class="edge">
<title>Node4&#45;&gt;Node5</title>
<path fill="none" stroke="midnightblue" d="M148.94,-188.17C149.58,-179.29 150.24,-170.03 150.85,-161.64"/>
<polygon fill="midnightblue" stroke="midnightblue" points="145.43,-188.11 148.2,-198.34 152.41,-188.62 145.43,-188.11"/>
</g>
<!-- Node4&#45;&gt;Node6 -->
<g id="edge6" class="edge">
<title>Node4&#45;&gt;Node6</title>
<path fill="none" stroke="midnightblue" d="M233.86,-193.5C249.4,-184.75 264.58,-174.28 277.03,-162 305.59,-133.83 324.8,-91.1 335.32,-62.52"/>
<polygon fill="midnightblue" stroke="midnightblue" points="231.81,-190.62 224.68,-198.45 235.14,-196.78 231.81,-190.62"/>
</g>
<!-- Node5&#45;&gt;Node6 -->
<g id="edge5" class="edge">
<title>Node5&#45;&gt;Node6</title>
<path fill="none" stroke="midnightblue" d="M221.6,-94.86C242.5,-84.3 265.29,-72.78 285.54,-62.55"/>
<polygon fill="midnightblue" stroke="midnightblue" points="219.81,-91.84 212.46,-99.47 222.96,-98.09 219.81,-91.84"/>
</g>
<!-- Node7&#45;&gt;Node6 -->
<g id="edge8" class="edge">
<title>Node7&#45;&gt;Node6</title>
<path fill="none" stroke="midnightblue" d="M369.66,-188.29C363.77,-151.02 355.13,-96.41 349.81,-62.73"/>
<polygon fill="midnightblue" stroke="midnightblue" points="366.23,-188.97 371.25,-198.3 373.14,-187.88 366.23,-188.97"/>
</g>
<!-- Node7&#45;&gt;Node8 -->
<g id="edge9" class="edge">
<title>Node7&#45;&gt;Node8</title>
<path fill="none" stroke="midnightblue" d="M468.62,-194.99C498.63,-184.12 531.72,-172.15 560.99,-161.55"/>
<polygon fill="midnightblue" stroke="midnightblue" points="467.2,-191.78 458.99,-198.47 469.58,-198.36 467.2,-191.78"/>
</g>
<!-- Node8&#45;&gt;Node6 -->
<g id="edge10" class="edge">
<title>Node8&#45;&gt;Node6</title>
<path fill="none" stroke="midnightblue" d="M541.59,-96.27C507.88,-85.33 470.6,-73.24 437.66,-62.55"/>
<polygon fill="midnightblue" stroke="midnightblue" points="540.88,-99.72 551.47,-99.47 543.04,-93.06 540.88,-99.72"/>
</g>
<!-- Node9&#45;&gt;Node8 -->
<g id="edge13" class="edge">
<title>Node9&#45;&gt;Node8</title>
<path fill="none" stroke="midnightblue" d="M665.49,-287.29C660.35,-250.02 652.83,-195.41 648.19,-161.73"/>
<polygon fill="midnightblue" stroke="midnightblue" points="662.03,-287.88 666.87,-297.3 668.97,-286.92 662.03,-287.88"/>
</g>
<!-- Node10&#45;&gt;Node8 -->
<g id="edge18" class="edge">
<title>Node10&#45;&gt;Node8</title>
<path fill="none" stroke="midnightblue" d="M785.12,-386.51C789.85,-360.29 792.42,-325.69 782.03,-297 761.96,-241.6 714.35,-191.72 680.68,-161.54"/>
<polygon fill="midnightblue" stroke="midnightblue" points="781.66,-385.98 783.15,-396.47 788.53,-387.34 781.66,-385.98"/>
</g>
</g>
</svg>
