<?xml version="1.0" encoding="UTF-8" standalone="no"?>
<!DOCTYPE svg PUBLIC "-//W3C//DTD SVG 1.1//EN"
 "http://www.w3.org/Graphics/SVG/1.1/DTD/svg11.dtd">
<!-- Generated by graphviz version 2.43.0 (0)
 -->
<!-- Title: Illumination&#45;Engine/src/GraphicsModule/Vulkan/vulkanGraphicsEngineLink.hpp Pages: 1 -->
<svg width="510pt" height="152pt"
 viewBox="0.00 0.00 509.50 152.00" xmlns="http://www.w3.org/2000/svg" xmlns:xlink="http://www.w3.org/1999/xlink">
<g id="graph0" class="graph" transform="scale(1 1) rotate(0) translate(4 148)">
<title>Illumination&#45;Engine/src/GraphicsModule/Vulkan/vulkanGraphicsEngineLink.hpp</title>
<polygon fill="white" stroke="transparent" points="-4,4 -4,-148 505.5,-148 505.5,4 -4,4"/>
<!-- Node1 -->
<g id="node1" class="node">
<title>Node1</title>
<g id="a_node1"><a xlink:title=" ">
<polygon fill="#bfbfbf" stroke="black" points="178.5,-63.5 178.5,-143.5 401.5,-143.5 401.5,-63.5 178.5,-63.5"/>
<text text-anchor="start" x="186.5" y="-126.7" font-family="Source Sans Pro" font-size="16.00">Illumination&#45;Engine</text>
<text text-anchor="start" x="186.5" y="-108.7" font-family="Source Sans Pro" font-size="16.00">/src/GraphicsModule</text>
<text text-anchor="start" x="186.5" y="-90.7" font-family="Source Sans Pro" font-size="16.00">/Vulkan/vulkanGraphicsEngine</text>
<text text-anchor="middle" x="290" y="-72.7" font-family="Source Sans Pro" font-size="16.00">Link.hpp</text>
</a>
</g>
</g>
<!-- Node2 -->
<g id="node2" class="node">
<title>Node2</title>
<g id="a_node2"><a xlink:href="vulkan_settings_8hpp.html" target="_top" xlink:title=" ">
<polygon fill="white" stroke="black" points="0,-0.5 0,-26.5 146,-26.5 146,-0.5 0,-0.5"/>
<text text-anchor="middle" x="73" y="-9.7" font-family="Source Sans Pro" font-size="16.00">vulkanSettings.hpp</text>
</a>
</g>
</g>
<!-- Node1&#45;&gt;Node2 -->
<g id="edge1" class="edge">
<title>Node1&#45;&gt;Node2</title>
<path fill="none" stroke="midnightblue" d="M193.56,-63.39C164.83,-51.74 134.97,-39.63 112.15,-30.38"/>
<polygon fill="midnightblue" stroke="midnightblue" points="113.41,-27.11 102.83,-26.6 110.78,-33.6 113.41,-27.11"/>
</g>
<!-- Node3 -->
<g id="node3" class="node">
<title>Node3</title>
<g id="a_node3"><a xlink:title=" ">
<polygon fill="white" stroke="#bfbfbf" points="164.5,-0.5 164.5,-26.5 277.5,-26.5 277.5,-0.5 164.5,-0.5"/>
<text text-anchor="middle" x="221" y="-9.7" font-family="Source Sans Pro" font-size="16.00">VkBootstrap.h</text>
</a>
</g>
</g>
<!-- Node1&#45;&gt;Node3 -->
<g id="edge2" class="edge">
<title>Node1&#45;&gt;Node3</title>
<path fill="none" stroke="midnightblue" d="M259.33,-63.39C251.56,-53.47 243.52,-43.22 236.83,-34.69"/>
<polygon fill="midnightblue" stroke="midnightblue" points="239.56,-32.5 230.64,-26.79 234.06,-36.82 239.56,-32.5"/>
</g>
<!-- Node4 -->
<g id="node4" class="node">
<title>Node4</title>
<g id="a_node4"><a xlink:title=" ">
<polygon fill="white" stroke="#bfbfbf" points="295.5,-0.5 295.5,-26.5 424.5,-26.5 424.5,-0.5 295.5,-0.5"/>
<text text-anchor="middle" x="360" y="-9.7" font-family="Source Sans Pro" font-size="16.00">vk_mem_alloc.h</text>
</a>
</g>
</g>
<!-- Node1&#45;&gt;Node4 -->
<g id="edge3" class="edge">
<title>Node1&#45;&gt;Node4</title>
<path fill="none" stroke="midnightblue" d="M321.11,-63.39C329,-53.47 337.15,-43.22 343.94,-34.69"/>
<polygon fill="midnightblue" stroke="midnightblue" points="346.73,-36.8 350.22,-26.79 341.26,-32.44 346.73,-36.8"/>
</g>
<!-- Node5 -->
<g id="node5" class="node">
<title>Node5</title>
<g id="a_node5"><a xlink:title=" ">
<polygon fill="white" stroke="#bfbfbf" points="442.5,-0.5 442.5,-26.5 501.5,-26.5 501.5,-0.5 442.5,-0.5"/>
<text text-anchor="middle" x="472" y="-9.7" font-family="Source Sans Pro" font-size="16.00">vector</text>
</a>
</g>
</g>
<!-- Node1&#45;&gt;Node5 -->
<g id="edge4" class="edge">
<title>Node1&#45;&gt;Node5</title>
<path fill="none" stroke="midnightblue" d="M370.89,-63.39C394.44,-52 418.91,-40.17 437.87,-31"/>
<polygon fill="midnightblue" stroke="midnightblue" points="439.51,-34.1 446.98,-26.6 436.46,-27.8 439.51,-34.1"/>
</g>
</g>
</svg>
