<?xml version="1.0" encoding="UTF-8" standalone="no"?>
<!DOCTYPE svg PUBLIC "-//W3C//DTD SVG 1.1//EN"
 "http://www.w3.org/Graphics/SVG/1.1/DTD/svg11.dtd">
<!-- Generated by graphviz version 2.43.0 (0)
 -->
<!-- Title: Illumination&#45;Engine/src/GraphicsModule/Vulkan/vulkanRenderPass.hpp Pages: 1 -->
<svg width="703pt" height="323pt"
 viewBox="0.00 0.00 702.50 323.00" xmlns="http://www.w3.org/2000/svg" xmlns:xlink="http://www.w3.org/1999/xlink">
<g id="graph0" class="graph" transform="scale(1 1) rotate(0) translate(4 319)">
<title>Illumination&#45;Engine/src/GraphicsModule/Vulkan/vulkanRenderPass.hpp</title>
<polygon fill="white" stroke="transparent" points="-4,4 -4,-319 698.5,-319 698.5,4 -4,4"/>
<!-- Node1 -->
<g id="node1" class="node">
<title>Node1</title>
<g id="a_node1"><a xlink:title=" ">
<polygon fill="#bfbfbf" stroke="black" points="467.5,-252.5 467.5,-314.5 694.5,-314.5 694.5,-252.5 467.5,-252.5"/>
<text text-anchor="start" x="475.5" y="-297.7" font-family="Source Sans Pro" font-size="16.00">Illumination&#45;Engine</text>
<text text-anchor="start" x="475.5" y="-279.7" font-family="Source Sans Pro" font-size="16.00">/src/GraphicsModule</text>
<text text-anchor="middle" x="581" y="-261.7" font-family="Source Sans Pro" font-size="16.00">/Vulkan/vulkanRenderPass.hpp</text>
</a>
</g>
</g>
<!-- Node2 -->
<g id="node2" class="node">
<title>Node2</title>
<g id="a_node2"><a xlink:href="vulkan_graphics_engine_link_8hpp.html" target="_top" xlink:title=" ">
<polygon fill="white" stroke="black" points="176.5,-63.5 176.5,-89.5 403.5,-89.5 403.5,-63.5 176.5,-63.5"/>
<text text-anchor="middle" x="290" y="-72.7" font-family="Source Sans Pro" font-size="16.00">vulkanGraphicsEngineLink.hpp</text>
</a>
</g>
</g>
<!-- Node1&#45;&gt;Node2 -->
<g id="edge1" class="edge">
<title>Node1&#45;&gt;Node2</title>
<path fill="none" stroke="midnightblue" d="M467.15,-268.43C395.23,-253 307.57,-220.68 262,-153 250.54,-135.97 261.43,-113.65 272.81,-97.7"/>
<polygon fill="midnightblue" stroke="midnightblue" points="275.73,-99.63 279.04,-89.57 270.18,-95.37 275.73,-99.63"/>
</g>
<!-- Node7 -->
<g id="node7" class="node">
<title>Node7</title>
<g id="a_node7"><a xlink:href="vulkan_image_8hpp.html" target="_top" xlink:title=" ">
<polygon fill="white" stroke="black" points="436,-189.5 436,-215.5 570,-215.5 570,-189.5 436,-189.5"/>
<text text-anchor="middle" x="503" y="-198.7" font-family="Source Sans Pro" font-size="16.00">vulkanImage.hpp</text>
</a>
</g>
</g>
<!-- Node1&#45;&gt;Node7 -->
<g id="edge6" class="edge">
<title>Node1&#45;&gt;Node7</title>
<path fill="none" stroke="midnightblue" d="M551.07,-252.18C541.36,-242.36 530.87,-231.73 522.17,-222.91"/>
<polygon fill="midnightblue" stroke="midnightblue" points="524.57,-220.36 515.05,-215.7 519.58,-225.28 524.57,-220.36"/>
</g>
<!-- Node9 -->
<g id="node9" class="node">
<title>Node9</title>
<g id="a_node9"><a xlink:title=" ">
<polygon fill="white" stroke="#bfbfbf" points="484,-63.5 484,-89.5 544,-89.5 544,-63.5 484,-63.5"/>
<text text-anchor="middle" x="514" y="-72.7" font-family="Source Sans Pro" font-size="16.00">deque</text>
</a>
</g>
</g>
<!-- Node1&#45;&gt;Node9 -->
<g id="edge13" class="edge">
<title>Node1&#45;&gt;Node9</title>
<path fill="none" stroke="midnightblue" d="M598.29,-252.26C614.82,-218.95 633.96,-164.95 610,-126 597.67,-105.95 574.21,-93.89 553.57,-86.81"/>
<polygon fill="midnightblue" stroke="midnightblue" points="554.62,-83.47 544.03,-83.81 552.52,-90.15 554.62,-83.47"/>
</g>
<!-- Node10 -->
<g id="node10" class="node">
<title>Node10</title>
<g id="a_node10"><a xlink:title=" ">
<polygon fill="white" stroke="#bfbfbf" points="593,-63.5 593,-89.5 679,-89.5 679,-63.5 593,-63.5"/>
<text text-anchor="middle" x="636" y="-72.7" font-family="Source Sans Pro" font-size="16.00">functional</text>
</a>
</g>
</g>
<!-- Node1&#45;&gt;Node10 -->
<g id="edge14" class="edge">
<title>Node1&#45;&gt;Node10</title>
<path fill="none" stroke="midnightblue" d="M618.18,-252.23C628.17,-241.9 637.68,-229.51 643,-216 658.27,-177.24 649.7,-127.6 642.54,-99.5"/>
<polygon fill="midnightblue" stroke="midnightblue" points="645.83,-98.25 639.82,-89.52 639.07,-100.09 645.83,-98.25"/>
</g>
<!-- Node3 -->
<g id="node3" class="node">
<title>Node3</title>
<g id="a_node3"><a xlink:href="vulkan_settings_8hpp.html" target="_top" xlink:title=" ">
<polygon fill="white" stroke="black" points="0,-0.5 0,-26.5 146,-26.5 146,-0.5 0,-0.5"/>
<text text-anchor="middle" x="73" y="-9.7" font-family="Source Sans Pro" font-size="16.00">vulkanSettings.hpp</text>
</a>
</g>
</g>
<!-- Node2&#45;&gt;Node3 -->
<g id="edge2" class="edge">
<title>Node2&#45;&gt;Node3</title>
<path fill="none" stroke="midnightblue" d="M247.13,-63.45C212.21,-53.63 162.75,-39.73 125.47,-29.25"/>
<polygon fill="midnightblue" stroke="midnightblue" points="126.36,-25.86 115.78,-26.53 124.46,-32.6 126.36,-25.86"/>
</g>
<!-- Node4 -->
<g id="node4" class="node">
<title>Node4</title>
<g id="a_node4"><a xlink:title=" ">
<polygon fill="white" stroke="#bfbfbf" points="164.5,-0.5 164.5,-26.5 277.5,-26.5 277.5,-0.5 164.5,-0.5"/>
<text text-anchor="middle" x="221" y="-9.7" font-family="Source Sans Pro" font-size="16.00">VkBootstrap.h</text>
</a>
</g>
</g>
<!-- Node2&#45;&gt;Node4 -->
<g id="edge3" class="edge">
<title>Node2&#45;&gt;Node4</title>
<path fill="none" stroke="midnightblue" d="M276.37,-63.45C266.63,-54.84 253.35,-43.1 242.23,-33.27"/>
<polygon fill="midnightblue" stroke="midnightblue" points="244.41,-30.53 234.6,-26.53 239.78,-35.77 244.41,-30.53"/>
</g>
<!-- Node5 -->
<g id="node5" class="node">
<title>Node5</title>
<g id="a_node5"><a xlink:title=" ">
<polygon fill="white" stroke="#bfbfbf" points="295.5,-0.5 295.5,-26.5 424.5,-26.5 424.5,-0.5 295.5,-0.5"/>
<text text-anchor="middle" x="360" y="-9.7" font-family="Source Sans Pro" font-size="16.00">vk_mem_alloc.h</text>
</a>
</g>
</g>
<!-- Node2&#45;&gt;Node5 -->
<g id="edge4" class="edge">
<title>Node2&#45;&gt;Node5</title>
<path fill="none" stroke="midnightblue" d="M303.83,-63.45C313.7,-54.84 327.18,-43.1 338.46,-33.27"/>
<polygon fill="midnightblue" stroke="midnightblue" points="340.96,-35.74 346.2,-26.53 336.36,-30.46 340.96,-35.74"/>
</g>
<!-- Node6 -->
<g id="node6" class="node">
<title>Node6</title>
<g id="a_node6"><a xlink:title=" ">
<polygon fill="white" stroke="#bfbfbf" points="442.5,-0.5 442.5,-26.5 501.5,-26.5 501.5,-0.5 442.5,-0.5"/>
<text text-anchor="middle" x="472" y="-9.7" font-family="Source Sans Pro" font-size="16.00">vector</text>
</a>
</g>
</g>
<!-- Node2&#45;&gt;Node6 -->
<g id="edge5" class="edge">
<title>Node2&#45;&gt;Node6</title>
<path fill="none" stroke="midnightblue" d="M325.96,-63.45C356.71,-53.14 400.9,-38.33 432.61,-27.7"/>
<polygon fill="midnightblue" stroke="midnightblue" points="434.06,-30.91 442.43,-24.41 431.83,-24.27 434.06,-30.91"/>
</g>
<!-- Node8 -->
<g id="node8" class="node">
<title>Node8</title>
<g id="a_node8"><a xlink:href="vulkan_buffer_8hpp.html" target="_top" xlink:title=" ">
<polygon fill="white" stroke="black" points="271.5,-126.5 271.5,-152.5 404.5,-152.5 404.5,-126.5 271.5,-126.5"/>
<text text-anchor="middle" x="338" y="-135.7" font-family="Source Sans Pro" font-size="16.00">vulkanBuffer.hpp</text>
</a>
</g>
</g>
<!-- Node7&#45;&gt;Node8 -->
<g id="edge7" class="edge">
<title>Node7&#45;&gt;Node8</title>
<path fill="none" stroke="midnightblue" d="M470.4,-189.45C444.53,-179.88 408.16,-166.44 380.08,-156.06"/>
<polygon fill="midnightblue" stroke="midnightblue" points="381.12,-152.71 370.53,-152.53 378.7,-159.28 381.12,-152.71"/>
</g>
<!-- Node11 -->
<g id="node11" class="node">
<title>Node11</title>
<g id="a_node11"><a xlink:title=" ">
<polygon fill="white" stroke="#bfbfbf" points="423,-126.5 423,-152.5 523,-152.5 523,-126.5 423,-126.5"/>
<text text-anchor="middle" x="473" y="-135.7" font-family="Source Sans Pro" font-size="16.00">stb_image.h</text>
</a>
</g>
</g>
<!-- Node7&#45;&gt;Node11 -->
<g id="edge11" class="edge">
<title>Node7&#45;&gt;Node11</title>
<path fill="none" stroke="midnightblue" d="M497.07,-189.45C493.17,-181.51 487.95,-170.9 483.37,-161.59"/>
<polygon fill="midnightblue" stroke="midnightblue" points="486.47,-159.96 478.91,-152.53 480.19,-163.04 486.47,-159.96"/>
</g>
<!-- Node12 -->
<g id="node12" class="node">
<title>Node12</title>
<g id="a_node12"><a xlink:title=" ">
<polygon fill="white" stroke="#bfbfbf" points="541.5,-126.5 541.5,-152.5 600.5,-152.5 600.5,-126.5 541.5,-126.5"/>
<text text-anchor="middle" x="571" y="-135.7" font-family="Source Sans Pro" font-size="16.00">cmath</text>
</a>
</g>
</g>
<!-- Node7&#45;&gt;Node12 -->
<g id="edge12" class="edge">
<title>Node7&#45;&gt;Node12</title>
<path fill="none" stroke="midnightblue" d="M516.43,-189.45C526.03,-180.84 539.12,-169.1 550.07,-159.27"/>
<polygon fill="midnightblue" stroke="midnightblue" points="552.49,-161.81 557.59,-152.53 547.81,-156.6 552.49,-161.81"/>
</g>
<!-- Node8&#45;&gt;Node2 -->
<g id="edge8" class="edge">
<title>Node8&#45;&gt;Node2</title>
<path fill="none" stroke="midnightblue" d="M328.52,-126.45C322.01,-118.18 313.22,-107.01 305.68,-97.42"/>
<polygon fill="midnightblue" stroke="midnightblue" points="308.4,-95.22 299.46,-89.53 302.9,-99.55 308.4,-95.22"/>
</g>
<!-- Node8&#45;&gt;Node9 -->
<g id="edge9" class="edge">
<title>Node8&#45;&gt;Node9</title>
<path fill="none" stroke="midnightblue" d="M372.77,-126.45C402.06,-116.3 443.95,-101.78 474.5,-91.19"/>
<polygon fill="midnightblue" stroke="midnightblue" points="475.69,-94.48 483.99,-87.9 473.39,-87.87 475.69,-94.48"/>
</g>
<!-- Node8&#45;&gt;Node10 -->
<g id="edge10" class="edge">
<title>Node8&#45;&gt;Node10</title>
<path fill="none" stroke="midnightblue" d="M396.88,-126.45C450.94,-115.38 530.37,-99.12 582.62,-88.43"/>
<polygon fill="midnightblue" stroke="midnightblue" points="583.6,-91.8 592.7,-86.36 582.2,-84.94 583.6,-91.8"/>
</g>
</g>
</svg>
