<?xml version="1.0" encoding="UTF-8" standalone="no"?>
<!DOCTYPE svg PUBLIC "-//W3C//DTD SVG 1.1//EN"
 "http://www.w3.org/Graphics/SVG/1.1/DTD/svg11.dtd">
<!-- Generated by graphviz version 2.43.0 (0)
 -->
<!-- Title: Illumination&#45;Engine/src/GraphicsModule/Vulkan/vulkanTexture.hpp Pages: 1 -->
<svg width="914pt" height="323pt"
 viewBox="0.00 0.00 914.00 323.00" xmlns="http://www.w3.org/2000/svg" xmlns:xlink="http://www.w3.org/1999/xlink">
<g id="graph0" class="graph" transform="scale(1 1) rotate(0) translate(4 319)">
<title>Illumination&#45;Engine/src/GraphicsModule/Vulkan/vulkanTexture.hpp</title>
<polygon fill="white" stroke="transparent" points="-4,4 -4,-319 910,-319 910,4 -4,4"/>
<!-- Node1 -->
<g id="node1" class="node">
<title>Node1</title>
<g id="a_node1"><a xlink:title=" ">
<polygon fill="#bfbfbf" stroke="black" points="650.5,-252.5 650.5,-314.5 847.5,-314.5 847.5,-252.5 650.5,-252.5"/>
<text text-anchor="start" x="658.5" y="-297.7" font-family="Source Sans Pro" font-size="16.00">Illumination&#45;Engine</text>
<text text-anchor="start" x="658.5" y="-279.7" font-family="Source Sans Pro" font-size="16.00">/src/GraphicsModule</text>
<text text-anchor="middle" x="749" y="-261.7" font-family="Source Sans Pro" font-size="16.00">/Vulkan/vulkanTexture.hpp</text>
</a>
</g>
</g>
<!-- Node2 -->
<g id="node2" class="node">
<title>Node2</title>
<g id="a_node2"><a xlink:href="vulkan_image_8hpp.html" target="_top" xlink:title=" ">
<polygon fill="white" stroke="black" points="520,-189.5 520,-215.5 654,-215.5 654,-189.5 520,-189.5"/>
<text text-anchor="middle" x="587" y="-198.7" font-family="Source Sans Pro" font-size="16.00">vulkanImage.hpp</text>
</a>
</g>
</g>
<!-- Node1&#45;&gt;Node2 -->
<g id="edge1" class="edge">
<title>Node1&#45;&gt;Node2</title>
<path fill="none" stroke="midnightblue" d="M687.29,-252.41C664.8,-241.44 640.21,-229.45 621,-220.08"/>
<polygon fill="midnightblue" stroke="midnightblue" points="622.29,-216.81 611.77,-215.58 619.22,-223.11 622.29,-216.81"/>
</g>
<!-- Node13 -->
<g id="node13" class="node">
<title>Node13</title>
<g id="a_node13"><a xlink:title=" ">
<polygon fill="white" stroke="#bfbfbf" points="672.5,-189.5 672.5,-215.5 739.5,-215.5 739.5,-189.5 672.5,-189.5"/>
<text text-anchor="middle" x="706" y="-198.7" font-family="Source Sans Pro" font-size="16.00">cstddef</text>
</a>
</g>
</g>
<!-- Node1&#45;&gt;Node13 -->
<g id="edge12" class="edge">
<title>Node1&#45;&gt;Node13</title>
<path fill="none" stroke="midnightblue" d="M732.5,-252.18C727.47,-242.95 722.06,-233.01 717.45,-224.54"/>
<polygon fill="midnightblue" stroke="midnightblue" points="720.5,-222.81 712.64,-215.7 714.35,-226.16 720.5,-222.81"/>
</g>
<!-- Node14 -->
<g id="node14" class="node">
<title>Node14</title>
<g id="a_node14"><a xlink:title=" ">
<polygon fill="white" stroke="#bfbfbf" points="758,-189.5 758,-215.5 826,-215.5 826,-189.5 758,-189.5"/>
<text text-anchor="middle" x="792" y="-198.7" font-family="Source Sans Pro" font-size="16.00">fstream</text>
</a>
</g>
</g>
<!-- Node1&#45;&gt;Node14 -->
<g id="edge13" class="edge">
<title>Node1&#45;&gt;Node14</title>
<path fill="none" stroke="midnightblue" d="M765.5,-252.18C770.53,-242.95 775.94,-233.01 780.55,-224.54"/>
<polygon fill="midnightblue" stroke="midnightblue" points="783.65,-226.16 785.36,-215.7 777.5,-222.81 783.65,-226.16"/>
</g>
<!-- Node15 -->
<g id="node15" class="node">
<title>Node15</title>
<g id="a_node15"><a xlink:title=" ">
<polygon fill="white" stroke="#bfbfbf" points="844,-189.5 844,-215.5 906,-215.5 906,-189.5 844,-189.5"/>
<text text-anchor="middle" x="875" y="-198.7" font-family="Source Sans Pro" font-size="16.00">cstring</text>
</a>
</g>
</g>
<!-- Node1&#45;&gt;Node15 -->
<g id="edge14" class="edge">
<title>Node1&#45;&gt;Node15</title>
<path fill="none" stroke="midnightblue" d="M796.99,-252.41C813.93,-241.79 832.39,-230.21 847.11,-220.99"/>
<polygon fill="midnightblue" stroke="midnightblue" points="849.12,-223.85 855.74,-215.58 845.41,-217.92 849.12,-223.85"/>
</g>
<!-- Node3 -->
<g id="node3" class="node">
<title>Node3</title>
<g id="a_node3"><a xlink:href="vulkan_buffer_8hpp.html" target="_top" xlink:title=" ">
<polygon fill="white" stroke="black" points="385.5,-126.5 385.5,-152.5 518.5,-152.5 518.5,-126.5 385.5,-126.5"/>
<text text-anchor="middle" x="452" y="-135.7" font-family="Source Sans Pro" font-size="16.00">vulkanBuffer.hpp</text>
</a>
</g>
</g>
<!-- Node2&#45;&gt;Node3 -->
<g id="edge2" class="edge">
<title>Node2&#45;&gt;Node3</title>
<path fill="none" stroke="midnightblue" d="M560.33,-189.45C539.62,-180.09 510.7,-167.02 487.95,-156.74"/>
<polygon fill="midnightblue" stroke="midnightblue" points="489.17,-153.45 478.62,-152.53 486.29,-159.83 489.17,-153.45"/>
</g>
<!-- Node11 -->
<g id="node11" class="node">
<title>Node11</title>
<g id="a_node11"><a xlink:title=" ">
<polygon fill="white" stroke="#bfbfbf" points="537,-126.5 537,-152.5 637,-152.5 637,-126.5 537,-126.5"/>
<text text-anchor="middle" x="587" y="-135.7" font-family="Source Sans Pro" font-size="16.00">stb_image.h</text>
</a>
</g>
</g>
<!-- Node2&#45;&gt;Node11 -->
<g id="edge10" class="edge">
<title>Node2&#45;&gt;Node11</title>
<path fill="none" stroke="midnightblue" d="M587,-189.45C587,-181.85 587,-171.79 587,-162.78"/>
<polygon fill="midnightblue" stroke="midnightblue" points="590.5,-162.53 587,-152.53 583.5,-162.53 590.5,-162.53"/>
</g>
<!-- Node12 -->
<g id="node12" class="node">
<title>Node12</title>
<g id="a_node12"><a xlink:title=" ">
<polygon fill="white" stroke="#bfbfbf" points="655.5,-126.5 655.5,-152.5 714.5,-152.5 714.5,-126.5 655.5,-126.5"/>
<text text-anchor="middle" x="685" y="-135.7" font-family="Source Sans Pro" font-size="16.00">cmath</text>
</a>
</g>
</g>
<!-- Node2&#45;&gt;Node12 -->
<g id="edge11" class="edge">
<title>Node2&#45;&gt;Node12</title>
<path fill="none" stroke="midnightblue" d="M606.36,-189.45C620.86,-180.43 640.9,-167.95 657.12,-157.85"/>
<polygon fill="midnightblue" stroke="midnightblue" points="659.04,-160.78 665.68,-152.53 655.34,-154.84 659.04,-160.78"/>
</g>
<!-- Node4 -->
<g id="node4" class="node">
<title>Node4</title>
<g id="a_node4"><a xlink:href="vulkan_graphics_engine_link_8hpp.html" target="_top" xlink:title=" ">
<polygon fill="white" stroke="black" points="176.5,-63.5 176.5,-89.5 403.5,-89.5 403.5,-63.5 176.5,-63.5"/>
<text text-anchor="middle" x="290" y="-72.7" font-family="Source Sans Pro" font-size="16.00">vulkanGraphicsEngineLink.hpp</text>
</a>
</g>
</g>
<!-- Node3&#45;&gt;Node4 -->
<g id="edge3" class="edge">
<title>Node3&#45;&gt;Node4</title>
<path fill="none" stroke="midnightblue" d="M419.99,-126.45C394.59,-116.88 358.88,-103.44 331.32,-93.06"/>
<polygon fill="midnightblue" stroke="midnightblue" points="332.53,-89.78 321.94,-89.53 330.06,-96.33 332.53,-89.78"/>
</g>
<!-- Node9 -->
<g id="node9" class="node">
<title>Node9</title>
<g id="a_node9"><a xlink:title=" ">
<polygon fill="white" stroke="#bfbfbf" points="422,-63.5 422,-89.5 482,-89.5 482,-63.5 422,-63.5"/>
<text text-anchor="middle" x="452" y="-72.7" font-family="Source Sans Pro" font-size="16.00">deque</text>
</a>
</g>
</g>
<!-- Node3&#45;&gt;Node9 -->
<g id="edge8" class="edge">
<title>Node3&#45;&gt;Node9</title>
<path fill="none" stroke="midnightblue" d="M452,-126.45C452,-118.85 452,-108.79 452,-99.78"/>
<polygon fill="midnightblue" stroke="midnightblue" points="455.5,-99.53 452,-89.53 448.5,-99.53 455.5,-99.53"/>
</g>
<!-- Node10 -->
<g id="node10" class="node">
<title>Node10</title>
<g id="a_node10"><a xlink:title=" ">
<polygon fill="white" stroke="#bfbfbf" points="500,-63.5 500,-89.5 586,-89.5 586,-63.5 500,-63.5"/>
<text text-anchor="middle" x="543" y="-72.7" font-family="Source Sans Pro" font-size="16.00">functional</text>
</a>
</g>
</g>
<!-- Node3&#45;&gt;Node10 -->
<g id="edge9" class="edge">
<title>Node3&#45;&gt;Node10</title>
<path fill="none" stroke="midnightblue" d="M469.98,-126.45C483.31,-117.51 501.7,-105.18 516.69,-95.14"/>
<polygon fill="midnightblue" stroke="midnightblue" points="518.7,-98 525.06,-89.53 514.8,-92.19 518.7,-98"/>
</g>
<!-- Node5 -->
<g id="node5" class="node">
<title>Node5</title>
<g id="a_node5"><a xlink:href="vulkan_settings_8hpp.html" target="_top" xlink:title=" ">
<polygon fill="white" stroke="black" points="0,-0.5 0,-26.5 146,-26.5 146,-0.5 0,-0.5"/>
<text text-anchor="middle" x="73" y="-9.7" font-family="Source Sans Pro" font-size="16.00">vulkanSettings.hpp</text>
</a>
</g>
</g>
<!-- Node4&#45;&gt;Node5 -->
<g id="edge4" class="edge">
<title>Node4&#45;&gt;Node5</title>
<path fill="none" stroke="midnightblue" d="M247.13,-63.45C212.21,-53.63 162.75,-39.73 125.47,-29.25"/>
<polygon fill="midnightblue" stroke="midnightblue" points="126.36,-25.86 115.78,-26.53 124.46,-32.6 126.36,-25.86"/>
</g>
<!-- Node6 -->
<g id="node6" class="node">
<title>Node6</title>
<g id="a_node6"><a xlink:title=" ">
<polygon fill="white" stroke="#bfbfbf" points="164.5,-0.5 164.5,-26.5 277.5,-26.5 277.5,-0.5 164.5,-0.5"/>
<text text-anchor="middle" x="221" y="-9.7" font-family="Source Sans Pro" font-size="16.00">VkBootstrap.h</text>
</a>
</g>
</g>
<!-- Node4&#45;&gt;Node6 -->
<g id="edge5" class="edge">
<title>Node4&#45;&gt;Node6</title>
<path fill="none" stroke="midnightblue" d="M276.37,-63.45C266.63,-54.84 253.35,-43.1 242.23,-33.27"/>
<polygon fill="midnightblue" stroke="midnightblue" points="244.41,-30.53 234.6,-26.53 239.78,-35.77 244.41,-30.53"/>
</g>
<!-- Node7 -->
<g id="node7" class="node">
<title>Node7</title>
<g id="a_node7"><a xlink:title=" ">
<polygon fill="white" stroke="#bfbfbf" points="295.5,-0.5 295.5,-26.5 424.5,-26.5 424.5,-0.5 295.5,-0.5"/>
<text text-anchor="middle" x="360" y="-9.7" font-family="Source Sans Pro" font-size="16.00">vk_mem_alloc.h</text>
</a>
</g>
</g>
<!-- Node4&#45;&gt;Node7 -->
<g id="edge6" class="edge">
<title>Node4&#45;&gt;Node7</title>
<path fill="none" stroke="midnightblue" d="M303.83,-63.45C313.7,-54.84 327.18,-43.1 338.46,-33.27"/>
<polygon fill="midnightblue" stroke="midnightblue" points="340.96,-35.74 346.2,-26.53 336.36,-30.46 340.96,-35.74"/>
</g>
<!-- Node8 -->
<g id="node8" class="node">
<title>Node8</title>
<g id="a_node8"><a xlink:title=" ">
<polygon fill="white" stroke="#bfbfbf" points="442.5,-0.5 442.5,-26.5 501.5,-26.5 501.5,-0.5 442.5,-0.5"/>
<text text-anchor="middle" x="472" y="-9.7" font-family="Source Sans Pro" font-size="16.00">vector</text>
</a>
</g>
</g>
<!-- Node4&#45;&gt;Node8 -->
<g id="edge7" class="edge">
<title>Node4&#45;&gt;Node8</title>
<path fill="none" stroke="midnightblue" d="M325.96,-63.45C356.71,-53.14 400.9,-38.33 432.61,-27.7"/>
<polygon fill="midnightblue" stroke="midnightblue" points="434.06,-30.91 442.43,-24.41 431.83,-24.27 434.06,-30.91"/>
</g>
</g>
</svg>
