<?xml version="1.0" encoding="UTF-8" standalone="no"?>
<!DOCTYPE svg PUBLIC "-//W3C//DTD SVG 1.1//EN"
 "http://www.w3.org/Graphics/SVG/1.1/DTD/svg11.dtd">
<!-- Generated by graphviz version 2.43.0 (0)
 -->
<!-- Title: Illumination&#45;Engine/src/GraphicsModule/Vulkan/vulkanCamera.hpp Pages: 1 -->
<svg width="559pt" height="197pt"
 viewBox="0.00 0.00 559.00 197.00" xmlns="http://www.w3.org/2000/svg" xmlns:xlink="http://www.w3.org/1999/xlink">
<g id="graph0" class="graph" transform="scale(1 1) rotate(0) translate(4 193)">
<title>Illumination&#45;Engine/src/GraphicsModule/Vulkan/vulkanCamera.hpp</title>
<polygon fill="white" stroke="transparent" points="-4,4 -4,-193 555,-193 555,4 -4,4"/>
<!-- Node1 -->
<g id="node1" class="node">
<title>Node1</title>
<g id="a_node1"><a xlink:title=" ">
<polygon fill="#bfbfbf" stroke="black" points="262.5,-126.5 262.5,-188.5 462.5,-188.5 462.5,-126.5 262.5,-126.5"/>
<text text-anchor="start" x="270.5" y="-171.7" font-family="Source Sans Pro" font-size="16.00">Illumination&#45;Engine</text>
<text text-anchor="start" x="270.5" y="-153.7" font-family="Source Sans Pro" font-size="16.00">/src/GraphicsModule</text>
<text text-anchor="middle" x="362.5" y="-135.7" font-family="Source Sans Pro" font-size="16.00">/Vulkan/vulkanCamera.hpp</text>
</a>
</g>
</g>
<!-- Node2 -->
<g id="node2" class="node">
<title>Node2</title>
<g id="a_node2"><a xlink:href="vulkan_uniform_buffer_object_8hpp.html" target="_top" xlink:title=" ">
<polygon fill="white" stroke="black" points="0,-63.5 0,-89.5 233,-89.5 233,-63.5 0,-63.5"/>
<text text-anchor="middle" x="116.5" y="-72.7" font-family="Source Sans Pro" font-size="16.00">vulkanUniformBufferObject.hpp</text>
</a>
</g>
</g>
<!-- Node1&#45;&gt;Node2 -->
<g id="edge1" class="edge">
<title>Node1&#45;&gt;Node2</title>
<path fill="none" stroke="midnightblue" d="M268.8,-126.41C232.93,-114.89 193.54,-102.24 163.8,-92.69"/>
<polygon fill="midnightblue" stroke="midnightblue" points="164.7,-89.3 154.11,-89.58 162.56,-95.97 164.7,-89.3"/>
</g>
<!-- Node4 -->
<g id="node4" class="node">
<title>Node4</title>
<g id="a_node4"><a xlink:title=" ">
<polygon fill="white" stroke="#bfbfbf" points="251.5,-63.5 251.5,-89.5 473.5,-89.5 473.5,-63.5 251.5,-63.5"/>
<text text-anchor="middle" x="362.5" y="-72.7" font-family="Source Sans Pro" font-size="16.00">glm/gtc/matrix_transform.hpp</text>
</a>
</g>
</g>
<!-- Node1&#45;&gt;Node4 -->
<g id="edge3" class="edge">
<title>Node1&#45;&gt;Node4</title>
<path fill="none" stroke="midnightblue" d="M362.5,-126.18C362.5,-117.45 362.5,-108.08 362.5,-99.91"/>
<polygon fill="midnightblue" stroke="midnightblue" points="366,-99.7 362.5,-89.7 359,-99.7 366,-99.7"/>
</g>
<!-- Node5 -->
<g id="node5" class="node">
<title>Node5</title>
<g id="a_node5"><a xlink:title=" ">
<polygon fill="white" stroke="#bfbfbf" points="492,-63.5 492,-89.5 551,-89.5 551,-63.5 492,-63.5"/>
<text text-anchor="middle" x="521.5" y="-72.7" font-family="Source Sans Pro" font-size="16.00">cmath</text>
</a>
</g>
</g>
<!-- Node1&#45;&gt;Node5 -->
<g id="edge4" class="edge">
<title>Node1&#45;&gt;Node5</title>
<path fill="none" stroke="midnightblue" d="M423.06,-126.41C445.14,-115.44 469.28,-103.45 488.13,-94.08"/>
<polygon fill="midnightblue" stroke="midnightblue" points="489.79,-97.16 497.19,-89.58 486.68,-90.89 489.79,-97.16"/>
</g>
<!-- Node3 -->
<g id="node3" class="node">
<title>Node3</title>
<g id="a_node3"><a xlink:title=" ">
<polygon fill="white" stroke="#bfbfbf" points="64.5,-0.5 64.5,-26.5 168.5,-26.5 168.5,-0.5 64.5,-0.5"/>
<text text-anchor="middle" x="116.5" y="-9.7" font-family="Source Sans Pro" font-size="16.00">glm/glm.hpp</text>
</a>
</g>
</g>
<!-- Node2&#45;&gt;Node3 -->
<g id="edge2" class="edge">
<title>Node2&#45;&gt;Node3</title>
<path fill="none" stroke="midnightblue" d="M116.5,-63.45C116.5,-55.85 116.5,-45.79 116.5,-36.78"/>
<polygon fill="midnightblue" stroke="midnightblue" points="120,-36.53 116.5,-26.53 113,-36.53 120,-36.53"/>
</g>
</g>
</svg>
