<?xml version="1.0" encoding="UTF-8" standalone="no"?>
<!DOCTYPE svg PUBLIC "-//W3C//DTD SVG 1.1//EN"
 "http://www.w3.org/Graphics/SVG/1.1/DTD/svg11.dtd">
<!-- Generated by graphviz version 2.43.0 (0)
 -->
<!-- Title: Illumination&#45;Engine/src/GraphicsModule/Vulkan/vulkanAccelerationStructure.hpp Pages: 1 -->
<svg width="361pt" height="467pt"
 viewBox="0.00 0.00 361.00 467.00" xmlns="http://www.w3.org/2000/svg" xmlns:xlink="http://www.w3.org/1999/xlink">
<g id="graph0" class="graph" transform="scale(1 1) rotate(0) translate(4 463)">
<title>Illumination&#45;Engine/src/GraphicsModule/Vulkan/vulkanAccelerationStructure.hpp</title>
<polygon fill="white" stroke="transparent" points="-4,4 -4,-463 357,-463 357,4 -4,4"/>
<!-- Node1 -->
<g id="node1" class="node">
<title>Node1</title>
<g id="a_node1"><a xlink:title=" ">
<polygon fill="#bfbfbf" stroke="black" points="49,-396.5 49,-458.5 342,-458.5 342,-396.5 49,-396.5"/>
<text text-anchor="start" x="57" y="-441.7" font-family="Source Sans Pro" font-size="16.00">Illumination&#45;Engine</text>
<text text-anchor="start" x="57" y="-423.7" font-family="Source Sans Pro" font-size="16.00">/src/GraphicsModule</text>
<text text-anchor="middle" x="195.5" y="-405.7" font-family="Source Sans Pro" font-size="16.00">/Vulkan/vulkanAccelerationStructure.hpp</text>
</a>
</g>
</g>
<!-- Node2 -->
<g id="node2" class="node">
<title>Node2</title>
<g id="a_node2"><a xlink:href="vulkan_descriptor_set_8hpp.html" target="_top" xlink:title=" ">
<polygon fill="white" stroke="black" points="3.5,-297.5 3.5,-359.5 241.5,-359.5 241.5,-297.5 3.5,-297.5"/>
<text text-anchor="start" x="11.5" y="-342.7" font-family="Source Sans Pro" font-size="16.00">Illumination&#45;Engine</text>
<text text-anchor="start" x="11.5" y="-324.7" font-family="Source Sans Pro" font-size="16.00">/src/GraphicsModule</text>
<text text-anchor="middle" x="122.5" y="-306.7" font-family="Source Sans Pro" font-size="16.00">/Vulkan/vulkanDescriptorSet.hpp</text>
</a>
</g>
</g>
<!-- Node1&#45;&gt;Node2 -->
<g id="edge1" class="edge">
<title>Node1&#45;&gt;Node2</title>
<path fill="none" stroke="midnightblue" d="M166.66,-388.18C159.53,-378.7 151.98,-368.67 145.18,-359.64"/>
<polygon fill="midnightblue" stroke="midnightblue" points="163.99,-390.45 172.8,-396.34 169.59,-386.25 163.99,-390.45"/>
</g>
<!-- Node4 -->
<g id="node4" class="node">
<title>Node4</title>
<g id="a_node4"><a xlink:href="vulkan_renderable_8hpp.html" target="_top" xlink:title=" ">
<polygon fill="white" stroke="black" points="118.5,-99.5 118.5,-161.5 344.5,-161.5 344.5,-99.5 118.5,-99.5"/>
<text text-anchor="start" x="126.5" y="-144.7" font-family="Source Sans Pro" font-size="16.00">Illumination&#45;Engine</text>
<text text-anchor="start" x="126.5" y="-126.7" font-family="Source Sans Pro" font-size="16.00">/src/GraphicsModule</text>
<text text-anchor="middle" x="231.5" y="-108.7" font-family="Source Sans Pro" font-size="16.00">/Vulkan/vulkanRenderable.hpp</text>
</a>
</g>
</g>
<!-- Node1&#45;&gt;Node4 -->
<g id="edge6" class="edge">
<title>Node1&#45;&gt;Node4</title>
<path fill="none" stroke="midnightblue" d="M234.45,-388.27C241.02,-379.64 246.89,-370.04 250.5,-360 274.83,-292.39 255.41,-206.53 241.83,-161.76"/>
<polygon fill="midnightblue" stroke="midnightblue" points="231.57,-386.27 227.97,-396.23 237,-390.69 231.57,-386.27"/>
</g>
<!-- Node3 -->
<g id="node3" class="node">
<title>Node3</title>
<g id="a_node3"><a xlink:href="vulkan_pipeline_8hpp.html" target="_top" xlink:title=" ">
<polygon fill="white" stroke="black" points="0,-198.5 0,-260.5 203,-260.5 203,-198.5 0,-198.5"/>
<text text-anchor="start" x="8" y="-243.7" font-family="Source Sans Pro" font-size="16.00">Illumination&#45;Engine</text>
<text text-anchor="start" x="8" y="-225.7" font-family="Source Sans Pro" font-size="16.00">/src/GraphicsModule</text>
<text text-anchor="middle" x="101.5" y="-207.7" font-family="Source Sans Pro" font-size="16.00">/Vulkan/vulkanPipeline.hpp</text>
</a>
</g>
</g>
<!-- Node2&#45;&gt;Node3 -->
<g id="edge2" class="edge">
<title>Node2&#45;&gt;Node3</title>
<path fill="none" stroke="midnightblue" d="M113.83,-287.45C111.89,-278.49 109.86,-269.13 108.03,-260.64"/>
<polygon fill="midnightblue" stroke="midnightblue" points="110.43,-288.31 115.97,-297.34 117.28,-286.83 110.43,-288.31"/>
</g>
<!-- Node2&#45;&gt;Node4 -->
<g id="edge5" class="edge">
<title>Node2&#45;&gt;Node4</title>
<path fill="none" stroke="midnightblue" d="M184.83,-290.97C195.15,-282.36 204.69,-272.33 211.5,-261 229.72,-230.68 233.19,-189.41 233.1,-161.69"/>
<polygon fill="midnightblue" stroke="midnightblue" points="182.5,-288.35 176.81,-297.28 186.83,-293.85 182.5,-288.35"/>
</g>
<!-- Node3&#45;&gt;Node4 -->
<g id="edge3" class="edge">
<title>Node3&#45;&gt;Node4</title>
<path fill="none" stroke="midnightblue" d="M150.17,-192.19C163.65,-182.12 178.14,-171.31 191.1,-161.64"/>
<polygon fill="midnightblue" stroke="midnightblue" points="147.84,-189.55 141.92,-198.34 152.03,-195.17 147.84,-189.55"/>
</g>
<!-- Node5 -->
<g id="node5" class="node">
<title>Node5</title>
<g id="a_node5"><a xlink:href="vulkan_render_engine_8hpp.html" target="_top" xlink:title=" ">
<polygon fill="white" stroke="black" points="110,-0.5 110,-62.5 353,-62.5 353,-0.5 110,-0.5"/>
<text text-anchor="start" x="118" y="-45.7" font-family="Source Sans Pro" font-size="16.00">Illumination&#45;Engine</text>
<text text-anchor="start" x="118" y="-27.7" font-family="Source Sans Pro" font-size="16.00">/src/GraphicsModule</text>
<text text-anchor="middle" x="231.5" y="-9.7" font-family="Source Sans Pro" font-size="16.00">/Vulkan/vulkanRenderEngine.hpp</text>
</a>
</g>
</g>
<!-- Node4&#45;&gt;Node5 -->
<g id="edge4" class="edge">
<title>Node4&#45;&gt;Node5</title>
<path fill="none" stroke="midnightblue" d="M231.5,-89.17C231.5,-80.29 231.5,-71.03 231.5,-62.64"/>
<polygon fill="midnightblue" stroke="midnightblue" points="228,-89.34 231.5,-99.34 235,-89.34 228,-89.34"/>
</g>
</g>
</svg>
