<?xml version="1.0" encoding="UTF-8" standalone="no"?>
<!DOCTYPE svg PUBLIC "-//W3C//DTD SVG 1.1//EN"
 "http://www.w3.org/Graphics/SVG/1.1/DTD/svg11.dtd">
<!-- Generated by graphviz version 2.43.0 (0)
 -->
<!-- Title: Illumination&#45;Engine/src/GraphicsModule/Vulkan/vulkanRenderPass.hpp Pages: 1 -->
<svg width="316pt" height="269pt"
 viewBox="0.00 0.00 315.50 269.00" xmlns="http://www.w3.org/2000/svg" xmlns:xlink="http://www.w3.org/1999/xlink">
<g id="graph0" class="graph" transform="scale(1 1) rotate(0) translate(4 265)">
<title>Illumination&#45;Engine/src/GraphicsModule/Vulkan/vulkanRenderPass.hpp</title>
<polygon fill="white" stroke="transparent" points="-4,4 -4,-265 311.5,-265 311.5,4 -4,4"/>
<!-- Node1 -->
<g id="node1" class="node">
<title>Node1</title>
<g id="a_node1"><a xlink:title=" ">
<polygon fill="#bfbfbf" stroke="black" points="72.5,-198.5 72.5,-260.5 299.5,-260.5 299.5,-198.5 72.5,-198.5"/>
<text text-anchor="start" x="80.5" y="-243.7" font-family="Source Sans Pro" font-size="16.00">Illumination&#45;Engine</text>
<text text-anchor="start" x="80.5" y="-225.7" font-family="Source Sans Pro" font-size="16.00">/src/GraphicsModule</text>
<text text-anchor="middle" x="186" y="-207.7" font-family="Source Sans Pro" font-size="16.00">/Vulkan/vulkanRenderPass.hpp</text>
</a>
</g>
</g>
<!-- Node2 -->
<g id="node2" class="node">
<title>Node2</title>
<g id="a_node2"><a xlink:href="vulkan_framebuffer_8hpp.html" target="_top" xlink:title=" ">
<polygon fill="white" stroke="black" points="0,-99.5 0,-161.5 230,-161.5 230,-99.5 0,-99.5"/>
<text text-anchor="start" x="8" y="-144.7" font-family="Source Sans Pro" font-size="16.00">Illumination&#45;Engine</text>
<text text-anchor="start" x="8" y="-126.7" font-family="Source Sans Pro" font-size="16.00">/src/GraphicsModule</text>
<text text-anchor="middle" x="115" y="-108.7" font-family="Source Sans Pro" font-size="16.00">/Vulkan/vulkanFramebuffer.hpp</text>
</a>
</g>
</g>
<!-- Node1&#45;&gt;Node2 -->
<g id="edge1" class="edge">
<title>Node1&#45;&gt;Node2</title>
<path fill="none" stroke="midnightblue" d="M157.95,-190.18C151.01,-180.7 143.67,-170.67 137.06,-161.64"/>
<polygon fill="midnightblue" stroke="midnightblue" points="155.19,-192.34 163.92,-198.34 160.84,-188.2 155.19,-192.34"/>
</g>
<!-- Node3 -->
<g id="node3" class="node">
<title>Node3</title>
<g id="a_node3"><a xlink:href="vulkan_render_engine_8hpp.html" target="_top" xlink:title=" ">
<polygon fill="white" stroke="black" points="64.5,-0.5 64.5,-62.5 307.5,-62.5 307.5,-0.5 64.5,-0.5"/>
<text text-anchor="start" x="72.5" y="-45.7" font-family="Source Sans Pro" font-size="16.00">Illumination&#45;Engine</text>
<text text-anchor="start" x="72.5" y="-27.7" font-family="Source Sans Pro" font-size="16.00">/src/GraphicsModule</text>
<text text-anchor="middle" x="186" y="-9.7" font-family="Source Sans Pro" font-size="16.00">/Vulkan/vulkanRenderEngine.hpp</text>
</a>
</g>
</g>
<!-- Node1&#45;&gt;Node3 -->
<g id="edge3" class="edge">
<title>Node1&#45;&gt;Node3</title>
<path fill="none" stroke="midnightblue" d="M223.34,-190.37C229.76,-181.68 235.49,-172.03 239,-162 248.24,-135.57 248.24,-125.43 239,-99 234.37,-85.76 225.88,-73.19 217.03,-62.61"/>
<polygon fill="midnightblue" stroke="midnightblue" points="220.47,-188.36 217.03,-198.39 225.97,-192.7 220.47,-188.36"/>
</g>
<!-- Node2&#45;&gt;Node3 -->
<g id="edge2" class="edge">
<title>Node2&#45;&gt;Node3</title>
<path fill="none" stroke="midnightblue" d="M143.05,-91.18C149.99,-81.7 157.33,-71.67 163.94,-62.64"/>
<polygon fill="midnightblue" stroke="midnightblue" points="140.16,-89.2 137.08,-99.34 145.81,-93.34 140.16,-89.2"/>
</g>
</g>
</svg>
