<?xml version="1.0" encoding="UTF-8" standalone="no"?>
<!DOCTYPE svg PUBLIC "-//W3C//DTD SVG 1.1//EN"
 "http://www.w3.org/Graphics/SVG/1.1/DTD/svg11.dtd">
<!-- Generated by graphviz version 2.43.0 (0)
 -->
<!-- Title: Illumination&#45;Engine/src/GraphicsModule/Vulkan/vulkanVertex.hpp Pages: 1 -->
<svg width="251pt" height="269pt"
 viewBox="0.00 0.00 251.00 269.00" xmlns="http://www.w3.org/2000/svg" xmlns:xlink="http://www.w3.org/1999/xlink">
<g id="graph0" class="graph" transform="scale(1 1) rotate(0) translate(4 265)">
<title>Illumination&#45;Engine/src/GraphicsModule/Vulkan/vulkanVertex.hpp</title>
<polygon fill="white" stroke="transparent" points="-4,4 -4,-265 247,-265 247,4 -4,4"/>
<!-- Node1 -->
<g id="node1" class="node">
<title>Node1</title>
<g id="a_node1"><a xlink:title=" ">
<polygon fill="#bfbfbf" stroke="black" points="27.5,-198.5 27.5,-260.5 215.5,-260.5 215.5,-198.5 27.5,-198.5"/>
<text text-anchor="start" x="35.5" y="-243.7" font-family="Source Sans Pro" font-size="16.00">Illumination&#45;Engine</text>
<text text-anchor="start" x="35.5" y="-225.7" font-family="Source Sans Pro" font-size="16.00">/src/GraphicsModule</text>
<text text-anchor="middle" x="121.5" y="-207.7" font-family="Source Sans Pro" font-size="16.00">/Vulkan/vulkanVertex.hpp</text>
</a>
</g>
</g>
<!-- Node2 -->
<g id="node2" class="node">
<title>Node2</title>
<g id="a_node2"><a xlink:href="vulkan_renderable_8hpp.html" target="_top" xlink:title=" ">
<polygon fill="white" stroke="black" points="8.5,-99.5 8.5,-161.5 234.5,-161.5 234.5,-99.5 8.5,-99.5"/>
<text text-anchor="start" x="16.5" y="-144.7" font-family="Source Sans Pro" font-size="16.00">Illumination&#45;Engine</text>
<text text-anchor="start" x="16.5" y="-126.7" font-family="Source Sans Pro" font-size="16.00">/src/GraphicsModule</text>
<text text-anchor="middle" x="121.5" y="-108.7" font-family="Source Sans Pro" font-size="16.00">/Vulkan/vulkanRenderable.hpp</text>
</a>
</g>
</g>
<!-- Node1&#45;&gt;Node2 -->
<g id="edge1" class="edge">
<title>Node1&#45;&gt;Node2</title>
<path fill="none" stroke="midnightblue" d="M121.5,-188.17C121.5,-179.29 121.5,-170.03 121.5,-161.64"/>
<polygon fill="midnightblue" stroke="midnightblue" points="118,-188.34 121.5,-198.34 125,-188.34 118,-188.34"/>
</g>
<!-- Node3 -->
<g id="node3" class="node">
<title>Node3</title>
<g id="a_node3"><a xlink:href="vulkan_render_engine_8hpp.html" target="_top" xlink:title=" ">
<polygon fill="white" stroke="black" points="0,-0.5 0,-62.5 243,-62.5 243,-0.5 0,-0.5"/>
<text text-anchor="start" x="8" y="-45.7" font-family="Source Sans Pro" font-size="16.00">Illumination&#45;Engine</text>
<text text-anchor="start" x="8" y="-27.7" font-family="Source Sans Pro" font-size="16.00">/src/GraphicsModule</text>
<text text-anchor="middle" x="121.5" y="-9.7" font-family="Source Sans Pro" font-size="16.00">/Vulkan/vulkanRenderEngine.hpp</text>
</a>
</g>
</g>
<!-- Node2&#45;&gt;Node3 -->
<g id="edge2" class="edge">
<title>Node2&#45;&gt;Node3</title>
<path fill="none" stroke="midnightblue" d="M121.5,-89.17C121.5,-80.29 121.5,-71.03 121.5,-62.64"/>
<polygon fill="midnightblue" stroke="midnightblue" points="118,-89.34 121.5,-99.34 125,-89.34 118,-89.34"/>
</g>
</g>
</svg>
