<?xml version="1.0" encoding="UTF-8" standalone="no"?>
<!DOCTYPE svg PUBLIC "-//W3C//DTD SVG 1.1//EN"
 "http://www.w3.org/Graphics/SVG/1.1/DTD/svg11.dtd">
<!-- Generated by graphviz version 2.43.0 (0)
 -->
<!-- Title: Illumination&#45;Engine/src/GraphicsModule/Vulkan/vulkanUniformBufferObject.hpp Pages: 1 -->
<svg width="343pt" height="386pt"
 viewBox="0.00 0.00 343.00 386.00" xmlns="http://www.w3.org/2000/svg" xmlns:xlink="http://www.w3.org/1999/xlink">
<g id="graph0" class="graph" transform="scale(1 1) rotate(0) translate(4 382)">
<title>Illumination&#45;Engine/src/GraphicsModule/Vulkan/vulkanUniformBufferObject.hpp</title>
<polygon fill="white" stroke="transparent" points="-4,4 -4,-382 339,-382 339,4 -4,4"/>
<!-- Node1 -->
<g id="node1" class="node">
<title>Node1</title>
<g id="a_node1"><a xlink:title=" ">
<polygon fill="#bfbfbf" stroke="black" points="121,-297.5 121,-377.5 335,-377.5 335,-297.5 121,-297.5"/>
<text text-anchor="start" x="129" y="-360.7" font-family="Source Sans Pro" font-size="16.00">Illumination&#45;Engine</text>
<text text-anchor="start" x="129" y="-342.7" font-family="Source Sans Pro" font-size="16.00">/src/GraphicsModule</text>
<text text-anchor="start" x="129" y="-324.7" font-family="Source Sans Pro" font-size="16.00">/Vulkan/vulkanUniformBuffer</text>
<text text-anchor="middle" x="228" y="-306.7" font-family="Source Sans Pro" font-size="16.00">Object.hpp</text>
</a>
</g>
</g>
<!-- Node2 -->
<g id="node2" class="node">
<title>Node2</title>
<g id="a_node2"><a xlink:href="vulkan_camera_8hpp.html" target="_top" xlink:title=" ">
<polygon fill="white" stroke="black" points="0,-198.5 0,-260.5 200,-260.5 200,-198.5 0,-198.5"/>
<text text-anchor="start" x="8" y="-243.7" font-family="Source Sans Pro" font-size="16.00">Illumination&#45;Engine</text>
<text text-anchor="start" x="8" y="-225.7" font-family="Source Sans Pro" font-size="16.00">/src/GraphicsModule</text>
<text text-anchor="middle" x="100" y="-207.7" font-family="Source Sans Pro" font-size="16.00">/Vulkan/vulkanCamera.hpp</text>
</a>
</g>
</g>
<!-- Node1&#45;&gt;Node2 -->
<g id="edge1" class="edge">
<title>Node1&#45;&gt;Node2</title>
<path fill="none" stroke="midnightblue" d="M172.69,-290.7C160.37,-280.5 147.62,-269.94 136.3,-260.56"/>
<polygon fill="midnightblue" stroke="midnightblue" points="170.77,-293.65 180.7,-297.33 175.23,-288.26 170.77,-293.65"/>
</g>
<!-- Node3 -->
<g id="node3" class="node">
<title>Node3</title>
<g id="a_node3"><a xlink:href="vulkan_render_engine_8hpp.html" target="_top" xlink:title=" ">
<polygon fill="white" stroke="black" points="54.5,-0.5 54.5,-62.5 297.5,-62.5 297.5,-0.5 54.5,-0.5"/>
<text text-anchor="start" x="62.5" y="-45.7" font-family="Source Sans Pro" font-size="16.00">Illumination&#45;Engine</text>
<text text-anchor="start" x="62.5" y="-27.7" font-family="Source Sans Pro" font-size="16.00">/src/GraphicsModule</text>
<text text-anchor="middle" x="176" y="-9.7" font-family="Source Sans Pro" font-size="16.00">/Vulkan/vulkanRenderEngine.hpp</text>
</a>
</g>
</g>
<!-- Node1&#45;&gt;Node3 -->
<g id="edge5" class="edge">
<title>Node1&#45;&gt;Node3</title>
<path fill="none" stroke="midnightblue" d="M263.41,-288.72C295.8,-238.66 333.69,-159.1 298,-99 289.01,-83.86 275.23,-71.95 260.11,-62.65"/>
<polygon fill="midnightblue" stroke="midnightblue" points="260.46,-286.83 257.86,-297.1 266.3,-290.7 260.46,-286.83"/>
</g>
<!-- Node4 -->
<g id="node4" class="node">
<title>Node4</title>
<g id="a_node4"><a xlink:href="vulkan_renderable_8hpp.html" target="_top" xlink:title=" ">
<polygon fill="white" stroke="black" points="63,-99.5 63,-161.5 289,-161.5 289,-99.5 63,-99.5"/>
<text text-anchor="start" x="71" y="-144.7" font-family="Source Sans Pro" font-size="16.00">Illumination&#45;Engine</text>
<text text-anchor="start" x="71" y="-126.7" font-family="Source Sans Pro" font-size="16.00">/src/GraphicsModule</text>
<text text-anchor="middle" x="176" y="-108.7" font-family="Source Sans Pro" font-size="16.00">/Vulkan/vulkanRenderable.hpp</text>
</a>
</g>
</g>
<!-- Node1&#45;&gt;Node4 -->
<g id="edge6" class="edge">
<title>Node1&#45;&gt;Node4</title>
<path fill="none" stroke="midnightblue" d="M225.12,-286.97C222.59,-260.18 217.85,-226.77 209,-198 205.21,-185.68 199.35,-172.84 193.61,-161.76"/>
<polygon fill="midnightblue" stroke="midnightblue" points="221.66,-287.61 226.01,-297.26 228.63,-287 221.66,-287.61"/>
</g>
<!-- Node2&#45;&gt;Node3 -->
<g id="edge2" class="edge">
<title>Node2&#45;&gt;Node3</title>
<path fill="none" stroke="midnightblue" d="M67.71,-190.04C62.07,-181.33 57.04,-171.75 54,-162 45.66,-135.27 39.7,-123.08 54,-99 62.99,-83.86 76.77,-71.95 91.89,-62.65"/>
<polygon fill="midnightblue" stroke="midnightblue" points="64.95,-192.2 73.5,-198.45 70.71,-188.23 64.95,-192.2"/>
</g>
<!-- Node2&#45;&gt;Node4 -->
<g id="edge3" class="edge">
<title>Node2&#45;&gt;Node4</title>
<path fill="none" stroke="midnightblue" d="M130.02,-190.18C137.45,-180.7 145.31,-170.67 152.38,-161.64"/>
<polygon fill="midnightblue" stroke="midnightblue" points="127.04,-188.31 123.63,-198.34 132.55,-192.63 127.04,-188.31"/>
</g>
<!-- Node4&#45;&gt;Node3 -->
<g id="edge4" class="edge">
<title>Node4&#45;&gt;Node3</title>
<path fill="none" stroke="midnightblue" d="M176,-89.17C176,-80.29 176,-71.03 176,-62.64"/>
<polygon fill="midnightblue" stroke="midnightblue" points="172.5,-89.34 176,-99.34 179.5,-89.34 172.5,-89.34"/>
</g>
</g>
</svg>
