<?xml version="1.0" encoding="UTF-8" standalone="no"?>
<!DOCTYPE svg PUBLIC "-//W3C//DTD SVG 1.1//EN"
 "http://www.w3.org/Graphics/SVG/1.1/DTD/svg11.dtd">
<!-- Generated by graphviz version 2.43.0 (0)
 -->
<!-- Title: Illumination&#45;Engine/src/GraphicsModule/Vulkan/vulkanRenderable.hpp Pages: 1 -->
<svg width="2478pt" height="386pt"
 viewBox="0.00 0.00 2477.61 386.00" xmlns="http://www.w3.org/2000/svg" xmlns:xlink="http://www.w3.org/1999/xlink">
<g id="graph0" class="graph" transform="scale(1 1) rotate(0) translate(4 382)">
<title>Illumination&#45;Engine/src/GraphicsModule/Vulkan/vulkanRenderable.hpp</title>
<polygon fill="white" stroke="transparent" points="-4,4 -4,-382 2473.61,-382 2473.61,4 -4,4"/>
<!-- Node1 -->
<g id="node1" class="node">
<title>Node1</title>
<g id="a_node1"><a xlink:title=" ">
<polygon fill="#bfbfbf" stroke="black" points="1252.11,-315.5 1252.11,-377.5 1478.11,-377.5 1478.11,-315.5 1252.11,-315.5"/>
<text text-anchor="start" x="1260.11" y="-360.7" font-family="Source Sans Pro" font-size="16.00">Illumination&#45;Engine</text>
<text text-anchor="start" x="1260.11" y="-342.7" font-family="Source Sans Pro" font-size="16.00">/src/GraphicsModule</text>
<text text-anchor="middle" x="1365.11" y="-324.7" font-family="Source Sans Pro" font-size="16.00">/Vulkan/vulkanRenderable.hpp</text>
</a>
</g>
</g>
<!-- Node2 -->
<g id="node2" class="node">
<title>Node2</title>
<g id="a_node2"><a xlink:href="vulkan_shader_8hpp.html" target="_top" xlink:title=" ">
<polygon fill="white" stroke="black" points="28.11,-252.5 28.11,-278.5 168.11,-278.5 168.11,-252.5 28.11,-252.5"/>
<text text-anchor="middle" x="98.11" y="-261.7" font-family="Source Sans Pro" font-size="16.00">vulkanShader.hpp</text>
</a>
</g>
</g>
<!-- Node1&#45;&gt;Node2 -->
<g id="edge1" class="edge">
<title>Node1&#45;&gt;Node2</title>
<path fill="none" stroke="midnightblue" d="M1251.88,-342.59C1040.95,-336.39 573.74,-319.06 182.11,-279 180.84,-278.87 179.55,-278.73 178.25,-278.59"/>
<polygon fill="midnightblue" stroke="midnightblue" points="178.52,-275.1 168.18,-277.42 177.71,-282.05 178.52,-275.1"/>
</g>
<!-- Node3 -->
<g id="node3" class="node">
<title>Node3</title>
<g id="a_node3"><a xlink:href="vulkan_graphics_engine_link_8hpp.html" target="_top" xlink:title=" ">
<polygon fill="white" stroke="black" points="490.61,-63.5 490.61,-89.5 717.61,-89.5 717.61,-63.5 490.61,-63.5"/>
<text text-anchor="middle" x="604.11" y="-72.7" font-family="Source Sans Pro" font-size="16.00">vulkanGraphicsEngineLink.hpp</text>
</a>
</g>
</g>
<!-- Node1&#45;&gt;Node3 -->
<g id="edge42" class="edge">
<title>Node1&#45;&gt;Node3</title>
<path fill="none" stroke="midnightblue" d="M1251.92,-344.1C935.37,-339.65 61.34,-323.37 19.11,-279 -34.67,-222.5 35.28,-160.76 105.11,-126 168.75,-94.33 354.3,-83.33 480.3,-79.51"/>
<polygon fill="midnightblue" stroke="midnightblue" points="480.51,-83.01 490.4,-79.22 480.3,-76.01 480.51,-83.01"/>
</g>
<!-- Node7 -->
<g id="node7" class="node">
<title>Node7</title>
<g id="a_node7"><a xlink:title=" ">
<polygon fill="white" stroke="#bfbfbf" points="1775.61,-0.5 1775.61,-26.5 1834.61,-26.5 1834.61,-0.5 1775.61,-0.5"/>
<text text-anchor="middle" x="1805.11" y="-9.7" font-family="Source Sans Pro" font-size="16.00">vector</text>
</a>
</g>
</g>
<!-- Node1&#45;&gt;Node7 -->
<g id="edge56" class="edge">
<title>Node1&#45;&gt;Node7</title>
<path fill="none" stroke="midnightblue" d="M1478.39,-335.31C1563.65,-325.49 1671.38,-307.8 1705.11,-279 1782.86,-212.63 1746.24,-157.94 1784.11,-63 1787.64,-54.15 1791.76,-44.51 1795.41,-36.17"/>
<polygon fill="midnightblue" stroke="midnightblue" points="1798.72,-37.34 1799.56,-26.78 1792.32,-34.51 1798.72,-37.34"/>
</g>
<!-- Node8 -->
<g id="node8" class="node">
<title>Node8</title>
<g id="a_node8"><a xlink:title=" ">
<polygon fill="white" stroke="#bfbfbf" points="64.11,-189.5 64.11,-215.5 132.11,-215.5 132.11,-189.5 64.11,-189.5"/>
<text text-anchor="middle" x="98.11" y="-198.7" font-family="Source Sans Pro" font-size="16.00">fstream</text>
</a>
</g>
</g>
<!-- Node1&#45;&gt;Node8 -->
<g id="edge54" class="edge">
<title>Node1&#45;&gt;Node8</title>
<path fill="none" stroke="midnightblue" d="M1251.71,-342.67C980.32,-335.38 308.83,-314 213.11,-279 194.33,-272.13 193.65,-263.24 177.11,-252 161.13,-241.14 142.76,-229.79 127.76,-220.81"/>
<polygon fill="midnightblue" stroke="midnightblue" points="129.29,-217.65 118.91,-215.55 125.72,-223.67 129.29,-217.65"/>
</g>
<!-- Node9 -->
<g id="node9" class="node">
<title>Node9</title>
<g id="a_node9"><a xlink:title=" ">
<polygon fill="white" stroke="#bfbfbf" points="150.11,-189.5 150.11,-215.5 212.11,-215.5 212.11,-189.5 150.11,-189.5"/>
<text text-anchor="middle" x="181.11" y="-198.7" font-family="Source Sans Pro" font-size="16.00">cstring</text>
</a>
</g>
</g>
<!-- Node1&#45;&gt;Node9 -->
<g id="edge55" class="edge">
<title>Node1&#45;&gt;Node9</title>
<path fill="none" stroke="midnightblue" d="M1251.84,-343.41C986.82,-337.86 341.98,-320.23 253.11,-279 227.79,-267.25 206.86,-242.28 194.21,-224.27"/>
<polygon fill="midnightblue" stroke="midnightblue" points="196.86,-221.93 188.38,-215.59 191.05,-225.84 196.86,-221.93"/>
</g>
<!-- Node10 -->
<g id="node10" class="node">
<title>Node10</title>
<g id="a_node10"><a xlink:href="vulkan_camera_8hpp.html" target="_top" xlink:title=" ">
<polygon fill="white" stroke="black" points="718.61,-252.5 718.61,-278.5 863.61,-278.5 863.61,-252.5 718.61,-252.5"/>
<text text-anchor="middle" x="791.11" y="-261.7" font-family="Source Sans Pro" font-size="16.00">vulkanCamera.hpp</text>
</a>
</g>
</g>
<!-- Node1&#45;&gt;Node10 -->
<g id="edge9" class="edge">
<title>Node1&#45;&gt;Node10</title>
<path fill="none" stroke="midnightblue" d="M1252.05,-329.94C1140.75,-314.62 973.4,-291.59 873.93,-277.9"/>
<polygon fill="midnightblue" stroke="midnightblue" points="874.31,-274.42 863.92,-276.52 873.35,-281.35 874.31,-274.42"/>
</g>
<!-- Node11 -->
<g id="node11" class="node">
<title>Node11</title>
<g id="a_node11"><a xlink:href="vulkan_uniform_buffer_object_8hpp.html" target="_top" xlink:title=" ">
<polygon fill="white" stroke="black" points="746.61,-189.5 746.61,-215.5 979.61,-215.5 979.61,-189.5 746.61,-189.5"/>
<text text-anchor="middle" x="863.11" y="-198.7" font-family="Source Sans Pro" font-size="16.00">vulkanUniformBufferObject.hpp</text>
</a>
</g>
</g>
<!-- Node1&#45;&gt;Node11 -->
<g id="edge41" class="edge">
<title>Node1&#45;&gt;Node11</title>
<path fill="none" stroke="midnightblue" d="M1258.96,-315.47C1153.69,-285.7 996.75,-241.3 915.73,-218.38"/>
<polygon fill="midnightblue" stroke="midnightblue" points="916.34,-214.92 905.76,-215.56 914.43,-221.65 916.34,-214.92"/>
</g>
<!-- Node15 -->
<g id="node15" class="node">
<title>Node15</title>
<g id="a_node15"><a xlink:href="vulkan_vertex_8hpp.html" target="_top" xlink:title=" ">
<polygon fill="white" stroke="black" points="1251.61,-252.5 1251.61,-278.5 1384.61,-278.5 1384.61,-252.5 1251.61,-252.5"/>
<text text-anchor="middle" x="1318.11" y="-261.7" font-family="Source Sans Pro" font-size="16.00">vulkanVertex.hpp</text>
</a>
</g>
</g>
<!-- Node1&#45;&gt;Node15 -->
<g id="edge14" class="edge">
<title>Node1&#45;&gt;Node15</title>
<path fill="none" stroke="midnightblue" d="M1347.08,-315.18C1341.59,-305.95 1335.67,-296.01 1330.63,-287.54"/>
<polygon fill="midnightblue" stroke="midnightblue" points="1333.5,-285.51 1325.37,-278.7 1327.48,-289.09 1333.5,-285.51"/>
</g>
<!-- Node19 -->
<g id="node19" class="node">
<title>Node19</title>
<g id="a_node19"><a xlink:href="vulkan_texture_8hpp.html" target="_top" xlink:title=" ">
<polygon fill="white" stroke="black" points="262.61,-252.5 262.61,-278.5 403.61,-278.5 403.61,-252.5 262.61,-252.5"/>
<text text-anchor="middle" x="333.11" y="-261.7" font-family="Source Sans Pro" font-size="16.00">vulkanTexture.hpp</text>
</a>
</g>
</g>
<!-- Node1&#45;&gt;Node19 -->
<g id="edge19" class="edge">
<title>Node1&#45;&gt;Node19</title>
<path fill="none" stroke="midnightblue" d="M1251.72,-336.82C1041.54,-320.73 596.29,-286.65 413.75,-272.67"/>
<polygon fill="midnightblue" stroke="midnightblue" points="413.92,-269.18 403.68,-271.9 413.39,-276.16 413.92,-269.18"/>
</g>
<!-- Node25 -->
<g id="node25" class="node">
<title>Node25</title>
<g id="a_node25"><a xlink:title=" ">
<polygon fill="white" stroke="#bfbfbf" points="382.61,-189.5 382.61,-215.5 449.61,-215.5 449.61,-189.5 382.61,-189.5"/>
<text text-anchor="middle" x="416.11" y="-198.7" font-family="Source Sans Pro" font-size="16.00">cstddef</text>
</a>
</g>
</g>
<!-- Node1&#45;&gt;Node25 -->
<g id="edge53" class="edge">
<title>Node1&#45;&gt;Node25</title>
<path fill="none" stroke="midnightblue" d="M1251.83,-339.05C1120.52,-330.41 897.96,-312.18 709.11,-279 619.31,-263.22 516.58,-234.13 459.75,-217.03"/>
<polygon fill="midnightblue" stroke="midnightblue" points="460.6,-213.63 450.02,-214.09 458.57,-220.33 460.6,-213.63"/>
</g>
<!-- Node26 -->
<g id="node26" class="node">
<title>Node26</title>
<g id="a_node26"><a xlink:href="vulkan_descriptor_set_8hpp.html" target="_top" xlink:title=" ">
<polygon fill="white" stroke="black" points="1441.11,-189.5 1441.11,-215.5 1623.11,-215.5 1623.11,-189.5 1441.11,-189.5"/>
<text text-anchor="middle" x="1532.11" y="-198.7" font-family="Source Sans Pro" font-size="16.00">vulkanDescriptorSet.hpp</text>
</a>
</g>
</g>
<!-- Node1&#45;&gt;Node26 -->
<g id="edge30" class="edge">
<title>Node1&#45;&gt;Node26</title>
<path fill="none" stroke="midnightblue" d="M1400.53,-315.39C1433.65,-287.23 1482.06,-246.06 1510,-222.3"/>
<polygon fill="midnightblue" stroke="midnightblue" points="1512.29,-224.95 1517.64,-215.81 1507.76,-219.62 1512.29,-224.95"/>
</g>
<!-- Node27 -->
<g id="node27" class="node">
<title>Node27</title>
<g id="a_node27"><a xlink:href="vulkan_acceleration_structure_8hpp.html" target="_top" xlink:title=" ">
<polygon fill="white" stroke="black" points="1120.11,-126.5 1120.11,-152.5 1358.11,-152.5 1358.11,-126.5 1120.11,-126.5"/>
<text text-anchor="middle" x="1239.11" y="-135.7" font-family="Source Sans Pro" font-size="16.00">vulkanAccelerationStructure.hpp</text>
</a>
</g>
</g>
<!-- Node1&#45;&gt;Node27 -->
<g id="edge40" class="edge">
<title>Node1&#45;&gt;Node27</title>
<path fill="none" stroke="midnightblue" d="M1381.43,-315.25C1386.56,-304.17 1391.54,-291.33 1394.11,-279 1402.52,-238.69 1401.03,-218.32 1372.11,-189 1356.84,-173.52 1336.24,-162.94 1315.81,-155.73"/>
<polygon fill="midnightblue" stroke="midnightblue" points="1316.74,-152.35 1306.14,-152.56 1314.55,-159 1316.74,-152.35"/>
</g>
<!-- Node31 -->
<g id="node31" class="node">
<title>Node31</title>
<g id="a_node31"><a xlink:href="vulkan_pipeline_8hpp.html" target="_top" xlink:title=" ">
<polygon fill="white" stroke="black" points="1548.61,-252.5 1548.61,-278.5 1695.61,-278.5 1695.61,-252.5 1548.61,-252.5"/>
<text text-anchor="middle" x="1622.11" y="-261.7" font-family="Source Sans Pro" font-size="16.00">vulkanPipeline.hpp</text>
</a>
</g>
</g>
<!-- Node1&#45;&gt;Node31 -->
<g id="edge35" class="edge">
<title>Node1&#45;&gt;Node31</title>
<path fill="none" stroke="midnightblue" d="M1463.01,-315.41C1500.64,-303.84 1541.99,-291.13 1573.1,-281.57"/>
<polygon fill="midnightblue" stroke="midnightblue" points="1574.3,-284.86 1582.83,-278.58 1572.24,-278.17 1574.3,-284.86"/>
</g>
<!-- Node32 -->
<g id="node32" class="node">
<title>Node32</title>
<g id="a_node32"><a xlink:href="_i_e_asset_8hpp.html" target="_top" xlink:title=" ">
<polygon fill="white" stroke="black" points="1793.11,-189.5 1793.11,-215.5 2017.11,-215.5 2017.11,-189.5 1793.11,-189.5"/>
<text text-anchor="middle" x="1905.11" y="-198.7" font-family="Source Sans Pro" font-size="16.00">Core/AssetModule/IEAsset.hpp</text>
</a>
</g>
</g>
<!-- Node1&#45;&gt;Node32 -->
<g id="edge43" class="edge">
<title>Node1&#45;&gt;Node32</title>
<path fill="none" stroke="midnightblue" d="M1478.31,-336.7C1553.87,-328.11 1654.36,-311.35 1738.11,-279 1759.17,-270.87 1760.96,-262.15 1781.11,-252 1806.33,-239.29 1835.72,-227.67 1859.56,-218.99"/>
<polygon fill="midnightblue" stroke="midnightblue" points="1860.84,-222.25 1869.07,-215.57 1858.47,-215.66 1860.84,-222.25"/>
</g>
<!-- Node35 -->
<g id="node35" class="node">
<title>Node35</title>
<g id="a_node35"><a xlink:title=" ">
<polygon fill="white" stroke="#bfbfbf" points="1790.11,-252.5 1790.11,-278.5 1950.11,-278.5 1950.11,-252.5 1790.11,-252.5"/>
<text text-anchor="middle" x="1870.11" y="-261.7" font-family="Source Sans Pro" font-size="16.00">assimp/Importer.hpp</text>
</a>
</g>
</g>
<!-- Node1&#45;&gt;Node35 -->
<g id="edge49" class="edge">
<title>Node1&#45;&gt;Node35</title>
<path fill="none" stroke="midnightblue" d="M1478.13,-327.82C1570.33,-313.4 1698.69,-293.32 1783.04,-280.12"/>
<polygon fill="midnightblue" stroke="midnightblue" points="1783.77,-283.55 1793.11,-278.55 1782.69,-276.63 1783.77,-283.55"/>
</g>
<!-- Node36 -->
<g id="node36" class="node">
<title>Node36</title>
<g id="a_node36"><a xlink:title=" ">
<polygon fill="white" stroke="#bfbfbf" points="1968.11,-252.5 1968.11,-278.5 2090.11,-278.5 2090.11,-252.5 1968.11,-252.5"/>
<text text-anchor="middle" x="2029.11" y="-261.7" font-family="Source Sans Pro" font-size="16.00">assimp/scene.h</text>
</a>
</g>
</g>
<!-- Node1&#45;&gt;Node36 -->
<g id="edge50" class="edge">
<title>Node1&#45;&gt;Node36</title>
<path fill="none" stroke="midnightblue" d="M1478.16,-335.06C1595.6,-323.7 1784.86,-303.98 1958,-279.1"/>
<polygon fill="midnightblue" stroke="midnightblue" points="1958.67,-282.54 1968.07,-277.64 1957.67,-275.61 1958.67,-282.54"/>
</g>
<!-- Node37 -->
<g id="node37" class="node">
<title>Node37</title>
<g id="a_node37"><a xlink:title=" ">
<polygon fill="white" stroke="#bfbfbf" points="2108.11,-252.5 2108.11,-278.5 2272.11,-278.5 2272.11,-252.5 2108.11,-252.5"/>
<text text-anchor="middle" x="2190.11" y="-261.7" font-family="Source Sans Pro" font-size="16.00">assimp/postprocess.h</text>
</a>
</g>
</g>
<!-- Node1&#45;&gt;Node37 -->
<g id="edge51" class="edge">
<title>Node1&#45;&gt;Node37</title>
<path fill="none" stroke="midnightblue" d="M1478.13,-336.89C1620.3,-325.69 1872.14,-304.63 2097.75,-279.12"/>
<polygon fill="midnightblue" stroke="midnightblue" points="2098.25,-282.59 2107.8,-277.98 2097.47,-275.63 2098.25,-282.59"/>
</g>
<!-- Node38 -->
<g id="node38" class="node">
<title>Node38</title>
<g id="a_node38"><a xlink:title=" ">
<polygon fill="white" stroke="#bfbfbf" points="2290.61,-252.5 2290.61,-278.5 2469.61,-278.5 2469.61,-252.5 2290.61,-252.5"/>
<text text-anchor="middle" x="2380.11" y="-261.7" font-family="Source Sans Pro" font-size="16.00">glm/gtc/quaternion.hpp</text>
</a>
</g>
</g>
<!-- Node1&#45;&gt;Node38 -->
<g id="edge52" class="edge">
<title>Node1&#45;&gt;Node38</title>
<path fill="none" stroke="midnightblue" d="M1478.45,-339.21C1649.72,-329.28 1984.91,-308.15 2280.5,-279.02"/>
<polygon fill="midnightblue" stroke="midnightblue" points="2280.95,-282.49 2290.56,-278.02 2280.26,-275.53 2280.95,-282.49"/>
</g>
<!-- Node2&#45;&gt;Node3 -->
<g id="edge2" class="edge">
<title>Node2&#45;&gt;Node3</title>
<path fill="none" stroke="midnightblue" d="M82.4,-252.27C64.64,-236.94 40.05,-210.12 55.11,-189 103.55,-121.1 333.5,-94.14 480.01,-83.73"/>
<polygon fill="midnightblue" stroke="midnightblue" points="480.68,-87.19 490.41,-83.01 480.19,-80.21 480.68,-87.19"/>
</g>
<!-- Node2&#45;&gt;Node8 -->
<g id="edge7" class="edge">
<title>Node2&#45;&gt;Node8</title>
<path fill="none" stroke="midnightblue" d="M98.11,-252.45C98.11,-244.85 98.11,-234.79 98.11,-225.78"/>
<polygon fill="midnightblue" stroke="midnightblue" points="101.61,-225.53 98.11,-215.53 94.61,-225.53 101.61,-225.53"/>
</g>
<!-- Node2&#45;&gt;Node9 -->
<g id="edge8" class="edge">
<title>Node2&#45;&gt;Node9</title>
<path fill="none" stroke="midnightblue" d="M114.51,-252.45C126.45,-243.68 142.82,-231.64 156.35,-221.7"/>
<polygon fill="midnightblue" stroke="midnightblue" points="158.77,-224.27 164.75,-215.53 154.62,-218.63 158.77,-224.27"/>
</g>
<!-- Node4 -->
<g id="node4" class="node">
<title>Node4</title>
<g id="a_node4"><a xlink:href="vulkan_settings_8hpp.html" target="_top" xlink:title=" ">
<polygon fill="white" stroke="black" points="531.11,-0.5 531.11,-26.5 677.11,-26.5 677.11,-0.5 531.11,-0.5"/>
<text text-anchor="middle" x="604.11" y="-9.7" font-family="Source Sans Pro" font-size="16.00">vulkanSettings.hpp</text>
</a>
</g>
</g>
<!-- Node3&#45;&gt;Node4 -->
<g id="edge3" class="edge">
<title>Node3&#45;&gt;Node4</title>
<path fill="none" stroke="midnightblue" d="M604.11,-63.45C604.11,-55.85 604.11,-45.79 604.11,-36.78"/>
<polygon fill="midnightblue" stroke="midnightblue" points="607.61,-36.53 604.11,-26.53 600.61,-36.53 607.61,-36.53"/>
</g>
<!-- Node5 -->
<g id="node5" class="node">
<title>Node5</title>
<g id="a_node5"><a xlink:title=" ">
<polygon fill="white" stroke="#bfbfbf" points="695.61,-0.5 695.61,-26.5 808.61,-26.5 808.61,-0.5 695.61,-0.5"/>
<text text-anchor="middle" x="752.11" y="-9.7" font-family="Source Sans Pro" font-size="16.00">VkBootstrap.h</text>
</a>
</g>
</g>
<!-- Node3&#45;&gt;Node5 -->
<g id="edge4" class="edge">
<title>Node3&#45;&gt;Node5</title>
<path fill="none" stroke="midnightblue" d="M633.35,-63.45C656.26,-54.01 688.33,-40.79 713.37,-30.47"/>
<polygon fill="midnightblue" stroke="midnightblue" points="715.02,-33.57 722.94,-26.53 712.36,-27.1 715.02,-33.57"/>
</g>
<!-- Node6 -->
<g id="node6" class="node">
<title>Node6</title>
<g id="a_node6"><a xlink:title=" ">
<polygon fill="white" stroke="#bfbfbf" points="383.61,-0.5 383.61,-26.5 512.61,-26.5 512.61,-0.5 383.61,-0.5"/>
<text text-anchor="middle" x="448.11" y="-9.7" font-family="Source Sans Pro" font-size="16.00">vk_mem_alloc.h</text>
</a>
</g>
</g>
<!-- Node3&#45;&gt;Node6 -->
<g id="edge5" class="edge">
<title>Node3&#45;&gt;Node6</title>
<path fill="none" stroke="midnightblue" d="M573.29,-63.45C548.94,-53.92 514.75,-40.55 488.25,-30.19"/>
<polygon fill="midnightblue" stroke="midnightblue" points="489.46,-26.91 478.87,-26.53 486.91,-33.43 489.46,-26.91"/>
</g>
<!-- Node3&#45;&gt;Node7 -->
<g id="edge6" class="edge">
<title>Node3&#45;&gt;Node7</title>
<path fill="none" stroke="midnightblue" d="M717.64,-69.73C976.55,-56.58 1600.95,-24.87 1765.05,-16.53"/>
<polygon fill="midnightblue" stroke="midnightblue" points="1765.38,-20.02 1775.19,-16.02 1765.02,-13.03 1765.38,-20.02"/>
</g>
<!-- Node10&#45;&gt;Node11 -->
<g id="edge10" class="edge">
<title>Node10&#45;&gt;Node11</title>
<path fill="none" stroke="midnightblue" d="M805.34,-252.45C815.5,-243.84 829.36,-232.1 840.96,-222.27"/>
<polygon fill="midnightblue" stroke="midnightblue" points="843.55,-224.66 848.92,-215.53 839.03,-219.32 843.55,-224.66"/>
</g>
<!-- Node13 -->
<g id="node13" class="node">
<title>Node13</title>
<g id="a_node13"><a xlink:title=" ">
<polygon fill="white" stroke="#bfbfbf" points="468.11,-189.5 468.11,-215.5 690.11,-215.5 690.11,-189.5 468.11,-189.5"/>
<text text-anchor="middle" x="579.11" y="-198.7" font-family="Source Sans Pro" font-size="16.00">glm/gtc/matrix_transform.hpp</text>
</a>
</g>
</g>
<!-- Node10&#45;&gt;Node13 -->
<g id="edge12" class="edge">
<title>Node10&#45;&gt;Node13</title>
<path fill="none" stroke="midnightblue" d="M749.23,-252.45C715.26,-242.67 667.21,-228.85 630.84,-218.38"/>
<polygon fill="midnightblue" stroke="midnightblue" points="631.49,-214.93 620.91,-215.53 629.55,-221.66 631.49,-214.93"/>
</g>
<!-- Node14 -->
<g id="node14" class="node">
<title>Node14</title>
<g id="a_node14"><a xlink:title=" ">
<polygon fill="white" stroke="#bfbfbf" points="688.61,-126.5 688.61,-152.5 747.61,-152.5 747.61,-126.5 688.61,-126.5"/>
<text text-anchor="middle" x="718.11" y="-135.7" font-family="Source Sans Pro" font-size="16.00">cmath</text>
</a>
</g>
</g>
<!-- Node10&#45;&gt;Node14 -->
<g id="edge13" class="edge">
<title>Node10&#45;&gt;Node14</title>
<path fill="none" stroke="midnightblue" d="M772.74,-252.39C760.87,-243.63 746.03,-230.78 737.11,-216 727.24,-199.64 722.48,-178.32 720.19,-162.51"/>
<polygon fill="midnightblue" stroke="midnightblue" points="723.67,-162.08 718.97,-152.58 716.72,-162.93 723.67,-162.08"/>
</g>
<!-- Node12 -->
<g id="node12" class="node">
<title>Node12</title>
<g id="a_node12"><a xlink:title=" ">
<polygon fill="white" stroke="#bfbfbf" points="998.11,-126.5 998.11,-152.5 1102.11,-152.5 1102.11,-126.5 998.11,-126.5"/>
<text text-anchor="middle" x="1050.11" y="-135.7" font-family="Source Sans Pro" font-size="16.00">glm/glm.hpp</text>
</a>
</g>
</g>
<!-- Node11&#45;&gt;Node12 -->
<g id="edge11" class="edge">
<title>Node11&#45;&gt;Node12</title>
<path fill="none" stroke="midnightblue" d="M900.06,-189.45C929.77,-179.76 971.68,-166.08 1003.66,-155.65"/>
<polygon fill="midnightblue" stroke="midnightblue" points="1004.82,-158.96 1013.25,-152.53 1002.65,-152.3 1004.82,-158.96"/>
</g>
<!-- Node15&#45;&gt;Node12 -->
<g id="edge16" class="edge">
<title>Node15&#45;&gt;Node12</title>
<path fill="none" stroke="midnightblue" d="M1332.16,-252.44C1348.98,-236.58 1372.9,-208.43 1356.11,-189 1321.97,-149.47 1180.73,-161.13 1112.6,-152.9"/>
<polygon fill="midnightblue" stroke="midnightblue" points="1112.72,-149.38 1102.32,-151.4 1111.71,-156.31 1112.72,-149.38"/>
</g>
<!-- Node16 -->
<g id="node16" class="node">
<title>Node16</title>
<g id="a_node16"><a xlink:title=" ">
<polygon fill="white" stroke="#bfbfbf" points="997.61,-189.5 997.61,-215.5 1122.61,-215.5 1122.61,-189.5 997.61,-189.5"/>
<text text-anchor="middle" x="1060.11" y="-198.7" font-family="Source Sans Pro" font-size="16.00">vulkan/vulkan.h</text>
</a>
</g>
</g>
<!-- Node15&#45;&gt;Node16 -->
<g id="edge15" class="edge">
<title>Node15&#45;&gt;Node16</title>
<path fill="none" stroke="midnightblue" d="M1267.14,-252.45C1225.09,-242.51 1165.32,-228.37 1120.81,-217.85"/>
<polygon fill="midnightblue" stroke="midnightblue" points="1121.52,-214.42 1110.98,-215.53 1119.91,-221.23 1121.52,-214.42"/>
</g>
<!-- Node17 -->
<g id="node17" class="node">
<title>Node17</title>
<g id="a_node17"><a xlink:title=" ">
<polygon fill="white" stroke="#bfbfbf" points="1140.61,-189.5 1140.61,-215.5 1277.61,-215.5 1277.61,-189.5 1140.61,-189.5"/>
<text text-anchor="middle" x="1209.11" y="-198.7" font-family="Source Sans Pro" font-size="16.00">glm/gtx/hash.hpp</text>
</a>
</g>
</g>
<!-- Node15&#45;&gt;Node17 -->
<g id="edge17" class="edge">
<title>Node15&#45;&gt;Node17</title>
<path fill="none" stroke="midnightblue" d="M1296.58,-252.45C1280.31,-243.34 1257.75,-230.72 1239.62,-220.57"/>
<polygon fill="midnightblue" stroke="midnightblue" points="1241.04,-217.36 1230.6,-215.53 1237.62,-223.46 1241.04,-217.36"/>
</g>
<!-- Node18 -->
<g id="node18" class="node">
<title>Node18</title>
<g id="a_node18"><a xlink:title=" ">
<polygon fill="white" stroke="#bfbfbf" points="1295.61,-189.5 1295.61,-215.5 1346.61,-215.5 1346.61,-189.5 1295.61,-189.5"/>
<text text-anchor="middle" x="1321.11" y="-198.7" font-family="Source Sans Pro" font-size="16.00">array</text>
</a>
</g>
</g>
<!-- Node15&#45;&gt;Node18 -->
<g id="edge18" class="edge">
<title>Node15&#45;&gt;Node18</title>
<path fill="none" stroke="midnightblue" d="M1318.71,-252.45C1319.08,-244.85 1319.58,-234.79 1320.02,-225.78"/>
<polygon fill="midnightblue" stroke="midnightblue" points="1323.53,-225.69 1320.52,-215.53 1316.54,-225.34 1323.53,-225.69"/>
</g>
<!-- Node19&#45;&gt;Node8 -->
<g id="edge28" class="edge">
<title>Node19&#45;&gt;Node8</title>
<path fill="none" stroke="midnightblue" d="M283.26,-252.42C246.71,-243.45 195.64,-230.67 142.33,-216.28"/>
<polygon fill="midnightblue" stroke="midnightblue" points="142.92,-212.81 132.35,-213.57 141.09,-219.57 142.92,-212.81"/>
</g>
<!-- Node19&#45;&gt;Node9 -->
<g id="edge29" class="edge">
<title>Node19&#45;&gt;Node9</title>
<path fill="none" stroke="midnightblue" d="M303.08,-252.45C279.46,-242.97 246.33,-229.67 220.56,-219.33"/>
<polygon fill="midnightblue" stroke="midnightblue" points="221.67,-216 211.08,-215.53 219.06,-222.5 221.67,-216"/>
</g>
<!-- Node20 -->
<g id="node20" class="node">
<title>Node20</title>
<g id="a_node20"><a xlink:href="vulkan_image_8hpp.html" target="_top" xlink:title=" ">
<polygon fill="white" stroke="black" points="230.11,-189.5 230.11,-215.5 364.11,-215.5 364.11,-189.5 230.11,-189.5"/>
<text text-anchor="middle" x="297.11" y="-198.7" font-family="Source Sans Pro" font-size="16.00">vulkanImage.hpp</text>
</a>
</g>
</g>
<!-- Node19&#45;&gt;Node20 -->
<g id="edge20" class="edge">
<title>Node19&#45;&gt;Node20</title>
<path fill="none" stroke="midnightblue" d="M326,-252.45C321.27,-244.43 314.93,-233.68 309.39,-224.3"/>
<polygon fill="midnightblue" stroke="midnightblue" points="312.31,-222.36 304.21,-215.53 306.28,-225.92 312.31,-222.36"/>
</g>
<!-- Node19&#45;&gt;Node25 -->
<g id="edge27" class="edge">
<title>Node19&#45;&gt;Node25</title>
<path fill="none" stroke="midnightblue" d="M349.51,-252.45C361.45,-243.68 377.82,-231.64 391.35,-221.7"/>
<polygon fill="midnightblue" stroke="midnightblue" points="393.77,-224.27 399.75,-215.53 389.62,-218.63 393.77,-224.27"/>
</g>
<!-- Node20&#45;&gt;Node14 -->
<g id="edge26" class="edge">
<title>Node20&#45;&gt;Node14</title>
<path fill="none" stroke="midnightblue" d="M364.23,-190.29C367.23,-189.84 370.2,-189.41 373.11,-189 505.53,-170.33 543.52,-181.48 678.57,-152.79"/>
<polygon fill="midnightblue" stroke="midnightblue" points="679.43,-156.19 688.46,-150.65 677.95,-149.34 679.43,-156.19"/>
</g>
<!-- Node21 -->
<g id="node21" class="node">
<title>Node21</title>
<g id="a_node21"><a xlink:href="vulkan_buffer_8hpp.html" target="_top" xlink:title=" ">
<polygon fill="white" stroke="black" points="537.61,-126.5 537.61,-152.5 670.61,-152.5 670.61,-126.5 537.61,-126.5"/>
<text text-anchor="middle" x="604.11" y="-135.7" font-family="Source Sans Pro" font-size="16.00">vulkanBuffer.hpp</text>
</a>
</g>
</g>
<!-- Node20&#45;&gt;Node21 -->
<g id="edge21" class="edge">
<title>Node20&#45;&gt;Node21</title>
<path fill="none" stroke="midnightblue" d="M357.77,-189.45C408.33,-179.4 480.42,-165.08 533.56,-154.52"/>
<polygon fill="midnightblue" stroke="midnightblue" points="534.46,-157.91 543.59,-152.53 533.1,-151.04 534.46,-157.91"/>
</g>
<!-- Node24 -->
<g id="node24" class="node">
<title>Node24</title>
<g id="a_node24"><a xlink:title=" ">
<polygon fill="white" stroke="#bfbfbf" points="247.11,-126.5 247.11,-152.5 347.11,-152.5 347.11,-126.5 247.11,-126.5"/>
<text text-anchor="middle" x="297.11" y="-135.7" font-family="Source Sans Pro" font-size="16.00">stb_image.h</text>
</a>
</g>
</g>
<!-- Node20&#45;&gt;Node24 -->
<g id="edge25" class="edge">
<title>Node20&#45;&gt;Node24</title>
<path fill="none" stroke="midnightblue" d="M297.11,-189.45C297.11,-181.85 297.11,-171.79 297.11,-162.78"/>
<polygon fill="midnightblue" stroke="midnightblue" points="300.61,-162.53 297.11,-152.53 293.61,-162.53 300.61,-162.53"/>
</g>
<!-- Node21&#45;&gt;Node3 -->
<g id="edge22" class="edge">
<title>Node21&#45;&gt;Node3</title>
<path fill="none" stroke="midnightblue" d="M604.11,-126.45C604.11,-118.85 604.11,-108.79 604.11,-99.78"/>
<polygon fill="midnightblue" stroke="midnightblue" points="607.61,-99.53 604.11,-89.53 600.61,-99.53 607.61,-99.53"/>
</g>
<!-- Node22 -->
<g id="node22" class="node">
<title>Node22</title>
<g id="a_node22"><a xlink:title=" ">
<polygon fill="white" stroke="#bfbfbf" points="1468.11,-63.5 1468.11,-89.5 1528.11,-89.5 1528.11,-63.5 1468.11,-63.5"/>
<text text-anchor="middle" x="1498.11" y="-72.7" font-family="Source Sans Pro" font-size="16.00">deque</text>
</a>
</g>
</g>
<!-- Node21&#45;&gt;Node22 -->
<g id="edge23" class="edge">
<title>Node21&#45;&gt;Node22</title>
<path fill="none" stroke="midnightblue" d="M670.72,-127.02C673.55,-126.65 676.36,-126.31 679.11,-126 976.92,-92.46 1338.42,-81.29 1457.76,-78.38"/>
<polygon fill="midnightblue" stroke="midnightblue" points="1457.98,-81.87 1467.9,-78.13 1457.82,-74.87 1457.98,-81.87"/>
</g>
<!-- Node23 -->
<g id="node23" class="node">
<title>Node23</title>
<g id="a_node23"><a xlink:title=" ">
<polygon fill="white" stroke="#bfbfbf" points="946.11,-63.5 946.11,-89.5 1032.11,-89.5 1032.11,-63.5 946.11,-63.5"/>
<text text-anchor="middle" x="989.11" y="-72.7" font-family="Source Sans Pro" font-size="16.00">functional</text>
</a>
</g>
</g>
<!-- Node21&#45;&gt;Node23 -->
<g id="edge24" class="edge">
<title>Node21&#45;&gt;Node23</title>
<path fill="none" stroke="midnightblue" d="M670.77,-127.36C673.59,-126.9 676.38,-126.44 679.11,-126 769.28,-111.43 874.31,-95.14 936.06,-85.64"/>
<polygon fill="midnightblue" stroke="midnightblue" points="936.61,-89.09 945.96,-84.11 935.55,-82.17 936.61,-89.09"/>
</g>
<!-- Node26&#45;&gt;Node27 -->
<g id="edge31" class="edge">
<title>Node26&#45;&gt;Node27</title>
<path fill="none" stroke="midnightblue" d="M1474.23,-189.45C1426.07,-179.42 1357.45,-165.14 1306.77,-154.58"/>
<polygon fill="midnightblue" stroke="midnightblue" points="1307.39,-151.14 1296.88,-152.53 1305.96,-157.99 1307.39,-151.14"/>
</g>
<!-- Node28 -->
<g id="node28" class="node">
<title>Node28</title>
<g id="a_node28"><a xlink:title=" ">
<polygon fill="white" stroke="#bfbfbf" points="1376.11,-126.5 1376.11,-152.5 1440.11,-152.5 1440.11,-126.5 1376.11,-126.5"/>
<text text-anchor="middle" x="1408.11" y="-135.7" font-family="Source Sans Pro" font-size="16.00">variant</text>
</a>
</g>
</g>
<!-- Node26&#45;&gt;Node28 -->
<g id="edge32" class="edge">
<title>Node26&#45;&gt;Node28</title>
<path fill="none" stroke="midnightblue" d="M1507.62,-189.45C1488.76,-180.17 1462.5,-167.26 1441.69,-157.02"/>
<polygon fill="midnightblue" stroke="midnightblue" points="1443.08,-153.8 1432.56,-152.53 1439.99,-160.08 1443.08,-153.8"/>
</g>
<!-- Node29 -->
<g id="node29" class="node">
<title>Node29</title>
<g id="a_node29"><a xlink:title=" ">
<polygon fill="white" stroke="#bfbfbf" points="1458.61,-126.5 1458.61,-152.5 1531.61,-152.5 1531.61,-126.5 1458.61,-126.5"/>
<text text-anchor="middle" x="1495.11" y="-135.7" font-family="Source Sans Pro" font-size="16.00">optional</text>
</a>
</g>
</g>
<!-- Node26&#45;&gt;Node29 -->
<g id="edge33" class="edge">
<title>Node26&#45;&gt;Node29</title>
<path fill="none" stroke="midnightblue" d="M1524.8,-189.45C1519.94,-181.43 1513.42,-170.68 1507.73,-161.3"/>
<polygon fill="midnightblue" stroke="midnightblue" points="1510.59,-159.26 1502.41,-152.53 1504.6,-162.89 1510.59,-159.26"/>
</g>
<!-- Node30 -->
<g id="node30" class="node">
<title>Node30</title>
<g id="a_node30"><a xlink:title=" ">
<polygon fill="white" stroke="#bfbfbf" points="1549.61,-126.5 1549.61,-152.5 1622.61,-152.5 1622.61,-126.5 1549.61,-126.5"/>
<text text-anchor="middle" x="1586.11" y="-135.7" font-family="Source Sans Pro" font-size="16.00">numeric</text>
</a>
</g>
</g>
<!-- Node26&#45;&gt;Node30 -->
<g id="edge34" class="edge">
<title>Node26&#45;&gt;Node30</title>
<path fill="none" stroke="midnightblue" d="M1542.78,-189.45C1550.18,-181.09 1560.19,-169.78 1568.73,-160.13"/>
<polygon fill="midnightblue" stroke="midnightblue" points="1571.46,-162.33 1575.47,-152.53 1566.22,-157.69 1571.46,-162.33"/>
</g>
<!-- Node31&#45;&gt;Node3 -->
<g id="edge36" class="edge">
<title>Node31&#45;&gt;Node3</title>
<path fill="none" stroke="midnightblue" d="M1628.31,-252.12C1640.82,-225.15 1665.23,-160.71 1632.11,-126 1624.4,-117.91 1000.2,-92.82 728.34,-82.26"/>
<polygon fill="midnightblue" stroke="midnightblue" points="728.16,-78.75 718.03,-81.86 727.89,-85.74 728.16,-78.75"/>
</g>
<!-- Node31&#45;&gt;Node22 -->
<g id="edge38" class="edge">
<title>Node31&#45;&gt;Node22</title>
<path fill="none" stroke="midnightblue" d="M1658.19,-252.47C1675.01,-244.84 1693.42,-233.11 1703.11,-216 1722.84,-181.2 1727.93,-157.37 1703.11,-126 1683.01,-100.59 1592.53,-87.12 1538.72,-81.23"/>
<polygon fill="midnightblue" stroke="midnightblue" points="1538.8,-77.72 1528.48,-80.16 1538.06,-84.68 1538.8,-77.72"/>
</g>
<!-- Node31&#45;&gt;Node23 -->
<g id="edge39" class="edge">
<title>Node31&#45;&gt;Node23</title>
<path fill="none" stroke="midnightblue" d="M1628.23,-252.19C1640.6,-225.35 1664.74,-161.18 1632.11,-126 1592.39,-83.16 1189.94,-77.94 1042.7,-77.47"/>
<polygon fill="midnightblue" stroke="midnightblue" points="1042.56,-73.97 1032.55,-77.44 1042.54,-80.97 1042.56,-73.97"/>
</g>
<!-- Node31&#45;&gt;Node26 -->
<g id="edge37" class="edge">
<title>Node31&#45;&gt;Node26</title>
<path fill="none" stroke="midnightblue" d="M1604.33,-252.45C1591.27,-243.59 1573.3,-231.41 1558.55,-221.42"/>
<polygon fill="midnightblue" stroke="midnightblue" points="1560.1,-218.24 1549.86,-215.53 1556.17,-224.03 1560.1,-218.24"/>
</g>
<!-- Node32&#45;&gt;Node7 -->
<g id="edge46" class="edge">
<title>Node32&#45;&gt;Node7</title>
<path fill="none" stroke="midnightblue" d="M1909.56,-189.2C1918.04,-163.46 1933.5,-103.01 1908.11,-63 1894.19,-41.05 1867.38,-28.85 1844.6,-22.18"/>
<polygon fill="midnightblue" stroke="midnightblue" points="1845.38,-18.76 1834.81,-19.57 1843.57,-25.53 1845.38,-18.76"/>
</g>
<!-- Node32&#45;&gt;Node12 -->
<g id="edge44" class="edge">
<title>Node32&#45;&gt;Node12</title>
<path fill="none" stroke="midnightblue" d="M1792.93,-196.61C1610.6,-188.33 1256.64,-170.84 1112.3,-152.98"/>
<polygon fill="midnightblue" stroke="midnightblue" points="1112.64,-149.49 1102.28,-151.69 1111.75,-156.44 1112.64,-149.49"/>
</g>
<!-- Node33 -->
<g id="node33" class="node">
<title>Node33</title>
<g id="a_node33"><a xlink:title=" ">
<polygon fill="white" stroke="#bfbfbf" points="1805.61,-126.5 1805.61,-152.5 1860.61,-152.5 1860.61,-126.5 1805.61,-126.5"/>
<text text-anchor="middle" x="1833.11" y="-135.7" font-family="Source Sans Pro" font-size="16.00">string</text>
</a>
</g>
</g>
<!-- Node32&#45;&gt;Node33 -->
<g id="edge45" class="edge">
<title>Node32&#45;&gt;Node33</title>
<path fill="none" stroke="midnightblue" d="M1890.89,-189.45C1880.73,-180.84 1866.87,-169.1 1855.27,-159.27"/>
<polygon fill="midnightblue" stroke="midnightblue" points="1857.2,-156.32 1847.31,-152.53 1852.68,-161.66 1857.2,-156.32"/>
</g>
<!-- Node34 -->
<g id="node34" class="node">
<title>Node34</title>
<g id="a_node34"><a xlink:href="_i_e_aspect_8hpp.html" target="_top" xlink:title=" ">
<polygon fill="white" stroke="black" points="1793.11,-63.5 1793.11,-89.5 1899.11,-89.5 1899.11,-63.5 1793.11,-63.5"/>
<text text-anchor="middle" x="1846.11" y="-72.7" font-family="Source Sans Pro" font-size="16.00">IEAspect.hpp</text>
</a>
</g>
</g>
<!-- Node32&#45;&gt;Node34 -->
<g id="edge47" class="edge">
<title>Node32&#45;&gt;Node34</title>
<path fill="none" stroke="midnightblue" d="M1899.63,-189.43C1892.82,-174.48 1880.79,-148.28 1870.11,-126 1865.85,-117.11 1861.05,-107.36 1856.87,-98.95"/>
<polygon fill="midnightblue" stroke="midnightblue" points="1859.91,-97.2 1852.32,-89.82 1853.65,-100.33 1859.91,-97.2"/>
</g>
<!-- Node34&#45;&gt;Node7 -->
<g id="edge48" class="edge">
<title>Node34&#45;&gt;Node7</title>
<path fill="none" stroke="midnightblue" d="M1838.01,-63.45C1832.57,-55.34 1825.25,-44.46 1818.9,-35.01"/>
<polygon fill="midnightblue" stroke="midnightblue" points="1821.68,-32.87 1813.2,-26.53 1815.87,-36.78 1821.68,-32.87"/>
</g>
</g>
</svg>
