<?xml version="1.0" encoding="UTF-8" standalone="no"?>
<!DOCTYPE svg PUBLIC "-//W3C//DTD SVG 1.1//EN"
 "http://www.w3.org/Graphics/SVG/1.1/DTD/svg11.dtd">
<!-- Generated by graphviz version 2.43.0 (0)
 -->
<!-- Title: Illumination&#45;Engine/src/GraphicsModule/Vulkan/vulkanCommandBuffer.hpp Pages: 1 -->
<svg width="268pt" height="170pt"
 viewBox="0.00 0.00 268.00 170.00" xmlns="http://www.w3.org/2000/svg" xmlns:xlink="http://www.w3.org/1999/xlink">
<g id="graph0" class="graph" transform="scale(1 1) rotate(0) translate(4 166)">
<title>Illumination&#45;Engine/src/GraphicsModule/Vulkan/vulkanCommandBuffer.hpp</title>
<polygon fill="white" stroke="transparent" points="-4,4 -4,-166 264,-166 264,4 -4,4"/>
<!-- Node1 -->
<g id="node1" class="node">
<title>Node1</title>
<g id="a_node1"><a xlink:title=" ">
<polygon fill="#bfbfbf" stroke="black" points="0,-99.5 0,-161.5 260,-161.5 260,-99.5 0,-99.5"/>
<text text-anchor="start" x="8" y="-144.7" font-family="Source Sans Pro" font-size="16.00">Illumination&#45;Engine</text>
<text text-anchor="start" x="8" y="-126.7" font-family="Source Sans Pro" font-size="16.00">/src/GraphicsModule</text>
<text text-anchor="middle" x="130" y="-108.7" font-family="Source Sans Pro" font-size="16.00">/Vulkan/vulkanCommandBuffer.hpp</text>
</a>
</g>
</g>
<!-- Node2 -->
<g id="node2" class="node">
<title>Node2</title>
<g id="a_node2"><a xlink:href="vulkan_render_engine_8hpp.html" target="_top" xlink:title=" ">
<polygon fill="white" stroke="black" points="8.5,-0.5 8.5,-62.5 251.5,-62.5 251.5,-0.5 8.5,-0.5"/>
<text text-anchor="start" x="16.5" y="-45.7" font-family="Source Sans Pro" font-size="16.00">Illumination&#45;Engine</text>
<text text-anchor="start" x="16.5" y="-27.7" font-family="Source Sans Pro" font-size="16.00">/src/GraphicsModule</text>
<text text-anchor="middle" x="130" y="-9.7" font-family="Source Sans Pro" font-size="16.00">/Vulkan/vulkanRenderEngine.hpp</text>
</a>
</g>
</g>
<!-- Node1&#45;&gt;Node2 -->
<g id="edge1" class="edge">
<title>Node1&#45;&gt;Node2</title>
<path fill="none" stroke="midnightblue" d="M130,-89.17C130,-80.29 130,-71.03 130,-62.64"/>
<polygon fill="midnightblue" stroke="midnightblue" points="126.5,-89.34 130,-99.34 133.5,-89.34 126.5,-89.34"/>
</g>
</g>
</svg>
