<?xml version="1.0" encoding="UTF-8" standalone="no"?>
<!DOCTYPE svg PUBLIC "-//W3C//DTD SVG 1.1//EN"
 "http://www.w3.org/Graphics/SVG/1.1/DTD/svg11.dtd">
<!-- Generated by graphviz version 2.43.0 (0)
 -->
<!-- Title: Illumination&#45;Engine/src/GraphicsModule/Vulkan/vulkanImage.hpp Pages: 1 -->
<svg width="558pt" height="368pt"
 viewBox="0.00 0.00 558.00 368.00" xmlns="http://www.w3.org/2000/svg" xmlns:xlink="http://www.w3.org/1999/xlink">
<g id="graph0" class="graph" transform="scale(1 1) rotate(0) translate(4 364)">
<title>Illumination&#45;Engine/src/GraphicsModule/Vulkan/vulkanImage.hpp</title>
<polygon fill="white" stroke="transparent" points="-4,4 -4,-364 554,-364 554,4 -4,4"/>
<!-- Node1 -->
<g id="node1" class="node">
<title>Node1</title>
<g id="a_node1"><a xlink:title=" ">
<polygon fill="#bfbfbf" stroke="black" points="181,-297.5 181,-359.5 371,-359.5 371,-297.5 181,-297.5"/>
<text text-anchor="start" x="189" y="-342.7" font-family="Source Sans Pro" font-size="16.00">Illumination&#45;Engine</text>
<text text-anchor="start" x="189" y="-324.7" font-family="Source Sans Pro" font-size="16.00">/src/GraphicsModule</text>
<text text-anchor="middle" x="276" y="-306.7" font-family="Source Sans Pro" font-size="16.00">/Vulkan/vulkanImage.hpp</text>
</a>
</g>
</g>
<!-- Node2 -->
<g id="node2" class="node">
<title>Node2</title>
<g id="a_node2"><a xlink:href="vulkan_render_pass_8hpp.html" target="_top" xlink:title=" ">
<polygon fill="white" stroke="black" points="47.5,-198.5 47.5,-260.5 274.5,-260.5 274.5,-198.5 47.5,-198.5"/>
<text text-anchor="start" x="55.5" y="-243.7" font-family="Source Sans Pro" font-size="16.00">Illumination&#45;Engine</text>
<text text-anchor="start" x="55.5" y="-225.7" font-family="Source Sans Pro" font-size="16.00">/src/GraphicsModule</text>
<text text-anchor="middle" x="161" y="-207.7" font-family="Source Sans Pro" font-size="16.00">/Vulkan/vulkanRenderPass.hpp</text>
</a>
</g>
</g>
<!-- Node1&#45;&gt;Node2 -->
<g id="edge1" class="edge">
<title>Node1&#45;&gt;Node2</title>
<path fill="none" stroke="midnightblue" d="M232.27,-290.62C220.53,-280.72 207.98,-270.13 196.73,-260.64"/>
<polygon fill="midnightblue" stroke="midnightblue" points="230.34,-293.57 240.24,-297.34 234.86,-288.22 230.34,-293.57"/>
</g>
<!-- Node5 -->
<g id="node5" class="node">
<title>Node5</title>
<g id="a_node5"><a xlink:href="vulkan_texture_8hpp.html" target="_top" xlink:title=" ">
<polygon fill="white" stroke="black" points="292.5,-198.5 292.5,-260.5 489.5,-260.5 489.5,-198.5 292.5,-198.5"/>
<text text-anchor="start" x="300.5" y="-243.7" font-family="Source Sans Pro" font-size="16.00">Illumination&#45;Engine</text>
<text text-anchor="start" x="300.5" y="-225.7" font-family="Source Sans Pro" font-size="16.00">/src/GraphicsModule</text>
<text text-anchor="middle" x="391" y="-207.7" font-family="Source Sans Pro" font-size="16.00">/Vulkan/vulkanTexture.hpp</text>
</a>
</g>
</g>
<!-- Node1&#45;&gt;Node5 -->
<g id="edge5" class="edge">
<title>Node1&#45;&gt;Node5</title>
<path fill="none" stroke="midnightblue" d="M319.73,-290.62C331.47,-280.72 344.02,-270.13 355.27,-260.64"/>
<polygon fill="midnightblue" stroke="midnightblue" points="317.14,-288.22 311.76,-297.34 321.66,-293.57 317.14,-288.22"/>
</g>
<!-- Node3 -->
<g id="node3" class="node">
<title>Node3</title>
<g id="a_node3"><a xlink:href="vulkan_framebuffer_8hpp.html" target="_top" xlink:title=" ">
<polygon fill="white" stroke="black" points="0,-99.5 0,-161.5 230,-161.5 230,-99.5 0,-99.5"/>
<text text-anchor="start" x="8" y="-144.7" font-family="Source Sans Pro" font-size="16.00">Illumination&#45;Engine</text>
<text text-anchor="start" x="8" y="-126.7" font-family="Source Sans Pro" font-size="16.00">/src/GraphicsModule</text>
<text text-anchor="middle" x="115" y="-108.7" font-family="Source Sans Pro" font-size="16.00">/Vulkan/vulkanFramebuffer.hpp</text>
</a>
</g>
</g>
<!-- Node2&#45;&gt;Node3 -->
<g id="edge2" class="edge">
<title>Node2&#45;&gt;Node3</title>
<path fill="none" stroke="midnightblue" d="M142.28,-189.03C137.95,-179.89 133.4,-170.31 129.29,-161.64"/>
<polygon fill="midnightblue" stroke="midnightblue" points="139.25,-190.8 146.7,-198.34 145.57,-187.81 139.25,-190.8"/>
</g>
<!-- Node4 -->
<g id="node4" class="node">
<title>Node4</title>
<g id="a_node4"><a xlink:href="vulkan_render_engine_8hpp.html" target="_top" xlink:title=" ">
<polygon fill="white" stroke="black" points="155.5,-0.5 155.5,-62.5 398.5,-62.5 398.5,-0.5 155.5,-0.5"/>
<text text-anchor="start" x="163.5" y="-45.7" font-family="Source Sans Pro" font-size="16.00">Illumination&#45;Engine</text>
<text text-anchor="start" x="163.5" y="-27.7" font-family="Source Sans Pro" font-size="16.00">/src/GraphicsModule</text>
<text text-anchor="middle" x="277" y="-9.7" font-family="Source Sans Pro" font-size="16.00">/Vulkan/vulkanRenderEngine.hpp</text>
</a>
</g>
</g>
<!-- Node2&#45;&gt;Node4 -->
<g id="edge4" class="edge">
<title>Node2&#45;&gt;Node4</title>
<path fill="none" stroke="midnightblue" d="M213.24,-191.41C222.86,-182.66 232.05,-172.72 239,-162 258.82,-131.43 268.58,-90.21 273.19,-62.57"/>
<polygon fill="midnightblue" stroke="midnightblue" points="210.72,-188.97 205.46,-198.17 215.31,-194.25 210.72,-188.97"/>
</g>
<!-- Node3&#45;&gt;Node4 -->
<g id="edge3" class="edge">
<title>Node3&#45;&gt;Node4</title>
<path fill="none" stroke="midnightblue" d="M174.22,-94.04C191.43,-83.74 210.05,-72.58 226.66,-62.64"/>
<polygon fill="midnightblue" stroke="midnightblue" points="172.15,-91.2 165.37,-99.34 175.75,-97.21 172.15,-91.2"/>
</g>
<!-- Node5&#45;&gt;Node4 -->
<g id="edge6" class="edge">
<title>Node5&#45;&gt;Node4</title>
<path fill="none" stroke="midnightblue" d="M340.42,-191.52C330.93,-182.71 321.85,-172.72 315,-162 295.38,-131.3 285.57,-90.12 280.9,-62.51"/>
<polygon fill="midnightblue" stroke="midnightblue" points="338.28,-194.3 348.09,-198.33 342.93,-189.07 338.28,-194.3"/>
</g>
<!-- Node6 -->
<g id="node6" class="node">
<title>Node6</title>
<g id="a_node6"><a xlink:href="vulkan_renderable_8hpp.html" target="_top" xlink:title=" ">
<polygon fill="white" stroke="black" points="324,-99.5 324,-161.5 550,-161.5 550,-99.5 324,-99.5"/>
<text text-anchor="start" x="332" y="-144.7" font-family="Source Sans Pro" font-size="16.00">Illumination&#45;Engine</text>
<text text-anchor="start" x="332" y="-126.7" font-family="Source Sans Pro" font-size="16.00">/src/GraphicsModule</text>
<text text-anchor="middle" x="437" y="-108.7" font-family="Source Sans Pro" font-size="16.00">/Vulkan/vulkanRenderable.hpp</text>
</a>
</g>
</g>
<!-- Node5&#45;&gt;Node6 -->
<g id="edge7" class="edge">
<title>Node5&#45;&gt;Node6</title>
<path fill="none" stroke="midnightblue" d="M409.72,-189.03C414.05,-179.89 418.6,-170.31 422.71,-161.64"/>
<polygon fill="midnightblue" stroke="midnightblue" points="406.43,-187.81 405.3,-198.34 412.75,-190.8 406.43,-187.81"/>
</g>
<!-- Node6&#45;&gt;Node4 -->
<g id="edge8" class="edge">
<title>Node6&#45;&gt;Node4</title>
<path fill="none" stroke="midnightblue" d="M378.51,-94.04C361.51,-83.74 343.12,-72.58 326.72,-62.64"/>
<polygon fill="midnightblue" stroke="midnightblue" points="376.89,-97.15 387.25,-99.34 380.52,-91.16 376.89,-97.15"/>
</g>
</g>
</svg>
