<?xml version="1.0" encoding="UTF-8" standalone="no"?>
<!DOCTYPE svg PUBLIC "-//W3C//DTD SVG 1.1//EN"
 "http://www.w3.org/Graphics/SVG/1.1/DTD/svg11.dtd">
<!-- Generated by graphviz version 2.43.0 (0)
 -->
<!-- Title: Illumination&#45;Engine/src/GraphicsModule/Vulkan/vulkanImage.hpp Pages: 1 -->
<svg width="723pt" height="260pt"
 viewBox="0.00 0.00 722.50 260.00" xmlns="http://www.w3.org/2000/svg" xmlns:xlink="http://www.w3.org/1999/xlink">
<g id="graph0" class="graph" transform="scale(1 1) rotate(0) translate(4 256)">
<title>Illumination&#45;Engine/src/GraphicsModule/Vulkan/vulkanImage.hpp</title>
<polygon fill="white" stroke="transparent" points="-4,4 -4,-256 718.5,-256 718.5,4 -4,4"/>
<!-- Node1 -->
<g id="node1" class="node">
<title>Node1</title>
<g id="a_node1"><a xlink:title=" ">
<polygon fill="#bfbfbf" stroke="black" points="492,-189.5 492,-251.5 682,-251.5 682,-189.5 492,-189.5"/>
<text text-anchor="start" x="500" y="-234.7" font-family="Source Sans Pro" font-size="16.00">Illumination&#45;Engine</text>
<text text-anchor="start" x="500" y="-216.7" font-family="Source Sans Pro" font-size="16.00">/src/GraphicsModule</text>
<text text-anchor="middle" x="587" y="-198.7" font-family="Source Sans Pro" font-size="16.00">/Vulkan/vulkanImage.hpp</text>
</a>
</g>
</g>
<!-- Node2 -->
<g id="node2" class="node">
<title>Node2</title>
<g id="a_node2"><a xlink:href="vulkan_buffer_8hpp.html" target="_top" xlink:title=" ">
<polygon fill="white" stroke="black" points="385.5,-126.5 385.5,-152.5 518.5,-152.5 518.5,-126.5 385.5,-126.5"/>
<text text-anchor="middle" x="452" y="-135.7" font-family="Source Sans Pro" font-size="16.00">vulkanBuffer.hpp</text>
</a>
</g>
</g>
<!-- Node1&#45;&gt;Node2 -->
<g id="edge1" class="edge">
<title>Node1&#45;&gt;Node2</title>
<path fill="none" stroke="midnightblue" d="M535.58,-189.41C517.26,-178.69 497.28,-166.99 481.44,-157.73"/>
<polygon fill="midnightblue" stroke="midnightblue" points="483.04,-154.61 472.64,-152.58 479.5,-160.65 483.04,-154.61"/>
</g>
<!-- Node10 -->
<g id="node10" class="node">
<title>Node10</title>
<g id="a_node10"><a xlink:title=" ">
<polygon fill="white" stroke="#bfbfbf" points="537,-126.5 537,-152.5 637,-152.5 637,-126.5 537,-126.5"/>
<text text-anchor="middle" x="587" y="-135.7" font-family="Source Sans Pro" font-size="16.00">stb_image.h</text>
</a>
</g>
</g>
<!-- Node1&#45;&gt;Node10 -->
<g id="edge9" class="edge">
<title>Node1&#45;&gt;Node10</title>
<path fill="none" stroke="midnightblue" d="M587,-189.18C587,-180.45 587,-171.08 587,-162.91"/>
<polygon fill="midnightblue" stroke="midnightblue" points="590.5,-162.7 587,-152.7 583.5,-162.7 590.5,-162.7"/>
</g>
<!-- Node11 -->
<g id="node11" class="node">
<title>Node11</title>
<g id="a_node11"><a xlink:title=" ">
<polygon fill="white" stroke="#bfbfbf" points="655.5,-126.5 655.5,-152.5 714.5,-152.5 714.5,-126.5 655.5,-126.5"/>
<text text-anchor="middle" x="685" y="-135.7" font-family="Source Sans Pro" font-size="16.00">cmath</text>
</a>
</g>
</g>
<!-- Node1&#45;&gt;Node11 -->
<g id="edge10" class="edge">
<title>Node1&#45;&gt;Node11</title>
<path fill="none" stroke="midnightblue" d="M624.33,-189.41C636.92,-179.26 650.59,-168.24 661.77,-159.23"/>
<polygon fill="midnightblue" stroke="midnightblue" points="664.18,-161.78 669.77,-152.78 659.79,-156.33 664.18,-161.78"/>
</g>
<!-- Node3 -->
<g id="node3" class="node">
<title>Node3</title>
<g id="a_node3"><a xlink:href="vulkan_graphics_engine_link_8hpp.html" target="_top" xlink:title=" ">
<polygon fill="white" stroke="black" points="176.5,-63.5 176.5,-89.5 403.5,-89.5 403.5,-63.5 176.5,-63.5"/>
<text text-anchor="middle" x="290" y="-72.7" font-family="Source Sans Pro" font-size="16.00">vulkanGraphicsEngineLink.hpp</text>
</a>
</g>
</g>
<!-- Node2&#45;&gt;Node3 -->
<g id="edge2" class="edge">
<title>Node2&#45;&gt;Node3</title>
<path fill="none" stroke="midnightblue" d="M419.99,-126.45C394.59,-116.88 358.88,-103.44 331.32,-93.06"/>
<polygon fill="midnightblue" stroke="midnightblue" points="332.53,-89.78 321.94,-89.53 330.06,-96.33 332.53,-89.78"/>
</g>
<!-- Node8 -->
<g id="node8" class="node">
<title>Node8</title>
<g id="a_node8"><a xlink:title=" ">
<polygon fill="white" stroke="#bfbfbf" points="422,-63.5 422,-89.5 482,-89.5 482,-63.5 422,-63.5"/>
<text text-anchor="middle" x="452" y="-72.7" font-family="Source Sans Pro" font-size="16.00">deque</text>
</a>
</g>
</g>
<!-- Node2&#45;&gt;Node8 -->
<g id="edge7" class="edge">
<title>Node2&#45;&gt;Node8</title>
<path fill="none" stroke="midnightblue" d="M452,-126.45C452,-118.85 452,-108.79 452,-99.78"/>
<polygon fill="midnightblue" stroke="midnightblue" points="455.5,-99.53 452,-89.53 448.5,-99.53 455.5,-99.53"/>
</g>
<!-- Node9 -->
<g id="node9" class="node">
<title>Node9</title>
<g id="a_node9"><a xlink:title=" ">
<polygon fill="white" stroke="#bfbfbf" points="500,-63.5 500,-89.5 586,-89.5 586,-63.5 500,-63.5"/>
<text text-anchor="middle" x="543" y="-72.7" font-family="Source Sans Pro" font-size="16.00">functional</text>
</a>
</g>
</g>
<!-- Node2&#45;&gt;Node9 -->
<g id="edge8" class="edge">
<title>Node2&#45;&gt;Node9</title>
<path fill="none" stroke="midnightblue" d="M469.98,-126.45C483.31,-117.51 501.7,-105.18 516.69,-95.14"/>
<polygon fill="midnightblue" stroke="midnightblue" points="518.7,-98 525.06,-89.53 514.8,-92.19 518.7,-98"/>
</g>
<!-- Node4 -->
<g id="node4" class="node">
<title>Node4</title>
<g id="a_node4"><a xlink:href="vulkan_settings_8hpp.html" target="_top" xlink:title=" ">
<polygon fill="white" stroke="black" points="0,-0.5 0,-26.5 146,-26.5 146,-0.5 0,-0.5"/>
<text text-anchor="middle" x="73" y="-9.7" font-family="Source Sans Pro" font-size="16.00">vulkanSettings.hpp</text>
</a>
</g>
</g>
<!-- Node3&#45;&gt;Node4 -->
<g id="edge3" class="edge">
<title>Node3&#45;&gt;Node4</title>
<path fill="none" stroke="midnightblue" d="M247.13,-63.45C212.21,-53.63 162.75,-39.73 125.47,-29.25"/>
<polygon fill="midnightblue" stroke="midnightblue" points="126.36,-25.86 115.78,-26.53 124.46,-32.6 126.36,-25.86"/>
</g>
<!-- Node5 -->
<g id="node5" class="node">
<title>Node5</title>
<g id="a_node5"><a xlink:title=" ">
<polygon fill="white" stroke="#bfbfbf" points="164.5,-0.5 164.5,-26.5 277.5,-26.5 277.5,-0.5 164.5,-0.5"/>
<text text-anchor="middle" x="221" y="-9.7" font-family="Source Sans Pro" font-size="16.00">VkBootstrap.h</text>
</a>
</g>
</g>
<!-- Node3&#45;&gt;Node5 -->
<g id="edge4" class="edge">
<title>Node3&#45;&gt;Node5</title>
<path fill="none" stroke="midnightblue" d="M276.37,-63.45C266.63,-54.84 253.35,-43.1 242.23,-33.27"/>
<polygon fill="midnightblue" stroke="midnightblue" points="244.41,-30.53 234.6,-26.53 239.78,-35.77 244.41,-30.53"/>
</g>
<!-- Node6 -->
<g id="node6" class="node">
<title>Node6</title>
<g id="a_node6"><a xlink:title=" ">
<polygon fill="white" stroke="#bfbfbf" points="295.5,-0.5 295.5,-26.5 424.5,-26.5 424.5,-0.5 295.5,-0.5"/>
<text text-anchor="middle" x="360" y="-9.7" font-family="Source Sans Pro" font-size="16.00">vk_mem_alloc.h</text>
</a>
</g>
</g>
<!-- Node3&#45;&gt;Node6 -->
<g id="edge5" class="edge">
<title>Node3&#45;&gt;Node6</title>
<path fill="none" stroke="midnightblue" d="M303.83,-63.45C313.7,-54.84 327.18,-43.1 338.46,-33.27"/>
<polygon fill="midnightblue" stroke="midnightblue" points="340.96,-35.74 346.2,-26.53 336.36,-30.46 340.96,-35.74"/>
</g>
<!-- Node7 -->
<g id="node7" class="node">
<title>Node7</title>
<g id="a_node7"><a xlink:title=" ">
<polygon fill="white" stroke="#bfbfbf" points="442.5,-0.5 442.5,-26.5 501.5,-26.5 501.5,-0.5 442.5,-0.5"/>
<text text-anchor="middle" x="472" y="-9.7" font-family="Source Sans Pro" font-size="16.00">vector</text>
</a>
</g>
</g>
<!-- Node3&#45;&gt;Node7 -->
<g id="edge6" class="edge">
<title>Node3&#45;&gt;Node7</title>
<path fill="none" stroke="midnightblue" d="M325.96,-63.45C356.71,-53.14 400.9,-38.33 432.61,-27.7"/>
<polygon fill="midnightblue" stroke="midnightblue" points="434.06,-30.91 442.43,-24.41 431.83,-24.27 434.06,-30.91"/>
</g>
</g>
</svg>
